# vtk DataFile Version 5.1
vtk output
ASCII
DATASET POLYDATA
POINTS 100 float
0.160369 0.0636666 0.7909 0.160396 0.0641399 0.790584 0.160529 0.0653916 0.789513 
0.160748 0.0673013 0.7877 0.161019 0.0696841 0.785163 0.161299 0.0723131 0.781929 
0.161536 0.0749454 0.778023 0.161669 0.0773498 0.773467 0.161637 0.0793321 0.76828 
0.161375 0.0807544 0.76247 0.16082 0.0815471 0.75604 0.159912 0.0817106 0.748986 
0.158597 0.0813087 0.741301 0.15683 0.0804535 0.73298 0.154571 0.0792849 0.724021 
0.151791 0.0779471 0.714433 0.148472 0.0765668 0.704237 0.144603 0.0752344 0.693468 
0.140186 0.0739927 0.682172 0.13523 0.0728331 0.67041 0.129755 0.0717005 0.658246 
0.123788 0.0705063 0.645749 0.117361 0.0691459 0.63298 0.110516 0.0675205 0.619991 
0.103297 0.0655569 0.60682 0.0957516 0.0632253 0.593484 0.0879285 0.0605499 0.579984 
0.0798769 0.0576114 0.566298 0.0716441 0.0545416 0.552391 0.0632739 0.0515096 0.538219 
0.0548055 0.0487022 0.523729 0.0462728 0.0462998 0.50887 0.0377029 0.0444537 0.493598 
0.0291171 0.0432651 0.477876 0.0205305 0.0427707 0.461678 0.0119534 0.0429366 0.444987 
0.00339307 0.0436611 0.427794 -0.00514468 0.0447868 0.410092 -0.0136527 0.0461198 0.391873 
-0.0221202 0.0474546 0.373123 -0.03053 0.0486 0.353816 -0.0388562 0.0494044 0.333917 
-0.0470624 0.0497753 0.313378 -0.0551007 0.0496922 0.292143 -0.0629108 0.0492096 0.270155 
-0.070421 0.0484507 0.247358 -0.0775491 0.0475928 0.223714 -0.0842058 0.0468456 0.199201 
-0.0902969 0.0464254 0.173827 -0.0957283 0.046529 0.14763 -0.10041 0.0473104 0.120683 
-0.104261 0.0488629 0.093089 -0.107215 0.0512088 0.0649752 -0.109223 0.0542983 0.036487 
-0.110257 0.0580171 0.00777557 -0.110316 0.0622003 -0.0210125 -0.109422 0.0666533 -0.0497465 
-0.107624 0.071173 -0.0783201 -0.104997 0.0755701 -0.106658 -0.101636 0.0796863 -0.134717 
-0.0976525 0.0834072 -0.162488 -0.0931718 0.0866668 -0.189987 -0.0883232 0.0894459 -0.217249 
-0.0832345 0.0917625 -0.244318 -0.0780245 0.0936585 -0.271237 -0.0727969 0.0951831 -0.298035 
-0.0676336 0.0963761 -0.324723 -0.0625903 0.0972547 -0.351287 -0.0576937 0.0978038 -0.377686 
-0.0529399 0.0979732 -0.403855 -0.0482952 0.0976809 -0.429707 -0.0436997 0.0968223 -0.455144 
-0.0390712 0.0952846 -0.480064 -0.0343127 0.092963 -0.504366 -0.0293192 0.0897772 -0.527963 
-0.023987 0.0856861 -0.550781 -0.0182217 0.0806976 -0.572766 -0.0119465 0.0748732 -0.593878 
-0.00510884 0.0683256 -0.614093 0.00231376 0.0612109 -0.633392 0.010311 0.0537153 -0.651758 
0.0188386 0.0460393 -0.669167 0.0278197 0.0383799 -0.685587 0.0371487 0.030915 -0.700973 
0.0466968 0.0237903 -0.715266 0.0563187 0.0171116 -0.728403 0.0658613 0.0109415 -0.740316 
0.0751708 0.00530264 -0.750948 0.0841014 0.000184631 -0.760257 0.0925212 -0.00444499 -0.768228 
0.100318 -0.00862893 -0.774881 0.107401 -0.0124084 -0.780273 0.113705 -0.0158135 -0.784496 
0.119185 -0.0188575 -0.78768 0.123818 -0.0215339 -0.789977 0.127595 -0.0238191 -0.791551 
0.13052 -0.0256774 -0.792567 0.132603 -0.0270683 -0.793172 0.133852 -0.0279546 -0.793483 
0.134276 -0.0283098 -0.793575 
LINES 2 100
OFFSETS vtktypeint64
0 100 
CONNECTIVITY vtktypeint64
0 1 2 3 4 5 6 7 8 
9 10 11 12 13 14 15 16 17 
18 19 20 21 22 23 24 25 26 
27 28 29 30 31 32 33 34 35 
36 37 38 39 40 41 42 43 44 
45 46 47 48 49 50 51 52 53 
54 55 56 57 58 59 60 61 62 
63 64 65 66 67 68 69 70 71 
72 73 74 75 76 77 78 79 80 
81 82 83 84 85 86 87 88 89 
90 91 92 93 94 95 96 97 98 
99 
POINT_DATA 100
FIELD FieldData 3
_theta 1 100 double
0 0.031733259127 0.063466518254 0.095199777382 0.12693303651 0.15866629564 0.19039955476 0.22213281389 0.25386607302 
0.28559933214 0.31733259127 0.3490658504 0.38079910953 0.41253236865 0.44426562778 0.47599888691 0.50773214603 0.53946540516 
0.57119866429 0.60293192342 0.63466518254 0.66639844167 0.6981317008 0.72986495992 0.76159821905 0.79333147818 0.82506473731 
0.85679799643 0.88853125556 0.92026451469 0.95199777382 0.98373103294 1.0154642921 1.0471975512 1.0789308103 1.1106640695 
1.1423973286 1.1741305877 1.2058638468 1.237597106 1.2693303651 1.3010636242 1.3327968833 1.3645301425 1.3962634016 
1.4279966607 1.4597299198 1.491463179 1.5231964381 1.5549296972 1.5866629564 1.6183962155 1.6501294746 1.6818627337 
1.7135959929 1.745329252 1.7770625111 1.8087957702 1.8405290294 1.8722622885 1.9039955476 1.9357288068 1.9674620659 
1.999195325 2.0309285841 2.0626618433 2.0943951024 2.1261283615 2.1578616206 2.1895948798 2.2213281389 2.253061398 
2.2847946572 2.3165279163 2.3482611754 2.3799944345 2.4117276937 2.4434609528 2.4751942119 2.506927471 2.5386607302 
2.5703939893 2.6021272484 2.6338605076 2.6655937667 2.6973270258 2.7290602849 2.7607935441 2.7925268032 2.8242600623 
2.8559933214 2.8877265806 2.9194598397 2.9511930988 2.982926358 3.0146596171 3.0463928762 3.0781261353 3.1098593945 
3.1415926536 
_radius 1 100 double
4.8473028915e-16 0.015649661834 0.031231972965 0.046675843466 0.061905396759 0.076839059451 0.091390226197 0.10546970812 0.11898991464 
0.13187039462 0.14404400237 0.15546264835 0.16610147186 0.17596043694 0.18506280661 0.19345058562 0.20117764894 0.20830170821 
0.2148764051 0.22094468002 0.22653425137 0.23165566446 0.23630300234 0.24045704503 0.24409044054 0.24717428941 0.24968539396 
0.25161325138 0.25296569666 0.25377202678 0.25408260231 0.25396441916 0.25349292985 0.25274128205 0.25176886055 0.25061132061 
0.24927407597 0.2477305372 0.24592552014 0.24378341526 0.24122008489 0.23815706388 0.23453642274 0.23033455134 0.22557312049 
0.22032561636 0.2147181666 0.20892391009 0.20315089619 0.19762441709 0.19256573215 0.18817017645 0.18458831064 0.18191356967 
0.18017829615 0.17935699515 0.17937260724 0.1801016375 0.18137782626 0.18299788581 0.18473295839 0.18634635118 0.18761473865 
0.18834850715 0.18840738947 0.18770917312 0.18623142069 0.18400820276 0.18112460717 0.1777105408 0.17393332882 0.16998742278 
0.16607967299 0.16241054871 0.15915483522 0.15644706163 0.15437517802 0.15298197916 0.15227052313 0.15220911934 0.15273282294 
0.15374040795 0.15508779577 0.15658074569 0.15797088134 0.1589589685 0.15920730515 0.15836007644 0.15606832656 0.1520156805 
0.14594165505 0.13766051512 0.12707468102 0.11418248767 0.099080570158 0.081961317407 0.063105804424 0.042872536578 0.021682352758 
7.1128800382e-16 
_area 1 100 double
0 0.00053218308705 0.0021114119822 0.004688696615 0.0081911989949 0.012531747157 0.017615541278 0.023340524118 0.029592147758 
0.036238092554 0.043129220927 0.050109295065 0.057031490819 0.063777090304 0.070271143172 0.076490802359 0.082463817779 0.088256587214 
0.093953001631 0.099628127367 0.10532463682 0.1110402083 0.11672844556 0.12231042118 0.12769215182 0.13278370694 0.13751698484 
0.14185944197 0.1458191823 0.14943448681 0.1527449073 0.15575650683 0.15842449754 0.16066358625 0.16237780641 0.16350138788 
0.1640479682 0.16407168479 0.16352302617 0.16227274761 0.16015030675 0.15704223634 0.15288893708 0.14768225973 0.14153397888 
0.13460681687 0.12710549227 0.11954237035 0.11227518163 0.10516431472 0.09846816465 0.092428928951 0.087282971552 0.083405256802 
0.08076379186 0.078989395694 0.077843866201 0.07710377612 0.076665372734 0.076192813346 0.075455895584 0.074306522863 0.072666209374 
0.070518624857 0.067897366872 0.064878264473 0.06156916669 0.058198889958 0.055252285266 0.05253851083 0.050155239232 0.04829258639 
0.047101749038 0.046654138119 0.0469045486 0.047680313939 0.04874611513 0.049893420826 0.050969178176 0.051874772626 0.052563221002 
0.053029418787 0.053299001721 0.053413045906 0.053393761047 0.05318744466 0.052622377871 0.05143649031 0.049366112694 0.046234399949 
0.042002661151 0.036783202141 0.030823454169 0.0244718162 0.018134872495 0.012234119508 0.0071676949518 0.0032793538943 0.00083421162251 
4.9873502113e-17 
