# vtk DataFile Version 5.1
vtk output
ASCII
DATASET POLYDATA
POINTS 100 float
0.123669 0.0484329 0.718756 0.123981 0.0488107 0.718563 0.124925 0.0498 0.717836 
0.126395 0.051336 0.716578 0.128224 0.053318 0.714793 0.130203 0.055618 0.712481 
0.132104 0.0580916 0.709639 0.1337 0.0605899 0.706255 0.134788 0.0629713 0.702308 
0.135209 0.0651123 0.697767 0.134856 0.0669153 0.692596 0.133682 0.0683146 0.686753 
0.131697 0.0692782 0.6802 0.128963 0.0698064 0.672903 0.125575 0.0699274 0.664843 
0.121649 0.069691 0.656017 0.117302 0.06916 0.64644 0.112637 0.068402 0.63615 
0.107732 0.0674805 0.625202 0.102628 0.0664493 0.613665 0.0973318 0.0653466 0.601616 
0.0918157 0.0641941 0.589132 0.086028 0.0629966 0.576285 0.0799033 0.0617454 0.56313 
0.0733754 0.060423 0.549708 0.0663892 0.0590087 0.536037 0.0589108 0.0574853 0.522119 
0.0509329 0.0558446 0.507937 0.042477 0.0540918 0.493465 0.0335902 0.0522484 0.478673 
0.0243385 0.0503525 0.463536 0.0147976 0.0484571 0.448036 0.00504261 0.0466266 0.432169 
-0.00486141 0.0449311 0.415945 -0.0148663 0.0434409 0.399387 -0.0249441 0.0422199 0.382523 
-0.0350863 0.0413201 0.365382 -0.0452981 0.0407775 0.347984 -0.0555897 0.0406095 0.330332 
-0.0659649 0.0408146 0.312405 -0.0764092 0.0413737 0.294155 -0.0868789 0.042254 0.275505 
-0.0972934 0.0434134 0.256358 -0.107532 0.044806 0.236599 -0.117436 0.0463879 0.216113 
-0.126816 0.0481216 0.194796 -0.135464 0.04998 0.172571 -0.143169 0.0519478 0.149399 
-0.149738 0.0540218 0.125291 -0.155008 0.0562089 0.100312 -0.158864 0.0585225 0.0745783 
-0.161252 0.0609779 0.0482553 -0.162181 0.0635871 0.0215413 -0.161724 0.0663537 -0.0053466 
-0.160009 0.0692687 -0.0321915 -0.157208 0.0723079 -0.0587951 -0.153521 0.07543 -0.0849943 
-0.149156 0.0785779 -0.110673 -0.144311 0.0816813 -0.13577 -0.139158 0.0846604 -0.160277 
-0.133829 0.0874314 -0.184235 -0.128411 0.0899124 -0.20772 -0.122945 0.0920285 -0.230828 
-0.117426 0.0937171 -0.253658 -0.111817 0.0949312 -0.276293 -0.106055 0.0956412 -0.298788 
-0.100071 0.0958353 -0.321155 -0.0938028 0.0955179 -0.343366 -0.0872038 0.0947061 -0.365348 
-0.0802557 0.0934265 -0.386997 -0.0729725 0.0917101 -0.408188 -0.0654016 0.0895886 -0.428792 
-0.0576208 0.0870909 -0.448691 -0.0497313 0.0842404 -0.467795 -0.04185 0.0810549 -0.486049 
-0.0340988 0.0775471 -0.503442 -0.0265958 0.0737269 -0.520003 -0.0194473 0.0696048 -0.535793 
-0.0127419 0.0651958 -0.550895 -0.00654755 0.0605232 -0.565397 -0.000910595 0.0556223 -0.579372 
0.00414221 0.0505421 -0.592868 0.00860075 0.0453465 -0.60589 0.0124677 0.0401126 -0.618398 
0.0157546 0.0349278 -0.630309 0.0184791 0.0298854 -0.641497 0.0206631 0.0250786 -0.651816 
0.0223326 0.0205944 -0.661115 0.023518 0.0165071 -0.669256 0.0242566 0.0128731 -0.676139 
0.0245937 0.00972698 -0.681715 0.0245847 0.00707947 -0.686 0.0242951 0.00491773 -0.689075 
0.0237996 0.00320789 -0.691085 0.0231795 0.00189969 -0.692225 0.0225184 0.000932674 -0.69272 
0.0218965 0.000243411 -0.692803 0.0213853 -0.000227103 -0.692688 0.0210414 -0.000526586 -0.692548 
0.0209017 -0.000685932 -0.692493 
LINES 2 100
OFFSETS vtktypeint64
0 100 
CONNECTIVITY vtktypeint64
0 1 2 3 4 5 6 7 8 
9 10 11 12 13 14 15 16 17 
18 19 20 21 22 23 24 25 26 
27 28 29 30 31 32 33 34 35 
36 37 38 39 40 41 42 43 44 
45 46 47 48 49 50 51 52 53 
54 55 56 57 58 59 60 61 62 
63 64 65 66 67 68 69 70 71 
72 73 74 75 76 77 78 79 80 
81 82 83 84 85 86 87 88 89 
90 91 92 93 94 95 96 97 98 
99 
POINT_DATA 100
FIELD FieldData 3
_theta 1 100 double
0 0.031733259127 0.063466518254 0.095199777382 0.12693303651 0.15866629564 0.19039955476 0.22213281389 0.25386607302 
0.28559933214 0.31733259127 0.3490658504 0.38079910953 0.41253236865 0.44426562778 0.47599888691 0.50773214603 0.53946540516 
0.57119866429 0.60293192342 0.63466518254 0.66639844167 0.6981317008 0.72986495992 0.76159821905 0.79333147818 0.82506473731 
0.85679799643 0.88853125556 0.92026451469 0.95199777382 0.98373103294 1.0154642921 1.0471975512 1.0789308103 1.1106640695 
1.1423973286 1.1741305877 1.2058638468 1.237597106 1.2693303651 1.3010636242 1.3327968833 1.3645301425 1.3962634016 
1.4279966607 1.4597299198 1.491463179 1.5231964381 1.5549296972 1.5866629564 1.6183962155 1.6501294746 1.6818627337 
1.7135959929 1.745329252 1.7770625111 1.8087957702 1.8405290294 1.8722622885 1.9039955476 1.9357288068 1.9674620659 
1.999195325 2.0309285841 2.0626618433 2.0943951024 2.1261283615 2.1578616206 2.1895948798 2.2213281389 2.253061398 
2.2847946572 2.3165279163 2.3482611754 2.3799944345 2.4117276937 2.4434609528 2.4751942119 2.506927471 2.5386607302 
2.5703939893 2.6021272484 2.6338605076 2.6655937667 2.6973270258 2.7290602849 2.7607935441 2.7925268032 2.8242600623 
2.8559933214 2.8877265806 2.9194598397 2.9511930988 2.982926358 3.0146596171 3.0463928762 3.0781261353 3.1098593945 
3.1415926536 
_radius 1 100 double
6.6973807122e-16 0.015652816606 0.031099808109 0.04614824252 0.060638929905 0.074455933434 0.087529313152 0.099831413008 0.11136857614 
0.12217079146 0.13228145737 0.14174845382 0.1506166359 0.15892130721 0.16668248086 0.17390057144 0.18055495559 0.18660690558 
0.19200746721 0.19670932267 0.20068034882 0.2039160342 0.20644820031 0.20834829215 0.20972454777 0.21071342129 0.21146656355 
0.21213529362 0.21285467708 0.21372904749 0.21482027427 0.21613963407 0.21764400767 0.21923718915 0.22077699055 0.22208823977 
0.22298072553 0.22327001886 0.22279839245 0.22145308023 0.21917981993 0.21599065409 0.21196589696 0.20725069408 0.20204662269 
0.19659848602 0.1911762665 0.18605263067 0.18147766966 0.17765434124 0.17471933116 0.1727336355 0.1716846813 0.17149817262 
0.17205500368 0.1732081694 0.17479668127 0.17665637371 0.17862907617 0.18057118839 0.18236129141 0.18390559595 0.18514032078 
0.18603100055 0.18656952488 0.18677003755 0.18666469127 0.18629986407 0.18573297362 0.18502955568 0.18425987757 0.1834942016 
0.18279608249 0.18221382101 0.18177118353 0.18145925667 0.1812313626 0.18100223505 0.18065157915 0.18003130762 0.17897546755 
0.17731198777 0.17487548445 0.17152019613 0.16713176162 0.16163631246 0.15500547542 0.14725641194 0.13844683017 0.1286657998 
0.11802198389 0.10663139269 0.094606826712 0.082050760524 0.069052585455 0.055690045003 0.042033620558 0.028151883735 0.014115723952 
6.9136898483e-16 
_area 1 100 double
0 0.00057107656151 0.0022537068281 0.0049622779803 0.0085722253002 0.012940037398 0.01792107161 0.023381306805 0.029202091318 
0.035279344453 0.041520076087 0.047839277814 0.054159061146 0.060409614698 0.066529260529 0.072460599059 0.078142928528 0.083506042999 
0.088471846069 0.092965635355 0.096933228089 0.10035821103 0.1032746552 0.10577150734 0.10798490258 0.11007622581 0.11219926008 
0.11446752229 0.1169360399 0.11960460472 0.12243634888 0.1253772701 0.12836380982 0.13131351303 0.13410412831 0.13655599354 
0.13843422438 0.13947579791 0.13943254088 0.13811669587 0.13543812219 0.13142586543 0.12623111867 0.12011292567 0.11341099672 
0.10651061502 0.099801428761 0.093621759837 0.088187724981 0.083577601083 0.079782373324 0.076745381769 0.0743969787 0.072680104469 
0.071554222627 0.071041753703 0.071219720162 0.072205398455 0.073982096914 0.076145933298 0.078260379812 0.080029855426 0.081279896924 
0.081928141934 0.0819641349 0.081439275342 0.080463786654 0.079199879959 0.077824534581 0.076464010909 0.075188846027 0.074065614474 
0.073174687159 0.072593905445 0.072379011386 0.072555526783 0.073120562986 0.074040596415 0.075226248948 0.076481145999 0.077502554854 
0.077967271966 0.077596410103 0.076182809292 0.073608887558 0.069856536813 0.065004838423 0.05921544306 0.052709672745 0.045743480965 
0.038585582085 0.031500898987 0.024738111332 0.018518926628 0.013028288682 0.0084072780936 0.0047515619967 0.0021168453038 0.00052974136149 
3.6354922865e-18 
