# vtk DataFile Version 5.1
vtk output
ASCII
DATASET POLYDATA
POINTS 100 float
0.0536039 0.0773217 0.720783 0.0536948 0.0773683 0.72047 0.0540216 0.077381 0.719362 
0.0545361 0.0773714 0.717498 0.0551642 0.0773558 0.714937 0.0558153 0.0773522 0.711751 
0.0563938 0.0773754 0.708009 0.0568107 0.0774338 0.70377 0.0569946 0.0775251 0.699071 
0.0568993 0.0776348 0.693922 0.0565086 0.0777354 0.6883 0.0558362 0.0777875 0.682158 
0.0549217 0.0777436 0.675425 0.0538225 0.0775523 0.668019 0.0526043 0.0771637 0.659863 
0.0513285 0.0765356 0.650891 0.0500423 0.0756386 0.641064 0.0487691 0.0744605 0.630379 
0.0475033 0.0730083 0.618869 0.0462082 0.0713085 0.606605 0.0448196 0.0694053 0.593689 
0.043252 0.0673562 0.580246 0.0414092 0.0652264 0.566408 0.0391955 0.0630824 0.552302 
0.0365283 0.0609846 0.538038 0.0333483 0.0589815 0.523696 0.0296274 0.0571052 0.509321 
0.0253721 0.0553688 0.494921 0.0206231 0.053766 0.480467 0.0154496 0.0522738 0.465905 
0.00994035 0.0508572 0.451162 0.0041921 0.0494756 0.436161 -0.00170336 0.0480901 0.420828 
-0.00767099 0.0466712 0.405107 -0.013662 0.0452053 0.388962 -0.0196597 0.0436998 0.372382 
-0.0256801 0.0421857 0.355375 -0.0317678 0.0407173 0.337968 -0.0379872 0.0393694 0.320192 
-0.0444095 0.0382314 0.302074 -0.051098 0.0373999 0.283629 -0.0580925 0.0369693 0.264849 
-0.0653954 0.0370225 0.245703 -0.0729615 0.0376224 0.226134 -0.080692 0.0388044 0.206069 
-0.0884351 0.0405721 0.185424 -0.0959921 0.0428951 0.164118 -0.103129 0.04571 0.142088 
-0.109594 0.0489253 0.119301 -0.115136 0.052428 0.0957627 -0.119524 0.056092 0.0715281 
-0.122568 0.0597886 0.0466973 -0.124133 0.0633957 0.0214126 -0.124153 0.0668074 -0.00415308 
-0.122631 0.0699407 -0.029811 -0.119641 0.0727407 -0.0553745 -0.115318 0.0751822 -0.0806768 
-0.109848 0.0772692 -0.105587 -0.103444 0.0790307 -0.130021 -0.0963356 0.0805152 -0.153951 
-0.0887403 0.0817822 -0.177399 -0.080852 0.0828945 -0.200436 -0.0728236 0.0839086 -0.223164 
-0.0647589 0.0848677 -0.245703 -0.056708 0.0857947 -0.268168 -0.0486691 0.0866886 -0.290652 
-0.0405957 0.0875219 -0.313212 -0.0324078 0.0882421 -0.33585 -0.0240056 0.0887743 -0.358519 
-0.0152854 0.0890268 -0.381114 -0.0061548 0.0888981 -0.403486 0.00345442 0.0882845 -0.425454 
0.0135754 0.0870887 -0.446824 0.0242 0.0852276 -0.467404 0.0352761 0.0826397 -0.487024 
0.04671 0.0792904 -0.505553 0.0583716 0.075176 -0.522905 0.0701036 0.0703254 -0.539045 
0.0817314 0.0647998 -0.553989 0.0930755 0.0586898 -0.567793 0.103962 0.0521116 -0.580543 
0.114234 0.0452006 -0.592343 0.123759 0.0381049 -0.603297 0.132436 0.0309773 -0.613497 
0.140196 0.0239677 -0.623015 0.147007 0.0172159 -0.631894 0.15287 0.0108449 -0.64015 
0.157816 0.00495626 -0.647775 0.161901 -0.000374439 -0.654741 0.165199 -0.00509876 -0.661017 
0.167798 -0.00919576 -0.666572 0.169794 -0.0126703 -0.671386 0.171284 -0.0155494 -0.67546 
0.172361 -0.0178781 -0.678814 0.173112 -0.019713 -0.681491 0.173613 -0.0211165 -0.683548 
0.173931 -0.0221504 -0.685051 0.174116 -0.0228696 -0.686065 0.174206 -0.0233171 -0.686644 
0.174224 -0.02352 -0.686827 
LINES 2 100
OFFSETS vtktypeint64
0 100 
CONNECTIVITY vtktypeint64
0 1 2 3 4 5 6 7 8 
9 10 11 12 13 14 15 16 17 
18 19 20 21 22 23 24 25 26 
27 28 29 30 31 32 33 34 35 
36 37 38 39 40 41 42 43 44 
45 46 47 48 49 50 51 52 53 
54 55 56 57 58 59 60 61 62 
63 64 65 66 67 68 69 70 71 
72 73 74 75 76 77 78 79 80 
81 82 83 84 85 86 87 88 89 
90 91 92 93 94 95 96 97 98 
99 
POINT_DATA 100
FIELD FieldData 3
_theta 1 100 double
0 0.031733259127 0.063466518254 0.095199777382 0.12693303651 0.15866629564 0.19039955476 0.22213281389 0.25386607302 
0.28559933214 0.31733259127 0.3490658504 0.38079910953 0.41253236865 0.44426562778 0.47599888691 0.50773214603 0.53946540516 
0.57119866429 0.60293192342 0.63466518254 0.66639844167 0.6981317008 0.72986495992 0.76159821905 0.79333147818 0.82506473731 
0.85679799643 0.88853125556 0.92026451469 0.95199777382 0.98373103294 1.0154642921 1.0471975512 1.0789308103 1.1106640695 
1.1423973286 1.1741305877 1.2058638468 1.237597106 1.2693303651 1.3010636242 1.3327968833 1.3645301425 1.3962634016 
1.4279966607 1.4597299198 1.491463179 1.5231964381 1.5549296972 1.5866629564 1.6183962155 1.6501294746 1.6818627337 
1.7135959929 1.745329252 1.7770625111 1.8087957702 1.8405290294 1.8722622885 1.9039955476 1.9357288068 1.9674620659 
1.999195325 2.0309285841 2.0626618433 2.0943951024 2.1261283615 2.1578616206 2.1895948798 2.2213281389 2.253061398 
2.2847946572 2.3165279163 2.3482611754 2.3799944345 2.4117276937 2.4434609528 2.4751942119 2.506927471 2.5386607302 
2.5703939893 2.6021272484 2.6338605076 2.6655937667 2.6973270258 2.7290602849 2.7607935441 2.7925268032 2.8242600623 
2.8559933214 2.8877265806 2.9194598397 2.9511930988 2.982926358 3.0146596171 3.0463928762 3.0781261353 3.1098593945 
3.1415926536 
_radius 1 100 double
8.9812449524e-16 0.014447876044 0.028880215979 0.043268204745 0.057571763101 0.071737363675 0.085698609722 0.099379287939 0.11269802709 
0.12557342691 0.13792868195 0.14969524692 0.16081571655 0.17124647433 0.18096055299 0.18995057931 0.19823097629 0.2058382026 
0.2128279987 0.21926935606 0.22523594134 0.23079659426 0.23600693645 0.24090391095 0.2455042671 0.24980686706 0.25379761356 
0.25745518727 0.26075585987 0.26367632868 0.26619443413 0.2682883432 0.26993506237 0.27110902574 0.27178122227 0.27191911838 
0.27148759258 0.27045115499 0.26877771629 0.26644396449 0.26344199142 0.25978630705 0.25551998915 0.25071861827 0.2454909216 
0.23997563816 0.23433482396 0.22874434961 0.22338249069 0.21841739688 0.21399430716 0.21022390521 0.2071736965 0.2048639058 
0.20326802693 0.20231675316 0.20190370601 0.20189234369 0.20212467198 0.20243263302 0.20265202947 0.20263750963 0.20227655592 
0.20150068411 0.20029257529 0.19868821641 0.19677339529 0.19467433322 0.19254298755 0.1905385916 0.18880804353 0.18746827617 
0.18659324673 0.18620667596 0.18627983861 0.18673269305 0.18743711979 0.18822245673 0.18888449791 0.18919876782 0.18893743644 
0.18788762918 0.18586799032 0.18274056541 0.17841622961 0.1728535158 0.1660522507 0.15804447826 0.14888547061 0.13864707994 
0.12741438802 0.11528500895 0.10236914733 0.088788163133 0.074670109139 0.060142193043 0.045321772122 0.030308635024 0.015181430748 
1.0549788428e-15 
_area 1 100 double
0 0.00056992712012 0.00227279516 0.0050868979331 0.0089732366346 0.013872641222 0.019704125212 0.02636582798 0.033738785028 
0.041692212306 0.050087867247 0.058781315758 0.067620018638 0.076441308574 0.085075572219 0.093359092898 0.10115651368 0.10838685203 
0.11504288452 0.12119398996 0.12696763279 0.13251315642 0.13796002709 0.14338622097 0.14880792246 0.15419143594 0.15947867287 
0.164613666 0.16955956576 0.17430095908 0.17883243876 0.18313918852 0.18717763778 0.19086331534 0.19406897939 0.19663110969 
0.19836139269 0.19906294963 0.19855372608 0.19669746621 0.19343723846 0.18882193599 0.18301619406 0.17628936819 0.16898670142 
0.16149042029 0.15417745033 0.14737654859 0.14132490409 0.13612762152 0.13174106846 0.12800756432 0.12472596268 0.12171349641 
0.11884925509 0.11621857751 0.11454820916 0.11329329343 0.11211175686 0.11085780182 0.10937308289 0.10748093203 0.10501002193 
0.10184197446 0.097960734911 0.093470600805 0.088579881585 0.083564729716 0.078726636342 0.074353066542 0.07068595207 0.067898672647 
0.066077907077 0.065199599818 0.065198494176 0.065861124521 0.066948921475 0.068252135969 0.069569782224 0.070700386081 0.071452795707 
0.071656259685 0.071166629565 0.069873015592 0.067706009726 0.064644309768 0.060716224035 0.055994896461 0.050589615981 0.044638611875 
0.038308439685 0.031799055307 0.025345355118 0.019205113398 0.013632766576 0.008848743223 0.005016835906 0.0022378635124 0.00056018595293 
5.4550946157e-17 
