# vtk DataFile Version 5.1
vtk output
ASCII
DATASET POLYDATA
POINTS 100 float
0.149116 0.0461385 0.67427 0.149178 0.0465239 0.674014 0.149369 0.0475354 0.673089 
0.149655 0.0490962 0.67152 0.149982 0.0510862 0.66934 0.150283 0.0533529 0.666596 
0.150481 0.0557252 0.663341 0.150493 0.0580286 0.65963 0.150242 0.0601001 0.655519 
0.149656 0.0618018 0.651058 0.148678 0.0630317 0.646287 0.147263 0.0637302 0.641232 
0.145386 0.0638829 0.635907 0.143039 0.0635185 0.630306 0.140227 0.0627035 0.624409 
0.136971 0.0615321 0.618181 0.133296 0.0601161 0.611576 0.129234 0.058572 0.604542 
0.124815 0.0570095 0.597028 0.120065 0.0555213 0.588988 0.115002 0.0541755 0.580388 
0.109632 0.0530112 0.571212 0.103956 0.0520373 0.561464 0.0979631 0.0512348 0.551172 
0.0916379 0.0505622 0.540385 0.0849625 0.0499623 0.529173 0.0779206 0.0493713 0.517621 
0.0705016 0.0487274 0.505823 0.0627035 0.0479789 0.493873 0.0545354 0.0470912 0.481857 
0.0460182 0.0460516 0.469847 0.0371841 0.0448709 0.457893 0.028074 0.0435841 0.446019 
0.0187347 0.0422471 0.434219 0.00921442 0.0409322 0.422459 -0.000440999 0.0397223 0.410678 
-0.0101921 0.0387038 0.398795 -0.0200082 0.0379594 0.386715 -0.0298681 0.0375617 0.374335 
-0.0397597 0.0375671 0.361555 -0.0496762 0.0380121 0.348279 -0.0596121 0.0389097 0.33443 
-0.0695568 0.0402492 0.319944 -0.0794882 0.0419969 0.304781 -0.0893667 0.0440983 0.288916 
-0.0991299 0.0464823 0.272346 -0.10869 0.0490658 0.255079 -0.117933 0.0517598 0.237136 
-0.126723 0.0544751 0.218543 -0.134906 0.0571281 0.19933 -0.142322 0.0596464 0.179528 
-0.148813 0.0619731 0.159167 -0.154236 0.0640701 0.138276 -0.158477 0.0659197 0.116887 
-0.161457 0.0675247 0.0950341 -0.163148 0.0689067 0.0727551 -0.163568 0.0701031 0.0500965 
-0.162788 0.0711618 0.0271127 -0.160927 0.0721359 0.00386696 -0.158138 0.0730773 -0.0195699 
-0.154605 0.0740301 -0.0431214 -0.150518 0.0750253 -0.0667086 -0.146066 0.0760757 -0.0902533 
-0.141417 0.0771734 -0.113682 -0.136707 0.0782889 -0.136927 -0.132029 0.0793725 -0.159931 
-0.127427 0.0803582 -0.182643 -0.122898 0.0811694 -0.205023 -0.118393 0.081726 -0.227033 
-0.11383 0.0819523 -0.248636 -0.109103 0.0817854 -0.269793 -0.104097 0.0811822 -0.290458 
-0.0987055 0.0801248 -0.310576 -0.0928441 0.0786243 -0.330081 -0.0864611 0.0767211 -0.3489 
-0.0795473 0.0744826 -0.366952 -0.0721396 0.0719989 -0.38416 -0.0643207 0.0693748 -0.400451 
-0.0562137 0.0667221 -0.41577 -0.0479731 0.0641495 -0.430085 -0.0397735 0.0617541 -0.443391 
-0.0317959 0.0596135 -0.455718 -0.0242145 0.05778 -0.46713 -0.0171842 0.056278 -0.47772 
-0.0108307 0.0551036 -0.487604 -0.00524301 0.0542275 -0.496911 -0.000470604 0.0536002 -0.505771 
0.00347729 0.0531593 -0.514301 0.00662835 0.0528375 -0.522592 0.00904152 0.0525709 -0.530694 
0.0107997 0.0523055 -0.538613 0.0120016 0.0520034 -0.546305 0.0127534 0.0516454 -0.553677 
0.0131614 0.0512316 -0.560593 0.0133259 0.0507794 -0.566885 0.0133362 0.0503188 -0.572371 
0.0132675 0.0498875 -0.576866 0.0131791 0.0495237 -0.580206 0.0131133 0.04926 -0.582259 
0.0130952 0.0491185 -0.58294 
LINES 2 100
OFFSETS vtktypeint64
0 100 
CONNECTIVITY vtktypeint64
0 1 2 3 4 5 6 7 8 
9 10 11 12 13 14 15 16 17 
18 19 20 21 22 23 24 25 26 
27 28 29 30 31 32 33 34 35 
36 37 38 39 40 41 42 43 44 
45 46 47 48 49 50 51 52 53 
54 55 56 57 58 59 60 61 62 
63 64 65 66 67 68 69 70 71 
72 73 74 75 76 77 78 79 80 
81 82 83 84 85 86 87 88 89 
90 91 92 93 94 95 96 97 98 
99 
POINT_DATA 100
FIELD FieldData 3
_theta 1 100 double
0 0.031733259127 0.063466518254 0.095199777382 0.12693303651 0.15866629564 0.19039955476 0.22213281389 0.25386607302 
0.28559933214 0.31733259127 0.3490658504 0.38079910953 0.41253236865 0.44426562778 0.47599888691 0.50773214603 0.53946540516 
0.57119866429 0.60293192342 0.63466518254 0.66639844167 0.6981317008 0.72986495992 0.76159821905 0.79333147818 0.82506473731 
0.85679799643 0.88853125556 0.92026451469 0.95199777382 0.98373103294 1.0154642921 1.0471975512 1.0789308103 1.1106640695 
1.1423973286 1.1741305877 1.2058638468 1.237597106 1.2693303651 1.3010636242 1.3327968833 1.3645301425 1.3962634016 
1.4279966607 1.4597299198 1.491463179 1.5231964381 1.5549296972 1.5866629564 1.6183962155 1.6501294746 1.6818627337 
1.7135959929 1.745329252 1.7770625111 1.8087957702 1.8405290294 1.8722622885 1.9039955476 1.9357288068 1.9674620659 
1.999195325 2.0309285841 2.0626618433 2.0943951024 2.1261283615 2.1578616206 2.1895948798 2.2213281389 2.253061398 
2.2847946572 2.3165279163 2.3482611754 2.3799944345 2.4117276937 2.4434609528 2.4751942119 2.506927471 2.5386607302 
2.5703939893 2.6021272484 2.6338605076 2.6655937667 2.6973270258 2.7290602849 2.7607935441 2.7925268032 2.8242600623 
2.8559933214 2.8877265806 2.9194598397 2.9511930988 2.982926358 3.0146596171 3.0463928762 3.0781261353 3.1098593945 
3.1415926536 
_radius 1 100 double
8.9015488954e-16 0.011746628643 0.023489323852 0.035219213985 0.046928295672 0.058605555995 0.070231167374 0.081771580505 0.093178002612 
0.10438894022 0.11533553235 0.12594735162 0.13615641492 0.1458980607 0.15510878781 0.16372269248 0.17166915879 0.1788743411 
0.1852676123 0.19079214146 0.19541703052 0.19914763109 0.20203093111 0.2041540723 0.20563585022 0.20661307515 0.20722532016 
0.20760202689 0.20785464401 0.20807389212 0.208329821 0.2086714816 0.20912416183 0.20968440971 0.21031512034 0.21094376338 
0.21146617091 0.21175663274 0.21168300088 0.21112379147 0.20998360244 0.20820385168 0.20576747149 0.20269797233 0.19905460022 
0.19492590482 0.19042381055 0.18567916309 0.18083787039 0.17605497713 0.1714837717 0.16725953832 0.16348209121 0.1602042845 
0.15743179868 0.15513376055 0.15325917649 0.15175363425 0.15057269553 0.14969011159 0.14909952605 0.14880907601 0.14883083538 
0.14916992455 0.14981813257 0.15075388219 0.15194713545 0.15336626125 0.15498376923 0.15677843519 0.15873239897 0.16082326968 
0.16301298684 0.16523672981 0.16739585518 0.16935805126 0.17096564901 0.17205022967 0.1724496122 0.17202279294 0.17065946245 
0.16828285945 0.16484720411 0.16033278226 0.154742003 0.14809834673 0.14044804171 0.13186274223 0.12244097257 0.11230651478 
0.10160286813 0.090484015374 0.079102698315 0.067598022433 0.056084376899 0.04464338958 0.03332005368 0.02212342817 0.01103159451 
8.579862897e-16 
_area 1 100 double
0 0.00038435311695 0.0015371104167 0.0034561898177 0.0061340432492 0.0095516961408 0.013672278084 0.018437030168 0.023766122209 
0.029564362223 0.035729856449 0.042163319946 0.048776525007 0.055498124417 0.06227301751 0.069051367269 0.075769847373 0.082336208193 
0.088628115923 0.094507851401 0.099845719477 0.10454281939 0.10854631567 0.11185369002 0.11450620195 0.11657715946 0.11816235126 
0.11937223297 0.12031937417 0.121106306 0.12183040508 0.12259930576 0.12352218751 0.12466929422 0.1260393823 0.12755629637 
0.12907602245 0.13039586393 0.13127392069 0.13146132952 0.13074181728 0.12897100144 0.12610631698 0.12221741504 0.11747046017 
0.11208895125 0.10630499608 0.10032401133 0.0943276932 0.088580620444 0.083665905816 0.079599165384 0.07625729654 0.073413309208 
0.070940651545 0.068721928627 0.066644936024 0.064579537235 0.062486710102 0.060381574453 0.058364863171 0.056619337887 0.055375499333 
0.054835741911 0.054970117444 0.055548671155 0.05634532642 0.057190956861 0.057981537991 0.058681439087 0.059314378464 0.059940524646 
0.060625388743 0.061409953057 0.062289749331 0.063207076187 0.06405783121 0.064710846355 0.065033804291 0.064917645367 0.06429065737 
0.063117130287 0.061384445824 0.059087620002 0.056218403467 0.052764323322 0.048722419752 0.044124035248 0.039055517027 0.033662304899 
0.028136417341 0.022694239588 0.017551345349 0.012899080539 0.0088860544626 0.0056067942462 0.0030995169986 0.0013546887394 0.00033457893923 
1.6178020432e-17 
