# vtk DataFile Version 5.1
vtk output
ASCII
DATASET POLYDATA
POINTS 100 float
0.164335 0.0437132 0.762668 0.164349 0.0440406 0.762165 0.164422 0.044863 0.76055 
0.164516 0.0461129 0.757877 0.164568 0.0476879 0.754228 0.1645 0.0494617 0.749704 
0.164222 0.0512981 0.744417 0.163648 0.0530657 0.738475 0.162695 0.0546512 0.731971 
0.161294 0.0559704 0.724979 0.159397 0.0569746 0.717545 0.156974 0.0576527 0.709694 
0.154021 0.0580288 0.701424 0.150552 0.0581545 0.692724 0.146598 0.058099 0.683574 
0.142199 0.057937 0.673961 0.137402 0.0577366 0.663884 0.13225 0.057549 0.653359 
0.126777 0.0574007 0.642426 0.121008 0.0572905 0.631144 0.114953 0.0571902 0.619584 
0.108607 0.0570499 0.607824 0.101955 0.0568061 0.595941 0.0949764 0.0563932 0.583993 
0.0876482 0.055754 0.572019 0.0799545 0.0548507 0.560026 0.0718917 0.0536725 0.547992 
0.0634734 0.05224 0.535865 0.0547336 0.0506051 0.523571 0.0457276 0.0488467 0.511024 
0.0365297 0.0470627 0.498135 0.0272277 0.0453592 0.484827 0.0179167 0.043838 0.471043 
0.00868964 0.0425851 0.456754 -0.000371637 0.0416601 0.441965 -0.00920472 0.0410899 0.426705 
-0.0177735 0.0408656 0.41103 -0.026072 0.0409443 0.395003 -0.0341248 0.0412554 0.378687 
-0.0419837 0.0417105 0.362131 -0.0497204 0.0422151 0.34535 -0.0574166 0.0426816 0.328328 
-0.0651511 0.0430417 0.311002 -0.0729867 0.0432556 0.293273 -0.0809581 0.0433188 0.275008 
-0.0890606 0.0432632 0.256057 -0.0972442 0.0431548 0.236268 -0.105411 0.0430863 0.215504 
-0.113416 0.0431669 0.193668 -0.121081 0.0435097 0.170709 -0.128199 0.0442182 0.146641 
-0.134557 0.0453747 0.121543 -0.13995 0.04703 0.0955537 -0.144202 0.0491976 0.0688671 
-0.147182 0.0518514 0.0417113 -0.148814 0.0549278 0.0143309 -0.149089 0.0583322 -0.0130353 
-0.148064 0.0619476 -0.040175 -0.145862 0.0656462 -0.0669197 -0.142657 0.0693005 -0.093157 
-0.138662 0.0727943 -0.118836 -0.134111 0.0760311 -0.143964 -0.129238 0.0789399 -0.1686 
-0.124259 0.0814773 -0.192838 -0.119351 0.0836262 -0.216791 -0.114645 0.0853916 -0.240569 
-0.110214 0.0867938 -0.264265 -0.106075 0.0878605 -0.287936 -0.102192 0.0886189 -0.311595 
-0.0984856 0.0890886 -0.335208 -0.094848 0.0892767 -0.358698 -0.0911596 0.089175 -0.38195 
-0.087306 0.0887607 -0.404824 -0.0831934 0.0879995 -0.427175 -0.0787613 0.0868508 -0.448862 
-0.0739907 0.0852752 -0.469766 -0.0689068 0.083242 -0.489796 -0.0635774 0.080736 -0.5089 
-0.0581054 0.0777646 -0.527061 -0.0526186 0.0743607 -0.544294 -0.0472559 0.0705843 -0.560639 
-0.0421542 0.0665213 -0.576148 -0.037435 0.0622788 -0.590875 -0.0331941 0.0579788 -0.604863 
-0.0294939 0.0537501 -0.618139 -0.026361 0.0497188 -0.630708 -0.0237863 0.0459996 -0.64255 
-0.0217303 0.0426876 -0.653627 -0.0201301 0.039852 -0.663888 -0.0189088 0.0375313 -0.673274 
-0.0179853 0.0357323 -0.681733 -0.0172828 0.0344304 -0.689225 -0.016736 0.0335737 -0.695728 
-0.0162956 0.0330884 -0.701241 -0.0159295 0.0328861 -0.705783 -0.0156223 0.0328722 -0.709393 
-0.0153713 0.0329548 -0.712116 -0.0151825 0.0330525 -0.714003 -0.0150651 0.033102 -0.715098 
-0.0150268 0.0330634 -0.71543 
LINES 2 100
OFFSETS vtktypeint64
0 100 
CONNECTIVITY vtktypeint64
0 1 2 3 4 5 6 7 8 
9 10 11 12 13 14 15 16 17 
18 19 20 21 22 23 24 25 26 
27 28 29 30 31 32 33 34 35 
36 37 38 39 40 41 42 43 44 
45 46 47 48 49 50 51 52 53 
54 55 56 57 58 59 60 61 62 
63 64 65 66 67 68 69 70 71 
72 73 74 75 76 77 78 79 80 
81 82 83 84 85 86 87 88 89 
90 91 92 93 94 95 96 97 98 
99 
POINT_DATA 100
FIELD FieldData 3
_theta 1 100 double
0 0.031733259127 0.063466518254 0.095199777382 0.12693303651 0.15866629564 0.19039955476 0.22213281389 0.25386607302 
0.28559933214 0.31733259127 0.3490658504 0.38079910953 0.41253236865 0.44426562778 0.47599888691 0.50773214603 0.53946540516 
0.57119866429 0.60293192342 0.63466518254 0.66639844167 0.6981317008 0.72986495992 0.76159821905 0.79333147818 0.82506473731 
0.85679799643 0.88853125556 0.92026451469 0.95199777382 0.98373103294 1.0154642921 1.0471975512 1.0789308103 1.1106640695 
1.1423973286 1.1741305877 1.2058638468 1.237597106 1.2693303651 1.3010636242 1.3327968833 1.3645301425 1.3962634016 
1.4279966607 1.4597299198 1.491463179 1.5231964381 1.5549296972 1.5866629564 1.6183962155 1.6501294746 1.6818627337 
1.7135959929 1.745329252 1.7770625111 1.8087957702 1.8405290294 1.8722622885 1.9039955476 1.9357288068 1.9674620659 
1.999195325 2.0309285841 2.0626618433 2.0943951024 2.1261283615 2.1578616206 2.1895948798 2.2213281389 2.253061398 
2.2847946572 2.3165279163 2.3482611754 2.3799944345 2.4117276937 2.4434609528 2.4751942119 2.506927471 2.5386607302 
2.5703939893 2.6021272484 2.6338605076 2.6655937667 2.6973270258 2.7290602849 2.7607935441 2.7925268032 2.8242600623 
2.8559933214 2.8877265806 2.9194598397 2.9511930988 2.982926358 3.0146596171 3.0463928762 3.0781261353 3.1098593945 
3.1415926536 
_radius 1 100 double
2.4077061973e-16 0.013754251494 0.027460801118 0.041070458556 0.054531596297 0.067788432982 0.080779329297 0.093435820819 0.10568326598 
0.11744378276 0.12864158239 0.13921003206 0.14909903943 0.15828091864 0.16675299601 0.17453594381 0.18166805785 0.18819699141 
0.19417126503 0.19963382548 0.2046190866 0.20915365028 0.21325977778 0.21696003547 0.22028149473 0.22325829856 0.22593205948 
0.22835015366 0.23056232102 0.23261598731 0.23455051686 0.23639048626 0.23813831164 0.23976716037 0.24121573082 0.24238680421 
0.2431511945 0.24335781125 0.24284923114 0.24148087001 0.23914098602 0.23576854712 0.23136640713 0.22600804408 0.21983709542 
0.21305989823 0.20593205213 0.19874052774 0.19178298099 0.18534582174 0.17968253641 0.17499408501 0.17141377802 0.16899908665 
0.16773141094 0.16752230955 0.16822312306 0.16963570351 0.17152425042 0.17363022535 0.17569233558 0.17747093165 0.17877257244 
0.17946905159 0.17950678772 0.17890544316 0.17774711447 0.17615890466 0.17429237501 0.17230340583 0.17033521958 0.16850585779 
0.16689997988 0.16556421816 0.16450553747 0.16369256007 0.16305999518 0.16251586373 0.16195037742 0.16124476014 0.16027848858 
0.15893428191 0.15710112266 0.15467610495 0.15156584406 0.1476877827 0.14297134728 0.1373587673 0.13080548501 0.12328032803 
0.11476583314 0.10525918371 0.094774110329 0.083343821756 0.071024633903 0.057899540755 0.044080650854 0.029709343438 0.014953277802 
6.5409990194e-16 
_area 1 100 double
0 0.00046826619804 0.0018594570279 0.0041343072645 0.007231926592 0.011074704115 0.015572354556 0.020624253253 0.026120737142 
0.03194541728 0.037980873602 0.044118916849 0.050274155085 0.056396860056 0.062479449006 0.068551418319 0.074660622494 0.08084389672 
0.08709626691 0.093352895256 0.099495405016 0.10538144097 0.1108837575 0.11592417526 0.12049442069 0.12466115862 0.1285547676 
0.132343367 0.13619537275 0.14023476609 0.14450217522 0.14894723433 0.15345752381 0.15789219053 0.16209134458 0.16586275549 
0.16896531367 0.17110792001 0.17197281039 0.17126163781 0.16875334223 0.16435729742 0.15814669004 0.15036388746 0.14139692738 
0.1317315272 0.12188649777 0.11234610188 0.10350975263 0.095672302095 0.089026480132 0.083669881975 0.079607498706 0.076747752693 
0.074909507636 0.073865731632 0.073395685659 0.07331022417 0.073464692435 0.073782062564 0.074235469732 0.074679095059 0.074825869797 
0.074453931286 0.073477122618 0.071925499612 0.069912321315 0.067601251853 0.065177176206 0.062823022532 0.060703475905 0.058952259465 
0.057656830316 0.056841440443 0.056466355236 0.056457561567 0.056747007619 0.057289131026 0.058026147815 0.058838180636 0.059568793964 
0.060060897442 0.060160160132 0.059718134689 0.058603818012 0.056719070356 0.05401270332 0.050489488692 0.046212285501 0.041297537307 
0.035905960431 0.030230878939 0.024486349364 0.018896308191 0.013684928102 0.0090675750418 0.0052414992738 0.0023757932087 0.00060104161393 
1.8498114141e-17 
