# vtk DataFile Version 5.1
vtk output
ASCII
DATASET POLYDATA
POINTS 100 float
0.112129 0.0326514 0.667075 0.112198 0.0327391 0.666662 0.11244 0.0328963 0.665368 
0.112826 0.0331372 0.663238 0.113302 0.0334834 0.660344 0.113804 0.0339595 0.656776 
0.114253 0.0345882 0.652631 0.114568 0.0353855 0.648008 0.114666 0.0363562 0.642992 
0.114473 0.0374916 0.637648 0.113922 0.0387684 0.632016 0.112965 0.0401495 0.626108 
0.111567 0.0415877 0.619906 0.109713 0.04303 0.613372 0.107404 0.0444233 0.606449 
0.104657 0.0457205 0.599074 0.101496 0.0468855 0.591189 0.0979545 0.047897 0.582744 
0.0940653 0.0487506 0.573715 0.0898588 0.0494581 0.564102 0.0853586 0.0500452 0.553936 
0.08058 0.0505466 0.543276 0.0755292 0.0510007 0.532204 0.0702051 0.0514422 0.520823 
0.0646022 0.051897 0.509237 0.0587153 0.052377 0.497552 0.0525443 0.0528772 0.485856 
0.046099 0.0533754 0.474217 0.039403 0.0538343 0.462672 0.0324959 0.0542061 0.451223 
0.0254332 0.0544389 0.439843 0.0182838 0.0544845 0.428474 0.0111246 0.0543052 0.417033 
0.00403361 0.0538816 0.40543 -0.00291893 0.0532167 0.393565 -0.00967914 0.0523388 0.381349 
-0.0162175 0.0513009 0.368704 -0.0225346 0.0501772 0.355576 -0.0286636 0.0490573 0.341929 
-0.0346688 0.0480381 0.327754 -0.0406403 0.0472146 0.313055 -0.0466834 0.0466711 0.29785 
-0.0529063 0.0464732 0.282159 -0.0594039 0.0466617 0.265997 -0.0662429 0.0472491 0.249365 
-0.0734466 0.0482197 0.232246 -0.0809846 0.0495325 0.214604 -0.0887655 0.0511263 0.196385 
-0.0966378 0.0529275 0.177523 -0.104395 0.0548588 0.15795 -0.111791 0.0568478 0.137604 
-0.118555 0.0588346 0.116446 -0.124418 0.0607777 0.0944686 -0.129134 0.0626571 0.0717029 
-0.132505 0.0644746 0.0482267 -0.134403 0.0662512 0.0241622 -0.134782 0.068022 -0.000329158 
-0.133688 0.069829 -0.0250577 -0.131255 0.0717132 -0.0498209 -0.127699 0.0737064 -0.074421 
-0.123295 0.0758235 -0.0986845 -0.118358 0.0780579 -0.12248 -0.11321 0.0803772 -0.14573 
-0.10815 0.082724 -0.168424 -0.103429 0.085017 -0.190616 -0.0992225 0.0871568 -0.21242 
-0.0956156 0.089032 -0.233999 -0.0925934 0.0905276 -0.255543 -0.0900433 0.0915336 -0.277248 
-0.0877649 0.0919527 -0.299289 -0.0854894 0.0917077 -0.321797 -0.0829042 0.0907471 -0.344837 
-0.0796822 0.0890479 -0.368392 -0.0755115 0.0866174 -0.392358 -0.0701231 0.0834918 -0.416547 
-0.063314 0.0797334 -0.440695 -0.054964 0.0754267 -0.464483 -0.0450441 0.0706725 -0.487564 
-0.0336173 0.0655824 -0.509589 -0.0208316 0.0602731 -0.530239 -0.00690579 0.0548604 -0.549254 
0.00788853 0.0494552 -0.566448 0.023248 0.0441587 -0.581731 0.0388588 0.0390603 -0.59511 
0.0544161 0.0342349 -0.606682 0.0696404 0.0297422 -0.616623 0.0842892 0.0256261 -0.625167 
0.0981641 0.0219151 -0.632575 0.111112 0.018623 -0.639112 0.123024 0.0157503 -0.645017 
0.133829 0.0132856 -0.650479 0.143488 0.0112077 -0.655624 0.151982 0.0094881 -0.660506 
0.15931 0.00809276 -0.665107 0.165479 0.00698524 -0.669348 0.170498 0.0061291 -0.673107 
0.174378 0.00549047 -0.676237 0.177129 0.00504041 -0.678594 0.178757 0.00475692 -0.680055 
0.179268 0.00462643 -0.68054 
LINES 2 100
OFFSETS vtktypeint64
0 100 
CONNECTIVITY vtktypeint64
0 1 2 3 4 5 6 7 8 
9 10 11 12 13 14 15 16 17 
18 19 20 21 22 23 24 25 26 
27 28 29 30 31 32 33 34 35 
36 37 38 39 40 41 42 43 44 
45 46 47 48 49 50 51 52 53 
54 55 56 57 58 59 60 61 62 
63 64 65 66 67 68 69 70 71 
72 73 74 75 76 77 78 79 80 
81 82 83 84 85 86 87 88 89 
90 91 92 93 94 95 96 97 98 
99 
POINT_DATA 100
FIELD FieldData 3
_theta 1 100 double
0 0.031733259127 0.063466518254 0.095199777382 0.12693303651 0.15866629564 0.19039955476 0.22213281389 0.25386607302 
0.28559933214 0.31733259127 0.3490658504 0.38079910953 0.41253236865 0.44426562778 0.47599888691 0.50773214603 0.53946540516 
0.57119866429 0.60293192342 0.63466518254 0.66639844167 0.6981317008 0.72986495992 0.76159821905 0.79333147818 0.82506473731 
0.85679799643 0.88853125556 0.92026451469 0.95199777382 0.98373103294 1.0154642921 1.0471975512 1.0789308103 1.1106640695 
1.1423973286 1.1741305877 1.2058638468 1.237597106 1.2693303651 1.3010636242 1.3327968833 1.3645301425 1.3962634016 
1.4279966607 1.4597299198 1.491463179 1.5231964381 1.5549296972 1.5866629564 1.6183962155 1.6501294746 1.6818627337 
1.7135959929 1.745329252 1.7770625111 1.8087957702 1.8405290294 1.8722622885 1.9039955476 1.9357288068 1.9674620659 
1.999195325 2.0309285841 2.0626618433 2.0943951024 2.1261283615 2.1578616206 2.1895948798 2.2213281389 2.253061398 
2.2847946572 2.3165279163 2.3482611754 2.3799944345 2.4117276937 2.4434609528 2.4751942119 2.506927471 2.5386607302 
2.5703939893 2.6021272484 2.6338605076 2.6655937667 2.6973270258 2.7290602849 2.7607935441 2.7925268032 2.8242600623 
2.8559933214 2.8877265806 2.9194598397 2.9511930988 2.982926358 3.0146596171 3.0463928762 3.0781261353 3.1098593945 
3.1415926536 
_radius 1 100 double
1.1107649934e-15 0.012445134924 0.024893310165 0.037342695613 0.049777526223 0.062162066152 0.074436718743 0.086517713223 0.098301489724 
0.1096739555 0.12052346927 0.130755214 0.14030397954 0.14914251217 0.15728348745 0.16477463895 0.1716882771 0.17810782265 
0.18411446083 0.18977634372 0.19514139647 0.20023360964 0.20505226063 0.20957365868 0.21375528614 0.21754226248 0.22087577911 
0.22370263274 0.22598443705 0.22770477585 0.22887269869 0.22952162998 0.22970381506 0.22948151008 0.22891683538 0.22806231729 
0.22695368102 0.22560569748 0.22401116975 0.22214272043 0.21995697306 0.21740087194 0.21441999818 0.21096859275 0.20702055815 
0.2025801755 0.19769092609 0.19244080862 0.18696283838 0.18142981663 0.17604284512 0.17101355072 0.16654094937 0.16278562926 
0.15984606411 0.1577428686 0.15641513576 0.15572912712 0.15549607817 0.15549461737 0.1554938532 0.15527427196 0.15464466395 
0.15345440569 0.15160149184 0.14903739255 0.14576980841 0.14186373875 0.1374403323 0.13267227904 0.12777474265 0.12299255461 
0.11858600339 0.11481557237 0.11192187039 0.11009779626 0.10945781686 0.11001731673 0.11169342203 0.11432591478 0.11770394582 
0.12158342131 0.12569093804 0.12972161677 0.13334124721 0.13619839592 0.13794519819 0.13826123413 0.1368746024 0.1335767459 
0.12823056792 0.12077330145 0.11121602124 0.09964113051 0.0861982655 0.071098357626 0.054605598069 0.0370276609 0.01870500321 
5.7181783606e-16 
_area 1 100 double
0 0.00033269796728 0.0013306824391 0.0029925670809 0.0053125722172 0.0082758108302 0.011852903455 0.015994928994 0.020629653881 
0.025660200289 0.030967592218 0.036418356721 0.041877295809 0.047223914394 0.052369281942 0.057268871204 0.061926733876 0.066387958873 
0.070720413958 0.074992439555 0.079256057655 0.083541198326 0.08785883823 0.092206739019 0.096572433415 0.10093277775 0.10525489475 
0.10950223785 0.11363997205 0.11763081318 0.1214228527 0.12494054283 0.12808747998 0.13076004425 0.13286475274 0.13433142185 
0.13511734128 0.13520231249 0.13458011725 0.13325462833 0.13123779296 0.12852687055 0.12526450093 0.12142464297 0.11689143612 
0.1117118252 0.10598243086 0.099859181397 0.093566247564 0.08739283935 0.081663103925 0.07667306098 0.072613641613 0.069528092909 
0.067329650616 0.065841200063 0.064819080493 0.063985582581 0.06307525027 0.061866703642 0.060200820698 0.057994770344 0.055256616676 
0.052094739594 0.048663193161 0.045125204393 0.042122014178 0.039736768159 0.037601650218 0.035676328136 0.034000147555 0.032602779548 
0.03143623406 0.030453676413 0.029661734348 0.029113314761 0.0288917741 0.029091364486 0.029776536431 0.030921114187 0.032401729293 
0.034041785041 0.035643618491 0.037006845493 0.037942486564 0.038287300466 0.03791868006 0.036765996036 0.034813233902 0.032093063878 
0.028681736312 0.024704913027 0.020348708908 0.015858505675 0.011516661818 0.0076044891164 0.0043618198201 0.0019590229446 0.00049198943165 
4.329355908e-17 
