# vtk DataFile Version 5.1
vtk output
ASCII
DATASET POLYDATA
POINTS 100 float
0.115827 0.0688634 0.817508 0.115571 0.0691061 0.817301 0.114867 0.069669 0.81649 
0.113756 0.0705049 0.815046 0.112299 0.0715407 0.812927 0.110573 0.072686 0.810081 
0.108659 0.0738434 0.806455 0.106639 0.0749196 0.801999 0.104582 0.0758346 0.796674 
0.10254 0.0765298 0.79046 0.100546 0.0769719 0.783354 0.0986065 0.0771534 0.775378 
0.0967082 0.0770896 0.766578 0.0948193 0.0768124 0.757017 0.0928951 0.0763621 0.746778 
0.0908853 0.075779 0.735953 0.0887398 0.0750951 0.724637 0.0864146 0.0743281 0.712924 
0.0838761 0.0734787 0.700899 0.0811025 0.0725301 0.688631 0.078084 0.0714525 0.676172 
0.0748201 0.0702087 0.663552 0.0713161 0.0687625 0.650783 0.0675786 0.0670872 0.637856 
0.0636111 0.0651726 0.624749 0.0594107 0.0630306 0.611428 0.0549661 0.060697 0.597855 
0.0502577 0.0582302 0.58399 0.0452602 0.0557052 0.569798 0.0399458 0.0532065 0.555254 
0.0342898 0.0508174 0.540342 0.028276 0.04861 0.525062 0.0219013 0.0466364 0.509423 
0.0151795 0.0449219 0.493445 0.0081427 0.0434625 0.477159 0.000840062 0.0422265 0.460596 
-0.00666552 0.0411607 0.443788 -0.0143032 0.0401993 0.426762 -0.0220015 0.0392766 0.409535 
-0.0296954 0.0383395 0.39211 -0.0373339 0.0373591 0.374473 -0.0448848 0.0363399 0.356592 
-0.0523372 0.0353244 0.338416 -0.0597006 0.0343927 0.319876 -0.0670008 0.0336566 0.300886 
-0.0742719 0.0332487 0.281347 -0.0815468 0.0333081 0.261152 -0.0888451 0.0339632 0.240193 
-0.0961626 0.0353153 0.218365 -0.103461 0.0374238 0.195573 -0.110661 0.0402958 0.171739 
-0.117641 0.0438805 0.146809 -0.124238 0.0480711 0.120757 -0.130253 0.0527116 0.0935897 
-0.135469 0.0576103 0.0653469 -0.139659 0.0625571 0.0361051 -0.142608 0.0673426 0.00597405 
-0.144129 0.0717775 -0.0249063 -0.144083 0.0757093 -0.056371 -0.142389 0.0790344 -0.0882369 
-0.139034 0.0817054 -0.120311 -0.134079 0.0837304 -0.152397 -0.127652 0.0851668 -0.184309 
-0.119946 0.0861097 -0.215872 -0.111201 0.0866756 -0.246936 -0.101687 0.0869844 -0.277375 
-0.0916895 0.0871424 -0.307096 -0.0814839 0.0872266 -0.336035 -0.0713221 0.0872739 -0.364156 
-0.0614154 0.0872758 -0.391452 -0.0519246 0.0871794 -0.417936 -0.0429538 0.0868931 -0.443634 
-0.0345501 0.0862991 -0.468583 -0.0267083 0.0852678 -0.492819 -0.0193795 0.0836742 -0.516374 
-0.0124825 0.0814145 -0.539271 -0.00591748 0.0784194 -0.561518 0.000420728 0.0746642 -0.58311 
0.00662994 0.0701739 -0.604026 0.0127903 0.0650227 -0.624231 0.0189571 0.059329 -0.643682 
0.0251562 0.0532454 -0.662326 0.0313839 0.0469465 -0.680109 0.0376094 0.0406149 -0.696976 
0.043779 0.0344271 -0.71288 0.0498236 0.0285411 -0.727779 0.0556653 0.023087 -0.741641 
0.0612257 0.0181605 -0.754443 0.0664316 0.0138203 -0.766174 0.0712214 0.010089 -0.776829 
0.0755478 0.00695733 -0.786414 0.0793802 0.00438978 -0.794936 0.0827041 0.0023322 -0.802409 
0.0855201 0.000719333 -0.808847 0.0878402 -0.000517852 -0.814262 0.0896845 -0.00144597 -0.818668 
0.0910768 -0.00212421 -0.822076 0.0920406 -0.00260077 -0.824494 0.0925957 -0.00291052 -0.825929 
0.0927549 -0.00307362 -0.826384 
LINES 2 100
OFFSETS vtktypeint64
0 100 
CONNECTIVITY vtktypeint64
0 1 2 3 4 5 6 7 8 
9 10 11 12 13 14 15 16 17 
18 19 20 21 22 23 24 25 26 
27 28 29 30 31 32 33 34 35 
36 37 38 39 40 41 42 43 44 
45 46 47 48 49 50 51 52 53 
54 55 56 57 58 59 60 61 62 
63 64 65 66 67 68 69 70 71 
72 73 74 75 76 77 78 79 80 
81 82 83 84 85 86 87 88 89 
90 91 92 93 94 95 96 97 98 
99 
POINT_DATA 100
FIELD FieldData 3
_theta 1 100 double
0 0.031733259127 0.063466518254 0.095199777382 0.12693303651 0.15866629564 0.19039955476 0.22213281389 0.25386607302 
0.28559933214 0.31733259127 0.3490658504 0.38079910953 0.41253236865 0.44426562778 0.47599888691 0.50773214603 0.53946540516 
0.57119866429 0.60293192342 0.63466518254 0.66639844167 0.6981317008 0.72986495992 0.76159821905 0.79333147818 0.82506473731 
0.85679799643 0.88853125556 0.92026451469 0.95199777382 0.98373103294 1.0154642921 1.0471975512 1.0789308103 1.1106640695 
1.1423973286 1.1741305877 1.2058638468 1.237597106 1.2693303651 1.3010636242 1.3327968833 1.3645301425 1.3962634016 
1.4279966607 1.4597299198 1.491463179 1.5231964381 1.5549296972 1.5866629564 1.6183962155 1.6501294746 1.6818627337 
1.7135959929 1.745329252 1.7770625111 1.8087957702 1.8405290294 1.8722622885 1.9039955476 1.9357288068 1.9674620659 
1.999195325 2.0309285841 2.0626618433 2.0943951024 2.1261283615 2.1578616206 2.1895948798 2.2213281389 2.253061398 
2.2847946572 2.3165279163 2.3482611754 2.3799944345 2.4117276937 2.4434609528 2.4751942119 2.506927471 2.5386607302 
2.5703939893 2.6021272484 2.6338605076 2.6655937667 2.6973270258 2.7290602849 2.7607935441 2.7925268032 2.8242600623 
2.8559933214 2.8877265806 2.9194598397 2.9511930988 2.982926358 3.0146596171 3.0463928762 3.0781261353 3.1098593945 
3.1415926536 
_radius 1 100 double
6.8015319792e-16 0.015051224815 0.030054024975 0.044954757958 0.059697382047 0.074222461765 0.088466828908 0.10236445143 0.11584893436 
0.12885769634 0.14133733333 0.15324916881 0.16457367325 0.17531244065 0.18548678867 0.19513275624 0.20429314843 0.21300807325 
0.2213058685 0.22919627159 0.23666715016 0.24368527203 0.2502007284 0.25615399696 0.26148437023 0.26613854677 0.27007843807 
0.2732875154 0.27577519577 0.27757882946 0.27876287457 0.27941494754 0.27963870983 0.2795439868 0.27923501893 0.2787981847 
0.27829079807 0.27773260192 0.27710133022 0.27633322979 0.2753288091 0.27396342209 0.27210167455 0.26961411714 0.26639434004 
0.26237448042 0.2575373124 0.25192345805 0.2456327627 0.23881946875 0.23168148932 0.22444482274 0.21734487695 0.21060694377 
0.20442797891 0.19896123465 0.1943047333 0.19049464632 0.18750500198 0.18525459462 0.18362009802 0.18245262812 0.18159498412 
0.18089801617 0.18023515047 0.17951349218 0.17867940704 0.17771729052 0.17664214291 0.17548815966 0.17429543972 0.1730959926 
0.17190230076 0.17070561301 0.16948671147 0.16823072934 0.16693561165 0.16561107639 0.16427056201 0.16292017602 0.16154819164 
0.16011723752 0.15855985264 0.1567773436 0.15464179619 0.15200110019 0.14868668327 0.14452339311 0.13934075982 0.13298476472 
0.12532921872 0.11628590261 0.10581276207 0.093919665274 0.080671448076 0.066188113221 0.050642107235 0.034252638398 0.017277113105 
9.993969668e-16 
_area 1 100 double
0 0.00062111686465 0.0024735202307 0.0055255810765 0.0097277029099 0.015014315953 0.021303069402 0.028490875744 0.036448950912 
0.045020774478 0.05402680175 0.063277679024 0.072594543805 0.081831986423 0.090897367903 0.099759939683 0.10844500255 0.11701267943 
0.12552717001 0.13402713019 0.14250677841 0.15091099656 0.15914155666 0.16706966345 0.1745515181 0.18144549333 0.18762934117 
0.19301360606 0.19754652378 0.20121048383 0.20401682021 0.20600409839 0.20723888733 0.20781677681 0.20786023423 0.20750876762 
0.20690224544 0.20616592142 0.20540796664 0.20471952723 0.20408088085 0.20322197313 0.20175914253 0.19935871705 0.1957790963 
0.19088406174 0.18465631004 0.17721224425 0.16880850675 0.15982548165 0.15072071985 0.14195847899 0.13392755713 0.12685823986 
0.12076299562 0.11545186596 0.11064474124 0.10612057092 0.10183909557 0.098167632325 0.095528661698 0.093461830202 0.091655181516 
0.089924614889 0.08810877789 0.086075040324 0.08376458703 0.08121928193 0.078571645829 0.076011094198 0.07372875257 0.071832900446 
0.070300607499 0.06902663289 0.067906510813 0.066880480982 0.065930232642 0.065053222204 0.064236393541 0.063442073714 0.062610535046 
0.061674532864 0.060573935356 0.059263947651 0.057718744272 0.055937062202 0.053865982916 0.05125365543 0.047906575662 0.043790512204 
0.038966209585 0.03356648364 0.027787158795 0.021877559046 0.016127050646 0.010846463078 0.0063444351126 0.0029003945602 0.00073754888335 
1.6499970159e-17 
