# vtk DataFile Version 5.1
vtk output
ASCII
DATASET POLYDATA
POINTS 100 float
0.168464 0.0594681 0.663643 0.168448 0.0595215 0.663713 0.168516 0.0595725 0.663732 
0.16862 0.0596346 0.66367 0.168691 0.0597274 0.663477 0.168639 0.0598742 0.663081 
0.168369 0.060098 0.662396 0.16779 0.0604184 0.661321 0.166822 0.0608471 0.659745 
0.165406 0.0613853 0.657554 0.163505 0.0620209 0.654635 0.161105 0.0627273 0.650889 
0.158213 0.0634635 0.646233 0.154847 0.0641755 0.640608 0.151034 0.0647995 0.633989 
0.146797 0.065266 0.626383 0.142149 0.0655047 0.617831 0.13709 0.0654508 0.608407 
0.131604 0.0650499 0.598213 0.125661 0.0642638 0.587364 0.119222 0.0630744 0.575989 
0.112245 0.0614863 0.564211 0.104698 0.059528 0.552137 0.0965649 0.0572507 0.539856 
0.0878527 0.0547259 0.527423 0.078598 0.0520402 0.514862 0.0688669 0.0492903 0.502164 
0.0587516 0.0465761 0.48929 0.0483635 0.043994 0.47618 0.0378227 0.0416313 0.46276 
0.0272453 0.0395607 0.448954 0.016731 0.0378367 0.434688 0.00635223 0.036494 0.419906 
-0.00385381 0.0355476 0.404568 -0.0138882 0.0349947 0.388656 -0.0237884 0.0348174 0.372169 
-0.0336206 0.0349877 0.355123 -0.0434679 0.0354718 0.337542 -0.0534144 0.0362343 0.319448 
-0.0635288 0.0372422 0.300857 -0.0738473 0.0384677 0.281772 -0.0843604 0.0398887 0.262179 
-0.0950033 0.0414892 0.242047 -0.105653 0.0432575 0.221331 -0.116131 0.0451839 0.19998 
-0.126214 0.0472574 0.177944 -0.135649 0.0494631 0.155186 -0.144171 0.0517799 0.131694 
-0.151527 0.0541791 0.107484 -0.157496 0.056624 0.0826108 -0.161907 0.0590721 0.0571672 
-0.164651 0.0614766 0.0312804 -0.165693 0.0637907 0.0051061 -0.165069 0.0659711 -0.0211836 
-0.162882 0.0679818 -0.0474129 -0.159291 0.0697972 -0.0734166 -0.154494 0.0714038 -0.0990535 
-0.14871 0.0728004 -0.124216 -0.14216 0.0739968 -0.148839 -0.135052 0.0750105 -0.172899 
-0.127562 0.0758625 -0.196413 -0.119832 0.0765723 -0.219427 -0.111958 0.0771526 -0.242012 
-0.103997 0.0776054 -0.264241 -0.095968 0.077919 -0.286183 -0.0878629 0.0780667 -0.307885 
-0.0796561 0.0780088 -0.329366 -0.0713157 0.0776956 -0.350613 -0.0628127 0.077073 -0.371577 
-0.0541294 0.0760894 -0.392181 -0.0452643 0.0747032 -0.412328 -0.036234 0.0728899 -0.431916 
-0.0270728 0.0706476 -0.450846 -0.0178302 0.0680011 -0.46904 -0.00856642 0.0650025 -0.486449 
0.000651609 0.0617296 -0.50306 0.00975441 0.0582808 -0.518897 0.0186728 0.0547675 -0.534019 
0.0273394 0.0513055 -0.54851 0.0356892 0.0480046 -0.562472 0.0436584 0.0449591 -0.576006 
0.0511834 0.0422403 -0.589199 0.0582001 0.03989 -0.602116 0.0646439 0.0379184 -0.614785 
0.0704509 0.0363051 -0.627196 0.0755615 0.0350025 -0.639297 0.0799244 0.0339434 -0.651005 
0.0835032 0.0330498 -0.662209 0.086282 0.0322425 -0.672784 0.0882709 0.0314513 -0.682607 
0.0895109 0.0306229 -0.691566 0.0900746 0.0297267 -0.699572 0.0900654 0.028758 -0.706566 
0.0896128 0.0277375 -0.712521 0.0888642 0.0267073 -0.717442 0.0879747 0.0257244 -0.721359 
0.087095 0.0248532 -0.724318 0.0863585 0.0241555 -0.726368 0.0858701 0.0236829 -0.727557 
0.0856967 0.023469 -0.727916 
LINES 2 100
OFFSETS vtktypeint64
0 100 
CONNECTIVITY vtktypeint64
0 1 2 3 4 5 6 7 8 
9 10 11 12 13 14 15 16 17 
18 19 20 21 22 23 24 25 26 
27 28 29 30 31 32 33 34 35 
36 37 38 39 40 41 42 43 44 
45 46 47 48 49 50 51 52 53 
54 55 56 57 58 59 60 61 62 
63 64 65 66 67 68 69 70 71 
72 73 74 75 76 77 78 79 80 
81 82 83 84 85 86 87 88 89 
90 91 92 93 94 95 96 97 98 
99 
POINT_DATA 100
FIELD FieldData 3
_theta 1 100 double
0 0.031733259127 0.063466518254 0.095199777382 0.12693303651 0.15866629564 0.19039955476 0.22213281389 0.25386607302 
0.28559933214 0.31733259127 0.3490658504 0.38079910953 0.41253236865 0.44426562778 0.47599888691 0.50773214603 0.53946540516 
0.57119866429 0.60293192342 0.63466518254 0.66639844167 0.6981317008 0.72986495992 0.76159821905 0.79333147818 0.82506473731 
0.85679799643 0.88853125556 0.92026451469 0.95199777382 0.98373103294 1.0154642921 1.0471975512 1.0789308103 1.1106640695 
1.1423973286 1.1741305877 1.2058638468 1.237597106 1.2693303651 1.3010636242 1.3327968833 1.3645301425 1.3962634016 
1.4279966607 1.4597299198 1.491463179 1.5231964381 1.5549296972 1.5866629564 1.6183962155 1.6501294746 1.6818627337 
1.7135959929 1.745329252 1.7770625111 1.8087957702 1.8405290294 1.8722622885 1.9039955476 1.9357288068 1.9674620659 
1.999195325 2.0309285841 2.0626618433 2.0943951024 2.1261283615 2.1578616206 2.1895948798 2.2213281389 2.253061398 
2.2847946572 2.3165279163 2.3482611754 2.3799944345 2.4117276937 2.4434609528 2.4751942119 2.506927471 2.5386607302 
2.5703939893 2.6021272484 2.6338605076 2.6655937667 2.6973270258 2.7290602849 2.7607935441 2.7925268032 2.8242600623 
2.8559933214 2.8877265806 2.9194598397 2.9511930988 2.982926358 3.0146596171 3.0463928762 3.0781261353 3.1098593945 
3.1415926536 
_radius 1 100 double
6.6501252881e-16 0.013930303368 0.027862033125 0.041788413972 0.055694724207 0.069553495857 0.083319576622 0.096926145926 0.11028299961 
0.12327818033 0.13578340407 0.14766290981 0.15878457649 0.16903162647 0.17831311265 0.18657168934 0.19378778524 0.19998003217 
0.20520243859 0.20953916245 0.21309776303 0.2160015632 0.21838142561 0.22036708503 0.22207832887 0.22361668831 0.22505858856 
0.22645084469 0.22780900571 0.22911860081 0.23033901757 0.23140951035 0.23225659544 0.23280187218 0.23296928373 0.23269111952 
0.23191258554 0.23059528322 0.22872019269 0.22629064051 0.22333531002 0.21991079167 0.21610266108 0.21202379285 0.20780876644 
0.20360400514 0.19955475112 0.19579163006 0.19242030365 0.18951667985 0.18712783316 0.18527668775 0.18396762163 0.18319037557 
0.1829206061 0.18311693791 0.18371623207 0.18463032682 0.18574767637 0.18694153144 0.18808344106 0.18905875559 0.18978050169 
0.19019898044 0.19030576205 0.19013186902 0.18974061376 0.1892159577 0.18864789535 0.18811715277 0.18768171965 0.18736716096 
0.18716169847 0.18701617331 0.18684837096 0.18655077536 0.18600055518 0.18507044354 0.18363917032 0.18160026626 0.17886838428 
0.17538273174 0.17110767673 0.16603096017 0.16016014111 0.15351794484 0.14613715423 0.13805565436 0.12931221846 0.11994356422 
0.1099830655 0.099461258795 0.088407974843 0.076855622922 0.06484293634 0.05241839973 0.039642633773 0.026589192787 0.013343503512 
8.2077761279e-16 
_area 1 100 double
0 0.00047221412428 0.0018889860629 0.0042509911882 0.0075600237388 0.011818837386 0.017028261431 0.023179160513 0.030238248682 
0.038130301277 0.04672285595 0.055820499995 0.065173479336 0.074500547699 0.083520775304 0.091985922544 0.099705421225 0.10655968295 
0.1125025199 0.11755728054 0.12181168122 0.125412777 0.12855791932 0.1314739423 0.13437955077 0.13743610266 0.14070521586 
0.14413574258 0.14758733642 0.15087606611 0.15382027377 0.15627154425 0.15812546261 0.15931512886 0.15979620247 0.15953389567 
0.1584986528 0.15667105007 0.15405265692 0.15067914485 0.1466320212 0.14204465422 0.13709824155 0.13200550808 0.12698335597 
0.12221887599 0.11783715066 0.11388496804 0.11034241467 0.10715617992 0.10427304139 0.10165735486 0.099290423247 0.097158556565 
0.095239130741 0.093491693272 0.09185834625 0.090282692146 0.088777311707 0.087691476253 0.087064833374 0.08682770933 0.086556409434 
0.086110107752 0.085481986425 0.084707108899 0.083841659142 0.08295371651 0.08211388833 0.081382179663 0.080795906465 0.080365503704 
0.080083190357 0.079939285722 0.079927983634 0.080031100843 0.080195149589 0.080324027357 0.080284184472 0.079915463907 0.079050626573 
0.077540202832 0.075273643599 0.072192939698 0.068298930469 0.063650211412 0.058354933183 0.052557454173 0.046423067253 0.040124103225 
0.033829755396 0.027700418912 0.021885738008 0.016524496383 0.01174440896 0.0076607000622 0.004373456671 0.0019644542335 0.00049424511066 
2.8615140253e-17 
