# vtk DataFile Version 5.1
vtk output
ASCII
DATASET POLYDATA
POINTS 100 float
0.0564935 0.0595558 0.7165 0.0564278 0.0596402 0.716159 0.0562546 0.0598026 0.714935 
0.0559739 0.0600449 0.712855 0.0555867 0.0603679 0.70996 0.055096 0.0607692 0.706303 
0.0545071 0.0612404 0.701943 0.0538282 0.0617643 0.696934 0.0530696 0.062314 0.691324 
0.0522424 0.0628521 0.685149 0.0513567 0.0633319 0.678434 0.0504182 0.0637003 0.671188 
0.0494254 0.0639018 0.663411 0.0483667 0.0638837 0.655098 0.0472174 0.0636012 0.646242 
0.0459391 0.0630227 0.636841 0.0444793 0.0621338 0.6269 0.0427742 0.0609397 0.616437 
0.0407516 0.0594659 0.605479 0.0383372 0.0577565 0.594067 0.0354601 0.0558703 0.582245 
0.0320602 0.0538763 0.570059 0.028094 0.0518472 0.557554 0.0235396 0.0498531 0.544762 
0.0183997 0.0479558 0.531706 0.012702 0.0462042 0.518393 0.00649707 0.0446317 0.504816 
-0.000146421 0.0432555 0.490958 -0.00714861 0.042078 0.476794 -0.0144263 0.0410905 0.462301 
-0.0219014 0.0402775 0.447461 -0.0295082 0.0396224 0.432265 -0.0371989 0.0391127 0.416721 
-0.0449468 0.0387438 0.400851 -0.0527457 0.0385227 0.384689 -0.0606061 0.0384681 0.368274 
-0.0685491 0.0386098 0.351649 -0.0765968 0.0389851 0.334842 -0.0847628 0.0396346 0.317865 
-0.0930416 0.0405966 0.300704 -0.101401 0.0419013 0.283311 -0.109773 0.0435664 0.265609 
-0.118058 0.0455929 0.247491 -0.126118 0.0479639 0.22883 -0.13379 0.0506443 0.209491 
-0.140891 0.0535837 0.189347 -0.147233 0.0567202 0.168291 -0.152637 0.0599859 0.146255 
-0.156945 0.0633122 0.123221 -0.160037 0.0666359 0.0992272 -0.161836 0.0699031 0.0743724 
-0.16232 0.0730729 0.0488103 -0.161517 0.0761177 0.0227401 -0.159508 0.0790232 -0.00360869 
-0.156414 0.0817852 -0.0299943 -0.152387 0.0844061 -0.0561827 -0.147597 0.0868902 -0.0819666 
-0.142217 0.089239 -0.107181 -0.136407 0.0914474 -0.131713 -0.130306 0.0935012 -0.155509 
-0.124019 0.0953754 -0.178571 -0.117615 0.0970356 -0.20095 -0.111125 0.0984397 -0.222729 
-0.104546 0.0995421 -0.244014 -0.0978451 0.100297 -0.264909 -0.0909696 0.100665 -0.285504 
-0.0838575 0.100614 -0.305861 -0.0764459 0.100125 -0.326003 -0.0686809 0.0991913 -0.345916 
-0.0605236 0.0978215 -0.365546 -0.0519555 0.0960349 -0.384811 -0.0429795 0.0938603 -0.403612 
-0.0336199 0.0913328 -0.421848 -0.0239197 0.0884895 -0.439428 -0.0139363 0.085367 -0.456285 
-0.00373704 0.0819991 -0.472383 0.0066052 0.0784157 -0.487722 0.0170163 0.0746433 -0.502334 
0.0274235 0.0707066 -0.516278 0.0377572 0.0666315 -0.529626 0.0479514 0.0624475 -0.542455 
0.0579433 0.0581909 -0.55483 0.0676725 0.0539068 -0.566792 0.0770798 0.0496497 -0.578351 
0.086107 0.0454826 -0.589481 0.0946967 0.0414747 -0.600122 0.102794 0.037697 -0.610188 
0.110346 0.0342174 -0.619573 0.117308 0.0310945 -0.628171 0.123642 0.0283727 -0.635885 
0.129321 0.0260778 -0.642643 0.134332 0.0242137 -0.648409 0.138672 0.0227621 -0.653184 
0.142353 0.0216847 -0.65701 0.145395 0.0209265 -0.659967 0.147827 0.0204222 -0.662156 
0.149681 0.0201036 -0.66369 0.150985 0.019907 -0.664681 0.151764 0.0197805 -0.66522 
0.152035 0.0196903 -0.665367 
LINES 2 100
OFFSETS vtktypeint64
0 100 
CONNECTIVITY vtktypeint64
0 1 2 3 4 5 6 7 8 
9 10 11 12 13 14 15 16 17 
18 19 20 21 22 23 24 25 26 
27 28 29 30 31 32 33 34 35 
36 37 38 39 40 41 42 43 44 
45 46 47 48 49 50 51 52 53 
54 55 56 57 58 59 60 61 62 
63 64 65 66 67 68 69 70 71 
72 73 74 75 76 77 78 79 80 
81 82 83 84 85 86 87 88 89 
90 91 92 93 94 95 96 97 98 
99 
POINT_DATA 100
FIELD FieldData 3
_theta 1 100 double
0 0.031733259127 0.063466518254 0.095199777382 0.12693303651 0.15866629564 0.19039955476 0.22213281389 0.25386607302 
0.28559933214 0.31733259127 0.3490658504 0.38079910953 0.41253236865 0.44426562778 0.47599888691 0.50773214603 0.53946540516 
0.57119866429 0.60293192342 0.63466518254 0.66639844167 0.6981317008 0.72986495992 0.76159821905 0.79333147818 0.82506473731 
0.85679799643 0.88853125556 0.92026451469 0.95199777382 0.98373103294 1.0154642921 1.0471975512 1.0789308103 1.1106640695 
1.1423973286 1.1741305877 1.2058638468 1.237597106 1.2693303651 1.3010636242 1.3327968833 1.3645301425 1.3962634016 
1.4279966607 1.4597299198 1.491463179 1.5231964381 1.5549296972 1.5866629564 1.6183962155 1.6501294746 1.6818627337 
1.7135959929 1.745329252 1.7770625111 1.8087957702 1.8405290294 1.8722622885 1.9039955476 1.9357288068 1.9674620659 
1.999195325 2.0309285841 2.0626618433 2.0943951024 2.1261283615 2.1578616206 2.1895948798 2.2213281389 2.253061398 
2.2847946572 2.3165279163 2.3482611754 2.3799944345 2.4117276937 2.4434609528 2.4751942119 2.506927471 2.5386607302 
2.5703939893 2.6021272484 2.6338605076 2.6655937667 2.6973270258 2.7290602849 2.7607935441 2.7925268032 2.8242600623 
2.8559933214 2.8877265806 2.9194598397 2.9511930988 2.982926358 3.0146596171 3.0463928762 3.0781261353 3.1098593945 
3.1415926536 
_radius 1 100 double
4.510814767e-16 0.014007589401 0.027878185676 0.041481389906 0.054709737262 0.067486364142 0.079768493019 0.091546370455 0.10283793302 
0.11368003337 0.1241174775 0.13419138234 0.14392845933 0.15333277033 0.1623812878 0.17102418016 0.17919006311 0.18679552943 
0.19375735186 0.20000522816 0.20549298175 0.21020660247 0.21416814547 0.21743513331 0.22009566573 0.22225990204 0.22404891788 
0.22558215197 0.2269647687 0.22827626969 0.22956157287 0.23082553912 0.23203160409 0.2331048139 0.23393918751 0.23440892544 
0.23438254444 0.23373856068 0.23238094553 0.2302523771 0.22734347242 0.22369677916 0.21940518556 0.21460526016 0.20946662224 
0.20417877292 0.19893699371 0.19392894958 0.18932341852 0.1852620167 0.18185390927 0.17917254243 0.1772529593 0.17608884836 
0.17563006876 0.17578299508 0.17641624143 0.17737262413 0.17848559118 0.17959653582 0.18056942935 0.18130068098 0.18172394314 
0.18181079814 0.1815685748 0.18103618462 0.18027831484 0.17937797228 0.17842738806 0.17751763003 0.17672780615 0.17611528973 
0.17570864451 0.17550453154 0.17546877131 0.17554038327 0.17563664988 0.17565760961 0.17548963024 0.17500890341 0.17408597215 
0.17259175153 0.17040460994 0.16741750713 0.16354403251 0.15872233945 0.15291633753 0.14611402992 0.13832349132 0.12956754889 
0.1198785923 0.10929494662 0.097859821483 0.085623085693 0.07264523662 0.059002235738 0.044789591186 0.030124247229 0.015143388513 
4.7977708488e-16 
_area 1 100 double
0 0.00057916555851 0.0022875393129 0.0050418454249 0.0087159925709 0.013157168815 0.018203533935 0.023700690951 0.029515119874 
0.035543715809 0.0417188549 0.048007936039 0.054405851948 0.060919644789 0.067547589823 0.074258995313 0.080982655892 0.087608714515 
0.094002898195 0.10002809053 0.10556743359 0.11054406655 0.11493375625 0.11876795975 0.12212680718 0.12512395352 0.12788675138 
0.13053464238 0.13315793278 0.13580079994 0.1384537316 0.14105657461 0.1435073022 0.14567136528 0.14739141232 0.14850070352 
0.1488424915 0.14829293699 0.14678014792 0.14429263355 0.14087910186 0.13664642404 0.13175607225 0.12641304356 0.12084331569 
0.11526355995 0.10985366625 0.10474375883 0.10002070306 0.095745679553 0.091963320304 0.088694192261 0.085932279437 0.083650312423 
0.081792656441 0.080273371091 0.078997087166 0.077890695609 0.076942873274 0.076271702734 0.075950447466 0.07571981382 0.075413974712 
0.07500804004 0.074555599544 0.073947391129 0.0731417393 0.072156938273 0.071050128515 0.069905917517 0.068809913343 0.067826538857 
0.066999380301 0.066400074033 0.066044613596 0.065895733727 0.065941603342 0.066152563467 0.06647506183 0.066821922256 0.067067985888 
0.067055026712 0.066605803985 0.065545929144 0.063729853333 0.061064694941 0.057525527128 0.053158909556 0.048075790307 0.042437809547 
0.036441471067 0.030303234717 0.024246655542 0.018491385191 0.013243566431 0.0086875617325 0.0049794083191 0.0022424259007 0.00056499816766 
8.6736173799e-19 
