# vtk DataFile Version 5.1
vtk output
ASCII
DATASET POLYDATA
POINTS 100 float
0.117632 0.0606859 0.725922 0.117696 0.0608266 0.725524 0.11795 0.061125 0.724211 
0.11834 0.0615705 0.722011 0.118776 0.0621465 0.718972 0.119152 0.0628323 0.71515 
0.119349 0.0636041 0.710609 0.11925 0.0644364 0.705409 0.118754 0.0653032 0.699603 
0.117782 0.0661795 0.693234 0.116286 0.0670414 0.686329 0.114248 0.0678662 0.678902 
0.111686 0.0686328 0.670957 0.10864 0.0693206 0.662491 0.105172 0.0699089 0.6535 
0.101354 0.0703765 0.643986 0.0972599 0.0707013 0.633959 0.092954 0.0708602 0.623441 
0.0884878 0.0708298 0.612467 0.0838947 0.0705878 0.601085 0.0791889 0.0701145 0.589349 
0.0743678 0.0693954 0.577313 0.0694163 0.0684232 0.565027 0.0643127 0.0672004 0.55253 
0.059035 0.0657412 0.539841 0.0535671 0.0640729 0.526959 0.0479027 0.0622361 0.51386 
0.0420476 0.0602839 0.5005 0.036019 0.05828 0.486818 0.0298431 0.0562956 0.472744 
0.0235498 0.0544055 0.458206 0.0171673 0.0526827 0.443138 0.010716 0.0511945 0.427491 
0.00420384 0.0499966 0.411233 -0.00237641 0.0491301 0.394356 -0.00904708 0.0486176 0.376872 
-0.0158425 0.0484626 0.358814 -0.0228028 0.0486486 0.340229 -0.0299657 0.0491417 0.321168 
-0.037356 0.0498934 0.301679 -0.0449763 0.0508454 0.281801 -0.0527975 0.0519352 0.261557 
-0.0607528 0.0531015 0.240951 -0.0687348 0.0542903 0.219968 -0.0765972 0.0554592 0.198578 
-0.0841606 0.056581 0.176739 -0.0912227 0.057646 0.154412 -0.097572 0.0586616 0.131564 
-0.103003 0.0596505 0.108181 -0.107333 0.060648 0.0842721 -0.110416 0.0616963 0.0598784 
-0.112156 0.0628397 0.0350711 -0.112514 0.0641182 0.0099502 -0.111512 0.0655623 -0.0153614 
-0.109233 0.0671885 -0.0407267 -0.105812 0.0689957 -0.0660056 -0.101424 0.0709637 -0.0910653 
-0.0962717 0.0730539 -0.115791 -0.0905707 0.075211 -0.140095 -0.0845296 0.0773667 -0.163918 
-0.0783376 0.0794446 -0.187236 -0.072152 0.0813662 -0.210053 -0.0660894 0.083056 -0.232398 
-0.0602223 0.084447 -0.254316 -0.0545789 0.0854856 -0.275859 -0.0491475 0.0861339 -0.297076 
-0.0438844 0.0863716 -0.318006 -0.0387236 0.0861959 -0.338672 -0.0335881 0.0856196 -0.359077 
-0.0284008 0.0846686 -0.379205 -0.023095 0.0833774 -0.399024 -0.0176221 0.0817856 -0.418493 
-0.0119578 0.0799333 -0.437565 -0.00610515 0.0778574 -0.456196 -9.49497e-05 0.0755894 -0.474349 
0.00601613 0.073153 -0.491999 0.0121493 0.0705645 -0.509134 0.018209 0.0678333 -0.525751 
0.0240887 0.0649638 -0.54185 0.0296774 0.0619584 -0.557436 0.0348657 0.0588196 -0.5725 
0.0395518 0.0555538 -0.587025 0.0436461 0.0521731 -0.600973 0.047076 0.0486975 -0.614285 
0.0497892 0.0451551 -0.626883 0.0517565 0.0415821 -0.638677 0.0529735 0.0380215 -0.649567 
0.0534621 0.0345209 -0.659461 0.0532699 0.03113 -0.668277 0.0524695 0.0278975 -0.675961 
0.0511566 0.024869 -0.682491 0.0494462 0.0220838 -0.687886 0.0474686 0.0195741 -0.692203 
0.045363 0.0173638 -0.695536 0.0432715 0.0154692 -0.698008 0.0413318 0.013899 -0.69976 
0.0396695 0.0126568 -0.700933 0.0383913 0.0117425 -0.70166 0.0375791 0.0111542 -0.702047 
0.0372844 0.0108901 -0.70216 
LINES 2 100
OFFSETS vtktypeint64
0 100 
CONNECTIVITY vtktypeint64
0 1 2 3 4 5 6 7 8 
9 10 11 12 13 14 15 16 17 
18 19 20 21 22 23 24 25 26 
27 28 29 30 31 32 33 34 35 
36 37 38 39 40 41 42 43 44 
45 46 47 48 49 50 51 52 53 
54 55 56 57 58 59 60 61 62 
63 64 65 66 67 68 69 70 71 
72 73 74 75 76 77 78 79 80 
81 82 83 84 85 86 87 88 89 
90 91 92 93 94 95 96 97 98 
99 
POINT_DATA 100
FIELD FieldData 3
_theta 1 100 double
0 0.031733259127 0.063466518254 0.095199777382 0.12693303651 0.15866629564 0.19039955476 0.22213281389 0.25386607302 
0.28559933214 0.31733259127 0.3490658504 0.38079910953 0.41253236865 0.44426562778 0.47599888691 0.50773214603 0.53946540516 
0.57119866429 0.60293192342 0.63466518254 0.66639844167 0.6981317008 0.72986495992 0.76159821905 0.79333147818 0.82506473731 
0.85679799643 0.88853125556 0.92026451469 0.95199777382 0.98373103294 1.0154642921 1.0471975512 1.0789308103 1.1106640695 
1.1423973286 1.1741305877 1.2058638468 1.237597106 1.2693303651 1.3010636242 1.3327968833 1.3645301425 1.3962634016 
1.4279966607 1.4597299198 1.491463179 1.5231964381 1.5549296972 1.5866629564 1.6183962155 1.6501294746 1.6818627337 
1.7135959929 1.745329252 1.7770625111 1.8087957702 1.8405290294 1.8722622885 1.9039955476 1.9357288068 1.9674620659 
1.999195325 2.0309285841 2.0626618433 2.0943951024 2.1261283615 2.1578616206 2.1895948798 2.2213281389 2.253061398 
2.2847946572 2.3165279163 2.3482611754 2.3799944345 2.4117276937 2.4434609528 2.4751942119 2.506927471 2.5386607302 
2.5703939893 2.6021272484 2.6338605076 2.6655937667 2.6973270258 2.7290602849 2.7607935441 2.7925268032 2.8242600623 
2.8559933214 2.8877265806 2.9194598397 2.9511930988 2.982926358 3.0146596171 3.0463928762 3.0781261353 3.1098593945 
3.1415926536 
_radius 1 100 double
2.6230487465e-16 0.01359635169 0.027171426529 0.040695865823 0.054130080438 0.067421485885 0.080503830791 0.093298617905 0.10571827343 
0.11767056272 0.12906383598 0.13981292513 0.14984565858 0.1591097537 0.16757925675 0.1752590623 0.1821858654 0.18842446296 
0.19405946227 0.19918370262 0.20388557908 0.20823772432 0.21228915668 0.21606220246 0.21955446717 0.22274508206 0.22560359424 
0.22809938787 0.23020955937 0.23192373784 0.23324527324 0.23418917801 0.23477786711 0.23503594333 0.23498510769 0.23463996189 
0.23400519604 0.23307449256 0.23183140044 0.23025236624 0.2283119586 0.22599002862 0.22328011313 0.2201978954 0.21678813911 
0.21312839123 0.20932808875 0.20552259625 0.2018630232 0.1985039703 0.19559194404 0.19325652026 0.19160453057 0.19071548684 
0.1906354596 0.19136768997 0.19286125612 0.19500255963 0.19761574088 0.20047566206 0.2033318593 0.20593753994 0.20807702774 
0.20958712875 0.21037022726 0.21039851029 0.20970988756 0.2083971132 0.20659215082 0.20444797377 0.20212000129 0.19974933342 
0.19744966392 0.19529896378 0.19333583378 0.19155939487 0.18993132842 0.18837922867 0.18680119514 0.18507190104 0.18305010584 
0.18058719055 0.17753617013 0.17376069234 0.16914350439 0.16359369469 0.15705186104 0.14949242768 0.14092273083 0.13137913468 
0.1209210969 0.10962449772 0.097575503998 0.084865798045 0.07158940108 0.057840855307 0.043714349317 0.029303429417 0.014701074145 
9.0959114602e-16 
_area 1 100 double
0 0.0004720504056 0.0018732972019 0.0041602438061 0.0072647177902 0.011101080628 0.015576902627 0.020605575144 0.026116699893 
0.032058683335 0.038390505861 0.045065382595 0.052013383829 0.059131051826 0.066284808356 0.073329891346 0.080138221026 0.086623893313 
0.092757265431 0.098564018199 0.10411017899 0.10947721291 0.11473423236 0.11991707148 0.12502240298 0.13001631988 0.13484706715 
0.13945106257 0.14375143553 0.14765846701 0.15107958052 0.15393556501 0.15617349722 0.15777042168 0.1587283278 0.15906407763 
0.15879717488 0.15793673649 0.15647117558 0.1543688681 0.15159495975 0.14813705704 0.14402605454 0.13934327418 0.1342123468 
0.12877902339 0.12318637452 0.11755633076 0.11198672815 0.10656465326 0.10138682594 0.096573773161 0.092271531174 0.088734775189 
0.085916614537 0.083867630778 0.082676436865 0.08239536282 0.08305067339 0.084442306419 0.086204172253 0.088036200449 0.089656975273 
0.090787459281 0.091171054124 0.090640499087 0.089153316431 0.086788001151 0.083727487774 0.080236978633 0.076633146417 0.07323465818 
0.070291542579 0.067947651975 0.066279476151 0.065344329503 0.065182481124 0.065764350235 0.066954456168 0.068531672922 0.070191717497 
0.07157484952 0.072326928318 0.072147038136 0.070817969424 0.068228699538 0.064385925684 0.059407860843 0.053501344882 0.04693067103 
0.039987004252 0.032963533221 0.026137438194 0.019757442861 0.014035632035 0.0091434423313 0.0052123574989 0.0023384741979 0.00058790997664 
2.6026777913e-17 
