# vtk DataFile Version 5.1
vtk output
ASCII
DATASET POLYDATA
POINTS 100 float
0.123537 0.0589221 0.73816 0.123714 0.0591342 0.737782 0.124252 0.0595904 0.736478 
0.125067 0.0602684 0.734293 0.126033 0.061134 0.731298 0.126989 0.0621434 0.727579 
0.127763 0.0632454 0.723227 0.128187 0.0643843 0.718328 0.128114 0.0655033 0.71295 
0.127435 0.0665477 0.707141 0.126086 0.0674686 0.700921 0.124048 0.068226 0.694281 
0.121352 0.0687909 0.687192 0.118064 0.0691475 0.679608 0.114276 0.0692934 0.671478 
0.110089 0.0692388 0.662755 0.105603 0.0690048 0.653408 0.100895 0.0686201 0.643427 
0.0960194 0.068117 0.632831 0.0909955 0.0675269 0.621665 0.0858116 0.0668758 0.610003 
0.0804294 0.0661806 0.597936 0.0747936 0.0654462 0.585568 0.0688447 0.0646643 0.573001 
0.0625317 0.0638136 0.56033 0.0558242 0.0628628 0.547629 0.0487215 0.061774 0.534948 
0.0412565 0.0605084 0.522307 0.0334955 0.0590324 0.509699 0.0255316 0.0573233 0.497088 
0.0174744 0.0553748 0.484421 0.00943596 0.0532007 0.47163 0.00151545 0.050837 0.458645 
-0.00621502 0.0483411 0.445394 -0.0137221 0.0457889 0.431815 -0.021018 0.0432702 0.417856 
-0.0281614 0.0408816 0.403476 -0.0352525 0.0387196 0.388642 -0.0424209 0.0368723 0.373326 
-0.0498095 0.0354135 0.3575 -0.0575552 0.0343971 0.341132 -0.0657678 0.0338543 0.324182 
-0.0745116 0.0337931 0.3066 -0.0837897 0.0341999 0.288329 -0.0935352 0.0350442 0.269306 
-0.103608 0.0362833 0.24947 -0.113802 0.0378691 0.22877 -0.123855 0.0397536 0.207172 
-0.13347 0.0418944 0.184665 -0.142336 0.0442574 0.161269 -0.150155 0.0468187 0.137035 
-0.156664 0.0495629 0.112049 -0.161659 0.0524807 0.0864225 -0.165007 0.0555643 0.0602877 
-0.166658 0.0588023 0.0337893 -0.166645 0.062175 0.00707296 -0.165078 0.0656506 -0.0197248 
-0.162134 0.0691827 -0.0464846 -0.158034 0.0727111 -0.0731107 -0.153026 0.0761636 -0.099533 
-0.14736 0.0794611 -0.125706 -0.141272 0.0825233 -0.151606 -0.13496 0.085276 -0.177221 
-0.128578 0.0876573 -0.202546 -0.122225 0.0896232 -0.227572 -0.115949 0.0911506 -0.252283 
-0.109747 0.0922386 -0.276646 -0.103576 0.0929056 -0.300615 -0.0973711 0.0931853 -0.324129 
-0.0910522 0.0931192 -0.347121 -0.0845438 0.092749 -0.369525 -0.0777851 0.092109 -0.391282 
-0.0707401 0.0912194 -0.412351 -0.0634025 0.0900821 -0.432715 -0.0557977 0.0886796 -0.452383 
-0.0479798 0.086978 -0.471391 -0.0400258 0.0849322 -0.489796 -0.032027 0.0824955 -0.507665 
-0.0240801 0.0796295 -0.525067 -0.0162772 0.0763154 -0.542057 -0.00869808 0.0725632 -0.558662 
-0.00140365 0.0684196 -0.574874 0.00556708 0.0639701 -0.590642 0.0121976 0.0593385 -0.605869 
0.0184916 0.0546795 -0.62042 0.0244682 0.050168 -0.63413 0.0301552 0.0459845 -0.646823 
0.0355824 0.0422986 -0.658325 0.040774 0.0392516 -0.668489 0.0457427 0.0369425 -0.677211 
0.0504847 0.0354157 -0.684444 0.0549777 0.0346556 -0.690206 0.0591809 0.0345867 -0.694583 
0.063037 0.0350794 -0.697723 0.0664768 0.0359635 -0.699819 0.0694252 0.0370444 -0.701096 
0.0718077 0.0381235 -0.701782 0.0735578 0.0390192 -0.702088 0.0746229 0.0395861 -0.702184 
0.0749696 0.0397303 -0.702179 
LINES 2 100
OFFSETS vtktypeint64
0 100 
CONNECTIVITY vtktypeint64
0 1 2 3 4 5 6 7 8 
9 10 11 12 13 14 15 16 17 
18 19 20 21 22 23 24 25 26 
27 28 29 30 31 32 33 34 35 
36 37 38 39 40 41 42 43 44 
45 46 47 48 49 50 51 52 53 
54 55 56 57 58 59 60 61 62 
63 64 65 66 67 68 69 70 71 
72 73 74 75 76 77 78 79 80 
81 82 83 84 85 86 87 88 89 
90 91 92 93 94 95 96 97 98 
99 
POINT_DATA 100
FIELD FieldData 3
_theta 1 100 double
0 0.031733259127 0.063466518254 0.095199777382 0.12693303651 0.15866629564 0.19039955476 0.22213281389 0.25386607302 
0.28559933214 0.31733259127 0.3490658504 0.38079910953 0.41253236865 0.44426562778 0.47599888691 0.50773214603 0.53946540516 
0.57119866429 0.60293192342 0.63466518254 0.66639844167 0.6981317008 0.72986495992 0.76159821905 0.79333147818 0.82506473731 
0.85679799643 0.88853125556 0.92026451469 0.95199777382 0.98373103294 1.0154642921 1.0471975512 1.0789308103 1.1106640695 
1.1423973286 1.1741305877 1.2058638468 1.237597106 1.2693303651 1.3010636242 1.3327968833 1.3645301425 1.3962634016 
1.4279966607 1.4597299198 1.491463179 1.5231964381 1.5549296972 1.5866629564 1.6183962155 1.6501294746 1.6818627337 
1.7135959929 1.745329252 1.7770625111 1.8087957702 1.8405290294 1.8722622885 1.9039955476 1.9357288068 1.9674620659 
1.999195325 2.0309285841 2.0626618433 2.0943951024 2.1261283615 2.1578616206 2.1895948798 2.2213281389 2.253061398 
2.2847946572 2.3165279163 2.3482611754 2.3799944345 2.4117276937 2.4434609528 2.4751942119 2.506927471 2.5386607302 
2.5703939893 2.6021272484 2.6338605076 2.6655937667 2.6973270258 2.7290602849 2.7607935441 2.7925268032 2.8242600623 
2.8559933214 2.8877265806 2.9194598397 2.9511930988 2.982926358 3.0146596171 3.0463928762 3.0781261353 3.1098593945 
3.1415926536 
_radius 1 100 double
2.6513476379e-16 0.014141135026 0.0281796251 0.042007980236 0.055527282271 0.068650851605 0.081307082986 0.093441566134 0.10501834839 
0.11601992614 0.12644553289 0.13630755792 0.14562634933 0.15442409666 0.16271889064 0.17052033309 0.17782799643 0.18463335695 
0.1909246301 0.19669282124 0.20193698945 0.2066673733 0.21090613343 0.21468632558 0.21804995227 0.22104562138 0.22372580721 
0.22614332071 0.22834655982 0.23037347115 0.23224481283 0.23395799734 0.2354831253 0.2367625241 0.23771427582 0.23823928639 
0.23823083297 0.23758540144 0.2362138869 0.23405254276 0.23107302876 0.22729044568 0.22276779407 0.21761539023 0.21198450063 
0.20605548196 0.20002173109 0.19407178433 0.18837308909 0.18306173064 0.17824106884 0.17398795049 0.17036051091 0.16740102048 
0.16513159396 0.16354555204 0.16259875401 0.16220453249 0.16223603736 0.16253937821 0.16295631819 0.16334875276 0.16361586882 
0.16370001679 0.16358331676 0.16327958184 0.16282528401 0.16227104594 0.16167354252 0.1610874853 0.16055796095 0.16011395117 
0.15976395642 0.15949431637 0.15927040826 0.15904062879 0.15874272252 0.15831133428 0.15768484368 0.15680927961 0.15563793858 
0.1541269721 0.15222876771 0.14988563913 0.14702598249 0.14356402267 0.13940313675 0.13444193911 0.12858199877 0.12173613746 
0.11383649807 0.10484178016 0.094743131104 0.083568204455 0.07138294868 0.058290850764 0.044429653918 0.029965944467 0.015088326144 
8.4914520661e-16 
_area 1 100 double
0 0.00056322378925 0.0022400670447 0.0049883781068 0.0087285518884 0.013337585707 0.018651421902 0.024477801589 0.030617519845 
0.036889315238 0.043152795444 0.049323683055 0.055375936269 0.061327670228 0.067213548502 0.073052683119 0.078823617077 0.084455426506 
0.089838030704 0.094848365665 0.099385513422 0.103406707 0.10695443935 0.11016510323 0.11325361063 0.11647106689 0.12003567998 
0.12405845886 0.12850995259 0.13324661008 0.13806696399 0.14275806177 0.14711348304 0.15093054374 0.15400420281 0.15613012716 
0.15712063007 0.15683196927 0.15520964444 0.15232882347 0.14830601502 0.14347284198 0.13838051691 0.13271744229 0.12656068351 
0.12020664583 0.11395577845 0.10803955709 0.10258428203 0.097601244262 0.093006433823 0.088678582034 0.084582684585 0.08088758874 
0.077827777989 0.075412927738 0.073502215548 0.072049542153 0.071026111148 0.070305041713 0.069700330822 0.069052947106 0.068276866179 
0.067355555189 0.066299320198 0.065110768375 0.063798858274 0.062400221441 0.060970238107 0.05956665741 0.058228495289 0.056974663077 
0.055818569511 0.054777687949 0.053875492978 0.053134413569 0.052573613304 0.052205910571 0.05203274665 0.052038721057 0.052182517618 
0.052388036812 0.052542469281 0.052501397393 0.052098552682 0.051161681598 0.049535490558 0.047107432346 0.043829714125 0.039733199356 
0.034931938412 0.029618185056 0.024047599939 0.018514800101 0.01332150522 0.0087427444142 0.0049991813601 0.002243402303 0.00056355996241 
3.7749438496e-17 
