# vtk DataFile Version 5.1
vtk output
ASCII
DATASET POLYDATA
POINTS 100 float
0.181256 0.046235 0.743202 0.1814 0.0464574 0.743122 0.181968 0.0469776 0.742726 
0.182862 0.04777 0.74197 0.183927 0.0487941 0.740787 0.184976 0.0499974 0.739097 
0.185805 0.0513198 0.736809 0.186222 0.0526974 0.733843 0.186064 0.0540671 0.730126 
0.185222 0.0553709 0.725612 0.183644 0.0565589 0.720278 0.181348 0.0575924 0.714129 
0.178408 0.0584449 0.707197 0.174954 0.0591025 0.699534 0.171144 0.0595633 0.691205 
0.167148 0.0598356 0.682279 0.163126 0.0599356 0.67282 0.159205 0.0598848 0.662879 
0.155466 0.0597074 0.65249 0.151927 0.0594273 0.641663 0.148549 0.0590666 0.630388 
0.145233 0.0586439 0.618636 0.141833 0.0581731 0.606367 0.138175 0.057664 0.593538 
0.134074 0.057122 0.580113 0.129355 0.0565498 0.566068 0.123874 0.055948 0.551406 
0.117531 0.0553169 0.536153 0.110282 0.0546576 0.520366 0.102138 0.0539733 0.504127 
0.0931676 0.0532703 0.48754 0.0834843 0.0525582 0.470722 0.0732341 0.0518504 0.45379 
0.06258 0.0511639 0.436852 0.0516853 0.0505185 0.419996 0.0406991 0.0499363 0.403278 
0.0297444 0.0494409 0.386715 0.0189118 0.0490558 0.370284 0.00825703 0.0488038 0.353918 
-0.00219556 0.0487055 0.337512 -0.0124457 0.0487783 0.320929 -0.0225068 0.0490353 0.304011 
-0.0323943 0.0494841 0.286588 -0.0421137 0.0501267 0.268493 -0.0516516 0.050958 0.249571 
-0.0609689 0.0519666 0.22969 -0.0699979 0.0531344 0.208751 -0.0786445 0.0544371 0.186694 
-0.0867932 0.0558456 0.163497 -0.0943156 0.0573274 0.139179 -0.101081 0.0588479 0.113798 
-0.106967 0.0603734 0.0874426 -0.111869 0.0618723 0.0602303 -0.115709 0.063318 0.0322969 
-0.118442 0.06469 0.00379069 -0.120056 0.0659758 -0.0251352 -0.120569 0.0671709 -0.0543289 
-0.120029 0.0682787 -0.0836458 -0.118506 0.0693097 -0.112952 -0.116082 0.0702789 -0.142129 
-0.112845 0.0712033 -0.171075 -0.108883 0.0720986 -0.199704 -0.104274 0.0729757 -0.227949 
-0.0990882 0.073837 -0.255759 -0.0933819 0.074674 -0.283098 -0.0871996 0.0754648 -0.309941 
-0.0805766 0.0761733 -0.336275 -0.0735416 0.0767494 -0.362092 -0.0661206 0.0771312 -0.387385 
-0.0583409 0.0772478 -0.412149 -0.0502334 0.0770236 -0.436372 -0.0418349 0.0763839 -0.460035 
-0.0331887 0.07526 -0.483112 -0.0243443 0.073595 -0.505564 -0.0153567 0.0713492 -0.527342 
-0.00628387 0.0685041 -0.548388 0.00281387 0.0650651 -0.568639 0.0118761 0.061063 -0.588025 
0.020843 0.0565535 -0.60648 0.0296562 0.0516152 -0.623944 0.0382585 0.0463453 -0.640365 
0.0465939 0.0408553 -0.655706 0.0546073 0.0352648 -0.669948 0.0622445 0.029695 -0.683088 
0.0694528 0.0242626 -0.695144 0.0761822 0.0190741 -0.706147 0.0823872 0.0142204 -0.716146 
0.0880294 0.00977365 -0.725194 0.09308 0.00578458 -0.733351 0.0975226 0.00228173 -0.740676 
0.101355 -0.000727814 -0.747223 0.10459 -0.00325642 -0.753036 0.107257 -0.00533273 -0.758148 
0.109396 -0.0069976 -0.76258 0.111058 -0.00829949 -0.766342 0.112302 -0.00928963 -0.769432 
0.113185 -0.0100173 -0.771845 0.11376 -0.0105257 -0.773568 0.114068 -0.0108477 -0.774593 
0.114137 -0.0110041 -0.77491 
LINES 2 100
OFFSETS vtktypeint64
0 100 
CONNECTIVITY vtktypeint64
0 1 2 3 4 5 6 7 8 
9 10 11 12 13 14 15 16 17 
18 19 20 21 22 23 24 25 26 
27 28 29 30 31 32 33 34 35 
36 37 38 39 40 41 42 43 44 
45 46 47 48 49 50 51 52 53 
54 55 56 57 58 59 60 61 62 
63 64 65 66 67 68 69 70 71 
72 73 74 75 76 77 78 79 80 
81 82 83 84 85 86 87 88 89 
90 91 92 93 94 95 96 97 98 
99 
POINT_DATA 100
FIELD FieldData 3
_theta 1 100 double
0 0.031733259127 0.063466518254 0.095199777382 0.12693303651 0.15866629564 0.19039955476 0.22213281389 0.25386607302 
0.28559933214 0.31733259127 0.3490658504 0.38079910953 0.41253236865 0.44426562778 0.47599888691 0.50773214603 0.53946540516 
0.57119866429 0.60293192342 0.63466518254 0.66639844167 0.6981317008 0.72986495992 0.76159821905 0.79333147818 0.82506473731 
0.85679799643 0.88853125556 0.92026451469 0.95199777382 0.98373103294 1.0154642921 1.0471975512 1.0789308103 1.1106640695 
1.1423973286 1.1741305877 1.2058638468 1.237597106 1.2693303651 1.3010636242 1.3327968833 1.3645301425 1.3962634016 
1.4279966607 1.4597299198 1.491463179 1.5231964381 1.5549296972 1.5866629564 1.6183962155 1.6501294746 1.6818627337 
1.7135959929 1.745329252 1.7770625111 1.8087957702 1.8405290294 1.8722622885 1.9039955476 1.9357288068 1.9674620659 
1.999195325 2.0309285841 2.0626618433 2.0943951024 2.1261283615 2.1578616206 2.1895948798 2.2213281389 2.253061398 
2.2847946572 2.3165279163 2.3482611754 2.3799944345 2.4117276937 2.4434609528 2.4751942119 2.506927471 2.5386607302 
2.5703939893 2.6021272484 2.6338605076 2.6655937667 2.6973270258 2.7290602849 2.7607935441 2.7925268032 2.8242600623 
2.8559933214 2.8877265806 2.9194598397 2.9511930988 2.982926358 3.0146596171 3.0463928762 3.0781261353 3.1098593945 
3.1415926536 
_radius 1 100 double
3.6108926491e-16 0.014819972001 0.02948858945 0.043863000554 0.05782416795 0.071285739741 0.084198749593 0.09655071544 0.10835838585 
0.11965460318 0.13047123175 0.14082136117 0.15068456887 0.15999863119 0.16865974081 0.17653141021 0.18346044207 0.18929718735 
0.19391699175 0.19724005448 0.19924750562 0.19999204253 0.19960185583 0.1982768971 0.19627694936 0.19390166615 0.19146397982 
0.18926004641 0.18754054202 0.18648848478 0.18620712983 0.18671845883 0.18796980724 0.18984455301 0.19217315389 0.1947429235 
0.19730762905 0.19959966573 0.2013471335 0.20229590852 0.20223425502 0.20101612395 0.19857938896 0.19495624549 0.19027409989 
0.18474622064 0.17865235874 0.1723107548 0.16604459402 0.16014785083 0.15485683743 0.15033343801 0.14666311908 0.1438660263 
0.14191514034 0.14075394907 0.14030801766 0.14048893143 0.14119330767 0.14230193172 0.14368318963 0.14520149891 0.14672834235 
0.14815290786 0.14939041054 0.15038733345 0.15112354028 0.15161144392 0.15189221305 0.15202878018 0.15209574289 0.152167272 
0.15230537804 0.15255139849 0.15292256392 0.15341331014 0.15399896349 0.1546384963 0.15527354635 0.15582313321 0.15617681099 
0.15619112152 0.15569337875 0.154493654 0.15240259504 0.14925107562 0.14490775909 0.13929173178 0.13237870901 0.12420055396 
0.11483883956 0.10441389907 0.093071254732 0.080967481638 0.068257446903 0.05508447021 0.041574335881 0.027833370501 0.013950153058 
1.5197056466e-15 
_area 1 100 double
0 0.00046768184586 0.0018603214965 0.0041473953916 0.00728034785 0.011196320984 0.015824211776 0.021093324789 0.026942773361 
0.033326837553 0.040210204851 0.047549658359 0.05526565471 0.063215654543 0.071184625039 0.078901109844 0.086073585337 0.092432690255 
0.097766029723 0.10194008556 0.10491092582 0.10672661418 0.10752070352 0.10749452332 0.10689010855 0.10596144547 0.10495219477 
0.10408241314 0.10354086708 0.10347838128 0.10400093299 0.10516418661 0.10696917977 0.10935332355 0.11217458017 0.11520831448 
0.11817894169 0.12080103442 0.12279811847 0.12391860392 0.12395013877 0.12273692349 0.12020039597 0.11635543189 0.11132255157 
0.1053291364 0.098691252998 0.091778040943 0.084967293945 0.07859692012 0.072916067165 0.068050877204 0.064004218872 0.060691079267 
0.057991363127 0.05580369602 0.054091213487 0.052889071491 0.052244949146 0.052139845281 0.052472002745 0.053095976353 0.053862302766 
0.05463387331 0.055287938182 0.055719198908 0.055846810054 0.055623853819 0.055050198558 0.054183222083 0.053132553657 0.05203400609 
0.051021729588 0.050273000685 0.049864664769 0.049624917873 0.049510875906 0.049592006228 0.049988416906 0.050779967595 0.051951862213 
0.053333819794 0.054636472871 0.055522351725 0.055672429317 0.054836924924 0.052869394588 0.04974360311 0.045553079077 0.040494750979 
0.034840142981 0.028899600832 0.022986136388 0.017385132981 0.012334281562 0.0080152634562 0.0045557662343 0.0020382932936 0.00051144980393 
4.5782866039e-17 
