# vtk DataFile Version 5.1
vtk output
ASCII
DATASET POLYDATA
POINTS 100 float
0.155752 0.0627919 0.744638 0.155814 0.0628675 0.744303 0.156026 0.0629383 0.743133 
0.15634 0.0630149 0.741134 0.156678 0.0631143 0.738314 0.156944 0.0632564 0.734684 
0.157026 0.0634601 0.730261 0.156806 0.0637388 0.725065 0.156171 0.0640967 0.719119 
0.155022 0.0645252 0.712451 0.153275 0.0650013 0.705091 0.150876 0.0654872 0.697075 
0.147795 0.065932 0.688441 0.144033 0.0662746 0.67923 0.139615 0.0664487 0.66949 
0.134591 0.0663886 0.659266 0.129027 0.0660353 0.648607 0.123 0.0653428 0.637561 
0.116592 0.0642833 0.626172 0.109879 0.062851 0.614482 0.102934 0.0610641 0.602522 
0.0958134 0.0589652 0.590318 0.0885618 0.0566178 0.577886 0.0812086 0.0541033 0.565231 
0.0737707 0.0515139 0.55235 0.0662548 0.048946 0.539231 0.0586612 0.046493 0.525855 
0.050988 0.0442381 0.512198 0.0432349 0.0422483 0.498237 0.0354056 0.0405707 0.483947 
0.0275099 0.03923 0.469307 0.0195635 0.0382291 0.454298 0.0115868 0.0375516 0.438906 
0.00360254 0.037166 0.42312 -0.0043678 0.0370313 0.406929 -0.012307 0.0371039 0.390323 
-0.0202052 0.0373433 0.373287 -0.0280613 0.0377177 0.355804 -0.0358834 0.0382077 0.337845 
-0.0436869 0.0388083 0.319379 -0.0514904 0.0395288 0.300367 -0.0593106 0.04039 0.280764 
-0.0671554 0.0414204 0.260529 -0.0750172 0.0426506 0.239622 -0.0828661 0.0441074 0.218015 
-0.0906447 0.0458079 0.195691 -0.0982661 0.0477553 0.172657 -0.105613 0.0499355 0.148937 
-0.112544 0.0523161 0.12458 -0.118895 0.0548481 0.0996566 -0.124495 0.0574689 0.0742547 
-0.129176 0.0601079 0.0484767 -0.132782 0.0626926 0.0224316 -0.135189 0.0651554 -0.00377157 
-0.136309 0.0674399 -0.030031 -0.136102 0.0695058 -0.0562579 -0.134582 0.0713315 -0.0823812 
-0.131811 0.0729156 -0.108349 -0.1279 0.0742741 -0.134131 -0.122998 0.0754371 -0.15971 
-0.11728 0.0764425 -0.185085 -0.110933 0.0773294 -0.210258 -0.104137 0.0781306 -0.235232 
-0.0970576 0.0788665 -0.260003 -0.0898269 0.0795405 -0.284557 -0.0825394 0.0801362 -0.308864 
-0.0752458 0.0806177 -0.332878 -0.0679547 0.0809324 -0.356542 -0.0606378 0.0810165 -0.37979 
-0.0532394 0.080802 -0.402552 -0.045689 0.0802251 -0.424763 -0.0379153 0.0792341 -0.446367 
-0.0298597 0.0777969 -0.467326 -0.0214885 0.0759065 -0.48762 -0.0128024 0.0735833 -0.507248 
-0.00384077 0.0708755 -0.526226 0.00531722 0.0678555 -0.544581 0.0145569 0.0646141 -0.562345 
0.0237363 0.0612527 -0.579544 0.0326967 0.0578741 -0.596188 0.0412761 0.0545738 -0.612268 
0.0493219 0.0514314 -0.627746 0.0567033 0.0485046 -0.642552 0.0633206 0.0458258 -0.656591 
0.0691117 0.0434015 -0.669746 0.0740547 0.0412144 -0.681889 0.0781664 0.0392292 -0.692892 
0.0814978 0.037399 -0.702643 0.0841263 0.0356739 -0.711059 0.086147 0.034009 -0.7181 
0.0876628 0.0323717 -0.723774 0.0887755 0.0307467 -0.728145 0.0895786 0.0291389 -0.731326 
0.0901516 0.0275732 -0.73348 0.0905577 0.0260918 -0.734799 0.0908434 0.0247485 -0.735493 
0.0910399 0.0236022 -0.73577 0.0911663 0.0227094 -0.735818 0.0912329 0.0221164 -0.735783 
0.0912447 0.0218539 -0.735762 
LINES 2 100
OFFSETS vtktypeint64
0 100 
CONNECTIVITY vtktypeint64
0 1 2 3 4 5 6 7 8 
9 10 11 12 13 14 15 16 17 
18 19 20 21 22 23 24 25 26 
27 28 29 30 31 32 33 34 35 
36 37 38 39 40 41 42 43 44 
45 46 47 48 49 50 51 52 53 
54 55 56 57 58 59 60 61 62 
63 64 65 66 67 68 69 70 71 
72 73 74 75 76 77 78 79 80 
81 82 83 84 85 86 87 88 89 
90 91 92 93 94 95 96 97 98 
99 
POINT_DATA 100
FIELD FieldData 3
_theta 1 100 double
0 0.031733259127 0.063466518254 0.095199777382 0.12693303651 0.15866629564 0.19039955476 0.22213281389 0.25386607302 
0.28559933214 0.31733259127 0.3490658504 0.38079910953 0.41253236865 0.44426562778 0.47599888691 0.50773214603 0.53946540516 
0.57119866429 0.60293192342 0.63466518254 0.66639844167 0.6981317008 0.72986495992 0.76159821905 0.79333147818 0.82506473731 
0.85679799643 0.88853125556 0.92026451469 0.95199777382 0.98373103294 1.0154642921 1.0471975512 1.0789308103 1.1106640695 
1.1423973286 1.1741305877 1.2058638468 1.237597106 1.2693303651 1.3010636242 1.3327968833 1.3645301425 1.3962634016 
1.4279966607 1.4597299198 1.491463179 1.5231964381 1.5549296972 1.5866629564 1.6183962155 1.6501294746 1.6818627337 
1.7135959929 1.745329252 1.7770625111 1.8087957702 1.8405290294 1.8722622885 1.9039955476 1.9357288068 1.9674620659 
1.999195325 2.0309285841 2.0626618433 2.0943951024 2.1261283615 2.1578616206 2.1895948798 2.2213281389 2.253061398 
2.2847946572 2.3165279163 2.3482611754 2.3799944345 2.4117276937 2.4434609528 2.4751942119 2.506927471 2.5386607302 
2.5703939893 2.6021272484 2.6338605076 2.6655937667 2.6973270258 2.7290602849 2.7607935441 2.7925268032 2.8242600623 
2.8559933214 2.8877265806 2.9194598397 2.9511930988 2.982926358 3.0146596171 3.0463928762 3.0781261353 3.1098593945 
3.1415926536 
_radius 1 100 double
1.2468402669e-15 0.01423856727 0.02843461252 0.042544965627 0.056535352785 0.070379557951 0.084054596014 0.09753381679 0.1107805336 
0.12374440108 0.13636170193 0.14855942301 0.16026190542 0.17139822694 0.18190849885 0.19174788626 0.20088804069 0.20931630513 
0.21703330995 0.22404959118 0.23038189458 0.23604992485 0.24107430035 0.24547622573 0.24927890059 0.2525100985 0.25520489851 
0.25740740656 0.25917052392 0.26055333738 0.26161637659 0.2624156231 0.26299655613 0.26338950103 0.2636070674 0.26364369452 
0.26347660013 0.26306718047 0.26236252376 0.26129801256 0.25980279043 0.25780893369 0.25526313713 0.25213843284 0.24844360447 
0.24422881005 0.23958668732 0.23464866548 0.22957653249 0.22454978075 0.21975000721 0.21534454826 0.21147221701 0.20823395594 
0.20568985021 0.2038611751 0.20273347526 0.20225703259 0.20234550561 0.202878078 0.20370965947 0.20468790753 0.2056713731 
0.20654366561 0.2072218517 0.20765986362 0.20784837517 0.20781183119 0.20760226055 0.20728956744 0.20694934764 0.20665054096 
0.20644520389 0.20636148475 0.20639944712 0.20652858643 0.206686077 0.20677574607 0.20666880045 0.20620772041 0.20521425002 
0.20350132681 0.2008875806 0.19721216049 0.19234747065 0.18620796816 0.1787542138 0.1699924255 0.15997050316 0.14877173571 
0.13650723775 0.12330780166 0.10931552276 0.094675426941 0.079527444397 0.063999338278 0.048201438737 0.032224069475 0.016138286065 
9.4496087736e-16 
_area 1 100 double
0 0.00056844334396 0.002261162931 0.0050415419637 0.0088518019626 0.013615896135 0.019241749296 0.025623910596 0.032648646478 
0.040202545397 0.048183189095 0.056507789623 0.065114454787 0.073952350143 0.082962528247 0.092058578532 0.10111857499 0.10999294175 
0.11852337137 0.12656443319 0.13400213794 0.14076745863 0.14684433178 0.1522710217 0.1571330917 0.16154843451 0.16565013233 
0.16957437308 0.1734483528 0.17735690696 0.18129277102 0.18514474479 0.18873881951 0.19188859581 0.19442758103 0.19622326972 
0.19722731556 0.1975470246 0.19688914146 0.19515510484 0.19231522887 0.18841764786 0.1836150417 0.17825305719 0.17301024251 
0.16821490987 0.1634869379 0.15886513164 0.15430636123 0.14970256147 0.14494488673 0.13995191865 0.13466892321 0.12908521848 
0.12331682355 0.11801292727 0.11484558879 0.11284470442 0.11230819539 0.11354761507 0.1153924315 0.11690695637 0.11764450274 
0.11742733269 0.11626206929 0.11427507016 0.11164835882 0.10857234292 0.10523172452 0.10181449705 0.098516573309 0.095532007546 
0.093038852034 0.091227657311 0.090212582276 0.089777772492 0.089745589611 0.090295072669 0.091125311691 0.091982532799 0.09259723788 
0.092679699408 0.091938223394 0.090119934304 0.087049897532 0.08265771847 0.076987583797 0.070192052298 0.062512725796 0.054252509325 
0.045744640686 0.037323042162 0.029297190533 0.021933379904 0.015443559838 0.0099827097205 0.0056548528055 0.0025252202657 0.00063306600515 
6.9890371295e-17 
