# vtk DataFile Version 5.1
vtk output
ASCII
DATASET POLYDATA
POINTS 100 float
0.125241 0.0474134 0.694667 0.125409 0.0476662 0.694265 0.125917 0.0483011 0.692945 
0.126704 0.0492803 0.690769 0.127675 0.0505452 0.687831 0.12871 0.0520221 0.684242 
0.129678 0.0536289 0.680121 0.130445 0.0552831 0.675574 0.130889 0.0569085 0.670682 
0.130911 0.0584411 0.665488 0.130435 0.0598329 0.659997 0.12942 0.0610538 0.654172 
0.127852 0.0620906 0.647944 0.125742 0.0629446 0.641219 0.123121 0.0636271 0.633899 
0.12003 0.0641543 0.62589 0.11651 0.0645423 0.617125 0.112597 0.0648018 0.607569 
0.108313 0.064936 0.59723 0.103669 0.0649379 0.586157 0.0986577 0.0647916 0.574439 
0.0932643 0.0644744 0.562194 0.0874692 0.0639602 0.549554 0.0812569 0.0632246 0.536651 
0.0746247 0.062249 0.523601 0.0675891 0.0610256 0.510494 0.0601918 0.0595599 0.49738 
0.0525012 0.0578728 0.484268 0.0446105 0.0560004 0.471128 0.0366322 0.0539917 0.4579 
0.0286888 0.051906 0.444499 0.0209013 0.0498083 0.430837 0.0133765 0.0477652 0.416829 
0.00619474 0.0458401 0.402412 -0.000600327 0.0440903 0.387548 -0.00700848 0.0425648 0.372232 
-0.0130751 0.0413031 0.35649 -0.0188883 0.0403359 0.340371 -0.0245706 0.0396866 0.323938 
-0.0302665 0.0393734 0.307257 -0.036126 0.0394114 0.290378 -0.0422871 0.0398138 0.273329 
-0.0488577 0.0405933 0.256101 -0.0559002 0.0417606 0.238651 -0.0634187 0.0433231 0.220898 
-0.0713532 0.0452813 0.202734 -0.0795781 0.0476254 0.184032 -0.0879085 0.0503312 0.164665 
-0.0961114 0.053357 0.144519 -0.103922 0.0566417 0.123511 -0.111066 0.0601046 0.101598 
-0.117276 0.0636479 0.0787893 -0.122316 0.067161 0.0551443 -0.125999 0.0705273 0.030771 
-0.128199 0.0736322 0.00581596 -0.128861 0.0763717 -0.0195494 -0.127999 0.0786616 -0.0451446 
-0.125695 0.0804439 -0.0707969 -0.122086 0.081692 -0.0963558 -0.117351 0.082413 -0.121704 
-0.111693 0.0826457 -0.146765 -0.105319 0.0824562 -0.1715 -0.0984234 0.0819298 -0.19591 
-0.0911742 0.0811613 -0.220018 -0.0837 0.0802429 -0.243862 -0.0760855 0.079254 -0.267482 
-0.0683704 0.0782501 -0.290902 -0.0605541 0.0772564 -0.314123 -0.0526044 0.076263 -0.337115 
-0.0444692 0.0752249 -0.359816 -0.0360899 0.074066 -0.382134 -0.0274148 0.0726867 -0.403955 
-0.018411 0.0709747 -0.425154 -0.00907338 0.0688169 -0.445605 0.000570061 0.0661132 -0.465195 
0.0104567 0.0627886 -0.483836 0.0204923 0.0588035 -0.501469 0.0305573 0.0541609 -0.518068 
0.0405163 0.0489098 -0.53364 0.0502282 0.0431443 -0.548219 0.0595582 0.0369989 -0.561855 
0.0683871 0.0306394 -0.574611 0.0766203 0.0242519 -0.586544 0.0841926 0.0180295 -0.597702 
0.0910711 0.0121589 -0.608117 0.0972537 0.00680699 -0.6178 0.102765 0.00211003 -0.626743 
0.107652 -0.00183513 -0.634924 0.111972 -0.00497634 -0.642316 0.115789 -0.00730799 -0.648889 
0.119164 -0.00886926 -0.654627 0.122147 -0.00973932 -0.65953 0.124777 -0.0100297 -0.663617 
0.127077 -0.00987476 -0.666933 0.129052 -0.00942102 -0.669539 0.130698 -0.00881592 -0.671513 
0.132 -0.0081971 -0.672936 0.13294 -0.00768259 -0.673887 0.133501 -0.00736272 -0.674428 
0.13367 -0.00729393 -0.6746 
LINES 2 100
OFFSETS vtktypeint64
0 100 
CONNECTIVITY vtktypeint64
0 1 2 3 4 5 6 7 8 
9 10 11 12 13 14 15 16 17 
18 19 20 21 22 23 24 25 26 
27 28 29 30 31 32 33 34 35 
36 37 38 39 40 41 42 43 44 
45 46 47 48 49 50 51 52 53 
54 55 56 57 58 59 60 61 62 
63 64 65 66 67 68 69 70 71 
72 73 74 75 76 77 78 79 80 
81 82 83 84 85 86 87 88 89 
90 91 92 93 94 95 96 97 98 
99 
POINT_DATA 100
FIELD FieldData 3
_theta 1 100 double
0 0.031733259127 0.063466518254 0.095199777382 0.12693303651 0.15866629564 0.19039955476 0.22213281389 0.25386607302 
0.28559933214 0.31733259127 0.3490658504 0.38079910953 0.41253236865 0.44426562778 0.47599888691 0.50773214603 0.53946540516 
0.57119866429 0.60293192342 0.63466518254 0.66639844167 0.6981317008 0.72986495992 0.76159821905 0.79333147818 0.82506473731 
0.85679799643 0.88853125556 0.92026451469 0.95199777382 0.98373103294 1.0154642921 1.0471975512 1.0789308103 1.1106640695 
1.1423973286 1.1741305877 1.2058638468 1.237597106 1.2693303651 1.3010636242 1.3327968833 1.3645301425 1.3962634016 
1.4279966607 1.4597299198 1.491463179 1.5231964381 1.5549296972 1.5866629564 1.6183962155 1.6501294746 1.6818627337 
1.7135959929 1.745329252 1.7770625111 1.8087957702 1.8405290294 1.8722622885 1.9039955476 1.9357288068 1.9674620659 
1.999195325 2.0309285841 2.0626618433 2.0943951024 2.1261283615 2.1578616206 2.1895948798 2.2213281389 2.253061398 
2.2847946572 2.3165279163 2.3482611754 2.3799944345 2.4117276937 2.4434609528 2.4751942119 2.506927471 2.5386607302 
2.5703939893 2.6021272484 2.6338605076 2.6655937667 2.6973270258 2.7290602849 2.7607935441 2.7925268032 2.8242600623 
2.8559933214 2.8877265806 2.9194598397 2.9511930988 2.982926358 3.0146596171 3.0463928762 3.0781261353 3.1098593945 
3.1415926536 
_radius 1 100 double
6.3539205581e-16 0.012456465513 0.024928894998 0.037423721355 0.049931515563 0.06242020157 0.074830512527 0.087075193454 0.099042882549 
0.11060647548 0.12163463436 0.13200444584 0.14161323817 0.15038806146 0.15829195673 0.16532658973 0.17153105599 0.17697686286 
0.18175946737 0.18598729123 0.18976963423 0.19320513108 0.19637229755 0.19932342649 0.20208274859 0.20464928534 0.20700401103 
0.20911988962 0.21097252681 0.2125490303 0.21385321874 0.21490623757 0.21574261211 0.21640263855 0.2169226876 0.21732533784 
0.21761114814 0.2177533871 0.21769647091 0.21735852808 0.21663835853 0.21542670443 0.21362095614 0.21114142287 0.207946615 
0.20404493796 0.19950075093 0.1944336612 0.18901097238 0.18343422752 0.17792169212 0.17268927119 0.16793250813 0.16381177048 
0.16044168924 0.15788497144 0.15615023635 0.15519339037 0.15492202818 0.15520251975 0.15586996285 0.15674167448 0.15763442472 
0.15838379704 0.15886217002 0.15899163886 0.15874978938 0.15816816096 0.15732443798 0.15632992282 0.15531409087 0.15440811297 
0.15372895586 0.15336518532 0.15336550521 0.15373147975 0.15441593142 0.1553273221 0.15633844659 0.15729651856 0.15803222722 
0.15836709332 0.15812008678 0.15711496968 0.15518911235 0.15220325016 0.14805062465 0.1426636642 0.13601680309 0.1281249244 
0.11903791283 0.10883265702 0.09760435999 0.085459074317 0.072508921382 0.058870536242 0.044666133299 0.030025628141 0.015087926917 
1.0104421852e-15 
_area 1 100 double
0 0.00039156643693 0.0015648896075 0.0035149022669 0.0062298196009 0.0096859368407 0.013841253241 0.018630135893 0.023961389543 
0.029720892814 0.035778234543 0.041995696517 0.048237847435 0.054380463529 0.060318111596 0.065970286325 0.071285840796 0.076244518199 
0.080854025493 0.085142526432 0.089148877476 0.092913919888 0.096474448193 0.099859110375 0.10308518208 0.10615672659 0.10906585673 
0.11179831098 0.11434262309 0.11669997178 0.11889050484 0.12095231696 0.1229322842 0.12487252148 0.12679736811 0.12870209234 
0.1305428798 0.13223079384 0.13363301516 0.13458084097 0.13488359886 0.13435083668 0.1328237936 0.13021059839 0.12651445051 
0.12184454804 0.11640527278 0.11046695304 0.10432743128 0.098274856808 0.092558544588 0.087369300985 0.082827344663 0.07897737539 
0.075794644016 0.073204474507 0.071107606007 0.069401157973 0.067994662592 0.066823540055 0.065855948802 0.065088428953 0.064530565566 
0.0641693461 0.063897786181 0.063491074584 0.062737721204 0.061541658078 0.05992348373 0.057995995463 0.0559383559 0.053969036414 
0.052305321923 0.051092705287 0.050382823873 0.050193414371 0.050530336975 0.051374274967 0.052661037585 0.054261272647 0.055972655797 
0.057534676748 0.058659437194 0.059067096061 0.058521139077 0.056860875128 0.054026142516 0.050068728388 0.04514776561 0.039509975488 
0.033458420699 0.027315287947 0.021385359145 0.015926938083 0.011135243271 0.0071395180605 0.0040111576172 0.0017784034713 0.00044364363207 
7.2946794583e-17 
