# vtk DataFile Version 5.1
vtk output
ASCII
DATASET POLYDATA
POINTS 100 float
0.125395 0.0582117 0.756137 0.125466 0.0583033 0.755785 0.125702 0.0584672 0.754573 
0.126057 0.0586887 0.752524 0.126459 0.0589464 0.749677 0.126823 0.0592156 0.746078 
0.127058 0.0594726 0.741776 0.127078 0.0596983 0.736816 0.126813 0.059882 0.731236 
0.126212 0.060022 0.725062 0.125248 0.060126 0.718307 0.123915 0.0602086 0.710974 
0.122224 0.0602872 0.703061 0.120192 0.0603775 0.694562 0.117835 0.060488 0.685479 
0.115158 0.0606154 0.675823 0.11215 0.0607419 0.66562 0.108777 0.0608336 0.654914 
0.104986 0.0608427 0.643764 0.100707 0.0607113 0.632241 0.095866 0.0603783 0.620422 
0.0903911 0.059787 0.608383 0.0842288 0.0588937 0.596187 0.0773538 0.0576763 0.583882 
0.0697785 0.0561395 0.57149 0.0615567 0.0543193 0.559007 0.0527834 0.052283 0.546398 
0.0435881 0.0501255 0.53361 0.0341237 0.0479631 0.520567 0.0245518 0.0459233 0.50719 
0.0150263 0.0441343 0.493398 0.00567695 0.0427125 0.479125 -0.0034032 0.0417526 0.464322 
-0.0121667 0.0413183 0.448964 -0.0206143 0.0414373 0.433053 -0.0287906 0.0420998 0.416615 
-0.036774 0.0432611 0.399688 -0.0446619 0.0448478 0.382321 -0.0525521 0.0467669 0.364558 
-0.0605242 0.0489168 0.346429 -0.0686232 0.0511984 0.327941 -0.0768465 0.0535254 0.30907 
-0.0851378 0.055832 0.289762 -0.0933871 0.0580783 0.269931 -0.101439 0.0602504 0.249471 
-0.109106 0.0623587 0.228262 -0.116187 0.0644319 0.206187 -0.122486 0.0665087 0.18314 
-0.127832 0.0686289 0.159046 -0.132096 0.0708246 0.133867 -0.135202 0.0731122 0.107608 
-0.13713 0.0754877 0.0803233 -0.137911 0.0779246 0.0521099 -0.137624 0.0803751 0.0231024 
-0.136372 0.0827745 -0.00653726 -0.134274 0.085048 -0.0366327 -0.13144 0.0871187 -0.067005 
-0.127957 0.088916 -0.0974835 -0.12388 0.0903829 -0.127915 -0.119225 0.0914817 -0.158166 
-0.113971 0.0921962 -0.188128 -0.108067 0.0925315 -0.217708 -0.101449 0.092511 -0.24683 
-0.094052 0.0921703 -0.275423 -0.0858287 0.0915501 -0.303412 -0.0767665 0.0906881 -0.330721 
-0.0668964 0.0896126 -0.357261 -0.0562986 0.0883361 -0.382934 -0.0451002 0.0868531 -0.40764 
-0.0334661 0.0851395 -0.431282 -0.0215847 0.0831559 -0.453776 -0.00964953 0.0808527 -0.47506 
0.00215971 0.0781774 -0.495109 0.0136947 0.0750832 -0.513934 0.0248518 0.071536 -0.531588 
0.0355783 0.0675219 -0.548165 0.0458722 0.0630509 -0.563787 0.0557743 0.0581591 -0.57859 
0.065353 0.0529071 -0.592716 0.0746862 0.0473764 -0.606284 0.0838405 0.0416628 -0.619381 
0.0928521 0.0358693 -0.632047 0.101713 0.0300979 -0.644263 0.11036 0.0244426 -0.655953 
0.11868 0.0189834 -0.666993 0.126514 0.0137823 -0.677218 0.133677 0.0088825 -0.686447 
0.139978 0.00430898 -0.694504 0.145246 7.17681e-05 -0.701241 0.149356 -0.00382969 -0.706567 
0.152248 -0.00740137 -0.710455 0.153941 -0.0106498 -0.712963 0.15454 -0.0135779 -0.714228 
0.154226 -0.0161824 -0.714461 0.153244 -0.0184532 -0.713929 0.15188 -0.0203736 -0.712933 
0.150426 -0.0219232 -0.711775 0.149155 -0.0230803 -0.71073 0.148286 -0.0238259 -0.710018 
0.147963 -0.0241465 -0.709781 
LINES 2 100
OFFSETS vtktypeint64
0 100 
CONNECTIVITY vtktypeint64
0 1 2 3 4 5 6 7 8 
9 10 11 12 13 14 15 16 17 
18 19 20 21 22 23 24 25 26 
27 28 29 30 31 32 33 34 35 
36 37 38 39 40 41 42 43 44 
45 46 47 48 49 50 51 52 53 
54 55 56 57 58 59 60 61 62 
63 64 65 66 67 68 69 70 71 
72 73 74 75 76 77 78 79 80 
81 82 83 84 85 86 87 88 89 
90 91 92 93 94 95 96 97 98 
99 
POINT_DATA 100
FIELD FieldData 3
_theta 1 100 double
0 0.031733259127 0.063466518254 0.095199777382 0.12693303651 0.15866629564 0.19039955476 0.22213281389 0.25386607302 
0.28559933214 0.31733259127 0.3490658504 0.38079910953 0.41253236865 0.44426562778 0.47599888691 0.50773214603 0.53946540516 
0.57119866429 0.60293192342 0.63466518254 0.66639844167 0.6981317008 0.72986495992 0.76159821905 0.79333147818 0.82506473731 
0.85679799643 0.88853125556 0.92026451469 0.95199777382 0.98373103294 1.0154642921 1.0471975512 1.0789308103 1.1106640695 
1.1423973286 1.1741305877 1.2058638468 1.237597106 1.2693303651 1.3010636242 1.3327968833 1.3645301425 1.3962634016 
1.4279966607 1.4597299198 1.491463179 1.5231964381 1.5549296972 1.5866629564 1.6183962155 1.6501294746 1.6818627337 
1.7135959929 1.745329252 1.7770625111 1.8087957702 1.8405290294 1.8722622885 1.9039955476 1.9357288068 1.9674620659 
1.999195325 2.0309285841 2.0626618433 2.0943951024 2.1261283615 2.1578616206 2.1895948798 2.2213281389 2.253061398 
2.2847946572 2.3165279163 2.3482611754 2.3799944345 2.4117276937 2.4434609528 2.4751942119 2.506927471 2.5386607302 
2.5703939893 2.6021272484 2.6338605076 2.6655937667 2.6973270258 2.7290602849 2.7607935441 2.7925268032 2.8242600623 
2.8559933214 2.8877265806 2.9194598397 2.9511930988 2.982926358 3.0146596171 3.0463928762 3.0781261353 3.1098593945 
3.1415926536 
_radius 1 100 double
2.5324586304e-16 0.014654531689 0.029213752691 0.043583101034 0.057679008947 0.071432648709 0.084791641776 0.097719674394 0.11019429452 
0.12220338413 0.1337408945 0.1448024315 0.15538122893 0.16546497675 0.17503388717 0.18406027632 0.19250978867 0.20034417745 
0.20752530576 0.21401983937 0.21980404994 0.22486822692 0.22922029782 0.23288826093 0.23592093347 0.23838643414 0.24036792943 
0.24195657489 0.24324222371 0.24430315314 0.24519651086 0.24595119692 0.24656442327 0.24700237208 0.24720448177 0.24709024898 
0.24656729415 0.2455398225 0.24391722234 0.24162290613 0.23860333594 0.23483661439 0.23033945477 0.22517108291 0.21943277844 
0.21326231085 0.20682340269 0.20029145318 0.19383788171 0.18761628033 0.18175368545 0.17634925716 0.17148025362 0.1672118719 
0.16360485842 0.16071494459 0.15858230272 0.15721570943 0.15658045853 0.15659750241 0.15715506931 0.1581281496 0.15939913296 
0.16087401955 0.16249092393 0.1642197385 0.16605368789 0.16799534074 0.17004127444 0.17217007238 0.17433677664 0.17647398221 
0.17849750176 0.1803141469 0.18182998942 0.18295828542 0.18362651574 0.18378179811 0.18339358214 0.18245241835 0.18096402557 
0.17893900878 0.1763801461 0.17327048213 0.16956571499 0.16519317332 0.16005752657 0.15405133834 0.14706758033 0.13901147194 
0.12981004899 0.11941904202 0.10782747808 0.095060710081 0.081182381476 0.066295367883 0.050541273556 0.03409782573 0.017173610469 
1.7223600506e-15 
_area 1 100 double
0 0.00051764016605 0.0020479568374 0.004528201456 0.0078683750108 0.011966464328 0.016720650113 0.022036087645 0.027826912602 
0.034014946307 0.040525726051 0.047282476315 0.054200628096 0.06118692749 0.068144920725 0.074984369894 0.081630103784 0.088026867816 
0.094139229736 0.099948170048 0.10544781356 0.11064565699 0.11556672984 0.12025792512 0.12478759044 0.1292420743 0.13373676217 
0.13837729713 0.14332536595 0.14833163684 0.15331766946 0.1581160598 0.16243039951 0.166146689 0.1690946579 0.17096478506 
0.17159295026 0.17089940291 0.16888447342 0.16558471175 0.16119176918 0.15595041839 0.15041632984 0.14492983172 0.139002468 
0.13274688209 0.12639016623 0.12014863603 0.11416690471 0.10848507375 0.10304814693 0.097756876297 0.092525779002 0.087327611146 
0.082219892408 0.077350346163 0.07295478978 0.06936339443 0.066955513102 0.065786918866 0.065392063472 0.065372991832 0.065542248188 
0.065834358037 0.06625595691 0.066853755177 0.06760981006 0.068351105644 0.068890567684 0.069093592201 0.068968913874 0.068610067135 
0.068136367298 0.067696007522 0.067405032783 0.067314465742 0.067401258194 0.067680810959 0.068008028439 0.068489071355 0.068928788627 
0.069159366703 0.069140574706 0.068781068942 0.067918320807 0.066348616215 0.063876638627 0.060366465998 0.055781849889 0.050205534577 
0.043833591993 0.036949085401 0.029884444115 0.022982944441 0.016567776087 0.010922887744 0.0062843839369 0.0028376680251 0.00071610979655 
3.520257794e-17 
