# vtk DataFile Version 5.1
vtk output
ASCII
DATASET POLYDATA
POINTS 100 float
0.170855 0.0356129 0.715453 0.170935 0.0359441 0.715352 0.171236 0.0367453 0.714893 
0.17169 0.037954 0.714078 0.172188 0.0394745 0.7129 0.1726 0.0411876 0.711349 
0.172785 0.0429634 0.7094 0.172606 0.0446748 0.707014 0.171949 0.0462098 0.704135 
0.170731 0.0474829 0.700691 0.16891 0.0484414 0.696596 0.166483 0.0490693 0.69176 
0.163487 0.0493859 0.686097 0.159985 0.0494407 0.679531 0.15606 0.0493051 0.672013 
0.151798 0.0490616 0.663523 0.147271 0.0487927 0.654079 0.142533 0.0485698 0.643739 
0.137606 0.048445 0.632595 0.132477 0.0484448 0.620769 0.1271 0.0485682 0.6084 
0.121407 0.048788 0.595634 0.11531 0.049056 0.582605 0.108723 0.0493107 0.569425 
0.101571 0.0494863 0.556176 0.093804 0.049523 0.542898 0.0854067 0.0493753 0.529592 
0.0764045 0.0490199 0.516223 0.0668627 0.0484592 0.502728 0.0568815 0.047723 0.489027 
0.0465854 0.0468662 0.475037 0.0361101 0.0459641 0.460687 0.0255865 0.0451048 0.445926 
0.0151259 0.0443811 0.430732 0.00480734 0.0438819 0.415113 -0.0053311 0.0436843 0.399108 
-0.0152949 0.043847 0.382772 -0.0251299 0.044407 0.366168 -0.0349131 0.0453771 0.349352 
-0.0447385 0.0467479 0.33236 -0.0546988 0.0484898 0.315193 -0.0648672 0.0505581 0.297812 
-0.0752787 0.0528982 0.280131 -0.0859161 0.0554505 0.262028 -0.0967007 0.0581552 0.243348 
-0.10749 0.0609557 0.223925 -0.118082 0.0638003 0.203595 -0.12823 0.0666427 0.182222 
-0.137658 0.0694413 0.159711 -0.146084 0.0721574 0.136028 -0.153246 0.0747534 0.111206 
-0.158927 0.077191 0.0853484 -0.162972 0.0794306 0.0586235 -0.165308 0.0814316 0.0312501 
-0.165949 0.083154 0.00348027 -0.164995 0.0845611 -0.0244227 -0.162629 0.085623 -0.0522072 
-0.159094 0.0863208 -0.0796543 -0.154677 0.0866498 -0.106594 -0.149682 0.0866225 -0.132917 
-0.144402 0.0862694 -0.158574 -0.139096 0.0856382 -0.183577 -0.133968 0.084791 -0.207982 
-0.129152 0.0837996 -0.231879 -0.124704 0.0827385 -0.255366 -0.120605 0.0816782 -0.27854 
-0.116764 0.0806774 -0.301469 -0.11304 0.079776 -0.324191 -0.109254 0.07899 -0.346699 
-0.105215 0.0783082 -0.368949 -0.100743 0.077692 -0.39086 -0.0956894 0.0770777 -0.412331 
-0.0899517 0.076382 -0.433254 -0.0834879 0.0755092 -0.453528 -0.0763199 0.0743607 -0.473078 
-0.068533 0.0728449 -0.49186 -0.0602682 0.070887 -0.509869 -0.05171 0.0684373 -0.52714 
-0.0430705 0.0654778 -0.543738 -0.0345714 0.0620261 -0.559752 -0.0264269 0.0581356 -0.575276 
-0.0188274 0.0538933 -0.590393 -0.0119267 0.0494137 -0.605167 -0.00583359 0.0448312 -0.619621 
-0.000607539 0.0402899 -0.633742 0.00374057 0.0359333 -0.647469 0.00724381 0.0318933 -0.660707 
0.00997122 0.028281 -0.673329 0.0120178 0.0251787 -0.685197 0.0134933 0.022635 -0.696173 
0.014512 0.0206624 -0.706132 0.0151829 0.019238 -0.714982 0.0156029 0.018307 -0.722664 
0.0158523 0.0177891 -0.729161 0.0159927 0.0175868 -0.734491 0.0160677 0.0175944 -0.738704 
0.0161053 0.0177084 -0.741867 0.0161216 0.0178367 -0.744053 0.0161245 0.0179072 -0.745324 
0.0161174 0.0178743 -0.745724 
LINES 2 100
OFFSETS vtktypeint64
0 100 
CONNECTIVITY vtktypeint64
0 1 2 3 4 5 6 7 8 
9 10 11 12 13 14 15 16 17 
18 19 20 21 22 23 24 25 26 
27 28 29 30 31 32 33 34 35 
36 37 38 39 40 41 42 43 44 
45 46 47 48 49 50 51 52 53 
54 55 56 57 58 59 60 61 62 
63 64 65 66 67 68 69 70 71 
72 73 74 75 76 77 78 79 80 
81 82 83 84 85 86 87 88 89 
90 91 92 93 94 95 96 97 98 
99 
POINT_DATA 100
FIELD FieldData 3
_theta 1 100 double
0 0.031733259127 0.063466518254 0.095199777382 0.12693303651 0.15866629564 0.19039955476 0.22213281389 0.25386607302 
0.28559933214 0.31733259127 0.3490658504 0.38079910953 0.41253236865 0.44426562778 0.47599888691 0.50773214603 0.53946540516 
0.57119866429 0.60293192342 0.63466518254 0.66639844167 0.6981317008 0.72986495992 0.76159821905 0.79333147818 0.82506473731 
0.85679799643 0.88853125556 0.92026451469 0.95199777382 0.98373103294 1.0154642921 1.0471975512 1.0789308103 1.1106640695 
1.1423973286 1.1741305877 1.2058638468 1.237597106 1.2693303651 1.3010636242 1.3327968833 1.3645301425 1.3962634016 
1.4279966607 1.4597299198 1.491463179 1.5231964381 1.5549296972 1.5866629564 1.6183962155 1.6501294746 1.6818627337 
1.7135959929 1.745329252 1.7770625111 1.8087957702 1.8405290294 1.8722622885 1.9039955476 1.9357288068 1.9674620659 
1.999195325 2.0309285841 2.0626618433 2.0943951024 2.1261283615 2.1578616206 2.1895948798 2.2213281389 2.253061398 
2.2847946572 2.3165279163 2.3482611754 2.3799944345 2.4117276937 2.4434609528 2.4751942119 2.506927471 2.5386607302 
2.5703939893 2.6021272484 2.6338605076 2.6655937667 2.6973270258 2.7290602849 2.7607935441 2.7925268032 2.8242600623 
2.8559933214 2.8877265806 2.9194598397 2.9511930988 2.982926358 3.0146596171 3.0463928762 3.0781261353 3.1098593945 
3.1415926536 
_radius 1 100 double
4.2327252814e-16 0.014831455674 0.029611015653 0.044278768519 0.058773025545 0.073029792452 0.086982461001 0.10056198199 0.11369770418 
0.12631893273 0.13835715555 0.14974881088 0.16043838329 0.1703815075 0.17954766898 0.18792206794 0.1955062893 0.20231759658 
0.20838691207 0.21375580314 0.21847299512 0.22259101881 0.2261635457 0.22924375567 0.23188374219 0.23413457329 0.2360463404 
0.23766746952 0.23904276018 0.24020998197 0.24119530288 0.24200826731 0.24263738703 0.24304753906 0.24318020766 0.2429571915 
0.24228784011 0.2410793163 0.2392488786 0.23673677013 0.23351802352 0.22961140742 0.22508390668 0.22004959148 0.21466257645 
0.20910505165 0.20357272798 0.19826053419 0.19335040162 0.18900132886 0.18534122778 0.18246065687 0.18040920403 0.17919472852 
0.17878415134 0.17910376995 0.18003878581 0.18143524017 0.18310963932 0.18486894193 0.18653713331 0.18797986526 0.18911963266 
0.1899387352 0.19047161102 0.19079016263 0.19098583325 0.19115134887 0.19136394362 0.19167108969 0.19207959336 0.19254932644 
0.19299330898 0.19328558505 0.19327686487 0.19281556258 0.19176974085 0.19004477576 0.18759274261 0.18441203706 0.18053843215 
0.17603065251 0.17095427537 0.16536746856 0.15931100539 0.15280348444 0.14584118793 0.13840103187 0.13044489918 0.12192424863 
0.1127848588 0.10297234523 0.092439244174 0.081153895077 0.069110370974 0.056337793037 0.042906936678 0.028932255293 0.014568224251 
7.6199083937e-16 
_area 1 100 double
0 0.00055594317548 0.0022191173788 0.0049740324211 0.0087907444272 0.013621222852 0.019397285385 0.026030168913 0.033410593575 
0.041408233224 0.049870857099 0.05862510432 0.067481593724 0.07624618516 0.084737032162 0.092804490042 0.10034893096 0.10733097542 
0.11377026492 0.11973258367 0.1253092972 0.13059507815 0.13566852967 0.14057756656 0.14533034925 0.14989403654 0.15420494964 
0.1581903612 0.16179435395 0.16499562495 0.1678084931 0.17026645875 0.17239502107 0.17418383641 0.17556762667 0.17642284737 
0.17658375664 0.17587526619 0.17415263578 0.17133553887 0.1674283979 0.16252676575 0.15681323033 0.1505403034 0.14398807503 
0.13739373316 0.13091235518 0.12466547647 0.11878702694 0.11338699383 0.10849466242 0.1040732379 0.10007979517 0.096506466049 
0.093390499756 0.090801702997 0.088820704843 0.087513692123 0.086898275723 0.086878170872 0.087207231454 0.087593435255 0.087810943246 
0.087736151068 0.087344876571 0.086691144635 0.085868364399 0.084951571539 0.083976337357 0.082989046653 0.082065646229 0.081276618661 
0.080655251596 0.080181830573 0.079790834299 0.079356567079 0.078658719148 0.07758913775 0.076210007149 0.074655120194 0.073022087344 
0.071293559615 0.069348573718 0.067029851103 0.064197790627 0.060760515658 0.056687224361 0.052008823451 0.046809556615 0.041214207932 
0.035374934403 0.029460190409 0.023646708435 0.018114233511 0.013041534106 0.0086016525325 0.0049550112071 0.0022405067043 0.00056600160949 
1.2010355685e-17 
