# vtk DataFile Version 5.1
vtk output
ASCII
DATASET POLYDATA
POINTS 100 float
0.141551 0.0517161 0.72326 0.141572 0.051761 0.723138 0.141779 0.0517824 0.722613 
0.14215 0.0518023 0.721668 0.142651 0.0518531 0.720275 0.143234 0.0519726 0.718393 
0.143843 0.0521974 0.715966 0.144416 0.0525567 0.712927 0.144885 0.0530661 0.709196 
0.14518 0.0537239 0.704685 0.145228 0.0545081 0.699306 0.144956 0.0553769 0.692978 
0.144292 0.0562715 0.685639 0.143161 0.0571206 0.677251 0.14149 0.0578471 0.667813 
0.139207 0.0583762 0.657362 0.136242 0.0586422 0.645978 0.132533 0.0585966 0.63378 
0.128027 0.0582126 0.620918 0.122686 0.0574892 0.607562 0.11649 0.0564517 0.593886 
0.109447 0.05515 0.580055 0.101588 0.0536549 0.566206 0.0929761 0.052052 0.552437 
0.0837032 0.0504347 0.538794 0.0738863 0.0488963 0.525273 0.0636622 0.0475233 0.511819 
0.0531796 0.0463885 0.498331 0.0425888 0.0455467 0.484682 0.0320313 0.045032 0.470726 
0.0216289 0.0448563 0.456327 0.0114746 0.0450115 0.441363 0.00162673 0.0454714 0.425749 
-0.00789424 0.0461963 0.409442 -0.0171043 0.0471375 0.392441 -0.0260504 0.0482422 0.374787 
-0.0348008 0.0494579 0.356551 -0.0434324 0.0507369 0.337822 -0.0520169 0.0520386 0.318687 
-0.0606055 0.0533318 0.29922 -0.0692166 0.0545956 0.279463 -0.0778251 0.0558194 0.259422 
-0.0863572 0.0570024 0.239061 -0.0946901 0.0581525 0.218307 -0.102658 0.0592844 0.197059 
-0.110062 0.0604189 0.175204 -0.116686 0.0615806 0.152636 -0.122317 0.0627965 0.129274 
-0.126763 0.0640944 0.10508 -0.12987 0.065501 0.0800672 -0.131544 0.0670402 0.0543117 
-0.131755 0.0687312 0.0279461 -0.130547 0.0705859 0.00115185 -0.128032 0.0726074 -0.0258568 
-0.124383 0.0747878 -0.0528531 -0.119819 0.0771066 -0.079621 -0.114584 0.0795304 -0.105976 
-0.108923 0.0820117 -0.131783 -0.103062 0.0844908 -0.156967 -0.0971813 0.0868971 -0.181521 
-0.091404 0.0891519 -0.205494 -0.0857813 0.0911724 -0.228985 -0.0802901 0.0928752 -0.252121 
-0.0748369 0.0941809 -0.275034 -0.0692697 0.0950181 -0.29784 -0.0633959 0.0953268 -0.320615 
-0.0570051 0.0950608 -0.343381 -0.049894 0.094189 -0.366097 -0.0418918 0.0926957 -0.38866 
-0.0328814 0.0905792 -0.410912 -0.0228174 0.0878502 -0.432659 -0.0117357 0.0845286 -0.453692 
0.000243754 0.0806409 -0.47381 0.0129224 0.0762176 -0.492849 0.0260366 0.0712908 -0.510697 
0.0392771 0.0658927 -0.527309 0.0523125 0.0600559 -0.542716 0.0648156 0.0538134 -0.55702 
0.0764888 0.0472006 -0.57038 0.087086 0.0402571 -0.582994 0.0964309 0.0330293 -0.595079 
0.104427 0.0255718 -0.606841 0.111064 0.0179493 -0.618453 0.116407 0.0102363 -0.630035 
0.120593 0.00251666 -0.641646 0.123812 -0.00511888 -0.653272 0.126281 -0.0125758 -0.664836 
0.12823 -0.0197599 -0.676208 0.129873 -0.0265816 -0.68722 0.131395 -0.0329602 -0.697688 
0.13293 -0.0388274 -0.707433 0.134561 -0.0441299 -0.716297 0.136309 -0.0488302 -0.724159 
0.138143 -0.0529067 -0.730941 0.139987 -0.0563513 -0.736608 0.141734 -0.0591667 -0.741163 
0.143263 -0.0613622 -0.744639 0.144458 -0.06295 -0.747078 0.145222 -0.0639407 -0.748526 
0.145489 -0.0643406 -0.749014 
LINES 2 100
OFFSETS vtktypeint64
0 100 
CONNECTIVITY vtktypeint64
0 1 2 3 4 5 6 7 8 
9 10 11 12 13 14 15 16 17 
18 19 20 21 22 23 24 25 26 
27 28 29 30 31 32 33 34 35 
36 37 38 39 40 41 42 43 44 
45 46 47 48 49 50 51 52 53 
54 55 56 57 58 59 60 61 62 
63 64 65 66 67 68 69 70 71 
72 73 74 75 76 77 78 79 80 
81 82 83 84 85 86 87 88 89 
90 91 92 93 94 95 96 97 98 
99 
POINT_DATA 100
FIELD FieldData 3
_theta 1 100 double
0 0.031733259127 0.063466518254 0.095199777382 0.12693303651 0.15866629564 0.19039955476 0.22213281389 0.25386607302 
0.28559933214 0.31733259127 0.3490658504 0.38079910953 0.41253236865 0.44426562778 0.47599888691 0.50773214603 0.53946540516 
0.57119866429 0.60293192342 0.63466518254 0.66639844167 0.6981317008 0.72986495992 0.76159821905 0.79333147818 0.82506473731 
0.85679799643 0.88853125556 0.92026451469 0.95199777382 0.98373103294 1.0154642921 1.0471975512 1.0789308103 1.1106640695 
1.1423973286 1.1741305877 1.2058638468 1.237597106 1.2693303651 1.3010636242 1.3327968833 1.3645301425 1.3962634016 
1.4279966607 1.4597299198 1.491463179 1.5231964381 1.5549296972 1.5866629564 1.6183962155 1.6501294746 1.6818627337 
1.7135959929 1.745329252 1.7770625111 1.8087957702 1.8405290294 1.8722622885 1.9039955476 1.9357288068 1.9674620659 
1.999195325 2.0309285841 2.0626618433 2.0943951024 2.1261283615 2.1578616206 2.1895948798 2.2213281389 2.253061398 
2.2847946572 2.3165279163 2.3482611754 2.3799944345 2.4117276937 2.4434609528 2.4751942119 2.506927471 2.5386607302 
2.5703939893 2.6021272484 2.6338605076 2.6655937667 2.6973270258 2.7290602849 2.7607935441 2.7925268032 2.8242600623 
2.8559933214 2.8877265806 2.9194598397 2.9511930988 2.982926358 3.0146596171 3.0463928762 3.0781261353 3.1098593945 
3.1415926536 
_radius 1 100 double
6.9669397459e-16 0.015947284101 0.031797925139 0.047448291883 0.062791607333 0.077717751239 0.09211447683 0.10587048987 0.11888063863 
0.13105303736 0.14231734144 0.1526328012 0.16199438996 0.17043539526 0.17802539073 0.18486335623 0.19106670241 0.19675785904 
0.20205067002 0.20703891114 0.21178875194 0.21633605194 0.22068831144 0.22483023601 0.22873145154 0.2323549281 0.23566494241 
0.23863369531 0.24124588071 0.24350060971 0.24541025466 0.24699610412 0.24828124312 0.24928171675 0.249997628 0.25040614835 
0.25045831998 0.25008097516 0.24918421947 0.24767392819 0.24546779206 0.24251276275 0.23880137111 0.23438434359 0.22937719808 
0.22395902376 0.21836244823 0.21285494099 0.20771315562 0.20319377435 0.19950557833 0.19678724502 0.19509343599 0.19438934801 
0.19455287789 0.19538433375 0.19662469264 0.19798281818 0.19916946346 0.19993301609 0.20009085002 0.1995511696 0.19832219218 
0.19650751327 0.19428860553 0.19189762782 0.18958511073 0.1875867198 0.18609202198 0.185217749 0.18498870242 0.18532988785 
0.18607238281 0.18697240028 0.18773948155 0.18806850401 0.18767183874 0.18630995634 0.18381874145 0.18013036967 0.17528394027 
0.16942298738 0.16277875347 0.15563977462 0.1483097268 0.14105730094 0.13406513214 0.12738912282 0.12094117509 0.11450290594 
0.10776684511 0.1003924809 0.092062617477 0.082529642964 0.071647163553 0.059386725946 0.045841165996 0.03121635403 0.015812960195 
3.6304402941e-16 
_area 1 100 double
0 0.00054774671693 0.0021779482405 0.0048534041052 0.0085177229718 0.013100913695 0.018521628368 0.024682400468 0.03145861484 
0.038688708939 0.046175244093 0.053700733738 0.061054090153 0.068059340727 0.074598592708 0.080624208023 0.08615907938 0.091287374369 
0.096139812229 0.10087671699 0.10566888487 0.11067208179 0.1159921088 0.12165313222 0.12759511566 0.13370246311 0.13983706517 
0.14585831494 0.15163285303 0.15704154 0.16198617778 0.16639345203 0.170212471 0.17340514102 0.17593278713 0.1777445486 
0.1787721931 0.17893362705 0.1781444539 0.17633393588 0.17346090415 0.16952789956 0.16459420377 0.15878605497 0.15229880616 
0.1453864933 0.13833715941 0.13143444632 0.1249126762 0.11892638726 0.11355435099 0.10882853202 0.10475909868 0.10133896141 
0.098529167764 0.096238528954 0.094316776784 0.092572623236 0.09081507856 0.088888300218 0.086689418364 0.084203969556 0.08148529555 
0.078704909597 0.076021348649 0.073592416603 0.071452165553 0.069653434704 0.068179831699 0.066995638932 0.066119209964 0.065498097258 
0.065068614146 0.064887708267 0.065175690427 0.06587949184 0.066593489641 0.066967774087 0.066774222964 0.065889724059 0.064277212034 
0.061962189658 0.059023636235 0.055594747716 0.051846781269 0.047956791202 0.044075516017 0.040299830397 0.036652289982 0.033077005412 
0.029461495678 0.025684499134 0.021674385814 0.017455213274 0.013164494957 0.0090395235899 0.0053788111782 0.0024902100938 0.00063813732359 
4.3271414073e-17 
