# vtk DataFile Version 5.1
vtk output
ASCII
DATASET POLYDATA
POINTS 100 float
0.185403 0.0501829 0.689846 0.185405 0.0503418 0.689705 0.185492 0.0506513 0.689211 
0.185639 0.0511135 0.688367 0.185803 0.0517318 0.687178 0.185926 0.0525078 0.685644 
0.185937 0.0534395 0.683757 0.185757 0.054518 0.681493 0.1853 0.0557257 0.678815 
0.184481 0.0570352 0.675669 0.183217 0.0584087 0.671987 0.181436 0.0597998 0.667697 
0.17908 0.0611555 0.662727 0.176108 0.0624194 0.657016 0.172497 0.0635359 0.650523 
0.168248 0.064454 0.643235 0.163377 0.0651309 0.635174 0.157917 0.0655353 0.626394 
0.151914 0.065649 0.616984 0.145417 0.0654682 0.607055 0.138479 0.0650025 0.596733 
0.131144 0.0642745 0.586147 0.123453 0.0633171 0.57541 0.115434 0.0621712 0.564614 
0.107108 0.0608836 0.553815 0.0984876 0.0595037 0.543027 0.0895846 0.058082 0.532226 
0.0804126 0.0566681 0.521351 0.0709935 0.0553091 0.510312 0.0613614 0.0540482 0.499008 
0.051565 0.0529234 0.487334 0.0416674 0.0519658 0.475201 0.0317427 0.0511984 0.462546 
0.0218701 0.0506338 0.449335 0.0121254 0.0502726 0.435574 0.00257156 0.0501021 0.421298 
-0.00675057 0.0500957 0.406568 -0.0158303 0.0502129 0.391455 -0.0246912 0.0504018 0.376027 
-0.0333916 0.0506023 0.360332 -0.0420195 0.0507514 0.344385 -0.0506825 0.05079 0.328162 
-0.0594933 0.0506697 0.311589 -0.0685522 0.0503611 0.294551 -0.0779282 0.0498594 0.276899 
-0.0876417 0.0491896 0.258465 -0.0976498 0.0484084 0.239078 -0.107839 0.0476022 0.218587 
-0.118022 0.0468822 0.19688 -0.127948 0.0463757 0.173898 -0.137314 0.0462134 0.149645 
-0.145792 0.0465168 0.124196 -0.15305 0.0473826 0.0976852 -0.158785 0.0488709 0.0703033 
-0.162753 0.0509937 0.0422745 -0.164787 0.0537096 0.0138391 -0.164818 0.0569229 -0.014769 
-0.162881 0.0604885 -0.0433423 -0.159115 0.064223 -0.0717157 -0.153743 0.0679203 -0.0997771 
-0.147055 0.0713704 -0.12747 -0.139379 0.0743799 -0.154791 -0.131045 0.0767911 -0.181778 
-0.122353 0.0784981 -0.208494 -0.113551 0.0794575 -0.235012 -0.104805 0.0796926 -0.261393 
-0.0961954 0.0792899 -0.287672 -0.0877128 0.0783882 -0.313844 -0.0792702 0.0771623 -0.339862 
-0.0707229 0.0758006 -0.365631 -0.061895 0.0744828 -0.391019 -0.0526099 0.0733567 -0.41587 
-0.0427199 0.0725194 -0.440015 -0.0321312 0.0720043 -0.46329 -0.0208221 0.0717752 -0.485554 
-0.00885036 0.0717303 -0.5067 0.00364905 0.0717126 -0.52666 0.0164773 0.0715292 -0.545412 
0.0293933 0.0709745 -0.562975 0.0421405 0.069856 -0.579396 0.0544763 0.0680195 -0.594747 
0.0661992 0.0653698 -0.609102 0.0771701 0.0618858 -0.622531 0.0873257 0.057626 -0.635086 
0.0966814 0.0527258 -0.646793 0.105323 0.0473854 -0.657652 0.113391 0.0418499 -0.667641 
0.121052 0.0363843 -0.676719 0.128475 0.0312462 -0.68484 0.1358 0.0266593 -0.691966 
0.14311 0.0227913 -0.698074 0.15042 0.0197381 -0.703169 0.157659 0.0175176 -0.70729 
0.164682 0.0160719 -0.710505 0.171275 0.0152796 -0.712915 0.177186 0.0149745 -0.714637 
0.182142 0.0149707 -0.715795 0.185893 0.0150887 -0.716508 0.188232 0.01518 -0.716871 
0.189024 0.0151483 -0.716949 
LINES 2 100
OFFSETS vtktypeint64
0 100 
CONNECTIVITY vtktypeint64
0 1 2 3 4 5 6 7 8 
9 10 11 12 13 14 15 16 17 
18 19 20 21 22 23 24 25 26 
27 28 29 30 31 32 33 34 35 
36 37 38 39 40 41 42 43 44 
45 46 47 48 49 50 51 52 53 
54 55 56 57 58 59 60 61 62 
63 64 65 66 67 68 69 70 71 
72 73 74 75 76 77 78 79 80 
81 82 83 84 85 86 87 88 89 
90 91 92 93 94 95 96 97 98 
99 
POINT_DATA 100
FIELD FieldData 3
_theta 1 100 double
0 0.031733259127 0.063466518254 0.095199777382 0.12693303651 0.15866629564 0.19039955476 0.22213281389 0.25386607302 
0.28559933214 0.31733259127 0.3490658504 0.38079910953 0.41253236865 0.44426562778 0.47599888691 0.50773214603 0.53946540516 
0.57119866429 0.60293192342 0.63466518254 0.66639844167 0.6981317008 0.72986495992 0.76159821905 0.79333147818 0.82506473731 
0.85679799643 0.88853125556 0.92026451469 0.95199777382 0.98373103294 1.0154642921 1.0471975512 1.0789308103 1.1106640695 
1.1423973286 1.1741305877 1.2058638468 1.237597106 1.2693303651 1.3010636242 1.3327968833 1.3645301425 1.3962634016 
1.4279966607 1.4597299198 1.491463179 1.5231964381 1.5549296972 1.5866629564 1.6183962155 1.6501294746 1.6818627337 
1.7135959929 1.745329252 1.7770625111 1.8087957702 1.8405290294 1.8722622885 1.9039955476 1.9357288068 1.9674620659 
1.999195325 2.0309285841 2.0626618433 2.0943951024 2.1261283615 2.1578616206 2.1895948798 2.2213281389 2.253061398 
2.2847946572 2.3165279163 2.3482611754 2.3799944345 2.4117276937 2.4434609528 2.4751942119 2.506927471 2.5386607302 
2.5703939893 2.6021272484 2.6338605076 2.6655937667 2.6973270258 2.7290602849 2.7607935441 2.7925268032 2.8242600623 
2.8559933214 2.8877265806 2.9194598397 2.9511930988 2.982926358 3.0146596171 3.0463928762 3.0781261353 3.1098593945 
3.1415926536 
_radius 1 100 double
7.033998882e-16 0.015213511147 0.030342729349 0.045298895525 0.059992431768 0.074334123441 0.088237499951 0.10162225599 0.1144182846 
0.12656971727 0.13803831522 0.14880562908 0.1588735099 0.16826276149 0.17700992188 0.18516233371 0.19277183602 0.19988761952 
0.20654903607 0.21277939592 0.21858193159 0.22393902202 0.22881534291 0.23316486309 0.23694073731 0.24010642386 0.2426459821 
0.24457155093 0.24592643388 0.24678292362 0.24723487008 0.24738588709 0.24733484644 0.24716078638 0.24690949843 0.24658386854 
0.24613960235 0.24548731813 0.24450118007 0.24303333726 0.24093256991 0.23806489976 0.23433360798 0.22969613111 0.22417563275 
0.21786563904 0.21092694124 0.20357693071 0.19607252499 0.18868875213 0.18169573218 0.17533690462 0.16981044003 0.16525409465 
0.16173317131 0.15923330705 0.15766210984 0.15686198013 0.15663160152 0.1567504936 0.15700164495 0.15718980055 0.15715560291 
0.15678726207 0.15603046038 0.15489416828 0.15344841549 0.1518124266 0.15013571552 0.14857679851 0.14728332283 0.14637580149 
0.14593605106 0.146000408 0.14655697422 0.14754615971 0.14886450079 0.1503721979 0.15190436267 0.1532847761 0.15433962524 
0.15490797705 0.154846982 0.15403324974 0.15236395989 0.14975880676 0.14616041022 0.14153083306 0.13584415219 0.1290770838 
0.12120083268 0.11217771446 0.10196545873 0.090530141001 0.07786570456 0.064015204859 0.049087709122 0.033265823959 0.016801420535 
5.604750532e-16 
_area 1 100 double
0 0.00053267065304 0.0021107765224 0.00467885722 0.008156664153 0.012451484326 0.017466678711 0.023103636992 0.029258590152 
0.035818993612 0.042664205119 0.04967206476 0.056729222164 0.06374124021 0.070639205848 0.0773812868 0.083948928172 0.090338450714 
0.096550386867 0.10258014655 0.10841307315 0.11402466451 0.11938440181 0.12446092654 0.12922695718 0.13366225645 0.1377525213 
0.1414852532 0.14484921481 0.14784425687 0.15050245072 0.15291458323 0.15521296626 0.15742442637 0.1594493226 0.16116557033 
0.16243648905 0.16310378361 0.16299586747 0.16194548843 0.15981074652 0.15649765983 0.15198127465 0.14631894338 0.13965209014 
0.13219926318 0.12424473946 0.11612342692 0.10819878586 0.10082812429 0.094312256052 0.088838079549 0.084440036176 0.081007416635 
0.078330814194 0.076153401894 0.074207537244 0.07224758547 0.070154260837 0.067919036022 0.065589782286 0.063059005688 0.060400251374 
0.05778586111 0.055464092038 0.053740808451 0.052758003182 0.05226907649 0.05192011653 0.051556948209 0.051183533284 0.050885742342 
0.050768984643 0.050926086136 0.051401404935 0.052164707521 0.053102986397 0.054039438256 0.054779565159 0.055167668984 0.055131251721 
0.054694410826 0.053947441605 0.052983857936 0.05184557935 0.050505815685 0.048878842097 0.046839699958 0.044254775426 0.041021934802 
0.037103980039 0.0325425744 0.027457228846 0.022040982519 0.016557020776 0.011330425003 0.0067261581454 0.0031097796061 0.00079640235742 
8.6797100324e-17 
