# vtk DataFile Version 5.1
vtk output
ASCII
DATASET POLYDATA
POINTS 100 float
0.0488054 0.059735 0.690616 0.0487241 0.0600602 0.690198 0.0485018 0.0608575 0.688827 
0.04814 0.0620436 0.686552 0.0476424 0.0634918 0.683451 0.0470156 0.065049 0.67962 
0.0462705 0.0665549 0.675162 0.0454226 0.0678627 0.670179 0.0444926 0.0688576 0.664757 
0.043505 0.0694711 0.65896 0.0424868 0.0696886 0.652824 0.0414647 0.0695508 0.646359 
0.0404615 0.0691468 0.639545 0.039493 0.0686012 0.632347 0.0385645 0.0680561 0.624715 
0.037668 0.0676516 0.616599 0.036781 0.0675054 0.607958 0.0358667 0.0676956 0.598768 
0.0348758 0.0682489 0.589024 0.0337501 0.0691346 0.57875 0.0324273 0.0702663 0.567989 
0.0308469 0.0715105 0.556805 0.0289561 0.0727007 0.545269 0.0267158 0.0736563 0.533457 
0.0241042 0.0742024 0.521434 0.0211199 0.0741896 0.509251 0.0177816 0.0735106 0.496933 
0.0141263 0.0721118 0.484482 0.0102051 0.0699994 0.471871 0.00607621 0.0672382 0.459052 
0.00179858 0.0639455 0.445959 -0.00257612 0.0602787 0.43252 -0.0070101 0.0564212 0.418661 
-0.0114846 0.0525654 0.404319 -0.0160025 0.048897 0.38945 -0.0205885 0.0455818 0.374026 
-0.0252855 0.0427551 0.358047 -0.0301488 0.0405167 0.341529 -0.0352379 0.0389287 0.324506 
-0.0406067 0.0380183 0.307021 -0.0462933 0.0377824 0.289119 -0.0523106 0.0381946 0.270835 
-0.0586391 0.0392119 0.252193 -0.065222 0.0407809 0.233199 -0.0719642 0.0428419 0.21384 
-0.0787345 0.0453314 0.194084 -0.0853722 0.0481822 0.173885 -0.091696 0.0513226 0.153194 
-0.0975159 0.0546741 0.131961 -0.102646 0.0581507 0.110148 -0.106917 0.0616581 0.0877336 
-0.110189 0.0650956 0.0647214 -0.112358 0.0683605 0.0411414 -0.113366 0.0713535 0.0170503 
-0.113199 0.0739871 -0.0074714 -0.11189 0.0761932 -0.0323255 -0.10951 0.0779308 -0.0574034 
-0.106165 0.0791917 -0.0825945 -0.101981 0.0800029 -0.107795 -0.0970967 0.0804254 -0.132912 
-0.0916515 0.0805487 -0.157874 -0.0857754 0.0804819 -0.182625 -0.0795815 0.080341 -0.207131 
-0.0731604 0.0802355 -0.23137 -0.0665781 0.0802541 -0.255331 -0.0598761 0.0804526 -0.279007 
-0.0530742 0.0808453 -0.302385 -0.0461753 0.0814002 -0.325443 -0.039172 0.0820405 -0.348145 
-0.0320525 0.0826504 -0.370437 -0.0248082 0.0830867 -0.392254 -0.0174381 0.0831928 -0.413514 
-0.0099537 0.0828156 -0.434131 -0.00238124 0.081821 -0.454019 0.00523798 0.0801088 -0.473099 
0.0128487 0.0776222 -0.491303 0.0203844 0.0743539 -0.508586 0.0277713 0.0703455 -0.524924 
0.0349328 0.0656823 -0.540314 0.0417939 0.0604834 -0.554779 0.0482862 0.0548885 -0.568359 
0.0543509 0.0490434 -0.581105 0.059942 0.0430866 -0.593077 0.0650279 0.0371376 -0.604334 
0.0695922 0.0312887 -0.61493 0.073633 0.0256022 -0.624908 0.0771619 0.0201114 -0.634296 
0.0802019 0.0148265 -0.643109 0.0827851 0.00974299 -0.651347 0.0849504 0.00485213 -0.658996 
0.0867404 0.000151385 -0.666033 0.0881993 -0.00434697 -0.672431 0.089371 -0.00861016 -0.678159 
0.0902969 -0.012583 -0.683187 0.0910147 -0.0161904 -0.687488 0.0915573 -0.0193432 -0.69104 
0.091952 -0.0219471 -0.693825 0.0922204 -0.0239133 -0.69583 0.0923775 -0.0251688 -0.697047 
0.0924322 -0.0256651 -0.697468 
LINES 2 100
OFFSETS vtktypeint64
0 100 
CONNECTIVITY vtktypeint64
0 1 2 3 4 5 6 7 8 
9 10 11 12 13 14 15 16 17 
18 19 20 21 22 23 24 25 26 
27 28 29 30 31 32 33 34 35 
36 37 38 39 40 41 42 43 44 
45 46 47 48 49 50 51 52 53 
54 55 56 57 58 59 60 61 62 
63 64 65 66 67 68 69 70 71 
72 73 74 75 76 77 78 79 80 
81 82 83 84 85 86 87 88 89 
90 91 92 93 94 95 96 97 98 
99 
POINT_DATA 100
FIELD FieldData 3
_theta 1 100 double
0 0.031733259127 0.063466518254 0.095199777382 0.12693303651 0.15866629564 0.19039955476 0.22213281389 0.25386607302 
0.28559933214 0.31733259127 0.3490658504 0.38079910953 0.41253236865 0.44426562778 0.47599888691 0.50773214603 0.53946540516 
0.57119866429 0.60293192342 0.63466518254 0.66639844167 0.6981317008 0.72986495992 0.76159821905 0.79333147818 0.82506473731 
0.85679799643 0.88853125556 0.92026451469 0.95199777382 0.98373103294 1.0154642921 1.0471975512 1.0789308103 1.1106640695 
1.1423973286 1.1741305877 1.2058638468 1.237597106 1.2693303651 1.3010636242 1.3327968833 1.3645301425 1.3962634016 
1.4279966607 1.4597299198 1.491463179 1.5231964381 1.5549296972 1.5866629564 1.6183962155 1.6501294746 1.6818627337 
1.7135959929 1.745329252 1.7770625111 1.8087957702 1.8405290294 1.8722622885 1.9039955476 1.9357288068 1.9674620659 
1.999195325 2.0309285841 2.0626618433 2.0943951024 2.1261283615 2.1578616206 2.1895948798 2.2213281389 2.253061398 
2.2847946572 2.3165279163 2.3482611754 2.3799944345 2.4117276937 2.4434609528 2.4751942119 2.506927471 2.5386607302 
2.5703939893 2.6021272484 2.6338605076 2.6655937667 2.6973270258 2.7290602849 2.7607935441 2.7925268032 2.8242600623 
2.8559933214 2.8877265806 2.9194598397 2.9511930988 2.982926358 3.0146596171 3.0463928762 3.0781261353 3.1098593945 
3.1415926536 
_radius 1 100 double
6.7310847522e-16 0.01438744265 0.028717320071 0.042928373087 0.05695930254 0.070749204929 0.08423831112 0.097368984741 0.11008691388 
0.12234244393 0.13409202588 0.14529975863 0.15593896127 0.16599362346 0.17545947716 0.18434435485 0.1926674861 0.20045746535 
0.20774881993 0.21457740792 0.22097522324 0.22696546717 0.23255883983 0.2377518415 0.24252747554 0.24685822104 0.25071064539 
0.25405068846 0.25684855058 0.25908226763 0.26073940911 0.26181679421 0.26231856688 0.26225329405 0.26163088456 0.26046008351 
0.25874714865 0.25649613799 0.25371104257 0.25039973958 0.2465793851 0.24228244418 0.23756217246 0.23249614954 0.22718654646 
0.22175626873 0.21634094039 0.21107772714 0.20609295084 0.2014909928 0.19734688158 0.19370414493 0.19057809637 0.18796304003 
0.18584045738 0.18418477468 0.18296429298 0.18213721118 0.18164553916 0.18141155815 0.18134083589 0.1813325893 0.18129443032 
0.18115664916 0.18088180799 0.18046742162 0.17994160378 0.17935317079 0.17875873881 0.17820980977 0.17774257414 0.17737206159 
0.17709065702 0.17686967463 0.17666235273 0.17640722942 0.17603167014 0.17545569752 0.17459610584 0.17337045664 0.17170034911 
0.16951350899 0.16674462716 0.16333526053 0.15923328396 0.15439229943 0.14877116953 0.14233364546 0.13504807513 0.12688741697 
0.11783007269 0.10786213758 0.096981405954 0.085202921289 0.072565245314 0.059136171444 0.045016466985 0.030340425014 0.015272499678 
4.6993068992e-16 
_area 1 100 double
0 0.00055438664786 0.0022002240092 0.004886931179 0.0085350706232 0.013044199188 0.018304058638 0.024207592338 0.030662535069 
0.037597642311 0.044961502994 0.052715658048 0.060825869576 0.069253695693 0.077948102734 0.08683790156 0.095828937676 0.10480947169 
0.11366210982 0.12227681094 0.13056026555 0.13843992015 0.14586343827 0.15279604891 0.15921906114 0.16513170183 0.17055414815 
0.17552430874 0.18008155056 0.18424161702 0.18797834934 0.19122377675 0.19388338561 0.19585596932 0.19705042395 0.19738795048 
0.19676598717 0.19505766898 0.19217456083 0.18809213646 0.18285608221 0.17658868209 0.16949114811 0.16183353072 0.1539277322 
0.14608747598 0.13858613593 0.13162448839 0.12531578911 0.11968847569 0.11470231651 0.11028100198 0.1065791159 0.10378991442 
0.10136483263 0.099151024239 0.097088084936 0.095167449342 0.093372384867 0.091659120698 0.08996552182 0.088227938805 0.086398936361 
0.084461880684 0.082438103104 0.080384719134 0.078403314211 0.076617614713 0.075050780977 0.073743582109 0.072696310808 0.071858388158 
0.071157358517 0.070531267257 0.069945478348 0.069397076297 0.06890946119 0.068522086574 0.06829084401 0.068343500281 0.068431217977 
0.068254424764 0.067628628091 0.066407366436 0.064481792074 0.061787341098 0.058309392063 0.054085156383 0.049200658902 0.043782782482 
0.037987789146 0.031989514846 0.025971412012 0.020124864578 0.014651470189 0.0097629622643 0.0056733372941 0.0025825130968 0.00065514218314 
7.5020420083e-17 
