# vtk DataFile Version 5.1
vtk output
ASCII
DATASET POLYDATA
POINTS 100 float
0.153263 0.0399224 0.705528 0.153105 0.0400118 0.705209 0.15271 0.0401107 0.704111 
0.152099 0.0402221 0.702235 0.151299 0.0403519 0.699591 0.150348 0.0405094 0.696184 
0.149283 0.0407074 0.692025 0.148139 0.040962 0.687118 0.146944 0.041292 0.68147 
0.145714 0.0417184 0.675084 0.144449 0.0422634 0.667965 0.143131 0.0429481 0.660122 
0.141724 0.0437915 0.651567 0.140172 0.044808 0.642327 0.138406 0.0460054 0.632437 
0.136347 0.0473834 0.621948 0.13391 0.0489316 0.610928 0.131015 0.0506291 0.599455 
0.127592 0.052444 0.587621 0.123587 0.0543343 0.57552 0.118969 0.0562496 0.563245 
0.113736 0.0581333 0.550882 0.107913 0.0599256 0.538497 0.101553 0.0615675 0.526139 
0.0947313 0.0630044 0.513826 0.0875426 0.0641899 0.501548 0.0800897 0.0650893 0.489269 
0.0724752 0.0656821 0.476927 0.064792 0.0659643 0.464443 0.0571143 0.065949 0.451725 
0.0494906 0.0656657 0.438682 0.0419397 0.0651593 0.425227 0.0344495 0.0644869 0.411288 
0.0269794 0.0637146 0.396812 0.0194668 0.0629131 0.381769 0.0118354 0.0621531 0.366149 
0.00400705 0.0615011 0.349964 -0.00408696 0.0610146 0.333238 -0.0124935 0.0607391 0.316004 
-0.0212277 0.0607052 0.298296 -0.0302652 0.0609271 0.280141 -0.0395382 0.0614022 0.261558 
-0.0489357 0.0621123 0.242549 -0.058308 0.0630253 0.223107 -0.0674746 0.0640981 0.203212 
-0.0762361 0.065281 0.182841 -0.0843875 0.066521 0.161973 -0.0917327 0.0677666 0.140593 
-0.0980983 0.0689715 0.118707 -0.103345 0.070098 0.0963414 -0.107379 0.0711201 0.0735464 
-0.110154 0.0720244 0.050399 -0.111675 0.0728108 0.0269982 -0.111994 0.073492 0.00345885 
-0.111207 0.0740908 -0.0200965 -0.109441 0.0746382 -0.0435475 -0.106849 0.0751685 -0.0667856 
-0.103593 0.0757161 -0.0897232 -0.0998356 0.0763106 -0.1123 -0.0957329 0.0769731 -0.134487 
-0.0914232 0.077712 -0.156286 -0.087024 0.078521 -0.177725 -0.0826287 0.0793772 -0.198853 
-0.0783058 0.080241 -0.219729 -0.0741003 0.0810573 -0.240413 -0.0700361 0.0817579 -0.260955 
-0.0661189 0.0822653 -0.281383 -0.06234 0.0824975 -0.301701 -0.0586785 0.0823736 -0.321885 
-0.0551047 0.0818188 -0.341878 -0.0515818 0.080771 -0.361602 -0.0480682 0.0791851 -0.380957 
-0.044519 0.0770372 -0.399839 -0.0408884 0.074328 -0.418142 -0.0371326 0.0710838 -0.435775 
-0.0332128 0.0673564 -0.452667 -0.0290992 0.0632215 -0.468776 -0.0247756 0.0587753 -0.484088 
-0.0202433 0.0541298 -0.498624 -0.015525 0.0494075 -0.512428 -0.010667 0.044735 -0.525566 
-0.00573995 0.0402364 -0.538118 -0.000836791 0.036027 -0.550163 0.00393124 0.0322079 -0.561775 
0.00844149 0.0288608 -0.573013 0.0125687 0.0260445 -0.583913 0.0161952 0.0237923 -0.594486 
0.0192217 0.0221118 -0.604717 0.0215769 0.0209848 -0.614565 0.0232262 0.0203695 -0.623966 
0.0241766 0.0202038 -0.632841 0.0244786 0.0204093 -0.641099 0.0242239 0.0208962 -0.648646 
0.0235389 0.0215683 -0.65539 0.0225745 0.0223288 -0.661244 0.0214935 0.0230854 -0.666131 
0.020456 0.0237551 -0.669988 0.0196049 0.0242689 -0.672765 0.0190528 0.0245748 -0.674426 
0.0188708 0.024641 -0.67495 
LINES 2 100
OFFSETS vtktypeint64
0 100 
CONNECTIVITY vtktypeint64
0 1 2 3 4 5 6 7 8 
9 10 11 12 13 14 15 16 17 
18 19 20 21 22 23 24 25 26 
27 28 29 30 31 32 33 34 35 
36 37 38 39 40 41 42 43 44 
45 46 47 48 49 50 51 52 53 
54 55 56 57 58 59 60 61 62 
63 64 65 66 67 68 69 70 71 
72 73 74 75 76 77 78 79 80 
81 82 83 84 85 86 87 88 89 
90 91 92 93 94 95 96 97 98 
99 
POINT_DATA 100
FIELD FieldData 3
_theta 1 100 double
0 0.031733259127 0.063466518254 0.095199777382 0.12693303651 0.15866629564 0.19039955476 0.22213281389 0.25386607302 
0.28559933214 0.31733259127 0.3490658504 0.38079910953 0.41253236865 0.44426562778 0.47599888691 0.50773214603 0.53946540516 
0.57119866429 0.60293192342 0.63466518254 0.66639844167 0.6981317008 0.72986495992 0.76159821905 0.79333147818 0.82506473731 
0.85679799643 0.88853125556 0.92026451469 0.95199777382 0.98373103294 1.0154642921 1.0471975512 1.0789308103 1.1106640695 
1.1423973286 1.1741305877 1.2058638468 1.237597106 1.2693303651 1.3010636242 1.3327968833 1.3645301425 1.3962634016 
1.4279966607 1.4597299198 1.491463179 1.5231964381 1.5549296972 1.5866629564 1.6183962155 1.6501294746 1.6818627337 
1.7135959929 1.745329252 1.7770625111 1.8087957702 1.8405290294 1.8722622885 1.9039955476 1.9357288068 1.9674620659 
1.999195325 2.0309285841 2.0626618433 2.0943951024 2.1261283615 2.1578616206 2.1895948798 2.2213281389 2.253061398 
2.2847946572 2.3165279163 2.3482611754 2.3799944345 2.4117276937 2.4434609528 2.4751942119 2.506927471 2.5386607302 
2.5703939893 2.6021272484 2.6338605076 2.6655937667 2.6973270258 2.7290602849 2.7607935441 2.7925268032 2.8242600623 
2.8559933214 2.8877265806 2.9194598397 2.9511930988 2.982926358 3.0146596171 3.0463928762 3.0781261353 3.1098593945 
3.1415926536 
_radius 1 100 double
1.0046071068e-15 0.011723064638 0.023383354259 0.034914853236 0.0462518974 0.057328823645 0.068079508259 0.078437395431 0.088336618455 
0.097714548706 0.10651567341 0.11469624668 0.12222882834 0.12910574156 0.13534068439 0.140968146 0.14604072856 0.15062479109 
0.15479495796 0.1586280379 0.16219685288 0.16556438476 0.16877850929 0.17186748737 0.17483645764 0.1776654701 0.18030995377 
0.1827045799 0.184770958 0.18642851905 0.18760676261 0.18825635532 0.18835668745 0.18791838637 0.18698066666 0.18560479298 
0.18386578243 0.18184445268 0.17962121095 0.177272045 0.17486636323 0.1724657998 0.170123045 0.16788032403 0.16576807228 
0.16380496253 0.1620002012 0.16035807951 0.15888377084 0.15758875454 0.1564940614 0.15562974 0.15502968276 0.15472235218 
0.15471970612 0.15500791016 0.15554334178 0.15625565285 0.15705702959 0.15785471327 0.15856333496 0.15911452518 0.15946268331 
0.15958696311 0.15949017631 0.15919550461 0.15874179936 0.15817797322 0.15755668304 0.1569273493 0.15632873592 0.15578185129 
0.15528453587 0.15480919418 0.15430433021 0.15369932741 0.15291124487 0.15185253683 0.15043892549 0.14859667873 0.14626833919 
0.14341585164 0.14002035499 0.13607873633 0.13159808641 0.12658984068 0.12106513417 0.11503181413 0.10849240846 0.10144206944 
0.093866402199 0.085740516339 0.077031492551 0.067705912088 0.057742214276 0.047145354705 0.035959739276 0.024276448615 0.012232242309 
6.2157749098e-16 
_area 1 100 double
0 0.00036329215341 0.0014466776284 0.0032302673009 0.0056795338983 0.0087434181642 0.012352331124 0.016417034401 0.020829561403 
0.025467097711 0.030199178356 0.034897891139 0.039450079848 0.043769836985 0.047809030525 0.051563476884 0.055072562933 0.05841016537 
0.061665329081 0.064916077138 0.068209467569 0.071561379169 0.074972114317 0.078441406719 0.081972109157 0.085561475466 0.089183430884 
0.09276745333 0.096185700581 0.099265417495 0.10182874286 0.10373699346 0.10491488945 0.1053790771 0.10526217467 0.10463311219 
0.10366269966 0.10245786116 0.10104167158 0.099417810445 0.097598946373 0.095625495712 0.093568487994 0.091505409939 0.089481959265 
0.087499086455 0.085529187898 0.083530573627 0.081457070796 0.079275805998 0.076990821639 0.074656471385 0.072369159587 0.070239747623 
0.068359078416 0.066772240283 0.065473918152 0.064425418735 0.063579961204 0.062892969412 0.062293902805 0.061676168198 0.060946164077 
0.06005153404 0.05898002878 0.057756464077 0.056437981622 0.055101206638 0.053824708787 0.05267616498 0.051704087137 0.05092910954 
0.050349286256 0.049967354625 0.049808360754 0.049900476088 0.050241939649 0.050767222878 0.05133245545 0.051735126266 0.051770440563 
0.051284736058 0.050196517845 0.048486259194 0.046172032538 0.043290652512 0.039895283804 0.036065352483 0.03191578554 0.027594916407 
0.023267916795 0.019090458334 0.015183128774 0.011618266042 0.0084284478123 0.0056388454367 0.0033040450122 0.0015174609684 0.00038749190549 
1.7403138676e-17 
