# vtk DataFile Version 5.1
vtk output
ASCII
DATASET POLYDATA
POINTS 100 float
0.204527 0.0229193 0.584572 0.204416 0.0230695 0.584169 0.20418 0.023427 0.582861 
0.203807 0.0239915 0.580704 0.203283 0.0247616 0.577787 0.20259 0.0257342 0.574217 
0.201709 0.0269032 0.570113 0.200619 0.028259 0.565586 0.1993 0.0297881 0.560732 
0.197728 0.031472 0.555618 0.195883 0.0332877 0.550278 0.19374 0.0352073 0.54471 
0.191272 0.0371992 0.538882 0.188445 0.0392285 0.532737 0.185222 0.0412586 0.526201 
0.181559 0.0432528 0.519203 0.177406 0.045176 0.511679 0.172713 0.0469966 0.50359 
0.16743 0.0486881 0.494928 0.16151 0.0502303 0.485718 0.154919 0.0516109 0.476022 
0.147637 0.0528258 0.465929 0.13966 0.0538789 0.455553 0.131009 0.0547824 0.445013 
0.121725 0.0555548 0.434427 0.111873 0.0562206 0.423892 0.101533 0.0568074 0.413481 
0.0908024 0.0573451 0.403227 0.0797825 0.0578629 0.393126 0.0685768 0.0583882 0.383131 
0.0572821 0.0589445 0.373163 0.0459835 0.0595506 0.363118 0.0347504 0.0602195 0.352878 
0.023635 0.0609585 0.34232 0.0126738 0.0617692 0.331334 0.00189111 0.0626482 0.319828 
-0.00869542 0.063588 0.307735 -0.0190675 0.0645782 0.295016 -0.029199 0.0656064 0.281657 
-0.0390488 0.0666597 0.267664 -0.0485566 0.0677251 0.253056 -0.0576397 0.06879 0.237852 
-0.0661942 0.0698431 0.222065 -0.0740989 0.0708733 0.205691 -0.0812227 0.0718705 0.188707 
-0.0874335 0.072824 0.171069 -0.0926096 0.0737228 0.152717 -0.0966508 0.0745549 0.13358 
-0.0994879 0.0753066 0.113591 -0.101091 0.0759631 0.0926983 -0.101474 0.0765085 0.0708778 
-0.100693 0.0769264 0.0481474 -0.0988468 0.077201 0.0245745 -0.0960645 0.0773179 0.000279981 
-0.0924985 0.0772658 -0.0245634 -0.0883106 0.0770371 -0.0497382 -0.0836591 0.0766291 -0.0749955 
-0.0786863 0.0760447 -0.100072 -0.0735084 0.0752921 -0.124709 -0.0682081 0.0743851 -0.148673 
-0.0628314 0.0733419 -0.171773 -0.0573883 0.0721843 -0.193877 -0.051857 0.070936 -0.214918 
-0.0461919 0.0696209 -0.234896 -0.0403329 0.0682617 -0.253874 -0.0342166 0.0668786 -0.271966 
-0.0277867 0.0654875 -0.289319 -0.0210023 0.0641001 -0.306091 -0.0138453 0.0627228 -0.322431 
-0.0063231 0.0613574 -0.338455 0.00153019 0.0600015 -0.354234 0.00965695 0.0586493 -0.369776 
0.0179808 0.0572931 -0.385029 0.0264132 0.0559241 -0.399878 0.0348609 0.0545336 -0.414163 
0.0432326 0.0531142 -0.427692 0.0514454 0.0516601 -0.440267 0.0594284 0.0501679 -0.451707 
0.0671253 0.0486361 -0.461872 0.0744942 0.0470652 -0.470686 0.0815066 0.0454575 -0.478147 
0.0881436 0.0438165 -0.484337 0.0943936 0.0421461 -0.489419 0.100248 0.0404512 -0.493628 
0.105699 0.038737 -0.497247 0.110738 0.0370094 -0.500584 0.115355 0.0352753 -0.503946 
0.11954 0.0335435 -0.507604 0.123283 0.0318248 -0.511765 0.12658 0.030133 -0.516557 
0.129433 0.0284853 -0.522005 0.131853 0.0269019 -0.528032 0.133858 0.0254065 -0.534462 
0.135477 0.0240248 -0.541035 0.136747 0.0227842 -0.547431 0.137707 0.021712 -0.553299 
0.138398 0.0208337 -0.55829 0.138858 0.020172 -0.562091 0.139114 0.0197444 -0.564456 
0.139184 0.0195624 -0.565228 
LINES 2 100
OFFSETS vtktypeint64
0 100 
CONNECTIVITY vtktypeint64
0 1 2 3 4 5 6 7 8 
9 10 11 12 13 14 15 16 17 
18 19 20 21 22 23 24 25 26 
27 28 29 30 31 32 33 34 35 
36 37 38 39 40 41 42 43 44 
45 46 47 48 49 50 51 52 53 
54 55 56 57 58 59 60 61 62 
63 64 65 66 67 68 69 70 71 
72 73 74 75 76 77 78 79 80 
81 82 83 84 85 86 87 88 89 
90 91 92 93 94 95 96 97 98 
99 
POINT_DATA 100
FIELD FieldData 3
_theta 1 100 double
0 0.031733259127 0.063466518254 0.095199777382 0.12693303651 0.15866629564 0.19039955476 0.22213281389 0.25386607302 
0.28559933214 0.31733259127 0.3490658504 0.38079910953 0.41253236865 0.44426562778 0.47599888691 0.50773214603 0.53946540516 
0.57119866429 0.60293192342 0.63466518254 0.66639844167 0.6981317008 0.72986495992 0.76159821905 0.79333147818 0.82506473731 
0.85679799643 0.88853125556 0.92026451469 0.95199777382 0.98373103294 1.0154642921 1.0471975512 1.0789308103 1.1106640695 
1.1423973286 1.1741305877 1.2058638468 1.237597106 1.2693303651 1.3010636242 1.3327968833 1.3645301425 1.3962634016 
1.4279966607 1.4597299198 1.491463179 1.5231964381 1.5549296972 1.5866629564 1.6183962155 1.6501294746 1.6818627337 
1.7135959929 1.745329252 1.7770625111 1.8087957702 1.8405290294 1.8722622885 1.9039955476 1.9357288068 1.9674620659 
1.999195325 2.0309285841 2.0626618433 2.0943951024 2.1261283615 2.1578616206 2.1895948798 2.2213281389 2.253061398 
2.2847946572 2.3165279163 2.3482611754 2.3799944345 2.4117276937 2.4434609528 2.4751942119 2.506927471 2.5386607302 
2.5703939893 2.6021272484 2.6338605076 2.6655937667 2.6973270258 2.7290602849 2.7607935441 2.7925268032 2.8242600623 
2.8559933214 2.8877265806 2.9194598397 2.9511930988 2.982926358 3.0146596171 3.0463928762 3.0781261353 3.1098593945 
3.1415926536 
_radius 1 100 double
2.7971575571e-17 0.012369272869 0.024583246182 0.036509498629 0.048049566284 0.05914492743 0.069774660051 0.079946924545 0.089687412072 
0.099027539874 0.10799422967 0.11660234202 0.12485050528 0.13272084846 0.1401825129 0.14719770383 0.15372812733 0.15973980077 
0.16520551806 0.17010582303 0.17443013859 0.17817929675 0.18136948728 0.18403634541 0.18623717786 0.18804948874 0.1895649278 
0.19087910949 0.19207889885 0.19322941773 0.19436319766 0.19547366244 0.19651439028 0.19740435456 0.19803793558 0.19829760504 
0.19806722464 0.19724463062 0.19575296462 0.19355057562 0.19063917088 0.18706941675 0.18294265635 0.17840712793 0.17364735053 
0.16886644344 0.16426313612 0.16000789323 0.15622501362 0.15298757031 0.15032735646 0.14825422261 0.14677448172 0.14589997313 
0.14564482869 0.14601189734 0.14697473233 0.14846435952 0.15036972128 0.15255361048 0.15487658248 0.15721838728 0.15949070687 
0.1616403728 0.16364515055 0.16550504117 0.1672321385 0.16884193684 0.17034839132 0.17176338807 0.17309864305 0.17436605847 
0.17557318006 0.17671353616 0.1777551583 0.17863224336 0.17924386393 0.17946074133 0.17913817747 0.17813166428 0.17631166987 
0.17357506528 0.16985191794 0.16510751738 0.15934039961 0.15257779119 0.14487020123 0.13628666185 0.12691132785 0.11684111326 
0.10618328959 0.09505185516 0.08356200162 0.071822893301 0.059929924878 0.047958281897 0.035959596683 0.023962575549 0.01197706343 
7.6659566999e-16 
_area 1 100 double
0 0.00034075924723 0.0013555669101 0.0030215573711 0.0052995999098 0.0081346650858 0.01145983506 0.015205343578 0.019310873771 
0.023735583311 0.028458528525 0.033464945432 0.038722418561 0.044160673877 0.049669095108 0.055114718736 0.060371444937 0.065347015054 
0.069996792677 0.07431918029 0.078335448778 0.082065201183 0.085510958625 0.088657134115 0.091479349221 0.093958100729 0.096092868454 
0.097915358009 0.099501756532 0.10097959339 0.10251618582 0.10427493525 0.10634526552 0.10868307117 0.11110086923 0.11331199881 
0.1150044919 0.11591026785 0.11585169114 0.11476434138 0.11269177858 0.10974217585 0.10603287922 0.10169401142 0.09690140917 
0.091864892038 0.086787027713 0.081839385534 0.077178749926 0.072972934906 0.069376017127 0.066473295605 0.064291584676 0.062762822591 
0.061772865953 0.061229833932 0.061045300493 0.061153689465 0.061510084162 0.062068906021 0.062764362376 0.063510753763 0.064224947668 
0.064842550249 0.065305019141 0.065572829956 0.065648179303 0.065588602743 0.065506265755 0.065507176008 0.065663511901 0.066106969999 
0.066910498361 0.068136820944 0.069744243676 0.071582677031 0.073373413503 0.074781491816 0.075499766785 0.075300640585 0.074064347918 
0.071788840903 0.068578829399 0.06461346513 0.060099139006 0.055220269725 0.050103752603 0.044812775042 0.039377700808 0.033845594408 
0.028312951437 0.022925289539 0.017852073532 0.01325369294 0.0092555947736 0.0059383192422 0.0033431717268 0.0014861681764 0.00037155657961 
3.2808898326e-17 
