# vtk DataFile Version 5.1
vtk output
ASCII
DATASET POLYDATA
POINTS 100 float
0.147516 0.0733815 0.729882 0.147636 0.0734502 0.729547 0.148019 0.0734794 0.728377 
0.14862 0.0734812 0.726375 0.149367 0.0734754 0.723548 0.150168 0.0734857 0.719908 
0.150913 0.073535 0.715471 0.151484 0.0736406 0.710262 0.151765 0.0738102 0.704312 
0.151644 0.0740385 0.697659 0.151027 0.074306 0.690346 0.149838 0.0745792 0.682422 
0.148028 0.0748134 0.673939 0.145573 0.0749567 0.664952 0.142479 0.0749549 0.655512 
0.138772 0.0747579 0.64567 0.134501 0.0743248 0.63547 0.129725 0.0736289 0.624951 
0.124509 0.0726607 0.614143 0.118916 0.0714289 0.603069 0.112999 0.0699603 0.591745 
0.106798 0.0682962 0.580182 0.100332 0.0664886 0.568384 0.0936064 0.0645946 0.556355 
0.0866078 0.0626708 0.544094 0.079314 0.0607679 0.531604 0.0716987 0.0589264 0.518889 
0.06374 0.0571742 0.505953 0.0554275 0.055525 0.492803 0.0467692 0.0539801 0.479448 
0.0377956 0.0525303 0.465893 0.0285607 0.0511606 0.452144 0.0191398 0.0498537 0.4382 
0.00962375 0.0485959 0.424054 0.00011076 0.0473798 0.409688 -0.00930395 0.0462083 0.395077 
-0.0185388 0.0450949 0.380182 -0.0275357 0.0440642 0.364953 -0.0362669 0.0431497 0.349331 
-0.0447388 0.0423904 0.333248 -0.0529904 0.0418271 0.316629 -0.0610873 0.0414981 0.299397 
-0.0691115 0.0414347 0.281474 -0.0771463 0.0416587 0.262787 -0.0852608 0.0421798 0.243272 
-0.093493 0.0429952 0.222872 -0.101835 0.0440904 0.201548 -0.110224 0.0454412 0.179274 
-0.118534 0.0470166 0.156045 -0.12658 0.0487822 0.131872 -0.134128 0.0507035 0.106789 
-0.140906 0.0527484 0.0808478 -0.146628 0.0548897 0.0541187 -0.151015 0.0571052 0.0266895 
-0.153821 0.0593779 -0.00133704 -0.154858 0.0616943 -0.0298454 -0.154008 0.0640422 -0.0587105 
-0.151241 0.0664083 -0.0878004 -0.146617 0.0687755 -0.11698 -0.140279 0.0711205 -0.146114 
-0.132446 0.0734129 -0.17507 -0.123388 0.0756141 -0.203722 -0.113407 0.0776783 -0.231952 
-0.102806 0.0795535 -0.259655 -0.0918694 0.0811844 -0.286735 -0.0808361 0.0825146 -0.313112 
-0.0698868 0.0834894 -0.338719 -0.0591344 0.0840589 -0.363501 -0.0486233 0.08418 -0.387416 
-0.0383369 0.0838177 -0.410434 -0.0282118 0.0829464 -0.432534 -0.0181559 0.0815503 -0.453705 
-0.00806985 0.0796227 -0.473942 0.00213281 0.0771662 -0.493245 0.012508 0.0741921 -0.511621 
0.0230685 0.07072 -0.52908 0.0337778 0.066778 -0.545639 0.0445508 0.0624034 -0.561319 
0.0552613 0.0576427 -0.576143 0.0657541 0.0525528 -0.590143 0.075862 0.0472009 -0.603354 
0.0854228 0.0416648 -0.615813 0.0942963 0.0360313 -0.627564 0.102377 0.0303947 -0.638647 
0.109606 0.0248534 -0.649107 0.115968 0.0195058 -0.658979 0.121496 0.0144457 -0.668297 
0.126259 0.00975685 -0.677084 0.130351 0.00550806 -0.685352 0.133881 0.0017491 -0.693099 
0.136952 -0.00149237 -0.700312 0.139655 -0.00421202 -0.706963 0.142056 -0.00642813 -0.713014 
0.144194 -0.00817879 -0.718416 0.14608 -0.00951727 -0.723115 0.147698 -0.0105059 -0.727054 
0.149018 -0.0112091 -0.73018 0.150001 -0.011686 -0.732447 0.15061 -0.0119842 -0.733817 
0.150819 -0.0121338 -0.734268 
LINES 2 100
OFFSETS vtktypeint64
0 100 
CONNECTIVITY vtktypeint64
0 1 2 3 4 5 6 7 8 
9 10 11 12 13 14 15 16 17 
18 19 20 21 22 23 24 25 26 
27 28 29 30 31 32 33 34 35 
36 37 38 39 40 41 42 43 44 
45 46 47 48 49 50 51 52 53 
54 55 56 57 58 59 60 61 62 
63 64 65 66 67 68 69 70 71 
72 73 74 75 76 77 78 79 80 
81 82 83 84 85 86 87 88 89 
90 91 92 93 94 95 96 97 98 
99 
POINT_DATA 100
FIELD FieldData 3
_theta 1 100 double
0 0.031733259127 0.063466518254 0.095199777382 0.12693303651 0.15866629564 0.19039955476 0.22213281389 0.25386607302 
0.28559933214 0.31733259127 0.3490658504 0.38079910953 0.41253236865 0.44426562778 0.47599888691 0.50773214603 0.53946540516 
0.57119866429 0.60293192342 0.63466518254 0.66639844167 0.6981317008 0.72986495992 0.76159821905 0.79333147818 0.82506473731 
0.85679799643 0.88853125556 0.92026451469 0.95199777382 0.98373103294 1.0154642921 1.0471975512 1.0789308103 1.1106640695 
1.1423973286 1.1741305877 1.2058638468 1.237597106 1.2693303651 1.3010636242 1.3327968833 1.3645301425 1.3962634016 
1.4279966607 1.4597299198 1.491463179 1.5231964381 1.5549296972 1.5866629564 1.6183962155 1.6501294746 1.6818627337 
1.7135959929 1.745329252 1.7770625111 1.8087957702 1.8405290294 1.8722622885 1.9039955476 1.9357288068 1.9674620659 
1.999195325 2.0309285841 2.0626618433 2.0943951024 2.1261283615 2.1578616206 2.1895948798 2.2213281389 2.253061398 
2.2847946572 2.3165279163 2.3482611754 2.3799944345 2.4117276937 2.4434609528 2.4751942119 2.506927471 2.5386607302 
2.5703939893 2.6021272484 2.6338605076 2.6655937667 2.6973270258 2.7290602849 2.7607935441 2.7925268032 2.8242600623 
2.8559933214 2.8877265806 2.9194598397 2.9511930988 2.982926358 3.0146596171 3.0463928762 3.0781261353 3.1098593945 
3.1415926536 
_radius 1 100 double
1.2615817477e-15 0.014905355592 0.029623904174 0.043983901327 0.057850025419 0.071134021134 0.083797703083 0.095848445484 0.10732875295 
0.1183024353 0.1288400881 0.13900611409 0.14884874426 0.15839377459 0.16764216868 0.17657120635 0.18513840011 0.19328707646 
0.20095254497 0.20806816661 0.21457112004 0.22040795775 0.22554003115 0.22994862146 0.23363929146 0.23664470533 0.23902503319 
0.2408651227 0.24226793565 0.24334434133 0.24420017609 0.24492233063 0.24556621256 0.2461469479 0.24663601704 0.24696387431 
0.24702793724 0.24670458163 0.24586357072 0.24438347473 0.24216676817 0.23915323107 0.2353300976 0.23073735438 0.22546693198 
0.21965532647 0.21347034879 0.20709404075 0.2007049887 0.19446382759 0.18850526102 0.18293832518 0.17785405533 0.1733367125 
0.1694726227 0.16635116252 0.16405587006 0.16264786605 0.16214577573 0.16250689145 0.16361706965 0.16529914408 0.16734252041 
0.16954284611 0.1717351746 0.17381030781 0.17571330889 0.1774303623 0.17897293907 0.18036458845 0.18163047286 0.18278903838 
0.18384648377 0.1847943281 0.18560918511 0.18625341452 0.18667579357 0.18681212747 0.18658625514 0.18591199957 0.18469631309 
0.18284340361 0.18025929071 0.17685621888 0.17255658689 0.16729629527 0.16102750701 0.15372079087 0.14536658385 0.1359759145 
0.12558035127 0.11423116219 0.10199770296 0.088965106226 0.075231426631 0.060904487892 0.046098754192 0.030932574974 0.015526098441 
5.0742116665e-16 
_area 1 100 double
0 0.00060250961579 0.0023740907087 0.0052128380042 0.0089674566553 0.013460974092 0.018516603371 0.02398044281 0.02973680742 
0.035714282208 0.041883024597 0.048245038129 0.054818880285 0.061620304784 0.068642370106 0.075841122086 0.083132395798 0.09040079468 
0.097517064588 0.10435807659 0.11082420689 0.11685036549 0.12240873211 0.12750392031 0.13216440436 0.13643541731 0.14037647989 
0.14406245858 0.14758246155 0.15102698312 0.15446077667 0.15790403256 0.16129769764 0.1644926113 0.16731418598 0.16958096431 
0.17111839163 0.17172974014 0.17112307375 0.1690263611 0.16532051041 0.16018130595 0.15356889409 0.1460172088 0.13794799676 
0.13006210346 0.12287899001 0.11617593821 0.11014336246 0.10490077059 0.10040494106 0.096438893663 0.092695622431 0.088901348035 
0.084906790232 0.080741223078 0.076663068382 0.073285559264 0.071131911093 0.069976991332 0.069603282576 0.069732979702 0.070079544619 
0.07042542655 0.070662483696 0.070783686853 0.070829300953 0.070830059668 0.070765817382 0.070576653897 0.070234695437 0.069773526351 
0.069284836438 0.06885628532 0.06844863647 0.068032142314 0.067607334551 0.067155476124 0.066661354137 0.066145654398 0.065752771551 
0.065238342908 0.06432808947 0.06287637736 0.060767716147 0.057929076644 0.054342995927 0.050052022661 0.045154105312 0.039791581473 
0.034137330115 0.028381255774 0.022719060794 0.017343709226 0.012438743483 0.0081722790677 0.0046911113627 0.0021152334345 0.00053339061268 
1.910895823e-17 
