# vtk DataFile Version 5.1
vtk output
ASCII
DATASET POLYDATA
POINTS 100 float
0.158809 0.0732019 0.832387 0.15866 0.0732262 0.832304 0.158273 0.0731269 0.831873 
0.157675 0.0729332 0.831048 0.156908 0.0726894 0.829757 0.156022 0.072447 0.827913 
0.155065 0.0722567 0.825416 0.154081 0.072159 0.822164 0.153094 0.0721771 0.818066 
0.152108 0.0723119 0.813045 0.151104 0.0725404 0.807047 0.150035 0.0728181 0.800047 
0.148834 0.0730837 0.792047 0.147414 0.0732677 0.783081 0.145679 0.0733021 0.773209 
0.143528 0.0731294 0.762513 0.140869 0.0727117 0.75109 0.13762 0.0720356 0.739045 
0.133716 0.0711151 0.726482 0.129116 0.0699897 0.7135 0.123801 0.0687189 0.70018 
0.117777 0.0673741 0.68659 0.111066 0.066028 0.67277 0.10371 0.0647447 0.658743 
0.0957627 0.0635702 0.644507 0.0872876 0.0625253 0.630044 0.0783524 0.061603 0.61532 
0.069028 0.0607696 0.600294 0.0593863 0.05997 0.584921 0.0494986 0.0591364 0.56916 
0.0394352 0.0581995 0.552978 0.0292647 0.0571006 0.536353 0.0190524 0.0558025 0.519277 
0.00885937 0.0542981 0.501758 -0.00125972 0.0526154 0.483817 -0.0112589 0.0508176 0.465484 
-0.0211029 0.0489986 0.446795 -0.0307686 0.0472744 0.427784 -0.0402447 0.0457711 0.408479 
-0.049531 0.0446113 0.388892 -0.0586338 0.0439004 0.369017 -0.0675612 0.0437154 0.348824 
-0.0763156 0.044096 0.328257 -0.0848859 0.0450411 0.307234 -0.0932401 0.0465101 0.285651 
-0.101319 0.0484285 0.263392 -0.109032 0.0506983 0.240332 -0.116261 0.0532103 0.216352 
-0.12286 0.0558573 0.191352 -0.128667 0.0585472 0.165258 -0.13352 0.0612125 0.138039 
-0.137267 0.0638163 0.109714 -0.139793 0.0663535 0.0803558 -0.141026 0.0688471 0.0500905 
-0.140959 0.0713402 0.019097 -0.139659 0.0738846 -0.0124043 -0.137262 0.0765282 -0.0441647 
-0.133975 0.0793022 -0.0759233 -0.130058 0.0822101 -0.107427 -0.125806 0.0852211 -0.138447 
-0.121521 0.0882667 -0.168801 -0.117482 0.0912436 -0.198363 -0.113919 0.0940199 -0.227074 
-0.110986 0.096447 -0.254945 -0.10874 0.0983721 -0.282052 -0.107135 0.0996532 -0.308529 
-0.106018 0.100172 -0.334546 -0.105142 0.0998453 -0.360293 -0.104184 0.0986312 -0.385954 
-0.102781 0.0965322 -0.411684 -0.100556 0.0935929 -0.43759 -0.0971589 0.089893 -0.463711 
-0.0922987 0.0855383 -0.490013 -0.0857704 0.0806484 -0.516382 -0.0774743 0.075345 -0.542634 
-0.0674235 0.0697417 -0.568529 -0.0557403 0.0639349 -0.59379 -0.0426414 0.058 -0.618128 
-0.0284145 0.0519896 -0.641269 -0.0133882 0.0459364 -0.662982 0.0020996 0.0398585 -0.683097 
0.0177327 0.0337664 -0.701523 0.0332418 0.0276708 -0.718253 0.0484224 0.0215898 -0.733368 
0.0631424 0.0155534 -0.747017 0.0773397 0.00960656 -0.75941 0.09101 0.00380839 -0.770783 
0.104187 -0.00177104 -0.781379 0.11692 -0.00705628 -0.791413 0.129245 -0.0119733 -0.801055 
0.141165 -0.0164566 -0.810403 0.152632 -0.0204553 -0.819475 0.16354 -0.0239372 -0.828208 
0.173721 -0.0268908 -0.836465 0.18296 -0.0293237 -0.844045 0.191009 -0.0312593 -0.850713 
0.197615 -0.0327304 -0.856223 0.202542 -0.0337728 -0.860347 0.2056 -0.0344179 -0.862899 
0.206666 -0.0346868 -0.86376 
LINES 2 100
OFFSETS vtktypeint64
0 100 
CONNECTIVITY vtktypeint64
0 1 2 3 4 5 6 7 8 
9 10 11 12 13 14 15 16 17 
18 19 20 21 22 23 24 25 26 
27 28 29 30 31 32 33 34 35 
36 37 38 39 40 41 42 43 44 
45 46 47 48 49 50 51 52 53 
54 55 56 57 58 59 60 61 62 
63 64 65 66 67 68 69 70 71 
72 73 74 75 76 77 78 79 80 
81 82 83 84 85 86 87 88 89 
90 91 92 93 94 95 96 97 98 
99 
POINT_DATA 100
FIELD FieldData 3
_theta 1 100 double
0 0.031733259127 0.063466518254 0.095199777382 0.12693303651 0.15866629564 0.19039955476 0.22213281389 0.25386607302 
0.28559933214 0.31733259127 0.3490658504 0.38079910953 0.41253236865 0.44426562778 0.47599888691 0.50773214603 0.53946540516 
0.57119866429 0.60293192342 0.63466518254 0.66639844167 0.6981317008 0.72986495992 0.76159821905 0.79333147818 0.82506473731 
0.85679799643 0.88853125556 0.92026451469 0.95199777382 0.98373103294 1.0154642921 1.0471975512 1.0789308103 1.1106640695 
1.1423973286 1.1741305877 1.2058638468 1.237597106 1.2693303651 1.3010636242 1.3327968833 1.3645301425 1.3962634016 
1.4279966607 1.4597299198 1.491463179 1.5231964381 1.5549296972 1.5866629564 1.6183962155 1.6501294746 1.6818627337 
1.7135959929 1.745329252 1.7770625111 1.8087957702 1.8405290294 1.8722622885 1.9039955476 1.9357288068 1.9674620659 
1.999195325 2.0309285841 2.0626618433 2.0943951024 2.1261283615 2.1578616206 2.1895948798 2.2213281389 2.253061398 
2.2847946572 2.3165279163 2.3482611754 2.3799944345 2.4117276937 2.4434609528 2.4751942119 2.506927471 2.5386607302 
2.5703939893 2.6021272484 2.6338605076 2.6655937667 2.6973270258 2.7290602849 2.7607935441 2.7925268032 2.8242600623 
2.8559933214 2.8877265806 2.9194598397 2.9511930988 2.982926358 3.0146596171 3.0463928762 3.0781261353 3.1098593945 
3.1415926536 
_radius 1 100 double
8.0071348089e-16 0.016035510653 0.031963435418 0.047678891811 0.063085932973 0.078100673545 0.092652822292 0.10668533187 0.12015231849 
0.13301603958 0.14524428294 0.15680952168 0.16769025885 0.17787349767 0.18735632208 0.19614492974 0.20425080604 0.21168513458 
0.21845334254 0.22455173351 0.22996762115 0.23468345932 0.23868437456 0.24196748259 0.24455070621 0.24647875609 0.24782454968 
0.24868544958 0.24917496849 0.24941163588 0.24950721547 0.24955620655 0.24962766062 0.24975928559 0.2499532611 0.25017352084 
0.25034520688 0.25035781886 0.25007353788 0.24934109066 0.24801381321 0.24596915089 0.24312634091 0.23945950158 0.2350043762 
0.22985809281 0.22417227909 0.21814070583 0.21198335164 0.20592927519 0.20020066355 0.19499965205 0.19049813274 0.18682942116 
0.1840800765 0.18228070395 0.18139603218 0.18131651012 0.18185555247 0.18275746591 0.18371942992 0.18442580898 0.18458730972 
0.18397599623 0.18245077057 0.17997262261 0.17661091467 0.17253966839 0.16801770514 0.16334708516 0.15882023736 0.15468066943 
0.15110889272 0.1482241398 0.14609026894 0.14472160424 0.14408856217 0.14412274579 0.14471970156 0.14573777538 0.14699455519 
0.14826591708 0.1492930354 0.14979904316 0.14951231863 0.14819085251 0.14564234482 0.1417363155 0.1364065552 0.1296443893 
0.12148532072 0.11199322524 0.10124680245 0.089332068992 0.076342492325 0.06238562832 0.047592813718 0.032127373328 0.016187272714 
1.0108293132e-15 
_area 1 100 double
0 0.00068907873517 0.002721018775 0.0059958848578 0.010365754952 0.015658701387 0.021705116062 0.028360262527 0.035516358644 
0.043098915073 0.051048173177 0.059296142579 0.067753719965 0.076314144846 0.08486672774 0.093309855286 0.10155573966 0.10952583599 
0.11714107052 0.12431335779 0.13094426376 0.13693390345 0.14219945708 0.14669904997 0.15045379186 0.15355930002 0.15617915791 
0.15851762175 0.16077750356 0.16311742507 0.16562345012 0.16830345904 0.17110180855 0.17391270846 0.17658734924 0.17899279419 
0.18104209523 0.18242544099 0.1829463624 0.18244346526 0.18078926103 0.17819712741 0.1745915686 0.17040822506 0.16576729523 
0.16029323165 0.15402838216 0.14713455761 0.13984722786 0.13243986844 0.12518418929 0.11831926569 0.11204160811 0.10652086142 
0.10182885996 0.097934637501 0.094839906103 0.092573628144 0.091191909168 0.09093106443 0.091363620995 0.092130415599 0.0928121765 
0.093005098001 0.092382987594 0.090761530759 0.088159324571 0.084822023079 0.08110539459 0.077264019906 0.073413310209 0.069634761547 
0.066097942663 0.063088400882 0.060803969942 0.059421528862 0.058800783303 0.058672393514 0.058737094726 0.058799183705 0.058729444997 
0.058432197326 0.05782328948 0.056823438591 0.055358618118 0.053362003748 0.050777066308 0.047564638298 0.043715163353 0.039263898892 
0.034303775417 0.028989031653 0.023526283742 0.018155384949 0.013125360343 0.0086710542388 0.0049950319603 0.0022569436525 0.00056972356927 
8.5244548718e-17 
