# vtk DataFile Version 5.1
vtk output
ASCII
DATASET POLYDATA
POINTS 100 float
0.11942 0.0467066 0.759475 0.119428 0.0469303 0.758977 0.119529 0.0474455 0.757338 
0.119664 0.0482173 0.754626 0.119751 0.0491929 0.750945 0.119688 0.0503075 0.746425 
0.119376 0.0514909 0.741201 0.118731 0.0526738 0.735401 0.1177 0.053795 0.729132 
0.116265 0.054806 0.722465 0.114451 0.0556747 0.715432 0.11232 0.0563865 0.708022 
0.109957 0.0569436 0.700188 0.107464 0.0573621 0.691857 0.104934 0.0576676 0.682938 
0.102438 0.0578902 0.673344 0.10001 0.058059 0.662999 0.0976336 0.0581972 0.651857 
0.0952414 0.0583189 0.639905 0.0927167 0.0584265 0.627171 0.0899051 0.0585109 0.61372 
0.0866309 0.0585524 0.59965 0.0827175 0.0585243 0.58508 0.0780092 0.0583964 0.570143 
0.0723908 0.0581393 0.554964 0.0658032 0.0577288 0.539656 0.058252 0.0571497 0.524309 
0.0498086 0.0563977 0.508977 0.0406026 0.0554812 0.493686 0.0308079 0.0544204 0.478428 
0.0206223 0.0532465 0.46317 0.0102456 0.0519988 0.447856 -0.000142802 0.050722 0.432422 
-0.0104024 0.0494634 0.416798 -0.0204446 0.0482699 0.400917 -0.0302376 0.047186 0.384715 
-0.0398029 0.0462527 0.368135 -0.0492038 0.0455066 0.351125 -0.0585271 0.0449806 0.333632 
-0.0678606 0.0447034 0.315599 -0.0772699 0.044701 0.296963 -0.0867763 0.0449961 0.277649 
-0.0963408 0.0456083 0.257572 -0.105855 0.0465526 0.236644 -0.115139 0.0478379 0.214776 
-0.123955 0.0494648 0.191887 -0.132019 0.0514232 0.167923 -0.139026 0.05369 0.142857 
-0.144678 0.0562281 0.116708 -0.148712 0.0589855 0.0895424 -0.150922 0.061897 0.0614793 
-0.151182 0.0648867 0.0326853 -0.149453 0.0678725 0.00336813 -0.145788 0.0707712 -0.0262366 
-0.140329 0.0735047 -0.0558817 -0.133286 0.0760066 -0.0853263 -0.124922 0.0782272 -0.114354 
-0.11553 0.0801378 -0.142787 -0.105404 0.081733 -0.170502 -0.0948216 0.0830298 -0.197428 
-0.0840229 0.0840653 -0.223557 -0.0732005 0.0848913 -0.248929 -0.0624929 0.0855672 -0.273622 
-0.0519859 0.0861515 -0.297742 -0.0417184 0.0866936 -0.3214 -0.0316931 0.0872255 -0.344697 
-0.0218884 0.0877556 -0.367708 -0.0122701 0.0882647 -0.390474 -0.00280248 0.0887047 -0.412995 
0.00654483 0.0890011 -0.435228 0.0157927 0.0890576 -0.457097 0.0249522 0.088764 -0.478499 
0.0340265 0.0880056 -0.499319 0.0430151 0.0866734 -0.519442 0.0519181 0.0846748 -0.538769 
0.060739 0.0819425 -0.557224 0.069486 0.0784414 -0.574761 0.0781706 0.0741734 -0.591368 
0.0868033 0.0691786 -0.607059 0.0953876 0.0635336 -0.621871 0.103913 0.0573466 -0.635854 
0.112348 0.050751 -0.649055 0.120635 0.043896 -0.661516 0.128689 0.0369379 -0.673258 
0.136399 0.0300307 -0.684279 0.143638 0.023317 -0.694558 0.150267 0.016922 -0.704052 
0.156155 0.0109479 -0.712707 0.161189 0.0054712 -0.72047 0.165293 0.00054206 -0.727295 
0.168434 -0.00381439 -0.733157 0.170634 -0.00759522 -0.73806 0.171971 -0.0108157 -0.742039 
0.172571 -0.0135043 -0.745161 0.172603 -0.0156982 -0.747518 0.172256 -0.0174377 -0.749222 
0.171728 -0.0187622 -0.750388 0.171198 -0.0197065 -0.751127 0.170812 -0.0202972 -0.751528 
0.170664 -0.020551 -0.751647 
LINES 2 100
OFFSETS vtktypeint64
0 100 
CONNECTIVITY vtktypeint64
0 1 2 3 4 5 6 7 8 
9 10 11 12 13 14 15 16 17 
18 19 20 21 22 23 24 25 26 
27 28 29 30 31 32 33 34 35 
36 37 38 39 40 41 42 43 44 
45 46 47 48 49 50 51 52 53 
54 55 56 57 58 59 60 61 62 
63 64 65 66 67 68 69 70 71 
72 73 74 75 76 77 78 79 80 
81 82 83 84 85 86 87 88 89 
90 91 92 93 94 95 96 97 98 
99 
POINT_DATA 100
FIELD FieldData 3
_theta 1 100 double
0 0.031733259127 0.063466518254 0.095199777382 0.12693303651 0.15866629564 0.19039955476 0.22213281389 0.25386607302 
0.28559933214 0.31733259127 0.3490658504 0.38079910953 0.41253236865 0.44426562778 0.47599888691 0.50773214603 0.53946540516 
0.57119866429 0.60293192342 0.63466518254 0.66639844167 0.6981317008 0.72986495992 0.76159821905 0.79333147818 0.82506473731 
0.85679799643 0.88853125556 0.92026451469 0.95199777382 0.98373103294 1.0154642921 1.0471975512 1.0789308103 1.1106640695 
1.1423973286 1.1741305877 1.2058638468 1.237597106 1.2693303651 1.3010636242 1.3327968833 1.3645301425 1.3962634016 
1.4279966607 1.4597299198 1.491463179 1.5231964381 1.5549296972 1.5866629564 1.6183962155 1.6501294746 1.6818627337 
1.7135959929 1.745329252 1.7770625111 1.8087957702 1.8405290294 1.8722622885 1.9039955476 1.9357288068 1.9674620659 
1.999195325 2.0309285841 2.0626618433 2.0943951024 2.1261283615 2.1578616206 2.1895948798 2.2213281389 2.253061398 
2.2847946572 2.3165279163 2.3482611754 2.3799944345 2.4117276937 2.4434609528 2.4751942119 2.506927471 2.5386607302 
2.5703939893 2.6021272484 2.6338605076 2.6655937667 2.6973270258 2.7290602849 2.7607935441 2.7925268032 2.8242600623 
2.8559933214 2.8877265806 2.9194598397 2.9511930988 2.982926358 3.0146596171 3.0463928762 3.0781261353 3.1098593945 
3.1415926536 
_radius 1 100 double
1.2265954804e-15 0.015536294386 0.03098871091 0.046270624652 0.06130354395 0.076018698778 0.090356487544 0.10426449647 0.11769502042 
0.13060279371 0.14294329155 0.15467174867 0.1657429841 0.17611210566 0.18573612858 0.19457649351 0.20260240416 0.20979476366 
0.21615025092 0.22168487355 0.2264363503 0.23046494653 0.23385269396 0.23670101198 0.23912658265 0.24125516496 0.24321315077 
0.24511707987 0.24706176783 0.24910793523 0.25127045515 0.25350895872 0.25572343548 0.25775767371 0.25941200951 0.2604643191 
0.26069600928 0.25991895988 0.25799974731 0.25487832726 0.25057924781 0.2452143074 0.23897635116 0.23212455368 0.22496206968 
0.2178076049 0.21096378337 0.20468724344 0.19916681737 0.19451480157 0.1907720814 0.18792330375 0.18591581543 0.18467622503 
0.18412059576 0.18415747981 0.18468614863 0.1855943179 0.18675944835 0.18805521787 0.18936145546 0.19057390166 0.191610618 
0.19241387861 0.19294842406 0.19319798216 0.19316172773 0.19285141217 0.19228907379 0.19150492154 0.19053501504 0.18941852584 
0.18819459488 0.18689905021 0.18556138782 0.18420231643 0.18283182714 0.18144736177 0.18003149711 0.17854881863 0.17694227224 
0.1751299976 0.17300411513 0.17043288116 0.16726696647 0.16334955462 0.1585288849 0.15267118006 0.14567184339 0.13746336477 
0.12801926287 0.11735424892 0.10552137538 0.092607168443 0.078725713988 0.064012498993 0.048618613419 0.032705739406 0.016442182962 
1.3159493453e-15 
_area 1 100 double
0 0.00057255121522 0.0022761047253 0.0050683361441 0.0088795385023 0.013616166568 0.019167819893 0.025415966878 0.032240803415 
0.039522789808 0.047137977888 0.054950333406 0.062807688925 0.070547679224 0.07801471065 0.085081739502 0.091666406356 0.097732520026 
0.10327497516 0.10829683084 0.11279482624 0.11676601748 0.12023575602 0.12329667424 0.12614244305 0.12907217635 0.13243354301 
0.13649837228 0.14134619541 0.14685276534 0.15276612735 0.15878815513 0.16462701476 0.1700267417 0.1747644891 0.17857092839 
0.18109217157 0.18197771145 0.1809520336 0.17786689974 0.17274922498 0.16582822753 0.15752554882 0.14840246341 0.13907083351 
0.13008908491 0.12187777508 0.11468586479 0.10860736909 0.10362525111 0.0997037047 0.096829419766 0.094427785776 0.092157608388 
0.089996055325 0.088050867924 0.086448136537 0.085250001661 0.084461276348 0.083919807023 0.083433761519 0.082901671225 0.082199840655 
0.081333934018 0.080306587656 0.079144925582 0.077883832654 0.076545697959 0.07513865563 0.073658654999 0.072109021278 0.070530611324 
0.068991889538 0.067573671161 0.066354634927 0.065402410233 0.064768977468 0.064488295211 0.064578791269 0.065074182486 0.065880284302 
0.066688093393 0.067255108628 0.067333169054 0.066682273786 0.06509843728 0.062442710078 0.058663723172 0.053809722978 0.048028399362 
0.041554568646 0.034687376561 0.027760193383 0.021107635145 0.015034870245 0.0097942444304 0.0055730478556 0.0024938679292 0.00062563452172 
2.9927367886e-17 
