# vtk DataFile Version 5.1
vtk output
ASCII
DATASET POLYDATA
POINTS 100 float
0.113215 0.0444507 0.643063 0.113187 0.0446381 0.642623 0.113147 0.0450532 0.641196 
0.113083 0.0456875 0.638841 0.112977 0.0465277 0.635653 0.112803 0.0475548 0.631748 
0.112538 0.0487433 0.627252 0.112157 0.0500608 0.622285 0.11164 0.0514677 0.616952 
0.110972 0.0529187 0.611331 0.110143 0.0543639 0.605465 0.109153 0.0557521 0.599367 
0.108003 0.0570338 0.593015 0.106702 0.0581648 0.586364 0.105254 0.0591102 0.579357 
0.103665 0.0598467 0.571932 0.101929 0.060365 0.564039 0.100035 0.0606699 0.555643 
0.0979565 0.0607795 0.546738 0.0956579 0.0607224 0.537346 0.0930902 0.0605342 0.527515 
0.0901963 0.0602526 0.517318 0.0869149 0.0599128 0.50684 0.0831859 0.0595427 0.496172 
0.0789572 0.05916 0.4854 0.0741908 0.0587698 0.474594 0.0688687 0.0583648 0.463803 
0.0629975 0.0579268 0.453049 0.0566104 0.0574306 0.442328 0.0497672 0.0568484 0.431613 
0.0425508 0.0561555 0.420857 0.0350617 0.0553358 0.410005 0.0274097 0.054386 0.399001 
0.0197044 0.0533193 0.387792 0.012045 0.0521666 0.376338 0.00451056 0.0509757 0.364616 
-0.00284756 0.0498081 0.352616 -0.0100112 0.0487348 0.340342 -0.0169965 0.0478299 0.327806 
-0.0238518 0.047164 0.315022 -0.0306507 0.0467983 0.301997 -0.0374823 0.0467787 0.288728 
-0.0444382 0.0471322 0.275196 -0.0515985 0.0478649 0.261364 -0.0590179 0.0489624 0.24718 
-0.0667131 0.0503916 0.232578 -0.0746544 0.0521049 0.217489 -0.0827607 0.0540448 0.201845 
-0.0909003 0.0561491 0.185591 -0.0988974 0.0583563 0.168691 -0.106543 0.0606092 0.151133 
-0.113609 0.0628577 0.132935 -0.119871 0.0650609 0.114144 -0.12512 0.0671861 0.0948295 
-0.129186 0.069208 0.0750834 -0.13195 0.0711067 0.0550085 -0.133356 0.072865 0.0347111 
-0.133413 0.074467 0.0142929 -0.132195 0.0758964 -0.00615558 -0.129832 0.0771369 -0.0265596 
-0.126495 0.0781721 -0.0468618 -0.122381 0.0789884 -0.0670211 -0.117694 0.0795768 -0.0870091 
-0.112621 0.0799358 -0.106805 -0.107319 0.0800732 -0.126392 -0.1019 0.0800075 -0.145747 
-0.0964218 0.0797674 -0.164843 -0.0908889 0.0793902 -0.183645 -0.0852552 0.078918 -0.202109 
-0.0794344 0.0783935 -0.220189 -0.073315 0.0778542 -0.237841 -0.0667775 0.0773278 -0.255029 
-0.0597121 0.0768275 -0.271732 -0.0520356 0.0763489 -0.287947 -0.0437042 0.0758704 -0.303696 
-0.0347229 0.075354 -0.319018 -0.025148 0.0747508 -0.333972 -0.0150848 0.0740065 -0.348626 
-0.00468023 0.0730701 -0.363046 0.00588991 0.071902 -0.377288 0.0164348 0.0704816 -0.391383 
0.0267647 0.0688136 -0.405332 0.036705 0.0669311 -0.419095 0.0461089 0.0648955 -0.432593 
0.0548656 0.0627932 -0.445709 0.0629047 0.0607283 -0.458298 0.0701955 0.0588133 -0.470195 
0.0767424 0.0571572 -0.481236 0.0825775 0.0558535 -0.49127 0.0877508 0.0549701 -0.500176 
0.0923199 0.0545398 -0.507875 0.0963404 0.0545559 -0.514341 0.0998587 0.054971 -0.519598 
0.102907 0.0557012 -0.523724 0.105503 0.0566335 -0.526837 0.107647 0.0576374 -0.529082 
0.109331 0.0585787 -0.530612 0.110541 0.0593336 -0.531574 0.11126 0.0598024 -0.532087 
0.111479 0.0599199 -0.532228 
LINES 2 100
OFFSETS vtktypeint64
0 100 
CONNECTIVITY vtktypeint64
0 1 2 3 4 5 6 7 8 
9 10 11 12 13 14 15 16 17 
18 19 20 21 22 23 24 25 26 
27 28 29 30 31 32 33 34 35 
36 37 38 39 40 41 42 43 44 
45 46 47 48 49 50 51 52 53 
54 55 56 57 58 59 60 61 62 
63 64 65 66 67 68 69 70 71 
72 73 74 75 76 77 78 79 80 
81 82 83 84 85 86 87 88 89 
90 91 92 93 94 95 96 97 98 
99 
POINT_DATA 100
FIELD FieldData 3
_theta 1 100 double
0 0.031733259127 0.063466518254 0.095199777382 0.12693303651 0.15866629564 0.19039955476 0.22213281389 0.25386607302 
0.28559933214 0.31733259127 0.3490658504 0.38079910953 0.41253236865 0.44426562778 0.47599888691 0.50773214603 0.53946540516 
0.57119866429 0.60293192342 0.63466518254 0.66639844167 0.6981317008 0.72986495992 0.76159821905 0.79333147818 0.82506473731 
0.85679799643 0.88853125556 0.92026451469 0.95199777382 0.98373103294 1.0154642921 1.0471975512 1.0789308103 1.1106640695 
1.1423973286 1.1741305877 1.2058638468 1.237597106 1.2693303651 1.3010636242 1.3327968833 1.3645301425 1.3962634016 
1.4279966607 1.4597299198 1.491463179 1.5231964381 1.5549296972 1.5866629564 1.6183962155 1.6501294746 1.6818627337 
1.7135959929 1.745329252 1.7770625111 1.8087957702 1.8405290294 1.8722622885 1.9039955476 1.9357288068 1.9674620659 
1.999195325 2.0309285841 2.0626618433 2.0943951024 2.1261283615 2.1578616206 2.1895948798 2.2213281389 2.253061398 
2.2847946572 2.3165279163 2.3482611754 2.3799944345 2.4117276937 2.4434609528 2.4751942119 2.506927471 2.5386607302 
2.5703939893 2.6021272484 2.6338605076 2.6655937667 2.6973270258 2.7290602849 2.7607935441 2.7925268032 2.8242600623 
2.8559933214 2.8877265806 2.9194598397 2.9511930988 2.982926358 3.0146596171 3.0463928762 3.0781261353 3.1098593945 
3.1415926536 
_radius 1 100 double
7.8944976408e-16 0.0109087235 0.021747911339 0.032443173326 0.042923931674 0.053125821349 0.062993087809 0.072480771895 0.081556540898 
0.090202176284 0.098414770568 0.10620743523 0.11360886753 0.12066088456 0.12741340471 0.13391728229 0.14021635112 0.14634041742 
0.15230055914 0.15808724529 0.16367102792 0.16900525304 0.17403037832 0.17867978563 0.18288709834 0.18659478051 0.18976326196 
0.19237923569 0.1944613861 0.19606183255 0.19726209063 0.19816332473 0.19887192725 0.1994827085 0.20006279646 0.20063935996 
0.20119340498 0.20166048748 0.20193781838 0.20189637431 0.20139636619 0.20030450628 0.19851160972 0.19594898168 0.19260182685 
0.18851778998 0.18380892019 0.17864595857 0.17324481714 0.16784625779 0.16269089493 0.15799265842 0.15391477237 0.15055290591 
0.14792963803 0.1460018231 0.14467824226 0.14384147343 0.14336761325 0.14314015853 0.1430576461 0.14303667991 0.14301257237 
0.14293952455 0.14279123109 0.14256119097 0.14226085192 0.14191419227 0.14154922772 0.1411887009 0.14084265126 0.14050463348 
0.14015184889 0.13974830243 0.13924977759 0.13860971152 0.13778532156 0.1367432065 0.13546336289 0.1339406028 0.13218283438 
0.13020624379 0.1280278498 0.12565627584 0.1230820282 0.12026896832 0.11714876139 0.11361971231 0.10955064813 0.10478966592 
0.099176936558 0.09256041643 0.084813114729 0.075850332704 0.065645037581 0.054239392113 0.041750568537 0.028369419618 0.014351375384 
7.2654205251e-16 
_area 1 100 double
0 0.00036051495844 0.0014286556284 0.0031652805437 0.0055088272417 0.0083809677244 0.011694220412 0.015360362608 0.01929799513 
0.023437971123 0.027726535599 0.032126973584 0.036620326944 0.041204511583 0.045890264016 0.050692825408 0.055620258807 0.060661954173 
0.065781951089 0.070919223552 0.075993073226 0.080910458691 0.085573973043 0.089891327689 0.09378723642 0.097216386233 0.10017319691 
0.10269243159 0.10483733439 0.10668106352 0.10829480163 0.1097471766 0.1111051506 0.11242842415 0.11375969561 0.11511613218 
0.11648269122 0.11780156749 0.11895262384 0.11974148788 0.11992931402 0.11929388104 0.11768079171 0.11503043412 0.11138404642 
0.10687373858 0.10170244059 0.096120945265 0.090407180216 0.084847102622 0.079711415491 0.075223681202 0.071522765412 0.068630087515 
0.066439823446 0.064749860156 0.063332043782 0.062005813735 0.060675947301 0.059328719332 0.057997623896 0.056724594802 0.055542110842 
0.054472962418 0.053534564506 0.052742169819 0.052105906307 0.051621039821 0.051265418135 0.050994770494 0.050743819587 0.05044983546 
0.050053420133 0.04951819682 0.048838005579 0.048034092754 0.047143883104 0.046207716443 0.04525947255 0.044319346642 0.043385433701 
0.042430991972 0.041414504179 0.040291447485 0.039013813046 0.037520983414 0.03573720776 0.033585615315 0.031013598616 0.02801499817 
0.024638590916 0.020982647861 0.0171821885 0.013395541134 0.0097924949785 0.0065435782763 0.0038104642296 0.0017373343554 0.00044121592809 
3.5615831246e-17 
