# vtk DataFile Version 5.1
vtk output
ASCII
DATASET POLYDATA
POINTS 100 float
0.144085 0.0441481 0.665285 0.143934 0.0442184 0.665326 0.143582 0.0443385 0.665292 
0.143035 0.0445349 0.665125 0.142304 0.0448462 0.664732 0.141399 0.0453158 0.663998 
0.140329 0.0459837 0.662797 0.139096 0.0468779 0.661005 0.137697 0.0480066 0.658512 
0.136121 0.0493536 0.65523 0.134348 0.0508759 0.651103 0.132352 0.0525054 0.646112 
0.130106 0.0541536 0.640268 0.127578 0.0557201 0.633615 0.124742 0.0571019 0.626217 
0.121579 0.0582046 0.618153 0.118078 0.0589526 0.609504 0.114239 0.0592974 0.600344 
0.110073 0.0592231 0.590731 0.105601 0.0587482 0.580704 0.10085 0.0579237 0.570275 
0.0958505 0.0568277 0.559436 0.0906315 0.0555565 0.548159 0.0852166 0.0542143 0.536406 
0.0796206 0.0529023 0.524132 0.0738474 0.0517083 0.5113 0.0678891 0.0506987 0.497882 
0.0617266 0.049913 0.483871 0.0553328 0.049362 0.469282 0.0486753 0.0490303 0.454151 
0.0417214 0.048881 0.438536 0.0344428 0.0488639 0.42251 0.0268191 0.0489247 0.40615 
0.0188419 0.0490148 0.389537 0.0105167 0.0490991 0.372737 0.0018637 0.0491634 0.355801 
-0.00708271 0.0492169 0.338756 -0.0162751 0.049293 0.321601 -0.0256555 0.0494455 0.304308 
-0.0351571 0.0497425 0.286824 -0.0447069 0.0502581 0.269076 -0.0542263 0.0510632 0.25098 
-0.0636325 0.0522156 0.232451 -0.0728375 0.0537522 0.213407 -0.0817479 0.0556827 0.193784 
-0.0902641 0.0579864 0.17354 -0.0982798 0.0606125 0.152658 -0.105683 0.0634823 0.131155 
-0.112357 0.0664955 0.109074 -0.118187 0.0695377 0.0864856 -0.123062 0.0724892 0.0634818 
-0.126886 0.075234 0.0401689 -0.129582 0.0776679 0.0166602 -0.131103 0.0797061 -0.00693177 
-0.131439 0.081287 -0.0305024 -0.130618 0.0823758 -0.0539606 -0.128715 0.082964 -0.0772334 
-0.125842 0.0830681 -0.100268 -0.122152 0.0827258 -0.123032 -0.11782 0.0819916 -0.145512 
-0.113037 0.0809315 -0.167711 -0.107993 0.0796174 -0.189645 -0.102861 0.078122 -0.211337 
-0.0977867 0.0765144 -0.232813 -0.092869 0.074856 -0.254099 -0.0881582 0.0731974 -0.275212 
-0.0836503 0.0715764 -0.296162 -0.0792892 0.0700158 -0.31695 -0.0749747 0.0685231 -0.33756 
-0.0705744 0.0670899 -0.357967 -0.0659397 0.0656921 -0.378133 -0.0609233 0.0642918 -0.398009 
-0.0553969 0.0628389 -0.41754 -0.0492669 0.0612744 -0.436665 -0.0424865 0.0595346 -0.455322 
-0.0350628 0.057556 -0.473448 -0.0270588 0.0552811 -0.490988 -0.0185887 0.0526642 -0.507894 
-0.00980923 0.0496774 -0.524127 -0.000905826 0.0463154 -0.539662 0.00792301 0.0425994 -0.554485 
0.0164824 0.0385781 -0.568596 0.0245966 0.0343275 -0.582004 0.0321216 0.0299474 -0.594729 
0.0389543 0.0255553 -0.606796 0.0450361 0.0212786 -0.61823 0.0503529 0.0172448 -0.629056 
0.0549294 0.0135716 -0.639291 0.0588211 0.0103566 -0.648943 0.0621035 0.00766942 -0.658005 
0.064861 0.00554514 -0.666457 0.0671763 0.00398166 -0.674264 0.0691222 0.0029403 -0.681377 
0.0707556 0.00235001 -0.687734 0.0721156 0.00211506 -0.693269 0.0732235 0.00212515 -0.697911 
0.0740866 0.00226723 -0.701595 0.0747027 0.00243754 -0.704261 0.0750654 0.00255279 -0.705864 
0.075169 0.00255914 -0.706377 
LINES 2 100
OFFSETS vtktypeint64
0 100 
CONNECTIVITY vtktypeint64
0 1 2 3 4 5 6 7 8 
9 10 11 12 13 14 15 16 17 
18 19 20 21 22 23 24 25 26 
27 28 29 30 31 32 33 34 35 
36 37 38 39 40 41 42 43 44 
45 46 47 48 49 50 51 52 53 
54 55 56 57 58 59 60 61 62 
63 64 65 66 67 68 69 70 71 
72 73 74 75 76 77 78 79 80 
81 82 83 84 85 86 87 88 89 
90 91 92 93 94 95 96 97 98 
99 
POINT_DATA 100
FIELD FieldData 3
_theta 1 100 double
0 0.031733259127 0.063466518254 0.095199777382 0.12693303651 0.15866629564 0.19039955476 0.22213281389 0.25386607302 
0.28559933214 0.31733259127 0.3490658504 0.38079910953 0.41253236865 0.44426562778 0.47599888691 0.50773214603 0.53946540516 
0.57119866429 0.60293192342 0.63466518254 0.66639844167 0.6981317008 0.72986495992 0.76159821905 0.79333147818 0.82506473731 
0.85679799643 0.88853125556 0.92026451469 0.95199777382 0.98373103294 1.0154642921 1.0471975512 1.0789308103 1.1106640695 
1.1423973286 1.1741305877 1.2058638468 1.237597106 1.2693303651 1.3010636242 1.3327968833 1.3645301425 1.3962634016 
1.4279966607 1.4597299198 1.491463179 1.5231964381 1.5549296972 1.5866629564 1.6183962155 1.6501294746 1.6818627337 
1.7135959929 1.745329252 1.7770625111 1.8087957702 1.8405290294 1.8722622885 1.9039955476 1.9357288068 1.9674620659 
1.999195325 2.0309285841 2.0626618433 2.0943951024 2.1261283615 2.1578616206 2.1895948798 2.2213281389 2.253061398 
2.2847946572 2.3165279163 2.3482611754 2.3799944345 2.4117276937 2.4434609528 2.4751942119 2.506927471 2.5386607302 
2.5703939893 2.6021272484 2.6338605076 2.6655937667 2.6973270258 2.7290602849 2.7607935441 2.7925268032 2.8242600623 
2.8559933214 2.8877265806 2.9194598397 2.9511930988 2.982926358 3.0146596171 3.0463928762 3.0781261353 3.1098593945 
3.1415926536 
_radius 1 100 double
5.400314267e-16 0.015041768498 0.029936540096 0.044544163254 0.058742083372 0.072431355567 0.085539738378 0.09802164503 0.10985524392 
0.12103747913 0.13157810355 0.14149385255 0.15080357121 0.15952452417 0.16766951625 0.17524415808 0.18224384031 0.18865068004 
0.19443151583 0.1995384603 0.20391325035 0.20749572708 0.21023559171 0.2121055338 0.21311322016 0.21330962769 0.21279180103 
0.21169911033 0.21020314076 0.20849225246 0.20675272387 0.20514938656 0.2038093963 0.20281235189 0.20218793736 0.20191957935 
0.20195100413 0.20219295934 0.20252917924 0.20282259689 0.20292372465 0.20268263626 0.20196447312 0.2006667052 0.19873525992 
0.19617638564 0.193061617 0.18952420365 0.18574669636 0.18194097039 0.17832360699 0.17509078745 0.17239713776 0.17034208208 
0.16896548045 0.16825206126 0.16814189272 0.1685427308 0.16934056846 0.17040718808 0.17160643733 0.17280207972 0.17386854659 
0.17470319275 0.17523698843 0.17544081148 0.17532586051 0.17493814483 0.17434807215 0.17363688205 0.17288215416 0.17214480617 
0.17145975177 0.17083164551 0.17023601248 0.16962483271 0.1689346919 0.16809522762 0.16703590821 0.16569004102 0.16399595528 
0.16189609076 0.15933498111 0.15625699155 0.15260448401 0.14831692687 0.14333121724 0.1375831489 0.13100975314 0.12355231758 
0.1151601507 0.10579532405 0.095438478415 0.084095344893 0.071803122553 0.058635512869 0.044705181628 0.030162715114 0.015191675308 
7.4458505707e-16 
_area 1 100 double
0 0.00048139216616 0.0019087789172 0.004235070871 0.0073916220172 0.01129944829 0.015878820124 0.021053359221 0.026746991828 
0.032875983825 0.039341497941 0.046028155076 0.052811031331 0.059569548305 0.066203648766 0.072646138554 0.078865262339 0.084853907463 
0.090606660453 0.096092246155 0.10123397069 0.10591077052 0.10998314099 0.11333475676 0.11591197694 0.11774634661 0.11895589334 
0.11972802439 0.12028020274 0.12078945514 0.12132526765 0.12185637972 0.12231429511 0.12264003349 0.12279702076 0.12277100111 
0.12257269607 0.1222442561 0.12185724723 0.12148126391 0.12111749424 0.12064472144 0.11984058886 0.11846384543 0.11633650772 
0.11339445419 0.10970413159 0.10545069123 0.1009037734 0.096367284788 0.092120527835 0.088361776287 0.085170137533 0.082503685628 
0.080242493284 0.078259598598 0.07648988689 0.074962872058 0.073741453024 0.07287667406 0.072442113914 0.072444878249 0.072695482715 
0.072945175983 0.073003632761 0.072751656022 0.072133156036 0.071149159641 0.069850402328 0.068324012812 0.066674999558 0.065007129425 
0.063407875154 0.06193926822 0.060633818571 0.059495471713 0.058507680774 0.057645956127 0.056884087061 0.056187612163 0.055501265185 
0.05474237276 0.05380573612 0.052576184285 0.050942337225 0.0488087341 0.046106959185 0.042806584534 0.038924955529 0.034533458811 
0.029757929758 0.024771836545 0.019782149541 0.015009239221 0.010663803107 0.0069253086049 0.0039269942753 0.0017514930994 0.00043833279934 
2.1336858401e-17 
