# vtk DataFile Version 5.1
vtk output
ASCII
DATASET POLYDATA
POINTS 100 float
0.112853 0.0656963 0.789608 0.112824 0.0659456 0.789333 0.112836 0.0665431 0.788387 
0.11287 0.067475 0.786773 0.112897 0.0687185 0.784495 0.11288 0.0702403 0.781557 
0.112775 0.0719948 0.777961 0.112534 0.0739223 0.773705 0.11211 0.0759488 0.768783 
0.111456 0.0779864 0.763183 0.11053 0.0799355 0.756894 0.109292 0.0816891 0.7499 
0.107711 0.0831379 0.742191 0.105755 0.084177 0.73376 0.1034 0.0847136 0.724611 
0.100624 0.0846741 0.714759 0.0974091 0.0840106 0.704228 0.0937395 0.0827061 0.693058 
0.0896036 0.0807774 0.681299 0.0849946 0.0782756 0.669004 0.0799113 0.0752837 0.656232 
0.0743604 0.071912 0.643037 0.0683576 0.0682906 0.629465 0.0619289 0.0645611 0.615547 
0.0551106 0.0608671 0.601301 0.0479493 0.0573443 0.586723 0.0404997 0.0541124 0.571793 
0.032822 0.0512674 0.556477 0.0249785 0.0488774 0.540727 0.0170292 0.0469803 0.524491 
0.00902805 0.0455835 0.507716 0.00101843 0.0446677 0.490353 -0.00696898 0.0441908 0.472362 
-0.0149178 0.0440947 0.453715 -0.0228255 0.0443125 0.434397 -0.0307009 0.0447747 0.414402 
-0.0385601 0.0454166 0.393735 -0.0464205 0.0461825 0.372403 -0.0542943 0.0470297 0.350415 
-0.0621816 0.0479304 0.327777 -0.0700636 0.0488712 0.304486 -0.077898 0.0498522 0.280539 
-0.0856156 0.0508838 0.255923 -0.0931202 0.0519839 0.230628 -0.100291 0.0531735 0.204648 
-0.106989 0.0544737 0.177988 -0.113062 0.0559027 0.150672 -0.11836 0.0574733 0.122747 
-0.12274 0.0591915 0.094289 -0.126082 0.0610564 0.065402 -0.128297 0.06306 0.036217 
-0.129333 0.065188 0.00688613 -0.129183 0.0674212 -0.0224248 -0.127886 0.0697361 -0.0515471 
-0.125521 0.0721061 -0.0803205 -0.122208 0.0745022 -0.108604 -0.118091 0.0768934 -0.136285 
-0.11333 0.0792467 -0.163286 -0.108092 0.081527 -0.18957 -0.102531 0.0836972 -0.215136 
-0.0967825 0.0857176 -0.240016 -0.0909524 0.0875465 -0.264266 -0.0851104 0.0891404 -0.28796 
-0.0792885 0.090455 -0.311172 -0.0734827 0.0914464 -0.333969 -0.0676582 0.0920728 -0.356402 
-0.0617578 0.0922962 -0.3785 -0.0557126 0.0920841 -0.400265 -0.0494534 0.0914115 -0.421678 
-0.0429229 0.0902619 -0.442699 -0.0360852 0.0886286 -0.46328 -0.0289343 0.0865153 -0.483372 
-0.0214985 0.0839356 -0.502933 -0.0138421 0.0809133 -0.521939 -0.00606282 0.077481 -0.540386 
0.00171397 0.0736792 -0.558298 0.00934365 0.0695548 -0.575717 0.0166728 0.0651601 -0.592702 
0.0235504 0.0605508 -0.609319 0.029839 0.0557853 -0.625628 0.0354246 0.0509229 -0.641674 
0.0402244 0.0460232 -0.657475 0.0441915 0.0411447 -0.673015 0.0473171 0.0363439 -0.688239 
0.0496294 0.0316743 -0.703056 0.0511892 0.0271852 -0.717342 0.0520837 0.022921 -0.730954 
0.0524187 0.0189199 -0.743736 0.05231 0.0152133 -0.755543 0.0518743 0.011825 -0.766247 
0.0512227 0.00877118 -0.775752 0.0504536 0.00606021 -0.784004 0.0496494 0.00369338 -0.790995 
0.0488742 0.0016658 -0.796759 0.0481742 -3.21427e-05 -0.801368 0.0475794 -0.00141303 -0.804919 
0.0471071 -0.00249051 -0.807521 0.0467651 -0.00327739 -0.809282 0.0465562 -0.00378382 -0.81029 
0.0464811 -0.00401592 -0.810603 
LINES 2 100
OFFSETS vtktypeint64
0 100 
CONNECTIVITY vtktypeint64
0 1 2 3 4 5 6 7 8 
9 10 11 12 13 14 15 16 17 
18 19 20 21 22 23 24 25 26 
27 28 29 30 31 32 33 34 35 
36 37 38 39 40 41 42 43 44 
45 46 47 48 49 50 51 52 53 
54 55 56 57 58 59 60 61 62 
63 64 65 66 67 68 69 70 71 
72 73 74 75 76 77 78 79 80 
81 82 83 84 85 86 87 88 89 
90 91 92 93 94 95 96 97 98 
99 
POINT_DATA 100
FIELD FieldData 3
_theta 1 100 double
0 0.031733259127 0.063466518254 0.095199777382 0.12693303651 0.15866629564 0.19039955476 0.22213281389 0.25386607302 
0.28559933214 0.31733259127 0.3490658504 0.38079910953 0.41253236865 0.44426562778 0.47599888691 0.50773214603 0.53946540516 
0.57119866429 0.60293192342 0.63466518254 0.66639844167 0.6981317008 0.72986495992 0.76159821905 0.79333147818 0.82506473731 
0.85679799643 0.88853125556 0.92026451469 0.95199777382 0.98373103294 1.0154642921 1.0471975512 1.0789308103 1.1106640695 
1.1423973286 1.1741305877 1.2058638468 1.237597106 1.2693303651 1.3010636242 1.3327968833 1.3645301425 1.3962634016 
1.4279966607 1.4597299198 1.491463179 1.5231964381 1.5549296972 1.5866629564 1.6183962155 1.6501294746 1.6818627337 
1.7135959929 1.745329252 1.7770625111 1.8087957702 1.8405290294 1.8722622885 1.9039955476 1.9357288068 1.9674620659 
1.999195325 2.0309285841 2.0626618433 2.0943951024 2.1261283615 2.1578616206 2.1895948798 2.2213281389 2.253061398 
2.2847946572 2.3165279163 2.3482611754 2.3799944345 2.4117276937 2.4434609528 2.4751942119 2.506927471 2.5386607302 
2.5703939893 2.6021272484 2.6338605076 2.6655937667 2.6973270258 2.7290602849 2.7607935441 2.7925268032 2.8242600623 
2.8559933214 2.8877265806 2.9194598397 2.9511930988 2.982926358 3.0146596171 3.0463928762 3.0781261353 3.1098593945 
3.1415926536 
_radius 1 100 double
1.1274368112e-15 0.015575750079 0.031067316717 0.046391312178 0.061471774667 0.076241126218 0.090638743012 0.10460782259 0.1180918793 
0.13103242159 0.14336906073 0.15504253875 0.16600012192 0.17620174027 0.18562460988 0.1942643978 0.20213235685 0.20924954793 
0.21564033614 0.22132736143 0.22632936783 0.23066216225 0.23434202873 0.23739036173 0.23983809362 0.2417285807 0.24311790309 
0.24407201993 0.24466090633 0.24495059041 0.24499468196 0.2448272659 0.24445876878 0.24387568221 0.24304413109 0.24191652832 
0.24044014547 0.23856636287 0.23625953742 0.23350469335 0.23031344986 0.22672766609 0.22282025395 0.21869268694 0.21446917283 
0.21028830191 0.2062937898 0.20262597364 0.19941477924 0.19677372417 0.19479413707 0.19353931256 0.19303915577 0.19328631801 
0.1942346264 0.19580003836 0.19786397705 0.20027905347 0.20287752596 0.20548269483 0.20792251235 0.21004356369 0.21172306892 
0.21287693698 0.21346279032 0.21347780646 0.21295203902 0.2119386297 0.21050294113 0.20871283494 0.20663180372 0.20431551111 
0.20181102907 0.19915731963 0.19638556954 0.19351864473 0.19056973628 0.18754081021 0.18442155186 0.18118918514 0.17780911351 
0.17423601584 0.17041489176 0.16628156948 0.16176244956 0.15677383736 0.15122189856 0.14500457321 0.13801636469 0.13015593852 
0.12133547112 0.1114901861 0.10058662975 0.088628736457 0.075661280241 0.061770677554 0.047083256158 0.031761128337 0.015995830848 
1.5539454957e-15 
_area 1 100 double
0 0.00055772986869 0.0022050725051 0.0048706408457 0.0084543592101 0.01285061321 0.017971437273 0.023762600778 0.030205496776 
0.0372997858 0.045028778214 0.053321809974 0.062034697265 0.070959272282 0.079855569818 0.088492217812 0.096681719587 0.10429910566 
0.11127604963 0.11757950124 0.12320099114 0.1281647106 0.13253740471 0.13642614272 0.13995898683 0.1432507914 0.14637050648 
0.14933078948 0.15210036654 0.1546221409 0.15682515786 0.1586300334 0.15995249228 0.16070908392 0.16082615603 0.1602501372 
0.1589559147 0.15695122031 0.15427755625 0.15101008404 0.14725786078 0.1431623738 0.13888979252 0.13461286543 0.13048265913 
0.12659935921 0.12299887689 0.1196645805 0.11655557025 0.11363513496 0.1108889373 0.10833172585 0.10600811603 0.10399963323 
0.10246568995 0.10174930358 0.10201656572 0.10305206385 0.10473175627 0.10675604463 0.10870211134 0.11017962692 0.11089162563 
0.11065226089 0.10938000483 0.10709770903 0.10394121966 0.10016149019 0.096091396453 0.092029300206 0.088073633143 0.084222410559 
0.080498241577 0.07696212016 0.073699582986 0.070805633546 0.0683725581 0.066460935251 0.065101905335 0.064375057862 0.064184472788 
0.063989349131 0.063564926174 0.062728210301 0.061331506854 0.059268649623 0.056476262944 0.052932640457 0.048658528566 0.043721360712 
0.038239956651 0.032384672703 0.026370151859 0.020441523412 0.014857149009 0.0098710879828 0.005717126742 0.0025947519372 0.00065692181325 
2.2188038786e-17 
