# vtk DataFile Version 5.1
vtk output
ASCII
DATASET POLYDATA
POINTS 100 float
0.119275 0.0698438 0.791846 0.11922 0.0698393 0.791583 0.119089 0.0696463 0.79063 
0.118881 0.0693023 0.788987 0.118597 0.0688653 0.786655 0.118236 0.0684054 0.783634 
0.117795 0.067995 0.779923 0.117273 0.067698 0.775521 0.116664 0.0675603 0.770426 
0.115961 0.067603 0.764635 0.11515 0.0678185 0.758148 0.114211 0.0681703 0.750967 
0.113115 0.0685973 0.743098 0.111827 0.0690205 0.734555 0.110299 0.069353 0.725362 
0.108478 0.0695101 0.715551 0.106305 0.0694199 0.705165 0.103719 0.0690317 0.694257 
0.100662 0.0683214 0.682884 0.097083 0.0672941 0.671107 0.0929467 0.065982 0.658985 
0.0882353 0.0644398 0.646572 0.0829535 0.0627362 0.633908 0.0771313 0.0609452 0.621022 
0.070823 0.0591364 0.607922 0.0641054 0.0573662 0.5946 0.0570727 0.055672 0.581031 
0.0498298 0.0540691 0.567176 0.0424838 0.0525517 0.552985 0.0351351 0.0510962 0.538405 
0.0278684 0.0496691 0.523388 0.0207458 0.0482348 0.50789 0.0138007 0.0467657 0.491884 
0.0070357 0.04525 0.475357 0.000423279 0.0436986 0.458313 -0.00609059 0.042148 0.440774 
-0.0125794 0.04066 0.422773 -0.0191271 0.0393176 0.404349 -0.0258175 0.0382176 0.385543 
-0.0327234 0.0374606 0.366388 -0.0398971 0.03714 0.346905 -0.0473615 0.0373312 0.327095 
-0.0551053 0.0380824 0.30694 -0.0630803 0.039408 0.286397 -0.0712029 0.041286 0.265406 
-0.0793583 0.0436594 0.24389 -0.0874074 0.0464409 0.221767 -0.0951956 0.0495215 0.198954 
-0.102563 0.0527814 0.175379 -0.109354 0.0561012 0.15099 -0.115426 0.0593729 0.125759 
-0.120656 0.0625091 0.0996918 -0.124947 0.0654497 0.0728274 -0.128231 0.0681641 0.0452385 
-0.130465 0.0706501 0.017028 -0.131635 0.0729297 -0.0116766 -0.131751 0.0750412 -0.0407309 
-0.130843 0.0770299 -0.0699825 -0.128954 0.0789384 -0.0992797 -0.126143 0.0807973 -0.12848 
-0.122477 0.0826177 -0.157455 -0.118027 0.0843867 -0.186099 -0.112871 0.0860659 -0.214326 
-0.107091 0.0875933 -0.242075 -0.100768 0.0888881 -0.269304 -0.0939855 0.0898577 -0.295989 
-0.086824 0.0904064 -0.322121 -0.0793605 0.0904442 -0.347697 -0.0716642 0.0898947 -0.372716 
-0.0637939 0.0887019 -0.397181 -0.0557943 0.0868344 -0.42109 -0.0476941 0.0842877 -0.444434 
-0.0395044 0.0810829 -0.467203 -0.0312191 0.0772645 -0.489377 -0.022818 0.0728961 -0.510935 
-0.0142706 0.0680544 -0.531853 -0.00554327 0.0628248 -0.552103 0.00339311 0.0572953 -0.571658 
0.012555 0.0515531 -0.590489 0.0219381 0.0456815 -0.608568 0.0315109 0.0397581 -0.625863 
0.0412104 0.0338547 -0.642345 0.0509416 0.028037 -0.657981 0.06058 0.0223659 -0.672738 
0.069978 0.0168976 -0.686581 0.0789745 0.0116845 -0.699478 0.0874069 0.00677422 -0.711399 
0.0951243 0.00220945 -0.722318 0.102001 -0.001974 -0.732219 0.107946 -0.0057487 -0.741094 
0.112914 -0.00909717 -0.748947 0.116908 -0.012013 -0.755798 0.119978 -0.0145012 -0.761674 
0.122217 -0.0165775 -0.766616 0.123751 -0.0182663 -0.770673 0.124725 -0.0195981 -0.773896 
0.125286 -0.0206057 -0.776337 0.125573 -0.0213204 -0.778042 0.125693 -0.0217678 -0.779046 
0.125718 -0.0219652 -0.779374 
LINES 2 100
OFFSETS vtktypeint64
0 100 
CONNECTIVITY vtktypeint64
0 1 2 3 4 5 6 7 8 
9 10 11 12 13 14 15 16 17 
18 19 20 21 22 23 24 25 26 
27 28 29 30 31 32 33 34 35 
36 37 38 39 40 41 42 43 44 
45 46 47 48 49 50 51 52 53 
54 55 56 57 58 59 60 61 62 
63 64 65 66 67 68 69 70 71 
72 73 74 75 76 77 78 79 80 
81 82 83 84 85 86 87 88 89 
90 91 92 93 94 95 96 97 98 
99 
POINT_DATA 100
FIELD FieldData 3
_theta 1 100 double
0 0.031733259127 0.063466518254 0.095199777382 0.12693303651 0.15866629564 0.19039955476 0.22213281389 0.25386607302 
0.28559933214 0.31733259127 0.3490658504 0.38079910953 0.41253236865 0.44426562778 0.47599888691 0.50773214603 0.53946540516 
0.57119866429 0.60293192342 0.63466518254 0.66639844167 0.6981317008 0.72986495992 0.76159821905 0.79333147818 0.82506473731 
0.85679799643 0.88853125556 0.92026451469 0.95199777382 0.98373103294 1.0154642921 1.0471975512 1.0789308103 1.1106640695 
1.1423973286 1.1741305877 1.2058638468 1.237597106 1.2693303651 1.3010636242 1.3327968833 1.3645301425 1.3962634016 
1.4279966607 1.4597299198 1.491463179 1.5231964381 1.5549296972 1.5866629564 1.6183962155 1.6501294746 1.6818627337 
1.7135959929 1.745329252 1.7770625111 1.8087957702 1.8405290294 1.8722622885 1.9039955476 1.9357288068 1.9674620659 
1.999195325 2.0309285841 2.0626618433 2.0943951024 2.1261283615 2.1578616206 2.1895948798 2.2213281389 2.253061398 
2.2847946572 2.3165279163 2.3482611754 2.3799944345 2.4117276937 2.4434609528 2.4751942119 2.506927471 2.5386607302 
2.5703939893 2.6021272484 2.6338605076 2.6655937667 2.6973270258 2.7290602849 2.7607935441 2.7925268032 2.8242600623 
2.8559933214 2.8877265806 2.9194598397 2.9511930988 2.982926358 3.0146596171 3.0463928762 3.0781261353 3.1098593945 
3.1415926536 
_radius 1 100 double
8.947676111e-16 0.017307249071 0.034363251923 0.050931343205 0.066812527026 0.081860091369 0.095989126528 0.10917972286 0.12147317205 
0.13296126415 0.14376971062 0.15403770193 0.16389643415 0.1734498785 0.18276087902 0.1918446954 0.20067052325 0.20916987984 
0.21724963363 0.22480708344 0.23174468061 0.23798250512 0.24346730471 0.24817765117 0.25212538006 0.25535380838 0.25793324126 
0.25995411322 0.26151798255 0.26272669817 0.26367044967 0.26441598524 0.26499678747 0.2654071405 0.2656016111 0.26550053908 
0.26500095004 0.26399123931 0.26236733649 0.26004798057 0.25698713957 0.25318228575 0.2486779448 0.24356450417 0.23797260901 
0.23206359449 0.22601640239 0.22001156172 0.21421344925 0.20875336473 0.20371742094 0.1991435114 0.19502953015 0.19135100803 
0.18808239577 0.18521440421 0.18276095072 0.18075299232 0.17922174112 0.17817856355 0.17760053678 0.17742743407 0.17756971317 
0.1779223161 0.17837829082 0.17883842212 0.1792161871 0.17944006734 0.17945608272 0.17923146957 0.17875776865 0.17805121653 
0.17714997808 0.17610914695 0.17499461439 0.17387630612 0.17282056877 0.17188113584 0.17108842486 0.17043790366 0.16987949234 
0.16931080368 0.1685769435 0.1674784138 0.16578668575 0.16326499084 0.15969064069 0.15487512554 0.14867916277 0.14102124782 
0.13187960846 0.1212885017 0.10933043701 0.096126179749 0.08182433841 0.066592019922 0.050607507135 0.034055265901 0.017122986861 
4.6652138195e-16 
_area 1 100 double
0 0.00080231641214 0.0031516362556 0.0068844039316 0.011757598115 0.01748784423 0.023796248541 0.030450538549 0.037296055124 
0.04426881856 0.051387308115 0.058724557419 0.066367912578 0.074378230384 0.082760397325 0.091451875131 0.1003287214 0.10922362466 
0.1179495426 0.12632407477 0.13419132248 0.14143845643 0.14800427752 0.15387819943 0.15909088192 0.16370118927 0.16778548716 
0.17143212937 0.17473841475 0.17780475415 0.18072339023 0.1835637248 0.18635902227 0.18909741905 0.19171249536 0.19406224559 
0.19591145041 0.1969639524 0.19693116221 0.19558904871 0.19281570552 0.1886131373 0.18311081971 0.17654887719 0.16924422459 
0.16154842061 0.15380619586 0.14631788384 0.13930536506 0.13288829227 0.1270817748 0.12180972782 0.11693295384 0.11230704333 
0.10783193222 0.10346485025 0.099214357444 0.095133381432 0.091326389393 0.087992354166 0.085446564599 0.083761675566 0.082619896507 
0.081749907095 0.081068051596 0.080488014008 0.079936754969 0.079335920936 0.078577464291 0.07753892142 0.076134027538 0.074358701024 
0.072295249329 0.070095181089 0.067961303845 0.066133706951 0.064861308416 0.064284487652 0.064343697968 0.06491769218 0.06586728672 
0.066987135576 0.068001319268 0.068594657009 0.068450322078 0.067287846242 0.064901305594 0.061193103934 0.056196424437 0.05008043841 
0.043135436479 0.035739162781 0.02830983841 0.021254561023 0.014923007011 0.0095752964284 0.0053699438653 0.0023737576672 0.00059061248123 
5.2041704279e-18 
