# vtk DataFile Version 5.1
vtk output
ASCII
DATASET POLYDATA
POINTS 100 float
0.116755 0.058964 0.770515 0.116948 0.0591029 0.77041 0.117606 0.0593607 0.769953 
0.118655 0.0597502 0.769137 0.119982 0.0602892 0.767947 0.121442 0.0609954 0.766362 
0.122876 0.0618797 0.764344 0.124125 0.0629398 0.761846 0.125044 0.0641556 0.758805 
0.125513 0.0654858 0.755146 0.125447 0.0668684 0.750788 0.124798 0.0682235 0.745652 
0.123554 0.0694599 0.739667 0.121734 0.070483 0.73278 0.119377 0.0712049 0.724966 
0.116535 0.0715536 0.716235 0.113256 0.0714821 0.706631 0.109582 0.0709736 0.696239 
0.105535 0.0700448 0.685171 0.101117 0.0687445 0.673563 0.0963106 0.0671484 0.661563 
0.0910852 0.0653512 0.64931 0.0854016 0.0634559 0.636928 0.0792244 0.061562 0.62451 
0.0725318 0.0597544 0.612105 0.0653241 0.0580943 0.599721 0.0576306 0.0566122 0.58732 
0.0495121 0.0553059 0.574828 0.041059 0.054142 0.562144 0.0323849 0.0530619 0.549152 
0.0236167 0.0519909 0.535741 0.0148819 0.0508493 0.521816 0.00629466 0.049565 0.50731 
-0.00205728 0.0480846 0.492191 -0.0101232 0.0463829 0.476463 -0.0178961 0.0444692 0.460166 
-0.0254143 0.0423885 0.443357 -0.0327575 0.04022 0.426105 -0.0400375 0.0380701 0.408472 
-0.0473848 0.0360629 0.390497 -0.0549314 0.0343284 0.372185 -0.062793 0.03299 0.353498 
-0.071052 0.0321528 0.334354 -0.0797427 0.0318941 0.314633 -0.0888417 0.0322565 0.29419 
-0.098263 0.0332455 0.272867 -0.107861 0.0348307 0.250521 -0.117437 0.0369505 0.227041 
-0.126754 0.0395202 0.202365 -0.135556 0.0424414 0.176499 -0.143581 0.0456124 0.149525 
-0.150591 0.0489377 0.121595 -0.156382 0.0523361 0.0929265 -0.160805 0.0557462 0.0637865 
-0.163772 0.0591284 0.0344674 -0.165262 0.0624647 0.00526266 -0.165321 0.0657547 -0.0235588 
-0.164052 0.0690108 -0.0517756 -0.16161 0.0722506 -0.0792312 -0.158177 0.0754905 -0.105844 
-0.153957 0.0787389 -0.131607 -0.149153 0.0819917 -0.156584 -0.143955 0.0852287 -0.180892 
-0.138527 0.0884132 -0.204679 -0.133002 0.0914935 -0.228108 -0.127476 0.094406 -0.251325 
-0.122007 0.0970797 -0.274444 -0.116622 0.0994415 -0.297533 -0.111323 0.101422 -0.320601 
-0.106092 0.102958 -0.343606 -0.100904 0.104001 -0.366452 -0.095734 0.104515 -0.389011 
-0.090564 0.104479 -0.411135 -0.0853881 0.103889 -0.432677 -0.0802153 0.102755 -0.453506 
-0.0750709 0.101103 -0.473521 -0.0699938 0.0989682 -0.49266 -0.065034 0.0963984 -0.510901 
-0.0602477 0.0934508 -0.528259 -0.0556921 0.0901908 -0.544773 -0.0514211 0.0866914 -0.560499 
-0.0474805 0.0830321 -0.575487 -0.0439053 0.0792971 -0.589774 -0.040717 0.0755738 -0.603371 
-0.0379237 0.0719498 -0.616258 -0.03552 0.0685094 -0.628382 -0.033489 0.06533 -0.639666 
-0.0318041 0.0624772 -0.650016 -0.0304321 0.0600011 -0.659338 -0.0293358 0.0579329 -0.667554 
-0.0284764 0.0562817 -0.674611 -0.0278161 0.0550345 -0.680499 -0.0273194 0.0541569 -0.68525 
-0.0269548 0.053596 -0.688944 -0.026695 0.0532852 -0.691696 -0.0265176 0.0531506 -0.693649 
-0.0264046 0.0531179 -0.694955 -0.0263423 0.0531201 -0.695758 -0.0263211 0.0531037 -0.696176 
-0.0263346 0.0530345 -0.696288 
LINES 2 100
OFFSETS vtktypeint64
0 100 
CONNECTIVITY vtktypeint64
0 1 2 3 4 5 6 7 8 
9 10 11 12 13 14 15 16 17 
18 19 20 21 22 23 24 25 26 
27 28 29 30 31 32 33 34 35 
36 37 38 39 40 41 42 43 44 
45 46 47 48 49 50 51 52 53 
54 55 56 57 58 59 60 61 62 
63 64 65 66 67 68 69 70 71 
72 73 74 75 76 77 78 79 80 
81 82 83 84 85 86 87 88 89 
90 91 92 93 94 95 96 97 98 
99 
POINT_DATA 100
FIELD FieldData 3
_theta 1 100 double
0 0.031733259127 0.063466518254 0.095199777382 0.12693303651 0.15866629564 0.19039955476 0.22213281389 0.25386607302 
0.28559933214 0.31733259127 0.3490658504 0.38079910953 0.41253236865 0.44426562778 0.47599888691 0.50773214603 0.53946540516 
0.57119866429 0.60293192342 0.63466518254 0.66639844167 0.6981317008 0.72986495992 0.76159821905 0.79333147818 0.82506473731 
0.85679799643 0.88853125556 0.92026451469 0.95199777382 0.98373103294 1.0154642921 1.0471975512 1.0789308103 1.1106640695 
1.1423973286 1.1741305877 1.2058638468 1.237597106 1.2693303651 1.3010636242 1.3327968833 1.3645301425 1.3962634016 
1.4279966607 1.4597299198 1.491463179 1.5231964381 1.5549296972 1.5866629564 1.6183962155 1.6501294746 1.6818627337 
1.7135959929 1.745329252 1.7770625111 1.8087957702 1.8405290294 1.8722622885 1.9039955476 1.9357288068 1.9674620659 
1.999195325 2.0309285841 2.0626618433 2.0943951024 2.1261283615 2.1578616206 2.1895948798 2.2213281389 2.253061398 
2.2847946572 2.3165279163 2.3482611754 2.3799944345 2.4117276937 2.4434609528 2.4751942119 2.506927471 2.5386607302 
2.5703939893 2.6021272484 2.6338605076 2.6655937667 2.6973270258 2.7290602849 2.7607935441 2.7925268032 2.8242600623 
2.8559933214 2.8877265806 2.9194598397 2.9511930988 2.982926358 3.0146596171 3.0463928762 3.0781261353 3.1098593945 
3.1415926536 
_radius 1 100 double
4.9534177586e-16 0.016309683436 0.032514378731 0.048508066763 0.06418735989 0.079452159295 0.094206027284 0.1083568211 0.12181824686 
0.13451283492 0.14637644013 0.15736382655 0.16745433926 0.17665624629 0.18500821185 0.1925766696 0.1994486339 0.20572058333 
0.21148516398 0.21681821076 0.22176868797 0.2263535573 0.23055848402 0.23434402698 0.23765587879 0.2404370861 0.2426400755 
0.24423664707 0.24522466122 0.24563071928 0.24550861003 0.24493368886 0.24399377106 0.24277759663 0.24136237315 0.23980216126 
0.23811884728 0.23629724323 0.23428562605 0.23200270242 0.22935116043 0.2262364303 0.22258759201 0.2183765213 0.21363175984 
0.20844484094 0.20296827681 0.19740563348 0.19199482007 0.18698603744 0.18261643084 0.17908493271 0.17653233326 0.17503115518 
0.17458618216 0.17514154103 0.17658811012 0.17876761417 0.18147505673 0.18446520633 0.18746851077 0.19021687451 0.19247387437 
0.19406164122 0.19487857658 0.19490571136 0.19420239929 0.19289348989 0.19115053734 0.18916952208 0.18714734674 0.18525920593 
0.18363890213 0.18236421939 0.18144928721 0.18084511211 0.1804480564 0.18011444385 0.17967834293 0.17896930495 0.17782732451 
0.17611321489 0.17371366755 0.17054133122 0.16653116606 0.16163493431 0.15581582168 0.14904480422 0.14129962255 0.13256636281 
0.12284293707 0.11214335837 0.10050164054 0.087974354312 0.074641247867 0.060603802003 0.045982050009 0.030910349722 0.015532942985 
4.8251746719e-16 
_area 1 100 double
0 0.00053591390093 0.0021473961226 0.0048413292215 0.0086164950222 0.013449575411 0.01928247253 0.026013577879 0.033494405211 
0.041532527468 0.049901574349 0.058358556219 0.066667686478 0.074628164566 0.082101263727 0.089030150619 0.095445326779 0.10145082208 
0.10719184581 0.11281198067 0.11841337552 0.12403282497 0.12963969848 0.13515254466 0.14046510442 0.14547144717 0.1500826054 
0.15423184354 0.1578713337 0.16096682103 0.16349601951 0.16545129224 0.16684174895 0.16768932043 0.16801868418 0.16784748026 
0.16718160336 0.16604195567 0.16454908657 0.16243502827 0.15945952613 0.1554670467 0.15039469703 0.14432726067 0.13748237274 
0.13034093322 0.1232020076 0.11631095322 0.10994570805 0.10436636502 0.099749433528 0.096148156443 0.093491321136 0.091632520853 
0.090406641251 0.089624255075 0.089107929835 0.088754623863 0.088527051742 0.088430938934 0.08843665157 0.08842324574 0.088216935407 
0.087680739278 0.086728161308 0.085323814614 0.08348205733 0.081264864782 0.078777726796 0.076160463687 0.073571538648 0.071168710544 
0.069091543285 0.067448452679 0.06630699561 0.065687806651 0.065566439847 0.065886479025 0.066577618968 0.067534260724 0.068503588439 
0.06916234394 0.069297361973 0.068781463387 0.067516801825 0.065410925436 0.062381439901 0.058381085116 0.053428688728 0.047630612513 
0.041184059496 0.034361804948 0.02748318317 0.020878343011 0.014853116767 0.0096611543875 0.0054884133611 0.0024524011357 0.00061459995647 
4.3498411472e-17 
