# vtk DataFile Version 5.1
vtk output
ASCII
DATASET POLYDATA
POINTS 100 float
0.162657 0.0546995 0.709455 0.162709 0.0550491 0.709265 0.162933 0.0559277 0.708587 
0.163268 0.057261 0.707426 0.163619 0.0589345 0.705784 0.163875 0.060806 0.703661 
0.163921 0.0627213 0.701048 0.163656 0.0645299 0.697931 0.163004 0.066101 0.694283 
0.161926 0.0673362 0.690066 0.160419 0.0681782 0.685232 0.158515 0.0686143 0.679725 
0.156272 0.068675 0.673485 0.153761 0.0684269 0.666454 0.151046 0.0679622 0.658582 
0.148173 0.0673852 0.649834 0.145152 0.0667978 0.640193 0.14195 0.0662862 0.629668 
0.138491 0.06591 0.618293 0.134657 0.0656953 0.606128 0.130302 0.065632 0.593256 
0.125269 0.0656762 0.579782 0.11941 0.0657574 0.56582 0.112607 0.0657882 0.551493 
0.104788 0.0656768 0.536918 0.0959456 0.0653398 0.522204 0.0861379 0.0647139 0.507442 
0.0754889 0.0637645 0.492702 0.0641777 0.0624915 0.47803 0.0524204 0.0609303 0.463445 
0.0404479 0.0591483 0.448942 0.0284807 0.0572384 0.434496 0.016705 0.0553091 0.420065 
0.00525348 0.0534732 0.405595 -0.00580805 0.0518364 0.391024 -0.0164843 0.0504876 0.37629 
-0.0268451 0.0494911 0.361331 -0.0370112 0.0488827 0.346086 -0.0471329 0.0486696 0.330502 
-0.0573633 0.0488328 0.314528 -0.0678316 0.049334 0.298115 -0.0786173 0.0501232 0.281217 
-0.0897304 0.0511476 0.263787 -0.1011 0.05236 0.24578 -0.112571 0.0537254 0.227149 
-0.123913 0.055225 0.207849 -0.134836 0.0568573 0.187838 -0.145017 0.0586355 0.167083 
-0.154123 0.0605827 0.145562 -0.161848 0.0627249 0.123268 -0.167933 0.0650825 0.100216 
-0.172194 0.0676627 0.0764416 -0.174533 0.0704529 0.0520044 -0.174944 0.0734164 0.0269879 
-0.17351 0.0764915 0.00149661 -0.170389 0.079594 -0.0243485 -0.165798 0.0826221 -0.0504154 
-0.15999 0.085465 -0.0765678 -0.153228 0.0880126 -0.102672 -0.145765 0.0901654 -0.128606 
-0.137826 0.0918449 -0.154261 -0.129591 0.0930002 -0.179551 -0.121196 0.0936134 -0.204411 
-0.112725 0.0937006 -0.228801 -0.104221 0.0933092 -0.252702 -0.0956941 0.092512 -0.276113 
-0.0871295 0.0913982 -0.299045 -0.0785032 0.0900629 -0.321517 -0.06979 0.0885955 -0.343547 
-0.0609709 0.0870695 -0.365149 -0.0520373 0.0855334 -0.386328 -0.0429912 0.0840056 -0.407073 
-0.0338437 0.0824718 -0.427359 -0.0246109 0.0808872 -0.447149 -0.0153103 0.0791819 -0.46639 
-0.0059574 0.0772697 -0.485023 0.00343486 0.0750586 -0.502984 0.0128551 0.072463 -0.52021 
0.0222895 0.0694149 -0.536645 0.031716 0.0658738 -0.552242 0.0410978 0.0618339 -0.566969 
0.0503775 0.0573278 -0.580808 0.0594728 0.0524264 -0.59376 0.0682761 0.0472347 -0.605838 
0.0766572 0.0418849 -0.61707 0.0844711 0.0365253 -0.627489 0.0915689 0.0313092 -0.637137 
0.0978125 0.0263823 -0.646054 0.103089 0.0218713 -0.654275 0.107325 0.0178744 -0.661828 
0.1105 0.0144548 -0.668731 0.112648 0.011637 -0.67499 0.113866 0.00940841 -0.680601 
0.1143 0.00772272 -0.685546 0.114141 0.00650796 -0.689801 0.113601 0.00567609 -0.693339 
0.112897 0.00513419 -0.696126 0.112226 0.00479572 -0.698136 0.111747 0.00459079 -0.699345 
0.111562 0.00447434 -0.699737 
LINES 2 100
OFFSETS vtktypeint64
0 100 
CONNECTIVITY vtktypeint64
0 1 2 3 4 5 6 7 8 
9 10 11 12 13 14 15 16 17 
18 19 20 21 22 23 24 25 26 
27 28 29 30 31 32 33 34 35 
36 37 38 39 40 41 42 43 44 
45 46 47 48 49 50 51 52 53 
54 55 56 57 58 59 60 61 62 
63 64 65 66 67 68 69 70 71 
72 73 74 75 76 77 78 79 80 
81 82 83 84 85 86 87 88 89 
90 91 92 93 94 95 96 97 98 
99 
POINT_DATA 100
FIELD FieldData 3
_theta 1 100 double
0 0.031733259127 0.063466518254 0.095199777382 0.12693303651 0.15866629564 0.19039955476 0.22213281389 0.25386607302 
0.28559933214 0.31733259127 0.3490658504 0.38079910953 0.41253236865 0.44426562778 0.47599888691 0.50773214603 0.53946540516 
0.57119866429 0.60293192342 0.63466518254 0.66639844167 0.6981317008 0.72986495992 0.76159821905 0.79333147818 0.82506473731 
0.85679799643 0.88853125556 0.92026451469 0.95199777382 0.98373103294 1.0154642921 1.0471975512 1.0789308103 1.1106640695 
1.1423973286 1.1741305877 1.2058638468 1.237597106 1.2693303651 1.3010636242 1.3327968833 1.3645301425 1.3962634016 
1.4279966607 1.4597299198 1.491463179 1.5231964381 1.5549296972 1.5866629564 1.6183962155 1.6501294746 1.6818627337 
1.7135959929 1.745329252 1.7770625111 1.8087957702 1.8405290294 1.8722622885 1.9039955476 1.9357288068 1.9674620659 
1.999195325 2.0309285841 2.0626618433 2.0943951024 2.1261283615 2.1578616206 2.1895948798 2.2213281389 2.253061398 
2.2847946572 2.3165279163 2.3482611754 2.3799944345 2.4117276937 2.4434609528 2.4751942119 2.506927471 2.5386607302 
2.5703939893 2.6021272484 2.6338605076 2.6655937667 2.6973270258 2.7290602849 2.7607935441 2.7925268032 2.8242600623 
2.8559933214 2.8877265806 2.9194598397 2.9511930988 2.982926358 3.0146596171 3.0463928762 3.0781261353 3.1098593945 
3.1415926536 
_radius 1 100 double
1.3804213977e-15 0.013214887227 0.026362741865 0.039376830409 0.052197296111 0.064771294495 0.077050106895 0.088983943219 0.10051616459 
0.11157913169 0.12209341784 0.13197083997 0.14112037435 0.1494553455 0.15690057223 0.16339897541 0.16891775906 0.17345427018 
0.17704118012 0.17975009587 0.18169236986 0.18301586953 0.18389687914 0.1845271631 0.18509742297 0.18577963131 0.18671148296 
0.18798585725 0.18964656112 0.1916894289 0.19406637529 0.19669010347 0.19943860481 0.20216025066 0.20468110539 0.20681572062 
0.20838147859 0.20921521686 0.20918992358 0.20822895685 0.20631548517 0.20349553405 0.19987401244 0.19560422891 0.19087250788 
0.18588035513 0.18082696747 0.17589459684 0.17123843549 0.16698160232 0.16321483369 0.15999969949 0.15737344127 0.15535306148 
0.15393683228 0.15310327266 0.1528097997 0.15299404351 0.15357943489 0.15448365068 0.15562610646 0.15693133708 0.15832801103 
0.15974570594 0.16111232568 0.16235465422 0.16340326658 0.16420087914 0.16471114213 0.16492435825 0.16485799525 0.16455197529 
0.16406032017 0.16344136449 0.16274853878 0.16202298474 0.16128835612 0.16054742916 0.15977983084 0.15894034558 0.15795776034 
0.15673481617 0.15515026419 0.15306402464 0.15032591031 0.14678742539 0.14231512975 0.13680338991 0.13018431057 0.12243325712 
0.11356937633 0.10365153741 0.092770866611 0.081041418825 0.068590545159 0.055550281541 0.04205071639 0.028215882757 0.014162311443 
5.48532482e-16 
_area 1 100 double
0 0.00041646361717 0.0016513713122 0.0036635560393 0.0063912764885 0.0097602337686 0.013691159233 0.01810515325 0.022926138065 
0.028080856183 0.033496959151 0.039099202573 0.044804067292 0.050514388045 0.056116273918 0.061481191061 0.066476668006 0.070985890652 
0.074930135456 0.078285584191 0.081089137431 0.083432096231 0.085443761161 0.087269568988 0.089050222713 0.090907607186 0.092939360869 
0.095219120664 0.09779711227 0.10069791262 0.1039178443 0.10742702451 0.11116375281 0.11498277917 0.11863386605 0.12184350553 
0.12436806628 0.12600583729 0.12659925841 0.12603793157 0.12427381046 0.12134918458 0.11741802253 0.11273753089 0.10762339487 
0.10238432299 0.097268825685 0.092449448607 0.088034179414 0.084080532957 0.080599615721 0.077533998412 0.074765945363 0.072228001748 
0.069988626883 0.068213086449 0.066956563306 0.066083656357 0.065433072779 0.064884676347 0.064365440142 0.063850950832 0.063341570631 
0.062831571624 0.062299721403 0.061708403869 0.061003573677 0.060127116671 0.059041903339 0.057753620056 0.056317678212 0.054827609745 
0.053387488655 0.052081898035 0.050964898043 0.050070440861 0.049425910423 0.049057516447 0.048984324675 0.049202245983 0.049663855628 
0.050260004568 0.050812826894 0.051091368296 0.050848961348 0.049868300665 0.047999867022 0.045186317838 0.041470790979 0.036989869256 
0.031954022465 0.026620073204 0.021261102609 0.016138890254 0.011482674901 0.0074762822814 0.004253995333 0.0019041094004 0.00047782358302 
4.2825985813e-17 
