# vtk DataFile Version 5.1
vtk output
ASCII
DATASET POLYDATA
POINTS 100 float
0.094947 0.0601124 0.704455 0.095059 0.0602012 0.704551 0.0954539 0.0603113 0.704674 
0.0960927 0.0604458 0.70476 0.096914 0.0606096 0.70471 0.0978409 0.0608081 0.704394 
0.0987883 0.0610452 0.703659 0.0996711 0.0613224 0.702343 0.100411 0.0616366 0.700281 
0.100942 0.0619793 0.697322 0.101213 0.0623361 0.693337 0.101187 0.062687 0.688231 
0.100839 0.0630068 0.68195 0.100153 0.063267 0.674486 0.0991123 0.063438 0.665878 
0.0976965 0.0634907 0.656213 0.0958756 0.0633997 0.645613 0.0936068 0.0631453 0.634232 
0.0908351 0.0627152 0.62224 0.0874954 0.0621057 0.60981 0.0835189 0.0613226 0.597103 
0.0788406 0.0603804 0.584252 0.0734088 0.0593016 0.571357 0.0671947 0.0581148 0.558471 
0.0601993 0.0568527 0.545599 0.0524597 0.0555495 0.5327 0.04405 0.0542386 0.519692 
0.0350791 0.0529508 0.506462 0.0256843 0.0517122 0.492878 0.016021 0.0505436 0.478805 
0.00625017 0.04946 0.464117 -0.00347509 0.0484712 0.448709 -0.0130227 0.0475831 0.432507 
-0.0222923 0.046799 0.415472 -0.0312225 0.046122 0.397603 -0.0397933 0.0455564 0.378927 
-0.0480235 0.04511 0.359497 -0.0559631 0.0447953 0.339378 -0.0636817 0.0446301 0.318639 
-0.0712536 0.0446378 0.297336 -0.0787425 0.0448464 0.275508 -0.0861863 0.0452869 0.253168 
-0.0935845 0.0459915 0.230306 -0.100891 0.0469906 0.206887 -0.108008 0.0483098 0.182861 
-0.114795 0.0499676 0.158172 -0.121071 0.0519721 0.132771 -0.126629 0.0543194 0.106628 
-0.131259 0.056992 0.0797454 -0.134755 0.0599584 0.0521602 -0.136944 0.0631734 0.0239526 
-0.137696 0.0665795 -0.0047576 -0.136936 0.0701091 -0.0338167 -0.134653 0.0736869 -0.0630477 
-0.130899 0.0772337 -0.0922636 -0.125786 0.0806693 -0.121282 -0.119473 0.0839162 -0.149941 
-0.112156 0.0869027 -0.178108 -0.104046 0.089565 -0.20569 -0.0953566 0.0918495 -0.232641 
-0.0862861 0.0937134 -0.258951 -0.0770025 0.0951254 -0.284649 -0.0676348 0.0960647 -0.309786 
-0.0582677 0.0965199 -0.334424 -0.0489405 0.096487 -0.358622 -0.0396518 0.0959675 -0.38242 
-0.0303664 0.0949663 -0.405831 -0.0210265 0.0934894 -0.428833 -0.0115626 0.0915423 -0.451369 
-0.00190626 0.0891289 -0.473346 0.00800007 0.0862511 -0.49465 0.0181939 0.082909 -0.515151 
0.0286868 0.0791016 -0.534721 0.0394619 0.0748285 -0.553245 0.0504738 0.0700916 -0.570639 
0.0616514 0.0648976 -0.586851 0.0729028 0.0592599 -0.601875 0.0841213 0.0532006 -0.615745 
0.0951925 0.0467521 -0.628536 0.106001 0.0399581 -0.640348 0.116436 0.0328733 -0.651303 
0.126397 0.0255636 -0.661527 0.135798 0.018104 -0.671135 0.144569 0.0105767 -0.680226 
0.152656 0.00306863 -0.688871 0.160026 -0.00433174 -0.69711 0.166662 -0.0115374 -0.70495 
0.172563 -0.0184659 -0.712372 0.177742 -0.0250417 -0.719335 0.182227 -0.0311987 -0.725788 
0.186056 -0.036881 -0.731675 0.189274 -0.0420439 -0.73695 0.191933 -0.0466538 -0.741575 
0.19409 -0.050687 -0.745533 0.1958 -0.0541281 -0.748822 0.197116 -0.0569687 -0.751455 
0.198088 -0.0592047 -0.753458 0.198757 -0.0608348 -0.754858 0.199153 -0.0618583 -0.755681 
0.199294 -0.0622741 -0.755945 
LINES 2 100
OFFSETS vtktypeint64
0 100 
CONNECTIVITY vtktypeint64
0 1 2 3 4 5 6 7 8 
9 10 11 12 13 14 15 16 17 
18 19 20 21 22 23 24 25 26 
27 28 29 30 31 32 33 34 35 
36 37 38 39 40 41 42 43 44 
45 46 47 48 49 50 51 52 53 
54 55 56 57 58 59 60 61 62 
63 64 65 66 67 68 69 70 71 
72 73 74 75 76 77 78 79 80 
81 82 83 84 85 86 87 88 89 
90 91 92 93 94 95 96 97 98 
99 
POINT_DATA 100
FIELD FieldData 3
_theta 1 100 double
0 0.031733259127 0.063466518254 0.095199777382 0.12693303651 0.15866629564 0.19039955476 0.22213281389 0.25386607302 
0.28559933214 0.31733259127 0.3490658504 0.38079910953 0.41253236865 0.44426562778 0.47599888691 0.50773214603 0.53946540516 
0.57119866429 0.60293192342 0.63466518254 0.66639844167 0.6981317008 0.72986495992 0.76159821905 0.79333147818 0.82506473731 
0.85679799643 0.88853125556 0.92026451469 0.95199777382 0.98373103294 1.0154642921 1.0471975512 1.0789308103 1.1106640695 
1.1423973286 1.1741305877 1.2058638468 1.237597106 1.2693303651 1.3010636242 1.3327968833 1.3645301425 1.3962634016 
1.4279966607 1.4597299198 1.491463179 1.5231964381 1.5549296972 1.5866629564 1.6183962155 1.6501294746 1.6818627337 
1.7135959929 1.745329252 1.7770625111 1.8087957702 1.8405290294 1.8722622885 1.9039955476 1.9357288068 1.9674620659 
1.999195325 2.0309285841 2.0626618433 2.0943951024 2.1261283615 2.1578616206 2.1895948798 2.2213281389 2.253061398 
2.2847946572 2.3165279163 2.3482611754 2.3799944345 2.4117276937 2.4434609528 2.4751942119 2.506927471 2.5386607302 
2.5703939893 2.6021272484 2.6338605076 2.6655937667 2.6973270258 2.7290602849 2.7607935441 2.7925268032 2.8242600623 
2.8559933214 2.8877265806 2.9194598397 2.9511930988 2.982926358 3.0146596171 3.0463928762 3.0781261353 3.1098593945 
3.1415926536 
_radius 1 100 double
1.2393455042e-15 0.017107217196 0.034070835471 0.050750454458 0.067020545606 0.082776025801 0.097935782181 0.11244384381 0.12626818474 
0.13939744739 0.15183614366 0.16359906531 0.17470566856 0.18517507922 0.19502213417 0.20425462536 0.21287174452 0.22086369245 
0.22821248486 0.23489406073 0.24088177364 0.24615115619 0.25068549584 0.25448134747 0.25755282535 0.25993356162 0.26167565439 
0.26284561895 0.26351803058 0.26376795826 0.26366333581 0.26325817854 0.2625872119 0.26166221226 0.26047026128 0.25897417856 
0.25711553371 0.25482070513 0.25201028939 0.24861167806 0.24457386081 0.23988267807 0.23457408387 0.22874268783 0.22254305063 
0.21618202248 0.20990197773 0.20395711831 0.19858750649 0.1939966786 0.19033712465 0.18770402519 0.1861341571 0.1856063743 
0.18604235142 0.18730892515 0.18922438853 0.19157033325 0.19410891255 0.19660362102 0.19884065129 0.20064784628 0.20190885666 
0.20257089841 0.20264533741 0.20220123555 0.20135297275 0.20024393449 0.19902868687 0.19785578172 0.19685250429 0.19611212789 
0.19568412905 0.1955681974 0.19571304738 0.19602052723 0.19635452294 0.19655322713 0.1964428744 0.19585108135 0.19461831758 
0.19260658665 0.18970495419 0.18583200493 0.18093559485 0.17499042221 0.16799404402 0.15996204199 0.15092306963 0.14091446483 
0.12997900271 0.11816321269 0.10551748683 0.092097935564 0.077969598065 0.063210242068 0.047913705039 0.032191661643 0.01617293564 
4.9593221305e-16 
_area 1 100 double
0 0.00070026449678 0.0027824384871 0.0061912517243 0.010836723405 0.016597806274 0.023327815879 0.030861154094 0.039020369817 
0.047622582546 0.056484885076 0.06542948808 0.074290570101 0.082924853996 0.09122573541 0.099137051674 0.10665998865 0.11384748407 
0.12078481167 0.12756092603 0.13423986088 0.14084194503 0.14733933842 0.15366263563 0.1597117059 0.16536737286 0.17050592066 
0.17501824222 0.17882875163 0.18190383073 0.18424324417 0.18585912745 0.18675692951 0.18693080687 0.18637252343 0.18508217247 
0.18306987725 0.18034538135 0.17690084197 0.17269781672 0.16766966838 0.16174509592 0.1548902399 0.14715839121 0.138730342 
0.12992926875 0.12120366698 0.11308315287 0.10607549605 0.10040974437 0.095970191656 0.092565290202 0.090050814988 0.088345683217 
0.08742022655 0.087252661075 0.08776670321 0.088787415845 0.090037504059 0.091169916737 0.091832652198 0.091740589363 0.090728622991 
0.088781368565 0.086036925227 0.082767607946 0.079358775143 0.076393759721 0.074196223031 0.072953490824 0.072608859804 0.073006651283 
0.073957650812 0.075269009659 0.076751995739 0.078225624584 0.079517373792 0.080469373259 0.080953567591 0.08088969963 0.080252435936 
0.079055779418 0.077320428733 0.075046581949 0.072206022077 0.068752715064 0.064644664361 0.059866490076 0.054445299605 0.04845836786 
0.042034218457 0.035348640729 0.02861627048 0.022078257782 0.015987322736 0.010592096986 0.0061222450245 0.0027748435425 0.00070197344257 
1.6653345369e-16 
