# vtk DataFile Version 5.1
vtk output
ASCII
DATASET POLYDATA
POINTS 100 float
0.114513 0.0518084 0.70774 0.114303 0.052036 0.70755 0.113741 0.0525857 0.706815 
0.112837 0.0534312 0.70553 0.111606 0.0545309 0.703686 0.110067 0.0558315 0.701273 
0.108243 0.0572718 0.698276 0.106157 0.0587862 0.69468 0.10383 0.0603091 0.690467 
0.101282 0.0617779 0.685621 0.0985267 0.0631354 0.680129 0.0955694 0.0643313 0.673982 
0.0924086 0.0653221 0.667178 0.0890339 0.0660718 0.659723 0.085427 0.0665501 0.651633 
0.0815628 0.0667324 0.642935 0.0774122 0.0665991 0.633662 0.0729452 0.0661355 0.623855 
0.0681341 0.0653332 0.613556 0.0629574 0.0641914 0.602803 0.0574031 0.0627189 0.591629 
0.0514711 0.0609369 0.580055 0.0451746 0.0588811 0.568085 0.0385403 0.056603 0.555709 
0.0316064 0.0541701 0.542895 0.0244203 0.0516652 0.5296 0.017034 0.0491828 0.515766 
0.00949985 0.0468254 0.50133 0.0018656 0.0446973 0.486231 -0.00582971 0.0428978 0.470417 
-0.0135587 0.0415147 0.453849 -0.0213072 0.040618 0.436512 -0.029073 0.0402544 0.418412 
-0.0368638 0.0404443 0.399581 -0.0446921 0.0411804 0.380073 -0.0525693 0.0424291 0.359961 
-0.0604991 0.0441341 0.339326 -0.068471 0.0462216 0.318252 -0.0764547 0.0486068 0.296816 
-0.084397 0.0512013 0.275078 -0.0922202 0.0539202 0.253078 -0.0998244 0.0566873 0.230831 
-0.107092 0.0594403 0.208326 -0.113896 0.0621325 0.185528 -0.120107 0.0647333 0.16239 
-0.125607 0.0672263 0.138854 -0.130297 0.0696064 0.114866 -0.134105 0.0718753 0.0903869 
-0.136995 0.0740372 0.0653987 -0.138969 0.0760951 0.0399138 -0.140065 0.0780476 0.0139784 
-0.140356 0.0798876 -0.0123273 -0.139941 0.0816025 -0.038893 -0.138932 0.0831753 -0.0655852 
-0.137449 0.0845882 -0.0922575 -0.135602 0.0858251 -0.118762 -0.133484 0.0868755 -0.14496 
-0.131164 0.0877368 -0.170734 -0.128677 0.0884159 -0.195995 -0.126029 0.0889286 -0.220689 
-0.123196 0.0892979 -0.244795 -0.12013 0.0895503 -0.268323 -0.116768 0.0897111 -0.291311 
-0.113044 0.089799 -0.313812 -0.108897 0.0898209 -0.335885 -0.104283 0.089768 -0.357587 
-0.0991792 0.0896132 -0.378957 -0.0935919 0.0893106 -0.400017 -0.0875556 0.088798 -0.420761 
-0.0811318 0.0880013 -0.441158 -0.0744037 0.0868407 -0.461152 -0.0674691 0.0852387 -0.480671 
-0.0604324 0.0831281 -0.499634 -0.0533962 0.0804596 -0.517955 -0.0464547 0.0772084 -0.53556 
-0.0396879 0.0733782 -0.552387 -0.0331595 0.0690025 -0.568399 -0.0269165 0.0641433 -0.583578 
-0.0209919 0.0588871 -0.597934 -0.0154085 0.0533384 -0.611494 -0.0101846 0.047612 -0.624305 
-0.00533843 0.0418244 -0.636418 -0.000892688 0.036086 -0.64789 0.00312336 0.0304936 -0.65877 
0.00667393 0.0251259 -0.669097 0.00971927 0.020041 -0.678895 0.0122204 0.0152758 -0.688171 
0.0141456 0.0108485 -0.696917 0.0154773 0.0067622 -0.705109 0.0162192 0.00301056 -0.712716 
0.0164009 -0.000417231 -0.719701 0.0160812 -0.00353124 -0.726024 0.0153478 -0.00633687 -0.731653 
0.0143132 -0.00883245 -0.736557 0.0131081 -0.0110086 -0.740718 0.0118718 -0.0128494 -0.744123 
0.0107407 -0.0143346 -0.746766 0.00983658 -0.0154428 -0.748647 0.00925566 -0.0161553 -0.749767 
0.00905955 -0.0164589 -0.750127 
LINES 2 100
OFFSETS vtktypeint64
0 100 
CONNECTIVITY vtktypeint64
0 1 2 3 4 5 6 7 8 
9 10 11 12 13 14 15 16 17 
18 19 20 21 22 23 24 25 26 
27 28 29 30 31 32 33 34 35 
36 37 38 39 40 41 42 43 44 
45 46 47 48 49 50 51 52 53 
54 55 56 57 58 59 60 61 62 
63 64 65 66 67 68 69 70 71 
72 73 74 75 76 77 78 79 80 
81 82 83 84 85 86 87 88 89 
90 91 92 93 94 95 96 97 98 
99 
POINT_DATA 100
FIELD FieldData 3
_theta 1 100 double
0 0.031733259127 0.063466518254 0.095199777382 0.12693303651 0.15866629564 0.19039955476 0.22213281389 0.25386607302 
0.28559933214 0.31733259127 0.3490658504 0.38079910953 0.41253236865 0.44426562778 0.47599888691 0.50773214603 0.53946540516 
0.57119866429 0.60293192342 0.63466518254 0.66639844167 0.6981317008 0.72986495992 0.76159821905 0.79333147818 0.82506473731 
0.85679799643 0.88853125556 0.92026451469 0.95199777382 0.98373103294 1.0154642921 1.0471975512 1.0789308103 1.1106640695 
1.1423973286 1.1741305877 1.2058638468 1.237597106 1.2693303651 1.3010636242 1.3327968833 1.3645301425 1.3962634016 
1.4279966607 1.4597299198 1.491463179 1.5231964381 1.5549296972 1.5866629564 1.6183962155 1.6501294746 1.6818627337 
1.7135959929 1.745329252 1.7770625111 1.8087957702 1.8405290294 1.8722622885 1.9039955476 1.9357288068 1.9674620659 
1.999195325 2.0309285841 2.0626618433 2.0943951024 2.1261283615 2.1578616206 2.1895948798 2.2213281389 2.253061398 
2.2847946572 2.3165279163 2.3482611754 2.3799944345 2.4117276937 2.4434609528 2.4751942119 2.506927471 2.5386607302 
2.5703939893 2.6021272484 2.6338605076 2.6655937667 2.6973270258 2.7290602849 2.7607935441 2.7925268032 2.8242600623 
2.8559933214 2.8877265806 2.9194598397 2.9511930988 2.982926358 3.0146596171 3.0463928762 3.0781261353 3.1098593945 
3.1415926536 
_radius 1 100 double
3.3565890685e-16 0.013683724724 0.027373776363 0.041067160228 0.05474865309 0.068385638799 0.081924323992 0.095288078567 0.10837850946 
0.12107952088 0.13326414224 0.14480344823 0.15557655751 0.16548052766 0.17443896919 0.18240835763 0.18938129407 0.19538631168 
0.20048420913 0.20476127512 0.20832012175 0.21126914162 0.21371181206 0.21573714758 0.21741250368 0.21877964386 0.21985451896 
0.22063064083 0.221085363 0.2211879423 0.22090806094 0.22022357122 0.2191265195 0.21762689219 0.21575389664 0.21355487145 
0.21109209053 0.20843781538 0.20566804171 0.20285555747 0.20006318507 0.19733831883 0.19470992351 0.19218889565 0.1897720846 
0.18744943562 0.18521286017 0.18306483596 0.18102468052 0.17913102312 0.17743995985 0.17601927839 0.17493976735 0.17426505861 
0.17404175387 0.17429158857 0.17500689151 0.17614975064 0.17765454959 0.17943319721 0.18138232119 0.18339166929 0.18535286908 
0.18716763511 0.18875459609 0.19005416026 0.19103117029 0.19167540534 0.19200016761 0.19203920313 0.19184208743 0.19146806715 
0.19097833379 0.19042694364 0.18985109617 0.18926201835 0.18863786126 0.18791961806 0.18701056266 0.18577963924 0.18406935939 
0.18170831657 0.17852725439 0.174376422 0.16914145796 0.16275539907 0.1552052531 0.14653249518 0.13682765697 0.12621986714 
0.11486280192 0.10291898587 0.090544650741 0.077877290193 0.065027553349 0.052076222567 0.039075908497 0.026056111596 0.013029816444 
5.8097027575e-16 
_area 1 100 double
0 0.0005075641997 0.0020290945271 0.0045601132733 0.0080899280004 0.012597062065 0.018043422737 0.024367798042 0.031479510681 
0.039253382921 0.047527528392 0.056105668219 0.064765372033 0.073272709656 0.081402410174 0.088961064974 0.095809511165 0.10187969483 
0.10718152588 0.11179678325 0.11585976745 0.11952745796 0.12294458113 0.12621057199 0.12935630195 0.13233845259 0.13505485545 
0.13737449107 0.13916961232 0.14033990826 0.14082487944 0.14060527456 0.13969701342 0.13814230872 0.1360023511 0.13335363852 
0.13028703872 0.12690685156 0.12332708426 0.11966302403 0.11601753166 0.11246445317 0.10903617946 0.10572303613 0.10248470842 
0.099267001921 0.096019097903 0.092710993753 0.089350225136 0.085993341667 0.082747086592 0.079757920851 0.077194760652 0.075235264843 
0.074054141496 0.07375551445 0.074242809898 0.075286360228 0.07663874073 0.078075569074 0.079404988759 0.080467576353 0.081145916217 
0.081378199436 0.081165650979 0.080570435361 0.079704328208 0.078707480488 0.077733334689 0.076883020028 0.076303498671 0.075852960064 
0.075418201304 0.074908163588 0.074349287083 0.073844948657 0.073468636942 0.073370529188 0.073603795174 0.074087581404 0.074570006239 
0.074694439091 0.07413554871 0.072647472599 0.070080996798 0.066392079437 0.061640630618 0.0559789902 0.04963147195 0.042867593846 
0.03597269701 0.029220355894 0.022850778201 0.017058093096 0.011987315663 0.0077394392261 0.0043812518121 0.0019557900966 0.0004902203873 
2.7107171765e-18 
