# vtk DataFile Version 5.1
vtk output
ASCII
DATASET POLYDATA
POINTS 100 float
0.0395989 0.017606 0.68268 0.0396486 0.0176751 0.682626 0.0398628 0.0177181 0.682323 
0.0401887 0.0177456 0.68178 0.0405462 0.0177743 0.681004 0.0408381 0.0178254 0.679996 
0.0409622 0.0179225 0.678739 0.0408234 0.0180896 0.677194 0.0403451 0.0183489 0.675293 
0.0394769 0.0187191 0.672939 0.0381994 0.0192137 0.670013 0.036523 0.0198403 0.666376 
0.0344842 0.0205997 0.66189 0.0321365 0.0214858 0.656425 0.0295398 0.022486 0.64988 
0.0267489 0.023581 0.642196 0.0238022 0.0247457 0.633365 0.0207137 0.0259492 0.623435 
0.0174679 0.0271556 0.612509 0.0140194 0.0283245 0.600739 0.0102973 0.029412 0.588305 
0.00621296 0.030372 0.575406 0.0016711 0.0311577 0.562234 -0.00341763 0.0317243 0.548953 
-0.00912473 0.0320316 0.53569 -0.0154937 0.0320473 0.522513 -0.0225336 0.0317507 0.509437 
-0.0302166 0.0311355 0.496419 -0.0384808 0.0302128 0.483371 -0.0472371 0.0290127 0.470175 
-0.0563798 0.0275847 0.456699 -0.0657994 0.0259962 0.44282 -0.0753954 0.0243296 0.428439 
-0.0850876 0.0226778 0.413494 -0.0948247 0.0211382 0.397969 -0.104588 0.0198063 0.381888 
-0.11439 0.0187688 0.365313 -0.124269 0.0180974 0.348328 -0.134275 0.0178444 0.331023 
-0.144461 0.0180396 0.313471 -0.154863 0.0186894 0.295719 -0.16549 0.0197792 0.277766 
-0.176308 0.0212767 0.259565 -0.187235 0.0231382 0.241017 -0.198138 0.0253145 0.221986 
-0.208837 0.0277581 0.202309 -0.219117 0.030429 0.181821 -0.228739 0.0332989 0.160373 
-0.237462 0.0363528 0.137859 -0.245058 0.0395887 0.114229 -0.251335 0.0430135 0.0895002 
-0.256149 0.0466379 0.0637647 -0.259418 0.0504691 0.0371787 -0.261126 0.0545028 0.00995126 
-0.261322 0.0587164 -0.0176761 -0.260114 0.0630641 -0.0454535 -0.257655 0.0674739 -0.0731474 
-0.254131 0.071849 -0.100563 -0.24974 0.0760718 -0.127559 -0.244673 0.0800121 -0.154062 
-0.239101 0.0835373 -0.180061 -0.233165 0.0865242 -0.205603 -0.226961 0.088871 -0.230778 
-0.220545 0.0905077 -0.255696 -0.213932 0.0914035 -0.280468 -0.207102 0.0915712 -0.305183 
-0.200017 0.0910656 -0.32989 -0.192627 0.0899784 -0.354587 -0.184884 0.0884288 -0.37922 
-0.176758 0.0865501 -0.403684 -0.168241 0.0844756 -0.427841 -0.159355 0.0823241 -0.45153 
-0.150157 0.0801873 -0.474597 -0.140732 0.0781205 -0.496905 -0.131193 0.0761385 -0.518359 
-0.121669 0.0742158 -0.538912 -0.112301 0.0722933 -0.558569 -0.103228 0.0702885 -0.577385 
-0.0945811 0.0681098 -0.595448 -0.0864733 0.0656721 -0.612866 -0.0789962 0.0629117 -0.629743 
-0.0722149 0.0597992 -0.646157 -0.0661681 0.0563483 -0.662148 -0.060868 0.0526188 -0.677697 
-0.0563034 0.0487137 -0.692732 -0.0524437 0.0447711 -0.707126 -0.0492424 0.0409504 -0.72071 
-0.0466422 0.0374161 -0.733298 -0.0445787 0.0343191 -0.744704 -0.0429838 0.0317802 -0.754771 
-0.0417892 0.0298758 -0.763388 -0.0409277 0.0286285 -0.770513 -0.0403358 0.0280045 -0.776173 
-0.0399543 0.027917 -0.780469 -0.0397295 0.0282358 -0.783563 -0.0396144 0.0288031 -0.785656 
-0.0395689 0.029451 -0.786968 -0.0395612 0.0300225 -0.787708 -0.0395679 0.0303892 -0.788049 
-0.0395752 0.0304672 -0.788103 
LINES 2 100
OFFSETS vtktypeint64
0 100 
CONNECTIVITY vtktypeint64
0 1 2 3 4 5 6 7 8 
9 10 11 12 13 14 15 16 17 
18 19 20 21 22 23 24 25 26 
27 28 29 30 31 32 33 34 35 
36 37 38 39 40 41 42 43 44 
45 46 47 48 49 50 51 52 53 
54 55 56 57 58 59 60 61 62 
63 64 65 66 67 68 69 70 71 
72 73 74 75 76 77 78 79 80 
81 82 83 84 85 86 87 88 89 
90 91 92 93 94 95 96 97 98 
99 
POINT_DATA 100
FIELD FieldData 3
_theta 1 100 double
0 0.031733259127 0.063466518254 0.095199777382 0.12693303651 0.15866629564 0.19039955476 0.22213281389 0.25386607302 
0.28559933214 0.31733259127 0.3490658504 0.38079910953 0.41253236865 0.44426562778 0.47599888691 0.50773214603 0.53946540516 
0.57119866429 0.60293192342 0.63466518254 0.66639844167 0.6981317008 0.72986495992 0.76159821905 0.79333147818 0.82506473731 
0.85679799643 0.88853125556 0.92026451469 0.95199777382 0.98373103294 1.0154642921 1.0471975512 1.0789308103 1.1106640695 
1.1423973286 1.1741305877 1.2058638468 1.237597106 1.2693303651 1.3010636242 1.3327968833 1.3645301425 1.3962634016 
1.4279966607 1.4597299198 1.491463179 1.5231964381 1.5549296972 1.5866629564 1.6183962155 1.6501294746 1.6818627337 
1.7135959929 1.745329252 1.7770625111 1.8087957702 1.8405290294 1.8722622885 1.9039955476 1.9357288068 1.9674620659 
1.999195325 2.0309285841 2.0626618433 2.0943951024 2.1261283615 2.1578616206 2.1895948798 2.2213281389 2.253061398 
2.2847946572 2.3165279163 2.3482611754 2.3799944345 2.4117276937 2.4434609528 2.4751942119 2.506927471 2.5386607302 
2.5703939893 2.6021272484 2.6338605076 2.6655937667 2.6973270258 2.7290602849 2.7607935441 2.7925268032 2.8242600623 
2.8559933214 2.8877265806 2.9194598397 2.9511930988 2.982926358 3.0146596171 3.0463928762 3.0781261353 3.1098593945 
3.1415926536 
_radius 1 100 double
4.4495572621e-16 0.013270068946 0.026563557241 0.039889110617 0.053235783473 0.066567467306 0.07982094843 0.092907279405 0.10571574983 
0.11811973992 0.12998394321 0.14117263138 0.15155871031 0.1610332739 0.16951515462 0.17695955027 0.18336431414 0.18877228619 
0.19326844092 0.19697164494 0.20002212369 0.20256684123 0.20474546994 0.20667928661 0.20846432545 0.21016885889 0.21183423087 
0.21347754691 0.21509480507 0.21666359719 0.21814525141 0.21948689609 0.2206241331 0.22148474977 0.22199336505 0.2220764455 
0.22166704332 0.22070895532 0.21916053444 0.21699871706 0.21422368545 0.21086396662 0.2069809369 0.20267103382 0.19806378361 
0.19331419946 0.18858926689 0.18405015401 0.17983419943 0.17604246533 0.17273774388 0.16995354391 0.16770901918 0.16602184447 
0.16491219548 0.1643946787 0.16445977337 0.16505219549 0.16605884682 0.16731711846 0.16864241423 0.16986223721 0.17084377089 
0.17150899234 0.17183741073 0.17185899395 0.17164027618 0.17126655363 0.17082314764 0.17037898068 0.16997549845 0.16962246777 
0.16929990449 0.16896400305 0.16855499954 0.16800540238 0.16724726273 0.1662173963 0.16485999904 0.16312673553 0.16097491502 
0.15836480692 0.15525732558 0.15161295852 0.147392032 0.14255572542 0.13706706694 0.13089145892 0.12399681557 0.11635383494 
0.10793708318 0.098727425249 0.088715999269 0.077909518828 0.066336262177 0.054051720658 0.041142621803 0.027728041771 0.013956672518 
9.9944258852e-16 
_area 1 100 double
0 0.00048180738998 0.0019220473941 0.0043068738155 0.0076180047066 0.011837061896 0.01694675874 0.022926120118 0.029738948731 
0.037317795309 0.045548245022 0.054258948095 0.063221563258 0.072163040177 0.080790890312 0.088829068885 0.096057708928 0.10234682482 
0.10767471955 0.11212582493 0.11586798595 0.11911415729 0.12207739458 0.12493024949 0.12777904992 0.130659048 0.13354910801 
0.13639808477 0.13915236652 0.14177509125 0.14425044842 0.14657054452 0.14870777297 0.15058137662 0.15203378779 0.15283918523 
0.15275317601 0.15158061308 0.14923197187 0.14575517249 0.14133275691 0.13622201878 0.13064957457 0.12476965067 0.1187304805 
0.11273913816 0.10705944637 0.10194805791 0.097550826014 0.093837464693 0.090664488793 0.087894610768 0.085445495051 0.083268762407 
0.081323750582 0.079578655921 0.078024708607 0.07668303548 0.075604055497 0.074858253502 0.07447803607 0.074371706897 0.074347874656 
0.074224673771 0.073886105623 0.073281835874 0.072418446914 0.071350641468 0.070158838018 0.068917727674 0.067677383906 0.066472942195 
0.065353146275 0.064402363399 0.063730269438 0.063407252713 0.063416652411 0.063691574722 0.064141158389 0.064647595814 0.065054649781 
0.065165936368 0.064767936877 0.063670240412 0.061742938578 0.05893695807 0.055284558029 0.050884780452 0.045881653927 0.040442873085 
0.034744342234 0.028962386622 0.023272077429 0.017848220621 0.012865459338 0.0084951556041 0.0048984676627 0.0022166114085 0.0005602306868 
3.3739112499e-17 
