# vtk DataFile Version 5.1
vtk output
ASCII
DATASET POLYDATA
POINTS 100 float
0.164294 0.0569761 0.728845 0.164476 0.0571109 0.728585 0.16509 0.057364 0.727649 
0.166054 0.057734 0.726063 0.167242 0.0582183 0.723868 0.168491 0.058812 0.721108 
0.169624 0.0595072 0.717826 0.170457 0.0602919 0.714053 0.170823 0.0611497 0.7098 
0.170584 0.0620594 0.705055 0.169638 0.0629958 0.699785 0.16793 0.0639305 0.693937 
0.165447 0.0648333 0.687448 0.162221 0.065674 0.680257 0.158313 0.0664239 0.672313 
0.153807 0.0670576 0.663588 0.148796 0.0675537 0.654086 0.143368 0.0678959 0.643845 
0.137596 0.0680727 0.63294 0.131527 0.0680769 0.621477 0.125185 0.0679047 0.609582 
0.118565 0.0675549 0.597388 0.11164 0.0670276 0.585024 0.10437 0.0663236 0.572594 
0.0967127 0.0654445 0.560173 0.0886332 0.0643928 0.547795 0.0801163 0.0631733 0.53545 
0.0711744 0.0617945 0.52309 0.0618515 0.0602702 0.510634 0.0522245 0.058621 0.497984 
0.042398 0.0568759 0.485039 0.0324962 0.0550718 0.471707 0.0226511 0.0532538 0.457921 
0.0129889 0.0514726 0.443645 0.00361647 0.0497818 0.42888 -0.00539042 0.0482344 0.413662 
-0.0139957 0.0468785 0.39805 -0.0222068 0.0457535 0.382116 -0.030073 0.044886 0.36593 
-0.0376784 0.0442882 0.349544 -0.0451302 0.0439568 0.332976 -0.0525436 0.043874 0.316205 
-0.0600245 0.0440102 0.299163 -0.0676533 0.0443281 0.281743 -0.0754707 0.0447887 0.263803 
-0.0834677 0.0453563 0.245189 -0.0915822 0.0460047 0.225749 -0.0997012 0.0467212 0.205358 
-0.10767 0.0475095 0.183934 -0.115308 0.0483903 0.161455 -0.122424 0.0493994 0.137965 
-0.128842 0.0505835 0.11358 -0.134415 0.0519941 0.0884758 -0.139049 0.0536799 0.0628728 
-0.142705 0.0556789 0.0370188 -0.145413 0.0580114 0.0111617 -0.147259 0.0606741 -0.0144736 
-0.148383 0.0636359 -0.0397076 -0.148951 0.0668379 -0.0644224 -0.149143 0.0701951 -0.0885701 
-0.149118 0.073602 -0.112173 -0.148997 0.0769394 -0.135316 -0.148841 0.0800842 -0.158128 
-0.148636 0.0829185 -0.180765 -0.148293 0.0853393 -0.203381 -0.147646 0.0872658 -0.226108 
-0.146473 0.0886449 -0.249036 -0.144515 0.0894535 -0.272197 -0.141505 0.0896979 -0.295561 
-0.137202 0.0894099 -0.319038 -0.131418 0.0886412 -0.342484 -0.12405 0.0874555 -0.365722 
-0.115098 0.0859204 -0.38856 -0.104672 0.0841002 -0.410809 -0.0929951 0.0820493 -0.432306 
-0.0803881 0.0798087 -0.452929 -0.0672461 0.0774044 -0.4726 -0.0540078 0.0748491 -0.491294 
-0.0411186 0.0721454 -0.50903 -0.0289933 0.0692919 -0.525857 -0.017981 0.0662889 -0.541843 
-0.00833773 0.0631444 -0.557055 -0.000207295 0.0598792 -0.571545 0.00638529 0.0565298 -0.585335 
0.0115288 0.0531487 -0.598414 0.0154091 0.0498022 -0.610731 0.0182835 0.046566 -0.622209 
0.0204477 0.0435184 -0.632749 0.0222019 0.0407332 -0.64225 0.0238163 0.0382719 -0.650624 
0.0255033 0.0361774 -0.657813 0.0273972 0.0344693 -0.663799 0.0295444 0.0331422 -0.668614 
0.0319052 0.0321666 -0.672338 0.0343654 0.0314928 -0.67509 0.0367576 0.0310576 -0.677022 
0.0388878 0.0307921 -0.678295 0.040565 0.0306309 -0.679061 0.0416293 0.0305202 -0.679448 
0.0419745 0.0304248 -0.679537 
LINES 2 100
OFFSETS vtktypeint64
0 100 
CONNECTIVITY vtktypeint64
0 1 2 3 4 5 6 7 8 
9 10 11 12 13 14 15 16 17 
18 19 20 21 22 23 24 25 26 
27 28 29 30 31 32 33 34 35 
36 37 38 39 40 41 42 43 44 
45 46 47 48 49 50 51 52 53 
54 55 56 57 58 59 60 61 62 
63 64 65 66 67 68 69 70 71 
72 73 74 75 76 77 78 79 80 
81 82 83 84 85 86 87 88 89 
90 91 92 93 94 95 96 97 98 
99 
POINT_DATA 100
FIELD FieldData 3
_theta 1 100 double
0 0.031733259127 0.063466518254 0.095199777382 0.12693303651 0.15866629564 0.19039955476 0.22213281389 0.25386607302 
0.28559933214 0.31733259127 0.3490658504 0.38079910953 0.41253236865 0.44426562778 0.47599888691 0.50773214603 0.53946540516 
0.57119866429 0.60293192342 0.63466518254 0.66639844167 0.6981317008 0.72986495992 0.76159821905 0.79333147818 0.82506473731 
0.85679799643 0.88853125556 0.92026451469 0.95199777382 0.98373103294 1.0154642921 1.0471975512 1.0789308103 1.1106640695 
1.1423973286 1.1741305877 1.2058638468 1.237597106 1.2693303651 1.3010636242 1.3327968833 1.3645301425 1.3962634016 
1.4279966607 1.4597299198 1.491463179 1.5231964381 1.5549296972 1.5866629564 1.6183962155 1.6501294746 1.6818627337 
1.7135959929 1.745329252 1.7770625111 1.8087957702 1.8405290294 1.8722622885 1.9039955476 1.9357288068 1.9674620659 
1.999195325 2.0309285841 2.0626618433 2.0943951024 2.1261283615 2.1578616206 2.1895948798 2.2213281389 2.253061398 
2.2847946572 2.3165279163 2.3482611754 2.3799944345 2.4117276937 2.4434609528 2.4751942119 2.506927471 2.5386607302 
2.5703939893 2.6021272484 2.6338605076 2.6655937667 2.6973270258 2.7290602849 2.7607935441 2.7925268032 2.8242600623 
2.8559933214 2.8877265806 2.9194598397 2.9511930988 2.982926358 3.0146596171 3.0463928762 3.0781261353 3.1098593945 
3.1415926536 
_radius 1 100 double
1.0164946705e-15 0.014274885657 0.028517083575 0.04268389656 0.056721604705 0.070561198249 0.084116123082 0.097283218324 0.10994761077 
0.12199148591 0.13330564889 0.14380192825 0.15342402417 0.16215452652 0.17001654716 0.17706955404 0.18340023646 0.18911021617 
0.19430290482 0.19907173178 0.20349142763 0.20761325978 0.21146432693 0.21505042428 0.21836166614 0.22137994606 0.22408729364 
0.22647410287 0.22854599637 0.23032787433 0.23186374693 0.23321148807 0.23443265399 0.23557872114 0.23667617517 0.23771352481 
0.23863328555 0.23933116403 0.23966325177 0.23946050144 0.23854863855 0.23677112703 0.2340126511 0.23022051183 0.22542127986 
0.21973010848 0.21335046923 0.20656283192 0.1997019985 0.19312441109 0.18716880341 0.18211591639 0.17815488774 0.17536369362 
0.17370731992 0.17305144597 0.17318524275 0.17384714643 0.17475076666 0.17561081099 0.17616911942 0.17621956422 0.17562952849 
0.17435554928 0.17245091271 0.17006309164 0.16741929829 0.16479959155 0.16249904925 0.16078373824 0.15984945948 0.15979408633 
0.16060931425 0.16218915239 0.16434776513 0.16683976219 0.16938048398 0.17166912479 0.17341706122 0.17437712195 0.17436575672 
0.17327296696 0.17105962667 0.16774483299 0.16338722999 0.15806452815 0.15185489294 0.14482267861 0.13700960805 0.12843149474 
0.11908018229 0.10893029581 0.097950206883 0.086116043649 0.073426757815 0.05991762603 0.0456695304 0.030812033385 0.015519402502 
5.5757673381e-16 
_area 1 100 double
0 0.00048434160123 0.0019360271431 0.0043480813488 0.0076998761117 0.011946474798 0.017008871189 0.02276897384 0.029072374178 
0.035739934555 0.042586474059 0.049442195477 0.056171059459 0.062680901844 0.068922741731 0.074880438703 0.080555101286 0.085950230573 
0.09106294527 0.095883847058 0.10040424051 0.10462647578 0.10857248601 0.11228697603 0.11583409964 0.11928853591 0.12272276466 
0.12619256218 0.12972368721 0.13330442829 0.13688887526 0.14041209836 0.143811789 0.14704556519 0.15009269971 0.15293463328 
0.15551984041 0.15773098018 0.1593748322 0.1602022852 0.15994938713 0.1583860403 0.1553627134 0.15084820502 0.14495173695 
0.13792343409 0.13013069532 0.12201423241 0.11403414449 0.10661840697 0.1001205435 0.0947838274 0.090707374116 0.087831692435 
0.085973451372 0.084882679037 0.084278740421 0.083869007062 0.083368427189 0.082527799469 0.081170126225 0.079227301788 0.07677099734 
0.074092156902 0.071992532136 0.070244904803 0.068408516791 0.066319446619 0.064153770381 0.06216089534 0.060547764756 0.059442146429 
0.058933822626 0.059093120638 0.059946890335 0.061435711199 0.063387419606 0.065531938504 0.06754832015 0.069124394791 0.070013293414 
0.07006984223 0.069253904022 0.067602028948 0.065183918311 0.062065805351 0.05829589246 0.053912741676 0.048965730097 0.04353401705 
0.037735861561 0.031727512489 0.025695339269 0.019845458528 0.014393443306 0.0095545621609 0.0055335035909 0.002512298157 0.0006362913406 
1.4541848429e-17 
