# vtk DataFile Version 5.1
vtk output
ASCII
DATASET POLYDATA
POINTS 100 float
0.188393 0.0636009 0.732991 0.18827 0.0638743 0.733256 0.187967 0.064572 0.73387 
0.187457 0.0656396 0.734691 0.186691 0.0669931 0.735505 0.185613 0.0685268 0.736044 
0.18416 0.0701238 0.736016 0.182273 0.0716662 0.735133 0.179896 0.0730466 0.733144 
0.176991 0.0741756 0.729854 0.173529 0.0749892 0.725146 0.169502 0.0754517 0.718986 
0.164915 0.0755554 0.711429 0.159785 0.0753179 0.7026 0.154138 0.0747766 0.692684 
0.148004 0.0739809 0.681903 0.141418 0.0729846 0.670488 0.134408 0.0718385 0.658655 
0.127005 0.070584 0.646587 0.119234 0.0692491 0.634412 0.111121 0.0678468 0.622202 
0.102691 0.0663765 0.609963 0.093975 0.0648267 0.597648 0.0850097 0.0631807 0.585164 
0.0758381 0.0614227 0.57239 0.0665097 0.0595434 0.559195 0.0570779 0.0575458 0.545452 
0.0475966 0.0554487 0.531059 0.0381141 0.0532881 0.515941 0.0286685 0.0511169 0.500062 
0.019282 0.0490011 0.48342 0.00995738 0.0470155 0.466045 0.000676571 0.0452373 0.447985 
-0.00859755 0.0437392 0.429299 -0.0179165 0.0425836 0.410043 -0.0273383 0.0418168 0.39026 
-0.0369172 0.0414661 0.369972 -0.046692 0.0415383 0.349176 -0.0566748 0.0420203 0.32785 
-0.0668406 0.0428823 0.305951 -0.0771208 0.0440819 0.283428 -0.0873997 0.0455695 0.260232 
-0.0975173 0.0472939 0.236328 -0.107276 0.0492072 0.211704 -0.116454 0.051269 0.186379 
-0.124819 0.0534483 0.160406 -0.132147 0.0557247 0.133875 -0.138245 0.0580868 0.106905 
-0.142961 0.06053 0.0796407 -0.146203 0.0630531 0.0522369 -0.147943 0.0656537 0.02485 
-0.148224 0.0683251 -0.00237482 -0.147154 0.0710532 -0.0293143 -0.144893 0.0738143 -0.0558744 
-0.141643 0.0765747 -0.0819951 -0.137623 0.0792923 -0.107651 -0.133057 0.0819182 -0.132847 
-0.128146 0.0844002 -0.157616 -0.123059 0.0866869 -0.182007 -0.117913 0.0887307 -0.206075 
-0.112776 0.0904916 -0.229877 -0.107659 0.091939 -0.253458 -0.102527 0.0930527 -0.276851 
-0.0973051 0.0938224 -0.300065 -0.0918981 0.0942464 -0.323092 -0.0862034 0.0943282 -0.345902 
-0.0801282 0.0940743 -0.36845 -0.0736042 0.0934901 -0.390679 -0.0665978 0.0925771 -0.412524 
-0.0591169 0.0913311 -0.433917 -0.0512118 0.0897407 -0.454794 -0.0429723 0.087788 -0.475095 
-0.0345196 0.0854499 -0.494766 -0.0259962 0.0827006 -0.513764 -0.0175537 0.0795153 -0.532051 
-0.00934134 0.0758741 -0.5496 -0.00149476 0.0717652 -0.566387 0.0058718 0.0671892 -0.582396 
0.0126707 0.0621605 -0.597619 0.0188428 0.0567095 -0.612051 0.0243563 0.0508821 -0.625695 
0.0292031 0.0447389 -0.638559 0.0333936 0.0383529 -0.650661 0.0369513 0.0318066 -0.662023 
0.0399077 0.0251881 -0.672674 0.0422979 0.0185877 -0.682648 0.0441583 0.0120943 -0.691979 
0.0455261 0.00579218 -0.700699 0.0464399 -0.000241359 -0.708834 0.0469418 -0.00593778 -0.716404 
0.0470795 -0.0112382 -0.723412 0.0469084 -0.0160933 -0.72985 0.0464921 -0.0204634 -0.735695 
0.0459024 -0.0243171 -0.740911 0.0452168 -0.0276299 -0.745453 0.0445145 -0.0303837 -0.749266 
0.0438716 -0.0325646 -0.752299 0.0433557 -0.0341624 -0.754501 0.0430199 -0.0351694 -0.755833 
0.0428986 -0.0355799 -0.756271 
LINES 2 100
OFFSETS vtktypeint64
0 100 
CONNECTIVITY vtktypeint64
0 1 2 3 4 5 6 7 8 
9 10 11 12 13 14 15 16 17 
18 19 20 21 22 23 24 25 26 
27 28 29 30 31 32 33 34 35 
36 37 38 39 40 41 42 43 44 
45 46 47 48 49 50 51 52 53 
54 55 56 57 58 59 60 61 62 
63 64 65 66 67 68 69 70 71 
72 73 74 75 76 77 78 79 80 
81 82 83 84 85 86 87 88 89 
90 91 92 93 94 95 96 97 98 
99 
POINT_DATA 100
FIELD FieldData 3
_theta 1 100 double
0 0.031733259127 0.063466518254 0.095199777382 0.12693303651 0.15866629564 0.19039955476 0.22213281389 0.25386607302 
0.28559933214 0.31733259127 0.3490658504 0.38079910953 0.41253236865 0.44426562778 0.47599888691 0.50773214603 0.53946540516 
0.57119866429 0.60293192342 0.63466518254 0.66639844167 0.6981317008 0.72986495992 0.76159821905 0.79333147818 0.82506473731 
0.85679799643 0.88853125556 0.92026451469 0.95199777382 0.98373103294 1.0154642921 1.0471975512 1.0789308103 1.1106640695 
1.1423973286 1.1741305877 1.2058638468 1.237597106 1.2693303651 1.3010636242 1.3327968833 1.3645301425 1.3962634016 
1.4279966607 1.4597299198 1.491463179 1.5231964381 1.5549296972 1.5866629564 1.6183962155 1.6501294746 1.6818627337 
1.7135959929 1.745329252 1.7770625111 1.8087957702 1.8405290294 1.8722622885 1.9039955476 1.9357288068 1.9674620659 
1.999195325 2.0309285841 2.0626618433 2.0943951024 2.1261283615 2.1578616206 2.1895948798 2.2213281389 2.253061398 
2.2847946572 2.3165279163 2.3482611754 2.3799944345 2.4117276937 2.4434609528 2.4751942119 2.506927471 2.5386607302 
2.5703939893 2.6021272484 2.6338605076 2.6655937667 2.6973270258 2.7290602849 2.7607935441 2.7925268032 2.8242600623 
2.8559933214 2.8877265806 2.9194598397 2.9511930988 2.982926358 3.0146596171 3.0463928762 3.0781261353 3.1098593945 
3.1415926536 
_radius 1 100 double
6.2063353831e-16 0.018079003335 0.035880989687 0.05314664461 0.069649916871 0.085210615981 0.099702635155 0.11305714513 0.12526065437 
0.1363483736 0.14639379977 0.15549579559 0.16376464728 0.1713086094 0.17822228848 0.18457790776 0.19042012135 0.19576474153 
0.20060158577 0.204901503 0.20862717855 0.21174640441 0.21424549142 0.21613998684 0.2174801369 0.21834946967 0.21885619974 
0.21911866643 0.21924749126 0.21932818492 0.21940801954 0.21948983778 0.21953349983 0.21946379537 0.21918259744 0.2185829054 
0.21756287576 0.21603858611 0.21395485474 0.21129380567 0.20808098735 0.20438876347 0.20033649528 0.19608685236 0.19183755576 
0.18780810025 0.18422163633 0.1812832922 0.17915768059 0.17794966955 0.17769275805 0.17834778672 0.1798116049 0.18193242228 
0.18452756563 0.18740036763 0.19035471433 0.19320712854 0.19579675257 0.19799346646 0.1997040275 0.20087579897 0.20149749111 
0.20159647 0.20123263934 0.20048955586 0.19946403974 0.19825580721 0.19695843844 0.1956523575 0.19439970613 0.19324044382 
0.19218908423 0.19123222482 0.19032789638 0.18940787681 0.18838316896 0.18715161834 0.18560611268 0.1836420044 0.18116285218 
0.17808409849 0.17433487484 0.16985857979 0.16461295142 0.1585700202 0.15171584756 0.14404968835 0.13558232838 0.12633374136 
0.11633063045 0.10560463791 0.094191910393 0.082134324181 0.069482135843 0.056297311765 0.042656477756 0.028652423819 0.014393404569 
2.6561976831e-16 
_area 1 100 double
0 0.00064331105986 0.0025433694195 0.0056135395837 0.0097186037148 0.01468673495 0.020324230081 0.026431675099 0.032818983588 
0.039316293875 0.045779461786 0.052091887638 0.058165883876 0.063945216425 0.069407506057 0.07456337738 0.079449435545 0.084114176718 
0.088599732992 0.092926714953 0.097090243522 0.10106901083 0.10484009656 0.10838926034 0.11171187559 0.1148078155 0.1176770941 
0.12031891067 0.1227310855 0.12490729563 0.12683313123 0.12848293523 0.12981823883 0.13078758048 0.13132723377 0.13136353346 
0.13081920975 0.12962510256 0.1277345544 0.12513585171 0.12186068119 0.11798901221 0.11364961116 0.10901399035 0.1042832837 
0.099670072238 0.095377907208 0.091580669791 0.08840428565 0.085917688176 0.084142877589 0.08307950308 0.082718401529 0.083021880718 
0.083881452151 0.085098483944 0.086414862447 0.087570376774 0.088351691242 0.088620812495 0.088320579196 0.087464106846 0.086113524395 
0.084353155149 0.082265057703 0.079921306205 0.077396721108 0.074780413029 0.072170859933 0.069660622913 0.067321813438 0.065199561218 
0.06331781708 0.061690257953 0.060323955472 0.059212649311 0.05833350202 0.057682696316 0.057341244455 0.057319605624 0.057562701989 
0.057663882235 0.057463291566 0.056842269569 0.055698404533 0.053944559324 0.051516573074 0.048384061354 0.044559918394 0.040105883018 
0.035133384242 0.029800017676 0.024302260228 0.018864862845 0.013727354723 0.0091284931488 0.0052900588864 0.0024016778775 0.00060812460246 
1.5570592021e-17 
