# vtk DataFile Version 5.1
vtk output
ASCII
DATASET POLYDATA
POINTS 100 float
0.129243 0.0511115 0.678391 0.129334 0.0512963 0.678234 0.129688 0.0517205 0.677644 
0.130245 0.0523813 0.67661 0.130914 0.0532733 0.675112 0.131581 0.054386 0.673122 
0.132121 0.0557008 0.670599 0.13241 0.0571885 0.667491 0.132336 0.0588074 0.663737 
0.131812 0.0605027 0.659269 0.130774 0.0622074 0.654018 0.129189 0.0638446 0.647919 
0.127048 0.0653322 0.640924 0.124364 0.0665878 0.633006 0.121159 0.0675352 0.624169 
0.117462 0.0681102 0.614451 0.113296 0.0682666 0.603926 0.108675 0.0679798 0.592701 
0.103599 0.0672498 0.58091 0.0980577 0.066101 0.568701 0.0920341 0.0645806 0.556226 
0.0855099 0.0627542 0.543624 0.0784749 0.0607008 0.531006 0.0709356 0.0585058 0.518445 
0.0629216 0.0562548 0.505968 0.0544897 0.0540265 0.493552 0.0457241 0.0518886 0.481124 
0.036732 0.0498934 0.468577 0.0276351 0.0480771 0.455772 0.0185587 0.0464595 0.442566 
0.00961759 0.045047 0.428819 0.000903139 0.0438359 0.414416 -0.00752816 0.0428168 0.399279 
-0.0156625 0.0419791 0.383376 -0.0235313 0.0413153 0.366724 -0.0312081 0.0408238 0.349383 
-0.0387996 0.0405105 0.331449 -0.0464311 0.0403886 0.313042 -0.054229 0.0404772 0.294282 
-0.062301 0.0407986 0.275283 -0.0707178 0.0413741 0.256128 -0.079497 0.0422207 0.236861 
-0.0885927 0.0433473 0.217487 -0.0978914 0.0447519 0.197962 -0.107216 0.0464206 0.178209 
-0.116335 0.0483271 0.158127 -0.124983 0.0504348 0.137606 -0.132878 0.0526994 0.116546 
-0.139748 0.0550728 0.0948719 -0.145353 0.0575074 0.0725507 -0.149507 0.0599598 0.0495963 
-0.152092 0.0623948 0.0260736 -0.153068 0.0647868 0.00209448 -0.152471 0.0671213 -0.0221924 
-0.150412 0.0693938 -0.0466162 -0.147058 0.0716072 -0.0710006 -0.142618 0.0737693 -0.0951816 
-0.137321 0.0758876 -0.119022 -0.131393 0.0779661 -0.142425 -0.125042 0.0800005 -0.165334 
-0.118437 0.081976 -0.187738 -0.111704 0.0838652 -0.209663 -0.104918 0.0856283 -0.231159 
-0.0981049 0.0872146 -0.252286 -0.0912544 0.0885656 -0.2731 -0.0843261 0.0896191 -0.293639 
-0.0772664 0.090314 -0.313909 -0.0700219 0.0905957 -0.333886 -0.0625523 0.0904205 -0.353508 
-0.0548408 0.0897596 -0.372688 -0.0468995 0.0886018 -0.391324 -0.0387712 0.0869546 -0.40931 
-0.030527 0.084844 -0.426556 -0.02226 0.0823128 -0.442997 -0.0140767 0.0794177 -0.458608 
-0.0060877 0.0762259 -0.473404 0.00160216 0.0728103 -0.487441 0.00890146 0.069246 -0.500809 
0.0157381 0.0656063 -0.513614 0.0220622 0.0619592 -0.525967 0.0278467 0.0583653 -0.537961 
0.0330846 0.0548761 -0.549657 0.0377853 0.0515333 -0.56107 0.0419698 0.0483692 -0.572163 
0.0456654 0.0454069 -0.582846 0.0489017 0.0426613 -0.592985 0.0517076 0.0401408 -0.602418 
0.0541096 0.0378481 -0.610972 0.0561321 0.0357816 -0.618488 0.0577985 0.0339361 -0.624843 
0.0591335 0.0323039 -0.629967 0.0601646 0.0308754 -0.633857 0.0609242 0.0296399 -0.636583 
0.0614496 0.0285856 -0.638281 0.0617829 0.027701 -0.639144 0.0619687 0.0269746 -0.639399 
0.0620512 0.0263964 -0.639284 0.0620706 0.0259579 -0.639021 0.0620592 0.0256529 -0.638788 
0.0620386 0.0254782 -0.638703 
LINES 2 100
OFFSETS vtktypeint64
0 100 
CONNECTIVITY vtktypeint64
0 1 2 3 4 5 6 7 8 
9 10 11 12 13 14 15 16 17 
18 19 20 21 22 23 24 25 26 
27 28 29 30 31 32 33 34 35 
36 37 38 39 40 41 42 43 44 
45 46 47 48 49 50 51 52 53 
54 55 56 57 58 59 60 61 62 
63 64 65 66 67 68 69 70 71 
72 73 74 75 76 77 78 79 80 
81 82 83 84 85 86 87 88 89 
90 91 92 93 94 95 96 97 98 
99 
POINT_DATA 100
FIELD FieldData 3
_theta 1 100 double
0 0.031733259127 0.063466518254 0.095199777382 0.12693303651 0.15866629564 0.19039955476 0.22213281389 0.25386607302 
0.28559933214 0.31733259127 0.3490658504 0.38079910953 0.41253236865 0.44426562778 0.47599888691 0.50773214603 0.53946540516 
0.57119866429 0.60293192342 0.63466518254 0.66639844167 0.6981317008 0.72986495992 0.76159821905 0.79333147818 0.82506473731 
0.85679799643 0.88853125556 0.92026451469 0.95199777382 0.98373103294 1.0154642921 1.0471975512 1.0789308103 1.1106640695 
1.1423973286 1.1741305877 1.2058638468 1.237597106 1.2693303651 1.3010636242 1.3327968833 1.3645301425 1.3962634016 
1.4279966607 1.4597299198 1.491463179 1.5231964381 1.5549296972 1.5866629564 1.6183962155 1.6501294746 1.6818627337 
1.7135959929 1.745329252 1.7770625111 1.8087957702 1.8405290294 1.8722622885 1.9039955476 1.9357288068 1.9674620659 
1.999195325 2.0309285841 2.0626618433 2.0943951024 2.1261283615 2.1578616206 2.1895948798 2.2213281389 2.253061398 
2.2847946572 2.3165279163 2.3482611754 2.3799944345 2.4117276937 2.4434609528 2.4751942119 2.506927471 2.5386607302 
2.5703939893 2.6021272484 2.6338605076 2.6655937667 2.6973270258 2.7290602849 2.7607935441 2.7925268032 2.8242600623 
2.8559933214 2.8877265806 2.9194598397 2.9511930988 2.982926358 3.0146596171 3.0463928762 3.0781261353 3.1098593945 
3.1415926536 
_radius 1 100 double
4.5443133506e-16 0.015916449873 0.031626965182 0.046936740176 0.061676198758 0.075709535265 0.088939188494 0.10130637579 0.11278855161 
0.12339502403 0.13316184089 0.14214651976 0.15042251482 0.15807286076 0.16518250443 0.1718294826 0.17807605775 0.18396166155 
0.18949953587 0.19467818298 0.19946747889 0.20382810505 0.20772222748 0.21112323437 0.21402274827 0.21643386871 0.21839046531 
0.2199431352 0.22115298732 0.22208458909 0.22279917639 0.223348714 0.2237708749 0.22408477656 0.224287513 0.22435203557 
0.22422741427 0.22384255796 0.22311391028 0.22195665973 0.22029803905 0.21809070354 0.21532406723 0.21203172787 0.2082935935 
0.20423199945 0.2000019975 0.19577705992 0.19173245169 0.1880291546 0.18480117676 0.18214820735 0.18013397583 0.17878879878 
0.17811344764 0.17808145359 0.17863853539 0.17970037415 0.18115215426 0.18285366421 0.18465155996 0.18639673212 0.18796218607 
0.18925699599 0.19023378061 0.19088905937 0.19125718261 0.19139950866 0.19139113107 0.19130747302 0.19121245326 0.19114908334 
0.19113273427 0.19114711976 0.19114317593 0.19104116673 0.19073621146 0.19010692672 0.18902617675 0.18737235413 0.18503942594 
0.18194425233 0.17803030191 0.17326763785 0.16764972523 0.16118808123 0.15390601019 0.14583265082 0.13699835728 0.12743209076 
0.11716106918 0.10621247573 0.094616641398 0.082410874121 0.069643060938 0.056374313285 0.042680192591 0.028650347303 0.01438663822 
1.6460868777e-15 
_area 1 100 double
0 0.00051133984971 0.0020257133542 0.0044874723314 0.0078131612954 0.011900416711 0.016633236205 0.021882651164 0.027506302431 
0.033351661032 0.039265213207 0.045106802547 0.050766309982 0.056178934456 0.061335124676 0.066281522195 0.071110212324 0.075935636285 
0.080862361478 0.085952213495 0.091202804842 0.096546363511 0.10186839554 0.10703727157 0.11193338378 0.11646910694 0.12059546665 
0.12429635295 0.12757566705 0.13044591645 0.13292533773 0.13504275986 0.13684089375 0.1383678377 0.13965472585 0.14068924667 
0.14140028456 0.14166259597 0.14132016504 0.14022109235 0.13825483714 0.13538247102 0.131652309 0.12719693575 0.12221294721 
0.11693035729 0.11158129069 0.1063743728 0.10147540349 0.09699463428 0.09298700668 0.089472624871 0.086466631693 0.083981311753 
0.082014215989 0.0805591549 0.079586257414 0.07902456246 0.078788168312 0.078827703929 0.079166498743 0.079853601613 0.080772402354 
0.081637347262 0.082227806631 0.082451441482 0.082314159746 0.081890003431 0.081293070224 0.080652212521 0.080096338974 0.079752307909 
0.079747519691 0.0801814653 0.081017177799 0.08210403671 0.083257587661 0.08427805085 0.084964568754 0.085134129031 0.084635149297 
0.08335555726 0.081227399152 0.07822864208 0.074381946797 0.069750204054 0.064429289987 0.058539386266 0.052216874299 0.045608779168 
0.038870615983 0.032166564124 0.025669434161 0.019558086311 0.014011583706 0.0092010724261 0.0052810712431 0.0023814475098 0.00060059465681 
2.4513126062e-17 
