# vtk DataFile Version 5.1
vtk output
ASCII
DATASET POLYDATA
POINTS 100 float
0.17642 0.0482563 0.737828 0.176113 0.0485648 0.737648 0.175303 0.0493263 0.736952 
0.174036 0.0504964 0.735718 0.17238 0.052006 0.73391 0.170417 0.0537667 0.731485 
0.168231 0.0556784 0.728393 0.165892 0.0576366 0.724585 0.163448 0.0595408 0.720016 
0.160918 0.0613006 0.714648 0.158282 0.0628416 0.70846 0.155489 0.0641088 0.701444 
0.152458 0.0650677 0.693614 0.149087 0.065704 0.685003 0.145267 0.0660208 0.675661 
0.140891 0.0660351 0.665655 0.135874 0.0657733 0.655063 0.130153 0.0652666 0.64397 
0.123706 0.0645469 0.63246 0.116546 0.0636436 0.620607 0.108724 0.0625821 0.608477 
0.100325 0.0613824 0.596113 0.0914589 0.0600604 0.583539 0.0822484 0.058629 0.570757 
0.0728217 0.0571004 0.557746 0.0633006 0.055488 0.544469 0.0537927 0.053809 0.530874 
0.044386 0.0520851 0.516906 0.0351457 0.0503431 0.502507 0.0261143 0.0486149 0.487631 
0.0173137 0.0469358 0.472244 0.00874861 0.0453429 0.456328 0.000410577 0.0438727 0.439887 
-0.00771821 0.042559 0.422943 -0.0156621 0.0414315 0.40553 -0.0234504 0.0405142 0.387692 
-0.0311167 0.0398253 0.369476 -0.0386988 0.0393778 0.350921 -0.046239 0.0391807 0.332054 
-0.0537833 0.0392405 0.31288 -0.0613791 0.0395634 0.293386 -0.0690712 0.0401565 0.273533 
-0.0768955 0.0410292 0.253264 -0.0848713 0.0421934 0.232509 -0.0929927 0.0436626 0.211192 
-0.10122 0.0454505 0.189242 -0.109476 0.0475686 0.166605 -0.117636 0.0500228 0.14325 
-0.125539 0.0528106 0.11918 -0.132985 0.0559179 0.094438 -0.139754 0.0593173 0.0691018 
-0.145617 0.0629659 0.0432862 -0.15036 0.066806 0.0171341 -0.153804 0.0707663 -0.00919422 
-0.155821 0.0747639 -0.0355328 -0.156358 0.0787084 -0.0617235 -0.15544 0.082506 -0.0876288 
-0.153179 0.0860639 -0.113142 -0.149761 0.0892949 -0.138196 -0.145437 0.092121 -0.162765 
-0.140497 0.0944771 -0.186863 -0.135244 0.0963123 -0.210543 -0.129961 0.0975916 -0.233884 
-0.124882 0.0982952 -0.256978 -0.120166 0.098418 -0.279923 -0.11588 0.097968 -0.302805 
-0.111989 0.0969644 -0.325689 -0.108357 0.0954356 -0.348609 -0.104764 0.0934176 -0.371562 
-0.100927 0.0909523 -0.394508 -0.0965295 0.0880869 -0.417374 -0.0912598 0.084872 -0.440054 
-0.0848435 0.0813619 -0.462424 -0.0770751 0.077613 -0.484349 -0.0678423 0.0736834 -0.505693 
-0.0571391 0.0696308 -0.526331 -0.0450687 0.0655119 -0.546153 -0.0318344 0.0613795 -0.565075 
-0.0177196 0.0572805 -0.583037 -0.00306133 0.0532539 -0.600005 0.0117824 0.0493291 -0.615966 
0.0264645 0.0455241 -0.630928 0.0406781 0.041846 -0.644912 0.0541796 0.0382912 -0.657943 
0.0668024 0.0348473 -0.670052 0.078461 0.0314965 -0.681265 0.0891448 0.028219 -0.691606 
0.0989036 0.0249973 -0.70109 0.107827 0.0218208 -0.709732 0.11602 0.0186889 -0.717541 
0.123579 0.0156144 -0.724524 0.130576 0.0126245 -0.730692 0.137039 0.00976085 -0.736059 
0.14295 0.00707731 -0.740641 0.148245 0.00463673 -0.74446 0.152826 0.00250612 -0.747539 
0.156574 0.000751085 -0.749903 0.159372 -0.000569843 -0.751575 0.161117 -0.00141047 -0.752573 
0.161739 -0.0017412 -0.752907 
LINES 2 100
OFFSETS vtktypeint64
0 100 
CONNECTIVITY vtktypeint64
0 1 2 3 4 5 6 7 8 
9 10 11 12 13 14 15 16 17 
18 19 20 21 22 23 24 25 26 
27 28 29 30 31 32 33 34 35 
36 37 38 39 40 41 42 43 44 
45 46 47 48 49 50 51 52 53 
54 55 56 57 58 59 60 61 62 
63 64 65 66 67 68 69 70 71 
72 73 74 75 76 77 78 79 80 
81 82 83 84 85 86 87 88 89 
90 91 92 93 94 95 96 97 98 
99 
POINT_DATA 100
FIELD FieldData 3
_theta 1 100 double
0 0.031733259127 0.063466518254 0.095199777382 0.12693303651 0.15866629564 0.19039955476 0.22213281389 0.25386607302 
0.28559933214 0.31733259127 0.3490658504 0.38079910953 0.41253236865 0.44426562778 0.47599888691 0.50773214603 0.53946540516 
0.57119866429 0.60293192342 0.63466518254 0.66639844167 0.6981317008 0.72986495992 0.76159821905 0.79333147818 0.82506473731 
0.85679799643 0.88853125556 0.92026451469 0.95199777382 0.98373103294 1.0154642921 1.0471975512 1.0789308103 1.1106640695 
1.1423973286 1.1741305877 1.2058638468 1.237597106 1.2693303651 1.3010636242 1.3327968833 1.3645301425 1.3962634016 
1.4279966607 1.4597299198 1.491463179 1.5231964381 1.5549296972 1.5866629564 1.6183962155 1.6501294746 1.6818627337 
1.7135959929 1.745329252 1.7770625111 1.8087957702 1.8405290294 1.8722622885 1.9039955476 1.9357288068 1.9674620659 
1.999195325 2.0309285841 2.0626618433 2.0943951024 2.1261283615 2.1578616206 2.1895948798 2.2213281389 2.253061398 
2.2847946572 2.3165279163 2.3482611754 2.3799944345 2.4117276937 2.4434609528 2.4751942119 2.506927471 2.5386607302 
2.5703939893 2.6021272484 2.6338605076 2.6655937667 2.6973270258 2.7290602849 2.7607935441 2.7925268032 2.8242600623 
2.8559933214 2.8877265806 2.9194598397 2.9511930988 2.982926358 3.0146596171 3.0463928762 3.0781261353 3.1098593945 
3.1415926536 
_radius 1 100 double
3.4673646589e-16 0.015694066226 0.031169645062 0.046225223589 0.060692355006 0.074446863035 0.087414667113 0.099571677455 0.11093804432 
0.12156784261 0.13153589278 0.14092372848 0.14980664029 0.15824328632 0.16626874196 0.17389129933 0.18109297613 0.18783351812 
0.19405751951 0.19970401285 0.20471750986 0.20905913131 0.21271626744 0.21570922315 0.21809355782 0.21995735852 0.22141345203 
0.22258741164 0.22360293067 0.22456656033 0.22555390678 0.2265991884 0.22768960394 0.22876531397 0.22972511839 0.23043727256 
0.23075439098 0.23053098276 0.22964179101 0.22799883727 0.2255650575 0.22236275609 0.21847575763 0.21404496316 0.20925787211 
0.20433340286 0.19950394841 0.19499692583 0.19101795578 0.18773711488 0.18527857074 0.18371290118 0.18305129472 0.18324189237 
0.18416991067 0.1856634573 0.18750561599 0.18945146342 0.19124756504 0.19265159927 0.1934505671 0.193476855 0.1926217628 
0.19084579836 0.18818426426 0.18474610336 0.18070453125 0.17627982211 0.17171670842 0.16726022323 0.16313431022 0.15952688048 
0.15658289791 0.15440427991 0.1530533117 0.15255560039 0.15289899955 0.15402603396 0.15581980618 0.15808835196 0.16055827664 
0.16288812714 0.16470111698 0.16562548224 0.16533037026 0.16355195062 0.16010945488 0.15491215364 0.14795805834 0.1393250294 
0.12915543214 0.11763634048 0.10497809476 0.09139430884 0.077085971431 0.062231214264 0.046981005306 0.031459917213 0.015770529886 
8.1645636187e-16 
_area 1 100 double
0 0.0006310584739 0.0024880931893 0.0054691514804 0.0094240172193 0.014177975589 0.019555660305 0.025399555981 0.031580002234 
0.037996625131 0.044573976576 0.051255508687 0.057998866053 0.0647722845 0.071549029187 0.078297209916 0.084966576276 0.091478899984 
0.097729769665 0.10360510035 0.1090077007 0.11388280712 0.11823084351 0.12210169019 0.12557441299 0.12873360273 0.13165294629 
0.13438979009 0.13698775724 0.13948175906 0.14190019017 0.14426122138 0.14656338536 0.14877385208 0.15081784218 0.15256640365 
0.15382688326 0.15437635945 0.15402785092 0.15267254993 0.15028733486 0.14692534089 0.14270675787 0.13781054618 0.13245952815 
0.12689802725 0.12136759438 0.11608640838 0.11123589144 0.10695626829 0.103349595 0.10048323495 0.098382514983 0.097011620263 
0.096267359471 0.095980302882 0.095858266797 0.095497806154 0.094629661824 0.093084293111 0.090975458673 0.088314835053 0.085318656593 
0.082324094494 0.080140975649 0.078225984138 0.076362565925 0.074361449808 0.072126873065 0.069682541602 0.067164098893 0.064784651696 
0.062782674291 0.061356528371 0.060601778623 0.060479112362 0.060842296685 0.061515167931 0.062343661252 0.063226316101 0.064168587518 
0.0651970351 0.065891302288 0.065839454776 0.064757907923 0.062479552555 0.058980051008 0.054378218456 0.048899293418 0.042813921239 
0.03639216172 0.02989760737 0.02359081661 0.017717182347 0.012487775857 0.0080650675764 0.0045585076945 0.0020302135565 0.00050788140697 
4.2233168409e-17 
