# vtk DataFile Version 5.1
vtk output
ASCII
DATASET POLYDATA
POINTS 100 float
0.00335774 0.0615322 0.65986 0.00348109 0.0616268 0.659658 0.003894 0.0618014 0.658945 
0.00454343 0.0620557 0.657723 0.00534806 0.0623886 0.655995 0.00620871 0.0627978 0.653762 
0.0070208 0.063278 0.651021 0.00768694 0.0638198 0.647763 0.00812768 0.0644084 0.64397 
0.00828912 0.0650232 0.639614 0.00814611 0.0656371 0.634664 0.00770068 0.0662179 0.629085 
0.00697625 0.0667289 0.622847 0.00600848 0.0671312 0.615925 0.00483439 0.0673866 0.608311 
0.00348166 0.0674604 0.600013 0.00195979 0.0673245 0.591061 0.000254823 0.0669603 0.581502 
-0.0016715 0.0663615 0.571403 -0.00387784 0.0655355 0.560842 -0.00643508 0.0645043 0.5499 
-0.00941516 0.0633041 0.538654 -0.0128785 0.061984 0.52717 -0.0168621 0.0606029 0.515492 
-0.0213704 0.0592266 0.50364 -0.0263703 0.0579234 0.491609 -0.0317914 0.0567596 0.479366 
-0.0375317 0.0557951 0.466857 -0.0434688 0.0550794 0.454014 -0.0494735 0.0546483 0.440764 
-0.0554257 0.054522 0.427034 -0.0612291 0.0547035 0.412761 -0.0668227 0.0551796 0.397899 
-0.0721873 0.0559223 0.38242 -0.0773452 0.0568916 0.366315 -0.0823541 0.0580395 0.34959 
-0.0872936 0.0593143 0.332263 -0.0922483 0.0606649 0.314355 -0.0972885 0.0620457 0.295882 
-0.102451 0.0634201 0.276858 -0.107724 0.0647634 0.257281 -0.113039 0.0660646 0.237143 
-0.118265 0.0673267 0.216427 -0.123221 0.0685657 0.195118 -0.127689 0.0698084 0.173209 
-0.131435 0.071089 0.150711 -0.134235 0.072445 0.127663 -0.135903 0.0739126 0.104132 
-0.136314 0.0755225 0.0802216 -0.135426 0.0772955 0.056062 -0.133282 0.0792395 0.0318059 
-0.130018 0.0813473 0.00761363 -0.125846 0.0835959 -0.0163625 -0.121036 0.0859467 -0.039995 
-0.115886 0.0883477 -0.0631971 -0.110688 0.0907364 -0.085935 -0.105699 0.0930437 -0.108234 
-0.101109 0.0951982 -0.130179 -0.0970162 0.0971309 -0.151905 -0.0934193 0.0987795 -0.173581 
-0.0902137 0.100092 -0.19539 -0.0872035 0.101028 -0.217504 -0.0841224 0.101562 -0.240057 
-0.0806636 0.101684 -0.263123 -0.0765138 0.101396 -0.2867 -0.0713874 0.100711 -0.3107 
-0.065058 0.0996514 -0.33495 -0.0573821 0.0982433 -0.359206 -0.048314 0.0965153 -0.38317 
-0.0379094 0.0944946 -0.406522 -0.0263178 0.092205 -0.428948 -0.013766 0.0896649 -0.450175 
-0.000533705 0.0868878 -0.469996 0.0130748 0.0838826 -0.488292 0.0267589 0.080656 -0.505044 
0.0402476 0.0772146 -0.520324 0.0533193 0.0735681 -0.534292 0.0658141 0.0697327 -0.547161 
0.077637 0.0657334 -0.559173 0.0887537 0.0616064 -0.570561 0.0991787 0.0573994 -0.581514 
0.10896 0.0531715 -0.592152 0.118159 0.0489914 -0.602502 0.126838 0.0449343 -0.612495 
0.13504 0.0410772 -0.62197 0.142785 0.0374946 -0.630696 0.150065 0.034253 -0.638402 
0.156845 0.0314059 -0.644815 0.163075 0.0289894 -0.649699 0.168698 0.0270198 -0.652896 
0.173662 0.0254914 -0.654353 0.177933 0.0243769 -0.654146 0.181501 0.02363 -0.652477 
0.184384 0.0231885 -0.649669 0.186628 0.0229803 -0.646137 0.188302 0.0229286 -0.64235 
0.189484 0.0229595 -0.638784 0.190255 0.0230077 -0.635877 0.190681 0.0230226 -0.633979 
0.190807 0.0229727 -0.633316 
LINES 2 100
OFFSETS vtktypeint64
0 100 
CONNECTIVITY vtktypeint64
0 1 2 3 4 5 6 7 8 
9 10 11 12 13 14 15 16 17 
18 19 20 21 22 23 24 25 26 
27 28 29 30 31 32 33 34 35 
36 37 38 39 40 41 42 43 44 
45 46 47 48 49 50 51 52 53 
54 55 56 57 58 59 60 61 62 
63 64 65 66 67 68 69 70 71 
72 73 74 75 76 77 78 79 80 
81 82 83 84 85 86 87 88 89 
90 91 92 93 94 95 96 97 98 
99 
POINT_DATA 100
FIELD FieldData 3
_theta 1 100 double
0 0.031733259127 0.063466518254 0.095199777382 0.12693303651 0.15866629564 0.19039955476 0.22213281389 0.25386607302 
0.28559933214 0.31733259127 0.3490658504 0.38079910953 0.41253236865 0.44426562778 0.47599888691 0.50773214603 0.53946540516 
0.57119866429 0.60293192342 0.63466518254 0.66639844167 0.6981317008 0.72986495992 0.76159821905 0.79333147818 0.82506473731 
0.85679799643 0.88853125556 0.92026451469 0.95199777382 0.98373103294 1.0154642921 1.0471975512 1.0789308103 1.1106640695 
1.1423973286 1.1741305877 1.2058638468 1.237597106 1.2693303651 1.3010636242 1.3327968833 1.3645301425 1.3962634016 
1.4279966607 1.4597299198 1.491463179 1.5231964381 1.5549296972 1.5866629564 1.6183962155 1.6501294746 1.6818627337 
1.7135959929 1.745329252 1.7770625111 1.8087957702 1.8405290294 1.8722622885 1.9039955476 1.9357288068 1.9674620659 
1.999195325 2.0309285841 2.0626618433 2.0943951024 2.1261283615 2.1578616206 2.1895948798 2.2213281389 2.253061398 
2.2847946572 2.3165279163 2.3482611754 2.3799944345 2.4117276937 2.4434609528 2.4751942119 2.506927471 2.5386607302 
2.5703939893 2.6021272484 2.6338605076 2.6655937667 2.6973270258 2.7290602849 2.7607935441 2.7925268032 2.8242600623 
2.8559933214 2.8877265806 2.9194598397 2.9511930988 2.982926358 3.0146596171 3.0463928762 3.0781261353 3.1098593945 
3.1415926536 
_radius 1 100 double
1.3368925897e-15 0.014507416419 0.028826081237 0.042782553101 0.056230353767 0.069058859219 0.081197644114 0.092616102715 0.1033189625 
0.1133389396 0.12272806795 0.13154903234 0.13986725958 0.14774395119 0.15523002073 0.16236104636 0.16915362936 0.17560373318 
0.1816875541 0.18736520848 0.19258701794 0.19730153496 0.20146390436 0.20504296095 0.20802573871 0.21041871269 0.21224585824 
0.21354423835 0.21435816036 0.21473295775 0.21470923981 0.21431816855 0.21357812056 0.21249304293 0.21105286287 0.20923631456 
0.20701636262 0.20436798995 0.20127756909 0.19775251993 0.19382963751 0.18958045239 0.18511227071 0.18056407195 0.17609713135 
0.17188101447 0.16807642688 0.1648172003 0.16219419683 0.16024373166 0.15894211096 0.15820649784 0.15790133933 0.15784942648 
0.15784698639 0.15768232163 0.15715702982 0.15610797998 0.15442749897 0.15207895688 0.14910523225 0.1456283849 0.14184014451 
0.13798424986 0.13433287163 0.13115999152 0.12871458001 0.12719595877 0.12673334484 0.12737152651 0.12906463685 0.13167950686 
0.13500880066 0.13879235534 0.14274360397 0.14657723214 0.15003433909 0.15290204053 0.15502539824 0.15631066962 0.1567201055 
0.15625985422 0.15496378014 0.15287668219 0.1500398812 0.14648050293 0.14220422279 0.13719091097 0.13139327768 0.12473918997 
0.11713826036 0.10849280404 0.098712656516 0.087732680762 0.0755310153 0.062145361556 0.047684228048 0.032330348504 0.016334550861 
1.5689758064e-15 
_area 1 100 double
0 0.000463541426 0.0018260671543 0.0040086011652 0.0068962733453 0.010360129146 0.014280876421 0.018566978401 0.023158470533 
0.028015004311 0.033099477179 0.038369303948 0.043775219719 0.049261449993 0.054764499671 0.060212448334 0.065528204563 0.070638443808 
0.07548670778 0.08004674495 0.084331518206 0.088393579895 0.092312928754 0.096169729731 0.10000471716 0.10378377209 0.10739416565 
0.11068050528 0.11349366046 0.11572457023 0.11731690735 0.11826478972 0.11860210664 0.11838744418 0.11768669597 0.11655475014 
0.11501857097 0.1130673769 0.11065857658 0.10774266334 0.10429747719 0.10035619708 0.096018583802 0.091443002985 0.086822652738 
0.082353830585 0.078206851142 0.074505992464 0.071320562129 0.068674677078 0.066557395159 0.064925985207 0.063712499941 0.062827969044 
0.062161938291 0.061577544064 0.060909120892 0.059975261597 0.058607777989 0.056686354852 0.054173488175 0.051143187485 0.047790387161 
0.044418977777 0.04165680004 0.039869603867 0.038834848441 0.038597357135 0.039113975993 0.040237026576 0.041819794206 0.043740660801 
0.045877139586 0.048091721684 0.050237479031 0.05217661501 0.053800730627 0.055039540345 0.055860297584 0.056278659376 0.056366540554 
0.05623162696 0.056023324925 0.055722013661 0.05502118243 0.053722081419 0.051696961691 0.048869648708 0.04521885507 0.040791070332 
0.035711960889 0.030184395966 0.024468979563 0.018852034697 0.013611017094 0.0089884200811 0.0051813911757 0.0023442660708 0.00059250221696 
2.3068917828e-17 
