# vtk DataFile Version 5.1
vtk output
ASCII
DATASET POLYDATA
POINTS 100 float
0.179595 0.0441789 0.713433 0.17954 0.0443963 0.713362 0.179457 0.0449201 0.71298 
0.179314 0.0457247 0.712265 0.179062 0.0467702 0.711183 0.17864 0.0480058 0.709688 
0.177975 0.0493747 0.707726 0.176996 0.0508179 0.705239 0.175633 0.052279 0.70217 
0.173825 0.0537074 0.698465 0.171526 0.0550603 0.694076 0.168701 0.0563036 0.68897 
0.165335 0.0574117 0.683125 0.161426 0.0583652 0.676538 0.156984 0.0591496 0.669224 
0.152031 0.059752 0.661213 0.146596 0.0601595 0.652553 0.14071 0.0603574 0.643302 
0.134406 0.0603293 0.633527 0.127713 0.0600577 0.623298 0.120661 0.059526 0.612681 
0.113274 0.0587218 0.601733 0.105574 0.0576398 0.590498 0.0975836 0.0562857 0.578999 
0.0893233 0.0546785 0.56724 0.0808168 0.0528525 0.555199 0.0720893 0.0508576 0.542834 
0.0631688 0.0487579 0.530081 0.0540852 0.0466291 0.516862 0.0448693 0.0445546 0.503091 
0.0355513 0.04262 0.488676 0.0261587 0.0409087 0.473533 0.0167156 0.0394959 0.457586 
0.00724146 0.038445 0.440779 -0.00224829 0.0378042 0.423078 -0.011741 0.0376043 0.404474 
-0.021224 0.0378589 0.384982 -0.0306813 0.0385652 0.364644 -0.040089 0.0397058 0.343521 
-0.0494117 0.0412516 0.321691 -0.058598 0.0431646 0.299243 -0.067579 0.0454006 0.276268 
-0.0762669 0.0479115 0.252857 -0.0845571 0.0506468 0.229091 -0.0923315 0.0535549 0.205044 
-0.0994652 0.0565834 0.180771 -0.105834 0.0596794 0.156319 -0.111324 0.0627902 0.131719 
-0.11584 0.0658637 0.106994 -0.119317 0.0688502 0.082162 -0.121722 0.0717044 0.0572391 
-0.123063 0.074388 0.0322454 -0.12339 0.0768725 0.00720737 -0.122789 0.0791422 -0.0178392 
-0.121379 0.0811962 -0.0428486 -0.119301 0.083049 -0.0677662 -0.116707 0.0847302 -0.0925307 
-0.113747 0.0862815 -0.117078 -0.110556 0.0877518 -0.141345 -0.107241 0.0891917 -0.165276 
-0.103876 0.0906453 -0.188825 -0.100493 0.092143 -0.21196 -0.0970842 0.0936944 -0.234665 
-0.093605 0.0952828 -0.256938 -0.0899819 0.0968621 -0.278792 -0.0861252 0.0983572 -0.300249 
-0.0819434 0.0996677 -0.321337 -0.0773581 0.100675 -0.342079 -0.0723185 0.10125 -0.362496 
-0.0668136 0.10127 -0.382591 -0.0608797 0.100626 -0.402354 -0.054604 0.0992345 -0.421756 
-0.0481218 0.0970506 -0.440747 -0.0416089 0.0940712 -0.459264 -0.0352682 0.0903377 -0.477231 
-0.0293132 0.0859332 -0.49457 -0.0239493 0.0809752 -0.511206 -0.0193541 0.0756048 -0.527075 
-0.0156601 0.069973 -0.542135 -0.0129408 0.0642262 -0.556368 -0.0112013 0.0584923 -0.569785 
-0.0103762 0.0528694 -0.582427 -0.0103328 0.0474176 -0.594362 -0.0108823 0.0421567 -0.605677 
-0.0117954 0.0370685 -0.616475 -0.0128226 0.0321041 -0.626859 -0.013717 0.0271956 -0.636923 
-0.0142568 0.0222703 -0.646739 -0.0142662 0.0172664 -0.656349 -0.0136317 0.0121474 -0.665759 
-0.0123128 0.00691343 -0.674927 -0.0103456 0.001609 -0.683771 -0.00783965 -0.00367553 -0.692171 
-0.00496667 -0.00880771 -0.69997 -0.00194416 -0.0136225 -0.706995 0.000986063 -0.017936 -0.713063 
0.00358144 -0.021563 -0.717997 0.0056225 -0.0243339 -0.721643 0.0069344 -0.0261123 -0.723879 
0.00740405 -0.0268088 -0.724628 
LINES 2 100
OFFSETS vtktypeint64
0 100 
CONNECTIVITY vtktypeint64
0 1 2 3 4 5 6 7 8 
9 10 11 12 13 14 15 16 17 
18 19 20 21 22 23 24 25 26 
27 28 29 30 31 32 33 34 35 
36 37 38 39 40 41 42 43 44 
45 46 47 48 49 50 51 52 53 
54 55 56 57 58 59 60 61 62 
63 64 65 66 67 68 69 70 71 
72 73 74 75 76 77 78 79 80 
81 82 83 84 85 86 87 88 89 
90 91 92 93 94 95 96 97 98 
99 
POINT_DATA 100
FIELD FieldData 3
_theta 1 100 double
0 0.031733259127 0.063466518254 0.095199777382 0.12693303651 0.15866629564 0.19039955476 0.22213281389 0.25386607302 
0.28559933214 0.31733259127 0.3490658504 0.38079910953 0.41253236865 0.44426562778 0.47599888691 0.50773214603 0.53946540516 
0.57119866429 0.60293192342 0.63466518254 0.66639844167 0.6981317008 0.72986495992 0.76159821905 0.79333147818 0.82506473731 
0.85679799643 0.88853125556 0.92026451469 0.95199777382 0.98373103294 1.0154642921 1.0471975512 1.0789308103 1.1106640695 
1.1423973286 1.1741305877 1.2058638468 1.237597106 1.2693303651 1.3010636242 1.3327968833 1.3645301425 1.3962634016 
1.4279966607 1.4597299198 1.491463179 1.5231964381 1.5549296972 1.5866629564 1.6183962155 1.6501294746 1.6818627337 
1.7135959929 1.745329252 1.7770625111 1.8087957702 1.8405290294 1.8722622885 1.9039955476 1.9357288068 1.9674620659 
1.999195325 2.0309285841 2.0626618433 2.0943951024 2.1261283615 2.1578616206 2.1895948798 2.2213281389 2.253061398 
2.2847946572 2.3165279163 2.3482611754 2.3799944345 2.4117276937 2.4434609528 2.4751942119 2.506927471 2.5386607302 
2.5703939893 2.6021272484 2.6338605076 2.6655937667 2.6973270258 2.7290602849 2.7607935441 2.7925268032 2.8242600623 
2.8559933214 2.8877265806 2.9194598397 2.9511930988 2.982926358 3.0146596171 3.0463928762 3.0781261353 3.1098593945 
3.1415926536 
_radius 1 100 double
1.895982131e-15 0.015539703064 0.030966622999 0.046171000866 0.06105296715 0.075526055675 0.08951925349 0.10297739239 0.11585994619 
0.12813855482 0.13979376437 0.15081150106 0.16117971115 0.17088548461 0.17991290925 0.18824187918 0.19584805162 0.20270406524 
0.20878201618 0.21405708502 0.21851212616 0.22214289763 0.2249633376 0.22700990213 0.22834366335 0.22904890024 0.2292274542 
0.22898908702 0.22843919514 0.22766616737 0.22673112732 0.22566256502 0.22445736783 0.22308818902 0.22151539596 0.21970058718 
0.21761829672 0.21526319683 0.21265181662 0.20982007707 0.20681962981 0.20371563139 0.20058614024 0.19752084289 0.19461641027 
0.19196755212 0.18965538323 0.18773661587 0.18623742897 0.18515434019 0.18446163105 0.18412222789 0.18409776476 0.18435439033 
0.18486326485 0.18559732929 0.18652727416 0.18761900812 0.18883315047 0.19012563859 0.19144822735 0.19274824837 0.19396791664 
0.19504423156 0.19591077101 0.19650221571 0.19676130426 0.19664651223 0.19613782073 0.19523825497 0.1939705145 0.1923699484 
0.19047607768 0.18832475498 0.1859425283 0.18334389763 0.1805308057 0.17749255791 0.1742044778 0.17062519411 0.16669438989 
0.16233356343 0.15745138579 0.15195359334 0.14575620399 0.13880023503 0.13106540932 0.122579595 0.11342074963 0.10370950839 
0.09359298039 0.083222952666 0.07273364435 0.062224675479 0.051753618447 0.041339535912 0.03097510775 0.020641731765 0.010321139053 
1.8966453483e-15 
_area 1 100 double
0 0.00057258361125 0.0022722926397 0.005047471 0.0088194939714 0.013491540255 0.018956720612 0.025103098134 0.031814815564 
0.038971030443 0.04644601741 0.05411328478 0.061854068891 0.069567501416 0.077177651551 0.084632753631 0.091894820731 0.098922737281 
0.10565619654 0.11200844228 0.11787206251 0.12313654693 0.12771199865 0.13155168988 0.134666841 0.13712913975 0.13905916901 
0.14060161394 0.14189120677 0.14301737067 0.14399909507 0.14478075899 0.14525209899 0.14528524783 0.14477551881 0.14367279681 
0.14199430355 0.13981407465 0.1372307014 0.13432661359 0.13114480493 0.12770277096 0.12403350515 0.12022143916 0.11640906044 
0.11277111873 0.10946803353 0.10659649252 0.10415990988 0.10207764236 0.10022645498 0.098486845351 0.096774763144 0.095054291675 
0.093334110653 0.091654006641 0.090068950347 0.088636877039 0.08741018334 0.086425751114 0.085691400197 0.085175346068 0.08480754441 
0.084490382165 0.084107972589 0.083529155065 0.082613195938 0.081236423539 0.079332334002 0.076917928441 0.074103887977 0.071097204969 
0.068178233786 0.065631864089 0.063650334417 0.062309770471 0.061479772743 0.061037018799 0.060855558743 0.060756678517 0.060537096383 
0.060000430909 0.058976637049 0.057331743448 0.054972878455 0.051853649123 0.047981027389 0.043420665821 0.038297083616 0.032787946395 
0.027114115088 0.021525641505 0.016280257587 0.011612662185 0.0077009196948 0.0046409989743 0.0024373461705 0.0010127892608 0.00024057763549 
1.4145658013e-17 
