# vtk DataFile Version 5.1
vtk output
ASCII
DATASET POLYDATA
POINTS 100 float
0.179063 0.069017 0.739366 0.179149 0.0691477 0.739415 0.179475 0.0693899 0.739374 
0.179971 0.0697434 0.739185 0.180524 0.0702076 0.738756 0.180993 0.0707789 0.737969 
0.181222 0.0714496 0.73669 0.181056 0.0722051 0.734783 0.180354 0.0730228 0.732117 
0.179 0.0738709 0.72858 0.176913 0.074708 0.724091 0.17405 0.0754844 0.7186 
0.170402 0.0761435 0.712099 0.165994 0.076625 0.704616 0.160875 0.0768677 0.696217 
0.155105 0.0768144 0.686998 0.148753 0.0764153 0.677075 0.141883 0.0756321 0.666574 
0.134548 0.0744411 0.655623 0.126794 0.0728356 0.644336 0.118652 0.0708272 0.632807 
0.110147 0.0684454 0.621103 0.101301 0.0657364 0.609258 0.0921419 0.0627611 0.597275 
0.0827037 0.0595912 0.585123 0.0730345 0.0563055 0.572749 0.0631956 0.052986 0.560081 
0.0532595 0.0497135 0.547036 0.0433049 0.046564 0.533535 0.0334087 0.0436057 0.519504 
0.0236379 0.0408967 0.504885 0.0140403 0.038484 0.48964 0.00463822 0.0364029 0.473753 
-0.00457603 0.0346776 0.457224 -0.0136397 0.0333224 0.440074 -0.0226152 0.0323433 0.422328 
-0.0315817 0.0317397 0.404017 -0.0406226 0.0315063 0.385168 -0.0498116 0.0316346 0.365794 
-0.0591982 0.0321142 0.345895 -0.0687946 0.0329334 0.325454 -0.0785667 0.0340795 0.304438 
-0.0884291 0.0355388 0.2828 -0.0982463 0.0372958 0.260489 -0.10784 0.0393331 0.237453 
-0.117 0.0416301 0.213655 -0.125504 0.0441625 0.189072 -0.133133 0.0469024 0.16371 
-0.139691 0.0498175 0.137603 -0.145023 0.052872 0.110816 -0.149024 0.0560267 0.0834447 
-0.151652 0.0592403 0.0556081 -0.152923 0.06247 0.0274413 -0.152911 0.065673 -0.000913855 
-0.151732 0.0688077 -0.0293193 -0.149533 0.0718343 -0.0576504 -0.14647 0.0747157 -0.0858042 
-0.142699 0.0774184 -0.113705 -0.138352 0.0799118 -0.141305 -0.133533 0.0821691 -0.168588 
-0.128305 0.0841661 -0.195557 -0.122699 0.0858816 -0.222235 -0.116708 0.0872963 -0.248651 
-0.110307 0.0883927 -0.274834 -0.103457 0.0891548 -0.300803 -0.0961238 0.0895682 -0.32656 
-0.0882884 0.0896199 -0.352086 -0.0799575 0.0892991 -0.37734 -0.0711699 0.0885979 -0.402263 
-0.0619981 0.0875115 -0.426777 -0.052545 0.0860396 -0.450799 -0.0429369 0.0841867 -0.474245 
-0.0333129 0.081963 -0.497038 -0.0238136 0.0793844 -0.519113 -0.0145695 0.0764731 -0.540426 
-0.00569103 0.0732568 -0.56095 0.00273796 0.0697683 -0.580678 0.0106631 0.0660448 -0.599613 
0.0180583 0.0621268 -0.61777 0.0249215 0.0580567 -0.635159 0.0312667 0.0538779 -0.651785 
0.0371159 0.0496334 -0.667637 0.0424903 0.0453649 -0.682686 0.0474033 0.0411123 -0.696882 
0.0518562 0.0369128 -0.710159 0.0558374 0.0328007 -0.722439 0.0593245 0.028808 -0.73364 
0.0622901 0.0249638 -0.743688 0.0647093 0.0212954 -0.752525 0.066568 0.0178284 -0.760123 
0.0678712 0.014587 -0.766487 0.0686483 0.0115947 -0.771661 0.0689563 0.00887403 -0.775727 
0.0688784 0.00644689 -0.778805 0.0685191 0.00433411 -0.781035 0.067996 0.00255513 -0.782574 
0.0674289 0.00112746 -0.783578 0.0669274 6.60553e-05 -0.784185 0.0665799 -0.000617239 -0.784507 
0.0664438 -0.000914251 -0.784613 
LINES 2 100
OFFSETS vtktypeint64
0 100 
CONNECTIVITY vtktypeint64
0 1 2 3 4 5 6 7 8 
9 10 11 12 13 14 15 16 17 
18 19 20 21 22 23 24 25 26 
27 28 29 30 31 32 33 34 35 
36 37 38 39 40 41 42 43 44 
45 46 47 48 49 50 51 52 53 
54 55 56 57 58 59 60 61 62 
63 64 65 66 67 68 69 70 71 
72 73 74 75 76 77 78 79 80 
81 82 83 84 85 86 87 88 89 
90 91 92 93 94 95 96 97 98 
99 
POINT_DATA 100
FIELD FieldData 3
_theta 1 100 double
0 0.031733259127 0.063466518254 0.095199777382 0.12693303651 0.15866629564 0.19039955476 0.22213281389 0.25386607302 
0.28559933214 0.31733259127 0.3490658504 0.38079910953 0.41253236865 0.44426562778 0.47599888691 0.50773214603 0.53946540516 
0.57119866429 0.60293192342 0.63466518254 0.66639844167 0.6981317008 0.72986495992 0.76159821905 0.79333147818 0.82506473731 
0.85679799643 0.88853125556 0.92026451469 0.95199777382 0.98373103294 1.0154642921 1.0471975512 1.0789308103 1.1106640695 
1.1423973286 1.1741305877 1.2058638468 1.237597106 1.2693303651 1.3010636242 1.3327968833 1.3645301425 1.3962634016 
1.4279966607 1.4597299198 1.491463179 1.5231964381 1.5549296972 1.5866629564 1.6183962155 1.6501294746 1.6818627337 
1.7135959929 1.745329252 1.7770625111 1.8087957702 1.8405290294 1.8722622885 1.9039955476 1.9357288068 1.9674620659 
1.999195325 2.0309285841 2.0626618433 2.0943951024 2.1261283615 2.1578616206 2.1895948798 2.2213281389 2.253061398 
2.2847946572 2.3165279163 2.3482611754 2.3799944345 2.4117276937 2.4434609528 2.4751942119 2.506927471 2.5386607302 
2.5703939893 2.6021272484 2.6338605076 2.6655937667 2.6973270258 2.7290602849 2.7607935441 2.7925268032 2.8242600623 
2.8559933214 2.8877265806 2.9194598397 2.9511930988 2.982926358 3.0146596171 3.0463928762 3.0781261353 3.1098593945 
3.1415926536 
_radius 1 100 double
9.0578482892e-16 0.016439470719 0.032730770227 0.048729975805 0.064308223226 0.079356378922 0.093786983152 0.10753371507 0.12054916986 
0.13280195218 0.144273906 0.15495783065 0.16485553507 0.17397582799 0.18233215217 0.18993994533 0.19681419803 0.20296784963 
0.20841155258 0.21315504271 0.21721002644 0.22059420679 0.22333580232 0.22547765132 0.22707981135 0.22821960911 0.22898847135 
0.22948552778 0.22980871884 0.23004470293 0.23025905943 0.23048812762 0.23073347978 0.23095971064 0.23109600948 0.23104176581 
0.23067610001 0.22987069288 0.22850475767 0.22648061558 0.22373816342 0.2202665367 0.21611144762 0.21137700983 0.20622134011 
0.20084582111 0.19547861248 0.19035384123 0.18568889208 0.18166322727 0.17840282576 0.17597381889 0.17438619068 0.17360404576 
0.17355614071 0.17414189538 0.17523270011 0.17667243232 0.17828227561 0.17987284584 0.18126275523 0.1822995743 0.18287824641 
0.18295308833 0.18254143563 0.18171885209 0.18060716583 0.17935729971 0.17812906155 0.17707010358 0.17629653592 0.17587814443 
0.17583100699 0.17611868119 0.17666057849 0.17734434583 0.17803897109 0.17860631184 0.17890984031 0.17882021303 0.17821791379 
0.17699380302 0.17504881565 0.17229403316 0.16865182203 0.16405791117 0.15846360112 0.15183710047 0.14416333599 0.13544228121 
0.12568656279 0.11491952747 0.10317490616 0.090498694485 0.076953053057 0.06262119749 0.047611688744 0.032060443003 0.016129199187 
4.1519708558e-16 
_area 1 100 double
0 0.00065359693737 0.0025963446753 0.0057750013056 0.010103452587 0.015465770176 0.021719507033 0.028699477871 0.03622306387 
0.044098209476 0.052134375945 0.060155153229 0.068009895811 0.075581441686 0.08278798957 0.089579226161 0.095928941566 0.10182746853 
0.10727646389 0.11228620785 0.11687371339 0.12106047723 0.12487097799 0.12833395951 0.13148635492 0.13437607493 0.13705867784 
0.13958687005 0.14199758435 0.14430228512 0.14648243045 0.14848923609 0.15024648725 0.15165622812 0.15260870473 0.15299767058 
0.15273765405 0.15177211353 0.15006435195 0.1475882056 0.14433959636 0.14035475578 0.13571699369 0.13055193853 0.12501594952 
0.11928213143 0.11352924248 0.10793572421 0.10267232482 0.097883046308 0.093656943255 0.090016539951 0.086947632035 0.084446780801 
0.082538865444 0.081255079966 0.080583051269 0.080454691931 0.080565073745 0.080629199358 0.080298740582 0.079406588563 0.077917677212 
0.075943908157 0.073714161913 0.071503085398 0.069529753186 0.067895522963 0.066617569281 0.065675567759 0.065016079976 0.064562531195 
0.064241181183 0.063996340573 0.063796714531 0.063643691815 0.063578153803 0.063676523627 0.064030826357 0.064702929835 0.065646301998 
0.066650096156 0.067388634084 0.067526586513 0.066791897329 0.065009877369 0.062113629878 0.058138240358 0.053203604917 0.047491580459 
0.041223564714 0.034643106877 0.028004815145 0.021567297765 0.01558632846 0.010305652308 0.0059454656864 0.0026905124504 0.0006799313361 
1.3992984289e-17 
