# vtk DataFile Version 5.1
vtk output
ASCII
DATASET POLYDATA
POINTS 100 float
0.099263 0.0556029 0.745605 0.0993377 0.0558352 0.745292 0.0995991 0.0563589 0.744217 
0.0999982 0.057133 0.742424 0.100461 0.0580954 0.739972 0.100896 0.0591699 0.736929 
0.101213 0.0602738 0.733359 0.101326 0.061327 0.729306 0.101171 0.0622596 0.724786 
0.10071 0.0630184 0.719781 0.0999351 0.0635704 0.714239 0.0988655 0.0639043 0.708079 
0.0975406 0.0640285 0.701207 0.0960099 0.0639675 0.693525 0.0943202 0.0637553 0.684954 
0.0925026 0.0634288 0.675446 0.0905608 0.0630212 0.664996 0.0884637 0.0625556 0.653653 
0.0861425 0.0620419 0.641515 0.0834938 0.0614743 0.628726 0.0803881 0.0608333 0.615459 
0.0766836 0.0600885 0.601897 0.0722434 0.0592047 0.588214 0.0669537 0.058148 0.57455 
0.0607409 0.0568936 0.560997 0.0535858 0.0554311 0.547587 0.0455315 0.0537699 0.534285 
0.0366852 0.0519407 0.520994 0.0272121 0.049996 0.507572 0.0173226 0.0480058 0.493841 
0.00725356 0.0460531 0.479619 -0.00275435 0.0442256 0.464737 -0.01248 0.0426083 0.449062 
-0.0217438 0.041275 0.432512 -0.0304254 0.0402813 0.415066 -0.0384744 0.0396604 0.396761 
-0.0459133 0.0394201 0.377683 -0.0528314 0.0395441 0.357954 -0.0593707 0.0399951 0.337709 
-0.0657054 0.0407207 0.317072 -0.0720162 0.0416611 0.296136 -0.0784635 0.0427572 0.274948 
-0.0851628 0.0439581 0.253497 -0.0921635 0.0452277 0.231716 -0.0994359 0.046549 0.20949 
-0.106867 0.0479256 0.186673 -0.114263 0.0493802 0.163111 -0.121368 0.0509508 0.138668 
-0.127883 0.0526842 0.113249 -0.13349 0.0546283 0.0868248 -0.137889 0.0568235 0.059441 
-0.140822 0.0592955 0.031224 -0.142096 0.0620489 0.00237426 -0.141608 0.0650624 -0.0268497 
-0.139347 0.0682887 -0.0561552 -0.135401 0.0716547 -0.0852438 -0.129941 0.0750669 -0.113841 
-0.123208 0.078417 -0.141722 -0.115486 0.0815906 -0.168736 -0.107076 0.0844751 -0.194814 
-0.0982661 0.0869687 -0.219971 -0.0893064 0.0889868 -0.244301 -0.0803879 0.0904678 -0.267954 
-0.0716295 0.0913758 -0.291113 -0.063073 0.0917008 -0.313966 -0.0546871 0.0914567 -0.336679 
-0.0463795 0.0906773 -0.359371 -0.0380152 0.0894104 -0.382098 -0.0294396 0.0877117 -0.404847 
-0.0205025 0.0856385 -0.427538 -0.0110812 0.083244 -0.450034 -0.00110042 0.0805731 -0.472164 
0.00945462 0.0776596 -0.493744 0.0205313 0.0745259 -0.514604 0.0320108 0.0711837 -0.534605 
0.0437166 0.0676369 -0.553661 0.0554287 0.0638852 -0.571745 0.0669034 0.0599284 -0.588886 
0.0778941 0.0557704 -0.605161 0.0881729 0.0514234 -0.620681 0.0975496 0.0469099 -0.635564 
0.105887 0.0422647 -0.649917 0.113108 0.0375342 -0.663815 0.119204 0.0327751 -0.677282 
0.124224 0.0280518 -0.690289 0.128271 0.0234325 -0.702749 0.131486 0.0189851 -0.714533 
0.134033 0.0147732 -0.725481 0.136081 0.0108522 -0.735429 0.137786 0.00726614 -0.74423 
0.139281 0.00404601 -0.751779 0.140661 0.00120886 -0.758024 0.141985 -0.00124168 -0.762984 
0.143269 -0.0033137 -0.766741 0.144496 -0.00502444 -0.769437 0.145621 -0.00639693 -0.771254 
0.146585 -0.00745633 -0.772392 0.147326 -0.00822636 -0.773042 0.14779 -0.008726 -0.773363 
0.147939 -0.00896695 -0.773457 
LINES 2 100
OFFSETS vtktypeint64
0 100 
CONNECTIVITY vtktypeint64
0 1 2 3 4 5 6 7 8 
9 10 11 12 13 14 15 16 17 
18 19 20 21 22 23 24 25 26 
27 28 29 30 31 32 33 34 35 
36 37 38 39 40 41 42 43 44 
45 46 47 48 49 50 51 52 53 
54 55 56 57 58 59 60 61 62 
63 64 65 66 67 68 69 70 71 
72 73 74 75 76 77 78 79 80 
81 82 83 84 85 86 87 88 89 
90 91 92 93 94 95 96 97 98 
99 
POINT_DATA 100
FIELD FieldData 3
_theta 1 100 double
0 0.031733259127 0.063466518254 0.095199777382 0.12693303651 0.15866629564 0.19039955476 0.22213281389 0.25386607302 
0.28559933214 0.31733259127 0.3490658504 0.38079910953 0.41253236865 0.44426562778 0.47599888691 0.50773214603 0.53946540516 
0.57119866429 0.60293192342 0.63466518254 0.66639844167 0.6981317008 0.72986495992 0.76159821905 0.79333147818 0.82506473731 
0.85679799643 0.88853125556 0.92026451469 0.95199777382 0.98373103294 1.0154642921 1.0471975512 1.0789308103 1.1106640695 
1.1423973286 1.1741305877 1.2058638468 1.237597106 1.2693303651 1.3010636242 1.3327968833 1.3645301425 1.3962634016 
1.4279966607 1.4597299198 1.491463179 1.5231964381 1.5549296972 1.5866629564 1.6183962155 1.6501294746 1.6818627337 
1.7135959929 1.745329252 1.7770625111 1.8087957702 1.8405290294 1.8722622885 1.9039955476 1.9357288068 1.9674620659 
1.999195325 2.0309285841 2.0626618433 2.0943951024 2.1261283615 2.1578616206 2.1895948798 2.2213281389 2.253061398 
2.2847946572 2.3165279163 2.3482611754 2.3799944345 2.4117276937 2.4434609528 2.4751942119 2.506927471 2.5386607302 
2.5703939893 2.6021272484 2.6338605076 2.6655937667 2.6973270258 2.7290602849 2.7607935441 2.7925268032 2.8242600623 
2.8559933214 2.8877265806 2.9194598397 2.9511930988 2.982926358 3.0146596171 3.0463928762 3.0781261353 3.1098593945 
3.1415926536 
_radius 1 100 double
3.1524274001e-16 0.015575247142 0.03116783572 0.046774409334 0.062369724103 0.077900781126 0.09328538798 0.10841524449 0.12316308066 
0.13739295494 0.15097246013 0.16378525041 0.17574210427 0.18678884555 0.1969099277 0.20612721343 0.21449420763 0.22208655173 
0.22898998924 0.23528741497 0.24104705383 0.24631404276 0.25110733967 0.25542279397 0.25924164114 0.26254218983 0.26531159041 
0.26755457521 0.26929692007 0.27058285931 0.27146739175 0.27200579664 0.27224320934 0.27220659389 0.2719002353 0.27130463758 
0.27037802348 0.26905965914 0.26727474341 0.26494118084 0.26197879217 0.25832120941 0.25392993322 0.24880907496 0.24301848374 
0.2366825158 0.22999177342 0.22319575399 0.21658548184 0.21046683328 0.20512743651 0.20080255113 0.19764719288 0.19572100072 
0.19498796108 0.19532758253 0.19655171082 0.19842307372 0.20067492693 0.20303260764 0.20523679987 0.20706641018 0.20835783527 
0.20901770979 0.20902754983 0.20844019051 0.20736888185 0.20597030135 0.20442301838 0.20290348294 0.20156230671 0.2005040342 
0.1997733976 0.19935017516 0.19915347194 0.19905439697 0.1988937965 0.19850071586 0.19770853744 0.19636757212 0.19435385568 
0.19157407374 0.18796651249 0.18349811621 0.17815822231 0.17195020306 0.16488278275 0.15696294144 0.14819193137 0.13856511276 
0.12807534346 0.11671887431 0.1045023412 0.091449512664 0.077606772395 0.063046675611 0.047869194485 0.032200467889 0.016189063491 
7.6854463795e-16 
_area 1 100 double
0 0.00064302335258 0.0025684151599 0.0057610402901 0.010183660933 0.015764102681 0.022385688207 0.029885533816 0.038062907754 
0.046696825859 0.055569310165 0.064488879451 0.073308387941 0.08193299254 0.090318160122 0.098462071884 0.10639666043 0.11417599851 
0.12185782855 0.12947962971 0.13703774937 0.14447761569 0.15169774597 0.15856686969 0.16495153554 0.17074814615 0.17590888232 
0.18044900568 0.18442909487 0.18792104162 0.19097753013 0.19361714217 0.19582282743 0.19754727761 0.19872177181 0.19926689789 
0.1991025118 0.19815329543 0.19634851281 0.19361941843 0.18990088875 0.18514220817 0.17932718146 0.172499311 0.16478487443 
0.15640518237 0.14767022519 0.13895070604 0.13063293945 0.12306808834 0.11653263796 0.11127168812 0.10796020281 0.10594326268 
0.10478052779 0.10419419977 0.10397855569 0.1039847979 0.10408098733 0.1041095876 0.10389160256 0.10327432379 0.10217373296 
0.10058504627 0.098565112486 0.096201533601 0.093584220637 0.090793473701 0.087908956447 0.085024723907 0.082251057285 0.079701493879 
0.07747789137 0.075664115143 0.074329355736 0.073538168102 0.073358602318 0.073837281952 0.074919467516 0.076367130429 0.077807048438 
0.078842784993 0.079126073813 0.078398476582 0.076513569101 0.073438425207 0.069236888391 0.064042238059 0.058029185072 0.051393609225 
0.044343422074 0.037097920659 0.029889495778 0.022962156443 0.016564563464 0.010938473425 0.0063050771366 0.0028516859383 0.00072044699073 
4.4101150417e-17 
