# vtk DataFile Version 5.1
vtk output
ASCII
DATASET POLYDATA
POINTS 100 float
-0.135882 -0.0597249 0.690366 -0.136029 -0.059894 0.690654 -0.136457 -0.0602061 0.691456 
-0.13708 -0.0605642 0.692601 -0.13776 -0.0608202 0.693829 -0.138329 -0.0607912 0.694819 
-0.138596 -0.060281 0.695233 -0.138369 -0.0591023 0.694752 -0.137471 -0.0570978 0.693111 
-0.135751 -0.0541588 0.690135 -0.133093 -0.0502371 0.685746 -0.129423 -0.0453511 0.679974 
-0.124703 -0.0395842 0.67294 -0.118932 -0.0330762 0.664837 -0.112133 -0.0260092 0.655896 
-0.104347 -0.0185894 0.646351 -0.0956268 -0.0110273 0.636403 -0.086027 -0.00351845 0.626191 
-0.0756034 0.00377312 0.615767 -0.0644123 0.0107261 0.605097 -0.0525146 0.0172679 0.594057 
-0.0399808 0.0233737 0.582453 -0.0268974 0.0290602 0.57005 -0.0133726 0.0343735 0.556603 
0.000460839 0.0393753 0.541892 0.014446 0.044126 0.525749 0.0284071 0.0486708 0.508091 
0.042158 0.0530273 0.488921 0.0555156 0.0571784 0.468337 0.0683139 0.0610705 0.446517 
0.0804188 0.0646171 0.423697 0.0917409 0.0677083 0.400143 0.102243 0.0702232 0.376117 
0.111942 0.0720459 0.351846 0.120907 0.0730803 0.327497 0.129241 0.0732651 0.303162 
0.137072 0.0725833 0.278851 0.144524 0.0710681 0.254497 0.151699 0.0688032 0.229978 
0.158651 0.0659164 0.205141 0.165372 0.0625696 0.17983 0.171782 0.0589434 0.15392 
0.177726 0.0552212 0.127341 0.182984 0.0515721 0.100101 0.187288 0.0481361 0.0722924 
0.190349 0.0450125 0.0440905 0.191883 0.0422538 0.0157411 0.191646 0.039864 -0.0124626 
0.189463 0.0378041 -0.0402087 0.18525 0.0360004 -0.0671981 0.179028 0.0343586 -0.0931738 
0.170927 0.0327781 -0.117946 0.161181 0.0311678 -0.141408 0.150105 0.0294596 -0.163541 
0.138073 0.0276189 -0.184413 0.12548 0.0256505 -0.204161 0.112714 0.023599 -0.222972 
0.100116 0.0215453 -0.241057 0.0879581 0.0195971 -0.258622 0.0764243 0.0178767 -0.275849 
0.0656009 0.0165072 -0.292873 0.0554804 0.015598 -0.309773 0.0459742 0.0152318 -0.326573 
0.0369338 0.015455 -0.343244 0.0281765 0.0162717 -0.359719 0.0195138 0.0176432 -0.37591 
0.0107769 0.0194913 -0.391728 0.00183814 0.0217063 -0.407099 -0.00737533 0.0241587 -0.421978 
-0.0168764 0.0267119 -0.436358 -0.026621 0.0292357 -0.450268 -0.0365196 0.0316188 -0.463769 
-0.0464525 0.0337781 -0.476943 -0.0562898 0.0356649 -0.489874 -0.0659097 0.0372669 -0.502635 
-0.0752146 0.0386052 -0.515272 -0.0841421 0.0397288 -0.527792 -0.0926692 0.0407047 -0.540157 
-0.10081 0.0416074 -0.552283 -0.108607 0.0425071 -0.564051 -0.116119 0.0434598 -0.575312 
-0.123405 0.0444989 -0.585911 -0.13051 0.0456305 -0.595695 -0.137453 0.0468324 -0.60454 
-0.14422 0.0480565 -0.612354 -0.150759 0.0492352 -0.619093 -0.15699 0.0502905 -0.624764 
-0.16281 0.0511437 -0.629418 -0.168112 0.0517267 -0.633146 -0.172795 0.0519915 -0.636068 
-0.176781 0.0519172 -0.638318 -0.180032 0.0515148 -0.640032 -0.182548 0.0508276 -0.641333 
-0.184379 0.0499277 -0.642327 -0.185609 0.0489102 -0.643096 -0.186354 0.0478827 -0.643695 
-0.186743 0.0469552 -0.644158 -0.186901 0.0462282 -0.644504 -0.18693 0.045782 -0.644737 
-0.1869 0.0456686 -0.644858 
LINES 2 100
OFFSETS vtktypeint64
0 100 
CONNECTIVITY vtktypeint64
0 1 2 3 4 5 6 7 8 
9 10 11 12 13 14 15 16 17 
18 19 20 21 22 23 24 25 26 
27 28 29 30 31 32 33 34 35 
36 37 38 39 40 41 42 43 44 
45 46 47 48 49 50 51 52 53 
54 55 56 57 58 59 60 61 62 
63 64 65 66 67 68 69 70 71 
72 73 74 75 76 77 78 79 80 
81 82 83 84 85 86 87 88 89 
90 91 92 93 94 95 96 97 98 
99 
POINT_DATA 100
FIELD FieldData 3
_theta 1 100 double
0 0.031733259127 0.063466518254 0.095199777382 0.12693303651 0.15866629564 0.19039955476 0.22213281389 0.25386607302 
0.28559933214 0.31733259127 0.3490658504 0.38079910953 0.41253236865 0.44426562778 0.47599888691 0.50773214603 0.53946540516 
0.57119866429 0.60293192342 0.63466518254 0.66639844167 0.6981317008 0.72986495992 0.76159821905 0.79333147818 0.82506473731 
0.85679799643 0.88853125556 0.92026451469 0.95199777382 0.98373103294 1.0154642921 1.0471975512 1.0789308103 1.1106640695 
1.1423973286 1.1741305877 1.2058638468 1.237597106 1.2693303651 1.3010636242 1.3327968833 1.3645301425 1.3962634016 
1.4279966607 1.4597299198 1.491463179 1.5231964381 1.5549296972 1.5866629564 1.6183962155 1.6501294746 1.6818627337 
1.7135959929 1.745329252 1.7770625111 1.8087957702 1.8405290294 1.8722622885 1.9039955476 1.9357288068 1.9674620659 
1.999195325 2.0309285841 2.0626618433 2.0943951024 2.1261283615 2.1578616206 2.1895948798 2.2213281389 2.253061398 
2.2847946572 2.3165279163 2.3482611754 2.3799944345 2.4117276937 2.4434609528 2.4751942119 2.506927471 2.5386607302 
2.5703939893 2.6021272484 2.6338605076 2.6655937667 2.6973270258 2.7290602849 2.7607935441 2.7925268032 2.8242600623 
2.8559933214 2.8877265806 2.9194598397 2.9511930988 2.982926358 3.0146596171 3.0463928762 3.0781261353 3.1098593945 
3.1415926536 
_radius 1 100 double
2.7894008273e-16 0.017669566304 0.03505323953 0.051885126612 0.067945207276 0.08307540963 0.097188049723 0.11026529264 0.12234941439 
0.1335249151 0.1438947627 0.15355406397 0.16256513496 0.17093814378 0.17862107537 0.18550160299 0.19142158326 0.19620260902 
0.19967886033 0.20173193561 0.2023218014 0.20150852892 0.19946085688 0.19644949009 0.19282514404 0.18898354339 0.18532181138 
0.18219274118 0.17986470239 0.17849441725 0.17811689667 0.17865219902 0.17992454663 0.18168783231 0.18365323083 0.1855182015 
0.18699847724 0.18786261282 0.18796426618 0.18726561464 0.18584685688 0.18389930316 0.18170228533 0.17958737562 0.17789676141 
0.17694419498 0.17698480178 0.17819500094 0.18065982127 0.18436521555 0.18919636298 0.19494523122 0.20132946014 0.20802118381 
0.21468130627 0.22099354084 0.22669327071 0.23158807716 0.2355685886 0.2386096274 0.24076250113 0.24213992762 0.24289565851 
0.24320136874 0.2432236781 0.24310411982 0.24294442293 0.24279869847 0.24267311731 0.2425325096 0.24231210081 0.24193158785 
0.24130837904 0.2403673863 0.2390461129 0.23729531142 0.2350765264 0.23235807221 0.22911058861 0.22530272529 0.22089719243 
0.21584756151 0.21009663107 0.2035774806 0.19621815744 0.18795017224 0.17871983428 0.16850035701 0.15730203359 0.14517788045 
0.13222298273 0.11856712321 0.10436177075 0.089763756153 0.074918662894 0.059946946494 0.04493509621 0.029932988561 0.014957318293 
9.1343010372e-16 
_area 1 100 double
0 0.0006422086925 0.0025497684018 0.005660707307 0.0098601047976 0.014974287909 0.020777245373 0.027010914379 0.033414554375 
0.039755241034 0.045852058939 0.051589223425 0.056916057327 0.06183368014 0.066371380587 0.070565209191 0.074472983572 0.078209272074 
0.081684480979 0.084505137475 0.086297184601 0.086828398161 0.086039232379 0.084046541366 0.081117698902 0.077619442029 0.07395310024 
0.070492642906 0.067547686172 0.065357898768 0.064090168757 0.063807233216 0.064449458435 0.065882395401 0.067943872626 0.070465426378 
0.073293774308 0.076316225372 0.079435105801 0.082433734958 0.084964222901 0.086786106882 0.087884410324 0.088439989913 0.088755214873 
0.089172468036 0.090016437133 0.091591880499 0.094115757427 0.097709857238 0.1024392412 0.10829807116 0.11518003139 0.12285448066 
0.13096801153 0.13907888816 0.14671774423 0.15345581164 0.15896246369 0.16304298575 0.16565525906 0.16690635723 0.16702665011 
0.16630298901 0.164991104 0.16332873976 0.16161582112 0.15985382164 0.15802473702 0.15611724496 0.15410968398 0.15196815751 
0.14965306552 0.14713059932 0.14438224396 0.14139910153 0.13816426271 0.13463678124 0.13074663373 0.12640239215 0.12150758524 
0.11597963263 0.10976596152 0.102853972 0.095274157446 0.087098218968 0.078435306585 0.069428742819 0.060253220536 0.051110258571 
0.042219244706 0.033802978041 0.026069327418 0.019193006372 0.013302268183 0.0084741494401 0.0047393492578 0.0020950331261 0.00052177309804 
3.0011692922e-17 
