# vtk DataFile Version 5.1
vtk output
ASCII
DATASET POLYDATA
POINTS 100 float
-0.151644 -0.00984557 0.885809 -0.15122 -0.0100449 0.885458 -0.150014 -0.010481 0.884505 
-0.148115 -0.0111151 0.882895 -0.145659 -0.0118855 0.880538 -0.142812 -0.0127106 0.877325 
-0.139751 -0.0134927 0.873139 -0.136638 -0.0141223 0.867876 -0.133602 -0.0144838 0.861452 
-0.130722 -0.0144617 0.853817 -0.128012 -0.0139466 0.844964 -0.125423 -0.0128412 0.834924 
-0.12284 -0.0110669 0.823768 -0.120097 -0.00856852 0.811596 -0.116994 -0.0053188 0.798524 
-0.113315 -0.00132122 0.784671 -0.108854 0.00338864 0.770144 -0.103441 0.00874351 0.755023 
-0.0969526 0.0146466 0.739357 -0.0893366 0.0209757 0.723153 -0.0806126 0.0275882 0.706382 
-0.0708745 0.034328 0.688977 -0.0602829 0.0410331 0.67085 -0.0490506 0.0475424 0.651897 
-0.0374235 0.0537041 0.632017 -0.0256591 0.0593816 0.611123 -0.0140036 0.0644591 0.58915 
-0.00267158 0.068846 0.566067 0.00817002 0.0724786 0.54188 0.0184129 0.0753208 0.516629 
0.0280114 0.0773632 0.490383 0.0369795 0.0786199 0.463235 0.0453817 0.0791255 0.435291 
0.0533188 0.07893 0.406659 0.0609104 0.0780947 0.377438 0.0682754 0.0766875 0.347718 
0.0755142 0.0747791 0.317568 0.0826931 0.0724398 0.287043 0.0898327 0.0697375 0.256184 
0.0969021 0.0667363 0.225027 0.103819 0.0634966 0.193606 0.110454 0.0600753 0.16197 
0.116643 0.0565265 0.13018 0.1222 0.0529029 0.0983233 0.126933 0.0492563 0.0665092 
0.130662 0.0456378 0.0348705 0.133232 0.0420983 0.0035569 0.134528 0.0386871 -0.0272733 
0.134484 0.0354509 -0.0574638 0.133085 0.032432 -0.0868714 0.130371 0.0296666 -0.115377 
0.12643 0.0271827 -0.142895 0.121389 0.0249989 -0.169378 0.115408 0.0231237 -0.194819 
0.108662 0.0215556 -0.219251 0.101332 0.0202841 -0.24274 0.0935928 0.0192913 -0.265378 
0.0856031 0.018555 -0.287268 0.0774962 0.0180514 -0.30852 0.0693766 0.0177585 -0.329236 
0.0613181 0.0176589 -0.3495 0.0533645 0.0177425 -0.369376 0.0455332 0.0180076 -0.388905 
0.0378208 0.0184615 -0.408102 0.030209 0.0191192 -0.426963 0.0226723 0.0200017 -0.445472 
0.0151843 0.0211323 -0.463604 0.00772367 0.0225332 -0.481334 0.000279141 0.0242207 -0.498644 
-0.00714756 0.0262018 -0.515527 -0.0145402 0.02847 -0.531988 -0.0218682 0.0310034 -0.548043 
-0.0290888 0.0337635 -0.563717 -0.0361495 0.0366958 -0.57904 -0.042993 0.0397318 -0.594037 
-0.0495608 0.0427927 -0.608725 -0.0557986 0.0457941 -0.623107 -0.0616604 0.0486517 -0.637166 
-0.0671121 0.0512869 -0.650864 -0.072134 0.053632 -0.664146 -0.0767228 0.0556355 -0.676937 
-0.080891 0.0572648 -0.689152 -0.0846658 0.0585082 -0.7007 -0.0880866 0.059375 -0.711493 
-0.0912017 0.0598937 -0.721452 -0.0940631 0.0601086 -0.730515 -0.0967227 0.0600759 -0.738641 
-0.0992273 0.059858 -0.745815 -0.101614 0.0595185 -0.752045 -0.103909 0.0591169 -0.757365 
-0.106121 0.0587049 -0.761828 -0.108246 0.0583229 -0.765507 -0.110265 0.0579985 -0.768483 
-0.112146 0.0577469 -0.770844 -0.113847 0.0575714 -0.772679 -0.115323 0.0574666 -0.774069 
-0.116528 0.0574209 -0.775088 -0.11742 0.0574208 -0.775795 -0.117966 0.0574536 -0.776233 
-0.118144 0.0575105 -0.776428 
LINES 2 100
OFFSETS vtktypeint64
0 100 
CONNECTIVITY vtktypeint64
0 1 2 3 4 5 6 7 8 
9 10 11 12 13 14 15 16 17 
18 19 20 21 22 23 24 25 26 
27 28 29 30 31 32 33 34 35 
36 37 38 39 40 41 42 43 44 
45 46 47 48 49 50 51 52 53 
54 55 56 57 58 59 60 61 62 
63 64 65 66 67 68 69 70 71 
72 73 74 75 76 77 78 79 80 
81 82 83 84 85 86 87 88 89 
90 91 92 93 94 95 96 97 98 
99 
POINT_DATA 100
FIELD FieldData 3
_theta 1 100 double
0 0.031733259127 0.063466518254 0.095199777382 0.12693303651 0.15866629564 0.19039955476 0.22213281389 0.25386607302 
0.28559933214 0.31733259127 0.3490658504 0.38079910953 0.41253236865 0.44426562778 0.47599888691 0.50773214603 0.53946540516 
0.57119866429 0.60293192342 0.63466518254 0.66639844167 0.6981317008 0.72986495992 0.76159821905 0.79333147818 0.82506473731 
0.85679799643 0.88853125556 0.92026451469 0.95199777382 0.98373103294 1.0154642921 1.0471975512 1.0789308103 1.1106640695 
1.1423973286 1.1741305877 1.2058638468 1.237597106 1.2693303651 1.3010636242 1.3327968833 1.3645301425 1.3962634016 
1.4279966607 1.4597299198 1.491463179 1.5231964381 1.5549296972 1.5866629564 1.6183962155 1.6501294746 1.6818627337 
1.7135959929 1.745329252 1.7770625111 1.8087957702 1.8405290294 1.8722622885 1.9039955476 1.9357288068 1.9674620659 
1.999195325 2.0309285841 2.0626618433 2.0943951024 2.1261283615 2.1578616206 2.1895948798 2.2213281389 2.253061398 
2.2847946572 2.3165279163 2.3482611754 2.3799944345 2.4117276937 2.4434609528 2.4751942119 2.506927471 2.5386607302 
2.5703939893 2.6021272484 2.6338605076 2.6655937667 2.6973270258 2.7290602849 2.7607935441 2.7925268032 2.8242600623 
2.8559933214 2.8877265806 2.9194598397 2.9511930988 2.982926358 3.0146596171 3.0463928762 3.0781261353 3.1098593945 
3.1415926536 
_radius 1 100 double
2.1096519875e-15 0.018048136447 0.03582096655 0.05307295481 0.069611387839 0.085307991507 0.10009676419 0.11395948266 0.12690383915 
0.13894118289 0.15007041139 0.16027181926 0.16951093845 0.17774920534 0.18495669874 0.19112238834 0.19625894753 0.2004015937 
0.20360281377 0.20592630837 0.20744337059 0.20823321236 0.20838632215 0.20800807684 0.20721948336 0.2061531504 0.20494464501 
0.20372122772 0.20259076309 0.20163314107 0.20089528942 0.20038973431 0.20009639829 0.19996777443 0.19993788456 0.19993488606 
0.1998961306 0.19978351291 0.19959629383 0.19937824525 0.19921621189 0.1992286142 0.1995455133 0.20028595805 0.20154077137 
0.20336674885 0.20579208671 0.20882728817 0.21247437158 0.21672954512 0.22157833766 0.22698562987 0.2328850333 0.23917217292 
0.24570494915 0.25231161836 0.25880534721 0.26500231356 0.27073979488 0.27589108031 0.28037513857 0.28416023927 0.28726174538 
0.28973492329 0.29166391011 0.29314809662 0.29428727444 0.29516701836 0.29584587705 0.29634591359 0.29664787657 0.29669176525 
0.29638281415 0.29560204716 0.2942197068 0.29210932926 0.28916027165 0.28528711385 0.28043524926 0.27458273997 0.26773890371 
0.25994014195 0.25124342442 0.24171785999 0.23143504226 0.22045929332 0.20883930169 0.1966026811 0.18375453395 0.17028030429 
0.15615234989 0.14133904311 0.12581495239 0.1095707024 0.092621316904 0.07501210277 0.056821404535 0.038159869313 0.019166228589 
1.2585793766e-15 
_area 1 100 double
0 0.00073604828664 0.002905958954 0.006399294812 0.011045844931 0.016634596892 0.022935618889 0.029719568412 0.036769984517 
0.043886671385 0.050882801296 0.057581104461 0.063813951564 0.069428965652 0.074298331231 0.07832817916 0.081464883411 0.083697271082 
0.085056558282 0.085617585634 0.085503225189 0.084888070288 0.083993091369 0.083066916091 0.082356771727 0.082072821145 0.082351603981 
0.083232239291 0.084656457358 0.086491741365 0.088566483964 0.090702001115 0.092735673143 0.094540234583 0.096043742038 0.097247479474 
0.098234148412 0.099160102113 0.10022971805 0.1016499273 0.10356531646 0.10600085044 0.10886330266 0.11201041216 0.11532689247 
0.11875672365 0.12229959492 0.12601000113 0.1300665186 0.13481473834 0.14043511015 0.14686633811 0.15408143555 0.16196715489 
0.17032285669 0.17887260554 0.18728604729 0.19521269763 0.20232475093 0.20835611923 0.2131272841 0.2165535021 0.21864371168 
0.21950484918 0.21935400563 0.21842183822 0.21681562691 0.21469761466 0.2122868675 0.20979351404 0.20736741229 0.20505856782 
0.20279390321 0.2003789387 0.19753137584 0.19394167675 0.1893409932 0.1835539597 0.17652419332 0.16831331225 0.15908142429 
0.1490572805 0.13850321072 0.12767754092 0.11679797508 0.10601353388 0.095395913011 0.084956515146 0.074682588126 0.064575818365 
0.054678519698 0.045082657454 0.035925883609 0.027381460317 0.019646625209 0.012930342124 0.0074393410729 0.0033616939975 0.00084899995774 
6.42387686e-17 
