# vtk DataFile Version 5.1
vtk output
ASCII
DATASET POLYDATA
POINTS 100 float
-0.114576 0.00747312 0.751356 -0.114364 0.00768767 0.751041 -0.11381 0.00848333 0.750124 
-0.112951 0.00979811 0.748577 -0.111837 0.011536 0.746355 -0.110526 0.0135785 0.743406 
-0.109064 0.0157987 0.739676 -0.107477 0.0180755 0.735115 -0.105759 0.0203072 0.729683 
-0.103866 0.0224216 0.72336 -0.101714 0.0243821 0.716138 -0.099182 0.0261883 0.70803 
-0.0961254 0.0278723 0.69906 -0.0923885 0.0294904 0.689261 -0.0878226 0.0311117 0.678666 
-0.082305 0.0328056 0.667306 -0.0757555 0.0346293 0.6552 -0.0681499 0.0366178 0.642355 
-0.0595278 0.0387772 0.628764 -0.0499937 0.041082 0.614408 -0.0397104 0.0434777 0.599263 
-0.0288873 0.0458865 0.583301 -0.0177618 0.0482168 0.566503 -0.00657875 0.0503743 0.548861 
0.00443167 0.052273 0.530389 0.0150737 0.0538446 0.511118 0.0252024 0.0550454 0.491104 
0.0347332 0.0558595 0.470418 0.0436455 0.0562975 0.449144 0.0519781 0.0563923 0.427369 
0.0598179 0.0561912 0.405172 0.0672838 0.0557476 0.382619 0.0745063 0.0551109 0.359751 
0.0816069 0.0543199 0.336582 0.0886785 0.053397 0.313099 0.0957694 0.0523474 0.289265 
0.102873 0.0511604 0.265024 0.109924 0.0498159 0.240316 0.116803 0.0482924 0.215084 
0.12334 0.0465762 0.189292 0.129338 0.0446707 0.16293 0.134583 0.0426039 0.13603 
0.138868 0.0404323 0.10866 0.142007 0.0382413 0.0809332 0.143856 0.0361406 0.0529966 
0.144318 0.0342562 0.0250229 0.143356 0.0327181 -0.00280289 0.140985 0.0316479 -0.0302974 
0.137276 0.0311444 -0.0572942 0.132339 0.0312721 -0.0836557 0.126317 0.0320524 -0.109283 
0.119367 0.0334596 -0.13412 0.111651 0.0354214 -0.158153 0.103322 0.0378252 -0.181408 
0.0945162 0.0405278 -0.203938 0.0853444 0.0433696 -0.225816 0.0758927 0.0461887 -0.247118 
0.0662224 0.0488363 -0.267915 0.0563736 0.0511891 -0.28826 0.0463715 0.0531583 -0.308183 
0.0362324 0.0546949 -0.327692 0.0259705 0.0557892 -0.34677 0.0156037 0.0564668 -0.365385 
0.00515718 0.0567804 -0.383497 -0.00533335 0.0567993 -0.401069 -0.0158215 0.0565988 -0.418075 
-0.0262507 0.0562495 -0.434508 -0.0365568 0.0558095 -0.450386 -0.04667 0.0553198 -0.465752 
-0.0565188 0.0548026 -0.480671 -0.0660328 0.0542636 -0.49522 -0.075145 0.0536972 -0.509484 
-0.0837946 0.0530932 -0.523539 -0.0919289 0.0524433 -0.537449 -0.0995045 0.0517477 -0.551248 
-0.106489 0.0510187 -0.564943 -0.112862 0.0502813 -0.578506 -0.118618 0.0495713 -0.591882 
-0.123764 0.0489296 -0.604991 -0.128326 0.048395 -0.617741 -0.132343 0.0479958 -0.63004 
-0.135872 0.0477421 -0.641805 -0.138984 0.0476197 -0.652972 -0.141762 0.0475878 -0.663507 
-0.144295 0.0475798 -0.673404 -0.146675 0.0475095 -0.682686 -0.148988 0.0472799 -0.691399 
-0.15131 0.0467951 -0.699601 -0.153695 0.0459743 -0.707352 -0.156177 0.0447639 -0.714702 
-0.158761 0.0431486 -0.721678 -0.16142 0.041158 -0.728278 -0.164102 0.0388682 -0.734466 
-0.166729 0.0363979 -0.740171 -0.169205 0.0338992 -0.745296 -0.171424 0.0315441 -0.749725 
-0.173282 0.029507 -0.753335 -0.174684 0.0279477 -0.756012 -0.175555 0.026994 -0.757665 
-0.175845 0.0267283 -0.758232 
LINES 2 100
OFFSETS vtktypeint64
0 100 
CONNECTIVITY vtktypeint64
0 1 2 3 4 5 6 7 8 
9 10 11 12 13 14 15 16 17 
18 19 20 21 22 23 24 25 26 
27 28 29 30 31 32 33 34 35 
36 37 38 39 40 41 42 43 44 
45 46 47 48 49 50 51 52 53 
54 55 56 57 58 59 60 61 62 
63 64 65 66 67 68 69 70 71 
72 73 74 75 76 77 78 79 80 
81 82 83 84 85 86 87 88 89 
90 91 92 93 94 95 96 97 98 
99 
POINT_DATA 100
FIELD FieldData 3
_theta 1 100 double
0 0.031733259127 0.063466518254 0.095199777382 0.12693303651 0.15866629564 0.19039955476 0.22213281389 0.25386607302 
0.28559933214 0.31733259127 0.3490658504 0.38079910953 0.41253236865 0.44426562778 0.47599888691 0.50773214603 0.53946540516 
0.57119866429 0.60293192342 0.63466518254 0.66639844167 0.6981317008 0.72986495992 0.76159821905 0.79333147818 0.82506473731 
0.85679799643 0.88853125556 0.92026451469 0.95199777382 0.98373103294 1.0154642921 1.0471975512 1.0789308103 1.1106640695 
1.1423973286 1.1741305877 1.2058638468 1.237597106 1.2693303651 1.3010636242 1.3327968833 1.3645301425 1.3962634016 
1.4279966607 1.4597299198 1.491463179 1.5231964381 1.5549296972 1.5866629564 1.6183962155 1.6501294746 1.6818627337 
1.7135959929 1.745329252 1.7770625111 1.8087957702 1.8405290294 1.8722622885 1.9039955476 1.9357288068 1.9674620659 
1.999195325 2.0309285841 2.0626618433 2.0943951024 2.1261283615 2.1578616206 2.1895948798 2.2213281389 2.253061398 
2.2847946572 2.3165279163 2.3482611754 2.3799944345 2.4117276937 2.4434609528 2.4751942119 2.506927471 2.5386607302 
2.5703939893 2.6021272484 2.6338605076 2.6655937667 2.6973270258 2.7290602849 2.7607935441 2.7925268032 2.8242600623 
2.8559933214 2.8877265806 2.9194598397 2.9511930988 2.982926358 3.0146596171 3.0463928762 3.0781261353 3.1098593945 
3.1415926536 
_radius 1 100 double
8.9354636333e-16 0.015776751442 0.031440261022 0.046872575873 0.061957724238 0.076582600737 0.090637644102 0.10401748149 0.1166218237 
0.12835695335 0.13913812967 0.14889310698 0.15756670294 0.16512598122 0.17156522118 0.1769095742 0.18121628481 0.18457265637 
0.18709054633 0.18889797224 0.19012919158 0.19091511187 0.19137581096 0.19161616995 0.19172435146 0.1917717005 0.19181235104 
0.19188168377 0.19199420429 0.19214230619 0.1922972422 0.1924129122 0.19243241701 0.19229687504 0.19195556813 0.19137592408 
0.19055139089 0.1895054792 0.18829142495 0.18698858942 0.18569788021 0.18453816188 0.18364359922 0.18315936358 0.18323229483 
0.18399512549 0.18554666662 0.18793339013 0.19113805614 0.19507842466 0.19961564601 0.20456967878 0.20973844404 0.21491762351 
0.21991849837 0.2245819733 0.22878787281 0.23245943006 0.23556337902 0.23810623814 0.24012742702 0.24168995577 0.24286962514 
0.243743914 0.24438187197 0.24483623362 0.24513857018 0.24529767804 0.24530077076 0.24511660445 0.2446995538 0.24399385993 
0.24293765458 0.24146671515 0.23951803832 0.23703320378 0.23396128476 0.23026096368 0.22590162887 0.22086347686 0.21513685482 
0.20872114009 0.20162338302 0.19385683365 0.18543942371 0.17639230822 0.16673864063 0.15650277712 0.14571002718 0.13438691514 
0.12256178655 0.11026556104 0.097532491105 0.084400861621 0.070913594121 0.057118695471 0.043069445847 0.028824201583 0.01444572069 
9.0077710194e-16 
_area 1 100 double
0 0.0005812406005 0.0023031938897 0.0051041875028 0.0088918422184 0.01355373917 0.018965109969 0.024990499068 0.031478884849 
0.038254838022 0.045110825648 0.05180642754 0.058078642409 0.063664302633 0.068331942918 0.071917259394 0.074354175821 0.075692755042 
0.076096278549 0.075813974111 0.075133679199 0.074327822584 0.073610907335 0.073121372482 0.07292663672 0.073042995769 0.073465688642 
0.074195820348 0.075245290467 0.076620270623 0.078301011117 0.08023121427 0.082316647526 0.084431085639 0.086433504155 0.088196549022 
0.089635889733 0.09072854278 0.091517458494 0.092105951088 0.092643348015 0.093303173509 0.094259386886 0.095664627082 0.09762804181 
0.10019962493 0.10338319761 0.10716952764 0.11154613368 0.11647404286 0.12186203582 0.12755975988 0.13336733477 0.13905294818 
0.14437494012 0.1491077152 0.15306891055 0.15614271982 0.15829381839 0.15956834004 0.16008254196 0.16000394388 0.15952397168 
0.15879848564 0.15788316906 0.15676590294 0.15543366966 0.15389276689 0.15216154043 0.15025455064 0.14816455187 0.1458481329 
0.14322280931 0.14018191929 0.13662584632 0.13249736106 0.12780400184 0.12261580707 0.11703838758 0.11117314714 0.1050838637 
0.098786674385 0.092266581177 0.085507474696 0.078518022688 0.071342971187 0.064059130947 0.056761693606 0.049548655956 0.042509816375 
0.035723487622 0.029260573567 0.02319322027 0.01760393602 0.012590814549 0.0082658517146 0.0047462550279 0.0021415380253 0.00054033473717 
6.8535126521e-17 
