# vtk DataFile Version 5.1
vtk output
ASCII
DATASET POLYDATA
POINTS 100 float
-0.150244 -0.0826989 0.668852 -0.150035 -0.0825852 0.668738 -0.1494 -0.0820467 0.668379 
-0.148363 -0.0810597 0.667738 -0.146957 -0.07959 0.666758 -0.145228 -0.0775986 0.665373 
-0.143223 -0.0750483 0.663507 -0.140985 -0.0719112 0.66109 -0.13855 -0.068175 0.658062 
-0.135937 -0.063847 0.654377 -0.133148 -0.0589571 0.650011 -0.130163 -0.0535573 0.644954 
-0.126939 -0.0477183 0.639218 -0.123414 -0.0415248 0.632824 -0.11951 -0.0350685 0.625799 
-0.115138 -0.0284407 0.618171 -0.110209 -0.0217254 0.609956 -0.10464 -0.0149935 0.601159 
-0.0983634 -0.00829941 0.591769 -0.0913375 -0.00167945 0.581757 -0.0835498 0.00484612 0.571078 
-0.0750229 0.0112694 0.559677 -0.0658147 0.0175892 0.547497 -0.0560161 0.0238039 0.534482 
-0.0457452 0.0299055 0.520589 -0.0351393 0.0358734 0.505792 -0.0243439 0.0416709 0.490088 
-0.0135017 0.047244 0.473496 -0.00274163 0.0525229 0.456059 0.00783096 0.0574263 0.437839 
0.0181408 0.0618675 0.418911 0.028146 0.0657625 0.399353 0.0378372 0.0690384 0.379242 
0.0472323 0.0716407 0.358643 0.0563682 0.0735397 0.337604 0.0652889 0.0747339 0.316152 
0.0740326 0.0752513 0.294296 0.0826189 0.0751467 0.272023 0.0910372 0.0744971 0.249312 
0.0992389 0.0733942 0.226133 0.107133 0.0719365 0.202463 0.114587 0.07022 0.178288 
0.121435 0.0683306 0.153619 0.127485 0.0663374 0.128491 0.132536 0.0642891 0.102967 
0.136397 0.0622123 0.0771417 0.1389 0.0601133 0.0511322 0.139919 0.057982 0.0250758 
0.139382 0.0557978 -0.000880856 0.137282 0.053536 -0.026591 0.133673 0.0511756 -0.0519175 
0.128675 0.0487044 -0.0767415 0.122459 0.0461243 -0.100969 0.115236 0.0434533 -0.124537 
0.10724 0.040726 -0.147408 0.0987079 0.037991 -0.169577 0.089862 0.0353073 -0.19106 
0.0808948 0.0327388 -0.211891 0.0719561 0.0303484 -0.23211 0.0631461 0.0281926 -0.251762 
0.0545141 0.0263167 -0.270887 0.0460619 0.0247515 -0.289514 0.0377525 0.0235126 -0.307662 
0.0295217 0.0225998 -0.325336 0.0212919 0.0220004 -0.342532 0.0129857 0.0216919 -0.35924 
0.00453882 0.0216465 -0.375447 -0.00409111 0.0218351 -0.391146 -0.0129181 0.0222312 -0.406339 
-0.0219263 0.0228131 -0.421036 -0.0310723 0.0235658 -0.435264 -0.0402906 0.0244803 -0.449061 
-0.0495018 0.0255525 -0.462474 -0.058621 0.0267806 -0.475556 -0.0675668 0.0281619 -0.488357 
-0.0762685 0.0296896 -0.50092 -0.0846707 0.0313505 -0.513273 -0.0927352 0.0331225 -0.525424 
-0.10044 0.0349746 -0.537358 -0.107777 0.0368672 -0.549035 -0.114745 0.038754 -0.560392 
-0.121344 0.0405849 -0.571344 -0.127573 0.0423098 -0.581795 -0.13342 0.0438823 -0.591638 
-0.138866 0.045263 -0.600772 -0.14388 0.0464229 -0.609103 -0.148426 0.0473451 -0.616556 
-0.152467 0.0480258 -0.623082 -0.155969 0.0484739 -0.628658 -0.15891 0.0487098 -0.633297 
-0.161286 0.0487631 -0.637039 -0.163113 0.0486702 -0.639955 -0.164432 0.0484714 -0.642139 
-0.165306 0.0482077 -0.643703 -0.165812 0.0479188 -0.644766 -0.166043 0.0476407 -0.645449 
-0.16609 0.0474044 -0.645865 -0.166037 0.0472349 -0.646111 -0.165955 0.0471503 -0.646259 
-0.165888 0.047162 -0.646355 
LINES 2 100
OFFSETS vtktypeint64
0 100 
CONNECTIVITY vtktypeint64
0 1 2 3 4 5 6 7 8 
9 10 11 12 13 14 15 16 17 
18 19 20 21 22 23 24 25 26 
27 28 29 30 31 32 33 34 35 
36 37 38 39 40 41 42 43 44 
45 46 47 48 49 50 51 52 53 
54 55 56 57 58 59 60 61 62 
63 64 65 66 67 68 69 70 71 
72 73 74 75 76 77 78 79 80 
81 82 83 84 85 86 87 88 89 
90 91 92 93 94 95 96 97 98 
99 
POINT_DATA 100
FIELD FieldData 3
_theta 1 100 double
0 0.031733259127 0.063466518254 0.095199777382 0.12693303651 0.15866629564 0.19039955476 0.22213281389 0.25386607302 
0.28559933214 0.31733259127 0.3490658504 0.38079910953 0.41253236865 0.44426562778 0.47599888691 0.50773214603 0.53946540516 
0.57119866429 0.60293192342 0.63466518254 0.66639844167 0.6981317008 0.72986495992 0.76159821905 0.79333147818 0.82506473731 
0.85679799643 0.88853125556 0.92026451469 0.95199777382 0.98373103294 1.0154642921 1.0471975512 1.0789308103 1.1106640695 
1.1423973286 1.1741305877 1.2058638468 1.237597106 1.2693303651 1.3010636242 1.3327968833 1.3645301425 1.3962634016 
1.4279966607 1.4597299198 1.491463179 1.5231964381 1.5549296972 1.5866629564 1.6183962155 1.6501294746 1.6818627337 
1.7135959929 1.745329252 1.7770625111 1.8087957702 1.8405290294 1.8722622885 1.9039955476 1.9357288068 1.9674620659 
1.999195325 2.0309285841 2.0626618433 2.0943951024 2.1261283615 2.1578616206 2.1895948798 2.2213281389 2.253061398 
2.2847946572 2.3165279163 2.3482611754 2.3799944345 2.4117276937 2.4434609528 2.4751942119 2.506927471 2.5386607302 
2.5703939893 2.6021272484 2.6338605076 2.6655937667 2.6973270258 2.7290602849 2.7607935441 2.7925268032 2.8242600623 
2.8559933214 2.8877265806 2.9194598397 2.9511930988 2.982926358 3.0146596171 3.0463928762 3.0781261353 3.1098593945 
3.1415926536 
_radius 1 100 double
4.809409385e-16 0.015303808916 0.030451065278 0.045283548489 0.059649752966 0.073410337181 0.086444579288 0.098656656961 0.10998016436 
0.12037939378 0.12984655926 0.13839519872 0.14605118093 0.15284365688 0.15879850883 0.16393613132 0.16827389487 0.17183198507 
0.17464019984 0.1767431679 0.17820229428 0.1790941578 0.17950650625 0.17953377804 0.1792737579 0.1788256252 0.17828806962 
0.17775544078 0.17731068758 0.17701575694 0.17690205901 0.17696438385 0.17716075315 0.17741871804 0.17764675574 0.17774839872 
0.1776366477 0.17724685545 0.17654696877 0.17554418614 0.17428711212 0.17286297106 0.17139016467 0.17000713426 0.16885920182 
0.16808569065 0.16780969737 0.16813186126 0.16912730511 0.17084296166 0.17329288746 0.17645207202 0.18025186575 0.18457996063 
0.18928575986 0.19419037619 0.19910005824 0.20382172018 0.20817892457 0.21202635176 0.21526084434 0.21782765434 0.21972136865 
0.22098185109 0.22168616224 0.22193767734 0.2218535484 0.22155141485 0.22113610207 0.22068715312 0.22024841139 0.21982124124 
0.21936293528 0.21879114656 0.2179939241 0.21684360924 0.21521201681 0.21298425326 0.21006912054 0.20640501427 0.20196121929 
0.19673529639 0.19074770883 0.18403493409 0.17664212765 0.16861610747 0.15999918124 0.15082424178 0.14111159232 0.13086801029 
0.12008846299 0.10876055612 0.096871267217 0.084414975151 0.071401460761 0.057862531373 0.043856160625 0.029467418851 0.014805919995 
7.618746479e-16 
_area 1 100 double
0 0.0005918266082 0.0023532767896 0.0052383360305 0.0091595554085 0.013979035349 0.01950676877 0.025510898891 0.031739537172 
0.037948475926 0.043925954271 0.049506340244 0.0545691818 0.059026539641 0.062806674082 0.06584347377 0.068077898315 0.069471631029 
0.070027064839 0.069804781488 0.068930941607 0.067590638842 0.066006187381 0.064401020604 0.062957087055 0.061789545961 0.060956329078 
0.060484450344 0.060395401105 0.060702380089 0.061423227023 0.062516731811 0.063913239409 0.065518547362 0.067218655868 0.068920764394 
0.070649167601 0.072481119012 0.074311396537 0.076041234377 0.077639194466 0.079106591939 0.080499957718 0.081881269286 0.083306284096 
0.084769777751 0.086253959092 0.087802012354 0.089594697415 0.091985459426 0.095102883436 0.09877092733 0.10287266999 0.10732604463 
0.11204260046 0.11692152522 0.1218483186 0.1266912469 0.13129983834 0.13550864779 0.13914597079 0.14204867439 0.14408452308 
0.14517789654 0.1453305118 0.1446294585 0.14323778086 0.14136617689 0.13923098118 0.13701411902 0.13483922401 0.13276114811 
0.13076201423 0.12875554914 0.12660356864 0.1241439633 0.12122428449 0.11773192362 0.11361202965 0.10886797106 0.10354584044 
0.097712066742 0.091436712239 0.084789895285 0.077848016489 0.070700186677 0.063448155504 0.05619943942 0.04905708939 0.042110483624 
0.035431622883 0.029079918174 0.023113948779 0.017604175684 0.012640654493 0.0083331853283 0.0048040640758 0.0021748922928 0.00054998025816 
3.6537192973e-17 
