# vtk DataFile Version 5.1
vtk output
ASCII
DATASET POLYDATA
POINTS 100 float
-0.127574 -0.0596142 0.750049 -0.127558 -0.0596574 0.749677 -0.127512 -0.0595809 0.748546 
-0.127419 -0.0593442 0.746638 -0.127251 -0.058887 0.743927 -0.126971 -0.0581362 0.740386 
-0.126535 -0.057014 0.735996 -0.125894 -0.0554474 0.730748 -0.124995 -0.0533761 0.724656 
-0.123785 -0.0507591 0.717754 -0.122205 -0.0475803 0.710098 -0.120197 -0.0438491 0.701764 
-0.117704 -0.0396007 0.692839 -0.114664 -0.0348918 0.683414 -0.111021 -0.0297958 0.67357 
-0.106719 -0.0243956 0.663369 -0.101711 -0.0187773 0.652844 -0.0959564 -0.0130231 0.641992 
-0.0894312 -0.00720684 0.63077 -0.0821295 -0.00139046 0.619096 -0.0740685 0.0043767 0.606858 
-0.0652918 0.0100569 0.593918 -0.0558711 0.0156212 0.58013 -0.0459054 0.0210452 0.565355 
-0.0355181 0.026305 0.549471 -0.0248511 0.0313724 0.532391 -0.0140572 0.0362127 0.514071 
-0.00329013 0.0407826 0.494517 0.00730563 0.0450309 0.473787 0.0176053 0.0489007 0.451981 
0.0275121 0.0523337 0.429241 0.036964 0.0552749 0.405729 0.0459356 0.0576782 0.381622 
0.0544375 0.0595117 0.357087 0.0625109 0.0607619 0.332276 0.0702184 0.0614359 0.307307 
0.0776323 0.0615625 0.282265 0.0848212 0.0611903 0.257192 0.0918368 0.0603842 0.232093 
0.0987014 0.0592207 0.206943 0.105399 0.0577819 0.181697 0.111872 0.0561493 0.156301 
0.118016 0.0543983 0.130708 0.123693 0.0525937 0.104887 0.128734 0.0507868 0.0788351 
0.132954 0.0490141 0.0525811 0.136172 0.0472982 0.0261906 0.138221 0.0456501 -0.000237619 
0.138967 0.0440719 -0.0265779 0.138323 0.0425611 -0.0526863 0.136253 0.0411143 -0.0784123 
0.132779 0.0397296 -0.10361 0.12798 0.0384093 -0.12815 0.121979 0.0371603 -0.151928 
0.114939 0.035993 -0.174873 0.107047 0.0349205 -0.196947 0.0984951 0.0339553 -0.218148 
0.0894714 0.033107 -0.238506 0.0801436 0.0323795 -0.258078 0.0706506 0.03177 -0.276935 
0.0610966 0.0312678 -0.295161 0.0515505 0.0308554 -0.312839 0.0420479 0.0305107 -0.330049 
0.0325979 0.0302101 -0.346858 0.0231909 0.029932 -0.363319 0.0138083 0.0296614 -0.37947 
0.0044312 0.0293927 -0.395335 -0.00495221 0.0291326 -0.410928 -0.0143415 0.0289012 -0.426252 
-0.0237217 0.0287311 -0.441308 -0.0330639 0.0286651 -0.456093 -0.0423277 0.0287525 -0.470605 
-0.051466 0.0290441 -0.484844 -0.0604301 0.0295863 -0.498811 -0.0691738 0.0304161 -0.512504 
-0.0776575 0.0315556 -0.525921 -0.0858501 0.033009 -0.539049 -0.0937281 0.0347608 -0.551871 
-0.101274 0.0367751 -0.564353 -0.108471 0.0389986 -0.576455 -0.115303 0.0413635 -0.588118 
-0.121745 0.0437928 -0.599277 -0.127762 0.046206 -0.609859 -0.133311 0.0485252 -0.619788 
-0.138338 0.0506803 -0.628992 -0.142784 0.0526137 -0.637405 -0.146593 0.0542839 -0.644976 
-0.149716 0.0556666 -0.651675 -0.152122 0.0567556 -0.657489 -0.153805 0.0575612 -0.662433 
-0.154789 0.0581079 -0.666542 -0.155134 0.058431 -0.669874 -0.154933 0.0585736 -0.672507 
-0.154307 0.0585823 -0.674528 -0.1534 0.058504 -0.676034 -0.152368 0.058383 -0.677121 
-0.151362 0.0582583 -0.677878 -0.150519 0.0581621 -0.678384 -0.149946 0.0581182 -0.678696 
-0.149714 0.0581412 -0.678851 
LINES 2 100
OFFSETS vtktypeint64
0 100 
CONNECTIVITY vtktypeint64
0 1 2 3 4 5 6 7 8 
9 10 11 12 13 14 15 16 17 
18 19 20 21 22 23 24 25 26 
27 28 29 30 31 32 33 34 35 
36 37 38 39 40 41 42 43 44 
45 46 47 48 49 50 51 52 53 
54 55 56 57 58 59 60 61 62 
63 64 65 66 67 68 69 70 71 
72 73 74 75 76 77 78 79 80 
81 82 83 84 85 86 87 88 89 
90 91 92 93 94 95 96 97 98 
99 
POINT_DATA 100
FIELD FieldData 3
_theta 1 100 double
0 0.031733259127 0.063466518254 0.095199777382 0.12693303651 0.15866629564 0.19039955476 0.22213281389 0.25386607302 
0.28559933214 0.31733259127 0.3490658504 0.38079910953 0.41253236865 0.44426562778 0.47599888691 0.50773214603 0.53946540516 
0.57119866429 0.60293192342 0.63466518254 0.66639844167 0.6981317008 0.72986495992 0.76159821905 0.79333147818 0.82506473731 
0.85679799643 0.88853125556 0.92026451469 0.95199777382 0.98373103294 1.0154642921 1.0471975512 1.0789308103 1.1106640695 
1.1423973286 1.1741305877 1.2058638468 1.237597106 1.2693303651 1.3010636242 1.3327968833 1.3645301425 1.3962634016 
1.4279966607 1.4597299198 1.491463179 1.5231964381 1.5549296972 1.5866629564 1.6183962155 1.6501294746 1.6818627337 
1.7135959929 1.745329252 1.7770625111 1.8087957702 1.8405290294 1.8722622885 1.9039955476 1.9357288068 1.9674620659 
1.999195325 2.0309285841 2.0626618433 2.0943951024 2.1261283615 2.1578616206 2.1895948798 2.2213281389 2.253061398 
2.2847946572 2.3165279163 2.3482611754 2.3799944345 2.4117276937 2.4434609528 2.4751942119 2.506927471 2.5386607302 
2.5703939893 2.6021272484 2.6338605076 2.6655937667 2.6973270258 2.7290602849 2.7607935441 2.7925268032 2.8242600623 
2.8559933214 2.8877265806 2.9194598397 2.9511930988 2.982926358 3.0146596171 3.0463928762 3.0781261353 3.1098593945 
3.1415926536 
_radius 1 100 double
9.0218963791e-16 0.015216205548 0.030290967396 0.045091291001 0.059500128394 0.073420755151 0.086777821239 0.099515202316 0.11159141583 
0.12297377774 0.1336325779 0.14353636108 0.15264902083 0.16092900222 0.16833060184 0.17480719739 0.18031615252 0.18482498511 
0.1883181141 0.19080325591 0.19231650659 0.19292530842 0.19272869264 0.19185435563 0.19045236814 0.18868573704 0.18671861734 
0.18470360617 0.18277007331 0.1810156582 0.17950263417 0.17825970994 0.17728830536 0.17657107026 0.1760800391 0.17578247327 
0.17564384025 0.17562899657 0.17570368985 0.17583816662 0.17601309413 0.17622632117 0.17649812279 0.17687278685 0.17741589052 
0.17820881699 0.17934304427 0.18091506669 0.18302002325 0.18574135798 0.18913610342 0.19321869145 0.19794807124 0.2032223258 
0.20888263996 0.21472590523 0.22052353646 0.22604338491 0.23107164062 0.23543203352 0.23900029434 0.24171259692 0.24356748345 
0.24462151756 0.24497955067 0.24478093483 0.24418320706 0.24334473217 0.2424076498 0.24148239996 0.240635212 0.23988015523 
0.23917733159 0.23843812986 0.23753708502 0.23632830932 0.23466343767 0.23240795743 0.22945350939 0.22572483004 0.22118109761 
0.21581236386 0.20963241953 0.20266981162 0.1949587714 0.18653153697 0.17741304471 0.16761836025 0.15715267507 0.14601333389 
0.13419324812 0.12168517896 0.10848662753 0.094605260687 0.080064736338 0.064910415903 0.049213935968 0.03307529906 0.016621323671 
8.799931308e-16 
_area 1 100 double
0 0.00059743226814 0.0023557464634 0.0051775500472 0.0089147250189 0.013386583446 0.01839993932 0.023767633167 0.029322910258 
0.034928169057 0.040477501597 0.045893065332 0.051115972451 0.056093447585 0.060765461533 0.065055144113 0.068866929874 0.072094081689 
0.074633443812 0.076401771555 0.077348550239 0.077466153188 0.076800614549 0.075460082171 0.073617320339 0.071496574598 0.069312750414 
0.067315445271 0.065706421977 0.064639337384 0.06418964235 0.064319942731 0.064912193809 0.06582627115 0.066943670298 0.068190298546 
0.06954357795 0.071024513939 0.072675325912 0.074541558132 0.076677864429 0.079144084344 0.081964679862 0.085054765439 0.088269882903 
0.091344029611 0.09418936904 0.096837112212 0.099468472287 0.1024159668 0.1058273616 0.10993001507 0.11475771265 0.1202165501 
0.12616572135 0.13241016235 0.1387234849 0.14491227524 0.15080293113 0.15606886415 0.16033726254 0.1633640683 0.1650248715 
0.16532230192 0.16438926498 0.16247291973 0.16001135745 0.15707711708 0.15387920584 0.15061185072 0.14743280653 0.14445034053 
0.14170487322 0.13915591987 0.13668571406 0.13412203402 0.13127410617 0.12797230742 0.12409951579 0.11960403624 0.11449336974 
0.10881524576 0.10263403277 0.096011196982 0.088996887792 0.081634396495 0.07397300875 0.066081477684 0.058055483678 0.050016608882 
0.042104747291 0.034468347511 0.027256657847 0.020615717036 0.014686951274 0.0096058093686 0.0054983521678 0.0024751929508 0.00062366000913 
8.4017835217e-17 
