# vtk DataFile Version 5.1
vtk output
ASCII
DATASET POLYDATA
POINTS 100 float
-0.0540467 -0.143554 0.794382 -0.0540766 -0.1429 0.793614 -0.0541693 -0.140624 0.791265 
-0.0543232 -0.136771 0.787356 -0.0545343 -0.131412 0.781921 -0.054794 -0.124652 0.775018 
-0.0550869 -0.116616 0.76673 -0.0553881 -0.107453 0.757166 -0.0556621 -0.0973302 0.746465 
-0.0558625 -0.0864244 0.734791 -0.0559322 -0.0749217 0.722328 -0.0558063 -0.063011 0.709268 
-0.0554151 -0.0508799 0.6958 -0.054689 -0.0387107 0.682096 -0.0535626 -0.0266763 0.668296 
-0.0519801 -0.0149373 0.654491 -0.0498985 -0.00363806 0.64072 -0.0472909 0.00709536 0.626962 
-0.0441473 0.0171579 0.613136 -0.0404739 0.0264672 0.599111 -0.0362911 0.0349649 0.584718 
-0.0316295 0.0426171 0.569764 -0.0265259 0.0494138 0.554059 -0.0210182 0.0553678 0.537427 
-0.0151416 0.0605119 0.519733 -0.00892523 0.064896 0.500893 -0.00239105 0.0685823 0.480886 
0.00444585 0.0716407 0.459752 0.0115748 0.0741433 0.437591 0.0189855 0.0761595 0.414554 
0.0266625 0.0777507 0.390822 0.03458 0.0789667 0.36659 0.0426957 0.0798428 0.342048 
0.0509467 0.080399 0.317362 0.0592473 0.08064 0.292657 0.0674881 0.0805578 0.268015 
0.0755389 0.0801348 0.243465 0.0832534 0.0793494 0.218991 0.0904764 0.0781803 0.19454 
0.0970525 0.076613 0.170037 0.102836 0.0746444 0.145401 0.107698 0.072287 0.120562 
0.111539 0.0695714 0.0954766 0.11429 0.066547 0.0701387 0.115919 0.063281 0.0445856 
0.116434 0.0598555 0.0188988 0.115875 0.0563625 -0.0068018 0.114313 0.0528984 -0.0323683 
0.111844 0.0495576 -0.0576384 0.108579 0.0464257 -0.0824516 0.104635 0.0435743 -0.106664 
0.100128 0.0410559 -0.130162 0.0951652 0.0389012 -0.15287 0.0898421 0.0371176 -0.174759 
0.0842367 0.0356906 -0.19584 0.0784109 0.0345859 -0.216165 0.0724116 0.0337539 -0.235812 
0.0662743 0.0331349 -0.254876 0.0600274 0.0326648 -0.273457 0.0536972 0.0322814 -0.291644 
0.0473124 0.0319292 -0.309509 0.0409081 0.031564 -0.327098 0.0345276 0.0311557 -0.34443 
0.0282233 0.0306899 -0.361498 0.0220557 0.0301678 -0.378276 0.0160907 0.0296049 -0.394723 
0.0103959 0.0290279 -0.410798 0.0050362 0.028472 -0.426462 6.94914e-05 0.0279766 -0.441691 
-0.00445751 0.0275813 -0.456481 -0.00851224 0.0273232 -0.470845 -0.0120781 0.0272329 -0.484816 
-0.0151546 0.0273335 -0.498439 -0.0177567 0.0276384 -0.511766 -0.019912 0.0281514 -0.524844 
-0.0216577 0.0288672 -0.537708 -0.0230368 0.0297719 -0.550375 -0.0240939 0.030845 -0.562832 
-0.0248721 0.0320605 -0.575042 -0.0254095 0.033389 -0.586935 -0.0257379 0.0347994 -0.598422 
-0.0258814 0.0362599 -0.609392 -0.025857 0.0377397 -0.619729 -0.0256756 0.0392099 -0.629317 
-0.0253438 0.040644 -0.638054 -0.0248665 0.042019 -0.645858 -0.0242489 0.0433153 -0.652674 
-0.0234992 0.0445173 -0.658481 -0.0226303 0.0456136 -0.663293 -0.0216608 0.0465967 -0.667157 
-0.0206157 0.0474634 -0.670148 -0.0195261 0.048214 -0.672367 -0.0184281 0.0488526 -0.673929 
-0.017361 0.0493856 -0.674961 -0.0163659 0.0498217 -0.675589 -0.0154824 0.0501707 -0.675932 
-0.0147474 0.0504426 -0.676098 -0.0141919 0.0506463 -0.676174 -0.0138396 0.0507895 -0.676226 
-0.0137057 0.0508769 -0.676293 
LINES 2 100
OFFSETS vtktypeint64
0 100 
CONNECTIVITY vtktypeint64
0 1 2 3 4 5 6 7 8 
9 10 11 12 13 14 15 16 17 
18 19 20 21 22 23 24 25 26 
27 28 29 30 31 32 33 34 35 
36 37 38 39 40 41 42 43 44 
45 46 47 48 49 50 51 52 53 
54 55 56 57 58 59 60 61 62 
63 64 65 66 67 68 69 70 71 
72 73 74 75 76 77 78 79 80 
81 82 83 84 85 86 87 88 89 
90 91 92 93 94 95 96 97 98 
99 
POINT_DATA 100
FIELD FieldData 3
_theta 1 100 double
0 0.031733259127 0.063466518254 0.095199777382 0.12693303651 0.15866629564 0.19039955476 0.22213281389 0.25386607302 
0.28559933214 0.31733259127 0.3490658504 0.38079910953 0.41253236865 0.44426562778 0.47599888691 0.50773214603 0.53946540516 
0.57119866429 0.60293192342 0.63466518254 0.66639844167 0.6981317008 0.72986495992 0.76159821905 0.79333147818 0.82506473731 
0.85679799643 0.88853125556 0.92026451469 0.95199777382 0.98373103294 1.0154642921 1.0471975512 1.0789308103 1.1106640695 
1.1423973286 1.1741305877 1.2058638468 1.237597106 1.2693303651 1.3010636242 1.3327968833 1.3645301425 1.3962634016 
1.4279966607 1.4597299198 1.491463179 1.5231964381 1.5549296972 1.5866629564 1.6183962155 1.6501294746 1.6818627337 
1.7135959929 1.745329252 1.7770625111 1.8087957702 1.8405290294 1.8722622885 1.9039955476 1.9357288068 1.9674620659 
1.999195325 2.0309285841 2.0626618433 2.0943951024 2.1261283615 2.1578616206 2.1895948798 2.2213281389 2.253061398 
2.2847946572 2.3165279163 2.3482611754 2.3799944345 2.4117276937 2.4434609528 2.4751942119 2.506927471 2.5386607302 
2.5703939893 2.6021272484 2.6338605076 2.6655937667 2.6973270258 2.7290602849 2.7607935441 2.7925268032 2.8242600623 
2.8559933214 2.8877265806 2.9194598397 2.9511930988 2.982926358 3.0146596171 3.0463928762 3.0781261353 3.1098593945 
3.1415926536 
_radius 1 100 double
2.6331251014e-16 0.014582869868 0.028761773255 0.042162039814 0.054480834198 0.065514640428 0.075177282494 0.083506740791 0.090659443902 
0.096890895714 0.10252220325 0.10789443578 0.11331696628 0.11901997484 0.12512184948 0.13161808385 0.13839183406 0.1452411266 
0.1519155255 0.15815538878 0.16372835174 0.16845929997 0.17225134914 0.17509623743 0.17707332556 0.17833738616 0.1790967036 
0.17958457767 0.18002866244 0.18062300628 0.18150679414 0.18275205893 0.18436109609 0.18627344916 0.18838145532 0.19055202371 
0.19265119629 0.19456782055 0.19623329566 0.19763529721 0.19882417785 0.19991122442 0.20105827168 0.20245872672 0.20431129688 
0.20678970241 0.21001369014 0.21402746407 0.21879028204 0.22418082173 0.23001353805 0.23606305383 0.24209200715 0.24787822808 
0.25323800719 0.25804315182 0.26223034049 0.26580200181 0.26881868804 0.27138379161 0.27362243752 0.27565731799 0.27758491773 
0.27945583433 0.28126258778 0.28293731727 0.28436006482 0.28537619853 0.28581956359 0.28553690242 0.28440929335 0.28236751753 
0.27939973492 0.27555111972 0.27091600707 0.26562373651 0.2598199162 0.25364536891 0.24721549946 0.24060306511 0.23382712095 
0.22685012135 0.21958383888 0.21190318009 0.20366552723 0.19473228638 0.18498907711 0.17436145075 0.16282400947 0.15040207371 
0.13716635619 0.12322220488 0.10869568212 0.093718947364 0.078417138451 0.062898357293 0.047247667478 0.031525359065 0.015769201431 
6.2726141484e-16 
_area 1 100 double
0 0.00062998541218 0.0024565749794 0.0053019119514 0.0089071944362 0.01297908877 0.017238185915 0.021459523964 0.025498190723 
0.029296561407 0.032873229229 0.036297592421 0.039657777684 0.043030711412 0.046460402244 0.049945957324 0.053437875866 0.056841199563 
0.060025784504 0.062844578578 0.06515907309 0.066868169312 0.067934313589 0.068400089496 0.068390156412 0.068096840833 0.067749891476 
0.067574132858 0.067757167395 0.068451041486 0.069777587973 0.071809019331 0.07456723189 0.07805540304 0.082257822452 0.086999601416 
0.091898004402 0.096551834662 0.10067111306 0.10411328229 0.10689504271 0.10918554814 0.11127330025 0.11351577046 0.11628239281 
0.11989989338 0.12460255296 0.13048574576 0.13748751177 0.14541677089 0.15399708885 0.16290254758 0.1717883031 0.18031880192 
0.18819347868 0.19517052505 0.20108930095 0.20588888781 0.20961672202 0.21242110223 0.21452513652 0.21618467882 0.2176368997 
0.21904873692 0.22047402254 0.22182325928 0.22285264725 0.22320520347 0.22251399761 0.22049717179 0.21700638558 0.21203964355 
0.20572841008 0.19830674816 0.1900704635 0.18133347875 0.17238694266 0.16346494111 0.15471997784 0.1462111358 0.13790690242 
0.12970261087 0.12144983671 0.11299275448 0.10420502339 0.095020531424 0.085452365853 0.075596589773 0.06562050386 0.055738550736 
0.046182046931 0.037170444105 0.028890970197 0.021490228283 0.015076776665 0.0097299678532 0.0055092899071 0.0024603675631 0.00061689975959 
2.2883534112e-17 
