# vtk DataFile Version 5.1
vtk output
ASCII
DATASET POLYDATA
POINTS 100 float
-0.111312 0.0138873 0.719078 -0.11118 0.013676 0.719169 -0.110842 0.0132691 0.719443 
-0.110278 0.0127231 0.719783 -0.109457 0.0121252 0.720005 -0.108341 0.0115845 0.719879 
-0.106883 0.0112213 0.719153 -0.105034 0.0111555 0.717579 -0.102744 0.0114954 0.714931 
-0.0999686 0.0123279 0.711033 -0.0966686 0.0137121 0.705764 -0.0928134 0.0156747 0.69907 
-0.0883829 0.0182095 0.690959 -0.0833685 0.0212802 0.681493 -0.0777729 0.0248249 0.670771 
-0.0716109 0.0287629 0.658919 -0.0649082 0.0330015 0.646063 -0.0577004 0.0374435 0.632319 
-0.0500324 0.0419923 0.617781 -0.0419563 0.0465564 0.602511 -0.0335299 0.0510517 0.586539 
-0.0248149 0.055402 0.569869 -0.0158745 0.0595379 0.552488 -0.00677136 0.0633953 0.534374 
0.00243532 0.0669139 0.515512 0.0116918 0.0700357 0.495903 0.0209519 0.0727054 0.47557 
0.030179 0.0748715 0.454561 0.0393468 0.0764891 0.432947 0.0484389 0.0775237 0.410815 
0.0574481 0.0779553 0.388257 0.0663732 0.0777825 0.365357 0.0752158 0.0770253 0.34218 
0.0839755 0.075726 0.318761 0.0926441 0.0739484 0.295102 0.101201 0.0717741 0.271168 
0.109607 0.0692969 0.246896 0.117802 0.0666151 0.222201 0.125703 0.0638238 0.196994 
0.133202 0.061006 0.171199 0.140175 0.058226 0.144766 0.146477 0.055525 0.117689 
0.151962 0.0529184 0.0900133 0.156483 0.0503979 0.0618406 0.159905 0.0479356 0.0333262 
0.162117 0.0454913 0.00466947 0.163042 0.0430218 -0.0239006 0.162639 0.0404901 -0.052144 
0.160912 0.0378747 -0.0798293 0.157909 0.0351769 -0.106753 0.15372 0.0324246 -0.132755 
0.14847 0.0296733 -0.157728 0.142309 0.0270025 -0.181623 0.135401 0.0245094 -0.204447 
0.127912 0.022299 -0.226254 0.119997 0.0204731 -0.247129 0.111791 0.0191187 -0.267176 
0.103397 0.0182978 -0.286501 0.094885 0.0180398 -0.305194 0.0862911 0.0183368 -0.323319 
0.0776182 0.0191437 -0.340911 0.0688445 0.0203821 -0.357974 0.0599317 0.0219478 -0.374484 
0.0508359 0.0237214 -0.390403 0.0415188 0.0255802 -0.405687 0.0319571 0.0274101 -0.420304 
0.0221509 0.0291167 -0.434243 0.0121282 0.0306326 -0.447523 0.00194613 0.0319228 -0.460196 
-0.0083111 0.0329847 -0.472347 -0.0185379 0.0338447 -0.484087 -0.0286153 0.0345521 -0.495541 
-0.0384208 0.0351696 -0.506832 -0.0478381 0.0357634 -0.518069 -0.0567667 0.0363934 -0.529328 
-0.0651295 0.0371047 -0.540647 -0.0728775 0.0379215 -0.552015 -0.0799921 0.0388449 -0.56337 
-0.0864839 0.039853 -0.574612 -0.092389 0.040905 -0.585602 -0.0977622 0.0419474 -0.596187 
-0.102671 0.0429216 -0.606209 -0.107185 0.0437718 -0.615524 -0.111371 0.0444526 -0.624017 
-0.115288 0.0449346 -0.631612 -0.118977 0.0452072 -0.638275 -0.122467 0.0452796 -0.644021 
-0.125768 0.0451783 -0.648902 -0.128877 0.0449429 -0.653001 -0.131782 0.0446205 -0.656424 
-0.134461 0.0442592 -0.659281 -0.136894 0.0439027 -0.661675 -0.13906 0.0435853 -0.663696 
-0.140943 0.0433294 -0.665413 -0.142533 0.0431447 -0.666869 -0.143824 0.0430299 -0.668085 
-0.144818 0.0429752 -0.669063 -0.145517 0.0429669 -0.669795 -0.145926 0.0429914 -0.670268 
-0.146048 0.043039 -0.67047 
LINES 2 100
OFFSETS vtktypeint64
0 100 
CONNECTIVITY vtktypeint64
0 1 2 3 4 5 6 7 8 
9 10 11 12 13 14 15 16 17 
18 19 20 21 22 23 24 25 26 
27 28 29 30 31 32 33 34 35 
36 37 38 39 40 41 42 43 44 
45 46 47 48 49 50 51 52 53 
54 55 56 57 58 59 60 61 62 
63 64 65 66 67 68 69 70 71 
72 73 74 75 76 77 78 79 80 
81 82 83 84 85 86 87 88 89 
90 91 92 93 94 95 96 97 98 
99 
POINT_DATA 100
FIELD FieldData 3
_theta 1 100 double
0 0.031733259127 0.063466518254 0.095199777382 0.12693303651 0.15866629564 0.19039955476 0.22213281389 0.25386607302 
0.28559933214 0.31733259127 0.3490658504 0.38079910953 0.41253236865 0.44426562778 0.47599888691 0.50773214603 0.53946540516 
0.57119866429 0.60293192342 0.63466518254 0.66639844167 0.6981317008 0.72986495992 0.76159821905 0.79333147818 0.82506473731 
0.85679799643 0.88853125556 0.92026451469 0.95199777382 0.98373103294 1.0154642921 1.0471975512 1.0789308103 1.1106640695 
1.1423973286 1.1741305877 1.2058638468 1.237597106 1.2693303651 1.3010636242 1.3327968833 1.3645301425 1.3962634016 
1.4279966607 1.4597299198 1.491463179 1.5231964381 1.5549296972 1.5866629564 1.6183962155 1.6501294746 1.6818627337 
1.7135959929 1.745329252 1.7770625111 1.8087957702 1.8405290294 1.8722622885 1.9039955476 1.9357288068 1.9674620659 
1.999195325 2.0309285841 2.0626618433 2.0943951024 2.1261283615 2.1578616206 2.1895948798 2.2213281389 2.253061398 
2.2847946572 2.3165279163 2.3482611754 2.3799944345 2.4117276937 2.4434609528 2.4751942119 2.506927471 2.5386607302 
2.5703939893 2.6021272484 2.6338605076 2.6655937667 2.6973270258 2.7290602849 2.7607935441 2.7925268032 2.8242600623 
2.8559933214 2.8877265806 2.9194598397 2.9511930988 2.982926358 3.0146596171 3.0463928762 3.0781261353 3.1098593945 
3.1415926536 
_radius 1 100 double
1.015452063e-15 0.015427635001 0.030764354434 0.045917199462 0.060792257163 0.075292832288 0.089317005881 0.10275561593 0.11549191553 
0.12740394545 0.13837007829 0.1482774187 0.15703198658 0.16456906458 0.17086189334 0.17592710146 0.17982582515 0.18266029143 
0.18456652005 0.18570449691 0.18624743094 0.18637138711 0.18624581912 0.18602476672 0.18583832456 0.18578464822 0.18592369836 
0.1862742291 0.18681491722 0.18748958993 0.18821590408 0.18889667883 0.18943305873 0.18973841614 0.18975139125 0.18944618559 
0.18883855946 0.18798673206 0.18698703323 0.18596454717 0.18505962598 0.18441266755 0.18415127661 0.18438351458 0.18519734222 
0.18666238393 0.18882935272 0.19172508741 0.19534487142 0.19964620714 0.20454811303 0.20993743463 0.21568045783 0.2216363293 
0.22766897902 0.23365558861 0.23949113681 0.24508958861 0.2503827131 0.25531744114 0.25985239962 0.26395406055 0.26759295178 
0.27074052335 0.27336735962 0.27544328598 0.27693948055 0.27783208455 0.27810626117 0.27775944079 0.27680272414 0.27525997124 
0.27316468866 0.27055519908 0.26746872167 0.26393504231 0.25997049851 0.25557303007 0.25071902603 0.24536262133 0.23943793677 
0.2328644486 0.22555520416 0.21742705075 0.20841158015 0.19846525567 0.18757724282 0.17577377882 0.16311840783 0.14970797977 
0.13566487947 0.12112645274 0.10623297194 0.091115684391 0.075886469501 0.060630382909 0.045401921694 0.030225291704 0.015098416132 
3.5235295396e-16 
_area 1 100 double
0 0.00058816254763 0.0023521841807 0.0052849749552 0.0093576801844 0.01450020847 0.020584001056 0.027413111759 0.034727556933 
0.042219728785 0.049561148891 0.056433949242 0.062560342371 0.067724701644 0.07178616984 0.074682959433 0.07643073247 0.077116649541 
0.076889668375 0.075947893715 0.074524898571 0.072877354729 0.071274298529 0.069983168616 0.069242114503 0.0692143602 0.069950706774 
0.071397895712 0.073439404955 0.075925209121 0.078679255812 0.081503694614 0.084197542629 0.086584817204 0.088540549042 0.090014801637 
0.091052767868 0.091797149361 0.092456648493 0.09323627335 0.094268775657 0.095599936477 0.097216234058 0.099080530904 0.10116308181 
0.10346692228 0.10604602055 0.10901428542 0.1125455947 0.11684017712 0.12204064279 0.12814713192 0.13500899453 0.14238596669 
0.15001120501 0.15762275347 0.16497465473 0.17184676395 0.17805885345 0.18348305542 0.1880482757 0.19173543464 0.19456615307 
0.19658815117 0.1978596553 0.1984344521 0.19834973356 0.19761989405 0.19623894242 0.19419121767 0.19146675054 0.18807122067 
0.18402576394 0.17936297705 0.17412328681 0.16835083788 0.16208808677 0.15537283399 0.14824019604 0.14072521024 0.13286161849 
0.12467791681 0.11619476924 0.10742719147 0.098392459957 0.089121873214 0.079672525697 0.070135045503 0.060634767544 0.051326099917 
0.042381587966 0.033977817745 0.026280436831 0.019430874655 0.013537439864 0.008672610017 0.004876582743 0.0021653912599 0.00054090205711 
6.1783092753e-18 
