# vtk DataFile Version 5.1
vtk output
ASCII
DATASET POLYDATA
POINTS 100 float
-0.0552424 -0.0613122 0.68904 -0.0550494 -0.0609512 0.688088 -0.0545112 -0.059721 0.685259 
-0.0537047 -0.0576601 0.680671 -0.0527463 -0.0548308 0.674515 -0.0517751 -0.0513131 0.667035 
-0.0509334 -0.0471975 0.658509 -0.0503457 -0.0425779 0.649226 -0.0500982 -0.0375438 0.639463 
-0.0502234 -0.032175 0.629468 -0.0506895 -0.0265377 0.619434 -0.0513974 -0.0206829 0.609494 
-0.0521852 -0.0146476 0.599712 -0.0528403 -0.00845852 0.590079 -0.0531176 -0.00213626 0.580527 
-0.0527617 0.00429808 0.570934 -0.0515316 0.0108174 0.561143 -0.0492236 0.0173833 0.55098 
-0.0456919 0.0239432 0.540273 -0.0408627 0.0304285 0.52887 -0.0347417 0.0367568 0.516656 
-0.0274135 0.0428346 0.503557 -0.0190333 0.0485636 0.489552 -0.00981121 0.0538475 0.474669 
7.84928e-06 0.0585996 0.458978 0.0101674 0.0627494 0.442584 0.0204226 0.0662488 0.425608 
0.0305617 0.0690758 0.408177 0.0404216 0.0712354 0.390404 0.0498982 0.0727587 0.372378 
0.0589485 0.0736987 0.354155 0.0675854 0.074125 0.335748 0.075866 0.0741162 0.317132 
0.0838739 0.0737526 0.298248 0.0916993 0.073109 0.279008 0.0994177 0.0722485 0.259315 
0.107071 0.0712182 0.239069 0.114653 0.0700478 0.218191 0.1221 0.0687491 0.196628 
0.129289 0.0673188 0.174369 0.136045 0.0657428 0.151447 0.142151 0.064001 0.127944 
0.147369 0.0620731 0.103983 0.151459 0.0599438 0.0797228 0.154204 0.0576074 0.0553459 
0.155429 0.0550701 0.0310425 0.15502 0.0523517 0.00699696 0.152937 0.0494845 -0.0166262 
0.149214 0.0465119 -0.0396939 0.143965 0.0434846 -0.0621125 0.137364 0.040457 -0.0838317 
0.12964 0.0374833 -0.104843 0.121048 0.0346138 -0.125176 0.111856 0.0318923 -0.144888 
0.102315 0.0293546 -0.164056 0.0926474 0.0270279 -0.182762 0.0830262 0.0249314 -0.201087 
0.0735708 0.0230783 -0.219094 0.0643424 0.0214774 -0.236828 0.0553484 0.0201354 -0.254312 
0.0465519 0.0190588 -0.271542 0.0378853 0.0182553 -0.288497 0.0292661 0.0177339 -0.305141 
0.020613 0.0175049 -0.321429 0.011861 0.0175783 -0.337318 0.00297208 0.0179623 -0.352772 
-0.00605786 0.0186608 -0.367765 -0.0151972 0.0196717 -0.382287 -0.0243819 0.0209846 -0.396342 
-0.0335234 0.0225801 -0.409943 -0.0425196 0.0244293 -0.423111 -0.0512669 0.0264942 -0.435869 
-0.0596727 0.0287291 -0.44823 -0.0676666 0.0310827 -0.460197 -0.0752074 0.0335005 -0.471757 
-0.0822869 0.0359272 -0.48288 -0.0889296 0.0383095 -0.493517 -0.0951873 0.0405979 -0.503609 
-0.101131 0.0427483 -0.51309 -0.10684 0.0447232 -0.521894 -0.112391 0.0464919 -0.529963 
-0.117846 0.0480307 -0.537259 -0.123246 0.0493225 -0.543765 -0.128603 0.0503561 -0.54949 
-0.133897 0.0511266 -0.554471 -0.139083 0.0516344 -0.55877 -0.144091 0.0518857 -0.562469 
-0.148841 0.0518928 -0.56566 -0.153246 0.0516744 -0.568441 -0.157229 0.0512562 -0.570901 
-0.160728 0.0506705 -0.573118 -0.163706 0.0499567 -0.575148 -0.166153 0.0491597 -0.577024 
-0.168088 0.048329 -0.578754 -0.169552 0.0475162 -0.580323 -0.170605 0.0467725 -0.581701 
-0.171315 0.0461459 -0.582847 -0.17175 0.0456779 -0.583718 -0.171966 0.0454006 -0.584277 
-0.172 0.0453348 -0.584498 
LINES 2 100
OFFSETS vtktypeint64
0 100 
CONNECTIVITY vtktypeint64
0 1 2 3 4 5 6 7 8 
9 10 11 12 13 14 15 16 17 
18 19 20 21 22 23 24 25 26 
27 28 29 30 31 32 33 34 35 
36 37 38 39 40 41 42 43 44 
45 46 47 48 49 50 51 52 53 
54 55 56 57 58 59 60 61 62 
63 64 65 66 67 68 69 70 71 
72 73 74 75 76 77 78 79 80 
81 82 83 84 85 86 87 88 89 
90 91 92 93 94 95 96 97 98 
99 
POINT_DATA 100
FIELD FieldData 3
_theta 1 100 double
0 0.031733259127 0.063466518254 0.095199777382 0.12693303651 0.15866629564 0.19039955476 0.22213281389 0.25386607302 
0.28559933214 0.31733259127 0.3490658504 0.38079910953 0.41253236865 0.44426562778 0.47599888691 0.50773214603 0.53946540516 
0.57119866429 0.60293192342 0.63466518254 0.66639844167 0.6981317008 0.72986495992 0.76159821905 0.79333147818 0.82506473731 
0.85679799643 0.88853125556 0.92026451469 0.95199777382 0.98373103294 1.0154642921 1.0471975512 1.0789308103 1.1106640695 
1.1423973286 1.1741305877 1.2058638468 1.237597106 1.2693303651 1.3010636242 1.3327968833 1.3645301425 1.3962634016 
1.4279966607 1.4597299198 1.491463179 1.5231964381 1.5549296972 1.5866629564 1.6183962155 1.6501294746 1.6818627337 
1.7135959929 1.745329252 1.7770625111 1.8087957702 1.8405290294 1.8722622885 1.9039955476 1.9357288068 1.9674620659 
1.999195325 2.0309285841 2.0626618433 2.0943951024 2.1261283615 2.1578616206 2.1895948798 2.2213281389 2.253061398 
2.2847946572 2.3165279163 2.3482611754 2.3799944345 2.4117276937 2.4434609528 2.4751942119 2.506927471 2.5386607302 
2.5703939893 2.6021272484 2.6338605076 2.6655937667 2.6973270258 2.7290602849 2.7607935441 2.7925268032 2.8242600623 
2.8559933214 2.8877265806 2.9194598397 2.9511930988 2.982926358 3.0146596171 3.0463928762 3.0781261353 3.1098593945 
3.1415926536 
_radius 1 100 double
8.9962431652e-16 0.010262496531 0.020483624889 0.030617836897 0.040626006678 0.050477921881 0.060153284099 0.069640708893 0.078934403466 
0.088028654008 0.096910931849 0.10555509478 0.1139165158 0.12193082694 0.12951732529 0.13658709303 0.14305473226 0.1488515712 
0.15393759182 0.15830946192 0.16200299166 0.16508975601 0.16766891212 0.16985589549 0.17176970073 0.17352019434 0.17519656091 
0.17685748697 0.17852320845 0.1801699242 0.18172872839 0.18309178389 0.18412579916 0.18469029493 0.18465818854 0.18393667234 
0.1824860013 0.18033344626 0.17757990981 0.17439753019 0.17101784959 0.1677116551 0.16476318619 0.16244256295 0.16098038607 
0.16054725099 0.16123911516 0.16306834165 0.16596047896 0.1697577805 0.17423082387 0.17909861783 0.18405565159 0.18880250406 
0.19307574956 0.1966731193 0.19947084407 0.20143140259 0.20260127732 0.20309961832 0.20309979069 0.20280648453 0.20243131019 
0.20216961187 0.20218076124 0.20257363945 0.2033984799 0.20464562372 0.20625083579 0.20810569835 0.21007074495 0.21198896697 
0.21369808649 0.21504093539 0.2158738391 0.21607296603 0.21553844484 0.21419600789 0.21199614761 0.20891119069 0.20493107613 
0.2000587714 0.19430614134 0.18769081427 0.1802343206 0.17196158195 0.16290167213 0.1530895856 0.14256851143 0.13139189179 
0.11962446825 0.10734166931 0.094627041805 0.081567873163 0.068249588298 0.054749860665 0.041133589484 0.027449888418 0.013731940127 
8.5816409248e-16 
_area 1 100 double
0 0.00030883569979 0.0012234688574 0.0027093968216 0.0047125171246 0.0071633849765 0.0099822231739 0.013084592477 0.016387579781 
0.019815626182 0.02330409821 0.026798316121 0.030246895732 0.033591035306 0.0367545781 0.039641314244 0.042144746296 0.04417166237 
0.045674387724 0.046676877506 0.047279915336 0.04768113994 0.048161466942 0.048932446936 0.050179230975 0.051970928874 0.054283950273 
0.057038814986 0.060134927889 0.063461518241 0.066880303077 0.070224537749 0.073326894285 0.076034311562 0.07820224274 0.079713193081 
0.080503583942 0.080567231286 0.079953770721 0.078784876128 0.077258663625 0.075630523169 0.074184801596 0.073215154695 0.073002172927 
0.073711688329 0.07532177972 0.077760492597 0.080983045477 0.084950417502 0.089592741476 0.094777273466 0.10029106471 0.10584688156 
0.11111270286 0.11575750916 0.11950280981 0.12216801243 0.12369786665 0.12416466081 0.12374667589 0.12269247893 0.12128239623 
0.11979438075 0.1184765007 0.11752533702 0.1170693594 0.11715892539 0.11776674358 0.11879939878 0.12011384825 0.12153077266 
0.12284164302 0.12381567001 0.12421833681 0.12384054654 0.12252092124 0.12015501721 0.11670048352 0.1121795005 0.10667439662 
0.10031729563 0.093276290902 0.085738767386 0.077892204062 0.069905108999 0.061914053454 0.054023849852 0.046322233701 0.038899771135 
0.031861775166 0.025326156426 0.019410303531 0.014214396121 0.009808339874 0.006226892159 0.0034739103031 0.00153318924 0.0003815121692 
7.0471077864e-17 
