# vtk DataFile Version 5.1
vtk output
ASCII
DATASET POLYDATA
POINTS 100 float
-0.0873497 -0.00106463 0.776408 -0.0873012 -0.00121757 0.776573 -0.0871759 -0.0014871 0.777044 
-0.0869533 -0.00181884 0.777687 -0.0865995 -0.00212774 0.778298 -0.0860681 -0.00230665 0.778618 
-0.0853027 -0.00223711 0.778364 -0.084239 -0.00180097 0.777257 -0.0828075 -0.000891846 0.775047 
-0.0809368 0.000574993 0.771539 -0.0785566 0.00265519 0.766611 -0.0756008 0.00537099 0.760216 
-0.0720103 0.0087103 0.752391 -0.0677356 0.012629 0.743238 -0.0627389 0.0170561 0.732915 
-0.0569955 0.0219004 0.721612 -0.0504944 0.027059 0.709524 -0.0432385 0.0324246 0.696834 
-0.0352445 0.037893 0.683688 -0.0265411 0.0433681 0.67018 -0.0171682 0.0487654 0.656349 
-0.00717518 0.0540133 0.642174 0.00338117 0.0590519 0.627586 0.0144379 0.0638316 0.612475 
0.0259273 0.0683094 0.596711 0.037778 0.0724464 0.580164 0.0499155 0.076205 0.562716 
0.0622621 0.0795477 0.544281 0.0747368 0.0824366 0.524815 0.0872551 0.0848351 0.504314 
0.0997279 0.0867096 0.482821 0.112061 0.0880329 0.460411 0.124157 0.088787 0.437183 
0.135911 0.088966 0.413246 0.147215 0.0885774 0.388701 0.157958 0.0876427 0.363633 
0.168029 0.0861964 0.3381 0.177315 0.084283 0.312127 0.185711 0.0819539 0.285707 
0.193116 0.0792633 0.25881 0.199439 0.076264 0.231388 0.204604 0.0730042 0.203397 
0.208548 0.0695253 0.174801 0.211229 0.0658612 0.145594 0.21262 0.0620394 0.115807 
0.212719 0.0580833 0.0855166 0.211542 0.0540156 0.0548432 0.209125 0.0498625 0.0239512 
0.205523 0.0456572 -0.00696228 0.200809 0.0414428 -0.0376805 0.195069 0.037274 -0.0679822 
0.188404 0.033216 -0.0976589 0.18092 0.0293427 -0.12653 0.172733 0.0257322 -0.154454 
0.163959 0.0224614 -0.18134 0.154713 0.0196 -0.20715 0.14511 0.0172041 -0.231894 
0.135255 0.0153116 -0.255629 0.125246 0.0139386 -0.278445 0.115168 0.0130787 -0.300451 
0.105095 0.0127036 -0.321766 0.0950849 0.0127675 -0.342501 0.0851838 0.0132123 -0.362751 
0.0754224 0.0139745 -0.382585 0.0658186 0.0149927 -0.402046 0.0563795 0.0162137 -0.421147 
0.0471032 0.0175984 -0.439878 0.0379821 0.0191244 -0.458211 0.0290055 0.020787 -0.476111 
0.0201636 0.0225967 -0.49354 0.0114494 0.0245752 -0.510471 0.00286219 0.0267494 -0.526889 
-0.00559104 0.0291438 -0.542795 -0.0138944 0.0317744 -0.558206 -0.0220228 0.0346422 -0.573152 
-0.0299431 0.0377292 -0.587667 -0.0376152 0.0409972 -0.601785 -0.0449947 0.0443885 -0.615528 
-0.0520361 0.0478297 -0.6289 -0.0586951 0.0512376 -0.641878 -0.0649323 0.0545263 -0.654414 
-0.0707158 0.0576153 -0.666427 -0.0760231 0.0604361 -0.677815 -0.0808426 0.0629386 -0.688456 
-0.0851741 0.0650948 -0.69822 -0.0890281 0.0668998 -0.706984 -0.0924251 0.0683705 -0.714639 
-0.0953929 0.0695422 -0.721107 -0.0979653 0.0704626 -0.726349 -0.100178 0.0711857 -0.730373 
-0.102069 0.0717652 -0.733237 -0.103673 0.0722481 -0.73505 -0.105021 0.0726713 -0.735962 
-0.10614 0.0730581 -0.736159 -0.107053 0.0734187 -0.735848 -0.107776 0.0737517 -0.735242 
-0.108321 0.0740471 -0.734542 -0.108698 0.0742911 -0.733926 -0.108911 0.0744698 -0.73353 
-0.108964 0.0745735 -0.733439 
LINES 2 100
OFFSETS vtktypeint64
0 100 
CONNECTIVITY vtktypeint64
0 1 2 3 4 5 6 7 8 
9 10 11 12 13 14 15 16 17 
18 19 20 21 22 23 24 25 26 
27 28 29 30 31 32 33 34 35 
36 37 38 39 40 41 42 43 44 
45 46 47 48 49 50 51 52 53 
54 55 56 57 58 59 60 61 62 
63 64 65 66 67 68 69 70 71 
72 73 74 75 76 77 78 79 80 
81 82 83 84 85 86 87 88 89 
90 91 92 93 94 95 96 97 98 
99 
POINT_DATA 100
FIELD FieldData 3
_theta 1 100 double
0 0.031733259127 0.063466518254 0.095199777382 0.12693303651 0.15866629564 0.19039955476 0.22213281389 0.25386607302 
0.28559933214 0.31733259127 0.3490658504 0.38079910953 0.41253236865 0.44426562778 0.47599888691 0.50773214603 0.53946540516 
0.57119866429 0.60293192342 0.63466518254 0.66639844167 0.6981317008 0.72986495992 0.76159821905 0.79333147818 0.82506473731 
0.85679799643 0.88853125556 0.92026451469 0.95199777382 0.98373103294 1.0154642921 1.0471975512 1.0789308103 1.1106640695 
1.1423973286 1.1741305877 1.2058638468 1.237597106 1.2693303651 1.3010636242 1.3327968833 1.3645301425 1.3962634016 
1.4279966607 1.4597299198 1.491463179 1.5231964381 1.5549296972 1.5866629564 1.6183962155 1.6501294746 1.6818627337 
1.7135959929 1.745329252 1.7770625111 1.8087957702 1.8405290294 1.8722622885 1.9039955476 1.9357288068 1.9674620659 
1.999195325 2.0309285841 2.0626618433 2.0943951024 2.1261283615 2.1578616206 2.1895948798 2.2213281389 2.253061398 
2.2847946572 2.3165279163 2.3482611754 2.3799944345 2.4117276937 2.4434609528 2.4751942119 2.506927471 2.5386607302 
2.5703939893 2.6021272484 2.6338605076 2.6655937667 2.6973270258 2.7290602849 2.7607935441 2.7925268032 2.8242600623 
2.8559933214 2.8877265806 2.9194598397 2.9511930988 2.982926358 3.0146596171 3.0463928762 3.0781261353 3.1098593945 
3.1415926536 
_radius 1 100 double
1.110299255e-16 0.014896143807 0.029833280468 0.044828191115 0.059863385975 0.074877227871 0.089760627213 0.10436038477 0.1184884781 
0.1319360989 0.14449089332 0.15595552971 0.16616546168 0.17500371337 0.18241081986 0.18838873917 0.19299849593 0.1963522814 
0.19860144083 0.1999220644 0.20049983905 0.2005156583 0.20013337442 0.19949088916 0.19869531298 0.19782224303 0.19691862117 
0.19600825587 0.19509876561 0.19418846155 0.19327189637 0.19234356571 0.1914000806 0.19044141926 0.1894714705 0.18849758216 
0.18752909868 0.18657584382 0.18564790214 0.18475735551 0.18392167766 0.18316770506 0.18253437829 0.18207223591 0.18183889902 
0.18189256191 0.18228752999 0.1830742872 0.18430238202 0.18602185301 0.18827992994 0.19111247524 0.19453189025 0.19851452367 
0.20299127 0.20784481739 0.21291540526 0.21801440524 0.22294298506 0.22751251098 0.23156377144 0.23498268743 0.23771063505 
0.23974807959 0.24115106913 0.24202112797 0.24248997755 0.2427011237 0.24279062377 0.24286929127 0.24300828132 0.24322956049 
0.24350230255 0.24374568519 0.24383771201 0.24362863177 0.24295673123 0.24166410413 0.23961035744 0.23668279212 0.23280222653 
0.22792430355 0.22203679522 0.21515395096 0.20730918293 0.19854730472 0.18891724366 0.17846582727 0.16723307552 0.15524944779 
0.1425355538 0.12910470589 0.11496823055 0.10014278634 0.084658353056 0.068565315967 0.051939221186 0.034882217849 0.017520789736 
4.3590693954e-16 
_area 1 100 double
0 0.00052121470382 0.002107653256 0.0048203737738 0.0087354412096 0.013905905751 0.020318491004 0.027858712124 0.036294389768 
0.045281593389 0.054392932618 0.063164887724 0.07115703551 0.078011490281 0.08349721257 0.08752466433 0.090125610278 0.091409994318 
0.091526520727 0.090651333112 0.089009742131 0.086920306934 0.084893782729 0.083679128993 0.083047577185 0.082745267059 0.082577239354 
0.082391642668 0.08208714913 0.081623926292 0.081026418325 0.080329342544 0.079434406952 0.078281897413 0.076971609413 0.075961363892 
0.076402001165 0.077593782358 0.07862833412 0.079362147321 0.079981238165 0.081097593888 0.08308875034 0.085187883873 0.086940133842 
0.088273317566 0.089336656646 0.090343488116 0.091512214894 0.093013382029 0.094968518142 0.097483886904 0.10066739265 0.1045905058 
0.10922596327 0.11444845606 0.12006563229 0.12582631487 0.1314357758 0.1365899043 0.14101731829 0.14452069681 0.14701272497 
0.14854219863 0.14929501947 0.14951184734 0.14934722178 0.1488799865 0.14819297825 0.14738828388 0.14657204842 0.14583391258 
0.14522320879 0.14472234138 0.14422693125 0.14354974707 0.14245674513 0.14072322258 0.13818354353 0.13475014991 0.13039711176 
0.12512911524 0.11896415022 0.11193735454 0.10411404015 0.095600610942 0.086548113563 0.077145380524 0.067600680201 0.058115755528 
0.048864125889 0.039989360493 0.031625098383 0.023916611792 0.01702556833 0.011118945502 0.0063521011317 0.0028539411415 0.00071805327056 
1.2154997045e-16 
