# vtk DataFile Version 5.1
vtk output
ASCII
DATASET POLYDATA
POINTS 100 float
-0.0768941 -0.0564436 0.703813 -0.076779 -0.0560935 0.703678 -0.0763906 -0.0548493 0.7032 
-0.0757571 -0.0527411 0.702372 -0.0749205 -0.049818 0.701186 -0.0739297 -0.0461448 0.699629 
-0.0728321 -0.0417981 0.697683 -0.0716646 -0.0368621 0.695318 -0.0704455 -0.0314237 0.692497 
-0.0691682 -0.025569 0.689175 -0.0677971 -0.0193792 0.685293 -0.0662668 -0.0129285 0.680788 
-0.0644854 -0.00628289 0.675587 -0.0623399 0.000500673 0.669618 -0.0597051 0.00737298 0.662808 
-0.0564539 0.0142911 0.655092 -0.0524687 0.0212164 0.646412 -0.0476521 0.0281115 0.636727 
-0.0419357 0.0349384 0.626008 -0.0352869 0.0416564 0.614247 -0.0277116 0.0482204 0.601451 
-0.0192542 0.05458 0.587643 -0.00999343 0.0606802 0.57286 -3.51218e-05 0.0664616 0.557146 
0.0104967 0.0718622 0.540549 0.0214701 0.0768191 0.523115 0.0327554 0.0812707 0.504886 
0.0442335 0.0851591 0.48589 0.0558024 0.0884318 0.466147 0.0673798 0.091044 0.44566 
0.0789029 0.0929593 0.424422 0.0903239 0.0941515 0.402414 0.101604 0.0946048 0.379614 
0.112703 0.0943145 0.356001 0.123572 0.0932871 0.331558 0.134144 0.0915405 0.306285 
0.144326 0.0891043 0.2802 0.153996 0.0860197 0.253342 0.163006 0.0823397 0.225782 
0.171183 0.0781294 0.197615 0.178341 0.073465 0.168962 0.184291 0.0684335 0.139969 
0.188858 0.0631315 0.110797 0.191896 0.0576628 0.0816177 0.193299 0.0521362 0.0526041 
0.193018 0.0466613 0.0239237 0.191067 0.0413452 -0.00427003 0.187521 0.0362879 -0.0318441 
0.182523 0.0315774 -0.0586908 0.176263 0.0272861 -0.0847305 0.168975 0.0234672 -0.109912 
0.160915 0.0201521 -0.134214 0.152341 0.0173498 -0.157635 0.143496 0.0150468 -0.180197 
0.134591 0.0132101 -0.201936 0.12579 0.0117902 -0.222894 0.1172 0.0107261 -0.243118 
0.108872 0.00995171 -0.262652 0.1008 0.00940109 -0.281537 0.0929341 0.009015 -0.299807 
0.0851886 0.00874577 -0.317489 0.0774612 0.0085611 -0.334603 0.0696485 0.00844623 -0.35117 
0.0616621 0.00840404 -0.367207 0.0534414 0.0084533 -0.382736 0.0449624 0.00862509 -0.397786 
0.0362412 0.00895775 -0.412392 0.0273327 0.00949103 -0.426598 0.0183238 0.0102599 -0.440458 
0.00932308 0.0112888 -0.45403 0.000447831 0.0125871 -0.467373 -0.00818949 0.0141457 -0.480546 
-0.0164937 0.0159364 -0.4936 -0.0243965 0.0179128 -0.50657 -0.0318625 0.0200131 -0.519476 
-0.0388899 0.022166 -0.532314 -0.0455071 0.0242958 -0.545055 -0.0517645 0.0263304 -0.557647 
-0.057724 0.0282073 -0.570013 -0.0634461 0.02988 -0.582053 -0.0689777 0.0313224 -0.593655 
-0.0743422 0.0325309 -0.604697 -0.0795321 0.033525 -0.615056 -0.0845072 0.0343446 -0.624616 
-0.0891966 0.0350456 -0.633276 -0.0935068 0.0356936 -0.640957 -0.0973327 0.0363565 -0.647608 
-0.100572 0.0370971 -0.653209 -0.103138 0.0379651 -0.657774 -0.104977 0.0389919 -0.66135 
-0.106077 0.0401858 -0.664017 -0.10647 0.0415308 -0.665879 -0.106243 0.042987 -0.667062 
-0.105522 0.0444941 -0.667705 -0.104469 0.045977 -0.667951 -0.103266 0.0473528 -0.66794 
-0.102094 0.0485389 -0.667797 -0.10112 0.0494614 -0.667632 -0.100476 0.0500617 -0.667524 
-0.100249 0.0503032 -0.667523 
LINES 2 100
OFFSETS vtktypeint64
0 100 
CONNECTIVITY vtktypeint64
0 1 2 3 4 5 6 7 8 
9 10 11 12 13 14 15 16 17 
18 19 20 21 22 23 24 25 26 
27 28 29 30 31 32 33 34 35 
36 37 38 39 40 41 42 43 44 
45 46 47 48 49 50 51 52 53 
54 55 56 57 58 59 60 61 62 
63 64 65 66 67 68 69 70 71 
72 73 74 75 76 77 78 79 80 
81 82 83 84 85 86 87 88 89 
90 91 92 93 94 95 96 97 98 
99 
POINT_DATA 100
FIELD FieldData 3
_theta 1 100 double
0 0.031733259127 0.063466518254 0.095199777382 0.12693303651 0.15866629564 0.19039955476 0.22213281389 0.25386607302 
0.28559933214 0.31733259127 0.3490658504 0.38079910953 0.41253236865 0.44426562778 0.47599888691 0.50773214603 0.53946540516 
0.57119866429 0.60293192342 0.63466518254 0.66639844167 0.6981317008 0.72986495992 0.76159821905 0.79333147818 0.82506473731 
0.85679799643 0.88853125556 0.92026451469 0.95199777382 0.98373103294 1.0154642921 1.0471975512 1.0789308103 1.1106640695 
1.1423973286 1.1741305877 1.2058638468 1.237597106 1.2693303651 1.3010636242 1.3327968833 1.3645301425 1.3962634016 
1.4279966607 1.4597299198 1.491463179 1.5231964381 1.5549296972 1.5866629564 1.6183962155 1.6501294746 1.6818627337 
1.7135959929 1.745329252 1.7770625111 1.8087957702 1.8405290294 1.8722622885 1.9039955476 1.9357288068 1.9674620659 
1.999195325 2.0309285841 2.0626618433 2.0943951024 2.1261283615 2.1578616206 2.1895948798 2.2213281389 2.253061398 
2.2847946572 2.3165279163 2.3482611754 2.3799944345 2.4117276937 2.4434609528 2.4751942119 2.506927471 2.5386607302 
2.5703939893 2.6021272484 2.6338605076 2.6655937667 2.6973270258 2.7290602849 2.7607935441 2.7925268032 2.8242600623 
2.8559933214 2.8877265806 2.9194598397 2.9511930988 2.982926358 3.0146596171 3.0463928762 3.0781261353 3.1098593945 
3.1415926536 
_radius 1 100 double
6.7421629699e-16 0.014671658059 0.029313954045 0.043885203693 0.058339941881 0.072625210469 0.0866757165 0.10040927087 0.11372405514 
0.12649871828 0.13859550095 0.1498660079 0.16015910067 0.16933050409 0.17725378591 0.18383215677 0.18901008599 0.19278326874 
0.19520525728 0.19638919867 0.19650358437 0.19576164231 0.1944049284 0.19268273921 0.19083002914 0.18904732143 0.18748629079 
0.18624357883 0.18536224501 0.18483670548 0.18461713269 0.18461315779 0.18470004925 0.1847311249 0.1845582663 0.18405870027 
0.18316256412 0.18187571464 0.18029518769 0.17861351372 0.17710391597 0.17608243271 0.17585429803 0.17666046842 0.17864104327 
0.18182486859 0.18614244148 0.19145058738 0.19755750449 0.20424270243 0.2112720927 0.21841092735 0.22543676537 0.23215287225 
0.23840085009 0.24407046333 0.24910460728 0.25349801984 0.25728947639 0.26054854489 0.26335911609 0.26580251295 0.26794290161 
0.26981709786 0.27142993273 0.2727553476 0.27374251618 0.27432564752 0.27443574572 0.27401247746 0.27301440638 0.27142615831 
0.2692615041 0.26656178117 0.2633894886 0.25981739685 0.25591425721 0.25172913464 0.24727719828 0.24253005024 0.23741307567 
0.2318109145 0.22558039683 0.21856871721 0.21063369998 0.20166287196 0.19158855926 0.18039708753 0.16813115099 0.15488538017 
0.1407959987 0.1260261593 0.11074903423 0.095130960094 0.07931686148 0.063419776769 0.047515607032 0.031643329452 0.015810085919 
5.9104859591e-16 
_area 1 100 double
0 0.00061482413656 0.002442429375 0.0054358993486 0.0095278490281 0.014641461949 0.02069636142 0.027603729679 0.035251077451 
0.043484307125 0.052096147988 0.060825113937 0.069364344816 0.077378887556 0.084531188222 0.090514401449 0.095090261975 0.098123872899 
0.099604459284 0.099642625995 0.098444574325 0.0962775406 0.093443502472 0.090270593586 0.087186947298 0.084632085142 0.082577920872 
0.081001595017 0.079868466929 0.079145484115 0.078892261806 0.079175719745 0.079827423512 0.080603733913 0.081304407659 0.081776814271 
0.081953806681 0.081839585348 0.081482334415 0.081064345513 0.080960041809 0.081686319411 0.083368944721 0.08578963751 0.088913100096 
0.092745816786 0.097297312249 0.10257281678 0.10854836539 0.1151257231 0.12210629513 0.12921163692 0.13614260961 0.14265084932 
0.14860223196 0.15402283656 0.1591066966 0.16407172174 0.16908740532 0.17397460946 0.1788812589 0.18341006047 0.18744620104 
0.19095630489 0.19397000444 0.19612940441 0.19735938461 0.19762969767 0.19694138511 0.19531050519 0.19275297803 0.18928241527 
0.18492941535 0.17977428143 0.17396812122 0.16772364232 0.16127641967 0.15482982224 0.1485009521 0.14228637508 0.13606228806 
0.12962020586 0.12272393203 0.11516840206 0.10682638403 0.097676770435 0.087813147506 0.077433710615 0.066815306275 0.056276499217 
0.046136768611 0.036679981988 0.028129100951 0.020635797689 0.014284626672 0.0091079343699 0.0051055546173 0.0022631236368 0.00056485936075 
8.8871715987e-18 
