# vtk DataFile Version 5.1
vtk output
ASCII
DATASET POLYDATA
POINTS 100 float
-0.207746 -0.0632831 0.738118 -0.207603 -0.0633645 0.738147 -0.207209 -0.0634442 0.738216 
-0.206523 -0.0634745 0.738218 -0.205484 -0.0633813 0.737985 -0.204012 -0.0630708 0.737316 
-0.202022 -0.0624382 0.73599 -0.199428 -0.0613762 0.7338 -0.196156 -0.0597841 0.730573 
-0.192145 -0.057576 0.726185 -0.187356 -0.0546867 0.72058 -0.181772 -0.051076 0.713764 
-0.175399 -0.0467308 0.705808 -0.168261 -0.0416651 0.696831 -0.160399 -0.035918 0.686984 
-0.151861 -0.0295508 0.676424 -0.142705 -0.0226434 0.665296 -0.132985 -0.0152905 0.653714 
-0.122758 -0.00759828 0.641741 -0.112075 0.000319019 0.62939 -0.100986 0.00834107 0.616617 
-0.0895416 0.0163438 0.603332 -0.0777918 0.0242015 0.589412 -0.0657921 0.031789 0.574723 
-0.0536033 0.0389846 0.559133 -0.0412922 0.0456738 0.54254 -0.0289304 0.0517542 0.524882 
-0.0165912 0.05714 0.506146 -0.00434608 0.0617678 0.486378 0.0077403 0.0656011 0.465673 
0.0196145 0.0686344 0.444165 0.0312376 0.0708944 0.422013 0.0425866 0.0724398 0.399381 
0.0536538 0.0733575 0.376423 0.0644426 0.0737565 0.353257 0.0749614 0.0737594 0.329962 
0.0852157 0.0734915 0.306566 0.0951983 0.0730699 0.28305 0.104881 0.0725931 0.25935 
0.114207 0.0721315 0.235374 0.123086 0.0717216 0.211019 0.131395 0.0713636 0.186188 
0.138982 0.0710229 0.160807 0.145671 0.0706363 0.134844 0.15128 0.0701212 0.108313 
0.155631 0.0693874 0.0812841 0.15857 0.0683506 0.0538775 0.159978 0.0669449 0.0262553 
0.15979 0.0651337 -0.00139189 0.157999 0.0629173 -0.0288618 0.15466 0.0603359 -0.0559587 
0.149893 0.0574682 -0.0825096 0.143866 0.0544246 -0.108378 0.136789 0.0513373 -0.133474 
0.128894 0.0483465 -0.157755 0.120415 0.0455867 -0.181227 0.111569 0.0431717 -0.203932 
0.102542 0.0411834 -0.225943 0.0934722 0.0396636 -0.247347 0.0844466 0.0386101 -0.268231 
0.0754975 0.0379787 -0.288673 0.0666088 0.0376891 -0.308726 0.0577261 0.0376359 -0.328421 
0.0487704 0.0377017 -0.34776 0.039655 0.0377716 -0.366719 0.0303013 0.0377469 -0.385261 
0.020653 0.0375565 -0.403336 0.0106864 0.0371649 -0.420897 0.000416254 0.0365753 -0.437907 
-0.0101044 0.0358279 -0.454345 -0.020789 0.0349936 -0.470213 -0.0315267 0.0341644 -0.485533 
-0.0421943 0.0334407 -0.500345 -0.0526701 0.0329188 -0.514701 -0.0628457 0.0326786 -0.528659 
-0.0726371 0.032774 -0.542268 -0.0819907 0.0332269 -0.555564 -0.0908861 0.0340249 -0.568562 
-0.0993338 0.0351241 -0.581247 -0.107369 0.0364546 -0.593577 -0.115043 0.0379302 -0.605482 
-0.122412 0.0394581 -0.616871 -0.129525 0.04095 -0.627637 -0.13642 0.0423314 -0.63767 
-0.14311 0.0435484 -0.646863 -0.149585 0.0445717 -0.655127 -0.155813 0.045397 -0.662395 
-0.161743 0.0460417 -0.668633 -0.167309 0.0465396 -0.673841 -0.172447 0.0469333 -0.678051 
-0.177094 0.0472668 -0.681332 -0.181204 0.0475783 -0.683778 -0.184749 0.0478942 -0.685507 
-0.187721 0.0482269 -0.686649 -0.190134 0.0485734 -0.687339 -0.192017 0.0489184 -0.687708 
-0.193413 0.0492379 -0.687876 -0.194362 0.049505 -0.687941 -0.194902 0.0496952 -0.687978 
-0.195059 0.0497918 -0.688033 
LINES 2 100
OFFSETS vtktypeint64
0 100 
CONNECTIVITY vtktypeint64
0 1 2 3 4 5 6 7 8 
9 10 11 12 13 14 15 16 17 
18 19 20 21 22 23 24 25 26 
27 28 29 30 31 32 33 34 35 
36 37 38 39 40 41 42 43 44 
45 46 47 48 49 50 51 52 53 
54 55 56 57 58 59 60 61 62 
63 64 65 66 67 68 69 70 71 
72 73 74 75 76 77 78 79 80 
81 82 83 84 85 86 87 88 89 
90 91 92 93 94 95 96 97 98 
99 
POINT_DATA 100
FIELD FieldData 3
_theta 1 100 double
0 0.031733259127 0.063466518254 0.095199777382 0.12693303651 0.15866629564 0.19039955476 0.22213281389 0.25386607302 
0.28559933214 0.31733259127 0.3490658504 0.38079910953 0.41253236865 0.44426562778 0.47599888691 0.50773214603 0.53946540516 
0.57119866429 0.60293192342 0.63466518254 0.66639844167 0.6981317008 0.72986495992 0.76159821905 0.79333147818 0.82506473731 
0.85679799643 0.88853125556 0.92026451469 0.95199777382 0.98373103294 1.0154642921 1.0471975512 1.0789308103 1.1106640695 
1.1423973286 1.1741305877 1.2058638468 1.237597106 1.2693303651 1.3010636242 1.3327968833 1.3645301425 1.3962634016 
1.4279966607 1.4597299198 1.491463179 1.5231964381 1.5549296972 1.5866629564 1.6183962155 1.6501294746 1.6818627337 
1.7135959929 1.745329252 1.7770625111 1.8087957702 1.8405290294 1.8722622885 1.9039955476 1.9357288068 1.9674620659 
1.999195325 2.0309285841 2.0626618433 2.0943951024 2.1261283615 2.1578616206 2.1895948798 2.2213281389 2.253061398 
2.2847946572 2.3165279163 2.3482611754 2.3799944345 2.4117276937 2.4434609528 2.4751942119 2.506927471 2.5386607302 
2.5703939893 2.6021272484 2.6338605076 2.6655937667 2.6973270258 2.7290602849 2.7607935441 2.7925268032 2.8242600623 
2.8559933214 2.8877265806 2.9194598397 2.9511930988 2.982926358 3.0146596171 3.0463928762 3.0781261353 3.1098593945 
3.1415926536 
_radius 1 100 double
2.3428402296e-16 0.017010035317 0.033766553089 0.050026566233 0.0655737286 0.080229445594 0.093861102425 0.10638640596 0.11777301159 
0.12803305574 0.13721295569 0.14537976039 0.1526062108 0.15895720124 0.16448027677 0.1692020728 0.17313135801 0.17626791823 
0.17861529259 0.18019460918 0.18105656714 0.18128894787 0.18101781758 0.18040167906 0.17961907632 0.17885134067 0.17826305805 
0.17798323308 0.17808994998 0.17860069168 0.17946963513 0.18059243434 0.18181828678 0.18296833612 0.18385860337 0.18432476113 
0.18424544863 0.1835607257 0.18228269875 0.18049620196 0.17834889658 0.17603278548 0.17376236318 0.17175569141 0.1702214121 
0.16934954961 0.16930170922 0.17019823205 0.1721035667 0.17501375757 0.17885020824 0.18346221225 0.18863853116 0.19412655763 
0.19965656733 0.20496801945 0.20983455042 0.2140842293 0.21761210925 0.22038335291 0.22242704345 0.22382265906 0.22468248885 
0.22513362006 0.22530247845 0.22530355236 0.22523242014 0.2251621012 0.22514139591 0.22519423863 0.22531981876 0.22549385667 
0.22567155225 0.22579219541 0.22578448106 0.2255708503 0.22506934655 0.22419261544 0.2228451471 0.22092082772 0.21830290796 
0.21486772769 0.21049236508 0.20506522287 0.19849771962 0.19073488417 0.18176281346 0.17161160463 0.1603533454 0.14809575989 
0.13497283083 0.12113393615 0.10673279072 0.091917063277 0.076819263142 0.061549479157 0.046190678144 0.030797298601 0.015397637178 
5.6050675048e-16 
_area 1 100 double
0 0.00056916181281 0.0022623934506 0.0050327710421 0.0087909698923 0.0133969908 0.018660894904 0.024356180691 0.030243424655 
0.036097241998 0.041728545972 0.046996197814 0.051805862587 0.056097855052 0.059829259547 0.062957674356 0.065433162621 0.067201500206 
0.068218004861 0.068469131448 0.067998631039 0.066936579251 0.065527365374 0.064132065605 0.062903213492 0.061957982353 0.061424430156 
0.061374161085 0.061829101968 0.06278071933 0.064215387679 0.066160632229 0.068575611036 0.071207817908 0.073823156289 0.076312875976 
0.078441685055 0.080149939833 0.081360498657 0.082038315464 0.082205397987 0.081963348567 0.081498952979 0.081051273793 0.080880383128 
0.081230823535 0.082302008277 0.084237543385 0.087131764259 0.091026198512 0.09587554784 0.10153111941 0.10778269012 0.11440128856 
0.12113490434 0.12768928937 0.13374426391 0.13901033382 0.14328500561 0.14647568414 0.14858865361 0.14969934159 0.14991970026 
0.14937614712 0.14820302456 0.14654546246 0.14456180189 0.14241852717 0.14027496222 0.13825991274 0.13644763318 0.13484315901 
0.13338413597 0.13195883896 0.13043329406 0.12867807324 0.12658676964 0.12408154181 0.12110582152 0.11760964653 0.11353710749 
0.10882472223 0.10341324521 0.097268114208 0.09040015102 0.082878639364 0.07483195183 0.066435220954 0.057889142053 0.049397347902 
0.041149882121 0.033316359026 0.026046748399 0.019474469636 0.013717546252 0.0088770007865 0.0050342829212 0.0022499121974 0.00056428055451 
7.7449761309e-17 
