# vtk DataFile Version 5.1
vtk output
ASCII
DATASET POLYDATA
POINTS 100 float
-0.195892 -0.00603047 0.806964 -0.19549 -0.00630787 0.806567 -0.194399 -0.00696156 0.805444 
-0.192634 -0.00792675 0.80359 -0.190222 -0.00910016 0.800994 -0.187188 -0.0103467 0.797642 
-0.183558 -0.0115079 0.793518 -0.179351 -0.0124129 0.788603 -0.174576 -0.0128891 0.782881 
-0.169229 -0.012774 0.776337 -0.1633 -0.0119267 0.76896 -0.15677 -0.0102372 0.760745 
-0.14962 -0.00763525 0.751693 -0.141838 -0.00409572 0.741814 -0.133423 0.000358555 0.73112 
-0.124395 0.00565682 0.719634 -0.114796 0.0116837 0.707383 -0.104692 0.0182853 0.694399 
-0.094171 0.025278 0.680717 -0.0833377 0.0324586 0.666372 -0.0723037 0.0396162 0.651398 
-0.061177 0.046544 0.635824 -0.050051 0.0530507 0.619673 -0.0389929 0.0589703 0.602956 
-0.0280361 0.0641699 0.58567 -0.0171756 0.0685555 0.567798 -0.00636759 0.0720738 0.549306 
0.00446434 0.0747121 0.530141 0.0154191 0.0764946 0.510235 0.0266032 0.0774773 0.489507 
0.0381134 0.0777404 0.467868 0.0500183 0.0773796 0.445224 0.0623411 0.0764981 0.421492 
0.075046 0.0751979 0.396601 0.088029 0.0735729 0.370503 0.101116 0.0717037 0.343184 
0.114069 0.0696541 0.31467 0.126595 0.0674699 0.285028 0.138367 0.0651797 0.254374 
0.149045 0.0627972 0.222868 0.158303 0.0603254 0.190707 0.165852 0.0577607 0.158122 
0.171464 0.0550983 0.125363 0.17499 0.0523362 0.0926857 0.17637 0.0494788 0.0603391 
0.175638 0.0465403 0.0285515 0.172921 0.043545 -0.00248186 0.168421 0.0405278 -0.0326078 
0.162403 0.0375327 -0.0617208 0.155171 0.0346101 -0.0897649 0.147044 0.0318143 -0.116731 
0.138333 0.0291993 -0.14265 0.129321 0.0268159 -0.167584 0.120243 0.0247081 -0.191617 
0.111278 0.0229111 -0.214839 0.102542 0.021449 -0.237339 0.0940913 0.0203345 -0.259196 
0.0859294 0.0195691 -0.280469 0.0780178 0.0191436 -0.301199 0.0702909 0.01904 -0.321409 
0.0626712 0.0192337 -0.341107 0.0550839 0.0196957 -0.360291 0.0474686 0.0203952 -0.378962 
0.0397889 0.0213019 -0.397124 0.0320363 0.0223877 -0.414799 0.024231 0.0236288 -0.432023 
0.0164188 0.0250063 -0.448852 0.00866395 0.0265067 -0.465357 0.00104173 0.0281221 -0.481617 
-0.00637135 0.0298494 -0.497713 -0.0135059 0.031689 -0.513717 -0.020307 0.0336434 -0.529679 
-0.0267391 0.035715 -0.545621 -0.0327884 0.0379045 -0.561529 -0.0384622 0.0402081 -0.577351 
-0.0437866 0.042616 -0.592995 -0.048801 0.0451105 -0.608338 -0.0535525 0.0476645 -0.623236 
-0.0580897 0.0502414 -0.637533 -0.0624559 0.0527952 -0.651077 -0.0666853 0.0552715 -0.663736 
-0.0707987 0.0576096 -0.675408 -0.0748024 0.0597459 -0.68603 -0.0786882 0.0616171 -0.695586 
-0.0824357 0.063165 -0.704106 -0.0860154 0.0643404 -0.71166 -0.0893923 0.0651078 -0.718349 
-0.0925312 0.0654492 -0.724297 -0.0953999 0.0653668 -0.729629 -0.0979732 0.0648847 -0.734466 
-0.100235 0.064049 -0.738903 -0.102181 0.0629264 -0.743009 -0.103815 0.0616009 -0.746812 
-0.105153 0.0601689 -0.750308 -0.106216 0.058734 -0.753457 -0.107031 0.0573996 -0.756198 
-0.107626 0.0562625 -0.758453 -0.108025 0.055406 -0.760146 -0.108251 0.0548939 -0.761211 
-0.108315 0.0547664 -0.761605 
LINES 2 100
OFFSETS vtktypeint64
0 100 
CONNECTIVITY vtktypeint64
0 1 2 3 4 5 6 7 8 
9 10 11 12 13 14 15 16 17 
18 19 20 21 22 23 24 25 26 
27 28 29 30 31 32 33 34 35 
36 37 38 39 40 41 42 43 44 
45 46 47 48 49 50 51 52 53 
54 55 56 57 58 59 60 61 62 
63 64 65 66 67 68 69 70 71 
72 73 74 75 76 77 78 79 80 
81 82 83 84 85 86 87 88 89 
90 91 92 93 94 95 96 97 98 
99 
POINT_DATA 100
FIELD FieldData 3
_theta 1 100 double
0 0.031733259127 0.063466518254 0.095199777382 0.12693303651 0.15866629564 0.19039955476 0.22213281389 0.25386607302 
0.28559933214 0.31733259127 0.3490658504 0.38079910953 0.41253236865 0.44426562778 0.47599888691 0.50773214603 0.53946540516 
0.57119866429 0.60293192342 0.63466518254 0.66639844167 0.6981317008 0.72986495992 0.76159821905 0.79333147818 0.82506473731 
0.85679799643 0.88853125556 0.92026451469 0.95199777382 0.98373103294 1.0154642921 1.0471975512 1.0789308103 1.1106640695 
1.1423973286 1.1741305877 1.2058638468 1.237597106 1.2693303651 1.3010636242 1.3327968833 1.3645301425 1.3962634016 
1.4279966607 1.4597299198 1.491463179 1.5231964381 1.5549296972 1.5866629564 1.6183962155 1.6501294746 1.6818627337 
1.7135959929 1.745329252 1.7770625111 1.8087957702 1.8405290294 1.8722622885 1.9039955476 1.9357288068 1.9674620659 
1.999195325 2.0309285841 2.0626618433 2.0943951024 2.1261283615 2.1578616206 2.1895948798 2.2213281389 2.253061398 
2.2847946572 2.3165279163 2.3482611754 2.3799944345 2.4117276937 2.4434609528 2.4751942119 2.506927471 2.5386607302 
2.5703939893 2.6021272484 2.6338605076 2.6655937667 2.6973270258 2.7290602849 2.7607935441 2.7925268032 2.8242600623 
2.8559933214 2.8877265806 2.9194598397 2.9511930988 2.982926358 3.0146596171 3.0463928762 3.0781261353 3.1098593945 
3.1415926536 
_radius 1 100 double
6.8663995022e-16 0.017966019871 0.035700986891 0.052979617382 0.069598098751 0.085379952688 0.10017784336 0.11387246892 0.12637044915 
0.1376031384 0.14752762426 0.15613007289 0.16343039499 0.16948630296 0.17439451949 0.17828734015 0.1813238773 0.18367681312 
0.18551686791 0.18699791042 0.18824536443 0.18934940132 0.19036292351 0.19130325941 0.19215621122 0.19288151405 0.19341943964 
0.19369873642 0.19364603944 0.19319639389 0.19230396665 0.19095168826 0.18915879238 0.18698569759 0.18453556513 0.18195139052 
0.17940798308 0.17709975741 0.17522580742 0.17397285065 0.17349715013 0.17390880099 0.17526231716 0.1775548933 0.18073086822 
0.18469049258 0.18930222792 0.19441770035 0.19988671703 0.20556898318 0.21134076151 0.21709715409 0.22275197118 0.22823689188 
0.2335005828 0.23850747979 0.24323554279 0.24767255882 0.25181124613 0.25564406255 0.25915887258 0.26233639849 0.26514986858 
0.26756676276 0.26955220795 0.2710734062 0.27210442302 0.27263067317 0.27265249704 0.27218730267 0.27126980878 0.26994993088 
0.26828788217 0.26634630893 0.2641798898 0.26182366114 0.25928200243 0.25652038099 0.25346155536 0.24998717787 0.24594490352 
0.24116041225 0.23545325831 0.22865510343 0.22062852763 0.21128418438 0.20059375372 0.18859628747 0.17539636473 0.1611538812 
0.14606690541 0.13035039358 0.11421429246 0.09784447901 0.081389130396 0.064951773924 0.048590858862 0.032324612001 0.016139414307 
2.0187430423e-16 
_area 1 100 double
0 0.00061624640595 0.002464547126 0.0055371724819 0.0098002548505 0.015166614231 0.021471255029 0.028462952169 0.035819334638 
0.043183120775 0.050209531013 0.056611519334 0.062190469144 0.066845393063 0.070561897728 0.073389024223 0.075414907147 0.076759960069 
0.07787785578 0.078987653403 0.079873348752 0.080470991513 0.080796981552 0.080909504827 0.080880397495 0.080835075381 0.080888450457 
0.081104679818 0.081471830351 0.081897808379 0.082240921118 0.082346315312 0.082101870362 0.081494640789 0.080562554563 0.079329022538 
0.077952000314 0.076733553154 0.076080714357 0.076283861119 0.077208911963 0.078602572093 0.080338796517 0.082443496787 0.085835104409 
0.090552324365 0.095384320172 0.1001590895 0.10484007714 0.10944588843 0.11402208306 0.11862607382 0.12333104118 0.12824064594 
0.1334647347 0.1390147303 0.14475348303 0.15049011795 0.15606271679 0.16134166903 0.16616363267 0.17072504681 0.17457949054 
0.17755038579 0.17959091844 0.18063542794 0.18064048606 0.17961471969 0.17761177169 0.17473316463 0.17113418005 0.16702263884 
0.16264509595 0.1582569773 0.15407479731 0.15021754947 0.14666426029 0.14325977606 0.1397642858 0.13591135197 0.13145222209 
0.12618473757 0.1199714104 0.11275093035 0.1045456902 0.095465054891 0.085701161819 0.075513390597 0.065200520335 0.055064826618 
0.045377214606 0.03635401389 0.028152045714 0.020879611134 0.014613339602 0.0094112708719 0.0053191229191 0.0023719238808 0.00059413935288 
3.6537350256e-17 
