# vtk DataFile Version 5.1
vtk output
ASCII
DATASET POLYDATA
POINTS 100 float
-0.153817 -0.0261598 0.679108 -0.153699 -0.0262046 0.67896 -0.15343 -0.0261409 0.678495 
-0.153031 -0.0259459 0.677656 -0.152528 -0.0255842 0.676357 -0.151945 -0.0250103 0.674493 
-0.151291 -0.0241717 0.671955 -0.150554 -0.0230126 0.66864 -0.149687 -0.0214776 0.664471 
-0.148609 -0.0195164 0.659397 -0.147205 -0.0170881 0.653401 -0.145328 -0.0141647 0.646504 
-0.142817 -0.0107348 0.638752 -0.139504 -0.00680619 0.630211 -0.135239 -0.00240688 0.620956 
-0.1299 0.0024142 0.611058 -0.123409 0.0075884 0.60057 -0.115746 0.0130296 0.589523 
-0.10695 0.0186379 0.577921 -0.0971193 0.0243036 0.565738 -0.0864003 0.0299126 0.552925 
-0.0749759 0.0353516 0.53942 -0.0630463 0.0405136 0.525157 -0.0508091 0.0453023 0.510075 
-0.0384394 0.0496364 0.494134 -0.0260741 0.0534523 0.477317 -0.0138001 0.0567053 0.459636 
-0.00165042 0.0593707 0.441129 0.0103929 0.0614416 0.421857 0.0223888 0.0629279 0.401895 
0.034421 0.0638524 0.381319 0.0465777 0.0642484 0.360196 0.0589297 0.0641553 0.338576 
0.0715102 0.0636162 0.316484 0.0842972 0.0626753 0.293923 0.0972034 0.0613756 0.27087 
0.110072 0.0597587 0.247292 0.122682 0.0578645 0.223154 0.13476 0.0557319 0.198435 
0.146001 0.0533998 0.173139 0.156087 0.050909 0.147314 0.164721 0.0483028 0.121049 
0.171643 0.045628 0.0944855 0.176658 0.042935 0.067808 0.179647 0.0402771 0.0412334 
0.18058 0.0377085 0.0149957 0.179514 0.0352823 -0.0106748 0.176589 0.0330478 -0.0355716 
0.172008 0.0310469 -0.0595316 0.166027 0.0293113 -0.0824506 0.158924 0.0278604 -0.104292 
0.150982 0.0266993 -0.125087 0.142468 0.0258185 -0.144931 0.133612 0.0251949 -0.163969 
0.124595 0.0247931 -0.182375 0.115546 0.0245695 -0.200329 0.106537 0.0244753 -0.217999 
0.0975904 0.0244616 -0.235515 0.0886857 0.0244836 -0.252957 0.0797721 0.0245047 -0.270343 
0.0707817 0.0244996 -0.287635 0.0616417 0.0244564 -0.30474 0.0522856 0.0243771 -0.321526 
0.0426619 0.0242768 -0.337845 0.0327391 0.0241816 -0.353549 0.0225089 0.0241247 -0.368515 
0.0119846 0.0241425 -0.382657 0.00119929 0.0242699 -0.395947 -0.00979884 0.0245357 -0.408409 
-0.0209511 0.024959 -0.420123 -0.0321929 0.0255456 -0.43121 -0.0434578 0.026287 -0.44182 
-0.0546806 0.0271599 -0.452108 -0.065799 0.0281275 -0.462218 -0.0767544 0.0291426 -0.472262 
-0.0874924 0.0301506 -0.482306 -0.0979626 0.0310949 -0.492365 -0.108118 0.0319207 -0.502401 
-0.117917 0.0325804 -0.51233 -0.12732 0.0330372 -0.522034 -0.136295 0.0332677 -0.53138 
-0.144816 0.0332642 -0.540238 -0.152867 0.0330346 -0.548495 -0.160436 0.0326014 -0.556076 
-0.167525 0.0319992 -0.562946 -0.174141 0.0312717 -0.569118 -0.180298 0.0304677 -0.574644 
-0.186015 0.0296366 -0.57961 -0.19131 0.0288248 -0.584119 -0.196199 0.028072 -0.588273 
-0.200695 0.0274087 -0.592161 -0.204798 0.0268546 -0.595842 -0.208504 0.0264185 -0.59934 
-0.211795 0.0260986 -0.602634 -0.214649 0.0258848 -0.605671 -0.217035 0.0257607 -0.608364 
-0.218923 0.0257071 -0.610615 -0.220282 0.0257048 -0.612324 -0.221088 0.0257376 -0.613403 
-0.221327 0.0257945 -0.613796 
LINES 2 100
OFFSETS vtktypeint64
0 100 
CONNECTIVITY vtktypeint64
0 1 2 3 4 5 6 7 8 
9 10 11 12 13 14 15 16 17 
18 19 20 21 22 23 24 25 26 
27 28 29 30 31 32 33 34 35 
36 37 38 39 40 41 42 43 44 
45 46 47 48 49 50 51 52 53 
54 55 56 57 58 59 60 61 62 
63 64 65 66 67 68 69 70 71 
72 73 74 75 76 77 78 79 80 
81 82 83 84 85 86 87 88 89 
90 91 92 93 94 95 96 97 98 
99 
POINT_DATA 100
FIELD FieldData 3
_theta 1 100 double
0 0.031733259127 0.063466518254 0.095199777382 0.12693303651 0.15866629564 0.19039955476 0.22213281389 0.25386607302 
0.28559933214 0.31733259127 0.3490658504 0.38079910953 0.41253236865 0.44426562778 0.47599888691 0.50773214603 0.53946540516 
0.57119866429 0.60293192342 0.63466518254 0.66639844167 0.6981317008 0.72986495992 0.76159821905 0.79333147818 0.82506473731 
0.85679799643 0.88853125556 0.92026451469 0.95199777382 0.98373103294 1.0154642921 1.0471975512 1.0789308103 1.1106640695 
1.1423973286 1.1741305877 1.2058638468 1.237597106 1.2693303651 1.3010636242 1.3327968833 1.3645301425 1.3962634016 
1.4279966607 1.4597299198 1.491463179 1.5231964381 1.5549296972 1.5866629564 1.6183962155 1.6501294746 1.6818627337 
1.7135959929 1.745329252 1.7770625111 1.8087957702 1.8405290294 1.8722622885 1.9039955476 1.9357288068 1.9674620659 
1.999195325 2.0309285841 2.0626618433 2.0943951024 2.1261283615 2.1578616206 2.1895948798 2.2213281389 2.253061398 
2.2847946572 2.3165279163 2.3482611754 2.3799944345 2.4117276937 2.4434609528 2.4751942119 2.506927471 2.5386607302 
2.5703939893 2.6021272484 2.6338605076 2.6655937667 2.6973270258 2.7290602849 2.7607935441 2.7925268032 2.8242600623 
2.8559933214 2.8877265806 2.9194598397 2.9511930988 2.982926358 3.0146596171 3.0463928762 3.0781261353 3.1098593945 
3.1415926536 
_radius 1 100 double
9.3095030747e-16 0.018030966705 0.035876178488 0.053354685841 0.070302266008 0.086577554804 0.10206572317 0.11667936652 0.1303566286 
0.14305696238 0.15475530707 0.16543578711 0.17508624451 0.18369490719 0.19125018813 0.19774398371 0.20317799025 0.20757170027 
0.21097014344 0.21344931458 0.21511764172 0.21611265503 0.21659294869 0.21672630675 0.2166753586 0.21658238565 0.21655503701 
0.21665477549 0.21688980336 0.21721394155 0.21753244792 0.21771504143 0.21761535604 0.21709469156 0.21604667014 0.21441890854 
0.21222829987 0.20956752339 0.20660163459 0.20355520223 0.20069240451 0.19829398702 0.19663490818 0.19596441318 0.19648738061 
0.19834461595 0.20159212147 0.20618395945 0.21196605839 0.21868616504 0.22601955328 0.23360516085 0.24108499582 0.24814049939 
0.25452143528 0.26006464979 0.26470145312 0.26845359549 0.27141899531 0.27374949223 0.27562380819 0.27721945123 0.27868735544 
0.28013252671 0.28160286724 0.28308689049 0.28451959299 0.2857946846 0.28678081539 0.2873392832 0.28734082893 0.28667948097 
0.28528197743 0.28311200508 0.28016921502 0.27648358974 0.27210619722 0.26709769208 0.26151613301 0.25540576404 0.24878831801 
0.24165811633 0.2339817701 0.22570266448 0.21674967939 0.20704884626 0.19653601404 0.18516829977 0.17293228544 0.15984759932 
0.1459655181 0.13136327166 0.11613554729 0.1003850735 0.08421405245 0.067717705082 0.050980514969 0.03407514399 0.017063591862 
9.3922317498e-16 
_area 1 100 double
0 0.00074915604498 0.0029607597218 0.0065303210121 0.011293641938 0.017040464778 0.023531286778 0.030515513446 0.037748985594 
0.045008793145 0.052103149939 0.058874150714 0.065192143191 0.070943210756 0.07601552992 0.080292805748 0.083660257073 0.086022500827 
0.08732806749 0.087594402649 0.086929555106 0.085555638813 0.084026760458 0.082879993696 0.082073235476 0.08173996241 0.081942925918 
0.082697829941 0.083965486091 0.085668289656 0.087694570384 0.089897921551 0.092096742741 0.094086675743 0.09567764413 0.096741675681 
0.097245965597 0.097245002038 0.096825782357 0.096101131804 0.095277812501 0.094670147969 0.094631214441 0.095523381276 0.097769400204 
0.10155100677 0.10673085373 0.11323222966 0.12100019462 0.12990295328 0.13968284585 0.14995471269 0.16024622247 0.17006510774 
0.17897327341 0.18664866886 0.19292173421 0.19778147156 0.20135388283 0.2038608921 0.20557033889 0.2067472514 0.2076138542 
0.20832172309 0.2089359264 0.20942985351 0.20969174698 0.20954686459 0.20879547639 0.20725664572 0.20480244083 0.20137148644 
0.19696117285 0.19160877892 0.18537459835 0.17833572172 0.17059287995 0.16228004113 0.15356014299 0.14460326196 0.13555654416 
0.12651723051 0.11751750324 0.10852709664 0.099475524465 0.090289019692 0.080930474724 0.071428668258 0.061887524793 0.052474085672 
0.043391125956 0.034844459733 0.027015231665 0.020044273808 0.014030254163 0.0090380779853 0.0051110690598 0.0022808393489 0.00057168574989 
7.4054379148e-17 
