# vtk DataFile Version 5.1
vtk output
ASCII
DATASET POLYDATA
POINTS 100 float
-0.0984697 -0.0378988 0.727645 -0.0986756 -0.0376529 0.727385 -0.0992777 -0.0367192 0.72659 
-0.100217 -0.0351448 0.725249 -0.101403 -0.033003 0.723343 -0.102722 -0.0303859 0.720852 
-0.104048 -0.0273943 0.717754 -0.105255 -0.0241279 0.71403 -0.106226 -0.0206757 0.709665 
-0.106863 -0.0171088 0.704652 -0.10709 -0.0134751 0.698986 -0.106853 -0.00979879 0.692673 
-0.106115 -0.00608139 0.685718 -0.104857 -0.00230717 0.678131 -0.103061 0.00154992 0.669916 
-0.100713 0.00551798 0.661077 -0.097789 0.0096188 0.651608 -0.0942539 0.0138607 0.641498 
-0.0900634 0.0182334 0.630725 -0.085166 0.0227055 0.619264 -0.0795097 0.0272253 0.607086 
-0.0730516 0.0317239 0.594161 -0.065767 0.0361213 0.580463 -0.0576587 0.0403334 0.565975 
-0.0487636 0.0442798 0.550688 -0.0391555 0.0478913 0.534608 -0.0289433 0.0511155 0.51775 
-0.0182653 0.0539204 0.500144 -0.00727865 0.0562956 0.481827 0.00385376 0.0582505 0.462839 
0.0149772 0.0598109 0.443226 0.0259587 0.0610133 0.423026 0.0366975 0.0618987 0.402273 
0.0471313 0.0625068 0.380994 0.0572368 0.0628702 0.359202 0.0670249 0.0630114 0.336908 
0.07653 0.0629412 0.314113 0.0857953 0.0626591 0.290818 0.0948568 0.0621564 0.267028 
0.103726 0.0614199 0.242754 0.112377 0.0604371 0.218021 0.120735 0.0592007 0.192866 
0.128677 0.0577133 0.167344 0.136033 0.0559899 0.141524 0.142597 0.0540586 0.115489 
0.148146 0.0519606 0.0893286 0.15246 0.0497468 0.0631377 0.155342 0.0474744 0.0370082 
0.156643 0.0452021 0.0110253 0.156276 0.0429855 -0.0147367 0.154229 0.0408725 -0.040217 
0.150566 0.038901 -0.0653687 0.145423 0.0370967 -0.0901576 0.138998 0.0354738 -0.11456 
0.131526 0.0340356 -0.138556 0.123264 0.032778 -0.16213 0.11446 0.0316919 -0.185261 
0.105335 0.030767 -0.207925 0.0960642 0.0299939 -0.230088 0.0867649 0.029366 -0.251713 
0.0774943 0.0288802 -0.272757 0.0682525 0.0285358 -0.293179 0.0589946 0.0283331 -0.312943 
0.0496472 0.0282709 -0.332027 0.0401277 0.0283442 -0.350426 0.0303645 0.0285425 -0.368158 
0.0203142 0.0288486 -0.385264 0.00997397 0.0292392 -0.401807 -0.000612088 0.0296867 -0.417872 
-0.0113537 0.0301617 -0.433553 -0.0221222 0.0306375 -0.448951 -0.0327635 0.031094 -0.46416 
-0.0431146 0.031521 -0.479255 -0.0530222 0.0319212 -0.494288 -0.0623583 0.0323109 -0.509277 
-0.0710337 0.0327185 -0.524202 -0.0790057 0.0331818 -0.539004 -0.0862792 0.0337421 -0.553589 
-0.0929019 0.0344382 -0.567834 -0.0989543 0.035299 -0.581597 -0.104535 0.0363373 -0.594724 
-0.109745 0.0375444 -0.607069 -0.114674 0.0388875 -0.618499 -0.119385 0.0403101 -0.628907 
-0.123908 0.0417348 -0.63822 -0.128237 0.0430703 -0.646402 -0.132336 0.04422 -0.653456 
-0.136142 0.0450928 -0.659422 -0.139582 0.0456135 -0.664369 -0.142584 0.0457326 -0.668394 
-0.145092 0.0454342 -0.671607 -0.147076 0.0447399 -0.674126 -0.14854 0.0437094 -0.676067 
-0.149524 0.042436 -0.677541 -0.150099 0.041039 -0.678643 -0.150359 0.0396527 -0.679456 
-0.150411 0.0384126 -0.680044 -0.150356 0.0374426 -0.680456 -0.150279 0.0368415 -0.680723 
-0.150236 0.0366732 -0.680864 
LINES 2 100
OFFSETS vtktypeint64
0 100 
CONNECTIVITY vtktypeint64
0 1 2 3 4 5 6 7 8 
9 10 11 12 13 14 15 16 17 
18 19 20 21 22 23 24 25 26 
27 28 29 30 31 32 33 34 35 
36 37 38 39 40 41 42 43 44 
45 46 47 48 49 50 51 52 53 
54 55 56 57 58 59 60 61 62 
63 64 65 66 67 68 69 70 71 
72 73 74 75 76 77 78 79 80 
81 82 83 84 85 86 87 88 89 
90 91 92 93 94 95 96 97 98 
99 
POINT_DATA 100
FIELD FieldData 3
_theta 1 100 double
0 0.031733259127 0.063466518254 0.095199777382 0.12693303651 0.15866629564 0.19039955476 0.22213281389 0.25386607302 
0.28559933214 0.31733259127 0.3490658504 0.38079910953 0.41253236865 0.44426562778 0.47599888691 0.50773214603 0.53946540516 
0.57119866429 0.60293192342 0.63466518254 0.66639844167 0.6981317008 0.72986495992 0.76159821905 0.79333147818 0.82506473731 
0.85679799643 0.88853125556 0.92026451469 0.95199777382 0.98373103294 1.0154642921 1.0471975512 1.0789308103 1.1106640695 
1.1423973286 1.1741305877 1.2058638468 1.237597106 1.2693303651 1.3010636242 1.3327968833 1.3645301425 1.3962634016 
1.4279966607 1.4597299198 1.491463179 1.5231964381 1.5549296972 1.5866629564 1.6183962155 1.6501294746 1.6818627337 
1.7135959929 1.745329252 1.7770625111 1.8087957702 1.8405290294 1.8722622885 1.9039955476 1.9357288068 1.9674620659 
1.999195325 2.0309285841 2.0626618433 2.0943951024 2.1261283615 2.1578616206 2.1895948798 2.2213281389 2.253061398 
2.2847946572 2.3165279163 2.3482611754 2.3799944345 2.4117276937 2.4434609528 2.4751942119 2.506927471 2.5386607302 
2.5703939893 2.6021272484 2.6338605076 2.6655937667 2.6973270258 2.7290602849 2.7607935441 2.7925268032 2.8242600623 
2.8559933214 2.8877265806 2.9194598397 2.9511930988 2.982926358 3.0146596171 3.0463928762 3.0781261353 3.1098593945 
3.1415926536 
_radius 1 100 double
8.1796580777e-16 0.015901808987 0.031704982866 0.047313177244 0.062643448124 0.077630082016 0.092225359245 0.10639698278 0.12012254331 
0.13338203428 0.14614989755 0.1583882318 0.17004259806 0.18104137579 0.19129898076 0.20072257838 0.20922132741 0.216716758 
0.22315267954 0.22850304839 0.23277649333 0.23601667873 0.23829835206 0.23971971813 0.2403925915 0.24043238774 0.2399501077 
0.23904774405 0.23781702766 0.23633977582 0.23468734723 0.23291755039 0.23106951566 0.22915924869 0.22717925448 0.22510420757 
0.22290222508 0.22054939353 0.21804435633 0.21541970949 0.2127473935 0.21013625065 0.20772162473 0.20564924657 0.20405787711 
0.20306575821 0.2027638234 0.20321483993 0.20445481821 0.2064929616 0.20930861543 0.21284627111 0.2170113235 0.22166960678 
0.22665288847 0.23177074136 0.2368270437 0.24163770949 0.24604599207 0.24993285432 0.25322164426 0.25587777712 0.2579048805 
0.25933890049 0.26024120579 0.26069106869 0.260777382 0.26058935428 0.26020631121 0.25968749917 0.25906359691 0.25833199257 
0.25745730666 0.25637709993 0.25501089743 0.2532696737 0.25106334733 0.24830523015 0.24491386635 0.24081361587 0.23593550626 
0.23021944568 0.22361808642 0.21610168679 0.20766250186 0.19831684837 0.18810330984 0.17707668081 0.16529894241 0.15283006425 
0.13972172155 0.12601570148 0.11174671353 0.096947890422 0.081657014927 0.065921981458 0.049804569963 0.033382010836 0.016746108287 
3.8708551373e-16 
_area 1 100 double
0 0.00067905046341 0.0026824570058 0.0059166415703 0.010249097534 0.015536751612 0.021653190364 0.02850484154 0.036028389283 
0.044169449019 0.052851985892 0.061951154339 0.071278164281 0.080580091763 0.089553731515 0.097870584722 0.10520902259 0.1112890646 
0.11590492609 0.1189506211 0.12043475643 0.12048245496 0.11932459239 0.1172757751 0.11470174742 0.11197603597 0.10943025447 
0.10731587022 0.10580562137 0.10496210846 0.10470984043 0.10496240861 0.10566133668 0.10663484113 0.10766243696 0.10854492828 
0.10913963136 0.10938812772 0.10932770363 0.10907383177 0.10878166104 0.10859926723 0.10863731441 0.10897142526 0.10965199823 
0.1107110494 0.11216656383 0.11402945109 0.11632060555 0.11909384409 0.12244346698 0.12648880534 0.13133495965 0.13691558359 
0.14294328481 0.1491258457 0.15520113457 0.16093735862 0.16614626896 0.17069136944 0.1744862112 0.17748616988 0.17967931351 
0.18108023947 0.18172782162 0.18168514911 0.18103771993 0.17988484961 0.17832126902 0.17641249945 0.17417559012 0.17157764435 
0.16855529967 0.16504805335 0.1610338571 0.15655404088 0.15171438268 0.14665280234 0.14147620604 0.13619188457 0.13067807065 
0.12472084117 0.11809647827 0.1106537154 0.10236423327 0.093333020751 0.083774588945 0.073966714948 0.064194846117 0.054701591393 
0.04565839692 0.037172005336 0.029316777722 0.022166959651 0.015813521084 0.010366756542 0.0059496006492 0.0026846631238 0.00067753411172 
7.3953235721e-17 
