# vtk DataFile Version 5.1
vtk output
ASCII
DATASET POLYDATA
POINTS 100 float
-0.123878 -0.0355995 0.804127 -0.123575 -0.035624 0.803985 -0.122698 -0.0355217 0.803553 
-0.121274 -0.0352747 0.802768 -0.119343 -0.0348547 0.801531 -0.116954 -0.0342242 0.799719 
-0.11416 -0.033339 0.797203 -0.111009 -0.0321509 0.793859 -0.107544 -0.0306101 0.789584 
-0.103793 -0.0286688 0.784309 -0.0997702 -0.0262837 0.778008 -0.0954721 -0.0234192 0.770697 
-0.0908793 -0.0200494 0.762433 -0.0859588 -0.0161607 0.753306 -0.080668 -0.0117532 0.743429 
-0.0749597 -0.00684226 0.732919 -0.0687879 -0.00145879 0.721883 -0.062113 0.00435026 0.710402 
-0.0549065 0.0105223 0.698518 -0.0471551 0.01698 0.686225 -0.0388626 0.0236328 0.673468 
-0.0300513 0.030379 0.660144 -0.0207605 0.0371081 0.646111 -0.0110457 0.0437045 0.631203 
-0.000974862 0.0500507 0.615242 0.00937444 0.0560312 0.598067 0.0199186 0.0615372 0.579539 
0.0305714 0.0664701 0.55957 0.0412465 0.0707461 0.538125 0.05186 0.0742991 0.515234 
0.0623313 0.0770836 0.49099 0.0725843 0.0790769 0.465542 0.082547 0.080279 0.439087 
0.0921515 0.0807131 0.411846 0.101333 0.0804233 0.384055 0.110031 0.0794721 0.355936 
0.118185 0.0779368 0.327685 0.125739 0.0759054 0.299457 0.132638 0.0734716 0.271352 
0.138832 0.0707309 0.243418 0.144271 0.0677757 0.215646 0.148913 0.0646919 0.187987 
0.152716 0.0615564 0.160356 0.155646 0.0584348 0.132656 0.157677 0.0553809 0.104791 
0.158786 0.0524365 0.0766867 0.158961 0.0496329 0.0483009 0.158196 0.0469916 0.0196371 
0.156496 0.0445265 -0.00925193 0.153876 0.0422458 -0.0382648 0.150363 0.0401535 -0.0672574 
0.145995 0.0382506 -0.0960545 0.140824 0.0365365 -0.124464 0.134914 0.0350088 -0.152292 
0.128341 0.0336639 -0.179362 0.121192 0.0324963 -0.205525 0.113561 0.0314984 -0.230675 
0.105548 0.0306599 -0.254751 0.0972535 0.0299682 -0.277743 0.088772 0.0294077 -0.299686 
0.0801915 0.028961 -0.320651 0.0715862 0.0286099 -0.34074 0.0630145 0.0283363 -0.360067 
0.0545165 0.0281238 -0.37875 0.0461141 0.0279595 -0.396896 0.0378123 0.0278352 -0.414596 
0.0296028 0.0277484 -0.431916 0.0214687 0.0277028 -0.448896 0.013391 0.0277087 -0.465553 
0.00535468 0.0277818 -0.481885 -0.00264472 0.0279425 -0.497877 -0.0105963 0.0282141 -0.513511 
-0.0184702 0.0286211 -0.528771 -0.0262167 0.0291872 -0.543651 -0.0337682 0.0299333 -0.558155 
-0.0410428 0.0308765 -0.572303 -0.0479512 0.0320287 -0.586122 -0.0544051 0.0333957 -0.599643 
-0.0603255 0.034978 -0.612896 -0.0656518 0.0367702 -0.625898 -0.0703495 0.0387621 -0.63865 
-0.0744143 0.0409397 -0.651126 -0.0778755 0.0432853 -0.663275 -0.0807938 0.0457789 -0.675018 
-0.083257 0.0483983 -0.686253 -0.0853721 0.0511189 -0.696862 -0.0872554 0.0539142 -0.706725 
-0.089021 0.0567548 -0.715725 -0.0907693 0.0596083 -0.723765 -0.0925766 0.0624388 -0.730778 
-0.0944878 0.0652069 -0.736734 -0.0965114 0.0678694 -0.741644 -0.0986192 0.0703805 -0.745562 
-0.100749 0.072693 -0.74858 -0.102814 0.0747593 -0.750815 -0.104708 0.0765342 -0.752405 
-0.106322 0.0779766 -0.753486 -0.107556 0.0790519 -0.754186 -0.108328 0.0797339 -0.754602 
-0.108584 0.0800064 -0.7548 
LINES 2 100
OFFSETS vtktypeint64
0 100 
CONNECTIVITY vtktypeint64
0 1 2 3 4 5 6 7 8 
9 10 11 12 13 14 15 16 17 
18 19 20 21 22 23 24 25 26 
27 28 29 30 31 32 33 34 35 
36 37 38 39 40 41 42 43 44 
45 46 47 48 49 50 51 52 53 
54 55 56 57 58 59 60 61 62 
63 64 65 66 67 68 69 70 71 
72 73 74 75 76 77 78 79 80 
81 82 83 84 85 86 87 88 89 
90 91 92 93 94 95 96 97 98 
99 
POINT_DATA 100
FIELD FieldData 3
_theta 1 100 double
0 0.031733259127 0.063466518254 0.095199777382 0.12693303651 0.15866629564 0.19039955476 0.22213281389 0.25386607302 
0.28559933214 0.31733259127 0.3490658504 0.38079910953 0.41253236865 0.44426562778 0.47599888691 0.50773214603 0.53946540516 
0.57119866429 0.60293192342 0.63466518254 0.66639844167 0.6981317008 0.72986495992 0.76159821905 0.79333147818 0.82506473731 
0.85679799643 0.88853125556 0.92026451469 0.95199777382 0.98373103294 1.0154642921 1.0471975512 1.0789308103 1.1106640695 
1.1423973286 1.1741305877 1.2058638468 1.237597106 1.2693303651 1.3010636242 1.3327968833 1.3645301425 1.3962634016 
1.4279966607 1.4597299198 1.491463179 1.5231964381 1.5549296972 1.5866629564 1.6183962155 1.6501294746 1.6818627337 
1.7135959929 1.745329252 1.7770625111 1.8087957702 1.8405290294 1.8722622885 1.9039955476 1.9357288068 1.9674620659 
1.999195325 2.0309285841 2.0626618433 2.0943951024 2.1261283615 2.1578616206 2.1895948798 2.2213281389 2.253061398 
2.2847946572 2.3165279163 2.3482611754 2.3799944345 2.4117276937 2.4434609528 2.4751942119 2.506927471 2.5386607302 
2.5703939893 2.6021272484 2.6338605076 2.6655937667 2.6973270258 2.7290602849 2.7607935441 2.7925268032 2.8242600623 
2.8559933214 2.8877265806 2.9194598397 2.9511930988 2.982926358 3.0146596171 3.0463928762 3.0781261353 3.1098593945 
3.1415926536 
_radius 1 100 double
1.6934455514e-15 0.016225357829 0.032389297015 0.048419920389 0.064232993063 0.079727550355 0.09478370436 0.10926328879 0.12301367736 
0.13587466107 0.14768778125 0.15830711842 0.16761032775 0.17550871529 0.18195531962 0.18695021011 0.19054244851 0.19282835412 
0.1939459151 0.19406550772 0.19337760309 0.19207880353 0.19035813751 0.18838577531 0.18630603781 0.18423573885 0.18226758648 
0.18047676931 0.17892750353 0.17767600649 0.1767676737 0.17622900224 0.1760578888 0.17621759592 0.17663866764 0.17722976644 
0.17789465108 0.17855019327 0.17914033137 0.17964303166 0.18007011121 0.1804609729 0.18087132181 0.18135947824 0.18197570809 
0.18276027161 0.18375163891 0.18500021198 0.18657934809 0.18858638134 0.19113056962 0.19431037088 0.19818703676 0.20276310025 
0.2079720348 0.21368069797 0.21970202314 0.22581360014 0.23177813126 0.23736308717 0.24235819225 0.24659016767 0.24993439822 
0.25232303692 0.25374880019 0.25426362752 0.25397166997 0.25301673973 0.25156523496 0.24978638686 0.24783221029 0.24581963525 
0.24381698823 0.2418364315 0.23983327516 0.23771224026 0.23533975693 0.23256042026 0.22921515147 0.22515861509 0.22027387994 
0.21448288775 0.20775182705 0.20009100561 0.19154935786 0.18220436605 0.17214886796 0.1614768353 0.15027055303 0.13859154097 
0.12647692982 0.11394186061 0.10098705506 0.087609448357 0.073813165066 0.059618372458 0.045066471493 0.0302212169 0.015166252484 
2.7323196264e-16 
_area 1 100 double
0 0.00060387935775 0.0024176862579 0.0054433341023 0.00966979171 0.015055286781 0.021508540607 0.028873532186 0.036922052094 
0.045357382212 0.053830557324 0.061967953883 0.069406117065 0.075827737738 0.080992360933 0.084757173102 0.087086711854 0.088054326658 
0.087841876567 0.08674826231 0.085197800932 0.083628231481 0.082213731534 0.080897623676 0.079553654906 0.078132959753 0.07662056561 
0.07507201031 0.073637646932 0.07256177813 0.072160101611 0.072895942168 0.074718076546 0.077051090058 0.079483847373 0.081660874183 
0.083297621466 0.084215223829 0.084363336211 0.083824111415 0.08280931403 0.081724122821 0.081503647073 0.083199595031 0.08617383535 
0.089711311638 0.093393345037 0.0969543494 0.10025940938 0.10333871145 0.10640428206 0.10976940006 0.11372737989 0.11845439134 
0.12396512515 0.13012360466 0.13669165229 0.14338821884 0.14993815184 0.15612504323 0.16195465076 0.16724191088 0.17156269257 
0.17460042727 0.17614173221 0.17607959913 0.17447258464 0.17152390106 0.16753619128 0.16287643501 0.15793346131 0.15305538131 
0.14849432351 0.14437279392 0.14067444498 0.13726037355 0.13390375106 0.1303386917 0.12631737333 0.12166155567 0.11629312909 
0.11023665001 0.10359731241 0.096523641645 0.089165869479 0.081641790764 0.074021825995 0.066338656392 0.058613394324 0.050881939867 
0.043210509273 0.035699797884 0.028482252367 0.02171588888 0.015575519685 0.010241247508 0.0058848717729 0.00265602734 0.00067019380281 
6.5930819239e-17 
