# vtk DataFile Version 5.1
vtk output
ASCII
DATASET POLYDATA
POINTS 100 float
-0.201119 -0.0143175 0.722055 -0.200511 -0.0144889 0.721638 -0.198734 -0.0148779 0.720505 
-0.195866 -0.0154281 0.718625 -0.192027 -0.0160514 0.71595 -0.187362 -0.0166371 0.712428 
-0.182024 -0.017062 0.708016 -0.176152 -0.017203 0.702689 -0.169856 -0.0169479 0.696451 
-0.163202 -0.0162064 0.689342 -0.156205 -0.014917 0.681435 -0.148831 -0.013052 0.672833 
-0.141001 -0.0106181 0.663655 -0.132609 -0.00765411 0.654023 -0.123538 -0.0042252 0.644048 
-0.113685 -0.000414987 0.633808 -0.102979 0.00368362 0.62334 -0.0913997 0.00797779 0.612627 
-0.0789941 0.0123832 0.601602 -0.065878 0.0168304 0.590147 -0.0522358 0.0212692 0.57811 
-0.0383092 0.0256693 0.565319 -0.024379 0.0300183 0.551604 -0.0107424 0.0343179 0.53682 
0.00231315 0.0385769 0.520863 0.014536 0.0428044 0.503689 0.0257327 0.0470024 0.485317 
0.0357853 0.0511594 0.465836 0.0446609 0.0552463 0.445391 0.0524124 0.059214 0.424171 
0.0591701 0.0629945 0.402389 0.0651265 0.0665042 0.380257 0.0705136 0.0696494 0.357963 
0.0755771 0.072334 0.335652 0.0805494 0.0744676 0.313411 0.0856246 0.0759735 0.291261 
0.0909373 0.0767958 0.26916 0.0965492 0.0769048 0.247009 0.102442 0.0762996 0.224673 
0.108518 0.0750087 0.201998 0.114612 0.0730878 0.178837 0.120506 0.0706148 0.155072 
0.12595 0.0676843 0.130633 0.130684 0.0643999 0.105511 0.134464 0.0608672 0.0797624 
0.137079 0.0571876 0.0535094 0.138372 0.0534529 0.0269277 0.138247 0.0497419 0.000231686 
0.136679 0.0461194 -0.0263459 0.133707 0.0426367 -0.052575 0.129434 0.039334 -0.0782479 
0.124009 0.0362437 -0.103196 0.117617 0.0333943 -0.1273 0.110464 0.0308141 -0.150495 
0.102757 0.028534 -0.172767 0.0946948 0.0265886 -0.194146 0.0864535 0.0250159 -0.214693 
0.0781796 0.0238558 -0.234488 0.0699857 0.0231458 -0.253611 0.0619494 0.0229169 -0.272133 
0.0541153 0.0231886 -0.290106 0.0464996 0.0239639 -0.307561 0.0390964 0.0252257 -0.324504 
0.0318844 0.0269343 -0.340927 0.0248338 0.0290277 -0.356814 0.0179131 0.031423 -0.372149 
0.0110942 0.0340213 -0.38693 0.00435659 0.0367134 -0.401174 -0.00230942 0.039387 -0.414922 
-0.00890142 0.0419355 -0.428238 -0.0154043 0.0442649 -0.441206 -0.0217911 0.0463011 -0.453923 
-0.0280239 0.0479949 -0.466482 -0.0340564 0.0493244 -0.478966 -0.0398364 0.0502954 -0.491432 
-0.0453085 0.0509391 -0.503902 -0.0504177 0.0513072 -0.516359 -0.0551125 0.0514654 -0.528745 
-0.0593482 0.0514858 -0.540964 -0.0630902 0.0514394 -0.552894 -0.0663162 0.0513887 -0.564394 
-0.0690183 0.0513816 -0.575321 -0.0712042 0.0514479 -0.585546 -0.072897 0.0515974 -0.594963 
-0.0741344 0.0518209 -0.603501 -0.0749664 0.0520932 -0.611127 -0.0754523 0.0523778 -0.617849 
-0.0756572 0.0526328 -0.623709 -0.0756476 0.0528178 -0.628778 -0.0754875 0.0528994 -0.633145 
-0.0752349 0.0528563 -0.636903 -0.0749388 0.052683 -0.640141 -0.0746376 0.0523904 -0.642936 
-0.074358 0.0520051 -0.645342 -0.0741165 0.0515668 -0.647394 -0.0739199 0.0511232 -0.649107 
-0.0737686 0.050725 -0.650478 -0.0736589 0.0504191 -0.651495 -0.0735857 0.0502436 -0.652143 
-0.073545 0.0502232 -0.652408 
LINES 2 100
OFFSETS vtktypeint64
0 100 
CONNECTIVITY vtktypeint64
0 1 2 3 4 5 6 7 8 
9 10 11 12 13 14 15 16 17 
18 19 20 21 22 23 24 25 26 
27 28 29 30 31 32 33 34 35 
36 37 38 39 40 41 42 43 44 
45 46 47 48 49 50 51 52 53 
54 55 56 57 58 59 60 61 62 
63 64 65 66 67 68 69 70 71 
72 73 74 75 76 77 78 79 80 
81 82 83 84 85 86 87 88 89 
90 91 92 93 94 95 96 97 98 
99 
POINT_DATA 100
FIELD FieldData 3
_theta 1 100 double
0 0.031733259127 0.063466518254 0.095199777382 0.12693303651 0.15866629564 0.19039955476 0.22213281389 0.25386607302 
0.28559933214 0.31733259127 0.3490658504 0.38079910953 0.41253236865 0.44426562778 0.47599888691 0.50773214603 0.53946540516 
0.57119866429 0.60293192342 0.63466518254 0.66639844167 0.6981317008 0.72986495992 0.76159821905 0.79333147818 0.82506473731 
0.85679799643 0.88853125556 0.92026451469 0.95199777382 0.98373103294 1.0154642921 1.0471975512 1.0789308103 1.1106640695 
1.1423973286 1.1741305877 1.2058638468 1.237597106 1.2693303651 1.3010636242 1.3327968833 1.3645301425 1.3962634016 
1.4279966607 1.4597299198 1.491463179 1.5231964381 1.5549296972 1.5866629564 1.6183962155 1.6501294746 1.6818627337 
1.7135959929 1.745329252 1.7770625111 1.8087957702 1.8405290294 1.8722622885 1.9039955476 1.9357288068 1.9674620659 
1.999195325 2.0309285841 2.0626618433 2.0943951024 2.1261283615 2.1578616206 2.1895948798 2.2213281389 2.253061398 
2.2847946572 2.3165279163 2.3482611754 2.3799944345 2.4117276937 2.4434609528 2.4751942119 2.506927471 2.5386607302 
2.5703939893 2.6021272484 2.6338605076 2.6655937667 2.6973270258 2.7290602849 2.7607935441 2.7925268032 2.8242600623 
2.8559933214 2.8877265806 2.9194598397 2.9511930988 2.982926358 3.0146596171 3.0463928762 3.0781261353 3.1098593945 
3.1415926536 
_radius 1 100 double
1.5957796592e-15 0.014717717919 0.029126450024 0.042962752387 0.056045213635 0.068293057566 0.079721311438 0.090411886232 0.10046709803 
0.10995935502 0.11889368432 0.12719514794 0.13472275326 0.14130159247 0.14676091401 0.15096778029 0.15385063038 0.15541135561 
0.15572709617 0.15494400783 0.15326543085 0.15093679789 0.14822935623 0.14542411268 0.14279626564 0.1405992331 0.13904704857 
0.13829508567 0.13842166058 0.13941544209 0.14117356852 0.14351252315 0.14619020254 0.14893531119 0.15147945804 0.15358743 
0.15508190175 0.15586039004 0.15590395722 0.15527793156 0.15412465424 0.15264824477 0.15109254463 0.14971526294 0.14876255774 
0.14844770036 0.14893513528 0.15032885643 0.15266385611 0.15590184964 0.15993463093 0.16459693361 0.16968649039 0.17498637674 
0.18028561416 0.18539637199 0.19016742971 0.19449337415 0.19831847506 0.20163441055 0.20447204071 0.20688863346 0.20895281389 
0.21072983793 0.21226954555 0.21359860237 0.21471763068 0.21560290638 0.21621170593 0.21649014768 0.21638233584 0.2158395955 
0.21482848746 0.21333618356 0.21137189661 0.20896362025 0.20615043763 0.20297179806 0.19945600674 0.19561042382 0.1914154863 
0.18682381805 0.1817646263 0.1761525277 0.16989910169 0.16292501584 0.15517062963 0.14660352522 0.13722222061 0.1270561032 
0.11616216976 0.10461941359 0.092521731832 0.079970153358 0.06706512118 0.053899567187 0.040553572858 0.027091412667 0.013561587606 
9.5276685097e-16 
_area 1 100 double
0 0.00049404851091 0.0019372778025 0.0042213678769 0.007191949339 0.010681193506 0.014540843955 0.018665538839 0.022998024651 
0.027513127966 0.032184674419 0.03694779476 0.041674849547 0.046176138056 0.050220808241 0.053568138744 0.056003997784 0.057379397721 
0.057644453634 0.056865860892 0.055215904038 0.052933269343 0.050276363576 0.047492222668 0.044803477967 0.042404920923 0.040465889231 
0.039138480392 0.038505637643 0.038543393035 0.039222857976 0.040457644657 0.04219189269 0.044352503141 0.04676441808 0.04925639984 
0.051686404588 0.05399354574 0.05604746602 0.057761116219 0.059089777282 0.060043820581 0.060682365235 0.061106097533 0.061445827783 
0.061850844744 0.062489744013 0.063593259896 0.065519805751 0.068168455215 0.071432774999 0.075282511937 0.079655440461 0.08444546447 
0.089503854969 0.094644202703 0.099657172324 0.10433619478 0.10850522476 0.11203974925 0.11487844159 0.11702226249 0.11851728988 
0.11942657658 0.11980450962 0.11968503598 0.11908547691 0.11801903954 0.11650736373 0.11458858572 0.11232132916 0.10978549842 
0.10707742814 0.10429654607 0.10152553385 0.098811377186 0.09615565957 0.093517341705 0.090824244232 0.08798683878 0.084910301277 
0.081504230437 0.077691321949 0.073416083839 0.068653177372 0.063413599933 0.057746764486 0.051737664844 0.045499997227 0.039167325039 
0.032884455959 0.026800203101 0.021061368494 0.015807055326 0.01116275547 0.0072347213494 0.00410601237 0.001835542937 0.00046037412986 
6.7112083435e-17 
