# vtk DataFile Version 5.1
vtk output
ASCII
DATASET POLYDATA
POINTS 100 float
-0.163794 -0.0485652 0.762467 -0.163818 -0.0485179 0.76234 -0.163845 -0.0482023 0.761946 
-0.163839 -0.0476075 0.761242 -0.163739 -0.0467183 0.760161 -0.163466 -0.0455168 0.758618 
-0.162931 -0.0439858 0.756521 -0.162033 -0.0421112 0.753776 -0.160676 -0.0398844 0.750297 
-0.158763 -0.037304 0.74601 -0.156213 -0.0343761 0.740862 -0.152956 -0.0311141 0.734818 
-0.148939 -0.0275371 0.727862 -0.144131 -0.0236678 0.719993 -0.13852 -0.0195301 0.711221 
-0.132113 -0.0151465 0.70156 -0.124938 -0.0105368 0.691026 -0.117041 -0.00571666 0.679629 
-0.108484 -0.000698331 0.667376 -0.0993445 0.00450781 0.654269 -0.0897109 0.00989043 0.640308 
-0.0796819 0.0154336 0.625496 -0.0693613 0.0211127 0.609846 -0.0588551 0.0268907 0.593385 
-0.0482658 0.0327149 0.576161 -0.0376881 0.0385159 0.558241 -0.0272034 0.0442074 0.539718 
-0.0168753 0.0496888 0.520697 -0.00674553 0.0548502 0.5013 0.00316864 0.0595781 0.481645 
0.0128746 0.0637639 0.461841 0.0224025 0.0673118 0.441974 0.0318012 0.0701473 0.422096 
0.041131 0.072224 0.402215 0.0504551 0.0735287 0.382293 0.059829 0.0740835 0.362244 
0.06929 0.0739457 0.341938 0.0788474 0.0732032 0.321214 0.0884739 0.0719685 0.299895 
0.098101 0.070369 0.277799 0.107617 0.0685369 0.254768 0.116871 0.066598 0.230676 
0.125677 0.0646613 0.205451 0.133829 0.0628109 0.179083 0.14111 0.0610995 0.151634 
0.147314 0.059546 0.123232 0.152253 0.0581365 0.0940691 0.155782 0.0568285 0.0643872 
0.157801 0.0555585 0.034462 0.158268 0.0542517 0.00458307 0.157201 0.0528326 -0.0249661 
0.154674 0.0512357 -0.0539279 0.15081 0.0494155 -0.082087 0.145772 0.0473537 -0.109282 
0.139744 0.0450632 -0.135414 0.132921 0.0425892 -0.160445 0.125487 0.0400061 -0.184395 
0.11761 0.0374115 -0.207335 0.109425 0.034917 -0.229369 0.101031 0.0326382 -0.250627 
0.0924904 0.0306832 -0.27124 0.0838327 0.0291422 -0.291336 0.0750599 0.0280794 -0.311023 
0.0661575 0.0275265 -0.330383 0.0571044 0.0274806 -0.349464 0.0478841 0.0279047 -0.368288 
0.0384928 0.0287328 -0.386845 0.0289458 0.0298766 -0.405105 0.019279 0.031235 -0.423023 
0.0095481 0.0327047 -0.440551 -0.000176831 0.03419 -0.457637 -0.00981865 0.0356122 -0.474243 
-0.0193024 0.036916 -0.490338 -0.0285643 0.038073 -0.505907 -0.0375603 0.039083 -0.520949 
-0.0462713 0.0399707 -0.53547 -0.0547061 0.0407801 -0.549486 -0.0629001 0.0415674 -0.56301 
-0.0709109 0.0423912 -0.576054 -0.0788109 0.0433047 -0.58862 -0.0866773 0.0443465 -0.600699 
-0.094582 0.0455355 -0.61227 -0.102582 0.0468666 -0.6233 -0.110709 0.0483108 -0.633743 
-0.118966 0.0498176 -0.643552 -0.127326 0.0513203 -0.652673 -0.135726 0.0527434 -0.661061 
-0.14408 0.0540114 -0.668677 -0.152279 0.0550576 -0.675495 -0.160203 0.055832 -0.681507 
-0.167727 0.0563076 -0.686722 -0.174734 0.0564839 -0.691165 -0.181115 0.0563877 -0.694879 
-0.18678 0.0560703 -0.697919 -0.191657 0.0556026 -0.700347 -0.195695 0.0550672 -0.70223 
-0.198856 0.0545493 -0.703629 -0.20112 0.0541279 -0.7046 -0.202473 0.0538662 -0.705184 
-0.202912 0.0538054 -0.705408 
LINES 2 100
OFFSETS vtktypeint64
0 100 
CONNECTIVITY vtktypeint64
0 1 2 3 4 5 6 7 8 
9 10 11 12 13 14 15 16 17 
18 19 20 21 22 23 24 25 26 
27 28 29 30 31 32 33 34 35 
36 37 38 39 40 41 42 43 44 
45 46 47 48 49 50 51 52 53 
54 55 56 57 58 59 60 61 62 
63 64 65 66 67 68 69 70 71 
72 73 74 75 76 77 78 79 80 
81 82 83 84 85 86 87 88 89 
90 91 92 93 94 95 96 97 98 
99 
POINT_DATA 100
FIELD FieldData 3
_theta 1 100 double
0 0.031733259127 0.063466518254 0.095199777382 0.12693303651 0.15866629564 0.19039955476 0.22213281389 0.25386607302 
0.28559933214 0.31733259127 0.3490658504 0.38079910953 0.41253236865 0.44426562778 0.47599888691 0.50773214603 0.53946540516 
0.57119866429 0.60293192342 0.63466518254 0.66639844167 0.6981317008 0.72986495992 0.76159821905 0.79333147818 0.82506473731 
0.85679799643 0.88853125556 0.92026451469 0.95199777382 0.98373103294 1.0154642921 1.0471975512 1.0789308103 1.1106640695 
1.1423973286 1.1741305877 1.2058638468 1.237597106 1.2693303651 1.3010636242 1.3327968833 1.3645301425 1.3962634016 
1.4279966607 1.4597299198 1.491463179 1.5231964381 1.5549296972 1.5866629564 1.6183962155 1.6501294746 1.6818627337 
1.7135959929 1.745329252 1.7770625111 1.8087957702 1.8405290294 1.8722622885 1.9039955476 1.9357288068 1.9674620659 
1.999195325 2.0309285841 2.0626618433 2.0943951024 2.1261283615 2.1578616206 2.1895948798 2.2213281389 2.253061398 
2.2847946572 2.3165279163 2.3482611754 2.3799944345 2.4117276937 2.4434609528 2.4751942119 2.506927471 2.5386607302 
2.5703939893 2.6021272484 2.6338605076 2.6655937667 2.6973270258 2.7290602849 2.7607935441 2.7925268032 2.8242600623 
2.8559933214 2.8877265806 2.9194598397 2.9511930988 2.982926358 3.0146596171 3.0463928762 3.0781261353 3.1098593945 
3.1415926536 
_radius 1 100 double
6.381142049e-16 0.014488465746 0.0290621965 0.04377809551 0.058646964266 0.073618757119 0.088576119579 0.10333691286 0.11766528274 
0.13128987542 0.14392711336 0.15530703396 0.16519903347 0.17343490971 0.17992683753 0.18467834573 0.18778700743 0.18943838942 
0.18989174388 0.18945880985 0.18847774783 0.18728459194 0.18618477391 0.18542741368 0.18518518235 0.18554239661 0.18649327851 
0.18795085675 0.18976503419 0.19174656334 0.19369276565 0.19541110901 0.19673800144 0.19755178699 0.19778023729 0.19740313846 
0.19644984936 0.19499133241 0.19312718859 0.19097019854 0.18863309022 0.18622308153 0.18384626426 0.18161715738 0.17966516339 
0.17813216238 0.17716053214 0.17687472202 0.17736124475 0.17865216466 0.18071625775 0.18345998794 0.18673770984 0.19036817716 
0.19415344437 0.19789672639 0.20141718751 0.20456116099 0.20721029493 0.20928734876 0.21076001786 0.21164262207 0.21199510339 
0.21191869273 0.2115477719 0.21103778617 0.21054968282 0.21023246452 0.21020669307 0.21055201284 0.21130023569 0.21243331884 
0.21388460466 0.21554243839 0.21725652284 0.2188478093 0.22012201367 0.22088554555 0.22096157299 0.22020362019 0.21850452396 
0.21579949149 0.21206310338 0.20730115875 0.20153908601 0.19480911583 0.18713846875 0.17854047752 0.1690099562 0.15852340274 
0.14704392551 0.13453020715 0.12094836525 0.10628519859 0.090561008937 0.073840040249 0.056236703668 0.037916227791 0.019089148822 
4.1443319541e-16 
_area 1 100 double
0 0.00052539519955 0.002105028243 0.0047468131561 0.0084552217515 0.013217173883 0.018982961838 0.025646187726 0.033028480304 
0.040874917201 0.0488644143 0.0566357095 0.06382497054 0.070107799784 0.075238014964 0.079077074816 0.08160947634 0.082940923493 
0.083279059128 0.082902227851 0.082140900307 0.08155534554 0.081387389216 0.081766532743 0.082915930861 0.084762181304 0.087213208798 
0.090194531021 0.093596047106 0.097253374601 0.10083445446 0.10397888076 0.1063271662 0.10758072829 0.10762477538 0.10637820457 
0.10390077887 0.100467394 0.096529675821 0.092679628995 0.089424214033 0.086851778388 0.084880899341 0.083525247093 0.082937916954 
0.08330813233 0.08487275664 0.087186324892 0.089707961998 0.092359976533 0.095167015232 0.098173383712 0.10140012638 0.10482225681 
0.10837308703 0.11196170054 0.11549151411 0.11888275253 0.12205705492 0.12486152905 0.12709240278 0.12852552082 0.12908744034 
0.12875937603 0.12755638101 0.12569745608 0.1234620257 0.12108107021 0.11871333865 0.1167540451 0.11533129487 0.11461738911 
0.11413235698 0.1137272387 0.1133213805 0.11281457227 0.11207627311 0.11095025191 0.10927010376 0.10688225965 0.10367522145 
0.099607895012 0.094718426596 0.089103924494 0.082888295163 0.076197421957 0.069148156617 0.061849459462 0.054410124482 0.046946567078 
0.039586006133 0.032464151143 0.02572003682 0.019491651603 0.013913980987 0.0091180767805 0.0052284428053 0.002357057691 0.00059444860094 
1.8473486916e-16 
