# vtk DataFile Version 5.1
vtk output
ASCII
DATASET POLYDATA
POINTS 100 float
-0.195835 -0.0133277 0.733253 -0.195478 -0.0134688 0.733257 -0.194401 -0.0137031 0.733305 
-0.1926 -0.0139911 0.733303 -0.190071 -0.0142726 0.733106 -0.186809 -0.0144728 0.732529 
-0.182814 -0.0145099 0.731375 -0.178089 -0.0143032 0.729449 -0.172648 -0.0137811 0.726583 
-0.166513 -0.0128868 0.722649 -0.159716 -0.0115832 0.717571 -0.152302 -0.00985525 0.711331 
-0.144324 -0.00770911 0.703965 -0.135844 -0.00517008 0.695557 -0.126932 -0.00227831 0.686218 
-0.117659 0.00091637 0.676081 -0.108099 0.00435991 0.665269 -0.0983234 0.00799884 0.653891 
-0.088399 0.011784 0.642019 -0.0783843 0.0156723 0.629683 -0.0683288 0.0196274 0.616869 
-0.0582712 0.0236172 0.603519 -0.0482385 0.0276118 0.589542 -0.0382462 0.0315792 0.574822 
-0.028299 0.0354814 0.559239 -0.0183915 0.0392719 0.542675 -0.00851057 0.0428935 0.525037 
0.00136258 0.0462787 0.506258 0.0112493 0.0493519 0.486312 0.0211704 0.052034 0.465209 
0.0311419 0.0542484 0.442996 0.0411718 0.0559277 0.41975 0.0512554 0.0570214 0.395565 
0.0613721 0.0575024 0.37055 0.0714816 0.0573719 0.34481 0.081522 0.0566619 0.318446 
0.0914084 0.0554356 0.291546 0.101033 0.0537836 0.264182 0.110267 0.0518185 0.236417 
0.118965 0.0496663 0.208304 0.12697 0.0474568 0.179895 0.13412 0.0453134 0.15125 
0.140258 0.0433431 0.122438 0.145239 0.0416288 0.0935483 0.148939 0.0402232 0.0646875 
0.151264 0.0391465 0.0359808 0.152156 0.0383867 0.00756713 0.151596 0.037904 -0.0204077 
0.149609 0.0376371 -0.0477998 0.146259 0.0375114 -0.0744771 0.141648 0.0374496 -0.100328 
0.135909 0.03738 -0.125267 0.129195 0.0372458 -0.149244 0.121673 0.0370107 -0.17224 
0.113511 0.0366632 -0.194269 0.104872 0.0362165 -0.215374 0.0959004 0.0357069 -0.235615 
0.0867181 0.0351882 -0.255068 0.0774217 0.0347249 -0.27381 0.0680799 0.0343842 -0.291917 
0.0587352 0.034228 -0.309455 0.0494076 0.0343051 -0.326477 0.0400998 0.0346457 -0.343025 
0.0308037 0.035258 -0.35913 0.0215067 0.0361276 -0.374817 0.0121975 0.037219 -0.390107 
0.00287083 0.0384802 -0.405024 -0.00646984 0.0398484 -0.419601 -0.0158109 0.041257 -0.433874 
-0.0251296 0.0426433 -0.447889 -0.0343957 0.0439542 -0.461698 -0.0435747 0.0451518 -0.475352 
-0.0526314 0.0462164 -0.488893 -0.0615325 0.0471466 -0.502354 -0.0702493 0.0479582 -0.515746 
-0.0787583 0.0486798 -0.529052 -0.0870415 0.0493479 -0.542231 -0.0950841 0.05 -0.555211 
-0.102872 0.0506685 -0.567895 -0.11039 0.0513745 -0.580167 -0.117615 0.052124 -0.591899 
-0.124519 0.0529049 -0.602962 -0.131062 0.0536875 -0.613235 -0.137199 0.0544261 -0.622617 
-0.142875 0.0550643 -0.63103 -0.148034 0.0555403 -0.63843 -0.152625 0.0557949 -0.644809 
-0.156603 0.0557782 -0.650188 -0.159939 0.0554571 -0.654624 -0.162624 0.05482 -0.658197 
-0.164675 0.0538812 -0.661005 -0.166132 0.052681 -0.663156 -0.167063 0.0512849 -0.664763 
-0.167554 0.0497785 -0.665933 -0.167707 0.0482621 -0.666764 -0.167632 0.0468417 -0.667343 
-0.167437 0.0456208 -0.667737 -0.167215 0.0446911 -0.668001 -0.167043 0.0441246 -0.668171 
-0.166968 0.0439671 -0.668268 
LINES 2 100
OFFSETS vtktypeint64
0 100 
CONNECTIVITY vtktypeint64
0 1 2 3 4 5 6 7 8 
9 10 11 12 13 14 15 16 17 
18 19 20 21 22 23 24 25 26 
27 28 29 30 31 32 33 34 35 
36 37 38 39 40 41 42 43 44 
45 46 47 48 49 50 51 52 53 
54 55 56 57 58 59 60 61 62 
63 64 65 66 67 68 69 70 71 
72 73 74 75 76 77 78 79 80 
81 82 83 84 85 86 87 88 89 
90 91 92 93 94 95 96 97 98 
99 
POINT_DATA 100
FIELD FieldData 3
_theta 1 100 double
0 0.031733259127 0.063466518254 0.095199777382 0.12693303651 0.15866629564 0.19039955476 0.22213281389 0.25386607302 
0.28559933214 0.31733259127 0.3490658504 0.38079910953 0.41253236865 0.44426562778 0.47599888691 0.50773214603 0.53946540516 
0.57119866429 0.60293192342 0.63466518254 0.66639844167 0.6981317008 0.72986495992 0.76159821905 0.79333147818 0.82506473731 
0.85679799643 0.88853125556 0.92026451469 0.95199777382 0.98373103294 1.0154642921 1.0471975512 1.0789308103 1.1106640695 
1.1423973286 1.1741305877 1.2058638468 1.237597106 1.2693303651 1.3010636242 1.3327968833 1.3645301425 1.3962634016 
1.4279966607 1.4597299198 1.491463179 1.5231964381 1.5549296972 1.5866629564 1.6183962155 1.6501294746 1.6818627337 
1.7135959929 1.745329252 1.7770625111 1.8087957702 1.8405290294 1.8722622885 1.9039955476 1.9357288068 1.9674620659 
1.999195325 2.0309285841 2.0626618433 2.0943951024 2.1261283615 2.1578616206 2.1895948798 2.2213281389 2.253061398 
2.2847946572 2.3165279163 2.3482611754 2.3799944345 2.4117276937 2.4434609528 2.4751942119 2.506927471 2.5386607302 
2.5703939893 2.6021272484 2.6338605076 2.6655937667 2.6973270258 2.7290602849 2.7607935441 2.7925268032 2.8242600623 
2.8559933214 2.8877265806 2.9194598397 2.9511930988 2.982926358 3.0146596171 3.0463928762 3.0781261353 3.1098593945 
3.1415926536 
_radius 1 100 double
7.3284213993e-16 0.016312197328 0.032356710646 0.047888375475 0.06269978937 0.076631626031 0.08957525835 0.10146831582 0.11228541567 
0.12202718335 0.13071052049 0.1383619791 0.14501454312 0.150706777 0.15548271641 0.15939120069 0.16248429486 0.16481545478 
0.16643858781 0.16740885161 0.16778504433 0.16763229838 0.16702318471 0.16603575276 0.16474842439 0.16323336917 0.16155104698 
0.15974835334 0.15786129801 0.15592100752 0.15395987746 0.15201391887 0.15011888873 0.14830174619 0.14657294113 0.14492561482 
0.14334446377 0.14182263572 0.1403819264 0.13908958957 0.13806321818 0.13745418394 0.13740628468 0.13800687224 0.13926588668 
0.14113885815 0.1435711655 0.14653264918 0.15002908311 0.15409145225 0.15875008117 0.1640036214 0.16979406386 0.17599650288 
0.18242632666 0.1888600586 0.19506258737 0.20081368262 0.20592898221 0.21027330819 0.21376628427 0.21638156407 0.21814160829 
0.21910998703 0.21938274244 0.21907959678 0.21833500863 0.21728861173 0.21607468594 0.21481100709 0.21358834554 0.21246244196 
0.21145002305 0.2105293814 0.209644818 0.20871346963 0.2076329402 0.20628856463 0.20455978783 0.20232576191 0.19947060856 
0.1958887732 0.19149061047 0.18620792438 0.17999872607 0.17285005215 0.16477750855 0.15582062765 0.14603446792 0.13547980423 
0.12421534564 0.11229439165 0.099765937659 0.086678485261 0.073084563408 0.05904458244 0.04462931115 0.029920688159 0.015010918433 
9.3174752812e-16 
_area 1 100 double
0 0.00065084383443 0.0025665406515 0.0056426744486 0.0097229961206 0.014618739247 0.020125276415 0.026032943576 0.032132862012 
0.038221003732 0.04410354751 0.04960461046 0.054575288036 0.058901613964 0.062508788693 0.065359819496 0.067448744251 0.068791788845 
0.069422746679 0.069398496582 0.068813076719 0.067804652406 0.066537348077 0.065166399848 0.063809886179 0.062533023205 0.061347359602 
0.060230429619 0.059159884213 0.058145556076 0.057246200187 0.056561049455 0.056148889615 0.055958932962 0.055904649061 0.055858353572 
0.055654883969 0.055167117544 0.054377315643 0.053428369036 0.052690105189 0.05278415318 0.053980491953 0.055950884276 0.058357005757 
0.060961855701 0.063645042254 0.066459400559 0.069627693465 0.073297384927 0.077564303977 0.082504115118 0.088101727693 0.09422973305 
0.10066764004 0.10714127328 0.11336712226 0.11908910925 0.12409970715 0.12824460213 0.13141658418 0.13354647047 0.13459674397 
0.13456055488 0.13346719113 0.13139412836 0.12848082306 0.12493493343 0.12113982864 0.1173308134 0.11373879837 0.11049628442 
0.10766174835 0.10521785816 0.10308306391 0.10112808262 0.099200195878 0.097147057988 0.094831996041 0.09213922302 0.088973595041 
0.08526118186 0.080954790458 0.076044633986 0.070570064115 0.064625616421 0.058354782262 0.051928128106 0.045509227396 0.039222402843 
0.033142909821 0.027317005562 0.021793623087 0.016645347378 0.011973048521 0.0078990071431 0.0045538289993 0.0020608522062 0.0005209375733 
7.1577849589e-17 
