# vtk DataFile Version 5.1
vtk output
ASCII
DATASET POLYDATA
POINTS 100 float
-0.206334 -0.0428493 0.693341 -0.205617 -0.0430352 0.693925 -0.203578 -0.0434514 0.695684 
-0.200334 -0.0440345 0.698375 -0.196067 -0.0446845 0.701629 -0.191001 -0.0452735 0.704982 
-0.185381 -0.0456568 0.707928 -0.179441 -0.0456854 0.709972 -0.173381 -0.0452184 0.71068 
-0.167345 -0.044134 0.709715 -0.161399 -0.0423394 0.706868 -0.155531 -0.0397767 0.702069 
-0.149645 -0.0364262 0.69538 -0.143574 -0.0323065 0.686974 -0.137096 -0.0274707 0.677103 
-0.129963 -0.022001 0.666057 -0.121923 -0.0160009 0.654124 -0.112755 -0.00958722 0.64155 
-0.102292 -0.00288163 0.62851 -0.0904473 0.00399619 0.615088 -0.0772245 0.0109341 0.601279 
-0.0627265 0.0178306 0.586991 -0.04715 0.0245962 0.572074 -0.0307726 0.0311523 0.556343 
-0.0139317 0.037429 0.539616 0.00300281 0.0433617 0.521744 0.0196581 0.0488877 0.502637 
0.0356885 0.0539434 0.482283 0.0508019 0.0584629 0.46075 0.0647807 0.0623785 0.438185 
0.0774939 0.0656224 0.414792 0.0889013 0.0681309 0.39081 0.099047 0.0698501 0.366481 
0.108045 0.0707413 0.342021 0.11606 0.0707879 0.317596 0.123277 0.0700005 0.293302 
0.129881 0.0684203 0.269158 0.136025 0.0661208 0.245108 0.141814 0.0632061 0.221037 
0.147287 0.0598066 0.196793 0.152415 0.0560725 0.172212 0.1571 0.0521644 0.147149 
0.161188 0.0482428 0.121504 0.164486 0.044458 0.095241 0.166784 0.0409397 0.0684017 
0.167885 0.0377889 0.0411029 0.16762 0.0350722 0.0135302 0.16588 0.0328193 -0.0140816 
0.162622 0.0310239 -0.0414718 0.157881 0.029648 -0.0683813 0.15177 0.0286286 -0.0945788 
0.144466 0.0278871 -0.119883 0.136203 0.0273391 -0.144176 0.127245 0.0269047 -0.167413 
0.117862 0.0265172 -0.189615 0.108311 0.0261302 -0.210863 0.0988134 0.0257218 -0.231276 
0.0895345 0.0252952 -0.250991 0.0805785 0.0248769 -0.270144 0.0719834 0.0245116 -0.288848 
0.0637252 0.0242553 -0.307181 0.0557293 0.0241668 -0.325181 0.0478859 0.0242997 -0.342842 
0.0400682 0.0246944 -0.360126 0.0321519 0.0253725 -0.376975 0.0240322 0.0263334 -0.393325 
0.0156382 0.0275539 -0.409127 0.0069408 0.0289899 -0.424357 -0.00204329 0.0305821 -0.439028 
-0.0112549 0.0322615 -0.453194 -0.0206001 0.0339581 -0.466944 -0.0299613 0.035608 -0.480394 
-0.0392116 0.03716 -0.493672 -0.0482282 0.0385812 -0.506899 -0.0569046 0.0398592 -0.520174 
-0.0651603 0.0410023 -0.533553 -0.0729456 0.0420365 -0.547043 -0.0802426 0.0430009 -0.560595 
-0.0870614 0.043941 -0.574106 -0.0934336 0.044901 -0.587429 -0.0994026 0.0459172 -0.600384 
-0.105014 0.0470118 -0.61278 -0.110305 0.0481885 -0.624434 -0.115299 0.0494311 -0.635187 
-0.120001 0.0507047 -0.644919 -0.124395 0.0519592 -0.65356 -0.128449 0.0531351 -0.661095 
-0.132122 0.0541709 -0.667556 -0.135368 0.0550109 -0.67302 -0.138149 0.0556126 -0.677591 
-0.14044 0.0559526 -0.681391 -0.14224 0.0560307 -0.684543 -0.14357 0.0558707 -0.68716 
-0.144475 0.0555189 -0.689333 -0.145024 0.0550395 -0.691132 -0.145297 0.0545081 -0.692599 
-0.145381 0.0540032 -0.693757 -0.145358 0.0535979 -0.69461 -0.145295 0.0533514 -0.695156 
-0.145238 0.0533025 -0.695388 
LINES 2 100
OFFSETS vtktypeint64
0 100 
CONNECTIVITY vtktypeint64
0 1 2 3 4 5 6 7 8 
9 10 11 12 13 14 15 16 17 
18 19 20 21 22 23 24 25 26 
27 28 29 30 31 32 33 34 35 
36 37 38 39 40 41 42 43 44 
45 46 47 48 49 50 51 52 53 
54 55 56 57 58 59 60 61 62 
63 64 65 66 67 68 69 70 71 
72 73 74 75 76 77 78 79 80 
81 82 83 84 85 86 87 88 89 
90 91 92 93 94 95 96 97 98 
99 
POINT_DATA 100
FIELD FieldData 3
_theta 1 100 double
0 0.031733259127 0.063466518254 0.095199777382 0.12693303651 0.15866629564 0.19039955476 0.22213281389 0.25386607302 
0.28559933214 0.31733259127 0.3490658504 0.38079910953 0.41253236865 0.44426562778 0.47599888691 0.50773214603 0.53946540516 
0.57119866429 0.60293192342 0.63466518254 0.66639844167 0.6981317008 0.72986495992 0.76159821905 0.79333147818 0.82506473731 
0.85679799643 0.88853125556 0.92026451469 0.95199777382 0.98373103294 1.0154642921 1.0471975512 1.0789308103 1.1106640695 
1.1423973286 1.1741305877 1.2058638468 1.237597106 1.2693303651 1.3010636242 1.3327968833 1.3645301425 1.3962634016 
1.4279966607 1.4597299198 1.491463179 1.5231964381 1.5549296972 1.5866629564 1.6183962155 1.6501294746 1.6818627337 
1.7135959929 1.745329252 1.7770625111 1.8087957702 1.8405290294 1.8722622885 1.9039955476 1.9357288068 1.9674620659 
1.999195325 2.0309285841 2.0626618433 2.0943951024 2.1261283615 2.1578616206 2.1895948798 2.2213281389 2.253061398 
2.2847946572 2.3165279163 2.3482611754 2.3799944345 2.4117276937 2.4434609528 2.4751942119 2.506927471 2.5386607302 
2.5703939893 2.6021272484 2.6338605076 2.6655937667 2.6973270258 2.7290602849 2.7607935441 2.7925268032 2.8242600623 
2.8559933214 2.8877265806 2.9194598397 2.9511930988 2.982926358 3.0146596171 3.0463928762 3.0781261353 3.1098593945 
3.1415926536 
_radius 1 100 double
1.0133636299e-15 0.018620085438 0.036989138662 0.054873474334 0.072074765345 0.088442597423 0.10388007419 0.11834013386 0.13181222246 
0.1443021093 0.1558103836 0.16631584813 0.17576804798 0.18408967049 0.19118652649 0.19696158225 0.20132995246 0.20423297242 
0.20565061012 0.20561216064 0.20420527567 0.20158291645 0.19796691315 0.19364583775 0.18896439893 0.18430206014 0.18004043231 
0.17652228353 0.17400902609 0.17264644093 0.17244799714 0.17330054549 0.17499027238 0.17724148734 0.17975918894 0.18226677599 
0.18453173312 0.18637820607 0.18769516873 0.18844813317 0.18868931293 0.18855611472 0.18825485607 0.18803350214 0.18814941197 
0.18883761693 0.19028387313 0.19260535158 0.19584047714 0.19994800468 0.20481411484 0.21026564919 0.21608771131 0.22204412574 
0.2278990961 0.23343795205 0.23848463787 0.24291389283 0.24665684006 0.24969967786 0.25207612264 0.25385505817 0.25512541788 
0.2559805789 0.25650442521 0.25676078063 0.2567872484 0.25659378788 0.25616574116 0.25547053972 0.25446691959 0.2531150675 
0.25138575344 0.24926642555 0.24676270882 0.24389474591 0.24068903091 0.23716743633 0.23333577222 0.22917435326 0.22463269549 
0.2196296985 0.2140596332 0.20780314106 0.20074147413 0.19277156742 0.18381937053 0.17384920269 0.16286766232 0.15092166944 
0.13809135638 0.12447952002 0.11019995624 0.095367004228 0.080087995022 0.064459263515 0.048565375302 0.032480601173 0.016271537629 
1.1471933614e-15 
_area 1 100 double
0 0.00060459484323 0.0024384730534 0.0055461787565 0.0099547062172 0.015625999038 0.022432777157 0.030167528706 0.038569042999 
0.047344115128 0.05617360051 0.064710247763 0.072587269068 0.079451906794 0.085020136545 0.08913019043 0.091766310399 0.093037793484 
0.093129180701 0.092257670891 0.090655782335 0.088560505845 0.086183258582 0.083680294325 0.081171142261 0.078787921118 0.076693980085 
0.075060262117 0.074031350945 0.073702806389 0.07409991509 0.075139273809 0.07660056261 0.07817503299 0.079585187566 0.080713663148 
0.081715072229 0.083006119888 0.084910492284 0.087379622616 0.09014403085 0.092957239526 0.095713063942 0.098412262468 0.10116308034 
0.10403923952 0.10712293972 0.11053477514 0.11438197903 0.11873810019 0.12363662063 0.12906406058 0.13494976656 0.14115977624 
0.14750641607 0.15378089971 0.15979737406 0.16540643846 0.17045060068 0.17474115533 0.17810940997 0.18044967132 0.18172160094 
0.18193825316 0.18115533819 0.17946417728 0.17698630615 0.17386688168 0.17026413068 0.16633974652 0.16238943502 0.15840355073 
0.15414035642 0.14964535371 0.14503059321 0.14041202599 0.13587798249 0.13146146355 0.12712061138 0.12273525139 0.11812527398 
0.11308760701 0.10743994107 0.10105853431 0.093902232857 0.086020131122 0.077544028263 0.068669330942 0.05962949922 0.050669087258 
0.042019251313 0.033878957255 0.026405298799 0.019714820853 0.013893580591 0.0090101807517 0.0051258904369 0.0022982709124 0.00057779374822 
7.194565465e-17 
