# vtk DataFile Version 5.1
vtk output
ASCII
DATASET POLYDATA
POINTS 100 float
-0.104125 -0.0186604 0.747335 -0.104208 -0.0187073 0.747289 -0.104488 -0.018651 0.747181 
-0.104908 -0.0184811 0.746929 -0.105375 -0.0181809 0.746406 -0.105773 -0.0177271 0.745451 
-0.105968 -0.0170895 0.743887 -0.105822 -0.0162316 0.741532 -0.105205 -0.0151111 0.738221 
-0.104 -0.0136823 0.733814 -0.102117 -0.0118988 0.728209 -0.0994952 -0.0097177 0.721345 
-0.0961041 -0.00710401 0.713203 -0.091947 -0.00403545 0.7038 -0.0870555 -0.000507077 0.693184 
-0.0814852 0.00346506 0.681426 -0.0753091 0.00784162 0.668604 -0.0686103 0.0125595 0.654799 
-0.0614753 0.0175333 0.64009 -0.0539867 0.0226593 0.624542 -0.0462185 0.0278211 0.608213 
-0.0382318 0.0328968 0.59115 -0.0300721 0.0377671 0.573399 -0.0217688 0.0423234 0.555001 
-0.0133352 0.0464755 0.536003 -0.0047701 0.0501577 0.516459 0.0039397 0.0533324 0.49643 
0.0128161 0.0559914 0.475981 0.021886 0.0581548 0.455179 0.0311766 0.0598665 0.434085 
0.0407106 0.0611879 0.412745 0.0505011 0.0621904 0.391185 0.060546 0.0629464 0.369406 
0.0708227 0.0635212 0.347378 0.0812833 0.0639654 0.325042 0.0918502 0.0643099 0.302318 
0.102414 0.0645629 0.27911 0.112831 0.0647095 0.255321 0.12293 0.0647145 0.230865 
0.132511 0.0645276 0.205684 0.141355 0.0640904 0.179756 0.149237 0.0633443 0.15311 
0.155937 0.0622388 0.125826 0.16125 0.0607395 0.0980339 0.165009 0.0588338 0.0699104 
0.167089 0.0565349 0.0416644 0.167425 0.0538833 0.0135225 0.166015 0.0509449 -0.014289 
0.162925 0.0478079 -0.0415618 0.158286 0.0445758 -0.0681212 0.152285 0.0413604 -0.0938384 
0.145157 0.0382732 -0.118637 0.13716 0.0354174 -0.142496 0.128566 0.0328801 -0.165442 
0.119636 0.0307271 -0.187542 0.110602 0.0289987 -0.208888 0.101655 0.0277088 -0.229586 
0.0929293 0.0268452 -0.249734 0.0845031 0.0263731 -0.269416 0.0763946 0.0262399 -0.288688 
0.0685706 0.0263812 -0.307575 0.0609575 0.0267269 -0.326072 0.0534557 0.0272085 -0.344146 
0.0459565 0.0277641 -0.36175 0.0383586 0.0283434 -0.378827 0.0305819 0.0289111 -0.39533 
0.0225783 0.0294476 -0.411224 0.014338 0.0299495 -0.4265 0.00588989 0.0304276 -0.441175 
-0.00270278 0.0309041 -0.455292 -0.0113509 0.0314083 -0.468916 -0.0199513 0.031973 -0.482127 
-0.0283996 0.0326299 -0.495003 -0.0366027 0.0334056 -0.507616 -0.0444898 0.0343186 -0.520017 
-0.0520189 0.0353767 -0.532229 -0.0591801 0.036576 -0.544244 -0.0659941 0.0379005 -0.556022 
-0.0725058 0.0393232 -0.567495 -0.0787759 0.0408074 -0.578578 -0.0848696 0.0423096 -0.589176 
-0.0908453 0.0437824 -0.599197 -0.0967443 0.0451775 -0.608564 -0.102583 0.0464491 -0.617225 
-0.108351 0.047557 -0.625155 -0.114007 0.0484692 -0.632361 -0.119487 0.0491636 -0.638879 
-0.12471 0.04963 -0.644767 -0.129589 0.0498704 -0.650096 -0.134041 0.0498986 -0.65494 
-0.137996 0.0497397 -0.659362 -0.141409 0.0494282 -0.663412 -0.144259 0.0490057 -0.667113 
-0.146556 0.0485187 -0.670467 -0.148336 0.048015 -0.673447 -0.149652 0.0475415 -0.676011 
-0.150569 0.0471406 -0.678104 -0.151154 0.0468479 -0.679669 -0.151461 0.04669 -0.680656 
-0.151529 0.046683 -0.681034 
LINES 2 100
OFFSETS vtktypeint64
0 100 
CONNECTIVITY vtktypeint64
0 1 2 3 4 5 6 7 8 
9 10 11 12 13 14 15 16 17 
18 19 20 21 22 23 24 25 26 
27 28 29 30 31 32 33 34 35 
36 37 38 39 40 41 42 43 44 
45 46 47 48 49 50 51 52 53 
54 55 56 57 58 59 60 61 62 
63 64 65 66 67 68 69 70 71 
72 73 74 75 76 77 78 79 80 
81 82 83 84 85 86 87 88 89 
90 91 92 93 94 95 96 97 98 
99 
POINT_DATA 100
FIELD FieldData 3
_theta 1 100 double
0 0.031733259127 0.063466518254 0.095199777382 0.12693303651 0.15866629564 0.19039955476 0.22213281389 0.25386607302 
0.28559933214 0.31733259127 0.3490658504 0.38079910953 0.41253236865 0.44426562778 0.47599888691 0.50773214603 0.53946540516 
0.57119866429 0.60293192342 0.63466518254 0.66639844167 0.6981317008 0.72986495992 0.76159821905 0.79333147818 0.82506473731 
0.85679799643 0.88853125556 0.92026451469 0.95199777382 0.98373103294 1.0154642921 1.0471975512 1.0789308103 1.1106640695 
1.1423973286 1.1741305877 1.2058638468 1.237597106 1.2693303651 1.3010636242 1.3327968833 1.3645301425 1.3962634016 
1.4279966607 1.4597299198 1.491463179 1.5231964381 1.5549296972 1.5866629564 1.6183962155 1.6501294746 1.6818627337 
1.7135959929 1.745329252 1.7770625111 1.8087957702 1.8405290294 1.8722622885 1.9039955476 1.9357288068 1.9674620659 
1.999195325 2.0309285841 2.0626618433 2.0943951024 2.1261283615 2.1578616206 2.1895948798 2.2213281389 2.253061398 
2.2847946572 2.3165279163 2.3482611754 2.3799944345 2.4117276937 2.4434609528 2.4751942119 2.506927471 2.5386607302 
2.5703939893 2.6021272484 2.6338605076 2.6655937667 2.6973270258 2.7290602849 2.7607935441 2.7925268032 2.8242600623 
2.8559933214 2.8877265806 2.9194598397 2.9511930988 2.982926358 3.0146596171 3.0463928762 3.0781261353 3.1098593945 
3.1415926536 
_radius 1 100 double
9.9949582251e-16 0.01652455728 0.032909338323 0.049009363402 0.06467484875 0.079751513824 0.094083465261 0.10751862529 0.11991612776 
0.13115468701 0.14114075187 0.1498153209 0.15715858403 0.16319198361 0.16797773767 0.1716162084 0.17424161969 0.1760164894 
0.17712481368 0.17776369963 0.17813301943 0.17842294166 0.17879993707 0.17939287666 0.18028169305 0.18149118631 0.1829916186 
0.1847060907 0.1865231368 0.18831215555 0.18993922859 0.19128114586 0.19223587249 0.19272878057 0.19271609132 0.1921883395 
0.19117492678 0.18974777551 0.18802129622 0.18614721294 0.18430429894 0.18268407486 0.18147417209 0.1808414838 0.18091742124 
0.1817875178 0.18348702426 0.18600267885 0.18927883206 0.19322482666 0.1977211219 0.20262395854 0.2077708849 0.21299003617 
0.21811364632 0.22299296099 0.22751068576 0.23158859844 0.23518989995 0.23831697319 0.24100554938 0.24331631185 0.24532495237 
0.24711167507 0.24875107918 0.25030323602 0.25180662215 0.25327338441 0.25468718228 0.25600359881 0.25715288688 0.25804466645 
0.25857410995 0.25862910905 0.2580978506 0.25687612242 0.25487358596 0.25201830478 0.24825906262 0.24356539887 0.2379257218 
0.2313442043 0.22383732138 0.21543081109 0.20615756894 0.19605661424 0.18517290993 0.17355757204 0.1612679272 0.14836697378 
0.13492202998 0.12100263771 0.10667804714 0.092014756374 0.0770745821 0.061913601349 0.046582082403 0.031125279332 0.015584775375 
1.0194411134e-15 
_area 1 100 double
0 0.00068348122482 0.0027155363242 0.006038237069 0.010547212175 0.016084357879 0.022434872274 0.029332315048 0.03647296708 
0.043538053312 0.050220334008 0.056250622497 0.061420006884 0.065594705918 0.068722177839 0.070828919789 0.072012084103 0.07242856151 
0.072286291335 0.071839300317 0.071365519059 0.071090981598 0.071127182243 0.071493549788 0.072153598782 0.07303601365 0.074053680204 
0.075121971169 0.07617464315 0.077177969225 0.078143180991 0.079134031104 0.080252670877 0.081551880053 0.082938716865 0.084240946532 
0.085299025528 0.086014362171 0.086376216891 0.086465394514 0.086443189741 0.086531281823 0.087010337609 0.088098942606 0.089685238259 
0.09155593738 0.093661623595 0.096107010554 0.099095328094 0.10287419726 0.10761017992 0.11323939918 0.11954766984 0.12626151674 
0.13307987066 0.1397102016 0.14590301846 0.15147376974 0.15631128402 0.16037594968 0.16369096047 0.16632951913 0.16840032923 
0.1700325665 0.17135982149 0.17250142536 0.17354103757 0.17450657541 0.17535884536 0.17599410228 0.17625928031 0.17597409809 
0.17495448905 0.17303396545 0.17008160232 0.16601681866 0.16082002429 0.15453416931 0.14725491617 0.139120265 0.13030720244 
0.12102516837 0.11149655764 0.10192550991 0.09246380056 0.083190963337 0.074126685196 0.065270547751 0.056639549342 0.048282684961 
0.040276282424 0.032712992334 0.025692825232 0.019318338583 0.013692464851 0.0089163693569 0.0050854159069 0.0022830754665 0.00057426671312 
7.9817237432e-17 
