# vtk DataFile Version 5.1
vtk output
ASCII
DATASET POLYDATA
POINTS 100 float
-0.07857 -0.0399993 0.727256 -0.0786448 -0.0397377 0.726914 -0.0788774 -0.0387923 0.725897 
-0.0792684 -0.0372024 0.724189 -0.079815 -0.03503 0.721765 -0.0805061 -0.0323541 0.718592 
-0.0813173 -0.029263 0.714641 -0.0822048 -0.0258474 0.709881 -0.0831018 -0.0221924 0.704294 
-0.0839154 -0.0183714 0.697871 -0.0845275 -0.0144417 0.690615 -0.0847975 -0.0104421 0.682544 
-0.0845686 -0.00639318 0.673692 -0.0836772 -0.00229977 0.6641 -0.081963 0.00184493 0.65382 
-0.0792817 0.00605374 0.642905 -0.0755161 0.0103395 0.631412 -0.0705868 0.0147092 0.619392 
-0.06446 0.0191593 0.606887 -0.057152 0.0236728 0.593932 -0.0487297 0.0282173 0.58055 
-0.0393069 0.0327465 0.566749 -0.029037 0.0372023 0.552526 -0.0181019 0.0415194 0.537865 
-0.00669956 0.0456298 0.522738 0.00496986 0.0494686 0.507107 0.0167175 0.0529788 0.490923 
0.028377 0.0561152 0.47413 0.0398132 0.0588469 0.456666 0.0509264 0.0611583 0.438467 
0.061653 0.0630481 0.419467 0.0719617 0.0645274 0.399604 0.081846 0.0656159 0.378827 
0.0913141 0.0663384 0.357098 0.100377 0.0667209 0.334401 0.109036 0.0667874 0.310744 
0.117276 0.0665575 0.286167 0.125052 0.0660457 0.260745 0.132289 0.0652617 0.234586 
0.138882 0.0642122 0.207833 0.1447 0.0629035 0.180657 0.149597 0.0613445 0.153252 
0.153418 0.0595499 0.12582 0.15602 0.0575427 0.0985663 0.157282 0.0553555 0.0716797 
0.157121 0.0530311 0.0453256 0.155502 0.0506207 0.0196328 0.152441 0.0481814 -0.00531287 
0.148015 0.0457725 -0.0294734 0.142353 0.0434512 -0.0528573 0.135631 0.0412676 -0.0755153 
0.128059 0.039261 -0.0975312 0.119867 0.0374568 -0.11901 0.111288 0.0358649 -0.140065 
0.10254 0.0344794 -0.160802 0.0938097 0.0332812 -0.181309 0.0852443 0.0322409 -0.201644 
0.0769384 0.0313236 -0.221831 0.0689334 0.0304945 -0.241858 0.0612179 0.0297241 -0.26168 
0.0537352 0.028993 -0.281228 0.046393 0.0282961 -0.300419 0.0390779 0.0276436 -0.319166 
0.0316701 0.0270621 -0.337397 0.0240588 0.0265917 -0.35506 0.0161552 0.0262826 -0.372133 
0.00790421 0.0261899 -0.38863 -0.000709343 0.026367 -0.404593 -0.00965774 0.0268595 -0.420094 
-0.0188723 0.0276991 -0.435222 -0.0282496 0.0288989 -0.450066 -0.0376606 0.0304499 -0.464708 
-0.0469626 0.0323204 -0.479206 -0.0560119 0.0344569 -0.493582 -0.0646768 0.0367872 -0.507822 
-0.0728483 0.0392255 -0.521867 -0.0804491 0.0416787 -0.535622 -0.0874389 0.0440537 -0.548963 
-0.0938164 0.0462641 -0.561752 -0.0996177 0.0482369 -0.573849 -0.104911 0.0499173 -0.585132 
-0.109788 0.0512721 -0.595507 -0.114356 0.0522914 -0.604925 -0.118727 0.0529875 -0.613381 
-0.123007 0.0533925 -0.62092 -0.127284 0.0535539 -0.627629 -0.131626 0.0535294 -0.633628 
-0.136071 0.0533807 -0.639053 -0.140624 0.053168 -0.644041 -0.14526 0.0529444 -0.648714 
-0.149922 0.0527523 -0.653164 -0.15453 0.0526202 -0.65744 -0.158982 0.0525623 -0.661547 
-0.163165 0.0525787 -0.665442 -0.166959 0.052658 -0.669043 -0.170248 0.0527804 -0.672242 
-0.172926 0.0529216 -0.674917 -0.174903 0.0530573 -0.676949 -0.17611 0.053167 -0.678239 
-0.176505 0.0532373 -0.67872 
LINES 2 100
OFFSETS vtktypeint64
0 100 
CONNECTIVITY vtktypeint64
0 1 2 3 4 5 6 7 8 
9 10 11 12 13 14 15 16 17 
18 19 20 21 22 23 24 25 26 
27 28 29 30 31 32 33 34 35 
36 37 38 39 40 41 42 43 44 
45 46 47 48 49 50 51 52 53 
54 55 56 57 58 59 60 61 62 
63 64 65 66 67 68 69 70 71 
72 73 74 75 76 77 78 79 80 
81 82 83 84 85 86 87 88 89 
90 91 92 93 94 95 96 97 98 
99 
POINT_DATA 100
FIELD FieldData 3
_theta 1 100 double
0 0.031733259127 0.063466518254 0.095199777382 0.12693303651 0.15866629564 0.19039955476 0.22213281389 0.25386607302 
0.28559933214 0.31733259127 0.3490658504 0.38079910953 0.41253236865 0.44426562778 0.47599888691 0.50773214603 0.53946540516 
0.57119866429 0.60293192342 0.63466518254 0.66639844167 0.6981317008 0.72986495992 0.76159821905 0.79333147818 0.82506473731 
0.85679799643 0.88853125556 0.92026451469 0.95199777382 0.98373103294 1.0154642921 1.0471975512 1.0789308103 1.1106640695 
1.1423973286 1.1741305877 1.2058638468 1.237597106 1.2693303651 1.3010636242 1.3327968833 1.3645301425 1.3962634016 
1.4279966607 1.4597299198 1.491463179 1.5231964381 1.5549296972 1.5866629564 1.6183962155 1.6501294746 1.6818627337 
1.7135959929 1.745329252 1.7770625111 1.8087957702 1.8405290294 1.8722622885 1.9039955476 1.9357288068 1.9674620659 
1.999195325 2.0309285841 2.0626618433 2.0943951024 2.1261283615 2.1578616206 2.1895948798 2.2213281389 2.253061398 
2.2847946572 2.3165279163 2.3482611754 2.3799944345 2.4117276937 2.4434609528 2.4751942119 2.506927471 2.5386607302 
2.5703939893 2.6021272484 2.6338605076 2.6655937667 2.6973270258 2.7290602849 2.7607935441 2.7925268032 2.8242600623 
2.8559933214 2.8877265806 2.9194598397 2.9511930988 2.982926358 3.0146596171 3.0463928762 3.0781261353 3.1098593945 
3.1415926536 
_radius 1 100 double
7.9588840845e-16 0.016121191844 0.032085686145 0.047740869891 0.062950569489 0.077601486924 0.091607358139 0.10491032605 0.1174792716 
0.12930519245 0.14039416419 0.15075892298 0.16041055596 0.16935199016 0.17757474751 0.18505972738 0.19178175445 0.19771663473 
0.20284885106 0.20717797981 0.21072237345 0.21351942542 0.21562257471 0.21709591701 0.21800772463 0.21842425918 0.21840502061 
0.21800016804 0.21725044062 0.21618948744 0.21484794029 0.21325794642 0.21145672127 0.20948835172 0.2074042879 0.20526388621 
0.2031362495 0.20110338986 0.19926316727 0.19772949817 0.19662754007 0.19608299072 0.19620692891 0.19707992112 0.19874009698 
0.20117853958 0.2043422082 0.2081418236 0.21246138139 0.21716700861 0.22211443069 0.22715539286 0.23214374705 0.23694172068 
0.24142637408 0.24549569873 0.24907345754 0.25211187117 0.25459160626 0.25651908926 0.25792176392 0.25884234627 0.25933326147 
0.25945220213 0.25925918192 0.25881477622 0.25817872046 0.25740788477 0.25655289071 0.25565316562 0.25473090157 0.25378507688 
0.25278719338 0.25168028536 0.25038179403 0.24878946915 0.24678853007 0.24425851303 0.24107922684 0.23713621914 0.23232652541 
0.22656510964 0.21979157982 0.21197597583 0.20312215039 0.19326765478 0.1824799055 0.17084935676 0.15848106215 0.14548615172 
0.1319744011 0.11804848974 0.10380006656 0.089307517128 0.07463526486 0.059834373324 0.0449441125 0.02999411019 0.015006797212 
4.4950479969e-16 
_area 1 100 double
0 0.00060757264607 0.0024088725284 0.0053408931892 0.0093027507584 0.014161798119 0.019762014636 0.025934191637 0.032506650174 
0.039314242427 0.046202868926 0.053027576512 0.059644978174 0.065904408458 0.071644516348 0.076700784872 0.080925167574 0.084214189065 
0.086538641368 0.087966822837 0.088673276612 0.088926154188 0.089053808811 0.089475205135 0.090307679701 0.091343078863 0.092429855884 
0.093397891538 0.094077225333 0.0943758667 0.094271213074 0.093832562759 0.093203183325 0.092549344732 0.092002650035 0.091621679993 
0.091399165144 0.091282457725 0.091237829317 0.091298495954 0.091589094754 0.092338702383 0.093787556965 0.095928536343 0.098729833781 
0.10211959449 0.10603893885 0.11044886005 0.11531831823 0.12060952561 0.12626302388 0.13218579863 0.13824641101 0.14427839613 
0.15009119372 0.15548754986 0.16028519993 0.16433879149 0.16755614132 0.1699027909 0.17139340374 0.17207533505 0.17201309881 
0.17128056812 0.16996237132 0.16816040537 0.16599874801 0.16362132316 0.161179837 0.15881280682 0.15661937382 0.15463433306 
0.15281287826 0.15103278832 0.14911603655 0.14686238985 0.14408132866 0.14061184968 0.13632946663 0.13114759383 0.12502160194 
0.11795875359 0.11003007547 0.1013759095 0.092197955581 0.082736066494 0.073234949391 0.063911173275 0.054931680921 0.046410096456 
0.038418971823 0.031009858415 0.024231971567 0.018143413867 0.012813493354 0.008318151743 0.0047320005451 0.0021202546525 0.00053265809407 
8.8707105797e-17 
