# vtk DataFile Version 5.1
vtk output
ASCII
DATASET POLYDATA
POINTS 100 float
-0.089738 -0.0588439 0.692825 -0.0897757 -0.058481 0.692542 -0.0898448 -0.0572474 0.691605 
-0.0899235 -0.0552173 0.690044 -0.0899777 -0.052505 0.687901 -0.0899632 -0.0492506 0.685232 
-0.0898283 -0.0456031 0.682095 -0.0895162 -0.0417026 0.678544 -0.0889685 -0.037664 0.67462 
-0.0881275 -0.0335645 0.670347 -0.0869388 -0.0294362 0.665729 -0.0853533 -0.0252654 0.660747 
-0.0833284 -0.020998 0.655359 -0.0808292 -0.0165509 0.64951 -0.0778285 -0.0118272 0.643128 
-0.0743066 -0.00673406 0.636141 -0.0702514 -0.00120044 0.628478 -0.0656571 0.00480759 0.620073 
-0.060524 0.0112758 0.610878 -0.0548577 0.0181367 0.600858 -0.0486687 0.0252708 0.589998 
-0.0419717 0.0325143 0.578297 -0.0347859 0.0396726 0.565769 -0.0271347 0.0465372 0.552439 
-0.019046 0.0529051 0.538334 -0.0105519 0.0585974 0.523485 -0.00168915 0.0634753 0.50792 
0.0075011 0.067452 0.491662 0.0169732 0.0704982 0.474729 0.0266773 0.0726419 0.457135 
0.0365595 0.0739619 0.438891 0.0465623 0.0745759 0.420006 0.056625 0.0746253 0.400493 
0.0666837 0.0742583 0.380367 0.0766715 0.0736132 0.35965 0.086519 0.0728045 0.338368 
0.0961541 0.0719122 0.316553 0.105502 0.0709773 0.294239 0.114486 0.0700014 0.27146 
0.123027 0.0689524 0.248249 0.131043 0.0677737 0.224632 0.138452 0.0663967 0.200632 
0.145172 0.0647534 0.176264 0.151121 0.0627896 0.151543 0.156219 0.0604748 0.126482 
0.160393 0.0578084 0.101099 0.163573 0.054823 0.0754234 0.165698 0.0515815 0.0494983 
0.166717 0.0481716 0.0233874 0.166592 0.0446971 -0.00282342 0.165296 0.0412666 -0.0290259 
0.16282 0.0379828 -0.0550913 0.159167 0.0349327 -0.0808755 0.154359 0.03218 -0.106226 
0.148435 0.0297603 -0.130992 0.141448 0.0276811 -0.15503 0.133469 0.0259237 -0.178221 
0.124583 0.0244494 -0.200469 0.11489 0.0232069 -0.221717 0.104501 0.0221412 -0.241942 
0.0935349 0.0212018 -0.261161 0.0821206 0.02035 -0.279423 0.0703886 0.0195638 -0.296808 
0.0584702 0.0188397 -0.313415 0.0464925 0.0181928 -0.329353 0.0345751 0.0176525 -0.344736 
0.0228257 0.0172578 -0.359664 0.0113363 0.0170505 -0.374229 0.000180473 0.0170679 -0.388497 
-0.0105893 0.017337 -0.402516 -0.0209425 0.0178691 -0.416308 -0.030871 0.0186576 -0.429876 
-0.0403869 0.0196765 -0.443209 -0.0495199 0.0208828 -0.456281 -0.0583133 0.0222203 -0.46906 
-0.0668183 0.0236241 -0.481511 -0.0750887 0.0250272 -0.493598 -0.0831744 0.0263662 -0.505286 
-0.0911158 0.0275866 -0.51654 -0.0989391 0.0286471 -0.527326 -0.106652 0.0295219 -0.537606 
-0.114245 0.0302017 -0.547338 -0.121685 0.0306928 -0.556478 -0.128924 0.0310144 -0.564973 
-0.1359 0.0311956 -0.572768 -0.142542 0.0312715 -0.579812 -0.148776 0.0312787 -0.586055 
-0.154533 0.0312519 -0.591461 -0.159755 0.031221 -0.596012 -0.164397 0.0312088 -0.599712 
-0.168436 0.0312297 -0.602592 -0.171869 0.0312904 -0.604712 -0.174712 0.0313895 -0.606161 
-0.177003 0.0315198 -0.607047 -0.178791 0.0316696 -0.607497 -0.180135 0.0318249 -0.607644 
-0.181095 0.031971 -0.607616 -0.181727 0.0320948 -0.607527 -0.182076 0.0321857 -0.607466 
-0.18217 0.0322373 -0.607489 
LINES 2 100
OFFSETS vtktypeint64
0 100 
CONNECTIVITY vtktypeint64
0 1 2 3 4 5 6 7 8 
9 10 11 12 13 14 15 16 17 
18 19 20 21 22 23 24 25 26 
27 28 29 30 31 32 33 34 35 
36 37 38 39 40 41 42 43 44 
45 46 47 48 49 50 51 52 53 
54 55 56 57 58 59 60 61 62 
63 64 65 66 67 68 69 70 71 
72 73 74 75 76 77 78 79 80 
81 82 83 84 85 86 87 88 89 
90 91 92 93 94 95 96 97 98 
99 
POINT_DATA 100
FIELD FieldData 3
_theta 1 100 double
0 0.031733259127 0.063466518254 0.095199777382 0.12693303651 0.15866629564 0.19039955476 0.22213281389 0.25386607302 
0.28559933214 0.31733259127 0.3490658504 0.38079910953 0.41253236865 0.44426562778 0.47599888691 0.50773214603 0.53946540516 
0.57119866429 0.60293192342 0.63466518254 0.66639844167 0.6981317008 0.72986495992 0.76159821905 0.79333147818 0.82506473731 
0.85679799643 0.88853125556 0.92026451469 0.95199777382 0.98373103294 1.0154642921 1.0471975512 1.0789308103 1.1106640695 
1.1423973286 1.1741305877 1.2058638468 1.237597106 1.2693303651 1.3010636242 1.3327968833 1.3645301425 1.3962634016 
1.4279966607 1.4597299198 1.491463179 1.5231964381 1.5549296972 1.5866629564 1.6183962155 1.6501294746 1.6818627337 
1.7135959929 1.745329252 1.7770625111 1.8087957702 1.8405290294 1.8722622885 1.9039955476 1.9357288068 1.9674620659 
1.999195325 2.0309285841 2.0626618433 2.0943951024 2.1261283615 2.1578616206 2.1895948798 2.2213281389 2.253061398 
2.2847946572 2.3165279163 2.3482611754 2.3799944345 2.4117276937 2.4434609528 2.4751942119 2.506927471 2.5386607302 
2.5703939893 2.6021272484 2.6338605076 2.6655937667 2.6973270258 2.7290602849 2.7607935441 2.7925268032 2.8242600623 
2.8559933214 2.8877265806 2.9194598397 2.9511930988 2.982926358 3.0146596171 3.0463928762 3.0781261353 3.1098593945 
3.1415926536 
_radius 1 100 double
1.2738115944e-16 0.012447643562 0.02489185119 0.037335173891 0.049790726504 0.062273550259 0.07478285307 0.087281032003 0.099677251761 
0.11182189348 0.12351453378 0.13452412649 0.14461712023 0.15358786599 0.16128573458 0.16763447564 0.1726410514 0.17639305842 
0.17904559488 0.18079986347 0.18187688738 0.18249046272 0.18282373393 0.18301321356 0.18314243039 0.1832450335 0.18331505645 
0.18332098565 0.18322038293 0.18297262007 0.18254828808 0.18193473807 0.18113786646 0.1801806909 0.17909954981 0.17793884837 
0.1767450487 0.17556029674 0.17441630479 0.1733299459 0.17230245801 0.17132325125 0.1703774833 0.16945504709 0.16855827352 
0.16770674108 0.16693962277 0.16631747416 0.16592461223 0.16587048969 0.16628617681 0.1673123398 0.1690778904 0.17167229249 
0.17511777202 0.1793491542 0.18420799714 0.18945413096 0.19479275144 0.19991093014 0.20451573435 0.20836736161 0.21130327511 
0.21325165636 0.21423401336 0.21435770848 0.21379980009 0.21278405365 0.21155331207 0.21033970103 0.20933551528 0.208668169 
0.20838308173 0.20843811887 0.20871137727 0.20902080611 0.20915100716 0.2088813881 0.20801085193 0.20637617663 0.20386300699 
0.20040952436 0.19600347561 0.19067360318 0.18447684379 0.17748300182 0.1697588603 0.16135377891 0.15228874801 0.14255069672 
0.13209358572 0.12084719746 0.10873317418 0.095685838513 0.081673640029 0.066716769315 0.050897617559 0.034362505674 0.017314708852 
1.5013352363e-15 
_area 1 100 double
0 0.00045353028122 0.0018033547474 0.0040177453184 0.0070462424863 0.010824229985 0.015278806981 0.020332033268 0.025896054305 
0.031857567537 0.038057643395 0.04428043835 0.050261216126 0.055713109909 0.060364142216 0.063994574231 0.066466756506 0.067742867737 
0.067889158214 0.067068110422 0.065523246353 0.063572283655 0.061736601678 0.060919695609 0.060932490218 0.06136247542 0.061756630291 
0.061872066332 0.061611986972 0.060987809233 0.060106101498 0.05916283658 0.058456776133 0.058318830985 0.058751814166 0.05959758185 
0.060731666897 0.062055326365 0.063481495086 0.064936198079 0.066365375825 0.067730890646 0.06901578674 0.070290795844 0.071598868828 
0.072932114502 0.074319751292 0.07572103055 0.07705386098 0.078293351106 0.079514180968 0.0808803905 0.082616260475 0.084991189721 
0.088355513119 0.092656947693 0.097668197083 0.10311599845 0.10868921736 0.11403054883 0.11877959054 0.12261522065 0.12528264064 
0.12662890884 0.12662999331 0.12539548762 0.12314955313 0.12019570969 0.1168749049 0.11352357366 0.11043510965 0.10782578734 
0.10580692216 0.10437010792 0.10339635754 0.10269065553 0.10202125968 0.10114203212 0.099809249868 0.097806732449 0.094970919867 
0.09121050357 0.086518942641 0.08097657832 0.074740348967 0.068022250954 0.061059901434 0.054083093983 0.047280590195 0.040774380913 
0.034612842044 0.028789468381 0.023279813803 0.01808226635 0.013249843355 0.0089026426946 0.0052163039566 0.0023906902504 0.0006091707859 
3.7283409871e-17 
