# vtk DataFile Version 5.1
vtk output
ASCII
DATASET POLYDATA
POINTS 100 float
-0.221254 -0.0417295 0.792361 -0.220993 -0.0420755 0.792604 -0.220231 -0.0428817 0.793326 
-0.218976 -0.0440465 0.794359 -0.217239 -0.0454123 0.79544 -0.215027 -0.0467799 0.796243 
-0.212345 -0.0479264 0.796414 -0.209192 -0.0486246 0.795608 -0.205554 -0.0486627 0.793523 
-0.201408 -0.047861 0.789934 -0.19672 -0.0460858 0.784709 -0.191447 -0.0432578 0.777818 
-0.185544 -0.0393557 0.769331 -0.178968 -0.0344145 0.759397 -0.171685 -0.0285191 0.748227 
-0.163672 -0.0217949 0.736062 -0.154929 -0.0143957 0.723139 -0.145474 -0.00649166 0.709667 
-0.13535 0.00174216 0.695801 -0.124621 0.0101355 0.68163 -0.113364 0.0185301 0.667173 
-0.101669 0.0267832 0.652383 -0.0896279 0.0347697 0.637162 -0.0773246 0.0423806 0.621378 
-0.0648316 0.0495214 0.60489 -0.0522022 0.0561086 0.58757 -0.0394684 0.0620681 0.569318 
-0.0266407 0.067333 0.550077 -0.0137115 0.0718446 0.529836 -0.000661986 0.0755531 0.50863 
0.0125293 0.0784214 0.486527 0.0258759 0.080428 0.463617 0.0393725 0.0815715 0.439991 
0.0529857 0.081873 0.415732 0.0666462 0.0813785 0.390896 0.0802447 0.0801576 0.365506 
0.0936316 0.078302 0.339554 0.106621 0.0759199 0.313004 0.118998 0.0731306 0.285802 
0.130532 0.0700565 0.257897 0.140987 0.0668156 0.229254 0.15014 0.0635143 0.199874 
0.157796 0.0602424 0.169802 0.163797 0.0570687 0.13914 0.168037 0.0540407 0.108044 
0.170467 0.051185 0.076714 0.171098 0.048511 0.0453879 0.17 0.0460159 0.0143163 
0.167292 0.0436893 -0.0162556 0.16314 0.0415196 -0.0461093 0.157739 0.0394976 -0.0750714 
0.151304 0.0376203 -0.103026 0.144056 0.0358917 -0.12992 0.136207 0.0343221 -0.155765 
0.127956 0.0329263 -0.180625 0.119474 0.0317203 -0.204605 0.110906 0.0307174 -0.227834 
0.102364 0.0299253 -0.250444 0.0939299 0.0293435 -0.272557 0.0856578 0.0289628 -0.294265 
0.0775794 0.0287664 -0.31563 0.0697085 0.028732 -0.336676 0.0620472 0.028836 -0.357392 
0.0545906 0.0290579 -0.377745 0.0473318 0.0293842 -0.39769 0.0402653 0.0298124 -0.417181 
0.0333894 0.0303522 -0.436184 0.0267075 0.0310253 -0.454687 0.0202284 0.0318627 -0.472701 
0.0139659 0.0328998 -0.490264 0.0079384 0.0341707 -0.507428 0.00216741 0.0357006 -0.524255 
-0.00332317 0.0374993 -0.540803 -0.0085082 0.0395559 -0.557114 -0.0133622 0.0418356 -0.573202 
-0.01786 0.044279 -0.589049 -0.0219779 0.0468053 -0.604601 -0.0256942 0.049318 -0.619777 
-0.0289902 0.051713 -0.634473 -0.0318513 0.0538885 -0.648579 -0.0342683 0.0557557 -0.661994 
-0.036238 0.0572474 -0.674639 -0.0377649 0.0583258 -0.686473 -0.0388616 0.0589866 -0.697499 
-0.0395493 0.0592592 -0.707763 -0.0398581 0.0592037 -0.717355 -0.0398261 0.0589037 -0.72639 
-0.0394987 0.0584572 -0.734998 -0.038927 0.0579649 -0.7433 -0.038166 0.0575196 -0.75139 
-0.0372723 0.0571956 -0.759316 -0.0363023 0.0570415 -0.767071 -0.0353102 0.0570763 -0.774583 
-0.0343462 0.0572887 -0.781723 -0.0334548 0.0576412 -0.788311 -0.0326744 0.0580766 -0.794135 
-0.0320365 0.0585282 -0.798975 -0.031565 0.0589295 -0.802624 -0.031277 0.0592244 -0.804915 
-0.031182 0.0593759 -0.805737 
LINES 2 100
OFFSETS vtktypeint64
0 100 
CONNECTIVITY vtktypeint64
0 1 2 3 4 5 6 7 8 
9 10 11 12 13 14 15 16 17 
18 19 20 21 22 23 24 25 26 
27 28 29 30 31 32 33 34 35 
36 37 38 39 40 41 42 43 44 
45 46 47 48 49 50 51 52 53 
54 55 56 57 58 59 60 61 62 
63 64 65 66 67 68 69 70 71 
72 73 74 75 76 77 78 79 80 
81 82 83 84 85 86 87 88 89 
90 91 92 93 94 95 96 97 98 
99 
POINT_DATA 100
FIELD FieldData 3
_theta 1 100 double
0 0.031733259127 0.063466518254 0.095199777382 0.12693303651 0.15866629564 0.19039955476 0.22213281389 0.25386607302 
0.28559933214 0.31733259127 0.3490658504 0.38079910953 0.41253236865 0.44426562778 0.47599888691 0.50773214603 0.53946540516 
0.57119866429 0.60293192342 0.63466518254 0.66639844167 0.6981317008 0.72986495992 0.76159821905 0.79333147818 0.82506473731 
0.85679799643 0.88853125556 0.92026451469 0.95199777382 0.98373103294 1.0154642921 1.0471975512 1.0789308103 1.1106640695 
1.1423973286 1.1741305877 1.2058638468 1.237597106 1.2693303651 1.3010636242 1.3327968833 1.3645301425 1.3962634016 
1.4279966607 1.4597299198 1.491463179 1.5231964381 1.5549296972 1.5866629564 1.6183962155 1.6501294746 1.6818627337 
1.7135959929 1.745329252 1.7770625111 1.8087957702 1.8405290294 1.8722622885 1.9039955476 1.9357288068 1.9674620659 
1.999195325 2.0309285841 2.0626618433 2.0943951024 2.1261283615 2.1578616206 2.1895948798 2.2213281389 2.253061398 
2.2847946572 2.3165279163 2.3482611754 2.3799944345 2.4117276937 2.4434609528 2.4751942119 2.506927471 2.5386607302 
2.5703939893 2.6021272484 2.6338605076 2.6655937667 2.6973270258 2.7290602849 2.7607935441 2.7925268032 2.8242600623 
2.8559933214 2.8877265806 2.9194598397 2.9511930988 2.982926358 3.0146596171 3.0463928762 3.0781261353 3.1098593945 
3.1415926536 
_radius 1 100 double
2.2591401799e-16 0.020382209583 0.040390827278 0.059671037588 0.077911044433 0.094859842683 0.11034026713 0.12425608832 0.1365923455 
0.14740866719 0.15682600945 0.16500800436 0.17213888884 0.17840066146 0.18395250975 0.18891545046 0.19336441725 0.1973288143 
0.2008011049 0.20375160313 0.20614650574 0.20796557816 0.20921601256 0.20993981452 0.21021339903 0.2101395792 0.20983361028 
0.2094062313 0.20894741854 0.20851444105 0.20812667258 0.2077678964 0.20739525007 0.20695279863 0.20638670046 0.20565801532 
0.20474988691 0.20367001386 0.20245426914 0.20117535343 0.19995182509 0.1989488533 0.19836621808 0.19841486466 0.19928661542 
0.20112304326 0.20399002607 0.20786389822 0.21263270961 0.21811211996 0.22407147705 0.23026357393 0.23645213651 0.24243327663 
0.24804942499 0.25319577274 0.25782000378 0.26191644593 0.26551597247 0.26867311989 0.27145195131 0.2739122065 0.27609726571 
0.27802537833 0.27968535603 0.28103739951 0.28201892621 0.28255436017 0.2825670807 0.28199132165 0.28078186736 0.27891988132 
0.27641400067 0.27329674257 0.26961708579 0.26543064266 0.26078904472 0.25573006919 0.25026975893 0.24439748708 0.23807467724 
0.23123767116 0.2238048824 0.21568773711 0.20680402264 0.19709143873 0.18651876991 0.17509240311 0.16285684409 0.14988917768 
0.13628873963 0.12216431182 0.10762165439 0.092753981142 0.077637070846 0.062329322434 0.046875645896 0.031313125664 0.015676231015 
1.0212808936e-15 
_area 1 100 double
0 0.00089984667003 0.0035538980422 0.007825078916 0.013484950348 0.020219978721 0.027649418798 0.03535739515 0.04293669909 
0.050036911418 0.056406656801 0.061919882947 0.066578836472 0.07049142974 0.073827508643 0.076765662343 0.079446279371 0.081943984312 
0.084264375343 0.086374054865 0.088473638354 0.09062883887 0.092276197307 0.093210066977 0.093393785924 0.092931973429 0.092026180637 
0.090933534676 0.089924895086 0.089234182677 0.089011683363 0.089297906899 0.090017654037 0.091037923553 0.092224337339 0.093466399824 
0.094665247019 0.095725004399 0.096595332146 0.097326931491 0.098076882659 0.099036021652 0.10041967173 0.10233240056 0.1048179987 
0.10804951458 0.11222101835 0.11762697787 0.12378330889 0.13040297817 0.1374125339 0.14475053373 0.15233836832 0.16011300249 
0.16792884293 0.17549951668 0.18252999867 0.18879314645 0.19413534112 0.19848009785 0.20181714862 0.2041846558 0.20564765106 
0.20627699693 0.20613413126 0.20526582656 0.20371183867 0.20150515619 0.1987732831 0.19564747688 0.19203876268 0.18793614075 
0.18341566672 0.17851496307 0.17322631014 0.16751598347 0.16134896421 0.15470893163 0.1476082854 0.14008610187 0.13219681119 
0.12399660326 0.11553443663 0.10685023595 0.097978576397 0.088955510644 0.079827682163 0.070661938908 0.061550923714 0.052610912641 
0.043972817988 0.035771047024 0.028135225577 0.021187305867 0.015043031507 0.0098141779052 0.0056079088513 0.0025217124759 0.00063499282853 
2.0820069017e-17 
