# vtk DataFile Version 5.1
vtk output
ASCII
DATASET POLYDATA
POINTS 100 float
-0.243657 -0.0486627 0.672803 -0.243276 -0.0486972 0.672707 -0.242206 -0.0486022 0.672487 
-0.240432 -0.0483434 0.672081 -0.237936 -0.047868 0.671389 -0.234701 -0.0471077 0.670286 
-0.230714 -0.0459836 0.668635 -0.225973 -0.0444113 0.666297 -0.220493 -0.0423069 0.663149 
-0.214304 -0.0395937 0.659092 -0.207456 -0.0362082 0.65406 -0.200009 -0.0321061 0.648026 
-0.192031 -0.0272675 0.641001 -0.18359 -0.0217003 0.63303 -0.174746 -0.0154429 0.624186 
-0.165541 -0.00856436 0.614559 -0.156002 -0.00116328 0.604245 -0.146131 0.00663583 0.593333 
-0.13591 0.0146876 0.581898 -0.125309 0.0228323 0.569988 -0.114291 0.0309038 0.557623 
-0.102823 0.0387373 0.544793 -0.0908878 0.0461777 0.531455 -0.0784937 0.0530867 0.517545 
-0.0656809 0.0593493 0.50298 -0.0525259 0.0648779 0.487669 -0.0391405 0.0696146 0.471523 
-0.0256658 0.0735316 0.454461 -0.012263 0.0766295 0.436422 0.000899272 0.0789333 0.417366 
0.013659 0.0804871 0.397282 0.0258743 0.0813486 0.376187 0.0374342 0.081582 0.354128 
0.0482666 0.0812529 0.331174 0.0583399 0.0804221 0.307419 0.0676606 0.079143 0.282972 
0.0762644 0.0774584 0.257958 0.0842049 0.075401 0.232508 0.091538 0.0729942 0.206758 
0.0983079 0.0702551 0.180845 0.104533 0.0671982 0.154904 0.110198 0.0638401 0.129064 
0.115246 0.0602029 0.103446 0.119584 0.056319 0.078161 0.12309 0.0522329 0.0533066 
0.125623 0.0480031 0.0289648 0.127043 0.0437015 0.00519943 0.127228 0.0394117 -0.0179457 
0.126095 0.0352259 -0.0404486 0.123607 0.0312403 -0.062309 0.119791 0.0275506 -0.083548 
0.114739 0.0242458 -0.104206 0.108601 0.0214043 -0.124337 0.101581 0.0190887 -0.144008 
0.0939142 0.0173429 -0.16329 0.0858543 0.01619 -0.182251 0.0776481 0.0156319 -0.200954 
0.0695174 0.0156499 -0.219449 0.0616427 0.0162064 -0.237768 0.054152 0.0172487 -0.255926 
0.0471157 0.0187117 -0.273919 0.0405493 0.0205224 -0.291728 0.0344214 0.0226036 -0.309317 
0.0286669 0.0248773 -0.326646 0.0232034 0.0272683 -0.343672 0.0179481 0.0297059 -0.360354 
0.0128335 0.0321262 -0.376663 0.00781932 0.0344727 -0.39258 0.00289966 0.036697 -0.408101 
-0.00189552 0.0387591 -0.423239 -0.00650446 0.0406265 -0.438016 -0.0108425 0.0422749 -0.452464 
-0.0148144 0.0436869 -0.466617 -0.0183275 0.0448526 -0.480507 -0.0213052 0.0457691 -0.494155 
-0.0236974 0.0464407 -0.507566 -0.0254871 0.0468785 -0.520729 -0.0266925 0.0471011 -0.533611 
-0.0273638 0.0471334 -0.546156 -0.0275767 0.0470066 -0.558293 -0.0274216 0.0467571 -0.569936 
-0.0269918 0.0464251 -0.580992 -0.0263726 0.0460526 -0.591366 -0.0256313 0.045682 -0.600971 
-0.0248111 0.0453532 -0.609732 -0.0239297 0.0451015 -0.617596 -0.0229813 0.0449559 -0.62453 
-0.021943 0.0449367 -0.630529 -0.0207845 0.0450544 -0.635613 -0.0194781 0.0453091 -0.639826 
-0.018009 0.0456905 -0.643235 -0.0163841 0.0461785 -0.645922 -0.0146362 0.0467447 -0.647982 
-0.0128252 0.0473546 -0.649515 -0.0110343 0.04797 -0.650621 -0.00936277 0.048552 -0.651394 
-0.007915 0.0490636 -0.651917 -0.006789 0.0494728 -0.652261 -0.00606457 0.0497547 -0.652477 
-0.00579363 0.0498939 -0.652596 
LINES 2 100
OFFSETS vtktypeint64
0 100 
CONNECTIVITY vtktypeint64
0 1 2 3 4 5 6 7 8 
9 10 11 12 13 14 15 16 17 
18 19 20 21 22 23 24 25 26 
27 28 29 30 31 32 33 34 35 
36 37 38 39 40 41 42 43 44 
45 46 47 48 49 50 51 52 53 
54 55 56 57 58 59 60 61 62 
63 64 65 66 67 68 69 70 71 
72 73 74 75 76 77 78 79 80 
81 82 83 84 85 86 87 88 89 
90 91 92 93 94 95 96 97 98 
99 
POINT_DATA 100
FIELD FieldData 3
_theta 1 100 double
0 0.031733259127 0.063466518254 0.095199777382 0.12693303651 0.15866629564 0.19039955476 0.22213281389 0.25386607302 
0.28559933214 0.31733259127 0.3490658504 0.38079910953 0.41253236865 0.44426562778 0.47599888691 0.50773214603 0.53946540516 
0.57119866429 0.60293192342 0.63466518254 0.66639844167 0.6981317008 0.72986495992 0.76159821905 0.79333147818 0.82506473731 
0.85679799643 0.88853125556 0.92026451469 0.95199777382 0.98373103294 1.0154642921 1.0471975512 1.0789308103 1.1106640695 
1.1423973286 1.1741305877 1.2058638468 1.237597106 1.2693303651 1.3010636242 1.3327968833 1.3645301425 1.3962634016 
1.4279966607 1.4597299198 1.491463179 1.5231964381 1.5549296972 1.5866629564 1.6183962155 1.6501294746 1.6818627337 
1.7135959929 1.745329252 1.7770625111 1.8087957702 1.8405290294 1.8722622885 1.9039955476 1.9357288068 1.9674620659 
1.999195325 2.0309285841 2.0626618433 2.0943951024 2.1261283615 2.1578616206 2.1895948798 2.2213281389 2.253061398 
2.2847946572 2.3165279163 2.3482611754 2.3799944345 2.4117276937 2.4434609528 2.4751942119 2.506927471 2.5386607302 
2.5703939893 2.6021272484 2.6338605076 2.6655937667 2.6973270258 2.7290602849 2.7607935441 2.7925268032 2.8242600623 
2.8559933214 2.8877265806 2.9194598397 2.9511930988 2.982926358 3.0146596171 3.0463928762 3.0781261353 3.1098593945 
3.1415926536 
_radius 1 100 double
1.1464934309e-16 0.015988591563 0.031701527983 0.046879667529 0.061303853011 0.074807223232 0.087279909375 0.098666299182 0.10895655533 
0.11817508136 0.12636887746 0.13359817573 0.13993057932 0.14543852533 0.15019871463 0.1542916204 0.15779950542 0.16080241015 
0.16337286973 0.16557107682 0.16744235174 0.16901800998 0.17031940547 0.17136373361 0.17216964283 0.17276093522 0.17316734182 
0.17342214073 0.17355705599 0.17359555103 0.173546522 0.17340125591 0.17313634633 0.17272330952 0.1721428508 0.17139993429 
0.17053563218 0.16963251161 0.16881157144 0.16822058738 0.16801614813 0.1683437906 0.169321054 0.17102652882 0.17349538412 
0.1767198102 0.18065144994 0.18520277704 0.19024695318 0.19561963872 0.2011270667 0.20656110397 0.21171821574 0.21641854732 
0.22052258393 0.22394384498 0.22665633479 0.22869559738 0.23015266833 0.23116101569 0.23187755493 0.23245988216 0.23304289715 
0.23371873264 0.2345238789 0.23543612868 0.23638159367 0.23724949039 0.2379108184 0.23823695517 0.23811518778 0.23745955629 
0.23621655268 0.2343659889 0.23191771694 0.22890497474 0.22537513378 0.22137872666 0.21695792277 0.2121360201 0.20690980616 
0.20124653853 0.19508662803 0.18835193864 0.18095829542 0.17282979818 0.1639122167 0.15418311603 0.14365717642 0.13238612424 
0.12045357762 0.10796586171 0.095040423587 0.081793797221 0.068331034372 0.054738094394 0.041077980125 0.027390646101 0.013696121681 
1.503983081e-15 
_area 1 100 double
0 0.00067148814573 0.0026306126445 0.0057202193504 0.0097055709842 0.014307828102 0.019239335901 0.024234405656 0.029071526084 
0.033584763108 0.037663502575 0.04124238713 0.044287705188 0.046788744751 0.048758772901 0.050243054098 0.051326976299 0.05213908697 
0.052850279613 0.053649991093 0.054625365495 0.055719049636 0.05683644383 0.057891532758 0.058819267555 0.059584510481 0.060188045685 
0.060667500838 0.061094950174 0.061571191173 0.062210095518 0.063108235809 0.06430931378 0.065789284477 0.067481915115 0.06932951458 
0.071322327317 0.073501351643 0.075925056451 0.078627184735 0.081596885117 0.084783893304 0.088108910413 0.091470572312 0.094765123398 
0.097934105382 0.10102945563 0.10428716482 0.10807353869 0.1126184958 0.11773761603 0.12319060707 0.12875956677 0.13421450949 
0.13932149327 0.1438631741 0.14765118476 0.15052821714 0.15238827366 0.15323338647 0.15321691647 0.15262709456 0.15182007981 
0.15112446529 0.15074447328 0.15071234908 0.15091560193 0.15116184652 0.15124055002 0.1509666323 0.15020252964 0.14886162556 
0.14690042862 0.14430773185 0.14109645023 0.13729962197 0.13296829323 0.12816733898 0.12296639429 0.1174264705 0.11158666044 
0.10545703849 0.099021972457 0.092253619234 0.085131133365 0.077659342314 0.069881718546 0.061885141765 0.053796493891 0.045772665356 
0.037986294906 0.030610039422 0.023802376885 0.017697505289 0.012400694202 0.0079888608908 0.0045147981249 0.0020128556865 0.00050411899065 
3.4884601579e-17 
