# vtk DataFile Version 5.1
vtk output
ASCII
DATASET POLYDATA
POINTS 100 float
-0.0556375 -0.0358304 0.809307 -0.0559647 -0.0358147 0.809 -0.0569177 -0.0355169 0.808067 
-0.0584226 -0.0349298 0.806479 -0.060362 -0.034042 0.804191 -0.0625842 -0.0328374 0.801149 
-0.0649135 -0.0312941 0.797293 -0.0671624 -0.0293838 0.792564 -0.0691434 -0.0270722 0.786913 
-0.0706804 -0.0243208 0.780303 -0.0716176 -0.0210895 0.772714 -0.0718268 -0.0173414 0.764143 
-0.0712108 -0.0130476 0.754608 -0.0697055 -0.00819312 0.744142 -0.0672781 -0.0027828 0.732788 
-0.0639246 0.0031543 0.720599 -0.0596652 0.00956144 0.707627 -0.0545395 0.0163532 0.693918 
-0.0486018 0.023417 0.679512 -0.0419161 0.030617 0.664431 -0.0345528 0.0378008 0.648685 
-0.0265857 0.044808 0.632267 -0.0180899 0.0514794 0.615157 -0.00914023 0.0576673 0.597321 
0.000189649 0.0632446 0.578723 0.00982834 0.0681123 0.559321 0.0197075 0.0722045 0.539079 
0.0297629 0.0754911 0.517969 0.0399348 0.0779762 0.495971 0.050169 0.0796948 0.473086 
0.0604164 0.0807063 0.449324 0.0706321 0.0810866 0.424716 0.0807739 0.0809193 0.399306 
0.0907991 0.0802872 0.373151 0.100661 0.079265 0.346318 0.110306 0.0779138 0.318883 
0.119666 0.0762786 0.290928 0.12866 0.0743876 0.262535 0.137189 0.0722546 0.23379 
0.145136 0.0698836 0.204779 0.15237 0.0672738 0.175586 0.158751 0.0644266 0.146294 
0.164138 0.0613504 0.116986 0.168395 0.0580659 0.0877434 0.171408 0.0546084 0.0586453 
0.173089 0.0510285 0.0297705 0.173389 0.04739 0.00119501 0.172304 0.0437665 -0.0270079 
0.169875 0.0402357 -0.0547689 0.166194 0.0368731 -0.0820237 0.161389 0.0337458 -0.108714 
0.155625 0.030907 -0.134788 0.149084 0.0283916 -0.160202 0.141953 0.0262143 -0.184919 
0.134411 0.0243689 -0.208912 0.126615 0.0228315 -0.232158 0.118686 0.0215634 -0.254645 
0.110708 0.0205177 -0.276368 0.102723 0.0196445 -0.297329 0.0947367 0.0188976 -0.317538 
0.0867236 0.0182399 -0.337012 0.0786419 0.0176475 -0.355779 0.0704459 0.0171122 -0.373876 
0.0621003 0.016642 -0.391348 0.0535931 0.0162596 -0.408252 0.0449448 0.0159995 -0.424652 
0.0362132 0.0159036 -0.440619 0.0274927 0.0160165 -0.456232 0.018909 0.0163799 -0.47157 
0.0106081 0.0170287 -0.486707 0.00274283 0.0179866 -0.501716 -0.00454299 0.019264 -0.516652 
-0.0111296 0.0208567 -0.531559 -0.0169345 0.0227463 -0.546457 -0.0219211 0.0249012 -0.561345 
-0.0261026 0.0272792 -0.576196 -0.0295403 0.0298306 -0.590959 -0.0323358 0.0325005 -0.60556 
-0.0346189 0.0352326 -0.619906 -0.0365324 0.0379715 -0.63389 -0.0382156 0.0406649 -0.647397 
-0.0397885 0.043265 -0.660311 -0.0413394 0.0457301 -0.672519 -0.0429165 0.0480248 -0.683924 
-0.044525 0.0501206 -0.694444 -0.0461304 0.0519961 -0.704018 -0.0476662 0.0536371 -0.712612 
-0.0490474 0.0550367 -0.720216 -0.0501843 0.0561954 -0.726844 -0.050999 0.057121 -0.732534 
-0.051438 0.0578286 -0.737342 -0.0514832 0.0583398 -0.741338 -0.0511567 0.0586821 -0.744604 
-0.0505206 0.0588876 -0.747223 -0.0496708 0.0589908 -0.74928 -0.0487263 0.0590272 -0.750854 
-0.0478152 0.0590301 -0.752015 -0.0470587 0.0590288 -0.75282 -0.0465562 0.0590461 -0.753312 
-0.0463726 0.0590966 -0.753516 
LINES 2 100
OFFSETS vtktypeint64
0 100 
CONNECTIVITY vtktypeint64
0 1 2 3 4 5 6 7 8 
9 10 11 12 13 14 15 16 17 
18 19 20 21 22 23 24 25 26 
27 28 29 30 31 32 33 34 35 
36 37 38 39 40 41 42 43 44 
45 46 47 48 49 50 51 52 53 
54 55 56 57 58 59 60 61 62 
63 64 65 66 67 68 69 70 71 
72 73 74 75 76 77 78 79 80 
81 82 83 84 85 86 87 88 89 
90 91 92 93 94 95 96 97 98 
99 
POINT_DATA 100
FIELD FieldData 3
_theta 1 100 double
0 0.031733259127 0.063466518254 0.095199777382 0.12693303651 0.15866629564 0.19039955476 0.22213281389 0.25386607302 
0.28559933214 0.31733259127 0.3490658504 0.38079910953 0.41253236865 0.44426562778 0.47599888691 0.50773214603 0.53946540516 
0.57119866429 0.60293192342 0.63466518254 0.66639844167 0.6981317008 0.72986495992 0.76159821905 0.79333147818 0.82506473731 
0.85679799643 0.88853125556 0.92026451469 0.95199777382 0.98373103294 1.0154642921 1.0471975512 1.0789308103 1.1106640695 
1.1423973286 1.1741305877 1.2058638468 1.237597106 1.2693303651 1.3010636242 1.3327968833 1.3645301425 1.3962634016 
1.4279966607 1.4597299198 1.491463179 1.5231964381 1.5549296972 1.5866629564 1.6183962155 1.6501294746 1.6818627337 
1.7135959929 1.745329252 1.7770625111 1.8087957702 1.8405290294 1.8722622885 1.9039955476 1.9357288068 1.9674620659 
1.999195325 2.0309285841 2.0626618433 2.0943951024 2.1261283615 2.1578616206 2.1895948798 2.2213281389 2.253061398 
2.2847946572 2.3165279163 2.3482611754 2.3799944345 2.4117276937 2.4434609528 2.4751942119 2.506927471 2.5386607302 
2.5703939893 2.6021272484 2.6338605076 2.6655937667 2.6973270258 2.7290602849 2.7607935441 2.7925268032 2.8242600623 
2.8559933214 2.8877265806 2.9194598397 2.9511930988 2.982926358 3.0146596171 3.0463928762 3.0781261353 3.1098593945 
3.1415926536 
_radius 1 100 double
4.4759899739e-16 0.015721305808 0.031259466229 0.046439956083 0.06111749368 0.075183886605 0.088569140046 0.10123624297 0.11317144166 
0.12437261616 0.13483839126 0.14455997003 0.15351676035 0.16167605804 0.16899652139 0.17543484299 0.1809547278 0.18553692333 
0.18918868065 0.19195082733 0.19390079451 0.19515053767 0.19583923789 0.19612172497 0.19615441815 0.19608099042 0.19601985168 
0.19605501748 0.19623117377 0.19655297491 0.19698804614 0.19747300742 0.19792217188 0.19823921813 0.19833245765 0.19813339584 
0.19761598737 0.19681177877 0.19581579429 0.194779915 0.19389386504 0.19335784466 0.19335404653 0.19402476852 0.19546143837 
0.19770337965 0.20074143458 0.20452187986 0.20894926025 0.2138899689 0.21917957659 0.22463576184 0.23007624711 0.23533882084 
0.24029933467 0.24488379287 0.24907198767 0.25289201343 0.25640686045 0.25969572975 0.2628334888 0.26587176048 0.26882461674 
0.27166093058 0.27430433182 0.27664058708 0.27853121371 0.27983132996 0.28040919059 0.28016459687 0.27904344265 0.27704609511 
0.2742281024 0.27069279812 0.26657659653 0.26202895961 0.25718996016 0.2521688564 0.24702695907 0.24176728395 0.2363322544 
0.23060944565 0.22444436085 0.21765855648 0.21007097644 0.20152002721 0.19188376168 0.18109563431 0.16915372135 0.15612207425 
0.1421239169 0.12732756151 0.11192701398 0.096120073358 0.080087136673 0.06397380307 0.047879725059 0.031855095635 0.015904912413 
1.8814455395e-15 
_area 1 100 double
0 0.00072751254027 0.0028564419509 0.006238430779 0.010663484358 0.015902181161 0.021742118076 0.028006489484 0.034551396974 
0.041248750249 0.047966784581 0.054557599016 0.060854782059 0.066679808506 0.071855094415 0.07622223419 0.079663520031 0.082122924687 
0.083620945707 0.084257894496 0.084202705191 0.083668444838 0.082881661221 0.082063234008 0.081509319474 0.081405951454 0.081329116117 
0.081160179725 0.08089269841 0.080593343207 0.080367365315 0.080305815304 0.080438263238 0.080716281127 0.081027570662 0.081237804623 
0.081254631505 0.081090216054 0.080890263366 0.080910115332 0.081413310336 0.082538367311 0.084279450493 0.086560018381 0.089291116732 
0.092402793258 0.095866447279 0.099723936835 0.10409407087 0.10909567346 0.11473578972 0.12089314758 0.12737201613 0.13394345587 
0.14038164772 0.14650168468 0.1521781847 0.15734753841 0.16200302683 0.16618050363 0.16993414595 0.17330750041 0.17630766635 
0.17889171065 0.18096991739 0.1824222424 0.18312035975 0.18294860609 0.18182155948 0.17970082118 0.17661477228 0.17266900775 
0.16802535491 0.1628628545 0.15735412844 0.15166257354 0.14593537549 0.14028731582 0.13478699753 0.12944949582 0.12423103932 
0.11902372269 0.11365655071 0.10791325139 0.10157152056 0.094455755412 0.086486083684 0.077707558288 0.06829196658 0.058514015649 
0.048710006957 0.039230033893 0.030394595795 0.022463810656 0.015623078322 0.009984524731 0.0056001913023 0.0024814059561 0.00061896403578 
4.2541343116e-17 
