# vtk DataFile Version 5.1
vtk output
ASCII
DATASET POLYDATA
POINTS 100 float
-0.139041 -0.0413533 0.723403 -0.139014 -0.0413407 0.723212 -0.139015 -0.0411511 0.722629 
-0.139004 -0.0407704 0.721594 -0.138922 -0.0401758 0.720021 -0.138688 -0.0393375 0.717807 
-0.138211 -0.0382207 0.714848 -0.137394 -0.0367878 0.711055 -0.136139 -0.0350015 0.706368 
-0.134358 -0.0328278 0.700762 -0.131973 -0.0302392 0.694252 -0.12892 -0.0272175 0.686889 
-0.125155 -0.0237565 0.678751 -0.120652 -0.0198637 0.669932 -0.115402 -0.0155617 0.660521 
-0.109413 -0.0108879 0.650592 -0.102708 -0.0058938 0.640187 -0.0953226 -0.000643239 0.629304 
-0.0873025 0.00479067 0.617899 -0.0787028 0.0103288 0.605886 -0.0695855 0.0158895 0.593145 
-0.0600187 0.0213929 0.579541 -0.0500751 0.0267634 0.564935 -0.0398304 0.0319329 0.549211 
-0.029362 0.0368425 0.532285 -0.0187467 0.0414431 0.51412 -0.00805847 0.0456952 0.494734 
0.00263421 0.0495677 0.474198 0.0132704 0.0530368 0.452629 0.0237988 0.0560833 0.430175 
0.0341786 0.0586912 0.407001 0.0443793 0.0608461 0.383269 0.054379 0.0625348 0.359118 
0.0641611 0.0637453 0.334653 0.0737098 0.0644682 0.309938 0.0830048 0.0646987 0.284991 
0.0920151 0.0644392 0.259789 0.100694 0.0637018 0.234288 0.108975 0.0625114 0.208431 
0.116769 0.0609067 0.182171 0.123966 0.0589415 0.155489 0.130437 0.0566838 0.12841 
0.136042 0.0542132 0.101007 0.140638 0.0516176 0.0734117 0.144088 0.0489882 0.0458007 
0.146277 0.0464136 0.0183872 0.14712 0.0439745 -0.00859931 0.146572 0.0417377 -0.0349344 
0.144636 0.039752 -0.0604211 0.141365 0.0380453 -0.0849097 0.136861 0.0366235 -0.108312 
0.131269 0.0354718 -0.130611 0.12477 0.0345573 -0.151855 0.117564 0.0338341 -0.172156 
0.109858 0.0332487 -0.191667 0.10185 0.032747 -0.210568 0.093716 0.0322799 -0.229038 
0.085596 0.0318092 -0.247237 0.0775891 0.0313113 -0.265284 0.0697487 0.03078 -0.283251 
0.0620843 0.030226 -0.30115 0.0545672 0.0296759 -0.318943 0.0471404 0.0291687 -0.336549 
0.0397308 0.0287509 -0.353856 0.0322618 0.0284714 -0.370747 0.0246663 0.0283765 -0.387113 
0.0168972 0.0285046 -0.402869 0.00893461 0.028883 -0.41797 0.000789917 0.0295253 -0.432415 
-0.00749509 0.0304306 -0.446242 -0.0158524 0.0315844 -0.459526 -0.0241952 0.0329605 -0.472361 
-0.0324278 0.034524 -0.484847 -0.0404551 0.036234 -0.497072 -0.0481931 0.0380475 -0.509098 
-0.0555765 0.0399218 -0.520949 -0.0625634 0.0418163 -0.532609 -0.0691382 0.043694 -0.544023 
-0.0753093 0.0455212 -0.555105 -0.0811053 0.0472672 -0.56575 -0.0865683 0.0489032 -0.575855 
-0.0917461 0.0504013 -0.58533 -0.0966844 0.0517339 -0.594119 -0.10142 0.0528729 -0.602203 
-0.105975 0.0537915 -0.609612 -0.110355 0.0544649 -0.616419 -0.11455 0.0548729 -0.622728 
-0.118533 0.0550029 -0.628663 -0.12227 0.0548527 -0.63435 -0.12572 0.0544332 -0.639892 
-0.128848 0.05377 -0.645359 -0.131621 0.052904 -0.65077 -0.13402 0.0518908 -0.656085 
-0.13604 0.0507976 -0.661211 -0.137685 0.0496997 -0.666007 -0.138974 0.0486753 -0.670301 
-0.139929 0.0477992 -0.673907 -0.140577 0.0471377 -0.67665 -0.14094 0.0467423 -0.678387 
-0.141034 0.0466456 -0.679022 
LINES 2 100
OFFSETS vtktypeint64
0 100 
CONNECTIVITY vtktypeint64
0 1 2 3 4 5 6 7 8 
9 10 11 12 13 14 15 16 17 
18 19 20 21 22 23 24 25 26 
27 28 29 30 31 32 33 34 35 
36 37 38 39 40 41 42 43 44 
45 46 47 48 49 50 51 52 53 
54 55 56 57 58 59 60 61 62 
63 64 65 66 67 68 69 70 71 
72 73 74 75 76 77 78 79 80 
81 82 83 84 85 86 87 88 89 
90 91 92 93 94 95 96 97 98 
99 
POINT_DATA 100
FIELD FieldData 3
_theta 1 100 double
0 0.031733259127 0.063466518254 0.095199777382 0.12693303651 0.15866629564 0.19039955476 0.22213281389 0.25386607302 
0.28559933214 0.31733259127 0.3490658504 0.38079910953 0.41253236865 0.44426562778 0.47599888691 0.50773214603 0.53946540516 
0.57119866429 0.60293192342 0.63466518254 0.66639844167 0.6981317008 0.72986495992 0.76159821905 0.79333147818 0.82506473731 
0.85679799643 0.88853125556 0.92026451469 0.95199777382 0.98373103294 1.0154642921 1.0471975512 1.0789308103 1.1106640695 
1.1423973286 1.1741305877 1.2058638468 1.237597106 1.2693303651 1.3010636242 1.3327968833 1.3645301425 1.3962634016 
1.4279966607 1.4597299198 1.491463179 1.5231964381 1.5549296972 1.5866629564 1.6183962155 1.6501294746 1.6818627337 
1.7135959929 1.745329252 1.7770625111 1.8087957702 1.8405290294 1.8722622885 1.9039955476 1.9357288068 1.9674620659 
1.999195325 2.0309285841 2.0626618433 2.0943951024 2.1261283615 2.1578616206 2.1895948798 2.2213281389 2.253061398 
2.2847946572 2.3165279163 2.3482611754 2.3799944345 2.4117276937 2.4434609528 2.4751942119 2.506927471 2.5386607302 
2.5703939893 2.6021272484 2.6338605076 2.6655937667 2.6973270258 2.7290602849 2.7607935441 2.7925268032 2.8242600623 
2.8559933214 2.8877265806 2.9194598397 2.9511930988 2.982926358 3.0146596171 3.0463928762 3.0781261353 3.1098593945 
3.1415926536 
_radius 1 100 double
4.9104625957e-16 0.016593388253 0.033078072477 0.04934200204 0.065273806958 0.080763710576 0.095704658875 0.10999329141 0.12353035955 
0.13622042223 0.14797104583 0.15869214919 0.16829640148 0.1767015793 0.18383547492 0.18964336134 0.19409729303 0.19720584767 
0.19902249092 0.19965070213 0.19924435488 0.19800251098 0.1961586077 0.19396482768 0.19167311039 0.18951473161 0.18768064648 
0.18630489411 0.18545329058 0.1851193019 0.18522825809 0.18564991263 0.18621800797 0.18675444593 0.18709521382 0.18711518915 
0.18674885139 0.18600372133 0.18496360832 0.18378009631 0.18265329185 0.18180608923 0.18145837138 0.18180651826 0.18300937467 
0.18517793958 0.18836591505 0.19256128849 0.19768188451 0.20357796251 0.21004285017 0.21683025958 0.22367578089 0.23031998938 
0.23653072947 0.24212207299 0.2469675917 0.25100633037 0.25424107912 0.2567297579 0.25857156865 0.25988994192 0.26081433904 
0.26146289139 0.26192780954 0.26226539783 0.26249209228 0.26258696926 0.26249978704 0.26216239652 0.26150092274 0.26044658949 
0.25894385822 0.25695502116 0.25446058347 0.25145529803 0.24794075261 0.24391638389 0.23937111716 0.2342774652 0.22858922442 
0.2222432253 0.21516504347 0.20727809134 0.19851500377 0.1888297333 0.17820843001 0.16667716799 0.1543049703 0.14120132103 
0.12750826723 0.11338809627 0.099008236734 0.084525375132 0.070070816859 0.0557389286 0.041580152376 0.027599603122 0.01376163659 
9.8394751105e-16 
_area 1 100 double
0 0.00056944550476 0.0022787581595 0.0051248335051 0.0090850164949 0.01409877488 0.020053941757 0.026782799591 0.034069515871 
0.041666601127 0.049315343118 0.056764434817 0.063782577168 0.070164057105 0.075729637717 0.080327002744 0.08383478776 0.086172138027 
0.087312539899 0.087297582641 0.086244801547 0.084344836275 0.081846399401 0.07903141999 0.076186108404 0.073575796738 0.071428637203 
0.069924181101 0.069178403098 0.069224325486 0.069997314091 0.071337526031 0.073014871803 0.074770212672 0.076362771941 0.077618397376 
0.078474946188 0.079010945401 0.07943303581 0.080018525914 0.081060019893 0.082819181473 0.085423756016 0.088729947441 0.092470684808 
0.096475471363 0.10071876025 0.10529960019 0.1103924315 0.11617392095 0.1227472844 0.13009183838 0.13804834857 0.14633401202 
0.15457967261 0.16238414431 0.16937626421 0.17526994531 0.17989866099 0.18322336174 0.18531682592 0.18633344035 0.1864746834 
0.18595723318 0.18498361152 0.18371031069 0.18221773874 0.18050293947 0.17850516799 0.17614563303 0.17335759198 0.17009781733 
0.16634720106 0.16211311327 0.157429426 0.15234032207 0.14687188057 0.14101344354 0.13472753319 0.12798258431 0.12078117137 
0.11316615383 0.10520709366 0.096979055923 0.088547114909 0.079965493937 0.0712908036 0.062599510401 0.053998081686 0.045620617786 
0.037616524974 0.030134506241 0.023308459099 0.017248224493 0.012035843265 0.0077267389923 0.0043545232228 0.0019374857248 0.00048465091165 
2.5135042151e-17 
