# vtk DataFile Version 5.1
vtk output
ASCII
DATASET POLYDATA
POINTS 100 float
-0.160852 -0.0417337 0.738937 -0.160654 -0.0416576 0.738741 -0.16005 -0.0412235 0.738089 
-0.159081 -0.040428 0.73694 -0.157806 -0.0392675 0.735232 -0.156291 -0.0377373 0.732894 
-0.154594 -0.0358314 0.729855 -0.152752 -0.0335416 0.726059 -0.150765 -0.030858 0.72147 
-0.148592 -0.0277697 0.716079 -0.146145 -0.0242669 0.709907 -0.143293 -0.0203435 0.703 
-0.139873 -0.0160006 0.695421 -0.135702 -0.0112502 0.687239 -0.130602 -0.0061186 0.678516 
-0.124413 -0.000649045 0.669292 -0.117019 0.00509678 0.659575 -0.108362 0.0110391 0.649334 
-0.0984518 0.0170821 0.638498 -0.0873732 0.0231179 0.626956 -0.0752797 0.0290322 0.614569 
-0.0623837 0.0347109 0.601183 -0.0489384 0.0400469 0.586646 -0.0352162 0.0449472 0.570824 
-0.0214841 0.0493384 0.553616 -0.00798104 0.0531706 0.534972 0.00510283 0.0564193 0.514895 
0.0176398 0.0590844 0.493443 0.0295718 0.0611875 0.470727 0.0409088 0.0627665 0.446899 
0.0517194 0.0638694 0.422135 0.0621146 0.0645472 0.39662 0.072226 0.0648473 0.370534 
0.082182 0.0648075 0.344029 0.0920837 0.0644528 0.317226 0.101985 0.0637936 0.290204 
0.111875 0.0628266 0.263005 0.121673 0.0615384 0.235636 0.131228 0.0599103 0.208084 
0.140326 0.057925 0.180328 0.148709 0.0555733 0.152355 0.156093 0.0528602 0.124174 
0.162197 0.0498094 0.0958262 0.166769 0.0464665 0.0673931 0.169606 0.0428987 0.0389942 
0.17058 0.0391925 0.010783 0.169643 0.0354491 -0.0170639 0.16684 0.0317774 -0.0443614 
0.1623 0.0282863 -0.070932 0.156227 0.0250767 -0.0966219 0.148883 0.0222338 -0.121315 
0.140568 0.019821 -0.144941 0.13159 0.0178759 -0.167482 0.122248 0.0164089 -0.188971 
0.112806 0.0154035 -0.209483 0.103479 0.0148205 -0.229128 0.0944204 0.014602 -0.248031 
0.0857174 0.0146789 -0.266324 0.0773943 0.0149772 -0.284129 0.0694201 0.0154248 -0.301547 
0.0617211 0.0159574 -0.318652 0.0541967 0.0165232 -0.335487 0.0467359 0.0170852 -0.352067 
0.0392336 0.0176227 -0.368387 0.0316042 0.0181303 -0.384425 0.0237917 0.0186164 -0.400158 
0.0157756 0.0191001 -0.415568 0.00757199 0.019608 -0.430648 -0.000769494 0.0201707 -0.445409 
-0.00917202 0.0208203 -0.459875 -0.0175408 0.0215874 -0.474085 -0.0257735 0.0224998 -0.488083 
-0.0337704 0.0235805 -0.501908 -0.0414437 0.0248478 -0.51559 -0.0487248 0.026314 -0.529134 
-0.0555686 0.027985 -0.542522 -0.0619554 0.0298598 -0.555707 -0.0678895 0.0319295 -0.568614 
-0.0733956 0.0341765 -0.58115 -0.0785136 0.0365736 -0.59321 -0.0832922 0.0390835 -0.604688 
-0.0877826 0.0416586 -0.61549 -0.0920322 0.0442421 -0.625547 -0.0960801 0.0467701 -0.634817 
-0.0999537 0.0491742 -0.643293 -0.103668 0.051386 -0.651004 -0.107223 0.0533415 -0.658005 
-0.110611 0.0549867 -0.664375 -0.113814 0.0562825 -0.670198 -0.116807 0.0572085 -0.675559 
-0.119568 0.0577665 -0.680526 -0.122073 0.0579813 -0.685143 -0.124302 0.0578996 -0.689422 
-0.12624 0.0575871 -0.693347 -0.12788 0.0571232 -0.696872 -0.129217 0.0565942 -0.699927 
-0.130251 0.0560859 -0.702435 -0.130985 0.0556757 -0.704317 -0.131421 0.0554248 -0.705506 
-0.131562 0.0553733 -0.705958 
LINES 2 100
OFFSETS vtktypeint64
0 100 
CONNECTIVITY vtktypeint64
0 1 2 3 4 5 6 7 8 
9 10 11 12 13 14 15 16 17 
18 19 20 21 22 23 24 25 26 
27 28 29 30 31 32 33 34 35 
36 37 38 39 40 41 42 43 44 
45 46 47 48 49 50 51 52 53 
54 55 56 57 58 59 60 61 62 
63 64 65 66 67 68 69 70 71 
72 73 74 75 76 77 78 79 80 
81 82 83 84 85 86 87 88 89 
90 91 92 93 94 95 96 97 98 
99 
POINT_DATA 100
FIELD FieldData 3
_theta 1 100 double
0 0.031733259127 0.063466518254 0.095199777382 0.12693303651 0.15866629564 0.19039955476 0.22213281389 0.25386607302 
0.28559933214 0.31733259127 0.3490658504 0.38079910953 0.41253236865 0.44426562778 0.47599888691 0.50773214603 0.53946540516 
0.57119866429 0.60293192342 0.63466518254 0.66639844167 0.6981317008 0.72986495992 0.76159821905 0.79333147818 0.82506473731 
0.85679799643 0.88853125556 0.92026451469 0.95199777382 0.98373103294 1.0154642921 1.0471975512 1.0789308103 1.1106640695 
1.1423973286 1.1741305877 1.2058638468 1.237597106 1.2693303651 1.3010636242 1.3327968833 1.3645301425 1.3962634016 
1.4279966607 1.4597299198 1.491463179 1.5231964381 1.5549296972 1.5866629564 1.6183962155 1.6501294746 1.6818627337 
1.7135959929 1.745329252 1.7770625111 1.8087957702 1.8405290294 1.8722622885 1.9039955476 1.9357288068 1.9674620659 
1.999195325 2.0309285841 2.0626618433 2.0943951024 2.1261283615 2.1578616206 2.1895948798 2.2213281389 2.253061398 
2.2847946572 2.3165279163 2.3482611754 2.3799944345 2.4117276937 2.4434609528 2.4751942119 2.506927471 2.5386607302 
2.5703939893 2.6021272484 2.6338605076 2.6655937667 2.6973270258 2.7290602849 2.7607935441 2.7925268032 2.8242600623 
2.8559933214 2.8877265806 2.9194598397 2.9511930988 2.982926358 3.0146596171 3.0463928762 3.0781261353 3.1098593945 
3.1415926536 
_radius 1 100 double
3.4134844607e-16 0.017359494292 0.034473786688 0.051112058793 0.067084273151 0.082253708859 0.096541079516 0.10991971358 0.12240293944 
0.1340263693 0.14482877532 0.15483529402 0.16404569856 0.17242889529 0.17992344093 0.18644333271 0.19188848285 0.19615943896 
0.19917543226 0.2008937855 0.20132772172 0.20055925718 0.19874427425 0.19610786995 0.19292942346 0.18951837255 0.186183385 
0.18319933658 0.18077777696 0.17904644993 0.17804128958 0.17771096459 0.17793159998 0.17852896411 0.17930605657 0.18007386948 
0.18068183319 0.181043215 0.18115054691 0.18107737383 0.18096543241 0.18100080847 0.18138703118 0.18232350191 0.18399202258 
0.18654689739 0.19010182797 0.19471078806 0.20034641414 0.20688420619 0.21410142207 0.22169511492 0.22931657463 0.23661397609 
0.24327392924 0.24905481394 0.25380788574 0.25748479911 0.2601321926 0.26187545637 0.2628948327 0.26339756117 0.26358984218 
0.26365198073 0.26371930167 0.26387047346 0.26412390474 0.26444194662 0.26474172323 0.26491057533 0.26482352947 0.26436006873 
0.26341777621 0.26192105233 0.25982398043 0.25710741783 0.25377135694 0.24982436238 0.24527232395 0.24010881619 0.23430901922 
0.22782847221 0.22060699809 0.21257712875 0.20367550717 0.19385525991 0.18309729922 0.17141882241 0.15887771941 0.14557204693 
0.13163423019 0.11722033355 0.10249558207 0.087618100719 0.072723294986 0.057911271931 0.043239211058 0.028719779502 0.014325739206 
9.1961635552e-16 
_area 1 100 double
0 0.00075721835411 0.0029668941585 0.0064568241012 0.010981502534 0.016270719556 0.022074860739 0.028193715797 0.034482379402 
0.040837020524 0.047170621299 0.053390674896 0.059386979529 0.065031113291 0.070183870537 0.074705236475 0.078463396065 0.081343116213 
0.083256912114 0.084162117032 0.084082616864 0.083125792406 0.081471465425 0.079319017025 0.076856373752 0.074287606165 0.071840123427 
0.06972369549 0.068173861937 0.067243113421 0.066952187174 0.067298893568 0.06827803132 0.069679063456 0.071360920024 0.073187651626 
0.075036736029 0.076852323202 0.07871039878 0.080797185299 0.083159144633 0.08562862567 0.088086186958 0.090534547446 0.093068584324 
0.095849977862 0.099086964558 0.10300446601 0.10779670939 0.11357051975 0.12030137927 0.12781977163 0.13582750134 0.14393694591 
0.15174582843 0.15915486744 0.1663632007 0.17284744247 0.17814959188 0.18223858592 0.18508339669 0.18672305435 0.18734430563 
0.18713875778 0.18618236783 0.1845315492 0.18228835644 0.1795802068 0.17655497603 0.17336412543 0.17014547248 0.16698019141 
0.16383667659 0.160580064 0.1570367823 0.15306139752 0.14856758656 0.14352931401 0.13796590754 0.13192046014 0.12543901742 
0.11855587659 0.11128760746 0.10363628115 0.095600818062 0.087193376915 0.078455629587 0.069469771195 0.060361968106 0.051298694515 
0.042476473799 0.034105121072 0.026386647989 0.019494905857 0.013561486332 0.00867102021 0.0048657493299 0.0021567594745 0.00053810040844 
3.6537192973e-17 
