# vtk DataFile Version 5.1
vtk output
ASCII
DATASET POLYDATA
POINTS 100 float
-0.0791846 0.0132603 0.636206 -0.0789027 0.0129273 0.63583 -0.0781339 0.0121259 0.634809 
-0.0768661 0.0109523 0.633146 -0.0750797 0.00955485 0.630845 -0.0727509 0.0081189 0.62791 
-0.0698547 0.00684678 0.62434 -0.0663689 0.00593709 0.62013 -0.062278 0.00556445 0.615271 
-0.0575763 0.00586242 0.609744 -0.0522708 0.0069111 0.603525 -0.046383 0.00873078 0.596583 
-0.0399495 0.0112819 0.588884 -0.0330207 0.0144714 0.580388 -0.0256599 0.0181634 0.57106 
-0.0179392 0.0221944 0.560869 -0.00993639 0.0263894 0.549794 -0.00173055 0.0305781 0.537826 
0.00660264 0.0346081 0.524972 0.014995 0.0383562 0.511257 0.0233894 0.0417336 0.496723 
0.0317425 0.0446876 0.481428 0.0400263 0.0471985 0.465444 0.048228 0.0492732 0.448847 
0.0563492 0.050937 0.431715 0.064403 0.0522245 0.414119 0.0724102 0.0531709 0.396117 
0.0803947 0.0538057 0.377747 0.088378 0.054149 0.35902 0.0963736 0.0542104 0.339925 
0.104382 0.053991 0.320422 0.112384 0.0534878 0.30045 0.12034 0.0526986 0.279936 
0.128186 0.0516279 0.258799 0.135831 0.0502916 0.236966 0.143163 0.0487201 0.214381 
0.150047 0.0469586 0.19102 0.156333 0.0450655 0.166897 0.161861 0.0431085 0.142071 
0.166471 0.0411584 0.116651 0.170009 0.0392835 0.0907919 0.172338 0.0375425 0.0646895 
0.173347 0.0359797 0.0385687 0.172955 0.0346223 0.0126703 0.171121 0.033479 -0.0127654 
0.167844 0.0325422 -0.0375154 0.163167 0.0317916 -0.0613895 0.157176 0.0312 -0.0842432 
0.149993 0.0307388 -0.105987 0.14177 0.0303845 -0.126591 0.132682 0.0301225 -0.146082 
0.122918 0.0299503 -0.164539 0.112666 0.029877 -0.182081 0.102106 0.0299218 -0.198852 
0.091401 0.030109 -0.215005 0.080686 0.0304626 -0.230687 0.0700654 0.031 -0.246024 
0.0596086 0.0317265 -0.261106 0.0493507 0.0326312 -0.275985 0.0392948 0.0336851 -0.29067 
0.0294174 0.034842 -0.305132 0.0196755 0.0360421 -0.319311 0.0100146 0.0372179 -0.333127 
0.000377608 0.0383015 -0.346496 -0.00928699 0.0392327 -0.359341 -0.0190178 0.0399666 -0.371608 
-0.0288353 0.0404787 -0.383276 -0.0387379 0.0407685 -0.394361 -0.0487016 0.0408596 -0.404918 
-0.0586803 0.040796 -0.415039 -0.0686098 0.0406367 -0.424842 -0.0784116 0.0404473 -0.434462 
-0.0879995 0.0402911 -0.444036 -0.097285 0.0402202 -0.453687 -0.106184 0.0402681 -0.463511 
-0.114619 0.0404448 -0.473565 -0.12253 0.0407354 -0.483861 -0.129869 0.0411015 -0.494363 
-0.136604 0.0414866 -0.504985 -0.142723 0.0418235 -0.515601 -0.148225 0.0420438 -0.526054 
-0.153124 0.0420872 -0.536169 -0.157442 0.0419103 -0.545766 -0.161209 0.0414924 -0.554676 
-0.164459 0.0408395 -0.562751 -0.16723 0.0399837 -0.569879 -0.169558 0.0389796 -0.575987 
-0.171481 0.0378975 -0.581049 -0.173037 0.0368151 -0.58508 -0.174264 0.0358076 -0.58814 
-0.1752 0.0349388 -0.59032 -0.175884 0.0342537 -0.59174 -0.176356 0.0337742 -0.592539 
-0.176656 0.0334973 -0.592863 -0.176823 0.0333977 -0.592855 -0.176896 0.0334326 -0.592654 
-0.176907 0.0335498 -0.592378 -0.176885 0.0336959 -0.592127 -0.176852 0.0338252 -0.591975 
-0.176821 0.033907 -0.591967 
LINES 2 100
OFFSETS vtktypeint64
0 100 
CONNECTIVITY vtktypeint64
0 1 2 3 4 5 6 7 8 
9 10 11 12 13 14 15 16 17 
18 19 20 21 22 23 24 25 26 
27 28 29 30 31 32 33 34 35 
36 37 38 39 40 41 42 43 44 
45 46 47 48 49 50 51 52 53 
54 55 56 57 58 59 60 61 62 
63 64 65 66 67 68 69 70 71 
72 73 74 75 76 77 78 79 80 
81 82 83 84 85 86 87 88 89 
90 91 92 93 94 95 96 97 98 
99 
POINT_DATA 100
FIELD FieldData 3
_theta 1 100 double
0 0.031733259127 0.063466518254 0.095199777382 0.12693303651 0.15866629564 0.19039955476 0.22213281389 0.25386607302 
0.28559933214 0.31733259127 0.3490658504 0.38079910953 0.41253236865 0.44426562778 0.47599888691 0.50773214603 0.53946540516 
0.57119866429 0.60293192342 0.63466518254 0.66639844167 0.6981317008 0.72986495992 0.76159821905 0.79333147818 0.82506473731 
0.85679799643 0.88853125556 0.92026451469 0.95199777382 0.98373103294 1.0154642921 1.0471975512 1.0789308103 1.1106640695 
1.1423973286 1.1741305877 1.2058638468 1.237597106 1.2693303651 1.3010636242 1.3327968833 1.3645301425 1.3962634016 
1.4279966607 1.4597299198 1.491463179 1.5231964381 1.5549296972 1.5866629564 1.6183962155 1.6501294746 1.6818627337 
1.7135959929 1.745329252 1.7770625111 1.8087957702 1.8405290294 1.8722622885 1.9039955476 1.9357288068 1.9674620659 
1.999195325 2.0309285841 2.0626618433 2.0943951024 2.1261283615 2.1578616206 2.1895948798 2.2213281389 2.253061398 
2.2847946572 2.3165279163 2.3482611754 2.3799944345 2.4117276937 2.4434609528 2.4751942119 2.506927471 2.5386607302 
2.5703939893 2.6021272484 2.6338605076 2.6655937667 2.6973270258 2.7290602849 2.7607935441 2.7925268032 2.8242600623 
2.8559933214 2.8877265806 2.9194598397 2.9511930988 2.982926358 3.0146596171 3.0463928762 3.0781261353 3.1098593945 
3.1415926536 
_radius 1 100 double
7.8573782336e-16 0.014832048515 0.029371724187 0.043347649681 0.056531284311 0.068750509383 0.079895415863 0.089916230472 0.098814899378 
0.10663306569 0.11343958923 0.11932011383 0.12436968614 0.12868776743 0.13237402306 0.13552353451 0.13822136731 0.14053792793 
0.14252724452 0.14422961036 0.14567817566 0.14690702704 0.1479571487 0.14887705368 0.14971672633 0.1505160814 0.15129144258 
0.1520249267 0.15266176558 0.15311887408 0.1533037549 0.15313735328 0.15257134711 0.15159313593 0.1502207218 0.14849798474 
0.1464983629 0.14433406858 0.14216202248 0.14018000063 0.13861101075 0.13767766479 0.13757189309 0.13842811273 0.14030712805 
0.14319272781 0.14699716007 0.1515702855 0.15671034205 0.16217774919 0.16771378348 0.17306360859 0.17800063452 0.18234822777 
0.18599537968 0.18890428413 0.19110918455 0.19270695679 0.19384062495 0.19467749549 0.19538408128 0.19610066345 0.19691913631 
0.19786821253 0.19890941549 0.19994522622 0.20083787921 0.20143481279 0.20159557998 0.20121524391 0.2002404693 0.19867611309 
0.19658181133 0.19405984076 0.19123720822 0.18824573128 0.18520322214 0.18219736452 0.1792727411 0.17642126614 0.17357671186 
0.17061466394 0.16735968252 0.16360107272 0.15911698853 0.15370390494 0.14720607781 0.13953887994 0.13070126795 0.1207753083 
0.10991349195 0.098316724149 0.086207173055 0.073800624785 0.061282652262 0.048791818959 0.036411542972 0.024170574216 0.012050744841 
8.4865461164e-16 
_area 1 100 double
0 0.00053738491627 0.0021136162787 0.0046268725127 0.0079250790726 0.011825822703 0.016134528225 0.020656900633 0.02520520343 
0.029601648137 0.033684055617 0.03731723412 0.040408931071 0.042925005963 0.044896981216 0.046416348381 0.047613129545 0.048620828017 
0.049537133357 0.050401951665 0.051223138271 0.052056674232 0.053038356333 0.054235060951 0.055623591573 0.057164971124 0.058803306415 
0.060451099385 0.061984727776 0.063258378185 0.064140020822 0.064551391482 0.064482714768 0.06395900932 0.063062712076 0.061791876018 
0.060387274999 0.058887352114 0.057587846199 0.05682843778 0.056684126872 0.057132776298 0.05814752804 0.059719323012 0.061879279318 
0.064681911435 0.068179001795 0.072381571321 0.077229849614 0.082579134056 0.088193495045 0.09376979851 0.098992762077 0.10358707889 
0.10734976412 0.11016603123 0.11201382769 0.11296053703 0.1131578201 0.11286873487 0.11252909595 0.11228723307 0.11235445108 
0.11260777078 0.11289492453 0.11304394864 0.11288900353 0.1122927647 0.11116266338 0.10946164809 0.10721577912 0.10451566331 
0.10150557163 0.098356980367 0.095230921701 0.092241122844 0.089432409085 0.086782264593 0.0842200043 0.081649413258 0.078964326439 
0.07605584368 0.07281596072 0.069143468448 0.064955563595 0.060204508192 0.054894853953 0.049095003405 0.042938038821 0.036610071249 
0.030328013945 0.024311518155 0.018755701973 0.013811589049 0.0095787288616 0.0061098148725 0.003422924039 0.0015157685936 0.00037800071626 
7.0429554941e-17 
