# vtk DataFile Version 5.1
vtk output
ASCII
DATASET POLYDATA
POINTS 100 float
-0.134858 -0.0540053 0.662285 -0.134967 -0.0539901 0.662378 -0.135332 -0.0537865 0.6626 
-0.135897 -0.0533742 0.662841 -0.136576 -0.0527214 0.662932 -0.137258 -0.0517875 0.662664 
-0.137813 -0.0505264 0.661814 -0.138108 -0.04889 0.660171 -0.138013 -0.0468321 0.657557 
-0.137406 -0.044312 0.653846 -0.136185 -0.0412978 0.64898 -0.134265 -0.0377684 0.642969 
-0.131587 -0.0337156 0.635886 -0.128107 -0.0291447 0.627858 -0.123804 -0.0240752 0.619041 
-0.118668 -0.01854 0.609606 -0.112704 -0.0125849 0.59971 -0.105924 -0.00626774 0.589478 
-0.0983514 0.000342916 0.578991 -0.0900151 0.00716871 0.568271 -0.0809555 0.0141228 0.557286 
-0.0712247 0.021111 0.545954 -0.0608889 0.0280334 0.534157 -0.0500296 0.0347862 0.521756 
-0.0387438 0.0412638 0.508613 -0.0271421 0.0473622 0.494608 -0.0153449 0.0529816 0.479657 
-0.00347599 0.0580312 0.463718 0.00834389 0.0624325 0.446799 0.0200053 0.0661242 0.428952 
0.0314169 0.0690658 0.410269 0.0425113 0.0712404 0.390863 0.0532474 0.0726568 0.370857 
0.06361 0.07335 0.350365 0.0736057 0.0733796 0.329479 0.0832549 0.0728268 0.308257 
0.092582 0.0717898 0.286723 0.101603 0.0703773 0.264866 0.110314 0.0687014 0.242644 
0.118681 0.0668704 0.220002 0.126634 0.0649811 0.196884 0.134063 0.0631131 0.173247 
0.140822 0.0613234 0.149078 0.146737 0.0596444 0.124405 0.151619 0.0580832 0.0992993 
0.155281 0.0566233 0.0738789 0.157553 0.0552294 0.048301 0.158306 0.0538526 0.0227505 
0.157462 0.0524381 -0.0025745 0.155009 0.0509325 -0.0274804 0.151004 0.0492909 -0.0517942 
0.145571 0.0474834 -0.0753781 0.138897 0.0454995 -0.0981399 0.131212 0.0433503 -0.120038 
0.122774 0.0410688 -0.14108 0.11385 0.0387074 -0.161318 0.104687 0.0363334 -0.180836 
0.0955003 0.0340233 -0.199739 0.0864551 0.0318555 -0.218136 0.0776572 0.0299034 -0.236126 
0.0691515 0.0282289 -0.253788 0.0609261 0.0268768 -0.271175 0.0529227 0.0258715 -0.288305 
0.0450515 0.0252155 -0.305171 0.0372089 0.02489 -0.32174 0.0292955 0.0248579 -0.337965 
0.0212318 0.0250684 -0.353796 0.0129707 0.0254625 -0.369188 0.00450472 0.0259793 -0.384114 
-0.00413252 0.0265623 -0.398564 -0.0128706 0.0271644 -0.412557 -0.0216111 0.0277519 -0.42613 
-0.03024 0.0283067 -0.439338 -0.0386415 0.0288264 -0.452246 -0.0467113 0.0293231 -0.464917 
-0.054368 0.0298195 -0.477403 -0.0615607 0.0303452 -0.489735 -0.068272 0.0309307 -0.501919 
-0.0745164 0.0316031 -0.513929 -0.080335 0.032381 -0.52571 -0.0857856 0.0332711 -0.537181 
-0.0909327 0.034266 -0.548239 -0.0958362 0.0353441 -0.558772 -0.100542 0.0364708 -0.568669 
-0.105075 0.0376017 -0.577826 -0.109438 0.0386866 -0.586158 -0.113607 0.0396743 -0.593606 
-0.117543 0.0405184 -0.600142 -0.121195 0.0411818 -0.605766 -0.124509 0.0416405 -0.610508 
-0.127437 0.0418869 -0.614425 -0.129947 0.0419305 -0.617593 -0.132026 0.0417971 -0.620099 
-0.133685 0.041527 -0.622038 -0.134952 0.0411707 -0.623504 -0.135874 0.0407843 -0.624585 
-0.136507 0.040424 -0.625357 -0.136905 0.0401406 -0.625882 -0.137117 0.0399747 -0.626204 
-0.137173 0.0399524 -0.626351 
LINES 2 100
OFFSETS vtktypeint64
0 100 
CONNECTIVITY vtktypeint64
0 1 2 3 4 5 6 7 8 
9 10 11 12 13 14 15 16 17 
18 19 20 21 22 23 24 25 26 
27 28 29 30 31 32 33 34 35 
36 37 38 39 40 41 42 43 44 
45 46 47 48 49 50 51 52 53 
54 55 56 57 58 59 60 61 62 
63 64 65 66 67 68 69 70 71 
72 73 74 75 76 77 78 79 80 
81 82 83 84 85 86 87 88 89 
90 91 92 93 94 95 96 97 98 
99 
POINT_DATA 100
FIELD FieldData 3
_theta 1 100 double
0 0.031733259127 0.063466518254 0.095199777382 0.12693303651 0.15866629564 0.19039955476 0.22213281389 0.25386607302 
0.28559933214 0.31733259127 0.3490658504 0.38079910953 0.41253236865 0.44426562778 0.47599888691 0.50773214603 0.53946540516 
0.57119866429 0.60293192342 0.63466518254 0.66639844167 0.6981317008 0.72986495992 0.76159821905 0.79333147818 0.82506473731 
0.85679799643 0.88853125556 0.92026451469 0.95199777382 0.98373103294 1.0154642921 1.0471975512 1.0789308103 1.1106640695 
1.1423973286 1.1741305877 1.2058638468 1.237597106 1.2693303651 1.3010636242 1.3327968833 1.3645301425 1.3962634016 
1.4279966607 1.4597299198 1.491463179 1.5231964381 1.5549296972 1.5866629564 1.6183962155 1.6501294746 1.6818627337 
1.7135959929 1.745329252 1.7770625111 1.8087957702 1.8405290294 1.8722622885 1.9039955476 1.9357288068 1.9674620659 
1.999195325 2.0309285841 2.0626618433 2.0943951024 2.1261283615 2.1578616206 2.1895948798 2.2213281389 2.253061398 
2.2847946572 2.3165279163 2.3482611754 2.3799944345 2.4117276937 2.4434609528 2.4751942119 2.506927471 2.5386607302 
2.5703939893 2.6021272484 2.6338605076 2.6655937667 2.6973270258 2.7290602849 2.7607935441 2.7925268032 2.8242600623 
2.8559933214 2.8877265806 2.9194598397 2.9511930988 2.982926358 3.0146596171 3.0463928762 3.0781261353 3.1098593945 
3.1415926536 
_radius 1 100 double
4.8967160228e-16 0.01707771957 0.033936845559 0.050362970848 0.066156045981 0.081138654624 0.095164323339 0.10812451097 0.11995270537 
0.13062439172 0.1401524306 0.1485783739 0.15596121738 0.16236581085 0.16785339588 0.17247634762 0.17627815549 0.17929823922 
0.18157984503 0.18317850551 0.18416863326 0.18464660318 0.18472970315 0.18455112052 0.18425150095 0.18396774302 0.18381989482 
0.18389746044 0.18424700112 0.18486333994 0.18568666719 0.18660726257 0.18747843581 0.18813678959 0.18842725628 0.18822889076 
0.18747654842 0.18617379981 0.18439416646 0.18227107742 0.17998050566 0.17772144279 0.17569759928 0.17410163007 0.17310260415 
0.17283725272 0.17340439051 0.17486034329 0.1772131506 0.18041589349 0.18436303593 0.18889457682 0.19380967614 0.19888699569 
0.20390680781 0.20867060151 0.21301581237 0.2168249367 0.22002921297 0.22260744518 0.22458071313 0.22600386879 0.22695489916 
0.22752339033 0.22779937764 0.22786375457 0.22778111072 0.22759540826 0.2273283925 0.22698021578 0.22653156495 0.22594665482 
0.22517668056 0.22416352191 0.22284352314 0.22115106734 0.21902158868 0.21639376334 0.2132108701 0.20942156696 0.20498044619 
0.19984867447 0.19399486837 0.1873961969 0.18003959741 0.17192293568 0.16305590284 0.1534604055 0.14317020181 0.13222962731 
0.12069147029 0.10861433426 0.096060011145 0.08309135183 0.069770873985 0.0561600574 0.042319112285 0.028307006318 0.014181622624 
1.6419341184e-15 
_area 1 100 double
0 0.00057289663086 0.0022882716606 0.0051275740036 0.0090355091099 0.013896965608 0.01952521863 0.02566888616 0.032036800503 
0.038333947003 0.044299709956 0.04974040841 0.054549416321 0.058708788074 0.062266814266 0.065291470503 0.067817032363 0.069816212578 
0.071215041619 0.071937719076 0.071961468848 0.071401273766 0.070620163926 0.069757785505 0.068741375141 0.06777655375 0.067058594464 
0.066780616155 0.06704450067 0.067888453208 0.069277974241 0.071093724701 0.073126247288 0.075122919989 0.076850523339 0.078139467716 
0.07891671815 0.079226054813 0.079216248635 0.079111730719 0.079181517875 0.079634007719 0.080481578285 0.081623410506 0.082976141992 
0.084495592457 0.086355578919 0.088749307774 0.091639834406 0.094978924433 0.098821254293 0.10321143171 0.10811383831 0.1133875133 
0.11881706739 0.12415901939 0.12917437485 0.13365066056 0.13742204401 0.14038827853 0.14252705538 0.14389361321 0.14460475247 
0.14480911044 0.14465025964 0.144233291 0.14360652854 0.14276488132 0.14167147655 0.14028500387 0.13857844781 0.13654222064 
0.13417419269 0.13146541148 0.12839240997 0.12492272721 0.12103038451 0.11671133213 0.11198934853 0.10690848163 0.10151550437 
0.095841413561 0.089892686296 0.083657364273 0.077123173297 0.070299042155 0.063230574255 0.056003960506 0.048738476035 0.041571968002 
0.0346450383 0.028088451036 0.022016309232 0.01652553054 0.011699967961 0.0076157663081 0.0043443863979 0.0019513447884 0.00049105708609 
8.5909017475e-17 
