# vtk DataFile Version 5.1
vtk output
ASCII
DATASET POLYDATA
POINTS 100 float
-0.200718 -0.0236219 0.659862 -0.200184 -0.0236193 0.659697 -0.198689 -0.0234903 0.659244 
-0.196273 -0.0232152 0.658445 -0.192994 -0.0227627 0.657215 -0.188926 -0.0220944 0.655445 
-0.184148 -0.0211688 0.653018 -0.178732 -0.0199471 0.649824 -0.172742 -0.018397 0.645764 
-0.166223 -0.0164966 0.64077 -0.1592 -0.0142364 0.634802 -0.151678 -0.0116201 0.627858 
-0.143648 -0.00866321 0.61997 -0.135092 -0.00539094 0.611196 -0.125992 -0.00183528 0.601618 
-0.116339 0.00196826 0.591323 -0.106142 0.00598347 0.580397 -0.0954335 0.0101752 0.568914 
-0.0842739 0.0145101 0.556924 -0.0727496 0.0189555 0.544449 -0.06097 0.023478 0.531481 
-0.0490595 0.0280399 0.51798 -0.0371481 0.0325966 0.50388 -0.0253592 0.0370938 0.489097 
-0.0137998 0.0414657 0.473536 -0.00255031 0.0456356 0.457104 0.00834123 0.049517 0.439715 
0.0188615 0.0530186 0.421302 0.0290297 0.0560496 0.401823 0.0388912 0.0585271 0.381266 
0.0485069 0.0603835 0.359646 0.0579409 0.0615738 0.337011 0.0672462 0.0620813 0.313434 
0.0764515 0.0619211 0.289009 0.0855502 0.0611405 0.263852 0.0944931 0.0598169 0.238089 
0.103185 0.0580519 0.211855 0.111489 0.0559633 0.185289 0.119231 0.053675 0.158533 
0.126214 0.0513066 0.131725 0.132233 0.048963 0.105002 0.137093 0.0467262 0.0784973 
0.140621 0.0446492 0.0523357 0.142688 0.0427537 0.0266349 0.143215 0.041031 0.00150206 
0.142183 0.0394469 -0.0229691 0.139637 0.0379489 -0.0467008 0.135677 0.0364761 -0.0696335 
0.130456 0.0349692 -0.0917283 0.124164 0.0333811 -0.112967 0.117017 0.0316844 -0.133354 
0.109238 0.0298781 -0.15291 0.101041 0.0279891 -0.171673 0.0926235 0.0260715 -0.189692 
0.0841469 0.0242019 -0.207022 0.0757356 0.022472 -0.223719 0.0674714 0.0209787 -0.239833 
0.0593944 0.0198144 -0.255406 0.0515075 0.0190569 -0.27047 0.0437829 0.0187611 -0.285045 
0.0361713 0.0189532 -0.299143 0.028611 0.0196276 -0.312767 0.0210372 0.0207476 -0.325919 
0.0133907 0.0222489 -0.338604 0.00562425 0.0240455 -0.350834 -0.00229261 0.0260378 -0.362632 
-0.0103708 0.0281214 -0.374035 -0.018601 0.0301954 -0.385093 -0.0269548 0.0321699 -0.395865 
-0.035387 0.0339719 -0.406419 -0.0438387 0.0355483 -0.416819 -0.0522414 0.0368677 -0.427125 
-0.0605211 0.0379183 -0.437379 -0.0686015 0.038706 -0.447603 -0.0764083 0.0392496 -0.457793 
-0.0838724 0.0395768 -0.467917 -0.0909321 0.0397195 -0.477914 -0.097536 0.0397104 -0.487701 
-0.103645 0.0395803 -0.497179 -0.109232 0.0393568 -0.506237 -0.114287 0.0390641 -0.514768 
-0.11881 0.0387236 -0.522675 -0.12282 0.0383555 -0.529879 -0.126344 0.0379792 -0.536329 
-0.129421 0.0376151 -0.542002 -0.1321 0.0372844 -0.546905 -0.134431 0.0370086 -0.551077 
-0.136468 0.0368081 -0.554576 -0.13826 0.0367002 -0.557479 -0.139852 0.0366972 -0.559873 
-0.14128 0.0368038 -0.561844 -0.14257 0.037016 -0.563471 -0.143734 0.0373201 -0.564822 
-0.144777 0.0376934 -0.565951 -0.145692 0.0381057 -0.566893 -0.146467 0.0385223 -0.567669 
-0.147084 0.0389071 -0.568289 -0.147527 0.0392269 -0.568752 -0.14778 0.039455 -0.569057 
-0.147833 0.0395738 -0.569198 
LINES 2 100
OFFSETS vtktypeint64
0 100 
CONNECTIVITY vtktypeint64
0 1 2 3 4 5 6 7 8 
9 10 11 12 13 14 15 16 17 
18 19 20 21 22 23 24 25 26 
27 28 29 30 31 32 33 34 35 
36 37 38 39 40 41 42 43 44 
45 46 47 48 49 50 51 52 53 
54 55 56 57 58 59 60 61 62 
63 64 65 66 67 68 69 70 71 
72 73 74 75 76 77 78 79 80 
81 82 83 84 85 86 87 88 89 
90 91 92 93 94 95 96 97 98 
99 
POINT_DATA 100
FIELD FieldData 3
_theta 1 100 double
0 0.031733259127 0.063466518254 0.095199777382 0.12693303651 0.15866629564 0.19039955476 0.22213281389 0.25386607302 
0.28559933214 0.31733259127 0.3490658504 0.38079910953 0.41253236865 0.44426562778 0.47599888691 0.50773214603 0.53946540516 
0.57119866429 0.60293192342 0.63466518254 0.66639844167 0.6981317008 0.72986495992 0.76159821905 0.79333147818 0.82506473731 
0.85679799643 0.88853125556 0.92026451469 0.95199777382 0.98373103294 1.0154642921 1.0471975512 1.0789308103 1.1106640695 
1.1423973286 1.1741305877 1.2058638468 1.237597106 1.2693303651 1.3010636242 1.3327968833 1.3645301425 1.3962634016 
1.4279966607 1.4597299198 1.491463179 1.5231964381 1.5549296972 1.5866629564 1.6183962155 1.6501294746 1.6818627337 
1.7135959929 1.745329252 1.7770625111 1.8087957702 1.8405290294 1.8722622885 1.9039955476 1.9357288068 1.9674620659 
1.999195325 2.0309285841 2.0626618433 2.0943951024 2.1261283615 2.1578616206 2.1895948798 2.2213281389 2.253061398 
2.2847946572 2.3165279163 2.3482611754 2.3799944345 2.4117276937 2.4434609528 2.4751942119 2.506927471 2.5386607302 
2.5703939893 2.6021272484 2.6338605076 2.6655937667 2.6973270258 2.7290602849 2.7607935441 2.7925268032 2.8242600623 
2.8559933214 2.8877265806 2.9194598397 2.9511930988 2.982926358 3.0146596171 3.0463928762 3.0781261353 3.1098593945 
3.1415926536 
_radius 1 100 double
6.8986181683e-16 0.015579846928 0.030899660632 0.045717927726 0.059826208512 0.073057494474 0.085287896393 0.09643332991 0.10644399453 
0.11529921805 0.12300408267 0.12958793089 0.13510385452 0.13962770407 0.14325504362 0.14609492871 0.14826047226 0.14985766925 
0.15097526658 0.15167877471 0.15201054694 0.15199561358 0.15165086345 0.15099433438 0.15005200767 0.1488609293 0.14746885806 
0.14593150855 0.14430881889 0.14266173161 0.14105078436 0.1395371259 0.13818525286 0.13706532437 0.13625236323 0.13582059201 
0.13583333694 0.13633138471 0.13732403205 0.1387864894 0.14066523727 0.14289048401 0.14539288612 0.14812064757 0.15105300223 
0.15420639857 0.15763024147 0.16139079192 0.16554612711 0.17012054418 0.17508842009 0.18037254194 0.18585471221 0.19139285572 
0.19683930429 0.20205667625 0.20692935625 0.21136996235 0.2153213294 0.21875520851 0.22166897874 0.22408131773 0.22602725869 
0.22755266188 0.22870804758 0.22954199913 0.23009478027 0.23039312752 0.23044712728 0.23024964215 0.22977812573 0.22899815066 
0.22786773811 0.22634160789 0.22437466618 0.22192432748 0.21895158361 0.21542105099 0.21130048019 0.20656031705 0.20117382221 
0.19511802935 0.18837555822 0.18093708234 0.1728040966 0.16399150346 0.15452943418 0.1444636988 0.13385439649 0.12277254649 
0.11129506455 0.099498876137 0.087455263425 0.075225559005 0.062858981499 0.05039283216 0.037854618621 0.025265176743 0.012641718161 
6.7113354346e-16 
_area 1 100 double
0 0.00046663094751 0.0018621100111 0.004168673717 0.0073430730274 0.011301302306 0.015906841068 0.020968430272 0.026250023621 
0.03149143058 0.03643520344 0.040854262178 0.044575359921 0.047494974887 0.04958570448 0.05089227843 0.051517169393 0.051597264889 
0.051275699387 0.050676267882 0.049889962815 0.048980301797 0.048004243909 0.047034583346 0.046166400334 0.045498386464 0.045071361883 
0.044852599856 0.044758483956 0.044728864746 0.044695468912 0.04468179996 0.044836104612 0.045202107508 0.045795591904 0.04664966921 
0.047840400512 0.049457804355 0.051575969911 0.054227923123 0.057391320829 0.060947235315 0.064638111855 0.06817703047 0.07141096392 
0.074372805947 0.077270724969 0.080434046986 0.08419175022 0.088710889776 0.093931853988 0.099653352239 0.10564211007 0.11169086644 
0.11763508265 0.12334778114 0.12872529262 0.13367419513 0.13810609016 0.14194131216 0.14511847368 0.14760564852 0.14940965222 
0.15058029262 0.15120608172 0.15139795324 0.15126079611 0.1508616265 0.15021239923 0.14927868674 0.14800431653 0.1463333886 
0.14422075225 0.14163261503 0.13854281288 0.13492967288 0.1307758724 0.12607105477 0.12081549217 0.11502285408 0.10872072027 
0.10194876587 0.094756109508 0.087200162983 0.079348665338 0.071284535636 0.063110903461 0.054952777325 0.046953023015 0.039262820572 
0.032028975024 0.025381366007 0.01942343138 0.014227433483 0.0098349038878 0.0062614641802 0.003504403956 0.0015511147035 0.00038674012318 
3.92989897e-17 
