# vtk DataFile Version 5.1
vtk output
ASCII
DATASET POLYDATA
POINTS 100 float
-0.230023 -0.0604998 0.641735 -0.230192 -0.0605729 0.642359 -0.230434 -0.0606976 0.644109 
-0.23059 -0.0608386 0.646793 -0.230415 -0.0609416 0.650116 -0.229604 -0.0609377 0.653705 
-0.227825 -0.060749 0.657148 -0.224752 -0.0602944 0.660031 -0.2201 -0.0594956 0.661974 
-0.213657 -0.0582822 0.662661 -0.205302 -0.0565959 0.661866 -0.19502 -0.0543929 0.659459 
-0.182903 -0.0516456 0.655411 -0.169142 -0.0483416 0.649782 -0.15401 -0.0444833 0.642702 
-0.137841 -0.0400853 0.634345 -0.120997 -0.0351721 0.624903 -0.103848 -0.029776 0.614562 
-0.0867395 -0.0239354 0.603474 -0.069977 -0.0176936 0.591749 -0.0538086 -0.0110988 0.579443 
-0.0384178 -0.00420467 0.566561 -0.0239222 0.00292857 0.553068 -0.0103777 0.0102328 0.538897 
0.00221284 0.017631 0.523972 0.0138888 0.0250362 0.508226 0.0247201 0.0323523 0.491609 
0.0347971 0.0394753 0.474107 0.0442211 0.0462959 0.455741 0.0530986 0.0527031 0.436567 
0.0615368 0.0585891 0.41667 0.069641 0.0638542 0.396147 0.077513 0.0684116 0.375099 
0.0852482 0.0721925 0.35361 0.0929331 0.0751495 0.33174 0.100639 0.0772589 0.309514 
0.108417 0.0785216 0.286922 0.116289 0.0789628 0.26392 0.124236 0.0786293 0.240442 
0.1322 0.0775865 0.216411 0.14007 0.075914 0.191757 0.147685 0.0737013 0.166433 
0.154842 0.071043 0.140429 0.1613 0.0680351 0.113781 0.166797 0.0647712 0.0865781 
0.171071 0.0613401 0.0589586 0.17388 0.0578248 0.0311047 0.175024 0.0543013 0.00322823 
0.174361 0.0508384 -0.0244441 0.171828 0.0474988 -0.0516886 0.167447 0.0443384 -0.0783012 
0.161323 0.0414074 -0.104111 0.153642 0.0387493 -0.128991 0.144652 0.0364005 -0.152861 
0.134642 0.0343892 -0.175688 0.123921 0.0327339 -0.197481 0.112787 0.0314421 -0.218279 
0.101506 0.0305086 -0.238143 0.09029 0.0299158 -0.257144 0.0792862 0.0296332 -0.275353 
0.0685682 0.0296189 -0.292831 0.0581419 0.0298222 -0.30963 0.0479551 0.0301861 -0.325789 
0.0379151 0.0306522 -0.341339 0.0279099 0.0311642 -0.356311 0.0178302 0.0316729 -0.370737 
0.00759058 0.0321392 -0.384661 -0.00285408 0.0325378 -0.398141 -0.0134982 0.0328582 -0.411251 
-0.024282 0.0331053 -0.424076 -0.035096 0.0332977 -0.436709 -0.0457913 0.0334652 -0.44924 
-0.056196 0.0336449 -0.461747 -0.0661334 0.0338766 -0.474282 -0.0754414 0.0341977 -0.486866 
-0.0839894 0.034639 -0.499481 -0.0916911 0.0352204 -0.512067 -0.0985117 0.0359483 -0.524524 
-0.104469 0.0368143 -0.536722 -0.109628 0.0377952 -0.548508 -0.114092 0.0388546 -0.559725 
-0.117986 0.0399459 -0.57022 -0.121444 0.041016 -0.579865 -0.124594 0.0420102 -0.588566 
-0.127541 0.0428762 -0.596269 -0.130365 0.0435694 -0.602968 -0.133113 0.0440554 -0.608699 
-0.135797 0.044314 -0.613536 -0.138403 0.0443396 -0.617578 -0.140898 0.0441427 -0.620943 
-0.143237 0.043748 -0.623748 -0.145371 0.0431931 -0.626103 -0.147262 0.0425255 -0.628098 
-0.148882 0.0417992 -0.629799 -0.150217 0.0410709 -0.631249 -0.151269 0.0403964 -0.632464 
-0.15205 0.0398267 -0.633443 -0.152578 0.0394048 -0.634173 -0.152872 0.0391631 -0.63464 
-0.152945 0.0391215 -0.63483 
LINES 2 100
OFFSETS vtktypeint64
0 100 
CONNECTIVITY vtktypeint64
0 1 2 3 4 5 6 7 8 
9 10 11 12 13 14 15 16 17 
18 19 20 21 22 23 24 25 26 
27 28 29 30 31 32 33 34 35 
36 37 38 39 40 41 42 43 44 
45 46 47 48 49 50 51 52 53 
54 55 56 57 58 59 60 61 62 
63 64 65 66 67 68 69 70 71 
72 73 74 75 76 77 78 79 80 
81 82 83 84 85 86 87 88 89 
90 91 92 93 94 95 96 97 98 
99 
POINT_DATA 100
FIELD FieldData 3
_theta 1 100 double
0 0.031733259127 0.063466518254 0.095199777382 0.12693303651 0.15866629564 0.19039955476 0.22213281389 0.25386607302 
0.28559933214 0.31733259127 0.3490658504 0.38079910953 0.41253236865 0.44426562778 0.47599888691 0.50773214603 0.53946540516 
0.57119866429 0.60293192342 0.63466518254 0.66639844167 0.6981317008 0.72986495992 0.76159821905 0.79333147818 0.82506473731 
0.85679799643 0.88853125556 0.92026451469 0.95199777382 0.98373103294 1.0154642921 1.0471975512 1.0789308103 1.1106640695 
1.1423973286 1.1741305877 1.2058638468 1.237597106 1.2693303651 1.3010636242 1.3327968833 1.3645301425 1.3962634016 
1.4279966607 1.4597299198 1.491463179 1.5231964381 1.5549296972 1.5866629564 1.6183962155 1.6501294746 1.6818627337 
1.7135959929 1.745329252 1.7770625111 1.8087957702 1.8405290294 1.8722622885 1.9039955476 1.9357288068 1.9674620659 
1.999195325 2.0309285841 2.0626618433 2.0943951024 2.1261283615 2.1578616206 2.1895948798 2.2213281389 2.253061398 
2.2847946572 2.3165279163 2.3482611754 2.3799944345 2.4117276937 2.4434609528 2.4751942119 2.506927471 2.5386607302 
2.5703939893 2.6021272484 2.6338605076 2.6655937667 2.6973270258 2.7290602849 2.7607935441 2.7925268032 2.8242600623 
2.8559933214 2.8877265806 2.9194598397 2.9511930988 2.982926358 3.0146596171 3.0463928762 3.0781261353 3.1098593945 
3.1415926536 
_radius 1 100 double
8.3500586113e-16 0.02077556907 0.041180104938 0.060869222898 0.07952460161 0.096859128561 0.11262062715 0.12659880644 0.13863661979 
0.14864271327 0.15660003792 0.16256716181 0.1666713426 0.16909448662 0.17005428714 0.16978348279 0.16851158182 0.16645626576 
0.16383121057 0.16086562547 0.15781532397 0.15494633194 0.15249564685 0.15063557564 0.14946165337 0.14900157431 0.14923228383 
0.15009602437 0.1515119245 0.15338341761 0.15560360212 0.15806059636 0.16064312299 0.16324355862 0.16575284054 0.16804660858 
0.16998225631 0.17142873347 0.17230931765 0.17262331379 0.17244252542 0.17189392334 0.17113663225 0.17033776917 0.16965149961 
0.16920596341 0.16910125103 0.16941804039 0.17023209515 0.17162683249 0.17369606016 0.17653124503 0.18019196875 0.18466674536 
0.18984329328 0.19550982666 0.20139098615 0.20719983037 0.21268361268 0.21765204425 0.22198713901 0.22563858973 0.22861013 
0.23094244688 0.23269737135 0.2339462659 0.23476305142 0.23522003155 0.23538369109 0.23530858617 0.23502982075 0.23455692641 
0.23387257752 0.23293780694 0.23170219063 0.2301148503 0.22813168857 0.22571617008 0.22283403419 0.21944501715 0.21549591992 
0.21091891713 0.20563709921 0.19957633642 0.19267959462 0.18491828768 0.17629608665 0.16684337415 0.15660399644 0.14561913605 
0.13391504702 0.1215004258 0.10837453671 0.094541641919 0.080025113188 0.064876533341 0.049178418113 0.033041608414 0.016599356345 
1.4866836821e-15 
_area 1 100 double
0 0.00076108922568 0.0030314336268 0.0067571638498 0.011800739259 0.017892450785 0.024619802082 0.031481292273 0.037987886033 
0.04376880098 0.048639501389 0.052608950498 0.055828307452 0.058504019078 0.060807617047 0.062811443947 0.064470943302 0.065662760297 
0.066262801751 0.066224699666 0.065625254296 0.064673527325 0.063679965893 0.062980406718 0.062834757857 0.063347615501 0.064452254929 
0.065954539685 0.067600758498 0.06914384024 0.070398636288 0.071272038938 0.071735696179 0.071795377638 0.071540516993 0.07115479923 
0.070834121472 0.070733504881 0.070922627116 0.071263992584 0.071701473563 0.072290145216 0.073154293213 0.074408475548 0.076018877243 
0.077789345243 0.079477510923 0.081030132775 0.082400801496 0.083698081156 0.085165486031 0.087087263409 0.08974048567 0.093268541627 
0.097618264254 0.10259424555 0.1079165084 0.11325640856 0.11827851423 0.12268581715 0.12624977985 0.12882431307 0.1303564822 
0.13089419305 0.13058139796 0.12963926346 0.12832494152 0.12683710635 0.12525559015 0.12362345353 0.12200156724 0.12042904387 
0.11889881961 0.11736052023 0.11573634315 0.11393507021 0.11188235324 0.1095466124 0.10692515189 0.10400369214 0.10071896445 
0.096946287311 0.092521556682 0.087293362343 0.081186517237 0.074249657318 0.066665181878 0.058716785205 0.05072641781 0.042982386417 
0.035685250477 0.028935512845 0.022766454011 0.017195676269 0.012262192901 0.0080364557593 0.0046103754808 0.0020793165561 0.00052453862869 
6.1649160452e-17 
