# vtk DataFile Version 5.1
vtk output
ASCII
DATASET POLYDATA
POINTS 100 float
-0.139923 -0.0566163 0.779914 -0.139652 -0.0565338 0.779341 -0.138856 -0.0561223 0.777651 
-0.137583 -0.0553692 0.774849 -0.135907 -0.0542557 0.770944 -0.133911 -0.0527576 0.765961 
-0.131681 -0.0508475 0.759941 -0.129287 -0.0484959 0.752953 -0.126775 -0.0456739 0.745088 
-0.124155 -0.0423559 0.736466 -0.121398 -0.0385222 0.727228 -0.118435 -0.034162 0.717528 
-0.115165 -0.029276 0.707517 -0.111463 -0.0238786 0.697334 -0.107198 -0.0179993 0.687088 
-0.102243 -0.0116838 0.676842 -0.0964933 -0.00499307 0.666606 -0.0898814 0.00199812 0.656328 
-0.0823843 0.00920333 0.645895 -0.0740286 0.016528 0.63514 -0.0648901 0.0238729 0.623855 
-0.0550862 0.0311385 0.611808 -0.0447651 0.0382281 0.598765 -0.03409 0.045051 0.584512 
-0.0232231 0.0515247 0.568876 -0.0123093 0.0575762 0.55174 -0.00146201 0.0631416 0.533057 
0.00924606 0.0681661 0.512852 0.0197871 0.0726021 0.491219 0.0301763 0.0764082 0.468309 
0.0404643 0.0795475 0.444317 0.0507238 0.0819873 0.419459 0.0610336 0.0836992 0.393949 
0.0714607 0.0846604 0.367983 0.0820423 0.0848562 0.341717 0.0927716 0.0842829 0.31526 
0.103587 0.0829516 0.288664 0.114369 0.0808913 0.261935 0.124941 0.0781518 0.235034 
0.135079 0.0748051 0.207898 0.144527 0.070945 0.180456 0.153014 0.0666846 0.152648 
0.160277 0.0621519 0.124444 0.166082 0.0574834 0.0958581 0.170247 0.0528164 0.0669568 
0.17265 0.0482807 0.0378608 0.173246 0.0439902 0.00873983 0.17207 0.0400359 -0.0201983 
0.169228 0.0364805 -0.0487243 0.164896 0.0333557 -0.0766067 0.159295 0.0306624 -0.103632 
0.152681 0.0283735 -0.129622 0.145322 0.0264403 -0.154449 0.137474 0.0247996 -0.178047 
0.129368 0.0233834 -0.200411 0.121193 0.0221281 -0.221595 0.113088 0.0209825 -0.241704 
0.105138 0.0199147 -0.260878 0.0973765 0.0189161 -0.279278 0.08979 0.0180021 -0.297066 
0.0823325 0.0172098 -0.314389 0.0749361 0.0165931 -0.331368 0.0675257 0.0162149 -0.348087 
0.060033 0.016139 -0.36459 0.0524071 0.0164207 -0.380883 0.0446233 0.017099 -0.39694 
0.0366875 0.0181904 -0.412712 0.0286365 0.019685 -0.428135 0.0205347 0.0215463 -0.443151 
0.0124679 0.0237135 -0.457707 0.00453475 0.0261068 -0.471772 -0.00316309 0.0286352 -0.485339 
-0.0105305 0.0312043 -0.498422 -0.0174872 0.0337261 -0.51106 -0.0239748 0.0361263 -0.523303 
-0.0299603 0.0383504 -0.535209 -0.0354373 0.040368 -0.546832 -0.0404253 0.0421732 -0.558211 
-0.0449648 0.0437827 -0.569365 -0.0491126 0.0452318 -0.580287 -0.0529347 0.046568 -0.590939 
-0.0564992 0.0478438 -0.601256 -0.0598704 0.0491096 -0.611151 -0.0631027 0.0504075 -0.620519 
-0.0662372 0.0517661 -0.629251 -0.0692995 0.0531981 -0.63724 -0.0722988 0.0546992 -0.644394 
-0.07523 0.0562505 -0.650646 -0.0780753 0.0578211 -0.655957 -0.0808081 0.0593729 -0.660325 
-0.083396 0.0608657 -0.663783 -0.0858052 0.0622615 -0.666399 -0.0880024 0.0635289 -0.668271 
-0.0899582 0.0646446 -0.669518 -0.0916475 0.0655952 -0.670273 -0.0930509 0.0663758 -0.670673 
-0.0941539 0.0669885 -0.670845 -0.0949468 0.0674393 -0.670902 -0.0954231 0.0677355 -0.670929 
-0.0955794 0.0678824 -0.670979 
LINES 2 100
OFFSETS vtktypeint64
0 100 
CONNECTIVITY vtktypeint64
0 1 2 3 4 5 6 7 8 
9 10 11 12 13 14 15 16 17 
18 19 20 21 22 23 24 25 26 
27 28 29 30 31 32 33 34 35 
36 37 38 39 40 41 42 43 44 
45 46 47 48 49 50 51 52 53 
54 55 56 57 58 59 60 61 62 
63 64 65 66 67 68 69 70 71 
72 73 74 75 76 77 78 79 80 
81 82 83 84 85 86 87 88 89 
90 91 92 93 94 95 96 97 98 
99 
POINT_DATA 100
FIELD FieldData 3
_theta 1 100 double
0 0.031733259127 0.063466518254 0.095199777382 0.12693303651 0.15866629564 0.19039955476 0.22213281389 0.25386607302 
0.28559933214 0.31733259127 0.3490658504 0.38079910953 0.41253236865 0.44426562778 0.47599888691 0.50773214603 0.53946540516 
0.57119866429 0.60293192342 0.63466518254 0.66639844167 0.6981317008 0.72986495992 0.76159821905 0.79333147818 0.82506473731 
0.85679799643 0.88853125556 0.92026451469 0.95199777382 0.98373103294 1.0154642921 1.0471975512 1.0789308103 1.1106640695 
1.1423973286 1.1741305877 1.2058638468 1.237597106 1.2693303651 1.3010636242 1.3327968833 1.3645301425 1.3962634016 
1.4279966607 1.4597299198 1.491463179 1.5231964381 1.5549296972 1.5866629564 1.6183962155 1.6501294746 1.6818627337 
1.7135959929 1.745329252 1.7770625111 1.8087957702 1.8405290294 1.8722622885 1.9039955476 1.9357288068 1.9674620659 
1.999195325 2.0309285841 2.0626618433 2.0943951024 2.1261283615 2.1578616206 2.1895948798 2.2213281389 2.253061398 
2.2847946572 2.3165279163 2.3482611754 2.3799944345 2.4117276937 2.4434609528 2.4751942119 2.506927471 2.5386607302 
2.5703939893 2.6021272484 2.6338605076 2.6655937667 2.6973270258 2.7290602849 2.7607935441 2.7925268032 2.8242600623 
2.8559933214 2.8877265806 2.9194598397 2.9511930988 2.982926358 3.0146596171 3.0463928762 3.0781261353 3.1098593945 
3.1415926536 
_radius 1 100 double
1.9478403401e-16 0.014137063631 0.028141824752 0.041891719813 0.055281957639 0.068230185026 0.080677265197 0.092584333387 0.10392694342 
0.11468748983 0.12484719129 0.13437884949 0.1432414513 0.15137749222 0.15871364652 0.16516508014 0.17064331914 0.17506715632 
0.17837556396 0.1805410248 0.18158131837 0.18156782301 0.18062875194 0.17894620665 0.17674642971 0.17428331828 0.17181626908 
0.1695847479 0.16778334406 0.16654182609 0.16591398394 0.1658767832 0.16633893598 0.16715675662 0.16815507063 0.16915122364 
0.16998034418 0.17051963398 0.17070872165 0.17056255515 0.17017337932 0.16969951841 0.16934159217 0.16931126848 0.16980136078 
0.17096554168 0.17291062253 0.17569825587 0.17935025463 0.18385275322 0.18915693065 0.19517659435 0.2017853457 0.20881745004 
0.21607567942 0.22334651296 0.2304199735 0.2371097258 0.24326924663 0.2488012745 0.25365952085 0.2578431992 0.26138605032 
0.26434216496 0.26677107434 0.26872436011 0.27023551297 0.27131406753 0.27194431256 0.27208824969 0.27169199975 0.2706945112 
0.269037174 0.26667279581 0.26357243171 0.25972886036 0.25515609861 0.24988516449 0.24395714429 0.23741524132 0.23029765502 
0.22263277103 0.2144373567 0.20571755629 0.19647180951 0.18669458138 0.17637996688 0.16552461799 0.15412980897 0.14220269025 
0.12975689426 0.11681270839 0.10339705435 0.08954349614 0.075292419674 0.060691386639 0.045795498864 0.030667477669 0.015377132307 
2.4026869903e-16 
_area 1 100 double
0 0.00047577941308 0.0018793775644 0.0041433622386 0.0071669514443 0.010830258038 0.01500915892 0.019587837678 0.024466668258 
0.029563321742 0.034805237178 0.040114181904 0.045389454706 0.05049983584 0.055289807366 0.059597319238 0.063275760889 0.066211998342 
0.068333392523 0.069603358704 0.070012261247 0.069566628403 0.068395316092 0.066641498998 0.064397890119 0.061916520604 0.059470535988 
0.057349636979 0.055864800347 0.055075439428 0.055067983794 0.055909829627 0.057603070116 0.060024240734 0.062916914024 0.065959782318 
0.068850561436 0.071363093027 0.073382861295 0.074932230868 0.07617715924 0.077385079437 0.078782808542 0.080409136613 0.082192070351 
0.084161216328 0.086549843465 0.08951654059 0.093067868044 0.097279425682 0.10226993897 0.10814719449 0.11496125116 0.1226609772 
0.1310694151 0.13989290605 0.14875909768 0.15727063138 0.16506233399 0.17185015074 0.17746187237 0.18184495646 0.18505290272 
0.18721574345 0.18850064182 0.18906672914 0.18902311024 0.18841216343 0.18722530241 0.18542816339 0.18298116204 0.17985567058 
0.1760450707 0.17156794338 0.16646309776 0.16078055731 0.15457434096 0.1478997357 0.1408133599 0.13337331916 0.12563867179 
0.11766878445 0.10952249745 0.10125567995 0.092916266858 0.084539362482 0.076148038327 0.067762557842 0.059414062207 0.051156328982 
0.043072036163 0.035272981079 0.027894956552 0.021088641584 0.015008571036 0.0098024760837 0.0056025386635 0.0025187976937 0.00063408571568 
7.6354911579e-17 
