# vtk DataFile Version 5.1
vtk output
ASCII
DATASET POLYDATA
POINTS 100 float
-0.142247 -0.0492557 0.686561 -0.141969 -0.0491478 0.686266 -0.141196 -0.0486667 0.685361 
-0.139967 -0.047809 0.68383 -0.138339 -0.0465698 0.681654 -0.136373 -0.0449423 0.678809 
-0.13412 -0.0429174 0.675271 -0.131608 -0.0404849 0.67102 -0.128834 -0.0376334 0.666044 
-0.125755 -0.0343521 0.660333 -0.12229 -0.0306324 0.653886 -0.118327 -0.0264702 0.646705 
-0.113733 -0.0218689 0.638788 -0.108373 -0.0168416 0.630132 -0.102129 -0.0114145 0.620721 
-0.0949194 -0.00562812 0.610528 -0.0867105 0.000460318 0.599514 -0.0775314 0.00677731 0.587626 
-0.0674749 0.0132337 0.574804 -0.056693 0.0197272 0.560986 -0.045384 0.0261459 0.546116 
-0.0337744 0.032373 0.530151 -0.022095 0.0382928 0.513071 -0.0105576 0.0437964 0.494885 
0.000668197 0.048788 0.475634 0.0114718 0.05319 0.455392 0.021812 0.0569476 0.434263 
0.0317184 0.0600315 0.412372 0.0412829 0.062439 0.389858 0.0506434 0.064193 0.366859 
0.0599603 0.0653394 0.343506 0.0693894 0.0659424 0.319906 0.0790537 0.066079 0.296142 
0.0890188 0.0658322 0.272263 0.0992738 0.0652848 0.248287 0.109721 0.0645124 0.224207 
0.120177 0.063579 0.2 0.130379 0.0625324 0.175639 0.140011 0.0614028 0.151103 
0.148726 0.060202 0.126394 0.156175 0.0589261 0.101542 0.162047 0.0575577 0.076615 
0.16609 0.0560718 0.0517166 0.16814 0.0544397 0.0269835 0.168132 0.0526358 0.0025755 
0.166109 0.0506413 -0.0213376 0.162212 0.048449 -0.0445915 0.156667 0.0460655 -0.0670438 
0.149766 0.0435125 -0.0885877 0.141835 0.0408256 -0.109163 0.133207 0.0380528 -0.128762 
0.124197 0.0352507 -0.14743 0.115076 0.0324805 -0.165257 0.106057 0.0298033 -0.18237 
0.0972857 0.027276 -0.198917 0.0888399 0.0249478 -0.215049 0.0807361 0.0228572 -0.230903 
0.0729423 0.0210313 -0.24659 0.0653945 0.0194852 -0.262185 0.0580142 0.0182237 -0.277718 
0.0507247 0.0172433 -0.293181 0.0434647 0.016535 -0.308528 0.0361969 0.0160873 -0.323691 
0.0289123 0.0158889 -0.338592 0.0216281 0.015931 -0.353157 0.0143826 0.0162079 -0.367331 
0.00722576 0.0167178 -0.381086 0.00020936 0.0174612 -0.394428 -0.0066229 0.0184394 -0.407398 
-0.0132434 0.0196518 -0.42006 -0.0196454 0.0210933 -0.4325 -0.0258443 0.0227517 -0.444806 
-0.0318748 0.0246059 -0.457052 -0.0377849 0.026625 -0.46929 -0.0436279 0.0287687 -0.481531 
-0.0494526 0.0309888 -0.493743 -0.0552943 0.0332317 -0.50585 -0.0611675 0.0354426 -0.517733 
-0.0670611 0.0375694 -0.529244 -0.0729366 0.0395669 -0.540219 -0.0787299 0.0414006 -0.550497 
-0.084357 0.0430495 -0.559934 -0.0897209 0.0445081 -0.568422 -0.0947211 0.0457856 -0.575898 
-0.0992632 0.0469051 -0.58235 -0.103267 0.0478999 -0.58782 -0.106675 0.0488099 -0.592396 
-0.109457 0.0496762 -0.596198 -0.11161 0.0505362 -0.599369 -0.113163 0.0514191 -0.602053 
-0.114167 0.052342 -0.604385 -0.114697 0.0533078 -0.606471 -0.114842 0.0543045 -0.608384 
-0.114699 0.0553062 -0.610159 -0.114367 0.0562761 -0.611795 -0.11394 0.0571705 -0.613258 
-0.113503 0.0579434 -0.614499 -0.113125 0.0585522 -0.615458 -0.112861 0.0589622 -0.616084 
-0.112742 0.0591508 -0.616339 
LINES 2 100
OFFSETS vtktypeint64
0 100 
CONNECTIVITY vtktypeint64
0 1 2 3 4 5 6 7 8 
9 10 11 12 13 14 15 16 17 
18 19 20 21 22 23 24 25 26 
27 28 29 30 31 32 33 34 35 
36 37 38 39 40 41 42 43 44 
45 46 47 48 49 50 51 52 53 
54 55 56 57 58 59 60 61 62 
63 64 65 66 67 68 69 70 71 
72 73 74 75 76 77 78 79 80 
81 82 83 84 85 86 87 88 89 
90 91 92 93 94 95 96 97 98 
99 
POINT_DATA 100
FIELD FieldData 3
_theta 1 100 double
0 0.031733259127 0.063466518254 0.095199777382 0.12693303651 0.15866629564 0.19039955476 0.22213281389 0.25386607302 
0.28559933214 0.31733259127 0.3490658504 0.38079910953 0.41253236865 0.44426562778 0.47599888691 0.50773214603 0.53946540516 
0.57119866429 0.60293192342 0.63466518254 0.66639844167 0.6981317008 0.72986495992 0.76159821905 0.79333147818 0.82506473731 
0.85679799643 0.88853125556 0.92026451469 0.95199777382 0.98373103294 1.0154642921 1.0471975512 1.0789308103 1.1106640695 
1.1423973286 1.1741305877 1.2058638468 1.237597106 1.2693303651 1.3010636242 1.3327968833 1.3645301425 1.3962634016 
1.4279966607 1.4597299198 1.491463179 1.5231964381 1.5549296972 1.5866629564 1.6183962155 1.6501294746 1.6818627337 
1.7135959929 1.745329252 1.7770625111 1.8087957702 1.8405290294 1.8722622885 1.9039955476 1.9357288068 1.9674620659 
1.999195325 2.0309285841 2.0626618433 2.0943951024 2.1261283615 2.1578616206 2.1895948798 2.2213281389 2.253061398 
2.2847946572 2.3165279163 2.3482611754 2.3799944345 2.4117276937 2.4434609528 2.4751942119 2.506927471 2.5386607302 
2.5703939893 2.6021272484 2.6338605076 2.6655937667 2.6973270258 2.7290602849 2.7607935441 2.7925268032 2.8242600623 
2.8559933214 2.8877265806 2.9194598397 2.9511930988 2.982926358 3.0146596171 3.0463928762 3.0781261353 3.1098593945 
3.1415926536 
_radius 1 100 double
1.8878382775e-15 0.014327815561 0.028582408659 0.042681672684 0.05653482588 0.070039271987 0.083078941175 0.09552467015 0.10723705177 
0.11807194289 0.12788848314 0.13655908731 0.14398049258 0.15008463893 0.15484800497 0.15829806364 0.1605157907 0.16163363144 
0.16182891861 0.1613132823 0.16031894623 0.15908291626 0.15783005659 0.15675612705 0.1560121576 0.15569201899 0.15582544415 
0.15637854821 0.15726266118 0.15835034235 0.15949582447 0.16055660794 0.16141335628 0.16198599852 0.1622445198 0.16221313007 
0.16196647543 0.1616171267 0.16129646384 0.16113641392 0.16126166498 0.16179447077 0.16286265413 0.16459845787 0.16712286717 
0.17051926152 0.17480631388 0.17992090232 0.18571746632 0.19198356408 0.19846631926 0.20490281029 0.21104846364 0.21669959307 
0.22170828651 0.22598938068 0.22952017431 0.23233397139 0.23450877853 0.23615267788 0.2373875435 0.23833277472 0.23909059312 
0.23973430051 0.24030077506 0.24078826353 0.24115999841 0.24135325565 0.24129236077 0.24090321698 0.24012651109 0.23892700236 
0.23729714042 0.2352544519 0.23283339019 0.23007339191 0.22700553753 0.22364037576 0.21995914075 0.21590987133 0.21140902362 
0.20634828604 0.20060562998 0.19405920173 0.18660240892 0.17815840273 0.16869211145 0.15821812189 0.14680310813 0.13456217714 
0.12164935118 0.10824327482 0.094529932982 0.080684554688 0.06685493641 0.05314823065 0.039622893195 0.026286964162 0.013103120342 
6.6881710282e-16 
_area 1 100 double
0 0.00049029502422 0.0019518175987 0.0043542007148 0.0076407355716 0.011723323904 0.016480503528 0.021759139093 0.027378567348 
0.033136085478 0.038814220608 0.044191162755 0.049054810871 0.053219057707 0.056539970465 0.058929828235 0.060367668613 0.060905346443 
0.060668151278 0.059848898046 0.058694026427 0.057479978297 0.056479129321 0.055918101454 0.055937647711 0.05656999156 0.057746561797 
0.05933051892 0.061155979784 0.063059123969 0.064893774601 0.0665448914 0.067954359062 0.069148409553 0.070247478162 0.071449937576 
0.07293449827 0.074701175141 0.076563513489 0.078289147112 0.079731132093 0.080889535616 0.081918330951 0.083090073011 0.084674826883 
0.086880704901 0.089900269974 0.093878253463 0.098869991173 0.10482829726 0.11160135299 0.11894188928 0.12653512063 0.13403992027 
0.14112939378 0.1475223299 0.1530047054 0.15744362583 0.16079591828 0.16311166576 0.16452845347 0.16524269836 0.16547483852 
0.16550925252 0.16541205092 0.16507242473 0.16441168219 0.16338522846 0.16195822392 0.1601166715 0.1578732049 0.15526815955 
0.15235975331 0.14920526986 0.14584497443 0.14229538905 0.13854493209 0.1345481279 0.13022497669 0.12547116909 0.12017754906 
0.11425239994 0.10763995466 0.1003314622 0.092368768593 0.083842664423 0.074888360381 0.065679120837 0.05641780642 0.047325688912 
0.038628326847 0.030539194872 0.023242848707 0.016880297631 0.011539534106 0.0072536421764 0.0040077061045 0.0017541298526 0.00043401997594 
1.0372094184e-16 
