# vtk DataFile Version 5.1
vtk output
ASCII
DATASET POLYDATA
POINTS 100 float
-0.187297 -0.0531938 0.723582 -0.187178 -0.0533052 0.723823 -0.186797 -0.0534391 0.72445 
-0.18613 -0.0535192 0.725325 -0.185136 -0.0534301 0.726235 -0.183755 -0.0530315 0.726919 
-0.181911 -0.052174 0.7271 -0.179511 -0.0507168 0.726514 -0.176447 -0.0485429 0.724943 
-0.172601 -0.0455717 0.722234 -0.167851 -0.0417668 0.718311 -0.16208 -0.037138 0.71318 
-0.155181 -0.0317382 0.706918 -0.147075 -0.025656 0.699654 -0.137715 -0.0190042 0.691545 
-0.127096 -0.0119076 0.682749 -0.115266 -0.00449079 0.673396 -0.102324 0.00313219 0.66357 
-0.0884207 0.0108641 0.65329 -0.0737573 0.0186272 0.642512 -0.0585719 0.0263611 0.63113 
-0.0431281 0.0340173 0.618995 -0.0276981 0.0415511 0.605932 -0.0125452 0.0489128 0.591775 
0.00209485 0.0560395 0.576382 0.0160297 0.0628492 0.559664 0.0291239 0.0692395 0.541598 
0.0413073 0.0750892 0.522233 0.0525777 0.0802659 0.501684 0.0629972 0.0846357 0.480121 
0.0726828 0.0880762 0.457747 0.0817915 0.0904903 0.434772 0.0905012 0.0918178 0.411392 
0.0989896 0.0920446 0.387758 0.107413 0.0912078 0.363966 0.115887 0.0893948 0.340047 
0.12447 0.0867376 0.315966 0.133154 0.0834018 0.291635 0.141862 0.0795726 0.266934 
0.15045 0.0754385 0.24173 0.158718 0.0711757 0.215908 0.166428 0.0669348 0.189392 
0.17332 0.0628302 0.162164 0.179138 0.0589361 0.13428 0.183654 0.0552867 0.105864 
0.186682 0.051882 0.0771052 0.188099 0.0486971 0.0482413 0.187852 0.0456947 0.0195333 
0.185964 0.0428374 -0.00875886 0.182526 0.0400992 -0.0364026 0.177691 0.0374731 -0.0632143 
0.171656 0.0349756 -0.0890748 0.164643 0.0326456 -0.113936 0.156884 0.0305386 -0.137819 
0.148595 0.0287177 -0.160802 0.139964 0.0272422 -0.183005 0.131139 0.026156 -0.204563 
0.12222 0.0254772 -0.225611 0.11326 0.0251917 -0.246256 0.10427 0.0252504 -0.266567 
0.0952296 0.025573 -0.286566 0.0860966 0.0260553 -0.306227 0.0768261 0.0265813 -0.325487 
0.0673816 0.0270381 -0.344256 0.0577479 0.0273303 -0.36244 0.0479386 0.0273938 -0.379958 
0.0379998 0.0272052 -0.396759 0.0280085 0.0267866 -0.412834 0.0180667 0.0262045 -0.428224 
0.00829135 0.0255622 -0.443014 -0.00119724 0.0249873 -0.457325 -0.0102884 0.024616 -0.471299 
-0.0188927 0.0245752 -0.485076 -0.0269506 0.0249655 -0.498774 -0.0344381 0.0258477 -0.512471 
-0.0413669 0.0272334 -0.526189 -0.0477808 0.0290826 -0.539887 -0.0537475 0.0313069 -0.55346 
-0.0593475 0.0337797 -0.566753 -0.0646618 0.0363506 -0.579574 -0.0697591 0.0388632 -0.591713 
-0.0746854 0.041173 -0.602972 -0.0794565 0.0431638 -0.613182 -0.0840546 0.0447604 -0.622224 
-0.0884305 0.0459351 -0.630041 -0.0925093 0.046709 -0.636645 -0.0962008 0.0471455 -0.64211 
-0.099412 0.0473401 -0.646564 -0.102061 0.0474049 -0.650168 -0.104091 0.0474526 -0.653103 
-0.105478 0.0475803 -0.65554 -0.106241 0.0478567 -0.657629 -0.106441 0.0483137 -0.659484 
-0.106177 0.0489432 -0.66117 -0.105582 0.0497009 -0.66271 -0.104805 0.050514 -0.664088 
-0.103998 0.0512939 -0.665261 -0.103304 0.0519507 -0.666171 -0.102832 0.0524075 -0.666765 
-0.102658 0.0526123 -0.667003 
LINES 2 100
OFFSETS vtktypeint64
0 100 
CONNECTIVITY vtktypeint64
0 1 2 3 4 5 6 7 8 
9 10 11 12 13 14 15 16 17 
18 19 20 21 22 23 24 25 26 
27 28 29 30 31 32 33 34 35 
36 37 38 39 40 41 42 43 44 
45 46 47 48 49 50 51 52 53 
54 55 56 57 58 59 60 61 62 
63 64 65 66 67 68 69 70 71 
72 73 74 75 76 77 78 79 80 
81 82 83 84 85 86 87 88 89 
90 91 92 93 94 95 96 97 98 
99 
POINT_DATA 100
FIELD FieldData 3
_theta 1 100 double
0 0.031733259127 0.063466518254 0.095199777382 0.12693303651 0.15866629564 0.19039955476 0.22213281389 0.25386607302 
0.28559933214 0.31733259127 0.3490658504 0.38079910953 0.41253236865 0.44426562778 0.47599888691 0.50773214603 0.53946540516 
0.57119866429 0.60293192342 0.63466518254 0.66639844167 0.6981317008 0.72986495992 0.76159821905 0.79333147818 0.82506473731 
0.85679799643 0.88853125556 0.92026451469 0.95199777382 0.98373103294 1.0154642921 1.0471975512 1.0789308103 1.1106640695 
1.1423973286 1.1741305877 1.2058638468 1.237597106 1.2693303651 1.3010636242 1.3327968833 1.3645301425 1.3962634016 
1.4279966607 1.4597299198 1.491463179 1.5231964381 1.5549296972 1.5866629564 1.6183962155 1.6501294746 1.6818627337 
1.7135959929 1.745329252 1.7770625111 1.8087957702 1.8405290294 1.8722622885 1.9039955476 1.9357288068 1.9674620659 
1.999195325 2.0309285841 2.0626618433 2.0943951024 2.1261283615 2.1578616206 2.1895948798 2.2213281389 2.253061398 
2.2847946572 2.3165279163 2.3482611754 2.3799944345 2.4117276937 2.4434609528 2.4751942119 2.506927471 2.5386607302 
2.5703939893 2.6021272484 2.6338605076 2.6655937667 2.6973270258 2.7290602849 2.7607935441 2.7925268032 2.8242600623 
2.8559933214 2.8877265806 2.9194598397 2.9511930988 2.982926358 3.0146596171 3.0463928762 3.0781261353 3.1098593945 
3.1415926536 
_radius 1 100 double
1.2369150124e-15 0.018227660274 0.036283744772 0.053999657625 0.071213405058 0.087769807969 0.10351883113 0.11831339735 0.13200847171 
0.14446286576 0.15554429224 0.16513708991 0.17315116029 0.17953032549 0.18425865391 0.18736416875 0.18892034212 0.18904637273 
0.18790713298 0.18571291859 0.18271812474 0.17921718598 0.17553589388 0.172016647 0.16899719772 0.1667838044 0.16562102214 
0.16566154374 0.16694103264 0.16936483697 0.17271341437 0.17666826994 0.18085255237 0.18487659012 0.18838054916 0.19107033377 
0.19274537632 0.19331745991 0.192819242 0.19140092305 0.18931419341 0.18688428952 0.18447342875 0.18244137004 0.18111002944 
0.18073753198 0.18150295033 0.18349894252 0.18672867038 0.19110590591 0.19646018749 0.20254964202 0.2090825153 0.21574593614 
0.22223822941 0.22829985369 0.23373799988 0.23844096003 0.24238024487 0.24560065614 0.24820065991 0.25030705664 0.25204877144 
0.25353438725 0.25483684307 0.25598686491 0.25697476918 0.25775883113 0.25827770469 0.25846431562 0.25825894503 0.25761963166 
0.25652845267 0.25499272137 0.25304073627 0.25071247443 0.24804651783 0.24506540321 0.24176224565 0.23809160168 0.23396690994 
0.22926555295 0.22384098013 0.217539885 0.2102214996 0.20177581838 0.19213796192 0.18129676845 0.16929680288 0.15623402755 
0.14224617072 0.12749927534 0.11217208572 0.096439987114 0.080460241314 0.064360215047 0.048230055422 0.032120756172 0.016047829469 
5.2440950828e-16 
_area 1 100 double
0 0.00072013395743 0.0028512211038 0.0063075385623 0.010952222694 0.016602851774 0.023036046051 0.029992761348 0.037188099918 
0.044328966888 0.051139489689 0.057389403608 0.062917536609 0.067643878003 0.071567937827 0.07473241433 0.077113395734 0.078602127549 
0.079117502155 0.078664782911 0.07739768739 0.075819773509 0.073902414929 0.071821584398 0.069764391488 0.067931865225 0.066542584856 
0.06577212419 0.065753945174 0.06655052909 0.068122869895 0.0703231718 0.072925820149 0.075692800331 0.07846726859 0.081395381665 
0.084445764029 0.087199584605 0.089348938637 0.090641463094 0.091220445081 0.091323475965 0.091106448234 0.090895154284 0.090810620879 
0.091094154638 0.092081585642 0.094196334344 0.097400194006 0.10161029922 0.10673846385 0.11268175259 0.11930955119 0.12643397286 
0.13378069943 0.14099056876 0.14766605513 0.15344580818 0.15807594371 0.1614557567 0.16364967381 0.16486437587 0.16539447634 
0.16554607095 0.16554888248 0.16547075701 0.16519115655 0.16449123671 0.16317747231 0.16115082827 0.15842896219 0.15513859086 
0.15148176442 0.14768162501 0.1439236621 0.14031323007 0.13685861836 0.13347520121 0.13000532371 0.12625095709 0.12201166526 
0.11711704464 0.11144763756 0.10494530064 0.097617155109 0.08953616132 0.080838109287 0.07171244679 0.062385314087 0.053097087236 
0.044080365395 0.03554429601 0.027667373322 0.020596689706 0.014450098116 0.0093188764276 0.0052703225117 0.002350702022 0.00058884805296 
3.8091468232e-17 
