# vtk DataFile Version 5.1
vtk output
ASCII
DATASET POLYDATA
POINTS 100 float
-0.0580333 -0.0340421 0.709236 -0.0581794 -0.0340315 0.709461 -0.0586771 -0.0338161 0.710088 
-0.0594915 -0.0333858 0.710985 -0.0605647 -0.0327241 0.711949 -0.0618186 -0.0318082 0.712724 
-0.0631576 -0.0306083 0.71303 -0.0644727 -0.0290885 0.712589 -0.0656456 -0.0272073 0.711152 
-0.0665533 -0.0249195 0.708518 -0.0670733 -0.0221785 0.704552 -0.0670881 -0.0189398 0.699188 
-0.0664903 -0.0151652 0.692428 -0.0651873 -0.0108264 0.684335 -0.0631057 -0.00591035 0.67501 
-0.0601945 -0.000422257 0.664581 -0.0564289 0.00561056 0.65318 -0.0518117 0.012137 0.640924 
-0.0463741 0.0190812 0.627905 -0.0401751 0.0263442 0.614183 -0.0332987 0.0338055 0.599783 
-0.0258501 0.0413278 0.584704 -0.017949 0.0487621 0.568927 -0.00972306 0.0559535 0.552431 
-0.00129883 0.0627478 0.535203 0.00720671 0.0689985 0.517253 0.0156946 0.0745725 0.49862 
0.0240909 0.0793556 0.479374 0.0323523 0.0832577 0.459609 0.0404674 0.0862151 0.439438 
0.0484565 0.0881937 0.41898 0.0563669 0.0891889 0.398336 0.0642641 0.0892258 0.377583 
0.0722218 0.0883576 0.356757 0.0803087 0.0866629 0.335845 0.0885747 0.0842428 0.314784 
0.0970386 0.081216 0.293468 0.105677 0.0777148 0.271761 0.114417 0.0738794 0.249513 
0.123134 0.0698522 0.226581 0.131656 0.065772 0.202854 0.139766 0.0617683 0.178265 
0.147223 0.0579557 0.152814 0.153773 0.0544289 0.126567 0.159171 0.051259 0.0996624 
0.163199 0.0484909 0.0722963 0.165685 0.0461418 0.0447095 0.166518 0.0442024 0.0171656 
0.165661 0.0426391 -0.0100734 0.163148 0.0413982 -0.0367703 0.159087 0.0404114 -0.0627337 
0.15365 0.0396028 -0.0878323 0.147057 0.0388957 -0.112003 0.139557 0.0382194 -0.135251 
0.131409 0.0375162 -0.157638 0.122861 0.0367453 -0.179273 0.114129 0.0358863 -0.200287 
0.105386 0.03494 -0.220816 0.0967511 0.033927 -0.240978 0.0882853 0.032884 -0.260859 
0.0799969 0.0318593 -0.280499 0.0718489 0.0309066 -0.299892 0.0637724 0.0300783 -0.318987 
0.0556818 0.0294198 -0.337697 0.0474905 0.0289651 -0.355915 0.039126 0.0287328 -0.373531 
0.030541 0.0287258 -0.390449 0.0217207 0.0289317 -0.406604 0.0126849 0.0293263 -0.421972 
0.00348527 0.0298773 -0.436574 -0.00580129 0.0305502 -0.450476 -0.0150829 0.0313129 -0.463779 
-0.024264 0.0321408 -0.476612 -0.0332567 0.0330197 -0.489106 -0.0419903 0.0339471 -0.501386 
-0.0504179 0.0349314 -0.513548 -0.0585183 0.0359891 -0.52565 -0.0662954 0.0371401 -0.537701 
-0.0737722 0.0384022 -0.549658 -0.0809831 0.0397849 -0.561432 -0.0879636 0.0412841 -0.572896 
-0.0947413 0.0428785 -0.583896 -0.101327 0.0445275 -0.594271 -0.10771 0.0461725 -0.603866 
-0.113854 0.0477401 -0.612548 -0.119703 0.0491482 -0.62022 -0.125182 0.0503143 -0.626824 
-0.130211 0.051164 -0.632352 -0.134711 0.0516404 -0.636837 -0.138618 0.0517113 -0.640352 
-0.141892 0.0513758 -0.643002 -0.144522 0.0506661 -0.64491 -0.146531 0.0496473 -0.646211 
-0.147975 0.0484132 -0.647039 -0.148935 0.0470781 -0.647519 -0.149513 0.0457676 -0.647764 
-0.149814 0.0446064 -0.647867 -0.149938 0.0437066 -0.647901 -0.149968 0.0431568 -0.647917 
-0.149956 0.0430133 -0.647946 
LINES 2 100
OFFSETS vtktypeint64
0 100 
CONNECTIVITY vtktypeint64
0 1 2 3 4 5 6 7 8 
9 10 11 12 13 14 15 16 17 
18 19 20 21 22 23 24 25 26 
27 28 29 30 31 32 33 34 35 
36 37 38 39 40 41 42 43 44 
45 46 47 48 49 50 51 52 53 
54 55 56 57 58 59 60 61 62 
63 64 65 66 67 68 69 70 71 
72 73 74 75 76 77 78 79 80 
81 82 83 84 85 86 87 88 89 
90 91 92 93 94 95 96 97 98 
99 
POINT_DATA 100
FIELD FieldData 3
_theta 1 100 double
0 0.031733259127 0.063466518254 0.095199777382 0.12693303651 0.15866629564 0.19039955476 0.22213281389 0.25386607302 
0.28559933214 0.31733259127 0.3490658504 0.38079910953 0.41253236865 0.44426562778 0.47599888691 0.50773214603 0.53946540516 
0.57119866429 0.60293192342 0.63466518254 0.66639844167 0.6981317008 0.72986495992 0.76159821905 0.79333147818 0.82506473731 
0.85679799643 0.88853125556 0.92026451469 0.95199777382 0.98373103294 1.0154642921 1.0471975512 1.0789308103 1.1106640695 
1.1423973286 1.1741305877 1.2058638468 1.237597106 1.2693303651 1.3010636242 1.3327968833 1.3645301425 1.3962634016 
1.4279966607 1.4597299198 1.491463179 1.5231964381 1.5549296972 1.5866629564 1.6183962155 1.6501294746 1.6818627337 
1.7135959929 1.745329252 1.7770625111 1.8087957702 1.8405290294 1.8722622885 1.9039955476 1.9357288068 1.9674620659 
1.999195325 2.0309285841 2.0626618433 2.0943951024 2.1261283615 2.1578616206 2.1895948798 2.2213281389 2.253061398 
2.2847946572 2.3165279163 2.3482611754 2.3799944345 2.4117276937 2.4434609528 2.4751942119 2.506927471 2.5386607302 
2.5703939893 2.6021272484 2.6338605076 2.6655937667 2.6973270258 2.7290602849 2.7607935441 2.7925268032 2.8242600623 
2.8559933214 2.8877265806 2.9194598397 2.9511930988 2.982926358 3.0146596171 3.0463928762 3.0781261353 3.1098593945 
3.1415926536 
_radius 1 100 double
1.0408340856e-16 0.016886866332 0.033633997942 0.050090579807 0.066099053716 0.081495939575 0.096115810019 0.10979769579 0.12239269936 
0.13377156604 0.14383129693 0.15250038404 0.1597427027 0.16556036546 0.16999585767 0.17313355156 0.17510030592 0.1760644187 
0.1762318406 0.17583843659 0.17513742278 0.17438223658 0.17380715743 0.17360992792 0.17394001856 0.17489266003 0.17650607236 
0.17875997271 0.18157554803 0.18481832947 0.18830549062 0.19181852862 0.19512135631 0.19798254448 0.20019900626 0.2016175989 
0.20215178367 0.20179196395 0.20060855827 0.19874652021 0.19641107433 0.19384700484 0.19131588884 0.18907571099 0.18736529348 
0.1863930767 0.18632762752 0.1872869891 0.18932582621 0.19242262745 0.19647248957 0.20129178196 0.2066374042 0.21223702741 
0.21782233287 0.22315756254 0.22805899647 0.23240429509 0.23613270474 0.23923810944 0.24175727427 0.24375561282 0.24531254658 
0.24650812295 0.24741212712 0.24807652366 0.24853168942 0.24878650552 0.24883191321 0.24864701821 0.24820634819 0.24748660214 
0.24647133071 0.24515248433 0.24352853218 0.24159966409 0.23936122382 0.23679685615 0.23387284873 0.23053485765 0.22670771993 
0.22229850435 0.21720245152 0.21131108005 0.20452150771 0.19674594157 0.18792030543 0.17801107257 0.16701954062 0.15498301131 
0.14197263089 0.12808801482 0.11344920942 0.098186966762 0.082432630865 0.066309059524 0.049923887003 0.033366074362 0.016706158543 
4.8433032083e-16 
_area 1 100 double
0 0.00057694697134 0.0023135159673 0.005219456361 0.0092871757785 0.014461219612 0.020609323329 0.02750779072 0.034848097257 
0.04226282393 0.049363714661 0.055783763163 0.061216566055 0.065447916937 0.068376105481 0.070018644702 0.070504369836 0.070051251096 
0.068932307071 0.067435425548 0.065827309205 0.064334099075 0.063151550528 0.062565505582 0.062710847243 0.063411773554 0.06463883078 
0.066425955264 0.068530845934 0.070828683288 0.073248836343 0.075746686851 0.078281181686 0.080769616721 0.083052017381 0.084924993519 
0.086225181164 0.086914488623 0.087126826683 0.087131052589 0.087217014164 0.087590183288 0.088332302586 0.089429847981 0.090826863994 
0.092473478178 0.094380426951 0.096607480693 0.099307227706 0.10276994137 0.10728783397 0.11269912831 0.11871225804 0.12507983572 
0.13153704332 0.13781712584 0.14368195674 0.14894587064 0.15348711526 0.15724744987 0.16022246085 0.16244594239 0.16397269386 
0.16486422484 0.16518010672 0.16497437287 0.16429254166 0.16316456152 0.16159845575 0.15958797947 0.15713364706 0.15426053761 
0.15102303629 0.14749784983 0.14376906506 0.13990896468 0.13596002283 0.13192365939 0.12775809227 0.12338418774 0.11869690705 
0.11358025553 0.10792468174 0.10164626314 0.094705253688 0.087119237479 0.078966786562 0.07038130915 0.061538320487 0.052640276146 
0.043901748802 0.035535874391 0.027742119047 0.020695842223 0.014541011324 0.0093875526116 0.0053136765041 0.002371669657 0.00059438252418 
2.7422099425e-17 
