# vtk DataFile Version 5.1
vtk output
ASCII
DATASET POLYDATA
POINTS 100 float
-0.036265 -0.0574051 0.812673 -0.0362669 -0.0571953 0.812265 -0.0362934 -0.0563165 0.811017 
-0.0363427 -0.0548 0.808914 -0.0364104 -0.0526959 0.805935 -0.0364895 -0.0500684 0.802056 
-0.0365685 -0.0469894 0.797255 -0.0366299 -0.043531 0.791518 -0.0366478 -0.0397594 0.784842 
-0.0365862 -0.03573 0.777241 -0.0363965 -0.0314836 0.768743 -0.0360161 -0.0270457 0.759398 
-0.0353676 -0.0224278 0.749266 -0.0343596 -0.0176302 0.73842 -0.0328886 -0.0126473 0.726939 
-0.0308439 -0.00747297 0.714898 -0.028113 -0.00210607 0.702365 -0.02459 0.00344449 0.689391 
-0.0201842 0.0091563 0.676006 -0.0148304 0.0149918 0.662214 -0.0084972 0.0208983 0.647994 
-0.0011953 0.0268105 0.6333 0.00701749 0.0326538 0.618064 0.0160343 0.0383491 0.602206 
0.0257013 0.0438178 0.585638 0.0358237 0.0489864 0.568276 0.0461762 0.0537904 0.550049 
0.056516 0.0581771 0.530905 0.0665989 0.0621061 0.510818 0.0761956 0.0655499 0.489794 
0.0851075 0.0684918 0.467869 0.0931802 0.070924 0.445106 0.100313 0.0728454 0.421589 
0.106466 0.0742594 0.397419 0.111654 0.0751722 0.3727 0.115949 0.0755932 0.347529 
0.119463 0.0755345 0.321994 0.122335 0.0750135 0.296157 0.124715 0.074054 0.270059 
0.126747 0.0726887 0.243713 0.128552 0.0709611 0.217112 0.130213 0.068926 0.190229 
0.131771 0.0666491 0.163032 0.133216 0.0642052 0.135491 0.13449 0.0616749 0.10759 
0.135499 0.0591398 0.0793336 0.136114 0.0566779 0.0507605 0.136195 0.054358 0.0219423 
0.135601 0.0522353 -0.00701374 0.134203 0.0503478 -0.035969 0.131902 0.0487146 -0.0647616 
0.128636 0.0473363 -0.0932168 0.124384 0.0461967 -0.121161 0.119169 0.0452673 -0.148432 
0.113052 0.0445118 -0.174898 0.106127 0.0438922 -0.200461 0.0985132 0.0433738 -0.225066 
0.0903386 0.0429303 -0.248706 0.0817346 0.0425462 -0.271415 0.0728244 0.0422182 -0.293268 
0.0637162 0.0419544 -0.314363 0.0544997 0.0417714 -0.334817 0.045244 0.0416903 -0.354749 
0.0360005 0.0417321 -0.374266 0.0268056 0.0419124 -0.393458 0.0176866 0.0422381 -0.412386 
0.00866656 0.0427043 -0.431084 -0.000230249 0.0432943 -0.449554 -0.00897524 0.0439807 -0.467778 
-0.0175335 0.0447286 -0.485721 -0.025864 0.0455007 -0.503342 -0.0339215 0.0462627 -0.520603 
-0.0416595 0.0469883 -0.537478 -0.0490343 0.0476641 -0.553957 -0.056008 0.0482919 -0.57005 
-0.0625522 0.0488893 -0.585782 -0.0686488 0.0494875 -0.60119 -0.0742901 0.0501274 -0.616313 
-0.079477 0.050853 -0.63118 -0.0842163 0.0517046 -0.6458 -0.0885167 0.0527114 -0.660153 
-0.0923852 0.0538854 -0.674182 -0.0958237 0.0552169 -0.68779 -0.0988277 0.0566731 -0.700846 
-0.101386 0.0581994 -0.713189 -0.103482 0.0597238 -0.724644 -0.105101 0.0611642 -0.735036 
-0.106227 0.062437 -0.744209 -0.106861 0.0634673 -0.752044 -0.107013 0.0641979 -0.758471 
-0.106718 0.0645968 -0.763487 -0.106031 0.0646624 -0.767153 -0.105031 0.0644248 -0.769599 
-0.103815 0.0639435 -0.771011 -0.102496 0.0633017 -0.771616 -0.101194 0.0625974 -0.771664 
-0.100024 0.0619327 -0.771405 -0.0990899 0.0614023 -0.771063 -0.0984749 0.0610826 -0.770816 
-0.0982317 0.0610232 -0.770777 
LINES 2 100
OFFSETS vtktypeint64
0 100 
CONNECTIVITY vtktypeint64
0 1 2 3 4 5 6 7 8 
9 10 11 12 13 14 15 16 17 
18 19 20 21 22 23 24 25 26 
27 28 29 30 31 32 33 34 35 
36 37 38 39 40 41 42 43 44 
45 46 47 48 49 50 51 52 53 
54 55 56 57 58 59 60 61 62 
63 64 65 66 67 68 69 70 71 
72 73 74 75 76 77 78 79 80 
81 82 83 84 85 86 87 88 89 
90 91 92 93 94 95 96 97 98 
99 
POINT_DATA 100
FIELD FieldData 3
_theta 1 100 double
0 0.031733259127 0.063466518254 0.095199777382 0.12693303651 0.15866629564 0.19039955476 0.22213281389 0.25386607302 
0.28559933214 0.31733259127 0.3490658504 0.38079910953 0.41253236865 0.44426562778 0.47599888691 0.50773214603 0.53946540516 
0.57119866429 0.60293192342 0.63466518254 0.66639844167 0.6981317008 0.72986495992 0.76159821905 0.79333147818 0.82506473731 
0.85679799643 0.88853125556 0.92026451469 0.95199777382 0.98373103294 1.0154642921 1.0471975512 1.0789308103 1.1106640695 
1.1423973286 1.1741305877 1.2058638468 1.237597106 1.2693303651 1.3010636242 1.3327968833 1.3645301425 1.3962634016 
1.4279966607 1.4597299198 1.491463179 1.5231964381 1.5549296972 1.5866629564 1.6183962155 1.6501294746 1.6818627337 
1.7135959929 1.745329252 1.7770625111 1.8087957702 1.8405290294 1.8722622885 1.9039955476 1.9357288068 1.9674620659 
1.999195325 2.0309285841 2.0626618433 2.0943951024 2.1261283615 2.1578616206 2.1895948798 2.2213281389 2.253061398 
2.2847946572 2.3165279163 2.3482611754 2.3799944345 2.4117276937 2.4434609528 2.4751942119 2.506927471 2.5386607302 
2.5703939893 2.6021272484 2.6338605076 2.6655937667 2.6973270258 2.7290602849 2.7607935441 2.7925268032 2.8242600623 
2.8559933214 2.8877265806 2.9194598397 2.9511930988 2.982926358 3.0146596171 3.0463928762 3.0781261353 3.1098593945 
3.1415926536 
_radius 1 100 double
2.6486222499e-16 0.014322384267 0.028534125327 0.042525398443 0.056209811485 0.069529692882 0.082455044081 0.094976982659 0.10709771922 
0.11881949772 0.13013453593 0.14101725934 0.15141950859 0.1612691208 0.1704722119 0.17891935935 0.18649554201 0.19309314606 
0.19862672412 0.20304765122 0.20635647505 0.20861069105 0.20992596825 0.21046960024 0.21044618544 0.21007709585 0.20957680395 
0.20913013411 0.20887456295 0.20889056344 0.20920078668 0.20977635569 0.21054696708 0.21141177381 0.21224981444 0.2129306619 
0.21332668268 0.21332751321 0.21285571163 0.21188101344 0.21042997244 0.20858829847 0.20649475165 0.20432751996 0.20228588358 
0.20057091671 0.19936853159 0.198836488 0.19909496473 0.20021908651 0.20223210487 0.20509949075 0.20872601425 0.21295877741 
0.2175983591 0.22241787399 0.22718698554 0.23169617197 0.23577654083 0.23931191032 0.24224190061 0.24455669775 0.24628559348 
0.24748224495 0.24820982209 0.24852882717 0.24848940865 0.24812859185 0.24747138384 0.2465337317 0.24532525127 0.24385048676 
0.24210871427 0.24009324872 0.2377913324 0.23518499628 0.23225236197 0.2289683787 0.22530424839 0.22122554057 0.21668976375 
0.21164457049 0.20602770844 0.19976937427 0.19279698046 0.18504172667 0.17644595118 0.16697009157 0.15659817232 0.14534097897 
0.13323641991 0.12034700306 0.10675483349 0.092554983374 0.077848374139 0.062735349339 0.047310895716 0.031662063442 0.015867673197 
2.129938469e-16 
_area 1 100 double
0 0.00063466965839 0.0024979000871 0.0054762827687 0.0094080253633 0.014115592862 0.019437107835 0.025246297284 0.031453300975 
0.037986308038 0.044764582558 0.051677255262 0.058575829342 0.065280729847 0.071598813627 0.077346822238 0.082373520998 0.086572711105 
0.089883196816 0.092279827985 0.093766539706 0.094381894301 0.094222450275 0.093490197904 0.092374203055 0.090932372195 0.089404350925 
0.088072574619 0.087212824095 0.087051722801 0.087744278939 0.089323099532 0.091678664435 0.094568659023 0.097694528918 0.10076492167 
0.10351869762 0.10575037503 0.10733190422 0.10822325949 0.10847605125 0.10823509425 0.10772531398 0.10721459159 0.10696746974 
0.10721029875 0.10811681844 0.10980798638 0.11234141474 0.11571388918 0.11990794008 0.12490267945 0.13064753201 0.13703006192 
0.14385390729 0.15083826637 0.15764455334 0.1639243672 0.16937258978 0.1737684107 0.17699445859 0.17903316458 0.17994566602 
0.17984142589 0.1788473782 0.1770848552 0.17466004297 0.17166790422 0.16820379837 0.16437673385 0.16031841039 0.15617766483 
0.15209312698 0.14815407727 0.14437226278 0.14068045409 0.13695559726 0.13305325991 0.12883995612 0.12421439404 0.11911422571 
0.11351094542 0.10739964034 0.10079022198 0.093703807355 0.086174550425 0.078254676136 0.070019538118 0.061570835829 0.053038046758 
0.044577973965 0.036370631845 0.02860968264 0.02148824743 0.015183724578 0.0098458592489 0.005590661555 0.002500317763 0.00062730057096 
1.6506951658e-17 
