# vtk DataFile Version 5.1
vtk output
ASCII
DATASET POLYDATA
POINTS 100 float
-0.0236696 -0.0183668 0.687174 -0.0235698 -0.0183538 0.687086 -0.0232645 -0.0181715 0.686797 
-0.0227366 -0.0177995 0.686191 -0.0219595 -0.017205 0.685089 -0.0209005 -0.0163463 0.683274 
-0.0195247 -0.0151765 0.680516 -0.0177992 -0.013648 0.676602 -0.0156959 -0.0117173 0.671361 
-0.0131936 -0.00934983 0.664684 -0.010278 -0.00652356 0.656537 -0.00694101 -0.00323277 0.646963 
-0.00317844 0.000510184 0.636076 0.00101298 0.00467402 0.624046 0.00563806 0.00920924 0.611077 
0.010705 0.0140502 0.597381 0.0162255 0.0191183 0.583156 0.0222134 0.0243263 0.568561 
0.0286813 0.0295829 0.553702 0.035635 0.0347978 0.538625 0.0430684 0.0398858 0.523315 
0.0509567 0.0447714 0.507704 0.0592525 0.0493912 0.491688 0.0678824 0.0536953 0.475144 
0.0767474 0.0576481 0.457953 0.0857263 0.0612268 0.440015 0.0946824 0.0644198 0.421266 
0.103473 0.0672232 0.401689 0.11196 0.0696383 0.381311 0.120021 0.071668 0.360202 
0.127562 0.0733141 0.338461 0.134521 0.0745759 0.316205 0.140874 0.0754487 0.293553 
0.146632 0.0759245 0.270609 0.151839 0.0759935 0.247452 0.156554 0.0756458 0.224131 
0.160844 0.0748746 0.200664 0.164766 0.0736788 0.177042 0.168351 0.0720657 0.153241 
0.171594 0.0700528 0.129236 0.174444 0.0676687 0.105011 0.176804 0.0649531 0.0805765 
0.178534 0.061955 0.0559736 0.179465 0.0587308 0.0312809 0.179411 0.0553406 0.00661115 
0.178193 0.0518454 -0.0178964 0.175658 0.048303 -0.0420885 0.171701 0.044766 -0.0658125 
0.166279 0.0412795 -0.0889328 0.159424 0.0378801 -0.111344 0.151241 0.034597 -0.132982 
0.141906 0.0314531 -0.153826 0.131653 0.0284674 -0.173901 0.120748 0.0256579 -0.193267 
0.109474 0.0230445 -0.212008 0.0980965 0.0206506 -0.230215 0.0868473 0.0185049 -0.247973 
0.0759007 0.016641 -0.265346 0.0653622 0.0150956 -0.282362 0.0552649 0.013906 -0.299018 
0.0455737 0.0131059 -0.315272 0.0361974 0.0127207 -0.331058 0.0270083 0.0127632 -0.346295 
0.0178648 0.0132297 -0.360907 0.00863525 0.0140971 -0.374838 -0.0007802 0.0153222 -0.388067 
-0.0104325 0.0168429 -0.400618 -0.0203139 0.0185812 -0.412568 -0.0303552 0.0204487 -0.424036 
-0.0404327 0.0223528 -0.43518 -0.0503812 0.0242043 -0.446176 -0.0600127 0.0259246 -0.457197 
-0.0691382 0.027452 -0.46839 -0.0775888 0.028747 -0.479857 -0.0852347 0.0297947 -0.491634 
-0.0919982 0.0306047 -0.503689 -0.0978605 0.031209 -0.515911 -0.10286 0.0316574 -0.528128 
-0.107085 0.0320103 -0.540114 -0.110657 0.0323316 -0.551621 -0.113716 0.0326807 -0.562396 
-0.1164 0.0331056 -0.572214 -0.118827 0.0336374 -0.580899 -0.12108 0.0342871 -0.588343 
-0.123203 0.0350452 -0.594516 -0.125195 0.035883 -0.599466 -0.127018 0.0367576 -0.60331 
-0.128608 0.0376175 -0.606219 -0.12989 0.0384098 -0.608399 -0.130793 0.0390871 -0.61006 
-0.131268 0.039614 -0.611398 -0.131301 0.0399711 -0.612575 -0.130919 0.0401581 -0.6137 
-0.13019 0.0401931 -0.614829 -0.12922 0.0401103 -0.615965 -0.128144 0.0399554 -0.617064 
-0.127103 0.0397789 -0.618055 -0.126234 0.0396299 -0.618858 -0.12565 0.0395494 -0.619397 
-0.125425 0.0395642 -0.619622 
LINES 2 100
OFFSETS vtktypeint64
0 100 
CONNECTIVITY vtktypeint64
0 1 2 3 4 5 6 7 8 
9 10 11 12 13 14 15 16 17 
18 19 20 21 22 23 24 25 26 
27 28 29 30 31 32 33 34 35 
36 37 38 39 40 41 42 43 44 
45 46 47 48 49 50 51 52 53 
54 55 56 57 58 59 60 61 62 
63 64 65 66 67 68 69 70 71 
72 73 74 75 76 77 78 79 80 
81 82 83 84 85 86 87 88 89 
90 91 92 93 94 95 96 97 98 
99 
POINT_DATA 100
FIELD FieldData 3
_theta 1 100 double
0 0.031733259127 0.063466518254 0.095199777382 0.12693303651 0.15866629564 0.19039955476 0.22213281389 0.25386607302 
0.28559933214 0.31733259127 0.3490658504 0.38079910953 0.41253236865 0.44426562778 0.47599888691 0.50773214603 0.53946540516 
0.57119866429 0.60293192342 0.63466518254 0.66639844167 0.6981317008 0.72986495992 0.76159821905 0.79333147818 0.82506473731 
0.85679799643 0.88853125556 0.92026451469 0.95199777382 0.98373103294 1.0154642921 1.0471975512 1.0789308103 1.1106640695 
1.1423973286 1.1741305877 1.2058638468 1.237597106 1.2693303651 1.3010636242 1.3327968833 1.3645301425 1.3962634016 
1.4279966607 1.4597299198 1.491463179 1.5231964381 1.5549296972 1.5866629564 1.6183962155 1.6501294746 1.6818627337 
1.7135959929 1.745329252 1.7770625111 1.8087957702 1.8405290294 1.8722622885 1.9039955476 1.9357288068 1.9674620659 
1.999195325 2.0309285841 2.0626618433 2.0943951024 2.1261283615 2.1578616206 2.1895948798 2.2213281389 2.253061398 
2.2847946572 2.3165279163 2.3482611754 2.3799944345 2.4117276937 2.4434609528 2.4751942119 2.506927471 2.5386607302 
2.5703939893 2.6021272484 2.6338605076 2.6655937667 2.6973270258 2.7290602849 2.7607935441 2.7925268032 2.8242600623 
2.8559933214 2.8877265806 2.9194598397 2.9511930988 2.982926358 3.0146596171 3.0463928762 3.0781261353 3.1098593945 
3.1415926536 
_radius 1 100 double
5.5565334896e-16 0.013069237022 0.026058112262 0.038878592707 0.051435869585 0.063628924137 0.07535382588 0.086508884523 0.097000464217 
0.10674830453 0.11568944172 0.12378023063 0.13099649383 0.13733235629 0.14279866053 0.14742181675 0.15124350238 0.15432098207 
0.15672729094 0.15855035244 0.15989031436 0.16085482258 0.16155243072 0.16208480918 0.16253889597 0.16298054244 0.1634512235 
0.16396866577 0.16453091036 0.16512208791 0.16571787926 0.16628948102 0.16680623246 0.16723793575 0.16755788511 0.16774698611 
0.16779862272 0.16772341585 0.16755268901 0.16733924707 0.16715417543 0.16707918996 0.16719577349 0.16757422244 0.16826634254 
0.16930403424 0.17070336036 0.17247172668 0.17461527361 0.17714391339 0.18007210003 0.18341452111 0.18717761269 0.19134956396 
0.19589225959 0.20073783185 0.20579061374 0.21093339647 0.21603590064 0.22096344986 0.2255845808 0.22977719709 0.23343352518 
0.236464414 0.2388033959 0.24041046395 0.24127495231 0.24141656554 0.24088370608 0.23974876079 0.23810068549 0.23603577984 
0.23364776706 0.23101814495 0.22820741057 0.22524747176 0.2221356052 0.21883072448 0.21525317334 0.21128927827 0.20680119301 
0.20164133186 0.19566947272 0.18876993079 0.18086622321 0.17193119896 0.16199143425 0.15112558664 0.13945723404 0.12714340018 
0.11436039225 0.10128868447 0.088098386362 0.074936456086 0.061916443527 0.049111328011 0.036549974433 0.024217742691 0.01206164506 
1.231720906e-15 
_area 1 100 double
0 0.00039206058997 0.0015770162891 0.0035734783453 0.0063905290308 0.010005384439 0.01434668778 0.019288733439 0.024657965532 
0.03024976512 0.035851210713 0.041264297293 0.046324110216 0.050907770846 0.054932820125 0.058347928783 0.061122520754 0.063241956267 
0.064711048296 0.065564261424 0.065878104506 0.065778985104 0.065437968149 0.065047452263 0.064787603966 0.064795792068 0.065139348779 
0.06580115053 0.066700265986 0.06772955568 0.068783771169 0.069776525096 0.070651901134 0.071394927233 0.072039716537 0.072666934289 
0.073379990614 0.07426803523 0.075384192603 0.076745284601 0.078337432545 0.080122492915 0.082048998361 0.084064818769 0.086126447741 
0.088205767144 0.090297063993 0.092425796091 0.094659662642 0.097117696693 0.099963328717 0.103367549 0.1074553115 0.11226831861 
0.11775304945 0.1237653042 0.13008912638 0.13646744835 0.14263661099 0.14835672907 0.1534326993 0.15772350566 0.16114091685 
0.16364223838 0.16522272795 0.1659107824 0.16576501778 0.1648679875 0.16330904337 0.16116406227 0.15850019132 0.15539814309 
0.15195796143 0.14828627422 0.14447736039 0.14059349303 0.13664674049 0.13258711886 0.12830416008 0.123644668 0.11844163456 
0.11254604704 0.10585553945 0.098336562898 0.090037648301 0.081091525799 0.071704816919 0.062136226848 0.052667081858 0.043570310772 
0.035084185135 0.027395046991 0.020630030413 0.014858147583 0.010097134029 0.0063239744916 0.0034880159081 0.0015259710437 0.00037760954343 
9.5409791179e-18 
