# vtk DataFile Version 5.1
vtk output
ASCII
DATASET POLYDATA
POINTS 100 float
-0.132048 -0.0400283 0.698721 -0.13205 -0.0399291 0.698453 -0.132072 -0.0394684 0.697574 
-0.132087 -0.0386465 0.696073 -0.132046 -0.0374637 0.693939 -0.131888 -0.03592 0.691158 
-0.131539 -0.0340145 0.687723 -0.130918 -0.0317445 0.683634 -0.129945 -0.0291054 0.678899 
-0.128536 -0.0260918 0.673534 -0.126616 -0.0226978 0.667562 -0.124116 -0.0189195 0.661008 
-0.120977 -0.0147571 0.653895 -0.117148 -0.0102176 0.646235 -0.112594 -0.00531736 0.638027 
-0.107288 -8.45125e-05 0.629249 -0.101215 0.00543969 0.619862 -0.0943744 0.0112001 0.609808 
-0.0867741 0.0171283 0.599013 -0.0784359 0.0231441 0.587398 -0.0693928 0.0291581 0.574886 
-0.0596892 0.0350753 0.561414 -0.0493808 0.0407991 0.54694 -0.0385328 0.046235 0.531451 
-0.0272183 0.0512946 0.514967 -0.0155159 0.0558987 0.497544 -0.00350692 0.0599801 0.479264 
0.00872737 0.0634845 0.460231 0.0211086 0.066372 0.440556 0.0335633 0.0686161 0.420345 
0.0460236 0.0702039 0.399688 0.0584271 0.0711349 0.378642 0.0707146 0.07142 0.357229 
0.0828273 0.0710809 0.335432 0.0947018 0.0701499 0.313195 0.106266 0.0686697 0.290436 
0.117433 0.0666932 0.267059 0.1281 0.064284 0.242971 0.138142 0.0615161 0.218102 
0.147418 0.0584728 0.192418 0.155769 0.0552458 0.165939 0.163029 0.0519316 0.138746 
0.169029 0.048629 0.110981 0.173616 0.045434 0.0828411 0.176657 0.0424353 0.0545704 
0.178058 0.0397092 0.0264367 0.177768 0.0373148 -0.0012877 0.175795 0.0352909 -0.0283489 
0.172203 0.0336532 -0.054533 0.167114 0.0323944 -0.0796824 0.160701 0.0314856 -0.103708 
0.153178 0.0308796 -0.12659 0.144785 0.0305163 -0.148377 0.13577 0.0303289 -0.169173 
0.126373 0.0302503 -0.18912 0.116804 0.0302199 -0.208381 0.107232 0.0301893 -0.227114 
0.0977751 0.0301262 -0.245458 0.0884898 0.0300161 -0.263516 0.0793774 0.0298627 -0.281347 
0.0703877 0.0296853 -0.298963 0.0614314 0.0295147 -0.316334 0.0523956 0.0293878 -0.333403 
0.0431616 0.029342 -0.350094 0.0336229 0.0294092 -0.366332 0.0237013 0.0296113 -0.382059 
0.0133597 0.029957 -0.397248 0.00260971 0.0304404 -0.411905 -0.0084856 0.0310423 -0.426078 
-0.0198156 0.0317325 -0.439846 -0.0312304 0.0324741 -0.453311 -0.0425538 0.0332285 -0.466585 
-0.0535984 0.0339607 -0.47977 -0.0641814 0.0346435 -0.492943 -0.07414 0.0352604 -0.506143 
-0.0833432 0.0358077 -0.519359 -0.0917009 0.0362931 -0.532532 -0.0991674 0.0367335 -0.545553 
-0.105741 0.0371511 -0.558277 -0.111458 0.0375679 -0.570536 -0.116386 0.0380009 -0.582158 
-0.120614 0.0384574 -0.592986 -0.124237 0.0389316 -0.602896 -0.12735 0.0394036 -0.611806 
-0.130039 0.0398399 -0.619689 -0.132373 0.0401971 -0.626571 -0.134403 0.0404265 -0.632528 
-0.136164 0.0404809 -0.63767 -0.137675 0.0403214 -0.642131 -0.138944 0.0399239 -0.646048 
-0.139978 0.0392844 -0.649547 -0.140783 0.0384222 -0.652727 -0.141372 0.0373804 -0.655651 
-0.141766 0.0362236 -0.658342 -0.141995 0.0350328 -0.660785 -0.142096 0.0338985 -0.662933 
-0.142109 0.0329117 -0.664721 -0.14207 0.0321554 -0.666079 -0.142013 0.0316954 -0.666942 
-0.141958 0.0315742 -0.667268 
LINES 2 100
OFFSETS vtktypeint64
0 100 
CONNECTIVITY vtktypeint64
0 1 2 3 4 5 6 7 8 
9 10 11 12 13 14 15 16 17 
18 19 20 21 22 23 24 25 26 
27 28 29 30 31 32 33 34 35 
36 37 38 39 40 41 42 43 44 
45 46 47 48 49 50 51 52 53 
54 55 56 57 58 59 60 61 62 
63 64 65 66 67 68 69 70 71 
72 73 74 75 76 77 78 79 80 
81 82 83 84 85 86 87 88 89 
90 91 92 93 94 95 96 97 98 
99 
POINT_DATA 100
FIELD FieldData 3
_theta 1 100 double
0 0.031733259127 0.063466518254 0.095199777382 0.12693303651 0.15866629564 0.19039955476 0.22213281389 0.25386607302 
0.28559933214 0.31733259127 0.3490658504 0.38079910953 0.41253236865 0.44426562778 0.47599888691 0.50773214603 0.53946540516 
0.57119866429 0.60293192342 0.63466518254 0.66639844167 0.6981317008 0.72986495992 0.76159821905 0.79333147818 0.82506473731 
0.85679799643 0.88853125556 0.92026451469 0.95199777382 0.98373103294 1.0154642921 1.0471975512 1.0789308103 1.1106640695 
1.1423973286 1.1741305877 1.2058638468 1.237597106 1.2693303651 1.3010636242 1.3327968833 1.3645301425 1.3962634016 
1.4279966607 1.4597299198 1.491463179 1.5231964381 1.5549296972 1.5866629564 1.6183962155 1.6501294746 1.6818627337 
1.7135959929 1.745329252 1.7770625111 1.8087957702 1.8405290294 1.8722622885 1.9039955476 1.9357288068 1.9674620659 
1.999195325 2.0309285841 2.0626618433 2.0943951024 2.1261283615 2.1578616206 2.1895948798 2.2213281389 2.253061398 
2.2847946572 2.3165279163 2.3482611754 2.3799944345 2.4117276937 2.4434609528 2.4751942119 2.506927471 2.5386607302 
2.5703939893 2.6021272484 2.6338605076 2.6655937667 2.6973270258 2.7290602849 2.7607935441 2.7925268032 2.8242600623 
2.8559933214 2.8877265806 2.9194598397 2.9511930988 2.982926358 3.0146596171 3.0463928762 3.0781261353 3.1098593945 
3.1415926536 
_radius 1 100 double
5.6614741101e-16 0.014146762487 0.028255477393 0.042285721301 0.05620045952 0.069963770524 0.083535271513 0.096862362623 0.1098723092 
0.12246647858 0.13451868705 0.1458787527 0.15638127467 0.16585866256 0.17415673428 0.18115086845 0.18676069978 0.19096157416 
0.19379133426 0.19535144305 0.19580198705 0.19535075229 0.19423729569 0.1927136186 0.19102351487 0.18938277468 0.18796216248 
0.18687459499 0.18616747074 0.18582087158 0.18575240091 0.18582940948 0.18588862888 0.18576146497 0.18530134932 0.18440929576 
0.18305486967 0.18128957559 0.17924834309 0.17713566464 0.17519686557 0.17368043559 0.17280262493 0.17272686308 0.1735636688 
0.1753843652 0.17823426559 0.18213390035 0.18706640188 0.19295824268 0.19966449688 0.20696754304 0.21459181703 0.22223085098 
0.22957943122 0.23636373994 0.24236447321 0.24743060397 0.25148372418 0.2545143708 0.25657240976 0.25775361963 0.25818435462 
0.25800580657 0.25735908686 0.25637218833 0.25514983899 0.25376717691 0.25226786466 0.2506666339 0.24895543484 0.24711163925 
0.24510636126 0.24291103889 0.24050095702 0.23785526133 0.23495394607 0.23177298145 0.22827900408 0.22442489409 0.2201473032 
0.21536690849 0.20999181263 0.20392398914 0.19706799988 0.18934061083 0.18067966313 0.17105072454 0.16045055718 0.14890711266 
0.13647641069 0.12323709698 0.1092836424 0.094719136703 0.079648581748 0.064173503634 0.048388480378 0.032379797482 0.01622602236 
9.5770363367e-16 
_area 1 100 double
0 0.00052019773727 0.0020581472729 0.0045508294366 0.0079078344162 0.012027681838 0.016811365186 0.022168107101 0.028011576793 
0.034248598935 0.040764925811 0.047413244024 0.05400758933 0.060326672629 0.066127031906 0.071165384181 0.075227583731 0.078159235149 
0.079891185496 0.080453117498 0.079971147146 0.078650465085 0.076750048656 0.074562804127 0.072437134783 0.070817315891 0.069634379509 
0.06875820509 0.068156355305 0.067837563954 0.067849131484 0.068245858606 0.069040614658 0.070173462035 0.071532737844 0.073009740969 
0.07454952225 0.076154020785 0.077794981476 0.079406898212 0.080990399009 0.082622074418 0.084390930275 0.086368535461 0.0886145239 
0.091207593319 0.094277319714 0.098009778771 0.10261400343 0.10825463787 0.11497643956 0.1226614719 0.13103979838 0.13973496213 
0.14831933991 0.15636811575 0.16350693653 0.16944944035 0.17402320501 0.17718070712 0.178961486 0.17949228474 0.1789249416 
0.17733085308 0.17494121033 0.17202798168 0.16873555277 0.16519165474 0.16151120767 0.15779491666 0.15410332358 0.15044022027 
0.14677425472 0.14308975703 0.13939052265 0.13567589237 0.13192073911 0.1280681737 0.12403310298 0.11970925579 0.11497643783 
0.10971175505 0.1038076301 0.097194193333 0.089860641801 0.081869299457 0.073357126821 0.064523135881 0.055604710041 0.046848754417 
0.038484621683 0.030705004482 0.023657813908 0.01744747253 0.01214141818 0.0077784568047 0.0043775409247 0.0019461102784 0.00048661101273 
4.2500725161e-17 
