# vtk DataFile Version 5.1
vtk output
ASCII
DATASET POLYDATA
POINTS 100 float
-0.160235 -0.0340475 0.691087 -0.160405 -0.0341025 0.691192 -0.160952 -0.0340918 0.69148 
-0.161772 -0.0339944 0.691834 -0.162704 -0.0337768 0.692079 -0.163545 -0.033395 0.691996 
-0.164074 -0.0327974 0.691349 -0.164073 -0.0319275 0.689914 -0.163349 -0.0307282 0.687497 
-0.161749 -0.0291453 0.683962 -0.159178 -0.0271314 0.679238 -0.155597 -0.0246499 0.673323 
-0.151028 -0.0216778 0.666284 -0.14554 -0.0182084 0.658242 -0.139241 -0.0142526 0.649352 
-0.13226 -0.00983964 0.639787 -0.12473 -0.00501598 0.629707 -0.116772 0.000156238 0.619247 
-0.108489 0.00560203 0.608494 -0.099952 0.0112372 0.597483 -0.091204 0.0169721 0.586194 
-0.0822607 0.0227162 0.574557 -0.0731192 0.0283816 0.562461 -0.0637675 0.033887 0.549776 
-0.0541956 0.0391599 0.536369 -0.0444046 0.0441388 0.522118 -0.0344138 0.0487738 0.506931 
-0.0242635 0.0530266 0.490757 -0.0140135 0.0568697 0.473586 -0.0037386 0.0602847 0.45545 
0.00647999 0.0632611 0.436413 0.0165639 0.0657942 0.416564 0.0264468 0.0678836 0.395999 
0.0360819 0.0695329 0.37481 0.0454455 0.0707482 0.35307 0.0545368 0.0715392 0.330829 
0.063373 0.0719192 0.30811 0.0719803 0.071906 0.284909 0.0803824 0.0715228 0.261208 
0.0885875 0.0707989 0.236979 0.0965765 0.0697697 0.212203 0.104294 0.0684763 0.186881 
0.111643 0.0669645 0.161044 0.118488 0.065283 0.134762 0.124659 0.0634811 0.108144 
0.129965 0.0616062 0.0813369 0.134211 0.0597009 0.054516 0.137219 0.0578014 0.0278719 
0.13884 0.0559352 0.001596 0.13898 0.0541206 -0.0241358 0.137602 0.0523667 -0.0491773 
0.13474 0.0506745 -0.073423 0.130495 0.0490385 -0.096815 0.125022 0.0474497 -0.119344 
0.118525 0.0458977 -0.141043 0.111229 0.0443739 -0.161982 0.103365 0.0428731 -0.182252 
0.0951466 0.0413956 -0.201954 0.0867526 0.0399475 -0.221181 0.0783151 0.0385401 -0.24001 
0.0699124 0.0371891 -0.258493 0.0615697 0.0359121 -0.276653 0.0532667 0.0347265 -0.294484 
0.0449503 0.0336471 -0.31196 0.0365517 0.032684 -0.329039 0.0280044 0.0318414 -0.345678 
0.019261 0.0311171 -0.361839 0.0103078 0.0305031 -0.377505 0.00117265 0.0299875 -0.392677 
-0.00807161 0.0295565 -0.407386 -0.0173113 0.0291972 -0.421682 -0.0264011 0.0289007 -0.435635 
-0.035178 0.028664 -0.449322 -0.0434778 0.0284918 -0.462815 -0.0511513 0.0283964 -0.476172 
-0.0580796 0.0283971 -0.489427 -0.0641852 0.0285176 -0.502582 -0.0694379 0.028783 -0.515599 
-0.0738557 0.0292152 -0.52841 -0.0775001 0.0298292 -0.540915 -0.0804666 0.0306292 -0.552992 
-0.0828724 0.0316055 -0.564509 -0.0848428 0.0327333 -0.575337 -0.0864972 0.033973 -0.585362 
-0.0879387 0.0352725 -0.594494 -0.0892459 0.0365706 -0.602673 -0.0904692 0.0378028 -0.609876 
-0.0916316 0.0389068 -0.616117 -0.0927325 0.0398291 -0.621439 -0.093755 0.0405304 -0.625912 
-0.0946741 0.0409897 -0.629623 -0.0954649 0.0412074 -0.632667 -0.0961093 0.0412046 -0.635139 
-0.096601 0.0410222 -0.637127 -0.0969467 0.0407157 -0.638708 -0.0971648 0.04035 -0.639943 
-0.0972822 0.0399922 -0.64088 -0.0973285 0.0397041 -0.64155 -0.0973303 0.0395358 -0.641974 
-0.0973062 0.0395198 -0.642162 
LINES 2 100
OFFSETS vtktypeint64
0 100 
CONNECTIVITY vtktypeint64
0 1 2 3 4 5 6 7 8 
9 10 11 12 13 14 15 16 17 
18 19 20 21 22 23 24 25 26 
27 28 29 30 31 32 33 34 35 
36 37 38 39 40 41 42 43 44 
45 46 47 48 49 50 51 52 53 
54 55 56 57 58 59 60 61 62 
63 64 65 66 67 68 69 70 71 
72 73 74 75 76 77 78 79 80 
81 82 83 84 85 86 87 88 89 
90 91 92 93 94 95 96 97 98 
99 
POINT_DATA 100
FIELD FieldData 3
_theta 1 100 double
0 0.031733259127 0.063466518254 0.095199777382 0.12693303651 0.15866629564 0.19039955476 0.22213281389 0.25386607302 
0.28559933214 0.31733259127 0.3490658504 0.38079910953 0.41253236865 0.44426562778 0.47599888691 0.50773214603 0.53946540516 
0.57119866429 0.60293192342 0.63466518254 0.66639844167 0.6981317008 0.72986495992 0.76159821905 0.79333147818 0.82506473731 
0.85679799643 0.88853125556 0.92026451469 0.95199777382 0.98373103294 1.0154642921 1.0471975512 1.0789308103 1.1106640695 
1.1423973286 1.1741305877 1.2058638468 1.237597106 1.2693303651 1.3010636242 1.3327968833 1.3645301425 1.3962634016 
1.4279966607 1.4597299198 1.491463179 1.5231964381 1.5549296972 1.5866629564 1.6183962155 1.6501294746 1.6818627337 
1.7135959929 1.745329252 1.7770625111 1.8087957702 1.8405290294 1.8722622885 1.9039955476 1.9357288068 1.9674620659 
1.999195325 2.0309285841 2.0626618433 2.0943951024 2.1261283615 2.1578616206 2.1895948798 2.2213281389 2.253061398 
2.2847946572 2.3165279163 2.3482611754 2.3799944345 2.4117276937 2.4434609528 2.4751942119 2.506927471 2.5386607302 
2.5703939893 2.6021272484 2.6338605076 2.6655937667 2.6973270258 2.7290602849 2.7607935441 2.7925268032 2.8242600623 
2.8559933214 2.8877265806 2.9194598397 2.9511930988 2.982926358 3.0146596171 3.0463928762 3.0781261353 3.1098593945 
3.1415926536 
_radius 1 100 double
3.0531133177e-16 0.016721512072 0.033259983321 0.049435037799 0.06508242592 0.080061712686 0.094262376662 0.10760717841 0.12005195945 
0.1315816878 0.14220332569 0.15193672688 0.16080513297 0.16882688975 0.17600977395 0.18234888058 0.18782845168 0.1924274034 
0.19612770144 0.1989242218 0.20083440365 0.20190592605 0.20222084446 0.20189507335 0.20107272884 0.19991558124 0.19858865757 
0.19724381092 0.196003706 0.19494894453 0.19411074837 0.19347065711 0.19296729951 0.19250894576 0.19198972917 0.1913073229 
0.19038022183 0.18916313602 0.18765900318 0.18592582668 0.1840764058 0.18226962773 0.18069360091 0.17954317412 0.1789963332 
0.1791944434 0.18022980904 0.18214131944 0.18491659383 0.18849807502 0.19279081489 0.19767048134 0.20299089667 0.20859114237 
0.21430287749 0.21995866643 0.22540148256 0.23049438489 0.23512841939 0.23922677116 0.24274418035 0.24566212343 0.24798153201 
0.24971534559 0.25088282726 0.25150655616 0.25161183594 0.25122742557 0.25038628994 0.24912545492 0.24748474718 0.24550480186 
0.24322488253 0.24068070599 0.23790195734 0.23490909663 0.23170954852 0.2282938468 0.22463229473 0.22067263893 0.21633965279 
0.21153791342 0.20615863254 0.20009013582 0.19323018445 0.18549755945 0.17684051237 0.16724065494 0.15671216087 0.14529730028 
0.13305996348 0.12007881739 0.10644120828 0.092238248074 0.077561070482 0.062498138274 0.047133570515 0.031546519621 0.015811570168 
1.0159795959e-15 
_area 1 100 double
0 0.0005511958718 0.0022084957094 0.0049742131385 0.0088271566125 0.013698156579 0.019454889054 0.025902650241 0.032800664836 
0.039888237434 0.046913083209 0.053654935392 0.059939835089 0.065643418013 0.07068439927 0.075011811993 0.078590954453 0.081393277419 
0.083394613532 0.084583985092 0.084981608687 0.084661681567 0.083782153536 0.082692555531 0.081502526203 0.080266469793 0.079143503416 
0.078303440169 0.07785990673 0.077798728883 0.078035815736 0.07846035926 0.078946729087 0.079368609289 0.079617687257 0.079627592705 
0.079398133833 0.07901439888 0.078668293732 0.07858498734 0.07877224141 0.079241704994 0.080074724226 0.081339121085 0.083045734995 
0.085187357908 0.087806830354 0.090912195097 0.094403484243 0.09825270718 0.10251197241 0.10725329297 0.11252689586 0.11832883232 
0.1245789836 0.13111544545 0.13770936211 0.14409733473 0.15002231703 0.15527123182 0.15969801653 0.16322567189 0.16582963418 
0.1675126145 0.16828381775 0.16815183458 0.16713220689 0.16526329407 0.16262173221 0.15932991335 0.15554960575 0.15145873473 
0.14721682764 0.14293675063 0.13867859517 0.13446128988 0.13027460346 0.12608155197 0.12181481064 0.11737628983 0.11264544182 
0.10749608956 0.10181831235 0.095540942366 0.088650028567 0.081198746052 0.07330516919 0.065136688086 0.056883859183 0.048731530322 
0.04083832682 0.033332321441 0.026320961158 0.019905684908 0.01419242286 0.0092943999645 0.0053276434558 0.0024013030512 0.00060554357634 
1.5232830404e-17 
