# vtk DataFile Version 5.1
vtk output
ASCII
DATASET POLYDATA
POINTS 100 float
-0.0840092 -0.0706167 0.752985 -0.0837001 -0.0705665 0.75227 -0.0827595 -0.0701689 0.750091 
-0.0812476 -0.069385 0.746523 -0.0792595 -0.0681567 0.741686 -0.0769172 -0.0664144 0.735735 
-0.0743597 -0.0640855 0.728845 -0.0717312 -0.0611039 0.721196 -0.0691687 -0.0574187 0.712963 
-0.06679 -0.0530021 0.704302 -0.0646828 -0.0478542 0.695335 -0.062896 -0.0420061 0.686152 
-0.061434 -0.0355188 0.676802 -0.0602543 -0.0284802 0.667297 -0.0592692 -0.0209996 0.657615 
-0.0583511 -0.0132 0.647707 -0.0573413 -0.00521026 0.637506 -0.056062 0.00284296 0.626939 
-0.0543298 0.0108421 0.615927 -0.0519703 0.0186842 0.604404 -0.0488322 0.0262835 0.59231 
-0.0447998 0.0335732 0.579606 -0.0398027 0.0405034 0.566265 -0.0338215 0.0470387 0.552279 
-0.0268896 0.0531537 0.537651 -0.0190907 0.0588291 0.522396 -0.0105512 0.064047 0.506537 
-0.00143036 0.0687883 0.490101 0.00809338 0.0730302 0.473117 0.0178363 0.076747 0.455616 
0.0276236 0.0799107 0.437625 0.0373019 0.0824944 0.419171 0.0467487 0.0844761 0.400279 
0.0558781 0.0858423 0.380971 0.0646425 0.0865922 0.361264 0.073029 0.0867406 0.341171 
0.0810528 0.0863188 0.320699 0.088747 0.0853752 0.299846 0.09615 0.0839729 0.278603 
0.103293 0.0821866 0.256953 0.110189 0.0800976 0.234872 0.116823 0.0777889 0.21233 
0.123146 0.07534 0.189296 0.129075 0.0728215 0.165744 0.134495 0.0702918 0.141657 
0.139267 0.067795 0.117032 0.143238 0.0653594 0.0918886 0.146258 0.0629991 0.0662716 
0.148189 0.060716 0.0402525 0.148922 0.0585031 0.0139305 0.14839 0.0563483 -0.0125708 
0.146569 0.0542386 -0.0391086 0.14349 0.0521631 -0.0655288 0.139232 0.0501162 -0.0916749 
0.133917 0.0480983 -0.117398 0.127702 0.0461171 -0.142564 0.120762 0.0441858 -0.167066 
0.113278 0.0423221 -0.190823 0.10542 0.0405456 -0.213787 0.0973367 0.0388754 -0.235941 
0.0891389 0.0373279 -0.257294 0.0808984 0.035915 -0.277875 0.0726428 0.0346433 -0.297725 
0.0643592 0.0335142 -0.316891 0.056001 0.0325245 -0.335414 0.0474986 0.0316681 -0.35333 
0.0387721 0.0309382 -0.370661 0.0297454 0.0303289 -0.387415 0.0203597 0.0298376 -0.403595 
0.0105841 0.0294657 -0.419197 0.000424448 0.0292197 -0.434218 -0.010073 0.0291102 -0.448667 
-0.0208218 0.0291512 -0.462562 -0.0316999 0.0293578 -0.475944 -0.0425582 0.0297439 -0.488868 
-0.0532316 0.0303193 -0.501406 -0.0635521 0.0310875 -0.513637 -0.0733619 0.0320432 -0.525638 
-0.082526 0.0331718 -0.537477 -0.0909418 0.0344484 -0.549195 -0.0985466 0.0358386 -0.560801 
-0.10532 0.0373006 -0.572264 -0.111285 0.0387871 -0.583508 -0.116501 0.0402489 -0.594416 
-0.121057 0.0416377 -0.604838 -0.125062 0.04291 -0.614602 -0.128634 0.0440295 -0.62353 
-0.131886 0.0449699 -0.63146 -0.134919 0.0457162 -0.638257 -0.13781 0.0462656 -0.643838 
-0.140607 0.0466268 -0.648176 -0.143326 0.0468194 -0.651314 -0.145953 0.0468717 -0.653355 
-0.148446 0.046818 -0.654465 -0.150741 0.0466964 -0.654849 -0.152761 0.0465454 -0.65474 
-0.154427 0.0464008 -0.65437 -0.155664 0.0462936 -0.653951 -0.156414 0.0462475 -0.65365 
-0.156636 0.0462771 -0.653575 
LINES 2 100
OFFSETS vtktypeint64
0 100 
CONNECTIVITY vtktypeint64
0 1 2 3 4 5 6 7 8 
9 10 11 12 13 14 15 16 17 
18 19 20 21 22 23 24 25 26 
27 28 29 30 31 32 33 34 35 
36 37 38 39 40 41 42 43 44 
45 46 47 48 49 50 51 52 53 
54 55 56 57 58 59 60 61 62 
63 64 65 66 67 68 69 70 71 
72 73 74 75 76 77 78 79 80 
81 82 83 84 85 86 87 88 89 
90 91 92 93 94 95 96 97 98 
99 
POINT_DATA 100
FIELD FieldData 3
_theta 1 100 double
0 0.031733259127 0.063466518254 0.095199777382 0.12693303651 0.15866629564 0.19039955476 0.22213281389 0.25386607302 
0.28559933214 0.31733259127 0.3490658504 0.38079910953 0.41253236865 0.44426562778 0.47599888691 0.50773214603 0.53946540516 
0.57119866429 0.60293192342 0.63466518254 0.66639844167 0.6981317008 0.72986495992 0.76159821905 0.79333147818 0.82506473731 
0.85679799643 0.88853125556 0.92026451469 0.95199777382 0.98373103294 1.0154642921 1.0471975512 1.0789308103 1.1106640695 
1.1423973286 1.1741305877 1.2058638468 1.237597106 1.2693303651 1.3010636242 1.3327968833 1.3645301425 1.3962634016 
1.4279966607 1.4597299198 1.491463179 1.5231964381 1.5549296972 1.5866629564 1.6183962155 1.6501294746 1.6818627337 
1.7135959929 1.745329252 1.7770625111 1.8087957702 1.8405290294 1.8722622885 1.9039955476 1.9357288068 1.9674620659 
1.999195325 2.0309285841 2.0626618433 2.0943951024 2.1261283615 2.1578616206 2.1895948798 2.2213281389 2.253061398 
2.2847946572 2.3165279163 2.3482611754 2.3799944345 2.4117276937 2.4434609528 2.4751942119 2.506927471 2.5386607302 
2.5703939893 2.6021272484 2.6338605076 2.6655937667 2.6973270258 2.7290602849 2.7607935441 2.7925268032 2.8242600623 
2.8559933214 2.8877265806 2.9194598397 2.9511930988 2.982926358 3.0146596171 3.0463928762 3.0781261353 3.1098593945 
3.1415926536 
_radius 1 100 double
3.4805314752e-16 0.012558532991 0.025073595443 0.037492930537 0.049767053076 0.061849747839 0.073697531375 0.085268426716 0.096520532385 
0.10741078313 0.1178941245 0.12792320503 0.13744870049 0.1464204814 0.15478989011 0.1625132862 0.16955671654 0.17590115151 
0.18154735776 0.18651930051 0.19086507802 0.19465479193 0.19797536139 0.20092292438 0.20359393812 0.20607625488 0.20844130765 
0.21073820151 0.21299009846 0.21519289651 0.21731592868 0.21930435853 0.22108314882 0.22256275694 0.22364679485 0.2242416339 
0.22426739636 0.22366917077 0.22242687876 0.22056219335 0.21814128263 0.21527279582 0.21210121936 0.20879636545 0.20554028798 
0.20251340092 0.19988193245 0.19778873595 0.19634846338 0.19564632889 0.19573820792 0.19664978659 0.19837394988 0.20086748155 
0.20404924842 0.20780189943 0.21197802583 0.21641034498 0.22092438102 0.22535164007 0.22954141124 0.23336984427 0.2367455941 
0.2396118949 0.24194534645 0.24375195165 0.24506105595 0.24591785823 0.24637514871 0.24648493806 0.24629068413 0.24582086628 
0.24508463298 0.24407008566 0.24274541017 0.24106252433 0.23896228662 0.23637988247 0.23324909591 0.22950486526 0.22508446172 
0.21992827148 0.21398118207 0.20719507641 0.19953228562 0.19096936644 0.1815003775 0.17113890143 0.15991831258 0.14789014488 
0.13512080112 0.12168718436 0.10767202807 0.093159684614 0.078232908882 0.062970849511 0.047448170885 0.031735062136 0.015897852524 
1.1019691537e-15 
_area 1 100 double
0 0.00048000061518 0.0019121096334 0.0042715460125 0.0075136055025 0.011569709737 0.01634443262 0.021715756499 0.02754001777 
0.033661203571 0.039922356064 0.046175743269 0.052288655309 0.058143319912 0.063632199032 0.068652630043 0.073105543038 0.076900858235 
0.079968398837 0.08227037879 0.083811507747 0.084644882477 0.08487368435 0.084648640551 0.084160501359 0.083628325463 0.083286146608 
0.083363011787 0.084076464764 0.085626907324 0.08783271535 0.090478625451 0.093420638944 0.096549654829 0.099594486145 0.10233729184 
0.10460297872 0.10626131383 0.10724105536 0.10754338839 0.107255924 0.10656737765 0.1056842544 0.10472044914 0.10371864386 
0.10273050832 0.10185229363 0.10121711533 0.10097247966 0.101259495 0.1021979957 0.10387845918 0.10635833908 0.10965437082 
0.11372458178 0.11844902982 0.12362904103 0.12901098153 0.13432315335 0.13931364025 0.14378199655 0.14759786325 0.1506979502 
0.15306128375 0.15468454835 0.15557861933 0.15577582367 0.15532965108 0.15430417343 0.15276150138 0.15075500831 0.14832540033 
0.14549422223 0.14225968031 0.13860542642 0.13452619541 0.1300617517 0.12531727391 0.12042963452 0.11546491627 0.11036395606 
0.1050123182 0.099313787834 0.093211813392 0.086687967236 0.079756129062 0.072458201749 0.064863313829 0.057069216374 0.049201993936 
0.041411130418 0.03386048952 0.026718173453 0.020147854128 0.014302352463 0.0093188671136 0.0053150505976 0.0023856564986 0.00059994132055 
7.0856663378e-17 
