# vtk DataFile Version 5.1
vtk output
ASCII
DATASET POLYDATA
POINTS 100 float
-0.0950746 -0.030259 0.75132 -0.0949408 -0.0303544 0.751423 -0.0945894 -0.0304646 0.751728 
-0.0940306 -0.0305558 0.752123 -0.0932802 -0.0305755 0.752434 -0.092357 -0.0304562 0.752442 
-0.0912799 -0.0301204 0.751901 -0.0900634 -0.0294872 0.750563 -0.0887143 -0.0284778 0.748196 
-0.0872273 -0.0270216 0.744607 -0.0855819 -0.0250613 0.739652 -0.0837404 -0.022557 0.733246 
-0.0816471 -0.0194887 0.725364 -0.0792299 -0.0158585 0.716038 -0.0764028 -0.0116896 0.705344 
-0.0730718 -0.00702611 0.693393 -0.0691412 -0.00193015 0.680312 -0.064522 0.00352084 0.666232 
-0.0591403 0.00923766 0.651274 -0.0529455 0.0151231 0.63554 -0.0459177 0.0210758 0.619107 
-0.0380721 0.0269936 0.602028 -0.0294617 0.0327774 0.584333 -0.0201758 0.0383336 0.566034 
-0.0103355 0.0435772 0.547138 -8.61908e-05 0.0484337 0.527649 0.0104129 0.0528412 0.507581 
0.0210002 0.0567512 0.486958 0.0315241 0.0601302 0.465818 0.0418537 0.0629591 0.444212 
0.051888 0.0652335 0.422199 0.061561 0.0669625 0.399841 0.0708426 0.0681669 0.377194 
0.0797359 0.0688769 0.354299 0.0882697 0.0691296 0.331182 0.0964874 0.0689659 0.307844 
0.104434 0.0684268 0.284265 0.112143 0.0675512 0.260408 0.119624 0.066373 0.236222 
0.126849 0.0649196 0.211655 0.133753 0.0632113 0.186659 0.140227 0.0612617 0.161205 
0.146127 0.0590794 0.135291 0.151277 0.0566709 0.108944 0.155489 0.0540439 0.0822276 
0.158576 0.0512112 0.0552383 0.160369 0.0481941 0.0281012 0.160733 0.0450265 0.000962071 
0.159583 0.0417558 -0.0260229 0.156887 0.0384448 -0.0526984 0.152677 0.0351698 -0.0789208 
0.147041 0.0320183 -0.104568 0.140117 0.0290844 -0.129544 0.132081 0.0264633 -0.153787 
0.123132 0.0242446 -0.177265 0.113471 0.0225051 -0.199975 0.10329 0.021303 -0.221937 
0.092755 0.0206725 -0.243186 0.0819979 0.0206198 -0.263768 0.0711102 0.0211221 -0.283727 
0.060145 0.0221282 -0.303105 0.0491223 0.0235619 -0.321935 0.0380386 0.0253274 -0.340242 
0.0268792 0.0273159 -0.358045 0.0156315 0.029414 -0.375355 0.00429659 0.031512 -0.392186 
-0.00710124 0.0335114 -0.408554 -0.0185092 0.0353318 -0.424483 -0.0298456 0.0369157 -0.440006 
-0.0410033 0.0382309 -0.455166 -0.0518586 0.0392711 -0.470011 -0.0622816 0.0400537 -0.484591 
-0.0721493 0.0406154 -0.498951 -0.0813574 0.0410071 -0.513126 -0.0898308 0.0412869 -0.527131 
-0.0975302 0.0415131 -0.540958 -0.104455 0.0417385 -0.554567 -0.110642 0.042004 -0.567894 
-0.116159 0.0423354 -0.580843 -0.121092 0.0427413 -0.593298 -0.125541 0.0432126 -0.605126 
-0.129599 0.0437244 -0.616192 -0.133348 0.0442395 -0.626361 -0.136847 0.0447126 -0.635518 
-0.140128 0.0450955 -0.643571 -0.143194 0.0453426 -0.650462 -0.146026 0.0454158 -0.656169 
-0.148586 0.0452886 -0.660712 -0.15083 0.0449492 -0.664148 -0.152713 0.0444022 -0.666571 
-0.154208 0.0436687 -0.668103 -0.155304 0.0427852 -0.668889 -0.156016 0.0418011 -0.669087 
-0.156386 0.040775 -0.668859 -0.156479 0.0397709 -0.668362 -0.156373 0.0388531 -0.667744 
-0.156155 0.038082 -0.667133 -0.155908 0.0375096 -0.666635 -0.1557 0.0371759 -0.666328 
-0.155575 0.0371064 -0.666261 
LINES 2 100
OFFSETS vtktypeint64
0 100 
CONNECTIVITY vtktypeint64
0 1 2 3 4 5 6 7 8 
9 10 11 12 13 14 15 16 17 
18 19 20 21 22 23 24 25 26 
27 28 29 30 31 32 33 34 35 
36 37 38 39 40 41 42 43 44 
45 46 47 48 49 50 51 52 53 
54 55 56 57 58 59 60 61 62 
63 64 65 66 67 68 69 70 71 
72 73 74 75 76 77 78 79 80 
81 82 83 84 85 86 87 88 89 
90 91 92 93 94 95 96 97 98 
99 
POINT_DATA 100
FIELD FieldData 3
_theta 1 100 double
0 0.031733259127 0.063466518254 0.095199777382 0.12693303651 0.15866629564 0.19039955476 0.22213281389 0.25386607302 
0.28559933214 0.31733259127 0.3490658504 0.38079910953 0.41253236865 0.44426562778 0.47599888691 0.50773214603 0.53946540516 
0.57119866429 0.60293192342 0.63466518254 0.66639844167 0.6981317008 0.72986495992 0.76159821905 0.79333147818 0.82506473731 
0.85679799643 0.88853125556 0.92026451469 0.95199777382 0.98373103294 1.0154642921 1.0471975512 1.0789308103 1.1106640695 
1.1423973286 1.1741305877 1.2058638468 1.237597106 1.2693303651 1.3010636242 1.3327968833 1.3645301425 1.3962634016 
1.4279966607 1.4597299198 1.491463179 1.5231964381 1.5549296972 1.5866629564 1.6183962155 1.6501294746 1.6818627337 
1.7135959929 1.745329252 1.7770625111 1.8087957702 1.8405290294 1.8722622885 1.9039955476 1.9357288068 1.9674620659 
1.999195325 2.0309285841 2.0626618433 2.0943951024 2.1261283615 2.1578616206 2.1895948798 2.2213281389 2.253061398 
2.2847946572 2.3165279163 2.3482611754 2.3799944345 2.4117276937 2.4434609528 2.4751942119 2.506927471 2.5386607302 
2.5703939893 2.6021272484 2.6338605076 2.6655937667 2.6973270258 2.7290602849 2.7607935441 2.7925268032 2.8242600623 
2.8559933214 2.8877265806 2.9194598397 2.9511930988 2.982926358 3.0146596171 3.0463928762 3.0781261353 3.1098593945 
3.1415926536 
_radius 1 100 double
1.556266442e-15 0.014633784337 0.029180570714 0.043547106151 0.057630867484 0.071317761344 0.084482136326 0.096989238402 0.10869996524 
0.11947762757 0.12919638357 0.13775097273 0.14506717927 0.15111198803 0.15590177001 0.15950646921 0.16204814034 0.16369337579 
0.16464060659 0.16510418718 0.16529725838 0.16541500119 0.16561964137 0.16602867127 0.1667079354 0.16767094629 0.1688847359 
0.17028102973 0.17177040248 0.1732568508 0.17465039045 0.17587473878 0.17686677973 0.17757021457 0.17793478899 0.17792490745 
0.17752831569 0.17675971204 0.17566126804 0.17430228448 0.17277803934 0.17120621819 0.16971886203 0.16844904005 0.16751457191 
0.16700448435 0.16697417284 0.16745083838 0.16844484226 0.16995997267 0.17199740183 0.17455202201 0.17760347569 0.18110632665 
0.18498398743 0.18912928709 0.19341172724 0.19768895573 0.20181900395 0.20567056239 0.20913020395 0.2121069844 0.21453564069 
0.21637957235 0.21763415286 0.21832998044 0.2185347224 0.21835153861 0.21791203468 0.21736257055 0.21684453972 0.21647155287 
0.21630849069 0.2163579769 0.21655801086 0.21679065067 0.21689789285 0.21669957632 0.21600955036 0.21464878725 0.21245582247 
0.20929531589 0.20506506516 0.1997011122 0.19318010772 0.18551804746 0.17676493001 0.16699575556 0.15629936669 0.14476750756 
0.13248664042 0.1195342176 0.10597950441 0.091887448667 0.077323312691 0.062356114487 0.047059989408 0.03151370101 0.015799179623 
4.4672370196e-16 
_area 1 100 double
0 0.00050184410882 0.0019947765985 0.0044421787846 0.0077864238955 0.011951612809 0.016842527541 0.022337782324 0.028279434284 
0.034464413054 0.040643386875 0.046531633327 0.051834189897 0.056282750248 0.059675317537 0.061905989592 0.062976549283 0.062991845256 
0.06214651559 0.060706750141 0.058986062004 0.057313673024 0.05598541482 0.05517576769 0.054899191376 0.05506822105 0.055561871318 
0.056296724862 0.057288394138 0.058545276774 0.059985736639 0.061557420814 0.063195834524 0.064882664401 0.066554031943 0.068081736691 
0.069333351617 0.070219468132 0.070711154366 0.070861758042 0.070836174867 0.070868713509 0.071115052804 0.071636650653 0.072456061978 
0.073561585234 0.074919039921 0.076511383758 0.078384933447 0.080665977926 0.08352747695 0.08712186502 0.091519757979 0.096672572728 
0.10239253614 0.10836081175 0.11418607605 0.11949822859 0.12403460095 0.12769035115 0.13052266157 0.13270647226 0.13444610126 
0.13586443258 0.13692772062 0.13746690334 0.13727800822 0.13623456011 0.13436500539 0.13186939402 0.12907381489 0.12634388292 
0.12398748494 0.12217510093 0.12089867196 0.11998239018 0.11914592315 0.11809156586 0.11656720094 0.11438106 0.11138452129 
0.10745368115 0.10249043682 0.096446091892 0.089354479272 0.081354513986 0.072687336834 0.063665462091 0.054622482526 0.045858887115 
0.037603564914 0.030006979526 0.02316217115 0.017130909409 0.011959443638 0.0076844729079 0.0043344961245 0.001929803504 0.00048289867377 
7.600748353e-17 
