# vtk DataFile Version 5.1
vtk output
ASCII
DATASET POLYDATA
POINTS 100 float
-0.133777 -0.0390561 0.673786 -0.133701 -0.0386201 0.673245 -0.13343 -0.0371085 0.671592 
-0.13297 -0.0345934 0.668882 -0.132336 -0.0311903 0.665198 -0.131543 -0.0270477 0.660651 
-0.130603 -0.0223338 0.655362 -0.129521 -0.0172227 0.649459 -0.128293 -0.0118804 0.643062 
-0.126899 -0.00645301 0.636274 -0.1253 -0.00105854 0.629176 -0.123441 0.0042183 0.621816 
-0.121246 0.00932635 0.614209 -0.118625 0.0142448 0.606339 -0.115477 0.0189765 0.598161 
-0.111695 0.0235396 0.589603 -0.10718 0.0279576 0.580579 -0.101842 0.0322511 0.570998 
-0.0956174 0.0364301 0.560767 -0.0884735 0.0404896 0.549807 -0.0804148 0.0444082 0.538057 
-0.0714882 0.0481495 0.525478 -0.0617825 0.0516665 0.512058 -0.0514255 0.0549082 0.497811 
-0.0405762 0.0578264 0.482774 -0.0294149 0.0603827 0.467005 -0.0181298 0.0625543 0.450572 
-0.00690296 0.0643378 0.43355 0.00410358 0.0657494 0.41601 0.0147601 0.0668237 0.398014 
0.0249781 0.0676088 0.37961 0.034715 0.06816 0.360828 0.0439739 0.0685325 0.341677 
0.0527975 0.068774 0.322149 0.0612584 0.0689182 0.30222 0.0694441 0.0689806 0.281856 
0.0774411 0.0689567 0.261021 0.0853175 0.0688223 0.239682 0.0931079 0.0685381 0.217817 
0.100801 0.0680544 0.195421 0.108334 0.0673191 0.17251 0.115589 0.066285 0.149125 
0.122402 0.0649173 0.125331 0.128571 0.0631991 0.101216 0.133874 0.0611354 0.076888 
0.138092 0.0587542 0.0524663 0.141023 0.056105 0.0280782 0.142511 0.053255 0.00385025 
0.142455 0.0502834 -0.0200983 0.140825 0.0472752 -0.0436616 0.137663 0.0443137 -0.066752 
0.133088 0.0414745 -0.0893028 0.127277 0.0388206 -0.111269 0.12046 0.0363992 -0.132629 
0.112891 0.0342402 -0.153375 0.104834 0.0323576 -0.173521 0.0965391 0.0307513 -0.193085 
0.0882211 0.0294109 -0.212096 0.0800492 0.0283197 -0.230581 0.0721365 0.0274584 -0.248567 
0.0645384 0.0268082 -0.266076 0.0572575 0.0263532 -0.283124 0.0502534 0.026081 -0.29972 
0.0434577 0.0259822 -0.315872 0.0367902 0.0260491 -0.331583 0.0301754 0.0262741 -0.346859 
0.0235575 0.0266472 -0.361709 0.0169108 0.027155 -0.376146 0.0102461 0.027779 -0.390192 
0.00361046 0.0284963 -0.403878 -0.00291679 0.0292808 -0.417238 -0.00923387 0.0301047 -0.430314 
-0.0152286 0.0309414 -0.443149 -0.0207918 0.0317683 -0.455783 -0.0258308 0.032569 -0.468248 
-0.0302798 0.033335 -0.480568 -0.0341076 0.0340662 -0.492749 -0.0373204 0.0347704 -0.504781 
-0.03996 0.0354609 -0.516633 -0.0420988 0.0361539 -0.528258 -0.04383 0.0368654 -0.539588 
-0.0452572 0.0376068 -0.550544 -0.0464827 0.0383828 -0.561036 -0.0475973 0.0391887 -0.570973 
-0.048672 0.0400102 -0.580264 -0.0497533 0.0408239 -0.588829 -0.0508617 0.0415998 -0.596602 
-0.0519937 0.0423049 -0.603537 -0.0531271 0.0429073 -0.609611 -0.0542277 0.0433807 -0.614826 
-0.055257 0.0437084 -0.619208 -0.0561796 0.0438862 -0.622807 -0.0569689 0.0439235 -0.625691 
-0.057611 0.0438435 -0.627941 -0.0581051 0.0436801 -0.629649 -0.0584624 0.0434751 -0.630905 
-0.0587026 0.0432728 -0.631796 -0.0588486 0.0431147 -0.632395 -0.0589216 0.0430347 -0.632759 
-0.058936 0.0430546 -0.632924 
LINES 2 100
OFFSETS vtktypeint64
0 100 
CONNECTIVITY vtktypeint64
0 1 2 3 4 5 6 7 8 
9 10 11 12 13 14 15 16 17 
18 19 20 21 22 23 24 25 26 
27 28 29 30 31 32 33 34 35 
36 37 38 39 40 41 42 43 44 
45 46 47 48 49 50 51 52 53 
54 55 56 57 58 59 60 61 62 
63 64 65 66 67 68 69 70 71 
72 73 74 75 76 77 78 79 80 
81 82 83 84 85 86 87 88 89 
90 91 92 93 94 95 96 97 98 
99 
POINT_DATA 100
FIELD FieldData 3
_theta 1 100 double
0 0.031733259127 0.063466518254 0.095199777382 0.12693303651 0.15866629564 0.19039955476 0.22213281389 0.25386607302 
0.28559933214 0.31733259127 0.3490658504 0.38079910953 0.41253236865 0.44426562778 0.47599888691 0.50773214603 0.53946540516 
0.57119866429 0.60293192342 0.63466518254 0.66639844167 0.6981317008 0.72986495992 0.76159821905 0.79333147818 0.82506473731 
0.85679799643 0.88853125556 0.92026451469 0.95199777382 0.98373103294 1.0154642921 1.0471975512 1.0789308103 1.1106640695 
1.1423973286 1.1741305877 1.2058638468 1.237597106 1.2693303651 1.3010636242 1.3327968833 1.3645301425 1.3962634016 
1.4279966607 1.4597299198 1.491463179 1.5231964381 1.5549296972 1.5866629564 1.6183962155 1.6501294746 1.6818627337 
1.7135959929 1.745329252 1.7770625111 1.8087957702 1.8405290294 1.8722622885 1.9039955476 1.9357288068 1.9674620659 
1.999195325 2.0309285841 2.0626618433 2.0943951024 2.1261283615 2.1578616206 2.1895948798 2.2213281389 2.253061398 
2.2847946572 2.3165279163 2.3482611754 2.3799944345 2.4117276937 2.4434609528 2.4751942119 2.506927471 2.5386607302 
2.5703939893 2.6021272484 2.6338605076 2.6655937667 2.6973270258 2.7290602849 2.7607935441 2.7925268032 2.8242600623 
2.8559933214 2.8877265806 2.9194598397 2.9511930988 2.982926358 3.0146596171 3.0463928762 3.0781261353 3.1098593945 
3.1415926536 
_radius 1 100 double
1.1123893155e-15 0.012743994259 0.0253606688 0.03772946628 0.049760043972 0.061398315599 0.072624031598 0.083441274064 0.093865075223 
0.10390790496 0.11356899031 0.12282795679 0.13164291808 0.13995237261 0.14768010778 0.15474245835 0.16105735381 0.16655442123 
0.17118504426 0.17493097249 0.17781005334 0.17987796107 0.18122533727 0.18197045708 0.18224830931 0.18219768182 0.18194828774 
0.18160997924 0.18126553059 0.18096732026 0.1807369394 0.18056626377 0.1804195557 0.18023804309 0.17994914238 0.1794807133 
0.17877781136 0.17781788459 0.17662080787 0.17525137436 0.17381319428 0.17243477043 0.17125116182 0.17038704908 0.16994676328 
0.17001291749 0.17065040582 0.1719104358 0.17383055156 0.1764293867 0.17969761962 0.18358870838 0.18801384736 0.19284447277 
0.19792271732 0.20307707273 0.20813899187 0.21295673916 0.21740454605 0.22138683935 0.2248383699 0.2277214784 0.23002174321 
0.23174307163 0.23290301884 0.23352878431 0.23365399112 0.23331607308 0.23255395803 0.23140577431 0.22990648512 0.22808557909 
0.22596509914 0.22355828424 0.22086891793 0.21789124199 0.21461018344 0.21100174106 0.20703358578 0.20266607421 0.19785386943 
0.19254825118 0.18670005449 0.18026303746 0.17319735098 0.16547270171 0.1570708282 0.14798706889 0.13823101014 0.12782633222 
0.11680996054 0.10523054474 0.093146259477 0.080622013696 0.06772632729 0.054528284188 0.041095017964 0.027490106658 0.013773077065 
1.0683536193e-15 
_area 1 100 double
0 0.00050515246704 0.0019840661917 0.0043362395107 0.0074212091284 0.011088700051 0.015204470156 0.01966350105 0.024387296281 
0.029309046609 0.034356029551 0.039438275515 0.044446985754 0.04926019104 0.053750422752 0.057790599452 0.061257493055 0.064034957186 
0.066021364129 0.067145678157 0.067391322806 0.066819990392 0.065588360388 0.063952276675 0.062394520766 0.061049962734 0.060056599836 
0.059519884377 0.059454294313 0.059808347206 0.060515048578 0.061512587697 0.062742417588 0.064109921528 0.065471913915 0.066683278243 
0.067626531088 0.068232926999 0.068498417343 0.068490767874 0.068344989825 0.068245820162 0.068393572381 0.068951075185 0.069984487672 
0.071445246301 0.073233090903 0.075359096471 0.07778627491 0.080555554463 0.08381343515 0.087672442204 0.092136801016 0.09712630598 
0.10250470141 0.10809629518 0.11370553415 0.11913719612 0.12420920793 0.12875601373 0.13262826584 0.13569861663 0.13788116635 
0.13916673193 0.1396654762 0.1395628808 0.13892968654 0.13775128322 0.13603079175 0.13380853801 0.13113637747 0.12806395955 
0.12464041766 0.12091742127 0.11695059705 0.11279731487 0.10851034586 0.10412927792 0.099673996712 0.095144177661 0.090524766525 
0.085793444796 0.080926044479 0.075899157309 0.070691659858 0.065286550852 0.059673451668 0.053852575758 0.047841644396 0.041685382663 
0.035463741418 0.029293953105 0.023324309466 0.017721376357 0.012654504903 0.0082814906653 0.0047378942476 0.0021308111404 0.00053644004229 
4.027483892e-17 
