# vtk DataFile Version 5.1
vtk output
ASCII
DATASET POLYDATA
POINTS 100 float
-0.18853 -0.0208559 0.783056 -0.188486 -0.0209994 0.782355 -0.188319 -0.0212873 0.78041 
-0.187973 -0.021661 0.777272 -0.187358 -0.0220301 0.773019 -0.186367 -0.0222835 0.767747 
-0.184886 -0.0223024 0.761565 -0.182808 -0.0219744 0.754582 -0.180041 -0.0212055 0.746898 
-0.176524 -0.0199305 0.738599 -0.172226 -0.0181183 0.729746 -0.167153 -0.0157734 0.720378 
-0.161341 -0.0129322 0.710508 -0.154851 -0.00965622 0.700128 -0.147761 -0.00602194 0.68921 
-0.140155 -0.00211009 0.677718 -0.132113 0.00200469 0.665609 -0.123703 0.00626191 0.652848 
-0.114976 0.01062 0.639404 -0.105967 0.0150572 0.625262 -0.0966898 0.0195682 0.610421 
-0.0871482 0.0241573 0.594893 -0.0773387 0.0288299 0.578702 -0.067259 0.0335823 0.561878 
-0.0569145 0.0383931 0.54445 -0.0463235 0.0432163 0.526442 -0.0355201 0.0479787 0.507868 
-0.0245538 0.0525808 0.488728 -0.013487 0.0569029 0.469002 -0.00238921 0.060814 0.448658 
0.00866866 0.0641843 0.42765 0.019621 0.0668979 0.405926 0.0304124 0.0688654 0.383432 
0.0410007 0.0700337 0.360126 0.0513562 0.0703926 0.335979 0.0614585 0.0699758 0.310987 
0.0712902 0.0688579 0.285175 0.0808282 0.0671462 0.258601 0.0900348 0.0649695 0.231354 
0.0988497 0.0624641 0.203555 0.107184 0.0597608 0.175349 0.114919 0.0569719 0.146898 
0.121907 0.0541827 0.118373 0.127982 0.0514462 0.0899437 0.13297 0.0487836 0.0617707 
0.136703 0.0461884 0.0339947 0.139041 0.0436348 0.00673178 0.139882 0.0410888 -0.0199314 
0.139181 0.0385195 -0.0459389 0.136958 0.0359103 -0.0712645 0.1333 0.0332665 -0.0959084 
0.128361 0.0306199 -0.119892 0.122346 0.0280292 -0.143252 0.115503 0.0255744 -0.166031 
0.108095 0.0233495 -0.188274 0.10038 0.0214509 -0.210022 0.0925922 0.0199656 -0.231305 
0.0849185 0.0189597 -0.25214 0.0774879 0.0184699 -0.272533 0.0703636 0.0184976 -0.292475 
0.0635438 0.019009 -0.311948 0.0569702 0.0199379 -0.330929 0.0505421 0.0211948 -0.349391 
0.0441352 0.0226773 -0.36731 0.0376224 0.0242826 -0.384669 0.0308942 0.0259202 -0.401462 
0.0238757 0.0275221 -0.417693 0.0165386 0.0290498 -0.433381 0.00890641 0.0304968 -0.448556 
0.00105345 0.0318869 -0.46326 -0.00690362 0.0332674 -0.477541 -0.014819 0.0346997 -0.491449 
-0.0225346 0.0362475 -0.505032 -0.0298978 0.0379648 -0.51833 -0.0367777 0.0398855 -0.531371 
-0.0430786 0.0420159 -0.544168 -0.0487478 0.0443316 -0.556714 -0.0537778 0.0467785 -0.568979 
-0.0582023 0.0492786 -0.580916 -0.0620878 0.0517397 -0.592457 -0.0655205 0.0540663 -0.603519 
-0.0685925 0.0561727 -0.614007 -0.0713874 0.0579935 -0.623824 -0.0739696 0.0594924 -0.632873 
-0.0763758 0.0606665 -0.641066 -0.0786131 0.0615462 -0.648332 -0.0806613 0.0621903 -0.654621 
-0.0824798 0.0626779 -0.65991 -0.0840181 0.0630965 -0.664208 -0.0852279 0.0635297 -0.667554 
-0.0860747 0.0640457 -0.670017 -0.0865477 0.0646874 -0.671695 -0.0866655 0.0654667 -0.672708 
-0.0864778 0.0663636 -0.673192 -0.0860615 0.0673288 -0.673291 -0.0855131 0.0682919 -0.673148 
-0.0849371 0.069171 -0.672894 -0.0844335 0.0698859 -0.672642 -0.0840848 0.0703687 -0.672479 
-0.0839453 0.0705748 -0.672459 
LINES 2 100
OFFSETS vtktypeint64
0 100 
CONNECTIVITY vtktypeint64
0 1 2 3 4 5 6 7 8 
9 10 11 12 13 14 15 16 17 
18 19 20 21 22 23 24 25 26 
27 28 29 30 31 32 33 34 35 
36 37 38 39 40 41 42 43 44 
45 46 47 48 49 50 51 52 53 
54 55 56 57 58 59 60 61 62 
63 64 65 66 67 68 69 70 71 
72 73 74 75 76 77 78 79 80 
81 82 83 84 85 86 87 88 89 
90 91 92 93 94 95 96 97 98 
99 
POINT_DATA 100
FIELD FieldData 3
_theta 1 100 double
0 0.031733259127 0.063466518254 0.095199777382 0.12693303651 0.15866629564 0.19039955476 0.22213281389 0.25386607302 
0.28559933214 0.31733259127 0.3490658504 0.38079910953 0.41253236865 0.44426562778 0.47599888691 0.50773214603 0.53946540516 
0.57119866429 0.60293192342 0.63466518254 0.66639844167 0.6981317008 0.72986495992 0.76159821905 0.79333147818 0.82506473731 
0.85679799643 0.88853125556 0.92026451469 0.95199777382 0.98373103294 1.0154642921 1.0471975512 1.0789308103 1.1106640695 
1.1423973286 1.1741305877 1.2058638468 1.237597106 1.2693303651 1.3010636242 1.3327968833 1.3645301425 1.3962634016 
1.4279966607 1.4597299198 1.491463179 1.5231964381 1.5549296972 1.5866629564 1.6183962155 1.6501294746 1.6818627337 
1.7135959929 1.745329252 1.7770625111 1.8087957702 1.8405290294 1.8722622885 1.9039955476 1.9357288068 1.9674620659 
1.999195325 2.0309285841 2.0626618433 2.0943951024 2.1261283615 2.1578616206 2.1895948798 2.2213281389 2.253061398 
2.2847946572 2.3165279163 2.3482611754 2.3799944345 2.4117276937 2.4434609528 2.4751942119 2.506927471 2.5386607302 
2.5703939893 2.6021272484 2.6338605076 2.6655937667 2.6973270258 2.7290602849 2.7607935441 2.7925268032 2.8242600623 
2.8559933214 2.8877265806 2.9194598397 2.9511930988 2.982926358 3.0146596171 3.0463928762 3.0781261353 3.1098593945 
3.1415926536 
_radius 1 100 double
3.7809013492e-16 0.013575835935 0.027027956503 0.040243005083 0.053124655857 0.065596366443 0.077599290346 0.08908630799 0.10001431651 
0.11033739067 0.12000302546 0.12895259301 0.13712584099 0.14446818379 0.15093896019 0.15651879396 0.16121458119 0.1650612619 
0.16812023063 0.17047484531 0.17222388827 0.17347396367 0.1743317117 0.17489649326 0.17525399837 0.17547115598 0.17559275579 
0.17564020964 0.17561274401 0.1754909979 0.17524265001 0.17482954109 0.17421584041 0.17337690281 0.17230835493 0.17103465653 
0.16961601418 0.16815207771 0.1667803256 0.16566676921 0.16498750007 0.16490287283 0.16553141791 0.16693371404 0.16911227675 
0.17202429065 0.17559843104 0.17974850184 0.18438108853 0.18939795477 0.19469567722 0.20016534192 0.20569431281 0.21117061205 
0.2164890644 0.22155763396 0.22630242188 0.23067032673 0.23462905277 0.23816475224 0.24127798902 0.24397888601 0.24628230636 
0.2482037845 0.24975671675 0.25095105336 0.25179340453 0.25228812134 0.25243864789 0.25224840361 0.25172070307 0.25085765437 
0.24965836894 0.24811696192 0.24622068789 0.24394830305 0.24126860684 0.23813922098 0.23450594333 0.23030325711 0.22545658631 
0.21988660996 0.21351548313 0.20627433739 0.19811109588 0.18899750424 0.17893434992 0.16795407824 0.15612036112 0.1435245708 
0.13027949877 0.11651098757 0.10234837772 0.087914799158 0.073318360694 0.058645225055 0.04395540807 0.029281896966 0.014633327846 
2.3587377051e-16 
_area 1 100 double
0 0.00050504361025 0.0020030748532 0.0044446175106 0.0077522595577 0.011825343295 0.016542831472 0.021764029121 0.027328888865 
0.033060551461 0.038771854229 0.044275378251 0.049394885574 0.053976224325 0.057897482326 0.061078775622 0.0634901451 0.065153884452 
0.066138696481 0.066547487714 0.066503478437 0.066137410664 0.065576760156 0.064938398271 0.064325069245 0.063823525811 0.063502015774 
0.06340743367 0.063563744479 0.063969691524 0.064591698712 0.065356458197 0.066155825902 0.066869460395 0.067398851457 0.067702252124 
0.067821182615 0.067890692772 0.068125793996 0.068772464244 0.070016043521 0.071922676064 0.074469225915 0.077534493256 0.08101806821 
0.084850519559 0.089049463468 0.09354523014 0.098364396802 0.10357199154 0.10920913692 0.11526382903 0.12165758879 0.12824792788 
0.13484601249 0.14124499713 0.14725075828 0.15270655104 0.15750625631 0.16159565704 0.16496574357 0.16764325824 0.16967589313 
0.1711004106 0.17191858978 0.17212230567 0.17172704408 0.17077898659 0.16934516715 0.16749785204 0.16529907197 0.16278946309 
0.1599839838 0.15687453557 0.153436991 0.14963898731 0.14544573263 0.14082357206 0.13574274595 0.13017998495 0.12412000126 
0.11755511209 0.11048405808 0.1029125724 0.094858080747 0.086359019886 0.077486494169 0.06835376447 0.05911877456 0.049976987248 
0.041145232338 0.032840312427 0.025257479246 0.018553428052 0.012836854079 0.0081676844655 0.0045643149606 0.0020167070595 0.00050214529501 
2.8392030861e-17 
