# vtk DataFile Version 5.1
vtk output
ASCII
DATASET POLYDATA
POINTS 100 float
-0.190454 -0.0343469 0.776059 -0.190175 -0.0344342 0.775904 -0.189391 -0.0345515 0.775466 
-0.188078 -0.0346618 0.774654 -0.186204 -0.0347066 0.773329 -0.183733 -0.034612 0.771319 
-0.180631 -0.0342941 0.768445 -0.176872 -0.0336673 0.764547 -0.172446 -0.0326508 0.7595 
-0.167358 -0.0311753 0.753236 -0.161629 -0.029189 0.745749 -0.155294 -0.0266604 0.737103 
-0.148396 -0.0235814 0.727415 -0.140975 -0.0199666 0.716851 -0.133066 -0.015852 0.705597 
-0.124691 -0.0112925 0.693838 -0.115853 -0.00635746 0.681738 -0.106541 -0.00112696 0.669416 
-0.0967277 0.00431273 0.656933 -0.0863808 0.0098731 0.644283 -0.075472 0.0154667 0.631397 
-0.0639889 0.0210098 0.618152 -0.0519465 0.0264244 0.604384 -0.0393965 0.0316392 0.589912 
-0.0264337 0.0365908 0.574558 -0.013196 0.0412236 0.558169 0.000139906 0.0454909 0.540638 
0.013369 0.0493544 0.521911 0.0262734 0.0527855 0.501993 0.0386403 0.0557649 0.480951 
0.0502812 0.0582832 0.458897 0.0610496 0.0603414 0.43598 0.0708547 0.0619501 0.412363 
0.0796698 0.0631291 0.388208 0.0875325 0.0639059 0.363657 0.094539 0.0643144 0.338822 
0.10083 0.064392 0.313775 0.10657 0.0641778 0.288547 0.111927 0.0637098 0.263133 
0.117048 0.0630229 0.237501 0.122037 0.0621475 0.211608 0.126941 0.0611085 0.185411 
0.131738 0.0599254 0.158881 0.136337 0.0586132 0.132017 0.140587 0.0571837 0.104848 
0.14429 0.0556477 0.0774423 0.147224 0.0540172 0.0498961 0.149169 0.0523068 0.0223322 
0.149927 0.0505351 -0.00511337 0.14935 0.0487256 -0.0323032 0.147356 0.0469056 -0.0591103 
0.143936 0.0451053 -0.0854282 0.139157 0.0433555 -0.111178 0.133157 0.0416852 -0.13631 
0.126127 0.0401191 -0.160804 0.118294 0.0386755 -0.184664 0.109894 0.0373649 -0.207907 
0.101152 0.0361902 -0.230558 0.0922611 0.0351471 -0.252641 0.0833666 0.034227 -0.274169 
0.0745575 0.0334199 -0.29514 0.0658665 0.032718 -0.315541 0.057276 0.0321195 -0.335346 
0.0487316 0.0316318 -0.354523 0.0401579 0.0312733 -0.373045 0.0314781 0.0310737 -0.390893 
0.0226306 0.0310724 -0.408072 0.0135842 0.0313151 -0.424607 0.00434706 0.0318488 -0.440552 
-0.00503036 0.0327156 -0.455986 -0.0144581 0.0339461 -0.471005 -0.0238159 0.0355533 -0.485714 
-0.0329658 0.0375279 -0.500215 -0.0417675 0.039835 -0.514595 -0.0500937 0.0424147 -0.52891 
-0.057843 0.0451836 -0.543181 -0.0649492 0.0480408 -0.557384 -0.0713853 0.0508753 -0.571451 
-0.0771629 0.0535748 -0.585275 -0.0823256 0.0560358 -0.598714 -0.0869394 0.0581727 -0.611609 
-0.0910807 0.0599256 -0.623794 -0.094824 0.0612655 -0.635113 -0.0982309 0.0621964 -0.645436 
-0.101343 0.062754 -0.654664 -0.104176 0.0630011 -0.662745 -0.106725 0.0630204 -0.669669 
-0.108967 0.0629046 -0.675472 -0.110869 0.0627463 -0.680229 -0.112398 0.0626281 -0.684042 
-0.113533 0.0626136 -0.687036 -0.114273 0.0627419 -0.68934 -0.114641 0.0630242 -0.691084 
-0.114688 0.0634446 -0.692387 -0.114487 0.0639639 -0.69335 -0.114127 0.0645262 -0.694057 
-0.113707 0.0650678 -0.694568 -0.113318 0.0655262 -0.694929 -0.113036 0.0658493 -0.695166 
-0.112912 0.0660026 -0.695292 
LINES 2 100
OFFSETS vtktypeint64
0 100 
CONNECTIVITY vtktypeint64
0 1 2 3 4 5 6 7 8 
9 10 11 12 13 14 15 16 17 
18 19 20 21 22 23 24 25 26 
27 28 29 30 31 32 33 34 35 
36 37 38 39 40 41 42 43 44 
45 46 47 48 49 50 51 52 53 
54 55 56 57 58 59 60 61 62 
63 64 65 66 67 68 69 70 71 
72 73 74 75 76 77 78 79 80 
81 82 83 84 85 86 87 88 89 
90 91 92 93 94 95 96 97 98 
99 
POINT_DATA 100
FIELD FieldData 3
_theta 1 100 double
0 0.031733259127 0.063466518254 0.095199777382 0.12693303651 0.15866629564 0.19039955476 0.22213281389 0.25386607302 
0.28559933214 0.31733259127 0.3490658504 0.38079910953 0.41253236865 0.44426562778 0.47599888691 0.50773214603 0.53946540516 
0.57119866429 0.60293192342 0.63466518254 0.66639844167 0.6981317008 0.72986495992 0.76159821905 0.79333147818 0.82506473731 
0.85679799643 0.88853125556 0.92026451469 0.95199777382 0.98373103294 1.0154642921 1.0471975512 1.0789308103 1.1106640695 
1.1423973286 1.1741305877 1.2058638468 1.237597106 1.2693303651 1.3010636242 1.3327968833 1.3645301425 1.3962634016 
1.4279966607 1.4597299198 1.491463179 1.5231964381 1.5549296972 1.5866629564 1.6183962155 1.6501294746 1.6818627337 
1.7135959929 1.745329252 1.7770625111 1.8087957702 1.8405290294 1.8722622885 1.9039955476 1.9357288068 1.9674620659 
1.999195325 2.0309285841 2.0626618433 2.0943951024 2.1261283615 2.1578616206 2.1895948798 2.2213281389 2.253061398 
2.2847946572 2.3165279163 2.3482611754 2.3799944345 2.4117276937 2.4434609528 2.4751942119 2.506927471 2.5386607302 
2.5703939893 2.6021272484 2.6338605076 2.6655937667 2.6973270258 2.7290602849 2.7607935441 2.7925268032 2.8242600623 
2.8559933214 2.8877265806 2.9194598397 2.9511930988 2.982926358 3.0146596171 3.0463928762 3.0781261353 3.1098593945 
3.1415926536 
_radius 1 100 double
8.9145209815e-16 0.016995122749 0.033698903358 0.049834660988 0.065162633843 0.079495409095 0.092709045444 0.10474843485 0.11562583841 
0.1254122215 0.13422189036 0.14219187487 0.14945846389 0.15613421422 0.16228934037 0.16794116492 0.17305393584 0.17754905217 
0.18132343055 0.1842722675 0.18631211014 0.18740063426 0.18755037162 0.18683458025 0.18538450492 0.18337848049 0.18102461228 
0.17853983762 0.17612862932 0.17396425811 0.17217465411 0.17083402581 0.1699607999 0.16952196104 0.16944306671 0.16962201974 
0.1699439627 0.17029551971 0.1705785146 0.17072385867 0.17070422665 0.17054160433 0.17030597762 0.17010447243 0.17006381151 
0.17031103253 0.17095724131 0.17208713727 0.17375443704 0.17598150263 0.17876113502 0.18205936291 0.18581901451 0.18996389297 
0.19440282907 0.19903293608 0.20374229325 0.20841307952 0.21292603628 0.21716622043 0.2210291384 0.22442616574 0.22728861812 
0.22957043307 0.23124973108 0.23232951684 0.23283762173 0.23282575973 0.23236725903 0.2315527169 0.23048277007 0.22925768403 
0.22796458941 0.2266645104 0.2253820637 0.22410022358 0.22276093512 0.22127050626 0.21950767767 0.21733246993 0.21459492048 
0.21114386064 0.20683631505 0.20154773578 0.19518237745 0.18768223686 0.17903263281 0.16926290157 0.15844170335 0.14666772171 
0.13405763558 0.12073376655 0.10681362767 0.092402918237 0.077592625824 0.0624599962 0.047072307605 0.03149179763 0.015779971207 
2.8728508066e-16 
_area 1 100 double
0 0.0005320919507 0.0021271951484 0.0047715828426 0.008414944487 0.012947255224 0.018189907434 0.023907395989 0.02983738563 
0.035729660607 0.041381007973 0.046655560902 0.051487657949 0.055873232277 0.059862541511 0.063566656515 0.067142930391 0.07064045268 
0.073893132744 0.076649848053 0.078675019092 0.07978576819 0.079880244242 0.078959970855 0.077136563988 0.074616500905 0.071666669886 
0.068571480505 0.065588404928 0.062918683015 0.060719843088 0.059093093181 0.058151637421 0.057877332945 0.058108064182 0.058698000841 
0.059634320114 0.060836959755 0.062201857271 0.063757029302 0.065817466097 0.068507129515 0.071560918654 0.074800555203 0.078108279413 
0.081409281702 0.08463302643 0.087716883621 0.09063054824 0.09340279742 0.096159964507 0.099201709403 0.10268479725 0.10665450398 
0.11117402749 0.11621955017 0.12165528138 0.12725341034 0.13273867975 0.13783494209 0.14229658725 0.14592296979 0.14856429891 
0.15012436499 0.15056083216 0.14988512839 0.14816447689 0.14552574285 0.14215804038 0.13830957252 0.13427175888 0.13034062857 
0.12675403387 0.1236363735 0.12099381561 0.1187458284 0.11674714443 0.11479866355 0.11267286222 0.11014832876 0.10703273935 
0.10317398725 0.098469947508 0.092881664798 0.08644620393 0.079280916668 0.07157216513 0.063547500724 0.055438381138 0.047447050666 
0.039730886954 0.032407866045 0.025574872878 0.019326406746 0.013765319571 0.0090033814125 0.0051538397329 0.0023201061799 0.00058456226365 
3.1225022568e-17 
