# vtk DataFile Version 5.1
vtk output
ASCII
DATASET POLYDATA
POINTS 100 float
-0.110939 -0.0305054 0.763073 -0.111044 -0.0305159 0.762892 -0.111365 -0.030399 0.762373 
-0.111813 -0.0301262 0.761454 -0.112249 -0.0296533 0.760039 -0.112498 -0.0289242 0.758012 
-0.11237 -0.0278764 0.755247 -0.111674 -0.0264466 0.751625 -0.110241 -0.0245762 0.747045 
-0.107935 -0.0222171 0.74144 -0.104669 -0.0193358 0.734773 -0.100407 -0.0159163 0.727049 
-0.095165 -0.0119623 0.718307 -0.089006 -0.00749768 0.708611 -0.0820286 -0.00256486 0.698043 
-0.074355 0.00277641 0.686693 -0.066116 0.00845207 0.674641 -0.0574374 0.0143767 0.661954 
-0.0484286 0.0204567 0.648677 -0.0391738 0.0265934 0.634829 -0.0297287 0.0326853 0.620407 
-0.0201204 0.0386312 0.60539 -0.0103515 0.0443316 0.589745 -0.000407296 0.0496911 0.573441 
0.00973525 0.0546201 0.556453 0.0200984 0.0590367 0.538772 0.030695 0.0628691 0.520412 
0.0415223 0.0660579 0.501404 0.0525578 0.0685583 0.481802 0.0637583 0.0703429 0.46167 
0.0750614 0.0714036 0.441074 0.0863893 0.0717527 0.420075 0.0976533 0.0714235 0.398716 
0.108759 0.0704695 0.377015 0.11961 0.0689623 0.354959 0.130111 0.066988 0.332508 
0.140172 0.0646429 0.309594 0.149701 0.0620272 0.286131 0.15861 0.0592401 0.26203 
0.166805 0.0563731 0.237208 0.17419 0.0535048 0.211605 0.180661 0.0506976 0.185199 
0.18611 0.0479945 0.158012 0.190425 0.0454188 0.130114 0.193495 0.0429756 0.101629 
0.195219 0.0406551 0.0727234 0.195513 0.0384369 0.0436001 0.194323 0.036296 0.0144815 
0.191625 0.0342088 -0.014405 0.187439 0.0321581 -0.0428438 0.181831 0.0301384 -0.070646 
0.174906 0.0281584 -0.0976609 0.166815 0.0262427 -0.123784 0.157735 0.0244302 -0.148958 
0.147867 0.0227719 -0.173173 0.137416 0.0213261 -0.196458 0.126584 0.0201528 -0.218871 
0.115551 0.019308 -0.240489 0.104466 0.0188372 -0.261394 0.0934445 0.0187709 -0.281666 
0.0825596 0.0191208 -0.301373 0.0718472 0.0198775 -0.320565 0.0613102 0.0210116 -0.339278 
0.0509272 0.0224748 -0.357529 0.0406633 0.0242045 -0.375329 0.0304807 0.0261283 -0.392681 
0.0203487 0.0281701 -0.409592 0.0102522 0.0302558 -0.426076 0.000195668 0.0323189 -0.442156 
-0.00979523 0.0343043 -0.457866 -0.019676 0.0361719 -0.473248 -0.0293886 0.0378973 -0.488346 
-0.0388687 0.0394714 -0.503203 -0.0480537 0.0408992 -0.517848 -0.0568906 0.0421956 -0.532293 
-0.0653418 0.0433827 -0.546525 -0.0733886 0.0444849 -0.560506 -0.0810321 0.0455256 -0.574169 
-0.0882902 0.0465233 -0.587423 -0.0951931 0.0474897 -0.600161 -0.101776 0.0484285 -0.612267 
-0.108072 0.0493351 -0.623626 -0.114105 0.0501976 -0.634137 -0.119883 0.0509991 -0.643715 
-0.125398 0.0517196 -0.652309 -0.130624 0.0523394 -0.659896 -0.13552 0.0528411 -0.666488 
-0.140036 0.0532127 -0.672129 -0.144119 0.0534487 -0.676886 -0.147724 0.0535515 -0.680846 
-0.15082 0.0535314 -0.684109 -0.153394 0.0534064 -0.686772 -0.155456 0.0532006 -0.688932 
-0.157039 0.0529425 -0.690672 -0.158198 0.0526632 -0.692062 -0.158997 0.0523937 -0.693155 
-0.159512 0.0521629 -0.693991 -0.15981 0.0519957 -0.694595 -0.159951 0.0519107 -0.694981 
-0.159971 0.0519197 -0.695156 
LINES 2 100
OFFSETS vtktypeint64
0 100 
CONNECTIVITY vtktypeint64
0 1 2 3 4 5 6 7 8 
9 10 11 12 13 14 15 16 17 
18 19 20 21 22 23 24 25 26 
27 28 29 30 31 32 33 34 35 
36 37 38 39 40 41 42 43 44 
45 46 47 48 49 50 51 52 53 
54 55 56 57 58 59 60 61 62 
63 64 65 66 67 68 69 70 71 
72 73 74 75 76 77 78 79 80 
81 82 83 84 85 86 87 88 89 
90 91 92 93 94 95 96 97 98 
99 
POINT_DATA 100
FIELD FieldData 3
_theta 1 100 double
0 0.031733259127 0.063466518254 0.095199777382 0.12693303651 0.15866629564 0.19039955476 0.22213281389 0.25386607302 
0.28559933214 0.31733259127 0.3490658504 0.38079910953 0.41253236865 0.44426562778 0.47599888691 0.50773214603 0.53946540516 
0.57119866429 0.60293192342 0.63466518254 0.66639844167 0.6981317008 0.72986495992 0.76159821905 0.79333147818 0.82506473731 
0.85679799643 0.88853125556 0.92026451469 0.95199777382 0.98373103294 1.0154642921 1.0471975512 1.0789308103 1.1106640695 
1.1423973286 1.1741305877 1.2058638468 1.237597106 1.2693303651 1.3010636242 1.3327968833 1.3645301425 1.3962634016 
1.4279966607 1.4597299198 1.491463179 1.5231964381 1.5549296972 1.5866629564 1.6183962155 1.6501294746 1.6818627337 
1.7135959929 1.745329252 1.7770625111 1.8087957702 1.8405290294 1.8722622885 1.9039955476 1.9357288068 1.9674620659 
1.999195325 2.0309285841 2.0626618433 2.0943951024 2.1261283615 2.1578616206 2.1895948798 2.2213281389 2.253061398 
2.2847946572 2.3165279163 2.3482611754 2.3799944345 2.4117276937 2.4434609528 2.4751942119 2.506927471 2.5386607302 
2.5703939893 2.6021272484 2.6338605076 2.6655937667 2.6973270258 2.7290602849 2.7607935441 2.7925268032 2.8242600623 
2.8559933214 2.8877265806 2.9194598397 2.9511930988 2.982926358 3.0146596171 3.0463928762 3.0781261353 3.1098593945 
3.1415926536 
_radius 1 100 double
3.3739368218e-16 0.014040621924 0.028022089917 0.041871965433 0.055499980377 0.068794438252 0.081623462407 0.093840971593 0.10529651491 
0.11584760073 0.12537287165 0.13378436254 0.14103712929 0.14713478964 0.15213001733 0.15611977438 0.15923596978 0.16163310467 
0.16347501136 0.16492272447 0.16612474756 0.16720979992 0.16828117206 0.16941166132 0.17063882266 0.17196149568 0.17333947848 
0.17469817648 0.17593897833 0.17695449763 0.17764631362 0.17794175355 0.17780566769 0.17724382432 0.17629781257 0.17503531657 
0.17353950071 0.17189848484 0.17019564886 0.16850272264 0.16687730608 0.1653647232 0.16400245281 0.16282494034 0.16186758268 
0.16117018555 0.16078073368 0.16075910005 0.16117829897 0.16212008337 0.16366327493 0.16586648582 0.16874988218 0.17228158199 
0.17637273803 0.18088231188 0.18562964493 0.19041150289 0.19502045709 0.19926239661 0.20297180085 0.20602389915 0.20834310402 
0.20990725417 0.21074731669 0.21094233877 0.21060970054 0.20989119619 0.20893618401 0.20788386462 0.20684735343 0.2059021931 
0.20508103689 0.20437458838 0.2037371718 0.20309433531 0.20235008345 0.2013924834 0.20009784176 0.19833469707 0.19596909104 
0.19287196118 0.18892839364 0.18404738756 0.17817012584 0.17127473128 0.16337611142 0.15452062727 0.1447767167 0.13422386037 
0.12294280995 0.11100936525 0.098492432283 0.085455533667 0.071960168633 0.058069484715 0.043851197913 0.02937920225 0.014733703824 
1.3190339778e-15 
_area 1 100 double
0 0.00044823030838 0.0017968411976 0.0040512284782 0.0072016557232 0.011202556545 0.015954631267 0.021294937644 0.026998037912 
0.032789673364 0.0383727049 0.043462319213 0.047824126003 0.05130637963 0.053858007182 0.055528323777 0.056451552501 0.056827602535 
0.056914188463 0.057005806864 0.057331856025 0.058026242152 0.059188334189 0.060882474058 0.063114393278 0.065817359193 0.068850037213 
0.072008210864 0.075053658235 0.077744282361 0.079834048454 0.081118278417 0.081505802191 0.081027210168 0.079809898452 0.078063557182 
0.076116911472 0.074394010353 0.073085598507 0.072114146768 0.071334227301 0.070647179648 0.070058481787 0.069642043749 0.069416390926 
0.069322852539 0.069297340411 0.0696585739 0.070538537624 0.071626060075 0.07301962713 0.074889622684 0.077415051846 0.080711488806 
0.084786681499 0.089530381971 0.094729998993 0.10010061353 0.10532997476 0.110126978 0.11425158468 0.11752411025 0.11982582146 
0.12110159591 0.121366408 0.1207088574 0.11928376137 0.11729176545 0.11495179701 0.11247517482 0.11004485994 0.10779889946 
0.10581875221 0.10412412909 0.10267475073 0.10137896961 0.10010842453 0.098714574953 0.097041735761 0.09493642787 0.092258314434 
0.088896141046 0.084785910816 0.079925122476 0.074377887678 0.068268574816 0.061764312663 0.055048948817 0.048293675474 0.041633379007 
0.035160432339 0.028941039217 0.023042820722 0.017554789991 0.012591170024 0.0082826985649 0.0047623701116 0.0021506572836 0.00054289490574 
6.4400768566e-17 
