# vtk DataFile Version 5.1
vtk output
ASCII
DATASET POLYDATA
POINTS 100 float
-0.225738 -0.0740957 0.703844 -0.225458 -0.0741344 0.703662 -0.224635 -0.0740765 0.703173 
-0.22327 -0.073886 0.70234 -0.221363 -0.0735077 0.701104 -0.218909 -0.0728733 0.699392 
-0.215905 -0.071909 0.697125 -0.212339 -0.0705433 0.694223 -0.208198 -0.0687146 0.690621 
-0.203461 -0.0663771 0.686267 -0.198104 -0.0635045 0.681132 -0.1921 -0.0600917 0.675208 
-0.185416 -0.0561537 0.668511 -0.178023 -0.051722 0.661074 -0.169895 -0.0468398 0.652941 
-0.161013 -0.0415562 0.644161 -0.151372 -0.0359208 0.634779 -0.140982 -0.0299785 0.624831 
-0.129873 -0.0237672 0.614333 -0.118099 -0.0173162 0.603281 -0.105736 -0.0106481 0.591652 
-0.0928826 -0.00378215 0.579398 -0.0796547 0.00326102 0.566457 -0.0661826 0.0104535 0.552756 
-0.052602 0.0177546 0.538217 -0.0390461 0.0251067 0.522765 -0.0256367 0.0324325 0.506337 
-0.0124764 0.0396354 0.488886 0.000358381 0.0466019 0.470384 0.0128214 0.0532075 0.450826 
0.0248973 0.0593236 0.43023 0.0365989 0.0648273 0.408634 0.047961 0.0696101 0.386095 
0.0590307 0.0735869 0.362682 0.0698552 0.0767027 0.338474 0.0804694 0.0789373 0.313556 
0.0908828 0.0803064 0.288018 0.101069 0.0808597 0.261947 0.110958 0.0806756 0.235436 
0.120435 0.0798537 0.208577 0.129341 0.0785051 0.181465 0.13748 0.076743 0.154202 
0.144636 0.0746728 0.126893 0.150586 0.0723844 0.0996507 0.155122 0.0699463 0.072594 
0.158069 0.067404 0.0458436 0.159303 0.0647793 0.01952 0.158766 0.0620749 -0.00626154 
0.156477 0.0592796 -0.031397 0.152529 0.0563758 -0.055799 0.147092 0.0533474 -0.079402 
0.140393 0.0501875 -0.102167 0.132708 0.0469038 -0.124081 0.124331 0.0435229 -0.145163 
0.115562 0.0400909 -0.165454 0.106674 0.0366721 -0.18502 0.0978999 0.0333446 -0.203942 
0.0894154 0.030194 -0.222307 0.0813298 0.0273061 -0.240206 0.0736845 0.0247588 -0.257721 
0.0664584 0.0226151 -0.274923 0.0595789 0.0209173 -0.291864 0.0529379 0.0196829 -0.308576 
0.0464102 0.0189041 -0.32507 0.039873 0.0185482 -0.34134 0.0332223 0.0185618 -0.357364 
0.0263869 0.0188765 -0.373113 0.0193369 0.0194149 -0.388552 0.012086 0.0200988 -0.40365 
0.00468861 0.0208552 -0.418384 -0.00276807 0.0216229 -0.432741 -0.0101758 0.0223563 -0.446723 
-0.0174186 0.0230282 -0.460341 -0.0243863 0.0236298 -0.47362 -0.0309862 0.0241693 -0.486589 
-0.0371509 0.0246689 -0.499278 -0.0428427 0.0251603 -0.511712 -0.0480527 0.0256797 -0.523907 
-0.052796 0.0262635 -0.535861 -0.0571036 0.0269432 -0.547558 -0.0610128 0.0277424 -0.558957 
-0.0645569 0.0286745 -0.570003 -0.0677567 0.0297413 -0.580621 -0.0706149 0.0309336 -0.590727 
-0.0731139 0.0322325 -0.60023 -0.0752185 0.0336112 -0.609045 -0.0768821 0.0350378 -0.617093 
-0.0780559 0.0364782 -0.624312 -0.0787001 0.0378985 -0.630663 -0.078795 0.0392673 -0.636133 
-0.0783504 0.0405575 -0.640736 -0.0774121 0.041747 -0.644513 -0.0760636 0.0428195 -0.647528 
-0.0744235 0.0437641 -0.649866 -0.0726375 0.0445746 -0.651623 -0.0708669 0.0452484 -0.652899 
-0.0692736 0.0457856 -0.653791 -0.0680048 0.0461878 -0.654384 -0.0671784 0.0464569 -0.654742 
-0.0668702 0.0465941 -0.654908 
LINES 2 100
OFFSETS vtktypeint64
0 100 
CONNECTIVITY vtktypeint64
0 1 2 3 4 5 6 7 8 
9 10 11 12 13 14 15 16 17 
18 19 20 21 22 23 24 25 26 
27 28 29 30 31 32 33 34 35 
36 37 38 39 40 41 42 43 44 
45 46 47 48 49 50 51 52 53 
54 55 56 57 58 59 60 61 62 
63 64 65 66 67 68 69 70 71 
72 73 74 75 76 77 78 79 80 
81 82 83 84 85 86 87 88 89 
90 91 92 93 94 95 96 97 98 
99 
POINT_DATA 100
FIELD FieldData 3
_theta 1 100 double
0 0.031733259127 0.063466518254 0.095199777382 0.12693303651 0.15866629564 0.19039955476 0.22213281389 0.25386607302 
0.28559933214 0.31733259127 0.3490658504 0.38079910953 0.41253236865 0.44426562778 0.47599888691 0.50773214603 0.53946540516 
0.57119866429 0.60293192342 0.63466518254 0.66639844167 0.6981317008 0.72986495992 0.76159821905 0.79333147818 0.82506473731 
0.85679799643 0.88853125556 0.92026451469 0.95199777382 0.98373103294 1.0154642921 1.0471975512 1.0789308103 1.1106640695 
1.1423973286 1.1741305877 1.2058638468 1.237597106 1.2693303651 1.3010636242 1.3327968833 1.3645301425 1.3962634016 
1.4279966607 1.4597299198 1.491463179 1.5231964381 1.5549296972 1.5866629564 1.6183962155 1.6501294746 1.6818627337 
1.7135959929 1.745329252 1.7770625111 1.8087957702 1.8405290294 1.8722622885 1.9039955476 1.9357288068 1.9674620659 
1.999195325 2.0309285841 2.0626618433 2.0943951024 2.1261283615 2.1578616206 2.1895948798 2.2213281389 2.253061398 
2.2847946572 2.3165279163 2.3482611754 2.3799944345 2.4117276937 2.4434609528 2.4751942119 2.506927471 2.5386607302 
2.5703939893 2.6021272484 2.6338605076 2.6655937667 2.6973270258 2.7290602849 2.7607935441 2.7925268032 2.8242600623 
2.8559933214 2.8877265806 2.9194598397 2.9511930988 2.982926358 3.0146596171 3.0463928762 3.0781261353 3.1098593945 
3.1415926536 
_radius 1 100 double
2.4394924735e-16 0.016553747121 0.032939297345 0.048993442551 0.064567142677 0.079530375712 0.09377462427 0.10721274346 0.1197763954 
0.13141170095 0.14207413432 0.15172386265 0.16032266002 0.16783322856 0.17422130943 0.17946043789 0.18353865774 0.18646604375 
0.18828159969 0.18905811218 0.18890387682 0.18796077499 0.18639876832 0.18440729646 0.18218422985 0.17992302597 0.17779877534 
0.17595410982 0.17448652817 0.17343935101 0.17279880394 0.17249917474 0.17243643009 0.17248855656 0.17253917462 0.17250033052 
0.17233055284 0.17204488691 0.17171483688 0.17145796541 0.17141907189 0.17174730049 0.17257531892 0.174005835 0.17610681852 
0.1789128661 0.18242900589 0.18663401713 0.19148098585 0.19689400629 0.20276297387 0.20894126939 0.21525066415 0.22149434824 
0.22747559134 0.2330179699 0.23798316186 0.24228331581 0.24588637901 0.24881408893 0.25113337457 0.25294266225 0.25435509622 
0.25548098789 0.25641184829 0.2572080701 0.25789169802 0.25844486511 0.25881356915 0.25891571514 0.25865188023 0.25791709972 
0.25661209187 0.25465266819 0.25197652189 0.24854705005 0.2443542615 0.23941309766 0.23375963255 0.22744564005 0.22053198512 
0.21308130024 0.20515052072 0.19678405937 0.18800858948 0.17883040457 0.16923602006 0.15919610461 0.14867214953 0.13762472162 
0.1260218561 0.11384618312 0.10109971652 0.087805779664 0.074008171871 0.059768228565 0.045160753104 0.030269825552 0.01518525021 
8.8714677697e-16 
_area 1 100 double
0 0.00062725497784 0.0024941870133 0.0055541290742 0.0097236124677 0.014878362714 0.020854049319 0.027453305943 0.034457561835 
0.041640491199 0.04878007038 0.055667665042 0.062114153983 0.067954068253 0.073048883325 0.077290188944 0.080602873575 0.082947951425 
0.084324287547 0.084768412357 0.084352273834 0.083180265216 0.081388438437 0.079148540939 0.076685950113 0.074236352038 0.071907651568 
0.069846395477 0.06817814573 0.066993952783 0.066317943696 0.066108081108 0.066311356154 0.066898407787 0.067851528689 0.069157414296 
0.070806191267 0.072781342995 0.075049190437 0.077560253435 0.080265143444 0.0831307554 0.086165467866 0.089572684533 0.09351676749 
0.097660887715 0.10188846171 0.1062554788 0.11092909668 0.11611291386 0.12194092714 0.12841508314 0.13541677569 0.14275269239 
0.15021182361 0.15760803738 0.16476368529 0.17147277467 0.17752841951 0.18278373702 0.18716139282 0.19063991342 0.19325510431 
0.19507645648 0.19616897497 0.19656855877 0.19627946275 0.19528679176 0.19358816702 0.19128688869 0.18842979211 0.18495368125 
0.18100459906 0.1768078987 0.17217670617 0.16691012956 0.16092765331 0.15423542615 0.14688390249 0.13895671042 0.130564341 
0.12183389163 0.11289425277 0.10386006135 0.094819351492 0.085829188646 0.076920988871 0.06811380849 0.059431320341 0.050917512794 
0.042647013484 0.034727574676 0.027294303742 0.020497361996 0.014486508804 0.0093965014938 0.0053367642436 0.0023870847171 0.00059892292636 
5.288780824e-17 
