# vtk DataFile Version 5.1
vtk output
ASCII
DATASET POLYDATA
POINTS 100 float
-0.123878 -0.0929232 0.695057 -0.124221 -0.0927445 0.694852 -0.125258 -0.0919574 0.694195 
-0.126883 -0.0905636 0.693051 -0.128934 -0.0885677 0.69137 -0.131206 -0.0859769 0.689094 
-0.133467 -0.0828001 0.686166 -0.135485 -0.0790482 0.68254 -0.137042 -0.0747341 0.678186 
-0.137949 -0.0698731 0.673097 -0.138065 -0.0644843 0.667289 -0.137296 -0.058592 0.660797 
-0.135597 -0.0522273 0.653676 -0.132968 -0.0454302 0.645982 -0.129442 -0.0382512 0.637772 
-0.125074 -0.030752 0.629088 -0.119929 -0.023006 0.619952 -0.11407 -0.0150973 0.610361 
-0.107547 -0.00711899 0.600282 -0.100397 0.000830123 0.589662 -0.092639 0.00864918 0.578425 
-0.0842824 0.0162398 0.56649 -0.0753298 0.0235108 0.553777 -0.065788 0.0303825 0.540221 
-0.0556758 0.0367901 0.525778 -0.0450317 0.0426867 0.510438 -0.0339187 0.0480442 0.494221 
-0.0224248 0.0528526 0.477179 -0.0106602 0.0571187 0.459391 0.00124926 0.0608626 0.440947 
0.0131712 0.0641132 0.421946 0.0249773 0.0669043 0.402473 0.0365533 0.0692694 0.382596 
0.0478073 0.0712378 0.362351 0.0586743 0.0728313 0.341743 0.0691172 0.0740623 0.320743 
0.079123 0.0749334 0.299294 0.0886951 0.0754386 0.277324 0.097843 0.075565 0.254754 
0.10657 0.0752967 0.231517 0.114862 0.0746185 0.20757 0.122676 0.0735196 0.182906 
0.12994 0.0719979 0.157564 0.136544 0.0700625 0.131627 0.142351 0.0677358 0.105225 
0.147204 0.0650544 0.0785236 0.150938 0.0620682 0.0517131 0.153398 0.0588393 0.0249941 
0.154454 0.0554389 -0.00143854 0.154014 0.0519446 -0.0274103 0.15204 0.0484361 -0.0527785 
0.148547 0.0449923 -0.0774401 0.143608 0.0416879 -0.101334 0.137351 0.0385903 -0.12444 
0.129938 0.0357575 -0.146771 0.121563 0.0332368 -0.168361 0.112423 0.0310638 -0.18926 
0.102712 0.0292621 -0.209515 0.0925967 0.0278435 -0.229166 0.0822113 0.0268083 -0.248237 
0.0716499 0.0261466 -0.266737 0.0609658 0.0258383 -0.284659 0.0501773 0.0258554 -0.301984 
0.039277 0.0261622 -0.318698 0.0282449 0.0267177 -0.33479 0.0170618 0.0274767 -0.350272 
0.00572278 0.0283924 -0.365179 -0.00575249 0.0294183 -0.379575 -0.0173135 0.0305102 -0.39355 
-0.0288772 0.0316293 -0.407219 -0.040332 0.0327434 -0.420705 -0.0515455 0.0338288 -0.43413 
-0.0623758 0.0348713 -0.447603 -0.0726852 0.0358661 -0.461197 -0.0823525 0.0368169 -0.474945 
-0.0912851 0.0377342 -0.48883 -0.0994263 0.0386325 -0.502777 -0.10676 0.0395274 -0.516663 
-0.113308 0.0404321 -0.530321 -0.119127 0.041354 -0.543555 -0.124298 0.0422922 -0.556156 
-0.128919 0.0432355 -0.56792 -0.133086 0.0441624 -0.578667 -0.136889 0.0450417 -0.588257 
-0.140402 0.0458348 -0.596596 -0.143674 0.0464994 -0.603651 -0.146731 0.046994 -0.609441 
-0.149577 0.047283 -0.61404 -0.1522 0.0473408 -0.617561 -0.154574 0.0471569 -0.620151 
-0.156674 0.0467381 -0.621969 -0.15848 0.0461098 -0.623179 -0.159981 0.0453157 -0.623935 
-0.161182 0.0444147 -0.624373 -0.1621 0.0434771 -0.624604 -0.162767 0.0425786 -0.624715 
-0.163219 0.0417939 -0.624767 -0.163496 0.0411902 -0.6248 -0.16363 0.0408205 -0.62484 
-0.163645 0.0407196 -0.624897 
LINES 2 100
OFFSETS vtktypeint64
0 100 
CONNECTIVITY vtktypeint64
0 1 2 3 4 5 6 7 8 
9 10 11 12 13 14 15 16 17 
18 19 20 21 22 23 24 25 26 
27 28 29 30 31 32 33 34 35 
36 37 38 39 40 41 42 43 44 
45 46 47 48 49 50 51 52 53 
54 55 56 57 58 59 60 61 62 
63 64 65 66 67 68 69 70 71 
72 73 74 75 76 77 78 79 80 
81 82 83 84 85 86 87 88 89 
90 91 92 93 94 95 96 97 98 
99 
POINT_DATA 100
FIELD FieldData 3
_theta 1 100 double
0 0.031733259127 0.063466518254 0.095199777382 0.12693303651 0.15866629564 0.19039955476 0.22213281389 0.25386607302 
0.28559933214 0.31733259127 0.3490658504 0.38079910953 0.41253236865 0.44426562778 0.47599888691 0.50773214603 0.53946540516 
0.57119866429 0.60293192342 0.63466518254 0.66639844167 0.6981317008 0.72986495992 0.76159821905 0.79333147818 0.82506473731 
0.85679799643 0.88853125556 0.92026451469 0.95199777382 0.98373103294 1.0154642921 1.0471975512 1.0789308103 1.1106640695 
1.1423973286 1.1741305877 1.2058638468 1.237597106 1.2693303651 1.3010636242 1.3327968833 1.3645301425 1.3962634016 
1.4279966607 1.4597299198 1.491463179 1.5231964381 1.5549296972 1.5866629564 1.6183962155 1.6501294746 1.6818627337 
1.7135959929 1.745329252 1.7770625111 1.8087957702 1.8405290294 1.8722622885 1.9039955476 1.9357288068 1.9674620659 
1.999195325 2.0309285841 2.0626618433 2.0943951024 2.1261283615 2.1578616206 2.1895948798 2.2213281389 2.253061398 
2.2847946572 2.3165279163 2.3482611754 2.3799944345 2.4117276937 2.4434609528 2.4751942119 2.506927471 2.5386607302 
2.5703939893 2.6021272484 2.6338605076 2.6655937667 2.6973270258 2.7290602849 2.7607935441 2.7925268032 2.8242600623 
2.8559933214 2.8877265806 2.9194598397 2.9511930988 2.982926358 3.0146596171 3.0463928762 3.0781261353 3.1098593945 
3.1415926536 
_radius 1 100 double
1.561297387e-15 0.014493664027 0.028837123503 0.042888597166 0.056534872956 0.069696998445 0.082327791265 0.094402476019 0.10590581272 
0.11681988557 0.12711597704 0.13675218637 0.14567656267 0.15383417621 0.16117595582 0.16766716906 0.17329390005 0.17806657616 
0.18202033255 0.18521262941 0.18771892115 0.18962725701 0.19103253012 0.19203086038 0.19271445426 0.19316722433 0.19346133145 
0.19365455038 0.19378809427 0.1938845151 0.19394567716 0.19395151992 0.19386112023 0.19361786179 0.19315956883 0.19243221623 
0.19140376141 0.19007444303 0.18848143271 0.1866975262 0.18482466114 0.18298352686 0.18130082873 0.17989618438 0.17887113549 
0.17830288774 0.17824440151 0.178730172 0.17978452714 0.18142808035 0.1836787278 0.18654576041 0.19001844794 0.19405311957 
0.19856432067 0.20342473796 0.20847489317 0.21353921049 0.21844307519 0.22302672341 0.22715441076 0.23071937412 0.23364601495 
0.23589073574 0.23744233706 0.23832212413 0.23858312741 0.23830736341 0.23760008231 0.23658059384 0.23537041848 0.23408068893 
0.2328011644 0.23159242675 0.23048122572 0.22945772153 0.22847344981 0.22744000524 0.2262296946 0.22467984163 0.22260180251 
0.21979448581 0.21606091968 0.21122564618 0.20515056221 0.19774713097 0.18898346366 0.17888548364 0.16753216575 0.15504564829 
0.14157776273 0.12729505734 0.11236450823 0.096941717532 0.081162631571 0.065139005223 0.048957284738 0.032680344288 0.016351469699 
1.1458555476e-15 
_area 1 100 double
0 0.00058026601559 0.0022905683979 0.0050448476079 0.0087161734436 0.013156423604 0.018215122904 0.023751417342 0.029634736355 
0.035734146983 0.041903152248 0.047970758646 0.05374623054 0.05903686287 0.063672276861 0.067527802266 0.070541474123 0.0727216766 
0.074144487124 0.074941399914 0.075280651511 0.075352063232 0.075377113012 0.075753204814 0.076158654746 0.07639443008 0.076360235766 
0.076034895517 0.075480879106 0.074853726197 0.074337326844 0.074135684774 0.074357843327 0.074933476419 0.075697363164 0.076471031966 
0.077109709589 0.077529860605 0.077717994526 0.077723927218 0.077644180488 0.077601546615 0.077724601034 0.078124571727 0.078858935109 
0.07989274657 0.081118203994 0.082440871841 0.083850174433 0.085430153252 0.087326532803 0.089705535843 0.092741163483 0.096934463959 
0.1023174292 0.10840026115 0.11489971879 0.12148572791 0.12779528006 0.13347514713 0.13822836898 0.14185369592 0.14427605415 
0.14557563826 0.14600595772 0.14588143023 0.14532885477 0.1443224546 0.14284786444 0.14093530848 0.13864134669 0.13603206873 
0.13318016803 0.13017442007 0.12712936836 0.12417817901 0.12143582768 0.11893762361 0.11658803139 0.11416204836 0.11136228022 
0.1078951478 0.10353057883 0.098134981488 0.091683516287 0.084258419188 0.0760365434 0.067267471181 0.05824393413 0.04926802291 
0.040618675114 0.032526927927 0.02516423431 0.018645299783 0.013041658814 0.0083986337801 0.0047488249309 0.0021189965788 0.00053108191093 
6.5652492951e-17 
