# vtk DataFile Version 5.1
vtk output
ASCII
DATASET POLYDATA
POINTS 100 float
-0.103809 -0.0529158 0.74498 -0.103765 -0.0527841 0.744484 -0.103651 -0.0521697 0.742956 
-0.103479 -0.0510769 0.740413 -0.103263 -0.0495142 0.736884 -0.103014 -0.0474928 0.732411 
-0.102739 -0.0450255 0.72705 -0.102428 -0.0421257 0.720868 -0.102053 -0.0388065 0.713942 
-0.101563 -0.0350819 0.706358 -0.100884 -0.0309671 0.698201 -0.0999211 -0.0264817 0.689553 
-0.0985622 -0.0216514 0.680488 -0.096687 -0.0165114 0.671057 -0.0941757 -0.0111087 0.661293 
-0.0909187 -0.00550342 0.651197 -0.0868271 0.000230801 0.640744 -0.0818406 0.00600851 0.629878 
-0.0759341 0.0117356 0.618519 -0.0691203 0.0173143 0.606571 -0.0614494 0.022649 0.593928 
-0.0530051 0.0276528 0.580485 -0.0438974 0.032254 0.56615 -0.0342533 0.0364015 0.550851 
-0.0242066 0.040068 0.534547 -0.0138865 0.0432517 0.517226 -0.00340873 0.0459751 0.498912 
0.00713187 0.0482808 0.479658 0.0176657 0.0502266 0.459541 0.0281491 0.0518769 0.438654 
0.0385613 0.0532961 0.417096 0.0488985 0.0545395 0.394962 0.0591652 0.0556482 0.372335 
0.069364 0.0566437 0.349279 0.0794857 0.0575269 0.325837 0.0894995 0.0582788 0.302031 
0.0993463 0.0588642 0.277865 0.108934 0.0592377 0.253332 0.118138 0.0593513 0.228426 
0.126802 0.0591612 0.203142 0.13475 0.0586359 0.177492 0.141791 0.0577612 0.151509 
0.147736 0.0565435 0.125246 0.152408 0.0550109 0.0987805 0.155656 0.0532106 0.0722089 
0.15737 0.0512049 0.0456404 0.157485 0.0490649 0.0191885 0.155991 0.0468633 -0.00703772 
0.152933 0.0446678 -0.0329424 0.14841 0.0425347 -0.0584496 0.142565 0.0405054 -0.083507 
0.135584 0.0386041 -0.108087 0.127674 0.0368389 -0.132184 0.119057 0.0352052 -0.155808 
0.109951 0.0336899 -0.178978 0.100562 0.0322778 -0.201711 0.0910659 0.0309575 -0.224019 
0.0816065 0.0297264 -0.245895 0.0722849 0.0285939 -0.267314 0.0631594 0.0275828 -0.288233 
0.0542463 0.0267281 -0.30859 0.0455251 0.0260728 -0.328316 0.0369454 0.0256629 -0.347339 
0.0284364 0.0255409 -0.365598 0.0199181 0.0257388 -0.38305 0.0113114 0.0262727 -0.399677 
0.00254922 0.0271385 -0.415497 -0.00641544 0.0283106 -0.430556 -0.0156025 0.0297425 -0.444931 
-0.0250013 0.0313711 -0.458722 -0.0345694 0.0331218 -0.472037 -0.044235 0.0349162 -0.484987 
-0.053902 0.0366795 -0.497666 -0.0634575 0.0383473 -0.510143 -0.0727805 0.0398711 -0.522454 
-0.0817525 0.0412214 -0.534596 -0.0902672 0.0423876 -0.546531 -0.0982399 0.0433757 -0.558185 
-0.105615 0.0442036 -0.569463 -0.11237 0.0448941 -0.580259 -0.118521 0.0454685 -0.590472 
-0.124115 0.0459395 -0.600013 -0.129232 0.0463063 -0.608825 -0.133976 0.0465527 -0.616885 
-0.138463 0.0466465 -0.624207 -0.142809 0.0465441 -0.630841 -0.147125 0.046196 -0.636865 
-0.151499 0.0455553 -0.642376 -0.155988 0.0445866 -0.647473 -0.160613 0.043275 -0.652247 
-0.165354 0.0416327 -0.656765 -0.170147 0.0397034 -0.661065 -0.174892 0.0375631 -0.665146 
-0.17946 0.0353163 -0.66897 -0.183698 0.0330894 -0.672466 -0.187446 0.0310207 -0.675541 
-0.190549 0.0292476 -0.678091 -0.19287 0.0278943 -0.680015 -0.194301 0.0270598 -0.681228 
-0.194773 0.0268075 -0.681675 
LINES 2 100
OFFSETS vtktypeint64
0 100 
CONNECTIVITY vtktypeint64
0 1 2 3 4 5 6 7 8 
9 10 11 12 13 14 15 16 17 
18 19 20 21 22 23 24 25 26 
27 28 29 30 31 32 33 34 35 
36 37 38 39 40 41 42 43 44 
45 46 47 48 49 50 51 52 53 
54 55 56 57 58 59 60 61 62 
63 64 65 66 67 68 69 70 71 
72 73 74 75 76 77 78 79 80 
81 82 83 84 85 86 87 88 89 
90 91 92 93 94 95 96 97 98 
99 
POINT_DATA 100
FIELD FieldData 3
_theta 1 100 double
0 0.031733259127 0.063466518254 0.095199777382 0.12693303651 0.15866629564 0.19039955476 0.22213281389 0.25386607302 
0.28559933214 0.31733259127 0.3490658504 0.38079910953 0.41253236865 0.44426562778 0.47599888691 0.50773214603 0.53946540516 
0.57119866429 0.60293192342 0.63466518254 0.66639844167 0.6981317008 0.72986495992 0.76159821905 0.79333147818 0.82506473731 
0.85679799643 0.88853125556 0.92026451469 0.95199777382 0.98373103294 1.0154642921 1.0471975512 1.0789308103 1.1106640695 
1.1423973286 1.1741305877 1.2058638468 1.237597106 1.2693303651 1.3010636242 1.3327968833 1.3645301425 1.3962634016 
1.4279966607 1.4597299198 1.491463179 1.5231964381 1.5549296972 1.5866629564 1.6183962155 1.6501294746 1.6818627337 
1.7135959929 1.745329252 1.7770625111 1.8087957702 1.8405290294 1.8722622885 1.9039955476 1.9357288068 1.9674620659 
1.999195325 2.0309285841 2.0626618433 2.0943951024 2.1261283615 2.1578616206 2.1895948798 2.2213281389 2.253061398 
2.2847946572 2.3165279163 2.3482611754 2.3799944345 2.4117276937 2.4434609528 2.4751942119 2.506927471 2.5386607302 
2.5703939893 2.6021272484 2.6338605076 2.6655937667 2.6973270258 2.7290602849 2.7607935441 2.7925268032 2.8242600623 
2.8559933214 2.8877265806 2.9194598397 2.9511930988 2.982926358 3.0146596171 3.0463928762 3.0781261353 3.1098593945 
3.1415926536 
_radius 1 100 double
3.5578328459e-16 0.015563359548 0.031024653059 0.046285125207 0.061264603263 0.075905696771 0.090172991665 0.10404759756 0.11751837728 
0.13057172669 0.14318183241 0.15530304503 0.16686556983 0.17777524296 0.18791774841 0.19716716962 0.20539819782 0.21250067358 
0.21839456538 0.2230431724 0.2264624005 0.22872441115 0.22995469713 0.23032257147 0.23002604679 0.22927300761 0.22826128978 
0.22716060481 0.22609903134 0.22515600695 0.22436253716 0.22370798637 0.22315161257 0.22263617421 0.22210084221 0.22149184986 
0.22077143055 0.21992640426 0.21897594259 0.21797589305 0.21701719391 0.21621794663 0.2157109003 0.21562927119 0.21609354683 
0.21720061705 0.21901530416 0.22156394789 0.22483006035 0.22875261017 0.23322780612 0.23811520666 0.2432485069 0.24845040584 
0.25354977038 0.2583984044 0.26288455228 0.2669408889 0.2705458817 0.27371864595 0.27650845485 0.27898078524 0.28120217163 
0.28322623105 0.28508301356 0.28677330017 0.28826860014 0.28951648383 0.29044976494 0.29099725243 0.29109359924 0.29068624384 
0.28973837304 0.2882278729 0.28614303858 0.28347623527 0.28021682225 0.276344635 0.27182524152 0.26660799838 0.26062755742 
0.25380892053 0.24607549771 0.23735902683 0.22760978516 0.21680536984 0.20495653386 0.19210916874 0.17834238583 0.16376338718 
0.14850005666 0.13269199433 0.11648054244 0.099998542874 0.08336095953 0.066657701923 0.049949771056 0.033269275112 0.016623167749 
2.9501997522e-16 
_area 1 100 double
0 0.00068444420014 0.0027050216563 0.0059687638073 0.010336953913 0.015644881757 0.021721625598 0.028404692663 0.035546052379 
0.043009148665 0.050659863066 0.058356417524 0.065942717533 0.073247348202 0.080088170095 0.08628125549 0.091652552706 0.096050839985 
0.099361365052 0.10152069716 0.10253314133 0.10248613771 0.10155824013 0.10000478732 0.09810898624 0.096137105002 0.094284046143 
0.092786108298 0.091800462154 0.091474287492 0.091900502413 0.093080483705 0.094893403407 0.097164497653 0.099719680749 0.10238111136 
0.10497414592 0.10737874573 0.10958103447 0.11168155982 0.1138365862 0.11615031433 0.11865246148 0.12140528066 0.12445846007 
0.12772220831 0.13118682938 0.13497173046 0.13924519318 0.14415444111 0.14977200124 0.15605772944 0.16285260941 0.16990644491 
0.17692147215 0.1835978143 0.18967507949 0.1949658489 0.1993760817 0.20290839293 0.2056473453 0.20773034653 0.209311315 
0.21052469567 0.21145495131 0.21211549421 0.21244366209 0.21231792014 0.2115932951 0.21014044527 0.20787420252 0.2047654908 
0.20083814463 0.19615557259 0.19080123045 0.18485462639 0.17836719288 0.17134968783 0.16377950062 0.15562053506 0.14684331824 
0.13744122809 0.1274438503 0.11692710734 0.10601745007 0.094886918988 0.083737588506 0.07277778696 0.062197580264 0.052153570184 
0.042768419357 0.034140567159 0.026354156131 0.01948306011 0.013589711225 0.0087225020331 0.004914759356 0.002186274155 0.00054678070032 
3.469446952e-18 
