# vtk DataFile Version 5.1
vtk output
ASCII
DATASET POLYDATA
POINTS 100 float
-0.0271051 -0.0529874 0.728113 -0.0267558 -0.0527453 0.727569 -0.0257384 -0.0517714 0.72591 
-0.0241724 -0.0500815 0.723141 -0.0222411 -0.0477036 0.719279 -0.0201699 -0.0446774 0.714351 
-0.0181999 -0.0410524 0.708397 -0.0165582 -0.0368859 0.701478 -0.0154294 -0.0322406 0.693669 
-0.0149313 -0.0271815 0.685064 -0.0150974 -0.0217735 0.675772 -0.0158675 -0.0160783 0.665906 
-0.0170887 -0.0101528 0.655582 -0.0185263 -0.00404696 0.644906 -0.0198825 0.00219673 0.633962 
-0.0208237 0.00854279 0.622812 -0.0210101 0.0149617 0.611482 -0.0201283 0.0214274 0.599962 
-0.0179202 0.0279147 0.58821 -0.0142082 0.0343956 0.576149 -0.00891182 0.0408364 0.563683 
-0.00205562 0.0471942 0.550699 0.00623244 0.0534156 0.537085 0.0157327 0.0594353 0.522739 
0.0261533 0.0651773 0.507579 0.0371561 0.0705567 0.49155 0.0483855 0.0754839 0.474629 
0.0594981 0.0798693 0.456825 0.0701893 0.0836288 0.438173 0.0802151 0.0866901 0.418732 
0.0894063 0.0889983 0.398569 0.0976746 0.0905198 0.377754 0.10501 0.0912463 0.356351 
0.111469 0.0911952 0.334408 0.117161 0.0904094 0.311952 0.122221 0.088954 0.288992 
0.126792 0.0869124 0.26552 0.131002 0.0843799 0.241518 0.134942 0.0814578 0.216965 
0.138655 0.0782465 0.191851 0.142131 0.0748401 0.166184 0.145304 0.0713214 0.14 
0.148063 0.0677591 0.113365 0.150262 0.0642062 0.0863829 0.151741 0.0607009 0.0591846 
0.152343 0.0572681 0.0319274 0.151934 0.0539229 0.00478294 0.150419 0.050674 -0.0220746 
0.147755 0.0475278 -0.048481 0.143955 0.044491 -0.0742933 0.139091 0.0415731 -0.0993994 
0.133285 0.0387878 -0.123724 0.126699 0.0361518 -0.14723 0.119519 0.0336841 -0.169916 
0.111939 0.0314036 -0.191814 0.104139 0.029326 -0.212974 0.0962744 0.0274614 -0.233462 
0.0884617 0.0258123 -0.253342 0.0807717 0.0243727 -0.272675 0.0732283 0.0231277 -0.291505 
0.0658125 0.0220557 -0.309861 0.0584706 0.0211306 -0.327755 0.0511276 0.0203253 -0.345186 
0.0437005 0.0196158 -0.362144 0.0361137 0.0189847 -0.378618 0.0283119 0.0184243 -0.394605 
0.0202703 0.017938 -0.410113 0.0120004 0.0175411 -0.425166 0.00355191 0.017259 -0.439805 
-0.00499103 0.0171242 -0.454086 -0.0135169 0.0171725 -0.468074 -0.0218977 0.0174376 -0.481835 
-0.0300009 0.0179462 -0.495428 -0.0377029 0.0187136 -0.508896 -0.0448999 0.0197401 -0.522258 
-0.0515176 0.0210093 -0.535504 -0.0575167 0.0224876 -0.548591 -0.0628953 0.0241271 -0.56145 
-0.0676864 0.0258683 -0.573985 -0.0719533 0.0276455 -0.586085 -0.0757806 0.0293925 -0.597635 
-0.0792651 0.0310482 -0.608523 -0.0825053 0.0325618 -0.618656 -0.0855919 0.0338967 -0.627963 
-0.0885997 0.0350327 -0.636407 -0.0915822 0.0359665 -0.643981 -0.0945688 0.0367101 -0.650709 
-0.0975644 0.037288 -0.656641 -0.100552 0.0377328 -0.661848 -0.103499 0.0380802 -0.666407 
-0.106356 0.038365 -0.670399 -0.109072 0.0386165 -0.673894 -0.111592 0.0388558 -0.676949 
-0.113867 0.0390941 -0.679604 -0.115851 0.0393334 -0.681878 -0.117509 0.0395675 -0.683775 
-0.118813 0.0397846 -0.685287 -0.119746 0.0399709 -0.686399 -0.120293 0.0401134 -0.687093 
-0.120449 0.0402032 -0.687358 
LINES 2 100
OFFSETS vtktypeint64
0 100 
CONNECTIVITY vtktypeint64
0 1 2 3 4 5 6 7 8 
9 10 11 12 13 14 15 16 17 
18 19 20 21 22 23 24 25 26 
27 28 29 30 31 32 33 34 35 
36 37 38 39 40 41 42 43 44 
45 46 47 48 49 50 51 52 53 
54 55 56 57 58 59 60 61 62 
63 64 65 66 67 68 69 70 71 
72 73 74 75 76 77 78 79 80 
81 82 83 84 85 86 87 88 89 
90 91 92 93 94 95 96 97 98 
99 
POINT_DATA 100
FIELD FieldData 3
_theta 1 100 double
0 0.031733259127 0.063466518254 0.095199777382 0.12693303651 0.15866629564 0.19039955476 0.22213281389 0.25386607302 
0.28559933214 0.31733259127 0.3490658504 0.38079910953 0.41253236865 0.44426562778 0.47599888691 0.50773214603 0.53946540516 
0.57119866429 0.60293192342 0.63466518254 0.66639844167 0.6981317008 0.72986495992 0.76159821905 0.79333147818 0.82506473731 
0.85679799643 0.88853125556 0.92026451469 0.95199777382 0.98373103294 1.0154642921 1.0471975512 1.0789308103 1.1106640695 
1.1423973286 1.1741305877 1.2058638468 1.237597106 1.2693303651 1.3010636242 1.3327968833 1.3645301425 1.3962634016 
1.4279966607 1.4597299198 1.491463179 1.5231964381 1.5549296972 1.5866629564 1.6183962155 1.6501294746 1.6818627337 
1.7135959929 1.745329252 1.7770625111 1.8087957702 1.8405290294 1.8722622885 1.9039955476 1.9357288068 1.9674620659 
1.999195325 2.0309285841 2.0626618433 2.0943951024 2.1261283615 2.1578616206 2.1895948798 2.2213281389 2.253061398 
2.2847946572 2.3165279163 2.3482611754 2.3799944345 2.4117276937 2.4434609528 2.4751942119 2.506927471 2.5386607302 
2.5703939893 2.6021272484 2.6338605076 2.6655937667 2.6973270258 2.7290602849 2.7607935441 2.7925268032 2.8242600623 
2.8559933214 2.8877265806 2.9194598397 2.9511930988 2.982926358 3.0146596171 3.0463928762 3.0781261353 3.1098593945 
3.1415926536 
_radius 1 100 double
1.1678181116e-16 0.014508283206 0.028783077613 0.042608982683 0.05581923637 0.068312411154 0.080060467471 0.091106714418 0.10155352767 
0.11154120137 0.12122076952 0.13072469728 0.14013986448 0.14948725539 0.15871214273 0.1676870601 0.17622753532 0.18411809865 
0.19114433272 0.19712596382 0.20194596949 0.20557122662 0.20806134245 0.20956394575 0.21029671221 0.21051855631 0.21049447108 
0.21046002535 0.21059195825 0.21099000607 0.21167203259 0.2125810871 0.21360107539 0.21457767291 0.21534182256 0.2157337236 
0.21562545251 0.2149402962 0.21366666121 0.21186448265 0.20966289355 0.20724955118 0.20485378857 0.20272664923 0.20112025433 
0.20026732146 0.20036043811 0.20153115646 0.20383109261 0.20721946555 0.21156187822 0.21664276823 0.22219003919 0.22790712669 
0.23350650166 0.23873922622 0.2434167678 0.24742307716 0.25071655754 0.25332286685 0.25532047469 0.25682154171 0.25795100964 
0.25882678645 0.25954355676 0.26016200401 0.26070412907 0.26115411928 0.26146333983 0.26155801318 0.26134901459 0.26074387296 
0.25966017845 0.25803760116 0.25584484441 0.25307921998 0.2497589946 0.24591069348 0.24155461334 0.23669199599 0.23129682195 
0.22531413971 0.21866542817 0.21125996444 0.20300987681 0.19384582479 0.18373024103 0.17266574478 0.16069745673 0.14790919265 
0.13441459396 0.12034497426 0.10583597749 0.091015116503 0.075991954547 0.060852123908 0.045655580526 0.030438631176 0.015218622663 
1.209917728e-15 
_area 1 100 double
0 0.00062401429501 0.0024532672144 0.0053656002646 0.0091772972357 0.013669973183 0.018622220124 0.02383998003 0.029178439887 
0.034548818954 0.039907949983 0.045236230405 0.050513297386 0.055697701951 0.060713761365 0.065448682798 0.069761967907 0.073505808939 
0.076551969278 0.078816473521 0.080272208088 0.080955389642 0.080979524043 0.080544193931 0.079915833617 0.079380183434 0.079189689437 
0.079531927481 0.080555517007 0.082517220546 0.08529800722 0.088618702191 0.09214219463 0.095581866017 0.098611635012 0.10095689371 
0.10245442977 0.10305586095 0.10279516324 0.1018543623 0.10053208399 0.099144383227 0.097948454036 0.097109706608 0.096788194024 
0.097313706447 0.098913166051 0.10146027515 0.10504371314 0.10976344459 0.11564049716 0.12255845751 0.13025167186 0.138345227 
0.14641756084 0.15406225824 0.16094029558 0.16681851306 0.17159397879 0.17530642547 0.17810053325 0.18010036314 0.18137673642 
0.18200622343 0.18209275242 0.18174503043 0.18105450724 0.18007773945 0.1788230408 0.1772489282 0.17527240344 0.17278251149 
0.1696632937 0.16583191446 0.16127558077 0.15606120363 0.15031483088 0.14418559274 0.13780696957 0.1312632463 0.12456900526 
0.11766911621 0.11046132114 0.10283525087 0.094715478949 0.086095216967 0.077051460309 0.067739312158 0.058369665125 0.049178286196 
0.0403951269 0.032220833378 0.0248138639 0.018287768107 0.012715705927 0.008138839403 0.0045759644134 0.0020325445161 0.00050790453705 
2.1817899195e-17 
