# vtk DataFile Version 5.1
vtk output
ASCII
DATASET POLYDATA
POINTS 100 float
-0.170407 -0.104725 0.774345 -0.170168 -0.104528 0.774429 -0.169463 -0.103714 0.77467 
-0.168289 -0.102274 0.774967 -0.166641 -0.100197 0.775168 -0.164515 -0.0974752 0.775079 
-0.161905 -0.0941068 0.774491 -0.158805 -0.0900978 0.773196 -0.155206 -0.0854658 0.771012 
-0.151099 -0.0802407 0.767796 -0.14647 -0.0744644 0.763454 -0.141305 -0.0681891 0.757951 
-0.135583 -0.0614745 0.751305 -0.129284 -0.0543837 0.743578 -0.122382 -0.0469796 0.734865 
-0.114853 -0.0393209 0.725273 -0.106677 -0.0314596 0.714908 -0.0978415 -0.0234406 0.703855 
-0.0883441 -0.0153017 0.692169 -0.078201 -0.00707684 0.679862 -0.0674488 0.00120037 0.666905 
-0.0561489 0.00949129 0.653229 -0.0443884 0.0177473 0.638738 -0.0322799 0.0259055 0.623315 
-0.0199584 0.0338856 0.606844 -0.00757551 0.0415891 0.589221 0.00470842 0.0489019 0.570367 
0.0167335 0.055698 0.550241 0.028351 0.0618474 0.528842 0.0394332 0.0672243 0.506209 
0.0498823 0.0717179 0.48242 0.0596369 0.0752411 0.457583 0.0686751 0.07774 0.431819 
0.0770138 0.0791992 0.40526 0.0847041 0.0796453 0.378029 0.0918232 0.079146 0.350235 
0.0984622 0.0778061 0.321968 0.104714 0.0757594 0.293293 0.110658 0.0731587 0.264256 
0.116348 0.070164 0.234887 0.121802 0.0669302 0.205209 0.126996 0.0635965 0.175246 
0.131858 0.0602769 0.145032 0.136278 0.0570547 0.114621 0.140107 0.0539804 0.084087 
0.143176 0.0510732 0.0535285 0.145308 0.0483257 0.0230662 0.146335 0.0457119 -0.00716255 
0.146114 0.0431962 -0.0370112 0.144544 0.0407431 -0.0663333 0.141574 0.0383264 -0.0949916 
0.137211 0.0359356 -0.122867 0.131524 0.0335807 -0.149864 0.124636 0.0312928 -0.175918 
0.116717 0.0291226 -0.200992 0.107973 0.0271346 -0.225082 0.0986271 0.0254006 -0.248207 
0.0889034 0.023991 -0.270408 0.0790128 0.0229662 -0.291742 0.0691376 0.0223699 -0.312274 
0.059421 0.0222225 -0.332076 0.0499619 0.0225195 -0.351221 0.0408123 0.0232306 -0.36978 
0.0319815 0.0243033 -0.387822 0.0234423 0.0256679 -0.405417 0.0151413 0.0272453 -0.422629 
0.00701058 0.0289548 -0.439522 -0.00102073 0.0307222 -0.456158 -0.00901529 0.0324867 -0.472593 
-0.0170189 0.0342057 -0.488874 -0.0250546 0.0358581 -0.505038 -0.0331201 0.0374435 -0.521101 
-0.041188 0.0389802 -0.537062 -0.04921 0.0405004 -0.552889 -0.0571219 0.0420437 -0.568528 
-0.064851 0.0436507 -0.583895 -0.0723237 0.0453559 -0.598881 -0.0794722 0.0471819 -0.613364 
-0.0862404 0.0491353 -0.627209 -0.0925878 0.0512047 -0.640281 -0.0984916 0.05336 -0.652461 
-0.103947 0.0555555 -0.663647 -0.108963 0.0577328 -0.673768 -0.113563 0.0598269 -0.682792 
-0.117779 0.0617717 -0.690722 -0.121645 0.063506 -0.697601 -0.125195 0.0649792 -0.703503 
-0.128462 0.0661552 -0.708528 -0.13147 0.0670161 -0.712789 -0.134237 0.0675626 -0.716407 
-0.136771 0.0678144 -0.719494 -0.139076 0.0678083 -0.722149 -0.141146 0.0675945 -0.724447 
-0.142973 0.0672333 -0.726443 -0.144545 0.0667899 -0.728165 -0.145848 0.0663299 -0.729619 
-0.146868 0.0659146 -0.730799 -0.147596 0.0655966 -0.731686 -0.148021 0.0654164 -0.732262 
-0.148139 0.0653995 -0.732512 
LINES 2 100
OFFSETS vtktypeint64
0 100 
CONNECTIVITY vtktypeint64
0 1 2 3 4 5 6 7 8 
9 10 11 12 13 14 15 16 17 
18 19 20 21 22 23 24 25 26 
27 28 29 30 31 32 33 34 35 
36 37 38 39 40 41 42 43 44 
45 46 47 48 49 50 51 52 53 
54 55 56 57 58 59 60 61 62 
63 64 65 66 67 68 69 70 71 
72 73 74 75 76 77 78 79 80 
81 82 83 84 85 86 87 88 89 
90 91 92 93 94 95 96 97 98 
99 
POINT_DATA 100
FIELD FieldData 3
_theta 1 100 double
0 0.031733259127 0.063466518254 0.095199777382 0.12693303651 0.15866629564 0.19039955476 0.22213281389 0.25386607302 
0.28559933214 0.31733259127 0.3490658504 0.38079910953 0.41253236865 0.44426562778 0.47599888691 0.50773214603 0.53946540516 
0.57119866429 0.60293192342 0.63466518254 0.66639844167 0.6981317008 0.72986495992 0.76159821905 0.79333147818 0.82506473731 
0.85679799643 0.88853125556 0.92026451469 0.95199777382 0.98373103294 1.0154642921 1.0471975512 1.0789308103 1.1106640695 
1.1423973286 1.1741305877 1.2058638468 1.237597106 1.2693303651 1.3010636242 1.3327968833 1.3645301425 1.3962634016 
1.4279966607 1.4597299198 1.491463179 1.5231964381 1.5549296972 1.5866629564 1.6183962155 1.6501294746 1.6818627337 
1.7135959929 1.745329252 1.7770625111 1.8087957702 1.8405290294 1.8722622885 1.9039955476 1.9357288068 1.9674620659 
1.999195325 2.0309285841 2.0626618433 2.0943951024 2.1261283615 2.1578616206 2.1895948798 2.2213281389 2.253061398 
2.2847946572 2.3165279163 2.3482611754 2.3799944345 2.4117276937 2.4434609528 2.4751942119 2.506927471 2.5386607302 
2.5703939893 2.6021272484 2.6338605076 2.6655937667 2.6973270258 2.7290602849 2.7607935441 2.7925268032 2.8242600623 
2.8559933214 2.8877265806 2.9194598397 2.9511930988 2.982926358 3.0146596171 3.0463928762 3.0781261353 3.1098593945 
3.1415926536 
_radius 1 100 double
2.7894008273e-16 0.016942265826 0.033672744229 0.049982886951 0.065677710692 0.080581242473 0.094540350125 0.10742681875 0.1191378767 
0.12959575401 0.13874717968 0.14656382523 0.15304439076 0.15821822722 0.16214928009 0.16493821478 0.16672041695 0.16765844099 
0.16792917083 0.16770779433 0.16715191918 0.16638930167 0.16551173073 0.16457601148 0.16361125018 0.16263019113 0.16164150358 
0.1606598094 0.15971083983 0.15883021786 0.15805581053 0.15741614945 0.15692214678 0.15656997045 0.15635203996 0.15626541503 
0.15631328593 0.1565024753 0.15684071549 0.15733559679 0.15799537648 0.15883080977 0.15985652267 0.16109034109 0.16255024226 
0.16425100346 0.16620377735 0.16841977442 0.17091569631 0.17371678413 0.1768542099 0.18035585737 0.18423216861 0.18846093005 
0.19297581923 0.19766269277 0.20236534588 0.20689992788 0.21107534524 0.21471613886 0.21768426343 0.21989662331 0.22133600575 
0.2220541078 0.22216646345 0.22183999291 0.22127452206 0.22068002114 0.22025165862 0.22014523834 0.2204560805 0.22120444544 
0.22232983159 0.2236950646 0.22509948298 0.22629913195 0.22703097554 0.22703784378 0.22609110649 0.22400874167 0.22066734407 
0.21600751997 0.21003290461 0.20280362466 0.19442536909 0.18503535104 0.17478643558 0.16383071989 0.15230402371 0.14031310636 
0.12792775123 0.11517965857 0.10206893791 0.088577077224 0.074683463232 0.060381700174 0.045692302045 0.030669416791 0.015400601283 
3.4643313178e-16 
_area 1 100 double
0 0.00075968629759 0.0029866469543 0.0065300440849 0.01115634478 0.016574574325 0.022467502755 0.028523231294 0.034460511529 
0.040042748853 0.045080112801 0.049424229213 0.052962497868 0.055617876342 0.057356130909 0.058198357762 0.058234045535 0.057629692107 
0.056628205634 0.055530424212 0.054636171846 0.054129304786 0.053992329226 0.054099163791 0.054278948497 0.054408034887 0.054433131826 
0.054380302449 0.054333385361 0.054402459269 0.054676733978 0.055171459223 0.055797565833 0.056451652965 0.057073096431 0.057660100794 
0.058271715627 0.059022839786 0.060068288107 0.061558085922 0.063582213998 0.066151071518 0.069195083306 0.072581295619 0.076149463477 
0.079754460935 0.083298916925 0.086746525157 0.090120660461 0.093493514469 0.096964408039 0.10063579876 0.10460144444 0.10894009146 
0.11369576018 0.11884057224 0.12424669008 0.12970364118 0.13487378903 0.13949186034 0.14319624759 0.14559262513 0.1467341838 
0.14642875887 0.14484872925 0.14233171212 0.13930431184 0.13616579765 0.13320658669 0.1307386327 0.12900843511 0.12814289313 
0.12812060002 0.12876768463 0.12978822445 0.13081322948 0.13144741542 0.13131112779 0.13007948545 0.12751577229 0.12349415094 
0.11800863377 0.1111681257 0.10317968073 0.094323312917 0.084921629328 0.075306764219 0.065786693506 0.056613944606 0.047962365353 
0.039920645132 0.032509596403 0.025719262696 0.019549470978 0.014037248932 0.0092647409861 0.0053499444167 0.0024258332928 0.00061411040068 
4.0220194144e-17 
