# vtk DataFile Version 5.1
vtk output
ASCII
DATASET POLYDATA
POINTS 100 float
-0.0763128 -0.0307712 0.683822 -0.0763301 -0.0305011 0.683959 -0.0763753 -0.0294791 0.684326 
-0.0764549 -0.0277525 0.684798 -0.0765762 -0.0253963 0.685187 -0.0767428 -0.0225047 0.68526 
-0.076949 -0.019182 0.684768 -0.0771746 -0.0155318 0.683476 -0.0773795 -0.0116471 0.681183 
-0.0775009 -0.00760166 0.677747 -0.0774524 -0.00344492 0.673095 -0.077125 0.000801035 0.667224 
-0.076392 0.00514016 0.660196 -0.075116 0.00959803 0.65212 -0.0731574 0.0142145 0.643132 
-0.0703853 0.0190344 0.633375 -0.0666878 0.0240975 0.622971 -0.0619823 0.0294283 0.612005 
-0.0562235 0.0350277 0.600514 -0.0494088 0.0408668 0.588481 -0.0415805 0.046884 0.575842 
-0.0328243 0.0529853 0.562494 -0.0232636 0.0590479 0.54832 -0.0130512 0.0649276 0.533203 
-0.00235767 0.0704677 0.51705 0.00864102 0.0755096 0.499805 0.0197765 0.079904 0.481467 
0.0309 0.0835213 0.462085 0.0418914 0.0862603 0.441758 0.0526656 0.0880551 0.420623 
0.0631743 0.0888781 0.398833 0.0734038 0.0887415 0.376541 0.0833682 0.0876947 0.353877 
0.0930996 0.0858199 0.330931 0.102636 0.0832252 0.307743 0.112005 0.0800372 0.284299 
0.121218 0.0763924 0.260538 0.130248 0.072429 0.236364 0.139033 0.0682797 0.211663 
0.147466 0.0640654 0.186335 0.155398 0.0598909 0.160306 0.162647 0.0558418 0.133559 
0.169006 0.0519832 0.106143 0.17426 0.04836 0.0781796 0.178206 0.0449982 0.0498617 
0.180665 0.0419072 0.0214403 0.181504 0.0390828 -0.00679558 0.180646 0.0365104 -0.0345449 
0.178082 0.0341681 -0.0615222 0.173872 0.0320306 -0.0874838 0.168145 0.0300714 -0.11225 
0.161092 0.0282659 -0.135721 0.15295 0.0265937 -0.157877 0.143984 0.0250397 -0.178782 
0.134474 0.0235959 -0.198563 0.124685 0.0222615 -0.217394 0.114858 0.0210428 -0.23547 
0.105188 0.0199526 -0.252982 0.0958155 0.0190086 -0.270096 0.0868211 0.0182315 -0.286932 
0.0782247 0.0176427 -0.303557 0.0699918 0.0172618 -0.319983 0.0620446 0.0171035 -0.336175 
0.0542764 0.017176 -0.35206 0.0465675 0.0174787 -0.367554 0.0388024 0.0180011 -0.382575 
0.030885 0.0187226 -0.397062 0.0227512 0.0196137 -0.410997 0.0143771 0.0206369 -0.424403 
0.0057828 0.02175 -0.437352 -0.00296864 0.0229089 -0.449956 -0.0117772 0.0240706 -0.462349 
-0.0205155 0.0251973 -0.474675 -0.0290405 0.0262582 -0.487062 -0.0372076 0.0272325 -0.499605 
-0.0448836 0.0281095 -0.512348 -0.0519585 0.0288894 -0.525275 -0.0583549 0.0295813 -0.538307 
-0.0640337 0.0302015 -0.55131 -0.0689963 0.0307706 -0.564102 -0.0732827 0.0313102 -0.576475 
-0.0769664 0.0318395 -0.588215 -0.0801465 0.0323733 -0.599127 -0.0829376 0.0329194 -0.609049 
-0.0854593 0.0334783 -0.61787 -0.0878259 0.0340426 -0.625538 -0.0901367 0.0345992 -0.632064 
-0.0924689 0.0351306 -0.637511 -0.0948717 0.035618 -0.641987 -0.0973647 0.0360439 -0.645627 
-0.0999372 0.0363949 -0.648578 -0.102551 0.0366636 -0.650982 -0.105146 0.03685 -0.652962 
-0.107643 0.0369614 -0.654614 -0.109955 0.0370118 -0.656 -0.111993 0.0370199 -0.657156 
-0.113671 0.0370067 -0.658088 -0.114916 0.036993 -0.65879 -0.11567 0.0369961 -0.659246 
-0.115899 0.0370279 -0.659443 
LINES 2 100
OFFSETS vtktypeint64
0 100 
CONNECTIVITY vtktypeint64
0 1 2 3 4 5 6 7 8 
9 10 11 12 13 14 15 16 17 
18 19 20 21 22 23 24 25 26 
27 28 29 30 31 32 33 34 35 
36 37 38 39 40 41 42 43 44 
45 46 47 48 49 50 51 52 53 
54 55 56 57 58 59 60 61 62 
63 64 65 66 67 68 69 70 71 
72 73 74 75 76 77 78 79 80 
81 82 83 84 85 86 87 88 89 
90 91 92 93 94 95 96 97 98 
99 
POINT_DATA 100
FIELD FieldData 3
_theta 1 100 double
0 0.031733259127 0.063466518254 0.095199777382 0.12693303651 0.15866629564 0.19039955476 0.22213281389 0.25386607302 
0.28559933214 0.31733259127 0.3490658504 0.38079910953 0.41253236865 0.44426562778 0.47599888691 0.50773214603 0.53946540516 
0.57119866429 0.60293192342 0.63466518254 0.66639844167 0.6981317008 0.72986495992 0.76159821905 0.79333147818 0.82506473731 
0.85679799643 0.88853125556 0.92026451469 0.95199777382 0.98373103294 1.0154642921 1.0471975512 1.0789308103 1.1106640695 
1.1423973286 1.1741305877 1.2058638468 1.237597106 1.2693303651 1.3010636242 1.3327968833 1.3645301425 1.3962634016 
1.4279966607 1.4597299198 1.491463179 1.5231964381 1.5549296972 1.5866629564 1.6183962155 1.6501294746 1.6818627337 
1.7135959929 1.745329252 1.7770625111 1.8087957702 1.8405290294 1.8722622885 1.9039955476 1.9357288068 1.9674620659 
1.999195325 2.0309285841 2.0626618433 2.0943951024 2.1261283615 2.1578616206 2.1895948798 2.2213281389 2.253061398 
2.2847946572 2.3165279163 2.3482611754 2.3799944345 2.4117276937 2.4434609528 2.4751942119 2.506927471 2.5386607302 
2.5703939893 2.6021272484 2.6338605076 2.6655937667 2.6973270258 2.7290602849 2.7607935441 2.7925268032 2.8242600623 
2.8559933214 2.8877265806 2.9194598397 2.9511930988 2.982926358 3.0146596171 3.0463928762 3.0781261353 3.1098593945 
3.1415926536 
_radius 1 100 double
1.2244788682e-15 0.014193950316 0.028371519199 0.042501417797 0.056540172046 0.070427382762 0.084082146856 0.097401103512 0.11025860923 
0.12250947679 0.13399450755 0.14454874109 0.15401200905 0.16224107095 0.16912236072 0.1745842042 0.17860729397 0.18123221695 
0.18256287448 0.18276467863 0.1820565265 0.18069598491 0.1789581673 0.17711052902 0.17538769357 0.1739712243 0.17297799463 
0.17245804639 0.1724003501 0.17274374788 0.17339015695 0.17421731208 0.17508924598 0.17586477091 0.17640689611 0.17659757148 
0.17635968005 0.17568177178 0.17463616986 0.17338182313 0.17214753161 0.17119719833 0.17078624649 0.17112267726 0.17234268749 
0.17450351601 0.17759139635 0.18153945966 0.18624792288 0.19159913291 0.19746398981 0.20370150573 0.21015658071 0.21666101723 
0.22304003964 0.22912326517 0.23475719414 0.23981629674 0.24421077172 0.24789007564 0.25084204856 0.25308803329 0.25467494174 
0.2556656999 0.2561297055 0.25613473428 0.25574119338 0.2549989569 0.25394645949 0.25261140646 0.25101238362 0.24916072654 
0.24706212087 0.24471748471 0.24212274595 0.23926726972 0.23613100754 0.23268092344 0.22886774898 0.22462440824 0.21986735745 
0.21450155242 0.20842889177 0.20155902928 0.19382070873 0.18517147802 0.17560384923 0.16514661786 0.15386102323 0.14183257269 
0.12916039825 0.1159465592 0.10228744318 0.08826848158 0.073962313293 0.059429749935 0.044722499175 0.029886502823 0.014964899129 
8.6495023868e-16 
_area 1 100 double
0 0.00059793312083 0.0023749120586 0.0052808585422 0.0092337912969 0.014122334435 0.019808681002 0.026130334109 0.032899445564 
0.03990097269 0.046893194793 0.053614224482 0.059796166547 0.065185846264 0.06956845814 0.072788916848 0.074766193415 0.075498704277 
0.075062139228 0.073602455199 0.071325981898 0.068489228034 0.06540416178 0.062595176083 0.060893927349 0.060033527697 0.059837547412 
0.060130604891 0.060772180193 0.061673083068 0.062773149445 0.064037079157 0.065448367208 0.066997884472 0.068666650725 0.070414856715 
0.072179960898 0.073880823506 0.075436313762 0.076801689199 0.078004170622 0.079158258401 0.080450418196 0.082089472577 0.084247472112 
0.08701492193 0.090385282276 0.094336259997 0.098885761004 0.104064965 0.10987838281 0.1162815546 0.12317344169 0.13039693256 
0.13774546898 0.14497612439 0.15182986774 0.1580565683 0.16343798233 0.16780320243 0.17103803568 0.17309364386 0.17399325361 
0.1738331764 0.17279726285 0.17122764916 0.16933291754 0.16708678233 0.16436900764 0.16113978104 0.15744647176 0.15338100483 
0.14905505874 0.14457969157 0.14004992092 0.1355355459 0.13107474698 0.12666430831 0.12224658789 0.11770403804 0.11287308199 
0.1075771643 0.10166727259 0.095056752698 0.087742360482 0.079808978194 0.071418842912 0.062788050199 0.05415488795 0.04574697712 
0.037756100934 0.030327867634 0.023566575828 0.017548334643 0.012333908038 0.0079767149459 0.0045256865527 0.0020244128708 0.00050812891607 
7.6874845268e-17 
