# vtk DataFile Version 5.1
vtk output
ASCII
DATASET POLYDATA
POINTS 100 float
-0.0446486 -0.0180157 0.719739 -0.0448335 -0.0180779 0.719739 -0.0453857 -0.0180386 0.719686 
-0.0462304 -0.0178505 0.719488 -0.0472521 -0.0174427 0.719005 -0.048308 -0.0167309 0.718066 
-0.0492443 -0.0156281 0.716487 -0.0499119 -0.0140573 0.714094 -0.0501815 -0.0119612 0.710743 
-0.0499536 -0.00931059 0.706333 -0.0491638 -0.00610888 0.700817 -0.0477824 -0.00239196 0.694206 
-0.0458083 0.00177548 0.68656 -0.043259 0.00630729 0.677981 -0.040158 0.0111055 0.668594 
-0.0365229 0.0160711 0.658527 -0.0323549 0.0211136 0.647897 -0.0276332 0.0261596 0.636789 
-0.0223148 0.0311572 0.625246 -0.0163395 0.0360771 0.613262 -0.00964173 0.04091 0.600786 
-0.00216451 0.0456601 0.587724 0.00612343 0.0503365 0.573958 0.0152123 0.0549437 0.559361 
0.0250389 0.0594719 0.543814 0.0354806 0.0638901 0.527225 0.0463565 0.0681419 0.509542 
0.0574359 0.0721451 0.490765 0.0684557 0.0757961 0.470942 0.0791415 0.0789776 0.450175 
0.0892342 0.0815699 0.4286 0.0985146 0.0834632 0.406379 0.106826 0.0845702 0.383678 
0.114091 0.0848373 0.360654 0.120318 0.0842525 0.337433 0.125598 0.0828488 0.314102 
0.130094 0.0807036 0.2907 0.134016 0.0779327 0.267219 0.137596 0.0746801 0.243606 
0.141057 0.0711055 0.219782 0.144579 0.0673699 0.195647 0.148277 0.0636214 0.171108 
0.15218 0.0599829 0.146088 0.156222 0.0565435 0.120546 0.160247 0.0533535 0.0944845 
0.164022 0.0504247 0.0679594 0.16726 0.0477346 0.0410755 0.169651 0.0452344 0.0139824 
0.170894 0.0428603 -0.0131372 0.170732 0.0405445 -0.040082 0.168975 0.0382272 -0.0666488 
0.165524 0.0358655 -0.092648 0.160381 0.0334403 -0.117918 0.153645 0.0309592 -0.142338 
0.145502 0.0284551 -0.165828 0.136205 0.0259825 -0.188357 0.126046 0.0236099 -0.209936 
0.115327 0.0214114 -0.23061 0.104329 0.0194583 -0.250451 0.093293 0.0178103 -0.269543 
0.0823967 0.0165105 -0.287976 0.0717482 0.0155813 -0.305831 0.0613857 0.0150247 -0.323179 
0.0512859 0.0148241 -0.340073 0.0413792 0.0149495 -0.356552 0.0315697 0.0153628 -0.372638 
0.0217558 0.016025 -0.388346 0.0118505 0.0169009 -0.403684 0.00179587 0.0179644 -0.418662 
-0.0084261 0.0191998 -0.433296 -0.0187911 0.0206016 -0.447609 -0.0292357 0.0221729 -0.461628 
-0.0396667 0.0239201 -0.475387 -0.0499737 0.0258486 -0.48892 -0.0600439 0.0279572 -0.502255 
-0.0697763 0.0302339 -0.515406 -0.0790922 0.0326526 -0.528368 -0.0879432 0.035173 -0.541116 
-0.0963124 0.0377412 -0.553597 -0.104212 0.0402941 -0.565734 -0.111675 0.0427641 -0.577427 
-0.118748 0.0450857 -0.58856 -0.125475 0.0472013 -0.59901 -0.131893 0.0490671 -0.608654 
-0.138019 0.0506566 -0.617381 -0.143848 0.051963 -0.625101 -0.149354 0.0529981 -0.63175 
-0.154492 0.0537903 -0.637303 -0.159207 0.0543797 -0.641767 -0.163442 0.054813 -0.645193 
-0.167151 0.0551372 -0.647664 -0.170303 0.0553946 -0.649295 -0.172895 0.0556186 -0.650224 
-0.174944 0.0558308 -0.650605 -0.176498 0.056041 -0.650597 -0.177617 0.0562482 -0.650354 
-0.178376 0.0564437 -0.650016 -0.178847 0.0566144 -0.649703 -0.17909 0.0567473 -0.649503 
-0.179147 0.0568326 -0.649474 
LINES 2 100
OFFSETS vtktypeint64
0 100 
CONNECTIVITY vtktypeint64
0 1 2 3 4 5 6 7 8 
9 10 11 12 13 14 15 16 17 
18 19 20 21 22 23 24 25 26 
27 28 29 30 31 32 33 34 35 
36 37 38 39 40 41 42 43 44 
45 46 47 48 49 50 51 52 53 
54 55 56 57 58 59 60 61 62 
63 64 65 66 67 68 69 70 71 
72 73 74 75 76 77 78 79 80 
81 82 83 84 85 86 87 88 89 
90 91 92 93 94 95 96 97 98 
99 
POINT_DATA 100
FIELD FieldData 3
_theta 1 100 double
0 0.031733259127 0.063466518254 0.095199777382 0.12693303651 0.15866629564 0.19039955476 0.22213281389 0.25386607302 
0.28559933214 0.31733259127 0.3490658504 0.38079910953 0.41253236865 0.44426562778 0.47599888691 0.50773214603 0.53946540516 
0.57119866429 0.60293192342 0.63466518254 0.66639844167 0.6981317008 0.72986495992 0.76159821905 0.79333147818 0.82506473731 
0.85679799643 0.88853125556 0.92026451469 0.95199777382 0.98373103294 1.0154642921 1.0471975512 1.0789308103 1.1106640695 
1.1423973286 1.1741305877 1.2058638468 1.237597106 1.2693303651 1.3010636242 1.3327968833 1.3645301425 1.3962634016 
1.4279966607 1.4597299198 1.491463179 1.5231964381 1.5549296972 1.5866629564 1.6183962155 1.6501294746 1.6818627337 
1.7135959929 1.745329252 1.7770625111 1.8087957702 1.8405290294 1.8722622885 1.9039955476 1.9357288068 1.9674620659 
1.999195325 2.0309285841 2.0626618433 2.0943951024 2.1261283615 2.1578616206 2.1895948798 2.2213281389 2.253061398 
2.2847946572 2.3165279163 2.3482611754 2.3799944345 2.4117276937 2.4434609528 2.4751942119 2.506927471 2.5386607302 
2.5703939893 2.6021272484 2.6338605076 2.6655937667 2.6973270258 2.7290602849 2.7607935441 2.7925268032 2.8242600623 
2.8559933214 2.8877265806 2.9194598397 2.9511930988 2.982926358 3.0146596171 3.0463928762 3.0781261353 3.1098593945 
3.1415926536 
_radius 1 100 double
4.220764384e-17 0.015468223092 0.030800870234 0.045868052045 0.060556479741 0.074773463809 0.08844683525 0.10152114533 0.1139513684 
0.12569583737 0.13671016349 0.14694347588 0.15633764441 0.16482945095 0.17235513348 0.17885643254 0.18428721897 0.18861990957 
0.19185108105 0.19400586292 0.195140747 0.19534438762 0.19473588211 0.19346009863 0.19168003402 0.18956694958 0.18728987474 
0.18500647591 0.1828568089 0.18096014498 0.17941355386 0.17829017071 0.17763557663 0.17746221755 0.17774349292 0.1784102831 
0.179352768 0.18042925735 0.18148165667 0.18235495093 0.18291685311 0.18307417477 0.18278404228 0.18205960642 0.18097057703 
0.17963901168 0.1782309961 0.17694518485 0.17599887679 0.17561120171 0.17598240689 0.17726969727 0.17956323681 0.18286835373 
0.18709941555 0.19208722921 0.19759750047 0.20335546187 0.20907201995 0.2144685238 0.21929887033 0.22336824294 0.22654747038 
0.22878153593 0.23009085262 0.23056473667 0.23034775238 0.22962073317 0.22857888636 0.22740940952 0.22627080745 0.22527594309 
0.22448071465 0.2238796947 0.22340888422 0.22295437629 0.22236494921 0.22146669346 0.22007828737 0.21802587149 0.21515644909 
0.2113486079 0.20651943497 0.20062690952 0.1936677266 0.18567124363 0.17669084947 0.16679436798 0.15605507233 0.14454458263 
0.1323284781 0.11946494835 0.10600625559 0.092002253401 0.077504853747 0.062572276307 0.0472721437 0.031682871632 0.015893196179 
8.0251444754e-16 
_area 1 100 double
0 0.00065117377296 0.0025717455881 0.0056670894929 0.0097927221364 0.014771368824 0.020411922879 0.026526584002 0.032942834713 
0.039508145577 0.046087352341 0.052554917731 0.058785685012 0.064647584025 0.069998548809 0.07468871805 0.078568349843 0.081501565073 
0.083385647499 0.084174991459 0.083907844419 0.082731965562 0.080916182455 0.078809042268 0.076735537366 0.074929952086 0.073537299884 
0.072614243515 0.072133987081 0.072022217869 0.072185887368 0.072539420997 0.073032101268 0.07365617452 0.074434401462 0.075399550912 
0.076575315275 0.077963392557 0.079538749022 0.081241574104 0.082975882013 0.084625053015 0.086029183608 0.087087580266 0.087771992087 
0.088074214125 0.088059927753 0.087876375119 0.08776587065 0.088169391269 0.089173012316 0.090928715481 0.093627609718 0.097378334864 
0.1021630902 0.10783556385 0.11414106398 0.12074575157 0.1272738451 0.1333481424 0.13862744532 0.14283811523 0.14579989887 
0.14744521241 0.14782808531 0.147118117 0.14557649323 0.14350930332 0.14119685954 0.13883433678 0.13653215528 0.13434994392 
0.13231461531 0.1304190838 0.12861719027 0.12682648319 0.12493851272 0.12282827584 0.12035854598 0.11738436309 0.11376448086 
0.10937995324 0.10415431868 0.098069160805 0.091171032206 0.083568531823 0.075421060175 0.066922671468 0.058284510512 0.049718003075 
0.041420216669 0.033563410427 0.026291056783 0.019720905565 0.013952677435 0.0090759313896 0.005174058042 0.0023227835404 0.00058432480009 
3.837747069e-17 
