# vtk DataFile Version 5.1
vtk output
ASCII
DATASET POLYDATA
POINTS 100 float
-0.0959707 0.0113425 0.63495 -0.0960035 0.0111544 0.634947 -0.0961881 0.0108672 0.634957 
-0.0964627 0.0105368 0.634922 -0.0967278 0.010249 0.634749 -0.0968532 0.0101115 0.634315 
-0.0966881 0.0102434 0.63348 -0.096072 0.0107641 0.632092 -0.094847 0.011782 0.629998 
-0.0928693 0.0133841 0.627055 -0.0900203 0.0156281 0.623134 -0.086216 0.0185373 0.618133 
-0.0814128 0.0220982 0.611975 -0.0756114 0.0262613 0.604612 -0.0688568 0.0309457 0.596025 
-0.0612348 0.0360446 0.586222 -0.0528656 0.0414335 0.575233 -0.0438947 0.0469788 0.563103 
-0.0344821 0.0525457 0.549889 -0.02479 0.0580063 0.535651 -0.0149716 0.0632451 0.520446 
-0.00515992 0.0681632 0.504329 0.00454006 0.0726804 0.487342 0.0140575 0.0767352 0.469518 
0.0233574 0.0802837 0.450881 0.0324393 0.0832967 0.431446 0.0413321 0.085757 0.411221 
0.0500855 0.0876556 0.390213 0.0587601 0.0889892 0.368433 0.0674145 0.089758 0.345896 
0.0760942 0.0899639 0.322629 0.0848201 0.0896106 0.29867 0.0935797 0.088704 0.274073 
0.102322 0.0872525 0.248906 0.110954 0.0852695 0.223254 0.119345 0.0827737 0.197212 
0.127333 0.0797914 0.170885 0.134733 0.0763569 0.144386 0.141348 0.0725131 0.11783 
0.146988 0.0683115 0.0913286 0.151481 0.063812 0.0649905 0.154687 0.0590814 0.038914 
0.15651 0.0541924 0.0131862 0.156903 0.0492224 -0.0121194 0.155876 0.0442513 -0.0369442 
0.15349 0.0393601 -0.0612447 0.149858 0.0346289 -0.084992 0.145132 0.0301346 -0.108171 
0.139492 0.0259494 -0.130777 0.133131 0.0221377 -0.152818 0.126247 0.0187546 -0.174305 
0.119022 0.0158431 -0.195259 0.111616 0.0134322 -0.215698 0.104157 0.0115356 -0.235647 
0.0967373 0.0101506 -0.255124 0.0894131 0.00925798 -0.274149 0.0822069 0.00882336 -0.292736 
0.0751144 0.00879919 -0.310898 0.0681137 0.00912809 -0.328643 0.0611746 0.00974709 -0.345976 
0.054269 0.0105924 -0.362901 0.0473799 0.0116042 -0.379421 0.0405077 0.0127316 -0.395539 
0.0336743 0.013936 -0.411258 0.0269239 0.0151939 -0.426585 0.02032 0.0164975 -0.441527 
0.0139403 0.0178535 -0.456095 0.00786868 0.0192807 -0.470301 0.00218681 0.0208054 -0.48416 
-0.00303509 0.0224562 -0.497686 -0.00774607 0.0242582 -0.510891 -0.0119204 0.0262272 -0.523784 
-0.0155607 0.0283656 -0.536369 -0.0186982 0.0306594 -0.548643 -0.0213893 0.033077 -0.560596 
-0.0237099 0.0355714 -0.572207 -0.0257467 0.0380832 -0.583446 -0.0275879 0.0405462 -0.594276 
-0.0293132 0.0428943 -0.604649 -0.030985 0.0450688 -0.614516 -0.0326414 0.0470243 -0.62382 
-0.0342921 0.0487349 -0.632507 -0.0359171 0.050197 -0.640527 -0.0374703 0.0514304 -0.647835 
-0.0388843 0.0524758 -0.654397 -0.0400798 0.0533906 -0.660193 -0.0409754 0.0542418 -0.665219 
-0.0414987 0.0550981 -0.669485 -0.0415969 0.056021 -0.673021 -0.041245 0.0570571 -0.675874 
-0.0404519 0.0582315 -0.678103 -0.0392629 0.0595437 -0.679781 -0.0377579 0.0609668 -0.680991 
-0.0360468 0.0624493 -0.681819 -0.0342604 0.0639203 -0.682352 -0.0325397 0.0652972 -0.682674 
-0.0310236 0.0664942 -0.682857 -0.0298362 0.0674322 -0.682965 -0.0290753 0.0680475 -0.683044 
-0.0288035 0.0682993 -0.683122 
LINES 2 100
OFFSETS vtktypeint64
0 100 
CONNECTIVITY vtktypeint64
0 1 2 3 4 5 6 7 8 
9 10 11 12 13 14 15 16 17 
18 19 20 21 22 23 24 25 26 
27 28 29 30 31 32 33 34 35 
36 37 38 39 40 41 42 43 44 
45 46 47 48 49 50 51 52 53 
54 55 56 57 58 59 60 61 62 
63 64 65 66 67 68 69 70 71 
72 73 74 75 76 77 78 79 80 
81 82 83 84 85 86 87 88 89 
90 91 92 93 94 95 96 97 98 
99 
POINT_DATA 100
FIELD FieldData 3
_theta 1 100 double
0 0.031733259127 0.063466518254 0.095199777382 0.12693303651 0.15866629564 0.19039955476 0.22213281389 0.25386607302 
0.28559933214 0.31733259127 0.3490658504 0.38079910953 0.41253236865 0.44426562778 0.47599888691 0.50773214603 0.53946540516 
0.57119866429 0.60293192342 0.63466518254 0.66639844167 0.6981317008 0.72986495992 0.76159821905 0.79333147818 0.82506473731 
0.85679799643 0.88853125556 0.92026451469 0.95199777382 0.98373103294 1.0154642921 1.0471975512 1.0789308103 1.1106640695 
1.1423973286 1.1741305877 1.2058638468 1.237597106 1.2693303651 1.3010636242 1.3327968833 1.3645301425 1.3962634016 
1.4279966607 1.4597299198 1.491463179 1.5231964381 1.5549296972 1.5866629564 1.6183962155 1.6501294746 1.6818627337 
1.7135959929 1.745329252 1.7770625111 1.8087957702 1.8405290294 1.8722622885 1.9039955476 1.9357288068 1.9674620659 
1.999195325 2.0309285841 2.0626618433 2.0943951024 2.1261283615 2.1578616206 2.1895948798 2.2213281389 2.253061398 
2.2847946572 2.3165279163 2.3482611754 2.3799944345 2.4117276937 2.4434609528 2.4751942119 2.506927471 2.5386607302 
2.5703939893 2.6021272484 2.6338605076 2.6655937667 2.6973270258 2.7290602849 2.7607935441 2.7925268032 2.8242600623 
2.8559933214 2.8877265806 2.9194598397 2.9511930988 2.982926358 3.0146596171 3.0463928762 3.0781261353 3.1098593945 
3.1415926536 
_radius 1 100 double
7.7737486296e-16 0.01509469501 0.030202796383 0.045316147527 0.060396402394 0.075363510723 0.090088876043 0.10439517791 0.11806412074 
0.13085202212 0.14251158325 0.15281687725 0.16158791155 0.16871119753 0.17415349566 0.1779670585 0.18028599018 0.1813145378 
0.18130904641 0.18055584008 0.1793474272 0.17795924752 0.17662882161 0.17553880954 0.17480530989 0.17447275719 0.17451674542 
0.17485553872 0.17536958989 0.17592639922 0.17640654025 0.17672652734 0.17685516977 0.17682110203 0.17670980943 0.17664949763 
0.17678787844 0.17726617633 0.17819923059 0.17966771675 0.18172153802 0.18438823087 0.1876798659 0.19159463479 0.19611275751 
0.20118945473 0.20674950929 0.21268734987 0.21887387174 0.22516816413 0.23143073685 0.23753513151 0.24337617959 0.24887462425 
0.25397871317 0.25866354533 0.26292864946 0.26679390403 0.27029381757 0.27347045361 0.27636571137 0.279013974 0.28143613776 
0.28363575994 0.28559765466 0.28728886412 0.28866161286 0.289657634 0.29021314255 0.29026372164 0.28974848185 0.28861303747 
0.28681109524 0.28430474099 0.28106378965 0.27706476546 0.27229012478 0.26672817533 0.26037381145 0.25322979721 0.24530805673 
0.23663039765 0.22722829788 0.21714170778 0.20641710465 0.19510518046 0.18325852873 0.17092957388 0.15816883757 0.14502353954 
0.13153652813 0.1177456193 0.10368352772 0.089378607579 0.074856511355 0.060142613062 0.045264712382 0.030255290132 0.015152577951 
4.5422623663e-16 
_area 1 100 double
0 0.0006213194915 0.0024910116094 0.0056209048559 0.010010988151 0.015618531011 0.022323147656 0.029904091507 0.038042766715 
0.046352524592 0.054426741812 0.061889554762 0.06843384524 0.073838392986 0.077966980179 0.080760000385 0.082228799749 0.082455955563 
0.081597459323 0.079880678442 0.077595491611 0.075083024413 0.07273687823 0.071026395349 0.070345789757 0.070608795202 0.07146013422 
0.072570116833 0.073672229293 0.074575909943 0.075204560577 0.075642018231 0.07614954307 0.077101566214 0.078768564436 0.081176533502 
0.084192947211 0.087648923328 0.091393429737 0.09530471555 0.099296250708 0.10332602819 0.10740236283 0.11158392681 0.11597708701 
0.12072408617 0.12596976167 0.13181191079 0.13825038651 0.1451603389 0.15231612811 0.1594522946 0.16632000979 0.17271688215 
0.17849939907 0.18359128078 0.18798663923 0.19174390043 0.19497258066 0.1978161006 0.20042755407 0.20292761777 0.20535253634 
0.20764265968 0.20968385061 0.21134969646 0.21252134617 0.21309514348 0.21298615162 0.21212963522 0.2104806982 0.20801138686 
0.20470491995 0.20054899324 0.19553202662 0.18964524052 0.18289017588 0.1752883792 0.16688912712 0.15777200292 0.14804301866 
0.13782533724 0.12724795564 0.11643677678 0.10551113947 0.094585527446 0.083773255093 0.07318862284 0.062946074478 0.053157234874 
0.043927786228 0.035355753186 0.027531590025 0.02053935857 0.014457832784 0.0093606044987 0.0053148014489 0.0023784870671 0.00059714677302 
7.1878441236e-17 
