# vtk DataFile Version 5.1
vtk output
ASCII
DATASET POLYDATA
POINTS 100 float
-0.110345 -0.0242894 0.658781 -0.110618 -0.0242317 0.659027 -0.111455 -0.0238643 0.659689 
-0.112724 -0.023184 0.660647 -0.11422 -0.0221862 0.661713 -0.115693 -0.0208644 0.662649 
-0.116872 -0.0192097 0.66319 -0.117497 -0.0172111 0.663071 -0.117348 -0.0148559 0.662045 
-0.116264 -0.012131 0.659906 -0.114156 -0.00902385 0.656504 -0.111011 -0.00552543 0.651757 
-0.10688 -0.00163227 0.645647 -0.101866 0.00265061 0.638218 -0.0961027 0.00730718 0.629566 
-0.0897248 0.0123082 0.619824 -0.0828493 0.0176097 0.609142 -0.0755545 0.0231527 0.597669 
-0.0678691 0.0288638 0.585543 -0.0597697 0.0346566 0.572871 -0.051187 0.040435 0.559724 
-0.0420217 0.0460965 0.546135 -0.0321645 0.0515364 0.532099 -0.0215207 0.0566526 0.517581 
-0.0100328 0.0613495 0.502523 0.00230007 0.0655423 0.486855 0.01541 0.0691599 0.470509 
0.029157 0.0721473 0.453424 0.0433352 0.0744672 0.435556 0.0576872 0.0761003 0.416882 
0.071926 0.0770449 0.397398 0.0857596 0.0773159 0.377125 0.0989176 0.0769436 0.356096 
0.111173 0.0759715 0.334358 0.12236 0.0744548 0.311964 0.132381 0.0724581 0.288969 
0.141206 0.0700537 0.265429 0.148866 0.0673195 0.241395 0.155432 0.0643365 0.216922 
0.160996 0.0611872 0.192064 0.16565 0.0579525 0.16688 0.169462 0.0547091 0.141439 
0.172464 0.0515269 0.11582 0.174641 0.0484661 0.0901147 0.175933 0.0455745 0.0644265 
0.176248 0.0428855 0.0388661 0.175469 0.0404169 0.0135481 0.173486 0.0381708 -0.0114166 
0.17021 0.0361341 -0.0359275 0.165601 0.0342816 -0.0599021 0.159677 0.0325785 -0.0832808 
0.152529 0.0309856 -0.106032 0.144316 0.029464 -0.128151 0.135256 0.0279802 -0.14966 
0.125611 0.0265107 -0.170603 0.115659 0.025046 -0.191037 0.105669 0.0235926 -0.211026 
0.0958772 0.0221736 -0.230631 0.0864601 0.0208274 -0.249899 0.0775232 0.0196043 -0.268861 
0.0690932 0.0185618 -0.287524 0.0611211 0.0177587 -0.305873 0.053495 0.0172488 -0.323871 
0.0460589 0.0170752 -0.341466 0.0386377 0.0172645 -0.358596 0.0310619 0.0178241 -0.375199 
0.0231916 0.0187402 -0.391222 0.0149343 0.0199787 -0.406628 0.00625635 0.0214878 -0.421399 
-0.00281446 0.0232028 -0.435545 -0.012195 0.0250518 -0.449095 -0.0217598 0.0269621 -0.4621 
-0.0313588 0.0288668 -0.474625 -0.0408382 0.0307097 -0.48674 -0.0500593 0.0324494 -0.498508 
-0.0589145 0.0340614 -0.509982 -0.0673372 0.0355371 -0.521193 -0.0753044 0.0368825 -0.532147 
-0.0828325 0.0381134 -0.542819 -0.0899662 0.039251 -0.553157 -0.0967639 0.0403164 -0.563084 
-0.103281 0.0413256 -0.572506 -0.109553 0.0422856 -0.581319 -0.115585 0.0431924 -0.589418 
-0.121345 0.0440306 -0.59671 -0.126763 0.044775 -0.603119 -0.131743 0.0453945 -0.608597 
-0.136168 0.0458568 -0.613125 -0.139928 0.0461337 -0.61672 -0.142931 0.0462067 -0.619432 
-0.145123 0.0460713 -0.621339 -0.1465 0.0457397 -0.622547 -0.14712 0.0452421 -0.62318 
-0.147091 0.0446249 -0.623371 -0.146575 0.0439474 -0.623259 -0.145762 0.0432764 -0.622973 
-0.144853 0.0426795 -0.622633 -0.144037 0.0422186 -0.622337 -0.143469 0.0419433 -0.62216 
-0.143248 0.0418854 -0.622147 
LINES 2 100
OFFSETS vtktypeint64
0 100 
CONNECTIVITY vtktypeint64
0 1 2 3 4 5 6 7 8 
9 10 11 12 13 14 15 16 17 
18 19 20 21 22 23 24 25 26 
27 28 29 30 31 32 33 34 35 
36 37 38 39 40 41 42 43 44 
45 46 47 48 49 50 51 52 53 
54 55 56 57 58 59 60 61 62 
63 64 65 66 67 68 69 70 71 
72 73 74 75 76 77 78 79 80 
81 82 83 84 85 86 87 88 89 
90 91 92 93 94 95 96 97 98 
99 
POINT_DATA 100
FIELD FieldData 3
_theta 1 100 double
0 0.031733259127 0.063466518254 0.095199777382 0.12693303651 0.15866629564 0.19039955476 0.22213281389 0.25386607302 
0.28559933214 0.31733259127 0.3490658504 0.38079910953 0.41253236865 0.44426562778 0.47599888691 0.50773214603 0.53946540516 
0.57119866429 0.60293192342 0.63466518254 0.66639844167 0.6981317008 0.72986495992 0.76159821905 0.79333147818 0.82506473731 
0.85679799643 0.88853125556 0.92026451469 0.95199777382 0.98373103294 1.0154642921 1.0471975512 1.0789308103 1.1106640695 
1.1423973286 1.1741305877 1.2058638468 1.237597106 1.2693303651 1.3010636242 1.3327968833 1.3645301425 1.3962634016 
1.4279966607 1.4597299198 1.491463179 1.5231964381 1.5549296972 1.5866629564 1.6183962155 1.6501294746 1.6818627337 
1.7135959929 1.745329252 1.7770625111 1.8087957702 1.8405290294 1.8722622885 1.9039955476 1.9357288068 1.9674620659 
1.999195325 2.0309285841 2.0626618433 2.0943951024 2.1261283615 2.1578616206 2.1895948798 2.2213281389 2.253061398 
2.2847946572 2.3165279163 2.3482611754 2.3799944345 2.4117276937 2.4434609528 2.4751942119 2.506927471 2.5386607302 
2.5703939893 2.6021272484 2.6338605076 2.6655937667 2.6973270258 2.7290602849 2.7607935441 2.7925268032 2.8242600623 
2.8559933214 2.8877265806 2.9194598397 2.9511930988 2.982926358 3.0146596171 3.0463928762 3.0781261353 3.1098593945 
3.1415926536 
_radius 1 100 double
6.9811790515e-16 0.016825821474 0.033532823706 0.049994659095 0.066081891349 0.081661341174 0.096596538172 0.11074981634 0.12398643159 
0.13618070575 0.14722370412 0.15703148861 0.16555270122 0.17277419527 0.17872362832 0.18346830315 0.1871100403 0.18977647997 
0.19160992859 0.19275555209 0.19335103331 0.19351936052 0.19336520827 0.19297415491 0.1924137279 0.19173594206 0.19098127524 
0.19018323947 0.18937196206 0.18857539046 0.18781751629 0.1871140765 0.18646760417 0.18586488398 0.18527958026 0.18468071306 
0.18404490598 0.18336838096 0.18267446971 0.18201393806 0.1814576749 0.18108335365 0.18095944904 0.18113170373 0.18161813142 
0.18241694619 0.18352614267 0.18496636526 0.18679539824 0.18910559791 0.19200282263 0.19557320067 0.19984926756 0.20478737371 
0.21026344962 0.21608677258 0.222025488 0.22783590507 0.23328937505 0.23819347123 0.24240641194 0.24584478201 0.24848501306 
0.25035925383 0.25154642885 0.2521594573 0.25232974989 0.2521902626 0.25185864484 0.25142234717 0.25092771795 0.25037480687 
0.24971867227 0.24887668678 0.24774014894 0.24618789631 0.24409971702 0.24136794794 0.23790634831 0.23365585882 0.2285871308 
0.22269983581 0.21601887654 0.20858779173 0.20045989049 0.19168796114 0.18231377769 0.17235904495 0.16181974127 0.15066572556 
0.13884660923 0.12630325333 0.11298253263 0.098852189631 0.083913005068 0.068206606444 0.051818312699 0.034875151342 0.017539616789 
5.6181867598e-16 
_area 1 100 double
0 0.000660089933 0.00262423042 0.0058449349783 0.010244556007 0.015713522661 0.022103625673 0.029218102035 0.03680387883 
0.044552496133 0.05211458427 0.059129111978 0.065263957594 0.070259899822 0.073967321236 0.076365155239 0.077555843946 0.077738214526 
0.077170157956 0.076140954539 0.074973824169 0.074022621219 0.073476595817 0.073259543606 0.07324788722 0.073375185795 0.073640236807 
0.074098323252 0.074842759704 0.075965794832 0.077492162702 0.079331454802 0.081308322788 0.083236822552 0.084976309352 0.086454704822 
0.087676793921 0.088726921939 0.089752113877 0.0909144617 0.092328009062 0.094017002103 0.095918213796 0.097912862522 0.099861199932 
0.10163629002 0.10316672299 0.10448627529 0.10577905404 0.10740374288 0.10983350184 0.11341076644 0.11820455703 0.12412007582 
0.13093167169 0.13829981842 0.14581839335 0.1530705389 0.15968021971 0.16535125128 0.16988816216 0.17319830879 0.17528021231 
0.17620620831 0.17610664593 0.17515815053 0.17357113457 0.17156615416 0.16933768712 0.16702609284 0.16471044064 0.16240740067 
0.16006905358 0.15758863909 0.15482106231 0.15161443115 0.14783969801 0.14340521075 0.13825611218 0.13237002661 0.12575694749 
0.11846237932 0.11056931174 0.10219568995 0.093486418952 0.084600968867 0.075698530649 0.066922642687 0.058387637854 0.050171079491 
0.042317585633 0.034855885458 0.027823090209 0.021285650196 0.01534940351 0.010156795678 0.0058730406562 0.0026646482128 0.00067471400073 
8.3266708762e-17 
