# vtk DataFile Version 5.1
vtk output
ASCII
DATASET POLYDATA
POINTS 100 float
-0.117512 -0.0445898 0.642528 -0.11767 -0.0446385 0.642506 -0.118143 -0.0445863 0.642388 
-0.118857 -0.0443755 0.642113 -0.119697 -0.043919 0.641584 -0.120514 -0.0431109 0.640684 
-0.121145 -0.0418393 0.639285 -0.121419 -0.0400002 0.637261 -0.121179 -0.0375096 0.634506 
-0.120286 -0.0343145 0.630937 -0.118637 -0.0303995 0.626506 -0.116163 -0.0257893 0.621201 
-0.112838 -0.0205472 0.615045 -0.108671 -0.014769 0.608088 -0.103705 -0.00857408 0.600399 
-0.0980087 -0.0020949 0.592052 -0.0916646 0.0045348 0.583121 -0.0847635 0.0111902 0.573661 
-0.077394 0.0177637 0.563706 -0.0696363 0.0241705 0.55326 -0.0615573 0.03035 0.5423 
-0.0532091 0.0362647 0.530773 -0.0446294 0.0418956 0.518611 -0.0358433 0.0472358 0.505734 
-0.0268675 0.0522833 0.492062 -0.0177144 0.0570338 0.477528 -0.0083965 0.0614757 0.462083 
0.00107008 0.0655858 0.445708 0.0106631 0.0693292 0.42841 0.0203527 0.0726609 0.410231 
0.0301017 0.0755302 0.391233 0.0398658 0.0778863 0.3715 0.0495951 0.0796852 0.351126 
0.0592353 0.0808958 0.330202 0.0687288 0.0815047 0.308812 0.0780143 0.0815196 0.287024 
0.0870272 0.0809693 0.264886 0.0956976 0.0799018 0.242422 0.103949 0.0783804 0.21964 
0.111698 0.0764773 0.196534 0.118852 0.0742675 0.173093 0.125309 0.0718219 0.149308 
0.130966 0.0692022 0.125188 0.135712 0.0664569 0.10076 0.139443 0.0636204 0.0760789 
0.142065 0.0607131 0.0512306 0.143502 0.057745 0.0263282 0.143702 0.0547195 0.0015087 
0.142647 0.0516389 -0.0230751 0.140354 0.0485092 -0.0472649 0.13688 0.0453443 -0.0709086 
0.132322 0.0421684 -0.0938711 0.126806 0.0390169 -0.116044 0.12049 0.0359346 -0.137355 
0.113546 0.0329728 -0.157768 0.106153 0.0301847 -0.177289 0.0984853 0.0276201 -0.195958 
0.0906994 0.0253211 -0.213847 0.0829262 0.0233177 -0.231051 0.0752639 0.021626 -0.247673 
0.0677745 0.0202478 -0.263822 0.0604848 0.0191722 -0.279596 0.0533894 0.0183786 -0.295081 
0.0464577 0.0178417 -0.310339 0.0396426 0.0175357 -0.325412 0.0328902 0.0174389 -0.340316 
0.0261496 0.0175364 -0.35505 0.0193816 0.0178223 -0.369596 0.0125647 0.0182978 -0.383925 
0.00569959 0.0189697 -0.398008 -0.00119044 0.0198454 -0.411814 -0.00806109 0.0209278 -0.425321 
-0.0148514 0.0222103 -0.438513 -0.0214898 0.023672 -0.451387 -0.0279009 0.0252754 -0.463944 
-0.034012 0.0269657 -0.476191 -0.0397598 0.0286733 -0.488139 -0.0450942 0.0303183 -0.499792 
-0.0499813 0.0318181 -0.511148 -0.054404 0.0330951 -0.522195 -0.058361 0.0340856 -0.532906 
-0.0618638 0.0347475 -0.543243 -0.0649338 0.0350657 -0.553153 -0.0675983 0.0350554 -0.562577 
-0.0698869 0.0347609 -0.571449 -0.071829 0.0342522 -0.579703 -0.0734522 0.0336171 -0.587282 
-0.0747815 0.0329522 -0.594138 -0.0758401 0.0323517 -0.600239 -0.0766506 0.0318969 -0.605574 
-0.0772364 0.0316471 -0.610151 -0.0776237 0.0316328 -0.613998 -0.0778417 0.0318529 -0.617163 
-0.0779235 0.0322753 -0.619706 -0.0779049 0.0328422 -0.621698 -0.0778228 0.0334775 -0.623212 
-0.0777129 0.0340974 -0.624321 -0.0776069 0.0346216 -0.625085 -0.0775295 0.0349842 -0.625552 
-0.0774963 0.0351418 -0.625751 
LINES 2 100
OFFSETS vtktypeint64
0 100 
CONNECTIVITY vtktypeint64
0 1 2 3 4 5 6 7 8 
9 10 11 12 13 14 15 16 17 
18 19 20 21 22 23 24 25 26 
27 28 29 30 31 32 33 34 35 
36 37 38 39 40 41 42 43 44 
45 46 47 48 49 50 51 52 53 
54 55 56 57 58 59 60 61 62 
63 64 65 66 67 68 69 70 71 
72 73 74 75 76 77 78 79 80 
81 82 83 84 85 86 87 88 89 
90 91 92 93 94 95 96 97 98 
99 
POINT_DATA 100
FIELD FieldData 3
_theta 1 100 double
0 0.031733259127 0.063466518254 0.095199777382 0.12693303651 0.15866629564 0.19039955476 0.22213281389 0.25386607302 
0.28559933214 0.31733259127 0.3490658504 0.38079910953 0.41253236865 0.44426562778 0.47599888691 0.50773214603 0.53946540516 
0.57119866429 0.60293192342 0.63466518254 0.66639844167 0.6981317008 0.72986495992 0.76159821905 0.79333147818 0.82506473731 
0.85679799643 0.88853125556 0.92026451469 0.95199777382 0.98373103294 1.0154642921 1.0471975512 1.0789308103 1.1106640695 
1.1423973286 1.1741305877 1.2058638468 1.237597106 1.2693303651 1.3010636242 1.3327968833 1.3645301425 1.3962634016 
1.4279966607 1.4597299198 1.491463179 1.5231964381 1.5549296972 1.5866629564 1.6183962155 1.6501294746 1.6818627337 
1.7135959929 1.745329252 1.7770625111 1.8087957702 1.8405290294 1.8722622885 1.9039955476 1.9357288068 1.9674620659 
1.999195325 2.0309285841 2.0626618433 2.0943951024 2.1261283615 2.1578616206 2.1895948798 2.2213281389 2.253061398 
2.2847946572 2.3165279163 2.3482611754 2.3799944345 2.4117276937 2.4434609528 2.4751942119 2.506927471 2.5386607302 
2.5703939893 2.6021272484 2.6338605076 2.6655937667 2.6973270258 2.7290602849 2.7607935441 2.7925268032 2.8242600623 
2.8559933214 2.8877265806 2.9194598397 2.9511930988 2.982926358 3.0146596171 3.0463928762 3.0781261353 3.1098593945 
3.1415926536 
_radius 1 100 double
8.0649531336e-16 0.015862763202 0.031579452213 0.047003011953 0.061994154764 0.076424210569 0.090177047729 0.1031503612 0.11525680402 
0.12642538729 0.1366032994 0.14575789814 0.15387827244 0.16097561828 0.16708182875 0.17224615322 0.176530394 0.18000363652 
0.1827377052 0.18480429076 0.18627410132 0.18721769496 0.18770711179 0.18781719959 0.18762565545 0.18721120948 0.18664990878 
0.18600996489 0.18534601447 0.18469390089 0.18406721413 0.18345674971 0.18283364561 0.18215624946 0.181379999 0.1804690388 
0.17940798883 0.17821203802 0.17693318432 0.17566013726 0.17450982488 0.17361058922 0.17308118845 0.17301359246 0.17346736509 
0.17447718749 0.17606681788 0.17825952483 0.1810785448 0.18453718666 0.18862288537 0.19328169232 0.1984094235 0.20385317463 
0.20942315658 0.21491163145 0.2201144356 0.2248510321 0.22898031334 0.2324107136 0.23510427647 0.23707508869 0.23838295791 
0.2391234258 0.23941525206 0.23938646535 0.23916001787 0.23884003743 0.23849966352 0.2381715007 0.23784181129 0.23744959521 
0.23689144215 0.23603227775 0.23472091074 0.23280805777 0.23016385092 0.22669201098 0.22233874572 0.21709560529 0.21099661838 
0.20411081196 0.19653159942 0.18836454692 0.17971482751 0.17067541246 0.16131685099 0.15167940112 0.14176829219 0.13155296615 
0.12097110847 0.10993791926 0.098360260098 0.086154178596 0.07326325111 0.059674616413 0.045429731624 0.030627721669 0.015420470164 
2.7165942888e-16 
_area 1 100 double
0 0.00059459897304 0.002355196424 0.0052112578196 0.0090440184207 0.013689550454 0.018948208148 0.024599392461 0.030418055429 
0.036189593291 0.041722139967 0.046857282559 0.051479761099 0.055524184829 0.058974768539 0.061854843484 0.064206801481 0.066068774477 
0.067458940651 0.068379076258 0.068858334586 0.069167796826 0.069321137292 0.069273441592 0.069044784183 0.068740769549 0.068456617522 
0.068267615001 0.068229554883 0.068369789855 0.068688427313 0.069170469358 0.069794430077 0.070528136289 0.071252702483 0.071900356378 
0.072228609345 0.072318618206 0.072287714303 0.07234262241 0.072737780615 0.073588112591 0.074903989672 0.076639825221 0.078722640122 
0.08118363769 0.083881313889 0.086725949269 0.089956158312 0.093837842331 0.098427772701 0.10372708318 0.1096744221 0.11611297882 
0.12288288247 0.12989796593 0.13691609977 0.14368708806 0.1497493634 0.15495895598 0.15921485956 0.16225378373 0.16404351677 
0.16469194991 0.16430100982 0.16295765754 0.16082316025 0.1580860739 0.15495044949 0.15160445433 0.14819365425 0.1448047494 
0.14145340548 0.13807665497 0.13454879195 0.13072100082 0.12646545531 0.12170377837 0.11641252606 0.11061362994 0.10436057521 
0.097726822231 0.090797926135 0.083665837284 0.07642351119 0.069159258266 0.061951707691 0.05486670711 0.047956950482 0.041264478259 
0.034825899605 0.028679915876 0.022876128396 0.017483301076 0.012594514241 0.0083264872945 0.0048114210551 0.0021819702919 0.00055234864851 
2.9048821122e-17 
