# vtk DataFile Version 5.1
vtk output
ASCII
DATASET POLYDATA
POINTS 100 float
-0.279607 -0.11651 0.728897 -0.278881 -0.116689 0.729081 -0.276758 -0.117048 0.729618 
-0.273299 -0.117487 0.730372 -0.268606 -0.117847 0.731133 -0.262806 -0.11793 0.731644 
-0.256045 -0.117518 0.731637 -0.248473 -0.116392 0.73086 -0.240235 -0.114358 0.729113 
-0.231456 -0.111259 0.726265 -0.222235 -0.106996 0.722274 -0.212634 -0.10153 0.717179 
-0.202677 -0.0948899 0.711095 -0.192353 -0.0871647 0.704191 -0.181616 -0.0784947 0.696659 
-0.170398 -0.0690577 0.688683 -0.158618 -0.0590521 0.680409 -0.146196 -0.0486812 0.671916 
-0.133066 -0.0381365 0.663203 -0.119191 -0.0275866 0.654178 -0.104571 -0.0171689 0.644668 
-0.0892535 -0.00698672 0.634431 -0.0733329 0.0028884 0.623188 -0.056951 0.0124108 0.610648 
-0.0402887 0.0215509 0.596545 -0.0235556 0.0302848 0.580667 -0.00697556 0.0385832 0.562881 
0.00922912 0.0464029 0.543149 0.0248537 0.0536807 0.521526 0.039725 0.0603322 0.498162 
0.0537124 0.0662548 0.473277 0.0667336 0.0713346 0.447139 0.078756 0.0754573 0.420039 
0.0897917 0.0785208 0.392258 0.0998884 0.0804485 0.364044 0.109116 0.0812012 0.335592 
0.11755 0.080787 0.307039 0.125258 0.0792658 0.278459 0.132285 0.07675 0.249872 
0.138639 0.0733996 0.221262 0.144291 0.0694123 0.192597 0.149173 0.0650098 0.163848 
0.153182 0.0604217 0.135011 0.156193 0.055868 0.106119 0.158073 0.0515431 0.0772534 
0.1587 0.047602 0.0485379 0.157981 0.0441506 0.0201349 0.155865 0.0412412 -0.00777209 
0.152355 0.0388728 -0.0349967 0.147514 0.0369973 -0.0613705 0.141467 0.0355292 -0.0867625 
0.134389 0.0343594 -0.111093 0.126496 0.0333697 -0.134345 0.118025 0.032448 -0.156559 
0.109217 0.0315015 -0.177834 0.100295 0.0304664 -0.198309 0.091445 0.029314 -0.218148 
0.0828064 0.0280525 -0.237516 0.0744608 0.0267238 -0.256565 0.0664314 0.0253961 -0.275414 
0.0586881 0.0241546 -0.294138 0.051158 0.0230898 -0.312765 0.0437407 0.0222858 -0.331275 
0.0363249 0.0218096 -0.349614 0.0288065 0.0217038 -0.367702 0.021103 0.0219815 -0.385453 
0.0131654 0.0226253 -0.402786 0.00498411 0.0235904 -0.419642 -0.00341078 0.0248106 -0.435994 
-0.0119543 0.0262066 -0.451848 -0.0205564 0.0276955 -0.467242 -0.0291146 0.0292008 -0.482239 
-0.0375277 0.0306601 -0.496915 -0.0457085 0.0320321 -0.511343 -0.0535942 0.033299 -0.525584 
-0.0611516 0.034467 -0.539669 -0.0683788 0.0355629 -0.553594 -0.0753005 0.0366284 -0.56732 
-0.0819597 0.037712 -0.58077 -0.0884066 0.0388611 -0.593843 -0.0946851 0.0401135 -0.60642 
-0.100822 0.0414907 -0.618383 -0.106816 0.0429936 -0.629628 -0.112634 0.0446003 -0.640075 
-0.11821 0.0462684 -0.649682 -0.12345 0.0479381 -0.658441 -0.128245 0.04954 -0.666382 
-0.132479 0.0510021 -0.673567 -0.13605 0.0522591 -0.680074 -0.138882 0.0532602 -0.685987 
-0.140938 0.0539752 -0.691385 -0.142231 0.0543988 -0.696328 -0.142823 0.0545514 -0.700846 
-0.142824 0.0544771 -0.704941 -0.142384 0.0542391 -0.708584 -0.141675 0.0539121 -0.711722 
-0.140877 0.0535739 -0.714289 -0.140154 0.0532964 -0.716213 -0.13964 0.0531373 -0.717434 
-0.139422 0.0531332 -0.717908 
LINES 2 100
OFFSETS vtktypeint64
0 100 
CONNECTIVITY vtktypeint64
0 1 2 3 4 5 6 7 8 
9 10 11 12 13 14 15 16 17 
18 19 20 21 22 23 24 25 26 
27 28 29 30 31 32 33 34 35 
36 37 38 39 40 41 42 43 44 
45 46 47 48 49 50 51 52 53 
54 55 56 57 58 59 60 61 62 
63 64 65 66 67 68 69 70 71 
72 73 74 75 76 77 78 79 80 
81 82 83 84 85 86 87 88 89 
90 91 92 93 94 95 96 97 98 
99 
POINT_DATA 100
FIELD FieldData 3
_theta 1 100 double
0 0.031733259127 0.063466518254 0.095199777382 0.12693303651 0.15866629564 0.19039955476 0.22213281389 0.25386607302 
0.28559933214 0.31733259127 0.3490658504 0.38079910953 0.41253236865 0.44426562778 0.47599888691 0.50773214603 0.53946540516 
0.57119866429 0.60293192342 0.63466518254 0.66639844167 0.6981317008 0.72986495992 0.76159821905 0.79333147818 0.82506473731 
0.85679799643 0.88853125556 0.92026451469 0.95199777382 0.98373103294 1.0154642921 1.0471975512 1.0789308103 1.1106640695 
1.1423973286 1.1741305877 1.2058638468 1.237597106 1.2693303651 1.3010636242 1.3327968833 1.3645301425 1.3962634016 
1.4279966607 1.4597299198 1.491463179 1.5231964381 1.5549296972 1.5866629564 1.6183962155 1.6501294746 1.6818627337 
1.7135959929 1.745329252 1.7770625111 1.8087957702 1.8405290294 1.8722622885 1.9039955476 1.9357288068 1.9674620659 
1.999195325 2.0309285841 2.0626618433 2.0943951024 2.1261283615 2.1578616206 2.1895948798 2.2213281389 2.253061398 
2.2847946572 2.3165279163 2.3482611754 2.3799944345 2.4117276937 2.4434609528 2.4751942119 2.506927471 2.5386607302 
2.5703939893 2.6021272484 2.6338605076 2.6655937667 2.6973270258 2.7290602849 2.7607935441 2.7925268032 2.8242600623 
2.8559933214 2.8877265806 2.9194598397 2.9511930988 2.982926358 3.0146596171 3.0463928762 3.0781261353 3.1098593945 
3.1415926536 
_radius 1 100 double
1.0590852655e-15 0.018995560985 0.037720829853 0.055916684921 0.073352952948 0.089839606614 0.10523399851 0.1194428655 0.13241832539 
0.14414805346 0.15464113289 0.16391232354 0.17196817263 0.17879812979 0.18437264373 0.18864854235 0.19158050309 0.19313621416 
0.19331241319 0.19215069698 0.18974899992 0.18626692202 0.18192852096 0.17701714275 0.1718608352 0.16681000311 0.16220815248 
0.15835952735 0.15549915504 0.15376987377 0.1532090239 0.15374661703 0.15521633353 0.15737858676 0.15995236671 0.16265324989 
0.16523463403 0.16752250771 0.16943284574 0.17097014834 0.17221333891 0.17329628313 0.17438789463 0.17567391559 0.17734026658 
0.17955682457 0.18246064569 0.1861388846 0.19061359662 0.19583215904 0.20166679215 0.20792436837 0.21436500911 0.22072656778 
0.22675184646 0.23221518176 0.23694470888 0.24083697828 0.2438620062 0.24605876537 0.24752282886 0.24838891651 0.24881133194 
0.24894485669 0.24892791112 0.24886906619 0.2488375115 0.24885782598 0.24890925139 0.24892972735 0.24882527622 0.24848494306 
0.24779895003 0.24667467015 0.24504548014 0.24287141986 0.24013390881 0.23682760534 0.23295180999 0.22850294409 0.22346906705 
0.21782702732 0.21154248163 0.20457262423 0.19687111098 0.18839439248 0.17910848374 0.16899510596 0.15805620235 0.1463160897 
0.13382089542 0.12063535949 0.10683754235 0.092512464886 0.077746053172 0.062620713697 0.047213318974 0.031595516934 0.015835491198 
2.4828230072e-16 
_area 1 100 double
0 0.00063156595325 0.0025268188723 0.0056780787348 0.010043577219 0.015516545999 0.021908589648 0.028957891494 0.036356636432 
0.043785222467 0.050944019363 0.057579341837 0.06350248325 0.068597166926 0.072813614656 0.076163760799 0.078720637316 0.08058805812 
0.081830751104 0.082409749953 0.082239151175 0.081207812176 0.079300684129 0.076645588131 0.073474458924 0.069952867718 0.066253546509 
0.062489098672 0.058975064206 0.055965177535 0.053812269968 0.052912969878 0.053400415531 0.054967181551 0.057247336841 0.059879213653 
0.06286262496 0.065874880116 0.069019956746 0.072130236788 0.075050636665 0.077801718781 0.080448994577 0.083060820057 0.085694978712 
0.088409096201 0.091284328293 0.094440991269 0.098026071597 0.10217162119 0.10695031311 0.11234990248 0.11826516555 0.12450196592 
0.13079375748 0.13683205686 0.14230802559 0.14695727858 0.150597835 0.15315215749 0.15464784373 0.15519807564 0.15497168876 
0.15416752511 0.15300324434 0.15172672488 0.15061137805 0.14982735806 0.14925075916 0.14879197319 0.14834756252 0.14776988787 
0.14689073365 0.14555745023 0.14365298242 0.14109455452 0.13783213481 0.13385248444 0.12917784501 0.12385641052 0.11795147797 
0.11153487566 0.10468345233 0.097474911541 0.089982884804 0.082274859572 0.074415003409 0.066469038184 0.058506942695 0.050603320387 
0.042839223183 0.035307963793 0.028122521708 0.021419241256 0.015354388527 0.010094109086 0.0058007449614 0.0026185462454 0.00066085157211 
3.0384739466e-17 
