# vtk DataFile Version 5.1
vtk output
ASCII
DATASET POLYDATA
POINTS 100 float
-0.144569 -0.00611872 0.714487 -0.144269 -0.00613803 0.714779 -0.143425 -0.00604292 0.71568 
-0.142064 -0.00583443 0.717049 -0.14023 -0.00551184 0.718668 -0.137974 -0.00507033 0.720262 
-0.13535 -0.00449859 0.72152 -0.132404 -0.00377685 0.72213 -0.129169 -0.00287592 0.7218 
-0.125658 -0.00175759 0.720286 -0.12186 -0.000376707 0.717408 -0.117738 0.00131528 0.713062 
-0.113231 0.00336538 0.707221 -0.108257 0.00581345 0.699931 -0.102719 0.00868651 0.691296 
-0.0965176 0.0119937 0.681461 -0.0895547 0.0157225 0.670589 -0.0817494 0.0198374 0.658843 
-0.0730451 0.02428 0.646364 -0.0634178 0.0289721 0.633256 -0.0528819 0.0338206 0.619576 
-0.0414918 0.0387236 0.605334 -0.0293416 0.0435773 0.590492 -0.0165595 0.0482832 0.574976 
-0.00330121 0.0527537 0.558689 0.0102608 0.0569164 0.541524 0.0239479 0.060716 0.523383 
0.0375871 0.0641143 0.50419 0.0510212 0.067088 0.483901 0.0641173 0.0696247 0.46251 
0.0767719 0.071718 0.440052 0.088913 0.0733632 0.416601 0.100498 0.074553 0.392261 
0.111509 0.0752751 0.367157 0.121944 0.0755118 0.341424 0.131808 0.0752419 0.315197 
0.1411 0.0744441 0.288603 0.149808 0.0731023 0.261751 0.157895 0.0712115 0.234734 
0.1653 0.0687831 0.207627 0.171932 0.0658497 0.180489 0.177677 0.0624671 0.153372 
0.182403 0.0587144 0.126322 0.185968 0.0546908 0.099394 0.188238 0.0505103 0.0726469 
0.189097 0.0462936 0.0461532 0.188461 0.0421596 0.0199962 0.186288 0.0382164 -0.00573235 
0.182589 0.0345529 -0.030938 0.177431 0.0312332 -0.0555311 0.170935 0.0282931 -0.0794344 
0.16327 0.0257402 -0.102591 0.154647 0.0235571 -0.124972 0.145298 0.0217074 -0.146578 
0.135469 0.0201439 -0.167442 0.125397 0.0188174 -0.187624 0.115299 0.0176854 -0.207209 
0.105356 0.0167193 -0.226296 0.0957048 0.0159089 -0.244991 0.0864325 0.0152646 -0.263391 
0.0775776 0.0148149 -0.281582 0.0691333 0.0146025 -0.299625 0.0610562 0.014677 -0.317555 
0.0532776 0.0150861 -0.335377 0.0457166 0.0158677 -0.353069 0.038293 0.0170422 -0.370586 
0.0309392 0.0186072 -0.387868 0.0236101 0.0205357 -0.404848 0.0162889 0.0227771 -0.421462 
0.00899009 0.0252618 -0.437657 0.00175775 0.0279081 -0.453399 -0.0053388 0.0306316 -0.468672 
-0.0122124 0.0333542 -0.483486 -0.018767 0.0360128 -0.497869 -0.0249072 0.0385661 -0.511865 
-0.0305476 0.0409978 -0.525525 -0.0356199 0.043317 -0.538901 -0.0400788 0.0455548 -0.552032 
-0.0439043 0.0477572 -0.564941 -0.0471024 0.0499768 -0.577629 -0.0497024 0.0522627 -0.590065 
-0.051753 0.054651 -0.602194 -0.0533165 0.0571572 -0.613935 -0.0544631 0.0597712 -0.625184 
-0.0552648 0.0624562 -0.63583 -0.0557905 0.0651513 -0.645757 -0.0561024 0.0677771 -0.654858 
-0.0562535 0.0702458 -0.663043 -0.0562869 0.0724707 -0.670249 -0.0562362 0.0743776 -0.676447 
-0.0561272 0.0759145 -0.681641 -0.0559792 0.0770579 -0.685872 -0.0558075 0.077817 -0.689214 
-0.0556252 0.0782321 -0.691766 -0.0554438 0.0783704 -0.693646 -0.0552746 0.0783175 -0.694978 
-0.055128 0.0781664 -0.695884 -0.0550132 0.0780059 -0.69647 -0.0549375 0.0779088 -0.696821 
-0.0549055 0.0779232 -0.696988 
LINES 2 100
OFFSETS vtktypeint64
0 100 
CONNECTIVITY vtktypeint64
0 1 2 3 4 5 6 7 8 
9 10 11 12 13 14 15 16 17 
18 19 20 21 22 23 24 25 26 
27 28 29 30 31 32 33 34 35 
36 37 38 39 40 41 42 43 44 
45 46 47 48 49 50 51 52 53 
54 55 56 57 58 59 60 61 62 
63 64 65 66 67 68 69 70 71 
72 73 74 75 76 77 78 79 80 
81 82 83 84 85 86 87 88 89 
90 91 92 93 94 95 96 97 98 
99 
POINT_DATA 100
FIELD FieldData 3
_theta 1 100 double
0 0.031733259127 0.063466518254 0.095199777382 0.12693303651 0.15866629564 0.19039955476 0.22213281389 0.25386607302 
0.28559933214 0.31733259127 0.3490658504 0.38079910953 0.41253236865 0.44426562778 0.47599888691 0.50773214603 0.53946540516 
0.57119866429 0.60293192342 0.63466518254 0.66639844167 0.6981317008 0.72986495992 0.76159821905 0.79333147818 0.82506473731 
0.85679799643 0.88853125556 0.92026451469 0.95199777382 0.98373103294 1.0154642921 1.0471975512 1.0789308103 1.1106640695 
1.1423973286 1.1741305877 1.2058638468 1.237597106 1.2693303651 1.3010636242 1.3327968833 1.3645301425 1.3962634016 
1.4279966607 1.4597299198 1.491463179 1.5231964381 1.5549296972 1.5866629564 1.6183962155 1.6501294746 1.6818627337 
1.7135959929 1.745329252 1.7770625111 1.8087957702 1.8405290294 1.8722622885 1.9039955476 1.9357288068 1.9674620659 
1.999195325 2.0309285841 2.0626618433 2.0943951024 2.1261283615 2.1578616206 2.1895948798 2.2213281389 2.253061398 
2.2847946572 2.3165279163 2.3482611754 2.3799944345 2.4117276937 2.4434609528 2.4751942119 2.506927471 2.5386607302 
2.5703939893 2.6021272484 2.6338605076 2.6655937667 2.6973270258 2.7290602849 2.7607935441 2.7925268032 2.8242600623 
2.8559933214 2.8877265806 2.9194598397 2.9511930988 2.982926358 3.0146596171 3.0463928762 3.0781261353 3.1098593945 
3.1415926536 
_radius 1 100 double
5.7220176633e-16 0.017928348785 0.035689758488 0.05312259241 0.070081266327 0.086439744857 0.10209105198 0.1169434906 0.13091511327 
0.14392834768 0.15590650087 0.16677324164 0.17645529843 0.18488776505 0.19202081206 0.19782640085 0.2023037892 0.20548306963 
0.20742648863 0.20822768383 0.20800916862 0.20691841069 0.20512274895 0.20280322171 0.20014720104 0.19733965523 0.19455302364 
0.19193614667 0.1896034049 0.18762601349 0.18602789523 0.18478810671 0.18385012754 0.18313619112 0.18256374014 0.18206177319 
0.18158623574 0.18113365508 0.18075006809 0.18052984427 0.18059997484 0.181091705 0.1821096933 0.18371227344 0.18591087179 
0.18868508581 0.19200126427 0.19582357777 0.20011439443 0.20482749591 0.20989972794 0.21524532626 0.22075492705 0.22629957267 
0.23173890177 0.23693192202 0.24174839359 0.24607899264 0.24984291801 0.25299223224 0.25551278981 0.25742196246 0.25876355595 
0.25960046275 0.2600057733 0.26005323577 0.25980804799 0.25931895896 0.25861255691 0.25769043603 0.25652965093 0.25508645525 
0.25330278323 0.25111437799 0.24845910962 0.24528405006 0.24155028472 0.23723504341 0.23233127388 0.22684512069 0.22079192474 
0.21419140694 0.20706270476 0.19941989824 0.19126856633 0.18260375417 0.17340955832 0.16366041459 0.15332410137 0.14236635375 
0.13075672241 0.11847494985 0.1055168687 0.091898847642 0.077660141742 0.062862993709 0.047590772328 0.031944691204 0.016039696749 
1.8588232695e-16 
_area 1 100 double
0 0.00066754515874 0.0026718956923 0.0060121455501 0.010668961785 0.016584825718 0.02364688307 0.031677349992 0.040433685519 
0.049618140293 0.05889462895 0.067910323133 0.076319546978 0.083807881402 0.090114427482 0.095049954752 0.098508649218 0.10047204555 
0.10100556341 0.10024973237 0.098408249877 0.095733426212 0.092506959292 0.089011041781 0.085491222404 0.082138662054 0.079109208607 
0.076542233201 0.074555661422 0.0732252125 0.072554709828 0.072459515624 0.072802174198 0.073461177482 0.074365099112 0.075480601701 
0.076800219788 0.078349970844 0.080190710932 0.082425462888 0.085248196835 0.088852704303 0.092960998174 0.097094839199 0.10093052445 
0.10428355225 0.10712669285 0.10960761079 0.11202665236 0.11476158997 0.11813938258 0.12232115855 0.12728525648 0.13287787531 
0.13886816943 0.14498993055 0.1509703587 0.15655091527 0.16150404686 0.16564739123 0.16885810956 0.17108905696 0.17238360696 
0.17288522093 0.17280881887 0.1722538628 0.17120228075 0.1697793188 0.16804868342 0.16601516583 0.16370348667 0.16113456605 
0.15831616685 0.15523397267 0.15184648899 0.14809010596 0.14389319727 0.13919196841 0.13394280792 0.1281304046 0.12177217364 
0.11491830049 0.10764609151 0.10004881853 0.092221956975 0.084251465729 0.076207856771 0.068146781652 0.060114314064 0.052154945897 
0.044321582018 0.036686897891 0.029353413637 0.022458022923 0.016168124109 0.010669836706 0.0061511560629 0.0027833631608 0.00070348523298 
9.5409791179e-18 
