# vtk DataFile Version 5.1
vtk output
ASCII
DATASET POLYDATA
POINTS 100 float
-0.2093 -0.0150626 0.610193 -0.209574 -0.0152679 0.611099 -0.210336 -0.0156958 0.613653 
-0.211375 -0.0162712 0.61757 -0.212364 -0.0168786 0.622408 -0.212908 -0.0173727 0.627615 
-0.212589 -0.0175936 0.632586 -0.211018 -0.0173827 0.636721 -0.207883 -0.0165981 0.639488 
-0.202984 -0.0151297 0.64047 -0.196253 -0.012909 0.639402 -0.187753 -0.00991699 0.636186 
-0.177667 -0.00618511 0.630893 -0.166266 -0.00179284 0.62374 -0.153867 0.00314016 0.615056 
-0.140787 0.00846519 0.605235 -0.127303 0.0140181 0.594687 -0.113616 0.019634 0.583783 
-0.0998324 0.0251606 0.572818 -0.0859542 0.0304705 0.561975 -0.0718952 0.0354688 0.551311 
-0.0575048 0.0400977 0.540757 -0.0426057 0.0443358 0.53013 -0.0270349 0.0481933 0.519166 
-0.0106842 0.0517038 0.507551 0.00646716 0.0549131 0.494965 0.0243322 0.0578672 0.48112 
0.0427116 0.0606009 0.465796 0.0613054 0.0631274 0.448857 0.0797402 0.0654327 0.430273 
0.0976078 0.0674721 0.41011 0.114509 0.069173 0.388523 0.130098 0.0704409 0.365731 
0.14412 0.0711697 0.341989 0.156437 0.0712544 0.317562 0.167037 0.070605 0.29269 
0.176028 0.0691598 0.267574 0.183614 0.0668971 0.242357 0.190058 0.0638425 0.21712 
0.195638 0.0600725 0.191889 0.200602 0.0557125 0.166644 0.205124 0.0509296 0.141341 
0.209278 0.0459217 0.115933 0.213018 0.0409019 0.0903876 0.216183 0.0360823 0.0647064 
0.218517 0.0316567 0.0389358 0.219701 0.0277857 0.0131703 0.219401 0.024584 -0.0124513 
0.217312 0.0221136 -0.0377572 0.213212 0.0203807 -0.0625587 0.206991 0.019339 -0.0866696 
0.19868 0.0188975 -0.109926 0.188455 0.0189326 -0.132202 0.176626 0.0193023 -0.153426 
0.163607 0.019862 -0.173582 0.149876 0.020479 -0.192713 0.135922 0.0210451 -0.210912 
0.1222 0.0214851 -0.22831 0.109081 0.0217615 -0.245061 0.0968221 0.0218737 -0.261321 
0.0855437 0.0218537 -0.277237 0.0752312 0.0217576 -0.292927 0.0657486 0.0216552 -0.308473 
0.0568677 0.0216183 -0.323918 0.0483076 0.0217097 -0.339264 0.0397778 0.0219745 -0.354482 
0.0310198 0.0224341 -0.369518 0.0218417 0.0230841 -0.384308 0.0121406 0.0238955 -0.398786 
0.00191158 0.0248203 -0.412899 -0.00875801 0.0257985 -0.42661 -0.0197072 0.0267675 -0.439907 
-0.0307296 0.0276709 -0.452798 -0.0416057 0.028467 -0.465312 -0.0521358 0.0291339 -0.477488 
-0.0621666 0.0296724 -0.489369 -0.0716093 0.0301048 -0.500994 -0.0804458 0.0304713 -0.512387 
-0.0887223 0.0308225 -0.523553 -0.0965331 0.0312113 -0.534475 -0.103996 0.0316838 -0.545113 
-0.111223 0.032271 -0.555409 -0.118295 0.0329826 -0.565289 -0.125241 0.0338037 -0.574674 
-0.132023 0.0346953 -0.583485 -0.138539 0.0355979 -0.591651 -0.144631 0.0364385 -0.599117 
-0.15011 0.0371397 -0.605846 -0.15478 0.0376302 -0.611824 -0.158476 0.0378545 -0.617056 
-0.161085 0.0377818 -0.621568 -0.162576 0.0374114 -0.625401 -0.16301 0.0367745 -0.628605 
-0.162538 0.0359327 -0.631238 -0.161393 0.0349722 -0.633358 -0.15986 0.0339944 -0.635018 
-0.158245 0.0331053 -0.636268 -0.15684 0.0324034 -0.637145 -0.155882 0.0319683 -0.637677 
-0.155529 0.0318519 -0.637881 
LINES 2 100
OFFSETS vtktypeint64
0 100 
CONNECTIVITY vtktypeint64
0 1 2 3 4 5 6 7 8 
9 10 11 12 13 14 15 16 17 
18 19 20 21 22 23 24 25 26 
27 28 29 30 31 32 33 34 35 
36 37 38 39 40 41 42 43 44 
45 46 47 48 49 50 51 52 53 
54 55 56 57 58 59 60 61 62 
63 64 65 66 67 68 69 70 71 
72 73 74 75 76 77 78 79 80 
81 82 83 84 85 86 87 88 89 
90 91 92 93 94 95 96 97 98 
99 
POINT_DATA 100
FIELD FieldData 3
_theta 1 100 double
0 0.031733259127 0.063466518254 0.095199777382 0.12693303651 0.15866629564 0.19039955476 0.22213281389 0.25386607302 
0.28559933214 0.31733259127 0.3490658504 0.38079910953 0.41253236865 0.44426562778 0.47599888691 0.50773214603 0.53946540516 
0.57119866429 0.60293192342 0.63466518254 0.66639844167 0.6981317008 0.72986495992 0.76159821905 0.79333147818 0.82506473731 
0.85679799643 0.88853125556 0.92026451469 0.95199777382 0.98373103294 1.0154642921 1.0471975512 1.0789308103 1.1106640695 
1.1423973286 1.1741305877 1.2058638468 1.237597106 1.2693303651 1.3010636242 1.3327968833 1.3645301425 1.3962634016 
1.4279966607 1.4597299198 1.491463179 1.5231964381 1.5549296972 1.5866629564 1.6183962155 1.6501294746 1.6818627337 
1.7135959929 1.745329252 1.7770625111 1.8087957702 1.8405290294 1.8722622885 1.9039955476 1.9357288068 1.9674620659 
1.999195325 2.0309285841 2.0626618433 2.0943951024 2.1261283615 2.1578616206 2.1895948798 2.2213281389 2.253061398 
2.2847946572 2.3165279163 2.3482611754 2.3799944345 2.4117276937 2.4434609528 2.4751942119 2.506927471 2.5386607302 
2.5703939893 2.6021272484 2.6338605076 2.6655937667 2.6973270258 2.7290602849 2.7607935441 2.7925268032 2.8242600623 
2.8559933214 2.8877265806 2.9194598397 2.9511930988 2.982926358 3.0146596171 3.0463928762 3.0781261353 3.1098593945 
3.1415926536 
_radius 1 100 double
1.053662814e-15 0.02129169932 0.042055947268 0.061798264202 0.080096264163 0.096629851034 0.11120286472 0.12375317351 0.13434967007 
0.14317662105 0.15050756721 0.15667173118 0.16201543313 0.16686022141 0.17146029345 0.17596544557 0.18039941576 0.18466166886 
0.18855292349 0.19181737264 0.19419220914 0.19545606291 0.19546941009 0.19420158752 0.19174137399 0.18829083112 0.18414431986 
0.17965619932 0.1752020796 0.17113954516 0.16777394663 0.16533249776 0.16394717757 0.16364613325 0.16435419433 0.16590430479 
0.1680621904 0.17056418553 0.17316233139 0.17566532886 0.17796272973 0.1800261745 0.18189243073 0.18364015395 0.1853708789 
0.18719719089 0.1892351106 0.19159744919 0.19438697289 0.19768893739 0.20156204374 0.20602716506 0.21105529254 0.21655878998 
0.2223907147 0.2283545868 0.23422340068 0.23976437952 0.24476531253 0.24905818778 0.2525359782 0.25515951962 0.25695364433 
0.25799435502 0.25839076057 0.2582660384 0.25774077317 0.25692023759 0.25588558796 0.25468836824 0.25334803766 0.25185267446 
0.25016294826 0.24821887153 0.2459481633 0.24327474795 0.24012611723 0.23643881139 0.23216181461 0.22725801151 0.22170399596 
0.21548855014 0.20861011942 0.20107364316 0.19288716387 0.18405870848 0.17459398326 0.16449539609 0.15376275378 0.14239565294 
0.13039715687 0.11777798303 0.10456027803 0.090780188274 0.076488773562 0.061751221903 0.046644691435 0.031255358646 0.015675336177 
1.0073586194e-15 
_area 1 100 double
0 0.00079139554377 0.0031507162098 0.0070206341644 0.012270352668 0.018664884273 0.025855693545 0.033405365794 0.040843962073 
0.047742263135 0.053783138352 0.058814578561 0.062870066461 0.06614297279 0.068916172058 0.07149402398 0.074221040419 0.077389341341 
0.080916321405 0.084545471846 0.088047317242 0.090981301066 0.09304275147 0.094012880272 0.093814793726 0.092584748534 0.090361179891 
0.087292601384 0.083619087122 0.079651018717 0.075728663186 0.072186817262 0.069354002902 0.067545208698 0.066975706045 0.067668768393 
0.069481714622 0.072203764329 0.075591579754 0.079347374833 0.083092351513 0.086525145452 0.089595912631 0.092484529214 0.09549617786 
0.098946560024 0.10300378755 0.10747860946 0.1120036863 0.11640286089 0.12070944264 0.12505426884 0.12959252991 0.13446142149 
0.13973846036 0.14538715493 0.151210096 0.15684844787 0.16184452096 0.1657438695 0.16819594489 0.16902098459 0.16822826983 
0.16599058886 0.16259506471 0.15839070419 0.15374294202 0.14899501433 0.14443165439 0.1402494822 0.13655389528 0.13320914337 
0.12995555755 0.12665960001 0.12327978058 0.11983309721 0.11635589975 0.11285063983 0.10925660673 0.10545853395 0.10131907867 
0.09671225967 0.091548229153 0.085787934732 0.079447867939 0.072596191649 0.065342961708 0.057828036246 0.050209761361 0.042655786117 
0.035335422156 0.02841208423 0.022035108913 0.016331899534 0.011402348356 0.0073170163464 0.0041192508891 0.0018304609335 0.00045741031599 
3.9565163756e-17 
