# vtk DataFile Version 5.1
vtk output
ASCII
DATASET POLYDATA
POINTS 100 float
-0.0117591 -0.0155032 0.643897 -0.0119674 -0.0152622 0.644143 -0.0125407 -0.0143602 0.644789 
-0.0134456 -0.0128377 0.645702 -0.0146282 -0.010757 0.646671 -0.0160171 -0.00819526 0.647437 
-0.0175269 -0.00523567 0.647713 -0.0190623 -0.00195903 0.64722 -0.020522 0.00156428 0.645707 
-0.0218028 0.00528015 0.642979 -0.0228027 0.00915382 0.638909 -0.023424 0.01317 0.633447 
-0.0235751 0.01733 0.626616 -0.0231726 0.0216461 0.618503 -0.0221424 0.0261346 0.609243 
-0.0204214 0.0308078 0.598995 -0.0179579 0.0356667 0.587924 -0.0147137 0.0406951 0.57618 
-0.0106649 0.0458562 0.56388 -0.00580343 0.0510915 0.551101 -0.000137641 0.0563226 0.537875 
0.00630705 0.0614565 0.524194 0.0134888 0.0663912 0.510017 0.0213506 0.0710237 0.495283 
0.0298233 0.075257 0.479927 0.0388285 0.0790069 0.463889 0.0482836 0.0822068 0.447131 
0.0581055 0.0848102 0.429635 0.0682154 0.0867912 0.411412 0.0785422 0.0881427 0.392493 
0.0890237 0.0888732 0.372922 0.0996068 0.0890025 0.352749 0.110245 0.0885574 0.332018 
0.120894 0.0875681 0.310756 0.131505 0.0860659 0.28897 0.142019 0.0840823 0.266649 
0.152356 0.0816495 0.243759 0.162412 0.0788026 0.22026 0.172054 0.0755823 0.196116 
0.181119 0.0720371 0.171305 0.189417 0.0682256 0.145836 0.196736 0.0642168 0.11976 
0.202858 0.0600888 0.0931731 0.207568 0.0559257 0.0662207 0.210675 0.0518126 0.0390904 
0.212024 0.0478297 0.0120009 0.211517 0.0440462 -0.0148134 0.209121 0.0405144 -0.0411219 
0.204877 0.0372658 -0.066716 0.198904 0.0343092 -0.091427 0.19139 0.0316317 -0.115139 
0.182585 0.029203 -0.137795 0.172782 0.0269808 -0.1594 0.162298 0.0249198 -0.180013 
0.151447 0.0229799 -0.199732 0.140522 0.0211346 -0.218685 0.129767 0.0193771 -0.237005 
0.119369 0.0177245 -0.254815 0.10944 0.0162169 -0.272213 0.100017 0.0149146 -0.289264 
0.0910645 0.0138902 -0.305991 0.082487 0.0132196 -0.32238 0.074143 0.0129699 -0.338389 
0.0658665 0.0131894 -0.353957 0.0574878 0.0138974 -0.369021 0.0488549 0.0150783 -0.38353 
0.0398509 0.0166798 -0.397454 0.030407 0.0186149 -0.410799 0.0205094 0.0207696 -0.423604 
0.0101996 0.0230135 -0.435938 -0.000431346 0.0252136 -0.447895 -0.0112541 0.0272488 -0.459579 
-0.0221162 0.0290232 -0.471089 -0.0328585 0.0304767 -0.482504 -0.043332 0.0315915 -0.49387 
-0.0534126 0.0323929 -0.50519 -0.0630116 0.0329447 -0.516424 -0.0720822 0.0333397 -0.527489 
-0.0806201 0.0336858 -0.538268 -0.0886601 0.0340903 -0.548626 -0.0962673 0.0346436 -0.558426 
-0.103526 0.0354053 -0.567546 -0.110529 0.0363937 -0.575892 -0.117361 0.0375814 -0.583415 
-0.124091 0.0388968 -0.590112 -0.130765 0.0402316 -0.596029 -0.137398 0.0414539 -0.601253 
-0.143974 0.0424252 -0.605899 -0.150449 0.0430192 -0.610094 -0.156757 0.0431393 -0.613962 
-0.162813 0.0427338 -0.617605 -0.168526 0.0418056 -0.621088 -0.173801 0.0404155 -0.624436 
-0.17855 0.0386781 -0.627627 -0.182694 0.0367516 -0.630599 -0.186167 0.0348215 -0.633259 
-0.188916 0.0330803 -0.635497 -0.190904 0.0317061 -0.637204 -0.192103 0.0308428 -0.638287 
-0.1925 0.0305836 -0.638685 
LINES 2 100
OFFSETS vtktypeint64
0 100 
CONNECTIVITY vtktypeint64
0 1 2 3 4 5 6 7 8 
9 10 11 12 13 14 15 16 17 
18 19 20 21 22 23 24 25 26 
27 28 29 30 31 32 33 34 35 
36 37 38 39 40 41 42 43 44 
45 46 47 48 49 50 51 52 53 
54 55 56 57 58 59 60 61 62 
63 64 65 66 67 68 69 70 71 
72 73 74 75 76 77 78 79 80 
81 82 83 84 85 86 87 88 89 
90 91 92 93 94 95 96 97 98 
99 
POINT_DATA 100
FIELD FieldData 3
_theta 1 100 double
0 0.031733259127 0.063466518254 0.095199777382 0.12693303651 0.15866629564 0.19039955476 0.22213281389 0.25386607302 
0.28559933214 0.31733259127 0.3490658504 0.38079910953 0.41253236865 0.44426562778 0.47599888691 0.50773214603 0.53946540516 
0.57119866429 0.60293192342 0.63466518254 0.66639844167 0.6981317008 0.72986495992 0.76159821905 0.79333147818 0.82506473731 
0.85679799643 0.88853125556 0.92026451469 0.95199777382 0.98373103294 1.0154642921 1.0471975512 1.0789308103 1.1106640695 
1.1423973286 1.1741305877 1.2058638468 1.237597106 1.2693303651 1.3010636242 1.3327968833 1.3645301425 1.3962634016 
1.4279966607 1.4597299198 1.491463179 1.5231964381 1.5549296972 1.5866629564 1.6183962155 1.6501294746 1.6818627337 
1.7135959929 1.745329252 1.7770625111 1.8087957702 1.8405290294 1.8722622885 1.9039955476 1.9357288068 1.9674620659 
1.999195325 2.0309285841 2.0626618433 2.0943951024 2.1261283615 2.1578616206 2.1895948798 2.2213281389 2.253061398 
2.2847946572 2.3165279163 2.3482611754 2.3799944345 2.4117276937 2.4434609528 2.4751942119 2.506927471 2.5386607302 
2.5703939893 2.6021272484 2.6338605076 2.6655937667 2.6973270258 2.7290602849 2.7607935441 2.7925268032 2.8242600623 
2.8559933214 2.8877265806 2.9194598397 2.9511930988 2.982926358 3.0146596171 3.0463928762 3.0781261353 3.1098593945 
3.1415926536 
_radius 1 100 double
4.4424164962e-16 0.015293999692 0.030496863707 0.045508026403 0.06022445646 0.074539656641 0.08834287601 0.10151910861 0.11395059038 
0.1255203599 0.13611801235 0.14564719754 0.15403391674 0.16123442885 0.16724161519 0.17208888041 0.17585095594 0.17864123917 
0.18060554985 0.18191248153 0.18274094498 0.18326604638 0.1836449859 0.18400495098 0.18443475684 0.18498118049 0.18564979113 
0.18640913188 0.18719685993 0.18792699973 0.18849838445 0.18880496133 0.18874840696 0.18825247082 0.18727708178 0.18582904428 
0.18396629882 0.18179579993 0.17946807336 0.17716806265 0.17509713934 0.17344568044 0.17236570896 0.17195619506 0.17226456597 
0.17329763764 0.17503436298 0.17743681726 0.18045769975 0.18404306174 0.18813031953 0.19264349757 0.19748881356 0.2025536479 
0.207710561 0.21282575906 0.21776949534 0.22242550126 0.22669761907 0.23051331 0.23382468632 0.23660789933 0.23886140372 
0.24060326731 0.24186758711 0.24270018959 0.24315393888 0.24328400553 0.24314338589 0.2427789136 0.24222798517 0.24151611823 
0.24065518536 0.23964184494 0.23845561288 0.23705638893 0.23538195562 0.23334662819 0.23084244516 0.22774388462 0.22391623168 
0.2192267807 0.213557371 0.2068164673 0.19894905889 0.18994296231 0.17983061678 0.16868615861 0.15661840054 0.143761111 
0.1302623141 0.11627397463 0.10194264601 0.087401088751 0.072760914582 0.058106764775 0.043492884783 0.028942911588 0.014453272708 
5.748238257e-16 
_area 1 100 double
0 0.0006254892511 0.0024776208119 0.005486256864 0.0095431873253 0.014512077313 0.020236391938 0.026540738737 0.033224646647 
0.040055153928 0.046768533846 0.053086419379 0.058743025246 0.063515938931 0.067253695992 0.069896058903 0.071486000728 0.072177412146 
0.072255099991 0.072169553692 0.072328059665 0.072795790339 0.073458863527 0.074257803776 0.075097079914 0.075889346071 0.076559492027 
0.077036410415 0.077247553008 0.077130899618 0.07688648229 0.076896903248 0.076610772682 0.075907791911 0.074836108583 0.073570226431 
0.072381528609 0.071592066389 0.071504444473 0.072268500552 0.073750950654 0.075657308831 0.077747387368 0.079910989421 0.082131139694 
0.084414060486 0.086775609787 0.089324619303 0.092288558773 0.095721628364 0.099570277793 0.10385752854 0.10862088084 0.11384468976 
0.11942783247 0.12518887543 0.13090075021 0.1363343546 0.14129094981 0.14561365277 0.14918255863 0.15190835517 0.15373617838 
0.15465971605 0.15474255332 0.15417446152 0.15343637976 0.15279599596 0.15193951554 0.15082292711 0.14942209871 0.14773152407 
0.14574416662 0.14344304436 0.14080455937 0.13780496229 0.13442318959 0.13063345756 0.12639207477 0.12163327233 0.11628024976 
0.11026429435 0.10354420853 0.096124301752 0.088068500195 0.07950548085 0.070620877151 0.061636817455 0.052783730995 0.044272552997 
0.036275783324 0.028922048513 0.022301961969 0.016478345905 0.011495096234 0.0073831544967 0.0041644375647 0.0018545159161 0.00046418529589 
3.8270693581e-17 
