# vtk DataFile Version 5.1
vtk output
ASCII
DATASET POLYDATA
POINTS 100 float
-0.118956 -0.0383716 0.677414 -0.118903 -0.0383368 0.677689 -0.118754 -0.038036 0.678497 
-0.118498 -0.0374799 0.679688 -0.118119 -0.0366843 0.681037 -0.117595 -0.0356661 0.682258 
-0.116899 -0.0344396 0.683037 -0.116001 -0.0330124 0.683064 -0.114871 -0.0313815 0.682062 
-0.113475 -0.0295319 0.679811 -0.111773 -0.027435 0.67617 -0.109727 -0.0250509 0.671086 
-0.107287 -0.0223309 0.664588 -0.1044 -0.0192224 0.656788 -0.101007 -0.0156752 0.647854 
-0.09704 -0.0116476 0.63799 -0.0924292 -0.00711275 0.627413 -0.0871044 -0.00206468 0.616325 
-0.0810011 0.00347811 0.604889 -0.0740672 0.00947024 0.593219 -0.0662702 0.0158395 0.581364 
-0.0576039 0.0224892 0.569312 -0.0480949 0.029302 0.556996 -0.0378059 0.0361462 0.544306 
-0.0268371 0.0428824 0.531109 -0.015324 0.0493709 0.517266 -0.0034315 0.0554786 0.502655 
0.00865476 0.0610857 0.487183 0.0207398 0.0660906 0.470802 0.0326324 0.0704135 0.453508 
0.044158 0.0739982 0.435344 0.0551714 0.0768127 0.416392 0.0655656 0.0788483 0.396758 
0.0752784 0.0801169 0.37656 0.0842933 0.080649 0.355912 0.0926367 0.0804903 0.334905 
0.100369 0.0796982 0.313604 0.107575 0.0783398 0.292034 0.114347 0.0764884 0.270185 
0.120769 0.0742219 0.248016 0.126904 0.0716207 0.225463 0.132781 0.068766 0.202453 
0.138384 0.065738 0.17892 0.14365 0.0626142 0.154818 0.148472 0.0594672 0.130138 
0.152703 0.0563631 0.104907 0.156169 0.0533587 0.0792027 0.158687 0.0505 0.053143 
0.160081 0.0478201 0.0268838 0.160199 0.0453384 0.000606154 0.15893 0.04306 -0.0254973 
0.156216 0.0409768 -0.0512379 0.152061 0.0390687 -0.0764454 0.14653 0.0373066 -0.100981 
0.13975 0.035656 -0.124743 0.131895 0.0340806 -0.147678 0.123174 0.0325471 -0.169772 
0.113817 0.0310286 -0.19105 0.104051 0.0295083 -0.21157 0.0940887 0.0279818 -0.231404 
0.0841072 0.0264577 -0.250636 0.0742406 0.0249583 -0.269344 0.0645713 0.023517 -0.287592 
0.0551297 0.0221761 -0.305424 0.0458977 0.0209828 -0.322864 0.0368174 0.0199855 -0.339911 
0.0278032 0.019229 -0.356547 0.0187561 0.018751 -0.372742 0.00957837 0.0185788 -0.388464 
0.000187619 0.018727 -0.403681 -0.00947196 0.0191963 -0.418377 -0.0194214 0.0199739 -0.432547 
-0.0296428 0.0210342 -0.446206 -0.0400798 0.022341 -0.459387 -0.0506412 0.0238497 -0.472135 
-0.0612087 0.0255106 -0.484502 -0.0716463 0.027271 -0.49654 -0.0818115 0.0290783 -0.508289 
-0.0915664 0.0308817 -0.519775 -0.100787 0.0326339 -0.530999 -0.109373 0.0342925 -0.541933 
-0.117251 0.0358204 -0.552522 -0.124378 0.037186 -0.562687 -0.130745 0.0383639 -0.572326 
-0.136368 0.0393351 -0.581328 -0.141288 0.0400868 -0.589581 -0.145563 0.0406133 -0.596982 
-0.149262 0.0409161 -0.603449 -0.152457 0.0410048 -0.60893 -0.155219 0.0408966 -0.613411 
-0.157609 0.0406171 -0.616916 -0.159681 0.040199 -0.619511 -0.161473 0.0396817 -0.621297 
-0.163012 0.0391092 -0.622407 -0.164311 0.0385283 -0.62299 -0.165375 0.0379854 -0.623202 
-0.166201 0.0375239 -0.623197 -0.166785 0.0371816 -0.623106 -0.167118 0.0369874 -0.623033 
-0.167197 0.0369599 -0.623043 
LINES 2 100
OFFSETS vtktypeint64
0 100 
CONNECTIVITY vtktypeint64
0 1 2 3 4 5 6 7 8 
9 10 11 12 13 14 15 16 17 
18 19 20 21 22 23 24 25 26 
27 28 29 30 31 32 33 34 35 
36 37 38 39 40 41 42 43 44 
45 46 47 48 49 50 51 52 53 
54 55 56 57 58 59 60 61 62 
63 64 65 66 67 68 69 70 71 
72 73 74 75 76 77 78 79 80 
81 82 83 84 85 86 87 88 89 
90 91 92 93 94 95 96 97 98 
99 
POINT_DATA 100
FIELD FieldData 3
_theta 1 100 double
0 0.031733259127 0.063466518254 0.095199777382 0.12693303651 0.15866629564 0.19039955476 0.22213281389 0.25386607302 
0.28559933214 0.31733259127 0.3490658504 0.38079910953 0.41253236865 0.44426562778 0.47599888691 0.50773214603 0.53946540516 
0.57119866429 0.60293192342 0.63466518254 0.66639844167 0.6981317008 0.72986495992 0.76159821905 0.79333147818 0.82506473731 
0.85679799643 0.88853125556 0.92026451469 0.95199777382 0.98373103294 1.0154642921 1.0471975512 1.0789308103 1.1106640695 
1.1423973286 1.1741305877 1.2058638468 1.237597106 1.2693303651 1.3010636242 1.3327968833 1.3645301425 1.3962634016 
1.4279966607 1.4597299198 1.491463179 1.5231964381 1.5549296972 1.5866629564 1.6183962155 1.6501294746 1.6818627337 
1.7135959929 1.745329252 1.7770625111 1.8087957702 1.8405290294 1.8722622885 1.9039955476 1.9357288068 1.9674620659 
1.999195325 2.0309285841 2.0626618433 2.0943951024 2.1261283615 2.1578616206 2.1895948798 2.2213281389 2.253061398 
2.2847946572 2.3165279163 2.3482611754 2.3799944345 2.4117276937 2.4434609528 2.4751942119 2.506927471 2.5386607302 
2.5703939893 2.6021272484 2.6338605076 2.6655937667 2.6973270258 2.7290602849 2.7607935441 2.7925268032 2.8242600623 
2.8559933214 2.8877265806 2.9194598397 2.9511930988 2.982926358 3.0146596171 3.0463928762 3.0781261353 3.1098593945 
3.1415926536 
_radius 1 100 double
7.2497329732e-16 0.015827292176 0.031554261639 0.047078452216 0.062303610261 0.077140257491 0.09150421281 0.10531388174 0.11848760107 
0.13094230983 0.14259436905 0.15336268083 0.16317361111 0.17196678234 0.17970065411 0.1863569381 0.19194321835 0.19649355144 
0.20006717727 0.20274568252 0.20462898171 0.20583034775 0.20647055135 0.20667113489 0.20654710428 0.2061998506 0.20571161307 
0.20514281442 0.20453292275 0.20390440581 0.20326841204 0.2026304327 0.20199441279 0.2013644151 0.2007437682 0.20013241044 
0.19952370978 0.19890235802 0.19824496028 0.19752434381 0.19671709835 0.19581211607 0.19481736848 0.19376319736 0.19270182284 
0.19170363272 0.19085137868 0.19023400276 0.18994180177 0.19006330808 0.19068238696 0.19187333742 0.19369291974 0.19617026557 
0.19929714116 0.2030213122 0.20724499055 0.211829183 0.21660372194 0.22138190041 0.22597781591 0.23022383791 0.23398542502 
0.23717105554 0.23973610567 0.24168068499 0.24304237812 0.24388541333 0.24428798753 0.24432939412 0.24407833823 0.24358350843 
0.24286718299 0.24192236002 0.24071352845 0.2391807078 0.23724589421 0.23482076932 0.23181459439 0.22814154728 0.22372710949 
0.21851323834 0.21246195654 0.20555688124 0.19780233446 0.18922004473 0.17984389492 0.16971353404 0.15886791706 0.14733998716 
0.13515370765 0.12232434578 0.10886225311 0.094779545958 0.0800983558 0.064858908519 0.049125664313 0.032990082229 0.016569197073 
1.1901049743e-15 
_area 1 100 double
0 0.00065775855757 0.0026091988057 0.0057905365941 0.010100661123 0.015407401088 0.021554210686 0.028366413575 0.035656205663 
0.043225566623 0.050867073288 0.058364525848 0.065496656163 0.072046380386 0.077815492416 0.082642004478 0.086415782598 0.089088246441 
0.090673747711 0.091243213279 0.090913434305 0.089836689181 0.088195122035 0.086204832517 0.084148363084 0.082497651339 0.08166730353 
0.081571753009 0.082162034161 0.083317978512 0.084874467657 0.086638419189 0.088413763689 0.090054699322 0.091475658161 0.092636663585 
0.093526717451 0.09411720241 0.094375711899 0.094280699765 0.093854165205 0.093214158443 0.092660090586 0.09274108892 0.093790891769 
0.095512990337 0.097369786468 0.099061597843 0.10049658024 0.10166417509 0.10263563083 0.10356308222 0.10466695934 0.10619987438 
0.10838475494 0.1113548468 0.11512766026 0.11960666571 0.12459181089 0.12980095109 0.13490985142 0.13960504907 0.14363329328 
0.14683227446 0.14913557594 0.15055495193 0.15115164762 0.15101016402 0.15022096755 0.14887090218 0.14703814819 0.14478998456 
0.1421820749 0.13925842429 0.13605243422 0.13258827553 0.12887911021 0.12492092012 0.12068677676 0.11612722997 0.11117770349 
0.10577105662 0.099853290118 0.093399576949 0.086426888347 0.078999931385 0.071228578175 0.063256549899 0.055243280465 0.047344280811 
0.039697585366 0.032420991155 0.025618266527 0.019388755603 0.01383549491 0.0090686588869 0.00520256587 0.002346512425 0.00059198647034 
3.1705481282e-17 
