# vtk DataFile Version 5.1
vtk output
ASCII
DATASET POLYDATA
POINTS 100 float
-0.387038 -0.048631 0.803202 -0.385743 -0.0484655 0.802456 -0.381872 -0.0478654 0.800303 
-0.375514 -0.0468616 0.796813 -0.366817 -0.0455027 0.792098 -0.355974 -0.0438491 0.786309 
-0.343218 -0.0419665 0.779627 -0.328806 -0.0399168 0.772258 -0.313008 -0.0377512 0.764417 
-0.29609 -0.0355028 0.756318 -0.278305 -0.0331819 0.748161 -0.259875 -0.0307727 0.74011 
-0.240984 -0.0282341 0.732283 -0.221771 -0.0255021 0.724737 -0.20233 -0.0224957 0.71746 
-0.182711 -0.0191249 0.710362 -0.162927 -0.0152998 0.703279 -0.142967 -0.0109414 0.695979 
-0.122808 -0.00599066 0.688177 -0.102435 -0.000417978 0.679549 -0.0818506 0.00577067 0.669764 
-0.0610947 0.0125297 0.6585 -0.0402491 0.0197729 0.645477 -0.0194434 0.0273766 0.630474 
0.00114709 0.0351842 0.613353 0.0213098 0.0430153 0.594067 0.0408089 0.0506752 0.572662 
0.0594027 0.0579661 0.54928 0.0768645 0.0646985 0.524136 0.0930016 0.0707014 0.497508 
0.107673 0.0758314 0.469707 0.120802 0.0799788 0.441056 0.13238 0.0830719 0.411862 
0.142466 0.085078 0.382395 0.151178 0.0860021 0.352871 0.158674 0.0858831 0.323444 
0.165131 0.0847886 0.2942 0.170724 0.0828089 0.265168 0.1756 0.0800502 0.236327 
0.17986 0.0766289 0.207626 0.183545 0.072666 0.179 0.18663 0.0682829 0.15039 
0.189029 0.0635994 0.12176 0.190605 0.0587311 0.0931092 0.191188 0.0537892 0.0644774 
0.190605 0.0488806 0.0359473 0.188698 0.0441072 0.0076383 0.185359 0.039566 -0.0203036 
0.180542 0.0353476 -0.04772 0.174282 0.0315347 -0.0744553 0.166697 0.0281992 -0.100372 
0.157987 0.0253987 -0.125362 0.148411 0.023173 -0.149359 0.138276 0.021541 -0.172341 
0.127899 0.0204977 -0.194327 0.117587 0.0200132 -0.215379 0.107603 0.0200331 -0.235586 
0.0981471 0.0204811 -0.255057 0.0893421 0.021263 -0.273908 0.0812266 0.0222731 -0.292251 
0.0737604 0.0234021 -0.310183 0.0668377 0.0245444 -0.327782 0.0603077 0.0256067 -0.345102 
0.0539988 0.0265151 -0.36217 0.0477446 0.0272201 -0.378995 0.0414067 0.0277001 -0.395567 
0.0348928 0.0279617 -0.411865 0.0281666 0.0280374 -0.427862 0.0212492 0.0279807 -0.443528 
0.0142129 0.0278597 -0.458835 0.00716617 0.0277484 -0.473756 0.000234979 0.0277183 -0.488267 
-0.00645828 0.0278307 -0.502343 -0.0128148 0.0281295 -0.515956 -0.018775 0.0286367 -0.529075 
-0.0243281 0.0293507 -0.541664 -0.0295128 0.0302465 -0.553683 -0.0344113 0.0312792 -0.565088 
-0.0391351 0.0323895 -0.57584 -0.0438057 0.0335102 -0.585904 -0.048534 0.0345742 -0.595262 
-0.0533992 0.0355214 -0.603909 -0.0584326 0.0363048 -0.611867 -0.0636076 0.036895 -0.619175 
-0.0688379 0.0372826 -0.625897 -0.0739844 0.0374774 -0.632112 -0.0788708 0.0375061 -0.637908 
-0.0833044 0.0374082 -0.643375 -0.0871013 0.0372301 -0.648589 -0.0901114 0.0370193 -0.653612 
-0.0922398 0.0368187 -0.658474 -0.0934622 0.0366615 -0.663172 -0.0938318 0.0365688 -0.667672 
-0.0934759 0.0365479 -0.671902 -0.0925835 0.0365933 -0.67577 -0.0913842 0.0366892 -0.679162 
-0.0901215 0.0368136 -0.681964 -0.0890245 0.0369423 -0.684066 -0.0882796 0.0370539 -0.685381 
-0.0880086 0.0371334 -0.685852 
LINES 2 100
OFFSETS vtktypeint64
0 100 
CONNECTIVITY vtktypeint64
0 1 2 3 4 5 6 7 8 
9 10 11 12 13 14 15 16 17 
18 19 20 21 22 23 24 25 26 
27 28 29 30 31 32 33 34 35 
36 37 38 39 40 41 42 43 44 
45 46 47 48 49 50 51 52 53 
54 55 56 57 58 59 60 61 62 
63 64 65 66 67 68 69 70 71 
72 73 74 75 76 77 78 79 80 
81 82 83 84 85 86 87 88 89 
90 91 92 93 94 95 96 97 98 
99 
POINT_DATA 100
FIELD FieldData 3
_theta 1 100 double
0 0.031733259127 0.063466518254 0.095199777382 0.12693303651 0.15866629564 0.19039955476 0.22213281389 0.25386607302 
0.28559933214 0.31733259127 0.3490658504 0.38079910953 0.41253236865 0.44426562778 0.47599888691 0.50773214603 0.53946540516 
0.57119866429 0.60293192342 0.63466518254 0.66639844167 0.6981317008 0.72986495992 0.76159821905 0.79333147818 0.82506473731 
0.85679799643 0.88853125556 0.92026451469 0.95199777382 0.98373103294 1.0154642921 1.0471975512 1.0789308103 1.1106640695 
1.1423973286 1.1741305877 1.2058638468 1.237597106 1.2693303651 1.3010636242 1.3327968833 1.3645301425 1.3962634016 
1.4279966607 1.4597299198 1.491463179 1.5231964381 1.5549296972 1.5866629564 1.6183962155 1.6501294746 1.6818627337 
1.7135959929 1.745329252 1.7770625111 1.8087957702 1.8405290294 1.8722622885 1.9039955476 1.9357288068 1.9674620659 
1.999195325 2.0309285841 2.0626618433 2.0943951024 2.1261283615 2.1578616206 2.1895948798 2.2213281389 2.253061398 
2.2847946572 2.3165279163 2.3482611754 2.3799944345 2.4117276937 2.4434609528 2.4751942119 2.506927471 2.5386607302 
2.5703939893 2.6021272484 2.6338605076 2.6655937667 2.6973270258 2.7290602849 2.7607935441 2.7925268032 2.8242600623 
2.8559933214 2.8877265806 2.9194598397 2.9511930988 2.982926358 3.0146596171 3.0463928762 3.0781261353 3.1098593945 
3.1415926536 
_radius 1 100 double
9.3063993896e-16 0.014860735598 0.029584726935 0.044051312141 0.05816637311 0.07186394209 0.085098548944 0.097831072335 0.11001297242 
0.12157381135 0.13241511572 0.14241116484 0.15141554229 0.15927177393 0.16582666828 0.17094530481 0.17452653811 0.17651749209 
0.17692519795 0.1758236273 0.17335498643 0.16972502978 0.16519298168 0.16005730809 0.15463908698 0.1492649527 0.144251227 
0.13988980624 0.13643498424 0.13408938314 0.13298778106 0.13318070545 0.13462358154 0.13717821039 0.14062910056 0.14471008812 
0.14913348451 0.15361881854 0.15792327502 0.16187106767 0.16537257506 0.16842758235 0.17111442212 0.17357020667 0.17596712349 
0.17848853149 0.18130743782 0.18456892858 0.18837709511 0.1927859755 0.19779354128 0.20333843981 0.20930080735 0.21550953454 
0.22175749195 0.22782365586 0.23349851724 0.2386080722 0.243032245 0.24671507815 0.24966572653 0.25195083795 0.25368013531 
0.25498782034 0.25601269351 0.25687962143 0.25768433687 0.25848278964 0.2592856047 0.26005771603 0.26072286477 0.26117228059 
0.26127647148 0.26089867044 0.25990821617 0.25819208327 0.25566301437 0.25226327913 0.24796392989 0.24276035869 0.23666571551 
0.2297040636 0.22190490358 0.21329998936 0.20392246822 0.19380763974 0.18299427004 0.17152546371 0.15944847409 0.14681334263 
0.13367072949 0.12006961584 0.10605566527 0.091670908466 0.076955064084 0.061948286739 0.046694580724 0.031244752012 0.015657787077 
5.7959094945e-16 
_area 1 100 double
0 0.00043642362083 0.001721506426 0.0037909343243 0.0065608943344 0.0099505180835 0.013894498768 0.01834034433 0.023234534958 
0.028507732965 0.034067229088 0.039797641195 0.045563361132 0.051204045527 0.056523891757 0.061290385365 0.065257620471 0.068212064358 
0.070021794856 0.070664452237 0.070239450052 0.068934965341 0.067027877897 0.064793856057 0.062424880572 0.060000609405 0.057599300114 
0.055338345732 0.053345898501 0.051738854313 0.050614376111 0.050049102308 0.050100490461 0.050820861592 0.052317893364 0.054781922103 
0.058209297437 0.062318013764 0.06678216696 0.071359155042 0.075889529324 0.080247141067 0.084313915947 0.088016540535 0.091381614022 
0.094548589618 0.097734984838 0.10118190421 0.10510832438 0.10968829487 0.11504360196 0.1212307666 0.12821090866 0.1358176013 
0.14375291642 0.15162574602 0.1590193761 0.16556445275 0.17099524547 0.17517264338 0.17807399524 0.17976956071 0.18040214248 
0.18016845601 0.17929596915 0.17802433029 0.17658607443 0.17515877028 0.17383756191 0.17256701043 0.17151853047 0.17052507309 
0.16923562835 0.16724796592 0.16429557372 0.16023557602 0.15503720073 0.14877476806 0.14160284977 0.13371337166 0.1252867726 
0.11645898409 0.10732207248 0.097952906043 0.088443803395 0.078914711237 0.069505658487 0.060359676825 0.051606580499 0.043353086085 
0.035680019644 0.028645069672 0.022289238284 0.016645286149 0.011746244717 0.0076317084467 0.0043497370429 0.001953231013 0.00049152850056 
1.5192369733e-17 
