# vtk DataFile Version 5.1
vtk output
ASCII
DATASET POLYDATA
POINTS 100 float
-0.113036 -0.00447851 0.662215 -0.112757 -0.00430164 0.662624 -0.111994 -0.0036358 0.663745 
-0.110789 -0.00252301 0.665394 -0.109205 -0.00102773 0.667287 -0.107316 0.000770216 0.669068 
-0.105192 0.00278425 0.670356 -0.102887 0.00493035 0.67078 -0.100428 0.00713588 0.670018 
-0.0978042 0.00934708 0.667832 -0.0949605 0.0115343 0.664087 -0.0918007 0.0136945 0.658758 
-0.0881909 0.0158504 0.651926 -0.0839701 0.0180471 0.643761 -0.0789654 0.0203457 0.634494 
-0.0730095 0.0228147 0.624382 -0.0659597 0.0255213 0.613678 -0.0577148 0.0285217 0.602592 
-0.0482307 0.0318527 0.591272 -0.0375296 0.0355251 0.579787 -0.0257038 0.0395194 0.56812 
-0.0129133 0.0437849 0.556178 0.000623995 0.0482408 0.543805 0.0146481 0.0527816 0.530811 
0.0288766 0.0572833 0.516993 0.0430268 0.0616121 0.502165 0.0568389 0.0656339 0.48618 
0.0700957 0.0692233 0.468948 0.0826391 0.0722719 0.450441 0.0943794 0.0746952 0.430694 
0.105298 0.0764367 0.409795 0.115441 0.0774702 0.387871 0.124908 0.0777996 0.365065 
0.133834 0.0774563 0.341521 0.142364 0.0764947 0.317364 0.150632 0.0749868 0.292686 
0.158735 0.0730162 0.267547 0.166719 0.0706718 0.241971 0.174559 0.0680422 0.215958 
0.18216 0.0652115 0.189499 0.189354 0.0622555 0.162591 0.195916 0.0592404 0.135253 
0.201578 0.0562217 0.107544 0.206057 0.0532447 0.0795681 0.209078 0.0503457 0.0514767 
0.210405 0.0475537 0.0234643 0.209861 0.0448918 -0.00424519 0.207351 0.0423787 -0.031417 
0.202874 0.0400299 -0.0578263 0.196522 0.0378572 -0.0832804 0.18848 0.0358698 -0.107637 
0.179008 0.0340728 -0.130818 0.168422 0.0324666 -0.152817 0.15707 0.0310465 -0.173695 
0.145302 0.0298019 -0.193575 0.133445 0.0287166 -0.21262 0.121777 0.027769 -0.231018 
0.110514 0.0269336 -0.248955 0.0997955 0.0261828 -0.266598 0.0896833 0.0254894 -0.28407 
0.0801667 0.0248287 -0.301448 0.0711743 0.0241814 -0.318749 0.0625911 0.0235354 -0.33594 
0.0542779 0.0228873 -0.352947 0.0460917 0.0222433 -0.369669 0.0379045 0.021619 -0.385995 
0.0296173 0.0210378 -0.401827 0.0211703 0.020529 -0.417093 0.0125458 0.0201255 -0.431761 
0.00376694 0.0198598 -0.44584 -0.00511032 0.0197616 -0.459383 -0.0140073 0.0198541 -0.472478 
-0.0228356 0.0201524 -0.485234 -0.0315097 0.0206608 -0.497763 -0.0399576 0.021373 -0.510168 
-0.0481293 0.0222721 -0.522522 -0.0559998 0.0233316 -0.534858 -0.0635689 0.0245182 -0.547162 
-0.0708568 0.0257935 -0.559373 -0.0778956 0.0271182 -0.571389 -0.0847207 0.028454 -0.583075 
-0.0913605 0.0297667 -0.594282 -0.097828 0.0310286 -0.604857 -0.104115 0.0322192 -0.614667 
-0.110189 0.033326 -0.623604 -0.115998 0.0343444 -0.631601 -0.121469 0.0352761 -0.638632 
-0.126523 0.0361278 -0.644715 -0.131084 0.036909 -0.649902 -0.135084 0.0376299 -0.654275 
-0.13848 0.0382995 -0.657931 -0.141255 0.0389242 -0.66097 -0.143425 0.0395063 -0.663489 
-0.145036 0.0400443 -0.66557 -0.146162 0.0405329 -0.667276 -0.146891 0.0409635 -0.668651 
-0.147322 0.0413263 -0.66972 -0.147546 0.0416109 -0.670495 -0.14764 0.0418084 -0.670979 
-0.147653 0.0419125 -0.671168 
LINES 2 100
OFFSETS vtktypeint64
0 100 
CONNECTIVITY vtktypeint64
0 1 2 3 4 5 6 7 8 
9 10 11 12 13 14 15 16 17 
18 19 20 21 22 23 24 25 26 
27 28 29 30 31 32 33 34 35 
36 37 38 39 40 41 42 43 44 
45 46 47 48 49 50 51 52 53 
54 55 56 57 58 59 60 61 62 
63 64 65 66 67 68 69 70 71 
72 73 74 75 76 77 78 79 80 
81 82 83 84 85 86 87 88 89 
90 91 92 93 94 95 96 97 98 
99 
POINT_DATA 100
FIELD FieldData 3
_theta 1 100 double
0 0.031733259127 0.063466518254 0.095199777382 0.12693303651 0.15866629564 0.19039955476 0.22213281389 0.25386607302 
0.28559933214 0.31733259127 0.3490658504 0.38079910953 0.41253236865 0.44426562778 0.47599888691 0.50773214603 0.53946540516 
0.57119866429 0.60293192342 0.63466518254 0.66639844167 0.6981317008 0.72986495992 0.76159821905 0.79333147818 0.82506473731 
0.85679799643 0.88853125556 0.92026451469 0.95199777382 0.98373103294 1.0154642921 1.0471975512 1.0789308103 1.1106640695 
1.1423973286 1.1741305877 1.2058638468 1.237597106 1.2693303651 1.3010636242 1.3327968833 1.3645301425 1.3962634016 
1.4279966607 1.4597299198 1.491463179 1.5231964381 1.5549296972 1.5866629564 1.6183962155 1.6501294746 1.6818627337 
1.7135959929 1.745329252 1.7770625111 1.8087957702 1.8405290294 1.8722622885 1.9039955476 1.9357288068 1.9674620659 
1.999195325 2.0309285841 2.0626618433 2.0943951024 2.1261283615 2.1578616206 2.1895948798 2.2213281389 2.253061398 
2.2847946572 2.3165279163 2.3482611754 2.3799944345 2.4117276937 2.4434609528 2.4751942119 2.506927471 2.5386607302 
2.5703939893 2.6021272484 2.6338605076 2.6655937667 2.6973270258 2.7290602849 2.7607935441 2.7925268032 2.8242600623 
2.8559933214 2.8877265806 2.9194598397 2.9511930988 2.982926358 3.0146596171 3.0463928762 3.0781261353 3.1098593945 
3.1415926536 
_radius 1 100 double
7.8506970755e-16 0.01900235759 0.037705523065 0.055829724628 0.073140468046 0.089463473833 0.10469143781 0.11878189125 0.13174686707 
0.14363634913 0.15451832036 0.16445850972 0.17350272605 0.18166414042 0.18891722753 0.19519938773 0.20042050116 0.20447971465 
0.20728759565 0.20879053566 0.2089932585 0.20797490393 0.20589477093 0.20298552026 0.19953415727 0.19585375099 0.19225074721 
0.18899334524 0.18628573029 0.1842513726 0.18292662935 0.18226413538 0.18214451677 0.18239487241 0.18281267224 0.18319354978 
0.1833606891 0.18319232773 0.18264288165 0.1817532322 0.18064743346 0.179516158 0.17859040333 0.1781110558 0.17830008969 
0.17933748578 0.18134524512 0.18437756695 0.18841557916 0.19336609962 0.19906559026 0.20529115998 0.21177946895 0.21825221649 
0.22444469253 0.23013262747 0.23515273677 0.23941375357 0.24289679589 0.24564598431 0.24775183517 0.24933083519 0.25050468367 
0.25138210115 0.25204515687 0.25254111571 0.25288006444 0.25303803455 0.25296484491 0.25259534651 0.25186224264 0.25070837328 
0.24909644263 0.24701463252 0.24447724861 0.24152032529 0.23819285603 0.23454496449 0.23061482774 0.22641642761 0.22193019042 
0.21709828555 0.21182580821 0.2059882675 0.19944476201 0.19205509386 0.18369812069 0.17428818142 0.16378664566 0.1522065266 
0.13960949656 0.12609628388 0.11179292755 0.096836175872 0.081360964858 0.065491580217 0.049336717929 0.032987966822 0.016521150829 
1.4564248526e-15 
_area 1 100 double
0 0.00066093149413 0.0026365935348 0.0058992867594 0.010384657951 0.015973751847 0.022483321813 0.029671413075 0.03725798391 
0.044953612072 0.052487031167 0.059624647319 0.066180076238 0.072016394984 0.07704595168 0.081230919542 0.084582583166 0.087150998662 
0.08899803107 0.090169203315 0.090695127793 0.090617947321 0.090012403351 0.088989785415 0.087689191618 0.086262451729 0.084857314736 
0.083601734565 0.082591711484 0.081885491007 0.081503933127 0.081433813812 0.081631664938 0.082027329498 0.082528546742 0.08303106737 
0.083439330418 0.083699460098 0.083842264546 0.084022875083 0.084471210981 0.085289074879 0.086428275667 0.087846864367 0.089565394806 
0.091646763066 0.094163504225 0.097174614642 0.10071466297 0.10479124591 0.10938532486 0.11445037644 0.1199091841 0.12564979652 
0.13152349972 0.13734798477 0.14291886275 0.14803091453 0.15250559328 0.15621612762 0.15910155209 0.16116730531 0.16247643928 
0.16313350455 0.16324693188 0.16286025425 0.16197342769 0.16064792659 0.15864867305 0.15593020979 0.15250362538 0.14844095054 
0.14385976161 0.1388997233 0.13370509436 0.12840701826 0.1231477572 0.11808579756 0.11326555735 0.10853680955 0.10380297474 
0.098963960046 0.093887786186 0.088428394365 0.082458997644 0.075907673063 0.06878415139 0.061189833435 0.05330775893 0.045374564998 
0.037641400692 0.030334524394 0.023627860017 0.017636807991 0.01243309071 0.0080687420273 0.0045939034302 0.0020610138504 0.00051833176673 
2.9730931946e-17 
