# vtk DataFile Version 5.1
vtk output
ASCII
DATASET POLYDATA
POINTS 100 float
0.0246944 0.0294803 0.557998 0.0247017 0.0295684 0.558098 0.0247212 0.0299955 0.558351 
0.0247473 0.0307468 0.55866 0.0247744 0.0317996 0.558874 0.0248023 0.0331252 0.558804 
0.0248417 0.0346926 0.558239 0.0249205 0.0364719 0.556967 0.0250871 0.0384365 0.55479 
0.0254133 0.0405658 0.551543 0.0259923 0.0428459 0.547105 0.0269353 0.0452691 0.541405 
0.0283635 0.0478327 0.534424 0.0303988 0.0505359 0.526191 0.0331523 0.0533767 0.516774 
0.0367135 0.0563473 0.506269 0.0411401 0.0594314 0.494787 0.0464506 0.0626003 0.48244 
0.05262 0.0658111 0.469332 0.0595804 0.0690063 0.45555 0.0672252 0.0721146 0.441157 
0.075417 0.0750538 0.426195 0.0839994 0.0777344 0.41068 0.0928095 0.0800649 0.394613 
0.101691 0.0819577 0.377983 0.110507 0.0833347 0.360771 0.119147 0.0841325 0.342959 
0.127535 0.0843074 0.324534 0.135629 0.0838381 0.305488 0.143415 0.0827271 0.285821 
0.150904 0.0810008 0.265539 0.158118 0.0787075 0.244654 0.165077 0.075914 0.223178 
0.171789 0.0727015 0.201129 0.178234 0.0691601 0.178523 0.184363 0.0653835 0.155381 
0.190085 0.0614641 0.131729 0.195273 0.0574881 0.107603 0.19977 0.0535317 0.0830524 
0.203397 0.0496588 0.058146 0.205964 0.045919 0.0329728 0.207293 0.0423476 0.00764375 
0.207225 0.0389665 -0.0177103 0.205644 0.0357853 -0.0429436 0.202482 0.0328039 -0.0679032 
0.197733 0.0300153 -0.0924379 0.19145 0.0274084 -0.116409 0.183751 0.0249706 -0.139702 
0.174804 0.0226908 -0.162233 0.164823 0.0205613 -0.183956 0.154048 0.0185799 -0.204864 
0.142732 0.0167507 -0.224992 0.131122 0.0150848 -0.244401 0.119446 0.0136 -0.263181 
0.107897 0.0123201 -0.281428 0.0966257 0.0112732 -0.299239 0.085734 0.01049 -0.316695 
0.0752735 0.0100011 -0.333853 0.0652487 0.00983456 -0.350739 0.0556232 0.0100125 -0.367347 
0.0463288 0.0105486 -0.383642 0.0372759 0.011446 -0.399563 0.0283654 0.0126946 -0.41504 
0.0194989 0.0142707 -0.430002 0.0105892 0.0161364 -0.44439 0.00156718 0.0182404 -0.45817 
-0.00761197 0.0205204 -0.471342 -0.0169664 0.0229055 -0.48394 -0.0264868 0.0253204 -0.496034 
-0.0361384 0.0276895 -0.507723 -0.0458645 0.0299414 -0.519124 -0.0555915 0.0320134 -0.530358 
-0.0652343 0.0338552 -0.541535 -0.0747033 0.0354319 -0.55274 -0.0839095 0.0367259 -0.564021 
-0.0927708 0.037737 -0.57538 -0.101217 0.0384814 -0.586769 -0.109191 0.0389899 -0.598096 
-0.116657 0.039304 -0.609229 -0.123595 0.0394723 -0.620012 -0.130005 0.0395457 -0.630275 
-0.135906 0.0395733 -0.639857 -0.141331 0.0395984 -0.648617 -0.146324 0.0396558 -0.656448 
-0.150937 0.0397693 -0.663286 -0.155227 0.0399518 -0.669118 -0.159245 0.0402049 -0.673972 
-0.16304 0.0405213 -0.677921 -0.166645 0.0408861 -0.681067 -0.170085 0.0412805 -0.683532 
-0.173363 0.0416838 -0.685444 -0.176471 0.0420765 -0.686925 -0.179382 0.0424421 -0.688082 
-0.182058 0.0427685 -0.689002 -0.184449 0.0430484 -0.689745 -0.186504 0.0432789 -0.690349 
-0.188168 0.0434612 -0.690834 -0.189393 0.0435983 -0.691203 -0.190142 0.0436944 -0.691454 
-0.190388 0.043753 -0.691581 
LINES 2 100
OFFSETS vtktypeint64
0 100 
CONNECTIVITY vtktypeint64
0 1 2 3 4 5 6 7 8 
9 10 11 12 13 14 15 16 17 
18 19 20 21 22 23 24 25 26 
27 28 29 30 31 32 33 34 35 
36 37 38 39 40 41 42 43 44 
45 46 47 48 49 50 51 52 53 
54 55 56 57 58 59 60 61 62 
63 64 65 66 67 68 69 70 71 
72 73 74 75 76 77 78 79 80 
81 82 83 84 85 86 87 88 89 
90 91 92 93 94 95 96 97 98 
99 
POINT_DATA 100
FIELD FieldData 3
_theta 1 100 double
0 0.031733259127 0.063466518254 0.095199777382 0.12693303651 0.15866629564 0.19039955476 0.22213281389 0.25386607302 
0.28559933214 0.31733259127 0.3490658504 0.38079910953 0.41253236865 0.44426562778 0.47599888691 0.50773214603 0.53946540516 
0.57119866429 0.60293192342 0.63466518254 0.66639844167 0.6981317008 0.72986495992 0.76159821905 0.79333147818 0.82506473731 
0.85679799643 0.88853125556 0.92026451469 0.95199777382 0.98373103294 1.0154642921 1.0471975512 1.0789308103 1.1106640695 
1.1423973286 1.1741305877 1.2058638468 1.237597106 1.2693303651 1.3010636242 1.3327968833 1.3645301425 1.3962634016 
1.4279966607 1.4597299198 1.491463179 1.5231964381 1.5549296972 1.5866629564 1.6183962155 1.6501294746 1.6818627337 
1.7135959929 1.745329252 1.7770625111 1.8087957702 1.8405290294 1.8722622885 1.9039955476 1.9357288068 1.9674620659 
1.999195325 2.0309285841 2.0626618433 2.0943951024 2.1261283615 2.1578616206 2.1895948798 2.2213281389 2.253061398 
2.2847946572 2.3165279163 2.3482611754 2.3799944345 2.4117276937 2.4434609528 2.4751942119 2.506927471 2.5386607302 
2.5703939893 2.6021272484 2.6338605076 2.6655937667 2.6973270258 2.7290602849 2.7607935441 2.7925268032 2.8242600623 
2.8559933214 2.8877265806 2.9194598397 2.9511930988 2.982926358 3.0146596171 3.0463928762 3.0781261353 3.1098593945 
3.1415926536 
_radius 1 100 double
7.9115563066e-17 0.016613383307 0.033038691561 0.049094115303 0.064615974844 0.079465362634 0.093532194058 0.10673634745 0.11902590827 
0.13037286529 0.14076693566 0.15020850791 0.15870193564 0.16625049079 0.1728540863 0.17851035699 0.18321892395 0.18698786852 
0.18984086712 0.19182328653 0.19300585327 0.1934851337 0.19338069215 0.19282916303 0.19197556928 0.19096233407 0.18991691107 
0.18893980385 0.18809545099 0.18740830003 0.18686509288 0.18642250854 0.1860179922 0.18558161729 0.18504776779 0.18436615906 
0.18351173924 0.18249264869 0.18135496956 0.18018268728 0.17909148037 0.17821604868 0.17769280181 0.17764221991 0.17815631207 
0.17929449143 0.18108643203 0.18353658997 0.18662519432 0.1903042979 0.19449190872 0.19906932005 0.2038854944 0.2087690239 
0.21354508816 0.21805343015 0.22216364836 0.22578527199 0.22887146798 0.23141652152 0.23344831546 0.23501776683 0.23618740085 
0.23702092897 0.2375750345 0.23789386268 0.23800619801 0.23792505522 0.23764932193 0.23716703053 0.23645971045 0.23550707682 
0.23429110828 0.23279845714 0.23102024172 0.22894870848 0.22657105488 0.22386173141 0.22077543121 0.21724325587 0.21317392814 
0.20846056027 0.20299192705 0.19666603198 0.18940331025 0.18115706591 0.17191948782 0.16172258023 0.15063433906 0.13875128425 
0.12618886705 0.11307127652 0.099521880298 0.08565513588 0.071570457777 0.057348283865 0.043048434431 0.028710751045 0.014357890913 
1.2351280881e-15 
_area 1 100 double
0 0.00061222065356 0.002432519729 0.0054101027237 0.0094560609909 0.014441042685 0.020197389909 0.026526917375 0.03321315603 
0.04003524926 0.046780195291 0.053250772177 0.059268282671 0.064671947655 0.06931890264 0.073088347621 0.075890498888 0.077677949675 
0.078455869282 0.078288336264 0.077300396493 0.075680111983 0.073702815681 0.071846991993 0.070486779493 0.069575521206 0.0691419997 
0.069249903905 0.069907697442 0.071047512392 0.072548230576 0.074276691719 0.076122497878 0.078015274661 0.079974391751 0.082013642785 
0.084057081077 0.085949017605 0.087636360065 0.089129133749 0.090464207272 0.091675149447 0.092788015513 0.093836833945 0.094877547351 
0.09599488554 0.097309431849 0.098982354069 0.10120116588 0.10413259174 0.10785430775 0.11230821853 0.11730534787 0.12256835469 
0.12778498327 0.13265964675 0.13696536238 0.14062907136 0.1438382028 0.14648036606 0.14833273558 0.14930590018 0.1495871239 
0.14938296693 0.14875726133 0.14773537213 0.14631698837 0.14456295729 0.14256017702 0.14039491237 0.13813997525 0.13584750793 
0.13354478372 0.13123356645 0.12889111729 0.12646985246 0.12389655185 0.1210745242 0.11788958064 0.11421882051 0.1099422291 
0.10495763717 0.099198677898 0.092653152396 0.085376224627 0.077492262753 0.069183092935 0.06066609263 0.052168842513 0.043906817247 
0.036067975776 0.028804994717 0.022233889453 0.016437262515 0.011470558384 0.0073696728025 0.004158121253 0.0018522331124 0.00046370937685 
1.2403397781e-16 
