# vtk DataFile Version 5.1
vtk output
ASCII
DATASET POLYDATA
POINTS 100 float
-0.227929 -0.0283101 0.82245 -0.22733 -0.028472 0.822351 -0.225572 -0.0287876 0.822118 
-0.222708 -0.0292045 0.821656 -0.218823 -0.0296406 0.820815 -0.214022 -0.0299923 0.819411 
-0.20843 -0.0301437 0.81724 -0.202174 -0.0299785 0.814106 -0.195378 -0.0293897 0.809837 
-0.188153 -0.0282897 0.804305 -0.180588 -0.0266173 0.797437 -0.172744 -0.0243419 0.789221 
-0.164651 -0.0214646 0.779701 -0.156307 -0.0180163 0.768977 -0.147683 -0.0140529 0.757181 
-0.138725 -0.00964846 0.744468 -0.129362 -0.00488745 0.730997 -0.11952 0.0001432 0.716908 
-0.109128 0.00536117 0.702316 -0.0981283 0.0106941 0.687295 -0.0864873 0.0160824 0.671877 
-0.0742012 0.0214804 0.656053 -0.0612998 0.0268534 0.639778 -0.0478471 0.0321749 0.622982 
-0.0339388 0.0374203 0.605583 -0.0196965 0.042562 0.587499 -0.0052594 0.0475636 0.568658 
0.00922525 0.0523763 0.549009 0.0236126 0.0569367 0.528525 0.0377696 0.0611681 0.507206 
0.0515826 0.0649829 0.485072 0.0649628 0.0682888 0.462161 0.0778474 0.0709958 0.438517 
0.0901985 0.0730246 0.414186 0.101998 0.074315 0.389205 0.11324 0.0748329 0.3636 
0.12392 0.0745759 0.337385 0.134029 0.0735755 0.310562 0.143539 0.0718965 0.283128 
0.152402 0.0696332 0.255082 0.160541 0.0669027 0.226435 0.167852 0.0638353 0.197219 
0.174209 0.0605642 0.167494 0.17947 0.0572148 0.137352 0.183487 0.0538944 0.10692 
0.186124 0.0506848 0.0763515 0.187263 0.0476367 0.0458244 0.186822 0.0447684 0.0155266 
0.184766 0.0420676 -0.0143556 0.181108 0.0394968 -0.0436514 0.175918 0.0370011 -0.0722173 
0.169318 0.0345186 -0.0999475 0.161475 0.0319907 -0.126779 0.15259 0.0293727 -0.152695 
0.142886 0.0266416 -0.17772 0.132589 0.0238026 -0.201912 0.12192 0.0208915 -0.225356 
0.111071 0.0179734 -0.248146 0.100204 0.0151382 -0.270378 0.0894386 0.0124931 -0.292132 
0.0788501 0.0101527 -0.313471 0.0684725 0.00822826 -0.334427 0.0583041 0.00681692 -0.355007 
0.0483154 0.00599215 -0.375189 0.0384611 0.00579673 -0.394935 0.0286905 0.00623862 -0.414191 
0.0189584 0.00729038 -0.432906 0.00923378 0.008892 -0.451033 -0.000494066 0.0109569 -0.468543 
-0.010213 0.0133802 -0.485425 -0.0198884 0.0160486 -0.501694 -0.0294663 0.0188503 -0.517384 
-0.038879 0.0216844 -0.532548 -0.0480515 0.0244682 -0.547248 -0.0569087 0.0271424 -0.561545 
-0.0653815 0.029673 -0.575495 -0.0734117 0.0320505 -0.589135 -0.0809549 0.034286 -0.602479 
-0.0879814 0.0364053 -0.615515 -0.094475 0.0384419 -0.628204 -0.100431 0.0404297 -0.640479 
-0.10585 0.0423958 -0.652257 -0.11074 0.0443551 -0.663441 -0.115107 0.0463073 -0.67393 
-0.118957 0.0482362 -0.68363 -0.122294 0.050111 -0.692463 -0.125122 0.0518904 -0.70037 
-0.127447 0.0535283 -0.70732 -0.129279 0.0549799 -0.713312 -0.130637 0.0562081 -0.71837 
-0.131552 0.057189 -0.722549 -0.132069 0.0579158 -0.725923 -0.132246 0.0584003 -0.728582 
-0.132154 0.0586719 -0.730625 -0.131873 0.0587752 -0.732155 -0.131487 0.0587642 -0.733271 
-0.131076 0.0586966 -0.73406 -0.130714 0.0586264 -0.734594 -0.130457 0.0585975 -0.73493 
-0.130341 0.0586385 -0.735099 
LINES 2 100
OFFSETS vtktypeint64
0 100 
CONNECTIVITY vtktypeint64
0 1 2 3 4 5 6 7 8 
9 10 11 12 13 14 15 16 17 
18 19 20 21 22 23 24 25 26 
27 28 29 30 31 32 33 34 35 
36 37 38 39 40 41 42 43 44 
45 46 47 48 49 50 51 52 53 
54 55 56 57 58 59 60 61 62 
63 64 65 66 67 68 69 70 71 
72 73 74 75 76 77 78 79 80 
81 82 83 84 85 86 87 88 89 
90 91 92 93 94 95 96 97 98 
99 
POINT_DATA 100
FIELD FieldData 3
_theta 1 100 double
0 0.031733259127 0.063466518254 0.095199777382 0.12693303651 0.15866629564 0.19039955476 0.22213281389 0.25386607302 
0.28559933214 0.31733259127 0.3490658504 0.38079910953 0.41253236865 0.44426562778 0.47599888691 0.50773214603 0.53946540516 
0.57119866429 0.60293192342 0.63466518254 0.66639844167 0.6981317008 0.72986495992 0.76159821905 0.79333147818 0.82506473731 
0.85679799643 0.88853125556 0.92026451469 0.95199777382 0.98373103294 1.0154642921 1.0471975512 1.0789308103 1.1106640695 
1.1423973286 1.1741305877 1.2058638468 1.237597106 1.2693303651 1.3010636242 1.3327968833 1.3645301425 1.3962634016 
1.4279966607 1.4597299198 1.491463179 1.5231964381 1.5549296972 1.5866629564 1.6183962155 1.6501294746 1.6818627337 
1.7135959929 1.745329252 1.7770625111 1.8087957702 1.8405290294 1.8722622885 1.9039955476 1.9357288068 1.9674620659 
1.999195325 2.0309285841 2.0626618433 2.0943951024 2.1261283615 2.1578616206 2.1895948798 2.2213281389 2.253061398 
2.2847946572 2.3165279163 2.3482611754 2.3799944345 2.4117276937 2.4434609528 2.4751942119 2.506927471 2.5386607302 
2.5703939893 2.6021272484 2.6338605076 2.6655937667 2.6973270258 2.7290602849 2.7607935441 2.7925268032 2.8242600623 
2.8559933214 2.8877265806 2.9194598397 2.9511930988 2.982926358 3.0146596171 3.0463928762 3.0781261353 3.1098593945 
3.1415926536 
_radius 1 100 double
8.3555347216e-17 0.018074114006 0.035893135108 0.053215194206 0.069831296985 0.08557799079 0.10034524006 0.11407827779 0.12677271344 
0.13846324394 0.14920775654 0.15906985281 0.16810327109 0.17634110744 0.18379139164 0.19043902547 0.19625285857 0.20119601946 
0.2052375005 0.2083632168 0.21058510823 0.21194719107 0.21252775328 0.21243717453 0.2118112341 0.21080032067 0.20955566551 
0.20821445356 0.20688619335 0.20564279539 0.20451428259 0.20349101006 0.20253199628 0.20157782941 0.20056587291 0.1994452298 
0.19818918867 0.19680388078 0.19533348075 0.19386294957 0.19251749193 0.19145546766 0.19085226559 0.19087700469 0.19166849586 
0.19331797439 0.19586258877 0.19928811238 0.20353586729 0.20850915266 0.2140772678 0.2200782326 0.22632294782 0.23260331913 
0.23870526303 0.24442551682 0.2495896945 0.25406846467 0.25778900584 0.26073976462 0.26296774809 0.26456887757 0.26567305264 
0.26642627028 0.26697227465 0.26743583344 0.26790909578 0.2684418977 0.26903652843 0.26964730147 0.27018508165 0.27052652796 
0.27052720736 0.27003703935 0.26891595563 0.26704745064 0.264348044 0.260771543 0.25630809602 0.25097898278 0.24482861693 
0.23791526863 0.23030167462 0.22204625085 0.21319533554 0.20377690378 0.19379640044 0.1832354696 0.17205419272 0.16019695545 
0.14760140299 0.13420934784 0.11997814413 0.1048910017 0.088964939711 0.072255480101 0.054857659398 0.03690340049 0.018555659013 
1.9099737275e-15 
_area 1 100 double
0 0.00070592663879 0.0028169950738 0.0063067274355 0.011111733545 0.017111159274 0.024115420741 0.031874200488 0.040102794371 
0.048515960181 0.056856151749 0.064907902922 0.072497786581 0.079485367102 0.085752605376 0.091197767108 0.095736946534 0.099313206612 
0.10191033853 0.10356537831 0.10437183694 0.10446687463 0.10400570861 0.10313925109 0.10200499235 0.10072452705 0.099400442402 
0.098113251345 0.096922130807 0.095875261343 0.095049654286 0.094459090784 0.093876688383 0.093153109509 0.092251282537 0.091205967938 
0.09010372099 0.0890619913 0.088220062033 0.087773298387 0.088059643776 0.089401463668 0.091603554885 0.094405071223 0.097726050288 
0.1015788406 0.10601410147 0.11109237766 0.11684895084 0.12327623702 0.13032864165 0.13791685285 0.14589468444 0.15405214834 
0.16212102742 0.16979499762 0.17676346002 0.182753787 0.18757195057 0.19112990095 0.19345176539 0.19465882742 0.19494091002 
0.19452404426 0.19363964654 0.19249520499 0.19125112046 0.19001337816 0.18883654635 0.18772197523 0.18661114067 0.1853841146 
0.18386844407 0.18185886366 0.1791474072 0.17555999417 0.1709886293 0.16540705576 0.1588657351 0.15147143848 0.14336156829 
0.13468345063 0.12558388786 0.11620625607 0.10668771069 0.097151261543 0.087693572145 0.078374459291 0.069215905793 0.060215886078 
0.051375040714 0.042726424185 0.034357029838 0.026414905771 0.019101695959 0.012653852538 0.0073169897668 0.0033180690775 0.00083971591426 
5.2026110078e-17 
