# vtk DataFile Version 5.1
vtk output
ASCII
DATASET POLYDATA
POINTS 100 float
-0.111937 -0.0764576 0.665182 -0.111974 -0.0762393 0.665233 -0.112063 -0.0753282 0.665333 
-0.112184 -0.0737262 0.665405 -0.112309 -0.0714401 0.665333 -0.112399 -0.0684836 0.664973 
-0.11241 -0.0648789 0.664171 -0.112289 -0.0606584 0.662773 -0.11198 -0.0558649 0.660649 
-0.111424 -0.0505516 0.657697 -0.110557 -0.0447803 0.653859 -0.109309 -0.038619 0.649116 
-0.10761 -0.0321385 0.64349 -0.105381 -0.0254084 0.637036 -0.102544 -0.0184938 0.629826 
-0.0990182 -0.011452 0.621943 -0.0947261 -0.00433098 0.61346 -0.0895989 0.00283109 0.604432 
-0.083582 0.0100042 0.594884 -0.0766421 0.0171637 0.584809 -0.0687732 0.0242858 0.574165 
-0.0600018 0.0313432 0.562881 -0.0503896 0.0382998 0.550865 -0.0400335 0.0451072 0.538017 
-0.0290621 0.0517016 0.52424 -0.0176287 0.058004 0.50945 -0.00590201 0.0639215 0.493591 
0.00594627 0.0693517 0.476636 0.0177534 0.0741888 0.458593 0.0293777 0.0783312 0.439501 
0.0407076 0.0816892 0.419425 0.0516682 0.0841933 0.398449 0.0622213 0.0858 0.376662 
0.0723627 0.0864967 0.354151 0.0821123 0.0863032 0.330991 0.0915019 0.0852707 0.307242 
0.10056 0.0834784 0.282942 0.109294 0.0810268 0.258115 0.117679 0.0780306 0.232773 
0.125644 0.0746102 0.206925 0.13307 0.0708835 0.180589 0.139788 0.0669594 0.153801 
0.145589 0.0629324 0.126625 0.150238 0.05888 0.0991559 0.153498 0.0548625 0.0715264 
0.155148 0.0509248 0.0438994 0.155011 0.0470996 0.0164633 0.152973 0.0434126 -0.0105806 
0.149003 0.0398863 -0.0370313 0.143158 0.0365442 -0.0627041 0.13559 0.0334133 -0.087445 
0.126534 0.0305249 -0.111143 0.116294 0.0279134 -0.133739 0.10522 0.0256134 -0.155231 
0.0936777 0.023656 -0.17567 0.0820251 0.0220642 -0.195155 0.0705803 0.0208485 -0.213824 
0.0596011 0.0200047 -0.231837 0.0492687 0.0195116 -0.24936 0.0396806 0.0193325 -0.266551 
0.0308523 0.0194179 -0.283545 0.0227275 0.0197102 -0.300444 0.015195 0.02015 -0.317307 
0.00811097 0.0206826 -0.334154 0.00132174 0.0212643 -0.350961 -0.00531348 0.0218667 -0.367675 
-0.0119044 0.0224801 -0.384216 -0.018517 0.023113 -0.400494 -0.0251688 0.0237901 -0.416418 
-0.03183 0.0245469 -0.431909 -0.0384332 0.0254232 -0.446903 -0.0448865 0.0264554 -0.461363 
-0.0510901 0.0276693 -0.475276 -0.0569531 0.0290736 -0.488651 -0.0624075 0.030656 -0.501515 
-0.0674187 0.0323824 -0.513907 -0.0719893 0.034199 -0.525867 -0.0761575 0.036037 -0.537426 
-0.079989 0.0378207 -0.548603 -0.083565 0.0394761 -0.559399 -0.0869674 0.0409403 -0.569789 
-0.0902636 0.0421702 -0.579729 -0.0934939 0.0431478 -0.589155 -0.0966626 0.0438842 -0.597991 
-0.0997351 0.0444185 -0.606154 -0.102641 0.0448134 -0.613565 -0.105284 0.045148 -0.620159 
-0.107554 0.0455076 -0.625886 -0.109348 0.0459726 -0.630727 -0.110581 0.0466078 -0.63469 
-0.111207 0.0474527 -0.637812 -0.111229 0.048516 -0.640163 -0.110701 0.0497721 -0.641837 
-0.109728 0.0511638 -0.642944 -0.108458 0.0526075 -0.643609 -0.107067 0.0540023 -0.643956 
-0.105737 0.0552419 -0.644102 -0.104641 0.0562271 -0.644149 -0.103917 0.0568769 -0.644174 
-0.103655 0.057139 -0.644224 
LINES 2 100
OFFSETS vtktypeint64
0 100 
CONNECTIVITY vtktypeint64
0 1 2 3 4 5 6 7 8 
9 10 11 12 13 14 15 16 17 
18 19 20 21 22 23 24 25 26 
27 28 29 30 31 32 33 34 35 
36 37 38 39 40 41 42 43 44 
45 46 47 48 49 50 51 52 53 
54 55 56 57 58 59 60 61 62 
63 64 65 66 67 68 69 70 71 
72 73 74 75 76 77 78 79 80 
81 82 83 84 85 86 87 88 89 
90 91 92 93 94 95 96 97 98 
99 
POINT_DATA 100
FIELD FieldData 3
_theta 1 100 double
0 0.031733259127 0.063466518254 0.095199777382 0.12693303651 0.15866629564 0.19039955476 0.22213281389 0.25386607302 
0.28559933214 0.31733259127 0.3490658504 0.38079910953 0.41253236865 0.44426562778 0.47599888691 0.50773214603 0.53946540516 
0.57119866429 0.60293192342 0.63466518254 0.66639844167 0.6981317008 0.72986495992 0.76159821905 0.79333147818 0.82506473731 
0.85679799643 0.88853125556 0.92026451469 0.95199777382 0.98373103294 1.0154642921 1.0471975512 1.0789308103 1.1106640695 
1.1423973286 1.1741305877 1.2058638468 1.237597106 1.2693303651 1.3010636242 1.3327968833 1.3645301425 1.3962634016 
1.4279966607 1.4597299198 1.491463179 1.5231964381 1.5549296972 1.5866629564 1.6183962155 1.6501294746 1.6818627337 
1.7135959929 1.745329252 1.7770625111 1.8087957702 1.8405290294 1.8722622885 1.9039955476 1.9357288068 1.9674620659 
1.999195325 2.0309285841 2.0626618433 2.0943951024 2.1261283615 2.1578616206 2.1895948798 2.2213281389 2.253061398 
2.2847946572 2.3165279163 2.3482611754 2.3799944345 2.4117276937 2.4434609528 2.4751942119 2.506927471 2.5386607302 
2.5703939893 2.6021272484 2.6338605076 2.6655937667 2.6973270258 2.7290602849 2.7607935441 2.7925268032 2.8242600623 
2.8559933214 2.8877265806 2.9194598397 2.9511930988 2.982926358 3.0146596171 3.0463928762 3.0781261353 3.1098593945 
3.1415926536 
_radius 1 100 double
1.7608938669e-16 0.017005275585 0.033827571322 0.050286806205 0.066228255291 0.081531621821 0.096115623001 0.10993738227 0.12298661363 
0.13527536516 0.14682486137 0.15765160863 0.16775523149 0.17711033867 0.18566405129 0.19333980993 0.20004696474 0.20569467362 
0.21020792946 0.213543191 0.21570116408 0.21673477474 0.21675118026 0.21590755051 0.21440107919 0.21245413469 0.21029571777 
0.20814068772 0.20616873019 0.20450570376 0.20321049226 0.20227036885 0.20160688855 0.20109263604 0.20057715887 0.19991838167 
0.19901403078 0.19782664528 0.19639606536 0.19483514153 0.19330831045 0.19199899863 0.19107859746 0.19069097986 0.19095690107 
0.19198770895 0.1938913736 0.19676125798 0.20065133515 0.2055497753 0.21136192547 0.21790809349 0.22493654049 0.23214875818 
0.23923202685 0.24589355191 0.25189104535 0.25705585848 0.26130617695 0.26464915262 0.26717215752 0.2690246237 0.27039312969 
0.27147333683 0.2724427867 0.27343821111 0.27453989815 0.27576417265 0.2770637179 0.27833463013 0.27942873622 0.28016957242 
0.28037031815 0.27985187742 0.27845928846 0.27607481209 0.27262643019 0.26809104226 0.26249230008 0.25589366725 0.24838783219 
0.24008395937 0.23109439174 0.22152232192 0.21145167864 0.20094010596 0.19001552423 0.17867640416 0.16689556919 0.15462705123 
0.14181524678 0.12840537196 0.11435404632 0.099638804247 0.084265471327 0.068272631723 0.051732792137 0.034750240072 0.01745593272 
8.7085906172e-16 
_area 1 100 double
0 0.00083573831403 0.0032840660768 0.0071782009932 0.01227074565 0.018271824036 0.024888894148 0.031858862086 0.038965929451 
0.046043851462 0.052966604363 0.059634013826 0.065957994838 0.071852452025 0.077227555429 0.081987869382 0.08603372406 0.089266002497 
0.091595535311 0.092958794756 0.093340782435 0.092807905574 0.0915963365 0.090211302093 0.088498544356 0.086524230525 0.084499808614 
0.082755699058 0.081680339096 0.081396886976 0.081955606853 0.083276749624 0.085154684267 0.087304834384 0.089417123938 0.091211746484 
0.092506425275 0.093304020591 0.093954841343 0.095024931757 0.09671021617 0.09882399212 0.10111432207 0.10340435664 0.10568672781 
0.10810334697 0.11082197133 0.11402172329 0.11788196521 0.12267001782 0.12867330069 0.1360359405 0.14465117298 0.15415459135 
0.16399422749 0.17353245659 0.18215100696 0.18934316304 0.19478126118 0.19835165123 0.20015610869 0.20049290613 0.1998657616 
0.19880051957 0.19763475312 0.19662357493 0.19589387124 0.19538489937 0.19501624984 0.19465404029 0.19412201385 0.19321759595 
0.19172761825 0.18944251257 0.18617157795 0.18176454235 0.1761384958 0.16929946099 0.16134725289 0.15246051506 0.14286696664 
0.13280795904 0.12250668795 0.11214671623 0.10186321099 0.091745425181 0.08184690799 0.072199757188 0.062829872432 0.053770635202 
0.04507278519 0.036809226158 0.029075061938 0.021984253802 0.015664174519 0.010248520873 0.0058685339362 0.0026427218568 0.00066601834106 
8.5826296507e-17 
