# vtk DataFile Version 5.1
vtk output
ASCII
DATASET POLYDATA
POINTS 100 float
-0.161214 -0.0763608 0.706929 -0.161218 -0.0762224 0.706977 -0.161232 -0.0756206 0.70704 
-0.161184 -0.0745469 0.707031 -0.160967 -0.0729888 0.706817 -0.16044 -0.0709313 0.706236 
-0.159451 -0.068358 0.705112 -0.157845 -0.0652529 0.703275 -0.155483 -0.0616029 0.700578 
-0.15225 -0.0573996 0.696912 -0.148069 -0.052643 0.692215 -0.142902 -0.0473432 0.686475 
-0.136755 -0.041523 0.679726 -0.129672 -0.03522 0.672043 -0.12173 -0.028487 0.663525 
-0.113033 -0.0213921 0.654279 -0.103696 -0.0140171 0.644409 -0.0938424 -0.00645516 0.633998 
-0.08359 0.00119314 0.623094 -0.073047 0.00882433 0.61171 -0.0623072 0.0163371 0.59982 
-0.0514482 0.0236377 0.587364 -0.0405326 0.0306439 0.574255 -0.0296097 0.0372894 0.560398 
-0.0187195 0.0435256 0.5457 -0.00789556 0.0493224 0.530083 0.00283141 0.054667 0.513501 
0.0134321 0.0595608 0.49594 0.0238778 0.0640159 0.477429 0.034141 0.0680495 0.458032 
0.0441971 0.0716784 0.437843 0.0540258 0.0749146 0.416973 0.0636129 0.0777609 0.395539 
0.0729505 0.0802085 0.373648 0.0820362 0.0822361 0.351384 0.0908704 0.0838114 0.3288 
0.099452 0.0848944 0.305913 0.107773 0.085442 0.282703 0.115813 0.0854137 0.259119 
0.123534 0.084778 0.235093 0.130873 0.083518 0.210545 0.137747 0.0816363 0.185408 
0.144045 0.0791579 0.159639 0.149641 0.0761314 0.133229 0.154394 0.0726276 0.106217 
0.158163 0.0687364 0.078692 0.160815 0.0645618 0.0507924 0.162239 0.0602152 0.022697 
0.162355 0.0558084 -0.00538503 0.161126 0.0514471 -0.03323 0.158559 0.0472248 -0.0606169 
0.154711 0.043218 -0.0873435 0.149686 0.0394837 -0.113242 0.143621 0.0360587 -0.138189 
0.136687 0.0329608 -0.162114 0.129065 0.0301918 -0.184996 0.120941 0.0277416 -0.206865 
0.112484 0.0255929 -0.22779 0.103844 0.0237263 -0.247867 0.095135 0.0221238 -0.267205 
0.086436 0.0207724 -0.285916 0.0777887 0.0196656 -0.304098 0.0692014 0.0188029 -0.321827 
0.0606562 0.0181894 -0.339155 0.0521185 0.0178322 -0.356105 0.0435469 0.0177381 -0.372674 
0.0349034 0.0179095 -0.388842 0.0261621 0.0183417 -0.404578 0.0173148 0.0190205 -0.419851 
0.00837404 0.019921 -0.434637 -0.000626752 0.0210077 -0.44893 -0.00963675 0.0222364 -0.462743 
-0.0185926 0.0235565 -0.47611 -0.027425 0.0249148 -0.489084 -0.036065 0.0262596 -0.501728 
-0.0444499 0.0275444 -0.51411 -0.0525275 0.0287316 -0.526289 -0.0602576 0.0297946 -0.538306 
-0.0676124 0.0307199 -0.550176 -0.0745738 0.0315067 -0.561878 -0.0811303 0.0321658 -0.573353 
-0.0872723 0.0327176 -0.584507 -0.0929882 0.0331891 -0.595211 -0.0982618 0.0336103 -0.605316 
-0.103071 0.0340112 -0.61466 -0.107389 0.0344182 -0.623086 -0.111185 0.0348522 -0.630456 
-0.114434 0.0353267 -0.636664 -0.117117 0.0358471 -0.641648 -0.119229 0.0364108 -0.645403 
-0.120784 0.0370085 -0.647978 -0.121818 0.0376249 -0.649479 -0.122391 0.0382413 -0.650062 
-0.122582 0.038837 -0.649925 -0.122486 0.039391 -0.649288 -0.122207 0.0398839 -0.648381 
-0.121849 0.0402989 -0.647423 -0.121505 0.0406224 -0.646607 -0.12125 0.0408451 -0.646082 
-0.121133 0.0409614 -0.645943 
LINES 2 100
OFFSETS vtktypeint64
0 100 
CONNECTIVITY vtktypeint64
0 1 2 3 4 5 6 7 8 
9 10 11 12 13 14 15 16 17 
18 19 20 21 22 23 24 25 26 
27 28 29 30 31 32 33 34 35 
36 37 38 39 40 41 42 43 44 
45 46 47 48 49 50 51 52 53 
54 55 56 57 58 59 60 61 62 
63 64 65 66 67 68 69 70 71 
72 73 74 75 76 77 78 79 80 
81 82 83 84 85 86 87 88 89 
90 91 92 93 94 95 96 97 98 
99 
POINT_DATA 100
FIELD FieldData 3
_theta 1 100 double
0 0.031733259127 0.063466518254 0.095199777382 0.12693303651 0.15866629564 0.19039955476 0.22213281389 0.25386607302 
0.28559933214 0.31733259127 0.3490658504 0.38079910953 0.41253236865 0.44426562778 0.47599888691 0.50773214603 0.53946540516 
0.57119866429 0.60293192342 0.63466518254 0.66639844167 0.6981317008 0.72986495992 0.76159821905 0.79333147818 0.82506473731 
0.85679799643 0.88853125556 0.92026451469 0.95199777382 0.98373103294 1.0154642921 1.0471975512 1.0789308103 1.1106640695 
1.1423973286 1.1741305877 1.2058638468 1.237597106 1.2693303651 1.3010636242 1.3327968833 1.3645301425 1.3962634016 
1.4279966607 1.4597299198 1.491463179 1.5231964381 1.5549296972 1.5866629564 1.6183962155 1.6501294746 1.6818627337 
1.7135959929 1.745329252 1.7770625111 1.8087957702 1.8405290294 1.8722622885 1.9039955476 1.9357288068 1.9674620659 
1.999195325 2.0309285841 2.0626618433 2.0943951024 2.1261283615 2.1578616206 2.1895948798 2.2213281389 2.253061398 
2.2847946572 2.3165279163 2.3482611754 2.3799944345 2.4117276937 2.4434609528 2.4751942119 2.506927471 2.5386607302 
2.5703939893 2.6021272484 2.6338605076 2.6655937667 2.6973270258 2.7290602849 2.7607935441 2.7925268032 2.8242600623 
2.8559933214 2.8877265806 2.9194598397 2.9511930988 2.982926358 3.0146596171 3.0463928762 3.0781261353 3.1098593945 
3.1415926536 
_radius 1 100 double
1.7803097791e-15 0.015954734924 0.031706982396 0.047065651427 0.061864333687 0.075968545863 0.089278310995 0.10172626235 0.11327227213 
0.12389616299 0.13359028843 0.14235362457 0.150188496 0.15710024828 0.16309929427 0.16820428584 0.17244493861 0.17586335675 
0.17851346055 0.18045900939 0.18177132752 0.18252784515 0.18281192721 0.18271351359 0.18232935363 0.18176145613 0.18111284174 
0.18048055257 0.17994682733 0.17957010692 0.17937787105 0.1793630671 0.17948511645 0.17967554642 0.17984769533 0.17990977972 
0.17978047138 0.17940553629 0.17877289994 0.17792209115 0.1769436804 0.17596679495 0.17513788792 0.17459796391 0.17446460449 
0.17482141545 0.17571553566 0.17716311128 0.17916035222 0.18169500914 0.1847529278 0.18831727303 0.19236194848 0.1968433469 
0.20169474879 0.20682585689 0.21212751255 0.21747988797 0.22276184312 0.22785942026 0.23267217497 0.23711687492 0.2411288146 
0.24466143153 0.24768498215 0.25018479588 0.25215924536 0.25361726259 0.25457514605 0.25505258184 0.25506815609 0.25463500338 
0.25375744486 0.25242940414 0.25063501182 0.24835118212 0.24555125598 0.24220836786 0.23829730132 0.23379429767 0.22867526073 
0.22291356301 0.21647883694 0.20933768988 0.20145647535 0.19280546008 0.18336325371 0.17312034479 0.16208095862 0.15026303897 
0.13769673608 0.12442217634 0.11048739457 0.095947121812 0.080862713526 0.065303015022 0.049345559353 0.033077319674 0.016594350673 
8.8238385519e-16 
_area 1 100 double
0 0.00063598478072 0.0025165339988 0.0055616097869 0.0096445383276 0.01460059981 0.020236971236 0.026343142892 0.032701106119 
0.039094512668 0.04531614124 0.051173749001 0.056495417851 0.061135983703 0.064985383202 0.067977936098 0.070099729633 0.071390571037 
0.071938110278 0.071864506449 0.071309083226 0.07041198514 0.069303403466 0.068100137269 0.066964585065 0.066046376611 0.06518869367 
0.064391198349 0.063677763331 0.063083611157 0.062630326331 0.062332113745 0.062214348066 0.062313708266 0.062666495709 0.063298446339 
0.064218470751 0.065408592911 0.066846432291 0.068464493335 0.07019725492 0.072038719648 0.074057749199 0.076337232359 0.079003515357 
0.082049933499 0.085446261926 0.089057706793 0.092758140811 0.096484475043 0.10026939005 0.10421944491 0.10846384791 0.11310790616 
0.1182082079 0.12376455467 0.12971809284 0.13595093664 0.14228870582 0.14851080921 0.1543723218 0.15963463722 0.16409499303 
0.16760525826 0.17007758458 0.17148158212 0.17183963739 0.1712236491 0.16975049586 0.1675694001 0.16483821617 0.16169736961 
0.15825347356 0.15457420589 0.15069032848 0.1466027504 0.14229269719 0.13773107599 0.13288330294 0.12770980694 0.12216640019 
0.11620762622 0.1097924854 0.10289132242 0.095493943382 0.087618692499 0.079320644525 0.070696123131 0.061881253108 0.053043996365 
0.044371284178 0.036054417415 0.028276159661 0.021201840753 0.014974942673 0.009716039974 0.0055233323631 0.002473343128 0.00062112740804 
3.1252101204e-17 
