# vtk DataFile Version 5.1
vtk output
ASCII
DATASET POLYDATA
POINTS 100 float
-0.179348 -0.0401026 0.633268 -0.17923 -0.0401699 0.633491 -0.178975 -0.0401682 0.634137 
-0.178524 -0.0400713 0.635091 -0.17778 -0.0398375 0.636172 -0.176627 -0.0394131 0.637154 
-0.174939 -0.0387362 0.637788 -0.172596 -0.0377414 0.637826 -0.169498 -0.0363647 0.637043 
-0.165574 -0.0345481 0.635257 -0.160789 -0.0322434 0.632344 -0.155147 -0.0294163 0.628242 
-0.148682 -0.0260485 0.622953 -0.141459 -0.0221391 0.616534 -0.133556 -0.0177054 0.609083 
-0.12506 -0.0127825 0.600727 -0.116053 -0.00742238 0.591595 -0.106607 -0.00169244 0.581811 
-0.0967782 0.00432659 0.57147 -0.0866056 0.0105427 0.560631 -0.0761172 0.0168547 0.549314 
-0.0653343 0.0231554 0.537497 -0.0542795 0.0293334 0.525125 -0.0429846 0.0352771 0.512117 
-0.0314969 0.0408773 0.498379 -0.0198832 0.0460311 0.483818 -0.00822879 0.0506458 0.468351 
0.00336562 0.0546434 0.451917 0.0147919 0.0579637 0.43448 0.025944 0.0605688 0.416032 
0.0367287 0.0624455 0.396596 0.0470751 0.0636071 0.376212 0.0569416 0.0640938 0.35494 
0.0663184 0.0639711 0.332848 0.0752259 0.0633268 0.310006 0.083707 0.0622658 0.286485 
0.0918158 0.0609038 0.262351 0.0996031 0.0593593 0.237668 0.107101 0.0577456 0.2125 
0.114309 0.0561631 0.186914 0.121183 0.0546919 0.160987 0.127631 0.0533866 0.134812 
0.133516 0.0522729 0.108495 0.138661 0.0513472 0.0821622 0.142867 0.0505789 0.0559528 
0.14593 0.049915 0.0300165 0.147666 0.0492871 0.00450483 0.147931 0.0486204 -0.0204377 
0.146639 0.0478426 -0.0446832 0.143772 0.0468933 -0.0681292 0.139393 0.0457317 -0.090705 
0.133633 0.0443423 -0.112376 0.126687 0.0427381 -0.133142 0.118789 0.0409604 -0.153037 
0.110193 0.0390753 -0.17212 0.101145 0.037168 -0.190468 0.0918599 0.0353335 -0.208166 
0.0825033 0.0336675 -0.225294 0.073176 0.0322556 -0.241925 0.0639128 0.0311638 -0.258117 
0.0546862 0.0304316 -0.273906 0.0454208 0.0300659 -0.289313 0.0360129 0.0300404 -0.304347 
0.0263546 0.0302972 -0.319007 0.0163573 0.0307522 -0.333293 0.00597296 0.0313033 -0.347211 
-0.00479048 0.0318415 -0.360779 -0.0158627 0.0322613 -0.374032 -0.027113 0.0324731 -0.387017 
-0.038362 0.0324121 -0.399796 -0.0494002 0.0320457 -0.412434 -0.0600123 0.0313781 -0.424994 
-0.0700032 0.0304496 -0.437526 -0.0792218 0.0293333 -0.45006 -0.0875807 0.0281274 -0.462596 
-0.095067 0.0269455 -0.475099 -0.101745 0.0259042 -0.487502 -0.107748 0.0251107 -0.499708 
-0.113261 0.0246509 -0.511594 -0.118499 0.02458 -0.523026 -0.123679 0.0249153 -0.533867 
-0.128991 0.0256338 -0.543994 -0.134575 0.0266731 -0.553305 -0.140507 0.0279373 -0.561731 
-0.146782 0.0293053 -0.569241 -0.153326 0.0306432 -0.575841 -0.159995 0.0318171 -0.581575 
-0.166605 0.0327067 -0.586516 -0.172946 0.0332175 -0.590754 -0.178816 0.0332908 -0.594392 
-0.18404 0.0329096 -0.597527 -0.188496 0.0321014 -0.600248 -0.19212 0.0309358 -0.602621 
-0.194917 0.0295182 -0.604691 -0.196951 0.0279798 -0.606481 -0.198332 0.0264649 -0.607993 
-0.199195 0.0251177 -0.609212 -0.19968 0.0240673 -0.610119 -0.199906 0.023416 -0.610693 
-0.199953 0.0232291 -0.610919 
LINES 2 100
OFFSETS vtktypeint64
0 100 
CONNECTIVITY vtktypeint64
0 1 2 3 4 5 6 7 8 
9 10 11 12 13 14 15 16 17 
18 19 20 21 22 23 24 25 26 
27 28 29 30 31 32 33 34 35 
36 37 38 39 40 41 42 43 44 
45 46 47 48 49 50 51 52 53 
54 55 56 57 58 59 60 61 62 
63 64 65 66 67 68 69 70 71 
72 73 74 75 76 77 78 79 80 
81 82 83 84 85 86 87 88 89 
90 91 92 93 94 95 96 97 98 
99 
POINT_DATA 100
FIELD FieldData 3
_theta 1 100 double
0 0.031733259127 0.063466518254 0.095199777382 0.12693303651 0.15866629564 0.19039955476 0.22213281389 0.25386607302 
0.28559933214 0.31733259127 0.3490658504 0.38079910953 0.41253236865 0.44426562778 0.47599888691 0.50773214603 0.53946540516 
0.57119866429 0.60293192342 0.63466518254 0.66639844167 0.6981317008 0.72986495992 0.76159821905 0.79333147818 0.82506473731 
0.85679799643 0.88853125556 0.92026451469 0.95199777382 0.98373103294 1.0154642921 1.0471975512 1.0789308103 1.1106640695 
1.1423973286 1.1741305877 1.2058638468 1.237597106 1.2693303651 1.3010636242 1.3327968833 1.3645301425 1.3962634016 
1.4279966607 1.4597299198 1.491463179 1.5231964381 1.5549296972 1.5866629564 1.6183962155 1.6501294746 1.6818627337 
1.7135959929 1.745329252 1.7770625111 1.8087957702 1.8405290294 1.8722622885 1.9039955476 1.9357288068 1.9674620659 
1.999195325 2.0309285841 2.0626618433 2.0943951024 2.1261283615 2.1578616206 2.1895948798 2.2213281389 2.253061398 
2.2847946572 2.3165279163 2.3482611754 2.3799944345 2.4117276937 2.4434609528 2.4751942119 2.506927471 2.5386607302 
2.5703939893 2.6021272484 2.6338605076 2.6655937667 2.6973270258 2.7290602849 2.7607935441 2.7925268032 2.8242600623 
2.8559933214 2.8877265806 2.9194598397 2.9511930988 2.982926358 3.0146596171 3.0463928762 3.0781261353 3.1098593945 
3.1415926536 
_radius 1 100 double
6.1014937372e-16 0.016221656721 0.03222907247 0.047814341736 0.062788630493 0.076988430316 0.090278729749 0.10255355957 0.11373500938 
0.12377201989 0.13263994345 0.14034114408 0.14690604922 0.15239340436 0.15688829889 0.16049696218 0.16333829832 0.1655333332 
0.16719470428 0.1684185489 0.16928044506 0.16983571083 0.17012301662 0.17016951268 0.16999572907 0.16961913624 0.16905603927 
0.16832208325 0.16743194494 0.16639880748 0.16523405192 0.16394736128 0.16254724937 0.1610420373 0.15944158592 0.15776051987 
0.15602371861 0.1542737161 0.15257731315 0.15102683862 0.1497323376 0.14880509103 0.14833848771 0.14839560003 0.14901029773 
0.15020119254 0.15199049036 0.15441719597 0.15753612207 0.16139950265 0.1660261235 0.17137097329 0.17730980669 0.18364460173 
0.1901250184 0.19647659103 0.2024285246 0.20773756945 0.21220670059 0.21569824611 0.21814142015 0.21953435004 0.21994079651 
0.21948191345 0.21832361585 0.21666043265 0.21469711669 0.21262975802 0.210628598 0.20882485704 0.20730322958 0.20610019183 
0.20520661016 0.2045724084 0.20411168262 0.20370802312 0.20322087491 0.20249389863 0.20136550742 0.19968056233 0.19730129723 
0.19411541869 0.19004004447 0.18502135285 0.17903102585 0.17206137203 0.16412113035 0.15523329638 0.14543511672 0.13477923697 
0.12333443322 0.11118459309 0.098425383444 0.08515891402 0.071487352788 0.057506741508 0.043302217454 0.028945540738 0.014495346868 
9.9112003022e-16 
_area 1 100 double
0 0.00063373920049 0.0025093459238 0.0055521797002 0.0096437758498 0.014626865188 0.020307787056 0.026457456528 0.03281553103 
0.039102422765 0.045040432398 0.050381234578 0.054934197177 0.058589009007 0.061326760207 0.063215931602 0.064393361638 0.065034113657 
0.06531684226 0.065391969912 0.065359262163 0.065260245377 0.065087955422 0.064809111301 0.064387388211 0.063799520656 0.063043667633 
0.062142304926 0.061139540028 0.060090283688 0.059041055559 0.058011446133 0.056993299735 0.055974319491 0.054972650463 0.054068772779 
0.05342591729 0.053211760407 0.053435302338 0.054054945599 0.055077818496 0.056544770964 0.058480858837 0.060838337603 0.063493817924 
0.066299243211 0.069143316454 0.072012350773 0.075068208904 0.078702993683 0.083127756846 0.08825578839 0.094023836712 0.10034272058 
0.10703982436 0.11384714531 0.12042146308 0.12638451606 0.13137046304 0.13507061226 0.13727009833 0.1378739628 0.13692023188 
0.13457833416 0.13113438556 0.12697042298 0.12255088124 0.11832769451 0.11451972261 0.11124501502 0.10857116457 0.106488426 
0.10491656521 0.10373141928 0.10279409758 0.10196916531 0.10112637204 0.10013119027 0.098836188059 0.097083954651 0.094723779113 
0.091635019241 0.087747004517 0.08304872381 0.077587051606 0.071456556952 0.064785979692 0.057726143261 0.050441816222 0.043107011685 
0.035901110956 0.029003133186 0.022583172814 0.016792260733 0.0117534307 0.0075568323975 0.0042603316413 0.0018950531211 0.00047383861402 
9.0815404221e-17 
