# vtk DataFile Version 5.1
vtk output
ASCII
DATASET POLYDATA
POINTS 100 float
-0.152695 -0.0666928 0.740289 -0.15266 -0.0667622 0.740327 -0.152574 -0.0667517 0.740429 
-0.152379 -0.0666072 0.740517 -0.151992 -0.0662456 0.740469 -0.151311 -0.0655627 0.740134 
-0.15023 -0.064444 0.739351 -0.148654 -0.0627767 0.737963 -0.146511 -0.0604606 0.735834 
-0.143759 -0.0574192 0.732866 -0.140388 -0.0536076 0.728999 -0.136421 -0.0490176 0.72422 
-0.131904 -0.0436795 0.718554 -0.126897 -0.0376604 0.712058 -0.121457 -0.031059 0.704803 
-0.115631 -0.0239981 0.696865 -0.10944 -0.016615 0.688301 -0.102876 -0.00905146 0.679144 
-0.095902 -0.00144394 0.669391 -0.0884513 0.00608481 0.658996 -0.0804433 0.0134319 0.647878 
-0.0717952 0.020518 0.635924 -0.0624381 0.0272873 0.623005 -0.0523337 0.0337059 0.608989 
-0.0414865 0.0397565 0.593759 -0.0299526 0.0454325 0.577228 -0.0178416 0.0507308 0.559355 
-0.00531121 0.0556447 0.540145 0.00744372 0.0601584 0.519658 0.0202083 0.0642435 0.498002 
0.0327672 0.0678571 0.475322 0.0449252 0.0709438 0.451787 0.0565246 0.073439 0.427573 
0.0674589 0.0752759 0.402844 0.0776787 0.0763919 0.37774 0.0871904 0.0767378 0.352358 
0.0960469 0.0762847 0.326751 0.104332 0.0750306 0.300925 0.11214 0.0730047 0.27484 
0.119554 0.0702684 0.248428 0.126624 0.066914 0.221602 0.133352 0.0630603 0.194272 
0.139682 0.0588454 0.166369 0.145497 0.0544178 0.137855 0.150628 0.0499268 0.108737 
0.15487 0.0455128 0.0790751 0.158004 0.0412981 0.048983 0.159818 0.0373809 0.0186246 
0.16014 0.0338301 -0.011796 0.158854 0.0306844 -0.0420483 0.155922 0.0279535 -0.0718918 
0.151389 0.0256227 -0.101093 0.145386 0.0236581 -0.129442 0.138116 0.022015 -0.156766 
0.129836 0.020645 -0.182938 0.120837 0.0195038 -0.207885 0.111412 0.0185564 -0.231585 
0.10183 0.0177818 -0.254065 0.0923156 0.0171743 -0.275393 0.0830289 0.0167427 -0.295667 
0.0740592 0.0165078 -0.315006 0.0654249 0.0164976 -0.333536 0.057083 0.0167423 -0.351383 
0.0489457 0.0172681 -0.368662 0.0409017 0.0180927 -0.385473 0.0328386 0.019221 -0.401899 
0.0246652 0.0206433 -0.418002 0.0163281 0.022335 -0.43383 0.00782307 0.0242584 -0.449413 
-0.000801864 0.026366 -0.464774 -0.00945079 0.0286056 -0.479923 -0.0179913 0.0309245 -0.494865 
-0.0262709 0.0332752 -0.509602 -0.0341359 0.0356193 -0.524125 -0.0414504 0.03793 -0.538424 
-0.048112 0.040193 -0.552478 -0.0540633 0.0424061 -0.566256 -0.0592964 0.0445761 -0.579716 
-0.0638511 0.0467154 -0.592805 -0.0678069 0.0488369 -0.605458 -0.0712695 0.05095 -0.617602 
-0.0743556 0.0530558 -0.629157 -0.0771763 0.055145 -0.640043 -0.0798229 0.057196 -0.650184 
-0.0823564 0.0591762 -0.659512 -0.0848024 0.0610442 -0.667974 -0.0871518 0.0627543 -0.675533 
-0.0893667 0.0642611 -0.682177 -0.0913906 0.0655259 -0.687914 -0.0931613 0.0665211 -0.692774 
-0.0946244 0.0672354 -0.69681 -0.0957442 0.0676756 -0.70009 -0.0965126 0.0678675 -0.702696 
-0.0969516 0.0678542 -0.704718 -0.0971125 0.0676924 -0.706247 -0.0970684 0.0674469 -0.707372 
-0.0969046 0.067184 -0.708174 -0.0967054 0.0669647 -0.708719 -0.0965424 0.0668381 -0.709057 
-0.0964632 0.0668362 -0.709218 
LINES 2 100
OFFSETS vtktypeint64
0 100 
CONNECTIVITY vtktypeint64
0 1 2 3 4 5 6 7 8 
9 10 11 12 13 14 15 16 17 
18 19 20 21 22 23 24 25 26 
27 28 29 30 31 32 33 34 35 
36 37 38 39 40 41 42 43 44 
45 46 47 48 49 50 51 52 53 
54 55 56 57 58 59 60 61 62 
63 64 65 66 67 68 69 70 71 
72 73 74 75 76 77 78 79 80 
81 82 83 84 85 86 87 88 89 
90 91 92 93 94 95 96 97 98 
99 
POINT_DATA 100
FIELD FieldData 3
_theta 1 100 double
0 0.031733259127 0.063466518254 0.095199777382 0.12693303651 0.15866629564 0.19039955476 0.22213281389 0.25386607302 
0.28559933214 0.31733259127 0.3490658504 0.38079910953 0.41253236865 0.44426562778 0.47599888691 0.50773214603 0.53946540516 
0.57119866429 0.60293192342 0.63466518254 0.66639844167 0.6981317008 0.72986495992 0.76159821905 0.79333147818 0.82506473731 
0.85679799643 0.88853125556 0.92026451469 0.95199777382 0.98373103294 1.0154642921 1.0471975512 1.0789308103 1.1106640695 
1.1423973286 1.1741305877 1.2058638468 1.237597106 1.2693303651 1.3010636242 1.3327968833 1.3645301425 1.3962634016 
1.4279966607 1.4597299198 1.491463179 1.5231964381 1.5549296972 1.5866629564 1.6183962155 1.6501294746 1.6818627337 
1.7135959929 1.745329252 1.7770625111 1.8087957702 1.8405290294 1.8722622885 1.9039955476 1.9357288068 1.9674620659 
1.999195325 2.0309285841 2.0626618433 2.0943951024 2.1261283615 2.1578616206 2.1895948798 2.2213281389 2.253061398 
2.2847946572 2.3165279163 2.3482611754 2.3799944345 2.4117276937 2.4434609528 2.4751942119 2.506927471 2.5386607302 
2.5703939893 2.6021272484 2.6338605076 2.6655937667 2.6973270258 2.7290602849 2.7607935441 2.7925268032 2.8242600623 
2.8559933214 2.8877265806 2.9194598397 2.9511930988 2.982926358 3.0146596171 3.0463928762 3.0781261353 3.1098593945 
3.1415926536 
_radius 1 100 double
8.9605814198e-16 0.015212914416 0.030375439442 0.045424542359 0.060287350136 0.074878630203 0.089100109326 0.10284141666 0.11598225304 
0.12839547354 0.139951012 0.15052077698 0.15998465026 0.16823749406 0.17519671813 0.18080962512 0.18505957163 0.18797002094 
0.18960582401 0.1900714926 0.18950672273 0.18807984767 0.185980089 0.18340930895 0.18057346857 0.17767343264 0.17489459246 
0.1723953825 0.17029612424 0.16867098747 0.16754584958 0.16690288518 0.16669022719 0.16683367362 0.1672473634 0.16784123961 
0.16852509084 0.16921173716 0.16982313202 0.17030036578 0.17061426826 0.17077211561 0.17081786874 0.17082583961 0.1708897237 
0.17111048052 0.17158689106 0.17241096728 0.17366726339 0.17543262808 0.17777293845 0.18073575354 0.18434067699 0.18857064475 
0.193366998 0.19862988932 0.20422410543 0.20998915178 0.21575168619 0.22133829384 0.22658708557 0.23135733871 0.23553699862 
0.2390480831 0.24184988527 0.24393956757 0.24534957934 0.24614152747 0.24639670616 0.24620426935 0.24564871272 0.2447986262 
0.24369841143 0.24236387756 0.24078162428 0.23891131859 0.23668970131 0.23403545611 0.230854672 0.227047139 0.22251382821 
0.21716552322 0.21093184538 0.2037692173 0.19566603469 0.18664366786 0.17675279013 0.1660656264 0.15466569718 0.14263723538 
0.1300565103 0.11698676541 0.10347749771 0.089567671753 0.07529153153 0.06068521083 0.045792412636 0.030667909044 0.015378284651 
1.2269201232e-15 
_area 1 100 double
0 0.00061869304036 0.002468730976 0.0055286286988 0.0097526584718 0.015060005983 0.021326076708 0.028379152231 0.036003204034 
0.043945270665 0.051924922587 0.059644536792 0.066801440796 0.073104474577 0.078296469835 0.082180609041 0.084644660765 0.085675502559 
0.085358785229 0.083864086715 0.081421199652 0.078295193883 0.074765264657 0.071105901759 0.06756508966 0.064349176655 0.061620057509 
0.059521122668 0.058135504974 0.057444384711 0.057347017706 0.057723949616 0.058472374459 0.059523159674 0.060848490977 0.06245612458 
0.064362667283 0.066554098796 0.068965899083 0.071502928311 0.074075156953 0.076599802421 0.07897269959 0.081104505887 0.082974022961 
0.08462177697 0.086148504264 0.087742574016 0.08949032916 0.09132218246 0.093257272072 0.095425694338 0.098037765762 0.10134315962 
0.10556614512 0.11081053708 0.11697575062 0.12376104842 0.13074636367 0.13748276448 0.14356279125 0.1486673739 0.15258977251 
0.15524062624 0.15664134132 0.15691206613 0.15625359587 0.15494649456 0.1533063538 0.15139544078 0.14928455279 0.14699987099 
0.14456860579 0.14199486226 0.13926482831 0.13635338067 0.1332207272 0.12980636025 0.12603093524 0.12180283117 0.11702440213 
0.11160245469 0.10546742471 0.098597559055 0.091038266327 0.082907391373 0.074382998559 0.065677177291 0.057004319073 0.048553982093 
0.040476464556 0.032883948737 0.025863589384 0.019494567187 0.013861142402 0.0090572772491 0.0051826803094 0.0023330020155 0.00058786298954 
7.4475291625e-17 
