# vtk DataFile Version 5.1
vtk output
ASCII
DATASET POLYDATA
POINTS 100 float
-0.150113 -0.00831319 0.706022 -0.150064 -0.00888904 0.705943 -0.150076 -0.0104525 0.70573 
-0.150124 -0.012891 0.705343 -0.150164 -0.016025 0.704717 -0.150137 -0.0196218 0.703774 
-0.149978 -0.0234137 0.702425 -0.149617 -0.0271175 0.700585 -0.148987 -0.030455 0.698177 
-0.148026 -0.0331724 0.695143 -0.146677 -0.035056 0.691442 -0.144896 -0.0359449 0.687056 
-0.142641 -0.0357373 0.681987 -0.139881 -0.0343935 0.676254 -0.136585 -0.0319322 0.669884 
-0.132724 -0.0284239 0.662908 -0.128271 -0.0239803 0.655349 -0.123197 -0.0187424 0.647225 
-0.117476 -0.012868 0.638534 -0.111085 -0.00651914 0.629261 -0.104009 0.00014778 0.619371 
-0.0962456 0.00698974 0.608819 -0.0878092 0.0138821 0.597551 -0.0787332 0.0207206 0.58551 
-0.0690725 0.0274208 0.572643 -0.058903 0.0339155 0.558909 -0.0483182 0.0401509 0.544277 
-0.0374249 0.0460822 0.528735 -0.0263365 0.0516699 0.512285 -0.0151656 0.0568759 0.494943 
-0.00401649 0.0616622 0.476733 0.00702054 0.0659895 0.457684 0.0178736 0.0698187 0.437822 
0.0284905 0.073112 0.417168 0.0388373 0.0758359 0.395733 0.0488937 0.0779634 0.373518 
0.0586466 0.0794771 0.350515 0.0680817 0.0803709 0.326711 0.0771754 0.080651 0.302095 
0.0858876 0.0803365 0.276661 0.0941564 0.0794586 0.250422 0.101897 0.0780594 0.223411 
0.109002 0.0761901 0.195688 0.115349 0.073909 0.167345 0.120807 0.0712796 0.138504 
0.12525 0.0683692 0.109312 0.128566 0.0652471 0.0799395 0.130669 0.0619846 0.0505692 
0.13151 0.0586532 0.021388 0.13108 0.0553249 -0.00742336 0.129412 0.0520708 -0.0356994 
0.126579 0.0489605 -0.0632976 0.122686 0.04606 -0.0901034 0.117861 0.0434298 -0.116033 
0.112237 0.0411221 -0.141035 0.105948 0.0391779 -0.165085 0.0991075 0.0376242 -0.188182 
0.0918076 0.0364713 -0.210344 0.0841096 0.0357113 -0.231602 0.0760454 0.0353171 -0.251992 
0.0676218 0.0352437 -0.271552 0.058829 0.0354303 -0.29032 0.0496513 0.0358039 -0.308331 
0.0400796 0.0362846 -0.32562 0.0301228 0.0367917 -0.342219 0.0198163 0.0372497 -0.358167 
0.00922771 0.0375944 -0.373503 -0.00154364 0.0377782 -0.388276 -0.0123711 0.0377742 -0.402541 
-0.0231104 0.0375777 -0.416361 -0.033612 0.0372067 -0.429801 -0.043736 0.0366994 -0.442926 
-0.0533663 0.0361106 -0.455796 -0.0624224 0.035506 -0.468457 -0.0708677 0.0349556 -0.480942 
-0.078712 0.034527 -0.493259 -0.0860092 0.0342785 -0.505394 -0.0928479 0.0342539 -0.517305 
-0.0993391 0.034478 -0.528929 -0.105599 0.0349542 -0.540182 -0.111735 0.0356646 -0.550967 
-0.117824 0.0365712 -0.561179 -0.123908 0.0376199 -0.570716 -0.12998 0.0387451 -0.579485 
-0.135988 0.0398758 -0.58741 -0.141837 0.0409417 -0.594439 -0.147404 0.0418794 -0.600546 
-0.15255 0.0426373 -0.605732 -0.157139 0.0431799 -0.61003 -0.161058 0.0434902 -0.613494 
-0.164232 0.0435707 -0.616202 -0.166631 0.0434424 -0.618248 -0.168281 0.0431424 -0.619733 
-0.169259 0.0427204 -0.620765 -0.169685 0.0422338 -0.621447 -0.16971 0.041743 -0.621874 
-0.169493 0.0413058 -0.62213 -0.169188 0.0409726 -0.622284 -0.16892 0.0407822 -0.622384 
-0.168771 0.040759 -0.622461 
LINES 2 100
OFFSETS vtktypeint64
0 100 
CONNECTIVITY vtktypeint64
0 1 2 3 4 5 6 7 8 
9 10 11 12 13 14 15 16 17 
18 19 20 21 22 23 24 25 26 
27 28 29 30 31 32 33 34 35 
36 37 38 39 40 41 42 43 44 
45 46 47 48 49 50 51 52 53 
54 55 56 57 58 59 60 61 62 
63 64 65 66 67 68 69 70 71 
72 73 74 75 76 77 78 79 80 
81 82 83 84 85 86 87 88 89 
90 91 92 93 94 95 96 97 98 
99 
POINT_DATA 100
FIELD FieldData 3
_theta 1 100 double
0 0.031733259127 0.063466518254 0.095199777382 0.12693303651 0.15866629564 0.19039955476 0.22213281389 0.25386607302 
0.28559933214 0.31733259127 0.3490658504 0.38079910953 0.41253236865 0.44426562778 0.47599888691 0.50773214603 0.53946540516 
0.57119866429 0.60293192342 0.63466518254 0.66639844167 0.6981317008 0.72986495992 0.76159821905 0.79333147818 0.82506473731 
0.85679799643 0.88853125556 0.92026451469 0.95199777382 0.98373103294 1.0154642921 1.0471975512 1.0789308103 1.1106640695 
1.1423973286 1.1741305877 1.2058638468 1.237597106 1.2693303651 1.3010636242 1.3327968833 1.3645301425 1.3962634016 
1.4279966607 1.4597299198 1.491463179 1.5231964381 1.5549296972 1.5866629564 1.6183962155 1.6501294746 1.6818627337 
1.7135959929 1.745329252 1.7770625111 1.8087957702 1.8405290294 1.8722622885 1.9039955476 1.9357288068 1.9674620659 
1.999195325 2.0309285841 2.0626618433 2.0943951024 2.1261283615 2.1578616206 2.1895948798 2.2213281389 2.253061398 
2.2847946572 2.3165279163 2.3482611754 2.3799944345 2.4117276937 2.4434609528 2.4751942119 2.506927471 2.5386607302 
2.5703939893 2.6021272484 2.6338605076 2.6655937667 2.6973270258 2.7290602849 2.7607935441 2.7925268032 2.8242600623 
2.8559933214 2.8877265806 2.9194598397 2.9511930988 2.982926358 3.0146596171 3.0463928762 3.0781261353 3.1098593945 
3.1415926536 
_radius 1 100 double
6.4744937212e-16 0.01583244838 0.031422079507 0.046543843697 0.06100995123 0.07468356243 0.087485822471 0.099394005845 0.11042980434 
0.1206394128 0.13007027112 0.1387511813 0.1466813496 0.1538302025 0.16014602 0.16556947453 0.17004818115 0.1735494406 
0.17606961344 0.17763948852 0.1783255059 0.17822697461 0.17746968231 0.17619654407 0.17455618557 0.17269069208 0.17072419282 
0.16875423867 0.16684764442 0.16504143163 0.16334815159 0.1617639209 0.16027727482 0.15887702516 0.15755725231 0.15631779853 
0.15516024336 0.15408230546 0.15307539773 0.15212795728 0.1512328252 0.1503948614 0.14963629746 0.14899953017 0.14854804035 
0.14836558547 0.14855262411 0.14921843742 0.15046838333 0.152387663 0.15502474026 0.1583782351 0.1623904814 0.16694934076 
0.17189789624 0.17704995017 0.18220837668 0.18718348375 0.19180923279 0.19595592842 0.19953858017 0.20252056875 0.20491260681 
0.20676731357 0.20817002892 0.20922675991 0.21005036392 0.2107462249 0.21139879259 0.21206044547 0.21274414958 0.2134211432 
0.21402420323 0.21445599442 0.21460094222 0.21433845459 0.21355531981 0.21215556532 0.21006671512 0.20724206378 0.20365922423 
0.19931573893 0.19422287937 0.18839882921 0.1818622763 0.17462715667 0.16669905097 0.15807359439 0.1487371545 0.13866982963 
0.12785047251 0.1162630478 0.1039033692 0.090785254052 0.076945343799 0.062446116652 0.047376826122 0.03185221544 0.01600896306 
1.0225850703e-15 
_area 1 100 double
0 0.0004189241255 0.0017014578116 0.0039129539892 0.0071257234026 0.011378152316 0.016643887221 0.022821707186 0.029743388154 
0.037190063375 0.044908892273 0.052627208086 0.060065592999 0.066951745812 0.073035694121 0.078106093865 0.082005925615 0.084643991168 
0.086000366562 0.086129797349 0.085167640473 0.083330089935 0.080891491103 0.078184543487 0.075528087033 0.073114977063 0.071062032182 
0.069448311544 0.068263623689 0.067385536034 0.066638429764 0.06587216966 0.065003697515 0.064031984405 0.063045081413 0.062218786478 
0.061776894098 0.061861494214 0.062414531078 0.063239087522 0.064121434992 0.064896336394 0.065496864192 0.065952258652 0.066359704981 
0.06686613116 0.067607013917 0.068681251617 0.070163291695 0.072143321615 0.074742323258 0.078079981738 0.082217337216 0.087108347989 
0.092587403644 0.098393452056 0.10421066057 0.10971269633 0.11460917216 0.11868907991 0.12184913169 0.12409558731 0.12551370552 
0.12621218702 0.12627475756 0.12575540675 0.12471034283 0.12322887297 0.1214431076 0.11951823417 0.11763009957 0.11593424613 
0.11452717031 0.11340151691 0.11241247887 0.11129482939 0.10974947497 0.10755264619 0.10460422701 0.10091266065 0.096558438334 
0.09165144851 0.086295551098 0.080570176698 0.074530669971 0.06822267322 0.061700266661 0.055036783733 0.048323702624 0.041661547381 
0.035150449252 0.028885984489 0.022961439347 0.017473898181 0.012529850479 0.0082463889 0.0047459864244 0.002145462664 0.00054199964654 
6.1275478847e-17 
