# vtk DataFile Version 5.1
vtk output
ASCII
DATASET POLYDATA
POINTS 100 float
-0.112162 -0.0551458 0.824595 -0.112024 -0.0550947 0.82455 -0.111652 -0.0547685 0.824432 
-0.111026 -0.0541743 0.824159 -0.110109 -0.0533216 0.82361 -0.108857 -0.0522176 0.822628 
-0.10722 -0.0508623 0.821043 -0.105144 -0.0492432 0.818682 -0.10258 -0.0473325 0.81539 
-0.0994844 -0.0450853 0.811039 -0.0958222 -0.0424418 0.805541 -0.0915698 -0.0393315 0.798847 
-0.0867148 -0.0356804 0.790952 -0.0812561 -0.0314199 0.781886 -0.0752027 -0.0264971 0.771706 
-0.068572 -0.020884 0.760482 -0.0613882 -0.0145857 0.748288 -0.0536807 -0.00764596 0.735186 
-0.0454824 -0.00014909 0.72122 -0.0368295 0.00778218 0.706409 -0.0277609 0.0159923 0.690744 
-0.0183183 0.0243018 0.674192 -0.00854671 0.0325188 0.656702 0.00150549 0.0404514 0.638214 
0.0117861 0.0479194 0.618671 0.0222396 0.0547659 0.598026 0.0328076 0.0608642 0.576254 
0.0434301 0.0661236 0.553358 0.0540469 0.0704899 0.529373 0.0645989 0.0739432 0.504362 
0.0750292 0.0764934 0.478412 0.0852835 0.0781725 0.451631 0.0953101 0.0790277 0.424132 
0.105059 0.0791136 0.396027 0.114478 0.0784869 0.367418 0.123512 0.0772021 0.33839 
0.132099 0.0753106 0.309004 0.140166 0.0728619 0.279303 0.14763 0.0699062 0.24931 
0.154391 0.0664989 0.219036 0.160338 0.0627047 0.188489 0.165352 0.0586009 0.157687 
0.169306 0.0542792 0.12666 0.172077 0.0498446 0.0954642 0.173553 0.0454123 0.0641811 
0.173643 0.041102 0.0329219 0.172284 0.0370299 0.00182252 0.169452 0.0333003 -0.0289633 
0.165167 0.029997 -0.0592739 0.159495 0.0271768 -0.0889515 0.152549 0.0248642 -0.117855 
0.144485 0.0230504 -0.14587 0.135492 0.0216952 -0.172919 0.125783 0.0207326 -0.198967 
0.115582 0.0200796 -0.224021 0.105107 0.0196462 -0.248129 0.0945596 0.0193471 -0.271372 
0.0841098 0.0191119 -0.29385 0.0738875 0.0188942 -0.315677 0.0639758 0.0186769 -0.336962 
0.0544091 0.018474 -0.357799 0.0451753 0.0183288 -0.378258 0.0362219 0.018308 -0.398376 
0.0274658 0.0184924 -0.41816 0.0188049 0.0189665 -0.437581 0.0101309 0.0198071 -0.456588 
0.00134212 0.0210723 -0.475109 -0.00764563 0.0227936 -0.493068 -0.01689 0.0249702 -0.510394 
-0.0264164 0.0275674 -0.527028 -0.0362161 0.0305194 -0.542938 -0.0462473 0.0337345 -0.558119 
-0.0564391 0.0371041 -0.572594 -0.0666984 0.0405128 -0.586417 -0.0769177 0.0438494 -0.59966 
-0.0869836 0.0470161 -0.612409 -0.0967849 0.0499371 -0.624747 -0.10622 0.052563 -0.636752 
-0.115201 0.0548733 -0.648477 -0.12366 0.0568746 -0.659945 -0.131545 0.0585966 -0.671148 
-0.138826 0.0600857 -0.682037 -0.145488 0.0613977 -0.692532 -0.151531 0.0625898 -0.702526 
-0.156965 0.0637139 -0.711894 -0.161809 0.064811 -0.720505 -0.166088 0.0659085 -0.728238 
-0.169829 0.0670184 -0.734993 -0.173064 0.0681386 -0.740704 -0.175825 0.0692558 -0.745344 
-0.178148 0.0703489 -0.748933 -0.180068 0.0713932 -0.75154 -0.181624 0.0723644 -0.753274 
-0.182858 0.0732414 -0.754281 -0.18381 0.0740083 -0.75473 -0.184521 0.0746548 -0.754799 
-0.185026 0.0751758 -0.75466 -0.185358 0.0755698 -0.754466 -0.185543 0.0758372 -0.754337 
-0.185595 0.075979 -0.754346 
LINES 2 100
OFFSETS vtktypeint64
0 100 
CONNECTIVITY vtktypeint64
0 1 2 3 4 5 6 7 8 
9 10 11 12 13 14 15 16 17 
18 19 20 21 22 23 24 25 26 
27 28 29 30 31 32 33 34 35 
36 37 38 39 40 41 42 43 44 
45 46 47 48 49 50 51 52 53 
54 55 56 57 58 59 60 61 62 
63 64 65 66 67 68 69 70 71 
72 73 74 75 76 77 78 79 80 
81 82 83 84 85 86 87 88 89 
90 91 92 93 94 95 96 97 98 
99 
POINT_DATA 100
FIELD FieldData 3
_theta 1 100 double
0 0.031733259127 0.063466518254 0.095199777382 0.12693303651 0.15866629564 0.19039955476 0.22213281389 0.25386607302 
0.28559933214 0.31733259127 0.3490658504 0.38079910953 0.41253236865 0.44426562778 0.47599888691 0.50773214603 0.53946540516 
0.57119866429 0.60293192342 0.63466518254 0.66639844167 0.6981317008 0.72986495992 0.76159821905 0.79333147818 0.82506473731 
0.85679799643 0.88853125556 0.92026451469 0.95199777382 0.98373103294 1.0154642921 1.0471975512 1.0789308103 1.1106640695 
1.1423973286 1.1741305877 1.2058638468 1.237597106 1.2693303651 1.3010636242 1.3327968833 1.3645301425 1.3962634016 
1.4279966607 1.4597299198 1.491463179 1.5231964381 1.5549296972 1.5866629564 1.6183962155 1.6501294746 1.6818627337 
1.7135959929 1.745329252 1.7770625111 1.8087957702 1.8405290294 1.8722622885 1.9039955476 1.9357288068 1.9674620659 
1.999195325 2.0309285841 2.0626618433 2.0943951024 2.1261283615 2.1578616206 2.1895948798 2.2213281389 2.253061398 
2.2847946572 2.3165279163 2.3482611754 2.3799944345 2.4117276937 2.4434609528 2.4751942119 2.506927471 2.5386607302 
2.5703939893 2.6021272484 2.6338605076 2.6655937667 2.6973270258 2.7290602849 2.7607935441 2.7925268032 2.8242600623 
2.8559933214 2.8877265806 2.9194598397 2.9511930988 2.982926358 3.0146596171 3.0463928762 3.0781261353 3.1098593945 
3.1415926536 
_radius 1 100 double
1.4513572022e-15 0.017828935475 0.035437468052 0.052608791408 0.069139158673 0.084842809066 0.099555511935 0.11313707857 0.1254734622 
0.13647905528 0.14609948645 0.15431471392 0.16114168884 0.16663551915 0.17088805087 0.1740231477 0.17618862912 0.1775456622 
0.17825716338 0.17847719245 0.17834318652 0.17797211884 0.17746046895 0.17688671269 0.1763144181 0.17579429616 0.17536459006 
0.17505041395 0.1748633074 0.17480190547 0.17485345018 0.17499465435 0.17519029302 0.17539019063 0.17552961676 0.17553901429 
0.1753621016 0.17497446117 0.17439571202 0.17369271877 0.17297354439 0.17237278181 0.17203078739 0.17207234171 0.17259194284 
0.17365061165 0.17528358227 0.17751345061 0.18036169765 0.18385264588 0.18800688014 0.19282528031 0.19826891624 0.20424235078 
0.21058708011 0.21708832117 0.22349404812 0.22954202444 0.23498936866 0.23963959654 0.24336333207 0.24611034549 0.2479119496 
0.24887398733 0.24916166423 0.24897828048 0.24854042826 0.24805240499 0.24768250247 0.24754357682 0.24767994668 0.24806212498 
0.24859002926 0.24910415829 0.24940305003 0.24926452562 0.24846797916 0.24681520555 0.24414771546 0.24035896898 0.23540043478 
0.22928093511 0.22205944451 0.21383235619 0.20471708674 0.19483454933 0.18429325754 0.17317747741 0.161540967 0.14940668917 
0.13677181938 0.12361666534 0.1099158252 0.095649918711 0.080816375762 0.065437976059 0.049568098603 0.033291994207 0.016723855384 
6.1230509283e-16 
_area 1 100 double
0 0.00071143023981 0.0028294267885 0.006301831228 0.011031992848 0.016868030047 0.023594532693 0.030931604797 0.038545008883 
0.046068405391 0.053135198339 0.059414684827 0.064645928895 0.06866313348 0.071407925762 0.072926556685 0.073353416453 0.072886133809 
0.071760056341 0.070227545756 0.06853824417 0.066903728651 0.065479318587 0.064382051558 0.063638553627 0.063276744108 0.063275367627 
0.063575939692 0.064120001064 0.064917857413 0.06584091215 0.066883985484 0.068109735409 0.069614407203 0.071436279999 0.073542865731 
0.075815522845 0.078033446771 0.079936654191 0.081355102694 0.082281404198 0.082881080653 0.083450322393 0.084298961531 0.085653609928 
0.087656317484 0.090338059984 0.093564207547 0.097197856949 0.10120195591 0.10562491804 0.11057088668 0.11616105217 0.12248124077 
0.12952185169 0.13712786358 0.14498614267 0.15266582208 0.15969345335 0.16563275829 0.17015026114 0.17305952746 0.1743423905 
0.17414930137 0.17278834514 0.17071024775 0.16832455827 0.16580521781 0.16334721516 0.16114412773 0.15932867537 0.1579484074 
0.15695638237 0.15621196979 0.15549150819 0.15451021244 0.15295612994 0.15053295369 0.14700389465 0.14222774518 0.13618019037 
0.12895604627 0.12075132703 0.11182828675 0.10247091584 0.092941031122 0.083444894716 0.07411746921 0.065027067241 0.056197861903 
0.047642093901 0.03939073208 0.031513853523 0.024127999989 0.017392163775 0.01149519841 0.0066371695837 0.0030071774666 0.00076070793617 
1.4689124363e-16 
