# vtk DataFile Version 5.1
vtk output
ASCII
DATASET POLYDATA
POINTS 100 float
-0.156961 -0.0468056 0.698327 -0.157015 -0.0467183 0.698286 -0.157142 -0.0462966 0.698076 
-0.157297 -0.0455257 0.697616 -0.157409 -0.044383 0.696788 -0.157388 -0.0428396 0.695449 
-0.15713 -0.0408622 0.693456 -0.156529 -0.038416 0.690681 -0.155478 -0.0354688 0.687034 
-0.153882 -0.0319945 0.682475 -0.151657 -0.0279786 0.677018 -0.148736 -0.0234216 0.670735 
-0.145069 -0.018344 0.663742 -0.140621 -0.0127881 0.656187 -0.13537 -0.00681983 0.648227 
-0.129306 -0.000527675 0.640011 -0.122431 0.00598058 0.631651 -0.11475 0.012583 0.623213 
-0.106281 0.0191508 0.614701 -0.097048 0.0255567 0.606054 -0.0870893 0.0316837 0.597154 
-0.0764553 0.0374339 0.587831 -0.065213 0.0427346 0.577888 -0.0534464 0.0475433 0.567118 
-0.0412558 0.0518488 0.555327 -0.0287551 0.0556692 0.542355 -0.0160669 0.0590466 0.528091 
-0.00331562 0.0620391 0.512482 0.00938063 0.064711 0.495537 0.0219181 0.0671223 0.477319 
0.0342149 0.0693184 0.457934 0.0462162 0.0713227 0.437515 0.0578963 0.0731313 0.416203 
0.0692569 0.0747121 0.394131 0.0803218 0.0760073 0.371406 0.0911271 0.0769407 0.348102 
0.101709 0.0774274 0.324254 0.112091 0.0773851 0.299861 0.122268 0.0767471 0.274899 
0.1322 0.0754727 0.249331 0.1418 0.073556 0.223124 0.150931 0.0710307 0.196267 
0.159415 0.0679699 0.168785 0.167036 0.0644823 0.140747 0.173559 0.0607028 0.112274 
0.178748 0.056781 0.083532 0.182387 0.052867 0.0547277 0.184299 0.0490981 0.0260907 
0.184372 0.0455854 -0.00214223 0.182562 0.0424057 -0.0297463 0.17891 0.0395952 -0.056527 
0.173539 0.0371504 -0.082334 0.166644 0.035032 -0.107071 0.158479 0.0331742 -0.130699 
0.149341 0.0314966 -0.153233 0.139537 0.0299172 -0.174736 0.129366 0.0283661 -0.195301 
0.119096 0.0267959 -0.21504 0.10894 0.0251899 -0.234068 0.0990454 0.0235648 -0.252486 
0.0894902 0.0219694 -0.270372 0.0802811 0.0204781 -0.287777 0.0713647 0.0191812 -0.304721 
0.0626422 0.0181727 -0.321198 0.0539877 0.0175375 -0.337186 0.0452698 0.0173396 -0.352656 
0.0363711 0.0176129 -0.367583 0.0272053 0.0183559 -0.381958 0.0177295 0.0195314 -0.395793 
0.00795047 0.0210699 -0.409129 -0.00207499 0.0228777 -0.42203 -0.0122462 0.0248477 -0.434582 
-0.0224288 0.0268714 -0.44688 -0.0324693 0.0288511 -0.459017 -0.0422095 0.0307097 -0.471077 
-0.0515019 0.0323975 -0.483113 -0.0602213 0.0338949 -0.495148 -0.0682746 0.0352109 -0.507159 
-0.0756047 0.0363775 -0.519087 -0.0821906 0.0374406 -0.530831 -0.0880442 0.0384499 -0.54226 
-0.0932026 0.0394481 -0.553226 -0.0977203 0.0404615 -0.563573 -0.10166 0.0414939 -0.573154 
-0.105083 0.0425241 -0.581844 -0.108046 0.0435073 -0.589547 -0.110594 0.0443812 -0.596208 
-0.112764 0.045075 -0.601812 -0.11458 0.0455202 -0.606387 -0.116063 0.0456624 -0.609997 
-0.117233 0.0454713 -0.612738 -0.11811 0.0449483 -0.614725 -0.118722 0.0441296 -0.616088 
-0.119107 0.0430854 -0.616959 -0.119306 0.0419139 -0.617464 -0.119371 0.0407316 -0.61772 
-0.11935 0.0396607 -0.617824 -0.119291 0.0388156 -0.617856 -0.119232 0.0382892 -0.617874 
-0.119199 0.0381424 -0.61791 
LINES 2 100
OFFSETS vtktypeint64
0 100 
CONNECTIVITY vtktypeint64
0 1 2 3 4 5 6 7 8 
9 10 11 12 13 14 15 16 17 
18 19 20 21 22 23 24 25 26 
27 28 29 30 31 32 33 34 35 
36 37 38 39 40 41 42 43 44 
45 46 47 48 49 50 51 52 53 
54 55 56 57 58 59 60 61 62 
63 64 65 66 67 68 69 70 71 
72 73 74 75 76 77 78 79 80 
81 82 83 84 85 86 87 88 89 
90 91 92 93 94 95 96 97 98 
99 
POINT_DATA 100
FIELD FieldData 3
_theta 1 100 double
0 0.031733259127 0.063466518254 0.095199777382 0.12693303651 0.15866629564 0.19039955476 0.22213281389 0.25386607302 
0.28559933214 0.31733259127 0.3490658504 0.38079910953 0.41253236865 0.44426562778 0.47599888691 0.50773214603 0.53946540516 
0.57119866429 0.60293192342 0.63466518254 0.66639844167 0.6981317008 0.72986495992 0.76159821905 0.79333147818 0.82506473731 
0.85679799643 0.88853125556 0.92026451469 0.95199777382 0.98373103294 1.0154642921 1.0471975512 1.0789308103 1.1106640695 
1.1423973286 1.1741305877 1.2058638468 1.237597106 1.2693303651 1.3010636242 1.3327968833 1.3645301425 1.3962634016 
1.4279966607 1.4597299198 1.491463179 1.5231964381 1.5549296972 1.5866629564 1.6183962155 1.6501294746 1.6818627337 
1.7135959929 1.745329252 1.7770625111 1.8087957702 1.8405290294 1.8722622885 1.9039955476 1.9357288068 1.9674620659 
1.999195325 2.0309285841 2.0626618433 2.0943951024 2.1261283615 2.1578616206 2.1895948798 2.2213281389 2.253061398 
2.2847946572 2.3165279163 2.3482611754 2.3799944345 2.4117276937 2.4434609528 2.4751942119 2.506927471 2.5386607302 
2.5703939893 2.6021272484 2.6338605076 2.6655937667 2.6973270258 2.7290602849 2.7607935441 2.7925268032 2.8242600623 
2.8559933214 2.8877265806 2.9194598397 2.9511930988 2.982926358 3.0146596171 3.0463928762 3.0781261353 3.1098593945 
3.1415926536 
_radius 1 100 double
6.366033369e-16 0.015095905451 0.030028229995 0.044644482811 0.058813595209 0.072433261425 0.085433845675 0.097778208191 0.10945726134 
0.12048168494 0.13087092876 0.14064124496 0.14979482447 0.15831201603 0.16614807919 0.17323511095 0.17948890531 0.18481973277 
0.1891454424 0.19240493537 0.19457000736 0.19565387691 0.19571533431 0.19485811507 0.19322560467 0.19099131443 0.1883458824 
0.18548175349 0.18257714538 0.17978127639 0.17720294913 0.17490429616 0.17290072666 0.17116696666 0.16964792075 0.16827241549 
0.16696800338 0.16567562792 0.16436329232 0.16303728362 0.16174843631 0.16059102506 0.1596940149 0.15920685174 0.15928235691 
0.16005812421 0.16163789454 0.16407630909 0.16737139739 0.17146683486 0.17626199174 0.18162543276 0.18740792832 0.19345294799 
0.19960449903 0.20571319832 0.21164147173 0.21726818254 0.22249240975 0.2272358955 0.23144385034 0.23508413314 0.23814510567 
0.24063259995 0.24256642683 0.24397673838 0.24490039137 0.24537730631 0.24544674623 0.24514351629 0.24449431376 0.24351473658 
0.24220760345 0.24056308249 0.23856064805 0.23617227329 0.23336584606 0.23010782125 0.22636458802 0.22210266434 0.21728829664 
0.2118871562 0.20586462516 0.19918682873 0.19182226526 0.18374369999 0.17492994179 0.1653672082 0.155049972 0.14398140197 
0.13217366687 0.1196483919 0.10643743766 0.092583971775 0.078143607861 0.063185261935 0.047791355581 0.032057075398 0.016088551393 
1.3467373822e-15 
_area 1 100 double
0 0.00053813202108 0.0021371557784 0.0047489984773 0.0082887466723 0.012632376959 0.017620204027 0.023067506039 0.028780723228 
0.034575382062 0.040291306167 0.04580170689 0.051014626407 0.055866944408 0.060312309511 0.064305574086 0.06778929617 0.070693182814 
0.072959918222 0.074589722922 0.075614737666 0.076017123 0.075786061261 0.074900281457 0.073395593027 0.07140620955 0.069084780031 
0.066668595699 0.06427396977 0.062078728223 0.060250960685 0.058919253346 0.057886019575 0.057116575615 0.056610139086 0.056394456171 
0.056551625355 0.057244243085 0.058415177262 0.059886325262 0.061540049765 0.063301647612 0.065151401292 0.067119722548 0.069268082863 
0.071669860751 0.074390228693 0.077496489036 0.081166383978 0.085337083525 0.08990768477 0.094877696321 0.10026193061 0.10605289996 
0.11219174952 0.11856351432 0.12500798362 0.13132662546 0.13729035364 0.14267094545 0.14729144292 0.15105256725 0.15392807499 
0.15594195807 0.15713672588 0.1575489041 0.15720048652 0.15610849219 0.15431443569 0.15189218712 0.1488925368 0.14542196659 
0.14178569933 0.1379779706 0.13406937031 0.13014014774 0.12622847337 0.12230366766 0.11826952103 0.1139905451 0.1093257474 
0.10415803352 0.098413897604 0.092072710464 0.08516743664 0.077779134739 0.070027062119 0.06205591125 0.054022159884 0.046082292047 
0.038385681183 0.031073136587 0.024278772613 0.018130619486 0.012746898278 0.0082289256667 0.0046544610735 0.0020751666015 0.00051957291681 
3.6095716804e-17 
