# vtk DataFile Version 5.1
vtk output
ASCII
DATASET POLYDATA
POINTS 100 float
-0.122092 -0.0363419 0.688358 -0.122016 -0.0363232 0.688296 -0.121862 -0.036081 0.68804 
-0.1216 -0.0356163 0.687499 -0.12118 -0.0349296 0.686533 -0.120537 -0.0340186 0.684975 
-0.1196 -0.0328738 0.682646 -0.118289 -0.0314762 0.67938 -0.116528 -0.0297945 0.675048 
-0.11425 -0.0277856 0.669567 -0.111393 -0.0253966 0.662914 -0.107911 -0.0225685 0.655129 
-0.10377 -0.0192431 0.646307 -0.0989512 -0.0153707 0.636588 -0.0934491 -0.0109184 0.626136 
-0.0872704 -0.00587836 0.615121 -0.0804334 -0.000274087 0.603696 -0.0729668 0.00583531 0.591976 
-0.0649097 0.0123542 0.580027 -0.0563109 0.0191531 0.567855 -0.0472292 0.0260747 0.555406 
-0.0377338 0.0329436 0.542572 -0.0279033 0.0395774 0.529201 -0.0178253 0.0458002 0.515123 
-0.00759389 0.0514544 0.500158 0.00269318 0.0564131 0.48415 0.0129386 0.0605875 0.466972 
0.0230504 0.063933 0.44855 0.0329466 0.0664494 0.428866 0.0425601 0.0681781 0.407959 
0.0518417 0.0691948 0.385926 0.0607618 0.0695997 0.362903 0.0693099 0.0695055 0.339058 
0.0774912 0.0690252 0.314573 0.0853214 0.0682605 0.289624 0.0928193 0.0672926 0.264375 
0.0999983 0.066176 0.23896 0.106858 0.0649358 0.213481 0.113374 0.0635694 0.188008 
0.119499 0.0620515 0.16258 0.125153 0.0603416 0.137215 0.130227 0.0583941 0.111916 
0.134592 0.0561686 0.0866864 0.138102 0.053639 0.061535 0.140611 0.050802 0.0364859 
0.141985 0.0476812 0.0115816 0.142116 0.0443297 -0.0131162 0.140934 0.0408271 -0.0375296 
0.138422 0.0372751 -0.0615699 0.134615 0.0337889 -0.0851455 0.129608 0.0304881 -0.10817 
0.123547 0.0274858 -0.130568 0.116622 0.0248791 -0.152286 0.109051 0.0227408 -0.173287 
0.101065 0.0211132 -0.19356 0.0928917 0.020006 -0.213112 0.0847325 0.0193958 -0.231963 
0.0767526 0.0192302 -0.250143 0.0690682 0.0194333 -0.267685 0.0617406 0.0199139 -0.284616 
0.0547765 0.020574 -0.300956 0.0481333 0.0213179 -0.316715 0.041729 0.0220595 -0.331894 
0.035457 0.0227291 -0.346485 0.0292009 0.0232769 -0.360482 0.0228513 0.0236746 -0.37388 
0.0163194 0.0239151 -0.386686 0.00954834 0.0240091 -0.398921 0.00252011 0.0239811 -0.410625 
-0.00474259 0.0238639 -0.421856 -0.012179 0.0236933 -0.432687 -0.019697 0.0235026 -0.443203 
-0.0271835 0.0233194 -0.453494 -0.0345153 0.0231622 -0.463643 -0.0415717 0.0230394 -0.473721 
-0.0482441 0.02295 -0.483775 -0.0544451 0.0228851 -0.493826 -0.0601127 0.0228306 -0.503861 
-0.0652125 0.0227705 -0.513839 -0.0697353 0.0226902 -0.523684 -0.0736933 0.022579 -0.533302 
-0.0771139 0.0224328 -0.54258 -0.0800325 0.0222545 -0.551401 -0.0824868 0.0220547 -0.559653 
-0.0845115 0.0218499 -0.567236 -0.0861356 0.021661 -0.574072 -0.0873816 0.0215106 -0.580111 
-0.0882674 0.0214199 -0.585331 -0.0888095 0.0214064 -0.589743 -0.0890272 0.021481 -0.59338 
-0.0889467 0.0216467 -0.596305 -0.088605 0.021898 -0.598593 -0.0880514 0.0222206 -0.600332 
-0.0873474 0.022593 -0.601615 -0.0865645 0.0229885 -0.602532 -0.0857792 0.0233774 -0.603166 
-0.0850674 0.0237303 -0.603592 -0.0844973 0.024021 -0.603867 -0.0841234 0.0242286 -0.604035 
-0.0839805 0.0243404 -0.604122 
LINES 2 100
OFFSETS vtktypeint64
0 100 
CONNECTIVITY vtktypeint64
0 1 2 3 4 5 6 7 8 
9 10 11 12 13 14 15 16 17 
18 19 20 21 22 23 24 25 26 
27 28 29 30 31 32 33 34 35 
36 37 38 39 40 41 42 43 44 
45 46 47 48 49 50 51 52 53 
54 55 56 57 58 59 60 61 62 
63 64 65 66 67 68 69 70 71 
72 73 74 75 76 77 78 79 80 
81 82 83 84 85 86 87 88 89 
90 91 92 93 94 95 96 97 98 
99 
POINT_DATA 100
FIELD FieldData 3
_theta 1 100 double
0 0.031733259127 0.063466518254 0.095199777382 0.12693303651 0.15866629564 0.19039955476 0.22213281389 0.25386607302 
0.28559933214 0.31733259127 0.3490658504 0.38079910953 0.41253236865 0.44426562778 0.47599888691 0.50773214603 0.53946540516 
0.57119866429 0.60293192342 0.63466518254 0.66639844167 0.6981317008 0.72986495992 0.76159821905 0.79333147818 0.82506473731 
0.85679799643 0.88853125556 0.92026451469 0.95199777382 0.98373103294 1.0154642921 1.0471975512 1.0789308103 1.1106640695 
1.1423973286 1.1741305877 1.2058638468 1.237597106 1.2693303651 1.3010636242 1.3327968833 1.3645301425 1.3962634016 
1.4279966607 1.4597299198 1.491463179 1.5231964381 1.5549296972 1.5866629564 1.6183962155 1.6501294746 1.6818627337 
1.7135959929 1.745329252 1.7770625111 1.8087957702 1.8405290294 1.8722622885 1.9039955476 1.9357288068 1.9674620659 
1.999195325 2.0309285841 2.0626618433 2.0943951024 2.1261283615 2.1578616206 2.1895948798 2.2213281389 2.253061398 
2.2847946572 2.3165279163 2.3482611754 2.3799944345 2.4117276937 2.4434609528 2.4751942119 2.506927471 2.5386607302 
2.5703939893 2.6021272484 2.6338605076 2.6655937667 2.6973270258 2.7290602849 2.7607935441 2.7925268032 2.8242600623 
2.8559933214 2.8877265806 2.9194598397 2.9511930988 2.982926358 3.0146596171 3.0463928762 3.0781261353 3.1098593945 
3.1415926536 
_radius 1 100 double
7.7925972016e-16 0.016705533757 0.03309445719 0.048867588074 0.063764955592 0.077581653203 0.090179289263 0.10149178283 0.11152456984 
0.12034682457 0.12807709553 0.13486376549 0.14086280589 0.14621610055 0.15103380828 0.15538362664 0.15928853614 0.16273301517 
0.16567615968 0.16806883901 0.16987129746 0.17106783945 0.17167631537 0.17175140932 0.1713816726 0.17068085441 0.16977469369 
0.16878515198 0.16781490567 0.16693533714 0.16618089656 0.16555143201 0.16502207274 0.16455792499 0.16412894586 0.16372017153 
0.16333541661 0.16299728878 0.1627474063 0.16264647261 0.16277092378 0.16320515102 0.16403227265 0.16532769542 0.16715721114 
0.16957736254 0.17263348535 0.17635166715 0.18072446473 0.18569525419 0.19114972907 0.19692163697 0.20281308966 0.20862282549 
0.21417368548 0.21933303106 0.22402350598 0.22822418172 0.23196346995 0.23530579456 0.23833438237 0.24113283952 0.24376831666 
0.24627878939 0.24866617456 0.25089582351 0.25290172419 0.2545958616 0.25587982184 0.25665681313 0.2568425894 0.25637409897 
0.25521497473 0.2533572704 0.25081920351 0.2476391258 0.24386648354 0.2395510692 0.23473227875 0.22943023889 0.22364045469 
0.21733303954 0.21045674067 0.20294707207 0.19473712866 0.18576922753 0.17600545146 0.16543542507 0.1540801588 0.14199146012 
0.12924713745 0.11594291397 0.10218252643 0.088067804916 0.07369050275 0.059127185153 0.044437635387 0.029666285871 0.014845562649 
8.0602456111e-16 
_area 1 100 double
0 0.00067268900626 0.0026442886549 0.0057796181932 0.0098675181796 0.014641863048 0.019809336383 0.025080825357 0.030202144383 
0.034979342576 0.039294010296 0.043104870542 0.046434071494 0.04934099212 0.051892054809 0.054136852314 0.05609631139 0.057763163834 
0.059112364449 0.060116591732 0.060759396432 0.061040711967 0.060977988274 0.060613964067 0.060034397379 0.05937124495 0.0587743358 
0.058374432133 0.058261662041 0.058479449334 0.059022953412 0.059840758 0.060855717645 0.06202113927 0.06336699159 0.064851558737 
0.066302737153 0.06761062862 0.068803648504 0.070053734183 0.071611823733 0.073688009093 0.076332692319 0.079445917701 0.082884211176 
0.086544414244 0.090400597095 0.094504503483 0.098953771124 0.10384321933 0.10920455042 0.11496042288 0.12094474362 0.12695687377 
0.1327963728 0.13828218558 0.1432762983 0.14773926391 0.15209875296 0.15611946918 0.15975679724 0.16303986656 0.16605189321 
0.16891187707 0.17147433182 0.17359211569 0.17514190946 0.17601784763 0.17613787235 0.17542807775 0.17380835221 0.17121338537 
0.16762765034 0.16309803803 0.15772672079 0.1516593694 0.1450733185 0.1381596647 0.13109238356 0.1239904926 0.11689409068 
0.10976833184 0.10252864678 0.095073652366 0.087317563716 0.079218057588 0.070796301419 0.062145825233 0.05342779657 0.044852619254 
0.036651127315 0.02904171924 0.022201254918 0.016246836914 0.011233060235 0.0071653315008 0.0040240282846 0.0017881371796 0.00044722583153 
7.8596441966e-18 
