# vtk DataFile Version 5.1
vtk output
ASCII
DATASET POLYDATA
POINTS 100 float
-0.181108 -0.0462211 0.70249 -0.180927 -0.0464368 0.702446 -0.180467 -0.0469068 0.702293 
-0.179719 -0.0475556 0.701961 -0.178666 -0.0482653 0.701343 -0.177281 -0.0488864 0.700304 
-0.175528 -0.0492507 0.698695 -0.173359 -0.0491863 0.696368 -0.170716 -0.0485323 0.693192 
-0.167532 -0.0471522 0.689062 -0.163739 -0.0449447 0.683904 -0.159269 -0.0418521 0.677685 
-0.154064 -0.0378637 0.670406 -0.14808 -0.0330158 0.662099 -0.1413 -0.0273882 0.652816 
-0.133734 -0.0210969 0.642623 -0.125423 -0.0142854 0.631589 -0.116442 -0.00711421 0.619773 
-0.106898 0.000249976 0.607224 -0.0969162 0.00764375 0.593971 -0.0866405 0.0149156 0.58003 
-0.0762156 0.0219322 0.565402 -0.0657776 0.0285827 0.55008 -0.0554417 0.03478 0.534055 
-0.0452922 0.0404613 0.517326 -0.0353762 0.0455857 0.499899 -0.0257007 0.0501315 0.481794 
-0.0162347 0.0540927 0.463044 -0.00691543 0.057475 0.443689 0.00234048 0.0602927 0.423779 
0.0116237 0.0625658 0.403355 0.0210167 0.0643175 0.382455 0.0305784 0.065573 0.361097 
0.0403308 0.0663579 0.339283 0.0502485 0.0666986 0.316996 0.0602533 0.0666209 0.294202 
0.0702136 0.0661509 0.270859 0.0799502 0.0653143 0.246926 0.0892461 0.0641372 0.222373 
0.097862 0.0626454 0.197197 0.105553 0.0608658 0.171426 0.112088 0.058826 0.145133 
0.117266 0.0565555 0.118433 0.120936 0.0540868 0.0914861 0.123002 0.0514561 0.0644849 
0.123435 0.0487042 0.0376471 0.122273 0.0458774 0.0111975 0.119614 0.0430275 -0.0146484 
0.115612 0.040211 -0.0397014 0.110458 0.0374883 -0.0638141 0.104371 0.0349204 -0.0868918 
0.0975786 0.0325668 -0.108898 0.0903008 0.0304811 -0.129856 0.0827387 0.0287075 -0.149842 
0.075063 0.0272768 -0.168973 0.0674078 0.026204 -0.187395 0.0598678 0.0254857 -0.205267 
0.0524997 0.0251008 -0.222739 0.0453268 0.0250108 -0.239945 0.0383455 0.0251636 -0.256986 
0.031534 0.0254979 -0.273927 0.0248609 0.025949 -0.290793 0.0182936 0.0264548 -0.307574 
0.0118047 0.0269619 -0.324234 0.00537755 0.0274309 -0.340719 -0.000991097 0.0278402 -0.356966 
-0.00729025 0.0281875 -0.372918 -0.0134957 0.0284896 -0.388532 -0.0195726 0.0287792 -0.403778 
-0.0254789 0.0291006 -0.418649 -0.0311696 0.0295034 -0.43315 -0.0366006 0.0300354 -0.447299 
-0.0417321 0.0307359 -0.461117 -0.0465319 0.0316298 -0.474615 -0.0509774 0.0327232 -0.487794 
-0.0550567 0.0340012 -0.500635 -0.0587692 0.0354286 -0.513096 -0.0621252 0.0369521 -0.525117 
-0.0651452 0.0385058 -0.536621 -0.0678585 0.0400171 -0.547524 -0.0703017 0.0414147 -0.557746 
-0.0725167 0.0426349 -0.567216 -0.0745486 0.0436286 -0.57589 -0.0764435 0.0443651 -0.583747 
-0.078246 0.0448353 -0.590803 -0.0799965 0.0450509 -0.597102 -0.0817291 0.0450427 -0.602715 
-0.0834689 0.0448559 -0.607732 -0.0852303 0.0445444 -0.61225 -0.0870156 0.0441647 -0.616361 
-0.0888141 0.0437693 -0.620144 -0.0906027 0.0434025 -0.623654 -0.0923467 0.0430956 -0.626914 
-0.0940025 0.0428663 -0.629918 -0.0955204 0.0427186 -0.632634 -0.0968482 0.0426451 -0.635005 
-0.0979356 0.0426306 -0.636964 -0.0987381 0.0426568 -0.638443 -0.0992209 0.0427065 -0.639383 
-0.0993616 0.0427676 -0.639743 
LINES 2 100
OFFSETS vtktypeint64
0 100 
CONNECTIVITY vtktypeint64
0 1 2 3 4 5 6 7 8 
9 10 11 12 13 14 15 16 17 
18 19 20 21 22 23 24 25 26 
27 28 29 30 31 32 33 34 35 
36 37 38 39 40 41 42 43 44 
45 46 47 48 49 50 51 52 53 
54 55 56 57 58 59 60 61 62 
63 64 65 66 67 68 69 70 71 
72 73 74 75 76 77 78 79 80 
81 82 83 84 85 86 87 88 89 
90 91 92 93 94 95 96 97 98 
99 
POINT_DATA 100
FIELD FieldData 3
_theta 1 100 double
0 0.031733259127 0.063466518254 0.095199777382 0.12693303651 0.15866629564 0.19039955476 0.22213281389 0.25386607302 
0.28559933214 0.31733259127 0.3490658504 0.38079910953 0.41253236865 0.44426562778 0.47599888691 0.50773214603 0.53946540516 
0.57119866429 0.60293192342 0.63466518254 0.66639844167 0.6981317008 0.72986495992 0.76159821905 0.79333147818 0.82506473731 
0.85679799643 0.88853125556 0.92026451469 0.95199777382 0.98373103294 1.0154642921 1.0471975512 1.0789308103 1.1106640695 
1.1423973286 1.1741305877 1.2058638468 1.237597106 1.2693303651 1.3010636242 1.3327968833 1.3645301425 1.3962634016 
1.4279966607 1.4597299198 1.491463179 1.5231964381 1.5549296972 1.5866629564 1.6183962155 1.6501294746 1.6818627337 
1.7135959929 1.745329252 1.7770625111 1.8087957702 1.8405290294 1.8722622885 1.9039955476 1.9357288068 1.9674620659 
1.999195325 2.0309285841 2.0626618433 2.0943951024 2.1261283615 2.1578616206 2.1895948798 2.2213281389 2.253061398 
2.2847946572 2.3165279163 2.3482611754 2.3799944345 2.4117276937 2.4434609528 2.4751942119 2.506927471 2.5386607302 
2.5703939893 2.6021272484 2.6338605076 2.6655937667 2.6973270258 2.7290602849 2.7607935441 2.7925268032 2.8242600623 
2.8559933214 2.8877265806 2.9194598397 2.9511930988 2.982926358 3.0146596171 3.0463928762 3.0781261353 3.1098593945 
3.1415926536 
_radius 1 100 double
4.603264517e-16 0.017410518554 0.034648792635 0.051543285206 0.067928048195 0.083643866672 0.098538753843 0.11246906968 0.12530245604 
0.13692311774 0.14723909562 0.1561904116 0.16375651038 0.16996135694 0.17487487543 0.17861007457 0.18131605809 0.18316794311 
0.18435522824 0.1850701589 0.18549713934 0.185803513 0.18613148069 0.18659084726 0.18725271701 0.18814494981 0.18925072779 
0.19051157445 0.19183547762 0.1931096104 0.19421593917 0.19504709759 0.19551955756 0.19558188734 0.19521828394 0.19445023162 
0.19333887967 0.19198745842 0.19054079622 0.18917981336 0.18811098595 0.18755212491 0.18771591146 0.1887921014 0.19092896824 
0.19421494335 0.19866277894 0.20420035747 0.21067252526 0.21785521934 0.22547825219 0.23325059828 0.24088351864 0.24810991131 
0.25470011256 0.26047449135 0.2653125266 0.26915755243 0.27201637189 0.27395342135 0.27507989176 0.27553894302 0.27548872253 
0.27508523489 0.27446715956 0.27374443156 0.2729917462 0.27224717955 0.27151505283 0.27077137409 0.2699699817 0.2690479574 
0.26792971933 0.26653002129 0.26475652684 0.26251260439 0.25970065607 0.25622590981 0.25200036675 0.24694656518 0.2410009404 
0.23411672564 0.2262664578 0.21744415383 0.20766707546 0.19697673151 0.18543849472 0.17313912041 0.16018172284 0.14667843307 
0.13274181072 0.11847665509 0.10397376621 0.089306508549 0.074530208267 0.059683865896 0.044793405192 0.029875568917 0.014941590856 
1.2468530837e-15 
_area 1 100 double
0 0.00059272439759 0.0023707916821 0.0053282664316 0.0094369468843 0.014622633166 0.020742352399 0.027572323723 0.034813393613 
0.04211518658 0.049114513163 0.055479248515 0.060947243099 0.0653515312 0.068627744675 0.070805462542 0.071989514792 0.072338009655 
0.072041714905 0.071306937285 0.070342665227 0.06935215822 0.068530535562 0.068069807736 0.068131224262 0.068753552892 0.069859667087 
0.071329969881 0.073032932301 0.074846139308 0.076674720085 0.078439206044 0.080058069756 0.081482219047 0.082739856954 0.083936756035 
0.085208388903 0.086665677008 0.088348405986 0.090250384099 0.092335327751 0.094628704361 0.097218139537 0.10026887175 0.10399474244 
0.10861820877 0.11432336058 0.12120789741 0.12924928112 0.13829799545 0.14809709027 0.15831381563 0.16857000239 0.17846854164 
0.18762034036 0.19567440497 0.20234871247 0.20745664994 0.21092359451 0.21278988211 0.21319988877 0.21238095784 0.21061657762 
0.20821340736 0.20545836747 0.20257221541 0.19968330825 0.19683750804 0.19402993832 0.19123449858 0.18841976432 0.18555100723 
0.18258151398 0.17943768095 0.17600465135 0.17212281209 0.16760521571 0.16227473461 0.15600466974 0.148745004 0.14052831714 
0.13145983825 0.12169884457 0.1114370257 0.10087769287 0.090219107798 0.079644427072 0.069318174412 0.059385747064 0.04997178147 
0.041176972153 0.033077630582 0.025732065513 0.019191909736 0.013511531569 0.0087504953639 0.0049696181231 0.0022243245785 0.00055847354108 
7.3779905001e-17 
