# vtk DataFile Version 5.1
vtk output
ASCII
DATASET POLYDATA
POINTS 100 float
-0.0991978 -0.0277259 0.664191 -0.0992483 -0.0276597 0.664248 -0.0994792 -0.0272641 0.664343 
-0.0998855 -0.0265618 0.664382 -0.100455 -0.0255869 0.664223 -0.101163 -0.0243775 0.663687 
-0.10197 -0.0229674 0.662583 -0.102816 -0.021378 0.660726 -0.103616 -0.0196117 0.657958 
-0.104262 -0.0176479 0.654162 -0.104623 -0.0154439 0.649274 -0.104551 -0.0129382 0.643284 
-0.103888 -0.0100588 0.636236 -0.102475 -0.00673371 0.628215 -0.100167 -0.00290309 0.619334 
-0.096839 0.00146877 0.609719 -0.0924028 0.00638338 0.599488 -0.0868113 0.0118013 0.588736 
-0.0800655 0.0176398 0.577523 -0.072216 0.0237757 0.565867 -0.06336 0.0300527 0.553744 
-0.0536351 0.0362936 0.541092 -0.0432088 0.0423144 0.52782 -0.0322663 0.0479402 0.513826 
-0.0209971 0.0530204 0.499007 -0.00958142 0.0574404 0.483275 0.00182095 0.0611307 0.466574 
0.0130795 0.0640699 0.448882 0.024098 0.0662825 0.430219 0.0348146 0.0678323 0.410645 
0.0451989 0.0688109 0.39025 0.0552449 0.0693249 0.369146 0.0649603 0.069481 0.347456 
0.0743564 0.0693732 0.325296 0.0834358 0.0690722 0.30277 0.0921831 0.0686193 0.279955 
0.100557 0.0680241 0.256904 0.108489 0.0672677 0.233637 0.115879 0.0663099 0.210157 
0.122606 0.0650989 0.186448 0.128531 0.0635833 0.162493 0.133512 0.0617231 0.138282 
0.137416 0.0594996 0.113822 0.140131 0.0569222 0.0891505 0.141578 0.0540309 0.0643308 
0.141722 0.0508954 0.0394588 0.140578 0.0476096 0.0146549 0.138208 0.0442835 -0.0099437 
0.134726 0.0410332 -0.0341948 0.130282 0.0379698 -0.0579635 0.125056 0.0351907 -0.0811348 
0.119246 0.032771 -0.103623 0.113049 0.0307598 -0.12538 0.106647 0.0291785 -0.146396 
0.100199 0.0280231 -0.166698 0.093823 0.0272685 -0.186346 0.0875968 0.0268754 -0.205419 
0.0815498 0.0267967 -0.224007 0.0756678 0.0269843 -0.242197 0.0698977 0.0273935 -0.260063 
0.0641568 0.0279863 -0.277656 0.0583437 0.0287311 -0.295 0.0523516 0.0296008 -0.312089 
0.0460801 0.0305696 -0.328893 0.0394468 0.031608 -0.345361 0.0323966 0.0326791 -0.361435 
0.0249081 0.0337359 -0.377056 0.0169963 0.0347206 -0.392176 0.00871277 0.0355662 -0.406768 
0.000141791 0.0362015 -0.420827 -0.00860554 0.0365576 -0.434378 -0.0173995 0.0365757 -0.447472 
-0.0261009 0.0362155 -0.460179 -0.0345708 0.0354624 -0.47258 -0.0426792 0.0343317 -0.484757 
-0.0503129 0.0328711 -0.496783 -0.0573815 0.0311577 -0.508711 -0.0638211 0.0292929 -0.520563 
-0.0695961 0.0273924 -0.532327 -0.0746985 0.0255754 -0.543957 -0.0791453 0.023952 -0.555372 
-0.0829752 0.0226112 -0.566463 -0.0862432 0.021612 -0.577101 -0.0890149 0.0209764 -0.58715 
-0.0913617 0.0206884 -0.596477 -0.0933551 0.0206964 -0.604962 -0.0950627 0.0209205 -0.612512 
-0.0965441 0.0212629 -0.619065 -0.0978492 0.021621 -0.624597 -0.0990167 0.0219004 -0.629122 
-0.100074 0.0220267 -0.632692 -0.101036 0.0219548 -0.635392 -0.10191 0.021674 -0.637333 
-0.102694 0.0212083 -0.638644 -0.103381 0.0206122 -0.639461 -0.10396 0.0199626 -0.639921 
-0.104419 0.0193468 -0.640148 -0.104747 0.0188507 -0.640248 -0.104934 0.0185458 -0.640301 
-0.104973 0.0184797 -0.640356 
LINES 2 100
OFFSETS vtktypeint64
0 100 
CONNECTIVITY vtktypeint64
0 1 2 3 4 5 6 7 8 
9 10 11 12 13 14 15 16 17 
18 19 20 21 22 23 24 25 26 
27 28 29 30 31 32 33 34 35 
36 37 38 39 40 41 42 43 44 
45 46 47 48 49 50 51 52 53 
54 55 56 57 58 59 60 61 62 
63 64 65 66 67 68 69 70 71 
72 73 74 75 76 77 78 79 80 
81 82 83 84 85 86 87 88 89 
90 91 92 93 94 95 96 97 98 
99 
POINT_DATA 100
FIELD FieldData 3
_theta 1 100 double
0 0.031733259127 0.063466518254 0.095199777382 0.12693303651 0.15866629564 0.19039955476 0.22213281389 0.25386607302 
0.28559933214 0.31733259127 0.3490658504 0.38079910953 0.41253236865 0.44426562778 0.47599888691 0.50773214603 0.53946540516 
0.57119866429 0.60293192342 0.63466518254 0.66639844167 0.6981317008 0.72986495992 0.76159821905 0.79333147818 0.82506473731 
0.85679799643 0.88853125556 0.92026451469 0.95199777382 0.98373103294 1.0154642921 1.0471975512 1.0789308103 1.1106640695 
1.1423973286 1.1741305877 1.2058638468 1.237597106 1.2693303651 1.3010636242 1.3327968833 1.3645301425 1.3962634016 
1.4279966607 1.4597299198 1.491463179 1.5231964381 1.5549296972 1.5866629564 1.6183962155 1.6501294746 1.6818627337 
1.7135959929 1.745329252 1.7770625111 1.8087957702 1.8405290294 1.8722622885 1.9039955476 1.9357288068 1.9674620659 
1.999195325 2.0309285841 2.0626618433 2.0943951024 2.1261283615 2.1578616206 2.1895948798 2.2213281389 2.253061398 
2.2847946572 2.3165279163 2.3482611754 2.3799944345 2.4117276937 2.4434609528 2.4751942119 2.506927471 2.5386607302 
2.5703939893 2.6021272484 2.6338605076 2.6655937667 2.6973270258 2.7290602849 2.7607935441 2.7925268032 2.8242600623 
2.8559933214 2.8877265806 2.9194598397 2.9511930988 2.982926358 3.0146596171 3.0463928762 3.0781261353 3.1098593945 
3.1415926536 
_radius 1 100 double
1.1121512301e-15 0.016966038222 0.033694756926 0.049959921373 0.065562454893 0.080340375406 0.09417486185 0.10699198264 0.11876011326 
0.12948352085 0.13919298699 0.14793469226 0.15575889346 0.16271011804 0.16882053764 0.17410773979 0.17857732341 0.18222981103 
0.18507057042 0.18712091762 0.18842832901 0.1890736657 0.18917351709 0.18887627547 0.18835143291 0.18777284657 0.18729822428 
0.18704852018 0.18709173963 0.18743518374 0.18802815674 0.18877429223 0.18955034917 0.1902275378 0.1906918373 0.19086063701 
0.19069410953 0.19020080533 0.18943780461 0.18850644116 0.18754513881 0.18672081958 0.18621927496 0.18623334742 0.18694697265 
0.18851402585 0.19103348497 0.19452570125 0.19891686232 0.20403820455 0.20964256448 0.2154352436 0.22111203829 0.22639643463 
0.23106972764 0.23499050377 0.2381023394 0.24043033211 0.24206823354 0.24315865208 0.24386921762 0.2443678717 0.24480050778 
0.24527377807 0.24584482585 0.24651828855 0.24724977397 0.24795448284 0.24851956049 0.2488187845 0.24872814607 0.2481406861 
0.2469786628 0.24520104171 0.2428047642 0.2398193565 0.23629589154 0.23229260097 0.22786009843 0.22302902638 0.21780212136 
0.21215159078 0.20602169809 0.19933575881 0.19200633115 0.18394712048 0.17508494705 0.16537010617 0.15478367962 0.14334086261 
0.13109005196 0.11810811508 0.10449277354 0.090353329012 0.075801063479 0.060940612961 0.045863466404 0.030644463181 0.015341736327 
7.3384560278e-16 
_area 1 100 double
0 0.00069771491283 0.0027552902343 0.0060693725886 0.010478433299 0.015777330625 0.021734840558 0.028111721692 0.034676790681 
0.041218922184 0.047553913335 0.053526548832 0.059009468622 0.063901047613 0.068124181329 0.071626688826 0.07438230289 0.076389715533 
0.077667611098 0.078247735305 0.078173422335 0.077509939069 0.076362573625 0.074887027559 0.073278762764 0.071752749706 0.070530954509 
0.069814631794 0.069729742713 0.070291781557 0.07142192826 0.072990528614 0.074855893204 0.07689366296 0.079030903008 0.081274179511 
0.08365530636 0.086121048902 0.088542084486 0.09078059579 0.092733745636 0.094369400317 0.095756997754 0.097090523802 0.098698359154 
0.10093224354 0.10396752786 0.1079145132 0.11285522683 0.11877134053 0.12549286537 0.13269727091 0.13996976782 0.14689315137 
0.1531228414 0.15842476701 0.16267657511 0.16584704528 0.16797338437 0.16914817139 0.16951315266 0.16924753373 0.16854184135 
0.1675689891 0.16647295511 0.16536470177 0.16430539931 0.16328533175 0.16221552162 0.16093665891 0.15924586746 0.15694196968 
0.15388006774 0.15001610431 0.1454235225 0.14027334222 0.13477949772 0.12912551216 0.12340576134 0.11761328365 0.11167321944 
0.1054917658 0.09899483915 0.092148820755 0.084965779553 0.077497544695 0.069823061881 0.062034206033 0.054226070072 0.046496103354 
0.038950599196 0.031711127073 0.024914106398 0.018702621211 0.013214337885 0.0085702882959 0.0048676653128 0.0021775195644 0.00054640817979 
1.9949319974e-17 
