# vtk DataFile Version 5.1
vtk output
ASCII
DATASET POLYDATA
POINTS 100 float
-0.0975861 -0.0535976 0.835757 -0.0977546 -0.0534804 0.835811 -0.0982837 -0.0528839 0.835947 
-0.0991039 -0.0517975 0.836048 -0.100106 -0.0502084 0.835934 -0.10115 -0.0481054 0.835384 
-0.102079 -0.045483 0.834155 -0.102732 -0.0423451 0.832017 -0.102954 -0.0387082 0.828767 
-0.10261 -0.0346024 0.824257 -0.101587 -0.0300713 0.818402 -0.0998041 -0.0251698 0.811184 
-0.0972115 -0.0199603 0.802649 -0.0937862 -0.0145081 0.792892 -0.0895295 -0.00887661 0.782042 
-0.0844613 -0.003123 0.770242 -0.0786138 0.00270452 0.757622 -0.0720274 0.00856782 0.744288 
-0.0647478 0.0144378 0.730305 -0.0568241 0.0202911 0.715692 -0.0483106 0.0261058 0.700424 
-0.0392679 0.0318558 0.684439 -0.0297665 0.0375054 0.667652 -0.0198886 0.0430054 0.649973 
-0.00972948 0.0482909 0.631322 0.000603587 0.0532816 0.61165 0.0109944 0.0578854 0.590941 
0.0213236 0.0620043 0.569226 0.0314756 0.0655425 0.546577 0.0413471 0.0684161 0.523097 
0.0508547 0.0705623 0.49891 0.0599413 0.071947 0.47414 0.0685792 0.0725708 0.448897 
0.0767704 0.0724703 0.423257 0.0845419 0.0717166 0.397257 0.0919376 0.0704089 0.370879 
0.0990073 0.0686655 0.344066 0.105793 0.0666122 0.316718 0.112317 0.0643697 0.288717 
0.118569 0.0620417 0.259945 0.124497 0.0597057 0.230304 0.130009 0.0574069 0.199737 
0.134969 0.0551567 0.168248 0.139209 0.0529358 0.135911 0.142543 0.0507021 0.102874 
0.14478 0.0484014 0.0693534 0.14575 0.0459805 0.0356208 0.145316 0.0434006 0.0019846 
0.143393 0.0406485 -0.0312344 0.13996 0.0377449 -0.0637284 0.135065 0.0347486 -0.0952261 
0.128822 0.0317542 -0.125513 0.121402 0.0288859 -0.154447 0.113023 0.0262855 -0.18196 
0.103922 0.0240983 -0.208063 0.0943438 0.0224563 -0.232833 0.0845133 0.0214635 -0.2564 
0.0746211 0.0211821 -0.278928 0.0648101 0.0216247 -0.300598 0.055169 0.0227508 -0.321584 
0.0457325 0.0244695 -0.342044 0.0364889 0.0266489 -0.362101 0.0273919 0.0291292 -0.381844 
0.0183766 0.0317391 -0.401321 0.0093766 0.0343141 -0.420548 0.00033908 0.0367132 -0.439516 
-0.00876236 0.0388324 -0.458195 -0.0179208 0.0406144 -0.476551 -0.0270944 0.042051 -0.49455 
-0.0362117 0.0431815 -0.512164 -0.0451803 0.0440837 -0.529372 -0.053901 0.0448615 -0.546162 
-0.0622818 0.0456293 -0.562526 -0.0702515 0.0464961 -0.578455 -0.0777705 0.0475504 -0.59393 
-0.0848362 0.0488487 -0.608924 -0.0914835 0.0504088 -0.623391 -0.0977784 0.0522072 -0.637272 
-0.103807 0.0541837 -0.650495 -0.10966 0.0562489 -0.662982 -0.115419 0.0582965 -0.674656 
-0.121139 0.0602165 -0.685448 -0.126835 0.061909 -0.69531 -0.132479 0.0632955 -0.704217 
-0.137998 0.0643276 -0.712177 -0.143277 0.0649912 -0.719224 -0.148178 0.0653057 -0.725422 
-0.152551 0.06532 -0.730855 -0.156259 0.0651038 -0.735619 -0.159193 0.0647382 -0.739814 
-0.161293 0.0643043 -0.743531 -0.162556 0.063874 -0.746844 -0.163043 0.0635021 -0.749806 
-0.162874 0.0632227 -0.752443 -0.162219 0.0630475 -0.754759 -0.161278 0.0629694 -0.756736 
-0.160261 0.0629677 -0.758342 -0.159364 0.0630149 -0.759541 -0.158745 0.0630846 -0.7603 
-0.158507 0.0631574 -0.760594 
LINES 2 100
OFFSETS vtktypeint64
0 100 
CONNECTIVITY vtktypeint64
0 1 2 3 4 5 6 7 8 
9 10 11 12 13 14 15 16 17 
18 19 20 21 22 23 24 25 26 
27 28 29 30 31 32 33 34 35 
36 37 38 39 40 41 42 43 44 
45 46 47 48 49 50 51 52 53 
54 55 56 57 58 59 60 61 62 
63 64 65 66 67 68 69 70 71 
72 73 74 75 76 77 78 79 80 
81 82 83 84 85 86 87 88 89 
90 91 92 93 94 95 96 97 98 
99 
POINT_DATA 100
FIELD FieldData 3
_theta 1 100 double
0 0.031733259127 0.063466518254 0.095199777382 0.12693303651 0.15866629564 0.19039955476 0.22213281389 0.25386607302 
0.28559933214 0.31733259127 0.3490658504 0.38079910953 0.41253236865 0.44426562778 0.47599888691 0.50773214603 0.53946540516 
0.57119866429 0.60293192342 0.63466518254 0.66639844167 0.6981317008 0.72986495992 0.76159821905 0.79333147818 0.82506473731 
0.85679799643 0.88853125556 0.92026451469 0.95199777382 0.98373103294 1.0154642921 1.0471975512 1.0789308103 1.1106640695 
1.1423973286 1.1741305877 1.2058638468 1.237597106 1.2693303651 1.3010636242 1.3327968833 1.3645301425 1.3962634016 
1.4279966607 1.4597299198 1.491463179 1.5231964381 1.5549296972 1.5866629564 1.6183962155 1.6501294746 1.6818627337 
1.7135959929 1.745329252 1.7770625111 1.8087957702 1.8405290294 1.8722622885 1.9039955476 1.9357288068 1.9674620659 
1.999195325 2.0309285841 2.0626618433 2.0943951024 2.1261283615 2.1578616206 2.1895948798 2.2213281389 2.253061398 
2.2847946572 2.3165279163 2.3482611754 2.3799944345 2.4117276937 2.4434609528 2.4751942119 2.506927471 2.5386607302 
2.5703939893 2.6021272484 2.6338605076 2.6655937667 2.6973270258 2.7290602849 2.7607935441 2.7925268032 2.8242600623 
2.8559933214 2.8877265806 2.9194598397 2.9511930988 2.982926358 3.0146596171 3.0463928762 3.0781261353 3.1098593945 
3.1415926536 
_radius 1 100 double
2.5143319277e-16 0.016151367566 0.03213005074 0.047765310931 0.062908796836 0.077441397924 0.091275469284 0.10435238875 0.1166362729 
0.12810532568 0.1387426038 0.14852793451 0.15743238113 0.16541614818 0.1724302845 0.17842206213 0.18334349178 0.18716204605 
0.18987227075 0.19150660741 0.19214352976 0.1919111521 0.19098489088 0.18957854705 0.18792923389 0.18627777363 0.18484732317 
0.18382362821 0.18333981512 0.18346689492 0.18420925886 0.18550392172 0.18722353809 0.18918498214 0.19116541882 0.19292564754 
0.19423786983 0.19491369677 0.19482819287 0.1939365081 0.19228102277 0.18998883989 0.18726141297 0.18435919491 0.18158377458 
0.17925833131 0.17770545363 0.17722043456 0.17803889149 0.18030094322 0.18401994878 0.18906792569 0.19518645333 0.20202147882 
0.20917123134 0.21623486767 0.22285370876 0.22874176913 0.23370507328 0.23765023978 0.24058305214 0.242597926 0.24385957294 
0.2445787633 0.24498480284 0.24529795459 0.24570523151 0.24634244098 0.24728402355 0.2485405041 0.25006198934 0.25174566509 
0.25344566816 0.25498449341 0.25616562992 0.25678713693 0.25665553436 0.25559900938 0.25347873524 0.2501971023 0.24570185738 
0.23998553159 0.23308011666 0.22504769831 0.21596857873 0.20592912281 0.19501180352 0.18328935183 0.17082354844 0.15766764457 
0.14387049559 0.1294805888 0.11454891681 0.099130491361 0.083284802366 0.067075646717 0.050570641019 0.033840581672 0.016958721713 
6.4613950324e-16 
_area 1 100 double
0 0.00072227621491 0.0028490470677 0.006268310486 0.010817303742 0.016308133457 0.022548004919 0.029348084168 0.036521669588 
0.043877061257 0.051211239251 0.05830871419 0.064947436503 0.070911081507 0.076004872995 0.080071121871 0.083001355261 0.084744065727 
0.085309506694 0.084773671614 0.083281152593 0.08104233525 0.078320801938 0.075415764928 0.072643262533 0.070341466858 0.068636554182 
0.067571688452 0.06726538542 0.067833731901 0.069271149103 0.071517393185 0.074448148772 0.077871969854 0.081537477814 0.085169110946 
0.088557841544 0.091641644645 0.094267127664 0.096110968431 0.096936641575 0.096709809994 0.095587664829 0.093872276726 0.09194791453 
0.090223948868 0.089098975453 0.088942098446 0.090065457831 0.092688428931 0.096924945359 0.10276783816 0.11005096434 0.1184353026 
0.12744641633 0.13653883649 0.14516240792 0.15282453193 0.15914519645 0.16389796708 0.16703009318 0.16865702539 0.16902697785 
0.16845784081 0.16727457078 0.16577921803 0.16424195736 0.16288670844 0.16186891799 0.16125688323 0.16102574146 0.16106619638 
0.16120406139 0.1612241894 0.1608930801 0.15997689715 0.15825484993 0.15553110177 0.15164972367 0.1465148901 0.14011286337 
0.13252661564 0.12393277464 0.11457623491 0.10472775681 0.094638584472 0.084508535382 0.074478301144 0.064645430334 0.055092698569 
0.045913353573 0.037222318632 0.029152224634 0.021840987385 0.015419175061 0.010001887321 0.0056853403033 0.002545888736 0.00063936291513 
6.4088095785e-17 
