# vtk DataFile Version 5.1
vtk output
ASCII
DATASET POLYDATA
POINTS 100 float
-0.00501259 -0.0385209 0.698653 -0.00511752 -0.0385835 0.698831 -0.00541751 -0.0385397 0.69928 
-0.00590755 -0.0383246 0.699908 -0.00657639 -0.03784 0.700567 -0.00740293 -0.0369684 0.701072 
-0.00835212 -0.0355895 0.701215 -0.00937121 -0.0335974 0.700784 -0.010387 -0.0309154 0.69958 
-0.0113049 -0.0275079 0.697434 -0.0120102 -0.0233862 0.694216 -0.0123718 -0.0186084 0.689841 
-0.0122485 -0.0132729 0.684274 -0.0114967 -0.0075079 0.677523 -0.00997959 -0.00145625 0.669629 
-0.00757716 0.00473987 0.660658 -0.00419475 0.0109536 0.65069 0.000229318 0.017085 0.639799 
0.00571867 0.0230672 0.628052 0.0122566 0.0288676 0.615495 0.0197868 0.034483 0.602154 
0.0282173 0.0399298 0.58803 0.0374264 0.045231 0.57311 0.0472715 0.050402 0.557367 
0.0575973 0.0554372 0.540773 0.0682461 0.0603007 0.523307 0.0790654 0.0649209 0.504959 
0.0899148 0.0691919 0.485741 0.100671 0.0729808 0.465686 0.111231 0.0761403 0.444847 
0.121508 0.0785257 0.423299 0.131434 0.0800126 0.401124 0.140956 0.0805149 0.378412 
0.150027 0.0799985 0.355248 0.158605 0.0784902 0.331706 0.166647 0.0760798 0.307844 
0.174107 0.0729148 0.283701 0.180933 0.069188 0.259296 0.187067 0.0651198 0.234634 
0.192447 0.0609373 0.209708 0.197007 0.056852 0.184507 0.200682 0.0530398 0.159026 
0.203412 0.0496252 0.13327 0.205145 0.0466718 0.107264 0.20584 0.0441799 0.0810544 
0.20547 0.042092 0.0547095 0.204024 0.0403047 0.0283202 0.201509 0.038686 0.00199382 
0.197946 0.037095 -0.0241514 0.193375 0.0354021 -0.0499943 0.18785 0.0335068 -0.0754188 
0.181439 0.0313507 -0.100321 0.174221 0.0289248 -0.124616 0.166286 0.0262698 -0.148238 
0.157729 0.0234701 -0.171149 0.148654 0.0206421 -0.19333 0.139165 0.017919 -0.214783 
0.129368 0.0154341 -0.235525 0.119364 0.013305 -0.255583 0.109249 0.0116203 -0.274992 
0.0991091 0.0104315 -0.293784 0.089016 0.0097495 -0.311993 0.0790263 0.0095473 -0.329646 
0.0691782 0.0097672 -0.346768 0.059491 0.0103315 -0.36338 0.0499653 0.0111548 -0.379501 
0.0405856 0.0121569 -0.395152 0.0313236 0.0132719 -0.410353 0.0221432 0.0144561 -0.42513 
0.0130065 0.0156895 -0.439507 0.00387982 0.0169742 -0.453514 -0.00525985 0.0183284 -0.467176 
-0.0144201 0.0197773 -0.480515 -0.0235895 0.0213436 -0.493543 -0.0327355 0.0230382 -0.506265 
-0.0418061 0.0248524 -0.518667 -0.0507318 0.0267547 -0.530726 -0.0594314 0.0286911 -0.542403 
-0.0678181 0.0305894 -0.553648 -0.0758073 0.0323676 -0.564404 -0.0833237 0.0339443 -0.574613 
-0.0903079 0.03525 -0.584218 -0.0967214 0.0362373 -0.593171 -0.10255 0.0368889 -0.601437 
-0.107802 0.0372211 -0.608997 -0.11251 0.0372832 -0.615849 -0.11672 0.0371522 -0.622007 
-0.120493 0.036923 -0.627504 -0.12389 0.0366966 -0.632378 -0.12697 0.0365669 -0.63668 
-0.129782 0.0366079 -0.640459 -0.132359 0.036864 -0.643762 -0.134717 0.0373443 -0.646632 
-0.136852 0.0380211 -0.649101 -0.138746 0.0388345 -0.651191 -0.140367 0.0397007 -0.652917 
-0.141678 0.0405238 -0.654281 -0.142641 0.0412097 -0.655284 -0.143224 0.0416791 -0.655922 
-0.143405 0.0418792 -0.656189 
LINES 2 100
OFFSETS vtktypeint64
0 100 
CONNECTIVITY vtktypeint64
0 1 2 3 4 5 6 7 8 
9 10 11 12 13 14 15 16 17 
18 19 20 21 22 23 24 25 26 
27 28 29 30 31 32 33 34 35 
36 37 38 39 40 41 42 43 44 
45 46 47 48 49 50 51 52 53 
54 55 56 57 58 59 60 61 62 
63 64 65 66 67 68 69 70 71 
72 73 74 75 76 77 78 79 80 
81 82 83 84 85 86 87 88 89 
90 91 92 93 94 95 96 97 98 
99 
POINT_DATA 100
FIELD FieldData 3
_theta 1 100 double
0 0.031733259127 0.063466518254 0.095199777382 0.12693303651 0.15866629564 0.19039955476 0.22213281389 0.25386607302 
0.28559933214 0.31733259127 0.3490658504 0.38079910953 0.41253236865 0.44426562778 0.47599888691 0.50773214603 0.53946540516 
0.57119866429 0.60293192342 0.63466518254 0.66639844167 0.6981317008 0.72986495992 0.76159821905 0.79333147818 0.82506473731 
0.85679799643 0.88853125556 0.92026451469 0.95199777382 0.98373103294 1.0154642921 1.0471975512 1.0789308103 1.1106640695 
1.1423973286 1.1741305877 1.2058638468 1.237597106 1.2693303651 1.3010636242 1.3327968833 1.3645301425 1.3962634016 
1.4279966607 1.4597299198 1.491463179 1.5231964381 1.5549296972 1.5866629564 1.6183962155 1.6501294746 1.6818627337 
1.7135959929 1.745329252 1.7770625111 1.8087957702 1.8405290294 1.8722622885 1.9039955476 1.9357288068 1.9674620659 
1.999195325 2.0309285841 2.0626618433 2.0943951024 2.1261283615 2.1578616206 2.1895948798 2.2213281389 2.253061398 
2.2847946572 2.3165279163 2.3482611754 2.3799944345 2.4117276937 2.4434609528 2.4751942119 2.506927471 2.5386607302 
2.5703939893 2.6021272484 2.6338605076 2.6655937667 2.6973270258 2.7290602849 2.7607935441 2.7925268032 2.8242600623 
2.8559933214 2.8877265806 2.9194598397 2.9511930988 2.982926358 3.0146596171 3.0463928762 3.0781261353 3.1098593945 
3.1415926536 
_radius 1 100 double
5.5680300113e-17 0.013450252911 0.02699621279 0.040701428516 0.054590187266 0.068632067749 0.082732039628 0.096728539653 0.11040088883 
0.12348567982 0.13570002289 0.14676835029 0.15644908531 0.16455783625 0.17098466006 0.17570406493 0.17877748748 0.18034873084 
0.18063314929 0.17990127292 0.1784573791 0.17661371111 0.17466203979 0.17284600656 0.17133927461 0.1702344873 0.16954558333 
0.16922208878 0.16917076451 0.1692790582 0.16943619255 0.16955009385 0.16956006778 0.16944525062 0.16922779271 0.16896886201 
0.16875664768 0.1686891697 0.1688576956 0.16933449233 0.17016391008 0.17135512846 0.17287815214 0.17466661195 0.17662939654 
0.17866960778 0.18070625944 0.18269309258 0.18462988997 0.18656379554 0.1885804915 0.19078719714 0.19329108208 0.19617756149 
0.19949279443 0.20323349091 0.20734520334 0.21172831946 0.21624964928 0.22075707605 0.22509502255 0.22911904374 0.23270835165 
0.23577538211 0.23827168163 0.24018955256 0.24155916353 0.24244126147 0.24291616948 0.24307030611 0.24298187492 0.2427075461 
0.24227184895 0.24166063927 0.24081946445 0.23965701256 0.23805319999 0.23587089992 0.23296988325 0.22922127464 0.22452076228 
0.21879896971 0.21202777866 0.2042219111 0.19543564258 0.18575506393 0.17528683131 0.1641448819 0.1524371164 0.14025435725 
0.12766365505 0.11470707618 0.10140576418 0.087767916076 0.073798729794 0.059510304614 0.044929686098 0.030103623033 0.015099166521 
1.0933276852e-15 
_area 1 100 double
0 0.00053668441408 0.0021560015661 0.0048783837321 0.0087152481856 0.013641861903 0.019572342524 0.026345952041 0.033729875154 
0.041437582943 0.049156667022 0.056577937143 0.063419154253 0.069440694718 0.074454420145 0.078329221118 0.080996496878 0.082456707514 
0.082785209477 0.082133352542 0.080720606474 0.078814268417 0.076692670784 0.074645423157 0.073069576808 0.071801746311 0.070791165542 
0.070037615214 0.069593999385 0.069557138395 0.070017800385 0.071016041898 0.072349283857 0.073792677246 0.075141391321 0.076229599276 
0.076961204129 0.077357271152 0.077580838802 0.077889078541 0.078585663584 0.080017466748 0.082429889435 0.085683231698 0.089677740006 
0.094759462573 0.099426250043 0.10319971088 0.10595684749 0.10773836707 0.10871514365 0.10917327484 0.10950511917 0.11017673715 
0.11163382638 0.11416538469 0.11783593074 0.12249929155 0.12781721476 0.13333057404 0.13858791775 0.14323362436 0.14703613394 
0.14989417859 0.15185029101 0.15305962852 0.15354556134 0.15329118144 0.15238471396 0.15097727757 0.14924012424 0.14732625564 
0.14533479797 0.1432867205 0.14112439381 0.13873149041 0.13595781461 0.13264101235 0.12862632741 0.12378717295 0.11804651564 
0.11139568725 0.10390541971 0.095724510832 0.0870642001 0.078170058844 0.069286924428 0.060625136799 0.052337017464 0.044510238324 
0.037179454255 0.030351157674 0.024032341508 0.018253403299 0.013079222419 0.0086071333458 0.0049544459678 0.0022402010339 0.00056602884241 
3.9458386647e-17 
