# vtk DataFile Version 5.1
vtk output
ASCII
DATASET POLYDATA
POINTS 100 float
-0.244332 -0.0749251 0.775341 -0.243989 -0.0750339 0.775192 -0.243018 -0.0751738 0.77475 
-0.241415 -0.075314 0.773922 -0.239173 -0.0754045 0.772568 -0.236287 -0.0753767 0.770523 
-0.23275 -0.0751452 0.767616 -0.228556 -0.07461 0.763701 -0.223702 -0.0736605 0.758677 
-0.218186 -0.072181 0.752505 -0.212011 -0.0700573 0.745213 -0.20518 -0.0671851 0.7369 
-0.197699 -0.0634785 0.727718 -0.189576 -0.0588788 0.717859 -0.180821 -0.0533623 0.707525 
-0.171446 -0.0469458 0.696903 -0.161467 -0.03969 0.686139 -0.150909 -0.0316998 0.675315 
-0.1398 -0.02312 0.664437 -0.128181 -0.0141289 0.653432 -0.116105 -0.0049281 0.642151 
-0.103637 0.00426971 0.630386 -0.0908541 0.0132539 0.617898 -0.0778422 0.0218289 0.604438 
-0.0646946 0.0298259 0.58978 -0.0515049 0.0371118 0.573748 -0.0383614 0.0435951 0.556236 
-0.02534 0.0492272 0.537221 -0.0124991 0.0540009 0.516764 0.000125778 0.0579444 0.495004 
0.0125232 0.0611132 0.472141 0.0247056 0.06358 0.448412 0.0367041 0.0654247 0.424067 
0.0485618 0.0667249 0.399338 0.0603228 0.0675482 0.374415 0.0720203 0.0679478 0.349434 
0.0836639 0.0679606 0.324459 0.0952283 0.0676087 0.299486 0.106645 0.0669036 0.274452 
0.117795 0.0658518 0.249249 0.128515 0.064462 0.223744 0.138595 0.0627511 0.197807 
0.147797 0.0607498 0.171329 0.155868 0.0585051 0.144244 0.162558 0.0560806 0.116542 
0.167645 0.0535543 0.0882742 0.17095 0.0510131 0.0595536 0.172359 0.0485457 0.0305428 
0.171832 0.0462351 0.00144148 0.169411 0.04415 -0.0275331 0.165218 0.0423386 -0.0561654 
0.159446 0.0408239 -0.0842598 0.152346 0.0396019 -0.111656 0.144202 0.0386425 -0.138237 
0.135316 0.0378947 -0.163935 0.125975 0.0372926 -0.188728 0.116439 0.0367643 -0.212634 
0.106914 0.0362416 -0.235699 0.0975473 0.0356678 -0.257984 0.0884213 0.0350059 -0.279555 
0.0795539 0.034243 -0.300472 0.0709101 0.0333919 -0.320781 0.0624156 0.0324903 -0.34051 
0.0539748 0.0315962 -0.359674 0.0454897 0.0307808 -0.378273 0.0368772 0.0301205 -0.396304 
0.0280835 0.0296877 -0.413763 0.0190932 0.0295421 -0.430658 0.00993256 0.0297242 -0.447005 
0.000667188 0.0302499 -0.462841 -0.00860605 0.0311091 -0.478212 -0.0177706 0.0322662 -0.493176 
-0.0267043 0.0336638 -0.507796 -0.0352929 0.0352287 -0.522126 -0.0434429 0.0368791 -0.536213 
-0.0510897 0.0385322 -0.550082 -0.058202 0.040112 -0.563737 -0.0647808 0.0415554 -0.577157 
-0.0708544 0.0428172 -0.5903 -0.0764691 0.0438718 -0.60311 -0.0816782 0.0447145 -0.615522 
-0.0865305 0.0453585 -0.627471 -0.09106 0.0458322 -0.638901 -0.0952789 0.0461741 -0.649774 
-0.0991749 0.0464279 -0.660068 -0.102712 0.046637 -0.669786 -0.105838 0.0468404 -0.678945 
-0.108492 0.0470692 -0.687576 -0.110618 0.0473445 -0.695713 -0.112176 0.0476765 -0.703385 
-0.113153 0.0480651 -0.710606 -0.113569 0.048501 -0.717369 -0.113486 0.0489681 -0.723641 
-0.112997 0.0494456 -0.729365 -0.112227 0.0499105 -0.734461 -0.111319 0.0503399 -0.738835 
-0.110419 0.0507128 -0.742385 -0.109663 0.0510118 -0.745019 -0.109159 0.0512235 -0.746659 
-0.108977 0.0513401 -0.747253 
LINES 2 100
OFFSETS vtktypeint64
0 100 
CONNECTIVITY vtktypeint64
0 1 2 3 4 5 6 7 8 
9 10 11 12 13 14 15 16 17 
18 19 20 21 22 23 24 25 26 
27 28 29 30 31 32 33 34 35 
36 37 38 39 40 41 42 43 44 
45 46 47 48 49 50 51 52 53 
54 55 56 57 58 59 60 61 62 
63 64 65 66 67 68 69 70 71 
72 73 74 75 76 77 78 79 80 
81 82 83 84 85 86 87 88 89 
90 91 92 93 94 95 96 97 98 
99 
POINT_DATA 100
FIELD FieldData 3
_theta 1 100 double
0 0.031733259127 0.063466518254 0.095199777382 0.12693303651 0.15866629564 0.19039955476 0.22213281389 0.25386607302 
0.28559933214 0.31733259127 0.3490658504 0.38079910953 0.41253236865 0.44426562778 0.47599888691 0.50773214603 0.53946540516 
0.57119866429 0.60293192342 0.63466518254 0.66639844167 0.6981317008 0.72986495992 0.76159821905 0.79333147818 0.82506473731 
0.85679799643 0.88853125556 0.92026451469 0.95199777382 0.98373103294 1.0154642921 1.0471975512 1.0789308103 1.1106640695 
1.1423973286 1.1741305877 1.2058638468 1.237597106 1.2693303651 1.3010636242 1.3327968833 1.3645301425 1.3962634016 
1.4279966607 1.4597299198 1.491463179 1.5231964381 1.5549296972 1.5866629564 1.6183962155 1.6501294746 1.6818627337 
1.7135959929 1.745329252 1.7770625111 1.8087957702 1.8405290294 1.8722622885 1.9039955476 1.9357288068 1.9674620659 
1.999195325 2.0309285841 2.0626618433 2.0943951024 2.1261283615 2.1578616206 2.1895948798 2.2213281389 2.253061398 
2.2847946572 2.3165279163 2.3482611754 2.3799944345 2.4117276937 2.4434609528 2.4751942119 2.506927471 2.5386607302 
2.5703939893 2.6021272484 2.6338605076 2.6655937667 2.6973270258 2.7290602849 2.7607935441 2.7925268032 2.8242600623 
2.8559933214 2.8877265806 2.9194598397 2.9511930988 2.982926358 3.0146596171 3.0463928762 3.0781261353 3.1098593945 
3.1415926536 
_radius 1 100 double
7.6226836759e-16 0.01733021841 0.034321412065 0.050661171228 0.066092108428 0.08043162393 0.093583156621 0.10553745504 0.11636350167 
0.12618996485 0.13517934631 0.14349821923 0.15128790541 0.15864030727 0.16558306582 0.17207666614 0.1780238745 0.18328960339 
0.18772758651 0.19120942189 0.19365155518 0.19503636083 0.19542437463 0.19495580626 0.1938407039 0.19233854684 0.19072952358 
0.18928115786 0.18821506831 0.18767921957 0.18773067757 0.18833227533 0.18936380685 0.19064527329 0.19196753004 0.19312494072 
0.19394501308 0.19431127953 0.19417786916 0.19357619536 0.19261411595 0.19146626259 0.19035431457 0.18951963503 0.18919489793 
0.18958120748 0.19083246386 0.19304455314 0.19624698485 0.20039725046 0.20538025256 0.21101528622 0.2170715395 0.22329087432 
0.2294147538 0.23521121958 0.24049786422 0.24515753668 0.24914478028 0.25248250688 0.25524990992 0.25756384633 0.25955667954 
0.26135382376 0.26305401069 0.26471469535 0.26634412356 0.26790054128 0.26929801901 0.27041755912 0.27112163295 0.27127005675 
0.27073512989 0.26941419951 0.26723825873 0.26417577595 0.26023160908 0.25544148813 0.24986308946 0.24356514563 0.23661631403 
0.22907559504 0.22098583416 0.21237119055 0.20323850358 0.19358153001 0.18338641755 0.17263675619 0.16131708483 0.14941457719 
0.13691944781 0.12382512911 0.11012935914 0.095837005348 0.080964813953 0.065547438518 0.04964328347 0.033338216205 0.016745353882 
3.0148757396e-16 
_area 1 100 double
0 0.00068442094107 0.0027035013397 0.0059554835177 0.01027534682 0.015446598705 0.021222638379 0.027355367504 0.033624838468 
0.03986259675 0.045963101234 0.051880814288 0.057613618783 0.063175389728 0.068562602651 0.073723019476 0.078537213645 0.082821673195 
0.086354711421 0.088918405151 0.09034562205 0.090561223093 0.089609404075 0.087664216238 0.085029132903 0.082245290496 0.079648797191 
0.077547213448 0.076198827121 0.075730531025 0.076137514111 0.077337466865 0.079163866854 0.081389536531 0.083762221686 0.086052876347 
0.088096420288 0.089724144932 0.090865677207 0.091507035862 0.091745531485 0.091901074361 0.093064458846 0.095491422412 0.098232571589 
0.10121256752 0.10448954018 0.10816547916 0.11234014071 0.11706614606 0.12232826402 0.12805062234 0.13410689958 0.1403332351 
0.14654907701 0.15258557294 0.15832595595 0.16372088471 0.16864070443 0.1728447496 0.17616189752 0.17854899441 0.1800710538 
0.18086439363 0.18110245746 0.18097132829 0.18066443914 0.18036533586 0.18005310723 0.17943854674 0.17825707167 0.17633215515 
0.17355563092 0.16988269224 0.16532683373 0.15995002917 0.15385016566 0.14714885643 0.1399800647 0.13247703602 0.12475641545 
0.11690326716 0.10896329091 0.10094613141 0.092839129227 0.084627229092 0.076312523036 0.067926880198 0.059534569558 0.051226936654 
0.043114187517 0.035318425546 0.027969010666 0.021199226172 0.015143520617 0.0099354373558 0.0057054213957 0.0025757686495 0.00065029018591 
5.5317805579e-17 
