# vtk DataFile Version 5.1
vtk output
ASCII
DATASET POLYDATA
POINTS 100 float
-0.150637 -0.0698701 0.681133 -0.150705 -0.0698672 0.681419 -0.150917 -0.0696481 0.682196 
-0.151221 -0.0691816 0.683338 -0.151536 -0.0684192 0.684651 -0.151765 -0.0672996 0.685894 
-0.1518 -0.0657538 0.6868 -0.151537 -0.0637118 0.687103 -0.150882 -0.0611084 0.686565 
-0.149757 -0.0578898 0.684994 -0.148105 -0.0540184 0.682258 -0.145884 -0.0494777 0.678294 
-0.143065 -0.0442741 0.673105 -0.139624 -0.0384383 0.666751 -0.13553 -0.0320241 0.659334 
-0.130745 -0.0251061 0.650979 -0.125213 -0.0177754 0.641815 -0.118865 -0.0101352 0.631952 
-0.111619 -0.00229545 0.621472 -0.103392 0.00563279 0.610412 -0.0941132 0.0135416 0.598766 
-0.0837358 0.0213304 0.586484 -0.0722548 0.028908 0.573484 -0.0597176 0.036194 0.559661 
-0.0462322 0.0431188 0.54491 -0.0319684 0.0496219 0.529133 -0.0171526 0.0556502 0.51226 
-0.00205455 0.0611555 0.494257 0.013031 0.0660924 0.475129 0.0278073 0.0704169 0.454923 
0.042 0.0740858 0.433721 0.0553793 0.0770577 0.411632 0.067779 0.0792951 0.388778 
0.0791069 0.0807674 0.365282 0.0893481 0.0814552 0.341255 0.0985582 0.0813542 0.316789 
0.106848 0.0804797 0.29195 0.114362 0.0788692 0.266777 0.121253 0.0765837 0.241286 
0.127654 0.0737076 0.215477 0.133655 0.0703458 0.189347 0.139284 0.0666192 0.162898 
0.144502 0.0626578 0.136148 0.149195 0.0585932 0.10914 0.153194 0.0545504 0.0819459 
0.156287 0.0506392 0.0546671 0.158248 0.0469479 0.0274309 0.158867 0.0435383 0.000382269 
0.157976 0.0404429 -0.0263269 0.155477 0.0376656 -0.0525496 0.151354 0.0351846 -0.0781557 
0.145688 0.0329583 -0.103042 0.138644 0.0309325 -0.12714 0.130466 0.0290488 -0.150417 
0.12145 0.0272536 -0.172878 0.111914 0.0255052 -0.19456 0.10217 0.0237801 -0.21552 
0.0924925 0.0220761 -0.23583 0.0830935 0.0204131 -0.255563 0.074105 0.0188303 -0.274785 
0.0655725 0.0173822 -0.293543 0.0574578 0.0161312 -0.311866 0.0496517 0.01514 -0.32976 
0.0419955 0.0144639 -0.34721 0.0343061 0.0141435 -0.364189 0.0264035 0.0141999 -0.380661 
0.0181362 0.0146315 -0.396594 0.00940103 0.0154144 -0.411966 0.000156127 0.0165043 -0.426769 
-0.00957526 0.0178421 -0.441018 -0.0197095 0.01936 -0.454749 -0.0301153 0.0209885 -0.468013 
-0.040631 0.0226641 -0.480875 -0.0510861 0.0243346 -0.493406 -0.0613208 0.0259634 -0.505667 
-0.0712036 0.0275311 -0.517708 -0.0806432 0.029034 -0.529555 -0.0895928 0.0304816 -0.541205 
-0.0980486 0.0318907 -0.552623 -0.106041 0.0332794 -0.563744 -0.11362 0.0346607 -0.574477 
-0.120843 0.0360369 -0.584712 -0.127754 0.0373961 -0.594329 -0.134376 0.0387099 -0.603209 
-0.140701 0.0399355 -0.611243 -0.146687 0.0410191 -0.618346 -0.152263 0.0419018 -0.624462 
-0.157341 0.0425275 -0.629566 -0.161826 0.0428508 -0.633674 -0.165637 0.0428443 -0.636834 
-0.168718 0.0425048 -0.639129 -0.171053 0.0418567 -0.640668 -0.17267 0.0409522 -0.641577 
-0.173643 0.0398684 -0.641997 -0.174088 0.0387017 -0.642067 -0.174147 0.0375587 -0.641922 
-0.173974 0.0365469 -0.641684 -0.173714 0.0357635 -0.641453 -0.173489 0.0352859 -0.641304 
-0.173378 0.0351638 -0.641285 
LINES 2 100
OFFSETS vtktypeint64
0 100 
CONNECTIVITY vtktypeint64
0 1 2 3 4 5 6 7 8 
9 10 11 12 13 14 15 16 17 
18 19 20 21 22 23 24 25 26 
27 28 29 30 31 32 33 34 35 
36 37 38 39 40 41 42 43 44 
45 46 47 48 49 50 51 52 53 
54 55 56 57 58 59 60 61 62 
63 64 65 66 67 68 69 70 71 
72 73 74 75 76 77 78 79 80 
81 82 83 84 85 86 87 88 89 
90 91 92 93 94 95 96 97 98 
99 
POINT_DATA 100
FIELD FieldData 3
_theta 1 100 double
0 0.031733259127 0.063466518254 0.095199777382 0.12693303651 0.15866629564 0.19039955476 0.22213281389 0.25386607302 
0.28559933214 0.31733259127 0.3490658504 0.38079910953 0.41253236865 0.44426562778 0.47599888691 0.50773214603 0.53946540516 
0.57119866429 0.60293192342 0.63466518254 0.66639844167 0.6981317008 0.72986495992 0.76159821905 0.79333147818 0.82506473731 
0.85679799643 0.88853125556 0.92026451469 0.95199777382 0.98373103294 1.0154642921 1.0471975512 1.0789308103 1.1106640695 
1.1423973286 1.1741305877 1.2058638468 1.237597106 1.2693303651 1.3010636242 1.3327968833 1.3645301425 1.3962634016 
1.4279966607 1.4597299198 1.491463179 1.5231964381 1.5549296972 1.5866629564 1.6183962155 1.6501294746 1.6818627337 
1.7135959929 1.745329252 1.7770625111 1.8087957702 1.8405290294 1.8722622885 1.9039955476 1.9357288068 1.9674620659 
1.999195325 2.0309285841 2.0626618433 2.0943951024 2.1261283615 2.1578616206 2.1895948798 2.2213281389 2.253061398 
2.2847946572 2.3165279163 2.3482611754 2.3799944345 2.4117276937 2.4434609528 2.4751942119 2.506927471 2.5386607302 
2.5703939893 2.6021272484 2.6338605076 2.6655937667 2.6973270258 2.7290602849 2.7607935441 2.7925268032 2.8242600623 
2.8559933214 2.8877265806 2.9194598397 2.9511930988 2.982926358 3.0146596171 3.0463928762 3.0781261353 3.1098593945 
3.1415926536 
_radius 1 100 double
1.484404409e-15 0.016425884672 0.032719957098 0.048753094415 0.064410781791 0.079596501153 0.094231403535 0.10825051598 0.12159654863 
0.13421290367 0.14603759813 0.15699949169 0.16701760749 0.17600367529 0.18386751012 0.19052454392 0.19590471595 0.1999619027 
0.20268304772 0.20409610532 0.20427586066 0.20334667557 0.20148128034 0.1988949329 0.19583464446 0.19256376273 0.18934298785 
0.18640975448 0.18395861031 0.18212545742 0.18097807082 0.1805141949 0.1806671132 0.18131745647 0.18230957804 0.18347110741 
0.18463460386 0.1856591827 0.18644800946 0.18695770632 0.18719861588 0.18722793462 0.18713939799 0.18705323858 0.1871084204 
0.18745628111 0.18825241091 0.18964362468 0.19174973165 0.19464397081 0.19833835225 0.20277857324 0.20784911098 0.21338592777 
0.21919340694 0.22506272771 0.2307897186 0.236190859 0.24111648259 0.24546043049 0.24916551824 0.25222433679 0.25467518596 
0.25659336073 0.25807854276 0.25923960745 0.26017862978 0.26097615484 0.26167981946 0.26229809536 0.26280016987 0.26312175517 
0.26317520577 0.26286136684 0.26208060241 0.26074137205 0.25876590332 0.2560933121 0.25268071126 0.24850260324 0.24354856881 
0.2378192693 0.23132112969 0.22406055703 0.21603886825 0.20724904561 0.19767499591 0.1872933365 0.17607713506 0.16400071497 
0.15104468549 0.13720066949 0.1224755729 0.10689545563 0.090509015712 0.073390427752 0.055640954179 0.037388577851 0.018785028132 
6.3974746533e-16 
_area 1 100 double
0 0.00068098564699 0.0026966377535 0.005968932509 0.010379391236 0.015781880678 0.022012994409 0.028896230981 0.036239682651 
0.043830969632 0.051435124716 0.05880005604 0.065671214212 0.071813833309 0.077038587724 0.081225075457 0.084337431478 0.086427661956 
0.087624072594 0.088101651457 0.088028516468 0.087499961981 0.086520401668 0.085068255 0.083179172124 0.080983972254 0.078693343624 
0.076543370539 0.074729924653 0.073372370231 0.072523828308 0.072202015629 0.072408560724 0.073135484525 0.074364051828 0.076027658795 
0.078041898037 0.080314897974 0.082859217897 0.085666565752 0.088481862085 0.091032438825 0.093143347679 0.094809646451 0.096222734876 
0.097718775008 0.099501624772 0.1016075429 0.10407738429 0.10699554972 0.11047238632 0.11461915459 0.11951703636 0.12518452189 
0.13154586418 0.13840809764 0.14546266649 0.15232127423 0.15857812368 0.1638786367 0.16797451263 0.17075336148 0.17224214945 
0.17259311223 0.17206967178 0.17113329435 0.17049606935 0.16999877733 0.16949063724 0.16888559901 0.1680836647 0.16696402858 
0.16540211432 0.16329232 0.16056661639 0.15720139739 0.1532098945 0.14862357294 0.14347099014 0.13776420117 0.13149902748 
0.12466762925 0.11727524912 0.10935241542 0.10095840651 0.092177088098 0.083109417181 0.073867344225 0.064571855551 0.055354544961 
0.046359554315 0.037742719833 0.029666801338 0.022293846605 0.015776771526 0.01025204966 0.0058345485599 0.002614613755 0.00065686997755 
4.0032495693e-17 
