# vtk DataFile Version 5.1
vtk output
ASCII
DATASET POLYDATA
POINTS 100 float
0.0197094 0.02083 0.657702 0.0196792 0.0208471 0.658477 0.019542 0.0210976 0.660656 
0.0192956 0.0215771 0.663999 0.0189384 0.0222785 0.668127 0.0184718 0.023193 0.672562 
0.0179025 0.024311 0.676769 0.0172458 0.0256237 0.680203 0.0165279 0.0271233 0.682358 
0.0157882 0.0288045 0.682803 0.01508 0.0306636 0.68122 0.0144705 0.0326991 0.677416 
0.0140391 0.0349103 0.671335 0.0138746 0.0372956 0.663046 0.0140706 0.0398514 0.652724 
0.0147204 0.0425695 0.640623 0.0159115 0.0454353 0.627044 0.0177192 0.0484262 0.612298 
0.0202014 0.0515105 0.59668 0.0233938 0.0546467 0.580442 0.0273072 0.0577841 0.563775 
0.0319255 0.060864 0.546808 0.0372067 0.0638223 0.529604 0.0430852 0.0665919 0.512171 
0.0494756 0.0691068 0.494479 0.0562787 0.071306 0.476476 0.0633871 0.0731369 0.458102 
0.0706919 0.0745595 0.439309 0.0780885 0.0755485 0.420065 0.0854811 0.0760959 0.400362 
0.0927861 0.0762111 0.380215 0.0999334 0.0759204 0.359654 0.106866 0.0752655 0.338714 
0.113536 0.0743003 0.317431 0.119905 0.0730872 0.295827 0.125935 0.0716923 0.273906 
0.131586 0.0701814 0.251651 0.136813 0.0686149 0.229027 0.141563 0.0670443 0.205988 
0.145773 0.0655091 0.182481 0.149373 0.0640344 0.158468 0.152286 0.062631 0.133928 
0.154439 0.0612952 0.108872 0.155762 0.0600108 0.0833468 0.156203 0.0587518 0.0574391 
0.155724 0.0574858 0.0312702 0.154315 0.0561773 0.0049886 0.151994 0.0547921 -0.021242 
0.148805 0.0533005 -0.0472569 0.14482 0.0516798 -0.0729047 0.140132 0.049917 -0.0980604 
0.134846 0.04801 -0.122635 0.129076 0.0459672 -0.146579 0.122932 0.0438078 -0.169885 
0.116512 0.04156 -0.192579 0.109895 0.0392597 -0.214714 0.103139 0.0369474 -0.236357 
0.0962749 0.0346673 -0.257574 0.0893112 0.032464 -0.27842 0.0822374 0.0303812 -0.298927 
0.0750308 0.0284601 -0.319102 0.0676647 0.0267382 -0.338922 0.0601174 0.0252483 -0.35834 
0.0523805 0.0240186 -0.377293 0.0444647 0.0230718 -0.395711 0.0364039 0.0224252 -0.413528 
0.0282556 0.0220908 -0.430693 0.0200978 0.022075 -0.44718 0.0120231 0.0223785 -0.462991 
0.00413059 0.0229958 -0.478157 -0.00348425 0.0239153 -0.492731 -0.0107389 0.0251188 -0.506784 
-0.0175726 0.0265816 -0.520393 -0.0239524 0.0282728 -0.533628 -0.0298764 0.0301555 -0.54654 
-0.035373 0.0321881 -0.559156 -0.0404963 0.0343254 -0.57147 -0.0453188 0.0365201 -0.583446 
-0.0499214 0.0387248 -0.595018 -0.0543819 0.0408939 -0.606099 -0.0587648 0.0429856 -0.616595 
-0.0631113 0.0449637 -0.626414 -0.0674338 0.0467986 -0.635478 -0.0717126 0.0484689 -0.643736 
-0.0758979 0.0499613 -0.651167 -0.0799152 0.0512706 -0.657785 -0.083674 0.0523993 -0.663637 
-0.0870795 0.0533559 -0.668795 -0.0900446 0.0541543 -0.673348 -0.0925015 0.0548114 -0.67739 
-0.0944115 0.055346 -0.681007 -0.095771 0.0557773 -0.68427 -0.0966135 0.0561235 -0.687227 
-0.0970075 0.0564007 -0.689897 -0.0970494 0.056623 -0.692274 -0.0968533 0.0568015 -0.694329 
-0.0965384 0.0569449 -0.696019 -0.0962155 0.0570595 -0.697295 -0.0959744 0.0571496 -0.698114 
-0.0958733 0.0572177 -0.698444 
LINES 2 100
OFFSETS vtktypeint64
0 100 
CONNECTIVITY vtktypeint64
0 1 2 3 4 5 6 7 8 
9 10 11 12 13 14 15 16 17 
18 19 20 21 22 23 24 25 26 
27 28 29 30 31 32 33 34 35 
36 37 38 39 40 41 42 43 44 
45 46 47 48 49 50 51 52 53 
54 55 56 57 58 59 60 61 62 
63 64 65 66 67 68 69 70 71 
72 73 74 75 76 77 78 79 80 
81 82 83 84 85 86 87 88 89 
90 91 92 93 94 95 96 97 98 
99 
POINT_DATA 100
FIELD FieldData 3
_theta 1 100 double
0 0.031733259127 0.063466518254 0.095199777382 0.12693303651 0.15866629564 0.19039955476 0.22213281389 0.25386607302 
0.28559933214 0.31733259127 0.3490658504 0.38079910953 0.41253236865 0.44426562778 0.47599888691 0.50773214603 0.53946540516 
0.57119866429 0.60293192342 0.63466518254 0.66639844167 0.6981317008 0.72986495992 0.76159821905 0.79333147818 0.82506473731 
0.85679799643 0.88853125556 0.92026451469 0.95199777382 0.98373103294 1.0154642921 1.0471975512 1.0789308103 1.1106640695 
1.1423973286 1.1741305877 1.2058638468 1.237597106 1.2693303651 1.3010636242 1.3327968833 1.3645301425 1.3962634016 
1.4279966607 1.4597299198 1.491463179 1.5231964381 1.5549296972 1.5866629564 1.6183962155 1.6501294746 1.6818627337 
1.7135959929 1.745329252 1.7770625111 1.8087957702 1.8405290294 1.8722622885 1.9039955476 1.9357288068 1.9674620659 
1.999195325 2.0309285841 2.0626618433 2.0943951024 2.1261283615 2.1578616206 2.1895948798 2.2213281389 2.253061398 
2.2847946572 2.3165279163 2.3482611754 2.3799944345 2.4117276937 2.4434609528 2.4751942119 2.506927471 2.5386607302 
2.5703939893 2.6021272484 2.6338605076 2.6655937667 2.6973270258 2.7290602849 2.7607935441 2.7925268032 2.8242600623 
2.8559933214 2.8877265806 2.9194598397 2.9511930988 2.982926358 3.0146596171 3.0463928762 3.0781261353 3.1098593945 
3.1415926536 
_radius 1 100 double
8.8939731077e-16 0.013404370025 0.026791907801 0.040122902777 0.053329129378 0.066308971195 0.078931907639 0.091052309422 0.10252955824 
0.11324919079 0.12313932614 0.13217814335 0.14039078591 0.147836843 0.15459184549 0.16072761071 0.16629650682 0.17132363705 
0.17580868081 0.17973624003 0.18309099535 0.18587271682 0.18810659872 0.18984620151 0.19116875862 0.19216495415 0.19292677309 
0.19353700679 0.19406223198 0.19454854249 0.19501796202 0.19546450968 0.19585150974 0.196113725 0.19616730817 0.19592740121 
0.1953296167 0.19434988805 0.19301774676 0.19141999466 0.1896939853 0.1880118802 0.18655912802 0.18551171133 0.1850168715 
0.18518063799 0.18606286882 0.18767794002 0.18999816172 0.19295784843 0.19645776721 0.2003710222 0.20455152908 0.20884527016 
0.21310323438 0.21719404614 0.22101411625 0.22449367136 0.22759795687 0.23032391763 0.23269345363 0.23474476314 0.23652330562 
0.23807364236 0.23943300426 0.24062703125 0.24166778849 0.24255387533 0.2432721647 0.24380043971 0.24411000825 0.24416742709 
0.24393488735 0.24336952194 0.24242247195 0.24103851783 0.23915649296 0.23671017714 0.23362938948 0.22984139793 0.22527308262 
0.2198542842 0.2135224795 0.20622851629 0.19794275373 0.18866068069 0.17840696707 0.16723698522 0.15523516221 0.142510069 
0.12918677048 0.11539743077 0.10127137773 0.086925840745 0.07245847633 0.057942572189 0.043425427304 0.028929894757 0.014458593295 
8.623258318e-16 
_area 1 100 double
0 0.00048849387259 0.0019761277345 0.0045203823674 0.0081848664489 0.012991679729 0.018873762183 0.025651707131 0.033044054179 
0.040703126633 0.048261581648 0.055376221777 0.061762016404 0.067216110767 0.071633802007 0.07501488136 0.0774537067 0.0791066705 
0.080141252256 0.080687549375 0.080819058903 0.080572868098 0.079993579204 0.079171820476 0.07825405163 0.077418332719 0.076830888376 
0.076610292995 0.076817972666 0.077471516835 0.078560949398 0.080045989437 0.081831955527 0.083761281475 0.085648825687 0.087334195972 
0.088724283943 0.089751180516 0.090395430039 0.090730008823 0.090908357723 0.091139440258 0.091658948055 0.092674297693 0.094280100534 
0.096434695464 0.099006145793 0.10192763386 0.10523074284 0.10889800748 0.11303719644 0.11755405323 0.12243083521 0.12758937444 
0.13287956761 0.1380948144 0.14300650189 0.14740418924 0.15112947143 0.15409615949 0.15629469297 0.15778286589 0.15866662824 
0.15907412168 0.15912568475 0.15890530915 0.15844396781 0.15772479674 0.15670896731 0.15536763875 0.1537021259 0.15174211406 
0.14952402069 0.14706269951 0.14433308347 0.1412709647 0.1377896843 0.13380110544 0.12923100446 0.12402825913 0.11817235916 
0.11167936139 0.10460101134 0.097014705118 0.089010915006 0.080688698767 0.072161899138 0.063566116687 0.055054239384 0.046779232544 
0.038876085574 0.031456515281 0.024616769218 0.018447179981 0.013035857286 0.0084674590572 0.0048200171985 0.0021610345215 0.0005431533353 
5.0291386602e-17 
