# vtk DataFile Version 5.1
vtk output
ASCII
DATASET POLYDATA
POINTS 100 float
-0.179711 -0.0316075 0.682193 -0.179577 -0.031567 0.682109 -0.179268 -0.0312352 0.681857 
-0.178744 -0.030612 0.681403 -0.17794 -0.0296976 0.680696 -0.17677 -0.0284913 0.679663 
-0.175133 -0.02699 0.678214 -0.172921 -0.0251873 0.676248 -0.170024 -0.0230731 0.673651 
-0.16634 -0.0206333 0.670306 -0.161783 -0.0178515 0.666098 -0.15629 -0.0147114 0.66092 
-0.14983 -0.0111991 0.654683 -0.142402 -0.00730767 0.647319 -0.134044 -0.00303999 0.638787 
-0.124827 0.00158749 0.629077 -0.114856 0.00654245 0.618209 -0.104262 0.0117755 0.606233 
-0.0931928 0.0172207 0.59322 -0.0818064 0.022797 0.579258 -0.0702584 0.0284124 0.564439 
-0.0586928 0.0339683 0.548855 -0.0472325 0.0393647 0.53258 -0.0359723 0.0445065 0.515668 
-0.0249749 0.0493083 0.498147 -0.0142696 0.0536988 0.480012 -0.00385509 0.0576238 0.461233 
0.00629496 0.0610476 0.441753 0.0162231 0.0639522 0.421504 0.0259777 0.0663353 0.400411 
0.0356017 0.0682071 0.37841 0.0451215 0.0695858 0.355456 0.0545374 0.0704935 0.331536 
0.0638173 0.0709518 0.306679 0.072893 0.0709793 0.280955 0.0816607 0.0705891 0.254481 
0.0899862 0.0697889 0.227413 0.0977123 0.068582 0.19994 0.104671 0.0669699 0.172272 
0.110695 0.0649555 0.144627 0.115634 0.0625472 0.11722 0.119362 0.0597623 0.0902426 
0.121796 0.0566305 0.0638623 0.122896 0.0531951 0.038207 0.122673 0.0495143 0.0133639 
0.121187 0.0456595 -0.0106217 0.118544 0.0417133 -0.0337431 0.114884 0.0377652 -0.0560266 
0.110377 0.0339078 -0.0775237 0.105205 0.0302309 -0.0983023 0.09955 0.0268179 -0.118438 
0.0935851 0.0237409 -0.138007 0.0874626 0.0210581 -0.157081 0.0813075 0.0188117 -0.175721 
0.0752141 0.0170278 -0.193979 0.069246 0.0157167 -0.211895 0.063439 0.014875 -0.229502 
0.0578065 0.0144879 -0.246826 0.052347 0.0145316 -0.263888 0.047052 0.0149764 -0.280708 
0.0419135 0.0157885 -0.297304 0.0369307 0.0169323 -0.313692 0.0321139 0.0183709 -0.329888 
0.027487 0.0200671 -0.345901 0.0230866 0.0219835 -0.361735 0.0189596 0.024082 -0.377387 
0.0151579 0.0263239 -0.392845 0.0117331 0.0286705 -0.40809 0.0087298 0.0310828 -0.423095 
0.00618021 0.0335231 -0.437833 0.00409944 0.0359561 -0.452274 0.00248283 0.0383505 -0.466393 
0.00130545 0.040681 -0.480171 0.000523822 0.042929 -0.493603 7.96431e-05 0.0450844 -0.506689 
-9.47505e-05 0.0471449 -0.51944 -6.99956e-05 0.049116 -0.531875 8.69972e-05 0.0510092 -0.54401 
0.000319258 0.05284 -0.555857 0.000584795 0.0546247 -0.567418 0.000859905 0.056378 -0.578675 
0.00114038 0.0581101 -0.58959 0.00144052 0.0598246 -0.6001 0.00178997 0.0615171 -0.610121 
0.0022289 0.0631753 -0.619553 0.00280184 0.0647796 -0.628286 0.00355097 0.0663053 -0.63621 
0.00450956 0.0677255 -0.643228 0.0056962 0.069014 -0.649267 0.00711041 0.070149 -0.654286 
0.00873019 0.0711156 -0.658286 0.0105117 0.0719082 -0.661312 0.0123912 0.0725314 -0.663452 
0.0142889 0.0729993 -0.664832 0.0161145 0.0733345 -0.665606 0.0177743 0.073565 -0.665941 
0.0191782 0.0737212 -0.666005 0.0202474 0.0738317 -0.665948 0.0209204 0.0739201 -0.665888 
0.0211581 0.0740019 -0.665902 
LINES 2 100
OFFSETS vtktypeint64
0 100 
CONNECTIVITY vtktypeint64
0 1 2 3 4 5 6 7 8 
9 10 11 12 13 14 15 16 17 
18 19 20 21 22 23 24 25 26 
27 28 29 30 31 32 33 34 35 
36 37 38 39 40 41 42 43 44 
45 46 47 48 49 50 51 52 53 
54 55 56 57 58 59 60 61 62 
63 64 65 66 67 68 69 70 71 
72 73 74 75 76 77 78 79 80 
81 82 83 84 85 86 87 88 89 
90 91 92 93 94 95 96 97 98 
99 
POINT_DATA 100
FIELD FieldData 3
_theta 1 100 double
0 0.031733259127 0.063466518254 0.095199777382 0.12693303651 0.15866629564 0.19039955476 0.22213281389 0.25386607302 
0.28559933214 0.31733259127 0.3490658504 0.38079910953 0.41253236865 0.44426562778 0.47599888691 0.50773214603 0.53946540516 
0.57119866429 0.60293192342 0.63466518254 0.66639844167 0.6981317008 0.72986495992 0.76159821905 0.79333147818 0.82506473731 
0.85679799643 0.88853125556 0.92026451469 0.95199777382 0.98373103294 1.0154642921 1.0471975512 1.0789308103 1.1106640695 
1.1423973286 1.1741305877 1.2058638468 1.237597106 1.2693303651 1.3010636242 1.3327968833 1.3645301425 1.3962634016 
1.4279966607 1.4597299198 1.491463179 1.5231964381 1.5549296972 1.5866629564 1.6183962155 1.6501294746 1.6818627337 
1.7135959929 1.745329252 1.7770625111 1.8087957702 1.8405290294 1.8722622885 1.9039955476 1.9357288068 1.9674620659 
1.999195325 2.0309285841 2.0626618433 2.0943951024 2.1261283615 2.1578616206 2.1895948798 2.2213281389 2.253061398 
2.2847946572 2.3165279163 2.3482611754 2.3799944345 2.4117276937 2.4434609528 2.4751942119 2.506927471 2.5386607302 
2.5703939893 2.6021272484 2.6338605076 2.6655937667 2.6973270258 2.7290602849 2.7607935441 2.7925268032 2.8242600623 
2.8559933214 2.8877265806 2.9194598397 2.9511930988 2.982926358 3.0146596171 3.0463928762 3.0781261353 3.1098593945 
3.1415926536 
_radius 1 100 double
6.804716797e-16 0.015926343153 0.031715272131 0.047218500096 0.062277585597 0.076724502062 0.090386658567 0.10309541919 0.1146964836 
0.12506035244 0.13409136787 0.14173431932 0.14797817511 0.15285698849 0.15644830562 0.1588694076 0.16027150107 0.16083170304 
0.16074258799 0.16019938019 0.15938562512 0.15845914255 0.15754078155 0.15670843175 0.15599766518 0.15540864736 0.1549173576 
0.15448838999 0.15408683561 0.1536876599 0.15328211749 0.15288169646 0.152520542 0.15225699213 0.15217366573 0.1523740455 
0.15297315478 0.15408208273 0.15579023087 0.15815222089 0.16118509507 0.16487595211 0.16919469477 0.17410487325 0.17956774999 
0.18553853022 0.19195721448 0.19873857089 0.20576583242 0.21289117491 0.21994368577 0.22674334462 0.23311810031 0.23892062782 
0.24404170955 0.24841818559 0.25203471828 0.25491984414 0.25713765253 0.25877680481 0.25993853293 0.26072489653 0.26122815686 
0.26152183702 0.26165396252 0.26164303876 0.26147732289 0.26111768584 0.2605037884 0.2595625909 0.25821769344 0.25639791167 
0.25404386901 0.25111204841 0.2475764164 0.24342816828 0.23867424066 0.23333504538 0.22744156702 0.22103173316 0.21414595884 
0.20682200761 0.19908970332 0.19096638715 0.18245415197 0.17353968184 0.16419699178 0.15439266414 0.14409255466 0.13326861396 
0.12190454061 0.10999940245 0.097568966451 0.084645052747 0.071273598278 0.057512193112 0.043427669259 0.029094001216 0.014590482832 
1.5130637697e-15 
_area 1 100 double
0 0.00062621424952 0.0025026564061 0.0056128871833 0.0099019993624 0.015250315446 0.021457211897 0.028242141429 0.035263742549 
0.042153030683 0.048553673813 0.054161207491 0.05875359972 0.062207699541 0.064499560589 0.065690901371 0.065907861091 0.065319797828 
0.064123974765 0.062538344982 0.060802445608 0.059182800821 0.057952217685 0.057275330897 0.057107958364 0.057287739898 0.057641060006 
0.058021966255 0.058327443012 0.058505544744 0.05855010493 0.058490381872 0.058398434773 0.058403246322 0.058714458692 0.059625016206 
0.061446641558 0.064127890024 0.067432044707 0.071169842971 0.075208815278 0.079458800679 0.083881473798 0.088513466477 0.09348088407 
0.098962229639 0.10508237534 0.11184467103 0.11914595367 0.12679513811 0.13453067579 0.14205083967 0.1490547396 0.15528524435 
0.1605630149 0.16480318486 0.16801215062 0.17026824814 0.17169432171 0.17243236512 0.17263286772 0.17248131668 0.1722042055 
0.17203120598 0.17208349515 0.17219649967 0.17225676114 0.1721542677 0.17176560694 0.1709630975 0.169625836 0.16765106227 
0.16496290592 0.16151754328 0.15730515819 0.15234941337 0.14670485735 0.14045237608 0.13369265528 0.12653757048 0.11909954548 
0.11147956435 0.10375579881 0.095976093409 0.088157666527 0.080295607685 0.07237864501 0.064407848551 0.056412881635 0.048461413792 
0.040659646659 0.033144568589 0.026070699301 0.019595144969 0.013864539771 0.0090061186603 0.0051233580125 0.0022951057115 0.00057646883801 
2.3415581799e-17 
