# vtk DataFile Version 5.1
vtk output
ASCII
DATASET POLYDATA
POINTS 100 float
-0.113898 -0.0112356 0.713083 -0.114209 -0.0112829 0.713205 -0.115137 -0.0112191 0.713477 
-0.116602 -0.0110122 0.71376 -0.118477 -0.0106137 0.713835 -0.120591 -0.00996405 0.71344 
-0.122741 -0.00899916 0.712294 -0.124702 -0.0076573 0.710137 -0.126242 -0.00588538 0.706755 
-0.12713 -0.00364391 0.702005 -0.127153 -0.000910353 0.695833 -0.126127 0.00231963 0.688271 
-0.123904 0.00603278 0.679432 -0.120386 0.0102004 0.669487 -0.115525 0.0147815 0.658643 
-0.109324 0.0197263 0.647114 -0.101841 0.0249792 0.635087 -0.093175 0.0304809 0.622702 
-0.0834669 0.0361698 0.610034 -0.0728825 0.041981 0.597087 -0.0616038 0.0478456 0.583795 
-0.0498153 0.0536888 0.570041 -0.0376932 0.059428 0.555671 -0.025395 0.0649721 0.540525 
-0.0130516 0.0702224 0.524464 -0.000762681 0.0750749 0.507386 0.0114046 0.0794247 0.489252 
0.0234136 0.083173 0.470087 0.0352539 0.0862337 0.449983 0.0469335 0.088542 0.429087 
0.0584704 0.0900609 0.407579 0.0698839 0.0907866 0.385651 0.0811852 0.090751 0.363484 
0.0923702 0.0900209 0.341216 0.103415 0.0886927 0.318935 0.11427 0.086885 0.29666 
0.124865 0.0847274 0.274345 0.135106 0.0823481 0.251887 0.144881 0.0798615 0.229142 
0.154071 0.0773567 0.205952 0.162547 0.0748894 0.182165 0.170186 0.0724773 0.157666 
0.176873 0.0701008 0.132396 0.182507 0.0677073 0.106362 0.187005 0.0652215 0.0796492 
0.190306 0.0625575 0.0524117 0.192368 0.0596331 0.0248607 0.193173 0.0563844 -0.00275597 
0.192721 0.0527779 -0.0301776 0.191032 0.0488196 -0.0571565 0.188143 0.0445584 -0.0834806 
0.184103 0.0400854 -0.108991 0.178976 0.0355267 -0.133594 0.172838 0.0310323 -0.15726 
0.165775 0.0267611 -0.180021 0.157884 0.0228655 -0.201956 0.14927 0.0194749 -0.223173 
0.140045 0.0166835 -0.24379 0.130326 0.0145405 -0.263917 0.12023 0.013047 -0.283641 
0.109876 0.0121576 -0.303017 0.0993741 0.0117878 -0.322063 0.0888284 0.0118259 -0.340766 
0.0783301 0.012148 -0.359093 0.0679568 0.0126333 -0.377 0.0577713 0.0131793 -0.394449 
0.0478223 0.0137131 -0.411424 0.0381461 0.0141995 -0.427934 0.0287702 0.0146423 -0.444024 
0.0197175 0.0150816 -0.459766 0.0110103 0.0155852 -0.475258 0.00267517 0.0162364 -0.490605 
-0.00525434 0.0171202 -0.505903 -0.0127358 0.0183086 -0.521223 -0.0197183 0.0198483 -0.536597 
-0.0261446 0.0217515 -0.552 -0.0319559 0.0239916 -0.567355 -0.0370975 0.0265039 -0.582527 
-0.0415257 0.0291913 -0.597337 -0.0452146 0.0319343 -0.611575 -0.0481622 0.0346041 -0.625024 
-0.0503947 0.0370762 -0.637479 -0.0519681 0.0392442 -0.648768 -0.0529669 0.0410304 -0.658771 
-0.0534999 0.0423926 -0.667431 -0.053693 0.0433275 -0.674757 -0.0536794 0.0438677 -0.680823 
-0.0535895 0.0440758 -0.685755 -0.0535397 0.0440342 -0.689715 -0.0536227 0.0438342 -0.692887 
-0.0538998 0.043564 -0.69545 -0.0543964 0.0432986 -0.697566 -0.0551015 0.0430923 -0.699364 
-0.05597 0.0429749 -0.700933 -0.0569302 0.0429518 -0.702319 -0.0578925 0.0430079 -0.703532 
-0.0587615 0.043114 -0.704553 -0.0594469 0.0432351 -0.705349 -0.0598755 0.0433392 -0.705882 
-0.0599995 0.043404 -0.706124 
LINES 2 100
OFFSETS vtktypeint64
0 100 
CONNECTIVITY vtktypeint64
0 1 2 3 4 5 6 7 8 
9 10 11 12 13 14 15 16 17 
18 19 20 21 22 23 24 25 26 
27 28 29 30 31 32 33 34 35 
36 37 38 39 40 41 42 43 44 
45 46 47 48 49 50 51 52 53 
54 55 56 57 58 59 60 61 62 
63 64 65 66 67 68 69 70 71 
72 73 74 75 76 77 78 79 80 
81 82 83 84 85 86 87 88 89 
90 91 92 93 94 95 96 97 98 
99 
POINT_DATA 100
FIELD FieldData 3
_theta 1 100 double
0 0.031733259127 0.063466518254 0.095199777382 0.12693303651 0.15866629564 0.19039955476 0.22213281389 0.25386607302 
0.28559933214 0.31733259127 0.3490658504 0.38079910953 0.41253236865 0.44426562778 0.47599888691 0.50773214603 0.53946540516 
0.57119866429 0.60293192342 0.63466518254 0.66639844167 0.6981317008 0.72986495992 0.76159821905 0.79333147818 0.82506473731 
0.85679799643 0.88853125556 0.92026451469 0.95199777382 0.98373103294 1.0154642921 1.0471975512 1.0789308103 1.1106640695 
1.1423973286 1.1741305877 1.2058638468 1.237597106 1.2693303651 1.3010636242 1.3327968833 1.3645301425 1.3962634016 
1.4279966607 1.4597299198 1.491463179 1.5231964381 1.5549296972 1.5866629564 1.6183962155 1.6501294746 1.6818627337 
1.7135959929 1.745329252 1.7770625111 1.8087957702 1.8405290294 1.8722622885 1.9039955476 1.9357288068 1.9674620659 
1.999195325 2.0309285841 2.0626618433 2.0943951024 2.1261283615 2.1578616206 2.1895948798 2.2213281389 2.253061398 
2.2847946572 2.3165279163 2.3482611754 2.3799944345 2.4117276937 2.4434609528 2.4751942119 2.506927471 2.5386607302 
2.5703939893 2.6021272484 2.6338605076 2.6655937667 2.6973270258 2.7290602849 2.7607935441 2.7925268032 2.8242600623 
2.8559933214 2.8877265806 2.9194598397 2.9511930988 2.982926358 3.0146596171 3.0463928762 3.0781261353 3.1098593945 
3.1415926536 
_radius 1 100 double
6.6628061764e-16 0.016426059048 0.03262185944 0.048370268539 0.063488736591 0.077842200443 0.09135044511 0.10398812998 0.11577627294 
0.12676530706 0.1370120148 0.14655527221 0.1553973123 0.1634965669 0.17077464243 0.17713519133 0.1824888354 0.18677731669 
0.18999138979 0.19217943386 0.19344632062 0.19394417117 0.1938579756 0.19338936144 0.19274093211 0.19210190932 0.19163436783 
0.19145943679 0.19164483943 0.19219746979 0.19306468913 0.19414507184 0.19530584162 0.19640246103 0.19729614212 0.19786689547 
0.19802222683 0.19770339366 0.19689120968 0.19561194556 0.19394208864 0.1920095823 0.18998903717 0.1880894018 0.18653463593 
0.18554042083 0.18529153549 0.18592410576 0.18751487627 0.19007749908 0.19356453037 0.19787326693 0.20285361463 0.2083170254 
0.21404686774 0.21981139323 0.22537984721 0.23054051814 0.23511793101 0.23898606418 0.24207542919 0.24437336882 0.24591829384 
0.24678945889 0.2470942393 0.24695479671 0.2464956326 0.2458329737 0.24506638271 0.24427259441 0.24350140773 0.24277348112 
0.24207996208 0.2413838919 0.24062317827 0.23971466151 0.23855859808 0.23704296507 0.23504742192 0.2324473977 0.2291192652 
0.22494749755 0.21983380903 0.21370679242 0.2065293016 0.19830066119 0.18905203554 0.17883565962 0.16771130914 0.15573490914 
0.14295315148 0.12940483419 0.11512670128 0.10016062469 0.084559749981 0.068392495839 0.051744224713 0.034716816143 0.017426461436 
4.0050930195e-16 
_area 1 100 double
0 0.00064489382194 0.0025551452451 0.0056567021491 0.0098256239607 0.014893168994 0.020660363438 0.026921448796 0.03348970322 
0.040215790474 0.046989729857 0.053722385808 0.060310593325 0.066601474274 0.072378907166 0.077385256771 0.081369356319 0.084139152817 
0.085600588983 0.085773935231 0.084787971507 0.082858903284 0.080264226391 0.077322479398 0.074394202401 0.072145924034 0.071189318529 
0.071216646262 0.072101027267 0.07369992281 0.075843119183 0.078356465769 0.081083138483 0.083884588417 0.086623977066 0.089152122869 
0.091310851209 0.092950031192 0.093948013521 0.094236519011 0.093847908407 0.092959895328 0.091867353682 0.090885364351 0.090282261708 
0.090267148234 0.090971843262 0.092435164725 0.094622332807 0.097467723142 0.10090797591 0.10488894763 0.10935276681 0.11422139055 
0.11938244341 0.12466683531 0.12983325755 0.13460554317 0.13874399023 0.14209171699 0.14458318373 0.14622849855 0.14708841813 
0.14725476726 0.14684738594 0.14602698094 0.14499733561 0.14393859059 0.14290112322 0.14182660779 0.14064899079 0.13933537446 
0.13787403765 0.13625120145 0.13443656178 0.13238574272 0.13005559197 0.12741291589 0.12442311994 0.12102559005 0.11711537258 
0.11255022995 0.10719106364 0.1009619888 0.093897646633 0.086150723006 0.077956905274 0.069572403098 0.061205920807 0.052978479378 
0.044944172861 0.037151557277 0.029688019398 0.022687533917 0.016317679313 0.010761812851 0.0062025727801 0.0028066585396 0.00070945197294 
2.2251501422e-17 
