# vtk DataFile Version 5.1
vtk output
ASCII
DATASET POLYDATA
POINTS 100 float
-0.197261 -0.0286576 0.653582 -0.19676 -0.0287914 0.653516 -0.195321 -0.0289844 0.653344 
-0.192987 -0.0291842 0.65301 -0.189827 -0.0293106 0.652426 -0.185922 -0.0292647 0.651481 
-0.181362 -0.0289396 0.650057 -0.176235 -0.0282311 0.648034 -0.170615 -0.0270486 0.645306 
-0.164557 -0.025323 0.641791 -0.158091 -0.0230126 0.637432 -0.151222 -0.0201048 0.632203 
-0.143928 -0.0166154 0.626108 -0.136167 -0.0125836 0.619173 -0.127884 -0.00806648 0.611439 
-0.119021 -0.00313077 0.602953 -0.109525 0.00215385 0.593762 -0.0993626 0.007721 0.5839 
-0.0885234 0.0135114 0.573385 -0.0770286 0.0194743 0.562215 -0.0649332 0.0255656 0.550369 
-0.0523251 0.0317444 0.53781 -0.0393205 0.0379674 0.524488 -0.0260565 0.0441826 0.510348 
-0.012681 0.0503246 0.495336 0.000657784 0.05631 0.479407 0.013823 0.0620368 0.462524 
0.026698 0.0673864 0.44467 0.0391942 0.0722286 0.425837 0.0512541 0.0764297 0.406036 
0.062852 0.0798627 0.385285 0.0739892 0.0824181 0.363612 0.0846873 0.0840146 0.341047 
0.0949779 0.0846081 0.317626 0.104891 0.0841968 0.293387 0.114442 0.0828244 0.268373 
0.123623 0.0805769 0.242636 0.132396 0.0775774 0.216241 0.140684 0.0739761 0.189273 
0.148375 0.0699387 0.161839 0.155326 0.0656331 0.134072 0.161371 0.0612173 0.10613 
0.166334 0.0568281 0.0781938 0.170045 0.0525732 0.0504599 0.172354 0.0485272 0.0231291 
0.173148 0.0447309 -0.00360446 0.17236 0.0411949 -0.029567 0.169983 0.037906 -0.0546174 
0.166073 0.0348358 -0.0786581 0.160745 0.0319499 -0.101642 0.154171 0.0292173 -0.123573 
0.146565 0.0266175 -0.144508 0.138174 0.0241455 -0.164543 0.129255 0.0218134 -0.183804 
0.120059 0.0196494 -0.202434 0.110813 0.0176937 -0.220571 0.10171 0.0159922 -0.238336 
0.0928888 0.0145897 -0.25582 0.0844366 0.013522 -0.273074 0.0763827 0.0128103 -0.290104 
0.0687043 0.0124566 -0.306875 0.0613343 0.0124417 -0.32332 0.0541741 0.0127263 -0.339348 
0.0471076 0.013254 -0.354865 0.0400162 0.0139572 -0.369785 0.0327932 0.014763 -0.384048 
0.0253561 0.0156009 -0.397633 0.017656 0.016409 -0.410561 0.00968229 0.0171392 -0.422902 
0.00146393 0.0177603 -0.434767 -0.00693343 0.0182592 -0.446295 -0.015414 0.01864 -0.457644 
-0.0238606 0.0189208 -0.46897 -0.0321456 0.0191293 -0.480408 -0.0401411 0.0192987 -0.492056 
-0.0477299 0.0194624 -0.503964 -0.0548129 0.0196503 -0.516124 -0.0613162 0.0198865 -0.528467 
-0.0671937 0.0201878 -0.540869 -0.0724281 0.0205643 -0.553163 -0.0770285 0.0210206 -0.565151 
-0.081027 0.0215586 -0.576622 -0.0844725 0.0221794 -0.587372 -0.0874251 0.0228855 -0.597219 
-0.0899498 0.0236821 -0.60602 -0.0921112 0.024577 -0.613681 -0.0939688 0.0255792 -0.620161 
-0.0955743 0.0266967 -0.625471 -0.0969699 0.0279332 -0.629673 -0.098188 0.0292851 -0.632867 
-0.0992522 0.0307381 -0.635184 -0.100178 0.0322657 -0.636769 -0.100977 0.0338285 -0.637775 
-0.101654 0.0353752 -0.638349 -0.102215 0.0368458 -0.638623 -0.102661 0.0381759 -0.638711 
-0.102997 0.0393018 -0.638707 -0.103224 0.0401668 -0.638679 -0.103345 0.0407262 -0.638676 
-0.103362 0.040952 -0.638725 
LINES 2 100
OFFSETS vtktypeint64
0 100 
CONNECTIVITY vtktypeint64
0 1 2 3 4 5 6 7 8 
9 10 11 12 13 14 15 16 17 
18 19 20 21 22 23 24 25 26 
27 28 29 30 31 32 33 34 35 
36 37 38 39 40 41 42 43 44 
45 46 47 48 49 50 51 52 53 
54 55 56 57 58 59 60 61 62 
63 64 65 66 67 68 69 70 71 
72 73 74 75 76 77 78 79 80 
81 82 83 84 85 86 87 88 89 
90 91 92 93 94 95 96 97 98 
99 
POINT_DATA 100
FIELD FieldData 3
_theta 1 100 double
0 0.031733259127 0.063466518254 0.095199777382 0.12693303651 0.15866629564 0.19039955476 0.22213281389 0.25386607302 
0.28559933214 0.31733259127 0.3490658504 0.38079910953 0.41253236865 0.44426562778 0.47599888691 0.50773214603 0.53946540516 
0.57119866429 0.60293192342 0.63466518254 0.66639844167 0.6981317008 0.72986495992 0.76159821905 0.79333147818 0.82506473731 
0.85679799643 0.88853125556 0.92026451469 0.95199777382 0.98373103294 1.0154642921 1.0471975512 1.0789308103 1.1106640695 
1.1423973286 1.1741305877 1.2058638468 1.237597106 1.2693303651 1.3010636242 1.3327968833 1.3645301425 1.3962634016 
1.4279966607 1.4597299198 1.491463179 1.5231964381 1.5549296972 1.5866629564 1.6183962155 1.6501294746 1.6818627337 
1.7135959929 1.745329252 1.7770625111 1.8087957702 1.8405290294 1.8722622885 1.9039955476 1.9357288068 1.9674620659 
1.999195325 2.0309285841 2.0626618433 2.0943951024 2.1261283615 2.1578616206 2.1895948798 2.2213281389 2.253061398 
2.2847946572 2.3165279163 2.3482611754 2.3799944345 2.4117276937 2.4434609528 2.4751942119 2.506927471 2.5386607302 
2.5703939893 2.6021272484 2.6338605076 2.6655937667 2.6973270258 2.7290602849 2.7607935441 2.7925268032 2.8242600623 
2.8559933214 2.8877265806 2.9194598397 2.9511930988 2.982926358 3.0146596171 3.0463928762 3.0781261353 3.1098593945 
3.1415926536 
_radius 1 100 double
4.8597032773e-16 0.018191339546 0.036120507674 0.053538851721 0.070229552943 0.086017976326 0.10077649059 0.11442369901 0.12691892373 
0.13825337534 0.14843965572 0.15750116148 0.16546273553 0.17234369879 0.17815422713 0.18289583082 0.18656628856 0.18916868729 
0.19072329039 0.19128003702 0.19092886673 0.18980501211 0.18808701614 0.18598646329 0.18373007187 0.18153655723 0.17959212436 
0.17802916202 0.17691239723 0.17623536126 0.17592774221 0.17587170826 0.17592364134 0.17593769533 0.17578873589 0.1753930921 
0.17472519195 0.17382700724 0.17280675924 0.17182508978 0.17107135094 0.17073760525 0.17099892734 0.17200376561 0.17387133731 
0.17668946274 0.18050731643 0.18532200796 0.19106362747 0.19758712808 0.20467803303 0.21207308148 0.21949100538 0.22666614312 
0.23337829383 0.23947416149 0.24487774846 0.24958890544 0.25367093973 0.25722966498 0.26038742533 0.26325631227 0.26591486965 
0.26839194752 0.27066006712 0.27263897354 0.2742083681 0.27522743641 0.27555786075 0.27508656909 0.27374456316 0.27151880613 
0.26845528819 0.26465284464 0.26024878794 0.25539864506 0.25025308642 0.24493542823 0.23952288546 0.23403411352 0.22842465194 
0.22259085899 0.21638192258 0.20961857584 0.20211625092 0.19370966268 0.1842753895 0.17374908429 0.16213459965 0.14950351882 
0.13598517931 0.12174897204 0.10698213391 0.091867052297 0.07656199137 0.061188098321 0.045823874159 0.030506603859 0.015239123969 
1.1766658179e-15 
_area 1 100 double
0 0.00076892884393 0.0030299332712 0.0066521485361 0.011437508536 0.017145931521 0.023522584054 0.030322310525 0.03732757002 
0.04435772643 0.051268917751 0.057945206455 0.064283506445 0.07017648354 0.075498525121 0.080099595351 0.083810403298 0.08646006505 
0.08790459927 0.088061592489 0.086944118023 0.084686748973 0.081558582574 0.077956731329 0.07435031753 0.071150770615 0.068632830317 
0.0669612797 0.066204576012 0.066323576028 0.067176641281 0.068553310521 0.070221565074 0.071971487069 0.073657939987 0.075263533985 
0.076917951426 0.078673273053 0.08048072117 0.082310196641 0.084143768451 0.085950258602 0.087690490552 0.089353173583 0.091014995784 
0.092886192234 0.095308230062 0.09869052573 0.10337085565 0.10947633302 0.11687923187 0.12524128515 0.13410583813 0.1429997192 
0.15151520943 0.15937223764 0.16646613453 0.17283100627 0.17853156237 0.18361491255 0.18808560274 0.19204769429 0.19565865288 
0.19870965692 0.20112022529 0.20276853607 0.20348808587 0.20311238238 0.2015086577 0.19859769869 0.19438546479 0.18897724864 
0.18256279944 0.17539178563 0.16774892459 0.15992336659 0.15217287719 0.14469083533 0.13758288136 0.13085580991 0.12442020504 
0.11810918574 0.11171184353 0.10501374083 0.097835742038 0.090066045512 0.081682724599 0.072763689566 0.063480795753 0.054077462872 
0.044833980738 0.03602891371 0.027906287324 0.020655828913 0.014408519093 0.0092444224358 0.0052066489705 0.0023154582321 0.00057900805864 
7.8143792327e-17 
