# vtk DataFile Version 5.1
vtk output
ASCII
DATASET POLYDATA
POINTS 100 float
-0.0682679 0.00209873 0.748537 -0.0682401 0.00212935 0.74875 -0.0681832 0.00242324 0.749314 
-0.0680372 0.00295248 0.750075 -0.0677088 0.00367573 0.750802 -0.0670819 0.00454636 0.751208 
-0.0660307 0.00552188 0.750982 -0.0644333 0.00657324 0.749825 -0.0621846 0.00769252 0.747482 
-0.059206 0.0088976 0.743763 -0.0554526 0.010233 0.738565 -0.050915 0.0117662 0.731875 
-0.0456174 0.0135808 0.723764 -0.039612 0.0157653 0.714371 -0.03297 0.0184009 0.70388 
-0.0257718 0.0215493 0.692492 -0.0180969 0.0252412 0.680399 -0.0100151 0.0294687 0.667755 
-0.00158129 0.034181 0.654659 0.00716804 0.0392859 0.641147 0.0162132 0.044655 0.627185 
0.0255475 0.0501342 0.612684 0.0351705 0.0555562 0.597512 0.0450808 0.0607543 0.581518 
0.0552677 0.065577 0.564551 0.0657053 0.0698986 0.546487 0.0763484 0.0736281 0.52724 
0.0871311 0.0767125 0.50678 0.0979695 0.0791359 0.485132 0.108766 0.0809145 0.462368 
0.119415 0.0820876 0.438603 0.129813 0.0827073 0.413972 0.139865 0.0828274 0.388613 
0.149487 0.0824936 0.362652 0.158613 0.0817362 0.336183 0.167195 0.0805672 0.309264 
0.175197 0.0789806 0.281913 0.182592 0.0769572 0.254116 0.189353 0.0744718 0.225834 
0.195446 0.0715039 0.197023 0.200824 0.0680466 0.167652 0.205419 0.064116 0.137719 
0.209144 0.0597569 0.107267 0.211896 0.0550457 0.0763889 0.213558 0.0500878 0.0452342 
0.214014 0.0450118 0.0139988 0.213159 0.0399601 -0.017086 0.210913 0.0350764 -0.0477715 
0.207231 0.0304933 -0.0778122 0.202118 0.0263204 -0.106987 0.19563 0.0226349 -0.135117 
0.187878 0.0194754 -0.162079 0.179022 0.0168416 -0.187814 0.169262 0.0146967 -0.212325 
0.158824 0.0129755 -0.23567 0.147943 0.011595 -0.257951 0.136846 0.0104666 -0.279295 
0.125734 0.00950901 -0.299839 0.114772 0.00865871 -0.319709 0.104074 0.00787833 -0.339011 
0.0937025 0.00716056 -0.35782 0.0836717 0.00652793 -0.376175 0.0739511 0.00602837 -0.394088 
0.0644786 0.00572727 -0.411545 0.0551742 0.00569739 -0.428523 0.0459549 0.00600785 -0.444997 
0.0367488 0.00671398 -0.460957 0.0275062 0.00784914 -0.476409 0.0182073 0.00941985 -0.491387 
0.00886502 0.0114045 -0.505945 -0.000477172 0.0137559 -0.520155 -0.00975077 0.0164069 -0.534096 
-0.0188715 0.0192786 -0.547838 -0.0277497 0.022289 -0.561436 -0.0363014 0.0253618 -0.57491 
-0.044457 0.0284335 -0.588246 -0.0521683 0.0314577 -0.601388 -0.0594111 0.0344063 -0.614243 
-0.0661848 0.0372679 -0.626692 -0.0725083 0.0400428 -0.638598 -0.0784134 0.0427371 -0.64983 
-0.083937 0.0453552 -0.660271 -0.0891126 0.0478932 -0.669839 -0.0939641 0.0503347 -0.678495 
-0.0985007 0.052648 -0.686247 -0.102716 0.0547875 -0.693154 -0.106589 0.0566981 -0.699311 
-0.110088 0.0583213 -0.704843 -0.11318 0.059604 -0.709882 -0.115835 0.0605073 -0.714557 
-0.118035 0.0610144 -0.718968 -0.11978 0.0611357 -0.723179 -0.12109 0.0609117 -0.727209 
-0.12201 0.0604117 -0.731028 -0.122599 0.0597281 -0.734563 -0.122932 0.058968 -0.73771 
-0.123088 0.0582427 -0.740349 -0.12314 0.0576551 -0.742359 -0.123149 0.0572891 -0.74364 
-0.123155 0.0571993 -0.744122 
LINES 2 100
OFFSETS vtktypeint64
0 100 
CONNECTIVITY vtktypeint64
0 1 2 3 4 5 6 7 8 
9 10 11 12 13 14 15 16 17 
18 19 20 21 22 23 24 25 26 
27 28 29 30 31 32 33 34 35 
36 37 38 39 40 41 42 43 44 
45 46 47 48 49 50 51 52 53 
54 55 56 57 58 59 60 61 62 
63 64 65 66 67 68 69 70 71 
72 73 74 75 76 77 78 79 80 
81 82 83 84 85 86 87 88 89 
90 91 92 93 94 95 96 97 98 
99 
POINT_DATA 100
FIELD FieldData 3
_theta 1 100 double
0 0.031733259127 0.063466518254 0.095199777382 0.12693303651 0.15866629564 0.19039955476 0.22213281389 0.25386607302 
0.28559933214 0.31733259127 0.3490658504 0.38079910953 0.41253236865 0.44426562778 0.47599888691 0.50773214603 0.53946540516 
0.57119866429 0.60293192342 0.63466518254 0.66639844167 0.6981317008 0.72986495992 0.76159821905 0.79333147818 0.82506473731 
0.85679799643 0.88853125556 0.92026451469 0.95199777382 0.98373103294 1.0154642921 1.0471975512 1.0789308103 1.1106640695 
1.1423973286 1.1741305877 1.2058638468 1.237597106 1.2693303651 1.3010636242 1.3327968833 1.3645301425 1.3962634016 
1.4279966607 1.4597299198 1.491463179 1.5231964381 1.5549296972 1.5866629564 1.6183962155 1.6501294746 1.6818627337 
1.7135959929 1.745329252 1.7770625111 1.8087957702 1.8405290294 1.8722622885 1.9039955476 1.9357288068 1.9674620659 
1.999195325 2.0309285841 2.0626618433 2.0943951024 2.1261283615 2.1578616206 2.1895948798 2.2213281389 2.253061398 
2.2847946572 2.3165279163 2.3482611754 2.3799944345 2.4117276937 2.4434609528 2.4751942119 2.506927471 2.5386607302 
2.5703939893 2.6021272484 2.6338605076 2.6655937667 2.6973270258 2.7290602849 2.7607935441 2.7925268032 2.8242600623 
2.8559933214 2.8877265806 2.9194598397 2.9511930988 2.982926358 3.0146596171 3.0463928762 3.0781261353 3.1098593945 
3.1415926536 
_radius 1 100 double
7.8160458716e-16 0.015654263228 0.031245080939 0.046701786196 0.061947874608 0.076897928365 0.091454884947 0.10550842257 0.11893529668 
0.13160225184 0.14337170475 0.15410985161 0.16369632207 0.17203410925 0.179058349 0.18474265839 0.18910217286 0.19219306344 
0.19410898982 0.19497539307 0.19494253727 0.19417778914 0.19285709709 0.19115544427 0.18923644917 0.18724213257 0.18528468332 
0.18344225226 0.18176000277 0.18025601413 0.17892994506 0.17777153307 0.17676644277 0.1758984026 0.17514836687 0.17449301131 
0.17390560437 0.17336143651 0.17284740054 0.17237246896 0.17197464358 0.17172081935 0.17169814987 0.17199862097 0.17270221462 
0.17386603433 0.17552415688 0.17769655327 0.18040018509 0.18365498898 0.18748099054 0.1918873171 0.19685728977 0.20233512145 
0.20821890063 0.2143621486 0.22058348765 0.22668196372 0.232454814 0.23771478124 0.24230494687 0.24610999985 0.24906356653 
0.25115158654 0.25241178461 0.25292922035 0.25282787432 0.25225835334 0.25138208723 0.2503528387 0.24929707984 0.24829600731 
0.24737331294 0.24649257123 0.24556477086 0.24446226293 0.24303418528 0.24112042112 0.23856347094 0.23521864489 0.23096296565 
0.22570273307 0.21937922529 0.21197172355 0.20349709706 0.19400561876 0.18357341853 0.1722927991 0.16026222594 0.14757785556 
0.13432788528 0.12059003823 0.10643162867 0.091911266759 0.077081353029 0.061990778888 0.046687428469 0.031220144179 0.015639890069 
2.4359709464e-16 
_area 1 100 double
0 0.00063634351642 0.0025364269989 0.0056723718856 0.0099933958744 0.015418193767 0.021825724212 0.029048621864 0.036872637417 
0.045043006933 0.053276785546 0.061279669033 0.06876594113 0.075479780922 0.081214835186 0.085827813264 0.089242716253 0.091445703959 
0.092474810026 0.092410931911 0.091374707664 0.089528375327 0.087077014497 0.084268640027 0.081434046818 0.079320529146 0.077884012027 
0.076754047757 0.075755737466 0.074830345158 0.073992199777 0.073307812446 0.07285144322 0.07265006979 0.072657852621 0.072774996446 
0.072885817057 0.072893405659 0.072751195122 0.07249486813 0.072271838895 0.072355424695 0.073032977826 0.074328164424 0.076032501584 
0.077940246908 0.079932874399 0.081992566235 0.08419896416 0.086712299777 0.08974232121 0.093503801355 0.098164496502 0.10379928863 
0.11036031962 0.11766000096 0.12537525535 0.13309332976 0.14038152008 0.14684736852 0.15217802601 0.15616057253 0.15868771623 
0.15975427897 0.15944804779 0.15793168241 0.15542425148 0.15227428426 0.14878101321 0.14513169919 0.14160023343 0.13839782493 
0.13560462205 0.13316872044 0.13097103564 0.1288822192 0.12677746616 0.12452351784 0.12196327011 0.11891662171 0.11520108497 
0.11066356963 0.10521184583 0.098836657021 0.091619049784 0.083720840608 0.07535936055 0.066771531862 0.05817705445 0.049753779949 
0.041635222086 0.033927784452 0.026732736583 0.020158941625 0.014323613881 0.0093459639304 0.0053386484006 0.0023994340527 0.00060394745735 
1.4745149546e-17 
