# vtk DataFile Version 5.1
vtk output
ASCII
DATASET POLYDATA
POINTS 100 float
-0.0656468 -0.0460869 0.754281 -0.0653972 -0.0457762 0.753815 -0.064718 -0.0446293 0.752435 
-0.0636895 -0.0426992 0.750174 -0.0624312 -0.0400671 0.747083 -0.061082 -0.0368311 0.743225 
-0.0597781 -0.0330924 0.738666 -0.0586287 -0.0289421 0.733468 -0.0576959 -0.0244498 0.727683 
-0.0569801 -0.019657 0.721339 -0.056413 -0.0145752 0.714443 -0.0558609 -0.00919028 0.706975 
-0.0551364 -0.00347215 0.69889 -0.0540176 0.00261171 0.690118 -0.0522736 0.00908042 0.680576 
-0.0496907 0.0159244 0.670171 -0.0460984 0.0230926 0.658813 -0.0413898 0.0304852 0.646423 
-0.0355347 0.037952 0.632943 -0.0285836 0.0452987 0.618343 -0.0206617 0.0523001 0.602624 
-0.0119539 0.0587181 0.585822 -0.00268318 0.0643245 0.568003 0.00691577 0.0689236 0.54926 
0.0166229 0.0723735 0.529702 0.0262565 0.0746023 0.509446 0.0356913 0.0756176 0.488605 
0.0448674 0.0755075 0.467277 0.05379 0.074433 0.445536 0.0625201 0.0726126 0.423425 
0.071156 0.0703002 0.400955 0.0798103 0.0677597 0.378103 0.0885831 0.0652389 0.35482 
0.0975376 0.0629452 0.331038 0.106679 0.0610268 0.306682 0.115941 0.059561 0.281681 
0.125183 0.058551 0.255987 0.134194 0.0579307 0.229579 0.142709 0.0575784 0.202478 
0.150431 0.0573345 0.174751 0.157062 0.0570244 0.14651 0.162327 0.056481 0.117911 
0.166005 0.0555648 0.0891436 0.16795 0.05418 0.0604205 0.168106 0.0522841 0.031962 
0.166512 0.0498901 0.00398098 0.163297 0.0470621 -0.0233324 0.158665 0.0439051 -0.0498237 
0.152876 0.04055 -0.0753838 0.146221 0.0371373 -0.0999543 0.138991 0.033801 -0.123528 
0.131455 0.0306547 -0.146144 0.123838 0.0277825 -0.167882 0.116304 0.0252344 -0.188847 
0.108952 0.0230273 -0.209158 0.101819 0.0211507 -0.228936 0.0948801 0.019576 -0.248289 
0.0880722 0.0182674 -0.267303 0.0813055 0.0171922 -0.286037 0.074484 0.0163303 -0.30452 
0.0675229 0.0156795 -0.32275 0.0603619 0.0152571 -0.340705 0.0529747 0.0150972 -0.358343 
0.0453725 0.0152447 -0.375618 0.0376022 0.0157459 -0.392485 0.0297398 0.016639 -0.408912 
0.021881 0.017945 -0.424881 0.0141294 0.0196599 -0.440395 0.00658555 0.0217518 -0.455475 
-0.00066318 0.024161 -0.470158 -0.0075494 0.0268047 -0.484492 -0.0140295 0.0295849 -0.498523 
-0.0200838 0.0323991 -0.512292 -0.0257138 0.0351516 -0.525825 -0.0309372 0.0377644 -0.539124 
-0.0357816 0.0401854 -0.552168 -0.0402785 0.042393 -0.56491 -0.044458 0.0443968 -0.577279 
-0.0483456 0.0462339 -0.589187 -0.0519605 0.047961 -0.600537 -0.0553163 0.0496445 -0.611231 
-0.0584236 0.0513489 -0.621183 -0.0612922 0.0531256 -0.63032 -0.0639351 0.0550046 -0.6386 
-0.0663703 0.0569887 -0.646003 -0.0686222 0.0590523 -0.652543 -0.0707207 0.0611445 -0.658258 
-0.072699 0.0631956 -0.663211 -0.0745897 0.0651275 -0.667477 -0.0764204 0.0668639 -0.671142 
-0.078209 0.0683419 -0.674287 -0.0799598 0.0695202 -0.676989 -0.0816615 0.0703854 -0.679311 
-0.0832872 0.0709532 -0.681298 -0.0847958 0.0712661 -0.682983 -0.086137 0.0713868 -0.684378 
-0.0872563 0.0713884 -0.685489 -0.0881018 0.0713441 -0.686311 -0.0886306 0.0713156 -0.686837 
-0.0888143 0.0713443 -0.687062 
LINES 2 100
OFFSETS vtktypeint64
0 100 
CONNECTIVITY vtktypeint64
0 1 2 3 4 5 6 7 8 
9 10 11 12 13 14 15 16 17 
18 19 20 21 22 23 24 25 26 
27 28 29 30 31 32 33 34 35 
36 37 38 39 40 41 42 43 44 
45 46 47 48 49 50 51 52 53 
54 55 56 57 58 59 60 61 62 
63 64 65 66 67 68 69 70 71 
72 73 74 75 76 77 78 79 80 
81 82 83 84 85 86 87 88 89 
90 91 92 93 94 95 96 97 98 
99 
POINT_DATA 100
FIELD FieldData 3
_theta 1 100 double
0 0.031733259127 0.063466518254 0.095199777382 0.12693303651 0.15866629564 0.19039955476 0.22213281389 0.25386607302 
0.28559933214 0.31733259127 0.3490658504 0.38079910953 0.41253236865 0.44426562778 0.47599888691 0.50773214603 0.53946540516 
0.57119866429 0.60293192342 0.63466518254 0.66639844167 0.6981317008 0.72986495992 0.76159821905 0.79333147818 0.82506473731 
0.85679799643 0.88853125556 0.92026451469 0.95199777382 0.98373103294 1.0154642921 1.0471975512 1.0789308103 1.1106640695 
1.1423973286 1.1741305877 1.2058638468 1.237597106 1.2693303651 1.3010636242 1.3327968833 1.3645301425 1.3962634016 
1.4279966607 1.4597299198 1.491463179 1.5231964381 1.5549296972 1.5866629564 1.6183962155 1.6501294746 1.6818627337 
1.7135959929 1.745329252 1.7770625111 1.8087957702 1.8405290294 1.8722622885 1.9039955476 1.9357288068 1.9674620659 
1.999195325 2.0309285841 2.0626618433 2.0943951024 2.1261283615 2.1578616206 2.1895948798 2.2213281389 2.253061398 
2.2847946572 2.3165279163 2.3482611754 2.3799944345 2.4117276937 2.4434609528 2.4751942119 2.506927471 2.5386607302 
2.5703939893 2.6021272484 2.6338605076 2.6655937667 2.6973270258 2.7290602849 2.7607935441 2.7925268032 2.8242600623 
2.8559933214 2.8877265806 2.9194598397 2.9511930988 2.982926358 3.0146596171 3.0463928762 3.0781261353 3.1098593945 
3.1415926536 
_radius 1 100 double
1.5154773039e-16 0.013910963738 0.027907096467 0.042043868718 0.05633869392 0.070757230588 0.085205218563 0.099527343556 0.11351407519 
0.12691641951 0.13946729599 0.15090715862 0.16101079387 0.16961203102 0.17662335624 0.18204804525 0.18598330818 0.18861393028 
0.19019682325 0.19103764265 0.19146124587 0.19177864243 0.19225448005 0.19308014223 0.19435661795 0.19608878707 0.19819084605 
0.20050191016 0.20281023668 0.20488347754 0.20650133587 0.20748648611 0.20772978525 0.20720653673 0.20598164217 0.20420274767 
0.20208206619 0.19986971695 0.19782411777 0.19618696472 0.19516913477 0.19494816423 0.19567087891 0.19745184464 0.2003619037 
0.20440865138 0.20951765342 0.21552515473 0.22218832563 0.22921107116 0.23627793966 0.24308812666 0.24938393305 0.25497070588 
0.25972733456 0.2636078315 0.26663547972 0.26889149357 0.27050016786 0.27161222387 0.27238768575 0.27297932907 0.27351766696 
0.27409857251 0.27477480051 0.27555257341 0.27639381145 0.27722356893 0.27794116053 0.27843278454 0.27858341325 0.27828624097 
0.27744879375 0.27599564634 0.27386836577 0.27102368351 0.26743093455 0.26306953987 0.25792689299 0.25199664222 0.24527719988 
0.23777040261 0.22948049353 0.22041380379 0.21057949943 0.19999147859 0.18867106317 0.17664974425 0.16397109701 0.15069114045 
0.13687680236 0.12260261805 0.10794621307 0.092983402865 0.077783829633 0.062407916743 0.04690557691 0.031316666787 0.015672804293 
8.6290877824e-16 
_area 1 100 double
0 0.00057598395288 0.0023128908181 0.0052292406173 0.009330968968 0.014582953426 0.020883448915 0.028049499808 0.035818136104 
0.043863772389 0.051827797833 0.059353161297 0.066116223987 0.071851173935 0.076367565704 0.079564924973 0.081446615334 0.08213019154 
0.081848060293 0.080934259319 0.079808032067 0.079037831183 0.079167585711 0.080266738338 0.082418104206 0.085367777244 0.088829160213 
0.092550889475 0.096287872538 0.09981311421 0.10293322253 0.10549612521 0.10739160978 0.10855286079 0.10896958091 0.10871646748 
0.10798301286 0.10707451348 0.10636542918 0.10623573729 0.10697322353 0.10850722555 0.11053884676 0.11290374445 0.11565649458 
0.1190565542 0.12348006564 0.12925946604 0.1364837887 0.14490466651 0.1540517577 0.16338192088 0.1723735299 0.18058877744 
0.18771432882 0.19357890562 0.19814841454 0.20150366851 0.20380883619 0.20528006175 0.2061629706 0.20672352935 0.20724541746 
0.20800707071 0.20920979534 0.21089883618 0.21296421825 0.21519729743 0.21732645619 0.2190290232 0.2199579937 0.21979543806 
0.21830566747 0.21536309927 0.21095177584 0.20514530288 0.19807872896 0.18992242587 0.18086279556 0.17108840203 0.16077761872 
0.15008612652 0.13913641024 0.12801350272 0.11677036058 0.10544296164 0.09407123333 0.08271935396 0.071489130916 0.060522807804 
0.04999524969 0.040098333188 0.031021750747 0.022934529861 0.015970917363 0.01022320466 0.0057425954173 0.0025473846923 0.00063585773848 
3.1605121294e-17 
