# vtk DataFile Version 5.1
vtk output
ASCII
DATASET POLYDATA
POINTS 100 float
-0.132281 -0.0184077 0.688563 -0.132155 -0.0184933 0.688633 -0.131821 -0.0185942 0.688887 
-0.131242 -0.0186839 0.68922 -0.130362 -0.0187199 0.689473 -0.129112 -0.0186463 0.689444 
-0.127414 -0.0183975 0.68891 -0.125198 -0.0179038 0.68765 -0.1224 -0.0170958 0.685462 
-0.118974 -0.01591 0.682184 -0.114891 -0.0142938 0.677706 -0.110141 -0.0122096 0.671977 
-0.10473 -0.00963816 0.665004 -0.0986725 -0.00658019 0.656848 -0.0919913 -0.00305685 0.647609 
-0.0847057 0.000891452 0.637413 -0.0768295 0.00520767 0.626398 -0.0683674 0.00982178 0.614689 
-0.0593145 0.0146553 0.602391 -0.049659 0.019626 0.589576 -0.0393872 0.0246523 0.576273 
-0.0284909 0.0296576 0.562474 -0.0169748 0.0345724 0.548133 -0.00486514 0.0393361 0.533176 
0.00778474 0.0438968 0.517515 0.0208905 0.04821 0.501056 0.0343368 0.0522365 0.483714 
0.0479805 0.0559389 0.465424 0.0616577 0.0592792 0.446146 0.0751938 0.0622164 0.425872 
0.0884142 0.064705 0.404624 0.101156 0.0666953 0.382452 0.113279 0.0681359 0.359426 
0.12467 0.0689765 0.335633 0.135252 0.0691739 0.311165 0.14498 0.068697 0.286114 
0.153834 0.0675333 0.260567 0.161819 0.0656942 0.234603 0.168943 0.0632187 0.208293 
0.175216 0.060175 0.181703 0.180633 0.0566597 0.154895 0.185168 0.0527936 0.127935 
0.188766 0.0487153 0.100896 0.191349 0.0445725 0.0738604 0.192816 0.0405111 0.0469239 
0.193057 0.0366654 0.0201931 0.191961 0.0331472 -0.00621688 0.189436 0.0300384 -0.0321883 
0.185421 0.027385 -0.0576071 0.179903 0.0251954 -0.0823708 0.172922 0.0234424 -0.106395 
0.164579 0.0220683 -0.129622 0.155032 0.0209935 -0.152018 0.14449 0.0201275 -0.173584 
0.133198 0.0193801 -0.194343 0.12142 0.0186732 -0.214345 0.109422 0.0179503 -0.233653 
0.0974449 0.0171836 -0.252341 0.0856946 0.0163774 -0.270481 0.0743222 0.0155675 -0.288136 
0.0634172 0.0148168 -0.305356 0.0530052 0.0142073 -0.322175 0.0430513 0.0138303 -0.338605 
0.033471 0.0137744 -0.354643 0.0241442 0.0141141 -0.370274 0.0149335 0.0149003 -0.385476 
0.00570198 0.0161528 -0.400226 -0.00366861 0.0178563 -0.41451 -0.013264 0.0199606 -0.428326 
-0.0231273 0.0223845 -0.441687 -0.0332544 0.025023 -0.454622 -0.043595 0.0277568 -0.467177 
-0.0540588 0.0304634 -0.479406 -0.0645254 0.0330281 -0.491368 -0.0748575 0.0353533 -0.503115 
-0.0849147 0.0373665 -0.514689 -0.0945672 0.0390241 -0.526107 -0.103707 0.040313 -0.537363 
-0.112256 0.0412478 -0.548419 -0.12017 0.0418662 -0.559204 -0.127442 0.0422213 -0.569623 
-0.134094 0.0423742 -0.579555 -0.140176 0.0423854 -0.588866 -0.145752 0.0423085 -0.597421 
-0.150897 0.0421843 -0.60509 -0.155684 0.0420392 -0.611765 -0.160178 0.0418843 -0.617365 
-0.164428 0.0417181 -0.62185 -0.168466 0.0415302 -0.62522 -0.172306 0.0413067 -0.627521 
-0.175941 0.0410352 -0.628845 -0.179351 0.0407096 -0.62932 -0.1825 0.040333 -0.629108 
-0.185347 0.0399195 -0.628393 -0.187848 0.0394932 -0.627366 -0.189956 0.039086 -0.626221 
-0.191633 0.0387332 -0.625133 -0.192842 0.0384696 -0.624253 -0.193559 0.0383239 -0.623698 
-0.193769 0.038315 -0.62354 
LINES 2 100
OFFSETS vtktypeint64
0 100 
CONNECTIVITY vtktypeint64
0 1 2 3 4 5 6 7 8 
9 10 11 12 13 14 15 16 17 
18 19 20 21 22 23 24 25 26 
27 28 29 30 31 32 33 34 35 
36 37 38 39 40 41 42 43 44 
45 46 47 48 49 50 51 52 53 
54 55 56 57 58 59 60 61 62 
63 64 65 66 67 68 69 70 71 
72 73 74 75 76 77 78 79 80 
81 82 83 84 85 86 87 88 89 
90 91 92 93 94 95 96 97 98 
99 
POINT_DATA 100
FIELD FieldData 3
_theta 1 100 double
0 0.031733259127 0.063466518254 0.095199777382 0.12693303651 0.15866629564 0.19039955476 0.22213281389 0.25386607302 
0.28559933214 0.31733259127 0.3490658504 0.38079910953 0.41253236865 0.44426562778 0.47599888691 0.50773214603 0.53946540516 
0.57119866429 0.60293192342 0.63466518254 0.66639844167 0.6981317008 0.72986495992 0.76159821905 0.79333147818 0.82506473731 
0.85679799643 0.88853125556 0.92026451469 0.95199777382 0.98373103294 1.0154642921 1.0471975512 1.0789308103 1.1106640695 
1.1423973286 1.1741305877 1.2058638468 1.237597106 1.2693303651 1.3010636242 1.3327968833 1.3645301425 1.3962634016 
1.4279966607 1.4597299198 1.491463179 1.5231964381 1.5549296972 1.5866629564 1.6183962155 1.6501294746 1.6818627337 
1.7135959929 1.745329252 1.7770625111 1.8087957702 1.8405290294 1.8722622885 1.9039955476 1.9357288068 1.9674620659 
1.999195325 2.0309285841 2.0626618433 2.0943951024 2.1261283615 2.1578616206 2.1895948798 2.2213281389 2.253061398 
2.2847946572 2.3165279163 2.3482611754 2.3799944345 2.4117276937 2.4434609528 2.4751942119 2.506927471 2.5386607302 
2.5703939893 2.6021272484 2.6338605076 2.6655937667 2.6973270258 2.7290602849 2.7607935441 2.7925268032 2.8242600623 
2.8559933214 2.8877265806 2.9194598397 2.9511930988 2.982926358 3.0146596171 3.0463928762 3.0781261353 3.1098593945 
3.1415926536 
_radius 1 100 double
3.7341307954e-16 0.015380123507 0.030664679509 0.045757622265 0.060563501604 0.074985890944 0.088924895473 0.10227503219 0.11492505843 
0.12676095679 0.13767239442 0.14756189099 0.15635502091 0.16400951659 0.17052123857 0.17592557617 0.18029376375 0.18372461599 
0.18633308296 0.18823762893 0.18954863116 0.19035972887 0.19074337448 0.19075090744 0.19041653127 0.18976386345 0.18881338507 
0.18758915352 0.18612348248 0.18445884889 0.18264696655 0.18074563071 0.17881441072 0.1769105231 0.17508646324 0.17339097978 
0.17187362207 0.17059044502 0.16960704275 0.16899630418 0.16883069534 0.16917102007 0.17005522285 0.17149154771 0.17345935079 
0.17591772044 0.17881819368 0.18211575771 0.18577334281 0.18975832206 0.19403316579 0.19854472497 0.20321694789 0.20795026152 
0.21262806708 0.21712805455 0.22133466415 0.22514947578 0.22849789414 0.23133212632 0.23363144285 0.23540094903 0.2366697554 
0.23748879942 0.2379279138 0.23807132923 0.2380108396 0.23783639628 0.23762479057 0.23742802688 0.2372636156 0.23710900485 
0.23690161161 0.23654461701 0.23591734223 0.2348881335 0.23332750738 0.2311197317 0.22817170381 0.22441860586 0.21982620896 
0.2143898999 0.20813065061 0.20108835501 0.19331324647 0.18485642464 0.17576077862 0.16605371956 0.15574305745 0.14481699473 
0.13324852732 0.12100365599 0.10805200146 0.094377978072 0.079990713479 0.064931275305 0.049276272697 0.033137404696 0.016656995511 
4.0823572648e-16 
_area 1 100 double
0 0.00053537406621 0.00215052796 0.0048656191839 0.0086932178509 0.013613399866 0.019549852964 0.026353627949 0.033798940955 
0.041592491477 0.049394899486 0.056850611278 0.063621343289 0.06941804666 0.074027452129 0.077331123032 0.079316914761 0.080083888899 
0.079840892211 0.078894804655 0.077616907104 0.076373750789 0.075434423074 0.07490774177 0.074748171936 0.074810717656 0.074916359301 
0.074906154093 0.074678756706 0.074212187668 0.073570099497 0.072891258068 0.07235969817 0.07215340117 0.07238041131 0.073037540004 
0.074028496129 0.075225111976 0.076525527623 0.077889919877 0.07936259277 0.081104152686 0.083323166925 0.08593504533 0.088791205584 
0.091815961047 0.094978118713 0.098334637129 0.10208658597 0.10646950831 0.111500051 0.1170247041 0.12284452673 0.12872590675 
0.13441119793 0.13965987117 0.14429985117 0.1482601302 0.15156904976 0.15432274512 0.15663546331 0.15857761632 0.1601266228 
0.16118069715 0.16162775888 0.16140632078 0.16052976652 0.15908274136 0.1572029539 0.15505779507 0.15282090077 0.15064731733 
0.14864175509 0.14682138656 0.14509206781 0.14326125607 0.14108475004 0.13832085895 0.13477254811 0.13031274953 0.1248935432 
0.11854182652 0.11134606129 0.10343924964 0.094981970534 0.086147427127 0.077109080056 0.068030888005 0.059060638597 0.050327807559 
0.041947059565 0.034026026648 0.026673310676 0.020002364272 0.014129203171 0.0091649760166 0.0052066310182 0.0023295250387 0.00058459014753 
5.4056459028e-17 
