# vtk DataFile Version 5.1
vtk output
ASCII
DATASET POLYDATA
POINTS 100 float
0.0438507 -0.0162758 0.712175 0.0434577 -0.0162085 0.711492 0.0422734 -0.0157292 0.70938 
0.0403791 -0.0148089 0.705875 0.0379019 -0.0134066 0.701042 0.0350026 -0.0114749 0.694967 
0.0318615 -0.00896717 0.687759 0.0286622 -0.00584484 0.679539 0.0255768 -0.00208453 0.670442 
0.0227535 0.00231548 0.660603 0.0203069 0.00733044 0.650157 0.0183142 0.0129065 0.639227 
0.0168147 0.0189602 0.627919 0.0158146 0.025381 0.616318 0.0152949 0.0320351 0.604479 
0.0152212 0.0387728 0.592429 0.0155545 0.0454355 0.580164 0.0162612 0.0518653 0.567652 
0.0173205 0.0579134 0.554839 0.0187292 0.0634485 0.541652 0.0205028 0.0683638 0.528012 
0.022673 0.0725823 0.513837 0.0252821 0.0760598 0.499057 0.0283758 0.0787857 0.483615 
0.0319942 0.080781 0.467475 0.036164 0.0820953 0.450629 0.0408917 0.0828006 0.433092 
0.0461593 0.0829848 0.414902 0.0519226 0.0827445 0.396117 0.0581125 0.0821771 0.376806 
0.0646395 0.0813739 0.357045 0.0713988 0.0804141 0.336903 0.0782776 0.0793604 0.316445 
0.0851617 0.0782556 0.295717 0.0919413 0.0771222 0.274751 0.098515 0.0759623 0.253559 
0.104792 0.0747609 0.232136 0.110691 0.0734889 0.210469 0.11614 0.0721081 0.188536 
0.121072 0.0705766 0.166316 0.125421 0.0688542 0.143796 0.12912 0.0669073 0.120976 
0.132101 0.0647133 0.0978725 0.134292 0.0622639 0.0745203 0.135621 0.059567 0.0509732 
0.136022 0.0566473 0.027301 0.13544 0.0535455 0.00358475 0.133837 0.0503161 -0.0200879 
0.131198 0.047024 -0.0436291 0.12754 0.0437408 -0.0669563 0.122911 0.0405397 -0.0899968 
0.117392 0.0374916 -0.112691 0.111092 0.0346602 -0.134992 0.104148 0.0320986 -0.156869 
0.096708 0.0298466 -0.178301 0.0889282 0.0279289 -0.199274 0.0809587 0.0263549 -0.219782 
0.0729351 0.0251194 -0.239818 0.0649706 0.0242043 -0.259374 0.0571505 0.0235818 -0.278439 
0.0495313 0.0232176 -0.297003 0.0421416 0.0230744 -0.315053 0.0349874 0.023116 -0.332578 
0.0280589 0.02331 -0.349577 0.0213393 0.023631 -0.366057 0.0148129 0.0240618 -0.382037 
0.00847265 0.0245941 -0.397554 0.00232534 0.0252286 -0.412658 -0.00360578 0.0259734 -0.427412 
-0.00928174 0.0268417 -0.441886 -0.0146514 0.0278497 -0.456154 -0.0196572 0.0290136 -0.470284 
-0.0242426 0.0303466 -0.484329 -0.02836 0.0318566 -0.498323 -0.0319768 0.0335444 -0.512275 
-0.0350812 0.0354025 -0.52616 -0.0376842 0.0374149 -0.539926 -0.0398189 0.0395575 -0.553488 
-0.0415376 0.0417994 -0.566738 -0.0429051 0.0441049 -0.579552 -0.0439923 0.0464359 -0.591796 
-0.0448673 0.0487536 -0.603336 -0.0455886 0.0510217 -0.614052 -0.0461994 0.0532075 -0.623843 
-0.0467241 0.0552838 -0.632635 -0.047168 0.0572297 -0.640386 -0.0475203 0.0590309 -0.647087 
-0.0477584 0.0606794 -0.652763 -0.0478552 0.0621724 -0.657467 -0.0477865 0.063512 -0.661278 
-0.0475379 0.0647031 -0.664291 -0.0471105 0.0657527 -0.666614 -0.0465242 0.0666685 -0.668358 
-0.0458179 0.0674581 -0.66963 -0.045047 0.0681283 -0.670533 -0.044278 0.0686846 -0.671156 
-0.0435816 0.0691315 -0.671574 -0.0430244 0.0694721 -0.671847 -0.0426608 0.0697087 -0.672019 
-0.0425265 0.0698424 -0.672116 
LINES 2 100
OFFSETS vtktypeint64
0 100 
CONNECTIVITY vtktypeint64
0 1 2 3 4 5 6 7 8 
9 10 11 12 13 14 15 16 17 
18 19 20 21 22 23 24 25 26 
27 28 29 30 31 32 33 34 35 
36 37 38 39 40 41 42 43 44 
45 46 47 48 49 50 51 52 53 
54 55 56 57 58 59 60 61 62 
63 64 65 66 67 68 69 70 71 
72 73 74 75 76 77 78 79 80 
81 82 83 84 85 86 87 88 89 
90 91 92 93 94 95 96 97 98 
99 
POINT_DATA 100
FIELD FieldData 3
_theta 1 100 double
0 0.031733259127 0.063466518254 0.095199777382 0.12693303651 0.15866629564 0.19039955476 0.22213281389 0.25386607302 
0.28559933214 0.31733259127 0.3490658504 0.38079910953 0.41253236865 0.44426562778 0.47599888691 0.50773214603 0.53946540516 
0.57119866429 0.60293192342 0.63466518254 0.66639844167 0.6981317008 0.72986495992 0.76159821905 0.79333147818 0.82506473731 
0.85679799643 0.88853125556 0.92026451469 0.95199777382 0.98373103294 1.0154642921 1.0471975512 1.0789308103 1.1106640695 
1.1423973286 1.1741305877 1.2058638468 1.237597106 1.2693303651 1.3010636242 1.3327968833 1.3645301425 1.3962634016 
1.4279966607 1.4597299198 1.491463179 1.5231964381 1.5549296972 1.5866629564 1.6183962155 1.6501294746 1.6818627337 
1.7135959929 1.745329252 1.7770625111 1.8087957702 1.8405290294 1.8722622885 1.9039955476 1.9357288068 1.9674620659 
1.999195325 2.0309285841 2.0626618433 2.0943951024 2.1261283615 2.1578616206 2.1895948798 2.2213281389 2.253061398 
2.2847946572 2.3165279163 2.3482611754 2.3799944345 2.4117276937 2.4434609528 2.4751942119 2.506927471 2.5386607302 
2.5703939893 2.6021272484 2.6338605076 2.6655937667 2.6973270258 2.7290602849 2.7607935441 2.7925268032 2.8242600623 
2.8559933214 2.8877265806 2.9194598397 2.9511930988 2.982926358 3.0146596171 3.0463928762 3.0781261353 3.1098593945 
3.1415926536 
_radius 1 100 double
5.5636776534e-16 0.014457368566 0.028571088959 0.042035443011 0.054623700282 0.066212257178 0.076788159478 0.086438597756 0.095324855537 
0.10364684851 0.11160615674 0.11937459406 0.12707267664 0.1347593344 0.14243190691 0.15003416541 0.1574696391 0.1646176525 
0.17134998854 0.17754675223 0.18311055033 0.18797827653 0.19212953818 0.19559039076 0.19843110164 0.2007574332 0.20269618274 
0.2043769708 0.20591321669 0.20738573173 0.20883213105 0.21024398577 0.21157161507 0.21273477948 0.21363704567 0.21418184208 
0.21428842425 0.21390591164 0.21302359085 0.21167616442 0.2099435826 0.20794620961 0.20583683344 0.2037909858 0.20199619025 
0.20063970407 0.1998939677 0.19989988694 0.20074997502 0.20247514689 0.2050392466 0.20834368811 0.21224167822 0.21655881419 
0.22111548925 0.22574667587 0.23031579851 0.23472098008 0.23889362707 0.24279091539 0.24638494846 0.24965179328 0.25256308133 
0.25508166229 0.25716149935 0.2587510758 0.25979916494 0.26026173465 0.26010879877 0.25933008321 0.25793846661 0.25597036163 
0.25348256997 0.25054564649 0.24723436157 0.24361636149 0.23974051322 0.23562661467 0.23125810117 0.22657907148 0.22149644124 
0.21588739748 0.20961165598 0.20252736611 0.19450891179 0.18546440118 0.17535043457 0.16418189046 0.15203501162 0.13904295071 
0.12538401513 0.11126395405 0.096894574626 0.082471596674 0.068154835781 0.054053480692 0.040218423408 0.026642446767 0.013267838044 
4.0385505543e-16 
_area 1 100 double
0 0.0005788630122 0.0022658150041 0.0049217792032 0.0083446084659 0.012303865609 0.016574220119 0.020959888316 0.025307327972 
0.029508185153 0.033497043414 0.037248109715 0.040772350402 0.044113338409 0.047338024396 0.050519434519 0.053712425095 0.056929244956 
0.060124752048 0.063198525605 0.066014108308 0.068429457941 0.070331784656 0.071673256192 0.072506587422 0.073019709871 0.073530326267 
0.074322564044 0.075521064909 0.077161723859 0.079248760415 0.081763822194 0.084664367439 0.087854778169 0.091145081524 0.094288409367 
0.097053874316 0.099254802492 0.10076045666 0.10151138741 0.10153071046 0.10092804562 0.099899560024 0.098730842674 0.09782516768 
0.097853322078 0.098827233874 0.10067888769 0.10344760518 0.10713477727 0.11169537777 0.1170276608 0.12296971749 0.12931584021 
0.13584501347 0.14235029112 0.14866086633 0.15464632454 0.16020178443 0.16522905883 0.16963015174 0.17331551198 0.17622216297 
0.1783352708 0.17969512476 0.18035896072 0.18033595437 0.17957994 0.17804138553 0.17570939829 0.17262626026 0.16889041302 
0.16465017258 0.16008542142 0.15537880459 0.15068085927 0.14607733098 0.14156913767 0.13707208029 0.13243560892 0.12747306669 
0.12199423856 0.11583417601 0.10887630986 0.10107001387 0.092442747542 0.083105722209 0.073250984647 0.063137957743 0.053069273075 
0.043358703992 0.034296888302 0.026121896832 0.019000765541 0.013025123753 0.0082202056449 0.0045633407473 0.0020065412243 0.00049815150058 
3.683104358e-17 
