# vtk DataFile Version 5.1
vtk output
ASCII
DATASET POLYDATA
POINTS 100 float
-0.173383 -0.0174965 0.712912 -0.172987 -0.0176726 0.712552 -0.171853 -0.0180853 0.711567 
-0.170005 -0.0186751 0.709951 -0.167478 -0.0193484 0.707697 -0.164313 -0.0199854 0.704794 
-0.160552 -0.020451 0.701225 -0.156232 -0.0206066 0.69697 -0.151381 -0.0203222 0.692006 
-0.146011 -0.0194874 0.686308 -0.14012 -0.0180203 0.679851 -0.133693 -0.0158737 0.672612 
-0.126707 -0.0130383 0.664576 -0.11913 -0.00954244 0.655735 -0.110938 -0.00544882 0.646089 
-0.102114 -0.000848613 0.635655 -0.0926599 0.00414613 0.624457 -0.0825986 0.0094111 0.612533 
-0.0719787 0.0148185 0.599928 -0.0608733 0.020245 0.586693 -0.0493775 0.0255786 0.572877 
-0.0376024 0.0307231 0.558522 -0.0256674 0.0356017 0.543659 -0.0136909 0.0401571 0.528304 
-0.00178111 0.0443512 0.512449 0.00997172 0.0481629 0.496068 0.0215014 0.0515845 0.479113 
0.0327689 0.0546185 0.461516 0.0437613 0.0572742 0.443197 0.0544884 0.059564 0.424071 
0.0649751 0.0615013 0.404055 0.0752518 0.0630985 0.383078 0.0853436 0.0643657 0.361091 
0.0952594 0.0653105 0.33807 0.104982 0.0659381 0.314028 0.11446 0.0662512 0.289014 
0.123608 0.066251 0.263113 0.132301 0.065938 0.236444 0.140384 0.065312 0.209157 
0.147679 0.0643736 0.181421 0.153996 0.0631248 0.153415 0.159148 0.0615698 0.125322 
0.162967 0.0597164 0.0973157 0.165314 0.0575771 0.0695522 0.166094 0.0551706 0.0421653 
0.165266 0.0525233 0.0152613 0.162844 0.0496704 -0.0110825 0.158899 0.0466565 -0.0368164 
0.153554 0.043536 -0.0619144 0.146975 0.0403726 -0.0863694 0.139362 0.0372374 -0.110187 
0.130932 0.0342064 -0.133376 0.121905 0.0313575 -0.155948 0.112492 0.0287662 -0.177906 
0.102879 0.0265018 -0.199245 0.0932224 0.0246225 -0.21995 0.0836401 0.0231725 -0.239997 
0.0742091 0.0221784 -0.259355 0.0649686 0.0216482 -0.277991 0.0559238 0.0215707 -0.295877 
0.0470536 0.0219167 -0.312991 0.03832 0.0226413 -0.32933 0.0296779 0.0236878 -0.344906 
0.0210843 0.0249917 -0.359755 0.0125074 0.0264852 -0.373936 0.00393238 0.0281011 -0.387527 
-0.00463406 0.0297773 -0.400629 -0.0131623 0.0314585 -0.413351 -0.0216006 0.0330986 -0.425812 
-0.0298788 0.034661 -0.438132 -0.037913 0.0361178 -0.450418 -0.0456119 0.0374491 -0.462766 
-0.0528837 0.038641 -0.475247 -0.0596428 0.0396844 -0.487905 -0.065816 0.0405733 -0.500753 
-0.0713473 0.0413045 -0.513768 -0.0762015 0.0418776 -0.526899 -0.0803661 0.0422956 -0.540061 
-0.0838515 0.0425667 -0.553145 -0.0866893 0.042705 -0.566019 -0.0889302 0.0427329 -0.578541 
-0.0906399 0.0426812 -0.590562 -0.0918945 0.0425893 -0.601937 -0.092776 0.042504 -0.61253 
-0.0933674 0.0424771 -0.622225 -0.0937483 0.0425614 -0.630931 -0.0939908 0.042806 -0.638586 
-0.0941567 0.043252 -0.645161 -0.0942954 0.0439266 -0.650661 -0.0944426 0.0448394 -0.655125 
-0.0946202 0.0459796 -0.658624 -0.0948372 0.0473144 -0.661255 -0.0950912 0.0487904 -0.663136 
-0.0953705 0.0503366 -0.664399 -0.0956571 0.0518691 -0.665181 -0.0959292 0.0532984 -0.665616 
-0.0961643 0.0545366 -0.665827 -0.0963419 0.0555051 -0.665918 -0.0964456 0.0561417 -0.66597 
-0.096465 0.0564068 -0.666031 
LINES 2 100
OFFSETS vtktypeint64
0 100 
CONNECTIVITY vtktypeint64
0 1 2 3 4 5 6 7 8 
9 10 11 12 13 14 15 16 17 
18 19 20 21 22 23 24 25 26 
27 28 29 30 31 32 33 34 35 
36 37 38 39 40 41 42 43 44 
45 46 47 48 49 50 51 52 53 
54 55 56 57 58 59 60 61 62 
63 64 65 66 67 68 69 70 71 
72 73 74 75 76 77 78 79 80 
81 82 83 84 85 86 87 88 89 
90 91 92 93 94 95 96 97 98 
99 
POINT_DATA 100
FIELD FieldData 3
_theta 1 100 double
0 0.031733259127 0.063466518254 0.095199777382 0.12693303651 0.15866629564 0.19039955476 0.22213281389 0.25386607302 
0.28559933214 0.31733259127 0.3490658504 0.38079910953 0.41253236865 0.44426562778 0.47599888691 0.50773214603 0.53946540516 
0.57119866429 0.60293192342 0.63466518254 0.66639844167 0.6981317008 0.72986495992 0.76159821905 0.79333147818 0.82506473731 
0.85679799643 0.88853125556 0.92026451469 0.95199777382 0.98373103294 1.0154642921 1.0471975512 1.0789308103 1.1106640695 
1.1423973286 1.1741305877 1.2058638468 1.237597106 1.2693303651 1.3010636242 1.3327968833 1.3645301425 1.3962634016 
1.4279966607 1.4597299198 1.491463179 1.5231964381 1.5549296972 1.5866629564 1.6183962155 1.6501294746 1.6818627337 
1.7135959929 1.745329252 1.7770625111 1.8087957702 1.8405290294 1.8722622885 1.9039955476 1.9357288068 1.9674620659 
1.999195325 2.0309285841 2.0626618433 2.0943951024 2.1261283615 2.1578616206 2.1895948798 2.2213281389 2.253061398 
2.2847946572 2.3165279163 2.3482611754 2.3799944345 2.4117276937 2.4434609528 2.4751942119 2.506927471 2.5386607302 
2.5703939893 2.6021272484 2.6338605076 2.6655937667 2.6973270258 2.7290602849 2.7607935441 2.7925268032 2.8242600623 
2.8559933214 2.8877265806 2.9194598397 2.9511930988 2.982926358 3.0146596171 3.0463928762 3.0781261353 3.1098593945 
3.1415926536 
_radius 1 100 double
4.472358011e-16 0.016317124312 0.032417074168 0.048093536123 0.063161458247 0.077462889668 0.090868597797 0.10327617262 0.11460630679 
0.12479937048 0.13381410724 0.1416293302 0.14824822149 0.15370369595 0.15806268223 0.16142726738 0.16393135654 0.16573256938 
0.16700024265 0.16790134928 0.16858660813 0.1691788861 0.16976531184 0.1703937024 0.17107324935 0.17177887861 0.17245810872 
0.17303876925 0.17343633626 0.17356126969 0.17332819147 0.17266793645 0.17154110977 0.16995050435 0.16795017892 0.16564961795 
0.16321102231 0.16083662256 0.15874308744 0.15712559809 0.15612485487 0.15581413179 0.15621052884 0.15729854548 0.15905187164 
0.16144612593 0.16446079862 0.16807158304 0.17223707481 0.17688651258 0.18191544343 0.1871924883 0.19257482132 0.19792638245 
0.20313287771 0.20810997574 0.21280381911 0.21718503889 0.22123870897 0.22495314477 0.2283102095 0.23127900442 0.23381378795 
0.23585602382 0.23733982654 0.23819978375 0.23838007187 0.23784377681 0.23658127331 0.23461640287 0.2320091298 0.2288535232 
0.22527044874 0.22139526517 0.21736191299 0.2132857129 0.20924760971 0.2052823336 0.20137212976 0.19744667398 0.193388895 
0.18904583094 0.18424332815 0.17880322913 0.17256158003 0.16538624739 0.15719217185 0.14795240363 0.13770322307 0.12654217667 
0.11461875368 0.10211853863 0.089242767005 0.076186050768 0.06311545474 0.050153993382 0.037370954131 0.024780305112 0.012347035392 
1.0661551356e-15 
_area 1 100 double
0 0.00047077662159 0.0018859625101 0.0042494403991 0.0075534638161 0.011761669386 0.016792319903 0.022506192564 0.028702831235 
0.035127512987 0.041489072856 0.047486362077 0.052839446077 0.057320836302 0.06078188584 0.063170080917 0.064534680714 0.065020767311 
0.064853352376 0.06430893949 0.063660193138 0.06309726517 0.062698272697 0.062476895324 0.062434936825 0.062588143218 0.062966276942 
0.063586238994 0.064421552749 0.065393186601 0.066378677752 0.067231522427 0.067809963641 0.068018726182 0.067854881898 0.067441791598 
0.067017285444 0.066842327659 0.067103838631 0.067893424878 0.069227411338 0.071035977365 0.07318358413 0.075505980834 0.077866705746 
0.080209946881 0.082600349858 0.085228972319 0.08836058906 0.092223196144 0.096905016374 0.10233653467 0.10834230353 0.11469855783 
0.12117288327 0.12755152792 0.13365887689 0.13936755043 0.14459656453 0.14929790481 0.15343579635 0.15696603247 0.15982358089 
0.16192412453 0.16317952788 0.16352089766 0.16291852558 0.16138730981 0.15897463458 0.15574897667 0.15181013624 0.1473035417 
0.14241436729 0.13733927651 0.1322507836 0.12727054985 0.12245683849 0.11780491715 0.11325629106 0.10871282664 0.10405357698 
0.099152755046 0.093896605837 0.088196672197 0.081998349071 0.075286197442 0.068089223028 0.060487660611 0.052617920688 0.044669126194 
0.036867269725 0.029449217851 0.022633471285 0.016595550641 0.011453902371 0.0072687483095 0.0040525083844 0.001787399091 0.00044456746135 
5.8113236445e-17 
