# vtk DataFile Version 5.1
vtk output
ASCII
DATASET POLYDATA
POINTS 100 float
-0.0505791 -0.00516298 0.661463 -0.0504328 -0.00521168 0.661188 -0.0499789 -0.00516955 0.660281 
-0.0492459 -0.0049851 0.658707 -0.0482778 -0.0045811 0.656417 -0.0471284 -0.00386521 0.653358 
-0.0458544 -0.0027427 0.649483 -0.0445069 -0.00112972 0.644764 -0.0431238 0.00103465 0.6392 
-0.0417218 0.00377916 0.632822 -0.0402908 0.00709515 0.625692 -0.03879 0.0109358 0.617903 
-0.0371475 0.0152202 0.609563 -0.0352627 0.0198409 0.600787 -0.0330121 0.0246753 0.591681 
-0.0302578 0.0295973 0.582324 -0.0268594 0.0344893 0.572761 -0.0226861 0.0392525 0.56299 
-0.01763 0.043814 0.55296 -0.0116177 0.0481298 0.542577 -0.0046202 0.052184 0.531711 
0.00334088 0.055984 0.520208 0.0121918 0.0595528 0.50791 0.0218096 0.0629197 0.494674 
0.0320298 0.0661108 0.480385 0.0426585 0.0691403 0.464976 0.0534876 0.0720048 0.448428 
0.0643114 0.0746802 0.430781 0.0749433 0.077123 0.412122 0.0852305 0.0792742 0.392582 
0.0950651 0.0810663 0.372314 0.10439 0.0824321 0.351481 0.113199 0.0833134 0.330234 
0.121532 0.0836693 0.308701 0.129461 0.0834813 0.286971 0.137076 0.0827566 0.26509 
0.144467 0.0815271 0.243063 0.151704 0.0798458 0.220858 0.15882 0.0777798 0.198417 
0.165797 0.0754026 0.175676 0.172561 0.0727853 0.152576 0.178975 0.0699889 0.129083 
0.184855 0.0670587 0.105196 0.189974 0.0640217 0.0809614 0.194085 0.0608867 0.056468 
0.196944 0.057648 0.0318479 0.198332 0.0542915 0.00726454 0.198078 0.0508025 -0.0171004 
0.196075 0.0471732 -0.041064 0.192298 0.0434101 -0.0644581 0.186801 0.0395389 -0.0871449 
0.179722 0.0356066 -0.109028 0.171267 0.0316799 -0.130057 0.161696 0.0278405 -0.150232 
0.151299 0.0241785 -0.169596 0.140374 0.0207828 -0.188225 0.129203 0.017732 -0.206218 
0.11803 0.015086 -0.223681 0.107046 0.0128797 -0.240716 0.0963825 0.0111197 -0.257407 
0.0861048 0.00978488 -0.273817 0.076221 0.00883054 -0.28998 0.0666906 0.00819515 -0.305906 
0.057441 0.00780972 -0.321584 0.0483844 0.00760765 -0.336992 0.0394352 0.00753405 -0.352105 
0.0305251 0.00755308 -0.366903 0.0216141 0.00765217 -0.381381 0.0126963 0.0078427 -0.395548 
0.00379992 0.00815677 -0.409434 -0.00501722 0.00864069 -0.423078 -0.0136775 0.00934602 -0.436529 
-0.0220951 0.0103195 -0.449832 -0.0301888 0.0115933 -0.463022 -0.0378938 0.0131769 -0.47611 
-0.0451705 0.0150526 -0.489081 -0.0520094 0.0171737 -0.501888 -0.0584317 0.0194679 -0.514455 
-0.064485 0.0218436 -0.526678 -0.0702356 0.0241994 -0.538438 -0.0757578 0.0264357 -0.549609 
-0.0811226 0.0284653 -0.560071 -0.0863867 0.0302235 -0.569723 -0.0915837 0.0316755 -0.578491 
-0.0967193 0.032819 -0.586337 -0.10177 0.0336837 -0.59326 -0.106685 0.034326 -0.599294 
-0.111397 0.0348204 -0.604506 -0.115824 0.0352487 -0.608981 -0.119889 0.0356882 -0.61282 
-0.123523 0.0362013 -0.616119 -0.126679 0.0368267 -0.618969 -0.129332 0.0375743 -0.621441 
-0.131485 0.0384245 -0.623586 -0.133168 0.0393312 -0.62543 -0.134426 0.0402293 -0.626982 
-0.135317 0.041044 -0.628232 -0.135899 0.041702 -0.629163 -0.136221 0.0421422 -0.629758 
-0.136317 0.0423248 -0.630003 
LINES 2 100
OFFSETS vtktypeint64
0 100 
CONNECTIVITY vtktypeint64
0 1 2 3 4 5 6 7 8 
9 10 11 12 13 14 15 16 17 
18 19 20 21 22 23 24 25 26 
27 28 29 30 31 32 33 34 35 
36 37 38 39 40 41 42 43 44 
45 46 47 48 49 50 51 52 53 
54 55 56 57 58 59 60 61 62 
63 64 65 66 67 68 69 70 71 
72 73 74 75 76 77 78 79 80 
81 82 83 84 85 86 87 88 89 
90 91 92 93 94 95 96 97 98 
99 
POINT_DATA 100
FIELD FieldData 3
_theta 1 100 double
0 0.031733259127 0.063466518254 0.095199777382 0.12693303651 0.15866629564 0.19039955476 0.22213281389 0.25386607302 
0.28559933214 0.31733259127 0.3490658504 0.38079910953 0.41253236865 0.44426562778 0.47599888691 0.50773214603 0.53946540516 
0.57119866429 0.60293192342 0.63466518254 0.66639844167 0.6981317008 0.72986495992 0.76159821905 0.79333147818 0.82506473731 
0.85679799643 0.88853125556 0.92026451469 0.95199777382 0.98373103294 1.0154642921 1.0471975512 1.0789308103 1.1106640695 
1.1423973286 1.1741305877 1.2058638468 1.237597106 1.2693303651 1.3010636242 1.3327968833 1.3645301425 1.3962634016 
1.4279966607 1.4597299198 1.491463179 1.5231964381 1.5549296972 1.5866629564 1.6183962155 1.6501294746 1.6818627337 
1.7135959929 1.745329252 1.7770625111 1.8087957702 1.8405290294 1.8722622885 1.9039955476 1.9357288068 1.9674620659 
1.999195325 2.0309285841 2.0626618433 2.0943951024 2.1261283615 2.1578616206 2.1895948798 2.2213281389 2.253061398 
2.2847946572 2.3165279163 2.3482611754 2.3799944345 2.4117276937 2.4434609528 2.4751942119 2.506927471 2.5386607302 
2.5703939893 2.6021272484 2.6338605076 2.6655937667 2.6973270258 2.7290602849 2.7607935441 2.7925268032 2.8242600623 
2.8559933214 2.8877265806 2.9194598397 2.9511930988 2.982926358 3.0146596171 3.0463928762 3.0781261353 3.1098593945 
3.1415926536 
_radius 1 100 double
1.3156765443e-16 0.012886761965 0.02566065123 0.038220631556 0.050492822794 0.062437438607 0.074048717968 0.085347315998 0.096366096113 
0.1071318544 0.11764679985 0.1278740592 0.1377306759 0.14708967503 0.15579053365 0.16365574196 0.17051051018 0.17620288234 
0.18062207929 0.18371342644 0.18548859255 0.18603012802 0.18548956785 0.18407876423 0.18205469444 0.17969876575 0.17729256782 
0.17509290647 0.17330936737 0.17208722891 0.17149745478 0.17153441954 0.1721213533 0.17312303807 0.17436470533 0.1756553207 
0.17681269794 0.17768739668 0.17818227551 0.17826494993 0.17797119865 0.17739846491 0.17669006902 0.17601302589 0.17553546581 
0.17541126236 0.17577572783 0.17674790009 0.17842951604 0.18089375187 0.18416534931 0.18820103889 0.19288053909 0.1980136684 
0.20336204294 0.20866888794 0.21368940937 0.21821587927 0.22209425747 0.22523162372 0.22759548814 0.22920708405 0.23013103237 
0.23046341657 0.23031959558 0.22982238171 0.22909081763 0.22822979231 0.22732102988 0.22641633832 0.22553414351 0.22466002525 
0.22375114968 0.22274340236 0.22155920095 0.2201139359 0.2183198724 0.21608771986 0.21332722434 0.20994851478 0.20586542727 
0.20100097205 0.1952940284 0.18870569629 0.18122367786 0.17286352442 0.16366636061 0.15369357141 0.14301969305 0.1317251537 
0.11989037005 0.10759203678 0.09490155904 0.081884914858 0.068603041056 0.055112059903 0.041463101263 0.027701935261 0.013868946729 
1.1495183806e-15 
_area 1 100 double
0 0.00046624818495 0.0018440627803 0.004075103896 0.0070759701073 0.010755471317 0.015032127139 0.019846286851 0.02516192547 
0.030955709964 0.037194901359 0.043810004344 0.050671147575 0.057577118587 0.064262267483 0.070420843555 0.075743337467 0.079956798022 
0.082861279817 0.084356821418 0.08445811551 0.083296016075 0.081106239008 0.078206839761 0.07496776792 0.07178037271 0.069048963046 
0.067022731003 0.065675966952 0.064977255453 0.064889275752 0.065370005475 0.066433914567 0.067999471074 0.069857079673 0.071867920826 
0.073914167002 0.075904586951 0.077794348062 0.079619570212 0.081553110674 0.083826797096 0.086234080199 0.088360418709 0.090014508447 
0.091209421336 0.092116409793 0.093038162836 0.094374378995 0.096523901417 0.099740651956 0.10407683988 0.10938796085 0.11536421931 
0.1215917041 0.12762434258 0.13305287074 0.13756259091 0.14097040647 0.14323368995 0.14443047201 0.14471848755 0.14428709899 
0.14331909489 0.14197514544 0.14040436707 0.13877383139 0.13736148031 0.1360006652 0.1346365576 0.13322449931 0.1317171173 
0.13006982844 0.1282504389 0.12624361799 0.12404320482 0.12163375393 0.11897073258 0.11597025958 0.11251428318 0.10847035389 
0.10372027373 0.09818956706 0.09186969316 0.084827056639 0.077196591243 0.069161987075 0.060928503361 0.052696760943 0.04464561774 
0.036928116802 0.029677679777 0.023016448444 0.017058102517 0.011903044872 0.0076297976579 0.0042887747543 0.0019028152531 0.0004749378827 
6.8387626914e-17 
