# vtk DataFile Version 5.1
vtk output
ASCII
DATASET POLYDATA
POINTS 100 float
-0.191093 -0.0477836 0.606337 -0.191048 -0.0477488 0.606581 -0.190958 -0.0474496 0.607266 
-0.190751 -0.0468737 0.608271 -0.190313 -0.0460031 0.609406 -0.189501 -0.0448157 0.610434 
-0.188162 -0.0432866 0.611101 -0.186141 -0.0413899 0.611158 -0.183304 -0.0391006 0.610385 
-0.179546 -0.0363964 0.608617 -0.174798 -0.0332589 0.60575 -0.169036 -0.0296753 0.60175 
-0.162274 -0.0256396 0.596643 -0.154562 -0.0211541 0.590506 -0.145978 -0.0162303 0.583445 
-0.136616 -0.0108906 0.575578 -0.126575 -0.00516956 0.567007 -0.115954 0.000885018 0.557807 
-0.104842 0.00721094 0.548006 -0.0933155 0.0137312 0.537589 -0.0814386 0.0203542 0.526492 
-0.0692665 0.0269751 0.514617 -0.0568492 0.0334784 0.50185 -0.0442373 0.0397417 0.488075 
-0.0314876 0.0456408 0.473198 -0.0186659 0.0510558 0.457163 -0.00584859 0.0558783 0.439966 
0.0068791 0.0600178 0.421659 0.0194272 0.0634082 0.402347 0.031707 0.066013 0.382181 
0.043638 0.0678287 0.361342 0.0551541 0.0688851 0.340017 0.066208 0.0692438 0.318383 
0.0767733 0.0689934 0.296587 0.0868423 0.0682426 0.274729 0.0964206 0.0671109 0.252854 
0.105519 0.065719 0.230952 0.114142 0.0641783 0.208965 0.122277 0.0625819 0.186803 
0.129887 0.0609974 0.164359 0.1369 0.0594625 0.141534 0.143208 0.0579839 0.118256 
0.148673 0.0565396 0.0945004 0.15313 0.0550845 0.0702999 0.156408 0.053559 0.0457495 
0.15834 0.0518986 0.0210039 0.158788 0.0500447 -0.00373382 0.157655 0.0479546 -0.0282295 
0.15491 0.0456095 -0.0522392 0.150588 0.04302 -0.0755318 0.144799 0.0402275 -0.0979107 
0.137725 0.037303 -0.119231 0.129605 0.0343411 -0.139409 0.120718 0.0314518 -0.158432 
0.111361 0.0287504 -0.176346 0.101822 0.0263466 -0.193255 0.0923602 0.0243333 -0.2093 
0.0831793 0.0227786 -0.224643 0.0744176 0.0217191 -0.239449 0.0661387 0.0211578 -0.253866 
0.0583327 0.0210644 -0.268017 0.0509258 0.0213804 -0.281989 0.043796 0.0220256 -0.29583 
0.0367937 0.0229078 -0.309555 0.0297647 0.0239323 -0.32315 0.0225721 0.0250116 -0.336587 
0.0151142 0.0260729 -0.349831 0.00733771 0.0270639 -0.362851 -0.000757224 0.0279554 -0.375632 
-0.00911865 0.0287401 -0.388173 -0.017652 0.02943 -0.400489 -0.0262344 0.0300508 -0.412611 
-0.0347324 0.0306347 -0.42457 -0.0430207 0.0312138 -0.436395 -0.0509983 0.0318138 -0.448101 
-0.0586009 0.0324491 -0.459681 -0.0658077 0.033121 -0.471103 -0.0726414 0.0338172 -0.482304 
-0.0791614 0.0345145 -0.4932 -0.0854523 0.0351832 -0.503689 -0.0916085 0.0357926 -0.513659 
-0.0977173 0.0363164 -0.523005 -0.103844 0.0367386 -0.531636 -0.110019 0.0370565 -0.539487 
-0.116232 0.0372825 -0.546527 -0.122429 0.037443 -0.552757 -0.128521 0.0375758 -0.558216 
-0.134392 0.0377248 -0.562969 -0.139914 0.0379337 -0.567101 -0.144963 0.0382395 -0.570704 
-0.149435 0.0386666 -0.57387 -0.153259 0.0392226 -0.576677 -0.156403 0.0398955 -0.579181 
-0.158881 0.0406548 -0.581417 -0.160741 0.0414537 -0.58339 -0.162064 0.0422343 -0.585087 
-0.162946 0.042935 -0.58648 -0.163484 0.0434972 -0.587531 -0.163761 0.0438728 -0.588206 
-0.163832 0.0440303 -0.58848 
LINES 2 100
OFFSETS vtktypeint64
0 100 
CONNECTIVITY vtktypeint64
0 1 2 3 4 5 6 7 8 
9 10 11 12 13 14 15 16 17 
18 19 20 21 22 23 24 25 26 
27 28 29 30 31 32 33 34 35 
36 37 38 39 40 41 42 43 44 
45 46 47 48 49 50 51 52 53 
54 55 56 57 58 59 60 61 62 
63 64 65 66 67 68 69 70 71 
72 73 74 75 76 77 78 79 80 
81 82 83 84 85 86 87 88 89 
90 91 92 93 94 95 96 97 98 
99 
POINT_DATA 100
FIELD FieldData 3
_theta 1 100 double
0 0.031733259127 0.063466518254 0.095199777382 0.12693303651 0.15866629564 0.19039955476 0.22213281389 0.25386607302 
0.28559933214 0.31733259127 0.3490658504 0.38079910953 0.41253236865 0.44426562778 0.47599888691 0.50773214603 0.53946540516 
0.57119866429 0.60293192342 0.63466518254 0.66639844167 0.6981317008 0.72986495992 0.76159821905 0.79333147818 0.82506473731 
0.85679799643 0.88853125556 0.92026451469 0.95199777382 0.98373103294 1.0154642921 1.0471975512 1.0789308103 1.1106640695 
1.1423973286 1.1741305877 1.2058638468 1.237597106 1.2693303651 1.3010636242 1.3327968833 1.3645301425 1.3962634016 
1.4279966607 1.4597299198 1.491463179 1.5231964381 1.5549296972 1.5866629564 1.6183962155 1.6501294746 1.6818627337 
1.7135959929 1.745329252 1.7770625111 1.8087957702 1.8405290294 1.8722622885 1.9039955476 1.9357288068 1.9674620659 
1.999195325 2.0309285841 2.0626618433 2.0943951024 2.1261283615 2.1578616206 2.1895948798 2.2213281389 2.253061398 
2.2847946572 2.3165279163 2.3482611754 2.3799944345 2.4117276937 2.4434609528 2.4751942119 2.506927471 2.5386607302 
2.5703939893 2.6021272484 2.6338605076 2.6655937667 2.6973270258 2.7290602849 2.7607935441 2.7925268032 2.8242600623 
2.8559933214 2.8877265806 2.9194598397 2.9511930988 2.982926358 3.0146596171 3.0463928762 3.0781261353 3.1098593945 
3.1415926536 
_radius 1 100 double
1.2177709379e-16 0.015833305867 0.031409619202 0.046478016653 0.060814800852 0.074233654452 0.086592071713 0.097793996141 0.1077891129 
0.11656946627 0.1241639878 0.13063128689 0.136050918 0.14051350008 0.14411055724 0.14692558772 0.14902828255 0.1504736044 
0.151306403 0.15157060267 0.15132037135 0.15062979658 0.14959786413 0.14834683876 0.14701396541 0.14573814324 0.14464443361 
0.14382971838 0.1433524712 0.1432285614 0.14343355481 0.14391041839 0.14458007463 0.14535132455 0.14612792832 0.1468154894 
0.14733388447 0.14763494309 0.1477174148 0.14763216232 0.14747584023 0.14737537065 0.14746834001 0.14788616022 0.14874520177 
0.15014520607 0.15216846693 0.15487304516 0.15827868177 0.16235064842 0.16699015883 0.17203808367 0.17729271332 0.18253620317 
0.18756185549 0.192195994 0.19631157145 0.19983344715 0.20273663974 0.20503923805 0.20679177416 0.20806503832 0.20893833232 
0.20948967126 0.20978852663 0.20989099283 0.20983729545 0.20965200426 0.20934718685 0.20892752077 0.20839491095 0.20775031152 
0.20699244718 0.2061147611 0.20510193864 0.20392665189 0.20254673322 0.20090300028 0.1989182066 0.19649782483 0.19353338148 
0.18990876035 0.18550930714 0.18023284857 0.17400109835 0.16676955681 0.15853403409 0.14933236378 0.13924068625 0.12836476775 
0.11682795605 0.10475818342 0.092276525706 0.079489114652 0.066483036531 0.053325805964 0.040067430235 0.02674395011 0.01338147374 
1.20409417e-15 
_area 1 100 double
0 0.00060841607915 0.0023922525016 0.0052349503754 0.0089642509272 0.01337478603 0.018245428172 0.023348632901 0.02845580502 
0.033345142883 0.037815191371 0.041702218083 0.044896359258 0.047351191024 0.04908310392 0.050159612213 0.050679031506 0.050747607108 
0.050463300862 0.049918068609 0.049264302668 0.04879689798 0.048378148337 0.047962665725 0.047553626718 0.047182761002 0.046897194059 
0.046752309676 0.046800457426 0.047076572923 0.047591037471 0.048340861356 0.049332555534 0.050608654214 0.052156032977 0.053863040542 
0.055561083561 0.057075736687 0.05832542471 0.059379850494 0.060447773113 0.061784488071 0.063540923129 0.065621189661 0.067824688565 
0.070008767494 0.072115394895 0.074179981018 0.076337998924 0.078812660519 0.081840464735 0.08553598914 0.089817999289 0.094463740361 
0.099204474492 0.10378022226 0.10795037008 0.11149676914 0.11424048991 0.11606706456 0.11694294704 0.11699363681 0.11629985013 
0.11492707591 0.11296487182 0.11059097752 0.10798279287 0.10528532935 0.10260894062 0.10006854496 0.09786294096 0.096164098122 
0.094993077323 0.09421682005 0.093645064124 0.093093156766 0.09239798185 0.091420251234 0.090040074543 0.088151390683 0.085659765303 
0.082486068102 0.078577461868 0.073923543857 0.068570904875 0.062628385177 0.056258729104 0.049657689248 0.04302636557 0.036545178674 
0.030357478072 0.024566975257 0.019247118607 0.014455669025 0.010247283694 0.0066801314067 0.0038160951127 0.0017160276945 0.00043215909377 
5.5030597876e-17 
