# vtk DataFile Version 5.1
vtk output
ASCII
DATASET POLYDATA
POINTS 100 float
-0.156497 -0.0115916 0.766768 -0.155937 -0.0116728 0.766578 -0.154269 -0.0117846 0.766068 
-0.151497 -0.0118965 0.765122 -0.147635 -0.0119618 0.763562 -0.142707 -0.0119226 0.761181 
-0.136764 -0.0117155 0.757774 -0.129878 -0.0112782 0.753175 -0.122154 -0.0105551 0.74728 
-0.113719 -0.00950206 0.740076 -0.104717 -0.00808887 0.73164 -0.0952961 -0.00630036 0.722137 
-0.0855917 -0.00413516 0.711799 -0.0757091 -0.00160307 0.700892 -0.0657086 0.00127862 0.68968 
-0.0555941 0.00448905 0.678384 -0.0453091 0.00800717 0.667146 -0.0347416 0.011814 0.656003 
-0.0237372 0.0158933 0.644873 -0.0121207 0.0202299 0.633557 0.000275972 0.0248072 0.621754 
0.0135835 0.0296021 0.609097 0.0278661 0.03458 0.59519 0.0430974 0.0396902 0.579658 
0.0591452 0.0448615 0.562193 0.0757687 0.0500006 0.542589 0.0926276 0.0549929 0.520777 
0.109305 0.0597062 0.496831 0.125343 0.0639975 0.470969 0.14028 0.0677219 0.443526 
0.153696 0.0707443 0.414929 0.165255 0.0729507 0.385645 0.17474 0.0742591 0.356136 
0.182067 0.0746291 0.326815 0.187303 0.0740681 0.298006 0.190648 0.0726331 0.269916 
0.192411 0.0704288 0.242627 0.192979 0.0676011 0.216098 0.192765 0.0643265 0.190186 
0.192164 0.0607986 0.164673 0.191505 0.0572129 0.139309 0.191019 0.0537512 0.113849 
0.190812 0.0505678 0.0880936 0.19086 0.0477775 0.0619142 0.191019 0.0454486 0.0352756 
0.191047 0.0435996 0.00823897 0.190642 0.0422012 -0.0190452 0.189487 0.0411829 -0.0463572 
0.18729 0.0404428 -0.0734359 0.183831 0.0398613 -0.100011 0.178987 0.0393145 -0.125835 
0.172752 0.0386889 -0.15071 0.16524 0.037893 -0.174509 0.156667 0.0368671 -0.197184 
0.147332 0.0355884 -0.218764 0.137575 0.034073 -0.239346 0.127737 0.0323724 -0.259073 
0.118122 0.0305673 -0.27811 0.108964 0.0287583 -0.296622 0.100403 0.0270546 -0.314748 
0.0924743 0.0255628 -0.332589 0.0851137 0.0243761 -0.350193 0.0781759 0.0235657 -0.367562 
0.0714606 0.0231748 -0.384652 0.0647474 0.0232158 -0.401395 0.0578301 0.023671 -0.417709 
0.0505484 0.0244961 -0.433522 0.0428114 0.0256262 -0.448786 0.0346099 0.0269841 -0.46349 
0.0260166 0.0284876 -0.477661 0.0171738 0.0300587 -0.491364 0.00827183 0.0316295 -0.504692 
-0.000479155 0.0331478 -0.517754 -0.00887981 0.0345797 -0.53065 -0.0167693 0.0359098 -0.543464 
-0.0240465 0.0371392 -0.556242 -0.030682 0.0382822 -0.568984 -0.0367184 0.0393608 -0.581644 
-0.0422595 0.0403996 -0.594131 -0.0474509 0.0414202 -0.606323 -0.0524532 0.0424367 -0.618078 
-0.0574141 0.0434531 -0.629259 -0.0624419 0.0444613 -0.639745 -0.0675857 0.0454417 -0.649451 
-0.0728245 0.0463655 -0.658338 -0.0780676 0.0471979 -0.666413 -0.0831655 0.0479026 -0.67373 
-0.087931 0.0484468 -0.680376 -0.092166 0.0488052 -0.686458 -0.0956917 0.0489646 -0.692084 
-0.0983761 0.0489257 -0.697347 -0.100156 0.0487048 -0.702309 -0.101048 0.048333 -0.706988 
-0.101155 0.0478539 -0.711359 -0.100647 0.0473203 -0.715355 -0.0997487 0.0467894 -0.718877 
-0.0987059 0.0463179 -0.721807 -0.0977555 0.0459563 -0.724027 -0.0970936 0.0457448 -0.725438 
-0.0968496 0.045709 -0.72597 
LINES 2 100
OFFSETS vtktypeint64
0 100 
CONNECTIVITY vtktypeint64
0 1 2 3 4 5 6 7 8 
9 10 11 12 13 14 15 16 17 
18 19 20 21 22 23 24 25 26 
27 28 29 30 31 32 33 34 35 
36 37 38 39 40 41 42 43 44 
45 46 47 48 49 50 51 52 53 
54 55 56 57 58 59 60 61 62 
63 64 65 66 67 68 69 70 71 
72 73 74 75 76 77 78 79 80 
81 82 83 84 85 86 87 88 89 
90 91 92 93 94 95 96 97 98 
99 
POINT_DATA 100
FIELD FieldData 3
_theta 1 100 double
0 0.031733259127 0.063466518254 0.095199777382 0.12693303651 0.15866629564 0.19039955476 0.22213281389 0.25386607302 
0.28559933214 0.31733259127 0.3490658504 0.38079910953 0.41253236865 0.44426562778 0.47599888691 0.50773214603 0.53946540516 
0.57119866429 0.60293192342 0.63466518254 0.66639844167 0.6981317008 0.72986495992 0.76159821905 0.79333147818 0.82506473731 
0.85679799643 0.88853125556 0.92026451469 0.95199777382 0.98373103294 1.0154642921 1.0471975512 1.0789308103 1.1106640695 
1.1423973286 1.1741305877 1.2058638468 1.237597106 1.2693303651 1.3010636242 1.3327968833 1.3645301425 1.3962634016 
1.4279966607 1.4597299198 1.491463179 1.5231964381 1.5549296972 1.5866629564 1.6183962155 1.6501294746 1.6818627337 
1.7135959929 1.745329252 1.7770625111 1.8087957702 1.8405290294 1.8722622885 1.9039955476 1.9357288068 1.9674620659 
1.999195325 2.0309285841 2.0626618433 2.0943951024 2.1261283615 2.1578616206 2.1895948798 2.2213281389 2.253061398 
2.2847946572 2.3165279163 2.3482611754 2.3799944345 2.4117276937 2.4434609528 2.4751942119 2.506927471 2.5386607302 
2.5703939893 2.6021272484 2.6338605076 2.6655937667 2.6973270258 2.7290602849 2.7607935441 2.7925268032 2.8242600623 
2.8559933214 2.8877265806 2.9194598397 2.9511930988 2.982926358 3.0146596171 3.0463928762 3.0781261353 3.1098593945 
3.1415926536 
_radius 1 100 double
7.8553673e-16 0.016962021239 0.033533005547 0.049357408814 0.064153994402 0.077741601939 0.090051904966 0.10112654814 0.11109754374 
0.12015223448 0.12848785647 0.13626492965 0.14357083659 0.15040247961 0.15667035564 0.16221971 0.16686120828 0.17040400914 
0.17268623403 0.17359991534 0.17310897983 0.17125971349 0.16818356557 0.16409228012 0.15926564807 0.1540330314 0.14875089899 
0.14377906159 0.13945761923 0.13608534097 0.1338993901 0.13305676184 0.1336192472 0.1355448729 0.13868834105 0.14281143458 
0.14760349672 0.15271195513 0.15778094021 0.16249243423 0.16660271786 0.16996824337 0.17255750353 0.17444786669 0.17580863464 
0.17687353111 0.17790713151 0.17917029695 0.18088952811 0.18323427815 0.18630445359 0.19012766459 0.19466332568 0.19981010651 
0.20541491369 0.21128393361 0.21719721381 0.22292713939 0.22825896744 0.23300998731 0.23704392631 0.24027868048 0.2426872677 
0.24429314631 0.24516142675 0.24538733691 0.24508307314 0.24436413759 0.24333636105 0.24208485502 0.24066601869 0.23910342228 
0.2373878987 0.2354815286 0.23332453818 0.23084369153 0.22796073944 0.22459983552 0.22069330728 0.21618558497 0.21103542578 
0.20521682262 0.19871901817 0.19154574475 0.18371334291 0.17524720183 0.16617636969 0.1565271684 0.1463176798 0.13555523933 
0.12423811405 0.11236082718 0.099921264204 0.086927514826 0.0734031546 0.059390583384 0.044952531852 0.030171837928 0.015149379254 
7.9500085657e-16 
_area 1 100 double
0 0.00059666356327 0.0023445413846 0.0051240034853 0.0087565892371 0.013031555789 0.017735508419 0.022682247423 0.027738524255 
0.032834058182 0.037943401705 0.043042831495 0.048065481957 0.052881011498 0.057308210732 0.061148707527 0.064223948372 0.066404477751 
0.067629340489 0.067916686842 0.067364154096 0.066134248287 0.064423071905 0.062423353706 0.060301122135 0.058193272461 0.056216049307 
0.054471979722 0.053048582988 0.052009785867 0.051388375722 0.05118868999 0.051402943692 0.052038818528 0.053154360748 0.05489383441 
0.057481834898 0.061055518411 0.065474630713 0.070403258209 0.075462184636 0.080312036332 0.084700416817 0.088479522646 0.091602681001 
0.094109515169 0.096110472699 0.09777672183 0.09933396685 0.10105340421 0.10323024789 0.10614119314 0.10998384441 0.114820055 
0.120547306 0.12690451773 0.13350823486 0.13991412992 0.14569204387 0.15049448049 0.15410004226 0.15642413133 0.15750145644 
0.15745415079 0.15647802534 0.15485114455 0.15259568985 0.14974906711 0.14641166195 0.14271399721 0.13880105285 0.1348131883 
0.13086984631 0.12705553008 0.12340747865 0.11990667788 0.11647670645 0.11299418272 0.10930982091 0.10527509881 0.10076879983 
0.095718707792 0.090114961613 0.084012576543 0.077521649551 0.070785536424 0.063950530858 0.057135187811 0.05041124419 0.043806319254 
0.037328329635 0.030999026376 0.024880214292 0.019083000517 0.013760042593 0.0090866815454 0.0052382217574 0.0023692711559 0.00059856490717 
4.6695491422e-17 
