# vtk DataFile Version 5.1
vtk output
ASCII
DATASET POLYDATA
POINTS 100 float
-0.168741 -0.0470857 0.71177 -0.168756 -0.0471419 0.711672 -0.168784 -0.0471444 0.711383 
-0.16875 -0.0470342 0.710849 -0.168542 -0.0467222 0.709988 -0.168017 -0.0460985 0.708699 
-0.167024 -0.0450446 0.70687 -0.165413 -0.0434467 0.704397 -0.163056 -0.0412086 0.701185 
-0.159856 -0.0382621 0.697167 -0.155757 -0.0345755 0.692301 -0.150747 -0.0301576 0.686578 
-0.144856 -0.025058 0.680017 -0.138151 -0.0193634 0.67266 -0.130722 -0.0131906 0.664564 
-0.122677 -0.00667615 0.655791 -0.114124 3.37767e-05 0.646399 -0.105165 0.00679512 0.63643 
-0.0958859 0.0134756 0.625907 -0.0863501 0.0199627 0.614826 -0.0766011 0.026168 0.60316 
-0.0666626 0.0320292 0.590858 -0.0565438 0.0375081 0.577854 -0.0462451 0.0425861 0.564071 
-0.0357648 0.0472581 0.549433 -0.0251039 0.051525 0.533871 -0.0142696 0.0553863 0.51733 
-0.00327608 0.0588349 0.499775 0.00785625 0.0618526 0.481192 0.0191039 0.0644095 0.461586 
0.030444 0.0664655 0.440981 0.041857 0.0679746 0.419412 0.0533286 0.0688917 0.396921 
0.0648488 0.0691799 0.373548 0.0764081 0.0688183 0.349334 0.0879911 0.067809 0.324309 
0.0995669 0.0661817 0.2985 0.11108 0.063996 0.27193 0.12244 0.0613402 0.244624 
0.133515 0.058327 0.216617 0.144128 0.0550861 0.187959 0.154059 0.0517555 0.158724 
0.163051 0.04847 0.129015 0.170828 0.0453516 0.0989668 0.177109 0.0424996 0.0687451 
0.181633 0.0399837 0.0385438 0.18418 0.0378402 0.00857672 0.184596 0.0360716 -0.0209326 
0.182808 0.0346492 -0.0497628 0.178837 0.0335205 -0.0777081 0.172799 0.0326167 -0.104591 
0.164904 0.0318641 -0.130271 0.155437 0.0311933 -0.154658 0.144739 0.0305491 -0.177708 
0.13318 0.0298973 -0.199433 0.121129 0.0292284 -0.219887 0.108923 0.0285585 -0.239169 
0.0968478 0.0279261 -0.257407 0.0851136 0.027386 -0.274746 0.0738475 0.027001 -0.291339 
0.0630922 0.0268323 -0.307337 0.0528138 0.0269302 -0.322874 0.0429174 0.0273256 -0.338066 
0.0332692 0.0280244 -0.353002 0.0237199 0.0290049 -0.367746 0.0141289 0.0302187 -0.382336 
0.00438497 0.0315955 -0.396789 -0.00557899 0.0330505 -0.411104 -0.0157779 0.034494 -0.425267 
-0.0261747 0.0358427 -0.439258 -0.0366875 0.0370291 -0.453053 -0.0472033 0.0380108 -0.466627 
-0.0575943 0.038776 -0.479957 -0.0677367 0.0393453 -0.49302 -0.0775271 0.03977 -0.505794 
-0.0868949 0.0401258 -0.518254 -0.0958099 0.0405037 -0.530371 -0.104283 0.0409984 -0.542115 
-0.112359 0.0416955 -0.553445 -0.120109 0.0426597 -0.564318 -0.127613 0.0439247 -0.574684 
-0.134943 0.0454865 -0.584493 -0.142151 0.047301 -0.593694 -0.149258 0.0492865 -0.602242 
-0.156245 0.0513301 -0.610097 -0.163053 0.0532991 -0.617234 -0.169593 0.0550543 -0.623636 
-0.175751 0.0564653 -0.629305 -0.181409 0.0574251 -0.634255 -0.186456 0.0578628 -0.638516 
-0.190806 0.0577532 -0.642128 -0.194411 0.0571208 -0.645145 -0.197266 0.0560396 -0.647621 
-0.19941 0.0546269 -0.649618 -0.200922 0.0530324 -0.651196 -0.201911 0.0514239 -0.652411 
-0.202499 0.0499706 -0.653312 -0.202805 0.0488257 -0.65394 -0.20293 0.0481113 -0.654325 
-0.202939 0.0479052 -0.654485 
LINES 2 100
OFFSETS vtktypeint64
0 100 
CONNECTIVITY vtktypeint64
0 1 2 3 4 5 6 7 8 
9 10 11 12 13 14 15 16 17 
18 19 20 21 22 23 24 25 26 
27 28 29 30 31 32 33 34 35 
36 37 38 39 40 41 42 43 44 
45 46 47 48 49 50 51 52 53 
54 55 56 57 58 59 60 61 62 
63 64 65 66 67 68 69 70 71 
72 73 74 75 76 77 78 79 80 
81 82 83 84 85 86 87 88 89 
90 91 92 93 94 95 96 97 98 
99 
POINT_DATA 100
FIELD FieldData 3
_theta 1 100 double
0 0.031733259127 0.063466518254 0.095199777382 0.12693303651 0.15866629564 0.19039955476 0.22213281389 0.25386607302 
0.28559933214 0.31733259127 0.3490658504 0.38079910953 0.41253236865 0.44426562778 0.47599888691 0.50773214603 0.53946540516 
0.57119866429 0.60293192342 0.63466518254 0.66639844167 0.6981317008 0.72986495992 0.76159821905 0.79333147818 0.82506473731 
0.85679799643 0.88853125556 0.92026451469 0.95199777382 0.98373103294 1.0154642921 1.0471975512 1.0789308103 1.1106640695 
1.1423973286 1.1741305877 1.2058638468 1.237597106 1.2693303651 1.3010636242 1.3327968833 1.3645301425 1.3962634016 
1.4279966607 1.4597299198 1.491463179 1.5231964381 1.5549296972 1.5866629564 1.6183962155 1.6501294746 1.6818627337 
1.7135959929 1.745329252 1.7770625111 1.8087957702 1.8405290294 1.8722622885 1.9039955476 1.9357288068 1.9674620659 
1.999195325 2.0309285841 2.0626618433 2.0943951024 2.1261283615 2.1578616206 2.1895948798 2.2213281389 2.253061398 
2.2847946572 2.3165279163 2.3482611754 2.3799944345 2.4117276937 2.4434609528 2.4751942119 2.506927471 2.5386607302 
2.5703939893 2.6021272484 2.6338605076 2.6655937667 2.6973270258 2.7290602849 2.7607935441 2.7925268032 2.8242600623 
2.8559933214 2.8877265806 2.9194598397 2.9511930988 2.982926358 3.0146596171 3.0463928762 3.0781261353 3.1098593945 
3.1415926536 
_radius 1 100 double
6.9558734195e-16 0.015494485344 0.030862479216 0.045977304154 0.060717060314 0.074965490618 0.088611829622 0.10155029816 0.1136801742 
0.12490727449 0.13514724317 0.14433041202 0.15240739419 0.15935420491 0.16517568998 0.16990637844 0.17360845867 0.17636725627 
0.1782851862 0.1794754135 0.18005620327 0.18014630398 0.17986109381 0.17930891123 0.17858701376 0.17777691028 0.17693934118 
0.17610980587 0.17529598365 0.17447832755 0.17361440978 0.17264656823 0.17151161673 0.17015119285 0.16852161474 0.16660251599 
0.16440376298 0.16197031132 0.1593849021 0.15676852464 0.15427774762 0.15209669813 0.15042150087 0.14943839845 0.14930247046 
0.15012537065 0.15197360633 0.1548703969 0.15879371836 0.16367127091 0.16937987734 0.17575334292 0.18259466608 0.1896867797 
0.1968004659 0.20370178794 0.21016167621 0.21596870121 0.22094428488 0.22495830652 0.22794233488 0.22989758932 0.23089529548 
0.2310683971 0.23059543054 0.22967922902 0.22852423695 0.22731604174 0.22620540379 0.22529734243 0.22464461817 0.22424473848 
0.22404025426 0.22392297184 0.22374304657 0.22332331626 0.22247782663 0.22103195738 0.21884063005 0.21580118737 0.21185864057 
0.20700272429 0.20125808521 0.19467045489 0.18729239101 0.17917187356 0.17034579356 0.16083861446 0.15066489679 0.1398335646 
0.12835199937 0.11622904097 0.10347717965 0.090114999258 0.076170874003 0.061688058326 0.046730109358 0.031384714771 0.015763967402 
2.2589974195e-16 
_area 1 100 double
0 0.00050736099029 0.0020211837989 0.0045141635021 0.0079332547432 0.012191272969 0.01716022084 0.022669608499 0.028511700789 
0.034453605111 0.040254209593 0.045683000981 0.050538229213 0.054663309283 0.057961089583 0.060404318776 0.062038845307 0.062977901671 
0.063397304497 0.063612291957 0.064135348384 0.064802060514 0.065526175564 0.066110720534 0.066480276545 0.066618380447 0.066540564811 
0.06633420034 0.066102969551 0.065894778592 0.06567764137 0.065442410629 0.065183940704 0.064895837662 0.06455479093 0.064122733333 
0.063570597644 0.062881063192 0.062047534618 0.061098601449 0.06013297579 0.059325530015 0.058868796195 0.058882437553 0.059413691236 
0.060512868424 0.062342085986 0.065312262814 0.069590419177 0.074838802248 0.08070858715 0.086986047025 0.093544458975 0.10028137982 
0.10708035176 0.11380085454 0.120283354 0.12633218475 0.1316713645 0.13596350426 0.13889785615 0.1402736723 0.14005636004 
0.13839719573 0.13561503913 0.13214699755 0.12847882091 0.12507015245 0.12237345722 0.12071546891 0.11980635459 0.11947845657 
0.11951545917 0.11965074192 0.11958732883 0.1190331953 0.11774205552 0.11554508811 0.1123655317 0.10821640562 0.10318601324 
0.097415921692 0.091074736861 0.084331221919 0.07733221216 0.070191392973 0.06299161211 0.055797429027 0.04867062367 0.041681890345 
0.034915477047 0.028467311081 0.022439428551 0.016933997159 0.012049409898 0.0078792753263 0.0045128483834 0.0020335550788 0.00051282443229 
4.4222303775e-17 
