# vtk DataFile Version 5.1
vtk output
ASCII
DATASET POLYDATA
POINTS 100 float
-0.0473032 -0.0121598 0.652303 -0.0474958 -0.0122239 0.652069 -0.0480857 -0.012244 0.651337 
-0.048964 -0.012167 0.650084 -0.0499624 -0.0119135 0.648274 -0.0508719 -0.0113884 0.645865 
-0.0514661 -0.0104934 0.64281 -0.0515253 -0.00914082 0.639067 -0.0508598 -0.00726529 0.634604 
-0.0493283 -0.00483281 0.629397 -0.0468506 -0.00184581 0.62344 -0.0434126 0.00165651 0.61674 
-0.0390635 0.0056023 0.609313 -0.0339057 0.00989513 0.601188 -0.0280795 0.0144246 0.592394 
-0.0217442 0.019078 0.58296 -0.0150588 0.0237514 0.572909 -0.00816447 0.0283588 0.562254 
-0.00117086 0.0328374 0.550996 0.00585149 0.0371491 0.539126 0.0128727 0.0412786 0.526625 
0.0198988 0.0452265 0.513468 0.0269618 0.0490017 0.499632 0.0341058 0.0526111 0.485098 
0.041373 0.0560516 0.469858 0.0487892 0.0593026 0.453919 0.0563536 0.062323 0.437304 
0.0640322 0.0650517 0.420054 0.0717573 0.0674117 0.402227 0.0794325 0.0693187 0.383887 
0.0869423 0.0706911 0.365107 0.094165 0.071462 0.345957 0.100987 0.0715891 0.326497 
0.107315 0.0710637 0.306774 0.11309 0.0699152 0.286817 0.118288 0.0682112 0.266633 
0.122928 0.0660533 0.246213 0.127058 0.0635681 0.225529 0.130753 0.0608956 0.204545 
0.134096 0.058175 0.183224 0.137165 0.0555316 0.161533 0.140015 0.0530646 0.139454 
0.142669 0.0508386 0.116991 0.145107 0.0488795 0.0941707 0.147261 0.0471751 0.0710495 
0.149024 0.0456809 0.0477094 0.150256 0.0443293 0.0242553 0.150797 0.0430416 0.000808804 
0.150487 0.0417408 -0.0224997 0.149184 0.0403642 -0.0455397 0.146781 0.0388726 -0.0681894 
0.143218 0.0372563 -0.0903427 0.138495 0.0355367 -0.111916 0.132668 0.0337632 -0.132849 
0.125853 0.0320064 -0.153109 0.11821 0.0303479 -0.172687 0.10993 0.0288696 -0.191594 
0.101219 0.0276425 -0.209857 0.0922778 0.0267176 -0.227511 0.0832874 0.0261202 -0.244595 
0.0743928 0.0258481 -0.261147 0.0656955 0.0258733 -0.277198 0.0572497 0.0261479 -0.292772 
0.0490644 0.026613 -0.307888 0.0411109 0.0272084 -0.322557 0.0333334 0.027882 -0.336788 
0.0256628 0.0285981 -0.350588 0.0180301 0.0293421 -0.36397 0.0103791 0.0301217 -0.376952 
0.00267604 0.0309639 -0.389559 -0.00508434 0.0319088 -0.401822 -0.0128771 0.0329999 -0.413781 
-0.0206494 0.0342742 -0.425474 -0.0283267 0.0357522 -0.436941 -0.0358208 0.0374291 -0.44821 
-0.0430396 0.0392709 -0.459303 -0.0498965 0.0412132 -0.470221 -0.0563188 0.0431652 -0.480948 
-0.0622532 0.0450178 -0.491447 -0.0676692 0.0466549 -0.501663 -0.0725589 0.0479659 -0.511523 
-0.0769351 0.0488595 -0.520943 -0.0808266 0.0492743 -0.52983 -0.0842726 0.049187 -0.538096 
-0.0873173 0.0486159 -0.545658 -0.0900044 0.04762 -0.552448 -0.0923733 0.0462919 -0.558419 
-0.0944566 0.0447482 -0.563547 -0.0962799 0.0431162 -0.567836 -0.0978621 0.04152 -0.571317 
-0.0992177 0.0400672 -0.574043 -0.100359 0.0388385 -0.576093 -0.101298 0.0378808 -0.577559 
-0.10205 0.0372054 -0.578545 -0.102631 0.0367906 -0.579159 -0.103061 0.0365894 -0.579506 
-0.103359 0.0365395 -0.57968 -0.103545 0.0365753 -0.579762 -0.103635 0.03664 -0.579812 
-0.10364 0.0366954 -0.579866 
LINES 2 100
OFFSETS vtktypeint64
0 100 
CONNECTIVITY vtktypeint64
0 1 2 3 4 5 6 7 8 
9 10 11 12 13 14 15 16 17 
18 19 20 21 22 23 24 25 26 
27 28 29 30 31 32 33 34 35 
36 37 38 39 40 41 42 43 44 
45 46 47 48 49 50 51 52 53 
54 55 56 57 58 59 60 61 62 
63 64 65 66 67 68 69 70 71 
72 73 74 75 76 77 78 79 80 
81 82 83 84 85 86 87 88 89 
90 91 92 93 94 95 96 97 98 
99 
POINT_DATA 100
FIELD FieldData 3
_theta 1 100 double
0 0.031733259127 0.063466518254 0.095199777382 0.12693303651 0.15866629564 0.19039955476 0.22213281389 0.25386607302 
0.28559933214 0.31733259127 0.3490658504 0.38079910953 0.41253236865 0.44426562778 0.47599888691 0.50773214603 0.53946540516 
0.57119866429 0.60293192342 0.63466518254 0.66639844167 0.6981317008 0.72986495992 0.76159821905 0.79333147818 0.82506473731 
0.85679799643 0.88853125556 0.92026451469 0.95199777382 0.98373103294 1.0154642921 1.0471975512 1.0789308103 1.1106640695 
1.1423973286 1.1741305877 1.2058638468 1.237597106 1.2693303651 1.3010636242 1.3327968833 1.3645301425 1.3962634016 
1.4279966607 1.4597299198 1.491463179 1.5231964381 1.5549296972 1.5866629564 1.6183962155 1.6501294746 1.6818627337 
1.7135959929 1.745329252 1.7770625111 1.8087957702 1.8405290294 1.8722622885 1.9039955476 1.9357288068 1.9674620659 
1.999195325 2.0309285841 2.0626618433 2.0943951024 2.1261283615 2.1578616206 2.1895948798 2.2213281389 2.253061398 
2.2847946572 2.3165279163 2.3482611754 2.3799944345 2.4117276937 2.4434609528 2.4751942119 2.506927471 2.5386607302 
2.5703939893 2.6021272484 2.6338605076 2.6655937667 2.6973270258 2.7290602849 2.7607935441 2.7925268032 2.8242600623 
2.8559933214 2.8877265806 2.9194598397 2.9511930988 2.982926358 3.0146596171 3.0463928762 3.0781261353 3.1098593945 
3.1415926536 
_radius 1 100 double
5.5513590633e-16 0.012450880475 0.024874912253 0.037224267404 0.049428034798 0.061386920845 0.072973691706 0.084039467967 0.094424849496 
0.10397398279 0.11254929212 0.12004470591 0.12639570105 0.13158517122 0.13564481921 0.13865234573 0.14072508561 0.14201089802 
0.14267708054 0.14289797312 0.14284194375 0.14265871981 0.14246844324 0.14235405708 0.1423583309 0.14248591627 0.14270961525 
0.14297915573 0.14323068842 0.14339593436 0.1434108626 0.14322427788 0.14280641295 0.14215671787 0.14130899954 0.14033149625 
0.13932001307 0.13838414347 0.13762911143 0.13713764259 0.13695678665 0.13709335561 0.13751860066 0.1381793588 0.13901127571 
0.13995055799 0.14094298587 0.14195092659 0.14295949562 0.14398174886 0.14506113896 0.1462688648 0.14769465187 0.14943150561 
0.15155727096 0.15411736003 0.1571128498 0.16049630677 0.1641752918 0.16802178147 0.17188513432 0.17560642965 0.17903254653 
0.18202890688 0.1844902161 0.1863487348 0.18757960769 0.18820265324 0.18827993638 0.18790855722 0.18720850177 0.18630619614 
0.18531559702 0.18432000307 0.18335861072 0.18242126104 0.18145251529 0.18036310995 0.17904466662 0.17738331935 0.17526942758 
0.17260275936 0.16929443622 0.16526782112 0.16046015661 0.15482546081 0.14833776335 0.140992986 0.13280797146 0.12381617275 
0.11406088557 0.10358810411 0.092441587278 0.080662168322 0.068291790472 0.055380860643 0.041996194682 0.028226623953 0.014184159306 
9.6593682322e-16 
_area 1 100 double
0 0.00039863445096 0.0015873949282 0.0035411052358 0.0062073490931 0.0094969418891 0.013279884095 0.017390578682 0.021642368812 
0.025847749986 0.029838688174 0.033482139366 0.036688185469 0.039410088069 0.041636082887 0.043373983474 0.044634445548 0.045423672117 
0.04575230579 0.045656909915 0.045233378776 0.044720456791 0.044368626047 0.044193557507 0.044244286036 0.044528511972 0.045030746009 
0.045668070034 0.046328259108 0.046928687142 0.047405409828 0.047703453411 0.047777285927 0.047606914675 0.047215130523 0.046676970023 
0.046136764051 0.045817454508 0.045891221062 0.046296420487 0.046878430062 0.047634819275 0.048691333814 0.050204773954 0.052106298787 
0.054204268773 0.056323188904 0.058329420104 0.06013982604 0.061721048622 0.063086814231 0.06429896189 0.065466749396 0.066737233146 
0.0682717561 0.070209363373 0.072631890457 0.075539213684 0.078840048986 0.082365359501 0.085896132575 0.089192327219 0.092018114162 
0.094166608733 0.095484815433 0.095892549983 0.095390858459 0.09406089736 0.092055753927 0.089585936376 0.086895387715 0.084221218941 
0.081742899172 0.07955455602 0.077674411327 0.076064927392 0.074648549076 0.073321468021 0.071967101465 0.070467360874 0.068709735224 
0.066590837074 0.064020522243 0.0609310456 0.057290259384 0.053112498621 0.048461868216 0.043447141836 0.038209951281 0.032907869538 
0.027694175417 0.022698352808 0.018015227573 0.013711513907 0.009847578437 0.0064968163271 0.0037488164304 0.0016984921229 0.00042972833739 
3.2965409619e-17 
