# vtk DataFile Version 5.1
vtk output
ASCII
DATASET POLYDATA
POINTS 100 float
-0.155344 -0.0560494 0.742413 -0.155382 -0.0559943 0.742507 -0.155501 -0.0556333 0.742768 
-0.155622 -0.0549533 0.743102 -0.155625 -0.0539348 0.743362 -0.155357 -0.052555 0.743364 
-0.154657 -0.0507918 0.742903 -0.153369 -0.048627 0.741774 -0.151361 -0.0460499 0.739791 
-0.148535 -0.0430593 0.7368 -0.144842 -0.0396646 0.732695 -0.140275 -0.0358854 0.727423 
-0.134871 -0.0317494 0.720984 -0.128699 -0.0272902 0.713427 -0.121851 -0.0225435 0.704839 
-0.114421 -0.0175446 0.695333 -0.106496 -0.0123251 0.685031 -0.0981434 -0.00691232 0.67405 
-0.0894035 -0.00132848 0.662486 -0.0802873 0.00440732 0.650406 -0.0707801 0.0102766 0.63784 
-0.0608503 0.0162577 0.62478 -0.0504606 0.0223221 0.611183 -0.0395823 0.0284302 0.596975 
-0.0282079 0.0345294 0.582065 -0.0163623 0.0405522 0.566352 -0.00410929 0.0464179 0.549739 
0.0084466 0.052035 0.532141 0.0211642 0.0573062 0.513495 0.0338749 0.0621345 0.493766 
0.0463953 0.0664307 0.472946 0.0585428 0.0701199 0.451054 0.0701504 0.0731478 0.428134 
0.0810805 0.0754856 0.404252 0.0912339 0.0771312 0.379484 0.100555 0.07811 0.353915 
0.109029 0.078471 0.327635 0.116677 0.0782819 0.300731 0.123545 0.0776221 0.273291 
0.129689 0.076575 0.245398 0.135159 0.0752202 0.217138 0.139992 0.0736267 0.188593 
0.144194 0.0718479 0.159854 0.147741 0.0699193 0.131011 0.150576 0.0678577 0.102162 
0.152617 0.0656642 0.0734093 0.153767 0.0633285 0.0448564 0.153927 0.0608342 0.0166058 
0.153015 0.058166 -0.011245 0.150974 0.0553155 -0.038608 0.147791 0.052286 -0.0654087 
0.143498 0.0490959 -0.0915883 0.138176 0.0457799 -0.117106 0.13195 0.0423877 -0.141937 
0.124977 0.038981 -0.166072 0.117435 0.0356287 -0.189515 0.109502 0.0324015 -0.212275 
0.101343 0.0293663 -0.234365 0.0930932 0.0265815 -0.255798 0.0848467 0.024093 -0.27658 
0.0766518 0.0219328 -0.296714 0.0685111 0.020119 -0.316194 0.0603869 0.0186571 -0.335012 
0.0522128 0.0175433 -0.353159 0.0439081 0.0167683 -0.370629 0.0353933 0.0163208 -0.387425 
0.0266055 0.0161908 -0.403563 0.0175109 0.0163718 -0.419073 0.00811346 0.0168611 -0.434004 
-0.00154239 0.0176585 -0.448418 -0.0113734 0.0187641 -0.462394 -0.021265 0.0201747 -0.476015 
-0.0310816 0.0218797 -0.489368 -0.0406802 0.0238574 -0.50253 -0.0499233 0.0260728 -0.515567 
-0.0586914 0.0284759 -0.528522 -0.0668915 0.0310031 -0.541413 -0.0744629 0.0335797 -0.554226 
-0.0813772 0.0361247 -0.566921 -0.0876358 0.0385567 -0.579427 -0.0932625 0.0408007 -0.591654 
-0.0982952 0.042794 -0.603493 -0.102777 0.0444923 -0.61483 -0.106745 0.0458728 -0.625552 
-0.110231 0.046936 -0.635554 -0.11325 0.0477043 -0.644751 -0.115807 0.0482191 -0.653079 
-0.117899 0.048535 -0.6605 -0.119519 0.0487135 -0.667004 -0.120668 0.0488156 -0.67261 
-0.121357 0.0488952 -0.677357 -0.121618 0.0489941 -0.681307 -0.121505 0.0491377 -0.684534 
-0.121094 0.0493346 -0.687121 -0.120478 0.0495772 -0.68915 -0.119763 0.0498454 -0.690704 
-0.119058 0.0501112 -0.691853 -0.118461 0.0503446 -0.692657 -0.118054 0.0505191 -0.693158 
-0.117888 0.0506167 -0.693383 
LINES 2 100
OFFSETS vtktypeint64
0 100 
CONNECTIVITY vtktypeint64
0 1 2 3 4 5 6 7 8 
9 10 11 12 13 14 15 16 17 
18 19 20 21 22 23 24 25 26 
27 28 29 30 31 32 33 34 35 
36 37 38 39 40 41 42 43 44 
45 46 47 48 49 50 51 52 53 
54 55 56 57 58 59 60 61 62 
63 64 65 66 67 68 69 70 71 
72 73 74 75 76 77 78 79 80 
81 82 83 84 85 86 87 88 89 
90 91 92 93 94 95 96 97 98 
99 
POINT_DATA 100
FIELD FieldData 3
_theta 1 100 double
0 0.031733259127 0.063466518254 0.095199777382 0.12693303651 0.15866629564 0.19039955476 0.22213281389 0.25386607302 
0.28559933214 0.31733259127 0.3490658504 0.38079910953 0.41253236865 0.44426562778 0.47599888691 0.50773214603 0.53946540516 
0.57119866429 0.60293192342 0.63466518254 0.66639844167 0.6981317008 0.72986495992 0.76159821905 0.79333147818 0.82506473731 
0.85679799643 0.88853125556 0.92026451469 0.95199777382 0.98373103294 1.0154642921 1.0471975512 1.0789308103 1.1106640695 
1.1423973286 1.1741305877 1.2058638468 1.237597106 1.2693303651 1.3010636242 1.3327968833 1.3645301425 1.3962634016 
1.4279966607 1.4597299198 1.491463179 1.5231964381 1.5549296972 1.5866629564 1.6183962155 1.6501294746 1.6818627337 
1.7135959929 1.745329252 1.7770625111 1.8087957702 1.8405290294 1.8722622885 1.9039955476 1.9357288068 1.9674620659 
1.999195325 2.0309285841 2.0626618433 2.0943951024 2.1261283615 2.1578616206 2.1895948798 2.2213281389 2.253061398 
2.2847946572 2.3165279163 2.3482611754 2.3799944345 2.4117276937 2.4434609528 2.4751942119 2.506927471 2.5386607302 
2.5703939893 2.6021272484 2.6338605076 2.6655937667 2.6973270258 2.7290602849 2.7607935441 2.7925268032 2.8242600623 
2.8559933214 2.8877265806 2.9194598397 2.9511930988 2.982926358 3.0146596171 3.0463928762 3.0781261353 3.1098593945 
3.1415926536 
_radius 1 100 double
5.6033447974e-16 0.016614216721 0.033032730359 0.04906069107 0.06451536686 0.079232284585 0.093070831412 0.10591883277 0.1176956382 
0.12835336631 0.1378761366 0.1462773067 0.15359492055 0.15988575603 0.16521854278 0.16966708654 0.17330414727 0.17619690735 
0.1784046678 0.17997899815 0.18096601431 0.18140994907 0.18135692197 0.18085791682 0.1799703515 0.17875805357 0.17728973568 
0.17563615589 0.17386616253 0.17204193998 0.17021411833 0.16841794609 0.16667214253 0.16498185667 0.16334606219 0.16176799521 
0.16026572971 0.15887954607 0.15767359356 0.15673083431 0.15614174611 0.15598905024 0.15633290685 0.15720190404 0.15859309722 
0.16048045268 0.16282788241 0.16560176249 0.16877832354 0.17234342948 0.17628538837 0.18058417239 0.1852014401 0.19007475692 
0.19511725802 0.20022197592 0.20526901692 0.21013379195 0.2146951269 0.21884272302 0.22248376324 0.22554844753 0.22799408499 
0.22980727655 0.23100377803 0.23162581654 0.23173687681 0.23141423232 0.23073977954 0.22979007228 0.22862681942 0.22728934233 
0.22579034797 0.22411574029 0.22222824916 0.22007380605 0.21758916951 0.21470935125 0.21137375382 0.20753040947 0.20313817805 
0.19816713931 0.19259764007 0.18641848789 0.17962463643 0.17221449083 0.16418683938 0.15553753108 0.14625638205 0.13632524477 
0.12571841255 0.11440627006 0.1023622909 0.089572431151 0.076045151107 0.061820026966 0.04697317275 0.031618286914 0.015902879197 
7.5330791604e-16 
_area 1 100 double
0 0.00065964469779 0.0026270774676 0.0058622993468 0.010283419605 0.015752874044 0.022071136027 0.028982539152 0.036193176024 
0.043396987362 0.050304222462 0.056666506985 0.062294314338 0.067065038424 0.070922418769 0.073870151914 0.075963683047 0.077303917447 
0.078032334485 0.078309605718 0.07824851759 0.077864102878 0.077125805506 0.076017731436 0.074556326207 0.072793439023 0.070812752813 
0.068723607874 0.066653681778 0.064743412866 0.063140693347 0.061967326458 0.061227017552 0.06081281595 0.060617831921 0.060578501039 
0.060680638275 0.06095722934 0.061487331483 0.062410622005 0.063879877579 0.065915547581 0.068425998716 0.071299950855 0.074430635379 
0.077734405257 0.081176194672 0.084770116791 0.088517324615 0.092396455072 0.096438431699 0.10072927126 0.10535986964 0.11037412292 
0.11573334364 0.12131028246 0.12691597394 0.13234219014 0.1373962091 0.14191809273 0.1457842952 0.14890522435 0.15122228019 
0.15270684151 0.15336129822 0.15322053347 0.15235118547 0.15084568458 0.14880947291 0.1463449603 0.14354061251 0.14046834889 
0.1371837991 0.13372500344 0.13011024113 0.12633724871 0.12238496946 0.11821763967 0.11379065003 0.10905773667 0.10397866287 
0.098526190037 0.092691680029 0.086489194827 0.079957507129 0.073158841266 0.066173588758 0.059091697668 0.052003159097 0.044991149447 
0.038131069094 0.031496474688 0.025169553536 0.019251300845 0.013866437794 0.0091602224033 0.0052872951185 0.0023951288644 0.00060582397377 
3.896168402e-17 
