# vtk DataFile Version 5.1
vtk output
ASCII
DATASET POLYDATA
POINTS 100 float
-0.174585 -0.0736915 0.689339 -0.17412 -0.0736257 0.6895 -0.172771 -0.0732233 0.689946 
-0.170616 -0.0724711 0.690548 -0.167767 -0.0713484 0.691106 -0.164361 -0.0698269 0.691372 
-0.16054 -0.0678711 0.691083 -0.156429 -0.0654397 0.689982 -0.152118 -0.0624876 0.687854 
-0.147655 -0.0589683 0.684542 -0.14303 -0.0548387 0.679962 -0.138185 -0.0500631 0.674109 
-0.133012 -0.0446187 0.667051 -0.127374 -0.0385 0.658913 -0.12112 -0.0317238 0.649857 
-0.114105 -0.0243318 0.640057 -0.106214 -0.0163919 0.629671 -0.0973768 -0.00799765 0.618821 
-0.0875797 0.000734481 0.607573 -0.076873 0.00967032 0.59593 -0.0653681 0.0186643 0.583832 
-0.0532287 0.0275668 0.57116 -0.0406556 0.0362325 0.557759 -0.0278681 0.0445274 0.543454 
-0.0150829 0.052335 0.528076 -0.0024946 0.0595609 0.511484 0.00974093 0.0661351 0.493588 
0.0215175 0.0720117 0.474357 0.0327833 0.0771675 0.453828 0.0435379 0.0815975 0.432106 
0.053824 0.0853108 0.409346 0.0637126 0.0883252 0.385746 0.073286 0.090663 0.361518 
0.0826195 0.0923471 0.336874 0.0917643 0.0933991 0.312004 0.100735 0.0938387 0.287057 
0.1095 0.0936852 0.262138 0.117982 0.0929593 0.237301 0.126062 0.0916869 0.212554 
0.133586 0.0899013 0.187872 0.140384 0.087646 0.163208 0.146286 0.0849757 0.138514 
0.151136 0.0819558 0.113754 0.15481 0.07866 0.0889184 0.157226 0.0751664 0.0640352 
0.158353 0.0715526 0.0391701 0.158212 0.0678899 0.0144254 0.156868 0.0642384 -0.0100691 
0.154429 0.0606424 -0.0341691 0.151027 0.0571278 -0.0577309 0.146811 0.0537024 -0.0806272 
0.141926 0.0503572 -0.102761 0.136507 0.0470712 -0.124076 0.130669 0.0438174 -0.144562 
0.124497 0.0405694 -0.164252 0.118051 0.0373089 -0.18322 0.111363 0.0340316 -0.201567 
0.104446 0.0307516 -0.219413 0.0973003 0.0275031 -0.236875 0.0899196 0.0243395 -0.254058 
0.0823025 0.0213297 -0.271043 0.0744568 0.0185516 -0.287881 0.0664039 0.0160842 -0.304586 
0.0581808 0.0139992 -0.321144 0.0498394 0.0123524 -0.337512 0.0414431 0.0111775 -0.353636 
0.0330625 0.0104812 -0.369457 0.0247707 0.0102423 -0.384925 0.0166379 0.0104136 -0.400005 
0.00872766 0.0109264 -0.414689 0.00109397 0.0116982 -0.428996 -0.00621984 0.0126412 -0.442968 
-0.0131809 0.0136715 -0.456666 -0.0197653 0.0147171 -0.470165 -0.0259562 0.0157241 -0.483533 
-0.0317416 0.0166603 -0.496829 -0.0371127 0.0175156 -0.510087 -0.042063 0.0182989 -0.523313 
-0.0465886 0.0190329 -0.536474 -0.050689 0.0197465 -0.549503 -0.0543695 0.0204669 -0.562298 
-0.0576427 0.0212116 -0.574736 -0.060531 0.0219831 -0.586676 -0.0630669 0.0227644 -0.597974 
-0.0652933 0.0235199 -0.608495 -0.0672614 0.0241975 -0.618123 -0.0690278 0.0247354 -0.62677 
-0.0706497 0.0250697 -0.634383 -0.0721798 0.0251446 -0.640945 -0.0736613 0.0249209 -0.646476 
-0.0751227 0.0243844 -0.651029 -0.0765751 0.0235503 -0.654684 -0.0780103 0.0224657 -0.657542 
-0.0794021 0.0212066 -0.659715 -0.0807087 0.0198723 -0.661319 -0.0818784 0.0185759 -0.662467 
-0.0828551 0.0174334 -0.663259 -0.083586 0.0165512 -0.663778 -0.0840276 0.0160148 -0.664089 
-0.0841515 0.0158795 -0.66423 
LINES 2 100
OFFSETS vtktypeint64
0 100 
CONNECTIVITY vtktypeint64
0 1 2 3 4 5 6 7 8 
9 10 11 12 13 14 15 16 17 
18 19 20 21 22 23 24 25 26 
27 28 29 30 31 32 33 34 35 
36 37 38 39 40 41 42 43 44 
45 46 47 48 49 50 51 52 53 
54 55 56 57 58 59 60 61 62 
63 64 65 66 67 68 69 70 71 
72 73 74 75 76 77 78 79 80 
81 82 83 84 85 86 87 88 89 
90 91 92 93 94 95 96 97 98 
99 
POINT_DATA 100
FIELD FieldData 3
_theta 1 100 double
0 0.031733259127 0.063466518254 0.095199777382 0.12693303651 0.15866629564 0.19039955476 0.22213281389 0.25386607302 
0.28559933214 0.31733259127 0.3490658504 0.38079910953 0.41253236865 0.44426562778 0.47599888691 0.50773214603 0.53946540516 
0.57119866429 0.60293192342 0.63466518254 0.66639844167 0.6981317008 0.72986495992 0.76159821905 0.79333147818 0.82506473731 
0.85679799643 0.88853125556 0.92026451469 0.95199777382 0.98373103294 1.0154642921 1.0471975512 1.0789308103 1.1106640695 
1.1423973286 1.1741305877 1.2058638468 1.237597106 1.2693303651 1.3010636242 1.3327968833 1.3645301425 1.3962634016 
1.4279966607 1.4597299198 1.491463179 1.5231964381 1.5549296972 1.5866629564 1.6183962155 1.6501294746 1.6818627337 
1.7135959929 1.745329252 1.7770625111 1.8087957702 1.8405290294 1.8722622885 1.9039955476 1.9357288068 1.9674620659 
1.999195325 2.0309285841 2.0626618433 2.0943951024 2.1261283615 2.1578616206 2.1895948798 2.2213281389 2.253061398 
2.2847946572 2.3165279163 2.3482611754 2.3799944345 2.4117276937 2.4434609528 2.4751942119 2.506927471 2.5386607302 
2.5703939893 2.6021272484 2.6338605076 2.6655937667 2.6973270258 2.7290602849 2.7607935441 2.7925268032 2.8242600623 
2.8559933214 2.8877265806 2.9194598397 2.9511930988 2.982926358 3.0146596171 3.0463928762 3.0781261353 3.1098593945 
3.1415926536 
_radius 1 100 double
8.0407380403e-16 0.018040788345 0.035821643119 0.053094341945 0.069638969556 0.085274231955 0.099863529222 0.11331630212 0.125584883 
0.13665778325 0.14655086839 0.1552980665 0.16294308664 0.16953317984 0.17511542939 0.17973558325 0.18343912963 0.18627415995 
0.18829547581 0.18956926637 0.19017744212 0.19022044035 0.18981727027 0.18910198158 0.18821657577 0.1873012665 0.18648353124 
0.18586748132 0.18552494251 0.18548951866 0.18575475115 0.18627705371 0.18698335812 0.18778264253 0.18858002707 0.18929187431 
0.18986008856 0.19026351019 0.19052421178 0.19070702755 0.19091204024 0.19126177652 0.19188657138 0.19291167683 0.19444780776 
0.19658423206 0.19938227047 0.20286807079 0.20702572704 0.21179328992 0.21706386012 0.222692282 0.22850630157 0.23432027874 
0.2399495787 0.24522411918 0.24999987853 0.25416743381 0.25765689786 0.2604390211 0.26252266553 0.26394922131 0.26478471651 
0.2651103716 0.26501228423 0.26457094745 0.26385147576 0.26289566685 0.26171715932 0.26030074359 0.25860625131 0.25657651461 
0.25414794736 0.25126166667 0.2478729035 0.24395675954 0.2395091312 0.23454279405 0.22907997292 0.22314371476 0.21675055021 
0.20990618053 0.2026046549 0.1948303414 0.18656141224 0.17777363464 0.16844372626 0.15855204163 0.14808466361 0.13703504273 
0.12540526547 0.11320696937 0.10046192745 0.087202385176 0.073471283018 0.059322456386 0.044820741073 0.030041697373 0.015070545191 
8.8932468054e-16 
_area 1 100 double
0 0.00076130845706 0.0030034655612 0.0066038278865 0.011367238902 0.017040745762 0.02333459547 0.02994797199 0.036596416139 
0.043036826637 0.049085642266 0.054626463035 0.059605180724 0.064013522696 0.067864993074 0.071169384849 0.073912614335 0.076047722016 
0.077501026755 0.078194544433 0.078080967126 0.07718137033 0.075612357315 0.073591940812 0.071422917706 0.069478642684 0.068235276443 
0.067884803702 0.068325576003 0.069353187643 0.070766553081 0.072360845609 0.073972460925 0.075480032858 0.076799827488 0.077891267441 
0.078774406501 0.079552130714 0.08039589669 0.081519314713 0.083090839857 0.085192153936 0.087711807758 0.090537094604 0.093669305881 
0.097136454066 0.10100506073 0.10538122742 0.11038477898 0.11610282925 0.12254896462 0.12964895422 0.13724507539 0.14510019437 
0.15292521966 0.16042757359 0.1673470376 0.17347539939 0.17866294323 0.18281584886 0.18589048113 0.18788981811 0.18886368568 
0.1889094188 0.18816659509 0.18680188564 0.18498611533 0.18286960159 0.18056099524 0.17811048083 0.17549459408 0.17260693738 
0.1692738605 0.16530684797 0.16056986395 0.15502534242 0.14874154544 0.1418667932 0.13458620403 0.12707740087 0.11947762793 
0.11186822426 0.10427585832 0.09668569489 0.089060473888 0.081360312174 0.073559620159 0.065659248171 0.057693525248 0.049732758391 
0.041881782165 0.034274759365 0.027066425495 0.02042063765 0.014498005612 0.0094448330961 0.0053851335394 0.0024162685131 0.00060748396387 
2.4506356403e-17 
