# vtk DataFile Version 5.1
vtk output
ASCII
DATASET POLYDATA
POINTS 100 float
-0.0943408 -0.0273515 0.70466 -0.0944517 -0.0273518 0.704458 -0.094784 -0.0272204 0.703741 
-0.0953024 -0.0269242 0.702483 -0.0959505 -0.0264117 0.700641 -0.0966545 -0.025617 0.698164 
-0.0973267 -0.0244657 0.695001 -0.0978704 -0.0228815 0.691104 -0.098184 -0.0207935 0.686437 
-0.0981644 -0.0181433 0.680977 -0.0977098 -0.0148919 0.674719 -0.0967221 -0.0110245 0.667676 
-0.0951084 -0.00655522 0.659874 -0.0927818 -0.00152792 0.651349 -0.089663 0.00398408 0.642143 
-0.0856818 0.00988121 0.632295 -0.0807792 0.016043 0.621837 -0.0749107 0.0223355 0.610788 
-0.0680495 0.0286193 0.599149 -0.0601912 0.0347588 0.586906 -0.0513567 0.0406303 0.574031 
-0.0415953 0.0461298 0.560481 -0.0309862 0.0511774 0.546209 -0.0196374 0.0557206 0.531165 
-0.00768237 0.0597336 0.515307 0.00472521 0.063215 0.498604 0.0174198 0.0661818 0.481039 
0.030233 0.0686628 0.462615 0.0430039 0.070691 0.443353 0.0555878 0.0722955 0.423289 
0.0678641 0.0734959 0.402475 0.0797409 0.0742975 0.38097 0.0911563 0.0746902 0.358839 
0.102075 0.0746498 0.336146 0.112483 0.0741424 0.31295 0.122376 0.0731309 0.289307 
0.13175 0.0715832 0.265262 0.140589 0.0694804 0.24086 0.148855 0.0668244 0.21614 
0.156478 0.0636436 0.191142 0.163357 0.0599958 0.165915 0.169357 0.0559672 0.14051 
0.174322 0.0516687 0.114995 0.178082 0.0472287 0.0894448 0.180473 0.0427835 0.0639479 
0.181351 0.0384661 0.0385996 0.180612 0.0343961 0.0134997 0.178208 0.0306696 -0.0112529 
0.174156 0.0273531 -0.035566 0.168545 0.0244797 -0.0593592 0.161531 0.0220494 -0.082568 
0.153333 0.0200344 -0.105147 0.144213 0.0183855 -0.12707 0.134457 0.0170427 -0.148331 
0.124356 0.0159456 -0.16894 0.114177 0.0150432 -0.188922 0.104144 0.0143026 -0.208308 
0.0944252 0.0137133 -0.227137 0.0851205 0.0132887 -0.245444 0.0762594 0.0130631 -0.263266 
0.0678081 0.013085 -0.280634 0.0596811 0.0134079 -0.297575 0.0517593 0.0140793 -0.314113 
0.0439109 0.0151303 -0.33027 0.0360123 0.0165665 -0.34607 0.0279675 0.0183623 -0.36154 
0.019722 0.0204589 -0.37671 0.0112715 0.0227675 -0.391617 0.0026632 0.0251768 -0.406298 
-0.0060098 0.0275633 -0.420794 -0.0146203 0.0298053 -0.43514 -0.0230227 0.0317968 -0.449363 
-0.0310711 0.0334599 -0.463479 -0.0386363 0.0347551 -0.477486 -0.0456213 0.0356866 -0.491364 
-0.0519707 0.0363025 -0.505068 -0.0576751 0.0366896 -0.518539 -0.062769 0.0369633 -0.531698 
-0.0673226 0.0372531 -0.544456 -0.0714295 0.0376867 -0.556719 -0.0751915 0.0383736 -0.568396 
-0.0787025 0.0393905 -0.579405 -0.0820351 0.0407708 -0.589682 -0.0852303 0.0424993 -0.599183 
-0.0882925 0.0445126 -0.607886 -0.0911905 0.0467063 -0.615797 -0.0938643 0.0489468 -0.622938 
-0.0962358 0.051087 -0.629353 -0.0982236 0.0529844 -0.635093 -0.0997579 0.0545184 -0.640216 
-0.100794 0.0556049 -0.644779 -0.101324 0.056207 -0.648828 -0.101381 0.0563396 -0.652402 
-0.101038 0.0560668 -0.655523 -0.100406 0.0554949 -0.658202 -0.0996151 0.054758 -0.660436 
-0.0988077 0.0540015 -0.662215 -0.098116 0.0533638 -0.663524 -0.097648 0.0529584 -0.66435 
-0.0974742 0.0528601 -0.66468 
LINES 2 100
OFFSETS vtktypeint64
0 100 
CONNECTIVITY vtktypeint64
0 1 2 3 4 5 6 7 8 
9 10 11 12 13 14 15 16 17 
18 19 20 21 22 23 24 25 26 
27 28 29 30 31 32 33 34 35 
36 37 38 39 40 41 42 43 44 
45 46 47 48 49 50 51 52 53 
54 55 56 57 58 59 60 61 62 
63 64 65 66 67 68 69 70 71 
72 73 74 75 76 77 78 79 80 
81 82 83 84 85 86 87 88 89 
90 91 92 93 94 95 96 97 98 
99 
POINT_DATA 100
FIELD FieldData 3
_theta 1 100 double
0 0.031733259127 0.063466518254 0.095199777382 0.12693303651 0.15866629564 0.19039955476 0.22213281389 0.25386607302 
0.28559933214 0.31733259127 0.3490658504 0.38079910953 0.41253236865 0.44426562778 0.47599888691 0.50773214603 0.53946540516 
0.57119866429 0.60293192342 0.63466518254 0.66639844167 0.6981317008 0.72986495992 0.76159821905 0.79333147818 0.82506473731 
0.85679799643 0.88853125556 0.92026451469 0.95199777382 0.98373103294 1.0154642921 1.0471975512 1.0789308103 1.1106640695 
1.1423973286 1.1741305877 1.2058638468 1.237597106 1.2693303651 1.3010636242 1.3327968833 1.3645301425 1.3962634016 
1.4279966607 1.4597299198 1.491463179 1.5231964381 1.5549296972 1.5866629564 1.6183962155 1.6501294746 1.6818627337 
1.7135959929 1.745329252 1.7770625111 1.8087957702 1.8405290294 1.8722622885 1.9039955476 1.9357288068 1.9674620659 
1.999195325 2.0309285841 2.0626618433 2.0943951024 2.1261283615 2.1578616206 2.1895948798 2.2213281389 2.253061398 
2.2847946572 2.3165279163 2.3482611754 2.3799944345 2.4117276937 2.4434609528 2.4751942119 2.506927471 2.5386607302 
2.5703939893 2.6021272484 2.6338605076 2.6655937667 2.6973270258 2.7290602849 2.7607935441 2.7925268032 2.8242600623 
2.8559933214 2.8877265806 2.9194598397 2.9511930988 2.982926358 3.0146596171 3.0463928762 3.0781261353 3.1098593945 
3.1415926536 
_radius 1 100 double
1.55926071e-15 0.017366862309 0.034538384043 0.051334729674 0.06760348381 0.083226980018 0.098124285541 0.11224803306 0.12557683261 
0.13810437588 0.14982676694 0.16073006083 0.17078028047 0.17991809372 0.18805973265 0.19510468082 0.20094938391 0.20550504485 
0.20871657714 0.21057896584 0.21114713285 0.21053801871 0.20892795025 0.20654676457 0.20366531549 0.20057425124 0.19755606984 
0.19485503978 0.19265083785 0.19104181639 0.19004217467 0.18959401739 0.18959110434 0.18990731335 0.19042161332 0.19103499424 
0.19168064443 0.19232920202 0.19298744741 0.19368939893 0.19448306398 0.19541909788 0.19654667171 0.1979169346 0.19958894664 
0.20163125373 0.20411514822 0.20710041547 0.21061822951 0.21465723456 0.21915727611 0.2240119029 0.2290779675 0.23418974256 
0.23917525658 0.24387274538 0.24814495807 0.25188920008 0.25504186929 0.25757755773 0.25950395728 0.26085442578 0.26168006071 
0.26204262394 0.26200892892 0.26164664316 0.26102104877 0.26019205569 0.25921046932 0.25811235182 0.25691137404 0.25559224403 
0.25411077645 0.25240279218 0.25039722405 0.24802658777 0.24523118652 0.24195740591 0.23815280241 0.2337613149 0.22872122444 
0.22296698035 0.21643439782 0.20906763893 0.20082609481 0.19168966461 0.18166162005 0.17076892234 0.15906035711 0.14660314274 
0.13347873726 0.11977839966 0.10559871408 0.091036960924 0.076186171797 0.061130034715 0.045938358075 0.030664214207 0.015343861559 
8.4358548018e-16 
_area 1 100 double
0 0.00059889249004 0.0023893617954 0.005351040855 0.009441451918 0.014579859152 0.020629373257 0.027388851384 0.034602084413 
0.041983722864 0.049255287335 0.056181659445 0.062597162955 0.068409298312 0.073571614511 0.07803888711 0.081748484333 0.084660090675 
0.086840422516 0.088653031947 0.090125216931 0.091047553405 0.091352702896 0.091012233039 0.090128052763 0.088662196491 0.086748907137 
0.084578615573 0.082387217272 0.080410387971 0.07885808353 0.07790440189 0.077676389484 0.078247566211 0.079610500891 0.081615721172 
0.083994352419 0.086516714115 0.089116052422 0.092228449154 0.096629529564 0.10116337191 0.10546136114 0.1094209379 0.1130522055 
0.11644560701 0.11973761019 0.12307330613 0.1265803236 0.13035108197 0.1344206155 0.13875652173 0.14328138352 0.14790382707 
0.15253566762 0.15710733046 0.1617772203 0.1668735992 0.17204461863 0.17661651037 0.18044651107 0.18326319655 0.18494231879 
0.18544764458 0.18483786306 0.18322194575 0.18073748071 0.17766642178 0.17432660035 0.17109269119 0.1683588662 0.16599136129 
0.16364746328 0.16111279166 0.1582355048 0.15490935971 0.15106744457 0.14666914255 0.14168445102 0.13608391239 0.12984001946 
0.12293894765 0.11539570314 0.1072649698 0.098642658978 0.089657244145 0.080454194413 0.071179748707 0.061970305738 0.05295059169 
0.044239239966 0.035956983658 0.028231967373 0.021198850265 0.014992017793 0.0097361230634 0.0055377487651 0.0024804106684 0.00062295137807 
3.2119462942e-17 
