# vtk DataFile Version 5.1
vtk output
ASCII
DATASET POLYDATA
POINTS 100 float
-0.141483 -0.017551 0.730458 -0.141097 -0.0177463 0.730122 -0.139965 -0.0181777 0.729162 
-0.138123 -0.0187953 0.727528 -0.135627 -0.0195198 0.725151 -0.132551 -0.020248 0.721946 
-0.128976 -0.0208591 0.717834 -0.124982 -0.0212229 0.712747 -0.120645 -0.0212078 0.706647 
-0.116027 -0.0206903 0.699531 -0.111169 -0.0195631 0.691433 -0.106092 -0.0177429 0.682423 
-0.100796 -0.0151773 0.672597 -0.0952594 -0.0118487 0.662067 -0.089446 -0.00777741 0.650945 
-0.0833107 -0.00302114 0.639327 -0.0768074 0.00232694 0.627282 -0.0698963 0.00814315 0.614842 
-0.0625518 0.01428 0.601996 -0.054768 0.0205746 0.588692 -0.0465626 0.026858 0.574848 
-0.0379776 0.0329645 0.56036 -0.0290774 0.0387414 0.545119 -0.0199439 0.0440565 0.529032 
-0.0106698 0.0488049 0.512029 -0.00134984 0.0529127 0.494083 0.00792806 0.0563387 0.475213 
0.017091 0.0590741 0.455484 0.0260879 0.0611385 0.435003 0.0348927 0.0625754 0.413904 
0.0435054 0.0634457 0.392335 0.0519486 0.0638198 0.370439 0.0602606 0.0637714 0.348335 
0.0684861 0.0633703 0.326101 0.0766646 0.062677 0.303771 0.0848183 0.06174 0.281324 
0.0929413 0.0605932 0.258693 0.10099 0.0592571 0.235772 0.10888 0.0577402 0.212437 
0.116483 0.0560431 0.188561 0.123631 0.0541628 0.164039 0.13013 0.0520973 0.138806 
0.135768 0.0498502 0.112852 0.140334 0.0474344 0.0862332 0.143637 0.0448744 0.0590706 
0.145519 0.0422072 0.0315462 0.145876 0.0394818 0.00388876 0.144664 0.0367567 -0.0236451 
0.141908 0.034097 -0.0507929 0.137698 0.0315695 -0.0773096 0.132187 0.0292388 -0.102988 
0.125576 0.0271622 -0.127677 0.118099 0.0253862 -0.151289 0.110001 0.0239434 -0.173804 
0.101523 0.0228511 -0.195266 0.0928792 0.0221103 -0.215771 0.0842456 0.0217072 -0.235448 
0.0757462 0.0216151 -0.254446 0.06745 0.0217974 -0.272908 0.0593724 0.0222112 -0.290957 
0.051482 0.0228109 -0.308682 0.0437123 0.0235522 -0.326129 0.0359764 0.0243948 -0.343304 
0.0281829 0.0253054 -0.360171 0.0202514 0.026259 -0.376664 0.0121248 0.02724 -0.392704 
0.00377787 0.028242 -0.408207 -0.0047784 0.0292671 -0.423104 -0.0134984 0.0303247 -0.437348 
-0.0223079 0.0314295 -0.450925 -0.031113 0.0325995 -0.463855 -0.0398128 0.033854 -0.476189 
-0.0483109 0.0352112 -0.488006 -0.0565268 0.0366865 -0.499396 -0.0644041 0.0382903 -0.510453 
-0.0719152 0.0400271 -0.521259 -0.0790614 0.041894 -0.531875 -0.0858686 0.0438802 -0.542331 
-0.0923798 0.0459662 -0.552621 -0.098645 0.0481248 -0.562705 -0.10471 0.0503211 -0.57251 
-0.110604 0.0525143 -0.581943 -0.116338 0.0546591 -0.590894 -0.12189 0.0567082 -0.599254 
-0.127214 0.0586147 -0.606923 -0.132239 0.0603353 -0.61382 -0.136879 0.0618331 -0.619892 
-0.141043 0.0630803 -0.625117 -0.144646 0.0640604 -0.629504 -0.147627 0.0647702 -0.633092 
-0.149952 0.0652201 -0.635947 -0.151626 0.0654343 -0.638152 -0.152692 0.0654489 -0.639804 
-0.153234 0.0653101 -0.641 -0.153362 0.0650705 -0.641839 -0.153207 0.0647853 -0.642409 
-0.152907 0.0645079 -0.642788 -0.152586 0.0642856 -0.643037 -0.152346 0.0641559 -0.643201 
-0.152254 0.0641428 -0.643306 
LINES 2 100
OFFSETS vtktypeint64
0 100 
CONNECTIVITY vtktypeint64
0 1 2 3 4 5 6 7 8 
9 10 11 12 13 14 15 16 17 
18 19 20 21 22 23 24 25 26 
27 28 29 30 31 32 33 34 35 
36 37 38 39 40 41 42 43 44 
45 46 47 48 49 50 51 52 53 
54 55 56 57 58 59 60 61 62 
63 64 65 66 67 68 69 70 71 
72 73 74 75 76 77 78 79 80 
81 82 83 84 85 86 87 88 89 
90 91 92 93 94 95 96 97 98 
99 
POINT_DATA 100
FIELD FieldData 3
_theta 1 100 double
0 0.031733259127 0.063466518254 0.095199777382 0.12693303651 0.15866629564 0.19039955476 0.22213281389 0.25386607302 
0.28559933214 0.31733259127 0.3490658504 0.38079910953 0.41253236865 0.44426562778 0.47599888691 0.50773214603 0.53946540516 
0.57119866429 0.60293192342 0.63466518254 0.66639844167 0.6981317008 0.72986495992 0.76159821905 0.79333147818 0.82506473731 
0.85679799643 0.88853125556 0.92026451469 0.95199777382 0.98373103294 1.0154642921 1.0471975512 1.0789308103 1.1106640695 
1.1423973286 1.1741305877 1.2058638468 1.237597106 1.2693303651 1.3010636242 1.3327968833 1.3645301425 1.3962634016 
1.4279966607 1.4597299198 1.491463179 1.5231964381 1.5549296972 1.5866629564 1.6183962155 1.6501294746 1.6818627337 
1.7135959929 1.745329252 1.7770625111 1.8087957702 1.8405290294 1.8722622885 1.9039955476 1.9357288068 1.9674620659 
1.999195325 2.0309285841 2.0626618433 2.0943951024 2.1261283615 2.1578616206 2.1895948798 2.2213281389 2.253061398 
2.2847946572 2.3165279163 2.3482611754 2.3799944345 2.4117276937 2.4434609528 2.4751942119 2.506927471 2.5386607302 
2.5703939893 2.6021272484 2.6338605076 2.6655937667 2.6973270258 2.7290602849 2.7607935441 2.7925268032 2.8242600623 
2.8559933214 2.8877265806 2.9194598397 2.9511930988 2.982926358 3.0146596171 3.0463928762 3.0781261353 3.1098593945 
3.1415926536 
_radius 1 100 double
2.9992159886e-16 0.015446367087 0.030546662541 0.044989188691 0.058519978881 0.070960802946 0.082216620972 0.092271990091 0.1011777889 
0.10903123955 0.11595326783 0.12206745552 0.12748403224 0.13229066147 0.13654976016 0.14030057609 0.14356385587 0.1463476529 
0.14865395346 0.15048642318 0.15185921032 0.15280567138 0.15338488825 0.15368360591 0.15381196574 0.1538929601 0.15404739955 
0.15437761582 0.15495340715 0.15580275125 0.15690822543 0.15820874252 0.15960570665 0.16097309119 0.16217138513 0.16306480341 
0.16353995693 0.16352342592 0.1629956518 0.16199886296 0.16063723668 0.15906851303 0.15748810253 0.15610874582 0.15513947801 
0.15476637266 0.15513580386 0.15634064073 0.15841071295 0.16130945518 0.16493800739 0.16914669172 0.17375235469 0.17855887834 
0.18337762325 0.18804495014 0.19243495118 0.19646650748 0.20010449209 0.20335544947 0.20625856879 0.20887326129 0.21126505419 
0.21349169964 0.21559132086 0.21757412697 0.21941879657 0.22107405907 0.22246524455 0.2235046677 0.22410389387 0.22418552481 
0.22369232553 0.22259222216 0.22087867716 0.21856689162 0.21568695185 0.21227530839 0.20836590544 0.20398207338 0.19913016045 
0.1937958344 0.18794386421 0.18152181315 0.1744674231 0.16671872033 0.15822526674 0.14895867272 0.13892052199 0.1281462177 
0.11670391737 0.10468860597 0.092212292864 0.079392074448 0.06633817585 0.053143985662 0.03987959132 0.026589588768 0.013295186438 
1.1234556963e-15 
_area 1 100 double
0 0.0005024266696 0.0019812794499 0.0043543496896 0.0074944764091 0.011242773041 0.015423636277 0.019858233639 0.024373958049 
0.028809220706 0.033014825842 0.036854501994 0.040207794669 0.042978032638 0.04510620705 0.046588751144 0.047491898041 0.047935648614 
0.048024188001 0.047817914697 0.047372404727 0.046763770608 0.046097585721 0.045509209182 0.045143274626 0.045120344289 0.045514853914 
0.046394061477 0.048055987501 0.050213020182 0.052674306834 0.055318114076 0.058028583463 0.06068531193 0.063156490564 0.065307592747 
0.067042954742 0.068337927033 0.069196524663 0.069606391604 0.069602294168 0.069291638362 0.068863396487 0.068541271177 0.068562703933 
0.06914334272 0.070317409749 0.071976766714 0.074055897804 0.076568579043 0.079553251471 0.083034935966 0.086996336335 0.09135619806 
0.095987504081 0.10072374797 0.10537062418 0.10973205598 0.11364945675 0.11703472573 0.11988320936 0.12226470728 0.1242972539 
0.12611198141 0.12781785993 0.12947210054 0.13106151319 0.13250254305 0.13366114663 0.13438348901 0.13452749135 0.13398829491 
0.13271294316 0.13070217356 0.12800027778 0.1246768171 0.12080614012 0.11645157705 0.1116602137 0.10646974967 0.10092175303 
0.095071015425 0.088983298851 0.082721905384 0.076331243893 0.069827997521 0.063206042837 0.056454100999 0.049581139433 0.042641289659 
0.035745689348 0.02905304698 0.022743993578 0.016992350142 0.01194421432 0.0077089930229 0.0043606757238 0.0019448614366 0.00048713784777 
3.6429192996e-17 
