# vtk DataFile Version 5.1
vtk output
ASCII
DATASET POLYDATA
POINTS 100 float
-0.122434 -0.0280041 0.717884 -0.122621 -0.0277338 0.717621 -0.123171 -0.0268015 0.716811 
-0.124004 -0.0252864 0.715415 -0.124995 -0.0233082 0.713381 -0.125983 -0.0210125 0.710642 
-0.126791 -0.0185518 0.707134 -0.127235 -0.0160662 0.7028 -0.127143 -0.0136666 0.6976 
-0.126365 -0.011421 0.691518 -0.124785 -0.00934773 0.68456 -0.122322 -0.00741474 0.67676 
-0.118937 -0.00554642 0.668165 -0.114624 -0.0036358 0.658836 -0.109408 -0.0015612 0.648835 
-0.103336 0.000795137 0.638215 -0.096471 0.00352905 0.627013 -0.0888804 0.00669931 0.615246 
-0.0806338 0.0103175 0.602908 -0.0717976 0.0143438 0.589972 -0.062434 0.0186902 0.576396 
-0.0526017 0.0232287 0.562134 -0.0423586 0.0278056 0.54714 -0.0317647 0.0322586 0.531384 
-0.0208847 0.0364339 0.514858 -0.00979063 0.0402031 0.497579 0.00143885 0.0434751 0.479593 
0.0127193 0.0462036 0.460972 0.0239639 0.048389 0.441802 0.0350879 0.0500734 0.422179 
0.046013 0.0513313 0.402191 0.0566713 0.0522569 0.38191 0.0670081 0.0529488 0.361377 
0.0769815 0.0534966 0.340598 0.0865609 0.0539688 0.31954 0.0957213 0.0544055 0.298136 
0.104438 0.0548158 0.276291 0.112676 0.0551802 0.253895 0.120389 0.055458 0.230844 
0.127505 0.0555973 0.207049 0.133932 0.0555475 0.182458 0.139555 0.0552709 0.157069 
0.144242 0.0547521 0.130933 0.147852 0.0540042 0.10416 0.150252 0.0530696 0.0769147 
0.151327 0.0520169 0.0494031 0.150998 0.0509323 0.0218584 0.149231 0.0499087 -0.0054783 
0.146051 0.0490322 -0.0323772 0.141543 0.0483697 -0.0586386 0.135846 0.0479575 -0.0841076 
0.129154 0.0477951 -0.108684 0.121691 0.0478423 -0.132324 0.1137 0.0480223 -0.155042 
0.105417 0.0482301 -0.176895 0.0970545 0.0483442 -0.197975 0.0887795 0.048241 -0.218391 
0.0807017 0.0478106 -0.238255 0.0728663 0.0469701 -0.257663 0.0652544 0.0456748 -0.276689 
0.0577904 0.0439248 -0.295375 0.0503567 0.0417662 -0.313732 0.0428124 0.0392872 -0.331741 
0.0350147 0.0366096 -0.349366 0.0268395 0.0338768 -0.366559 0.0181996 0.0312398 -0.383277 
0.00905725 0.0288431 -0.399487 -0.000570031 0.0268121 -0.415181 -0.0106108 0.0252433 -0.430374 
-0.0209485 0.0241989 -0.445105 -0.0314357 0.0237053 -0.459435 -0.0419125 0.023755 -0.473437 
-0.0522259 0.0243135 -0.487182 -0.0622476 0.025326 -0.500731 -0.071888 0.0267269 -0.51412 
-0.0811045 0.0284474 -0.527353 -0.0899021 0.0304221 -0.5404 -0.0983281 0.0325922 -0.553192 
-0.10646 0.0349071 -0.565629 -0.114387 0.0373223 -0.577589 -0.122194 0.0397963 -0.588938 
-0.129944 0.0422861 -0.599545 -0.137659 0.044743 -0.609297 -0.145317 0.0471102 -0.618107 
-0.152845 0.0493219 -0.625928 -0.160127 0.0513059 -0.632751 -0.167015 0.052988 -0.638606 
-0.173345 0.0542996 -0.643562 -0.178963 0.0551855 -0.647711 -0.183739 0.0556125 -0.651162 
-0.187588 0.0555766 -0.654029 -0.190484 0.0551073 -0.656418 -0.192466 0.0542689 -0.658421 
-0.193631 0.0531569 -0.660106 -0.194131 0.0518921 -0.661521 -0.19415 0.0506094 -0.662691 
-0.193886 0.0494453 -0.663622 -0.193524 0.0485246 -0.664312 -0.193217 0.0479477 -0.664749 
-0.193065 0.0477795 -0.664926 
LINES 2 100
OFFSETS vtktypeint64
0 100 
CONNECTIVITY vtktypeint64
0 1 2 3 4 5 6 7 8 
9 10 11 12 13 14 15 16 17 
18 19 20 21 22 23 24 25 26 
27 28 29 30 31 32 33 34 35 
36 37 38 39 40 41 42 43 44 
45 46 47 48 49 50 51 52 53 
54 55 56 57 58 59 60 61 62 
63 64 65 66 67 68 69 70 71 
72 73 74 75 76 77 78 79 80 
81 82 83 84 85 86 87 88 89 
90 91 92 93 94 95 96 97 98 
99 
POINT_DATA 100
FIELD FieldData 3
_theta 1 100 double
0 0.031733259127 0.063466518254 0.095199777382 0.12693303651 0.15866629564 0.19039955476 0.22213281389 0.25386607302 
0.28559933214 0.31733259127 0.3490658504 0.38079910953 0.41253236865 0.44426562778 0.47599888691 0.50773214603 0.53946540516 
0.57119866429 0.60293192342 0.63466518254 0.66639844167 0.6981317008 0.72986495992 0.76159821905 0.79333147818 0.82506473731 
0.85679799643 0.88853125556 0.92026451469 0.95199777382 0.98373103294 1.0154642921 1.0471975512 1.0789308103 1.1106640695 
1.1423973286 1.1741305877 1.2058638468 1.237597106 1.2693303651 1.3010636242 1.3327968833 1.3645301425 1.3962634016 
1.4279966607 1.4597299198 1.491463179 1.5231964381 1.5549296972 1.5866629564 1.6183962155 1.6501294746 1.6818627337 
1.7135959929 1.745329252 1.7770625111 1.8087957702 1.8405290294 1.8722622885 1.9039955476 1.9357288068 1.9674620659 
1.999195325 2.0309285841 2.0626618433 2.0943951024 2.1261283615 2.1578616206 2.1895948798 2.2213281389 2.253061398 
2.2847946572 2.3165279163 2.3482611754 2.3799944345 2.4117276937 2.4434609528 2.4751942119 2.506927471 2.5386607302 
2.5703939893 2.6021272484 2.6338605076 2.6655937667 2.6973270258 2.7290602849 2.7607935441 2.7925268032 2.8242600623 
2.8559933214 2.8877265806 2.9194598397 2.9511930988 2.982926358 3.0146596171 3.0463928762 3.0781261353 3.1098593945 
3.1415926536 
_radius 1 100 double
5.6239296325e-16 0.015803567732 0.031496732361 0.046970574864 0.062126184892 0.076876238916 0.091143520117 0.10485703912 0.11794714518 
0.13034128351 0.14196179023 0.15272646326 0.16255188457 0.17135888323 0.17907927508 0.18566306457 0.19108547402 0.19535327343 
0.19850979923 0.2006377979 0.20185898374 0.20232921359 0.20222868173 0.20174758936 0.20106910785 0.20035255424 0.19971984276 
0.1992472303 0.19896272731 0.19884826512 0.1988452749 0.1988624953 0.19878519848 0.19848571379 0.19783645987 0.1967276535 
0.19508991815 0.19291736366 0.19028389319 0.18734697052 0.18433651848 0.18152975574 0.17921582904 0.17765755725 0.17705960641 
0.17754969131 0.17917264207 0.18189233492 0.18559730995 0.19010955181 0.19519793516 0.20059709082 0.206030504 0.21123517453 
0.21598471708 0.22010812343 0.22350211104 0.22613574247 0.22804676455 0.22933002094 0.23011944441 0.23056637637 0.23081780917 
0.23099808298 0.23119649129 0.23146166448 0.23180224934 0.23219267165 0.23258251881 0.23290796406 0.23310349593 0.23311209851 
0.23289215173 0.23241980976 0.23168642842 0.2306915676 0.22943296877 0.22789551146 0.22604136999 0.22380339001 0.22108314615 
0.21775435874 0.21367149296 0.20868256234 0.20264449892 0.19543901157 0.1869867008 0.17725737603 0.16627502293 0.15411663112 
0.1409050013 0.12679655872 0.11196594863 0.096589639204 0.080830824942 0.064827610246 0.048685848185 0.032477261985 0.0162427326 
7.5843404384e-16 
_area 1 100 double
0 0.00052246115731 0.0020794756107 0.0046451589432 0.0081882919345 0.012675982007 0.0180644348 0.024281097456 0.031207190384 
0.038667507968 0.046431134991 0.054224061475 0.061751804601 0.068727532704 0.074899966695 0.080076068232 0.084135930218 0.087040290834 
0.088832977328 0.089639677284 0.089660426112 0.089148598266 0.088370275918 0.087550745248 0.08683182654 0.086263606746 0.085834376611 
0.085522298621 0.085340423893 0.085352109968 0.085652918782 0.086330314027 0.087417406677 0.088851419225 0.090449551384 0.091926576033 
0.092961328367 0.093286376256 0.092772772662 0.091483577664 0.089713156389 0.087688997317 0.085768489628 0.084375178446 0.084061319969 
0.085356888908 0.088072198648 0.091924085653 0.0967087188 0.10224731236 0.10835953545 0.11485783773 0.12155224895 0.12823329347 
0.13460970303 0.14032215173 0.14505887219 0.14863102347 0.15099135127 0.15222493657 0.15252002442 0.15212412832 0.15129614505 
0.15027079426 0.14925088463 0.14830225281 0.14741957813 0.14645920438 0.14533478929 0.14398045485 0.14234006733 0.14037559533 
0.13807481683 0.13546173094 0.13260228566 0.12960787834 0.12668694995 0.12375188765 0.12066402077 0.11731452074 0.11356105794 
0.10923552886 0.10417287524 0.098246788578 0.091402512953 0.083678350459 0.075210739173 0.066222104957 0.056994790019 0.047837046261 
0.039047811791 0.030886249824 0.023550746259 0.017170431726 0.01180964598 0.0074821971989 0.0041697906492 0.0018394919906 0.00045766844952 
1.8532122143e-16 
