# vtk DataFile Version 5.1
vtk output
ASCII
DATASET POLYDATA
POINTS 100 float
-0.197948 -0.0401647 0.812572 -0.197215 -0.0399837 0.811952 -0.195085 -0.0393136 0.810237 
-0.191633 -0.0381832 0.807433 -0.186975 -0.0366372 0.803547 -0.181259 -0.0347293 0.798589 
-0.17465 -0.0325155 0.792567 -0.167315 -0.0300463 0.785493 -0.159409 -0.0273599 0.777377 
-0.151063 -0.0244781 0.768228 -0.142378 -0.0214034 0.758055 -0.133416 -0.0181205 0.746866 
-0.124207 -0.0146 0.734669 -0.114746 -0.0108047 0.721474 -0.10501 -0.00669797 0.707292 
-0.0949611 -0.00225238 0.692136 -0.0845609 0.00254169 0.676025 -0.0737795 0.00766927 0.658982 
-0.0626037 0.0130865 0.641036 -0.0510422 0.0187195 0.622223 -0.0391271 0.0244665 0.602583 
-0.0269122 0.0302039 0.582163 -0.0144683 0.035794 0.561011 -0.00187683 0.0410954 0.539177 
0.0107773 0.0459737 0.516712 0.0234127 0.0503119 0.493659 0.0359567 0.054019 0.470057 
0.0483484 0.0570361 0.445938 0.060538 0.059339 0.421324 0.0724849 0.0609382 0.396227 
0.0841518 0.0618749 0.370653 0.0954987 0.0622149 0.344603 0.106475 0.0620398 0.318078 
0.117016 0.0614388 0.29108 0.127035 0.0604992 0.263621 0.136424 0.0592992 0.235727 
0.145059 0.0579021 0.20744 0.152798 0.0563535 0.178826 0.159497 0.0546803 0.149971 
0.165018 0.0528932 0.120985 0.169238 0.05099 0.0919975 0.172065 0.0489617 0.0631525 
0.173443 0.0467976 0.0346038 0.173359 0.044491 0.00650614 0.17185 0.0420439 -0.0209934 
0.168996 0.0394698 -0.0477634 0.164916 0.0367952 -0.0736958 0.159763 0.0340589 -0.0987122 
0.153705 0.0313101 -0.122767 0.146921 0.0286048 -0.145851 0.139581 0.0260023 -0.167985 
0.13184 0.0235606 -0.189223 0.123827 0.0213331 -0.209638 0.115639 0.0193655 -0.22932 
0.107343 0.0176939 -0.248367 0.0989726 0.0163439 -0.266872 0.0905363 0.0153311 -0.284922 
0.0820234 0.0146615 -0.302586 0.0734122 0.0143331 -0.319914 0.064678 0.0143378 -0.336937 
0.0558007 0.0146619 -0.353666 0.0467706 0.0152881 -0.370097 0.0375917 0.0161953 -0.386215 
0.0282836 0.0173596 -0.402003 0.0188803 0.0187535 -0.417444 0.00942806 0.020347 -0.432529 
-1.81594e-05 0.0221068 -0.447264 -0.00939849 0.023998 -0.461667 -0.0186519 0.0259843 -0.47577 
-0.0277189 0.0280307 -0.489621 -0.0365438 0.0301051 -0.503273 -0.0450749 0.0321804 -0.51678 
-0.0532649 0.0342373 -0.530192 -0.0610696 0.0362651 -0.543547 -0.0684469 0.0382627 -0.556864 
-0.0753565 0.0402384 -0.570137 -0.0817592 0.042208 -0.583334 -0.0876181 0.0441922 -0.596395 
-0.0929003 0.0462127 -0.609237 -0.0975793 0.0482885 -0.621753 -0.101638 0.0504318 -0.633825 
-0.105074 0.0526441 -0.645325 -0.107896 0.0549144 -0.65613 -0.110134 0.0572177 -0.666128 
-0.111831 0.0595164 -0.675222 -0.113049 0.0617625 -0.683343 -0.113859 0.063902 -0.69045 
-0.114341 0.06588 -0.696535 -0.114578 0.0676463 -0.701619 -0.114649 0.069161 -0.705755 
-0.114622 0.0703991 -0.709019 -0.114556 0.0713534 -0.71151 -0.11449 0.0720356 -0.713339 
-0.114451 0.0724752 -0.714625 -0.114445 0.0727161 -0.715485 -0.11447 0.072812 -0.716032 
-0.114511 0.0728199 -0.716366 -0.114552 0.0727934 -0.71657 -0.114576 0.0727767 -0.716704 
-0.114571 0.072799 -0.716806 
LINES 2 100
OFFSETS vtktypeint64
0 100 
CONNECTIVITY vtktypeint64
0 1 2 3 4 5 6 7 8 
9 10 11 12 13 14 15 16 17 
18 19 20 21 22 23 24 25 26 
27 28 29 30 31 32 33 34 35 
36 37 38 39 40 41 42 43 44 
45 46 47 48 49 50 51 52 53 
54 55 56 57 58 59 60 61 62 
63 64 65 66 67 68 69 70 71 
72 73 74 75 76 77 78 79 80 
81 82 83 84 85 86 87 88 89 
90 91 92 93 94 95 96 97 98 
99 
POINT_DATA 100
FIELD FieldData 3
_theta 1 100 double
0 0.031733259127 0.063466518254 0.095199777382 0.12693303651 0.15866629564 0.19039955476 0.22213281389 0.25386607302 
0.28559933214 0.31733259127 0.3490658504 0.38079910953 0.41253236865 0.44426562778 0.47599888691 0.50773214603 0.53946540516 
0.57119866429 0.60293192342 0.63466518254 0.66639844167 0.6981317008 0.72986495992 0.76159821905 0.79333147818 0.82506473731 
0.85679799643 0.88853125556 0.92026451469 0.95199777382 0.98373103294 1.0154642921 1.0471975512 1.0789308103 1.1106640695 
1.1423973286 1.1741305877 1.2058638468 1.237597106 1.2693303651 1.3010636242 1.3327968833 1.3645301425 1.3962634016 
1.4279966607 1.4597299198 1.491463179 1.5231964381 1.5549296972 1.5866629564 1.6183962155 1.6501294746 1.6818627337 
1.7135959929 1.745329252 1.7770625111 1.8087957702 1.8405290294 1.8722622885 1.9039955476 1.9357288068 1.9674620659 
1.999195325 2.0309285841 2.0626618433 2.0943951024 2.1261283615 2.1578616206 2.1895948798 2.2213281389 2.253061398 
2.2847946572 2.3165279163 2.3482611754 2.3799944345 2.4117276937 2.4434609528 2.4751942119 2.506927471 2.5386607302 
2.5703939893 2.6021272484 2.6338605076 2.6655937667 2.6973270258 2.7290602849 2.7607935441 2.7925268032 2.8242600623 
2.8559933214 2.8877265806 2.9194598397 2.9511930988 2.982926358 3.0146596171 3.0463928762 3.0781261353 3.1098593945 
3.1415926536 
_radius 1 100 double
1.4152622168e-16 0.015890496375 0.031540308075 0.046721232503 0.061222277271 0.074858355408 0.087478682343 0.09897386681 0.10928044764 
0.11838174953 0.12630443768 0.13311097439 0.13888914352 0.14374061875 0.14777087084 0.15108231892 0.1537715967 0.15593047419 
0.15764880458 0.15901724281 0.16012764594 0.16107004948 0.16192659215 0.16276402528 0.16362683732 0.16453256627 0.16547021409 
0.16640233716 0.16727120969 0.16800888498 0.16854994275 0.1688450346 0.16887344002 0.16865276345 0.16824346914 0.16774680997 
0.16729677672 0.16704723436 0.16715449514 0.16775828696 0.16897033935 0.17087780449 0.17355499203 0.1770684994 0.18146760403 
0.18676364862 0.19290862512 0.19978269302 0.20719574519 0.21490273727 0.22262868573 0.2300977242 0.23706091384 0.24331880767 
0.24873637566 0.25324937519 0.25686243236 0.25963996956 0.26169168283 0.26315455057 0.26417343315 0.26488233895 0.26538839467 
0.26576030751 0.2660225555 0.26615581677 0.26610340001 0.26578268826 0.26509987216 0.26396566513 0.26230946316 0.26008965804 
0.25729850846 0.25396096029 0.25012785476 0.24586485038 0.24123896582 0.23630489147 0.2310931643 0.22560201283 0.21979417563 
0.21359928598 0.20692156906 0.19965177289 0.19168162076 0.18291873314 0.17329994346 0.16280119616 0.15144271422 0.13928877289 
0.12644211792 0.11303373926 0.099209309858 0.085114085007 0.070878355058 0.056605544158 0.042364671863 0.028188182424 0.014075269074 
1.695492169e-15 
_area 1 100 double
0 0.00064233069044 0.0025301838165 0.0055513808284 0.0095347753475 0.014269113811 0.019522339211 0.025058582505 0.030652104369 
0.036098529425 0.041223593016 0.045888890048 0.049993743921 0.053473313408 0.056295456371 0.058460664177 0.06000803056 0.061025680222 
0.061658114035 0.062097710642 0.062551337528 0.06319426883 0.064140904798 0.065443829101 0.067102940016 0.069066447844 0.071230637258 
0.073454559127 0.075585775938 0.077481195527 0.079017441671 0.080105027113 0.080720049637 0.080911810535 0.080770640931 0.080478202525 
0.080431644434 0.081094658935 0.082553143507 0.084760960617 0.087687888843 0.091205796884 0.095214298004 0.099701449594 0.10470933472 
0.11030303256 0.11654071402 0.12343837864 0.13093542944 0.13887314983 0.14699874186 0.15499981818 0.16255674669 0.1693890877 
0.1752824335 0.18009944566 0.18378511572 0.18637018203 0.18796796008 0.18875521242 0.18893256208 0.18868039322 0.18813988337 
0.18742097906 0.18660797001 0.18574730388 0.1848276707 0.18376688284 0.18241654989 0.18059253888 0.17812572138 0.17491217458 
0.17094281095 0.16630351543 0.16114724715 0.15564834492 0.14995598576 0.14416257974 0.1382925181 0.1323075761 0.12612378633 
0.11963470487 0.11273514423 0.10534157461 0.09740928829 0.088946765363 0.080024551939 0.070774670288 0.061379469154 0.052052943676 
0.043019563027 0.034494943639 0.026670691336 0.019704066113 0.013712484222 0.0087728785111 0.004925901741 0.0021844695937 0.00054517421465 
6.5939700654e-17 
