# vtk DataFile Version 5.1
vtk output
ASCII
DATASET POLYDATA
POINTS 100 float
-0.129246 -0.0377232 0.715108 -0.129068 -0.0376803 0.714784 -0.128606 -0.0373862 0.713839 
-0.127879 -0.0368285 0.712249 -0.126914 -0.0359878 0.70998 -0.125737 -0.0348386 0.706995 
-0.124366 -0.0333509 0.703258 -0.122802 -0.0314917 0.698744 -0.121022 -0.0292274 0.693442 
-0.118978 -0.026527 0.687356 -0.116591 -0.0233647 0.680507 -0.113761 -0.0197239 0.672927 
-0.11037 -0.0155998 0.664652 -0.106293 -0.0110027 0.655712 -0.101415 -0.00596003 0.646125 
-0.0956391 -0.000517908 0.635889 -0.0889025 0.00525917 0.624975 -0.0811855 0.0112894 0.61333 
-0.0725182 0.0174762 0.600875 -0.0629809 0.0237124 0.58752 -0.0527012 0.0298848 0.57317 
-0.0418447 0.0358801 0.55774 -0.0306027 0.0415901 0.541169 -0.0191758 0.0469178 0.523431 
-0.0077583 0.0517816 0.504545 0.00347814 0.0561191 0.484577 0.0143973 0.0598889 0.463638 
0.0249071 0.0630713 0.441875 0.0349636 0.0656673 0.419457 0.0445685 0.0676953 0.396561 
0.0537616 0.0691881 0.373351 0.0626091 0.0701878 0.349962 0.0711875 0.0707415 0.326485 
0.0795677 0.0708969 0.302959 0.0877986 0.0706981 0.279372 0.0958934 0.0701833 0.255661 
0.103821 0.0693832 0.231731 0.111501 0.0683206 0.207466 0.118808 0.0670117 0.182755 
0.125576 0.0654678 0.157511 0.131616 0.0636978 0.131692 0.136727 0.0617113 0.105311 
0.140719 0.0595211 0.0784491 0.143429 0.0571452 0.0512519 0.144738 0.0546088 0.0239206 
0.144581 0.051944 -0.00330196 0.142955 0.0491902 -0.0301536 0.139919 0.0463923 -0.0563758 
0.135593 0.0435992 -0.0817378 0.130138 0.040861 -0.106057 0.123752 0.0382268 -0.129215 
0.116647 0.0357424 -0.151163 0.109033 0.0334483 -0.171926 0.101099 0.031378 -0.191592 
0.0930075 0.0295575 -0.210297 0.084877 0.0280049 -0.228209 0.0767839 0.0267307 -0.245506 
0.0687625 0.0257386 -0.262353 0.0608113 0.0250264 -0.278891 0.0529035 0.0245867 -0.29522 
0.0449987 0.0244083 -0.311396 0.0370564 0.0244767 -0.327434 0.0290473 0.0247747 -0.343312 
0.0209626 0.025283 -0.358986 0.0128195 0.0259802 -0.3744 0.0046618 0.0268434 -0.389504 
-0.00344253 0.0278484 -0.404261 -0.0114092 0.02897 -0.418658 -0.0191471 0.0301831 -0.432702 
-0.0265697 0.0314629 -0.446423 -0.0336063 0.0327863 -0.459859 -0.0402111 0.0341323 -0.47305 
-0.0463701 0.0354831 -0.486021 -0.0521027 0.0368241 -0.49877 -0.0574604 0.0381444 -0.511263 
-0.0625197 0.0394359 -0.523427 -0.0673723 0.0406928 -0.535154 -0.0721127 0.0419105 -0.546312 
-0.0768246 0.0430837 -0.556754 -0.0815683 0.0442054 -0.56634 -0.0863701 0.0452658 -0.574957 
-0.0912159 0.0462511 -0.58253 -0.0960495 0.0471438 -0.589042 -0.100776 0.0479231 -0.594537 
-0.105269 0.0485662 -0.599123 -0.109385 0.0490509 -0.602957 -0.112978 0.0493573 -0.606238 
-0.115916 0.0494716 -0.609179 -0.118098 0.0493879 -0.611985 -0.119465 0.049111 -0.614831 
-0.120014 0.0486572 -0.617839 -0.119799 0.0480554 -0.621065 -0.11893 0.0473457 -0.624489 
-0.117563 0.0465774 -0.628024 -0.115893 0.045806 -0.63152 -0.11413 0.0450891 -0.634788 
-0.112485 0.0444819 -0.637624 -0.111145 0.0440327 -0.63983 -0.110261 0.0437789 -0.641247 
-0.109928 0.0437439 -0.641768 
LINES 2 100
OFFSETS vtktypeint64
0 100 
CONNECTIVITY vtktypeint64
0 1 2 3 4 5 6 7 8 
9 10 11 12 13 14 15 16 17 
18 19 20 21 22 23 24 25 26 
27 28 29 30 31 32 33 34 35 
36 37 38 39 40 41 42 43 44 
45 46 47 48 49 50 51 52 53 
54 55 56 57 58 59 60 61 62 
63 64 65 66 67 68 69 70 71 
72 73 74 75 76 77 78 79 80 
81 82 83 84 85 86 87 88 89 
90 91 92 93 94 95 96 97 98 
99 
POINT_DATA 100
FIELD FieldData 3
_theta 1 100 double
0 0.031733259127 0.063466518254 0.095199777382 0.12693303651 0.15866629564 0.19039955476 0.22213281389 0.25386607302 
0.28559933214 0.31733259127 0.3490658504 0.38079910953 0.41253236865 0.44426562778 0.47599888691 0.50773214603 0.53946540516 
0.57119866429 0.60293192342 0.63466518254 0.66639844167 0.6981317008 0.72986495992 0.76159821905 0.79333147818 0.82506473731 
0.85679799643 0.88853125556 0.92026451469 0.95199777382 0.98373103294 1.0154642921 1.0471975512 1.0789308103 1.1106640695 
1.1423973286 1.1741305877 1.2058638468 1.237597106 1.2693303651 1.3010636242 1.3327968833 1.3645301425 1.3962634016 
1.4279966607 1.4597299198 1.491463179 1.5231964381 1.5549296972 1.5866629564 1.6183962155 1.6501294746 1.6818627337 
1.7135959929 1.745329252 1.7770625111 1.8087957702 1.8405290294 1.8722622885 1.9039955476 1.9357288068 1.9674620659 
1.999195325 2.0309285841 2.0626618433 2.0943951024 2.1261283615 2.1578616206 2.1895948798 2.2213281389 2.253061398 
2.2847946572 2.3165279163 2.3482611754 2.3799944345 2.4117276937 2.4434609528 2.4751942119 2.506927471 2.5386607302 
2.5703939893 2.6021272484 2.6338605076 2.6655937667 2.6973270258 2.7290602849 2.7607935441 2.7925268032 2.8242600623 
2.8559933214 2.8877265806 2.9194598397 2.9511930988 2.982926358 3.0146596171 3.0463928762 3.0781261353 3.1098593945 
3.1415926536 
_radius 1 100 double
1.5637625301e-15 0.015130064929 0.030163333038 0.044999118001 0.0595304505 0.073641663279 0.087207314251 0.10009318577 0.11215994875 
0.12326968037 0.13329487951 0.14212908304 0.14969776987 0.15596801259 0.16095533011 0.16472642671 0.16739698414 0.16912437724 
0.17009601606 0.17051479493 0.17058362916 0.17049112852 0.17040009679 0.17043989879 0.17070294794 0.17124468717 0.17208550063 
0.17321233835 0.17457851979 0.17610334645 0.17767672506 0.17917240249 0.18046716658 0.18146007599 0.18208724345 0.18233003885 
0.18221601356 0.18181291373 0.18121749852 0.18054248538 0.17990591885 0.17942632243 0.17922387428 0.17942412037 0.18015865084 
0.18155793633 0.18373492792 0.18676271685 0.19065333526 0.19534545777 0.2007056799 0.20654292776 0.21263128654 0.21873501625 
0.22463067949 0.2301237662 0.23505949491 0.23932878689 0.24287067502 0.24567198894 0.24776453433 0.24921954718 0.25013916905 
0.25064507385 0.25086503004 0.25091884197 0.2509055026 0.25089332059 0.2509142315 0.25096262131 0.2509980653 0.25095074134 
0.25072813173 0.25022198066 0.24931508061 0.24788796635 0.2458257325 0.24302491768 0.23939990715 0.23488790529 0.22945148658 
0.22307814229 0.21577698693 0.20757360685 0.19850460946 0.18861349206 0.17794887563 0.16656509124 0.15452402101 0.14189652707 
0.12876202781 0.11520563249 0.10131327083 0.087166013671 0.072835030041 0.058378350582 0.043839971881 0.029251118421 0.014632965565 
1.018213301e-15 
_area 1 100 double
0 0.00053985288523 0.0021516504803 0.004809876768 0.0084648326017 0.013033191576 0.018388039683 0.024351886826 0.030696170686 
0.037149713086 0.04341662439 0.049201765832 0.054239834843 0.058323192671 0.06132409709 0.063208855514 0.064043597333 0.06399103899 
0.06328990968 0.062206412072 0.060987301934 0.059854273656 0.059011979914 0.058632735793 0.058823480537 0.059617467133 0.060996830143 
0.062911670539 0.065279738794 0.067975102364 0.070832211982 0.073677864841 0.076377522744 0.078895391224 0.081370861369 0.083923333044 
0.086324124722 0.088335637146 0.089867846716 0.090953519449 0.091711933354 0.092307911813 0.092916641331 0.093705382813 0.094829731447 
0.096431450426 0.098646785258 0.10162795959 0.10552725159 0.11043029927 0.11630517663 0.12300712181 0.13030858608 0.13792950104 
0.14556626774 0.15291854126 0.1597096104 0.16569705677 0.17067874557 0.1745124252 0.17714951738 0.17865244725 0.17918025708 
0.17895331677 0.17821089646 0.17717247481 0.17601135137 0.17484326933 0.1737261114 0.17266497381 0.17161865498 0.17050518338 
0.16920529178 0.16756494465 0.16540100264 0.16251529116 0.15871907981 0.15386409388 0.14787232519 0.14075651114 0.13262487465 
0.12366719166 0.11412447079 0.1042499623 0.094272391035 0.084371615494 0.07467247004 0.065255930887 0.056180506045 0.047503724565 
0.039295390678 0.031639712812 0.024629084748 0.018355039232 0.012901005044 0.0083386399702 0.0047269808672 0.0021126771957 0.0005299657645 
1.2356618551e-17 
