# vtk DataFile Version 5.1
vtk output
ASCII
DATASET POLYDATA
POINTS 100 float
-0.211009 -0.042445 0.692547 -0.210801 -0.0424686 0.692332 -0.210205 -0.0423937 0.691717 
-0.209171 -0.0422111 0.690658 -0.207616 -0.0419046 0.689088 -0.205445 -0.0414499 0.686925 
-0.202559 -0.0408143 0.684088 -0.198869 -0.0399559 0.680512 -0.194311 -0.0388241 0.676153 
-0.188856 -0.0373617 0.671001 -0.18251 -0.0355072 0.665081 -0.175324 -0.0331994 0.658452 
-0.16738 -0.0303819 0.651199 -0.15879 -0.0270085 0.643421 -0.149679 -0.0230493 0.635218 
-0.140176 -0.0184945 0.626677 -0.1304 -0.0133588 0.617857 -0.120451 -0.00768288 0.608781 
-0.110404 -0.00153326 0.599429 -0.100303 0.0049997 0.58974 -0.090169 0.0118061 0.579618 
-0.0799993 0.0187621 0.568942 -0.0697807 0.0257371 0.557585 -0.0594966 0.0326006 0.545422 
-0.0491369 0.0392295 0.532357 -0.0387052 0.0455136 0.518327 -0.0282229 0.051361 0.503316 
-0.0177298 0.0567002 0.487355 -0.00728022 0.061481 0.470518 0.00306309 0.065674 0.452916 
0.0132381 0.0692676 0.43468 0.0231924 0.0722648 0.415942 0.0328921 0.074679 0.396821 
0.0423263 0.0765303 0.377403 0.0515095 0.0778419 0.357729 0.0604782 0.0786379 0.337792 
0.0692835 0.0789416 0.31753 0.0779795 0.0787761 0.296839 0.0866097 0.0781644 0.275583 
0.0951923 0.077131 0.25361 0.103707 0.0757041 0.230778 0.112087 0.0739165 0.206972 
0.120213 0.0718073 0.182122 0.127913 0.0694218 0.15622 0.134978 0.0668111 0.129329 
0.141167 0.0640307 0.101579 0.146233 0.0611381 0.0731665 0.149942 0.058191 0.0443386 
0.152095 0.055244 0.0153768 0.152548 0.0523474 -0.0134246 0.151227 0.0495447 -0.0417795 
0.148137 0.0468726 -0.0694306 0.143364 0.044361 -0.0961659 0.137065 0.0420337 -0.12183 
0.129458 0.0399096 -0.146328 0.120803 0.0380047 -0.169631 0.111376 0.036333 -0.19176 
0.101447 0.0349074 -0.212785 0.0912605 0.0337396 -0.232807 0.0810164 0.0328392 -0.251945 
0.0708577 0.0322124 -0.270319 0.0608675 0.0318592 -0.288046 0.0510708 0.0317713 -0.305226 
0.0414439 0.03193 -0.321937 0.0319288 0.0323045 -0.33824 0.0224496 0.0328519 -0.354174 
0.0129314 0.0335186 -0.369768 0.00331599 0.0342427 -0.38504 -0.00642508 0.0349585 -0.400006 
-0.0162824 0.0356016 -0.414683 -0.0262064 0.0361148 -0.429093 -0.0361109 0.0364536 -0.443259 
-0.0458812 0.0365911 -0.457206 -0.0553859 0.0365207 -0.470955 -0.0644906 0.0362578 -0.484517 
-0.0730718 0.0358379 -0.497891 -0.0810286 0.0353132 -0.511053 -0.0882919 0.0347471 -0.52396 
-0.0948285 0.0342065 -0.536544 -0.100643 0.0337545 -0.548717 -0.105771 0.0334426 -0.560376 
-0.110276 0.0333044 -0.571406 -0.114238 0.0333513 -0.581695 -0.117742 0.0335708 -0.591136 
-0.120873 0.0339277 -0.599642 -0.123704 0.0343681 -0.607148 -0.126292 0.0348259 -0.613622 
-0.128675 0.0352309 -0.619061 -0.130877 0.0355175 -0.623499 -0.132901 0.0356331 -0.626998 
-0.134746 0.0355453 -0.629649 -0.1364 0.0352461 -0.631562 -0.137853 0.0347538 -0.632858 
-0.139096 0.0341115 -0.633666 -0.140127 0.0333822 -0.634113 -0.140948 0.0326422 -0.634314 
-0.141565 0.0319717 -0.634372 -0.141988 0.0314458 -0.634371 -0.142226 0.0311255 -0.634371 
-0.142286 0.0310505 -0.634409 
LINES 2 100
OFFSETS vtktypeint64
0 100 
CONNECTIVITY vtktypeint64
0 1 2 3 4 5 6 7 8 
9 10 11 12 13 14 15 16 17 
18 19 20 21 22 23 24 25 26 
27 28 29 30 31 32 33 34 35 
36 37 38 39 40 41 42 43 44 
45 46 47 48 49 50 51 52 53 
54 55 56 57 58 59 60 61 62 
63 64 65 66 67 68 69 70 71 
72 73 74 75 76 77 78 79 80 
81 82 83 84 85 86 87 88 89 
90 91 92 93 94 95 96 97 98 
99 
POINT_DATA 100
FIELD FieldData 3
_theta 1 100 double
0 0.031733259127 0.063466518254 0.095199777382 0.12693303651 0.15866629564 0.19039955476 0.22213281389 0.25386607302 
0.28559933214 0.31733259127 0.3490658504 0.38079910953 0.41253236865 0.44426562778 0.47599888691 0.50773214603 0.53946540516 
0.57119866429 0.60293192342 0.63466518254 0.66639844167 0.6981317008 0.72986495992 0.76159821905 0.79333147818 0.82506473731 
0.85679799643 0.88853125556 0.92026451469 0.95199777382 0.98373103294 1.0154642921 1.0471975512 1.0789308103 1.1106640695 
1.1423973286 1.1741305877 1.2058638468 1.237597106 1.2693303651 1.3010636242 1.3327968833 1.3645301425 1.3962634016 
1.4279966607 1.4597299198 1.491463179 1.5231964381 1.5549296972 1.5866629564 1.6183962155 1.6501294746 1.6818627337 
1.7135959929 1.745329252 1.7770625111 1.8087957702 1.8405290294 1.8722622885 1.9039955476 1.9357288068 1.9674620659 
1.999195325 2.0309285841 2.0626618433 2.0943951024 2.1261283615 2.1578616206 2.1895948798 2.2213281389 2.253061398 
2.2847946572 2.3165279163 2.3482611754 2.3799944345 2.4117276937 2.4434609528 2.4751942119 2.506927471 2.5386607302 
2.5703939893 2.6021272484 2.6338605076 2.6655937667 2.6973270258 2.7290602849 2.7607935441 2.7925268032 2.8242600623 
2.8559933214 2.8877265806 2.9194598397 2.9511930988 2.982926358 3.0146596171 3.0463928762 3.0781261353 3.1098593945 
3.1415926536 
_radius 1 100 double
1.3475038967e-15 0.014163475882 0.028192289488 0.04194813208 0.055301613284 0.068135946209 0.08034949392 0.091857313209 0.10259182011 
0.11250251639 0.12155464999 0.12972692973 0.13700885681 0.14339855034 0.14890188252 0.15353329859 0.15731809325 0.16029541142 
0.16252099829 0.1640687543 0.16503039359 0.16551288891 0.16563383616 0.16551526576 0.16527662109 0.16502755068 0.16486091695 
0.16484623845 0.16502387815 0.16540070572 0.16594843928 0.16660594753 0.16728615527 0.16788705299 0.16830525827 0.16845000705 
0.16825532098 0.16768827514 0.16675195352 0.16548319149 0.16394727268 0.16223269857 0.16044759219 0.15871674805 0.15717743122 
0.15597293815 0.15524418858 0.15512042744 0.15571038182 0.15709479198 0.15932019449 0.16239316842 0.16627511658 0.17087952254 
0.17607428402 0.1816899881 0.18753244356 0.19339668268 0.19908027825 0.20439495662 0.20917621639 0.21329093426 0.21664299912 
0.21917697046 0.2208796221 0.22177908911 0.22194133211 0.22146384294 0.2204668683 0.21908277485 0.21744440461 0.21567334321 
0.21386901431 0.21209953456 0.21039533119 0.20874642376 0.20710371935 0.20538377578 0.20347583588 0.20124997016 0.19856568463 
0.19528082257 0.19126070287 0.18638723574 0.18056742778 0.1737403975 0.16588187592 0.15700524122 0.14715849524 0.13641727704 
0.12487499411 0.11263219344 0.099787792128 0.0864340701 0.072655546084 0.05853028798 0.044131929183 0.029531375074 0.014797939061 
1.121119705e-15 
_area 1 100 double
0 0.00045566235122 0.0018120103491 0.0040378785397 0.0070826343412 0.010875366757 0.015321783346 0.020301002095 0.025665022624 
0.03124203115 0.036842995587 0.042270747578 0.047331457586 0.051848638412 0.055678770246 0.058725933555 0.060951760348 0.062377447693 
0.063076588984 0.063160555207 0.062760611766 0.062009059196 0.061027254303 0.059969763564 0.058913129712 0.057963213289 0.057227692764 
0.056790871223 0.056710383137 0.057015045578 0.057708595356 0.058795029128 0.060404102686 0.062277519725 0.064148092075 0.065839308615 
0.067244113464 0.068328923211 0.069111685282 0.069615275812 0.069850666141 0.06984313407 0.069661882375 0.069425990449 0.069281218576 
0.069363408876 0.069765808304 0.070526718154 0.0716551831 0.073192386654 0.075258937633 0.078012747443 0.081549458167 0.085911275973 
0.091106090315 0.097061487424 0.10359384599 0.11042372418 0.11721588425 0.12361999958 0.12930567048 0.13399023704 0.13745861579 
0.13957583233 0.14029389428 0.13965465772 0.13778892557 0.13490949352 0.13129381481 0.12725292239 0.12308968062 0.11905792601 
0.1153337871 0.1120017452 0.10905449786 0.10640794194 0.1039301124 0.10147462512 0.098904312694 0.096096487588 0.092934724601 
0.089302602605 0.085092320535 0.080227109732 0.07468516831 0.068513467151 0.061827213185 0.054796868247 0.047626685736 0.040528471167 
0.033694617657 0.027276937767 0.02137993333 0.016072445722 0.011409594702 0.0074504299206 0.0042632076186 0.0019197014072 0.00048387928574 
8.4120943722e-17 
