# vtk DataFile Version 5.1
vtk output
ASCII
DATASET POLYDATA
POINTS 100 float
-0.142586 -0.0757806 0.732797 -0.142318 -0.0757082 0.732517 -0.141489 -0.0752763 0.731633 
-0.14014 -0.0744459 0.73014 -0.138332 -0.073158 0.728031 -0.13614 -0.0713413 0.725301 
-0.13364 -0.0689215 0.721955 -0.130899 -0.0658309 0.718008 -0.127965 -0.0620175 0.713489 
-0.124861 -0.0574534 0.708438 -0.121576 -0.0521388 0.702908 -0.118071 -0.046105 0.696958 
-0.114275 -0.039413 0.690642 -0.110097 -0.0321499 0.684009 -0.105434 -0.0244224 0.677088 
-0.100182 -0.0163496 0.669885 -0.0942488 -0.00805455 0.662373 -0.0875637 0.000342567 0.654497 
-0.0800857 0.00873102 0.646171 -0.0718096 0.0170134 0.637284 -0.0627665 0.0251073 0.62771 
-0.0530223 0.0329454 0.617318 -0.042671 0.0404727 0.605987 -0.0318267 0.0476436 0.593614 
-0.0206135 0.0544176 0.580125 -0.00915502 0.0607566 0.565483 0.00243518 0.0666218 0.549693 
0.0140609 0.071973 0.532792 0.0256479 0.0767697 0.514852 0.0371456 0.080973 0.495968 
0.0485248 0.0845496 0.476241 0.0597729 0.0874757 0.455773 0.0708866 0.089741 0.434651 
0.0818634 0.0913517 0.412938 0.0926929 0.0923323 0.390667 0.103349 0.0927245 0.367842 
0.113782 0.092585 0.344441 0.123919 0.0919805 0.320422 0.133657 0.090982 0.295735 
0.142871 0.0896578 0.270337 0.151414 0.088067 0.244202 0.159128 0.086254 0.217334 
0.16585 0.0842453 0.189774 0.171423 0.0820478 0.161607 0.175707 0.079651 0.132959 
0.178583 0.0770314 0.103991 0.179967 0.0741587 0.0748911 0.179809 0.071004 0.0458619 
0.178103 0.0675483 0.0171047 0.17488 0.0637897 -0.0111934 0.170216 0.0597499 -0.0388712 
0.164219 0.0554774 -0.0658036 0.157032 0.0510476 -0.0919051 0.148821 0.0465602 -0.117131 
0.139771 0.0421329 -0.141476 0.130073 0.0378928 -0.16496 0.119919 0.0339665 -0.187628 
0.109492 0.0304698 -0.209534 0.0989573 0.0274976 -0.230731 0.0884564 0.025116 -0.251267 
0.0780998 0.0233576 -0.271177 0.0679638 0.0222189 -0.290482 0.058089 0.0216618 -0.309189 
0.0484808 0.021618 -0.3273 0.0391129 0.0219965 -0.344812 0.0299328 0.0226916 -0.361728 
0.0208701 0.0235928 -0.378062 0.0118456 0.0245937 -0.393841 0.00278239 0.0255999 -0.40911 
-0.00638415 0.0265343 -0.423929 -0.0156969 0.027341 -0.438368 -0.0251693 0.0279857 -0.452499 
-0.0347808 0.0284541 -0.466389 -0.0444757 0.0287484 -0.480088 -0.0541652 0.028883 -0.493625 
-0.0637337 0.0288786 -0.506993 -0.0730479 0.0287583 -0.520157 -0.081968 0.0285428 -0.533043 
-0.0903608 0.0282482 -0.545549 -0.0981117 0.027885 -0.557551 -0.105136 0.0274582 -0.568911 
-0.111387 0.0269687 -0.579493 -0.11686 0.026416 -0.589172 -0.121594 0.0258004 -0.597846 
-0.125665 0.0251253 -0.605444 -0.129181 0.0243987 -0.611934 -0.132266 0.0236343 -0.617324 
-0.135051 0.0228507 -0.621661 -0.137657 0.0220699 -0.625025 -0.140184 0.0213158 -0.627524 
-0.1427 0.0206116 -0.629282 -0.145232 0.0199771 -0.630435 -0.147769 0.0194274 -0.631115 
-0.15026 0.0189715 -0.631451 -0.152623 0.0186124 -0.631556 -0.154757 0.0183473 -0.631526 
-0.156551 0.0181696 -0.631439 -0.157903 0.0180708 -0.631355 -0.158728 0.0180427 -0.631315 
-0.15897 0.0180791 -0.631343 
LINES 2 100
OFFSETS vtktypeint64
0 100 
CONNECTIVITY vtktypeint64
0 1 2 3 4 5 6 7 8 
9 10 11 12 13 14 15 16 17 
18 19 20 21 22 23 24 25 26 
27 28 29 30 31 32 33 34 35 
36 37 38 39 40 41 42 43 44 
45 46 47 48 49 50 51 52 53 
54 55 56 57 58 59 60 61 62 
63 64 65 66 67 68 69 70 71 
72 73 74 75 76 77 78 79 80 
81 82 83 84 85 86 87 88 89 
90 91 92 93 94 95 96 97 98 
99 
POINT_DATA 100
FIELD FieldData 3
_theta 1 100 double
0 0.031733259127 0.063466518254 0.095199777382 0.12693303651 0.15866629564 0.19039955476 0.22213281389 0.25386607302 
0.28559933214 0.31733259127 0.3490658504 0.38079910953 0.41253236865 0.44426562778 0.47599888691 0.50773214603 0.53946540516 
0.57119866429 0.60293192342 0.63466518254 0.66639844167 0.6981317008 0.72986495992 0.76159821905 0.79333147818 0.82506473731 
0.85679799643 0.88853125556 0.92026451469 0.95199777382 0.98373103294 1.0154642921 1.0471975512 1.0789308103 1.1106640695 
1.1423973286 1.1741305877 1.2058638468 1.237597106 1.2693303651 1.3010636242 1.3327968833 1.3645301425 1.3962634016 
1.4279966607 1.4597299198 1.491463179 1.5231964381 1.5549296972 1.5866629564 1.6183962155 1.6501294746 1.6818627337 
1.7135959929 1.745329252 1.7770625111 1.8087957702 1.8405290294 1.8722622885 1.9039955476 1.9357288068 1.9674620659 
1.999195325 2.0309285841 2.0626618433 2.0943951024 2.1261283615 2.1578616206 2.1895948798 2.2213281389 2.253061398 
2.2847946572 2.3165279163 2.3482611754 2.3799944345 2.4117276937 2.4434609528 2.4751942119 2.506927471 2.5386607302 
2.5703939893 2.6021272484 2.6338605076 2.6655937667 2.6973270258 2.7290602849 2.7607935441 2.7925268032 2.8242600623 
2.8559933214 2.8877265806 2.9194598397 2.9511930988 2.982926358 3.0146596171 3.0463928762 3.0781261353 3.1098593945 
3.1415926536 
_radius 1 100 double
4.6547515373e-16 0.014319197497 0.028642559876 0.04296256251 0.057258434447 0.071491854797 0.085604488822 0.099517186949 0.11313058119 
0.1263269707 0.13897364212 0.15092793103 0.1620442539 0.17218299627 0.18122063341 0.18905997652 0.1956391702 0.20093812185 
0.20498140875 0.20783728362 0.2096130338 0.21044748101 0.21050169908 0.2099490077 0.20896501127 0.20771804535 0.20636008377 
0.20501812867 0.20378640431 0.20272015781 0.20183225707 0.20109379998 0.20043950096 0.1997778138 0.19900487642 0.19802073394 
0.19674602518 0.19513727204 0.19319890522 0.19099018739 0.18862543149 0.18626639832 0.18410621232 0.18234461283 0.18115635364 
0.18065991456 0.18089947621 0.1818506064 0.18344726638 0.18561613419 0.18830317179 0.19148371196 0.19515489381 0.19931556649 
0.20394292619 0.20897561769 0.21430916424 0.21980367709 0.22529947876 0.2306351564 0.23566368063 0.24026403702 0.24434748932 
0.24785888366 0.25077420891 0.25309588079 0.25484698768 0.25606528224 0.25679733451 0.25709311909 0.2570012824 0.25656521202 
0.25581974518 0.2547880773 0.25347841732 0.2518802895 0.24996096484 0.24766303444 0.24490433493 0.2415811786 0.23757519518 
0.23276327188 0.22702932743 0.22027616425 0.21243551726 0.20347469962 0.19339890971 0.18224918947 0.17009695137 0.1570365601 
0.1431774184 0.12863648463 0.11353158234 0.097975613734 0.082071851288 0.065910606286 0.049567566913 0.033103942504 0.016568327751 
1.1560321854e-15 
_area 1 100 double
0 0.0005740990562 0.0022881566845 0.0051158345075 0.0090080666346 0.013886427511 0.019636747753 0.026106149621 0.033106074719 
0.040421391437 0.047822639633 0.05507747474 0.061959937944 0.068260201098 0.073798412228 0.078442594811 0.082125673204 0.084855108106 
0.086711075244 0.08782926913 0.088355994344 0.088380997953 0.087914127655 0.086929767738 0.085424052226 0.083465524566 0.081303091508 
0.079415063375 0.07790657135 0.076973210047 0.076806133028 0.077540049209 0.079182593787 0.08170233245 0.084474552902 0.08691617649 
0.088662299851 0.089519186418 0.089485306944 0.088758316546 0.087689113169 0.086653116338 0.085988189568 0.086072436322 0.087536120821 
0.09086010169 0.094510122235 0.097985965734 0.10108360154 0.10376730944 0.10616953481 0.10858240784 0.11138281615 0.11491660302 
0.11941880189 0.1249843616 0.13156022926 0.13893548542 0.14673207699 0.15444856284 0.16158047603 0.16773969165 0.17270512711 
0.17641478054 0.17894259002 0.18047647076 0.1811436563 0.18090487589 0.1797775498 0.17786190346 0.17532039778 0.17235035784 
0.16914968613 0.16588362116 0.16265759189 0.15949851758 0.15634618287 0.15305672678 0.14942005583 0.14519118162 0.1401318456 
0.13405458848 0.1268593452 0.11855426601 0.10925671302 0.099175238589 0.088577777433 0.077754772784 0.066987047608 0.056525276102 
0.046581990755 0.037332078536 0.028916586106 0.021446784282 0.015008053473 0.0096641731098 0.0054620473721 0.0024359701215 0.00061027913349 
2.494130894e-17 
