# vtk DataFile Version 5.1
vtk output
ASCII
DATASET POLYDATA
POINTS 100 float
-0.185071 -0.0403176 0.708971 -0.184897 -0.0404122 0.708724 -0.184462 -0.0404912 0.70795 
-0.183761 -0.0405003 0.70663 -0.182778 -0.0403555 0.704733 -0.181489 -0.03995 0.70222 
-0.179857 -0.0391649 0.699044 -0.177828 -0.0378798 0.695154 -0.175336 -0.0359846 0.6905 
-0.172302 -0.0333906 0.685031 -0.168639 -0.0300393 0.678706 -0.164261 -0.0259094 0.671488 
-0.15909 -0.0210209 0.663354 -0.153065 -0.0154347 0.654288 -0.146152 -0.00925038 0.64429 
-0.138348 -0.00259954 0.63337 -0.129689 0.0043626 0.62155 -0.120246 0.0114676 0.608859 
-0.110126 0.0185452 0.595333 -0.0994567 0.0254338 0.581012 -0.0883824 0.0319906 0.565936 
-0.0770476 0.0380991 0.550141 -0.0655841 0.0436739 0.53366 -0.0540993 0.0486629 0.516517 
-0.0426673 0.0530457 0.498731 -0.0313243 0.05683 0.480308 -0.0200689 0.0600452 0.461249 
-0.00886802 0.0627343 0.441547 0.00233245 0.0649463 0.421191 0.0135938 0.066728 0.400169 
0.0249685 0.0681174 0.37847 0.0364844 0.0691392 0.356089 0.0481315 0.0698033 0.333029 
0.0598521 0.0701047 0.309307 0.071537 0.070027 0.284952 0.0830277 0.0695479 0.260013 
0.0941246 0.0686449 0.234554 0.1046 0.067303 0.208656 0.114218 0.065521 0.182418 
0.122751 0.0633163 0.155954 0.129999 0.0607284 0.129385 0.135809 0.0578195 0.102844 
0.140087 0.0546718 0.0764636 0.1428 0.0513835 0.0503762 0.143985 0.0480617 0.0247067 
0.143734 0.0448142 -0.000431544 0.142189 0.0417413 -0.0249411 0.139527 0.0389274 -0.0487439 
0.135939 0.0364348 -0.0717845 0.131618 0.0342989 -0.0940315 0.12674 0.0325267 -0.115478 
0.121458 0.0310977 -0.136141 0.115888 0.0299681 -0.156059 0.110114 0.0290767 -0.17529 
0.104188 0.0283531 -0.193907 0.0981355 0.0277254 -0.211993 0.091965 0.0271294 -0.229635 
0.0856788 0.0265148 -0.246919 0.0792806 0.0258509 -0.263927 0.0727826 0.0251294 -0.280728 
0.0662092 0.0243639 -0.29738 0.0595972 0.0235882 -0.313922 0.0529936 0.0228511 -0.330375 
0.0464499 0.0222102 -0.346744 0.0400157 0.0217254 -0.363014 0.0337326 0.0214515 -0.379158 
0.0276286 0.0214324 -0.395139 0.0217154 0.0216968 -0.410912 0.015988 0.0222554 -0.426429 
0.0104283 0.0231007 -0.441645 0.00501026 0.0242089 -0.456517 -0.000292248 0.025543 -0.471012 
-0.00549761 0.0270578 -0.485105 -0.0106093 0.0287047 -0.498778 -0.0156106 0.030437 -0.512024 
-0.0204631 0.0322138 -0.524839 -0.0251083 0.0340033 -0.537226 -0.0294732 0.035784 -0.549185 
-0.0334795 0.0375442 -0.560714 -0.0370539 0.0392812 -0.571809 -0.0401399 0.0409978 -0.582453 
-0.0427079 0.0426993 -0.592625 -0.0447631 0.0443903 -0.602296 -0.0463487 0.0460717 -0.611429 
-0.0475447 0.0477385 -0.619983 -0.0484619 0.0493794 -0.627919 -0.0492304 0.0509767 -0.635198 
-0.0499863 0.0525081 -0.641792 -0.0508557 0.0539493 -0.647682 -0.051939 0.0552763 -0.652863 
-0.0532987 0.0564689 -0.657344 -0.05495 0.0575125 -0.66115 -0.0568581 0.0584004 -0.664322 
-0.0589403 0.0591336 -0.66691 -0.0610751 0.0597208 -0.668973 -0.0631154 0.0601762 -0.67057 
-0.064906 0.0605177 -0.67176 -0.0663011 0.0607632 -0.672594 -0.0671821 0.0609284 -0.673112 
-0.0674719 0.0610239 -0.673336 
LINES 2 100
OFFSETS vtktypeint64
0 100 
CONNECTIVITY vtktypeint64
0 1 2 3 4 5 6 7 8 
9 10 11 12 13 14 15 16 17 
18 19 20 21 22 23 24 25 26 
27 28 29 30 31 32 33 34 35 
36 37 38 39 40 41 42 43 44 
45 46 47 48 49 50 51 52 53 
54 55 56 57 58 59 60 61 62 
63 64 65 66 67 68 69 70 71 
72 73 74 75 76 77 78 79 80 
81 82 83 84 85 86 87 88 89 
90 91 92 93 94 95 96 97 98 
99 
POINT_DATA 100
FIELD FieldData 3
_theta 1 100 double
0 0.031733259127 0.063466518254 0.095199777382 0.12693303651 0.15866629564 0.19039955476 0.22213281389 0.25386607302 
0.28559933214 0.31733259127 0.3490658504 0.38079910953 0.41253236865 0.44426562778 0.47599888691 0.50773214603 0.53946540516 
0.57119866429 0.60293192342 0.63466518254 0.66639844167 0.6981317008 0.72986495992 0.76159821905 0.79333147818 0.82506473731 
0.85679799643 0.88853125556 0.92026451469 0.95199777382 0.98373103294 1.0154642921 1.0471975512 1.0789308103 1.1106640695 
1.1423973286 1.1741305877 1.2058638468 1.237597106 1.2693303651 1.3010636242 1.3327968833 1.3645301425 1.3962634016 
1.4279966607 1.4597299198 1.491463179 1.5231964381 1.5549296972 1.5866629564 1.6183962155 1.6501294746 1.6818627337 
1.7135959929 1.745329252 1.7770625111 1.8087957702 1.8405290294 1.8722622885 1.9039955476 1.9357288068 1.9674620659 
1.999195325 2.0309285841 2.0626618433 2.0943951024 2.1261283615 2.1578616206 2.1895948798 2.2213281389 2.253061398 
2.2847946572 2.3165279163 2.3482611754 2.3799944345 2.4117276937 2.4434609528 2.4751942119 2.506927471 2.5386607302 
2.5703939893 2.6021272484 2.6338605076 2.6655937667 2.6973270258 2.7290602849 2.7607935441 2.7925268032 2.8242600623 
2.8559933214 2.8877265806 2.9194598397 2.9511930988 2.982926358 3.0146596171 3.0463928762 3.0781261353 3.1098593945 
3.1415926536 
_radius 1 100 double
1.4459562745e-15 0.01548697543 0.030936916142 0.046299764013 0.06151095839 0.076485970615 0.091116923429 0.10527212049 0.11879922633 
0.13153251063 0.14330399405 0.15395760405 0.16336473207 0.17143905879 0.1781483231 0.18352093219 0.18764594639 0.19066595477 
0.19276354172 0.19414320804 0.19501146628 0.19555811343 0.19594128097 0.19627790693 0.19664009448 0.19705678711 0.19751956886 
0.197991276 0.19841635624 0.19873224804 0.19888121323 0.19882196165 0.19854017854 0.19805684465 0.19743306075 0.19677000865 
0.19620301935 0.195889903 0.19599559444 0.19667658736 0.19806803028 0.20027380711 0.20335777339 0.20733481489 0.21216310594 
0.21774118977 0.22391301087 0.23048111877 0.23722534497 0.24392317057 0.2503685943 0.25638744849 0.26184805809 0.26666679778 
0.27080862049 0.27428309944 0.27713691161 0.27944391833 0.28129403582 0.28278198554 0.28399686203 0.28501331686 0.28588502419 
0.28664091321 0.28728437844 0.2877953161 0.28813445236 0.28824912054 0.28807948716 0.28756425998 0.28664512919 0.28526954551 
0.28339183108 0.28097293186 0.27797927619 0.27438121034 0.2701514207 0.26526369637 0.25969234535 0.25341250621 0.24640145364 
0.23864078788 0.23011917865 0.22083516584 0.21079943886 0.2000360313 0.18858198683 0.17648530282 0.16380135048 0.15058842919 
0.13690346027 0.12279886031 0.10832128844 0.093512369205 0.078410913331 0.06305580456 0.047488663947 0.031755594863 0.015907647142 
5.9175924912e-16 
_area 1 100 double
0 0.00059451440314 0.0023811890626 0.0053629739081 0.0095253322062 0.014813722181 0.021113409826 0.028238393944 0.035933116288 
0.043886729233 0.051756953375 0.059200002749 0.065903605181 0.071619570204 0.076190404901 0.079563622379 0.081789719124 0.083004681606 
0.083402806489 0.083208258195 0.082653317957 0.081968842756 0.08138896345 0.081149741055 0.081405835676 0.082144961434 0.083275093238 
0.084696473227 0.086298769269 0.087952161243 0.089514486192 0.090853013348 0.091877294769 0.092588360702 0.093178720936 0.094075870687 
0.095461177107 0.097257362858 0.09939114024 0.10183527189 0.10463872707 0.10798912783 0.1123322105 0.11777440746 0.12392872527 
0.13061602476 0.13776716734 0.14531000334 0.15312791488 0.16105496326 0.16889110567 0.17643081008 0.1835764643 0.19066847473 
0.19752837189 0.20360846011 0.20879729727 0.21304826637 0.21631410031 0.21867570718 0.22029702607 0.22135766966 0.22191662815 
0.22203581243 0.22176439508 0.22111066286 0.22004444839 0.21851142581 0.21644881114 0.21379678626 0.21050528319 0.20653859129 
0.20187939226 0.19653159954 0.19052039627 0.18388860347 0.17668995924 0.16898105438 0.16081420628 0.15223361911 0.14327660964 
0.13397975498 0.12438704144 0.11455585646 0.10455831892 0.094478474288 0.084407851914 0.074441636398 0.064676082853 0.055206958162 
0.046129575063 0.037541406243 0.029546546685 0.022259064112 0.015802207164 0.010302583122 0.0058808294156 0.0026414986244 0.00066459856669 
4.1310199183e-17 
