# vtk DataFile Version 5.1
vtk output
ASCII
DATASET POLYDATA
POINTS 100 float
-0.028735 0.0158801 0.66656 -0.0284586 0.0158034 0.666296 -0.0276558 0.0157316 0.665611 
-0.0263755 0.0156755 0.664476 -0.02469 0.0156533 0.662839 -0.0226828 0.01569 0.660634 
-0.0204339 0.0158173 0.657787 -0.0180054 0.0160723 0.654219 -0.0154296 0.0164963 0.649854 
-0.0127003 0.0171328 0.644623 -0.00977094 0.0180258 0.63847 -0.00655811 0.0192165 0.631355 
-0.00295113 0.0207411 0.623249 0.00117356 0.0226275 0.614145 0.00593515 0.024893 0.604046 
0.0114307 0.0275422 0.592969 0.0177192 0.0305648 0.580939 0.0248102 0.0339356 0.567989 
0.0326575 0.0376133 0.554154 0.0411609 0.0415425 0.539473 0.0501738 0.0456543 0.523983 
0.0595178 0.0498692 0.507721 0.0690008 0.0540994 0.490722 0.0784377 0.0582524 0.473017 
0.0876695 0.0622339 0.454635 0.0965804 0.0659513 0.435601 0.105108 0.0693167 0.415932 
0.113245 0.0722496 0.395642 0.121039 0.0746799 0.374736 0.128576 0.0765495 0.353215 
0.135965 0.0778143 0.331072 0.143316 0.0784462 0.308297 0.150716 0.0784333 0.28488 
0.158211 0.0777815 0.260815 0.165785 0.0765143 0.236107 0.173354 0.0746725 0.210776 
0.180766 0.0723135 0.184866 0.187802 0.0695096 0.158446 0.194201 0.0663451 0.131618 
0.199672 0.0629134 0.104515 0.20393 0.059313 0.0772972 0.206713 0.0556425 0.0501523 
0.207815 0.0519962 0.023281 0.207103 0.0484589 -0.00311081 0.20453 0.0451016 -0.028826 
0.20014 0.0419781 -0.0536891 0.194066 0.0391225 -0.0775588 0.186515 0.0365488 -0.100338 
0.177751 0.0342511 -0.121983 0.168073 0.0322067 -0.142501 0.157783 0.0303802 -0.161954 
0.147172 0.028728 -0.180448 0.136488 0.0272047 -0.198123 0.125931 0.0257688 -0.215143 
0.115635 0.0243876 -0.231672 0.105671 0.0230418 -0.247867 0.0960522 0.0217275 -0.263861 
0.086742 0.020457 -0.27975 0.0776707 0.0192571 -0.29559 0.0687504 0.0181662 -0.311395 
0.0598918 0.017229 -0.327139 0.0510178 0.0164912 -0.342763 0.0420741 0.0159934 -0.358189 
0.0330356 0.015766 -0.373333 0.0239075 0.0158245 -0.388114 0.0147229 0.0161676 -0.402471 
0.00553685 0.0167764 -0.416367 -0.00358197 0.0176162 -0.429798 -0.0125602 0.0186403 -0.442788 
-0.0213282 0.0197947 -0.455391 -0.0298268 0.0210248 -0.467678 -0.0380118 0.0222809 -0.479726 
-0.0458559 0.0235241 -0.491607 -0.0533476 0.02473 -0.503378 -0.0604884 0.0258912 -0.515065 
-0.0672887 0.0270169 -0.526661 -0.0737625 0.0281305 -0.538122 -0.0799232 0.0292655 -0.549368 
-0.0857798 0.0304596 -0.560289 -0.0913351 0.0317481 -0.570756 -0.0965847 0.0331576 -0.580632 
-0.101519 0.0347007 -0.589788 -0.106123 0.0363724 -0.59811 -0.110385 0.0381483 -0.605516 
-0.114292 0.0399859 -0.611959 -0.117839 0.0418285 -0.617433 -0.121027 0.04361 -0.621969 
-0.123864 0.0452622 -0.625635 -0.126366 0.0467224 -0.628525 -0.128555 0.0479404 -0.630751 
-0.130457 0.0488844 -0.632431 -0.132096 0.0495446 -0.63368 -0.133497 0.0499346 -0.634604 
-0.134682 0.0500902 -0.635291 -0.135664 0.0500646 -0.635807 -0.136457 0.0499229 -0.636202 
-0.137066 0.0497338 -0.636505 -0.137495 0.0495619 -0.636733 -0.137745 0.0494597 -0.636894 
-0.137815 0.0494614 -0.636988 
LINES 2 100
OFFSETS vtktypeint64
0 100 
CONNECTIVITY vtktypeint64
0 1 2 3 4 5 6 7 8 
9 10 11 12 13 14 15 16 17 
18 19 20 21 22 23 24 25 26 
27 28 29 30 31 32 33 34 35 
36 37 38 39 40 41 42 43 44 
45 46 47 48 49 50 51 52 53 
54 55 56 57 58 59 60 61 62 
63 64 65 66 67 68 69 70 71 
72 73 74 75 76 77 78 79 80 
81 82 83 84 85 86 87 88 89 
90 91 92 93 94 95 96 97 98 
99 
POINT_DATA 100
FIELD FieldData 3
_theta 1 100 double
0 0.031733259127 0.063466518254 0.095199777382 0.12693303651 0.15866629564 0.19039955476 0.22213281389 0.25386607302 
0.28559933214 0.31733259127 0.3490658504 0.38079910953 0.41253236865 0.44426562778 0.47599888691 0.50773214603 0.53946540516 
0.57119866429 0.60293192342 0.63466518254 0.66639844167 0.6981317008 0.72986495992 0.76159821905 0.79333147818 0.82506473731 
0.85679799643 0.88853125556 0.92026451469 0.95199777382 0.98373103294 1.0154642921 1.0471975512 1.0789308103 1.1106640695 
1.1423973286 1.1741305877 1.2058638468 1.237597106 1.2693303651 1.3010636242 1.3327968833 1.3645301425 1.3962634016 
1.4279966607 1.4597299198 1.491463179 1.5231964381 1.5549296972 1.5866629564 1.6183962155 1.6501294746 1.6818627337 
1.7135959929 1.745329252 1.7770625111 1.8087957702 1.8405290294 1.8722622885 1.9039955476 1.9357288068 1.9674620659 
1.999195325 2.0309285841 2.0626618433 2.0943951024 2.1261283615 2.1578616206 2.1895948798 2.2213281389 2.253061398 
2.2847946572 2.3165279163 2.3482611754 2.3799944345 2.4117276937 2.4434609528 2.4751942119 2.506927471 2.5386607302 
2.5703939893 2.6021272484 2.6338605076 2.6655937667 2.6973270258 2.7290602849 2.7607935441 2.7925268032 2.8242600623 
2.8559933214 2.8877265806 2.9194598397 2.9511930988 2.982926358 3.0146596171 3.0463928762 3.0781261353 3.1098593945 
3.1415926536 
_radius 1 100 double
9.9983899292e-16 0.014029112802 0.027982112264 0.041784575374 0.055365001063 0.068653511876 0.081578775601 0.094064164225 0.10602452749 
0.11736481184 0.12798128299 0.13776556459 0.14661123781 0.15442237735 0.16112309474 0.16666691383 0.17104465825 0.17428955225 
0.17647848613 0.17772889779 0.17819142764 0.17803926508 0.17745567761 0.17662136138 0.17570288976 0.17484282128 0.17415132424 
0.17369891444 0.17351039052 0.17356120064 0.17377866508 0.17405076534 0.17424391536 0.17422843682 0.17390748211 0.17324325315 
0.17227432293 0.17111964448 0.16996798266 0.16905503911 0.16863273379 0.16893538213 0.17014784937 0.17238208927 0.17566759285 
0.17995581589 0.18513252306 0.1910309699 0.19744299714 0.20412963468 0.2108342216 0.21729956812 0.22328826507 0.22860340306 
0.23310623433 0.23672761885 0.23947114968 0.24140732298 0.24265968336 0.24338523139 0.24375225608 0.24391896103 0.24401574986 
0.24413301327 0.24431510555 0.24456032248 0.24482625084 0.2450396468 0.24510965718 0.24494261551 0.24445611848 0.243590021 
0.24231249807 0.24062021009 0.23853260466 0.23608133345 0.23329659891 0.23019291298 0.22675710905 0.22294130155 0.21866267346 
0.21381053607 0.20825941383 0.2018855408 0.19458356337 0.18628049173 0.17694478972 0.16658965541 0.15527078478 0.14307993149 
0.13013598184 0.11657489771 0.10253917076 0.088167105202 0.073582566646 0.058886381593 0.044150777825 0.029417906563 0.014702758474 
9.1341002638e-16 
_area 1 100 double
0 0.00052700036211 0.0021011208873 0.0047010713435 0.0082892415899 0.012808389579 0.018176387348 0.024278702277 0.030959691727 
0.038015784696 0.045194874876 0.052205746084 0.058739081653 0.064498385123 0.069236026033 0.072787555627 0.075097073829 0.076227988797 
0.076356489773 0.075748113883 0.074719319653 0.073586371816 0.072608857126 0.071948178292 0.071662167079 0.071730794827 0.072090776545 
0.072666249283 0.073390026857 0.07420690165 0.075060005786 0.07588251402 0.076605768997 0.07717254805 0.077548115742 0.077729777311 
0.077756635648 0.077718589828 0.077763119161 0.078096410028 0.078960705453 0.080550154828 0.082869669328 0.085795571469 0.089257437692 
0.093275115222 0.097929593567 0.10331176601 0.10945359339 0.11626569217 0.12352024957 0.13088844152 0.13800441962 0.14452869488 
0.15019817837 0.15485688831 0.15846472469 0.16108716682 0.1628773478 0.16407640552 0.1650339628 0.16602251726 0.16693961587 
0.16773524923 0.16841931934 0.16894735665 0.16925236664 0.16926432855 0.16889671743 0.168049511 0.16662473047 0.16454603732 
0.1617757436 0.15832480297 0.15425285272 0.14965684404 0.14464870769 0.13932541934 0.1337391294 0.12787875242 0.121673357 
0.11501927581 0.10782140596 0.10003332029 0.091683432033 0.082881003948 0.073801823168 0.064658226094 0.055662696837 0.04699769245 
0.038803130343 0.031183879924 0.024227117878 0.018015274649 0.012628044536 0.0081367144146 0.0045975569651 0.0020489241411 0.00051295052704 
4.0777328837e-17 
