# vtk DataFile Version 5.1
vtk output
ASCII
DATASET POLYDATA
POINTS 100 float
-0.0896962 -0.111653 0.767117 -0.0895163 -0.111536 0.766765 -0.0889831 -0.110982 0.76566 
-0.0881429 -0.109931 0.763782 -0.0870672 -0.108293 0.761107 -0.0858443 -0.105963 0.757608 
-0.0845691 -0.102839 0.75327 -0.0833313 -0.0988316 0.748096 -0.0822036 -0.0938859 0.74211 
-0.0812308 -0.0879889 0.735363 -0.0804209 -0.0811775 0.727932 -0.0797389 -0.0735388 0.71991 
-0.0791056 -0.0652053 0.711401 -0.0783987 -0.0563444 0.702502 -0.0774601 -0.0471442 0.693297 
-0.0761061 -0.0377976 0.683837 -0.0741409 -0.0284856 0.674134 -0.071373 -0.0193635 0.664151 
-0.0676311 -0.0105499 0.653805 -0.0627804 -0.00212148 0.642969 -0.0567353 0.00588701 0.631482 
-0.0494694 0.0134777 0.619165 -0.0410197 0.0206798 0.605841 -0.0314861 0.0275365 0.591347 
-0.0210242 0.0340912 0.575561 -0.00983403 0.0403746 0.558407 0.0018558 0.0463932 0.53987 
0.0138065 0.0521236 0.519998 0.0257879 0.0575098 0.498892 0.037596 0.0624676 0.476706 
0.0490672 0.066892 0.453622 0.0600879 0.0706693 0.429839 0.0705977 0.0736909 0.405548 
0.0805864 0.0758673 0.38092 0.0900853 0.0771406 0.356088 0.0991529 0.0774941 0.331138 
0.107858 0.0769568 0.306111 0.116259 0.0756037 0.280998 0.124391 0.0735507 0.255759 
0.132244 0.0709448 0.230329 0.13976 0.0679519 0.204638 0.146827 0.0647423 0.178626 
0.153285 0.0614765 0.15226 0.158935 0.0582921 0.12554 0.163557 0.055295 0.0985109 
0.166934 0.0525533 0.0712591 0.168868 0.0500963 0.043908 0.169209 0.0479175 0.0166083 
0.167869 0.0459818 -0.010476 0.164835 0.0442342 -0.0371819 0.160178 0.0426112 -0.0633625 
0.154047 0.0410503 -0.0888989 0.146658 0.0394997 -0.113709 0.138282 0.0379245 -0.137751 
0.129215 0.0363103 -0.161021 0.119759 0.0346632 -0.18355 0.110194 0.0330074 -0.205391 
0.100755 0.0313796 -0.226611 0.0916132 0.0298232 -0.247273 0.0828694 0.0283811 -0.267432 
0.0745463 0.0270895 -0.287122 0.0665956 0.0259735 -0.306355 0.0589096 0.0250443 -0.325117 
0.0513386 0.0242991 -0.343376 0.0437126 0.0237228 -0.361088 0.0358633 0.0232916 -0.378207 
0.027645 0.0229778 -0.394695 0.0189521 0.0227548 -0.410534 0.00973107 0.0226011 -0.42573 
-1.36503e-05 0.0225041 -0.440323 -0.0102205 0.0224613 -0.454379 -0.0207775 0.02248 -0.467993 
-0.0315339 0.0225761 -0.481273 -0.0423149 0.0227698 -0.494338 -0.0529376 0.0230822 -0.507294 
-0.0632268 0.023531 -0.520232 -0.0730273 0.0241263 -0.533206 -0.0822145 0.0248682 -0.546233 
-0.0906989 0.0257454 -0.559283 -0.0984275 0.0267356 -0.57228 -0.105381 0.0278071 -0.585107 
-0.111567 0.028922 -0.597614 -0.117014 0.0300398 -0.60963 -0.121763 0.0311215 -0.620978 
-0.125859 0.032133 -0.631486 -0.129349 0.0330483 -0.641006 -0.132272 0.0338509 -0.649421 
-0.134667 0.0345341 -0.656657 -0.136568 0.0351009 -0.662686 -0.138009 0.0355611 -0.667532 
-0.139028 0.03593 -0.671261 -0.139668 0.0362248 -0.673982 -0.139983 0.0364626 -0.675835 
-0.140036 0.0366584 -0.676981 -0.139895 0.0368236 -0.677591 -0.139635 0.0369659 -0.677832 
-0.139327 0.0370895 -0.67786 -0.139039 0.0371957 -0.677807 -0.13882 0.0372846 -0.677771 
-0.138707 0.0373555 -0.677814 
LINES 2 100
OFFSETS vtktypeint64
0 100 
CONNECTIVITY vtktypeint64
0 1 2 3 4 5 6 7 8 
9 10 11 12 13 14 15 16 17 
18 19 20 21 22 23 24 25 26 
27 28 29 30 31 32 33 34 35 
36 37 38 39 40 41 42 43 44 
45 46 47 48 49 50 51 52 53 
54 55 56 57 58 59 60 61 62 
63 64 65 66 67 68 69 70 71 
72 73 74 75 76 77 78 79 80 
81 82 83 84 85 86 87 88 89 
90 91 92 93 94 95 96 97 98 
99 
POINT_DATA 100
FIELD FieldData 3
_theta 1 100 double
0 0.031733259127 0.063466518254 0.095199777382 0.12693303651 0.15866629564 0.19039955476 0.22213281389 0.25386607302 
0.28559933214 0.31733259127 0.3490658504 0.38079910953 0.41253236865 0.44426562778 0.47599888691 0.50773214603 0.53946540516 
0.57119866429 0.60293192342 0.63466518254 0.66639844167 0.6981317008 0.72986495992 0.76159821905 0.79333147818 0.82506473731 
0.85679799643 0.88853125556 0.92026451469 0.95199777382 0.98373103294 1.0154642921 1.0471975512 1.0789308103 1.1106640695 
1.1423973286 1.1741305877 1.2058638468 1.237597106 1.2693303651 1.3010636242 1.3327968833 1.3645301425 1.3962634016 
1.4279966607 1.4597299198 1.491463179 1.5231964381 1.5549296972 1.5866629564 1.6183962155 1.6501294746 1.6818627337 
1.7135959929 1.745329252 1.7770625111 1.8087957702 1.8405290294 1.8722622885 1.9039955476 1.9357288068 1.9674620659 
1.999195325 2.0309285841 2.0626618433 2.0943951024 2.1261283615 2.1578616206 2.1895948798 2.2213281389 2.253061398 
2.2847946572 2.3165279163 2.3482611754 2.3799944345 2.4117276937 2.4434609528 2.4751942119 2.506927471 2.5386607302 
2.5703939893 2.6021272484 2.6338605076 2.6655937667 2.6973270258 2.7290602849 2.7607935441 2.7925268032 2.8242600623 
2.8559933214 2.8877265806 2.9194598397 2.9511930988 2.982926358 3.0146596171 3.0463928762 3.0781261353 3.1098593945 
3.1415926536 
_radius 1 100 double
1.3427790637e-15 0.015678017153 0.031045220894 0.045825712543 0.059811654638 0.072885567839 0.085029668699 0.096319792511 0.10690368611 
0.11696651853 0.12668950967 0.13620935129 0.14558585114 0.15478333995 0.16366877565 0.17202675527 0.17958899855 0.1860736432 
0.19122847104 0.19487218119 0.19692838598 0.19744643144 0.19660157228 0.19467410508 0.19201783566 0.18902537039 0.18608860237 
0.1835558121 0.18169550157 0.18067357075 0.18054621299 0.18126723752 0.18270574492 0.18466941596 0.1869297139 0.18924676792 
0.19139294724 0.19317527603 0.19445696458 0.1951761063 0.1953569949 0.19510984959 0.19461775018 0.19411309567 0.19384847529 
0.19406755026 0.19497995925 0.19674135658 0.19943784565 0.20307506434 0.20757469893 0.21278162423 0.21848186023 0.22442790263 
0.23036655667 0.23606497621 0.24133170881 0.24603054658 0.2500860202 0.25348058456 0.25624478318 0.2584426379 0.26015494661 
0.26146306213 0.26243524431 0.26311704843 0.26352656485 0.26365467353 0.26346980825 0.26292608457 0.26197315041 0.26056590347 
0.25867236155 0.25627844012 0.25338904986 0.25002558534 0.24622037418 0.24200894408 0.23742111932 0.23247210956 0.2271549566 
0.22143585407 0.21525372549 0.20852485476 0.20115232905 0.19303884158 0.18410041289 0.17427818922 0.16354584652 0.15191120688 
0.1394121776 0.12610863054 0.11207289399 0.097381763871 0.082112211586 0.0663414681 0.050150435264 0.033628113703 0.016874471899 
1.5350397568e-15 
_area 1 100 double
0 0.00061357688315 0.0024045059919 0.0052348837604 0.0089092905987 0.013214130465 0.017952807709 0.022966485266 0.028137501109 
0.033380640884 0.038630856021 0.043832891237 0.048933001968 0.053871427971 0.058578534795 0.062989463873 0.067143705803 0.071126447275 
0.074511316566 0.076961678536 0.078289259675 0.078472352938 0.077734463821 0.076583426787 0.075189270528 0.073547373266 0.071698054198 
0.069893698168 0.068397752338 0.067433928733 0.067178854926 0.067748889617 0.069180168781 0.071437183562 0.074431481361 0.078017549167 
0.081991968721 0.086120895047 0.090111378184 0.0938017491 0.097112098247 0.09997833546 0.10240093065 0.10450066286 0.10653548289 
0.1088179878 0.11171138031 0.11554203896 0.12020468925 0.12540797399 0.13102598878 0.13704649453 0.14345416222 0.15013961432 
0.15688416553 0.16341586521 0.1694800405 0.17488656084 0.17952819624 0.18337614362 0.18646019431 0.18884117009 0.19058447305 
0.19174554736 0.19238394947 0.19263156047 0.19267962365 0.19230450824 0.19124674321 0.18939038799 0.18666317412 0.1830336254 
0.17851837246 0.17318861198 0.16717004502 0.16063299174 0.15377295318 0.14678473569 0.13983411553 0.13303069603 0.12640613314 
0.11990394234 0.11338808452 0.10667341543 0.099572000185 0.091941819509 0.083724135238 0.074961207829 0.065792579854 0.056433399851 
0.047141960161 0.038185398318 0.029811500279 0.022230872188 0.015609554105 0.010069688624 0.0056952651926 0.002540174781 0.00063629281421 
6.8135481273e-17 
