# vtk DataFile Version 5.1
vtk output
ASCII
DATASET POLYDATA
POINTS 100 float
-0.116163 -0.0972355 0.785747 -0.116024 -0.0971343 0.78521 -0.115579 -0.096556 0.783566 
-0.11486 -0.0954715 0.78086 -0.113916 -0.0938399 0.777167 -0.112809 -0.0916155 0.772583 
-0.111603 -0.0887567 0.767219 -0.110353 -0.0852348 0.761195 -0.109106 -0.0810409 0.754629 
-0.107883 -0.0761917 0.747629 -0.106684 -0.0707315 0.740287 -0.10548 -0.0647307 0.732673 
-0.10422 -0.0582816 0.724829 -0.102828 -0.0514904 0.71677 -0.101217 -0.0444684 0.708479 
-0.0992908 -0.0373218 0.699914 -0.0969549 -0.0301427 0.691007 -0.0941244 -0.0230015 0.681675 
-0.0907298 -0.0159431 0.671819 -0.0867223 -0.00898542 0.661337 -0.0820756 -0.00212263 0.650127 
-0.0767856 0.004669 0.638098 -0.070868 0.0114224 0.62517 -0.0643538 0.0181698 0.611285 
-0.0572834 0.0249324 0.596405 -0.0497009 0.0317122 0.580518 -0.0416489 0.0384847 0.563635 
-0.0331646 0.0451965 0.545791 -0.0242772 0.0517657 0.52704 -0.0150088 0.0580858 0.507451 
-0.00537601 0.0640334 0.487104 0.00460537 0.0694779 0.466082 0.014915 0.0742921 0.444466 
0.025522 0.0783632 0.422329 0.0363787 0.081602 0.399731 0.0474164 0.0839501 0.376715 
0.0585422 0.0853837 0.353306 0.0696385 0.0859147 0.329513 0.0805647 0.0855879 0.305326 
0.0911624 0.0844763 0.280724 0.101262 0.0826735 0.255679 0.110689 0.0802862 0.230164 
0.119278 0.0774264 0.204159 0.126877 0.0742036 0.177658 0.133357 0.0707206 0.150676 
0.138621 0.0670691 0.123254 0.142606 0.0633289 0.0954585 0.145283 0.059568 0.0673858 
0.146661 0.0558443 0.0391561 0.146781 0.0522079 0.0109096 0.145708 0.0487036 -0.0172009 
0.14353 0.0453719 -0.0450186 0.140345 0.0422504 -0.0723922 0.136256 0.0393729 -0.0991847 
0.131367 0.0367679 -0.125281 0.125772 0.0344565 -0.150596 0.119555 0.0324495 -0.175074 
0.112788 0.030746 -0.198692 0.105532 0.0293317 -0.22146 0.0978359 0.0281793 -0.243411 
0.0897418 0.0272508 -0.264599 0.0812881 0.0265006 -0.285088 0.0725134 0.0258804 -0.304948 
0.0634603 0.0253447 -0.324245 0.0541782 0.0248567 -0.343036 0.0447256 0.0243925 -0.361367 
0.0351702 0.0239449 -0.37927 0.0255889 0.0235244 -0.396766 0.0160655 0.0231584 -0.413867 
0.00668821 0.0228875 -0.43058 -0.00245389 0.0227605 -0.446915 -0.0112747 0.0228272 -0.462885 
-0.019695 0.0231316 -0.478513 -0.0276458 0.0237048 -0.49383 -0.0350714 0.0245596 -0.508877 
-0.0419315 0.025687 -0.523697 -0.0482023 0.0270557 -0.538335 -0.053877 0.0286138 -0.552822 
-0.0589647 0.0302933 -0.567177 -0.0634894 0.032017 -0.581391 -0.0674874 0.0337059 -0.595425 
-0.0710049 0.0352873 -0.609208 -0.0740944 0.036702 -0.622635 -0.0768122 0.0379097 -0.635574 
-0.0792147 0.0388919 -0.647872 -0.0813559 0.0396528 -0.659368 -0.0832843 0.0402163 -0.669905 
-0.0850414 0.0406216 -0.679346 -0.0866601 0.0409171 -0.687585 -0.0881635 0.0411527 -0.694562 
-0.0895652 0.0413734 -0.700269 -0.0908694 0.0416133 -0.70475 -0.092072 0.0418919 -0.708105 
-0.0931624 0.0422125 -0.710475 -0.094125 0.0425636 -0.712036 -0.0949417 0.0429213 -0.71298 
-0.0955939 0.0432551 -0.713496 -0.0960645 0.0435332 -0.713755 -0.0963399 0.0437284 -0.713891 
-0.0964115 0.0438228 -0.71399 
LINES 2 100
OFFSETS vtktypeint64
0 100 
CONNECTIVITY vtktypeint64
0 1 2 3 4 5 6 7 8 
9 10 11 12 13 14 15 16 17 
18 19 20 21 22 23 24 25 26 
27 28 29 30 31 32 33 34 35 
36 37 38 39 40 41 42 43 44 
45 46 47 48 49 50 51 52 53 
54 55 56 57 58 59 60 61 62 
63 64 65 66 67 68 69 70 71 
72 73 74 75 76 77 78 79 80 
81 82 83 84 85 86 87 88 89 
90 91 92 93 94 95 96 97 98 
99 
POINT_DATA 100
FIELD FieldData 3
_theta 1 100 double
0 0.031733259127 0.063466518254 0.095199777382 0.12693303651 0.15866629564 0.19039955476 0.22213281389 0.25386607302 
0.28559933214 0.31733259127 0.3490658504 0.38079910953 0.41253236865 0.44426562778 0.47599888691 0.50773214603 0.53946540516 
0.57119866429 0.60293192342 0.63466518254 0.66639844167 0.6981317008 0.72986495992 0.76159821905 0.79333147818 0.82506473731 
0.85679799643 0.88853125556 0.92026451469 0.95199777382 0.98373103294 1.0154642921 1.0471975512 1.0789308103 1.1106640695 
1.1423973286 1.1741305877 1.2058638468 1.237597106 1.2693303651 1.3010636242 1.3327968833 1.3645301425 1.3962634016 
1.4279966607 1.4597299198 1.491463179 1.5231964381 1.5549296972 1.5866629564 1.6183962155 1.6501294746 1.6818627337 
1.7135959929 1.745329252 1.7770625111 1.8087957702 1.8405290294 1.8722622885 1.9039955476 1.9357288068 1.9674620659 
1.999195325 2.0309285841 2.0626618433 2.0943951024 2.1261283615 2.1578616206 2.1895948798 2.2213281389 2.253061398 
2.2847946572 2.3165279163 2.3482611754 2.3799944345 2.4117276937 2.4434609528 2.4751942119 2.506927471 2.5386607302 
2.5703939893 2.6021272484 2.6338605076 2.6655937667 2.6973270258 2.7290602849 2.7607935441 2.7925268032 2.8242600623 
2.8559933214 2.8877265806 2.9194598397 2.9511930988 2.982926358 3.0146596171 3.0463928762 3.0781261353 3.1098593945 
3.1415926536 
_radius 1 100 double
1.225181537e-15 0.014492063037 0.028823233086 0.042836812776 0.056401405555 0.069421206043 0.081842739388 0.093656698163 0.1048937066 
0.11561348789 0.12588814001 0.13578183826 0.1453307045 0.15452712714 0.16331211706 0.17157755953 0.17917810225 0.18595055604 
0.19173747406 0.19641112522 0.19989430661 0.20217514995 0.20331403895 0.20344178656 0.20274924414 0.20146952818 0.19985506113 
0.19815254849 0.19657958182 0.19530632196 0.19444441785 0.19404339375 0.194093226 0.19453142293 0.19525337453 0.19612529745 
0.19699924606 0.19772942863 0.19818886436 0.19828541031 0.19797588769 0.19727611167 0.19626406805 0.1950745302 0.19388567478 
0.19290024118 0.19232451846 0.19234793968 0.19312495362 0.19475997375 0.19729613239 0.20070909744 0.2049074432 0.20974026038 
0.21501114549 0.22049643839 0.22596514989 0.23119820071 0.23600496564 0.24023556666 0.24378796868 0.24660970193 0.2486947971 
0.25007705202 0.25082093254 0.25101129152 0.25074282754 0.25010997188 0.24919778049 0.24807440264 0.24678570163 0.24535249496 
0.24377058642 0.24201330698 0.2400358049 0.23778004011 0.23517951083 0.23216317743 0.22865865695 0.22459524491 0.21990742289 
0.21453912042 0.20844822909 0.20161009769 0.19401847339 0.1856829047 0.17662285508 0.16686014455 0.15641213408 0.14528783652 
0.13348802494 0.12100908061 0.10784942195 0.094017064042 0.07953694253 0.064456819391 0.048850794392 0.032819751296 0.016488514458 
1.5623294548e-16 
_area 1 100 double
0 0.00065537356924 0.0025883162969 0.005703994611 0.0098587617917 0.014878086298 0.020576167061 0.026774598931 0.033318506904 
0.04008892829 0.047008797386 0.054037287572 0.061147684551 0.06829142048 0.075361159631 0.082168676491 0.088446874843 0.09387703492 
0.098136095 0.10095370917 0.10216582609 0.10175267042 0.099854187463 0.096762623621 0.092896056908 0.088753917829 0.084845894994 
0.081587011574 0.079195061986 0.077691624299 0.076997680767 0.076996816396 0.077565294501 0.078601629618 0.080051360071 0.081913009305 
0.084207071612 0.086911858155 0.089935405603 0.093127768029 0.096253656492 0.099000332152 0.10109816532 0.10242506014 0.10304153403 
0.10317885084 0.10318804858 0.10345810574 0.10434933047 0.10622994531 0.10967019728 0.11473066011 0.1207558314 0.12730103058 
0.1339663253 0.14035667863 0.14612683601 0.15103635666 0.15498576676 0.15801832385 0.16028356009 0.16197244443 0.16324506435 
0.16417379049 0.16471996789 0.16475517154 0.16411924766 0.1626830834 0.16038733068 0.15725316257 0.15337644955 0.14891711263 
0.14408932724 0.13914840395 0.13435249191 0.12987029155 0.12569179236 0.12166563301 0.11760682876 0.11335318364 0.10876883728 
0.10373853694 0.098177324689 0.092053608692 0.085407473725 0.078347336806 0.071022417986 0.06358350362 0.05615053636 0.048801564996 
0.041586163128 0.034552928651 0.027774908231 0.021362905837 0.015466037063 0.010262895028 0.0059459959015 0.0027011940775 0.00068446181081 
5.8221236423e-17 
