# vtk DataFile Version 5.1
vtk output
ASCII
DATASET POLYDATA
POINTS 100 float
-0.15638 -0.0774981 0.768189 -0.156115 -0.0774707 0.768121 -0.155344 -0.0771748 0.767984 
-0.15409 -0.0765824 0.767711 -0.152386 -0.0756516 0.7672 -0.150273 -0.0743299 0.766321 
-0.147792 -0.0725595 0.764932 -0.144979 -0.0702821 0.762893 -0.141859 -0.0674439 0.76008 
-0.138442 -0.0640004 0.756396 -0.134724 -0.0599201 0.751776 -0.13068 -0.0551873 0.746191 
-0.126275 -0.0498032 0.739645 -0.121465 -0.0437869 0.732167 -0.1162 -0.0371743 0.723804 
-0.110435 -0.0300172 0.714606 -0.104135 -0.0223812 0.704619 -0.0972772 -0.0143442 0.693872 
-0.089857 -0.00599463 0.68237 -0.081888 0.00257011 0.670094 -0.0734005 0.0112445 0.657001 
-0.064438 0.019916 0.643027 -0.0550526 0.0284656 0.628098 -0.0452988 0.0367689 0.612141 
-0.0352281 0.0446974 0.59509 -0.0248843 0.0521211 0.576898 -0.0143008 0.0589108 0.557544 
-0.00350017 0.0649428 0.537035 0.00750344 0.0701031 0.515408 0.0186994 0.0742935 0.492721 
0.0300737 0.0774365 0.469054 0.041601 0.0794812 0.444492 0.0532358 0.0804077 0.419122 
0.0649059 0.0802304 0.393022 0.0765069 0.078999 0.366256 0.0879001 0.0767983 0.338873 
0.0989147 0.073745 0.310903 0.109353 0.0699824 0.28237 0.119 0.0656735 0.25329 
0.127636 0.0609923 0.223685 0.135052 0.0561151 0.193595 0.141062 0.0512108 0.163082 
0.14552 0.0464328 0.132235 0.148333 0.0419121 0.10118 0.149464 0.037752 0.0700689 
0.148941 0.034026 0.0390816 0.146853 0.0307773 0.00841144 0.143344 0.028021 -0.0217446 
0.138602 0.0257487 -0.0511999 0.132845 0.0239338 -0.0797916 0.126304 0.0225384 -0.107392 
0.119208 0.0215191 -0.133915 0.111763 0.0208339 -0.159324 0.104145 0.0204459 -0.183629 
0.0964885 0.0203271 -0.206881 0.0888797 0.0204591 -0.229167 0.0813598 0.0208328 -0.250597 
0.0739288 0.0214462 -0.271292 0.0665542 0.0223004 -0.291372 0.0591837 0.0233962 -0.310947 
0.0517575 0.0247294 -0.330106 0.0442216 0.0262871 -0.348915 0.0365392 0.0280453 -0.367414 
0.0286992 0.0299673 -0.385617 0.0207209 0.0320043 -0.403522 0.0126546 0.0340968 -0.421108 
0.00457819 0.0361782 -0.438349 -0.00340996 0.0381787 -0.455213 -0.0112007 0.0400308 -0.471672 
-0.018685 0.0416735 -0.487702 -0.0257654 0.0430571 -0.503283 -0.0323655 0.0441464 -0.518402 
-0.0384372 0.0449229 -0.533045 -0.0439653 0.0453856 -0.547204 -0.0489673 0.0455497 -0.560866 
-0.0534902 0.0454445 -0.574019 -0.0576037 0.0451097 -0.586651 -0.061391 0.0445912 -0.59875 
-0.0649384 0.043937 -0.610311 -0.0683243 0.0431921 -0.621339 -0.0716104 0.0423957 -0.63185 
-0.0748336 0.0415781 -0.641882 -0.078003 0.0407592 -0.651487 -0.0810985 0.0399489 -0.660736 
-0.0840747 0.0391475 -0.66971 -0.0868668 0.0383485 -0.678496 -0.0894 0.0375413 -0.687175 
-0.0915991 0.0367143 -0.695813 -0.0933998 0.0358586 -0.704447 -0.0947575 0.0349704 -0.713077 
-0.0956548 0.0340533 -0.721659 -0.0961056 0.0331194 -0.730101 -0.0961558 0.0321893 -0.738265 
-0.0958797 0.0312909 -0.745975 -0.0953739 0.0304576 -0.753026 -0.0947478 0.0297251 -0.759201 
-0.0941129 0.0291287 -0.764287 -0.093571 0.0286997 -0.768095 -0.093204 0.0284626 -0.770475 
-0.093065 0.0284328 -0.77133 
LINES 2 100
OFFSETS vtktypeint64
0 100 
CONNECTIVITY vtktypeint64
0 1 2 3 4 5 6 7 8 
9 10 11 12 13 14 15 16 17 
18 19 20 21 22 23 24 25 26 
27 28 29 30 31 32 33 34 35 
36 37 38 39 40 41 42 43 44 
45 46 47 48 49 50 51 52 53 
54 55 56 57 58 59 60 61 62 
63 64 65 66 67 68 69 70 71 
72 73 74 75 76 77 78 79 80 
81 82 83 84 85 86 87 88 89 
90 91 92 93 94 95 96 97 98 
99 
POINT_DATA 100
FIELD FieldData 3
_theta 1 100 double
0 0.031733259127 0.063466518254 0.095199777382 0.12693303651 0.15866629564 0.19039955476 0.22213281389 0.25386607302 
0.28559933214 0.31733259127 0.3490658504 0.38079910953 0.41253236865 0.44426562778 0.47599888691 0.50773214603 0.53946540516 
0.57119866429 0.60293192342 0.63466518254 0.66639844167 0.6981317008 0.72986495992 0.76159821905 0.79333147818 0.82506473731 
0.85679799643 0.88853125556 0.92026451469 0.95199777382 0.98373103294 1.0154642921 1.0471975512 1.0789308103 1.1106640695 
1.1423973286 1.1741305877 1.2058638468 1.237597106 1.2693303651 1.3010636242 1.3327968833 1.3645301425 1.3962634016 
1.4279966607 1.4597299198 1.491463179 1.5231964381 1.5549296972 1.5866629564 1.6183962155 1.6501294746 1.6818627337 
1.7135959929 1.745329252 1.7770625111 1.8087957702 1.8405290294 1.8722622885 1.9039955476 1.9357288068 1.9674620659 
1.999195325 2.0309285841 2.0626618433 2.0943951024 2.1261283615 2.1578616206 2.1895948798 2.2213281389 2.253061398 
2.2847946572 2.3165279163 2.3482611754 2.3799944345 2.4117276937 2.4434609528 2.4751942119 2.506927471 2.5386607302 
2.5703939893 2.6021272484 2.6338605076 2.6655937667 2.6973270258 2.7290602849 2.7607935441 2.7925268032 2.8242600623 
2.8559933214 2.8877265806 2.9194598397 2.9511930988 2.982926358 3.0146596171 3.0463928762 3.0781261353 3.1098593945 
3.1415926536 
_radius 1 100 double
1.1393317263e-15 0.017531640475 0.034880892087 0.051870906474 0.068338318097 0.084138525632 0.099149286224 0.11327218822 0.1264317441 
0.13857215997 0.14965231048 0.15964000682 0.16850710117 0.17622707234 0.18277630955 0.18813939926 0.19231759064 0.19533863248 
0.19726562879 0.19820259391 0.19829498509 0.19772448207 0.19669836442 0.19543465723 0.19414458824 0.1930139792 0.19218535006 
0.19174292024 0.19170303048 0.19201224151 0.19255434197 0.19316607809 0.1936600506 0.19385268636 0.19359576444 0.19280881906 
0.19150574339 0.18980709359 0.18793170709 0.18616517919 0.18481028661 0.18413567313 0.18434236265 0.18555356203 0.18781752133 
0.19111403068 0.19536371154 0.20044104457 0.20618861916 0.21242913861 0.21897427084 0.22563188814 0.23221373354 0.23854472268 
0.24447388954 0.24988575973 0.25470989574 0.2589259463 0.26256212707 0.26568656792 0.26839280718 0.27078216055 0.27294620294 
0.27495211778 0.2768326268 0.27858117222 0.28015226083 0.28146636656 0.28241842283 0.28288867278 0.28275449864 0.28190184914 
0.2802350266 0.27768385897 0.27420762906 0.26979554049 0.2644639468 0.25825101627 0.25120986801 0.2434013996 0.23488796899 
0.22572880286 0.21597755822 0.20568197648 0.19488516009 0.18362775628 0.1719502794 0.15989489825 0.14750618766 0.13483055736 
0.12191435716 0.10880105618 0.09552833548 0.082126182566 0.068616847553 0.055016771003 0.041339700769 0.027599753517 0.013813400883 
1.1512430324e-15 
_area 1 100 double
0 0.00080172376468 0.0031606876636 0.006946791592 0.011968079829 0.01799767976 0.024796664851 0.032127726817 0.039759296878 
0.047462702672 0.055006369759 0.062152222757 0.068659753515 0.074301021447 0.078885004416 0.08228449693 0.084456087249 0.085445338702 
0.085375389018 0.084428448184 0.082874454249 0.081403769878 0.080273599242 0.079373918789 0.078722732027 0.078372313237 0.078391992791 
0.078857417715 0.079824048246 0.081283789157 0.083134259001 0.085188443132 0.087206676897 0.088932176792 0.09015545287 0.090861599814 
0.091420697376 0.092096698535 0.092801380347 0.093507523527 0.094337622097 0.0955242512 0.097334868378 0.099927171899 0.10332076854 
0.10747293293 0.11235289042 0.11796192006 0.12431594384 0.13140531468 0.1391484716 0.147365393 0.15578920753 0.16410781773 
0.17201025684 0.17922106956 0.18553285208 0.1908592504 0.19526838142 0.19886896157 0.20176202171 0.20396773144 0.20575701379 
0.20724088718 0.20836025068 0.20922650314 0.20990343127 0.21031590935 0.21027966921 0.20959152393 0.20804004098 0.20542227397 
0.20158188322 0.19644670852 0.19004242247 0.18248010452 0.17392805976 0.16457875804 0.15462143177 0.14422896893 0.13355998203 
0.12276749323 0.11200340074 0.10141323624 0.09112264154 0.081222187714 0.071759430767 0.062744312812 0.054166623247 0.046017725526 
0.03830788132 0.031074458297 0.024381251955 0.018312082195 0.012961966451 0.0084277729559 0.0047992916398 0.0021517396037 0.00054074259758 
6.0328964615e-17 
