# vtk DataFile Version 5.1
vtk output
ASCII
DATASET POLYDATA
POINTS 100 float
-0.0846287 -0.0319888 0.73597 -0.0847205 -0.0318009 0.735882 -0.0849599 -0.0310422 0.735608 
-0.0852988 -0.0297559 0.735088 -0.0856616 -0.028009 0.734232 -0.0859515 -0.0258837 0.732924 
-0.0860589 -0.0234668 0.731041 -0.0858697 -0.0208395 0.728463 -0.085274 -0.018067 0.725082 
-0.0841735 -0.0151917 0.720819 -0.0824875 -0.0122288 0.71562 -0.0801559 -0.00916636 0.709468 
-0.0771414 -0.00596859 0.702374 -0.0734281 -0.00258319 0.694373 -0.0690195 0.0010492 0.685516 
-0.0639347 0.00498423 0.67586 -0.0582047 0.00926332 0.665456 -0.051868 0.0139046 0.654342 
-0.0449679 0.0188968 0.642534 -0.0375496 0.0241961 0.630029 -0.0296598 0.0297276 0.616799 
-0.0213455 0.0353899 0.6028 -0.0126555 0.0410626 0.587979 -0.00364043 0.0466167 0.572282 
0.00564596 0.0519246 0.555666 0.0151471 0.0568705 0.538107 0.0248039 0.0613589 0.519604 
0.0345563 0.0653196 0.500187 0.0443456 0.0687114 0.479913 0.0541166 0.0715202 0.458865 
0.0638206 0.073756 0.437141 0.0734167 0.0754467 0.414846 0.082873 0.0766309 0.392084 
0.0921657 0.0773505 0.368942 0.101277 0.0776439 0.345485 0.11019 0.0775419 0.321751 
0.118885 0.0770648 0.297746 0.127332 0.0762229 0.273449 0.135488 0.0750187 0.248819 
0.143287 0.0734516 0.2238 0.150642 0.0715232 0.198338 0.157443 0.0692426 0.17239 
0.163559 0.0666307 0.145939 0.168845 0.0637236 0.118997 0.17315 0.0605725 0.0916185 
0.176324 0.0572428 0.0638961 0.178237 0.053809 0.0359613 0.178782 0.0503502 0.00797668 
0.177892 0.0469426 -0.0198746 0.175542 0.0436532 -0.0474011 0.171758 0.0405347 -0.0744171 
0.166612 0.037621 -0.100755 0.160222 0.0349263 -0.126278 0.152746 0.032446 -0.150885 
0.144364 0.0301605 -0.174521 0.135274 0.028041 -0.197172 0.125674 0.0260562 -0.218866 
0.115752 0.0241796 -0.239665 0.105674 0.022396 -0.259655 0.095576 0.0207065 -0.278938 
0.0855635 0.0191309 -0.297622 0.0757073 0.0177075 -0.31581 0.0660483 0.0164903 -0.333594 
0.056602 0.015544 -0.351046 0.0473667 0.0149363 -0.36822 0.0383306 0.0147306 -0.385149 
0.0294799 0.014978 -0.401847 0.020804 0.0157106 -0.418312 0.0123005 0.0169368 -0.434531 
0.00397587 0.018639 -0.450482 -0.0041546 0.0207743 -0.46614 -0.0120696 0.0232771 -0.481479 
-0.0197457 0.026065 -0.496473 -0.0271612 0.0290449 -0.5111 -0.0343005 0.0321212 -0.525335 
-0.041156 0.0352025 -0.539154 -0.0477295 0.0382077 -0.552532 -0.0540307 0.0410711 -0.56544 
-0.0600748 0.0437445 -0.577846 -0.0658778 0.0461977 -0.589711 -0.0714522 0.0484168 -0.600997 
-0.0768018 0.0504015 -0.611661 -0.0819186 0.052161 -0.621663 -0.0867802 0.0537096 -0.630966 
-0.0913509 0.0550635 -0.639539 -0.0955839 0.0562375 -0.647363 -0.0994263 0.0572436 -0.654426 
-0.102826 0.0580904 -0.660732 -0.105738 0.0587841 -0.666298 -0.108133 0.0593302 -0.67115 
-0.110003 0.0597355 -0.675326 -0.111364 0.06001 -0.678874 -0.112257 0.0601685 -0.681845 
-0.112749 0.0602309 -0.684292 -0.112925 0.0602221 -0.686269 -0.112879 0.06017 -0.687826 
-0.112709 0.0601034 -0.689006 -0.112504 0.0600491 -0.689844 -0.112336 0.060029 -0.690367 
-0.112251 0.0600575 -0.690589 
LINES 2 100
OFFSETS vtktypeint64
0 100 
CONNECTIVITY vtktypeint64
0 1 2 3 4 5 6 7 8 
9 10 11 12 13 14 15 16 17 
18 19 20 21 22 23 24 25 26 
27 28 29 30 31 32 33 34 35 
36 37 38 39 40 41 42 43 44 
45 46 47 48 49 50 51 52 53 
54 55 56 57 58 59 60 61 62 
63 64 65 66 67 68 69 70 71 
72 73 74 75 76 77 78 79 80 
81 82 83 84 85 86 87 88 89 
90 91 92 93 94 95 96 97 98 
99 
POINT_DATA 100
FIELD FieldData 3
_theta 1 100 double
0 0.031733259127 0.063466518254 0.095199777382 0.12693303651 0.15866629564 0.19039955476 0.22213281389 0.25386607302 
0.28559933214 0.31733259127 0.3490658504 0.38079910953 0.41253236865 0.44426562778 0.47599888691 0.50773214603 0.53946540516 
0.57119866429 0.60293192342 0.63466518254 0.66639844167 0.6981317008 0.72986495992 0.76159821905 0.79333147818 0.82506473731 
0.85679799643 0.88853125556 0.92026451469 0.95199777382 0.98373103294 1.0154642921 1.0471975512 1.0789308103 1.1106640695 
1.1423973286 1.1741305877 1.2058638468 1.237597106 1.2693303651 1.3010636242 1.3327968833 1.3645301425 1.3962634016 
1.4279966607 1.4597299198 1.491463179 1.5231964381 1.5549296972 1.5866629564 1.6183962155 1.6501294746 1.6818627337 
1.7135959929 1.745329252 1.7770625111 1.8087957702 1.8405290294 1.8722622885 1.9039955476 1.9357288068 1.9674620659 
1.999195325 2.0309285841 2.0626618433 2.0943951024 2.1261283615 2.1578616206 2.1895948798 2.2213281389 2.253061398 
2.2847946572 2.3165279163 2.3482611754 2.3799944345 2.4117276937 2.4434609528 2.4751942119 2.506927471 2.5386607302 
2.5703939893 2.6021272484 2.6338605076 2.6655937667 2.6973270258 2.7290602849 2.7607935441 2.7925268032 2.8242600623 
2.8559933214 2.8877265806 2.9194598397 2.9511930988 2.982926358 3.0146596171 3.0463928762 3.0781261353 3.1098593945 
3.1415926536 
_radius 1 100 double
2.2929868618e-16 0.016867911642 0.033586447553 0.05000960059 0.06600038227 0.081433843708 0.096198821256 0.11019849865 0.12335009377 
0.13558408438 0.14684337597 0.15708271374 0.1662684961 0.174379004 0.18140494976 0.18735019094 0.19223245439 0.19608396522 
0.19895194796 0.20089901405 0.20200342146 0.20235906878 0.20207489996 0.20127323356 0.20008649125 0.19865195668 0.19710456557 
0.19556826507 0.19414706503 0.19291733109 0.19192288487 0.19117393748 0.19064994362 0.19030555554 0.19007839748 0.18989749828 
0.18969172712 0.18939813259 0.18897034572 0.18838693501 0.18765881102 0.18683386566 0.18599669455 0.18526216013 0.18476378648 
0.18464030947 0.1850239247 0.18603117583 0.18775455674 0.19025278194 0.19354010455 0.19757744183 0.20226853086 0.20746294914 
0.21296589141 0.2185533061 0.22399059483 0.22905304099 0.23354601879 0.23732285794 0.24029822779 0.24245520329 0.24384480023 
0.24457767379 0.24480877317 0.24471685939 0.24448164986 0.24426167729 0.24417563228 0.24428914767 0.24460800362 0.2450778886 
0.24559025843 0.24599341634 0.24610755119 0.2457420678 0.24471322413 0.24286002712 0.24005663485 0.23622011635 0.23131315826 
0.22534198538 0.21835025395 0.21040995664 0.20161049738 0.19204711916 0.18180983775 0.17097396696 0.15959323621 0.14769639573 
0.1352879913 0.12235353076 0.10886853893 0.094810213798 0.080169834699 0.064963868289 0.049241855366 0.033089601807 0.016626910717 
1.2956437883e-15 
_area 1 100 double
0 0.00073275978848 0.0029021039033 0.0064234574669 0.011162844421 0.016945942441 0.023568457385 0.030806506229 0.038426227159 
0.046192427047 0.053876446443 0.061263438474 0.068159013635 0.074394938745 0.079833519748 0.084370514909 0.087936793543 0.09049924712 
0.092061530291 0.092665161698 0.092391710689 0.091367617853 0.089774486829 0.087866105488 0.085972836316 0.084391188715 0.083290025963 
0.082686074053 0.082516592835 0.082664033787 0.083000382664 0.083421073053 0.083870602134 0.084349805104 0.084892901726 0.085535997708 
0.086310917736 0.087245911918 0.088358558249 0.089654046776 0.091107348841 0.092625858715 0.094082975382 0.09542149542 0.096701109027 
0.098136824932 0.099691237329 0.10116879725 0.10270121206 0.10450800223 0.10682688445 0.10986364995 0.11373867035 0.11845703382 
0.12391728467 0.12992707786 0.13620800816 0.14241522936 0.14818033098 0.15315182953 0.15702479079 0.15961109444 0.1608882922 
0.16099783874 0.16020115957 0.15881325024 0.15714537585 0.15546866973 0.15415935166 0.1533159624 0.15263567541 0.15197850356 
0.15123376342 0.15029571023 0.14905042001 0.14736901808 0.14511019034 0.14213186702 0.1383083751 0.13354836446 0.12780960012 
0.12110797275 0.11351951977 0.10517560765 0.096252137714 0.086953858614 0.077495386882 0.068081496863 0.058890037776 0.050061158337 
0.041696241299 0.033867966706 0.026638305829 0.020076452265 0.014268499537 0.0093158362237 0.0053250465721 0.0023946103535 0.00060293074208 
6.9470017664e-17 
