# vtk DataFile Version 5.1
vtk output
ASCII
DATASET POLYDATA
POINTS 100 float
-0.16554 -0.0881726 0.690045 -0.165464 -0.0880417 0.69001 -0.165194 -0.0874884 0.689892 
-0.164706 -0.0865264 0.689654 -0.163962 -0.0851758 0.689236 -0.162912 -0.0834587 0.688563 
-0.161503 -0.0813935 0.687544 -0.159677 -0.0789905 0.686079 -0.15738 -0.0762478 0.68407 
-0.154565 -0.0731496 0.681425 -0.151198 -0.0696673 0.678063 -0.147254 -0.0657622 0.673927 
-0.142729 -0.0613915 0.668985 -0.13763 -0.0565153 0.663232 -0.131978 -0.0511038 0.656696 
-0.125809 -0.0451444 0.649433 -0.11916 -0.0386473 0.641522 -0.112075 -0.0316479 0.633055 
-0.104594 -0.0242071 0.624133 -0.0967498 -0.016408 0.614848 -0.0885663 -0.00834984 0.605275 
-0.080055 -0.000140842 0.595462 -0.0712158 0.00811073 0.585418 -0.0620387 0.0163043 0.57511 
-0.0525078 0.0243535 0.564466 -0.0426065 0.0321898 0.55337 -0.0323238 0.0397633 0.54168 
-0.021661 0.0470399 0.529231 -0.010638 0.0539962 0.515858 0.000702533 0.0606116 0.501404 
0.0122917 0.0668605 0.485738 0.0240345 0.0727047 0.468769 0.0358123 0.0780882 0.450453 
0.0474877 0.0829346 0.430797 0.0589116 0.0871487 0.409861 0.0699321 0.0906226 0.387749 
0.0804035 0.0932441 0.364598 0.090195 0.0949093 0.340567 0.0991978 0.095535 0.315819 
0.10733 0.0950714 0.290511 0.114539 0.0935122 0.264775 0.120799 0.0909012 0.238713 
0.126108 0.0873337 0.212393 0.130482 0.0829531 0.18585 0.133944 0.0779417 0.15909 
0.13652 0.072508 0.132102 0.138227 0.0668705 0.104874 0.13907 0.0612409 0.0774008 
0.139036 0.0558075 0.0497018 0.1381 0.0507226 0.0218296 0.13622 0.0460931 -0.00612405 
0.133351 0.0419769 -0.0340271 0.12945 0.0383845 -0.0617121 0.124484 0.0352868 -0.0889862 
0.118444 0.0326253 -0.115644 0.11135 0.030326 -0.141486 0.103255 0.0283138 -0.166331 
0.094249 0.0265246 -0.190035 0.0844546 0.0249155 -0.212504 0.0740204 0.0234698 -0.233695 
0.0631119 0.0221983 -0.253626 0.051899 0.0211345 -0.272367 0.0405435 0.0203271 -0.290033 
0.029187 0.0198291 -0.306773 0.0179417 0.0196865 -0.322751 0.00688431 0.019928 -0.338136 
-0.00394562 0.0205566 -0.353081 -0.0145423 0.0215462 -0.367717 -0.0249266 0.0228416 -0.382144 
-0.0351348 0.0243637 -0.396422 -0.0452065 0.0260185 -0.410581 -0.055171 0.0277079 -0.424615 
-0.0650366 0.0293423 -0.438497 -0.0747816 0.0308516 -0.452183 -0.084351 0.0321938 -0.465622 
-0.0936574 0.0333588 -0.478763 -0.102588 0.0343685 -0.491557 -0.111014 0.0352715 -0.503963 
-0.118807 0.036133 -0.515946 -0.125851 0.037023 -0.527472 -0.132061 0.0380022 -0.53851 
-0.137393 0.0391099 -0.549018 -0.141853 0.040354 -0.558948 -0.1455 0.0417053 -0.568242 
-0.148439 0.0430984 -0.576831 -0.150818 0.0444368 -0.584641 -0.152807 0.0456041 -0.5916 
-0.154584 0.0464788 -0.597644 -0.156315 0.0469509 -0.602729 -0.158137 0.0469386 -0.60684 
-0.160141 0.0464018 -0.609995 -0.162362 0.045352 -0.612254 -0.164779 0.043855 -0.613711 
-0.167316 0.0420278 -0.614498 -0.16985 0.0400286 -0.614771 -0.17223 0.0380412 -0.614696 
-0.174293 0.0362558 -0.614442 -0.175886 0.0348482 -0.614156 -0.176882 0.0339604 -0.613957 
-0.177199 0.0336846 -0.613918 
LINES 2 100
OFFSETS vtktypeint64
0 100 
CONNECTIVITY vtktypeint64
0 1 2 3 4 5 6 7 8 
9 10 11 12 13 14 15 16 17 
18 19 20 21 22 23 24 25 26 
27 28 29 30 31 32 33 34 35 
36 37 38 39 40 41 42 43 44 
45 46 47 48 49 50 51 52 53 
54 55 56 57 58 59 60 61 62 
63 64 65 66 67 68 69 70 71 
72 73 74 75 76 77 78 79 80 
81 82 83 84 85 86 87 88 89 
90 91 92 93 94 95 96 97 98 
99 
POINT_DATA 100
FIELD FieldData 3
_theta 1 100 double
0 0.031733259127 0.063466518254 0.095199777382 0.12693303651 0.15866629564 0.19039955476 0.22213281389 0.25386607302 
0.28559933214 0.31733259127 0.3490658504 0.38079910953 0.41253236865 0.44426562778 0.47599888691 0.50773214603 0.53946540516 
0.57119866429 0.60293192342 0.63466518254 0.66639844167 0.6981317008 0.72986495992 0.76159821905 0.79333147818 0.82506473731 
0.85679799643 0.88853125556 0.92026451469 0.95199777382 0.98373103294 1.0154642921 1.0471975512 1.0789308103 1.1106640695 
1.1423973286 1.1741305877 1.2058638468 1.237597106 1.2693303651 1.3010636242 1.3327968833 1.3645301425 1.3962634016 
1.4279966607 1.4597299198 1.491463179 1.5231964381 1.5549296972 1.5866629564 1.6183962155 1.6501294746 1.6818627337 
1.7135959929 1.745329252 1.7770625111 1.8087957702 1.8405290294 1.8722622885 1.9039955476 1.9357288068 1.9674620659 
1.999195325 2.0309285841 2.0626618433 2.0943951024 2.1261283615 2.1578616206 2.1895948798 2.2213281389 2.253061398 
2.2847946572 2.3165279163 2.3482611754 2.3799944345 2.4117276937 2.4434609528 2.4751942119 2.506927471 2.5386607302 
2.5703939893 2.6021272484 2.6338605076 2.6655937667 2.6973270258 2.7290602849 2.7607935441 2.7925268032 2.8242600623 
2.8559933214 2.8877265806 2.9194598397 2.9511930988 2.982926358 3.0146596171 3.0463928762 3.0781261353 3.1098593945 
3.1415926536 
_radius 1 100 double
1.2415773546e-15 0.013026703136 0.026040370266 0.039008360248 0.051870589274 0.064533340825 0.076870064129 0.088728934657 0.099945815176 
0.11036050919 0.11983381828 0.1282628504 0.1355922715 0.14181976911 0.14699488177 0.15121141779 0.15459471523 0.15728574298 
0.15942436402 0.16113399129 0.16250949162 0.1636096776 0.16445514495 0.16503156767 0.16529784001 0.165197717 0.1646730413 
0.16367650883 0.16218233672 0.16019398778 0.15774888472 0.15492045583 0.15181776448 0.14858247454 0.1453821903 0.14239860229 
0.13980894395 0.13776084704 0.13634435809 0.13556975984 0.13536232229 0.13557999568 0.13604799594 0.13659649438 0.1370906589 
0.13744900586 0.13765044201 0.1377325553 0.13778380304 0.13793071 0.13832052944 0.13910124585 0.14040230648 0.1423189203 
0.14490059183 0.1481429733 0.15198258781 0.15629575421 0.16090412153 0.16558837782 0.17010943613 0.17423414426 0.17776137628 
0.18054441606 0.18250643928 0.18364716144 0.18404003157 0.18382056251 0.18316742865 0.18227878832 0.18134688459 0.18053432917 
0.17995541646 0.17966496171 0.17965541274 0.17986118019 0.18016826203 0.18042724274 0.18046793971 0.18011407154 0.17919650436 
0.17756404194 0.17509129047 0.17168362228 0.16727948244 0.16185021924 0.15539747496 0.1479481923 0.13954756932 0.13025076508 
0.12011471059 0.10919189086 0.097528077875 0.085165129748 0.072148100536 0.058534140168 0.044400172358 0.029847078618 0.014999313271 
2.2673420292e-16 
_area 1 100 double
0 0.00044373942014 0.0017793433412 0.0040128699887 0.0071336609461 0.011091972107 0.015781177829 0.021031273857 0.026616766553 
0.032277943756 0.037750968351 0.042799984965 0.04724410852 0.050973969227 0.053955824825 0.056224804104 0.057871329639 0.05902619699 
0.059852780626 0.060623361265 0.061387754524 0.062035407731 0.0625399187 0.062883065172 0.06305718448 0.06310480114 0.063029604095 
0.062764384726 0.062294927589 0.061595811259 0.06063003888 0.059368693729 0.057812125142 0.055991309983 0.053964932465 0.051836685406 
0.049767009925 0.047976472645 0.046754442202 0.046396255442 0.046924487259 0.048067737648 0.049537834723 0.051144634065 0.052795285799 
0.054418840227 0.055913826635 0.057195882729 0.058232909942 0.059043074914 0.059696099734 0.060317722035 0.061079785484 0.0621681221 
0.063739761066 0.065889608158 0.068634622148 0.071908742205 0.075563304171 0.079374438651 0.083062224674 0.086324271787 0.088879981597 
0.090517556569 0.09113915709 0.090805770387 0.089712055223 0.088056571771 0.086068178236 0.084008107524 0.082143758541 0.080674248012 
0.07969020879 0.07917747358 0.079041366203 0.079138714231 0.079304215908 0.079365448833 0.079150979758 0.078497525642 0.077259351568 
0.075319392204 0.072599861182 0.069070842654 0.064756410608 0.059737403568 0.054148984046 0.048171174608 0.042011720528 0.035882114618 
0.029969677038 0.024412705696 0.019291344776 0.014644699636 0.010505900435 0.006930192412 0.0040003911855 0.0018133892226 0.00045897488113 
5.6513591583e-17 
