# vtk DataFile Version 5.1
vtk output
ASCII
DATASET POLYDATA
POINTS 100 float
-0.108691 -0.0622555 0.753614 -0.108642 -0.0621679 0.753516 -0.108499 -0.0616763 0.753209 
-0.108236 -0.0607425 0.752638 -0.107804 -0.0593108 0.751718 -0.107142 -0.0573143 0.750344 
-0.106172 -0.0546848 0.7484 -0.104804 -0.051362 0.745775 -0.102945 -0.0473021 0.742371 
-0.100497 -0.0424854 0.738115 -0.0973666 -0.0369206 0.732959 -0.0934718 -0.030647 0.726886 
-0.0887449 -0.0237334 0.719906 -0.0831396 -0.0162738 0.712047 -0.0766346 -0.00838202 0.703349 
-0.0692361 -0.000184202 0.693854 -0.0609792 0.00818851 0.68359 -0.0519256 0.0166068 0.672572 
-0.0421609 0.0249486 0.660786 -0.0317893 0.0331026 0.648194 -0.0209262 0.0409696 0.634734 
-0.00969151 0.0484621 0.620326 0.00179853 0.0555019 0.604876 0.013438 0.0620178 0.588296 
0.0251367 0.0679419 0.570506 0.0368234 0.0732077 0.55145 0.0484467 0.0777493 0.531102 
0.0599728 0.0815018 0.50947 0.0713813 0.0844041 0.486602 0.0826585 0.0864034 0.462575 
0.0937896 0.0874601 0.437499 0.10475 0.0875542 0.411499 0.115499 0.0866902 0.384712 
0.125972 0.0849015 0.357273 0.136077 0.0822522 0.329308 0.145696 0.0788367 0.300926 
0.154685 0.0747765 0.272218 0.162881 0.0702146 0.243255 0.170113 0.0653076 0.214091 
0.17621 0.0602162 0.184771 0.181014 0.0550964 0.155337 0.184394 0.0500902 0.125837 
0.186255 0.0453178 0.0963288 0.186543 0.0408733 0.0668892 0.18526 0.0368212 0.0376141 
0.182454 0.0331974 0.00861801 0.178223 0.0300115 -0.0199698 0.172708 0.0272519 -0.0480124 
0.166082 0.0248918 -0.0753745 0.158536 0.0228957 -0.101932 0.150273 0.0212254 -0.12758 
0.141486 0.0198454 -0.152244 0.132354 0.0187259 -0.175885 0.123029 0.0178442 -0.198497 
0.113628 0.0171848 -0.220115 0.104236 0.0167371 -0.240802 0.0949001 0.0164928 -0.260649 
0.0856376 0.0164431 -0.279762 0.0764413 0.0165755 -0.298255 0.0672874 0.0168725 -0.316239 
0.0581449 0.0173113 -0.333813 0.0489836 0.0178645 -0.351061 0.0397819 0.0185026 -0.368045 
0.0305317 0.0191979 -0.384803 0.0212412 0.0199278 -0.401354 0.0119352 0.0206785 -0.417696 
0.0026526 0.0214482 -0.433816 -0.0065576 0.0222475 -0.449688 -0.0156421 0.0231 -0.465285 
-0.0245491 0.024039 -0.480576 -0.0332343 0.025104 -0.495532 -0.0416656 0.0263353 -0.510129 
-0.0498252 0.027768 -0.524342 -0.0577116 0.0294267 -0.538149 -0.065337 0.0313204 -0.551525 
-0.0727249 0.0334397 -0.564446 -0.0799043 0.0357557 -0.576879 -0.0869044 0.0382214 -0.588788 
-0.0937479 0.0407752 -0.600135 -0.100446 0.0433461 -0.610875 -0.106994 0.0458606 -0.620967 
-0.11337 0.0482489 -0.630372 -0.119531 0.050452 -0.639058 -0.125421 0.0524263 -0.647004 
-0.130971 0.0541471 -0.654204 -0.136108 0.0556093 -0.660664 -0.14076 0.0568263 -0.666406 
-0.144865 0.0578268 -0.671466 -0.148377 0.0586493 -0.675888 -0.151274 0.059337 -0.679725 
-0.153558 0.0599314 -0.683035 -0.15526 0.0604674 -0.685871 -0.156435 0.0609697 -0.688286 
-0.157163 0.0614508 -0.690322 -0.157537 0.0619107 -0.692016 -0.157658 0.0623393 -0.693395 
-0.157625 0.0627195 -0.694476 -0.157527 0.0630312 -0.69527 -0.157435 0.0632559 -0.695784 
-0.157394 0.0633804 -0.696018 
LINES 2 100
OFFSETS vtktypeint64
0 100 
CONNECTIVITY vtktypeint64
0 1 2 3 4 5 6 7 8 
9 10 11 12 13 14 15 16 17 
18 19 20 21 22 23 24 25 26 
27 28 29 30 31 32 33 34 35 
36 37 38 39 40 41 42 43 44 
45 46 47 48 49 50 51 52 53 
54 55 56 57 58 59 60 61 62 
63 64 65 66 67 68 69 70 71 
72 73 74 75 76 77 78 79 80 
81 82 83 84 85 86 87 88 89 
90 91 92 93 94 95 96 97 98 
99 
POINT_DATA 100
FIELD FieldData 3
_theta 1 100 double
0 0.031733259127 0.063466518254 0.095199777382 0.12693303651 0.15866629564 0.19039955476 0.22213281389 0.25386607302 
0.28559933214 0.31733259127 0.3490658504 0.38079910953 0.41253236865 0.44426562778 0.47599888691 0.50773214603 0.53946540516 
0.57119866429 0.60293192342 0.63466518254 0.66639844167 0.6981317008 0.72986495992 0.76159821905 0.79333147818 0.82506473731 
0.85679799643 0.88853125556 0.92026451469 0.95199777382 0.98373103294 1.0154642921 1.0471975512 1.0789308103 1.1106640695 
1.1423973286 1.1741305877 1.2058638468 1.237597106 1.2693303651 1.3010636242 1.3327968833 1.3645301425 1.3962634016 
1.4279966607 1.4597299198 1.491463179 1.5231964381 1.5549296972 1.5866629564 1.6183962155 1.6501294746 1.6818627337 
1.7135959929 1.745329252 1.7770625111 1.8087957702 1.8405290294 1.8722622885 1.9039955476 1.9357288068 1.9674620659 
1.999195325 2.0309285841 2.0626618433 2.0943951024 2.1261283615 2.1578616206 2.1895948798 2.2213281389 2.253061398 
2.2847946572 2.3165279163 2.3482611754 2.3799944345 2.4117276937 2.4434609528 2.4751942119 2.506927471 2.5386607302 
2.5703939893 2.6021272484 2.6338605076 2.6655937667 2.6973270258 2.7290602849 2.7607935441 2.7925268032 2.8242600623 
2.8559933214 2.8877265806 2.9194598397 2.9511930988 2.982926358 3.0146596171 3.0463928762 3.0781261353 3.1098593945 
3.1415926536 
_radius 1 100 double
4.5796699766e-16 0.017444031342 0.034748666493 0.051765398171 0.068342375331 0.084325089185 0.099559150365 0.11389522448 0.127195722 
0.13934239928 0.15024373374 0.15984086199 0.1681110309 0.17506787684 0.18075836817 0.18525685144 0.18865723168 0.19106473688 
0.19258879515 0.19333818979 0.19341891204 0.19293424185 0.19198590335 0.19067495873 0.18910147896 0.18736271681 0.18555012089 
0.18374583567 0.18201938368 0.18042519179 0.17900164481 0.17777250015 0.17675123908 0.17594725014 0.17537068529 0.17503360839 
0.17494855438 0.17512767382 0.17558412816 0.17633414913 0.17739627411 0.17878600631 0.1805091937 0.1825612613 0.18493661637 
0.18764445098 0.19072178591 0.19423616595 0.19827558586 0.20292757984 0.20825193158 0.21425309364 0.22085933529 0.22791482561 
0.23518767497 0.24239253251 0.24922278569 0.25538603166 0.26063707738 0.26480426601 0.26780655231 0.26966008717 0.27047410927 
0.27043680228 0.26979258445 0.26881313084 0.26776527108 0.26687958332 0.26632368956 0.26618363421 0.26645529804 0.26704602856 
0.26778523747 0.26844201706 0.26874771477 0.2684214409 0.26719637594 0.26484452065 0.26119742115 0.25616059805 0.24971996648 
0.24193937763 0.23294941513 0.22292862982 0.21207942273 0.20060171969 0.18866826245 0.17640545187 0.16388287728 0.15111294171 
0.1380598738 0.12465568356 0.11081976013 0.09647880619 0.08158433862 0.066125731565 0.050137546174 0.033700618545 0.016937064129 
1.2626134486e-15 
_area 1 100 double
0 0.00077974719202 0.0030858210875 0.0068216127607 0.011833984725 0.017920569049 0.024835495427 0.032295387363 0.039989890517 
0.047599930363 0.054823254253 0.061402934811 0.0671519715 0.071966430497 0.075821333178 0.078749066277 0.080809117426 0.082064827276 
0.082581600114 0.082463881887 0.0819939497 0.081451940479 0.080730041277 0.079765047765 0.078577020827 0.077245817737 0.075901998408 
0.074696343791 0.073760244891 0.073199328312 0.073081787428 0.073432010939 0.074217633266 0.075362424675 0.076778434573 0.078382158712 
0.080098738075 0.081902826979 0.083915205727 0.086380512517 0.089348564071 0.092646463213 0.096122739314 0.099696113613 0.10333107852 
0.10701412837 0.11074380907 0.11456091622 0.11860150093 0.12311571019 0.12843603247 0.1349058349 0.14277113089 0.15204983502 
0.16243803576 0.17333143575 0.18395753879 0.19353405907 0.20139571727 0.20708018344 0.21037766337 0.21135092485 0.21036234553 
0.20809789469 0.2051199175 0.20175913897 0.19837267777 0.19531630507 0.19284266335 0.19106031311 0.18992796617 0.18927500876 
0.18883542473 0.18828421759 0.18727002082 0.18544279828 0.18247976793 0.17811416223 0.17216841683 0.16458685686 0.15545758252 
0.14501314467 0.13360476763 0.12165258207 0.10958172668 0.097759153404 0.086446890698 0.075783332409 0.06579544204 0.05643488867 
0.047624775448 0.039303460607 0.031456535785 0.024133493149 0.017449277706 0.01157259955 0.0067037292759 0.0030454248712 0.0007717156145 
7.1026989689e-17 
