# vtk DataFile Version 5.1
vtk output
ASCII
DATASET POLYDATA
POINTS 100 float
-0.184978 -0.0787815 0.676119 -0.184819 -0.078746 0.676288 -0.184419 -0.0784161 0.676791 
-0.183768 -0.0777718 0.677509 -0.182847 -0.0767832 0.678258 -0.181632 -0.075412 0.67881 
-0.180087 -0.0736152 0.67892 -0.178165 -0.071348 0.678349 -0.175813 -0.0685678 0.676892 
-0.172967 -0.0652381 0.674399 -0.169557 -0.061332 0.670784 -0.165512 -0.0568359 0.666034 
-0.160761 -0.0517522 0.660197 -0.15524 -0.0461007 0.653378 -0.148901 -0.0399196 0.645711 
-0.141712 -0.033265 0.637343 -0.133666 -0.0262093 0.628405 -0.124785 -0.0188383 0.618997 
-0.11512 -0.011248 0.609165 -0.104752 -0.00354055 0.598902 -0.0937895 0.00418055 0.58814 
-0.08236 0.0118142 0.576762 -0.0706055 0.0192654 0.564614 -0.0586703 0.0264482 0.551528 
-0.046691 0.0332878 0.537339 -0.0347855 0.0397207 0.521908 -0.0230443 0.0456949 0.505141 
-0.0115229 0.0511685 0.486997 -0.000239534 0.0561082 0.467495 0.0108247 0.0604867 0.446711 
0.0217201 0.0642814 0.424768 0.0325184 0.0674724 0.401825 0.0432999 0.0700422 0.378055 
0.0541375 0.0719757 0.35363 0.06508 0.0732616 0.328702 0.076137 0.0738941 0.303394 
0.0872658 0.0738755 0.277793 0.0983636 0.073219 0.251947 0.109265 0.0719512 0.225872 
0.119747 0.0701139 0.199565 0.12954 0.0677648 0.173015 0.138344 0.0649767 0.146219 
0.145853 0.0618363 0.119196 0.151778 0.0584401 0.0919968 0.155876 0.0548903 0.0647119 
0.157967 0.0512898 0.0374684 0.157959 0.0477365 0.0104255 0.155857 0.0443187 -0.0162368 
0.151767 0.0411104 -0.042333 0.145892 0.0381688 -0.0676881 0.138515 0.0355327 -0.0921543 
0.129985 0.0332229 -0.115624 0.120682 0.0312441 -0.138039 0.110992 0.0295878 -0.159394 
0.101279 0.0282368 -0.179735 0.0918528 0.0271691 -0.199152 0.0829545 0.0263624 -0.217763 
0.0747385 0.025797 -0.235703 0.0672704 0.0254581 -0.253107 0.0605305 0.0253367 -0.270094 
0.054427 0.0254285 -0.286756 0.0488153 0.0257325 -0.303151 0.0435218 0.0262472 -0.319299 
0.0383688 0.0269679 -0.335187 0.0331982 0.0278831 -0.350775 0.0278915 0.0289718 -0.366008 
0.0223827 0.0302019 -0.380826 0.0166646 0.0315301 -0.39518 0.0107872 0.0329037 -0.409037 
0.00484835 0.0342628 -0.422395 -0.00102066 0.035545 -0.435277 -0.00667375 0.0366899 -0.447736 
-0.0119696 0.0376443 -0.459845 -0.0167897 0.0383666 -0.471693 -0.0210533 0.0388303 -0.483367 
-0.0247261 0.0390263 -0.494945 -0.0278232 0.038963 -0.506484 -0.0304053 0.0386653 -0.518011 
-0.0325688 0.0381708 -0.529516 -0.0344321 0.0375267 -0.540956 -0.0361186 0.0367835 -0.552253 
-0.037741 0.0359911 -0.563303 -0.0393862 0.0351932 -0.573984 -0.0411057 0.0344245 -0.584168 
-0.04291 0.0337078 -0.593731 -0.0447698 0.033054 -0.602564 -0.0466225 0.0324626 -0.610582 
-0.0483833 0.0319245 -0.617729 -0.0499592 0.0314251 -0.62398 -0.0512642 0.0309484 -0.629343 
-0.0522327 0.0304805 -0.633852 -0.0528309 0.030013 -0.637567 -0.0530622 0.0295449 -0.640565 
-0.0529683 0.0290837 -0.642932 -0.0526244 0.0286444 -0.644758 -0.0521292 0.0282479 -0.646128 
-0.0515922 0.0279184 -0.647119 -0.0511188 0.0276797 -0.647795 -0.0507959 0.0275523 -0.648204 
-0.0506805 0.0275499 -0.648375 
LINES 2 100
OFFSETS vtktypeint64
0 100 
CONNECTIVITY vtktypeint64
0 1 2 3 4 5 6 7 8 
9 10 11 12 13 14 15 16 17 
18 19 20 21 22 23 24 25 26 
27 28 29 30 31 32 33 34 35 
36 37 38 39 40 41 42 43 44 
45 46 47 48 49 50 51 52 53 
54 55 56 57 58 59 60 61 62 
63 64 65 66 67 68 69 70 71 
72 73 74 75 76 77 78 79 80 
81 82 83 84 85 86 87 88 89 
90 91 92 93 94 95 96 97 98 
99 
POINT_DATA 100
FIELD FieldData 3
_theta 1 100 double
0 0.031733259127 0.063466518254 0.095199777382 0.12693303651 0.15866629564 0.19039955476 0.22213281389 0.25386607302 
0.28559933214 0.31733259127 0.3490658504 0.38079910953 0.41253236865 0.44426562778 0.47599888691 0.50773214603 0.53946540516 
0.57119866429 0.60293192342 0.63466518254 0.66639844167 0.6981317008 0.72986495992 0.76159821905 0.79333147818 0.82506473731 
0.85679799643 0.88853125556 0.92026451469 0.95199777382 0.98373103294 1.0154642921 1.0471975512 1.0789308103 1.1106640695 
1.1423973286 1.1741305877 1.2058638468 1.237597106 1.2693303651 1.3010636242 1.3327968833 1.3645301425 1.3962634016 
1.4279966607 1.4597299198 1.491463179 1.5231964381 1.5549296972 1.5866629564 1.6183962155 1.6501294746 1.6818627337 
1.7135959929 1.745329252 1.7770625111 1.8087957702 1.8405290294 1.8722622885 1.9039955476 1.9357288068 1.9674620659 
1.999195325 2.0309285841 2.0626618433 2.0943951024 2.1261283615 2.1578616206 2.1895948798 2.2213281389 2.253061398 
2.2847946572 2.3165279163 2.3482611754 2.3799944345 2.4117276937 2.4434609528 2.4751942119 2.506927471 2.5386607302 
2.5703939893 2.6021272484 2.6338605076 2.6655937667 2.6973270258 2.7290602849 2.7607935441 2.7925268032 2.8242600623 
2.8559933214 2.8877265806 2.9194598397 2.9511930988 2.982926358 3.0146596171 3.0463928762 3.0781261353 3.1098593945 
3.1415926536 
_radius 1 100 double
9.1425029169e-16 0.01775336081 0.035204919134 0.052067855671 0.068092786314 0.083081030438 0.096892201426 0.10944565025 0.1207161016 
0.13072445149 0.13952508535 0.14719128001 0.15380039172 0.15942068704 0.16410177955 0.1678704815 0.17073324142 0.17268517191 
0.1737242138 0.17386766354 0.17316752405 0.17172114697 0.16967440364 0.16721598368 0.16456313255 0.16194092147 0.15955863471 
0.15758762256 0.15614463263 0.15528319274 0.15499362404 0.1552105785 0.15582609385 0.15670581154 0.15770612527 0.15869122394 
0.15955069291 0.16021774658 0.1606846675 0.16100981624 0.16131262579 0.16175730229 0.16252931581 0.16380989096 0.16575289527 
0.16846663552 0.17200120999 0.17634136324 0.18140543086 0.18705153432 0.19309129623 0.19930953115 0.20548711614 0.21142394785 
0.21695900174 0.22198477915 0.22645406747 0.23037805429 0.23381620877 0.23685961622 0.23961037833 0.24216021271 0.24457152346 
0.24686391445 0.24900824592 0.25092893524 0.25251366975 0.25362856012 0.2541362577 0.25391453099 0.2528729452 0.2509654625 
0.24819706857 0.24462313715 0.24034125434 0.23547648695 0.23016228498 0.22452005038 0.21864067342 0.21257097717 0.20630713113 
0.19979593286 0.19294366617 0.18563119004 0.1777330675 0.1691379575 0.15976725246 0.14958914591 0.13862599009 0.12695386285 
0.11469451355 0.10200105622 0.089039705902 0.075970362051 0.062928875823 0.050013428308 0.037276701347 0.024724598084 0.012321341945 
4.8125428678e-16 
_area 1 100 double
0 0.00079655057263 0.0031319725925 0.0068510774999 0.011718062676 0.017444302527 0.023717471603 0.030227518526 0.03668742425 
0.042848286856 0.048508717722 0.053518564837 0.057777369083 0.061228740678 0.063852488522 0.065656412598 0.0666692402 0.06693560187 
0.066513451492 0.065474340057 0.06390868038 0.061959241544 0.060004213691 0.058060810744 0.056143940043 0.054353604113 0.052808286764 
0.05161986756 0.050881886873 0.050658423963 0.050971738803 0.051794340864 0.053064082139 0.054714481647 0.056685542564 0.058910778818 
0.06129893178 0.063732933448 0.066095670655 0.068308336627 0.070361010484 0.072323425524 0.074331081855 0.076551755302 0.079150029695 
0.082265286486 0.086001628058 0.090420040874 0.095530539986 0.10128580494 0.10757752288 0.11423994825 0.12106276051 0.12781183633 
0.13425569003 0.14019462445 0.14548610607 0.15005827722 0.15390965356 0.15710058322 0.15974184319 0.16196967332 0.16387889475 
0.16546868935 0.16667309217 0.16740035548 0.16754977354 0.16702196453 0.16572710374 0.16359251568 0.16057424564 0.15667446477 
0.15195771917 0.146554928 0.14064958225 0.1344492427 0.1281508348 0.12190937034 0.1158174017 0.10989791587 0.10410906985 
0.098357556918 0.092518060227 0.086457040965 0.080058811931 0.073250756503 0.066023526401 0.058441839572 0.050642638999 0.042820012578 
0.035199738648 0.02800920504 0.02144948554 0.015675223154 0.010785358437 0.0068248268773 0.0037951017903 0.0016702512472 0.00041482479177 
3.2896211545e-17 
