# vtk DataFile Version 5.1
vtk output
ASCII
DATASET POLYDATA
POINTS 100 float
-0.0270823 0.0856558 0.761515 -0.0269487 0.0855386 0.761266 -0.0265253 0.0853321 0.76053 
-0.0257521 0.085016 0.759255 -0.0245374 0.0845594 0.757363 -0.0227683 0.0839275 0.754758 
-0.0203256 0.0830885 0.751342 -0.017097 0.0820217 0.747024 -0.0129916 0.080724 0.741736 
-0.00794941 0.0792148 0.735435 -0.00194868 0.0775383 0.728112 0.00499237 0.0757625 0.719787 
0.0128182 0.0739755 0.710505 0.0214427 0.0722781 0.700323 0.0307589 0.0707757 0.689302 
0.0406503 0.0695681 0.677494 0.051002 0.0687399 0.66493 0.0617105 0.0683513 0.651614 
0.0726902 0.0684325 0.637523 0.0838768 0.0689794 0.622607 0.0952272 0.0699531 0.606797 
0.106715 0.071283 0.590017 0.118324 0.0728719 0.5722 0.130041 0.0746035 0.553296 
0.141847 0.0763518 0.533285 0.153713 0.0779893 0.512189 0.165591 0.0793961 0.490067 
0.17742 0.0804668 0.467018 0.189118 0.0811152 0.443169 0.200596 0.0812778 0.418664 
0.211758 0.0809142 0.393646 0.22251 0.0800062 0.368244 0.232767 0.0785561 0.342559 
0.242455 0.0765828 0.316651 0.251517 0.0741195 0.29054 0.259905 0.0712104 0.264205 
0.267583 0.0679089 0.237595 0.274519 0.0642756 0.210639 0.280672 0.0603779 0.183272 
0.28599 0.0562891 0.155443 0.290403 0.052088 0.127142 0.293819 0.0478574 0.0984071 
0.296125 0.0436821 0.0693355 0.297192 0.0396461 0.0400811 0.296886 0.0358286 0.0108482 
0.295082 0.0322992 -0.0181231 0.291674 0.0291126 -0.0465766 0.286598 0.0263046 -0.0742625 
0.279838 0.0238876 -0.10096 0.271441 0.0218493 -0.126499 0.261517 0.0201525 -0.15077 
0.250243 0.0187378 -0.17374 0.237849 0.0175284 -0.195442 0.224606 0.0164378 -0.215978 
0.210809 0.0153783 -0.235496 0.196751 0.01427 -0.254175 0.182706 0.0130503 -0.2722 
0.168906 0.0116813 -0.289746 0.155527 0.0101548 -0.306956 0.142677 0.00849526 -0.323931 
0.130396 0.00675807 -0.340723 0.118659 0.00502551 -0.357337 0.107385 0.00339926 -0.373741 
0.0964603 0.00199081 -0.389876 0.0857484 0.000910673 -0.405672 0.0751164 0.00025759 -0.421067 
0.0644517 0.000108789 -0.436017 0.0536762 0.000512443 -0.45051 0.0427564 0.00148303 -0.464564 
0.0317067 0.00300007 -0.47823 0.0205862 0.00501023 -0.491581 0.00949052 0.0074325 -0.504698 
-0.00146088 0.0101658 -0.51766 -0.0121395 0.0130978 -0.530519 -0.022423 0.0161147 -0.543297 
-0.0322085 0.0191096 -0.555969 -0.0414227 0.0219902 -0.568465 -0.0500274 0.0246835 -0.58067 
-0.0580203 0.0271389 -0.592438 -0.0654305 0.0293278 -0.603603 -0.0723113 0.0312415 -0.614 
-0.0787292 0.0328876 -0.623483 -0.084753 0.0342848 -0.631942 -0.0904435 0.0354577 -0.639317 
-0.095845 0.0364327 -0.645605 -0.100981 0.037234 -0.650862 -0.105851 0.0378815 -0.655191 
-0.110436 0.0383906 -0.658735 -0.114701 0.038772 -0.66166 -0.118607 0.0390345 -0.664132 
-0.122111 0.0391865 -0.6663 -0.125184 0.0392385 -0.668283 -0.127807 0.0392049 -0.670159 
-0.129981 0.0391045 -0.671957 -0.131723 0.0389608 -0.673662 -0.133064 0.0388003 -0.675226 
-0.134044 0.0386502 -0.676576 -0.134704 0.0385363 -0.677632 -0.13508 0.0384791 -0.678322 
-0.135196 0.0384925 -0.678596 
LINES 2 100
OFFSETS vtktypeint64
0 100 
CONNECTIVITY vtktypeint64
0 1 2 3 4 5 6 7 8 
9 10 11 12 13 14 15 16 17 
18 19 20 21 22 23 24 25 26 
27 28 29 30 31 32 33 34 35 
36 37 38 39 40 41 42 43 44 
45 46 47 48 49 50 51 52 53 
54 55 56 57 58 59 60 61 62 
63 64 65 66 67 68 69 70 71 
72 73 74 75 76 77 78 79 80 
81 82 83 84 85 86 87 88 89 
90 91 92 93 94 95 96 97 98 
99 
POINT_DATA 100
FIELD FieldData 3
_theta 1 100 double
0 0.031733259127 0.063466518254 0.095199777382 0.12693303651 0.15866629564 0.19039955476 0.22213281389 0.25386607302 
0.28559933214 0.31733259127 0.3490658504 0.38079910953 0.41253236865 0.44426562778 0.47599888691 0.50773214603 0.53946540516 
0.57119866429 0.60293192342 0.63466518254 0.66639844167 0.6981317008 0.72986495992 0.76159821905 0.79333147818 0.82506473731 
0.85679799643 0.88853125556 0.92026451469 0.95199777382 0.98373103294 1.0154642921 1.0471975512 1.0789308103 1.1106640695 
1.1423973286 1.1741305877 1.2058638468 1.237597106 1.2693303651 1.3010636242 1.3327968833 1.3645301425 1.3962634016 
1.4279966607 1.4597299198 1.491463179 1.5231964381 1.5549296972 1.5866629564 1.6183962155 1.6501294746 1.6818627337 
1.7135959929 1.745329252 1.7770625111 1.8087957702 1.8405290294 1.8722622885 1.9039955476 1.9357288068 1.9674620659 
1.999195325 2.0309285841 2.0626618433 2.0943951024 2.1261283615 2.1578616206 2.1895948798 2.2213281389 2.253061398 
2.2847946572 2.3165279163 2.3482611754 2.3799944345 2.4117276937 2.4434609528 2.4751942119 2.506927471 2.5386607302 
2.5703939893 2.6021272484 2.6338605076 2.6655937667 2.6973270258 2.7290602849 2.7607935441 2.7925268032 2.8242600623 
2.8559933214 2.8877265806 2.9194598397 2.9511930988 2.982926358 3.0146596171 3.0463928762 3.0781261353 3.1098593945 
3.1415926536 
_radius 1 100 double
1.4592314055e-16 0.016227744524 0.032152711656 0.047495799847 0.062027986235 0.075586788091 0.088083513827 0.099500375031 0.10987812032 
0.11929644644 0.12785073189 0.13562929114 0.14269513451 0.14907514944 0.15475799573 0.15970031552 0.16383954144 0.16711083733 
0.16946544944 0.17088778232 0.17140869972 0.17111287822 0.17013860376 0.16866931133 0.16691745707 0.165102834 0.16342881308 
0.16206066268 0.16110965967 0.16062525752 0.16059576374 0.1609564514 0.16160297639 0.1624074299 0.16323462762 0.16395742834 
0.16447129172 0.16470877992 0.1646535511 0.16435116875 0.16391263823 0.16350740546 0.16334522598 0.16364946116 0.16462685616 
0.16643992105 0.16918715995 0.17289379174 0.1775124687 0.18293126239 0.18898560847 0.19547179561 0.20216111065 0.20881493564 
0.21520128836 0.22111246731 0.22638213 0.23089907981 0.23461488762 0.23754340927 0.23975195841 0.24134573852 0.24244853599 
0.24318327208 0.24365572799 0.24394375197 0.24409285815 0.24411773214 0.2440081228 0.24373711063 0.24326977481 0.24257064633 
0.24160881492 0.24036003198 0.23880561338 0.23692843354 0.23470681101 0.23210754876 0.22907972671 0.22555097791 0.22142782154 
0.21660104633 0.21095607629 0.20438692044 0.19681119698 0.18818327851 0.17850290645 0.16781741438 0.1562167222 0.14382153707 
0.13076694878 0.11718560168 0.10319535462 0.088894102397 0.074360456458 0.059656917275 0.044833132333 0.029928632019 0.014975318876 
7.5038323632e-16 
_area 1 100 double
0 0.00054039268399 0.0021283108643 0.0046700593032 0.0080282900144 0.012045294048 0.016566718527 0.021459352707 0.026618426541 
0.031963250502 0.037423721566 0.04292292256 0.048361997146 0.05361256498 0.05851954739 0.062914274805 0.06663528898 0.069553455441 
0.071600619461 0.07280550636 0.073276775773 0.073107739153 0.072417217681 0.071370161328 0.070155244529 0.068960219314 0.067949767534 
0.067246634768 0.066916676769 0.066959325423 0.067309389756 0.067855552815 0.068472940191 0.069060011539 0.069568446257 0.070016220105 
0.070475569511 0.071032672176 0.071735760177 0.072570316371 0.073482541455 0.074431867925 0.075432790781 0.076561233781 0.077934251282 
0.079683982478 0.081935820305 0.084788617527 0.088297408017 0.0924657862 0.097246985385 0.10254742973 0.10823220579 0.11413203649 
0.12004892507 0.12576225561 0.13104207596 0.13567329137 0.13948640486 0.14238454028 0.14435642539 0.14547014531 0.14585008099 
0.1456456637 0.14500239681 0.14404273165 0.14285899435 0.14151620405 0.14006377072 0.13855548703 0.13703191927 0.13546220191 
0.13380678567 0.13206761442 0.13026632123 0.12841371175 0.12648648413 0.12441160751 0.12205973311 0.11925050132 0.11577178683 
0.11141193652 0.10600052512 0.099449580674 0.091785218823 0.083160851837 0.07384732446 0.064200492217 0.054611043613 0.045444282123 
0.036980956615 0.029377773616 0.022672460315 0.016836724165 0.011838094746 0.0076723134051 0.0043647749758 0.0019572140309 0.00049207477019 
4.2927833599e-17 
