# vtk DataFile Version 5.1
vtk output
ASCII
DATASET POLYDATA
POINTS 100 float
-0.108823 -0.0333394 0.712681 -0.108805 -0.0330682 0.712527 -0.108751 -0.032014 0.712007 
-0.108684 -0.0302227 0.711086 -0.108633 -0.0277667 0.709712 -0.108624 -0.0247378 0.707816 
-0.108672 -0.021237 0.705322 -0.108769 -0.0173652 0.702149 -0.108871 -0.0132134 0.698222 
-0.1089 -0.00885544 0.693475 -0.108739 -0.00434332 0.687854 -0.108238 0.00029437 0.681324 
-0.107223 0.00505056 0.673865 -0.105512 0.00993486 0.665479 -0.10293 0.0149664 0.656179 
-0.0993229 0.0201657 0.645993 -0.0945782 0.0255456 0.634957 -0.0886322 0.0311043 0.623111 
-0.0814784 0.0368192 0.610495 -0.0731686 0.0426442 0.597144 -0.0638074 0.0485096 0.583087 
-0.0535418 0.0543248 0.568345 -0.0425468 0.0599836 0.552929 -0.0310088 0.0653713 0.53684 
-0.0191085 0.0703731 0.520073 -0.00700645 0.0748813 0.502616 0.00516774 0.0788028 0.484453 
0.0173212 0.0820645 0.465568 0.0293973 0.0846163 0.445946 0.04137 0.0864324 0.425573 
0.0532326 0.0875104 0.404443 0.0649843 0.087869 0.382555 0.076615 0.0875437 0.359915 
0.088091 0.0865834 0.33654 0.0993442 0.0850465 0.312457 0.110266 0.0829971 0.287703 
0.120707 0.080503 0.262327 0.130483 0.0776344 0.236393 0.139386 0.0744627 0.209975 
0.147202 0.0710606 0.183162 0.153726 0.0675017 0.156054 0.158787 0.0638602 0.128763 
0.162258 0.060209 0.10141 0.164077 0.0566184 0.074121 0.164251 0.0531524 0.0470234 
0.162855 0.0498659 0.0202421 0.160032 0.046801 -0.00610574 0.155979 0.0439839 -0.0319155 
0.150931 0.0414231 -0.0570996 0.14514 0.039109 -0.0815907 0.138857 0.0370154 -0.105344 
0.132314 0.0351029 -0.128339 0.125701 0.033324 -0.150576 0.119166 0.0316296 -0.172078 
0.112799 0.0299758 -0.192883 0.106637 0.0283307 -0.213043 0.100672 0.0266794 -0.232616 
0.0948566 0.0250276 -0.25166 0.0891188 0.0234021 -0.270232 0.0833778 0.0218488 -0.288379 
0.0775567 0.0204277 -0.306141 0.071595 0.0192059 -0.323543 0.065457 0.0182494 -0.340599 
0.0591369 0.0176138 -0.357314 0.0526598 0.0173369 -0.373683 0.0460782 0.0174321 -0.389698 
0.0394664 0.0178854 -0.40535 0.0329121 0.0186553 -0.42063 0.0265082 0.0196763 -0.435536 
0.0203433 0.0208653 -0.450071 0.0144955 0.0221305 -0.464245 0.00902646 0.0233818 -0.478075 
0.00397897 0.0245402 -0.49158 -0.000623633 0.0255473 -0.504781 -0.00477576 0.0263711 -0.517696 
-0.00848646 0.0270091 -0.530337 -0.0117753 0.0274872 -0.542708 -0.0146684 0.0278556 -0.554798 
-0.0171942 0.0281806 -0.566585 -0.0193811 0.0285355 -0.578033 -0.0212554 0.0289891 -0.589093 
-0.0228408 0.0295963 -0.599707 -0.0241588 0.0303895 -0.609809 -0.0252298 0.0313736 -0.619333 
-0.0260743 0.0325244 -0.628216 -0.0267139 0.0337914 -0.636402 -0.0271726 0.0351033 -0.643846 
-0.0274765 0.0363776 -0.65052 -0.0276534 0.037531 -0.656413 -0.0277317 0.0384899 -0.661533 
-0.0277389 0.0392006 -0.665904 -0.0277003 0.0396359 -0.66957 -0.0276371 0.039799 -0.672585 
-0.027566 0.0397231 -0.675014 -0.0274988 0.0394667 -0.676925 -0.0274423 0.0391063 -0.678388 
-0.0273995 0.0387259 -0.679466 -0.027371 0.0384062 -0.680214 -0.0273556 0.0382133 -0.680672 
-0.0273523 0.0381905 -0.680865 
LINES 2 100
OFFSETS vtktypeint64
0 100 
CONNECTIVITY vtktypeint64
0 1 2 3 4 5 6 7 8 
9 10 11 12 13 14 15 16 17 
18 19 20 21 22 23 24 25 26 
27 28 29 30 31 32 33 34 35 
36 37 38 39 40 41 42 43 44 
45 46 47 48 49 50 51 52 53 
54 55 56 57 58 59 60 61 62 
63 64 65 66 67 68 69 70 71 
72 73 74 75 76 77 78 79 80 
81 82 83 84 85 86 87 88 89 
90 91 92 93 94 95 96 97 98 
99 
POINT_DATA 100
FIELD FieldData 3
_theta 1 100 double
0 0.031733259127 0.063466518254 0.095199777382 0.12693303651 0.15866629564 0.19039955476 0.22213281389 0.25386607302 
0.28559933214 0.31733259127 0.3490658504 0.38079910953 0.41253236865 0.44426562778 0.47599888691 0.50773214603 0.53946540516 
0.57119866429 0.60293192342 0.63466518254 0.66639844167 0.6981317008 0.72986495992 0.76159821905 0.79333147818 0.82506473731 
0.85679799643 0.88853125556 0.92026451469 0.95199777382 0.98373103294 1.0154642921 1.0471975512 1.0789308103 1.1106640695 
1.1423973286 1.1741305877 1.2058638468 1.237597106 1.2693303651 1.3010636242 1.3327968833 1.3645301425 1.3962634016 
1.4279966607 1.4597299198 1.491463179 1.5231964381 1.5549296972 1.5866629564 1.6183962155 1.6501294746 1.6818627337 
1.7135959929 1.745329252 1.7770625111 1.8087957702 1.8405290294 1.8722622885 1.9039955476 1.9357288068 1.9674620659 
1.999195325 2.0309285841 2.0626618433 2.0943951024 2.1261283615 2.1578616206 2.1895948798 2.2213281389 2.253061398 
2.2847946572 2.3165279163 2.3482611754 2.3799944345 2.4117276937 2.4434609528 2.4751942119 2.506927471 2.5386607302 
2.5703939893 2.6021272484 2.6338605076 2.6655937667 2.6973270258 2.7290602849 2.7607935441 2.7925268032 2.8242600623 
2.8559933214 2.8877265806 2.9194598397 2.9511930988 2.982926358 3.0146596171 3.0463928762 3.0781261353 3.1098593945 
3.1415926536 
_radius 1 100 double
1.3447139565e-15 0.014654963662 0.029299284086 0.04391257403 0.058468612099 0.072928021639 0.087228651413 0.10127658726 0.11494117198 
0.12805652662 0.14043041304 0.15185956301 0.16214930395 0.17113460752 0.17869953649 0.18479235691 0.18943419522 0.19271994832 
0.19481110664 0.19592115006 0.19629515425 0.19618609375 0.19583087461 0.19542917958 0.19512768655 0.19501128471 0.19510186594 
0.19536434267 0.19571879754 0.19605712789 0.19626230649 0.1962284861 0.19588038046 0.1951901904 0.19418967361 0.19297442585 
0.1916980208 0.19055561497 0.18975922509 0.18950912875 0.18996716375 0.19123776859 0.19336076729 0.19631605942 0.20003637637 
0.20442261864 0.20935741841 0.2147148621 0.22036631183 0.22618356948 0.23204121798 0.23781979137 0.24341056369 0.24872160497 
0.25368384641 0.25825555127 0.26242384209 0.2662026096 0.26962695964 0.27274506953 0.27560873834 0.27826398775 0.28074289786 
0.28305757525 0.28519682596 0.28712575866 0.28878818122 0.29011131911 0.29101213855 0.29140444619 0.29120595399 0.29034460001 
0.28876355446 0.28642449144 0.28330887885 0.2794172455 0.27476661911 0.26938655455 0.26331433369 0.25658997375 0.24925161925 
0.24133174213 0.23285439041 0.22383356191 0.21427266864 0.20416500274 0.193495104 0.18224094399 0.17037685608 0.15787712183 
0.14472005685 0.13089234487 0.11639329661 0.10123868109 0.085463778979 0.069125315016 0.052301947203 0.035093056365 0.017615723103 
1.0715603116e-15 
_area 1 100 double
0 0.00065695478772 0.0026125470573 0.0058195016789 0.010194850943 0.015615995131 0.021919265563 0.028903303951 0.036337767119 
0.043975662058 0.051566520103 0.058868314605 0.065657722229 0.071739575761 0.076956393228 0.081197993988 0.084410013585 0.08659881121 
0.087829209445 0.088212704708 0.087889657908 0.087014848862 0.085752023763 0.08427657548 0.082796630702 0.081690102885 0.081129393741 
0.081032668844 0.081372478478 0.082076465986 0.083032743378 0.084105226478 0.08513680011 0.085978962703 0.086544319352 0.086842415364 
0.086987421136 0.087166700015 0.087647705031 0.088699981221 0.090511351866 0.09310910009 0.096535166337 0.10087270365 0.10554469829 
0.1103302686 0.11520367939 0.12024767306 0.12560966083 0.13142338391 0.13771935161 0.14439460214 0.15124790046 0.15803002549 
0.16448549537 0.17038844393 0.17557732439 0.17999723498 0.18380923199 0.18737886003 0.19094976525 0.19425574275 0.19718510138 
0.19973476056 0.20187197639 0.20353663958 0.20462818175 0.20502949488 0.20462465169 0.20330833648 0.2009951329 0.19762957746 
0.19319630711 0.18772800361 0.18130796539 0.17406485795 0.1661593574 0.15776523953 0.14904952919 0.14015634366 0.13119731424 
0.12224937948 0.1133590835 0.10455088766 0.095835677907 0.087216421108 0.07869109338 0.070255799918 0.061910923769 0.053670596197 
0.045573165432 0.037689551009 0.030127245017 0.02302894839 0.016565700048 0.010925005037 0.0062951472508 0.0028475563146 0.0007195692789 
1.7801224606e-17 
