# vtk DataFile Version 5.1
vtk output
ASCII
DATASET POLYDATA
POINTS 100 float
-0.233945 -0.0359202 0.752548 -0.233578 -0.0359947 0.752168 -0.232513 -0.0361017 0.751165 
-0.230711 -0.0362224 0.749518 -0.228112 -0.0363256 0.747194 -0.224649 -0.0363682 0.744153 
-0.220254 -0.0362971 0.740352 -0.214874 -0.0360501 0.735756 -0.208481 -0.0355596 0.730343 
-0.201076 -0.0347555 0.724105 -0.192698 -0.0335693 0.717056 -0.183422 -0.0319391 0.709228 
-0.173353 -0.0298138 0.700668 -0.162621 -0.0271576 0.691436 -0.151367 -0.0239542 0.681595 
-0.139734 -0.020209 0.671207 -0.127851 -0.0159504 0.660323 -0.11583 -0.0112294 0.648978 
-0.103751 -0.00611773 0.637188 -0.0916648 -0.000703709 0.624944 -0.0795915 0.00491216 0.61222 
-0.0675252 0.010623 0.59897 -0.0554422 0.0163215 0.585136 -0.0433094 0.0219053 0.570655 
-0.031095 0.0272818 0.555464 -0.0187766 0.0323714 0.53951 -0.0063487 0.0371098 0.522753 
0.00617414 0.0414481 0.505169 0.018756 0.0453519 0.486754 0.0313421 0.0487993 0.467518 
0.0438637 0.0517783 0.447486 0.056244 0.054284 0.426692 0.0684051 0.0563162 0.40517 
0.0802731 0.0578775 0.382954 0.0917823 0.0589731 0.360071 0.102876 0.0596107 0.336541 
0.113506 0.059802 0.312372 0.123625 0.0595644 0.287569 0.133186 0.058923 0.262132 
0.142132 0.0579122 0.236069 0.15039 0.0565768 0.209395 0.157867 0.0549714 0.182148 
0.16445 0.0531591 0.154385 0.170006 0.0512082 0.126194 0.17439 0.0491888 0.0976909 
0.177454 0.0471678 0.0690173 0.179057 0.0452043 0.040337 0.179083 0.0433455 0.0118281 
0.177452 0.0416238 -0.0163276 0.17413 0.0400552 -0.0439542 0.169141 0.0386403 -0.0708928 
0.16257 0.037366 -0.0970111 0.154558 0.0362107 -0.12221 0.1453 0.0351487 -0.14643 
0.135029 0.0341565 -0.16965 0.124003 0.0332186 -0.191886 0.112486 0.0323313 -0.213188 
0.100732 0.0315062 -0.233629 0.0889667 0.0307703 -0.253301 0.0773733 0.0301641 -0.272302 
0.0660855 0.0297377 -0.290726 0.055183 0.029544 -0.308661 0.0446925 0.0296323 -0.326179 
0.0345947 0.0300403 -0.343333 0.0248343 0.0307875 -0.360163 0.015333 0.0318703 -0.376688 
0.00600288 0.0332588 -0.392917 -0.00324007 0.0348979 -0.408853 -0.012465 0.0367094 -0.424495 
-0.0217183 0.0385988 -0.439845 -0.0310186 0.0404627 -0.454908 -0.0403569 0.0421986 -0.469697 
-0.0496982 0.0437135 -0.484231 -0.0589872 0.0449334 -0.498532 -0.0681547 0.0458088 -0.51262 
-0.0771247 0.0463197 -0.526511 -0.0858211 0.0464752 -0.540206 -0.0941726 0.0463123 -0.553694 
-0.102117 0.0458896 -0.566941 -0.1096 0.0452805 -0.579891 -0.11658 0.0445643 -0.592467 
-0.123021 0.0438176 -0.604573 -0.128894 0.043106 -0.616098 -0.134176 0.0424784 -0.626927 
-0.138846 0.0419634 -0.636942 -0.142887 0.0415681 -0.646039 -0.146288 0.0412808 -0.654133 
-0.149045 0.0410747 -0.661165 -0.151167 0.0409146 -0.66711 -0.152677 0.0407633 -0.671979 
-0.153618 0.0405882 -0.675822 -0.154051 0.040367 -0.678721 -0.154056 0.040091 -0.680791 
-0.153732 0.0397666 -0.682168 -0.153185 0.0394139 -0.683 -0.152531 0.0390636 -0.683437 
-0.151877 0.038752 -0.683623 -0.151321 0.0385156 -0.683678 -0.150939 0.0383848 -0.683697 
-0.15078 0.0383795 -0.683738 
LINES 2 100
OFFSETS vtktypeint64
0 100 
CONNECTIVITY vtktypeint64
0 1 2 3 4 5 6 7 8 
9 10 11 12 13 14 15 16 17 
18 19 20 21 22 23 24 25 26 
27 28 29 30 31 32 33 34 35 
36 37 38 39 40 41 42 43 44 
45 46 47 48 49 50 51 52 53 
54 55 56 57 58 59 60 61 62 
63 64 65 66 67 68 69 70 71 
72 73 74 75 76 77 78 79 80 
81 82 83 84 85 86 87 88 89 
90 91 92 93 94 95 96 97 98 
99 
POINT_DATA 100
FIELD FieldData 3
_theta 1 100 double
0 0.031733259127 0.063466518254 0.095199777382 0.12693303651 0.15866629564 0.19039955476 0.22213281389 0.25386607302 
0.28559933214 0.31733259127 0.3490658504 0.38079910953 0.41253236865 0.44426562778 0.47599888691 0.50773214603 0.53946540516 
0.57119866429 0.60293192342 0.63466518254 0.66639844167 0.6981317008 0.72986495992 0.76159821905 0.79333147818 0.82506473731 
0.85679799643 0.88853125556 0.92026451469 0.95199777382 0.98373103294 1.0154642921 1.0471975512 1.0789308103 1.1106640695 
1.1423973286 1.1741305877 1.2058638468 1.237597106 1.2693303651 1.3010636242 1.3327968833 1.3645301425 1.3962634016 
1.4279966607 1.4597299198 1.491463179 1.5231964381 1.5549296972 1.5866629564 1.6183962155 1.6501294746 1.6818627337 
1.7135959929 1.745329252 1.7770625111 1.8087957702 1.8405290294 1.8722622885 1.9039955476 1.9357288068 1.9674620659 
1.999195325 2.0309285841 2.0626618433 2.0943951024 2.1261283615 2.1578616206 2.1895948798 2.2213281389 2.253061398 
2.2847946572 2.3165279163 2.3482611754 2.3799944345 2.4117276937 2.4434609528 2.4751942119 2.506927471 2.5386607302 
2.5703939893 2.6021272484 2.6338605076 2.6655937667 2.6973270258 2.7290602849 2.7607935441 2.7925268032 2.8242600623 
2.8559933214 2.8877265806 2.9194598397 2.9511930988 2.982926358 3.0146596171 3.0463928762 3.0781261353 3.1098593945 
3.1415926536 
_radius 1 100 double
2.8609792491e-16 0.015686135265 0.031103382638 0.04600477629 0.06018527778 0.073494115055 0.08583861642 0.097179495776 0.10751939279 
0.11688793713 0.12532715952 0.13288045869 0.13958678724 0.14547989023 0.15059102046 0.15495297903 0.15860358294 0.1615874354 
0.16395576666 0.16576480242 0.16707344773 0.16794104134 0.16842564524 0.16858295895 0.16846568213 0.16812311011 0.16760088946 
0.16694099825 0.1661819881 0.16535934817 0.16450570111 0.16365058628 0.16281983321 0.16203480061 0.16131181014 0.1606619079 
0.16009109285 0.15960179262 0.15919668256 0.15888440302 0.15868454773 0.15862930483 0.15876137958 0.15913003343 0.15978753547 
0.16078695296 0.16218036449 0.16401583351 0.16633214924 0.16915159245 0.17247199951 0.1762599044 0.18044651006 0.18492767628 
0.1895682169 0.19421002502 0.19868317133 0.20281900787 0.20646417169 0.20949413966 0.21182475835 0.21342011779 0.21429536183 
0.21451358428 0.21417683012 0.21341225795 0.21235546168 0.21113352388 0.20985042621 0.20857694296 0.2073461863 0.20615483634 
0.20496902903 0.20373303231 0.20237856245 0.20083309796 0.19902644116 0.19689544689 0.19438702644 0.19145938811 0.18808131537 
0.18422938985 0.17988351059 0.17502165732 0.16961524716 0.16362635517 0.15700750295 0.14970395466 0.14165785837 0.13281334182 
0.12312184345 0.11254741171 0.10107213126 0.088701819891 0.075471561691 0.061449968739 0.046740912736 0.031481940267 0.015839289506 
6.4510773275e-16 
_area 1 100 double
0 0.00055803731747 0.0022010792904 0.0048402721592 0.0083405159994 0.012535213165 0.017239884571 0.022262591318 0.02741206271 
0.03250516068 0.03737390288 0.041871295312 0.045875784401 0.049295105618 0.052070513079 0.054182153252 0.055658609113 0.056611842052 
0.057285963022 0.057701297642 0.057900490547 0.057979314509 0.058047368782 0.05818316731 0.058406884913 0.058700412308 0.059031150697 
0.059364086311 0.059669493388 0.059927307552 0.060128271085 0.060271935676 0.060363313117 0.060414869833 0.060460204081 0.060569308118 
0.060815148402 0.061340662928 0.062165036238 0.06401622647 0.0666131219 0.06921306362 0.071587778591 0.073681580925 0.075540935906 
0.077273295464 0.079014422523 0.080904792493 0.083073046465 0.0856234846 0.088626766943 0.092113215596 0.096067223703 0.10042238591 
0.10505877891 0.10980454408 0.11444349236 0.11872954842 0.1224082222 0.12524617537 0.1270836484 0.12797042027 0.12801218277 
0.1270847654 0.1251642086 0.12252510915 0.11936219341 0.11595753119 0.11273154675 0.10969906314 0.10690745166 0.10439240927 
0.10214943511 0.1001365578 0.098268155949 0.096423113831 0.09447555211 0.092323158414 0.089896637084 0.087155330963 0.084077287358 
0.080648848363 0.076857331245 0.072689142996 0.06813346482 0.063189518888 0.057874771201 0.0522319699 0.046333385908 0.040280594573 
0.034198570205 0.028224892662 0.022498138007 0.017151261398 0.012312530924 0.008109680147 0.0046698124097 0.0021117669162 0.00053359214913 
5.688605032e-17 
