# vtk DataFile Version 5.1
vtk output
ASCII
DATASET POLYDATA
POINTS 100 float
-0.133798 -0.00874781 0.629639 -0.133533 -0.008654 0.629905 -0.132839 -0.00821937 0.630639 
-0.131745 -0.00743458 0.631697 -0.130292 -0.00628513 0.632858 -0.12853 -0.00475212 0.633838 
-0.126503 -0.00281356 0.634317 -0.124242 -0.000446458 0.633966 -0.121758 0.00237037 0.632474 
-0.119036 0.00565263 0.629571 -0.116032 0.00940625 0.625049 -0.112677 0.0136229 0.618779 
-0.10888 0.0182759 0.610713 -0.10454 0.0233164 0.600886 -0.0995531 0.028672 0.589407 
-0.0938268 0.0342464 0.576445 -0.0872888 0.0399225 0.562213 -0.0798963 0.0455667 0.546943 
-0.0716414 0.0510368 0.530869 -0.0625525 0.0561908 0.514208 -0.0526919 0.0608973 0.497142 
-0.04215 0.0650456 0.479807 -0.0310368 0.068554 0.46229 -0.0194723 0.0713774 0.444624 
-0.00757643 0.0735103 0.426799 0.00453891 0.0749863 0.408763 0.0167757 0.0758744 0.390437 
0.0290523 0.0762708 0.371729 0.0413019 0.0762882 0.352541 0.0534678 0.0760428 0.332789 
0.065497 0.0756417 0.312405 0.0773305 0.0751703 0.291348 0.0888962 0.0746834 0.269605 
0.100101 0.0741988 0.247196 0.110826 0.0736964 0.224169 0.12093 0.0731209 0.200597 
0.130249 0.0723904 0.176573 0.138605 0.071407 0.152205 0.145822 0.0700704 0.127612 
0.151732 0.0682927 0.102911 0.156196 0.0660109 0.0782229 0.159117 0.063198 0.053658 
0.160446 0.0598694 0.0293196 0.160192 0.0560849 0.00529852 0.158427 0.0519457 -0.0183277 
0.155276 0.0475866 -0.0414963 0.150915 0.0431644 -0.0641601 0.145554 0.0388438 -0.0862874 
0.139424 0.0347827 -0.107862 0.132761 0.0311181 -0.128884 0.125787 0.0279547 -0.149364 
0.118697 0.0253566 -0.169327 0.111649 0.0233448 -0.188807 0.104754 0.0218978 -0.207843 
0.0980799 0.0209578 -0.226477 0.0916478 0.0204401 -0.244752 0.0854426 0.0202445 -0.262705 
0.0794213 0.0202679 -0.280364 0.0735237 0.0204159 -0.297752 0.0676844 0.0206124 -0.314877 
0.0618429 0.0208062 -0.331738 0.0559519 0.0209738 -0.348325 0.0499831 0.0211183 -0.36462 
0.0439297 0.021265 -0.380602 0.037806 0.0214547 -0.39625 0.0316453 0.021735 -0.411547 
0.0254946 0.0221517 -0.426484 0.0194101 0.0227412 -0.441058 0.0134514 0.023525 -0.455281 
0.00767702 0.0245064 -0.469173 0.00214047 0.0256709 -0.48276 -0.00311184 0.026988 -0.496078 
-0.00804164 0.0284171 -0.509158 -0.0126187 0.029913 -0.522031 -0.0168202 0.0314327 -0.534717 
-0.0206294 0.0329415 -0.547222 -0.0240356 0.0344173 -0.559536 -0.0270333 0.0358529 -0.571632 
-0.0296231 0.0372561 -0.583461 -0.0318125 0.0386472 -0.594962 -0.0336176 0.040055 -0.606056 
-0.0350644 0.0415108 -0.616659 -0.0361896 0.0430428 -0.626683 -0.0370407 0.0446709 -0.636044 
-0.0376746 0.0464024 -0.644668 -0.0381548 0.0482298 -0.652496 -0.038548 0.0501308 -0.659487 
-0.0389184 0.0520702 -0.665625 -0.0393228 0.0540033 -0.670914 -0.0398054 0.0558813 -0.675383 
-0.0403931 0.0576559 -0.679081 -0.0410931 0.0592847 -0.682073 -0.0418919 0.0607346 -0.684439 
-0.0427565 0.0619843 -0.686264 -0.0436387 0.0630244 -0.687637 -0.0444795 0.0638567 -0.688643 
-0.0452171 0.0644906 -0.689358 -0.0457928 0.0649404 -0.689846 -0.0461591 0.0652203 -0.690157 
-0.0462844 0.0653417 -0.690317 
LINES 2 100
OFFSETS vtktypeint64
0 100 
CONNECTIVITY vtktypeint64
0 1 2 3 4 5 6 7 8 
9 10 11 12 13 14 15 16 17 
18 19 20 21 22 23 24 25 26 
27 28 29 30 31 32 33 34 35 
36 37 38 39 40 41 42 43 44 
45 46 47 48 49 50 51 52 53 
54 55 56 57 58 59 60 61 62 
63 64 65 66 67 68 69 70 71 
72 73 74 75 76 77 78 79 80 
81 82 83 84 85 86 87 88 89 
90 91 92 93 94 95 96 97 98 
99 
POINT_DATA 100
FIELD FieldData 3
_theta 1 100 double
0 0.031733259127 0.063466518254 0.095199777382 0.12693303651 0.15866629564 0.19039955476 0.22213281389 0.25386607302 
0.28559933214 0.31733259127 0.3490658504 0.38079910953 0.41253236865 0.44426562778 0.47599888691 0.50773214603 0.53946540516 
0.57119866429 0.60293192342 0.63466518254 0.66639844167 0.6981317008 0.72986495992 0.76159821905 0.79333147818 0.82506473731 
0.85679799643 0.88853125556 0.92026451469 0.95199777382 0.98373103294 1.0154642921 1.0471975512 1.0789308103 1.1106640695 
1.1423973286 1.1741305877 1.2058638468 1.237597106 1.2693303651 1.3010636242 1.3327968833 1.3645301425 1.3962634016 
1.4279966607 1.4597299198 1.491463179 1.5231964381 1.5549296972 1.5866629564 1.6183962155 1.6501294746 1.6818627337 
1.7135959929 1.745329252 1.7770625111 1.8087957702 1.8405290294 1.8722622885 1.9039955476 1.9357288068 1.9674620659 
1.999195325 2.0309285841 2.0626618433 2.0943951024 2.1261283615 2.1578616206 2.1895948798 2.2213281389 2.253061398 
2.2847946572 2.3165279163 2.3482611754 2.3799944345 2.4117276937 2.4434609528 2.4751942119 2.506927471 2.5386607302 
2.5703939893 2.6021272484 2.6338605076 2.6655937667 2.6973270258 2.7290602849 2.7607935441 2.7925268032 2.8242600623 
2.8559933214 2.8877265806 2.9194598397 2.9511930988 2.982926358 3.0146596171 3.0463928762 3.0781261353 3.1098593945 
3.1415926536 
_radius 1 100 double
6.713379852e-16 0.016867512202 0.033568395938 0.049918497976 0.065710137546 0.080718404897 0.094719377383 0.1075151877 0.11896020622 
0.12898306898 0.13759981174 0.14491378587 0.15109899655 0.15636647288 0.1609193329 0.16490931739 0.1684101472 0.17141757372 
0.17387565722 0.17571943155 0.17691930235 0.17751365319 0.17762136311 0.17743140447 0.17717076634 0.17705637178 0.17724360355 
0.17779046235 0.17865284619 0.17971073763 0.180810349 0.18180490635 0.18258357605 0.18308564321 0.18330173098 0.18326615808 
0.18304569418 0.18273009216 0.18242804836 0.18226842019 0.18240218844 0.18299850041 0.18422989389 0.18624697141 0.18914888228 
0.19295954305 0.1976180633 0.20298589109 0.20886653131 0.21503041151 0.22123860138 0.22726247198 0.23289928128 0.23798475733 
0.24240318056 0.24609420744 0.2490547948 0.25133471576 0.25302530369 0.25424271975 0.25510852023 0.2557310064 0.25619051816 
0.2565306739 0.25675605973 0.25683557706 0.25670994158 0.256301743 0.2555267387 0.25430528884 0.25257286311 0.2502884425 
0.24743960186 0.24404325809 0.24014157091 0.23579326265 0.2310615726 0.22600096712 0.22064526643 0.21499969553 0.20903844408 
0.2027079589 0.19593495482 0.18863740394 0.18073657955 0.17216839314 0.16289257877 0.15289865677 0.14220803547 0.13087209232 
0.11896659824 0.10658335966 0.093820386418 0.080772175645 0.067521736056 0.054135655904 0.040662797499 0.02713623998 0.013577274247 
1.6517987823e-16 
_area 1 100 double
0 0.00055888252376 0.0022780654671 0.0052414806641 0.009475213994 0.014855950656 0.021071378463 0.027643860812 0.034007630187 
0.039619803102 0.044081614962 0.047250351692 0.049343971301 0.051028976476 0.053100957135 0.055756406795 0.058681885756 0.061395900065 
0.063454894941 0.064665804703 0.065285185773 0.066102881438 0.068033066652 0.071373122826 0.075963916646 0.081501468686 0.087612039965 
0.093871300837 0.099832711957 0.10508187154 0.10929418896 0.11225426735 0.11384227061 0.11404535533 0.11300078918 0.11101901858 
0.10856263846 0.10617747607 0.10436344038 0.10340550772 0.1033009036 0.10389931867 0.10512671665 0.10710065881 0.1100761919 
0.11426712873 0.1196787543 0.12608081353 0.13309039046 0.14026988759 0.1472053117 0.15356294386 0.15912077537 0.16376848465 
0.16747753002 0.17026287418 0.17217048476 0.17330964223 0.17394860354 0.17455471422 0.17516989506 0.17556599894 0.17565031364 
0.17540410819 0.17482330574 0.17390491381 0.17264145066 0.17100939115 0.16896180732 0.1664365557 0.16337682382 0.15975196422 
0.15557146126 0.15089045989 0.14580535855 0.14043759775 0.13490707379 0.12930224558 0.12365765894 0.11794791549 0.11210039086 
0.10602122393 0.099624658727 0.092856331085 0.085705278609 0.078204761645 0.070425755002 0.062467785988 0.054450425406 0.046506857192 
0.038779283488 0.031414670684 0.02455919618 0.018351036042 0.012912827509 0.0083458295213 0.0047271741803 0.0021104540262 0.00052893678426 
8.6736173799e-18 
