# vtk DataFile Version 5.1
vtk output
ASCII
DATASET POLYDATA
POINTS 100 float
-0.109735 -0.10317 0.791792 -0.109571 -0.103033 0.791454 -0.109084 -0.102387 0.790398 
-0.108305 -0.101206 0.78862 -0.107288 -0.0994477 0.786109 -0.106101 -0.0970673 0.782858 
-0.10482 -0.0940203 0.778856 -0.103527 -0.0902717 0.774096 -0.102295 -0.0858041 0.768576 
-0.10118 -0.0806222 0.762298 -0.100217 -0.0747574 0.755272 -0.099402 -0.0682673 0.747513 
-0.0986939 -0.0612342 0.739044 -0.0980047 -0.0537598 0.729894 -0.0972017 -0.0459583 0.720094 
-0.0961108 -0.0379479 0.709678 -0.0945257 -0.0298427 0.698679 -0.0922212 -0.0217445 0.687126 
-0.0889699 -0.0137368 0.675042 -0.0845617 -0.00588115 0.662443 -0.0788233 0.00178439 0.649334 
-0.0716365 0.0092432 0.635712 -0.062953 0.0164961 0.621562 -0.0528036 0.023555 0.60686 
-0.041301 0.0304359 0.591577 -0.0286344 0.0371508 0.575676 -0.0150582 0.0437015 0.559121 
-0.000872885 0.0500735 0.541873 0.0135977 0.0562334 0.523898 0.0280318 0.0621279 0.505169 
0.0421344 0.0676857 0.485664 0.0556592 0.0728218 0.465371 0.0684246 0.0774436 0.44429 
0.0803223 0.0814583 0.422428 0.0913183 0.0847802 0.399805 0.101444 0.0873384 0.376446 
0.110782 0.0890824 0.352389 0.119443 0.0899871 0.327675 0.127547 0.0900545 0.302354 
0.135193 0.0893142 0.276481 0.142444 0.0878213 0.250115 0.149312 0.085653 0.223319 
0.155745 0.0829031 0.196162 0.161634 0.0796766 0.168714 0.166823 0.0760837 0.141051 
0.171118 0.0722341 0.113249 0.174317 0.0682317 0.0853894 0.17623 0.0641714 0.0575532 
0.176702 0.0601354 0.0298217 0.175631 0.0561923 0.00227477 0.172988 0.0523961 -0.0250108 
0.168815 0.0487866 -0.051963 0.163225 0.0453906 -0.0785163 0.156395 0.0422233 -0.104613 
0.148544 0.0392904 -0.130202 0.139913 0.0365897 -0.155245 0.130743 0.0341139 -0.179709 
0.12125 0.0318522 -0.20357 0.111613 0.0297928 -0.226812 0.101955 0.0279244 -0.249425 
0.0923433 0.0262386 -0.271403 0.0827895 0.0247309 -0.292745 0.0732613 0.0234022 -0.313453 
0.0636964 0.0222595 -0.333531 0.0540205 0.0213155 -0.352988 0.0441653 0.0205885 -0.371835 
0.0340852 0.0201006 -0.39009 0.0237687 0.0198755 -0.407774 0.0132444 0.0199358 -0.424916 
0.00258045 0.0202998 -0.441551 -0.00812163 0.0209784 -0.457722 -0.0187389 0.0219719 -0.473474 
-0.0291417 0.0232678 -0.488857 -0.0392089 0.0248398 -0.50392 -0.0488424 0.0266471 -0.518708 
-0.0579779 0.0286365 -0.533257 -0.0665903 0.0307444 -0.547589 -0.0746935 0.032901 -0.561711 
-0.0823352 0.0350351 -0.575607 -0.0895858 0.0370788 -0.58924 -0.0965251 0.0389732 -0.602551 
-0.103227 0.0406719 -0.615459 -0.109748 0.0421447 -0.62787 -0.116112 0.0433792 -0.639675 
-0.122311 0.0443805 -0.650764 -0.128299 0.0451698 -0.661031 -0.134002 0.0457805 -0.670382 
-0.139326 0.0462543 -0.678745 -0.14417 0.046636 -0.686072 -0.148441 0.0469678 -0.69235 
-0.152071 0.0472854 -0.697597 -0.155023 0.0476141 -0.701865 -0.157303 0.047967 -0.705237 
-0.158954 0.0483443 -0.707815 -0.160059 0.0487348 -0.709721 -0.160723 0.0491185 -0.71108 
-0.161067 0.0494708 -0.71201 -0.161205 0.0497659 -0.712618 -0.161233 0.0499817 -0.712985 
-0.161214 0.0501029 -0.71316 
LINES 2 100
OFFSETS vtktypeint64
0 100 
CONNECTIVITY vtktypeint64
0 1 2 3 4 5 6 7 8 
9 10 11 12 13 14 15 16 17 
18 19 20 21 22 23 24 25 26 
27 28 29 30 31 32 33 34 35 
36 37 38 39 40 41 42 43 44 
45 46 47 48 49 50 51 52 53 
54 55 56 57 58 59 60 61 62 
63 64 65 66 67 68 69 70 71 
72 73 74 75 76 77 78 79 80 
81 82 83 84 85 86 87 88 89 
90 91 92 93 94 95 96 97 98 
99 
POINT_DATA 100
FIELD FieldData 3
_theta 1 100 double
0 0.031733259127 0.063466518254 0.095199777382 0.12693303651 0.15866629564 0.19039955476 0.22213281389 0.25386607302 
0.28559933214 0.31733259127 0.3490658504 0.38079910953 0.41253236865 0.44426562778 0.47599888691 0.50773214603 0.53946540516 
0.57119866429 0.60293192342 0.63466518254 0.66639844167 0.6981317008 0.72986495992 0.76159821905 0.79333147818 0.82506473731 
0.85679799643 0.88853125556 0.92026451469 0.95199777382 0.98373103294 1.0154642921 1.0471975512 1.0789308103 1.1106640695 
1.1423973286 1.1741305877 1.2058638468 1.237597106 1.2693303651 1.3010636242 1.3327968833 1.3645301425 1.3962634016 
1.4279966607 1.4597299198 1.491463179 1.5231964381 1.5549296972 1.5866629564 1.6183962155 1.6501294746 1.6818627337 
1.7135959929 1.745329252 1.7770625111 1.8087957702 1.8405290294 1.8722622885 1.9039955476 1.9357288068 1.9674620659 
1.999195325 2.0309285841 2.0626618433 2.0943951024 2.1261283615 2.1578616206 2.1895948798 2.2213281389 2.253061398 
2.2847946572 2.3165279163 2.3482611754 2.3799944345 2.4117276937 2.4434609528 2.4751942119 2.506927471 2.5386607302 
2.5703939893 2.6021272484 2.6338605076 2.6655937667 2.6973270258 2.7290602849 2.7607935441 2.7925268032 2.8242600623 
2.8559933214 2.8877265806 2.9194598397 2.9511930988 2.982926358 3.0146596171 3.0463928762 3.0781261353 3.1098593945 
3.1415926536 
_radius 1 100 double
1.8924743921e-15 0.014930945564 0.029699448562 0.044149964964 0.058154585613 0.071620826716 0.084493234997 0.096748934587 0.10838863024 
0.1194254606 0.1298741403 0.13974217948 0.14902407758 0.15769865242 0.16572924559 0.17306642705 0.17965290634 0.18543048249 
0.19034883346 0.19437559778 0.19750652554 0.19977376642 0.20125015498 0.2020479694 0.20231184056 0.20220673714 0.20190284769 
0.20155957786 0.20131082125 0.20125327577 0.20143900932 0.20187287775 0.20251494387 0.20328777885 0.20408813521 0.20480165028 
0.20531835328 0.20554657833 0.20542355197 0.20492185785 0.20405173413 0.20285971759 0.20142462304 0.19985213455 0.19826904869 
0.19681732499 0.19564718676 0.19490854989 0.19474109532 0.19526416868 0.196567434 0.19870234905 0.20167431836 0.20543618307 
0.20988472698 0.21486216242 0.22016385961 0.2255523296 0.23077623378 0.23559227868 0.23978731574 0.24319781204 0.24572413636 
0.24733781015 0.24808087735 0.24805763299 0.24741990102 0.24634771644 0.24502759962 0.24363068394 0.24229290807 0.24109939092 
0.24007488239 0.2391816135 0.23832485498 0.23736523307 0.23613574462 0.23446076088 0.23217419695 0.22913441034 0.22523418768 
0.22040520193 0.21461731278 0.20787378959 0.20020383772 0.19165375565 0.18227782206 0.17212981101 0.16125596321 0.14969024234 
0.13745261587 0.12455080187 0.11098544747 0.096758172196 0.08188139782 0.066388404799 0.050341668613 0.03383744241 0.01700500113 
2.0617256158e-16 
_area 1 100 double
0 0.00062791781341 0.002484756399 0.0054934999026 0.0095364163099 0.014465871718 0.020112553922 0.026289871018 0.032797175231 
0.039426565323 0.045975851366 0.052265155107 0.05815121513 0.063534556718 0.068358491044 0.072601824505 0.076267751867 0.079371028777 
0.081925889832 0.083938584146 0.085409172041 0.086343580861 0.086768049277 0.086733915177 0.086311636041 0.085587670024 0.084672471276 
0.083708942928 0.082866983714 0.082320857746 0.082217146413 0.082645841553 0.083619845113 0.085062160624 0.086812110645 0.088662355047 
0.090418346659 0.091951020397 0.093215578261 0.094231263478 0.095033303088 0.095635388355 0.096040499317 0.096284121274 0.096468225148 
0.096750415374 0.097258962273 0.098045017785 0.099166575659 0.10074906904 0.102960579 0.105939679 0.10974372516 0.11436631194 
0.11975754216 0.1258134682 0.13235698627 0.13912951796 0.14580128446 0.15200090434 0.15736188008 0.16157952136 0.16446527639 
0.1659816585 0.16624512368 0.16549386636 0.16402507187 0.16211286666 0.15994148979 0.15759849078 0.15511553706 0.1525070271 
0.14978546114 0.14695640347 0.14400278441 0.1408725096 0.13748139272 0.13373181942 0.12953620091 0.12483363359 0.11959511267 
0.11381992424 0.10752951815 0.10076365824 0.093579230916 0.086049228916 0.078259428221 0.070301778013 0.062265942096 0.054233228806 
0.046278145542 0.038479751586 0.030938754027 0.023791648481 0.017214326973 0.011413073617 0.0066058005618 0.0029981943638 0.0007592335836 
1.7455234737e-17 
