# vtk DataFile Version 5.1
vtk output
ASCII
DATASET POLYDATA
POINTS 100 float
-0.132982 -0.00229359 0.727647 -0.132957 -0.0025297 0.72767 -0.132934 -0.0030538 0.727767 
-0.132862 -0.00381118 0.727832 -0.132657 -0.00471526 0.7277 -0.132218 -0.00565353 0.727162 
-0.131431 -0.00649552 0.725993 -0.130181 -0.00710209 0.723972 -0.128366 -0.00733563 0.720906 
-0.125899 -0.00707036 0.716647 -0.12272 -0.0062021 0.711107 -0.118791 -0.00465662 0.704261 
-0.114101 -0.00239604 0.696146 -0.108661 0.000577425 0.686852 -0.102496 0.00422071 0.676507 
-0.0956431 0.00845221 0.66526 -0.088144 0.0131573 0.653261 -0.0800419 0.0181961 0.640645 
-0.0713789 0.0234138 0.627519 -0.0621967 0.0286516 0.613949 -0.0525384 0.033758 0.599962 
-0.0424522 0.0385989 0.585546 -0.0319945 0.0430663 0.570659 -0.0212336 0.0470838 0.555238 
-0.0102507 0.0506089 0.539212 0.000860337 0.0536328 0.522515 0.0119969 0.0561754 0.505093 
0.0230529 0.0582796 0.486914 0.0339264 0.060002 0.467967 0.0445277 0.061404 0.448262 
0.0547868 0.0625428 0.427823 0.0646588 0.0634636 0.406681 0.0741266 0.0641948 0.384868 
0.083199 0.0647446 0.362406 0.0919052 0.0651024 0.339304 0.100285 0.0652417 0.315556 
0.108377 0.0651255 0.291143 0.116205 0.0647142 0.266041 0.123764 0.0639726 0.240226 
0.131011 0.0628771 0.213687 0.137859 0.0614215 0.186437 0.144176 0.05962 0.158517 
0.149789 0.0575076 0.13001 0.1545 0.0551389 0.101033 0.158099 0.0525823 0.0717433 
0.160386 0.0499151 0.0423237 0.161193 0.0472158 0.0129761 0.160398 0.0445572 -0.0160931 
0.157948 0.0420015 -0.044687 0.153863 0.0395955 -0.0726301 0.14824 0.0373701 -0.099779 
0.141242 0.0353408 -0.126029 0.133094 0.0335111 -0.151315 0.12405 0.0318774 -0.175611 
0.114382 0.0304346 -0.198923 0.104348 0.0291813 -0.22128 0.0941712 0.0281243 -0.242728 
0.0840253 0.0272802 -0.263315 0.0740211 0.0266755 -0.283091 0.0642057 0.0263435 -0.302098 
0.0545678 0.0263196 -0.320373 0.0450512 0.0266342 -0.337951 0.0355734 0.0273062 -0.354865 
0.0260472 0.0283357 -0.371159 0.0164017 0.0297003 -0.386888 0.00660063 0.0313523 -0.402128 
-0.00334524 0.0332202 -0.416974 -0.0133733 0.0352135 -0.431535 -0.0233723 0.0372307 -0.445934 
-0.0331929 0.0391688 -0.46029 -0.042665 0.040935 -0.474711 -0.0516189 0.0424573 -0.489273 
-0.0599063 0.0436932 -0.504014 -0.0674208 0.0446355 -0.51892 -0.0741112 0.0453134 -0.533918 
-0.0799899 0.0457898 -0.548883 -0.085131 0.046153 -0.563639 -0.0896609 0.0465052 -0.577977 
-0.093742 0.0469491 -0.591671 -0.0975503 0.0475722 -0.604503 -0.101252 0.0484342 -0.616281 
-0.104981 0.0495553 -0.62686 -0.10882 0.0509112 -0.63616 -0.112788 0.0524319 -0.644171 
-0.116841 0.0540071 -0.650955 -0.120872 0.0554977 -0.656641 -0.124731 0.0567508 -0.661406 
-0.128247 0.0576182 -0.665456 -0.131245 0.0579748 -0.669007 -0.13358 0.0577361 -0.672253 
-0.135157 0.0568713 -0.675351 -0.135942 0.0554108 -0.678403 -0.135979 0.0534471 -0.68145 
-0.135379 0.0511287 -0.684466 -0.134316 0.048647 -0.687372 -0.133001 0.0462178 -0.690045 
-0.131665 0.0440604 -0.692344 -0.130522 0.0423743 -0.694127 -0.129749 0.0413192 -0.695273 
-0.129462 0.0409973 -0.695702 
LINES 2 100
OFFSETS vtktypeint64
0 100 
CONNECTIVITY vtktypeint64
0 1 2 3 4 5 6 7 8 
9 10 11 12 13 14 15 16 17 
18 19 20 21 22 23 24 25 26 
27 28 29 30 31 32 33 34 35 
36 37 38 39 40 41 42 43 44 
45 46 47 48 49 50 51 52 53 
54 55 56 57 58 59 60 61 62 
63 64 65 66 67 68 69 70 71 
72 73 74 75 76 77 78 79 80 
81 82 83 84 85 86 87 88 89 
90 91 92 93 94 95 96 97 98 
99 
POINT_DATA 100
FIELD FieldData 3
_theta 1 100 double
0 0.031733259127 0.063466518254 0.095199777382 0.12693303651 0.15866629564 0.19039955476 0.22213281389 0.25386607302 
0.28559933214 0.31733259127 0.3490658504 0.38079910953 0.41253236865 0.44426562778 0.47599888691 0.50773214603 0.53946540516 
0.57119866429 0.60293192342 0.63466518254 0.66639844167 0.6981317008 0.72986495992 0.76159821905 0.79333147818 0.82506473731 
0.85679799643 0.88853125556 0.92026451469 0.95199777382 0.98373103294 1.0154642921 1.0471975512 1.0789308103 1.1106640695 
1.1423973286 1.1741305877 1.2058638468 1.237597106 1.2693303651 1.3010636242 1.3327968833 1.3645301425 1.3962634016 
1.4279966607 1.4597299198 1.491463179 1.5231964381 1.5549296972 1.5866629564 1.6183962155 1.6501294746 1.6818627337 
1.7135959929 1.745329252 1.7770625111 1.8087957702 1.8405290294 1.8722622885 1.9039955476 1.9357288068 1.9674620659 
1.999195325 2.0309285841 2.0626618433 2.0943951024 2.1261283615 2.1578616206 2.1895948798 2.2213281389 2.253061398 
2.2847946572 2.3165279163 2.3482611754 2.3799944345 2.4117276937 2.4434609528 2.4751942119 2.506927471 2.5386607302 
2.5703939893 2.6021272484 2.6338605076 2.6655937667 2.6973270258 2.7290602849 2.7607935441 2.7925268032 2.8242600623 
2.8559933214 2.8877265806 2.9194598397 2.9511930988 2.982926358 3.0146596171 3.0463928762 3.0781261353 3.1098593945 
3.1415926536 
_radius 1 100 double
5.3892993053e-16 0.016011590016 0.03184567772 0.047330316033 0.062308277909 0.076642269207 0.090218002864 0.10294526826 0.11475749628 
0.1256104723 0.13548076628 0.14436419103 0.15227428132 0.15924053653 0.16530608805 0.17052457617 0.17495630956 0.17866412799 
0.18170965717 0.1841507094 0.18604037556 0.1874278984 0.18836084945 0.18888766438 0.18905943173 0.18893007751 0.18855467438 
0.18798630306 0.1872724257 0.18645189131 0.18555343242 0.18459591179 0.18358981052 0.18253885934 0.1814409335 0.18028876697 
0.17907263482 0.17778671107 0.17643816546 0.17505584652 0.17369532913 0.17243852331 0.17138793804 0.17065756807 0.17036348544 
0.17061663284 0.17151810917 0.17315494048 0.17559361868 0.1788700137 0.18297678327 0.1878516657 0.19337076855 0.19934988 
0.20555476598 0.21171941614 0.21756974131 0.22284936938 0.22734396512 0.23090089155 0.23344185917 0.2349672354 0.23555175041 
0.23533237057 0.23449005851 0.23322790086 0.23174854793 0.23023395573 0.2288299297 0.22763688594 0.22670675795 0.22604458498 
0.22561261695 0.22533506558 0.2251027113 0.22477782246 0.2242005809 0.22319804993 0.22159576609 0.21923081707 0.21596445038 
0.2116922136 0.2063502168 0.199916881 0.19241015261 0.18388062282 0.17440155043 0.16405762602 0.1529350972 0.14111569302 
0.12867512782 0.11568478916 0.10221416582 0.08833215461 0.074106749172 0.059603720418 0.044885281834 0.030009483162 0.015030555094 
4.1368288354e-16 
_area 1 100 double
0 0.00060901214144 0.00242290581 0.0053995741317 0.0094615367329 0.014489566483 0.020320003264 0.026747774705 0.033535307079 
0.040426195362 0.047161845346 0.053499204587 0.059227980635 0.06418611634 0.068272397487 0.07145469747 0.0737717346 0.075326064856 
0.076267265151 0.076767166984 0.076992426957 0.077081321586 0.077129990622 0.077189737672 0.077273785307 0.077369873909 0.077454212972 
0.077502834034 0.077498561277 0.077434971426 0.077320908345 0.077187268743 0.077089304828 0.077089655445 0.077224411129 0.077482201506 
0.077811456071 0.078149715865 0.078462427373 0.07877485043 0.079227474369 0.079924331356 0.080770511302 0.0816542811 0.082541528698 
0.083494100998 0.084660494456 0.086263784902 0.088568425554 0.091805754643 0.096092837749 0.10141856285 0.10765962161 0.11458601093 
0.12187491501 0.12914029649 0.13597059047 0.14196684949 0.1467782242 0.15013577337 0.15188632647 0.15202366546 0.15070759173 
0.14825471073 0.14507401923 0.14154606201 0.13794949549 0.13447989223 0.13126937298 0.12838713969 0.12584578638 0.123623463 
0.12169080194 0.12002404896 0.11858548786 0.11728184683 0.11595312272 0.11439651488 0.11239115817 0.10971952493 0.10619240735 
0.10167799476 0.096130061625 0.089606621 0.082270227769 0.07436602444 0.066181452382 0.057997842881 0.050045829869 0.042476419949 
0.035361235641 0.02872665908 0.022599196574 0.017030886238 0.012099329618 0.0078956274921 0.0045113184627 0.0020281656907 0.00051060975704 
1.9491470898e-17 
