# vtk DataFile Version 5.1
vtk output
ASCII
DATASET POLYDATA
POINTS 100 float
-0.12964 -0.0401914 0.677382 -0.129395 -0.0402198 0.677676 -0.128674 -0.0401119 0.67852 
-0.127473 -0.0398526 0.679766 -0.125785 -0.0394174 0.681185 -0.123603 -0.0387735 0.682491 
-0.12092 -0.0378817 0.683375 -0.117733 -0.0366978 0.683532 -0.114046 -0.0351749 0.682696 
-0.109865 -0.0332658 0.680664 -0.105202 -0.0309252 0.677309 -0.100072 -0.0281119 0.672592 
-0.0944882 -0.0247917 0.666554 -0.0884604 -0.0209395 0.659304 -0.0819929 -0.0165416 0.650998 
-0.0750813 -0.0115979 0.641816 -0.0677127 -0.00612358 0.631931 -0.0598668 -0.000150824 0.621492 
-0.0515191 0.00627054 0.610603 -0.0426461 0.0130728 0.599312 -0.0332307 0.020171 0.587609 
-0.0232691 0.0274646 0.575435 -0.0127766 0.0348404 0.562692 -0.00179217 0.0421757 0.54926 
0.00961909 0.0493433 0.535019 0.021366 0.0562166 0.519866 0.0333346 0.0626751 0.50373 
0.0453936 0.0686096 0.486579 0.0574024 0.0739276 0.468425 0.0692202 0.078557 0.449319 
0.0807149 0.0824491 0.429343 0.0917716 0.0855796 0.408591 0.102298 0.0879481 0.387162 
0.112228 0.0895761 0.365138 0.121522 0.0905034 0.342582 0.130161 0.0907831 0.319525 
0.138143 0.0904764 0.295973 0.145471 0.0896475 0.271907 0.152148 0.0883579 0.2473 
0.158165 0.0866634 0.222129 0.163495 0.0846104 0.196389 0.168091 0.0822361 0.170107 
0.171883 0.079568 0.143354 0.174785 0.0766266 0.116244 0.176701 0.0734284 0.0889332 
0.177536 0.0699896 0.0616119 0.177208 0.0663296 0.0344878 0.175657 0.0624747 0.00776859 
0.172862 0.0584598 -0.0183575 0.168839 0.0543298 -0.0437398 0.163652 0.0501383 -0.0682787 
0.157407 0.0459461 -0.0919334 0.150247 0.0418173 -0.114723 0.142339 0.0378159 -0.13672 
0.133867 0.0340011 -0.158036 0.125009 0.0304234 -0.178805 0.11593 0.0271221 -0.199165 
0.106764 0.0241233 -0.219235 0.0976108 0.0214403 -0.239101 0.0885273 0.0190749 -0.258806 
0.0795317 0.0170208 -0.278343 0.0706077 0.0152673 -0.297659 0.0617145 0.0138037 -0.316668 
0.0527991 0.0126237 -0.335264 0.0438091 0.0117279 -0.353336 0.0347052 0.011126 -0.370795 
0.0254708 0.0108365 -0.387583 0.0161181 0.0108844 -0.403688 0.00668956 0.0112976 -0.419148 
-0.00274507 0.0121013 -0.434049 -0.0120959 0.0133129 -0.448515 -0.0212632 0.0149354 -0.462691 
-0.0301488 0.016953 -0.476726 -0.0386678 0.0193278 -0.490746 -0.0467585 0.0219989 -0.504843 
-0.054389 0.0248842 -0.519048 -0.0615598 0.0278841 -0.533333 -0.0683021 0.0308883 -0.5476 
-0.0746716 0.0337838 -0.561693 -0.0807397 0.0364638 -0.575407 -0.086582 0.038836 -0.588511 
-0.0922663 0.0408307 -0.600767 -0.0978431 0.0424056 -0.611954 -0.103337 0.0435491 -0.621891 
-0.108741 0.0442801 -0.63045 -0.114023 0.0446443 -0.637569 -0.11912 0.0447089 -0.643255 
-0.123955 0.0445546 -0.64758 -0.128445 0.0442667 -0.650672 -0.132508 0.0439265 -0.652698 
-0.136079 0.0436034 -0.653853 -0.139118 0.043349 -0.654339 -0.14161 0.0431936 -0.654348 
-0.143573 0.0431458 -0.654055 -0.145049 0.0431948 -0.653608 -0.146103 0.0433148 -0.653122 
-0.146807 0.0434715 -0.652683 -0.147233 0.0436288 -0.652351 -0.147444 0.0437558 -0.652161 
-0.147479 0.043832 -0.652134 
LINES 2 100
OFFSETS vtktypeint64
0 100 
CONNECTIVITY vtktypeint64
0 1 2 3 4 5 6 7 8 
9 10 11 12 13 14 15 16 17 
18 19 20 21 22 23 24 25 26 
27 28 29 30 31 32 33 34 35 
36 37 38 39 40 41 42 43 44 
45 46 47 48 49 50 51 52 53 
54 55 56 57 58 59 60 61 62 
63 64 65 66 67 68 69 70 71 
72 73 74 75 76 77 78 79 80 
81 82 83 84 85 86 87 88 89 
90 91 92 93 94 95 96 97 98 
99 
POINT_DATA 100
FIELD FieldData 3
_theta 1 100 double
0 0.031733259127 0.063466518254 0.095199777382 0.12693303651 0.15866629564 0.19039955476 0.22213281389 0.25386607302 
0.28559933214 0.31733259127 0.3490658504 0.38079910953 0.41253236865 0.44426562778 0.47599888691 0.50773214603 0.53946540516 
0.57119866429 0.60293192342 0.63466518254 0.66639844167 0.6981317008 0.72986495992 0.76159821905 0.79333147818 0.82506473731 
0.85679799643 0.88853125556 0.92026451469 0.95199777382 0.98373103294 1.0154642921 1.0471975512 1.0789308103 1.1106640695 
1.1423973286 1.1741305877 1.2058638468 1.237597106 1.2693303651 1.3010636242 1.3327968833 1.3645301425 1.3962634016 
1.4279966607 1.4597299198 1.491463179 1.5231964381 1.5549296972 1.5866629564 1.6183962155 1.6501294746 1.6818627337 
1.7135959929 1.745329252 1.7770625111 1.8087957702 1.8405290294 1.8722622885 1.9039955476 1.9357288068 1.9674620659 
1.999195325 2.0309285841 2.0626618433 2.0943951024 2.1261283615 2.1578616206 2.1895948798 2.2213281389 2.253061398 
2.2847946572 2.3165279163 2.3482611754 2.3799944345 2.4117276937 2.4434609528 2.4751942119 2.506927471 2.5386607302 
2.5703939893 2.6021272484 2.6338605076 2.6655937667 2.6973270258 2.7290602849 2.7607935441 2.7925268032 2.8242600623 
2.8559933214 2.8877265806 2.9194598397 2.9511930988 2.982926358 3.0146596171 3.0463928762 3.0781261353 3.1098593945 
3.1415926536 
_radius 1 100 double
9.1593399532e-16 0.017488285674 0.034828695711 0.051872073374 0.068474974451 0.084502264894 0.099829151415 0.1143425385 0.12794176454 
0.14053894141 0.15205924781 0.1624415689 0.17163981794 0.17962511785 0.18638877006 0.19194562374 0.19633714156 0.19963323365 
0.20193190364 0.20335599335 0.20404682189 0.20415519224 0.2038308919 0.20321222585 0.20241714053 0.20153713264 0.20063453699 
0.19974315949 0.19887172289 0.19800930894 0.19713193092 0.19620951643 0.19521282031 0.19411998545 0.19292250311 0.19163014423 
0.19027412296 0.18890757974 0.18760274913 0.18644490629 0.18552387574 0.18492416609 0.18471507783 0.18494290082 0.18562785027 
0.18676721139 0.18834317861 0.19033124036 0.19270496175 0.19543558787 0.19848797551 0.20181605461 0.20536075446 0.20905170568 
0.21281212446 0.21656501614 0.22023858388 0.22376935054 0.2271025638 0.23019047971 0.23298975695 0.23545929745 0.23755951024 
0.2392533638 0.24050897728 0.24130307536 0.24162449119 0.24147702284 0.24088120036 0.23987472795 0.23851140964 0.23685826799 
0.23499048838 0.23298397024 0.23090572912 0.22880303514 0.22669274027 0.224552568 0.22231617652 0.21987351185 0.21707724801 
0.21375499405 0.20972569546 0.20481768683 0.1988855058 0.19182295025 0.18357077587 0.17411857651 0.1635014498 0.15179278552 
0.13909479507 0.12552826428 0.11122266456 0.096307437739 0.080905074229 0.065126447458 0.049068626607 0.032815048805 0.016437602962 
4.042331108e-16 
_area 1 100 double
0 0.00071384325166 0.0028463678921 0.0063667221232 0.011212907556 0.017281958123 0.024424028153 0.032442449543 0.041099553543 
0.050126630282 0.059235835257 0.068132269779 0.076525769518 0.084143297509 0.090743128135 0.096130828735 0.10017515887 0.10282071477 
0.10409425922 0.10410309341 0.10302593041 0.10109881726 0.098599838308 0.095836009266 0.093137819903 0.09088756601 0.089377547227 
0.088427683948 0.08790651972 0.087702339872 0.087708084151 0.087816250171 0.087919317393 0.087925628343 0.087785295644 0.087511960363 
0.087189057588 0.086953824315 0.086958666061 0.087324544487 0.088115841017 0.08935194011 0.091026119845 0.093098038611 0.0954680745 
0.097981434788 0.10049642859 0.10293985746 0.10531372425 0.10767725108 0.11011335173 0.11269193016 0.11545477295 0.11842954405 
0.12164892181 0.12514015479 0.12887762479 0.13275526902 0.13662358627 0.14034020942 0.14378702873 0.14686207662 0.14946706209 
0.15150405411 0.15288855518 0.15358681986 0.1539405743 0.15383131505 0.15323315728 0.15202013018 0.15026955546 0.14809564421 
0.14563653786 0.14301048195 0.14028905421 0.13749862538 0.13463491674 0.13167081915 0.12855015357 0.12517322419 0.12138828366 
0.11700377484 0.11182620942 0.10571185612 0.098610334556 0.090583175703 0.081794029009 0.072478778663 0.062908896273 0.053360068684 
0.04409215705 0.035339193611 0.027303879954 0.020152201091 0.014008079432 0.0089511396236 0.0050204440112 0.0022244712628 0.00055485645813 
6.4372781629e-17 
