# vtk DataFile Version 5.1
vtk output
ASCII
DATASET POLYDATA
POINTS 100 float
-0.167676 -0.00136695 0.684566 -0.167582 -0.00168056 0.684749 -0.167305 -0.00241419 0.685326 
-0.166808 -0.00348543 0.686174 -0.166032 -0.00476659 0.687102 -0.164903 -0.00609688 0.687873 
-0.163338 -0.0072977 0.68822 -0.161253 -0.0081892 0.68788 -0.15857 -0.00860666 0.686613 
-0.155223 -0.00841471 0.684226 -0.151162 -0.0075183 0.680587 -0.146358 -0.0058691 0.675635 
-0.1408 -0.00346722 0.669379 -0.134495 -0.000357951 0.661893 -0.127466 0.00337558 0.653298 
-0.119747 0.00762291 0.643747 -0.111377 0.0122586 0.633405 -0.102403 0.0171546 0.622426 
-0.0928703 0.022192 0.610934 -0.0828258 0.0272699 0.599017 -0.0723168 0.0323108 0.586711 
-0.0613925 0.0372629 0.574005 -0.0501058 0.0420981 0.560845 -0.0385151 0.0468072 0.547146 
-0.0266863 0.0513923 0.532804 -0.014693 0.0558581 0.517717 -0.00261605 0.0602039 0.501796 
0.00945879 0.0644156 0.48498 0.0214442 0.0684613 0.467246 0.0332558 0.0722886 0.448611 
0.0448165 0.075826 0.42913 0.0560611 0.078987 0.408891 0.0669391 0.0816771 0.387999 
0.0774162 0.083802 0.366569 0.0874736 0.0852775 0.344708 0.0971044 0.0860379 0.322504 
0.106309 0.0860438 0.300015 0.115088 0.0852872 0.277269 0.123435 0.0837936 0.254257 
0.131329 0.0816215 0.230949 0.138729 0.0788581 0.207293 0.145571 0.0756129 0.183236 
0.151767 0.0720092 0.158736 0.157206 0.068175 0.133776 0.161765 0.0642332 0.108374 
0.165312 0.0602941 0.0825944 0.167725 0.0564481 0.0565449 0.168898 0.0527619 0.0303776 
0.168755 0.0492768 0.00427761 0.167262 0.0460098 -0.0215493 0.16443 0.0429572 -0.0468936 
0.160322 0.0400991 -0.071559 0.155052 0.0374065 -0.0953796 0.148774 0.0348475 -0.118234 
0.141679 0.0323932 -0.140053 0.133976 0.0300239 -0.160828 0.125882 0.0277316 -0.180604 
0.117602 0.0255229 -0.199475 0.109319 0.0234183 -0.217573 0.101183 0.0214506 -0.235049 
0.0933001 0.0196615 -0.25206 0.0857309 0.0180973 -0.26875 0.0784927 0.016804 -0.285236 
0.0715636 0.0158224 -0.301601 0.0648923 0.0151833 -0.317883 0.0584089 0.0149042 -0.334082 
0.0520375 0.0149865 -0.35016 0.0457076 0.0154149 -0.366051 0.0393647 0.0161571 -0.381678 
0.0329774 0.0171661 -0.396959 0.0265415 0.0183824 -0.411827 0.0200802 0.019738 -0.426236 
0.0136413 0.0211609 -0.440168 0.00729121 0.0225796 -0.453637 0.00110676 0.0239278 -0.466683 
-0.00483339 0.0251489 -0.479368 -0.0104576 0.026199 -0.49176 -0.015709 0.0270504 -0.503925 
-0.0205507 0.0276928 -0.515906 -0.0249694 0.028134 -0.52772 -0.0289753 0.0283986 -0.539338 
-0.0326004 0.0285265 -0.55069 -0.0358938 0.0285692 -0.561659 -0.0389159 0.0285858 -0.572092 
-0.0417317 0.0286384 -0.581811 -0.0444037 0.0287862 -0.590628 -0.0469861 0.0290812 -0.598364 
-0.0495196 0.0295629 -0.604871 -0.0520282 0.0302548 -0.610048 -0.0545177 0.0311618 -0.613854 
-0.0569757 0.0322686 -0.61632 -0.0593736 0.0335408 -0.61755 -0.0616699 0.0349263 -0.617718 
-0.0638136 0.0363595 -0.617051 -0.0657493 0.0377657 -0.615819 -0.067421 0.039067 -0.614309 
-0.0687769 0.0401884 -0.612799 -0.0697726 0.041064 -0.611539 -0.0703745 0.0416421 -0.610722 
-0.0705618 0.0418894 -0.610472 
LINES 2 100
OFFSETS vtktypeint64
0 100 
CONNECTIVITY vtktypeint64
0 1 2 3 4 5 6 7 8 
9 10 11 12 13 14 15 16 17 
18 19 20 21 22 23 24 25 26 
27 28 29 30 31 32 33 34 35 
36 37 38 39 40 41 42 43 44 
45 46 47 48 49 50 51 52 53 
54 55 56 57 58 59 60 61 62 
63 64 65 66 67 68 69 70 71 
72 73 74 75 76 77 78 79 80 
81 82 83 84 85 86 87 88 89 
90 91 92 93 94 95 96 97 98 
99 
POINT_DATA 100
FIELD FieldData 3
_theta 1 100 double
0 0.031733259127 0.063466518254 0.095199777382 0.12693303651 0.15866629564 0.19039955476 0.22213281389 0.25386607302 
0.28559933214 0.31733259127 0.3490658504 0.38079910953 0.41253236865 0.44426562778 0.47599888691 0.50773214603 0.53946540516 
0.57119866429 0.60293192342 0.63466518254 0.66639844167 0.6981317008 0.72986495992 0.76159821905 0.79333147818 0.82506473731 
0.85679799643 0.88853125556 0.92026451469 0.95199777382 0.98373103294 1.0154642921 1.0471975512 1.0789308103 1.1106640695 
1.1423973286 1.1741305877 1.2058638468 1.237597106 1.2693303651 1.3010636242 1.3327968833 1.3645301425 1.3962634016 
1.4279966607 1.4597299198 1.491463179 1.5231964381 1.5549296972 1.5866629564 1.6183962155 1.6501294746 1.6818627337 
1.7135959929 1.745329252 1.7770625111 1.8087957702 1.8405290294 1.8722622885 1.9039955476 1.9357288068 1.9674620659 
1.999195325 2.0309285841 2.0626618433 2.0943951024 2.1261283615 2.1578616206 2.1895948798 2.2213281389 2.253061398 
2.2847946572 2.3165279163 2.3482611754 2.3799944345 2.4117276937 2.4434609528 2.4751942119 2.506927471 2.5386607302 
2.5703939893 2.6021272484 2.6338605076 2.6655937667 2.6973270258 2.7290602849 2.7607935441 2.7925268032 2.8242600623 
2.8559933214 2.8877265806 2.9194598397 2.9511930988 2.982926358 3.0146596171 3.0463928762 3.0781261353 3.1098593945 
3.1415926536 
_radius 1 100 double
7.2164822382e-16 0.01658079936 0.03298609038 0.049039501889 0.064569825153 0.079415436578 0.093429852401 0.10648774102 0.11849039153 
0.12936961233 0.13908929798 0.14764436321 0.1550572699 0.16137282736 0.16665221444 0.17096719395 0.17439527419 0.17701620417 
0.17890979465 0.18015476403 0.18082819759 0.18100528496 0.18075919259 0.18016111133 0.17928057026 0.17818597148 0.17694502377 
0.17562448141 0.17428853755 0.17299564477 0.1717945745 0.17072154845 0.16979983418 0.16904135129 0.16844894254 0.16801872535 
0.16774260889 0.16761100079 0.16761562423 0.1677524016 0.16802418411 0.16844277779 0.16902976616 0.16981603711 0.17084002768 
0.17214457983 0.17377275885 0.17576380764 0.17815041034 0.18095730866 0.18420005015 0.18788232566 0.19199120494 0.19649101806 
0.20131777659 0.20637632645 0.21154193186 0.21666707828 0.22159317997 0.22616566226 0.23024983069 0.23374452562 0.23659106809 
0.23877620219 0.24032906334 0.24131316095 0.24181481603 0.241929604 0.2417483569 0.24134428295 0.24076271813 0.24001482549 
0.23907612853 0.2378901033 0.236376253 0.23444132627 0.23199182969 0.22894586167 0.22524253858 0.2208477643 0.21575567646 
0.20998571237 0.20357583998 0.19657305091 0.1890226373 0.18095797818 0.17239247759 0.16331493582 0.15368908856 0.14345745325 
0.13254908207 0.12089037296 0.10841772291 0.095090524233 0.080902850414 0.065892219396 0.050144100332 0.03379132713 0.017008230603 
2.4196425939e-16 
_area 1 100 double
0 0.00065749524595 0.0026136543948 0.0058143564937 0.01015533815 0.015470332805 0.021528225869 0.028044509736 0.034706769555 
0.041208690655 0.047284135167 0.052732896693 0.057432400408 0.061333771358 0.064445042259 0.066807782941 0.068475347528 0.069500270017 
0.069934587508 0.069841863531 0.069314452253 0.068474784992 0.067434927601 0.066269435956 0.065036233526 0.063787624947 0.062570882812 
0.061436559078 0.0604523707 0.059701293509 0.059239899554 0.059078959053 0.059204297966 0.059592453558 0.060219656562 0.061069951712 
0.062153690525 0.063517955467 0.065240317252 0.067364756206 0.069838547401 0.072517757707 0.075255411236 0.077958438015 0.080623265301 
0.083420904895 0.086242204859 0.088856841756 0.09121931321 0.093422217222 0.095634069649 0.098084725844 0.10102134527 0.10463697515 
0.10902280207 0.114179118 0.12003685235 0.1264345725 0.13306638333 0.13949527379 0.14525564181 0.14995494428 0.15333180677 
0.15527769808 0.15583168052 0.15515752283 0.15352452897 0.15130450531 0.14899624814 0.14694686578 0.14476551312 0.14247776293 
0.14012028298 0.13769718201 0.13516792258 0.13244877969 0.12942393397 0.12596365041 0.12194725849 0.11728793685 0.1119540513 
0.10598020312 0.099462770278 0.092539629303 0.085359775974 0.078053038096 0.070710585571 0.063382342144 0.056089748618 0.048846533887 
0.041679476735 0.034644122845 0.027833561058 0.021379978831 0.015449270722 0.010229380697 0.0059136961493 0.0026815683362 0.00067865038579 
2.4340207294e-17 
