# vtk DataFile Version 5.1
vtk output
ASCII
DATASET POLYDATA
POINTS 100 float
-0.14607 -0.0153765 0.755468 -0.145959 -0.0153289 0.755218 -0.145639 -0.0150635 0.754548 
-0.145055 -0.0145896 0.753397 -0.144123 -0.0139205 0.751671 -0.142742 -0.0130716 0.749255 
-0.140802 -0.0120573 0.746026 -0.138201 -0.010888 0.741874 -0.134855 -0.00956792 0.736708 
-0.130707 -0.00809218 0.730475 -0.125738 -0.00644568 0.723159 -0.119963 -0.00460257 0.714788 
-0.113436 -0.00252699 0.705423 -0.10624 -0.000175122 0.695154 -0.0984814 0.00250168 0.684086 
-0.0902789 0.00555268 0.672321 -0.0817539 0.00902282 0.65995 -0.0730211 0.0129474 0.64704 
-0.0641807 0.0173468 0.633625 -0.0553138 0.0222217 0.619705 -0.0464797 0.0275492 0.60525 
-0.0377166 0.0332799 0.590205 -0.0290434 0.0393375 0.574502 -0.0204635 0.0456189 0.558074 
-0.0119686 0.0519973 0.540865 -0.00354165 0.0583264 0.522842 0.00484032 0.0644466 0.504002 
0.0132054 0.0701921 0.484375 0.0215868 0.0753994 0.464021 0.0300234 0.0799152 0.443022 
0.0385602 0.083605 0.421475 0.0472483 0.0863603 0.399473 0.0561422 0.0881045 0.3771 
0.065296 0.0887972 0.354411 0.074756 0.0884365 0.331433 0.0845519 0.0870589 0.308155 
0.0946864 0.0847372 0.284535 0.105125 0.081576 0.260502 0.115784 0.0777057 0.235977 
0.12653 0.0732756 0.210876 0.137172 0.0684452 0.185137 0.147466 0.0633764 0.158728 
0.157127 0.0582251 0.131659 0.165843 0.0531345 0.103993 0.173294 0.0482293 0.0758436 
0.179175 0.0436112 0.0473727 0.183222 0.0393572 0.0187797 0.185236 0.0355186 -0.00971294 
0.185099 0.0321226 -0.0378763 0.182787 0.029175 -0.0654933 0.17838 0.0266637 -0.0923749 
0.17205 0.0245639 -0.118373 0.164058 0.0228423 -0.143391 0.154724 0.021462 -0.167382 
0.144409 0.0203869 -0.190354 0.133483 0.0195842 -0.212355 0.122294 0.0190272 -0.233467 
0.111144 0.0186964 -0.253791 0.100265 0.0185792 -0.273432 0.0898109 0.0186692 -0.292488 
0.079846 0.018965 -0.311041 0.0703542 0.0194673 -0.329148 0.0612499 0.0201777 -0.346843 
0.0523973 0.0210959 -0.364135 0.0436337 0.0222184 -0.381017 0.0347943 0.0235371 -0.397472 
0.0257348 0.0250388 -0.413481 0.0163513 0.0267049 -0.429031 0.00659263 0.0285123 -0.444118 
-0.0035336 0.0304344 -0.458755 -0.0139623 0.0324418 -0.472967 -0.0245794 0.0345041 -0.486791 
-0.0352353 0.0365912 -0.500265 -0.045762 0.0386738 -0.513428 -0.0559908 0.0407248 -0.526306 
-0.0657691 0.0427191 -0.538909 -0.0749738 0.0446341 -0.551225 -0.0835201 0.0464493 -0.563215 
-0.0913652 0.0481461 -0.574822 -0.0985063 0.0497072 -0.585967 -0.104974 0.0511166 -0.596561 
-0.110824 0.0523595 -0.606514 -0.116124 0.0534224 -0.615738 -0.120942 0.0542938 -0.624166 
-0.125341 0.0549648 -0.63175 -0.129368 0.0554306 -0.638468 -0.13305 0.055691 -0.644328 
-0.136401 0.0557518 -0.649365 -0.139416 0.0556256 -0.653636 -0.142086 0.0553319 -0.657215 
-0.144398 0.0548978 -0.660185 -0.146346 0.0543562 -0.66263 -0.147934 0.0537458 -0.664633 
-0.149179 0.0531084 -0.666262 -0.150112 0.0524872 -0.667576 -0.150773 0.0519242 -0.668619 
-0.151208 0.0514579 -0.669421 -0.151465 0.0511205 -0.670003 -0.151581 0.050936 -0.670373 
-0.151583 0.0509188 -0.670538 
LINES 2 100
OFFSETS vtktypeint64
0 100 
CONNECTIVITY vtktypeint64
0 1 2 3 4 5 6 7 8 
9 10 11 12 13 14 15 16 17 
18 19 20 21 22 23 24 25 26 
27 28 29 30 31 32 33 34 35 
36 37 38 39 40 41 42 43 44 
45 46 47 48 49 50 51 52 53 
54 55 56 57 58 59 60 61 62 
63 64 65 66 67 68 69 70 71 
72 73 74 75 76 77 78 79 80 
81 82 83 84 85 86 87 88 89 
90 91 92 93 94 95 96 97 98 
99 
POINT_DATA 100
FIELD FieldData 3
_theta 1 100 double
0 0.031733259127 0.063466518254 0.095199777382 0.12693303651 0.15866629564 0.19039955476 0.22213281389 0.25386607302 
0.28559933214 0.31733259127 0.3490658504 0.38079910953 0.41253236865 0.44426562778 0.47599888691 0.50773214603 0.53946540516 
0.57119866429 0.60293192342 0.63466518254 0.66639844167 0.6981317008 0.72986495992 0.76159821905 0.79333147818 0.82506473731 
0.85679799643 0.88853125556 0.92026451469 0.95199777382 0.98373103294 1.0154642921 1.0471975512 1.0789308103 1.1106640695 
1.1423973286 1.1741305877 1.2058638468 1.237597106 1.2693303651 1.3010636242 1.3327968833 1.3645301425 1.3962634016 
1.4279966607 1.4597299198 1.491463179 1.5231964381 1.5549296972 1.5866629564 1.6183962155 1.6501294746 1.6818627337 
1.7135959929 1.745329252 1.7770625111 1.8087957702 1.8405290294 1.8722622885 1.9039955476 1.9357288068 1.9674620659 
1.999195325 2.0309285841 2.0626618433 2.0943951024 2.1261283615 2.1578616206 2.1895948798 2.2213281389 2.253061398 
2.2847946572 2.3165279163 2.3482611754 2.3799944345 2.4117276937 2.4434609528 2.4751942119 2.506927471 2.5386607302 
2.5703939893 2.6021272484 2.6338605076 2.6655937667 2.6973270258 2.7290602849 2.7607935441 2.7925268032 2.8242600623 
2.8559933214 2.8877265806 2.9194598397 2.9511930988 2.982926358 3.0146596171 3.0463928762 3.0781261353 3.1098593945 
3.1415926536 
_radius 1 100 double
7.9507128988e-16 0.014997322335 0.029892595022 0.044578641255 0.058946730248 0.072884578086 0.086273836875 0.098988333802 0.11089462936 
0.12185612927 0.13174109131 0.14043374981 0.14784683967 0.1539333237 0.15869520466 0.16218784869 0.16451906932 0.16584309158 
0.16635023758 0.16625362585 0.16577433808 0.16512645177 0.16450318064 0.16406519157 0.16393198164 0.16417693503 0.16482627718 
0.16586164713 0.16722558326 0.16882904961 0.17056026265 0.17229437599 0.17390384318 0.17526938243 0.17629135878 0.17690098563 
0.17706992844 0.1768159895 0.17620271573 0.17533261307 0.17433519225 0.17335119978 0.17251599793 0.17194767151 0.17174403233 
0.17198746229 0.17275266886 0.17411199022 0.17613433678 0.17887617981 0.18236629792 0.18658950532 0.19147605544 0.19690120841 
0.20269498838 0.20865870372 0.21458399785 0.2202711854 0.22554494851 0.23026641038 0.23434111342 0.23772267534 0.24041205383 
0.24245254755 0.24392095506 0.24491568731 0.2455430197 0.24590299431 0.24607665143 0.24611619457 0.24603930483 0.24582813713 
0.24543270733 0.24477767911 0.24377119234 0.24231436459 0.24031031302 0.2376718342 0.23432717185 0.23022359409 0.22532879548 
0.21963039818 0.21313397367 0.20585997376 0.19783975793 0.1891106709 0.17971009107 0.16966876497 0.15900458536 0.14771880848 
0.13579667564 0.12321309751 0.10994227447 0.095969061524 0.081299830152 0.065971030306 0.050054185607 0.033656577008 0.016917428326 
4.0849420102e-16 
_area 1 100 double
0 0.00050694886667 0.0020192680853 0.0045109577929 0.0079363750834 0.012224526623 0.017269454769 0.022919495064 0.028970772736 
0.035170336758 0.041231755346 0.046862189905 0.051796374177 0.055830521804 0.058848478348 0.060833565698 0.06186264249 0.062084341275 
0.061691023374 0.06090438033 0.06010077345 0.059558553451 0.059267411808 0.059292003089 0.059693050195 0.060545888661 0.061769459085 
0.063290369901 0.064995513672 0.066744884484 0.068389631345 0.069792318006 0.070846616574 0.07149737633 0.071763563622 0.071763736014 
0.071726495139 0.071926380027 0.072540710027 0.073596296993 0.075030255272 0.076787773449 0.078868760077 0.081209349145 0.083572122437 
0.085725171641 0.0876116751 0.089354585496 0.091178054027 0.093343557215 0.096063108917 0.099479140285 0.10367331717 0.10866922086 
0.11441114856 0.12073395656 0.12735837206 0.13392709839 0.14006414126 0.14543250601 0.14977642071 0.15294556748 0.1549052632 
0.15573528049 0.15561500672 0.15479196671 0.15353443512 0.15207769424 0.15058768359 0.14915661284 0.14781332011 0.14653037659 
0.14522974437 0.14379243373 0.14207287848 0.13991661735 0.13717877869 0.13373993188 0.12951641444 0.12446438289 0.11857949891 
0.11189588705 0.10448722859 0.09646958544 0.088002159702 0.079281040393 0.070522350945 0.061934755856 0.053687248139 0.045884716582 
0.038564733502 0.031719678629 0.025334447419 0.019422699735 0.014048121458 0.0093261648757 0.0054090341887 0.0024599964099 0.00062384216455 
6.2337778108e-17 
