# vtk DataFile Version 5.1
vtk output
ASCII
DATASET POLYDATA
POINTS 100 float
-0.110015 -0.0419218 0.665674 -0.109979 -0.0420044 0.665495 -0.109916 -0.042105 0.664989 
-0.109789 -0.042196 0.664113 -0.109539 -0.0422335 0.662801 -0.109091 -0.0421597 0.660972 
-0.108365 -0.0419067 0.658539 -0.107282 -0.0414002 0.655418 -0.10577 -0.0405642 0.651536 
-0.103774 -0.0393252 0.646846 -0.101257 -0.0376172 0.641326 -0.0982035 -0.0353853 0.634987 
-0.0946154 -0.0325893 0.62787 -0.0905122 -0.0292068 0.620042 -0.0859242 -0.0252342 0.611592 
-0.0808876 -0.0206881 0.602617 -0.0754392 -0.0156051 0.593213 -0.0696125 -0.01004 0.583461 
-0.0634347 -0.00406453 0.573419 -0.0569264 0.00223597 0.563108 -0.0501033 0.00876549 0.552511 
-0.0429793 0.0154211 0.541571 -0.0355706 0.0220965 0.530189 -0.0279007 0.0286858 0.518238 
-0.0200038 0.0350871 0.505569 -0.0119276 0.0412049 0.492025 -0.00373377 0.046953 0.477462 
0.00450409 0.0522564 0.461756 0.0127042 0.0570524 0.444822 0.0207829 0.0612911 0.426625 
0.0286612 0.0649361 0.407181 0.0362724 0.0679638 0.386563 0.0435677 0.0703627 0.364891 
0.0505208 0.0721328 0.342328 0.057129 0.073284 0.319066 0.0634119 0.0738357 0.295304 
0.0694062 0.0738152 0.27124 0.075158 0.0732572 0.24705 0.0807128 0.0722025 0.222875 
0.0861054 0.0706979 0.198816 0.0913493 0.0687953 0.174928 0.0964285 0.0665518 0.151221 
0.101292 0.0640285 0.127669 0.105851 0.061291 0.104221 0.109983 0.0584084 0.0808161 
0.11354 0.0554525 0.0573942 0.116354 0.0524969 0.0339149 0.118254 0.0496157 0.0103664 
0.119081 0.0468818 -0.013227 0.118697 0.0443649 -0.0368028 0.117005 0.0421292 -0.0602642 
0.113953 0.0402308 -0.0834879 0.109542 0.0387157 -0.106337 0.103824 0.037617 -0.128676 
0.0969036 0.0369532 -0.150385 0.0889269 0.0367264 -0.171375 0.0800712 0.0369215 -0.191595 
0.0705324 0.0375062 -0.211043 0.0605113 0.0384318 -0.22976 0.0502005 0.0396354 -0.247828 
0.0397739 0.0410421 -0.265359 0.0293777 0.0425692 -0.28248 0.019126 0.0441306 -0.299317 
0.00909895 0.045641 -0.315976 -0.000655071 0.0470218 -0.332536 -0.0101154 0.048205 -0.349031 
-0.0192828 0.049138 -0.365449 -0.0281726 0.0497863 -0.381735 -0.0368075 0.0501362 -0.397792 
-0.0452119 0.0501948 -0.4135 -0.053407 0.0499895 -0.428726 -0.061408 0.0495656 -0.443343 
-0.0692231 0.0489823 -0.457244 -0.0768536 0.0483079 -0.470359 -0.0842956 0.047614 -0.482659 
-0.0915417 0.0469694 -0.494161 -0.0985832 0.0464345 -0.504925 -0.105411 0.0460558 -0.515046 
-0.112019 0.0458619 -0.524637 -0.118399 0.0458609 -0.533816 -0.124545 0.0460399 -0.54269 
-0.13045 0.0463657 -0.551336 -0.136104 0.0467881 -0.559793 -0.141494 0.047244 -0.568054 
-0.146601 0.0476638 -0.576068 -0.151405 0.0479773 -0.583743 -0.155881 0.0481209 -0.59096 
-0.160003 0.0480436 -0.597587 -0.163748 0.0477127 -0.6035 -0.167097 0.0471168 -0.608597 
-0.170038 0.0462688 -0.612813 -0.172569 0.0452046 -0.616133 -0.174696 0.0439818 -0.618594 
-0.176439 0.0426748 -0.620283 -0.177822 0.0413691 -0.621327 -0.178877 0.0401548 -0.621881 
-0.179638 0.0391185 -0.62211 -0.180137 0.0383367 -0.622167 -0.1804 0.0378689 -0.622175 
-0.180445 0.037753 -0.622217 
LINES 2 100
OFFSETS vtktypeint64
0 100 
CONNECTIVITY vtktypeint64
0 1 2 3 4 5 6 7 8 
9 10 11 12 13 14 15 16 17 
18 19 20 21 22 23 24 25 26 
27 28 29 30 31 32 33 34 35 
36 37 38 39 40 41 42 43 44 
45 46 47 48 49 50 51 52 53 
54 55 56 57 58 59 60 61 62 
63 64 65 66 67 68 69 70 71 
72 73 74 75 76 77 78 79 80 
81 82 83 84 85 86 87 88 89 
90 91 92 93 94 95 96 97 98 
99 
POINT_DATA 100
FIELD FieldData 3
_theta 1 100 double
0 0.031733259127 0.063466518254 0.095199777382 0.12693303651 0.15866629564 0.19039955476 0.22213281389 0.25386607302 
0.28559933214 0.31733259127 0.3490658504 0.38079910953 0.41253236865 0.44426562778 0.47599888691 0.50773214603 0.53946540516 
0.57119866429 0.60293192342 0.63466518254 0.66639844167 0.6981317008 0.72986495992 0.76159821905 0.79333147818 0.82506473731 
0.85679799643 0.88853125556 0.92026451469 0.95199777382 0.98373103294 1.0154642921 1.0471975512 1.0789308103 1.1106640695 
1.1423973286 1.1741305877 1.2058638468 1.237597106 1.2693303651 1.3010636242 1.3327968833 1.3645301425 1.3962634016 
1.4279966607 1.4597299198 1.491463179 1.5231964381 1.5549296972 1.5866629564 1.6183962155 1.6501294746 1.6818627337 
1.7135959929 1.745329252 1.7770625111 1.8087957702 1.8405290294 1.8722622885 1.9039955476 1.9357288068 1.9674620659 
1.999195325 2.0309285841 2.0626618433 2.0943951024 2.1261283615 2.1578616206 2.1895948798 2.2213281389 2.253061398 
2.2847946572 2.3165279163 2.3482611754 2.3799944345 2.4117276937 2.4434609528 2.4751942119 2.506927471 2.5386607302 
2.5703939893 2.6021272484 2.6338605076 2.6655937667 2.6973270258 2.7290602849 2.7607935441 2.7925268032 2.8242600623 
2.8559933214 2.8877265806 2.9194598397 2.9511930988 2.982926358 3.0146596171 3.0463928762 3.0781261353 3.1098593945 
3.1415926536 
_radius 1 100 double
5.7676359944e-16 0.013524905203 0.026957173665 0.04020264326 0.053170093211 0.065771702621 0.077922746851 0.08954117112 0.10054784616 
0.11086811503 0.12043476637 0.12919200723 0.13709956571 0.14413587677 0.15029943899 0.15560783348 0.16009446816 0.1638037115 
0.16678554722 0.16909105289 0.17076978342 0.17186955421 0.17243835857 0.17252750048 0.17219471932 0.17150620776 0.17053686983 
0.16936871387 0.16808770757 0.16677962044 0.1655253534 0.164396105 0.16344858107 0.16272045473 0.16222652229 0.16195641035 
0.16187495482 0.16192614976 0.16204084571 0.16214748556 0.16218440931 0.16211173416 0.16192056847 0.16163751674 0.16132330529 
0.16106582653 0.16096930145 0.16114175214 0.1616824087 0.16266981592 0.16415117299 0.16613401937 0.16858201489 0.17141626737 
0.17452236447 0.17776187668 0.18098638069 0.18405202126 0.18683296558 0.18923257129 0.19119155079 0.1926927575 0.19376239464 
0.19446752038 0.19490982196 0.19521578455 0.19552351332 0.19596659299 0.1966557246 0.19765974354 0.19898893373 0.20058461145 
0.20231865542 0.2040044689 0.20541767867 0.20632244688 0.20649856671 0.20576516912 0.20399804905 0.20113883554 0.1971953924 
0.19223396094 0.18636458605 0.17972216293 0.17244586033 0.16465964895 0.15645625445 0.14788623556 0.13895324772 0.12961596973 
0.11979657933 0.10939496517 0.098307079319 0.086445132743 0.073756907543 0.060241417101 0.045958518197 0.031030841421 0.015637469414 
7.2001804951e-16 
_area 1 100 double
0 0.00042345398374 0.0016897093241 0.0037847029571 0.0066796580259 0.010324746453 0.014643341588 0.019529086456 0.024847081861 
0.030438931652 0.036130158227 0.041738506233 0.047082746983 0.051992673491 0.056321079671 0.05995763198 0.062843276774 0.0649826707 
0.066450925981 0.06738888692 0.067978147098 0.068389048306 0.06871642688 0.068950430595 0.069011959307 0.068816958166 0.068322090936 
0.067541931821 0.066547390437 0.065453090085 0.064397788304 0.063522420032 0.06295073229 0.062774589846 0.063041785192 0.063744413913 
0.064814446085 0.066136036458 0.067570778091 0.068987535049 0.070295866768 0.071468807575 0.072502589713 0.07335635106 0.074010900155 
0.074526686652 0.075038582368 0.075741485347 0.076893397944 0.078788667263 0.081440124546 0.084546588171 0.087873662128 0.091248551499 
0.094512858428 0.097517557576 0.10014034414 0.10231182608 0.10403870862 0.10540940379 0.10655671939 0.10757398879 0.10846401452 
0.10918117808 0.10969712708 0.11002822812 0.1102310739 0.1103878433 0.11059319451 0.11093934765 0.11148980599 0.11224239803 
0.11310156186 0.11388194742 0.11434023847 0.11421579244 0.11326896593 0.11131557885 0.10825536576 0.10408806415 0.098911291962 
0.092900403341 0.086276898861 0.079274609194 0.07211131215 0.064969537444 0.057986608941 0.05125214365 0.044811334408 0.038673367459 
0.032825034209 0.027249065466 0.021944782528 0.016946409446 0.012333659714 0.0082308348031 0.0047937410501 0.0021868586262 0.00055561842274 
4.9587017461e-17 
