# vtk DataFile Version 5.1
vtk output
ASCII
DATASET POLYDATA
POINTS 100 float
-0.120958 0.0384175 0.787765 -0.120942 0.0383024 0.787723 -0.120899 0.0381129 0.787679 
-0.120791 0.0378351 0.787503 -0.120556 0.0374518 0.786996 -0.120112 0.0369488 0.785914 
-0.119357 0.036323 0.783996 -0.11818 0.0355896 0.780999 -0.116464 0.0347875 0.776724 
-0.114092 0.0339819 0.771039 -0.110958 0.0332634 0.76389 -0.106971 0.0327427 0.755307 
-0.102063 0.032542 0.745396 -0.0961961 0.0327834 0.734318 -0.0893662 0.0335759 0.722266 
-0.0816058 0.0350023 0.709443 -0.0729848 0.0371084 0.696028 -0.0636078 0.0398946 0.682157 
-0.0536097 0.0433124 0.667907 -0.043148 0.0472659 0.653291 -0.0323937 0.0516176 0.638262 
-0.02152 0.0561993 0.622721 -0.0106918 0.060826 0.606543 -5.34632e-05 0.0653105 0.589595 
0.0102801 0.0694794 0.571766 0.0202316 0.0731858 0.552979 0.0297654 0.0763197 0.533215 
0.0388889 0.0788132 0.512514 0.0476497 0.0806417 0.490974 0.0561286 0.0818196 0.468737 
0.06443 0.0823929 0.445974 0.072669 0.0824287 0.422858 0.0809581 0.0820031 0.399541 
0.0893922 0.0811904 0.37613 0.0980359 0.0800534 0.352676 0.106912 0.0786373 0.329157 
0.115996 0.0769668 0.305488 0.125208 0.0750473 0.281527 0.134421 0.0728698 0.257096 
0.143459 0.070418 0.232004 0.152114 0.0676767 0.20608 0.160155 0.0646402 0.179196 
0.167346 0.0613199 0.151288 0.173463 0.0577481 0.122378 0.178307 0.0539802 0.0925716 
0.181721 0.0500919 0.062059 0.183603 0.0461748 0.0310988 0.183905 0.042328 -3.98123e-06 
0.182642 0.03865 -0.0309247 0.179889 0.0352288 -0.0613477 0.175768 0.0321347 -0.0909938 
0.170442 0.0294143 -0.119641 0.164101 0.0270878 -0.147142 0.156943 0.0251498 -0.173424 
0.149167 0.0235727 -0.198492 0.140952 0.0223132 -0.22241 0.13245 0.0213197 -0.245291 
0.12378 0.0205406 -0.267268 0.115022 0.0199316 -0.288477 0.10622 0.0194615 -0.309036 
0.0973864 0.0191151 -0.32903 0.0885099 0.0188934 -0.348506 0.0795639 0.0188109 -0.367471 
0.0705183 0.0188911 -0.385898 0.0613492 0.0191598 -0.40374 0.0520479 0.0196386 -0.420941 
0.0426277 0.0203391 -0.437458 0.0331273 0.0212579 -0.45327 0.023611 0.0223753 -0.468387 
0.0141666 0.0236558 -0.482861 0.00489987 0.025051 -0.496777 -0.00407329 0.0265055 -0.510248 
-0.012635 0.0279633 -0.5234 -0.0206745 0.0293746 -0.536359 -0.0280963 0.0307024 -0.549232 
-0.0348271 0.0319264 -0.562089 -0.0408204 0.0330451 -0.574956 -0.0460588 0.034075 -0.587808 
-0.0505538 0.0350469 -0.600566 -0.0543433 0.0360002 -0.613105 -0.0574872 0.0369758 -0.625268 
-0.0600615 0.0380085 -0.636878 -0.0621517 0.0391205 -0.64776 -0.0638464 0.0403165 -0.657753 
-0.0652314 0.0415814 -0.666731 -0.0663843 0.0428813 -0.674609 -0.0673712 0.0441669 -0.681351 
-0.0682447 0.0453797 -0.686973 -0.0690429 0.0464599 -0.691535 -0.0697903 0.0473548 -0.695133 
-0.0704995 0.0480261 -0.697891 -0.0711729 0.0484559 -0.699943 -0.0718062 0.04865 -0.701427 
-0.07239 0.048638 -0.702471 -0.0729126 0.0484697 -0.703188 -0.0733614 0.0482094 -0.703672 
-0.0737249 0.0479277 -0.703994 -0.0739931 0.0476921 -0.704206 -0.074158 0.0475583 -0.704342 
-0.0742146 0.047563 -0.704421 
LINES 2 100
OFFSETS vtktypeint64
0 100 
CONNECTIVITY vtktypeint64
0 1 2 3 4 5 6 7 8 
9 10 11 12 13 14 15 16 17 
18 19 20 21 22 23 24 25 26 
27 28 29 30 31 32 33 34 35 
36 37 38 39 40 41 42 43 44 
45 46 47 48 49 50 51 52 53 
54 55 56 57 58 59 60 61 62 
63 64 65 66 67 68 69 70 71 
72 73 74 75 76 77 78 79 80 
81 82 83 84 85 86 87 88 89 
90 91 92 93 94 95 96 97 98 
99 
POINT_DATA 100
FIELD FieldData 3
_theta 1 100 double
0 0.031733259127 0.063466518254 0.095199777382 0.12693303651 0.15866629564 0.19039955476 0.22213281389 0.25386607302 
0.28559933214 0.31733259127 0.3490658504 0.38079910953 0.41253236865 0.44426562778 0.47599888691 0.50773214603 0.53946540516 
0.57119866429 0.60293192342 0.63466518254 0.66639844167 0.6981317008 0.72986495992 0.76159821905 0.79333147818 0.82506473731 
0.85679799643 0.88853125556 0.92026451469 0.95199777382 0.98373103294 1.0154642921 1.0471975512 1.0789308103 1.1106640695 
1.1423973286 1.1741305877 1.2058638468 1.237597106 1.2693303651 1.3010636242 1.3327968833 1.3645301425 1.3962634016 
1.4279966607 1.4597299198 1.491463179 1.5231964381 1.5549296972 1.5866629564 1.6183962155 1.6501294746 1.6818627337 
1.7135959929 1.745329252 1.7770625111 1.8087957702 1.8405290294 1.8722622885 1.9039955476 1.9357288068 1.9674620659 
1.999195325 2.0309285841 2.0626618433 2.0943951024 2.1261283615 2.1578616206 2.1895948798 2.2213281389 2.253061398 
2.2847946572 2.3165279163 2.3482611754 2.3799944345 2.4117276937 2.4434609528 2.4751942119 2.506927471 2.5386607302 
2.5703939893 2.6021272484 2.6338605076 2.6655937667 2.6973270258 2.7290602849 2.7607935441 2.7925268032 2.8242600623 
2.8559933214 2.8877265806 2.9194598397 2.9511930988 2.982926358 3.0146596171 3.0463928762 3.0781261353 3.1098593945 
3.1415926536 
_radius 1 100 double
1.0153572274e-15 0.016084505983 0.032032651703 0.04771234801 0.062999385439 0.077778806138 0.091944499825 0.10539778544 0.11804609274 
0.12980275047 0.14058841213 0.15033404144 0.15898488247 0.16650460504 0.17287887351 0.17811786757 0.18225765892 0.18536066752 
0.18751553636 0.18883658438 0.18946255566 0.18955387497 0.18928731746 0.18884712019 0.18841219567 0.18814024664 0.18815107512 
0.1885127544 0.18923470394 0.19027023483 0.19152802761 0.19288895325 0.19422359087 0.1954071018 0.1963304024 0.19690823654 
0.1970852475 0.19684089167 0.19619353931 0.19520345497 0.19397337294 0.19264441464 0.19138533292 0.1903755098 0.18978575141 
0.18976260625 0.19041969252 0.19183532248 0.19405315616 0.19708284407 0.20089938703 0.20544192876 0.21061414003 0.21628855583 
0.22231579528 0.22853729218 0.2347986394 0.24096080094 0.24690766369 0.252549601 0.25782341488 0.26268931786 0.2671257521 
0.27112294406 0.2746761384 0.27777937872 0.28042049307 0.28257768895 0.28421797869 0.28529756719 0.2857642564 0.28556173718 
0.28463530462 0.28293812313 0.28043685182 0.27711539974 0.27297590924 0.26803671314 0.2623277886 0.25588486858 0.24874363118 
0.2409351718 0.23248338722 0.2234042354 0.21370636297 0.20339247005 0.19246098548 0.18090797339 0.16872944029 0.15592419047 
0.14249710383 0.12846237924 0.11384611792 0.098687712653 0.083039802375 0.066966911147 0.050543187089 0.03384980496 0.016972562012 
6.9334152106e-16 
_area 1 100 double
0 0.00064572305412 0.0025717840172 0.0057422601947 0.010089610847 0.015506407394 0.021839278837 0.028888446935 0.036414685415 
0.044153296544 0.05183256116 0.05919284779 0.066002652349 0.072069280085 0.077244038281 0.081423622556 0.084550016583 0.086610688759 
0.087640340114 0.087734624113 0.087282470089 0.086383537141 0.085052028985 0.083428257956 0.081735802545 0.0802039126 0.079031631 
0.07837672448 0.078322995058 0.078855820213 0.079862602851 0.081168994921 0.082591243592 0.083977191319 0.085215071007 0.086209029918 
0.086891436474 0.087227089263 0.087341568848 0.087693744805 0.088834803567 0.090567783226 0.09265750158 0.094957540903 0.09734903098 
0.09973646352 0.10207763362 0.10441865017 0.10692016739 0.1098097952 0.11331967164 0.11763018923 0.12283010699 0.12887601576 
0.1356145683 0.14284357601 0.15034280008 0.15787285135 0.16517674833 0.17200183482 0.1781274654 0.18338516332 0.18767139423 
0.19095465287 0.19327549043 0.19473737675 0.19548732623 0.19568518685 0.19545925743 0.19485511133 0.19381266065 0.19219983619 
0.1898726933 0.18672281923 0.18270241131 0.17782738643 0.17216236486 0.16579687685 0.15882255862 0.15131686605 0.14333607026 
0.13491866987 0.12609693257 0.11691076333 0.10741748954 0.09769377919 0.087830210273 0.077923045147 0.068069413095 0.058369707747 
0.048935555788 0.039897477688 0.031406670877 0.0236289664 0.016732717169 0.010874496498 0.0061868410355 0.0027710643506 0.00069586463979 
4.1766997779e-17 
