# vtk DataFile Version 5.1
vtk output
ASCII
DATASET POLYDATA
POINTS 100 float
0.123957 0.0442169 0.660472 0.124115 0.0445177 0.660177 0.12464 0.0452898 0.65914 
0.125462 0.0464775 0.657381 0.126475 0.0479947 0.654932 0.127546 0.0497338 0.65183 
0.12853 0.0515761 0.648108 0.129287 0.0534042 0.643794 0.129689 0.0551122 0.638902 
0.129641 0.0566157 0.63343 0.129075 0.0578574 0.627363 0.127961 0.0588104 0.620674 
0.126296 0.0594771 0.613334 0.124102 0.0598847 0.605315 0.12141 0.0600786 0.596604 
0.118255 0.0601125 0.587208 0.114661 0.0600397 0.577161 0.110638 0.059904 0.566525 
0.106175 0.0597325 0.555389 0.101244 0.0595318 0.543865 0.0958068 0.0592872 0.532076 
0.0898208 0.058965 0.520145 0.0832531 0.0585184 0.508183 0.0760909 0.0578957 0.496277 
0.0683518 0.0570494 0.484479 0.0600893 0.0559458 0.4728 0.0513942 0.0545732 0.46121 
0.0423906 0.0529476 0.449638 0.0332262 0.0511156 0.437984 0.0240581 0.0491533 0.426129 
0.0150366 0.0471618 0.413947 0.00628807 0.045259 0.401322 -0.00210044 0.0435696 0.388158 
-0.0100919 0.0422133 0.37439 -0.0177046 0.0412936 0.359986 -0.0250103 0.0408867 0.344952 
-0.0321249 0.0410347 0.329321 -0.0391934 0.0417403 0.313146 -0.0463695 0.042967 0.29649 
-0.0537928 0.0446423 0.279411 -0.0615668 0.0466647 0.261949 -0.0697393 0.0489138 0.244121 
-0.078289 0.0512618 0.225911 -0.087119 0.0535859 0.207277 -0.0960591 0.0557792 0.188148 
-0.104876 0.0577603 0.168445 -0.113293 0.0594793 0.148082 -0.121011 0.0609211 0.126991 
-0.127734 0.0621039 0.105128 -0.1332 0.0630752 0.0824886 -0.137199 0.0639043 0.0591133 
-0.139593 0.0646728 0.035088 -0.140325 0.0654647 0.0105406 -0.139422 0.0663563 -0.0143694 
-0.136987 0.0674077 -0.0394643 -0.133185 0.0686563 -0.064564 -0.128227 0.0701129 -0.0895024 
-0.122341 0.0717615 -0.114142 -0.115757 0.0735614 -0.138382 -0.108682 0.0754517 -0.162166 
-0.101284 0.0773581 -0.18548 -0.0936853 0.0791998 -0.208347 -0.085956 0.0808972 -0.230813 
-0.0781189 0.0823782 -0.252938 -0.0701583 0.0835828 -0.274775 -0.0620328 0.0844664 -0.296362 
-0.0536905 0.0850003 -0.317706 -0.0450836 0.0851702 -0.338784 -0.0361818 0.0849734 -0.359534 
-0.0269812 0.0844146 -0.379867 -0.0175096 0.0835016 -0.399673 -0.00782624 0.0822414 -0.418836 
0.00198172 0.0806369 -0.437248 0.0118073 0.0786857 -0.454823 0.021533 0.0763803 -0.471505 
0.0310411 0.0737097 -0.487277 0.0402228 0.0706639 -0.502162 0.0489852 0.0672373 -0.516211 
0.0572562 0.0634347 -0.529503 0.0649852 0.059275 -0.542122 0.0721416 0.0547954 -0.554146 
0.0787111 0.0500526 -0.565632 0.0846909 0.0451235 -0.576603 0.0900843 0.0401019 -0.587042 
0.0948963 0.0350943 -0.596891 0.0991315 0.0302137 -0.606058 0.102793 0.0255717 -0.614427 
0.105884 0.0212708 -0.621876 0.108412 0.0173965 -0.628295 0.110392 0.0140112 -0.633603 
0.11185 0.0111498 -0.637767 0.112827 0.0088178 -0.640811 0.113383 0.00699185 -0.642819 
0.113592 0.00562374 -0.643932 0.113539 0.00464614 -0.644336 0.11332 0.00398049 -0.644248 
0.113027 0.0035459 -0.643889 0.112744 0.00326814 -0.643464 0.112538 0.00308793 -0.643137 
0.112453 0.00296749 -0.643016 
LINES 2 100
OFFSETS vtktypeint64
0 100 
CONNECTIVITY vtktypeint64
0 1 2 3 4 5 6 7 8 
9 10 11 12 13 14 15 16 17 
18 19 20 21 22 23 24 25 26 
27 28 29 30 31 32 33 34 35 
36 37 38 39 40 41 42 43 44 
45 46 47 48 49 50 51 52 53 
54 55 56 57 58 59 60 61 62 
63 64 65 66 67 68 69 70 71 
72 73 74 75 76 77 78 79 80 
81 82 83 84 85 86 87 88 89 
90 91 92 93 94 95 96 97 98 
99 
POINT_DATA 100
FIELD FieldData 3
_theta 1 100 double
0 0.031733259127 0.063466518254 0.095199777382 0.12693303651 0.15866629564 0.19039955476 0.22213281389 0.25386607302 
0.28559933214 0.31733259127 0.3490658504 0.38079910953 0.41253236865 0.44426562778 0.47599888691 0.50773214603 0.53946540516 
0.57119866429 0.60293192342 0.63466518254 0.66639844167 0.6981317008 0.72986495992 0.76159821905 0.79333147818 0.82506473731 
0.85679799643 0.88853125556 0.92026451469 0.95199777382 0.98373103294 1.0154642921 1.0471975512 1.0789308103 1.1106640695 
1.1423973286 1.1741305877 1.2058638468 1.237597106 1.2693303651 1.3010636242 1.3327968833 1.3645301425 1.3962634016 
1.4279966607 1.4597299198 1.491463179 1.5231964381 1.5549296972 1.5866629564 1.6183962155 1.6501294746 1.6818627337 
1.7135959929 1.745329252 1.7770625111 1.8087957702 1.8405290294 1.8722622885 1.9039955476 1.9357288068 1.9674620659 
1.999195325 2.0309285841 2.0626618433 2.0943951024 2.1261283615 2.1578616206 2.1895948798 2.2213281389 2.253061398 
2.2847946572 2.3165279163 2.3482611754 2.3799944345 2.4117276937 2.4434609528 2.4751942119 2.506927471 2.5386607302 
2.5703939893 2.6021272484 2.6338605076 2.6655937667 2.6973270258 2.7290602849 2.7607935441 2.7925268032 2.8242600623 
2.8559933214 2.8877265806 2.9194598397 2.9511930988 2.982926358 3.0146596171 3.0463928762 3.0781261353 3.1098593945 
3.1415926536 
_radius 1 100 double
1.0123177976e-15 0.014671683105 0.029289266851 0.043790454972 0.058107604228 0.072166293724 0.085885265207 0.099178318423 0.11195834861 
0.12414310768 0.13566175497 0.14646107565 0.15651041089 0.16580468654 0.17436521409 0.18223805467 0.18948977028 0.19620055151 
0.2024551565 0.20833274569 0.21389725896 0.21919012452 0.22422666697 0.22899672547 0.2334690153 0.2375979904 0.24133159763 
0.24461840976 0.24741308826 0.24967974916 0.25139333843 0.25253940181 0.25311266085 0.25311472128 0.25255120253 0.25142866346 
0.24975188722 0.24752229058 0.24473833562 0.24139872387 0.23750872522 0.23308917213 0.22818654842 0.22288157968 0.2172933062 
0.21157621571 0.20590971588 0.2004815895 0.19546914535 0.19102255496 0.18725405926 0.18423486887 0.18199918239 0.18055198605 
0.1798750646 0.17992597202 0.18062888926 0.18186274121 0.18345636954 0.1851989747 0.18686662054 0.18825734245 0.18922383121 
0.18969497877 0.18968264237 0.18927432648 0.1886148932 0.18788136246 0.18725503807 0.18689490051 0.1869155007 0.18737156208 
0.18825038883 0.18947225697 0.19089831661 0.19234498617 0.19360316149 0.19445980511 0.19471888593 0.19421853842 0.19284189511 
0.19052025941 0.18722882535 0.18297659378 0.17779309789 0.1717148297 0.1647738723 0.15699040048 0.1483697204 0.13890365679 
0.12857552059 0.11736760969 0.1052701102 0.092290255488 0.078460601574 0.063845310947 0.048543473194 0.032688785644 0.016445365664 
1.0740970656e-15 
_area 1 100 double
0 0.00051270472328 0.0020443658091 0.0045732214089 0.0080561702684 0.012422137854 0.017568418135 0.023362620941 0.0296508451 
0.036270499059 0.043064707173 0.049895025533 0.056650240252 0.0632507729 0.069649745705 0.075832177076 0.081812867293 0.08763218063 
0.093348647927 0.099028862142 0.1047374476 0.1105304918 0.11645301583 0.12253620599 0.12878778185 0.13517353553 0.14159829984 
0.14790026577 0.15386611381 0.15926270668 0.16387454463 0.16753591917 0.17014959008 0.17168946304 0.17219796941 0.17166472644 
0.17011224991 0.1675807429 0.16406843974 0.15958341414 0.15416775452 0.14792831034 0.1410599762 0.13385071332 0.12666364202 
0.11989646399 0.11391877941 0.10898375362 0.10512430308 0.10210966858 0.099551435463 0.097082279237 0.094566898168 0.091887726655 
0.089049697849 0.086311618434 0.084031636115 0.082206657722 0.08099356317 0.080483361227 0.080383691026 0.080242749137 0.079685577079 
0.078488770107 0.076591338949 0.074086675818 0.071202345068 0.068256372956 0.065579837299 0.063424224246 0.061943479706 0.061204034134 
0.061071134083 0.061409050725 0.062092340036 0.062992017405 0.06397979526 0.065050382229 0.066074508147 0.066955937037 0.067540619597 
0.067676627056 0.067267238246 0.06625334275 0.064583406845 0.062202891073 0.05906495035 0.055152164101 0.05049612851 0.045186390674 
0.039367551211 0.033228470831 0.026988813339 0.020886571382 0.015167387124 0.010074140497 0.0058348634626 0.0026485814756 0.00067064271936 
3.2526065175e-19 
