# vtk DataFile Version 5.1
vtk output
ASCII
DATASET POLYDATA
POINTS 100 float
0.10589 0.0630226 0.669133 0.106009 0.0630382 0.669064 0.10646 0.062969 0.66863 
0.10717 0.0628305 0.667783 0.108028 0.062646 0.66645 0.108891 0.0624424 0.664539 
0.109607 0.0622449 0.661952 0.110022 0.0620727 0.658595 0.110004 0.061934 0.654383 
0.109446 0.0618241 0.649259 0.108282 0.0617242 0.643191 0.106485 0.0616027 0.636179 
0.104071 0.061419 0.628259 0.101083 0.0611281 0.619495 0.0975916 0.0606865 0.609975 
0.0936758 0.0600586 0.599803 0.0894137 0.0592215 0.589093 0.0848707 0.0581693 0.577957 
0.0800916 0.0569144 0.566497 0.0750966 0.0554873 0.5548 0.0698809 0.0539339 0.542936 
0.064419 0.0523104 0.530952 0.0586723 0.0506775 0.518876 0.0525987 0.0490939 0.506715 
0.0461624 0.04761 0.494469 0.0393436 0.0462631 0.482122 0.0321451 0.0450742 0.46966 
0.0245959 0.0440475 0.457065 0.0167504 0.0431721 0.444322 0.00868462 0.0424251 0.431422 
0.000487949 0.041778 0.418354 -0.00774618 0.0412021 0.40511 -0.0159309 0.040675 0.391681 
-0.0239953 0.0401858 0.378049 -0.031892 0.039739 0.364188 -0.0396003 0.0393555 0.350061 
-0.0471262 0.0390719 0.335616 -0.0544978 0.0389373 0.32079 -0.0617562 0.0390078 0.30551 
-0.0689453 0.0393406 0.289697 -0.0760987 0.0399871 0.273271 -0.0832284 0.0409865 0.256156 
-0.0903152 0.0423608 0.238288 -0.0973022 0.0441122 0.21962 -0.104094 0.0462215 0.200126 
-0.110559 0.0486503 0.179806 -0.116539 0.051344 0.158683 -0.121861 0.0542372 0.136807 
-0.126353 0.057259 0.11425 -0.129857 0.0603396 0.0911025 -0.132247 0.0634151 0.0674698 
-0.13344 0.0664313 0.0434637 -0.133404 0.0693464 0.0191987 -0.132158 0.0721307 -0.00521399 
-0.129776 0.0747659 -0.0296709 -0.126373 0.077242 -0.05408 -0.122096 0.0795539 -0.0783624 
-0.117109 0.0816981 -0.102454 -0.111578 0.0836691 -0.126305 -0.105653 0.0854579 -0.149879 
-0.0994597 0.0870503 -0.173151 -0.0930866 0.0884278 -0.196105 -0.0865837 0.0895694 -0.21873 
-0.079962 0.0904538 -0.241019 -0.0731995 0.0910619 -0.262966 -0.0662502 0.0913801 -0.284563 
-0.0590567 0.0914012 -0.305797 -0.0515629 0.0911253 -0.326647 -0.0437268 0.090559 -0.347088 
-0.0355315 0.0897132 -0.367082 -0.0269923 0.0885998 -0.386587 -0.0181606 0.0872281 -0.405547 
-0.00912368 0.0856012 -0.423906 2.79464e-07 0.0837131 -0.441597 0.00906973 0.0815475 -0.458556 
0.0179301 0.079078 -0.47472 0.0264251 0.0762707 -0.490033 0.0344083 0.0730884 -0.504448 
0.041753 0.0694964 -0.517935 0.0483605 0.0654692 -0.530481 0.0541653 0.0609969 -0.542093 
0.0591371 0.0560911 -0.5528 0.0632806 0.0507886 -0.562651 0.0666314 0.045153 -0.57171 
0.0692512 0.0392732 -0.580057 0.0712205 0.0332597 -0.587776 0.0726317 0.0272371 -0.594952 
0.073582 0.0213364 -0.601663 0.0741671 0.0156855 -0.607973 0.074476 0.0103998 -0.613928 
0.0745874 0.00557437 -0.619546 0.0745677 0.00127845 -0.624823 0.0744703 -0.00244752 -0.62973 
0.0743359 -0.00559143 -0.634214 0.0741936 -0.00816606 -0.638206 0.0740634 -0.0102028 -0.641629 
0.0739573 -0.0117439 -0.644402 0.0738822 -0.0128335 -0.646452 0.0738411 -0.0135093 -0.647718 
0.0738349 -0.0137963 -0.648163 
LINES 2 100
OFFSETS vtktypeint64
0 100 
CONNECTIVITY vtktypeint64
0 1 2 3 4 5 6 7 8 
9 10 11 12 13 14 15 16 17 
18 19 20 21 22 23 24 25 26 
27 28 29 30 31 32 33 34 35 
36 37 38 39 40 41 42 43 44 
45 46 47 48 49 50 51 52 53 
54 55 56 57 58 59 60 61 62 
63 64 65 66 67 68 69 70 71 
72 73 74 75 76 77 78 79 80 
81 82 83 84 85 86 87 88 89 
90 91 92 93 94 95 96 97 98 
99 
POINT_DATA 100
FIELD FieldData 3
_theta 1 100 double
0 0.031733259127 0.063466518254 0.095199777382 0.12693303651 0.15866629564 0.19039955476 0.22213281389 0.25386607302 
0.28559933214 0.31733259127 0.3490658504 0.38079910953 0.41253236865 0.44426562778 0.47599888691 0.50773214603 0.53946540516 
0.57119866429 0.60293192342 0.63466518254 0.66639844167 0.6981317008 0.72986495992 0.76159821905 0.79333147818 0.82506473731 
0.85679799643 0.88853125556 0.92026451469 0.95199777382 0.98373103294 1.0154642921 1.0471975512 1.0789308103 1.1106640695 
1.1423973286 1.1741305877 1.2058638468 1.237597106 1.2693303651 1.3010636242 1.3327968833 1.3645301425 1.3962634016 
1.4279966607 1.4597299198 1.491463179 1.5231964381 1.5549296972 1.5866629564 1.6183962155 1.6501294746 1.6818627337 
1.7135959929 1.745329252 1.7770625111 1.8087957702 1.8405290294 1.8722622885 1.9039955476 1.9357288068 1.9674620659 
1.999195325 2.0309285841 2.0626618433 2.0943951024 2.1261283615 2.1578616206 2.1895948798 2.2213281389 2.253061398 
2.2847946572 2.3165279163 2.3482611754 2.3799944345 2.4117276937 2.4434609528 2.4751942119 2.506927471 2.5386607302 
2.5703939893 2.6021272484 2.6338605076 2.6655937667 2.6973270258 2.7290602849 2.7607935441 2.7925268032 2.8242600623 
2.8559933214 2.8877265806 2.9194598397 2.9511930988 2.982926358 3.0146596171 3.0463928762 3.0781261353 3.1098593945 
3.1415926536 
_radius 1 100 double
4.7833092874e-16 0.014327818427 0.028555497398 0.042577403931 0.05629380633 0.069613782257 0.082457807409 0.094760063762 0.10647045223 
0.11755614213 0.12800231719 0.13781168395 0.14700236353 0.15560401187 0.16365237868 0.17118295682 0.1782247914 0.18479576683 
0.19090061215 0.19653235808 0.20167710633 0.20632100888 0.2104576908 0.21409427123 0.21725463942 0.21997945079 0.22232305675 
0.22434803159 0.22611808648 0.2276901096 0.22910603882 0.23038539124 0.23151952372 0.23246888833 0.2331644049 0.23351346246 
0.233410158 0.23274855874 0.23143730184 0.22941373802 0.2266559458 0.22319116604 0.2190994788 0.21451186712 0.20960223426 
0.20457356502 0.19963939236 0.19500305025 0.19083834873 0.1872752879 0.18439285731 0.18221894369 0.18073601158 0.17989028444 
0.17960148603 0.17977071077 0.18028594704 0.18102682189 0.18187070151 0.18270109602 0.18341744916 0.18394419108 0.18423697159 
0.18428488375 0.18410851606 0.18375438563 0.18328663885 0.18277700439 0.18229403673 0.1818927892 0.18160611847 0.18143868267 
0.18136430916 0.18132686927 0.18124424148 0.18101452735 0.18052354924 0.17965280635 0.1782873193 0.17632297195 0.17367301344 
0.17027335202 0.16608618457 0.16110140464 0.15533522909 0.14882572853 0.1416254982 0.13379244418 0.12538030598 0.11643079597 
0.10696897664 0.097002840373 0.086527274644 0.075531896031 0.06401163058 0.051978318765 0.039471056557 0.026562723628 0.013360573029 
5.1339286028e-16 
_area 1 100 double
0 0.00055732912352 0.0022219979929 0.0049694679397 0.0087512262217 0.013486620246 0.019056928552 0.025304940773 0.032041832964 
0.039061159444 0.04615804614 0.053150554634 0.059899723795 0.066324851024 0.07241098698 0.078206259686 0.083807556847 0.089334790974 
0.094897489137 0.10056274822 0.10633662648 0.11216623425 0.11795908126 0.12360867201 0.12901582977 0.13410103682 0.13880874821 
0.14310656555 0.14698098596 0.15043046506 0.15345705456 0.15605772058 0.15821493632 0.15988686174 0.16099623062 0.16141662951 
0.16098493722 0.15955226772 0.15703683377 0.15347008769 0.14902713705 0.14396529194 0.13843564025 0.13247274968 0.12621536356 
0.11991675862 0.1138588817 0.10827967073 0.10332958793 0.099066955741 0.09547812025 0.09250033085 0.090062969082 0.088166250133 
0.086753481187 0.08587408261 0.085326563251 0.084956850859 0.08463430273 0.084206687862 0.0835160679 0.082432647665 0.080885194887 
0.07887443565 0.076469342651 0.073794281382 0.071013505417 0.068316141809 0.065903054028 0.063974007034 0.06270882075 0.062239135593 
0.062682715113 0.063749018727 0.065206820588 0.066848454882 0.068497813344 0.069999128178 0.071197410978 0.07192742067 0.072023950295 
0.071350343588 0.069817312965 0.067387154007 0.064085039863 0.059994846177 0.05524415906 0.049984537034 0.044375059138 0.03857291531 
0.032729573913 0.026989869306 0.021491809802 0.016366461088 0.01173853632 0.007727873439 0.0044500565353 0.0020131596089 0.00050889702532 
2.3645821142e-17 
