# vtk DataFile Version 5.1
vtk output
ASCII
DATASET POLYDATA
POINTS 100 float
0.146427 0.0522571 0.69425 0.146633 0.0524162 0.694246 0.147289 0.0527771 0.694136 
0.148289 0.0533309 0.693859 0.149474 0.0540635 0.693323 0.150648 0.0549552 0.692408 
0.151601 0.0559798 0.690984 0.152137 0.057105 0.688917 0.152093 0.058292 0.686083 
0.151356 0.0594969 0.682377 0.149876 0.0606719 0.677726 0.147664 0.061768 0.672088 
0.144785 0.0627374 0.665456 0.141346 0.0635371 0.657858 0.137476 0.0641315 0.649351 
0.133302 0.0644951 0.640013 0.128933 0.0646146 0.629937 0.12444 0.0644892 0.619218 
0.119846 0.0641306 0.607951 0.115126 0.0635612 0.596219 0.110207 0.0628119 0.58409 
0.104983 0.0619181 0.571616 0.0993313 0.0609166 0.558833 0.0931331 0.0598417 0.545764 
0.0862904 0.0587224 0.532423 0.0787437 0.0575803 0.518821 0.070482 0.0564284 0.50497 
0.0615462 0.0552723 0.490889 0.0520248 0.0541111 0.476605 0.0420429 0.0529408 0.462156 
0.0317451 0.0517575 0.447586 0.0212766 0.050561 0.432946 0.0107633 0.0493578 0.41828 
0.000295391 0.0481639 0.403629 -0.010084 0.0470058 0.389013 -0.020383 0.0459201 0.374433 
-0.0306564 0.0449516 0.359859 -0.040995 0.0441507 0.345235 -0.0515072 0.0435683 0.330471 
-0.0622975 0.0432518 0.315455 -0.0734441 0.0432403 0.300052 -0.0849783 0.0435597 0.28412 
-0.0968694 0.0442204 0.267516 -0.109016 0.0452156 0.25011 -0.121246 0.0465208 0.231795 
-0.133326 0.0480964 0.212499 -0.144978 0.0498907 0.192193 -0.155903 0.0518442 0.170893 
-0.165801 0.0538952 0.148661 -0.174405 0.0559847 0.125607 -0.181497 0.0580608 0.101875 
-0.18693 0.0600827 0.0776381 -0.190634 0.0620226 0.0530871 -0.192623 0.063866 0.0284148 
-0.192985 0.0656106 0.00380472 -0.191869 0.0672635 -0.0205812 -0.189473 0.0688378 -0.0446119 
-0.186017 0.0703477 -0.0681946 -0.181725 0.0718046 -0.0912777 -0.176811 0.0732131 -0.113851 
-0.171458 0.0745682 -0.135942 -0.165815 0.0758537 -0.157608 -0.15999 0.0770424 -0.178932 
-0.154055 0.0780973 -0.200004 -0.148046 0.0789747 -0.220921 -0.141976 0.0796277 -0.241765 
-0.135837 0.0800101 -0.262605 -0.129611 0.0800812 -0.283483 -0.123272 0.0798085 -0.304411 
-0.116789 0.0791714 -0.325371 -0.110127 0.0781619 -0.346313 -0.103241 0.0767854 -0.367162 
-0.0960812 0.0750593 -0.38782 -0.0885845 0.0730113 -0.408173 -0.0806818 0.0706758 -0.4281 
-0.0723007 0.0680912 -0.447479 -0.0633744 0.0652963 -0.466195 -0.0538537 0.0623273 -0.484143 
-0.0437205 0.0592155 -0.501238 -0.0330019 0.0559861 -0.517412 -0.0217818 0.0526577 -0.53262 
-0.0102085 0.0492431 -0.546838 0.00150432 0.0457508 -0.560059 0.0130841 0.0421872 -0.572296 
0.0242139 0.0385588 -0.583573 0.0345547 0.034875 -0.593924 0.0437728 0.0311505 -0.60339 
0.051571 0.0274068 -0.612012 0.0577189 0.0236734 -0.619834 0.0620796 0.0199882 -0.626892 
0.0646291 0.016397 -0.63322 0.0654648 0.0129522 -0.638846 0.0648032 0.00971105 -0.64379 
0.0629646 0.00673325 -0.648068 0.0603462 0.00407835 -0.651687 0.0573869 0.00180298 -0.654654 
0.0545258 -4.18146e-05 -0.656969 0.05216 -0.00141303 -0.658631 0.0506055 -0.00227783 -0.659638 
0.0500657 -0.00261515 -0.659988 
LINES 2 100
OFFSETS vtktypeint64
0 100 
CONNECTIVITY vtktypeint64
0 1 2 3 4 5 6 7 8 
9 10 11 12 13 14 15 16 17 
18 19 20 21 22 23 24 25 26 
27 28 29 30 31 32 33 34 35 
36 37 38 39 40 41 42 43 44 
45 46 47 48 49 50 51 52 53 
54 55 56 57 58 59 60 61 62 
63 64 65 66 67 68 69 70 71 
72 73 74 75 76 77 78 79 80 
81 82 83 84 85 86 87 88 89 
90 91 92 93 94 95 96 97 98 
99 
POINT_DATA 100
FIELD FieldData 3
_theta 1 100 double
0 0.031733259127 0.063466518254 0.095199777382 0.12693303651 0.15866629564 0.19039955476 0.22213281389 0.25386607302 
0.28559933214 0.31733259127 0.3490658504 0.38079910953 0.41253236865 0.44426562778 0.47599888691 0.50773214603 0.53946540516 
0.57119866429 0.60293192342 0.63466518254 0.66639844167 0.6981317008 0.72986495992 0.76159821905 0.79333147818 0.82506473731 
0.85679799643 0.88853125556 0.92026451469 0.95199777382 0.98373103294 1.0154642921 1.0471975512 1.0789308103 1.1106640695 
1.1423973286 1.1741305877 1.2058638468 1.237597106 1.2693303651 1.3010636242 1.3327968833 1.3645301425 1.3962634016 
1.4279966607 1.4597299198 1.491463179 1.5231964381 1.5549296972 1.5866629564 1.6183962155 1.6501294746 1.6818627337 
1.7135959929 1.745329252 1.7770625111 1.8087957702 1.8405290294 1.8722622885 1.9039955476 1.9357288068 1.9674620659 
1.999195325 2.0309285841 2.0626618433 2.0943951024 2.1261283615 2.1578616206 2.1895948798 2.2213281389 2.253061398 
2.2847946572 2.3165279163 2.3482611754 2.3799944345 2.4117276937 2.4434609528 2.4751942119 2.506927471 2.5386607302 
2.5703939893 2.6021272484 2.6338605076 2.6655937667 2.6973270258 2.7290602849 2.7607935441 2.7925268032 2.8242600623 
2.8559933214 2.8877265806 2.9194598397 2.9511930988 2.982926358 3.0146596171 3.0463928762 3.0781261353 3.1098593945 
3.1415926536 
_radius 1 100 double
1.6988248944e-15 0.014858830771 0.029492069562 0.043692233969 0.05728505926 0.070140222245 0.082176008978 0.093357649987 0.10369007928 
0.11320669595 0.12195618711 0.12998956899 0.13734936484 0.14406235013 0.15013663811 0.15556312763 0.16032057154 0.16438287972 
0.16772708956 0.17034122595 0.17223251351 0.17343605241 0.17402199682 0.17409823602 0.17380662697 0.17331267283 0.17279015373 
0.17240327455 0.17228926899 0.17254404904 0.17321256523 0.17428438869 0.17569406454 0.17732538675 0.17901921688 0.18058581289 
0.18182346431 0.18254312608 0.18259455969 0.18188774976 0.18040539327 0.1782051935 0.17541250941 0.17220473696 0.16878938981 
0.16537869389 0.16216461236 0.15929902344 0.15688336107 0.15496967188 0.15357108445 0.15267599101 0.15225921006 0.1522859166 
0.15270860129 0.15346101254 0.15445416471 0.15557800721 0.1567093053 0.15772333116 0.15850576907 0.15896213597 0.15902370814 
0.15865012552 0.15782939185 0.15657636961 0.15493112689 0.1529580794 0.15074552934 0.14840377811 0.14605969971 0.1438468828 
0.14189259216 0.14030465594 0.13916161005 0.13850760635 0.13835091724 0.13866327354 0.13937779057 0.14038538859 0.1415319416 
0.14261941509 0.14341341672 0.14365756218 0.14309309361 0.14148104318 0.13862383937 0.13438321052 0.12869150165 0.12155442804 
0.11304490783 0.10328942683 0.092449823167 0.080704088552 0.068229542771 0.055190675289 0.041732550627 0.027979430161 0.014037459225 
1.6038850726e-15 
_area 1 100 double
0 0.00040429525091 0.0016018021235 0.0035469188155 0.0061657623674 0.0093604328185 0.013016553815 0.0170141181 0.021239955665 
0.025598535589 0.03001729174 0.034443719628 0.038834357961 0.043140318203 0.047297426245 0.051226738759 0.054844466025 0.058074904119 
0.060860088116 0.063166536565 0.064974088236 0.06630304776 0.06723402204 0.067912240674 0.068653429606 0.069557910877 0.070261375352 
0.070860113995 0.071458061319 0.072195027302 0.073421101929 0.075327059661 0.077812866891 0.080864282162 0.084283063578 0.087668804031 
0.090598652736 0.092747876459 0.093820706326 0.093708751077 0.092484600604 0.090405886264 0.087871575142 0.085166585257 0.082429879936 
0.079830290286 0.077526988923 0.075607519043 0.074071857905 0.072850630423 0.071845962615 0.070976700232 0.070204727556 0.069531194946 
0.068967580835 0.068499480038 0.06806676961 0.067565948343 0.066869345626 0.065861546428 0.064493558989 0.06282526252 0.061022172387 
0.059156089172 0.057207439574 0.055241521842 0.053325062679 0.051497962907 0.049793595939 0.048251137566 0.046907348282 0.045782232242 
0.044872804066 0.044159273915 0.043619756983 0.043246207743 0.043053623254 0.043076812644 0.043353441153 0.043894712995 0.044650478747 
0.045484909456 0.046179938052 0.046470667162 0.046100979732 0.044880628532 0.04272744753 0.039684557171 0.035908889949 0.031632941795 
0.027101421883 0.022525248789 0.018070678872 0.013867603547 0.010025484188 0.0066506772483 0.0038553070477 0.001753008145 0.00044454358828 
3.5355193346e-17 
