# vtk DataFile Version 5.1
vtk output
ASCII
DATASET POLYDATA
POINTS 100 float
0.148279 0.0675841 0.640343 0.148161 0.0676086 0.640344 0.147915 0.0676031 0.640194 
0.147512 0.0675899 0.639876 0.146902 0.0676015 0.63936 0.146025 0.0676768 0.638608 
0.144816 0.0678547 0.637572 0.143212 0.0681687 0.636194 0.141163 0.0686412 0.634412 
0.138632 0.0692794 0.632154 0.135606 0.0700724 0.62935 0.132097 0.070991 0.62593 
0.128137 0.0719893 0.621827 0.123779 0.0730081 0.616985 0.119093 0.0739805 0.611361 
0.114154 0.0748377 0.604927 0.109038 0.0755161 0.597672 0.103815 0.0759633 0.589604 
0.0985361 0.076143 0.58075 0.0932352 0.0760386 0.57115 0.0879214 0.075654 0.56086 
0.0825804 0.075013 0.549939 0.0771761 0.074156 0.538454 0.0716555 0.0731351 0.526467 
0.0659554 0.0720081 0.514037 0.0600093 0.0708318 0.501213 0.0537555 0.0696557 0.488033 
0.0471434 0.0685167 0.474525 0.0401388 0.0674351 0.460707 0.0327263 0.0664129 0.446591 
0.0249095 0.0654341 0.432183 0.0167084 0.064467 0.417491 0.00815469 0.0634688 0.402524 
-0.000714275 0.0623911 0.387294 -0.00986248 0.0611867 0.371821 -0.0192613 0.0598158 0.356128 
-0.0288941 0.0582522 0.340237 -0.0387585 0.056488 0.324169 -0.0488656 0.0545366 0.307939 
-0.0592359 0.0524339 0.291544 -0.0698923 0.0502373 0.274969 -0.0808514 0.0480224 0.258174 
-0.0921128 0.0458791 0.2411 -0.103649 0.0439052 0.223667 -0.115399 0.0422006 0.205782 
-0.127258 0.0408602 0.187344 -0.139083 0.0399685 0.168252 -0.150691 0.0395941 0.148422 
-0.161871 0.0397859 0.127792 -0.172393 0.0405707 0.106338 -0.18203 0.0419523 0.0840746 
-0.190574 0.0439112 0.0610654 -0.197852 0.0464069 0.0374201 -0.203746 0.0493797 0.0132895 
-0.208206 0.0527537 -0.0111439 -0.211253 0.0564402 -0.0356792 -0.212983 0.0603407 -0.0601146 
-0.213559 0.0643501 -0.0842649 -0.213196 0.0683597 -0.107979 -0.212142 0.0722595 -0.131154 
-0.210658 0.0759406 -0.15375 -0.208987 0.0792975 -0.175789 -0.207334 0.08223 -0.197362 
-0.205844 0.0846453 -0.218614 -0.204587 0.0864605 -0.239732 -0.203548 0.0876042 -0.26093 
-0.20263 0.0880194 -0.28242 -0.201662 0.0876651 -0.304391 -0.200413 0.0865183 -0.326985 
-0.198614 0.0845757 -0.350279 -0.195986 0.081854 -0.374268 -0.192265 0.0783905 -0.398861 
-0.187225 0.0742415 -0.423881 -0.180703 0.0694813 -0.449076 -0.172609 0.0641988 -0.474134 
-0.162937 0.0584945 -0.498711 -0.151763 0.0524762 -0.522452 -0.139237 0.046255 -0.545027 
-0.125568 0.0399403 -0.566154 -0.111007 0.0336362 -0.585625 -0.0958254 0.0274373 -0.603318 
-0.0802929 0.0214265 -0.619211 -0.0646612 0.0156725 -0.633378 -0.0491496 0.0102286 -0.64598 
-0.0339365 0.00513346 -0.657244 -0.0191573 0.000411222 -0.667444 -0.00490806 -0.00392646 -0.676865 
0.00874631 -0.00787838 -0.685779 0.0217608 -0.0114513 -0.694414 0.0340972 -0.0146572 -0.70293 
0.0457126 -0.0175114 -0.711406 0.0565491 -0.0200298 -0.71983 0.0665284 -0.0222277 -0.7281 
0.0755503 -0.0241186 -0.736038 0.0834964 -0.0257133 -0.743407 0.0902375 -0.0270203 -0.749939 
0.0956442 -0.0280453 -0.755358 0.0995991 -0.0287921 -0.759415 0.102008 -0.029263 -0.761912 
0.102812 -0.029459 -0.762722 
LINES 2 100
OFFSETS vtktypeint64
0 100 
CONNECTIVITY vtktypeint64
0 1 2 3 4 5 6 7 8 
9 10 11 12 13 14 15 16 17 
18 19 20 21 22 23 24 25 26 
27 28 29 30 31 32 33 34 35 
36 37 38 39 40 41 42 43 44 
45 46 47 48 49 50 51 52 53 
54 55 56 57 58 59 60 61 62 
63 64 65 66 67 68 69 70 71 
72 73 74 75 76 77 78 79 80 
81 82 83 84 85 86 87 88 89 
90 91 92 93 94 95 96 97 98 
99 
POINT_DATA 100
FIELD FieldData 3
_theta 1 100 double
0 0.031733259127 0.063466518254 0.095199777382 0.12693303651 0.15866629564 0.19039955476 0.22213281389 0.25386607302 
0.28559933214 0.31733259127 0.3490658504 0.38079910953 0.41253236865 0.44426562778 0.47599888691 0.50773214603 0.53946540516 
0.57119866429 0.60293192342 0.63466518254 0.66639844167 0.6981317008 0.72986495992 0.76159821905 0.79333147818 0.82506473731 
0.85679799643 0.88853125556 0.92026451469 0.95199777382 0.98373103294 1.0154642921 1.0471975512 1.0789308103 1.1106640695 
1.1423973286 1.1741305877 1.2058638468 1.237597106 1.2693303651 1.3010636242 1.3327968833 1.3645301425 1.3962634016 
1.4279966607 1.4597299198 1.491463179 1.5231964381 1.5549296972 1.5866629564 1.6183962155 1.6501294746 1.6818627337 
1.7135959929 1.745329252 1.7770625111 1.8087957702 1.8405290294 1.8722622885 1.9039955476 1.9357288068 1.9674620659 
1.999195325 2.0309285841 2.0626618433 2.0943951024 2.1261283615 2.1578616206 2.1895948798 2.2213281389 2.253061398 
2.2847946572 2.3165279163 2.3482611754 2.3799944345 2.4117276937 2.4434609528 2.4751942119 2.506927471 2.5386607302 
2.5703939893 2.6021272484 2.6338605076 2.6655937667 2.6973270258 2.7290602849 2.7607935441 2.7925268032 2.8242600623 
2.8559933214 2.8877265806 2.9194598397 2.9511930988 2.982926358 3.0146596171 3.0463928762 3.0781261353 3.1098593945 
3.1415926536 
_radius 1 100 double
8.8219515445e-16 0.013440876217 0.026756714516 0.039833636244 0.052574855813 0.064904827534 0.076769253089 0.0881310872 0.09896374769 
0.10924359581 0.11894399043 0.12803258772 0.1364722495 0.14422456164 0.15125420221 0.15753250724 0.16303937196 0.16776367311 
0.17170324864 0.17486578805 0.17727163449 0.17895859032 0.17998765042 0.18044756973 0.18045572639 0.18015319522 0.17969337589 
0.17922555111 0.17887655872 0.17873458787 0.17883878243 0.1791770074 0.17969191192 0.1802929336 0.18087047355 0.18130894675 
0.18149716978 0.18133627959 0.18074618834 0.17967135372 0.17808579872 0.17599646167 0.17344362751 0.17049764151 0.16725222369 
0.16381603236 0.16030501079 0.15683784008 0.15353524231 0.15052139491 0.14792350482 0.14586502978 0.14445009516 0.1437411458 
0.14373663545 0.14435725813 0.1454463664 0.14678482261 0.14811595476 0.14917446502 0.14971396412 0.14952995848 0.14847719185 
0.14648152247 0.14354693775 0.13975800574 0.13527708336 0.13033399801 0.12520473803 0.12017912073 0.11552823443 0.11148521289 
0.10823565445 0.10590669334 0.1045565639 0.1041731651 0.10468404806 0.10597167831 0.10788486928 0.11024156416 0.11282560053 
0.1153850827 0.11763953722 0.11929820811 0.12008621295 0.11977197085 0.1181891636 0.11524847668 0.11093713967 0.10530705426 
0.09845474409 0.090498223207 0.081556701376 0.071738254231 0.061137993589 0.049845596855 0.037957816299 0.025590203385 0.012883168594 
2.6799074715e-16 
_area 1 100 double
0 0.00041395424339 0.0016401469365 0.0036347372077 0.0063343505783 0.0096676902464 0.013566346454 0.017970489987 0.022826135994 
0.028074003622 0.03363487812 0.039399482027 0.045229188407 0.050968420323 0.056463923384 0.061583130892 0.066224745236 0.07031920021 
0.073822736655 0.076712749582 0.078990777523 0.080693273024 0.081902993319 0.082749926593 0.083396313053 0.08401639151 0.084780341822 
0.085832764125 0.087260413055 0.089064460224 0.091157676787 0.093386882732 0.095564346543 0.097495488693 0.098998278315 0.099916966653 
0.10014298516 0.09964968746 0.098512424365 0.096871174903 0.094856509799 0.092554239538 0.090017684051 0.087283350039 0.084376397804 
0.081320396822 0.078155433866 0.074950797349 0.071803016153 0.068820997204 0.066103684722 0.063719251832 0.061701139972 0.060071911028 
0.058865384933 0.058078472154 0.057604290872 0.057274119717 0.056917443223 0.05638758806 0.055567732644 0.054375440983 0.05277515728 
0.050806610099 0.048652937367 0.046475404123 0.044241864667 0.042001971858 0.039866009674 0.037888147852 0.036076163458 0.03446717372 
0.033124238171 0.03210484177 0.031442105945 0.031139569869 0.031171942025 0.031489721348 0.03202707978 0.032709850591 0.033459323451 
0.034189480686 0.034799586857 0.035168418667 0.03515810853 0.034632385693 0.033485929506 0.031673484766 0.029225885086 0.026245968714 
0.022886128918 0.01931705099 0.015701173007 0.012181339392 0.0088852044255 0.0059362005606 0.0034598058236 0.0015791778364 0.0004013683109 
4.6404055161e-17 
