# vtk DataFile Version 5.1
vtk output
ASCII
DATASET POLYDATA
POINTS 100 float
0.186462 0.0614003 0.657808 0.186467 0.0616861 0.657641 0.186515 0.0624049 0.65701 
0.186534 0.063512 0.655933 0.186411 0.0649388 0.654434 0.186011 0.066599 0.65254 
0.185194 0.0683965 0.65027 0.183829 0.0702341 0.647632 0.181813 0.0720213 0.644614 
0.179085 0.0736816 0.641186 0.175625 0.0751571 0.637295 0.171462 0.0764108 0.632872 
0.166659 0.0774265 0.627841 0.16131 0.0782057 0.622124 0.155516 0.0787631 0.615654 
0.149377 0.0791201 0.608386 0.142973 0.0792983 0.600303 0.136353 0.0793133 0.591426 
0.129532 0.0791698 0.58181 0.122488 0.0788584 0.571545 0.115172 0.0783553 0.560751 
0.107517 0.0776243 0.549562 0.099452 0.0766206 0.538119 0.090922 0.0752973 0.526555 
0.0818979 0.0736125 0.514978 0.0723892 0.0715362 0.503471 0.0624485 0.0690572 0.492074 
0.0521702 0.066188 0.480789 0.0416823 0.0629673 0.469579 0.0311328 0.0594599 0.458376 
0.0206717 0.055754 0.447089 0.0104328 0.0519555 0.435616 0.000515276 0.0481808 0.423853 
-0.00902985 0.0445476 0.411708 -0.0182073 0.0411664 0.399107 -0.0270779 0.0381316 0.386001 
-0.035751 0.0355149 0.37236 -0.0443697 0.0333607 0.358179 -0.0530906 0.0316849 0.343467 
-0.0620607 0.0304756 0.328238 -0.0713937 0.0296977 0.312507 -0.0811501 0.0292993 0.296281 
-0.0913225 0.0292199 0.279551 -0.101829 0.0293986 0.262293 -0.112513 0.0297833 0.244469 
-0.123159 0.0303369 0.226028 -0.133505 0.0310425 0.206917 -0.143269 0.0319056 0.187088 
-0.152177 0.0329535 0.16651 -0.159986 0.0342312 0.145172 -0.166508 0.0357955 0.123098 
-0.171626 0.0377071 0.100341 -0.1753 0.0400218 0.0769904 -0.17757 0.0427813 0.0531614 
-0.178545 0.0460059 0.0289921 -0.178383 0.0496882 0.00463088 -0.177276 0.0537899 -0.0197736 
-0.175424 0.0582416 -0.0440836 -0.173008 0.0629449 -0.0681816 -0.17018 0.0677779 -0.0919768 
-0.16704 0.0726027 -0.115408 -0.163641 0.0772743 -0.138444 -0.159978 0.0816503 -0.161079 
-0.156007 0.0856 -0.183326 -0.151655 0.0890125 -0.205209 -0.146834 0.0918033 -0.226755 
-0.141465 0.0939178 -0.247988 -0.13549 0.0953328 -0.268918 -0.128885 0.0960557 -0.289544 
-0.121672 0.0961207 -0.309849 -0.113912 0.0955841 -0.329807 -0.105709 0.0945183 -0.349381 
-0.0971934 0.0930048 -0.368535 -0.088516 0.0911287 -0.387234 -0.0798285 0.0889732 -0.405451 
-0.0712722 0.0866153 -0.423169 -0.0629666 0.0841237 -0.440379 -0.0550018 0.0815574 -0.457078 
-0.0474355 0.0789666 -0.473263 -0.0402946 0.0763936 -0.488927 -0.033581 0.0738748 -0.504048 
-0.0272795 0.0714431 -0.518589 -0.0213677 0.0691292 -0.53249 -0.0158243 0.0669631 -0.545666 
-0.0106374 0.0649738 -0.558019 -0.00580769 0.0631891 -0.569434 -0.00135005 0.0616336 -0.579798 
0.00270948 0.0603268 -0.589009 0.00633902 0.0592804 -0.596988 0.00950812 0.0584965 -0.603691 
0.0121953 0.0579655 -0.60912 0.0143947 0.0576659 -0.613326 0.0161206 0.0575641 -0.616411 
0.0174083 0.057617 -0.61852 0.0183125 0.0577739 -0.619829 0.018902 0.0579812 -0.620533 
0.0192513 0.0581863 -0.620829 0.0194321 0.0583426 -0.620891 0.0195037 0.0584132 -0.620861 
0.0195057 0.058375 -0.620829 
LINES 2 100
OFFSETS vtktypeint64
0 100 
CONNECTIVITY vtktypeint64
0 1 2 3 4 5 6 7 8 
9 10 11 12 13 14 15 16 17 
18 19 20 21 22 23 24 25 26 
27 28 29 30 31 32 33 34 35 
36 37 38 39 40 41 42 43 44 
45 46 47 48 49 50 51 52 53 
54 55 56 57 58 59 60 61 62 
63 64 65 66 67 68 69 70 71 
72 73 74 75 76 77 78 79 80 
81 82 83 84 85 86 87 88 89 
90 91 92 93 94 95 96 97 98 
99 
POINT_DATA 100
FIELD FieldData 3
_theta 1 100 double
0 0.031733259127 0.063466518254 0.095199777382 0.12693303651 0.15866629564 0.19039955476 0.22213281389 0.25386607302 
0.28559933214 0.31733259127 0.3490658504 0.38079910953 0.41253236865 0.44426562778 0.47599888691 0.50773214603 0.53946540516 
0.57119866429 0.60293192342 0.63466518254 0.66639844167 0.6981317008 0.72986495992 0.76159821905 0.79333147818 0.82506473731 
0.85679799643 0.88853125556 0.92026451469 0.95199777382 0.98373103294 1.0154642921 1.0471975512 1.0789308103 1.1106640695 
1.1423973286 1.1741305877 1.2058638468 1.237597106 1.2693303651 1.3010636242 1.3327968833 1.3645301425 1.3962634016 
1.4279966607 1.4597299198 1.491463179 1.5231964381 1.5549296972 1.5866629564 1.6183962155 1.6501294746 1.6818627337 
1.7135959929 1.745329252 1.7770625111 1.8087957702 1.8405290294 1.8722622885 1.9039955476 1.9357288068 1.9674620659 
1.999195325 2.0309285841 2.0626618433 2.0943951024 2.1261283615 2.1578616206 2.1895948798 2.2213281389 2.253061398 
2.2847946572 2.3165279163 2.3482611754 2.3799944345 2.4117276937 2.4434609528 2.4751942119 2.506927471 2.5386607302 
2.5703939893 2.6021272484 2.6338605076 2.6655937667 2.6973270258 2.7290602849 2.7607935441 2.7925268032 2.8242600623 
2.8559933214 2.8877265806 2.9194598397 2.9511930988 2.982926358 3.0146596171 3.0463928762 3.0781261353 3.1098593945 
3.1415926536 
_radius 1 100 double
1.4476202446e-15 0.013877290538 0.027701504531 0.041416103403 0.054964157064 0.068287690967 0.081326659544 0.094017942039 0.1062948952 
0.11808792253 0.12932625342 0.1399407874 0.1498676202 0.15905184962 0.16745141919 0.17504088695 0.1818149059 0.18779091249 
0.19301032357 0.19753767552 0.20145755498 0.20486961467 0.2078822142 0.21060523489 0.21314250342 0.21558417194 0.21799941278 
0.22042987753 0.2228844884 0.22533624042 0.22772176808 0.2299443933 0.23188109009 0.23339318315 0.23433975899 0.23459205568 
0.23404687468 0.23263742146 0.23034069943 0.22718129541 0.22323184042 0.21861052967 0.21347591203 0.20801886418 0.20245143088 
0.19699221937 0.19184844823 0.18719571229 0.18315809318 0.17979311692 0.17708714792 0.17496539865 0.17331608619 0.17202233709 
0.17099181122 0.17017465112 0.1695644791 0.1691830713 0.16905566908 0.16918821654 0.16955640075 0.1701088822 0.17077946078 
0.17150069225 0.1722138288 0.1728732363 0.17344586198 0.17390783592 0.17424090543 0.17443085573 0.1744684871 0.17435203855 
0.17408918308 0.17369700316 0.17319914044 0.17262015568 0.17197790332 0.17127531878 0.17049322709 0.16958551039 0.16847740224 
0.16706710481 0.16523052268 0.16282867081 0.1597171475 0.15575687444 0.15082508583 0.14482537626 0.1376956055 0.12941267508 
0.11999362125 0.10949302515 0.097997303737 0.085616897287 0.072477626067 0.058712509551 0.044455138369 0.029835317221 0.014977239728 
7.4761105935e-16 
_area 1 100 double
0 0.00049407762613 0.0019627191941 0.0043662088705 0.0076418163968 0.01170870221 0.016474020709 0.02183920992 0.027705174192 
0.033975139763 0.040554488376 0.047347757765 0.054254015603 0.061162745352 0.067952989666 0.074498249116 0.080677827079 0.086392177123 
0.091577274121 0.096213266241 0.10032577546 0.1039819546 0.10728493039 0.11036800146 0.11338519708 0.11649266002 0.11982099622 
0.12344759108 0.1273783302 0.13154184423 0.1357968745 0.13995260141 0.14379541415 0.14710393313 0.14964812102 0.15122135727 
0.15174883792 0.15120745715 0.14950189571 0.14675052604 0.1428422025 0.13787729842 0.13203573513 0.12557290027 0.1188021698 
0.11206703853 0.10571171473 0.10005643329 0.095372026254 0.091831798262 0.089429811075 0.087932068085 0.086956892115 0.086137367857 
0.085226923976 0.084114298464 0.082797558191 0.081349268167 0.0798772068 0.078485051661 0.077255932976 0.076261174125 0.07557101868 
0.075228259618 0.075186778337 0.075304535024 0.075408640533 0.075341116633 0.074969950462 0.07419438798 0.072957939079 0.071266411106 
0.069200168174 0.066912676789 0.06461398482 0.06253946147 0.060908288016 0.059885697625 0.059545043286 0.059815268679 0.060460609112 
0.061159497692 0.061605076046 0.061539108366 0.060752606543 0.059088570109 0.056452089463 0.052823156471 0.048265733529 0.04292758891 
0.037028375124 0.030837238709 0.024644389139 0.018732514807 0.013353476884 0.0087137412342 0.0049693366873 0.0022286751204 0.00056002258231 
2.6485021397e-17 
