# vtk DataFile Version 5.1
vtk output
ASCII
DATASET POLYDATA
POINTS 100 float
0.149757 0.0742603 0.754354 0.149936 0.0743666 0.754119 0.1505 0.0745407 0.753246 
0.151369 0.0747716 0.751733 0.152416 0.0750424 0.749573 0.153484 0.0753322 0.746754 
0.154395 0.0756183 0.743263 0.154974 0.0758781 0.739078 0.155058 0.0760905 0.734172 
0.154515 0.0762375 0.728513 0.15325 0.0763039 0.722068 0.151215 0.0762775 0.714808 
0.148406 0.0761478 0.706709 0.144858 0.0759048 0.69776 0.140642 0.0755369 0.687971 
0.135845 0.0750306 0.677369 0.130567 0.0743691 0.666007 0.124899 0.0735327 0.65396 
0.11892 0.0725005 0.641321 0.112684 0.0712519 0.6282 0.106221 0.0697697 0.61471 
0.099535 0.0680439 0.600966 0.0926091 0.0660743 0.587071 0.0854151 0.0638735 0.573108 
0.0779222 0.0614689 0.55914 0.0701079 0.0589025 0.545198 0.0619672 0.0562301 0.531287 
0.0535198 0.0535181 0.517385 0.044813 0.0508392 0.503451 0.0359207 0.0482671 0.489428 
0.0269384 0.0458704 0.475252 0.017974 0.0437073 0.460862 0.00913656 0.041821 0.446202 
0.000523353 0.0402359 0.43123 -0.00779175 0.0389573 0.415916 -0.0157681 0.0379717 0.40024 
-0.0234039 0.0372503 0.384192 -0.0307373 0.0367544 0.36776 -0.037842 0.036441 0.350931 
-0.0448172 0.0362706 0.333679 -0.0517745 0.0362134 0.315961 -0.0588206 0.0362548 0.297719 
-0.0660398 0.0363993 0.278876 -0.073478 0.0366713 0.259344 -0.0811293 0.0371141 0.239031 
-0.0889279 0.0377855 0.217852 -0.0967465 0.0387518 0.195737 -0.104402 0.0400795 0.172645 
-0.111666 0.0418272 0.148575 -0.118285 0.0440369 0.123565 -0.124001 0.0467272 0.0977032 
-0.128574 0.0498879 0.0711157 -0.131805 0.0534784 0.0439656 -0.133558 0.0574276 0.0164383 
-0.133772 0.0616381 -0.0112721 -0.132468 0.0659928 -0.0389786 -0.12975 0.0703624 -0.0665163 
-0.125793 0.0746155 -0.0937548 -0.120826 0.0786279 -0.120607 -0.115113 0.0822907 -0.147033 
-0.108925 0.0855171 -0.173038 -0.102515 0.0882465 -0.198664 -0.0960935 0.0904455 -0.22398 
-0.0898094 0.0921059 -0.249066 -0.0837382 0.0932404 -0.273999 -0.0778782 0.0938756 -0.298835 
-0.0721547 0.0940446 -0.323598 -0.0664333 0.0937786 -0.34827 -0.060539 0.0930997 -0.372791 
-0.0542804 0.0920157 -0.397057 -0.0474748 0.0905161 -0.420929 -0.0399737 0.0885721 -0.444242 
-0.0316824 0.0861389 -0.466826 -0.0225758 0.0831607 -0.488512 -0.0127044 0.0795782 -0.509154 
-0.00219392 0.0753363 -0.528638 0.00876507 0.0703937 -0.546889 0.0199331 0.0647309 -0.56388 
0.0310433 0.0583571 -0.579624 0.0418259 0.0513143 -0.594173 0.0520316 0.0436795 -0.607609 
0.0614535 0.0355628 -0.620028 0.0699426 0.0271033 -0.631535 0.0774179 0.0184623 -0.642227 
0.0838681 0.0098135 -0.652185 0.0893466 0.00133369 -0.66147 0.0939592 -0.0068084 -0.670121 
0.0978473 -0.0144617 -0.678151 0.101169 -0.0215012 -0.685558 0.104078 -0.027834 -0.692325 
0.106707 -0.0334028 -0.698431 0.109156 -0.038186 -0.703856 0.111477 -0.0421958 -0.708589 
0.113681 -0.0454722 -0.712625 0.115738 -0.0480764 -0.715975 0.117584 -0.0500817 -0.718658 
0.119139 -0.0515645 -0.720699 0.12032 -0.0525947 -0.722127 0.121056 -0.0532281 -0.722965 
0.121296 -0.0535002 -0.723231 
LINES 2 100
OFFSETS vtktypeint64
0 100 
CONNECTIVITY vtktypeint64
0 1 2 3 4 5 6 7 8 
9 10 11 12 13 14 15 16 17 
18 19 20 21 22 23 24 25 26 
27 28 29 30 31 32 33 34 35 
36 37 38 39 40 41 42 43 44 
45 46 47 48 49 50 51 52 53 
54 55 56 57 58 59 60 61 62 
63 64 65 66 67 68 69 70 71 
72 73 74 75 76 77 78 79 80 
81 82 83 84 85 86 87 88 89 
90 91 92 93 94 95 96 97 98 
99 
POINT_DATA 100
FIELD FieldData 3
_theta 1 100 double
0 0.031733259127 0.063466518254 0.095199777382 0.12693303651 0.15866629564 0.19039955476 0.22213281389 0.25386607302 
0.28559933214 0.31733259127 0.3490658504 0.38079910953 0.41253236865 0.44426562778 0.47599888691 0.50773214603 0.53946540516 
0.57119866429 0.60293192342 0.63466518254 0.66639844167 0.6981317008 0.72986495992 0.76159821905 0.79333147818 0.82506473731 
0.85679799643 0.88853125556 0.92026451469 0.95199777382 0.98373103294 1.0154642921 1.0471975512 1.0789308103 1.1106640695 
1.1423973286 1.1741305877 1.2058638468 1.237597106 1.2693303651 1.3010636242 1.3327968833 1.3645301425 1.3962634016 
1.4279966607 1.4597299198 1.491463179 1.5231964381 1.5549296972 1.5866629564 1.6183962155 1.6501294746 1.6818627337 
1.7135959929 1.745329252 1.7770625111 1.8087957702 1.8405290294 1.8722622885 1.9039955476 1.9357288068 1.9674620659 
1.999195325 2.0309285841 2.0626618433 2.0943951024 2.1261283615 2.1578616206 2.1895948798 2.2213281389 2.253061398 
2.2847946572 2.3165279163 2.3482611754 2.3799944345 2.4117276937 2.4434609528 2.4751942119 2.506927471 2.5386607302 
2.5703939893 2.6021272484 2.6338605076 2.6655937667 2.6973270258 2.7290602849 2.7607935441 2.7925268032 2.8242600623 
2.8559933214 2.8877265806 2.9194598397 2.9511930988 2.982926358 3.0146596171 3.0463928762 3.0781261353 3.1098593945 
3.1415926536 
_radius 1 100 double
7.7168487014e-16 0.014217187002 0.028393793938 0.042477118743 0.056405833132 0.07010759315 0.08349857494 0.096485435916 0.10896971616 
0.12085408543 0.13204938468 0.14248131331 0.15209587899 0.16086315792 0.16877923479 0.17586625164 0.18217038571 0.18775755159 
0.19270687759 0.19710250411 0.2010247629 0.20454207524 0.2077048596 0.21054244309 0.21306356154 0.21526056586 0.2171168731 
0.21861648964 0.21975375335 0.22054108582 0.22101271055 0.22122297103 0.22123897772 0.22112878021 0.22094787316 0.22072774679 
0.22046925012 0.22014107402 0.21968197321 0.21900592949 0.21801084253 0.2165911931 0.21465360489 0.21213305368 0.20900712559 
0.20530581371 0.20111482609 0.19657153341 0.19185440337 0.18716821019 0.18272750336 0.17873983105 0.17538919423 0.17282006111 
0.17112281874 0.1703220835 0.17036938573 0.17114152343 0.17244597513 0.17403528819 0.17563177122 0.17696061779 0.17778547201 
0.17793886536 0.17734185199 0.17601069837 0.17405159265 0.17164587389 0.16902817483 0.16645939386 0.16419676312 0.1624641422 
0.16142626094 0.16117058594 0.16169926789 0.16293113231 0.16471140096 0.16682645303 0.16902196992 0.17102349943 0.1725580401 
0.1733742867 0.17325873567 0.17204549037 0.16961910127 0.16591139334 0.16089431374 0.15457115427 0.14696822755 0.13812846718 
0.12810765458 0.11697316592 0.10480444732 0.091694065083 0.077748250227 0.063086289972 0.04783870067 0.032144601548 0.016148924816 
3.2522886998e-16 
_area 1 100 double
0 0.00054120351205 0.0021469442947 0.004766094048 0.0083206154487 0.01271315908 0.017833295244 0.023561209571 0.029769616238 
0.03632588092 0.043096155454 0.04995178282 0.056776283838 0.063470319244 0.069953112898 0.076161266507 0.082047382236 0.087580054295 
0.092745105336 0.097547197667 0.10201083767 0.10617973083 0.11011359011 0.11388144117 0.11754981155 0.12116481251 0.12473088454 
0.12819449956 0.13144989859 0.13441489108 0.13729976231 0.14034198375 0.1432439416 0.14573427885 0.14782127722 0.14932474316 
0.15008992176 0.15004128636 0.14911498226 0.14725287919 0.1444085692 0.14060031099 0.13586911105 0.13043051308 0.12448719216 
0.11842817738 0.11263214674 0.10764923298 0.10286427867 0.098092280171 0.093460804216 0.089098834549 0.08511776255 0.081617200672 
0.078718255933 0.076707042335 0.075931267046 0.075862553141 0.07616689344 0.07648600798 0.076470781197 0.07585342457 0.074521206407 
0.072537119126 0.070130467955 0.067829523394 0.066062026455 0.06423996933 0.06229323683 0.060381689078 0.058749473365 0.057680849879 
0.057420201558 0.057967766285 0.059109853476 0.060645097217 0.062397386977 0.064190781787 0.065860632407 0.06726148021 0.068264968152 
0.068756779961 0.068636283296 0.06781799254 0.06623369805 0.063835819993 0.060602876466 0.056546831664 0.051720961684 0.046225926402 
0.04021151223 0.033872668992 0.027440190672 0.021167445896 0.015314756814 0.010132963129 0.0058477866491 0.0026466146969 0.00066884709445 
3.5937385443e-17 
