# vtk DataFile Version 5.1
vtk output
ASCII
DATASET POLYDATA
POINTS 100 float
0.15097 0.0532027 0.693094 0.15103 0.0534838 0.692969 0.151277 0.0541386 0.692415 
0.151656 0.0551165 0.69142 0.15208 0.0563414 0.689963 0.15244 0.0577194 0.688013 
0.15262 0.0591489 0.685527 0.152511 0.0605309 0.682457 0.152018 0.0617784 0.678745 
0.15107 0.0628245 0.674328 0.149629 0.0636267 0.669144 0.147684 0.0641693 0.663139 
0.14525 0.0644614 0.656271 0.142359 0.0645327 0.648517 0.139052 0.0644261 0.639883 
0.135364 0.06419 0.630401 0.131319 0.0638698 0.620137 0.126921 0.063501 0.609184 
0.12215 0.0631033 0.597661 0.116967 0.0626785 0.585702 0.111315 0.062211 0.573447 
0.105135 0.0616708 0.561028 0.0983705 0.0610196 0.548563 0.0909845 0.0602182 0.536139 
0.0829683 0.0592347 0.523807 0.0743495 0.0580518 0.51158 0.065195 0.0566726 0.499431 
0.0556088 0.0551245 0.487295 0.045725 0.0534588 0.475082 0.0356961 0.0517487 0.462685 
0.0256784 0.0500828 0.449993 0.0158162 0.0485573 0.436904 0.00622748 0.0472668 0.423333 
-0.00300851 0.046294 0.409224 -0.0118576 0.0457019 0.394549 -0.0203323 0.0455261 0.379312 
-0.0284862 0.0457718 0.363543 -0.0364037 0.0464129 0.347285 -0.0441847 0.0473952 0.330591 
-0.0519265 0.0486424 0.313504 -0.0597056 0.0500646 0.296054 -0.0675618 0.0515684 0.278241 
-0.075486 0.0530672 0.26004 -0.0834137 0.0544903 0.241391 -0.0912259 0.0557905 0.22221 
-0.0987561 0.0569486 0.202396 -0.105804 0.0579746 0.181842 -0.112151 0.0589055 0.160452 
-0.117586 0.0598002 0.138151 -0.12192 0.060731 0.114904 -0.125006 0.0617749 0.0907174 
-0.126753 0.0630033 0.0656516 -0.127135 0.0644726 0.0398158 -0.126189 0.0662166 0.013364 
-0.124012 0.0682411 -0.0135155 -0.120746 0.0705214 -0.0406142 -0.116567 0.0730033 -0.067719 
-0.111663 0.0756066 -0.0946285 -0.106221 0.0782314 -0.121167 -0.100402 0.0807656 -0.147198 
-0.0943409 0.083094 -0.172625 -0.0881282 0.0851067 -0.197401 -0.0818155 0.0867068 -0.221521 
-0.075416 0.0878161 -0.245013 -0.0689132 0.0883795 -0.267932 -0.0622716 0.0883656 -0.290343 
-0.0554492 0.0877668 -0.312311 -0.048409 0.0865959 -0.333888 -0.0411291 0.0848821 -0.355105 
-0.0336096 0.0826662 -0.375968 -0.025875 0.0799952 -0.396454 -0.0179742 0.076918 -0.416514 
-0.00997543 0.0734818 -0.436084 -0.00196006 0.0697299 -0.455083 0.00598566 0.0657011 -0.47343 
0.0137785 0.0614304 -0.491049 0.0213449 0.0569509 -0.507875 0.0286258 0.0522964 -0.523862 
0.0355787 0.0475041 -0.538981 0.0421766 0.0426173 -0.553223 0.0484059 0.0376869 -0.566591 
0.0542608 0.0327723 -0.579102 0.0597395 0.0279402 -0.590777 0.0648383 0.0232632 -0.601638 
0.0695494 0.0188154 -0.611703 0.0738585 0.0146693 -0.620982 0.0777462 0.0108901 -0.629483 
0.0811908 0.00753137 -0.637204 0.0841726 0.00463069 -0.644144 0.086679 0.00220653 -0.650305 
0.08871 0.000256413 -0.655695 0.0902819 -0.00124315 -0.660328 0.0914288 -0.00233499 -0.664235 
0.0922028 -0.00307786 -0.667456 0.0926705 -0.00354156 -0.67004 0.0929075 -0.00380105 -0.672046 
0.0929909 -0.00392991 -0.673529 0.0929921 -0.00399396 -0.674544 0.0929681 -0.00404533 -0.675133 
0.0929556 -0.00411779 -0.675323 
LINES 2 100
OFFSETS vtktypeint64
0 100 
CONNECTIVITY vtktypeint64
0 1 2 3 4 5 6 7 8 
9 10 11 12 13 14 15 16 17 
18 19 20 21 22 23 24 25 26 
27 28 29 30 31 32 33 34 35 
36 37 38 39 40 41 42 43 44 
45 46 47 48 49 50 51 52 53 
54 55 56 57 58 59 60 61 62 
63 64 65 66 67 68 69 70 71 
72 73 74 75 76 77 78 79 80 
81 82 83 84 85 86 87 88 89 
90 91 92 93 94 95 96 97 98 
99 
POINT_DATA 100
FIELD FieldData 3
_theta 1 100 double
0 0.031733259127 0.063466518254 0.095199777382 0.12693303651 0.15866629564 0.19039955476 0.22213281389 0.25386607302 
0.28559933214 0.31733259127 0.3490658504 0.38079910953 0.41253236865 0.44426562778 0.47599888691 0.50773214603 0.53946540516 
0.57119866429 0.60293192342 0.63466518254 0.66639844167 0.6981317008 0.72986495992 0.76159821905 0.79333147818 0.82506473731 
0.85679799643 0.88853125556 0.92026451469 0.95199777382 0.98373103294 1.0154642921 1.0471975512 1.0789308103 1.1106640695 
1.1423973286 1.1741305877 1.2058638468 1.237597106 1.2693303651 1.3010636242 1.3327968833 1.3645301425 1.3962634016 
1.4279966607 1.4597299198 1.491463179 1.5231964381 1.5549296972 1.5866629564 1.6183962155 1.6501294746 1.6818627337 
1.7135959929 1.745329252 1.7770625111 1.8087957702 1.8405290294 1.8722622885 1.9039955476 1.9357288068 1.9674620659 
1.999195325 2.0309285841 2.0626618433 2.0943951024 2.1261283615 2.1578616206 2.1895948798 2.2213281389 2.253061398 
2.2847946572 2.3165279163 2.3482611754 2.3799944345 2.4117276937 2.4434609528 2.4751942119 2.506927471 2.5386607302 
2.5703939893 2.6021272484 2.6338605076 2.6655937667 2.6973270258 2.7290602849 2.7607935441 2.7925268032 2.8242600623 
2.8559933214 2.8877265806 2.9194598397 2.9511930988 2.982926358 3.0146596171 3.0463928762 3.0781261353 3.1098593945 
3.1415926536 
_radius 1 100 double
8.1987663635e-16 0.015824677799 0.031468381911 0.046757111767 0.061542101329 0.075707950419 0.089176186496 0.10190442841 0.11388211498 
0.12512414586 0.13566369834 0.14554507001 0.15481693491 0.16352616476 0.1717124646 0.17940437001 0.18661735606 0.19335465943 
0.19961088779 0.20537781698 0.2106512678 0.21543776969 0.21975980718 0.22365866735 0.22719416899 0.2304408409 0.23348045982 
0.23639131641 0.23923521029 0.24204395959 0.24480792484 0.24746927233 0.24992209973 0.25202019671 0.25359162574 0.25445804705 
0.25445605252 0.25345767517 0.25138752781 0.24823454734 0.24405700992 0.23898031716 0.23318798861 0.22690718378 0.22039067388 
0.2138972775 0.2076724086 0.20192998557 0.19683708315 0.19250342402 0.1889781948 0.1862555227 0.18428725975 0.18299908606 
0.18230510135 0.18211741123 0.18234983166 0.18291749002 0.18373570723 0.18472115749 0.18579580308 0.18689129852 0.18795100278 
0.18892879535 0.18978642603 0.19049206156 0.19102166914 0.19136288306 0.19151930531 0.19151260485 0.19138043715 0.19116971849 
0.19092651981 0.19068512923 0.19045915468 0.19023671368 0.18998008371 0.18962841592 0.18910112388 0.18829987835 0.18710865139 
0.18539324151 0.18300313483 0.17977844677 0.1755628001 0.17022029662 0.16365282351 0.15581369053 0.14671471693 0.13642555892 
0.1250656737 0.11279057792 0.09977486958 0.086194785353 0.072212851797 0.057966546153 0.043562006796 0.029072966239 0.014544405205 
7.7340701289e-16 
_area 1 100 double
0 0.00065145815494 0.0025790435513 0.0057048325363 0.009906678431 0.015028476863 0.020892329879 0.027311280884 0.034101798502 
0.041095662597 0.048150798558 0.055159795293 0.062054026633 0.068801558348 0.075398830267 0.081858665183 0.088198801603 0.094434545082 
0.10057639877 0.10663033132 0.11259725775 0.11847136004 0.12424130137 0.12989688024 0.13543756053 0.14087797832 0.14624779219 
0.15158378993 0.15691350678 0.1622337263 0.16749121835 0.17257370243 0.1773148711 0.18150919412 0.1849258892 0.18731823788 
0.18844113537 0.18808513007 0.18611364178 0.18248879732 0.17728214859 0.1706718093 0.16292902355 0.15439720004 0.14546515366 
0.13653543393 0.12798951476 0.1201534187 0.11326874616 0.10748421917 0.10312803953 0.099782302218 0.097048013312 0.09471956703 
0.092676557842 0.090867296849 0.089276522811 0.087897815296 0.086728329206 0.085784603854 0.085128933434 0.084899327351 0.085303508595 
0.086161349759 0.087067141228 0.087751373798 0.088042349663 0.087834197184 0.087087809489 0.085842843666 0.084223463805 0.082427507457 
0.080700920679 0.079306035809 0.078488477274 0.078408237534 0.079003406158 0.080036870926 0.081255885853 0.082435001066 0.083362920584 
0.083822732322 0.083582903383 0.082409764299 0.080099913875 0.076520140388 0.07164083533 0.065553225892 0.058466238633 0.050683960136 
0.042568985966 0.034499599106 0.026829120311 0.019854135192 0.01379550587 0.0087932244372 0.004914033163 0.0021693381735 0.00053963944879 
5.7700041889e-17 
