# vtk DataFile Version 5.1
vtk output
ASCII
DATASET POLYDATA
POINTS 100 float
-0.134616 -0.0143958 0.786944 -0.134531 -0.0146073 0.78693 -0.134302 -0.015068 0.786892 
-0.133892 -0.015726 0.786726 -0.133244 -0.0164993 0.786274 -0.132284 -0.0172819 0.785337 
-0.130934 -0.0179521 0.783702 -0.129116 -0.0183819 0.781162 -0.126759 -0.0184466 0.777543 
-0.123808 -0.018034 0.772714 -0.120223 -0.0170525 0.766609 -0.115985 -0.0154378 0.759223 
-0.111091 -0.0131567 0.750613 -0.105553 -0.0102088 0.740888 -0.0993936 -0.00662561 0.730192 
-0.0926425 -0.00246777 0.718683 -0.0853301 0.00218054 0.706515 -0.0774864 0.00721783 0.693816 
-0.0691396 0.0125326 0.680673 -0.0603166 0.0180104 0.667125 -0.0510451 0.0235412 0.653155 
-0.0413574 0.029024 0.638698 -0.0312941 0.0343718 0.623647 -0.0209069 0.0395135 0.607871 
-0.0102612 0.0443943 0.591231 0.000564175 0.0489747 0.573596 0.0114792 0.0532284 0.554863 
0.022387 0.0571383 0.534966 0.0331903 0.0606933 0.513886 0.0437984 0.0638845 0.491653 
0.0541348 0.0667024 0.46834 0.0641427 0.0691348 0.444057 0.0737893 0.071166 0.418936 
0.0830662 0.0727774 0.393122 0.0919867 0.0739489 0.366754 0.100579 0.0746616 0.339956 
0.108879 0.0749008 0.31283 0.116914 0.074659 0.285451 0.124698 0.073939 0.257864 
0.132217 0.0727558 0.230095 0.139419 0.0711376 0.202156 0.146214 0.069126 0.174051 
0.152475 0.066774 0.145795 0.15804 0.0641441 0.117415 0.162725 0.0613046 0.0889598 
0.166339 0.0583256 0.0605018 0.168702 0.0552753 0.0321376 0.169661 0.0522164 0.00398167 
0.169107 0.0492029 -0.0238408 0.166986 0.0462785 -0.0512038 0.163313 0.0434759 -0.0779911 
0.158165 0.0408169 -0.104106 0.151685 0.0383147 -0.129478 0.144065 0.0359753 -0.15407 
0.135537 0.0338013 -0.177878 0.12635 0.0317941 -0.200927 0.116752 0.029957 -0.223268 
0.106973 0.0282968 -0.244972 0.0972056 0.026825 -0.266114 0.0875995 0.0255583 -0.286771 
0.0782519 0.0245167 -0.307009 0.06921 0.0237227 -0.326881 0.0604765 0.0231983 -0.346418 
0.0520204 0.0229624 -0.365633 0.0437903 0.0230284 -0.384523 0.0357288 0.0234014 -0.40307 
0.0277866 0.0240775 -0.421249 0.0199325 0.0250425 -0.439034 0.0121616 0.0262726 -0.456403 
0.00449704 0.0277356 -0.473342 -0.00301164 0.0293925 -0.489845 -0.0102949 0.0312004 -0.505918 
-0.0172724 0.0331151 -0.521572 -0.0238637 0.035093 -0.536824 -0.029999 0.0370938 -0.551685 
-0.0356281 0.0390817 -0.56616 -0.0407272 0.0410257 -0.580241 -0.0453009 0.0429 -0.593904 
-0.0493816 0.0446829 -0.607106 -0.0530242 0.0463559 -0.619789 -0.0562989 0.0479024 -0.631881 
-0.0592816 0.0493061 -0.643298 -0.0620448 0.0505508 -0.653956 -0.0646488 0.0516201 -0.663778 
-0.0671355 0.0524976 -0.672693 -0.0695256 0.0531685 -0.680654 -0.0718182 0.0536212 -0.687633 
-0.0739941 0.0538495 -0.693629 -0.0760217 0.0538547 -0.69867 -0.077864 0.0536475 -0.702806 
-0.0794865 0.0532492 -0.706112 -0.0808634 0.052692 -0.708678 -0.081983 0.0520182 -0.710607 
-0.0828497 0.0512783 -0.712009 -0.0834837 0.0505283 -0.71299 -0.0839176 0.0498258 -0.713652 
-0.0841915 0.049226 -0.714084 -0.0843461 0.0487773 -0.714361 -0.0844162 0.0485173 -0.714535 
-0.0844252 0.0484702 -0.71464 
LINES 2 100
OFFSETS vtktypeint64
0 100 
CONNECTIVITY vtktypeint64
0 1 2 3 4 5 6 7 8 
9 10 11 12 13 14 15 16 17 
18 19 20 21 22 23 24 25 26 
27 28 29 30 31 32 33 34 35 
36 37 38 39 40 41 42 43 44 
45 46 47 48 49 50 51 52 53 
54 55 56 57 58 59 60 61 62 
63 64 65 66 67 68 69 70 71 
72 73 74 75 76 77 78 79 80 
81 82 83 84 85 86 87 88 89 
90 91 92 93 94 95 96 97 98 
99 
POINT_DATA 100
FIELD FieldData 3
_theta 1 100 double
0 0.031733259127 0.063466518254 0.095199777382 0.12693303651 0.15866629564 0.19039955476 0.22213281389 0.25386607302 
0.28559933214 0.31733259127 0.3490658504 0.38079910953 0.41253236865 0.44426562778 0.47599888691 0.50773214603 0.53946540516 
0.57119866429 0.60293192342 0.63466518254 0.66639844167 0.6981317008 0.72986495992 0.76159821905 0.79333147818 0.82506473731 
0.85679799643 0.88853125556 0.92026451469 0.95199777382 0.98373103294 1.0154642921 1.0471975512 1.0789308103 1.1106640695 
1.1423973286 1.1741305877 1.2058638468 1.237597106 1.2693303651 1.3010636242 1.3327968833 1.3645301425 1.3962634016 
1.4279966607 1.4597299198 1.491463179 1.5231964381 1.5549296972 1.5866629564 1.6183962155 1.6501294746 1.6818627337 
1.7135959929 1.745329252 1.7770625111 1.8087957702 1.8405290294 1.8722622885 1.9039955476 1.9357288068 1.9674620659 
1.999195325 2.0309285841 2.0626618433 2.0943951024 2.1261283615 2.1578616206 2.1895948798 2.2213281389 2.253061398 
2.2847946572 2.3165279163 2.3482611754 2.3799944345 2.4117276937 2.4434609528 2.4751942119 2.506927471 2.5386607302 
2.5703939893 2.6021272484 2.6338605076 2.6655937667 2.6973270258 2.7290602849 2.7607935441 2.7925268032 2.8242600623 
2.8559933214 2.8877265806 2.9194598397 2.9511930988 2.982926358 3.0146596171 3.0463928762 3.0781261353 3.1098593945 
3.1415926536 
_radius 1 100 double
1.367160213e-15 0.016930906861 0.033709344875 0.050187693462 0.066225052023 0.081689858951 0.096462281518 0.11043660714 0.12352364345 
0.13565282903 0.14677357867 0.15685543045 0.16588678933 0.1738723687 0.1808297123 0.18678535837 0.1917712622 0.19582204532 
0.19897353117 0.20126287903 0.20273041686 0.20342297084 0.20339812113 0.20272848184 0.20150491494 0.19983758412 0.19785391163 
0.19569283321 0.19349535608 0.19139239977 0.18949206722 0.18786930396 0.18656069265 0.18556571141 0.18485381378 0.18437524176 
0.18407314891 0.18389505946 0.18380216423 0.18377510342 0.18381516872 0.18394111488 0.18418402134 0.18458423315 0.18519323092 
0.18607943493 0.18733315881 0.18906482716 0.19139270619 0.19442073412 0.19821181171 0.2027647906 0.20800244532 0.21377336554 
0.21986594585 0.22603022291 0.23200336321 0.23753556126 0.24241380755 0.24648137597 0.24965132292 0.25191291118 0.25333053622 
0.25403530735 0.25420990621 0.2540677835 0.25382825 0.25368961993 0.25380324417 0.25425186924 0.25503595284 0.2560709042 
0.25719638331 0.25819610481 0.2588241511 0.25883277462 0.25799734085 0.25613572578 0.25312115292 0.24888852166 0.24343465992 
0.23681292896 0.22912261373 0.22049381475 0.21106914517 0.20098426027 0.1903498355 0.17923778999 0.1676741355 0.15563980139 
0.14307935087 0.12991603696 0.11607053958 0.10148023024 0.086115968791 0.069994111708 0.053182367542 0.035799130492 0.018006773642 
1.9380594983e-15 
_area 1 100 double
0 0.00060106699162 0.0024059947915 0.0054139935613 0.0096052346406 0.014918710345 0.021232722043 0.028356201589 0.036034973095 
0.043971531321 0.05185277234 0.059378541864 0.066284835829 0.072358343622 0.077442584041 0.081438635251 0.084304293182 0.086054555015 
0.086765163874 0.086581832697 0.08573860274 0.084525284821 0.083101288243 0.081526943536 0.079901655158 0.078345120365 0.076965751268 
0.07584792738 0.07504947661 0.074601748084 0.07451054393 0.074763191354 0.075339767331 0.076220555978 0.077387062789 0.078816319047 
0.080469490817 0.082286106416 0.084202110502 0.086185413564 0.088251193559 0.090437246821 0.092758027667 0.09515826216 0.097512452322 
0.099711808807 0.10177140645 0.1038753973 0.10634731074 0.10956155398 0.11382514857 0.11927866775 0.12585833482 0.13331997084 
0.1412959448 0.14936000145 0.15708837439 0.16411050438 0.17014361954 0.17500810214 0.17862537628 0.18100470509 0.18222693853 
0.18243009875 0.18179508237 0.18052537183 0.1788210677 0.17686181503 0.17480778389 0.1728044319 0.17097491245 0.16939893449 
0.16808359387 0.16693319924 0.16573355878 0.16417425463 0.16191337714 0.15865254628 0.15418699957 0.14842602762 0.14139690257 
0.13323800336 0.12417721361 0.11449489542 0.10447922216 0.094385413323 0.084408490945 0.074674380504 0.065248768972 0.056158697512 
0.047419608169 0.039060793394 0.031144076739 0.023772847443 0.017090617103 0.011270042584 0.0064948961878 0.0029385291754 0.00074268045727 
3.3808659531e-17 
