# vtk DataFile Version 5.1
vtk output
ASCII
DATASET POLYDATA
POINTS 100 float
-0.0302523 -0.0227985 0.761895 -0.0306317 -0.0226787 0.761789 -0.0317615 -0.0221388 0.761442 
-0.0335439 -0.0212033 0.760767 -0.0358254 -0.0199109 0.759633 -0.0384086 -0.0183096 0.757876 
-0.041069 -0.016451 0.755325 -0.0435721 -0.0143841 0.751819 -0.0456906 -0.0121491 0.747225 
-0.0472198 -0.0097728 0.741458 -0.0479894 -0.00726544 0.734485 -0.0478717 -0.00461919 0.72633 
-0.0467845 -0.0018096 0.717068 -0.0446907 0.00120103 0.706818 -0.0415934 0.00445809 0.695719 
-0.0375291 0.00800773 0.683921 -0.0325588 0.011889 0.671559 -0.0267598 0.0161261 0.65874 
-0.0202182 0.0207216 0.64553 -0.0130231 0.0256514 0.631944 -0.00526307 0.030862 0.617951 
0.0029751 0.0362702 0.603475 0.0116059 0.0417668 0.588411 0.0205435 0.0472219 0.572634 
0.0297004 0.0524935 0.556021 0.0389854 0.0574371 0.538465 0.0483048 0.0619161 0.519888 
0.057563 0.0658125 0.500252 0.0666667 0.0690352 0.479563 0.0755292 0.0715269 0.457869 
0.0840758 0.0732677 0.435257 0.0922486 0.0742752 0.411837 0.100011 0.0746017 0.387736 
0.107348 0.0743279 0.363081 0.114266 0.073554 0.337988 0.120789 0.07239 0.312554 
0.126952 0.0709447 0.286849 0.132788 0.0693159 0.260919 0.138325 0.0675824 0.234786 
0.143567 0.0657979 0.208454 0.148493 0.0639891 0.181922 0.153047 0.0621567 0.155186 
0.157136 0.0602793 0.128256 0.160638 0.0583209 0.101158 0.163401 0.056239 0.0739363 
0.165263 0.0539948 0.0466587 0.166058 0.051562 0.0194085 0.165641 0.0489344 -0.00771896 
0.163895 0.0461311 -0.0346247 0.16075 0.0431985 -0.0612146 0.156191 0.0402086 -0.0874066 
0.150263 0.0372547 -0.113137 0.14307 0.0344431 -0.138362 0.134769 0.0318845 -0.163061 
0.125559 0.0296827 -0.187229 0.115663 0.0279252 -0.210877 0.105316 0.0266741 -0.234019 
0.0947436 0.0259605 -0.256671 0.0841443 0.025781 -0.278841 0.0736808 0.0260985 -0.300527 
0.0634688 0.0268465 -0.321711 0.0535746 0.0279359 -0.342368 0.0440172 0.0292643 -0.362462 
0.0347744 0.030726 -0.381957 0.0257937 0.0322231 -0.40082 0.0170045 0.0336738 -0.41903 
0.00833095 0.0350196 -0.436584 -0.000295619 0.0362294 -0.453496 -0.00892739 0.0372999 -0.469802 
-0.0175937 0.0382534 -0.485552 -0.0262984 0.0391318 -0.50081 -0.0350214 0.0399896 -0.515638 
-0.0437227 0.0408844 -0.530094 -0.0523494 0.0418689 -0.544217 -0.0608432 0.0429822 -0.558026 
-0.0691482 0.0442442 -0.571509 -0.0772171 0.0456519 -0.584625 -0.085016 0.0471788 -0.597308 
-0.0925255 0.0487768 -0.60947 -0.0997405 0.0503815 -0.621013 -0.106667 0.0519182 -0.63184 
-0.113317 0.0533096 -0.641863 -0.119703 0.0544839 -0.651018 -0.125835 0.0553814 -0.65927 
-0.131713 0.0559604 -0.666618 -0.137328 0.0562003 -0.673094 -0.142658 0.0561031 -0.678762 
-0.147674 0.0556923 -0.683707 -0.152338 0.0550101 -0.68803 -0.156615 0.0541125 -0.691831 
-0.160471 0.0530647 -0.695202 -0.163879 0.0519351 -0.698219 -0.166825 0.0507906 -0.700931 
-0.169307 0.0496928 -0.703364 -0.171335 0.0486948 -0.705515 -0.172929 0.0478397 -0.707362 
-0.174115 0.0471609 -0.708871 -0.174921 0.046682 -0.71 -0.17537 0.0464182 -0.710712 
-0.175479 0.0463775 -0.710982 
LINES 2 100
OFFSETS vtktypeint64
0 100 
CONNECTIVITY vtktypeint64
0 1 2 3 4 5 6 7 8 
9 10 11 12 13 14 15 16 17 
18 19 20 21 22 23 24 25 26 
27 28 29 30 31 32 33 34 35 
36 37 38 39 40 41 42 43 44 
45 46 47 48 49 50 51 52 53 
54 55 56 57 58 59 60 61 62 
63 64 65 66 67 68 69 70 71 
72 73 74 75 76 77 78 79 80 
81 82 83 84 85 86 87 88 89 
90 91 92 93 94 95 96 97 98 
99 
POINT_DATA 100
FIELD FieldData 3
_theta 1 100 double
0 0.031733259127 0.063466518254 0.095199777382 0.12693303651 0.15866629564 0.19039955476 0.22213281389 0.25386607302 
0.28559933214 0.31733259127 0.3490658504 0.38079910953 0.41253236865 0.44426562778 0.47599888691 0.50773214603 0.53946540516 
0.57119866429 0.60293192342 0.63466518254 0.66639844167 0.6981317008 0.72986495992 0.76159821905 0.79333147818 0.82506473731 
0.85679799643 0.88853125556 0.92026451469 0.95199777382 0.98373103294 1.0154642921 1.0471975512 1.0789308103 1.1106640695 
1.1423973286 1.1741305877 1.2058638468 1.237597106 1.2693303651 1.3010636242 1.3327968833 1.3645301425 1.3962634016 
1.4279966607 1.4597299198 1.491463179 1.5231964381 1.5549296972 1.5866629564 1.6183962155 1.6501294746 1.6818627337 
1.7135959929 1.745329252 1.7770625111 1.8087957702 1.8405290294 1.8722622885 1.9039955476 1.9357288068 1.9674620659 
1.999195325 2.0309285841 2.0626618433 2.0943951024 2.1261283615 2.1578616206 2.1895948798 2.2213281389 2.253061398 
2.2847946572 2.3165279163 2.3482611754 2.3799944345 2.4117276937 2.4434609528 2.4751942119 2.506927471 2.5386607302 
2.5703939893 2.6021272484 2.6338605076 2.6655937667 2.6973270258 2.7290602849 2.7607935441 2.7925268032 2.8242600623 
2.8559933214 2.8877265806 2.9194598397 2.9511930988 2.982926358 3.0146596171 3.0463928762 3.0781261353 3.1098593945 
3.1415926536 
_radius 1 100 double
8.8861199474e-16 0.015983354051 0.03180677363 0.047316808788 0.062382451558 0.076901130269 0.090799362171 0.10402831646 0.11655573486 
0.12835645784 0.13940394811 0.14966466587 0.15909618284 0.16764891988 0.17527068386 0.18191288961 0.18753740973 0.19212322513 
0.19567227661 0.19821403754 0.199808323 0.20054579763 0.20054567243 0.19995031801 0.19891702227 0.19760779034 0.19617862766 
0.19476977677 0.19349781961 0.19244987627 0.19167983914 0.19120664154 0.19101464541 0.19105627367 0.19125713308 0.19152397471 
0.19175557761 0.19185589332 0.191747915 0.19138620243 0.19076596547 0.18992700138 0.1889515198 0.18795598142 0.18707839245 
0.18646347334 0.1862480326 0.18654778557 0.18744588011 0.18898347288 0.19115351702 0.1938993903 0.197119439 0.20067717582 
0.20441552101 0.20817275522 0.2117979039 0.21516384142 0.21817710715 0.22078397929 0.22297264954 0.22477143652 0.22624302115 
0.22747484832 0.22856623537 0.22961340087 0.23069451307 0.23185763391 0.23311436272 0.23444033158 0.23578092409 0.23705864761 
0.2381790699 0.23903453064 0.23950701352 0.2394722672 0.23880642998 0.23739484156 0.23514138088 0.23197613644 0.22785955101 
0.22278210626 0.21675975138 0.20982628146 0.20202445618 0.19339768032 0.18398361776 0.1738104467 0.16289590705 0.15124899796 
0.1388740134 0.12577629413 0.11196864574 0.097477189635 0.082345699913 0.066638007973 0.050438459306 0.033850558308 0.016993958072 
3.5000510091e-16 
_area 1 100 double
0 0.00063164970562 0.002492573112 0.0054876957685 0.009479272802 0.014309746949 0.019820672382 0.02586150254 0.032287164507 
0.038948628917 0.045683272522 0.052310882476 0.058638035566 0.064470292086 0.069629289246 0.073970551543 0.077397657473 0.079869540793 
0.081400130874 0.082052385688 0.081930509006 0.081173766629 0.079954203917 0.078483184653 0.077027307577 0.075869863655 0.075139864831 
0.074630290199 0.074345866612 0.074342074659 0.074717633566 0.075587598571 0.07705852103 0.079329970249 0.082111584984 0.08508583767 
0.087953801425 0.090446812515 0.092367195361 0.093626610961 0.094256636348 0.094362444834 0.094077463778 0.093582156068 0.0931195245 
0.092968766987 0.093398068183 0.094620172235 0.096746773881 0.099734746386 0.10342196807 0.10763322039 0.11222187097 0.11705697804 
0.12200137739 0.12689863778 0.1315740686 0.13584919293 0.1395650417 0.14260779781 0.14493076055 0.14656830137 0.14763850068 
0.14832650207 0.14883206123 0.14929216875 0.14974593923 0.15016049642 0.15046698745 0.15058430296 0.15043534824 0.14995855182 
0.1491114561 0.14786373765 0.14618235815 0.1440167993 0.14129206159 0.13791227199 0.13377646544 0.12880738419 0.12298151886 
0.11634043503 0.10897865509 0.10102140473 0.092607121992 0.083880088348 0.074989321024 0.066086793434 0.057320789086 0.048825924825 
0.040716341293 0.033087615423 0.026025640986 0.019615719675 0.013947561659 0.0091161230407 0.0052191219958 0.0023509553104 0.00059270963648 
5.4203536193e-17 
