# vtk DataFile Version 5.1
vtk output
ASCII
DATASET POLYDATA
POINTS 100 float
-0.0640263 -0.04014 0.669168 -0.0641394 -0.0400723 0.668771 -0.0644543 -0.0396597 0.667557 
-0.0649375 -0.0388875 0.665551 -0.0655349 -0.0377345 0.662801 -0.066176 -0.0361773 0.65936 
-0.0667774 -0.034194 0.655294 -0.0672479 -0.0317697 0.650665 -0.067493 -0.0288996 0.64553 
-0.0674204 -0.025593 0.639935 -0.0669441 -0.0218739 0.633909 -0.0659887 -0.0177818 0.62746 
-0.0644927 -0.013369 0.620578 -0.062411 -0.00869804 0.613229 -0.0597165 -0.00383725 0.605362 
-0.056401 0.00114377 0.596914 -0.0524758 0.00617854 0.587814 -0.0479705 0.0112073 0.577988 
-0.042932 0.0161794 0.567371 -0.0374226 0.0210544 0.555909 -0.0315168 0.0258014 0.543567 
-0.0252987 0.0303976 0.53033 -0.0188569 0.0348253 0.516207 -0.012281 0.0390692 0.501231 
-0.00565597 0.0431136 0.485453 0.000942455 0.0469397 0.46894 0.00745222 0.0505254 0.45177 
0.0138288 0.0538446 0.434023 0.0200476 0.0568696 0.415774 0.0261047 0.0595731 0.397091 
0.0320162 0.0619315 0.378023 0.0378142 0.0639286 0.358604 0.0435426 0.0655583 0.33885 
0.0492492 0.0668264 0.318759 0.0549785 0.067751 0.298314 0.0607622 0.0683611 0.277494 
0.0666122 0.0686939 0.256272 0.0725128 0.0687902 0.234628 0.0784168 0.0686896 0.212553 
0.0842436 0.0684247 0.190055 0.0898807 0.0680169 0.16716 0.0951891 0.0674727 0.143915 
0.100012 0.0667821 0.120388 0.104183 0.06592 0.0966646 0.107544 0.064849 0.0728405 
0.109951 0.0635252 0.0490187 0.111292 0.0619051 0.0253016 0.111493 0.0599535 0.00178481 
0.110524 0.0576519 -0.0214478 0.108408 0.0550047 -0.0443284 0.105209 0.0520444 -0.0668065 
0.101035 0.0488332 -0.0888497 0.0960242 0.0454627 -0.110441 0.0903354 0.0420484 -0.131576 
0.0841325 0.0387234 -0.152259 0.0775729 0.0356279 -0.172498 0.0707957 0.0328985 -0.192298 
0.0639132 0.0306566 -0.211663 0.0570053 0.0289984 -0.230591 0.0501189 0.0279856 -0.249075 
0.0432705 0.0276409 -0.267102 0.0364526 0.0279451 -0.284659 0.0296432 0.028839 -0.301738 
0.0228152 0.0302289 -0.318335 0.015947 0.0319947 -0.334459 0.00903148 0.0340001 -0.35013 
0.00208172 0.0361044 -0.365385 -0.00486562 0.0381738 -0.380272 -0.011751 0.040092 -0.394851 
-0.0184962 0.0417681 -0.409186 -0.0250108 0.0431422 -0.423342 -0.0312016 0.0441877 -0.437372 
-0.0369814 0.0449101 -0.451316 -0.0422784 0.0453433 -0.465192 -0.0470427 0.045543 -0.47899 
-0.0512515 0.0455795 -0.492669 -0.0549092 0.0455285 -0.506162 -0.0580464 0.0454632 -0.519371 
-0.0607136 0.0454472 -0.53218 -0.0629746 0.0455285 -0.544457 -0.0648978 0.0457368 -0.556065 
-0.0665469 0.0460814 -0.566874 -0.0679746 0.0465531 -0.576766 -0.0692164 0.0471261 -0.585646 
-0.0702888 0.0477633 -0.593449 -0.0711896 0.0484205 -0.600143 -0.0719023 0.0490524 -0.605732 
-0.0724016 0.0496172 -0.610254 -0.0726613 0.050081 -0.613779 -0.0726623 0.0504209 -0.616403 
-0.0723994 0.0506269 -0.618242 -0.0718871 0.0507019 -0.619424 -0.0711615 0.0506611 -0.620084 
-0.0702798 0.0505298 -0.620354 -0.0693166 0.0503403 -0.62036 -0.0683573 0.0501288 -0.620213 
-0.0674895 0.0499314 -0.62001 -0.066794 0.0497807 -0.619829 -0.0663357 0.0497027 -0.619724 
-0.0661564 0.0497145 -0.61973 
LINES 2 100
OFFSETS vtktypeint64
0 100 
CONNECTIVITY vtktypeint64
0 1 2 3 4 5 6 7 8 
9 10 11 12 13 14 15 16 17 
18 19 20 21 22 23 24 25 26 
27 28 29 30 31 32 33 34 35 
36 37 38 39 40 41 42 43 44 
45 46 47 48 49 50 51 52 53 
54 55 56 57 58 59 60 61 62 
63 64 65 66 67 68 69 70 71 
72 73 74 75 76 77 78 79 80 
81 82 83 84 85 86 87 88 89 
90 91 92 93 94 95 96 97 98 
99 
POINT_DATA 100
FIELD FieldData 3
_theta 1 100 double
0 0.031733259127 0.063466518254 0.095199777382 0.12693303651 0.15866629564 0.19039955476 0.22213281389 0.25386607302 
0.28559933214 0.31733259127 0.3490658504 0.38079910953 0.41253236865 0.44426562778 0.47599888691 0.50773214603 0.53946540516 
0.57119866429 0.60293192342 0.63466518254 0.66639844167 0.6981317008 0.72986495992 0.76159821905 0.79333147818 0.82506473731 
0.85679799643 0.88853125556 0.92026451469 0.95199777382 0.98373103294 1.0154642921 1.0471975512 1.0789308103 1.1106640695 
1.1423973286 1.1741305877 1.2058638468 1.237597106 1.2693303651 1.3010636242 1.3327968833 1.3645301425 1.3962634016 
1.4279966607 1.4597299198 1.491463179 1.5231964381 1.5549296972 1.5866629564 1.6183962155 1.6501294746 1.6818627337 
1.7135959929 1.745329252 1.7770625111 1.8087957702 1.8405290294 1.8722622885 1.9039955476 1.9357288068 1.9674620659 
1.999195325 2.0309285841 2.0626618433 2.0943951024 2.1261283615 2.1578616206 2.1895948798 2.2213281389 2.253061398 
2.2847946572 2.3165279163 2.3482611754 2.3799944345 2.4117276937 2.4434609528 2.4751942119 2.506927471 2.5386607302 
2.5703939893 2.6021272484 2.6338605076 2.6655937667 2.6973270258 2.7290602849 2.7607935441 2.7925268032 2.8242600623 
2.8559933214 2.8877265806 2.9194598397 2.9511930988 2.982926358 3.0146596171 3.0463928762 3.0781261353 3.1098593945 
3.1415926536 
_radius 1 100 double
2.4912465245e-16 0.012236436207 0.024478281579 0.036716279534 0.048929665072 0.061082329822 0.073120352902 0.084970931552 0.09654271966 
0.10772765623 0.11840444423 0.1284438319 0.13771570991 0.14609778192 0.1534852501 0.15980065172 0.16500275182 0.16909328788 
0.17212040989 0.17417789155 0.17539963544 0.17594967142 0.17600870976 0.17575915803 0.17537094484 0.17499012603 0.17473114967 
0.17467248146 0.17485473059 0.17528060915 0.17591666933 0.1766973548 0.1775321037 0.1783158284 0.17894218476 0.17931809339 
0.17937746412 0.17909209322 0.17847794656 0.17759520178 0.17654070804 0.17543283618 0.17439173531 0.17352137199 0.17289992461 
0.17258069694 0.17260007256 0.17298653 0.17376605802 0.17496220083 0.17659147772 0.17865648465 0.18113961418 0.18400001227 
0.18717515954 0.19058672139 0.19414883541 0.1977764566 0.20139179968 0.2049278262 0.208328654 0.21154753068 0.21454356632 
0.21727867048 0.21971595386 0.22182021693 0.22356024814 0.22491184252 0.22586009026 0.22639978331 0.22653367267 0.22626932911 
0.22561583456 0.22458109218 0.22316962137 0.2213801725 0.21920277933 0.2166156208 0.21358265963 0.21005309852 0.20596328291 
0.20124106016 0.19581204963 0.18960693175 0.18256875466 0.1746593497 0.16586416922 0.15619511473 0.145691132 0.13441649348 
0.12245682107 0.10991309905 0.096894209421 0.083508822214 0.069857673466 0.056027274721 0.042085906343 0.028082408795 0.014047881933 
8.7431775256e-16 
_area 1 100 double
0 0.00045285531121 0.0018014825867 0.0040162247022 0.0070483393341 0.010831388619 0.01528336464 0.020308860433 0.025799908664 
0.03163405654 0.037669564585 0.043740116037 0.049653270146 0.0551962828 0.060150304701 0.064311294294 0.067514437612 0.069658331199 
0.07072506457 0.070792366032 0.070034402919 0.068708744902 0.067127325882 0.065609268097 0.06443016162 0.063868191011 0.064061776492 
0.064874536806 0.066142631361 0.067726574751 0.069473891798 0.071237331218 0.072886890307 0.074333073526 0.075568382324 0.076680854896 
0.077790108554 0.078948710249 0.080139256267 0.081385954588 0.08266915411 0.083873049986 0.084906385255 0.0857424793 0.086420752703 
0.087039767292 0.08774193873 0.088680516777 0.089977580279 0.091704863216 0.093904281069 0.096615554438 0.099867956177 0.10363422194 
0.1078046916 0.11222315022 0.11674144306 0.12124929354 0.12567630784 0.12997526319 0.13409511082 0.13795210733 0.14141189089 
0.14429946756 0.14643843335 0.14769373973 0.14799563413 0.14734768316 0.14582952695 0.14359541328 0.140860199 0.13786126814 
0.13479589167 0.13176520411 0.12876768335 0.12573486504 0.12256300054 0.11912520197 0.11528638621 0.11093246294 0.10599602965 
0.10046365258 0.094368102386 0.087774697801 0.0807677623 0.073440124305 0.06588778394 0.058211122485 0.050520720865 0.042942108895 
0.03561448656 0.028683022699 0.022287880309 0.016553675591 0.011581945066 0.0074478101433 0.0042008945668 0.0018696644081 0.00046769308162 
5.4971573411e-17 
