# vtk DataFile Version 5.1
vtk output
ASCII
DATASET POLYDATA
POINTS 100 float
-0.165306 -0.108816 0.742304 -0.165059 -0.108209 0.741823 -0.164165 -0.106274 0.74046 
-0.162674 -0.103087 0.738297 -0.16066 -0.0987639 0.735458 -0.158195 -0.0934513 0.732095 
-0.155329 -0.0873108 0.728361 -0.152062 -0.0805028 0.724393 -0.148333 -0.0731733 0.720287 
-0.144012 -0.0654423 0.716078 -0.138903 -0.0573976 0.711731 -0.132763 -0.0490931 0.707132 
-0.125329 -0.0405527 0.702096 -0.116355 -0.0317792 0.696375 -0.105653 -0.0227657 0.689676 
-0.0931243 -0.0135094 0.68169 -0.0787953 -0.00402458 0.672117 -0.0628304 0.00564615 0.660699 
-0.045535 0.0154247 0.647238 -0.0273398 0.0251948 0.631625 -0.00876884 0.0348049 0.613852 
0.00960404 0.044076 0.594015 0.0272083 0.052813 0.572309 0.043531 0.0608195 0.549018 
0.0581662 0.0679131 0.52449 0.0708541 0.0739401 0.49911 0.0815043 0.0787868 0.47327 
0.0901999 0.0823878 0.447339 0.0971823 0.0847296 0.421632 0.102818 0.0858481 0.396389 
0.107552 0.0858235 0.37176 0.111851 0.0847699 0.347798 0.116148 0.0828242 0.324461 
0.12079 0.0801334 0.301626 0.125996 0.0768439 0.279107 0.131838 0.0730916 0.256679 
0.138229 0.0689965 0.234107 0.144943 0.06466 0.21117 0.151641 0.0601656 0.187687 
0.157919 0.0555824 0.163539 0.163354 0.0509703 0.138676 0.16756 0.0463861 0.113122 
0.170228 0.041888 0.0869781 0.171166 0.0375395 0.0604022 0.170313 0.0334103 0.0335993 
0.167744 0.0295746 0.00679915 0.163655 0.0261069 -0.0197652 0.158336 0.0230768 -0.0458778 
0.152132 0.0205412 -0.0713574 0.145402 0.0185384 -0.0960699 0.138476 0.0170827 -0.119936 
0.131625 0.0161614 -0.142931 0.125031 0.0157345 -0.16508 0.11878 0.0157382 -0.186451 
0.112864 0.0160904 -0.207136 0.107193 0.0166991 -0.227244 0.101623 0.0174717 -0.24688 
0.0959867 0.0183244 -0.266135 0.0901194 0.0191903 -0.285079 0.0838921 0.0200257 -0.303753 
0.0772297 0.0208125 -0.322169 0.0701229 0.0215584 -0.340315 0.0626283 0.022293 -0.358157 
0.0548599 0.0230613 -0.375652 0.0469711 0.0239161 -0.392756 0.0391335 0.0249088 -0.40943 
0.031513 0.0260812 -0.425649 0.0242494 0.0274592 -0.441404 0.0174409 0.0290488 -0.456706 
0.0111361 0.0308348 -0.471579 0.00533483 0.0327831 -0.486059 -4.08788e-06 0.0348451 -0.500185 
-0.00494829 0.0369645 -0.513991 -0.00957432 0.0390845 -0.5275 -0.0139498 0.0411552 -0.540719 
-0.0181182 0.0431393 -0.553636 -0.0220892 0.0450159 -0.566215 -0.0258361 0.0467817 -0.578407 
-0.0293 0.0484494 -0.590146 -0.0324013 0.0500436 -0.601363 -0.0350557 0.0515951 -0.611992 
-0.0371923 0.0531341 -0.621975 -0.0387703 0.0546842 -0.631273 -0.0397924 0.0562564 -0.639868 
-0.0403117 0.0578471 -0.647765 -0.0404306 0.0594361 -0.65499 -0.0402922 0.0609896 -0.66159 
-0.0400644 0.0624641 -0.667622 -0.0399196 0.0638122 -0.673146 -0.0400122 0.0649899 -0.678219 
-0.0404577 0.0659627 -0.682889 -0.041316 0.0667112 -0.687183 -0.0425823 0.0672342 -0.69111 
-0.0441863 0.0675498 -0.694659 -0.0460002 0.0676929 -0.697797 -0.0478554 0.067711 -0.700482 
-0.0495642 0.0676578 -0.702662 -0.0509452 0.0675859 -0.704287 -0.0518474 0.0675396 -0.705313 
-0.0521708 0.0675487 -0.705713 
LINES 2 100
OFFSETS vtktypeint64
0 100 
CONNECTIVITY vtktypeint64
0 1 2 3 4 5 6 7 8 
9 10 11 12 13 14 15 16 17 
18 19 20 21 22 23 24 25 26 
27 28 29 30 31 32 33 34 35 
36 37 38 39 40 41 42 43 44 
45 46 47 48 49 50 51 52 53 
54 55 56 57 58 59 60 61 62 
63 64 65 66 67 68 69 70 71 
72 73 74 75 76 77 78 79 80 
81 82 83 84 85 86 87 88 89 
90 91 92 93 94 95 96 97 98 
99 
POINT_DATA 100
FIELD FieldData 3
_theta 1 100 double
0 0.031733259127 0.063466518254 0.095199777382 0.12693303651 0.15866629564 0.19039955476 0.22213281389 0.25386607302 
0.28559933214 0.31733259127 0.3490658504 0.38079910953 0.41253236865 0.44426562778 0.47599888691 0.50773214603 0.53946540516 
0.57119866429 0.60293192342 0.63466518254 0.66639844167 0.6981317008 0.72986495992 0.76159821905 0.79333147818 0.82506473731 
0.85679799643 0.88853125556 0.92026451469 0.95199777382 0.98373103294 1.0154642921 1.0471975512 1.0789308103 1.1106640695 
1.1423973286 1.1741305877 1.2058638468 1.237597106 1.2693303651 1.3010636242 1.3327968833 1.3645301425 1.3962634016 
1.4279966607 1.4597299198 1.491463179 1.5231964381 1.5549296972 1.5866629564 1.6183962155 1.6501294746 1.6818627337 
1.7135959929 1.745329252 1.7770625111 1.8087957702 1.8405290294 1.8722622885 1.9039955476 1.9357288068 1.9674620659 
1.999195325 2.0309285841 2.0626618433 2.0943951024 2.1261283615 2.1578616206 2.1895948798 2.2213281389 2.253061398 
2.2847946572 2.3165279163 2.3482611754 2.3799944345 2.4117276937 2.4434609528 2.4751942119 2.506927471 2.5386607302 
2.5703939893 2.6021272484 2.6338605076 2.6655937667 2.6973270258 2.7290602849 2.7607935441 2.7925268032 2.8242600623 
2.8559933214 2.8877265806 2.9194598397 2.9511930988 2.982926358 3.0146596171 3.0463928762 3.0781261353 3.1098593945 
3.1415926536 
_radius 1 100 double
3.2368285246e-16 0.018083269922 0.036163215577 0.054208276224 0.072129071621 0.089759301571 0.10684775898 0.12306367082 0.1380160782 
0.15128627288 0.16247071662 0.17123033474 0.17734052739 0.18073472959 0.18153202505 0.18003513649 0.17669249951 0.17204625396 
0.16668572184 0.16120609826 0.15617139164 0.15208078023 0.14933700374 0.14821785735 0.14885399682 0.15121686387 0.15512113434 
0.16024552706 0.16617158731 0.17243374397 0.1785705426 0.18416908701 0.18890019903 0.1925448751 0.19501007008 0.19632917057 
0.19664547526 0.19618281558 0.19521088817 0.19401264671 0.19285863811 0.19198992512 0.1916083701 0.19187144898 0.19288848445 
0.19471603723 0.19735250549 0.20073546682 0.20474716695 0.20923054363 0.2140120214 0.21892406876 0.22382246117 0.22859691892 
0.23317595331 0.23752706164 0.24165301114 0.24558476809 0.24937187727 0.25307142693 0.25673671037 0.26040634986 0.26409447615 
0.26778283294 0.27141605761 0.27490138655 0.27811352707 0.28090459929 0.28311807029 0.28460467411 0.28523770352 0.28492503888 
0.28361592903 0.28130168199 0.27801070951 0.27379943866 0.26874119862 0.26291521898 0.25639740711 0.24925380544 0.24153682075 
0.23328370481 0.22451651923 0.21524299086 0.20545814497 0.19514708436 0.18428937527 0.17286501654 0.16086113625 0.14827791805 
0.13513225258 0.12145827099 0.10730489148 0.092731340269 0.077802010741 0.062581961005 0.047133936399 0.031517199447 0.015787854343 
2.5882001159e-16 
_area 1 100 double
0 0.0005759958344 0.0022767980886 0.0050209436892 0.0086756157487 0.013068946687 0.018017559974 0.023358438652 0.028936728617 
0.03454885776 0.039946649595 0.044874749729 0.049086226831 0.052419613847 0.054792729769 0.056186324905 0.056687473115 0.05644406681 
0.055992913389 0.055437054752 0.054877112888 0.054581683524 0.054782086787 0.05564263785 0.057245302697 0.059554246443 0.062412572847 
0.065604645213 0.068946589102 0.072332696342 0.075498078082 0.078198088479 0.080397468467 0.082310559935 0.084303533457 0.086560136014 
0.089244406835 0.092511269881 0.096015305387 0.099259732237 0.10206210684 0.10442151255 0.10642652523 0.10818452638 0.10978919537 
0.11149616581 0.1133874596 0.1157748234 0.11911143646 0.12298341274 0.12711269463 0.1313537391 0.13563630594 0.13992458823 
0.14418685237 0.14838546747 0.15249387427 0.1565227363 0.16049976013 0.16440277128 0.16833178092 0.17236060532 0.17623235845 
0.18016504065 0.18400701304 0.18757789279 0.19073372334 0.1932977309 0.19505524911 0.1957889626 0.19533196642 0.19360228883 
0.19059841754 0.18638804648 0.18110591888 0.17492651598 0.16801697084 0.16050547549 0.15247697041 0.14398870963 0.13509425779 
0.12586512331 0.11640195826 0.10683146217 0.097288977121 0.087890190486 0.07870141882 0.069727856638 0.060938582905 0.052317984458 
0.043906146206 0.035806486823 0.028168627922 0.021162918485 0.014957086161 0.0096989532105 0.0055059739999 0.0024615308354 0.00061736264151 
4.8285750132e-17 
