# vtk DataFile Version 5.1
vtk output
ASCII
DATASET POLYDATA
POINTS 100 float
-0.109142 -0.0379026 0.782192 -0.109248 -0.0378632 0.78247 -0.109586 -0.0375894 0.78325 
-0.110126 -0.0370683 0.784338 -0.110815 -0.0362806 0.785436 -0.111583 -0.035202 0.786177 
-0.112344 -0.0338064 0.786168 -0.113 -0.032068 0.785031 -0.113442 -0.0299643 0.78245 
-0.113553 -0.0274792 0.778197 -0.11321 -0.0246045 0.772159 -0.112286 -0.021342 0.764341 
-0.110651 -0.0177042 0.754861 -0.108181 -0.0137143 0.743928 -0.104753 -0.00940552 0.731809 
-0.100258 -0.00481984 0.718792 -0.0946054 -5.9307e-06 0.705151 -0.0877304 0.00498298 0.691111 
-0.0796023 0.0100914 0.676818 -0.0702328 0.0152635 0.662334 -0.0596818 0.0204452 0.647625 
-0.0480616 0.025585 0.632584 -0.0355365 0.0306349 0.617041 -0.0223185 0.03555 0.600803 
-0.0086586 0.0402885 0.583675 0.00516666 0.0448103 0.5655 0.0188724 0.049076 0.546176 
0.0321847 0.053046 0.525675 0.0448598 0.0566796 0.504046 0.0567029 0.0599349 0.481409 
0.0675815 0.0627691 0.457937 0.0774351 0.0651398 0.433831 0.086276 0.0670066 0.409295 
0.0941845 0.0683344 0.384504 0.101295 0.0690955 0.359584 0.107777 0.0692735 0.334595 
0.113811 0.0688657 0.309522 0.119566 0.0678858 0.284288 0.125169 0.0663657 0.25876 
0.130694 0.0643556 0.232776 0.136137 0.0619238 0.206175 0.141422 0.0591542 0.178818 
0.146396 0.0561435 0.150624 0.150847 0.0529969 0.12158 0.154524 0.0498228 0.0917568 
0.157161 0.0467278 0.0613089 0.158509 0.0438113 0.0304614 0.158364 0.0411603 -0.000506732 
0.156591 0.0388458 -0.0312889 0.153141 0.0369194 -0.0615793 0.148061 0.0354117 -0.0911011 
0.141488 0.0343325 -0.11963 0.133644 0.033671 -0.147011 0.12481 0.0333986 -0.173167 
0.1153 0.0334719 -0.198099 0.105433 0.0338364 -0.221874 0.0954999 0.0344307 -0.244607 
0.0857383 0.0351903 -0.266447 0.0763137 0.0360516 -0.287545 0.0673079 0.0369553 -0.30804 
0.0587177 0.0378487 -0.32804 0.0504644 0.0386875 -0.347613 0.0424107 0.0394375 -0.366784 
0.0343843 0.0400747 -0.385537 0.0262042 0.0405856 -0.40383 0.0177073 0.0409668 -0.421606 
0.00877099 0.0412243 -0.438806 -0.000669859 0.0413725 -0.45539 -0.0106141 0.0414334 -0.471343 
-0.020994 0.0414353 -0.486684 -0.0316837 0.0414113 -0.501463 -0.0425144 0.0413975 -0.515761 
-0.0532941 0.0414315 -0.529674 -0.0638298 0.0415497 -0.543302 -0.0739483 0.0417852 -0.556735 
-0.0835141 0.0421654 -0.570037 -0.0924412 0.0427089 -0.583239 -0.100698 0.043424 -0.596328 
-0.108304 0.0443065 -0.609254 -0.115324 0.0453388 -0.621928 -0.121853 0.0464897 -0.634235 
-0.127995 0.0477157 -0.64605 -0.133857 0.0489627 -0.657247 -0.139521 0.0501699 -0.667717 
-0.145043 0.0512736 -0.677375 -0.150441 0.0522123 -0.686174 -0.155698 0.0529318 -0.694099 
-0.160764 0.05339 -0.701174 -0.16557 0.0535611 -0.707448 -0.170034 0.053439 -0.712987 
-0.174079 0.0530386 -0.717869 -0.177643 0.0523955 -0.722164 -0.180687 0.0515644 -0.725932 
-0.183197 0.0506151 -0.729214 -0.185191 0.0496272 -0.732032 -0.186705 0.0486839 -0.734388 
-0.187791 0.0478655 -0.736269 -0.188507 0.0472424 -0.737654 -0.188902 0.0468692 -0.738521 
-0.18901 0.0467804 -0.738854 
LINES 2 100
OFFSETS vtktypeint64
0 100 
CONNECTIVITY vtktypeint64
0 1 2 3 4 5 6 7 8 
9 10 11 12 13 14 15 16 17 
18 19 20 21 22 23 24 25 26 
27 28 29 30 31 32 33 34 35 
36 37 38 39 40 41 42 43 44 
45 46 47 48 49 50 51 52 53 
54 55 56 57 58 59 60 61 62 
63 64 65 66 67 68 69 70 71 
72 73 74 75 76 77 78 79 80 
81 82 83 84 85 86 87 88 89 
90 91 92 93 94 95 96 97 98 
99 
POINT_DATA 100
FIELD FieldData 3
_theta 1 100 double
0 0.031733259127 0.063466518254 0.095199777382 0.12693303651 0.15866629564 0.19039955476 0.22213281389 0.25386607302 
0.28559933214 0.31733259127 0.3490658504 0.38079910953 0.41253236865 0.44426562778 0.47599888691 0.50773214603 0.53946540516 
0.57119866429 0.60293192342 0.63466518254 0.66639844167 0.6981317008 0.72986495992 0.76159821905 0.79333147818 0.82506473731 
0.85679799643 0.88853125556 0.92026451469 0.95199777382 0.98373103294 1.0154642921 1.0471975512 1.0789308103 1.1106640695 
1.1423973286 1.1741305877 1.2058638468 1.237597106 1.2693303651 1.3010636242 1.3327968833 1.3645301425 1.3962634016 
1.4279966607 1.4597299198 1.491463179 1.5231964381 1.5549296972 1.5866629564 1.6183962155 1.6501294746 1.6818627337 
1.7135959929 1.745329252 1.7770625111 1.8087957702 1.8405290294 1.8722622885 1.9039955476 1.9357288068 1.9674620659 
1.999195325 2.0309285841 2.0626618433 2.0943951024 2.1261283615 2.1578616206 2.1895948798 2.2213281389 2.253061398 
2.2847946572 2.3165279163 2.3482611754 2.3799944345 2.4117276937 2.4434609528 2.4751942119 2.506927471 2.5386607302 
2.5703939893 2.6021272484 2.6338605076 2.6655937667 2.6973270258 2.7290602849 2.7607935441 2.7925268032 2.8242600623 
2.8559933214 2.8877265806 2.9194598397 2.9511930988 2.982926358 3.0146596171 3.0463928762 3.0781261353 3.1098593945 
3.1415926536 
_radius 1 100 double
7.1156656918e-16 0.01809860724 0.035927411774 0.053227730678 0.069767607461 0.08535382046 0.099841798729 0.1131421275 0.1252223017 
0.13610271931 0.14584657825 0.15454430597 0.16229433416 0.16918322407 0.17526895682 0.18057115802 0.18507088027 0.18872051546 
0.19146203401 0.19324974194 0.19407266057 0.19397176033 0.19304858177 0.1914638157 0.18942643321 0.18717527296 0.18495552509 
0.18299286297 0.18146860701 0.18049993511 0.18012863393 0.18031976698 0.18096927746 0.18191850415 0.18297371731 0.18392897175 
0.18459031627 0.1847989903 0.18445115689 0.18351205091 0.18202289095 0.18009941644 0.17792178874 0.17571707805 0.17373724937 
0.17223648091 0.17145094547 0.17158204628 0.17278197567 0.17514003135 0.17866992253 0.18330109321 0.18887840566 0.19517277861 
0.20190180976 0.20875670571 0.21543113222 0.22164819354 0.22718273824 0.23187715342 0.23564963378 0.23849457108 0.24047527996 
0.24170989753 0.2423520464 0.24256862953 0.24251766443 0.24232910122 0.24209102377 0.24184265459 0.24157445074 0.24123452745 
0.24073979076 0.23998958573 0.23887953393 0.23731364727 0.23521355755 0.23252434385 0.22921670159 0.22528524015 0.22074291588 
0.21561222039 0.20991460094 0.20366027684 0.19684072241 0.18942544778 0.18136352407 0.17258905871 0.16302904265 0.15261191722 
0.14127571099 0.12897527471 0.11568860127 0.1014223003 0.086216102785 0.070145992119 0.053325340406 0.035903368689 0.018060423874 
1.7844452718e-15 
_area 1 100 double
0 0.00062780606547 0.0025029978684 0.0055905556883 0.0098044765024 0.014985808464 0.020898363595 0.027249028435 0.033729243849 
0.040066528989 0.046071052379 0.051661966378 0.056862066545 0.061758601093 0.066441041758 0.070936856593 0.075169274997 0.078956246822 
0.082054045142 0.084227132529 0.085316140537 0.085282811709 0.084223198009 0.082350886397 0.079959012194 0.077372577129 0.074901450272 
0.072802602344 0.071259409742 0.070383854147 0.070234355871 0.070843253707 0.072163207359 0.073933885866 0.075894840981 0.077822333023 
0.079512941279 0.080793044268 0.081544550423 0.081729907807 0.081416279636 0.080770759288 0.080098798446 0.079991717581 0.080468819901 
0.081041215721 0.081809593187 0.082940920131 0.084599652685 0.086978556629 0.090299999185 0.094730015405 0.10027443179 0.10677954472 
0.11398460289 0.12155208306 0.12908959999 0.13618370744 0.14244571113 0.14755801741 0.1513083139 0.15360547419 0.15447997756 
0.15407717249 0.15265797322 0.15068298317 0.14884519406 0.14712221042 0.14535347446 0.14350942101 0.14155827241 0.13943735093 
0.13704296194 0.13424730685 0.13092954028 0.12701864029 0.12254575188 0.11762954533 0.11243120992 0.10703131191 0.10146416399 
0.095800044022 0.090089427393 0.084324262159 0.078445339254 0.072375319683 0.066056632616 0.059479678337 0.052694004634 0.045801490378 
0.038935560135 0.032234779956 0.025823857927 0.019815108256 0.014327845508 0.0095043777548 0.0055075750378 0.0025030070574 0.0006344607891 
6.2450045135e-17 
