# vtk DataFile Version 5.1
vtk output
ASCII
DATASET POLYDATA
POINTS 100 float
-0.18252 -0.115979 0.746729 -0.182286 -0.115772 0.746326 -0.181554 -0.114926 0.74508 
-0.180338 -0.113429 0.743015 -0.178659 -0.111266 0.740173 -0.176549 -0.108421 0.736607 
-0.174044 -0.10488 0.732376 -0.171189 -0.100638 0.727541 -0.168026 -0.0956955 0.722163 
-0.164596 -0.0900689 0.716289 -0.160932 -0.0837861 0.709959 -0.15705 -0.0768895 0.703194 
-0.15295 -0.0694348 0.696001 -0.148604 -0.0614895 0.688367 -0.143961 -0.0531305 0.680265 
-0.138944 -0.0444408 0.671655 -0.133452 -0.0355068 0.662486 -0.127372 -0.0264154 0.652703 
-0.120585 -0.0172512 0.642247 -0.112978 -0.0080958 0.631061 -0.104456 0.000973911 0.619092 
-0.0949574 0.00988512 0.606297 -0.0844602 0.0185687 0.592638 -0.0729898 0.026958 0.57809 
-0.0606207 0.0349881 0.562635 -0.0474736 0.0425944 0.546268 -0.0337078 0.0497128 0.52899 
-0.0195085 0.05628 0.510808 -0.00507267 0.0622347 0.491739 0.00940734 0.0675202 0.471802 
0.0237585 0.0720865 0.451021 0.0378394 0.0758946 0.429425 0.0515477 0.0789188 0.407044 
0.0648219 0.0811502 0.383915 0.0776379 0.0825983 0.360076 0.0899985 0.0832924 0.33557 
0.10192 0.0832806 0.310445 0.113416 0.0826282 0.284752 0.124478 0.0814143 0.25855 
0.135065 0.0797271 0.231902 0.145091 0.0776585 0.204877 0.154419 0.075299 0.177551 
0.162869 0.0727317 0.150002 0.170227 0.0700282 0.122316 0.17626 0.0672449 0.0945818 
0.180741 0.0644214 0.06689 0.183472 0.0615805 0.0393331 0.184306 0.0587296 0.0120026 
0.18317 0.0558639 -0.0150128 0.180077 0.0529714 -0.0416292 0.175127 0.0500367 -0.06777 
0.16851 0.0470474 -0.0933677 0.160488 0.0439976 -0.118366 0.151375 0.0408922 -0.142718 
0.141509 0.0377486 -0.166394 0.131227 0.0345973 -0.189372 0.120827 0.0314807 -0.211643 
0.110554 0.0284498 -0.233207 0.100571 0.0255606 -0.254072 0.0909573 0.0228686 -0.274251 
0.0817039 0.0204234 -0.29376 0.072725 0.0182641 -0.312616 0.0638763 0.0164152 -0.330836 
0.0549789 0.0148836 -0.348436 0.045847 0.0136577 -0.365433 0.0363153 0.0127082 -0.381845 
0.0262625 0.0119907 -0.397695 0.0156294 0.0114498 -0.413012 0.00442871 0.0110241 -0.427833 
-0.00725406 0.0106521 -0.442207 -0.0192686 0.0102779 -0.456196 -0.0314147 0.00985641 -0.46987 
-0.043463 0.00935741 -0.483309 -0.0551777 0.00876813 -0.496598 -0.0663395 0.00809403 -0.509818 
-0.0767648 0.00735789 -0.523039 -0.0863207 0.00659712 -0.536315 -0.094932 0.00585984 -0.549671 
-0.102582 0.00519986 -0.563101 -0.109307 0.00467136 -0.576558 -0.115184 0.00432365 -0.589958 
-0.120315 0.0041965 -0.603175 -0.124813 0.00431657 -0.616053 -0.128785 0.00469518 -0.628409 
-0.132321 0.00532757 -0.640048 -0.135485 0.00619363 -0.650778 -0.138316 0.00725993 -0.660426 
-0.140825 0.00848287 -0.66885 -0.143007 0.00981231 -0.675954 -0.144848 0.0111956 -0.681699 
-0.146333 0.0125812 -0.686108 -0.14746 0.0139219 -0.689264 -0.148241 0.0151772 -0.691308 
-0.148711 0.0163146 -0.692429 -0.148923 0.0173098 -0.692845 -0.148946 0.0181466 -0.692788 
-0.148855 0.018815 -0.692484 -0.148723 0.01931 -0.692134 -0.148609 0.0196297 -0.691893 
-0.148554 0.019774 -0.691861 
LINES 2 100
OFFSETS vtktypeint64
0 100 
CONNECTIVITY vtktypeint64
0 1 2 3 4 5 6 7 8 
9 10 11 12 13 14 15 16 17 
18 19 20 21 22 23 24 25 26 
27 28 29 30 31 32 33 34 35 
36 37 38 39 40 41 42 43 44 
45 46 47 48 49 50 51 52 53 
54 55 56 57 58 59 60 61 62 
63 64 65 66 67 68 69 70 71 
72 73 74 75 76 77 78 79 80 
81 82 83 84 85 86 87 88 89 
90 91 92 93 94 95 96 97 98 
99 
POINT_DATA 100
FIELD FieldData 3
_theta 1 100 double
0 0.031733259127 0.063466518254 0.095199777382 0.12693303651 0.15866629564 0.19039955476 0.22213281389 0.25386607302 
0.28559933214 0.31733259127 0.3490658504 0.38079910953 0.41253236865 0.44426562778 0.47599888691 0.50773214603 0.53946540516 
0.57119866429 0.60293192342 0.63466518254 0.66639844167 0.6981317008 0.72986495992 0.76159821905 0.79333147818 0.82506473731 
0.85679799643 0.88853125556 0.92026451469 0.95199777382 0.98373103294 1.0154642921 1.0471975512 1.0789308103 1.1106640695 
1.1423973286 1.1741305877 1.2058638468 1.237597106 1.2693303651 1.3010636242 1.3327968833 1.3645301425 1.3962634016 
1.4279966607 1.4597299198 1.491463179 1.5231964381 1.5549296972 1.5866629564 1.6183962155 1.6501294746 1.6818627337 
1.7135959929 1.745329252 1.7770625111 1.8087957702 1.8405290294 1.8722622885 1.9039955476 1.9357288068 1.9674620659 
1.999195325 2.0309285841 2.0626618433 2.0943951024 2.1261283615 2.1578616206 2.1895948798 2.2213281389 2.253061398 
2.2847946572 2.3165279163 2.3482611754 2.3799944345 2.4117276937 2.4434609528 2.4751942119 2.506927471 2.5386607302 
2.5703939893 2.6021272484 2.6338605076 2.6655937667 2.6973270258 2.7290602849 2.7607935441 2.7925268032 2.8242600623 
2.8559933214 2.8877265806 2.9194598397 2.9511930988 2.982926358 3.0146596171 3.0463928762 3.0781261353 3.1098593945 
3.1415926536 
_radius 1 100 double
1.4629057913e-15 0.017274761164 0.034274403116 0.050749778308 0.066502905514 0.081402507728 0.095389244982 0.10846995498 0.12070212857 
0.13217160324 0.14296764664 0.15315991073 0.16278110604 0.17181791883 0.18021111805 0.18786437315 0.19466021943 0.20048085014 
0.20523090579 0.208859136 0.21137577081 0.2128627349 0.21347452307 0.21342861889 0.21298571357 0.21242158689 0.21199422979 
0.21191135689 0.21230433969 0.21321406945 0.2145919038 0.21631514673 0.2182128847 0.22009591433 0.221784505 0.22312958035 
0.22402591319 0.22441871897 0.22430592038 0.2237373363 0.22281095303 0.22166654581 0.22047784807 0.21944502616 0.21878841422 
0.21874202546 0.21954196742 0.22140248177 0.22447512678 0.22879969623 0.23427236732 0.24065336219 0.24760972437 0.25477134259 
0.26178272684 0.26834261362 0.27422884939 0.27930852017 0.2835349106 0.2869341042 0.2895848542 0.29159562695 0.29308237471 
0.29414973583 0.29487726278 0.29531126191 0.29546210331 0.29530645558 0.29479370431 0.29385565408 0.29241836541 0.29041463755 
0.28779534517 0.28453774506 0.28064912243 0.27616479338 0.2711404608 0.26564006537 0.25972133336 0.25342191371 0.24674905481 
0.23967506435 0.23213944962 0.22405705646 0.21533025246 0.2058626469 0.19557207306 0.18440126814 0.17232539759 0.15935598605 
0.14554099571 0.13096099524 0.1157217482 0.099944069656 0.083752302601 0.067263117438 0.050576438027 0.033770076309 0.016899088263 
2.2033024585e-16 
_area 1 100 double
0 0.00075845133002 0.0029762725623 0.0064928812352 0.011076538302 0.016465545856 0.022406478898 0.028680534597 0.035115108169 
0.041582940707 0.047993356198 0.054279160113 0.060380531151 0.066226589533 0.071718140788 0.076718938726 0.081062324157 0.084574278626 
0.087107490848 0.088577611791 0.088992491465 0.088466693529 0.087216211637 0.085533805708 0.083755867105 0.082368462308 0.081794843987 
0.081961978199 0.082886444128 0.084582359764 0.087096773163 0.090421210482 0.094436795425 0.099028141703 0.10401980919 0.10917847251 
0.11422806736 0.11888920484 0.12294421537 0.12630154713 0.12901339761 0.13120987455 0.13299519566 0.13440753435 0.13546799535 
0.13628278193 0.13714796146 0.13850374925 0.14077496914 0.14437746808 0.14978558581 0.1576863478 0.16755061194 0.17802285099 
0.18840132043 0.19821197585 0.20711476485 0.21489212022 0.221438954 0.22674141078 0.23084598266 0.23382899816 0.23578204092 
0.23736112349 0.23879807094 0.23963129288 0.239564919 0.23852695271 0.23645941718 0.23332624547 0.22910541573 0.22379501346 
0.21743205468 0.21010941257 0.20197809901 0.1932312349 0.18407670171 0.17470911347 0.16528681839 0.15591586272 0.14664333769 
0.13746177058 0.1283232563 0.11915894022 0.10989830924 0.10048479507 0.090887844466 0.081113424993 0.071213302 0.061290371447 
0.051496407206 0.042021007888 0.033074178666 0.024867100567 0.017595396711 0.011427498745 0.0064987339603 0.0029102149905 0.00073077304155 
4.5270973518e-17 
