# vtk DataFile Version 5.1
vtk output
ASCII
DATASET POLYDATA
POINTS 100 float
-0.133213 -0.0893852 0.697249 -0.133481 -0.0891795 0.697364 -0.134251 -0.0883828 0.697658 
-0.135417 -0.0870337 0.698016 -0.136814 -0.0851908 0.698267 -0.138228 -0.0829246 0.698193 
-0.139425 -0.0803081 0.697562 -0.140162 -0.0774062 0.69615 -0.140218 -0.0742669 0.693765 
-0.139404 -0.0709138 0.690265 -0.137584 -0.0673423 0.685573 -0.134681 -0.063519 0.679681 
-0.130681 -0.059386 0.672643 -0.125631 -0.0548673 0.664568 -0.119629 -0.0498794 0.655601 
-0.112811 -0.0443426 0.645899 -0.105341 -0.038193 0.635615 -0.0973864 -0.0313942 0.624871 
-0.0891125 -0.0239454 0.613752 -0.0806632 -0.0158872 0.602288 -0.0721541 -0.0073037 0.590459 
-0.0636671 0.00168077 0.578198 -0.055249 0.0109075 0.565403 -0.0469141 0.0201931 0.551953 
-0.0386492 0.0293416 0.537728 -0.0304215 0.0381572 0.522624 -0.0221866 0.046457 0.50657 
-0.0138963 0.0540819 0.489536 -0.00550625 0.0609058 0.471541 0.00301907 0.0668407 0.452647 
0.0117021 0.0718388 0.432952 0.0205505 0.0758914 0.412578 0.0295559 0.0790241 0.391656 
0.0386949 0.0812903 0.370309 0.0479291 0.082763 0.348637 0.0572066 0.0835264 0.32671 
0.0664619 0.0836676 0.304558 0.0756167 0.0832704 0.282176 0.0845795 0.0824098 0.259525 
0.0932463 0.08115 0.236544 0.101501 0.0795434 0.213165 0.109217 0.0776319 0.189325 
0.116261 0.0754499 0.164984 0.122497 0.0730278 0.140129 0.127793 0.0703952 0.11479 
0.132026 0.0675847 0.089036 0.135093 0.0646337 0.0629737 0.136919 0.0615859 0.0367408 
0.137458 0.0584908 0.0104942 0.136705 0.055402 -0.0156032 0.134692 0.0523751 -0.0413959 
0.131492 0.0494644 -0.0667474 0.12721 0.0467197 -0.09155 0.121978 0.0441831 -0.11573 
0.115947 0.0418869 -0.139247 0.109274 0.0398519 -0.162095 0.102109 0.0380872 -0.184291 
0.0945885 0.0365908 -0.205871 0.0868241 0.0353514 -0.226877 0.0788987 0.0343501 -0.24735 
0.0708645 0.0335638 -0.267325 0.062744 0.0329672 -0.286819 0.0545362 0.0325357 -0.30584 
0.0462241 0.0322474 -0.32438 0.0377839 0.0320841 -0.342424 0.0291958 0.0320324 -0.359951 
0.0204523 0.0320833 -0.376943 0.0115657 0.032232 -0.393392 0.00257223 0.0324765 -0.409298 
-0.00646677 0.0328166 -0.424673 -0.0154679 0.0332526 -0.439543 -0.024331 0.0337839 -0.45394 
-0.0329477 0.0344083 -0.467898 -0.0412104 0.0351208 -0.481448 -0.0490222 0.0359135 -0.494612 
-0.0563055 0.0367755 -0.507399 -0.0630087 0.0376925 -0.5198 -0.0691101 0.0386475 -0.531789 
-0.0746189 0.0396208 -0.543327 -0.0795724 0.0405912 -0.554364 -0.0840314 0.0415357 -0.564848 
-0.0880727 0.0424311 -0.574729 -0.0917808 0.0432544 -0.583969 -0.0952396 0.0439837 -0.592547 
-0.098524 0.0445999 -0.60046 -0.101694 0.0450869 -0.607725 -0.104792 0.0454337 -0.614377 
-0.107837 0.0456349 -0.620465 -0.110831 0.0456914 -0.626042 -0.113754 0.0456117 -0.63116 
-0.116575 0.045411 -0.635864 -0.119252 0.0451116 -0.640181 -0.12174 0.0447415 -0.644122 
-0.123993 0.0443329 -0.647675 -0.125966 0.0439204 -0.650811 -0.127623 0.0435385 -0.653487 
-0.128933 0.0432197 -0.655652 -0.129874 0.0429914 -0.657256 -0.130428 0.0428745 -0.658256 
-0.130588 0.0428817 -0.658622 
LINES 2 100
OFFSETS vtktypeint64
0 100 
CONNECTIVITY vtktypeint64
0 1 2 3 4 5 6 7 8 
9 10 11 12 13 14 15 16 17 
18 19 20 21 22 23 24 25 26 
27 28 29 30 31 32 33 34 35 
36 37 38 39 40 41 42 43 44 
45 46 47 48 49 50 51 52 53 
54 55 56 57 58 59 60 61 62 
63 64 65 66 67 68 69 70 71 
72 73 74 75 76 77 78 79 80 
81 82 83 84 85 86 87 88 89 
90 91 92 93 94 95 96 97 98 
99 
POINT_DATA 100
FIELD FieldData 3
_theta 1 100 double
0 0.031733259127 0.063466518254 0.095199777382 0.12693303651 0.15866629564 0.19039955476 0.22213281389 0.25386607302 
0.28559933214 0.31733259127 0.3490658504 0.38079910953 0.41253236865 0.44426562778 0.47599888691 0.50773214603 0.53946540516 
0.57119866429 0.60293192342 0.63466518254 0.66639844167 0.6981317008 0.72986495992 0.76159821905 0.79333147818 0.82506473731 
0.85679799643 0.88853125556 0.92026451469 0.95199777382 0.98373103294 1.0154642921 1.0471975512 1.0789308103 1.1106640695 
1.1423973286 1.1741305877 1.2058638468 1.237597106 1.2693303651 1.3010636242 1.3327968833 1.3645301425 1.3962634016 
1.4279966607 1.4597299198 1.491463179 1.5231964381 1.5549296972 1.5866629564 1.6183962155 1.6501294746 1.6818627337 
1.7135959929 1.745329252 1.7770625111 1.8087957702 1.8405290294 1.8722622885 1.9039955476 1.9357288068 1.9674620659 
1.999195325 2.0309285841 2.0626618433 2.0943951024 2.1261283615 2.1578616206 2.1895948798 2.2213281389 2.253061398 
2.2847946572 2.3165279163 2.3482611754 2.3799944345 2.4117276937 2.4434609528 2.4751942119 2.506927471 2.5386607302 
2.5703939893 2.6021272484 2.6338605076 2.6655937667 2.6973270258 2.7290602849 2.7607935441 2.7925268032 2.8242600623 
2.8559933214 2.8877265806 2.9194598397 2.9511930988 2.982926358 3.0146596171 3.0463928762 3.0781261353 3.1098593945 
3.1415926536 
_radius 1 100 double
1.2468402669e-15 0.017397066448 0.034625243661 0.051513327369 0.06789742911 0.083625096881 0.098559097748 0.11258052051 0.12559087978 
0.13751304846 0.1482911021 0.1578894362 0.1662916806 0.17349989221 0.17953428083 0.18443345561 0.18825504273 0.19107657041 
0.19299660016 0.19413596113 0.19463852611 0.19467044956 0.19441651601 0.19407245492 0.19383278625 0.19387485021 0.19434094109 
0.19532155527 0.19684317718 0.19886340967 0.20127479452 0.20391700316 0.2065957132 0.20910544827 0.21125284413 0.21287660578 
0.21386172981 0.21414826148 0.21373641851 0.21268839824 0.21112507185 0.20921624665 0.20716553358 0.20519279771 0.20351762561 
0.20234612848 0.20186115118 0.20221371436 0.20351283336 0.20581267635 0.20909973385 0.2132858649 0.21821273705 0.22366870007 
0.22941394091 0.23520766223 0.24083216802 0.24611091402 0.25091932458 0.25518835126 0.2589015678 0.26208713208 0.264806174 
0.26713912323 0.26917130697 0.27097899081 0.27261699875 0.27410908078 0.27544213635 0.27656509749 0.27739269906 0.27781364103 
0.27770196596 0.27692996708 0.2753806913 0.27295820046 0.26959427383 0.26525107922 0.25992021931 0.2536191663 0.24638628205 
0.23827542309 0.22935071749 0.2196816823 0.20933860198 0.19838809818 0.1868890568 0.17488939857 0.16242437683 0.14951697731 
0.13618054887 0.12242320155 0.1082530677 0.093683418322 0.078736823694 0.063447872589 0.047864270797 0.03204636486 0.016065285854 
4.4335945755e-16 
_area 1 100 double
0 0.00071912395367 0.0028487499553 0.0063072494657 0.010964345289 0.016650508432 0.023169866383 0.030314336946 0.037876112926 
0.045656408336 0.053469272014 0.061139686214 0.068496715234 0.075365810567 0.081566676273 0.086921546727 0.091273977903 0.094513049978 
0.096594720825 0.097552392751 0.097492579331 0.096577310951 0.095000057326 0.092964187608 0.090671438728 0.088324031974 0.086146517615 
0.084436813399 0.083470287143 0.083330263567 0.084105106044 0.085828769409 0.08845662958 0.091929536657 0.09586835943 0.099645915122 
0.10281521001 0.10507241619 0.10631362999 0.10664349 0.10629219886 0.10553051812 0.10465365349 0.10380304563 0.10310275 
0.10265622973 0.10258382251 0.10309015729 0.10453362288 0.10807951154 0.11288400654 0.11853668779 0.12494321619 0.13197151338 
0.13944285926 0.14714251 0.1548345531 0.1622796797 0.16925640636 0.1755821815 0.18112693677 0.18581523284 0.18962144232 
0.19256466869 0.19470302191 0.19612041904 0.19690311275 0.19711318479 0.1967695103 0.19584051894 0.19424699215 0.19187376093 
0.1885943471 0.18431242475 0.17900409814 0.17272654601 0.1655899483 0.15772498618 0.14925680168 0.14028444673 0.130879745 
0.12111083062 0.11107113858 0.10089295847 0.090740453297 0.080787423965 0.071188827189 0.062056720516 0.053449827811 0.045380630317 
0.037836976644 0.030808955198 0.024309949225 0.018385841881 0.013113234806 0.0085905240654 0.0049252522342 0.0022201597671 0.0005598803382 
4.1071210217e-17 
