# vtk DataFile Version 5.1
vtk output
ASCII
DATASET POLYDATA
POINTS 100 float
-0.109135 -0.0126224 0.767763 -0.109317 -0.0127344 0.767555 -0.109911 -0.0128499 0.76695 
-0.110825 -0.0129252 0.765898 -0.111912 -0.0128929 0.764325 -0.112985 -0.0126687 0.762136 
-0.11383 -0.0121593 0.759227 -0.114224 -0.0112718 0.755493 -0.113955 -0.00992236 0.750838 
-0.112832 -0.00804414 0.745186 -0.110707 -0.00559389 0.738482 -0.10748 -0.00255606 0.7307 
-0.103106 0.00105548 0.721841 -0.097595 0.00519815 0.711929 -0.0910119 0.0098036 0.701007 
-0.0834651 0.0147825 0.689131 -0.0750983 0.0200306 0.676364 -0.0660773 0.025435 0.662763 
-0.056577 0.030881 0.648379 -0.0467681 0.0362574 0.633247 -0.0368063 0.0414619 0.61739 
-0.0268227 0.046404 0.600813 -0.0169178 0.0510076 0.58351 -0.00715838 0.0552114 0.565463 
0.0024224 0.0589691 0.546654 0.0118221 0.0622481 0.527063 0.0210639 0.0650284 0.506677 
0.0301891 0.0673008 0.485495 0.0392492 0.0690653 0.463528 0.0482972 0.0703299 0.440799 
0.0573793 0.0711094 0.417347 0.0665268 0.0714241 0.393217 0.0757502 0.0712991 0.368464 
0.0850341 0.0707632 0.343144 0.0943343 0.0698477 0.317312 0.103577 0.0685852 0.29102 
0.112659 0.0670083 0.264314 0.121452 0.0651479 0.237236 0.129808 0.0630324 0.209822 
0.137562 0.0606862 0.182109 0.144545 0.0581303 0.154135 0.150589 0.0553821 0.125945 
0.155538 0.0524567 0.0975927 0.159258 0.0493689 0.069146 0.16164 0.0461356 0.040686 
0.162614 0.0427785 0.0123074 0.16215 0.0393263 -0.0158834 0.160259 0.0358173 -0.0437724 
0.156996 0.0322997 -0.0712427 0.152456 0.0288322 -0.0981807 0.14677 0.0254818 -0.124482 
0.140092 0.0223213 -0.150058 0.132595 0.0194251 -0.174838 0.12446 0.0168643 -0.198774 
0.115861 0.0147013 -0.221845 0.106962 0.0129853 -0.244049 0.0979034 0.0117478 -0.265408 
0.0887997 0.0109999 -0.285962 0.0797356 0.0107316 -0.305763 0.0707665 0.0109128 -0.32487 
0.0619215 0.011496 -0.343347 0.0532085 0.012421 -0.361255 0.0446213 0.0136205 -0.378652 
0.0361472 0.0150262 -0.395586 0.0277751 0.0165748 -0.412099 0.0195013 0.0182133 -0.428225 
0.0113351 0.0199018 -0.443988 0.00330111 0.0216161 -0.459408 -0.00456087 0.0233468 -0.474499 
-0.0121978 0.025097 -0.489272 -0.0195477 0.0268788 -0.503734 -0.0265458 0.0287082 -0.517891 
-0.0331299 0.0305999 -0.531744 -0.0392475 0.0325625 -0.545292 -0.0448598 0.0345948 -0.558527 
-0.0499458 0.0366836 -0.571434 -0.0545028 0.0388034 -0.583989 -0.0585466 0.0409183 -0.59616 
-0.0621075 0.042985 -0.607905 -0.0652268 0.0449575 -0.619175 -0.0679509 0.0467926 -0.629914 
-0.0703261 0.0484549 -0.640062 -0.0723938 0.0499207 -0.64956 -0.0741867 0.0511815 -0.658351 
-0.0757268 0.0522446 -0.666389 -0.0770259 0.0531319 -0.673638 -0.0780867 0.0538776 -0.680077 
-0.078907 0.054523 -0.685701 -0.0794834 0.0551118 -0.690526 -0.0798167 0.0556838 -0.694584 
-0.0799152 0.0562703 -0.697924 -0.0797989 0.0568899 -0.70061 -0.0795 0.0575461 -0.702717 
-0.0790631 0.0582277 -0.704327 -0.0785425 0.0589102 -0.705522 -0.0779983 0.0595595 -0.706384 
-0.0774911 0.0601366 -0.706986 -0.0770759 0.0606038 -0.707389 -0.0767969 0.0609293 -0.707641 
-0.0766828 0.0610919 -0.707771 
LINES 2 100
OFFSETS vtktypeint64
0 100 
CONNECTIVITY vtktypeint64
0 1 2 3 4 5 6 7 8 
9 10 11 12 13 14 15 16 17 
18 19 20 21 22 23 24 25 26 
27 28 29 30 31 32 33 34 35 
36 37 38 39 40 41 42 43 44 
45 46 47 48 49 50 51 52 53 
54 55 56 57 58 59 60 61 62 
63 64 65 66 67 68 69 70 71 
72 73 74 75 76 77 78 79 80 
81 82 83 84 85 86 87 88 89 
90 91 92 93 94 95 96 97 98 
99 
POINT_DATA 100
FIELD FieldData 3
_theta 1 100 double
0 0.031733259127 0.063466518254 0.095199777382 0.12693303651 0.15866629564 0.19039955476 0.22213281389 0.25386607302 
0.28559933214 0.31733259127 0.3490658504 0.38079910953 0.41253236865 0.44426562778 0.47599888691 0.50773214603 0.53946540516 
0.57119866429 0.60293192342 0.63466518254 0.66639844167 0.6981317008 0.72986495992 0.76159821905 0.79333147818 0.82506473731 
0.85679799643 0.88853125556 0.92026451469 0.95199777382 0.98373103294 1.0154642921 1.0471975512 1.0789308103 1.1106640695 
1.1423973286 1.1741305877 1.2058638468 1.237597106 1.2693303651 1.3010636242 1.3327968833 1.3645301425 1.3962634016 
1.4279966607 1.4597299198 1.491463179 1.5231964381 1.5549296972 1.5866629564 1.6183962155 1.6501294746 1.6818627337 
1.7135959929 1.745329252 1.7770625111 1.8087957702 1.8405290294 1.8722622885 1.9039955476 1.9357288068 1.9674620659 
1.999195325 2.0309285841 2.0626618433 2.0943951024 2.1261283615 2.1578616206 2.1895948798 2.2213281389 2.253061398 
2.2847946572 2.3165279163 2.3482611754 2.3799944345 2.4117276937 2.4434609528 2.4751942119 2.506927471 2.5386607302 
2.5703939893 2.6021272484 2.6338605076 2.6655937667 2.6973270258 2.7290602849 2.7607935441 2.7925268032 2.8242600623 
2.8559933214 2.8877265806 2.9194598397 2.9511930988 2.982926358 3.0146596171 3.0463928762 3.0781261353 3.1098593945 
3.1415926536 
_radius 1 100 double
2.1240978841e-16 0.017034307379 0.033888693045 0.050379518915 0.066329676079 0.081572832366 0.095958200478 0.10935558077 0.12166018302 
0.132796582 0.14272118003 0.15142273113 0.15892076656 0.16526208008 0.17051572948 0.17476724875 0.1781128898 0.18065465904 
0.18249663916 0.18374262639 0.18449461331 0.18485132096 0.18490602145 0.18474334141 0.18443542727 0.18403841698 0.18359024788 
0.18311043617 0.18260197337 0.18205525531 0.18145394594 0.18078259974 0.18003555165 0.17922605107 0.17839391515 0.17760918349 
0.17696882003 0.17658449123 0.17656264806 0.17698242745 0.17787963611 0.17924425183 0.18103343954 0.18319433186 0.18568683168 
0.18849862725 0.19164880765 0.19517994565 0.19914122956 0.20356756132 0.20846081627 0.21377868812 0.21943376066 0.22530200107 
0.23123736949 0.23708843937 0.24271354267 0.24799224953 0.2528323184 0.25717226587 0.26098030277 0.26425060188 0.26699781594 
0.26925059881 0.27104472784 0.27241635523 0.27339592581 0.27400332616 0.27424478837 0.27411189429 0.27358269793 0.27262457525 
0.27119806475 0.26926082663 0.26677097659 0.26368937502 0.25998083419 0.2556145089 0.25056387919 0.24480670127 0.23832514702 
0.23110617215 0.22314204269 0.21443094418 0.20497765537 0.19479431163 0.18390125249 0.17232783908 0.16011298582 0.14730506006 
0.13396084269 0.12014344033 0.10591934499 0.091355126584 0.076514392736 0.061455586917 0.04623094969 0.030886644498 0.015463785876 
3.0396099984e-16 
_area 1 100 double
0 0.00070200035045 0.0027809127412 0.006157154657 0.010702241172 0.016242102018 0.02256056076 0.029405989463 0.036503621905 
0.043573208681 0.050349243926 0.056600177741 0.062143524977 0.066854807364 0.070669439993 0.073578048726 0.075617261456 0.076859310918 
0.077404157211 0.077376842946 0.076930324538 0.07624985381 0.075548354828 0.075032046495 0.074875118992 0.075114644326 0.07574839499 
0.076799527933 0.07803440953 0.079224965172 0.080176256912 0.080764565915 0.080966508445 0.080885778776 0.080771304301 0.080985678427 
0.081857659022 0.083524773247 0.085930612414 0.088891389183 0.092175984922 0.095586779659 0.098981761759 0.10227087788 0.10542158116 
0.108460827 0.11149122509 0.1147003451 0.11833301891 0.12262363967 0.12771850558 0.13362872043 0.14023028426 0.14729730906 
0.15454503644 0.16167067751 0.1683905726 0.17447183927 0.1797533694 0.18415198052 0.18765481064 0.19030439982 0.19218346813 
0.19340114895 0.19407717974 0.19432295767 0.19422539959 0.19383803026 0.19317616121 0.19221398884 0.19088692762 0.18910197156 
0.18675437298 0.18374602474 0.18000034983 0.17547052585 0.17014158504 0.16402881944 0.15717396406 0.1496396083 0.1415024714 
0.13284645872 0.12375648403 0.11431430391 0.10459773312 0.094683911121 0.084655779975 0.074609436063 0.064659407439 0.054939493193 
0.045598364754 0.036791048744 0.028668766481 0.021369772259 0.015012978849 0.009694945332 0.0054897958641 0.0024510737521 0.00061440264291 
2.9598299069e-17 
