# vtk DataFile Version 5.1
vtk output
ASCII
DATASET POLYDATA
POINTS 100 float
-0.147918 0.0370331 0.731052 -0.147929 0.0368417 0.730933 -0.147969 0.0364574 0.730593 
-0.147985 0.0359072 0.729924 -0.147896 0.0352346 0.728758 -0.147595 0.0344987 0.726896 
-0.146961 0.0337718 0.724123 -0.14587 0.0331369 0.720247 -0.144201 0.0326834 0.715116 
-0.141845 0.0325028 0.708638 -0.138717 0.0326824 0.700797 -0.134755 0.0333002 0.691645 
-0.129927 0.0344178 0.681306 -0.12423 0.0360754 0.669948 -0.11769 0.0382866 0.657769 
-0.110357 0.0410358 0.644966 -0.102301 0.0442766 0.631715 -0.0936095 0.0479331 0.618145 
-0.0843802 0.0519033 0.604327 -0.0747186 0.0560644 0.590266 -0.0647329 0.06028 0.575907 
-0.0545312 0.0644081 0.561141 -0.0442184 0.0683101 0.545831 -0.0338935 0.0718582 0.529827 
-0.0236475 0.074943 0.512998 -0.0135605 0.0774781 0.495245 -0.00369934 0.0794035 0.476523 
0.00588452 0.0806859 0.456849 0.0151574 0.0813179 0.436298 0.0241045 0.081314 0.415 
0.0327301 0.080707 0.39312 0.041056 0.079542 0.370837 0.0491188 0.0778725 0.348322 
0.056964 0.0757549 0.325716 0.0646397 0.0732465 0.303106 0.0721886 0.0704029 0.28052 
0.0796384 0.0672778 0.257919 0.0869942 0.0639237 0.235202 0.0942312 0.0603933 0.212223 
0.101289 0.0567413 0.188807 0.108073 0.0530253 0.164776 0.114452 0.049307 0.139975 
0.120267 0.0456514 0.114294 0.125344 0.0421253 0.0876852 0.1295 0.0387947 0.0601752 
0.132565 0.035721 0.0318675 0.134391 0.0329575 0.00293558 0.134874 0.0305457 -0.0263906 
0.133956 0.0285131 -0.0558444 0.131641 0.026871 -0.085145 0.127994 0.0256156 -0.114022 
0.123136 0.0247294 -0.142235 0.11724 0.0241847 -0.169594 0.110518 0.0239482 -0.195964 
0.1032 0.0239862 -0.221274 0.0955193 0.0242689 -0.245512 0.0876961 0.0247745 -0.268714 
0.0799174 0.0254915 -0.290953 0.0723265 0.0264192 -0.312321 0.0650145 0.0275658 -0.332916 
0.0580183 0.0289453 -0.352829 0.0513235 0.0305719 -0.372134 0.0448733 0.032455 -0.390884 
0.0385807 0.0345935 -0.409111 0.0323441 0.0369712 -0.426829 0.0260628 0.0395545 -0.444044 
0.0196527 0.0422916 -0.460763 0.0130583 0.0451155 -0.476998 0.00626156 0.0479482 -0.492777 
-0.000714211 0.0507079 -0.508146 -0.00780549 0.0533173 -0.523167 -0.0149141 0.0557112 -0.537915 
-0.0219165 0.0578447 -0.552468 -0.0286761 0.0596982 -0.566901 -0.0350555 0.0612802 -0.581271 
-0.04093 0.062627 -0.59561 -0.0461978 0.0637984 -0.609918 -0.0507883 0.0648711 -0.624157 
-0.054666 0.065929 -0.638253 -0.0578321 0.0670534 -0.652101 -0.0603206 0.0683118 -0.665569 
-0.0621935 0.0697495 -0.678518 -0.0635324 0.0713831 -0.690804 -0.0644303 0.0731975 -0.702299 
-0.0649824 0.0751467 -0.712896 -0.0652795 0.0771589 -0.72252 -0.0654011 0.0791444 -0.73113 
-0.0654128 0.0810064 -0.738725 -0.0653638 0.0826527 -0.745332 -0.0652882 0.0840066 -0.751009 
-0.0652065 0.0850169 -0.755832 -0.0651289 0.085664 -0.759887 -0.0650588 0.0859627 -0.763262 
-0.0649954 0.0859605 -0.766041 -0.0649369 0.0857319 -0.768296 -0.0648817 0.0853691 -0.770087 
-0.0648295 0.0849709 -0.771459 -0.0647811 0.08463 -0.772442 -0.0647381 0.0844222 -0.773057 
-0.064702 0.084396 -0.773311 
LINES 2 100
OFFSETS vtktypeint64
0 100 
CONNECTIVITY vtktypeint64
0 1 2 3 4 5 6 7 8 
9 10 11 12 13 14 15 16 17 
18 19 20 21 22 23 24 25 26 
27 28 29 30 31 32 33 34 35 
36 37 38 39 40 41 42 43 44 
45 46 47 48 49 50 51 52 53 
54 55 56 57 58 59 60 61 62 
63 64 65 66 67 68 69 70 71 
72 73 74 75 76 77 78 79 80 
81 82 83 84 85 86 87 88 89 
90 91 92 93 94 95 96 97 98 
99 
POINT_DATA 100
FIELD FieldData 3
_theta 1 100 double
0 0.031733259127 0.063466518254 0.095199777382 0.12693303651 0.15866629564 0.19039955476 0.22213281389 0.25386607302 
0.28559933214 0.31733259127 0.3490658504 0.38079910953 0.41253236865 0.44426562778 0.47599888691 0.50773214603 0.53946540516 
0.57119866429 0.60293192342 0.63466518254 0.66639844167 0.6981317008 0.72986495992 0.76159821905 0.79333147818 0.82506473731 
0.85679799643 0.88853125556 0.92026451469 0.95199777382 0.98373103294 1.0154642921 1.0471975512 1.0789308103 1.1106640695 
1.1423973286 1.1741305877 1.2058638468 1.237597106 1.2693303651 1.3010636242 1.3327968833 1.3645301425 1.3962634016 
1.4279966607 1.4597299198 1.491463179 1.5231964381 1.5549296972 1.5866629564 1.6183962155 1.6501294746 1.6818627337 
1.7135959929 1.745329252 1.7770625111 1.8087957702 1.8405290294 1.8722622885 1.9039955476 1.9357288068 1.9674620659 
1.999195325 2.0309285841 2.0626618433 2.0943951024 2.1261283615 2.1578616206 2.1895948798 2.2213281389 2.253061398 
2.2847946572 2.3165279163 2.3482611754 2.3799944345 2.4117276937 2.4434609528 2.4751942119 2.506927471 2.5386607302 
2.5703939893 2.6021272484 2.6338605076 2.6655937667 2.6973270258 2.7290602849 2.7607935441 2.7925268032 2.8242600623 
2.8559933214 2.8877265806 2.9194598397 2.9511930988 2.982926358 3.0146596171 3.0463928762 3.0781261353 3.1098593945 
3.1415926536 
_radius 1 100 double
2.2420252351e-16 0.014203601804 0.028209891443 0.041830993483 0.054899218426 0.067274071191 0.078846211925 0.089538382251 0.099303836701 
0.10812312697 0.11600011505 0.12295788089 0.12903486093 0.1342812536 0.13875556771 0.14252119722 0.14564302941 0.14818425387 
0.15020370055 0.15175418924 0.15288248001 0.15363133705 0.15404379063 0.15416887297 0.15406715638 0.15381385447 0.15349755928 
0.15321389488 0.15305489453 0.15309607593 0.15338373061 0.15392502278 0.1546832479 0.15557979917 0.15650285256 0.15732115702 
0.15790060841 0.1581215768 0.15789543965 0.1571788484 0.15598395832 0.15438252807 0.15250190132 0.15051213935 0.14860651203 
0.14698077503 0.14581687012 0.14527312383 0.14547929751 0.14653359739 0.14849913248 0.15139846241 0.15520685663 0.15984677331 
0.16518655149 0.17104532964 0.17720456633 0.18342483972 0.18946526733 0.19510241512 0.20014615483 0.20445117135 0.20792395007 
0.21052553091 0.21227016568 0.21321979993 0.21347447176 0.21315928106 0.21240923108 0.21135370158 0.21010246909 0.20873503935 
0.20729459094 0.2057870461 0.2041848029 0.20243379175 0.20046211306 0.19818870253 0.19553105996 0.19241169341 0.18876328057 
0.18453255825 0.17968274967 0.17419414896 0.16806248097 0.16129491178 0.15390406592 0.1459010052 0.1372886831 0.12805768334 
0.11818583881 0.10764249353 0.096396928394 0.084429323674 0.071742035427 0.058369011554 0.044381643838 0.029889990312 0.015038989304 
5.8273608369e-16 
_area 1 100 double
0 0.00050025331141 0.0019827363463 0.0043939598904 0.0076483659569 0.01163143315 0.016201590005 0.021191617901 0.026411855125 
0.03165775444 0.036722914811 0.041416238639 0.045579465844 0.049100112858 0.051915659885 0.054008042769 0.05539220317 0.05610573503 
0.056205212008 0.05576863088 0.054897120222 0.05370849283 0.05232350244 0.050855352349 0.049408298913 0.048079356594 0.046957077596 
0.046116212057 0.04561089811 0.045478478231 0.045780131814 0.04656924502 0.047767609683 0.04924783261 0.050859711031 0.052415696636 
0.053717668534 0.054598047408 0.054970843241 0.054892972506 0.054619857146 0.05450029007 0.054639933626 0.054941401804 0.055351843533 
0.055892181721 0.056621208973 0.057609284966 0.058930742168 0.060679869157 0.062993328722 0.066046164585 0.069999313685 0.074917855712 
0.080720801682 0.08719309145 0.094029506713 0.10087732345 0.10737292507 0.1131795563 0.11802341899 0.12171657095 0.12416123182 
0.12534089441 0.1253099823 0.1241971577 0.12228271557 0.11985432825 0.11693910922 0.11369119545 0.11029888407 0.10694045101 
0.10375285435 0.10081426318 0.0981393975 0.095685418275 0.093364652908 0.091060215311 0.088642151983 0.085983495168 0.082975640927 
0.079541132145 0.07564121232 0.071276720877 0.066483388262 0.06132430556 0.055881720566 0.050248315609 0.044517496708 0.038774163834 
0.033090150908 0.027528714539 0.022157939718 0.017066320736 0.012371611909 0.0082183417075 0.0047651127219 0.002165763413 0.00054892135481 
5.9802590318e-17 
