# vtk DataFile Version 5.1
vtk output
ASCII
DATASET POLYDATA
POINTS 100 float
-0.129707 -0.0145613 0.821492 -0.129725 -0.0147658 0.821411 -0.129844 -0.0152102 0.821211 
-0.130021 -0.0158568 0.820781 -0.130193 -0.0166463 0.819949 -0.130276 -0.0175012 0.818501 
-0.130177 -0.0183322 0.816206 -0.129804 -0.0190434 0.812839 -0.129069 -0.0195398 0.808205 
-0.127898 -0.0197322 0.802165 -0.126234 -0.0195431 0.794641 -0.124039 -0.0189106 0.78563 
-0.121291 -0.0177911 0.775196 -0.117986 -0.0161598 0.763466 -0.114128 -0.0140109 0.750608 
-0.109728 -0.0113556 0.736818 -0.104798 -0.00821937 0.722293 -0.0993471 -0.00463886 0.707213 
-0.0933793 -0.000658736 0.691724 -0.0868952 0.00367125 0.675925 -0.079893 0.00829844 0.659864 
-0.072372 0.0131685 0.64354 -0.0643371 0.0182256 0.626906 -0.0558034 0.023412 0.609886 
-0.0467997 0.0286661 0.592384 -0.0373704 0.0339217 0.574304 -0.027576 0.0391055 0.555558 
-0.017491 0.0441372 0.536082 -0.00719953 0.0489288 0.515838 0.00320996 0.0533869 0.494819 
0.0136509 0.0574151 0.473042 0.0240443 0.0609187 0.450544 0.0343237 0.0638106 0.427372 
0.0444373 0.0660172 0.403573 0.0543481 0.0674853 0.379188 0.0640306 0.0681877 0.354242 
0.0734658 0.0681279 0.328742 0.0826337 0.0673423 0.302684 0.0915053 0.0659009 0.276048 
0.100035 0.0639039 0.248816 0.108154 0.0614768 0.220974 0.115768 0.0587622 0.192528 
0.122759 0.0559105 0.163507 0.128983 0.0530689 0.133974 0.134288 0.0503713 0.104024 
0.138517 0.0479281 0.0737858 0.141524 0.0458191 0.043413 0.14319 0.0440884 0.0130765 
0.143431 0.0427431 -0.0170477 0.14221 0.0417549 -0.0467902 0.139544 0.0410661 -0.076 
0.135502 0.0405971 -0.104554 0.130207 0.0402567 -0.132361 0.12382 0.0399529 -0.159365 
0.11653 0.0396038 -0.185545 0.108543 0.0391464 -0.210903 0.100061 0.0385439 -0.235463 
0.0912672 0.0377893 -0.259257 0.0823172 0.0369056 -0.282315 0.0733265 0.0359432 -0.30466 
0.0643683 0.0349732 -0.3263 0.0554739 0.0340798 -0.347229 0.0466386 0.0333505 -0.367427 
0.0378305 0.0328664 -0.386863 0.0290026 0.0326937 -0.405507 0.0201046 0.0328769 -0.423334 
0.0110952 0.0334348 -0.440336 0.00195121 0.0343596 -0.456528 -0.00732628 0.0356187 -0.471951 
-0.0167095 0.0371594 -0.486672 -0.0261459 0.0389158 -0.500785 -0.0355626 0.0408161 -0.514402 
-0.0448747 0.0427904 -0.527642 -0.0539937 0.0447777 -0.54062 -0.0628368 0.0467307 -0.55344 
-0.0713342 0.0486183 -0.566176 -0.0794345 0.0504261 -0.578871 -0.0871074 0.0521536 -0.591528 
-0.0943427 0.05381 -0.604107 -0.101147 0.0554086 -0.616534 -0.107539 0.0569607 -0.628701 
-0.11354 0.0584699 -0.64048 -0.119171 0.0599284 -0.651731 -0.124444 0.061315 -0.66232 
-0.129363 0.0625954 -0.672122 -0.133914 0.0637253 -0.681039 -0.138078 0.0646553 -0.689002 
-0.141826 0.0653379 -0.695977 -0.145129 0.0657344 -0.701965 -0.147964 0.0658217 -0.706999 
-0.150319 0.065598 -0.711144 -0.1522 0.0650858 -0.71448 -0.15363 0.0643328 -0.717108 
-0.154655 0.0634088 -0.719129 -0.155334 0.0624012 -0.720648 -0.155739 0.0614069 -0.721761 
-0.155944 0.0605234 -0.722552 -0.156021 0.0598388 -0.723088 -0.156025 0.0594238 -0.72342 
-0.155997 0.0593233 -0.723578 
LINES 2 100
OFFSETS vtktypeint64
0 100 
CONNECTIVITY vtktypeint64
0 1 2 3 4 5 6 7 8 
9 10 11 12 13 14 15 16 17 
18 19 20 21 22 23 24 25 26 
27 28 29 30 31 32 33 34 35 
36 37 38 39 40 41 42 43 44 
45 46 47 48 49 50 51 52 53 
54 55 56 57 58 59 60 61 62 
63 64 65 66 67 68 69 70 71 
72 73 74 75 76 77 78 79 80 
81 82 83 84 85 86 87 88 89 
90 91 92 93 94 95 96 97 98 
99 
POINT_DATA 100
FIELD FieldData 3
_theta 1 100 double
0 0.031733259127 0.063466518254 0.095199777382 0.12693303651 0.15866629564 0.19039955476 0.22213281389 0.25386607302 
0.28559933214 0.31733259127 0.3490658504 0.38079910953 0.41253236865 0.44426562778 0.47599888691 0.50773214603 0.53946540516 
0.57119866429 0.60293192342 0.63466518254 0.66639844167 0.6981317008 0.72986495992 0.76159821905 0.79333147818 0.82506473731 
0.85679799643 0.88853125556 0.92026451469 0.95199777382 0.98373103294 1.0154642921 1.0471975512 1.0789308103 1.1106640695 
1.1423973286 1.1741305877 1.2058638468 1.237597106 1.2693303651 1.3010636242 1.3327968833 1.3645301425 1.3962634016 
1.4279966607 1.4597299198 1.491463179 1.5231964381 1.5549296972 1.5866629564 1.6183962155 1.6501294746 1.6818627337 
1.7135959929 1.745329252 1.7770625111 1.8087957702 1.8405290294 1.8722622885 1.9039955476 1.9357288068 1.9674620659 
1.999195325 2.0309285841 2.0626618433 2.0943951024 2.1261283615 2.1578616206 2.1895948798 2.2213281389 2.253061398 
2.2847946572 2.3165279163 2.3482611754 2.3799944345 2.4117276937 2.4434609528 2.4751942119 2.506927471 2.5386607302 
2.5703939893 2.6021272484 2.6338605076 2.6655937667 2.6973270258 2.7290602849 2.7607935441 2.7925268032 2.8242600623 
2.8559933214 2.8877265806 2.9194598397 2.9511930988 2.982926358 3.0146596171 3.0463928762 3.0781261353 3.1098593945 
3.1415926536 
_radius 1 100 double
4.5808525899e-16 0.017350700104 0.034433779807 0.050995456242 0.066814124825 0.081712207313 0.095563327106 0.10829419881 0.11988135631 
0.13034358021 0.1397314572 0.14811576415 0.15557627305 0.16219221141 0.1680351762 0.17316494467 0.17762837371 0.18146133354 
0.18469328312 0.18735366653 0.18947890287 0.191118498 0.19233882551 0.19322343964 0.19386935588 0.19437947772 0.1948521342 
0.1953693713 0.19598604539 0.19672174732 0.19755707045 0.19843485999 0.19926622302 0.19994058732 0.20033894419 0.2003492479 
0.19988256332 0.19888813599 0.19736541213 0.19537118761 0.19302034849 0.19047914679 0.18795099713 0.18565655069 0.18381174365 
0.18260838277 0.18220062459 0.18269787318 0.18416200212 0.18660608735 0.18999322674 0.19423627275 0.19920073549 0.20471279915 
0.21057269774 0.21657175728 0.2225102061 0.2282127078 0.23353929666 0.23839060097 0.24270750538 0.24646637393 0.2496714268 
0.25234584966 0.25452289971 0.25623789009 0.25752163294 0.25839572642 0.25886992035 0.25894161925 0.25859736355 0.25781590511 
0.25657230048 0.25484229569 0.2526061852 0.24985135343 0.24657291735 0.24277227967 0.238453872 0.23362077368 0.2282701331 
0.2223893669 0.21595398186 0.20892758095 0.2012642082 0.19291272165 0.18382247086 0.17394932286 0.16326110197 0.15174175449 
0.139393899 0.12623974434 0.11232058105 0.097695181687 0.082437507296 0.066634119601 0.050381631632 0.033784400505 0.016952513651 
2.7409363584e-16 
_area 1 100 double
0 0.0006162621802 0.0024553392881 0.0054832168325 0.0096299168541 0.014777903574 0.020756843251 0.027347712597 0.034295762903 
0.041329487775 0.048181799586 0.054609910559 0.060411428864 0.065435230558 0.069586299416 0.072824129407 0.075155299876 0.076623208473 
0.077300897148 0.077294084138 0.076763363055 0.075989432786 0.07531990882 0.074791856071 0.074352011297 0.074040242159 0.073889479551 
0.073957755407 0.074318465349 0.075025397788 0.076087905838 0.077478398585 0.079110382381 0.080814361311 0.082397386336 0.083709097227 
0.084683978855 0.085336308156 0.085714276928 0.08587751466 0.085907893288 0.085910245019 0.085995638084 0.086262348444 0.086786440476 
0.087627850857 0.088853045195 0.090566930811 0.092930399863 0.096122354248 0.10026876794 0.10542880523 0.11158375409 0.11859986158 
0.12622287836 0.13411735504 0.14192549736 0.14932137429 0.15604877545 0.16193869871 0.16690637369 0.17093248827 0.17403899156 
0.17627106679 0.1776895891 0.17836857821 0.17838910697 0.17782558175 0.1767277786 0.17510836477 0.17294475121 0.17019493642 
0.16681965655 0.16280324306 0.15816856464 0.1529831356 0.14735398004 0.14140915237 0.13526684995 0.12900039737 0.12261532978 
0.11605321309 0.10922225955 0.10203910688 0.094462523806 0.086508133064 0.078244553266 0.069778508833 0.061237482312 0.052755415871 
0.044463612838 0.036487678342 0.028950815835 0.02198143184 0.015719423101 0.010315129574 0.005919527788 0.0026694752975 0.00067328373803 
3.3175745999e-17 
