# vtk DataFile Version 5.1
vtk output
ASCII
DATASET POLYDATA
POINTS 100 float
-0.0607524 -0.0432488 0.708683 -0.0608053 -0.0428979 0.708302 -0.0609521 -0.04161 0.707112 
-0.0611693 -0.0394538 0.705117 -0.0614205 -0.0365372 0.702332 -0.0616593 -0.0329952 0.698774 
-0.0618333 -0.0289755 0.69447 -0.0618875 -0.0246225 0.689451 -0.0617671 -0.0200632 0.683754 
-0.0614195 -0.0153958 0.67742 -0.0607947 -0.0106824 0.670487 -0.0598444 -0.00594727 0.662992 
-0.0585203 -0.00117993 0.654961 -0.0567726 0.00365637 0.646408 -0.054548 0.008613 0.637331 
-0.0517895 0.0137421 0.627708 -0.0484375 0.0190825 0.617502 -0.0444329 0.0246478 0.606657 
-0.0397218 0.0304171 0.595108 -0.0342619 0.0363312 0.582784 -0.0280293 0.0422934 0.569618 
-0.021025 0.0481759 0.555553 -0.0132802 0.0538301 0.540554 -0.00485931 0.0591005 0.524607 
0.00414121 0.0638401 0.507733 0.0135961 0.0679244 0.489978 0.0233592 0.071264 0.47142 
0.0332733 0.0738132 0.452158 0.0431823 0.0755732 0.432304 0.0529436 0.0765908 0.411975 
0.0624389 0.076951 0.39128 0.0715825 0.0767667 0.370309 0.0803254 0.0761642 0.349127 
0.0886544 0.0752691 0.327767 0.0965869 0.074192 0.306228 0.104161 0.073017 0.284477 
0.11142 0.0717946 0.262458 0.118401 0.0705383 0.240097 0.125119 0.0692272 0.21732 
0.131553 0.0678133 0.194059 0.137643 0.0662311 0.170269 0.143283 0.0644115 0.145935 
0.14833 0.0622943 0.121081 0.152612 0.0598406 0.0957692 0.155946 0.0570423 0.0701007 
0.158155 0.0539272 0.0442081 0.159089 0.0505597 0.0182457 0.158646 0.0470366 -0.00762229 
0.156781 0.0434791 -0.0332349 0.15352 0.0400205 -0.0584471 0.14896 0.036793 -0.0831401 
0.143263 0.0339143 -0.107228 0.13664 0.0314752 -0.130663 0.129335 0.0295306 -0.153433 
0.1216 0.0280942 -0.175555 0.113675 0.0271381 -0.197071 0.105761 0.0265971 -0.218036 
0.0980101 0.0263768 -0.238508 0.0905086 0.026365 -0.258536 0.0832797 0.0264451 -0.278155 
0.0762871 0.0265091 -0.297378 0.0694479 0.0264698 -0.316197 0.0626509 0.0262703 -0.334583 
0.0557773 0.0258891 -0.352494 0.0487214 0.0253419 -0.369879 0.0414088 0.0246784 -0.38669 
0.0338089 0.0239755 -0.402887 0.0259414 0.0233276 -0.418452 0.0178742 0.0228352 -0.433385 
0.00971511 0.0225927 -0.447716 0.00159749 0.0226777 -0.461494 -0.00633785 0.023142 -0.47479 
-0.0139614 0.0240062 -0.487684 -0.0211721 0.0252577 -0.500261 -0.0279095 0.0268521 -0.512594 
-0.0341606 0.0287188 -0.524742 -0.0399584 0.0307689 -0.536735 -0.0453739 0.0329043 -0.548574 
-0.0505019 0.0350286 -0.560226 -0.0554426 0.0370562 -0.571626 -0.0602822 0.0389208 -0.582684 
-0.0650745 0.0405805 -0.593287 -0.069828 0.0420209 -0.603315 -0.0744983 0.043254 -0.612646 
-0.0789891 0.0443147 -0.621173 -0.0831616 0.0452552 -0.628804 -0.0868505 0.0461366 -0.63548 
-0.0898863 0.047021 -0.641172 -0.0921189 0.0479625 -0.645886 -0.0934414 0.0490005 -0.649663 
-0.0938098 0.0501542 -0.652573 -0.0932557 0.0514199 -0.654714 -0.0918898 0.0527704 -0.656201 
-0.0898969 0.0541582 -0.657158 -0.0875199 0.05552 -0.657713 -0.0850372 0.0567833 -0.657988 
-0.0827343 0.0578743 -0.658094 -0.0808736 0.0587257 -0.658121 -0.0796658 0.059284 -0.658136 
-0.0792473 0.0595147 -0.658182 
LINES 2 100
OFFSETS vtktypeint64
0 100 
CONNECTIVITY vtktypeint64
0 1 2 3 4 5 6 7 8 
9 10 11 12 13 14 15 16 17 
18 19 20 21 22 23 24 25 26 
27 28 29 30 31 32 33 34 35 
36 37 38 39 40 41 42 43 44 
45 46 47 48 49 50 51 52 53 
54 55 56 57 58 59 60 61 62 
63 64 65 66 67 68 69 70 71 
72 73 74 75 76 77 78 79 80 
81 82 83 84 85 86 87 88 89 
90 91 92 93 94 95 96 97 98 
99 
POINT_DATA 100
FIELD FieldData 3
_theta 1 100 double
0 0.031733259127 0.063466518254 0.095199777382 0.12693303651 0.15866629564 0.19039955476 0.22213281389 0.25386607302 
0.28559933214 0.31733259127 0.3490658504 0.38079910953 0.41253236865 0.44426562778 0.47599888691 0.50773214603 0.53946540516 
0.57119866429 0.60293192342 0.63466518254 0.66639844167 0.6981317008 0.72986495992 0.76159821905 0.79333147818 0.82506473731 
0.85679799643 0.88853125556 0.92026451469 0.95199777382 0.98373103294 1.0154642921 1.0471975512 1.0789308103 1.1106640695 
1.1423973286 1.1741305877 1.2058638468 1.237597106 1.2693303651 1.3010636242 1.3327968833 1.3645301425 1.3962634016 
1.4279966607 1.4597299198 1.491463179 1.5231964381 1.5549296972 1.5866629564 1.6183962155 1.6501294746 1.6818627337 
1.7135959929 1.745329252 1.7770625111 1.8087957702 1.8405290294 1.8722622885 1.9039955476 1.9357288068 1.9674620659 
1.999195325 2.0309285841 2.0626618433 2.0943951024 2.1261283615 2.1578616206 2.1895948798 2.2213281389 2.253061398 
2.2847946572 2.3165279163 2.3482611754 2.3799944345 2.4117276937 2.4434609528 2.4751942119 2.506927471 2.5386607302 
2.5703939893 2.6021272484 2.6338605076 2.6655937667 2.6973270258 2.7290602849 2.7607935441 2.7925268032 2.8242600623 
2.8559933214 2.8877265806 2.9194598397 2.9511930988 2.982926358 3.0146596171 3.0463928762 3.0781261353 3.1098593945 
3.1415926536 
_radius 1 100 double
1.3349393161e-15 0.013784728819 0.027488325706 0.041030820631 0.054348776301 0.067398022434 0.080150847069 0.092588047333 0.1046875642 
0.11641239068 0.12770077973 0.13846137384 0.1485748401 0.15790222227 0.16629888482 0.17363192072 0.17979836903 0.18474153498 
0.1884630319 0.19102876221 0.19256783568 0.19326432 0.19334265681 0.19304844526 0.19262693288 0.19230176957 0.1922562494 
0.192618486 0.1934511746 0.19474638828 0.19642639749 0.19835191642 0.20033826663 0.20217797251 0.20366682012 0.20463007685 
0.2049458085 0.20456257809 0.20350930543 0.20189583639 0.19990379444 0.19776843939 0.19575345617 0.19412186183 0.19310745474 
0.19289170272 0.19358951337 0.19524410252 0.19782859652 0.20125212915 0.20536998649 0.209998286 0.21493284125 0.2199702742 
0.22492834891 0.22966239122 0.23407537499 0.23812044665 0.24179598923 0.24513451861 0.24818757638 0.25100925935 0.25364109338 
0.25610062747 0.25837541689 0.26042305497 0.26217677311 0.26355511538 0.26447357566 0.26485600149 0.26464394784 0.26380278669 
0.26232401356 0.2602237128 0.25753752673 0.25431276977 0.25059859675 0.24643540894 0.24184493452 0.23682256995 0.23133350684 
0.22531379696 0.21867678117 0.21132429942 0.20316103002 0.19410950113 0.18412305761 0.17319445589 0.1613586728 0.14868967807 
0.13529203249 0.12128901461 0.10680944228 0.091975424904 0.076892966942 0.061646657614 0.046298708197 0.030891577488 0.015452729281 
8.4897762931e-16 
_area 1 100 double
0 0.00058816950596 0.0023299831583 0.0051606913955 0.0089825252535 0.01367684028 0.019115934553 0.025171148594 0.031714653069 
0.038613912782 0.045720406367 0.05285733224 0.059813015507 0.066345822512 0.072202637157 0.077148009159 0.080996914827 0.083642285825 
0.085069993042 0.085358473352 0.084665734247 0.083210540898 0.081256344103 0.07911195866 0.077243432098 0.075932975724 0.075161261962 
0.075041177401 0.075699438231 0.07721459332 0.079573880913 0.082665948286 0.086358521813 0.090360013307 0.094300318606 0.097854416111 
0.10075066952 0.10281196978 0.10398226276 0.10433265055 0.10404890199 0.10340432276 0.10272037975 0.10231565089 0.10245120419 
0.10330845438 0.10503642902 0.10776435003 0.11143638652 0.11586779888 0.12089656102 0.12637128473 0.1321235956 0.13795842488 
0.14366114309 0.14901982992 0.153856163 0.1580545553 0.16157946486 0.16447495445 0.16684663843 0.16883111164 0.17055819246 
0.17210696376 0.17346657316 0.17453980224 0.17518747526 0.17527282774 0.1746896828 0.17337751179 0.17132806491 0.16858608064 
0.16524269159 0.16141690304 0.15722593033 0.1527589935 0.1480673064 0.14316533377 0.13803400699 0.13262365136 0.12685896652 
0.12064894123 0.11390297177 0.10655189754 0.098570154234 0.089993554888 0.080927095842 0.071539263366 0.062043346163 0.052670738734 
0.043644037949 0.035157375603 0.027367934146 0.020397770949 0.014341553104 0.0092751357236 0.0052615382757 0.0023531260459 0.00059055197558 
3.2456740802e-17 
