# vtk DataFile Version 5.1
vtk output
ASCII
DATASET POLYDATA
POINTS 100 float
-0.0325365 -0.0508719 0.738054 -0.0325328 -0.0505899 0.737632 -0.032583 -0.0495053 0.736306 
-0.0327252 -0.0476572 0.734078 -0.0330143 -0.0451094 0.730953 -0.0335116 -0.0419462 0.726942 
-0.034271 -0.0382666 0.722062 -0.0353256 -0.0341784 0.716338 -0.0366758 -0.029791 0.709802 
-0.0382798 -0.0252093 0.702493 -0.0400492 -0.0205272 0.694457 -0.0418499 -0.0158235 0.685739 
-0.0435084 -0.0111582 0.676385 -0.0448236 -0.00657101 0.666435 -0.0455818 -0.00208183 0.655921 
-0.0455754 0.00230748 0.64486 -0.0446212 0.00660939 0.633261 -0.0425769 0.010846 0.621114 
-0.0393556 0.0150437 0.608402 -0.0349333 0.0192271 0.595097 -0.0293525 0.023414 0.581169 
-0.022718 0.0276108 0.56659 -0.0151874 0.031809 0.551338 -0.00695677 0.0359841 0.535404 
0.00175697 0.0400949 0.518795 0.0107353 0.0440861 0.501532 0.0197763 0.0478912 0.483655 
0.0287102 0.0514379 0.465214 0.0374108 0.0546525 0.446267 0.0458008 0.0574669 0.426872 
0.0538519 0.059823 0.407084 0.0615784 0.0616781 0.386942 0.0690264 0.0630079 0.366471 
0.0762594 0.0638083 0.345672 0.0833417 0.0640956 0.324528 0.0903232 0.0639045 0.303005 
0.0972254 0.0632853 0.281054 0.104032 0.0622994 0.258623 0.110684 0.0610143 0.235665 
0.11708 0.0594981 0.212144 0.123085 0.0578152 0.188048 0.128538 0.056022 0.163394 
0.133268 0.0541641 0.138232 0.137111 0.0522752 0.112643 0.139925 0.0503768 0.0867406 
0.141603 0.0484803 0.0606626 0.142085 0.0465895 0.0345619 0.141362 0.0447037 0.00859734 
0.139477 0.0428215 -0.017078 0.13652 0.0409444 -0.0423264 0.132618 0.0390793 -0.0670343 
0.127922 0.0372402 -0.0911179 0.122594 0.0354489 -0.114526 0.116789 0.0337342 -0.137239 
0.110645 0.0321297 -0.159267 0.10427 0.0306711 -0.180639 0.0977392 0.0293931 -0.2014 
0.0910921 0.028325 -0.221602 0.0843354 0.0274885 -0.241293 0.0774516 0.0268946 -0.260516 
0.0704087 0.0265425 -0.279298 0.0631723 0.0264196 -0.297657 0.0557168 0.0265028 -0.315593 
0.0480356 0.0267608 -0.333099 0.040148 0.027158 -0.350163 0.0321021 0.0276581 -0.36677 
0.0239736 0.0282284 -0.382913 0.0158602 0.0288434 -0.398592 0.00787331 0.029488 -0.413818 
0.000126421 0.0301588 -0.428613 -0.00727645 0.0308649 -0.443009 -0.014252 0.0316261 -0.457044 
-0.0207469 0.0324709 -0.470756 -0.0267428 0.0334324 -0.484176 -0.0322584 0.0345437 -0.497327 
-0.037346 0.0358337 -0.510212 -0.0420845 0.0373215 -0.522819 -0.0465691 0.0390137 -0.535112 
-0.0508985 0.0409004 -0.54704 -0.0551619 0.0429551 -0.558534 -0.059427 0.0451341 -0.569517 
-0.0637307 0.0473792 -0.57991 -0.0680733 0.0496208 -0.589634 -0.0724173 0.0517831 -0.598624 
-0.0766909 0.0537892 -0.606831 -0.0807962 0.0555675 -0.614225 -0.0846206 0.0570573 -0.620798 
-0.0880501 0.0582135 -0.626565 -0.0909834 0.0590109 -0.631559 -0.0933451 0.059446 -0.63583 
-0.0950957 0.0595383 -0.639439 -0.0962375 0.0593284 -0.642454 -0.0968165 0.0588756 -0.644943 
-0.0969179 0.058253 -0.646973 -0.0966586 0.0575425 -0.648602 -0.0961743 0.0568282 -0.649881 
-0.0956053 0.0561899 -0.650851 -0.0950811 0.0556973 -0.651542 -0.0947065 0.0554041 -0.651976 
-0.0945493 0.0553444 -0.652164 
LINES 2 100
OFFSETS vtktypeint64
0 100 
CONNECTIVITY vtktypeint64
0 1 2 3 4 5 6 7 8 
9 10 11 12 13 14 15 16 17 
18 19 20 21 22 23 24 25 26 
27 28 29 30 31 32 33 34 35 
36 37 38 39 40 41 42 43 44 
45 46 47 48 49 50 51 52 53 
54 55 56 57 58 59 60 61 62 
63 64 65 66 67 68 69 70 71 
72 73 74 75 76 77 78 79 80 
81 82 83 84 85 86 87 88 89 
90 91 92 93 94 95 96 97 98 
99 
POINT_DATA 100
FIELD FieldData 3
_theta 1 100 double
0 0.031733259127 0.063466518254 0.095199777382 0.12693303651 0.15866629564 0.19039955476 0.22213281389 0.25386607302 
0.28559933214 0.31733259127 0.3490658504 0.38079910953 0.41253236865 0.44426562778 0.47599888691 0.50773214603 0.53946540516 
0.57119866429 0.60293192342 0.63466518254 0.66639844167 0.6981317008 0.72986495992 0.76159821905 0.79333147818 0.82506473731 
0.85679799643 0.88853125556 0.92026451469 0.95199777382 0.98373103294 1.0154642921 1.0471975512 1.0789308103 1.1106640695 
1.1423973286 1.1741305877 1.2058638468 1.237597106 1.2693303651 1.3010636242 1.3327968833 1.3645301425 1.3962634016 
1.4279966607 1.4597299198 1.491463179 1.5231964381 1.5549296972 1.5866629564 1.6183962155 1.6501294746 1.6818627337 
1.7135959929 1.745329252 1.7770625111 1.8087957702 1.8405290294 1.8722622885 1.9039955476 1.9357288068 1.9674620659 
1.999195325 2.0309285841 2.0626618433 2.0943951024 2.1261283615 2.1578616206 2.1895948798 2.2213281389 2.253061398 
2.2847946572 2.3165279163 2.3482611754 2.3799944345 2.4117276937 2.4434609528 2.4751942119 2.506927471 2.5386607302 
2.5703939893 2.6021272484 2.6338605076 2.6655937667 2.6973270258 2.7290602849 2.7607935441 2.7925268032 2.8242600623 
2.8559933214 2.8877265806 2.9194598397 2.9511930988 2.982926358 3.0146596171 3.0463928762 3.0781261353 3.1098593945 
3.1415926536 
_radius 1 100 double
1.3343621074e-15 0.01326867499 0.026433610933 0.039390585203 0.052054624601 0.064366669018 0.076295978753 0.087837340088 0.0990030934 
0.1098112575 0.12027211085 0.13037611408 0.14008588884 0.14933420752 0.15802875977 0.16606303688 0.17333131875 0.17974483777 
0.18524599488 0.18981803454 0.19348865746 0.19632736788 0.19843758686 0.19994539436 0.20098695565 0.20169623342 0.2021938047 
0.20257701937 0.20291173272 0.20322634824 0.20350946966 0.20371258644 0.20375864297 0.20355616393 0.20301725282 0.20207674705 
0.2007093243 0.19894133206 0.19685452197 0.19458003137 0.19228336233 0.19014442922 0.18833881165 0.18702471473 0.18633575185 
0.18637652045 0.18721816303 0.18889324349 0.19139110257 0.1946554794 0.1985858292 0.20304296049 0.20785874005 0.21284887219 
0.21782725603 0.2226202055 0.22707888711 0.23108866111 0.23457452514 0.23750242846 0.23987671763 0.24173431032 0.24313637886 
0.24415842963 0.24487975896 0.24537335722 0.24569734912 0.24588889642 0.2459611065 0.24590295842 0.2456817577 0.24524734552 
0.24453728096 0.24348236558 0.24201199256 0.24005880504 0.23756216687 0.23447013204 0.23073993283 0.22633734856 0.22123553461 
0.21541392261 0.20885764162 0.20155760557 0.19351107274 0.18472225145 0.17520250595 0.1649699213 0.15404832699 0.14246619265 
0.13025592115 0.11745388533 0.10410117742 0.090244695025 0.075938069055 0.061242063595 0.046224317242 0.030958505956 0.015523113932 
6.3994494595e-16 
_area 1 100 double
0 0.00053948312374 0.0021397173666 0.0047462357299 0.0082696058012 0.012589368046 0.017561456193 0.023028204671 0.028828667101 
0.034806897601 0.04081680509 0.046723256236 0.052399987571 0.057726173623 0.062585210269 0.066869384071 0.070490566602 0.073392155428 
0.075556097263 0.077002368408 0.077783670552 0.077981259889 0.077706512477 0.077107814077 0.076375978702 0.075734801992 0.075402763258 
0.075537786404 0.076200847324 0.077345882814 0.078880390408 0.080657817038 0.082524440202 0.084338551486 0.085972921329 0.08731586978 
0.088276903162 0.088808399429 0.088929601327 0.088727259682 0.088350748611 0.087962743148 0.087728595501 0.087900135675 0.088853495932 
0.090401484277 0.092377573823 0.094797577966 0.097746471463 0.10134425624 0.10567421106 0.11071116948 0.11634655441 0.12240882282 
0.12866834849 0.13485954815 0.14071624077 0.14600858538 0.15057260056 0.15432620959 0.1572686498 0.15946340321 0.1610090913 
0.16200818446 0.16254610892 0.16268674812 0.16247700615 0.16194664901 0.16109892761 0.15990418344 0.15830932306 0.15625778094 
0.15370516329 0.15062669737 0.14702077615 0.14290834304 0.13832541977 0.13330852199 0.12787770858 0.12202799961 0.11573784592 
0.10899015818 0.10179226563 0.094185711283 0.086245859368 0.078075475368 0.069795763665 0.061536289442 0.053424204233 0.045574071709 
0.038081539072 0.03102457842 0.024472633912 0.018498698085 0.013187624376 0.0086371220495 0.0049517655799 0.0022322949757 0.00056299861106 
3.6483192984e-17 
