# vtk DataFile Version 5.1
vtk output
ASCII
DATASET POLYDATA
POINTS 100 float
-0.164584 -0.0530445 0.754304 -0.164607 -0.0528482 0.754468 -0.164725 -0.0521144 0.754929 
-0.164876 -0.0508995 0.755541 -0.16496 -0.0492881 0.756082 -0.164849 -0.0473804 0.756279 
-0.164401 -0.0452778 0.755838 -0.163466 -0.0430677 0.754479 -0.161904 -0.0408099 0.751965 
-0.159589 -0.0385276 0.748125 -0.156421 -0.0362027 0.742872 -0.152329 -0.0337771 0.736203 
-0.14727 -0.0311599 0.728193 -0.141232 -0.0282394 0.718979 -0.134231 -0.0248984 0.708734 
-0.126302 -0.0210311 0.697642 -0.117497 -0.0165587 0.68587 -0.107882 -0.0114431 0.673546 
-0.0975313 -0.00569505 0.660743 -0.0865237 0.000622833 0.647473 -0.0749444 0.00739873 0.63369 
-0.0628825 0.0144803 0.619303 -0.0504318 0.0216878 0.604192 -0.0376908 0.0288294 0.588237 
-0.0247614 0.0357181 0.571332 -0.0117471 0.0421866 0.553411 0.00125041 0.0481001 0.53446 
0.0141358 0.0533638 0.514518 0.0268253 0.0579263 0.493679 0.0392517 0.0617767 0.472077 
0.0513682 0.0649389 0.449866 0.0631506 0.0674611 0.4272 0.0745965 0.0694051 0.404212 
0.0857211 0.0708343 0.38099 0.0965503 0.0718045 0.357571 0.10711 0.072357 0.33393 
0.117416 0.0725155 0.30999 0.127459 0.072287 0.28563 0.137196 0.0716655 0.260711 
0.146542 0.0706392 0.235098 0.155363 0.0691981 0.208683 0.163485 0.0673417 0.181414 
0.170691 0.065085 0.153306 0.176743 0.0624625 0.124451 0.181397 0.059529 0.0950192 
0.184421 0.0563561 0.0652432 0.185621 0.0530279 0.0354016 0.184862 0.0496329 0.00579199 
0.182079 0.0462565 -0.023297 0.177294 0.0429738 -0.0516126 0.170615 0.0398437 -0.0789608 
0.162236 0.0369059 -0.105221 0.152418 0.0341814 -0.130351 0.141477 0.0316758 -0.154384 
0.129752 0.0293842 -0.177418 0.117587 0.0272992 -0.199588 0.105297 0.0254179 -0.22105 
0.0931472 0.0237481 -0.241953 0.0813391 0.0223124 -0.262417 0.0699954 0.0211491 -0.282516 
0.0591609 0.020309 -0.302273 0.048808 0.0198502 -0.32166 0.0388508 0.0198289 -0.340605 
0.0291643 0.0202893 -0.359013 0.0196064 0.0212539 -0.376781 0.0100412 0.022715 -0.393826 
0.000359368 0.0246295 -0.410101 -0.00950607 0.0269174 -0.425611 -0.0195695 0.0294658 -0.440418 
-0.0297904 0.0321362 -0.454642 -0.040077 0.0347767 -0.468449 -0.0502975 0.0372359 -0.482034 
-0.0602945 0.0393778 -0.495599 -0.0699028 0.0410957 -0.509325 -0.0789668 0.0423227 -0.523354 
-0.0873564 0.0430386 -0.537765 -0.094979 0.0432705 -0.552564 -0.101786 0.0430892 -0.567683 
-0.107774 0.0425992 -0.582982 -0.112981 0.0419261 -0.598266 -0.117478 0.0412008 -0.613302 
-0.121358 0.0405442 -0.627847 -0.124723 0.0400532 -0.641669 -0.12767 0.0397901 -0.654572 
-0.130284 0.0397777 -0.666409 -0.13263 0.0399985 -0.677097 -0.13475 0.0404001 -0.686613 
-0.136664 0.040905 -0.694995 -0.138373 0.0414229 -0.702322 -0.13987 0.0418653 -0.708706 
-0.14114 0.0421582 -0.714269 -0.142175 0.0422531 -0.719125 -0.142975 0.042134 -0.723371 
-0.143554 0.0418187 -0.727073 -0.143936 0.0413563 -0.730264 -0.14416 0.040819 -0.732949 
-0.144267 0.040291 -0.735108 -0.1443 0.0398562 -0.736711 -0.144294 0.0395853 -0.737725 
-0.144273 0.0395255 -0.738123 
LINES 2 100
OFFSETS vtktypeint64
0 100 
CONNECTIVITY vtktypeint64
0 1 2 3 4 5 6 7 8 
9 10 11 12 13 14 15 16 17 
18 19 20 21 22 23 24 25 26 
27 28 29 30 31 32 33 34 35 
36 37 38 39 40 41 42 43 44 
45 46 47 48 49 50 51 52 53 
54 55 56 57 58 59 60 61 62 
63 64 65 66 67 68 69 70 71 
72 73 74 75 76 77 78 79 80 
81 82 83 84 85 86 87 88 89 
90 91 92 93 94 95 96 97 98 
99 
POINT_DATA 100
FIELD FieldData 3
_theta 1 100 double
0 0.031733259127 0.063466518254 0.095199777382 0.12693303651 0.15866629564 0.19039955476 0.22213281389 0.25386607302 
0.28559933214 0.31733259127 0.3490658504 0.38079910953 0.41253236865 0.44426562778 0.47599888691 0.50773214603 0.53946540516 
0.57119866429 0.60293192342 0.63466518254 0.66639844167 0.6981317008 0.72986495992 0.76159821905 0.79333147818 0.82506473731 
0.85679799643 0.88853125556 0.92026451469 0.95199777382 0.98373103294 1.0154642921 1.0471975512 1.0789308103 1.1106640695 
1.1423973286 1.1741305877 1.2058638468 1.237597106 1.2693303651 1.3010636242 1.3327968833 1.3645301425 1.3962634016 
1.4279966607 1.4597299198 1.491463179 1.5231964381 1.5549296972 1.5866629564 1.6183962155 1.6501294746 1.6818627337 
1.7135959929 1.745329252 1.7770625111 1.8087957702 1.8405290294 1.8722622885 1.9039955476 1.9357288068 1.9674620659 
1.999195325 2.0309285841 2.0626618433 2.0943951024 2.1261283615 2.1578616206 2.1895948798 2.2213281389 2.253061398 
2.2847946572 2.3165279163 2.3482611754 2.3799944345 2.4117276937 2.4434609528 2.4751942119 2.506927471 2.5386607302 
2.5703939893 2.6021272484 2.6338605076 2.6655937667 2.6973270258 2.7290602849 2.7607935441 2.7925268032 2.8242600623 
2.8559933214 2.8877265806 2.9194598397 2.9511930988 2.982926358 3.0146596171 3.0463928762 3.0781261353 3.1098593945 
3.1415926536 
_radius 1 100 double
1.1231795323e-15 0.016004564319 0.031905476258 0.047592336473 0.062956743632 0.077893540425 0.092301912608 0.10608624964 0.11915672114 
0.13142960168 0.14282747211 0.15327951758 0.1627222042 0.17110061963 0.1783706975 0.18450242113 0.18948394273 0.19332637545 
0.19606881368 0.19778290176 0.1985760088 0.19859183869 0.19800723096 0.19702414398 0.1958564678 0.19471238068 0.19377426137 
0.19317933785 0.19300482911 0.19326092485 0.19389345317 0.19479584822 0.19582777159 0.19683629084 0.19767548547 0.19822190506 
0.19838589523 0.19812078684 0.19743138097 0.19638023494 0.19508772617 0.19372215779 0.19247952048 0.19155747045 0.19113151949 
0.19134008934 0.19227963081 0.19400619221 0.19653871238 0.19986088218 0.20392063295 0.20862822352 0.21385526812 0.21943768899 
0.22518500653 0.2308961872 0.23637923736 0.2414697578 0.24604393367 0.2500233882 0.25337174488 0.25608479202 0.25817745754 
0.25967118193 0.26058466926 0.26092962233 0.26071142185 0.25993335781 0.25860236192 0.25673431169 0.2543576509 0.25151487027 
0.24826189681 0.24466548587 0.24079848765 0.23673276696 0.23252987723 0.228230308 0.22384297048 0.21933720551 0.21463967482 
0.20963783124 0.20419029825 0.1981427895 0.19134676192 0.18367735723 0.17504753565 0.16541642989 0.15479138404 0.14322439788 
0.13080441807 0.11764703451 0.10388289841 0.089645951046 0.075062529681 0.060242491983 0.045273431582 0.030218708319 0.015119442296 
5.92936915e-16 
_area 1 100 double
0 0.00057034305278 0.0022864154851 0.0051587164144 0.009189248703 0.014350530209 0.02056442829 0.027689081244 0.035518581312 
0.043794711652 0.052226211297 0.060510099295 0.068351242808 0.075479205279 0.081663463005 0.086727990628 0.090564416558 0.093141130246 
0.094505383799 0.094777099564 0.094136044726 0.092806271489 0.091041846489 0.089119344884 0.087387824376 0.086212995646 0.085674295111 
0.085839499754 0.086720544823 0.0882448134 0.09024375407 0.092489922502 0.094747761864 0.096814762134 0.098553559887 0.099903897218 
0.10082856129 0.10139569794 0.10155875017 0.10158971639 0.10153856322 0.10179349938 0.10275161411 0.10438316719 0.10635149206 
0.1084218438 0.11050573987 0.11263426762 0.11496520591 0.11777301664 0.12136554795 0.12596513926 0.13166337942 0.13841903044 
0.14603178175 0.1541271768 0.16220775516 0.16975542334 0.17632446153 0.18159458958 0.18538763044 0.18765896935 0.18847382586 
0.18797669726 0.18636082129 0.18384682357 0.18071447012 0.17737636905 0.17383294366 0.16992248946 0.16566072417 0.16114296395 
0.15649399791 0.15181781151 0.14715904682 0.14250342653 0.13780841726 0.13303210408 0.12814092521 0.12309871008 0.11785007204 
0.11231156959 0.10637852617 0.099947115756 0.092944040313 0.085353100193 0.077229722746 0.068699337156 0.059941267888 0.051164691108 
0.042585154296 0.034407780129 0.026817908671 0.019975993458 0.014014005036 0.009033315214 0.0051053735741 0.0022756500943 0.00056978720753 
1.0621895075e-17 
