# vtk DataFile Version 5.1
vtk output
ASCII
DATASET POLYDATA
POINTS 100 float
-0.164076 -0.0591392 0.799297 -0.163875 -0.0592628 0.799244 -0.163362 -0.0594517 0.799152 
-0.162538 -0.0596736 0.798915 -0.161399 -0.0598764 0.798364 -0.15994 -0.0599898 0.797294 
-0.158154 -0.0599296 0.79548 -0.156031 -0.0596016 0.792708 -0.153557 -0.0589071 0.788795 
-0.150717 -0.0577495 0.783612 -0.147492 -0.0560408 0.777092 -0.143858 -0.0537081 0.769239 
-0.139791 -0.0507007 0.760122 -0.135263 -0.0469945 0.749864 -0.130243 -0.0425955 0.738627 
-0.1247 -0.0375416 0.726589 -0.118605 -0.031901 0.713923 -0.111932 -0.0257688 0.700778 
-0.104658 -0.0192609 0.687265 -0.0967705 -0.0125063 0.673446 -0.0882645 -0.00563847 0.659329 
-0.0791461 0.00121407 0.64488 -0.069433 0.00793573 0.630021 -0.0591541 0.0144308 0.614654 
-0.0483492 0.0206276 0.598668 -0.0370671 0.0264806 0.581961 -0.0253639 0.0319685 0.564445 
-0.0133012 0.0370908 0.546062 -0.0009438 0.0418618 0.526781 0.0116411 0.0463031 0.506602 
0.0243843 0.0504361 0.485546 0.0372141 0.0542755 0.463651 0.0500545 0.057824 0.44096 
0.0628224 0.0610699 0.417513 0.0754253 0.0639869 0.393341 0.0877578 0.0665371 0.368459 
0.0997 0.0686762 0.342873 0.111117 0.0703599 0.316579 0.121858 0.0715519 0.289575 
0.131764 0.0722298 0.261868 0.140668 0.0723913 0.233484 0.148409 0.0720565 0.204478 
0.154836 0.0712685 0.174937 0.159821 0.07009 0.144984 0.163269 0.0685983 0.114771 
0.165129 0.0668771 0.0844729 0.165394 0.0650082 0.0542748 0.164112 0.0630631 0.02436 
0.161379 0.0610957 -0.00510545 0.157337 0.0591381 -0.0339846 0.152161 0.0571985 -0.0621788 
0.146053 0.055263 -0.0896325 0.13922 0.053301 -0.116333 0.131864 0.0512726 -0.142304 
0.124164 0.0491376 -0.167599 0.116265 0.0468658 -0.192285 0.108269 0.0444449 -0.216433 
0.100232 0.0418873 -0.240105 0.0921648 0.0392334 -0.263343 0.0840389 0.0365511 -0.286167 
0.075798 0.0339316 -0.308569 0.0673712 0.0314815 -0.330523 0.0586887 0.0293128 -0.351988 
0.0496966 0.0275316 -0.372919 0.0403698 0.026227 -0.39328 0.0307213 0.0254612 -0.41305 
0.0208068 0.0252632 -0.432233 0.0107233 0.0256255 -0.450859 0.000603386 0.0265051 -0.468978 
-0.00939628 0.0278291 -0.486658 -0.0191088 0.0295023 -0.503972 -0.0283733 0.0314181 -0.520984 
-0.0370503 0.0334696 -0.537735 -0.045036 0.0355605 -0.554233 -0.0522716 0.0376134 -0.570445 
-0.058749 0.0395753 -0.586294 -0.0645101 0.0414198 -0.601662 -0.0696412 0.0431445 -0.616405 
-0.0742625 0.0447658 -0.630359 -0.0785147 0.046311 -0.643369 -0.0825426 0.0478088 -0.6553 
-0.0864805 0.0492804 -0.666058 -0.0904379 0.0507321 -0.675605 -0.0944894 0.0521502 -0.683963 
-0.0986691 0.0535005 -0.69122 -0.102969 0.0547299 -0.697515 -0.107345 0.0557736 -0.70303 
-0.111721 0.0565631 -0.707966 -0.116004 0.0570369 -0.712522 -0.120092 0.0571509 -0.716872 
-0.123892 0.0568873 -0.721144 -0.127323 0.0562604 -0.725406 -0.130327 0.0553193 -0.72966 
-0.132873 0.0541455 -0.73384 -0.134955 0.0528467 -0.737826 -0.136587 0.0515467 -0.741456 
-0.137797 0.0503732 -0.744551 -0.138622 0.0494443 -0.746939 -0.139092 0.0488556 -0.748475 
-0.13923 0.0486697 -0.749062 
LINES 2 100
OFFSETS vtktypeint64
0 100 
CONNECTIVITY vtktypeint64
0 1 2 3 4 5 6 7 8 
9 10 11 12 13 14 15 16 17 
18 19 20 21 22 23 24 25 26 
27 28 29 30 31 32 33 34 35 
36 37 38 39 40 41 42 43 44 
45 46 47 48 49 50 51 52 53 
54 55 56 57 58 59 60 61 62 
63 64 65 66 67 68 69 70 71 
72 73 74 75 76 77 78 79 80 
81 82 83 84 85 86 87 88 89 
90 91 92 93 94 95 96 97 98 
99 
POINT_DATA 100
FIELD FieldData 3
_theta 1 100 double
0 0.031733259127 0.063466518254 0.095199777382 0.12693303651 0.15866629564 0.19039955476 0.22213281389 0.25386607302 
0.28559933214 0.31733259127 0.3490658504 0.38079910953 0.41253236865 0.44426562778 0.47599888691 0.50773214603 0.53946540516 
0.57119866429 0.60293192342 0.63466518254 0.66639844167 0.6981317008 0.72986495992 0.76159821905 0.79333147818 0.82506473731 
0.85679799643 0.88853125556 0.92026451469 0.95199777382 0.98373103294 1.0154642921 1.0471975512 1.0789308103 1.1106640695 
1.1423973286 1.1741305877 1.2058638468 1.237597106 1.2693303651 1.3010636242 1.3327968833 1.3645301425 1.3962634016 
1.4279966607 1.4597299198 1.491463179 1.5231964381 1.5549296972 1.5866629564 1.6183962155 1.6501294746 1.6818627337 
1.7135959929 1.745329252 1.7770625111 1.8087957702 1.8405290294 1.8722622885 1.9039955476 1.9357288068 1.9674620659 
1.999195325 2.0309285841 2.0626618433 2.0943951024 2.1261283615 2.1578616206 2.1895948798 2.2213281389 2.253061398 
2.2847946572 2.3165279163 2.3482611754 2.3799944345 2.4117276937 2.4434609528 2.4751942119 2.506927471 2.5386607302 
2.5703939893 2.6021272484 2.6338605076 2.6655937667 2.6973270258 2.7290602849 2.7607935441 2.7925268032 2.8242600623 
2.8559933214 2.8877265806 2.9194598397 2.9511930988 2.982926358 3.0146596171 3.0463928762 3.0781261353 3.1098593945 
3.1415926536 
_radius 1 100 double
5.8849838764e-16 0.016704047209 0.033210754255 0.049331024654 0.064898640383 0.079778464799 0.093870971403 0.10711269955 0.11947292979 
0.13094749674 0.14155104797 0.15130914011 0.16025135544 0.16840619934 0.17579802612 0.1824458064 0.18836334262 0.19356059791 
0.19804600683 0.20182976815 0.20492799586 0.20736720781 0.20918814176 0.21044760692 0.21121724901 0.21157876308 0.21161601967 
0.21140545263 0.21100664168 0.21045521813 0.20976002568 0.20890585154 0.20786196036 0.20659518977 0.20508480597 0.20333516684 
0.20138222374 0.19929196511 0.19715306702 0.1950691521 0.19315416334 0.19152938182 0.19031868245 0.18964080722 0.18960000523 
0.19027703936 0.19172178116 0.19394772433 0.19692849405 0.20059668175 0.20484550688 0.20953356595 0.21449246961 0.21953682982 
0.22447590573 0.22912609742 0.23332331018 0.23693407325 0.23986430593 0.24206483127 0.24353311054 0.24431112612 0.24447979884 
0.24415072755 0.24345633404 0.24253960934 0.24154448294 0.2406073099 0.23984919332 0.23936818534 0.23923033523 0.23945940714 
0.24002669263 0.24084388315 0.24176234921 0.24258081281 0.24306088578 0.24294771712 0.24199214367 0.23997124986 0.23670532327 
0.23207012807 0.22600397809 0.21850938747 0.20964925658 0.19953768832 0.18832579133 0.17618364578 0.16328128378 0.14977305717 
0.13578893389 0.12143287314 0.10678560112 0.091909022405 0.076850856342 0.061648982205 0.04633515196 0.030937792532 0.015483863913 
1.4190017676e-15 
_area 1 100 double
0 0.00065525152735 0.0026133440541 0.0058449654123 0.010284087693 0.015813017058 0.022255745803 0.0293837867 0.036934128441 
0.044635053583 0.052233083535 0.059514193074 0.06631492687 0.072523007743 0.078070402443 0.082923172923 0.087072013963 0.090526307729 
0.093313270973 0.095481886368 0.097108825292 0.09830121725 0.099187431927 0.099876761963 0.10039500999 0.10070653998 0.10079727837 
0.10070477485 0.10049738652 0.10024315407 0.099988788038 0.099745734726 0.099488808748 0.099175137319 0.098779032997 0.098325576592 
0.097895959144 0.097587482044 0.09745394497 0.097496943013 0.097718848961 0.098165288139 0.098925110068 0.10010324544 0.10178907648 
0.1040401256 0.10688665127 0.11034438335 0.11442104398 0.11911229344 0.12438976808 0.1301864383 0.13638469622 0.14281130968 
0.14924182109 0.15541571498 0.16106199341 0.16593193799 0.16983258103 0.17265273099 0.17437469586 0.17506877199 0.17487245491 
0.17396018916 0.17251092517 0.17068046681 0.16858626299 0.16631252474 0.1639347616 0.16154717986 0.15927270503 0.15724842884 
0.1555940129 0.1543756474 0.15357147116 0.1530186945 0.15232869068 0.15093521637 0.14829639704 0.14403542614 0.13799393372 
0.13023520525 0.12101740159 0.11074729203 0.09991838204 0.089032999219 0.078511192125 0.06860934272 0.059394844389 0.050798471629 
0.042707458031 0.035047186659 0.027823148198 0.021121650196 0.015084518114 0.0098756630843 0.0056516884521 0.0025421301327 0.00064000475081 
7.8170870963e-17 
