# vtk DataFile Version 5.1
vtk output
ASCII
DATASET POLYDATA
POINTS 100 float
-0.186308 -0.0388273 0.738195 -0.186288 -0.0388752 0.738316 -0.18628 -0.0388516 0.738603 
-0.186207 -0.0387493 0.738921 -0.185952 -0.0385554 0.739063 -0.18537 -0.0382482 0.738768 
-0.184307 -0.0377959 0.737757 -0.182616 -0.0371546 0.735754 -0.180175 -0.036268 0.732523 
-0.176899 -0.0350684 0.727888 -0.172746 -0.0334803 0.721749 -0.167724 -0.0314254 0.714093 
-0.161882 -0.0288291 0.704992 -0.155303 -0.0256283 0.694587 -0.14809 -0.0217793 0.683075 
-0.140353 -0.0172648 0.670682 -0.132195 -0.0120995 0.657637 -0.123701 -0.00633303 0.64415 
-0.114926 -4.99562e-05 0.630386 -0.105898 0.00663312 0.616454 -0.0966192 0.0135738 0.602396 
-0.087068 0.0206123 0.588194 -0.0772138 0.0275818 0.57377 -0.0670263 0.0343193 0.559007 
-0.0564868 0.0406759 0.543765 -0.0455969 0.0465261 0.5279 -0.0343838 0.0517737 0.511284 
-0.0229017 0.0563561 0.493818 -0.0112284 0.0602441 0.475448 0.000542127 0.0634397 0.456162 
0.0123088 0.0659707 0.435994 0.0239744 0.0678842 0.415016 0.0354546 0.069238 0.393324 
0.0466854 0.0700942 0.371027 0.0576255 0.0705116 0.348236 0.0682552 0.0705417 0.325047 
0.0785701 0.0702261 0.301535 0.0885708 0.0695956 0.27775 0.0982515 0.068673 0.253715 
0.107587 0.0674753 0.229431 0.116522 0.0660188 0.204884 0.124963 0.0643225 0.180053 
0.132781 0.062412 0.154922 0.13981 0.0603213 0.129487 0.145859 0.0580935 0.103762 
0.15073 0.0557788 0.0777861 0.154233 0.053432 0.0516179 0.156211 0.0511081 0.025337 
0.156552 0.0488571 -0.000963029 0.15521 0.0467198 -0.0271822 0.152211 0.0447239 -0.0532212 
0.147655 0.0428818 -0.078988 0.141709 0.0411902 -0.104404 0.134596 0.0396314 -0.129404 
0.126574 0.0381773 -0.153942 0.117911 0.0367935 -0.177982 0.108865 0.0354453 -0.201499 
0.0996589 0.0341031 -0.224474 0.0904649 0.0327477 -0.246886 0.0813913 0.0313732 -0.268714 
0.072481 0.0299892 -0.289928 0.0637152 0.0286206 -0.310497 0.0550259 0.0273053 -0.330385 
0.0463127 0.0260903 -0.349561 0.0374633 0.0250269 -0.368 0.0283745 0.0241654 -0.385689 
0.0189701 0.0235496 -0.402635 0.00921458 0.023213 -0.418864 -0.000879223 0.0231755 -0.434425 
-0.0112502 0.0234422 -0.449382 -0.0217951 0.0240043 -0.463815 -0.0323813 0.0248401 -0.477809 
-0.0428621 0.0259189 -0.491445 -0.0530942 0.0272038 -0.504791 -0.0629539 0.0286558 -0.517896 
-0.0723501 0.0302361 -0.53078 -0.0812317 0.0319089 -0.543435 -0.0895894 0.0336414 -0.55582 
-0.0974517 0.0354045 -0.56787 -0.104875 0.0371705 -0.579499 -0.11193 0.0389121 -0.590612 
-0.118687 0.0406002 -0.601111 -0.125204 0.0422026 -0.610911 -0.131512 0.0436833 -0.619942 
-0.137609 0.0450033 -0.628162 -0.143462 0.0461229 -0.635555 -0.149005 0.0470043 -0.642135 
-0.154156 0.0476161 -0.647939 -0.158823 0.0479376 -0.653027 -0.162922 0.0479627 -0.657466 
-0.166389 0.0477031 -0.66133 -0.169194 0.0471898 -0.664688 -0.171345 0.0464727 -0.667598 
-0.172886 0.0456181 -0.670103 -0.1739 0.0447045 -0.672231 -0.174494 0.0438159 -0.673995 
-0.174785 0.0430349 -0.675396 -0.174887 0.0424354 -0.676425 -0.174894 0.0420757 -0.677072 
-0.174869 0.0419924 -0.677327 
LINES 2 100
OFFSETS vtktypeint64
0 100 
CONNECTIVITY vtktypeint64
0 1 2 3 4 5 6 7 8 
9 10 11 12 13 14 15 16 17 
18 19 20 21 22 23 24 25 26 
27 28 29 30 31 32 33 34 35 
36 37 38 39 40 41 42 43 44 
45 46 47 48 49 50 51 52 53 
54 55 56 57 58 59 60 61 62 
63 64 65 66 67 68 69 70 71 
72 73 74 75 76 77 78 79 80 
81 82 83 84 85 86 87 88 89 
90 91 92 93 94 95 96 97 98 
99 
POINT_DATA 100
FIELD FieldData 3
_theta 1 100 double
0 0.031733259127 0.063466518254 0.095199777382 0.12693303651 0.15866629564 0.19039955476 0.22213281389 0.25386607302 
0.28559933214 0.31733259127 0.3490658504 0.38079910953 0.41253236865 0.44426562778 0.47599888691 0.50773214603 0.53946540516 
0.57119866429 0.60293192342 0.63466518254 0.66639844167 0.6981317008 0.72986495992 0.76159821905 0.79333147818 0.82506473731 
0.85679799643 0.88853125556 0.92026451469 0.95199777382 0.98373103294 1.0154642921 1.0471975512 1.0789308103 1.1106640695 
1.1423973286 1.1741305877 1.2058638468 1.237597106 1.2693303651 1.3010636242 1.3327968833 1.3645301425 1.3962634016 
1.4279966607 1.4597299198 1.491463179 1.5231964381 1.5549296972 1.5866629564 1.6183962155 1.6501294746 1.6818627337 
1.7135959929 1.745329252 1.7770625111 1.8087957702 1.8405290294 1.8722622885 1.9039955476 1.9357288068 1.9674620659 
1.999195325 2.0309285841 2.0626618433 2.0943951024 2.1261283615 2.1578616206 2.1895948798 2.2213281389 2.253061398 
2.2847946572 2.3165279163 2.3482611754 2.3799944345 2.4117276937 2.4434609528 2.4751942119 2.506927471 2.5386607302 
2.5703939893 2.6021272484 2.6338605076 2.6655937667 2.6973270258 2.7290602849 2.7607935441 2.7925268032 2.8242600623 
2.8559933214 2.8877265806 2.9194598397 2.9511930988 2.982926358 3.0146596171 3.0463928762 3.0781261353 3.1098593945 
3.1415926536 
_radius 1 100 double
7.8209676533e-16 0.018583929399 0.036896696551 0.05468069278 0.071712559924 0.087815044806 0.10286332257 0.11678573172 0.12955978563 
0.14120479995 0.15177241085 0.16133584765 0.16997844671 0.17778187551 0.18481493778 0.19112442458 0.19672988018 0.20162402719 
0.20577976261 0.2091631599 0.21175016053 0.21354324602 0.21458398186 0.21495817122 0.21479217813 0.21424115381 0.2134717596 
0.21264302465 0.21188898473 0.2113058231 0.2109447865 0.21081075458 0.21086551658 0.21103474806 0.21121814163 0.21130257314 
0.21117801249 0.2107548757 0.20998009856 0.20884842387 0.20740608735 0.20574623429 0.20399817506 0.20231468915 0.20086158225 
0.19981100864 0.19933610882 0.19960214978 0.20075059935 0.20287697908 0.20600836456 0.21008879615 0.21497883914 0.22047037707 
0.22631269137 0.23224332084 0.23801729699 0.24343010982 0.24833209011 0.2526340091 0.25630514202 0.2593657013 0.26187557983 
0.26392105902 0.26560081063 0.26701230023 0.26823956681 0.26934319932 0.27035306783 0.27126403363 0.27203463305 0.27258880376 
0.27282105447 0.2726055617 0.27180887299 0.27030437548 0.26798562836 0.26477592431 0.2606326513 0.25554629286 0.24953484042 
0.24263505999 0.23489252275 0.22635246566 0.21705323047 0.20702321632 0.19628119771 0.18483892223 0.17270451686 0.15988555129 
0.14639138705 0.13223516277 0.1174360026 0.102021782 0.086032344845 0.069522691029 0.052565411328 0.035251559605 0.017689291143 
4.4550879117e-16 
_area 1 100 double
0 0.00072169039016 0.0028446510316 0.0062547521513 0.010795569796 0.016298326897 0.022595813716 0.029519480418 0.036892529911 
0.044528776943 0.052237380925 0.059830437406 0.067132461293 0.07399139664 0.080288374937 0.085941753145 0.090902374945 0.095140597807 
0.098630190014 0.10133841395 0.10323213274 0.10430337305 0.10460974302 0.10431805894 0.10374176727 0.10286667711 0.10165578642 
0.10023679811 0.098775795254 0.097443763502 0.096393744549 0.095742684423 0.095557459261 0.095842911429 0.096580754445 0.097664496455 
0.09881792438 0.099874114317 0.10073493441 0.1013786214 0.10184480263 0.10219291358 0.10245327706 0.10261470821 0.10268119428 
0.102752833 0.10303913654 0.10380644522 0.10532435936 0.10783136527 0.11149242182 0.11636239089 0.1223702939 0.12932524816 
0.13694039604 0.14486830466 0.15274064588 0.16020554847 0.16695806011 0.17276219587 0.1774649699 0.18100303152 0.18340233198 
0.18477151943 0.18528978937 0.18518805498 0.18471777719 0.18409949625 0.18345887331 0.18279020642 0.1819757813 0.18083320952 
0.17915527906 0.17673894237 0.17341707341 0.16909376118 0.16376327042 0.15749212076 0.15038861027 0.14260480377 0.13433160032 
0.1257510457 0.11698233093 0.10806527785 0.098989402504 0.089744100979 0.080360196974 0.070926552826 0.061580345285 0.052480027506 
0.043775615664 0.035590499176 0.028021366253 0.021151680591 0.015067569091 0.0098669147456 0.0056584435065 0.0025520855351 0.00064391758045 
7.2511688381e-17 
