# vtk DataFile Version 5.1
vtk output
ASCII
DATASET POLYDATA
POINTS 100 float
-0.135398 -0.0309353 0.737021 -0.135184 -0.0309997 0.73689 -0.134583 -0.0309742 0.73655 
-0.133616 -0.0308315 0.735942 -0.132316 -0.030529 0.734976 -0.130718 -0.0300116 0.733538 
-0.128853 -0.0292161 0.731503 -0.126742 -0.0280765 0.728748 -0.124385 -0.0265287 0.725163 
-0.121764 -0.0245163 0.720664 -0.118835 -0.0219947 0.715196 -0.115536 -0.0189348 0.70874 
-0.111788 -0.0153262 0.701312 -0.107504 -0.0111782 0.692955 -0.102602 -0.00651992 0.683734 
-0.0970096 -0.00139929 0.673725 -0.0906774 0.00411934 0.663005 -0.0835838 0.00995818 0.65164 
-0.0757401 0.0160296 0.639681 -0.0671905 0.0222397 0.627151 -0.0580099 0.0284924 0.614051 
-0.0482969 0.0346921 0.600358 -0.0381658 0.0407465 0.586026 -0.0277367 0.0465685 0.571003 
-0.0171251 0.0520773 0.55523 -0.00643366 0.0571987 0.538654 0.0042542 0.0618654 0.521239 
0.014878 0.0660164 0.502967 0.0253999 0.0695968 0.483846 0.0358014 0.0725574 0.463906 
0.0460778 0.0748554 0.443198 0.0562295 0.0764548 0.421789 0.0662541 0.0773277 0.399752 
0.0761379 0.077456 0.377159 0.0858496 0.0768337 0.354073 0.0953356 0.0754688 0.33054 
0.104519 0.0733857 0.306587 0.113302 0.0706261 0.28222 0.121568 0.0672503 0.257424 
0.129191 0.0633365 0.232173 0.136042 0.0589802 0.206435 0.141999 0.0542908 0.180184 
0.146949 0.0493892 0.153406 0.150803 0.0444023 0.126114 0.153493 0.039459 0.0983486 
0.154976 0.0346844 0.0701882 0.155237 0.0301952 0.0417451 0.154284 0.0260945 0.0131642 
0.152145 0.0224687 -0.0153844 0.148868 0.0193843 -0.0437153 0.144513 0.0168867 -0.0716392 
0.139155 0.0149995 -0.0989758 0.132877 0.0137256 -0.125566 0.125772 0.0130491 -0.15128 
0.117942 0.0129375 -0.176029 0.109497 0.0133449 -0.199765 0.100555 0.0142154 -0.222481 
0.0912415 0.0154859 -0.244211 0.081686 0.0170892 -0.265022 0.0720174 0.0189565 -0.285003 
0.0623592 0.0210193 -0.304258 0.0528227 0.0232115 -0.322892 0.0435004 0.0254702 -0.341006 
0.0344597 0.0277371 -0.358688 0.0257377 0.0299593 -0.376005 0.0173392 0.0320903 -0.393005 
0.00923701 0.0340907 -0.409715 0.00137534 0.0359295 -0.426144 -0.00632295 0.0375847 -0.442289 
-0.0139468 0.0390442 -0.458137 -0.0215856 0.0403061 -0.473673 -0.0293169 0.0413789 -0.488886 
-0.0371957 0.0422807 -0.503768 -0.0452446 0.0430383 -0.518317 -0.0534487 0.043685 -0.532537 
-0.0617533 0.0442579 -0.546436 -0.0700671 0.0447954 -0.560019 -0.0782693 0.0453335 -0.573285 
-0.0862198 0.0459026 -0.586222 -0.093773 0.046525 -0.598803 -0.100791 0.0472125 -0.610982 
-0.107158 0.0479651 -0.622696 -0.112791 0.0487711 -0.633863 -0.117646 0.0496081 -0.644392 
-0.121722 0.0504455 -0.654183 -0.125062 0.0512473 -0.66314 -0.127742 0.051976 -0.671178 
-0.129865 0.0525971 -0.678231 -0.131549 0.0530824 -0.68426 -0.132909 0.0534136 -0.68926 
-0.134053 0.0535846 -0.693262 -0.135066 0.0536027 -0.696332 -0.136005 0.053488 -0.698569 
-0.136898 0.0532718 -0.700098 -0.137742 0.0529937 -0.701062 -0.138515 0.0526977 -0.70161 
-0.139176 0.0524281 -0.701883 -0.139683 0.0522243 -0.702005 -0.139994 0.0521176 -0.702075 
-0.140084 0.0521276 -0.702153 
LINES 2 100
OFFSETS vtktypeint64
0 100 
CONNECTIVITY vtktypeint64
0 1 2 3 4 5 6 7 8 
9 10 11 12 13 14 15 16 17 
18 19 20 21 22 23 24 25 26 
27 28 29 30 31 32 33 34 35 
36 37 38 39 40 41 42 43 44 
45 46 47 48 49 50 51 52 53 
54 55 56 57 58 59 60 61 62 
63 64 65 66 67 68 69 70 71 
72 73 74 75 76 77 78 79 80 
81 82 83 84 85 86 87 88 89 
90 91 92 93 94 95 96 97 98 
99 
POINT_DATA 100
FIELD FieldData 3
_theta 1 100 double
0 0.031733259127 0.063466518254 0.095199777382 0.12693303651 0.15866629564 0.19039955476 0.22213281389 0.25386607302 
0.28559933214 0.31733259127 0.3490658504 0.38079910953 0.41253236865 0.44426562778 0.47599888691 0.50773214603 0.53946540516 
0.57119866429 0.60293192342 0.63466518254 0.66639844167 0.6981317008 0.72986495992 0.76159821905 0.79333147818 0.82506473731 
0.85679799643 0.88853125556 0.92026451469 0.95199777382 0.98373103294 1.0154642921 1.0471975512 1.0789308103 1.1106640695 
1.1423973286 1.1741305877 1.2058638468 1.237597106 1.2693303651 1.3010636242 1.3327968833 1.3645301425 1.3962634016 
1.4279966607 1.4597299198 1.491463179 1.5231964381 1.5549296972 1.5866629564 1.6183962155 1.6501294746 1.6818627337 
1.7135959929 1.745329252 1.7770625111 1.8087957702 1.8405290294 1.8722622885 1.9039955476 1.9357288068 1.9674620659 
1.999195325 2.0309285841 2.0626618433 2.0943951024 2.1261283615 2.1578616206 2.1895948798 2.2213281389 2.253061398 
2.2847946572 2.3165279163 2.3482611754 2.3799944345 2.4117276937 2.4434609528 2.4751942119 2.506927471 2.5386607302 
2.5703939893 2.6021272484 2.6338605076 2.6655937667 2.6973270258 2.7290602849 2.7607935441 2.7925268032 2.8242600623 
2.8559933214 2.8877265806 2.9194598397 2.9511930988 2.982926358 3.0146596171 3.0463928762 3.0781261353 3.1098593945 
3.1415926536 
_radius 1 100 double
5.7981299473e-16 0.01531293516 0.030642020727 0.045985681431 0.061315227887 0.076565433761 0.091629868841 0.10636189805 0.12058155 
0.13408762654 0.1466736376 0.1581455819 0.16833936494 0.17713577202 0.18447133017 0.19034398957 0.19481320954 0.19799464306 
0.20005012359 0.20117406575 0.20157771579 0.2014728938 0.2010568381 0.20049940159 0.19993328551 0.19944759728 0.19908507421 
0.1988436531 0.19868308876 0.19853655124 0.19832574093 0.19797681688 0.19743405564 0.19666880853 0.19568261886 0.19450464976 
0.19318449579 0.1917826516 0.19036293358 0.18899116887 0.18773932281 0.18668857018 0.18592532013 0.18552977481 0.18556225902 
0.18605485702 0.18701359692 0.18843070551 0.19030068356 0.19263181967 0.19544727596 0.19877482456 0.20262890752 0.20699137468 
0.21179745126 0.21693135333 0.22223258923 0.22751094195 0.23256646505 0.2372105508 0.24128466748 0.24467423807 0.24731618765 
0.24919985645 0.25036206725 0.25087787584 0.25084877782 0.25038999073 0.24961810222 0.24864002824 0.24754386503 0.24639181291 
0.24521499783 0.24400994369 0.2427367568 0.24131955818 0.23964995128 0.2375940987 0.23500334568 0.23172750722 0.22762919806 
0.2225971427 0.21655636499 0.20947353692 0.20135652055 0.19224821162 0.18221607589 0.17133995217 0.15970121555 0.1473757585 
0.1344316074 0.12093023607 0.1069296795 0.092487628125 0.077663397437 0.062518489131 0.047116059224 0.031519899042 0.015793552626 
9.377642808e-16 
_area 1 100 double
0 0.000654180403 0.0026184425652 0.0058935406087 0.010466374323 0.016290303532 0.02326276153 0.031206614125 0.039862355395 
0.048896342828 0.057926198683 0.066559470253 0.074437356299 0.08127342942 0.08687872513 0.091168888361 0.094154475 0.09591979296 
0.096597657157 0.096347658265 0.095345318991 0.093792684014 0.092085883638 0.091117738479 0.090796059053 0.091072431504 0.091934624064 
0.093288978983 0.094966616915 0.096763905384 0.098487645004 0.099983566112 0.101133592 0.10183905399 0.10206303831 0.10189879339 
0.10145344238 0.10078811503 0.099957978656 0.09897711624 0.097884902733 0.096854490631 0.096221732557 0.096268892258 0.096999782259 
0.098360969849 0.10046193295 0.10348430464 0.10702657045 0.11074908977 0.11458166269 0.11859535771 0.12291117693 0.12762194374 
0.13273691666 0.13815890994 0.14369653273 0.14911409905 0.15426531112 0.15941705597 0.16432953475 0.16865128845 0.17198698508 
0.17431791848 0.17560497119 0.1759558371 0.17539548169 0.17395214115 0.17173621951 0.16888532837 0.16555506415 0.16191423212 
0.15813619254 0.1543819939 0.15077442269 0.14736295244 0.14408604342 0.14076091006 0.13712794135 0.13292505299 0.12794401259 
0.12205866355 0.11523681552 0.10754119186 0.099118737357 0.090177423654 0.080952481927 0.071668444474 0.062508277369 0.053601988181 
0.045038847554 0.036893154009 0.029247444104 0.022204331594 0.015887711677 0.010437208153 0.0059982817293 0.0027089006038 0.00068395415242 
3.118234973e-17 
