# vtk DataFile Version 5.1
vtk output
ASCII
DATASET POLYDATA
POINTS 100 float
-0.0841655 -0.0371754 0.81698 -0.0837047 -0.0371373 0.816622 -0.0823355 -0.0368465 0.815568 
-0.0801131 -0.036275 0.81379 -0.0771216 -0.0353813 0.811248 -0.0734641 -0.034115 0.807894 
-0.0692505 -0.0324236 0.803675 -0.0645849 -0.030259 0.798544 -0.059554 -0.0275839 0.792464 
-0.0542188 -0.0243773 0.78541 -0.0486094 -0.0206387 0.777377 -0.0427247 -0.016389 0.768376 
-0.0365366 -0.0116708 0.758431 -0.0299977 -0.00654575 0.747583 -0.0230523 -0.00108964 0.735875 
-0.0156481 0.00461273 0.723357 -0.00774756 0.010474 0.710071 0.000662051 0.0164105 0.696055 
0.009563 0.0223473 0.681337 0.018905 0.0282221 0.665934 0.0286078 0.0339871 0.649853 
0.0385683 0.039609 0.633093 0.0486707 0.0450663 0.61565 0.0587982 0.0503458 0.597517 
0.0688464 0.0554368 0.578691 0.0787333 0.0603259 0.559171 0.088408 0.0649909 0.538964 
0.0978536 0.0693961 0.51808 0.107087 0.0734898 0.496529 0.11615 0.0772028 0.474325 
0.125103 0.0804503 0.451473 0.134007 0.0831356 0.427974 0.142912 0.0851564 0.403821 
0.151837 0.0864123 0.378997 0.160764 0.0868139 0.353478 0.169626 0.0862919 0.327239 
0.178302 0.084805 0.30026 0.186625 0.0823467 0.272533 0.194387 0.0789504 0.244071 
0.201353 0.0746901 0.214915 0.207282 0.0696802 0.185142 0.211942 0.0640701 0.154866 
0.215136 0.0580377 0.124237 0.216712 0.0517793 0.0934404 0.216586 0.0454993 0.0626873 
0.214741 0.0393977 0.0322029 0.211237 0.0336591 0.00221397 0.206204 0.0284423 -0.0270657 
0.19983 0.0238718 -0.0554494 0.192349 0.020032 -0.0827892 0.18402 0.0169646 -0.108985 
0.175112 0.0146689 -0.133991 0.16588 0.0131052 -0.157812 0.15655 0.0122009 -0.180504 
0.147308 0.0118591 -0.202162 0.138287 0.0119678 -0.222909 0.12957 0.0124106 -0.242884 
0.121186 0.0130762 -0.262229 0.113119 0.0138673 -0.281072 0.105319 0.0147074 -0.29952 
0.0977107 0.0155458 -0.317654 0.0902093 0.016359 -0.335519 0.0827294 0.0171506 -0.353134 
0.0751972 0.0179473 -0.370488 0.067557 0.0187941 -0.387553 0.0597759 0.0197468 -0.404292 
0.0518455 0.0208648 -0.420664 0.04378 0.0222026 -0.436638 0.0356129 0.0238029 -0.452195 
0.0273919 0.0256906 -0.467331 0.0191733 0.0278685 -0.482063 0.0110165 0.0303164 -0.496419 
0.00297912 0.0329909 -0.510437 -0.00488571 0.0358287 -0.524158 -0.0125316 0.0387519 -0.537615 
-0.0199191 0.0416741 -0.550831 -0.0270146 0.0445082 -0.563807 -0.0337888 0.0471737 -0.576523 
-0.0402145 0.0496037 -0.588935 -0.0462647 0.0517509 -0.600975 -0.0519109 0.053591 -0.612559 
-0.0571231 0.0551247 -0.62359 -0.0618702 0.0563769 -0.633968 -0.0661214 0.0573934 -0.643598 
-0.0698491 0.0582363 -0.652398 -0.0730319 0.0589769 -0.660306 -0.0756577 0.0596883 -0.667285 
-0.0777271 0.0604381 -0.673326 -0.0792557 0.061281 -0.678445 -0.0802754 0.0622531 -0.682689 
-0.0808349 0.0633684 -0.686125 -0.0809981 0.064617 -0.688837 -0.0808416 0.0659659 -0.69092 
-0.0804512 0.0673623 -0.692477 -0.0799168 0.068739 -0.693607 -0.0793273 0.0700207 -0.694403 
-0.0787649 0.0711318 -0.694949 -0.0782998 0.0720038 -0.695312 -0.077986 0.0725826 -0.695543 
-0.0778572 0.0728331 -0.695672 
LINES 2 100
OFFSETS vtktypeint64
0 100 
CONNECTIVITY vtktypeint64
0 1 2 3 4 5 6 7 8 
9 10 11 12 13 14 15 16 17 
18 19 20 21 22 23 24 25 26 
27 28 29 30 31 32 33 34 35 
36 37 38 39 40 41 42 43 44 
45 46 47 48 49 50 51 52 53 
54 55 56 57 58 59 60 61 62 
63 64 65 66 67 68 69 70 71 
72 73 74 75 76 77 78 79 80 
81 82 83 84 85 86 87 88 89 
90 91 92 93 94 95 96 97 98 
99 
POINT_DATA 100
FIELD FieldData 3
_theta 1 100 double
0 0.031733259127 0.063466518254 0.095199777382 0.12693303651 0.15866629564 0.19039955476 0.22213281389 0.25386607302 
0.28559933214 0.31733259127 0.3490658504 0.38079910953 0.41253236865 0.44426562778 0.47599888691 0.50773214603 0.53946540516 
0.57119866429 0.60293192342 0.63466518254 0.66639844167 0.6981317008 0.72986495992 0.76159821905 0.79333147818 0.82506473731 
0.85679799643 0.88853125556 0.92026451469 0.95199777382 0.98373103294 1.0154642921 1.0471975512 1.0789308103 1.1106640695 
1.1423973286 1.1741305877 1.2058638468 1.237597106 1.2693303651 1.3010636242 1.3327968833 1.3645301425 1.3962634016 
1.4279966607 1.4597299198 1.491463179 1.5231964381 1.5549296972 1.5866629564 1.6183962155 1.6501294746 1.6818627337 
1.7135959929 1.745329252 1.7770625111 1.8087957702 1.8405290294 1.8722622885 1.9039955476 1.9357288068 1.9674620659 
1.999195325 2.0309285841 2.0626618433 2.0943951024 2.1261283615 2.1578616206 2.1895948798 2.2213281389 2.253061398 
2.2847946572 2.3165279163 2.3482611754 2.3799944345 2.4117276937 2.4434609528 2.4751942119 2.506927471 2.5386607302 
2.5703939893 2.6021272484 2.6338605076 2.6655937667 2.6973270258 2.7290602849 2.7607935441 2.7925268032 2.8242600623 
2.8559933214 2.8877265806 2.9194598397 2.9511930988 2.982926358 3.0146596171 3.0463928762 3.0781261353 3.1098593945 
3.1415926536 
_radius 1 100 double
6.7407345455e-16 0.016754961804 0.033226366536 0.049149878041 0.06429758835 0.0784902965 0.091603939681 0.10356981425 0.11436915993 
0.12402346516 0.13258235962 0.14011112097 0.14667963444 0.15235417119 0.15719271042 0.16124386224 0.16454888658 0.16714594113 
0.1690755454 0.17038625386 0.17113958751 0.17141331758 0.17130225132 0.17091581933 0.17037209124 0.16978840159 0.16926954423 
0.16889537849 0.16871038529 0.16871777403 0.16887991295 0.16912545628 0.16936227069 0.16949450429 0.16944161931 0.16915642859 
0.16863834632 0.16793833174 0.16715409513 0.16641728658 0.16587690581 0.1656836057 0.16597774388 0.1668812725 0.16849155684 
0.17087494845 0.1740593087 0.17802667409 0.18270846073 0.18798528221 0.19369224898 0.19962961651 0.205578134 0.21131801425 
0.21664975272 0.22141408727 0.2255076815 0.22889132156 0.23158879023 0.23367664555 0.2352671077 0.23648757146 0.23746065711 
0.23828817304 0.23904107276 0.23975584439 0.24043631059 0.24105898157 0.24158001504 0.24194227937 0.24208164697 0.24193218309 
0.24143020454 0.2405172524 0.23914193499 0.23726048681 0.23483589242 0.23183561372 0.22822830833 0.22398031678 0.21905296758 
0.21340176313 0.20697820201 0.19973440872 0.19163002916 0.18264021477 0.17276314612 0.16202553226 0.15048484943 0.13822765448 
0.12536399328 0.11201859818 0.098320122255 0.084390001787 0.070332602991 0.056228067411 0.042128764877 0.028059616037 0.014021932802 
1.0266105868e-15 
_area 1 100 double
0 0.00061594435476 0.0024322628552 0.0053579719865 0.0092524617031 0.013939447968 0.019222291619 0.024898105171 0.03076876781 
0.036648023964 0.04236501886 0.047765567502 0.052712860372 0.057089122514 0.060799095153 0.06377529253 0.065984078313 0.0674311312 
0.068165299063 0.068281426483 0.067924846676 0.067310236859 0.066661688295 0.065936568744 0.065131931916 0.064345267528 0.063704564456 
0.063319735212 0.063251479577 0.063530205141 0.0640805959 0.064791104165 0.065574153697 0.066359793895 0.06711199829 0.067871484882 
0.068817377129 0.070127801487 0.071695780246 0.073362383467 0.075082416641 0.076913625296 0.078971541921 0.081388598477 0.084286206276 
0.087669916968 0.091455807412 0.09560045668 0.10009932072 0.10495504098 0.11015267887 0.11564065238 0.12132050853 0.12705000095 
0.13265947844 0.13797679946 0.14285401589 0.14718923191 0.15093939762 0.15412363358 0.15681792552 0.15913783112 0.16119985428 
0.16306688951 0.164720613 0.16608457995 0.16706394406 0.16757517459 0.16756595593 0.16702665574 0.16599058498 0.16452098872 
0.16268694278 0.16053500318 0.15806634066 0.15522889748 0.15192934978 0.14805998988 0.14352708575 0.13826829761 0.13225596499 
0.12549147547 0.11799847989 0.10982054971 0.10102478955 0.09170908494 0.082008449006 0.072095921926 0.062175438085 0.052467100055 
0.043188160642 0.034534593601 0.026667823297 0.01970917964 0.013741911372 0.0088183691237 0.0049690845818 0.0022109624265 0.0005530889733 
6.4241703097e-17 
