# vtk DataFile Version 5.1
vtk output
ASCII
DATASET POLYDATA
POINTS 100 float
-0.101231 -0.0562215 0.772478 -0.101384 -0.0560892 0.772218 -0.101843 -0.0554861 0.771426 
-0.102561 -0.0544227 0.770069 -0.103466 -0.052917 0.768098 -0.104466 -0.0509931 0.765452 
-0.105458 -0.0486801 0.762064 -0.106338 -0.0460106 0.757871 -0.107003 -0.0430188 0.752821 
-0.107361 -0.039738 0.746875 -0.107331 -0.0361989 0.740016 -0.106845 -0.0324274 0.73225 
-0.105845 -0.0284429 0.7236 -0.104277 -0.0242573 0.714111 -0.102091 -0.0198748 0.703841 
-0.0992337 -0.0152923 0.692852 -0.0956491 -0.0105012 0.681212 -0.0912771 -0.00549055 0.668978 
-0.0860576 -0.000250215 0.656199 -0.0799368 0.00522441 0.642908 -0.0728745 0.0109279 0.62912 
-0.0648537 0.0168403 0.614832 -0.0558887 0.0229233 0.600024 -0.0460319 0.0291178 0.584663 
-0.0353775 0.0353427 0.568705 -0.0240607 0.0414962 0.5521 -0.0122524 0.0474588 0.534796 
-0.000150274 0.0530986 0.516744 0.0120346 0.0582786 0.497899 0.0240924 0.0628651 0.478225 
0.0358293 0.0667368 0.457693 0.0470818 0.0697942 0.436285 0.0577261 0.0719677 0.413994 
0.0676835 0.0732238 0.390824 0.0769204 0.0735697 0.366787 0.0854418 0.0730536 0.341911 
0.0932812 0.0717632 0.316235 0.100486 0.0698195 0.28981 0.107102 0.0673692 0.262703 
0.113158 0.0645738 0.234995 0.118656 0.061598 0.206782 0.12356 0.0585977 0.178171 
0.127799 0.0557088 0.149283 0.131269 0.0530378 0.120244 0.133846 0.0506554 0.091184 
0.1354 0.0485934 0.062229 0.135812 0.0468455 0.0334992 0.134993 0.0453713 0.00510164 
0.132899 0.0441039 -0.022873 0.129541 0.0429599 -0.0503533 0.12499 0.0418504 -0.0772875 
0.119374 0.0406929 -0.103643 0.112864 0.0394216 -0.129404 0.105666 0.0379958 -0.154566 
0.0979932 0.0364057 -0.179132 0.0900492 0.0346739 -0.203106 0.0820066 0.032854 -0.226492 
0.073991 0.0310248 -0.249282 0.0660716 0.0292826 -0.271464 0.0582581 0.0277303 -0.293016 
0.0505067 0.0264666 -0.313907 0.0427323 0.0255748 -0.334108 0.0348263 0.0251139 -0.353589 
0.0266778 0.0251111 -0.37233 0.0181945 0.0255588 -0.390326 0.00932091 0.0264143 -0.40759 
5.16479e-05 0.0276043 -0.424159 -0.00956281 0.0290311 -0.440088 -0.019418 0.0305828 -0.455455 
-0.0293654 0.0321438 -0.470353 -0.0392279 0.0336061 -0.48488 -0.048821 0.0348795 -0.499133 
-0.0579737 0.0358997 -0.513201 -0.0665487 0.0366334 -0.52715 -0.0744587 0.0370802 -0.541019 
-0.0816745 0.0372705 -0.554815 -0.0882268 0.0372603 -0.568508 -0.0941991 0.0371241 -0.582035 
-0.0997134 0.0369443 -0.595302 -0.104911 0.0368021 -0.60819 -0.109931 0.0367673 -0.620566 
-0.114888 0.0368908 -0.632296 -0.119854 0.0371989 -0.643248 -0.124848 0.0376911 -0.653311 
-0.129831 0.0383412 -0.662395 -0.13471 0.039101 -0.670446 -0.139352 0.0399074 -0.67744 
-0.1436 0.0406903 -0.683389 -0.147298 0.0413818 -0.688338 -0.150314 0.0419245 -0.692357 
-0.152557 0.042279 -0.695541 -0.153997 0.0424282 -0.697996 -0.15467 0.0423795 -0.699835 
-0.154677 0.0421636 -0.701173 -0.154173 0.0418306 -0.702116 -0.153352 0.0414432 -0.702761 
-0.152423 0.041069 -0.70319 -0.15158 0.0407721 -0.703468 -0.150987 0.0406046 -0.703641 
-0.150748 0.0406003 -0.703738 
LINES 2 100
OFFSETS vtktypeint64
0 100 
CONNECTIVITY vtktypeint64
0 1 2 3 4 5 6 7 8 
9 10 11 12 13 14 15 16 17 
18 19 20 21 22 23 24 25 26 
27 28 29 30 31 32 33 34 35 
36 37 38 39 40 41 42 43 44 
45 46 47 48 49 50 51 52 53 
54 55 56 57 58 59 60 61 62 
63 64 65 66 67 68 69 70 71 
72 73 74 75 76 77 78 79 80 
81 82 83 84 85 86 87 88 89 
90 91 92 93 94 95 96 97 98 
99 
POINT_DATA 100
FIELD FieldData 3
_theta 1 100 double
0 0.031733259127 0.063466518254 0.095199777382 0.12693303651 0.15866629564 0.19039955476 0.22213281389 0.25386607302 
0.28559933214 0.31733259127 0.3490658504 0.38079910953 0.41253236865 0.44426562778 0.47599888691 0.50773214603 0.53946540516 
0.57119866429 0.60293192342 0.63466518254 0.66639844167 0.6981317008 0.72986495992 0.76159821905 0.79333147818 0.82506473731 
0.85679799643 0.88853125556 0.92026451469 0.95199777382 0.98373103294 1.0154642921 1.0471975512 1.0789308103 1.1106640695 
1.1423973286 1.1741305877 1.2058638468 1.237597106 1.2693303651 1.3010636242 1.3327968833 1.3645301425 1.3962634016 
1.4279966607 1.4597299198 1.491463179 1.5231964381 1.5549296972 1.5866629564 1.6183962155 1.6501294746 1.6818627337 
1.7135959929 1.745329252 1.7770625111 1.8087957702 1.8405290294 1.8722622885 1.9039955476 1.9357288068 1.9674620659 
1.999195325 2.0309285841 2.0626618433 2.0943951024 2.1261283615 2.1578616206 2.1895948798 2.2213281389 2.253061398 
2.2847946572 2.3165279163 2.3482611754 2.3799944345 2.4117276937 2.4434609528 2.4751942119 2.506927471 2.5386607302 
2.5703939893 2.6021272484 2.6338605076 2.6655937667 2.6973270258 2.7290602849 2.7607935441 2.7925268032 2.8242600623 
2.8559933214 2.8877265806 2.9194598397 2.9511930988 2.982926358 3.0146596171 3.0463928762 3.0781261353 3.1098593945 
3.1415926536 
_radius 1 100 double
4.9202580624e-16 0.014237087543 0.028468649199 0.04267824488 0.056844523827 0.070935238815 0.084899361077 0.098659696241 0.1121086224 
0.12510868777 0.13749841958 0.14910247623 0.15974459399 0.16926164602 0.17751734551 0.18441445234 0.1899046263 0.19399524606 
0.19675259225 0.19830082933 0.19881630086 0.19851688588 0.19764664645 0.19645674545 0.19518447105 0.19403286291 0.19315362226 
0.19263565119 0.19250079384 0.19270722619 0.1931596557 0.1937245389 0.19424840563 0.19457794533 0.19458082883 0.19416558277 
0.1932977115 0.19200889457 0.19039700786 0.18861646978 0.18686031863 0.18533708532 0.18424672798 0.1837602993 0.18400712308 
0.18507085926 0.1869926016 0.189776648 0.19339439946 0.19778423194 0.20284863535 0.2084522666 0.21442459176 0.22056884552 
0.22667646401 0.23254423657 0.23799076753 0.24286935614 0.24707564634 0.25054982164 0.25327424257 0.25526797683 0.2565796595 
0.25727975528 0.25745283124 0.25719007584 0.25658211819 0.25571224201 0.25465029941 0.2534478558 0.25213513654 0.25072008913 
0.24918941936 0.24751105801 0.24563737798 0.24350861394 0.24105617663 0.23820575712 0.23488025825 0.23100269712 0.22649926648 
0.22130264675 0.2153554022 0.20861297598 0.20104560516 0.1926385692 0.18339060323 0.17331093789 0.16241601771 0.15072716641 
0.13827007209 0.1250760842 0.1111844857 0.096644662437 0.081517471831 0.065875678526 0.049803641437 0.033396405152 0.016758166217 
3.9092658543e-16 
_area 1 100 double
0 0.00057871628784 0.0023044194503 0.0051470720711 0.0090597348683 0.013979667677 0.019824965122 0.026486284928 0.033816586677 
0.041623640149 0.049669351771 0.057677708772 0.065350889149 0.072391647846 0.078529369314 0.083546598916 0.08730212763 0.089746269747 
0.090924772471 0.090970269119 0.090083529132 0.088509295351 0.08651200676 0.084355222373 0.082286813986 0.080574725169 0.079438722766 
0.078886888858 0.078981401328 0.079769468537 0.081256355423 0.083364932906 0.085906600795 0.088570050825 0.090978849261 0.092803118833 
0.093827892392 0.094003010844 0.093479611166 0.092595345104 0.091773450424 0.091397485247 0.091751814659 0.093015958677 0.095358448537 
0.098632905486 0.10254547289 0.10697504399 0.11191245873 0.1174072022 0.12352712071 0.13031758192 0.1377578399 0.14572219925 
0.15396513301 0.16214860107 0.16990613866 0.17691384647 0.18293834721 0.18784966005 0.19160514363 0.19422020999 0.19574102835 
0.19622789759 0.19575105498 0.19439583578 0.19227087292 0.18951163745 0.18627331658 0.18271196764 0.17895916235 0.17509978668 
0.17116246592 0.16712651059 0.16294089528 0.15854492576 0.15388137 0.14889953504 0.14355175701 0.13778839839 0.13155576275 
0.12480029969 0.11748004018 0.10958047643 0.10112947531 0.092205710985 0.08293702548 0.073488111511 0.064040362186 0.054770046218 
0.045832680805 0.037359343767 0.029464348346 0.022257518518 0.015853433394 0.010373785574 0.0059428156485 0.0026775316677 0.00067505719752 
4.3514262427e-17 
