# vtk DataFile Version 5.1
vtk output
ASCII
DATASET POLYDATA
POINTS 100 float
-0.0465272 -0.0251159 0.784147 -0.0467634 -0.0248156 0.783855 -0.0475019 -0.0237436 0.782966 
-0.0487107 -0.0219744 0.781457 -0.0503358 -0.0196228 0.779293 -0.052302 -0.0168314 0.776423 
-0.0545127 -0.0137541 0.772791 -0.0568522 -0.0105396 0.768334 -0.0591872 -0.00731489 0.762988 
-0.0613704 -0.00417308 0.756694 -0.0632452 -0.00116435 0.7494 -0.0646509 0.0017069 0.741067 
-0.0654298 0.00447933 0.731672 -0.065434 0.00722673 0.721211 -0.0645327 0.0100457 0.709703 
-0.0626191 0.0130405 0.697187 -0.0596162 0.0163074 0.683721 -0.055481 0.0199198 0.669385 
-0.0502071 0.0239164 0.654267 -0.0438246 0.0282932 0.638468 -0.0363984 0.0330013 0.622087 
-0.0280236 0.0379498 0.605222 -0.01882 0.0430129 0.587956 -0.00892427 0.0480422 0.570356 
0.00151717 0.0528805 0.552466 0.0123565 0.0573763 0.534307 0.0234511 0.0613979 0.515869 
0.0346692 0.0648443 0.497117 0.0458937 0.0676528 0.477993 0.0570238 0.0698016 0.45842 
0.0679743 0.0713079 0.438305 0.0786733 0.0722221 0.417552 0.0890588 0.0726184 0.396068 
0.0990734 0.0725836 0.373767 0.10866 0.0722056 0.350584 0.117756 0.0715624 0.326476 
0.126292 0.0707143 0.30143 0.13419 0.0696985 0.275463 0.14136 0.0685283 0.248627 
0.147709 0.0671952 0.221004 0.15314 0.0656749 0.192706 0.157557 0.0639355 0.163868 
0.160877 0.0619465 0.134644 0.163031 0.0596879 0.105199 0.163975 0.0571583 0.0757048 
0.163689 0.0543796 0.0463288 0.162187 0.0513997 0.017231 0.159513 0.0482908 -0.0114429 
0.15574 0.0451454 -0.0395659 0.150969 0.0420685 -0.0670329 0.145321 0.0391692 -0.0937629 
0.138927 0.0365503 -0.119699 0.131927 0.0342995 -0.144809 0.124455 0.0324813 -0.169083 
0.116633 0.0311312 -0.19253 0.108569 0.0302539 -0.215176 0.100349 0.0298228 -0.237061 
0.092033 0.0297845 -0.258233 0.0836625 0.0300643 -0.278746 0.0752563 0.030574 -0.298656 
0.0668181 0.0312211 -0.31802 0.0583412 0.0319169 -0.336889 0.0498147 0.0325848 -0.355311 
0.0412296 0.0331659 -0.373326 0.0325842 0.0336231 -0.390971 0.023888 0.0339428 -0.408274 
0.0151644 0.034134 -0.425259 0.00645123 0.0342254 -0.441944 -0.00220022 0.0342612 -0.458345 
-0.010728 0.0342953 -0.474472 -0.0190633 0.0343855 -0.490337 -0.0271347 0.0345881 -0.505945 
-0.0348731 0.0349526 -0.521301 -0.0422158 0.0355177 -0.536403 -0.0491102 0.036309 -0.551246 
-0.0555157 0.0373373 -0.565817 -0.0614057 0.0385985 -0.580092 -0.0667664 0.0400748 -0.59404 
-0.0715963 0.0417364 -0.607614 -0.0759039 0.0435439 -0.620759 -0.0797049 0.0454512 -0.633407 
-0.0830199 0.0474082 -0.645483 -0.0858718 0.0493638 -0.656905 -0.0882842 0.0512685 -0.66759 
-0.0902802 0.0530767 -0.677459 -0.0918824 0.0547488 -0.686444 -0.0931135 0.0562531 -0.694489 
-0.0939975 0.0575664 -0.701561 -0.0945609 0.0586755 -0.707649 -0.0948347 0.0595772 -0.712768 
-0.0948552 0.060278 -0.716961 -0.0946648 0.0607933 -0.720296 -0.0943112 0.0611464 -0.722861 
-0.0938469 0.0613663 -0.724764 -0.0933266 0.0614857 -0.72612 -0.0928045 0.0615384 -0.727045 
-0.0923314 0.0615566 -0.72765 -0.0919512 0.0615684 -0.728031 -0.0916975 0.0615959 -0.72826 
-0.0915918 0.0616527 -0.728383 
LINES 2 100
OFFSETS vtktypeint64
0 100 
CONNECTIVITY vtktypeint64
0 1 2 3 4 5 6 7 8 
9 10 11 12 13 14 15 16 17 
18 19 20 21 22 23 24 25 26 
27 28 29 30 31 32 33 34 35 
36 37 38 39 40 41 42 43 44 
45 46 47 48 49 50 51 52 53 
54 55 56 57 58 59 60 61 62 
63 64 65 66 67 68 69 70 71 
72 73 74 75 76 77 78 79 80 
81 82 83 84 85 86 87 88 89 
90 91 92 93 94 95 96 97 98 
99 
POINT_DATA 100
FIELD FieldData 3
_theta 1 100 double
0 0.031733259127 0.063466518254 0.095199777382 0.12693303651 0.15866629564 0.19039955476 0.22213281389 0.25386607302 
0.28559933214 0.31733259127 0.3490658504 0.38079910953 0.41253236865 0.44426562778 0.47599888691 0.50773214603 0.53946540516 
0.57119866429 0.60293192342 0.63466518254 0.66639844167 0.6981317008 0.72986495992 0.76159821905 0.79333147818 0.82506473731 
0.85679799643 0.88853125556 0.92026451469 0.95199777382 0.98373103294 1.0154642921 1.0471975512 1.0789308103 1.1106640695 
1.1423973286 1.1741305877 1.2058638468 1.237597106 1.2693303651 1.3010636242 1.3327968833 1.3645301425 1.3962634016 
1.4279966607 1.4597299198 1.491463179 1.5231964381 1.5549296972 1.5866629564 1.6183962155 1.6501294746 1.6818627337 
1.7135959929 1.745329252 1.7770625111 1.8087957702 1.8405290294 1.8722622885 1.9039955476 1.9357288068 1.9674620659 
1.999195325 2.0309285841 2.0626618433 2.0943951024 2.1261283615 2.1578616206 2.1895948798 2.2213281389 2.253061398 
2.2847946572 2.3165279163 2.3482611754 2.3799944345 2.4117276937 2.4434609528 2.4751942119 2.506927471 2.5386607302 
2.5703939893 2.6021272484 2.6338605076 2.6655937667 2.6973270258 2.7290602849 2.7607935441 2.7925268032 2.8242600623 
2.8559933214 2.8877265806 2.9194598397 2.9511930988 2.982926358 3.0146596171 3.0463928762 3.0781261353 3.1098593945 
3.1415926536 
_radius 1 100 double
8.8918074114e-16 0.014743389747 0.029485676507 0.044204308288 0.058848813004 0.07333373066 0.087538043584 0.10131109988 0.11448387697 
0.12688362415 0.138349564 0.14874740149 0.15798078715 0.16599851284 0.17279701785 0.17841865775 0.18294691904 0.18650000389 
0.18922371874 0.19128357797 0.19285517246 0.19411189904 0.19521026279 0.19627451771 0.19738347516 0.19856241365 0.19978230109 
0.20096724221 0.20200933897 0.20278834556 0.2031922769 0.20313512605 0.20256918372 0.20149150545 0.19994565608 0.19802004592 
0.19584330063 0.19357640202 0.19140137772 0.18950682286 0.18807132623 0.18724697506 0.18714604155 0.18783365812 0.18932733067 
0.19160169392 0.1945957555 0.19822050341 0.2023661579 0.2069093258 0.21172041487 0.21667118288 0.22164177142 0.22652637099 
0.23123683325 0.23570395058 0.23987658375 0.24371919682 0.2472085619 0.2503303903 0.25307646046 0.25544253091 0.25742705164 
0.25903050482 0.26025514771 0.26110495818 0.26158561567 0.26170433673 0.26146936182 0.26088894815 0.25996987817 0.25871563375 
0.25712439357 0.2551869406 0.25288460478 0.25018758595 0.24705425289 0.24343206008 0.23926044515 0.23447553867 0.22901594583 
0.22282849003 0.21587280991 0.20812408649 0.1995737798 0.19022879032 0.18010968461 0.16924851391 0.15768651503 0.14547184429 
0.13265750106 0.11929962665 0.1054563027 0.091186822972 0.076551271326 0.061610200365 0.046424289907 0.031054004923 0.015559373015 
1.3245612628e-15 
_area 1 100 double
0 0.00057664880756 0.0023018529332 0.0051595788046 0.0091164090539 0.014110408028 0.020036740353 0.026735452001 0.033987898445 
0.041525606203 0.049051158291 0.056267284102 0.06290804242 0.06876436824 0.073696078923 0.077626552347 0.080526066881 0.082398477291 
0.083283823117 0.083278644681 0.08256504753 0.08144026537 0.080400558294 0.079970066103 0.080274386069 0.081362037421 0.083157958747 
0.085440144359 0.08789140098 0.09018014564 0.0920339603 0.093280581564 0.093851207503 0.093767308585 0.093125097453 0.092086385095 
0.090914280937 0.090067275188 0.089861218141 0.09022257543 0.091403491815 0.093498903193 0.095735925818 0.098023779414 0.10038925356 
0.1029196752 0.10575780177 0.10908816392 0.11308915512 0.11785819706 0.12335586105 0.12941022015 0.13577267966 0.14218716946 
0.14844231795 0.15439485938 0.1599649853 0.16511315281 0.16981321793 0.17403271381 0.17772296303 0.18081884798 0.18324743 
0.18494181593 0.18585462701 0.1859672312 0.18529458429 0.18388682481 0.18182713931 0.1792246436 0.17620257247 0.17288258559 
0.16936538337 0.16571238979 0.16193761215 0.15800894342 0.15384970942 0.14934348867 0.14435191503 0.13874474046 0.13243216692 
0.12538786192 0.11765527959 0.10933572587 0.10056220379 0.091469550311 0.082176300879 0.072787527612 0.06341078028 0.05416914089 
0.045203786431 0.036668321027 0.028719707325 0.021509107083 0.015174202144 0.0098336445341 0.0055838609237 0.0024980691598 0.00062693700283 
8.7558165934e-17 
