# vtk DataFile Version 5.1
vtk output
ASCII
DATASET POLYDATA
POINTS 100 float
-0.160838 -0.0568064 0.719457 -0.160814 -0.0566035 0.719505 -0.160759 -0.055807 0.719544 
-0.16068 -0.0544011 0.719528 -0.160584 -0.0523647 0.719383 -0.16047 -0.0496769 0.719012 
-0.160323 -0.0463225 0.718306 -0.160106 -0.0422989 0.717146 -0.159755 -0.0376214 0.715409 
-0.159176 -0.0323263 0.712978 -0.158249 -0.0264726 0.709744 -0.156828 -0.0201408 0.705607 
-0.154761 -0.0134287 0.700482 -0.151894 -0.00644541 0.694299 -0.148088 0.000695304 0.687002 
-0.143236 0.00788305 0.678548 -0.137271 0.0150174 0.66891 -0.130177 0.0220134 0.658073 
-0.121992 0.028804 0.646036 -0.112801 0.035341 0.632812 -0.102739 0.041592 0.61843 
-0.0919657 0.0475357 0.602931 -0.0806602 0.0531558 0.586375 -0.068998 0.0584337 0.568832 
-0.0571361 0.0633426 0.550382 -0.0451995 0.0678419 0.531114 -0.0332718 0.0718759 0.511116 
-0.0213915 0.0753735 0.49047 -0.00955522 0.0782531 0.469247 0.00227347 0.0804288 0.447501 
0.0141501 0.08182 0.425261 0.026132 0.0823612 0.402531 0.0382595 0.0820126 0.379292 
0.0505391 0.0807681 0.3555 0.0629291 0.0786619 0.3311 0.0753307 0.0757705 0.306028 
0.0875867 0.0722109 0.280227 0.0994858 0.0681347 0.253657 0.110774 0.063718 0.226307 
0.121174 0.0591493 0.198203 0.130404 0.0546149 0.169414 0.1382 0.0502851 0.140059 
0.144341 0.0463013 0.110296 0.148667 0.0427659 0.0803231 0.151088 0.0397371 0.0503621 
0.151597 0.0372265 0.0206476 0.150266 0.0352033 -0.00858969 0.14724 0.0336011 -0.0371379 
0.142723 0.0323286 -0.064818 0.13696 0.0312831 -0.0914942 0.130215 0.030363 -0.117081 
0.122753 0.0294808 -0.141543 0.114817 0.028573 -0.164895 0.106615 0.027607 -0.187193 
0.0983083 0.0265835 -0.208523 0.0900057 0.0255354 -0.22899 0.0817664 0.024522 -0.248705 
0.0736049 0.0236213 -0.267773 0.065501 0.0229191 -0.286287 0.0574131 0.022498 -0.304318 
0.0492913 0.0224276 -0.321916 0.0410899 0.0227558 -0.339112 0.0327783 0.0235033 -0.355922 
0.024348 0.0246614 -0.372351 0.0158155 0.0261938 -0.388405 0.00722172 0.0280408 -0.404091 
-0.00137192 0.030127 -0.419428 -0.00989061 0.0323697 -0.434443 -0.0182544 0.034688 -0.449172 
-0.0263871 0.0370118 -0.463657 -0.0342237 0.0392879 -0.477936 -0.0417172 0.0414847 -0.492038 
-0.0488414 0.0435931 -0.505974 -0.0555925 0.0456248 -0.519731 -0.0619866 0.0476075 -0.533269 
-0.0680555 0.0495786 -0.546521 -0.0738412 0.0515767 -0.559394 -0.0793888 0.053634 -0.571781 
-0.0847398 0.0557684 -0.583566 -0.089926 0.0579784 -0.594643 -0.0949656 0.0602396 -0.604922 
-0.0998608 0.0625044 -0.614341 -0.104597 0.0647049 -0.62288 -0.109145 0.066758 -0.630556 
-0.113465 0.0685728 -0.637428 -0.11751 0.0700598 -0.64359 -0.121234 0.0711402 -0.64916 
-0.124593 0.0717546 -0.654267 -0.127557 0.0718701 -0.659034 -0.130104 0.0714863 -0.663566 
-0.132232 0.0706365 -0.667938 -0.133952 0.069388 -0.672181 -0.135293 0.0678377 -0.676284 
-0.136295 0.0661057 -0.680191 -0.137007 0.0643269 -0.683811 -0.137483 0.0626404 -0.687028 
-0.137776 0.0611788 -0.689716 -0.137933 0.0600579 -0.691755 -0.137992 0.0593678 -0.693045 
-0.137979 0.0591651 -0.693521 
LINES 2 100
OFFSETS vtktypeint64
0 100 
CONNECTIVITY vtktypeint64
0 1 2 3 4 5 6 7 8 
9 10 11 12 13 14 15 16 17 
18 19 20 21 22 23 24 25 26 
27 28 29 30 31 32 33 34 35 
36 37 38 39 40 41 42 43 44 
45 46 47 48 49 50 51 52 53 
54 55 56 57 58 59 60 61 62 
63 64 65 66 67 68 69 70 71 
72 73 74 75 76 77 78 79 80 
81 82 83 84 85 86 87 88 89 
90 91 92 93 94 95 96 97 98 
99 
POINT_DATA 100
FIELD FieldData 3
_theta 1 100 double
0 0.031733259127 0.063466518254 0.095199777382 0.12693303651 0.15866629564 0.19039955476 0.22213281389 0.25386607302 
0.28559933214 0.31733259127 0.3490658504 0.38079910953 0.41253236865 0.44426562778 0.47599888691 0.50773214603 0.53946540516 
0.57119866429 0.60293192342 0.63466518254 0.66639844167 0.6981317008 0.72986495992 0.76159821905 0.79333147818 0.82506473731 
0.85679799643 0.88853125556 0.92026451469 0.95199777382 0.98373103294 1.0154642921 1.0471975512 1.0789308103 1.1106640695 
1.1423973286 1.1741305877 1.2058638468 1.237597106 1.2693303651 1.3010636242 1.3327968833 1.3645301425 1.3962634016 
1.4279966607 1.4597299198 1.491463179 1.5231964381 1.5549296972 1.5866629564 1.6183962155 1.6501294746 1.6818627337 
1.7135959929 1.745329252 1.7770625111 1.8087957702 1.8405290294 1.8722622885 1.9039955476 1.9357288068 1.9674620659 
1.999195325 2.0309285841 2.0626618433 2.0943951024 2.1261283615 2.1578616206 2.1895948798 2.2213281389 2.253061398 
2.2847946572 2.3165279163 2.3482611754 2.3799944345 2.4117276937 2.4434609528 2.4751942119 2.506927471 2.5386607302 
2.5703939893 2.6021272484 2.6338605076 2.6655937667 2.6973270258 2.7290602849 2.7607935441 2.7925268032 2.8242600623 
2.8559933214 2.8877265806 2.9194598397 2.9511930988 2.982926358 3.0146596171 3.0463928762 3.0781261353 3.1098593945 
3.1415926536 
_radius 1 100 double
6.2202839632e-16 0.014460745675 0.028868292038 0.043163162142 0.05728349116 0.071163123612 0.084728737188 0.097896128323 0.11056637707 
0.12262319726 0.13393308988 0.14434972844 0.15372326648 0.16191414103 0.16880977979 0.17434173011 0.17850029151 0.18134375267 
0.18299975655 0.18365723828 0.18354914357 0.18292890275 0.18204621683 0.18112744304 0.18036196375 0.17989206903 0.17980412768 
0.18012206821 0.18080528045 0.18175112474 0.18280201255 0.18375935723 0.18440817308 0.18455343465 0.18406224797 0.18290014289 
0.1811498226 0.17900398799 0.17673005285 0.17461700897 0.17292595833 0.17186099461 0.17156151914 0.17210833623 0.17353556883 
0.17584242049 0.17900145207 0.18296265702 0.18765404831 0.19298003378 0.19881953992 0.20502647558 0.21143488351 0.21786977442 
0.22416253098 0.23016754274 0.23577547441 0.24091939426 0.2455727662 0.24974132565 0.25345227227 0.25674362683 0.25965509454 
0.26222064376 0.26446272585 0.26638833469 0.26798741058 0.26923406949 0.27009069477 0.27051422415 0.27046329649 0.26990457214 
0.26881666613 0.26719072354 0.26502755018 0.26233210971 0.25910682496 0.25534530883 0.25102791112 0.24611995619 0.24057294833 
0.23432847826 0.22732415289 0.21950063442 0.21080881535 0.20121623806 0.19071203694 0.17930990185 0.16704881384 0.15399154587 
0.14022109441 0.12583531537 0.11094017873 0.095642311401 0.080041784742 0.064226224473 0.048267143196 0.032218968508 0.016120735313 
7.1214810829e-16 
_area 1 100 double
0 0.00055906287137 0.0022275074184 0.0049742097663 0.0087347864824 0.01340294151 0.018829959327 0.024831720935 0.031197781132 
0.037697452432 0.044082169775 0.050088281843 0.055446806635 0.05990438205 0.063253281237 0.065362376061 0.06619965042 0.065840532129 
0.064461562602 0.062322124144 0.059737341449 0.057045196206 0.054573493606 0.052630872636 0.051548117626 0.051644421242 0.05301413315 
0.055107285376 0.05766388569 0.060552210913 0.063624251139 0.066673807707 0.069485913394 0.071831779636 0.073624320932 0.074919694597 
0.075848889473 0.07654756822 0.077147965729 0.077791957857 0.078623503881 0.07974371579 0.081199562494 0.083044773902 0.085356167 
0.088047686885 0.09091849077 0.093919819764 0.097151789155 0.10078002415 0.10497069814 0.10985618436 0.11556420929 0.12218181283 
0.12937229461 0.13670112339 0.14382866728 0.15048162465 0.156458601 0.16163901841 0.16597610299 0.16948378707 0.1722792017 
0.17439291958 0.17582055367 0.17662210275 0.17678509751 0.17628369706 0.17512035658 0.17331625481 0.17090998005 0.16795681088 
0.16452438444 0.16068363199 0.15649679276 0.15200666434 0.14723097105 0.14216290169 0.13677555149 0.13102663611 0.12486180039 
0.11821900331 0.1110387851 0.10328273951 0.094956402689 0.086127398302 0.076929530076 0.067549297623 0.05819940377 0.049089861597 
0.040408156136 0.032313635818 0.024941152213 0.018404447358 0.012794672116 0.0081762917248 0.0045849875916 0.0020306905077 0.00050630766536 
6.4292768589e-17 
