# vtk DataFile Version 5.1
vtk output
ASCII
DATASET POLYDATA
POINTS 100 float
-0.0332866 -0.0515829 0.742503 -0.0330445 -0.0513126 0.74212 -0.0322901 -0.0502948 0.74092 
-0.0311154 -0.0485607 0.73891 -0.0296615 -0.0461608 0.7361 -0.0281018 -0.0431613 0.73251 
-0.0266211 -0.0396405 0.728165 -0.0253932 -0.0356839 0.7231 -0.0245593 -0.0313796 0.717356 
-0.0242105 -0.0268139 0.71098 -0.0243744 -0.022067 0.70402 -0.0250097 -0.0172101 0.696524 
-0.0260079 -0.012303 0.688536 -0.0272015 -0.00739317 0.680088 -0.0283793 -0.00251569 0.671199 
-0.0293051 0.00230567 0.661873 -0.0297394 0.00705656 0.652094 -0.0294606 0.0117296 0.641832 
-0.0282838 0.0163216 0.63104 -0.0260754 0.020831 0.619666 -0.022762 0.0252551 0.60765 
-0.0183331 0.0295885 0.594935 -0.0128371 0.0338213 0.581473 -0.00637217 0.0379392 0.56723 
0.00092691 0.041923 0.552186 0.00890439 0.0457498 0.536338 0.0173995 0.0493938 0.519699 
0.0262606 0.0528277 0.502295 0.0353567 0.0560243 0.484156 0.0445837 0.0589575 0.465312 
0.0538667 0.0616033 0.445787 0.0631573 0.0639401 0.425595 0.0724262 0.0659491 0.404732 
0.081654 0.0676137 0.383184 0.0908197 0.0689194 0.360921 0.0998898 0.0698535 0.337908 
0.108809 0.0704044 0.314115 0.117495 0.0705625 0.289521 0.125836 0.0703202 0.264128 
0.133693 0.0696736 0.237968 0.140904 0.0686237 0.211113 0.147298 0.0671785 0.183673 
0.152706 0.065355 0.155798 0.15697 0.0631804 0.127673 0.15996 0.0606938 0.099505 
0.161583 0.0579461 0.0715147 0.161793 0.0549992 0.0439174 0.16059 0.0519237 0.0169098 
0.158025 0.0487963 -0.00934474 0.154192 0.0456951 -0.0347272 0.149222 0.042695 -0.0591703 
0.143275 0.0398627 -0.0826607 0.136522 0.0372519 -0.105236 0.12914 0.0348996 -0.126977 
0.121297 0.0328238 -0.147995 0.113141 0.0310222 -0.168422 0.104799 0.0294737 -0.188388 
0.0963649 0.0281415 -0.208015 0.0879068 0.0269775 -0.227398 0.0794633 0.0259284 -0.246601 
0.0710501 0.0249422 -0.265654 0.0626651 0.0239751 -0.284551 0.0542956 0.0229968 -0.303254 
0.0459247 0.0219948 -0.321707 0.0375376 0.0209774 -0.339842 0.0291267 0.0199726 -0.357592 
0.0206952 0.0190263 -0.3749 0.0122589 0.0181977 -0.391727 0.0038465 0.0175524 -0.408059 
-0.00450151 0.0171552 -0.423904 -0.0127352 0.0170624 -0.439293 -0.0207982 0.0173147 -0.45427 
-0.0286314 0.0179315 -0.468888 -0.0361761 0.0189074 -0.483196 -0.0433776 0.0202115 -0.49723 
-0.0501878 0.0217894 -0.51101 -0.0565674 0.0235673 -0.52453 -0.0624873 0.0254589 -0.537758 
-0.0679294 0.0273736 -0.550639 -0.0728869 0.0292246 -0.5631 -0.0773634 0.0309373 -0.575055 
-0.0813725 0.032456 -0.586416 -0.0849361 0.0337486 -0.597103 -0.0880828 0.0348083 -0.607047 
-0.0908466 0.035653 -0.616204 -0.0932644 0.0363213 -0.62455 -0.0953742 0.0368667 -0.632089 
-0.0972137 0.0373503 -0.638845 -0.098818 0.0378321 -0.644861 -0.100219 0.0383634 -0.650191 
-0.101443 0.0389802 -0.654892 -0.102512 0.0396987 -0.65902 -0.103442 0.0405127 -0.662624 
-0.104244 0.0413953 -0.665738 -0.104922 0.0423017 -0.668385 -0.105479 0.043175 -0.670576 
-0.105915 0.0439537 -0.672311 -0.106226 0.0445791 -0.673582 -0.10641 0.045003 -0.674382 
-0.106466 0.0451932 -0.674702 
LINES 2 100
OFFSETS vtktypeint64
0 100 
CONNECTIVITY vtktypeint64
0 1 2 3 4 5 6 7 8 
9 10 11 12 13 14 15 16 17 
18 19 20 21 22 23 24 25 26 
27 28 29 30 31 32 33 34 35 
36 37 38 39 40 41 42 43 44 
45 46 47 48 49 50 51 52 53 
54 55 56 57 58 59 60 61 62 
63 64 65 66 67 68 69 70 71 
72 73 74 75 76 77 78 79 80 
81 82 83 84 85 86 87 88 89 
90 91 92 93 94 95 96 97 98 
99 
POINT_DATA 100
FIELD FieldData 3
_theta 1 100 double
0 0.031733259127 0.063466518254 0.095199777382 0.12693303651 0.15866629564 0.19039955476 0.22213281389 0.25386607302 
0.28559933214 0.31733259127 0.3490658504 0.38079910953 0.41253236865 0.44426562778 0.47599888691 0.50773214603 0.53946540516 
0.57119866429 0.60293192342 0.63466518254 0.66639844167 0.6981317008 0.72986495992 0.76159821905 0.79333147818 0.82506473731 
0.85679799643 0.88853125556 0.92026451469 0.95199777382 0.98373103294 1.0154642921 1.0471975512 1.0789308103 1.1106640695 
1.1423973286 1.1741305877 1.2058638468 1.237597106 1.2693303651 1.3010636242 1.3327968833 1.3645301425 1.3962634016 
1.4279966607 1.4597299198 1.491463179 1.5231964381 1.5549296972 1.5866629564 1.6183962155 1.6501294746 1.6818627337 
1.7135959929 1.745329252 1.7770625111 1.8087957702 1.8405290294 1.8722622885 1.9039955476 1.9357288068 1.9674620659 
1.999195325 2.0309285841 2.0626618433 2.0943951024 2.1261283615 2.1578616206 2.1895948798 2.2213281389 2.253061398 
2.2847946572 2.3165279163 2.3482611754 2.3799944345 2.4117276937 2.4434609528 2.4751942119 2.506927471 2.5386607302 
2.5703939893 2.6021272484 2.6338605076 2.6655937667 2.6973270258 2.7290602849 2.7607935441 2.7925268032 2.8242600623 
2.8559933214 2.8877265806 2.9194598397 2.9511930988 2.982926358 3.0146596171 3.0463928762 3.0781261353 3.1098593945 
3.1415926536 
_radius 1 100 double
1.6655224547e-15 0.013572748647 0.027040196757 0.040301687197 0.053275346852 0.065903237159 0.078151879458 0.090007835273 0.10146903538 
0.11253360125 0.12318866427 0.13340181537 0.14311718667 0.15225702108 0.16072838008 0.16843372964 0.17528362528 0.18120951719 
0.18617472504 0.19018186166 0.1932754217 0.19553888891 0.19708651665 0.19805082968 0.19856775138 0.19876185116 0.19873427634 
0.19855535601 0.19826279146 0.19786514279 0.19734935113 0.19669049585 0.19586190244 0.19484404371 0.19363132926 0.19223668024 
0.19069443754 0.18906233845 0.18742286604 0.18588334692 0.18457317056 0.18363607255 0.18321616832 0.18343857807 0.18438863321 
0.18609627856 0.18853190071 0.1916152335 0.19523285403 0.1992566851 0.20355757771 0.20801216988 0.21250469967 0.21692687878 
0.22117852636 0.22517026956 0.22882807371 0.23209825851 0.23495127076 0.2373828054 0.23941166681 0.24107469016 0.24241975681 
0.24349822524 0.24435794642 0.24503760574 0.24556268034 0.2459430163 0.24617195138 0.24622692532 0.24607147669 0.24565836375 
0.2449333263 0.243838832 0.24231709207 0.24031174954 0.23776802287 0.23463174083 0.23084840506 0.22636375037 0.22112690112 
0.21509613003 0.20824579556 0.2005719309 0.19209386608 0.18285054402 0.17289253374 0.16227296152 0.15104107892 0.1392404205 
0.12691087356 0.11409243388 0.10082851323 0.087167627361 0.07316327318 0.058872448184 0.044353565837 0.029664556306 0.014861772884 
1.1776045101e-15 
_area 1 100 double
0 0.00051103698182 0.0020235280845 0.0044800716189 0.0077983013355 0.011886075479 0.016655183582 0.022029483977 0.027945295826 
0.034344299676 0.041161394688 0.048311026244 0.055675129105 0.063094902389 0.070368405696 0.07725659818 0.083500498877 0.088849872943 
0.093099326246 0.096123377655 0.097900777495 0.098521264316 0.098173882336 0.09712101435 0.095663157081 0.094098584677 0.092696278577 
0.091733962626 0.091261995195 0.091084551065 0.090975478009 0.090761370762 0.090334815008 0.089685506132 0.088795429282 0.087716581947 
0.086565466477 0.085489645659 0.084659712875 0.084255927011 0.084436030997 0.08526906048 0.086668516879 0.088494657974 0.090669771728 
0.093161203579 0.095930001423 0.098921743454 0.10209725888 0.10546276936 0.10906348855 0.11293141621 0.11702670779 0.12122834859 
0.12537270397 0.12930076033 0.13289194998 0.13608020998 0.13885292304 0.14123622599 0.1432738383 0.14500806376 0.14647025281 
0.1476857632 0.14869155386 0.14954855333 0.150320318 0.15102648165 0.15162393014 0.15201397638 0.15205358093 0.15157738149 
0.15043118981 0.14850797466 0.1457760241 0.14228795081 0.13815904461 0.13351354398 0.12842409354 0.12288758362 0.11685198117 
0.11026720415 0.10312963691 0.095504763653 0.087522180764 0.079346244367 0.071136133232 0.06301483169 0.055060897691 0.047322434489 
0.03984134668 0.032674981343 0.025907684333 0.019650954561 0.014035308171 0.0091984481759 0.0052731366801 0.0023762067643 0.00059906229338 
9.1141073534e-17 
