# vtk DataFile Version 5.1
vtk output
ASCII
DATASET POLYDATA
POINTS 100 float
-0.198201 -0.0138025 0.733355 -0.198063 -0.0140026 0.73338 -0.197637 -0.0144182 0.733436 
-0.196897 -0.0149788 0.733421 -0.195805 -0.0155753 0.733179 -0.194306 -0.0160711 0.732521 
-0.19234 -0.0163148 0.731243 -0.189837 -0.0161553 0.729155 -0.186725 -0.0154557 0.726101 
-0.182935 -0.0141049 0.721974 -0.178403 -0.0120275 0.716728 -0.173073 -0.00918882 0.710378 
-0.166903 -0.00559627 0.70299 -0.159866 -0.00129654 0.694675 -0.151953 0.0036302 0.685559 
-0.143174 0.00907868 0.675772 -0.133559 0.014928 0.665421 -0.123157 0.0210509 0.654579 
-0.112037 0.0273225 0.64327 -0.100283 0.0336262 0.63147 -0.0879891 0.0398576 0.619113 
-0.0752613 0.0459261 0.606098 -0.062206 0.0517539 0.592311 -0.0489278 0.0572732 0.577639 
-0.0355232 0.0624227 0.561996 -0.0220754 0.0671443 0.54533 -0.00865082 0.0713806 0.52764 
0.00470393 0.0750733 0.508973 0.0179623 0.0781643 0.489423 0.0311162 0.0805982 0.46912 
0.0441718 0.0823261 0.448206 0.0571432 0.0833112 0.426826 0.0700446 0.0835337 0.405098 
0.0828805 0.0829958 0.383107 0.0956363 0.0817247 0.360882 0.10827 0.0797741 0.338405 
0.120704 0.0772227 0.315605 0.132822 0.0741707 0.292376 0.14447 0.0707338 0.26859 
0.155456 0.0670364 0.244123 0.165562 0.0632028 0.218873 0.174554 0.0593495 0.192782 
0.182198 0.0555786 0.165851 0.188275 0.051972 0.138144 0.192602 0.0485889 0.109794 
0.195044 0.0454654 0.0809901 0.19553 0.0426163 0.0519625 0.194063 0.0400393 0.022963 
0.190718 0.0377201 -0.00575815 0.185646 0.035638 -0.0339742 0.179059 0.0337718 -0.0615005 
0.171224 0.0321041 -0.088207 0.162435 0.0306242 -0.114024 0.153 0.0293289 -0.138939 
0.143217 0.0282223 -0.162989 0.133351 0.0273128 -0.186245 0.123623 0.0266101 -0.208791 
0.114192 0.0261208 -0.230711 0.105155 0.0258453 -0.252072 0.0965424 0.025775 -0.272908 
0.0883268 0.0258907 -0.293221 0.0804347 0.0261632 -0.312977 0.0727615 0.0265551 -0.33212 
0.0651889 0.0270243 -0.350577 0.0576029 0.0275282 -0.368281 0.049909 0.0280283 -0.385183 
0.0420447 0.0284943 -0.401265 0.0339869 0.0289074 -0.416551 0.0257544 0.0292617 -0.431109 
0.0174054 0.029565 -0.445046 0.00902971 0.0298361 -0.458501 0.000738621 0.0301025 -0.471625 
-0.00734782 0.0303957 -0.484567 -0.0151134 0.0307465 -0.497453 -0.0224571 0.031181 -0.51037 
-0.029302 0.0317167 -0.523353 -0.0356 0.0323603 -0.53638 -0.0413333 0.0331068 -0.549376 
-0.0465119 0.0339412 -0.562215 -0.0511675 0.0348403 -0.574743 -0.0553454 0.0357764 -0.58679 
-0.0590964 0.0367218 -0.598194 -0.0624679 0.0376519 -0.608818 -0.0654972 0.0385491 -0.618567 
-0.0682076 0.0394047 -0.627396 -0.0706073 0.0402189 -0.635313 -0.0726911 0.0410003 -0.642376 
-0.0744452 0.0417634 -0.648681 -0.0758536 0.0425246 -0.654343 -0.0769051 0.0432992 -0.659486 
-0.0776002 0.0440967 -0.664216 -0.0779561 0.0449186 -0.668612 -0.0780095 0.0457561 -0.672716 
-0.0778162 0.0465899 -0.676522 -0.0774481 0.0473921 -0.679989 -0.0769872 0.0481282 -0.683039 
-0.0765177 0.0487615 -0.685577 -0.0761172 0.0492576 -0.687505 -0.0758482 0.0495882 -0.688737 
-0.0757513 0.0497351 -0.689214 
LINES 2 100
OFFSETS vtktypeint64
0 100 
CONNECTIVITY vtktypeint64
0 1 2 3 4 5 6 7 8 
9 10 11 12 13 14 15 16 17 
18 19 20 21 22 23 24 25 26 
27 28 29 30 31 32 33 34 35 
36 37 38 39 40 41 42 43 44 
45 46 47 48 49 50 51 52 53 
54 55 56 57 58 59 60 61 62 
63 64 65 66 67 68 69 70 71 
72 73 74 75 76 77 78 79 80 
81 82 83 84 85 86 87 88 89 
90 91 92 93 94 95 96 97 98 
99 
POINT_DATA 100
FIELD FieldData 3
_theta 1 100 double
0 0.031733259127 0.063466518254 0.095199777382 0.12693303651 0.15866629564 0.19039955476 0.22213281389 0.25386607302 
0.28559933214 0.31733259127 0.3490658504 0.38079910953 0.41253236865 0.44426562778 0.47599888691 0.50773214603 0.53946540516 
0.57119866429 0.60293192342 0.63466518254 0.66639844167 0.6981317008 0.72986495992 0.76159821905 0.79333147818 0.82506473731 
0.85679799643 0.88853125556 0.92026451469 0.95199777382 0.98373103294 1.0154642921 1.0471975512 1.0789308103 1.1106640695 
1.1423973286 1.1741305877 1.2058638468 1.237597106 1.2693303651 1.3010636242 1.3327968833 1.3645301425 1.3962634016 
1.4279966607 1.4597299198 1.491463179 1.5231964381 1.5549296972 1.5866629564 1.6183962155 1.6501294746 1.6818627337 
1.7135959929 1.745329252 1.7770625111 1.8087957702 1.8405290294 1.8722622885 1.9039955476 1.9357288068 1.9674620659 
1.999195325 2.0309285841 2.0626618433 2.0943951024 2.1261283615 2.1578616206 2.1895948798 2.2213281389 2.253061398 
2.2847946572 2.3165279163 2.3482611754 2.3799944345 2.4117276937 2.4434609528 2.4751942119 2.506927471 2.5386607302 
2.5703939893 2.6021272484 2.6338605076 2.6655937667 2.6973270258 2.7290602849 2.7607935441 2.7925268032 2.8242600623 
2.8559933214 2.8877265806 2.9194598397 2.9511930988 2.982926358 3.0146596171 3.0463928762 3.0781261353 3.1098593945 
3.1415926536 
_radius 1 100 double
4.8498165298e-16 0.018320658506 0.036377215141 0.053919787181 0.070730683087 0.086635185786 0.10150684229 0.11526701186 0.12787937871 
0.13934087503 0.14967084402 0.15890026728 0.16706256974 0.17418705572 0.18029557555 0.18540265538 0.18951902844 0.19265820295 
0.19484528921 0.19612674992 0.19657915592 0.19631471787 0.19548161329 0.19425799406 0.19283980582 0.19142381374 0.19018820181 
0.18927362308 0.18876758182 0.18869459335 0.18901383017 0.18962504817 0.19038254146 0.19111574474 0.19165406041 0.1918527944 
0.19161685214 0.19091889066 0.18980870302 0.18841092043 0.18690946353 0.18552041089 0.18445970871 0.18391556745 0.18403354624 
0.18491509822 0.18662321616 0.1891870406 0.19260082628 0.19681805723 0.20174550957 0.20724293909 0.21313185191 0.21921307149 
0.22528949949 0.23118877301 0.23678064509 0.24198546996 0.24677253271 0.25114943255 0.25514567822 0.25879464231 0.262117901 
0.26511492272 0.26775947294 0.27000246442 0.27177971273 0.27302237591 0.27366779078 0.27366883861 0.27300065277 0.27166413398 
0.2696861222 0.26711612788 0.26401945845 0.2604667482 0.256520558 0.2522207701 0.24757155779 0.24253323436 0.23702186112 
0.23091799141 0.22408366544 0.21638450868 0.20771237379 0.19800384591 0.18725099772 0.17550264708 0.16285659389 0.14944533926 
0.1354189406 0.12092853371 0.10611297346 0.091089752043 0.075950329819 0.060759332419 0.045556692137 0.030361720423 0.015178222446 
1.7332340296e-15 
_area 1 100 double
0 0.00066406127445 0.0026338398684 0.0058428117619 0.010181869068 0.015501264677 0.021614059664 0.028302993302 0.03533177516 
0.042460052004 0.049459676744 0.056128681626 0.062299083925 0.067836352292 0.072632174748 0.076596125726 0.079652972364 0.081749569405 
0.08287063939 0.083061770415 0.082474817693 0.081362133632 0.079987336883 0.078376467393 0.07669171049 0.075084291759 0.073693484565 
0.072636324071 0.071998110766 0.071825221889 0.072126875323 0.072871040713 0.073973294004 0.075339772528 0.076883719981 0.078461096481 
0.079999086088 0.081515922427 0.082991924439 0.084341433685 0.08553208731 0.086619346686 0.087707689346 0.088900068535 0.090272720134 
0.091895425684 0.093877160881 0.096394153754 0.09964432045 0.10372610703 0.10864302345 0.11434095879 0.12066913787 0.1273688005 
0.13412112586 0.14062482214 0.14666884455 0.15217453896 0.15717761437 0.1617371987 0.16586013745 0.16954485905 0.17287049681 
0.17591288451 0.17852514819 0.18046540443 0.18155296181 0.18167454047 0.18076324196 0.17878963415 0.17576792862 0.171778627 
0.16700229629 0.16171673996 0.1562067058 0.15066163681 0.14516421583 0.13972715624 0.13429808822 0.12874627147 0.12287733356 
0.11648389227 0.10940998217 0.10160277072 0.0931351974 0.084194371267 0.075039110929 0.065937963919 0.057108330501 0.04868308293 
0.040720079021 0.033242566528 0.026281656215 0.019900707828 0.014198504585 0.0092975227837 0.0053256063236 0.0023980413876 0.00060423227077 
4.7828951536e-17 
