# vtk DataFile Version 5.1
vtk output
ASCII
DATASET POLYDATA
POINTS 100 float
-0.0741881 0.00296375 0.716991 -0.074101 0.00266632 0.717064 -0.0738925 0.0019441 0.717328 
-0.0735532 0.000866028 0.717664 -0.0730669 -0.000458474 0.717892 -0.0724098 -0.00188737 0.717782 
-0.0715496 -0.00325627 0.717087 -0.0704455 -0.00439038 0.715559 -0.0690482 -0.00511731 0.712981 
-0.0673015 -0.00527981 0.709179 -0.0651437 -0.00474743 0.704041 -0.0625117 -0.0034264 0.69752 
-0.0593443 -0.00126685 0.689632 -0.0555872 0.00173319 0.680447 -0.0511975 0.00552717 0.670074 
-0.0461489 0.0100231 0.658642 -0.0404343 0.0150896 0.646283 -0.0340695 0.0205655 0.633112 
-0.0270929 0.0262706 0.619215 -0.0195653 0.0320184 0.604642 -0.0115665 0.0376284 0.589404 
-0.00319084 0.0429383 0.573478 0.00545866 0.0478136 0.556818 0.0142771 0.0521554 0.539368 
0.0231644 0.0559044 0.521075 0.0320321 0.0590419 0.501906 0.0408079 0.0615871 0.481854 
0.0494393 0.063592 0.46095 0.057895 0.0651327 0.439262 0.0661636 0.0663004 0.416887 
0.0742501 0.0671906 0.393947 0.082171 0.0678931 0.370575 0.0899471 0.0684836 0.3469 
0.0975962 0.0690165 0.323033 0.105126 0.0695209 0.299059 0.112527 0.069999 0.275025 
0.119766 0.0704281 0.250945 0.126789 0.0707642 0.226797 0.133511 0.0709482 0.202534 
0.139827 0.0709134 0.178097 0.145614 0.0705932 0.153424 0.150736 0.0699285 0.12847 
0.155054 0.0688745 0.103215 0.158436 0.067405 0.0776729 0.160766 0.0655153 0.0518976 
0.16195 0.0632227 0.0259797 0.16193 0.0605651 4.14313e-05 0.160679 0.0575973 -0.0257728 
0.158211 0.0543866 -0.0513096 0.15458 0.0510075 -0.0764192 0.14987 0.0475363 -0.100969 
0.144198 0.0440463 -0.124852 0.137703 0.0406039 -0.147996 0.130538 0.0372655 -0.170363 
0.122859 0.034077 -0.191951 0.114819 0.0310731 -0.212783 0.106562 0.0282791 -0.232905 
0.0982114 0.0257125 -0.252373 0.0898704 0.0233852 -0.271242 0.0816182 0.0213063 -0.289563 
0.0735101 0.0194837 -0.307377 0.0655793 0.0179254 -0.324709 0.0578411 0.0166399 -0.341575 
0.0502971 0.0156359 -0.35798 0.0429406 0.0149209 -0.37393 0.0357625 0.0144999 -0.389433 
0.0287555 0.0143731 -0.404507 0.0219191 0.0145346 -0.419184 0.0152614 0.0149705 -0.433506 
0.00880166 0.0156586 -0.447531 0.00256921 0.0165683 -0.461318 -0.00339736 0.0176613 -0.474927 
-0.00905313 0.0188939 -0.488406 -0.0143503 0.0202187 -0.501783 -0.0192422 0.0215877 -0.51506 
-0.0236876 0.022955 -0.528205 -0.0276542 0.0242797 -0.541155 -0.0311224 0.0255274 -0.553817 
-0.0340869 0.0266727 -0.566075 -0.0365583 0.0276992 -0.577799 -0.0385627 0.0285998 -0.58886 
-0.0401409 0.029376 -0.59914 -0.0413453 0.0300366 -0.608546 -0.0422372 0.0305955 -0.617017 
-0.0428828 0.0310702 -0.624529 -0.043349 0.0314795 -0.6311 -0.0436991 0.0318417 -0.636784 
-0.0439896 0.032173 -0.641662 -0.0442666 0.0324867 -0.645837 -0.0445638 0.0327921 -0.649417 
-0.0449015 0.0330946 -0.652508 -0.0452863 0.0333958 -0.655201 -0.0457123 0.033694 -0.657565 
-0.046163 0.0339846 -0.659645 -0.0466138 0.0342613 -0.66146 -0.0470359 0.0345166 -0.663007 
-0.0473991 0.0347429 -0.664266 -0.0476757 0.0349329 -0.665211 -0.0478432 0.0350806 -0.665816 
-0.0478868 0.0351814 -0.666062 
LINES 2 100
OFFSETS vtktypeint64
0 100 
CONNECTIVITY vtktypeint64
0 1 2 3 4 5 6 7 8 
9 10 11 12 13 14 15 16 17 
18 19 20 21 22 23 24 25 26 
27 28 29 30 31 32 33 34 35 
36 37 38 39 40 41 42 43 44 
45 46 47 48 49 50 51 52 53 
54 55 56 57 58 59 60 61 62 
63 64 65 66 67 68 69 70 71 
72 73 74 75 76 77 78 79 80 
81 82 83 84 85 86 87 88 89 
90 91 92 93 94 95 96 97 98 
99 
POINT_DATA 100
FIELD FieldData 3
_theta 1 100 double
0 0.031733259127 0.063466518254 0.095199777382 0.12693303651 0.15866629564 0.19039955476 0.22213281389 0.25386607302 
0.28559933214 0.31733259127 0.3490658504 0.38079910953 0.41253236865 0.44426562778 0.47599888691 0.50773214603 0.53946540516 
0.57119866429 0.60293192342 0.63466518254 0.66639844167 0.6981317008 0.72986495992 0.76159821905 0.79333147818 0.82506473731 
0.85679799643 0.88853125556 0.92026451469 0.95199777382 0.98373103294 1.0154642921 1.0471975512 1.0789308103 1.1106640695 
1.1423973286 1.1741305877 1.2058638468 1.237597106 1.2693303651 1.3010636242 1.3327968833 1.3645301425 1.3962634016 
1.4279966607 1.4597299198 1.491463179 1.5231964381 1.5549296972 1.5866629564 1.6183962155 1.6501294746 1.6818627337 
1.7135959929 1.745329252 1.7770625111 1.8087957702 1.8405290294 1.8722622885 1.9039955476 1.9357288068 1.9674620659 
1.999195325 2.0309285841 2.0626618433 2.0943951024 2.1261283615 2.1578616206 2.1895948798 2.2213281389 2.253061398 
2.2847946572 2.3165279163 2.3482611754 2.3799944345 2.4117276937 2.4434609528 2.4751942119 2.506927471 2.5386607302 
2.5703939893 2.6021272484 2.6338605076 2.6655937667 2.6973270258 2.7290602849 2.7607935441 2.7925268032 2.8242600623 
2.8559933214 2.8877265806 2.9194598397 2.9511930988 2.982926358 3.0146596171 3.0463928762 3.0781261353 3.1098593945 
3.1415926536 
_radius 1 100 double
1.01301353e-15 0.015784771441 0.031433712912 0.046816132719 0.061807275583 0.076290632716 0.090159761323 0.10331940571 0.1156857272 
0.12718562439 0.13775544639 0.14733973885 0.15589082282 0.1633698526 0.16974955271 0.17501828754 0.17918471406 0.18228214959 
0.1843719263 0.185545243 0.18592317142 0.18565443114 0.18491041266 0.18387697822 0.18274304689 0.18168681063 0.18086123315 
0.1803808509 0.1803117664 0.18066637007 0.18140395575 0.18243786357 0.18364884314 0.18490309959 0.18607245292 0.18705360831 
0.18778376455 0.18825049017 0.18849465384 0.18860601419 0.1887120262 0.18896176825 0.18950825489 0.19049265076 0.19203238086 
0.19421283133 0.19708111362 0.20064096923 0.20484941362 0.20961676639 0.2148115727 0.22027078841 0.22581420818 0.23126113499 
0.236446949 0.24123736427 0.24553853838 0.24930175852 0.25252219452 0.2552321096 0.25748976811 0.25936590336 0.26092991618 
0.26223791586 0.26332426067 0.2641974619 0.26484040941 0.26521418304 0.26526445478 0.26492958758 0.26414966691 0.2628755259 
0.26107633924 0.25874397868 0.25589255614 0.2525525726 0.24876049504 0.24454586621 0.23991880688 0.23486082335 0.2293211908 
0.22322000203 0.21645753403 0.20892825023 0.20053684906 0.19121348135 0.18092561513 0.16968488315 0.15754830948 0.14461420435 
0.13101352545 0.11689774405 0.10242452138 0.08774288397 0.072979871235 0.058230542792 0.04355270249 0.028966867589 0.014461142993 
1.1774651292e-15 
_area 1 100 double
0 0.00053662937996 0.0021615722522 0.0049067319384 0.0087883316069 0.013771658727 0.019748237283 0.026532351504 0.033875438317 
0.041491281958 0.049082784146 0.056362819063 0.063066945018 0.0689616058 0.073853500813 0.077602688052 0.080137147104 0.081463940267 
0.081672551719 0.080927959782 0.079453199574 0.077503634819 0.075338196952 0.073194613709 0.071273128105 0.069728498705 0.068669007115 
0.068162193764 0.068244412409 0.068927601134 0.070197357184 0.07200200765 0.07424154897 0.076770202458 0.079415843532 0.082007343443 
0.084401930547 0.08650809072 0.088300489284 0.089825490232 0.091198588242 0.092598689924 0.09427021692 0.096508351146 0.099442792405 
0.10298657542 0.10708041668 0.11171361252 0.11689565857 0.12263265308 0.12890468405 0.13564422239 0.14271988409 0.1499346709 
0.15704392204 0.16378802301 0.16992925905 0.17528340186 0.17973995939 0.18326824345 0.18590978958 0.18776064541 0.18894876512 
0.18961222378 0.18988321941 0.18987955069 0.18969744338 0.18939121721 0.18893672272 0.18821187183 0.18702547523 0.18517552933 
0.18250251703 0.1789237187 0.17444623577 0.16915658572 0.1631904441 0.15669148079 0.14977225359 0.14249028308 0.13484716383 
0.12680924662 0.11833995794 0.10943088145 0.10012147264 0.09050281598 0.080706805069 0.070887239289 0.061201851503 0.051802152727 
0.042831778484 0.034428408809 0.02672366585 0.019838917865 0.013878676107 0.0089247990823 0.0050341272599 0.002240520017 0.00056045561572 
4.7572363192e-17 
