# vtk DataFile Version 5.1
vtk output
ASCII
DATASET POLYDATA
POINTS 100 float
-0.183282 0.00611887 0.702704 -0.182759 0.00572631 0.70249 -0.181321 0.00471462 0.701932 
-0.178939 0.00318514 0.700959 -0.175572 0.00129655 0.699463 -0.171173 -0.000749704 0.69731 
-0.165703 -0.00272776 0.694364 -0.159137 -0.00440753 0.690499 -0.15148 -0.00557488 0.685619 
-0.142767 -0.00604967 0.679671 -0.13307 -0.00570011 0.672645 -0.122494 -0.00445211 0.66458 
-0.111172 -0.00229299 0.655553 -0.0992533 0.000730551 0.645663 -0.0868963 0.00451956 0.635023 
-0.0742526 0.00893416 0.623731 -0.0614583 0.0138075 0.611864 -0.0486251 0.0189611 0.599456 
-0.0358363 0.0242188 0.586497 -0.0231459 0.02942 0.572932 -0.0105826 0.0344292 0.558663 
0.00184385 0.0391411 0.543566 0.0141331 0.0434834 0.527506 0.0262852 0.0474146 0.510357 
0.0382918 0.0509195 0.492019 0.05013 0.054002 0.472434 0.0617593 0.0566782 0.451596 
0.0731222 0.0589684 0.429557 0.0841483 0.060891 0.406421 0.0947612 0.0624577 0.382337 
0.104887 0.0636712 0.357484 0.11446 0.0645256 0.332051 0.123434 0.0650078 0.306223 
0.131781 0.0651011 0.280162 0.139494 0.0647898 0.253995 0.146581 0.0640634 0.227809 
0.153058 0.0629204 0.201648 0.158937 0.0613715 0.175524 0.164221 0.0594409 0.149422 
0.168884 0.0571659 0.12332 0.172873 0.0545961 0.0972006 0.176098 0.0517901 0.0710684 
0.178441 0.0488128 0.0449592 0.179759 0.0457316 0.0189458 0.1799 0.0426129 -0.00686228 
0.178721 0.0395199 -0.0323257 0.176107 0.0365099 -0.0572874 0.171987 0.0336334 -0.081588 
0.166354 0.030934 -0.105083 0.159274 0.0284478 -0.127658 0.150885 0.0262045 -0.149243 
0.141399 0.0242275 -0.16982 0.131084 0.0225344 -0.189424 0.120244 0.0211366 -0.208136 
0.109198 0.0200394 -0.226076 0.09825 0.019241 -0.243385 0.0876656 0.0187316 -0.260209 
0.0776473 0.0184933 -0.276681 0.0683212 0.0184996 -0.292904 0.0597288 0.0187159 -0.308942 
0.0518291 0.0191008 -0.324816 0.0445102 0.0196084 -0.340504 0.0376069 0.0201909 -0.355946 
0.0309254 0.0208019 -0.371061 0.0242689 0.0213999 -0.385761 0.0174633 0.0219512 -0.399963 
0.0103786 0.0224326 -0.41361 0.00294412 0.0228326 -0.426676 -0.00484399 0.0231519 -0.439176 
-0.0129244 0.0234021 -0.451163 -0.02118 0.0236036 -0.462723 -0.029454 0.0237825 -0.473962 
-0.0375705 0.0239667 -0.484995 -0.0453561 0.0241825 -0.495923 -0.0526611 0.0244508 -0.506825 
-0.0593754 0.0247853 -0.517741 -0.0654399 0.0251904 -0.528665 -0.0708491 0.0256615 -0.539546 
-0.0756483 0.0261861 -0.550288 -0.0799227 0.0267462 -0.560766 -0.083783 0.0273212 -0.570832 
-0.0873479 0.027891 -0.580337 -0.0907269 0.0284391 -0.589148 -0.0940057 0.028955 -0.597156 
-0.0972358 0.0294356 -0.604294 -0.10043 0.029885 -0.610538 -0.103562 0.0303137 -0.615909 
-0.106579 0.0307365 -0.620466 -0.109405 0.0311693 -0.624298 -0.111963 0.0316263 -0.627513 
-0.11418 0.0321167 -0.63022 -0.116008 0.0326425 -0.632523 -0.117428 0.0331974 -0.634503 
-0.11845 0.0337661 -0.636222 -0.119119 0.0343263 -0.63771 -0.119502 0.0348504 -0.638977 
-0.11968 0.035309 -0.640013 -0.119734 0.0356744 -0.640797 -0.119732 0.035924 -0.641305 
-0.119721 0.0360434 -0.641519 
LINES 2 100
OFFSETS vtktypeint64
0 100 
CONNECTIVITY vtktypeint64
0 1 2 3 4 5 6 7 8 
9 10 11 12 13 14 15 16 17 
18 19 20 21 22 23 24 25 26 
27 28 29 30 31 32 33 34 35 
36 37 38 39 40 41 42 43 44 
45 46 47 48 49 50 51 52 53 
54 55 56 57 58 59 60 61 62 
63 64 65 66 67 68 69 70 71 
72 73 74 75 76 77 78 79 80 
81 82 83 84 85 86 87 88 89 
90 91 92 93 94 95 96 97 98 
99 
POINT_DATA 100
FIELD FieldData 3
_theta 1 100 double
0 0.031733259127 0.063466518254 0.095199777382 0.12693303651 0.15866629564 0.19039955476 0.22213281389 0.25386607302 
0.28559933214 0.31733259127 0.3490658504 0.38079910953 0.41253236865 0.44426562778 0.47599888691 0.50773214603 0.53946540516 
0.57119866429 0.60293192342 0.63466518254 0.66639844167 0.6981317008 0.72986495992 0.76159821905 0.79333147818 0.82506473731 
0.85679799643 0.88853125556 0.92026451469 0.95199777382 0.98373103294 1.0154642921 1.0471975512 1.0789308103 1.1106640695 
1.1423973286 1.1741305877 1.2058638468 1.237597106 1.2693303651 1.3010636242 1.3327968833 1.3645301425 1.3962634016 
1.4279966607 1.4597299198 1.491463179 1.5231964381 1.5549296972 1.5866629564 1.6183962155 1.6501294746 1.6818627337 
1.7135959929 1.745329252 1.7770625111 1.8087957702 1.8405290294 1.8722622885 1.9039955476 1.9357288068 1.9674620659 
1.999195325 2.0309285841 2.0626618433 2.0943951024 2.1261283615 2.1578616206 2.1895948798 2.2213281389 2.253061398 
2.2847946572 2.3165279163 2.3482611754 2.3799944345 2.4117276937 2.4434609528 2.4751942119 2.506927471 2.5386607302 
2.5703939893 2.6021272484 2.6338605076 2.6655937667 2.6973270258 2.7290602849 2.7607935441 2.7925268032 2.8242600623 
2.8559933214 2.8877265806 2.9194598397 2.9511930988 2.982926358 3.0146596171 3.0463928762 3.0781261353 3.1098593945 
3.1415926536 
_radius 1 100 double
7.5758176634e-16 0.017534914019 0.03472583699 0.05125170432 0.066832306809 0.081242716852 0.094322053177 0.1059762858 0.11617544898 
0.1249460549 0.13235975227 0.13851946917 0.14354450865 0.14755632968 0.15066692728 0.15297160524 0.15454730563 0.1554565002 
0.15575525604 0.15550298015 0.15477097356 0.15364740413 0.15223741209 0.15065844336 0.14903222348 0.14747564575 0.14609283293 
0.14496964527 0.1441704476 0.14373584227 0.14367993635 0.14398677024 0.1446077745 0.14546455245 0.14646104573 0.14750467044 
0.14853079003 0.14952268397 0.1505195438 0.15160710828 0.15289078387 0.15446053405 0.15636553374 0.15861343359 0.16119207656 
0.16409688906 0.16734736504 0.17098528228 0.17505643182 0.17958412873 0.18454594771 0.18986339681 0.19540798379 0.20102018906 
0.20653415364 0.21180107001 0.21670648491 0.22117917243 0.22519121009 0.2287504334 0.23188769461 0.23464219865 0.23704830406 
0.23912637112 0.24087879224 0.24229088872 0.24333541135 0.24397902723 0.24418921919 0.24394027358 0.24321738647 0.24201833214 
0.24035256279 0.23823799459 0.23569604768 0.23274572702 0.22939764045 0.22564883686 0.22147922491 0.21685015414 0.21170556846 
0.20597597633 0.19958523415 0.19245970282 0.18453873334 0.17578486294 0.16619183239 0.15578873649 0.14463927349 0.132835993 
0.12049043847 0.10772094065 0.094640361311 0.081346130153 0.067914347474 0.054398624837 0.040833041249 0.027237562577 0.013623879333 
1.0754445979e-15 
_area 1 100 double
0 0.00050991436663 0.0020341521512 0.0045493927231 0.0079972928463 0.012264977972 0.017173182637 0.022480412237 0.027905900154 
0.033166246844 0.03801475245 0.042271672866 0.045837631101 0.048688506159 0.050855693416 0.052399626237 0.05338639698 0.053876266013 
0.053928178349 0.053616613187 0.053047443491 0.052352578346 0.0516544079 0.051028944713 0.050508794723 0.05012013286 0.04991608341 
0.049954496166 0.050229985123 0.050714033662 0.051416037448 0.052378152982 0.053640357702 0.055191284051 0.056945892355 0.058781940456 
0.060600890586 0.062383197311 0.0642142573 0.066255019532 0.068663153072 0.07150949731 0.074731060982 0.078147664648 0.081547327225 
0.084790932826 0.087836850124 0.090740958208 0.093720574142 0.097110023224 0.10118110497 0.10601241957 0.11151002747 0.11747836674 
0.12366620544 0.12979714626 0.13560467341 0.14087514433 0.14548184536 0.14938915256 0.15262550767 0.15524319799 0.15728632101 
0.15877910571 0.15973308036 0.16016377251 0.16008001967 0.15946547728 0.15831614068 0.1566354218 0.15444505398 0.15178315403 
0.14869580541 0.14523091467 0.14143109542 0.13732388333 0.13291200499 0.1281699778 0.12305150122 0.11750556946 0.11149363254 
0.10500020053 0.098035105724 0.090632428048 0.082852018092 0.074783323038 0.066545812591 0.058282218774 0.050146293253 0.042289454049 
0.034849687286 0.027944337042 0.021667639053 0.016093048468 0.011278627679 0.0072722362957 0.004113939572 0.0018356450594 0.00045996713873 
6.661350502e-17 
