# vtk DataFile Version 5.1
vtk output
ASCII
DATASET POLYDATA
POINTS 100 float
-0.142524 -0.0750707 0.770226 -0.142275 -0.074881 0.77013 -0.141545 -0.0740782 0.769798 
-0.140388 -0.0726483 0.769173 -0.138885 -0.0705731 0.76817 -0.13713 -0.0678342 0.766683 
-0.135216 -0.0644174 0.764597 -0.133218 -0.0603169 0.761799 -0.131178 -0.05554 0.758194 
-0.129095 -0.0501098 0.753706 -0.126922 -0.044067 0.748294 -0.124567 -0.0374705 0.741946 
-0.121901 -0.0303956 0.734681 -0.118771 -0.0229307 0.726544 -0.115019 -0.0151737 0.717598 
-0.110497 -0.00722595 0.707909 -0.105091 0.000812249 0.697541 -0.0987293 0.00884707 0.686544 
-0.0913952 0.016795 0.674944 -0.0831303 0.0245854 0.66274 -0.0740295 0.0321618 0.649901 
-0.0642314 0.0394808 0.636368 -0.0539033 0.04651 0.62206 -0.0432224 0.0532243 0.606882 
-0.0323569 0.0596014 0.590735 -0.0214487 0.0656174 0.573525 -0.0106 0.0712424 0.555173 
0.000134713 0.0764372 0.535628 0.0107488 0.0811518 0.514864 0.0212782 0.0853257 0.492892 
0.0317887 0.0888894 0.469752 0.0423595 0.0917688 0.445516 0.053064 0.0938906 0.420279 
0.0639507 0.0951883 0.394154 0.075026 0.0956098 0.367264 0.0862429 0.095123 0.339737 
0.0974946 0.0937221 0.311696 0.108616 0.0914308 0.283256 0.119393 0.0883044 0.254523 
0.129575 0.084429 0.225589 0.138894 0.0799185 0.196538 0.14709 0.0749094 0.167443 
0.153928 0.0695536 0.13837 0.159219 0.0640103 0.109383 0.162833 0.0584371 0.0805415 
0.164714 0.0529814 0.0519079 0.164875 0.0477734 0.0235442 0.163398 0.0429191 -0.00448692 
0.160425 0.0384974 -0.0321229 0.15614 0.0345573 -0.0593032 0.150756 0.0311196 -0.0859708 
0.144492 0.0281786 -0.112074 0.137562 0.0257071 -0.137569 0.130157 0.0236621 -0.162418 
0.122436 0.0219911 -0.186592 0.11452 0.0206382 -0.210069 0.106494 0.0195503 -0.232835 
0.0984049 0.0186813 -0.25488 0.0902744 0.0179962 -0.276202 0.0821027 0.0174719 -0.296801 
0.0738797 0.0170982 -0.316685 0.0655933 0.0168757 -0.335867 0.0572367 0.0168141 -0.354367 
0.0488134 0.0169285 -0.372212 0.0403393 0.0172361 -0.389442 0.0318432 0.0177527 -0.406103 
0.0233652 0.0184897 -0.422255 0.014953 0.0194524 -0.437961 0.00665888 0.020638 -0.453295 
-0.00146457 0.0220361 -0.468328 -0.00936702 0.023629 -0.483131 -0.0170026 0.0253931 -0.497766 
-0.0243308 0.0273011 -0.512278 -0.0313168 0.0293239 -0.526697 -0.0379301 0.0314326 -0.541027 
-0.0441444 0.0336005 -0.555249 -0.0499364 0.0358041 -0.569318 -0.0552856 0.038024 -0.583166 
-0.0601748 0.0402447 -0.596708 -0.064591 0.0424542 -0.609842 -0.0685277 0.0446431 -0.622462 
-0.0719862 0.0468033 -0.634462 -0.0749777 0.0489273 -0.645747 -0.0775247 0.0510067 -0.656233 
-0.0796607 0.0530317 -0.665858 -0.0814299 0.0549908 -0.674584 -0.0828843 0.0568709 -0.682396 
-0.0840808 0.0586581 -0.689304 -0.0850769 0.060338 -0.695339 -0.0859262 0.0618972 -0.700549 
-0.0866745 0.0633238 -0.704995 -0.0873561 0.0646086 -0.708746 -0.0879923 0.0657456 -0.711872 
-0.0885903 0.0667319 -0.714442 -0.0891451 0.0675678 -0.71652 -0.0896415 0.0682558 -0.718161 
-0.0900584 0.0688004 -0.719411 -0.0903732 0.0692064 -0.720305 -0.0905655 0.0694784 -0.720868 
-0.0906216 0.0696194 -0.721114 
LINES 2 100
OFFSETS vtktypeint64
0 100 
CONNECTIVITY vtktypeint64
0 1 2 3 4 5 6 7 8 
9 10 11 12 13 14 15 16 17 
18 19 20 21 22 23 24 25 26 
27 28 29 30 31 32 33 34 35 
36 37 38 39 40 41 42 43 44 
45 46 47 48 49 50 51 52 53 
54 55 56 57 58 59 60 61 62 
63 64 65 66 67 68 69 70 71 
72 73 74 75 76 77 78 79 80 
81 82 83 84 85 86 87 88 89 
90 91 92 93 94 95 96 97 98 
99 
POINT_DATA 100
FIELD FieldData 3
_theta 1 100 double
0 0.031733259127 0.063466518254 0.095199777382 0.12693303651 0.15866629564 0.19039955476 0.22213281389 0.25386607302 
0.28559933214 0.31733259127 0.3490658504 0.38079910953 0.41253236865 0.44426562778 0.47599888691 0.50773214603 0.53946540516 
0.57119866429 0.60293192342 0.63466518254 0.66639844167 0.6981317008 0.72986495992 0.76159821905 0.79333147818 0.82506473731 
0.85679799643 0.88853125556 0.92026451469 0.95199777382 0.98373103294 1.0154642921 1.0471975512 1.0789308103 1.1106640695 
1.1423973286 1.1741305877 1.2058638468 1.237597106 1.2693303651 1.3010636242 1.3327968833 1.3645301425 1.3962634016 
1.4279966607 1.4597299198 1.491463179 1.5231964381 1.5549296972 1.5866629564 1.6183962155 1.6501294746 1.6818627337 
1.7135959929 1.745329252 1.7770625111 1.8087957702 1.8405290294 1.8722622885 1.9039955476 1.9357288068 1.9674620659 
1.999195325 2.0309285841 2.0626618433 2.0943951024 2.1261283615 2.1578616206 2.1895948798 2.2213281389 2.253061398 
2.2847946572 2.3165279163 2.3482611754 2.3799944345 2.4117276937 2.4434609528 2.4751942119 2.506927471 2.5386607302 
2.5703939893 2.6021272484 2.6338605076 2.6655937667 2.6973270258 2.7290602849 2.7607935441 2.7925268032 2.8242600623 
2.8559933214 2.8877265806 2.9194598397 2.9511930988 2.982926358 3.0146596171 3.0463928762 3.0781261353 3.1098593945 
3.1415926536 
_radius 1 100 double
9.3095030747e-17 0.016086019956 0.031988397519 0.047534859909 0.062575358147 0.076988859033 0.090686110276 0.10360835347 0.1157226626 
0.12701507942 0.13748291578 0.14712750794 0.15594843396 0.1639398623 0.17108937517 0.1773793262 0.18279052484 0.18730777178 
0.19092649562 0.19365946985 0.19554236039 0.19663678517 0.19702982241 0.19682957597 0.19615737694 0.19513813398 0.19389081134 
0.19252073372 0.19111447213 0.18973693892 0.18842967744 0.18720962023 0.18606868929 0.18497577859 0.18388296759 0.18273691834 
0.18149483397 0.18014282778 0.17871329911 0.17729692532 0.17604439053 0.17515358464 0.17484076751 0.17530009886 0.17666377086 
0.17897899826 0.18221129541 0.18626826443 0.19102812269 0.19635990608 0.20213132272 0.20820753416 0.21444726587 0.22070205266 
0.22682131054 0.2326622407 0.23810127473 0.24304355656 0.24742816545 0.25122839134 0.25444771752 0.2571129707 0.25926630068 
0.26095733028 0.26223621474 0.26314781044 0.26372695506 0.2639950449 0.26395839177 0.26360883936 0.26292662766 0.2618847771 
0.26045377996 0.25860536093 0.25631440318 0.25355864694 0.25031633962 0.24656257176 0.24226546275 0.23738352224 0.23186530075 
0.22565187308 0.21868194163 0.21089868041 0.20225709847 0.19273074477 0.1823168728 0.1710395212 0.15895021455 0.14612615218 
0.13266591433 0.11868293513 0.10429726643 0.0896264358 0.074776428829 0.059833953172 0.044861131124 0.029893574081 0.014942382166 
9.7995240356e-16 
_area 1 100 double
0 0.00071767965169 0.002828778524 0.0062125419587 0.010683636017 0.016012891171 0.021950790808 0.02824967994 0.034681337501 
0.041048009654 0.047186793023 0.052968730531 0.058294596396 0.063089014401 0.06729376104 0.070860674353 0.073745118506 0.075902168833 
0.077288307762 0.077870296694 0.077640712687 0.07663939228 0.074987103535 0.072951099214 0.070947066861 0.069160104536 0.067587421751 
0.066273836234 0.065311843094 0.064816756358 0.064838730394 0.065337547142 0.066223767913 0.067395801724 0.06875715774 0.070220670479 
0.071714693319 0.073197573723 0.074635337739 0.076006464121 0.077340176314 0.07878222651 0.080608517703 0.083094951867 0.086320058082 
0.090190833825 0.094972197154 0.10063146378 0.10665198606 0.11303849141 0.11984098879 0.12703275913 0.13449163193 0.14202198303 
0.14939235865 0.15637935565 0.16280925998 0.16860159676 0.17380438096 0.17836202863 0.18208420558 0.18492211348 0.18688212492 
0.18804645581 0.18855315861 0.18850589979 0.18796876391 0.18700201399 0.18564757908 0.18391922058 0.18180456801 0.17927582311 
0.17630419537 0.17287220807 0.16897980551 0.16464230668 0.15988033155 0.15470484 0.14910463335 0.14304507581 0.13647985418 
0.12936809276 0.1216883942 0.1134471827 0.10468245948 0.095464394955 0.0858937791 0.076099229621 0.066233651482 0.056469556441 
0.046992254377 0.037990436792 0.029645116465 0.022119191675 0.015550085958 0.010046833938 0.0056912969391 0.0025418244133 0.00063728205121 
8.5055607595e-17 
