# vtk DataFile Version 5.1
vtk output
ASCII
DATASET POLYDATA
POINTS 100 float
-0.190471 -0.0616836 0.705187 -0.190438 -0.0617925 0.705382 -0.190376 -0.0619399 0.705905 
-0.190206 -0.0620619 0.706622 -0.189802 -0.0620601 0.707323 -0.189009 -0.0618117 0.707753 
-0.18765 -0.0611833 0.707633 -0.18555 -0.0600447 0.706695 -0.182552 -0.0582825 0.704708 
-0.178526 -0.0558116 0.7015 -0.173388 -0.052583 0.696975 -0.167102 -0.0485883 0.691115 
-0.159684 -0.0438586 0.68398 -0.151199 -0.0384613 0.675689 -0.141755 -0.0324921 0.666402 
-0.131491 -0.0260662 0.656298 -0.120568 -0.0193084 0.645545 -0.109154 -0.012344 0.63428 
-0.0974147 -0.00529139 0.62259 -0.0854999 0.00174265 0.610504 -0.0735385 0.00866505 0.597989 
-0.0616328 0.0153958 0.584955 -0.0498565 0.0218654 0.571274 -0.0382562 0.0280108 0.556794 
-0.0268535 0.0337718 0.541359 -0.0156504 0.0390879 0.524834 -0.00463378 0.0438969 0.507117 
0.00621888 0.048136 0.488155 0.0169341 0.0517452 0.467948 0.0275378 0.0546723 0.446544 
0.0380511 0.0568791 0.42404 0.0484867 0.0583486 0.400562 0.0588454 0.05909 0.376252 
0.0691134 0.0591423 0.351255 0.0792592 0.0585748 0.325706 0.0892313 0.0574843 0.299716 
0.0989562 0.0559884 0.273371 0.108338 0.0542164 0.246733 0.117256 0.0522982 0.219843 
0.125573 0.0503521 0.192731 0.133131 0.0484741 0.165427 0.139767 0.0467289 0.137971 
0.145313 0.045145 0.110422 0.149616 0.0437141 0.0828634 0.15254 0.0423947 0.0554042 
0.153986 0.0411202 0.0281734 0.153896 0.0398112 0.00131226 0.152264 0.0383884 -0.0250366 
0.149141 0.0367868 -0.0507427 0.144632 0.0349681 -0.0756992 0.138894 0.0329301 -0.0998334 
0.132125 0.0307115 -0.123112 0.124551 0.0283914 -0.145542 0.116409 0.0260837 -0.167168 
0.107931 0.0239266 -0.188061 0.099326 0.0220685 -0.208311 0.0907652 0.0206519 -0.228009 
0.0823713 0.0197971 -0.247235 0.0742124 0.0195883 -0.266051 0.066302 0.0200625 -0.284491 
0.0586045 0.0212039 -0.302557 0.0510455 0.0229442 -0.320227 0.0435265 0.0251679 -0.337459 
0.035941 0.0277233 -0.354204 0.0281911 0.0304368 -0.370416 0.0202028 0.0331302 -0.386067 
0.0119367 0.0356378 -0.401155 0.00339538 0.0378212 -0.415709 -0.00537595 0.0395822 -0.429793 
-0.0142931 0.0408698 -0.443497 -0.0232421 0.0416825 -0.45693 -0.032091 0.0420654 -0.470205 
-0.0407046 0.042102 -0.483424 -0.0489578 0.0419024 -0.496662 -0.0567485 0.0415899 -0.509958 
-0.0640061 0.0412858 -0.5233 -0.0706962 0.0410968 -0.536627 -0.0768204 0.0411034 -0.54983 
-0.0824117 0.0413531 -0.562762 -0.0875261 0.0418568 -0.575255 -0.0922317 0.0425904 -0.58713 
-0.096597 0.0434992 -0.598225 -0.10068 0.0445063 -0.608403 -0.104522 0.045522 -0.617573 
-0.108137 0.0464545 -0.625694 -0.111519 0.0472198 -0.632777 -0.114638 0.0477501 -0.638884 
-0.11745 0.0479998 -0.644116 -0.119907 0.0479493 -0.648598 -0.121966 0.0476048 -0.652467 
-0.123598 0.0469974 -0.65585 -0.124796 0.0461784 -0.658854 -0.12558 0.0452141 -0.661556 
-0.125997 0.04418 -0.663997 -0.126119 0.0431542 -0.666181 -0.12603 0.0422121 -0.668083 
-0.125826 0.0414211 -0.669657 -0.125595 0.0408366 -0.67085 -0.12541 0.0404996 -0.671612 
-0.125318 0.0404342 -0.671908 
LINES 2 100
OFFSETS vtktypeint64
0 100 
CONNECTIVITY vtktypeint64
0 1 2 3 4 5 6 7 8 
9 10 11 12 13 14 15 16 17 
18 19 20 21 22 23 24 25 26 
27 28 29 30 31 32 33 34 35 
36 37 38 39 40 41 42 43 44 
45 46 47 48 49 50 51 52 53 
54 55 56 57 58 59 60 61 62 
63 64 65 66 67 68 69 70 71 
72 73 74 75 76 77 78 79 80 
81 82 83 84 85 86 87 88 89 
90 91 92 93 94 95 96 97 98 
99 
POINT_DATA 100
FIELD FieldData 3
_theta 1 100 double
0 0.031733259127 0.063466518254 0.095199777382 0.12693303651 0.15866629564 0.19039955476 0.22213281389 0.25386607302 
0.28559933214 0.31733259127 0.3490658504 0.38079910953 0.41253236865 0.44426562778 0.47599888691 0.50773214603 0.53946540516 
0.57119866429 0.60293192342 0.63466518254 0.66639844167 0.6981317008 0.72986495992 0.76159821905 0.79333147818 0.82506473731 
0.85679799643 0.88853125556 0.92026451469 0.95199777382 0.98373103294 1.0154642921 1.0471975512 1.0789308103 1.1106640695 
1.1423973286 1.1741305877 1.2058638468 1.237597106 1.2693303651 1.3010636242 1.3327968833 1.3645301425 1.3962634016 
1.4279966607 1.4597299198 1.491463179 1.5231964381 1.5549296972 1.5866629564 1.6183962155 1.6501294746 1.6818627337 
1.7135959929 1.745329252 1.7770625111 1.8087957702 1.8405290294 1.8722622885 1.9039955476 1.9357288068 1.9674620659 
1.999195325 2.0309285841 2.0626618433 2.0943951024 2.1261283615 2.1578616206 2.1895948798 2.2213281389 2.253061398 
2.2847946572 2.3165279163 2.3482611754 2.3799944345 2.4117276937 2.4434609528 2.4751942119 2.506927471 2.5386607302 
2.5703939893 2.6021272484 2.6338605076 2.6655937667 2.6973270258 2.7290602849 2.7607935441 2.7925268032 2.8242600623 
2.8559933214 2.8877265806 2.9194598397 2.9511930988 2.982926358 3.0146596171 3.0463928762 3.0781261353 3.1098593945 
3.1415926536 
_radius 1 100 double
1.2275372045e-15 0.016681105791 0.033099826081 0.049002874781 0.064158908671 0.078368975885 0.091476197168 0.10337379201 0.11401000057 
0.12338836162 0.13156234156 0.13862431374 0.14469007639 0.14988117757 0.15430801744 0.15805680173 0.1611827904 0.16371095921 
0.16564347569 0.16697184644 0.16769077587 0.16781088126 0.16736812972 0.16642867925 0.16508843918 0.16346722408 0.16169807157 
0.15991312655 0.15822826065 0.15672910469 0.15546132518 0.15442762809 0.15359290003 0.15289709455 0.15227344668 0.15166814843 
0.1510572603 0.15045726491 0.14992680016 0.1495583951 0.14946067731 0.14973451495 0.15045116708 0.15164309185 0.1533130102 
0.15545541874 0.1580766536 0.16120167472 0.16486512432 0.16909275975 0.17388131127 0.17918216936 0.18489253903 0.19085713816 
0.19688128725 0.202752559 0.20826559574 0.21324457908 0.21755952957 0.2211348271 0.22395013223 0.22603496548 0.22745869109 
0.22831777831 0.2287221364 0.22878211003 0.22859738566 0.22824857609 0.22779168504 0.22725521727 0.22663964667 0.2259192695 
0.22504668031 0.22395963946 0.22258907319 0.22086630424 0.21872803147 0.21611864494 0.21299032671 0.20930171689 0.20501593496 
0.20009869845 0.19451721423 0.18824032266 0.18124000005 0.17349387753 0.1649881261 0.15572003729 0.14569985101 0.13495164269 
0.12351321315 0.11143495121 0.098777712118 0.085609950269 0.072004582058 0.058036180895 0.043779016068 0.02930614977 0.014689434159 
3.4015386259e-16 
_area 1 100 double
0 0.00059162841713 0.002360028661 0.0052749702195 0.009256163578 0.014148136909 0.019714168908 0.02565587429 0.031651865472 
0.037402499091 0.042668254278 0.047293436756 0.051211746804 0.054434501083 0.057025890392 0.059072273412 0.060653227429 0.061821385429 
0.062597145191 0.062980312408 0.062971652394 0.062592074447 0.061894273961 0.060975694082 0.06003176471 0.059316533963 0.058750749967 
0.058306521016 0.058014002304 0.057891734011 0.05792692192 0.058080573719 0.058302664927 0.058544261887 0.058768556487 0.058971989589 
0.059207595399 0.059591075081 0.060304399423 0.061578399378 0.063537631526 0.066051999449 0.068870163003 0.071760619644 0.074588662403 
0.07747923025 0.080610254707 0.083676408587 0.08661020279 0.089620974173 0.093043545503 0.097229872508 0.10239547795 0.10850582995 
0.11527957413 0.122277367 0.12901117942 0.13503836186 0.1400264315 0.14378532894 0.14626993742 0.14755893766 0.14781718122 
0.14724275673 0.14600269361 0.14420838685 0.14195712582 0.13936815527 0.13657936432 0.13372466142 0.13090960143 0.12819321897 
0.12558078302 0.123029051 0.1204611171 0.11778480797 0.1149070499 0.11173876125 0.10819248375 0.1041827295 0.099637757331 
0.094520418204 0.088845781063 0.082683869814 0.076144868929 0.069353885615 0.062427244157 0.055460105049 0.048527815023 0.041696491487 
0.035036129406 0.028631065787 0.02258490891 0.017018612315 0.012061766147 0.0078392110763 0.0044572690949 0.0019945722468 0.00050047785738 
1.3877787808e-17 
