# vtk DataFile Version 5.1
vtk output
ASCII
DATASET POLYDATA
POINTS 100 float
-0.097353 -0.00259251 0.724841 -0.0970318 -0.00267373 0.724711 -0.0961626 -0.00278889 0.724422 
-0.0947789 -0.00292624 0.723904 -0.0929321 -0.00306569 0.723047 -0.0906874 -0.0031791 0.72171 
-0.0881178 -0.00323082 0.719741 -0.0852986 -0.00317878 0.716988 -0.0822997 -0.00297602 0.713316 
-0.0791801 -0.00257276 0.708619 -0.0759814 -0.00191898 0.702831 -0.0727238 -0.000967394 0.69593 
-0.069403 0.00032342 0.687934 -0.0659898 0.00198589 0.678904 -0.0624317 0.0040407 0.668927 
-0.058656 0.00649462 0.658108 -0.0545768 0.00933914 0.64656 -0.0501014 0.0125501 0.634386 
-0.0451393 0.0160886 0.621673 -0.039611 0.0199023 0.608482 -0.0334562 0.0239284 0.594847 
-0.0266402 0.0280966 0.580772 -0.0191596 0.0323327 0.566237 -0.0110436 0.0365619 0.551203 
-0.00235377 0.0407123 0.535621 0.00681966 0.0447172 0.519441 0.0163643 0.0485168 0.50262 
0.0261536 0.0520597 0.485124 0.0360567 0.0553028 0.466938 0.0459476 0.0582113 0.448064 
0.0557139 0.0607576 0.428515 0.065264 0.062921 0.408316 0.0745308 0.0646868 0.387495 
0.083473 0.0660457 0.366078 0.0920726 0.0669941 0.344084 0.100329 0.0675346 0.32152 
0.108253 0.0676761 0.298379 0.115856 0.0674355 0.274648 0.123138 0.0668378 0.250303 
0.130085 0.0659165 0.225324 0.136656 0.0647134 0.199699 0.142784 0.0632771 0.173432 
0.148373 0.0616613 0.146555 0.153302 0.0599219 0.119128 0.157435 0.0581134 0.0912451 
0.160627 0.0562856 0.0630349 0.162742 0.0544799 0.0346534 0.163661 0.0527264 0.00627863 
0.163295 0.0510423 -0.0219002 0.161598 0.0494311 -0.0496938 0.158569 0.0478839 -0.0769253 
0.154257 0.0463814 -0.103441 0.148759 0.0448978 -0.129118 0.142212 0.0434056 -0.153873 
0.134784 0.0418804 -0.177664 0.12666 0.040306 -0.200486 0.118028 0.0386781 -0.22237 
0.109065 0.0370078 -0.243375 0.0999225 0.035322 -0.263579 0.0907195 0.0336631 -0.283069 
0.0815337 0.0320861 -0.301928 0.072401 0.0306548 -0.320235 0.063318 0.0294356 -0.33805 
0.0542483 0.0284919 -0.355418 0.0451326 0.0278781 -0.372365 0.0359007 0.0276339 -0.388897 
0.0264832 0.0277809 -0.405011 0.0168239 0.0283195 -0.420694 0.00688921 0.0292296 -0.435929 
-0.00332504 0.0304713 -0.450705 -0.0137903 0.0319892 -0.465015 -0.0244457 0.0337165 -0.478859 
-0.0352026 0.0355808 -0.492248 -0.0459512 0.0375093 -0.505201 -0.0565698 0.0394343 -0.517737 
-0.066935 0.0412971 -0.529878 -0.0769316 0.0430504 -0.541641 -0.0864619 0.0446594 -0.553032 
-0.0954517 0.0461018 -0.564046 -0.103855 0.0473652 -0.574663 -0.111657 0.0484455 -0.584848 
-0.118867 0.0493429 -0.594551 -0.125522 0.0500601 -0.603716 -0.131675 0.0505991 -0.612279 
-0.137389 0.0509607 -0.620176 -0.142731 0.0511438 -0.627352 -0.147763 0.0511468 -0.633763 
-0.152536 0.0509693 -0.639382 -0.157085 0.0506146 -0.644203 -0.161426 0.0500924 -0.648243 
-0.165558 0.0494208 -0.651539 -0.169458 0.0486278 -0.654152 -0.173089 0.0477514 -0.656156 
-0.176402 0.0468385 -0.65764 -0.179339 0.0459427 -0.658697 -0.181841 0.0451199 -0.659418 
-0.183851 0.044425 -0.659891 -0.18532 0.0439062 -0.660188 -0.186211 0.0436016 -0.660364 
-0.186499 0.0435349 -0.660453 
LINES 2 100
OFFSETS vtktypeint64
0 100 
CONNECTIVITY vtktypeint64
0 1 2 3 4 5 6 7 8 
9 10 11 12 13 14 15 16 17 
18 19 20 21 22 23 24 25 26 
27 28 29 30 31 32 33 34 35 
36 37 38 39 40 41 42 43 44 
45 46 47 48 49 50 51 52 53 
54 55 56 57 58 59 60 61 62 
63 64 65 66 67 68 69 70 71 
72 73 74 75 76 77 78 79 80 
81 82 83 84 85 86 87 88 89 
90 91 92 93 94 95 96 97 98 
99 
POINT_DATA 100
FIELD FieldData 3
_theta 1 100 double
0 0.031733259127 0.063466518254 0.095199777382 0.12693303651 0.15866629564 0.19039955476 0.22213281389 0.25386607302 
0.28559933214 0.31733259127 0.3490658504 0.38079910953 0.41253236865 0.44426562778 0.47599888691 0.50773214603 0.53946540516 
0.57119866429 0.60293192342 0.63466518254 0.66639844167 0.6981317008 0.72986495992 0.76159821905 0.79333147818 0.82506473731 
0.85679799643 0.88853125556 0.92026451469 0.95199777382 0.98373103294 1.0154642921 1.0471975512 1.0789308103 1.1106640695 
1.1423973286 1.1741305877 1.2058638468 1.237597106 1.2693303651 1.3010636242 1.3327968833 1.3645301425 1.3962634016 
1.4279966607 1.4597299198 1.491463179 1.5231964381 1.5549296972 1.5866629564 1.6183962155 1.6501294746 1.6818627337 
1.7135959929 1.745329252 1.7770625111 1.8087957702 1.8405290294 1.8722622885 1.9039955476 1.9357288068 1.9674620659 
1.999195325 2.0309285841 2.0626618433 2.0943951024 2.1261283615 2.1578616206 2.1895948798 2.2213281389 2.253061398 
2.2847946572 2.3165279163 2.3482611754 2.3799944345 2.4117276937 2.4434609528 2.4751942119 2.506927471 2.5386607302 
2.5703939893 2.6021272484 2.6338605076 2.6655937667 2.6973270258 2.7290602849 2.7607935441 2.7925268032 2.8242600623 
2.8559933214 2.8877265806 2.9194598397 2.9511930988 2.982926358 3.0146596171 3.0463928762 3.0781261353 3.1098593945 
3.1415926536 
_radius 1 100 double
1.7854956864e-15 0.013562199968 0.027057546289 0.040418017058 0.053576652589 0.066466534176 0.079018684839 0.09115943269 0.10280802287 
0.11387538414 0.12426492901 0.13387600209 0.14261006785 0.15037906768 0.15711478449 0.16277770988 0.16736389477 0.17090856578 
0.17348581828 0.17520432643 0.17619960452 0.1766238018 0.17663423576 0.17638182972 0.17600036126 0.17559714558 0.17524582725 
0.1749825056 0.17480682872 0.17468870904 0.17457894875 0.17442042933 0.17415721847 0.17374093313 0.17313499624 0.1723173943 
0.17128194581 0.17003801555 0.16860935659 0.16703333172 0.16536109258 0.16365808569 0.16200399917 0.16049183307 0.15922601065 
0.15831914185 0.15788682563 0.15804005517 0.15887533202 0.16046346783 0.16283900693 0.16599258014 0.16986780509 0.17436293972 
0.17933637127 0.18461482531 0.19000365939 0.19529908305 0.20030216547 0.20483402401 0.20875086864 0.21195694575 0.21441319011 
0.21613974408 0.21721143209 0.21774657862 0.21789085459 0.21779868857 0.21761486625 0.21745830248 0.21740906771 0.21749919126 
0.2177078121 0.21796154375 0.21814074854 0.21809142977 0.21764112831 0.21661637247 0.2148591838 0.2122405923 0.20866972483 
0.20409771282 0.19851643251 0.19195286859 0.18446050095 0.17610937591 0.16697638365 0.15713685109 0.14665811531 0.1355954524 
0.12399060313 0.11187301132 0.099263635201 0.086180795445 0.072647104415 0.058696228577 0.044378173788 0.029761985792 0.014935201679 
1.3516880674e-15 
_area 1 100 double
0 0.00041666025778 0.0016764041148 0.0038025704713 0.0068158821235 0.010712996583 0.015446984234 0.020915990316 0.026962702576 
0.033383523316 0.039944270368 0.046398722741 0.052506719347 0.058049557215 0.062842033398 0.066741951549 0.069658185022 0.071557321053 
0.072467750762 0.072479896817 0.07174170955 0.070448626818 0.068827254976 0.067113696248 0.065529598991 0.064258811291 0.06342687426 
0.06308707993 0.063218675176 0.063739287773 0.064525520943 0.06543610963 0.066338419615 0.067134019251 0.067770618372 0.068233236474 
0.068523826827 0.068647002212 0.068613675968 0.06846160082 0.068275508225 0.06818419511 0.068319697166 0.068754334786 0.069484481233 
0.070622314824 0.072209600769 0.073948930084 0.075840217437 0.077981246114 0.080486916888 0.083456235097 0.08694710766 0.090960385094 
0.095433675685 0.10024255585 0.10520712903 0.11010436225 0.11468795426 0.1187159033 0.12198200922 0.12434450987 0.12574530029 
0.12621542975 0.12586494211 0.12485817679 0.12338129253 0.12161428906 0.119715891 0.11781752439 0.11601798204 0.11437505139 
0.11289457743 0.1115213041 0.11013925417 0.10858692731 0.10668517393 0.10426997104 0.10122156932 0.097483545364 0.093067800858 
0.088044344132 0.08251892478 0.076607264319 0.070417305582 0.064044540135 0.057575183753 0.051089782445 0.044664655672 0.038372253242 
0.032282138515 0.026463582663 0.02098963406 0.015941395485 0.011410562665 0.0074984254397 0.0043104647758 0.001947003659 0.00049163560328 
4.3899994513e-17 
