# vtk DataFile Version 5.1
vtk output
ASCII
DATASET POLYDATA
POINTS 100 float
-0.167184 -0.0438283 0.628904 -0.166858 -0.0438546 0.629154 -0.165983 -0.0437898 0.629866 
-0.16457 -0.0436075 0.630917 -0.162636 -0.0432664 0.632115 -0.160201 -0.0427132 0.633222 
-0.157296 -0.0418872 0.633979 -0.153954 -0.0407239 0.634128 -0.150216 -0.0391611 0.633439 
-0.14612 -0.0371431 0.63173 -0.141709 -0.0346259 0.628877 -0.137015 -0.0315813 0.624825 
-0.132065 -0.0280003 0.619578 -0.12687 -0.0238949 0.613192 -0.121425 -0.0192992 0.60576 
-0.115708 -0.0142686 0.597391 -0.109682 -0.00887744 0.588192 -0.103292 -0.00321606 0.57825 
-0.0964776 0.002614 0.567623 -0.0891784 0.0085051 0.556329 -0.0813406 0.0143491 0.544352 
-0.072928 0.0200428 0.531648 -0.0639301 0.0254929 0.518155 -0.0543687 0.0306205 0.50381 
-0.0443011 0.0353634 0.488564 -0.0338209 0.0396783 0.472395 -0.0230541 0.0435405 0.455318 
-0.0121519 0.0469426 0.437388 -0.00128028 0.0498921 0.418699 0.00939208 0.0524077 0.399369 
0.0197072 0.0545158 0.379536 0.0295298 0.0562457 0.359332 0.0387571 0.0576264 0.338874 
0.0473256 0.0586836 0.318243 0.0552128 0.0594374 0.29748 0.0624344 0.0599022 0.276575 
0.0690374 0.0600869 0.255479 0.0750886 0.0599966 0.234105 0.0806613 0.0596354 0.212349 
0.085821 0.0590098 0.190112 0.0906117 0.0581315 0.167311 0.0950451 0.0570206 0.14391 
0.0990939 0.0557076 0.119926 0.102689 0.0542345 0.0954431 0.105726 0.0526542 0.0706095 
0.108068 0.0510291 0.0456322 0.109565 0.0494273 0.0207606 0.110066 0.047919 -0.00373378 
0.109436 0.0465713 -0.0275823 0.107571 0.0454433 -0.0505443 0.104415 0.0445812 -0.0724295 
0.0999637 0.0440149 -0.0931161 0.0942716 0.0437551 -0.112561 0.0874479 0.0437929 -0.130801 
0.0796491 0.0441004 -0.147947 0.071066 0.0446339 -0.164171 0.0619084 0.0453377 -0.179682 
0.0523868 0.04615 -0.194705 0.042696 0.0470082 -0.209459 0.0329998 0.0478555 -0.224129 
0.0234203 0.0486458 -0.238853 0.0140314 0.0493478 -0.253712 0.00485855 0.0499472 -0.268725 
-0.00411672 0.0504475 -0.283852 -0.0129476 0.0508686 -0.299011 -0.0217093 0.0512425 -0.314085 
-0.0304844 0.0516096 -0.32895 -0.0393484 0.0520121 -0.343487 -0.0483566 0.0524882 -0.357602 
-0.0575338 0.053066 -0.371236 -0.0668684 0.0537591 -0.384374 -0.076311 0.0545634 -0.397042 
-0.0857767 0.0554555 -0.409304 -0.0951526 0.0563941 -0.42125 -0.104308 0.0573229 -0.432982 
-0.113104 0.0581756 -0.444596 -0.121411 0.0588818 -0.456171 -0.129113 0.0593746 -0.467754 
-0.136122 0.0595971 -0.47935 -0.142384 0.0595085 -0.490919 -0.147878 0.0590894 -0.502378 
-0.152621 0.058344 -0.51361 -0.156661 0.057301 -0.524467 -0.16007 0.0560115 -0.534792 
-0.16294 0.0545451 -0.544426 -0.165368 0.0529839 -0.553229 -0.167453 0.0514149 -0.561085 
-0.169285 0.0499232 -0.567917 -0.17094 0.0485838 -0.573691 -0.172476 0.0474554 -0.578415 
-0.173929 0.0465759 -0.582139 -0.175315 0.0459599 -0.584953 -0.176633 0.0455984 -0.586971 
-0.177863 0.0454611 -0.58833 -0.178979 0.0455011 -0.589172 -0.179944 0.045661 -0.58964 
-0.180725 0.0458798 -0.589865 -0.181287 0.0461003 -0.589958 -0.181607 0.0462762 -0.590002 
-0.181669 0.0463772 -0.590051 
LINES 2 100
OFFSETS vtktypeint64
0 100 
CONNECTIVITY vtktypeint64
0 1 2 3 4 5 6 7 8 
9 10 11 12 13 14 15 16 17 
18 19 20 21 22 23 24 25 26 
27 28 29 30 31 32 33 34 35 
36 37 38 39 40 41 42 43 44 
45 46 47 48 49 50 51 52 53 
54 55 56 57 58 59 60 61 62 
63 64 65 66 67 68 69 70 71 
72 73 74 75 76 77 78 79 80 
81 82 83 84 85 86 87 88 89 
90 91 92 93 94 95 96 97 98 
99 
POINT_DATA 100
FIELD FieldData 3
_theta 1 100 double
0 0.031733259127 0.063466518254 0.095199777382 0.12693303651 0.15866629564 0.19039955476 0.22213281389 0.25386607302 
0.28559933214 0.31733259127 0.3490658504 0.38079910953 0.41253236865 0.44426562778 0.47599888691 0.50773214603 0.53946540516 
0.57119866429 0.60293192342 0.63466518254 0.66639844167 0.6981317008 0.72986495992 0.76159821905 0.79333147818 0.82506473731 
0.85679799643 0.88853125556 0.92026451469 0.95199777382 0.98373103294 1.0154642921 1.0471975512 1.0789308103 1.1106640695 
1.1423973286 1.1741305877 1.2058638468 1.237597106 1.2693303651 1.3010636242 1.3327968833 1.3645301425 1.3962634016 
1.4279966607 1.4597299198 1.491463179 1.5231964381 1.5549296972 1.5866629564 1.6183962155 1.6501294746 1.6818627337 
1.7135959929 1.745329252 1.7770625111 1.8087957702 1.8405290294 1.8722622885 1.9039955476 1.9357288068 1.9674620659 
1.999195325 2.0309285841 2.0626618433 2.0943951024 2.1261283615 2.1578616206 2.1895948798 2.2213281389 2.253061398 
2.2847946572 2.3165279163 2.3482611754 2.3799944345 2.4117276937 2.4434609528 2.4751942119 2.506927471 2.5386607302 
2.5703939893 2.6021272484 2.6338605076 2.6655937667 2.6973270258 2.7290602849 2.7607935441 2.7925268032 2.8242600623 
2.8559933214 2.8877265806 2.9194598397 2.9511930988 2.982926358 3.0146596171 3.0463928762 3.0781261353 3.1098593945 
3.1415926536 
_radius 1 100 double
1.0076697946e-15 0.0169432616 0.033559537434 0.049548627168 0.064658938998 0.078700689915 0.091548971857 0.10313758975 0.11344669888 
0.12248849663 0.1302951262 0.13691149734 0.1423934483 0.14680946912 0.15024293101 0.15279185412 0.15456460229 0.15567198163 
0.15621821292 0.15629424339 0.15597626894 0.15533028667 0.15442092865 0.15332096832 0.15211753211 0.15091219541 0.14981414505 
0.14892764334 0.14833670409 0.14809019018 0.14819042985 0.14858885451 0.14918980871 0.14986129212 0.15045098379 0.15080617835 
0.15079567345 0.15033058746 0.14938118009 0.14798735473 0.14626044852 0.1443736958 0.14253996356 0.14097963375 0.13988811731 
0.13941514252 0.13966053687 0.14068007983 0.14249199004 0.1450794116 0.14838916601 0.15232920331 0.15676783143 0.16153744272 
0.16644379054 0.17127957762 0.175839665 0.17993530557 0.18340590126 0.1861278519 0.18802054551 0.18904955801 0.18922703275 
0.18860917333 0.18729082041 0.18539719129 0.18307307956 0.18047020455 0.17773398403 0.17499156989 0.17234301513 0.16985654459 
0.16756753772 0.16548005856 0.16357000879 0.16178958438 0.16007289011 0.15834222279 0.15651414958 0.15450446498 0.15223140475 
0.14961695745 0.14658664757 0.14306870106 0.13899386872 0.13429709163 0.1289214492 0.12282360735 0.11597889535 0.10838389789 
0.10005533561 0.091025631108 0.081337107781 0.071037450064 0.060178461376 0.048818513018 0.037027213742 0.024889730447 0.012508345767 
3.4659960665e-16 
_area 1 100 double
0 0.00050679737624 0.0020175217663 0.0044990424821 0.007884629624 0.012063199075 0.01687339446 0.022105726828 0.027513456729 
0.032831072912 0.037798001276 0.042184356641 0.045815072419 0.048588476359 0.050485186142 0.051563339895 0.051937712645 0.051744924762 
0.051105292232 0.050099110602 0.048770715882 0.047155864452 0.045315143194 0.043361919733 0.041488775912 0.039987681558 0.039127144868 
0.038918434346 0.03923942676 0.039991549752 0.041127648747 0.042646132997 0.04449658856 0.046553308961 0.048647142254 0.050576588219 
0.052145039183 0.053199408033 0.053650612231 0.053507316449 0.052928460808 0.052643396715 0.05289917421 0.053325222515 0.054010784188 
0.055123375915 0.056844485014 0.059361112573 0.062620966609 0.066416407067 0.070596834319 0.075066302344 0.079748728719 0.084569394425 
0.089436329725 0.094213967182 0.09870899179 0.10269388025 0.10595569493 0.10833578662 0.10974093042 0.11013352108 0.10952723861 
0.10799917364 0.10569889745 0.10283774345 0.099662170958 0.096413999457 0.093261371075 0.090240399527 0.087306276014 0.084425425759 
0.081614222682 0.078930499447 0.076440670102 0.074181927407 0.072137353911 0.0702342735 0.068363246506 0.066404939625 0.064252074987 
0.061821263296 0.059056239687 0.055926146332 0.052422205193 0.048555318268 0.044355859028 0.039875390618 0.035188732549 0.030393815397 
0.025606680999 0.020950975083 0.016545208195 0.012494003521 0.0088873487074 0.0058049461702 0.0033190560031 0.0014928393529 0.00037592780142 
3.533437711e-17 
