# vtk DataFile Version 5.1
vtk output
ASCII
DATASET POLYDATA
POINTS 100 float
-0.211625 -0.00724618 0.755526 -0.21139 -0.00743535 0.755481 -0.210803 -0.00780768 0.755386 
-0.209826 -0.00831099 0.755169 -0.208399 -0.00886401 0.754722 -0.20644 -0.00936368 0.7539 
-0.203852 -0.00969418 0.752541 -0.200529 -0.00973691 0.750472 -0.19636 -0.00938039 0.747524 
-0.191245 -0.00852906 0.743544 -0.1851 -0.00711035 0.738405 -0.17787 -0.00507938 0.732009 
-0.169535 -0.00242107 0.724297 -0.160122 0.000850187 0.715244 -0.149703 0.00469313 0.704863 
-0.138403 0.00904375 0.6932 -0.126386 0.0138204 0.680325 -0.113856 0.0189291 0.666333 
-0.101035 0.0242687 0.651334 -0.0881499 0.0297349 0.635447 -0.0754157 0.0352235 0.618795 
-0.0630123 0.0406324 0.601499 -0.0510706 0.0458625 0.583674 -0.0396591 0.050819 0.565421 
-0.0287769 0.0554106 0.546822 -0.0183538 0.0595515 0.527936 -0.00825763 0.0631616 0.508792 
0.00169041 0.0661691 0.489385 0.0116953 0.0685133 0.469675 0.021963 0.0701479 0.449581 
0.0326733 0.0710447 0.42899 0.0439544 0.071197 0.407757 0.0558607 0.0706218 0.385716 
0.0683573 0.0693609 0.362695 0.0813127 0.0674806 0.338526 0.0945009 0.0650686 0.313067 
0.107613 0.0622293 0.286219 0.120279 0.0590785 0.257939 0.132093 0.0557353 0.228255 
0.142645 0.052315 0.197271 0.151556 0.0489221 0.165174 0.158507 0.045644 0.132221 
0.163264 0.0425468 0.0987326 0.165697 0.0396739 0.0650693 0.165792 0.0370458 0.031612 
0.163645 0.0346631 -0.00126552 0.159455 0.032511 -0.0332225 0.153504 0.030565 -0.0639742 
0.146134 0.0287973 -0.0933106 0.137714 0.0271824 -0.121107 0.128614 0.0257021 -0.147329 
0.119178 0.0243485 -0.172026 0.1097 0.0231251 -0.195318 0.100407 0.0220458 -0.217378 
0.0914521 0.0211325 -0.238411 0.0829149 0.0204105 -0.258623 0.0748055 0.0199042 -0.278207 
0.0670778 0.0196323 -0.297316 0.0596461 0.0196039 -0.316058 0.0524025 0.0198162 -0.334482 
0.0452346 0.0202537 -0.35259 0.0380412 0.0208893 -0.370337 0.0307439 0.0216875 -0.387652 
0.0232945 0.0226088 -0.404451 0.0156772 0.0236141 -0.420659 0.00790696 0.0246703 -0.436224 
2.42044e-05 0.025754 -0.45113 -0.00791323 0.0268549 -0.465399 -0.0158386 0.0279763 -0.479099 
-0.0236848 0.0291344 -0.492328 -0.0313909 0.0303553 -0.505205 -0.0389073 0.0316705 -0.517853 
-0.0461975 0.0331118 -0.530381 -0.0532372 0.0347049 -0.542866 -0.0600123 0.0364649 -0.555341 
-0.0665138 0.0383919 -0.567786 -0.0727337 0.0404689 -0.580129 -0.07866 0.0426619 -0.592248 
-0.0842731 0.0449214 -0.603987 -0.0895444 0.0471868 -0.61517 -0.0944359 0.0493915 -0.625622 
-0.0989024 0.0514689 -0.635189 -0.102895 0.0533586 -0.643755 -0.106367 0.0550118 -0.651255 
-0.109276 0.0563954 -0.657682 -0.111596 0.0574941 -0.663086 -0.113314 0.0583109 -0.667568 
-0.114438 0.0588655 -0.671266 -0.114998 0.059191 -0.674338 -0.115046 0.0593299 -0.676946 
-0.114652 0.059329 -0.679233 -0.113904 0.059235 -0.681315 -0.112899 0.0590904 -0.683266 
-0.111743 0.0589308 -0.685115 -0.110542 0.0587832 -0.686851 -0.109395 0.0586658 -0.688428 
-0.108392 0.0585893 -0.689779 -0.107609 0.0585585 -0.69083 -0.107102 0.0585744 -0.691516 
-0.106908 0.0586361 -0.691791 
LINES 2 100
OFFSETS vtktypeint64
0 100 
CONNECTIVITY vtktypeint64
0 1 2 3 4 5 6 7 8 
9 10 11 12 13 14 15 16 17 
18 19 20 21 22 23 24 25 26 
27 28 29 30 31 32 33 34 35 
36 37 38 39 40 41 42 43 44 
45 46 47 48 49 50 51 52 53 
54 55 56 57 58 59 60 61 62 
63 64 65 66 67 68 69 70 71 
72 73 74 75 76 77 78 79 80 
81 82 83 84 85 86 87 88 89 
90 91 92 93 94 95 96 97 98 
99 
POINT_DATA 100
FIELD FieldData 3
_theta 1 100 double
0 0.031733259127 0.063466518254 0.095199777382 0.12693303651 0.15866629564 0.19039955476 0.22213281389 0.25386607302 
0.28559933214 0.31733259127 0.3490658504 0.38079910953 0.41253236865 0.44426562778 0.47599888691 0.50773214603 0.53946540516 
0.57119866429 0.60293192342 0.63466518254 0.66639844167 0.6981317008 0.72986495992 0.76159821905 0.79333147818 0.82506473731 
0.85679799643 0.88853125556 0.92026451469 0.95199777382 0.98373103294 1.0154642921 1.0471975512 1.0789308103 1.1106640695 
1.1423973286 1.1741305877 1.2058638468 1.237597106 1.2693303651 1.3010636242 1.3327968833 1.3645301425 1.3962634016 
1.4279966607 1.4597299198 1.491463179 1.5231964381 1.5549296972 1.5866629564 1.6183962155 1.6501294746 1.6818627337 
1.7135959929 1.745329252 1.7770625111 1.8087957702 1.8405290294 1.8722622885 1.9039955476 1.9357288068 1.9674620659 
1.999195325 2.0309285841 2.0626618433 2.0943951024 2.1261283615 2.1578616206 2.1895948798 2.2213281389 2.253061398 
2.2847946572 2.3165279163 2.3482611754 2.3799944345 2.4117276937 2.4434609528 2.4751942119 2.506927471 2.5386607302 
2.5703939893 2.6021272484 2.6338605076 2.6655937667 2.6973270258 2.7290602849 2.7607935441 2.7925268032 2.8242600623 
2.8559933214 2.8877265806 2.9194598397 2.9511930988 2.982926358 3.0146596171 3.0463928762 3.0781261353 3.1098593945 
3.1415926536 
_radius 1 100 double
9.3065327724e-16 0.017086639257 0.034013593213 0.05061673898 0.066730504444 0.082187240773 0.096817391275 0.11045152704 0.12292534349 
0.1340882787 0.1438155607 0.1520224144 0.15867818387 0.16381760437 0.16754660753 0.17004083392 0.17153619121 0.17231195198 
0.17266771447 0.17289600103 0.17325268789 0.17392840563 0.17502558958 0.17654682969 0.17839873582 0.18041135075 0.18236851111 
0.18404231403 0.18522558 0.18575835985 0.18554630176 0.18456905306 0.18287650835 0.18057408161 0.17780820669 0.17476499059 
0.17167634866 0.16881559128 0.16647418913 0.16492587354 0.16439128646 0.1650143979 0.16685416525 0.16988803531 0.17402157137 
0.17910087294 0.18492913252 0.19128943176 0.19797001813 0.20478364228 0.21157591493 0.21822462759 0.22463562958 0.2307399755 
0.23649401415 0.24188112334 0.24691214504 0.25162171913 0.25605943821 0.26027715159 0.26431559555 0.26819391134 0.27190445597 
0.27541334515 0.27866543618 0.28159167924 0.28411699563 0.28616761854 0.28767755618 0.28859411612 0.28888222766 0.28852688532 
0.28753280056 0.28592057241 0.28371939488 0.28095727351 0.27765054894 0.27379489407 0.269359732 0.26428731848 0.25849679938 
0.25189265654 0.24437626955 0.23585890863 0.22627432937 0.21558924031 0.20381024323 0.19098636445 0.17720691753 0.16259503942 
0.14729772486 0.13147353387 0.11527940402 0.098858159873 0.082328290817 0.065777267972 0.049259091319 0.032796038219 0.016383946033 
1.2142641341e-15 
_area 1 100 double
0 0.00063316665825 0.0025198484904 0.0056186918887 0.0098522825896 0.015098014626 0.021181038379 0.027872417567 0.034894461087 
0.04193414577 0.048664711383 0.054774325235 0.059998842134 0.064153750876 0.067159578603 0.069056094968 0.07000366323 0.070274752468 
0.070242926571 0.070357783057 0.071016051273 0.072379784205 0.074403700579 0.076933871639 0.079754943361 0.082618127095 0.085264838018 
0.087447789556 0.088951923641 0.089618575342 0.089374300639 0.088258512093 0.086427853489 0.084095624788 0.081438451752 0.078658841408 
0.076088595492 0.074170640438 0.073350440962 0.073836737163 0.075423522318 0.077741658857 0.080501528372 0.083542398424 0.086890693621 
0.090790851455 0.095264403532 0.10009891623 0.10519063071 0.11055128076 0.11649532119 0.12357572355 0.13128884081 0.1395143036 
0.14762457588 0.15537488958 0.16257769402 0.16914132866 0.17508174276 0.18043896554 0.18521369474 0.18934826924 0.19276306168 
0.19540898087 0.19723321144 0.19821498992 0.19868091249 0.19852946473 0.19787113696 0.19679304737 0.19528538603 0.19331371757 
0.19083963402 0.18784151336 0.18432195458 0.18029294056 0.17575174381 0.17065992814 0.16493505433 0.15846228205 0.15112349648 
0.14283380358 0.13357481649 0.12341625662 0.11252011936 0.1011258524 0.089519935095 0.077997256377 0.066823775714 0.056209897093 
0.046301555342 0.037190405803 0.028936429364 0.021590901356 0.015210199859 0.0098586187597 0.0056039586809 0.0025103275174 0.00063065581707 
4.3395165536e-17 
