# vtk DataFile Version 5.1
vtk output
ASCII
DATASET POLYDATA
POINTS 100 float
-0.0114325 -0.0284373 0.784376 -0.0115608 -0.0283389 0.784187 -0.0119622 -0.0278121 0.78361 
-0.0126036 -0.0268649 0.782562 -0.0134315 -0.0255107 0.780925 -0.0143741 -0.0237667 0.778553 
-0.0153448 -0.021651 0.775295 -0.0162465 -0.0191798 0.771018 -0.0169756 -0.0163653 0.765619 
-0.0174267 -0.0132139 0.759041 -0.0174969 -0.00972615 0.751281 -0.0170902 -0.00589732 0.742382 
-0.0161209 -0.00171958 0.732432 -0.0145176 0.00281479 0.721544 -0.0122256 0.00770937 0.709841 
-0.00921008 0.0129593 0.697436 -0.00545716 0.0185471 0.684413 -0.000975854 0.0244391 0.670815 
0.00420169 0.0305832 0.656641 0.0100205 0.0369078 0.64184 0.0164043 0.0433229 0.626324 
0.0232579 0.0497222 0.609983 0.0304711 0.0559874 0.592701 0.0379235 0.0619934 0.574378 
0.0454908 0.0676145 0.554949 0.0530508 0.0727306 0.534399 0.0604909 0.0772337 0.512772 
0.0677141 0.0810336 0.490169 0.0746453 0.0840619 0.466744 0.0812347 0.0862757 0.442685 
0.0874605 0.087659 0.418199 0.0933283 0.0882228 0.393482 0.0988685 0.0880036 0.368702 
0.10413 0.087061 0.343977 0.109175 0.0854738 0.319361 0.114068 0.0833357 0.294843 
0.118866 0.0807506 0.270343 0.12361 0.0778273 0.24573 0.12832 0.0746747 0.22084 
0.132984 0.0713975 0.1955 0.137557 0.0680918 0.169551 0.141965 0.0648413 0.142875 
0.146104 0.0617149 0.115413 0.149847 0.0587643 0.0871782 0.153057 0.0560232 0.05826 
0.155593 0.0535066 0.0288182 0.157325 0.0512116 -0.000929202 0.158139 0.0491199 -0.0307256 
0.157949 0.0471995 -0.0602991 0.156702 0.0454091 -0.089387 0.154377 0.043702 -0.117758 
0.150989 0.042031 -0.145228 0.14658 0.0403529 -0.171675 0.141216 0.0386335 -0.197039 
0.134977 0.0368509 -0.22132 0.12795 0.0349988 -0.244568 0.120221 0.0330874 -0.266867 
0.111868 0.031144 -0.28832 0.102958 0.0292108 -0.309033 0.0935476 0.027342 -0.329098 
0.083681 0.0255996 -0.348587 0.0733974 0.0240481 -0.367546 0.0627348 0.0227494 -0.385995 
0.0517363 0.0217569 -0.403935 0.0404556 0.0211117 -0.42136 0.0289612 0.0208389 -0.43826 
0.0173378 0.0209462 -0.454638 0.00568575 0.0214233 -0.470513 -0.00588278 0.0222438 -0.485923 
-0.0172499 0.0233683 -0.500927 -0.0282999 0.0247478 -0.515593 -0.0389278 0.0263284 -0.529997 
-0.0490475 0.0280559 -0.5442 -0.0585988 0.0298792 -0.558247 -0.067551 0.0317534 -0.572147 
-0.0759048 0.0336409 -0.585873 -0.0836893 0.0355118 -0.599356 -0.090957 0.0373424 -0.61249 
-0.0977752 0.0391131 -0.625143 -0.104217 0.0408054 -0.637167 -0.110349 0.042399 -0.648413 
-0.116227 0.0438699 -0.658753 -0.121882 0.0451885 -0.668093 -0.127322 0.0463203 -0.67638 
-0.132526 0.047227 -0.683615 -0.137453 0.0478698 -0.689849 -0.142043 0.0482136 -0.695175 
-0.146229 0.048232 -0.699723 -0.149946 0.0479121 -0.703637 -0.153141 0.047259 -0.707066 
-0.155782 0.0462985 -0.710138 -0.157864 0.0450787 -0.712954 -0.159411 0.0436685 -0.715577 
-0.160478 0.0421547 -0.718026 -0.16114 0.0406362 -0.72028 -0.161491 0.0392172 -0.722289 
-0.161629 0.0379989 -0.72398 -0.161644 0.0370711 -0.725277 -0.16161 0.0365048 -0.726112 
-0.161578 0.0363457 -0.726438 
LINES 2 100
OFFSETS vtktypeint64
0 100 
CONNECTIVITY vtktypeint64
0 1 2 3 4 5 6 7 8 
9 10 11 12 13 14 15 16 17 
18 19 20 21 22 23 24 25 26 
27 28 29 30 31 32 33 34 35 
36 37 38 39 40 41 42 43 44 
45 46 47 48 49 50 51 52 53 
54 55 56 57 58 59 60 61 62 
63 64 65 66 67 68 69 70 71 
72 73 74 75 76 77 78 79 80 
81 82 83 84 85 86 87 88 89 
90 91 92 93 94 95 96 97 98 
99 
POINT_DATA 100
FIELD FieldData 3
_theta 1 100 double
0 0.031733259127 0.063466518254 0.095199777382 0.12693303651 0.15866629564 0.19039955476 0.22213281389 0.25386607302 
0.28559933214 0.31733259127 0.3490658504 0.38079910953 0.41253236865 0.44426562778 0.47599888691 0.50773214603 0.53946540516 
0.57119866429 0.60293192342 0.63466518254 0.66639844167 0.6981317008 0.72986495992 0.76159821905 0.79333147818 0.82506473731 
0.85679799643 0.88853125556 0.92026451469 0.95199777382 0.98373103294 1.0154642921 1.0471975512 1.0789308103 1.1106640695 
1.1423973286 1.1741305877 1.2058638468 1.237597106 1.2693303651 1.3010636242 1.3327968833 1.3645301425 1.3962634016 
1.4279966607 1.4597299198 1.491463179 1.5231964381 1.5549296972 1.5866629564 1.6183962155 1.6501294746 1.6818627337 
1.7135959929 1.745329252 1.7770625111 1.8087957702 1.8405290294 1.8722622885 1.9039955476 1.9357288068 1.9674620659 
1.999195325 2.0309285841 2.0626618433 2.0943951024 2.1261283615 2.1578616206 2.1895948798 2.2213281389 2.253061398 
2.2847946572 2.3165279163 2.3482611754 2.3799944345 2.4117276937 2.4434609528 2.4751942119 2.506927471 2.5386607302 
2.5703939893 2.6021272484 2.6338605076 2.6655937667 2.6973270258 2.7290602849 2.7607935441 2.7925268032 2.8242600623 
2.8559933214 2.8877265806 2.9194598397 2.9511930988 2.982926358 3.0146596171 3.0463928762 3.0781261353 3.1098593945 
3.1415926536 
_radius 1 100 double
2.5788518451e-17 0.015908402505 0.031657848336 0.047091051454 0.062062777992 0.076444771572 0.090129313327 0.10303111628 0.11508738451 
0.12625608452 0.13651277313 0.14584663364 0.15425658383 0.16174834125 0.16833312323 0.17402825799 0.17885949597 0.18286436428 
0.18609560957 0.18862368249 0.19053734657 0.19194182658 0.19295439597 0.19369784761 0.1942927598 0.19484970022 0.19546238214 
0.19620231703 0.19711492854 0.19821677988 0.199493768 0.20090071543 0.20236327475 0.20378304877 0.20504628536 0.20603569108 
0.2066441462 0.20678863326 0.2064226242 0.20554547942 0.20420794074 0.2025133296 0.2006144174 0.19870606904 0.19701374282 
0.19577789034 0.19523444027 0.1955921829 0.19700921043 0.19957219977 0.20328306315 0.2080562639 0.21372718107 0.22006896777 
0.22681397853 0.23367630274 0.24037329447 0.24664513495 0.25227190108 0.25708746758 0.26098924136 0.26394258177 0.26597900463 
0.2671879362 0.26770276784 0.26768302587 0.26729528181 0.26669562815 0.26601592208 0.26535467888 0.26477200518 0.26428702462 
0.26387635911 0.26347330572 0.26296872139 0.2622154097 0.26103744539 0.25924450422 0.25664958776 0.25308731657 0.24842962128 
0.24259616876 0.23555796664 0.22733398865 0.2179820597 0.20758633661 0.19624424741 0.18405552542 0.17111502048 0.15750960356 
0.14331823387 0.12861360914 0.11346392857 0.097933938122 0.082085184433 0.065975913237 0.04966115035 0.03319325851 0.016622888943 
8.0141238987e-16 
_area 1 100 double
0 0.0006807549104 0.0027021656236 0.0060000315618 0.010463094391 0.015930665672 0.022195833279 0.029016849003 0.036135793366 
0.043300249274 0.050282277322 0.056890005963 0.062970015534 0.068402147918 0.073091018727 0.076959326549 0.079946820551 0.082016198439 
0.083164565869 0.083437547681 0.082942881479 0.081860630435 0.080447994499 0.079044757428 0.078109066375 0.077957853296 0.07854428876 
0.079837578255 0.081778770066 0.084265201319 0.087159888035 0.090300385726 0.093503862679 0.096576504421 0.099330923329 0.10160853491 
0.10330539807 0.10439510169 0.10492397155 0.10496756008 0.10460945682 0.10395963807 0.10316684821 0.10242327795 0.10197210857 
0.10210682397 0.10311608161 0.10517465139 0.10834345194 0.11264971929 0.1181103071 0.1247088137 0.1323610256 0.14088904495 
0.15001338693 0.15936281105 0.16850003114 0.17696308493 0.18431991644 0.1902281884 0.19448790409 0.19707290642 0.19812850116 
0.19792875333 0.19680291466 0.19505933395 0.19293537906 0.19058135474 0.18807132417 0.18543055376 0.18266646037 0.17978930088 
0.17681504248 0.17375208671 0.17058026979 0.16723189605 0.16358178849 0.15945110674 0.15462935214 0.1489156977 0.14217111699 
0.13436266582 0.1255807147 0.11602083494 0.1059371015 0.095585053872 0.085176501205 0.07486296188 0.064750420912 0.054931837702 
0.045516343332 0.036640265993 0.028458375729 0.021123873123 0.014768279062 0.0094892088681 0.0053486087512 0.0023792713274 0.0005949980172 
6.269067799e-17 
