# vtk DataFile Version 5.1
vtk output
ASCII
DATASET POLYDATA
POINTS 100 float
-0.123451 0.0103507 0.71421 -0.123151 0.0101867 0.714178 -0.122361 0.00984437 0.714114 
-0.121131 0.00936917 0.713939 -0.119529 0.00883273 0.713529 -0.11764 0.00832598 0.712726 
-0.115541 0.00795066 0.711353 -0.113296 0.0078099 0.709228 -0.110939 0.00799875 0.706179 
-0.108468 0.00859552 0.702059 -0.10584 0.00965481 0.696754 -0.102972 0.0112029 0.690192 
-0.099752 0.0132356 0.682341 -0.0960478 0.0157195 0.67321 -0.0917241 0.0185951 0.662843 
-0.0866577 0.0217828 0.651312 -0.0807525 0.0251899 0.638704 -0.0739519 0.0287193 0.625116 
-0.0662451 0.0322769 0.610644 -0.0576692 0.0357788 0.595379 -0.0483045 0.0391572 0.579399 
-0.0382648 0.0423629 0.562768 -0.0276843 0.045367 0.545538 -0.016702 0.0481586 0.527747 
-0.00544701 0.0507419 0.509423 0.00597464 0.0531304 0.490584 0.0174878 0.055341 0.471245 
0.0290514 0.057388 0.45141 0.0406547 0.0592769 0.431083 0.052309 0.0610013 0.410257 
0.0640337 0.06254 0.388921 0.07584 0.0638572 0.367055 0.0877151 0.0649054 0.344634 
0.0996066 0.0656293 0.321626 0.111413 0.0659723 0.297999 0.122979 0.0658832 0.273725 
0.134097 0.065323 0.248786 0.14452 0.0642716 0.223179 0.153972 0.062732 0.196928 
0.162176 0.060733 0.170085 0.168872 0.0583293 0.142736 0.173841 0.0555992 0.114998 
0.176928 0.0526392 0.0870184 0.178056 0.0495578 0.0589681 0.177236 0.046467 0.0310309 
0.174564 0.0434742 0.00339219 0.170219 0.0406745 -0.0237736 0.164442 0.0381435 -0.0503154 
0.157522 0.0359331 -0.0761151 0.149768 0.0340689 -0.101095 0.141483 0.032551 -0.12522 
0.132945 0.031356 -0.148498 0.124384 0.0304427 -0.170969 0.11597 0.0297575 -0.1927 
0.107804 0.0292421 -0.213772 0.0999224 0.0288399 -0.234266 0.0923014 0.0285024 -0.254251 
0.0848698 0.0281933 -0.273775 0.0775262 0.0278914 -0.292859 0.070156 0.0275908 -0.311495 
0.0626492 0.0272995 -0.329648 0.0549154 0.0270357 -0.347267 0.0468951 0.0268235 -0.364292 
0.038566 0.0266878 -0.38067 0.0299448 0.0266493 -0.396361 0.0210836 0.0267204 -0.411357 
0.0120638 0.0269028 -0.425681 0.00298613 0.0271859 -0.439393 -0.00603985 0.0275481 -0.45259 
-0.0149058 0.0279587 -0.465393 -0.0235138 0.0283821 -0.477936 -0.0317825 0.0287817 -0.490356 
-0.0396507 0.0291252 -0.502773 -0.0470785 0.0293879 -0.515276 -0.0540453 0.0295564 -0.527913 
-0.0605459 0.02963 -0.540682 -0.0665859 0.0296206 -0.553529 -0.0721767 0.0295512 -0.566355 
-0.0773307 0.0294528 -0.579019 -0.0820583 0.02936 -0.591359 -0.0863659 0.0293066 -0.603199 
-0.0902557 0.0293214 -0.614376 -0.0937268 0.0294241 -0.624748 -0.0967775 0.0296231 -0.634208 
-0.0994082 0.0299143 -0.642696 -0.101624 0.030282 -0.650196 -0.103436 0.030701 -0.656739 
-0.104865 0.0311397 -0.662393 -0.10594 0.031565 -0.667252 -0.106698 0.0319457 -0.671426 
-0.107184 0.0322573 -0.675023 -0.107444 0.0324843 -0.678142 -0.10753 0.0326224 -0.680862 
-0.10749 0.0326787 -0.683235 -0.10737 0.0326699 -0.685289 -0.107211 0.0326202 -0.687027 
-0.107047 0.0325573 -0.688434 -0.106907 0.0325084 -0.689489 -0.106809 0.0324965 -0.690164 
-0.106766 0.0325369 -0.69044 
LINES 2 100
OFFSETS vtktypeint64
0 100 
CONNECTIVITY vtktypeint64
0 1 2 3 4 5 6 7 8 
9 10 11 12 13 14 15 16 17 
18 19 20 21 22 23 24 25 26 
27 28 29 30 31 32 33 34 35 
36 37 38 39 40 41 42 43 44 
45 46 47 48 49 50 51 52 53 
54 55 56 57 58 59 60 61 62 
63 64 65 66 67 68 69 70 71 
72 73 74 75 76 77 78 79 80 
81 82 83 84 85 86 87 88 89 
90 91 92 93 94 95 96 97 98 
99 
POINT_DATA 100
FIELD FieldData 3
_theta 1 100 double
0 0.031733259127 0.063466518254 0.095199777382 0.12693303651 0.15866629564 0.19039955476 0.22213281389 0.25386607302 
0.28559933214 0.31733259127 0.3490658504 0.38079910953 0.41253236865 0.44426562778 0.47599888691 0.50773214603 0.53946540516 
0.57119866429 0.60293192342 0.63466518254 0.66639844167 0.6981317008 0.72986495992 0.76159821905 0.79333147818 0.82506473731 
0.85679799643 0.88853125556 0.92026451469 0.95199777382 0.98373103294 1.0154642921 1.0471975512 1.0789308103 1.1106640695 
1.1423973286 1.1741305877 1.2058638468 1.237597106 1.2693303651 1.3010636242 1.3327968833 1.3645301425 1.3962634016 
1.4279966607 1.4597299198 1.491463179 1.5231964381 1.5549296972 1.5866629564 1.6183962155 1.6501294746 1.6818627337 
1.7135959929 1.745329252 1.7770625111 1.8087957702 1.8405290294 1.8722622885 1.9039955476 1.9357288068 1.9674620659 
1.999195325 2.0309285841 2.0626618433 2.0943951024 2.1261283615 2.1578616206 2.1895948798 2.2213281389 2.253061398 
2.2847946572 2.3165279163 2.3482611754 2.3799944345 2.4117276937 2.4434609528 2.4751942119 2.506927471 2.5386607302 
2.5703939893 2.6021272484 2.6338605076 2.6655937667 2.6973270258 2.7290602849 2.7607935441 2.7925268032 2.8242600623 
2.8559933214 2.8877265806 2.9194598397 2.9511930988 2.982926358 3.0146596171 3.0463928762 3.0781261353 3.1098593945 
3.1415926536 
_radius 1 100 double
5.5590241647e-16 0.016191211929 0.032351502574 0.048434487536 0.064371639667 0.080066137988 0.095391593177 0.11019584952 0.12430932194 
0.13755677663 0.14977108807 0.16080729052 0.1705552237 0.17894929148 0.18597430397 0.19166697671 0.19611327469 0.19944224363 
0.20181714384 0.20342458186 0.20446205902 0.20512415918 0.20558771354 0.20599681785 0.20644941504 0.20698790524 0.20759638679 
0.2082063158 0.20871068575 0.20898479932 0.20891002348 0.2083960639 0.20739744272 0.20592124232 0.20402607884 0.20181574611 
0.19943215489 0.19704943349 0.19486710245 0.19309907704 0.1919574308 0.19163303463 0.19227701464 0.19398650704 0.19679625889 
0.20067607732 0.20553387472 0.21122416385 0.21756118325 0.2243347284 0.23132636031 0.23832425933 0.24513588852 0.25159813192 
0.25758458571 0.26300952551 0.26782808397 0.27203249293 0.27564480949 0.27870715805 0.28127095109 0.28338664724 0.28509536418 
0.2864232227 0.28737882338 0.28795384162 0.28812636961 0.28786631629 0.28714192034 0.28592629851 0.28420298151 0.28196956272 
0.27923883474 0.27603705571 0.27239927939 0.26836206904 0.26395444433 0.25918851839 0.25405175416 0.24850283191 0.24247259357 
0.23587046842 0.22859549032 0.22054991107 0.21165284626 0.20185148946 0.19112809406 0.17950190345 0.16702623285 0.15378174266 
0.13986744171 0.12539106816 0.11046026588 0.095175533732 0.079625426328 0.063884051135 0.048010610139 0.032050598779 0.016038267678 
5.5559880622e-16 
_area 1 100 double
0 0.00049739956543 0.0020321628591 0.0047060677526 0.0086211762675 0.013820705547 0.020248617755 0.027733582358 0.035997589015 
0.044686180998 0.053413123941 0.061808165999 0.069554854441 0.076408849751 0.082196464335 0.086803714889 0.090169846766 0.092292986875 
0.093245562708 0.093191387002 0.092396771825 0.09122847849 0.090114894567 0.089429232857 0.089375558228 0.090004786128 0.091238422096 
0.092868120726 0.094602424066 0.096146227989 0.097271785149 0.097861148959 0.097912457831 0.097512084634 0.096794869805 0.095934746138 
0.095174570144 0.09478956339 0.094924137712 0.095627486698 0.096992482158 0.099153237526 0.10208590444 0.10568278179 0.10992112899 
0.1148419115 0.12051371935 0.12699342693 0.13428409098 0.14230696675 0.15089920005 0.15983357084 0.16884896472 0.17768193248 
0.18609336222 0.1938863439 0.20091280392 0.20706913857 0.21228487765 0.21651160561 0.21972001617 0.22191133104 0.22315404297 
0.22368919126 0.22375906206 0.2232690745 0.22217109915 0.22043656867 0.21802556666 0.21488175633 0.21094782362 0.20620035794 
0.2006849039 0.19452732836 0.18791246946 0.18104091465 0.17407916752 0.16711265186 0.16011656707 0.15296136332 0.14545513521 
0.13740541743 0.12867591521 0.11922276648 0.10910676344 0.098484174445 0.087580832779 0.076655520252 0.06596069126 0.055710305004 
0.046063702415 0.037129165605 0.028982312094 0.021688230162 0.015316870766 0.0099472272289 0.0056621195404 0.0025385131661 0.00063800533791 
7.8062556419e-18 
