# vtk DataFile Version 5.1
vtk output
ASCII
DATASET POLYDATA
POINTS 100 float
-0.0986441 -0.0707406 0.812377 -0.0986785 -0.0706761 0.812191 -0.0987997 -0.0702458 0.811528 
-0.0990127 -0.0694336 0.810342 -0.0993225 -0.0682168 0.808562 -0.0997292 -0.0665691 0.806105 
-0.100223 -0.0644646 0.802885 -0.100777 -0.0618819 0.798825 -0.101345 -0.0588077 0.793868 
-0.101858 -0.05524 0.78798 -0.102223 -0.0511899 0.781156 -0.102325 -0.0466826 0.773418 
-0.102035 -0.0417561 0.764807 -0.101215 -0.0364597 0.755379 -0.0997278 -0.0308512 0.74519 
-0.0974478 -0.0249932 0.73429 -0.0942697 -0.0189499 0.722711 -0.090117 -0.012784 0.710462 
-0.0849485 -0.00655437 0.697527 -0.0787612 -0.000314715 0.683868 -0.0715908 0.00588638 0.66943 
-0.0635087 0.0120046 0.654148 -0.0546161 0.017998 0.637961 -0.045037 0.0238247 0.62082 
-0.0349088 0.0294406 0.602697 -0.0243737 0.0347973 0.583591 -0.0135703 0.0398414 0.563528 
-0.00262728 0.0445142 0.542558 0.00834109 0.0487536 0.520751 0.019237 0.052497 0.498182 
0.0299786 0.0556854 0.474925 0.0404972 0.0582681 0.451037 0.0507338 0.0602083 0.426554 
0.0606333 0.0614872 0.401482 0.0701406 0.0621084 0.375799 0.0791958 0.0621 0.349465 
0.0877315 0.0615145 0.322422 0.0956721 0.0604278 0.294617 0.102934 0.0589344 0.266016 
0.10943 0.0571423 0.236614 0.115072 0.0551651 0.206454 0.119775 0.0531152 0.175632 
0.123468 0.0510947 0.144298 0.126092 0.0491894 0.112651 0.127612 0.0474629 0.080932 
0.128016 0.0459533 0.0493996 0.127318 0.0446722 0.0183146 0.125557 0.0436066 -0.0120837 
0.1228 0.0427228 -0.0415972 0.119129 0.0419724 -0.0700855 0.114648 0.0412995 -0.0974753 
0.10947 0.040649 -0.123763 0.103712 0.0399736 -0.14901 0.0974942 0.0392404 -0.173329 
0.0909281 0.0384357 -0.196866 0.0841161 0.037567 -0.219781 0.077146 0.0366629 -0.242222 
0.0700883 0.0357705 -0.264312 0.0629943 0.0349504 -0.286125 0.0558957 0.0342701 -0.307689 
0.0488049 0.0337965 -0.328975 0.041717 0.0335884 -0.349913 0.0346125 0.0336896 -0.370398 
0.0274613 0.0341232 -0.390314 0.0202278 0.0348886 -0.409549 0.0128759 0.0359599 -0.428016 
0.00537582 0.0372878 -0.445669 -0.00229078 0.0388028 -0.462509 -0.0101247 0.0404214 -0.478593 
-0.0181052 0.0420527 -0.494021 -0.0261865 0.043606 -0.508931 -0.0342975 0.0449983 -0.52348 
-0.0423424 0.0461608 -0.537823 -0.0502051 0.0470439 -0.552097 -0.0577552 0.0476204 -0.566398 
-0.0648563 0.0478861 -0.580776 -0.0713756 0.047859 -0.595225 -0.0771947 0.0475757 -0.609684 
-0.0822196 0.0470873 -0.624046 -0.0863893 0.0464531 -0.638174 -0.089683 0.0457353 -0.651918 
-0.0921229 0.0449929 -0.66513 -0.0937748 0.0442775 -0.677686 -0.0947434 0.0436288 -0.689501 
-0.0951651 0.0430737 -0.700529 -0.0951971 0.042625 -0.710774 -0.0950046 0.0422834 -0.720278 
-0.0947471 0.0420388 -0.729111 -0.0945647 0.0418743 -0.737357 -0.0945672 0.0417692 -0.745098 
-0.0948247 0.0417028 -0.752393 -0.0953639 0.041657 -0.759271 -0.0961673 0.0416186 -0.765717 
-0.0971777 0.0415802 -0.771675 -0.0983066 0.0415405 -0.77705 -0.0994457 0.0415033 -0.781721 
-0.10048 0.0414757 -0.785551 -0.101303 0.0414664 -0.788411 -0.101828 0.0414834 -0.790195 
-0.101997 0.0415322 -0.790828 
LINES 2 100
OFFSETS vtktypeint64
0 100 
CONNECTIVITY vtktypeint64
0 1 2 3 4 5 6 7 8 
9 10 11 12 13 14 15 16 17 
18 19 20 21 22 23 24 25 26 
27 28 29 30 31 32 33 34 35 
36 37 38 39 40 41 42 43 44 
45 46 47 48 49 50 51 52 53 
54 55 56 57 58 59 60 61 62 
63 64 65 66 67 68 69 70 71 
72 73 74 75 76 77 78 79 80 
81 82 83 84 85 86 87 88 89 
90 91 92 93 94 95 96 97 98 
99 
POINT_DATA 100
FIELD FieldData 3
_theta 1 100 double
0 0.031733259127 0.063466518254 0.095199777382 0.12693303651 0.15866629564 0.19039955476 0.22213281389 0.25386607302 
0.28559933214 0.31733259127 0.3490658504 0.38079910953 0.41253236865 0.44426562778 0.47599888691 0.50773214603 0.53946540516 
0.57119866429 0.60293192342 0.63466518254 0.66639844167 0.6981317008 0.72986495992 0.76159821905 0.79333147818 0.82506473731 
0.85679799643 0.88853125556 0.92026451469 0.95199777382 0.98373103294 1.0154642921 1.0471975512 1.0789308103 1.1106640695 
1.1423973286 1.1741305877 1.2058638468 1.237597106 1.2693303651 1.3010636242 1.3327968833 1.3645301425 1.3962634016 
1.4279966607 1.4597299198 1.491463179 1.5231964381 1.5549296972 1.5866629564 1.6183962155 1.6501294746 1.6818627337 
1.7135959929 1.745329252 1.7770625111 1.8087957702 1.8405290294 1.8722622885 1.9039955476 1.9357288068 1.9674620659 
1.999195325 2.0309285841 2.0626618433 2.0943951024 2.1261283615 2.1578616206 2.1895948798 2.2213281389 2.253061398 
2.2847946572 2.3165279163 2.3482611754 2.3799944345 2.4117276937 2.4434609528 2.4751942119 2.506927471 2.5386607302 
2.5703939893 2.6021272484 2.6338605076 2.6655937667 2.6973270258 2.7290602849 2.7607935441 2.7925268032 2.8242600623 
2.8559933214 2.8877265806 2.9194598397 2.9511930988 2.982926358 3.0146596171 3.0463928762 3.0781261353 3.1098593945 
3.1415926536 
_radius 1 100 double
1.3340734094e-15 0.015101580331 0.03007141374 0.044779406971 0.059114660173 0.072991383696 0.086350463585 0.099156216479 0.11138874096 
0.12303322782 0.13406841461 0.14445677809 0.15413884448 0.16303316316 0.17104227077 0.178063727 0.18400434714 0.18879525755 
0.19240537685 0.19485129198 0.19620212657 0.19657874977 0.19614741226 0.1951085079 0.19368158327 0.19208796769 0.19053256007 
0.18918648124 0.18817250764 0.18755533458 0.18733850596 0.18746898047 0.18784875363 0.18835136568 0.18884066863 0.18919022918 
0.18930243028 0.1891250967 0.18866199976 0.18797428251 0.1871723843 0.18640081241 0.18581980118 0.18558767229 0.18584586702 
0.18670689245 0.18824527203 0.1904923761 0.1934358724 0.19702308986 0.20116649981 0.20575014122 0.21063741839 0.21568139554 
0.22073750813 0.225676587 0.23039531812 0.23482225163 0.23891889308 0.24267626088 0.24610772596 0.24923931348 0.25209896474 
0.25470639457 0.25706506177 0.25915741639 0.2609440642 0.26236687064 0.26335539415 0.26383549093 0.26373857357 0.26300991986 
0.26161464747 0.25954045495 0.25679686464 0.25341132323 0.24942297907 0.24487519978 0.23980793269 0.23425089645 0.22821838823 
0.22170626142 0.21469141758 0.20713395344 0.19898185243 0.19017776478 0.18066703033 0.17040581407 0.15936818406 0.14755118202 
0.13497730289 0.12169416707 0.10777147123 0.093295580484 0.078362445561 0.063069892394 0.047510613662 0.031767213931 0.015910308967 
5.2944204811e-16 
_area 1 100 double
0 0.00063888128497 0.0025280104477 0.0055880873688 0.0096970664554 0.014703073147 0.020438468333 0.026732331738 0.033419409689 
0.040344445719 0.047361405722 0.054327870254 0.061096228402 0.067505078407 0.073375603809 0.078517115395 0.082742680829 0.08589191693 
0.087856320857 0.088602842097 0.088192054116 0.086787727611 0.084655224948 0.082145932677 0.07965947857 0.077565660996 0.076101623986 
0.075345339529 0.075279481079 0.075843204544 0.076949504466 0.078489280365 0.080329528215 0.082308240766 0.084232253233 0.085891378327 
0.087105827778 0.087805065866 0.08812148707 0.088383988178 0.088705335491 0.088970993472 0.089246677912 0.089874192225 0.091722428655 
0.094659645005 0.098021079812 0.10159665675 0.10535854009 0.10955961141 0.11416066695 0.11902192031 0.12411274745 0.12946053154 
0.13501716083 0.14068914554 0.14633820878 0.15177704171 0.15679114667 0.16118110682 0.16479693565 0.16755228432 0.16942515391 
0.17044749608 0.17068984239 0.17025544041 0.16926275967 0.16778100021 0.16580644191 0.16330526818 0.1602514876 0.15665133543 
0.15255135344 0.14803148188 0.14318674679 0.13810494616 0.13284948979 0.12745249938 0.12191728401 0.1162261315 0.11034942135 
0.1042536506 0.097907671879 0.091287576803 0.084381112832 0.077192333987 0.069746537965 0.06209493764 0.054318256048 0.046528277096 
0.038866083511 0.031495605338 0.024591858293 0.018325075274 0.012844108233 0.0082637158657 0.0046596183104 0.0020724387677 0.00051810963087 
3.6645192951e-17 
