# vtk DataFile Version 5.1
vtk output
ASCII
DATASET POLYDATA
POINTS 100 float
-0.0804219 -0.0272165 0.769269 -0.0800301 -0.0273099 0.769221 -0.0789232 -0.0273763 0.769077 
-0.0771706 -0.0273734 0.768758 -0.0748769 -0.0272362 0.768146 -0.0721685 -0.0268839 0.767088 
-0.0691769 -0.0262277 0.765418 -0.0660214 -0.0251791 0.762966 -0.0627942 -0.0236581 0.759576 
-0.0595473 -0.0216005 0.755119 -0.0562868 -0.018963 0.749499 -0.0529713 -0.0157263 0.742658 
-0.0495176 -0.0118957 0.734579 -0.0458122 -0.00750003 0.725274 -0.0417261 -0.00258825 0.714786 
-0.0371324 0.00277464 0.70317 -0.0319243 0.00851234 0.69049 -0.0260304 0.0145417 0.676807 
-0.0194261 0.0207763 0.662171 -0.0121394 0.0271292 0.646622 -0.00425056 0.0335141 0.630181 
0.00411456 0.0398455 0.61286 0.0127968 0.0460376 0.594664 0.0216198 0.0520041 0.575593 
0.0304079 0.0576564 0.555655 0.0390037 0.0629038 0.534865 0.0472838 0.0676545 0.513253 
0.0551692 0.0718176 0.490859 0.0626309 0.0753066 0.467735 0.0696888 0.078044 0.443943 
0.0764042 0.0799666 0.41954 0.0828679 0.0810303 0.394583 0.0891834 0.0812147 0.369115 
0.0954494 0.0805262 0.343164 0.101742 0.0789995 0.316743 0.1081 0.0766966 0.289852 
0.114514 0.0737038 0.262479 0.12092 0.0701272 0.234615 0.127203 0.066086 0.206258 
0.1332 0.0617056 0.177426 0.138718 0.0571106 0.148166 0.143545 0.0524177 0.118556 
0.147469 0.0477313 0.0887158 0.150299 0.0431395 0.0587982 0.15188 0.0387134 0.0289863 
0.152108 0.0345071 -0.000518147 0.150934 0.0305608 -0.0295078 0.148374 0.0269037 -0.0577856 
0.144501 0.0235579 -0.0851795 0.139442 0.0205431 -0.111557 0.133366 0.0178784 -0.136834 
0.126469 0.0155852 -0.160981 0.11896 0.0136867 -0.184025 0.111046 0.0122067 -0.206039 
0.102922 0.0111674 -0.227139 0.0947547 0.0105858 -0.247465 0.0866807 0.01047 -0.267167 
0.0787998 0.0108163 -0.286389 0.0711762 0.0116069 -0.305257 0.0638404 0.0128093 -0.323865 
0.0567941 0.014377 -0.342269 0.0500168 0.0162525 -0.360487 0.0434724 0.0183713 -0.3785 
0.0371159 0.0206665 -0.396263 0.0308994 0.0230746 -0.413707 0.0247772 0.0255399 -0.430762 
0.0187095 0.0280187 -0.447358 0.0126648 0.0304811 -0.463442 0.0066215 0.0329119 -0.478982 
0.000568624 0.0353089 -0.493971 -0.00549421 0.0376798 -0.508426 -0.0115569 0.040038 -0.522385 
-0.0175993 0.0423978 -0.535899 -0.0235918 0.0447699 -0.549024 -0.0294958 0.0471573 -0.561815 
-0.0352651 0.0495532 -0.574314 -0.0408467 0.0519407 -0.586545 -0.046183 0.0542934 -0.598516 
-0.0512136 0.0565794 -0.610212 -0.0558785 0.0587645 -0.621605 -0.0601211 0.060818 -0.632654 
-0.0638914 0.0627169 -0.643314 -0.0671496 0.0644495 -0.653543 -0.0698685 0.0660186 -0.663307 
-0.0720362 0.0674408 -0.672584 -0.0736575 0.0687457 -0.681365 -0.0747539 0.0699715 -0.689656 
-0.0753633 0.0711606 -0.69747 -0.0755381 0.0723527 -0.704824 -0.0753424 0.0735797 -0.711731 
-0.0748491 0.0748597 -0.718199 -0.0741361 0.0761937 -0.724216 -0.0732827 0.0775639 -0.729758 
-0.072366 0.0789346 -0.73478 -0.0714579 0.0802552 -0.739223 -0.0706226 0.0814659 -0.743019 
-0.0699146 0.0825037 -0.746094 -0.0693773 0.0833101 -0.748379 -0.069042 0.0838377 -0.749817 
-0.0689272 0.0840556 -0.750371 
LINES 2 100
OFFSETS vtktypeint64
0 100 
CONNECTIVITY vtktypeint64
0 1 2 3 4 5 6 7 8 
9 10 11 12 13 14 15 16 17 
18 19 20 21 22 23 24 25 26 
27 28 29 30 31 32 33 34 35 
36 37 38 39 40 41 42 43 44 
45 46 47 48 49 50 51 52 53 
54 55 56 57 58 59 60 61 62 
63 64 65 66 67 68 69 70 71 
72 73 74 75 76 77 78 79 80 
81 82 83 84 85 86 87 88 89 
90 91 92 93 94 95 96 97 98 
99 
POINT_DATA 100
FIELD FieldData 3
_theta 1 100 double
0 0.031733259127 0.063466518254 0.095199777382 0.12693303651 0.15866629564 0.19039955476 0.22213281389 0.25386607302 
0.28559933214 0.31733259127 0.3490658504 0.38079910953 0.41253236865 0.44426562778 0.47599888691 0.50773214603 0.53946540516 
0.57119866429 0.60293192342 0.63466518254 0.66639844167 0.6981317008 0.72986495992 0.76159821905 0.79333147818 0.82506473731 
0.85679799643 0.88853125556 0.92026451469 0.95199777382 0.98373103294 1.0154642921 1.0471975512 1.0789308103 1.1106640695 
1.1423973286 1.1741305877 1.2058638468 1.237597106 1.2693303651 1.3010636242 1.3327968833 1.3645301425 1.3962634016 
1.4279966607 1.4597299198 1.491463179 1.5231964381 1.5549296972 1.5866629564 1.6183962155 1.6501294746 1.6818627337 
1.7135959929 1.745329252 1.7770625111 1.8087957702 1.8405290294 1.8722622885 1.9039955476 1.9357288068 1.9674620659 
1.999195325 2.0309285841 2.0626618433 2.0943951024 2.1261283615 2.1578616206 2.1895948798 2.2213281389 2.253061398 
2.2847946572 2.3165279163 2.3482611754 2.3799944345 2.4117276937 2.4434609528 2.4751942119 2.506927471 2.5386607302 
2.5703939893 2.6021272484 2.6338605076 2.6655937667 2.6973270258 2.7290602849 2.7607935441 2.7925268032 2.8242600623 
2.8559933214 2.8877265806 2.9194598397 2.9511930988 2.982926358 3.0146596171 3.0463928762 3.0781261353 3.1098593945 
3.1415926536 
_radius 1 100 double
1.1274368112e-16 0.017132114724 0.03404795485 0.050537895777 0.066408960139 0.08149001422 0.095634217624 0.10871913075 0.12064545194 
0.13133554265 0.1407326879 0.14880160191 0.15553023398 0.16093254307 0.16505156643 0.16796181279 0.1697699017 0.17061263476 
0.17065232488 0.17006990706 0.16905664645 0.16780498725 0.16649861176 0.16530167765 0.16434770479 0.16372939705 0.16349127194 
0.16362696248 0.16408241992 0.16476514551 0.16555820317 0.16633651711 0.16698259584 0.16739983974 0.16752334439 0.16732904774 
0.1668412233 0.16613643763 0.16534085104 0.16461826738 0.16414898149 0.16410409298 0.16462434413 0.16581175013 0.167734421 
0.17043627056 0.17394140863 0.17824843347 0.18331763388 0.18905898389 0.19532819984 0.20193369266 0.20865287174 0.21525412301 
0.22152047891 0.22727138522 0.23237953591 0.23678053433 0.24047420933 0.24351764906 0.24601121861 0.24807982145 0.2498522934 
0.25144194728 0.25293087477 0.25435976938 0.25572400803 0.25697577329 0.25803125923 0.25878150059 0.25910508 0.2588809148 
0.2579995247 0.25637160738 0.25393331073 0.25064817578 0.24650622971 0.24152105077 0.23572574518 0.22916864736 0.22190922709 
0.21401427978 0.20555414975 0.19659861953 0.18721223616 0.17744918233 0.16734821915 0.15692858984 0.14618796189 0.13510339385 
0.12363587249 0.11173820729 0.099365196002 0.086484326007 0.07308512531 0.059185654468 0.044835319707 0.030113896259 0.015127181706 
1.6103862236e-16 
_area 1 100 double
0 0.00072775968737 0.0028764476249 0.0063449610261 0.010973335078 0.016554245711 0.02284656865 0.029588891133 0.036511348272 
0.043345424202 0.049832789647 0.055735065009 0.060845967997 0.065005452244 0.068113033436 0.070136163205 0.07111032508 0.071130209788 
0.070334797875 0.068893038411 0.06700186682 0.064903422076 0.062858518181 0.061027647211 0.059479834095 0.058286236642 0.057535457924 
0.057304148867 0.057610194021 0.058403524915 0.059600951844 0.061121815066 0.062896182419 0.064841784925 0.066852756099 0.068828042907 
0.070680160174 0.072338494981 0.073779237805 0.075066318903 0.076341750906 0.077753958121 0.07938332953 0.081227988577 0.083261036937 
0.085542349741 0.088410728603 0.092375796926 0.097320545611 0.10308292091 0.10956017176 0.11660981312 0.1240311568 0.13157108759 
0.13893555076 0.14581275918 0.15191624367 0.1570358972 0.16107369885 0.16405333247 0.16610928501 0.16746970114 0.16844179933 
0.16932470817 0.17020182709 0.17099695802 0.17161492114 0.17195849053 0.17192192941 0.17139252703 0.17026038126 0.16843179998 
0.1658395062 0.16244408985 0.15822858728 0.15319604618 0.14737573943 0.14083129538 0.13366183835 0.12599473437 0.11797339992 
0.10974352913 0.10143972949 0.093174125252 0.085028833217 0.077053965832 0.069271227311 0.061681482148 0.054274591812 0.047040907128 
0.039984163501 0.03313441988 0.026558218498 0.020362781038 0.014692235682 0.0097159474116 0.0056110221094 0.0025422652668 0.00064306157533 
3.469446952e-18 
