# vtk DataFile Version 5.1
vtk output
ASCII
DATASET POLYDATA
POINTS 100 float
-0.156625 0.0214557 0.711097 -0.156251 0.0213844 0.71086 -0.155162 0.0213498 0.710063 
-0.153424 0.0213815 0.70866 -0.151132 0.0215245 0.706586 -0.148403 0.021834 0.703765 
-0.145351 0.0223688 0.700129 -0.142077 0.0231848 0.695625 -0.138648 0.0243282 0.690229 
-0.135088 0.0258303 0.683952 -0.131373 0.0277033 0.676842 -0.127427 0.0299391 0.668978 
-0.123137 0.032509 0.660462 -0.118362 0.0353666 0.651403 -0.112953 0.0384511 0.641905 
-0.106772 0.0416931 0.632048 -0.0997128 0.0450197 0.621877 -0.0917154 0.0483597 0.611391 
-0.0827796 0.0516481 0.600543 -0.0729676 0.0548297 0.589242 -0.0624011 0.05786 0.577361 
-0.0512512 0.0607058 0.564758 -0.039721 0.0633436 0.551288 -0.0280255 0.0657571 0.536828 
-0.0163689 0.0679346 0.521289 -0.00492357 0.0698653 0.504635 0.0061877 0.0715374 0.486884 
0.016903 0.0729359 0.468116 0.0272252 0.074042 0.448456 0.0372183 0.0748338 0.428069 
0.0469951 0.0752882 0.407134 0.0566995 0.0753828 0.385829 0.0664836 0.0750994 0.364303 
0.0764837 0.0744264 0.342665 0.0867974 0.0733618 0.320966 0.0974638 0.0719142 0.299198 
0.108451 0.0701036 0.277294 0.11965 0.0679607 0.255139 0.130878 0.065525 0.23259 
0.141889 0.0628425 0.209493 0.152392 0.0599623 0.185708 0.162072 0.0569335 0.161134 
0.170618 0.0538023 0.135725 0.177743 0.0506101 0.109499 0.183212 0.0473923 0.0825494 
0.186856 0.044178 0.0550358 0.188581 0.0409913 0.0271748 0.188373 0.0378526 -0.00077835 
0.186296 0.0347814 -0.0285512 0.182476 0.0317981 -0.0558774 0.17709 0.0289264 -0.0825189 
0.170345 0.0261942 -0.108285 0.162461 0.0236343 -0.133042 0.15365 0.0212831 -0.156726 
0.144105 0.0191793 -0.179334 0.133988 0.017361 -0.20092 0.123423 0.0158627 -0.221585 
0.112501 0.0147116 -0.241457 0.101281 0.013925 -0.260674 0.0897998 0.0135083 -0.279372 
0.0780836 0.0134534 -0.297671 0.0661557 0.0137394 -0.315662 0.0540476 0.0143338 -0.333409 
0.0418054 0.0151951 -0.350945 0.029493 0.0162767 -0.368278 0.0171914 0.0175303 -0.385398 
0.00499466 0.0189102 -0.402285 -0.00699689 0.0203767 -0.418917 -0.0186858 0.0218984 -0.435273 
-0.0299868 0.0234539 -0.451338 -0.0408355 0.0250314 -0.467104 -0.0511945 0.0266275 -0.482565 
-0.0610578 0.0282449 -0.497713 -0.07045 0.0298889 -0.512532 -0.0794234 0.0315638 -0.526994 
-0.0880505 0.0332695 -0.541051 -0.0964153 0.0349983 -0.55464 -0.104602 0.0367331 -0.567678 
-0.112683 0.0384462 -0.580072 -0.120712 0.0401004 -0.591725 -0.128713 0.0416503 -0.602546 
-0.136678 0.0430455 -0.612458 -0.144565 0.0442345 -0.621411 -0.1523 0.0451691 -0.629385 
-0.159788 0.0458083 -0.636398 -0.166916 0.0461226 -0.642498 -0.173568 0.0460969 -0.647768 
-0.179635 0.0457328 -0.652311 -0.185027 0.0450494 -0.656241 -0.18968 0.0440828 -0.659674 
-0.193565 0.0428847 -0.662712 -0.196688 0.0415196 -0.665438 -0.199093 0.0400613 -0.667907 
-0.200852 0.0385891 -0.670144 -0.202063 0.0371829 -0.672146 -0.202836 0.0359196 -0.673888 
-0.203283 0.0348683 -0.675329 -0.203506 0.034087 -0.676421 -0.203587 0.0336199 -0.677124 
-0.203579 0.0334943 -0.677408 
LINES 2 100
OFFSETS vtktypeint64
0 100 
CONNECTIVITY vtktypeint64
0 1 2 3 4 5 6 7 8 
9 10 11 12 13 14 15 16 17 
18 19 20 21 22 23 24 25 26 
27 28 29 30 31 32 33 34 35 
36 37 38 39 40 41 42 43 44 
45 46 47 48 49 50 51 52 53 
54 55 56 57 58 59 60 61 62 
63 64 65 66 67 68 69 70 71 
72 73 74 75 76 77 78 79 80 
81 82 83 84 85 86 87 88 89 
90 91 92 93 94 95 96 97 98 
99 
POINT_DATA 100
FIELD FieldData 3
_theta 1 100 double
0 0.031733259127 0.063466518254 0.095199777382 0.12693303651 0.15866629564 0.19039955476 0.22213281389 0.25386607302 
0.28559933214 0.31733259127 0.3490658504 0.38079910953 0.41253236865 0.44426562778 0.47599888691 0.50773214603 0.53946540516 
0.57119866429 0.60293192342 0.63466518254 0.66639844167 0.6981317008 0.72986495992 0.76159821905 0.79333147818 0.82506473731 
0.85679799643 0.88853125556 0.92026451469 0.95199777382 0.98373103294 1.0154642921 1.0471975512 1.0789308103 1.1106640695 
1.1423973286 1.1741305877 1.2058638468 1.237597106 1.2693303651 1.3010636242 1.3327968833 1.3645301425 1.3962634016 
1.4279966607 1.4597299198 1.491463179 1.5231964381 1.5549296972 1.5866629564 1.6183962155 1.6501294746 1.6818627337 
1.7135959929 1.745329252 1.7770625111 1.8087957702 1.8405290294 1.8722622885 1.9039955476 1.9357288068 1.9674620659 
1.999195325 2.0309285841 2.0626618433 2.0943951024 2.1261283615 2.1578616206 2.1895948798 2.2213281389 2.253061398 
2.2847946572 2.3165279163 2.3482611754 2.3799944345 2.4117276937 2.4434609528 2.4751942119 2.506927471 2.5386607302 
2.5703939893 2.6021272484 2.6338605076 2.6655937667 2.6973270258 2.7290602849 2.7607935441 2.7925268032 2.8242600623 
2.8559933214 2.8877265806 2.9194598397 2.9511930988 2.982926358 3.0146596171 3.0463928762 3.0781261353 3.1098593945 
3.1415926536 
_radius 1 100 double
1.2465747521e-15 0.016583103303 0.032986715725 0.049046053266 0.064628027946 0.079638673417 0.094022622833 0.10775506772 0.12082838145 
0.13323683906 0.14496322035 0.15597038359 0.16619935194 0.17557363602 0.18400808623 0.19141994882 0.19774000105 0.2029223645 
0.20695242061 0.20985281951 0.21168768152 0.21256477251 0.21263492681 0.21208761707 0.21114155058 0.21002957131 0.20897798289 
0.20818177385 0.20777919818 0.20783133293 0.20831300913 0.20911881516 0.21008246575 0.21100398684 0.21167906954 0.2119265476 
0.21161125803 0.21066049853 0.20907327303 0.20692241318 0.20435014986 0.20155770458 0.19878933939 0.19631160244 0.19438942187 
0.19326163677 0.19311859692 0.19408358901 0.1961991077 0.19941912533 0.20360908004 0.20855530167 0.2139843551 0.21959047568 
0.22506699735 0.23013670118 0.234576737 0.23823552095 0.24104079707 0.24299929527 0.24418908172 0.24474600346 0.24484580027 
0.24468359726 0.24445260161 0.24432388135 0.24442910298 0.24484802445 0.24560222889 0.24665580831 0.24792244021 0.24927697712 
0.25056896289 0.25163573335 0.25231368417 0.25244731887 0.25189637203 0.25054146845 0.24828849417 0.24507134635 0.24085233205 
0.23561953062 0.22938105543 0.22215717249 0.21397220301 0.2048485056 0.19480425293 0.18385536039 0.17202045504 0.15932686687 
0.14581554683 0.13154342262 0.11658266627 0.10101732121 0.084938434317 0.068439086248 0.051610498018 0.034539859556 0.017309926678 
5.2847354875e-16 
_area 1 100 double
0 0.00064598459275 0.0025541322094 0.0056407964343 0.0097834983171 0.014839430204 0.020660910883 0.027102825121 0.03402007308 
0.041257080292 0.048635799289 0.055950648809 0.062975780859 0.06948333345 0.075265523557 0.080152002395 0.084017412696 0.086780599732 
0.088402183416 0.088886987642 0.088292374475 0.086737826936 0.084409497042 0.081556184906 0.078479214387 0.075529568153 0.073214913887 
0.071958346294 0.071976465944 0.073462771282 0.076263232003 0.080121177932 0.084665922542 0.089486749442 0.094187321289 0.098415713037 
0.10187891005 0.10435771765 0.10574007153 0.10606824621 0.1055347453 0.10440046037 0.10299254522 0.10175468618 0.10124176724 
0.10189316604 0.1037896152 0.10682985787 0.1108592892 0.11573152503 0.12133542219 0.12754001391 0.13414948933 0.14089504756 
0.14745744301 0.15350615685 0.15874100234 0.162925988 0.16591136345 0.16764583104 0.16818035794 0.16765947524 0.16629714055 
0.16434247193 0.16204592146 0.15963429809 0.1572958468 0.15516958652 0.15333374216 0.15179927323 0.15052076438 0.1494224623 
0.14842039589 0.14742373314 0.14631515861 0.14492984371 0.14305905186 0.14048429827 0.1370210011 0.13254962147 0.12703000975 
0.12050506231 0.11309622502 0.10498685936 0.096391606541 0.08751992757 0.078547968896 0.069606756703 0.06078586776 0.052150443472 
0.043767282773 0.035728169231 0.028158161069 0.021207001105 0.015031333575 0.009776977244 0.0055667640769 0.002494998238 0.00062682778296 
6.8083769737e-17 
