# vtk DataFile Version 5.1
vtk output
ASCII
DATASET POLYDATA
POINTS 100 float
-0.093223 -0.0418722 0.744242 -0.0930172 -0.0418821 0.744348 -0.0924278 -0.0417246 0.744673 
-0.0914875 -0.0413673 0.745088 -0.090245 -0.0407608 0.745394 -0.0887583 -0.0398441 0.745343 
-0.0870853 -0.0385506 0.744664 -0.0852744 -0.0368155 0.743095 -0.0833551 -0.0345831 0.740408 
-0.0813314 -0.0318124 0.736432 -0.0791768 -0.0284818 0.731065 -0.0768337 -0.024592 0.724284 
-0.0742162 -0.0201667 0.716138 -0.0712161 -0.0152509 0.706739 -0.0677126 -0.00990801 0.696239 
-0.0635837 -0.0042152 0.684814 -0.0587189 0.00174186 0.672634 -0.0530313 0.00787433 0.659847 
-0.0464682 0.0140951 0.646559 -0.0390183 0.0203226 0.632828 -0.0307161 0.0264833 0.618656 
-0.0216412 0.0325128 0.604001 -0.0119136 0.0383552 0.588783 -0.00168517 0.0439616 0.572903 
0.00887219 0.0492874 0.556258 0.01958 0.0542898 0.538761 0.0302673 0.0589254 0.520352 
0.0407837 0.0631482 0.501007 0.0510094 0.0669093 0.480744 0.0608632 0.0701577 0.459615 
0.070304 0.0728423 0.437701 0.0793297 0.0749155 0.415098 0.08797 0.0763372 0.391906 
0.0962768 0.0770796 0.368209 0.104311 0.0771315 0.344074 0.11213 0.0765017 0.319536 
0.11977 0.0752215 0.294602 0.127241 0.0733449 0.269257 0.134512 0.0709473 0.24347 
0.141511 0.0681227 0.217208 0.148125 0.064978 0.190451 0.154207 0.0616275 0.163208 
0.159582 0.0581857 0.135521 0.164068 0.0547603 0.107476 0.167483 0.0514459 0.0792015 
0.169669 0.0483192 0.0508602 0.170501 0.0454346 0.0226407 0.169903 0.0428236 -0.00525985 
0.167853 0.0404946 -0.0326528 0.164385 0.0384357 -0.0593752 0.159593 0.0366187 -0.085304 
0.153616 0.035004 -0.110366 0.14663 0.033547 -0.134544 0.138837 0.0322037 -0.157868 
0.130443 0.0309356 -0.180417 0.121645 0.0297147 -0.202297 0.112619 0.0285254 -0.223626 
0.103505 0.0273663 -0.244522 0.0944029 0.0262493 -0.265079 0.0853696 0.0251978 -0.285363 
0.0764196 0.0242437 -0.305396 0.0675324 0.023423 -0.325162 0.0586619 0.0227721 -0.344608 
0.0497475 0.0223236 -0.363654 0.0407264 0.0221026 -0.382208 0.0315451 0.0221245 -0.400178 
0.0221687 0.0223931 -0.417493 0.0125879 0.0229008 -0.434109 0.00282212 0.0236291 -0.450022 
-0.00708076 0.0245506 -0.465265 -0.017048 0.0256314 -0.479912 -0.026988 0.0268339 -0.494061 
-0.0367987 0.0281197 -0.50783 -0.0463757 0.0294523 -0.521334 -0.0556212 0.0307992 -0.534675 
-0.0644509 0.0321334 -0.547924 -0.072799 0.0334342 -0.561114 -0.0806211 0.0346868 -0.574232 
-0.0878948 0.0358823 -0.587219 -0.0946171 0.0370163 -0.599977 -0.100801 0.0380874 -0.612376 
-0.106471 0.0390964 -0.62427 -0.111658 0.0400443 -0.635509 -0.116392 0.0409322 -0.645959 
-0.120702 0.0417597 -0.655507 -0.124611 0.0425256 -0.664077 -0.128138 0.0432278 -0.671631 
-0.131293 0.0438634 -0.678174 -0.134085 0.0444302 -0.683745 -0.13652 0.0449265 -0.688415 
-0.138609 0.0453524 -0.692274 -0.140362 0.0457103 -0.695424 -0.141799 0.0460044 -0.697969 
-0.142944 0.0462413 -0.700005 -0.143828 0.046429 -0.701615 -0.144482 0.0465766 -0.702869 
-0.144942 0.0466931 -0.703817 -0.145237 0.0467868 -0.704496 -0.145393 0.0468641 -0.704928 
-0.145425 0.0469292 -0.705124 
LINES 2 100
OFFSETS vtktypeint64
0 100 
CONNECTIVITY vtktypeint64
0 1 2 3 4 5 6 7 8 
9 10 11 12 13 14 15 16 17 
18 19 20 21 22 23 24 25 26 
27 28 29 30 31 32 33 34 35 
36 37 38 39 40 41 42 43 44 
45 46 47 48 49 50 51 52 53 
54 55 56 57 58 59 60 61 62 
63 64 65 66 67 68 69 70 71 
72 73 74 75 76 77 78 79 80 
81 82 83 84 85 86 87 88 89 
90 91 92 93 94 95 96 97 98 
99 
POINT_DATA 100
FIELD FieldData 3
_theta 1 100 double
0 0.031733259127 0.063466518254 0.095199777382 0.12693303651 0.15866629564 0.19039955476 0.22213281389 0.25386607302 
0.28559933214 0.31733259127 0.3490658504 0.38079910953 0.41253236865 0.44426562778 0.47599888691 0.50773214603 0.53946540516 
0.57119866429 0.60293192342 0.63466518254 0.66639844167 0.6981317008 0.72986495992 0.76159821905 0.79333147818 0.82506473731 
0.85679799643 0.88853125556 0.92026451469 0.95199777382 0.98373103294 1.0154642921 1.0471975512 1.0789308103 1.1106640695 
1.1423973286 1.1741305877 1.2058638468 1.237597106 1.2693303651 1.3010636242 1.3327968833 1.3645301425 1.3962634016 
1.4279966607 1.4597299198 1.491463179 1.5231964381 1.5549296972 1.5866629564 1.6183962155 1.6501294746 1.6818627337 
1.7135959929 1.745329252 1.7770625111 1.8087957702 1.8405290294 1.8722622885 1.9039955476 1.9357288068 1.9674620659 
1.999195325 2.0309285841 2.0626618433 2.0943951024 2.1261283615 2.1578616206 2.1895948798 2.2213281389 2.253061398 
2.2847946572 2.3165279163 2.3482611754 2.3799944345 2.4117276937 2.4434609528 2.4751942119 2.506927471 2.5386607302 
2.5703939893 2.6021272484 2.6338605076 2.6655937667 2.6973270258 2.7290602849 2.7607935441 2.7925268032 2.8242600623 
2.8559933214 2.8877265806 2.9194598397 2.9511930988 2.982926358 3.0146596171 3.0463928762 3.0781261353 3.1098593945 
3.1415926536 
_radius 1 100 double
5.5684353372e-16 0.017187578546 0.034143687829 0.050647709175 0.066505340337 0.081557762734 0.095686728766 0.10881526377 0.12090436205 
0.13194663597 0.1419582163 0.15097023619 0.15902099778 0.16614954771 0.17239103888 0.17777406537 0.18232016804 0.18604582151 
0.18896719401 0.19110755871 0.19250636454 0.19322795638 0.19336733427 0.19305058999 0.19242874482 0.19166525287 0.19091896843 
0.19032555038 0.18998085539 0.18992969161 0.19016229868 0.19061921295 0.19120321414 0.19179555823 0.19227334195 0.19252566434 
0.19246753107 0.19205136292 0.191276148 0.19019355321 0.18890904738 0.18757572826 0.18638013539 0.1855219759 0.18519162534 
0.18554974263 0.18671265242 0.18874544457 0.19166204796 0.19542901252 0.19996934258 0.20516501336 0.21085990664 0.21686617975 
0.22297565353 0.22897526138 0.23466399329 0.23986856526 0.24445555706 0.24833847197 0.25147901557 0.25388286432 0.25559114534 
0.25666953919 0.25719715425 0.25725702903 0.25692937263 0.25628767349 0.25539690884 0.25431257712 0.2530793282 0.25172856034 
0.25027524904 0.24871501484 0.2470225586 0.24515203417 0.24303916195 0.24060442812 0.23775668951 0.23439676468 0.23042097528 
0.2257249622 0.22020826698 0.21378000837 0.20636550922 0.19791313076 0.18840012081 0.17783619549 0.16626390661 0.1537554943 
0.1404066724 0.12632841017 0.11163808333 0.096451318176 0.080875522724 0.065005646718 0.048922290954 0.032691980417 0.016369236506 
3.0800864214e-16 
_area 1 100 double
0 0.00068443182388 0.0027137889212 0.0060160625956 0.010471416856 0.015914702122 0.022141731361 0.028919466275 0.035998838882 
0.043128211406 0.050065786671 0.056590487428 0.062512305095 0.06768385128 0.072013749974 0.075478971119 0.07812825105 0.08006898813 
0.081458514829 0.082729246877 0.083929814288 0.084809709727 0.085254381218 0.085235655166 0.084791849419 0.084037789841 0.083137211023 
0.082268803649 0.081601266205 0.081288392236 0.081399741445 0.081892638744 0.082629607887 0.083441373714 0.084193671979 0.084823280861 
0.085331232748 0.085754065801 0.086160146232 0.086652734786 0.087314418032 0.088120016366 0.089047396253 0.090440867059 0.092643971833 
0.095238938931 0.097981394654 0.10083883565 0.10388386107 0.10726108761 0.11115841218 0.11575828929 0.12117183907 0.12738289182 
0.13423080091 0.14143181625 0.14862178542 0.15540754738 0.16141975574 0.16636292402 0.17005879731 0.17247506239 0.17373268648 
0.17410662504 0.17404844854 0.17391062762 0.17359112167 0.17293545779 0.17186730642 0.17036632994 0.16845021667 0.16615795229 
0.16353025474 0.16059142571 0.15733847103 0.15374077967 0.14974822166 0.14530169838 0.14034222499 0.13481904388 0.12869809803 
0.12196961333 0.11465212458 0.1067922453 0.098462050372 0.08975603468 0.080787791345 0.071685351182 0.062584819382 0.053623654593 
0.044935959346 0.036651478073 0.028897924095 0.021804181747 0.015501368908 0.010120022614 0.0057836748709 0.0026004628711 0.00065470942019 
5.0334059439e-17 
