# vtk DataFile Version 5.1
vtk output
ASCII
DATASET POLYDATA
POINTS 100 float
-0.100366 -0.038426 0.738872 -0.100388 -0.0385583 0.73886 -0.100496 -0.038765 0.738859 
-0.100607 -0.0389919 0.738795 -0.100591 -0.0391546 0.738552 -0.100294 -0.0391458 0.73798 
-0.0995482 -0.0388453 0.736913 -0.098203 -0.03813 0.735176 -0.096137 -0.0368855 0.732609 
-0.0932742 -0.0350157 0.729073 -0.0895916 -0.0324521 0.724465 -0.0851189 -0.0291591 0.718723 
-0.0799319 -0.0251381 0.711829 -0.0741395 -0.0204269 0.703809 -0.0678664 -0.0150972 0.694725 
-0.0612352 -0.00924857 0.684667 -0.0543486 -0.00300104 0.673741 -0.0472768 0.00351427 0.662054 
-0.0400491 0.0101643 0.649703 -0.0326536 0.0168227 0.636767 -0.0250434 0.0233774 0.623291 
-0.0171483 0.029735 0.60929 -0.00889097 0.0358237 0.594744 -0.000205251 0.041593 0.579605 
0.00894737 0.0470107 0.563801 0.0185643 0.0520582 0.547253 0.0285945 0.0567247 0.529883 
0.0389372 0.0610006 0.511628 0.0494489 0.0648718 0.492452 0.0599559 0.0683154 0.47235 
0.0702718 0.0712977 0.451358 0.0802171 0.0737741 0.42955 0.0896384 0.0756925 0.407031 
0.0984246 0.0769987 0.383933 0.106517 0.077643 0.360399 0.113912 0.0775885 0.33657 
0.120658 0.0768185 0.312572 0.126842 0.0753436 0.288503 0.132575 0.0732053 0.264424 
0.137967 0.0704781 0.240354 0.143112 0.0672668 0.216268 0.148064 0.0637018 0.192108 
0.152825 0.0599302 0.167784 0.157338 0.0561058 0.143198 0.161491 0.0523771 0.118254 
0.165121 0.0488758 0.0928731 0.168032 0.0457067 0.0670145 0.170016 0.0429403 0.0406819 
0.170874 0.0406085 0.0139325 0.170439 0.0387046 -0.013122 0.168593 0.0371872 -0.0403202 
0.165279 0.0359877 -0.0674612 0.160506 0.0350202 -0.0943195 0.154346 0.034194 -0.120662 
0.146927 0.0334247 -0.146269 0.138415 0.0326458 -0.170949 0.128994 0.0318162 -0.194557 
0.118854 0.0309254 -0.217 0.108163 0.0299938 -0.23825 0.0970657 0.0290701 -0.258337 
0.0856673 0.0282234 -0.277342 0.0740371 0.0275343 -0.295391 0.0622122 0.0270833 -0.312634 
0.0502075 0.0269397 -0.329234 0.0380288 0.0271513 -0.345347 0.0256864 0.0277376 -0.361108 
0.013207 0.0286857 -0.376622 0.000642041 0.0299502 -0.391955 -0.0119291 0.0314581 -0.407136 
-0.0244012 0.0331154 -0.422155 -0.0366514 0.0348181 -0.436975 -0.0485507 0.0364625 -0.451537 
-0.0599787 0.0379571 -0.465774 -0.0708375 0.0392312 -0.479619 -0.0810645 0.0402419 -0.493012 
-0.0906397 0.0409772 -0.505911 -0.0995889 0.0414547 -0.518285 -0.107979 0.0417172 -0.530123 
-0.115911 0.0418249 -0.541419 -0.123499 0.0418458 -0.552175 -0.130863 0.0418453 -0.562385 
-0.138102 0.0418763 -0.572037 -0.145285 0.0419719 -0.5811 -0.152435 0.0421404 -0.589529 
-0.159529 0.042365 -0.597262 -0.166496 0.042606 -0.604229 -0.173227 0.0428075 -0.610355 
-0.179587 0.042906 -0.615578 -0.185434 0.0428406 -0.619852 -0.19064 0.0425633 -0.623164 
-0.195104 0.0420471 -0.625537 -0.198769 0.0412927 -0.627037 -0.201629 0.0403308 -0.627773 
-0.203728 0.0392203 -0.627889 -0.205158 0.0380438 -0.627555 -0.206041 0.0368986 -0.626958 
-0.206516 0.0358862 -0.626279 -0.206721 0.035101 -0.625681 -0.206768 0.0346195 -0.625293 
-0.206734 0.034491 -0.625199 
LINES 2 100
OFFSETS vtktypeint64
0 100 
CONNECTIVITY vtktypeint64
0 1 2 3 4 5 6 7 8 
9 10 11 12 13 14 15 16 17 
18 19 20 21 22 23 24 25 26 
27 28 29 30 31 32 33 34 35 
36 37 38 39 40 41 42 43 44 
45 46 47 48 49 50 51 52 53 
54 55 56 57 58 59 60 61 62 
63 64 65 66 67 68 69 70 71 
72 73 74 75 76 77 78 79 80 
81 82 83 84 85 86 87 88 89 
90 91 92 93 94 95 96 97 98 
99 
POINT_DATA 100
FIELD FieldData 3
_theta 1 100 double
0 0.031733259127 0.063466518254 0.095199777382 0.12693303651 0.15866629564 0.19039955476 0.22213281389 0.25386607302 
0.28559933214 0.31733259127 0.3490658504 0.38079910953 0.41253236865 0.44426562778 0.47599888691 0.50773214603 0.53946540516 
0.57119866429 0.60293192342 0.63466518254 0.66639844167 0.6981317008 0.72986495992 0.76159821905 0.79333147818 0.82506473731 
0.85679799643 0.88853125556 0.92026451469 0.95199777382 0.98373103294 1.0154642921 1.0471975512 1.0789308103 1.1106640695 
1.1423973286 1.1741305877 1.2058638468 1.237597106 1.2693303651 1.3010636242 1.3327968833 1.3645301425 1.3962634016 
1.4279966607 1.4597299198 1.491463179 1.5231964381 1.5549296972 1.5866629564 1.6183962155 1.6501294746 1.6818627337 
1.7135959929 1.745329252 1.7770625111 1.8087957702 1.8405290294 1.8722622885 1.9039955476 1.9357288068 1.9674620659 
1.999195325 2.0309285841 2.0626618433 2.0943951024 2.1261283615 2.1578616206 2.1895948798 2.2213281389 2.253061398 
2.2847946572 2.3165279163 2.3482611754 2.3799944345 2.4117276937 2.4434609528 2.4751942119 2.506927471 2.5386607302 
2.5703939893 2.6021272484 2.6338605076 2.6655937667 2.6973270258 2.7290602849 2.7607935441 2.7925268032 2.8242600623 
2.8559933214 2.8877265806 2.9194598397 2.9511930988 2.982926358 3.0146596171 3.0463928762 3.0781261353 3.1098593945 
3.1415926536 
_radius 1 100 double
4.4867340844e-16 0.013974920166 0.027884269776 0.041653152851 0.055196215483 0.068414581568 0.081195032524 0.093411984297 0.1049324959 
0.11562408432 0.12536461469 0.13405310068 0.14161998131 0.14803537679 0.15331396048 0.15751539216 0.16073972752 0.1631178629 
0.16479789297 0.16592917327 0.16664667073 0.16705854092 0.16723952274 0.1672316148 0.1670517689 0.16670442529 0.16619525947 
0.16554218157 0.16478069522 0.16396273072 0.16315009152 0.16240492449 0.16177984585 0.16130965847 0.16100552939 0.16085181178 
0.16080571608 0.16080033962 0.16075151579 0.16056833062 0.16016626039 0.15948114733 0.15848190709 0.15717988173 0.15563296195 
0.15394323996 0.15224856627 0.15071067962 0.14950366937 0.14880460355 0.14878432449 0.14959429958 0.15134720415 0.15409332721 
0.15779895201 0.16233422142 0.16747599872 0.17292703107 0.17834836867 0.18339910328 0.18777656361 0.19125073914 0.19368822367 
0.19506287957 0.19545247872 0.19502261536 0.1940009826 0.19264632481 0.191216707 0.18994109736 0.18899691422 0.18849466007 
0.18846957856 0.18887979171 0.1896106564 0.19048565848 0.19128416254 0.19176516641 0.19169426754 0.19086951795 0.18914167177 
0.18642552504 0.18270093736 0.17800400482 0.17241034504 0.16601348724 0.15890200755 0.15113937161 0.1427503342 0.13371686725 
0.12398465579 0.11347854432 0.10212305874 0.089863366351 0.076682835111 0.062614874693 0.047748138785 0.032225117861 0.016234738604 
1.2615945991e-15 
_area 1 100 double
0 0.00050252181834 0.0019996574365 0.004459242255 0.0078248815376 0.012012288622 0.016905347078 0.022353227863 0.028170102104 
0.034138750089 0.04001869841 0.045558808147 0.050513937618 0.054665208882 0.057842669632 0.059947620178 0.060970663703 0.061001393644 
0.06022599599 0.058909568606 0.057363024785 0.05590161782 0.054791940046 0.054148491546 0.05388567482 0.053852606926 0.053942000474 
0.054106444644 0.054337030875 0.054643976505 0.055048904894 0.055580188651 0.05626590446 0.057120936376 0.058139006712 0.059295318745 
0.060555917196 0.061880336948 0.063203689039 0.064424827049 0.065426111464 0.066112872957 0.066464524777 0.066579745368 0.066659005714 
0.06687560569 0.067243480611 0.0676661233 0.068115468053 0.068689649722 0.069535028656 0.070777977886 0.072544462538 0.074964964016 
0.078143671215 0.082121797132 0.086843551937 0.092129680742 0.097669708015 0.10304719017 0.10780182146 0.11151315338 0.11388176359 
0.11478637676 0.11430218651 0.11267626467 0.11026890748 0.1074794497 0.1046773899 0.10215470043 0.10010564104 0.098629350195 
0.09774270387 0.097391423813 0.097454953885 0.097748652976 0.098030996014 0.098022779374 0.097440031609 0.09603485456 0.093633417732 
0.090161033909 0.085649494447 0.080227443544 0.0740974339 0.067503766119 0.06069545127 0.053889917746 0.04724492784 0.040846865335 
0.034720734246 0.028859774081 0.023263764806 0.01797122803 0.013074728201 0.0087166647881 0.0050697838615 0.0023096570029 0.00058624010738 
8.5868812061e-17 
