# vtk DataFile Version 5.1
vtk output
ASCII
DATASET POLYDATA
POINTS 100 float
-0.207422 -0.0328525 0.704349 -0.207117 -0.0328556 0.704446 -0.206215 -0.0326989 0.704756 
-0.204663 -0.0323485 0.705157 -0.202383 -0.0317522 0.705458 -0.199284 -0.0308452 0.705427 
-0.195276 -0.0295576 0.704809 -0.190287 -0.0278217 0.70336 -0.184275 -0.0255808 0.70087 
-0.177239 -0.0227968 0.697184 -0.169218 -0.019456 0.692218 -0.160287 -0.0155734 0.685961 
-0.150552 -0.0111947 0.67847 -0.140134 -0.0063949 0.669858 -0.129151 -0.00127454 0.660277 
-0.117708 0.00404627 0.64989 -0.10588 0.00943615 0.638848 -0.09371 0.0147617 0.627271 
-0.081204 0.019897 0.615231 -0.0683395 0.0247327 0.602738 -0.0550774 0.0291835 0.589745 
-0.0413778 0.0331928 0.57615 -0.027219 0.0367355 0.561813 -0.0126142 0.0398166 0.54657 
0.00237464 0.0424675 0.530258 0.0176295 0.0447396 0.512733 0.0329771 0.0466955 0.493886 
0.0481971 0.0484001 0.473661 0.0630381 0.0499106 0.452053 0.0772394 0.0512694 0.429115 
0.0905556 0.0524973 0.404945 0.10278 0.0535912 0.37968 0.113765 0.0545245 0.353476 
0.123435 0.0552505 0.326498 0.131793 0.0557094 0.298901 0.138912 0.055837 0.270825 
0.144924 0.055575 0.242386 0.149995 0.0548808 0.213676 0.154303 0.0537359 0.184769 
0.158003 0.0521524 0.155724 0.161211 0.0501756 0.1266 0.163976 0.0478829 0.0974641 
0.166278 0.0453789 0.068399 0.168024 0.0427872 0.0395092 0.169058 0.0402394 0.0109221 
0.169189 0.0378626 -0.0172164 0.16821 0.0357674 -0.0447493 0.165935 0.0340368 -0.0715203 
0.162225 0.0327181 -0.0973864 0.157016 0.0318181 -0.122231 0.15033 0.0313034 -0.145974 
0.142287 0.0311039 -0.168581 0.133096 0.0311213 -0.190063 0.123036 0.0312398 -0.210477 
0.112431 0.0313393 -0.229916 0.101621 0.0313081 -0.248501 0.0909237 0.0310554 -0.266363 
0.0806046 0.0305208 -0.283633 0.0708546 0.02968 -0.300427 0.0617726 0.0285474 -0.316835 
0.0533633 0.0271732 -0.332919 0.0455439 0.0256375 -0.348707 0.0381635 0.0240413 -0.3642 
0.0310277 0.0224952 -0.379377 0.0239293 0.0211083 -0.394207 0.0166779 0.0199772 -0.408656 
0.00912535 0.0191774 -0.422701 0.00118443 0.018758 -0.436336 -0.00716235 0.0187393 -0.449573 
-0.0158644 0.0191139 -0.462446 -0.0248144 0.0198513 -0.475004 -0.0338673 0.020904 -0.487303 
-0.0428647 0.0222157 -0.499395 -0.0516587 0.0237289 -0.511321 -0.0601351 0.0253911 -0.523095 
-0.0682288 0.0271603 -0.534704 -0.0759315 0.0290067 -0.546099 -0.0832903 0.0309126 -0.557199 
-0.0903969 0.032869 -0.567899 -0.0973687 0.0348718 -0.578075 -0.104327 0.0369153 -0.587601 
-0.111372 0.0389875 -0.596362 -0.118564 0.0410652 -0.604265 -0.125903 0.043112 -0.611249 
-0.133329 0.0450781 -0.617297 -0.140717 0.0469034 -0.622431 -0.147895 0.0485226 -0.626713 
-0.154662 0.0498721 -0.630238 -0.160812 0.0508983 -0.63312 -0.166163 0.0515648 -0.635484 
-0.170577 0.0518593 -0.637449 -0.173988 0.0517969 -0.639119 -0.1764 0.051422 -0.640574 
-0.1779 0.0508049 -0.641864 -0.178637 0.0500368 -0.643012 -0.178808 0.049221 -0.644016 
-0.178634 0.0484628 -0.644856 -0.178324 0.0478586 -0.645503 -0.178054 0.0474857 -0.645925 
-0.17794 0.047394 -0.646103 
LINES 2 100
OFFSETS vtktypeint64
0 100 
CONNECTIVITY vtktypeint64
0 1 2 3 4 5 6 7 8 
9 10 11 12 13 14 15 16 17 
18 19 20 21 22 23 24 25 26 
27 28 29 30 31 32 33 34 35 
36 37 38 39 40 41 42 43 44 
45 46 47 48 49 50 51 52 53 
54 55 56 57 58 59 60 61 62 
63 64 65 66 67 68 69 70 71 
72 73 74 75 76 77 78 79 80 
81 82 83 84 85 86 87 88 89 
90 91 92 93 94 95 96 97 98 
99 
POINT_DATA 100
FIELD FieldData 3
_theta 1 100 double
0 0.031733259127 0.063466518254 0.095199777382 0.12693303651 0.15866629564 0.19039955476 0.22213281389 0.25386607302 
0.28559933214 0.31733259127 0.3490658504 0.38079910953 0.41253236865 0.44426562778 0.47599888691 0.50773214603 0.53946540516 
0.57119866429 0.60293192342 0.63466518254 0.66639844167 0.6981317008 0.72986495992 0.76159821905 0.79333147818 0.82506473731 
0.85679799643 0.88853125556 0.92026451469 0.95199777382 0.98373103294 1.0154642921 1.0471975512 1.0789308103 1.1106640695 
1.1423973286 1.1741305877 1.2058638468 1.237597106 1.2693303651 1.3010636242 1.3327968833 1.3645301425 1.3962634016 
1.4279966607 1.4597299198 1.491463179 1.5231964381 1.5549296972 1.5866629564 1.6183962155 1.6501294746 1.6818627337 
1.7135959929 1.745329252 1.7770625111 1.8087957702 1.8405290294 1.8722622885 1.9039955476 1.9357288068 1.9674620659 
1.999195325 2.0309285841 2.0626618433 2.0943951024 2.1261283615 2.1578616206 2.1895948798 2.2213281389 2.253061398 
2.2847946572 2.3165279163 2.3482611754 2.3799944345 2.4117276937 2.4434609528 2.4751942119 2.506927471 2.5386607302 
2.5703939893 2.6021272484 2.6338605076 2.6655937667 2.6973270258 2.7290602849 2.7607935441 2.7925268032 2.8242600623 
2.8559933214 2.8877265806 2.9194598397 2.9511930988 2.982926358 3.0146596171 3.0463928762 3.0781261353 3.1098593945 
3.1415926536 
_radius 1 100 double
1.1121512301e-15 0.019049008468 0.037625800942 0.05529379443 0.07169293575 0.086566738512 0.099777293704 0.11130689155 0.12124661047 
0.12977379057 0.13712149344 0.14354371403 0.14928025463 0.15452498313 0.15940095272 0.16394567028 0.16810933999 0.17176753559 
0.17474720743 0.17686197676 0.17795063585 0.17791235021 0.17673293396 0.17449807679 0.17139117051 0.16767540401 0.16366219473 
0.15967076346 0.15598627437 0.15282543283 0.15031740361 0.1485035733 0.14735334027 0.1467885986 0.1467095483 0.14701698882 
0.14762891234 0.14849163371 0.14958665969 0.15093363532 0.15258856069 0.15463620831 0.1571765431 0.16030675996 0.16410242102 
0.16860177915 0.17379618636 0.17962737942 0.18599075492 0.19274310061 0.19971338556 0.20671559812 0.21356287433 0.22008210561 
0.22612785985 0.23159398818 0.23642106511 0.24059811286 0.24415792653 0.24716651353 0.24970836021 0.25187013471 0.25372577926 
0.25532559317 0.25669092493 0.25781477503 0.25866737781 0.25920502383 0.25938014275 0.25915090035 0.25848901592 0.25738490455 
0.25584946493 0.25391198232 0.25161393914 0.24899915504 0.24610150378 0.24293220097 0.239469054 0.23564997334 0.23137246379 
0.22649985787 0.22087390671 0.21433222231 0.20672818507 0.19795045918 0.18793927999 0.17669716449 0.1642925171 0.15085557616 
0.13656710849 0.12164112274 0.10630360942 0.090769893676 0.075223518998 0.05979953287 0.044574519978 0.029564751035 0.014732577318 
7.4131521666e-16 
_area 1 100 double
0 0.00070181104368 0.0027605892833 0.0060400607779 0.010325698076 0.015344458704 0.020793276885 0.02637501007 0.031837600703 
0.03700945691 0.041823232695 0.046321406555 0.050638905344 0.054960961788 0.059461867457 0.064240068999 0.06926803247 0.0743727386 
0.079255670392 0.083544771886 0.086860203655 0.088879512758 0.089393520153 0.088345427244 0.085845943405 0.082159994704 0.077666205456 
0.072797185185 0.067974044043 0.063550172011 0.05977706444 0.056802370888 0.054706227025 0.053552449354 0.053391710398 0.054193263526 
0.055763733872 0.057786423661 0.05998655281 0.062235659712 0.064535385408 0.066983279029 0.069734390875 0.072955152304 0.076776371103 
0.081260304676 0.086390987597 0.092084835128 0.098211988786 0.10462053902 0.1111593385 0.11769551975 0.12412302105 0.13036192245 
0.13635261936 0.14204747831 0.14739673953 0.15233554475 0.15679556541 0.1607324009 0.16413503758 0.16701178607 0.16936718578 
0.17118387521 0.17241772311 0.17300760728 0.17289480461 0.1720436912 0.17045663762 0.16818168439 0.16532659567 0.1620918454 
0.15877302143 0.15552725389 0.15199661337 0.14821753396 0.1442291477 0.14005228357 0.13567457896 0.13103860738 0.12603917419 
0.12053480912 0.11437369022 0.10742871874 0.099632946313 0.091006248404 0.081666618359 0.071823550271 0.061755408289 0.051776238965 
0.042199261146 0.033303988442 0.025312091618 0.018374632756 0.012571015737 0.0079182349051 0.004387739133 0.0019264025166 0.00047776850236 
2.7755575616e-17 
