# vtk DataFile Version 5.1
vtk output
ASCII
DATASET POLYDATA
POINTS 100 float
-0.141918 -0.0954217 0.724151 -0.141953 -0.0954736 0.723864 -0.142042 -0.0953922 0.722989 
-0.142171 -0.0951196 0.721534 -0.142312 -0.0945674 0.719516 -0.142427 -0.0936274 0.716954 
-0.142466 -0.0921844 0.713871 -0.142366 -0.0901294 0.71029 -0.142054 -0.0873727 0.706235 
-0.141449 -0.0838551 0.701725 -0.140466 -0.0795547 0.696772 -0.139021 -0.0744907 0.69138 
-0.137034 -0.068722 0.685541 -0.134439 -0.0623416 0.679236 -0.131188 -0.0554683 0.672433 
-0.127252 -0.0482346 0.665085 -0.122628 -0.0407755 0.657137 -0.117336 -0.0332161 0.648526 
-0.111415 -0.0256625 0.639181 -0.104925 -0.0181949 0.629035 -0.097931 -0.0108647 0.618025 
-0.0905029 -0.00369535 0.606095 -0.0827039 0.00331255 0.593204 -0.074584 0.0101742 0.579328 
-0.0661753 0.0169108 0.564462 -0.0574885 0.0235401 0.548618 -0.0485135 0.0300669 0.531825 
-0.0392233 0.0364761 0.51413 -0.0295802 0.0427288 0.495585 -0.019545 0.0487616 0.476254 
-0.00908725 0.0544894 0.456195 0.00180415 0.0598122 0.435466 0.0131117 0.0646229 0.414114 
0.0247819 0.0688184 0.392176 0.0367216 0.0723089 0.369674 0.0487977 0.0750278 0.346622 
0.0608413 0.0769381 0.32302 0.0726556 0.0780366 0.298867 0.0840262 0.0783544 0.274157 
0.0947349 0.0779544 0.248893 0.104573 0.0769247 0.223084 0.113353 0.0753712 0.196759 
0.120923 0.0734076 0.169962 0.127172 0.0711461 0.14276 0.132034 0.0686887 0.115241 
0.135492 0.0661204 0.0875096 0.137572 0.063505 0.0596894 0.138336 0.0608837 0.0319132 
0.137876 0.058277 0.00431932 0.136302 0.0556886 -0.0229552 0.13373 0.0531109 -0.0497802 
0.130278 0.0505325 -0.0760384 0.126054 0.047944 -0.101629 0.121154 0.0453445 -0.126471 
0.11566 0.0427453 -0.150504 0.109637 0.0401717 -0.173691 0.10314 0.0376627 -0.196014 
0.096218 0.0352679 -0.217474 0.0889148 0.0330429 -0.238087 0.0812771 0.0310437 -0.257882 
0.0733565 0.0293201 -0.276899 0.0652115 0.0279104 -0.295184 0.0569075 0.0268363 -0.312789 
0.0485152 0.0261009 -0.329767 0.0401075 0.0256875 -0.346174 0.031755 0.0255618 -0.362065 
0.0235218 0.0256753 -0.377495 0.0154615 0.0259708 -0.392513 0.00761386 0.0263887 -0.407168 
3.49534e-06 0.0268732 -0.4215 -0.00736023 0.0273781 -0.435544 -0.0144812 0.0278714 -0.449325 
-0.0213733 0.0283377 -0.462858 -0.0280559 0.0287789 -0.476149 -0.0345493 0.0292123 -0.48919 
-0.0408696 0.0296674 -0.501962 -0.0470254 0.0301804 -0.514439 -0.0530148 0.0307885 -0.526584 
-0.0588243 0.031524 -0.538355 -0.0644296 0.0324086 -0.549708 -0.0697974 0.0334492 -0.560601 
-0.0748889 0.034636 -0.570992 -0.0796635 0.0359411 -0.580849 -0.0840833 0.0373212 -0.590145 
-0.0881169 0.0387206 -0.598865 -0.0917422 0.0400765 -0.607002 -0.0949488 0.0413252 -0.614555 
-0.0977384 0.0424083 -0.621533 -0.100125 0.0432788 -0.627946 -0.102132 0.0439058 -0.633808 
-0.10379 0.0442782 -0.63913 -0.105138 0.0444054 -0.643922 -0.106213 0.0443172 -0.648188 
-0.107055 0.0440603 -0.651926 -0.107699 0.0436942 -0.655132 -0.108176 0.043285 -0.657796 
-0.108513 0.042899 -0.659904 -0.108731 0.0425956 -0.661445 -0.108845 0.0424222 -0.662406 
-0.108863 0.0424085 -0.662778 
LINES 2 100
OFFSETS vtktypeint64
0 100 
CONNECTIVITY vtktypeint64
0 1 2 3 4 5 6 7 8 
9 10 11 12 13 14 15 16 17 
18 19 20 21 22 23 24 25 26 
27 28 29 30 31 32 33 34 35 
36 37 38 39 40 41 42 43 44 
45 46 47 48 49 50 51 52 53 
54 55 56 57 58 59 60 61 62 
63 64 65 66 67 68 69 70 71 
72 73 74 75 76 77 78 79 80 
81 82 83 84 85 86 87 88 89 
90 91 92 93 94 95 96 97 98 
99 
POINT_DATA 100
FIELD FieldData 3
_theta 1 100 double
0 0.031733259127 0.063466518254 0.095199777382 0.12693303651 0.15866629564 0.19039955476 0.22213281389 0.25386607302 
0.28559933214 0.31733259127 0.3490658504 0.38079910953 0.41253236865 0.44426562778 0.47599888691 0.50773214603 0.53946540516 
0.57119866429 0.60293192342 0.63466518254 0.66639844167 0.6981317008 0.72986495992 0.76159821905 0.79333147818 0.82506473731 
0.85679799643 0.88853125556 0.92026451469 0.95199777382 0.98373103294 1.0154642921 1.0471975512 1.0789308103 1.1106640695 
1.1423973286 1.1741305877 1.2058638468 1.237597106 1.2693303651 1.3010636242 1.3327968833 1.3645301425 1.3962634016 
1.4279966607 1.4597299198 1.491463179 1.5231964381 1.5549296972 1.5866629564 1.6183962155 1.6501294746 1.6818627337 
1.7135959929 1.745329252 1.7770625111 1.8087957702 1.8405290294 1.8722622885 1.9039955476 1.9357288068 1.9674620659 
1.999195325 2.0309285841 2.0626618433 2.0943951024 2.1261283615 2.1578616206 2.1895948798 2.2213281389 2.253061398 
2.2847946572 2.3165279163 2.3482611754 2.3799944345 2.4117276937 2.4434609528 2.4751942119 2.506927471 2.5386607302 
2.5703939893 2.6021272484 2.6338605076 2.6655937667 2.6973270258 2.7290602849 2.7607935441 2.7925268032 2.8242600623 
2.8559933214 2.8877265806 2.9194598397 2.9511930988 2.982926358 3.0146596171 3.0463928762 3.0781261353 3.1098593945 
3.1415926536 
_radius 1 100 double
9.66774949e-16 0.014244884778 0.028428600216 0.042485156398 0.056347887982 0.069947333104 0.083208045198 0.096045407056 0.10836385129 
0.12005768069 0.13101501396 0.14112452235 0.15028387846 0.1584084348 0.16543867114 0.17134533614 0.17613180502 0.17983378167 
0.18251691547 0.18427307235 0.1852158847 0.18547588734 0.18519517076 0.18452122383 0.18359965247 0.18256581971 0.18153606985 
0.18059981972 0.17981410099 0.17920191316 0.17875504965 0.17844114939 0.17821387978 0.17802453515 0.17783301288 0.17761611581 
0.17737132922 0.17711468851 0.17687284605 0.17667284577 0.17653634696 0.1764826829 0.1765375391 0.17674006824 0.17714434716 
0.17781570328 0.17882441371 0.18023878158 0.18211823883 0.18450634089 0.18742387114 0.19086317855 0.19478522233 0.1991201335 
0.20377102721 0.20862018965 0.21353682027 0.21838576873 0.22303673933 0.22737326358 0.23130060452 0.23475178123 0.23769104281 
0.24011430609 0.24204628901 0.24353435134 0.2446394336 0.2454249731 0.24594520348 0.24623462886 0.24630046068 0.24611928685 
0.24563835722 0.2447809733 0.24345486685 0.24156220556 0.23900987478 0.23571883638 0.23163159928 0.22671711476 0.22097269454 
0.21442280661 0.20711483475 0.19911213558 0.19048505374 0.18130097251 0.17161488345 0.16146214055 0.15085481554 0.13978238214 
0.12821657175 0.11611950072 0.10345376205 0.090193069331 0.076332095639 0.061894266129 0.046936436172 0.031549674204 0.015855811654 
9.5773553072e-16 
_area 1 100 double
0 0.00058783660515 0.0023375309862 0.0052075916211 0.0091283158457 0.014000239876 0.019692148818 0.026040625708 0.032853380611 
0.039917297846 0.047010214242 0.053914168912 0.060427775871 0.06637604539 0.071616695373 0.076042532951 0.079580229954 0.082186999145 
0.083847693304 0.084574610232 0.084410492672 0.083432961952 0.081757505941 0.079536912742 0.076957215572 0.074232615972 0.071604586343 
0.069367080925 0.067794374816 0.066757199615 0.066094377726 0.065709411909 0.065509925917 0.065444364494 0.065539177304 0.0659202933 
0.066726460289 0.067952321799 0.069489825902 0.071235996572 0.073147132216 0.075244372986 0.077519508156 0.079851464932 0.082114344906 
0.084266287069 0.086335837259 0.08839401811 0.090542850054 0.092908739736 0.095632021205 0.098855333669 0.10270275827 0.10724652726 
0.11247661532 0.11829115968 0.12450938674 0.13089772429 0.13720059012 0.14317008283 0.14858991253 0.15329108014 0.15716102638 
0.1601537465 0.16231359422 0.16375476255 0.16453018374 0.16469056954 0.16431896023 0.16350088629 0.16229312884 0.16070295591 
0.15868373623 0.1561450897 0.1529737832 0.14906172884 0.14433470835 0.13877251538 0.13241361564 0.12534599815 0.11769320443 
0.10960360664 0.10124321717 0.092785590961 0.084393855266 0.076197891912 0.068276441439 0.060653486602 0.053311013292 0.04621253908 
0.039329111194 0.032661105844 0.026252075256 0.020193480912 0.014620793544 0.0097020932986 0.0056205839559 0.0025530025522 0.00064683082485 
5.6485290079e-17 
