# vtk DataFile Version 5.1
vtk output
ASCII
DATASET POLYDATA
POINTS 100 float
-0.0906295 -0.0842342 0.795688 -0.0909971 -0.0841928 0.795724 -0.0921034 -0.0838392 0.795765 
-0.0938514 -0.083148 0.795721 -0.0960885 -0.0820812 0.795455 -0.0986211 -0.0805925 0.794793 
-0.101231 -0.0786324 0.793543 -0.103696 -0.076154 0.791512 -0.105806 -0.0731183 0.788523 
-0.107378 -0.0694981 0.784433 -0.108273 -0.0652812 0.779139 -0.108396 -0.0604713 0.772588 
-0.107702 -0.055088 0.764778 -0.106192 -0.0491645 0.755749 -0.103902 -0.0427459 0.745582 
-0.100896 -0.0358853 0.734381 -0.0972521 -0.0286418 0.722262 -0.0930519 -0.021078 0.709343 
-0.0883687 -0.0132594 0.695729 -0.0832609 -0.00525392 0.681505 -0.0777681 0.00286664 0.666732 
-0.0719094 0.0110253 0.651446 -0.0656862 0.0191381 0.635658 -0.0590861 0.027113 0.619361 
-0.0520884 0.0348496 0.602538 -0.0446703 0.0422405 0.585162 -0.0368117 0.0491747 0.567212 
-0.0284993 0.0555418 0.548669 -0.0197294 0.0612383 0.529525 -0.0105082 0.0661743 0.509776 
-0.000852193 0.0702805 0.489427 0.00921273 0.0735143 0.468484 0.0196518 0.0758634 0.446952 
0.0304209 0.0773487 0.424826 0.0414654 0.0780229 0.402096 0.0527171 0.0779671 0.37874 
0.0640907 0.0772845 0.354727 0.0754799 0.0760924 0.330022 0.0867533 0.0745127 0.304593 
0.097753 0.0726626 0.278414 0.108295 0.070646 0.251478 0.118171 0.0685473 0.223801 
0.12716 0.0664275 0.19543 0.135035 0.0643232 0.166443 0.141578 0.062249 0.13695 
0.146596 0.0602025 0.10709 0.149937 0.0581706 0.0770223 0.151502 0.0561375 0.04692 
0.151257 0.0540917 0.0169564 0.149241 0.0520324 -0.0127044 0.145562 0.0499733 -0.0419176 
0.140394 0.0479435 -0.0705661 0.133962 0.045986 -0.0985647 0.12653 0.0441531 -0.125862 
0.118375 0.0424997 -0.15244 0.109769 0.0410762 -0.178304 0.100959 0.03992 -0.203483 
0.0921474 0.0390501 -0.228014 0.0834817 0.0384615 -0.251936 0.0750487 0.0381251 -0.275283 
0.0668752 0.0379884 -0.298076 0.0589357 0.0379811 -0.320323 0.0511651 0.0380225 -0.342013 
0.0434753 0.0380308 -0.363124 0.0357728 0.0379329 -0.383625 0.0279763 0.0376739 -0.403483 
0.0200303 0.0372242 -0.422669 0.0119149 0.0365838 -0.441165 0.00364962 0.0357836 -0.45897 
-0.00470835 0.0348824 -0.476099 -0.0130717 0.0339606 -0.492587 -0.0213343 0.0331118 -0.508484 
-0.0293848 0.0324316 -0.523852 -0.0371204 0.0320072 -0.538756 -0.0444598 0.0319072 -0.553256 
-0.0513511 0.0321736 -0.567401 -0.0577767 0.032817 -0.581223 -0.0637521 0.033815 -0.594728 
-0.0693199 0.0351149 -0.607899 -0.0745405 0.0366392 -0.620692 -0.0794798 0.0382933 -0.633039 
-0.0841967 0.0399755 -0.644857 -0.0887317 0.0415871 -0.656051 -0.0930992 0.0430411 -0.666527 
-0.0972836 0.0442698 -0.676194 -0.10124 0.0452296 -0.684978 -0.104902 0.0459024 -0.692826 
-0.10819 0.0462951 -0.699709 -0.111023 0.0464355 -0.705626 -0.113336 0.0463669 -0.710605 
-0.115087 0.0461421 -0.714699 -0.116272 0.0458164 -0.717982 -0.116922 0.0454422 -0.720546 
-0.11711 0.0450648 -0.722491 -0.116939 0.0447196 -0.723923 -0.116535 0.0444315 -0.724942 
-0.116031 0.044216 -0.725641 -0.115553 0.044081 -0.726097 -0.115203 0.0440293 -0.726368 
-0.115049 0.0440615 -0.726492 
LINES 2 100
OFFSETS vtktypeint64
0 100 
CONNECTIVITY vtktypeint64
0 1 2 3 4 5 6 7 8 
9 10 11 12 13 14 15 16 17 
18 19 20 21 22 23 24 25 26 
27 28 29 30 31 32 33 34 35 
36 37 38 39 40 41 42 43 44 
45 46 47 48 49 50 51 52 53 
54 55 56 57 58 59 60 61 62 
63 64 65 66 67 68 69 70 71 
72 73 74 75 76 77 78 79 80 
81 82 83 84 85 86 87 88 89 
90 91 92 93 94 95 96 97 98 
99 
POINT_DATA 100
FIELD FieldData 3
_theta 1 100 double
0 0.031733259127 0.063466518254 0.095199777382 0.12693303651 0.15866629564 0.19039955476 0.22213281389 0.25386607302 
0.28559933214 0.31733259127 0.3490658504 0.38079910953 0.41253236865 0.44426562778 0.47599888691 0.50773214603 0.53946540516 
0.57119866429 0.60293192342 0.63466518254 0.66639844167 0.6981317008 0.72986495992 0.76159821905 0.79333147818 0.82506473731 
0.85679799643 0.88853125556 0.92026451469 0.95199777382 0.98373103294 1.0154642921 1.0471975512 1.0789308103 1.1106640695 
1.1423973286 1.1741305877 1.2058638468 1.237597106 1.2693303651 1.3010636242 1.3327968833 1.3645301425 1.3962634016 
1.4279966607 1.4597299198 1.491463179 1.5231964381 1.5549296972 1.5866629564 1.6183962155 1.6501294746 1.6818627337 
1.7135959929 1.745329252 1.7770625111 1.8087957702 1.8405290294 1.8722622885 1.9039955476 1.9357288068 1.9674620659 
1.999195325 2.0309285841 2.0626618433 2.0943951024 2.1261283615 2.1578616206 2.1895948798 2.2213281389 2.253061398 
2.2847946572 2.3165279163 2.3482611754 2.3799944345 2.4117276937 2.4434609528 2.4751942119 2.506927471 2.5386607302 
2.5703939893 2.6021272484 2.6338605076 2.6655937667 2.6973270258 2.7290602849 2.7607935441 2.7925268032 2.8242600623 
2.8559933214 2.8877265806 2.9194598397 2.9511930988 2.982926358 3.0146596171 3.0463928762 3.0781261353 3.1098593945 
3.1415926536 
_radius 1 100 double
1.3343621074e-15 0.015516928314 0.030959537654 0.046242761127 0.061275802896 0.075959991252 0.090187243443 0.10383960985 0.11679046903 
0.1289078531 0.1400600953 0.15012360101 0.15899215535 0.16658686938 0.1728656815 0.17783128933 0.18153647207 0.18408592786 
0.18563396709 0.18637768332 0.18654561928 0.18638248361 0.18613111348 0.18601348394 0.18621293295 0.18685969853 0.18802127695 
0.18969818788 0.19182491311 0.1942754931 0.19687358464 0.19940728334 0.20164914617 0.20338134261 0.20442456591 0.20466685378 
0.20408492753 0.20274890239 0.20080746031 0.19846350589 0.1959513319 0.19351400297 0.19137823534 0.18973242829 0.18871565286 
0.18841965954 0.18889879462 0.19017937315 0.1922619281 0.19511524789 0.19866720419 0.20280030653 0.20735739165 0.21215701745 
0.21701387818 0.22175906572 0.22625659033 0.23041417741 0.23418750128 0.23757799768 0.24062526753 0.24339563343 0.24596853407 
0.24842228806 0.25082060822 0.25320129367 0.25556866562 0.25789111412 0.26010422494 0.26211859616 0.26383039265 0.26513243597 
0.26592404165 0.26611845904 0.26564737318 0.26446242328 0.26253405832 0.2598482653 0.25640179383 0.25219654473 0.24723386756 
0.24150962041 0.23501088458 0.22771506775 0.21959170902 0.21060668617 0.20072791451 0.18993125205 0.1782053611 0.16555473053 
0.1520007413 0.13758123723 0.12234929213 0.10637174528 0.089727816631 0.072507888065 0.054812384452 0.036750580362 0.018439109089 
1.113465363e-15 
_area 1 100 double
0 0.00062014070827 0.0024872732771 0.0056126403221 0.0099883043636 0.015557013338 0.022186764586 0.02965937528 0.037677007141 
0.045884663774 0.053902858374 0.061363706968 0.067944764513 0.073396721812 0.077562701869 0.080387891282 0.081918752772 0.082291815814 
0.081713817969 0.08043799313 0.078745586078 0.076945263294 0.075373684063 0.074269627846 0.073826314501 0.074016948864 0.074775268935 
0.075981655648 0.077510616979 0.079243560255 0.081044906009 0.082753325842 0.084196115639 0.085217222554 0.085710954736 0.085659788312 
0.085178468019 0.084557918274 0.084390733801 0.08546285066 0.087542272961 0.090149712846 0.09295583776 0.095705204939 0.098271024615 
0.10063001067 0.10282609606 0.10498096554 0.10729303876 0.10999418175 0.1132618423 0.11716860918 0.12168642035 0.1266887678 
0.13196520443 0.13726228396 0.14233169899 0.14696542791 0.15101382565 0.15439198785 0.1570807858 0.15912669256 0.16063971346 
0.16178019232 0.16272014433 0.16359124094 0.16445997516 0.16532887945 0.16613915224 0.16677446231 0.1670765423 0.16687191962 
0.1659978277 0.1643313804 0.16181148385 0.15844414133 0.15429707842 0.14948323212 0.14412955498 0.13834037614 0.1321735648 
0.12563515405 0.1186863766 0.11126133903 0.10329594078 0.094762114439 0.085696296936 0.076212655743 0.066497095685 0.056783872818 
0.047321639311 0.038339588209 0.030025426372 0.022522230556 0.015940950905 0.010377150588 0.0059215947148 0.0026608901425 0.00066983944238 
3.1279022556e-17 
