# vtk DataFile Version 5.1
vtk output
ASCII
DATASET POLYDATA
POINTS 100 float
-0.150177 -0.0248232 0.75796 -0.150231 -0.0248678 0.757652 -0.150386 -0.0248244 0.756748 
-0.150597 -0.0246655 0.755236 -0.150792 -0.0243502 0.753093 -0.150877 -0.0238297 0.750293 
-0.150745 -0.0230531 0.746801 -0.150278 -0.0219747 0.74258 -0.149362 -0.0205589 0.737592 
-0.147889 -0.0187848 0.731799 -0.145765 -0.0166487 0.725168 -0.142915 -0.0141636 0.717671 
-0.139285 -0.0113575 0.709287 -0.134845 -0.00826957 0.700006 -0.129588 -0.0049448 0.689827 
-0.123529 -0.00142905 0.67876 -0.1167 0.00223588 0.666827 -0.109152 0.00601576 0.654056 
-0.100947 0.00988575 0.640486 -0.0921572 0.0138301 0.62616 -0.0828601 0.0178401 0.611126 
-0.0731366 0.0219101 0.595432 -0.0630682 0.026033 0.579124 -0.0527339 0.0301954 0.562245 
-0.0422085 0.0343734 0.544832 -0.0315601 0.03853 0.526916 -0.0208484 0.0426142 0.508518 
-0.0101234 0.0465626 0.489651 0.000576071 0.0503033 0.47032 0.0112221 0.0537609 0.450523 
0.0217972 0.0568635 0.430251 0.0322927 0.0595494 0.409492 0.0427055 0.061773 0.388231 
0.053034 0.0635093 0.366454 0.0632734 0.0647566 0.344147 0.0734099 0.065536 0.321302 
0.0834156 0.0658886 0.297918 0.0932439 0.0658703 0.274001 0.102826 0.0655455 0.249568 
0.112069 0.0649791 0.224645 0.120858 0.0642297 0.199271 0.129061 0.0633435 0.173497 
0.13653 0.0623504 0.147384 0.143114 0.0612622 0.121005 0.148669 0.0600745 0.0944401 
0.153065 0.0587694 0.0677783 0.156199 0.0573217 0.041112 0.158001 0.0557055 0.0145361 
0.158443 0.0539007 -0.0118559 0.15754 0.0518991 -0.0379742 0.155349 0.0497086 -0.0637362 
0.151966 0.0473551 -0.0890684 0.14752 0.0448821 -0.113909 0.142156 0.042347 -0.138207 
0.136034 0.0398167 -0.161927 0.129306 0.0373604 -0.185044 0.122114 0.0350434 -0.207545 
0.114574 0.0329205 -0.229428 0.106775 0.0310313 -0.250696 0.0987747 0.0293979 -0.271357 
0.0905992 0.0280238 -0.291423 0.0822502 0.0268972 -0.310905 0.0737111 0.0259945 -0.329813 
0.0649562 0.0252863 -0.348154 0.0559604 0.0247432 -0.365934 0.0467084 0.0243419 -0.383158 
0.0372015 0.0240691 -0.399828 0.0274627 0.0239237 -0.415951 0.0175378 0.0239169 -0.431537 
0.00749403 0.0240698 -0.446602 -0.00258459 0.0244084 -0.461166 -0.0126041 0.0249578 -0.47526 
-0.0224683 0.0257362 -0.488916 -0.0320871 0.0267488 -0.502175 -0.0413837 0.0279835 -0.515074 
-0.0502996 0.0294095 -0.527649 -0.0587981 0.0309773 -0.53993 -0.0668641 0.0326227 -0.551931 
-0.0745015 0.0342727 -0.563653 -0.0817289 0.0358527 -0.575078 -0.0885731 0.0372952 -0.586168 
-0.0950626 0.0385474 -0.596864 -0.101221 0.0395775 -0.607094 -0.107063 0.0403785 -0.616772 
-0.11259 0.0409693 -0.625807 -0.11779 0.0413916 -0.634109 -0.12264 0.0417049 -0.641599 
-0.12711 0.0419783 -0.648215 -0.131166 0.0422813 -0.65392 -0.134778 0.0426742 -0.658704 
-0.137925 0.0432001 -0.66259 -0.1406 0.0438784 -0.665633 -0.142811 0.0447018 -0.667917 
-0.144582 0.0456369 -0.669546 -0.145951 0.0466277 -0.670641 -0.146966 0.0476029 -0.671329 
-0.147679 0.0484846 -0.671732 -0.148141 0.0491983 -0.671955 -0.148392 0.0496826 -0.672081 
-0.14846 0.0498969 -0.672162 
LINES 2 100
OFFSETS vtktypeint64
0 100 
CONNECTIVITY vtktypeint64
0 1 2 3 4 5 6 7 8 
9 10 11 12 13 14 15 16 17 
18 19 20 21 22 23 24 25 26 
27 28 29 30 31 32 33 34 35 
36 37 38 39 40 41 42 43 44 
45 46 47 48 49 50 51 52 53 
54 55 56 57 58 59 60 61 62 
63 64 65 66 67 68 69 70 71 
72 73 74 75 76 77 78 79 80 
81 82 83 84 85 86 87 88 89 
90 91 92 93 94 95 96 97 98 
99 
POINT_DATA 100
FIELD FieldData 3
_theta 1 100 double
0 0.031733259127 0.063466518254 0.095199777382 0.12693303651 0.15866629564 0.19039955476 0.22213281389 0.25386607302 
0.28559933214 0.31733259127 0.3490658504 0.38079910953 0.41253236865 0.44426562778 0.47599888691 0.50773214603 0.53946540516 
0.57119866429 0.60293192342 0.63466518254 0.66639844167 0.6981317008 0.72986495992 0.76159821905 0.79333147818 0.82506473731 
0.85679799643 0.88853125556 0.92026451469 0.95199777382 0.98373103294 1.0154642921 1.0471975512 1.0789308103 1.1106640695 
1.1423973286 1.1741305877 1.2058638468 1.237597106 1.2693303651 1.3010636242 1.3327968833 1.3645301425 1.3962634016 
1.4279966607 1.4597299198 1.491463179 1.5231964381 1.5549296972 1.5866629564 1.6183962155 1.6501294746 1.6818627337 
1.7135959929 1.745329252 1.7770625111 1.8087957702 1.8405290294 1.8722622885 1.9039955476 1.9357288068 1.9674620659 
1.999195325 2.0309285841 2.0626618433 2.0943951024 2.1261283615 2.1578616206 2.1895948798 2.2213281389 2.253061398 
2.2847946572 2.3165279163 2.3482611754 2.3799944345 2.4117276937 2.4434609528 2.4751942119 2.506927471 2.5386607302 
2.5703939893 2.6021272484 2.6338605076 2.6655937667 2.6973270258 2.7290602849 2.7607935441 2.7925268032 2.8242600623 
2.8559933214 2.8877265806 2.9194598397 2.9511930988 2.982926358 3.0146596171 3.0463928762 3.0781261353 3.1098593945 
3.1415926536 
_radius 1 100 double
6.7789300173e-16 0.016135682067 0.032142540394 0.047888194218 0.063242328578 0.078078187958 0.092274338022 0.10571689001 0.11830234876 
0.12994110031 0.14056132409 0.15011286645 0.15857043683 0.1659354666 0.17223614184 0.17752545421 0.18187751019 0.185382656 
0.18814209373 0.19026255415 0.19185134429 0.19301185228 0.19383947958 0.19441799922 0.19481645997 0.19508689168 0.19526314641 
0.19536118533 0.19538098038 0.19530997155 0.19512775694 0.19481145424 0.19434101929 0.19370380073 0.19289781312 0.19193363542 
0.19083531589 0.18964080993 0.18840211022 0.18718470035 0.1860657568 0.18513073191 0.184468408 0.18416508148 0.18429902936 
0.18493643487 0.18612919263 0.18791381864 0.19031000845 0.1933178459 0.19691390047 0.20104753861 0.2056390869 0.21058103794 
0.21574267329 0.22097769591 0.22613394295 0.23106402446 0.23563571414 0.23974100387 0.24330288338 0.2462791328 0.24866273573 
0.25047891489 0.25177920062 0.25263328143 0.25311958699 0.25331559016 0.25328871518 0.2530885715 0.2527410655 0.25224480762 
0.25157011026 0.25066071555 0.24943816395 0.24780841435 0.24567000175 0.2429227548 0.23947598457 0.23525514548 0.23020624231 
0.22429764646 0.21751939977 0.20988044585 0.20140447765 0.19212520077 0.18208178038 0.17131508248 0.159865076 0.1477694986 
0.13506368783 0.12178139606 0.10795642539 0.093624951585 0.078828356364 0.06361622025 0.048048909395 0.032199054615 0.016151296573 
8.54763817e-16 
_area 1 100 double
0 0.00058488306537 0.002319204507 0.0051439544663 0.0089661685406 0.013663981258 0.019090424568 0.025076166693 0.031432454606 
0.037955494124 0.044433102242 0.050654242493 0.056421654697 0.061566630364 0.065963419204 0.069539957144 0.07228228211 0.074231744397 
0.075475954834 0.076135642881 0.076350414681 0.076269636763 0.076070479127 0.075934636018 0.075868851853 0.075849765377 0.075932121755 
0.07623634087 0.076615142955 0.077019022692 0.077427801754 0.077837481961 0.078267910325 0.078799947555 0.079703557811 0.080787080027 
0.081889181644 0.082897120258 0.083718512693 0.084313087979 0.084729378159 0.085139996526 0.085836440603 0.087023365771 0.088865864447 
0.091768676195 0.094938189292 0.09816755515 0.1014484578 0.10486975103 0.10859132034 0.11280714345 0.11768659918 0.12330488973 
0.12959103534 0.1363225308 0.14317079295 0.14977237268 0.15579519316 0.16098313627 0.16517659133 0.16831307944 0.17041332928 
0.17155801794 0.17186073741 0.17144349072 0.17042049972 0.16889286889 0.1669516481 0.16468303236 0.16216888094 0.15947839815 
0.15665175922 0.15368230037 0.15050758901 0.1470171969 0.14307643785 0.13855756029 0.13336891802 0.12747596925 0.12091029563 
0.11376440854 0.1061731641 0.098286720102 0.09024309965 0.082148680351 0.074071755193 0.066049345716 0.058103275193 0.050259477841 
0.042564609221 0.035095912718 0.027963229483 0.021304531469 0.015277253018 0.010047205497 0.005776086468 0.0026083429206 0.00065843922367 
6.5982122462e-17 
