# vtk DataFile Version 5.1
vtk output
ASCII
DATASET POLYDATA
POINTS 100 float
-0.0806473 0.0154982 0.674536 -0.0809983 0.0152076 0.675094 -0.082055 0.0145455 0.676596 
-0.0837202 0.013596 0.678852 -0.08584 0.0124892 0.681569 -0.0882157 0.0113889 0.684379 
-0.0906185 0.0104772 0.686874 -0.0928064 0.00993762 0.688647 -0.0945404 0.009938 0.689329 
-0.0956009 0.0106157 0.688618 -0.0958008 0.0120655 0.686305 -0.0949957 0.0143321 0.682282 
-0.0930903 0.0174066 0.676544 -0.0900408 0.0212289 0.669179 -0.0858532 0.0256933 0.660345 
-0.0805792 0.0306585 0.650246 -0.0743083 0.0359594 0.639103 -0.0671597 0.0414204 0.627129 
-0.0592722 0.0468681 0.614499 -0.050795 0.0521428 0.601342 -0.0418783 0.0571077 0.587729 
-0.0326661 0.0616553 0.573672 -0.023289 0.0657097 0.559134 -0.0138597 0.0692273 0.544044 
-0.00446889 0.0721939 0.52831 0.0048169 0.0746198 0.51184 0.0139562 0.076534 0.494553 
0.0229323 0.0779778 0.476395 0.031752 0.0789986 0.457341 0.0404422 0.0796444 0.437394 
0.0490458 0.0799595 0.416584 0.0576157 0.0799817 0.394956 0.0662079 0.0797402 0.372561 
0.0748727 0.0792556 0.349444 0.0836466 0.07854 0.325638 0.0925427 0.077598 0.301162 
0.101543 0.0764283 0.276016 0.110592 0.0750254 0.250194 0.119593 0.073381 0.223688 
0.128408 0.0714863 0.196505 0.13686 0.0693334 0.168676 0.144743 0.0669175 0.140267 
0.151831 0.0642384 0.111386 0.157892 0.0613034 0.0821865 0.162709 0.0581281 0.0528604 
0.166089 0.0547391 0.0236284 0.167886 0.0511746 -0.00527454 0.16801 0.047485 -0.0336182 
0.166437 0.0437329 -0.0611956 0.163212 0.0399909 -0.0878403 0.15845 0.0363392 -0.11344 
0.152322 0.0328618 -0.137944 0.145048 0.0296417 -0.161363 0.136876 0.026756 -0.183765 
0.128065 0.0242706 -0.205261 0.118865 0.0222358 -0.225987 0.109499 0.020683 -0.246088 
0.100149 0.0196227 -0.265698 0.0909454 0.0190448 -0.284922 0.0819655 0.0189201 -0.303828 
0.0732337 0.0192042 -0.322439 0.0647305 0.0198423 -0.340736 0.0564038 0.020775 -0.358667 
0.0481843 0.0219443 -0.376159 0.0400006 0.0232984 -0.393131 0.0317941 0.0247961 -0.409517 
0.023531 0.0264085 -0.425274 0.0152098 0.0281196 -0.440394 0.00686435 0.0299241 -0.454909 
-0.00143858 0.0318239 -0.468891 -0.00960575 0.0338234 -0.48244 -0.0175278 0.0359238 -0.495673 
-0.0250914 0.0381189 -0.508706 -0.0321918 0.0403904 -0.521641 -0.0387439 0.0427066 -0.534546 
-0.0446907 0.045022 -0.547446 -0.0500082 0.0472799 -0.560314 -0.0547052 0.0494171 -0.573075 
-0.0588202 0.0513698 -0.585611 -0.0624137 0.0530807 -0.597772 -0.0655592 0.0545057 -0.609397 
-0.0683323 0.0556201 -0.620325 -0.0708016 0.0564224 -0.630423 -0.07302 0.0569355 -0.639589 
-0.0750207 0.0572058 -0.647771 -0.0768154 0.0572985 -0.654968 -0.0783966 0.0572915 -0.661225 
-0.0797433 0.0572663 -0.666628 -0.0808286 0.0572996 -0.67129 -0.0816282 0.0574545 -0.675335 
-0.0821287 0.0577731 -0.678883 -0.0823342 0.0582717 -0.682036 -0.08227 0.0589392 -0.684868 
-0.081983 0.0597386 -0.687418 -0.0815391 0.0606113 -0.689691 -0.0810165 0.0614849 -0.691665 
-0.0804978 0.0622815 -0.693295 -0.0800604 0.0629279 -0.694531 -0.079767 0.0633647 -0.695326 
-0.0796584 0.0635529 -0.695644 
LINES 2 100
OFFSETS vtktypeint64
0 100 
CONNECTIVITY vtktypeint64
0 1 2 3 4 5 6 7 8 
9 10 11 12 13 14 15 16 17 
18 19 20 21 22 23 24 25 26 
27 28 29 30 31 32 33 34 35 
36 37 38 39 40 41 42 43 44 
45 46 47 48 49 50 51 52 53 
54 55 56 57 58 59 60 61 62 
63 64 65 66 67 68 69 70 71 
72 73 74 75 76 77 78 79 80 
81 82 83 84 85 86 87 88 89 
90 91 92 93 94 95 96 97 98 
99 
POINT_DATA 100
FIELD FieldData 3
_theta 1 100 double
0 0.031733259127 0.063466518254 0.095199777382 0.12693303651 0.15866629564 0.19039955476 0.22213281389 0.25386607302 
0.28559933214 0.31733259127 0.3490658504 0.38079910953 0.41253236865 0.44426562778 0.47599888691 0.50773214603 0.53946540516 
0.57119866429 0.60293192342 0.63466518254 0.66639844167 0.6981317008 0.72986495992 0.76159821905 0.79333147818 0.82506473731 
0.85679799643 0.88853125556 0.92026451469 0.95199777382 0.98373103294 1.0154642921 1.0471975512 1.0789308103 1.1106640695 
1.1423973286 1.1741305877 1.2058638468 1.237597106 1.2693303651 1.3010636242 1.3327968833 1.3645301425 1.3962634016 
1.4279966607 1.4597299198 1.491463179 1.5231964381 1.5549296972 1.5866629564 1.6183962155 1.6501294746 1.6818627337 
1.7135959929 1.745329252 1.7770625111 1.8087957702 1.8405290294 1.8722622885 1.9039955476 1.9357288068 1.9674620659 
1.999195325 2.0309285841 2.0626618433 2.0943951024 2.1261283615 2.1578616206 2.1895948798 2.2213281389 2.253061398 
2.2847946572 2.3165279163 2.3482611754 2.3799944345 2.4117276937 2.4434609528 2.4751942119 2.506927471 2.5386607302 
2.5703939893 2.6021272484 2.6338605076 2.6655937667 2.6973270258 2.7290602849 2.7607935441 2.7925268032 2.8242600623 
2.8559933214 2.8877265806 2.9194598397 2.9511930988 2.982926358 3.0146596171 3.0463928762 3.0781261353 3.1098593945 
3.1415926536 
_radius 1 100 double
1.4546253712e-15 0.016905814112 0.033617102917 0.049950415644 0.065736111139 0.08082154215 0.095072178177 0.10837266432 0.12062990106 
0.13177809642 0.14178319016 0.15064357422 0.15838576938 0.16505605101 0.17071064216 0.17540750639 0.17920197626 0.18214688735 
0.18429630254 0.18571089043 0.1864626576 0.1866369431 0.18633044523 0.18564549491 0.18468223302 0.18353103405 0.18226709163 
0.18094783338 0.17961252533 0.17828282796 0.17696345908 0.17564315361 0.17429706961 0.17289203243 0.17139532264 0.16978640195 
0.16806961665 0.1662850046 0.16451405137 0.1628776136 0.16152445186 0.16061140639 0.16028016963 0.16063854453 0.16175224082 
0.16364671149 0.16631309882 0.16971257392 0.17377737927 0.17841046926 0.18348682605 0.18885874039 0.19436571649 0.19984800367 
0.20516148531 0.21019101152 0.2148594387 0.21913061972 0.2230060322 0.22651612717 0.22970841387 0.23263461386 0.2353390007 
0.23784949937 0.24017246369 0.24229141396 0.24416945372 0.24575461501 0.24698703768 0.24780671518 0.24816055611 0.24800769541 
0.2473222864 0.24609336855 0.24432181178 0.24201478152 0.23917863882 0.2358116263 0.23189795613 0.22740482518 0.22228333137 
0.21647334846 0.20991143302 0.20254014353 0.19431696537 0.18522133973 0.17525888851 0.1644625608 0.15289091365 0.14062401793 
0.12775758961 0.11439598555 0.1006447522 0.086603488252 0.072359821253 0.057985214464 0.043533073715 0.029039261685 0.01452476409 
6.1730521508e-16 
_area 1 100 double
0 0.00065091160023 0.0025935172732 0.0058039800772 0.010252369354 0.015882529494 0.022559650206 0.030030240972 0.037928900668 
0.045825449101 0.053291540268 0.059966856837 0.065608226545 0.070109045774 0.073483766609 0.075825219033 0.077255469523 0.077890919631 
0.077828573112 0.077148862742 0.075929082629 0.074261903199 0.072271417193 0.070122426862 0.068031342532 0.066246070423 0.064939871507 
0.063915542054 0.063196045621 0.062811441612 0.062769160747 0.063149997124 0.063794358162 0.064563904289 0.065317588566 0.065930651455 
0.06632958285 0.066511073396 0.066543713896 0.066548864705 0.066673215099 0.067088391901 0.067975996264 0.06948306329 0.071677673379 
0.074538509657 0.077971793946 0.081844548461 0.086104590255 0.090788566978 0.095943105413 0.1015475136 0.10748607341 0.11356874092 
0.11957437949 0.12529341627 0.13055966552 0.13526866657 0.13937979679 0.14290417322 0.14588625335 0.14838720274 0.150473048 
0.15220345062 0.15361214654 0.15468780586 0.15538625455 0.15566125908 0.15547946312 0.15481875309 0.15366069189 0.15198435593 
0.14976659765 0.14699071394 0.14366020345 0.13980855694 0.13549532139 0.13078703885 0.12573289271 0.12034827228 0.11461392372 
0.10848992488 0.10193715879 0.094937299292 0.087505448836 0.079694211991 0.071591361738 0.063314263865 0.055003011221 0.04681234439 
0.038901934445 0.031425848685 0.024523448702 0.018314028208 0.012896024464 0.0083496307033 0.0047403544458 0.0021212062154 0.00053252091502 
2.8676937342e-17 
