# vtk DataFile Version 5.1
vtk output
ASCII
DATASET POLYDATA
POINTS 100 float
-0.110266 -0.104265 0.776132 -0.110182 -0.103887 0.775477 -0.109899 -0.102503 0.773463 
-0.10942 -0.100138 0.770185 -0.10875 -0.0968342 0.765793 -0.107896 -0.0926516 0.760475 
-0.106868 -0.0876675 0.754437 -0.105674 -0.0819738 0.747882 -0.104324 -0.075674 0.74099 
-0.102822 -0.0688802 0.7339 -0.101167 -0.0617079 0.726699 -0.0993472 -0.0542717 0.719418 
-0.0973382 -0.0466794 0.712027 -0.0951005 -0.0390276 0.704448 -0.0925781 -0.0313971 0.696563 
-0.0896995 -0.0238499 0.688233 -0.0863804 -0.0164278 0.679309 -0.0825284 -0.00915299 0.669653 
-0.0780503 -0.0020302 0.659151 -0.0728599 0.00494879 0.647722 -0.0668871 0.0117997 0.63532 
-0.0600863 0.0185389 0.62194 -0.0524438 0.0251773 0.607609 -0.0439823 0.0317136 0.592382 
-0.0347629 0.0381297 0.576327 -0.024883 0.0443879 0.559518 -0.0144712 0.0504307 0.542027 
-0.00367846 0.0561821 0.523911 0.00733293 0.0615528 0.505212 0.0184012 0.0664463 0.485953 
0.0293773 0.0707669 0.466139 0.040135 0.0744283 0.445766 0.0505785 0.0773612 0.424819 
0.060646 0.0795208 0.403283 0.0703088 0.0808909 0.381149 0.0795664 0.0814868 0.358414 
0.0884372 0.0813547 0.335087 0.0969476 0.0805678 0.311188 0.105119 0.0792211 0.286746 
0.112954 0.0774233 0.261794 0.120428 0.0752886 0.236373 0.127484 0.0729271 0.210519 
0.134027 0.0704374 0.184269 0.139926 0.0678998 0.157658 0.145028 0.065372 0.130718 
0.149167 0.0628878 0.103486 0.152175 0.0604575 0.076005 0.153906 0.0580717 0.0483287 
0.154245 0.0557066 0.020527 0.153125 0.0533303 -0.00731231 0.150535 0.0509103 -0.0350831 
0.146523 0.0484199 -0.0626626 0.141192 0.045844 -0.089917 0.134699 0.0431836 -0.116708 
0.127234 0.0404572 -0.142901 0.119013 0.0377013 -0.168376 0.110254 0.034968 -0.193035 
0.101164 0.0323216 -0.216807 0.0919212 0.0298332 -0.239657 0.0826683 0.0275751 -0.261581 
0.0735019 0.0256155 -0.282605 0.0644737 0.0240126 -0.302783 0.0555942 0.0228108 -0.322181 
0.0468406 0.0220377 -0.340874 0.0381688 0.0217023 -0.358936 0.0295261 0.0217951 -0.376429 
0.020864 0.0222891 -0.393398 0.0121493 0.0231424 -0.409872 0.00337238 0.0243009 -0.425862 
-0.00544855 0.0257019 -0.441368 -0.0142672 0.027278 -0.456382 -0.0230124 0.0289604 -0.470902 
-0.0315954 0.0306824 -0.484933 -0.0399177 0.0323821 -0.498496 -0.0478809 0.0340049 -0.511632 
-0.0553953 0.0355056 -0.524398 -0.0623873 0.0368498 -0.536864 -0.0688041 0.0380146 -0.549106 
-0.0746155 0.0389896 -0.561192 -0.0798128 0.0397765 -0.573171 -0.0844061 0.0403885 -0.585062 
-0.088419 0.0408495 -0.596843 -0.0918827 0.0411921 -0.60845 -0.0948313 0.0414552 -0.619771 
-0.0972972 0.0416814 -0.630658 -0.0993087 0.0419134 -0.640937 -0.100889 0.0421911 -0.65042 
-0.10206 0.0425476 -0.65893 -0.10284 0.0430068 -0.666319 -0.103254 0.0435807 -0.672482 
-0.103334 0.044268 -0.677376 -0.10312 0.0450539 -0.681027 -0.102668 0.0459109 -0.683528 
-0.102042 0.0468012 -0.685035 -0.101317 0.0476793 -0.685752 -0.100573 0.0484966 -0.685912 
-0.0998863 0.0492052 -0.68575 -0.0993283 0.0497629 -0.685483 -0.0989543 0.0501364 -0.685283 
-0.0988004 0.0503051 -0.685261 
LINES 2 100
OFFSETS vtktypeint64
0 100 
CONNECTIVITY vtktypeint64
0 1 2 3 4 5 6 7 8 
9 10 11 12 13 14 15 16 17 
18 19 20 21 22 23 24 25 26 
27 28 29 30 31 32 33 34 35 
36 37 38 39 40 41 42 43 44 
45 46 47 48 49 50 51 52 53 
54 55 56 57 58 59 60 61 62 
63 64 65 66 67 68 69 70 71 
72 73 74 75 76 77 78 79 80 
81 82 83 84 85 86 87 88 89 
90 91 92 93 94 95 96 97 98 
99 
POINT_DATA 100
FIELD FieldData 3
_theta 1 100 double
0 0.031733259127 0.063466518254 0.095199777382 0.12693303651 0.15866629564 0.19039955476 0.22213281389 0.25386607302 
0.28559933214 0.31733259127 0.3490658504 0.38079910953 0.41253236865 0.44426562778 0.47599888691 0.50773214603 0.53946540516 
0.57119866429 0.60293192342 0.63466518254 0.66639844167 0.6981317008 0.72986495992 0.76159821905 0.79333147818 0.82506473731 
0.85679799643 0.88853125556 0.92026451469 0.95199777382 0.98373103294 1.0154642921 1.0471975512 1.0789308103 1.1106640695 
1.1423973286 1.1741305877 1.2058638468 1.237597106 1.2693303651 1.3010636242 1.3327968833 1.3645301425 1.3962634016 
1.4279966607 1.4597299198 1.491463179 1.5231964381 1.5549296972 1.5866629564 1.6183962155 1.6501294746 1.6818627337 
1.7135959929 1.745329252 1.7770625111 1.8087957702 1.8405290294 1.8722622885 1.9039955476 1.9357288068 1.9674620659 
1.999195325 2.0309285841 2.0626618433 2.0943951024 2.1261283615 2.1578616206 2.1895948798 2.2213281389 2.253061398 
2.2847946572 2.3165279163 2.3482611754 2.3799944345 2.4117276937 2.4434609528 2.4751942119 2.506927471 2.5386607302 
2.5703939893 2.6021272484 2.6338605076 2.6655937667 2.6973270258 2.7290602849 2.7607935441 2.7925268032 2.8242600623 
2.8559933214 2.8877265806 2.9194598397 2.9511930988 2.982926358 3.0146596171 3.0463928762 3.0781261353 3.1098593945 
3.1415926536 
_radius 1 100 double
8.9777596411e-16 0.014100829192 0.028030295897 0.041628999478 0.054783210411 0.067433937934 0.079572481517 0.091224188852 0.10242574026 
0.11320289647 0.12355455332 0.13344595762 0.14281073832 0.15155937245 0.15959121944 0.16680783425 0.17312609478 0.17849012454 
0.18288090913 0.18632224553 0.18888175842 0.19066642273 0.19181313221 0.19247588156 0.19281170142 0.19296746175 0.19306912393 
0.1932142049 0.19346742014 0.1938589811 0.19438499891 0.19500982281 0.1956706198 0.19628469894 0.19675974996 0.19700632834 
0.1969509635 0.19654770096 0.19578593346 0.19469308199 0.1933319963 0.1917943698 0.19019236188 0.18865062394 0.18730011134 
0.18627388387 0.18570397796 0.18571756167 0.18643022881 0.18793498383 0.19028750691 0.19349102999 0.19748600442 0.20214915921 
0.20730346571 0.2127367022 0.21822392801 0.22354910136 0.22852259857 0.23299327638 0.2368551336 0.24004934118 0.24256255391 
0.24442223134 0.2456894064 0.24644911608 0.24679866953 0.24683414676 0.24663603164 0.24625564783 0.24570490042 0.24495227674 
0.24392741194 0.24253427214 0.24066978461 0.23824250966 0.23518631779 0.23146658591 0.22707932173 0.22204541197 0.21640255639 
0.21019686179 0.20347518702 0.19627859934 0.1886368817 0.18056392075 0.17205396878 0.16307913562 0.15358886574 0.14351236809 
0.13276478811 0.12125728863 0.10891028674 0.095668181393 0.08151331678 0.066476844381 0.050644565983 0.034156613434 0.017200751159 
1.1344172216e-15 
_area 1 100 double
0 0.00061921950129 0.0024364780346 0.0053412972273 0.0091807236682 0.01379215901 0.01902815185 0.024764749043 0.030893094444 
0.037300905045 0.043854751192 0.050393348056 0.056734060138 0.062685999082 0.068061719023 0.072684860268 0.076397382062 0.079072518701 
0.080636193821 0.081092134561 0.080539986909 0.079176584337 0.077278193594 0.075171163607 0.073238072979 0.071926737236 0.071088454778 
0.070639562373 0.070522903959 0.07073274992 0.071328121201 0.072387044697 0.073893959207 0.075724829246 0.077748386736 0.079823702364 
0.081927698372 0.083955197904 0.085816718677 0.087504316527 0.088975052675 0.09023576352 0.091317325065 0.092271188353 0.093184878897 
0.094142431137 0.095268803344 0.09669771612 0.098539891018 0.100924739 0.10398890539 0.10786034618 0.11262777059 0.11830130148 
0.12478115718 0.13185077268 0.13919942141 0.14646566655 0.15328754941 0.15934781256 0.16440655585 0.1683175404 0.17102852492 
0.17256992015 0.1730377842 0.17257565355 0.17135616798 0.16956105997 0.16735920294 0.16488517938 0.16222127992 0.1593859596 
0.15633486096 0.15298089601 0.14923153543 0.14502895271 0.14037291889 0.1353135986 0.12991854266 0.12423526104 0.1182733266 
0.11201240625 0.10542378466 0.098490908358 0.091222240557 0.08365545803 0.075854189599 0.06789957035 0.059880065232 0.051884039739 
0.043999319753 0.036321146935 0.028964689111 0.022074048851 0.015820703762 0.010390112107 0.0059612120411 0.0026862253632 0.00067700110995 
4.5114137527e-17 
