# vtk DataFile Version 5.1
vtk output
ASCII
DATASET POLYDATA
POINTS 100 float
-0.089768 -0.0588118 0.76388 -0.0896472 -0.0587925 0.763274 -0.0892973 -0.0584805 0.761448 
-0.0887519 -0.057841 0.758445 -0.0880609 -0.0568225 0.754335 -0.087283 -0.0553645 0.749213 
-0.0864753 -0.0534044 0.743192 -0.085683 -0.0508867 0.736398 -0.08493 -0.0477704 0.728962 
-0.0842105 -0.0440352 0.721013 -0.0834847 -0.0396857 0.712669 -0.082677 -0.0347523 0.704026 
-0.0816795 -0.0292902 0.695155 -0.0803583 -0.0233758 0.686093 -0.0785637 -0.0171003 0.676837 
-0.0761429 -0.0105637 0.66735 -0.0729535 -0.00386742 0.657558 -0.0688766 0.00289179 0.647358 
-0.0638293 0.00962688 0.636626 -0.0577726 0.0162635 0.62523 -0.0507166 0.0227409 0.613039 
-0.042721 0.0290112 0.599939 -0.0338907 0.035036 0.585842 -0.0243676 0.0407838 0.570695 
-0.0143185 0.0462249 0.554485 -0.00392199 0.0513286 0.537241 0.00664609 0.0560603 0.519028 
0.017226 0.0603808 0.499942 0.0276849 0.0642463 0.4801 0.037924 0.0676117 0.459623 
0.0478815 0.0704335 0.438627 0.0575305 0.0726743 0.417209 0.0668729 0.0743076 0.395435 
0.0759294 0.0753213 0.373338 0.0847267 0.0757209 0.350914 0.0932849 0.0755302 0.328124 
0.101604 0.0747907 0.304902 0.109655 0.0735587 0.28117 0.117371 0.071902 0.256847 
0.124649 0.0698941 0.231864 0.13135 0.0676092 0.206178 0.137307 0.0651176 0.179784 
0.142341 0.0624812 0.152718 0.146274 0.0597516 0.12506 0.148942 0.0569693 0.0969338 
0.150219 0.0541651 0.0684971 0.150024 0.0513623 0.0399303 0.148333 0.0485809 0.0114244 
0.145186 0.045841 -0.0168336 0.140683 0.043167 -0.0446731 0.134977 0.0405896 -0.0719507 
0.128265 0.0381474 -0.0985571 0.120769 0.0358856 -0.12442 0.112721 0.0338537 -0.1495 
0.104343 0.032101 -0.173792 0.0958279 0.0306716 -0.197309 0.0873287 0.0295989 -0.220077 
0.0789483 0.0288999 -0.242126 0.0707354 0.0285718 -0.263481 0.0626874 0.0285895 -0.284156 
0.054757 0.0289062 -0.304151 0.0468648 0.0294562 -0.323455 0.0389136 0.0301593 -0.34205 
0.0308045 0.0309284 -0.359919 0.0224523 0.0316768 -0.37705 0.0137982 0.0323269 -0.393451 
0.00481926 0.0328171 -0.40915 -0.00446698 0.0331083 -0.424202 -0.0140028 0.0331874 -0.438692 
-0.0236954 0.0330682 -0.452725 -0.0334256 0.0327898 -0.466427 -0.0430595 0.032412 -0.479926 
-0.0524614 0.032009 -0.493347 -0.0615059 0.0316616 -0.506793 -0.0700885 0.0314486 -0.520337 
-0.0781333 0.031439 -0.534011 -0.0855967 0.0316851 -0.547798 -0.0924675 0.0322179 -0.561634 
-0.0987629 0.0330444 -0.575409 -0.104522 0.0341474 -0.588972 -0.109797 0.0354885 -0.602147 
-0.114643 0.0370116 -0.614744 -0.119112 0.0386491 -0.626574 -0.123244 0.0403282 -0.637465 
-0.127063 0.0419773 -0.647276 -0.130577 0.0435317 -0.655901 -0.133776 0.0449382 -0.663286 
-0.136644 0.0461585 -0.669422 -0.139156 0.0471702 -0.674348 -0.141293 0.047967 -0.678146 
-0.143044 0.0485573 -0.680933 -0.144411 0.0489614 -0.68285 -0.145415 0.0492083 -0.684053 
-0.146095 0.0493327 -0.684705 -0.146503 0.0493714 -0.68496 -0.146704 0.0493602 -0.684964 
-0.146765 0.0493315 -0.684843 -0.146749 0.0493123 -0.684696 -0.146709 0.0493228 -0.684599 
-0.146677 0.0493756 -0.684597 
LINES 2 100
OFFSETS vtktypeint64
0 100 
CONNECTIVITY vtktypeint64
0 1 2 3 4 5 6 7 8 
9 10 11 12 13 14 15 16 17 
18 19 20 21 22 23 24 25 26 
27 28 29 30 31 32 33 34 35 
36 37 38 39 40 41 42 43 44 
45 46 47 48 49 50 51 52 53 
54 55 56 57 58 59 60 61 62 
63 64 65 66 67 68 69 70 71 
72 73 74 75 76 77 78 79 80 
81 82 83 84 85 86 87 88 89 
90 91 92 93 94 95 96 97 98 
99 
POINT_DATA 100
FIELD FieldData 3
_theta 1 100 double
0 0.031733259127 0.063466518254 0.095199777382 0.12693303651 0.15866629564 0.19039955476 0.22213281389 0.25386607302 
0.28559933214 0.31733259127 0.3490658504 0.38079910953 0.41253236865 0.44426562778 0.47599888691 0.50773214603 0.53946540516 
0.57119866429 0.60293192342 0.63466518254 0.66639844167 0.6981317008 0.72986495992 0.76159821905 0.79333147818 0.82506473731 
0.85679799643 0.88853125556 0.92026451469 0.95199777382 0.98373103294 1.0154642921 1.0471975512 1.0789308103 1.1106640695 
1.1423973286 1.1741305877 1.2058638468 1.237597106 1.2693303651 1.3010636242 1.3327968833 1.3645301425 1.3962634016 
1.4279966607 1.4597299198 1.491463179 1.5231964381 1.5549296972 1.5866629564 1.6183962155 1.6501294746 1.6818627337 
1.7135959929 1.745329252 1.7770625111 1.8087957702 1.8405290294 1.8722622885 1.9039955476 1.9357288068 1.9674620659 
1.999195325 2.0309285841 2.0626618433 2.0943951024 2.1261283615 2.1578616206 2.1895948798 2.2213281389 2.253061398 
2.2847946572 2.3165279163 2.3482611754 2.3799944345 2.4117276937 2.4434609528 2.4751942119 2.506927471 2.5386607302 
2.5703939893 2.6021272484 2.6338605076 2.6655937667 2.6973270258 2.7290602849 2.7607935441 2.7925268032 2.8242600623 
2.8559933214 2.8877265806 2.9194598397 2.9511930988 2.982926358 3.0146596171 3.0463928762 3.0781261353 3.1098593945 
3.1415926536 
_radius 1 100 double
8.0074354617e-16 0.014448145736 0.028803935808 0.042976939789 0.056895067289 0.070508857684 0.083790567814 0.096728123355 0.10931513074 
0.12153902408 0.13336982519 0.14475185005 0.15560009771 0.16580221347 0.17522602983 0.18373188859 0.19118828854 0.19748890807 
0.20256875225 0.20641711304 0.2090852527 0.2106872433 0.21139320742 0.21141524693 0.21098748711 0.21034268354 0.20968846504 
0.20918629025 0.20893557175 0.20896450006 0.20922843591 0.2096165991 0.20996760152 0.2100931888 0.20980746666 0.20895727715 
0.20744915059 0.2052689493 0.20249125525 0.19927665269 0.19585661995 0.1925079719 0.18952136474 0.18717019587 0.18568583773 
0.18524204291 0.1859471417 0.18784016208 0.19088789744 0.19498321989 0.19994784333 0.20554309186 0.21148993161 0.21749623086 
0.22328677744 0.22863084231 0.23336281325 0.2373929966 0.24070754903 0.24335830865 0.24544481678 0.24709188971 0.24842659318 
0.24955831462 0.25056478224 0.25148542847 0.25232179261 0.25304331664 0.25359636425 0.25391451685 0.25392875415 0.25357663137 
0.25280976434 0.25159875647 0.24993444818 0.24782455419 0.24528561269 0.24233144123 0.23896046228 0.23514487646 0.23082449374 
0.22590710159 0.22027580646 0.21380224166 0.20636331592 0.1978585662 0.1882252357 0.17744878707 0.16556744827 0.15267034913 
0.1388896835 0.12438804726 0.10934263105 0.093928284762 0.078301604929 0.062588098518 0.046874112334 0.031204588123 0.015586880211 
7.1314418598e-16 
_area 1 100 double
0 0.00062820431198 0.0024840812641 0.0054845152358 0.0095009473019 0.01437311747 0.019925821015 0.025986071298 0.032397378599 
0.03902778158 0.045769308805 0.052528747754 0.059212313868 0.065709027837 0.071878504334 0.077548121148 0.082522368583 0.086604125207 
0.089624411508 0.091474642923 0.092134310725 0.09168800734 0.090329367959 0.088359802753 0.086412025189 0.085270714789 0.084669062381 
0.084620949947 0.085136166696 0.086196612801 0.087731515413 0.089604322329 0.091608829583 0.093487391411 0.094975059466 0.095857902591 
0.096030236107 0.095551884977 0.094665692895 0.093604786979 0.092453258853 0.091297065987 0.09029099986 0.089634045224 0.089536891219 
0.090205762693 0.091842283461 0.094646306943 0.09866108035 0.10372236005 0.1097166468 0.11649256652 0.12383137928 0.13144850872 
0.1390156097 0.14619548447 0.15268343594 0.1582486739 0.16276567245 0.1662244963 0.16871547473 0.1703929346 0.17143297804 
0.17200597714 0.17227014234 0.17236989483 0.17242233988 0.17248978519 0.17254772952 0.1724704968 0.17205835912 0.17109662675 
0.16941273133 0.16691161355 0.16358804319 0.15952033438 0.15484900516 0.14974282921 0.14435636516 0.13878756823 0.1330485473 
0.12706139042 0.12068209097 0.11374432295 0.10610863195 0.097703735478 0.088551968079 0.078776467723 0.068591356642 0.058278040403 
0.048152081499 0.038526550437 0.029678667298 0.02182590016 0.015115277806 0.0096262848295 0.0053845103542 0.0023811786454 0.00059326894638 
3.6483192984e-17 
