# vtk DataFile Version 5.1
vtk output
ASCII
DATASET POLYDATA
POINTS 100 float
-0.0954296 -0.0384169 0.654679 -0.0956659 -0.0384416 0.655039 -0.0964315 -0.0383618 0.656071 
-0.0976572 -0.0381562 0.657602 -0.0992329 -0.0377915 0.659368 -0.101015 -0.0372248 0.661038 
-0.10284 -0.0364067 0.662257 -0.104531 -0.0352855 0.662676 -0.105915 -0.0338109 0.661996 
-0.106832 -0.0319375 0.659989 -0.10714 -0.0296283 0.656528 -0.106727 -0.0268565 0.651584 
-0.105511 -0.0236076 0.645234 -0.103444 -0.0198801 0.637632 -0.100504 -0.0156858 0.628997 
-0.0966993 -0.0110496 0.619573 -0.0920582 -0.00600842 0.609599 -0.0866269 -0.000611041 0.599282 
-0.080464 0.00508343 0.58877 -0.0736365 0.0110064 0.578135 -0.0662166 0.0170808 0.567369 
-0.0582798 0.023223 0.556392 -0.0499033 0.029344 0.54506 -0.041165 0.0353516 0.533192 
-0.0321429 0.0411537 0.520595 -0.0229134 0.0466608 0.507086 -0.0135499 0.0517897 0.49252 
-0.00412089 0.0564675 0.476807 0.0053131 0.0606347 0.459918 0.0147016 0.0642488 0.44189 
0.0240065 0.0672862 0.422819 0.033203 0.0697431 0.402845 0.0422796 0.0716355 0.382131 
0.0512357 0.0729967 0.360847 0.0600779 0.0738743 0.339147 0.0688147 0.0743253 0.317153 
0.0774493 0.0744106 0.294946 0.0859725 0.0741898 0.272558 0.0943563 0.0737152 0.249981 
0.102548 0.0730283 0.227172 0.110468 0.0721566 0.204065 0.118008 0.0711126 0.180593 
0.125035 0.0698953 0.156698 0.131399 0.0684932 0.132349 0.13694 0.0668883 0.107551 
0.141499 0.0650624 0.08235 0.144934 0.0630024 0.0568306 0.147128 0.0607059 0.031113 
0.148 0.0581854 0.00534097 0.147511 0.0554705 -0.0203295 0.145673 0.0526083 -0.0457439 
0.142539 0.0496613 -0.0707606 0.138207 0.0467032 -0.0952602 0.132806 0.0438135 -0.119151 
0.126487 0.0410703 -0.142371 0.119408 0.038544 -0.164882 0.111725 0.036291 -0.186671 
0.103578 0.0343492 -0.207735 0.0950836 0.0327354 -0.228078 0.0863302 0.0314454 -0.247706 
0.0773767 0.0304561 -0.266618 0.0682555 0.0297299 -0.284812 0.0589786 0.0292209 -0.302278 
0.0495461 0.0288815 -0.319011 0.0399556 0.028669 -0.335013 0.0302104 0.028551 -0.350299 
0.0203278 0.0285099 -0.364904 0.0103427 0.0285441 -0.378888 0.000309405 0.0286672 -0.392329 
-0.00970059 0.0289052 -0.405329 -0.019604 0.0292908 -0.417997 -0.029313 0.0298581 -0.430445 
-0.0387439 0.0306348 -0.442773 -0.0478258 0.0316372 -0.45506 -0.0565073 0.0328646 -0.467349 
-0.0647618 0.0342973 -0.479642 -0.0725885 0.0358961 -0.491899 -0.0800111 0.0376047 -0.504036 
-0.0870724 0.0393546 -0.515933 -0.0938271 0.0410711 -0.527447 -0.100333 0.042681 -0.538423 
-0.106641 0.0441195 -0.548708 -0.112788 0.0453367 -0.558172 -0.11879 0.0463021 -0.566714 
-0.124639 0.0470075 -0.574273 -0.130305 0.0474658 -0.580833 -0.135736 0.0477095 -0.586423 
-0.140867 0.0477848 -0.591108 -0.14563 0.0477462 -0.594984 -0.149957 0.0476494 -0.598164 
-0.153796 0.0475444 -0.600766 -0.157111 0.0474708 -0.602902 -0.159891 0.0474536 -0.60467 
-0.162148 0.047502 -0.606143 -0.163914 0.0476104 -0.607373 -0.165238 0.0477611 -0.608388 
-0.166178 0.0479289 -0.609198 -0.16679 0.0480864 -0.6098 -0.167122 0.0482092 -0.610187 
-0.167204 0.0482807 -0.610351 
LINES 2 100
OFFSETS vtktypeint64
0 100 
CONNECTIVITY vtktypeint64
0 1 2 3 4 5 6 7 8 
9 10 11 12 13 14 15 16 17 
18 19 20 21 22 23 24 25 26 
27 28 29 30 31 32 33 34 35 
36 37 38 39 40 41 42 43 44 
45 46 47 48 49 50 51 52 53 
54 55 56 57 58 59 60 61 62 
63 64 65 66 67 68 69 70 71 
72 73 74 75 76 77 78 79 80 
81 82 83 84 85 86 87 88 89 
90 91 92 93 94 95 96 97 98 
99 
POINT_DATA 100
FIELD FieldData 3
_theta 1 100 double
0 0.031733259127 0.063466518254 0.095199777382 0.12693303651 0.15866629564 0.19039955476 0.22213281389 0.25386607302 
0.28559933214 0.31733259127 0.3490658504 0.38079910953 0.41253236865 0.44426562778 0.47599888691 0.50773214603 0.53946540516 
0.57119866429 0.60293192342 0.63466518254 0.66639844167 0.6981317008 0.72986495992 0.76159821905 0.79333147818 0.82506473731 
0.85679799643 0.88853125556 0.92026451469 0.95199777382 0.98373103294 1.0154642921 1.0471975512 1.0789308103 1.1106640695 
1.1423973286 1.1741305877 1.2058638468 1.237597106 1.2693303651 1.3010636242 1.3327968833 1.3645301425 1.3962634016 
1.4279966607 1.4597299198 1.491463179 1.5231964381 1.5549296972 1.5866629564 1.6183962155 1.6501294746 1.6818627337 
1.7135959929 1.745329252 1.7770625111 1.8087957702 1.8405290294 1.8722622885 1.9039955476 1.9357288068 1.9674620659 
1.999195325 2.0309285841 2.0626618433 2.0943951024 2.1261283615 2.1578616206 2.1895948798 2.2213281389 2.253061398 
2.2847946572 2.3165279163 2.3482611754 2.3799944345 2.4117276937 2.4434609528 2.4751942119 2.506927471 2.5386607302 
2.5703939893 2.6021272484 2.6338605076 2.6655937667 2.6973270258 2.7290602849 2.7607935441 2.7925268032 2.8242600623 
2.8559933214 2.8877265806 2.9194598397 2.9511930988 2.982926358 3.0146596171 3.0463928762 3.0781261353 3.1098593945 
3.1415926536 
_radius 1 100 double
3.4722214002e-16 0.015013748989 0.029899475895 0.044530592716 0.058788489867 0.072565199946 0.085764660488 0.098302612754 0.11010548209 
0.12110882486 0.13125602602 0.14049785101 0.14879321498 0.15611120075 0.16243402804 0.16776043409 0.17210881326 0.17551947705 
0.17805549017 0.17980166688 0.18086145698 0.18135164806 0.18139512465 0.18111239844 0.18061318386 0.17998964886 0.17931270143 
0.17863164116 0.1779762423 0.17735967825 0.17678096506 0.17622637979 0.17567002413 0.17507424938 0.17439136299 0.1735686271 
0.17255760398 0.17132607783 0.16986859235 0.16821209668 0.16641531553 0.16456251755 0.16275368195 0.16109367798 0.15968307258 
0.15861257095 0.15796182825 0.15780152904 0.15819575049 0.15920084686 0.16085850044 0.16318402528 0.16615461767 0.16970340992 
0.17372265931 0.17807490304 0.1826077453 0.18716780116 0.19161124884 0.19581060786 0.19965867407 0.2030708514 0.20598675227 
0.20837132487 0.21021523244 0.21153393899 0.21236499798 0.21276335069 0.21279489184 0.21252897238 0.21203075233 0.21135441101 
0.2105382069 0.20960199172 0.20854672024 0.20735436927 0.20598675613 0.20438322838 0.20245887562 0.20010563767 0.19719812979 
0.19360443543 0.18920020219 0.18388304558 0.17758411307 0.170274521 0.16196571857 0.15270432793 0.14256346638 0.13163341769 
0.120014001 0.10780924437 0.095123437707 0.082057402858 0.068704532287 0.055146934476 0.041452446005 0.027673314082 0.013847110486 
1.210193713e-15 
_area 1 100 double
0 0.00045340522902 0.0018139241807 0.0040800488899 0.0072404983909 0.01126076205 0.016068018094 0.021540738091 0.027506972703 
0.033751071298 0.040026341056 0.046071275098 0.051627957555 0.056461885531 0.060382284961 0.063261163102 0.06504833727 0.065779154096 
0.065572072464 0.064614890855 0.063140889029 0.061398706063 0.059622292428 0.058034717446 0.056953317149 0.056295440609 0.055918165807 
0.055621073952 0.055269162803 0.054819204122 0.054315034548 0.053883365847 0.053719464843 0.053996515219 0.054685294792 0.055717405274 
0.056922036301 0.058074577309 0.058993568147 0.059577691783 0.059819073137 0.059829825352 0.059789145365 0.060051867148 0.060816537501 
0.06180697346 0.062688558439 0.063377379773 0.063938842306 0.064552824223 0.065539352118 0.067182852667 0.069457088147 0.072338940174 
0.075820820746 0.079865677594 0.084386074668 0.089239505965 0.094235355031 0.09914894064 0.10374364475 0.10780077012 0.11114998933 
0.11369163642 0.11540643197 0.11635191367 0.11664485055 0.11642937819 0.11583989315 0.11497842316 0.11391438258 0.112694347 
0.11135042934 0.10990629045 0.10838239679 0.10679674804 0.10515372465 0.1034204099 0.10150255086 0.099237806669 0.096416422848 
0.092826712644 0.08831097662 0.082812114554 0.076396730748 0.069250044446 0.061643975722 0.053883859205 0.046246601928 0.038934729221 
0.032070177706 0.025723632589 0.019950106274 0.01480800637 0.010359403465 0.0066611138392 0.0037562633431 0.0016711736019 0.00041790590305 
5.6046259646e-17 
