# vtk DataFile Version 5.1
vtk output
ASCII
DATASET POLYDATA
POINTS 100 float
-0.15675 -0.0321465 0.74464 -0.156463 -0.032089 0.744714 -0.155646 -0.0317905 0.74491 
-0.154315 -0.0312477 0.745104 -0.152495 -0.0304543 0.745107 -0.150212 -0.0294009 0.744692 
-0.147495 -0.0280744 0.743616 -0.144364 -0.026458 0.741658 -0.140831 -0.0245315 0.738642 
-0.136894 -0.0222716 0.734454 -0.13253 -0.0196528 0.729059 -0.127701 -0.0166497 0.722499 
-0.12235 -0.0132382 0.71488 -0.116404 -0.00939876 0.706354 -0.109783 -0.00511883 0.697096 
-0.102404 -0.000395669 0.687271 -0.0941912 0.00476089 0.677012 -0.0850869 0.0103261 0.666399 
-0.0750583 0.0162588 0.655439 -0.0641076 0.0225 0.644072 -0.0522772 0.0289733 0.632173 
-0.0396522 0.0355856 0.619569 -0.0263604 0.0422292 0.606066 -0.0125666 0.0487847 0.591471 
0.00153558 0.0551248 0.575624 0.0157358 0.0611189 0.558415 0.0298209 0.0666384 0.539809 
0.0435897 0.0715618 0.519841 0.0568679 0.0757801 0.498621 0.0695193 0.0792019 0.476317 
0.081455 0.0817579 0.453132 0.092637 0.0834046 0.429282 0.103076 0.0841262 0.404967 
0.112825 0.0839364 0.380345 0.121968 0.0828781 0.35552 0.130602 0.0810208 0.330525 
0.13882 0.0784585 0.305329 0.146695 0.075304 0.279845 0.154263 0.0716837 0.253948 
0.161507 0.0677312 0.227503 0.168358 0.0635801 0.200389 0.174686 0.059357 0.172528 
0.180314 0.0551758 0.143902 0.185027 0.0511321 0.11457 0.188593 0.0472994 0.0846677 
0.190782 0.0437269 0.0544032 0.191393 0.0404396 0.0240398 0.190273 0.0374398 -0.00612673 
0.187335 0.0347107 -0.0357956 0.182574 0.0322212 -0.0646888 0.17607 0.0299321 -0.0925761 
0.167985 0.0278021 -0.119294 0.158555 0.0257945 -0.144757 0.148072 0.0238819 -0.168959 
0.136861 0.0220509 -0.191965 0.12526 0.0203041 -0.2139 0.113588 0.0186603 -0.234922 
0.102128 0.0171534 -0.255209 0.0911042 0.0158283 -0.274929 0.0806748 0.0147369 -0.294226 
0.070923 0.0139316 -0.313207 0.0618616 0.0134598 -0.33194 0.0534414 0.0133584 -0.350448 
0.0455663 0.0136496 -0.368724 0.0381113 0.0143374 -0.38674 0.030942 0.0154074 -0.404461 
0.0239332 0.0168274 -0.421857 0.0169846 0.0185503 -0.438914 0.0100319 0.0205187 -0.455639 
0.00305274 0.0226699 -0.472061 -0.00393359 0.0249418 -0.48822 -0.0108711 0.0272779 -0.504162 
-0.0176766 0.0296317 -0.519922 -0.024252 0.0319692 -0.535512 -0.0304976 0.0342696 -0.55091 
-0.0363247 0.0365246 -0.566052 -0.041666 0.0387347 -0.580829 -0.0464825 0.0409058 -0.5951 
-0.0507672 0.0430436 -0.608694 -0.0545438 0.0451487 -0.621433 -0.057862 0.0472123 -0.633153 
-0.0607909 0.0492131 -0.643718 -0.0634095 0.0511164 -0.653041 -0.0657977 0.052875 -0.661096 
-0.0680277 0.0544326 -0.667924 -0.0701575 0.0557289 -0.673625 -0.0722268 0.0567061 -0.678357 
-0.0742552 0.0573165 -0.682308 -0.0762437 0.0575289 -0.685683 -0.0781776 0.0573349 -0.688677 
-0.0800312 0.0567526 -0.691456 -0.081773 0.0558284 -0.694136 -0.0833704 0.0546355 -0.696779 
-0.084794 0.0532696 -0.699381 -0.0860197 0.0518421 -0.701889 -0.0870305 0.0504718 -0.704202 
-0.0878158 0.0492744 -0.7062 -0.0883699 0.0483528 -0.707756 -0.088691 0.0477882 -0.708764 
-0.0887783 0.0476324 -0.709151 
LINES 2 100
OFFSETS vtktypeint64
0 100 
CONNECTIVITY vtktypeint64
0 1 2 3 4 5 6 7 8 
9 10 11 12 13 14 15 16 17 
18 19 20 21 22 23 24 25 26 
27 28 29 30 31 32 33 34 35 
36 37 38 39 40 41 42 43 44 
45 46 47 48 49 50 51 52 53 
54 55 56 57 58 59 60 61 62 
63 64 65 66 67 68 69 70 71 
72 73 74 75 76 77 78 79 80 
81 82 83 84 85 86 87 88 89 
90 91 92 93 94 95 96 97 98 
99 
POINT_DATA 100
FIELD FieldData 3
_theta 1 100 double
0 0.031733259127 0.063466518254 0.095199777382 0.12693303651 0.15866629564 0.19039955476 0.22213281389 0.25386607302 
0.28559933214 0.31733259127 0.3490658504 0.38079910953 0.41253236865 0.44426562778 0.47599888691 0.50773214603 0.53946540516 
0.57119866429 0.60293192342 0.63466518254 0.66639844167 0.6981317008 0.72986495992 0.76159821905 0.79333147818 0.82506473731 
0.85679799643 0.88853125556 0.92026451469 0.95199777382 0.98373103294 1.0154642921 1.0471975512 1.0789308103 1.1106640695 
1.1423973286 1.1741305877 1.2058638468 1.237597106 1.2693303651 1.3010636242 1.3327968833 1.3645301425 1.3962634016 
1.4279966607 1.4597299198 1.491463179 1.5231964381 1.5549296972 1.5866629564 1.6183962155 1.6501294746 1.6818627337 
1.7135959929 1.745329252 1.7770625111 1.8087957702 1.8405290294 1.8722622885 1.9039955476 1.9357288068 1.9674620659 
1.999195325 2.0309285841 2.0626618433 2.0943951024 2.1261283615 2.1578616206 2.1895948798 2.2213281389 2.253061398 
2.2847946572 2.3165279163 2.3482611754 2.3799944345 2.4117276937 2.4434609528 2.4751942119 2.506927471 2.5386607302 
2.5703939893 2.6021272484 2.6338605076 2.6655937667 2.6973270258 2.7290602849 2.7607935441 2.7925268032 2.8242600623 
2.8559933214 2.8877265806 2.9194598397 2.9511930988 2.982926358 3.0146596171 3.0463928762 3.0781261353 3.1098593945 
3.1415926536 
_radius 1 100 double
4.220764384e-16 0.01828915467 0.036363303532 0.054017270803 0.071068219923 0.08736352069 0.10278453002 0.11724547831 0.13068771793 
0.14307078249 0.15436256598 0.16453113308 0.17354015252 0.18134892367 0.1879168213 0.19321106375 0.19721619627 0.19994356643 
0.20143924253 0.20178916899 0.2011207701 0.19960063011 0.19742823377 0.19482602733 0.19202629847 0.18925565245 0.18671823582 
0.18457929954 0.18295108771 0.18188321877 0.18135950954 0.18130244826 0.18158528435 0.18205024031 0.18253011251 0.18287006724 
0.18294716651 0.18268655484 0.18207369018 0.18116091328 0.18006566456 0.17895829144 0.17803962156 0.17751182518 0.17754949939 
0.17827897318 0.17977065999 0.18204340485 0.1850752638 0.18881451084 0.19318682463 0.1980973135 0.20342862277 0.20903887727 
0.21476430673 0.22042935105 0.2258627806 0.23091529244 0.23547398387 0.23947083096 0.24288410374 0.24573306951 0.24806751338 
0.24995447788 0.25146492911 0.25266267653 0.25359698768 0.25429930901 0.25478364224 0.25504955183 0.25508646754 0.25487785153 
0.25440393248 0.25364210792 0.25256477338 0.25113513678 0.2493022915 0.2469972035 0.24413117736 0.24059785392 0.23627904986 
0.23105399425 0.22481089512 0.21745933542 0.2089417694 0.19924238485 0.18839184564 0.1764669613 0.16358515411 0.14989462594 
0.13556203237 0.12075969156 0.10565366749 0.090393126711 0.075101079199 0.059867046069 0.044742680246 0.029741387107 0.014842522394 
7.2864836495e-16 
_area 1 100 double
0 0.00054901041558 0.002207856292 0.0049988250463 0.0089236529063 0.013932568468 0.019907637573 0.026664541163 0.033968503419 
0.041556533809 0.049158937963 0.056516207354 0.063390746157 0.069574885361 0.074896828244 0.079225306763 0.082473276297 0.084601681029 
0.085624455112 0.085613457819 0.084699482188 0.083067596215 0.08094767251 0.078592284798 0.076281331843 0.074187953606 0.072488771821 
0.071341306742 0.070921769533 0.071402837297 0.072892504707 0.075126039563 0.077819690513 0.080721555416 0.083598237899 0.086219991675 
0.088349744987 0.089801062026 0.090545452557 0.090787785069 0.090960369762 0.091287280668 0.091850703127 0.092750773622 0.094090057642 
0.095943707691 0.098381677058 0.10141985847 0.10487482175 0.10850455409 0.11222610453 0.11614705817 0.12050689115 0.12556974457 
0.13149050573 0.13820402482 0.14539176684 0.15254531655 0.15909761118 0.16455897875 0.16860641191 0.1711140231 0.17213701988 
0.17186662045 0.17057263475 0.16854860989 0.16607051215 0.16338901251 0.1608807196 0.15879402136 0.15700077343 0.15529604736 
0.15364650074 0.15202542334 0.15038130476 0.14862849328 0.14664265044 0.14425848835 0.14127512001 0.13747690578 0.13266783152 
0.12670687598 0.11953451339 0.11118808966 0.10180647082 0.091623390307 0.080948138064 0.07013331572 0.059532530306 0.049455802822 
0.040135487881 0.031715594528 0.024266893473 0.017814778988 0.012363308848 0.0079091484631 0.0044479505278 0.001976733509 0.00049418255595 
2.5948403901e-17 
