# vtk DataFile Version 5.1
vtk output
ASCII
DATASET POLYDATA
POINTS 100 float
-0.164026 0.0120572 0.759894 -0.164053 0.0120986 0.759804 -0.164118 0.0123293 0.759484 
-0.164129 0.0127386 0.758852 -0.163943 0.0133121 0.757783 -0.163384 0.014034 0.756124 
-0.162255 0.0148911 0.753712 -0.160364 0.0158753 0.750392 -0.157538 0.0169861 0.746035 
-0.153638 0.0182318 0.740556 -0.148577 0.0196283 0.733914 -0.142314 0.0211971 0.726122 
-0.134866 0.0229612 0.717239 -0.126292 0.0249405 0.707361 -0.116689 0.0271465 0.696607 
-0.106176 0.0295772 0.6851 -0.0948836 0.0322139 0.672954 -0.0829393 0.0350185 0.660256 
-0.0704581 0.0379344 0.647058 -0.0575366 0.0408884 0.633369 -0.0442508 0.0437956 0.61916 
-0.0306584 0.0465655 0.604363 -0.0168039 0.0491095 0.588888 -0.00272645 0.0513483 0.572632 
0.0115323 0.0532185 0.555496 0.0259203 0.0546777 0.537396 0.0403699 0.0557077 0.518277 
0.0547951 0.0563146 0.498114 0.0690924 0.0565266 0.476918 0.0831448 0.0563896 0.454733 
0.0968279 0.0559607 0.431626 0.110018 0.0553011 0.407676 0.1226 0.054469 0.382969 
0.134474 0.053513 0.357578 0.14556 0.0524679 0.331563 0.155796 0.051352 0.304962 
0.165142 0.0501679 0.277793 0.173568 0.0489046 0.250055 0.181054 0.0475424 0.221741 
0.187573 0.0460591 0.192847 0.193093 0.0444362 0.163384 0.197561 0.042665 0.13339 
0.200911 0.0407511 0.102939 0.203058 0.0387175 0.0721491 0.203904 0.0366043 0.0411778 
0.203353 0.0344668 0.0102223 0.201317 0.0323711 -0.020493 0.197733 0.0303873 -0.050729 
0.192573 0.0285829 -0.0802482 0.185858 0.0270159 -0.108831 0.177664 0.0257278 -0.13629 
0.16812 0.02474 -0.162486 0.157407 0.0240512 -0.187332 0.145748 0.0236382 -0.210798 
0.133392 0.0234585 -0.232909 0.120597 0.0234558 -0.253739 0.107609 0.0235667 -0.2734 
0.0946461 0.0237282 -0.292031 0.0818814 0.0238851 -0.30978 0.0694321 0.0239963 -0.326799 
0.0573552 0.0240392 -0.343226 0.0456485 0.0240125 -0.359184 0.0342588 0.0239356 -0.374772 
0.0230948 0.0238461 -0.390067 0.0120435 0.0237958 -0.405124 0.000988727 0.0238444 -0.419979 
-0.0101716 0.0240531 -0.434657 -0.0215101 0.0244782 -0.449173 -0.0330597 0.0251652 -0.463536 
-0.0448079 0.026145 -0.477749 -0.0566979 0.0274306 -0.491812 -0.0686343 0.0290174 -0.505717 
-0.0804943 0.0308835 -0.519447 -0.092141 0.0329924 -0.532975 -0.103439 0.035297 -0.546256 
-0.114268 0.0377432 -0.559232 -0.124535 0.0402737 -0.571834 -0.134183 0.0428323 -0.583981 
-0.143196 0.0453659 -0.595588 -0.151593 0.0478268 -0.606576 -0.15943 0.0501731 -0.616876 
-0.166783 0.0523696 -0.626439 -0.173745 0.054387 -0.635242 -0.180407 0.0562012 -0.64329 
-0.186851 0.0577933 -0.650616 -0.19314 0.0591494 -0.657279 -0.199314 0.0602604 -0.663357 
-0.205379 0.0611232 -0.668937 -0.211319 0.0617414 -0.674107 -0.217089 0.0621262 -0.678942 
-0.222626 0.0622972 -0.683495 -0.227856 0.0622826 -0.687794 -0.232695 0.0621186 -0.691833 
-0.237064 0.0618481 -0.695577 -0.240887 0.0615182 -0.698964 -0.244099 0.0611775 -0.701913 
-0.246646 0.060872 -0.704337 -0.248486 0.0606425 -0.706152 -0.249593 0.0605202 -0.707287 
-0.249948 0.0605248 -0.707698 
LINES 2 100
OFFSETS vtktypeint64
0 100 
CONNECTIVITY vtktypeint64
0 1 2 3 4 5 6 7 8 
9 10 11 12 13 14 15 16 17 
18 19 20 21 22 23 24 25 26 
27 28 29 30 31 32 33 34 35 
36 37 38 39 40 41 42 43 44 
45 46 47 48 49 50 51 52 53 
54 55 56 57 58 59 60 61 62 
63 64 65 66 67 68 69 70 71 
72 73 74 75 76 77 78 79 80 
81 82 83 84 85 86 87 88 89 
90 91 92 93 94 95 96 97 98 
99 
POINT_DATA 100
FIELD FieldData 3
_theta 1 100 double
0 0.031733259127 0.063466518254 0.095199777382 0.12693303651 0.15866629564 0.19039955476 0.22213281389 0.25386607302 
0.28559933214 0.31733259127 0.3490658504 0.38079910953 0.41253236865 0.44426562778 0.47599888691 0.50773214603 0.53946540516 
0.57119866429 0.60293192342 0.63466518254 0.66639844167 0.6981317008 0.72986495992 0.76159821905 0.79333147818 0.82506473731 
0.85679799643 0.88853125556 0.92026451469 0.95199777382 0.98373103294 1.0154642921 1.0471975512 1.0789308103 1.1106640695 
1.1423973286 1.1741305877 1.2058638468 1.237597106 1.2693303651 1.3010636242 1.3327968833 1.3645301425 1.3962634016 
1.4279966607 1.4597299198 1.491463179 1.5231964381 1.5549296972 1.5866629564 1.6183962155 1.6501294746 1.6818627337 
1.7135959929 1.745329252 1.7770625111 1.8087957702 1.8405290294 1.8722622885 1.9039955476 1.9357288068 1.9674620659 
1.999195325 2.0309285841 2.0626618433 2.0943951024 2.1261283615 2.1578616206 2.1895948798 2.2213281389 2.253061398 
2.2847946572 2.3165279163 2.3482611754 2.3799944345 2.4117276937 2.4434609528 2.4751942119 2.506927471 2.5386607302 
2.5703939893 2.6021272484 2.6338605076 2.6655937667 2.6973270258 2.7290602849 2.7607935441 2.7925268032 2.8242600623 
2.8559933214 2.8877265806 2.9194598397 2.9511930988 2.982926358 3.0146596171 3.0463928762 3.0781261353 3.1098593945 
3.1415926536 
_radius 1 100 double
9.0389580741e-16 0.017772586945 0.035444788834 0.052908134219 0.070046254271 0.086731892544 0.10282533607 0.11817529164 0.13262307528 
0.14601038771 0.15819010455 0.16903869655 0.17846835438 0.18643676009 0.19295275216 0.19807680507 0.20191612082 0.20461497523 
0.20634157786 0.20727305097 0.2075803063 0.20741467115 0.20689802974 0.20611787947 0.20512798511 0.20395430764 0.20260478392 
0.20108065364 0.19938671283 0.19753832415 0.19556415694 0.19350505989 0.19141054445 0.18933452291 0.18733129844 0.18545224636 
0.18374385671 0.18224809655 0.18100509173 0.18005640991 0.17944667266 0.17922242862 0.17942904437 0.18010757035 0.18129347589 
0.18301786091 0.18531007625 0.18819970662 0.19171599145 0.19588354105 0.20071413256 0.20619541453 0.21227859827 0.21886820998 
0.22581698424 0.23292792639 0.23996413868 0.24666576058 0.25277235574 0.25804816951 0.26230695521 0.26543275099 0.26739327516 
0.26824353148 0.26811865026 0.26721668789 0.26577375571 0.26403510463 0.26222634131 0.26052861855 0.25906052334 0.25786789154 
0.256921484 0.25612177237 0.25530996681 0.25428443264 0.25282133513 0.25069763224 0.24771373812 0.24371278667 0.23859374402 
0.23231664037 0.22489963933 0.21640913815 0.20694521964 0.19662529738 0.18556863933 0.17388375525 0.16165969686 0.14896149197 
0.13582944687 0.12228191266 0.10832112446 0.093941626077 0.079140429578 0.063927499172 0.048334663135 0.032420975718 0.016273060315 
1.2929687505e-15 
_area 1 100 double
0 0.00047256482099 0.0019064928143 0.0043424007967 0.0078249277924 0.012378626501 0.017987116825 0.024577780218 0.032011386264 
0.040077027919 0.048495526319 0.056935159873 0.065040537101 0.072470903197 0.078941380908 0.084260751707 0.088361312629 0.091316943423 
0.093335197917 0.094689353554 0.095615592618 0.096281200316 0.096802106523 0.097241559857 0.097599290297 0.097812060969 0.097772679795 
0.097362557271 0.096483929894 0.095087390557 0.093191920681 0.090892363482 0.088352364398 0.085784670798 0.083420597532 0.081468542508 
0.080071790598 0.079291631948 0.079121166264 0.07951402002 0.080427287279 0.081869833098 0.083994135971 0.086653571594 0.089431533284 
0.09217296731 0.094831081849 0.097444590997 0.10014039072 0.10312756 0.10667336364 0.11105956419 0.11652643128 0.12321885237 
0.13114102389 0.14011263181 0.14974483477 0.15948180115 0.16869400568 0.1767742295 0.18321719311 0.18767932022 0.19001407596 
0.19027946764 0.18871686486 0.18570298191 0.18168656938 0.17714776406 0.17256667853 0.16823505492 0.16456813957 0.16190122196 
0.15984026083 0.1581617961 0.1566778725 0.15512746699 0.15318851876 0.15052308254 0.14683623335 0.14192876476 0.13572730657 
0.12828505571 0.11975791114 0.11036855881 0.10037127996 0.090024967265 0.079576041614 0.069249297672 0.059243244892 0.049727010713 
0.040837810568 0.032680069591 0.025328083731 0.018833079373 0.013233375626 0.0085644893475 0.0048655462713 0.0021795650429 0.00054766874957 
2.0816681712e-17 
