# vtk DataFile Version 5.1
vtk output
ASCII
DATASET POLYDATA
POINTS 100 float
-0.188304 -0.0572514 0.784632 -0.187938 -0.0573994 0.784604 -0.186844 -0.0576705 0.784498 
-0.185051 -0.0580196 0.784188 -0.1826 -0.0583758 0.783486 -0.179539 -0.0586477 0.782165 
-0.175917 -0.0587286 0.779986 -0.171771 -0.0585038 0.776737 -0.167128 -0.0578573 0.772255 
-0.161991 -0.0566799 0.766452 -0.156344 -0.0548748 0.759323 -0.150152 -0.0523648 0.75095 
-0.143362 -0.0490957 0.741484 -0.135919 -0.0450407 0.731132 -0.127767 -0.0402015 0.720122 
-0.118866 -0.0346087 0.708672 -0.109203 -0.0283204 0.696962 -0.0987955 -0.0214195 0.685107 
-0.087703 -0.0140101 0.673137 -0.0760267 -0.00621231 0.660997 -0.0639073 0.00184222 0.648546 
-0.0515186 0.0100162 0.635578 -0.0390563 0.0181717 0.621846 -0.0267242 0.0261752 0.607094 
-0.0147189 0.0339015 0.591088 -0.0032134 0.0412377 0.573651 0.00765641 0.0480852 0.554677 
0.0178031 0.0543617 0.534155 0.0271941 0.0600019 0.512166 0.0358532 0.0649571 0.488877 
0.0438557 0.0691946 0.464519 0.0513194 0.0726967 0.439366 0.05839 0.0754585 0.413699 
0.0652241 0.0774864 0.387779 0.0719706 0.0787963 0.361819 0.0787524 0.0794123 0.335963 
0.0856512 0.0793652 0.310277 0.0926953 0.0786918 0.284748 0.0998536 0.0774344 0.259294 
0.107036 0.0756409 0.233782 0.114096 0.0733645 0.208054 0.120848 0.0706643 0.181952 
0.127078 0.0676056 0.155346 0.132562 0.0642593 0.128153 0.137091 0.0607022 0.100354 
0.140484 0.0570155 0.0720006 0.142607 0.0532837 0.0432103 0.143383 0.0495922 0.0141577 
0.1428 0.0460251 -0.0149432 0.140907 0.0426618 -0.0438601 0.137813 0.0395743 -0.0723645 
0.133673 0.0368233 -0.100252 0.128676 0.0344561 -0.127357 0.123022 0.0325036 -0.153565 
0.116914 0.0309793 -0.178814 0.110531 0.0298783 -0.203092 0.104025 0.0291782 -0.226429 
0.097504 0.0288407 -0.248883 0.0910339 0.0288144 -0.270525 0.0846357 0.0290381 -0.29143 
0.0782933 0.0294456 -0.311662 0.0719627 0.0299702 -0.331269 0.065585 0.0305489 -0.350282 
0.0590991 0.031127 -0.368715 0.0524552 0.0316615 -0.38657 0.0456262 0.0321232 -0.40385 
0.0386151 0.0324984 -0.420562 0.0314592 0.0327887 -0.43673 0.0242299 0.0330095 -0.452393 
0.0170285 0.0331881 -0.467611 0.00997768 0.0333598 -0.48246 0.00321148 0.0335642 -0.497023 
-0.0031368 0.0338415 -0.511384 -0.00894641 0.0342279 -0.525613 -0.0141198 0.0347522 -0.539758 
-0.018591 0.0354335 -0.553836 -0.0223306 0.0362788 -0.567826 -0.0253475 0.0372826 -0.581673 
-0.0276874 0.0384272 -0.595288 -0.0294268 0.0396841 -0.60856 -0.0306665 0.0410165 -0.621364 
-0.0315216 0.0423818 -0.633579 -0.032112 0.043735 -0.645096 -0.032553 0.0450322 -0.655833 
-0.0329469 0.0462333 -0.665741 -0.0333771 0.0473047 -0.674809 -0.0339038 0.0482218 -0.683057 
-0.0345626 0.0489695 -0.690535 -0.035365 0.0495431 -0.697313 -0.0363015 0.0499478 -0.703466 
-0.0373453 0.0501981 -0.709063 -0.0384568 0.0503158 -0.714159 -0.0395892 0.0503284 -0.718784 
-0.0406923 0.0502665 -0.722942 -0.0417174 0.0501621 -0.72661 -0.0426195 0.0500462 -0.729745 
-0.0433603 0.0499464 -0.732289 -0.0439089 0.049886 -0.734184 -0.0442427 0.0498818 -0.735375 
-0.0443482 0.0499438 -0.735826 
LINES 2 100
OFFSETS vtktypeint64
0 100 
CONNECTIVITY vtktypeint64
0 1 2 3 4 5 6 7 8 
9 10 11 12 13 14 15 16 17 
18 19 20 21 22 23 24 25 26 
27 28 29 30 31 32 33 34 35 
36 37 38 39 40 41 42 43 44 
45 46 47 48 49 50 51 52 53 
54 55 56 57 58 59 60 61 62 
63 64 65 66 67 68 69 70 71 
72 73 74 75 76 77 78 79 80 
81 82 83 84 85 86 87 88 89 
90 91 92 93 94 95 96 97 98 
99 
POINT_DATA 100
FIELD FieldData 3
_theta 1 100 double
0 0.031733259127 0.063466518254 0.095199777382 0.12693303651 0.15866629564 0.19039955476 0.22213281389 0.25386607302 
0.28559933214 0.31733259127 0.3490658504 0.38079910953 0.41253236865 0.44426562778 0.47599888691 0.50773214603 0.53946540516 
0.57119866429 0.60293192342 0.63466518254 0.66639844167 0.6981317008 0.72986495992 0.76159821905 0.79333147818 0.82506473731 
0.85679799643 0.88853125556 0.92026451469 0.95199777382 0.98373103294 1.0154642921 1.0471975512 1.0789308103 1.1106640695 
1.1423973286 1.1741305877 1.2058638468 1.237597106 1.2693303651 1.3010636242 1.3327968833 1.3645301425 1.3962634016 
1.4279966607 1.4597299198 1.491463179 1.5231964381 1.5549296972 1.5866629564 1.6183962155 1.6501294746 1.6818627337 
1.7135959929 1.745329252 1.7770625111 1.8087957702 1.8405290294 1.8722622885 1.9039955476 1.9357288068 1.9674620659 
1.999195325 2.0309285841 2.0626618433 2.0943951024 2.1261283615 2.1578616206 2.1895948798 2.2213281389 2.253061398 
2.2847946572 2.3165279163 2.3482611754 2.3799944345 2.4117276937 2.4434609528 2.4751942119 2.506927471 2.5386607302 
2.5703939893 2.6021272484 2.6338605076 2.6655937667 2.6973270258 2.7290602849 2.7607935441 2.7925268032 2.8242600623 
2.8559933214 2.8877265806 2.9194598397 2.9511930988 2.982926358 3.0146596171 3.0463928762 3.0781261353 3.1098593945 
3.1415926536 
_radius 1 100 double
3.9350319888e-16 0.019587931046 0.038789551945 0.057248220645 0.074658936678 0.090788350029 0.10548808952 0.11869945262 0.13044807349 
0.14082828226 0.149978532 0.15805131186 0.16518283973 0.17146868509 0.17695057951 0.18161705455 0.18541716908 0.18828369807 
0.19016046216 0.1910280685 0.19092315761 0.18994812053 0.1882704621 0.18611267011 0.18373436823 0.18140907 0.1793983683 
0.17792683035 0.17716089425 0.17719441377 0.17804219639 0.1796413359 0.18185911011 0.18450633719 0.18735595603 0.1901666073 
0.19270930825 0.19479359179 0.19628958749 0.1971437407 0.19738663211 0.1971317806 0.19656524451 0.19592719744 0.1954876864 
0.19551905334 0.19626727269 0.19792439482 0.20060488035 0.20432953179 0.20902080051 0.21451151769 0.22056600924 0.22690967139 
0.23326166261 0.23936552536 0.24501365888 0.2500629946 0.25444067715 0.25813994212 0.26120765886 0.26372606999 0.26579196636 
0.2674967382 0.26891033046 0.27007111066 0.27098226552 0.27161403236 0.27191029604 0.27179795953 0.27119773306 0.27003515987 
0.26825063015 0.26580698225 0.26269333459 0.25892421711 0.25453387159 0.24956659509 0.24406495019 0.23805829147 0.23155415586 
0.2245345509 0.21695812387 0.20876784158 0.19990250629 0.19030955336 0.17995639063 0.16883809582 0.15698035986 0.14443774052 
0.13128816835 0.11762504554 0.10354830073 0.089155640987 0.074535114185 0.059759914352 0.044886015464 0.029952684999 0.014985358619 
4.3362309756e-16 
_area 1 100 double
0 0.00070820841708 0.0028025719327 0.0061887095209 0.010701654419 0.016106571081 0.022115518876 0.028421887137 0.034745533506 
0.040876090599 0.046700846499 0.052206772105 0.057453705069 0.062527696385 0.067502568267 0.072482683449 0.07745537086 0.081936192792 
0.085458326815 0.087698268858 0.088502674022 0.087922814214 0.08622269814 0.083816569473 0.081117432853 0.078472708423 0.076157978991 
0.074342220907 0.073073602569 0.072313900373 0.071999800615 0.072098514759 0.072634172997 0.073678315292 0.075342247917 0.077914226606 
0.081963275886 0.086892036992 0.092036142508 0.096900957692 0.10108917657 0.10438342681 0.10677528301 0.10845964973 0.10972633612 
0.11091136603 0.11245390434 0.11477980119 0.11811540432 0.12251035998 0.12798664938 0.13455304113 0.14213541853 0.15052768299 
0.15938441312 0.16826379708 0.17670117262 0.18428440642 0.19071182555 0.19582342623 0.19960289967 0.20215414091 0.20366081723 
0.20433920087 0.20439289144 0.20397716507 0.20318252548 0.20204171283 0.20054829394 0.19867028078 0.19635516996 0.19353332359 
0.19012657864 0.1860633016 0.18129520373 0.1758086577 0.16962528734 0.16279191104 0.15536544549 0.14740083676 0.13894785596 
0.13005718636 0.12079124776 0.11123326043 0.10148924157 0.091680702114 0.081929682617 0.072341785545 0.062995727192 0.053946681972 
0.04524340946 0.03695021784 0.029162064923 0.022006085482 0.015630328343 0.010185639953 0.0058078735571 0.0026056025957 0.00065496871142 
2.2998625375e-17 
