# vtk DataFile Version 5.1
vtk output
ASCII
DATASET POLYDATA
POINTS 100 float
-0.0263404 -0.0603534 0.827634 -0.0264778 -0.0602329 0.827235 -0.0268306 -0.0596435 0.826034 
-0.0273879 -0.0585787 0.824004 -0.0281327 -0.0570312 0.821109 -0.0290439 -0.0549962 0.817307 
-0.0300966 -0.0524744 0.812554 -0.0312626 -0.0494749 0.806819 -0.0325096 -0.0460175 0.800084 
-0.0337995 -0.0421332 0.792352 -0.0350854 -0.0378628 0.783648 -0.0363084 -0.0332549 0.77402 
-0.0373937 -0.0283612 0.763535 -0.0382488 -0.0232327 0.752274 -0.0387619 -0.0179145 0.740321 
-0.0388042 -0.0124428 0.727761 -0.0382339 -0.00684219 0.714664 -0.0369045 -0.00112619 0.701085 
-0.034675 0.00470059 0.687057 -0.0314226 0.0106379 0.672588 -0.0270554 0.0166835 0.657667 
-0.0215256 0.0228263 0.64226 -0.0148384 0.0290397 0.626326 -0.00705844 0.0352757 0.609817 
0.00168987 0.041462 0.592689 0.0112274 0.0475017 0.57491 0.0213316 0.0532772 0.556463 
0.0317523 0.0586565 0.537351 0.0422316 0.0635032 0.517595 0.0525252 0.0676881 0.497233 
0.0624229 0.0711014 0.476316 0.0717655 0.0736639 0.454896 0.0804574 0.075336 0.433028 
0.0884714 0.0761232 0.410752 0.0958458 0.0760772 0.388096 0.102675 0.075292 0.365069 
0.10909 0.0738956 0.341661 0.115242 0.0720387 0.317845 0.121271 0.0698796 0.293582 
0.12729 0.06757 0.26883 0.13336 0.0652407 0.243548 0.139476 0.0629906 0.217708 
0.145566 0.0608788 0.191302 0.151487 0.058923 0.164348 0.15704 0.0571016 0.136891 
0.161988 0.0553616 0.109006 0.166075 0.0536295 0.080793 0.169059 0.0518248 0.052373 
0.170731 0.0498747 0.0238804 0.17094 0.0477263 -0.00454579 0.169607 0.0453568 -0.0327704 
0.166733 0.0427794 -0.0606697 0.162396 0.0400441 -0.0881375 0.156743 0.0372337 -0.115089 
0.149975 0.034455 -0.14146 0.142321 0.031827 -0.167211 0.134014 0.0294675 -0.192316 
0.125275 0.0274787 -0.216765 0.116282 0.0259358 -0.240554 0.107167 0.0248776 -0.263683 
0.0980022 0.0243029 -0.286149 0.0888033 0.0241703 -0.307948 0.0795394 0.0244037 -0.32907 
0.0701455 0.0249023 -0.349503 0.0605419 0.0255523 -0.369236 0.0506522 0.026241 -0.388263 
0.0404221 0.0268704 -0.406587 0.0298325 0.0273681 -0.424227 0.0189088 0.0276957 -0.441215 
0.00772219 0.0278526 -0.457604 -0.00361453 0.0278747 -0.473462 -0.014957 0.0278294 -0.488868 
-0.0261437 0.0278062 -0.503912 -0.0370118 0.0279055 -0.518678 -0.0474133 0.0282254 -0.533245 
-0.0572284 0.0288499 -0.547672 -0.0663747 0.0298387 -0.561994 -0.0748114 0.0312193 -0.576213 
-0.0825377 0.0329845 -0.5903 -0.0895869 0.0350922 -0.604189 -0.0960155 0.0374699 -0.617783 
-0.101891 0.0400221 -0.63096 -0.107281 0.0426398 -0.64358 -0.112238 0.0452108 -0.655495 
-0.116798 0.0476297 -0.666562 -0.120972 0.0498069 -0.676654 -0.124749 0.0516746 -0.685668 
-0.128103 0.0531911 -0.693533 -0.131 0.0543413 -0.700219 -0.133407 0.0551359 -0.705738 
-0.135306 0.055607 -0.710141 -0.136701 0.0558034 -0.713518 -0.13762 0.0557847 -0.715991 
-0.138122 0.0556155 -0.717703 -0.138288 0.0553599 -0.718809 -0.138217 0.0550774 -0.719466 
-0.138015 0.0548197 -0.719819 -0.137782 0.054628 -0.719995 -0.137599 0.0545324 -0.720089 
-0.137521 0.0545506 -0.720162 
LINES 2 100
OFFSETS vtktypeint64
0 100 
CONNECTIVITY vtktypeint64
0 1 2 3 4 5 6 7 8 
9 10 11 12 13 14 15 16 17 
18 19 20 21 22 23 24 25 26 
27 28 29 30 31 32 33 34 35 
36 37 38 39 40 41 42 43 44 
45 46 47 48 49 50 51 52 53 
54 55 56 57 58 59 60 61 62 
63 64 65 66 67 68 69 70 71 
72 73 74 75 76 77 78 79 80 
81 82 83 84 85 86 87 88 89 
90 91 92 93 94 95 96 97 98 
99 
POINT_DATA 100
FIELD FieldData 3
_theta 1 100 double
0 0.031733259127 0.063466518254 0.095199777382 0.12693303651 0.15866629564 0.19039955476 0.22213281389 0.25386607302 
0.28559933214 0.31733259127 0.3490658504 0.38079910953 0.41253236865 0.44426562778 0.47599888691 0.50773214603 0.53946540516 
0.57119866429 0.60293192342 0.63466518254 0.66639844167 0.6981317008 0.72986495992 0.76159821905 0.79333147818 0.82506473731 
0.85679799643 0.88853125556 0.92026451469 0.95199777382 0.98373103294 1.0154642921 1.0471975512 1.0789308103 1.1106640695 
1.1423973286 1.1741305877 1.2058638468 1.237597106 1.2693303651 1.3010636242 1.3327968833 1.3645301425 1.3962634016 
1.4279966607 1.4597299198 1.491463179 1.5231964381 1.5549296972 1.5866629564 1.6183962155 1.6501294746 1.6818627337 
1.7135959929 1.745329252 1.7770625111 1.8087957702 1.8405290294 1.8722622885 1.9039955476 1.9357288068 1.9674620659 
1.999195325 2.0309285841 2.0626618433 2.0943951024 2.1261283615 2.1578616206 2.1895948798 2.2213281389 2.253061398 
2.2847946572 2.3165279163 2.3482611754 2.3799944345 2.4117276937 2.4434609528 2.4751942119 2.506927471 2.5386607302 
2.5703939893 2.6021272484 2.6338605076 2.6655937667 2.6973270258 2.7290602849 2.7607935441 2.7925268032 2.8242600623 
2.8559933214 2.8877265806 2.9194598397 2.9511930988 2.982926358 3.0146596171 3.0463928762 3.0781261353 3.1098593945 
3.1415926536 
_radius 1 100 double
1.2262666877e-15 0.014040228702 0.027879865218 0.041335522622 0.054268749885 0.066597234743 0.078295041355 0.089382431036 0.099908329377 
0.10993014584 0.11949580722 0.12863157288 0.13733711523 0.14558729333 0.15333863741 0.16053809716 0.16713202505 0.17307425375 
0.17833293653 0.18289617415 0.18677631796 0.19001246239 0.19267035666 0.19483901654 0.19662375875 0.19813612734 0.19948206721 
0.20075047759 0.20200454773 0.20327763461 0.20457395203 0.20587279484 0.20713436025 0.2083056426 0.20932577149 0.21013091459 
0.21065928871 0.2108569007 0.21068429096 0.21012381452 0.20918618826 0.20791462541 0.2063851755 0.20470281834 0.20299401597 
0.20139730124 0.20005374609 0.19909873017 0.19865544482 0.19882935237 0.19970197408 0.20132261186 0.20369818773 0.20678364861 
0.21047692541 0.21462201127 0.21902126177 0.22345487648 0.22770347951 0.23156955583 0.23489467476 0.23757092105 0.23954612445 
0.24082322431 0.24145457144 0.24153226076 0.24117569947 0.24051754563 0.2396890317 0.23880572796 0.23795504248 0.23718693197 
0.23650903558 0.23588665334 0.23524700013 0.23448644022 0.23347920974 0.23208642655 0.23016472863 0.22757436217 0.22418673427 
0.21989132826 0.21460162471 0.20825950064 0.20083761518 0.19233950674 0.18279742534 0.17226821031 0.16082775033 0.14856471129 
0.13557427178 0.12195255385 0.10779228086 0.093179963516 0.078194655391 0.062908077475 0.047385729676 0.031688516211 0.015874433367 
1.9042523647e-15 
_area 1 100 double
0 0.00057065472915 0.0022503776701 0.0049482471035 0.0085302236409 0.012839943148 0.017719589431 0.023026555624 0.028642745365 
0.034474607612 0.040444207132 0.046474749784 0.052476147629 0.058335906963 0.063918438116 0.069073332899 0.073651034326 0.077522698369 
0.080600029848 0.082850940313 0.084308248923 0.085070407291 0.085294341875 0.085181761632 0.084961649128 0.084870302051 0.085133211318 
0.085999928869 0.087509954423 0.089368474965 0.091409785146 0.093540672023 0.095694138334 0.097703712889 0.099450686696 0.10085123043 
0.10186148568 0.1024875866 0.10277806826 0.10281312584 0.10269871237 0.10258809162 0.10262433867 0.10285425443 0.10331892057 
0.1040615072 0.10517890023 0.10661154718 0.10831618847 0.11029510218 0.11260004288 0.11534428264 0.11867984592 0.12273414211 
0.12752464695 0.13292029991 0.13867221602 0.14446793668 0.14998391067 0.15493029502 0.15908302227 0.16230019617 0.16452353633 
0.16576813256 0.16610544889 0.16564531898 0.16452115004 0.16287868446 0.16086522387 0.15861620609 0.15623957755 0.15380221126 
0.15132302984 0.14877478968 0.14609411478 0.14319846967 0.14000642818 0.1364523568 0.13248476987 0.1280507804 0.12308917689 
0.11754392591 0.11138151577 0.10459884574 0.097224909176 0.08932173858 0.080984387075 0.072336889696 0.063523582213 0.054699013023 
0.046020781327 0.037647296019 0.02973878745 0.022457737454 0.015965733452 0.010416537314 0.0059474543395 0.0026715343624 0.00067213365145 
3.651027162e-17 
