# vtk DataFile Version 5.1
vtk output
ASCII
DATASET POLYDATA
POINTS 100 float
-0.130809 -0.0485784 0.756082 -0.130738 -0.0487028 0.756018 -0.13054 -0.048903 0.755856 
-0.130205 -0.0491291 0.755517 -0.129718 -0.0493029 0.754878 -0.129057 -0.0493249 0.753785 
-0.128195 -0.0490823 0.752069 -0.127095 -0.0484589 0.749561 -0.125716 -0.047344 0.746111 
-0.124008 -0.0456418 0.741596 -0.121918 -0.0432783 0.735936 -0.119387 -0.0402072 0.729095 
-0.116353 -0.0364122 0.721082 -0.112756 -0.0319084 0.711948 -0.108539 -0.02674 0.701773 
-0.103651 -0.0209775 0.690662 -0.0980572 -0.0147126 0.678725 -0.0917361 -0.00805266 0.66607 
-0.0846893 -0.00111488 0.652788 -0.0769416 0.00597914 0.638952 -0.068544 0.0131083 0.624606 
-0.0595723 0.0201563 0.609768 -0.050125 0.0270144 0.594432 -0.0403184 0.0335839 0.578575 
-0.0302789 0.039778 0.562158 -0.0201348 0.0455226 0.545142 -0.0100062 0.0507574 0.527487 
4.47472e-06 0.0554368 0.509162 0.0098212 0.0595301 0.490147 0.0194005 0.0630227 0.470436 
0.0287347 0.0659162 0.450032 0.0378513 0.0682278 0.428951 0.0468083 0.0699903 0.407217 
0.0556856 0.0712496 0.384856 0.0645727 0.0720625 0.361898 0.073555 0.0724922 0.338372 
0.0826983 0.0726047 0.31431 0.0920347 0.0724626 0.289744 0.101551 0.0721209 0.264713 
0.111181 0.0716214 0.239261 0.120802 0.0709897 0.213444 0.130238 0.0702329 0.187327 
0.139271 0.0693397 0.16099 0.147649 0.0682823 0.134524 0.155109 0.0670212 0.108025 
0.161397 0.0655111 0.0815968 0.166283 0.0637086 0.0553377 0.169584 0.0615801 0.0293399 
0.171178 0.0591102 0.00368228 0.17101 0.0563076 -0.0215733 0.169098 0.0532102 -0.0463838 
0.16553 0.0498865 -0.070725 0.160451 0.046434 -0.0945888 0.154051 0.0429751 -0.117979 
0.146543 0.0396486 -0.140905 0.138151 0.0366004 -0.163376 0.129084 0.0339712 -0.185398 
0.119523 0.0318846 -0.206964 0.109614 0.0304363 -0.228057 0.099455 0.0296844 -0.24865 
0.0891041 0.0296432 -0.268709 0.0785807 0.0302807 -0.288196 0.0678783 0.03152 -0.30708 
0.0569778 0.0332444 -0.325344 0.0458626 0.0353067 -0.342988 0.0345319 0.0375409 -0.360037 
0.0230127 0.0397756 -0.376541 0.0113657 0.0418476 -0.392576 -0.000312109 0.0436153 -0.408233 
-0.0118916 0.0449694 -0.423615 -0.0232196 0.0458404 -0.438825 -0.0341313 0.0462032 -0.45395 
-0.0444647 0.0460764 -0.469054 -0.0540756 0.0455187 -0.484166 -0.0628508 0.0446212 -0.499273 
-0.0707187 0.043497 -0.514318 -0.0776556 0.0422698 -0.529204 -0.0836866 0.0410611 -0.543798 
-0.0888818 0.0399792 -0.557944 -0.0933481 0.0391092 -0.571477 -0.0972175 0.0385065 -0.584236 
-0.100634 0.0381926 -0.596082 -0.103737 0.0381559 -0.606907 -0.106655 0.0383541 -0.616648 
-0.109487 0.0387212 -0.625284 -0.112303 0.0391754 -0.632845 -0.115139 0.0396291 -0.639397 
-0.117998 0.0399988 -0.64504 -0.120857 0.0402139 -0.649892 -0.123669 0.0402245 -0.654079 
-0.12638 0.0400063 -0.657716 -0.12893 0.039563 -0.660904 -0.131262 0.038925 -0.663716 
-0.133331 0.0381466 -0.666197 -0.135101 0.0372991 -0.668363 -0.136552 0.036464 -0.670207 
-0.137673 0.0357234 -0.671703 -0.13846 0.0351522 -0.672822 -0.138916 0.0348096 -0.67353 
-0.139042 0.0347332 -0.673808 
LINES 2 100
OFFSETS vtktypeint64
0 100 
CONNECTIVITY vtktypeint64
0 1 2 3 4 5 6 7 8 
9 10 11 12 13 14 15 16 17 
18 19 20 21 22 23 24 25 26 
27 28 29 30 31 32 33 34 35 
36 37 38 39 40 41 42 43 44 
45 46 47 48 49 50 51 52 53 
54 55 56 57 58 59 60 61 62 
63 64 65 66 67 68 69 70 71 
72 73 74 75 76 77 78 79 80 
81 82 83 84 85 86 87 88 89 
90 91 92 93 94 95 96 97 98 
99 
POINT_DATA 100
FIELD FieldData 3
_theta 1 100 double
0 0.031733259127 0.063466518254 0.095199777382 0.12693303651 0.15866629564 0.19039955476 0.22213281389 0.25386607302 
0.28559933214 0.31733259127 0.3490658504 0.38079910953 0.41253236865 0.44426562778 0.47599888691 0.50773214603 0.53946540516 
0.57119866429 0.60293192342 0.63466518254 0.66639844167 0.6981317008 0.72986495992 0.76159821905 0.79333147818 0.82506473731 
0.85679799643 0.88853125556 0.92026451469 0.95199777382 0.98373103294 1.0154642921 1.0471975512 1.0789308103 1.1106640695 
1.1423973286 1.1741305877 1.2058638468 1.237597106 1.2693303651 1.3010636242 1.3327968833 1.3645301425 1.3962634016 
1.4279966607 1.4597299198 1.491463179 1.5231964381 1.5549296972 1.5866629564 1.6183962155 1.6501294746 1.6818627337 
1.7135959929 1.745329252 1.7770625111 1.8087957702 1.8405290294 1.8722622885 1.9039955476 1.9357288068 1.9674620659 
1.999195325 2.0309285841 2.0626618433 2.0943951024 2.1261283615 2.1578616206 2.1895948798 2.2213281389 2.253061398 
2.2847946572 2.3165279163 2.3482611754 2.3799944345 2.4117276937 2.4434609528 2.4751942119 2.506927471 2.5386607302 
2.5703939893 2.6021272484 2.6338605076 2.6655937667 2.6973270258 2.7290602849 2.7607935441 2.7925268032 2.8242600623 
2.8559933214 2.8877265806 2.9194598397 2.9511930988 2.982926358 3.0146596171 3.0463928762 3.0781261353 3.1098593945 
3.1415926536 
_radius 1 100 double
4.1841012409e-16 0.015782564852 0.031399909087 0.046686928502 0.06148489341 0.075644572848 0.08902922646 0.10151752255 0.11300647712 
0.12341449281 0.13268449479 0.14078701201 0.14772284796 0.15352476748 0.15825748347 0.16201527757 0.16491691127 0.16709804271 
0.16870198245 0.16987004805 0.17073282063 0.1714032549 0.17197203642 0.1725051025 0.17304304957 0.17360222659 0.17417745578 
0.17474630473 0.17527460254 0.17572258788 0.17605088807 0.17622552864 0.17622132754 0.17602333676 0.17562654058 0.17503475215 
0.17426013746 0.17332446483 0.17226204061 0.17112310279 0.16997589427 0.16890578222 0.16801032576 0.16738993394 0.16713484952 
0.16731103118 0.16794975601 0.16904617759 0.17056838661 0.17247277756 0.17471873485 0.17727733899 0.18013215935 0.18327280971 
0.18668375328 0.19033231792 0.19416042749 0.19808335048 0.20199609707 0.20578528089 0.2093426045 0.21257615813 0.21541712048 
0.21782140339 0.21976742409 0.22125196767 0.22228596007 0.22289125484 0.22309870863 0.22294718048 0.22248270517 0.22175691724 
0.22082383189 0.21973437433 0.21852862031 0.2172264862 0.21581838597 0.21425789385 0.21245848277 0.21029583343 0.20761611316 
0.2042493311 0.20002582403 0.19479344558 0.18843316629 0.18087133703 0.1720875231 0.1621173384 0.15105003132 0.13902083168 
0.12619850239 0.11276925633 0.098919028371 0.084816665616 0.070600591001 0.056370810186 0.042186951464 0.028071742458 0.014018383551 
8.8229436671e-16 
_area 1 100 double
0 0.00054574916939 0.0021786514625 0.004881235166 0.0086114327773 0.013288679136 0.018782837433 0.024909960508 0.031436770919 
0.038093699859 0.044594793051 0.050661797278 0.056049163438 0.060566477386 0.064095086808 0.066596714485 0.06811367612 0.068762217699 
0.068721323227 0.068219372584 0.067522460274 0.066918853771 0.066614733103 0.066617438455 0.066844409208 0.067195136362 0.067574226742 
0.067917955878 0.068216501047 0.068518830805 0.068890216655 0.069354630147 0.069915723384 0.070588687502 0.071390397315 0.072311456974 
0.073289356736 0.074202616015 0.074898783838 0.075244056202 0.075172413874 0.074724601511 0.074085767575 0.073667525321 0.074152737606 
0.075674649918 0.077947097097 0.080406860553 0.082901186253 0.085325232439 0.08775972665 0.09070396055 0.09410302102 0.097733942324 
0.10169033959 0.10610198699 0.11101042602 0.11632208084 0.12179392143 0.12706288556 0.13173711086 0.13550259999 0.13818820447 
0.13978022853 0.14039871767 0.14024668005 0.13954636612 0.13848302009 0.13717263809 0.1356546093 0.1339040786 0.13186603551 
0.12950451104 0.12684109752 0.12396110614 0.12098501524 0.11801666299 0.11508817941 0.11212649614 0.1089595959 0.10536007078 
0.10110580029 0.09603632572 0.090091004691 0.083321792756 0.075879519108 0.067979284137 0.059857272372 0.05173490273 0.043801779256 
0.036216213897 0.029112585579 0.022606803415 0.016797958714 0.011767920608 0.0075809041391 0.0042841526578 0.0019099283554 0.00047831262156 
5.5190801818e-17 
