# vtk DataFile Version 5.1
vtk output
ASCII
DATASET POLYDATA
POINTS 100 float
-0.0936283 -0.0170952 0.668935 -0.093568 -0.0171382 0.669028 -0.0934338 -0.0171148 0.669281 
-0.0931913 -0.0170216 0.669581 -0.0927867 -0.0168518 0.669755 -0.0921528 -0.0165939 0.669589 
-0.0912164 -0.0162302 0.66885 -0.0899062 -0.015735 0.667313 -0.0881602 -0.0150744 0.66478 
-0.085931 -0.0142068 0.661107 -0.0831901 -0.0130843 0.656207 -0.0799289 -0.011656 0.650065 
-0.0761576 -0.00987181 0.642725 -0.0719017 -0.00768697 0.634289 -0.0671978 -0.00506705 0.624892 
-0.0620874 -0.00199235 0.61469 -0.0566118 0.00153848 0.603832 -0.0508075 0.00550621 0.592445 
-0.044703 0.00987034 0.580617 -0.0383176 0.0145702 0.568388 -0.0316623 0.0195275 0.555749 
-0.0247418 0.0246506 0.542645 -0.0175578 0.0298391 0.528985 -0.0101138 0.0349891 0.51466 
-0.00241806 0.0399986 0.499557 0.00551312 0.0447713 0.483579 0.0136538 0.0492205 0.466659 
0.0219682 0.0532713 0.448772 0.0304127 0.0568613 0.429936 0.038938 0.0599412 0.410217 
0.0474928 0.0624741 0.389717 0.0560269 0.0644342 0.368567 0.0644943 0.0658067 0.34691 
0.0728539 0.0665869 0.324883 0.0810697 0.0667806 0.30261 0.0891085 0.0664044 0.280182 
0.096936 0.0654867 0.257656 0.104512 0.0640693 0.235049 0.111786 0.0622073 0.212346 
0.118691 0.0599695 0.189503 0.125144 0.0574371 0.166462 0.131039 0.0547013 0.143163 
0.136258 0.0518589 0.119559 0.140666 0.0490077 0.0956254 0.144129 0.0462405 0.0713713 
0.146514 0.0436388 0.0468414 0.147708 0.0412675 0.022117 0.147624 0.0391704 -0.00268918 
0.14621 0.0373679 -0.0274413 0.14346 0.0358567 -0.0519915 0.139412 0.0346118 -0.0761917 
0.134151 0.0335915 -0.0999053 0.127804 0.0327432 -0.123017 0.120527 0.0320112 -0.145438 
0.112499 0.0313443 -0.167112 0.103905 0.0307028 -0.188015 0.0949257 0.0300638 -0.20815 
0.0857227 0.0294238 -0.227542 0.0764304 0.0287994 -0.246234 0.0671498 0.0282241 -0.264276 
0.0579455 0.0277432 -0.281722 0.0488485 0.027407 -0.298623 0.0398604 0.0272624 -0.315027 
0.0309625 0.0273455 -0.330973 0.0221241 0.0276755 -0.346498 0.0133129 0.02825 -0.361634 
0.00450334 0.0290446 -0.376415 -0.00431753 0.0300147 -0.390873 -0.0131461 0.0311006 -0.405045 
-0.0219619 0.0322354 -0.418968 -0.0307305 0.0333537 -0.432679 -0.0394078 0.0344009 -0.446211 
-0.0479468 0.0353412 -0.459587 -0.0563035 0.0361633 -0.472816 -0.0644432 0.0368828 -0.48589 
-0.0723439 0.0375408 -0.498777 -0.079998 0.0381986 -0.511425 -0.087411 0.0389295 -0.523759 
-0.0945976 0.0398075 -0.53569 -0.101577 0.0408962 -0.547116 -0.108364 0.042237 -0.557932 
-0.114966 0.0438407 -0.56804 -0.121374 0.0456822 -0.577356 -0.127563 0.0476989 -0.585817 
-0.133488 0.0497952 -0.593386 -0.139089 0.0518507 -0.600055 -0.144295 0.0537326 -0.605846 
-0.149034 0.0553103 -0.610806 -0.153239 0.0564707 -0.615001 -0.156858 0.0571324 -0.618513 
-0.159863 0.057257 -0.62143 -0.162252 0.0568555 -0.623837 -0.164056 0.0559897 -0.625815 
-0.165332 0.0547675 -0.627431 -0.166162 0.0533327 -0.62874 -0.166641 0.0518508 -0.629782 
-0.16687 0.0504915 -0.630584 -0.166942 0.0494106 -0.631163 -0.166934 0.0487332 -0.631527 
-0.166895 0.0485398 -0.63168 
LINES 2 100
OFFSETS vtktypeint64
0 100 
CONNECTIVITY vtktypeint64
0 1 2 3 4 5 6 7 8 
9 10 11 12 13 14 15 16 17 
18 19 20 21 22 23 24 25 26 
27 28 29 30 31 32 33 34 35 
36 37 38 39 40 41 42 43 44 
45 46 47 48 49 50 51 52 53 
54 55 56 57 58 59 60 61 62 
63 64 65 66 67 68 69 70 71 
72 73 74 75 76 77 78 79 80 
81 82 83 84 85 86 87 88 89 
90 91 92 93 94 95 96 97 98 
99 
POINT_DATA 100
FIELD FieldData 3
_theta 1 100 double
0 0.031733259127 0.063466518254 0.095199777382 0.12693303651 0.15866629564 0.19039955476 0.22213281389 0.25386607302 
0.28559933214 0.31733259127 0.3490658504 0.38079910953 0.41253236865 0.44426562778 0.47599888691 0.50773214603 0.53946540516 
0.57119866429 0.60293192342 0.63466518254 0.66639844167 0.6981317008 0.72986495992 0.76159821905 0.79333147818 0.82506473731 
0.85679799643 0.88853125556 0.92026451469 0.95199777382 0.98373103294 1.0154642921 1.0471975512 1.0789308103 1.1106640695 
1.1423973286 1.1741305877 1.2058638468 1.237597106 1.2693303651 1.3010636242 1.3327968833 1.3645301425 1.3962634016 
1.4279966607 1.4597299198 1.491463179 1.5231964381 1.5549296972 1.5866629564 1.6183962155 1.6501294746 1.6818627337 
1.7135959929 1.745329252 1.7770625111 1.8087957702 1.8405290294 1.8722622885 1.9039955476 1.9357288068 1.9674620659 
1.999195325 2.0309285841 2.0626618433 2.0943951024 2.1261283615 2.1578616206 2.1895948798 2.2213281389 2.253061398 
2.2847946572 2.3165279163 2.3482611754 2.3799944345 2.4117276937 2.4434609528 2.4751942119 2.506927471 2.5386607302 
2.5703939893 2.6021272484 2.6338605076 2.6655937667 2.6973270258 2.7290602849 2.7607935441 2.7925268032 2.8242600623 
2.8559933214 2.8877265806 2.9194598397 2.9511930988 2.982926358 3.0146596171 3.0463928762 3.0781261353 3.1098593945 
3.1415926536 
_radius 1 100 double
3.7399286385e-16 0.015140241655 0.030114082964 0.04475786089 0.058918510066 0.07245768525 0.0852546095 0.097207661709 0.10823499691 
0.11827466673 0.12728469434 0.13524334818 0.14214952274 0.1480227993 0.15290256969 0.15684568044 0.15992244998 0.16221155924 
0.16379498032 0.16475441224 0.16517032135 0.16512365633 0.16469908104 0.16398777347 0.16308786692 0.16210140916 0.1611279152 
0.16025573441 0.15955318078 0.1590615054 0.15879136661 0.15872369936 0.15881506333 0.15900678396 0.1592364614 0.15944970752 
0.15960954637 0.15970129345 0.15973221552 0.15972731024 0.15972379434 0.1597665083 0.15990509009 0.16019269615 0.16068565955 
0.16144344433 0.16252828336 0.16400377726 0.16593143187 0.16836404228 0.17133561556 0.17484916256 0.17886524158 0.18329455553 
0.18799704985 0.19278849973 0.19745413021 0.20176763974 0.2055132156 0.20850778303 0.21062073326 0.21178859556 0.21202251677 
0.21140709744 0.21009026584 0.20826541874 0.20614860878 0.20395446225 0.20187443162 0.20006021756 0.1986140994 0.19758625578 
0.19697695509 0.19674028313 0.19678736115 0.19698972726 0.1971851989 0.19718802298 0.19680326117 0.19584346153 0.19414457779 
0.1915780841 0.18805715956 0.18353629686 0.17800524095 0.17147937044 0.16398922871 0.15557178136 0.14626515737 0.13610733901 
0.12513793334 0.11340132302 0.10094949664 0.087843583733 0.074154061481 0.059960219279 0.04534950941 0.030417001687 0.015264665993 
3.0320600443e-16 
_area 1 100 double
0 0.00050051682195 0.0020039439154 0.0045088331198 0.0079929096721 0.01239361437 0.017594718583 0.023423467954 0.029658867917 
0.036048928704 0.04233308179 0.048265409479 0.053634679701 0.058278324462 0.062089151534 0.065015256137 0.067054932161 0.068249588323 
0.068680269924 0.068487229578 0.067929096623 0.067089845905 0.065947045992 0.064573122867 0.063076049165 0.061599537074 0.060279978897 
0.059194769341 0.058419315001 0.058018084923 0.058038119115 0.058497130289 0.059365542078 0.06055994836 0.061960145445 0.063438097353 
0.064875853087 0.066172792825 0.067263812599 0.068149181681 0.068919971832 0.069773085583 0.070970051856 0.072599919715 0.074540147143 
0.076729247179 0.07917869848 0.081881195264 0.084806368794 0.087938097979 0.091286599555 0.09487773028 0.098734905106 0.10286253407 
0.10723033515 0.11175649143 0.11629449706 0.12063209032 0.12450708975 0.12763846859 0.12976710648 0.13069975148 0.13034865795 
0.12875760227 0.12610490313 0.12267850017 0.11882761059 0.11490531382 0.11121647182 0.10797511719 0.10527868142 0.1031134619 
0.10139473442 0.10001000705 0.098841115569 0.097771287787 0.09668637434 0.095472175842 0.094009278084 0.092170947635 0.08983038163 
0.086878372261 0.08324471567 0.078913019232 0.073922406482 0.068357257666 0.06233080473 0.055968187081 0.049393381306 0.042724513742 
0.036079492467 0.02958664831 0.023390733709 0.017648825568 0.012517947092 0.0081401626947 0.0046308278964 0.0020733198868 0.0005204483742 
6.2159859602e-17 
