# vtk DataFile Version 5.1
vtk output
ASCII
DATASET POLYDATA
POINTS 100 float
-0.186328 0.00204035 0.646069 -0.185969 0.00219021 0.646046 -0.184964 0.00278003 0.645965 
-0.183337 0.0037757 0.645741 -0.181122 0.00512351 0.645244 -0.178361 0.00675606 0.644312 
-0.175097 0.00859956 0.642763 -0.171366 0.0105816 0.640418 -0.167194 0.0126384 0.637118 
-0.162591 0.0147208 0.632734 -0.157549 0.0167981 0.627184 -0.152046 0.0188593 0.620433 
-0.146044 0.0209122 0.612498 -0.139497 0.0229797 0.603439 -0.132358 0.0250945 0.593348 
-0.124585 0.0272927 0.582341 -0.116151 0.0296069 0.57054 -0.10705 0.0320603 0.558058 
-0.0972983 0.0346619 0.544992 -0.0869429 0.0374034 0.531407 -0.0760551 0.0402586 0.517337 
-0.0647283 0.0431847 0.502782 -0.0530718 0.0461256 0.487713 -0.0412013 0.0490159 0.472075 
-0.0292297 0.0517867 0.455801 -0.0172582 0.0543702 0.438822 -0.00536782 0.0567048 0.421072 
0.00638577 0.0587379 0.402502 0.0179741 0.0604281 0.383084 0.0293945 0.0617459 0.362813 
0.0406644 0.0626727 0.34171 0.0518129 0.0631992 0.319818 0.0628695 0.0633236 0.297198 
0.0738517 0.0630491 0.273927 0.0847534 0.0623828 0.25009 0.0955345 0.0613353 0.225777 
0.106114 0.0599207 0.201078 0.116367 0.0581585 0.176084 0.126128 0.056075 0.150885 
0.135198 0.053706 0.125572 0.143353 0.0510983 0.100237 0.150368 0.0483108 0.074978 
0.156024 0.045414 0.0498939 0.160137 0.042488 0.0250892 0.162565 0.0396189 0.000669274 
0.163232 0.0368936 -0.0232627 0.162127 0.0343936 -0.0466109 0.159314 0.0321891 -0.0692928 
0.154927 0.0303321 -0.0912447 0.14916 0.0288525 -0.112427 0.142254 0.0277546 -0.132827 
0.134477 0.0270169 -0.152459 0.126106 0.0265939 -0.171367 0.117401 0.0264209 -0.189613 
0.108594 0.0264204 -0.207276 0.0998676 0.0265106 -0.224443 0.0913487 0.0266137 -0.241197 
0.083104 0.0266643 -0.25761 0.0751427 0.0266162 -0.273736 0.0674249 0.0264471 -0.289608 
0.0598749 0.0261604 -0.305232 0.0523973 0.0257847 -0.320588 0.0448948 0.0253691 -0.335642 
0.037284 0.0249776 -0.350341 0.0295101 0.0246809 -0.364633 0.0215563 0.0245475 -0.378468 
0.0134484 0.0246354 -0.39181 0.00525427 0.024985 -0.404643 -0.00292286 0.0256137 -0.416976 
-0.0109543 0.0265135 -0.428843 -0.0186998 0.0276514 -0.4403 -0.0260217 0.0289725 -0.451422 
-0.0327995 0.0304051 -0.462293 -0.0389417 0.0318685 -0.473 -0.0443943 0.0332809 -0.483619 
-0.0491443 0.0345667 -0.494208 -0.0532192 0.0356646 -0.504802 -0.0566814 0.036532 -0.515406 
-0.0596189 0.0371487 -0.525994 -0.062134 0.0375175 -0.536513 -0.0643302 0.0376625 -0.546883 
-0.0663007 0.0376257 -0.55701 -0.0681185 0.0374613 -0.566788 -0.0698298 0.0372304 -0.576114 
-0.0714516 0.036994 -0.584891 -0.0729733 0.0368077 -0.593039 -0.0743624 0.0367167 -0.600496 
-0.0755726 0.0367527 -0.607226 -0.0765542 0.0369322 -0.613215 -0.0772643 0.0372559 -0.618471 
-0.0776766 0.0377104 -0.623021 -0.0777873 0.0382706 -0.626907 -0.0776194 0.0389025 -0.630178 
-0.0772219 0.0395669 -0.632889 -0.076666 0.0402226 -0.635093 -0.076037 0.0408301 -0.63684 
-0.0754255 0.0413535 -0.638171 -0.0749163 0.0417636 -0.639122 -0.0745782 0.0420384 -0.639714 
-0.0744559 0.042165 -0.639962 
LINES 2 100
OFFSETS vtktypeint64
0 100 
CONNECTIVITY vtktypeint64
0 1 2 3 4 5 6 7 8 
9 10 11 12 13 14 15 16 17 
18 19 20 21 22 23 24 25 26 
27 28 29 30 31 32 33 34 35 
36 37 38 39 40 41 42 43 44 
45 46 47 48 49 50 51 52 53 
54 55 56 57 58 59 60 61 62 
63 64 65 66 67 68 69 70 71 
72 73 74 75 76 77 78 79 80 
81 82 83 84 85 86 87 88 89 
90 91 92 93 94 95 96 97 98 
99 
POINT_DATA 100
FIELD FieldData 3
_theta 1 100 double
0 0.031733259127 0.063466518254 0.095199777382 0.12693303651 0.15866629564 0.19039955476 0.22213281389 0.25386607302 
0.28559933214 0.31733259127 0.3490658504 0.38079910953 0.41253236865 0.44426562778 0.47599888691 0.50773214603 0.53946540516 
0.57119866429 0.60293192342 0.63466518254 0.66639844167 0.6981317008 0.72986495992 0.76159821905 0.79333147818 0.82506473731 
0.85679799643 0.88853125556 0.92026451469 0.95199777382 0.98373103294 1.0154642921 1.0471975512 1.0789308103 1.1106640695 
1.1423973286 1.1741305877 1.2058638468 1.237597106 1.2693303651 1.3010636242 1.3327968833 1.3645301425 1.3962634016 
1.4279966607 1.4597299198 1.491463179 1.5231964381 1.5549296972 1.5866629564 1.6183962155 1.6501294746 1.6818627337 
1.7135959929 1.745329252 1.7770625111 1.8087957702 1.8405290294 1.8722622885 1.9039955476 1.9357288068 1.9674620659 
1.999195325 2.0309285841 2.0626618433 2.0943951024 2.1261283615 2.1578616206 2.1895948798 2.2213281389 2.253061398 
2.2847946572 2.3165279163 2.3482611754 2.3799944345 2.4117276937 2.4434609528 2.4751942119 2.506927471 2.5386607302 
2.5703939893 2.6021272484 2.6338605076 2.6655937667 2.6973270258 2.7290602849 2.7607935441 2.7925268032 2.8242600623 
2.8559933214 2.8877265806 2.9194598397 2.9511930988 2.982926358 3.0146596171 3.0463928762 3.0781261353 3.1098593945 
3.1415926536 
_radius 1 100 double
1.2212515643e-15 0.015151376807 0.030144521238 0.044822635097 0.059040506128 0.072669054023 0.085598535993 0.097740294833 0.10902706547 
0.11941197623 0.12886652535 0.13737798168 0.14494678384 0.151584481 0.15731249522 0.16216157852 0.16617156758 0.16939118487 
0.17187807674 0.17369941334 0.17493279714 0.17566643673 0.17599737342 0.17602712652 0.17585494041 0.17556948154 0.17524031177 
0.17491083855 0.17459465524 0.17427699658 0.17392222083 0.17348689222 0.17293662115 0.17226368286 0.17150153228 0.17073159526 
0.17007789086 0.16968791783 0.16970470731 0.17024145121 0.17136999983 0.17312640927 0.17552710818 0.17858458173 0.18231306967 
0.1867206641 0.19179132605 0.19746551106 0.20362881912 0.21011420481 0.21671748597 0.2232215047 0.22942271685 0.23515460096 
0.24030395059 0.24481806685 0.24870267927 0.25201186692 0.25483222771 0.25726404718 0.2594023029 0.26132008029 0.26305643062 
0.26460993651 0.2659383842 0.26696413546 0.26758416898 0.26768333374 0.26714907786 0.2658857668 0.26382673092 0.26094245123 
0.25724381549 0.25278008428 0.24763196285 0.2419008365 0.2356956947 0.22911949892 0.22225675417 0.21516385917 0.20786347177 
0.20034365416 0.19256197428 0.18445406626 0.17594546236 0.16696490871 0.15745700671 0.14739202065 0.13677114948 0.12562645019 
0.11401574034 0.10201389371 0.089702640619 0.077161070184 0.064458506474 0.051650534756 0.038778055023 0.025868644431 0.01293932773 
1.258440553e-15 
_area 1 100 double
0 0.00050713299237 0.0020096570997 0.0044516775553 0.0077427613555 0.011762920246 0.016370733514 0.021414273398 0.026743136567 
0.032218893644 0.037721146564 0.04314745834 0.048407692828 0.05341596005 0.05808482842 0.062325424714 0.066053845358 0.069201693187 
0.071729572429 0.073643388924 0.074996814865 0.075810289118 0.076167125818 0.076169010697 0.07591204405 0.075586526154 0.075409910233 
0.07549352827 0.075815623748 0.076287591163 0.076802193162 0.077266117922 0.077628159207 0.077898526493 0.078155321488 0.078536136134 
0.079207354574 0.080314099872 0.081938462222 0.084084975998 0.086699542603 0.089710863295 0.093067359419 0.096760910393 0.10083604107 
0.10538110292 0.11051258135 0.11636371434 0.12305117809 0.13057793638 0.13872792127 0.14710151206 0.15524883862 0.16276616924 
0.16934732341 0.17481497651 0.17913354065 0.18239842 0.18480258007 0.1865891618 0.18800296914 0.18925222133 0.19048428057 
0.19176700667 0.19306482137 0.19422760716 0.19502342242 0.19519154097 0.19448239392 0.19268674776 0.18966165447 0.18535190761 
0.17980162567 0.17315111735 0.16561752746 0.15746218276 0.14895119071 0.1403175486 0.13173253408 0.12329175739 0.11501767996 
0.10687658876 0.098804787565 0.09073681805 0.082628641952 0.074471345742 0.066294925637 0.058164688495 0.050173456157 0.042431868729 
0.035058159752 0.028168517549 0.021869225382 0.016251585799 0.011389963247 0.0073424043632 0.0041527006758 0.0018527196067 0.00046423338411 
4.4141742621e-17 
