# vtk DataFile Version 5.1
vtk output
ASCII
DATASET POLYDATA
POINTS 100 float
-0.18844 -0.00621856 0.7589 -0.187732 -0.00660711 0.758891 -0.18565 -0.00762453 0.758892 
-0.182211 -0.00914168 0.758786 -0.177441 -0.0109605 0.758395 -0.171387 -0.0128363 0.757498 
-0.164118 -0.0145058 0.755858 -0.155728 -0.0157152 0.753248 -0.146339 -0.016248 0.749481 
-0.136098 -0.0159458 0.744423 -0.125168 -0.0147228 0.738016 -0.113721 -0.0125706 0.730277 
-0.101926 -0.00955329 0.721297 -0.0899302 -0.00579494 0.711224 -0.077849 -0.0014606 0.700249 
-0.0657532 0.00326611 0.688573 -0.0536609 0.00820551 0.676383 -0.0415368 0.0132015 0.663825 
-0.0292963 0.0181359 0.65098 -0.0168177 0.0229351 0.637852 -0.00395942 0.0275698 0.624358 
0.00941828 0.0320468 0.610336 0.0234294 0.0363955 0.595557 0.0381392 0.0406508 0.579748 
0.053545 0.044836 0.56262 0.0695628 0.0489475 0.5439 0.0860219 0.052945 0.523362 
0.102669 0.0567476 0.500857 0.11918 0.0602378 0.476328 0.135186 0.0632721 0.449829 
0.150293 0.0656974 0.421521 0.164119 0.0673711 0.391664 0.176326 0.0681806 0.3606 
0.186641 0.0680619 0.328723 0.194885 0.0670125 0.296451 0.200984 0.0650973 0.264191 
0.204971 0.0624465 0.232309 0.206978 0.0592459 0.201104 0.207223 0.0557198 0.170788 
0.205986 0.0521091 0.141482 0.203573 0.0486473 0.113212 0.200295 0.0455376 0.0859229 
0.196431 0.0429331 0.0594941 0.192211 0.0409239 0.0337662 0.187791 0.0395313 0.00856588 
0.183253 0.038711 -0.0162679 0.178601 0.0383631 -0.0408613 0.173771 0.0383495 -0.0652895 
0.168653 0.0385144 -0.089568 0.163107 0.0387066 -0.113652 0.156992 0.0387993 -0.137444 
0.150187 0.0387067 -0.160808 0.142609 0.0383935 -0.18359 0.134228 0.0378771 -0.205639 
0.125076 0.0372231 -0.226825 0.11524 0.0365338 -0.247062 0.10486 0.0359319 -0.266313 
0.0941082 0.0355423 -0.284605 0.0831756 0.035474 -0.302016 0.0722498 0.0358042 -0.318677 
0.0614968 0.0365678 -0.334748 0.051045 0.0377527 -0.350406 0.0409745 0.0393011 -0.365824 
0.031312 0.0411178 -0.38115 0.0220329 0.0430823 -0.396493 0.013068 0.0450643 -0.411915 
0.00431615 0.04694 -0.427422 -0.00434062 0.0486064 -0.442975 -0.0130203 0.0499925 -0.458492 
-0.0218253 0.0510656 -0.473865 -0.0308288 0.0518324 -0.488977 -0.0400656 0.0523339 -0.503718 
-0.0495274 0.0526375 -0.518003 -0.0591628 0.0528242 -0.531779 -0.0688832 0.0529761 -0.545037 
-0.0785708 0.0531644 -0.557806 -0.088091 0.0534391 -0.57015 -0.0973047 0.0538234 -0.582156 
-0.106081 0.054312 -0.593917 -0.11431 0.0548737 -0.605517 -0.121906 0.0554584 -0.617011 
-0.128821 0.056006 -0.628415 -0.135036 0.0564565 -0.639697 -0.14057 0.05676 -0.650772 
-0.145464 0.0568841 -0.661511 -0.149785 0.056819 -0.671749 -0.153607 0.0565783 -0.681302 
-0.157011 0.0561964 -0.689988 -0.160073 0.055723 -0.697648 -0.162855 0.0552151 -0.704163 
-0.165408 0.0547291 -0.709472 -0.167759 0.0543124 -0.713578 -0.169921 0.0539975 -0.716552 
-0.171885 0.0537989 -0.718528 -0.17363 0.0537125 -0.719686 -0.175127 0.0537188 -0.720238 
-0.17634 0.0537881 -0.720398 -0.177235 0.0538868 -0.720368 -0.177782 0.053985 -0.720307 
-0.177963 0.0540619 -0.720316 
LINES 2 100
OFFSETS vtktypeint64
0 100 
CONNECTIVITY vtktypeint64
0 1 2 3 4 5 6 7 8 
9 10 11 12 13 14 15 16 17 
18 19 20 21 22 23 24 25 26 
27 28 29 30 31 32 33 34 35 
36 37 38 39 40 41 42 43 44 
45 46 47 48 49 50 51 52 53 
54 55 56 57 58 59 60 61 62 
63 64 65 66 67 68 69 70 71 
72 73 74 75 76 77 78 79 80 
81 82 83 84 85 86 87 88 89 
90 91 92 93 94 95 96 97 98 
99 
POINT_DATA 100
FIELD FieldData 3
_theta 1 100 double
0 0.031733259127 0.063466518254 0.095199777382 0.12693303651 0.15866629564 0.19039955476 0.22213281389 0.25386607302 
0.28559933214 0.31733259127 0.3490658504 0.38079910953 0.41253236865 0.44426562778 0.47599888691 0.50773214603 0.53946540516 
0.57119866429 0.60293192342 0.63466518254 0.66639844167 0.6981317008 0.72986495992 0.76159821905 0.79333147818 0.82506473731 
0.85679799643 0.88853125556 0.92026451469 0.95199777382 0.98373103294 1.0154642921 1.0471975512 1.0789308103 1.1106640695 
1.1423973286 1.1741305877 1.2058638468 1.237597106 1.2693303651 1.3010636242 1.3327968833 1.3645301425 1.3962634016 
1.4279966607 1.4597299198 1.491463179 1.5231964381 1.5549296972 1.5866629564 1.6183962155 1.6501294746 1.6818627337 
1.7135959929 1.745329252 1.7770625111 1.8087957702 1.8405290294 1.8722622885 1.9039955476 1.9357288068 1.9674620659 
1.999195325 2.0309285841 2.0626618433 2.0943951024 2.1261283615 2.1578616206 2.1895948798 2.2213281389 2.253061398 
2.2847946572 2.3165279163 2.3482611754 2.3799944345 2.4117276937 2.4434609528 2.4751942119 2.506927471 2.5386607302 
2.5703939893 2.6021272484 2.6338605076 2.6655937667 2.6973270258 2.7290602849 2.7607935441 2.7925268032 2.8242600623 
2.8559933214 2.8877265806 2.9194598397 2.9511930988 2.982926358 3.0146596171 3.0463928762 3.0781261353 3.1098593945 
3.1415926536 
_radius 1 100 double
1.3899725562e-16 0.015815314221 0.031248773781 0.045940830454 0.05957696197 0.071908208403 0.082768140385 0.092084038908 0.099880138471 
0.10627118624 0.1114452509 0.11563601923 0.11908736964 0.12201669033 0.12458606937 0.12688898182 0.12895406257 0.13076081005 
0.13225901683 0.13338540423 0.1340750007 0.13426829444 0.13391664011 0.13298792848 0.1314731837 0.12939373164 0.12680827619 
0.12381869591 0.12057150124 0.11725123806 0.11406809451 0.11124630009 0.10901074555 0.10756397678 0.10705479008 0.10754945399 
0.10901811622 0.11134209776 0.11433781813 0.11778726821 0.1214672086 0.12517503391 0.12875040763 0.13208963357 0.13515028368 
0.13794634713 0.14053589789 0.14300373409 0.14544179268 0.14793067318 0.15052560831 0.15324910455 0.15609055291 0.15901124042 
0.16195201107 0.16484059846 0.1675965307 0.17013338063 0.17236027247 0.17418568691 0.17552571635 0.17631630221 0.17652630527 
0.17616714584 0.17529553249 0.17400776285 0.17242641865 0.17068258244 0.16889847343 0.16717502924 0.16558571779 0.1641747625 
0.16295749343 0.16192155654 0.16102878253 0.16021813229 0.15941013717 0.15851279665 0.1574283139 0.15605961871 0.15431556638 
0.152114148 0.14938387403 0.14606423637 0.14210630404 0.1374738972 0.13214475007 0.1261102764 0.1193725589 0.11193816151 
0.10381012061 0.094981452784 0.085434472914 0.075148602636 0.064115313021 0.05235514142 0.039930981299 0.026953829482 0.013579890838 
1.8599011978e-15 
_area 1 100 double
0 0.00043083727583 0.001708430157 0.003781382444 0.006547530481 0.0098442566637 0.013454158048 0.017131410988 0.020647389155 
0.023844030299 0.026672133902 0.029187664967 0.03149755837 0.033687486862 0.035777132135 0.037715798948 0.039407701541 0.040752630068 
0.041682639031 0.042175834427 0.042244879675 0.041916714215 0.041221935419 0.040200446336 0.038918151961 0.037481235071 0.036026894717 
0.034690063218 0.033573249578 0.032707892766 0.032105463358 0.031815393225 0.031893639336 0.032379866538 0.033298904255 0.034647817441 
0.036392808358 0.038488967493 0.040882003301 0.043463931784 0.0460938966 0.048668261606 0.051148540947 0.053566598832 0.056015238093 
0.058613411279 0.061446184588 0.064518273254 0.06775458772 0.071032480554 0.074215589566 0.077183018311 0.07985234398 0.082191525836 
0.084215037247 0.085968975548 0.087517542583 0.088927171842 0.090233742077 0.091400524362 0.09229865048 0.092738810563 0.092531763279 
0.091627692541 0.089923557248 0.087557492818 0.084546444359 0.081181366442 0.077671283338 0.074242273752 0.071068689568 0.068229583584 
0.06577793939 0.063787825605 0.062228322224 0.061227334583 0.060608264035 0.060070653405 0.059466880256 0.058685382323 0.057622563425 
0.056186923727 0.05430796825 0.051949322268 0.049119605661 0.045871118129 0.042286152307 0.038458432048 0.034476438887 0.030411831786 
0.026314755191 0.02221896086 0.018159006278 0.014194536354 0.010428119626 0.0070053170822 0.0040971503272 0.0018734958685 0.0004765341818 
1.4027421849e-16 
