# vtk DataFile Version 5.1
vtk output
ASCII
DATASET POLYDATA
POINTS 100 float
-0.0858461 -0.0743166 0.707449 -0.0860685 -0.074216 0.707303 -0.0867183 -0.0736645 0.706748 
-0.087739 -0.07263 0.705741 -0.0890417 -0.0710659 0.704219 -0.0905117 -0.0689187 0.702104 
-0.0920177 -0.0661378 0.699319 -0.0934201 -0.0626846 0.695793 -0.0945808 -0.0585418 0.691472 
-0.0953718 -0.0537189 0.686328 -0.0956813 -0.0482558 0.68036 -0.0954194 -0.042222 0.673596 
-0.0945201 -0.0357129 0.666088 -0.0929426 -0.0288427 0.657907 -0.0906697 -0.0217354 0.649132 
-0.0877055 -0.0145158 0.639838 -0.0840717 -0.00729981 0.630087 -0.0798044 -0.000187784 0.61992 
-0.0749503 0.00674024 0.609343 -0.0695635 0.0134258 0.598335 -0.0637031 0.0198301 0.586836 
-0.0574308 0.0259295 0.574764 -0.0508101 0.0317092 0.562014 -0.0439041 0.0371559 0.548477 
-0.0367745 0.0422521 0.534045 -0.0294798 0.0469706 0.51863 -0.0220737 0.0512733 0.502174 
-0.0146025 0.0551116 0.484653 -0.00710366 0.0584314 0.466086 0.000396066 0.0611793 0.446536 
0.00788156 0.0633115 0.426101 0.015349 0.0648016 0.404911 0.0228039 0.0656491 0.383114 
0.0302584 0.065884 0.360865 0.0377259 0.0655684 0.338311 0.0452156 0.0647947 0.31558 
0.0527263 0.0636787 0.292769 0.0602396 0.0623504 0.269941 0.0677157 0.0609416 0.247119 
0.0750892 0.0595726 0.224291 0.0822688 0.0583403 0.201411 0.0891386 0.057308 0.178414 
0.0955637 0.0564995 0.155222 0.101397 0.0558973 0.131758 0.106489 0.0554466 0.107962 
0.110699 0.0550633 0.0837929 0.113904 0.0546466 0.0592453 0.116008 0.054093 0.0343488 
0.116951 0.0533121 0.0091701 0.116711 0.0522394 -0.0161891 0.115305 0.0508475 -0.0415988 
0.112783 0.0491521 -0.0669092 0.109228 0.0472118 -0.0919606 0.104738 0.0451241 -0.116595 
0.0994209 0.0430144 -0.140666 0.0933854 0.0410225 -0.16405 0.0867281 0.0392866 -0.186649 
0.0795291 0.0379265 -0.208401 0.0718489 0.0370295 -0.229276 0.063728 0.0366391 -0.249281 
0.0551916 0.0367495 -0.268453 0.0462557 0.0373051 -0.286854 0.036936 0.0382063 -0.304565 
0.0272573 0.03932 -0.32168 0.0172608 0.0404941 -0.338296 0.00701099 0.0415746 -0.354509 
-0.00340248 0.0424218 -0.370405 -0.0138655 0.0429258 -0.386058 -0.0242449 0.0430173 -0.401525 
-0.0343971 0.0426749 -0.416842 -0.0441792 0.041926 -0.432028 -0.0534612 0.0408426 -0.447082 
-0.0621378 0.0395319 -0.461985 -0.0701387 0.0381243 -0.476701 -0.0774342 0.0367578 -0.491182 
-0.0840384 0.0355637 -0.50537 -0.0900056 0.0346521 -0.519197 -0.095424 0.0341019 -0.532593 
-0.100405 0.0339531 -0.545487 -0.105067 0.0342047 -0.557807 -0.109528 0.0348168 -0.569487 
-0.113882 0.0357164 -0.580468 -0.118199 0.0368065 -0.590699 -0.122508 0.0379771 -0.60014 
-0.126804 0.0391169 -0.608766 -0.131042 0.0401236 -0.616561 -0.135151 0.0409133 -0.623526 
-0.13904 0.0414269 -0.629676 -0.142615 0.0416338 -0.635037 -0.145789 0.041532 -0.639649 
-0.148495 0.0411468 -0.64356 -0.150697 0.0405255 -0.646828 -0.152392 0.0397327 -0.649513 
-0.15361 0.0388429 -0.65168 -0.154414 0.0379349 -0.653393 -0.154886 0.0370847 -0.65471 
-0.155119 0.0363612 -0.655684 -0.155203 0.0358214 -0.65636 -0.155211 0.0355076 -0.656769 
-0.155192 0.0354452 -0.656932 
LINES 2 100
OFFSETS vtktypeint64
0 100 
CONNECTIVITY vtktypeint64
0 1 2 3 4 5 6 7 8 
9 10 11 12 13 14 15 16 17 
18 19 20 21 22 23 24 25 26 
27 28 29 30 31 32 33 34 35 
36 37 38 39 40 41 42 43 44 
45 46 47 48 49 50 51 52 53 
54 55 56 57 58 59 60 61 62 
63 64 65 66 67 68 69 70 71 
72 73 74 75 76 77 78 79 80 
81 82 83 84 85 86 87 88 89 
90 91 92 93 94 95 96 97 98 
99 
POINT_DATA 100
FIELD FieldData 3
_theta 1 100 double
0 0.031733259127 0.063466518254 0.095199777382 0.12693303651 0.15866629564 0.19039955476 0.22213281389 0.25386607302 
0.28559933214 0.31733259127 0.3490658504 0.38079910953 0.41253236865 0.44426562778 0.47599888691 0.50773214603 0.53946540516 
0.57119866429 0.60293192342 0.63466518254 0.66639844167 0.6981317008 0.72986495992 0.76159821905 0.79333147818 0.82506473731 
0.85679799643 0.88853125556 0.92026451469 0.95199777382 0.98373103294 1.0154642921 1.0471975512 1.0789308103 1.1106640695 
1.1423973286 1.1741305877 1.2058638468 1.237597106 1.2693303651 1.3010636242 1.3327968833 1.3645301425 1.3962634016 
1.4279966607 1.4597299198 1.491463179 1.5231964381 1.5549296972 1.5866629564 1.6183962155 1.6501294746 1.6818627337 
1.7135959929 1.745329252 1.7770625111 1.8087957702 1.8405290294 1.8722622885 1.9039955476 1.9357288068 1.9674620659 
1.999195325 2.0309285841 2.0626618433 2.0943951024 2.1261283615 2.1578616206 2.1895948798 2.2213281389 2.253061398 
2.2847946572 2.3165279163 2.3482611754 2.3799944345 2.4117276937 2.4434609528 2.4751942119 2.506927471 2.5386607302 
2.5703939893 2.6021272484 2.6338605076 2.6655937667 2.6973270258 2.7290602849 2.7607935441 2.7925268032 2.8242600623 
2.8559933214 2.8877265806 2.9194598397 2.9511930988 2.982926358 3.0146596171 3.0463928762 3.0781261353 3.1098593945 
3.1415926536 
_radius 1 100 double
1.9869968259e-16 0.013560113679 0.026987326434 0.040153760571 0.052957541612 0.065328554026 0.077226917474 0.088634746937 0.099543719368 
0.10994222696 0.11980583145 0.12909336228 0.13774902117 0.14570915723 0.15291149574 0.15930455921 0.16485551333 0.16955535399 
0.17342098965 0.1764942723 0.17883841242 0.18053253849 0.18166544493 0.18232972397 0.18261731904 0.18261695277 0.18241300483 
0.18208468958 0.18170428751 0.18133383428 0.18102073064 0.18079366507 0.18066055912 0.18060970589 0.18061397895 0.18063650433 
0.18063550437 0.18056706567 0.18038690955 0.18005341519 0.17953260688 0.17880381283 0.17786494458 0.17673793752 0.17547532114 
0.17416730799 0.17294633403 0.17198445379 0.17147964122 0.17163005593 0.17259993344 0.17448525653 0.17728929137 0.18091552133 
0.18517927891 0.18983313768 0.1945983868 0.19919602627 0.20337347829 0.20692549089 0.20970885366 0.21165089179 0.21275176526 
0.21308068402 0.21276635785 0.21198232043 0.21092816929 0.20980823372 0.20880969828 0.20808264999 0.20772460034 0.20777143724 
0.20819548086 0.20890989933 0.2097779298 0.21062535984 0.2112550855 0.21146269931 0.21105183587 0.20984770509 0.20770727345 
0.20452510044 0.20023475599 0.19480666069 0.18824373118 0.18057620348 0.17185654075 0.16215469876 0.15155355276 0.140144179 
0.12802092126 0.11527657665 0.10199837557 0.088265526137 0.074148856586 0.059712557221 0.045017371822 0.030124087139 0.015096070128 
3.3015837505e-16 
_area 1 100 double
0 0.00055016624409 0.0021735008196 0.0047922036938 0.0082883720775 0.012519667592 0.01733697848 0.022599298465 0.028180204572 
0.033962686938 0.039825808343 0.045632647164 0.051227380198 0.056442679155 0.061114081079 0.065097248732 0.06828470797 0.070619157007 
0.072100754155 0.072786554789 0.0727818831 0.07222563601 0.071273670005 0.070085507376 0.068816967786 0.067610449317 0.066567842379 
0.065729593116 0.065103048094 0.064708611431 0.064595111757 0.064824240888 0.065444254972 0.06646805849 0.067865453092 0.069574914272 
0.071527084516 0.07366107125 0.075923290012 0.078258821336 0.08060536703 0.08288592559 0.085004008598 0.086853726865 0.088347214527 
0.089449645354 0.090209019537 0.090769970934 0.09136419051 0.092277920503 0.0938069703 0.096201731296 0.099595403712 0.10394328486 
0.109018549 0.11446375752 0.11986195 0.12480225954 0.12893208995 0.13199281361 0.13383689512 0.13442743043 0.13382564854 
0.1321743579 0.12968304102 0.12661470091 0.12326982816 0.1199619602 0.11698267122 0.11456009005 0.11282129754 0.11177105155 
0.11129399009 0.11117780542 0.11114930855 0.11091593477 0.11020647105 0.10880477201 0.10657160222 0.10345248904 0.099471705654 
0.094714109935 0.089298670739 0.08335053865 0.076980873708 0.070281847511 0.063336598659 0.056235068731 0.04908431691 0.042007743686 
0.035135716653 0.028594341851 0.022498267803 0.016949641744 0.012041528824 0.007862144577 0.004496493139 0.0020236381952 0.00050988104999 
3.6416048133e-17 
