# vtk DataFile Version 5.1
vtk output
ASCII
DATASET POLYDATA
POINTS 100 float
-0.148072 -0.029311 0.70724 -0.148188 -0.0294319 0.707144 -0.14853 -0.0296001 0.706826 
-0.149032 -0.0297779 0.70622 -0.149594 -0.0299062 0.705221 -0.150085 -0.0299101 0.703704 
-0.150351 -0.0297064 0.701533 -0.150234 -0.029211 0.698584 -0.149575 -0.0283466 0.694749 
-0.148231 -0.02705 0.689957 -0.146078 -0.0252775 0.684177 -0.143023 -0.0230085 0.677415 
-0.139005 -0.0202467 0.669718 -0.133994 -0.0170193 0.66116 -0.127995 -0.0133738 0.651834 
-0.121041 -0.00937409 0.641836 -0.113189 -0.00509389 0.631254 -0.104513 -0.000611468 0.620158 
-0.0951007 0.00399635 0.608587 -0.0850483 0.00865887 0.596556 -0.0744535 0.013315 0.584046 
-0.0634142 0.0179152 0.571018 -0.0520256 0.0224213 0.557418 -0.0403784 0.0268056 0.543186 
-0.0285583 0.031048 0.528268 -0.0166451 0.0351327 0.512627 -0.0047127 0.0390453 0.496244 
0.0071718 0.0427691 0.479123 0.0189485 0.0462832 0.461288 0.0305654 0.0495614 0.442781 
0.041979 0.0525722 0.42365 0.0531543 0.0552804 0.403943 0.0640642 0.0576498 0.383697 
0.0746881 0.0596458 0.362933 0.0850092 0.0612398 0.341653 0.0950109 0.0624115 0.319837 
0.104673 0.0631518 0.29745 0.113965 0.0634642 0.274451 0.122846 0.063365 0.250801 
0.131256 0.0628816 0.22648 0.139116 0.0620506 0.201491 0.146328 0.0609137 0.175877 
0.152777 0.0595144 0.149722 0.158337 0.0578937 0.123149 0.162874 0.056087 0.0963241 
0.166259 0.0541214 0.069436 0.168379 0.0520149 0.0426891 0.169142 0.0497767 0.0162852 
0.168489 0.0474095 -0.0095933 0.166403 0.0449122 -0.0347983 0.162912 0.0422844 -0.0592272 
0.158089 0.0395307 -0.0828298 0.15205 0.0366649 -0.105609 0.144947 0.0337136 -0.127616 
0.13696 0.0307181 -0.148938 0.128282 0.027735 -0.169688 0.119109 0.0248345 -0.189982 
0.109623 0.0220969 -0.209928 0.0999851 0.0196081 -0.22961 0.0903208 0.0174527 -0.249077 
0.0807178 0.0157081 -0.268335 0.0712224 0.0144369 -0.287353 0.061842 0.0136819 -0.306066 
0.0525509 0.0134612 -0.324382 0.0432994 0.0137659 -0.342204 0.0340245 0.0145596 -0.359438 
0.0246622 0.0157809 -0.376009 0.0151587 0.0173468 -0.391874 0.00548064 0.0191595 -0.407028 
-0.00437803 0.0211129 -0.421507 -0.0143916 0.0231004 -0.435381 -0.0245022 0.0250223 -0.44875 
-0.0346228 0.0267925 -0.461729 -0.0446433 0.0283434 -0.474431 -0.0544391 0.0296292 -0.486958 
-0.0638803 0.030627 -0.499379 -0.0728426 0.0313356 -0.511726 -0.081216 0.0317731 -0.523986 
-0.0889133 0.0319724 -0.536098 -0.0958751 0.0319759 -0.547962 -0.102073 0.0318301 -0.559445 
-0.107511 0.0315807 -0.570392 -0.112219 0.0312677 -0.580647 -0.116253 0.0309229 -0.590062 
-0.119688 0.0305675 -0.598512 -0.122607 0.0302128 -0.605908 -0.125098 0.029861 -0.612202 
-0.127246 0.0295076 -0.617392 -0.129126 0.0291445 -0.621517 -0.130799 0.0287634 -0.624658 
-0.132312 0.0283589 -0.626924 -0.133695 0.0279306 -0.628446 -0.13496 0.0274847 -0.629369 
-0.136107 0.0270345 -0.629836 -0.137126 0.0265992 -0.629986 -0.137996 0.0262024 -0.629943 
-0.138697 0.0258692 -0.629812 -0.139207 0.0256238 -0.629679 -0.139509 0.0254861 -0.629602 
-0.139591 0.0254696 -0.629618 
LINES 2 100
OFFSETS vtktypeint64
0 100 
CONNECTIVITY vtktypeint64
0 1 2 3 4 5 6 7 8 
9 10 11 12 13 14 15 16 17 
18 19 20 21 22 23 24 25 26 
27 28 29 30 31 32 33 34 35 
36 37 38 39 40 41 42 43 44 
45 46 47 48 49 50 51 52 53 
54 55 56 57 58 59 60 61 62 
63 64 65 66 67 68 69 70 71 
72 73 74 75 76 77 78 79 80 
81 82 83 84 85 86 87 88 89 
90 91 92 93 94 95 96 97 98 
99 
POINT_DATA 100
FIELD FieldData 3
_theta 1 100 double
0 0.031733259127 0.063466518254 0.095199777382 0.12693303651 0.15866629564 0.19039955476 0.22213281389 0.25386607302 
0.28559933214 0.31733259127 0.3490658504 0.38079910953 0.41253236865 0.44426562778 0.47599888691 0.50773214603 0.53946540516 
0.57119866429 0.60293192342 0.63466518254 0.66639844167 0.6981317008 0.72986495992 0.76159821905 0.79333147818 0.82506473731 
0.85679799643 0.88853125556 0.92026451469 0.95199777382 0.98373103294 1.0154642921 1.0471975512 1.0789308103 1.1106640695 
1.1423973286 1.1741305877 1.2058638468 1.237597106 1.2693303651 1.3010636242 1.3327968833 1.3645301425 1.3962634016 
1.4279966607 1.4597299198 1.491463179 1.5231964381 1.5549296972 1.5866629564 1.6183962155 1.6501294746 1.6818627337 
1.7135959929 1.745329252 1.7770625111 1.8087957702 1.8405290294 1.8722622885 1.9039955476 1.9357288068 1.9674620659 
1.999195325 2.0309285841 2.0626618433 2.0943951024 2.1261283615 2.1578616206 2.1895948798 2.2213281389 2.253061398 
2.2847946572 2.3165279163 2.3482611754 2.3799944345 2.4117276937 2.4434609528 2.4751942119 2.506927471 2.5386607302 
2.5703939893 2.6021272484 2.6338605076 2.6655937667 2.6973270258 2.7290602849 2.7607935441 2.7925268032 2.8242600623 
2.8559933214 2.8877265806 2.9194598397 2.9511930988 2.982926358 3.0146596171 3.0463928762 3.0781261353 3.1098593945 
3.1415926536 
_radius 1 100 double
1.0134645906e-15 0.015912001413 0.031732756548 0.047368136024 0.062726455187 0.07771832667 0.092255347689 0.1062481869 0.11960499708 
0.13223112859 0.14403083026 0.15491110314 0.16478730427 0.17358966499 0.18126969901 0.18780553603 0.19320545745 0.1975092303 
0.20078714705 0.20313692129 0.20467873458 0.2055487809 0.20589165829 0.2058519847 0.20556571273 0.20515176121 0.20470469228 
0.20428917603 0.20393689677 0.20364640614 0.20338625058 0.20310148048 0.20272334232 0.20218153183 0.20141786201 0.20039964811 
0.19913066692 0.19765740914 0.19606874357 0.19448821608 0.19305996432 0.19193119228 0.19123547229 0.19108098182 0.19154588564 
0.19268003493 0.19450930993 0.19703792778 0.20024581554 0.20408202291 0.20845883778 0.21325210115 0.2183102443 0.22346992229 
0.22857325577 0.23348204055 0.23808651974 0.24230849964 0.24609984684 0.24943784392 0.25231890452 0.25475199855 0.25675286998 
0.2583397422 0.25953074546 0.26034286229 0.26079187073 0.26089264546 0.26065927003 0.26010467392 0.25923982866 0.25807277995 
0.25660782735 0.25484493696 0.2527790841 0.25039893412 0.24768436505 0.24460289989 0.24110592654 0.23712621701 0.2325783271 
0.22736282774 0.22137423497 0.21451147748 0.20668917524 0.19784794779 0.187962235 0.17704452931 0.16514542393 0.15234946293 
0.13876739023 0.12452594066 0.10975668693 0.09458556007 0.079124461879 0.063465920687 0.047681117689 0.031821002112 0.015919790076 
8.0128430089e-16 
_area 1 100 double
0 0.00060812888927 0.002417095758 0.0053829881262 0.0094391613483 0.014502100468 0.020473529875 0.027236482972 0.03464635638 
0.042521413091 0.050638693325 0.058739812471 0.066547498134 0.073789879285 0.080227100128 0.085674373301 0.090016904418 0.09321464276 
0.095297758137 0.09635611092 0.096526805932 0.095982894978 0.094924138699 0.093568681809 0.092143125167 0.090866194409 0.089913786929 
0.089359675798 0.089157769327 0.089208685728 0.089418701925 0.089720278434 0.090079990401 0.090499341247 0.091003630107 0.09162573234 
0.09240828687 0.093434323509 0.094861509818 0.096837739954 0.09927773373 0.10193761636 0.10461016475 0.10718339172 0.10963788721 
0.11203086129 0.11448039049 0.11715137418 0.12023554997 0.12391418437 0.12830432153 0.1334109071 0.13911025596 0.14518154879 
0.15137193663 0.15744939462 0.16322069542 0.16852629549 0.17323203782 0.17722905776 0.18044156584 0.18283512758 0.18441826543 
0.18523496371 0.18535052045 0.18483524669 0.18374966833 0.1821338887 0.18000431604 0.17735990013 0.17419546207 0.17051638852 
0.16635012561 0.16175234882 0.15680633186 0.15161392567 0.14627764998 0.14087542003 0.13543257859 0.12990199715 0.12416666251 
0.11806970099 0.11145979993 0.10423318259 0.096359572736 0.087889082995 0.0789434025 0.069697494669 0.060358142198 0.05114387282 
0.042268229741 0.033926588851 0.026286527557 0.019482291486 0.013613885097 0.0087504152157 0.0049362248741 0.0021978351073 0.0005500026689 
5.2529385137e-17 
