# vtk DataFile Version 5.1
vtk output
ASCII
DATASET POLYDATA
POINTS 100 float
-0.188751 -0.0264075 0.672084 -0.188632 -0.026617 0.672088 -0.188343 -0.0271064 0.672149 
-0.187837 -0.0278118 0.672172 -0.187037 -0.0286335 0.672014 -0.185849 -0.0294464 0.671491 
-0.184165 -0.0301112 0.670407 -0.181878 -0.0304881 0.668566 -0.17889 -0.0304492 0.6658 
-0.175119 -0.0298889 0.66198 -0.170509 -0.0287329 0.657031 -0.165031 -0.0269415 0.650938 
-0.158688 -0.0245116 0.643741 -0.151509 -0.0214727 0.635534 -0.14355 -0.0178818 0.626445 
-0.134886 -0.0138152 0.616625 -0.125608 -0.00936005 0.606224 -0.115814 -0.00460543 0.595378 
-0.105608 0.000364297 0.58419 -0.0950895 0.00547458 0.572719 -0.0843547 0.010663 0.560975 
-0.0734926 0.0158789 0.54892 -0.0625835 0.0210806 0.536472 -0.0516984 0.0262315 0.523519 
-0.0408984 0.0312945 0.509934 -0.0302341 0.0362276 0.495586 -0.0197444 0.0409803 0.480364 
-0.00945604 0.0454918 0.464186 0.000618282 0.0496917 0.447008 0.0104804 0.0535034 0.428835 
0.0201471 0.0568494 0.409715 0.0296491 0.0596576 0.389734 0.039029 0.0618696 0.369012 
0.0483366 0.0634466 0.347682 0.0576233 0.0643758 0.325882 0.066935 0.0646729 0.303737 
0.0763035 0.0643831 0.281349 0.0857389 0.0635779 0.258789 0.0952223 0.0623494 0.236089 
0.1047 0.0608029 0.213248 0.114083 0.0590473 0.190232 0.123244 0.0571852 0.166989 
0.132026 0.055305 0.143454 0.140247 0.0534733 0.119566 0.147715 0.0517313 0.0952841 
0.154234 0.0500938 0.0705907 0.159625 0.0485522 0.0455063 0.163731 0.0470793 0.020091 
0.166436 0.0456381 -0.00555524 0.167666 0.0441897 -0.0312969 0.167394 0.0427034 -0.0569714 
0.165644 0.0411634 -0.0823998 0.162479 0.0395754 -0.1074 0.158001 0.0379682 -0.131798 
0.152335 0.0363931 -0.155444 0.14562 0.0349193 -0.178217 0.137998 0.0336268 -0.200038 
0.129608 0.0325966 -0.220869 0.120572 0.0319004 -0.240713 0.111 0.031591 -0.259616 
0.100988 0.0316939 -0.277655 0.090616 0.0322017 -0.294933 0.0799624 0.0330728 -0.311568 
0.0691039 0.0342329 -0.327683 0.0581244 0.0355816 -0.343401 0.0471186 0.0370015 -0.35883 
0.036195 0.0383698 -0.374063 0.0254737 0.0395714 -0.389169 0.0150824 0.0405107 -0.404195 
0.00514852 0.0411225 -0.419163 -0.00421038 0.0413795 -0.434072 -0.0128971 0.0412959 -0.448901 
-0.0208445 0.0409265 -0.463612 -0.0280231 0.0403614 -0.478155 -0.0344455 0.0397169 -0.492469 
-0.0401658 0.0391229 -0.506489 -0.0452751 0.0387095 -0.520146 -0.0498924 0.0385923 -0.533373 
-0.0541522 0.0388592 -0.546105 -0.0581896 0.0395607 -0.558281 -0.0621258 0.0407028 -0.569846 
-0.0660546 0.0422449 -0.580751 -0.070032 0.0441028 -0.590956 -0.0740708 0.0461557 -0.60043 
-0.07814 0.0482577 -0.609152 -0.08217 0.0502511 -0.617108 -0.086062 0.0519825 -0.624297 
-0.0897021 0.0533169 -0.630729 -0.0929761 0.0541523 -0.636422 -0.0957852 0.0544292 -0.641403 
-0.0980595 0.0541376 -0.64571 -0.0997673 0.0533184 -0.649385 -0.10092 0.0520601 -0.652475 
-0.101572 0.050491 -0.655029 -0.101811 0.0487676 -0.657098 -0.101753 0.0470602 -0.658727 
-0.101521 0.0455364 -0.65996 -0.101234 0.0443462 -0.66083 -0.100991 0.0436076 -0.661363 
-0.100856 0.0433954 -0.661576 
LINES 2 100
OFFSETS vtktypeint64
0 100 
CONNECTIVITY vtktypeint64
0 1 2 3 4 5 6 7 8 
9 10 11 12 13 14 15 16 17 
18 19 20 21 22 23 24 25 26 
27 28 29 30 31 32 33 34 35 
36 37 38 39 40 41 42 43 44 
45 46 47 48 49 50 51 52 53 
54 55 56 57 58 59 60 61 62 
63 64 65 66 67 68 69 70 71 
72 73 74 75 76 77 78 79 80 
81 82 83 84 85 86 87 88 89 
90 91 92 93 94 95 96 97 98 
99 
POINT_DATA 100
FIELD FieldData 3
_theta 1 100 double
0 0.031733259127 0.063466518254 0.095199777382 0.12693303651 0.15866629564 0.19039955476 0.22213281389 0.25386607302 
0.28559933214 0.31733259127 0.3490658504 0.38079910953 0.41253236865 0.44426562778 0.47599888691 0.50773214603 0.53946540516 
0.57119866429 0.60293192342 0.63466518254 0.66639844167 0.6981317008 0.72986495992 0.76159821905 0.79333147818 0.82506473731 
0.85679799643 0.88853125556 0.92026451469 0.95199777382 0.98373103294 1.0154642921 1.0471975512 1.0789308103 1.1106640695 
1.1423973286 1.1741305877 1.2058638468 1.237597106 1.2693303651 1.3010636242 1.3327968833 1.3645301425 1.3962634016 
1.4279966607 1.4597299198 1.491463179 1.5231964381 1.5549296972 1.5866629564 1.6183962155 1.6501294746 1.6818627337 
1.7135959929 1.745329252 1.7770625111 1.8087957702 1.8405290294 1.8722622885 1.9039955476 1.9357288068 1.9674620659 
1.999195325 2.0309285841 2.0626618433 2.0943951024 2.1261283615 2.1578616206 2.1895948798 2.2213281389 2.253061398 
2.2847946572 2.3165279163 2.3482611754 2.3799944345 2.4117276937 2.4434609528 2.4751942119 2.506927471 2.5386607302 
2.5703939893 2.6021272484 2.6338605076 2.6655937667 2.6973270258 2.7290602849 2.7607935441 2.7925268032 2.8242600623 
2.8559933214 2.8877265806 2.9194598397 2.9511930988 2.982926358 3.0146596171 3.0463928762 3.0781261353 3.1098593945 
3.1415926536 
_radius 1 100 double
1.1227775747e-15 0.015068705395 0.029972105943 0.04454122882 0.058603688863 0.071986582673 0.084523066096 0.096061730492 0.10647705529 
0.11567887565 0.1236190169 0.13029393973 0.13574321876 0.14004462325 0.14330711189 0.14566297689 0.14725980706 0.14825230642 
0.14879372979 0.14902694057 0.14907572077 0.14903762725 0.1489799742 0.14894011126 0.1489300745 0.14894436409 0.14896869176 
0.148987459 0.14898845252 0.14896441458 0.14891226113 0.14883130857 0.14872167281 0.14858317623 0.14841424191 0.14821007482 
0.14796012786 0.14764587809 0.14724048675 0.14671168888 0.14602855359 0.14517183817 0.14414645173 0.14299312286 0.14179540281 
0.14067850886 0.13979862412 0.13932461879 0.13941707646 0.14020989272 0.14179720944 0.14422529534 0.1474876056 0.15152190644 
0.15620969268 0.16137901416 0.16681201765 0.17225812582 0.17745280107 0.18214039867 0.18609824142 0.18915838088 0.19122379725 
0.19227682711 0.19237897186 0.19166252892 0.19031542268 0.1885610621 0.18663506334 0.18476053042 0.18312372774 0.18185263701 
0.18100164189 0.18054549646 0.18038427907 0.18035869911 0.18027289459 0.17992043144 0.17910889206 0.17767919052 0.17551719232 
0.17255685148 0.16877560041 0.1641839898 0.15881242241 0.15269806995 0.14587460419 0.13836630499 0.13018673966 0.12134099395 
0.11182982194 0.10165427101 0.090820109447 0.079342164834 0.067248915038 0.054587231076 0.041426435177 0.027860365545 0.01400626555 
1.0110518272e-15 
_area 1 100 double
0 0.00046630800858 0.0018589188027 0.0041533352203 0.0072932115311 0.011175905961 0.015644953598 0.020494120475 0.025483305594 
0.030362792799 0.034900360738 0.03890571282 0.042248078862 0.044864801737 0.046760323889 0.047995837782 0.048670905745 0.048901015854 
0.048797933716 0.04845870234 0.047964102134 0.04738350643 0.046783394551 0.046239511738 0.045841541022 0.045632115913 0.04557051293 
0.045605577403 0.045705263467 0.045861419629 0.046092926947 0.046445410718 0.046975366332 0.047710372216 0.048602488296 0.049538482158 
0.050401186153 0.051110351317 0.051635360773 0.052007811775 0.052378989089 0.052985481671 0.053769346639 0.054549930997 0.055193886487 
0.055668887228 0.056067784733 0.056574881633 0.057388125003 0.058661127057 0.060534485933 0.063326594265 0.06685030454 0.07081978109 
0.075181938663 0.079903183173 0.084916007679 0.090084943643 0.09519262389 0.099951063545 0.10403537198 0.10713086869 0.10898268076 
0.10943943861 0.10848440492 0.10624715948 0.10299168857 0.099083451341 0.094943071268 0.090991237286 0.087577746435 0.0848945181 
0.082934243829 0.081548174266 0.080526745979 0.079640760955 0.07866504182 0.077406752184 0.075734221488 0.07359198066 0.070993334202 
0.067992326329 0.064646612051 0.060988835284 0.057020773055 0.052730540135 0.04811959584 0.043224183526 0.03812302802 0.032930947555 
0.02778233406 0.022810250978 0.01812813444 0.013821811082 0.009957022444 0.0065987367858 0.0038280753448 0.0017432074115 0.00044263289499 
8.678950599e-17 
