# vtk DataFile Version 5.1
vtk output
ASCII
DATASET POLYDATA
POINTS 100 float
-0.0336986 -0.0402495 0.790726 -0.0337626 -0.040418 0.791038 -0.0339881 -0.0407732 0.791932 
-0.0343873 -0.0412438 0.793226 -0.0349757 -0.0417215 0.794635 -0.0357671 -0.0420723 0.795808 
-0.0367669 -0.042152 0.796359 -0.0379654 -0.041821 0.795913 -0.0393314 -0.0409596 0.79414 
-0.0408059 -0.03948 0.79079 -0.0422995 -0.0373346 0.785711 -0.0436905 -0.0345193 0.77886 
-0.0448278 -0.0310724 0.770299 -0.0455357 -0.0270682 0.760179 -0.0456232 -0.0226069 0.748712 
-0.0448952 -0.0178025 0.736143 -0.0431666 -0.0127692 0.722717 -0.0402762 -0.00760939 0.708646 
-0.0361018 -0.00240368 0.694086 -0.0305722 0.00279537 0.679122 -0.0236768 0.00796509 0.663761 
-0.0154709 0.0131099 0.647944 -0.00607556 0.0182549 0.631552 0.00432798 0.0234353 0.614434 
0.0155091 0.0286852 0.596431 0.0272033 0.0340259 0.577398 0.0391314 0.0394545 0.557229 
0.0510199 0.0449371 0.53587 0.0626213 0.0504046 0.513326 0.0737318 0.0557538 0.489661 
0.0842053 0.0608524 0.464985 0.0939607 0.0655486 0.439441 0.102983 0.0696835 0.413186 
0.111316 0.0731053 0.386371 0.119054 0.0756829 0.35912 0.126315 0.077319 0.331524 
0.133231 0.0779594 0.303633 0.139916 0.0775987 0.275455 0.14645 0.0762809 0.24697 
0.152862 0.0740965 0.218142 0.159117 0.0711737 0.188935 0.165117 0.0676679 0.159334 
0.170699 0.0637487 0.129359 0.175655 0.0595862 0.0990761 0.179744 0.0553385 0.0686017 
0.182721 0.0511418 0.0381004 0.184355 0.0471033 0.00777403 0.18446 0.0432978 -0.0221536 
0.182912 0.0397693 -0.0514565 0.179661 0.0365345 -0.0799267 0.174743 0.0335902 -0.107394 
0.168273 0.0309218 -0.133739 0.16044 0.0285119 -0.158906 0.151484 0.0263487 -0.182899 
0.141675 0.0244316 -0.205781 0.131291 0.0227746 -0.227659 0.120586 0.0214068 -0.24867 
0.109776 0.0203689 -0.268961 0.0990138 0.0197084 -0.288672 0.0883863 0.0194719 -0.307917 
0.0779088 0.0196973 -0.32678 0.0675338 0.0204061 -0.345302 0.0571646 0.0215975 -0.36349 
0.0466747 0.0232443 -0.381318 0.0359306 0.025292 -0.398746 0.024814 0.0276614 -0.415726 
0.0132432 0.030254 -0.432224 0.00118785 0.0329593 -0.448228 -0.0113205 0.0356646 -0.463758 
-0.0241868 0.0382648 -0.478867 -0.0372576 0.0406714 -0.49364 -0.0503322 0.0428204 -0.508183 
-0.0631796 0.0446769 -0.52261 -0.0755576 0.0462373 -0.537032 -0.0872333 0.0475276 -0.551531 
-0.0980011 0.0485984 -0.566157 -0.107698 0.0495181 -0.580909 -0.116214 0.0503632 -0.595733 
-0.123494 0.0512084 -0.610522 -0.129542 0.0521176 -0.625126 -0.134407 0.0531351 -0.639358 
-0.138182 0.0542807 -0.653016 -0.140984 0.0555467 -0.665899 -0.142943 0.0568986 -0.677822 
-0.144196 0.0582793 -0.688635 -0.144868 0.0596157 -0.698234 -0.145072 0.0608276 -0.706564 
-0.144905 0.0618372 -0.713627 -0.144446 0.0625789 -0.719471 -0.143759 0.0630075 -0.724187 
-0.1429 0.0631044 -0.727897 -0.141917 0.0628809 -0.730742 -0.14086 0.0623783 -0.732868 
-0.139777 0.0616641 -0.734419 -0.138721 0.0608261 -0.735525 -0.137746 0.0599635 -0.736297 
-0.136905 0.0591769 -0.736828 -0.136247 0.0585577 -0.737185 -0.135809 0.0581792 -0.737417 
-0.135618 0.0580883 -0.737549 
LINES 2 100
OFFSETS vtktypeint64
0 100 
CONNECTIVITY vtktypeint64
0 1 2 3 4 5 6 7 8 
9 10 11 12 13 14 15 16 17 
18 19 20 21 22 23 24 25 26 
27 28 29 30 31 32 33 34 35 
36 37 38 39 40 41 42 43 44 
45 46 47 48 49 50 51 52 53 
54 55 56 57 58 59 60 61 62 
63 64 65 66 67 68 69 70 71 
72 73 74 75 76 77 78 79 80 
81 82 83 84 85 86 87 88 89 
90 91 92 93 94 95 96 97 98 
99 
POINT_DATA 100
FIELD FieldData 3
_theta 1 100 double
0 0.031733259127 0.063466518254 0.095199777382 0.12693303651 0.15866629564 0.19039955476 0.22213281389 0.25386607302 
0.28559933214 0.31733259127 0.3490658504 0.38079910953 0.41253236865 0.44426562778 0.47599888691 0.50773214603 0.53946540516 
0.57119866429 0.60293192342 0.63466518254 0.66639844167 0.6981317008 0.72986495992 0.76159821905 0.79333147818 0.82506473731 
0.85679799643 0.88853125556 0.92026451469 0.95199777382 0.98373103294 1.0154642921 1.0471975512 1.0789308103 1.1106640695 
1.1423973286 1.1741305877 1.2058638468 1.237597106 1.2693303651 1.3010636242 1.3327968833 1.3645301425 1.3962634016 
1.4279966607 1.4597299198 1.491463179 1.5231964381 1.5549296972 1.5866629564 1.6183962155 1.6501294746 1.6818627337 
1.7135959929 1.745329252 1.7770625111 1.8087957702 1.8405290294 1.8722622885 1.9039955476 1.9357288068 1.9674620659 
1.999195325 2.0309285841 2.0626618433 2.0943951024 2.1261283615 2.1578616206 2.1895948798 2.2213281389 2.253061398 
2.2847946572 2.3165279163 2.3482611754 2.3799944345 2.4117276937 2.4434609528 2.4751942119 2.506927471 2.5386607302 
2.5703939893 2.6021272484 2.6338605076 2.6655937667 2.6973270258 2.7290602849 2.7607935441 2.7925268032 2.8242600623 
2.8559933214 2.8877265806 2.9194598397 2.9511930988 2.982926358 3.0146596171 3.0463928762 3.0781261353 3.1098593945 
3.1415926536 
_radius 1 100 double
5.5727569796e-16 0.016882893364 0.033523907173 0.04968419922 0.065137004105 0.079675929781 0.093124572415 0.10534653308 0.11625435282 
0.12581563059 0.13405462131 0.1410479226 0.14691348927 0.15179319222 0.15583060074 0.15914805622 0.16183013218 0.16392083102 
0.16543565531 0.16638141098 0.16677455336 0.16665289459 0.16607992482 0.16514326818 0.16394932113 0.16261570812 0.1612623963 
0.16000169955 0.1589275156 0.15810511303 0.15756399655 0.15729663542 0.15726425074 0.15740790128 0.15766074205 0.157957524 
0.15824016004 0.15846119237 0.15858778762 0.15860737222 0.15853398069 0.15841297878 0.15832117095 0.15835995124 0.15864210343 
0.15927705092 0.16036054329 0.16197069091 0.16416710862 0.1669886653 0.17044770231 0.17452175108 0.17914603766 0.18421066186 
0.18956495557 0.19502890734 0.20040925918 0.20551690565 0.21018244541 0.21426765872 0.21767191285 0.22033371317 0.22222853064 
0.22336445104 0.22377708343 0.22352467854 0.22268378592 0.22134526207 0.21961018614 0.21758526271 0.21537750583 0.21308829426 
0.21080717606 0.20860599164 0.2065338679 0.2046133679 0.20283770545 0.20116877446 0.19953605493 0.19783713427 0.19594109677 
0.19369577321 0.19093865571 0.18750976884 0.1832638962 0.17807980815 0.17186526468 0.16455792188 0.15612329294 0.1465513482 
0.13585320437 0.12405885526 0.11121629069 0.097391819517 0.082671043906 0.067159758074 0.050984063892 0.034289172092 0.017236627884 
9.9635841383e-16 
_area 1 100 double
0 0.00050135489881 0.0020332320865 0.004653045918 0.0083854307376 0.013160068153 0.018781824021 0.024943518305 0.031273164526 
0.037399194456 0.043015486715 0.047929857646 0.052084009315 0.055539421973 0.058432127345 0.06090946194 0.063071343411 0.064938915161 
0.066457990917 0.067529122148 0.068055172607 0.067988455286 0.067350014635 0.066214239001 0.064683053097 0.062889724889 0.061032628711 
0.05935652663 0.05806027758 0.057285765404 0.057148100265 0.057675857175 0.058752555684 0.060195522803 0.061841553681 0.063562150944 
0.065249689424 0.066804162399 0.068132253712 0.069162535517 0.069876274621 0.070346778865 0.070774740763 0.071486462979 0.072764396598 
0.074526867254 0.076441483969 0.078290669823 0.080051256869 0.081841902578 0.083873632506 0.086406394545 0.089680890901 0.093818905718 
0.098769727937 0.10432856301 0.1101769607 0.11593608311 0.12123307775 0.12576307401 0.1293281292 0.13184624965 0.13333647353 
0.13389148039 0.13363842157 0.13268679712 0.13110543812 0.12896063783 0.1263534554 0.12342151409 0.12032169789 0.11720656517 
0.1142010842 0.11138445782 0.10878278992 0.10637666092 0.10412044827 0.10196127806 0.099843489751 0.09769430505 0.095402450014 
0.092810554625 0.089733841925 0.08599812631 0.081478892525 0.076127660726 0.06998166118 0.063158779884 0.055841311367 0.04825221887 
0.04062850239 0.033197887643 0.02616470513 0.019706097601 0.013974055189 0.0090981501175 0.0051869081856 0.0023276945077 0.00058533368611 
7.133966247e-17 
