# vtk DataFile Version 5.1
vtk output
ASCII
DATASET POLYDATA
POINTS 100 float
-0.0994788 -0.0547675 0.726749 -0.0995269 -0.0546192 0.726686 -0.0996665 -0.053952 0.726462 
-0.0998769 -0.0527761 0.726019 -0.100126 -0.0511093 0.725269 -0.100371 -0.0489761 0.724104 
-0.100565 -0.0464061 0.722404 -0.100655 -0.043433 0.720052 -0.100589 -0.0400928 0.716943 
-0.100314 -0.0364223 0.712995 -0.099776 -0.0324578 0.708155 -0.0989234 -0.0282344 0.702399 
-0.0977008 -0.0237846 0.695734 -0.0960508 -0.0191384 0.68819 -0.0939117 -0.0143229 0.679814 
-0.0912184 -0.00936315 0.670663 -0.0879036 -0.00428207 0.66079 -0.0839013 0.000898356 0.650244 
-0.0791517 0.00615635 0.639057 -0.0736073 0.0114694 0.627244 -0.0672398 0.0168133 0.614808 
-0.0600463 0.0221617 0.601733 -0.0520543 0.0274851 0.587999 -0.043324 0.0327509 0.573583 
-0.0339488 0.0379231 0.558466 -0.0240508 0.0429626 0.54264 -0.0137744 0.0478275 0.52611 
-0.00327586 0.052474 0.508895 0.00728744 0.056857 0.491027 0.0177697 0.0609314 0.472544 
0.0280477 0.0646533 0.453487 0.0380291 0.0679813 0.433892 0.0476578 0.0708782 0.413779 
0.0569138 0.0733119 0.393155 0.0658092 0.0752576 0.372005 0.0743789 0.0766981 0.350291 
0.0826681 0.0776256 0.327964 0.0907177 0.0780418 0.304961 0.0985494 0.0779588 0.281222 
0.106152 0.0773985 0.256697 0.113475 0.0763925 0.231357 0.120418 0.0749807 0.205204 
0.126841 0.07321 0.178276 0.132564 0.0711328 0.150654 0.137388 0.0688043 0.122457 
0.141109 0.0662808 0.0938393 0.143539 0.0636174 0.0649799 0.144527 0.0608656 0.0360734 
0.143977 0.058072 0.00731577 0.14186 0.0552769 -0.0211083 0.138225 0.0525133 -0.0490365 
0.133193 0.0498067 -0.0763374 0.126951 0.0471759 -0.102916 0.119738 0.0446333 -0.128714 
0.111823 0.0421867 -0.153708 0.103483 0.0398404 -0.177904 0.0949751 0.0375973 -0.201325 
0.0865198 0.0354603 -0.224009 0.0782797 0.0334336 -0.245992 0.0703499 0.0315239 -0.267305 
0.0627548 0.0297407 -0.28797 0.0554525 0.0280966 -0.307991 0.0483467 0.0266066 -0.327364 
0.0413038 0.0252871 -0.346074 0.0341741 0.024155 -0.364105 0.0268132 0.0232256 -0.381444 
0.0191027 0.0225116 -0.398089 0.0109663 0.0220215 -0.414056 0.00238044 0.0217584 -0.429381 
-0.00662145 0.0217194 -0.444119 -0.0159521 0.0218955 -0.458345 -0.0254792 0.0222713 -0.472146 
-0.0350397 0.0228265 -0.485612 -0.0444567 0.0235363 -0.498828 -0.053557 0.0243733 -0.511867 
-0.0621879 0.025309 -0.524775 -0.0702305 0.0263152 -0.537572 -0.0776082 0.0273659 -0.550243 
-0.0842904 0.028438 -0.562739 -0.0902907 0.0295124 -0.574979 -0.0956599 0.0305745 -0.586861 
-0.100476 0.0316145 -0.598264 -0.104833 0.0326263 -0.609064 -0.108828 0.0336077 -0.61914 
-0.112547 0.0345589 -0.628388 -0.116062 0.0354814 -0.636725 -0.119423 0.0363776 -0.644099 
-0.122651 0.0372489 -0.650491 -0.12575 0.0380955 -0.655915 -0.128701 0.0389156 -0.660413 
-0.131474 0.0397051 -0.664055 -0.134034 0.0404577 -0.666932 -0.136344 0.0411648 -0.669144 
-0.138375 0.0418166 -0.670799 -0.140103 0.0424022 -0.672004 -0.141514 0.0429107 -0.672856 
-0.142603 0.0433321 -0.67344 -0.143368 0.0436577 -0.673827 -0.143815 0.0438808 -0.674067 
-0.143944 0.0439977 -0.67419 
LINES 2 100
OFFSETS vtktypeint64
0 100 
CONNECTIVITY vtktypeint64
0 1 2 3 4 5 6 7 8 
9 10 11 12 13 14 15 16 17 
18 19 20 21 22 23 24 25 26 
27 28 29 30 31 32 33 34 35 
36 37 38 39 40 41 42 43 44 
45 46 47 48 49 50 51 52 53 
54 55 56 57 58 59 60 61 62 
63 64 65 66 67 68 69 70 71 
72 73 74 75 76 77 78 79 80 
81 82 83 84 85 86 87 88 89 
90 91 92 93 94 95 96 97 98 
99 
POINT_DATA 100
FIELD FieldData 3
_theta 1 100 double
0 0.031733259127 0.063466518254 0.095199777382 0.12693303651 0.15866629564 0.19039955476 0.22213281389 0.25386607302 
0.28559933214 0.31733259127 0.3490658504 0.38079910953 0.41253236865 0.44426562778 0.47599888691 0.50773214603 0.53946540516 
0.57119866429 0.60293192342 0.63466518254 0.66639844167 0.6981317008 0.72986495992 0.76159821905 0.79333147818 0.82506473731 
0.85679799643 0.88853125556 0.92026451469 0.95199777382 0.98373103294 1.0154642921 1.0471975512 1.0789308103 1.1106640695 
1.1423973286 1.1741305877 1.2058638468 1.237597106 1.2693303651 1.3010636242 1.3327968833 1.3645301425 1.3962634016 
1.4279966607 1.4597299198 1.491463179 1.5231964381 1.5549296972 1.5866629564 1.6183962155 1.6501294746 1.6818627337 
1.7135959929 1.745329252 1.7770625111 1.8087957702 1.8405290294 1.8722622885 1.9039955476 1.9357288068 1.9674620659 
1.999195325 2.0309285841 2.0626618433 2.0943951024 2.1261283615 2.1578616206 2.1895948798 2.2213281389 2.253061398 
2.2847946572 2.3165279163 2.3482611754 2.3799944345 2.4117276937 2.4434609528 2.4751942119 2.506927471 2.5386607302 
2.5703939893 2.6021272484 2.6338605076 2.6655937667 2.6973270258 2.7290602849 2.7607935441 2.7925268032 2.8242600623 
2.8559933214 2.8877265806 2.9194598397 2.9511930988 2.982926358 3.0146596171 3.0463928762 3.0781261353 3.1098593945 
3.1415926536 
_radius 1 100 double
1.233250533e-15 0.01487808659 0.029674964986 0.044310517942 0.058716628341 0.072838209186 0.086629917713 0.10004949357 0.11304958337 
0.12557021708 0.13753380116 0.14884380396 0.15938751998 0.16904263311 0.17768684688 0.18520957546 0.19152450921 0.19658172429 
0.20037790189 0.20296320784 0.20444352362 0.20497706985 0.20476504362 0.20403667485 0.20302998991 0.20197037747 0.20104958262 
0.20040787669 0.20012183404 0.20019942026 0.20058301515 0.20115976139 0.20177765025 0.20226535275 0.20245387255 0.20219821113 
0.2013970945 0.2000084958 0.19805860727 0.19564254875 0.19291652971 0.19008273023 0.18736906733 0.1850065018 0.18320720086 
0.1821471443 0.18195551427 0.18271061285 0.18443983934 0.18712090998 0.19068291682 0.19500789125 0.19993510709 0.2052705297 
0.21080222743 0.21631988542 0.2216343705 0.22659293279 0.23108717966 0.23505339205 0.23846686263 0.2413330056 0.24367792618 
0.24554029391 0.24696525665 0.24800020192 0.24869164058 0.2490823946 0.24920856528 0.24909634788 0.24875942075 0.2481979535 
0.24739983546 0.24634360698 0.2450015245 0.24334100386 0.24132350102 0.23890119365 0.23601297243 0.23258179239 0.22851521031 
0.22371005234 0.21806094817 0.21147135599 0.20386502507 0.19519574311 0.18545364482 0.17466714819 0.16290050663 0.15024776468 
0.13682436136 0.12275766469 0.10817748672 0.093207381441 0.07795741765 0.062519077308 0.046962789582 0.03133829276 0.015677600537 
1.7614518549e-16 
_area 1 100 double
0 0.00063733781244 0.0025264193454 0.0056029600658 0.0097730377702 0.014927279279 0.020951731515 0.027731093419 0.035143541791 
0.043050089104 0.051283194985 0.059639118978 0.067877500883 0.075730329669 0.082920487641 0.089187590534 0.094316592742 0.098163230029 
0.10067020698 0.10186943333 0.10186905209 0.10082954038 0.09893853634 0.096394253805 0.093400488044 0.090169424943 0.086934099282 
0.08397845152 0.081581114484 0.079924126903 0.079113835345 0.079210921359 0.080076305389 0.08156242658 0.083417703712 0.085184976409 
0.086596996595 0.087306635783 0.087218602428 0.086471158823 0.08544572775 0.084390474826 0.083415307581 0.082809457059 0.082858956288 
0.083728864233 0.085481217871 0.088111603321 0.09149159397 0.095480807662 0.099990580743 0.10498485896 0.11046125912 0.11641346091 
0.12278626149 0.12944378018 0.13617037516 0.14270624687 0.14879768334 0.15423768293 0.15888517164 0.16266338096 0.16554413564 
0.16752774998 0.1686286859 0.16887347134 0.16831114522 0.16702891831 0.16515920108 0.16286847616 0.16033022117 0.15769063917 
0.15503731508 0.15238159358 0.14966221089 0.14676811951 0.14356979757 0.13994605051 0.13579750473 0.13104677502 0.12563337429 
0.11951306112 0.11266585933 0.10510955569 0.096911246129 0.088189975754 0.079107416669 0.069848826895 0.06060156144 0.051540300972 
0.042823506474 0.034597169393 0.026998294618 0.020154153796 0.014178378879 0.0091668956594 0.0051957878792 0.0023214467719 0.00058216134258 
3.469446952e-18 
