# vtk DataFile Version 5.1
vtk output
ASCII
DATASET POLYDATA
POINTS 100 float
-0.102662 -0.0269995 0.693376 -0.1026 -0.0269158 0.693281 -0.102406 -0.0264865 0.692908 
-0.102081 -0.0257059 0.692208 -0.101627 -0.0245665 0.691106 -0.101044 -0.02306 0.689509 
-0.100321 -0.0211792 0.687314 -0.0994369 -0.0189197 0.684424 -0.0983562 -0.0162812 0.680752 
-0.0970249 -0.0132694 0.676232 -0.0953721 -0.00989684 0.670824 -0.0933102 -0.00618318 0.664517 
-0.0907398 -0.0021556 0.657328 -0.0875546 0.00215195 0.649297 -0.0836491 0.00669974 0.640482 
-0.0789269 0.0114435 0.630951 -0.0733094 0.0163361 0.620774 -0.0667431 0.0213286 0.610011 
-0.0592065 0.0263719 0.598711 -0.0507141 0.0314176 0.586901 -0.0413176 0.0364183 0.574591 
-0.0311046 0.0413276 0.561767 -0.020194 0.0460998 0.548398 -0.00872861 0.0506891 0.534442 
0.00313351 0.0550485 0.519847 0.0152296 0.0591292 0.504563 0.0274024 0.0628799 0.488541 
0.039509 0.066247 0.471743 0.0514287 0.0691752 0.45414 0.063067 0.0716094 0.435719 
0.0743575 0.0734966 0.416476 0.0852597 0.0747898 0.396416 0.0957539 0.0754509 0.375555 
0.105834 0.0754553 0.353909 0.115497 0.0747951 0.331498 0.124736 0.0734826 0.308345 
0.133529 0.0715517 0.284471 0.141834 0.0690595 0.259904 0.149581 0.0660843 0.234676 
0.156677 0.0627237 0.208832 0.163004 0.0590897 0.182429 0.168429 0.0553033 0.155546 
0.172812 0.0514873 0.12828 0.17602 0.047759 0.100752 0.177936 0.0442234 0.0731021 
0.178477 0.040966 0.0454864 0.177599 0.0380487 0.0180709 0.175307 0.0355059 -0.00897653 
0.171658 0.0333439 -0.0354954 0.166759 0.0315423 -0.0613414 0.160764 0.0300575 -0.0863952 
0.15386 0.0288287 -0.110568 0.146255 0.0277847 -0.133809 0.138167 0.0268518 -0.156101 
0.129802 0.0259617 -0.177464 0.121345 0.0250587 -0.197952 0.112945 0.0241052 -0.217638 
0.104709 0.023086 -0.236615 0.0966939 0.0220091 -0.254982 0.0889123 0.0209051 -0.272836 
0.0813337 0.0198241 -0.290264 0.0738954 0.0188305 -0.307338 0.0665134 0.0179961 -0.324108 
0.0590958 0.0173936 -0.340606 0.0515557 0.0170888 -0.356843 0.0438228 0.0171348 -0.372811 
0.0358528 0.0175664 -0.388493 0.0276325 0.0183977 -0.403862 0.0191824 0.01962 -0.41889 
0.0105537 0.0212036 -0.433551 0.00182389 0.0231001 -0.447825 -0.00691213 0.025247 -0.461699 
-0.0155509 0.0275728 -0.475168 -0.0239908 0.0300028 -0.488233 -0.0321404 0.0324644 -0.5009 
-0.0399264 0.0348922 -0.513171 -0.0472981 0.037231 -0.525049 -0.0542292 0.0394385 -0.536528 
-0.0607168 0.0414858 -0.547592 -0.0667781 0.0433568 -0.558217 -0.0724447 0.0450465 -0.568368 
-0.0777562 0.0465583 -0.578 -0.0827538 0.0479014 -0.587066 -0.087474 0.049088 -0.595514 
-0.0919444 0.0501309 -0.603299 -0.0961805 0.0510415 -0.610381 -0.100186 0.0518294 -0.616732 
-0.103952 0.0525021 -0.622338 -0.107463 0.0530654 -0.627204 -0.110697 0.0535244 -0.63135 
-0.113633 0.053885 -0.634815 -0.116252 0.0541548 -0.637651 -0.118541 0.054344 -0.639922 
-0.120496 0.0544655 -0.641699 -0.12212 0.0545348 -0.643057 -0.123421 0.0545689 -0.644068 
-0.124414 0.0545852 -0.644797 -0.125114 0.0545996 -0.645299 -0.125533 0.054625 -0.645614 
-0.12568 0.0546701 -0.645766 
LINES 2 100
OFFSETS vtktypeint64
0 100 
CONNECTIVITY vtktypeint64
0 1 2 3 4 5 6 7 8 
9 10 11 12 13 14 15 16 17 
18 19 20 21 22 23 24 25 26 
27 28 29 30 31 32 33 34 35 
36 37 38 39 40 41 42 43 44 
45 46 47 48 49 50 51 52 53 
54 55 56 57 58 59 60 61 62 
63 64 65 66 67 68 69 70 71 
72 73 74 75 76 77 78 79 80 
81 82 83 84 85 86 87 88 89 
90 91 92 93 94 95 96 97 98 
99 
POINT_DATA 100
FIELD FieldData 3
_theta 1 100 double
0 0.031733259127 0.063466518254 0.095199777382 0.12693303651 0.15866629564 0.19039955476 0.22213281389 0.25386607302 
0.28559933214 0.31733259127 0.3490658504 0.38079910953 0.41253236865 0.44426562778 0.47599888691 0.50773214603 0.53946540516 
0.57119866429 0.60293192342 0.63466518254 0.66639844167 0.6981317008 0.72986495992 0.76159821905 0.79333147818 0.82506473731 
0.85679799643 0.88853125556 0.92026451469 0.95199777382 0.98373103294 1.0154642921 1.0471975512 1.0789308103 1.1106640695 
1.1423973286 1.1741305877 1.2058638468 1.237597106 1.2693303651 1.3010636242 1.3327968833 1.3645301425 1.3962634016 
1.4279966607 1.4597299198 1.491463179 1.5231964381 1.5549296972 1.5866629564 1.6183962155 1.6501294746 1.6818627337 
1.7135959929 1.745329252 1.7770625111 1.8087957702 1.8405290294 1.8722622885 1.9039955476 1.9357288068 1.9674620659 
1.999195325 2.0309285841 2.0626618433 2.0943951024 2.1261283615 2.1578616206 2.1895948798 2.2213281389 2.253061398 
2.2847946572 2.3165279163 2.3482611754 2.3799944345 2.4117276937 2.4434609528 2.4751942119 2.506927471 2.5386607302 
2.5703939893 2.6021272484 2.6338605076 2.6655937667 2.6973270258 2.7290602849 2.7607935441 2.7925268032 2.8242600623 
2.8559933214 2.8877265806 2.9194598397 2.9511930988 2.982926358 3.0146596171 3.0463928762 3.0781261353 3.1098593945 
3.1415926536 
_radius 1 100 double
6.6757785249e-16 0.014617984027 0.029211025838 0.043745660696 0.058181196935 0.072466042824 0.08653424319 0.10030281622 0.11367066795 
0.12651983466 0.13871950932 0.15013279487 0.16062553837 0.17007612809 0.1783849363 0.18548221916 0.19133367038 0.19594330479 
0.19935374599 0.20164419203 0.20292632997 0.20333835978 0.20303721881 0.20218918873 0.2009593336 0.1995005647 0.19794340488 
0.19638763462 0.19489693817 0.19349743754 0.19218055069 0.19090992048 0.18963140325 0.188284637 0.18681487051 0.18518438256 
0.18338314029 0.18143774671 0.17941681263 0.17743075023 0.17562476321 0.17416492535 0.17321861437 0.17293254426 0.17341375456 
0.17471937577 0.17685817404 0.17980163169 0.18349798366 0.18788214115 0.19287774992 0.19839223624 0.20430898898 0.21048170921 
0.21673476258 0.22287107918 0.22868674147 0.23398958131 0.23861823092 0.24245816871 0.24545213339 0.24760349594 0.24897245734 
0.24966606066 0.24982382365 0.24960120799 0.24915308274 0.24861885255 0.24811019015 0.24770163017 0.24742393711 0.24726029664 
0.24714587735 0.24697170651 0.24659347039 0.24584462383 0.24455180801 0.24255001588 0.23969541226 0.23587464822 0.23101036734 
0.22506319517 0.21803082416 0.20994486102 0.20086594596 0.19087742507 0.18007773898 0.16857181503 0.15646213514 0.14384064142 
0.13078291791 0.11734584235 0.10356911829 0.089480114941 0.075100692462 0.060454389947 0.045572463693 0.03049764522 0.015285018032 
1.8965325292e-16 
_area 1 100 double
0 0.00056354353874 0.0022376665689 0.0049744215968 0.0086989710432 0.013316366755 0.018718869592 0.024791246629 0.031411575808 
0.038446754703 0.045744607997 0.053126603526 0.060385445539 0.067290367815 0.073600773538 0.07908669433 0.083552752867 0.08686130209 
0.088950499203 0.089844242881 0.089652881757 0.088566399413 0.086848004929 0.084878085911 0.083229163577 0.081874245342 0.080774554102 
0.079975596948 0.079538507323 0.079475481909 0.079712289012 0.080128448591 0.080579559806 0.080947735406 0.081174628645 0.081263175455 
0.081250997229 0.08115457046 0.080957613476 0.080685007326 0.080442767387 0.080403178372 0.080783137766 0.081811718971 0.083610842149 
0.086093710989 0.089074923049 0.092412676882 0.096056102927 0.10003800411 0.10444645064 0.10938957792 0.11495596522 0.12116601807 
0.12792265902 0.1349912591 0.14202460198 0.1486167843 0.15436774867 0.15894724666 0.16214632266 0.16390664837 0.16433093589 
0.16370822959 0.16242952243 0.16066374877 0.15853872578 0.15621377852 0.15385097882 0.15159265023 0.14954048776 0.14773318056 
0.14612837338 0.1445987988 0.14294972714 0.14095357113 0.1383873773 0.13506165962 0.1308393433 0.12564841328 0.11948949353 
0.11243712265 0.10463348564 0.096273837244 0.087583746069 0.078790759189 0.07009598842 0.061652283819 0.053554562864 0.04584535509 
0.038534780244 0.03162845685 0.025152438603 0.019166826471 0.013767049551 0.009076191927 0.0052315893933 0.0023678647291 0.0005986545914 
2.602085214e-18 
