# vtk DataFile Version 5.1
vtk output
ASCII
DATASET POLYDATA
POINTS 100 float
-0.113741 -0.0466232 0.710627 -0.113749 -0.0463427 0.710308 -0.113749 -0.0453321 0.709341 
-0.113725 -0.0436353 0.707728 -0.113651 -0.0413219 0.705476 -0.11349 -0.0384799 0.702592 
-0.113192 -0.0352087 0.699085 -0.112698 -0.0316098 0.694967 -0.111937 -0.0277795 0.690249 
-0.110826 -0.0238015 0.684941 -0.109278 -0.0197414 0.679051 -0.107199 -0.0156447 0.672581 
-0.104495 -0.0115356 0.665528 -0.101079 -0.00741934 0.657882 -0.0968736 -0.00328637 0.649623 
-0.0918178 0.00088278 0.640727 -0.0858747 0.00511125 0.631162 -0.0790351 0.00942007 0.620893 
-0.0713213 0.013823 0.609885 -0.0627886 0.0183226 0.598104 -0.0535249 0.0229083 0.585523 
-0.043647 0.0275554 0.572125 -0.0332951 0.0322265 0.557905 -0.0226243 0.0368737 0.542867 
-0.011795 0.0414415 0.527033 -0.000962282 0.0458705 0.51043 0.00973487 0.0501009 0.493094 
0.0201827 0.0540747 0.475064 0.0302999 0.0577386 0.456377 0.0400417 0.0610446 0.437063 
0.0494005 0.0639512 0.41714 0.0584017 0.0664229 0.396615 0.0670967 0.0684301 0.375483 
0.0755523 0.0699491 0.353726 0.0838374 0.0709616 0.331318 0.09201 0.0714556 0.308233 
0.100103 0.0714262 0.28445 0.108115 0.0708765 0.259962 0.115999 0.0698193 0.234783 
0.123664 0.0682785 0.208953 0.130973 0.0662892 0.18254 0.137754 0.0638984 0.155648 
0.143806 0.0611637 0.128406 0.148923 0.0581515 0.100971 0.152904 0.0549338 0.0735122 
0.155576 0.0515851 0.0462093 0.156807 0.0481783 0.0192365 0.156522 0.0447808 -0.0072459 
0.15471 0.0414515 -0.0331015 0.151426 0.0382387 -0.0582244 0.146789 0.035179 -0.0825442 
0.140969 0.0322978 -0.106026 0.134176 0.0296114 -0.12867 0.126641 0.0271291 -0.150505 
0.118595 0.0248571 -0.17158 0.110251 0.0228017 -0.191959 0.101788 0.0209723 -0.211711 
0.0933402 0.0193831 -0.230902 0.0849878 0.0180541 -0.249588 0.0767587 0.0170095 -0.267815 
0.0686329 0.0162761 -0.285614 0.0605542 0.015879 -0.303004 0.0524441 0.0158382 -0.319999 
0.0442182 0.0161639 -0.336606 0.0358033 0.0168533 -0.352836 0.0271512 0.0178879 -0.368708 
0.0182499 0.0192338 -0.384249 0.00912946 0.0208419 -0.399497 -0.000137839 0.0226525 -0.4145 
-0.009442 0.0245994 -0.429312 -0.0186452 0.0266159 -0.443987 -0.0275946 0.0286418 -0.45857 
-0.0361373 0.0306284 -0.473092 -0.044135 0.0325435 -0.487561 -0.0514767 0.0343736 -0.501958 
-0.0580885 0.0361241 -0.516232 -0.0639387 0.0378172 -0.5303 -0.0690385 0.0394866 -0.544055 
-0.0734378 0.0411719 -0.557363 -0.0772172 0.0429105 -0.570083 -0.0804769 0.044731 -0.582066 
-0.0833252 0.0466463 -0.593177 -0.0858661 0.04865 -0.603297 -0.0881891 0.0507137 -0.612334 
-0.0903622 0.0527891 -0.620235 -0.0924278 0.0548115 -0.626981 -0.0944024 0.0567065 -0.632595 
-0.0962803 0.0583986 -0.637133 -0.0980391 0.0598196 -0.640683 -0.0996477 0.060918 -0.643357 
-0.101074 0.0616653 -0.64528 -0.102293 0.062061 -0.646586 -0.10329 0.0621337 -0.647405 
-0.104066 0.0619393 -0.647863 -0.104635 0.0615553 -0.648069 -0.105026 0.0610729 -0.648119 
-0.105271 0.0605872 -0.64809 -0.105408 0.0601861 -0.648041 -0.105466 0.0599412 -0.648015 
-0.105467 0.0598988 -0.648036 
LINES 2 100
OFFSETS vtktypeint64
0 100 
CONNECTIVITY vtktypeint64
0 1 2 3 4 5 6 7 8 
9 10 11 12 13 14 15 16 17 
18 19 20 21 22 23 24 25 26 
27 28 29 30 31 32 33 34 35 
36 37 38 39 40 41 42 43 44 
45 46 47 48 49 50 51 52 53 
54 55 56 57 58 59 60 61 62 
63 64 65 66 67 68 69 70 71 
72 73 74 75 76 77 78 79 80 
81 82 83 84 85 86 87 88 89 
90 91 92 93 94 95 96 97 98 
99 
POINT_DATA 100
FIELD FieldData 3
_theta 1 100 double
0 0.031733259127 0.063466518254 0.095199777382 0.12693303651 0.15866629564 0.19039955476 0.22213281389 0.25386607302 
0.28559933214 0.31733259127 0.3490658504 0.38079910953 0.41253236865 0.44426562778 0.47599888691 0.50773214603 0.53946540516 
0.57119866429 0.60293192342 0.63466518254 0.66639844167 0.6981317008 0.72986495992 0.76159821905 0.79333147818 0.82506473731 
0.85679799643 0.88853125556 0.92026451469 0.95199777382 0.98373103294 1.0154642921 1.0471975512 1.0789308103 1.1106640695 
1.1423973286 1.1741305877 1.2058638468 1.237597106 1.2693303651 1.3010636242 1.3327968833 1.3645301425 1.3962634016 
1.4279966607 1.4597299198 1.491463179 1.5231964381 1.5549296972 1.5866629564 1.6183962155 1.6501294746 1.6818627337 
1.7135959929 1.745329252 1.7770625111 1.8087957702 1.8405290294 1.8722622885 1.9039955476 1.9357288068 1.9674620659 
1.999195325 2.0309285841 2.0626618433 2.0943951024 2.1261283615 2.1578616206 2.1895948798 2.2213281389 2.253061398 
2.2847946572 2.3165279163 2.3482611754 2.3799944345 2.4117276937 2.4434609528 2.4751942119 2.506927471 2.5386607302 
2.5703939893 2.6021272484 2.6338605076 2.6655937667 2.6973270258 2.7290602849 2.7607935441 2.7925268032 2.8242600623 
2.8559933214 2.8877265806 2.9194598397 2.9511930988 2.982926358 3.0146596171 3.0463928762 3.0781261353 3.1098593945 
3.1415926536 
_radius 1 100 double
1.1164505632e-15 0.013855571656 0.027671978975 0.041406583219 0.055020015246 0.068472954897 0.081719531674 0.09469953771 0.10733245303 
0.11951578835 0.1311287303 0.14204029124 0.15211989995 0.16124802744 0.16932497057 0.17627694268 0.18205967169 0.18666037946 
0.19009909918 0.19242980034 0.19374098121 0.19415464692 0.19382231974 0.19291715842 0.19162231616 0.19011691826 0.18856189125 
0.18708789392 0.18578684744 0.18470760688 0.18385580159 0.1831979013 0.18266955862 0.18218769354 0.18166497015 0.18102505865 
0.18021728754 0.17922912106 0.17809421025 0.17689336495 0.17574636431 0.17479446206 0.17417722469 0.17401207234 0.17438603951 
0.17536245358 0.1769947624 0.17933532877 0.18243120876 0.18630680413 0.19094016864 0.1962432666 0.20205532958 0.20815311759 
0.21427529721 0.22015381341 0.22554452503 0.2302514919 0.23414224295 0.23715376933 0.23929042403 0.24061549629 0.24123828945 
0.24129838542 0.24094864305 0.24033843278 0.23959861808 0.23882975258 0.23809474438 0.23741671591 0.23678189076 0.23614625135 
0.23544391425 0.23459512486 0.23351249401 0.23210514164 0.23028123969 0.22794976718 0.22502214945 0.22141411101 0.21704780073 
0.2118541629 0.20577556801 0.19876875898 0.19080813148 0.18188923108 0.17203211295 0.16128389129 0.1497195136 0.13743973611 
0.12456564647 0.11122987821 0.097565633442 0.083695378612 0.069721280231 0.055719012888 0.04173568625 0.027791667673 0.013885388304 
8.9461320903e-16 
_area 1 100 double
0 0.00050303984792 0.0019996046645 0.004457561405 0.0078383707727 0.012108758549 0.017240345116 0.023192752782 0.02988665606 
0.037180088881 0.044859130578 0.052647046132 0.060229566015 0.067289986116 0.073546075692 0.078781366483 0.082866012978 0.085765989847 
0.087542232369 0.088342372369 0.088389050779 0.087989935596 0.087379521682 0.086593248574 0.085689730288 0.084712874416 0.083697686703 
0.082686323706 0.081759707141 0.081049843537 0.080581860819 0.080350624874 0.080297728202 0.080354575992 0.080476381822 0.080642124089 
0.080817836897 0.080928630522 0.080948997006 0.081051728465 0.081553763423 0.082559076029 0.084024431729 0.085851692324 0.087906627682 
0.090070479736 0.09229930001 0.094702096489 0.097536152159 0.10078148449 0.10459779943 0.10917153626 0.1146266996 0.12093161393 
0.12785047583 0.13497627195 0.14181643209 0.14789042518 0.15281487228 0.15635982318 0.15846820554 0.15924193439 0.1589065573 
0.15776788149 0.1561640999 0.15439740749 0.15265737045 0.15101812697 0.1494963072 0.14808345967 0.14674881022 0.14543918146 
0.14408585425 0.14261456958 0.140950733 0.13901672481 0.13672566418 0.13397917622 0.13067326223 0.12670967885 0.1220070657 
0.11650867086 0.1101876655 0.10305237459 0.095152083941 0.086581901205 0.077484610449 0.0680483782 0.058499653495 0.049090122148 
0.040077127614 0.03169978204 0.024156031691 0.017586591262 0.012069660592 0.0076270993413 0.0042396085637 0.001866322042 0.00046370652968 
4.5060137538e-17 
