# vtk DataFile Version 5.1
vtk output
ASCII
DATASET POLYDATA
POINTS 100 float
-0.0481074 -0.0131243 0.727838 -0.0483383 -0.0129844 0.728016 -0.0490422 -0.0123413 0.728465 
-0.0501675 -0.011233 0.729045 -0.0516323 -0.00971922 0.729544 -0.0533303 -0.00787438 0.729697 
-0.0551379 -0.00577928 0.729214 -0.0569223 -0.00351209 0.72781 -0.0585488 -0.00113996 0.725234 
-0.0598872 0.00128783 0.721291 -0.0608175 0.00374418 0.715862 -0.0612324 0.00622571 0.708906 
-0.0610395 0.00875102 0.700465 -0.0601613 0.0113563 0.690647 -0.0585349 0.0140884 0.679613 
-0.0561108 0.016997 0.667554 -0.0528529 0.0201255 0.654665 -0.0487384 0.0235037 0.641126 
-0.0437586 0.0271411 0.627081 -0.0379215 0.0310231 0.612628 -0.0312533 0.0351099 0.597809 
-0.0238009 0.0393382 0.582622 -0.0156329 0.0436257 0.567021 -0.00683943 0.0478774 0.550933 
0.00247005 0.0519933 0.534276 0.0121715 0.0558767 0.516977 0.022133 0.0594415 0.498981 
0.0322228 0.062618 0.480269 0.0423188 0.0653573 0.460857 0.0523173 0.0676327 0.440795 
0.0621399 0.0694388 0.420165 0.0717384 0.0707891 0.399064 0.0810955 0.0717108 0.377591 
0.0902217 0.0722401 0.355833 0.099148 0.0724156 0.333854 0.107915 0.0722745 0.311683 
0.116559 0.0718475 0.28931 0.1251 0.0711574 0.266692 0.133526 0.0702181 0.243756 
0.141786 0.069036 0.220412 0.14978 0.0676125 0.196571 0.157362 0.0659476 0.172159 
0.164348 0.0640436 0.147134 0.170521 0.0619088 0.121494 0.175655 0.0595604 0.0952917 
0.179529 0.0570258 0.0686271 0.181953 0.0543434 0.0416487 0.182783 0.0515607 0.0145405 
0.181938 0.0487324 -0.0124919 0.179414 0.0459167 -0.0392388 0.17528 0.0431719 -0.065504 
0.169679 0.0405519 -0.0911206 0.162813 0.0381038 -0.115963 0.154926 0.0358644 -0.139957 
0.146282 0.0338596 -0.163076 0.137141 0.0321035 -0.185346 0.127737 0.0305993 -0.206828 
0.118258 0.029341 -0.227613 0.108834 0.0283153 -0.247806 0.0995311 0.027504 -0.267508 
0.0903542 0.0268861 -0.286812 0.0812545 0.0264395 -0.305785 0.0721459 0.0261423 -0.324467 
0.0629235 0.0259731 -0.34287 0.0534849 0.0259111 -0.36098 0.0437484 0.0259359 -0.378763 
0.0336696 0.0260266 -0.396174 0.0232504 0.0261616 -0.413166 0.0125432 0.0263181 -0.429701 
0.00164659 0.0264729 -0.445752 -0.00930376 0.0266032 -0.461309 -0.0201502 0.0266877 -0.476383 
-0.03073 0.0267086 -0.490997 -0.0408932 0.0266533 -0.505186 -0.0505173 0.0265164 -0.518988 
-0.0595197 0.0263008 -0.532435 -0.0678623 0.026018 -0.545548 -0.0755524 0.0256884 -0.558328 
-0.0826356 0.0253397 -0.570756 -0.0891854 0.0250052 -0.58279 -0.0952888 0.024721 -0.594368 
-0.101031 0.0245227 -0.605412 -0.106483 0.0244427 -0.615837 -0.111687 0.0245071 -0.625556 
-0.116656 0.0247331 -0.634492 -0.121367 0.0251278 -0.64258 -0.125769 0.0256877 -0.64978 
-0.129794 0.0263985 -0.656074 -0.133366 0.0272369 -0.661473 -0.136416 0.0281724 -0.666011 
-0.138897 0.0291694 -0.669747 -0.140791 0.03019 -0.672755 -0.142117 0.0311963 -0.675124 
-0.142933 0.0321524 -0.676946 -0.143327 0.0330262 -0.678313 -0.143411 0.0337901 -0.679314 
-0.143306 0.0344217 -0.680023 -0.143126 0.0349041 -0.680504 -0.142967 0.0352253 -0.680802 
-0.14289 0.0353782 -0.680943 
LINES 2 100
OFFSETS vtktypeint64
0 100 
CONNECTIVITY vtktypeint64
0 1 2 3 4 5 6 7 8 
9 10 11 12 13 14 15 16 17 
18 19 20 21 22 23 24 25 26 
27 28 29 30 31 32 33 34 35 
36 37 38 39 40 41 42 43 44 
45 46 47 48 49 50 51 52 53 
54 55 56 57 58 59 60 61 62 
63 64 65 66 67 68 69 70 71 
72 73 74 75 76 77 78 79 80 
81 82 83 84 85 86 87 88 89 
90 91 92 93 94 95 96 97 98 
99 
POINT_DATA 100
FIELD FieldData 3
_theta 1 100 double
0 0.031733259127 0.063466518254 0.095199777382 0.12693303651 0.15866629564 0.19039955476 0.22213281389 0.25386607302 
0.28559933214 0.31733259127 0.3490658504 0.38079910953 0.41253236865 0.44426562778 0.47599888691 0.50773214603 0.53946540516 
0.57119866429 0.60293192342 0.63466518254 0.66639844167 0.6981317008 0.72986495992 0.76159821905 0.79333147818 0.82506473731 
0.85679799643 0.88853125556 0.92026451469 0.95199777382 0.98373103294 1.0154642921 1.0471975512 1.0789308103 1.1106640695 
1.1423973286 1.1741305877 1.2058638468 1.237597106 1.2693303651 1.3010636242 1.3327968833 1.3645301425 1.3962634016 
1.4279966607 1.4597299198 1.491463179 1.5231964381 1.5549296972 1.5866629564 1.6183962155 1.6501294746 1.6818627337 
1.7135959929 1.745329252 1.7770625111 1.8087957702 1.8405290294 1.8722622885 1.9039955476 1.9357288068 1.9674620659 
1.999195325 2.0309285841 2.0626618433 2.0943951024 2.1261283615 2.1578616206 2.1895948798 2.2213281389 2.253061398 
2.2847946572 2.3165279163 2.3482611754 2.3799944345 2.4117276937 2.4434609528 2.4751942119 2.506927471 2.5386607302 
2.5703939893 2.6021272484 2.6338605076 2.6655937667 2.6973270258 2.7290602849 2.7607935441 2.7925268032 2.8242600623 
2.8559933214 2.8877265806 2.9194598397 2.9511930988 2.982926358 3.0146596171 3.0463928762 3.0781261353 3.1098593945 
3.1415926536 
_radius 1 100 double
1.1188630228e-16 0.015572004965 0.030975712542 0.046049708702 0.060660328757 0.074711029635 0.088146242578 0.10094860032 0.1131294149 
0.12471375115 0.13572315697 0.14616030181 0.15599951104 0.16518533081 0.17363881684 0.18126946377 0.18799007108 0.19373206553 
0.1984593424 0.20217918063 0.20494906538 0.20687832184 0.20812350663 0.20887683451 0.20934782903 0.20973992742 0.21022557674 
0.21092464602 0.2118908458 0.21310891044 0.21450225957 0.21594823167 0.2172970124 0.21839108504 0.2190834189 0.21925367673 
0.21882210558 0.21776065999 0.21610057393 0.21393525453 0.2114172551 0.20874848922 0.2061638893 0.20391013948 0.20222239508 
0.2013024664 0.20130140248 0.20230783036 0.20434162114 0.20735176346 0.21121829114 0.21575962843 0.22074688773 0.22592484588 
0.23103687141 0.23584973578 0.24017454204 0.24388126793 0.24690580171 0.24924943634 0.25097156359 0.25217689097 0.25299897137 
0.25358213964 0.25406395173 0.25455984599 0.25515114143 0.25587695983 0.25673039079 0.25765910595 0.25857041444 0.25934029421 
0.25982533092 0.25987599785 0.25934953737 0.25812090508 0.25609069514 0.25318950486 0.24937870122 0.24464798187 0.23901047232 
0.23249634304 0.22514600944 0.21700385286 0.20811309641 0.19851209447 0.18823199754 0.17729563758 0.16571753679 0.15350505248 
0.14066069377 0.12718554695 0.11308361432 0.098366795162 0.083060174485 0.067207114012 0.050873335832 0.034148923448 0.017147205958 
5.6207316047e-16 
_area 1 100 double
0 0.00067273083882 0.0026682229141 0.0059178863878 0.0103071311 0.015679389841 0.021848378507 0.028619194516 0.035812323999 
0.04327941893 0.050900556337 0.058561398254 0.066122304982 0.073399662909 0.080171898887 0.08620537822 0.091285670585 0.095242629809 
0.097966362239 0.099417364168 0.099633937316 0.098735699711 0.096919667603 0.094448643896 0.09164003813 0.088889434783 0.086993052507 
0.086509627802 0.087365894018 0.089139900202 0.091626510021 0.094616733797 0.097876354962 0.10114548359 0.10415841188 0.10668346944 
0.10856419049 0.1097475919 0.11029299933 0.11034459572 0.1100737306 0.10966194551 0.10932925927 0.10933968263 0.10991576727 
0.11112521815 0.11307846752 0.11576257902 0.11918378903 0.12331881501 0.12813072778 0.13355262548 0.13945156758 0.14561316544 
0.15175386648 0.1575570881 0.16272025926 0.16699898033 0.17023791864 0.17238260613 0.17347186784 0.17361638088 0.17297245004 
0.17171918609 0.17004272274 0.16812669005 0.16614566827 0.16425692501 0.16258581641 0.16120359887 0.16010292324 0.15918196587 
0.15824837518 0.15704880315 0.15532035021 0.15284809297 0.1495064721 0.1452698279 0.14019262911 0.13437207982 0.12791038119 
0.12089133769 0.11337755967 0.10542356696 0.09709324483 0.08847107802 0.079662569994 0.070785541334 0.061957994571 0.053289190378 
0.044878484536 0.036822047146 0.029223132109 0.022200115911 0.015888612461 0.010436990337 0.0059963884911 0.0027070419861 0.0006832807804 
5.804666475e-17 
