# vtk DataFile Version 5.1
vtk output
ASCII
DATASET POLYDATA
POINTS 100 float
-0.0864036 -0.0463475 0.733042 -0.0863902 -0.0462093 0.73341 -0.0863955 -0.0455856 0.734415 
-0.0864155 -0.0444804 0.735867 -0.0864424 -0.0429009 0.737478 -0.086464 -0.040857 0.738892 
-0.0864628 -0.0383596 0.739725 -0.086414 -0.0354197 0.739608 -0.0862845 -0.0320473 0.738226 
-0.0860308 -0.0282508 0.735346 -0.0855981 -0.0240374 0.730843 -0.0849193 -0.0194135 0.7247 
-0.0839159 -0.0143864 0.717005 -0.0824991 -0.00896637 0.707933 -0.0805729 -0.00316939 0.69771 
-0.0780388 0.00298026 0.686585 -0.0748017 0.00944713 0.674794 -0.0707769 0.0161822 0.662525 
-0.0658972 0.0231212 0.649898 -0.0601205 0.0301838 0.636952 -0.0534355 0.037274 0.623641 
-0.0458661 0.0442817 0.609852 -0.037473 0.0510855 0.595418 -0.0283522 0.057557 0.580151 
-0.0186301 0.0635656 0.563868 -0.00845633 0.0689843 0.546423 0.00200701 0.0736959 0.52773 
0.0125965 0.0775989 0.507773 0.0231597 0.0806129 0.486615 0.0335656 0.0826839 0.464389 
0.0437134 0.0837874 0.441282 0.0535376 0.0839303 0.417512 0.0630084 0.083152 0.393301 
0.0721287 0.0815223 0.368845 0.0809257 0.0791387 0.344296 0.0894398 0.0761217 0.319743 
0.0977113 0.0726089 0.295205 0.105766 0.0687478 0.270634 0.113603 0.0646886 0.245928 
0.121186 0.0605765 0.220951 0.128434 0.0565446 0.195558 0.135226 0.0527076 0.16962 
0.141403 0.0491567 0.143049 0.146782 0.0459563 0.115816 0.151168 0.0431427 0.0879614 
0.154373 0.0407241 0.0595971 0.156234 0.0386832 0.0308982 0.156632 0.0369813 0.00208691 
0.155501 0.0355632 -0.0265881 0.152843 0.034364 -0.0548767 0.148723 0.0333155 -0.0825511 
0.143271 0.0323529 -0.109426 0.136667 0.0314205 -0.135373 0.12913 0.0304766 -0.160329 
0.120894 0.0294964 -0.184293 0.112193 0.0284737 -0.207318 0.103238 0.0274204 -0.229499 
0.0942042 0.0263642 -0.250952 0.0852188 0.0253451 -0.271796 0.076356 0.024411 -0.292136 
0.0676385 0.0236119 -0.31205 0.0590447 0.0229954 -0.331584 0.0505208 0.0226015 -0.350746 
0.0419951 0.0224595 -0.369513 0.0333946 0.022585 -0.387844 0.0246593 0.0229801 -0.405685 
0.0157544 0.0236335 -0.422992 0.00667744 0.0245231 -0.439733 -0.0025394 0.0256195 -0.455904 
-0.0118321 0.0268893 -0.471529 -0.0211126 0.0282999 -0.486658 -0.0302795 0.0298228 -0.501362 
-0.0392312 0.0314361 -0.515719 -0.0478773 0.0331262 -0.529805 -0.0561502 0.034888 -0.543678 
-0.0640107 0.0367231 -0.557367 -0.0714516 0.0386373 -0.570861 -0.0784944 0.040637 -0.584112 
-0.0851835 0.0427255 -0.597034 -0.0915755 0.0448986 -0.609509 -0.0977283 0.0471418 -0.621401 
-0.103689 0.0494283 -0.632571 -0.109483 0.0517188 -0.642891 -0.115109 0.0539624 -0.652258 
-0.120536 0.0561004 -0.660605 -0.125704 0.05807 -0.667907 -0.130534 0.0598106 -0.674184 
-0.134936 0.0612691 -0.679495 -0.138821 0.062406 -0.683929 -0.142117 0.0632003 -0.687599 
-0.144779 0.0636521 -0.690624 -0.146797 0.0637846 -0.693119 -0.1482 0.0636425 -0.695186 
-0.149055 0.0632892 -0.696906 -0.149462 0.0628014 -0.698335 -0.149543 0.0622623 -0.699507 
-0.149424 0.0617544 -0.700437 -0.149228 0.0613514 -0.701126 -0.149053 0.0611115 -0.701567 
-0.148963 0.0610719 -0.701754 
LINES 2 100
OFFSETS vtktypeint64
0 100 
CONNECTIVITY vtktypeint64
0 1 2 3 4 5 6 7 8 
9 10 11 12 13 14 15 16 17 
18 19 20 21 22 23 24 25 26 
27 28 29 30 31 32 33 34 35 
36 37 38 39 40 41 42 43 44 
45 46 47 48 49 50 51 52 53 
54 55 56 57 58 59 60 61 62 
63 64 65 66 67 68 69 70 71 
72 73 74 75 76 77 78 79 80 
81 82 83 84 85 86 87 88 89 
90 91 92 93 94 95 96 97 98 
99 
POINT_DATA 100
FIELD FieldData 3
_theta 1 100 double
0 0.031733259127 0.063466518254 0.095199777382 0.12693303651 0.15866629564 0.19039955476 0.22213281389 0.25386607302 
0.28559933214 0.31733259127 0.3490658504 0.38079910953 0.41253236865 0.44426562778 0.47599888691 0.50773214603 0.53946540516 
0.57119866429 0.60293192342 0.63466518254 0.66639844167 0.6981317008 0.72986495992 0.76159821905 0.79333147818 0.82506473731 
0.85679799643 0.88853125556 0.92026451469 0.95199777382 0.98373103294 1.0154642921 1.0471975512 1.0789308103 1.1106640695 
1.1423973286 1.1741305877 1.2058638468 1.237597106 1.2693303651 1.3010636242 1.3327968833 1.3645301425 1.3962634016 
1.4279966607 1.4597299198 1.491463179 1.5231964381 1.5549296972 1.5866629564 1.6183962155 1.6501294746 1.6818627337 
1.7135959929 1.745329252 1.7770625111 1.8087957702 1.8405290294 1.8722622885 1.9039955476 1.9357288068 1.9674620659 
1.999195325 2.0309285841 2.0626618433 2.0943951024 2.1261283615 2.1578616206 2.1895948798 2.2213281389 2.253061398 
2.2847946572 2.3165279163 2.3482611754 2.3799944345 2.4117276937 2.4434609528 2.4751942119 2.506927471 2.5386607302 
2.5703939893 2.6021272484 2.6338605076 2.6655937667 2.6973270258 2.7290602849 2.7607935441 2.7925268032 2.8242600623 
2.8559933214 2.8877265806 2.9194598397 2.9511930988 2.982926358 3.0146596171 3.0463928762 3.0781261353 3.1098593945 
3.1415926536 
_radius 1 100 double
1.4447070392e-15 0.016391913997 0.032593077377 0.048426852846 0.063745242977 0.078435938845 0.092423213758 0.10566341603 0.11813670483 
0.12983709419 0.14076296905 0.15090998585 0.16026753109 0.16881877604 0.17654330162 0.18342082208 0.18943489908 0.19457638923 
0.19884711416 0.20226437324 0.2048662873 0.20671686256 0.20790870192 0.20856108647 0.20881204112 0.20880486551 0.20867182254 
0.20851913577 0.20841707583 0.20839669899 0.20845222437 0.20854676567 0.20861953818 0.2085939459 0.20838710493 0.20792165169 
0.2071398179 0.20601803648 0.20457871573 0.20289544474 0.20108939411 0.19931748747 0.19775543059 0.19657965347 0.19595193219 
0.19600942477 0.19686046637 0.19858297639 0.20122043973 0.20477254447 0.20918265838 0.21432864587 0.22002380066 0.22603073122 
0.23208574053 0.23792779626 0.24332574223 0.24809908262 0.25213006174 0.2553668889 0.25781941439 0.25954928106 0.26065666469 
0.261265387 0.26150772105 0.26150988819 0.26137920458 0.26119396893 0.26099720293 0.26079501956 0.26055969514 0.26023664206 
0.25975364859 0.25903023001 0.25798502164 0.25653995716 0.25462120655 0.2521579089 0.24908019647 0.24531783368 0.24080024663 
0.23545811249 0.22922624114 0.22204730445 0.21387601037 0.20468343798 0.19446126924 0.18322546458 0.17101861055 0.15790997651 
0.14399252392 0.12937676555 0.11418224213 0.098528108969 0.082524611187 0.066266975343 0.049832563106 0.033281286309 0.016658589513 
1.1295888067e-15 
_area 1 100 double
0 0.00069868513682 0.0027656090729 0.0061147846915 0.010607338037 0.016057906908 0.022244290994 0.028921397816 0.035838410808 
0.04275506567 0.049452266419 0.055734948661 0.061429322762 0.066380648787 0.070458969162 0.073574555231 0.07569486949 0.076852263581 
0.077140169312 0.076705040083 0.075743322319 0.074515140937 0.073493889202 0.073194495823 0.073433934063 0.074083804208 0.075002199906 
0.076052215532 0.07713677506 0.078346926157 0.079615249578 0.080927521011 0.082287169732 0.083692274431 0.085132408063 0.086569214451 
0.087930746744 0.089129940786 0.090097915428 0.090819145276 0.091363087312 0.091888909349 0.092630848271 0.09382172476 0.095584806832 
0.097889166901 0.10067433236 0.10396262096 0.10787937371 0.11260479915 0.11829097336 0.12498091724 0.13256302428 0.14077175512 
0.14922338823 0.15747115666 0.16506789048 0.1716261303 0.17686628188 0.18064539028 0.18296325044 0.18394807904 0.18382882556 
0.18290182033 0.18148945114 0.17987225447 0.17821365445 0.17656148075 0.17491024121 0.17324053555 0.17152543349 0.16972313459 
0.16776928008 0.16557963745 0.16306605081 0.16015612941 0.15680293064 0.15297676256 0.14864261942 0.14373879783 0.13817478321 
0.13185246889 0.12469779839 0.11668752108 0.10786350079 0.098333864589 0.088263882669 0.077861116202 0.067359176953 0.057002471755 
0.04703200106 0.0376715831 0.029115167515 0.021517520662 0.014990623181 0.0096063983822 0.0054042622532 0.0024009027934 0.00059995086539 
4.5433245987e-17 
