# vtk DataFile Version 5.1
vtk output
ASCII
DATASET POLYDATA
POINTS 100 float
-0.10134 -0.0356411 0.718467 -0.10089 -0.0356184 0.717744 -0.0995749 -0.0353441 0.715562 
-0.0975032 -0.0348056 0.711987 -0.0948407 -0.0339843 0.707125 -0.0917939 -0.0328561 0.701118 
-0.088587 -0.0313931 0.694129 -0.0854365 -0.0295652 0.686335 -0.0825274 -0.0273421 0.677913 
-0.0799921 -0.0246955 0.669033 -0.0778962 -0.0216024 0.659842 -0.0762298 -0.0180477 0.650461 
-0.074908 -0.0140271 0.640974 -0.0737795 -0.00954978 0.63143 -0.0726405 -0.00464065 0.621838 
-0.0712556 0.000658559 0.612171 -0.0693802 0.00628894 0.602373 -0.0667837 0.0121753 0.592365 
-0.0632709 0.0182284 0.58205 -0.0586983 0.0243479 0.571328 -0.0529855 0.0304274 0.560101 
-0.0461192 0.0363586 0.548279 -0.0381504 0.042037 0.53579 -0.0291859 0.0473675 0.52258 
-0.0193744 0.0522683 0.508618 -0.00889042 0.0566754 0.49389 0.00208346 0.0605448 0.478402 
0.0133722 0.0638533 0.462172 0.0248215 0.0665984 0.445224 0.0363062 0.068796 0.427587 
0.0477338 0.0704772 0.409285 0.0590421 0.0716843 0.390337 0.0701933 0.0724658 0.370755 
0.0811634 0.0728718 0.350542 0.0919308 0.0729496 0.329695 0.102464 0.07274 0.30821 
0.112711 0.0722747 0.286084 0.122592 0.0715752 0.263322 0.132 0.0706527 0.239941 
0.140794 0.0695091 0.215975 0.148814 0.0681395 0.191477 0.155888 0.0665347 0.166522 
0.161844 0.0646847 0.141202 0.166524 0.062582 0.115626 0.169803 0.0602243 0.0899141 
0.171592 0.0576169 0.0641903 0.171857 0.0547743 0.0385778 0.170616 0.051721 0.0131912 
0.16794 0.0484909 -0.0118686 0.163949 0.0451268 -0.0365188 0.158803 0.0416783 -0.0606967 
0.152687 0.0381999 -0.08436 0.145799 0.034749 -0.107485 0.138333 0.0313829 -0.130063 
0.130466 0.0281571 -0.152095 0.12235 0.0251233 -0.173589 0.114099 0.0223277 -0.194552 
0.105789 0.0198098 -0.214988 0.0974578 0.0176017 -0.234894 0.0891099 0.0157277 -0.254262 
0.0807233 0.0142039 -0.273076 0.0722598 0.0130387 -0.291316 0.0636755 0.0122326 -0.308963 
0.0549309 0.0117791 -0.326003 0.0460001 0.011665 -0.342429 0.0368771 0.0118714 -0.358249 
0.0275799 0.0123745 -0.373483 0.0181507 0.0131464 -0.388167 0.00865369 0.0141565 -0.402353 
-0.000829598 0.0153721 -0.416102 -0.0102073 0.0167604 -0.429479 -0.019385 0.0182884 -0.44255 
-0.028273 0.0199247 -0.455374 -0.0367941 0.0216399 -0.467994 -0.0448886 0.0234068 -0.480436 
-0.0525182 0.0252005 -0.492701 -0.0596674 0.0269987 -0.504768 -0.0663426 0.0287807 -0.516589 
-0.0725693 0.0305271 -0.528099 -0.0783882 0.0322191 -0.539213 -0.0838491 0.033838 -0.549842 
-0.0890059 0.0353651 -0.559891 -0.0939106 0.0367811 -0.569273 -0.0986087 0.0380673 -0.577915 
-0.103136 0.0392057 -0.585758 -0.107514 0.0401803 -0.592771 -0.111753 0.0409788 -0.598942 
-0.115848 0.0415936 -0.604286 -0.119784 0.0420234 -0.608838 -0.123536 0.042274 -0.612652 
-0.127071 0.0423594 -0.615796 -0.130354 0.0423013 -0.618344 -0.133348 0.0421285 -0.620377 
-0.136019 0.0418753 -0.621971 -0.138333 0.04158 -0.623199 -0.140262 0.0412814 -0.624124 
-0.141784 0.0410168 -0.624801 -0.142881 0.0408187 -0.625271 -0.143539 0.0407125 -0.625562 
-0.143752 0.0407142 -0.625693 
LINES 2 100
OFFSETS vtktypeint64
0 100 
CONNECTIVITY vtktypeint64
0 1 2 3 4 5 6 7 8 
9 10 11 12 13 14 15 16 17 
18 19 20 21 22 23 24 25 26 
27 28 29 30 31 32 33 34 35 
36 37 38 39 40 41 42 43 44 
45 46 47 48 49 50 51 52 53 
54 55 56 57 58 59 60 61 62 
63 64 65 66 67 68 69 70 71 
72 73 74 75 76 77 78 79 80 
81 82 83 84 85 86 87 88 89 
90 91 92 93 94 95 96 97 98 
99 
POINT_DATA 100
FIELD FieldData 3
_theta 1 100 double
0 0.031733259127 0.063466518254 0.095199777382 0.12693303651 0.15866629564 0.19039955476 0.22213281389 0.25386607302 
0.28559933214 0.31733259127 0.3490658504 0.38079910953 0.41253236865 0.44426562778 0.47599888691 0.50773214603 0.53946540516 
0.57119866429 0.60293192342 0.63466518254 0.66639844167 0.6981317008 0.72986495992 0.76159821905 0.79333147818 0.82506473731 
0.85679799643 0.88853125556 0.92026451469 0.95199777382 0.98373103294 1.0154642921 1.0471975512 1.0789308103 1.1106640695 
1.1423973286 1.1741305877 1.2058638468 1.237597106 1.2693303651 1.3010636242 1.3327968833 1.3645301425 1.3962634016 
1.4279966607 1.4597299198 1.491463179 1.5231964381 1.5549296972 1.5866629564 1.6183962155 1.6501294746 1.6818627337 
1.7135959929 1.745329252 1.7770625111 1.8087957702 1.8405290294 1.8722622885 1.9039955476 1.9357288068 1.9674620659 
1.999195325 2.0309285841 2.0626618433 2.0943951024 2.1261283615 2.1578616206 2.1895948798 2.2213281389 2.253061398 
2.2847946572 2.3165279163 2.3482611754 2.3799944345 2.4117276937 2.4434609528 2.4751942119 2.506927471 2.5386607302 
2.5703939893 2.6021272484 2.6338605076 2.6655937667 2.6973270258 2.7290602849 2.7607935441 2.7925268032 2.8242600623 
2.8559933214 2.8877265806 2.9194598397 2.9511930988 2.982926358 3.0146596171 3.0463928762 3.0781261353 3.1098593945 
3.1415926536 
_radius 1 100 double
2.0177391947e-15 0.012956194265 0.025844397007 0.03859716641 0.051157164858 0.063479865855 0.075533701981 0.087297632695 0.0987565213 
0.109895016 0.12069085087 0.13110864457 0.1410953662 0.15057859679 0.15946846028 0.16766358615 0.17506074096 0.18156696102 
0.18711233715 0.19166126141 0.19522009926 0.19783989436 0.19961365804 0.20066873435 0.20115538434 0.20123298488 0.20105520542 
0.20075547223 0.20043413988 0.20014899753 0.1999107682 0.19968488464 0.19940005788 0.19896316208 0.19827882866 0.19727089452 
0.19590182696 0.19418614223 0.19219499825 0.19005120955 0.1879161987 0.18597217131 0.18440345781 0.18338008823 0.18304459883 
0.18350124146 0.18480664471 0.18696244085 0.18991184322 0.19354230713 0.19769520494 0.20218171974 0.2068027173 0.21136956748 
0.2157227829 0.21974581368 0.22337223794 0.22658574238 0.22941348159 0.23191440501 0.23416474989 0.23624302782 0.23821653435 
0.24013085715 0.24200325253 0.24382023801 0.24553934189 0.24709460877 0.24840512523 0.24938548449 0.24995679054 0.25005658793 
0.24964607109 0.24871313007 0.24727027239 0.24534727252 0.24297950321 0.24019404045 0.23699640012 0.23336084069 0.22922649194 
0.22450033078 0.2190665641 0.21280067396 0.20558554382 0.19732687999 0.18796555608 0.17748536275 0.16591564745 0.15332914989 
0.13983577043 0.12557309962 0.11069456409 0.095356244739 0.079703782093 0.063861065976 0.047922381857 0.031949275713 0.015972682087 
9.0529971223e-16 
_area 1 100 double
0 0.00049544646661 0.0019644715218 0.0043558018162 0.0075866264786 0.011547703907 0.01611183836 0.021145291373 0.026520013917 
0.032123094312 0.037859655496 0.043647515632 0.049405746501 0.055042622464 0.060449090117 0.065501377765 0.070072197722 0.07404641221 
0.077335860628 0.079889649105 0.081699003062 0.08279758243 0.083258322393 0.083187386786 0.082715714458 0.081989891706 0.081185805151 
0.080673502415 0.080416134219 0.080457929317 0.081024362713 0.082055718132 0.083357196681 0.084684283455 0.08579674198 0.086479758138 
0.086604276567 0.086177005994 0.085353415816 0.084404267064 0.083638505573 0.083393971506 0.084148179061 0.085748167135 0.087737415239 
0.090028298471 0.09263770406 0.095619683591 0.099026414681 0.10288174818 0.10716502102 0.11180287219 0.11666998129 0.1216017296 
0.12641855688 0.13095570367 0.13508902257 0.13874940183 0.141922737 0.14463724715 0.14694400903 0.14889824342 0.15054723607 
0.15192729924 0.15306941583 0.15401200252 0.15481630521 0.15555785816 0.15624064632 0.15673194397 0.15683970154 0.15638062228 
0.15519470341 0.15316020725 0.15021905581 0.14639409858 0.14178329255 0.13653106053 0.13078857328 0.12467790702 0.11827166962 
0.11159266128 0.10463055601 0.097366900216 0.089797710304 0.081945901341 0.073862468038 0.065621594667 0.057316532947 0.049059459957 
0.040983205224 0.033240140254 0.025994952534 0.019411700697 0.01363878612 0.0087965325571 0.0049709140337 0.0022146329811 0.0005542414101 
1.3117203179e-17 
