# vtk DataFile Version 5.1
vtk output
ASCII
DATASET POLYDATA
POINTS 100 float
-0.061412 -0.0654577 0.662735 -0.0613367 -0.0651673 0.662278 -0.0611001 -0.0641023 0.660695 
-0.0607445 -0.0622983 0.658047 -0.0603347 -0.0598118 0.654431 -0.0599484 -0.0567153 0.649974 
-0.0596627 -0.0530907 0.644818 -0.059542 -0.0490219 0.639106 -0.0596246 -0.0445883 0.632976 
-0.0599132 -0.0398588 0.62654 -0.0603685 -0.0348874 0.61988 -0.0609076 -0.0297113 0.613043 
-0.0614068 -0.0243512 0.606033 -0.0617102 -0.0188138 0.59882 -0.0616412 -0.0130965 0.591336 
-0.0610172 -0.0071939 0.583493 -0.0596656 -0.00110437 0.575184 -0.0574392 0.00516253 0.566298 
-0.0542296 0.0115803 0.556729 -0.0499768 0.0181008 0.546386 -0.0446757 0.0246529 0.535199 
-0.038376 0.0311425 0.523125 -0.0311784 0.0374568 0.510147 -0.0232263 0.0434702 0.496276 
-0.0146938 0.0490529 0.481547 -0.0057716 0.0540806 0.46601 0.00334727 0.0584448 0.44973 
0.0124814 0.0620617 0.432776 0.0214729 0.0648807 0.415215 0.0301956 0.0668891 0.397111 
0.0385604 0.0681138 0.378513 0.046516 0.0686203 0.359462 0.0540457 0.0685069 0.339982 
0.0611618 0.0678968 0.320088 0.0678965 0.0669274 0.299784 0.0742923 0.0657383 0.279067 
0.080391 0.0644596 0.257932 0.0862247 0.0632005 0.236376 0.0918073 0.0620408 0.2144 
0.0971286 0.0610254 0.192016 0.102151 0.0601622 0.169244 0.106809 0.0594241 0.146121 
0.111012 0.0587549 0.122696 0.114649 0.0580774 0.0990346 0.117592 0.0573049 0.0752157 
0.119709 0.0563524 0.05133 0.12087 0.0551482 0.0274785 0.120955 0.0536436 0.00376821 
0.119863 0.0518201 -0.0196914 0.11752 0.0496934 -0.0427931 0.113884 0.047313 -0.0654365 
0.108949 0.044759 -0.0875336 0.102749 0.0421347 -0.109013 0.0953546 0.0395579 -0.129823 
0.0868741 0.0371491 -0.149937 0.0774482 0.0350216 -0.169353 0.0672441 0.0332703 -0.188096 
0.056448 0.0319646 -0.206213 0.0452564 0.0311424 -0.223774 0.0338672 0.0308084 -0.240864 
0.02247 0.0309354 -0.257578 0.0112377 0.0314686 -0.274015 0.000318821 0.0323323 -0.290268 
-0.0101677 0.0334379 -0.306421 -0.0201365 0.0346933 -0.322541 -0.0295361 0.0360105 -0.338673 
-0.0383479 0.0373128 -0.354838 -0.0465815 0.0385398 -0.371034 -0.0542692 0.0396499 -0.387236 
-0.0614582 0.0406201 -0.403399 -0.0682026 0.0414445 -0.419464 -0.074556 0.0421296 -0.435363 
-0.0805641 0.0426904 -0.451022 -0.0862601 0.0431451 -0.466372 -0.0916617 0.0435109 -0.481345 
-0.0967709 0.0438005 -0.495883 -0.101576 0.0440207 -0.509937 -0.106056 0.0441726 -0.523466 
-0.110186 0.0442528 -0.536434 -0.113945 0.0442564 -0.54881 -0.117319 0.0441803 -0.560563 
-0.120312 0.0440268 -0.571662 -0.122942 0.0438061 -0.582071 -0.125248 0.0435376 -0.591753 
-0.127285 0.0432501 -0.600668 -0.129121 0.04298 -0.608775 -0.130831 0.0427678 -0.61604 
-0.132488 0.0426538 -0.622441 -0.134155 0.0426732 -0.627965 -0.135881 0.0428507 -0.632623 
-0.137688 0.043197 -0.636445 -0.139575 0.0437059 -0.639485 -0.14151 0.0443535 -0.641819 
-0.143439 0.0450998 -0.643539 -0.145286 0.0458916 -0.644752 -0.146964 0.0466683 -0.645568 
-0.148382 0.0473677 -0.646092 -0.149457 0.0479324 -0.646418 -0.15012 0.0483167 -0.646619 
-0.150329 0.0484907 -0.646742 
LINES 2 100
OFFSETS vtktypeint64
0 100 
CONNECTIVITY vtktypeint64
0 1 2 3 4 5 6 7 8 
9 10 11 12 13 14 15 16 17 
18 19 20 21 22 23 24 25 26 
27 28 29 30 31 32 33 34 35 
36 37 38 39 40 41 42 43 44 
45 46 47 48 49 50 51 52 53 
54 55 56 57 58 59 60 61 62 
63 64 65 66 67 68 69 70 71 
72 73 74 75 76 77 78 79 80 
81 82 83 84 85 86 87 88 89 
90 91 92 93 94 95 96 97 98 
99 
POINT_DATA 100
FIELD FieldData 3
_theta 1 100 double
0 0.031733259127 0.063466518254 0.095199777382 0.12693303651 0.15866629564 0.19039955476 0.22213281389 0.25386607302 
0.28559933214 0.31733259127 0.3490658504 0.38079910953 0.41253236865 0.44426562778 0.47599888691 0.50773214603 0.53946540516 
0.57119866429 0.60293192342 0.63466518254 0.66639844167 0.6981317008 0.72986495992 0.76159821905 0.79333147818 0.82506473731 
0.85679799643 0.88853125556 0.92026451469 0.95199777382 0.98373103294 1.0154642921 1.0471975512 1.0789308103 1.1106640695 
1.1423973286 1.1741305877 1.2058638468 1.237597106 1.2693303651 1.3010636242 1.3327968833 1.3645301425 1.3962634016 
1.4279966607 1.4597299198 1.491463179 1.5231964381 1.5549296972 1.5866629564 1.6183962155 1.6501294746 1.6818627337 
1.7135959929 1.745329252 1.7770625111 1.8087957702 1.8405290294 1.8722622885 1.9039955476 1.9357288068 1.9674620659 
1.999195325 2.0309285841 2.0626618433 2.0943951024 2.1261283615 2.1578616206 2.1895948798 2.2213281389 2.253061398 
2.2847946572 2.3165279163 2.3482611754 2.3799944345 2.4117276937 2.4434609528 2.4751942119 2.506927471 2.5386607302 
2.5703939893 2.6021272484 2.6338605076 2.6655937667 2.6973270258 2.7290602849 2.7607935441 2.7925268032 2.8242600623 
2.8559933214 2.8877265806 2.9194598397 2.9511930988 2.982926358 3.0146596171 3.0463928762 3.0781261353 3.1098593945 
3.1415926536 
_radius 1 100 double
1.3380375467e-15 0.014431800387 0.028610488733 0.042305674767 0.055353156136 0.067675754596 0.079289663515 0.090293597282 0.10084087646 
0.11109896435 0.12120566554 0.13123347564 0.14117127676 0.15092649839 0.16034438408 0.16923721925 0.17741598585 0.18471864555 
0.19103154556 0.19630241425 0.200544844 0.20383506729 0.20630225897 0.20811363794 0.20945559193 0.21051235472 0.21144458588 
0.21237096956 0.21335574987 0.21440379614 0.21546322797 0.21643470081 0.21718615958 0.21757169328 0.21745275079 0.2167195143 
0.21530994612 0.21322407 0.21053136839 0.20736966806 0.20393456334 0.20045951047 0.19718852371 0.19434583979 0.19210893539 
0.1905911179 0.18983681837 0.18982831731 0.19049958913 0.19175246847 0.19347165444 0.19553682364 0.19783145992 0.2002486678 
0.20269442063 0.20508888385 0.2073668872 0.20947886243 0.21139292514 0.21309728586 0.21460084458 0.2159297734 0.2171193437 
0.21820243467 0.21919791909 0.22010257749 0.22088912295 0.22151082268 0.22191101238 0.2220344009 0.22183687187 0.22129136258 
0.22038882821 0.21913470017 0.21754218994 0.21562411066 0.21338469557 0.2108124795 0.20787499028 0.2045159383 0.2006556995 
0.19619585963 0.19102812868 0.1850470038 0.17816445017 0.17032402592 0.16151162944 0.15176048553 0.14114902653 0.12979178491 
0.11782501293 0.1053900568 0.092618042218 0.079618870068 0.066476046234 0.053247114052 0.03996812039 0.026659968796 0.01333465039 
5.5227439594e-16 
_area 1 100 double
0 0.0006177600475 0.0024230846548 0.0052784079793 0.0089754736617 0.013266851511 0.017910775905 0.022734651592 0.02772251818 
0.033040458523 0.038850866677 0.045176917472 0.051929867459 0.058923107823 0.065874168628 0.072428141556 0.078208312404 0.082883683522 
0.086234485635 0.088194378756 0.08885611941 0.088446574862 0.087288480371 0.085756316547 0.084227280543 0.083039373269 0.082471924503 
0.082743133708 0.083989249205 0.086211902471 0.089272566575 0.092935970031 0.096899122698 0.10081699708 0.10434182868 0.10716986274 
0.10908553861 0.10999580775 0.10994823591 0.10912743728 0.10782762022 0.10640382065 0.10520889972 0.10453061057 0.10455069492 
0.10533821646 0.10686707535 0.1090404413 0.1117152222 0.11472865815 0.1179271186 0.12118679244 0.12440867093 0.12748386889 
0.13027967337 0.13268053422 0.1346222823 0.13609486968 0.13712927365 0.13777865412 0.1381015414 0.13815229169 0.13797946377 
0.13762907178 0.13714607303 0.13656802443 0.13590912126 0.13513906432 0.13417641611 0.1329170143 0.13128030409 0.12923843447 
0.12681742334 0.12407954131 0.12109881916 0.11793879002 0.11463757731 0.11120110304 0.10760244007 0.10378479362 0.099666976465 
0.095152834197 0.090147143735 0.084577878049 0.0784201516 0.07171424016 0.064570492829 0.057157283088 0.049673642126 0.042315012038 
0.035245701963 0.028589506105 0.022438786241 0.016871396726 0.0119640131 0.0077968492352 0.0044506703156 0.0019996083364 0.00050322472408 
6.5036536148e-17 
