# vtk DataFile Version 5.1
vtk output
ASCII
DATASET POLYDATA
POINTS 100 float
-0.131272 -0.0363673 0.740967 -0.131133 -0.0363844 0.740951 -0.130787 -0.0362207 0.740796 
-0.130268 -0.0358455 0.740426 -0.129623 -0.035211 0.739724 -0.1289 -0.034255 0.738541 
-0.128135 -0.0329052 0.736711 -0.127335 -0.0310837 0.734069 -0.126472 -0.0287128 0.730459 
-0.125475 -0.0257217 0.725752 -0.124228 -0.0220522 0.719857 -0.122581 -0.0176654 0.712721 
-0.120357 -0.0125471 0.704337 -0.117377 -0.00671164 0.694739 -0.113473 -0.00020532 0.683994 
-0.108513 0.00689329 0.672197 -0.102418 0.0144746 0.659456 -0.0951738 0.0224013 0.645886 
-0.086836 0.0305143 0.631595 -0.0775289 0.0386395 0.616675 -0.0674338 0.0465961 0.601201 
-0.056772 0.0542056 0.585221 -0.0457821 0.0613 0.568761 -0.0346948 0.0677298 0.551826 
-0.0237091 0.0733699 0.534398 -0.0129721 0.0781242 0.516451 -0.0025653 0.0819275 0.497945 
0.00750106 0.0847458 0.478841 0.0172838 0.0865745 0.459097 0.0268946 0.0874349 0.438676 
0.0364797 0.0873702 0.417547 0.0461949 0.0864405 0.395683 0.056179 0.0847187 0.373068 
0.0665276 0.0822866 0.349692 0.0772722 0.0792318 0.325553 0.0883665 0.0756459 0.300661 
0.099681 0.071624 0.275036 0.111008 0.0672641 0.248715 0.122075 0.0626675 0.221749 
0.132567 0.0579384 0.194209 0.142153 0.0531837 0.166189 0.150515 0.0485112 0.1378 
0.157373 0.0440269 0.109177 0.162515 0.0398311 0.0804674 0.165806 0.0360138 0.0518311 
0.167205 0.0326499 0.0234316 0.166755 0.0297937 -0.00457189 0.164584 0.0274752 -0.0320325 
0.16088 0.0256972 -0.058824 0.155874 0.0244345 -0.0848473 0.149818 0.0236357 -0.110035 
0.142956 0.0232263 -0.134355 0.13551 0.0231153 -0.157805 0.127662 0.0232024 -0.180418 
0.119544 0.0233866 -0.202246 0.111239 0.0235748 -0.223363 0.102787 0.0236896 -0.243847 
0.0941909 0.0236759 -0.26378 0.0854336 0.0235045 -0.283237 0.0764913 0.0231739 -0.30228 
0.0673483 0.0227087 -0.320956 0.0580077 0.0221559 -0.339297 0.048499 0.0215789 -0.357318 
0.0388799 0.0210503 -0.375022 0.0292336 0.0206438 -0.392405 0.0196621 0.0204273 -0.409458 
0.0102751 0.0204562 -0.426173 0.0011791 0.020769 -0.442546 -0.00753486 0.0213852 -0.458575 
-0.0158007 0.022305 -0.474267 -0.0235837 0.0235112 -0.489628 -0.0308837 0.0249727 -0.504666 
-0.0377325 0.026649 -0.519383 -0.0441889 0.0284947 -0.533773 -0.0503289 0.0304633 -0.547818 
-0.0562352 0.0325112 -0.561485 -0.0619855 0.0345987 -0.574729 -0.0676413 0.0366905 -0.58749 
-0.0732396 0.038755 -0.599701 -0.0787875 0.0407621 -0.61129 -0.0842601 0.0426806 -0.622187 
-0.0896026 0.0444767 -0.632333 -0.0947361 0.0461119 -0.64168 -0.0995659 0.0475437 -0.650202 
-0.103991 0.0487266 -0.657895 -0.107917 0.0496155 -0.664773 -0.111263 0.0501697 -0.670875 
-0.113971 0.0503588 -0.676253 -0.116016 0.0501674 -0.680971 -0.117403 0.0496001 -0.685099 
-0.118174 0.048685 -0.688704 -0.118399 0.0474744 -0.691845 -0.118175 0.0460443 -0.694574 
-0.117619 0.04449 -0.696925 -0.116856 0.0429203 -0.698922 -0.116012 0.0414495 -0.700573 
-0.115206 0.0401878 -0.701881 -0.114539 0.0392326 -0.702838 -0.114089 0.0386596 -0.703438 
-0.113906 0.038516 -0.703673 
LINES 2 100
OFFSETS vtktypeint64
0 100 
CONNECTIVITY vtktypeint64
0 1 2 3 4 5 6 7 8 
9 10 11 12 13 14 15 16 17 
18 19 20 21 22 23 24 25 26 
27 28 29 30 31 32 33 34 35 
36 37 38 39 40 41 42 43 44 
45 46 47 48 49 50 51 52 53 
54 55 56 57 58 59 60 61 62 
63 64 65 66 67 68 69 70 71 
72 73 74 75 76 77 78 79 80 
81 82 83 84 85 86 87 88 89 
90 91 92 93 94 95 96 97 98 
99 
POINT_DATA 100
FIELD FieldData 3
_theta 1 100 double
0 0.031733259127 0.063466518254 0.095199777382 0.12693303651 0.15866629564 0.19039955476 0.22213281389 0.25386607302 
0.28559933214 0.31733259127 0.3490658504 0.38079910953 0.41253236865 0.44426562778 0.47599888691 0.50773214603 0.53946540516 
0.57119866429 0.60293192342 0.63466518254 0.66639844167 0.6981317008 0.72986495992 0.76159821905 0.79333147818 0.82506473731 
0.85679799643 0.88853125556 0.92026451469 0.95199777382 0.98373103294 1.0154642921 1.0471975512 1.0789308103 1.1106640695 
1.1423973286 1.1741305877 1.2058638468 1.237597106 1.2693303651 1.3010636242 1.3327968833 1.3645301425 1.3962634016 
1.4279966607 1.4597299198 1.491463179 1.5231964381 1.5549296972 1.5866629564 1.6183962155 1.6501294746 1.6818627337 
1.7135959929 1.745329252 1.7770625111 1.8087957702 1.8405290294 1.8722622885 1.9039955476 1.9357288068 1.9674620659 
1.999195325 2.0309285841 2.0626618433 2.0943951024 2.1261283615 2.1578616206 2.1895948798 2.2213281389 2.253061398 
2.2847946572 2.3165279163 2.3482611754 2.3799944345 2.4117276937 2.4434609528 2.4751942119 2.506927471 2.5386607302 
2.5703939893 2.6021272484 2.6338605076 2.6655937667 2.6973270258 2.7290602849 2.7607935441 2.7925268032 2.8242600623 
2.8559933214 2.8877265806 2.9194598397 2.9511930988 2.982926358 3.0146596171 3.0463928762 3.0781261353 3.1098593945 
3.1415926536 
_radius 1 100 double
1.0026881765e-15 0.016379077841 0.032814008389 0.049324367088 0.065877502804 0.08237576192 0.098655463886 0.11449674514 0.12964171492 
0.14381772549 0.15676267882 0.16824975736 0.1781094604 0.18624720163 0.19265497666 0.19741584073 0.20070027281 0.20275404904 
0.20387804875 0.20440144476 0.20465087158 0.20491918598 0.20543799141 0.20635785589 0.20773897642 0.20955316428 0.21169600309 
0.2140065184 0.21629111416 0.21834880766 0.21999547316 0.22108535927 0.22152827111 0.22130066576 0.22044921083 0.21908669801 
0.21738166304 0.21554296371 0.21379989892 0.21237978302 0.21148742778 0.21129141731 0.21191906724 0.21345758438 0.21595650388 
0.2194275673 0.22384159874 0.22912499489 0.23515921513 0.24178519873 0.24881258748 0.25603239941 0.26323145056 0.27020681655 
0.27677878146 0.28280113236 0.28816822803 0.29281875297 0.29673631699 0.29994709373 0.30251461938 0.30453184094 0.30611062754 
0.30736927362 0.30841896172 0.30935057796 0.31022351113 0.31105797038 0.31183187792 0.31248264041 0.31291330724 0.31300201843 
0.31261334909 0.31161015627 0.30986472736 0.30726829188 0.30373819342 0.29922219576 0.29369956751 0.28717883869 0.27969250202 
0.27128940887 0.26202606466 0.25195829646 0.24113469224 0.22959273161 0.21735774365 0.20444403213 0.19085709655 0.17659611905 
0.16165665662 0.14603415521 0.12972883243 0.11275171364 0.095130855277 0.076916529478 0.05818430637 0.039035331006 0.019593535637 
6.1808952577e-16 
_area 1 100 double
0 0.00070546047876 0.0028331140704 0.0064051596 0.011422980883 0.017825206605 0.025450782716 0.034021739061 0.043153574813 
0.052392073008 0.061267805469 0.06935548548 0.076324935325 0.081973347122 0.086234416827 0.089167735852 0.090937378753 0.091787413687 
0.092016755076 0.091954091264 0.091936221608 0.09228740774 0.093279859008 0.095092838374 0.097784078433 0.10090918075 0.10411705544 
0.10708491447 0.10952519653 0.11121373267 0.11205521661 0.11200618149 0.11118725034 0.1098473784 0.10834223517 0.10701082243 
0.1061729195 0.10606390933 0.10679930141 0.1083025188 0.11042982879 0.11301225795 0.11594970582 0.11925594064 0.12304919745 
0.12750970079 0.13281113669 0.13904856677 0.14619918999 0.15412961632 0.1626360507 0.17149676556 0.18052646148 0.18961722347 
0.19865781796 0.20735215258 0.21531353214 0.22222519214 0.22787377898 0.23215282954 0.23506130856 0.23669602372 0.2372358102 
0.23692008197 0.23603091567 0.23487347365 0.23368000281 0.23252205196 0.23138763061 0.23019925875 0.22880620896 0.22700564673 
0.22458044285 0.22133533493 0.21712147039 0.21184605444 0.20546988343 0.1980000706 0.18948251674 0.17999350792 0.1696304132 
0.15850530567 0.14674475753 0.13449407617 0.12192109937 0.10921595769 0.096586001243 0.084245884178 0.072401464586 0.061226552308 
0.050838548476 0.041289294719 0.032584045624 0.024720876979 0.017729853263 0.011695027172 0.0067516124021 0.0030610532444 0.00077487330831 
4.650405766e-17 
