# vtk DataFile Version 5.1
vtk output
ASCII
DATASET POLYDATA
POINTS 100 float
-0.156286 -0.0699152 0.737533 -0.155994 -0.0699698 0.736999 -0.155125 -0.0699451 0.735422 
-0.153688 -0.0697843 0.732824 -0.1517 -0.0694004 0.729244 -0.149185 -0.0686847 0.724735 
-0.146177 -0.0675175 0.719365 -0.142718 -0.0657801 0.713218 -0.138856 -0.0633663 0.706391 
-0.134647 -0.060193 0.698992 -0.130145 -0.0562085 0.691133 -0.125403 -0.0513976 0.682926 
-0.120463 -0.0457833 0.674474 -0.115354 -0.039426 0.665866 -0.110082 -0.0324183 0.657165 
-0.104636 -0.0248783 0.648407 -0.0989783 -0.016941 0.639591 -0.0930547 -0.00874928 0.63068 
-0.0867945 -0.000444714 0.621603 -0.0801211 0.00783968 0.612253 -0.07296 0.0159853 0.6025 
-0.0652493 0.0238913 0.592199 -0.0569483 0.0314756 0.581198 -0.0480451 0.0386732 0.569352 
-0.0385604 0.0454337 0.556537 -0.0285479 0.0517165 0.542652 -0.0180908 0.0574862 0.527636 
-0.00729446 0.0627087 0.511463 0.00372413 0.0673473 0.494147 0.0148477 0.0713617 0.475737 
0.0259707 0.0747076 0.456308 0.0370094 0.0773393 0.435957 0.0479087 0.0792132 0.414784 
0.058645 0.0802926 0.392889 0.0692234 0.0805537 0.370357 0.0796708 0.0799909 0.347252 
0.090024 0.0786214 0.323613 0.100315 0.0764885 0.299454 0.110557 0.073663 0.274768 
0.120727 0.0702419 0.249529 0.130757 0.0663453 0.223711 0.140527 0.0621111 0.197288 
0.149865 0.0576876 0.170257 0.158552 0.0532256 0.142637 0.166336 0.0488699 0.114487 
0.172952 0.0447509 0.0859017 0.17814 0.0409773 0.0570187 0.181674 0.0376309 0.0280098 
0.183376 0.034763 -0.000925389 0.183144 0.0323931 -0.0295716 0.180953 0.0305107 -0.0577112 
0.17687 0.0290783 -0.0851391 0.171044 0.0280368 -0.111677 0.163694 0.0273123 -0.137184 
0.155098 0.0268233 -0.161567 0.145563 0.0264887 -0.184783 0.1354 0.0262338 -0.206841 
0.124906 0.0259974 -0.227796 0.114333 0.0257355 -0.247741 0.103878 0.0254245 -0.266797 
0.0936711 0.0250618 -0.285097 0.0837709 0.0246653 -0.302776 0.0741733 0.0242703 -0.319958 
0.0648213 0.0239257 -0.336743 0.0556218 0.0236894 -0.353208 0.046465 0.0236223 -0.369398 
0.037244 0.0237831 -0.385328 0.027872 0.0242229 -0.400991 0.0182964 0.0249809 -0.416363 
0.00850682 0.026081 -0.43141 -0.0014622 0.0275296 -0.446102 -0.0115345 0.0293151 -0.460413 
-0.0216006 0.0314086 -0.474335 -0.0315292 0.0337659 -0.487878 -0.0411809 0.0363306 -0.501065 
-0.0504217 0.0390384 -0.513938 -0.059135 0.041821 -0.526542 -0.0672308 0.044611 -0.538924 
-0.0746503 0.0473461 -0.55112 -0.0813675 0.0499728 -0.563147 -0.0873862 0.0524491 -0.574999 
-0.0927346 0.0547464 -0.586637 -0.0974578 0.0568499 -0.597993 -0.10161 0.0587578 -0.60897 
-0.105245 0.0604801 -0.61945 -0.108415 0.0620353 -0.629303 -0.111161 0.0634478 -0.638398 
-0.113518 0.0647441 -0.646616 -0.115511 0.0659494 -0.653865 -0.117161 0.0670847 -0.660084 
-0.118486 0.0681643 -0.665254 -0.119509 0.0691947 -0.669403 -0.120258 0.0701738 -0.672601 
-0.120767 0.0710917 -0.674954 -0.121078 0.0719319 -0.676598 -0.121238 0.072674 -0.677681 
-0.121294 0.0732959 -0.678354 -0.121291 0.0737765 -0.678751 -0.121264 0.0740987 -0.678979 
-0.121237 0.0742513 -0.679105 
LINES 2 100
OFFSETS vtktypeint64
0 100 
CONNECTIVITY vtktypeint64
0 1 2 3 4 5 6 7 8 
9 10 11 12 13 14 15 16 17 
18 19 20 21 22 23 24 25 26 
27 28 29 30 31 32 33 34 35 
36 37 38 39 40 41 42 43 44 
45 46 47 48 49 50 51 52 53 
54 55 56 57 58 59 60 61 62 
63 64 65 66 67 68 69 70 71 
72 73 74 75 76 77 78 79 80 
81 82 83 84 85 86 87 88 89 
90 91 92 93 94 95 96 97 98 
99 
POINT_DATA 100
FIELD FieldData 3
_theta 1 100 double
0 0.031733259127 0.063466518254 0.095199777382 0.12693303651 0.15866629564 0.19039955476 0.22213281389 0.25386607302 
0.28559933214 0.31733259127 0.3490658504 0.38079910953 0.41253236865 0.44426562778 0.47599888691 0.50773214603 0.53946540516 
0.57119866429 0.60293192342 0.63466518254 0.66639844167 0.6981317008 0.72986495992 0.76159821905 0.79333147818 0.82506473731 
0.85679799643 0.88853125556 0.92026451469 0.95199777382 0.98373103294 1.0154642921 1.0471975512 1.0789308103 1.1106640695 
1.1423973286 1.1741305877 1.2058638468 1.237597106 1.2693303651 1.3010636242 1.3327968833 1.3645301425 1.3962634016 
1.4279966607 1.4597299198 1.491463179 1.5231964381 1.5549296972 1.5866629564 1.6183962155 1.6501294746 1.6818627337 
1.7135959929 1.745329252 1.7770625111 1.8087957702 1.8405290294 1.8722622885 1.9039955476 1.9357288068 1.9674620659 
1.999195325 2.0309285841 2.0626618433 2.0943951024 2.1261283615 2.1578616206 2.1895948798 2.2213281389 2.253061398 
2.2847946572 2.3165279163 2.3482611754 2.3799944345 2.4117276937 2.4434609528 2.4751942119 2.506927471 2.5386607302 
2.5703939893 2.6021272484 2.6338605076 2.6655937667 2.6973270258 2.7290602849 2.7607935441 2.7925268032 2.8242600623 
2.8559933214 2.8877265806 2.9194598397 2.9511930988 2.982926358 3.0146596171 3.0463928762 3.0781261353 3.1098593945 
3.1415926536 
_radius 1 100 double
9.3095030747e-17 0.012255655145 0.024467613464 0.036586130849 0.048557663917 0.060323924444 0.071821782139 0.082984186592 0.093742168037 
0.10402781151 0.11377789557 0.12293768512 0.13146422427 0.13932844617 0.14651554292 0.15302333508 0.1588588327 0.16403371658 
0.16855992754 0.17244668873 0.17569991075 0.17832410811 0.18032607218 0.18171905392 0.1825262932 0.18278320577 0.18253805591 
0.18185125289 0.18079346652 0.17944267968 0.17788024835 0.1761861435 0.17443383477 0.17268564798 0.17098961637 0.16937854981 
0.16787135115 0.16647616609 0.16519524745 0.16403173092 0.16299768829 0.16212137034 0.1614511524 0.1610546336 0.16101265521 
0.16140922751 0.16231959234 0.16379955118 0.16587891045 0.16856023527 0.17182204758 0.17562427818 0.17991346465 0.18462564785 
0.18968598362 0.19500552422 0.20047696011 0.20597181239 0.21134137566 0.2164227511 0.22104990985 0.22506826888 0.22835015134 
0.23080810399 0.23240348187 0.23314878225 0.2331035163 0.23236457328 0.23105282539 0.22929806624 0.227224319 0.22493722317 
0.22251474369 0.22000190773 0.21740966328 0.21471731768 0.21187752904 0.20882270914 0.20547199117 0.20173836842 0.19753585393 
0.19278637523 0.18742576387 0.18140795599 0.17470662028 0.16731387197 0.1592363553 0.15048958566 0.14109188239 0.13105937892 
0.12040339049 0.10913086216 0.097247859982 0.08476534845 0.071706012477 0.058110692876 0.04404306982 0.029591501397 0.014867382539 
1.440267949e-15 
_area 1 100 double
0 0.00040588785912 0.0016183833406 0.0036204393109 0.00637924999 0.0098419107069 0.013932710403 0.018553329003 0.023585862328 
0.028897661339 0.034347120756 0.039790536717 0.045090827372 0.05012811202 0.054809941713 0.059077180983 0.062902331988 0.066280376548 
0.069215361436 0.071707087492 0.073742224496 0.075294703277 0.076340585224 0.076879658388 0.076932361173 0.076535978576 0.075739226043 
0.074618945139 0.073327934062 0.072023119877 0.070799796207 0.069750716187 0.068895883796 0.068219444935 0.067693961502 0.067306310692 
0.067069460916 0.06701327472 0.067153262755 0.067464144804 0.067889763284 0.06837727919 0.068907573269 0.069512535322 0.070277205669 
0.071321321061 0.07276393144 0.074691794334 0.07713802858 0.080047984856 0.083313969105 0.086877664267 0.090748343234 0.094963505428 
0.099550401734 0.10450139146 0.10976009308 0.11521350373 0.12069008693 0.12596817221 0.13079640873 0.13492188791 0.13812009598 
0.14022303849 0.14114244794 0.14088457271 0.13955406777 0.13734730841 0.13453849518 0.13141767951 0.12814125657 0.124775748 
0.12136707323 0.11793841612 0.1144940507 0.11102865115 0.10753335695 0.10399383974 0.10038091314 0.096640028639 0.092689589627 
0.088434885976 0.083794063965 0.078723463325 0.073230607198 0.067371495628 0.061236198381 0.054929523398 0.048553240725 0.042194981341 
0.035927055437 0.029815456798 0.023935132243 0.018384224017 0.013290330919 0.0088058945651 0.0050943845856 0.0023114127864 0.00058519447176 
9.3803276247e-17 
