# vtk DataFile Version 5.1
vtk output
ASCII
DATASET POLYDATA
POINTS 100 float
-0.260986 -0.0677333 0.712084 -0.260277 -0.0676557 0.711782 -0.258209 -0.067297 0.710897 
-0.254857 -0.0666535 0.709407 -0.250339 -0.0657191 0.707281 -0.244801 -0.0644852 0.704486 
-0.238411 -0.0629411 0.700995 -0.231342 -0.0610739 0.696795 -0.223754 -0.0588688 0.691896 
-0.215784 -0.0563098 0.686329 -0.207538 -0.0533808 0.680156 -0.199077 -0.0500659 0.673455 
-0.190423 -0.0463512 0.666321 -0.181554 -0.0422262 0.658852 -0.172414 -0.0376847 0.651134 
-0.162923 -0.0327265 0.643236 -0.15299 -0.0273585 0.635191 -0.142524 -0.0215962 0.626993 
-0.131453 -0.015464 0.618591 -0.11973 -0.00899647 0.609891 -0.107347 -0.00223818 0.600762 
-0.0943384 0.00475585 0.591044 -0.08078 0.0119205 0.580566 -0.0667863 0.0191809 0.569158 
-0.0525013 0.0264538 0.556668 -0.0380869 0.0336482 0.542974 -0.0237091 0.0406676 0.527996 
-0.00952406 0.0474121 0.5117 0.00433444 0.0537809 0.494101 0.017765 0.0596755 0.475254 
0.030704 0.0650032 0.455251 0.0431266 0.069681 0.434207 0.0550426 0.0736391 0.412243 
0.0664875 0.0768246 0.389479 0.0775099 0.0792046 0.366021 0.0881575 0.0807682 0.341952 
0.0984622 0.0815281 0.317328 0.108426 0.08152 0.292185 0.118013 0.0808014 0.266537 
0.127143 0.0794487 0.24039 0.135689 0.0775527 0.213751 0.143491 0.0752136 0.18664 
0.150359 0.0725351 0.1591 0.156096 0.0696189 0.131204 0.160512 0.0665586 0.10306 
0.163443 0.0634356 0.0748081 0.164771 0.0603159 0.0466164 0.164435 0.0572485 0.0186711 
0.162442 0.0542657 -0.00883626 0.158865 0.0513851 -0.035722 0.153842 0.048613 -0.0618247 
0.147562 0.0459489 -0.0870166 0.140252 0.0433902 -0.111213 0.132156 0.0409367 -0.134376 
0.123515 0.0385943 -0.156517 0.114548 0.0363773 -0.177687 0.105436 0.0343089 -0.197975 
0.0963136 0.0324199 -0.217491 0.0872623 0.0307456 -0.236358 0.0783131 0.0293216 -0.254694 
0.0694547 0.0281783 -0.272606 0.0606461 0.0273359 -0.290178 0.0518326 0.0267998 -0.307467 
0.0429619 0.0265576 -0.324503 0.0339996 0.0265778 -0.341286 0.0249408 0.026811 -0.357798 
0.0158171 0.027194 -0.374006 0.00669721 0.0276549 -0.389871 -0.00231718 0.0281203 -0.405356 
-0.0111019 0.0285239 -0.420432 -0.0195237 0.0288135 -0.435083 -0.0274561 0.0289577 -0.449308 
-0.0347946 0.0289503 -0.463118 -0.0414694 0.0288118 -0.476533 -0.0474547 0.028588 -0.489579 
-0.0527713 0.0283449 -0.502275 -0.0574845 0.0281611 -0.514633 -0.0616957 0.028119 -0.526648 
-0.0655291 0.0282934 -0.538296 -0.069116 0.0287421 -0.549532 -0.072578 0.0294965 -0.560291 
-0.0760112 0.0305564 -0.570489 -0.0794742 0.0318866 -0.580036 -0.0829812 0.0334189 -0.588836 
-0.0865004 0.0350573 -0.596799 -0.0899592 0.0366867 -0.603853 -0.093255 0.0381847 -0.609943 
-0.0962697 0.0394342 -0.615045 -0.0988867 0.0403366 -0.619166 -0.101008 0.0408227 -0.622348 
-0.102569 0.0408615 -0.624662 -0.103548 0.0404647 -0.626208 -0.103975 0.0396865 -0.62711 
-0.103922 0.038619 -0.627505 -0.103506 0.0373836 -0.627536 -0.102867 0.0361184 -0.627343 
-0.102156 0.034964 -0.627056 -0.101514 0.034049 -0.626783 -0.101058 0.0334762 -0.626608 
-0.100866 0.0333117 -0.626581 
LINES 2 100
OFFSETS vtktypeint64
0 100 
CONNECTIVITY vtktypeint64
0 1 2 3 4 5 6 7 8 
9 10 11 12 13 14 15 16 17 
18 19 20 21 22 23 24 25 26 
27 28 29 30 31 32 33 34 35 
36 37 38 39 40 41 42 43 44 
45 46 47 48 49 50 51 52 53 
54 55 56 57 58 59 60 61 62 
63 64 65 66 67 68 69 70 71 
72 73 74 75 76 77 78 79 80 
81 82 83 84 85 86 87 88 89 
90 91 92 93 94 95 96 97 98 
99 
POINT_DATA 100
FIELD FieldData 3
_theta 1 100 double
0 0.031733259127 0.063466518254 0.095199777382 0.12693303651 0.15866629564 0.19039955476 0.22213281389 0.25386607302 
0.28559933214 0.31733259127 0.3490658504 0.38079910953 0.41253236865 0.44426562778 0.47599888691 0.50773214603 0.53946540516 
0.57119866429 0.60293192342 0.63466518254 0.66639844167 0.6981317008 0.72986495992 0.76159821905 0.79333147818 0.82506473731 
0.85679799643 0.88853125556 0.92026451469 0.95199777382 0.98373103294 1.0154642921 1.0471975512 1.0789308103 1.1106640695 
1.1423973286 1.1741305877 1.2058638468 1.237597106 1.2693303651 1.3010636242 1.3327968833 1.3645301425 1.3962634016 
1.4279966607 1.4597299198 1.491463179 1.5231964381 1.5549296972 1.5866629564 1.6183962155 1.6501294746 1.6818627337 
1.7135959929 1.745329252 1.7770625111 1.8087957702 1.8405290294 1.8722622885 1.9039955476 1.9357288068 1.9674620659 
1.999195325 2.0309285841 2.0626618433 2.0943951024 2.1261283615 2.1578616206 2.1895948798 2.2213281389 2.253061398 
2.2847946572 2.3165279163 2.3482611754 2.3799944345 2.4117276937 2.4434609528 2.4751942119 2.506927471 2.5386607302 
2.5703939893 2.6021272484 2.6338605076 2.6655937667 2.6973270258 2.7290602849 2.7607935441 2.7925268032 2.8242600623 
2.8559933214 2.8877265806 2.9194598397 2.9511930988 2.982926358 3.0146596171 3.0463928762 3.0781261353 3.1098593945 
3.1415926536 
_radius 1 100 double
5.6898930012e-16 0.015622308973 0.031081832347 0.046225325823 0.06091988933 0.075057922877 0.088556996519 0.10135485609 0.11340106657 
0.1246477528 0.13504215184 0.14452310952 0.15302246394 0.16047092958 0.16680706588 0.17198739634 0.17599571116 0.17884989473 
0.18060513232 0.18135297846 0.18121644416 0.18034189915 0.17888908217 0.17702075214 0.17489341307 0.1726501026 0.17041557251 
0.16829353069 0.16636519223 0.16468834391 0.16329647056 0.16219809478 0.16137708928 0.16079501602 0.1603963212 0.16011655437 
0.15989300386 0.15967651598 0.15944279662 0.15920112979 0.15899838812 0.15891682641 0.15906555247 0.1595673529 0.16054389095 
0.16210239717 0.16432572629 0.16726586134 0.17093972722 0.17532609665 0.18036319834 0.18594770251 0.19193641839 0.19815195151 
0.20439280305 0.21044733279 0.21611009235 0.22119851836 0.22556788474 0.22912267829 0.2318231016 0.23368612453 0.23478125092 
0.23522176901 0.23515258691 0.23473581277 0.23413514809 0.23350011857 0.23295131107 0.23256808314 0.23238042623 0.23236647332 
0.23245635817 0.23254188029 0.23249013615 0.23215846583 0.2314080463 0.23011417518 0.2281723651 0.22550038278 0.22203705982 
0.21773902883 0.21257658431 0.20652972411 0.19958515482 0.19173468139 0.18297500776 0.17330863343 0.16274532438 0.15130360951 
0.13901189316 0.12590901701 0.11204435832 0.097477721249 0.082279292122 0.06652977558 0.050320570228 0.033753607882 0.016940402671 
6.7273286525e-16 
_area 1 100 double
0 0.0004638319031 0.0018468329891 0.0041223072488 0.0072427666405 0.011138187679 0.015716674626 0.020867271459 0.026463297863 
0.032364730818 0.038419482067 0.044464696438 0.050329536513 0.055840468132 0.060829446346 0.065144850596 0.068664233159 0.071306740534 
0.073041967015 0.07389231519 0.073928895913 0.073265175774 0.072053596639 0.070490131646 0.06886828143 0.06724113293 0.065685316179 
0.064265672626 0.063032194394 0.062021032393 0.061258197863 0.060762108584 0.060543220506 0.060603630832 0.060960240832 0.061702701112 
0.062572630998 0.063394748243 0.064082637525 0.064687958782 0.065389213992 0.066273194495 0.067366633296 0.068783854409 0.070797189524 
0.073606221009 0.077016320964 0.080888033645 0.085201150322 0.089980939339 0.095266335192 0.10108678397 0.10743178435 0.11421521891 
0.12125022946 0.12825317059 0.134881677 0.14079276572 0.14569893416 0.14940651037 0.15183100029 0.15299167311 0.1529919036 
0.15199418661 0.15019906121 0.1478339038 0.14515015868 0.14241950685 0.13991688369 0.13788179957 0.13645596533 0.13561876848 
0.13517543761 0.13482067647 0.13422755958 0.13311364567 0.13127765111 0.12861383286 0.12511077005 0.12083373923 0.11588868247 
0.11037373614 0.10433985473 0.097790774052 0.090719541213 0.083146436887 0.07513634908 0.06679857029 0.058278677987 0.049748431355 
0.041395691976 0.033414266154 0.025992910295 0.019303370186 0.013488810216 0.0086553032253 0.0048691789539 0.0021616543638 0.00053975546896 
6.3778087737e-17 
