# vtk DataFile Version 5.1
vtk output
ASCII
DATASET POLYDATA
POINTS 100 float
-0.0994105 -0.046794 0.661665 -0.0995267 -0.0467693 0.661635 -0.0998882 -0.0464947 0.661466 
-0.100466 -0.0459416 0.661089 -0.10121 -0.0450675 0.660405 -0.102055 -0.0438215 0.659286 
-0.10292 -0.042151 0.657597 -0.10371 -0.0400088 0.655208 -0.104321 -0.03736 0.652009 
-0.104641 -0.0341872 0.647919 -0.104555 -0.0304945 0.642896 -0.103949 -0.0263081 0.636939 
-0.10271 -0.0216759 0.630086 -0.100733 -0.0166638 0.622407 -0.0979264 -0.0113509 0.613993 
-0.0942121 -0.00582361 0.604944 -0.0895341 -0.000169548 0.595358 -0.0838617 0.00552826 0.585314 
-0.0771933 0.0111957 0.574866 -0.0695598 0.0167703 0.564036 -0.0610259 0.0222022 0.55281 
-0.0516899 0.0274532 0.541142 -0.0416805 0.0324942 0.52896 -0.0311521 0.0373021 0.516175 
-0.0202767 0.0418557 0.502689 -0.00923443 0.0461321 0.488411 0.00179719 0.0501047 0.473261 
0.0126548 0.0537419 0.457183 0.0231997 0.0570071 0.440146 0.0333266 0.0598615 0.422149 
0.042969 0.0622669 0.403214 0.0521021 0.0641901 0.383385 0.0607399 0.0656075 0.362722 
0.0689291 0.0665087 0.341289 0.0767391 0.0668996 0.319152 0.0842487 0.0668035 0.296369 
0.0915321 0.0662607 0.27299 0.0986441 0.0653262 0.249054 0.105607 0.0640653 0.224591 
0.112404 0.0625488 0.199627 0.118968 0.0608471 0.174188 0.12519 0.0590249 0.148309 
0.130918 0.0571362 0.122038 0.135973 0.0552217 0.0954441 0.140159 0.053307 0.0686157 
0.143285 0.051404 0.041665 0.145179 0.0495129 0.014724 0.145707 0.0476267 -0.01206 
0.144782 0.0457361 -0.0385319 0.142379 0.0438347 -0.0645365 0.138531 0.0419238 -0.0899273 
0.13333 0.0400153 -0.114575 0.126916 0.0381338 -0.138373 0.119465 0.0363158 -0.161244 
0.111172 0.0346071 -0.18314 0.102234 0.0330589 -0.204046 0.0928337 0.0317219 -0.223972 
0.0831271 0.0306402 -0.242954 0.0732331 0.0298458 -0.261045 0.0632308 0.0293534 -0.278314 
0.0531607 0.0291576 -0.294834 0.0430307 0.0292317 -0.310684 0.0328273 0.0295294 -0.325939 
0.0225269 0.0299884 -0.340672 0.0121096 0.0305363 -0.354952 0.00156965 0.0310972 -0.368841 
-0.00907547 0.0315993 -0.382396 -0.0197813 0.0319822 -0.395668 -0.0304766 0.0322027 -0.408703 
-0.0410686 0.032239 -0.42154 -0.0514514 0.0320924 -0.434209 -0.0615172 0.0317865 -0.446734 
-0.0711682 0.0313642 -0.459122 -0.0803273 0.0308823 -0.47137 -0.0889468 0.0304041 -0.483456 
-0.0970123 0.0299927 -0.495344 -0.104543 0.0297028 -0.506981 -0.111587 0.0295744 -0.518301 
-0.118212 0.0296276 -0.529224 -0.124496 0.0298597 -0.539669 -0.13051 0.0302452 -0.54955 
-0.136311 0.0307372 -0.558789 -0.141931 0.031272 -0.567319 -0.147369 0.0317753 -0.575086 
-0.152591 0.032169 -0.58206 -0.157533 0.0323792 -0.588231 -0.162112 0.0323431 -0.593608 
-0.166234 0.0320161 -0.598225 -0.169811 0.0313758 -0.60213 -0.17277 0.0304256 -0.605387 
-0.175073 0.0291947 -0.608065 -0.176716 0.0277368 -0.610238 -0.177741 0.0261265 -0.611981 
-0.178227 0.0244538 -0.61336 -0.17829 0.0228178 -0.614437 -0.178064 0.0213189 -0.615262 
-0.177691 0.0200518 -0.615877 -0.177305 0.0190985 -0.616312 -0.177013 0.0185221 -0.616587 
-0.176886 0.0183622 -0.616716 
LINES 2 100
OFFSETS vtktypeint64
0 100 
CONNECTIVITY vtktypeint64
0 1 2 3 4 5 6 7 8 
9 10 11 12 13 14 15 16 17 
18 19 20 21 22 23 24 25 26 
27 28 29 30 31 32 33 34 35 
36 37 38 39 40 41 42 43 44 
45 46 47 48 49 50 51 52 53 
54 55 56 57 58 59 60 61 62 
63 64 65 66 67 68 69 70 71 
72 73 74 75 76 77 78 79 80 
81 82 83 84 85 86 87 88 89 
90 91 92 93 94 95 96 97 98 
99 
POINT_DATA 100
FIELD FieldData 3
_theta 1 100 double
0 0.031733259127 0.063466518254 0.095199777382 0.12693303651 0.15866629564 0.19039955476 0.22213281389 0.25386607302 
0.28559933214 0.31733259127 0.3490658504 0.38079910953 0.41253236865 0.44426562778 0.47599888691 0.50773214603 0.53946540516 
0.57119866429 0.60293192342 0.63466518254 0.66639844167 0.6981317008 0.72986495992 0.76159821905 0.79333147818 0.82506473731 
0.85679799643 0.88853125556 0.92026451469 0.95199777382 0.98373103294 1.0154642921 1.0471975512 1.0789308103 1.1106640695 
1.1423973286 1.1741305877 1.2058638468 1.237597106 1.2693303651 1.3010636242 1.3327968833 1.3645301425 1.3962634016 
1.4279966607 1.4597299198 1.491463179 1.5231964381 1.5549296972 1.5866629564 1.6183962155 1.6501294746 1.6818627337 
1.7135959929 1.745329252 1.7770625111 1.8087957702 1.8405290294 1.8722622885 1.9039955476 1.9357288068 1.9674620659 
1.999195325 2.0309285841 2.0626618433 2.0943951024 2.1261283615 2.1578616206 2.1895948798 2.2213281389 2.253061398 
2.2847946572 2.3165279163 2.3482611754 2.3799944345 2.4117276937 2.4434609528 2.4751942119 2.506927471 2.5386607302 
2.5703939893 2.6021272484 2.6338605076 2.6655937667 2.6973270258 2.7290602849 2.7607935441 2.7925268032 2.8242600623 
2.8559933214 2.8877265806 2.9194598397 2.9511930988 2.982926358 3.0146596171 3.0463928762 3.0781261353 3.1098593945 
3.1415926536 
_radius 1 100 double
5.6665745383e-16 0.013399876543 0.026838185062 0.04033917051 0.053909845053 0.067530843407 0.08114808701 0.094667372194 0.10795407787 
0.12083933808 0.13313256239 0.14463869038 0.15517754102 0.16460227827 0.17281429724 0.1797725284 0.18549604076 0.19005974444 
0.19358387208 0.19621872944 0.19812689347 0.19946547269 0.20037104893 0.20094939645 0.20127112046 0.2013732191 0.20126550279 
0.20093999965 0.20038109992 0.19957435112 0.19851248582 0.19719827223 0.19564483019 0.19387474614 0.19191924862 0.18981785646 
0.18761791006 0.18537304761 0.18314023869 0.18097599556 0.17893317765 0.17705996024 0.17540205576 0.17400838161 0.17293916908 
0.17227403144 0.17211617437 0.17258868827 0.17382057281 0.17592377267 0.17896675855 0.1829528152 0.18781015954 0.19339634664 
0.19951387332 0.20593085351 0.21240129605 0.21868232664 0.22454832964 0.22980314247 0.23429115428 0.23790715992 0.24060384608 
0.24239530206 0.2433550938 0.24360811704 0.24331642454 0.24266025221 0.24181634815 0.24093632366 0.24012802986 0.23944280485 
0.2388706242 0.23834362876 0.23774662309 0.23693183185 0.23573507991 0.23399133321 0.23154839998 0.22827804609 0.22408389735 
0.21890562354 0.21271924579 0.20553393973 0.19738621217 0.18833260393 0.17844203506 0.16778863043 0.15644550749 0.14447976006 
0.13194884693 0.11889876117 0.10536451926 0.091373398702 0.076950815507 0.062127882081 0.046948887184 0.0314766152 0.015793799991 
9.9579470829e-16 
_area 1 100 double
0 0.00049492513533 0.0019663217553 0.0043768020354 0.0076721547556 0.011789643157 0.016662001541 0.022211881401 0.028336240637 
0.034887494153 0.041662137694 0.048405141715 0.054832041981 0.060664095729 0.065667784647 0.06968902912 0.07267406411 0.074672428086 
0.075822559369 0.076325521029 0.076414697003 0.076327539121 0.076282747079 0.07649594901 0.077026170571 0.077752554047 0.078571595308 
0.079415404807 0.080243224482 0.081032420628 0.081800750235 0.08265474877 0.08348322352 0.084122296491 0.084456372519 0.084411651512 
0.083967459155 0.083172175666 0.08215018483 0.081090744673 0.080211757985 0.079695990274 0.079622271607 0.079953211385 0.080595844268 
0.081475516133 0.082582490647 0.083990874892 0.085855203983 0.088380082749 0.091763461999 0.096137726455 0.10154169241 0.10792011874 
0.11512066321 0.12289094096 0.13090285991 0.13879515773 0.14620704829 0.15280275632 0.15829396823 0.16246209011 0.16517877294 
0.16642140131 0.16627926661 0.16494607309 0.16269601108 0.15984445091 0.15669950345 0.1535148379 0.15045474668 0.14757907843 
0.14485052477 0.1421617143 0.13937347939 0.13634823643 0.13296550899 0.12912971833 0.12477930302 0.11988443824 0.11443410432 
0.10842507734 0.10186038175 0.094757556801 0.087161453261 0.07915387987 0.070854675433 0.062413794742 0.053997984456 0.045776522901 
0.037909130385 0.030537508452 0.023781041497 0.017736670412 0.012482246818 0.0080817495278 0.0045900519212 0.0020550481294 0.00051614042464 
3.3560367187e-17 
