# vtk DataFile Version 5.1
vtk output
ASCII
DATASET POLYDATA
POINTS 100 float
-0.123457 -0.0880921 0.76756 -0.123672 -0.0879675 0.767348 -0.124254 -0.0873835 0.766657 
-0.125118 -0.0863457 0.765452 -0.126134 -0.084863 0.76368 -0.127145 -0.082945 0.761279 
-0.12798 -0.0805998 0.758185 -0.128474 -0.0778304 0.754346 -0.128488 -0.0746331 0.749724 
-0.127917 -0.070996 0.744306 -0.126699 -0.0668991 0.738109 -0.124812 -0.0623158 0.731173 
-0.122275 -0.057216 0.723566 -0.119126 -0.051571 0.715371 -0.115418 -0.0453583 0.706679 
-0.111199 -0.0385679 0.697576 -0.106496 -0.0312079 0.688136 -0.101314 -0.0233089 0.678406 
-0.0956219 -0.0149279 0.668404 -0.0893626 -0.00614902 0.658112 -0.0824576 0.00291705 0.647476 
-0.0748217 0.0121367 0.636411 -0.0663796 0.021359 0.624811 -0.0570829 0.030423 0.612554 
-0.0469253 0.0391665 0.599518 -0.0359533 0.0474355 0.585593 -0.0242708 0.0550926 0.57069 
-0.0120358 0.0620251 0.554752 0.000549899 0.0681509 0.537755 0.0132571 0.0734218 0.519714 
0.0258504 0.0778242 0.500677 0.0381106 0.0813775 0.480717 0.0498558 0.0841292 0.459928 
0.0609585 0.0861488 0.438406 0.0713556 0.0875194 0.416247 0.0810505 0.0883295 0.393529 
0.0901062 0.0886649 0.370307 0.0986303 0.0886014 0.34661 0.106754 0.0881997 0.322441 
0.114607 0.0875025 0.297776 0.122291 0.0865336 0.272577 0.129861 0.0853 0.246796 
0.137303 0.0837955 0.220393 0.14453 0.0820063 0.19334 0.151383 0.0799174 0.165638 
0.15764 0.0775182 0.13732 0.163035 0.0748089 0.108458 0.167287 0.0718039 0.079162 
0.170127 0.0685346 0.0495787 0.171328 0.0650492 0.0198805 0.170729 0.061411 -0.00974264 
0.168255 0.0576941 -0.0390959 0.163926 0.0539788 -0.0679928 0.157857 0.0503451 -0.0962664 
0.150249 0.046867 -0.12378 0.14137 0.0436065 -0.150434 0.131528 0.0406105 -0.176168 
0.121046 0.0379074 -0.200961 0.11023 0.0355073 -0.224829 0.0993491 0.0334034 -0.247815 
0.0886106 0.0315756 -0.269981 0.0781527 0.0299948 -0.291402 0.0680408 0.0286283 -0.31215 
0.0582734 0.0274455 -0.332294 0.0487952 0.0264223 -0.351887 0.0395161 0.0255449 -0.37097 
0.030331 0.0248117 -0.389568 0.0211415 0.0242331 -0.407692 0.0118733 0.0238301 -0.425348 
0.00248923 0.0236307 -0.442538 -0.00700394 0.0236656 -0.459268 -0.0165551 0.0239628 -0.475551 
-0.0260748 0.0245427 -0.491412 -0.0354462 0.0254138 -0.506884 -0.044539 0.0265694 -0.522009 
-0.0532246 0.0279861 -0.536834 -0.0613901 0.0296243 -0.551399 -0.0689499 0.0314297 -0.565733 
-0.0758529 0.0333378 -0.579846 -0.082085 0.0352779 -0.59372 -0.0876672 0.0371788 -0.607307 
-0.0926499 0.0389742 -0.620524 -0.0971034 0.0406076 -0.633258 -0.101108 0.0420359 -0.645374 
-0.104745 0.043232 -0.656719 -0.108084 0.0441853 -0.66714 -0.111183 0.044901 -0.676493 
-0.114079 0.045398 -0.684662 -0.116792 0.0457055 -0.691567 -0.119322 0.0458591 -0.69718 
-0.121661 0.0458973 -0.701522 -0.123792 0.0458573 -0.704675 -0.125694 0.0457725 -0.70677 
-0.127351 0.0456706 -0.707979 -0.128751 0.0455725 -0.708506 -0.129886 0.0454926 -0.708566 
-0.130756 0.0454399 -0.708369 -0.131363 0.0454189 -0.708101 -0.131713 0.0454318 -0.707906 
-0.131807 0.0454796 -0.707878 
LINES 2 100
OFFSETS vtktypeint64
0 100 
CONNECTIVITY vtktypeint64
0 1 2 3 4 5 6 7 8 
9 10 11 12 13 14 15 16 17 
18 19 20 21 22 23 24 25 26 
27 28 29 30 31 32 33 34 35 
36 37 38 39 40 41 42 43 44 
45 46 47 48 49 50 51 52 53 
54 55 56 57 58 59 60 61 62 
63 64 65 66 67 68 69 70 71 
72 73 74 75 76 77 78 79 80 
81 82 83 84 85 86 87 88 89 
90 91 92 93 94 95 96 97 98 
99 
POINT_DATA 100
FIELD FieldData 3
_theta 1 100 double
0 0.031733259127 0.063466518254 0.095199777382 0.12693303651 0.15866629564 0.19039955476 0.22213281389 0.25386607302 
0.28559933214 0.31733259127 0.3490658504 0.38079910953 0.41253236865 0.44426562778 0.47599888691 0.50773214603 0.53946540516 
0.57119866429 0.60293192342 0.63466518254 0.66639844167 0.6981317008 0.72986495992 0.76159821905 0.79333147818 0.82506473731 
0.85679799643 0.88853125556 0.92026451469 0.95199777382 0.98373103294 1.0154642921 1.0471975512 1.0789308103 1.1106640695 
1.1423973286 1.1741305877 1.2058638468 1.237597106 1.2693303651 1.3010636242 1.3327968833 1.3645301425 1.3962634016 
1.4279966607 1.4597299198 1.491463179 1.5231964381 1.5549296972 1.5866629564 1.6183962155 1.6501294746 1.6818627337 
1.7135959929 1.745329252 1.7770625111 1.8087957702 1.8405290294 1.8722622885 1.9039955476 1.9357288068 1.9674620659 
1.999195325 2.0309285841 2.0626618433 2.0943951024 2.1261283615 2.1578616206 2.1895948798 2.2213281389 2.253061398 
2.2847946572 2.3165279163 2.3482611754 2.3799944345 2.4117276937 2.4434609528 2.4751942119 2.506927471 2.5386607302 
2.5703939893 2.6021272484 2.6338605076 2.6655937667 2.6973270258 2.7290602849 2.7607935441 2.7925268032 2.8242600623 
2.8559933214 2.8877265806 2.9194598397 2.9511930988 2.982926358 3.0146596171 3.0463928762 3.0781261353 3.1098593945 
3.1415926536 
_radius 1 100 double
1.1188630228e-16 0.015414093029 0.030780543332 0.046047041282 0.061161731084 0.076071003046 0.090715641638 0.10502662243 0.11892216045 
0.13230721602 0.14507584327 0.15711597932 0.16831584667 0.17857111044 0.18779211192 0.19591066675 0.20288596691 0.20870908941 
0.21340558599 0.21703567298 0.21969168227 0.22149267431 0.22257645659 0.22308967207 0.22317703692 0.22297107395 0.22258369529 
0.22210073449 0.22158009744 0.22105362254 0.22053195882 0.22001090023 0.21947711282 0.21891152799 0.21828984133 0.21758104028 
0.21674603112 0.21573878486 0.21451180956 0.21302627845 0.2112651743 0.20924607324 0.20702957116 0.20472031697 0.20245981115 
0.2004127101 0.19875049698 0.19763722444 0.19722070974 0.19762891196 0.19896716873 0.20131078886 0.20469069595 0.20907540955 
0.21435672648 0.22034622542 0.22678564967 0.2333694212 0.23977463314 0.24569319741 0.25086140933 0.25508325005 0.25824502677 
0.26032034405 0.26136572094 0.26150819142 0.26092681728 0.2598302351 0.25843231884 0.25692796471 0.25547101436 0.25415641991 
0.2530088093 0.25197945494 0.25095301021 0.24976392332 0.24822015944 0.24612962513 0.24332387578 0.23967488024 0.23510301525 
0.22957676899 0.22310607223 0.21573166125 0.20751269167 0.19851432157 0.1887964674 0.17840459546 0.16736330772 0.15567351464 
0.14331393743 0.13024731989 0.11643100149 0.10183059045 0.086434670483 0.070268020875 0.053400851634 0.035952081327 0.018085640759 
1.4025300063e-15 
_area 1 100 double
0 0.00064772191534 0.0025759476032 0.0057387649355 0.010056496993 0.015412806871 0.021654371422 0.028595664829 0.03602944268 
0.043740619939 0.051519298696 0.059169453938 0.066513039281 0.073392477958 0.079675039816 0.085260237754 0.090087986644 0.094143113893 
0.097452309667 0.10007264815 0.10207481214 0.10352718475 0.10448770621 0.10500786795 0.10514706627 0.10498679128 0.10462917341 
0.10429705406 0.10405736398 0.10383577095 0.10366953993 0.1035924397 0.1036293467 0.10378648125 0.10405424946 0.10441676899 
0.10481987954 0.10517431277 0.1053972642 0.10542287514 0.10521444554 0.10478599391 0.10422953792 0.10374034867 0.10359827397 
0.10401764902 0.10499913655 0.10640635044 0.10812866953 0.11016678664 0.11265245086 0.11584272402 0.12007793195 0.12556448732 
0.13220133286 0.13976026787 0.14794098105 0.15635891382 0.16456617403 0.17210084779 0.17854787228 0.18359587407 0.18707475297 
0.18896411197 0.18937350795 0.18850709248 0.18663004278 0.18404657939 0.18107891398 0.17801481668 0.17502227302 0.17211475772 
0.16919993523 0.16613773601 0.16277379081 0.15896322085 0.15459491891 0.14961184778 0.14401773374 0.13786521626 0.13122916132 
0.12417614115 0.11674444379 0.10894483724 0.10078032424 0.092272037304 0.083477027862 0.074490738758 0.065435734767 0.056444538635 
0.047646631888 0.039166402931 0.031130729229 0.023678283838 0.016963331257 0.011151812053 0.0064110741647 0.0028955815833 0.0007310792642 
5.9703063443e-17 
