# vtk DataFile Version 5.1
vtk output
ASCII
DATASET POLYDATA
POINTS 100 float
-0.0944842 -0.0488387 0.749171 -0.0948378 -0.0486679 0.749204 -0.0958584 -0.0479247 0.749253 
-0.0974393 -0.0466218 0.749224 -0.099416 -0.0447823 0.748968 -0.101585 -0.0424381 0.748303 
-0.103726 -0.0396287 0.74703 -0.105626 -0.0363981 0.744953 -0.107096 -0.0327928 0.741898 
-0.107992 -0.0288587 0.737731 -0.108221 -0.0246389 0.732368 -0.107743 -0.0201713 0.725779 
-0.106564 -0.0154874 0.717984 -0.104727 -0.0106113 0.709054 -0.102291 -0.00556004 0.699087 
-0.0993192 -0.000345027 0.688205 -0.0958592 0.00502601 0.676527 -0.0919342 0.0105459 0.664161 
-0.0875365 0.0162045 0.651189 -0.0826297 0.0219847 0.637663 -0.0771561 0.027859 0.623594 
-0.0710505 0.0337864 0.608966 -0.064256 0.0397101 0.593733 -0.0567414 0.0455565 0.577837 
-0.0485146 0.0512366 0.561215 -0.0396324 0.0566476 0.543814 -0.0302023 0.0616776 0.525599 
-0.020378 0.0662108 0.506565 -0.0103465 0.070134 0.486734 -0.00031043 0.0733443 0.466157 
0.00953309 0.0757557 0.444907 0.019014 0.077306 0.423073 0.0280077 0.0779623 0.400745 
0.0364474 0.0777243 0.378005 0.0443289 0.0766264 0.354919 0.0517063 0.0747361 0.331526 
0.0586791 0.0721513 0.307839 0.0653722 0.0689946 0.283843 0.0719111 0.0654059 0.2595 
0.0783965 0.0615343 0.23476 0.0848808 0.0575283 0.209568 0.0913513 0.0535279 0.183882 
0.097721 0.0496558 0.157679 0.103831 0.0460113 0.130967 0.10946 0.0426662 0.103788 
0.114351 0.0396628 0.076226 0.11823 0.0370143 0.0483972 0.120845 0.0347083 0.0204482 
0.121994 0.0327113 -0.00745603 0.121545 0.0309755 -0.0351431 0.119462 0.029446 -0.0624463 
0.115803 0.0280683 -0.0892163 0.110718 0.0267948 -0.115331 0.104437 0.0255906 -0.1407 
0.0972385 0.0244372 -0.165273 0.0894225 0.0233341 -0.18903 0.0812775 0.0222986 -0.211984 
0.0730502 0.0213631 -0.234172 0.0649218 0.0205714 -0.255645 0.0569936 0.0199731 -0.27646 
0.0492832 0.0196179 -0.29667 0.0417325 0.0195497 -0.31632 0.0342256 0.0198014 -0.335442 
0.0266133 0.0203912 -0.354054 0.0187429 0.02132 -0.37216 0.0104858 0.0225705 -0.389757 
0.00176273 0.024109 -0.406834 -0.00743999 0.0258879 -0.423384 -0.0170631 0.0278495 -0.439406 
-0.0269778 0.0299315 -0.454907 -0.0369998 0.0320719 -0.469907 -0.0469101 0.0342139 -0.484437 
-0.0564816 0.0363103 -0.498535 -0.0655063 0.0383264 -0.512243 -0.0738196 0.0402418 -0.525599 
-0.0813192 0.0420501 -0.538634 -0.087974 0.0437582 -0.551362 -0.0938242 0.0453829 -0.563779 
-0.0989712 0.046948 -0.575858 -0.10356 0.0484799 -0.587549 -0.107753 0.0500039 -0.598782 
-0.111711 0.0515404 -0.609471 -0.11556 0.0531022 -0.619521 -0.119383 0.0546929 -0.628836 
-0.1232 0.0563063 -0.637326 -0.126972 0.0579272 -0.644918 -0.13061 0.059533 -0.651559 
-0.133986 0.0610966 -0.657225 -0.136959 0.0625889 -0.661921 -0.139397 0.0639823 -0.665684 
-0.141201 0.0652532 -0.66858 -0.142324 0.0663842 -0.670701 -0.142779 0.0673652 -0.672159 
-0.142647 0.0681937 -0.673077 -0.142062 0.0688745 -0.673586 -0.141198 0.0694172 -0.673811 
-0.14025 0.0698351 -0.673868 -0.139405 0.0701421 -0.673854 -0.138816 0.0703503 -0.673844 
-0.138587 0.0704683 -0.673884 
LINES 2 100
OFFSETS vtktypeint64
0 100 
CONNECTIVITY vtktypeint64
0 1 2 3 4 5 6 7 8 
9 10 11 12 13 14 15 16 17 
18 19 20 21 22 23 24 25 26 
27 28 29 30 31 32 33 34 35 
36 37 38 39 40 41 42 43 44 
45 46 47 48 49 50 51 52 53 
54 55 56 57 58 59 60 61 62 
63 64 65 66 67 68 69 70 71 
72 73 74 75 76 77 78 79 80 
81 82 83 84 85 86 87 88 89 
90 91 92 93 94 95 96 97 98 
99 
POINT_DATA 100
FIELD FieldData 3
_theta 1 100 double
0 0.031733259127 0.063466518254 0.095199777382 0.12693303651 0.15866629564 0.19039955476 0.22213281389 0.25386607302 
0.28559933214 0.31733259127 0.3490658504 0.38079910953 0.41253236865 0.44426562778 0.47599888691 0.50773214603 0.53946540516 
0.57119866429 0.60293192342 0.63466518254 0.66639844167 0.6981317008 0.72986495992 0.76159821905 0.79333147818 0.82506473731 
0.85679799643 0.88853125556 0.92026451469 0.95199777382 0.98373103294 1.0154642921 1.0471975512 1.0789308103 1.1106640695 
1.1423973286 1.1741305877 1.2058638468 1.237597106 1.2693303651 1.3010636242 1.3327968833 1.3645301425 1.3962634016 
1.4279966607 1.4597299198 1.491463179 1.5231964381 1.5549296972 1.5866629564 1.6183962155 1.6501294746 1.6818627337 
1.7135959929 1.745329252 1.7770625111 1.8087957702 1.8405290294 1.8722622885 1.9039955476 1.9357288068 1.9674620659 
1.999195325 2.0309285841 2.0626618433 2.0943951024 2.1261283615 2.1578616206 2.1895948798 2.2213281389 2.253061398 
2.2847946572 2.3165279163 2.3482611754 2.3799944345 2.4117276937 2.4434609528 2.4751942119 2.506927471 2.5386607302 
2.5703939893 2.6021272484 2.6338605076 2.6655937667 2.6973270258 2.7290602849 2.7607935441 2.7925268032 2.8242600623 
2.8559933214 2.8877265806 2.9194598397 2.9511930988 2.982926358 3.0146596171 3.0463928762 3.0781261353 3.1098593945 
3.1415926536 
_radius 1 100 double
7.8467815263e-16 0.01742023676 0.034511171925 0.050970676339 0.066554086669 0.08109189161 0.094496178802 0.1067554763 0.11791982193 
0.12807967185 0.13734309987 0.14581540251 0.15358391459 0.160709123 0.16722168808 0.17312416271 0.17839609966 0.18300160441 
0.18689881047 0.19005083242 0.19243732652 0.19406506215 0.19497537501 0.19524652491 0.19498997576 0.1943411447 0.19344657693 
0.19245014819 0.19148055674 0.19064141202 0.19000429726 0.18960470211 0.18944073467 0.18947479453 0.18963851716 0.18984107639 
0.18998061447 0.18995834613 0.18969439386 0.18914334623 0.1883063854 0.18723666144 0.1860360558 0.18484426535 0.1838239823 
0.1831468901 0.18298289996 0.18349086682 0.18480660243 0.18702577507 0.19018413734 0.19424181584 0.19907870519 0.20450398407 
0.21027753937 0.21613798891 0.22183167915 0.22713817941 0.23188922917 0.23597947731 0.23936866354 0.24207604617 0.24416873829 
0.24574609791 0.24692243543 0.24781012916 0.24850489423 0.24907453565 0.24955207492 0.24993363485 0.25018086373 0.25022703522 
0.24998544046 0.24935847752 0.24824601519 0.24655209671 0.24418968827 0.24108377427 0.23717346851 0.23241380503 0.22677749313 
0.22025635761 0.21286175592 0.20462322292 0.19558500246 0.18580084422 0.17532819352 0.16422331376 0.15253864526 0.14032282095 
0.12762267427 0.11448589359 0.10096299133 0.087107788477 0.07297629649 0.058624439722 0.044105402256 0.029467482643 0.014753196352 
4.4935554354e-16 
_area 1 100 double
0 0.0008198713813 0.0032098520558 0.0069753458111 0.011835235143 0.017472708022 0.02358381388 0.029911595272 0.036260280546 
0.042491510981 0.048509237556 0.054240276643 0.059615450578 0.064554868745 0.068961112142 0.072723593356 0.075733971078 0.077907821226 
0.079205099146 0.079641725552 0.079288425594 0.078268243143 0.076768971169 0.075048221338 0.07339228348 0.072064169818 0.071339914496 
0.07130927943 0.071756956261 0.072468707274 0.073348250616 0.074351461305 0.075474778372 0.076749997103 0.078233349462 0.079957362584 
0.081929465908 0.084049150765 0.086086005041 0.087812843031 0.089078514612 0.089868014307 0.09030711867 0.090604716804 0.090961338493 
0.091521867643 0.092413564561 0.093836506044 0.096182982889 0.099721776369 0.10417805907 0.10944430844 0.11551346134 0.12235129258 
0.12984110207 0.13775034152 0.1457250872 0.15332685131 0.16010870394 0.1657061641 0.16991263968 0.17271732844 0.17429467448 
0.17494924461 0.17503817143 0.17490160538 0.1747887791 0.1747376121 0.17463746585 0.17434390702 0.17371285088 0.17261176832 
0.17092759031 0.16857311913 0.16549099528 0.161653848 0.15705987171 0.15172491475 0.14567429373 0.13893827411 0.1315535967 
0.12357038299 0.11506085151 0.1061248173 0.096887663784 0.087489514127 0.078068847709 0.068747707848 0.059626066248 0.050788261542 
0.042317095637 0.034306776033 0.026867765732 0.020122244449 0.014193529076 0.0091943113099 0.0052176585002 0.0023327449203 0.00058516180964 
4.6644188199e-17 
