# vtk DataFile Version 5.1
vtk output
ASCII
DATASET POLYDATA
POINTS 100 float
-0.147127 -0.0573185 0.667254 -0.147177 -0.0573642 0.667452 -0.147351 -0.0572883 0.668008 
-0.147611 -0.0570224 0.668803 -0.147895 -0.0564656 0.669658 -0.148123 -0.0554986 0.670349 
-0.148198 -0.0540016 0.670633 -0.148016 -0.0518721 0.670277 -0.147467 -0.0490404 0.669079 
-0.146441 -0.0454813 0.666887 -0.144836 -0.0412194 0.66361 -0.142558 -0.0363276 0.659222 
-0.139526 -0.0309194 0.653756 -0.135675 -0.0251359 0.647289 -0.130954 -0.0191291 0.639922 
-0.125334 -0.0130442 0.631765 -0.118802 -0.0070037 0.622911 -0.111365 -0.00109479 0.61342 
-0.103052 0.00463724 0.603309 -0.0939097 0.0101893 0.592551 -0.0840036 0.0155938 0.581074 
-0.0734177 0.0209072 0.568778 -0.0622509 0.0261932 0.555549 -0.0506139 0.0315057 0.541277 
-0.0386247 0.036872 0.525877 -0.0264031 0.0422794 0.509305 -0.0140651 0.0476683 0.491568 
-0.00171696 0.0529306 0.472724 0.0105503 0.0579165 0.452884 0.0226646 0.0624477 0.432192 
0.0345745 0.0663345 0.410814 0.0462492 0.0693975 0.388915 0.057675 0.0714878 0.36664 
0.0688496 0.0725055 0.344093 0.0797741 0.072413 0.321331 0.0904436 0.0712416 0.298353 
0.100837 0.0690909 0.275109 0.11091 0.0661203 0.251509 0.120584 0.0625345 0.22744 
0.129747 0.0585641 0.20279 0.138251 0.0544446 0.177473 0.14592 0.0503956 0.151445 
0.152555 0.0466031 0.124724 0.15795 0.0432066 0.0974006 0.161909 0.0402928 0.069632 
0.164262 0.0378959 0.0416389 0.16488 0.0360038 0.0136857 0.163693 0.0345691 -0.0139413 
0.160699 0.0335239 -0.0409601 0.155967 0.0327942 -0.0671193 0.149639 0.0323135 -0.0922203 
0.141923 0.0320327 -0.116134 0.133074 0.0319256 -0.13881 0.123383 0.0319893 -0.160277 
0.113152 0.0322391 -0.180631 0.102673 0.0327004 -0.200024 0.092207 0.0333977 -0.218639 
0.0819659 0.0343438 -0.236668 0.0721011 0.0355305 -0.254288 0.0626964 0.0369223 -0.271645 
0.0537678 0.0384554 -0.288838 0.045271 0.0400408 -0.305912 0.0371126 0.0415726 -0.322862 
0.0291667 0.0429397 -0.33964 0.0212928 0.0440393 -0.356167 0.0133542 0.0447905 -0.372352 
0.00523448 0.0451458 -0.388107 -0.00315 0.0450991 -0.403364 -0.0118417 0.0446878 -0.418083 
-0.0208394 0.0439905 -0.432263 -0.0301006 0.0431185 -0.445935 -0.0395483 0.042203 -0.459161 
-0.0490818 0.0413801 -0.472021 -0.0585885 0.0407747 -0.484599 -0.0679566 0.0404858 -0.496973 
-0.0770857 0.0405749 -0.509196 -0.0858956 0.0410602 -0.521293 -0.0943314 0.041915 -0.53325 
-0.102364 0.0430732 -0.545023 -0.109988 0.0444383 -0.556535 -0.117218 0.0458975 -0.567692 
-0.124077 0.0473358 -0.578393 -0.130595 0.0486513 -0.588543 -0.136796 0.0497667 -0.598064 
-0.142695 0.0506382 -0.606905 -0.148294 0.051258 -0.615046 -0.153581 0.0516531 -0.622499 
-0.158533 0.0518781 -0.629299 -0.163119 0.0520048 -0.635502 -0.167304 0.05211 -0.641169 
-0.171057 0.052263 -0.646358 -0.174354 0.0525149 -0.651113 -0.177185 0.052891 -0.655454 
-0.179553 0.0533874 -0.659378 -0.181472 0.0539732 -0.662858 -0.18297 0.0545955 -0.665844 
-0.184078 0.0551889 -0.668276 -0.184831 0.0556868 -0.670092 -0.185255 0.0560315 -0.671238 
-0.185372 0.0561845 -0.671674 
LINES 2 100
OFFSETS vtktypeint64
0 100 
CONNECTIVITY vtktypeint64
0 1 2 3 4 5 6 7 8 
9 10 11 12 13 14 15 16 17 
18 19 20 21 22 23 24 25 26 
27 28 29 30 31 32 33 34 35 
36 37 38 39 40 41 42 43 44 
45 46 47 48 49 50 51 52 53 
54 55 56 57 58 59 60 61 62 
63 64 65 66 67 68 69 70 71 
72 73 74 75 76 77 78 79 80 
81 82 83 84 85 86 87 88 89 
90 91 92 93 94 95 96 97 98 
99 
POINT_DATA 100
FIELD FieldData 3
_theta 1 100 double
0 0.031733259127 0.063466518254 0.095199777382 0.12693303651 0.15866629564 0.19039955476 0.22213281389 0.25386607302 
0.28559933214 0.31733259127 0.3490658504 0.38079910953 0.41253236865 0.44426562778 0.47599888691 0.50773214603 0.53946540516 
0.57119866429 0.60293192342 0.63466518254 0.66639844167 0.6981317008 0.72986495992 0.76159821905 0.79333147818 0.82506473731 
0.85679799643 0.88853125556 0.92026451469 0.95199777382 0.98373103294 1.0154642921 1.0471975512 1.0789308103 1.1106640695 
1.1423973286 1.1741305877 1.2058638468 1.237597106 1.2693303651 1.3010636242 1.3327968833 1.3645301425 1.3962634016 
1.4279966607 1.4597299198 1.491463179 1.5231964381 1.5549296972 1.5866629564 1.6183962155 1.6501294746 1.6818627337 
1.7135959929 1.745329252 1.7770625111 1.8087957702 1.8405290294 1.8722622885 1.9039955476 1.9357288068 1.9674620659 
1.999195325 2.0309285841 2.0626618433 2.0943951024 2.1261283615 2.1578616206 2.1895948798 2.2213281389 2.253061398 
2.2847946572 2.3165279163 2.3482611754 2.3799944345 2.4117276937 2.4434609528 2.4751942119 2.506927471 2.5386607302 
2.5703939893 2.6021272484 2.6338605076 2.6655937667 2.6973270258 2.7290602849 2.7607935441 2.7925268032 2.8242600623 
2.8559933214 2.8877265806 2.9194598397 2.9511930988 2.982926358 3.0146596171 3.0463928762 3.0781261353 3.1098593945 
3.1415926536 
_radius 1 100 double
4.6856804592e-16 0.015197036037 0.030292933741 0.045179760357 0.059756248061 0.073930800169 0.08762338191 0.10076586415 0.11330039069 
0.12517549622 0.13634013646 0.1467365022 0.15629328399 0.16492159775 0.17251573672 0.17896013114 0.18414252497 0.18797183435 
0.19039792652 0.19142997094 0.19115009641 0.18971964795 0.18737613742 0.18441989446 0.18119050399 0.17803458016 0.17526844841 
0.17314157518 0.1718079333 0.1713114849 0.17158848789 0.172485107 0.17378568286 0.17524547201 0.17662158078 0.17769800549 
0.17830556871 0.17834021192 0.17777877685 0.17668675987 0.17521423042 0.17358058853 0.17205182346 0.17091449647 0.17044914894 
0.17090366793 0.17246634126 0.17524020511 0.17922426229 0.18430939086 0.19029252085 0.19690401272 0.20383868411 0.21078376359 
0.21744207562 0.2235513218 0.22890025637 0.23334150412 0.23679989314 0.23927489245 0.24083609835 0.24161156967 0.24176993069 
0.24149825619 0.2409785819 0.24036630349 0.23977364097 0.23926060853 0.23883444519 0.23845649166 0.23805380356 0.2375321853 
0.2367880169 0.23571765685 0.2342244855 0.23222425173 0.22964925346 0.22645134007 0.22260321521 0.21809738033 0.21294240584 
0.20715691542 0.20076242323 0.19377663556 0.18620876878 0.17805780352 0.16931361305 0.15995999596 0.14997825272 0.13935028932 
0.1280611178 0.1161014526 0.10347121278 0.090184009995 0.076271771018 0.061788266588 0.046810617646 0.031438412778 0.015790526648 
7.305176451e-16 
_area 1 100 double
0 0.00059233634529 0.0023539356228 0.0052362799904 0.0091525997897 0.01397404254 0.019531489031 0.0256252625 0.032041906943 
0.03857459932 0.045042063116 0.051299882523 0.057238543579 0.062766220747 0.067782030005 0.072153274015 0.075710773083 0.07826770953 
0.079656548438 0.079772728988 0.078613994258 0.076309195376 0.073147221452 0.069849479603 0.067277954326 0.065557559673 0.064730116179 
0.064872573753 0.065934231648 0.06775004634 0.070081839332 0.072657694236 0.075205876825 0.077480910426 0.079273855176 0.08041662339 
0.080811915317 0.080500992539 0.079759723416 0.079333779107 0.080209606367 0.081852296107 0.083889422179 0.086016536038 0.088089270322 
0.090233900089 0.092710723695 0.095800613579 0.099736305832 0.10464851037 0.11051307136 0.11713784942 0.12423180824 0.13148597911 
0.13859825497 0.14526145139 0.15115180537 0.15594237125 0.15935401769 0.16124562147 0.16172366983 0.16097911949 0.15926045836 
0.15672366616 0.15363613917 0.15042731991 0.14750205775 0.14507783256 0.14298814589 0.14115080606 0.13944743054 0.13774372063 
0.13591702067 0.13385637203 0.13145080497 0.12858527138 0.12515285457 0.12107668753 0.11632949429 0.11094209527 0.10499709452 
0.098609726709 0.09190321887 0.084987783399 0.077949765882 0.070852595968 0.063746304414 0.05667918317 0.049705107994 0.042883459044 
0.036274105953 0.029934397528 0.023924241461 0.018318262295 0.01321694492 0.0087485594815 0.0050594045305 0.0022955036047 0.00058121863608 
9.5324445504e-17 
