# vtk DataFile Version 5.1
vtk output
ASCII
DATASET POLYDATA
POINTS 100 float
-0.171052 -0.0436703 0.739708 -0.171017 -0.0436779 0.739573 -0.170921 -0.0435041 0.739159 
-0.170749 -0.0431315 0.738406 -0.170477 -0.0425329 0.737224 -0.170067 -0.0416717 0.735502 
-0.169467 -0.0405036 0.73312 -0.16861 -0.0389781 0.729965 -0.167414 -0.0370411 0.725944 
-0.165783 -0.0346389 0.720988 -0.163613 -0.0317218 0.715063 -0.160798 -0.0282495 0.708169 
-0.157238 -0.024196 0.700335 -0.152849 -0.0195542 0.691612 -0.147569 -0.0143402 0.682063 
-0.141364 -0.00859541 0.671752 -0.134239 -0.00238785 0.660731 -0.126234 0.00418928 0.649037 
-0.117422 0.0110209 0.636682 -0.107908 0.0179754 0.623652 -0.0978163 0.0249116 0.609915 
-0.0872826 0.0316864 0.595426 -0.07644 0.0381634 0.580133 -0.065409 0.0442202 0.563992 
-0.0542879 0.0497548 0.546975 -0.043146 0.0546904 0.529077 -0.0320212 0.0589773 0.510321 
-0.0209213 0.0625929 0.490756 -0.00983022 0.0655393 0.470455 0.00128335 0.0678388 0.449503 
0.0124539 0.0695285 0.427992 0.0237068 0.070654 0.406004 0.0350463 0.0712637 0.383602 
0.0464459 0.0714039 0.360822 0.057842 0.0711154 0.337669 0.0691318 0.0704325 0.314116 
0.0801759 0.0693827 0.29011 0.0908052 0.0679891 0.265583 0.100832 0.0662738 0.240464 
0.110061 0.0642615 0.214695 0.118308 0.0619832 0.188248 0.125407 0.0594786 0.161133 
0.131229 0.0567981 0.133412 0.135685 0.0540018 0.105196 0.138734 0.0511576 0.0766516 
0.14038 0.0483373 0.0479822 0.140674 0.0456117 0.0194208 0.139703 0.0430447 -0.00878958 
0.137581 0.0406884 -0.036415 0.134443 0.0385787 -0.0632489 0.13043 0.0367325 -0.089128 
0.125684 0.035147 -0.113944 0.120337 0.0338017 -0.137649 0.114513 0.0326617 -0.160256 
0.108319 0.0316829 -0.181833 0.101849 0.030819 -0.202488 0.0951833 0.0300278 -0.22236 
0.0883937 0.029277 -0.241599 0.0815434 0.0285492 -0.260349 0.0746898 0.0278439 -0.278738 
0.0678855 0.0271786 -0.296864 0.0611775 0.0265858 -0.31479 0.0546061 0.026109 -0.332544 
0.0482029 0.0257968 -0.350124 0.0419886 0.0256959 -0.3675 0.0359715 0.0258447 -0.384627 
0.0301474 0.0262672 -0.401454 0.0245006 0.0269687 -0.417934 0.0190075 0.027934 -0.434026 
0.0136406 0.0291276 -0.449705 0.00837508 0.0304967 -0.464957 0.00319414 0.0319756 -0.479781 
-0.00190483 0.0334926 -0.49418 -0.00690635 0.0349759 -0.508156 -0.0117749 0.0363614 -0.521706 
-0.0164558 0.0375975 -0.534812 -0.0208791 0.0386497 -0.547444 -0.0249662 0.0395025 -0.559552 
-0.0286384 0.0401591 -0.571078 -0.0318268 0.0406395 -0.581952 -0.0344819 0.0409763 -0.592106 
-0.0365813 0.0412096 -0.601481 -0.0381358 0.041382 -0.610033 -0.0391908 0.0415333 -0.617739 
-0.0398245 0.0416959 -0.624606 -0.0401415 0.0418926 -0.630663 -0.0402635 0.0421349 -0.635968 
-0.0403171 0.0424234 -0.640597 -0.0404207 0.0427498 -0.644636 -0.0406719 0.0430994 -0.648174 
-0.0411372 0.0434545 -0.651295 -0.0418451 0.0437975 -0.654066 -0.0427829 0.0441139 -0.656537 
-0.0438995 0.0443935 -0.658734 -0.0451116 0.0446318 -0.660662 -0.0463148 0.0448291 -0.662307 
-0.0473963 0.0449896 -0.663645 -0.0482497 0.0451195 -0.664645 -0.0487875 0.0452249 -0.665278 
-0.0489529 0.0453099 -0.665524 
LINES 2 100
OFFSETS vtktypeint64
0 100 
CONNECTIVITY vtktypeint64
0 1 2 3 4 5 6 7 8 
9 10 11 12 13 14 15 16 17 
18 19 20 21 22 23 24 25 26 
27 28 29 30 31 32 33 34 35 
36 37 38 39 40 41 42 43 44 
45 46 47 48 49 50 51 52 53 
54 55 56 57 58 59 60 61 62 
63 64 65 66 67 68 69 70 71 
72 73 74 75 76 77 78 79 80 
81 82 83 84 85 86 87 88 89 
90 91 92 93 94 95 96 97 98 
99 
POINT_DATA 100
FIELD FieldData 3
_theta 1 100 double
0 0.031733259127 0.063466518254 0.095199777382 0.12693303651 0.15866629564 0.19039955476 0.22213281389 0.25386607302 
0.28559933214 0.31733259127 0.3490658504 0.38079910953 0.41253236865 0.44426562778 0.47599888691 0.50773214603 0.53946540516 
0.57119866429 0.60293192342 0.63466518254 0.66639844167 0.6981317008 0.72986495992 0.76159821905 0.79333147818 0.82506473731 
0.85679799643 0.88853125556 0.92026451469 0.95199777382 0.98373103294 1.0154642921 1.0471975512 1.0789308103 1.1106640695 
1.1423973286 1.1741305877 1.2058638468 1.237597106 1.2693303651 1.3010636242 1.3327968833 1.3645301425 1.3962634016 
1.4279966607 1.4597299198 1.491463179 1.5231964381 1.5549296972 1.5866629564 1.6183962155 1.6501294746 1.6818627337 
1.7135959929 1.745329252 1.7770625111 1.8087957702 1.8405290294 1.8722622885 1.9039955476 1.9357288068 1.9674620659 
1.999195325 2.0309285841 2.0626618433 2.0943951024 2.1261283615 2.1578616206 2.1895948798 2.2213281389 2.253061398 
2.2847946572 2.3165279163 2.3482611754 2.3799944345 2.4117276937 2.4434609528 2.4751942119 2.506927471 2.5386607302 
2.5703939893 2.6021272484 2.6338605076 2.6655937667 2.6973270258 2.7290602849 2.7607935441 2.7925268032 2.8242600623 
2.8559933214 2.8877265806 2.9194598397 2.9511930988 2.982926358 3.0146596171 3.0463928762 3.0781261353 3.1098593945 
3.1415926536 
_radius 1 100 double
3.1409514705e-16 0.016361531903 0.032629631244 0.048702858988 0.064472460236 0.079820831101 0.094622021539 0.10874438647 0.1220551808 
0.134426644 0.14574296532 0.15590746224 0.16484932277 0.17252933037 0.17894408154 0.18412830154 0.18815495288 0.19113291883 
0.19320215313 0.19452634448 0.1952833671 0.1956540544 0.19581008243 0.19590191726 0.19604784728 0.19632514644 0.19676448164 
0.19734877363 0.19801762641 0.19867782301 0.19921911031 0.19953292824 0.19953070858 0.19915868279 0.19840770143 0.1973179175 
0.19597801188 0.19451782163 0.1930938192 0.19186969276 0.19099802477 0.19061034789 0.19081856113 0.19172301133 0.19341820658 
0.19598939967 0.19949922597 0.20396897745 0.20936176406 0.21557421639 0.22244010428 0.22974501573 0.23724811561 0.24470601863 
0.25189459617 0.25862608323 0.26476033145 0.27021009688 0.27494083322 0.27896572513 0.28233682123 0.28513324904 0.28744767378 
0.28937237316 0.29098644771 0.292345651 0.29347601805 0.29437189033 0.29499819217 0.29529610368 0.29519080024 0.29459980255 
0.29344068384 0.29163728854 0.28912406821 0.28584851251 0.28177189537 0.27686869229 0.2711251065 0.26453720298 0.25710917115 
0.24885216158 0.23978392278 0.22992912537 0.21931991281 0.20799601685 0.19600384631 0.18339431921 0.17021973515 0.1565304436 
0.14237223237 0.12778516918 0.11280419464 0.097461290713 0.081788683144 0.06582233317 0.04960492598 0.033187661901 0.016630393302 
6.8679234451e-16 
_area 1 100 double
0 0.00065432904986 0.0026016343414 0.0057946008681 0.010153311142 0.015563520271 0.021874863497 0.02890044691 0.036419389548 
0.044183274515 0.051926512459 0.059379786396 0.066285333829 0.072412785216 0.077574232262 0.081636904853 0.084531675205 0.086256214381 
0.086873049627 0.086504335836 0.08532604715 0.08356428954 0.081498581215 0.079493293481 0.078116863435 0.077160931376 0.076577923664 
0.076369673477 0.076542360331 0.077062251712 0.077848067245 0.078878867815 0.080056073582 0.081231181107 0.082339205127 0.083471883095 
0.084919814555 0.086773068211 0.088832925616 0.090929475674 0.092996687112 0.095037750024 0.097098018837 0.099272764551 0.10176379007 
0.10502663384 0.10918589453 0.11424382341 0.12032278678 0.12750328146 0.13575697409 0.14492687441 0.15474617473 0.16487781078 
0.17495638892 0.18462338476 0.19355357749 0.20147412222 0.20817881348 0.21353999417 0.21752594971 0.22033333496 0.22232771736 
0.22358905122 0.2240028751 0.22372024488 0.22286390274 0.22153442142 0.21980911751 0.21772973073 0.21528746017 0.21241252506 
0.20897774492 0.20482383814 0.19980251711 0.19381784343 0.18684753011 0.17894050215 0.17019745851 0.16074471508 0.15071120308 
0.14021550211 0.12936506683 0.11826475911 0.10702822518 0.0957849801 0.084678501925 0.073855090811 0.063448118845 0.053565956731 
0.044291358261 0.035692551388 0.027837084804 0.020799310667 0.014659843057 0.0095003870744 0.0053973729257 0.0024161949641 0.0006066934617 
2.3012164693e-17 
