# vtk DataFile Version 5.1
vtk output
ASCII
DATASET POLYDATA
POINTS 100 float
-0.134337 -0.0466981 0.713533 -0.134374 -0.0468114 0.713598 -0.134498 -0.0469746 0.713812 
-0.134664 -0.0471534 0.714053 -0.1348 -0.0472931 0.714134 -0.134817 -0.0473227 0.713826 
-0.134611 -0.04716 0.712882 -0.134076 -0.0467171 0.711067 -0.133109 -0.0459066 0.708186 
-0.131621 -0.0446469 0.704102 -0.129536 -0.0428675 0.698752 -0.126802 -0.0405128 0.692149 
-0.123386 -0.0375451 0.684378 -0.119281 -0.0339462 0.675582 -0.114496 -0.0297181 0.665937 
-0.109058 -0.0248831 0.655633 -0.103006 -0.0194821 0.644846 -0.0963884 -0.0135737 0.633712 
-0.0892608 -0.00723243 0.622317 -0.0816808 -0.00054629 0.610681 -0.0737085 0.00638495 0.598763 
-0.0654056 0.0134523 0.586463 -0.0568351 0.0205399 0.573643 -0.0480617 0.0275281 0.560141 
-0.0391519 0.0342969 0.545799 -0.0301731 0.0407293 0.530481 -0.0211928 0.0467156 0.514092 
-0.0122757 0.0521579 0.49659 -0.00348168 0.056974 0.477993 0.0051385 0.0611015 0.458372 
0.0135458 0.0645009 0.437844 0.0217159 0.0671573 0.416558 0.0296406 0.0690813 0.394673 
0.0373274 0.0703071 0.37234 0.0447978 0.0708904 0.349686 0.0520827 0.0709036 0.3268 
0.0592172 0.0704297 0.303728 0.0662327 0.0695567 0.280471 0.07315 0.0683702 0.25699 
0.0799719 0.0669481 0.233223 0.0866772 0.0653547 0.209097 0.0932172 0.0636381 0.184546 
0.0995144 0.0618285 0.159525 0.105465 0.0599391 0.134029 0.110943 0.0579688 0.108094 
0.11581 0.0559068 0.0818035 0.119923 0.0537378 0.0552828 0.123149 0.0514485 0.02869 
0.12537 0.0490331 0.00220171 0.126499 0.046498 -0.0240024 0.126484 0.043865 -0.0497559 
0.125311 0.0411721 -0.0749197 0.123009 0.038473 -0.0993926 0.119645 0.0358336 -0.123117 
0.115315 0.0333273 -0.146079 0.110142 0.031029 -0.168304 0.10426 0.0290094 -0.189849 
0.097805 0.0273279 -0.210788 0.090907 0.0260289 -0.231203 0.0836789 0.0251375 -0.251171 
0.0762127 0.0246587 -0.270753 0.0685761 0.0245777 -0.289991 0.0608135 0.0248632 -0.308904 
0.0529493 0.0254714 -0.327491 0.0449933 0.0263511 -0.345733 0.0369482 0.02745 -0.363604 
0.028817 0.0287197 -0.381077 0.0206099 0.0301201 -0.39813 0.0123495 0.0316226 -0.414753 
0.00407491 0.0332111 -0.430949 -0.00415811 0.0348811 -0.446734 -0.0122783 0.0366381 -0.462132 
-0.0202029 0.0384933 -0.477171 -0.0278433 0.0404594 -0.491872 -0.0351113 0.0425464 -0.506248 
-0.0419259 0.0447575 -0.520288 -0.0482196 0.0470855 -0.533964 -0.0539426 0.0495121 -0.54722 
-0.0590663 0.052007 -0.559983 -0.0635839 0.0545294 -0.572163 -0.0675096 0.0570313 -0.583666 
-0.0708756 0.0594607 -0.594399 -0.0737282 0.0617659 -0.604283 -0.0761231 0.0638999 -0.613262 
-0.0781205 0.0658238 -0.621306 -0.0797803 0.0675099 -0.628417 -0.0811586 0.0689431 -0.634628 
-0.0823052 0.0701211 -0.639999 -0.0832618 0.071054 -0.64461 -0.084062 0.0717621 -0.648553 
-0.0847318 0.0722733 -0.65192 -0.0852908 0.0726204 -0.654801 -0.0857534 0.0728382 -0.657269 
-0.0861309 0.0729608 -0.659381 -0.0864319 0.0730197 -0.661175 -0.0866638 0.0730422 -0.662669 
-0.0868331 0.0730508 -0.663866 -0.0869449 0.0730627 -0.664762 -0.0870034 0.07309 -0.665344 
-0.087011 0.07314 -0.665603 
LINES 2 100
OFFSETS vtktypeint64
0 100 
CONNECTIVITY vtktypeint64
0 1 2 3 4 5 6 7 8 
9 10 11 12 13 14 15 16 17 
18 19 20 21 22 23 24 25 26 
27 28 29 30 31 32 33 34 35 
36 37 38 39 40 41 42 43 44 
45 46 47 48 49 50 51 52 53 
54 55 56 57 58 59 60 61 62 
63 64 65 66 67 68 69 70 71 
72 73 74 75 76 77 78 79 80 
81 82 83 84 85 86 87 88 89 
90 91 92 93 94 95 96 97 98 
99 
POINT_DATA 100
FIELD FieldData 3
_theta 1 100 double
0 0.031733259127 0.063466518254 0.095199777382 0.12693303651 0.15866629564 0.19039955476 0.22213281389 0.25386607302 
0.28559933214 0.31733259127 0.3490658504 0.38079910953 0.41253236865 0.44426562778 0.47599888691 0.50773214603 0.53946540516 
0.57119866429 0.60293192342 0.63466518254 0.66639844167 0.6981317008 0.72986495992 0.76159821905 0.79333147818 0.82506473731 
0.85679799643 0.88853125556 0.92026451469 0.95199777382 0.98373103294 1.0154642921 1.0471975512 1.0789308103 1.1106640695 
1.1423973286 1.1741305877 1.2058638468 1.237597106 1.2693303651 1.3010636242 1.3327968833 1.3645301425 1.3962634016 
1.4279966607 1.4597299198 1.491463179 1.5231964381 1.5549296972 1.5866629564 1.6183962155 1.6501294746 1.6818627337 
1.7135959929 1.745329252 1.7770625111 1.8087957702 1.8405290294 1.8722622885 1.9039955476 1.9357288068 1.9674620659 
1.999195325 2.0309285841 2.0626618433 2.0943951024 2.1261283615 2.1578616206 2.1895948798 2.2213281389 2.253061398 
2.2847946572 2.3165279163 2.3482611754 2.3799944345 2.4117276937 2.4434609528 2.4751942119 2.506927471 2.5386607302 
2.5703939893 2.6021272484 2.6338605076 2.6655937667 2.6973270258 2.7290602849 2.7607935441 2.7925268032 2.8242600623 
2.8559933214 2.8877265806 2.9194598397 2.9511930988 2.982926358 3.0146596171 3.0463928762 3.0781261353 3.1098593945 
3.1415926536 
_radius 1 100 double
1.3895124214e-16 0.014681814448 0.029258413906 0.043625022544 0.057681107252 0.071331245281 0.084485015199 0.097056332061 0.10896288098 
0.1201262853 0.13047338845 0.13993862758 0.14846707756 0.15601749658 0.16256471304 0.1681009715 0.17263629641 0.17619833249 
0.17883225573 0.18060110275 0.18158632395 0.18188780366 0.18162232777 0.18091970712 0.1799164368 0.17874761695 0.17753848497 
0.17639696474 0.17540805233 0.1746299721 0.17409146151 0.1737897428 0.1736896787 0.17372568427 0.17380829687 0.17383635877 
0.17371387939 0.17336880004 0.1727698902 0.17193797847 0.17094831936 0.16992190735 0.16900537863 0.16834270518 0.16804710354 
0.16818486601 0.16877857692 0.16982617045 0.17132383351 0.17328103553 0.17572190321 0.17867354433 0.18214655009 0.18611520977 
0.19050456717 0.19518863339 0.20000018725 0.20474924456 0.20924545154 0.21331955576 0.21684030759 0.21972490045 0.22194265858 
0.22351273933 0.22449709615 0.22499003215 0.22510558719 0.22496389466 0.22467756545 0.22433909222 0.22401021674 0.22371419705 
0.22343191646 0.22310258296 0.22262915632 0.2218877554 0.2207396224 0.21904402056 0.21667056275 0.2135097064 0.20948049066 
0.20453502616 0.19865963959 0.19187279511 0.18422000232 0.17576606987 0.16658544145 0.15675191123 0.14632946134 0.13536594413 
0.12389075453 0.11191676522 0.099445995196 0.086477919087 0.073018973908 0.059091637227 0.044741455282 0.030040628655 0.015087246452 
2.40996053e-16 
_area 1 100 double
0 0.00054518579141 0.0021709173544 0.0048465480098 0.0085175255841 0.01310146281 0.018484636217 0.024520030208 0.031027840334 
0.037799359497 0.044605268758 0.051208988128 0.057384441317 0.06293562695 0.067713806884 0.071627973558 0.074645819614 0.076785145019 
0.078098851756 0.078659808479 0.078552656729 0.077875168457 0.076744796423 0.075303224181 0.073714353462 0.0721561389 0.070812300417 
0.069850559064 0.069350125634 0.069197070374 0.06934689006 0.06977301991 0.070546029435 0.071637295881 0.072925105448 0.074233707946 
0.075381769401 0.076235109635 0.076755300755 0.077047279885 0.077388323873 0.078148019293 0.079540868384 0.081517473509 0.083902040943 
0.086491697319 0.089093334831 0.091562055133 0.093838296774 0.095965453058 0.098082640376 0.10039445989 0.10312277044 0.10645332757 
0.11051082424 0.11546769601 0.12126168561 0.12728566742 0.13309526222 0.13831075499 0.14262491587 0.14583534332 0.14786153225 
0.14873917302 0.14859645526 0.14762223247 0.14603478741 0.14405581961 0.14189066288 0.13971404257 0.1376594533 0.13580908311 
0.13418271845 0.1327294251 0.13132970144 0.12981090006 0.12796989037 0.12559636318 0.12249665447 0.11852031379 0.11358659864 
0.1077030576 0.10096931092 0.093563886719 0.085716233751 0.077668597726 0.069634578423 0.061764741155 0.054133562024 0.046757280048 
0.039633044825 0.032775433756 0.026235668288 0.020105278966 0.014511167476 0.0096061382669 0.005555701117 0.0025209368264 0.00063836676652 
5.2514060753e-17 
