# vtk DataFile Version 5.1
vtk output
ASCII
DATASET POLYDATA
POINTS 100 float
-0.171984 -0.0149166 0.746835 -0.171344 -0.014965 0.74654 -0.169481 -0.0149793 0.745717 
-0.166494 -0.0149539 0.74433 -0.16253 -0.0148776 0.742325 -0.157775 -0.0147308 0.739631 
-0.152422 -0.0144822 0.736169 -0.146656 -0.0140869 0.73186 -0.140626 -0.0134855 0.726629 
-0.134436 -0.0126066 0.720415 -0.128129 -0.0113707 0.713177 -0.121693 -0.00969772 0.704892 
-0.115061 -0.00751534 0.695566 -0.108133 -0.00476925 0.685222 -0.100788 -0.00143243 0.673908 
-0.0929118 0.00248707 0.661684 -0.0844153 0.00694139 0.64862 -0.0752516 0.011842 0.63479 
-0.065429 0.0170632 0.620266 -0.0550136 0.0224505 0.605108 -0.0441254 0.027832 0.589364 
-0.0329262 0.0330329 0.573068 -0.0216016 0.0378909 0.556235 -0.0103393 0.0422707 0.538864 
0.000693476 0.0460757 0.52094 0.0113691 0.0492559 0.502438 0.0216146 0.0518107 0.483327 
0.0314188 0.0537856 0.463578 0.0408309 0.0552645 0.443162 0.0499509 0.0563565 0.42206 
0.0589125 0.0571812 0.400265 0.0678603 0.0578524 0.377781 0.0769253 0.0584629 0.354628 
0.0862004 0.059073 0.330837 0.0957195 0.059703 0.306453 0.105444 0.0603314 0.281528 
0.115257 0.0608993 0.256124 0.124966 0.0613192 0.230306 0.134316 0.0614887 0.204143 
0.143012 0.0613055 0.177706 0.150739 0.0606833 0.151067 0.157196 0.0595656 0.124298 
0.162121 0.0579357 0.0974753 0.165316 0.0558219 0.0706751 0.166661 0.0532968 0.0439779 
0.166131 0.0504709 0.0174674 0.16379 0.047482 -0.00876916 0.159788 0.0444804 -0.0346423 
0.154342 0.041613 -0.0600621 0.147719 0.0390078 -0.0849407 0.140211 0.0367612 -0.109196 
0.132107 0.0349287 -0.132755 0.123678 0.0335212 -0.155559 0.115153 0.0325065 -0.177566 
0.106712 0.0318159 -0.198751 0.0984755 0.0313551 -0.219115 0.0905095 0.0310177 -0.238678 
0.0828296 0.0306991 -0.257482 0.0754125 0.0303099 -0.275586 0.0682086 0.0297863 -0.293067 
0.0611556 0.0290969 -0.310008 0.0541913 0.0282446 -0.326503 0.047263 0.0272645 -0.34264 
0.0403352 0.0262169 -0.358505 0.0333922 0.025179 -0.374174 0.0264383 0.0242334 -0.389709 
0.0194951 0.0234583 -0.405158 0.0125969 0.0229178 -0.420552 0.00578541 0.0226567 -0.435904 
-0.000894899 0.0226969 -0.451216 -0.00740111 0.0230384 -0.466472 -0.0136941 0.0236632 -0.481647 
-0.0197395 0.0245415 -0.496706 -0.0255071 0.0256385 -0.511609 -0.0309694 0.0269217 -0.526307 
-0.0360997 0.028366 -0.54075 -0.0408708 0.0299577 -0.55488 -0.0452547 0.0316939 -0.568641 
-0.0492225 0.0335806 -0.581967 -0.052747 0.0356273 -0.594795 -0.0558052 0.0378408 -0.607053 
-0.0583818 0.0402184 -0.618672 -0.0604732 0.0427419 -0.629582 -0.0620897 0.0453734 -0.639714 
-0.0632578 0.048055 -0.649008 -0.0640195 0.0507108 -0.657413 -0.0644313 0.0532527 -0.664891 
-0.0645597 0.0555887 -0.671425 -0.064477 0.0576326 -0.677015 -0.0642554 0.0593145 -0.681686 
-0.0639614 0.0605895 -0.685488 -0.0636506 0.0614443 -0.688489 -0.0633647 0.0618998 -0.690778 
-0.0631298 0.0620101 -0.692459 -0.0629563 0.0618568 -0.693641 -0.0628419 0.0615401 -0.694437 
-0.0627746 0.0611668 -0.694951 -0.0627382 0.0608379 -0.695272 -0.0627163 0.0606362 -0.69547 
-0.0626972 0.0606161 -0.695588 
LINES 2 100
OFFSETS vtktypeint64
0 100 
CONNECTIVITY vtktypeint64
0 1 2 3 4 5 6 7 8 
9 10 11 12 13 14 15 16 17 
18 19 20 21 22 23 24 25 26 
27 28 29 30 31 32 33 34 35 
36 37 38 39 40 41 42 43 44 
45 46 47 48 49 50 51 52 53 
54 55 56 57 58 59 60 61 62 
63 64 65 66 67 68 69 70 71 
72 73 74 75 76 77 78 79 80 
81 82 83 84 85 86 87 88 89 
90 91 92 93 94 95 96 97 98 
99 
POINT_DATA 100
FIELD FieldData 3
_theta 1 100 double
0 0.031733259127 0.063466518254 0.095199777382 0.12693303651 0.15866629564 0.19039955476 0.22213281389 0.25386607302 
0.28559933214 0.31733259127 0.3490658504 0.38079910953 0.41253236865 0.44426562778 0.47599888691 0.50773214603 0.53946540516 
0.57119866429 0.60293192342 0.63466518254 0.66639844167 0.6981317008 0.72986495992 0.76159821905 0.79333147818 0.82506473731 
0.85679799643 0.88853125556 0.92026451469 0.95199777382 0.98373103294 1.0154642921 1.0471975512 1.0789308103 1.1106640695 
1.1423973286 1.1741305877 1.2058638468 1.237597106 1.2693303651 1.3010636242 1.3327968833 1.3645301425 1.3962634016 
1.4279966607 1.4597299198 1.491463179 1.5231964381 1.5549296972 1.5866629564 1.6183962155 1.6501294746 1.6818627337 
1.7135959929 1.745329252 1.7770625111 1.8087957702 1.8405290294 1.8722622885 1.9039955476 1.9357288068 1.9674620659 
1.999195325 2.0309285841 2.0626618433 2.0943951024 2.1261283615 2.1578616206 2.1895948798 2.2213281389 2.253061398 
2.2847946572 2.3165279163 2.3482611754 2.3799944345 2.4117276937 2.4434609528 2.4751942119 2.506927471 2.5386607302 
2.5703939893 2.6021272484 2.6338605076 2.6655937667 2.6973270258 2.7290602849 2.7607935441 2.7925268032 2.8242600623 
2.8559933214 2.8877265806 2.9194598397 2.9511930988 2.982926358 3.0146596171 3.0463928762 3.0781261353 3.1098593945 
3.1415926536 
_radius 1 100 double
1.0130562316e-15 0.018138088674 0.03589780096 0.052933099061 0.068958726667 0.083768507215 0.097241888148 0.10933870683 0.12008453356 
0.12955074918 0.13783418629 0.14504045378 0.15127320695 0.15662932333 0.16119811173 0.16506203067 0.16829706236 0.1709723458 
0.17314998242 0.17488627752 0.17623487644 0.17725085154 0.17799373493 0.17852748368 0.17891647166 0.1792182801 0.17947551494 
0.17970949071 0.17991815602 0.18007925733 0.18015794084 0.18011657072 0.17992429922 0.17956504046 0.179044046 0.17839379143 
0.17767882352 0.1769975178 0.17647780139 0.17626506754 0.17650423492 0.17732208921 0.17881606887 0.18105018399 0.1840534182 
0.18781625595 0.19228536352 0.19735991164 0.20289307842 0.20870006265 0.21457175783 0.22029215831 0.22565727059 0.23049321753 
0.23467121707 0.23811736991 0.24081586227 0.24280523734 0.2441685647 0.24501930212 0.24548512619 0.24569191939 0.24574958586 
0.24574074658 0.24571299576 0.2456754169 0.24560014526 0.24542936396 0.24508702189 0.24449319741 0.24357810878 0.24229273585 
0.24061386492 0.23854277384 0.2360982938 0.23330620612 0.23018755584 0.22674835444 0.22297239953 0.21881790893 0.21421782376 
0.20908331405 0.20331018287 0.19678810234 0.18941244604 0.18109775723 0.17179097644 0.16148205047 0.1502098153 0.13806194574 
0.12516883356 0.11169210889 0.097809107615 0.083695078152 0.06950537372 0.055360133642 0.041333826268 0.027451439475 0.013692135836 
1.5571484746e-15 
_area 1 100 double
0 0.00060755270446 0.0024084417979 0.0053361323091 0.0092778337447 0.014076915977 0.019541328239 0.02545687814 0.031602571067 
0.037765416456 0.04375313727 0.049404067629 0.0545936683 0.059236653833 0.063283589234 0.066712114655 0.069515735955 0.071695571196 
0.073260701816 0.074242090742 0.074728560327 0.074902135769 0.074910648301 0.074831150697 0.074759568967 0.074795120439 0.075010017929 
0.075429253045 0.076026201364 0.076738737281 0.077497189408 0.078245471254 0.078945083974 0.079570436715 0.080116652859 0.080633373178 
0.081275084396 0.08229633578 0.083850433153 0.085855095817 0.088176661856 0.090761488127 0.093658729708 0.097036722231 0.10102913188 
0.10551043442 0.11043409197 0.11584713687 0.12176703774 0.128113632 0.13469737429 0.14125877151 0.14752981329 0.15328663068 
0.15838251406 0.16276990389 0.16646591742 0.16943729 0.17159836509 0.17286084622 0.17330591447 0.17313156813 0.17243927545 
0.1713123936 0.16994483192 0.16848924524 0.16704939137 0.16564636322 0.1642284098 0.16269639909 0.16093452146 0.15885033093 
0.15639500397 0.15354264851 0.15026583614 0.14654483911 0.14237355927 0.13774797831 0.13265622901 0.12707972401 0.12100254843 
0.11442210933 0.1073548489 0.099835093559 0.091911259888 0.083646461133 0.075125057921 0.066458090435 0.05777992745 0.049236725386 
0.040974926261 0.033137091016 0.02586346227 0.019291152918 0.013546796066 0.0087362791845 0.0049376304127 0.0022003721169 0.00055079480974 
2.7769114934e-17 
