# vtk DataFile Version 5.1
vtk output
ASCII
DATASET POLYDATA
POINTS 100 float
-0.0664514 -0.0870848 0.912333 -0.0667531 -0.0870984 0.912419 -0.0676171 -0.0869623 0.9127 
-0.0688893 -0.0866413 0.91306 -0.070333 -0.0860803 0.913321 -0.071658 -0.08521 0.913261 
-0.0725546 -0.0839542 0.912638 -0.07273 -0.0822369 0.911221 -0.0719405 -0.0799905 0.908806 
-0.0700166 -0.0771624 0.905244 -0.0668764 -0.0737207 0.900451 -0.0625277 -0.0696574 0.894413 
-0.0570569 -0.0649901 0.887189 -0.050609 -0.0597604 0.87889 -0.0433592 -0.0540314 0.86967 
-0.0354832 -0.0478823 0.859694 -0.0271288 -0.0414032 0.84912 -0.0183939 -0.0346881 0.838067 
-0.00931476 -0.0278292 0.826603 0.000135482 -0.0209119 0.814726 0.0100355 -0.0140103 0.802358 
0.0204953 -0.00718548 0.789354 0.0316281 -0.000485253 0.775509 0.0435202 0.00605492 0.760586 
0.0562019 0.0124091 0.744333 0.0696263 0.0185571 0.726519 0.0836559 0.0244809 0.706957 
0.0980642 0.0301606 0.685531 0.112548 0.0355713 0.662214 0.126751 0.0406812 0.637074 
0.140302 0.0454512 0.610274 0.152846 0.0498353 0.582065 0.164087 0.0537832 0.552762 
0.173817 0.0572435 0.52272 0.18194 0.0601677 0.492304 0.188481 0.0625145 0.46186 
0.193578 0.0642539 0.431685 0.197465 0.0653703 0.402004 0.200443 0.065865 0.372959 
0.202834 0.0657573 0.344598 0.204946 0.0650843 0.316883 0.207031 0.0638991 0.289702 
0.20925 0.0622684 0.262891 0.211653 0.0602694 0.236256 0.214175 0.0579859 0.209603 
0.216638 0.0555048 0.182764 0.218774 0.0529126 0.15562 0.22026 0.050293 0.128114 
0.220751 0.0477246 0.100263 0.219926 0.0452797 0.0721548 0.217518 0.0430238 0.0439404 
0.213353 0.0410154 0.015818 0.207358 0.0393062 -0.0119874 0.199576 0.0379414 -0.0392477 
0.19015 0.0369598 -0.0657539 0.179313 0.0363933 -0.0913362 0.167351 0.0362662 -0.115879 
0.154579 0.0365944 -0.139327 0.141301 0.0373841 -0.161692 0.12779 0.0386303 -0.183037 
0.114257 0.040316 -0.203474 0.100846 0.0424116 -0.223143 0.0876306 0.0448751 -0.242192 
0.0746178 0.0476539 -0.260762 0.0617689 0.0506862 -0.278972 0.0490164 0.0539046 -0.296902 
0.0362871 0.0572403 -0.314593 0.0235212 0.0606267 -0.332046 0.0106878 0.0640044 -0.349222 
-0.00220721 0.0673248 -0.366058 -0.0151203 0.0705533 -0.382477 -0.0279766 0.0736711 -0.398403 
-0.0406821 0.0766761 -0.413768 -0.0531384 0.0795811 -0.428531 -0.0652591 0.0824118 -0.442675 
-0.0769825 0.0852024 -0.456212 -0.0882808 0.087991 -0.469174 -0.0991623 0.0908143 -0.481612 
-0.109668 0.0937022 -0.493575 -0.119861 0.0966735 -0.505103 -0.129813 0.0997323 -0.516214 
-0.139586 0.102866 -0.526892 -0.149222 0.106046 -0.537087 -0.158722 0.109228 -0.54671 
-0.168048 0.112356 -0.555642 -0.177117 0.115369 -0.563746 -0.185809 0.118203 -0.570882 
-0.193982 0.120798 -0.576922 -0.201486 0.123107 -0.581773 -0.208186 0.125093 -0.585389 
-0.213976 0.12674 -0.587786 -0.218796 0.128049 -0.589044 -0.222643 0.129042 -0.58931 
-0.225565 0.129754 -0.588785 -0.227663 0.130233 -0.587715 -0.22907 0.130535 -0.586364 
-0.229941 0.130714 -0.584994 -0.230422 0.130822 -0.583842 -0.230638 0.130898 -0.583095 
-0.230671 0.130967 -0.582873 
LINES 2 100
OFFSETS vtktypeint64
0 100 
CONNECTIVITY vtktypeint64
0 1 2 3 4 5 6 7 8 
9 10 11 12 13 14 15 16 17 
18 19 20 21 22 23 24 25 26 
27 28 29 30 31 32 33 34 35 
36 37 38 39 40 41 42 43 44 
45 46 47 48 49 50 51 52 53 
54 55 56 57 58 59 60 61 62 
63 64 65 66 67 68 69 70 71 
72 73 74 75 76 77 78 79 80 
81 82 83 84 85 86 87 88 89 
90 91 92 93 94 95 96 97 98 
99 
POINT_DATA 100
FIELD FieldData 3
_theta 1 100 double
0 0.031733259127 0.063466518254 0.095199777382 0.12693303651 0.15866629564 0.19039955476 0.22213281389 0.25386607302 
0.28559933214 0.31733259127 0.3490658504 0.38079910953 0.41253236865 0.44426562778 0.47599888691 0.50773214603 0.53946540516 
0.57119866429 0.60293192342 0.63466518254 0.66639844167 0.6981317008 0.72986495992 0.76159821905 0.79333147818 0.82506473731 
0.85679799643 0.88853125556 0.92026451469 0.95199777382 0.98373103294 1.0154642921 1.0471975512 1.0789308103 1.1106640695 
1.1423973286 1.1741305877 1.2058638468 1.237597106 1.2693303651 1.3010636242 1.3327968833 1.3645301425 1.3962634016 
1.4279966607 1.4597299198 1.491463179 1.5231964381 1.5549296972 1.5866629564 1.6183962155 1.6501294746 1.6818627337 
1.7135959929 1.745329252 1.7770625111 1.8087957702 1.8405290294 1.8722622885 1.9039955476 1.9357288068 1.9674620659 
1.999195325 2.0309285841 2.0626618433 2.0943951024 2.1261283615 2.1578616206 2.1895948798 2.2213281389 2.253061398 
2.2847946572 2.3165279163 2.3482611754 2.3799944345 2.4117276937 2.4434609528 2.4751942119 2.506927471 2.5386607302 
2.5703939893 2.6021272484 2.6338605076 2.6655937667 2.6973270258 2.7290602849 2.7607935441 2.7925268032 2.8242600623 
2.8559933214 2.8877265806 2.9194598397 2.9511930988 2.982926358 3.0146596171 3.0463928762 3.0781261353 3.1098593945 
3.1415926536 
_radius 1 100 double
7.9103390505e-16 0.016276178803 0.032332117398 0.047954446225 0.062954351727 0.077176813675 0.090505875837 0.10286526618 0.11421441322 
0.12454081373 0.13385049263 0.14215856113 0.14948145153 0.1558315549 0.16121425786 0.16562716297 0.16906151856 0.17150614647 
0.17295403064 0.17341114212 0.17290628331 0.1715000823 0.16929098 0.16641624208 0.16304682237 0.1593764314 0.15560722415 
0.15193621692 0.14854647648 0.14560455425 0.14326168585 0.14165347947 0.14089316632 0.1410570768 0.14216612017 0.14417081716 
0.14694737044 0.15030826062 0.15402485978 0.15785453906 0.16156489187 0.16495283519 0.16785974365 0.17018300782 0.17188335065 
0.17298753096 0.17358645484 0.17382850105 0.17390746493 0.17404453373 0.17446441903 0.17536724066 0.17689974071 0.1791311343 
0.18203919382 0.185510299 0.18935375891 0.19332730256 0.19716859975 0.20062740824 0.2034940256 0.20562131784 0.20693888228 
0.2074585638 0.20727090513 0.20653270083 0.20544683415 0.20423673886 0.20311868656 0.20227532101 0.2018334247 0.20184811039 
0.20229488001 0.2030704298 0.20400245845 0.20486776006 0.20541664017 0.20540058813 0.20459952285 0.20284489442 0.20003541337 
0.19614310792 0.19120869941 0.18532684711 0.17862349877 0.17122914642 0.1632528535 0.15476205445 0.14577204965 0.13624696129 
0.12611131067 0.11526918444 0.10362680409 0.091114327608 0.077703585544 0.063419707993 0.048345819249 0.032620931052 0.016431809706 
8.3259637836e-16 
_area 1 100 double
0 0.00061831243372 0.0024561663458 0.005460187486 0.0095361316841 0.014546179985 0.020312312843 0.026626962686 0.033268060053 
0.04001328867 0.046649648537 0.052978334352 0.058817921824 0.064008290172 0.068415348918 0.071936146468 0.074506032535 0.076111822746 
0.076813359424 0.076752865758 0.076079405703 0.074865766921 0.073176686139 0.071114369935 0.068795186863 0.066317449257 0.063749221592 
0.061143958586 0.058570854723 0.056138545498 0.05399885246 0.052330231312 0.051308835311 0.051074515829 0.051691361455 0.053111576472 
0.055194594296 0.057745081632 0.06051906911 0.063336682792 0.066147823585 0.069316295229 0.072929537671 0.076579514463 0.079718235268 
0.082170615439 0.083923875089 0.085111380164 0.085992649737 0.086898343831 0.08814503094 0.089959862759 0.092453601854 0.095629810132 
0.099398127609 0.10357524109 0.10789418032 0.11204678647 0.1157498966 0.1188091691 0.12115088999 0.12278974038 0.12374182906 
0.12397367548 0.12344524564 0.122179685 0.1202923809 0.11797809327 0.11547725699 0.11303828984 0.11088461743 0.10918928764 
0.10805575037 0.10749967053 0.10743287676 0.10766008764 0.10789833011 0.10782038666 0.10711218249 0.10552666171 0.1029196291 
0.099261293399 0.094624337498 0.089154657934 0.083034591934 0.076448951152 0.069560945737 0.062500399748 0.055363442216 0.048221577861 
0.041137276538 0.034182113945 0.027452578743 0.02107893898 0.015224417155 0.010074741848 0.0058207312714 0.0026379412786 0.00066734700824 
1.9146269075e-16 
