# vtk DataFile Version 5.1
vtk output
ASCII
DATASET POLYDATA
POINTS 100 float
-0.229555 -0.0823017 0.737113 -0.229301 -0.0821687 0.737437 -0.228521 -0.0815971 0.738294 
-0.227201 -0.0805816 0.739518 -0.225315 -0.0791147 0.740853 -0.222828 -0.077187 0.741987 
-0.219696 -0.0747874 0.742586 -0.21587 -0.0719037 0.742331 -0.211296 -0.0685235 0.740956 
-0.205913 -0.0646357 0.738273 -0.199666 -0.0602321 0.73419 -0.192497 -0.0553099 0.728715 
-0.184359 -0.0498738 0.721945 -0.175211 -0.0439381 0.714049 -0.165032 -0.0375296 0.705233 
-0.153816 -0.0306881 0.695713 -0.141584 -0.0234679 0.685675 -0.128383 -0.015937 0.675248 
-0.114293 -0.00817626 0.664487 -0.099424 -0.000276518 0.653358 -0.0839167 0.00766426 0.64174 
-0.0679411 0.015545 0.629447 -0.0516894 0.0232658 0.616243 -0.0353685 0.0307317 0.601879 
-0.0191907 0.0378568 0.586125 -0.00336234 0.0445666 0.5688 0.0119279 0.0507997 0.549796 
0.0265194 0.0565087 0.529099 0.0402893 0.061659 0.506787 0.0531588 0.0662274 0.483029 
0.0650964 0.0701995 0.458062 0.0761164 0.0735669 0.43217 0.0862735 0.0763242 0.40565 
0.0956536 0.0784673 0.378781 0.104361 0.0799913 0.3518 0.112502 0.0808907 0.324873 
0.120174 0.0811604 0.298094 0.127445 0.0807972 0.271473 0.134346 0.0798034 0.244955 
0.140861 0.07819 0.21843 0.146926 0.07598 0.191762 0.15243 0.0732119 0.164817 
0.157224 0.0699416 0.137486 0.161133 0.0662429 0.10971 0.163973 0.0622066 0.0814932 
0.165572 0.0579378 0.0529095 0.165782 0.0535513 0.0241006 0.164502 0.0491662 -0.00473745 
0.161686 0.0448989 -0.0333726 0.157351 0.0408565 -0.06156 0.15158 0.0371304 -0.0890664 
0.144517 0.0337908 -0.115693 0.136353 0.0308832 -0.141292 0.127315 0.0284267 -0.16578 
0.117647 0.0264147 -0.189139 0.10759 0.0248173 -0.211413 0.0973655 0.0235867 -0.232697 
0.0871608 0.0226629 -0.253122 0.0771179 0.0219814 -0.272835 0.0673286 0.0214799 -0.291983 
0.0578352 0.0211055 -0.310694 0.0486358 0.0208195 -0.329071 0.0396937 0.0206018 -0.347178 
0.0309505 0.0204516 -0.365047 0.0223389 0.0203869 -0.382679 0.0137954 0.0204415 -0.400052 
0.00527115 0.02066 -0.417133 -0.00326117 0.0210919 -0.43389 -0.0118044 0.0217847 -0.450296 
-0.0203379 0.0227775 -0.466343 -0.028822 0.0240954 -0.482037 -0.0372054 0.0257448 -0.4974 
-0.0454335 0.0277113 -0.512464 -0.0534563 0.0299594 -0.52726 -0.0612357 0.0324342 -0.541814 
-0.0687493 0.0350655 -0.556133 -0.0759913 0.0377733 -0.570202 -0.0829702 0.0404736 -0.583978 
-0.0897032 0.0430855 -0.597392 -0.0962094 0.0455375 -0.610355 -0.102501 0.0477728 -0.622759 
-0.108576 0.0497529 -0.634494 -0.114415 0.0514598 -0.645458 -0.119972 0.0528959 -0.655564 
-0.125186 0.0540817 -0.664751 -0.129974 0.0550529 -0.67299 -0.134251 0.0558548 -0.680283 
-0.137932 0.0565369 -0.686666 -0.140948 0.0571477 -0.692197 -0.143254 0.0577288 -0.696956 
-0.144844 0.0583114 -0.701028 -0.14575 0.0589134 -0.7045 -0.146047 0.0595383 -0.70745 
-0.145847 0.060176 -0.709943 -0.145291 0.0608053 -0.712025 -0.144537 0.0613969 -0.713729 
-0.143746 0.0619181 -0.715069 -0.143062 0.0623372 -0.716051 -0.1426 0.0626278 -0.716673 
-0.142437 0.0627724 -0.716932 
LINES 2 100
OFFSETS vtktypeint64
0 100 
CONNECTIVITY vtktypeint64
0 1 2 3 4 5 6 7 8 
9 10 11 12 13 14 15 16 17 
18 19 20 21 22 23 24 25 26 
27 28 29 30 31 32 33 34 35 
36 37 38 39 40 41 42 43 44 
45 46 47 48 49 50 51 52 53 
54 55 56 57 58 59 60 61 62 
63 64 65 66 67 68 69 70 71 
72 73 74 75 76 77 78 79 80 
81 82 83 84 85 86 87 88 89 
90 91 92 93 94 95 96 97 98 
99 
POINT_DATA 100
FIELD FieldData 3
_theta 1 100 double
0 0.031733259127 0.063466518254 0.095199777382 0.12693303651 0.15866629564 0.19039955476 0.22213281389 0.25386607302 
0.28559933214 0.31733259127 0.3490658504 0.38079910953 0.41253236865 0.44426562778 0.47599888691 0.50773214603 0.53946540516 
0.57119866429 0.60293192342 0.63466518254 0.66639844167 0.6981317008 0.72986495992 0.76159821905 0.79333147818 0.82506473731 
0.85679799643 0.88853125556 0.92026451469 0.95199777382 0.98373103294 1.0154642921 1.0471975512 1.0789308103 1.1106640695 
1.1423973286 1.1741305877 1.2058638468 1.237597106 1.2693303651 1.3010636242 1.3327968833 1.3645301425 1.3962634016 
1.4279966607 1.4597299198 1.491463179 1.5231964381 1.5549296972 1.5866629564 1.6183962155 1.6501294746 1.6818627337 
1.7135959929 1.745329252 1.7770625111 1.8087957702 1.8405290294 1.8722622885 1.9039955476 1.9357288068 1.9674620659 
1.999195325 2.0309285841 2.0626618433 2.0943951024 2.1261283615 2.1578616206 2.1895948798 2.2213281389 2.253061398 
2.2847946572 2.3165279163 2.3482611754 2.3799944345 2.4117276937 2.4434609528 2.4751942119 2.506927471 2.5386607302 
2.5703939893 2.6021272484 2.6338605076 2.6655937667 2.6973270258 2.7290602849 2.7607935441 2.7925268032 2.8242600623 
2.8559933214 2.8877265806 2.9194598397 2.9511930988 2.982926358 3.0146596171 3.0463928762 3.0781261353 3.1098593945 
3.1415926536 
_radius 1 100 double
3.4915808093e-16 0.01998378479 0.039623220291 0.058588894458 0.076582766833 0.093354409945 0.10871640481 0.12255623484 0.13484152014 
0.14561598461 0.15498507731 0.16309237343 0.17009029611 0.17611070361 0.18124175709 0.18551664911 0.18891716131 0.1913912835 
0.19288046877 0.19334974494 0.19281354527 0.19135169715 0.18911285281 0.18630578413 0.18318139893 0.18000949997 0.17705429602 
0.17455186872 0.17269156633 0.17160212547 0.17134274114 0.1718994407 0.17318750138 0.17506056087 0.17732611632 0.17976571313 
0.18215737974 0.1842983024 0.18602640325 0.18723925956 0.18790808259 0.18808434532 0.18789740201 0.18754265395 0.18726100964 
0.18731142114 0.18793937356 0.18934554524 0.19165993648 0.19492638818 0.19909982399 0.20405471607 0.20960061005 0.21550078142 
0.22149228106 0.22730706779 0.23269342904 0.23743576427 0.24137051137 0.24439658455 0.24647955811 0.24764959535 0.24799369264 
0.24764320853 0.24675796189 0.24550851681 0.24405862689 0.24255001716 0.24109148904 0.23975363412 0.23856932374 0.23753876749 
0.23663662522 0.23581810673 0.23502178983 0.23416872405 0.23315927087 0.23187027392 0.23015529666 0.22784987894 0.22478227929 
0.22078839518 0.21572806579 0.20949931296 0.20204752696 0.19336801568 0.18350225365 0.17252990119 0.16055941894 0.14771945747 
0.13415162748 0.12000388606 0.10542343733 0.09054869117 0.075500828687 0.06037628908 0.045241728551 0.030132703567 0.015056660615 
3.060324406e-16 
_area 1 100 double
0 0.00080626171943 0.0032147610179 0.0071736927829 0.01254463115 0.019068869954 0.026369616169 0.033992296482 0.041468909996 
0.048386606574 0.054443504141 0.059481631678 0.063493157202 0.066599382574 0.069004623705 0.070941900499 0.072699305324 0.074501100365 
0.076025214434 0.077087699162 0.077594162454 0.077549469179 0.077041288869 0.076193796985 0.075130301606 0.073985559835 0.072873063279 
0.071952505153 0.071263195679 0.070859070973 0.070777132798 0.071033420567 0.071643920017 0.072659852303 0.074210854545 0.076496306067 
0.079599242327 0.083251566595 0.086971064776 0.090321011167 0.093012672165 0.094925556766 0.096095599231 0.096693333863 0.096993574798 
0.09733570687 0.098100714479 0.099640616915 0.10213904081 0.10566377352 0.11022403773 0.11575324423 0.12210893816 0.12908877285 
0.13644102481 0.14386427332 0.1510047292 0.15746874608 0.16286546856 0.16687061726 0.16928352286 0.17005954963 0.16932760977 
0.16743706786 0.16500249881 0.16228879536 0.15931603669 0.15636348972 0.15369378706 0.15145629272 0.14963833434 0.14811280508 
0.14671174481 0.14528073337 0.14370399665 0.14190276235 0.13981350924 0.13735292971 0.13438789748 0.13073616147 0.12620462902 
0.12064442734 0.11399892525 0.10633016705 0.097815014871 0.088710555951 0.079300395103 0.069842365347 0.060537451188 0.051528290725 
0.042919921216 0.03480599399 0.027286130682 0.020469862039 0.014470886511 0.0093979582755 0.0053469767381 0.0023958888312 0.00060191286148 
1.3877787808e-17 
