# vtk DataFile Version 5.1
vtk output
ASCII
DATASET POLYDATA
POINTS 100 float
-0.139036 -0.0588513 0.745111 -0.139334 -0.0588169 0.745272 -0.140184 -0.0585144 0.745708 
-0.141471 -0.0579353 0.746292 -0.143017 -0.0570653 0.74683 -0.144597 -0.0558844 0.747085 
-0.145965 -0.0543659 0.746801 -0.146877 -0.0524768 0.745734 -0.147109 -0.0501783 0.743677 
-0.146482 -0.0474281 0.740484 -0.144865 -0.0441838 0.736078 -0.142182 -0.0404071 0.73046 
-0.138413 -0.0360691 0.723699 -0.133578 -0.0311558 0.715915 -0.127726 -0.0256726 0.707264 
-0.120923 -0.0196482 0.697905 -0.113234 -0.0131366 0.687982 -0.104716 -0.00621725 0.677598 
-0.0954099 0.0010081 0.666799 -0.0853411 0.00841963 0.655571 -0.0745266 0.0158863 0.643837 
-0.0629846 0.0232736 0.63147 -0.0507476 0.0304517 0.618307 -0.0378756 0.0373033 0.604176 
-0.0244668 0.0437294 0.588914 -0.0106637 0.0496536 0.57239 0.0033472 0.0550234 0.554526 
0.0173426 0.0598094 0.535302 0.0310758 0.0640009 0.514765 0.0442954 0.0676011 0.493019 
0.0567669 0.0706203 0.470214 0.0682939 0.0730693 0.44653 0.0787366 0.0749538 0.422158 
0.0880239 0.0762711 0.397273 0.0961585 0.0770084 0.372024 0.103213 0.0771449 0.346519 
0.109316 0.0766557 0.320817 0.114636 0.0755181 0.294933 0.119353 0.0737198 0.26884 
0.123633 0.0712664 0.242488 0.127606 0.0681887 0.215818 0.131347 0.0645475 0.188775 
0.134861 0.0604358 0.161329 0.138085 0.0559774 0.133485 0.140893 0.051322 0.105287 
0.143115 0.0466368 0.076822 0.144557 0.0420959 0.0482128 0.145032 0.0378679 0.0196083 
0.144381 0.0341036 -0.00882967 0.142501 0.030925 -0.0369408 0.139359 0.028416 -0.06458 
0.135001 0.0266172 -0.091629 0.129546 0.0255247 -0.118003 0.123178 0.0250919 -0.143653 
0.116123 0.0252363 -0.168563 0.108622 0.0258486 -0.192746 0.10091 0.0268039 -0.216233 
0.0931808 0.0279732 -0.239061 0.0855762 0.0292352 -0.26127 0.0781678 0.0304851 -0.282889 
0.0709562 0.031642 -0.303936 0.0638786 0.0326522 -0.324415 0.0568237 0.0334898 -0.344322 
0.0496549 0.0341541 -0.363649 0.0422349 0.0346645 -0.38239 0.0344521 0.0350545 -0.400551 
0.0262408 0.0353642 -0.418152 0.0175968 0.0356341 -0.435233 0.00858267 0.0358997 -0.451848 
-0.000675789 0.0361877 -0.468065 -0.0100021 0.0365147 -0.483954 -0.019189 0.0368873 -0.499575 
-0.0280223 0.0373039 -0.514974 -0.036306 0.0377581 -0.530163 -0.0438847 0.0382413 -0.54512 
-0.0506604 0.038746 -0.559785 -0.0566014 0.0392676 -0.574061 -0.0617428 0.0398055 -0.587823 
-0.0661767 0.0403622 -0.600928 -0.0700371 0.0409417 -0.613237 -0.0734777 0.041547 -0.624624 
-0.0766493 0.042177 -0.634997 -0.079678 0.0428244 -0.644309 -0.0826481 0.0434739 -0.652565 
-0.0855921 0.0441016 -0.659827 -0.0884883 0.0446768 -0.666201 -0.0912681 0.0451645 -0.671833 
-0.0938292 0.0455294 -0.676889 -0.0960547 0.0457406 -0.681535 -0.0978349 0.0457766 -0.685919 
-0.0990873 0.0456294 -0.690152 -0.0997731 0.045307 -0.694294 -0.099907 0.044835 -0.698351 
-0.0995596 0.0442548 -0.702271 -0.0988502 0.0436208 -0.705955 -0.0979336 0.0429953 -0.709269 
-0.0969802 0.0424424 -0.712065 -0.0961543 0.0420207 -0.714196 -0.0955916 0.0417775 -0.715543 
-0.0953816 0.0417432 -0.716025 
LINES 2 100
OFFSETS vtktypeint64
0 100 
CONNECTIVITY vtktypeint64
0 1 2 3 4 5 6 7 8 
9 10 11 12 13 14 15 16 17 
18 19 20 21 22 23 24 25 26 
27 28 29 30 31 32 33 34 35 
36 37 38 39 40 41 42 43 44 
45 46 47 48 49 50 51 52 53 
54 55 56 57 58 59 60 61 62 
63 64 65 66 67 68 69 70 71 
72 73 74 75 76 77 78 79 80 
81 82 83 84 85 86 87 88 89 
90 91 92 93 94 95 96 97 98 
99 
POINT_DATA 100
FIELD FieldData 3
_theta 1 100 double
0 0.031733259127 0.063466518254 0.095199777382 0.12693303651 0.15866629564 0.19039955476 0.22213281389 0.25386607302 
0.28559933214 0.31733259127 0.3490658504 0.38079910953 0.41253236865 0.44426562778 0.47599888691 0.50773214603 0.53946540516 
0.57119866429 0.60293192342 0.63466518254 0.66639844167 0.6981317008 0.72986495992 0.76159821905 0.79333147818 0.82506473731 
0.85679799643 0.88853125556 0.92026451469 0.95199777382 0.98373103294 1.0154642921 1.0471975512 1.0789308103 1.1106640695 
1.1423973286 1.1741305877 1.2058638468 1.237597106 1.2693303651 1.3010636242 1.3327968833 1.3645301425 1.3962634016 
1.4279966607 1.4597299198 1.491463179 1.5231964381 1.5549296972 1.5866629564 1.6183962155 1.6501294746 1.6818627337 
1.7135959929 1.745329252 1.7770625111 1.8087957702 1.8405290294 1.8722622885 1.9039955476 1.9357288068 1.9674620659 
1.999195325 2.0309285841 2.0626618433 2.0943951024 2.1261283615 2.1578616206 2.1895948798 2.2213281389 2.253061398 
2.2847946572 2.3165279163 2.3482611754 2.3799944345 2.4117276937 2.4434609528 2.4751942119 2.506927471 2.5386607302 
2.5703939893 2.6021272484 2.6338605076 2.6655937667 2.6973270258 2.7290602849 2.7607935441 2.7925268032 2.8242600623 
2.8559933214 2.8877265806 2.9194598397 2.9511930988 2.982926358 3.0146596171 3.0463928762 3.0781261353 3.1098593945 
3.1415926536 
_radius 1 100 double
2.5438405243e-16 0.017840363184 0.035472648691 0.05269836547 0.069349349476 0.085297048676 0.10045564278 0.114778795 0.12825098823 
0.14087530941 0.15266000441 0.16360606844 0.17369768795 0.18289674541 0.19114203973 0.19835341788 0.2044405878 0.20931590955 
0.21290993513 0.21518792516 0.21616504682 0.21591756728 0.21458739114 0.21237806327 0.20954187565 0.20635958162 0.20311582417 
0.20007416003 0.19745523293 0.19542045331 0.19406218307 0.1934005896 0.1933871058 0.19391429005 0.19483134876 0.19596379319 
0.19713513304 0.19818837948 0.19900520372 0.19952062175 0.19973122358 0.19969564479 0.1995272527 0.19938042373 0.19943272381 
0.19986548604 0.20084482193 0.20250434655 0.20493028426 0.20814964038 0.21212299188 0.21674447617 0.22185122436 0.22724201614 
0.23270167031 0.23802593306 0.24304225286 0.24762382518 0.25169625911 0.25523749512 0.25827220451 0.26086208731 0.26309348308 
0.26506365027 0.26686700377 0.2685825379 0.27026357759 0.27193084233 0.27356950615 0.27513044308 0.27653519732 0.27768357036 
0.27846231033 0.27875340075 0.27844087652 0.27741575802 0.27557931473 0.27284522726 0.26914124187 0.26441068815 0.25861392249 
0.25172951598 0.24375490386 0.23470626337 0.22461754572 0.21353878151 0.20153392203 0.18867850353 0.17505731496 0.16076206799 
0.14588890584 0.13053553673 0.1147978765 0.098766304999 0.082521900623 0.066133213292 0.049654190883 0.033123759893 0.016567308935 
1.2966505852e-15 
_area 1 100 double
0 0.00074720974856 0.0029587474474 0.0065459932391 0.011366847449 0.017234356982 0.023928913844 0.031213227075 0.038848072813 
0.046606031807 0.054280671967 0.061689840508 0.068673410539 0.075087696125 0.080800534624 0.085691669567 0.089661246485 0.092645698655 
0.094638814019 0.095728127857 0.0963047911 0.096567075913 0.096283466366 0.095330829375 0.093682324001 0.09145690346 0.088840734526 
0.086056547365 0.08334318649 0.080946754792 0.079113787436 0.078063508983 0.077899299616 0.078516246226 0.079695557467 0.081224332921 
0.082938666044 0.084755209822 0.086686401235 0.088807237167 0.091157313734 0.093693427096 0.096341644199 0.099051612875 0.10182317887 
0.10472499403 0.10792727355 0.11172728031 0.11611740798 0.12100041857 0.12635581906 0.13213718463 0.13825771281 0.14459464436 
0.15099937685 0.15730901432 0.1633561347 0.16897597837 0.17401335739 0.17833137433 0.18182184761 0.18442127402 0.18613549243 
0.18705694704 0.18735181367 0.18721864828 0.18684192272 0.18635762833 0.1858345702 0.18526987126 0.18459757921 0.18370833624 
0.18247436838 0.18077113174 0.17848828394 0.17552868576 0.17180140031 0.16721782257 0.16169678628 0.15517802342 0.14763889428 
0.13910870845 0.12967657079 0.11949058105 0.10874785221 0.09767650623 0.086512829615 0.075478865003 0.064766715159 0.054533871002 
0.044908639008 0.035999850062 0.02790467249 0.020711760526 0.01450034746 0.0093374471423 0.0052754229872 0.0023514054581 0.00058880275039 
7.5554026896e-17 
