# vtk DataFile Version 5.1
vtk output
ASCII
DATASET POLYDATA
POINTS 100 float
-0.154876 -0.0153781 0.755379 -0.15424 -0.0155463 0.755441 -0.152466 -0.015894 0.755708 
-0.149706 -0.0163915 0.756065 -0.146194 -0.0169925 0.756324 -0.14221 -0.0176394 0.756256 
-0.138046 -0.0182683 0.755601 -0.133963 -0.0188153 0.754105 -0.13016 -0.0192212 0.751535 
-0.126739 -0.0194354 0.747702 -0.123692 -0.0194173 0.742477 -0.120899 -0.0191365 0.735796 
-0.118137 -0.0185702 0.727658 -0.115106 -0.0177006 0.718121 -0.111464 -0.01651 0.707286 
-0.106869 -0.0149779 0.695282 -0.10102 -0.0130776 0.682248 -0.0936978 -0.0107759 0.668315 
-0.0847931 -0.00803407 0.653598 -0.0743253 -0.00481214 0.638183 -0.0624452 -0.00107438 0.622125 
-0.0494244 0.00320313 0.605452 -0.0356299 0.0080246 0.588174 -0.0214889 0.0133671 0.570288 
-0.0074468 0.0191749 0.551793 0.00607578 0.0253564 0.532699 0.0187232 0.0317846 0.513034 
0.0302367 0.0383012 0.492845 0.0404747 0.0447245 0.4722 0.04942 0.0508604 0.451179 
0.0571723 0.0565157 0.429867 0.0639288 0.0615119 0.408338 0.0699533 0.0656989 0.386648 
0.0755399 0.0689662 0.364819 0.0809747 0.0712516 0.342838 0.0864986 0.0725449 0.32065 
0.0922787 0.0728877 0.298164 0.0983877 0.0723688 0.275262 0.104796 0.0711145 0.251812 
0.111376 0.0692776 0.227686 0.117917 0.0670233 0.202774 0.12415 0.0645155 0.177006 
0.129775 0.0619044 0.150361 0.134501 0.0593164 0.122877 0.138067 0.0568469 0.0946535 
0.140276 0.0545578 0.0658474 0.141006 0.0524778 0.0366621 0.140225 0.0506073 0.00733336 
0.137985 0.0489247 -0.0218894 0.134414 0.0473946 -0.0507617 0.129696 0.0459773 -0.0790622 
0.124053 0.0446354 -0.106607 0.117713 0.0433412 -0.133261 0.110895 0.0420795 -0.158941 
0.103783 0.0408492 -0.183615 0.0965163 0.0396617 -0.207296 0.089179 0.0385375 -0.230034 
0.0818025 0.0375017 -0.251901 0.0743715 0.0365782 -0.27298 0.066836 0.0357852 -0.293353 
0.0591263 0.0351317 -0.31309 0.0511696 0.034615 -0.332247 0.042905 0.0342216 -0.350863 
0.0342954 0.0339288 -0.368959 0.025336 0.0337083 -0.386546 0.0160569 0.0335311 -0.403632 
0.0065212 0.0333726 -0.420224 -0.00318155 0.0332167 -0.436338 -0.0129448 0.0330592 -0.451999 
-0.0226565 0.0329095 -0.467245 -0.0322102 0.0327898 -0.48212 -0.041515 0.032733 -0.496674 
-0.0505031 0.0327783 -0.510952 -0.0591332 0.032966 -0.524989 -0.0673906 0.0333316 -0.538802 
-0.0752833 0.0339005 -0.552385 -0.0828355 0.0346834 -0.56571 -0.0900795 0.0356732 -0.578722 
-0.097046 0.0368446 -0.59135 -0.103756 0.0381548 -0.603507 -0.110214 0.0395465 -0.615106 
-0.116403 0.0409533 -0.626068 -0.122287 0.0423046 -0.636328 -0.127807 0.0435321 -0.645845 
-0.132895 0.0445755 -0.654607 -0.137475 0.0453878 -0.662627 -0.141472 0.045938 -0.669947 
-0.144829 0.0462138 -0.676625 -0.147504 0.0462214 -0.682727 -0.149489 0.0459842 -0.688322 
-0.150805 0.0455402 -0.693466 -0.151508 0.0449383 -0.698198 -0.151682 0.0442342 -0.702532 
-0.15144 0.0434864 -0.706458 -0.150911 0.0427522 -0.709941 -0.150229 0.0420847 -0.712929 
-0.149528 0.0415299 -0.715359 -0.148924 0.0411247 -0.717169 -0.148509 0.0408961 -0.718305 
-0.148341 0.04086 -0.71873 
LINES 2 100
OFFSETS vtktypeint64
0 100 
CONNECTIVITY vtktypeint64
0 1 2 3 4 5 6 7 8 
9 10 11 12 13 14 15 16 17 
18 19 20 21 22 23 24 25 26 
27 28 29 30 31 32 33 34 35 
36 37 38 39 40 41 42 43 44 
45 46 47 48 49 50 51 52 53 
54 55 56 57 58 59 60 61 62 
63 64 65 66 67 68 69 70 71 
72 73 74 75 76 77 78 79 80 
81 82 83 84 85 86 87 88 89 
90 91 92 93 94 95 96 97 98 
99 
POINT_DATA 100
FIELD FieldData 3
_theta 1 100 double
0 0.031733259127 0.063466518254 0.095199777382 0.12693303651 0.15866629564 0.19039955476 0.22213281389 0.25386607302 
0.28559933214 0.31733259127 0.3490658504 0.38079910953 0.41253236865 0.44426562778 0.47599888691 0.50773214603 0.53946540516 
0.57119866429 0.60293192342 0.63466518254 0.66639844167 0.6981317008 0.72986495992 0.76159821905 0.79333147818 0.82506473731 
0.85679799643 0.88853125556 0.92026451469 0.95199777382 0.98373103294 1.0154642921 1.0471975512 1.0789308103 1.1106640695 
1.1423973286 1.1741305877 1.2058638468 1.237597106 1.2693303651 1.3010636242 1.3327968833 1.3645301425 1.3962634016 
1.4279966607 1.4597299198 1.491463179 1.5231964381 1.5549296972 1.5866629564 1.6183962155 1.6501294746 1.6818627337 
1.7135959929 1.745329252 1.7770625111 1.8087957702 1.8405290294 1.8722622885 1.9039955476 1.9357288068 1.9674620659 
1.999195325 2.0309285841 2.0626618433 2.0943951024 2.1261283615 2.1578616206 2.1895948798 2.2213281389 2.253061398 
2.2847946572 2.3165279163 2.3482611754 2.3799944345 2.4117276937 2.4434609528 2.4751942119 2.506927471 2.5386607302 
2.5703939893 2.6021272484 2.6338605076 2.6655937667 2.6973270258 2.7290602849 2.7607935441 2.7925268032 2.8242600623 
2.8559933214 2.8877265806 2.9194598397 2.9511930988 2.982926358 3.0146596171 3.0463928762 3.0781261353 3.1098593945 
3.1415926536 
_radius 1 100 double
3.8944831799e-16 0.018367393607 0.036428988259 0.053913828488 0.070609166691 0.086372840888 0.10112967407 0.11485297477 0.12753675895 
0.13916747011 0.14970400683 0.15907154874 0.16716971547 0.17389138421 0.17914643927 0.18288478517 0.18511429156 0.18591112528 
0.18542163913 0.18385637647 0.18147774086 0.17858347409 0.17548823978 0.17250518741 0.16992838489 0.16801600415 0.16697405399 
0.16694156389 0.16797933559 0.17006426041 0.17308980312 0.17687203376 0.18116060431 0.18565513962 0.19002824818 0.19395457627 
0.19714236223 0.19936500745 0.20049186189 0.20051250163 0.1995455157 0.19782804126 0.19568857272 0.19350824217 0.19167645861 
0.19054681398 0.19039850266 0.19140741676 0.19363019301 0.19700355457 0.20135923044 0.206451518 0.21199190811 0.21768463379 
0.22325822027 0.2284898149 0.23322048994 0.23736086217 0.24088749247 0.24383163822 0.24626283497 0.24827024931 0.24994466308 
0.2513633931 0.25257962877 0.25361682016 0.25446805145 0.2550998528 0.25545959342 0.25548534755 0.25511684484 0.25430582783 
0.25302397772 0.25126672193 0.24905181042 0.24641250217 0.24338634317 0.24000155811 0.23626373919 0.23214562323 0.22758229903 
0.22247330709 0.21669192975 0.21010063146 0.20257026171 0.19399960126 0.18433152459 0.17356271278 0.16174536141 0.14898118714 
0.13540953783 0.12119206165 0.10649629593 0.091480203465 0.076279405609 0.060998513417 0.045707354234 0.030442087117 0.01521045613 
1.9708290061e-15 
_area 1 100 double
0 0.00068451133066 0.0027017983483 0.0059504939608 0.010283810685 0.015534264533 0.021533365633 0.028118854775 0.035128904325 
0.042388496931 0.049695879155 0.056817357851 0.063495514294 0.069469238655 0.074498367956 0.078385210896 0.080989809393 0.082241966828 
0.082155758019 0.080848340595 0.078556234951 0.075632742388 0.072503986722 0.069575099495 0.06713412949 0.065334781063 0.06425094222 
0.063922600914 0.064385967471 0.06573704627 0.067911069654 0.070607402708 0.073403621114 0.076121515388 0.078658014252 0.081006014724 
0.083365241243 0.086191433838 0.089433013174 0.092426782949 0.094770902061 0.096371126621 0.097327520667 0.097806054631 0.098150742268 
0.098740840031 0.099906394318 0.1018874387 0.10483358656 0.10881395753 0.11381191487 0.1197106518 0.12629048865 0.13324842993 
0.14023644943 0.14690993049 0.15297589852 0.15822916954 0.16256751021 0.16598456828 0.16854663691 0.17036238069 0.1715535967 
0.17223227551 0.17248631699 0.17237329789 0.17191923836 0.17111915836 0.16993865042 0.16831842107 0.16618444504 0.16346444267 
0.1601077584 0.15610270237 0.15148539522 0.14633711034 0.14077071159 0.13490910238 0.12885960736 0.12268894127 0.1164047757 
0.10995143525 0.10322617937 0.096116013542 0.088544791805 0.080513131228 0.072114837669 0.0635228492 0.054950664083 0.04660635719 
0.038659618413 0.03123365366 0.024418031051 0.018288233807 0.012919285254 0.0083890026909 0.0047733857757 0.0021391686954 0.00053746788843 
7.99565822e-17 
