# vtk DataFile Version 5.1
vtk output
ASCII
DATASET POLYDATA
POINTS 100 float
-0.147322 -0.0525242 0.666858 -0.147351 -0.0526484 0.666952 -0.147544 -0.0528021 0.667192 
-0.147865 -0.0529268 0.667482 -0.148258 -0.0529319 0.667676 -0.148641 -0.0527038 0.667595 
-0.148913 -0.052116 0.667042 -0.148957 -0.0510414 0.665832 -0.148641 -0.0493637 0.663799 
-0.14783 -0.0469889 0.660819 -0.146387 -0.0438532 0.656817 -0.144187 -0.0399301 0.651764 
-0.14112 -0.0352322 0.645674 -0.137105 -0.0298116 0.638596 -0.132092 -0.0237562 0.630596 
-0.12607 -0.0171833 0.62174 -0.11907 -0.0102317 0.612087 -0.111163 -0.00305309 0.601671 
-0.102456 0.0041977 0.590499 -0.0930889 0.011371 0.578554 -0.0832177 0.0183296 0.565795 
-0.073008 0.0249542 0.552174 -0.0626199 0.031147 0.537646 -0.0521958 0.0368333 0.522179 
-0.0418492 0.0419605 0.505771 -0.0316563 0.046497 0.488452 -0.0216523 0.050429 0.470285 
-0.0118304 0.0537572 0.451362 -0.00214762 0.0564934 0.431792 0.00746706 0.0586575 0.411686 
0.0170997 0.0602749 0.391141 0.0268365 0.0613748 0.370226 0.0367484 0.0619892 0.348966 
0.0468757 0.0621524 0.327339 0.0572162 0.0619009 0.305279 0.067716 0.0612738 0.282683 
0.0782665 0.0603127 0.259428 0.0887062 0.0590617 0.235393 0.0988284 0.0575671 0.210486 
0.108393 0.0558768 0.18466 0.117145 0.0540393 0.157939 0.124831 0.0521024 0.130427 
0.131219 0.0501125 0.102307 0.13612 0.0481129 0.0738388 0.139396 0.0461433 0.0453364 
0.140979 0.044239 0.0171446 0.140871 0.0424307 -0.010392 0.13914 0.0407446 -0.0369612 
0.135922 0.0392019 -0.062312 0.1314 0.0378198 -0.0862774 0.125794 0.0366111 -0.108788 
0.119337 0.0355845 -0.129873 0.112265 0.0347445 -0.149653 0.10479 0.034091 -0.168318 
0.0970939 0.033619 -0.186105 0.0893149 0.0333181 -0.203261 0.0815436 0.0331724 -0.220017 
0.0738245 0.0331605 -0.236559 0.0661608 0.0332563 -0.25301 0.0585246 0.0334295 -0.269418 
0.0508695 0.0336475 -0.285763 0.0431434 0.0338776 -0.301965 0.0353021 0.034089 -0.317906 
0.0273199 0.0342553 -0.333453 0.0191977 0.0343569 -0.34849 0.0109662 0.034383 -0.362936 
0.00268572 0.034332 -0.376768 -0.00555877 0.0342126 -0.390023 -0.0136658 0.0340424 -0.402799 
-0.0215275 0.0338466 -0.415242 -0.0290412 0.0336551 -0.427525 -0.0361196 0.0334996 -0.439819 
-0.0427001 0.0334102 -0.452266 -0.0487502 0.0334117 -0.464954 -0.0542695 0.0335212 -0.477897 
-0.0592883 0.0337455 -0.491028 -0.0638619 0.0340805 -0.5042 -0.0680619 0.0345107 -0.517198 
-0.0719665 0.0350108 -0.529769 -0.075649 0.0355477 -0.541647 -0.0791684 0.0360835 -0.552593 
-0.0825608 0.0365791 -0.562422 -0.0858352 0.0369972 -0.571031 -0.0889718 0.0373063 -0.578414 
-0.0919253 0.0374826 -0.584667 -0.0946308 0.0375121 -0.589976 -0.0970134 0.0373917 -0.594595 
-0.0989989 0.0371283 -0.598812 -0.100525 0.0367383 -0.602915 -0.101553 0.0362459 -0.60715 
-0.102072 0.0356803 -0.611688 -0.102108 0.0350738 -0.616604 -0.101722 0.0344592 -0.62186 
-0.101006 0.0338677 -0.62731 -0.100078 0.0333278 -0.632718 -0.0990675 0.0328636 -0.637784 
-0.0981066 0.0324947 -0.64218 -0.097315 0.0322357 -0.645598 -0.0967885 0.0320966 -0.64778 
-0.096589 0.032083 -0.648559 
LINES 2 100
OFFSETS vtktypeint64
0 100 
CONNECTIVITY vtktypeint64
0 1 2 3 4 5 6 7 8 
9 10 11 12 13 14 15 16 17 
18 19 20 21 22 23 24 25 26 
27 28 29 30 31 32 33 34 35 
36 37 38 39 40 41 42 43 44 
45 46 47 48 49 50 51 52 53 
54 55 56 57 58 59 60 61 62 
63 64 65 66 67 68 69 70 71 
72 73 74 75 76 77 78 79 80 
81 82 83 84 85 86 87 88 89 
90 91 92 93 94 95 96 97 98 
99 
POINT_DATA 100
FIELD FieldData 3
_theta 1 100 double
0 0.031733259127 0.063466518254 0.095199777382 0.12693303651 0.15866629564 0.19039955476 0.22213281389 0.25386607302 
0.28559933214 0.31733259127 0.3490658504 0.38079910953 0.41253236865 0.44426562778 0.47599888691 0.50773214603 0.53946540516 
0.57119866429 0.60293192342 0.63466518254 0.66639844167 0.6981317008 0.72986495992 0.76159821905 0.79333147818 0.82506473731 
0.85679799643 0.88853125556 0.92026451469 0.95199777382 0.98373103294 1.0154642921 1.0471975512 1.0789308103 1.1106640695 
1.1423973286 1.1741305877 1.2058638468 1.237597106 1.2693303651 1.3010636242 1.3327968833 1.3645301425 1.3962634016 
1.4279966607 1.4597299198 1.491463179 1.5231964381 1.5549296972 1.5866629564 1.6183962155 1.6501294746 1.6818627337 
1.7135959929 1.745329252 1.7770625111 1.8087957702 1.8405290294 1.8722622885 1.9039955476 1.9357288068 1.9674620659 
1.999195325 2.0309285841 2.0626618433 2.0943951024 2.1261283615 2.1578616206 2.1895948798 2.2213281389 2.253061398 
2.2847946572 2.3165279163 2.3482611754 2.3799944345 2.4117276937 2.4434609528 2.4751942119 2.506927471 2.5386607302 
2.5703939893 2.6021272484 2.6338605076 2.6655937667 2.6973270258 2.7290602849 2.7607935441 2.7925268032 2.8242600623 
2.8559933214 2.8877265806 2.9194598397 2.9511930988 2.982926358 3.0146596171 3.0463928762 3.0781261353 3.1098593945 
3.1415926536 
_radius 1 100 double
4.460365044e-16 0.017962543592 0.035612728673 0.05265478747 0.068831537115 0.08393574874 0.097814787738 0.11036979185 0.12155148909 
0.13135453774 0.13981148631 0.14698662419 0.15296939139 0.15786679594 0.16179458927 0.16486777401 0.16719205971 0.16885855855 
0.16994374862 0.17051532533 0.17064241254 0.17040661474 0.16990953909 0.16927320266 0.16863191166 0.16811695316 0.16783782584 
0.16786494391 0.16821830874 0.16886462469 0.16972247548 0.17067285412 0.17157221546 0.1722676852 0.17261616741 0.17250741843 
0.17188754452 0.17077765404 0.16928286432 0.16758862203 0.16594423313 0.16463693993 0.16396199898 0.16419360132 0.16555889896 
0.16821528018 0.17223129172 0.1775738656 0.18410605215 0.1915978509 0.19974879312 0.20821778207 0.21665520646 0.22473367867 
0.23217498532 0.23877113748 0.24439735458 0.24901525315 0.2526656846 0.25545226278 0.25751815535 0.25901978998 0.26010154827 
0.26087524911 0.26140731676 0.26171510322 0.26177211974 0.26152032636 0.26088658012 0.25980007445 0.25820795276 0.25608686119 
0.25344873874 0.2503396595 0.24683130092 0.24300582237 0.2389364961 0.23466786965 0.23019991983 0.22548012488 0.22040563858 
0.21483533266 0.20860920445 0.20157122231 0.19359137796 0.18458338223 0.17451571468 0.16341524687 0.15136408236 0.13849127665 
0.12496139833 0.11096136386 0.09668602819 0.082322459493 0.068033226867 0.053940169346 0.040111266429 0.026553741679 0.013216064497 
5.9643473765e-16 
_area 1 100 double
0 0.00064083793926 0.0025418215506 0.0056399428368 0.0098313278781 0.014965014717 0.020832766325 0.027166137422 0.033649750656 
0.039950696148 0.045756547498 0.050811683101 0.054942714975 0.058067762433 0.060189856983 0.061379722403 0.061755164339 0.06146324564 
0.06067009619 0.05957028739 0.058571478898 0.057899159442 0.057294996427 0.056766066033 0.056287842301 0.055931208833 0.055778137019 
0.055905771131 0.056373351764 0.057210579869 0.058412141318 0.059938045271 0.06170917756 0.063602579752 0.065463983511 0.067133725391 
0.068473833707 0.069397952906 0.069900625706 0.070069451783 0.070070666982 0.070115810983 0.07042694278 0.071218800765 0.072707990094 
0.075133862197 0.078726079012 0.083595198303 0.08971480409 0.096989930393 0.10526883127 0.1143121596 0.12377065876 0.13319960017 
0.14211365821 0.1500626509 0.15670133227 0.16183497745 0.16543404317 0.16761946467 0.16862541241 0.16874958146 0.16830144146 
0.16755156177 0.16666881696 0.16565452514 0.16435539973 0.16256450111 0.16011119338 0.15690365641 0.15294220913 0.14831903274 
0.14321003176 0.13785580933 0.13252186673 0.12743745139 0.12273302544 0.11840020313 0.11428848423 0.11014220149 0.10566458069 
0.10058595655 0.094718576372 0.087990757042 0.080458674924 0.07229549016 0.063759516236 0.055147667436 0.046745595022 0.038788095855 
0.031439977671 0.024799485954 0.018917545273 0.013820537827 0.009525051726 0.0060405182749 0.0033649255206 0.0014824479416 0.00036833435382 
9.845930866e-17 
