# vtk DataFile Version 5.1
vtk output
ASCII
DATASET POLYDATA
POINTS 100 float
-0.162954 -0.0609422 0.725761 -0.162853 -0.0608951 0.725383 -0.162525 -0.0605431 0.724238 
-0.161963 -0.059859 0.722342 -0.161155 -0.0588022 0.719725 -0.160084 -0.0573234 0.71643 
-0.158729 -0.0553699 0.712505 -0.157064 -0.0528911 0.708009 -0.155054 -0.0498445 0.703002 
-0.152663 -0.0462002 0.697542 -0.149844 -0.0419447 0.691682 -0.14655 -0.0370831 0.685458 
-0.142725 -0.0316396 0.678888 -0.138313 -0.0256568 0.671966 -0.13326 -0.019194 0.664655 
-0.127513 -0.0123241 0.656896 -0.12103 -0.00513083 0.6486 -0.113783 0.00229437 0.639663 
-0.105761 0.00985531 0.629968 -0.0969754 0.0174533 0.619401 -0.0874625 0.0249891 0.607858 
-0.0772836 0.0323644 0.595263 -0.0665225 0.0394832 0.58157 -0.055282 0.0462532 0.566778 
-0.0436763 0.0525876 0.550925 -0.0318223 0.0584069 0.534092 -0.0198307 0.0636416 0.516392 
-0.00779548 0.068235 0.497962 0.00421361 0.0721458 0.478944 0.0161568 0.0753508 0.459471 
0.0280264 0.0778462 0.439653 0.0398441 0.0796486 0.419559 0.0516542 0.0807936 0.399213 
0.0635126 0.0813334 0.378588 0.0754724 0.0813322 0.35761 0.0875681 0.0808612 0.336163 
0.0997994 0.0799922 0.314109 0.112118 0.0787911 0.291302 0.124417 0.0773125 0.26761 
0.136528 0.0755956 0.242932 0.148223 0.0736624 0.217217 0.159227 0.0715176 0.190478 
0.169232 0.0691524 0.162791 0.17792 0.0665495 0.1343 0.184989 0.0636908 0.105205 
0.19018 0.0605653 0.0757491 0.1933 0.0571774 0.0462011 0.194244 0.0535538 0.0168321 
0.193004 0.0497481 -0.0121034 0.189676 0.0458418 -0.0403864 0.184451 0.0419427 -0.0678467 
0.177603 0.0381788 -0.0943713 0.169463 0.0346892 -0.119905 0.160395 0.0316126 -0.144448 
0.150761 0.0290744 -0.168043 0.140894 0.0271744 -0.190762 0.131068 0.0259755 -0.212695 
0.121484 0.0254962 -0.233931 0.112254 0.0257061 -0.254547 0.103403 0.0265274 -0.274599 
0.0948766 0.0278397 -0.294121 0.0865592 0.0294905 -0.313123 0.0782958 0.0313082 -0.331597 
0.0699193 0.0331176 -0.349529 0.0612772 0.0347556 -0.366905 0.0522549 0.0360856 -0.38372 
0.0427933 0.0370097 -0.399992 0.032899 0.0374762 -0.415757 0.022645 0.0374824 -0.431078 
0.0121635 0.0370729 -0.446033 0.00163148 0.0363327 -0.460708 -0.00874992 0.035376 -0.47519 
-0.0187773 0.0343338 -0.489547 -0.0282673 0.0333385 -0.503823 -0.0370751 0.0325107 -0.518024 
-0.0451076 0.0319466 -0.532118 -0.0523296 0.0317097 -0.546027 -0.0587623 0.0318257 -0.559639 
-0.0644747 0.0322821 -0.572818 -0.0695694 0.0330315 -0.585412 -0.0741649 0.033999 -0.597274 
-0.0783773 0.035091 -0.608274 -0.082303 0.0362068 -0.618319 -0.0860065 0.0372483 -0.627353 
-0.0895124 0.0381301 -0.635373 -0.0928058 0.0387866 -0.642419 -0.0958376 0.0391764 -0.648573 
-0.0985359 0.0392843 -0.653948 -0.100821 0.0391198 -0.658671 -0.102622 0.0387139 -0.662869 
-0.103892 0.0381138 -0.666654 -0.104619 0.037377 -0.670112 -0.104835 0.0365655 -0.673295 
-0.104614 0.0357405 -0.676216 -0.104066 0.034958 -0.678853 -0.10333 0.0342666 -0.681159 
-0.102551 0.0337053 -0.683068 -0.101868 0.0333037 -0.684511 -0.101395 0.0330822 -0.685426 
-0.101208 0.0330525 -0.685772 
LINES 2 100
OFFSETS vtktypeint64
0 100 
CONNECTIVITY vtktypeint64
0 1 2 3 4 5 6 7 8 
9 10 11 12 13 14 15 16 17 
18 19 20 21 22 23 24 25 26 
27 28 29 30 31 32 33 34 35 
36 37 38 39 40 41 42 43 44 
45 46 47 48 49 50 51 52 53 
54 55 56 57 58 59 60 61 62 
63 64 65 66 67 68 69 70 71 
72 73 74 75 76 77 78 79 80 
81 82 83 84 85 86 87 88 89 
90 91 92 93 94 95 96 97 98 
99 
POINT_DATA 100
FIELD FieldData 3
_theta 1 100 double
0 0.031733259127 0.063466518254 0.095199777382 0.12693303651 0.15866629564 0.19039955476 0.22213281389 0.25386607302 
0.28559933214 0.31733259127 0.3490658504 0.38079910953 0.41253236865 0.44426562778 0.47599888691 0.50773214603 0.53946540516 
0.57119866429 0.60293192342 0.63466518254 0.66639844167 0.6981317008 0.72986495992 0.76159821905 0.79333147818 0.82506473731 
0.85679799643 0.88853125556 0.92026451469 0.95199777382 0.98373103294 1.0154642921 1.0471975512 1.0789308103 1.1106640695 
1.1423973286 1.1741305877 1.2058638468 1.237597106 1.2693303651 1.3010636242 1.3327968833 1.3645301425 1.3962634016 
1.4279966607 1.4597299198 1.491463179 1.5231964381 1.5549296972 1.5866629564 1.6183962155 1.6501294746 1.6818627337 
1.7135959929 1.745329252 1.7770625111 1.8087957702 1.8405290294 1.8722622885 1.9039955476 1.9357288068 1.9674620659 
1.999195325 2.0309285841 2.0626618433 2.0943951024 2.1261283615 2.1578616206 2.1895948798 2.2213281389 2.253061398 
2.2847946572 2.3165279163 2.3482611754 2.3799944345 2.4117276937 2.4434609528 2.4751942119 2.506927471 2.5386607302 
2.5703939893 2.6021272484 2.6338605076 2.6655937667 2.6973270258 2.7290602849 2.7607935441 2.7925268032 2.8242600623 
2.8559933214 2.8877265806 2.9194598397 2.9511930988 2.982926358 3.0146596171 3.0463928762 3.0781261353 3.1098593945 
3.1415926536 
_radius 1 100 double
2.5066604165e-16 0.015315645888 0.030518465479 0.045499191321 0.060165586844 0.074446069629 0.088288708589 0.10165611594 0.11451765924 
0.12684084887 0.13858371158 0.14968960031 0.16008539793 0.16968356057 0.17838795066 0.18610293591 0.19274480135 0.19825417594 
0.20260794323 0.20582899127 0.20799215932 0.20922490007 0.20970158515 0.20963113546 0.20923875993 0.20874386244 0.20833721818 
0.20816082037 0.20829315868 0.20874153495 0.20944207095 0.21026765905 0.21104392913 0.21157269303 0.21166085702 0.21115072893 
0.20994613569 0.20802946818 0.2054681035 0.20241187707 0.19908328836 0.1957603782 0.19275217634 0.1903688339 0.18889125094 
0.18854581631 0.18948718209 0.19178770928 0.19543117497 0.20031157926 0.20624023897 0.21296216752 0.22017907546 0.22757514797 
0.23484271682 0.2417058533 0.24794001925 0.25338584229 0.25795550547 0.26163124867 0.26445669238 0.26652268957 0.2679499831 
0.26887110136 0.26941374971 0.26968753223 0.26977522701 0.26972910541 0.26957201019 0.26930217765 0.26890020512 0.26833624613 
0.26757558515 0.26658126637 0.26531335359 0.26372543767 0.26175984828 0.25934339333 0.2563852623 0.25277812457 0.24840268957 
0.24313531386 0.23685776956 0.22946803507 0.22089087354 0.21108697865 0.20005957818 0.18785759497 0.1745747664 0.16034449213 
0.14533060236 0.12971471487 0.11368136843 0.09740261551 0.081024084929 0.064654513177 0.048360283929 0.032165668572 0.016058473171 
8.2711012825e-16 
_area 1 100 double
0 0.00062562603783 0.0024789617189 0.0054932818827 0.0095680912662 0.014578786552 0.020382166638 0.026817368766 0.033705465943 
0.040851313231 0.048048799205 0.055088325394 0.061764902932 0.067886244482 0.073281227364 0.077809225033 0.081370005755 0.083912675679 
0.085441387384 0.086016179765 0.085749332257 0.084799638127 0.083368371676 0.081702962058 0.080194930721 0.079260518031 0.078817340956 
0.079005399617 0.08009301705 0.081892296328 0.084284851138 0.087150633895 0.090337756081 0.093530335949 0.096511169802 0.099044624243 
0.1009540843 0.10213455851 0.10256522025 0.10232669693 0.10160519706 0.10066382341 0.099788345278 0.099246985932 0.099292624499 
0.10026001771 0.1026291043 0.10619467532 0.11079144807 0.11634051836 0.12277354303 0.12999960822 0.13786778771 0.1461390646 
0.15448551286 0.16251988321 0.16984279816 0.17609249042 0.18098755945 0.18435683323 0.18615276938 0.1864485635 0.18542409582 
0.18336746189 0.18078493059 0.17789023745 0.1748959416 0.17183548204 0.16875678472 0.16571742921 0.16274830957 0.15987659839 
0.15713741754 0.15457256231 0.15221188149 0.15003579932 0.14793939247 0.14573373665 0.14317969077 0.1400240039 0.13602990582 
0.13100513944 0.12482695958 0.11746055953 0.10896705604 0.099498870385 0.089283316522 0.078598407625 0.067746814193 0.05703308073 
0.046745841219 0.037143596705 0.028442340783 0.02080548491 0.014338487788 0.0090906104335 0.0050645392493 0.002232410746 0.00055501039081 
7.8096331023e-17 
