# vtk DataFile Version 5.1
vtk output
ASCII
DATASET POLYDATA
POINTS 100 float
-0.0851476 -0.106642 0.750174 -0.0849757 -0.106469 0.749818 -0.0844522 -0.105725 0.74872 
-0.0836263 -0.104397 0.746855 -0.082574 -0.102468 0.744192 -0.0813892 -0.0999206 0.740696 
-0.0801711 -0.0967413 0.736343 -0.0790122 -0.092926 0.731129 -0.0779851 -0.0884831 0.725072 
-0.0771309 -0.0834364 0.718219 -0.076451 -0.0778251 0.710644 -0.0759024 -0.0717027 0.702443 
-0.0753967 -0.0651334 0.693722 -0.0748051 -0.0581873 0.684585 -0.0739664 -0.0509349 0.675121 
-0.0727 -0.0434415 0.665391 -0.0708201 -0.0357623 0.655418 -0.0681528 -0.0279399 0.645178 
-0.0645511 -0.020003 0.634605 -0.0599092 -0.0119681 0.623597 -0.0541727 -0.00384374 0.612021 
-0.0473446 0.00436371 0.599737 -0.0394856 0.012643 0.586608 -0.0307097 0.0209706 0.572524 
-0.0211742 0.029304 0.55741 -0.0110658 0.0375767 0.541242 -0.000584434 0.0456963 0.524048 
0.0100742 0.0535455 0.505905 0.0207347 0.060986 0.486928 0.0312557 0.067866 0.46726 
0.0415389 0.0740303 0.447047 0.0515328 0.0793316 0.426424 0.0612311 0.0836423 0.405492 
0.0706641 0.0868656 0.384308 0.0798872 0.088944 0.362874 0.0889643 0.0898657 0.34114 
0.0979508 0.0896663 0.319008 0.106876 0.0884271 0.296346 0.115731 0.0862693 0.273012 
0.124454 0.0833452 0.24887 0.132933 0.0798266 0.223816 0.141003 0.0758927 0.197796 
0.148455 0.0717173 0.170819 0.155056 0.0674576 0.142969 0.160561 0.0632457 0.114395 
0.164737 0.0591822 0.085311 0.167384 0.0553344 0.0559739 0.168355 0.0517369 0.0266653 
0.167568 0.0483959 -0.0023329 0.165015 0.0452954 -0.0307611 0.160765 0.0424054 -0.0584019 
0.154959 0.0396899 -0.0850951 0.147795 0.0371147 -0.110745 0.139514 0.0346541 -0.135321 
0.130379 0.0322947 -0.158852 0.120654 0.0300379 -0.181414 0.110583 0.0278992 -0.203111 
0.100373 0.0259061 -0.224064 0.0901871 0.0240937 -0.244389 0.0801314 0.0224997 -0.264185 
0.0702605 0.0211595 -0.283525 0.0605823 0.020101 -0.302456 0.0510685 0.0193411 -0.320995 
0.0416686 0.0188833 -0.339138 0.0323249 0.0187171 -0.356871 0.0229864 0.0188188 -0.374176 
0.0136202 0.0191537 -0.391047 0.00421871 0.0196796 -0.40749 -0.0051971 0.0203506 -0.423533 
-0.0145801 0.0211207 -0.43922 -0.0238629 0.0219472 -0.454606 -0.0329671 0.0227937 -0.469751 
-0.0418139 0.0236317 -0.484706 -0.0503348 0.0244411 -0.499501 -0.0584807 0.0252098 -0.514137 
-0.0662275 0.025933 -0.528582 -0.0735784 0.0266113 -0.542761 -0.0805623 0.0272487 -0.556571 
-0.0872273 0.0278511 -0.569878 -0.0936326 0.0284244 -0.582537 -0.0998383 0.0289736 -0.594404 
-0.105895 0.0295019 -0.605353 -0.111833 0.030011 -0.61529 -0.117659 0.0305005 -0.624161 
-0.123353 0.0309693 -0.631963 -0.128867 0.0314155 -0.638738 -0.134132 0.0318373 -0.644574 
-0.139066 0.0322332 -0.649589 -0.143587 0.0326024 -0.65392 -0.14762 0.0329446 -0.657705 
-0.151109 0.0332603 -0.661071 -0.154024 0.0335497 -0.664117 -0.156367 0.0338133 -0.666908 
-0.158168 0.0340511 -0.669471 -0.159485 0.0342629 -0.671795 -0.160395 0.034448 -0.673841 
-0.160983 0.0346056 -0.675551 -0.16133 0.0347349 -0.676858 -0.161505 0.0348356 -0.677704 
-0.161551 0.0349078 -0.678049 
LINES 2 100
OFFSETS vtktypeint64
0 100 
CONNECTIVITY vtktypeint64
0 1 2 3 4 5 6 7 8 
9 10 11 12 13 14 15 16 17 
18 19 20 21 22 23 24 25 26 
27 28 29 30 31 32 33 34 35 
36 37 38 39 40 41 42 43 44 
45 46 47 48 49 50 51 52 53 
54 55 56 57 58 59 60 61 62 
63 64 65 66 67 68 69 70 71 
72 73 74 75 76 77 78 79 80 
81 82 83 84 85 86 87 88 89 
90 91 92 93 94 95 96 97 98 
99 
POINT_DATA 100
FIELD FieldData 3
_theta 1 100 double
0 0.031733259127 0.063466518254 0.095199777382 0.12693303651 0.15866629564 0.19039955476 0.22213281389 0.25386607302 
0.28559933214 0.31733259127 0.3490658504 0.38079910953 0.41253236865 0.44426562778 0.47599888691 0.50773214603 0.53946540516 
0.57119866429 0.60293192342 0.63466518254 0.66639844167 0.6981317008 0.72986495992 0.76159821905 0.79333147818 0.82506473731 
0.85679799643 0.88853125556 0.92026451469 0.95199777382 0.98373103294 1.0154642921 1.0471975512 1.0789308103 1.1106640695 
1.1423973286 1.1741305877 1.2058638468 1.237597106 1.2693303651 1.3010636242 1.3327968833 1.3645301425 1.3962634016 
1.4279966607 1.4597299198 1.491463179 1.5231964381 1.5549296972 1.5866629564 1.6183962155 1.6501294746 1.6818627337 
1.7135959929 1.745329252 1.7770625111 1.8087957702 1.8405290294 1.8722622885 1.9039955476 1.9357288068 1.9674620659 
1.999195325 2.0309285841 2.0626618433 2.0943951024 2.1261283615 2.1578616206 2.1895948798 2.2213281389 2.253061398 
2.2847946572 2.3165279163 2.3482611754 2.3799944345 2.4117276937 2.4434609528 2.4751942119 2.506927471 2.5386607302 
2.5703939893 2.6021272484 2.6338605076 2.6655937667 2.6973270258 2.7290602849 2.7607935441 2.7925268032 2.8242600623 
2.8559933214 2.8877265806 2.9194598397 2.9511930988 2.982926358 3.0146596171 3.0463928762 3.0781261353 3.1098593945 
3.1415926536 
_radius 1 100 double
1.1857187101e-16 0.015314115723 0.030474963381 0.04533919902 0.059796422352 0.073778980423 0.087264345973 0.1002693238 0.11283683364 
0.12501753515 0.13684966508 0.14834084252 0.15945524123 0.17010860486 0.18017229415 0.18948609138 0.19787805995 0.20518859936 
0.21129513326 0.21613370233 0.21971409922 0.22212601246 0.22353483864 0.22416724586 0.22428807003 0.22417151068 0.22407063196 
0.22418960638 0.22466276052 0.22554328391 0.22680271331 0.22834045275 0.23000105317 0.23159599872 0.2329265496 0.2338051695 
0.23407517389 0.23362967268 0.23242942232 0.23051611898 0.22801660436 0.22513535997 0.22213575376 0.21931327631 0.21696583178 
0.21536643702 0.2147419427 0.21525824466 0.21700993714 0.22001240733 0.22419690625 0.22941183437 0.23543360308 0.24198744016 
0.24877478217 0.25550209959 0.26190652354 0.26777524468 0.27295727486 0.27736745304 0.28098352328 0.28383772793 0.2860046453 
0.28758698146 0.28870078793 0.28946125836 0.28997000491 0.29030460103 0.29051115621 0.29060060892 0.29054912095 0.29030236338 
0.28978271222 0.28889770426 0.28754787844 0.28563253768 0.28305290591 0.27971324326 0.27552126931 0.27038944137 0.26423822376 
0.25700165844 0.24863459403 0.23912013197 0.22847542785 0.21675407541 0.20404392444 0.19046023889 0.17613534318 0.16120692079 
0.14580743934 0.13005652284 0.11405677729 0.097892364527 0.081629147217 0.065315518089 0.048983630567 0.032651197411 0.016324117387 
4.4234849038e-16 
_area 1 100 double
0 0.00064489267953 0.0025542795083 0.0056566190683 0.0098454196707 0.014993292884 0.020964140993 0.027620595141 0.034826536335 
0.042446426384 0.050343106495 0.058374469489 0.06638889543 0.074220346213 0.081685560788 0.088586502085 0.094720464669 0.099898249766 
0.10396817952 0.10684131556 0.10851202741 0.10906872251 0.10869205651 0.10764128169 0.10623173588 0.10480563078 0.10369502824 
0.10318347211 0.1035225572 0.10532917241 0.1081677945 0.11157016909 0.11525155295 0.11895773331 0.12244794744 0.12548571611 
0.12784663517 0.12935641398 0.12994810396 0.12971571226 0.12892337054 0.12790327297 0.12694557275 0.12631162194 0.12623555787 
0.12688645564 0.12842280873 0.13107398208 0.13483129059 0.13955553895 0.14523969776 0.15192784703 0.15962202438 0.16822114717 
0.17749748182 0.18710966904 0.19664231295 0.20566108919 0.21377270836 0.22067769349 0.22620427307 0.23031624125 0.23309519363 
0.23470464908 0.23534717851 0.23522486893 0.23450961257 0.2333254911 0.23174290523 0.22978270197 0.22742709398 0.2246331692 
0.22134550276 0.21750612948 0.2130610689 0.20796233267 0.20216457863 0.19561786671 0.18826133418 0.18002429928 0.17083962666 
0.16066916919 0.14953424589 0.13753929776 0.1248780437 0.11181813512 0.098668112718 0.085735834847 0.073289845984 0.061534805033 
0.050607953628 0.040594639088 0.031551850722 0.023527912184 0.016573768129 0.010747533309 0.0061143107186 0.0027413990615 0.00068917210575 
7.5527755255e-17 
