# vtk DataFile Version 5.1
vtk output
ASCII
DATASET POLYDATA
POINTS 100 float
-0.146181 -0.0645872 0.763992 -0.146207 -0.0644932 0.763826 -0.146267 -0.0640151 0.763233 
-0.146318 -0.0631405 0.762162 -0.146292 -0.0618514 0.760536 -0.146103 -0.060125 0.758266 
-0.145652 -0.0579358 0.755259 -0.144839 -0.0552576 0.751433 -0.143567 -0.0520658 0.746727 
-0.14175 -0.0483407 0.741108 -0.139318 -0.0440704 0.734578 -0.136216 -0.0392541 0.727168 
-0.132408 -0.033905 0.718932 -0.127874 -0.0280526 0.709943 -0.122607 -0.0217443 0.700272 
-0.116613 -0.0150454 0.689984 -0.109903 -0.00803805 0.679119 -0.102501 -0.000819118 0.66769 
-0.0944338 0.00650405 0.655674 -0.0857399 0.0138182 0.643014 -0.076468 0.0210098 0.629627 
-0.0666807 0.0279703 0.615411 -0.0564564 0.0346016 0.600259 -0.04589 0.0408206 0.584075 
-0.035092 0.0465612 0.566782 -0.0241849 0.0517766 0.54834 -0.0132973 0.0564383 0.528746 
-0.00255621 0.060534 0.508039 0.0079222 0.0640646 0.486297 0.018042 0.0670399 0.463628 
0.0277357 0.0694739 0.440157 0.0369696 0.0713815 0.416014 0.0457466 0.0727747 0.391319 
0.0541037 0.0736612 0.366173 0.0621056 0.0740445 0.340646 0.0698341 0.0739249 0.314775 
0.0773741 0.0733025 0.288569 0.0847988 0.0721811 0.262009 0.0921543 0.070572 0.235068 
0.0994464 0.0684982 0.207717 0.106633 0.0659969 0.179941 0.113617 0.0631215 0.151753 
0.120257 0.0599409 0.123205 0.126365 0.0565377 0.094388 0.131734 0.0530042 0.0654335 
0.136146 0.0494375 0.0365083 0.139401 0.0459335 0.00780193 0.141333 0.0425811 -0.0204877 
0.141831 0.0394566 -0.0481709 0.140853 0.0366199 -0.075082 0.13843 0.0341124 -0.101093 
0.134666 0.0319558 -0.126124 0.129728 0.0301544 -0.150145 0.123834 0.0286977 -0.173179 
0.11723 0.0275651 -0.19529 0.110164 0.02673 -0.216576 0.102867 0.0261649 -0.237153 
0.0955309 0.0258448 -0.257139 0.0882887 0.0257498 -0.27664 0.0812101 0.025866 -0.29574 
0.0742978 0.0261843 -0.314492 0.0674943 0.026699 -0.332914 0.0606954 0.0274039 -0.350994 
0.0537687 0.0282896 -0.368697 0.0465749 0.0293401 -0.385972 0.0389894 0.0305314 -0.402768 
0.0309215 0.0318302 -0.419041 0.0223294 0.033196 -0.434768 0.0132276 0.0345836 -0.449953 
0.00368932 0.0359476 -0.464627 -0.00616002 0.037248 -0.478846 -0.0161541 0.038455 -0.49269 
-0.0261016 0.0395539 -0.506246 -0.0358051 0.0405485 -0.519599 -0.0450784 0.0414614 -0.532819 
-0.0537634 0.0423334 -0.545954 -0.0617413 0.0432188 -0.559015 -0.0689394 0.0441793 -0.571976 
-0.0753325 0.0452765 -0.584772 -0.0809378 0.0465633 -0.597304 -0.0858069 0.0480757 -0.609448 
-0.0900136 0.0498267 -0.621066 -0.0936419 0.0518021 -0.632016 -0.0967737 0.0539592 -0.64217 
-0.0994796 0.0562296 -0.65142 -0.101813 0.0585248 -0.659689 -0.103807 0.0607446 -0.666938 
-0.105479 0.0627873 -0.673165 -0.106833 0.0645608 -0.678405 -0.107869 0.0659927 -0.682721 
-0.108588 0.0670384 -0.686203 -0.109003 0.0676869 -0.688953 -0.109141 0.067962 -0.691083 
-0.109047 0.0679199 -0.6927 -0.10878 0.0676428 -0.693905 -0.108412 0.06723 -0.694785 
-0.10802 0.0667859 -0.695412 -0.107675 0.066408 -0.695843 -0.107435 0.0661757 -0.696115 
-0.107341 0.0661407 -0.69625 
LINES 2 100
OFFSETS vtktypeint64
0 100 
CONNECTIVITY vtktypeint64
0 1 2 3 4 5 6 7 8 
9 10 11 12 13 14 15 16 17 
18 19 20 21 22 23 24 25 26 
27 28 29 30 31 32 33 34 35 
36 37 38 39 40 41 42 43 44 
45 46 47 48 49 50 51 52 53 
54 55 56 57 58 59 60 61 62 
63 64 65 66 67 68 69 70 71 
72 73 74 75 76 77 78 79 80 
81 82 83 84 85 86 87 88 89 
90 91 92 93 94 95 96 97 98 
99 
POINT_DATA 100
FIELD FieldData 3
_theta 1 100 double
0 0.031733259127 0.063466518254 0.095199777382 0.12693303651 0.15866629564 0.19039955476 0.22213281389 0.25386607302 
0.28559933214 0.31733259127 0.3490658504 0.38079910953 0.41253236865 0.44426562778 0.47599888691 0.50773214603 0.53946540516 
0.57119866429 0.60293192342 0.63466518254 0.66639844167 0.6981317008 0.72986495992 0.76159821905 0.79333147818 0.82506473731 
0.85679799643 0.88853125556 0.92026451469 0.95199777382 0.98373103294 1.0154642921 1.0471975512 1.0789308103 1.1106640695 
1.1423973286 1.1741305877 1.2058638468 1.237597106 1.2693303651 1.3010636242 1.3327968833 1.3645301425 1.3962634016 
1.4279966607 1.4597299198 1.491463179 1.5231964381 1.5549296972 1.5866629564 1.6183962155 1.6501294746 1.6818627337 
1.7135959929 1.745329252 1.7770625111 1.8087957702 1.8405290294 1.8722622885 1.9039955476 1.9357288068 1.9674620659 
1.999195325 2.0309285841 2.0626618433 2.0943951024 2.1261283615 2.1578616206 2.1895948798 2.2213281389 2.253061398 
2.2847946572 2.3165279163 2.3482611754 2.3799944345 2.4117276937 2.4434609528 2.4751942119 2.506927471 2.5386607302 
2.5703939893 2.6021272484 2.6338605076 2.6655937667 2.6973270258 2.7290602849 2.7607935441 2.7925268032 2.8242600623 
2.8559933214 2.8877265806 2.9194598397 2.9511930988 2.982926358 3.0146596171 3.0463928762 3.0781261353 3.1098593945 
3.1415926536 
_radius 1 100 double
9.3754702635e-16 0.015944258341 0.031643909318 0.046875836459 0.061458657677 0.075264857285 0.088224326228 0.10031914248 0.11157111509 
0.12202497551 0.13173074809 0.14072856648 0.14903814114 0.15665367052 0.16354380431 0.16965573379 0.17492261531 0.17927391236 
0.18264828273 0.18500804049 0.18635325948 0.18673288458 0.1862502332 0.18506102801 0.18336334589 0.18138030006 0.17933764091 
0.17743954273 0.1758464186 0.17465845991 0.17390762366 0.17355917048 0.17352213732 0.17366695205 0.17384796099 0.1739285337 
0.17380609302 0.17343381843 0.17283527366 0.17210827905 0.17141539412 0.17096085079 0.17095786366 0.17159473909 0.17300993199 
0.17528224717 0.17843438183 0.18244212905 0.18724192822 0.19273405747 0.1987833155 0.20522120749 0.21185319248 0.21847225471 
0.22487726069 0.23089255258 0.23638463535 0.24127253775 0.24552998328 0.24917935944 0.25227914871 0.25490763384 0.25714612022 
0.25906461251 0.26071197433 0.26211135752 0.26326047966 0.26413552473 0.26469722727 0.26489795309 0.26468895765 0.26402714657 
0.26288050198 0.26123111361 0.25907484 0.25641722988 0.25326632898 0.2496240006 0.24547797471 0.24079675211 0.23552874098 
0.22960587253 0.22295084346 0.21548643081 0.20714517986 0.19787808339 0.18766137671 0.17650099057 0.16443440852 0.15152973547 
0.13788186496 0.12360585977 0.10882804256 0.093675736986 0.078266962956 0.062701549464 0.047055024647 0.031376285448 0.015689496688 
4.8818588369e-16 
_area 1 100 double
0 0.00066929712645 0.0026327055008 0.0057664748107 0.0098929051443 0.014811740727 0.020326888402 0.026261514188 0.032460790551 
0.038786497446 0.045109390562 0.051304024438 0.057247849016 0.062823509797 0.06792178599 0.072442886299 0.076295537569 0.079396141258 
0.081672986735 0.083080010735 0.083618080959 0.083359211789 0.082441316335 0.081161495071 0.079536660782 0.077784307871 0.076123823886 
0.074767053192 0.073918918677 0.073739892199 0.074177308501 0.075050564923 0.076157436219 0.077292479691 0.078267132338 0.078972005075 
0.079379764226 0.079488589429 0.079456334297 0.07954191436 0.080044391365 0.081198840676 0.083075288955 0.085642084963 0.089036585332 
0.093627493135 0.09866827937 0.10395128974 0.10945329548 0.1152425542 0.12143728613 0.1281406666 0.13536217629 0.14296484518 
0.15067378844 0.15814035601 0.1650225443 0.17104807665 0.17604905423 0.17997129739 0.18286661163 0.18487791909 0.18623195918 
0.18722536708 0.18799091124 0.18844984989 0.18852545056 0.18814210288 0.18722004874 0.18568494551 0.18348060932 0.18058073639 
0.17699696698 0.17277983074 0.16800899636 0.16277241308 0.15714043994 0.15114673275 0.14478624046 0.13803094221 0.13085352716 
0.12324692297 0.11523366984 0.10686617997 0.098220887508 0.089387722698 0.080456547897 0.071505517351 0.062598825623 0.053798096153 
0.045182796907 0.036867790213 0.029007229785 0.02178203575 0.015376569227 0.0099541829338 0.0056403012605 0.0025173540967 0.00063063522322 
4.0750407484e-17 
