# vtk DataFile Version 5.1
vtk output
ASCII
DATASET POLYDATA
POINTS 100 float
-0.215452 -0.101192 0.655767 -0.215467 -0.100942 0.655747 -0.215574 -0.100007 0.655645 
-0.215663 -0.0983956 0.655405 -0.215565 -0.0961195 0.654942 -0.215067 -0.0931971 0.654149 
-0.213939 -0.0896521 0.652908 -0.211954 -0.0855132 0.6511 -0.208916 -0.0808135 0.648619 
-0.20468 -0.0755896 0.645377 -0.199162 -0.0698798 0.641312 -0.192351 -0.063723 0.636391 
-0.184304 -0.0571572 0.630609 -0.175143 -0.0502187 0.623987 -0.165037 -0.0429415 0.616562 
-0.154184 -0.0353584 0.608384 -0.142796 -0.0275021 0.599506 -0.131073 -0.0194082 0.589974 
-0.119191 -0.0111183 0.579826 -0.10729 -0.00268404 0.569084 -0.095466 0.00582951 0.557754 
-0.0837694 0.0143409 0.545826 -0.0722108 0.0227507 0.533278 -0.0607688 0.0309421 0.520079 
-0.0494005 0.038783 0.506193 -0.0380538 0.0461317 0.491586 -0.0266778 0.0528428 0.476224 
-0.0152325 0.0587773 0.460082 -0.00369427 0.063811 0.443139 0.00794101 0.067845 0.42538 
0.0196581 0.0708139 0.406791 0.0314248 0.0726926 0.387362 0.0431957 0.0734998 0.367082 
0.0549155 0.0732982 0.345939 0.0665223 0.072191 0.32392 0.0779488 0.0703146 0.301017 
0.0891214 0.067829 0.277228 0.099958 0.0649053 0.252569 0.110364 0.0617132 0.227072 
0.120231 0.0584087 0.2008 0.129428 0.0551235 0.173848 0.137811 0.0519578 0.146344 
0.145215 0.0489763 0.118454 0.151467 0.0462086 0.0903749 0.156394 0.0436536 0.0623265 
0.159835 0.0412867 0.0345431 0.161655 0.0390702 0.00725965 0.16176 0.0369639 -0.0193022 
0.16011 0.0349356 -0.044948 0.156727 0.0329705 -0.0695229 0.151701 0.0310767 -0.0929207 
0.145186 0.0292877 -0.11509 0.137394 0.0276611 -0.136034 0.12858 0.0262726 -0.15581 
0.119027 0.0252079 -0.174518 0.10902 0.0245519 -0.192293 0.0988277 0.0243771 -0.209288 
0.0886823 0.0247333 -0.225665 0.0787628 0.0256384 -0.241577 0.0691856 0.0270733 -0.257161 
0.0600008 0.0289797 -0.272525 0.0511959 0.0312632 -0.287747 0.0427068 0.0337994 -0.302872 
0.034433 0.0364436 -0.317916 0.0262567 0.0390426 -0.332869 0.0180633 0.0414477 -0.347702 
0.00975979 0.0435265 -0.36238 0.00128997 0.0451738 -0.376862 -0.00735553 0.0463184 -0.391113 
-0.0161357 0.0469277 -0.405105 -0.0249622 0.0470074 -0.41882 -0.0337081 0.0465976 -0.432252 
-0.0422213 0.0457669 -0.4454 -0.0503413 0.0446028 -0.458269 -0.0579163 0.0432023 -0.470862 
-0.0648188 0.0416617 -0.483179 -0.0709584 0.0400686 -0.495212 -0.0762897 0.0384947 -0.506945 
-0.0808151 0.0369921 -0.518352 -0.0845821 0.035592 -0.529399 -0.0876761 0.0343061 -0.54005 
-0.090209 0.0331296 -0.550265 -0.0923068 0.0320466 -0.560009 -0.094096 0.031035 -0.569255 
-0.0956916 0.030072 -0.577982 -0.0971882 0.0291386 -0.586182 -0.0986536 0.0282225 -0.593855 
-0.100127 0.0273197 -0.601009 -0.10162 0.0264346 -0.607656 -0.103122 0.0255781 -0.613807 
-0.104605 0.0247659 -0.619471 -0.106032 0.0240154 -0.624647 -0.107365 0.0233429 -0.629329 
-0.108568 0.0227619 -0.633497 -0.10961 0.0222817 -0.637123 -0.110473 0.0219065 -0.640172 
-0.111142 0.0216368 -0.642609 -0.111613 0.0214696 -0.644397 -0.111885 0.0214006 -0.645508 
-0.111957 0.0214255 -0.645919 
LINES 2 100
OFFSETS vtktypeint64
0 100 
CONNECTIVITY vtktypeint64
0 1 2 3 4 5 6 7 8 
9 10 11 12 13 14 15 16 17 
18 19 20 21 22 23 24 25 26 
27 28 29 30 31 32 33 34 35 
36 37 38 39 40 41 42 43 44 
45 46 47 48 49 50 51 52 53 
54 55 56 57 58 59 60 61 62 
63 64 65 66 67 68 69 70 71 
72 73 74 75 76 77 78 79 80 
81 82 83 84 85 86 87 88 89 
90 91 92 93 94 95 96 97 98 
99 
POINT_DATA 100
FIELD FieldData 3
_theta 1 100 double
0 0.031733259127 0.063466518254 0.095199777382 0.12693303651 0.15866629564 0.19039955476 0.22213281389 0.25386607302 
0.28559933214 0.31733259127 0.3490658504 0.38079910953 0.41253236865 0.44426562778 0.47599888691 0.50773214603 0.53946540516 
0.57119866429 0.60293192342 0.63466518254 0.66639844167 0.6981317008 0.72986495992 0.76159821905 0.79333147818 0.82506473731 
0.85679799643 0.88853125556 0.92026451469 0.95199777382 0.98373103294 1.0154642921 1.0471975512 1.0789308103 1.1106640695 
1.1423973286 1.1741305877 1.2058638468 1.237597106 1.2693303651 1.3010636242 1.3327968833 1.3645301425 1.3962634016 
1.4279966607 1.4597299198 1.491463179 1.5231964381 1.5549296972 1.5866629564 1.6183962155 1.6501294746 1.6818627337 
1.7135959929 1.745329252 1.7770625111 1.8087957702 1.8405290294 1.8722622885 1.9039955476 1.9357288068 1.9674620659 
1.999195325 2.0309285841 2.0626618433 2.0943951024 2.1261283615 2.1578616206 2.1895948798 2.2213281389 2.253061398 
2.2847946572 2.3165279163 2.3482611754 2.3799944345 2.4117276937 2.4434609528 2.4751942119 2.506927471 2.5386607302 
2.5703939893 2.6021272484 2.6338605076 2.6655937667 2.6973270258 2.7290602849 2.7607935441 2.7925268032 2.8242600623 
2.8559933214 2.8877265806 2.9194598397 2.9511930988 2.982926358 3.0146596171 3.0463928762 3.0781261353 3.1098593945 
3.1415926536 
_radius 1 100 double
1.00352816e-15 0.014841884756 0.029453710682 0.043610220955 0.057102918837 0.069747793807 0.081392029265 0.091919414871 0.10125426581 
0.10936371389 0.11625825032 0.12199036219 0.1266510452 0.13036395145 0.13327701626 0.13555166955 0.13735021152 0.1388225564 
0.14009410495 0.14125667416 0.14236395841 0.14343199811 0.14444400562 0.14535816826 0.14611699461 0.14665721755 0.14691974461 
0.14685929174 0.14645315128 0.14570826718 0.14466557191 0.14340021974 0.14201548649 0.14062695819 0.13933661396 0.138209959 
0.13727712265 0.13655600104 0.13607615421 0.13589201355 0.13608465132 0.1367527572 0.13799446766 0.13988546821 0.14246195241 
0.14571521246 0.1495981728 0.15403842077 0.15895117734 0.16424797799 0.16983967964 0.17563447769 0.18153291506 0.18742263108 
0.19317588293 0.19865236331 0.20370821009 0.20820980064 0.21204912217 0.21515706852 0.21751181211 0.21914077419 0.22011610938 
0.22054475324 0.22055483073 0.22028053206 0.21984743316 0.21935973981 0.21889027 0.21847351077 0.21810203049 0.21772671245 
0.21726125584 0.21659090998 0.21558460837 0.21410891629 0.21204180803 0.20928436041 0.20576892537 0.20146306046 0.19636924426 
0.19052098772 0.18397625195 0.17680908329 0.16910018698 0.16092697844 0.15235369342 0.14342250737 0.1341471441 0.12451070442 
0.11446898982 0.1039594371 0.092914406923 0.081276554442 0.069013626554 0.056130239158 0.042674810519 0.028740668332 0.014461234979 
1.7624624481e-15 
_area 1 100 double
0 0.00049985283434 0.0019772572049 0.0043677537243 0.0075692193401 0.011446221151 0.015832192994 0.020530617713 0.025319223532 
0.029961462972 0.034226820192 0.037917441946 0.04089529801 0.043102805507 0.044570985088 0.045412489791 0.045801310482 0.045945333498 
0.046059644561 0.046333384681 0.046859234712 0.04759893683 0.048459999822 0.049358802138 0.050235045916 0.051045989988 0.051753747696 
0.052314675646 0.052677115351 0.052790121057 0.052623138879 0.052190028959 0.05156337275 0.050863796563 0.050213877161 0.049679953968 
0.049275304518 0.049029403805 0.049029874904 0.049409016375 0.050309412069 0.051845010336 0.054063322894 0.056934450107 0.060352358616 
0.064119639326 0.068001542836 0.07183518802 0.07559832343 0.079446644099 0.083681651359 0.088555104268 0.09412096146 0.10025510011 
0.10668552359 0.11303781765 0.11889725427 0.12387482655 0.12766663127 0.13009381721 0.13111706349 0.13082854109 0.12942575362 
0.12717288453 0.12436570113 0.12130290555 0.11820969322 0.1152621629 0.11264034029 0.11060038282 0.10915428255 0.10809075761 
0.10716828752 0.10617028805 0.10489547957 0.10317641227 0.10089410866 0.097982210004 0.094424419224 0.090248162379 0.085514461405 
0.080305972832 0.074717411747 0.06885096056 0.062815280878 0.056723808568 0.050688392957 0.04480770364 0.039154014744 0.03376479187 
0.028645144771 0.023782699603 0.019170051032 0.014826565808 0.01081251016 0.0072315323461 0.0042204998549 0.0019286206055 0.00049054924574 
1.7074942423e-17 
