# vtk DataFile Version 5.1
vtk output
ASCII
DATASET POLYDATA
POINTS 100 float
-0.113046 -0.00722614 0.735632 -0.112737 -0.00738585 0.735654 -0.111888 -0.00766946 0.735719 
-0.110538 -0.00803669 0.735708 -0.108746 -0.00842412 0.735439 -0.10658 -0.00874965 0.734684 
-0.104108 -0.00891841 0.733197 -0.101388 -0.00882955 0.730743 -0.0984555 -0.0083834 0.727117 
-0.0953206 -0.00748869 0.722173 -0.0919609 -0.00606909 0.715829 -0.0883239 -0.00406882 0.708079 
-0.0843317 -0.00145682 0.698986 -0.079889 0.00177071 0.688667 -0.0748948 0.00558951 0.677281 
-0.0692548 0.00994829 0.665 -0.0628942 0.0147713 0.651993 -0.0557681 0.0199626 0.638402 
-0.0478696 0.025411 0.624325 -0.0392336 0.030996 0.609814 -0.0299353 0.036594 0.594869 
-0.0200848 0.0420846 0.579445 -0.00981779 0.0473554 0.563465 0.000717251 0.0523075 0.546834 
0.0113727 0.0568586 0.529461 0.0220156 0.0609455 0.51127 0.0325385 0.0645246 0.492217 
0.0428686 0.0675725 0.472295 0.0529702 0.0700836 0.451537 0.0628438 0.0720681 0.43001 
0.0725196 0.073549 0.407807 0.0820463 0.074558 0.385029 0.0914777 0.0751328 0.361777 
0.100857 0.0753126 0.338131 0.110204 0.075136 0.314145 0.1195 0.0746382 0.289837 
0.128681 0.0738496 0.265195 0.137635 0.0727953 0.240177 0.146203 0.0714949 0.214725 
0.15419 0.0699635 0.188782 0.161376 0.0682134 0.162306 0.167534 0.0662552 0.135283 
0.172449 0.0641003 0.107747 0.175939 0.0617625 0.0797759 0.17787 0.0592593 0.0515022 
0.178169 0.0566129 0.0231009 0.176835 0.0538509 -0.00522023 0.173934 0.0510055 -0.0332374 
0.169602 0.0481132 -0.0607296 0.164026 0.0452129 -0.0874978 0.157437 0.0423445 -0.113382 
0.150081 0.0395469 -0.138272 0.142207 0.036856 -0.162116 0.134043 0.0343036 -0.184921 
0.125782 0.0319156 -0.206743 0.117568 0.0297121 -0.227679 0.109491 0.0277073 -0.247852 
0.101586 0.0259099 -0.267389 0.0938389 0.024325 -0.286411 0.0861962 0.0229549 -0.305019 
0.0785798 0.0218016 -0.32328 0.0709031 0.020868 -0.341229 0.0630862 0.0201593 -0.358868 
0.0550711 0.0196837 -0.376171 0.0468316 0.0194529 -0.393097 0.0383802 0.019481 -0.409602 
0.029769 0.0197834 -0.425645 0.0210858 0.0203747 -0.441205 0.012446 0.0212663 -0.456278 
0.00398109 0.0224641 -0.470889 -0.00417466 0.0239656 -0.485079 -0.0118975 0.0257585 -0.498904 
-0.0190864 0.0278191 -0.512424 -0.0256714 0.030112 -0.525693 -0.0316195 0.032591 -0.538745 
-0.0369349 0.0352004 -0.551588 -0.0416554 0.0378781 -0.564203 -0.0458452 0.0405587 -0.576535 
-0.0495849 0.0431774 -0.588507 -0.0529597 0.0456737 -0.60002 -0.0560482 0.0479952 -0.610969 
-0.0589126 0.0501006 -0.621256 -0.0615914 0.0519616 -0.630798 -0.0640964 0.053564 -0.63954 
-0.0664127 0.0549075 -0.64746 -0.0685033 0.0560047 -0.654572 -0.0703166 0.0568785 -0.660923 
-0.0717967 0.0575592 -0.666584 -0.0728933 0.0580815 -0.671643 -0.0735726 0.058481 -0.676192 
-0.0738253 0.058791 -0.680313 -0.073672 0.0590401 -0.68407 -0.0731647 0.0592507 -0.687501 
-0.0723843 0.0594384 -0.690615 -0.0714344 0.0596116 -0.693395 -0.0704321 0.0597732 -0.695799 
-0.0694961 0.0599213 -0.697773 -0.0687352 0.060052 -0.699258 -0.0682364 0.0601604 -0.700203 
-0.068056 0.0602427 -0.700572 
LINES 2 100
OFFSETS vtktypeint64
0 100 
CONNECTIVITY vtktypeint64
0 1 2 3 4 5 6 7 8 
9 10 11 12 13 14 15 16 17 
18 19 20 21 22 23 24 25 26 
27 28 29 30 31 32 33 34 35 
36 37 38 39 40 41 42 43 44 
45 46 47 48 49 50 51 52 53 
54 55 56 57 58 59 60 61 62 
63 64 65 66 67 68 69 70 71 
72 73 74 75 76 77 78 79 80 
81 82 83 84 85 86 87 88 89 
90 91 92 93 94 95 96 97 98 
99 
POINT_DATA 100
FIELD FieldData 3
_theta 1 100 double
0 0.031733259127 0.063466518254 0.095199777382 0.12693303651 0.15866629564 0.19039955476 0.22213281389 0.25386607302 
0.28559933214 0.31733259127 0.3490658504 0.38079910953 0.41253236865 0.44426562778 0.47599888691 0.50773214603 0.53946540516 
0.57119866429 0.60293192342 0.63466518254 0.66639844167 0.6981317008 0.72986495992 0.76159821905 0.79333147818 0.82506473731 
0.85679799643 0.88853125556 0.92026451469 0.95199777382 0.98373103294 1.0154642921 1.0471975512 1.0789308103 1.1106640695 
1.1423973286 1.1741305877 1.2058638468 1.237597106 1.2693303651 1.3010636242 1.3327968833 1.3645301425 1.3962634016 
1.4279966607 1.4597299198 1.491463179 1.5231964381 1.5549296972 1.5866629564 1.6183962155 1.6501294746 1.6818627337 
1.7135959929 1.745329252 1.7770625111 1.8087957702 1.8405290294 1.8722622885 1.9039955476 1.9357288068 1.9674620659 
1.999195325 2.0309285841 2.0626618433 2.0943951024 2.1261283615 2.1578616206 2.1895948798 2.2213281389 2.253061398 
2.2847946572 2.3165279163 2.3482611754 2.3799944345 2.4117276937 2.4434609528 2.4751942119 2.506927471 2.5386607302 
2.5703939893 2.6021272484 2.6338605076 2.6655937667 2.6973270258 2.7290602849 2.7607935441 2.7925268032 2.8242600623 
2.8559933214 2.8877265806 2.9194598397 2.9511930988 2.982926358 3.0146596171 3.0463928762 3.0781261353 3.1098593945 
3.1415926536 
_radius 1 100 double
3.9280284105e-16 0.016877892807 0.03355263773 0.049826162036 0.0655245267 0.080504435192 0.094654654452 0.1078933022 0.12016284352 
0.13142470924 0.14165486282 0.15084082934 0.1589800489 0.16607910839 0.17215342581 0.1772271887 0.1813336381 0.1845160221 
0.18682961346 0.18834495742 0.18915186386 0.1893627008 0.18911280692 0.18855596724 0.18785410921 0.18716225822 0.18661157667 
0.18629428356 0.18625399902 0.18648361717 0.18693071908 0.18750861123 0.18811000508 0.18862053413 0.18893080473 0.18894786622 
0.18860812071 0.18789201968 0.18683727474 0.18554509554 0.18417523676 0.1829295743 0.18202843081 0.18168645253 0.18209341877 
0.18340073105 0.18571068348 0.18906616605 0.19344177933 0.19873971517 0.20479340491 0.21137986013 0.21823948174 0.22510060525 
0.23170523153 0.23783227811 0.24331527699 0.24805255372 0.25200923527 0.25521165336 0.25773563064 0.25969066417 0.26120217264 
0.26239385803 0.26337198662 0.26421310548 0.26495637425 0.26560123221 0.26611047331 0.26641799245 0.26643965301 0.26608514816 
0.26526861031 0.26391615646 0.26196944435 0.25938538567 0.25613306852 0.252189411 0.24753503103 0.24215140559 0.23601982345 
0.22912209899 0.22144263079 0.21297120097 0.2037059059 0.1936557248 0.18284239497 0.17130140334 0.15908198273 0.14624601842 
0.13286577901 0.11902047026 0.10479182745 0.090259271256 0.075495408559 0.060562703027 0.045511898904 0.030382343471 0.015203913742 
1.4447249727e-15 
_area 1 100 double
0 0.00062827863985 0.0024924908367 0.0055367359392 0.0096810557686 0.014825334204 0.02084113767 0.027558328576 0.034756522923 
0.042167541714 0.049490367208 0.056416901064 0.062664465604 0.068009008933 0.072311584379 0.075530703645 0.077715577309 0.078980591285 
0.079469249621 0.07932358192 0.078676701545 0.077679075149 0.076586754361 0.075546631457 0.074590068752 0.073849858551 0.073472406149 
0.073560297182 0.074144712171 0.075192043348 0.076625365538 0.078342024821 0.080226308355 0.082154966618 0.08399114771 0.085576064813 
0.086745359541 0.087378900497 0.087468972764 0.087190562571 0.08689105437 0.086796318271 0.086919612624 0.087340531635 0.088253165524 
0.089907133661 0.092450819711 0.095900756038 0.1002808934 0.10563602698 0.11198832583 0.11927808066 0.127312731 0.13576836722 
0.14424271903 0.15232204523 0.15963969553 0.16592027689 0.17100608685 0.1748637636 0.17757244367 0.17929818796 0.1802613686 
0.18070380422 0.18086048515 0.18093389929 0.18105704773 0.18124197375 0.18136119163 0.18119765443 0.18052022723 0.17914017329 
0.17694133781 0.17388756667 0.17001080209 0.16538545164 0.16009778958 0.15421953205 0.14779234493 0.14082796895 0.13332449655 
0.12529011023 0.11676083811 0.10780551249 0.0985202966 0.089018972504 0.079424270306 0.069862457494 0.060460522187 0.051344371512 
0.042637252203 0.034458395873 0.026921902169 0.020135606515 0.014199673987 0.0092048452881 0.0052303730335 0.0023417044624 0.00058803161933 
4.9763618998e-17 
