# vtk DataFile Version 5.1
vtk output
ASCII
DATASET POLYDATA
POINTS 100 float
-0.176803 0.0172495 0.754154 -0.176402 0.0172106 0.753814 -0.175274 0.0172787 0.752907 
-0.173441 0.0174374 0.751387 -0.170939 0.0176614 0.749181 -0.167807 0.0179229 0.746199 
-0.164087 0.0181986 0.74235 -0.159817 0.0184767 0.737551 -0.155024 0.0187632 0.731741 
-0.149723 0.0190853 0.724888 -0.143914 0.0194928 0.716996 -0.137587 0.0200554 0.708099 
-0.130721 0.0208573 0.698262 -0.123294 0.0219893 0.687569 -0.11529 0.0235382 0.676113 
-0.106702 0.0255767 0.663985 -0.0975446 0.0281531 0.65126 -0.0878575 0.0312831 0.637991 
-0.0777067 0.0349448 0.624207 -0.067185 0.0390769 0.609909 -0.0564079 0.0435804 0.595074 
-0.0455061 0.0483248 0.579667 -0.0346157 0.0531568 0.563646 -0.0238662 0.0579108 0.546976 
-0.0133694 0.0624208 0.529637 -0.00320769 0.0665317 0.51163 0.00657351 0.0701094 0.492981 
0.0159706 0.0730479 0.47374 0.0250219 0.0752741 0.453971 0.0338024 0.0767488 0.433747 
0.0424144 0.0774654 0.413137 0.0509738 0.0774451 0.392193 0.0595941 0.0767315 0.370939 
0.0683685 0.0753837 0.349367 0.0773542 0.0734699 0.327432 0.0865579 0.0710619 0.305054 
0.095927 0.0682309 0.28213 0.105346 0.0650454 0.258545 0.114639 0.0615709 0.234189 
0.123579 0.0578707 0.208974 0.131904 0.0540078 0.182851 0.139335 0.050047 0.155823 
0.145599 0.0460571 0.127953 0.150454 0.0421112 0.099366 0.153707 0.0382864 0.0702439 
0.15523 0.0346617 0.0408137 0.154976 0.0313149 0.0113314 0.15298 0.0283182 -0.017938 
0.149356 0.0257335 -0.0467414 0.144284 0.0236083 -0.0748564 0.138 0.0219717 -0.102108 
0.130768 0.0208326 -0.128376 0.12286 0.0201796 -0.153604 0.114533 0.019982 -0.17779 
0.106006 0.0201934 -0.200984 0.097449 0.020756 -0.223268 0.0889696 0.0216063 -0.244745 
0.0806121 0.0226797 -0.265521 0.0723623 0.0239163 -0.285691 0.0641584 0.0252638 -0.305325 
0.055907 0.0266803 -0.324465 0.0475019 0.0281346 -0.343122 0.0388431 0.0296057 -0.361283 
0.0298543 0.0310806 -0.378916 0.0204961 0.0325516 -0.395983 0.0107745 0.0340136 -0.412452 
0.000742357 0.0354614 -0.428307 -0.00950507 0.0368881 -0.443554 -0.0198401 0.038285 -0.458226 
-0.030117 0.0396418 -0.472381 -0.0401886 0.0409484 -0.486095 -0.0499227 0.0421974 -0.499454 
-0.0592168 0.0433859 -0.512539 -0.0680086 0.0445177 -0.525417 -0.0762809 0.045604 -0.538127 
-0.084061 0.0466631 -0.550672 -0.0914135 0.0477178 -0.563016 -0.098429 0.0487926 -0.575088 
-0.105208 0.049909 -0.586784 -0.111845 0.0510804 -0.59798 -0.118411 0.0523077 -0.608548 
-0.124942 0.053576 -0.618365 -0.13143 0.0548523 -0.627333 -0.137819 0.0560868 -0.635388 
-0.144012 0.0572153 -0.642505 -0.149876 0.0581654 -0.648703 -0.155263 0.0588632 -0.654039 
-0.160023 0.0592427 -0.658605 -0.164026 0.059254 -0.66251 -0.167178 0.0588714 -0.665873 
-0.169437 0.0580994 -0.668806 -0.170819 0.0569755 -0.671402 -0.171401 0.0555699 -0.673728 
-0.171315 0.0539815 -0.675823 -0.170737 0.0523304 -0.677693 -0.169869 0.0507476 -0.679321 
-0.168917 0.0493636 -0.680669 -0.168072 0.0482954 -0.681696 -0.167485 0.0476363 -0.682361 
-0.167255 0.0474456 -0.682634 
LINES 2 100
OFFSETS vtktypeint64
0 100 
CONNECTIVITY vtktypeint64
0 1 2 3 4 5 6 7 8 
9 10 11 12 13 14 15 16 17 
18 19 20 21 22 23 24 25 26 
27 28 29 30 31 32 33 34 35 
36 37 38 39 40 41 42 43 44 
45 46 47 48 49 50 51 52 53 
54 55 56 57 58 59 60 61 62 
63 64 65 66 67 68 69 70 71 
72 73 74 75 76 77 78 79 80 
81 82 83 84 85 86 87 88 89 
90 91 92 93 94 95 96 97 98 
99 
POINT_DATA 100
FIELD FieldData 3
_theta 1 100 double
0 0.031733259127 0.063466518254 0.095199777382 0.12693303651 0.15866629564 0.19039955476 0.22213281389 0.25386607302 
0.28559933214 0.31733259127 0.3490658504 0.38079910953 0.41253236865 0.44426562778 0.47599888691 0.50773214603 0.53946540516 
0.57119866429 0.60293192342 0.63466518254 0.66639844167 0.6981317008 0.72986495992 0.76159821905 0.79333147818 0.82506473731 
0.85679799643 0.88853125556 0.92026451469 0.95199777382 0.98373103294 1.0154642921 1.0471975512 1.0789308103 1.1106640695 
1.1423973286 1.1741305877 1.2058638468 1.237597106 1.2693303651 1.3010636242 1.3327968833 1.3645301425 1.3962634016 
1.4279966607 1.4597299198 1.491463179 1.5231964381 1.5549296972 1.5866629564 1.6183962155 1.6501294746 1.6818627337 
1.7135959929 1.745329252 1.7770625111 1.8087957702 1.8405290294 1.8722622885 1.9039955476 1.9357288068 1.9674620659 
1.999195325 2.0309285841 2.0626618433 2.0943951024 2.1261283615 2.1578616206 2.1895948798 2.2213281389 2.253061398 
2.2847946572 2.3165279163 2.3482611754 2.3799944345 2.4117276937 2.4434609528 2.4751942119 2.506927471 2.5386607302 
2.5703939893 2.6021272484 2.6338605076 2.6655937667 2.6973270258 2.7290602849 2.7607935441 2.7925268032 2.8242600623 
2.8559933214 2.8877265806 2.9194598397 2.9511930988 2.982926358 3.0146596171 3.0463928762 3.0781261353 3.1098593945 
3.1415926536 
_radius 1 100 double
1.8074753115e-15 0.016133956711 0.032076397579 0.047651868796 0.062708077602 0.077119430429 0.090784649267 0.10362052363 0.11555490886 
0.12652173543 0.13645944579 0.14531279311 0.15303706868 0.15960380521 0.1650074923 0.16927312774 0.17246390051 0.17468710613 
0.17609555615 0.17688220066 0.17726734731 0.17747986594 0.17773529606 0.17821443262 0.17904572522 0.18029389766 0.18195588727 
0.18396382028 0.18619362335 0.18847743372 0.19061840722 0.19240748325 0.19364232842 0.19414824435 0.19379933622 0.19253690724 
0.19038193345 0.18743931977 0.18389263288 0.17998893534 0.1760147003 0.17226613789 0.16902007022 0.16651238908 0.16492793173 
0.16439969958 0.16501098004 0.16679397658 0.16972281362 0.17370485587 0.17857806219 0.18412016816 0.19006930636 0.19615066751 
0.20210306931 0.20770128955 0.21277216882 0.2172038288 0.22094808147 0.22401659362 0.22647180353 0.22841398192 0.22996611599 
0.23125837977 0.23241377857 0.23353615377 0.23470122248 0.23595084769 0.23729040375 0.23868896874 0.24008210388 0.24137703295 
0.24245994716 0.24320487457 0.24348319074 0.2431726102 0.24216451193 0.24036873354 0.23771547195 0.23415456632 0.2296530539 
0.22419226692 0.21776569408 0.21037832241 0.20204737118 0.19280354411 0.18269149319 0.17176833623 0.16009984078 0.14775503545 
0.13480093273 0.12129909226 0.10730486113 0.09286899586 0.078040712023 0.062871119843 0.047416185275 0.031738579461 0.015908018986 
2.9970268441e-16 
_area 1 100 double
0 0.00065808462017 0.0025939142385 0.0056986006603 0.0098086143399 0.01472309113 0.020215186747 0.02603592973 0.031916651479 
0.037579356715 0.042759938032 0.047240269965 0.050878621107 0.053627186549 0.055530014669 0.056701230879 0.05729001489 0.057445258052 
0.057298804286 0.056971583168 0.056584135991 0.056249813911 0.05608940801 0.056371485125 0.057108800518 0.058305255189 0.059999166447 
0.062224816971 0.064985927865 0.06822562407 0.0718021806 0.075496246635 0.07903973978 0.082148810841 0.084556331064 0.086039738027 
0.086452578042 0.085771050536 0.084127988282 0.081808049904 0.07922243423 0.076771293733 0.075057532552 0.074329732602 0.074318979745 
0.07479403397 0.075839556139 0.077991481604 0.081400552291 0.085763334541 0.090954252223 0.09682112342 0.1031328117 0.10960179296 
0.11592929153 0.12184696094 0.12713858191 0.13164218151 0.13524883896 0.13790985927 0.1396496076 0.14057269541 0.1408430482 
0.14062770759 0.14007076199 0.13931534539 0.13849306438 0.13770959672 0.13703269033 0.13648336018 0.13603034844 0.13558896483 
0.13502849938 0.13419051969 0.1329147892 0.13106612822 0.12855591281 0.12535272165 0.12147664693 0.11697543097 0.11189161256 
0.10624070038 0.10001609714 0.093216930094 0.085879446567 0.078094301555 0.070003994491 0.061784764981 0.053621471846 0.045683891703 
0.03811045715 0.031003055168 0.024434813223 0.018468125009 0.01317303953 0.0086360116229 0.0049567664629 0.0022368660972 0.000564556569 
6.6349046261e-17 
