# vtk DataFile Version 5.1
vtk output
ASCII
DATASET POLYDATA
POINTS 100 float
0.0119076 -0.00451719 0.731922 0.0116956 -0.00463594 0.732079 0.0110432 -0.00471615 0.732456 
0.00999261 -0.00470743 0.732927 0.00861074 -0.0045343 0.733299 0.00698522 -0.00410501 0.733331 
0.00521933 -0.00332227 0.73276 0.00342637 -0.00209454 0.731325 0.00172412 -0.000346707 0.72879 
0.000229745 0.00197139 0.724967 -0.000944481 0.00487916 0.719732 -0.00169465 0.00836298 0.713024 
-0.00192782 0.0123774 0.704853 -0.00156394 0.0168493 0.695286 -0.000537462 0.0216852 0.684433 
0.0012012 0.0267785 0.672431 0.0036841 0.0320185 0.659425 0.00692402 0.037298 0.645551 
0.0109126 0.0425186 0.630918 0.0156188 0.0475951 0.615606 0.0209878 0.0524559 0.59966 
0.0269412 0.057043 0.58309 0.0333784 0.0613083 0.565888 0.0401805 0.0652109 0.54803 
0.0472162 0.068713 0.529498 0.0543487 0.0717777 0.510286 0.0614454 0.074367 0.49041 
0.0683877 0.0764432 0.469917 0.0750796 0.0779706 0.448883 0.0814566 0.0789196 0.427406 
0.08749 0.0792715 0.4056 0.093189 0.0790229 0.383576 0.0985979 0.0781897 0.361435 
0.103789 0.076809 0.33925 0.108852 0.074939 0.317056 0.11388 0.072656 0.294847 
0.118953 0.0700493 0.272571 0.124124 0.0672145 0.250137 0.129405 0.064245 0.227426 
0.134755 0.0612243 0.204305 0.14008 0.0582192 0.180644 0.145232 0.0552752 0.156334 
0.150017 0.0524149 0.131301 0.154207 0.0496397 0.105521 0.157563 0.0469345 0.0790205 
0.159853 0.0442753 0.0518857 0.160873 0.0416382 0.0242515 0.160467 0.0390089 -0.0037057 
0.158546 0.0363911 -0.0317826 0.15509 0.0338123 -0.0597648 0.150157 0.0313268 -0.0874433 
0.143875 0.029014 -0.114629 0.13643 0.0269729 -0.141165 0.128046 0.0253131 -0.166932 
0.118968 0.0241425 -0.191855 0.109435 0.0235546 -0.215898 0.0996625 0.0236154 -0.239061 
0.0898224 0.0243528 -0.261371 0.080034 0.025749 -0.282875 0.0703582 0.0277381 -0.303626 
0.0608005 0.0302087 -0.323683 0.0513208 0.0330113 -0.343098 0.0418474 0.0359703 -0.361919 
0.0322955 0.0388993 -0.380186 0.0225849 0.041618 -0.397934 0.0126573 0.0439681 -0.415198 
0.00248923 0.045828 -0.432013 -0.00790099 0.047123 -0.44842 -0.0184516 0.0478309 -0.464464 
-0.0290629 0.0479822 -0.480196 -0.0396076 0.0476543 -0.495666 -0.0499451 0.0469624 -0.510922 
-0.059938 0.046045 -0.526001 -0.069467 0.0450495 -0.540923 -0.0784442 0.0441164 -0.555686 
-0.0868212 0.0433653 -0.570258 -0.0945916 0.0428847 -0.584584 -0.101788 0.0427252 -0.598577 
-0.108474 0.0428975 -0.612131 -0.114731 0.0433747 -0.625127 -0.120642 0.0440992 -0.63744 
-0.126281 0.0449916 -0.648953 -0.131696 0.0459614 -0.659564 -0.136902 0.0469185 -0.669198 
-0.141878 0.0477823 -0.677812 -0.14657 0.04849 -0.685397 -0.150896 0.0490005 -0.691979 
-0.154763 0.049297 -0.697615 -0.158078 0.0493848 -0.702385 -0.160766 0.0492879 -0.706387 
-0.162783 0.0490438 -0.709721 -0.164126 0.0486974 -0.71249 -0.164838 0.0482951 -0.714782 
-0.165008 0.0478801 -0.716675 -0.164762 0.0474894 -0.718226 -0.164249 0.0471517 -0.719476 
-0.163628 0.0468872 -0.72045 -0.163049 0.0467091 -0.721161 -0.162631 0.0466248 -0.721614 
-0.162454 0.0466376 -0.721809 
LINES 2 100
OFFSETS vtktypeint64
0 100 
CONNECTIVITY vtktypeint64
0 1 2 3 4 5 6 7 8 
9 10 11 12 13 14 15 16 17 
18 19 20 21 22 23 24 25 26 
27 28 29 30 31 32 33 34 35 
36 37 38 39 40 41 42 43 44 
45 46 47 48 49 50 51 52 53 
54 55 56 57 58 59 60 61 62 
63 64 65 66 67 68 69 70 71 
72 73 74 75 76 77 78 79 80 
81 82 83 84 85 86 87 88 89 
90 91 92 93 94 95 96 97 98 
99 
POINT_DATA 100
FIELD FieldData 3
_theta 1 100 double
0 0.031733259127 0.063466518254 0.095199777382 0.12693303651 0.15866629564 0.19039955476 0.22213281389 0.25386607302 
0.28559933214 0.31733259127 0.3490658504 0.38079910953 0.41253236865 0.44426562778 0.47599888691 0.50773214603 0.53946540516 
0.57119866429 0.60293192342 0.63466518254 0.66639844167 0.6981317008 0.72986495992 0.76159821905 0.79333147818 0.82506473731 
0.85679799643 0.88853125556 0.92026451469 0.95199777382 0.98373103294 1.0154642921 1.0471975512 1.0789308103 1.1106640695 
1.1423973286 1.1741305877 1.2058638468 1.237597106 1.2693303651 1.3010636242 1.3327968833 1.3645301425 1.3962634016 
1.4279966607 1.4597299198 1.491463179 1.5231964381 1.5549296972 1.5866629564 1.6183962155 1.6501294746 1.6818627337 
1.7135959929 1.745329252 1.7770625111 1.8087957702 1.8405290294 1.8722622885 1.9039955476 1.9357288068 1.9674620659 
1.999195325 2.0309285841 2.0626618433 2.0943951024 2.1261283615 2.1578616206 2.1895948798 2.2213281389 2.253061398 
2.2847946572 2.3165279163 2.3482611754 2.3799944345 2.4117276937 2.4434609528 2.4751942119 2.506927471 2.5386607302 
2.5703939893 2.6021272484 2.6338605076 2.6655937667 2.6973270258 2.7290602849 2.7607935441 2.7925268032 2.8242600623 
2.8559933214 2.8877265806 2.9194598397 2.9511930988 2.982926358 3.0146596171 3.0463928762 3.0781261353 3.1098593945 
3.1415926536 
_radius 1 100 double
4.4411377313e-16 0.014776011558 0.029360707159 0.043575290191 0.057270857167 0.070332666132 0.0826774695 0.094247515932 0.10500446946 
0.11492462433 0.12399542093 0.13221298867 0.13958068088 0.14610869795 0.1518146741 0.15672472513 0.16087438584 0.16430933353 
0.16708640253 0.16927547719 0.17096217707 0.17225021804 0.17326158853 0.17413270745 0.17500565729 0.17601510623 0.17727299515 
0.17885381945 0.18078318288 0.18303168298 0.18551564475 0.18810530151 0.19063894052 0.19293959923 0.19483125015 0.19615340749 
0.19677453676 0.19660469615 0.19560696489 0.19380616582 0.1912927245 0.18821952276 0.18479043689 0.1812410345 0.17781459472 
0.17473917788 0.172211584 0.17039035795 0.16939484921 0.16930477752 0.17015621662 0.17193380822 0.17456313438 0.17790938733 
0.1817870686 0.18598078097 0.19027222709 0.1944663719 0.19841089972 0.20200600826 0.20520448206 0.2080040193 0.21043479622 
0.2125453682 0.21438944267 0.21601515276 0.21745762744 0.21873516845 0.21984910632 0.22078702855 0.22152832555 0.22205018662 
0.2223319131 0.2223560366 0.22210596739 0.22156110345 0.22069095987 0.21944985126 0.21777332187 0.21557723442 0.21276021053 
0.20920971817 0.20481140336 0.19946044259 0.19307306821 0.18559622792 0.17701365122 0.16734733306 0.15665441905 0.14502041556 
0.13255025938 0.11935889422 0.10556269574 0.091272635266 0.076589677383 0.061602568965 0.046387824643 0.031011376891 0.015531166503 
1.2438213051e-15 
_area 1 100 double
0 0.000584768168 0.0023221278484 0.0051660425492 0.0090469992884 0.013862319486 0.019452178247 0.025584844474 0.031967684376 
0.03827821809 0.044201052759 0.049460834322 0.053847966019 0.057237665865 0.059602552255 0.061015001612 0.061630957997 0.061647079714 
0.061237840409 0.060540642027 0.060226128709 0.060105142843 0.059980062949 0.059774954873 0.05961831125 0.059632920087 0.060011181466 
0.060909207746 0.062419819021 0.064590321223 0.067421189896 0.070858934121 0.074779001097 0.07894963838 0.083035363262 0.086671607109 
0.089541622836 0.091424697078 0.092227408405 0.092003474318 0.090963946751 0.089478524585 0.088003840902 0.086821072946 0.085917598484 
0.085240251325 0.084854474431 0.084752401676 0.08502969802 0.085798050225 0.08718465139 0.089332506798 0.092193054683 0.095705311799 
0.099777508073 0.10423609137 0.10883592822 0.11329797913 0.11734674607 0.12073970183 0.1232937511 0.12490785056 0.12557437644 
0.12537507824 0.1244636932 0.12303973098 0.12131764108 0.11949559199 0.1177287669 0.1161114068 0.11466962867 0.11336772992 
0.11213161545 0.11088290575 0.10956718009 0.10816352201 0.10666738654 0.10505408037 0.10325149665 0.10113751522 0.098557635487 
0.095354767872 0.091400189478 0.086617228579 0.080995651316 0.074597478865 0.067554177456 0.060054226638 0.052321261232 0.044586596845 
0.037063969657 0.029934760394 0.023346241062 0.017417667582 0.012246957551 0.0079144179443 0.0044838123899 0.0020024783702 0.00050201168061 
9.4427465648e-17 
