# vtk DataFile Version 5.1
vtk output
ASCII
DATASET POLYDATA
POINTS 100 float
-0.0388163 -0.0453463 0.842443 -0.0389777 -0.0451529 0.841784 -0.0394213 -0.044363 0.839823 
-0.0400935 -0.0429838 0.836621 -0.0409082 -0.0410277 0.832274 -0.0417529 -0.0385121 0.826908 
-0.0424951 -0.0354588 0.82066 -0.0429914 -0.0318933 0.813673 -0.0430949 -0.0278441 0.806078 
-0.0426643 -0.0233422 0.797989 -0.0415712 -0.0184208 0.789486 -0.0397059 -0.0131152 0.780619 
-0.0369824 -0.00746263 0.771398 -0.0333413 -0.00150341 0.761797 -0.0287514 0.0047187 0.751759 
-0.023209 0.0111553 0.741206 -0.016737 0.0177523 0.73004 -0.00938247 0.0244488 0.71816 
-0.00121344 0.0311765 0.70547 0.00768436 0.03786 0.691884 0.0172113 0.0444166 0.677336 
0.0272575 0.0507588 0.661783 0.0377069 0.0567961 0.645207 0.0484406 0.0624388 0.627614 
0.0593412 0.0676017 0.609031 0.0702959 0.0722087 0.589506 0.0812003 0.0761972 0.569097 
0.0919617 0.0795216 0.547872 0.102501 0.0821568 0.525899 0.112757 0.0840988 0.503247 
0.122682 0.0853653 0.47998 0.132249 0.0859932 0.456151 0.141443 0.0860351 0.431808 
0.150261 0.0855538 0.406988 0.158708 0.0846164 0.381719 0.166792 0.0832878 0.356022 
0.174516 0.0816244 0.329914 0.181871 0.0796693 0.303407 0.188837 0.0774492 0.276512 
0.195372 0.0749734 0.249242 0.201411 0.0722351 0.221614 0.206872 0.0692162 0.193651 
0.211651 0.0658924 0.165386 0.21563 0.062241 0.13686 0.218687 0.0582489 0.10813 
0.220699 0.0539196 0.0792654 0.221558 0.0492793 0.0503499 0.221173 0.0443806 0.0214807 
0.219488 0.0393029 -0.00723401 0.216479 0.03415 -0.0356777 0.212166 0.0290442 -0.0637302 
0.20661 0.0241181 -0.0912731 0.199913 0.0195044 -0.118196 0.192212 0.0153246 -0.144401 
0.183671 0.0116794 -0.169812 0.174475 0.00863942 -0.194375 0.164814 0.00623939 -0.218063 
0.154879 0.00447615 -0.240879 0.144845 0.00330999 -0.26285 0.134871 0.00267007 -0.284031 
0.125087 0.00246301 -0.304493 0.115596 0.00258382 -0.324321 0.106472 0.00292774 -0.343603 
0.0977598 0.00340177 -0.362429 0.089482 0.00393451 -0.380875 0.0816429 0.00448302 -0.399006 
0.0742343 0.005036 -0.416868 0.0672414 0.00561288 -0.434488 0.0606482 0.00625896 -0.451872 
0.0544407 0.00703721 -0.469011 0.04861 0.00801783 -0.485883 0.0431528 0.0092668 -0.502456 
0.0380712 0.010835 -0.518694 0.0333713 0.0127494 -0.534561 0.0290605 0.0150066 -0.550023 
0.0251462 0.0175717 -0.565047 0.0216328 0.0203792 -0.579602 0.0185206 0.02334 -0.593657 
0.0158049 0.0263496 -0.607179 0.0134758 0.0292999 -0.620124 0.0115191 0.0320901 -0.632442 
0.00991719 0.0346379 -0.64407 0.00865048 0.036888 -0.654933 0.0076985 0.0388168 -0.664949 
0.0070408 0.0404339 -0.674031 0.0066573 0.0417792 -0.682097 0.0065279 0.0429159 -0.689077 
0.00663169 0.043921 -0.694922 0.0069457 0.0448744 -0.699614 0.00744356 0.0458475 -0.703172 
0.00809428 0.0468932 -0.705655 0.0088616 0.0480387 -0.707167 0.00970392 0.0492816 -0.707849 
0.0105752 0.0505901 -0.707873 0.0114267 0.0519074 -0.707435 0.0122094 0.0531591 -0.706736 
0.0128771 0.0542631 -0.705968 0.0133894 0.0551407 -0.705303 0.0137149 0.0557272 -0.704872 
0.0138339 0.0559801 -0.704761 
LINES 2 100
OFFSETS vtktypeint64
0 100 
CONNECTIVITY vtktypeint64
0 1 2 3 4 5 6 7 8 
9 10 11 12 13 14 15 16 17 
18 19 20 21 22 23 24 25 26 
27 28 29 30 31 32 33 34 35 
36 37 38 39 40 41 42 43 44 
45 46 47 48 49 50 51 52 53 
54 55 56 57 58 59 60 61 62 
63 64 65 66 67 68 69 70 71 
72 73 74 75 76 77 78 79 80 
81 82 83 84 85 86 87 88 89 
90 91 92 93 94 95 96 97 98 
99 
POINT_DATA 100
FIELD FieldData 3
_theta 1 100 double
0 0.031733259127 0.063466518254 0.095199777382 0.12693303651 0.15866629564 0.19039955476 0.22213281389 0.25386607302 
0.28559933214 0.31733259127 0.3490658504 0.38079910953 0.41253236865 0.44426562778 0.47599888691 0.50773214603 0.53946540516 
0.57119866429 0.60293192342 0.63466518254 0.66639844167 0.6981317008 0.72986495992 0.76159821905 0.79333147818 0.82506473731 
0.85679799643 0.88853125556 0.92026451469 0.95199777382 0.98373103294 1.0154642921 1.0471975512 1.0789308103 1.1106640695 
1.1423973286 1.1741305877 1.2058638468 1.237597106 1.2693303651 1.3010636242 1.3327968833 1.3645301425 1.3962634016 
1.4279966607 1.4597299198 1.491463179 1.5231964381 1.5549296972 1.5866629564 1.6183962155 1.6501294746 1.6818627337 
1.7135959929 1.745329252 1.7770625111 1.8087957702 1.8405290294 1.8722622885 1.9039955476 1.9357288068 1.9674620659 
1.999195325 2.0309285841 2.0626618433 2.0943951024 2.1261283615 2.1578616206 2.1895948798 2.2213281389 2.253061398 
2.2847946572 2.3165279163 2.3482611754 2.3799944345 2.4117276937 2.4434609528 2.4751942119 2.506927471 2.5386607302 
2.5703939893 2.6021272484 2.6338605076 2.6655937667 2.6973270258 2.7290602849 2.7607935441 2.7925268032 2.8242600623 
2.8559933214 2.8877265806 2.9194598397 2.9511930988 2.982926358 3.0146596171 3.0463928762 3.0781261353 3.1098593945 
3.1415926536 
_radius 1 100 double
1.1145945947e-15 0.013119932324 0.026241354296 0.039356509227 0.052454134386 0.065512990827 0.078492425589 0.091322726318 0.10389870917 
0.11607926995 0.12769398911 0.13855607242 0.14847953314 0.15729782207 0.16488106095 0.17114948878 0.17608152306 0.17971578805 
0.1821473824 0.18351937249 0.18401089287 0.18382330067 0.18316567857 0.18224078327 0.18123242309 0.18029520744 0.17954750895 
0.17906816962 0.17889694911 0.17903811134 0.17946612288 0.18013236787 0.1809720593 0.18191096284 0.18287190831 0.18378117587 
0.18457469322 0.18520371339 0.18563944936 0.18587608564 0.18593161144 0.18584608019 0.18567741257 0.18549576171 0.18537824653 
0.18540570116 0.18566164857 0.18623179814 0.18720148534 0.18864946164 0.19063867014 0.19320650618 0.19635737307 0.20005926014 
0.2042446521 0.20881512895 0.21364864392 0.21860843224 0.22355258839 0.22834344975 0.23285602533 0.23698483416 0.24064868417 
0.24379311995 0.24639047571 0.24843768118 0.2499521784 0.2509664936 0.25152212485 0.25166340585 0.25143187508 0.25086145177 
0.24997447137 0.2487784586 0.24726350015 0.24540025195 0.24313891823 0.24040981562 0.23712619673 0.23318973244 0.22849847745 
0.22295646879 0.21648359642 0.20902422995 0.20055331607 0.19107916805 0.18064277986 0.16931405656 0.15718575299 0.14436610147 
0.13097108687 0.1171171398 0.10291475193 0.088463271025 0.073846984167 0.059132570475 0.044368055056 0.029583436754 0.01479310795 
5.4478838591e-16 
_area 1 100 double
0 0.00050946793167 0.0020246414353 0.0045084922354 0.0079066887903 0.012154085428 0.017176769848 0.022887071309 0.029172899136 
0.035886440919 0.042837574645 0.049794851656 0.056494848153 0.062660118765 0.068025210125 0.072367886903 0.075539546143 0.077486879206 
0.078258220711 0.077992655777 0.076895408161 0.075206544661 0.073170742303 0.071016063341 0.068960344846 0.06736520449 0.066436128518 
0.06602898872 0.066196505009 0.066804695164 0.067818756949 0.069194693653 0.070893650862 0.072899724069 0.075172524171 0.077630329096 
0.080164802564 0.082665030648 0.085036676128 0.087214946657 0.089173336118 0.090923413947 0.092496691529 0.093914206642 0.095166028047 
0.096220822807 0.097066211087 0.097760273638 0.098456738771 0.099366899493 0.10069049867 0.10258786807 0.10518023539 0.1085356978 
0.11264889508 0.11743774552 0.12275821541 0.12842302391 0.13421689531 0.13991137185 0.14528230511 0.15012827609 0.15428832525 
0.15766432903 0.16025901047 0.16220434314 0.16379609021 0.16490927017 0.16546343531 0.16550869422 0.16511295487 0.16432793266 
0.16318614713 0.161700379 0.15986275586 0.15764584831 0.15500422174 0.15187500783 0.14817797267 0.14381731848 0.13868827026 
0.13269056471 0.12574826668 0.11783210289 0.10897846411 0.099299497904 0.08898112414 0.078269159298 0.067446648312 0.056807114558 
0.046628636825 0.037152839789 0.028571521816 0.021022027385 0.014590747272 0.0093225736715 0.0052332383398 0.0023215719193 0.00057965735976 
4.4331545687e-17 
