# vtk DataFile Version 5.1
vtk output
ASCII
DATASET POLYDATA
POINTS 100 float
0.124247 0.0404339 0.724252 0.123967 0.0405134 0.72394 0.123249 0.0406348 0.722894 
0.12219 0.0407947 0.721108 0.120933 0.0409907 0.718574 0.119658 0.0412255 0.715285 
0.118554 0.0415098 0.711233 0.117799 0.0418653 0.706414 0.11754 0.0423267 0.70083 
0.11787 0.04294 0.694486 0.118819 0.0437601 0.687398 0.120348 0.0448452 0.679591 
0.122347 0.046249 0.6711 0.124646 0.0480125 0.66197 0.127026 0.0501557 0.652255 
0.129243 0.0526699 0.642019 0.131042 0.0555128 0.63133 0.132183 0.0586073 0.62026 
0.132456 0.0618434 0.608878 0.131699 0.0650844 0.597252 0.129806 0.0681772 0.585441 
0.126732 0.0709642 0.573493 0.122488 0.0732979 0.561444 0.117142 0.0750544 0.549317 
0.110801 0.0761455 0.53712 0.103604 0.076528 0.524849 0.095705 0.0762081 0.512489 
0.0872619 0.0752412 0.500017 0.0784252 0.0737265 0.487405 0.0693291 0.0717976 0.474621 
0.0600863 0.0696087 0.461634 0.0507853 0.06732 0.448414 0.0414904 0.0650822 0.434931 
0.032244 0.0630227 0.421155 0.0230702 0.0612353 0.407054 0.0139787 0.059774 0.392591 
0.00496963 0.0586517 0.377722 -0.00396271 0.0578443 0.362393 -0.0128257 0.0572988 0.346536 
-0.0216252 0.0569453 0.330073 -0.0303625 0.05671 0.312914 -0.0390313 0.056529 0.294963 
-0.0476148 0.0563597 0.276121 -0.0560825 0.0561895 0.256294 -0.0643877 0.0560393 0.235404 
-0.072465 0.0559629 0.213391 -0.0802287 0.0560413 0.190227 -0.0875731 0.0563724 0.165917 
-0.0943742 0.0570587 0.140507 -0.100494 0.0581924 0.114081 -0.105786 0.0598424 0.0867641 
-0.110106 0.0620423 0.0587109 -0.11332 0.064782 0.0301025 -0.115315 0.0680052 0.00113484 
-0.116011 0.0716099 -0.0279927 -0.115369 0.0754558 -0.0570879 -0.113396 0.0793747 -0.0859761 
-0.110149 0.0831841 -0.114508 -0.105729 0.0867026 -0.142567 -0.100282 0.0897644 -0.170069 
-0.0939802 0.0922325 -0.196962 -0.0870157 0.0940086 -0.223224 -0.079581 0.0950377 -0.248855 
-0.0718558 0.0953099 -0.273871 -0.0639929 0.0948555 -0.298293 -0.0561084 0.0937379 -0.322142 
-0.0482757 0.0920426 -0.345429 -0.0405242 0.0898647 -0.368156 -0.0328446 0.0872971 -0.390308 
-0.0251972 0.0844191 -0.411856 -0.0175245 0.0812883 -0.432762 -0.00976588 0.0779356 -0.452979 
-0.00187133 0.0743647 -0.472461 0.00618563 0.0705545 -0.491165 0.0143994 0.0664656 -0.509058 
0.0227279 0.0620491 -0.526119 0.0310938 0.0572568 -0.542341 0.0393912 0.0520509 -0.557732 
0.0474954 0.0464138 -0.57231 0.0552773 0.0403546 -0.586102 0.0626177 0.0339135 -0.599135 
0.0694213 0.0271619 -0.611437 0.0756275 0.0202006 -0.623027 0.0812174 0.0131532 -0.633915 
0.0862151 0.0061584 -0.644099 0.0906836 -0.000639965 -0.653567 0.0947157 -0.00710301 -0.662299 
0.0984207 -0.0131068 -0.670272 0.101909 -0.0185504 -0.677462 0.105277 -0.0233627 -0.683855 
0.108593 -0.0275051 -0.689446 0.111887 -0.0309728 -0.694243 0.115144 -0.0337916 -0.698274 
0.11831 -0.0360136 -0.701579 0.121292 -0.0377096 -0.704213 0.123973 -0.0389605 -0.706239 
0.126227 -0.0398485 -0.70772 0.127933 -0.0404481 -0.708717 0.128991 -0.0408181 -0.709277 
0.129336 -0.0409956 -0.709434 
LINES 2 100
OFFSETS vtktypeint64
0 100 
CONNECTIVITY vtktypeint64
0 1 2 3 4 5 6 7 8 
9 10 11 12 13 14 15 16 17 
18 19 20 21 22 23 24 25 26 
27 28 29 30 31 32 33 34 35 
36 37 38 39 40 41 42 43 44 
45 46 47 48 49 50 51 52 53 
54 55 56 57 58 59 60 61 62 
63 64 65 66 67 68 69 70 71 
72 73 74 75 76 77 78 79 80 
81 82 83 84 85 86 87 88 89 
90 91 92 93 94 95 96 97 98 
99 
POINT_DATA 100
FIELD FieldData 3
_theta 1 100 double
0 0.031733259127 0.063466518254 0.095199777382 0.12693303651 0.15866629564 0.19039955476 0.22213281389 0.25386607302 
0.28559933214 0.31733259127 0.3490658504 0.38079910953 0.41253236865 0.44426562778 0.47599888691 0.50773214603 0.53946540516 
0.57119866429 0.60293192342 0.63466518254 0.66639844167 0.6981317008 0.72986495992 0.76159821905 0.79333147818 0.82506473731 
0.85679799643 0.88853125556 0.92026451469 0.95199777382 0.98373103294 1.0154642921 1.0471975512 1.0789308103 1.1106640695 
1.1423973286 1.1741305877 1.2058638468 1.237597106 1.2693303651 1.3010636242 1.3327968833 1.3645301425 1.3962634016 
1.4279966607 1.4597299198 1.491463179 1.5231964381 1.5549296972 1.5866629564 1.6183962155 1.6501294746 1.6818627337 
1.7135959929 1.745329252 1.7770625111 1.8087957702 1.8405290294 1.8722622885 1.9039955476 1.9357288068 1.9674620659 
1.999195325 2.0309285841 2.0626618433 2.0943951024 2.1261283615 2.1578616206 2.1895948798 2.2213281389 2.253061398 
2.2847946572 2.3165279163 2.3482611754 2.3799944345 2.4117276937 2.4434609528 2.4751942119 2.506927471 2.5386607302 
2.5703939893 2.6021272484 2.6338605076 2.6655937667 2.6973270258 2.7290602849 2.7607935441 2.7925268032 2.8242600623 
2.8559933214 2.8877265806 2.9194598397 2.9511930988 2.982926358 3.0146596171 3.0463928762 3.0781261353 3.1098593945 
3.1415926536 
_radius 1 100 double
6.9444428004e-16 0.015531562916 0.030842319308 0.045721605732 0.05997254843 0.073422160824 0.08593356667 0.097418642657 0.10784862498 
0.11725986322 0.12575192851 0.13347603118 0.14061371811 0.1473490811 0.15384078218 0.16020084403 0.16648461755 0.17269242649 
0.17878038236 0.1846764505 0.19029762542 0.19556476167 0.20041308078 0.20479815261 0.20869843908 0.21211575572 0.2150743464 
0.21761825562 0.21980596731 0.22170129573 0.22336039855 0.22481633884 0.2260643214 0.22705176568 0.22767695892 0.22779798747 
0.22725085652 0.2258735349 0.22353178559 0.22014279345 0.2156932643 0.21024961898 0.20395908688 0.19704173576 0.18977443757 
0.18246827401 0.17544118745 0.16898852249 0.16335599468 0.15872140264 0.15518997332 0.15280207076 0.15154532871 0.15136276503 
0.15215436365 0.15377566195 0.15603899977 0.15872176233 0.16158263081 0.1643835497 0.16691354999 0.16901035559 0.17057599119 
0.17158352085 0.17207367584 0.17214206844 0.17191947986 0.17154903002 0.17116447685 0.17087301663 0.17074399955 0.17080317816 
0.17103153768 0.17136816615 0.17171710328 0.17195804061 0.17196005557 0.17159665496 0.17075978804 0.16937041442 0.16738366842 
0.16478756074 0.16159538747 0.15783337998 0.1535262803 0.14868404578 0.14329251364 0.13730972269 0.13066818452 0.12328225785 
0.11505917242 0.10591210128 0.095773757573 0.084609101048 0.072425828969 0.059281451216 0.04528599137 0.03059975422 0.015426130729 
3.4726115627e-16 
_area 1 100 double
0 0.00041960018504 0.0016851831017 0.003805790786 0.0067669832469 0.010507693814 0.014912633983 0.019823279418 0.025062526415 
0.030464688264 0.035902582802 0.041305276293 0.046662614935 0.0520159545 0.057438168579 0.063008416713 0.0687868801 0.074793137692 
0.080992325406 0.087295798611 0.093581240007 0.099726244138 0.10563804708 0.11126470998 0.11659012679 0.12162490206 0.12639561063 
0.13092929691 0.13523671055 0.13930055085 0.14307125302 0.14646913681 0.14938993508 0.1517107051 0.15329428387 0.15399176568 
0.15364372249 0.15208231243 0.14914174723 0.14469189207 0.13869760029 0.13127651869 0.12272020862 0.11346428679 0.10402138667 
0.094911544325 0.086614838522 0.079532136951 0.073917243227 0.069789394127 0.066940129928 0.06507496078 0.063944259267 0.063395845669 
0.063363647289 0.063800154964 0.064596816288 0.065559099021 0.066446021431 0.067044459102 0.067238283425 0.067005568069 0.066265510806 
0.064959280754 0.063175463499 0.061082491236 0.058876557765 0.056752244561 0.054890379348 0.053441905629 0.052505428744 0.052115837212 
0.05222578796 0.052725711577 0.053476606065 0.054332179718 0.055154721829 0.055827860973 0.056267335222 0.056429003891 0.056311000858 
0.055937068135 0.055303738405 0.054343879967 0.052968693035 0.051105715273 0.048703891342 0.045734828497 0.042197301902 0.038122829091 
0.033580539259 0.028680450458 0.023574366672 0.018453179393 0.013539135773 0.0090722852215 0.0052917977084 0.0024144218435 0.00061325465654 
3.1572432532e-17 
