# vtk DataFile Version 5.1
vtk output
ASCII
DATASET POLYDATA
POINTS 100 float
0.137614 0.0571106 0.729627 0.137676 0.0572527 0.729392 0.137916 0.0575687 0.728545 
0.138276 0.0580538 0.727111 0.138663 0.0587003 0.72513 0.138958 0.0594969 0.722642 
0.139031 0.0604284 0.719682 0.138754 0.0614749 0.716266 0.138007 0.0626106 0.712385 
0.136695 0.0638032 0.708 0.134752 0.0650129 0.703047 0.132145 0.0661918 0.697441 
0.128871 0.0672842 0.691088 0.124958 0.0682274 0.6839 0.120453 0.0689536 0.67581 
0.115416 0.0693928 0.666785 0.109909 0.0694774 0.656837 0.103992 0.0691467 0.646027 
0.0977096 0.0683528 0.634466 0.0910922 0.0670663 0.622299 0.0841537 0.0652813 0.6097 
0.0768938 0.0630195 0.596845 0.069303 0.0603325 0.583896 0.0613689 0.0573017 0.57098 
0.0530833 0.0540352 0.558173 0.0444488 0.0506631 0.545492 0.0354832 0.047329 0.532892 
0.0262221 0.0441808 0.52027 0.0167175 0.0413598 0.507484 0.00703431 0.0389893 0.494368 
-0.00275657 0.037165 0.480756 -0.0125862 0.035947 0.466507 -0.0223966 0.0353544 0.451522 
-0.0321491 0.0353642 0.435759 -0.0418303 0.0359133 0.41924 -0.0514551 0.036905 0.402047 
-0.0610662 0.0382183 0.384309 -0.070729 0.0397197 0.366183 -0.080523 0.0412766 0.347833 
-0.09053 0.0427701 0.3294 -0.10082 0.0441064 0.310979 -0.111437 0.0452264 0.292604 
-0.122386 0.0461103 0.274232 -0.133624 0.0467792 0.255747 -0.145051 0.0472918 0.23697 
-0.15651 0.047737 0.217675 -0.167792 0.0482243 0.197617 -0.178645 0.0488705 0.176563 
-0.188789 0.0497873 0.154321 -0.19793 0.0510683 0.130765 -0.205785 0.0527788 0.10586 
-0.212097 0.0549482 0.0796643 -0.216654 0.057566 0.0523349 -0.219305 0.0605826 0.0241117 
-0.219968 0.0639136 -0.00470247 -0.218637 0.0674467 -0.0337702 -0.215379 0.0710523 -0.0627509 
-0.210329 0.0745949 -0.0913313 -0.203677 0.0779437 -0.119252 -0.195657 0.0809833 -0.146328 
-0.186525 0.0836217 -0.172455 -0.176548 0.0857949 -0.197614 -0.16598 0.0874698 -0.221859 
-0.155055 0.0886421 -0.245297 -0.143968 0.0893331 -0.268069 -0.132875 0.0895835 -0.290327 
-0.121883 0.0894462 -0.312204 -0.111056 0.0889793 -0.333802 -0.100416 0.0882391 -0.355178 
-0.0899484 0.0872751 -0.37634 -0.079616 0.0861266 -0.397252 -0.0693647 0.0848213 -0.417842 
-0.0591351 0.0833764 -0.438021 -0.0488715 0.0818011 -0.457696 -0.03853 0.0801002 -0.476786 
-0.0280842 0.0782787 -0.495237 -0.0175294 0.0763453 -0.513024 -0.00688408 0.0743167 -0.530155 
0.00381024 0.0722189 -0.546663 0.0144913 0.0700882 -0.562592 0.0250799 0.06797 -0.577986 
0.0354841 0.0659167 -0.592869 0.0456051 0.0639837 -0.607236 0.0553427 0.0622255 -0.62104 
0.0646006 0.060691 -0.634193 0.0732918 0.0594197 -0.64657 0.0813422 0.0584383 -0.65802 
0.0886949 0.0577584 -0.668381 0.0953114 0.0573758 -0.677508 0.101173 0.0572704 -0.685287 
0.106282 0.0574084 -0.691658 0.110656 0.0577441 -0.696626 0.114331 0.0582236 -0.700266 
0.117353 0.0587881 -0.702723 0.119775 0.0593778 -0.704197 0.121657 0.0599355 -0.704923 
0.123051 0.0604094 -0.705147 0.124008 0.0607564 -0.705099 0.124566 0.0609438 -0.704967 
0.124749 0.0609512 -0.704872 
LINES 2 100
OFFSETS vtktypeint64
0 100 
CONNECTIVITY vtktypeint64
0 1 2 3 4 5 6 7 8 
9 10 11 12 13 14 15 16 17 
18 19 20 21 22 23 24 25 26 
27 28 29 30 31 32 33 34 35 
36 37 38 39 40 41 42 43 44 
45 46 47 48 49 50 51 52 53 
54 55 56 57 58 59 60 61 62 
63 64 65 66 67 68 69 70 71 
72 73 74 75 76 77 78 79 80 
81 82 83 84 85 86 87 88 89 
90 91 92 93 94 95 96 97 98 
99 
POINT_DATA 100
FIELD FieldData 3
_theta 1 100 double
0 0.031733259127 0.063466518254 0.095199777382 0.12693303651 0.15866629564 0.19039955476 0.22213281389 0.25386607302 
0.28559933214 0.31733259127 0.3490658504 0.38079910953 0.41253236865 0.44426562778 0.47599888691 0.50773214603 0.53946540516 
0.57119866429 0.60293192342 0.63466518254 0.66639844167 0.6981317008 0.72986495992 0.76159821905 0.79333147818 0.82506473731 
0.85679799643 0.88853125556 0.92026451469 0.95199777382 0.98373103294 1.0154642921 1.0471975512 1.0789308103 1.1106640695 
1.1423973286 1.1741305877 1.2058638468 1.237597106 1.2693303651 1.3010636242 1.3327968833 1.3645301425 1.3962634016 
1.4279966607 1.4597299198 1.491463179 1.5231964381 1.5549296972 1.5866629564 1.6183962155 1.6501294746 1.6818627337 
1.7135959929 1.745329252 1.7770625111 1.8087957702 1.8405290294 1.8722622885 1.9039955476 1.9357288068 1.9674620659 
1.999195325 2.0309285841 2.0626618433 2.0943951024 2.1261283615 2.1578616206 2.1895948798 2.2213281389 2.253061398 
2.2847946572 2.3165279163 2.3482611754 2.3799944345 2.4117276937 2.4434609528 2.4751942119 2.506927471 2.5386607302 
2.5703939893 2.6021272484 2.6338605076 2.6655937667 2.6973270258 2.7290602849 2.7607935441 2.7925268032 2.8242600623 
2.8559933214 2.8877265806 2.9194598397 2.9511930988 2.982926358 3.0146596171 3.0463928762 3.0781261353 3.1098593945 
3.1415926536 
_radius 1 100 double
2.00005116e-15 0.014027656764 0.028015296484 0.041919909521 0.055696640014 0.069296731668 0.082664744146 0.095735958685 0.10843509941 
0.12067728492 0.13237165132 0.14342755884 0.15376279698 0.16331269077 0.17203848616 0.17993307361 0.18702233593 0.19336133409 
0.19902593115 0.20410173634 0.20867284401 0.21281250015 0.21657683701 0.22000180377 0.22310291 0.22587745158 0.22830911182 
0.23037473009 0.232052479 0.23333005157 0.23421116509 0.23471882552 0.23489423586 0.234790927 0.23446468356 0.23396102372 
0.23330300387 0.23248247944 0.23145736777 0.23015601931 0.22848795925 0.22635863216 0.22368493434 0.22040854093 0.21650519788 
0.2119897234 0.20691777678 0.20138600508 0.1955318338 0.18953311058 0.18360640087 0.1780013885 0.17298805679 0.16883385657 
0.16577088197 0.1639585151 0.16345270036 0.1641935051 0.16601504991 0.16867189114 0.171871705 0.17530647445 0.17867857083 
0.18172103825 0.18421291902 0.18599100162 0.18695878492 0.18709202651 0.18643913088 0.18511472658 0.18328596163 0.18115265693 
0.17892388907 0.1767943902 0.17492406357 0.17342287213 0.17234176093 0.17166893261 0.17133042832 0.17119454694 0.17108037815 
0.17077078838 0.17002939438 0.16861988085 0.16632514668 0.16296359752 0.15840044167 0.15255285446 0.1453890552 0.13692242016 
0.1272025221 0.11630529618 0.10432433826 0.091364715852 0.077539795973 0.062970704097 0.047787349904 0.032129646112 0.016147667812 
1.9055156409e-15 
_area 1 100 double
0 0.00048557029383 0.0019362570295 0.0043333933388 0.0076442838947 0.011820947734 0.016799716595 0.022501543097 0.028831855129 
0.035678470315 0.042907197097 0.050357281664 0.057841515219 0.065156292082 0.072103650469 0.07852158697 0.08431407175 0.089470797136 
0.094069608932 0.098260831159 0.102237715 0.10619673033 0.1102916472 0.11459312207 0.11906861241 0.12358751786 0.1279473608 
0.13191475639 0.13527314689 0.13786816303 0.13964629903 0.14068573931 0.14115188408 0.14126263338 0.14115777452 0.14092312988 
0.14062535481 0.14025064136 0.13970514511 0.13883939289 0.13749070285 0.13552980096 0.13289403295 0.12959548685 0.1257048921 
0.12132348862 0.11655641888 0.11149308068 0.10619282446 0.10068650585 0.09502136768 0.089330288946 0.083860004022 0.078940141763 
0.074884799869 0.071917111051 0.07023965994 0.069954821101 0.070854465371 0.072583513256 0.074825014925 0.077310986741 0.079798053875 
0.082048473023 0.083827515802 0.084924996564 0.085193794316 0.084584603165 0.083159705833 0.081082302585 0.078587581557 0.075942813141 
0.07340394116 0.07118021253 0.069416908974 0.068194744185 0.067534141901 0.067395719447 0.067683017432 0.068254587882 0.068937119966 
0.069531657049 0.069817441782 0.069562070561 0.068542599028 0.066575798553 0.063549783061 0.05944659867 0.054348335516 0.048426002231 
0.041916329902 0.035094148272 0.028247074763 0.021656339141 0.015584219094 0.010266184639 0.0059052177064 0.0026666320038 0.00067304135431 
2.8622937354e-17 
