# vtk DataFile Version 5.1
vtk output
ASCII
DATASET POLYDATA
POINTS 100 float
0.151588 0.0521591 0.724971 0.151726 0.0523612 0.724657 0.152203 0.052828 0.72355 
0.152956 0.0535455 0.721709 0.153884 0.0544911 0.719222 0.154862 0.0556336 0.716197 
0.155749 0.0569347 0.71274 0.156401 0.0583496 0.708941 0.156687 0.0598279 0.704861 
0.156495 0.0613158 0.700521 0.155745 0.0627566 0.695899 0.154386 0.0640932 0.69093 
0.152404 0.0652693 0.685521 0.149811 0.0662314 0.679556 0.146646 0.0669308 0.67292 
0.14296 0.0673254 0.665513 0.138811 0.0673815 0.657264 0.134252 0.0670756 0.648147 
0.129325 0.0663954 0.638179 0.124058 0.0653413 0.627425 0.118461 0.063927 0.615989 
0.112525 0.0621788 0.603999 0.106233 0.0601357 0.591594 0.099559 0.0578481 0.578904 
0.0924786 0.0553755 0.566038 0.0849766 0.0527846 0.553065 0.0770516 0.0501462 0.540016 
0.0687208 0.0475325 0.526877 0.0600213 0.0450142 0.513597 0.0510081 0.0426572 0.500102 
0.0417497 0.0405207 0.486303 0.0323221 0.038655 0.47212 0.0228002 0.0371005 0.457493 
0.0132504 0.0358872 0.44239 0.0037235 0.0350346 0.426818 -0.00575029 0.0345529 0.410821 
-0.0151629 0.0344441 0.394468 -0.0245271 0.0347035 0.377848 -0.0338717 0.035321 0.361047 
-0.0432337 0.036283 0.344132 -0.0526485 0.0375733 0.327137 -0.0621393 0.0391735 0.31005 
-0.0717072 0.0410635 0.292803 -0.0813227 0.043221 0.275281 -0.0909209 0.0456209 0.257326 
-0.1004 0.0482345 0.238754 -0.109623 0.0510288 0.219379 -0.11843 0.0539656 0.199032 
-0.126642 0.0570018 0.177586 -0.13408 0.0600895 0.154977 -0.140576 0.0631773 0.131212 
-0.145992 0.0662119 0.106379 -0.150225 0.0691405 0.0806363 -0.153224 0.0719134 0.0542055 
-0.154986 0.0744866 0.027348 -0.155563 0.0768242 0.000341262 -0.155052 0.0789007 -0.0265472 
-0.153584 0.0807016 -0.0530842 -0.151315 0.0822242 -0.0790904 -0.148407 0.0834762 -0.104453 
-0.145014 0.0844741 -0.12913 -0.141266 0.08524 -0.153146 -0.137261 0.0857984 -0.176577 
-0.133058 0.086172 -0.199535 -0.128671 0.0863784 -0.222146 -0.124076 0.0864267 -0.244526 
-0.11922 0.0863149 -0.266764 -0.114027 0.0860294 -0.288905 -0.108419 0.0855448 -0.310947 
-0.102325 0.0848263 -0.332838 -0.0956967 0.0838322 -0.354484 -0.0885203 0.082519 -0.375765 
-0.0808225 0.0808461 -0.396547 -0.0726732 0.0787815 -0.416702 -0.0641829 0.076307 -0.436123 
-0.0554951 0.0734227 -0.454735 -0.0467755 0.0701508 -0.4725 -0.0381972 0.0665368 -0.489413 
-0.0299265 0.0626497 -0.505499 -0.0221075 0.0585804 -0.520796 -0.0148506 0.054437 -0.535341 
-0.00822341 0.0503401 -0.549156 -0.00224649 0.0464153 -0.562234 0.00310555 0.0427861 -0.574531 
0.00789849 0.0395659 -0.585967 0.0122285 0.0368506 -0.59643 0.0162092 0.0347118 -0.60579 
0.0199567 0.0331919 -0.613917 0.0235753 0.0323011 -0.6207 0.0271442 0.0320156 -0.626073 
0.0307077 0.0322794 -0.630025 0.0342694 0.0330071 -0.632617 0.037791 0.0340894 -0.633985 
0.0411967 0.0353998 -0.634329 0.0443808 0.0368032 -0.633907 0.04722 0.0381643 -0.633005 
0.0495866 0.0393567 -0.631915 0.0513632 0.0402714 -0.630903 0.0524558 0.0408238 -0.630182 
0.0528041 0.04096 -0.629891 
LINES 2 100
OFFSETS vtktypeint64
0 100 
CONNECTIVITY vtktypeint64
0 1 2 3 4 5 6 7 8 
9 10 11 12 13 14 15 16 17 
18 19 20 21 22 23 24 25 26 
27 28 29 30 31 32 33 34 35 
36 37 38 39 40 41 42 43 44 
45 46 47 48 49 50 51 52 53 
54 55 56 57 58 59 60 61 62 
63 64 65 66 67 68 69 70 71 
72 73 74 75 76 77 78 79 80 
81 82 83 84 85 86 87 88 89 
90 91 92 93 94 95 96 97 98 
99 
POINT_DATA 100
FIELD FieldData 3
_theta 1 100 double
0 0.031733259127 0.063466518254 0.095199777382 0.12693303651 0.15866629564 0.19039955476 0.22213281389 0.25386607302 
0.28559933214 0.31733259127 0.3490658504 0.38079910953 0.41253236865 0.44426562778 0.47599888691 0.50773214603 0.53946540516 
0.57119866429 0.60293192342 0.63466518254 0.66639844167 0.6981317008 0.72986495992 0.76159821905 0.79333147818 0.82506473731 
0.85679799643 0.88853125556 0.92026451469 0.95199777382 0.98373103294 1.0154642921 1.0471975512 1.0789308103 1.1106640695 
1.1423973286 1.1741305877 1.2058638468 1.237597106 1.2693303651 1.3010636242 1.3327968833 1.3645301425 1.3962634016 
1.4279966607 1.4597299198 1.491463179 1.5231964381 1.5549296972 1.5866629564 1.6183962155 1.6501294746 1.6818627337 
1.7135959929 1.745329252 1.7770625111 1.8087957702 1.8405290294 1.8722622885 1.9039955476 1.9357288068 1.9674620659 
1.999195325 2.0309285841 2.0626618433 2.0943951024 2.1261283615 2.1578616206 2.1895948798 2.2213281389 2.253061398 
2.2847946572 2.3165279163 2.3482611754 2.3799944345 2.4117276937 2.4434609528 2.4751942119 2.506927471 2.5386607302 
2.5703939893 2.6021272484 2.6338605076 2.6655937667 2.6973270258 2.7290602849 2.7607935441 2.7925268032 2.8242600623 
2.8559933214 2.8877265806 2.9194598397 2.9511930988 2.982926358 3.0146596171 3.0463928762 3.0781261353 3.1098593945 
3.1415926536 
_radius 1 100 double
2.5438405243e-16 0.015251491351 0.03034940382 0.045147695343 0.059522567022 0.073380086569 0.08665990136 0.099334521205 0.11140427042 
0.12288866741 0.13381557551 0.14420985639 0.15408335682 0.16342786214 0.1722122159 0.18038420429 0.18787706101 0.19461960898 
0.20054831485 0.20561921222 0.20981792674 0.21316669041 0.2157278069 0.21760324343 0.21892998745 0.2198708391 0.22060069071 
0.2212891576 0.22208151885 0.22308090926 0.2243350539 0.2258301832 0.22749320365 0.22920132652 0.23079694222 0.23210503208 
0.23295076296 0.23317567191 0.23265155951 0.23129163787 0.22905863154 0.22596952352 0.22209657857 0.21756423954 0.21254155848 
0.20723008111 0.20184762459 0.19660920781 0.19170748652 0.18729617758 0.18348043028 0.1803168688 0.17782270367 0.17598930725 
0.17479365069 0.17420271181 0.17417048666 0.17463160667 0.1754969382 0.1766545588 0.17797637285 0.17932857295 0.1805836146 
0.18163166447 0.18238999511 0.18280933916 0.18287676497 0.18261510934 0.18207929272 0.18134995246 0.18052487902 0.17970883531 
0.17900248169 0.17849120744 0.17823457393 0.17825685477 0.17853906626 0.17901312182 0.1795591592 0.18000729844 0.18014488385 
0.17972963869 0.17850815577 0.17623796606 0.17271047653 0.16777167968 0.16133776424 0.15340345954 0.14404194676 0.13339631645 
0.12166370305 0.1090742351 0.095867643929 0.082270626768 0.068477779218 0.054638142361 0.040848379837 0.027152668717 0.013548834009 
1.4925685031e-15 
_area 1 100 double
0 0.00058083990187 0.0023005226488 0.0050929580378 0.0088557400911 0.013460706841 0.018766744643 0.024633005274 0.030930340911 
0.037548787556 0.04439975565 0.051413268035 0.058532241006 0.065705908944 0.072882468217 0.079999013442 0.086970334631 0.093687802713 
0.10003685012 0.10592136306 0.11127710878 0.11606917845 0.12028677665 0.12395490309 0.12715457207 0.13002541247 0.1327422004 
0.13547499044 0.13834962052 0.14142309339 0.14467867884 0.1480367208 0.1513738219 0.15454294849 0.15738754663 0.15974425101 
0.16143438363 0.16225835689 0.16201516641 0.16054496809 0.15776808648 0.15370508637 0.14847842991 0.14230040979 0.13545217224 
0.12825804136 0.12105845224 0.11418234214 0.10791432978 0.10244726331 0.097822927456 0.093912917535 0.090506831527 0.087453320954 
0.084739179817 0.082490972386 0.080870087118 0.079908430919 0.079537423754 0.079613079392 0.079933311499 0.080285298897 0.080485940709 
0.080401443014 0.079951870327 0.079107082208 0.07788059137 0.07632453928 0.074527234998 0.072612575589 0.07073595426 0.069071086366 
0.067788626468 0.06703399435 0.066910905024 0.06747004348 0.068701143152 0.070526762784 0.072795413933 0.075279013566 0.077682973826 
0.07966913268 0.080885769478 0.081000943989 0.079738161898 0.076912982344 0.072466527915 0.066488771977 0.05922320374 0.051046987525 
0.042426962117 0.033859134126 0.025804338369 0.018633557267 0.012593282121 0.0077960684829 0.0042361950812 0.0018262438836 0.00044706976739 
3.5959288007e-17 
