# vtk DataFile Version 5.1
vtk output
ASCII
DATASET POLYDATA
POINTS 100 float
0.104099 0.0488924 0.739011 0.104144 0.0492377 0.739059 0.104377 0.0501085 0.739001 
0.104774 0.0514363 0.738798 0.105299 0.0531161 0.738386 0.105902 0.0550171 0.737683 
0.10652 0.0569975 0.73659 0.107084 0.058919 0.734998 0.107518 0.0606604 0.732797 
0.107744 0.0621286 0.729876 0.107689 0.0632648 0.726138 0.107286 0.0640469 0.721501 
0.106478 0.0644862 0.715907 0.105225 0.0646204 0.709323 0.103502 0.064503 0.701746 
0.101302 0.0641923 0.693202 0.0986354 0.0637394 0.683746 0.0955259 0.0631795 0.673456 
0.0920084 0.0625254 0.662426 0.0881238 0.0617662 0.65076 0.083914 0.0608693 0.638564 
0.0794173 0.0597877 0.625936 0.0746638 0.0584695 0.61296 0.0696735 0.0568689 0.599698 
0.0644552 0.0549576 0.586188 0.059007 0.052734 0.572441 0.0533194 0.0502293 0.558447 
0.0473793 0.0475094 0.544171 0.0411742 0.0446722 0.529569 0.0346974 0.04184 0.514586 
0.0279513 0.0391491 0.499173 0.0209498 0.0367363 0.483288 0.0137187 0.0347259 0.466907 
0.0062941 0.0332168 0.450024 -0.0012819 0.0322735 0.432656 -0.00896615 0.0319201 0.414842 
-0.0167206 0.0321405 0.396633 -0.024518 0.0328818 0.378093 -0.0323467 0.0340633 0.359289 
-0.0402125 0.0355877 0.340279 -0.0481385 0.0373547 0.321108 -0.0561608 0.039273 0.3018 
-0.0643221 0.0412721 0.282356 -0.0726616 0.043309 0.262747 -0.0812045 0.0453714 0.242924 
-0.0899506 0.0474764 0.222814 -0.0988643 0.0496639 0.202334 -0.107868 0.0519871 0.181395 
-0.116838 0.0545007 0.159915 -0.125609 0.0572483 0.137826 -0.133976 0.0602515 0.115084 
-0.141712 0.0635014 0.0916694 -0.14858 0.0669544 0.0675979 -0.154352 0.070533 0.042914 
-0.158826 0.0741303 0.0176906 -0.161848 0.0776201 -0.00797676 -0.163319 0.0808682 -0.0339774 
-0.163208 0.083747 -0.0601935 -0.161553 0.0861479 -0.0865085 -0.158457 0.0879933 -0.112814 
-0.15408 0.0892439 -0.139016 -0.148618 0.089902 -0.165039 -0.142292 0.09001 -0.190822 
-0.135322 0.0896436 -0.216327 -0.127911 0.0889022 -0.241525 -0.120229 0.0878954 -0.266399 
-0.112401 0.0867293 -0.290935 -0.104503 0.0854931 -0.315116 -0.0965625 0.0842482 -0.338922 
-0.0885669 0.083021 -0.362321 -0.0804752 0.0817996 -0.385271 -0.0722339 0.0805356 -0.407722 
-0.0637931 0.0791507 -0.429612 -0.0551221 0.0775462 -0.450876 -0.0462217 0.0756151 -0.471447 
-0.0371317 0.073256 -0.491264 -0.0279328 0.070385 -0.510272 -0.0187426 0.0669471 -0.528429 
-0.00970601 0.0629233 -0.545705 -0.000982466 0.0583346 -0.562087 0.00727015 0.0532417 -0.577574 
0.0149111 0.0477409 -0.592179 0.0218308 0.0419565 -0.605924 0.0279611 0.0360312 -0.618835 
0.0332806 0.030115 -0.630943 0.0378148 0.0243544 -0.642274 0.0416304 0.0188821 -0.652854 
0.0448253 0.013809 -0.662699 0.0475151 0.00921896 -0.671819 0.049819 0.00516524 -0.680217 
0.0518452 0.00167105 -0.687886 0.0536796 -0.00126835 -0.694815 0.0553778 -0.00368121 -0.70099 
0.0569622 -0.00561349 -0.706391 0.0584234 -0.00712229 -0.710998 0.0597265 -0.00826913 -0.714794 
0.0608206 -0.00911356 -0.717761 0.0616499 -0.00970756 -0.719886 0.0621649 -0.0100909 -0.721157 
0.0623322 -0.010288 -0.721569 
LINES 2 100
OFFSETS vtktypeint64
0 100 
CONNECTIVITY vtktypeint64
0 1 2 3 4 5 6 7 8 
9 10 11 12 13 14 15 16 17 
18 19 20 21 22 23 24 25 26 
27 28 29 30 31 32 33 34 35 
36 37 38 39 40 41 42 43 44 
45 46 47 48 49 50 51 52 53 
54 55 56 57 58 59 60 61 62 
63 64 65 66 67 68 69 70 71 
72 73 74 75 76 77 78 79 80 
81 82 83 84 85 86 87 88 89 
90 91 92 93 94 95 96 97 98 
99 
POINT_DATA 100
FIELD FieldData 3
_theta 1 100 double
0 0.031733259127 0.063466518254 0.095199777382 0.12693303651 0.15866629564 0.19039955476 0.22213281389 0.25386607302 
0.28559933214 0.31733259127 0.3490658504 0.38079910953 0.41253236865 0.44426562778 0.47599888691 0.50773214603 0.53946540516 
0.57119866429 0.60293192342 0.63466518254 0.66639844167 0.6981317008 0.72986495992 0.76159821905 0.79333147818 0.82506473731 
0.85679799643 0.88853125556 0.92026451469 0.95199777382 0.98373103294 1.0154642921 1.0471975512 1.0789308103 1.1106640695 
1.1423973286 1.1741305877 1.2058638468 1.237597106 1.2693303651 1.3010636242 1.3327968833 1.3645301425 1.3962634016 
1.4279966607 1.4597299198 1.491463179 1.5231964381 1.5549296972 1.5866629564 1.6183962155 1.6501294746 1.6818627337 
1.7135959929 1.745329252 1.7770625111 1.8087957702 1.8405290294 1.8722622885 1.9039955476 1.9357288068 1.9674620659 
1.999195325 2.0309285841 2.0626618433 2.0943951024 2.1261283615 2.1578616206 2.1895948798 2.2213281389 2.253061398 
2.2847946572 2.3165279163 2.3482611754 2.3799944345 2.4117276937 2.4434609528 2.4751942119 2.506927471 2.5386607302 
2.5703939893 2.6021272484 2.6338605076 2.6655937667 2.6973270258 2.7290602849 2.7607935441 2.7925268032 2.8242600623 
2.8559933214 2.8877265806 2.9194598397 2.9511930988 2.982926358 3.0146596171 3.0463928762 3.0781261353 3.1098593945 
3.1415926536 
_radius 1 100 double
1.8253379971e-16 0.015804578048 0.031547539784 0.04715783722 0.062558329576 0.07766472472 0.092386368711 0.10662906441 0.12029976818 
0.1333126823 0.14559597784 0.15709816928 0.16779303887 0.17768202665 0.18679323436 0.195176679 0.2028961351 0.21001869548 
0.21660386179 0.22269431135 0.22831028966 0.23344883307 0.23808795619 0.24219489072 0.24573672299 0.24869146546 0.25105768278 
0.25286116251 0.25415763527 0.25503108861 0.25558772503 0.25594610455 0.25622452689 0.25652721786 0.25693123195 0.25747595547 
0.25815661472 0.25892244445 0.25967951083 0.26029786248 0.26062265115 0.26048881792 0.25973860538 0.25824051747 0.25590766532 
0.25271303055 0.24869922354 0.24398080014 0.23873802266 0.23320201902 0.2276325582 0.22229105134 0.21741270276 0.21318254292 
0.20971976268 0.20707287548 0.20522503376 0.20410568085 0.20360350853 0.20357737537 0.20386539088 0.20429516436 0.20469795946 
0.2049263948 0.20487211247 0.20447890512 0.20374808097 0.20273484805 0.2015361987 0.20027209556 0.19906295152 0.19800744473 
0.19716511263 0.19654723012 0.19611710182 0.19579806122 0.1954855671 0.19505954307 0.19439423271 0.19336450321 0.19184895057 
0.18973100146 0.18689953505 0.18325046585 0.17869015513 0.17314047027 0.16654426625 0.15886967047 0.15011197991 0.14029282573 
0.12945704271 0.11766816828 0.10500366931 0.091550887905 0.077404354705 0.062664621186 0.047438246539 0.031838203819 0.015983871806 
4.697480775e-16 
_area 1 100 double
0 0.00061007116565 0.0024302350079 0.0054324525454 0.0095759033715 0.01481225471 0.021086984923 0.028333501548 0.036459904532 
0.045333281744 0.054770576053 0.064544252937 0.074404560874 0.084112565166 0.093473990753 0.1023641244 0.11073702591 0.11861650021 
0.12607100769 0.13317964031 0.14000006972 0.14654893698 0.15279918517 0.15869134658 0.16415195549 0.16911246909 0.17352394259 
0.17736503012 0.18064361886 0.18339500164 0.18568035955 0.18758693516 0.18922685863 0.19072932113 0.19222298458 0.19381001048 
0.19553692345 0.1973698684 0.19918240594 0.20076158756 0.20183255786 0.20209653739 0.20127494871 0.19915289019 0.19561577066 
0.19067331572 0.18446640646 0.17725493923 0.16938865811 0.16126637805 0.15329061995 0.14582395618 0.13915184878 0.13345642759 
0.12880618566 0.12516577916 0.12242454927 0.12042963406 0.11900459097 0.11795173697 0.11705468745 0.11609520695 0.1148810612 
0.11326810996 0.11116674401 0.108541301 0.10541411714 0.10187154221 0.098061022202 0.094173668449 0.090415289365 0.086974891844 
0.084002526437 0.081603373395 0.079838969128 0.07871775965 0.078179899242 0.078090064661 0.078241013267 0.07839534065 0.078354884121 
0.078005729357 0.077299453723 0.076141592286 0.074331066545 0.071662815472 0.068009874278 0.063342720775 0.057728379628 0.051320269871 
0.044340773696 0.037059437835 0.029770161284 0.022769877021 0.016340067756 0.010731821881 0.0061550879315 0.0027726617204 0.00069865833733 
3.1576862974e-18 
