# vtk DataFile Version 5.1
vtk output
ASCII
DATASET POLYDATA
POINTS 100 float
0.196759 0.0541829 0.761764 0.196734 0.0545021 0.761595 0.196758 0.0552742 0.76094 
0.196803 0.0564317 0.759801 0.19683 0.0578708 0.758177 0.196784 0.0594628 0.756066 
0.196602 0.061068 0.753457 0.196212 0.062551 0.750329 0.195544 0.0637956 0.746649 
0.194525 0.0647162 0.74237 0.193092 0.0652671 0.737435 0.191188 0.0654453 0.731779 
0.188768 0.0652895 0.725339 0.185801 0.0648738 0.718054 0.182268 0.0642967 0.709879 
0.178163 0.0636687 0.700789 0.173492 0.0630972 0.690782 0.168269 0.0626726 0.679886 
0.162516 0.0624573 0.668156 0.156259 0.062477 0.655673 0.149525 0.0627177 0.642537 
0.142343 0.0631276 0.628857 0.134738 0.0636231 0.614746 0.126734 0.0641002 0.600311 
0.118356 0.0644473 0.58564 0.109624 0.0645604 0.570803 0.100563 0.0643566 0.555844 
0.0911985 0.0637866 0.540778 0.0815598 0.0628422 0.525601 0.0716822 0.0615599 0.510285 
0.0616056 0.0600189 0.494794 0.0513744 0.0583343 0.47908 0.0410361 0.0566456 0.463099 
0.0306385 0.0551028 0.446809 0.0202276 0.0538504 0.430174 0.00984413 0.0530124 0.413166 
-0.00047866 0.0526791 0.39576 -0.0107164 0.0528976 0.37793 -0.0208539 0.0536676 0.359643 
-0.0308843 0.0549414 0.340856 -0.0408057 0.0566306 0.32151 -0.0506172 0.0586159 0.301527 
-0.0603134 0.060761 0.280816 -0.0698786 0.0629284 0.259271 -0.079281 0.0649944 0.236786 
-0.0884682 0.0668626 0.213263 -0.0973638 0.0684743 0.188623 -0.105867 0.0698137 0.162821 
-0.113855 0.0709084 0.135858 -0.121188 0.0718245 0.107784 -0.127715 0.072657 0.0787106 
-0.133285 0.0735169 0.0488004 -0.137759 0.0745164 0.0182671 -0.141017 0.0757539 -0.012639 
-0.142975 0.0773 -0.043646 -0.143584 0.0791875 -0.0744785 -0.142844 0.0814049 -0.104877 
-0.1408 0.0838952 -0.134614 -0.137542 0.0865597 -0.163512 -0.133199 0.0892661 -0.191451 
-0.127929 0.0918603 -0.218373 -0.121906 0.0941803 -0.244282 -0.11531 0.0960707 -0.269236 
-0.108309 0.0973957 -0.293336 -0.101055 0.0980498 -0.31671 -0.0936659 0.0979651 -0.339496 
-0.0862265 0.0971139 -0.361826 -0.0787836 0.0955069 -0.38381 -0.0713485 0.0931877 -0.405528 
-0.0639032 0.0902242 -0.42702 -0.0564085 0.0866983 -0.448284 -0.0488144 0.0826949 -0.469282 
-0.041071 0.0782924 -0.489942 -0.0331386 0.0735553 -0.510174 -0.0249957 0.0685301 -0.529873 
-0.0166449 0.063245 -0.548937 -0.00811482 0.0577128 -0.567273 0.000541003 0.0519372 -0.584803 
0.00924813 0.045921 -0.601474 0.0179179 0.0396749 -0.617252 0.0264554 0.0332261 -0.632126 
0.0347678 0.0266246 -0.6461 0.0427723 0.0199466 -0.659192 0.0504017 0.0132941 -0.671423 
0.0576084 0.00679102 -0.682814 0.0643655 0.000574663 -0.693384 0.0706651 -0.00521441 -0.703145 
0.0765142 -0.010445 -0.712103 0.0819293 -0.0150076 -0.720259 0.0869302 -0.0188257 -0.727611 
0.0915338 -0.021864 -0.734161 0.0957487 -0.0241329 -0.739913 0.0995722 -0.0256882 -0.744878 
0.102989 -0.0266259 -0.749077 0.105972 -0.0270732 -0.752536 0.108485 -0.0271751 -0.75529 
0.110489 -0.0270798 -0.757375 0.111946 -0.0269227 -0.758823 0.112823 -0.0268124 -0.759665 
0.1131 -0.0268187 -0.75992 
LINES 2 100
OFFSETS vtktypeint64
0 100 
CONNECTIVITY vtktypeint64
0 1 2 3 4 5 6 7 8 
9 10 11 12 13 14 15 16 17 
18 19 20 21 22 23 24 25 26 
27 28 29 30 31 32 33 34 35 
36 37 38 39 40 41 42 43 44 
45 46 47 48 49 50 51 52 53 
54 55 56 57 58 59 60 61 62 
63 64 65 66 67 68 69 70 71 
72 73 74 75 76 77 78 79 80 
81 82 83 84 85 86 87 88 89 
90 91 92 93 94 95 96 97 98 
99 
POINT_DATA 100
FIELD FieldData 3
_theta 1 100 double
0 0.031733259127 0.063466518254 0.095199777382 0.12693303651 0.15866629564 0.19039955476 0.22213281389 0.25386607302 
0.28559933214 0.31733259127 0.3490658504 0.38079910953 0.41253236865 0.44426562778 0.47599888691 0.50773214603 0.53946540516 
0.57119866429 0.60293192342 0.63466518254 0.66639844167 0.6981317008 0.72986495992 0.76159821905 0.79333147818 0.82506473731 
0.85679799643 0.88853125556 0.92026451469 0.95199777382 0.98373103294 1.0154642921 1.0471975512 1.0789308103 1.1106640695 
1.1423973286 1.1741305877 1.2058638468 1.237597106 1.2693303651 1.3010636242 1.3327968833 1.3645301425 1.3962634016 
1.4279966607 1.4597299198 1.491463179 1.5231964381 1.5549296972 1.5866629564 1.6183962155 1.6501294746 1.6818627337 
1.7135959929 1.745329252 1.7770625111 1.8087957702 1.8405290294 1.8722622885 1.9039955476 1.9357288068 1.9674620659 
1.999195325 2.0309285841 2.0626618433 2.0943951024 2.1261283615 2.1578616206 2.1895948798 2.2213281389 2.253061398 
2.2847946572 2.3165279163 2.3482611754 2.3799944345 2.4117276937 2.4434609528 2.4751942119 2.506927471 2.5386607302 
2.5703939893 2.6021272484 2.6338605076 2.6655937667 2.6973270258 2.7290602849 2.7607935441 2.7925268032 2.8242600623 
2.8559933214 2.8877265806 2.9194598397 2.9511930988 2.982926358 3.0146596171 3.0463928762 3.0781261353 3.1098593945 
3.1415926536 
_radius 1 100 double
1.0026641666e-15 0.014817187051 0.029514155186 0.043972509494 0.058084043017 0.071753175378 0.084897018933 0.097443613102 0.10932937159 
0.12049688512 0.13089390887 0.14047380819 0.14919719485 0.15703417509 0.16396663322 0.16999022075 0.1751160391 0.17937219681 
0.18280535767 0.18548207683 0.18748930119 0.18893314076 0.18993511802 0.19062562817 0.19113512178 0.19158422114 0.19207428178 
0.19267968395 0.19344253016 0.19436977853 0.19543250536 0.19656710106 0.19767859007 0.19864657145 0.19933419942 0.19960009847 
0.19931231766 0.19836268043 0.19667945996 0.19423636609 0.19105637922 0.18720989597 0.1828077534 0.1779907004 0.17291751435 
0.16775403076 0.16266478767 0.15780782235 0.15333174001 0.14937332863 0.14605432817 0.14347679244 0.14171674891 0.14081613101 
0.14077443557 0.14154346957 0.14302862802 0.14509751092 0.1475931531 0.15034739658 0.15319085266 0.15595830614 0.15849116777 
0.16064116705 0.16227960204 0.16331158065 0.16368929048 0.16341887901 0.16255951025 0.16121564681 0.15952432492 0.15763949345 
0.15571575198 0.15389374928 0.15228879833 0.15098303809 0.15002033427 0.14940273849 0.14908787818 0.14898768171 0.14896971231 
0.14886258535 0.14846627032 0.14756676129 0.14595326021 0.14343527582 0.13985712175 0.13510799246 0.1291267439 0.12190143421 
0.11346445207 0.10388461453 0.093257900129 0.08169844916 0.069331104277 0.056286163929 0.042696355443 0.028695518746 0.014418270603 
3.8222320788e-16 
_area 1 100 double
0 0.0005262627109 0.0020845799082 0.0046162585644 0.0080316981946 0.012220185408 0.017059702255 0.022424669942 0.028190123498 
0.034231503186 0.040420859213 0.046622893828 0.052695511 0.058497223659 0.063899688592 0.06880109725 0.073136052723 0.076879157985 
0.080042137398 0.082667080949 0.084819934188 0.086587457869 0.088077668902 0.08941990597 0.090758705861 0.092237840899 0.093977257408 
0.096052736186 0.098489190556 0.10126739934 0.10432081707 0.10750896705 0.11062070719 0.11341253563 0.11563882626 0.1170769502 
0.11755489803 0.11697684249 0.11533705643 0.1127157216 0.10925746473 0.1051408374 0.10055049261 0.095660545311 0.090629654192 
0.08560099588 0.080699395255 0.076027839667 0.071676219691 0.067731965375 0.064261402097 0.061298856064 0.058873980235 0.057025594174 
0.055784094842 0.055145205172 0.055063208799 0.055464277389 0.056294824607 0.057562533174 0.059183407081 0.061016304062 0.062718616215 
0.064048574778 0.064768562511 0.064741227576 0.063996703373 0.062659309369 0.06086558833 0.058748051563 0.056456083355 0.054155510122 
0.052008786267 0.050153357886 0.048688892968 0.047676589024 0.04714640001 0.047104239592 0.047529568028 0.048395809094 0.049686954093 
0.051086620841 0.052204340928 0.052804814171 0.052691518246 0.051712607371 0.04977720789 0.046868348079 0.043048840764 0.038458253885 
0.033300719933 0.027825082782 0.022300442688 0.016991145711 0.012135378498 0.0079306556769 0.0045277242526 0.0020321521681 0.00051086652294 
4.2087471855e-17 
