# vtk DataFile Version 5.1
vtk output
ASCII
DATASET POLYDATA
POINTS 100 float
0.125863 0.0603509 0.751185 0.126053 0.0607671 0.750802 0.126671 0.0618413 0.749525 
0.127673 0.0634795 0.747391 0.128993 0.0655369 0.74446 0.130543 0.0678324 0.740804 
0.13222 0.0701664 0.736498 0.133913 0.0723404 0.731608 0.135508 0.0741754 0.726183 
0.136894 0.0755288 0.720248 0.137963 0.0763054 0.713803 0.138621 0.0764647 0.706822 
0.138782 0.0760212 0.699262 0.138369 0.0750396 0.691066 0.13732 0.0736246 0.682179 
0.13558 0.0719075 0.672557 0.133107 0.0700311 0.662175 0.12987 0.068134 0.651038 
0.12585 0.0663371 0.639179 0.121045 0.0647326 0.626666 0.115468 0.063378 0.61359 
0.109154 0.0622939 0.600061 0.102158 0.0614664 0.586199 0.0945554 0.0608537 0.572115 
0.0864413 0.0603948 0.55791 0.0779248 0.0600197 0.543659 0.069123 0.05966 0.529407 
0.0601533 0.0592572 0.515171 0.0511243 0.0587698 0.500938 0.0421267 0.0581756 0.486673 
0.0332261 0.0574727 0.472332 0.0244566 0.0566761 0.457863 0.0158192 0.0558124 0.443224 
0.00728221 0.0549139 0.428387 -0.00121298 0.0540115 0.413342 -0.00974382 0.0531293 0.398098 
-0.0183952 0.0522808 0.382681 -0.0272466 0.0514675 0.367122 -0.0363594 0.0506807 0.351453 
-0.045765 0.0499046 0.335692 -0.0554569 0.0491223 0.319832 -0.0653853 0.0483228 0.303836 
-0.0754576 0.0475068 0.287631 -0.0855424 0.0466922 0.271108 -0.095479 0.0459173 0.254127 
-0.105089 0.0452412 0.236532 -0.11419 0.0447402 0.218159 -0.12261 0.0445029 0.198858 
-0.130201 0.0446211 0.178506 -0.136845 0.0451804 0.157025 -0.142463 0.04625 0.134392 
-0.147018 0.0478732 0.110647 -0.150505 0.0500602 0.0858915 -0.15295 0.0527845 0.060284 
-0.154401 0.0559815 0.0340279 -0.154913 0.0595531 0.00735599 -0.15454 0.0633737 -0.0194884 
-0.153328 0.067301 -0.0462702 -0.151309 0.0711871 -0.0727805 -0.148501 0.0748915 -0.09885 
-0.144907 0.0782919 -0.124359 -0.140524 0.0812939 -0.149239 -0.13535 0.0838368 -0.173475 
-0.129394 0.0858958 -0.197091 -0.122681 0.0874804 -0.220143 -0.115259 0.0886279 -0.242707 
-0.107204 0.0893954 -0.264857 -0.098614 0.0898483 -0.286662 -0.0896065 0.0900491 -0.308165 
-0.0803077 0.0900464 -0.329383 -0.0708412 0.0898663 -0.350304 -0.0613157 0.0895068 -0.370885 
-0.0518141 0.0889364 -0.391062 -0.042385 0.0880965 -0.410753 -0.0330392 0.0869081 -0.429873 
-0.0237506 0.0852814 -0.448335 -0.0144633 0.0831279 -0.466064 -0.0051031 0.0803733 -0.482998 
0.00440718 0.0769693 -0.499092 0.014131 0.0729043 -0.514317 0.0241016 0.0682093 -0.528656 
0.0343091 0.0629611 -0.542104 0.0446912 0.0572803 -0.554656 0.0551316 0.0513243 -0.566309 
0.0654645 0.0452768 -0.577055 0.0754863 0.0393348 -0.586884 0.0849732 0.0336923 -0.595783 
0.0937022 0.0285259 -0.603737 0.101474 0.02398 -0.61074 0.108133 0.0201557 -0.616795 
0.113588 0.0171036 -0.621921 0.117817 0.0148211 -0.626158 0.120877 0.0132549 -0.629566 
0.122891 0.0123079 -0.632223 0.124042 0.0118508 -0.634224 0.124546 0.0117365 -0.635672 
0.124632 0.0118154 -0.636668 0.124511 0.0119517 -0.637305 0.124358 0.0120376 -0.637656 
0.124285 0.0120048 -0.637769 
LINES 2 100
OFFSETS vtktypeint64
0 100 
CONNECTIVITY vtktypeint64
0 1 2 3 4 5 6 7 8 
9 10 11 12 13 14 15 16 17 
18 19 20 21 22 23 24 25 26 
27 28 29 30 31 32 33 34 35 
36 37 38 39 40 41 42 43 44 
45 46 47 48 49 50 51 52 53 
54 55 56 57 58 59 60 61 62 
63 64 65 66 67 68 69 70 71 
72 73 74 75 76 77 78 79 80 
81 82 83 84 85 86 87 88 89 
90 91 92 93 94 95 96 97 98 
99 
POINT_DATA 100
FIELD FieldData 3
_theta 1 100 double
0 0.031733259127 0.063466518254 0.095199777382 0.12693303651 0.15866629564 0.19039955476 0.22213281389 0.25386607302 
0.28559933214 0.31733259127 0.3490658504 0.38079910953 0.41253236865 0.44426562778 0.47599888691 0.50773214603 0.53946540516 
0.57119866429 0.60293192342 0.63466518254 0.66639844167 0.6981317008 0.72986495992 0.76159821905 0.79333147818 0.82506473731 
0.85679799643 0.88853125556 0.92026451469 0.95199777382 0.98373103294 1.0154642921 1.0471975512 1.0789308103 1.1106640695 
1.1423973286 1.1741305877 1.2058638468 1.237597106 1.2693303651 1.3010636242 1.3327968833 1.3645301425 1.3962634016 
1.4279966607 1.4597299198 1.491463179 1.5231964381 1.5549296972 1.5866629564 1.6183962155 1.6501294746 1.6818627337 
1.7135959929 1.745329252 1.7770625111 1.8087957702 1.8405290294 1.8722622885 1.9039955476 1.9357288068 1.9674620659 
1.999195325 2.0309285841 2.0626618433 2.0943951024 2.1261283615 2.1578616206 2.1895948798 2.2213281389 2.253061398 
2.2847946572 2.3165279163 2.3482611754 2.3799944345 2.4117276937 2.4434609528 2.4751942119 2.506927471 2.5386607302 
2.5703939893 2.6021272484 2.6338605076 2.6655937667 2.6973270258 2.7290602849 2.7607935441 2.7925268032 2.8242600623 
2.8559933214 2.8877265806 2.9194598397 2.9511930988 2.982926358 3.0146596171 3.0463928762 3.0781261353 3.1098593945 
3.1415926536 
_radius 1 100 double
3.9739936517e-16 0.014284651821 0.028487135807 0.04251893729 0.056285671446 0.069687766395 0.082623845238 0.094995629178 0.10671236688 
0.11769337203 0.12786974927 0.13718806002 0.14561616717 0.15314832364 0.15980724081 0.16564306286 0.17072998788 0.17516106263 
0.17904151061 0.18248116481 0.18558692334 0.18845628348 0.19117279009 0.1938037489 0.19639998923 0.19899699246 0.20161648365 
0.20426770775 0.2069480197 0.20964288365 0.21232564001 0.2149573585 0.21748686814 0.21985087609 0.22197413505 0.22376990932 
0.22514137628 0.22598485654 0.22619569995 0.22567719167 0.22435204014 0.22217504156 0.21914464835 0.21531070745 0.21077586996 
0.20568930323 0.20023329965 0.1946055518 0.1890011023 0.18359747119 0.17854479467 0.17396144045 0.16993500935 0.16652784554 
0.16378418788 0.16173383872 0.1603873885 0.15972271173 0.15967001263 0.16010667184 0.16086799546 0.16176994407 0.16263492239 
0.16331393037 0.16370223663 0.16374753295 0.16344998987 0.16285450555 0.16203716597 0.16108943129 0.16010351957 0.15916111044 
0.15832609428 0.15764110482 0.15712696156 0.15678397895 0.15659418903 0.15652368424 0.15652448325 0.15653547339 0.15648209212 
0.15627467187 0.15580593471 0.15494886287 0.15355670119 0.15146672213 0.14850841365 0.14451525591 0.13933796754 0.13285669364 
0.12499019447 0.11570123495 0.10499846846 0.092935757691 0.079609978775 0.065158031037 0.049753256988 0.033601023285 0.016933022981 
1.2908690729e-15 
_area 1 100 double
0 0.00045991114437 0.0018102859631 0.0039710659957 0.0068337357938 0.010293087993 0.014279977976 0.018774864609 0.023775885852 
0.029235420984 0.035019076111 0.040917089463 0.046689537098 0.052113311851 0.05701793962 0.061308623135 0.064975699965 0.068089172704 
0.070778710986 0.073203928401 0.075524222353 0.07787737603 0.080369976456 0.083075558439 0.086034980708 0.089259884188 0.09275045062 
0.096541193043 0.10070367543 0.10519979578 0.10987338897 0.11456111468 0.11914184728 0.12372932758 0.12801445641 0.13188097576 
0.13518267268 0.13772928368 0.13929437202 0.1396703202 0.13889511065 0.13674513294 0.13340666171 0.12922760768 0.12449490214 
0.11916201972 0.11353517789 0.1080032946 0.10286980915 0.098298762518 0.094302213453 0.090767778389 0.087521328638 0.084399074804 
0.081299823144 0.078207891579 0.075198774386 0.072432027084 0.070154379669 0.068752277282 0.068480912537 0.068915925073 0.069445889282 
0.069613257122 0.069140563592 0.067907778662 0.065925812283 0.063306467741 0.060281174321 0.057216975662 0.054087010936 0.051058325564 
0.048311729445 0.046043752438 0.044393009851 0.043427772008 0.043109539897 0.043296285041 0.043821771787 0.044565825936 0.045452851313 
0.046423068442 0.04740964905 0.048311430722 0.048972002388 0.049185265716 0.048728363534 0.047407255211 0.045098630901 0.041777358097 
0.037524853241 0.032519352352 0.027013571042 0.021307462837 0.015722829381 0.010582865891 0.0061952114728 0.0028344368579 0.0007212161926 
4.1733568101e-18 
