# vtk DataFile Version 5.1
vtk output
ASCII
DATASET POLYDATA
POINTS 100 float
0.15675 0.0479792 0.641346 0.156842 0.0481119 0.641025 0.157153 0.0484045 0.640024 
0.1576 0.0488534 0.638402 0.158053 0.0494539 0.636242 0.158354 0.0502002 0.633645 
0.158332 0.051086 0.630713 0.157827 0.0521037 0.627531 0.156705 0.0532449 0.624155 
0.154876 0.0544997 0.620602 0.152298 0.0558556 0.616849 0.148986 0.0572971 0.612831 
0.145004 0.0588042 0.60845 0.140459 0.0603521 0.603591 0.13548 0.0619102 0.598133 
0.130207 0.0634421 0.591969 0.124772 0.0649063 0.585016 0.119277 0.0662571 0.57723 
0.113793 0.0674468 0.56861 0.108342 0.0684278 0.559198 0.102905 0.0691559 0.549072 
0.0974215 0.0695936 0.538334 0.0918048 0.0697126 0.527102 0.0859524 0.0694972 0.515489 
0.0797637 0.0689457 0.503592 0.0731547 0.0680724 0.491483 0.0660711 0.0669067 0.479201 
0.0584962 0.0654929 0.466754 0.050454 0.0638876 0.454122 0.0420071 0.062157 0.441266 
0.0332485 0.0603728 0.428143 0.0242897 0.0586085 0.414712 0.015247 0.0569346 0.40095 
0.00622621 0.0554156 0.386856 -0.00268934 0.0541057 0.372451 -0.0114485 0.0530472 0.35778 
-0.0200362 0.052268 0.342896 -0.0284725 0.0517819 0.327854 -0.0368053 0.0515885 0.312697 
-0.0450991 0.0516744 0.297435 -0.05342 0.0520153 0.282045 -0.0618201 0.0525787 0.266458 
-0.0703217 0.0533257 0.250563 -0.0789059 0.0542146 0.234212 -0.0875044 0.0552031 0.217238 
-0.0959985 0.0562508 0.199473 -0.104224 0.0573209 0.180766 -0.111981 0.0583826 0.161008 
-0.119051 0.0594116 0.140148 -0.125215 0.0603915 0.118205 -0.130274 0.0613141 0.0952712 
-0.134068 0.0621791 0.0715066 -0.136491 0.0629942 0.0471261 -0.137503 0.0637739 0.0223776 
-0.137133 0.0645378 -0.00248352 -0.135477 0.0653092 -0.0272212 -0.132689 0.0661124 -0.0516438 
-0.128966 0.0669699 -0.0756235 -0.124528 0.0678998 -0.0991076 -0.119602 0.0689124 -0.122119 
-0.114395 0.0700078 -0.14475 -0.10908 0.0711735 -0.167138 -0.103783 0.0723831 -0.189448 
-0.0985704 0.0735957 -0.211838 -0.0934488 0.0747573 -0.234434 -0.0883697 0.0758021 -0.257301 
-0.0832381 0.0766568 -0.280429 -0.077926 0.0772442 -0.303726 -0.0722896 0.0774888 -0.327021 
-0.0661872 0.0773223 -0.350075 -0.0594957 0.0766888 -0.372611 -0.0521256 0.0755491 -0.394339 
-0.0440322 0.073885 -0.414987 -0.0352216 0.0717005 -0.434337 -0.0257524 0.0690224 -0.452242 
-0.0157328 0.0658985 -0.468646 -0.00531291 0.0623945 -0.483585 0.00532527 0.0585888 -0.497182 
0.0159808 0.0545675 -0.509628 0.026447 0.0504175 -0.521156 0.0365243 0.0462213 -0.532011 
0.0460321 0.0420515 -0.542418 0.0548178 0.0379672 -0.552553 0.0627638 0.034012 -0.562528 
0.0697908 0.0302134 -0.57237 0.075859 0.0265845 -0.582033 0.0809662 0.0231269 -0.591399 
0.0851442 0.0198348 -0.600303 0.0884533 0.0166997 -0.608559 0.0909761 0.0137147 -0.615986 
0.0928108 0.0108791 -0.622437 0.0940648 0.00820055 -0.62782 0.0948487 0.00569686 -0.63211 
0.0952706 0.00339579 -0.635354 0.0954319 0.00133319 -0.637662 0.0954236 -0.000449975 -0.639193 
0.0953238 -0.00191164 -0.640127 0.0951951 -0.00301289 -0.640643 0.0950837 -0.00372214 -0.640892 
0.0950182 -0.00401844 -0.640974 
LINES 2 100
OFFSETS vtktypeint64
0 100 
CONNECTIVITY vtktypeint64
0 1 2 3 4 5 6 7 8 
9 10 11 12 13 14 15 16 17 
18 19 20 21 22 23 24 25 26 
27 28 29 30 31 32 33 34 35 
36 37 38 39 40 41 42 43 44 
45 46 47 48 49 50 51 52 53 
54 55 56 57 58 59 60 61 62 
63 64 65 66 67 68 69 70 71 
72 73 74 75 76 77 78 79 80 
81 82 83 84 85 86 87 88 89 
90 91 92 93 94 95 96 97 98 
99 
POINT_DATA 100
FIELD FieldData 3
_theta 1 100 double
0 0.031733259127 0.063466518254 0.095199777382 0.12693303651 0.15866629564 0.19039955476 0.22213281389 0.25386607302 
0.28559933214 0.31733259127 0.3490658504 0.38079910953 0.41253236865 0.44426562778 0.47599888691 0.50773214603 0.53946540516 
0.57119866429 0.60293192342 0.63466518254 0.66639844167 0.6981317008 0.72986495992 0.76159821905 0.79333147818 0.82506473731 
0.85679799643 0.88853125556 0.92026451469 0.95199777382 0.98373103294 1.0154642921 1.0471975512 1.0789308103 1.1106640695 
1.1423973286 1.1741305877 1.2058638468 1.237597106 1.2693303651 1.3010636242 1.3327968833 1.3645301425 1.3962634016 
1.4279966607 1.4597299198 1.491463179 1.5231964381 1.5549296972 1.5866629564 1.6183962155 1.6501294746 1.6818627337 
1.7135959929 1.745329252 1.7770625111 1.8087957702 1.8405290294 1.8722622885 1.9039955476 1.9357288068 1.9674620659 
1.999195325 2.0309285841 2.0626618433 2.0943951024 2.1261283615 2.1578616206 2.1895948798 2.2213281389 2.253061398 
2.2847946572 2.3165279163 2.3482611754 2.3799944345 2.4117276937 2.4434609528 2.4751942119 2.506927471 2.5386607302 
2.5703939893 2.6021272484 2.6338605076 2.6655937667 2.6973270258 2.7290602849 2.7607935441 2.7925268032 2.8242600623 
2.8559933214 2.8877265806 2.9194598397 2.9511930988 2.982926358 3.0146596171 3.0463928762 3.0781261353 3.1098593945 
3.1415926536 
_radius 1 100 double
1.2412670766e-15 0.012563491654 0.025097154741 0.037562508419 0.049910576319 0.062080398756 0.074000544031 0.085593162633 0.096779618356 
0.10748654153 0.11765122372 0.12722549307 0.13617748153 0.1444909771 0.15216235081 0.15919541679 0.16559511327 0.17136154412 
0.17648629702 0.18095251982 0.18473903363 0.18782755305 0.19021148686 0.19190473754 0.19294904667 0.19341852753 0.19342009226 
0.19308868105 0.19257676488 0.19203867917 0.19161182743 0.19139809798 0.19144916921 0.19175840742 0.19226034456 0.19283722521 
0.19333135762 0.19356184603 0.19334427208 0.19251171235 0.19093513234 0.18854092948 0.18532343373 0.18135054388 0.17676128605 
0.17175489489 0.16657212353 0.16147088988 0.15669970932 0.15247303528 0.14895231649 0.146235488 0.14435591429 0.14328944141 
0.14296566817 0.14327819141 0.14408994161 0.14523430846 0.14651847089 0.14773672864 0.14869510979 0.14923979748 0.14927982895 
0.14879896241 0.1478563962 0.14657808434 0.14514063443 0.14374973441 0.1426152738 0.14192565803 0.14182413852 0.14239025575 
0.14362936655 0.14547208649 0.14778326797 0.15037786087 0.15303994139 0.15554164956 0.15765995553 0.15919019865 0.15995601671 
0.15981582966 0.15866642069 0.15644400367 0.15312257747 0.14870917207 0.14323626198 0.13675259925 0.12931423214 0.12097733232 
0.11179390025 0.10181074854 0.091071553574 0.079621284907 0.067511980061 0.054808627944 0.041593869688 0.027970363247 0.014060029952 
1.0230540436e-15 
_area 1 100 double
0 0.00029924552455 0.0012031355718 0.0027259417871 0.0048794114284 0.0076604719483 0.011042122571 0.014969760253 0.019362191476 
0.024115236043 0.029106621019 0.034202765273 0.039269285016 0.044186107254 0.048864802485 0.053261754092 0.057378909745 0.061247122575 
0.064896365199 0.068326940692 0.071496602084 0.074329673692 0.076743802019 0.078681518988 0.080134198057 0.081156123026 0.081869447106 
0.082453987963 0.083114147323 0.084025490178 0.085284560865 0.086893489858 0.088782475217 0.090845984793 0.092969874693 0.095037274709 
0.096914126906 0.098428425991 0.0993648443 0.099497375988 0.098646594654 0.096726359141 0.093769810896 0.089936202917 0.085498193941 
0.080807407188 0.076234815827 0.07209090879 0.068563579115 0.065708197604 0.063471892037 0.061733371803 0.060350472862 0.059201906349 
0.058207018407 0.057311554871 0.056456080421 0.055578956626 0.054678262761 0.053942896513 0.053768577138 0.053886784927 0.053781685497 
0.053246774913 0.052259540897 0.050905211511 0.049331664405 0.047713694664 0.046224837566 0.045016612738 0.044205694401 0.043869365997 
0.044045273502 0.04472847408 0.045863434727 0.047340267992 0.049004959079 0.050679709785 0.052185076733 0.053360084804 0.054077106124 
0.054248410545 0.053824586227 0.05278765195 0.051141582173 0.048903052556 0.046096208079 0.042753868852 0.038923661682 0.034675230548 
0.03010558655 0.025341004649 0.020534358042 0.015857948601 0.011493447897 0.0076208814453 0.0044077679219 0.0019987283319 0.00050577828334 
4.1742418906e-17 
