# vtk DataFile Version 5.1
vtk output
ASCII
DATASET POLYDATA
POINTS 100 float
0.158824 0.0527073 0.683189 0.158746 0.0528297 0.683084 0.158533 0.0530849 0.682597 
0.158156 0.0534775 0.681713 0.157569 0.0540138 0.680411 0.156718 0.0546992 0.678658 
0.155547 0.0555351 0.676416 0.154003 0.0565152 0.673638 0.152042 0.0576226 0.670273 
0.149637 0.0588279 0.666269 0.146776 0.060088 0.661576 0.143465 0.0613471 0.656152 
0.139723 0.0625389 0.649966 0.135582 0.06359 0.643006 0.131075 0.0644246 0.635278 
0.126236 0.0649699 0.626813 0.121091 0.0651617 0.617661 0.115656 0.0649486 0.607895 
0.109933 0.0642973 0.597601 0.103913 0.0631945 0.586873 0.0975783 0.0616491 0.575805 
0.090906 0.0596914 0.564486 0.0838756 0.0573719 0.552985 0.0764751 0.0547584 0.541355 
0.0687062 0.051932 0.52962 0.0605887 0.0489828 0.517781 0.0521621 0.0460051 0.505814 
0.0434845 0.0430933 0.493679 0.0346286 0.040337 0.481322 0.0256753 0.0378181 0.468687 
0.0167059 0.0356078 0.455724 0.00779338 0.0337641 0.442391 -0.00100546 0.0323309 0.428663 
-0.00965639 0.0313367 0.414532 -0.0181513 0.0307947 0.400003 -0.0265085 0.0307029 0.385094 
-0.0347693 0.0310449 0.369824 -0.0429913 0.0317914 0.354206 -0.051239 0.0329017 0.338241 
-0.0595728 0.0343265 0.321909 -0.0680374 0.0360104 0.305163 -0.0766515 0.0378957 0.287933 
-0.0854 0.0399259 0.270127 -0.0942288 0.0420492 0.251638 -0.103045 0.0442226 0.232355 
-0.111719 0.0464148 0.212177 -0.120095 0.0486082 0.191027 -0.127998 0.0507997 0.16886 
-0.135251 0.0530007 0.145677 -0.141686 0.0552344 0.12153 -0.147157 0.0575327 0.0965183 
-0.15155 0.0599311 0.0707865 -0.154796 0.0624627 0.0445136 -0.156865 0.0651529 0.0178986 
-0.157777 0.068013 -0.0088555 -0.157587 0.0710354 -0.0355586 -0.156383 0.0741911 -0.0620483 
-0.154275 0.0774276 -0.088201 -0.151384 0.0806706 -0.113939 -0.147829 0.0838273 -0.139231 
-0.143717 0.0867914 -0.164088 -0.139139 0.0894507 -0.188551 -0.134163 0.0916945 -0.212679 
-0.12883 0.0934221 -0.236537 -0.123163 0.0945497 -0.260173 -0.117161 0.0950166 -0.283612 
-0.110816 0.0947887 -0.306843 -0.104112 0.09386 -0.329819 -0.0970371 0.0922511 -0.352454 
-0.0895864 0.0900061 -0.374635 -0.0817705 0.0871865 -0.396233 -0.073617 0.0838651 -0.417112 
-0.0651718 0.0801185 -0.437154 -0.0564991 0.0760207 -0.456262 -0.0476784 0.0716375 -0.474381 
-0.0388015 0.067023 -0.491492 -0.0299679 0.0622178 -0.507624 -0.0212808 0.05725 -0.522837 
-0.0128427 0.0521375 -0.53722 -0.00475161 0.0468924 -0.550872 0.00290167 0.0415256 -0.563889 
0.0100363 0.0360522 -0.576347 0.0165828 0.0304958 -0.58829 0.0224852 0.0248912 -0.599726 
0.0277012 0.019286 -0.61062 0.0322044 0.0137396 -0.620902 0.0359844 0.00832081 -0.630474 
0.0390486 0.00310348 -0.639226 0.0414219 -0.00183861 -0.647051 0.0431478 -0.00643719 -0.653862 
0.0442873 -0.0106346 -0.659607 0.0449173 -0.0143875 -0.664278 0.0451283 -0.0176694 -0.667918 
0.0450202 -0.0204705 -0.670615 0.0446974 -0.0227965 -0.6725 0.0442631 -0.0246648 -0.673727 
0.0438131 -0.0260999 -0.674459 0.0434297 -0.0271279 -0.67485 0.0431762 -0.0277718 -0.675024 
0.0430924 -0.0280468 -0.675064 
LINES 2 100
OFFSETS vtktypeint64
0 100 
CONNECTIVITY vtktypeint64
0 1 2 3 4 5 6 7 8 
9 10 11 12 13 14 15 16 17 
18 19 20 21 22 23 24 25 26 
27 28 29 30 31 32 33 34 35 
36 37 38 39 40 41 42 43 44 
45 46 47 48 49 50 51 52 53 
54 55 56 57 58 59 60 61 62 
63 64 65 66 67 68 69 70 71 
72 73 74 75 76 77 78 79 80 
81 82 83 84 85 86 87 88 89 
90 91 92 93 94 95 96 97 98 
99 
POINT_DATA 100
FIELD FieldData 3
_theta 1 100 double
0 0.031733259127 0.063466518254 0.095199777382 0.12693303651 0.15866629564 0.19039955476 0.22213281389 0.25386607302 
0.28559933214 0.31733259127 0.3490658504 0.38079910953 0.41253236865 0.44426562778 0.47599888691 0.50773214603 0.53946540516 
0.57119866429 0.60293192342 0.63466518254 0.66639844167 0.6981317008 0.72986495992 0.76159821905 0.79333147818 0.82506473731 
0.85679799643 0.88853125556 0.92026451469 0.95199777382 0.98373103294 1.0154642921 1.0471975512 1.0789308103 1.1106640695 
1.1423973286 1.1741305877 1.2058638468 1.237597106 1.2693303651 1.3010636242 1.3327968833 1.3645301425 1.3962634016 
1.4279966607 1.4597299198 1.491463179 1.5231964381 1.5549296972 1.5866629564 1.6183962155 1.6501294746 1.6818627337 
1.7135959929 1.745329252 1.7770625111 1.8087957702 1.8405290294 1.8722622885 1.9039955476 1.9357288068 1.9674620659 
1.999195325 2.0309285841 2.0626618433 2.0943951024 2.1261283615 2.1578616206 2.1895948798 2.2213281389 2.253061398 
2.2847946572 2.3165279163 2.3482611754 2.3799944345 2.4117276937 2.4434609528 2.4751942119 2.506927471 2.5386607302 
2.5703939893 2.6021272484 2.6338605076 2.6655937667 2.6973270258 2.7290602849 2.7607935441 2.7925268032 2.8242600623 
2.8559933214 2.8877265806 2.9194598397 2.9511930988 2.982926358 3.0146596171 3.0463928762 3.0781261353 3.1098593945 
3.1415926536 
_radius 1 100 double
5.2410472076e-16 0.014762805708 0.029351690055 0.043601796545 0.057375100998 0.070569790955 0.083124926958 0.09501979547 0.10626807745 
0.11690769762 0.12698790759 0.13655566709 0.14564357276 0.15426134709 0.16239226935 0.16999505237 0.17701072536 0.18337323097 
0.18902184629 0.19391337232 0.19803235805 0.20139820323 0.20406845331 0.20613780586 0.20773244123 0.20899953831 0.21009241414 
0.21115263326 0.21229144193 0.21357356834 0.21500636181 0.21653629383 0.21805334441 0.21940234683 0.22039945246 0.22085163567 
0.22057736718 0.21942687796 0.21730054988 0.21416386946 0.2100572286 0.20509887589 0.19947968807 0.19344921485 0.18729360928 
0.18130743435 0.17576270662 0.17087966784 0.16680442642 0.1635983531 0.16124222916 0.15965423813 0.15871612425 0.15829893214 
0.15828079804 0.15855385284 0.15902293025 0.15960233823 0.16021609046 0.16080239064 0.1613190282 0.16174605902 0.16208460083 
0.16235262086 0.1625790158 0.1627970292 0.16303793422 0.16332570158 0.1636729901 0.16407867074 0.16452723543 0.16499039366 
0.16543069883 0.16580635063 0.16607573855 0.16620016521 0.16614370629 0.16587023437 0.16533881659 0.16449939589 0.16329050561 
0.16163984885 0.15946739252 0.15668976802 0.15322462078 0.14899409336 0.1439274719 0.13796365415 0.13105417499 0.12316707224 
0.11429119428 0.10444001919 0.093653912744 0.082000033157 0.069569664186 0.056473423915 0.042835347339 0.028787107067 0.014463519991 
2.4244664025e-16 
_area 1 100 double
0 0.00057549196692 0.0022708543057 0.0049977342922 0.0086243020912 0.012994567749 0.017948972879 0.023342025155 0.029053713659 
0.034993076274 0.041094350288 0.047308128402 0.053590995675 0.059896636021 0.066169688108 0.07234175587 0.078328716366 0.084032005224 
0.089350671145 0.094205146417 0.09856150079 0.10244269451 0.10592072829 0.10909515968 0.11207254884 0.11495397481 0.11782320745 
0.12073094601 0.12368338681 0.12664229984 0.12953114831 0.13223760234 0.13460987082 0.13647487644 0.13765683575 0.13794091108 
0.13718224614 0.13531803528 0.13240577002 0.12851824696 0.12381201221 0.11848901417 0.11273028036 0.10677699951 0.10090234362 
0.095375714204 0.090432602845 0.086248436464 0.082913137723 0.080414793805 0.078643337059 0.077410052865 0.076476717474 0.07559857448 
0.074576204267 0.073302581724 0.071799669021 0.070248513463 0.069003785018 0.068394076253 0.068332339508 0.068514056615 0.068683594012 
0.068694809142 0.068496474442 0.068100611589 0.067541399087 0.066843327016 0.066004045025 0.065004564347 0.063838401651 0.062533439158 
0.061158042355 0.059821478644 0.058685987043 0.058061419582 0.057945426203 0.057995040153 0.058117295712 0.058239433966 0.058266098729 
0.058082567445 0.057565259824 0.056594663922 0.055071617803 0.052931841548 0.050149856489 0.046733292976 0.042717560991 0.038168283334 
0.033189828021 0.027931793876 0.022586240328 0.017374125869 0.012524606538 0.0082531513361 0.0047439670657 0.002139863269 0.00053957872628 
7.8130253009e-18 
