# vtk DataFile Version 5.1
vtk output
ASCII
DATASET POLYDATA
POINTS 100 float
0.130973 0.052273 0.653377 0.131029 0.0523472 0.653062 0.131231 0.0524657 0.651931 
0.131521 0.0526319 0.650016 0.131809 0.0528497 0.647362 0.131982 0.0531223 0.644024 
0.131923 0.0534511 0.640056 0.131518 0.0538343 0.635501 0.130676 0.0542654 0.630387 
0.129331 0.0547328 0.624723 0.127452 0.0552195 0.618495 0.125043 0.0557027 0.611679 
0.122139 0.0561555 0.604241 0.118795 0.0565474 0.596149 0.115081 0.0568465 0.587387 
0.111063 0.0570212 0.577963 0.106799 0.0570426 0.567917 0.102323 0.0568862 0.557323 
0.0976443 0.056534 0.546286 0.0927462 0.0559757 0.53494 0.0875876 0.0552098 0.52343 
0.0821123 0.0542436 0.511899 0.0762593 0.0530939 0.500477 0.0699745 0.0517856 0.489256 
0.0632228 0.050351 0.478287 0.0559968 0.0488284 0.467568 0.0483232 0.0472602 0.457042 
0.0402632 0.0456916 0.446608 0.031909 0.0441685 0.436126 0.0233751 0.0427355 0.425438 
0.0147863 0.0414348 0.414385 0.00626349 0.0403046 0.402827 -0.00209013 0.0393777 0.39066 
-0.0102017 0.0386808 0.377828 -0.018037 0.0382338 0.364329 -0.0256042 0.0380494 0.350216 
-0.0329518 0.0381335 0.335584 -0.0401604 0.038485 0.32056 -0.0473307 0.0390968 0.30528 
-0.0545669 0.0399564 0.289872 -0.0619593 0.0410472 0.274432 -0.0695673 0.0423493 0.259012 
-0.0774054 0.0438414 0.243607 -0.0854336 0.045501 0.228151 -0.0935543 0.0473063 0.212526 
-0.101615 0.0492361 0.196571 -0.109417 0.0512708 0.180101 -0.116733 0.0533922 0.16293 
-0.123322 0.0555832 0.144893 -0.128952 0.0578276 0.125865 -0.133418 0.060109 0.105782 
-0.136561 0.0624103 0.0846443 -0.13828 0.0647131 0.0625211 -0.138537 0.0669972 0.0395447 
-0.137358 0.0692405 0.0158963 -0.134829 0.0714195 -0.00821222 -0.131082 0.0735099 -0.032559 
-0.12628 0.0754875 -0.0569336 -0.120603 0.0773299 -0.081155 -0.114227 0.079017 -0.105086 
-0.10731 0.080533 -0.128638 -0.0999811 0.0818662 -0.151774 -0.0923343 0.0830096 -0.174501 
-0.0844241 0.08396 -0.196858 -0.07627 0.0847169 -0.2189 -0.0678635 0.08528 -0.240685 
-0.0591785 0.0856473 -0.262253 -0.0501827 0.0858121 -0.283624 -0.0408492 0.0857606 -0.30478 
-0.0311669 0.0854702 -0.325674 -0.0211473 0.0849084 -0.346228 -0.0108287 0.0840336 -0.366347 
-0.000275972 0.0827962 -0.385924 0.0104232 0.0811429 -0.404861 0.0211645 0.0790207 -0.423075 
0.0318358 0.0763831 -0.440509 0.0423259 0.0731959 -0.457134 0.0525339 0.0694436 -0.472949 
0.0623761 0.0651351 -0.487976 0.0717916 0.0603068 -0.502249 0.0807442 0.0550252 -0.515803 
0.0892224 0.0493859 -0.52866 0.0972362 0.0435105 -0.540822 0.104812 0.0375406 -0.552261 
0.111986 0.03163 -0.562921 0.118798 0.0259347 -0.572721 0.125284 0.0206026 -0.581562 
0.131471 0.015763 -0.589345 0.137372 0.0115174 -0.595986 0.142984 0.00793233 -0.60143 
0.148288 0.00503511 -0.605667 0.153251 0.00281259 -0.608741 0.157825 0.00121383 -0.610751 
0.161957 0.000155997 -0.61185 0.165584 -0.000466842 -0.612234 0.168648 -0.000772809 -0.61212 
0.171094 -0.000880212 -0.611732 0.172873 -0.000895604 -0.611275 0.173949 -0.000903062 -0.610914 
0.174301 -0.000955721 -0.610754 
LINES 2 100
OFFSETS vtktypeint64
0 100 
CONNECTIVITY vtktypeint64
0 1 2 3 4 5 6 7 8 
9 10 11 12 13 14 15 16 17 
18 19 20 21 22 23 24 25 26 
27 28 29 30 31 32 33 34 35 
36 37 38 39 40 41 42 43 44 
45 46 47 48 49 50 51 52 53 
54 55 56 57 58 59 60 61 62 
63 64 65 66 67 68 69 70 71 
72 73 74 75 76 77 78 79 80 
81 82 83 84 85 86 87 88 89 
90 91 92 93 94 95 96 97 98 
99 
POINT_DATA 100
FIELD FieldData 3
_theta 1 100 double
0 0.031733259127 0.063466518254 0.095199777382 0.12693303651 0.15866629564 0.19039955476 0.22213281389 0.25386607302 
0.28559933214 0.31733259127 0.3490658504 0.38079910953 0.41253236865 0.44426562778 0.47599888691 0.50773214603 0.53946540516 
0.57119866429 0.60293192342 0.63466518254 0.66639844167 0.6981317008 0.72986495992 0.76159821905 0.79333147818 0.82506473731 
0.85679799643 0.88853125556 0.92026451469 0.95199777382 0.98373103294 1.0154642921 1.0471975512 1.0789308103 1.1106640695 
1.1423973286 1.1741305877 1.2058638468 1.237597106 1.2693303651 1.3010636242 1.3327968833 1.3645301425 1.3962634016 
1.4279966607 1.4597299198 1.491463179 1.5231964381 1.5549296972 1.5866629564 1.6183962155 1.6501294746 1.6818627337 
1.7135959929 1.745329252 1.7770625111 1.8087957702 1.8405290294 1.8722622885 1.9039955476 1.9357288068 1.9674620659 
1.999195325 2.0309285841 2.0626618433 2.0943951024 2.1261283615 2.1578616206 2.1895948798 2.2213281389 2.253061398 
2.2847946572 2.3165279163 2.3482611754 2.3799944345 2.4117276937 2.4434609528 2.4751942119 2.506927471 2.5386607302 
2.5703939893 2.6021272484 2.6338605076 2.6655937667 2.6973270258 2.7290602849 2.7607935441 2.7925268032 2.8242600623 
2.8559933214 2.8877265806 2.9194598397 2.9511930988 2.982926358 3.0146596171 3.0463928762 3.0781261353 3.1098593945 
3.1415926536 
_radius 1 100 double
5.7971956608e-16 0.012070825463 0.024165503297 0.036294162066 0.048451136045 0.060608599582 0.07271230481 0.084680577 0.096407474305 
0.10777037317 0.11864135976 0.12890094318 0.13845200645 0.14723173867 0.15521958223 0.1624398939 0.16895889033 0.17487633977 
0.18031321228 0.18539700776 0.19024670933 0.19495927496 0.19959933205 0.2041933235 0.20872880233 0.21315890688 0.21741131166 
0.22140023058 0.22503949687 0.22825452903 0.23099122023 0.23322042839 0.23493761311 0.23615803008 0.23690857424 0.23721779673 
0.23710583255 0.23657601436 0.23560983576 0.23416662432 0.23218870239 0.22961189876 0.22638012918 0.22246169792 0.21786436422 
0.21264629801 0.20692075972 0.20085339141 0.19465207238 0.18855022803 0.18278542811 0.17757630427 0.17310198898 0.16948819416 
0.16680147341 0.16504916001 0.16418046302 0.16408668603 0.1646036031 0.16552181686 0.16660839453 0.16763712196 0.16841999497 
0.16883190432 0.1688232033 0.16841867215 0.16770456719 0.16680739766 0.16586894026 0.16502202385 0.16437089726 0.16397856497 
0.16386161857 0.16399149512 0.16430044341 0.16469079049 0.16504665041 0.16524722297 0.16518014273 0.16475251653 0.16389711422 
0.16257205786 0.16075407072 0.15842720569 0.15557017537 0.15214546235 0.14809241244 0.143325145 0.13773506752 0.13119738112 
0.12358103597 0.1147617209 0.10463730161 0.093144577901 0.080275501301 0.06609041159 0.050725723429 0.034393976518 0.017375208221 
6.5407299606e-16 
_area 1 100 double
0 0.00044796586041 0.0017940606564 0.0040411301688 0.0071829155587 0.011192051876 0.016010124444 0.021542882499 0.027661663861 
0.034210314754 0.041016039386 0.04790267513 0.054705326259 0.061285366102 0.067544186651 0.073433212255 0.078957539436 0.08417164921 
0.089167638286 0.094058405798 0.098959237665 0.1039707934 0.10916509909 0.11457507479 0.1201882275 0.12594501975 0.13174062012 
0.13742920438 0.14283483621 0.14777328736 0.15208102284 0.15564109061 0.15839704214 0.16035155173 0.16155243521 0.16207629482 
0.16206568093 0.16174644498 0.1609038455 0.15937939285 0.157042876 0.1537771651 0.14950636067 0.1442202472 0.13798702265 
0.13095372773 0.12333758238 0.1154111589 0.10748191678 0.099866243158 0.09286104181 0.086717494091 0.081617571883 0.077656654749 
0.074827642106 0.072976008261 0.07186222694 0.071283651944 0.071085293429 0.07111629334 0.07121288649 0.071190612762 0.070867161059 
0.070097487819 0.068802979296 0.066990967488 0.064757661196 0.062277888641 0.059770113825 0.057432863188 0.055398174879 0.053736467165 
0.052456477577 0.051528465151 0.050894121048 0.050500592558 0.050331889311 0.050449499228 0.051118460836 0.051960822758 0.052707990062 
0.053256202015 0.053509057312 0.053373436704 0.052763294321 0.051603412139 0.049832586787 0.047407312405 0.044306782845 0.040539905457 
0.036154384213 0.031246512654 0.025968770136 0.020531565666 0.015196092134 0.010257165696 0.0060174745602 0.0027569253033 0.00070200112096 
2.8027049669e-17 
