# vtk DataFile Version 5.1
vtk output
ASCII
DATASET POLYDATA
POINTS 100 float
0.116135 0.0630202 0.736828 0.116377 0.0633286 0.736747 0.117157 0.0641027 0.736275 
0.118404 0.0652844 0.735377 0.120007 0.0667829 0.734004 0.121826 0.0684831 0.732093 
0.123703 0.0702559 0.729575 0.125476 0.0719705 0.726385 0.126992 0.0735049 0.722466 
0.128117 0.0747561 0.717777 0.128749 0.0756478 0.712297 0.128818 0.0761343 0.706026 
0.128288 0.0762022 0.698988 0.127157 0.0758671 0.691225 0.125447 0.0751689 0.682798 
0.123201 0.0741638 0.673777 0.120469 0.0729157 0.664237 0.1173 0.0714872 0.654252 
0.113738 0.0699318 0.643886 0.109811 0.0682879 0.633191 0.105535 0.0665757 0.622203 
0.100908 0.0647968 0.610938 0.0959204 0.062937 0.599397 0.0905554 0.0609714 0.587565 
0.0847986 0.0588717 0.575418 0.0786446 0.0566139 0.562922 0.0721028 0.0541862 0.550044 
0.0652013 0.0515957 0.536752 0.0579886 0.0488723 0.523021 0.0505312 0.0460705 0.508837 
0.0429095 0.0432676 0.494193 0.0352101 0.0405593 0.479093 0.0275172 0.0380522 0.46355 
0.0199035 0.0358551 0.44758 0.0124215 0.0340688 0.4312 0.00509763 0.0327772 0.414425 
-0.00207141 0.0320389 0.397263 -0.00911819 0.0318821 0.379715 -0.0161003 0.0323021 0.36177 
-0.0230926 0.0332622 0.343408 -0.0301766 0.0346985 0.324602 -0.0374278 0.0365266 0.305316 
-0.0449034 0.0386512 0.285514 -0.0526302 0.0409762 0.265162 -0.060596 0.0434146 0.244229 
-0.068744 0.0458967 0.222697 -0.0769722 0.0483762 0.200558 -0.085137 0.050833 0.17782 
-0.0930627 0.0532727 0.154504 -0.100553 0.055722 0.130646 -0.107405 0.0582224 0.106294 
-0.11343 0.0608207 0.0815053 -0.118461 0.0635595 0.0563424 -0.122373 0.0664676 0.0308719 
-0.125091 0.0695521 0.00515985 -0.126592 0.0727932 -0.0207298 -0.126908 0.0761425 -0.0467372 
-0.126121 0.0795239 -0.0728063 -0.124353 0.0828395 -0.0988853 -0.12175 0.0859769 -0.124925 
-0.118473 0.0888198 -0.150876 -0.114678 0.091258 -0.176691 -0.110505 0.0931982 -0.202317 
-0.106066 0.0945718 -0.227701 -0.101435 0.0953405 -0.252785 -0.096653 0.0954989 -0.277508 
-0.091721 0.095072 -0.301811 -0.0866131 0.0941102 -0.325633 -0.0812839 0.0926816 -0.348918 
-0.0756814 0.0908614 -0.371619 -0.0697595 0.0887216 -0.393695 -0.0634904 0.0863215 -0.415118 
-0.056874 0.0836998 -0.435871 -0.0499447 0.0808706 -0.455949 -0.042773 0.0778221 -0.475356 
-0.0354638 0.0745203 -0.494103 -0.0281493 0.0709157 -0.512202 -0.0209798 0.0669532 -0.529667 
-0.0141112 0.0625829 -0.546503 -0.00769211 0.0577723 -0.562708 -0.0018511 0.0525158 -0.578267 
0.00331368 0.0468425 -0.593152 0.00774218 0.0408197 -0.607321 0.0114163 0.0345523 -0.620723 
0.0143592 0.0281774 -0.633299 0.0166315 0.0218548 -0.644988 0.0183228 0.0157545 -0.655732 
0.0195422 0.0100423 -0.665484 0.0204062 0.00486518 -0.674209 0.0210276 0.000338198 -0.681894 
0.0215056 -0.0034656 -0.688547 0.0219179 -0.00652093 -0.6942 0.0223164 -0.0088511 -0.698903 
0.0227259 -0.0105236 -0.702728 0.0231464 -0.0116409 -0.705756 0.0235586 -0.0123277 -0.708075 
0.0239305 -0.0127154 -0.709772 0.0242261 -0.0129262 -0.710923 0.0244128 -0.0130588 -0.711587 
0.0244682 -0.013176 -0.711803 
LINES 2 100
OFFSETS vtktypeint64
0 100 
CONNECTIVITY vtktypeint64
0 1 2 3 4 5 6 7 8 
9 10 11 12 13 14 15 16 17 
18 19 20 21 22 23 24 25 26 
27 28 29 30 31 32 33 34 35 
36 37 38 39 40 41 42 43 44 
45 46 47 48 49 50 51 52 53 
54 55 56 57 58 59 60 61 62 
63 64 65 66 67 68 69 70 71 
72 73 74 75 76 77 78 79 80 
81 82 83 84 85 86 87 88 89 
90 91 92 93 94 95 96 97 98 
99 
POINT_DATA 100
FIELD FieldData 3
_theta 1 100 double
0 0.031733259127 0.063466518254 0.095199777382 0.12693303651 0.15866629564 0.19039955476 0.22213281389 0.25386607302 
0.28559933214 0.31733259127 0.3490658504 0.38079910953 0.41253236865 0.44426562778 0.47599888691 0.50773214603 0.53946540516 
0.57119866429 0.60293192342 0.63466518254 0.66639844167 0.6981317008 0.72986495992 0.76159821905 0.79333147818 0.82506473731 
0.85679799643 0.88853125556 0.92026451469 0.95199777382 0.98373103294 1.0154642921 1.0471975512 1.0789308103 1.1106640695 
1.1423973286 1.1741305877 1.2058638468 1.237597106 1.2693303651 1.3010636242 1.3327968833 1.3645301425 1.3962634016 
1.4279966607 1.4597299198 1.491463179 1.5231964381 1.5549296972 1.5866629564 1.6183962155 1.6501294746 1.6818627337 
1.7135959929 1.745329252 1.7770625111 1.8087957702 1.8405290294 1.8722622885 1.9039955476 1.9357288068 1.9674620659 
1.999195325 2.0309285841 2.0626618433 2.0943951024 2.1261283615 2.1578616206 2.1895948798 2.2213281389 2.253061398 
2.2847946572 2.3165279163 2.3482611754 2.3799944345 2.4117276937 2.4434609528 2.4751942119 2.506927471 2.5386607302 
2.5703939893 2.6021272484 2.6338605076 2.6655937667 2.6973270258 2.7290602849 2.7607935441 2.7925268032 2.8242600623 
2.8559933214 2.8877265806 2.9194598397 2.9511930988 2.982926358 3.0146596171 3.0463928762 3.0781261353 3.1098593945 
3.1415926536 
_radius 1 100 double
7.0271504733e-16 0.014564164804 0.029015696462 0.043243535533 0.057153513997 0.070673033116 0.083751962997 0.096360092569 0.10848225803 
0.12011261868 0.13124932122 0.1418901976 0.15202955962 0.16165588909 0.17075032391 0.17928612348 0.1872294934 0.19454208092 
0.20118512587 0.20712482919 0.21233817874 0.2168183555 0.22057891303 0.22365609459 0.2261088507 0.22801632158 0.22947277157 
0.23058023777 0.23143949573 0.23214031653 0.23275228121 0.23331747503 0.2338461203 0.23431571184 0.23467370708 0.23484344261 
0.23473269364 0.23424408051 0.2332863314 0.23178528636 0.22969353954 0.22699778251 0.22372318889 0.21993448674 0.21573361892 
0.2112540574 0.20665195836 0.20209453142 0.19774636364 0.19375502088 0.19023791747 0.18727288989 0.18489471276 0.18309862542 
0.18184987508 0.18109607269 0.18077798649 0.18083512645 0.18120498602 0.18181803781 0.18259291825 0.18343627378 0.18424934855 
0.18494005406 0.18543682607 0.18569993217 0.1857268746 0.18555032475 0.18522873778 0.18483114994 0.18441911684 0.18403048661 
0.18367027403 0.1833113523 0.18290302146 0.18238244217 0.18168424564 0.18074596411 0.17950927384 0.17791843886 0.17591775574 
0.17344957309 0.17045385247 0.16686935721 0.16263566953 0.15769486512 0.15199213994 0.14547568341 0.1380969019 0.12981216471 
0.12058657675 0.11039935091 0.09924970233 0.087162076316 0.074189843875 0.060417048348 0.045958099032 0.030955408534 0.01557497544 
7.9080583682e-16 
_area 1 100 double
0 0.00056439683346 0.0022403518852 0.0049782017971 0.0087015046853 0.013314974164 0.018712946133 0.02478685707 0.031430985045 
0.03854645074 0.046043644866 0.053842904689 0.061873045265 0.07006776067 0.078360764678 0.086681168774 0.094950395262 0.10308079956 
0.11097488341 0.11852400713 0.12560764314 0.13209686401 0.1378660441 0.14281373116 0.14688894678 0.15011470861 0.15259781947 
0.15451545185 0.15607736895 0.15747509954 0.15883703593 0.1602053688 0.16153955334 0.16273890554 0.16367148377 0.16419893307 
0.16419248746 0.16354006413 0.1621480707 0.15994361353 0.15688141852 0.15295542982 0.14821114979 0.14275379607 0.13674873067 
0.13041263896 0.12399579446 0.1177575046 0.11193813032 0.10673084133 0.10225504661 0.098535715664 0.095501468859 0.09301557864 
0.090929809713 0.089127370663 0.087534079225 0.086108487461 0.084836379593 0.083739986773 0.082891329051 0.082396383663 0.082308730572 
0.082527417583 0.082837205148 0.083039089172 0.083012373732 0.082719830849 0.082190366966 0.081490329925 0.080695340694 0.079874202677 
0.079085357318 0.07837261395 0.077749624746 0.077195772493 0.076679230366 0.076171544364 0.075641253795 0.075042999183 0.074309116775 
0.073346175321 0.072040731008 0.070274636342 0.067944265777 0.064976341183 0.061336114145 0.05702816972 0.052093218787 0.046605144305 
0.040671149092 0.034434723809 0.028078191521 0.021820759801 0.015909712066 0.010605153383 0.0061606822226 0.0028027112309 0.00071065274598 
1.6130444164e-17 
