# vtk DataFile Version 5.1
vtk output
ASCII
DATASET POLYDATA
POINTS 100 float
0.173905 0.0309136 0.737945 0.173982 0.0312285 0.737691 0.174252 0.0320407 0.736765 
0.17466 0.0332942 0.73517 0.175118 0.0349029 0.732909 0.175515 0.0367607 0.729987 
0.175722 0.0387537 0.726407 0.175605 0.0407721 0.722172 0.17503 0.0427215 0.71728 
0.17388 0.0445317 0.71173 0.172054 0.0461601 0.705518 0.169478 0.0475927 0.698647 
0.166107 0.0488393 0.691123 0.161924 0.0499263 0.682961 0.156941 0.0508871 0.674189 
0.151194 0.0517513 0.664847 0.14474 0.052536 0.654986 0.137651 0.0532388 0.644667 
0.130009 0.0538355 0.633955 0.121904 0.0542807 0.622915 0.113425 0.0545142 0.611605 
0.104662 0.0544695 0.600066 0.0957016 0.0540852 0.588324 0.0866231 0.0533166 0.576379 
0.0775003 0.0521466 0.564211 0.0683983 0.0505926 0.551777 0.0593723 0.0487108 0.53902 
0.0504652 0.0465939 0.525878 0.0417064 0.0443652 0.512287 0.0331085 0.0421672 0.498199 
0.0246665 0.0401485 0.483585 0.0163561 0.0384477 0.468439 0.00813416 0.0371793 0.452788 
-5.94366e-05 0.0364217 0.436683 -0.0082983 0.0362084 0.420195 -0.0166638 0.0365264 0.403408 
-0.0252376 0.0373181 0.386403 -0.0340932 0.0384899 0.369246 -0.0432865 0.039925 0.351974 
-0.0528468 0.041498 0.334589 -0.0627693 0.0430914 0.317047 -0.0730092 0.0446098 0.299259 
-0.0834789 0.0459915 0.281097 -0.0940496 0.0472152 0.262405 -0.104555 0.0483014 0.243013 
-0.1148 0.0493077 0.222756 -0.124571 0.05032 0.201496 -0.133653 0.0514393 0.179135 
-0.141839 0.052767 0.155634 -0.148946 0.0543897 0.13102 -0.15483 0.0563671 0.105387 
-0.159394 0.0587223 0.0788946 -0.162591 0.0614381 0.0517512 -0.164432 0.0644572 0.0242005 
-0.164978 0.0676892 -0.00350146 -0.164333 0.0710197 -0.0311074 -0.162636 0.0743239 -0.0583999 
-0.160045 0.0774799 -0.0852077 -0.156725 0.0803815 -0.111417 -0.152829 0.0829486 -0.136975 
-0.148494 0.0851326 -0.161886 -0.143823 0.086919 -0.186203 -0.138882 0.0883235 -0.21001 
-0.133701 0.0893852 -0.233408 -0.128273 0.0901563 -0.256489 -0.122561 0.0906907 -0.279328 
-0.11651 0.0910332 -0.301964 -0.110056 0.0912098 -0.324394 -0.103136 0.0912219 -0.346574 
-0.0957054 0.0910451 -0.368425 -0.087742 0.0906311 -0.389843 -0.0792551 0.089915 -0.410712 
-0.0702884 0.0888244 -0.430926 -0.0609196 0.0872918 -0.450398 -0.0512561 0.0852653 -0.469074 
-0.0414285 0.0827198 -0.486942 -0.0315808 0.0796636 -0.504028 -0.0218601 0.0761425 -0.520395 
-0.012406 0.072239 -0.53613 -0.00334067 0.0680671 -0.551326 0.00523849 0.0637641 -0.566071 
0.0132644 0.0594788 -0.580427 0.020702 0.0553597 -0.594419 0.0275475 0.0515426 -0.608026 
0.0338246 0.0481401 -0.621182 0.0395775 0.0452338 -0.633775 0.044864 0.04287 -0.645665 
0.0497461 0.0410587 -0.656696 0.054282 0.0397766 -0.666716 0.0585189 0.0389728 -0.675596 
0.0624869 0.0385753 -0.683248 0.0661962 0.0385004 -0.689638 0.0696362 0.0386596 -0.694787 
0.0727771 0.0389674 -0.698775 0.0755741 0.0393461 -0.701727 0.0779724 0.0397294 -0.703804 
0.0799147 0.0400643 -0.705177 0.0813471 0.0403105 -0.706009 0.0822261 0.0404406 -0.706435 
0.0825234 0.0404382 -0.706544 
LINES 2 100
OFFSETS vtktypeint64
0 100 
CONNECTIVITY vtktypeint64
0 1 2 3 4 5 6 7 8 
9 10 11 12 13 14 15 16 17 
18 19 20 21 22 23 24 25 26 
27 28 29 30 31 32 33 34 35 
36 37 38 39 40 41 42 43 44 
45 46 47 48 49 50 51 52 53 
54 55 56 57 58 59 60 61 62 
63 64 65 66 67 68 69 70 71 
72 73 74 75 76 77 78 79 80 
81 82 83 84 85 86 87 88 89 
90 91 92 93 94 95 96 97 98 
99 
POINT_DATA 100
FIELD FieldData 3
_theta 1 100 double
0 0.031733259127 0.063466518254 0.095199777382 0.12693303651 0.15866629564 0.19039955476 0.22213281389 0.25386607302 
0.28559933214 0.31733259127 0.3490658504 0.38079910953 0.41253236865 0.44426562778 0.47599888691 0.50773214603 0.53946540516 
0.57119866429 0.60293192342 0.63466518254 0.66639844167 0.6981317008 0.72986495992 0.76159821905 0.79333147818 0.82506473731 
0.85679799643 0.88853125556 0.92026451469 0.95199777382 0.98373103294 1.0154642921 1.0471975512 1.0789308103 1.1106640695 
1.1423973286 1.1741305877 1.2058638468 1.237597106 1.2693303651 1.3010636242 1.3327968833 1.3645301425 1.3962634016 
1.4279966607 1.4597299198 1.491463179 1.5231964381 1.5549296972 1.5866629564 1.6183962155 1.6501294746 1.6818627337 
1.7135959929 1.745329252 1.7770625111 1.8087957702 1.8405290294 1.8722622885 1.9039955476 1.9357288068 1.9674620659 
1.999195325 2.0309285841 2.0626618433 2.0943951024 2.1261283615 2.1578616206 2.1895948798 2.2213281389 2.253061398 
2.2847946572 2.3165279163 2.3482611754 2.3799944345 2.4117276937 2.4434609528 2.4751942119 2.506927471 2.5386607302 
2.5703939893 2.6021272484 2.6338605076 2.6655937667 2.6973270258 2.7290602849 2.7607935441 2.7925268032 2.8242600623 
2.8559933214 2.8877265806 2.9194598397 2.9511930988 2.982926358 3.0146596171 3.0463928762 3.0781261353 3.1098593945 
3.1415926536 
_radius 1 100 double
3.6321646602e-16 0.01514463437 0.030103251518 0.044705053458 0.058813926961 0.0723386094 0.085235398054 0.097503284282 0.1091730891 
0.12029348779 0.13091717645 0.14108968358 0.15084188091 0.16018585903 0.16911313621 0.17759433805 0.18558023815 0.19300483923 
0.19979147295 0.20586245544 0.21115180502 0.21561934199 0.21926359917 0.22213064473 0.22431624323 0.2259597509 0.22722968226 
0.22830275578 0.22933992764 0.23046379712 0.2317413745 0.23317471949 0.23470014556 0.236195335 0.23749309385 0.2384002972 
0.23872035552 0.23827706781 0.23693720659 0.23462896123 0.23135366504 0.22718901204 0.22228305345 0.21683950114 0.21109620467 
0.20530004858 0.19968265351 0.19444157424 0.18973054021 0.18565952492 0.18230181823 0.17970241444 0.17788166408 0.17683108852 
0.17650349093 0.17680412476 0.17759054184 0.17868489119 0.17989629957 0.18104655163 0.18199183675 0.18263594256 0.18293376311 
0.18288687015 0.18253442292 0.18194245777 0.18119312478 0.18037418876 0.17956896411 0.17884736604 0.1782591321 0.1778301363 
0.17756211653 0.17743525578 0.1774122109 0.17744178315 0.17746080302 0.1773938973 0.1771521064 0.17663217135 0.17571830162 
0.17428732175 0.17221663205 0.16939312493 0.16572076225 0.16112508916 0.15555412033 0.14897622115 0.14137642841 0.13275293375 
0.12311516459 0.11248415729 0.10089498734 0.088400241129 0.075073168823 0.061009337577 0.046326171001 0.031160431382 0.015664192406 
8.6148316277e-16 
_area 1 100 double
0 0.0005437812209 0.0021463923999 0.004727020487 0.0081685188242 0.012340909198 0.017125315411 0.022427405802 0.028173770296 
0.034296391491 0.040717379723 0.047342932803 0.054069123109 0.060796927887 0.067449733169 0.07398432639 0.080387783411 0.086658586026 
0.092779494344 0.098696549881 0.10431658025 0.10952578145 0.11422250446 0.11835301833 0.12193841218 0.12508262638 0.1279566018 
0.1307616172 0.13368378159 0.13685695501 0.14034712468 0.14415428629 0.14820159109 0.15228363888 0.1560517788 0.15909875885 
0.16104473912 0.16159253588 0.1605703046 0.15795843196 0.1538918323 0.14863561199 0.14253739466 0.1359633475 0.12923419118 
0.12258673219 0.11617516339 0.11009903425 0.1044346931 0.099258024395 0.094653862479 0.090708098021 0.08749106668 0.085048675027 
0.083381206075 0.082375502141 0.081771502654 0.081239522156 0.080490124395 0.079343662621 0.077756837409 0.075817959808 0.073718628647 
0.071705965128 0.070024789064 0.068790403071 0.067923441709 0.067290373472 0.066789113541 0.06636480558 0.066008967317 0.065743916649 
0.065591981992 0.065566274793 0.065665407002 0.065870169317 0.066168947392 0.066565245286 0.067053349802 0.067582644087 0.068042455231 
0.068272133928 0.06807255434 0.067217711265 0.065501012218 0.062796864902 0.059086975761 0.054452982459 0.049053335746 0.043095532301 
0.03681114279 0.03043790463 0.024208985961 0.018346137946 0.013052759642 0.0085052027029 0.0048441603029 0.0021700077435 0.00054481483643 
4.2953687566e-17 
