# vtk DataFile Version 5.1
vtk output
ASCII
DATASET POLYDATA
POINTS 100 float
0.0899593 0.0578085 0.732228 0.0900183 0.0584099 0.732185 0.0902928 0.0600078 0.731838 
0.0907676 0.0624551 0.731169 0.0914164 0.0655247 0.730146 0.0922012 0.0689329 0.728728 
0.0930725 0.0723697 0.726859 0.0939685 0.0755304 0.724478 0.0948169 0.0781458 0.721519 
0.0955365 0.0800081 0.717912 0.0960409 0.0809888 0.713595 0.0962424 0.0810468 0.708509 
0.0960577 0.0802275 0.702609 0.0954126 0.0786512 0.695867 0.0942476 0.0764949 0.688273 
0.0925216 0.0739681 0.679839 0.0902146 0.0712873 0.6706 0.0873282 0.0686504 0.660611 
0.0838848 0.0662162 0.649946 0.0799234 0.0640898 0.638695 0.0754955 0.0623154 0.626956 
0.070659 0.0608773 0.614828 0.0654718 0.0597087 0.602408 0.0599865 0.0587053 0.589779 
0.0542456 0.0577435 0.577008 0.0482796 0.0566989 0.564138 0.0421059 0.0554642 0.551188 
0.0357309 0.0539625 0.538148 0.0291536 0.0521567 0.524988 0.0223702 0.0500519 0.511652 
0.0153798 0.0476932 0.498072 0.00818931 0.0451576 0.484172 0.000816964 0.0425436 0.469875 
-0.00670552 0.0399582 0.455113 -0.0143336 0.0375055 0.439831 -0.0220125 0.0352764 0.423996 
-0.0296825 0.0333422 0.407593 -0.0372851 0.0317519 0.390636 -0.04477 0.0305343 0.373152 
-0.0521014 0.0297019 0.355188 -0.059263 0.0292585 0.336797 -0.0662602 0.0292062 0.318029 
-0.0731192 0.0295525 0.298926 -0.079883 0.0303138 0.279512 -0.0866036 0.0315171 0.259786 
-0.0933328 0.0331972 0.239719 -0.10011 0.0353908 0.219253 -0.106953 0.0381281 0.198306 
-0.113845 0.0414237 0.176776 -0.120729 0.0452666 0.154552 -0.127506 0.0496142 0.131524 
-0.134034 0.0543875 0.107601 -0.140136 0.0594724 0.0827146 -0.145607 0.064725 0.0568386 
-0.150235 0.0699808 0.0299918 -0.15381 0.0750682 0.00224409 -0.156147 0.0798233 -0.026284 
-0.157098 0.0841051 -0.0554258 -0.156567 0.0878083 -0.084978 -0.154518 0.0908735 -0.114712 
-0.150979 0.0932914 -0.144392 -0.146041 0.0951019 -0.173785 -0.139846 0.0963876 -0.202683 
-0.132582 0.0972623 -0.230909 -0.124462 0.0978551 -0.258335 -0.115709 0.0982939 -0.284879 
-0.106539 0.0986882 -0.310512 -0.097146 0.0991143 -0.335249 -0.0876899 0.099605 -0.359144 
-0.0782889 0.100144 -0.382276 -0.0690169 0.100665 -0.404735 -0.0599059 0.10106 -0.426609 
-0.0509523 0.101192 -0.447969 -0.0421272 0.100902 -0.468861 -0.0333879 0.100036 -0.489293 
-0.0246907 0.0984548 -0.50924 -0.0160021 0.0960504 -0.528639 -0.00730845 0.0927579 -0.547397 
0.00137787 0.088562 -0.565403 0.0100161 0.0834984 -0.582537 0.018538 0.077651 -0.59868 
0.0268527 0.0711442 -0.613731 0.0348539 0.0641326 -0.627614 0.0424287 0.0567884 -0.640286 
0.0494677 0.0492889 -0.65174 0.0558743 0.0418047 -0.662003 0.0615724 0.0344904 -0.671135 
0.0665127 0.0274779 -0.67922 0.0706763 0.0208724 -0.686355 0.0740747 0.0147524 -0.692643 
0.0767489 0.00917124 -0.698182 0.0787648 0.00416096 -0.703055 0.0802078 -0.000262833 -0.707326 
0.0811756 -0.00409596 -0.711039 0.0817716 -0.00734107 -0.714212 0.0820968 -0.0100038 -0.716849 
0.0822437 -0.0120903 -0.718936 0.0822903 -0.0136051 -0.720454 0.0822955 -0.0145509 -0.721381 
0.0822955 -0.0149282 -0.721701 
LINES 2 100
OFFSETS vtktypeint64
0 100 
CONNECTIVITY vtktypeint64
0 1 2 3 4 5 6 7 8 
9 10 11 12 13 14 15 16 17 
18 19 20 21 22 23 24 25 26 
27 28 29 30 31 32 33 34 35 
36 37 38 39 40 41 42 43 44 
45 46 47 48 49 50 51 52 53 
54 55 56 57 58 59 60 61 62 
63 64 65 66 67 68 69 70 71 
72 73 74 75 76 77 78 79 80 
81 82 83 84 85 86 87 88 89 
90 91 92 93 94 95 96 97 98 
99 
POINT_DATA 100
FIELD FieldData 3
_theta 1 100 double
0 0.031733259127 0.063466518254 0.095199777382 0.12693303651 0.15866629564 0.19039955476 0.22213281389 0.25386607302 
0.28559933214 0.31733259127 0.3490658504 0.38079910953 0.41253236865 0.44426562778 0.47599888691 0.50773214603 0.53946540516 
0.57119866429 0.60293192342 0.63466518254 0.66639844167 0.6981317008 0.72986495992 0.76159821905 0.79333147818 0.82506473731 
0.85679799643 0.88853125556 0.92026451469 0.95199777382 0.98373103294 1.0154642921 1.0471975512 1.0789308103 1.1106640695 
1.1423973286 1.1741305877 1.2058638468 1.237597106 1.2693303651 1.3010636242 1.3327968833 1.3645301425 1.3962634016 
1.4279966607 1.4597299198 1.491463179 1.5231964381 1.5549296972 1.5866629564 1.6183962155 1.6501294746 1.6818627337 
1.7135959929 1.745329252 1.7770625111 1.8087957702 1.8405290294 1.8722622885 1.9039955476 1.9357288068 1.9674620659 
1.999195325 2.0309285841 2.0626618433 2.0943951024 2.1261283615 2.1578616206 2.1895948798 2.2213281389 2.253061398 
2.2847946572 2.3165279163 2.3482611754 2.3799944345 2.4117276937 2.4434609528 2.4751942119 2.506927471 2.5386607302 
2.5703939893 2.6021272484 2.6338605076 2.6655937667 2.6973270258 2.7290602849 2.7607935441 2.7925268032 2.8242600623 
2.8559933214 2.8877265806 2.9194598397 2.9511930988 2.982926358 3.0146596171 3.0463928762 3.0781261353 3.1098593945 
3.1415926536 
_radius 1 100 double
1.0019916567e-15 0.014511479216 0.02910882833 0.043844183569 0.058730776185 0.073731532748 0.088755646504 0.10366381582 0.11828139927 
0.13241739908 0.14588626551 0.15852918623 0.17023177455 0.18093576132 0.19064324918 0.19941314592 0.20735042581 0.21458976778 
0.22127581539 0.22754275541 0.23349607643 0.2391991563 0.2446666445 0.24986547949 0.2547230612 0.259140964 0.26301189036 
0.26623732841 0.26874342228 0.2704927827 0.27149039691 0.27178254545 0.27144873369 0.27058797757 0.26930204666 0.26767904305 
0.26578060928 0.2636350463 0.26123706478 0.25855344361 0.25553303407 0.2521193888 0.24826448606 0.24394214443 0.23915954269 
0.23396483785 0.22844856299 0.22273686542 0.2169763035 0.21131290075 0.20587136543 0.20074190976 0.19598041218 0.19162241068 
0.18770425226 0.18427994361 0.18142397068 0.17921791935 0.1777267943 0.17697453005 0.17692696719 0.1774876306 0.17850848805 
0.1798132614 0.18122574198 0.18259394051 0.18380401007 0.18478267454 0.18549080176 0.18591353469 0.18605339793 0.18592972002 
0.18558101399 0.1850630394 0.18443892999 0.18376493964 0.18307831409 0.18239062146 0.18168556449 0.1809189866 0.18001965304 
0.17889041964 0.17741013915 0.17543723322 0.1728159242 0.16938531538 0.16499025194 0.15949209931 0.15277768244 0.14476536678 
0.13540815536 0.12469442002 0.11264732902 0.099324076045 0.084815613713 0.069246861833 0.052776601666 0.035595854072 0.017923683543 
1.5259306369e-15 
_area 1 100 double
0 0.00056590212558 0.0022659085589 0.0051057081199 0.0090903025702 0.014216299466 0.020460700256 0.027768151656 0.036040278527 
0.045130980317 0.054850002272 0.064974246 0.075263876871 0.085480812598 0.095410629765 0.10488924725 0.11382870015 0.12222980296 
0.13017255204 0.13778521546 0.14520215616 0.15252352109 0.1597871235 0.16695730448 0.17393021566 0.18055164512 0.18664292061 
0.19203118674 0.19658011426 0.20021519446 0.20293601707 0.20480931049 0.20594267586 0.20644757805 0.20640533455 0.20584733426 
0.20475314249 0.2030635021 0.20070192313 0.19759780139 0.19370508016 0.18901268931 0.18354586136 0.17736106589 0.17054106676 
0.16319706223 0.15547855193 0.14758221219 0.13974815093 0.13223842773 0.12530063787 0.11912110559 0.11377632094 0.10920003394 
0.10522066239 0.10168735784 0.098550791708 0.095840024772 0.093588618871 0.091776212492 0.090311072028 0.08903668833 0.087772480863 
0.086396937219 0.084900623717 0.083360014669 0.081852533782 0.080370772744 0.078831194156 0.07716393358 0.075358968101 0.073456492208 
0.07152570401 0.069646355399 0.067896127911 0.066346062132 0.065052251019 0.064048028961 0.063381106959 0.063164888436 0.063526547296 
0.064211355929 0.064783371044 0.064938937903 0.064432833446 0.063067837363 0.060715866872 0.057333765687 0.052965802108 0.047734144411 
0.041822367824 0.035458314807 0.028900105706 0.022424656452 0.016316079977 0.010852618181 0.0062923564011 0.0028583815438 0.00072409818806 
1.7997756063e-17 
