# vtk DataFile Version 5.1
vtk output
ASCII
DATASET POLYDATA
POINTS 100 float
0.0981433 0.0449953 0.698301 0.0982238 0.0452064 0.698244 0.0985007 0.0457467 0.697863 
0.0989302 0.0465818 0.697153 0.0994468 0.0476559 0.696101 0.0999718 0.0488969 0.694687 
0.100425 0.0502219 0.692877 0.100734 0.051544 0.690617 0.100843 0.0527794 0.687839 
0.100721 0.0538535 0.684458 0.10036 0.0547063 0.680374 0.0997708 0.0552961 0.67549 
0.0989807 0.0556013 0.669711 0.0980191 0.0556207 0.662963 0.0969083 0.0553712 0.655202 
0.095652 0.0548842 0.646423 0.0942268 0.0542016 0.636666 0.0925784 0.0533697 0.626019 
0.0906217 0.0524345 0.614612 0.0882465 0.0514369 0.602608 0.0853293 0.050409 0.590194 
0.0817465 0.0493721 0.577556 0.0773915 0.0483361 0.56487 0.0721901 0.0473004 0.552279 
0.0661135 0.046257 0.539881 0.0591871 0.0451939 0.527721 0.0514923 0.0440993 0.515783 
0.0431622 0.0429663 0.503999 0.0343702 0.0417964 0.492251 0.0253137 0.0406031 0.480389 
0.0161935 0.0394129 0.468249 0.00719259 0.0382655 0.455669 -0.00154316 0.0372125 0.442506 
-0.0099206 0.0363136 0.428654 -0.0179082 0.0356329 0.414047 -0.0255372 0.0352336 0.398667 
-0.0328947 0.0351727 0.38254 -0.0401092 0.0354959 0.365724 -0.0473304 0.0362338 0.348302 
-0.0547053 0.0373987 0.33036 -0.0623536 0.0389833 0.311976 -0.0703468 0.0409613 0.293204 
-0.078691 0.0432887 0.274066 -0.0873181 0.0459078 0.254546 -0.0960861 0.0487509 0.234594 
-0.104788 0.0517453 0.214132 -0.113168 0.0548184 0.193066 -0.120945 0.0579018 0.171303 
-0.127842 0.0609353 0.148765 -0.133609 0.0638695 0.125403 -0.138052 0.066667 0.101214 
-0.141046 0.0693026 0.0762399 -0.142553 0.0717623 0.0505751 -0.142621 0.0740413 0.0243568 
-0.141377 0.0761415 -0.00224408 -0.139011 0.078069 -0.0290378 -0.135757 0.079831 -0.0558325 
-0.131868 0.081434 -0.082451 -0.127587 0.0828819 -0.108745 -0.123125 0.0841751 -0.134606 
-0.118643 0.0853098 -0.15997 -0.11424 0.0862785 -0.184817 -0.109945 0.0870705 -0.209167 
-0.105725 0.0876722 -0.233067 -0.101494 0.0880683 -0.256578 -0.0971277 0.0882417 -0.279762 
-0.0924867 0.0881744 -0.302668 -0.0874346 0.0878471 -0.325324 -0.0818579 0.087239 -0.347724 
-0.0756814 0.0863279 -0.369835 -0.0688781 0.08509 -0.391595 -0.0614733 0.0835004 -0.412921 
-0.0535428 0.0815339 -0.433722 -0.0452051 0.0791669 -0.453908 -0.0366096 0.0763797 -0.473401 
-0.0279228 0.0731589 -0.492147 -0.0193128 0.0695011 -0.510117 -0.0109358 0.0654158 -0.527314 
-0.00292456 0.0609282 -0.543762 0.00461928 0.0560812 -0.559507 0.011629 0.0509364 -0.574599 
0.0180726 0.0455731 -0.58909 0.0239491 0.0400864 -0.603017 0.0292822 0.034583 -0.616396 
0.0341127 0.0291762 -0.629217 0.0384903 0.0239792 -0.641443 0.0424661 0.0190987 -0.653013 
0.046087 0.0146275 -0.663849 0.049391 0.0106389 -0.673868 0.0524056 0.00718193 -0.682988 
0.0551475 0.00427816 -0.691143 0.0576234 0.00192152 -0.69829 0.0598326 7.97993e-05 -0.704414 
0.0617696 -0.00130122 -0.709531 0.0634262 -0.00229179 -0.713683 0.0647935 -0.00297076 -0.716931 
0.0658639 -0.0034174 -0.719348 0.0666312 -0.00370331 -0.721006 0.0670912 -0.00388508 -0.721967 
0.0672418 -0.00399855 -0.722269 
LINES 2 100
OFFSETS vtktypeint64
0 100 
CONNECTIVITY vtktypeint64
0 1 2 3 4 5 6 7 8 
9 10 11 12 13 14 15 16 17 
18 19 20 21 22 23 24 25 26 
27 28 29 30 31 32 33 34 35 
36 37 38 39 40 41 42 43 44 
45 46 47 48 49 50 51 52 53 
54 55 56 57 58 59 60 61 62 
63 64 65 66 67 68 69 70 71 
72 73 74 75 76 77 78 79 80 
81 82 83 84 85 86 87 88 89 
90 91 92 93 94 95 96 97 98 
99 
POINT_DATA 100
FIELD FieldData 3
_theta 1 100 double
0 0.031733259127 0.063466518254 0.095199777382 0.12693303651 0.15866629564 0.19039955476 0.22213281389 0.25386607302 
0.28559933214 0.31733259127 0.3490658504 0.38079910953 0.41253236865 0.44426562778 0.47599888691 0.50773214603 0.53946540516 
0.57119866429 0.60293192342 0.63466518254 0.66639844167 0.6981317008 0.72986495992 0.76159821905 0.79333147818 0.82506473731 
0.85679799643 0.88853125556 0.92026451469 0.95199777382 0.98373103294 1.0154642921 1.0471975512 1.0789308103 1.1106640695 
1.1423973286 1.1741305877 1.2058638468 1.237597106 1.2693303651 1.3010636242 1.3327968833 1.3645301425 1.3962634016 
1.4279966607 1.4597299198 1.491463179 1.5231964381 1.5549296972 1.5866629564 1.6183962155 1.6501294746 1.6818627337 
1.7135959929 1.745329252 1.7770625111 1.8087957702 1.8405290294 1.8722622885 1.9039955476 1.9357288068 1.9674620659 
1.999195325 2.0309285841 2.0626618433 2.0943951024 2.1261283615 2.1578616206 2.1895948798 2.2213281389 2.253061398 
2.2847946572 2.3165279163 2.3482611754 2.3799944345 2.4117276937 2.4434609528 2.4751942119 2.506927471 2.5386607302 
2.5703939893 2.6021272484 2.6338605076 2.6655937667 2.6973270258 2.7290602849 2.7607935441 2.7925268032 2.8242600623 
2.8559933214 2.8877265806 2.9194598397 2.9511930988 2.982926358 3.0146596171 3.0463928762 3.0781261353 3.1098593945 
3.1415926536 
_radius 1 100 double
8.8885578776e-16 0.013926727186 0.027890958315 0.041914589202 0.055999606065 0.070119198834 0.084210777041 0.098172486365 0.11186478066 
0.12511802772 0.13774612575 0.14956491519 0.16041308734 0.17017259099 0.17878536945 0.18626361946 0.19269155303 0.19821775845 
0.20303862708 0.20737484448 0.21144439652 0.21543644425 0.21949027432 0.22368223913 0.22802168374 0.23245509321 0.23687657248 
0.241142347 0.24508709146 0.24854035093 0.25134184994 0.25335484475 0.25447677686 0.25464645508 0.2538470569 0.25210457552 
0.24948197359 0.24607008541 0.24197697398 0.23731773884 0.23220656918 0.22675221466 0.22105720157 0.21522025435 0.20934063848 
0.20352264783 0.19787836586 0.19252724675 0.18759194629 0.18319091529 0.17942913634 0.17638867712 0.17412038108 0.17263736329 
0.17191060273 0.17186715079 0.17239200736 0.17333482983 0.17452188948 0.17577232109 0.17691641189 0.17781302606 0.17836342651 
0.1785195369 0.17828572543 0.17771418415 0.17689477295 0.17594079618 0.17497263321 0.17410142993 0.17341500741 0.17296757307 
0.1727738473 0.1728073935 0.17300280588 0.17326179853 0.17346318367 0.1734755766 0.17317025341 0.17243136566 0.17116188617 
0.16928521131 0.16674339625 0.16349335611 0.15950223104 0.15474278071 0.14918939495 0.1428152072 0.13559082168 0.12748514597 
0.11846861094 0.10851864042 0.097626711703 0.085805902539 0.073097603622 0.059576158698 0.045350539304 0.030562654866 0.015382405479 
7.2128514989e-16 
_area 1 100 double
0 0.00050422613546 0.002015878513 0.0045321361323 0.0080482103045 0.012554838317 0.018032252431 0.02444073191 0.031708440511 
0.039717574221 0.048291713372 0.057190928757 0.066122926259 0.074774228542 0.08285680311 0.090158552484 0.0965841967 0.10217579131 
0.10710713082 0.11165142425 0.116126513 0.120828504 0.1259727318 0.1316616851 0.13788546703 0.14454253797 0.15146421965 
0.15843489765 0.16520804698 0.17152033561 0.17710535487 0.18170820737 0.18510197469 0.18710577676 0.18760197112 0.18654857812 
0.18398354255 0.18001971913 0.17483190711 0.16863833629 0.16167882469 0.15419230245 0.14639870402 0.13849131077 0.13064092366 
0.12300529212 0.115734432 0.10896745259 0.10282369645 0.097394722564 0.092742565186 0.088904666698 0.085899437457 0.083724055936 
0.082340728431 0.081658965971 0.081531619536 0.081774760727 0.082202177489 0.082654786363 0.083010531164 0.083175041053 0.083066775243 
0.082612128402 0.081754635581 0.080470514445 0.078781171849 0.076758444287 0.074522280161 0.072230925987 0.070062262739 0.068185107984 
0.066727263813 0.065764157644 0.065325459246 0.065376873455 0.065812523994 0.066478737947 0.067196599636 0.067779048056 0.068046011847 
0.067837350115 0.067023257543 0.065511944691 0.063253867999 0.060241732311 0.056506478995 0.05211104087 0.047144680752 0.041720220296 
0.035974415383 0.030069331804 0.02419132871 0.018544935814 0.013341128924 0.0087820738266 0.0050460271423 0.002275986081 0.0005739328683 
7.2236951077e-18 
