# vtk DataFile Version 5.1
vtk output
ASCII
DATASET POLYDATA
POINTS 100 float
0.16301 0.0448069 0.707512 0.16318 0.0450035 0.7075 0.163694 0.0454521 0.7073 
0.164462 0.0461465 0.706875 0.165346 0.0470754 0.706165 0.166176 0.0482212 0.705093 
0.166768 0.049557 0.703574 0.166947 0.0510457 0.70152 0.166562 0.0526381 0.698847 
0.165504 0.0542739 0.695485 0.163709 0.0558825 0.69138 0.161166 0.0573868 0.686502 
0.15791 0.0587073 0.680845 0.154007 0.0597676 0.674427 0.149547 0.0605004 0.667289 
0.144622 0.0608532 0.65949 0.139315 0.0607931 0.651102 0.133683 0.0603103 0.642203 
0.127755 0.059419 0.63287 0.121524 0.0581577 0.623173 0.114956 0.0565853 0.613169 
0.107998 0.054777 0.602898 0.100589 0.0528179 0.592382 0.0926761 0.0507963 0.581623 
0.0842292 0.0487968 0.570604 0.0752503 0.0468943 0.559296 0.0657808 0.0451489 0.547657 
0.0559012 0.0436035 0.535642 0.0457266 0.0422824 0.523206 0.0353947 0.0411928 0.510307 
0.0250523 0.0403277 0.496911 0.0148377 0.0396698 0.482996 0.00486601 0.0391965 0.468548 
-0.0047846 0.0388848 0.453561 -0.0140801 0.0387157 0.438037 -0.0230326 0.0386774 0.421978 
-0.0316947 0.0387668 0.405386 -0.0401486 0.0389903 0.388255 -0.0484897 0.0393622 0.370573 
-0.0568078 0.0399023 0.352317 -0.0651681 0.0406329 0.333452 -0.0735946 0.0415753 0.313937 
-0.0820587 0.0427464 0.293724 -0.0904741 0.0441565 0.272767 -0.098699 0.0458068 0.251025 
-0.106546 0.0476895 0.228472 -0.1138 0.0497881 0.205097 -0.120234 0.0520782 0.180914 
-0.125639 0.0545302 0.155963 -0.129838 0.0571108 0.130309 -0.13271 0.0597854 0.104044 
-0.134198 0.0625198 0.0772798 -0.13432 0.065281 0.0501425 -0.133158 0.0680382 0.0227669 
-0.130857 0.0707621 -0.00471348 -0.127601 0.0734246 -0.0321737 -0.1236 0.0759979 -0.0595048 
-0.119065 0.0784537 -0.0866194 -0.114188 0.080763 -0.113456 -0.109125 0.082896 -0.139978 
-0.10399 0.0848225 -0.166176 -0.0988443 0.0865133 -0.192061 -0.093701 0.0879413 -0.217661 
-0.0885346 0.0890833 -0.243012 -0.0832916 0.0899205 -0.268154 -0.0779065 0.0904398 -0.293123 
-0.0723169 0.0906332 -0.317944 -0.0664767 0.0904972 -0.342626 -0.0603663 0.090031 -0.367163 
-0.0539975 0.0892342 -0.391528 -0.0474133 0.0881043 -0.415679 -0.0406833 0.0866347 -0.439555 
-0.0338949 0.0848128 -0.463086 -0.0271423 0.0826198 -0.486193 -0.0205159 0.0800317 -0.508793 
-0.0140915 0.0770215 -0.530804 -0.0079242 0.0735635 -0.552146 -0.00204444 0.0696379 -0.572744 
0.0035407 0.0652369 -0.592528 0.00884292 0.0603692 -0.611436 0.0138851 0.0550658 -0.62941 
0.0186922 0.0493817 -0.6464 0.0232825 0.0433975 -0.66236 0.0276599 0.0372175 -0.677249 
0.0318098 0.0309648 -0.691033 0.0356985 0.0247751 -0.703684 0.0392763 0.0187875 -0.715184 
0.0424844 0.0131356 -0.725526 0.045264 0.00793688 -0.734716 0.0475663 0.00328499 -0.742774 
0.0493628 -0.000757387 -0.749738 0.0506519 -0.00416202 -0.755659 0.0514636 -0.00693559 -0.760602 
0.0518587 -0.00911655 -0.764645 0.0519245 -0.0107688 -0.767869 0.0517658 -0.0119729 -0.770358 
0.0514937 -0.0128154 -0.772193 0.0512126 -0.0133778 -0.773442 0.0510079 -0.0137265 -0.774159 
0.050935 -0.0139045 -0.774378 
LINES 2 100
OFFSETS vtktypeint64
0 100 
CONNECTIVITY vtktypeint64
0 1 2 3 4 5 6 7 8 
9 10 11 12 13 14 15 16 17 
18 19 20 21 22 23 24 25 26 
27 28 29 30 31 32 33 34 35 
36 37 38 39 40 41 42 43 44 
45 46 47 48 49 50 51 52 53 
54 55 56 57 58 59 60 61 62 
63 64 65 66 67 68 69 70 71 
72 73 74 75 76 77 78 79 80 
81 82 83 84 85 86 87 88 89 
90 91 92 93 94 95 96 97 98 
99 
POINT_DATA 100
FIELD FieldData 3
_theta 1 100 double
0 0.031733259127 0.063466518254 0.095199777382 0.12693303651 0.15866629564 0.19039955476 0.22213281389 0.25386607302 
0.28559933214 0.31733259127 0.3490658504 0.38079910953 0.41253236865 0.44426562778 0.47599888691 0.50773214603 0.53946540516 
0.57119866429 0.60293192342 0.63466518254 0.66639844167 0.6981317008 0.72986495992 0.76159821905 0.79333147818 0.82506473731 
0.85679799643 0.88853125556 0.92026451469 0.95199777382 0.98373103294 1.0154642921 1.0471975512 1.0789308103 1.1106640695 
1.1423973286 1.1741305877 1.2058638468 1.237597106 1.2693303651 1.3010636242 1.3327968833 1.3645301425 1.3962634016 
1.4279966607 1.4597299198 1.491463179 1.5231964381 1.5549296972 1.5866629564 1.6183962155 1.6501294746 1.6818627337 
1.7135959929 1.745329252 1.7770625111 1.8087957702 1.8405290294 1.8722622885 1.9039955476 1.9357288068 1.9674620659 
1.999195325 2.0309285841 2.0626618433 2.0943951024 2.1261283615 2.1578616206 2.1895948798 2.2213281389 2.253061398 
2.2847946572 2.3165279163 2.3482611754 2.3799944345 2.4117276937 2.4434609528 2.4751942119 2.506927471 2.5386607302 
2.5703939893 2.6021272484 2.6338605076 2.6655937667 2.6973270258 2.7290602849 2.7607935441 2.7925268032 2.8242600623 
2.8559933214 2.8877265806 2.9194598397 2.9511930988 2.982926358 3.0146596171 3.0463928762 3.0781261353 3.1098593945 
3.1415926536 
_radius 1 100 double
1.2282430238e-15 0.015166099755 0.030275482157 0.045269764814 0.060095514251 0.074705980983 0.089061863756 0.10313094523 0.11688653465 
0.13030478434 0.14336114138 0.15602643223 0.16826329282 0.1800237673 0.1912488299 0.20187028911 0.21181504666 0.22101115637 
0.22939475948 0.23691687556 0.24354915983 0.24928797714 0.25415638725 0.25820384142 0.26150354741 0.26414756918 0.26623980464 
0.26788708878 0.2691888903 0.27022646084 0.27105277884 0.27168497994 0.27210092166 0.27224097475 0.27201520154 0.27131509127 
0.2700282836 0.26805436814 0.26531985578 0.26179064747 0.25748067015 0.25245576409 0.24683237398 0.2407710917 0.23446558982 
0.22812795763 0.22197191279 0.21619578413 0.21096740926 0.20641293006 0.20261074472 0.19959073983 0.19733783086 0.1957982066 
0.19488662711 0.19449358535 0.19449200562 0.19474412331 0.19510955813 0.1954547505 0.19566239125 0.19563868397 0.19531700449 
0.19465806089 0.19364783523 0.19229484479 0.19062771264 0.18869311092 0.18655333699 0.18428251784 0.181960874 0.17966742153 
0.17747247051 0.17543169316 0.17358299963 0.17194613669 0.17052353572 0.16930029849 0.16824170748 0.16728809801 0.16634874092 
0.16529773083 0.16397497965 0.16219403907 0.15975621986 0.15646843048 0.15216116891 0.14670333444 0.14001160586 0.13205353528 
0.12284482934 0.11244229261 0.10093447032 0.088432097954 0.07506006576 0.060951851 0.046246477801 0.031087311975 0.015621628584 
2.9688825854e-16 
_area 1 100 double
0 0.00061104132481 0.0024250475872 0.0053871990965 0.0094140521557 0.014403915416 0.020249122385 0.026848690794 0.034119084593 
0.041999522232 0.050448074182 0.059427507855 0.068885075585 0.078734570504 0.088848357656 0.099062101799 0.10918931479 0.1190400934 
0.12843937433 0.13724281335 0.14535003914 0.15271420196 0.1593450381 0.16530285817 0.17068359046 0.17559802706 0.18014960486 
0.18441472663 0.18842890961 0.19218106686 0.19561687077 0.19865039833 0.20118055054 0.20310488694 0.20432136928 0.20471595414 
0.20415311331 0.2024914731 0.1996210122 0.19549998368 0.19017680976 0.18379215099 0.17656250062 0.16875208047 0.16064212185 
0.15250405522 0.14457867102 0.13706100171 0.13009144146 0.12375479402 0.11808745334 0.11309119285 0.1087592404 0.1051273752 
0.1023235368 0.10047312135 0.099409817835 0.098786640795 0.09829903493 0.097745710452 0.096998587042 0.095974715717 0.09464824398 
0.093036729892 0.091182979042 0.089130149394 0.086903817617 0.084518873358 0.081999703042 0.079391838826 0.076762223546 0.07419287133 
0.071771679051 0.069582333827 0.067694055019 0.066157302386 0.065010381479 0.064283808035 0.063992252347 0.06411833199 0.064593159144 
0.065269380857 0.065895872035 0.066148947739 0.065711903422 0.064330675958 0.061843656973 0.058198684288 0.053457196688 0.047784441971 
0.041427532172 0.034685791819 0.027879160407 0.021320059783 0.015292385891 0.010038856873 0.0057557070891 0.0025923278395 0.00065318555483 
2.9707986507e-17 
