# vtk DataFile Version 5.1
vtk output
ASCII
DATASET POLYDATA
POINTS 100 float
0.188658 0.0440451 0.68716 0.188745 0.044225 0.68677 0.189109 0.0446451 0.685541 
0.189668 0.0452923 0.68351 0.190297 0.0461452 0.680731 0.190836 0.047175 0.677271 
0.191115 0.0483462 0.673196 0.190967 0.0496183 0.668566 0.19025 0.0509465 0.663426 
0.188854 0.0522839 0.657799 0.186718 0.0535829 0.651688 0.183829 0.0547973 0.645077 
0.180218 0.0558844 0.637935 0.175956 0.0568065 0.630227 0.17114 0.0575332 0.621921 
0.165877 0.0580431 0.613001 0.160269 0.0583247 0.603466 0.154402 0.0583779 0.593342 
0.148333 0.0582144 0.582678 0.142083 0.0578572 0.571539 0.135643 0.0573403 0.560003 
0.128972 0.056707 0.548151 0.122009 0.0560076 0.536051 0.114686 0.0552969 0.523753 
0.106939 0.0546305 0.511283 0.098722 0.0540619 0.498635 0.0900171 0.0536379 0.485775 
0.0808388 0.0533961 0.47265 0.0712366 0.0533612 0.459195 0.0612906 0.0535431 0.445343 
0.0511035 0.0539358 0.431046 0.0407887 0.054517 0.416277 0.0304574 0.0552497 0.401045 
0.0202056 0.0560842 0.385396 0.0101026 0.0569622 0.369408 0.000184603 0.0578206 0.353184 
-0.00954832 0.058597 0.336839 -0.0191291 0.0592343 0.320477 -0.0286155 0.0596862 0.304179 
-0.0380777 0.0599206 0.28798 -0.0475836 0.0599232 0.271862 -0.0571816 0.0596991 0.255741 
-0.0668867 0.059273 0.239473 -0.0766676 0.0586878 0.222861 -0.0864392 0.0580019 0.205673 
-0.0960617 0.0572851 0.187667 -0.105344 0.0566134 0.168614 -0.114055 0.056064 0.148329 
-0.121938 0.0557096 0.12669 -0.128731 0.0556132 0.103662 -0.134184 0.055824 0.0793011 
-0.138084 0.0563742 0.0537565 -0.140267 0.0572771 0.0272591 -0.140635 0.0585263 0.000102084 
-0.139163 0.060097 -0.0273857 -0.135901 0.0619475 -0.05487 -0.130967 0.0640218 -0.0820413 
-0.124544 0.0662536 -0.108642 -0.116858 0.0685689 -0.134487 -0.108169 0.0708901 -0.159474 
-0.098744 0.0731386 -0.183588 -0.0888478 0.0752378 -0.206887 -0.0787209 0.0771145 -0.229491 
-0.0685688 0.0787009 -0.251554 -0.0585521 0.0799348 -0.27324 -0.0487823 0.0807605 -0.294695 
-0.0393203 0.0811291 -0.316026 -0.0301799 0.0809985 -0.337286 -0.0213341 0.0803344 -0.358464 
-0.0127234 0.0791105 -0.379489 -0.00426649 0.0773099 -0.40024 0.00412981 0.074926 -0.420561 
0.0125597 0.0719643 -0.440284 0.0211089 0.068443 -0.459252 0.0298466 0.0643947 -0.477336 
0.0388188 0.0598665 -0.494452 0.0480436 0.0549199 -0.51057 0.0575084 0.04963 -0.525712 
0.0671694 0.0440837 -0.539948 0.0769525 0.0383767 -0.553379 0.0867569 0.0326108 -0.56612 
0.0964593 0.0268892 -0.578282 0.105921 0.0213129 -0.589949 0.114994 0.015976 -0.60117 
0.123533 0.0109618 -0.611948 0.1314 0.00633989 -0.622236 0.138478 0.00216266 -0.631949 
0.144675 -0.00153572 -0.640975 0.149934 -0.0047401 -0.649191 0.154235 -0.00745383 -0.656485 
0.157599 -0.0096972 -0.662772 0.160085 -0.0115049 -0.668009 0.16179 -0.012923 -0.672205 
0.162836 -0.0140048 -0.675419 0.163364 -0.0148074 -0.67776 0.163525 -0.0153872 -0.679365 
0.163463 -0.015796 -0.680391 0.163306 -0.0160782 -0.680987 0.163153 -0.016267 -0.681276 
0.163069 -0.0163831 -0.681343 
LINES 2 100
OFFSETS vtktypeint64
0 100 
CONNECTIVITY vtktypeint64
0 1 2 3 4 5 6 7 8 
9 10 11 12 13 14 15 16 17 
18 19 20 21 22 23 24 25 26 
27 28 29 30 31 32 33 34 35 
36 37 38 39 40 41 42 43 44 
45 46 47 48 49 50 51 52 53 
54 55 56 57 58 59 60 61 62 
63 64 65 66 67 68 69 70 71 
72 73 74 75 76 77 78 79 80 
81 82 83 84 85 86 87 88 89 
90 91 92 93 94 95 96 97 98 
99 
POINT_DATA 100
FIELD FieldData 3
_theta 1 100 double
0 0.031733259127 0.063466518254 0.095199777382 0.12693303651 0.15866629564 0.19039955476 0.22213281389 0.25386607302 
0.28559933214 0.31733259127 0.3490658504 0.38079910953 0.41253236865 0.44426562778 0.47599888691 0.50773214603 0.53946540516 
0.57119866429 0.60293192342 0.63466518254 0.66639844167 0.6981317008 0.72986495992 0.76159821905 0.79333147818 0.82506473731 
0.85679799643 0.88853125556 0.92026451469 0.95199777382 0.98373103294 1.0154642921 1.0471975512 1.0789308103 1.1106640695 
1.1423973286 1.1741305877 1.2058638468 1.237597106 1.2693303651 1.3010636242 1.3327968833 1.3645301425 1.3962634016 
1.4279966607 1.4597299198 1.491463179 1.5231964381 1.5549296972 1.5866629564 1.6183962155 1.6501294746 1.6818627337 
1.7135959929 1.745329252 1.7770625111 1.8087957702 1.8405290294 1.8722622885 1.9039955476 1.9357288068 1.9674620659 
1.999195325 2.0309285841 2.0626618433 2.0943951024 2.1261283615 2.1578616206 2.1895948798 2.2213281389 2.253061398 
2.2847946572 2.3165279163 2.3482611754 2.3799944345 2.4117276937 2.4434609528 2.4751942119 2.506927471 2.5386607302 
2.5703939893 2.6021272484 2.6338605076 2.6655937667 2.6973270258 2.7290602849 2.7607935441 2.7925268032 2.8242600623 
2.8559933214 2.8877265806 2.9194598397 2.9511930988 2.982926358 3.0146596171 3.0463928762 3.0781261353 3.1098593945 
3.1415926536 
_radius 1 100 double
1.4445070612e-15 0.014638959524 0.029158623965 0.043441069941 0.057376474745 0.070866542481 0.083826995474 0.09618906733 0.10790010142 
0.11892348737 0.12923821396 0.13883823833 0.14773165908 0.15593939267 0.16349283429 0.17043002628 0.17679030026 0.18260816057 
0.18790801351 0.19270167268 0.19698995305 0.20076822421 0.20403424989 0.2067958217 0.20907598175 0.21091478078 0.21236783446 
0.21350268548 0.21439393064 0.21511763389 0.21574523967 0.21633718317 0.21693650085 0.21756281758 0.21820714867 0.21882813222 
0.21935062484 0.21966785243 0.21964817874 0.21914685727 0.21802201227 0.21615295133 0.21345815237 0.20991014525 0.20554502537 
0.20046525305 0.19483538744 0.18887128691 0.18282405424 0.17696063643 0.17154345216 0.16681152174 0.16296503242 0.1601539771 
0.15846989998 0.15793889576 0.1585148835 0.16007495945 0.16242173674 0.16529781925 0.16841286349 0.17147681525 0.17422965236 
0.17646076793 0.17801733817 0.17880598054 0.17879235899 0.17800020395 0.17650878677 0.17444778136 0.17198886555 0.16933330851 
0.16669473046 0.16427703771 0.16224952231 0.16072362654 0.15973722059 0.15925074574 0.15915550337 0.15929030383 0.15946110206 
0.15945926931 0.15907622983 0.15811397502 0.15639202763 0.15375187832 0.15005995451 0.14520994957 0.13912495619 0.13175943884 
0.12310076678 0.11316989448 0.10202083242 0.089738749812 0.076436803553 0.062252007791 0.047340584503 0.031873245011 0.016030758308 
9.728577455e-16 
_area 1 100 double
0 0.00036777237421 0.0014662464202 0.003281268618 0.0057901906512 0.0089623408275 0.012758242145 0.017127022987 0.022002319418 
0.02729812087 0.032906976457 0.038703087015 0.044551601532 0.050323096758 0.055909653909 0.061237477975 0.06627175276 0.071012480599 
0.075483816263 0.079721161961 0.083759012019 0.087620937981 0.091314144789 0.094832699938 0.098170933727 0.10134163999 0.10438806821 
0.1073760978 0.11036385696 0.11337058724 0.11637458578 0.11933838164 0.12222783563 0.12501460254 0.1276691215 0.13014806539 
0.13237801789 0.1342406724 0.13556968579 0.13616689329 0.13583475556 0.13441449947 0.13181982937 0.12805704798 0.12322504115 
0.11749993298 0.11111461199 0.10433243118 0.097414676716 0.090599821925 0.08412702265 0.078337665732 0.073800601111 0.070946012596 
0.069546488442 0.069128934508 0.069345009618 0.069860478519 0.070407916331 0.070880550755 0.071607577939 0.073015196816 0.074538661839 
0.075698637804 0.076250056625 0.07603627643 0.074991864927 0.073171074551 0.070749063125 0.067973168022 0.065073480315 0.062253461381 
0.059696664069 0.057558641331 0.055943830458 0.054891664896 0.054372136295 0.054292011745 0.054516143982 0.054902151162 0.055328906495 
0.05568437737 0.055819376571 0.055562217601 0.054770612524 0.053339169804 0.051192365758 0.048287776707 0.044627062337 0.040266953263 
0.035324266546 0.029972310466 0.024429206284 0.018940798373 0.013761626359 0.0091369651287 0.0052876509121 0.0023980530706 0.00060681083131 
4.7819670177e-17 
