# vtk DataFile Version 5.1
vtk output
ASCII
DATASET POLYDATA
POINTS 100 float
0.123101 0.0658384 0.717604 0.123427 0.0660165 0.717505 0.124453 0.0663747 0.717051 
0.126062 0.0668989 0.716228 0.128073 0.0675664 0.71501 0.13026 0.0683459 0.713363 
0.132375 0.0691983 0.711241 0.134171 0.0700766 0.70859 0.135428 0.0709273 0.705347 
0.135971 0.0716926 0.701445 0.135686 0.0723123 0.696818 0.134525 0.0727272 0.691402 
0.132509 0.0728826 0.685145 0.129711 0.0727318 0.678011 0.126251 0.0722401 0.669982 
0.12227 0.0713878 0.661064 0.117914 0.0701727 0.651292 0.113312 0.0686116 0.640722 
0.108561 0.0667398 0.629436 0.103716 0.0646103 0.61753 0.0987846 0.0622903 0.605116 
0.093732 0.0598572 0.592306 0.088487 0.0573936 0.579208 0.0829578 0.0549816 0.565918 
0.0770478 0.0526964 0.552511 0.0706732 0.0506017 0.53904 0.0637778 0.0487446 0.525529 
0.0563444 0.0471532 0.511976 0.0484006 0.0458344 0.498355 0.0400184 0.044775 0.484617 
0.031307 0.0439433 0.470702 0.0224013 0.0432938 0.45654 0.0134453 0.0427716 0.442058 
0.00457527 0.0423188 0.427187 -0.00409739 0.0418809 0.411864 -0.0124997 0.0414125 0.396036 
-0.020606 0.040883 0.379659 -0.02844 0.0402803 0.362695 -0.0360709 0.039613 0.345114 
-0.0436021 0.038911 0.326887 -0.0511551 0.0382238 0.307988 -0.0588499 0.0376171 0.288388 
-0.0667841 0.0371682 0.268059 -0.0750134 0.0369595 0.246973 -0.0835363 0.0370723 0.225107 
-0.092284 0.0375798 0.20245 -0.101118 0.038541 0.179001 -0.109836 0.0399949 0.154783 
-0.118184 0.0419571 0.129843 -0.125874 0.0444171 0.104254 -0.132609 0.047338 0.0781187 
-0.138108 0.0506577 0.0515632 -0.142132 0.0542923 0.0247349 -0.144501 0.0581403 -0.00220617 
-0.145114 0.0620884 -0.0290971 -0.143956 0.066018 -0.0557816 -0.1411 0.0698113 -0.0821208 
-0.136698 0.0733583 -0.108001 -0.130968 0.0765613 -0.133342 -0.124174 0.0793403 -0.158097 
-0.116604 0.0816355 -0.182257 -0.108543 0.0834088 -0.205844 -0.10025 0.084644 -0.228905 
-0.0919428 0.0853447 -0.251506 -0.0837781 0.0855321 -0.273718 -0.0758483 0.08524 -0.295608 
-0.0681792 0.084511 -0.31723 -0.0607368 0.0833913 -0.33862 -0.0534394 0.0819257 -0.359784 
-0.0461737 0.0801537 -0.380706 -0.0388136 0.0781063 -0.401339 -0.0312392 0.0758034 -0.421621 
-0.0233545 0.0732535 -0.441469 -0.0151014 0.0704541 -0.460798 -0.00646928 0.0673935 -0.479521 
0.00250054 0.0640535 -0.497559 0.011716 0.0604136 -0.514848 0.0210404 0.0564545 -0.531342 
0.030303 0.0521625 -0.547012 0.0393121 0.0475334 -0.561848 0.0478703 0.0425753 -0.575854 
0.0557892 0.0373104 -0.589047 0.0629035 0.0317766 -0.601447 0.0690819 0.0260261 -0.613078 
0.0742353 0.0201246 -0.623958 0.0783213 0.0141481 -0.634102 0.0813449 0.00817983 -0.643518 
0.0833552 0.00230604 -0.652205 0.0844406 -0.00338767 -0.660162 0.0847204 -0.00882016 -0.66738 
0.0843363 -0.0139178 -0.673857 0.0834432 -0.0186168 -0.679589 0.0821999 -0.0228644 -0.684582 
0.0807614 -0.026619 -0.688845 0.0792722 -0.0298498 -0.692395 0.0778611 -0.0325352 -0.695255 
0.0766375 -0.034661 -0.697447 0.0756884 -0.0362181 -0.698994 0.0750777 -0.0372008 -0.699915 
0.0748444 -0.0376048 -0.700221 
LINES 2 100
OFFSETS vtktypeint64
0 100 
CONNECTIVITY vtktypeint64
0 1 2 3 4 5 6 7 8 
9 10 11 12 13 14 15 16 17 
18 19 20 21 22 23 24 25 26 
27 28 29 30 31 32 33 34 35 
36 37 38 39 40 41 42 43 44 
45 46 47 48 49 50 51 52 53 
54 55 56 57 58 59 60 61 62 
63 64 65 66 67 68 69 70 71 
72 73 74 75 76 77 78 79 80 
81 82 83 84 85 86 87 88 89 
90 91 92 93 94 95 96 97 98 
99 
POINT_DATA 100
FIELD FieldData 3
_theta 1 100 double
0 0.031733259127 0.063466518254 0.095199777382 0.12693303651 0.15866629564 0.19039955476 0.22213281389 0.25386607302 
0.28559933214 0.31733259127 0.3490658504 0.38079910953 0.41253236865 0.44426562778 0.47599888691 0.50773214603 0.53946540516 
0.57119866429 0.60293192342 0.63466518254 0.66639844167 0.6981317008 0.72986495992 0.76159821905 0.79333147818 0.82506473731 
0.85679799643 0.88853125556 0.92026451469 0.95199777382 0.98373103294 1.0154642921 1.0471975512 1.0789308103 1.1106640695 
1.1423973286 1.1741305877 1.2058638468 1.237597106 1.2693303651 1.3010636242 1.3327968833 1.3645301425 1.3962634016 
1.4279966607 1.4597299198 1.491463179 1.5231964381 1.5549296972 1.5866629564 1.6183962155 1.6501294746 1.6818627337 
1.7135959929 1.745329252 1.7770625111 1.8087957702 1.8405290294 1.8722622885 1.9039955476 1.9357288068 1.9674620659 
1.999195325 2.0309285841 2.0626618433 2.0943951024 2.1261283615 2.1578616206 2.1895948798 2.2213281389 2.253061398 
2.2847946572 2.3165279163 2.3482611754 2.3799944345 2.4117276937 2.4434609528 2.4751942119 2.506927471 2.5386607302 
2.5703939893 2.6021272484 2.6338605076 2.6655937667 2.6973270258 2.7290602849 2.7607935441 2.7925268032 2.8242600623 
2.8559933214 2.8877265806 2.9194598397 2.9511930988 2.982926358 3.0146596171 3.0463928762 3.0781261353 3.1098593945 
3.1415926536 
_radius 1 100 double
7.0504079219e-16 0.014974452237 0.029930861796 0.044837806616 0.059653871549 0.074323560759 0.088774719879 0.10291849882 0.11665249969 
0.12986702396 0.14245359409 0.15431443789 0.16537146291 0.17557336115 0.18489980394 0.19336214832 0.20100058903 0.20787814051 
0.21407215743 0.21966435471 0.22473057951 0.22933192552 0.23350894916 0.23728042124 0.24064706891 0.24359938427 0.24612736053 
0.24822947081 0.24991847055 0.25122249649 0.25218114735 0.2528374943 0.25322804943 0.25337334162 0.25327162184 0.2528972384 
0.25220372009 0.25113029321 0.24961007239 0.24757858917 0.24498217572 0.24178636529 0.23798454781 0.233606662 0.22872697984 
0.22346932309 0.21800754043 0.21255892932 0.20736878792 0.2026859281 0.19873214327 0.1956724948 0.19359516729 0.19250685342 
0.19234301386 0.19298648453 0.19428654145 0.19607333045 0.19816669093 0.20038160109 0.20253382532 0.20444867448 0.2059735515 
0.20699232776 0.2074379568 0.20729980678 0.20662370581 0.2055047532 0.20407461914 0.20248569235 0.20089404454 0.1994425456 
0.19824525385 0.19737421697 0.19684967026 0.19663439987 0.19663292295 0.19669600194 0.19663060905 0.19621474779 0.1952157304 
0.19340987823 0.19060132796 0.18663772161 0.18142098105 0.17491203974 0.16712924881 0.15814108584 0.14805462083 0.13700174886 
0.12512534134 0.11256717687 0.099458902433 0.085916535386 0.072038334462 0.057905377642 0.043583948078 0.029128835417 0.014586836739 
4.588630019e-16 
_area 1 100 double
0 0.00057855119721 0.0023173452388 0.0052214715125 0.0092868546424 0.014486779776 0.020760475266 0.028006358027 0.036080476234 
0.044799455006 0.053947148896 0.063284835879 0.072565403807 0.08155195973 0.09004046384 0.097884370533 0.10501666974 0.11146162014 
0.11732753413 0.12277693647 0.12798086448 0.1330729112 0.13811884466 0.14311021243 0.14798085494 0.15263719477 0.15698880489 
0.16096819518 0.16453694384 0.16768201321 0.17040614861 0.17271340743 0.17459295919 0.17600830856 0.17689730278 0.17718331456 
0.17679491931 0.1756898076 0.17387282036 0.17137432695 0.16817922418 0.16422985002 0.15950797545 0.15407219918 0.1480548435 
0.14164292176 0.13505293733 0.12850947296 0.12223437627 0.11644763937 0.11138642386 0.10735717294 0.10458963157 0.10284619034 
0.10183478647 0.1014260039 0.10153297973 0.10197851013 0.10248002433 0.10273577492 0.10249823159 0.1016195669 0.10009167943 
0.098041979595 0.095666386419 0.093125447182 0.090501283908 0.087831945147 0.085146069561 0.082480697415 0.079889765941 0.077440142621 
0.075201224304 0.073239169386 0.071621723947 0.070431007369 0.069759791501 0.069726845084 0.070532905383 0.071853217594 0.07313967736 
0.074109734239 0.074474049235 0.073970704761 0.072398950317 0.069646508324 0.065704310382 0.060665150183 0.054707819109 0.048072536149 
0.04103471323 0.033882100161 0.026896811171 0.020341123176 0.014445709009 0.0094005828787 0.0053505425283 0.0023964961031 0.00060173963691 
1.8688816679e-17 
