# vtk DataFile Version 5.1
vtk output
ASCII
DATASET POLYDATA
POINTS 100 float
0.142144 0.0567067 0.751115 0.142127 0.056984 0.75096 0.142127 0.0576834 0.75038 
0.142083 0.0587681 0.749373 0.141905 0.0601794 0.747934 0.141483 0.0618414 0.746052 
0.140705 0.0636647 0.743699 0.139471 0.0655527 0.740833 0.137706 0.0674067 0.737393 
0.135369 0.0691315 0.733301 0.132464 0.0706403 0.728465 0.129028 0.071859 0.722791 
0.125137 0.0727287 0.716188 0.120883 0.0732079 0.708584 0.116367 0.073273 0.699933 
0.111683 0.0729177 0.690231 0.106898 0.0721519 0.679514 0.102048 0.0709998 0.667868 
0.0971271 0.0694973 0.65542 0.0920891 0.0676898 0.642331 0.086853 0.0656299 0.628783 
0.0813143 0.0633751 0.614959 0.0753601 0.0609858 0.601032 0.0688865 0.058524 0.58714 
0.061815 0.0560517 0.573377 0.0541073 0.0536297 0.559781 0.045774 0.0513164 0.546331 
0.0368788 0.0491666 0.532948 0.0275347 0.0472298 0.519507 0.0178945 0.045549 0.505847 
0.00813622 0.0441587 0.49179 -0.00155549 0.0430838 0.477163 -0.0110085 0.0423379 0.461808 
-0.020081 0.0419228 0.445605 -0.0286757 0.0418277 0.428477 -0.0367487 0.0420304 0.410393 
-0.0443103 0.0424983 0.391371 -0.0514204 0.0431908 0.371465 -0.0581765 0.0440624 0.350758 
-0.0646967 0.0450667 0.329343 -0.0711002 0.0461601 0.307311 -0.0774875 0.0473059 0.284742 
-0.0839219 0.0484777 0.261688 -0.0904172 0.0496624 0.238175 -0.0969297 0.0508613 0.214202 
-0.103359 0.0520904 0.189748 -0.109553 0.0533788 0.164779 -0.115327 0.054766 0.139264 
-0.120475 0.0562973 0.113188 -0.124796 0.0580192 0.0865595 -0.128111 0.0599734 0.0594211 
-0.130284 0.0621913 0.0318525 -0.131237 0.064689 0.00396808 -0.130954 0.0674638 -0.02409 
-0.12948 0.0704915 -0.0521633 -0.126924 0.0737263 -0.0800907 -0.123434 0.0771018 -0.107723 
-0.119191 0.0805345 -0.134937 -0.114382 0.0839286 -0.161642 -0.109185 0.0871818 -0.18779 
-0.103749 0.0901916 -0.213371 -0.0981864 0.092862 -0.238411 -0.0925585 0.0951091 -0.262958 
-0.0868796 0.096866 -0.287072 -0.0811201 0.0980856 -0.310807 -0.0752168 0.0987419 -0.334201 
-0.0690869 0.0988297 -0.357263 -0.0626444 0.0983623 -0.379966 -0.0558159 0.0973682 -0.402248 
-0.0485546 0.095886 -0.424018 -0.0408514 0.0939604 -0.445161 -0.0327406 0.0916371 -0.465559 
-0.0243009 0.0889591 -0.485101 -0.0156512 0.0859639 -0.5037 -0.00694202 0.0826823 -0.521308 
0.00165647 0.079138 -0.53792 0.00996824 0.0753496 -0.553577 0.0178255 0.0713326 -0.568367 
0.0250814 0.0671031 -0.582412 0.0316208 0.0626808 -0.59585 0.0373671 0.0580921 -0.608827 
0.0422855 0.0533724 -0.621472 0.0463822 0.0485677 -0.633885 0.049701 0.0437335 -0.64612 
0.0523154 0.0389341 -0.658186 0.0543206 0.0342389 -0.670038 0.0558235 0.029719 -0.681588 
0.0569337 0.0254429 -0.692712 0.0577547 0.0214713 -0.703269 0.0583772 0.0178539 -0.713112 
0.0588751 0.0146259 -0.72211 0.0593023 0.0118063 -0.730155 0.0596932 0.00939803 -0.737177 
0.0600639 0.0073891 -0.743144 0.0604158 0.00575565 -0.748061 0.0607393 0.00446599 -0.751966 
0.0610186 0.00348538 -0.754913 0.0612358 0.00278087 -0.756965 0.0613752 0.00232595 -0.758179 
0.0614262 0.00210405 -0.758593 
LINES 2 100
OFFSETS vtktypeint64
0 100 
CONNECTIVITY vtktypeint64
0 1 2 3 4 5 6 7 8 
9 10 11 12 13 14 15 16 17 
18 19 20 21 22 23 24 25 26 
27 28 29 30 31 32 33 34 35 
36 37 38 39 40 41 42 43 44 
45 46 47 48 49 50 51 52 53 
54 55 56 57 58 59 60 61 62 
63 64 65 66 67 68 69 70 71 
72 73 74 75 76 77 78 79 80 
81 82 83 84 85 86 87 88 89 
90 91 92 93 94 95 96 97 98 
99 
POINT_DATA 100
FIELD FieldData 3
_theta 1 100 double
0 0.031733259127 0.063466518254 0.095199777382 0.12693303651 0.15866629564 0.19039955476 0.22213281389 0.25386607302 
0.28559933214 0.31733259127 0.3490658504 0.38079910953 0.41253236865 0.44426562778 0.47599888691 0.50773214603 0.53946540516 
0.57119866429 0.60293192342 0.63466518254 0.66639844167 0.6981317008 0.72986495992 0.76159821905 0.79333147818 0.82506473731 
0.85679799643 0.88853125556 0.92026451469 0.95199777382 0.98373103294 1.0154642921 1.0471975512 1.0789308103 1.1106640695 
1.1423973286 1.1741305877 1.2058638468 1.237597106 1.2693303651 1.3010636242 1.3327968833 1.3645301425 1.3962634016 
1.4279966607 1.4597299198 1.491463179 1.5231964381 1.5549296972 1.5866629564 1.6183962155 1.6501294746 1.6818627337 
1.7135959929 1.745329252 1.7770625111 1.8087957702 1.8405290294 1.8722622885 1.9039955476 1.9357288068 1.9674620659 
1.999195325 2.0309285841 2.0626618433 2.0943951024 2.1261283615 2.1578616206 2.1895948798 2.2213281389 2.253061398 
2.2847946572 2.3165279163 2.3482611754 2.3799944345 2.4117276937 2.4434609528 2.4751942119 2.506927471 2.5386607302 
2.5703939893 2.6021272484 2.6338605076 2.6655937667 2.6973270258 2.7290602849 2.7607935441 2.7925268032 2.8242600623 
2.8559933214 2.8877265806 2.9194598397 2.9511930988 2.982926358 3.0146596171 3.0463928762 3.0781261353 3.1098593945 
3.1415926536 
_radius 1 100 double
2.8977671676e-16 0.015117399903 0.030210952954 0.045245661736 0.060169867425 0.074909780264 0.089367283257 0.10342192233 0.1169373867 
0.12977192902 0.14179135665 0.15288270566 0.16296659939 0.17200651997 0.18001362234 0.18704621053 0.19320362219 0.19861507527 
0.20342489699 0.20777621206 0.21179540119 0.21557944551 0.21918780678 0.22263988663 0.22591833717 0.2289775117 0.2317553178 
0.23418605045 0.2362117469 0.23779022103 0.23889893199 0.23953485286 0.23971123965 0.2394525378 0.23878864435 0.23774950493 
0.23636072768 0.23464066528 0.23259929178 0.23023913232 0.22755839807 0.22455626216 0.22123987367 0.21763228147 0.21377999649 
0.20975855831 0.20567435247 0.20166125086 0.19787155342 0.19446208391 0.19157770238 0.18933533033 0.18781139202 0.18703440355 
0.18698289763 0.18758778585 0.18873809038 0.19028946932 0.1920754609 0.1939214083 0.19566050721 0.19715049764 0.19828856897 
0.19902159466 0.1993492682 0.19931905949 0.19901374068 0.19853397198 0.19797955171 0.19743303468 0.19694840398 0.19654567755 
0.196210476 0.19589649308 0.19552895933 0.19500838728 0.19421531685 0.19301742622 0.1912797325 0.18887712489 0.18570714074 
0.18170039751 0.17682647673 0.17109401532 0.16454497929 0.15724430178 0.14926699411 0.14068527193 0.13155809975 0.12192492447 
0.11180442911 0.10119813009 0.090097790907 0.078495085722 0.066391748619 0.053808513664 0.040791393048 0.027414227294 0.01377698864 
1.1361238096e-15 
_area 1 100 double
0 0.00052160080947 0.0020788113008 0.0046491710715 0.0081957268852 0.012666326065 0.017991128065 0.024078449198 0.030809480457 
0.038032764617 0.045560686683 0.053172416671 0.060628150182 0.067695968549 0.074186678514 0.079987398705 0.085084127612 0.089566884801 
0.093615677142 0.097468974218 0.10137904025 0.10556269164 0.11015996034 0.1152104687 0.12064830315 0.12631166493 0.13196973647 
0.13737111442 0.14230150339 0.14662385464 0.15028308043 0.15327880508 0.15562542883 0.15732100112 0.15833667529 0.15862534453 
0.15813996305 0.15685188306 0.15476402377 0.15191784803 0.14839449753 0.14430972152 0.13980168854 0.13501277273 0.13007146504 
0.12508373416 0.12013712612 0.1153098858 0.11067509275 0.10629768387 0.10223014719 0.098515005762 0.095202302337 0.092393275458 
0.09077727176 0.090614608848 0.091025414187 0.091787768416 0.092697029979 0.093547071744 0.094135798624 0.094274783818 0.093809786338 
0.092653099125 0.090813805677 0.088409899773 0.085657123351 0.082846085386 0.080289057402 0.078227588315 0.07659201599 0.075352528083 
0.074502089932 0.074084775686 0.074146902443 0.074751855578 0.075588605429 0.076497829466 0.077244870421 0.077583515162 0.07728418032 
0.076175834836 0.074172492825 0.071276018307 0.067559972157 0.063142990916 0.058161534767 0.052749887975 0.047031205368 0.041118875047 
0.035124195595 0.029165293185 0.023373222184 0.017893312343 0.012881774743 0.0084985572704 0.0048975690495 0.002215383681 0.00055980615515 
3.2694815139e-19 
