# vtk DataFile Version 5.1
vtk output
ASCII
DATASET POLYDATA
POINTS 100 float
0.178685 0.044834 0.776843 0.17863 0.0450188 0.776362 0.178507 0.0454339 0.774795 
0.178305 0.0460732 0.772196 0.178007 0.0469269 0.768647 0.177587 0.0479822 0.76425 
0.177017 0.0492221 0.759113 0.176263 0.0506257 0.753338 0.17529 0.0521672 0.74701 
0.174061 0.0538166 0.740191 0.17254 0.0555395 0.732912 0.170693 0.0572989 0.725176 
0.168488 0.0590556 0.716962 0.1659 0.0607704 0.708232 0.162907 0.062406 0.698943 
0.159492 0.0639285 0.689056 0.155643 0.0653096 0.678547 0.151355 0.0665279 0.667412 
0.146624 0.0675696 0.65567 0.14145 0.0684287 0.643367 0.135836 0.0691068 0.630564 
0.129785 0.0696115 0.617335 0.123301 0.069955 0.603756 0.116388 0.0701519 0.589895 
0.109051 0.0702166 0.575804 0.101294 0.070162 0.561511 0.0931264 0.069997 0.547024 
0.0845559 0.069726 0.532325 0.0755964 0.0693483 0.517381 0.066266 0.0688588 0.50215 
0.0565891 0.0682496 0.486588 0.0465964 0.0675116 0.470661 0.0363264 0.0666375 0.454349 
0.0258246 0.0656243 0.437651 0.0151442 0.0644755 0.420582 0.00434524 0.0632037 0.403172 
-0.00650551 0.0618309 0.385456 -0.0173353 0.0603894 0.367462 -0.0280657 0.0589203 0.349203 
-0.0386132 0.0574717 0.330666 -0.0488897 0.0560962 0.311805 -0.0588028 0.0548467 0.292543 
-0.068257 0.0537732 0.27277 -0.0771549 0.0529192 0.252358 -0.0853988 0.0523188 0.231173 
-0.0928936 0.0519943 0.209093 -0.0995501 0.0519556 0.186025 -0.105289 0.0522002 0.161926 
-0.110047 0.0527147 0.136809 -0.11378 0.0534774 0.110756 -0.116468 0.054461 0.0839151 
-0.118122 0.0556361 0.0564893 -0.118783 0.0569741 0.0287234 -0.118524 0.0584496 0.000881446 
-0.117452 0.0600418 -0.0267787 -0.115698 0.0617346 -0.0540295 -0.113416 0.0635152 -0.0806963 
-0.110769 0.0653723 -0.106673 -0.107922 0.0672924 -0.131929 -0.105028 0.0692563 -0.15651 
-0.102214 0.0712359 -0.180526 -0.0995756 0.0731911 -0.204133 -0.0971611 0.0750686 -0.227507 
-0.0949698 0.0768015 -0.25082 -0.0929489 0.0783119 -0.274213 -0.0909955 0.079514 -0.297772 
-0.0889637 0.0803202 -0.321517 -0.0866751 0.0806475 -0.345392 -0.0839334 0.0804249 -0.369273 
-0.0805404 0.0796001 -0.392982 -0.0763132 0.0781461 -0.416305 -0.0711008 0.0760651 -0.43902 
-0.0647982 0.0733908 -0.460923 -0.0573576 0.0701876 -0.481854 -0.0487944 0.0665471 -0.501716 
-0.0391887 0.0625821 -0.52048 -0.0286815 0.0584183 -0.538194 -0.0174662 0.0541848 -0.554966 
-0.00577608 0.0500044 -0.570949 0.00613143 0.0459839 -0.586317 0.017991 0.0422063 -0.601235 
0.0295463 0.0387254 -0.615836 0.0405651 0.0355633 -0.630198 0.0508514 0.0327111 -0.644326 
0.0602548 0.0301325 -0.658154 0.0686743 0.0277709 -0.671547 0.0760597 0.0255578 -0.684315 
0.0824078 0.0234227 -0.696241 0.0877561 0.0213027 -0.707105 0.0921744 0.0191516 -0.716717 
0.0957546 0.0169461 -0.724936 0.0986018 0.0146904 -0.731696 0.100824 0.012416 -0.737012 
0.102527 0.0101801 -0.74098 0.103805 0.00805933 -0.743765 0.104741 0.006142 -0.745579 
0.105401 0.0045188 -0.746657 0.105837 0.00327299 -0.747225 0.106085 0.00247132 -0.747466 
0.106167 0.00215677 -0.747505 
LINES 2 100
OFFSETS vtktypeint64
0 100 
CONNECTIVITY vtktypeint64
0 1 2 3 4 5 6 7 8 
9 10 11 12 13 14 15 16 17 
18 19 20 21 22 23 24 25 26 
27 28 29 30 31 32 33 34 35 
36 37 38 39 40 41 42 43 44 
45 46 47 48 49 50 51 52 53 
54 55 56 57 58 59 60 61 62 
63 64 65 66 67 68 69 70 71 
72 73 74 75 76 77 78 79 80 
81 82 83 84 85 86 87 88 89 
90 91 92 93 94 95 96 97 98 
99 
POINT_DATA 100
FIELD FieldData 3
_theta 1 100 double
0 0.031733259127 0.063466518254 0.095199777382 0.12693303651 0.15866629564 0.19039955476 0.22213281389 0.25386607302 
0.28559933214 0.31733259127 0.3490658504 0.38079910953 0.41253236865 0.44426562778 0.47599888691 0.50773214603 0.53946540516 
0.57119866429 0.60293192342 0.63466518254 0.66639844167 0.6981317008 0.72986495992 0.76159821905 0.79333147818 0.82506473731 
0.85679799643 0.88853125556 0.92026451469 0.95199777382 0.98373103294 1.0154642921 1.0471975512 1.0789308103 1.1106640695 
1.1423973286 1.1741305877 1.2058638468 1.237597106 1.2693303651 1.3010636242 1.3327968833 1.3645301425 1.3962634016 
1.4279966607 1.4597299198 1.491463179 1.5231964381 1.5549296972 1.5866629564 1.6183962155 1.6501294746 1.6818627337 
1.7135959929 1.745329252 1.7770625111 1.8087957702 1.8405290294 1.8722622885 1.9039955476 1.9357288068 1.9674620659 
1.999195325 2.0309285841 2.0626618433 2.0943951024 2.1261283615 2.1578616206 2.1895948798 2.2213281389 2.253061398 
2.2847946572 2.3165279163 2.3482611754 2.3799944345 2.4117276937 2.4434609528 2.4751942119 2.506927471 2.5386607302 
2.5703939893 2.6021272484 2.6338605076 2.6655937667 2.6973270258 2.7290602849 2.7607935441 2.7925268032 2.8242600623 
2.8559933214 2.8877265806 2.9194598397 2.9511930988 2.982926358 3.0146596171 3.0463928762 3.0781261353 3.1098593945 
3.1415926536 
_radius 1 100 double
1.3340734094e-15 0.014688321835 0.029270551664 0.043645848999 0.057724117667 0.071428546175 0.084695643145 0.097473273081 0.10971770183 
0.12139077037 0.13245803673 0.14288822487 0.15265383153 0.16173244529 0.1701082682 0.17777342029 0.18472875466 0.19098406942 
0.19655776775 0.20147615052 0.20577255758 0.20948647061 0.21266251413 0.2153491768 0.21759713564 0.21945729736 0.2209789291 
0.22220832466 0.22318821508 0.22395765009 0.22455159305 0.22499928032 0.22532070883 0.22552144133 0.22558698075 0.22547875271 
0.22513378878 0.22446945956 0.22339341272 0.22181766733 0.21967487725 0.21693420894 0.21361412808 0.2097896814 0.20559258727 
0.20120353666 0.19683740712 0.19272338219 0.18908295647 0.18610916584 0.18394983614 0.18269617701 0.18237618538 0.18295114897 
0.18431408515 0.18629111451 0.18864883431 0.19111058232 0.19338173876 0.19518092444 0.19627221111 0.19649347427 0.19577685676 
0.19415837029 0.19177487894 0.18884815255 0.18565744913 0.18250426053 0.17967506599 0.17740900023 0.17587597426 0.1751671302 
0.17529545537 0.17620213009 0.17776467261 0.17980536196 0.18210090672 0.18439522773 0.18641612225 0.18789451507 0.18858350724 
0.18827428033 0.18680683541 0.18407481978 0.18002476789 0.1746507632 0.16798586595 0.16009176732 0.15104811325 0.14094282829 
0.1298645611 0.11789804594 0.10512271803 0.09161436616 0.077449043978 0.062708023565 0.047482385681 0.031875970507 0.016005837719 
1.6787707013e-15 
_area 1 100 double
0 0.00051921414403 0.0020577994283 0.0045603954718 0.0079406384389 0.012089496229 0.016885706387 0.022206790681 0.027938643918 
0.033981649439 0.040251896007 0.046677363129 0.053190553647 0.059720325143 0.06618604252 0.072496645004 0.078556185208 0.084275959468 
0.089591203639 0.094477672437 0.098962006947 0.1031216744 0.10707250191 0.11093856613 0.11480141811 0.1186529814 0.12239587759 
0.12589377791 0.12902901216 0.13173809968 0.13402380863 0.13594894356 0.13761373484 0.13911904526 0.14052377334 0.14181143719 
0.14288046051 0.14356275994 0.14366266214 0.14300193866 0.14145824628 0.13898911922 0.13563837548 0.13152576043 0.12682453065 
0.12173501047 0.11646313012 0.11121150251 0.10619008263 0.10163621915 0.097996551649 0.095105487092 0.093004142135 0.091604333147 
0.09083200861 0.090662880927 0.090963272684 0.091458550452 0.091881994557 0.091933914118 0.091353586921 0.089991442522 0.087853594353 
0.085087664351 0.081920636643 0.078605319364 0.075371103265 0.072437937429 0.07001234675 0.068251933217 0.067254190178 0.067082221066 
0.067799442089 0.069427215027 0.071783068785 0.074526746223 0.077317009184 0.079850522163 0.081871350795 0.083180667328 0.083639080024 
0.083156999735 0.081676887413 0.079159474402 0.075586879325 0.070983158739 0.065437284309 0.059111393486 0.052228572284 0.045046475564 
0.037827488227 0.030813964623 0.024212913752 0.018191081992 0.012878860815 0.0083793219437 0.0047774112839 0.0021449369039 0.00053963833687 
4.2749984276e-17 
