# vtk DataFile Version 5.1
vtk output
ASCII
DATASET POLYDATA
POINTS 100 float
0.159986 0.0560003 0.798938 0.159965 0.0563294 0.79876 0.160066 0.057162 0.798123 
0.160221 0.0584465 0.796985 0.160331 0.0601031 0.795281 0.160272 0.062031 0.792931 
0.159917 0.0641172 0.789846 0.159149 0.0662459 0.785943 0.15788 0.0683077 0.781149 
0.15606 0.0702073 0.775414 0.153683 0.0718699 0.768711 0.15079 0.0732436 0.761048 
0.147456 0.074301 0.752457 0.143785 0.0750368 0.743001 0.139892 0.0754638 0.732763 
0.135884 0.0756079 0.721839 0.131846 0.0755018 0.710331 0.127825 0.0751794 0.698336 
0.123825 0.0746711 0.68594 0.119798 0.0740004 0.673211 0.115658 0.0731829 0.660193 
0.11128 0.0722263 0.646908 0.106524 0.0711329 0.633352 0.101248 0.0699026 0.619505 
0.095329 0.068537 0.605328 0.0886766 0.0670429 0.590776 0.0812491 0.0654357 0.5758 
0.0730587 0.0637411 0.560355 0.0641721 0.0619956 0.544403 0.0547038 0.0602451 0.52792 
0.0448043 0.0585427 0.510893 0.0346432 0.0569448 0.493318 0.0243905 0.0555072 0.475204 
0.0141984 0.054281 0.456564 0.00418547 0.0533087 0.437411 -0.00557427 0.0526224 0.417755 
-0.0150559 0.0522421 0.397599 -0.0242813 0.0521759 0.376936 -0.0333105 0.0524218 0.355749 
-0.0422272 0.0529696 0.334009 -0.0511204 0.0538042 0.311682 -0.0600653 0.0549079 0.288732 
-0.0691047 0.0562633 0.265122 -0.078234 0.0578542 0.240827 -0.0873918 0.0596661 0.215836 
-0.0964572 0.0616852 0.190155 -0.105254 0.0638964 0.163815 -0.113563 0.0662809 0.136871 
-0.121137 0.068813 0.109401 -0.127722 0.0714578 0.0815058 -0.133082 0.0741694 0.0533046 
-0.137014 0.0768909 0.024927 -0.139373 0.0795547 -0.00349222 -0.140078 0.0820861 -0.0318214 
-0.13912 0.0844068 -0.059939 -0.136563 0.0864403 -0.0877398 -0.132534 0.0881169 -0.115141 
-0.127211 0.0893798 -0.142083 -0.120805 0.0901887 -0.168535 -0.113539 0.0905234 -0.19449 
-0.105635 0.0903845 -0.219964 -0.0972907 0.0897927 -0.244989 -0.0886696 0.0887856 -0.269612 
-0.0798931 0.0874133 -0.293883 -0.0710371 0.0857321 -0.31785 -0.0621349 0.0837982 -0.341553 
-0.0531844 0.0816613 -0.365017 -0.0441586 0.0793594 -0.388249 -0.0350181 0.0769148 -0.411234 
-0.0257233 0.0743323 -0.433937 -0.016246 0.0715995 -0.456299 -0.00657813 0.0686893 -0.478248 
0.00326262 0.0655644 -0.499699 0.013231 0.062183 -0.520559 0.0232557 0.0585049 -0.540738 
0.0332445 0.0544984 -0.560156 0.0430911 0.0501455 -0.578745 0.0526833 0.0454467 -0.596458 
0.0619121 0.0404233 -0.613272 0.070679 0.0351181 -0.629192 0.0789029 0.0295938 -0.644246 
0.086524 0.0239299 -0.658487 0.093506 0.0182179 -0.671983 0.099836 0.0125551 -0.684816 
0.105522 0.00703931 -0.697072 0.11059 0.00176231 -0.708829 0.115078 -0.00319507 -0.720155 
0.119033 -0.0077671 -0.731092 0.122505 -0.0119058 -0.741659 0.125543 -0.0155821 -0.751842 
0.128193 -0.0187856 -0.761592 0.130493 -0.0215228 -0.770831 0.132475 -0.0238147 -0.779451 
0.134163 -0.0256928 -0.787325 0.135574 -0.0271958 -0.794311 0.13672 -0.0283649 -0.800268 
0.137608 -0.0292404 -0.805059 0.13824 -0.0298579 -0.808566 0.138618 -0.0302451 -0.8107 
0.138744 -0.03042 -0.811402 
LINES 2 100
OFFSETS vtktypeint64
0 100 
CONNECTIVITY vtktypeint64
0 1 2 3 4 5 6 7 8 
9 10 11 12 13 14 15 16 17 
18 19 20 21 22 23 24 25 26 
27 28 29 30 31 32 33 34 35 
36 37 38 39 40 41 42 43 44 
45 46 47 48 49 50 51 52 53 
54 55 56 57 58 59 60 61 62 
63 64 65 66 67 68 69 70 71 
72 73 74 75 76 77 78 79 80 
81 82 83 84 85 86 87 88 89 
90 91 92 93 94 95 96 97 98 
99 
POINT_DATA 100
FIELD FieldData 3
_theta 1 100 double
0 0.031733259127 0.063466518254 0.095199777382 0.12693303651 0.15866629564 0.19039955476 0.22213281389 0.25386607302 
0.28559933214 0.31733259127 0.3490658504 0.38079910953 0.41253236865 0.44426562778 0.47599888691 0.50773214603 0.53946540516 
0.57119866429 0.60293192342 0.63466518254 0.66639844167 0.6981317008 0.72986495992 0.76159821905 0.79333147818 0.82506473731 
0.85679799643 0.88853125556 0.92026451469 0.95199777382 0.98373103294 1.0154642921 1.0471975512 1.0789308103 1.1106640695 
1.1423973286 1.1741305877 1.2058638468 1.237597106 1.2693303651 1.3010636242 1.3327968833 1.3645301425 1.3962634016 
1.4279966607 1.4597299198 1.491463179 1.5231964381 1.5549296972 1.5866629564 1.6183962155 1.6501294746 1.6818627337 
1.7135959929 1.745329252 1.7770625111 1.8087957702 1.8405290294 1.8722622885 1.9039955476 1.9357288068 1.9674620659 
1.999195325 2.0309285841 2.0626618433 2.0943951024 2.1261283615 2.1578616206 2.1895948798 2.2213281389 2.253061398 
2.2847946572 2.3165279163 2.3482611754 2.3799944345 2.4117276937 2.4434609528 2.4751942119 2.506927471 2.5386607302 
2.5703939893 2.6021272484 2.6338605076 2.6655937667 2.6973270258 2.7290602849 2.7607935441 2.7925268032 2.8242600623 
2.8559933214 2.8877265806 2.9194598397 2.9511930988 2.982926358 3.0146596171 3.0463928762 3.0781261353 3.1098593945 
3.1415926536 
_radius 1 100 double
1.7985661186e-15 0.017460263196 0.034675288535 0.05141102693 0.067464081054 0.082672365211 0.096921153504 0.11014471413 0.12232429836 
0.13348327989 0.14367987443 0.15299749458 0.16153278465 0.16938188585 0.17662635476 0.18332100846 0.18948632765 0.19510757835 
0.2001414942 0.20452955977 0.20821526739 0.21116177105 0.21336638627 0.21486924853 0.2157547835 0.21614608289 0.21619351193 
0.21605965051 0.21590283741 0.21586121403 0.21603860139 0.21649320252 0.21723012084 0.21819878348 0.21929622723 0.22037668329 
0.22126702072 0.22178655755 0.22176881273 0.22108227235 0.21964736771 0.2174475506 0.21453334139 0.21101921558 0.20707398752 
0.20290589506 0.19874393879 0.19481724999 0.1913343747 0.18846438741 0.18632179493 0.18495732395 0.18435656211 0.18444732682 
0.18511438621 0.18621783366 0.18761058078 0.18915162295 0.19071408885 0.19218921694 0.19348831724 0.19454432446 0.19531335805 
0.19577572242 0.19593564415 0.19581962454 0.1954737147 0.19495957334 0.19434849248 0.19371300865 0.1931171106 0.19260700533 
0.192204228 0.19190198119 0.19166460662 0.19142945829 0.19111033213 0.19060190622 0.1897850374 0.18853292584 0.18671800323 
0.18421908835 0.18092814453 0.17675600168 0.17163661233 0.1655296431 0.15842135526 0.15032380234 0.14127244061 0.13132237439 
0.12054364746 0.10901618049 0.096825049628 0.084056734629 0.070796730156 0.057128576573 0.043134031642 0.028893878377 0.014488814135 
1.4048311847e-15 
_area 1 100 double
0 0.00053321627124 0.0021125354953 0.0046809756277 0.0081549616607 0.012436068003 0.017420357831 0.023003074974 0.029078691507 
0.035538508715 0.04226914703 0.049154271876 0.056079579738 0.062939411711 0.069643064004 0.07611910167 0.082316228245 0.088200199302 
0.093748698521 0.098947614944 0.10379422177 0.10827710365 0.11227031014 0.11576680042 0.11884917922 0.12156364703 0.12399408765 
0.12623872896 0.12836991644 0.1304280093 0.13243468724 0.13440879214 0.13637225093 0.1383423972 0.14031156836 0.14221885888 
0.14392463659 0.14520449504 0.14577885956 0.14537751431 0.14381414071 0.14104096691 0.13716833517 0.13244840244 0.12722948779 
0.12189211681 0.11678236349 0.1121604526 0.10817822191 0.10488643908 0.10225848662 0.10021331244 0.098631802117 0.097372194214 
0.096288041297 0.095246658665 0.094154465174 0.093005373153 0.091774548262 0.090449830438 0.089032183266 0.087530900129 0.08603211229 
0.084616954768 0.083371808694 0.082391686831 0.081730097304 0.081338385266 0.081101329464 0.080918965756 0.08072681789 0.080480625191 
0.080147798518 0.079714907721 0.079202786016 0.078674998445 0.078226521828 0.077946140897 0.077860646493 0.077888615446 0.077835530147 
0.077434288985 0.076405697294 0.074513658052 0.071603948348 0.067624355418 0.062627409941 0.056758741298 0.050235324028 0.043318476887 
0.036286227233 0.029408649331 0.022928406724 0.017047473286 0.011920210483 0.0076526183359 0.0043073112888 0.0019132010809 0.00047790887398 
6.6773708962e-17 
