# vtk DataFile Version 5.1
vtk output
ASCII
DATASET POLYDATA
POINTS 100 float
0.0911132 0.0583239 0.727836 0.0913579 0.058501 0.727864 0.0922075 0.0588976 0.727735 
0.093573 0.0594857 0.727388 0.095316 0.0602211 0.726729 0.0972629 0.0610472 0.725643 
0.0992236 0.0619003 0.723999 0.101011 0.0627149 0.721669 0.102457 0.0634295 0.718531 
0.103433 0.0639922 0.714489 0.103851 0.0643642 0.70947 0.103675 0.0645239 0.703438 
0.102915 0.0644671 0.69639 0.101621 0.0642073 0.688354 0.0998691 0.0637733 0.679385 
0.0977482 0.0632059 0.66956 0.0953453 0.0625531 0.658965 0.0927319 0.061865 0.647693 
0.089954 0.0611883 0.635832 0.0870267 0.0605618 0.623458 0.0839337 0.0600124 0.610637 
0.080631 0.0595525 0.597419 0.077055 0.0591792 0.583837 0.073133 0.0588754 0.569915 
0.0687943 0.058612 0.555666 0.0639809 0.0583523 0.541097 0.0586554 0.0580569 0.526215 
0.0528065 0.0576891 0.511028 0.0464496 0.0572208 0.495545 0.0396247 0.056637 0.479779 
0.0323906 0.0559397 0.463744 0.0248172 0.0551502 0.447451 0.0169779 0.0543087 0.430908 
0.00894159 0.0534728 0.414115 0.000767361 0.0527134 0.39706 -0.00749808 0.0521091 0.379718 
-0.0158202 0.0517395 0.362054 -0.024173 0.0516777 0.344019 -0.0325341 0.0519829 0.325555 
-0.0408769 0.0526942 0.306601 -0.0491646 0.0538249 0.287096 -0.0573442 0.0553604 0.266985 
-0.065343 0.057257 0.246227 -0.0730685 0.0594446 0.224794 -0.0804108 0.061831 0.20268 
-0.087248 0.0643095 0.179899 -0.093454 0.066767 0.156486 -0.0989068 0.0690943 0.132495 
-0.103497 0.0711956 0.107997 -0.107135 0.0729973 0.0830744 -0.109756 0.0744555 0.0578161 
-0.111319 0.0755602 0.0323137 -0.11181 0.0763375 0.00665629 -0.111237 0.076847 -0.0190728 
-0.109624 0.077177 -0.0447991 -0.107008 0.0774361 -0.070458 -0.103432 0.0777428 -0.0959958 
-0.0989443 0.0782127 -0.121369 -0.0935973 0.0789467 -0.146543 -0.0874504 0.0800185 -0.17149 
-0.0805748 0.0814654 -0.196189 -0.0730596 0.0832806 -0.220622 -0.0650183 0.0854108 -0.244774 
-0.0565929 0.0877562 -0.268629 -0.0479558 0.090176 -0.292172 -0.0393065 0.0924974 -0.315386 
-0.0308636 0.0945276 -0.338249 -0.0228509 0.096068 -0.360739 -0.0154799 0.0969299 -0.382828 
-0.00892862 0.0969488 -0.404481 -0.00332049 0.095998 -0.425661 0.00129522 0.0939984 -0.446323 
0.00495787 0.0909256 -0.466418 0.00780291 0.0868113 -0.485892 0.0100603 0.081741 -0.504691 
0.0120432 0.0758474 -0.522761 0.014127 0.0692998 -0.540051 0.0167206 0.0622914 -0.556519 
0.0202319 0.0550246 -0.572133 0.0250312 0.047697 -0.586876 0.0314161 0.0404883 -0.600747 
0.0395816 0.0335491 -0.613764 0.0495995 0.0269946 -0.62596 0.0614079 0.0209 -0.637383 
0.0748141 0.0153016 -0.648094 0.0895085 0.0102006 -0.658156 0.105091 0.00557012 -0.667633 
0.121102 0.00136436 -0.676582 0.137062 -0.00247143 -0.685043 0.15251 -0.00599115 -0.693039 
0.167032 -0.00923936 -0.70057 0.180293 -0.012245 -0.707609 0.19205 -0.0150178 -0.714108 
0.202158 -0.0175477 -0.719996 0.210558 -0.0198074 -0.725191 0.21727 -0.0217566 -0.729601 
0.22236 -0.023349 -0.733137 0.225918 -0.0245389 -0.735718 0.228031 -0.025288 -0.737283 
0.228762 -0.0255713 -0.737791 
LINES 2 100
OFFSETS vtktypeint64
0 100 
CONNECTIVITY vtktypeint64
0 1 2 3 4 5 6 7 8 
9 10 11 12 13 14 15 16 17 
18 19 20 21 22 23 24 25 26 
27 28 29 30 31 32 33 34 35 
36 37 38 39 40 41 42 43 44 
45 46 47 48 49 50 51 52 53 
54 55 56 57 58 59 60 61 62 
63 64 65 66 67 68 69 70 71 
72 73 74 75 76 77 78 79 80 
81 82 83 84 85 86 87 88 89 
90 91 92 93 94 95 96 97 98 
99 
POINT_DATA 100
FIELD FieldData 3
_theta 1 100 double
0 0.031733259127 0.063466518254 0.095199777382 0.12693303651 0.15866629564 0.19039955476 0.22213281389 0.25386607302 
0.28559933214 0.31733259127 0.3490658504 0.38079910953 0.41253236865 0.44426562778 0.47599888691 0.50773214603 0.53946540516 
0.57119866429 0.60293192342 0.63466518254 0.66639844167 0.6981317008 0.72986495992 0.76159821905 0.79333147818 0.82506473731 
0.85679799643 0.88853125556 0.92026451469 0.95199777382 0.98373103294 1.0154642921 1.0471975512 1.0789308103 1.1106640695 
1.1423973286 1.1741305877 1.2058638468 1.237597106 1.2693303651 1.3010636242 1.3327968833 1.3645301425 1.3962634016 
1.4279966607 1.4597299198 1.491463179 1.5231964381 1.5549296972 1.5866629564 1.6183962155 1.6501294746 1.6818627337 
1.7135959929 1.745329252 1.7770625111 1.8087957702 1.8405290294 1.8722622885 1.9039955476 1.9357288068 1.9674620659 
1.999195325 2.0309285841 2.0626618433 2.0943951024 2.1261283615 2.1578616206 2.1895948798 2.2213281389 2.253061398 
2.2847946572 2.3165279163 2.3482611754 2.3799944345 2.4117276937 2.4434609528 2.4751942119 2.506927471 2.5386607302 
2.5703939893 2.6021272484 2.6338605076 2.6655937667 2.6973270258 2.7290602849 2.7607935441 2.7925268032 2.8242600623 
2.8559933214 2.8877265806 2.9194598397 2.9511930988 2.982926358 3.0146596171 3.0463928762 3.0781261353 3.1098593945 
3.1415926536 
_radius 1 100 double
8.9616560234e-16 0.01541666225 0.030657753809 0.045552422951 0.059956007018 0.073758678562 0.086889403818 0.099315235237 0.11103664182 
0.12207988722 0.13248745771 0.14230745482 0.15158291579 0.16034222181 0.16859191398 0.17631314552 0.18346258694 0.18997796534 
0.1957877186 0.20082359886 0.20503452651 0.20839962755 0.21093826979 0.21271514675 0.21383908213 0.21445517404 0.21473100746 
0.21483874534 0.21493575244 0.21514677778 0.21555043746 0.21617184646 0.21698207962 0.21790409128 0.21882396233 0.21960583287 
0.22010856722 0.22020211282 0.219781691 0.21877837147 0.21716514899 0.21495826104 0.21221407748 0.20902240236 0.20549741147 
0.20176765436 0.19796650252 0.19422407739 0.19066109489 0.18738442036 0.1844837285 0.18202870184 0.18006662913 0.17862079981 
0.17769037427 0.17725219493 0.17726431198 0.17767022743 0.17840262802 0.17938598163 0.18053834165 0.18177310476 0.18300088705 
0.18413079603 0.18507029628 0.18572413738 0.18599493916 0.1857889903 0.18502827317 0.18366530111 0.18169567729 0.1791648692 
0.17616749646 0.1728384186 0.16933626291 0.16582240602 0.16244056074 0.15930201136 0.15647887416 0.15400430912 0.15187635926 
0.1500618945 0.148498503 0.14709381133 0.1457225084 0.14422122978 0.14238188446 0.13994730071 0.13661846164 0.1320817852 
0.12605193451 0.11831325571 0.10874592022 0.097334337733 0.084162416418 0.069401060599 0.053291910843 0.036130084263 0.01824780542 
7.0087797723e-16 
_area 1 100 double
0 0.00052445352172 0.0020795275905 0.0046155615695 0.0080642311131 0.012351777999 0.017405640162 0.023151412346 0.029502820866 
0.036351054759 0.043559381855 0.050965903305 0.058394200686 0.065669682162 0.072638277154 0.079183233224 0.085235326108 0.090772698419 
0.095809595425 0.10037788124 0.10450885213 0.10822272489 0.11152910768 0.11443660487 0.11696643081 0.1191642751 0.12110599286 
0.12289519398 0.12465328373 0.12650345403 0.1285495688 0.13085116835 0.13339895672 0.1360991899 0.13877498059 0.14118596701 
0.14306119803 0.14413856229 0.14420492897 0.14313092388 0.14089374344 0.13758265507 0.13338531197 0.12855743013 0.12338151186 
0.11812087795 0.11297715189 0.10806719362 0.10343249306 0.099070343397 0.09496574511 0.091113167805 0.08752831749 0.084256530237 
0.081385688478 0.079071621537 0.077374084027 0.076186359136 0.075316464796 0.074551459244 0.073691816997 0.072635982216 0.071406194792 
0.070066392633 0.068787872214 0.067732818255 0.066944429692 0.066311473774 0.065730477594 0.065217570848 0.064842703908 0.064351535079 
0.063699686588 0.06294179057 0.062158635359 0.061425091481 0.060781770492 0.06021326372 0.059651481259 0.059006282803 0.058199406716 
0.057176945226 0.055899281743 0.054325141506 0.052407885849 0.050110737215 0.047422380444 0.044327091941 0.040757785053 0.036651553733 
0.03203001068 0.027012636569 0.021800667184 0.016654030286 0.011858235237 0.0076806280178 0.0043266952519 0.0019136688372 0.0004755547123 
6.3330956093e-17 
