# vtk DataFile Version 5.1
vtk output
ASCII
DATASET POLYDATA
POINTS 100 float
0.123615 0.0836453 0.772173 0.123694 0.0836187 0.771905 0.123984 0.0833986 0.770926 
0.124409 0.0830115 0.769254 0.124848 0.0824965 0.766919 0.125158 0.0819016 0.763953 
0.125189 0.0812767 0.760382 0.124804 0.080668 0.756225 0.123893 0.0801118 0.751481 
0.122392 0.07963 0.746134 0.120282 0.0792267 0.740146 0.117593 0.0788876 0.733466 
0.114394 0.0785806 0.726037 0.11078 0.0782588 0.717799 0.106855 0.077865 0.708706 
0.102716 0.0773373 0.698732 0.0984337 0.0766147 0.687876 0.0940415 0.0756432 0.676172 
0.0895299 0.0743801 0.663683 0.0848464 0.0727983 0.650502 0.0799031 0.0708881 0.636743 
0.0745904 0.0686578 0.622531 0.0687936 0.0661328 0.607988 0.0624124 0.0633539 0.593225 
0.0553775 0.0603739 0.578329 0.0476646 0.0572546 0.563355 0.039301 0.0540632 0.548325 
0.0303666 0.0508694 0.533227 0.0209858 0.0477421 0.518018 0.0113137 0.0447478 0.502638 
0.00151774 0.0419488 0.487016 -0.00824327 0.0394016 0.471079 -0.0178393 0.0371565 0.454766 
-0.0271855 0.0352566 0.438035 -0.0362523 0.033737 0.420862 -0.0450677 0.0326239 0.403245 
-0.053712 0.0319341 0.385198 -0.0623032 0.031674 0.366741 -0.0709774 0.0318397 0.347894 
-0.0798649 0.0324169 0.328663 -0.0890657 0.0333814 0.309033 -0.0986275 0.0347014 0.288965 
-0.10853 0.0363394 0.26839 -0.118675 0.0382552 0.247215 -0.128889 0.0404095 0.22533 
-0.138931 0.0427672 0.202624 -0.148515 0.0453003 0.178995 -0.157329 0.0479899 0.154368 
-0.165067 0.0508273 0.12871 -0.171456 0.053813 0.102038 -0.176283 0.0569545 0.0744258 
-0.179411 0.0602622 0.0460053 -0.180791 0.0637451 0.016957 -0.180464 0.0674044 -0.012501 
-0.178557 0.0712284 -0.0421309 -0.175261 0.0751878 -0.0716944 -0.170815 0.0792321 -0.100973 
-0.16548 0.0832887 -0.129784 -0.159515 0.0872637 -0.157998 -0.153154 0.0910461 -0.185543 
-0.146589 0.0945134 -0.212406 -0.13996 0.0975396 -0.238627 -0.133351 0.100004 -0.26429 
-0.126792 0.101801 -0.289504 -0.120272 0.102848 -0.314386 -0.113746 0.103091 -0.339042 
-0.107155 0.102512 -0.363552 -0.100436 0.101126 -0.387959 -0.0935371 0.0989844 -0.412263 
-0.0864219 0.0961668 -0.43642 -0.079076 0.0927759 -0.46035 -0.0715047 0.0889282 -0.483946 
-0.0637292 0.0847455 -0.507091 -0.0557795 0.0803457 -0.529669 -0.0476874 0.075835 -0.551584 
-0.0394798 0.0713027 -0.572764 -0.0311747 0.0668178 -0.593173 -0.0227801 0.0624284 -0.612811 
-0.0142958 0.0581638 -0.631707 -0.00571936 0.054038 -0.649911 0.00294718 0.0500556 -0.667484 
0.0116889 0.0462168 -0.684481 0.0204709 0.0425229 -0.700943 0.0292332 0.0389805 -0.716884 
0.0378894 0.035604 -0.732283 0.0463293 0.0324158 -0.747087 0.0544253 0.0294448 -0.761213 
0.0620426 0.0267235 -0.774554 0.0690514 0.0242832 -0.786996 0.0753401 0.0221499 -0.798425 
0.0808262 0.0203393 -0.808742 0.0854655 0.0188539 -0.817875 0.0892564 0.0176816 -0.825784 
0.0922387 0.0167954 -0.832465 0.094488 0.0161562 -0.837946 0.0961055 0.0157167 -0.84228 
0.0972036 0.0154267 -0.845536 0.0978914 0.0152391 -0.847785 0.0982593 0.0151154 -0.849089 
0.0983674 0.0150304 -0.849492 
LINES 2 100
OFFSETS vtktypeint64
0 100 
CONNECTIVITY vtktypeint64
0 1 2 3 4 5 6 7 8 
9 10 11 12 13 14 15 16 17 
18 19 20 21 22 23 24 25 26 
27 28 29 30 31 32 33 34 35 
36 37 38 39 40 41 42 43 44 
45 46 47 48 49 50 51 52 53 
54 55 56 57 58 59 60 61 62 
63 64 65 66 67 68 69 70 71 
72 73 74 75 76 77 78 79 80 
81 82 83 84 85 86 87 88 89 
90 91 92 93 94 95 96 97 98 
99 
POINT_DATA 100
FIELD FieldData 3
_theta 1 100 double
0 0.031733259127 0.063466518254 0.095199777382 0.12693303651 0.15866629564 0.19039955476 0.22213281389 0.25386607302 
0.28559933214 0.31733259127 0.3490658504 0.38079910953 0.41253236865 0.44426562778 0.47599888691 0.50773214603 0.53946540516 
0.57119866429 0.60293192342 0.63466518254 0.66639844167 0.6981317008 0.72986495992 0.76159821905 0.79333147818 0.82506473731 
0.85679799643 0.88853125556 0.92026451469 0.95199777382 0.98373103294 1.0154642921 1.0471975512 1.0789308103 1.1106640695 
1.1423973286 1.1741305877 1.2058638468 1.237597106 1.2693303651 1.3010636242 1.3327968833 1.3645301425 1.3962634016 
1.4279966607 1.4597299198 1.491463179 1.5231964381 1.5549296972 1.5866629564 1.6183962155 1.6501294746 1.6818627337 
1.7135959929 1.745329252 1.7770625111 1.8087957702 1.8405290294 1.8722622885 1.9039955476 1.9357288068 1.9674620659 
1.999195325 2.0309285841 2.0626618433 2.0943951024 2.1261283615 2.1578616206 2.1895948798 2.2213281389 2.253061398 
2.2847946572 2.3165279163 2.3482611754 2.3799944345 2.4117276937 2.4434609528 2.4751942119 2.506927471 2.5386607302 
2.5703939893 2.6021272484 2.6338605076 2.6655937667 2.6973270258 2.7290602849 2.7607935441 2.7925268032 2.8242600623 
2.8559933214 2.8877265806 2.9194598397 2.9511930988 2.982926358 3.0146596171 3.0463928762 3.0781261353 3.1098593945 
3.1415926536 
_radius 1 100 double
2.992586547e-16 0.014979003314 0.029909031922 0.044729334451 0.059375563795 0.073779830645 0.08787211384 0.1015829296 0.11484668615 
0.12760481696 0.13980781098 0.15141566876 0.16239691903 0.17272684429 0.18238576547 0.19135806701 0.19963221799 0.20720158674 
0.21406557516 0.22023060742 0.22571071329 0.23052768115 0.23471090068 0.23829704998 0.24132972036 0.24385890151 0.24593999509 
0.2476318568 0.24899351387 0.25007968668 0.2509357795 0.25159324693 0.25206605968 0.25234855698 0.25241460178 0.25221789407 
0.25169357277 0.25076164332 0.24933298956 0.24731850019 0.24464111417 0.24124958226 0.23713184472 0.23232549623 0.22692300134 
0.22107007213 0.21495676737 0.20880227701 0.20283583126 0.19727732724 0.19232148002 0.18812810711 0.18481868616 0.18247638486 
0.18114460546 0.18081933991 0.18143475753 0.18284874673 0.18484050405 0.18712890233 0.18940889263 0.19139381823 0.19285144676 
0.19362723949 0.19365343721 0.19294501188 0.19158513668 0.18970518257 0.18746563133 0.18504135508 0.18260952994 0.18033686073 
0.17836518119 0.17679708438 0.17568418657 0.17502025085 0.17474037107 0.17472625622 0.17481669005 0.17482160002 0.17453786377 
0.17376497329 0.17231890539 0.17004292824 0.16681451716 0.16254800591 0.15719308635 0.15072984187 0.14316162226 0.13450756151 
0.12479665151 0.11406483765 0.10235564028 0.089723652628 0.076239393895 0.061993746217 0.047100558655 0.0316966527 0.015939087609 
3.8068678717e-16 
_area 1 100 double
0 0.0006322170623 0.00251625382 0.0056148306545 0.0098674137146 0.015191770217 0.021485029669 0.028624377143 0.036468565589 
0.044861828032 0.053640846352 0.062643635074 0.071717728556 0.08072491093 0.089541333837 0.098054963395 0.1061649427 0.1137865086 
0.12086051164 0.12736288082 0.13330966389 0.13875575398 0.14378714544 0.14850696549 0.15301614979 0.15739197085 0.16167030657 
0.1658370912 0.1698312275 0.17355861979 0.17691419011 0.17980505918 0.18216671782 0.18396616932 0.1851898503 0.18581926309 
0.18580415745 0.18504812181 0.18341778451 0.18077498592 0.17702071775 0.17213625917 0.16620905614 0.15943552806 0.15209893803 
0.14452702152 0.13703943677 0.12989675972 0.12326213774 0.1171896544 0.11165177251 0.10659586422 0.10200090951 0.097913280493 
0.094445243342 0.091734102439 0.089915135934 0.089095423868 0.089249054298 0.090106755887 0.091181285531 0.091982570982 0.092179916847 
0.091609761512 0.090237591411 0.088103097278 0.085216091792 0.081781539257 0.078037361882 0.074338646585 0.071042018067 0.068552259922 
0.066913167883 0.066010924157 0.06581075381 0.066250336132 0.067215932139 0.068572638441 0.070146872784 0.071704489581 0.072967705902 
0.073664769589 0.073565696918 0.072500124371 0.070367857529 0.067144501895 0.062880788966 0.057695127158 0.051761046432 0.045292235822 
0.038527406625 0.031716213234 0.025106561242 0.018932836794 0.013404347733 0.0086943854694 0.004932415227 0.002202874982 0.00055202239564 
2.8190950447e-17 
