# vtk DataFile Version 5.1
vtk output
ASCII
DATASET POLYDATA
POINTS 100 float
0.135984 0.0567298 0.729533 0.136002 0.0568701 0.729334 0.136118 0.0571719 0.7286 
0.1363 0.0576363 0.727326 0.136499 0.0582641 0.725504 0.136647 0.0590534 0.723117 
0.13667 0.0599972 0.720145 0.136488 0.0610805 0.716555 0.136021 0.0622784 0.71231 
0.1352 0.0635552 0.707362 0.133962 0.0648646 0.701662 0.132262 0.0661511 0.695163 
0.130072 0.0673534 0.687827 0.127378 0.068408 0.679628 0.124184 0.0692539 0.670566 
0.120503 0.0698371 0.660663 0.116361 0.0701153 0.649971 0.111787 0.070061 0.638568 
0.106812 0.0696634 0.626558 0.101462 0.0689295 0.614058 0.0957633 0.0678829 0.601193 
0.089732 0.0665619 0.588082 0.0833812 0.0650159 0.574832 0.0767205 0.0633021 0.56152 
0.0697585 0.0614814 0.54819 0.0625073 0.0596151 0.53485 0.0549853 0.0577619 0.521468 
0.0472207 0.0559759 0.507977 0.039253 0.0543063 0.494283 0.0311336 0.0527963 0.480274 
0.0229244 0.0514843 0.465834 0.0146943 0.0504043 0.450849 0.00651475 0.0495864 0.435224 
-0.00154594 0.0490571 0.418886 -0.00942815 0.0488387 0.40179 -0.0170861 0.0489479 0.38392 
-0.0244914 0.0493941 0.365284 -0.031634 0.0501773 0.34591 -0.0385213 0.0512857 0.325839 
-0.0451731 0.0526942 0.305114 -0.0516159 0.0543637 0.283777 -0.0578735 0.0562415 0.261859 
-0.0639578 0.0582633 0.239382 -0.0698605 0.0603571 0.216358 -0.075545 0.0624477 0.192792 
-0.0809432 0.0644626 0.168691 -0.0859547 0.0663378 0.14407 -0.0904517 0.0680234 0.118961 
-0.0942878 0.0694879 0.0934149 -0.0973108 0.0707209 0.0675106 -0.099379 0.0717332 0.0413496 
-0.100377 0.0725554 0.0150542 -0.100234 0.0732329 -0.0112411 -0.0989335 0.0738205 -0.0374 
-0.0965255 0.0743742 -0.0632964 -0.0931266 0.0749442 -0.0888267 -0.0889158 0.075567 -0.113919 
-0.0841228 0.0762598 -0.13854 -0.0790092 0.0770166 -0.162695 -0.0738459 0.0778068 -0.186429 
-0.0688872 0.0785776 -0.209814 -0.0643451 0.0792575 -0.232939 -0.0603667 0.0797636 -0.255895 
-0.0570174 0.0800095 -0.278759 -0.0542713 0.0799139 -0.301582 -0.0520115 0.0794091 -0.324376 
-0.0500395 0.0784478 -0.347111 -0.0480938 0.077008 -0.369711 -0.0458755 0.0750952 -0.392066 
-0.0430793 0.0727418 -0.414038 -0.0394252 0.0700038 -0.435477 -0.0346892 0.0669555 -0.456241 
-0.0287282 0.0636823 -0.476211 -0.0214971 0.0602731 -0.495302 -0.0130563 0.0568134 -0.513479 
-0.00356808 0.0533788 -0.530752 0.00671723 0.0500309 -0.54718 0.0174844 0.0468144 -0.562856 
0.0283828 0.0437578 -0.577894 0.0390584 0.0408751 -0.592412 0.0491871 0.0381689 -0.606509 
0.058502 0.0356352 -0.620253 0.0668155 0.0332679 -0.633665 0.0740314 0.0310624 -0.646713 
0.0801466 0.0290187 -0.65931 0.0852427 0.0271427 -0.671326 0.0894691 0.0254454 -0.682601 
0.0930187 0.0239415 -0.69296 0.0961005 0.0226461 -0.702242 0.0989117 0.0215712 -0.710315 
0.101613 0.0207219 -0.717099 0.104312 0.0200937 -0.722572 0.10705 0.0196711 -0.726783 
0.109803 0.0194269 -0.729843 0.112487 0.0193244 -0.731916 0.114977 0.0193201 -0.7332 
0.117125 0.0193682 -0.733904 0.118785 0.0194255 -0.734225 0.119833 0.0194562 -0.734325 
0.120186 0.0194358 -0.734309 
LINES 2 100
OFFSETS vtktypeint64
0 100 
CONNECTIVITY vtktypeint64
0 1 2 3 4 5 6 7 8 
9 10 11 12 13 14 15 16 17 
18 19 20 21 22 23 24 25 26 
27 28 29 30 31 32 33 34 35 
36 37 38 39 40 41 42 43 44 
45 46 47 48 49 50 51 52 53 
54 55 56 57 58 59 60 61 62 
63 64 65 66 67 68 69 70 71 
72 73 74 75 76 77 78 79 80 
81 82 83 84 85 86 87 88 89 
90 91 92 93 94 95 96 97 98 
99 
POINT_DATA 100
FIELD FieldData 3
_theta 1 100 double
0 0.031733259127 0.063466518254 0.095199777382 0.12693303651 0.15866629564 0.19039955476 0.22213281389 0.25386607302 
0.28559933214 0.31733259127 0.3490658504 0.38079910953 0.41253236865 0.44426562778 0.47599888691 0.50773214603 0.53946540516 
0.57119866429 0.60293192342 0.63466518254 0.66639844167 0.6981317008 0.72986495992 0.76159821905 0.79333147818 0.82506473731 
0.85679799643 0.88853125556 0.92026451469 0.95199777382 0.98373103294 1.0154642921 1.0471975512 1.0789308103 1.1106640695 
1.1423973286 1.1741305877 1.2058638468 1.237597106 1.2693303651 1.3010636242 1.3327968833 1.3645301425 1.3962634016 
1.4279966607 1.4597299198 1.491463179 1.5231964381 1.5549296972 1.5866629564 1.6183962155 1.6501294746 1.6818627337 
1.7135959929 1.745329252 1.7770625111 1.8087957702 1.8405290294 1.8722622885 1.9039955476 1.9357288068 1.9674620659 
1.999195325 2.0309285841 2.0626618433 2.0943951024 2.1261283615 2.1578616206 2.1895948798 2.2213281389 2.253061398 
2.2847946572 2.3165279163 2.3482611754 2.3799944345 2.4117276937 2.4434609528 2.4751942119 2.506927471 2.5386607302 
2.5703939893 2.6021272484 2.6338605076 2.6655937667 2.6973270258 2.7290602849 2.7607935441 2.7925268032 2.8242600623 
2.8559933214 2.8877265806 2.9194598397 2.9511930988 2.982926358 3.0146596171 3.0463928762 3.0781261353 3.1098593945 
3.1415926536 
_radius 1 100 double
1.2685846686e-15 0.014887826199 0.029604272617 0.043989513096 0.057907929183 0.071255583278 0.083963104493 0.095994005174 0.10733934331 
0.1180102526 0.1280299725 0.13742660366 0.14622712065 0.15445258455 0.16211433665 0.16921126998 0.17572880511 0.18164052067 
0.18691317579 0.19151508302 0.19542673693 0.19865170218 0.20122532618 0.20321896226 0.20473800799 0.20591306869 0.20688485138 
0.20778487192 0.20871547729 0.2097335249 0.21084164199 0.21198904729 0.21308119532 0.21399537295 0.21459869913 0.21476552641 
0.2143922469 0.21340840842 0.21178370555 0.20953089009 0.20670499461 0.20339945794 0.19973975444 0.19587501754 0.19196804829 
0.18818412323 0.18467918208 0.18158825329 0.179015336 0.17702626197 0.17564596031 0.17486072347 0.17462469883 0.17486851253 
0.17550723024 0.17644517089 0.17757675893 0.17878538471 0.17994449543 0.18092456108 0.18160578601 0.18189230501 0.18172263923 
0.18107415101 0.17996301512 0.17844146972 0.17659182572 0.17451719242 0.17233159335 0.1701527341 0.16809856165 0.16628596652 
0.16482822297 0.16382786695 0.16336367813 0.16347341039 0.16413651087 0.16526204555 0.16668591388 0.16817864836 0.16946209498 
0.17023173716 0.17018169445 0.16903023485 0.16654381876 0.16255730808 0.15698776806 0.14983974485 0.14120097683 0.1312288865 
0.12012961046 0.10813257328 0.095464538432 0.082327435247 0.068883723307 0.05525137034 0.041507928532 0.02770062969 0.01385810992 
2.835112797e-16 
_area 1 100 double
0 0.00052409328501 0.0020642769166 0.004532302233 0.0078049060572 0.011750085761 0.016248448229 0.021202095035 0.026530452935 
0.032159498777 0.03801276269 0.044009264875 0.050068715576 0.056120169981 0.062108001846 0.067989975354 0.073726795794 0.079268298537 
0.084544248161 0.089465593065 0.093937005164 0.097877576914 0.10124499075 0.10405777058 0.10640945457 0.10846739841 0.11044758418 
0.11256162221 0.11495263527 0.11765460862 0.12059080338 0.12359641965 0.12644890743 0.12890035221 0.13071023267 0.13167577115 
0.13165630152 0.13058884625 0.12849392915 0.12547253316 0.12169579078 0.11738771982 0.11279951304 0.10817597118 0.10372293662 
0.099589459488 0.09586785366 0.092600201185 0.089779985602 0.087348548029 0.085195559602 0.083182251462 0.081167123274 0.0790171073 
0.076699868951 0.074197668057 0.071578725608 0.068948027354 0.066396830413 0.064024017548 0.061923139949 0.06018041744 0.058875905933 
0.058057540896 0.05768484362 0.057668149795 0.057913668716 0.058244614803 0.058422074869 0.058268456712 0.057745701848 0.056955104494 
0.056109860727 0.055516547334 0.055600799019 0.057125330447 0.059720535947 0.062482250183 0.065147822405 0.067494568162 0.069284445514 
0.070284774877 0.070301087996 0.069203129711 0.066936617525 0.063522184893 0.059047943919 0.053662464059 0.047570408954 0.041026023768 
0.034316887545 0.027735893059 0.021548338021 0.015965437639 0.011132859757 0.0071357303843 0.0040145754188 0.0017837335657 0.0004457969155 
9.6477562273e-18 
