# vtk DataFile Version 5.1
vtk output
ASCII
DATASET POLYDATA
POINTS 100 float
0.10618 0.0634773 0.837286 0.106446 0.0637194 0.836927 0.107289 0.0642829 0.835657 
0.108632 0.0651198 0.833528 0.110355 0.0661562 0.830618 0.112306 0.0673015 0.827019 
0.114324 0.0684582 0.822823 0.116248 0.0695323 0.818104 0.11794 0.0704432 0.812906 
0.119293 0.0711309 0.807239 0.120235 0.0715608 0.80107 0.120738 0.0717248 0.794334 
0.120807 0.0716384 0.786938 0.120472 0.0713358 0.778781 0.119777 0.0708622 0.769766 
0.118762 0.0702657 0.759824 0.117455 0.0695888 0.748924 0.115857 0.0688623 0.737086 
0.113937 0.0681009 0.724384 0.111633 0.0673024 0.710944 0.108855 0.0664489 0.696931 
0.105498 0.0655123 0.682538 0.101455 0.0644596 0.667959 0.0966303 0.0632612 0.653375 
0.0909599 0.0618969 0.638929 0.084421 0.0603623 0.624712 0.0770417 0.0586712 0.610755 
0.0689031 0.0568566 0.597025 0.0601357 0.0549677 0.583433 0.0509089 0.0530648 0.569844 
0.041416 0.0512124 0.556098 0.0318553 0.0494714 0.542027 0.0224105 0.0478918 0.527479 
0.0132324 0.0465065 0.512332 0.00442391 0.0453284 0.496511 -0.00396856 0.0443498 0.479986 
-0.0119581 0.0435453 0.462778 -0.0196124 0.0428776 0.444944 -0.0270426 0.0423048 0.426566 
-0.0343867 0.0417899 0.407731 -0.04179 0.0413083 0.388511 -0.0493835 0.0408556 0.368949 
-0.0572651 0.0404507 0.349046 -0.0654831 0.0401378 0.328755 -0.074026 0.0399828 0.307984 
-0.0828184 0.0400674 0.286605 -0.0917235 0.0404804 0.264467 -0.100552 0.0413069 0.241423 
-0.109079 0.0426178 0.217345 -0.117056 0.0444604 0.192149 -0.124236 0.0468509 0.165807 
-0.13039 0.049771 0.138362 -0.135324 0.0531675 0.109929 -0.13889 0.0569568 0.0806857 
-0.140995 0.061032 0.0508657 -0.141602 0.0652724 0.020735 -0.140732 0.069555 -0.00942817 
-0.138451 0.0737647 -0.0393574 -0.134868 0.0778035 -0.0688188 -0.130117 0.0815972 -0.0976275 
-0.124352 0.085098 -0.125658 -0.117735 0.0882842 -0.152846 -0.110425 0.0911561 -0.179187 
-0.102573 0.0937293 -0.204721 -0.0943196 0.0960265 -0.229522 -0.0857884 0.098069 -0.253678 
-0.0770884 0.0998697 -0.277274 -0.068312 0.101427 -0.300382 -0.0595358 0.102723 -0.323042 
-0.0508202 0.103724 -0.345268 -0.04221 0.104385 -0.367041 -0.0337341 0.104656 -0.388321 
-0.0254049 0.10449 -0.40905 -0.0172195 0.103852 -0.429173 -0.00916096 0.102724 -0.44864 
-0.00120057 0.101115 -0.467422 0.0066975 0.0990603 -0.485513 0.0145709 0.09662 -0.502929 
0.0224525 0.0938776 -0.519711 0.0303636 0.0909315 -0.535907 0.0383073 0.0878865 -0.55157 
0.0462635 0.0848441 -0.56674 0.0541861 0.0818935 -0.581436 0.0620026 0.0791045 -0.595646 
0.0696177 0.0765226 -0.609326 0.0769189 0.0741673 -0.622398 0.0837861 0.0720345 -0.634758 
0.0901019 0.0701005 -0.646287 0.0957629 0.0683297 -0.656866 0.10069 0.0666824 -0.666386 
0.104839 0.0651227 -0.67477 0.1082 0.0636261 -0.681973 0.110807 0.0621835 -0.687998 
0.112728 0.0608036 -0.692889 0.114061 0.0595121 -0.69673 0.11492 0.0583475 -0.699631 
0.115428 0.0573555 -0.701713 0.115697 0.0565824 -0.703096 0.115818 0.0560672 -0.703879 
0.115851 0.0558367 -0.704125 
LINES 2 100
OFFSETS vtktypeint64
0 100 
CONNECTIVITY vtktypeint64
0 1 2 3 4 5 6 7 8 
9 10 11 12 13 14 15 16 17 
18 19 20 21 22 23 24 25 26 
27 28 29 30 31 32 33 34 35 
36 37 38 39 40 41 42 43 44 
45 46 47 48 49 50 51 52 53 
54 55 56 57 58 59 60 61 62 
63 64 65 66 67 68 69 70 71 
72 73 74 75 76 77 78 79 80 
81 82 83 84 85 86 87 88 89 
90 91 92 93 94 95 96 97 98 
99 
POINT_DATA 100
FIELD FieldData 3
_theta 1 100 double
0 0.031733259127 0.063466518254 0.095199777382 0.12693303651 0.15866629564 0.19039955476 0.22213281389 0.25386607302 
0.28559933214 0.31733259127 0.3490658504 0.38079910953 0.41253236865 0.44426562778 0.47599888691 0.50773214603 0.53946540516 
0.57119866429 0.60293192342 0.63466518254 0.66639844167 0.6981317008 0.72986495992 0.76159821905 0.79333147818 0.82506473731 
0.85679799643 0.88853125556 0.92026451469 0.95199777382 0.98373103294 1.0154642921 1.0471975512 1.0789308103 1.1106640695 
1.1423973286 1.1741305877 1.2058638468 1.237597106 1.2693303651 1.3010636242 1.3327968833 1.3645301425 1.3962634016 
1.4279966607 1.4597299198 1.491463179 1.5231964381 1.5549296972 1.5866629564 1.6183962155 1.6501294746 1.6818627337 
1.7135959929 1.745329252 1.7770625111 1.8087957702 1.8405290294 1.8722622885 1.9039955476 1.9357288068 1.9674620659 
1.999195325 2.0309285841 2.0626618433 2.0943951024 2.1261283615 2.1578616206 2.1895948798 2.2213281389 2.253061398 
2.2847946572 2.3165279163 2.3482611754 2.3799944345 2.4117276937 2.4434609528 2.4751942119 2.506927471 2.5386607302 
2.5703939893 2.6021272484 2.6338605076 2.6655937667 2.6973270258 2.7290602849 2.7607935441 2.7925268032 2.8242600623 
2.8559933214 2.8877265806 2.9194598397 2.9511930988 2.982926358 3.0146596171 3.0463928762 3.0781261353 3.1098593945 
3.1415926536 
_radius 1 100 double
1.44602287e-15 0.015375373201 0.030718809095 0.045982960372 0.061105345477 0.076004918037 0.090582545781 0.10472563236 0.11831618777 
0.13124091029 0.14340152403 0.15472375185 0.16516376877 0.17471156861 0.18339118211 0.19125797849 0.19839335329 0.20489705501 
0.21087740922 0.21643993178 0.22167532073 0.22664842519 0.23139022845 0.23589486005 0.24012294727 0.2440112042 0.24748640059 
0.25048047511 0.2529432166 0.25484979093 0.25620205718 0.25702443008 0.25735635375 0.25724383284 0.25673190969 0.25585888619 
0.25465208096 0.25312450637 0.25127223826 0.24907317129 0.24648861351 0.24346904048 0.23996416527 0.23593594108 0.23137202336 
0.22629693109 0.22077855739 0.21492857928 0.20889653067 0.20285862719 0.19700356075 0.19151805337 0.18657466646 0.18232310489 
0.17888435578 0.17634537606 0.17475197607 0.17409974264 0.17432625438 0.17530976792 0.17687794135 0.17882592559 0.18093935625 
0.18301662237 0.18488622541 0.18641759888 0.18752579898 0.1881711528 0.18835469075 0.18811006091 0.18749303559 0.18657023829 
0.18540883779 0.18406857828 0.18259689817 0.1810273272 0.17938075612 0.17766828178 0.17589342273 0.1740514582 0.17212496455 
0.17007669867 0.16784254977 0.16532748425 0.16240635626 0.15892993889 0.15473524894 0.14965841368 0.14354798244 0.13627679136 
0.12775119733 0.11791737748 0.1067650263 0.094328968687 0.080689032614 0.065968246218 0.050329268212 0.03396901063 0.017111598524 
2.6425084916e-16 
_area 1 100 double
0 0.00054826107688 0.0021949190327 0.0049395219676 0.0087644750868 0.013619303304 0.019411540911 0.026008284215 0.033247728191 
0.04095532362 0.048956728881 0.057082954612 0.065170730464 0.073064644196 0.080623904219 0.087732519451 0.094310998528 0.10032781292 
0.10580793203 0.1108344307 0.11553896921 0.12007876565 0.12460186387 0.12920880824 0.13392483635 0.13869676245 0.14341875355 
0.1479756812 0.15228216481 0.15629708265 0.1600081151 0.16340105381 0.1664358168 0.16903693182 0.17109488876 0.1724829032 
0.17308993227 0.17285041704 0.1717515975 0.16981645201 0.16707581405 0.16355191831 0.15926586972 0.15425867843 0.14860763277 
0.14242963124 0.13587326844 0.12910561704 0.12229975008 0.11562627556 0.10924822778 0.1033156088 0.097952468205 0.093236300673 
0.089192579555 0.085818672587 0.083108656356 0.081056130851 0.079632817797 0.078750955981 0.078249821856 0.077930250577 0.077610932092 
0.077161982084 0.076523290875 0.075683278608 0.074603892507 0.073243721007 0.071640992197 0.069900439918 0.068162292384 0.066557423968 
0.065182736625 0.064107042214 0.063367215609 0.062958096767 0.062838146369 0.062954261951 0.063216957998 0.0635312405 0.063864898215 
0.064171788423 0.064405328915 0.064529363878 0.064148033365 0.06294405372 0.060752384415 0.057483214416 0.053131659707 0.047789843595 
0.04164892866 0.034986680649 0.02814068267 0.021471441181 0.01532245503 0.0099853814183 0.0056776807756 0.0025374978274 0.00063586444911 
1.5612511284e-17 
