# vtk DataFile Version 5.1
vtk output
ASCII
DATASET POLYDATA
POINTS 100 float
0.136618 0.0567158 0.66971 0.136669 0.0568524 0.669669 0.136882 0.0570835 0.669416 
0.137219 0.0573994 0.668923 0.137618 0.057787 0.668143 0.138 0.0582304 0.667015 
0.138271 0.0587129 0.665467 0.138332 0.0592181 0.663418 0.138085 0.0597309 0.660785 
0.137438 0.0602385 0.657488 0.136314 0.0607303 0.653455 0.134654 0.0611976 0.648629 
0.132421 0.0616324 0.642973 0.129598 0.0620269 0.636472 0.126193 0.0623711 0.629135 
0.122234 0.0626525 0.620998 0.117764 0.0628545 0.612119 0.112838 0.0629567 0.602573 
0.107519 0.0629347 0.592451 0.101867 0.0627619 0.581847 0.0959414 0.0624113 0.570853 
0.0897935 0.0618579 0.559551 0.0834635 0.0610821 0.548006 0.0769806 0.060072 0.53626 
0.0703628 0.0588268 0.524332 0.0636184 0.0573581 0.512215 0.0567491 0.0556908 0.499883 
0.0497521 0.0538633 0.487288 0.0426242 0.0519253 0.474378 0.035364 0.0499354 0.461094 
0.027974 0.0479574 0.447386 0.020462 0.0460557 0.433215 0.0128407 0.0442912 0.418558 
0.00512694 0.0427168 0.403414 -0.00266018 0.0413746 0.3878 -0.0105013 0.0402932 0.371748 
-0.0183788 0.0394879 0.355302 -0.0262783 0.0389611 0.338506 -0.0341893 0.0387052 0.321399 
-0.0421039 0.0387063 0.304006 -0.0500156 0.0389485 0.286332 -0.057915 0.039419 0.268357 
-0.0657862 0.0401116 0.250037 -0.0736023 0.0410304 0.231304 -0.0813204 0.0421906 0.212074 
-0.088879 0.0436186 0.192254 -0.0961955 0.0453486 0.171754 -0.103167 0.0474187 0.150496 
-0.109673 0.0498641 0.128423 -0.115579 0.0527105 0.105513 -0.120747 0.0559668 0.0817784 
-0.125042 0.0596184 0.057273 -0.128342 0.0636226 0.0320877 -0.130548 0.0679063 0.00634622 
-0.131593 0.0723659 -0.0198028 -0.131446 0.0768717 -0.0461966 -0.130119 0.0812739 -0.0726693 
-0.127664 0.0854118 -0.0990632 -0.124168 0.0891253 -0.125238 -0.119751 0.0922659 -0.151077 
-0.114549 0.0947089 -0.176495 -0.108707 0.0963623 -0.201433 -0.102367 0.0971749 -0.225861 
-0.0956513 0.0971391 -0.249768 -0.0886568 0.0962913 -0.273161 -0.0814466 0.0947073 -0.296051 
-0.0740466 0.0924944 -0.318448 -0.0664464 0.0897803 -0.340355 -0.0586044 0.0867005 -0.361764 
-0.0504557 0.0833847 -0.38265 -0.0419239 0.0799449 -0.402976 -0.0329329 0.0764648 -0.422692 
-0.0234199 0.0729932 -0.441742 -0.0133471 0.0695413 -0.460068 -0.00270997 0.0660842 -0.477615 
0.00845624 0.0625671 -0.494337 0.0200753 0.0589149 -0.510201 0.0320324 0.0550442 -0.52519 
0.0441796 0.0508768 -0.539298 0.0563457 0.0463521 -0.552537 0.068347 0.0414388 -0.564924 
0.0799999 0.0361427 -0.576485 0.0911319 0.0305103 -0.587249 0.101593 0.0246281 -0.59724 
0.111263 0.0186173 -0.606481 0.120056 0.0126243 -0.614987 0.127926 0.00680816 -0.622769 
0.134858 0.00132648 -0.629832 0.140874 -0.00367889 -0.636181 0.14602 -0.00809462 -0.641824 
0.150359 -0.0118457 -0.64677 0.153969 -0.0149014 -0.651039 0.15693 -0.0172757 -0.654656 
0.159322 -0.0190244 -0.657657 0.161218 -0.0202359 -0.660085 0.162682 -0.0210201 -0.661984 
0.163766 -0.0214938 -0.663401 0.164511 -0.0217668 -0.664377 0.164945 -0.0219279 -0.664945 
0.165087 -0.0220345 -0.665127 
LINES 2 100
OFFSETS vtktypeint64
0 100 
CONNECTIVITY vtktypeint64
0 1 2 3 4 5 6 7 8 
9 10 11 12 13 14 15 16 17 
18 19 20 21 22 23 24 25 26 
27 28 29 30 31 32 33 34 35 
36 37 38 39 40 41 42 43 44 
45 46 47 48 49 50 51 52 53 
54 55 56 57 58 59 60 61 62 
63 64 65 66 67 68 69 70 71 
72 73 74 75 76 77 78 79 80 
81 82 83 84 85 86 87 88 89 
90 91 92 93 94 95 96 97 98 
99 
POINT_DATA 100
FIELD FieldData 3
_theta 1 100 double
0 0.031733259127 0.063466518254 0.095199777382 0.12693303651 0.15866629564 0.19039955476 0.22213281389 0.25386607302 
0.28559933214 0.31733259127 0.3490658504 0.38079910953 0.41253236865 0.44426562778 0.47599888691 0.50773214603 0.53946540516 
0.57119866429 0.60293192342 0.63466518254 0.66639844167 0.6981317008 0.72986495992 0.76159821905 0.79333147818 0.82506473731 
0.85679799643 0.88853125556 0.92026451469 0.95199777382 0.98373103294 1.0154642921 1.0471975512 1.0789308103 1.1106640695 
1.1423973286 1.1741305877 1.2058638468 1.237597106 1.2693303651 1.3010636242 1.3327968833 1.3645301425 1.3962634016 
1.4279966607 1.4597299198 1.491463179 1.5231964381 1.5549296972 1.5866629564 1.6183962155 1.6501294746 1.6818627337 
1.7135959929 1.745329252 1.7770625111 1.8087957702 1.8405290294 1.8722622885 1.9039955476 1.9357288068 1.9674620659 
1.999195325 2.0309285841 2.0626618433 2.0943951024 2.1261283615 2.1578616206 2.1895948798 2.2213281389 2.253061398 
2.2847946572 2.3165279163 2.3482611754 2.3799944345 2.4117276937 2.4434609528 2.4751942119 2.506927471 2.5386607302 
2.5703939893 2.6021272484 2.6338605076 2.6655937667 2.6973270258 2.7290602849 2.7607935441 2.7925268032 2.8242600623 
2.8559933214 2.8877265806 2.9194598397 2.9511930988 2.982926358 3.0146596171 3.0463928762 3.0781261353 3.1098593945 
3.1415926536 
_radius 1 100 double
2.8040344145e-16 0.014660349806 0.029215141696 0.043559188618 0.05760085454 0.071265251315 0.084494109341 0.097243138673 0.10947850753 
0.12117421153 0.13231143777 0.14287979329 0.15287906856 0.16231967104 0.17122028782 0.17960254438 0.18748385559 0.19487062353 
0.20175396619 0.20810931755 0.21390002196 0.21908401004 0.2236220816 0.22748624482 0.23066683466 0.23317757671 0.23505818622 
0.23637434261 0.23721490862 0.23768617761 0.23790294738 0.23797653868 0.23800058064 0.23803638713 0.23810073767 0.2381592439 
0.23812759451 0.23788094258 0.23726963204 0.2361384272 0.23434648661 0.23178590418 0.22839721252 0.22418062504 0.2192019976 
0.21359261262 0.20754209313 0.20128426311 0.19507677675 0.18917683022 0.18381677062 0.17918398142 0.17540825302 0.17255726877 
0.17063835355 0.1696036306 0.16935637825 0.16975792672 0.17063604715 0.17179669317 0.17304037345 0.17418225337 0.17507265083 
0.17561365155 0.17576846119 0.17556183458 0.17507158869 0.17441269838 0.17371700727 0.17311285091 0.17270873479 0.17258299609 
0.17277857637 0.17330082265 0.17411690552 0.1751566746 0.17631547294 0.17745934781 0.17843248741 0.1790660561 0.17918733524 
0.17862833229 0.17723354039 0.1748668914 0.17141791083 0.16680675828 0.16098753297 0.15394919943 0.14571379991 0.13633214477 
0.12587771012 0.11443984187 0.10211745084 0.089014166167 0.075235461337 0.060887712749 0.046078652629 0.03091838151 0.015520100122 
1.0180870284e-15 
_area 1 100 double
0 0.00056954463583 0.0022569247135 0.0050012494569 0.0087096787561 0.013267522161 0.01854791081 0.024419231973 0.03075057937 
0.037417149807 0.044307465958 0.051332519732 0.058434501265 0.065590831848 0.072808788731 0.080108393404 0.087496787897 0.094943222561 
0.10236521075 0.10963185937 0.11658335935 0.12306013324 0.12893265778 0.13412346535 0.13861573596 0.14244711602 0.14569164921 
0.14843613447 0.15075895696 0.15271795119 0.15434901975 0.15567215035 0.15669948914 0.15744170571 0.15791292497 0.15813788139 
0.15814098675 0.15811379143 0.15818816155 0.15754144112 0.15579672774 0.15278037435 0.14844083758 0.14285672892 0.13623672509 
0.12890126079 0.12124412541 0.11367763681 0.1065702011 0.10018912798 0.094664494282 0.089990437289 0.086069884846 0.082782314768 
0.080036278158 0.077781981479 0.075985716713 0.074588041807 0.073477631617 0.072503551183 0.071542646508 0.070485664769 0.069198915631 
0.067722712935 0.066270428181 0.065065192504 0.064044849209 0.063087224655 0.062159209355 0.061272514833 0.060455344773 0.059747242924 
0.059194287678 0.058840314923 0.058719452143 0.058849350786 0.059222289254 0.059798429728 0.060504645742 0.061236675766 0.061861919965 
0.062224387667 0.062155539434 0.061492322873 0.060099234824 0.057888530695 0.054833120452 0.050969508145 0.046391696849 0.041239497051 
0.035685219489 0.029921706733 0.024153008168 0.018587444354 0.013431754933 0.0088847359162 0.0051292905109 0.0023228683408 0.00058734200281 
4.576598813e-17 
