# vtk DataFile Version 5.1
vtk output
ASCII
DATASET POLYDATA
POINTS 100 float
0.14592 0.0476218 0.709333 0.146051 0.0479686 0.70921 0.146515 0.0488628 0.708666 
0.147245 0.0502568 0.707671 0.148139 0.0520757 0.706178 0.149066 0.0542227 0.704125 
0.149881 0.0565859 0.701444 0.150438 0.0590451 0.698065 0.150601 0.0614792 0.693922 
0.150257 0.0637731 0.688961 0.149321 0.0658235 0.683143 0.147743 0.0675431 0.676452 
0.145504 0.0688638 0.668894 0.142617 0.0697382 0.6605 0.139116 0.0701392 0.651324 
0.135049 0.0700597 0.641439 0.130468 0.0695106 0.630936 0.12542 0.0685187 0.619912 
0.119942 0.0671247 0.608466 0.114055 0.0653811 0.596694 0.107763 0.06335 0.584676 
0.101055 0.0611013 0.572477 0.0939127 0.0587108 0.560141 0.0863147 0.056258 0.547687 
0.0782457 0.0538237 0.535113 0.0697041 0.0514872 0.522398 0.0607078 0.0493224 0.509506 
0.0512972 0.0473951 0.496388 0.041536 0.0457584 0.482996 0.0315074 0.0444502 0.469282 
0.021308 0.04349 0.455204 0.011039 0.0428777 0.440728 0.000796686 0.0425939 0.425832 
-0.00933721 0.0426014 0.410501 -0.0193035 0.0428487 0.394726 -0.0290703 0.0432752 0.378498 
-0.0386344 0.0438175 0.361807 -0.0480182 0.0444158 0.344633 -0.057262 0.0450206 0.326942 
-0.0664134 0.0455985 0.308692 -0.0755144 0.0461356 0.289826 -0.0845867 0.0466401 0.270279 
-0.0936194 0.047141 0.249987 -0.102559 0.0476852 0.22889 -0.111302 0.0483316 0.206943 
-0.119696 0.0491445 0.184127 -0.127548 0.0501851 0.160453 -0.134628 0.0515035 0.135968 
-0.140694 0.0531313 0.110759 -0.145509 0.0550767 0.0849478 -0.14886 0.0573216 0.0586875 
-0.150584 0.0598215 0.0321506 -0.150582 0.0625089 0.00551836 -0.148834 0.0652988 -0.0210333 
-0.145404 0.0680966 -0.0473471 -0.140439 0.0708067 -0.0732966 -0.134162 0.0733417 -0.0987944 
-0.126852 0.0756302 -0.123798 -0.118823 0.0776226 -0.148307 -0.110401 0.0792945 -0.172363 
-0.101891 0.0806471 -0.196035 -0.0935593 0.0817039 -0.219411 -0.0856048 0.0825053 -0.242582 
-0.078148 0.0831009 -0.265626 -0.0712223 0.0835403 -0.288597 -0.0647751 0.0838646 -0.311515 
-0.0586774 0.0840985 -0.334359 -0.0527409 0.084244 -0.357067 -0.0467403 0.0842782 -0.37954 
-0.0404401 0.0841527 -0.401651 -0.0336208 0.0837976 -0.423256 -0.0261044 0.0831271 -0.444211 
-0.0177746 0.0820486 -0.464381 -0.00859084 0.0804718 -0.483657 0.00140493 0.0783191 -0.501963 
0.0120902 0.0755345 -0.519262 0.0232715 0.0720908 -0.535556 0.0347003 0.0679941 -0.550881 
0.0460945 0.0632858 -0.565301 0.0571615 0.0580411 -0.578894 0.0676227 0.0523643 -0.591741 
0.0772348 0.0463823 -0.603912 0.085807 0.0402362 -0.615461 0.0932133 0.0340717 -0.626413 
0.0993975 0.0280303 -0.636763 0.104371 0.022241 -0.646482 0.108208 0.0168132 -0.655517 
0.111027 0.0118326 -0.663805 0.112985 0.00735799 -0.67128 0.114251 0.00342166 -0.677888 
0.114997 3.06629e-05 -0.683596 0.115379 -0.00282973 -0.688398 0.115531 -0.00519157 -0.692322 
0.115556 -0.00709909 -0.695424 0.115528 -0.0086034 -0.69779 0.115488 -0.00975738 -0.69952 
0.115458 -0.010611 -0.700721 0.115441 -0.0112074 -0.701494 0.115434 -0.0115798 -0.70192 
0.115431 -0.0117491 -0.702052 
LINES 2 100
OFFSETS vtktypeint64
0 100 
CONNECTIVITY vtktypeint64
0 1 2 3 4 5 6 7 8 
9 10 11 12 13 14 15 16 17 
18 19 20 21 22 23 24 25 26 
27 28 29 30 31 32 33 34 35 
36 37 38 39 40 41 42 43 44 
45 46 47 48 49 50 51 52 53 
54 55 56 57 58 59 60 61 62 
63 64 65 66 67 68 69 70 71 
72 73 74 75 76 77 78 79 80 
81 82 83 84 85 86 87 88 89 
90 91 92 93 94 95 96 97 98 
99 
POINT_DATA 100
FIELD FieldData 3
_theta 1 100 double
0 0.031733259127 0.063466518254 0.095199777382 0.12693303651 0.15866629564 0.19039955476 0.22213281389 0.25386607302 
0.28559933214 0.31733259127 0.3490658504 0.38079910953 0.41253236865 0.44426562778 0.47599888691 0.50773214603 0.53946540516 
0.57119866429 0.60293192342 0.63466518254 0.66639844167 0.6981317008 0.72986495992 0.76159821905 0.79333147818 0.82506473731 
0.85679799643 0.88853125556 0.92026451469 0.95199777382 0.98373103294 1.0154642921 1.0471975512 1.0789308103 1.1106640695 
1.1423973286 1.1741305877 1.2058638468 1.237597106 1.2693303651 1.3010636242 1.3327968833 1.3645301425 1.3962634016 
1.4279966607 1.4597299198 1.491463179 1.5231964381 1.5549296972 1.5866629564 1.6183962155 1.6501294746 1.6818627337 
1.7135959929 1.745329252 1.7770625111 1.8087957702 1.8405290294 1.8722622885 1.9039955476 1.9357288068 1.9674620659 
1.999195325 2.0309285841 2.0626618433 2.0943951024 2.1261283615 2.1578616206 2.1895948798 2.2213281389 2.253061398 
2.2847946572 2.3165279163 2.3482611754 2.3799944345 2.4117276937 2.4434609528 2.4751942119 2.506927471 2.5386607302 
2.5703939893 2.6021272484 2.6338605076 2.6655937667 2.6973270258 2.7290602849 2.7607935441 2.7925268032 2.8242600623 
2.8559933214 2.8877265806 2.9194598397 2.9511930988 2.982926358 3.0146596171 3.0463928762 3.0781261353 3.1098593945 
3.1415926536 
_radius 1 100 double
1.734723476e-16 0.015960983229 0.03174044833 0.047164008536 0.062083238717 0.076383049045 0.089983869221 0.10283949124 0.11493247691 
0.12626922019 0.13687602593 0.14679635325 0.15608826929 0.16482061833 0.17306664795 0.18089484951 0.1883582563 0.19548473232 
0.20227114392 0.20868345909 0.21466315465 0.22013859302 0.22503890285 0.22930758532 0.23291340472 0.23585680397 0.23817091067 
0.23991710713 0.24117608292 0.24203610046 0.24258062895 0.24287736721 0.24297006176 0.24287374434 0.24257342276 0.24202603088 
0.24116548267 0.23991073275 0.23817661783 0.23588690288 0.23298847468 0.22946512924 0.2253489667 0.22072712915 0.21574169626 
0.21058130662 0.20546471525 0.20061871701 0.19625463559 0.19254781134 0.18962320176 0.18754833874 0.18633319315 0.18593507788 
0.18626593222 0.18719978644 0.18857979876 0.19022594398 0.19194504622 0.19354398396 0.19484522802 0.1957026774 0.19601583381 
0.19574101477 0.19489804518 0.19356990923 0.19189334745 0.19004095518 0.18819807539 0.18653901892 0.18520675176 0.18429871973 
0.18385957719 0.18387994552 0.18429953425 0.1850131219 0.18587854915 0.18672639314 0.18737104176 0.18762255576 0.18729829308 
0.18623307789 0.18428686363 0.18134928153 0.17734099908 0.17221230563 0.16593973945 0.15852182664 0.14997504566 0.14033090481 
0.12963454496 0.11794468598 0.10533422668 0.09189057241 0.077714879593 0.0629198256 0.047626095625 0.031958344385 0.016041728092 
6.5272772041e-16 
_area 1 100 double
0 0.00059378049394 0.0023450176065 0.0051686554662 0.0089388600277 0.013508107856 0.018726333402 0.024455637453 0.03057730179 
0.036990196451 0.043603147696 0.050327146601 0.057073822561 0.063762780414 0.070333900216 0.076755840198 0.083023054808 0.089141417822 
0.095110300261 0.10090918118 0.10649365283 0.11180402189 0.11678576767 0.12141337126 0.12570254585 0.12969901091 0.13344906551 
0.13697454608 0.14026902793 0.14330959234 0.14606831735 0.148514948 0.15061156074 0.1523040102 0.15351538419 0.15414537601 
0.15407676485 0.15318828243 0.1513737652 0.14856739835 0.14477107321 0.14007527248 0.13466351859 0.128793595 0.12275670339 
0.11682717324 0.11122275031 0.10608877362 0.10150464967 0.097507039805 0.094132130839 0.091454069704 0.089470662482 0.087989989367 
0.08677651917 0.085644446257 0.084475301555 0.083201562281 0.081806594892 0.080331818879 0.078871300763 0.077546190177 0.076397720943 
0.075317829739 0.074161841622 0.072836833477 0.071320784067 0.069661276425 0.067959204314 0.066341101892 0.065001183064 0.063964473309 
0.063310692977 0.063106647423 0.063278532996 0.063734050284 0.064369037736 0.065076053614 0.06579190263 0.066478972133 0.067099876231 
0.067561713656 0.067649147508 0.067120311935 0.06576037473 0.063420005122 0.060038438407 0.055647105238 0.050360375236 0.044361766784 
0.037889972257 0.031223697262 0.024662004214 0.018498740993 0.012993850365 0.0083481654486 0.004689615275 0.002076458088 0.00051727493426 
4.7300736002e-17 
