# vtk DataFile Version 5.1
vtk output
ASCII
DATASET POLYDATA
POINTS 100 float
0.0740746 0.0627981 0.715027 0.0740211 0.062958 0.714916 0.0739225 0.0632944 0.714339 
0.0737963 0.063771 0.71322 0.0736681 0.0643319 0.711441 0.0735667 0.0649084 0.708865 
0.0735184 0.0654268 0.705352 0.0735413 0.0658181 0.700784 0.0736404 0.0660255 0.695083 
0.0738036 0.0660122 0.688221 0.0740009 0.065766 0.68023 0.0741842 0.0653012 0.671202 
0.0742906 0.0646574 0.661275 0.0742467 0.0638961 0.650624 0.073974 0.0630929 0.639439 
0.0733951 0.06233 0.627906 0.072439 0.061686 0.616189 0.0710463 0.061227 0.604412 
0.0691716 0.0609984 0.592655 0.0667855 0.061019 0.580946 0.0638743 0.0612779 0.569271 
0.0604388 0.0617345 0.55758 0.0564919 0.0623218 0.545803 0.0520563 0.0629527 0.533867 
0.0471626 0.0635282 0.521707 0.0418474 0.0639472 0.509283 0.036153 0.0641169 0.49658 
0.0301275 0.0639614 0.483612 0.0238259 0.0634298 0.47042 0.0173104 0.062501 0.457055 
0.010651 0.0611861 0.443573 0.00392448 0.0595266 0.430018 -0.00278762 0.0575913 0.416411 
-0.00940308 0.0554694 0.402742 -0.0158444 0.0532627 0.38897 -0.0220449 0.0510764 0.375023 
-0.0279558 0.0490112 0.360809 -0.0335514 0.0471553 0.346224 -0.0388334 0.0455791 0.331174 
-0.0438319 0.0443317 0.315581 -0.0486034 0.0434404 0.299398 -0.0532244 0.0429121 0.282615 
-0.0577823 0.0427368 0.265259 -0.062363 0.0428923 0.247386 -0.0670373 0.0433501 0.229072 
-0.0718473 0.0440803 0.210398 -0.0767946 0.045056 0.191431 -0.0818318 0.0462559 0.17221 
-0.0868591 0.0476658 0.152739 -0.0917267 0.0492774 0.132978 -0.0962426 0.0510863 0.11285 
-0.100186 0.0530885 0.092254 -0.103327 0.0552761 0.0710797 -0.105444 0.057634 0.0492325 
-0.106344 0.0601367 0.0266564 -0.105884 0.0627469 0.00335435 -0.103984 0.065416 -0.0205972 
-0.10063 0.0680859 -0.0450435 -0.0958821 0.0706932 -0.0697572 -0.089864 0.0731741 -0.0944558 
-0.0827507 0.07547 -0.118828 -0.074752 0.077533 -0.142569 -0.0660916 0.0793302 -0.165413 
-0.056987 0.0808465 -0.187173 -0.0476312 0.0820851 -0.207764 -0.0381795 0.0830653 -0.227221 
-0.0287424 0.0838185 -0.245698 -0.0193854 0.0843816 -0.263458 -0.0101362 0.0847899 -0.280843 
-0.000996741 0.0850686 -0.298232 0.00803992 0.0852264 -0.315997 0.0169722 0.0852493 -0.334449 
0.0257739 0.0850979 -0.3538 0.034382 0.0847077 -0.374123 0.0426907 0.0839923 -0.39534 
0.0505533 0.0828503 -0.417215 0.0577914 0.0811746 -0.439379 0.0642105 0.0788637 -0.461364 
0.0696215 0.075833 -0.482655 0.0738643 0.0720266 -0.502742 0.0768297 0.0674259 -0.521185 
0.0784788 0.0620558 -0.537658 0.0788547 0.0559874 -0.551992 0.0780858 0.0493356 -0.564191 
0.0763795 0.0422532 -0.574431 0.0740066 0.0349213 -0.583037 0.0712772 0.0275362 -0.590443 
0.0685119 0.0202964 -0.597132 0.0660105 0.0133875 -0.603579 0.0640225 0.00697039 -0.61019 
0.0627225 0.00117078 -0.617246 0.0621941 -0.0039268 -0.624867 0.0624243 -0.008281 -0.633001 
0.0633083 -0.0118912 -0.641421 0.0646655 -0.0147908 -0.649761 0.0662644 -0.0170377 -0.657554 
0.0678526 -0.0187022 -0.664299 0.0691896 -0.0198549 -0.669516 0.0700779 -0.0205549 -0.672813 
0.0703874 -0.0208406 -0.673933 
LINES 2 100
OFFSETS vtktypeint64
0 100 
CONNECTIVITY vtktypeint64
0 1 2 3 4 5 6 7 8 
9 10 11 12 13 14 15 16 17 
18 19 20 21 22 23 24 25 26 
27 28 29 30 31 32 33 34 35 
36 37 38 39 40 41 42 43 44 
45 46 47 48 49 50 51 52 53 
54 55 56 57 58 59 60 61 62 
63 64 65 66 67 68 69 70 71 
72 73 74 75 76 77 78 79 80 
81 82 83 84 85 86 87 88 89 
90 91 92 93 94 95 96 97 98 
99 
POINT_DATA 100
FIELD FieldData 3
_theta 1 100 double
0 0.031733259127 0.063466518254 0.095199777382 0.12693303651 0.15866629564 0.19039955476 0.22213281389 0.25386607302 
0.28559933214 0.31733259127 0.3490658504 0.38079910953 0.41253236865 0.44426562778 0.47599888691 0.50773214603 0.53946540516 
0.57119866429 0.60293192342 0.63466518254 0.66639844167 0.6981317008 0.72986495992 0.76159821905 0.79333147818 0.82506473731 
0.85679799643 0.88853125556 0.92026451469 0.95199777382 0.98373103294 1.0154642921 1.0471975512 1.0789308103 1.1106640695 
1.1423973286 1.1741305877 1.2058638468 1.237597106 1.2693303651 1.3010636242 1.3327968833 1.3645301425 1.3962634016 
1.4279966607 1.4597299198 1.491463179 1.5231964381 1.5549296972 1.5866629564 1.6183962155 1.6501294746 1.6818627337 
1.7135959929 1.745329252 1.7770625111 1.8087957702 1.8405290294 1.8722622885 1.9039955476 1.9357288068 1.9674620659 
1.999195325 2.0309285841 2.0626618433 2.0943951024 2.1261283615 2.1578616206 2.1895948798 2.2213281389 2.253061398 
2.2847946572 2.3165279163 2.3482611754 2.3799944345 2.4117276937 2.4434609528 2.4751942119 2.506927471 2.5386607302 
2.5703939893 2.6021272484 2.6338605076 2.6655937667 2.6973270258 2.7290602849 2.7607935441 2.7925268032 2.8242600623 
2.8559933214 2.8877265806 2.9194598397 2.9511930988 2.982926358 3.0146596171 3.0463928762 3.0781261353 3.1098593945 
3.1415926536 
_radius 1 100 double
1.7861419185e-15 0.014102395701 0.02806260654 0.041736003053 0.054992048757 0.067721123175 0.079840597609 0.091299757059 0.10208295047 
0.11221011899 0.12173381076 0.13073218667 0.13929841215 0.14752793335 0.15550594131 0.163297426 0.17094156828 0.17845109643 
0.18581603426 0.19301030343 0.19999912728 0.20674523992 0.21321253353 0.21936680491 0.22517434811 0.23059988392 0.23560543047 
0.24015116432 0.24419834906 0.24771345228 0.25067205525 0.25306128184 0.25488011005 0.25613772061 0.25685060549 0.25703931215 
0.25672548348 0.25592947985 0.25466857043 0.252955595 0.25079812365 0.24819838557 0.24515447784 0.24166348423 0.23772698912 
0.23335892652 0.22859477827 0.22350015526 0.21817629298 0.21276034905 0.20741954737 0.20233971261 0.19771000811 0.19370632756 
0.19047565803 0.18812290991 0.18670053876 0.18620054685 0.18654906283 0.18760543328 0.18916865883 0.19099234497 0.19280612661 
0.19433960246 0.19534563328 0.19562209937 0.19503215817 0.19352130297 0.19112687126 0.18797527586 0.18426510453 0.18023866662 
0.1761484075 0.17222619962 0.16866177284 0.16559199273 0.16309787116 0.16120384091 0.15987485816 0.15901027781 0.1584374141 
0.1579107284 0.15712316644 0.15573284773 0.15340188931 0.14983871219 0.14483429373 0.1382859262 0.13020610342 0.1207170072 
0.11003231857 0.098428568562 0.086209062617 0.073664932831 0.061039508143 0.04850291809 0.036142586531 0.023971198529 0.01194745376 
2.7236231984e-16 
_area 1 100 double
0 0.00060026216854 0.0023780670951 0.0052645767487 0.0091461206069 0.013867913397 0.019242452281 0.025063746191 0.031126903622 
0.037250766082 0.043299877577 0.049201527685 0.054953850722 0.060621707259 0.066318435012 0.072174606812 0.078300582199 0.084755494058 
0.091535308207 0.098584040449 0.10582100457 0.1131706483 0.12058175366 0.1280277221 0.13548805258 0.1429207335 0.15024078938 
0.15731687895 0.16398769285 0.17009029753 0.1754885341 0.18009156248 0.18385865569 0.18679256904 0.1889261775 0.19030579001 
0.19097428345 0.19095950697 0.19027316025 0.18891824188 0.18689430332 0.18419248544 0.18078939281 0.17665523689 0.17177628738 
0.16618156463 0.15996479431 0.15329350617 0.14639743922 0.1395327148 0.13293670756 0.12680750647 0.12132243765 0.11666425492 
0.11302966787 0.11065737583 0.10993888848 0.11108338725 0.11393871148 0.11820511025 0.12333321337 0.12849474414 0.13298448289 
0.13614771992 0.13742463474 0.1364068638 0.13288868099 0.1269116533 0.11878460749 0.10906374722 0.098486905427 0.087872688271 
0.078005588029 0.069528121809 0.062851575139 0.058091872527 0.055057301665 0.053329186124 0.052412942434 0.05186704185 0.051365910724 
0.050707609686 0.049787419844 0.048560089407 0.047003256004 0.045085979018 0.042753120318 0.039935215092 0.036577130423 0.032670612287 
0.02828077762 0.023559330043 0.018735964639 0.014084186931 0.0098703717177 0.0063051121924 0.003515212837 0.0015449414296 0.00038280117227 
1.3090814619e-17 
