# vtk DataFile Version 5.1
vtk output
ASCII
DATASET POLYDATA
POINTS 100 float
0.140013 0.0498415 0.671989 0.140095 0.0501683 0.671962 0.140471 0.0510216 0.671706 
0.141069 0.0523251 0.671187 0.141777 0.0539619 0.670352 0.142459 0.0557887 0.669132 
0.142968 0.057652 0.66745 0.143167 0.0594065 0.665222 0.142937 0.0609309 0.662368 
0.142195 0.0621407 0.658816 0.140894 0.0629961 0.654506 0.139028 0.0635031 0.649395 
0.136621 0.06371 0.643458 0.133724 0.0636971 0.636691 0.130393 0.0635632 0.629107 
0.126686 0.0634102 0.620738 0.122641 0.063327 0.611629 0.118273 0.0633763 0.601836 
0.113566 0.0635847 0.591423 0.108477 0.0639384 0.580457 0.102941 0.0643841 0.569005 
0.0968823 0.0648356 0.557133 0.0902277 0.0651847 0.544901 0.0829202 0.0653154 0.532365 
0.0749318 0.0651185 0.519573 0.0662725 0.0645064 0.506566 0.0569942 0.0634248 0.493377 
0.0471883 0.0618601 0.480032 0.0369782 0.0598423 0.466545 0.0265071 0.0574434 0.452922 
0.0159221 0.0547704 0.439159 0.00535777 0.0519554 0.425237 -0.00507842 0.0491431 0.411127 
-0.0153176 0.0464787 0.396786 -0.0253352 0.0440961 0.382162 -0.0351499 0.0421085 0.367188 
-0.0448168 0.0406026 0.351792 -0.054414 0.0396365 0.335897 -0.064026 0.0392404 0.319425 
-0.0737244 0.0394205 0.302303 -0.0835505 0.0401642 0.28447 -0.0935004 0.0414468 0.265876 
-0.103516 0.0432362 0.246494 -0.113482 0.045497 0.226317 -0.123232 0.0481924 0.205361 
-0.132562 0.0512835 0.183666 -0.141241 0.0547269 0.161291 -0.149041 0.058471 0.138314 
-0.155751 0.0624523 0.114823 -0.161201 0.0665923 0.0909115 -0.165272 0.0707961 0.0666729 
-0.167908 0.0749538 0.0421937 -0.169119 0.0789447 0.0175498 -0.168968 0.082644 -0.00719719 
-0.16757 0.0859318 -0.0320002 -0.165064 0.0887029 -0.056826 -0.161603 0.090876 -0.081652 
-0.157333 0.0924025 -0.106462 -0.152378 0.0932706 -0.131238 -0.146831 0.0935072 -0.15596 
-0.140749 0.0931747 -0.180594 -0.134156 0.0923641 -0.205093 -0.127051 0.091184 -0.229389 
-0.119421 0.0897484 -0.253402 -0.111251 0.0881628 -0.277034 -0.102543 0.0865118 -0.300179 
-0.0933255 0.0848486 -0.322728 -0.0836584 0.0831893 -0.344581 -0.0736362 0.0815106 -0.365649 
-0.0633821 0.0797538 -0.385866 -0.053038 0.0778321 -0.405198 -0.0427503 0.0756422 -0.423638 
-0.0326542 0.073078 -0.441218 -0.0228579 0.070044 -0.457995 -0.0134306 0.0664689 -0.474053 
-0.00439503 0.0623144 -0.489492 0.0042741 0.0575816 -0.504416 0.0126442 0.0523117 -0.518921 
0.0208137 0.0465828 -0.533087 0.0288951 0.0405016 -0.546963 0.0369972 0.0341931 -0.560566 
0.0452057 0.0277886 -0.573873 0.0535676 0.0214131 -0.58682 0.06208 0.0151752 -0.599313 
0.0706858 0.00915968 -0.611229 0.0792765 0.00342396 -0.622433 0.0877021 -0.00200181 -0.632787 
0.0957871 -0.00711053 -0.642167 0.10335 -0.0119112 -0.650475 0.110223 -0.0164201 -0.657646 
0.116272 -0.0206522 -0.663663 0.121411 -0.0246128 -0.668551 0.12561 -0.0282926 -0.672383 
0.128896 -0.0316646 -0.675268 0.131347 -0.0346851 -0.677343 0.133079 -0.0372981 -0.678762 
0.134225 -0.0394412 -0.679677 0.134921 -0.041054 -0.680226 0.135277 -0.0420856 -0.680516 
0.135371 -0.0425019 -0.680617 
LINES 2 100
OFFSETS vtktypeint64
0 100 
CONNECTIVITY vtktypeint64
0 1 2 3 4 5 6 7 8 
9 10 11 12 13 14 15 16 17 
18 19 20 21 22 23 24 25 26 
27 28 29 30 31 32 33 34 35 
36 37 38 39 40 41 42 43 44 
45 46 47 48 49 50 51 52 53 
54 55 56 57 58 59 60 61 62 
63 64 65 66 67 68 69 70 71 
72 73 74 75 76 77 78 79 80 
81 82 83 84 85 86 87 88 89 
90 91 92 93 94 95 96 97 98 
99 
POINT_DATA 100
FIELD FieldData 3
_theta 1 100 double
0 0.031733259127 0.063466518254 0.095199777382 0.12693303651 0.15866629564 0.19039955476 0.22213281389 0.25386607302 
0.28559933214 0.31733259127 0.3490658504 0.38079910953 0.41253236865 0.44426562778 0.47599888691 0.50773214603 0.53946540516 
0.57119866429 0.60293192342 0.63466518254 0.66639844167 0.6981317008 0.72986495992 0.76159821905 0.79333147818 0.82506473731 
0.85679799643 0.88853125556 0.92026451469 0.95199777382 0.98373103294 1.0154642921 1.0471975512 1.0789308103 1.1106640695 
1.1423973286 1.1741305877 1.2058638468 1.237597106 1.2693303651 1.3010636242 1.3327968833 1.3645301425 1.3962634016 
1.4279966607 1.4597299198 1.491463179 1.5231964381 1.5549296972 1.5866629564 1.6183962155 1.6501294746 1.6818627337 
1.7135959929 1.745329252 1.7770625111 1.8087957702 1.8405290294 1.8722622885 1.9039955476 1.9357288068 1.9674620659 
1.999195325 2.0309285841 2.0626618433 2.0943951024 2.1261283615 2.1578616206 2.1895948798 2.2213281389 2.253061398 
2.2847946572 2.3165279163 2.3482611754 2.3799944345 2.4117276937 2.4434609528 2.4751942119 2.506927471 2.5386607302 
2.5703939893 2.6021272484 2.6338605076 2.6655937667 2.6973270258 2.7290602849 2.7607935441 2.7925268032 2.8242600623 
2.8559933214 2.8877265806 2.9194598397 2.9511930988 2.982926358 3.0146596171 3.0463928762 3.0781261353 3.1098593945 
3.1415926536 
_radius 1 100 double
3.8384064499e-16 0.014287038967 0.028416970252 0.042242343299 0.055638495779 0.068510507235 0.080795579552 0.09246067032 0.10349620539 
0.11390754126 0.12370620471 0.13290264611 0.14150147581 0.14949932733 0.15688496673 0.16364111814 0.1697475386 0.17518496981 
0.17993966607 0.18400826453 0.1874027824 0.19015536686 0.19232204346 0.19398429469 0.19524718568 0.19623314879 0.19707137465 
0.19788375914 0.19876923296 0.19978887478 0.20095441899 0.20222259413 0.20349712421 0.20463915748 0.20548541149 0.20587166976 
0.20565787727 0.20475047412 0.20311803538 0.20079757589 0.19789062508 0.1945499859 0.19095966456 0.1873115307 0.18378260335 
0.18051633966 0.17761009324 0.17510948195 0.17300928639 0.17125991617 0.16977828918 0.16846191181 0.16720487322 0.16591434338 
0.16452598374 0.16301640419 0.16141049976 0.15978152362 0.15824257433 0.15692991827 0.15598072326 0.15550944749 0.15558756203 
0.15623028195 0.15739199613 0.15897007189 0.16081550036 0.1627484664 0.16457683176 0.1661154316 0.16720411851 0.16772273645 
0.16760160036 0.16682651292 0.16543784263 0.16352370551 0.16120781911 0.15863311522 0.15594268865 0.15326007917 0.15067115155 
0.14820986549 0.14584996115 0.14350399099 0.14103014754 0.13824601369 0.13494703698 0.13092673233 0.12599565939 0.11999696484 
0.11281732132 0.10439306673 0.094712054704 0.083812117627 0.071777145935 0.05873167679 0.044834662 0.030272844633 0.01525397915 
3.8299498014e-16 
_area 1 100 double
0 0.0004460113117 0.0017710272153 0.0039391512881 0.0068993364108 0.01059337941 0.014959593302 0.019930042461 0.025423153638 
0.03133628399 0.037542882334 0.043896972533 0.050245367493 0.056445779012 0.062386611736 0.068002193404 0.073276959316 0.078235090513 
0.08291773106 0.087355133755 0.091543825554 0.095438936426 0.098966410083 0.10204910398 0.10463511149 0.10672145301 0.10837336452 
0.10973791206 0.1110320993 0.11247037582 0.11416333455 0.11608755327 0.11812277369 0.12009127834 0.12178498772 0.12298863498 
0.12350155044 0.12316006991 0.12186861985 0.1196357536 0.1165909894 0.11296630052 0.10904866935 0.1051221334 0.10141918005 
0.098093796174 0.095214779112 0.092770792073 0.090683128866 0.088826318122 0.087054760558 0.085232059755 0.083260548934 0.081107997181 
0.078823427989 0.076523628945 0.074326771214 0.072269272957 0.070314451759 0.068436192009 0.066652210204 0.065044634233 0.063714590264 
0.062755561809 0.062252255255 0.062276993962 0.062842813977 0.06383654387 0.065058450732 0.066241741358 0.067154060352 0.067667849696 
0.067687779697 0.06718009888 0.066194380784 0.064819520509 0.063171540207 0.061384553313 0.05961458317 0.058029601873 0.056603138326 
0.055331794084 0.054183461205 0.053068173937 0.051840876992 0.050328269565 0.048363280857 0.045816212816 0.042616896836 0.038765291918 
0.034330836786 0.029443695593 0.024282481616 0.019062187311 0.014023337637 0.0094205369153 0.0055075460428 0.002517543517 0.000640229161 
3.4801246629e-17 
