# vtk DataFile Version 5.1
vtk output
ASCII
DATASET POLYDATA
POINTS 100 float
0.115499 0.0769355 0.688181 0.11557 0.0772206 0.687997 0.115832 0.0778672 0.687294 
0.116271 0.0788152 0.686065 0.116863 0.0799738 0.684302 0.117578 0.0812313 0.681993 
0.118377 0.0824672 0.679121 0.119215 0.0835651 0.675667 0.120046 0.0844242 0.671608 
0.120815 0.0849694 0.666918 0.12147 0.0851561 0.661574 0.121955 0.084973 0.655553 
0.12221 0.084439 0.648833 0.12218 0.0835972 0.641402 0.121807 0.0825061 0.633253 
0.121036 0.0812295 0.62439 0.119813 0.0798258 0.614827 0.118093 0.0783397 0.60459 
0.115833 0.0767961 0.593713 0.113005 0.0751975 0.582244 0.109587 0.0735259 0.570236 
0.105573 0.0717477 0.557747 0.100972 0.0698215 0.544841 0.0958052 0.0677085 0.531578 
0.0901107 0.0653823 0.518019 0.0839373 0.0628378 0.504215 0.077344 0.060098 0.490214 
0.0703956 0.0572173 0.476051 0.0631588 0.05428 0.461751 0.0556973 0.0513952 0.44733 
0.0480683 0.0486886 0.43279 0.0403186 0.0462905 0.418124 0.0324827 0.0443235 0.403315 
0.0245822 0.0428904 0.388333 0.0166263 0.0420628 0.373143 0.00861474 0.0418745 0.357699 
0.000541816 0.0423173 0.34195 -0.00759886 0.0433424 0.325839 -0.0158086 0.0448656 0.309303 
-0.0240782 0.046776 0.292279 -0.0323833 0.0489482 0.274703 -0.0406808 0.0512546 0.256512 
-0.0489073 0.0535785 0.237653 -0.0569792 0.0558245 0.218076 -0.0647952 0.0579265 0.197747 
-0.0722409 0.0598516 0.176647 -0.0791943 0.0615999 0.154772 -0.0855329 0.0632005 0.13214 
-0.0911411 0.0647034 0.108787 -0.0959174 0.0661701 0.0847703 -0.0997801 0.0676624 0.0601653 
-0.102672 0.0692316 0.0350631 -0.104563 0.0709099 0.00956729 -0.105451 0.0727041 -0.0162099 
-0.105359 0.0745924 -0.0421521 -0.104334 0.0765258 -0.0681433 -0.10244 0.0784316 -0.0940714 
-0.0997526 0.0802211 -0.119832 -0.0963539 0.081798 -0.145329 -0.0923259 0.083068 -0.17048 
-0.0877457 0.083948 -0.195213 -0.0826817 0.0843737 -0.219465 -0.0771912 0.0843047 -0.243188 
-0.07132 0.0837266 -0.266338 -0.0651024 0.0826505 -0.288883 -0.0585636 0.0811094 -0.310796 
-0.0517222 0.0791525 -0.332056 -0.044593 0.0768384 -0.352648 -0.0371905 0.0742273 -0.372563 
-0.0295319 0.0713748 -0.391799 -0.0216391 0.0683257 -0.410358 -0.0135405 0.0651112 -0.428253 
-0.00527156 0.0617478 -0.445499 0.00312485 0.0582384 -0.46212 0.0115993 0.054576 -0.47814 
0.020097 0.0507485 -0.493587 0.0285589 0.0467449 -0.508485 0.0369235 0.0425608 -0.52285 
0.0451284 0.0382038 -0.536692 0.0531117 0.0336972 -0.550005 0.0608132 0.0290818 -0.562769 
0.068176 0.0244155 -0.574951 0.0751472 0.0197713 -0.586499 0.0816797 0.0152325 -0.597355 
0.0877328 0.0108874 -0.607452 0.0932738 0.00682226 -0.616722 0.098279 0.00311535 -0.625103 
0.102735 -0.000169729 -0.632547 0.106639 -0.0029888 -0.639026 0.110001 -0.00532046 -0.644534 
0.11284 -0.00716753 -0.649096 0.115188 -0.00855641 -0.652762 0.117086 -0.00953444 -0.65561 
0.118579 -0.0101656 -0.657738 0.119721 -0.0105249 -0.659259 0.120563 -0.0106916 -0.660294 
0.121154 -0.0107428 -0.660955 0.121538 -0.0107463 -0.661346 0.121748 -0.0107555 -0.661546 
0.121807 -0.0108043 -0.661605 
LINES 2 100
OFFSETS vtktypeint64
0 100 
CONNECTIVITY vtktypeint64
0 1 2 3 4 5 6 7 8 
9 10 11 12 13 14 15 16 17 
18 19 20 21 22 23 24 25 26 
27 28 29 30 31 32 33 34 35 
36 37 38 39 40 41 42 43 44 
45 46 47 48 49 50 51 52 53 
54 55 56 57 58 59 60 61 62 
63 64 65 66 67 68 69 70 71 
72 73 74 75 76 77 78 79 80 
81 82 83 84 85 86 87 88 89 
90 91 92 93 94 95 96 97 98 
99 
POINT_DATA 100
FIELD FieldData 3
_theta 1 100 double
0 0.031733259127 0.063466518254 0.095199777382 0.12693303651 0.15866629564 0.19039955476 0.22213281389 0.25386607302 
0.28559933214 0.31733259127 0.3490658504 0.38079910953 0.41253236865 0.44426562778 0.47599888691 0.50773214603 0.53946540516 
0.57119866429 0.60293192342 0.63466518254 0.66639844167 0.6981317008 0.72986495992 0.76159821905 0.79333147818 0.82506473731 
0.85679799643 0.88853125556 0.92026451469 0.95199777382 0.98373103294 1.0154642921 1.0471975512 1.0789308103 1.1106640695 
1.1423973286 1.1741305877 1.2058638468 1.237597106 1.2693303651 1.3010636242 1.3327968833 1.3645301425 1.3962634016 
1.4279966607 1.4597299198 1.491463179 1.5231964381 1.5549296972 1.5866629564 1.6183962155 1.6501294746 1.6818627337 
1.7135959929 1.745329252 1.7770625111 1.8087957702 1.8405290294 1.8722622885 1.9039955476 1.9357288068 1.9674620659 
1.999195325 2.0309285841 2.0626618433 2.0943951024 2.1261283615 2.1578616206 2.1895948798 2.2213281389 2.253061398 
2.2847946572 2.3165279163 2.3482611754 2.3799944345 2.4117276937 2.4434609528 2.4751942119 2.506927471 2.5386607302 
2.5703939893 2.6021272484 2.6338605076 2.6655937667 2.6973270258 2.7290602849 2.7607935441 2.7925268032 2.8242600623 
2.8559933214 2.8877265806 2.9194598397 2.9511930988 2.982926358 3.0146596171 3.0463928762 3.0781261353 3.1098593945 
3.1415926536 
_radius 1 100 double
2.8977671676e-16 0.013981021914 0.027863666108 0.041546557981 0.054939727649 0.067968350229 0.080574047079 0.092713634234 0.1043557894 
0.11547663274 0.12605543191 0.13607140425 0.14550202108 0.15432266865 0.16250729984 0.17002986114 0.17686655859 0.18299912205 
0.18841899758 0.19313196005 0.19716226039 0.20055532172 0.20337821675 0.20571756026 0.20767484194 0.20935948125 0.2108800136 
0.21233392511 0.21379686358 0.21531230867 0.216883188 0.21846715828 0.21997710308 0.2212877459 0.22224826539 0.22269968139 
0.22249481818 0.22151804863 0.21970191946 0.21703818407 0.21358162071 0.20944607792 0.20479324984 0.19981562184 0.19471585368 
0.18968562855 0.18488757445 0.18044382443 0.17643353952 0.17289913907 0.16985797282 0.16731439382 0.16526780752 0.16371492685 
0.16264762669 0.16204980619 0.16189649942 0.16215622828 0.16279479503 0.16377745921 0.16506757536 0.16662221083 0.16838726588 
0.17029511129 0.17226661923 0.1742174179 0.17606650826 0.17774486018 0.17920206641 0.18040996486 0.18136293989 0.18207521323 
0.18257577169 0.18290165399 0.18309021475 0.18317085564 0.18315672129 0.18303704299 0.18277106665 0.18228463272 0.18147034899 
0.18019190204 0.17829247569 0.17560660417 0.17197420528 0.16725513008 0.16134242593 0.15417267121 0.14573215853 0.13605827139 
0.12523599586 0.11339004084 0.1006734673 0.087254053778 0.07329988501 0.058965858431 0.04438292507 0.029651807072 0.014842503988 
6.5559327438e-16 
_area 1 100 double
0 0.00052939049764 0.0020956691408 0.0046356540429 0.00805235789 0.012227027172 0.017034051989 0.022355528954 0.028091639056 
0.03416411428 0.040512479392 0.047085022186 0.053827506983 0.06067268802 0.067533240303 0.074299813842 0.080844694383 0.087030695578 
0.092724553633 0.09781357843 0.10222326198 0.10593240891 0.10898186992 0.11147362913 0.11355907213 0.11541865744 0.11723882441 
0.11919303209 0.1214290156 0.12405401455 0.12710511857 0.13050182365 0.13401323179 0.13739476913 0.14024828761 0.14225543856 
0.14319518118 0.14302945031 0.1415150972 0.13860581568 0.13441889722 0.12920730763 0.12333193757 0.11721529629 0.11127692789 
0.10585613302 0.10114050453 0.097132475731 0.093678921585 0.090553555131 0.087551491211 0.084559124094 0.081584198694 0.07876214823 
0.076326870555 0.07440648505 0.072825534608 0.071543733635 0.070583545071 0.070011680352 0.069900020268 0.070267442644 0.071030173365 
0.072013702281 0.073017689936 0.073879034761 0.074493821539 0.074815518422 0.074844875677 0.074624664065 0.074235612408 0.073784946015 
0.073388103896 0.073148715478 0.073140489592 0.073393483064 0.073887435406 0.074553960638 0.075285749661 0.075947077924 0.076381237334 
0.076415801068 0.075869674854 0.074565268208 0.072346755085 0.069102663417 0.064788781186 0.059446230065 0.053209796686 0.046303151282 
0.03902014053 0.031694385947 0.024662179366 0.018225374474 0.012621198095 0.0080047086153 0.0044474005119 0.0019525008153 0.00048375998914 
4.4074075079e-17 
