# vtk DataFile Version 5.1
vtk output
ASCII
DATASET POLYDATA
POINTS 100 float
0.168623 0.0640069 0.71928 0.168456 0.0643487 0.719127 0.168012 0.0652068 0.718528 
0.167306 0.0665157 0.717459 0.166359 0.0681748 0.715883 0.165192 0.0700583 0.713749 
0.163824 0.0720274 0.710996 0.162263 0.0739432 0.707553 0.160505 0.0756785 0.703348 
0.158528 0.0771285 0.698306 0.156296 0.0782173 0.692364 0.153752 0.078901 0.685467 
0.150833 0.0791673 0.677586 0.147467 0.0790314 0.668715 0.143584 0.0785285 0.658876 
0.139122 0.0777063 0.648124 0.134035 0.0766159 0.636545 0.128298 0.0753046 0.624248 
0.121912 0.0738106 0.611363 0.114902 0.0721599 0.598025 0.10732 0.0703672 0.58437 
0.0992368 0.0684389 0.57052 0.0907386 0.0663783 0.556573 0.0819193 0.0641921 0.542595 
0.0728725 0.0618968 0.528616 0.0636839 0.0595239 0.51463 0.0544255 0.0571225 0.500593 
0.0451511 0.0547598 0.486435 0.035894 0.0525175 0.472069 0.0266673 0.0504858 0.457397 
0.0174666 0.0487553 0.442328 0.00827409 0.0474067 0.426784 -0.000935777 0.0465017 0.410708 
-0.0101897 0.0460747 0.39407 -0.0195094 0.0461266 0.376866 -0.0289058 0.0466231 0.359114 
-0.0383744 0.0474958 0.340847 -0.0478919 0.0486484 0.322103 -0.057415 0.0499653 0.302918 
-0.0668796 0.0513235 0.283313 -0.0762027 0.0526048 0.263291 -0.0852843 0.0537088 0.24283 
-0.0940108 0.0545631 0.221884 -0.102259 0.0551311 0.200393 -0.1099 0.0554159 0.178287 
-0.116803 0.0554597 0.1555 -0.122844 0.0553384 0.131982 -0.127904 0.0551541 0.107712 
-0.13188 0.055023 0.0827065 -0.134686 0.055063 0.0570269 -0.136261 0.0553815 0.0307794 
-0.136571 0.0560639 0.00411077 -0.135613 0.0571654 -0.0228013 -0.13342 0.0587058 -0.0497617 
-0.130057 0.0606682 -0.076574 -0.125626 0.0630017 -0.103057 -0.120257 0.065627 -0.129059 
-0.114105 0.0684447 -0.15447 -0.107343 0.0713444 -0.179228 -0.100149 0.0742145 -0.20332 
-0.0926953 0.0769505 -0.226778 -0.0851404 0.0794618 -0.249663 -0.077614 0.081676 -0.272061 
-0.0702109 0.0835403 -0.294057 -0.0629837 0.0850206 -0.315725 -0.055941 0.086099 -0.337115 
-0.0490489 0.0867687 -0.358239 -0.0422366 0.0870301 -0.379074 -0.0354061 0.0868859 -0.399558 
-0.0284444 0.0863375 -0.4196 -0.0212378 0.0853836 -0.439092 -0.0136864 0.0840197 -0.457921 
-0.00571732 0.0822394 -0.475987 0.00270414 0.0800375 -0.493216 0.0115676 0.0774135 -0.509564 
0.0208149 0.0743754 -0.525029 0.0303422 0.070943 -0.539645 0.0400068 0.0671503 -0.553474 
0.0496378 0.0630464 -0.566599 0.0590496 0.0586944 -0.579103 0.0680567 0.0541694 -0.591059 
0.0764881 0.0495546 -0.602511 0.0842008 0.0449367 -0.613469 0.091089 0.0404008 -0.623895 
0.0970905 0.0360254 -0.633715 0.102189 0.0318789 -0.642817 0.10641 0.0280156 -0.651072 
0.109816 0.0244747 -0.658346 0.112498 0.0212799 -0.664526 0.114562 0.0184403 -0.669532 
0.116122 0.0159523 -0.673339 0.117286 0.0138027 -0.675983 0.118151 0.0119717 -0.677566 
0.118798 0.0104356 -0.678249 0.119286 0.00917012 -0.678242 0.119655 0.00815196 -0.677781 
0.119931 0.00736088 -0.677109 0.120125 0.0067806 -0.676446 0.120242 0.00639939 -0.675971 
0.120282 0.00621043 -0.6758 
LINES 2 100
OFFSETS vtktypeint64
0 100 
CONNECTIVITY vtktypeint64
0 1 2 3 4 5 6 7 8 
9 10 11 12 13 14 15 16 17 
18 19 20 21 22 23 24 25 26 
27 28 29 30 31 32 33 34 35 
36 37 38 39 40 41 42 43 44 
45 46 47 48 49 50 51 52 53 
54 55 56 57 58 59 60 61 62 
63 64 65 66 67 68 69 70 71 
72 73 74 75 76 77 78 79 80 
81 82 83 84 85 86 87 88 89 
90 91 92 93 94 95 96 97 98 
99 
POINT_DATA 100
FIELD FieldData 3
_theta 1 100 double
0 0.031733259127 0.063466518254 0.095199777382 0.12693303651 0.15866629564 0.19039955476 0.22213281389 0.25386607302 
0.28559933214 0.31733259127 0.3490658504 0.38079910953 0.41253236865 0.44426562778 0.47599888691 0.50773214603 0.53946540516 
0.57119866429 0.60293192342 0.63466518254 0.66639844167 0.6981317008 0.72986495992 0.76159821905 0.79333147818 0.82506473731 
0.85679799643 0.88853125556 0.92026451469 0.95199777382 0.98373103294 1.0154642921 1.0471975512 1.0789308103 1.1106640695 
1.1423973286 1.1741305877 1.2058638468 1.237597106 1.2693303651 1.3010636242 1.3327968833 1.3645301425 1.3962634016 
1.4279966607 1.4597299198 1.491463179 1.5231964381 1.5549296972 1.5866629564 1.6183962155 1.6501294746 1.6818627337 
1.7135959929 1.745329252 1.7770625111 1.8087957702 1.8405290294 1.8722622885 1.9039955476 1.9357288068 1.9674620659 
1.999195325 2.0309285841 2.0626618433 2.0943951024 2.1261283615 2.1578616206 2.1895948798 2.2213281389 2.253061398 
2.2847946572 2.3165279163 2.3482611754 2.3799944345 2.4117276937 2.4434609528 2.4751942119 2.506927471 2.5386607302 
2.5703939893 2.6021272484 2.6338605076 2.6655937667 2.6973270258 2.7290602849 2.7607935441 2.7925268032 2.8242600623 
2.8559933214 2.8877265806 2.9194598397 2.9511930988 2.982926358 3.0146596171 3.0463928762 3.0781261353 3.1098593945 
3.1415926536 
_radius 1 100 double
1.0838898773e-16 0.016394681565 0.032582353913 0.048364435693 0.063563990077 0.078033639312 0.091660375051 0.10436723399 0.11611231721 
0.1268859031 0.13670637655 0.14561544148 0.15367278642 0.16095023387 0.16752551363 0.17347607142 0.17887357122 0.183779815 
0.18824463487 0.19230595553 0.19599179686 0.19932363294 0.20232035764 0.20500214188 0.2073936165 0.20952594239 0.21143735447 
0.21317172443 0.21477473252 0.21628755496 0.21773866574 0.21913528791 0.22045675899 0.2216520355 0.22264258123 0.22333043306 
0.22361001467 0.223381647 0.22256464763 0.22110822246 0.21899885339 0.21626346385 0.21296824319 0.20921360654 0.20512631659 
0.20085019642 0.19653696359 0.19233841713 0.18840057928 0.18485965207 0.18183901 0.17944600164 0.17776714443 0.17686065552 
0.17674666015 0.17739775241 0.17873424957 0.18062746418 0.18291089376 0.18539605688 0.18788883665 0.19020372447 0.19217620667 
0.19367536732 0.19461719186 0.19497551436 0.19478634628 0.1941433864 0.19318530912 0.19207730492 0.19099034834 0.19008178785 
0.1894795749 0.18927027908 0.18948978437 0.19011610902 0.19106514926 0.19219098947 0.19329221697 0.19412462523 0.19441933572 
0.19390427019 0.19232635582 0.18947185547 0.18518264763 0.17936697428 0.17200396447 0.16314198403 0.15289145892 0.14141322958 
0.12890372294 0.11557831618 0.10165426801 0.087334560482 0.072793952869 0.058168482335 0.043549498966 0.028983022833 0.014474706958 
1.3474991985e-15 
_area 1 100 double
0 0.00063250711603 0.0024931445139 0.0054767707487 0.0094251203382 0.014147896416 0.01944516187 0.025126754994 0.031025832035 
0.037005413553 0.042958482227 0.048803489972 0.054478000717 0.059933433696 0.065133096975 0.07005389526 0.074690122276 0.07905665095 
0.083188892457 0.087137910674 0.09096089343 0.094709221239 0.098417471503 0.10209643425 0.10573267036 0.10929692906 0.11276207037 
0.11612512458 0.11941847522 0.12269390392 0.1259875527 0.1292961676 0.13256644521 0.13567927312 0.13844895289 0.14065483391 
0.14208435412 0.14257411338 0.14204192207 0.14050021393 0.13804715227 0.1348450564 0.13109784834 0.12702775767 0.12284320183 
0.11869832346 0.11466167008 0.11071795721 0.10680819637 0.10288626136 0.098972600126 0.095199402657 0.091804954791 0.088748406473 
0.086279423029 0.084553187919 0.084083455556 0.084972855446 0.087010993998 0.089726562238 0.092629741125 0.095294342858 0.097344529194 
0.098464503677 0.098467002875 0.097358425864 0.095337812024 0.092732975991 0.089902380699 0.087160708789 0.084745064057 0.082809923614 
0.081442534267 0.080687676539 0.080566912937 0.081078115981 0.08217456521 0.083741310619 0.085584669143 0.087436047644 0.088964574434 
0.089812556687 0.089651341561 0.088225760472 0.085381129413 0.081077753474 0.075393600228 0.06851559845 0.060720999488 0.052350592397 
0.043776106363 0.035365375338 0.027450055267 0.020300850077 0.014113981172 0.0090103809788 0.0050464449979 0.0022328326087 0.00055637961837 
1.7787665627e-17 
