# vtk DataFile Version 5.1
vtk output
ASCII
DATASET POLYDATA
POINTS 100 float
0.159654 0.0730273 0.714786 0.159795 0.073283 0.714732 0.160269 0.0738974 0.714435 
0.160992 0.0748133 0.713854 0.161834 0.0759442 0.712922 0.162632 0.0771842 0.711549 
0.16321 0.0784197 0.709629 0.163398 0.0795419 0.707045 0.163047 0.0804581 0.703675 
0.162043 0.0810999 0.699405 0.160318 0.0814292 0.694134 0.157849 0.0814389 0.687782 
0.154656 0.0811501 0.680299 0.150794 0.080606 0.671672 0.146338 0.0798626 0.661925 
0.141372 0.0789794 0.651124 0.135973 0.078009 0.639371 0.130201 0.0769896 0.626799 
0.124093 0.0759399 0.613565 0.117661 0.074857 0.599839 0.110893 0.0737188 0.58579 
0.103765 0.0724893 0.571578 0.0962482 0.0711261 0.557338 0.0883222 0.0695898 0.543173 
0.0799869 0.0678531 0.529149 0.0712696 0.0659082 0.515289 0.0622288 0.063772 0.501574 
0.0529532 0.0614877 0.487948 0.0435541 0.059123 0.474325 0.0341547 0.0567643 0.4606 
0.0248752 0.054509 0.446653 0.0158177 0.052455 0.432366 0.00705252 0.050691 0.417626 
-0.00139248 0.0492874 0.402339 -0.00953637 0.0482889 0.386426 -0.0174436 0.0477117 0.36983 
-0.0252152 0.0475428 0.352516 -0.0329747 0.0477444 0.334465 -0.0408484 0.0482603 0.315672 
-0.048945 0.0490251 0.296143 -0.0573345 0.0499742 0.275889 -0.0660312 0.0510529 0.254927 
-0.0749825 0.0522238 0.233277 -0.0840649 0.0534717 0.210963 -0.0930892 0.0548041 0.188019 
-0.101813 0.0562488 0.164486 -0.109962 0.0578473 0.140421 -0.117254 0.0596464 0.115896 
-0.123426 0.061688 0.0910015 -0.128262 0.063999 0.0658397 -0.131614 0.0665829 0.0405253 
-0.133415 0.0694136 0.0151762 -0.13369 0.0724335 -0.0100939 -0.13255 0.0755546 -0.0351847 
-0.130181 0.0786646 -0.0600183 -0.126824 0.0816352 -0.0845458 -0.122748 0.0843334 -0.108752 
-0.118225 0.0866331 -0.132655 -0.113501 0.0884268 -0.156303 -0.108768 0.0896345 -0.179768 
-0.104154 0.0902106 -0.203131 -0.0997061 0.090146 -0.226474 -0.0953931 0.0894669 -0.249859 
-0.0911115 0.0882294 -0.273322 -0.0867012 0.0865111 -0.296857 -0.0819654 0.0844011 -0.320413 
-0.0766942 0.0819887 -0.343892 -0.0706886 0.0793533 -0.367154 -0.0637819 0.0765556 -0.390025 
-0.0558569 0.0736326 -0.412315 -0.0468568 0.0705946 -0.433831 -0.0367905 0.0674271 -0.454398 
-0.0257304 0.0640951 -0.473873 -0.0138048 0.0605503 -0.492158 -0.00118663 0.0567393 -0.50921 
0.0119213 0.0526133 -0.525041 0.0253009 0.0481359 -0.539715 0.0387332 0.0432901 -0.553337 
0.0520102 0.0380826 -0.566037 0.0649433 0.0325452 -0.577955 0.0773688 0.0267342 -0.589221 
0.0891507 0.020726 -0.599938 0.10018 0.0146122 -0.610173 0.110372 0.00849252 -0.619945 
0.119667 0.00246789 -0.629227 0.128022 -0.00336603 -0.637952 0.135416 -0.00892442 -0.646024 
0.141843 -0.0141371 -0.653335 0.147315 -0.0189509 -0.65978 0.151865 -0.0233296 -0.665276 
0.155542 -0.0272535 -0.669778 0.158415 -0.0307164 -0.673288 0.160573 -0.0337232 -0.675861 
0.162116 -0.0362864 -0.677599 0.163156 -0.0384232 -0.678647 0.163809 -0.040152 -0.679173 
0.164183 -0.0414911 -0.679352 0.164375 -0.0424561 -0.679347 0.164463 -0.0430591 -0.679291 
0.164493 -0.0433079 -0.679268 
LINES 2 100
OFFSETS vtktypeint64
0 100 
CONNECTIVITY vtktypeint64
0 1 2 3 4 5 6 7 8 
9 10 11 12 13 14 15 16 17 
18 19 20 21 22 23 24 25 26 
27 28 29 30 31 32 33 34 35 
36 37 38 39 40 41 42 43 44 
45 46 47 48 49 50 51 52 53 
54 55 56 57 58 59 60 61 62 
63 64 65 66 67 68 69 70 71 
72 73 74 75 76 77 78 79 80 
81 82 83 84 85 86 87 88 89 
90 91 92 93 94 95 96 97 98 
99 
POINT_DATA 100
FIELD FieldData 3
_theta 1 100 double
0 0.031733259127 0.063466518254 0.095199777382 0.12693303651 0.15866629564 0.19039955476 0.22213281389 0.25386607302 
0.28559933214 0.31733259127 0.3490658504 0.38079910953 0.41253236865 0.44426562778 0.47599888691 0.50773214603 0.53946540516 
0.57119866429 0.60293192342 0.63466518254 0.66639844167 0.6981317008 0.72986495992 0.76159821905 0.79333147818 0.82506473731 
0.85679799643 0.88853125556 0.92026451469 0.95199777382 0.98373103294 1.0154642921 1.0471975512 1.0789308103 1.1106640695 
1.1423973286 1.1741305877 1.2058638468 1.237597106 1.2693303651 1.3010636242 1.3327968833 1.3645301425 1.3962634016 
1.4279966607 1.4597299198 1.491463179 1.5231964381 1.5549296972 1.5866629564 1.6183962155 1.6501294746 1.6818627337 
1.7135959929 1.745329252 1.7770625111 1.8087957702 1.8405290294 1.8722622885 1.9039955476 1.9357288068 1.9674620659 
1.999195325 2.0309285841 2.0626618433 2.0943951024 2.1261283615 2.1578616206 2.1895948798 2.2213281389 2.253061398 
2.2847946572 2.3165279163 2.3482611754 2.3799944345 2.4117276937 2.4434609528 2.4751942119 2.506927471 2.5386607302 
2.5703939893 2.6021272484 2.6338605076 2.6655937667 2.6973270258 2.7290602849 2.7607935441 2.7925268032 2.8242600623 
2.8559933214 2.8877265806 2.9194598397 2.9511930988 2.982926358 3.0146596171 3.0463928762 3.0781261353 3.1098593945 
3.1415926536 
_radius 1 100 double
2.8609792491e-16 0.015694944857 0.031220354728 0.046406320802 0.061096144251 0.075150721511 0.088450909242 0.10089878048 0.1124188998 
0.12296021994 0.13249827962 0.14103665108 0.14860645129 0.15526319346 0.16108103385 0.16614525423 0.17054439614 0.17436366254 
0.17768087606 0.18056544359 0.18307976072 0.18528183065 0.1872278939 0.18897441282 0.19057931146 0.19210243609 0.19360465879 
0.19514432941 0.19676970876 0.19850732996 0.20034886681 0.2022414476 0.20408610757 0.20574595056 0.2070621538 0.20787430563 
0.20804147373 0.20746092021 0.20608213177 0.20391474293 0.20102987078 0.19755517881 0.1936645167 0.1895632418 0.18547046812 
0.18159973544 0.17813999976 0.1752391103 0.17299164321 0.17143218663 0.17053453595 0.17021698469 0.17035331602 0.170787832 
0.17135171828 0.17187826826 0.17221581285 0.17223867716 0.17185709314 0.17102589554 0.16974935531 0.16807849146 0.16610181813 
0.16393731971 0.16172856933 0.1596369204 0.15782543117 0.1564395967 0.15559094587 0.15534637654 0.15572389092 0.15669403887 
0.15818525567 0.16009100415 0.1622775757 0.16459270855 0.16687548242 0.16896683458 0.17071863023 0.17199909316 0.17269390347 
0.17270407704 0.1719423985 0.17032975201 0.16779214699 0.16425893854 0.15966255862 0.15393996215 0.14703592548 0.1389081479 
0.12953367862 0.11891563844 0.10708882266 0.094122805749 0.080121660006 0.065220196979 0.049577505548 0.033369246389 0.016780422783 
6.6239169392e-16 
_area 1 100 double
0 0.00054057574013 0.0021468305956 0.0047732848666 0.0083470530967 0.012771388911 0.017928871092 0.02368296709 0.029877921557 
0.036338811717 0.042874896511 0.04928895496 0.055393045547 0.061028077172 0.0660824517 0.070505125634 0.074310771387 0.077577680258 
0.080439653421 0.08306888036 0.085642167792 0.088294435032 0.091088601249 0.094021878732 0.097051377668 0.10011875783 0.10317107045 
0.1061778261 0.10913658948 0.11205698587 0.11492489712 0.11766729715 0.12014176664 0.12215549623 0.12349936792 0.12399574951 
0.12366341729 0.1223777003 0.12027216908 0.11753462889 0.11414910536 0.11028311314 0.10621530747 0.10223411197 0.098567439984 
0.095340077388 0.092563222018 0.090155931346 0.087988855146 0.085935250311 0.083920118426 0.081984508397 0.080373093526 0.079099693039 
0.077771786204 0.076139419458 0.074104811849 0.07173915088 0.069275299451 0.066809417269 0.064308282997 0.061856333605 0.059613823576 
0.057619501952 0.055839346619 0.054335899887 0.053221716985 0.052561867142 0.052343273649 0.052528001424 0.053078755011 0.053950356955 
0.055078915892 0.056377730471 0.057739159206 0.059046325815 0.0601934254 0.061103214766 0.06173348633 0.062072747498 0.062127806449 
0.06190669166 0.061400134274 0.060565587353 0.05932091696 0.057553236634 0.055139160593 0.051970371723 0.04798404643 0.043192296268 
0.037701075079 0.03171360243 0.025515411625 0.019440837678 0.013826718799 0.0089647780166 0.0050663971187 0.0022509952496 0.00056164627244 
2.6994990987e-17 
