# vtk DataFile Version 5.1
vtk output
ASCII
DATASET POLYDATA
POINTS 100 float
0.184916 0.041976 0.66373 0.184801 0.042189 0.663779 0.184576 0.0427095 0.663811 
0.184211 0.0435319 0.663803 0.183657 0.0446452 0.663711 0.182855 0.046031 0.663478 
0.181751 0.0476606 0.663026 0.180297 0.0494931 0.662266 0.178462 0.0514742 0.661092 
0.176239 0.0535368 0.659395 0.173644 0.0556039 0.657059 0.170715 0.0575922 0.653973 
0.16751 0.0594188 0.65004 0.164091 0.0610069 0.645178 0.160522 0.0622935 0.639333 
0.156854 0.0632344 0.632482 0.153119 0.0638091 0.624635 0.149318 0.0640221 0.615836 
0.145423 0.0639022 0.606159 0.141375 0.0634989 0.595706 0.13709 0.062876 0.584595 
0.132465 0.0621039 0.572954 0.127393 0.0612513 0.560908 0.121772 0.0603768 0.548573 
0.115517 0.0595221 0.536043 0.108573 0.0587081 0.52339 0.100915 0.0579334 0.510655 
0.0925608 0.0571766 0.497851 0.083559 0.0564011 0.484966 0.0739897 0.0555631 0.471967 
0.0639531 0.0546206 0.458806 0.0535589 0.0535424 0.445431 0.0429145 0.0523168 0.431786 
0.0321151 0.0509574 0.417824 0.0212352 0.0495063 0.403506 0.010325 0.048033 0.388803 
-0.000589816 0.0466306 0.373697 -0.0115034 0.0454072 0.358176 -0.0224221 0.0444766 0.342229 
-0.0333533 0.043946 0.325844 -0.0442942 0.0439056 0.309002 -0.0552205 0.044418 0.291674 
-0.0660777 0.0455116 0.27382 -0.0767758 0.0471766 0.25539 -0.0871883 0.0493657 0.23633 
-0.097157 0.0519982 0.216588 -0.1065 0.0549679 0.196116 -0.115026 0.0581528 0.174886 
-0.122546 0.0614266 0.152891 -0.128893 0.0646696 0.13015 -0.133932 0.0677787 0.106718 
-0.137576 0.0706738 0.0826767 -0.139792 0.0733023 0.0581386 -0.140604 0.0756393 0.033237 
-0.140088 0.0776846 0.0081186 -0.138368 0.0794576 -0.0170661 -0.135604 0.0809894 -0.0421734 
-0.131974 0.0823154 -0.067075 -0.127662 0.0834676 -0.0916658 -0.122841 0.0844689 -0.115869 
-0.117662 0.085329 -0.139635 -0.112243 0.0860436 -0.162944 -0.106664 0.0865956 -0.1858 
-0.100966 0.086959 -0.20822 -0.095158 0.0871035 -0.230235 -0.0892192 0.0870005 -0.251874 
-0.0831123 0.0866278 -0.273163 -0.0767931 0.0859743 -0.294118 -0.0702218 0.0850415 -0.31474 
-0.0633722 0.0838437 -0.33502 -0.0562388 0.0824061 -0.354933 -0.0488407 0.0807604 -0.37445 
-0.0412222 0.0789404 -0.393532 -0.0334508 0.0769761 -0.412146 -0.0256122 0.0748898 -0.430256 
-0.0178036 0.0726924 -0.447835 -0.0101264 0.0703823 -0.464857 -0.00267908 0.0679466 -0.481301 
0.00444959 0.065364 -0.497145 0.0111852 0.0626101 -0.512362 0.0174709 0.0596629 -0.526916 
0.0232686 0.0565095 -0.540758 0.0285581 0.0531511 -0.553826 0.0333355 0.0496067 -0.566044 
0.03761 0.045915 -0.577329 0.0414006 0.0421333 -0.587593 0.044733 0.0383337 -0.596755 
0.0476367 0.034598 -0.604749 0.0501432 0.0310102 -0.611535 0.0522839 0.0276496 -0.617105 
0.0540901 0.0245835 -0.621494 0.0555921 0.0218617 -0.624776 0.0568195 0.0195138 -0.627068 
0.0578012 0.0175477 -0.628521 0.0585648 0.0159524 -0.629309 0.0591365 0.0147022 -0.629619 
0.0595401 0.0137626 -0.629633 0.0597962 0.0130976 -0.629511 0.0599209 0.0126767 -0.62938 
0.0599247 0.0124798 -0.629322 
LINES 2 100
OFFSETS vtktypeint64
0 100 
CONNECTIVITY vtktypeint64
0 1 2 3 4 5 6 7 8 
9 10 11 12 13 14 15 16 17 
18 19 20 21 22 23 24 25 26 
27 28 29 30 31 32 33 34 35 
36 37 38 39 40 41 42 43 44 
45 46 47 48 49 50 51 52 53 
54 55 56 57 58 59 60 61 62 
63 64 65 66 67 68 69 70 71 
72 73 74 75 76 77 78 79 80 
81 82 83 84 85 86 87 88 89 
90 91 92 93 94 95 96 97 98 
99 
POINT_DATA 100
FIELD FieldData 3
_theta 1 100 double
0 0.031733259127 0.063466518254 0.095199777382 0.12693303651 0.15866629564 0.19039955476 0.22213281389 0.25386607302 
0.28559933214 0.31733259127 0.3490658504 0.38079910953 0.41253236865 0.44426562778 0.47599888691 0.50773214603 0.53946540516 
0.57119866429 0.60293192342 0.63466518254 0.66639844167 0.6981317008 0.72986495992 0.76159821905 0.79333147818 0.82506473731 
0.85679799643 0.88853125556 0.92026451469 0.95199777382 0.98373103294 1.0154642921 1.0471975512 1.0789308103 1.1106640695 
1.1423973286 1.1741305877 1.2058638468 1.237597106 1.2693303651 1.3010636242 1.3327968833 1.3645301425 1.3962634016 
1.4279966607 1.4597299198 1.491463179 1.5231964381 1.5549296972 1.5866629564 1.6183962155 1.6501294746 1.6818627337 
1.7135959929 1.745329252 1.7770625111 1.8087957702 1.8405290294 1.8722622885 1.9039955476 1.9357288068 1.9674620659 
1.999195325 2.0309285841 2.0626618433 2.0943951024 2.1261283615 2.1578616206 2.1895948798 2.2213281389 2.253061398 
2.2847946572 2.3165279163 2.3482611754 2.3799944345 2.4117276937 2.4434609528 2.4751942119 2.506927471 2.5386607302 
2.5703939893 2.6021272484 2.6338605076 2.6655937667 2.6973270258 2.7290602849 2.7607935441 2.7925268032 2.8242600623 
2.8559933214 2.8877265806 2.9194598397 2.9511930988 2.982926358 3.0146596171 3.0463928762 3.0781261353 3.1098593945 
3.1415926536 
_radius 1 100 double
1.4657992516e-15 0.015076896541 0.030015379924 0.044684138541 0.058966588649 0.072765361873 0.086003948765 0.098625693203 0.1105908584 
0.12187271075 0.13245346982 0.14232069945 0.15146448404 0.15987563605 0.1675450927 0.17446444759 0.18062732866 0.18603131025 
0.19068023038 0.19458689517 0.19777599171 0.20028675029 0.20217480061 0.20351281869 0.20438971417 0.20490809169 0.20517971807 
0.20531901144 0.20543507344 0.20562314233 0.20595629837 0.20647795865 0.20719558315 0.20807633451 0.20904595218 0.20999221209 
0.21077364517 0.21123293881 0.21121335659 0.21057609071 0.20921665521 0.20707883713 0.20416499953 0.20054156443 0.19633840539 
0.19174092647 0.18697417784 0.18227981507 0.17788903117 0.1739969135 0.170744358 0.16821156553 0.16642306678 0.16536040646 
0.16497668894 0.16520745875 0.16597466586 0.16718431513 0.16872245234 0.17045581893 0.1722408916 0.17393972938 0.17543726999 
0.1766545825 0.17755478427 0.17814088454 0.17844691611 0.17852525002 0.1784337236 0.17822572715 0.17794467848 0.17762225388 
0.17727855168 0.17692243511 0.1765510747 0.17614853673 0.17568384647 0.17510920989 0.17435911946 0.17335120072 0.17198972989 
0.17017198281 0.16779598948 0.16476730312 0.16100297657 0.15643245902 0.15099653996 0.14464611877 0.1373422605 0.1290580147 
0.11978149913 0.10951929581 0.09829928889 0.086172412394 0.073213119373 0.059518616089 0.045207008165 0.030414512927 0.015291861153 
2.5342559045e-16 
_area 1 100 double
0 0.00045757531309 0.001825060735 0.0040860707208 0.0072113543249 0.011156825864 0.015862420842 0.021252541816 0.027237850298 
0.033716823869 0.040575009814 0.047681704257 0.05488726497 0.062025738373 0.068924772325 0.075420719943 0.081374820858 0.086686711606 
0.091303000883 0.095220025196 0.098480569638 0.10116482328 0.10337733806 0.10523335036 0.10684595026 0.10831245593 0.10970198285 
0.11105187897 0.11237778549 0.11369389974 0.11503239776 0.11644893231 0.11800728001 0.11974693705 0.12164764639 0.12360588247 
0.12543146907 0.12687488307 0.12768277306 0.1276488866 0.12663930795 0.1245957076 0.12152932116 0.11751912054 0.11271631416 
0.10734432397 0.1016881896 0.096084029292 0.090911689479 0.086468199796 0.082802450666 0.079845928975 0.077505059129 0.075670170993 
0.074221868962 0.073043404378 0.072036008049 0.07113206114 0.070301113836 0.069537345003 0.068812855357 0.068040642191 0.067121396814 
0.066019327066 0.064786199625 0.063526172327 0.062332036483 0.061242041486 0.060238769371 0.059273820237 0.058299725353 0.057297220157 
0.056290713937 0.055377099278 0.054660110463 0.054201941699 0.054055792 0.054302520411 0.054875727142 0.055582501053 0.056250463376 
0.056698039599 0.056745986839 0.056241979571 0.055077243753 0.053191354623 0.05056894799 0.047233969805 0.043245178002 0.038694107764 
0.033705026099 0.028434993726 0.02307124179 0.017823696997 0.012912570305 0.0085530964218 0.004940476126 0.002237482002 0.00056568982936 
5.6480057855e-18 
