# vtk DataFile Version 5.1
vtk output
ASCII
DATASET POLYDATA
POINTS 100 float
0.126923 0.0567592 0.660103 0.127051 0.0570453 0.659794 0.127475 0.0577565 0.658701 
0.128134 0.058838 0.656847 0.128934 0.0602047 0.654267 0.129759 0.0617491 0.651003 
0.130482 0.0633517 0.6471 0.130976 0.0648922 0.642601 0.13113 0.0662598 0.637543 
0.130854 0.067362 0.631956 0.130087 0.0681308 0.625859 0.128801 0.0685263 0.619264 
0.126998 0.0685362 0.612176 0.124703 0.0681727 0.6046 0.121959 0.0674675 0.596543 
0.118814 0.0664645 0.588017 0.115318 0.0652131 0.579043 0.111507 0.0637609 0.569652 
0.107403 0.0621488 0.559881 0.103012 0.0604082 0.549776 0.0983226 0.0585601 0.539379 
0.0933108 0.0566169 0.528729 0.0879486 0.0545858 0.517855 0.0822105 0.0524737 0.50677 
0.0760817 0.0502923 0.495473 0.0695652 0.0480627 0.483943 0.0626851 0.0458179 0.472144 
0.0554877 0.043605 0.460033 0.0480388 0.0414834 0.44756 0.0404172 0.0395218 0.434684 
0.0327061 0.0377933 0.421373 0.0249825 0.0363692 0.407616 0.0173077 0.0353128 0.39342 
0.00971748 0.0346729 0.37882 0.0022172 0.0344798 0.363865 -0.00522085 0.0347423 0.348619 
-0.0126547 0.035448 0.33315 -0.0201656 0.0365647 0.317516 -0.0278474 0.0380449 0.301759 
-0.0357927 0.0398312 0.28589 -0.0440776 0.041863 0.269887 -0.0527476 0.0440817 0.253688 
-0.0618048 0.0464367 0.237196 -0.0711998 0.0488882 0.220287 -0.0808273 0.0514089 0.202818 
-0.0905282 0.0539829 0.184641 -0.100097 0.0566033 0.165624 -0.109293 0.0592674 0.145661 
-0.117857 0.061972 0.124692 -0.12553 0.0647083 0.102704 -0.13207 0.067458 0.0797435 
-0.137268 0.0701905 0.0559115 -0.140964 0.0728628 0.0313567 -0.143058 0.0754208 0.00626409 
-0.143508 0.0778034 -0.0191606 -0.142335 0.0799477 -0.044708 -0.139617 0.0817952 -0.0701812 
-0.135474 0.0832979 -0.0954111 -0.130062 0.0844237 -0.120266 -0.123552 0.0851599 -0.144656 
-0.116122 0.0855146 -0.168535 -0.107941 0.0855159 -0.191894 -0.0991593 0.0852074 -0.21475 
-0.0899031 0.0846431 -0.237136 -0.0802698 0.08388 -0.259086 -0.0703291 0.0829703 -0.280624 
-0.0601262 0.0819538 -0.301756 -0.0496874 0.0808523 -0.322461 -0.0390268 0.0796655 -0.342694 
-0.0281541 0.0783698 -0.36239 -0.017081 0.0769202 -0.38147 -0.0058271 0.0752546 -0.399853 
0.00557582 0.0733009 -0.417469 0.0170817 0.0709849 -0.434266 0.0286296 0.0682399 -0.450221 
0.0401448 0.0650147 -0.465342 0.0515415 0.0612813 -0.479667 0.0627256 0.05704 -0.493259 
0.0735986 0.0523218 -0.506195 0.0840615 0.0471883 -0.518556 0.0940184 0.0417286 -0.530409 
0.10338 0.0360532 -0.541799 0.112066 0.0302874 -0.552738 0.120008 0.024562 -0.563199 
0.127154 0.019005 -0.57312 0.133467 0.0137338 -0.582405 0.138928 0.00884767 -0.590942 
0.143539 0.00442321 -0.598611 0.147321 0.00051123 -0.605307 0.150317 -0.00286403 -0.610952 
0.152588 -0.00570364 -0.615513 0.154214 -0.00803102 -0.619006 0.155288 -0.00988761 -0.621502 
0.155915 -0.0113277 -0.623124 0.156201 -0.0124128 -0.624035 0.156254 -0.0132063 -0.62442 
0.156173 -0.0137679 -0.624474 0.156041 -0.0141492 -0.624372 0.155924 -0.0143903 -0.624256 
0.155863 -0.0145165 -0.624219 
LINES 2 100
OFFSETS vtktypeint64
0 100 
CONNECTIVITY vtktypeint64
0 1 2 3 4 5 6 7 8 
9 10 11 12 13 14 15 16 17 
18 19 20 21 22 23 24 25 26 
27 28 29 30 31 32 33 34 35 
36 37 38 39 40 41 42 43 44 
45 46 47 48 49 50 51 52 53 
54 55 56 57 58 59 60 61 62 
63 64 65 66 67 68 69 70 71 
72 73 74 75 76 77 78 79 80 
81 82 83 84 85 86 87 88 89 
90 91 92 93 94 95 96 97 98 
99 
POINT_DATA 100
FIELD FieldData 3
_theta 1 100 double
0 0.031733259127 0.063466518254 0.095199777382 0.12693303651 0.15866629564 0.19039955476 0.22213281389 0.25386607302 
0.28559933214 0.31733259127 0.3490658504 0.38079910953 0.41253236865 0.44426562778 0.47599888691 0.50773214603 0.53946540516 
0.57119866429 0.60293192342 0.63466518254 0.66639844167 0.6981317008 0.72986495992 0.76159821905 0.79333147818 0.82506473731 
0.85679799643 0.88853125556 0.92026451469 0.95199777382 0.98373103294 1.0154642921 1.0471975512 1.0789308103 1.1106640695 
1.1423973286 1.1741305877 1.2058638468 1.237597106 1.2693303651 1.3010636242 1.3327968833 1.3645301425 1.3962634016 
1.4279966607 1.4597299198 1.491463179 1.5231964381 1.5549296972 1.5866629564 1.6183962155 1.6501294746 1.6818627337 
1.7135959929 1.745329252 1.7770625111 1.8087957702 1.8405290294 1.8722622885 1.9039955476 1.9357288068 1.9674620659 
1.999195325 2.0309285841 2.0626618433 2.0943951024 2.1261283615 2.1578616206 2.1895948798 2.2213281389 2.253061398 
2.2847946572 2.3165279163 2.3482611754 2.3799944345 2.4117276937 2.4434609528 2.4751942119 2.506927471 2.5386607302 
2.5703939893 2.6021272484 2.6338605076 2.6655937667 2.6973270258 2.7290602849 2.7607935441 2.7925268032 2.8242600623 
2.8559933214 2.8877265806 2.9194598397 2.9511930988 2.982926358 3.0146596171 3.0463928762 3.0781261353 3.1098593945 
3.1415926536 
_radius 1 100 double
1.8878382775e-15 0.013242304985 0.026503975181 0.039789046924 0.053085929583 0.066362084524 0.079561368738 0.092604746242 0.10539478063 
0.11782377202 0.12978462988 0.14118280154 0.15194710567 0.16203735854 0.17144724284 0.18020178858 0.18834984711 0.19595279961 
0.20307132262 0.20975234339 0.21601840293 0.22186147228 0.22724271371 0.23209867079 0.23635304933 0.23993198786 0.24277993162 
0.24487314885 0.24622849034 0.24690591399 0.24700428919 0.24665092268 0.24598609913 0.24514470008 0.24423753171 0.24333517267 
0.24245685071 0.24156616461 0.24057459449 0.23935285073 0.23774921193 0.23561303866 0.23282062835 0.22929964926 0.22504783754 
0.22014184756 0.21473355105 0.20903386098 0.20328756235 0.19774485232 0.19263501512 0.1881458425 0.18441096274 0.18150619053 
0.17945407413 0.17823320493 0.17778750255 0.17803189355 0.17885387811 0.18011372577 0.18164792817 0.18327988581 0.18483835854 
0.18617977628 0.18720806397 0.1878864723 0.18823879126 0.18834036833 0.18830151012 0.18824687089 0.18829441819 0.18853682345 
0.18902710935 0.18976951786 0.19071608315 0.19176929375 0.19279111493 0.19361772826 0.19407738671 0.19400717505 0.19326495595 
0.19173512037 0.1893291423 0.18598305157 0.1816537135 0.17631492182 0.16995352257 0.16256548724 0.1541520381 0.14471635957 
0.13426180861 0.12279261133 0.11031767286 0.096857384346 0.08245240794 0.067172659271 0.051124335994 0.034452968728 0.017341074841 
5.8000731858e-16 
_area 1 100 double
0 0.00047686492653 0.0019106698389 0.0043084289675 0.0076737269518 0.011996531381 0.017242386612 0.023343675221 0.030195665767 
0.037659426298 0.045571888024 0.05376055535 0.062058177527 0.070313545474 0.078398523801 0.086214386527 0.093699087771 0.10083309729 
0.10763850846 0.11416604481 0.12046840305 0.1265664658 0.13242319868 0.13793998236 0.14297887254 0.14740066845 0.151102976 
0.154046058 0.15626161674 0.15784533094 0.15893672385 0.15969106564 0.16024855515 0.16070637934 0.16109801655 0.1613819541 
0.16144531276 0.16112618953 0.16024348194 0.15862278323 0.1561195979 0.15264388521 0.14818449519 0.14282656713 0.13675381258 
0.13023201097 0.12357646235 0.11710973578 0.1111165768 0.10580251297 0.10126261058 0.097476483294 0.094350876459 0.091780882745 
0.089690096038 0.088047843772 0.08684913654 0.086064373287 0.085595728722 0.085274441824 0.084906780559 0.084344129627 0.083546275594 
0.082644352887 0.081926506769 0.081147655738 0.079905472075 0.078155879258 0.075995537513 0.073576445011 0.071072568387 0.068667187963 
0.066550356912 0.064910698965 0.063912441738 0.063661321523 0.064172182156 0.065351459266 0.067000702989 0.068841629871 0.070556393076 
0.071830736239 0.072388013574 0.072008550176 0.070539916628 0.06790487125 0.064107507625 0.059234575629 0.053449363438 0.046977803847 
0.040088785761 0.033071889606 0.026215606638 0.01978812137 0.014021952991 0.0091036890901 0.0051701365708 0.0023114160353 0.00057965725185 
3.6818803256e-17 
