# vtk DataFile Version 5.1
vtk output
ASCII
DATASET POLYDATA
POINTS 100 float
0.120468 0.0621679 0.666717 0.120527 0.0623223 0.666534 0.120707 0.0626449 0.665803 
0.12097 0.063117 0.664518 0.121251 0.0637092 0.662666 0.121474 0.0643826 0.660232 
0.121554 0.065091 0.657199 0.121407 0.0657834 0.653548 0.120962 0.0664061 0.64926 
0.120162 0.0669065 0.644318 0.118971 0.067235 0.638711 0.117378 0.0673483 0.632433 
0.11539 0.0672116 0.625486 0.113034 0.0668006 0.617884 0.110344 0.0661027 0.60965 
0.107362 0.0651177 0.600821 0.104123 0.0638575 0.591444 0.100652 0.0623454 0.581578 
0.0969589 0.0606145 0.571287 0.0930349 0.0587057 0.560641 0.0888533 0.0566656 0.549712 
0.0843723 0.0545436 0.538566 0.0795404 0.0523899 0.527263 0.0743032 0.0502531 0.51585 
0.0686113 0.048179 0.50436 0.0624279 0.0462087 0.492808 0.0557354 0.0443787 0.481191 
0.0485396 0.0427202 0.469489 0.0408718 0.0412597 0.457665 0.0327878 0.0400195 0.44567 
0.0243645 0.0390184 0.433446 0.0156939 0.0382724 0.42093 0.00687611 0.0377954 0.408062 
-0.0019884 0.0375995 0.394782 -0.0108063 0.0376949 0.381043 -0.0194973 0.0380898 0.366805 
-0.0279979 0.03879 0.352039 -0.0362627 0.0397984 0.336728 -0.0442635 0.0411142 0.320864 
-0.0519847 0.0427325 0.304444 -0.0594187 0.0446437 0.287471 -0.0665582 0.0468339 0.269946 
-0.0733903 0.0492841 0.251871 -0.0798901 0.0519711 0.233245 -0.0860169 0.0548671 0.214064 
-0.0917122 0.0579406 0.194323 -0.0969012 0.0611564 0.17402 -0.101496 0.0644755 0.153161 
-0.105403 0.0678555 0.131761 -0.108529 0.0712505 0.109853 -0.110792 0.074611 0.0874874 
-0.112128 0.0778841 0.0647408 -0.1125 0.0810145 0.0417105 -0.111902 0.0839448 0.0185151 
-0.11036 0.0866178 -0.0047106 -0.107934 0.0889787 -0.0278232 -0.104711 0.0909776 -0.0506793 
-0.100803 0.0925732 -0.0731463 -0.0963295 0.0937361 -0.0951121 -0.0914177 0.0944515 -0.116495 
-0.0861856 0.0947223 -0.13725 -0.080736 0.0945699 -0.157374 -0.0751498 0.0940343 -0.176905 
-0.0694815 0.0931725 -0.195916 -0.0637591 0.0920545 -0.214513 -0.0579864 0.0907585 -0.232814 
-0.0521482 0.0893643 -0.250944 -0.0462182 0.087946 -0.269012 -0.0401673 0.0865649 -0.287102 
-0.0339726 0.085263 -0.305257 -0.0276253 0.0840581 -0.32347 -0.0211365 0.082941 -0.34168 
-0.014541 0.0818755 -0.359776 -0.00789665 0.0808016 -0.377601 -0.00128219 0.0796412 -0.394965 
0.00520899 0.0783067 -0.411663 0.0114768 0.0767109 -0.427496 0.0174235 0.0747783 -0.44229 
0.0229637 0.072455 -0.455913 0.0280326 0.0697184 -0.468296 0.0325928 0.0665831 -0.479436 
0.0366382 0.0631037 -0.489408 0.0401954 0.0593736 -0.498353 0.0433202 0.0555195 -0.506473 
0.0460924 0.0516922 -0.514008 0.0486071 0.048054 -0.521218 0.0509649 0.0447646 -0.528351 
0.0532605 0.0419661 -0.535626 0.055573 0.0397697 -0.543198 0.0579566 0.0382438 -0.551149 
0.0604348 0.0374067 -0.559472 0.0629968 0.0372241 -0.568064 0.0655987 0.0376112 -0.576738 
0.0681672 0.0384397 -0.585233 0.0706066 0.0395503 -0.593234 0.072809 0.0407672 -0.600403 
0.0746646 0.0419152 -0.606408 0.0760734 0.0428368 -0.610949 0.0769551 0.0434078 -0.613791 
0.0772578 0.0435491 -0.614783 
LINES 2 100
OFFSETS vtktypeint64
0 100 
CONNECTIVITY vtktypeint64
0 1 2 3 4 5 6 7 8 
9 10 11 12 13 14 15 16 17 
18 19 20 21 22 23 24 25 26 
27 28 29 30 31 32 33 34 35 
36 37 38 39 40 41 42 43 44 
45 46 47 48 49 50 51 52 53 
54 55 56 57 58 59 60 61 62 
63 64 65 66 67 68 69 70 71 
72 73 74 75 76 77 78 79 80 
81 82 83 84 85 86 87 88 89 
90 91 92 93 94 95 96 97 98 
99 
POINT_DATA 100
FIELD FieldData 3
_theta 1 100 double
0 0.031733259127 0.063466518254 0.095199777382 0.12693303651 0.15866629564 0.19039955476 0.22213281389 0.25386607302 
0.28559933214 0.31733259127 0.3490658504 0.38079910953 0.41253236865 0.44426562778 0.47599888691 0.50773214603 0.53946540516 
0.57119866429 0.60293192342 0.63466518254 0.66639844167 0.6981317008 0.72986495992 0.76159821905 0.79333147818 0.82506473731 
0.85679799643 0.88853125556 0.92026451469 0.95199777382 0.98373103294 1.0154642921 1.0471975512 1.0789308103 1.1106640695 
1.1423973286 1.1741305877 1.2058638468 1.237597106 1.2693303651 1.3010636242 1.3327968833 1.3645301425 1.3962634016 
1.4279966607 1.4597299198 1.491463179 1.5231964381 1.5549296972 1.5866629564 1.6183962155 1.6501294746 1.6818627337 
1.7135959929 1.745329252 1.7770625111 1.8087957702 1.8405290294 1.8722622885 1.9039955476 1.9357288068 1.9674620659 
1.999195325 2.0309285841 2.0626618433 2.0943951024 2.1261283615 2.1578616206 2.1895948798 2.2213281389 2.253061398 
2.2847946572 2.3165279163 2.3482611754 2.3799944345 2.4117276937 2.4434609528 2.4751942119 2.506927471 2.5386607302 
2.5703939893 2.6021272484 2.6338605076 2.6655937667 2.6973270258 2.7290602849 2.7607935441 2.7925268032 2.8242600623 
2.8559933214 2.8877265806 2.9194598397 2.9511930988 2.982926358 3.0146596171 3.0463928762 3.0781261353 3.1098593945 
3.1415926536 
_radius 1 100 double
3.8665270196e-16 0.012616947521 0.025275628065 0.037998586336 0.050788857016 0.063624969974 0.076459835788 0.089223231979 0.10182704542 
0.11417221309 0.12615639297 0.13768164202 0.14866160595 0.15902780845 0.16873454568 0.17776175223 0.18611519864 0.19382366178 
0.20093325931 0.2074997406 0.21357993684 0.21922373307 0.22446791764 0.22933307256 0.23382412251 0.23793423024 0.24165072304 
0.24496114319 0.24785762973 0.25033859174 0.25240766314 0.25407080005 0.25533278001 0.2561942401 0.25664995473 0.25668859039 
0.25629385113 0.25544675244 0.25412870237 0.25232512521 0.25002950494 0.24724783241 0.24400336506 0.24034130651 0.23633260474 
0.23207577672 0.2276956795 0.22333850299 0.21916286216 0.21532758337 0.21197751347 0.20922933371 0.20715972975 0.20579803767 
0.20512446604 0.20507353136 0.20554125351 0.20639450666 0.20748149325 0.20864294314 0.20972386747 0.21058548128 0.2111165091 
0.21124280302 0.21093418733 0.21020763753 0.20912613285 0.20779267685 0.20633911233 0.2049096973 0.20364025149 0.20263513688 
0.20194600868 0.20155719779 0.20138173993 0.20126933341 0.20102410304 0.20042765002 0.19926233075 0.1973307744 0.19446953091 
0.19055667408 0.18551462315 0.17931010495 0.17195301363 0.16349510167 0.15402826676 0.14368113735 0.13261222026 0.12099841739 
0.10901918865 0.096838517372 0.084588363221 0.072357747716 0.060190579317 0.048092876413 0.036046948686 0.024027630465 0.012015040161 
1.4326550423e-15 
_area 1 100 double
0 0.00047521756368 0.0018941264833 0.0042361477429 0.0074658814955 0.011531667003 0.01636398132 0.021874039754 0.027953105001 
0.034473295384 0.041290709357 0.048251037685 0.055197454652 0.061981827122 0.068481273606 0.07461917962 0.080384050556 0.085836200306 
0.091094321196 0.096301633437 0.10158214902 0.10700484766 0.112570965 0.11822899354 0.12391025214 0.12956929187 0.13520293687 
0.1408075457 0.14630367541 0.15154921516 0.15640872644 0.16078180058 0.1646010556 0.16782531963 0.17043346452 0.17241793141 
0.17377764253 0.17451125736 0.17461122587 0.17405908528 0.17282473129 0.17087336407 0.16818055178 0.16475153848 0.16063910794 
0.15595474551 0.150869211 0.14560026794 0.14038700173 0.13545326375 0.13097013442 0.12703601535 0.12368649098 0.12091892838 
0.11870618254 0.11699829896 0.11572407752 0.11479181096 0.11408449011 0.11345262748 0.11271332365 0.11166328881 0.11010722765 
0.1078943583 0.10495197804 0.10131023474 0.097119685876 0.092668888218 0.088521358443 0.085326577087 0.083185633961 0.082103675042 
0.082006334116 0.082702647127 0.083891087978 0.085189814349 0.086188958399 0.086513980661 0.085884015677 0.084154916463 0.081329596303 
0.077513968639 0.072882997249 0.067673775934 0.062141802943 0.056504068733 0.050899254619 0.045379741446 0.039937058247 0.034547240849 
0.029214089005 0.023992452667 0.01898654842 0.014330450053 0.010162908597 0.0066067156653 0.0037575678208 0.0016821926917 0.00042227269821 
2.1277441217e-17 
