# vtk DataFile Version 5.1
vtk output
ASCII
DATASET POLYDATA
POINTS 100 float
0.109223 0.0606447 0.728782 0.109476 0.0605963 0.728685 0.110266 0.0603049 0.728244 
0.111514 0.0598409 0.727456 0.113097 0.0593115 0.72631 0.114858 0.0588448 0.724791 
0.116627 0.0585716 0.722877 0.118231 0.0586063 0.720534 0.119515 0.0590297 0.717722 
0.120352 0.0598766 0.714387 0.120654 0.0611302 0.710474 0.120374 0.0627223 0.705922 
0.119511 0.0645419 0.700674 0.118098 0.0664486 0.694684 0.116199 0.0682907 0.687916 
0.113893 0.0699238 0.680356 0.111264 0.0712288 0.672012 0.108387 0.0721261 0.662915 
0.105319 0.0725841 0.653117 0.102091 0.0726205 0.64269 0.0987035 0.0722974 0.631715 
0.0951319 0.0717099 0.62028 0.0913271 0.0709703 0.608469 0.0872248 0.0701902 0.596354 
0.0827546 0.0694635 0.58399 0.0778498 0.0688516 0.571409 0.0724566 0.0683746 0.558623 
0.0665409 0.0680081 0.54562 0.0600921 0.0676873 0.53237 0.0531238 0.0673171 0.518833 
0.0456718 0.066787 0.504966 0.0377882 0.0659889 0.490729 0.029535 0.064835 0.476092 
0.0209756 0.0632729 0.461045 0.012168 0.061297 0.445593 0.00315871 0.0589533 0.429759 
-0.00602089 0.0563373 0.413581 -0.0153551 0.0535855 0.397104 -0.0248416 0.0508622 0.380374 
-0.0344865 0.0483416 0.363423 -0.0442972 0.0461894 0.346269 -0.0542743 0.0445458 0.328903 
-0.0644039 0.0435119 0.311289 -0.0746503 0.0431406 0.29336 -0.0849513 0.043435 0.275028 
-0.095216 0.0443513 0.256183 -0.105326 0.0458089 0.236712 -0.115139 0.0477026 0.216505 
-0.124498 0.0499177 0.19547 -0.133235 0.0523444 0.173546 -0.141187 0.0548896 0.15071 
-0.148204 0.057485 0.126984 -0.154156 0.0600896 0.102439 -0.158946 0.0626877 0.0771869 
-0.162511 0.0652821 0.0513787 -0.164826 0.0678844 0.0251897 -0.165906 0.0705039 -0.00119209 
-0.165801 0.0731376 -0.0275812 -0.164592 0.0757621 -0.0538084 -0.162386 0.0783305 -0.0797328 
-0.159305 0.0807729 -0.105251 -0.155482 0.0830029 -0.130303 -0.151054 0.0849267 -0.154871 
-0.146148 0.0864555 -0.178976 -0.140886 0.0875183 -0.202673 -0.135368 0.0880724 -0.226039 
-0.12968 0.0881108 -0.24916 -0.123884 0.0876652 -0.27212 -0.118022 0.0868025 -0.294993 
-0.112111 0.0856162 -0.317829 -0.106153 0.0842137 -0.340649 -0.100127 0.0827003 -0.363446 
-0.0940035 0.0811636 -0.38618 -0.0877411 0.0796592 -0.408781 -0.0812958 0.0782007 -0.431161 
-0.0746263 0.0767562 -0.45321 -0.0676997 0.075251 -0.474813 -0.0604984 0.0735774 -0.495853 
-0.0530247 0.0716102 -0.516216 -0.0453052 0.0692256 -0.535798 -0.0373933 0.0663222 -0.554508 
-0.0293695 0.0628392 -0.57227 -0.0213386 0.0587714 -0.589023 -0.0134258 0.0541769 -0.604722 
-0.00576899 0.0491771 -0.619333 0.00148962 0.0439479 -0.632836 0.00821393 0.0387044 -0.645222 
0.0142841 0.0336782 -0.656491 0.0196059 0.0290933 -0.666652 0.024119 0.0251412 -0.675723 
0.0278015 0.0219588 -0.683731 0.0306723 0.019614 -0.690708 0.0327892 0.0180981 -0.696695 
0.034243 0.0173286 -0.701737 0.0351495 0.0171606 -0.705882 0.0356378 0.0174062 -0.709179 
0.0358378 0.0178595 -0.711674 0.0358677 0.0183235 -0.713406 0.0358219 0.0186365 -0.714409 
0.0357618 0.0186926 -0.714702 
LINES 2 100
OFFSETS vtktypeint64
0 100 
CONNECTIVITY vtktypeint64
0 1 2 3 4 5 6 7 8 
9 10 11 12 13 14 15 16 17 
18 19 20 21 22 23 24 25 26 
27 28 29 30 31 32 33 34 35 
36 37 38 39 40 41 42 43 44 
45 46 47 48 49 50 51 52 53 
54 55 56 57 58 59 60 61 62 
63 64 65 66 67 68 69 70 71 
72 73 74 75 76 77 78 79 80 
81 82 83 84 85 86 87 88 89 
90 91 92 93 94 95 96 97 98 
99 
POINT_DATA 100
FIELD FieldData 3
_theta 1 100 double
0 0.031733259127 0.063466518254 0.095199777382 0.12693303651 0.15866629564 0.19039955476 0.22213281389 0.25386607302 
0.28559933214 0.31733259127 0.3490658504 0.38079910953 0.41253236865 0.44426562778 0.47599888691 0.50773214603 0.53946540516 
0.57119866429 0.60293192342 0.63466518254 0.66639844167 0.6981317008 0.72986495992 0.76159821905 0.79333147818 0.82506473731 
0.85679799643 0.88853125556 0.92026451469 0.95199777382 0.98373103294 1.0154642921 1.0471975512 1.0789308103 1.1106640695 
1.1423973286 1.1741305877 1.2058638468 1.237597106 1.2693303651 1.3010636242 1.3327968833 1.3645301425 1.3962634016 
1.4279966607 1.4597299198 1.491463179 1.5231964381 1.5549296972 1.5866629564 1.6183962155 1.6501294746 1.6818627337 
1.7135959929 1.745329252 1.7770625111 1.8087957702 1.8405290294 1.8722622885 1.9039955476 1.9357288068 1.9674620659 
1.999195325 2.0309285841 2.0626618433 2.0943951024 2.1261283615 2.1578616206 2.1895948798 2.2213281389 2.253061398 
2.2847946572 2.3165279163 2.3482611754 2.3799944345 2.4117276937 2.4434609528 2.4751942119 2.506927471 2.5386607302 
2.5703939893 2.6021272484 2.6338605076 2.6655937667 2.6973270258 2.7290602849 2.7607935441 2.7925268032 2.8242600623 
2.8559933214 2.8877265806 2.9194598397 2.9511930988 2.982926358 3.0146596171 3.0463928762 3.0781261353 3.1098593945 
3.1415926536 
_radius 1 100 double
1.2267721087e-15 0.014912001322 0.029694880423 0.044227525955 0.05840534009 0.07214497518 0.085385586602 0.098086691068 0.11022347307 
0.1217809434 0.1327485705 0.14311679181 0.15287616466 0.16201894725 0.1705418974 0.17844847276 0.18574879806 0.19245677612 
0.19858512596 0.20414022277 0.20911884754 0.21350828191 0.21729002295 0.22044628989 0.22296781028 0.22486116783 0.22615414226 
0.22689782773 0.22716483191 0.22704355464 0.22662939402 0.22601451831 0.22527818504 0.22447915939 0.22365071509 0.22279771325 
0.2218951284 0.22088818126 0.21969517502 0.21821435413 0.21633537215 0.21395469173 0.21099305513 0.20741240986 0.20322935124 
0.19852213979 0.19342875978 0.18813470833 0.18285164028 0.17779117161 0.17314017831 0.16904306229 0.16559349992 0.16283546497 
0.16077147954 0.15937438275 0.15859777499 0.15838094939 0.15864671841 0.15929405011 0.16019107971 0.16117657538 0.16207562935 
0.16272653292 0.16300757289 0.16285319906 0.16225627005 0.16125929791 0.15993999185 0.15839615003 0.15673321156 0.15505524094 
0.15345805752 0.15202279985 0.15080917251 0.14984890431 0.14914081214 0.14864899507 0.14830503781 0.14801395648 0.14766245984 
0.14712741267 0.14628249303 0.14500193906 0.14316162497 0.14063889131 0.13731303704 0.13306797483 0.12779753414 0.12141280359 
0.11385018688 0.10507866324 0.095104997598 0.083976137826 0.071778595703 0.058635117292 0.044699331096 0.030149258148 0.015180540143 
3.1246858084e-16 
_area 1 100 double
0 0.00055486798541 0.0021911438167 0.0048296693697 0.0083561773582 0.012642195255 0.017564851561 0.023019742877 0.028923634801 
0.035207749238 0.041805921405 0.048643272175 0.055629968653 0.062662210102 0.069629877198 0.076427889797 0.082966934202 0.089179850994 
0.095022626546 0.10047173153 0.10552020557 0.11017309842 0.11444098446 0.11833130873 0.1218412819 0.12495783282 0.12766579272 
0.12995957702 0.13185191127 0.13337465856 0.13457013285 0.13547743807 0.13612442862 0.13653574167 0.13676697201 0.13721877884 
0.1382029409 0.13926337606 0.13999987644 0.14012201613 0.13939158496 0.13760399314 0.13461180473 0.13035904681 0.12491940003 
0.11852493963 0.11156496932 0.10452916088 0.097877583511 0.091902836993 0.086721393904 0.082352102544 0.078762924268 0.07588298544 
0.073610339725 0.071824169967 0.070391391463 0.069198994196 0.068208657816 0.067444767057 0.066965950452 0.066844942192 0.067002904451 
0.067151200419 0.067032000374 0.066520404293 0.065601254231 0.064324704588 0.06277129972 0.06103017849 0.059179646653 0.057271827938 
0.055336302286 0.053401306648 0.051513368112 0.049742713977 0.048173877865 0.046888802226 0.045948945257 0.045378082649 0.045147088318 
0.045166399516 0.04529362253 0.045357617149 0.045187376866 0.044629969803 0.043554749304 0.041853441233 0.039446562434 0.036299623296 
0.032443853963 0.027991166933 0.02313455663 0.018131414527 0.013273972807 0.0088550078686 0.0051372214845 0.0023321435728 0.00059027272701 
1.228891507e-17 
