# vtk DataFile Version 5.1
vtk output
ASCII
DATASET POLYDATA
POINTS 100 float
0.165641 0.0449887 0.643105 0.165355 0.0451523 0.643056 0.164582 0.0455366 0.642783 
0.163372 0.0461237 0.642273 0.161808 0.0468854 0.64151 0.159986 0.0477857 0.640464 
0.158008 0.0487837 0.639099 0.155967 0.0498375 0.637365 0.153936 0.050907 0.635203 
0.151962 0.051957 0.632543 0.150054 0.0529591 0.629309 0.148191 0.0538925 0.625419 
0.146322 0.0547444 0.620799 0.144373 0.0555088 0.615376 0.142261 0.0561853 0.609098 
0.139899 0.0567768 0.601929 0.137215 0.0572884 0.593858 0.13415 0.0577248 0.584904 
0.13067 0.0580901 0.575112 0.126764 0.0583866 0.564551 0.122438 0.0586154 0.553317 
0.117716 0.0587767 0.541519 0.112626 0.0588709 0.529274 0.107195 0.0588993 0.516703 
0.101439 0.0588653 0.503916 0.0953604 0.0587743 0.491011 0.0889467 0.0586339 0.478069 
0.0821706 0.0584528 0.465145 0.0749972 0.0582398 0.452273 0.0673916 0.058002 0.439465 
0.0593284 0.0577438 0.426713 0.0508006 0.0574654 0.413995 0.0418272 0.0571622 0.40128 
0.0324569 0.0568256 0.388532 0.0227679 0.0564434 0.375714 0.0128633 0.0560028 0.362791 
0.0028631 0.0554924 0.34973 -0.0071079 0.0549057 0.3365 -0.0169322 0.0542436 0.323069 
-0.0265117 0.0535172 0.309403 -0.0357771 0.0527489 0.295459 -0.0446936 0.0519725 0.281186 
-0.0532601 0.0512316 0.266521 -0.0615044 0.050577 0.251389 -0.0694722 0.0500624 0.235708 
-0.0772129 0.0497398 0.21939 -0.084763 0.0496541 0.20235 -0.0921304 0.0498387 0.184512 
-0.0992817 0.0503116 0.165819 -0.106134 0.0510735 0.14624 -0.112555 0.0521072 0.125777 
-0.118367 0.0533796 0.104469 -0.123363 0.0548448 0.0823906 -0.127325 0.056449 0.0596561 
-0.130048 0.0581364 0.0364082 -0.131362 0.0598547 0.0128116 -0.131159 0.0615599 -0.0109582 
-0.129405 0.0632204 -0.0347272 -0.126155 0.0648186 -0.0583355 -0.121547 0.0663506 -0.0816485 
-0.1158 0.0678233 -0.104566 -0.109191 0.0692506 -0.127028 -0.102032 0.070647 -0.149017 
-0.0946376 0.0720217 -0.170555 -0.0872948 0.0733724 -0.191696 -0.0802348 0.0746809 -0.212522 
-0.0736092 0.0759096 -0.233123 -0.0674753 0.0770012 -0.253591 -0.0617925 0.0778811 -0.274004 
-0.0564286 0.0784618 -0.294414 -0.0511769 0.0786496 -0.314839 -0.0457812 0.0783529 -0.335258 
-0.0399663 0.0774907 -0.355611 -0.0334709 0.0760006 -0.375797 -0.0260776 0.0738458 -0.395686 
-0.0176392 0.0710193 -0.415126 -0.00809604 0.0675456 -0.433957 0.00251559 0.0634798 -0.452018 
0.0140655 0.0589035 -0.469168 0.0263413 0.0539185 -0.485288 0.0390675 0.0486391 -0.500296 
0.0519309 0.0431836 -0.514148 0.0646076 0.0376661 -0.526841 0.0767897 0.0321896 -0.538408 
0.0882086 0.0268403 -0.548916 0.0986523 0.0216858 -0.558455 0.107976 0.0167736 -0.567128 
0.116106 0.0121336 -0.575042 0.123035 0.00778177 -0.582294 0.12881 0.00372475 -0.588966 
0.133523 -3.48496e-05 -0.595116 0.137295 -0.00349365 -0.600773 0.140259 -0.0066438 -0.60594 
0.142545 -0.00947078 -0.610592 0.144276 -0.0119529 -0.614686 0.145555 -0.0140628 -0.618162 
0.146466 -0.0157698 -0.620957 0.147069 -0.0170434 -0.623008 0.147408 -0.0178573 -0.624265 
0.147507 -0.0181929 -0.624694 
LINES 2 100
OFFSETS vtktypeint64
0 100 
CONNECTIVITY vtktypeint64
0 1 2 3 4 5 6 7 8 
9 10 11 12 13 14 15 16 17 
18 19 20 21 22 23 24 25 26 
27 28 29 30 31 32 33 34 35 
36 37 38 39 40 41 42 43 44 
45 46 47 48 49 50 51 52 53 
54 55 56 57 58 59 60 61 62 
63 64 65 66 67 68 69 70 71 
72 73 74 75 76 77 78 79 80 
81 82 83 84 85 86 87 88 89 
90 91 92 93 94 95 96 97 98 
99 
POINT_DATA 100
FIELD FieldData 3
_theta 1 100 double
0 0.031733259127 0.063466518254 0.095199777382 0.12693303651 0.15866629564 0.19039955476 0.22213281389 0.25386607302 
0.28559933214 0.31733259127 0.3490658504 0.38079910953 0.41253236865 0.44426562778 0.47599888691 0.50773214603 0.53946540516 
0.57119866429 0.60293192342 0.63466518254 0.66639844167 0.6981317008 0.72986495992 0.76159821905 0.79333147818 0.82506473731 
0.85679799643 0.88853125556 0.92026451469 0.95199777382 0.98373103294 1.0154642921 1.0471975512 1.0789308103 1.1106640695 
1.1423973286 1.1741305877 1.2058638468 1.237597106 1.2693303651 1.3010636242 1.3327968833 1.3645301425 1.3962634016 
1.4279966607 1.4597299198 1.491463179 1.5231964381 1.5549296972 1.5866629564 1.6183962155 1.6501294746 1.6818627337 
1.7135959929 1.745329252 1.7770625111 1.8087957702 1.8405290294 1.8722622885 1.9039955476 1.9357288068 1.9674620659 
1.999195325 2.0309285841 2.0626618433 2.0943951024 2.1261283615 2.1578616206 2.1895948798 2.2213281389 2.253061398 
2.2847946572 2.3165279163 2.3482611754 2.3799944345 2.4117276937 2.4434609528 2.4751942119 2.506927471 2.5386607302 
2.5703939893 2.6021272484 2.6338605076 2.6655937667 2.6973270258 2.7290602849 2.7607935441 2.7925268032 2.8242600623 
2.8559933214 2.8877265806 2.9194598397 2.9511930988 2.982926358 3.0146596171 3.0463928762 3.0781261353 3.1098593945 
3.1415926536 
_radius 1 100 double
6.3368477448e-16 0.014986593041 0.029846967279 0.044461176374 0.058717275186 0.07251389919 0.085761917878 0.098385521586 0.11032317965 
0.12152874489 0.13197267644 0.14164305829 0.15054591196 0.15870427767 0.16615567799 0.17294789962 0.17913350435 0.18476395393 
0.18988448277 0.1945307513 0.19872791867 0.20249225774 0.20583497133 0.20876755488 0.21130787934 0.2134860518 0.21534896973 
0.21696234145 0.21840896441 0.21978246492 0.22117662336 0.22267164568 0.22431978835 0.22613307645 0.2280753248 0.23005962182 
0.2319514228 0.23357680111 0.23473524336 0.23521638521 0.23481994603 0.23337766281 0.23077534151 0.22697251414 0.22201686538 
0.21605065906 0.20930682508 0.20209321004 0.19476500183 0.18768777578 0.18119664733 0.17555926456 0.170950239 0.16744202621 
0.16501348757 0.16357277285 0.16298583816 0.16309907467 0.16374852329 0.16475746475 0.1659316395 0.16706173333 0.16793690167 
0.16836606692 0.16820024564 0.16735011727 0.16579603415 0.16359012315 0.16085096093 0.15775094198 0.15449672084 0.15130546126 
0.14838152706 0.14589682762 0.14397635794 0.14269046163 0.1420545769 0.14203514582 0.14255847446 0.1435187681 0.14478261266 
0.14618936402 0.14754934097 0.14864338732 0.14922740972 0.14904366082 0.14783763863 0.14537706116 0.14146867668 0.13596984149 
0.12879398957 0.11991110187 0.10934522824 0.097170965638 0.083509996228 0.068527848722 0.052430359061 0.03545905929 0.017884885007 
6.6061075538e-16 
_area 1 100 double
0 0.00046311911972 0.0018456728757 0.0041257849159 0.0072627477284 0.011192621037 0.015825186711 0.021043866561 0.026709265673 
0.032665894499 0.038750883123 0.044803589472 0.050675806984 0.056242922615 0.061415954493 0.066152926507 0.070466354555 0.074422565351 
0.078128854858 0.081707267095 0.0852600255 0.088839051262 0.092433355647 0.095979526826 0.099389856791 0.10258859201 0.10554740784 
0.10831121166 0.11100413128 0.1138068174 0.11690630986 0.12043572474 0.12443362503 0.12884389804 0.13356694971 0.13867781489 
0.14397571179 0.1487928408 0.15272538648 0.15541228919 0.1565327423 0.15583550013 0.15317621777 0.14855515689 0.14214516681 
0.13429862667 0.12552656466 0.11644892319 0.10771559169 0.099897008605 0.093359904652 0.088191436392 0.084248920067 0.081293452849 
0.079081319851 0.077390381828 0.076039857297 0.074924231704 0.074032546455 0.07344544792 0.073244544326 0.073226372499 0.072972632011 
0.072120068452 0.070462463471 0.067970358196 0.064792008273 0.061201459599 0.057533741989 0.054123134938 0.051249283419 0.049116983616 
0.047828735094 0.047136335982 0.046793998684 0.046671114316 0.046679591706 0.046752615301 0.046836033507 0.046882434745 0.046844560779 
0.046669735706 0.046298779384 0.045670456786 0.044729119894 0.043431788369 0.041751833596 0.03967818191 0.03721021523 0.034349735701 
0.031094332691 0.027440348357 0.023402307713 0.019046149287 0.014522507187 0.010082047553 0.0060599790593 0.0028285411601 0.00072869170658 
5.8126785665e-17 
