# vtk DataFile Version 5.1
vtk output
ASCII
DATASET POLYDATA
POINTS 100 float
0.0968396 0.0329692 0.730838 0.0968328 0.0333794 0.729993 0.0968811 0.0344643 0.727441 
0.0969726 0.0361437 0.723334 0.0970861 0.0382949 0.717906 0.097191 0.0407653 0.711448 
0.0972473 0.0433879 0.704278 0.097206 0.0459981 0.696701 0.097011 0.048449 0.688985 
0.096601 0.0506239 0.681328 0.0959142 0.0524446 0.673847 0.0948916 0.0538745 0.666565 
0.0934828 0.0549166 0.659422 0.0916497 0.055607 0.652287 0.0893704 0.0560045 0.64498 
0.0866413 0.0561791 0.6373 0.0834769 0.0561992 0.629054 0.079908 0.0561215 0.620084 
0.0759777 0.0559834 0.610285 0.0717354 0.055799 0.59962 0.0672305 0.0555599 0.58812 
0.062506 0.0552399 0.575881 0.0575927 0.0548025 0.563046 0.0525053 0.0542103 0.549786 
0.0472414 0.0534352 0.536275 0.0417832 0.0524663 0.522668 0.0361012 0.0513163 0.509084 
0.0301613 0.0500234 0.495584 0.0239329 0.0486497 0.482174 0.0173964 0.0472758 0.4688 
0.0105512 0.0459918 0.455361 0.00342039 0.0448876 0.441723 -0.00394709 0.0440414 0.427736 
-0.0114782 0.0435106 0.413257 -0.019081 0.0433245 0.398167 -0.0266529 0.0434811 0.382383 
-0.0340917 0.0439479 0.365868 -0.041306 0.0446666 0.34863 -0.0482261 0.0455612 0.330717 
-0.054812 0.0465491 0.312208 -0.061057 0.0475525 0.293196 -0.0669875 0.0485089 0.273771 
-0.0726576 0.0493803 0.254009 -0.0781393 0.0501584 0.233957 -0.0835087 0.0508658 0.213627 
-0.0888316 0.0515531 0.192996 -0.0941481 0.0522923 0.172014 -0.0994601 0.0531665 0.150607 
-0.104723 0.0542593 0.128699 -0.109842 0.0556427 0.106221 -0.114677 0.0573675 0.0831287 
-0.119051 0.0594556 0.0594134 -0.122764 0.0618964 0.0351089 -0.125615 0.0646469 0.0102925 
-0.127418 0.0676358 -0.0149187 -0.128026 0.0707708 -0.0403779 -0.127344 0.0739476 -0.0659216 
-0.125339 0.0770602 -0.0913848 -0.122047 0.0800105 -0.116617 -0.117567 0.0827153 -0.141493 
-0.112049 0.0851118 -0.165926 -0.105679 0.0871583 -0.189868 -0.0986608 0.0888331 -0.21331 
-0.0911886 0.0901289 -0.236276 -0.0834314 0.0910472 -0.258811 -0.0755155 0.0915901 -0.280971 
-0.067515 0.0917542 -0.302806 -0.0594497 0.0915249 -0.32435 -0.0512908 0.0908744 -0.345612 
-0.0429738 0.0897619 -0.366568 -0.0344163 0.0881372 -0.387166 -0.0255392 0.0859472 -0.407326 
-0.016288 0.0831442 -0.426949 -0.00665066 0.0796939 -0.445931 0.00332948 0.0755846 -0.464175 
0.0135484 0.0708326 -0.481597 0.0238442 0.0654862 -0.498143 0.0340081 0.0596258 -0.513789 
0.0438025 0.0533604 -0.528545 0.0529833 0.0468212 -0.542452 0.0613248 0.0401525 -0.555577 
0.0686426 0.0335011 -0.567998 0.0748136 0.0270059 -0.5798 0.0797879 0.0207885 -0.591061 
0.0835936 0.0149459 -0.601842 0.0863323 0.00954608 -0.612181 0.0881666 0.0046268 -0.622091 
0.0893009 0.000198037 -0.631556 0.0899577 -0.00375338 -0.64054 0.0903533 -0.00725699 -0.648988 
0.0906754 -0.0103511 -0.656834 0.0910643 -0.0130756 -0.664012 0.0916029 -0.0154654 -0.670456 
0.0923129 -0.0175466 -0.676114 0.0931601 -0.0193339 -0.680944 0.0940672 -0.0208313 -0.684918 
0.0949307 -0.022034 -0.688018 0.0956415 -0.0229317 -0.690236 0.0961048 -0.0235129 -0.691572 
0.0962563 -0.023768 -0.692024 
LINES 2 100
OFFSETS vtktypeint64
0 100 
CONNECTIVITY vtktypeint64
0 1 2 3 4 5 6 7 8 
9 10 11 12 13 14 15 16 17 
18 19 20 21 22 23 24 25 26 
27 28 29 30 31 32 33 34 35 
36 37 38 39 40 41 42 43 44 
45 46 47 48 49 50 51 52 53 
54 55 56 57 58 59 60 61 62 
63 64 65 66 67 68 69 70 71 
72 73 74 75 76 77 78 79 80 
81 82 83 84 85 86 87 88 89 
90 91 92 93 94 95 96 97 98 
99 
POINT_DATA 100
FIELD FieldData 3
_theta 1 100 double
0 0.031733259127 0.063466518254 0.095199777382 0.12693303651 0.15866629564 0.19039955476 0.22213281389 0.25386607302 
0.28559933214 0.31733259127 0.3490658504 0.38079910953 0.41253236865 0.44426562778 0.47599888691 0.50773214603 0.53946540516 
0.57119866429 0.60293192342 0.63466518254 0.66639844167 0.6981317008 0.72986495992 0.76159821905 0.79333147818 0.82506473731 
0.85679799643 0.88853125556 0.92026451469 0.95199777382 0.98373103294 1.0154642921 1.0471975512 1.0789308103 1.1106640695 
1.1423973286 1.1741305877 1.2058638468 1.237597106 1.2693303651 1.3010636242 1.3327968833 1.3645301425 1.3962634016 
1.4279966607 1.4597299198 1.491463179 1.5231964381 1.5549296972 1.5866629564 1.6183962155 1.6501294746 1.6818627337 
1.7135959929 1.745329252 1.7770625111 1.8087957702 1.8405290294 1.8722622885 1.9039955476 1.9357288068 1.9674620659 
1.999195325 2.0309285841 2.0626618433 2.0943951024 2.1261283615 2.1578616206 2.1895948798 2.2213281389 2.253061398 
2.2847946572 2.3165279163 2.3482611754 2.3799944345 2.4117276937 2.4434609528 2.4751942119 2.506927471 2.5386607302 
2.5703939893 2.6021272484 2.6338605076 2.6655937667 2.6973270258 2.7290602849 2.7607935441 2.7925268032 2.8242600623 
2.8559933214 2.8877265806 2.9194598397 2.9511930988 2.982926358 3.0146596171 3.0463928762 3.0781261353 3.1098593945 
3.1415926536 
_radius 1 100 double
7.7876526597e-16 0.01284213397 0.025709200446 0.038619892408 0.051579937793 0.064576905083 0.077576811448 0.090523185525 0.10333901003 
0.11593156876 0.12819973412 0.14004276724 0.15136936916 0.16210560102 0.1722004357 0.18162810353 0.19038697081 0.19849530504 
0.20598479561 0.21289301326 0.21925607467 0.22510265971 0.23045027546 0.23530432834 0.23966017127 0.24350782604 0.24683855616 
0.24965196732 0.25196199057 0.25380012133 0.25521474286 0.25626622655 0.25701856911 0.25752926153 0.25783954922 0.25796708071 
0.25790226708 0.25760878476 0.2570278623 0.25608549323 0.25470156137 0.25279996978 0.25031906033 0.2472217144 0.24350444769 
0.23920461564 0.23440467783 0.22923244452 0.22385637021 0.21847527577 0.21330248064 0.20854539917 0.20438324677 0.20094714264 
0.19830748282 0.1964718833 0.19539334615 0.19498439804 0.19513126782 0.19570398018 0.1965624503 0.19756221641 0.19856350315 
0.19944395729 0.20011170975 0.20051422233 0.20063991001 0.20051232807 0.20017924278 0.19970001769 0.19913399297 0.1985308115 
0.19792255609 0.19731768207 0.19669727428 0.19601425356 0.19519567986 0.19414768471 0.19276223866 0.19092497966 0.18852344682 
0.18545504113 0.18163387014 0.17699553434 0.17149909886 0.16512602516 0.15787657449 0.14976485987 0.14081403369 0.13105291279 
0.12051473132 0.10923792197 0.097268161032 0.084660597842 0.071481289996 0.057807289513 0.043725379785 0.029329929123 0.014720532448 
1.5127025332e-15 
_area 1 100 double
0 0.00035016113703 0.0013997710671 0.0031470998788 0.0055914069077 0.0087337880866 0.012575150613 0.017110704883 0.022322114671 
0.028169771608 0.034587970236 0.041484985065 0.048748543492 0.056255568429 0.063884004327 0.07152441019 0.079089541832 0.086520563166 
0.093788288147 0.10088766244 0.10782526432 0.11460328935 0.1212063229 0.12759598968 0.1337145523 0.1394953257 0.14487641971 
0.14981382466 0.15428906277 0.15830470411 0.16186561327 0.16496640625 0.1676093529 0.1698297415 0.17169211186 0.17325796755 
0.17454630169 0.17550637573 0.17601276818 0.17588245504 0.17490853219 0.17290399371 0.16974664828 0.16541418197 0.16000027928 
0.15370773287 0.1468201521 0.13965964025 0.13254299899 0.12575025374 0.11951257806 0.11401331321 0.10938303023 0.10566856436 
0.10278994173 0.10055186239 0.098727601222 0.097146866284 0.095743513043 0.094452376323 0.093148685444 0.091796036719 0.090481074773 
0.089363080226 0.088522184833 0.087856832929 0.087210050959 0.086460243005 0.085513202982 0.084293442691 0.082754707688 0.080894843247 
0.078761860721 0.076450063212 0.07409360722 0.071864097957 0.069966106652 0.068597363035 0.067832897844 0.067519537344 0.067345638408 
0.066986624835 0.066177622597 0.064728899023 0.062524981385 0.05952102331 0.055737550509 0.051252155527 0.046187364626 0.040695888939 
0.034946539804 0.029114403522 0.023376546658 0.017911134497 0.012896150085 0.0085049377249 0.0048982260554 0.0022142550356 0.00055925447588 
2.5614171265e-17 
