# vtk DataFile Version 5.1
vtk output
ASCII
DATASET POLYDATA
POINTS 100 float
0.190099 0.0399848 0.684995 0.190054 0.0400857 0.684983 0.189991 0.0402751 0.684856 
0.189889 0.0405788 0.684574 0.189719 0.0410347 0.684076 0.189443 0.0416858 0.683278 
0.189025 0.0425711 0.682079 0.18843 0.0437175 0.680368 0.187633 0.0451316 0.678029 
0.186617 0.0467954 0.674949 0.185372 0.0486641 0.671028 0.183899 0.0506689 0.666182 
0.182197 0.0527218 0.66036 0.180265 0.0547245 0.65354 0.178093 0.056578 0.645739 
0.175656 0.0581939 0.637015 0.172913 0.0595032 0.627459 0.169808 0.0604641 0.617194 
0.166266 0.0610657 0.606365 0.162208 0.0613283 0.595128 0.157548 0.0612999 0.583637 
0.152213 0.0610489 0.572029 0.146142 0.060655 0.560417 0.139305 0.0601988 0.548879 
0.131701 0.059751 0.537451 0.123369 0.0593643 0.526128 0.11438 0.0590676 0.514866 
0.104839 0.058863 0.503588 0.0948746 0.058728 0.492199 0.084628 0.0586193 0.480595 
0.074242 0.058481 0.468676 0.0638486 0.0582532 0.456358 0.0535585 0.0578814 0.443586 
0.0434535 0.0573248 0.430332 0.0335828 0.0565626 0.416602 0.0239632 0.0555973 0.402432 
0.0145837 0.0544545 0.387876 0.00541295 0.05318 0.372997 -0.0035898 0.0518337 0.357858 
-0.0124641 0.0504826 0.342503 -0.0212375 0.0491926 0.326952 -0.0299171 0.0480215 0.311192 
-0.0384845 0.0470131 0.295174 -0.046894 0.0461946 0.278818 -0.0550751 0.0455758 0.262017 
-0.0629391 0.0451525 0.244648 -0.0703872 0.0449105 0.226592 -0.0773212 0.0448322 0.207742 
-0.0836532 0.0449031 0.188023 -0.0893149 0.0451177 0.167402 -0.0942631 0.0454832 0.145894 
-0.0984835 0.046021 0.123566 -0.101989 0.0467656 0.100537 -0.104819 0.0477607 0.0769637 
-0.107027 0.0490526 0.0530353 -0.108681 0.0506829 0.0289533 -0.10985 0.0526813 0.00491801 
-0.110601 0.0550584 -0.018887 -0.110991 0.0578014 -0.0423078 -0.111071 0.0608723 -0.0652288 
-0.110882 0.0642088 -0.0875771 -0.110463 0.0677291 -0.109322 -0.109851 0.0713378 -0.13047 
-0.109093 0.0749347 -0.151059 -0.108244 0.0784229 -0.171143 -0.107373 0.0817166 -0.19079 
-0.106563 0.084747 -0.210065 -0.105903 0.0874649 -0.229027 -0.10548 0.0898407 -0.247725 
-0.105374 0.0918612 -0.266196 -0.105638 0.0935237 -0.284467 -0.106292 0.0948288 -0.30256 
-0.107311 0.095773 -0.3205 -0.108623 0.096342 -0.338312 -0.110103 0.0965065 -0.356034 
-0.111584 0.0962212 -0.373709 -0.112866 0.095427 -0.391391 -0.113733 0.0940572 -0.409131 
-0.113975 0.0920462 -0.426976 -0.113411 0.0893403 -0.444955 -0.111903 0.0859082 -0.463069 
-0.109383 0.0817512 -0.481287 -0.105855 0.0769102 -0.499533 -0.101403 0.0714685 -0.51769 
-0.0961862 0.0655503 -0.5356 -0.0904258 0.059315 -0.553074 -0.0843845 0.0529458 -0.569901 
-0.0783433 0.0466366 -0.585862 -0.0725748 0.0405768 -0.600754 -0.067318 0.0349357 -0.614394 
-0.0627571 0.0298498 -0.626644 -0.0590066 0.0254131 -0.637411 -0.0561048 0.021673 -0.64666 
-0.054016 0.0186304 -0.654403 -0.0526417 0.0162461 -0.660699 -0.0518386 0.0144514 -0.665639 
-0.0514416 0.0131614 -0.669328 -0.0512891 0.0122901 -0.671874 -0.0512458 0.0117649 -0.673366 
-0.051223 0.0115378 -0.673863 
LINES 2 100
OFFSETS vtktypeint64
0 100 
CONNECTIVITY vtktypeint64
0 1 2 3 4 5 6 7 8 
9 10 11 12 13 14 15 16 17 
18 19 20 21 22 23 24 25 26 
27 28 29 30 31 32 33 34 35 
36 37 38 39 40 41 42 43 44 
45 46 47 48 49 50 51 52 53 
54 55 56 57 58 59 60 61 62 
63 64 65 66 67 68 69 70 71 
72 73 74 75 76 77 78 79 80 
81 82 83 84 85 86 87 88 89 
90 91 92 93 94 95 96 97 98 
99 
POINT_DATA 100
FIELD FieldData 3
_theta 1 100 double
0 0.031733259127 0.063466518254 0.095199777382 0.12693303651 0.15866629564 0.19039955476 0.22213281389 0.25386607302 
0.28559933214 0.31733259127 0.3490658504 0.38079910953 0.41253236865 0.44426562778 0.47599888691 0.50773214603 0.53946540516 
0.57119866429 0.60293192342 0.63466518254 0.66639844167 0.6981317008 0.72986495992 0.76159821905 0.79333147818 0.82506473731 
0.85679799643 0.88853125556 0.92026451469 0.95199777382 0.98373103294 1.0154642921 1.0471975512 1.0789308103 1.1106640695 
1.1423973286 1.1741305877 1.2058638468 1.237597106 1.2693303651 1.3010636242 1.3327968833 1.3645301425 1.3962634016 
1.4279966607 1.4597299198 1.491463179 1.5231964381 1.5549296972 1.5866629564 1.6183962155 1.6501294746 1.6818627337 
1.7135959929 1.745329252 1.7770625111 1.8087957702 1.8405290294 1.8722622885 1.9039955476 1.9357288068 1.9674620659 
1.999195325 2.0309285841 2.0626618433 2.0943951024 2.1261283615 2.1578616206 2.1895948798 2.2213281389 2.253061398 
2.2847946572 2.3165279163 2.3482611754 2.3799944345 2.4117276937 2.4434609528 2.4751942119 2.506927471 2.5386607302 
2.5703939893 2.6021272484 2.6338605076 2.6655937667 2.6973270258 2.7290602849 2.7607935441 2.7925268032 2.8242600623 
2.8559933214 2.8877265806 2.9194598397 2.9511930988 2.982926358 3.0146596171 3.0463928762 3.0781261353 3.1098593945 
3.1415926536 
_radius 1 100 double
6.6901877334e-16 0.01427550035 0.028456416956 0.04244763021 0.056151836931 0.069469346246 0.082299024142 0.094540786888 0.10609983411 
0.11689244778 0.12685274539 0.13593937389 0.14414086967 0.15147836901 0.15800460038 0.16379865966 0.16895692374 0.1735814181 
0.17776771036 0.18159463484 0.1851177399 0.18836743988 0.19135178172 0.19406283025 0.19648514101 0.19860465679 0.20041651602 
0.20193054532 0.20317357383 0.20418819843 0.20502822635 0.20575156626 0.20641165772 0.20704858334 0.20768089904 0.20829909076 
0.20886151265 0.20929367498 0.20949171593 0.20933063527 0.20867727026 0.20740710407 0.20542303861 0.20267352388 0.19916712795 
0.19498082656 0.19025994747 0.18520874527 0.18007200041 0.17510989847 0.17057058031 0.16666620538 0.16355755841 0.16134855634 
0.16008739084 0.1597687845 0.1603336697 0.16166716036 0.16359962844 0.16591594165 0.16837411279 0.17072975262 0.17276030287 
0.17428384436 0.17516972807 0.17534065083 0.17476745498 0.17345918622 0.1714521549 0.16880183858 0.16557881941 0.16186649537 
0.15775787752 0.15335090975 0.14874337414 0.14402857144 0.13929234238 0.13461142101 0.130052937 0.12567505182 0.12152871355 
0.1176595878 0.11410752296 0.11090022134 0.10803962381 0.10548327455 0.10312676957 0.10079521628 0.098249485463 0.095207248549 
0.091373319761 0.086472347928 0.080278764255 0.072641180462 0.063499710489 0.052895248606 0.04097017921 0.027960562133 0.014180496091 
8.5012108421e-16 
_area 1 100 double
0 0.00038380333552 0.0015367118681 0.003460965963 0.006152726112 0.0095912939294 0.013726700155 0.018469419483 0.023686138755 
0.029204350135 0.034826442149 0.04035148783 0.04560076985 0.050441873284 0.054806265168 0.058696565719 0.062181702552 0.065380225559 
0.068433913409 0.071475784365 0.074599873022 0.077843729213 0.081192299983 0.08460080658 0.088023227083 0.091429443518 0.094799839257 
0.098105815651 0.10130192933 0.10433843451 0.10717835289 0.10980668715 0.11223050506 0.11447187205 0.11655640444 0.11850042894 
0.12029848568 0.12191201072 0.12326155207 0.12422654656 0.12465375552 0.1243708322 0.1232033885 0.12099927718 0.11766143906 
0.11318156254 0.10766253001 0.10132134845 0.094471095004 0.087489414234 0.080807572231 0.075218361904 0.071366222252 0.068632006507 
0.06673420023 0.065554286092 0.065033695658 0.065133512494 0.06570712647 0.066315560166 0.066773561431 0.06661780088 0.065673114181 
0.063902058709 0.061448589606 0.058889780878 0.056594420651 0.054531578908 0.05288983904 0.0516022916 0.050478759536 0.049197060569 
0.047603435973 0.04573892486 0.043766300001 0.041920692559 0.040442511688 0.039230490666 0.038185821542 0.037172289867 0.036115137594 
0.034928585441 0.033569485366 0.032065822543 0.030474091181 0.028842714114 0.027187125306 0.025486880926 0.023693591393 0.021743218343 
0.019575584801 0.017157484047 0.014500725904 0.011671375683 0.0087909469171 0.0060288462904 0.0035842003079 0.0016585504174 0.00042492720625 
1.5911733407e-17 
