# vtk DataFile Version 5.1
vtk output
ASCII
DATASET POLYDATA
POINTS 100 float
0.122761 0.047428 0.729565 0.122871 0.0477709 0.729237 0.123265 0.0486164 0.728117 
0.123873 0.0499104 0.726263 0.124584 0.05157 0.723765 0.125262 0.0534917 0.720726 
0.125759 0.0555622 0.717253 0.12593 0.0576682 0.713436 0.125648 0.0597064 0.709333 
0.124818 0.0615915 0.704965 0.123384 0.0632605 0.700309 0.121331 0.0646748 0.695303 
0.118685 0.0658186 0.689851 0.115507 0.0666939 0.683839 0.11188 0.0673154 0.677151 
0.107898 0.0677022 0.669688 0.103652 0.0678725 0.661378 0.0992166 0.0678376 0.652192 
0.0946417 0.0675991 0.642148 0.0899444 0.0671491 0.631312 0.0851092 0.0664723 0.619785 
0.0800909 0.0655507 0.6077 0.074822 0.0643697 0.595196 0.0692241 0.0629242 0.582409 
0.0632202 0.0612245 0.56945 0.0567477 0.0593 0.556397 0.0497694 0.0572004 0.543282 
0.0422814 0.0549936 0.530094 0.034317 0.0527619 0.516782 0.0259453 0.0505943 0.503266 
0.0172657 0.0485783 0.489447 0.00839807 0.0467915 0.475227 -0.000530282 0.0452931 0.460523 
-0.00939808 0.0441187 0.445274 -0.0181035 0.0432772 0.429456 -0.0265749 0.0427515 0.413076 
-0.034778 0.0425024 0.39617 -0.0427178 0.042476 0.378796 -0.0504355 0.0426122 0.361017 
-0.058 0.042855 0.342887 -0.0654953 0.0431614 0.32444 -0.0730055 0.0435094 0.305677 
-0.0805979 0.0439017 0.286559 -0.088308 0.0443671 0.267015 -0.0961272 0.0449571 0.246939 
-0.103995 0.0457393 0.226211 -0.111796 0.0467885 0.204711 -0.119366 0.0481756 0.182333 
-0.126501 0.0499568 0.159008 -0.132973 0.0521647 0.134716 -0.138547 0.0548015 0.109491 
-0.143005 0.0578358 0.0834271 -0.146162 0.061204 0.0566667 -0.147886 0.0648152 0.0293925 
-0.148111 0.0685597 0.0018072 -0.146838 0.0723192 -0.0258865 -0.144143 0.0759782 -0.0535065 
-0.140163 0.0794347 -0.0809086 -0.135086 0.0826081 -0.107999 -0.129133 0.085445 -0.134738 
-0.122538 0.0879195 -0.161141 -0.115525 0.0900314 -0.187263 -0.10829 0.091799 -0.213185 
-0.100984 0.0932504 -0.238997 -0.0937063 0.0944135 -0.264769 -0.0864936 0.0953058 -0.290541 
-0.0793282 0.0959259 -0.316302 -0.0721437 0.0962488 -0.341986 -0.0648401 0.0962239 -0.367472 
-0.0573 0.0957783 -0.392593 -0.0494086 0.0948228 -0.41715 -0.0410711 0.0932624 -0.440938 
-0.0322291 0.0910074 -0.463759 -0.0228722 0.0879859 -0.485454 -0.0130438 0.084155 -0.505911 
-0.00284207 0.0795087 -0.525084 0.00758633 0.0740829 -0.542989 0.0180565 0.0679559 -0.5597 
0.02836 0.0612443 -0.575337 0.0382819 0.0540953 -0.590046 0.0476181 0.0466754 -0.603976 
0.0561909 0.0391583 -0.617253 0.0638625 0.0317121 -0.629969 0.0705434 0.0244875 -0.64216 
0.0761966 0.0176091 -0.653806 0.0808365 0.0111697 -0.664832 0.0845236 0.00522879 -0.675119 
0.0873548 -0.000186334 -0.684527 0.089452 -0.00507496 -0.692912 0.0909496 -0.00945615 -0.700153 
0.0919818 -0.0133605 -0.70617 0.0926723 -0.016822 -0.710944 0.0931264 -0.0198716 -0.714524 
0.0934268 -0.0225318 -0.71702 0.0936315 -0.0248147 -0.718603 0.0937768 -0.026722 -0.719477 
0.0938805 -0.0282469 -0.719862 0.093948 -0.0293776 -0.719963 0.0939784 -0.0301015 -0.71995 
0.0939688 -0.0304087 -0.719931 
LINES 2 100
OFFSETS vtktypeint64
0 100 
CONNECTIVITY vtktypeint64
0 1 2 3 4 5 6 7 8 
9 10 11 12 13 14 15 16 17 
18 19 20 21 22 23 24 25 26 
27 28 29 30 31 32 33 34 35 
36 37 38 39 40 41 42 43 44 
45 46 47 48 49 50 51 52 53 
54 55 56 57 58 59 60 61 62 
63 64 65 66 67 68 69 70 71 
72 73 74 75 76 77 78 79 80 
81 82 83 84 85 86 87 88 89 
90 91 92 93 94 95 96 97 98 
99 
POINT_DATA 100
FIELD FieldData 3
_theta 1 100 double
0 0.031733259127 0.063466518254 0.095199777382 0.12693303651 0.15866629564 0.19039955476 0.22213281389 0.25386607302 
0.28559933214 0.31733259127 0.3490658504 0.38079910953 0.41253236865 0.44426562778 0.47599888691 0.50773214603 0.53946540516 
0.57119866429 0.60293192342 0.63466518254 0.66639844167 0.6981317008 0.72986495992 0.76159821905 0.79333147818 0.82506473731 
0.85679799643 0.88853125556 0.92026451469 0.95199777382 0.98373103294 1.0154642921 1.0471975512 1.0789308103 1.1106640695 
1.1423973286 1.1741305877 1.2058638468 1.237597106 1.2693303651 1.3010636242 1.3327968833 1.3645301425 1.3962634016 
1.4279966607 1.4597299198 1.491463179 1.5231964381 1.5549296972 1.5866629564 1.6183962155 1.6501294746 1.6818627337 
1.7135959929 1.745329252 1.7770625111 1.8087957702 1.8405290294 1.8722622885 1.9039955476 1.9357288068 1.9674620659 
1.999195325 2.0309285841 2.0626618433 2.0943951024 2.1261283615 2.1578616206 2.1895948798 2.2213281389 2.253061398 
2.2847946572 2.3165279163 2.3482611754 2.3799944345 2.4117276937 2.4434609528 2.4751942119 2.506927471 2.5386607302 
2.5703939893 2.6021272484 2.6338605076 2.6655937667 2.6973270258 2.7290602849 2.7607935441 2.7925268032 2.8242600623 
2.8559933214 2.8877265806 2.9194598397 2.9511930988 2.982926358 3.0146596171 3.0463928762 3.0781261353 3.1098593945 
3.1415926536 
_radius 1 100 double
4.5712514585e-16 0.014513186766 0.029005041259 0.043443356485 0.057786994789 0.07198337204 0.085967958586 0.099666055847 0.11299658529 
0.12587714863 0.13822938657 0.14998374647 0.16108308184 0.17148486731 0.18116204108 0.19010252393 0.19830742696 0.20578803643 
0.21256193625 0.21864899943 0.22406825647 0.22883664955 0.23297031622 0.23648835649 0.23941820514 0.24180102079 0.24369517502 
0.24517615591 0.2463320192 0.24725473268 0.24802895806 0.24872054729 0.24936705144 0.24997190688 0.25050296575 0.25089507029 
0.25105579044 0.25087339913 0.25022650287 0.24899513362 0.24707321294 0.24438199176 0.24088346031 0.23659204473 0.23158238481 
0.22599081216 0.22000855004 0.2138658961 0.20780881534 0.20207199175 0.19685426716 0.19230217276 0.1885045714 0.18549750339 
0.18327511836 0.18180131149 0.18101746817 0.18084414056 0.18117785787 0.18188730298 0.18281400864 0.18378074891 0.18460723972 
0.18512989342 0.18522132729 0.18480574178 0.1838674414 0.18245126647 0.18065527168 0.17861725062 0.17649735912 0.17445919721 
0.17265159507 0.17119313768 0.17016091206 0.1695838891 0.16944018798 0.16965706277 0.17011314564 0.17064357511 0.17104893753 
0.17110798801 0.17059271585 0.16928367269 0.16698386558 0.16353027055 0.15880250088 0.15272828161 0.14528540539 0.13650001659 
0.12644142744 0.11521410186 0.10294781388 0.089787208715 0.075882030703 0.061379127081 0.0464170061 0.031123272653 0.015614784956 
7.116389386e-16 
_area 1 100 double
0 0.00054590709721 0.0021787124116 0.0048810214849 0.0086170850769 0.013328172435 0.018932725172 0.025331665533 0.0324160365 
0.040072600637 0.048184088787 0.056624417025 0.065253461934 0.07391756207 0.082458983568 0.090732133088 0.098620237091 0.10604578692 
0.11297077821 0.11938688065 0.12529964682 0.13071359181 0.13562520496 0.14002786882 0.14392710806 0.14735885971 0.15040021511 
0.15316393455 0.15577572651 0.15834261735 0.16092470209 0.16351967857 0.16606373535 0.16844630052 0.17053095408 0.17217416857 
0.17323640847 0.17358529082 0.17309542981 0.17165215535 0.16916469312 0.16558790803 0.16094535315 0.15534466982 0.14897856111 
0.14210807705 0.13502961785 0.12803392394 0.12137135169 0.11523490185 0.1097600587 0.10502487799 0.10102209455 0.097642269471 
0.094756585372 0.092298318875 0.090254648111 0.088609991355 0.087298681837 0.086197369016 0.085162023209 0.084077876453 0.082912872169 
0.081733189574 0.080615475861 0.079501424919 0.078255789734 0.076770940399 0.07499497622 0.07294140518 0.070688842722 0.068366609496 
0.066130815926 0.064141319718 0.06254856569 0.061485567618 0.061042704627 0.061210394977 0.061844521042 0.062743762264 0.063716060111 
0.064573893927 0.065122497069 0.06516068825 0.06449334352 0.062950826824 0.060410829432 0.056819776572 0.052210078595 0.046707476852 
0.04052419488 0.033938349488 0.027264358324 0.020820799037 0.014901772511 0.0097563377412 0.0055783939007 0.0025065331418 0.00063056298864 
6.0328964615e-17 
