# vtk DataFile Version 5.1
vtk output
ASCII
DATASET POLYDATA
POINTS 100 float
0.154815 0.0475223 0.683919 0.154823 0.0477142 0.683955 0.15491 0.048152 0.68394 
0.155036 0.048812 0.683805 0.155142 0.0496583 0.683444 0.155151 0.0506462 0.682719 
0.15498 0.0517263 0.681479 0.154548 0.0528492 0.679568 0.153782 0.0539689 0.676842 
0.152622 0.0550466 0.673185 0.151024 0.0560522 0.668514 0.148965 0.0569652 0.662791 
0.146435 0.0577743 0.656022 0.143436 0.058475 0.648262 0.139976 0.0590676 0.639604 
0.136065 0.0595538 0.630173 0.131706 0.0599344 0.620116 0.126899 0.0602065 0.609586 
0.121634 0.0603629 0.598729 0.115898 0.0603912 0.587675 0.109674 0.0602754 0.576523 
0.102952 0.0599976 0.565339 0.0957347 0.0595408 0.554146 0.0880433 0.058892 0.542932 
0.0799228 0.0580449 0.531646 0.0714452 0.0570026 0.520212 0.0627082 0.0557788 0.508534 
0.0538313 0.0543982 0.496509 0.044948 0.0528958 0.484034 0.0361951 0.0513152 0.471021 
0.0277009 0.0497058 0.4574 0.0195729 0.0481198 0.443126 0.0118873 0.0466095 0.428179 
0.00468057 0.0452242 0.412565 -0.00205416 0.0440087 0.396309 -0.0083663 0.0430018 0.379451 
-0.0143421 0.0422364 0.36204 -0.0200944 0.0417395 0.344121 -0.025749 0.0415337 0.325734 
-0.0314289 0.0416381 0.306906 -0.0372383 0.0420688 0.287648 -0.0432485 0.0428399 0.267955 
-0.0494865 0.0439622 0.247809 -0.0559287 0.0454425 0.227182 -0.0624995 0.0472805 0.206045 
-0.0690761 0.0494666 0.184368 -0.0754979 0.0519787 0.162136 -0.0815799 0.0547798 0.139349 
-0.0871292 0.0578159 0.116025 -0.0919616 0.0610164 0.0922055 -0.0959175 0.064295 0.067954 
-0.0988749 0.0675535 0.0433501 -0.100758 0.0706867 0.0184868 -0.101542 0.0735892 -0.00653752 
-0.101251 0.0761627 -0.0316259 -0.0999514 0.0783234 -0.0566897 -0.0977439 0.0800094 -0.0816546 
-0.0947497 0.0811854 -0.106464 -0.0910973 0.081846 -0.131082 -0.0869094 0.0820161 -0.155489 
-0.0822928 0.0817479 -0.179683 -0.0773297 0.0811158 -0.203669 -0.0720744 0.0802083 -0.227457 
-0.0665529 0.0791185 -0.251052 -0.0607667 0.0779339 -0.274452 -0.0546995 0.0767264 -0.297635 
-0.0483251 0.075544 -0.320566 -0.0416172 0.0744048 -0.343189 -0.0345573 0.0732934 -0.365432 
-0.0271422 0.072162 -0.387213 -0.0193891 0.070934 -0.40844 -0.0113372 0.0695111 -0.429027 
-0.00304789 0.0677828 -0.448894 0.00539856 0.0656378 -0.467976 0.0139073 0.0629754 -0.48623 
0.0223749 0.0597161 -0.503634 0.0306952 0.0558118 -0.520191 0.0387649 0.0512511 -0.535924 
0.0464887 0.0460637 -0.550874 0.0537823 0.0403196 -0.565093 0.0605746 0.0341256 -0.578637 
0.0668087 0.0276188 -0.59156 0.0724417 0.0209573 -0.603907 0.0774441 0.0143095 -0.615707 
0.0817988 0.00784299 -0.626974 0.0855008 0.00171349 -0.637703 0.0885565 -0.00394453 -0.647873 
0.0909842 -0.0090256 -0.657451 0.0928145 -0.0134583 -0.666392 0.0940906 -0.0172075 -0.674652 
0.0948685 -0.020274 -0.682185 0.0952168 -0.0226913 -0.688952 0.0952145 -0.0245203 -0.694926 
0.0949492 -0.0258424 -0.700088 0.0945127 -0.0267512 -0.704432 0.0939961 -0.0273442 -0.707961 
0.0934851 -0.0277143 -0.710682 0.0930536 -0.027942 -0.71261 0.0927591 -0.0280892 -0.713755 
0.0926385 -0.0281944 -0.714127 
LINES 2 100
OFFSETS vtktypeint64
0 100 
CONNECTIVITY vtktypeint64
0 1 2 3 4 5 6 7 8 
9 10 11 12 13 14 15 16 17 
18 19 20 21 22 23 24 25 26 
27 28 29 30 31 32 33 34 35 
36 37 38 39 40 41 42 43 44 
45 46 47 48 49 50 51 52 53 
54 55 56 57 58 59 60 61 62 
63 64 65 66 67 68 69 70 71 
72 73 74 75 76 77 78 79 80 
81 82 83 84 85 86 87 88 89 
90 91 92 93 94 95 96 97 98 
99 
POINT_DATA 100
FIELD FieldData 3
_theta 1 100 double
0 0.031733259127 0.063466518254 0.095199777382 0.12693303651 0.15866629564 0.19039955476 0.22213281389 0.25386607302 
0.28559933214 0.31733259127 0.3490658504 0.38079910953 0.41253236865 0.44426562778 0.47599888691 0.50773214603 0.53946540516 
0.57119866429 0.60293192342 0.63466518254 0.66639844167 0.6981317008 0.72986495992 0.76159821905 0.79333147818 0.82506473731 
0.85679799643 0.88853125556 0.92026451469 0.95199777382 0.98373103294 1.0154642921 1.0471975512 1.0789308103 1.1106640695 
1.1423973286 1.1741305877 1.2058638468 1.237597106 1.2693303651 1.3010636242 1.3327968833 1.3645301425 1.3962634016 
1.4279966607 1.4597299198 1.491463179 1.5231964381 1.5549296972 1.5866629564 1.6183962155 1.6501294746 1.6818627337 
1.7135959929 1.745329252 1.7770625111 1.8087957702 1.8405290294 1.8722622885 1.9039955476 1.9357288068 1.9674620659 
1.999195325 2.0309285841 2.0626618433 2.0943951024 2.1261283615 2.1578616206 2.1895948798 2.2213281389 2.253061398 
2.2847946572 2.3165279163 2.3482611754 2.3799944345 2.4117276937 2.4434609528 2.4751942119 2.506927471 2.5386607302 
2.5703939893 2.6021272484 2.6338605076 2.6655937667 2.6973270258 2.7290602849 2.7607935441 2.7925268032 2.8242600623 
2.8559933214 2.8877265806 2.9194598397 2.9511930988 2.982926358 3.0146596171 3.0463928762 3.0781261353 3.1098593945 
3.1415926536 
_radius 1 100 double
4.200180745e-16 0.016042803589 0.03193328064 0.047521745321 0.062672740796 0.07727031277 0.091221360822 0.10445720753 0.11693382717 
0.12863121899 0.13955219885 0.14972054618 0.15917816435 0.16798084145 0.17619239069 0.18387736877 0.191093094 0.19788214594 
0.20426674526 0.21024626317 0.21579858442 0.22088527482 0.22545970682 0.22947670278 0.23290200037 0.23571993942 0.23793813555 
0.23958843504 0.24072404372 0.24141330929 0.2417311394 0.24174939022 0.24152770835 0.24110622096 0.24050114727 0.23970389871 
0.23868366033 0.23739295086 0.23577536368 0.23377461462 0.23134407115 0.22845597202 0.22510948534 0.22133662685 0.21720498325 
0.21281629266 0.20830032032 0.20380415466 0.19947796659 0.1954592345 0.19185814313 0.18874698388 0.18615571799 0.18407447467 
0.18246197165 0.18125721064 0.18039100424 0.17979445892 0.17940333495 0.17915925129 0.17900976725 0.17890895698 0.17881884178 
0.17871102319 0.1785676093 0.17838090351 0.17815190781 0.17788809664 0.17760094154 0.17730337735 0.17700708136 0.17671935528 
0.17643960566 0.17615577143 0.17584136387 0.17545392828 0.17493561407 0.17421611698 0.17321761526 0.17186068375 0.17006981983 
0.16777733461 0.16492490673 0.16146280691 0.15734739513 0.15253784576 0.14699318855 0.14067068767 0.13352629734 0.12551745405 
0.11660791105 0.10677386017 0.096010344705 0.084336975936 0.07180215769 0.058485290337 0.044496678675 0.029975076471 0.015082983612 
7.4971406926e-16 
_area 1 100 double
0 0.00053591127939 0.0021284652619 0.0047340032697 0.0082849484124 0.01269470964 0.017861011715 0.023667233514 0.02998285432 
0.036665000648 0.043563187956 0.050528637966 0.057428105076 0.06416025345 0.07067074413 0.076960843988 0.083084244362 0.08912899029 
0.095186976645 0.10132070545 0.10754011782 0.11379735719 0.11999875978 0.12602753505 0.13176785889 0.13712131744 0.14201179417 
0.14638216945 0.15018954955 0.15340384637 0.15601047948 0.1580146919 0.15944368218 0.16034340206 0.16076862996 0.16076697947 
0.160360424 0.15953290112 0.15823342099 0.15639267572 0.15394257003 0.15083389483 0.14705216269 0.14262999994 0.13765314747 
0.13225834794 0.12662360116 0.12095278455 0.11545658922 0.11033030132 0.10572890583 0.10174546234 0.098402587122 0.095655900885 
0.093402116146 0.09149767132 0.089791660381 0.088159327305 0.08652242957 0.084855611292 0.083181378588 0.081530533938 0.079904276104 
0.078264610676 0.076572957004 0.074810513028 0.072982030029 0.071115506914 0.069261804787 0.067494663718 0.065908978649 0.064592870227 
0.063591695297 0.062830692257 0.062235186297 0.061812468367 0.061586704141 0.061585664331 0.061733921746 0.061865705971 0.061821012673 
0.061437130042 0.060590256947 0.059200297967 0.057221736107 0.054636618583 0.051450930025 0.047693687678 0.043417704257 0.038700924404 
0.033647449151 0.02838759083 0.02307644716 0.017890576729 0.013022398288 0.0086718960215 0.0050352346978 0.0022903512486 0.00058073147581 
5.0447611159e-17 
