# vtk DataFile Version 5.1
vtk output
ASCII
DATASET POLYDATA
POINTS 100 float
0.0900615 0.0531266 0.682702 0.0901094 0.0531185 0.682275 0.0903168 0.052952 0.680822 
0.0906517 0.0526642 0.678403 0.0910646 0.0523116 0.675111 0.0914936 0.0519633 0.671063 
0.0918713 0.0516925 0.666384 0.0921319 0.0515672 0.661196 0.0922175 0.0516418 0.655605 
0.092084 0.0519496 0.649687 0.0917045 0.052498 0.643487 0.0910708 0.0532665 0.637013 
0.0901923 0.0542076 0.630239 0.0890923 0.0552513 0.623112 0.0878036 0.0563112 0.61556 
0.0863614 0.0572933 0.607506 0.0847966 0.0581048 0.598879 0.0831301 0.0586639 0.589622 
0.0813673 0.0589071 0.579706 0.0794952 0.0587953 0.56913 0.0774822 0.058317 0.557921 
0.0752798 0.0574889 0.546136 0.0728274 0.0563529 0.53385 0.0700582 0.0549719 0.521153 
0.0669071 0.0534222 0.508133 0.063318 0.0517865 0.494871 0.0592512 0.0501453 0.48143 
0.0546884 0.0485708 0.467851 0.0496358 0.0471211 0.454148 0.0441241 0.045837 0.440313 
0.038206 0.044742 0.426314 0.0319503 0.0438434 0.412106 0.0254349 0.0431361 0.397636 
0.0187377 0.0426083 0.382853 0.0119283 0.0422466 0.367717 0.00505993 0.0420421 0.3522 
-0.00183537 0.0419947 0.336292 -0.00874952 0.0421158 0.320002 -0.0156971 0.0424294 0.303353 
-0.0227106 0.0429699 0.286379 -0.0298325 0.0437787 0.269119 -0.0371047 0.0448987 0.251608 
-0.0445569 0.0463677 0.233872 -0.0521951 0.0482117 0.215922 -0.0599913 0.0504389 0.197754 
-0.067877 0.0530352 0.179347 -0.0757394 0.0559622 0.160663 -0.0834242 0.0591568 0.141657 
-0.0907411 0.0625346 0.122279 -0.0974758 0.0659952 0.102482 -0.103404 0.0694296 0.0822299 
-0.108311 0.0727283 0.0615024 -0.112003 0.0757905 0.0402983 -0.11433 0.0785322 0.018638 
-0.115197 0.0808921 -0.00343818 -0.114569 0.0828362 -0.0258727 -0.112478 0.0843588 -0.0485957 
-0.109019 0.0854809 -0.0715308 -0.104341 0.0862453 -0.0946013 -0.0986319 0.0867102 -0.117735 
-0.0921034 0.0869403 -0.14087 -0.0849712 0.0869982 -0.163952 -0.0774361 0.0869353 -0.186943 
-0.0696678 0.0867849 -0.20981 -0.0617926 0.0865571 -0.232529 -0.0538862 0.0862361 -0.255077 
-0.0459728 0.0857815 -0.27743 -0.0380297 0.0851315 -0.299558 -0.029998 0.0842092 -0.321421 
-0.0217964 0.0829306 -0.342969 -0.0133383 0.0812135 -0.364144 -0.00454827 0.0789866 -0.384877 
0.00462251 0.0761974 -0.405097 0.0141846 0.0728179 -0.42473 0.0241033 0.068849 -0.443709 
0.0342977 0.0643207 -0.461969 0.0446449 0.0592903 -0.479461 0.0549897 0.0538384 -0.496145 
0.0651582 0.0480617 -0.511992 0.0749739 0.042066 -0.526987 0.0842735 0.0359579 -0.541121 
0.092922 0.0298378 -0.554393 0.100824 0.0237933 -0.566802 0.10793 0.0178956 -0.578351 
0.114241 0.0121973 -0.589039 0.119798 0.00673298 -0.598865 0.124682 0.00152151 -0.607826 
0.128995 -0.0034295 -0.61592 0.132849 -0.0081188 -0.623151 0.136351 -0.012546 -0.629528 
0.139588 -0.0167069 -0.635069 0.142622 -0.0205893 -0.639802 0.145477 -0.0241713 -0.643771 
0.148144 -0.0274209 -0.647025 0.150584 -0.0302974 -0.649626 0.152732 -0.0327546 -0.651636 
0.154512 -0.034745 -0.653118 0.155849 -0.0362249 -0.654129 0.156677 -0.0371586 -0.654712 
0.156954 -0.0375226 -0.654897 
LINES 2 100
OFFSETS vtktypeint64
0 100 
CONNECTIVITY vtktypeint64
0 1 2 3 4 5 6 7 8 
9 10 11 12 13 14 15 16 17 
18 19 20 21 22 23 24 25 26 
27 28 29 30 31 32 33 34 35 
36 37 38 39 40 41 42 43 44 
45 46 47 48 49 50 51 52 53 
54 55 56 57 58 59 60 61 62 
63 64 65 66 67 68 69 70 71 
72 73 74 75 76 77 78 79 80 
81 82 83 84 85 86 87 88 89 
90 91 92 93 94 95 96 97 98 
99 
POINT_DATA 100
FIELD FieldData 3
_theta 1 100 double
0 0.031733259127 0.063466518254 0.095199777382 0.12693303651 0.15866629564 0.19039955476 0.22213281389 0.25386607302 
0.28559933214 0.31733259127 0.3490658504 0.38079910953 0.41253236865 0.44426562778 0.47599888691 0.50773214603 0.53946540516 
0.57119866429 0.60293192342 0.63466518254 0.66639844167 0.6981317008 0.72986495992 0.76159821905 0.79333147818 0.82506473731 
0.85679799643 0.88853125556 0.92026451469 0.95199777382 0.98373103294 1.0154642921 1.0471975512 1.0789308103 1.1106640695 
1.1423973286 1.1741305877 1.2058638468 1.237597106 1.2693303651 1.3010636242 1.3327968833 1.3645301425 1.3962634016 
1.4279966607 1.4597299198 1.491463179 1.5231964381 1.5549296972 1.5866629564 1.6183962155 1.6501294746 1.6818627337 
1.7135959929 1.745329252 1.7770625111 1.8087957702 1.8405290294 1.8722622885 1.9039955476 1.9357288068 1.9674620659 
1.999195325 2.0309285841 2.0626618433 2.0943951024 2.1261283615 2.1578616206 2.1895948798 2.2213281389 2.253061398 
2.2847946572 2.3165279163 2.3482611754 2.3799944345 2.4117276937 2.4434609528 2.4751942119 2.506927471 2.5386607302 
2.5703939893 2.6021272484 2.6338605076 2.6655937667 2.6973270258 2.7290602849 2.7607935441 2.7925268032 2.8242600623 
2.8559933214 2.8877265806 2.9194598397 2.9511930988 2.982926358 3.0146596171 3.0463928762 3.0781261353 3.1098593945 
3.1415926536 
_radius 1 100 double
2.4601290312e-16 0.012814100287 0.025609592975 0.038356689165 0.051021176935 0.063563801273 0.075940735031 0.088104987449 0.10000835127 
0.1116033809 0.12284496761 0.133691299 0.14410426009 0.15404953199 0.16349669085 0.1724194947 0.18079634094 0.18861069509 
0.19585123473 0.20251156204 0.20858957508 0.21408684571 0.21900849233 0.22336395089 0.22716872037 0.23044668874 0.23323222375 
0.23557103246 0.23751895959 0.23913836841 0.24049236443 0.24163766997 0.24261727171 0.24345399404 0.24414596385 0.2446646396 
0.24495577285 0.24494338892 0.24453661617 0.24363894952 0.24215929347 0.24002388593 0.23718796866 0.23364588588 0.22943823261 
0.22465481051 0.219432512 0.21394781371 0.20840420959 0.20301549624 0.19798628344 0.19349171084 0.18965946828 0.18655827506 
0.18419616555 0.18252839016 0.18147073154 0.18091285952 0.18072852138 0.18078264573 0.18093766136 0.18106163212 0.18103920849 
0.18078385239 0.18024806843 0.17942859355 0.17836512949 0.17713296335 0.17583094205 0.17456673358 0.17344142545 0.17253549783 
0.17189805737 0.17154075828 0.17143693512 0.17152528265 0.17171644678 0.17190063063 0.17195479426 0.17174880826 0.17115054498 
0.17003017335 0.16826395335 0.16573776152 0.16235048974 0.15801733159 0.15267280035 0.14627317274 0.13879801161 0.13025052539 
0.12065673034 0.11006361019 0.098536643716 0.086157147058 0.0730198359 0.05923085164 0.044906254502 0.030170745385 0.015156244073 
1.7549200318e-15 
_area 1 100 double
0 0.00046533977348 0.00185401353 0.0041449906165 0.0073063018955 0.011298765456 0.016079542551 0.021604212579 0.027826256987 
0.03469344441 0.042141538845 0.050086835303 0.058419942756 0.067003544394 0.075676261384 0.084263306085 0.092592782484 0.1005148117 
0.10791947481 0.11474904298 0.12100047115 0.12671649722 0.13196825686 0.13683671036 0.1413997169 0.14572548403 0.14986760364 
0.15385780069 0.15769804536 0.1613573215 0.16477677942 0.16788264973 0.17060278162 0.17288120408 0.174685342 0.17600207501 
0.17682201648 0.1771168382 0.17682046294 0.17582589425 0.17400250292 0.17122951968 0.16743616807 0.16263708934 0.15695208848 
0.15060186605 0.14387679648 0.13708442164 0.13049179769 0.1242838071 0.11855022848 0.11330007043 0.10849451451 0.10409376459 
0.10019118399 0.097148023884 0.094524763294 0.092189781159 0.090112270809 0.088297068494 0.086734983018 0.085341845078 0.083942936782 
0.082301945774 0.080214424371 0.077577090174 0.074419474285 0.070886728278 0.067204793278 0.063640637649 0.060464462727 0.057919552073 
0.056201434781 0.055409252391 0.055414697461 0.055909307307 0.056631226987 0.057415655622 0.05816147107 0.058794692354 0.059237547606 
0.059390798708 0.059134505113 0.058341781556 0.056896693606 0.054711669825 0.051742825826 0.048001409765 0.043559056543 0.038545449568 
0.033138752874 0.027550633606 0.022008405523 0.01673693911 0.011942729324 0.0078019844041 0.0044538461709 0.0019989493973 0.00050251015075 
1.301042607e-17 
