# vtk DataFile Version 5.1
vtk output
ASCII
DATASET POLYDATA
POINTS 100 float
0.152641 0.0445529 0.720585 0.152628 0.0447242 0.720381 0.15263 0.0451007 0.719642 
0.152592 0.0456822 0.718367 0.152428 0.0464677 0.716551 0.152034 0.0474529 0.714185 
0.151301 0.0486269 0.711256 0.150128 0.0499682 0.707741 0.148436 0.0514432 0.703609 
0.146175 0.0530042 0.698823 0.143333 0.0545902 0.693342 0.139934 0.0561299 0.687121 
0.136033 0.0575451 0.680125 0.131711 0.0587572 0.672326 0.127057 0.0596934 0.663713 
0.122162 0.0602928 0.654297 0.117101 0.0605125 0.644111 0.111921 0.0603318 0.63321 
0.106637 0.0597543 0.621671 0.10123 0.0588077 0.609584 0.0956426 0.0575415 0.597048 
0.0897946 0.0560223 0.584161 0.083588 0.054328 0.571009 0.0769223 0.0525407 0.557665 
0.0697092 0.0507403 0.544177 0.0618846 0.0489979 0.530566 0.0534194 0.0473715 0.516828 
0.044325 0.0459032 0.502937 0.0346547 0.0446188 0.488849 0.0244991 0.0435285 0.47451 
0.0139771 0.0426303 0.459864 0.00322393 0.0419138 0.444862 -0.00762323 0.0413646 0.429464 
-0.0184397 0.0409689 0.413646 -0.0291256 0.0407159 0.397397 -0.0396143 0.0406008 0.380718 
-0.0498771 0.0406251 0.363615 -0.0599212 0.0407958 0.346095 -0.0697835 0.0411233 0.328152 
-0.0795191 0.0416192 0.309767 -0.0891871 0.042293 0.2909 -0.0988344 0.0431499 0.271491 
-0.108481 0.0441889 0.251459 -0.118108 0.0454026 0.230716 -0.127646 0.0467772 0.209168 
-0.136979 0.0482948 0.186736 -0.145939 0.0499357 0.163363 -0.154323 0.0516811 0.139032 
-0.161903 0.0535156 0.11377 -0.168443 0.0554293 0.0876592 -0.173722 0.0574182 0.0608319 
-0.177553 0.0594838 0.0334692 -0.179796 0.0616307 0.00578838 -0.180374 0.0638641 -0.0219719 
-0.179281 0.0661853 -0.0495692 -0.17658 0.0685882 -0.0767762 -0.1724 0.0710562 -0.103398 
-0.166923 0.0735598 -0.129286 -0.160371 0.0760566 -0.154347 -0.152985 0.0784921 -0.178545 
-0.145007 0.080804 -0.201901 -0.136663 0.082926 -0.22448 -0.128145 0.0847946 -0.24638 
-0.1196 0.0863545 -0.267712 -0.111124 0.087564 -0.288586 -0.102763 0.0883994 -0.309094 
-0.0945117 0.0888568 -0.329296 -0.0863282 0.0889514 -0.349215 -0.0781419 0.0887149 -0.368833 
-0.0698682 0.0881901 -0.388097 -0.0614226 0.0874246 -0.406923 -0.0527338 0.0864632 -0.425218 
-0.0437539 0.0853412 -0.442883 -0.0344661 0.0840785 -0.459837 -0.0248885 0.0826762 -0.476021 
-0.015074 0.0811162 -0.491412 -0.00510671 0.0793631 -0.506018 0.00490425 0.0773697 -0.519885 
0.0148333 0.0750843 -0.533081 0.0245477 0.0724597 -0.545687 0.0339171 0.0694617 -0.557785 
0.0428221 0.0660781 -0.569444 0.051161 0.0623235 -0.580707 0.0588556 0.0582431 -0.591584 
0.0658531 0.0539119 -0.602047 0.0721272 0.0494302 -0.612035 0.0776763 0.0449167 -0.621457 
0.0825204 0.0404984 -0.630209 0.086697 0.0362997 -0.638184 0.0902558 0.0324316 -0.645289 
0.0932542 0.0289818 -0.651455 0.0957524 0.0260084 -0.656652 0.0978096 0.0235358 -0.660891 
0.0994806 0.0215559 -0.664225 0.100814 0.0200319 -0.666742 0.101851 0.0189063 -0.668556 
0.102624 0.0181106 -0.66979 0.103159 0.0175764 -0.670563 0.103473 0.017246 -0.670974 
0.103575 0.0170809 -0.671086 
LINES 2 100
OFFSETS vtktypeint64
0 100 
CONNECTIVITY vtktypeint64
0 1 2 3 4 5 6 7 8 
9 10 11 12 13 14 15 16 17 
18 19 20 21 22 23 24 25 26 
27 28 29 30 31 32 33 34 35 
36 37 38 39 40 41 42 43 44 
45 46 47 48 49 50 51 52 53 
54 55 56 57 58 59 60 61 62 
63 64 65 66 67 68 69 70 71 
72 73 74 75 76 77 78 79 80 
81 82 83 84 85 86 87 88 89 
90 91 92 93 94 95 96 97 98 
99 
POINT_DATA 100
FIELD FieldData 3
_theta 1 100 double
0 0.031733259127 0.063466518254 0.095199777382 0.12693303651 0.15866629564 0.19039955476 0.22213281389 0.25386607302 
0.28559933214 0.31733259127 0.3490658504 0.38079910953 0.41253236865 0.44426562778 0.47599888691 0.50773214603 0.53946540516 
0.57119866429 0.60293192342 0.63466518254 0.66639844167 0.6981317008 0.72986495992 0.76159821905 0.79333147818 0.82506473731 
0.85679799643 0.88853125556 0.92026451469 0.95199777382 0.98373103294 1.0154642921 1.0471975512 1.0789308103 1.1106640695 
1.1423973286 1.1741305877 1.2058638468 1.237597106 1.2693303651 1.3010636242 1.3327968833 1.3645301425 1.3962634016 
1.4279966607 1.4597299198 1.491463179 1.5231964381 1.5549296972 1.5866629564 1.6183962155 1.6501294746 1.6818627337 
1.7135959929 1.745329252 1.7770625111 1.8087957702 1.8405290294 1.8722622885 1.9039955476 1.9357288068 1.9674620659 
1.999195325 2.0309285841 2.0626618433 2.0943951024 2.1261283615 2.1578616206 2.1895948798 2.2213281389 2.253061398 
2.2847946572 2.3165279163 2.3482611754 2.3799944345 2.4117276937 2.4434609528 2.4751942119 2.506927471 2.5386607302 
2.5703939893 2.6021272484 2.6338605076 2.6655937667 2.6973270258 2.7290602849 2.7607935441 2.7925268032 2.8242600623 
2.8559933214 2.8877265806 2.9194598397 2.9511930988 2.982926358 3.0146596171 3.0463928762 3.0781261353 3.1098593945 
3.1415926536 
_radius 1 100 double
1.4531309614e-15 0.016840363432 0.033415449053 0.049481185826 0.064835220264 0.079330183141 0.092879426783 0.10545525829 0.11708104263 
0.12781936262 0.13775848088 0.14699873809 0.15563965011 0.16376790164 0.17144659941 0.178706985 0.1855446629 0.1919223886 
0.19778016598 0.20305127676 0.20768090198 0.21164305017 0.21495188389 0.2176650191 0.21987842456 0.2217145052 0.223306204 
0.22478016945 0.22624135674 0.22776042799 0.22936458399 0.23103222994 0.23269200261 0.23422687546 0.23548401119 0.2362904697 
0.23647371062 0.2358843579 0.23441756914 0.23202918372 0.22874377911 0.2246535132 0.21990859295 0.21470183764 0.20925069969 
0.20378003452 0.19850787362 0.19363479111 0.18933583066 0.18575314893 0.18298808772 0.18109324453 0.18006722707 0.17985550198 
0.18035917309 0.18145039305 0.18299020704 0.18484361981 0.18688820246 0.18901567199 0.1911287588 0.19313707616 0.19495544971 
0.19650659164 0.19772769588 0.19857849944 0.19904767617 0.19915530146 0.19895072929 0.1985065866 0.19791028948 0.19725455701 
0.19662801479 0.19610635378 0.19574392738 0.19556544159 0.19555769688 0.19566210421 0.1957695965 0.19572010181 0.19530848057 
0.19429764486 0.19243788321 0.18948991376 0.18524840732 0.17956273967 0.17235231073 0.16361461983 0.15342523059 0.14192971313 
0.12932856469 0.11585691621 0.10176144433 0.087277241884 0.072607392591 0.057907633999 0.043277817329 0.028760982051 0.014349894423 
7.6983240724e-16 
_area 1 100 double
0 0.00062986754734 0.002477759124 0.0054274435979 0.009311908938 0.013944201573 0.019145655691 0.024763475055 0.03067476777 
0.036780428414 0.042995879883 0.049244719305 0.05545735446 0.061572621051 0.067538356526 0.073308246751 0.078836506474 0.084076296951 
0.088988345206 0.093560915303 0.097832729101 0.10190126417 0.10589900974 0.10994312609 0.11409470375 0.11834991029 0.12265046058 
0.12690413665 0.13101332182 0.13490224535 0.13853189176 0.1418966771 0.14500205772 0.14782714975 0.15028390333 0.15219215433 
0.15328985227 0.15328483532 0.15193441163 0.14912427281 0.14491782348 0.13955927597 0.13343039774 0.1269753423 0.12061910104 
0.11470747291 0.10947928283 0.10505869413 0.10145751905 0.098592822187 0.096322853358 0.094489325724 0.092951301181 0.09161357229 
0.090486457874 0.089846403506 0.089605714467 0.08968063288 0.090057840126 0.090870118831 0.091779795774 0.092628422586 0.093209954914 
0.093334211972 0.092844336209 0.09167557451 0.089875824398 0.087589500421 0.085023138705 0.082405579146 0.079950953329 0.077826864254 
0.076127705958 0.074865371648 0.073980084128 0.073412922961 0.073148933635 0.07313711345 0.073353310235 0.073704553281 0.074037827578 
0.074159009852 0.073849108033 0.072886880198 0.071072095729 0.068250192786 0.064338705809 0.059350958974 0.053408621171 0.046735759796 
0.039633020057 0.032437909828 0.025481764124 0.019054000707 0.013380604462 0.0086185602147 0.0048633722594 0.0021642496248 0.00054125452988 
3.3175745999e-17 
