# vtk DataFile Version 5.1
vtk output
ASCII
DATASET POLYDATA
POINTS 100 float
0.157705 0.0629673 0.736618 0.157809 0.0631957 0.736548 0.158211 0.0636992 0.736163 
0.158847 0.0644498 0.735427 0.159615 0.0654047 0.734283 0.160383 0.0665089 0.732658 
0.161007 0.0676992 0.730469 0.161338 0.0689085 0.727632 0.161238 0.0700702 0.724067 
0.16059 0.0711218 0.719704 0.159306 0.0720089 0.714493 0.157331 0.0726874 0.708403 
0.154644 0.0731252 0.701427 0.151255 0.0733024 0.69358 0.147199 0.0732108 0.684898 
0.142527 0.0728526 0.675437 0.137294 0.0722385 0.665263 0.131559 0.0713853 0.654451 
0.125369 0.0703135 0.643079 0.118759 0.0690457 0.631219 0.111749 0.0676047 0.61894 
0.104347 0.0660129 0.606298 0.0965491 0.0642922 0.593339 0.0883511 0.0624644 0.580098 
0.0797507 0.0605519 0.566599 0.0707561 0.0585791 0.552858 0.0613913 0.0565738 0.538883 
0.0516992 0.0545674 0.524681 0.0417429 0.0525957 0.510253 0.0316031 0.0506985 0.495601 
0.0213734 0.0489185 0.480722 0.0111539 0.0472995 0.465614 0.00104273 0.0458842 0.450265 
-0.00887149 0.0447113 0.434658 -0.0185169 0.0438133 0.418766 -0.0278431 0.043214 0.402548 
-0.0368237 0.0429267 0.385948 -0.045455 0.0429539 0.368898 -0.0537524 0.043287 0.351318 
-0.0617431 0.0439082 0.333117 -0.069458 0.0447928 0.314205 -0.0769222 0.0459119 0.29449 
-0.0841459 0.0472362 0.273894 -0.0911168 0.0487392 0.252356 -0.0977957 0.0504005 0.229839 
-0.104114 0.0522073 0.206338 -0.109978 0.0541557 0.181879 -0.115272 0.05625 0.156524 
-0.119866 0.0585009 0.130366 -0.12363 0.0609222 0.103527 -0.126444 0.0635266 0.0761479 
-0.12821 0.0663214 0.0483841 -0.128858 0.0693041 0.0203919 -0.12836 0.0724581 -0.0076793 
-0.126729 0.0757503 -0.0356964 -0.124022 0.0791303 -0.0635496 -0.120332 0.0825307 -0.0911571 
-0.115788 0.0858698 -0.118467 -0.110537 0.0890561 -0.145457 -0.104739 0.0919938 -0.172128 
-0.098551 0.0945892 -0.1985 -0.0921165 0.096757 -0.224603 -0.0855565 0.0984265 -0.250469 
-0.0789615 0.099546 -0.276121 -0.0723876 0.100086 -0.30157 -0.0658563 0.100039 -0.326804 
-0.0593569 0.0994211 -0.351788 -0.0528522 0.0982636 -0.376465 -0.0462863 0.0966125 -0.400753 
-0.0395939 0.0945204 -0.424557 -0.0327098 0.0920402 -0.447769 -0.0255781 0.0892192 -0.470281 
-0.01816 0.0860941 -0.491989 -0.01044 0.0826883 -0.512803 -0.00242943 0.0790103 -0.532652 
0.00583202 0.0750553 -0.551488 0.0142777 0.0708086 -0.569289 0.0228171 0.0662503 -0.586056 
0.0313412 0.0613621 -0.601811 0.0397284 0.0561328 -0.616594 0.0478519 0.0505654 -0.630455 
0.0555868 0.044681 -0.64345 0.0628168 0.0385221 -0.655634 0.0694409 0.0321531 -0.667054 
0.0753777 0.0256584 -0.677751 0.0805701 0.0191384 -0.687752 0.0849866 0.0127034 -0.697072 
0.0886231 0.0064665 -0.705717 0.0915017 0.000536232 -0.713683 0.0936693 -0.00499091 -0.720962 
0.0951939 -0.0100362 -0.727545 0.0961611 -0.0145426 -0.73342 0.0966689 -0.0184766 -0.738584 
0.0968223 -0.0218273 -0.743034 0.0967276 -0.0246033 -0.746774 0.0964869 -0.0268278 -0.749811 
0.0961925 -0.0285319 -0.752157 0.095922 -0.0297486 -0.753823 0.0957343 -0.0305056 -0.754816 
0.0956661 -0.0308211 -0.755144 
LINES 2 100
OFFSETS vtktypeint64
0 100 
CONNECTIVITY vtktypeint64
0 1 2 3 4 5 6 7 8 
9 10 11 12 13 14 15 16 17 
18 19 20 21 22 23 24 25 26 
27 28 29 30 31 32 33 34 35 
36 37 38 39 40 41 42 43 44 
45 46 47 48 49 50 51 52 53 
54 55 56 57 58 59 60 61 62 
63 64 65 66 67 68 69 70 71 
72 73 74 75 76 77 78 79 80 
81 82 83 84 85 86 87 88 89 
90 91 92 93 94 95 96 97 98 
99 
POINT_DATA 100
FIELD FieldData 3
_theta 1 100 double
0 0.031733259127 0.063466518254 0.095199777382 0.12693303651 0.15866629564 0.19039955476 0.22213281389 0.25386607302 
0.28559933214 0.31733259127 0.3490658504 0.38079910953 0.41253236865 0.44426562778 0.47599888691 0.50773214603 0.53946540516 
0.57119866429 0.60293192342 0.63466518254 0.66639844167 0.6981317008 0.72986495992 0.76159821905 0.79333147818 0.82506473731 
0.85679799643 0.88853125556 0.92026451469 0.95199777382 0.98373103294 1.0154642921 1.0471975512 1.0789308103 1.1106640695 
1.1423973286 1.1741305877 1.2058638468 1.237597106 1.2693303651 1.3010636242 1.3327968833 1.3645301425 1.3962634016 
1.4279966607 1.4597299198 1.491463179 1.5231964381 1.5549296972 1.5866629564 1.6183962155 1.6501294746 1.6818627337 
1.7135959929 1.745329252 1.7770625111 1.8087957702 1.8405290294 1.8722622885 1.9039955476 1.9357288068 1.9674620659 
1.999195325 2.0309285841 2.0626618433 2.0943951024 2.1261283615 2.1578616206 2.1895948798 2.2213281389 2.253061398 
2.2847946572 2.3165279163 2.3482611754 2.3799944345 2.4117276937 2.4434609528 2.4751942119 2.506927471 2.5386607302 
2.5703939893 2.6021272484 2.6338605076 2.6655937667 2.6973270258 2.7290602849 2.7607935441 2.7925268032 2.8242600623 
2.8559933214 2.8877265806 2.9194598397 2.9511930988 2.982926358 3.0146596171 3.0463928762 3.0781261353 3.1098593945 
3.1415926536 
_radius 1 100 double
5.6200757191e-16 0.015238548782 0.030338341529 0.045162008988 0.059589386693 0.073522923782 0.086889922034 0.099641913489 0.11175197684 
0.12321091904 0.1340230571 0.14420198685 0.15376640959 0.16273594566 0.17112695044 0.17894861995 0.18620000102 0.19286873617 
0.19893232181 0.20436227759 0.20913097805 0.21322017858 0.21662971472 0.21938465123 0.22153935229 0.22317744286 0.22440726436 
0.22535304157 0.22614250519 0.22689217746 0.22769197126 0.22859115007 0.22958790468 0.23062462174 0.2315902377 0.23232998699 
0.23266164913 0.23239639141 0.23136168159 0.22942353751 0.22650551704 0.22260224279 0.21778582523 0.21220423968 0.20607148048 
0.19965012983 0.1932278207 0.18708992582 0.18149162983 0.17663327319 0.17264328149 0.16957249912 0.16740140813 0.16605743093 
0.16543530139 0.16541262569 0.16585685327 0.16662662949 0.16757455694 0.16855614949 0.1694438884 0.17014165693 0.17059533632 
0.17079748395 0.17078557026 0.17063406704 0.17044132627 0.17031290077 0.17034361239 0.17060107939 0.17111344666 0.17186358265 
0.17279085626 0.17379986495 0.17477374559 0.17558877141 0.17612716162 0.17628605382 0.17598183121 0.17515007591 0.17374219151 
0.17172015457 0.1690509124 0.16570169203 0.16163702723 0.15681777636 0.15120192625 0.14474667416 0.13741124335 0.129160103 
0.11996656224 0.10981684839 0.098714645474 0.086685757972 0.073782276982 0.060085502837 0.045706936057 0.030786841187 0.015490171894 
1.3972079622e-15 
_area 1 100 double
0 0.00059424674544 0.0023657733069 0.0052794161952 0.0092724064812 0.014250921952 0.020089503604 0.026635118456 0.033716119223 
0.041154862192 0.048781748492 0.056448010306 0.064034558994 0.071454700343 0.078649792503 0.085579079749 0.092207323528 0.098495112586 
0.10439579595 0.10986007602 0.11484592974 0.11932953092 0.12331324754 0.1268289244 0.12993653581 0.13271868162 0.13527134378 
0.13769240692 0.14007092408 0.1424792049 0.14496644013 0.14755094173 0.1502101403 0.15287037922 0.15539975321 0.15760703842 
0.1592493776 0.1600513552 0.15973725356 0.15807445252 0.15492037973 0.15026230854 0.14424016734 0.13714601598 0.12939781943 
0.12148766543 0.11390654187 0.10705731831 0.1011877974 0.09637635174 0.092570676702 0.089708748234 0.087864294632 0.086613305218 
0.08550105599 0.084414244011 0.083225913251 0.081956230594 0.080699201126 0.079630340823 0.07887274578 0.078337004336 0.07782559898 
0.077174355249 0.0762665449 0.075029473524 0.073457987728 0.071626747752 0.069655367147 0.06765272829 0.065753748375 0.064079250517 
0.062712678437 0.061682302811 0.060955756133 0.060481077176 0.060205651061 0.06008994362 0.060122404836 0.060297607161 0.060502861784 
0.060581986853 0.060381726728 0.059740331245 0.058504382839 0.056553856708 0.053822334441 0.050306651345 0.046065358936 0.041209263102 
0.035889044202 0.030284123643 0.024594368785 0.019033667814 0.013823230417 0.0091828661399 0.0053197315284 0.0024152502755 0.00061165739943 
2.8189256485e-17 
