# vtk DataFile Version 5.1
vtk output
ASCII
DATASET POLYDATA
POINTS 100 float
0.10612 0.0789281 0.695768 0.106126 0.0789054 0.695861 0.106187 0.0786789 0.695946 
0.106284 0.0782492 0.695954 0.106393 0.0776193 0.695776 0.106478 0.0767964 0.695276 
0.106495 0.0757934 0.694295 0.106397 0.0746311 0.692673 0.106128 0.0733384 0.690258 
0.105635 0.0719519 0.686918 0.104862 0.0705138 0.682554 0.103759 0.0690683 0.677107 
0.102279 0.0676575 0.670562 0.100385 0.0663162 0.662947 0.0980503 0.0650669 0.654333 
0.0952576 0.0639168 0.644824 0.0920024 0.062855 0.634548 0.0882907 0.0618529 0.623649 
0.084139 0.0608666 0.612271 0.0795723 0.0598412 0.600553 0.0746219 0.0587182 0.588611 
0.0693235 0.0574423 0.576538 0.0637148 0.0559701 0.564396 0.057834 0.0542767 0.552213 
0.051718 0.0523611 0.539989 0.0454018 0.0502494 0.527693 0.0389179 0.0479942 0.515277 
0.0322962 0.0456713 0.502678 0.0255642 0.0433733 0.489828 0.0187471 0.0412012 0.476665 
0.0118676 0.039255 0.463133 0.00494548 0.0376232 0.449196 -0.00200314 0.0363747 0.434833 
-0.00896721 0.0355519 0.420045 -0.0159419 0.0351673 0.404849 -0.0229301 0.0352034 0.389275 
-0.0299427 0.0356153 0.373362 -0.0369986 0.0363377 0.35715 -0.0441236 0.0372924 0.340672 
-0.051347 0.0383984 0.32395 -0.0586977 0.0395808 0.306987 -0.0661982 0.0407789 0.289763 
-0.0738585 0.0419526 0.272237 -0.0816689 0.0430848 0.254344 -0.0895934 0.044182 0.236 
-0.0975652 0.0452709 0.217108 -0.105483 0.0463929 0.197566 -0.113211 0.0475973 0.177275 
-0.120583 0.0489335 0.15615 -0.127408 0.0504437 0.134127 -0.133478 0.0521573 0.111172 
-0.138585 0.0540865 0.0872875 -0.14253 0.0562255 0.062517 -0.145143 0.0585507 0.0369433 
-0.146291 0.0610244 0.0106879 -0.145892 0.0635984 -0.0160948 -0.143924 0.0662192 -0.0432256 
-0.140424 0.0688324 -0.0705102 -0.135493 0.0713865 -0.097751 -0.129281 0.0738347 -0.124758 
-0.121985 0.0761352 -0.151361 -0.113825 0.0782503 -0.177417 -0.105033 0.0801436 -0.20282 
-0.0958356 0.0817768 -0.227504 -0.0864317 0.0831078 -0.25144 -0.0769847 0.0840886 -0.274643 
-0.0676089 0.0846657 -0.297156 -0.0583656 0.0847823 -0.319047 -0.0492632 0.0843828 -0.340402 
-0.0402618 0.0834188 -0.361307 -0.0312836 0.0818565 -0.381844 -0.0222258 0.0796833 -0.402078 
-0.0129752 0.0769143 -0.422052 -0.00342403 0.0735959 -0.441778 0.00651656 0.0698064 -0.461241 
0.0169049 0.0656536 -0.480397 0.027761 0.0612681 -0.499176 0.0390637 0.0567939 -0.51749 
0.0507504 0.0523761 -0.535242 0.0627233 0.0481486 -0.552332 0.0748559 0.0442213 -0.568667 
0.0870044 0.04067 -0.584169 0.0990175 0.0375296 -0.598778 0.110748 0.0347915 -0.612456 
0.12206 0.0324064 -0.625191 0.132837 0.0302915 -0.636988 0.142989 0.028342 -0.647873 
0.152446 0.0264453 -0.65788 0.161163 0.0244965 -0.66705 0.169117 0.0224129 -0.675425 
0.176298 0.0201462 -0.683035 0.182707 0.0176907 -0.689904 0.188349 0.015086 -0.696038 
0.193232 0.0124142 -0.701433 0.197363 0.009792 -0.706069 0.200743 0.00735788 -0.70992 
0.203373 0.0052569 -0.712955 0.20525 0.00362397 -0.71514 0.20637 0.00256832 -0.716451 
0.206732 0.00216074 -0.716871 
LINES 2 100
OFFSETS vtktypeint64
0 100 
CONNECTIVITY vtktypeint64
0 1 2 3 4 5 6 7 8 
9 10 11 12 13 14 15 16 17 
18 19 20 21 22 23 24 25 26 
27 28 29 30 31 32 33 34 35 
36 37 38 39 40 41 42 43 44 
45 46 47 48 49 50 51 52 53 
54 55 56 57 58 59 60 61 62 
63 64 65 66 67 68 69 70 71 
72 73 74 75 76 77 78 79 80 
81 82 83 84 85 86 87 88 89 
90 91 92 93 94 95 96 97 98 
99 
POINT_DATA 100
FIELD FieldData 3
_theta 1 100 double
0 0.031733259127 0.063466518254 0.095199777382 0.12693303651 0.15866629564 0.19039955476 0.22213281389 0.25386607302 
0.28559933214 0.31733259127 0.3490658504 0.38079910953 0.41253236865 0.44426562778 0.47599888691 0.50773214603 0.53946540516 
0.57119866429 0.60293192342 0.63466518254 0.66639844167 0.6981317008 0.72986495992 0.76159821905 0.79333147818 0.82506473731 
0.85679799643 0.88853125556 0.92026451469 0.95199777382 0.98373103294 1.0154642921 1.0471975512 1.0789308103 1.1106640695 
1.1423973286 1.1741305877 1.2058638468 1.237597106 1.2693303651 1.3010636242 1.3327968833 1.3645301425 1.3962634016 
1.4279966607 1.4597299198 1.491463179 1.5231964381 1.5549296972 1.5866629564 1.6183962155 1.6501294746 1.6818627337 
1.7135959929 1.745329252 1.7770625111 1.8087957702 1.8405290294 1.8722622885 1.9039955476 1.9357288068 1.9674620659 
1.999195325 2.0309285841 2.0626618433 2.0943951024 2.1261283615 2.1578616206 2.1895948798 2.2213281389 2.253061398 
2.2847946572 2.3165279163 2.3482611754 2.3799944345 2.4117276937 2.4434609528 2.4751942119 2.506927471 2.5386607302 
2.5703939893 2.6021272484 2.6338605076 2.6655937667 2.6973270258 2.7290602849 2.7607935441 2.7925268032 2.8242600623 
2.8559933214 2.8877265806 2.9194598397 2.9511930988 2.982926358 3.0146596171 3.0463928762 3.0781261353 3.1098593945 
3.1415926536 
_radius 1 100 double
4.4754520913e-16 0.014855082831 0.029689057557 0.044463109797 0.059125067879 0.073607178505 0.08782754328 0.10169485185 0.11511532779 
0.12800043669 0.14027394883 0.1518773153 0.16277283344 0.17294456285 0.18239727749 0.19115386206 0.19925152279 0.20673708075 
0.2136615584 0.22007434025 0.22601740096 0.23152037567 0.23659743416 0.2412468261 0.24545349881 0.24919445025 0.25244574047 
0.25518963563 0.25742035583 0.25914730401 0.26039529367 0.26120195101 0.26161295989 0.26167604143 0.26143451933 0.26092113133 
0.26015259025 0.25912543149 0.25781391432 0.25617096173 0.25413299054 0.25162882314 0.24859186619 0.24497380238 0.24075748686 
0.23596666155 0.23067046807 0.22498152397 0.21904751791 0.21303777913 0.20712772598 0.20148485816 0.19625944448 0.19158123272 
0.18756096914 0.18429319822 0.18185577219 0.18030263696 0.17964981899 0.17985888349 0.18082525201 0.18237828084 0.18429537002 
0.18632656748 0.18822318876 0.18976472302 0.19078050411 0.19116430022 0.19088079779 0.18996350714 0.18850446809 0.18663743661 
0.1845175983 0.1823015116 0.18013038334 0.1781181219 0.17634371517 0.17484625362 0.17362089205 0.17261509949 0.171726034 
0.17080101531 0.16964331448 0.16802467402 0.16570428432 0.16245186387 0.15807082205 0.15241703717 0.14540980852 0.13703354503 
0.12733093201 0.11639005528 0.10432894616 0.091281120294 0.077384926728 0.06277807416 0.047596949837 0.031978866418 0.01606472217 
1.0310378136e-15 
_area 1 100 double
0 0.00063166887157 0.0025138693577 0.0056085419266 0.009853372534 0.01516330406 0.021432540566 0.028537143783 0.036338283323 
0.044686024118 0.053423404842 0.062390643102 0.071429619916 0.080389244892 0.089132611 0.09754650537 0.10555239301 0.11311573632 
0.12024894347 0.12700426588 0.13345698935 0.13968379933 0.14574264494 0.15165833672 0.15741686568 0.16297733908 0.16832576287 
0.17353303744 0.17858018601 0.18324837631 0.18754410465 0.19118445195 0.19398776956 0.19587960315 0.1968187885 0.1967908386 
0.1958001464 0.19386721452 0.19103366605 0.18735514467 0.18291507001 0.17787626906 0.17254512559 0.16719333511 0.16155919995 
0.15536031982 0.14865656674 0.14166828077 0.13469539371 0.1280470203 0.12196601882 0.11656690349 0.11181680923 0.10757666541 
0.10368949519 0.10006810237 0.096736781642 0.093819743568 0.091488113028 0.089882293667 0.089044268407 0.088867409231 0.089084961781 
0.089386257973 0.089514422111 0.089303565946 0.088698630755 0.087727317107 0.086363744564 0.084535380309 0.082263375739 0.07967866331 
0.076976359317 0.074366418692 0.072034940954 0.070121905653 0.068715172278 0.067805209065 0.067251677012 0.066942732042 0.066802454429 
0.06680465649 0.066854422546 0.066664706443 0.065916780253 0.064284747377 0.061525251231 0.057539840509 0.052394623014 0.046303776551 
0.039587686875 0.032618349801 0.025765501054 0.01935468451 0.013643295961 0.0088146607888 0.0049857542253 0.0022224057331 0.00055634784546 
1.3888719825e-16 
