# vtk DataFile Version 5.1
vtk output
ASCII
DATASET POLYDATA
POINTS 100 float
0.10663 0.0653899 0.708837 0.106826 0.065574 0.708614 0.107483 0.0659823 0.707783 
0.108532 0.0665922 0.706365 0.109866 0.0673688 0.704394 0.111349 0.0682665 0.701906 
0.112832 0.069232 0.698934 0.114164 0.0702066 0.695506 0.11521 0.0711293 0.691631 
0.115856 0.0719397 0.687303 0.116019 0.0725807 0.682493 0.115651 0.0730013 0.677157 
0.114736 0.0731586 0.671238 0.113286 0.0730198 0.664674 0.11133 0.072564 0.657406 
0.108907 0.0717825 0.649385 0.106057 0.07068 0.640583 0.10281 0.0692743 0.630997 
0.0991803 0.0675961 0.62065 0.0951676 0.0656874 0.609592 0.0907548 0.0636 0.597895 
0.085914 0.0613932 0.585649 0.0806131 0.0591307 0.572949 0.0748244 0.0568774 0.55989 
0.0685325 0.0546955 0.546556 0.0617412 0.0526409 0.533014 0.0544778 0.0507601 0.519306 
0.0467933 0.0490871 0.505449 0.0387604 0.0476418 0.491434 0.0304672 0.046429 0.477232 
0.0220083 0.0454394 0.462794 0.0134754 0.0446515 0.448064 0.00494729 0.0440349 0.432979 
-0.00351775 0.0435547 0.41748 -0.0118875 0.0431767 0.401511 -0.020157 0.0428721 0.385026 
-0.0283457 0.0426225 0.367987 -0.0364903 0.0424237 0.350361 -0.0446353 0.0422876 0.332119 
-0.0528202 0.0422424 0.313234 -0.0610673 0.0423316 0.293678 -0.0693706 0.0426094 0.273419 
-0.0776871 0.0431364 0.252426 -0.0859328 0.0439723 0.230666 -0.0939832 0.0451694 0.208117 
-0.101679 0.046766 0.184766 -0.108837 0.0487805 0.160621 -0.115263 0.0512076 0.135714 
-0.12077 0.0540165 0.110108 -0.12519 0.0571522 0.083893 -0.128394 0.060538 0.0571914 
-0.130301 0.0640812 0.030147 -0.130884 0.0676801 0.00291933 -0.130172 0.0712315 -0.0243281 
-0.12825 0.0746384 -0.0514392 -0.125243 0.0778166 -0.0782772 -0.121312 0.0806997 -0.104734 
-0.11663 0.0832414 -0.130738 -0.111375 0.0854159 -0.156256 -0.105709 0.0872149 -0.181291 
-0.0997699 0.0886438 -0.205878 -0.0936596 0.0897146 -0.23007 -0.0874432 0.0904403 -0.253933 
-0.081148 0.0908276 -0.277523 -0.0747689 0.0908725 -0.300883 -0.0682761 0.0905568 -0.324026 
-0.0616255 0.0898481 -0.346933 -0.0547697 0.0887014 -0.369553 -0.0476686 0.0870644 -0.3918 
-0.0402976 0.0848838 -0.41357 -0.0326544 0.0821137 -0.434746 -0.0247619 0.0787231 -0.455216 
-0.016668 0.0747037 -0.474882 -0.00844333 0.0700749 -0.493678 -0.000176233 0.0648863 -0.511571 
0.00803351 0.0592176 -0.52857 0.0160812 0.0531746 -0.54472 0.0238634 0.0468828 -0.560097 
0.0312838 0.0404781 -0.574796 0.0382564 0.0340969 -0.588916 0.044709 0.027866 -0.602544 
0.0505835 0.0218928 -0.615743 0.0558366 0.0162587 -0.628537 0.0604392 0.0110146 -0.640913 
0.0643752 0.00617999 -0.652811 0.0676415 0.0017458 -0.664134 0.0702475 -0.00232023 -0.674762 
0.0722153 -0.00606547 -0.684562 0.0735803 -0.00954313 -0.693405 0.0743914 -0.0128029 -0.701189 
0.0747117 -0.0158826 -0.707846 0.0746175 -0.018802 -0.713356 0.0741969 -0.0215591 -0.717754 
0.0735465 -0.02413 -0.72112 0.0727677 -0.0264719 -0.723579 0.0719609 -0.0285283 -0.72528 
0.0712201 -0.0302368 -0.726385 0.0706263 -0.0315369 -0.727044 0.0702422 -0.0323785 -0.727379 
0.0701076 -0.0327281 -0.727471 
LINES 2 100
OFFSETS vtktypeint64
0 100 
CONNECTIVITY vtktypeint64
0 1 2 3 4 5 6 7 8 
9 10 11 12 13 14 15 16 17 
18 19 20 21 22 23 24 25 26 
27 28 29 30 31 32 33 34 35 
36 37 38 39 40 41 42 43 44 
45 46 47 48 49 50 51 52 53 
54 55 56 57 58 59 60 61 62 
63 64 65 66 67 68 69 70 71 
72 73 74 75 76 77 78 79 80 
81 82 83 84 85 86 87 88 89 
90 91 92 93 94 95 96 97 98 
99 
POINT_DATA 100
FIELD FieldData 3
_theta 1 100 double
0 0.031733259127 0.063466518254 0.095199777382 0.12693303651 0.15866629564 0.19039955476 0.22213281389 0.25386607302 
0.28559933214 0.31733259127 0.3490658504 0.38079910953 0.41253236865 0.44426562778 0.47599888691 0.50773214603 0.53946540516 
0.57119866429 0.60293192342 0.63466518254 0.66639844167 0.6981317008 0.72986495992 0.76159821905 0.79333147818 0.82506473731 
0.85679799643 0.88853125556 0.92026451469 0.95199777382 0.98373103294 1.0154642921 1.0471975512 1.0789308103 1.1106640695 
1.1423973286 1.1741305877 1.2058638468 1.237597106 1.2693303651 1.3010636242 1.3327968833 1.3645301425 1.3962634016 
1.4279966607 1.4597299198 1.491463179 1.5231964381 1.5549296972 1.5866629564 1.6183962155 1.6501294746 1.6818627337 
1.7135959929 1.745329252 1.7770625111 1.8087957702 1.8405290294 1.8722622885 1.9039955476 1.9357288068 1.9674620659 
1.999195325 2.0309285841 2.0626618433 2.0943951024 2.1261283615 2.1578616206 2.1895948798 2.2213281389 2.253061398 
2.2847946572 2.3165279163 2.3482611754 2.3799944345 2.4117276937 2.4434609528 2.4751942119 2.506927471 2.5386607302 
2.5703939893 2.6021272484 2.6338605076 2.6655937667 2.6973270258 2.7290602849 2.7607935441 2.7925268032 2.8242600623 
2.8559933214 2.8877265806 2.9194598397 2.9511930988 2.982926358 3.0146596171 3.0463928762 3.0781261353 3.1098593945 
3.1415926536 
_radius 1 100 double
1.887634231e-15 0.015045621783 0.029961823391 0.044623737542 0.058924306299 0.072779857317 0.086132211931 0.098947279544 0.11121067186 
0.12292126026 0.13408378504 0.14470170922 0.15477158533 0.16428010264 0.17320433234 0.18151455965 0.1891783013 0.19616428236 
0.20244596632 0.20800495692 0.21283475418 0.21694492652 0.22036508296 0.22314752467 0.22536736491 0.22711921059 0.22851006352 
0.22964880972 0.23063343266 0.23153778246 0.23240016504 0.23321599619 0.23393622464 0.23447225729 0.23470693422 0.23450998473 
0.23375564174 0.23233988817 0.23019513336 0.22730076311 0.22368872399 0.21944391945 0.21469964338 0.20962856102 0.20442991721 
0.19931380351 0.19448357235 0.19011794574 0.1863549737 0.18328044637 0.18092315405 0.17925817107 0.17821733733 0.17770415911 
0.177609371 0.17782380713 0.17824674038 0.17878971024 0.17937723403 0.17994617981 0.18044508131 0.18083387482 0.18108397373 
0.18117841878 0.18111190389 0.18089056554 0.18053138807 0.18006094778 0.17951321053 0.17892634104 0.17833880724 0.1777852235 
0.17729234667 0.17687552454 0.17653570829 0.17625686633 0.17600348582 0.17571812516 0.17531962786 0.17470312632 0.1737428832 
0.17229832761 0.17022274646 0.16737344668 0.16362201955 0.1588635254 0.15302375538 0.14606404478 0.13798335502 0.12881753594 
0.11863586935 0.1075352048 0.095632226852 0.083054618457 0.069932074876 0.056388232573 0.042534556982 0.028467036625 0.014266145331 
1.2213574338e-15 
_area 1 100 double
0 0.00051472534403 0.0020396360973 0.0045199126436 0.00787363548 0.012004355843 0.016815448763 0.02222274628 0.028160762484 
0.034577642024 0.041417038358 0.048593116063 0.055974043742 0.063388776302 0.070656976955 0.077626643922 0.084201408194 0.090346310233 
0.096070562034 0.1013959811 0.10632810166 0.11084792439 0.11493092254 0.11858145634 0.12185834717 0.12486869128 0.12772682789 
0.13050899192 0.13323889112 0.13589935504 0.13844385434 0.1407983001 0.14285955088 0.14449947929 0.14557911926 0.14597168091 
0.1455877389 0.14438630561 0.14234157848 0.13940214553 0.13555017737 0.13087050431 0.12554706437 0.11982925734 0.11399638902 
0.10832728356 0.10307608723 0.098451104575 0.094592397921 0.091550861044 0.089281369145 0.087659449619 0.086515754673 0.085674669186 
0.084985915133 0.0843437529 0.083694275609 0.083034261687 0.082402057029 0.081855369174 0.081426846742 0.081089018476 0.080759102002 
0.080334796559 0.079735111969 0.078904371475 0.077814171146 0.076464283217 0.074888271755 0.073155301926 0.071369009885 0.069666795868 
0.068196029562 0.067050203797 0.066276738988 0.065916028372 0.066025786823 0.066694384574 0.067650792411 0.068699224899 0.069638498058 
0.07024173858 0.070277554641 0.069538018892 0.067864432791 0.065166166862 0.06143062045 0.056724249829 0.051185862053 0.045013979957 
0.038450141594 0.031759781279 0.025212227605 0.019061586393 0.013530716339 0.0088006117718 0.0050066840736 0.002241641405 0.00056272155973 
2.8667713217e-17 
