# vtk DataFile Version 5.1
vtk output
ASCII
DATASET POLYDATA
POINTS 100 float
0.131761 0.0400283 0.802434 0.131768 0.0403226 0.801939 0.131845 0.0410405 0.800393 
0.131969 0.0421401 0.797869 0.132108 0.0435578 0.794474 0.132223 0.0452145 0.790345 
0.132278 0.047025 0.785633 0.132243 0.0489063 0.780486 0.132101 0.050786 0.775042 
0.131852 0.0526091 0.769408 0.131515 0.0543416 0.763657 0.13112 0.0559722 0.757823 
0.130713 0.0575103 0.751897 0.13034 0.0589812 0.745832 0.130043 0.0604197 0.739552 
0.129854 0.0618625 0.732961 0.129781 0.06334 0.725953 0.129807 0.0648698 0.718425 
0.129888 0.0664513 0.710289 0.129947 0.0680631 0.701475 0.129887 0.0696631 0.691943 
0.129592 0.0711916 0.68168 0.128935 0.0725764 0.6707 0.127798 0.0737398 0.659045 
0.126073 0.0746063 0.646774 0.123679 0.07511 0.633957 0.120564 0.075202 0.620672 
0.116715 0.0748546 0.606994 0.112153 0.0740641 0.592992 0.106933 0.0728515 0.578726 
0.101136 0.0712602 0.564242 0.0948573 0.0693522 0.549571 0.0881979 0.0672028 0.534735 
0.0812521 0.0648952 0.519742 0.0740971 0.0625145 0.504587 0.0667863 0.0601433 0.489261 
0.0593446 0.0578574 0.473743 0.0517691 0.0557243 0.458004 0.044033 0.053802 0.442012 
0.0360937 0.0521393 0.425721 0.027903 0.0507776 0.409081 0.01942 0.0497519 0.392034 
0.0106226 0.0490924 0.374514 0.00151899 0.0488252 0.356453 -0.00784457 0.0489726 0.337779 
-0.0173792 0.0495515 0.318423 -0.0269533 0.0505722 0.298324 -0.0363971 0.0520357 0.27743 
-0.0455115 0.0539317 0.255704 -0.0540797 0.0562365 0.233129 -0.0618819 0.0589121 0.209706 
-0.06871 0.0619062 0.185456 -0.0743825 0.0651542 0.160423 -0.0787562 0.0685822 0.134664 
-0.0817363 0.0721112 0.108253 -0.083281 0.0756619 0.0812723 -0.0834026 0.0791603 0.0538111 
-0.0821644 0.082542 0.0259613 -0.0796729 0.0857559 -0.00218441 -0.0760682 0.0887662 -0.0305341 
-0.0715113 0.0915531 -0.0589963 -0.066172 0.0941105 -0.0874794 -0.0602157 0.096443 -0.11589 
-0.0537935 0.0985615 -0.14413 -0.0470335 0.100478 -0.172099 -0.0400357 0.1022 -0.199689 
-0.0328697 0.103727 -0.226792 -0.025576 0.105048 -0.253296 -0.0181694 0.106139 -0.279096 
-0.0106452 0.106965 -0.304094 -0.00298581 0.107485 -0.328208 0.00483134 0.107653 -0.351375 
0.0128268 0.107428 -0.373559 0.0210128 0.106777 -0.394748 0.0293885 0.105681 -0.414959 
0.0379371 0.104144 -0.43423 0.0466247 0.102189 -0.452618 0.0554011 0.0998656 -0.47019 
0.0642024 0.0972424 -0.487012 0.072954 0.0944073 -0.503141 0.0815751 0.0914604 -0.518615 
0.0899831 0.0885071 -0.533448 0.0980981 0.0856508 -0.547623 0.105846 0.0829863 -0.561095 
0.113164 0.0805931 -0.573791 0.119999 0.078531 -0.585622 0.126313 0.0768372 -0.596488 
0.132079 0.0755258 -0.606295 0.137285 0.0745884 -0.614966 0.141929 0.0739972 -0.622449 
0.146021 0.0737086 -0.628733 0.149577 0.0736681 -0.633844 0.15262 0.0738149 -0.637854 
0.155176 0.0740863 -0.640872 0.157272 0.0744218 -0.643036 0.158934 0.0747663 -0.6445 
0.160188 0.0750722 -0.64542 0.161054 0.0753011 -0.645939 0.161547 0.0754248 -0.646173 
0.161679 0.075426 -0.646195 
LINES 2 100
OFFSETS vtktypeint64
0 100 
CONNECTIVITY vtktypeint64
0 1 2 3 4 5 6 7 8 
9 10 11 12 13 14 15 16 17 
18 19 20 21 22 23 24 25 26 
27 28 29 30 31 32 33 34 35 
36 37 38 39 40 41 42 43 44 
45 46 47 48 49 50 51 52 53 
54 55 56 57 58 59 60 61 62 
63 64 65 66 67 68 69 70 71 
72 73 74 75 76 77 78 79 80 
81 82 83 84 85 86 87 88 89 
90 91 92 93 94 95 96 97 98 
99 
POINT_DATA 100
FIELD FieldData 3
_theta 1 100 double
0 0.031733259127 0.063466518254 0.095199777382 0.12693303651 0.15866629564 0.19039955476 0.22213281389 0.25386607302 
0.28559933214 0.31733259127 0.3490658504 0.38079910953 0.41253236865 0.44426562778 0.47599888691 0.50773214603 0.53946540516 
0.57119866429 0.60293192342 0.63466518254 0.66639844167 0.6981317008 0.72986495992 0.76159821905 0.79333147818 0.82506473731 
0.85679799643 0.88853125556 0.92026451469 0.95199777382 0.98373103294 1.0154642921 1.0471975512 1.0789308103 1.1106640695 
1.1423973286 1.1741305877 1.2058638468 1.237597106 1.2693303651 1.3010636242 1.3327968833 1.3645301425 1.3962634016 
1.4279966607 1.4597299198 1.491463179 1.5231964381 1.5549296972 1.5866629564 1.6183962155 1.6501294746 1.6818627337 
1.7135959929 1.745329252 1.7770625111 1.8087957702 1.8405290294 1.8722622885 1.9039955476 1.9357288068 1.9674620659 
1.999195325 2.0309285841 2.0626618433 2.0943951024 2.1261283615 2.1578616206 2.1895948798 2.2213281389 2.253061398 
2.2847946572 2.3165279163 2.3482611754 2.3799944345 2.4117276937 2.4434609528 2.4751942119 2.506927471 2.5386607302 
2.5703939893 2.6021272484 2.6338605076 2.6655937667 2.6973270258 2.7290602849 2.7607935441 2.7925268032 2.8242600623 
2.8559933214 2.8877265806 2.9194598397 2.9511930988 2.982926358 3.0146596171 3.0463928762 3.0781261353 3.1098593945 
3.1415926536 
_radius 1 100 double
8.3682024819e-16 0.012986152642 0.025977897828 0.03897417401 0.05196689273 0.064938116348 0.077857997727 0.09068383672 0.10336043874 
0.11582157704 0.12799184378 0.13978785952 0.15111850625 0.16188609964 0.17199181841 0.18134555123 0.1898759441 0.19753675126 
0.20430860956 0.21019715971 0.21522884435 0.21944562766 0.2228995936 0.22564783619 0.2277474229 0.22925063143 0.23020392592 
0.23065568913 0.23066799008 0.230322499 0.22971819434 0.22896264531 0.22815903867 0.22739157086 0.22671205635 0.22613014244 
0.22560865903 0.22506478728 0.22437704704 0.22339753286 0.22196832384 0.21994055036 0.21719423973 0.21365681318 0.20931800544 
0.2042390354 0.19855404809 0.19246219713 0.18620949556 0.18006128816 0.17426924077 0.16903998067 0.16451314045 0.16075306771 
0.15775348928 0.15545148097 0.15374631906 0.15251873974 0.15164677081 0.15101611848 0.15052557148 0.15008980389 0.14964234386 
0.14914014031 0.14856886893 0.1479462715 0.14732051129 0.14676180583 0.14634784523 0.14614620559 0.14619937539 0.14651804692 
0.1470842364 0.14786019786 0.14879676041 0.1498363983 0.15091028918 0.15193347683 0.15280418957 0.15340912564 0.15363115849 
0.15335559124 0.15247394345 0.15088619435 0.14850258591 0.14524545105 0.14105090542 0.13586997136 0.12966881719 0.1224281708 
0.11414241316 0.10481916719 0.094480195658 0.083164043231 0.070930186922 0.057863722875 0.044079096894 0.029721303543 0.014963400582 
6.6015374611e-16 
_area 1 100 double
0 0.0003544789436 0.0014109868386 0.0031495055756 0.0055393754621 0.0085438448045 0.012127435687 0.016267289996 0.020970529211 
0.02629888138 0.032383888972 0.039367135209 0.047258545254 0.055879894249 0.064920626618 0.07400638916 0.082754480708 0.090820154495 
0.097934764884 0.10393376006 0.10877108036 0.11251691208 0.11533936556 0.11747703389 0.11921332384 0.12086030959 0.12267526933 
0.12459026075 0.12644142054 0.12825878333 0.12996960394 0.13154196475 0.13303521517 0.13455342097 0.13618049438 0.13798715742 
0.13962350146 0.14097361244 0.14191196336 0.14229292437 0.14195161354 0.14071575935 0.13843247118 0.13500631488 0.13043845387 
0.12485360148 0.11850374614 0.11174339587 0.10497492404 0.098570061472 0.092800715912 0.087818592991 0.083670250255 0.08031349278 
0.077634586127 0.075476553818 0.073671339521 0.072066368854 0.070543016958 0.06902386482 0.06746717472 0.06585484667 0.064183130792 
0.062459751919 0.060706681238 0.058966671977 0.057309689995 0.055832928633 0.054640487195 0.053807857333 0.053363426701 0.053289201628 
0.053531766305 0.054024197313 0.054706571812 0.055533259698 0.056468616809 0.057490593937 0.058569490885 0.059629020923 0.060549538804 
0.06120630407 0.061459642604 0.061140556408 0.060080261381 0.058155508283 0.055312256679 0.051569522649 0.047014844596 0.041795641287 
0.03610693596 0.030175866907 0.024244473499 0.018553050977 0.01332632204 0.0087637297624 0.0050337179156 0.0022706495514 0.00057272371539 
8.5120777452e-17 
