# vtk DataFile Version 5.1
vtk output
ASCII
DATASET POLYDATA
POINTS 100 float
0.121472 0.0753172 0.787467 0.121464 0.075356 0.787081 0.121507 0.0753213 0.785798 
0.121589 0.0752313 0.783648 0.121692 0.0751148 0.780684 0.121787 0.0750081 0.776964 
0.12184 0.0749499 0.772552 0.121806 0.0749771 0.767506 0.121634 0.0751199 0.761868 
0.121266 0.0753974 0.755665 0.120642 0.0758145 0.748903 0.119702 0.0763598 0.741572 
0.118389 0.0770055 0.733649 0.116652 0.0777079 0.725105 0.114451 0.0784108 0.715913 
0.111763 0.0790489 0.706059 0.108575 0.0795525 0.695544 0.104894 0.079853 0.68439 
0.100742 0.0798882 0.672641 0.0961515 0.0796069 0.66036 0.091168 0.0789732 0.647623 
0.0858411 0.0779694 0.634511 0.0802222 0.0765974 0.621104 0.0743598 0.0748792 0.607468 
0.0682956 0.0728552 0.593654 0.0620626 0.0705823 0.579692 0.0556829 0.0681297 0.565591 
0.0491688 0.0655752 0.551343 0.0425231 0.0630002 0.536929 0.0357426 0.0604851 0.522325 
0.0288204 0.0581048 0.507514 0.0217495 0.0559247 0.492487 0.0145257 0.0539978 0.477251 
0.00714954 0.0523618 0.461829 -0.000372017 0.0510387 0.446255 -0.0080258 0.050034 0.430563 
-0.0157931 0.0493377 0.414784 -0.0236514 0.0489263 0.398927 -0.0315761 0.048765 0.38297 
-0.0395429 0.0488112 0.366848 -0.0475287 0.0490182 0.350455 -0.055512 0.0493386 0.333636 
-0.0634729 0.0497285 0.3162 -0.0713904 0.0501512 0.297935 -0.0792396 0.0505797 0.278622 
-0.0869888 0.0509994 0.258059 -0.0945949 0.0514098 0.236087 -0.102001 0.0518243 0.212607 
-0.109133 0.05227 0.187596 -0.115902 0.0527857 0.161119 -0.122201 0.0534187 0.133325 
-0.127915 0.0542215 0.104443 -0.132922 0.0552465 0.0747594 -0.137101 0.0565418 0.0445978 
-0.140341 0.0581455 0.0142895 -0.142553 0.0600813 -0.0158556 -0.14367 0.0623545 -0.0455752 
-0.143659 0.064949 -0.0746757 -0.142524 0.0678254 -0.103045 -0.140304 0.0709216 -0.130654 
-0.137074 0.074154 -0.157554 -0.132938 0.0774207 -0.183855 -0.128023 0.0806066 -0.209707 
-0.12247 0.0835891 -0.235275 -0.116423 0.0862449 -0.260707 -0.11002 0.0884569 -0.286113 
-0.103387 0.090121 -0.311547 -0.0966283 0.0911528 -0.336998 -0.0898253 0.0914919 -0.362387 
-0.0830349 0.0911059 -0.387579 -0.0762914 0.089992 -0.412398 -0.0696101 0.0881771 -0.43665 
-0.0629932 0.0857154 -0.460146 -0.0564363 0.0826852 -0.482725 -0.0499345 0.0791835 -0.504276 
-0.0434881 0.0753201 -0.524744 -0.0371062 0.0712114 -0.544139 -0.030809 0.0669732 -0.562524 
-0.0246279 0.0627151 -0.580008 -0.0186028 0.0585351 -0.596719 -0.0127797 0.0545156 -0.612786 
-0.00720558 0.0507208 -0.628315 -0.00192413 0.0471955 -0.643368 0.0030284 0.0439655 -0.657952 
0.00762637 0.0410393 -0.672013 0.0118564 0.0384109 -0.68544 0.0157176 0.0360631 -0.698082 
0.0192197 0.0339716 -0.709762 0.0223808 0.0321086 -0.720305 0.0252237 0.0304461 -0.729561 
0.0277717 0.0289594 -0.737428 0.0300454 0.0276287 -0.743868 0.03206 0.0264404 -0.748916 
0.0338234 0.0253874 -0.752677 0.0353363 0.0244685 -0.755317 0.0365924 0.0236872 -0.757041 
0.0375816 0.0230499 -0.758074 0.0382914 0.0225642 -0.758624 0.0387104 0.0222373 -0.758868 
0.0388309 0.022074 -0.758917 
LINES 2 100
OFFSETS vtktypeint64
0 100 
CONNECTIVITY vtktypeint64
0 1 2 3 4 5 6 7 8 
9 10 11 12 13 14 15 16 17 
18 19 20 21 22 23 24 25 26 
27 28 29 30 31 32 33 34 35 
36 37 38 39 40 41 42 43 44 
45 46 47 48 49 50 51 52 53 
54 55 56 57 58 59 60 61 62 
63 64 65 66 67 68 69 70 71 
72 73 74 75 76 77 78 79 80 
81 82 83 84 85 86 87 88 89 
90 91 92 93 94 95 96 97 98 
99 
POINT_DATA 100
FIELD FieldData 3
_theta 1 100 double
0 0.031733259127 0.063466518254 0.095199777382 0.12693303651 0.15866629564 0.19039955476 0.22213281389 0.25386607302 
0.28559933214 0.31733259127 0.3490658504 0.38079910953 0.41253236865 0.44426562778 0.47599888691 0.50773214603 0.53946540516 
0.57119866429 0.60293192342 0.63466518254 0.66639844167 0.6981317008 0.72986495992 0.76159821905 0.79333147818 0.82506473731 
0.85679799643 0.88853125556 0.92026451469 0.95199777382 0.98373103294 1.0154642921 1.0471975512 1.0789308103 1.1106640695 
1.1423973286 1.1741305877 1.2058638468 1.237597106 1.2693303651 1.3010636242 1.3327968833 1.3645301425 1.3962634016 
1.4279966607 1.4597299198 1.491463179 1.5231964381 1.5549296972 1.5866629564 1.6183962155 1.6501294746 1.6818627337 
1.7135959929 1.745329252 1.7770625111 1.8087957702 1.8405290294 1.8722622885 1.9039955476 1.9357288068 1.9674620659 
1.999195325 2.0309285841 2.0626618433 2.0943951024 2.1261283615 2.1578616206 2.1895948798 2.2213281389 2.253061398 
2.2847946572 2.3165279163 2.3482611754 2.3799944345 2.4117276937 2.4434609528 2.4751942119 2.506927471 2.5386607302 
2.5703939893 2.6021272484 2.6338605076 2.6655937667 2.6973270258 2.7290602849 2.7607935441 2.7925268032 2.8242600623 
2.8559933214 2.8877265806 2.9194598397 2.9511930988 2.982926358 3.0146596171 3.0463928762 3.0781261353 3.1098593945 
3.1415926536 
_radius 1 100 double
1.7824720557e-15 0.015250318887 0.030267081246 0.044831152696 0.05875897224 0.071915473468 0.08422155621 0.095655296025 0.10624691692 
0.11606844459 0.12521969565 0.13381263363 0.14195605241 0.14974215195 0.15723609301 0.16446925476 0.17143668998 0.1780990589 
0.18438899749 0.19022142127 0.19550675107 0.20016556581 0.20414281413 0.20741952728 0.21002006816 0.21201340309 0.21350769629 
0.21463858293 0.21555256557 0.21638787419 0.21725563963 0.21822420599 0.21930879317 0.22046765894 0.22160477377 0.22257822788 
0.22321331798 0.22331931551 0.2227088988 0.22121890032 0.21873050149 0.21518664205 0.21060443426 0.205080789 0.19879012797 
0.19197381344 0.1849216767 0.17794681594 0.17135586281 0.16541837018 0.16034061478 0.15624984565 0.15319315416 0.15115015959 
0.15005311464 0.1498058244 0.15029508694 0.15139291959 0.15295256251 0.15480532567 0.15676631221 0.15865184535 0.16030297846 
0.16160561121 0.16250068952 0.16298291598 0.16308972163 0.16288440112 0.16243896276 0.16182174991 0.16109151095 0.16029630295 
0.15947479052 0.15865804258 0.15787043543 0.1571287822 0.15643959878 0.15579524711 0.15517013007 0.15451797126 0.15377072209 
0.15283916328 0.15161502634 0.14997446869 0.14778286994 0.14490098585 0.14119236866 0.13653165543 0.13081298946 0.12395764376 
0.11591995518 0.10669093745 0.096299326437 0.084810203432 0.072321647125 0.05896003704 0.044874668332 0.030232264542 0.015211820484 
2.3375217571e-16 
_area 1 100 double
0 0.00052057825608 0.0020494869107 0.0044955147814 0.0077283997008 0.011603753379 0.015985496149 0.020759357861 0.025835276893 
0.03114118165 0.036613257888 0.042187692644 0.047797032972 0.053371989309 0.058847495296 0.064170399428 0.069305463509 0.074236537671 
0.078960979818 0.083477729956 0.087773302215 0.091814461329 0.095556662985 0.098968926983 0.10206437253 0.10492158141 0.10768626986 
0.11054831412 0.11369062573 0.11722060606 0.12112541437 0.12528403491 0.12954530171 0.13379963912 0.1377336199 0.1411224559 
0.14375907316 0.1453228781 0.14553958108 0.1441842258 0.14111764468 0.13634084144 0.13004817821 0.12260348417 0.11457921868 
0.10665247841 0.099055766742 0.091939907795 0.085551678593 0.080092779766 0.075684214769 0.072340657269 0.069937018399 0.068258207968 
0.067127077445 0.066508487458 0.066522301586 0.067259174488 0.068702537563 0.070374512128 0.072135419342 0.073497643772 0.074338513058 
0.074474024529 0.073873297794 0.072578646956 0.070724640016 0.06849365375 0.06608878572 0.063709239831 0.061468188819 0.059388569319 
0.05754306762 0.055930652505 0.054521216862 0.053293443457 0.052302113717 0.051668140096 0.051549887827 0.052077651194 0.053113465346 
0.05429282262 0.055302773477 0.055887678791 0.05582927154 0.054950976464 0.053129951937 0.050310040306 0.046512162166 0.04183916923 
0.036472538061 0.030659472597 0.024690969907 0.018873604217 0.013499524589 0.0088200283047 0.0050278767247 0.0022520162057 0.00056516860325 
2.5237575613e-17 
