# vtk DataFile Version 5.1
vtk output
ASCII
DATASET POLYDATA
POINTS 100 float
0.157277 0.0645059 0.791088 0.157372 0.0646808 0.790826 0.157675 0.0650579 0.789847 
0.158123 0.0656075 0.788172 0.158619 0.0662827 0.785836 0.159048 0.067023 0.782875 
0.159282 0.0677602 0.779326 0.159205 0.068424 0.775214 0.158718 0.0689486 0.770547 
0.157755 0.0692778 0.765317 0.156284 0.0693706 0.759495 0.154313 0.0692043 0.753036 
0.151883 0.0687763 0.745886 0.14906 0.0681036 0.737986 0.145927 0.0672211 0.729287 
0.142565 0.0661771 0.719755 0.139044 0.0650278 0.709381 0.13541 0.0638317 0.698189 
0.131681 0.0626421 0.686233 0.127838 0.0615015 0.673601 0.123832 0.0604366 0.660404 
0.119584 0.0594545 0.646774 0.115002 0.0585419 0.632847 0.109987 0.057666 0.618756 
0.10445 0.0567779 0.604613 0.0983183 0.0558182 0.590507 0.0915518 0.0547237 0.576492 
0.0841426 0.0534357 0.562585 0.0761189 0.0519079 0.548765 0.0675407 0.0501131 0.53498 
0.0584927 0.0480497 0.521154 0.0490743 0.0457443 0.507193 0.0393878 0.0432529 0.493 
0.0295276 0.040659 0.47848 0.01957 0.0380685 0.46355 0.00956714 0.035603 0.448144 
-0.000455715 0.0333912 0.432215 -0.0104988 0.0315591 0.415734 -0.0205823 0.0302213 0.398687 
-0.0307376 0.0294719 0.381067 -0.0409968 0.0293785 0.362874 -0.0513816 0.0299775 0.344104 
-0.0618933 0.0312727 0.324747 -0.072505 0.0332363 0.304787 -0.0831572 0.0358128 0.284199 
-0.0937578 0.0389237 0.262954 -0.104185 0.042475 0.241025 -0.114296 0.0463642 0.218393 
-0.123936 0.0504873 0.195051 -0.132947 0.0547446 0.171016 -0.141185 0.0590456 0.146327 
-0.148525 0.0633116 0.12105 -0.154873 0.0674765 0.0952735 -0.160166 0.0714865 0.0691066 
-0.164381 0.0752978 0.0426694 -0.167525 0.0788741 0.0160846 -0.169636 0.082184 -0.0105324 
-0.170776 0.0851983 -0.0370826 -0.17102 0.0878888 -0.0634911 -0.170453 0.0902274 -0.0897112 
-0.169158 0.0921871 -0.115726 -0.167218 0.093743 -0.141546 -0.164703 0.0948754 -0.167203 
-0.161677 0.0955712 -0.192743 -0.158196 0.0958266 -0.218214 -0.154305 0.0956482 -0.243658 
-0.150048 0.0950533 -0.269103 -0.145463 0.0940688 -0.294552 -0.14059 0.0927286 -0.319984 
-0.135467 0.0910708 -0.345347 -0.130133 0.0891336 -0.370567 -0.124624 0.0869509 -0.39555 
-0.118975 0.08455 -0.420189 -0.113217 0.0819485 -0.444372 -0.107373 0.0791538 -0.467993 
-0.101463 0.0761647 -0.490956 -0.0955011 0.0729737 -0.513181 -0.0894974 0.0695716 -0.534605 
-0.0834638 0.0659526 -0.555182 -0.0774162 0.0621199 -0.574881 -0.0713786 0.0580904 -0.593681 
-0.0653871 0.0538988 -0.611562 -0.0594915 0.0495988 -0.628509 -0.0537555 0.0452628 -0.644495 
-0.0482549 0.0409783 -0.659491 -0.0430733 0.036843 -0.67346 -0.0382959 0.0329569 -0.686358 
-0.0340021 0.0294142 -0.698145 -0.0302575 0.0262946 -0.708784 -0.0271069 0.0236559 -0.718252 
-0.0245678 0.021528 -0.726541 -0.022628 0.01991 -0.733667 -0.0212445 0.0187697 -0.739668 
-0.0203471 0.0180471 -0.744603 -0.0198444 0.0176609 -0.748549 -0.0196325 0.0175164 -0.751595 
-0.0196057 0.0175162 -0.75383 -0.0196672 0.0175706 -0.755337 -0.0197395 0.0176074 -0.756185 
-0.0197724 0.0175797 -0.756418 
LINES 2 100
OFFSETS vtktypeint64
0 100 
CONNECTIVITY vtktypeint64
0 1 2 3 4 5 6 7 8 
9 10 11 12 13 14 15 16 17 
18 19 20 21 22 23 24 25 26 
27 28 29 30 31 32 33 34 35 
36 37 38 39 40 41 42 43 44 
45 46 47 48 49 50 51 52 53 
54 55 56 57 58 59 60 61 62 
63 64 65 66 67 68 69 70 71 
72 73 74 75 76 77 78 79 80 
81 82 83 84 85 86 87 88 89 
90 91 92 93 94 95 96 97 98 
99 
POINT_DATA 100
FIELD FieldData 3
_theta 1 100 double
0 0.031733259127 0.063466518254 0.095199777382 0.12693303651 0.15866629564 0.19039955476 0.22213281389 0.25386607302 
0.28559933214 0.31733259127 0.3490658504 0.38079910953 0.41253236865 0.44426562778 0.47599888691 0.50773214603 0.53946540516 
0.57119866429 0.60293192342 0.63466518254 0.66639844167 0.6981317008 0.72986495992 0.76159821905 0.79333147818 0.82506473731 
0.85679799643 0.88853125556 0.92026451469 0.95199777382 0.98373103294 1.0154642921 1.0471975512 1.0789308103 1.1106640695 
1.1423973286 1.1741305877 1.2058638468 1.237597106 1.2693303651 1.3010636242 1.3327968833 1.3645301425 1.3962634016 
1.4279966607 1.4597299198 1.491463179 1.5231964381 1.5549296972 1.5866629564 1.6183962155 1.6501294746 1.6818627337 
1.7135959929 1.745329252 1.7770625111 1.8087957702 1.8405290294 1.8722622885 1.9039955476 1.9357288068 1.9674620659 
1.999195325 2.0309285841 2.0626618433 2.0943951024 2.1261283615 2.1578616206 2.1895948798 2.2213281389 2.253061398 
2.2847946572 2.3165279163 2.3482611754 2.3799944345 2.4117276937 2.4434609528 2.4751942119 2.506927471 2.5386607302 
2.5703939893 2.6021272484 2.6338605076 2.6655937667 2.6973270258 2.7290602849 2.7607935441 2.7925268032 2.8242600623 
2.8559933214 2.8877265806 2.9194598397 2.9511930988 2.982926358 3.0146596171 3.0463928762 3.0781261353 3.1098593945 
3.1415926536 
_radius 1 100 double
4.621532547e-16 0.013087169067 0.026200065977 0.039350229284 0.052536239676 0.065738361569 0.078914754535 0.09200019669 0.10490800504 
0.11753518271 0.12977002198 0.14150081447 0.15262421916 0.16305221605 0.17271719275 0.18157524946 0.18960802887 0.19682326914 
0.20325402998 0.20895639812 0.21400554669 0.21849022645 0.22250594285 0.22614714778 0.22949883651 0.23262815178 0.23557699963 
0.2383570424 0.24094833571 0.24330209685 0.2453469502 0.24699716926 0.24816136787 0.24875063429 0.24868574652 0.24790346673 
0.24636194269 0.24404514675 0.24096624868 0.23716984691 0.23273292414 0.22776418137 0.22240119882 0.21680493156 0.21115146946 
0.20562161809 0.20038940745 0.19561091603 0.19141479998 0.18789570748 0.18511129171 0.18308268099 0.18179716038 0.18121114747 
0.18125206678 0.18181932736 0.18278608495 0.18400366994 0.18530953531 0.18653828691 0.18753452215 0.18816586289 0.18833447879 
0.1879854744 0.18711088376 0.18574875325 0.18397770843 0.18190814653 0.17967151271 0.17740898927 0.17526056701 0.17335505572 
0.171801073 0.17067858121 0.17003075551 0.16985693551 0.1701081621 0.17068658917 0.17144917714 0.17221521182 0.17277671794 
0.17291072197 0.17239239565 0.17100823933 0.16856855724 0.16491850097 0.15994693791 0.15359241261 0.14584558917 0.13674782707 
0.12638592735 0.11488352814 0.10239004881 0.089068412389 0.075082963369 0.060589009211 0.045725230797 0.030609836224 0.015340809391 
6.5171775038e-16 
_area 1 100 double
0 0.00049275493712 0.0019768123953 0.004467204243 0.0079813043649 0.012527948052 0.01809393201 0.024630339815 0.03204206222 
0.04018404111 0.048866698423 0.057870706391 0.066968317073 0.075946060436 0.084623064208 0.092861209688 0.10056703702 0.10768869223 
0.11421223373 0.120159822 0.12558933972 0.13059327928 0.13529518911 0.13984258723 0.14439255581 0.14908158297 0.15397876845 
0.15904826843 0.16415140229 0.16908037783 0.17359620005 0.17745969259 0.18045651748 0.18241543659 0.18321636635 0.18278709294 
0.18109295286 0.1781283314 0.17391884216 0.16853642876 0.16211957281 0.1548854029 0.14712375146 0.13917125448 0.13137139173 
0.12403131815 0.11738626498 0.11157768155 0.10664950407 0.1025754742 0.099330101673 0.096692031709 0.094524985357 0.092777347342 
0.091414739205 0.090398139538 0.089677549677 0.089195713172 0.088932960835 0.088795607911 0.088615102172 0.088195756194 0.087352502134 
0.085968871091 0.084031479791 0.081634602193 0.078955659841 0.076211439747 0.073606310282 0.071288765781 0.06933835063 0.06778492036 
0.066638244154 0.065910329033 0.065619247601 0.065773948703 0.066353335631 0.067292848256 0.068482388126 0.069772573728 0.070984718047 
0.071920366162 0.07236867857 0.072114929094 0.07095651763 0.068729036962 0.065336823529 0.060778154685 0.055157231106 0.048679618513 
0.041632001838 0.034350312736 0.027182423668 0.020452406054 0.01443267963 0.0093283854905 0.0052754261056 0.0023504330199 0.00058813724274 
9.5573341752e-18 
