# vtk DataFile Version 5.1
vtk output
ASCII
DATASET POLYDATA
POINTS 100 float
0.111323 0.0256557 0.682043 0.11129 0.0258981 0.681664 0.111224 0.0264949 0.680415 
0.111096 0.0274163 0.678336 0.110856 0.0286168 0.675484 0.110445 0.0300397 0.67193 
0.1098 0.0316223 0.667749 0.108859 0.0333013 0.663004 0.107571 0.0350178 0.657747 
0.105899 0.03672 0.652003 0.103822 0.0383657 0.645776 0.101339 0.0399219 0.639043 
0.0984657 0.041363 0.631764 0.0952311 0.0426681 0.623891 0.0916717 0.0438169 0.615372 
0.0878265 0.044787 0.606168 0.0837306 0.0455507 0.596258 0.0794107 0.0460748 0.585648 
0.0748817 0.0463213 0.574371 0.0701459 0.0462508 0.562493 0.0651938 0.0458273 0.550098 
0.0600077 0.0450249 0.537289 0.0545662 0.0438341 0.524171 0.0488506 0.0422683 0.510843 
0.0428498 0.040368 0.497384 0.0365656 0.0382029 0.483848 0.0300157 0.0358711 0.470253 
0.0232343 0.0334944 0.456589 0.0162704 0.0312105 0.44281 0.00918334 0.0291633 0.428853 
0.00203661 0.0274904 0.414638 -0.00511024 0.0263113 0.400086 -0.0122096 0.0257159 0.385127 
-0.019233 0.0257554 0.369713 -0.026177 0.0264374 0.353821 -0.0330658 0.0277242 0.337461 
-0.0399505 0.0295363 0.320667 -0.0469053 0.03176 0.3035 -0.0540198 0.0342587 0.286029 
-0.0613884 0.0368865 0.268328 -0.069098 0.0395031 0.25046 -0.0772151 0.0419876 0.232468 
-0.0857735 0.0442506 0.214364 -0.094764 0.0462428 0.196131 -0.104127 0.0479588 0.177716 
-0.113752 0.0494364 0.15904 -0.123475 0.0507514 0.140006 -0.133089 0.0520079 0.120509 
-0.142354 0.0533257 0.100453 -0.15101 0.0548264 0.0797584 -0.158793 0.056619 0.0583782 
-0.165455 0.0587878 0.0363033 -0.170776 0.0613821 0.0135668 -0.174582 0.0644106 -0.00975676 
-0.176753 0.0678397 -0.0335564 -0.17723 0.0715959 -0.0576937 -0.176016 0.075573 -0.0820137 
-0.173177 0.0796408 -0.106357 -0.168829 0.0836568 -0.130571 -0.16313 0.087478 -0.154522 
-0.156268 0.0909719 -0.178096 -0.148445 0.094025 -0.20121 -0.139862 0.09655 -0.223806 
-0.130709 0.0984877 -0.245851 -0.121154 0.0998079 -0.26733 -0.111336 0.100506 -0.288237 
-0.101359 0.100596 -0.308575 -0.0912936 0.100108 -0.328345 -0.0811818 0.0990777 -0.347541 
-0.0710395 0.0975402 -0.366153 -0.0608658 0.0955273 -0.384166 -0.0506511 0.0930635 -0.401562 
-0.0403853 0.0901653 -0.418326 -0.0300658 0.086843 -0.434446 -0.0197039 0.0831041 -0.449925 
-0.00932819 0.078958 -0.464772 0.00101255 0.0744209 -0.479014 0.0112503 0.0695206 -0.492682 
0.0213003 0.0643002 -0.505817 0.0310648 0.0588204 -0.518454 0.0404395 0.0531593 -0.530623 
0.0493191 0.0474108 -0.542339 0.0576042 0.0416802 -0.553594 0.0652076 0.036079 -0.56436 
0.0720593 0.0307184 -0.574588 0.0781105 0.025702 -0.584207 0.0833369 0.0211196 -0.593138 
0.0877393 0.017041 -0.601299 0.091343 0.0135123 -0.608614 0.0941963 0.0105529 -0.615028 
0.0963673 0.00815579 -0.620512 0.0979395 0.00628895 -0.625068 0.0990069 0.00489898 -0.628735 
0.099669 0.00391628 -0.631584 0.100025 0.00326128 -0.633711 0.10017 0.00285129 -0.635228 
0.100187 0.00260737 -0.636255 0.100147 0.00246075 -0.636898 0.100101 0.00235841 -0.637247 
0.100084 0.00226718 -0.637358 
LINES 2 100
OFFSETS vtktypeint64
0 100 
CONNECTIVITY vtktypeint64
0 1 2 3 4 5 6 7 8 
9 10 11 12 13 14 15 16 17 
18 19 20 21 22 23 24 25 26 
27 28 29 30 31 32 33 34 35 
36 37 38 39 40 41 42 43 44 
45 46 47 48 49 50 51 52 53 
54 55 56 57 58 59 60 61 62 
63 64 65 66 67 68 69 70 71 
72 73 74 75 76 77 78 79 80 
81 82 83 84 85 86 87 88 89 
90 91 92 93 94 95 96 97 98 
99 
POINT_DATA 100
FIELD FieldData 3
_theta 1 100 double
0 0.031733259127 0.063466518254 0.095199777382 0.12693303651 0.15866629564 0.19039955476 0.22213281389 0.25386607302 
0.28559933214 0.31733259127 0.3490658504 0.38079910953 0.41253236865 0.44426562778 0.47599888691 0.50773214603 0.53946540516 
0.57119866429 0.60293192342 0.63466518254 0.66639844167 0.6981317008 0.72986495992 0.76159821905 0.79333147818 0.82506473731 
0.85679799643 0.88853125556 0.92026451469 0.95199777382 0.98373103294 1.0154642921 1.0471975512 1.0789308103 1.1106640695 
1.1423973286 1.1741305877 1.2058638468 1.237597106 1.2693303651 1.3010636242 1.3327968833 1.3645301425 1.3962634016 
1.4279966607 1.4597299198 1.491463179 1.5231964381 1.5549296972 1.5866629564 1.6183962155 1.6501294746 1.6818627337 
1.7135959929 1.745329252 1.7770625111 1.8087957702 1.8405290294 1.8722622885 1.9039955476 1.9357288068 1.9674620659 
1.999195325 2.0309285841 2.0626618433 2.0943951024 2.1261283615 2.1578616206 2.1895948798 2.2213281389 2.253061398 
2.2847946572 2.3165279163 2.3482611754 2.3799944345 2.4117276937 2.4434609528 2.4751942119 2.506927471 2.5386607302 
2.5703939893 2.6021272484 2.6338605076 2.6655937667 2.6973270258 2.7290602849 2.7607935441 2.7925268032 2.8242600623 
2.8559933214 2.8877265806 2.9194598397 2.9511930988 2.982926358 3.0146596171 3.0463928762 3.0781261353 3.1098593945 
3.1415926536 
_radius 1 100 double
2.4278692996e-16 0.013934710539 0.027791185702 0.041487487021 0.054939313887 0.068060744373 0.080766359784 0.092974474415 0.10461090773 
0.11561263432 0.12593075676 0.13553254358 0.14440267029 0.15254412364 0.15997923004 0.16675075217 0.17292207354 0.1785747596 
0.18380204899 0.18869835546 0.19334686242 0.1978084052 0.20211436961 0.20626485957 0.21023196247 0.21396709719 0.21741102521 
0.22050483075 0.22320000035 0.22546589299 0.22729351774 0.22869540995 0.22970213659 0.23035634212 0.23070530981 0.23079296143 
0.2306522311 0.23029886303 0.22972776623 0.2289129071 0.2278112137 0.22637017602 0.22453799586 0.22227453683 0.21956111375 
0.21640737847 0.21285417862 0.20897223648 0.20485763669 0.20062598795 0.19640715901 0.19234143086 0.18857618932 0.18526084024 
0.18253737095 0.1805254235 0.17930377033 0.17889350787 0.17924981702 0.18026686312 0.18179510712 0.1836654 0.18571264359 
0.18779372463 0.18979809305 0.1916521904 0.19331917587 0.19479423915 0.19609565462 0.1972526835 0.19829226806 0.19922698125 
0.20004689567 0.20071721175 0.2011814599 0.20136821821 0.20119886528 0.20059462131 0.19948196575 0.19779598108 0.19548144274 
0.19249182949 0.1887868887 0.18432974961 0.17908461688 0.17301577647 0.16608818735 0.15826952854 0.14953331224 0.13986254714 
0.12925341287 0.11771847254 0.10528908156 0.092016801785 0.077973759372 0.063251971212 0.047961716383 0.03222905952 0.016192657075 
1.2207824446e-15 
_area 1 100 double
0 0.00049522331964 0.0019630056764 0.0043515754481 0.0075805508405 0.011548595983 0.016142238487 0.021244606386 0.0267427846 
0.032532482168 0.03851911415 0.044615493665 0.0507379099 0.056803733968 0.062733756482 0.068460315067 0.073938371056 0.079153465783 
0.084120964314 0.08887616343 0.093461654491 0.097920610016 0.10229877039 0.10664831458 0.11102229806 0.11545354239 0.11992503117 
0.12435188284 0.12859280975 0.13248749427 0.13589842241 0.13873979669 0.14100032531 0.14272789908 0.14402017964 0.14497314199 
0.14548793344 0.14550772127 0.14498124268 0.14385322095 0.1420831441 0.13966339014 0.13663084646 0.13306979834 0.12910580081 
0.12489099331 0.1205818944 0.11631274633 0.11217160763 0.10819008909 0.10435458276 0.10063514956 0.097018665907 0.093532969036 
0.090256086787 0.087321190943 0.08494173303 0.083418301631 0.082935700532 0.083361130204 0.084391357857 0.085729868299 0.08713592828 
0.088425944378 0.089439197269 0.090035052839 0.09011545186 0.089649620185 0.088678720433 0.087302986767 0.085659424479 0.083897452366 
0.082160121444 0.080576896436 0.079267117105 0.078298960403 0.077870454894 0.077644580803 0.077410163453 0.077018100387 0.07636454546 
0.075370663232 0.073960515257 0.072050978769 0.069555040469 0.066393538936 0.062510476166 0.057888653939 0.052562946507 0.04662847409 
0.040241312454 0.033610628557 0.026982964371 0.020621204791 0.014782035497 0.0096960258882 0.0055536637158 0.0024988610386 0.00062917230547 
2.8705966486e-17 
