# vtk DataFile Version 5.1
vtk output
ASCII
DATASET POLYDATA
POINTS 100 float
0.123845 0.0532793 0.698783 0.123771 0.0535786 0.698647 0.123656 0.0543342 0.69807 
0.123507 0.0555071 0.697047 0.123336 0.057035 0.695571 0.123152 0.0588363 0.69363 
0.122957 0.060816 0.691207 0.122742 0.0628721 0.688278 0.122483 0.0649023 0.684815 
0.122138 0.0668103 0.680783 0.121647 0.0685112 0.676145 0.120937 0.0699355 0.670861 
0.119921 0.0710316 0.664892 0.118509 0.0717668 0.658207 0.116614 0.072126 0.650781 
0.114156 0.0721098 0.642599 0.111074 0.0717307 0.633664 0.107328 0.0710095 0.623993 
0.102903 0.0699713 0.613619 0.097808 0.0686418 0.60259 0.0920761 0.0670447 0.59097 
0.0857596 0.0652004 0.578829 0.0789241 0.063126 0.566247 0.0716423 0.0608363 0.553301 
0.063987 0.0583464 0.540069 0.0560259 0.0556752 0.526619 0.0478174 0.0528483 0.513007 
0.0394077 0.0499019 0.499277 0.030831 0.0468845 0.485454 0.0221112 0.0438588 0.471548 
0.0132644 0.0409009 0.457551 0.0043028 0.0380983 0.443438 -0.00476087 0.0355459 0.429167 
-0.0139103 0.0333407 0.414686 -0.0231232 0.0315759 0.399928 -0.0323695 0.0303336 0.384819 
-0.0416125 0.0296786 0.369278 -0.0508096 0.0296534 0.35322 -0.0599147 0.0302735 0.336562 
-0.0688809 0.0315262 0.319221 -0.0776624 0.0333706 0.301126 -0.0862158 0.0357406 0.282216 
-0.0945007 0.0385495 0.262444 -0.102478 0.0416964 0.241788 -0.110108 0.0450741 0.220246 
-0.117348 0.0485762 0.197842 -0.124149 0.0521047 0.174628 -0.130452 0.0555763 0.150681 
-0.13619 0.058926 0.126102 -0.141286 0.0621099 0.101009 -0.145658 0.0651047 0.0755344 
-0.14922 0.0679057 0.0498134 -0.151895 0.070523 0.0239797 -0.153618 0.0729757 -0.00184471 
-0.154344 0.0752871 -0.027555 -0.154058 0.0774785 -0.0530697 -0.152778 0.0795647 -0.0783331 
-0.150554 0.0815509 -0.103316 -0.147472 0.0834308 -0.128013 -0.143645 0.0851867 -0.152438 
-0.139205 0.0867913 -0.176617 -0.134294 0.0882107 -0.200582 -0.129048 0.0894084 -0.224362 
-0.123588 0.0903487 -0.247973 -0.118008 0.0910009 -0.271416 -0.112366 0.0913415 -0.294674 
-0.106682 0.0913558 -0.317706 -0.100937 0.091038 -0.340455 -0.0950805 0.0903893 -0.362851 
-0.0890379 0.0894159 -0.384815 -0.0827238 0.0881259 -0.40627 -0.0760566 0.0865258 -0.427146 
-0.0689723 0.0846179 -0.447388 -0.0614371 0.0823993 -0.466957 -0.0534559 0.0798609 -0.485836 
-0.0450774 0.0769894 -0.504025 -0.0363931 0.0737704 -0.521538 -0.0275319 0.070192 -0.538396 
-0.0186494 0.0662505 -0.554619 -0.00991513 0.061955 -0.570216 -0.00149732 0.0573317 -0.585181 
0.00645206 0.0524269 -0.599483 0.0138101 0.0473083 -0.613068 0.0204923 0.0420632 -0.625857 
0.026458 0.036795 -0.637752 0.0317096 0.0316175 -0.648648 0.0362886 0.0266469 -0.65844 
0.0402661 0.021994 -0.667038 0.0437313 0.0177553 -0.67438 0.0467787 0.0140056 -0.680439 
0.0494955 0.0107922 -0.685239 0.0519513 0.00813209 -0.688847 0.0541912 0.00601148 -0.691382 
0.0562323 0.00438884 -0.693001 0.0580657 0.00320062 -0.693892 0.0596605 0.00236932 -0.694256 
0.0609729 0.00181293 -0.694289 0.0619547 0.00145472 -0.694169 0.0625632 0.00123241 -0.694034 
0.0627694 0.0011056 -0.693973 
LINES 2 100
OFFSETS vtktypeint64
0 100 
CONNECTIVITY vtktypeint64
0 1 2 3 4 5 6 7 8 
9 10 11 12 13 14 15 16 17 
18 19 20 21 22 23 24 25 26 
27 28 29 30 31 32 33 34 35 
36 37 38 39 40 41 42 43 44 
45 46 47 48 49 50 51 52 53 
54 55 56 57 58 59 60 61 62 
63 64 65 66 67 68 69 70 71 
72 73 74 75 76 77 78 79 80 
81 82 83 84 85 86 87 88 89 
90 91 92 93 94 95 96 97 98 
99 
POINT_DATA 100
FIELD FieldData 3
_theta 1 100 double
0 0.031733259127 0.063466518254 0.095199777382 0.12693303651 0.15866629564 0.19039955476 0.22213281389 0.25386607302 
0.28559933214 0.31733259127 0.3490658504 0.38079910953 0.41253236865 0.44426562778 0.47599888691 0.50773214603 0.53946540516 
0.57119866429 0.60293192342 0.63466518254 0.66639844167 0.6981317008 0.72986495992 0.76159821905 0.79333147818 0.82506473731 
0.85679799643 0.88853125556 0.92026451469 0.95199777382 0.98373103294 1.0154642921 1.0471975512 1.0789308103 1.1106640695 
1.1423973286 1.1741305877 1.2058638468 1.237597106 1.2693303651 1.3010636242 1.3327968833 1.3645301425 1.3962634016 
1.4279966607 1.4597299198 1.491463179 1.5231964381 1.5549296972 1.5866629564 1.6183962155 1.6501294746 1.6818627337 
1.7135959929 1.745329252 1.7770625111 1.8087957702 1.8405290294 1.8722622885 1.9039955476 1.9357288068 1.9674620659 
1.999195325 2.0309285841 2.0626618433 2.0943951024 2.1261283615 2.1578616206 2.1895948798 2.2213281389 2.253061398 
2.2847946572 2.3165279163 2.3482611754 2.3799944345 2.4117276937 2.4434609528 2.4751942119 2.506927471 2.5386607302 
2.5703939893 2.6021272484 2.6338605076 2.6655937667 2.6973270258 2.7290602849 2.7607935441 2.7925268032 2.8242600623 
2.8559933214 2.8877265806 2.9194598397 2.9511930988 2.982926358 3.0146596171 3.0463928762 3.0781261353 3.1098593945 
3.1415926536 
_radius 1 100 double
3.4113680084e-16 0.013515069003 0.026976929734 0.040328505814 0.05351828926 0.066501600029 0.079240142125 0.091699862759 0.10384751377 
0.11564665105 0.12705399354 0.13801704129 0.14847364433 0.15835390222 0.16758444065 0.17609478134 0.18382517359 0.19073489154 
0.19680969802 0.20206706484 0.20655791588 0.21036411917 0.21359160235 0.21635967361 0.21878778518 0.22098148176 0.22301953526 
0.22494417685 0.22675585397 0.22841314734 0.22983760868 0.23092260008 0.23154490172 0.23157789731 0.23090538331 0.22943527151 
0.22711250935 0.22393037412 0.21993894886 0.21524917295 0.21003057516 0.20450097717 0.19890754311 0.19350069351 0.18850484294 
0.18409125533 0.1803581208 0.17732232156 0.17492640387 0.17306107813 0.17159778952 0.17042135942 0.16945322407 0.16866051047 
0.16805133226 0.16766000728 0.16752752966 0.16768321039 0.16813263914 0.16885430828 0.16980311584 0.1709162485 0.17211778748 
0.17332174701 0.17443593273 0.17536884939 0.17603955543 0.17638810164 0.17638351673 0.17602720706 0.17535133522 0.17441336461 
0.17328881804 0.17206408863 0.17083003119 0.16967561729 0.16867994001 0.16790103693 0.16736160451 0.16703408266 0.1668294737 
0.16659439638 0.16611896762 0.1651550005 0.16344113165 0.16072997205 0.15681249841 0.15153619239 0.14481515797 0.13663204395 
0.12703280718 0.11611611915 0.10401957355 0.090904858759 0.076943801153 0.062306763287 0.047154390632 0.031633203826 0.015875054032 
3.2759809034e-16 
_area 1 100 double
0 0.00047217651918 0.0018848276295 0.0042257903462 0.0074732057531 0.011593816299 0.016541873339 0.022259285828 0.028676785694 
0.03571502661 0.043284242637 0.051281549855 0.059586096642 0.068053893562 0.076515789098 0.084782543797 0.092659170589 0.099967077376 
0.10656908016 0.11239084222 0.11743307647 0.12177111276 0.12554104006 0.12891392272 0.13206200038 0.13512411233 0.13818025231 
0.1412429082 0.14426495112 0.14715628185 0.14979970055 0.15206013911 0.15378761138 0.15481993144 0.15499147383 0.15414843391 
0.15216730634 0.1489749823 0.14457039843 0.139045477 0.13259901148 0.12553539397 0.11824382891 0.11116068134 0.10471927938 
0.099284437978 0.095074870756 0.09210800893 0.090218025674 0.089147536984 0.08835017135 0.08735374769 0.085888697233 0.083849008715 
0.081292619337 0.078563921443 0.075811469579 0.073301771272 0.071264663185 0.069869581852 0.06922675442 0.069328659644 0.069832685622 
0.070380651471 0.070758790318 0.070841120464 0.070561833952 0.069905724249 0.06890842496 0.06765741622 0.066284895091 0.064937273949 
0.063708138462 0.062631669506 0.06174379815 0.061094809686 0.060731706693 0.060681994598 0.060948878773 0.061505661002 0.062280432391 
0.0631387766 0.063876457668 0.06423127721 0.063917210693 0.0626738143 0.060315981664 0.056769775127 0.052086968592 0.046438126773 
0.040088645156 0.033364249066 0.026612771345 0.02016830039 0.014322540203 0.0093066993866 0.005285413348 0.0023620241113 0.00059210924692 
4.6162967313e-19 
