# vtk DataFile Version 5.1
vtk output
ASCII
DATASET POLYDATA
POINTS 100 float
0.125853 0.0569373 0.72397 0.125796 0.0574064 0.72365 0.125684 0.0586336 0.722572 
0.125497 0.060521 0.720769 0.125206 0.0629158 0.718287 0.124779 0.065625 0.715179 
0.124185 0.0684344 0.711493 0.123402 0.0711273 0.707267 0.122419 0.073505 0.702521 
0.121241 0.0754025 0.697249 0.119885 0.0767013 0.691424 0.118381 0.0773361 0.684998 
0.11676 0.0772961 0.677912 0.115052 0.0766206 0.670105 0.113277 0.0753895 0.661523 
0.111434 0.0737111 0.652136 0.109496 0.071708 0.641941 0.107409 0.0695032 0.630968 
0.105091 0.0672083 0.619283 0.102435 0.0649145 0.606984 0.0993218 0.0626879 0.594187 
0.095626 0.0605687 0.581025 0.0912321 0.0585744 0.567624 0.0860467 0.0567058 0.554094 
0.0800102 0.054955 0.540519 0.073106 0.0533132 0.526948 0.0653648 0.0517783 0.513386 
0.0568642 0.0503596 0.499804 0.047724 0.0490802 0.486138 0.0380953 0.0479759 0.472303 
0.0281474 0.0470914 0.458203 0.0180523 0.0464739 0.443744 0.00796862 0.0461656 0.428845 
-0.00197251 0.0461964 0.413451 -0.0116778 0.0465774 0.39753 -0.0210978 0.0472967 0.381078 
-0.030227 0.0483181 0.364111 -0.0390987 0.0495834 0.346657 -0.0477737 0.051017 0.328747 
-0.0563266 0.0525341 0.310401 -0.0648283 0.0540493 0.291617 -0.07333 0.0554867 0.27237 
-0.0818476 0.0567877 0.252605 -0.0903514 0.0579182 0.232244 -0.0987598 0.0588721 0.211191 
-0.10694 0.0596712 0.189351 -0.114715 0.0603624 0.16664 -0.121876 0.0610112 0.143003 
-0.128197 0.0616929 0.11843 -0.133459 0.0624834 0.0929628 -0.137466 0.0634489 0.0667008 
-0.140064 0.0646376 0.0397989 -0.141157 0.0660735 0.0124579 -0.140713 0.0677527 -0.0150907 
-0.138773 0.0696434 -0.0426043 -0.13544 0.0716891 -0.0698503 -0.130876 0.0738136 -0.0966266 
-0.125283 0.0759292 -0.12278 -0.118885 0.0779445 -0.148216 -0.111912 0.0797728 -0.172907 
-0.104575 0.0813388 -0.196886 -0.0970552 0.0825838 -0.220237 -0.0894891 0.0834681 -0.243081 
-0.081961 0.0839711 -0.265553 -0.0745031 0.084089 -0.287782 -0.0670997 0.083831 -0.309868 
-0.0596966 0.0832138 -0.331871 -0.0522148 0.0822572 -0.353797 -0.0445655 0.0809789 -0.375594 
-0.0366659 0.0793914 -0.397164 -0.0284536 0.0775009 -0.418368 -0.0198982 0.0753071 -0.439045 
-0.0110085 0.0728056 -0.45903 -0.00183552 0.0699915 -0.478179 0.00752933 0.0668635 -0.496376 
0.0169604 0.0634284 -0.513556 0.0263077 0.0597045 -0.529701 0.0354084 0.0557244 -0.544843 
0.0441004 0.0515358 -0.559054 0.0522348 0.0472003 -0.572435 0.0596867 0.0427912 -0.585093 
0.0663639 0.0383888 -0.597131 0.0722117 0.0340759 -0.608622 0.077215 0.0299321 -0.619608 
0.0813959 0.0260287 -0.630086 0.0848089 0.0224245 -0.64001 0.0875338 0.0191627 -0.649302 
0.0896669 0.0162691 -0.65786 0.0913118 0.0137526 -0.665578 0.0925707 0.011606 -0.672362 
0.0935371 0.00980935 -0.678148 0.0942905 0.00833241 -0.68291 0.0948925 0.00713888 -0.686673 
0.0953863 0.00618968 -0.689511 0.0957979 0.00544618 -0.691537 0.0961383 0.00487279 -0.692896 
0.0964082 0.0044388 -0.693742 0.096602 0.00411968 -0.694223 0.0967126 0.00389776 -0.694459 
0.0967344 0.00376262 -0.69453 
LINES 2 100
OFFSETS vtktypeint64
0 100 
CONNECTIVITY vtktypeint64
0 1 2 3 4 5 6 7 8 
9 10 11 12 13 14 15 16 17 
18 19 20 21 22 23 24 25 26 
27 28 29 30 31 32 33 34 35 
36 37 38 39 40 41 42 43 44 
45 46 47 48 49 50 51 52 53 
54 55 56 57 58 59 60 61 62 
63 64 65 66 67 68 69 70 71 
72 73 74 75 76 77 78 79 80 
81 82 83 84 85 86 87 88 89 
90 91 92 93 94 95 96 97 98 
99 
POINT_DATA 100
FIELD FieldData 3
_theta 1 100 double
0 0.031733259127 0.063466518254 0.095199777382 0.12693303651 0.15866629564 0.19039955476 0.22213281389 0.25386607302 
0.28559933214 0.31733259127 0.3490658504 0.38079910953 0.41253236865 0.44426562778 0.47599888691 0.50773214603 0.53946540516 
0.57119866429 0.60293192342 0.63466518254 0.66639844167 0.6981317008 0.72986495992 0.76159821905 0.79333147818 0.82506473731 
0.85679799643 0.88853125556 0.92026451469 0.95199777382 0.98373103294 1.0154642921 1.0471975512 1.0789308103 1.1106640695 
1.1423973286 1.1741305877 1.2058638468 1.237597106 1.2693303651 1.3010636242 1.3327968833 1.3645301425 1.3962634016 
1.4279966607 1.4597299198 1.491463179 1.5231964381 1.5549296972 1.5866629564 1.6183962155 1.6501294746 1.6818627337 
1.7135959929 1.745329252 1.7770625111 1.8087957702 1.8405290294 1.8722622885 1.9039955476 1.9357288068 1.9674620659 
1.999195325 2.0309285841 2.0626618433 2.0943951024 2.1261283615 2.1578616206 2.1895948798 2.2213281389 2.253061398 
2.2847946572 2.3165279163 2.3482611754 2.3799944345 2.4117276937 2.4434609528 2.4751942119 2.506927471 2.5386607302 
2.5703939893 2.6021272484 2.6338605076 2.6655937667 2.6973270258 2.7290602849 2.7607935441 2.7925268032 2.8242600623 
2.8559933214 2.8877265806 2.9194598397 2.9511930988 2.982926358 3.0146596171 3.0463928762 3.0781261353 3.1098593945 
3.1415926536 
_radius 1 100 double
5.7219584982e-16 0.01295943848 0.026013827409 0.03923262119 0.052650217737 0.066254779915 0.079983429813 0.093724413597 0.10732585549 
0.12060984183 0.13338993316 0.14548986857 0.15676120359 0.16709784645 0.17644584434 0.18480727406 0.19223771296 0.19883751479 
0.20473794039 0.21008397713 0.21501626101 0.21965474171 0.22408651639 0.22835960569 0.23248341587 0.23643533221 0.24017158575 
0.24363966842 0.24678948365 0.24958107819 0.25198787159 0.25399542655 0.25559673505 0.25678558675 0.25754976864 0.25786565702 
0.2576953432 0.2569869646 0.25567851581 0.25370510047 0.25100927319 0.2475537272 0.24333508958 0.23839705173 0.2328406033 
0.22682889094 0.22058435066 0.21437645518 0.20849987256 0.20324509768 0.19886626798 0.19555275988 0.19341079535 0.19245810435 
0.19263008151 0.19379253676 0.19575598482 0.19828908977 0.20113215995 0.20401314379 0.20666764582 0.20886212794 0.21041728734 
0.21122745637 0.2112718872 0.21061499426 0.20939487256 0.20780198968 0.20605192777 0.20435686016 0.20290004209 0.20181627046 
0.20117953301 0.20099757056 0.20121237975 0.20170583839 0.20231004677 0.20282191055 0.20302079495 0.20268725724 0.2016204754 
0.19965220618 0.196655776 0.19254950715 0.18729490435 0.18089069497 0.17336428987 0.16476235967 0.15514205069 0.14456400412 
0.13308790302 0.1207708264 0.10766826977 0.09383731079 0.079341078132 0.064253461894 0.048662936057 0.032674491844 0.016409020617 
7.3727326459e-16 
_area 1 100 double
0 0.00044408450089 0.0017797294332 0.0040154873326 0.0071605615978 0.01121823204 0.016178010372 0.022006903405 0.028639617206 
0.035967690131 0.043829944478 0.052010642816 0.060252429152 0.068285794912 0.075869545971 0.08283217463 0.089103065259 0.094724567366 
0.099840727471 0.1046651081 0.10943657747 0.11437489179 0.11964532468 0.12533567724 0.13144464817 0.13788099214 0.14447625151 
0.15101368809 0.15726868641 0.16304769743 0.16821284356 0.17268678707 0.17644011942 0.17946792256 0.18176417005 0.18330260048 
0.18402931837 0.1838668899 0.18272640114 0.18052410673 0.17720021989 0.17273762735 0.16717858199 0.16063790885 0.15331094479 
0.14547290719 0.13746515148 0.12966494927 0.12243905552 0.11608545701 0.11077465363 0.10651974394 0.10320962674 0.1006872697 
0.098814174705 0.097495402674 0.096668591776 0.096280878066 0.09625693281 0.096514890399 0.096867953375 0.097044963978 0.096759125458 
0.095792457045 0.094026039283 0.091459426105 0.088218801464 0.084534121631 0.080692517479 0.076989966372 0.073697582595 0.071046168702 
0.069221809876 0.068359170548 0.068523568949 0.069702902402 0.071839460076 0.074710251424 0.077792339307 0.080632358574 0.082867096281 
0.08419029851 0.084363438133 0.083230378552 0.080725666212 0.076874825388 0.071787527339 0.065645048973 0.058683469087 0.051174319836 
0.04340482747 0.035659905447 0.02820748119 0.021287869927 0.015107239272 0.0098348830537 0.0056037422517 0.0025130709662 0.0006316297024 
7.0324165984e-17 
