# vtk DataFile Version 5.1
vtk output
ASCII
DATASET POLYDATA
POINTS 100 float
0.0518309 0.0647104 0.772174 0.0518277 0.0647814 0.771802 0.0518656 0.0648514 0.770492 
0.0519596 0.0649266 0.768243 0.0521313 0.0650166 0.765052 0.0524032 0.0651321 0.760917 
0.052793 0.0652826 0.755844 0.0533077 0.0654743 0.749843 0.0539382 0.0657083 0.742936 
0.0546554 0.0659795 0.735156 0.0554093 0.0662761 0.726547 0.0561289 0.0665804 0.717172 
0.0567265 0.0668705 0.707103 0.0571027 0.0671223 0.696428 0.0571537 0.067312 0.685244 
0.0567792 0.0674185 0.673653 0.0558899 0.0674255 0.661761 0.054415 0.0673231 0.649669 
0.052307 0.0671079 0.637469 0.0495453 0.0667828 0.625238 0.0461366 0.0663559 0.613034 
0.0421137 0.0658385 0.600892 0.0375319 0.0652433 0.588822 0.032464 0.064582 0.576809 
0.0269939 0.0638646 0.564813 0.021211 0.0630975 0.552774 0.0152034 0.0622844 0.540619 
0.00905359 0.0614263 0.528264 0.00283368 0.0605238 0.515621 -0.00339688 0.0595781 0.50261 
-0.00959305 0.0585937 0.489159 -0.0157247 0.0575795 0.475211 -0.021776 0.0565499 0.460729 
-0.0277448 0.055525 0.445692 -0.0336413 0.0545293 0.430099 -0.0394857 0.0535902 0.413961 
-0.045307 0.0527357 0.397303 -0.0511402 0.051991 0.380149 -0.0570233 0.0513764 0.362527 
-0.0629939 0.0509053 0.344455 -0.0690843 0.050583 0.325939 -0.075317 0.0504072 0.306973 
-0.0816984 0.0503693 0.287536 -0.0882137 0.0504577 0.267593 -0.0948215 0.0506608 0.247102 
-0.10145 0.0509715 0.226013 -0.107994 0.0513901 0.204281 -0.114317 0.0519273 0.18187 
-0.120255 0.0526054 0.158758 -0.125621 0.0534567 0.134944 -0.130217 0.0545214 0.110453 
-0.133847 0.0558425 0.0853338 -0.136328 0.0574593 0.0596616 -0.137508 0.0594014 0.0335335 
-0.137276 0.0616807 0.00706359 -0.135576 0.064287 -0.0196235 -0.132409 0.067183 -0.0463998 
-0.127842 0.0703042 -0.0731417 -0.121999 0.0735599 -0.0997365 -0.115055 0.0768385 -0.126088 
-0.107223 0.0800147 -0.152121 -0.0987365 0.0829592 -0.177781 -0.089834 0.0855492 -0.203037 
-0.0807372 0.0876785 -0.227877 -0.0716361 0.0892665 -0.252304 -0.0626756 0.0902648 -0.276334 
-0.0539473 0.0906603 -0.299987 -0.0454871 0.090475 -0.323284 -0.0372785 0.0897619 -0.346242 
-0.0292613 0.0885975 -0.368868 -0.0213454 0.0870727 -0.39116 -0.0134263 0.0852813 -0.413102 
-0.00540212 0.0833099 -0.434664 0.00281052 0.0812279 -0.455807 0.0112634 0.0790815 -0.476479 
0.0199682 0.0768892 -0.496621 0.0288925 0.0746431 -0.516167 0.0379623 0.0723118 -0.535051 
0.0470683 0.0698485 -0.553202 0.0560768 0.0671991 -0.570554 0.0648435 0.0643132 -0.587041 
0.0732275 0.0611535 -0.602605 0.0811043 0.0577041 -0.61719 0.0883773 0.0539758 -0.630753 
0.0949846 0.050008 -0.643256 0.100901 0.0458676 -0.654674 0.106139 0.0416432 -0.664995 
0.110739 0.0374378 -0.674219 0.114763 0.0333592 -0.682362 0.118285 0.0295099 -0.689455 
0.121379 0.0259781 -0.695544 0.124109 0.0228301 -0.700686 0.126524 0.0201068 -0.704952 
0.128652 0.017822 -0.708421 0.130502 0.0159653 -0.711172 0.132065 0.0145078 -0.713286 
0.133318 0.0134093 -0.714839 0.134234 0.012627 -0.715894 0.134789 0.0121243 -0.716499 
0.134964 0.0118776 -0.716685 
LINES 2 100
OFFSETS vtktypeint64
0 100 
CONNECTIVITY vtktypeint64
0 1 2 3 4 5 6 7 8 
9 10 11 12 13 14 15 16 17 
18 19 20 21 22 23 24 25 26 
27 28 29 30 31 32 33 34 35 
36 37 38 39 40 41 42 43 44 
45 46 47 48 49 50 51 52 53 
54 55 56 57 58 59 60 61 62 
63 64 65 66 67 68 69 70 71 
72 73 74 75 76 77 78 79 80 
81 82 83 84 85 86 87 88 89 
90 91 92 93 94 95 96 97 98 
99 
POINT_DATA 100
FIELD FieldData 3
_theta 1 100 double
0 0.031733259127 0.063466518254 0.095199777382 0.12693303651 0.15866629564 0.19039955476 0.22213281389 0.25386607302 
0.28559933214 0.31733259127 0.3490658504 0.38079910953 0.41253236865 0.44426562778 0.47599888691 0.50773214603 0.53946540516 
0.57119866429 0.60293192342 0.63466518254 0.66639844167 0.6981317008 0.72986495992 0.76159821905 0.79333147818 0.82506473731 
0.85679799643 0.88853125556 0.92026451469 0.95199777382 0.98373103294 1.0154642921 1.0471975512 1.0789308103 1.1106640695 
1.1423973286 1.1741305877 1.2058638468 1.237597106 1.2693303651 1.3010636242 1.3327968833 1.3645301425 1.3962634016 
1.4279966607 1.4597299198 1.491463179 1.5231964381 1.5549296972 1.5866629564 1.6183962155 1.6501294746 1.6818627337 
1.7135959929 1.745329252 1.7770625111 1.8087957702 1.8405290294 1.8722622885 1.9039955476 1.9357288068 1.9674620659 
1.999195325 2.0309285841 2.0626618433 2.0943951024 2.1261283615 2.1578616206 2.1895948798 2.2213281389 2.253061398 
2.2847946572 2.3165279163 2.3482611754 2.3799944345 2.4117276937 2.4434609528 2.4751942119 2.506927471 2.5386607302 
2.5703939893 2.6021272484 2.6338605076 2.6655937667 2.6973270258 2.7290602849 2.7607935441 2.7925268032 2.8242600623 
2.8559933214 2.8877265806 2.9194598397 2.9511930988 2.982926358 3.0146596171 3.0463928762 3.0781261353 3.1098593945 
3.1415926536 
_radius 1 100 double
7.9008989566e-16 0.014574998133 0.029074215158 0.043412078646 0.05749878206 0.071241525801 0.08454849059 0.097335188546 0.10953220475 
0.12109292187 0.13199969131 0.14226709302 0.1519413798 0.1610958539 0.1698226597 0.17822213548 0.18639126669 0.19441277706 
0.20234598668 0.21021996783 0.21802908405 0.22573094928 0.23324714055 0.24046731552 0.24725735956 0.25347164374 0.25896853126 
0.26362724592 0.26736348679 0.27014101285 0.2719769239 0.27293942446 0.27313821582 0.27270898303 0.2717944242 0.27052472862 
0.2690003381 0.26727934426 0.26537115423 0.26323724695 0.26079903104 0.25795203513 0.25458491216 0.25060103787 0.24593991357 
0.2405952879 0.23462703567 0.22816444625 0.22139966019 0.21457146584 0.20794138631 0.2017656975 0.19626829593 0.19161957606 
0.18792504108 0.18522410964 0.18349568046 0.18266496963 0.18260791509 0.18315426297 0.18409456467 0.18519587959 0.18622602815 
0.18698097688 0.18730823216 0.18712109332 0.18640197846 0.18519586723 0.18359655539 0.18172898557 0.17973069969 0.17773473815 
0.17585538038 0.17417730446 0.17274832751 0.17157595554 0.17062822102 0.16983908142 0.16911755581 0.16835830208 0.16745070251 
0.16628436034 0.16475066356 0.16274163061 0.16014783606 0.15685691213 0.15275360208 0.1477220128 0.14165041574 0.13443842551 
0.12600571672 0.11630093963 0.10530941003 0.093058480256 0.079620050058 0.065110198423 0.049686234642 0.033541543541 0.016898538319 
4.5914578476e-16 
_area 1 100 double
0 0.00058139812785 0.0023082119627 0.0051274590724 0.0089488870085 0.013644696975 0.019053305712 0.024989114529 0.031258606563 
0.037680757744 0.044107420194 0.050438238592 0.056625972248 0.062672019359 0.068616579927 0.074529534185 0.080505115745 0.086659100353 
0.093125324211 0.10004783353 0.10756130367 0.11574842411 0.12458401779 0.13391253786 0.14347454 0.15295100431 0.16201173882 
0.17036749517 0.17780844647 0.18419747932 0.18943027687 0.19343260847 0.19619970869 0.19781788462 0.19844865704 0.19828928424 
0.19752537893 0.19628813291 0.1946260189 0.19249676612 0.18978005093 0.18630699257 0.18190066948 0.17642124183 0.16980814879 
0.1621108969 0.15350116529 0.14426283013 0.13476159701 0.12540029147 0.11656783389 0.10858873769 0.10168001373 0.095937814954 
0.091405319564 0.087994183326 0.0852044762 0.082756543969 0.080561292447 0.078620343025 0.076969082944 0.075629609444 0.074586672527 
0.073795791043 0.072965864922 0.071887116228 0.070423230783 0.06853955872 0.066289367239 0.063781913166 0.061149394273 0.058520717265 
0.056007200262 0.053702390876 0.051694666153 0.050084691411 0.048989912297 0.048516756644 0.048705793886 0.04949424494 0.050727095788 
0.052190580317 0.053641396127 0.054830930506 0.055524287612 0.055513072842 0.054625156019 0.052735557058 0.049780376195 0.045772482004 
0.040814397806 0.035102103517 0.028915025471 0.022591885338 0.016496861163 0.010983433264 0.0063634426641 0.0028864320547 0.00073025572268 
7.1451024214e-17 
