# vtk DataFile Version 5.1
vtk output
ASCII
DATASET POLYDATA
POINTS 100 float
0.153899 0.0554491 0.71508 0.153677 0.05568 0.715003 0.153056 0.0562408 0.714617 
0.15205 0.0570916 0.713885 0.150686 0.05817 0.712754 0.148997 0.0593971 0.711152 
0.147023 0.0606842 0.708999 0.144804 0.0619416 0.706206 0.142381 0.0630854 0.702689 
0.13979 0.0640455 0.698369 0.137057 0.06477 0.693181 0.134195 0.0652289 0.687082 
0.131201 0.0654149 0.680051 0.128057 0.0653414 0.672094 0.124725 0.065039 0.663245 
0.121151 0.0645495 0.653565 0.117272 0.0639202 0.643139 0.113014 0.0631961 0.632067 
0.108305 0.062415 0.620461 0.10308 0.061602 0.608437 0.0972872 0.0607672 0.596103 
0.0908958 0.0599059 0.583555 0.0839008 0.059 0.570867 0.0763251 0.0580232 0.558088 
0.0682192 0.0569466 0.545237 0.0596575 0.0557461 0.532308 0.0507329 0.054409 0.519264 
0.0415479 0.0529408 0.506051 0.0322057 0.0513685 0.492596 0.0228001 0.0497433 0.47882 
0.0134071 0.0481388 0.464646 0.00407826 0.0466466 0.45 -0.00516247 0.0453698 0.434823 
-0.0143186 0.044413 0.419071 -0.0234167 0.0438726 0.402718 -0.0324991 0.043826 0.385752 
-0.041613 0.0443224 0.368174 -0.0507986 0.0453756 0.349994 -0.0600772 0.0469606 0.331223 
-0.0694401 0.0490134 0.311866 -0.078841 0.0514353 0.291923 -0.0881922 0.054101 0.271382 
-0.0973651 0.0568694 0.250217 -0.106196 0.0595971 0.228395 -0.114498 0.0621519 0.205876 
-0.122071 0.0644261 0.182622 -0.128721 0.0663469 0.158602 -0.134277 0.0678842 0.133804 
-0.138602 0.0690528 0.108236 -0.141608 0.0699113 0.0819396 -0.143265 0.0705549 0.0549856 
-0.143598 0.0711049 0.0274795 -0.142689 0.0716953 -0.000444344 -0.140663 0.0724574 -0.0286276 
-0.137682 0.0735048 -0.0568972 -0.133922 0.07492 -0.0850755 -0.12956 0.0767443 -0.112991 
-0.124759 0.0789719 -0.140491 -0.119652 0.0815486 -0.167448 -0.114332 0.0843764 -0.193767 
-0.108849 0.0873216 -0.21939 -0.103212 0.0902273 -0.244298 -0.0973903 0.0929275 -0.268502 
-0.091327 0.0952625 -0.292045 -0.08495 0.0970924 -0.314987 -0.0781867 0.0983093 -0.337397 
-0.0709772 0.0988443 -0.359346 -0.0632862 0.0986716 -0.380896 -0.0551119 0.097807 -0.402091 
-0.0464903 0.0963026 -0.422957 -0.0374956 0.0942374 -0.443491 -0.0282362 0.0917066 -0.463672 
-0.0188475 0.0888092 -0.483454 -0.00948215 0.0856363 -0.502774 -0.00029901 0.0822621 -0.521561 
0.00854768 0.078737 -0.539737 0.0169179 0.0750847 -0.557226 0.0246934 0.0713034 -0.573958 
0.0317821 0.0673704 -0.589874 0.0381207 0.0632488 -0.604926 0.0436729 0.0588974 -0.619083 
0.0484277 0.0542796 -0.632324 0.0523942 0.0493726 -0.644641 0.0555976 0.0441741 -0.656038 
0.0580746 0.0387071 -0.666523 0.0598698 0.0330204 -0.676112 0.0610337 0.0271876 -0.684826 
0.0616213 0.0213016 -0.692688 0.0616932 0.0154684 -0.699722 0.0613157 0.00979919 -0.705959 
0.0605626 0.00440212 -0.71143 0.0595156 -0.00062433 -0.71617 0.0582641 -0.00519678 -0.720217 
0.0569037 -0.00924996 -0.723611 0.0555329 -0.0127373 -0.726393 0.054249 -0.0156293 -0.728604 
0.0531428 -0.0179101 -0.730281 0.0522924 -0.0195732 -0.731457 0.0517585 -0.0206168 -0.732156 
0.0515794 -0.0210402 -0.732393 
LINES 2 100
OFFSETS vtktypeint64
0 100 
CONNECTIVITY vtktypeint64
0 1 2 3 4 5 6 7 8 
9 10 11 12 13 14 15 16 17 
18 19 20 21 22 23 24 25 26 
27 28 29 30 31 32 33 34 35 
36 37 38 39 40 41 42 43 44 
45 46 47 48 49 50 51 52 53 
54 55 56 57 58 59 60 61 62 
63 64 65 66 67 68 69 70 71 
72 73 74 75 76 77 78 79 80 
81 82 83 84 85 86 87 88 89 
90 91 92 93 94 95 96 97 98 
99 
POINT_DATA 100
FIELD FieldData 3
_theta 1 100 double
0 0.031733259127 0.063466518254 0.095199777382 0.12693303651 0.15866629564 0.19039955476 0.22213281389 0.25386607302 
0.28559933214 0.31733259127 0.3490658504 0.38079910953 0.41253236865 0.44426562778 0.47599888691 0.50773214603 0.53946540516 
0.57119866429 0.60293192342 0.63466518254 0.66639844167 0.6981317008 0.72986495992 0.76159821905 0.79333147818 0.82506473731 
0.85679799643 0.88853125556 0.92026451469 0.95199777382 0.98373103294 1.0154642921 1.0471975512 1.0789308103 1.1106640695 
1.1423973286 1.1741305877 1.2058638468 1.237597106 1.2693303651 1.3010636242 1.3327968833 1.3645301425 1.3962634016 
1.4279966607 1.4597299198 1.491463179 1.5231964381 1.5549296972 1.5866629564 1.6183962155 1.6501294746 1.6818627337 
1.7135959929 1.745329252 1.7770625111 1.8087957702 1.8405290294 1.8722622885 1.9039955476 1.9357288068 1.9674620659 
1.999195325 2.0309285841 2.0626618433 2.0943951024 2.1261283615 2.1578616206 2.1895948798 2.2213281389 2.253061398 
2.2847946572 2.3165279163 2.3482611754 2.3799944345 2.4117276937 2.4434609528 2.4751942119 2.506927471 2.5386607302 
2.5703939893 2.6021272484 2.6338605076 2.6655937667 2.6973270258 2.7290602849 2.7607935441 2.7925268032 2.8242600623 
2.8559933214 2.8877265806 2.9194598397 2.9511930988 2.982926358 3.0146596171 3.0463928762 3.0781261353 3.1098593945 
3.1415926536 
_radius 1 100 double
9.2329017196e-16 0.015337756914 0.03058944971 0.045671292371 0.060501407404 0.075000500596 0.089092700776 0.10270659703 0.11577636867 
0.12824281099 0.14005407719 0.15116607139 0.16154256626 0.17115520629 0.17998356258 0.18801534573 0.19524679582 0.20168318702 
0.20733933432 0.21223999867 0.21642015102 0.21992512222 0.22281064813 0.22514267215 0.22699654342 0.22845508502 0.22960503743 
0.23053165672 0.23131170959 0.23200566218 0.23265038166 0.23325394666 0.23379389497 0.23421934559 0.23445634795 0.23441521447 
0.23399874021 0.23311075888 0.23166491775 0.22959361796 0.22685680403 0.22344988913 0.21940977297 0.21481778315 0.20979851455 
0.2045139861 0.19915329351 0.19391892973 0.18901187563 0.18461791351 0.18089697302 0.17797585032 0.17594318286 0.1748450418 
0.17468021367 0.17539566471 0.17688416406 0.17898738536 0.18150799464 0.1842308513 0.18694786991 0.18947940841 0.19168837532 
0.19348684859 0.19483638548 0.19574322248 0.19624933912 0.19642034295 0.19633142556 0.19605316145 0.19563938457 0.19511935247 
0.19449557355 0.19374713371 0.19283673335 0.19171870561 0.19034542301 0.18867053265 0.18664889236 0.18423438601 0.18137752204 
0.17802458562 0.17411920044 0.16960594881 0.1644348103 0.15856493561 0.15196660055 0.14462083259 0.13651696716 0.12764912686 
0.11801313848 0.10760548581 0.0964254097 0.084480311406 0.071793504427 0.058412478898 0.044415476692 0.029914425311 0.015053045985 
8.5446830895e-16 
_area 1 100 double
0 0.00056227701222 0.0022387605439 0.004997737011 0.0087844348614 0.013519362297 0.019098092339 0.025393269311 0.032258419242 
0.039532742318 0.047046931664 0.054631048685 0.06212522432 0.06939250065 0.07633156853 0.082886288737 0.089048835579 0.094854122239 
0.10036540389 0.10565501137 0.11078798523 0.11581449571 0.12076628509 0.12564492114 0.13040746102 0.13497366227 0.13925303396 
0.1431688322 0.14667004503 0.14973389551 0.15236143427 0.15456761173 0.15636814911 0.1577669897 0.15874826972 0.15927516424 
0.15929475754 0.1587437839 0.15752242866 0.15544386698 0.15232383828 0.14808196224 0.14275586534 0.13648813992 0.12950414636 
0.12208218002 0.11451934268 0.1070986432 0.10006859705 0.093681626674 0.088178429571 0.083475976987 0.079363620359 0.075807071497 
0.072866400687 0.070606999281 0.069103023358 0.068389417978 0.068445638917 0.069217859961 0.070565587188 0.072232429224 0.073893773155 
0.075236739567 0.076028369774 0.076142267175 0.075559077526 0.074351468222 0.072684775614 0.070749617081 0.068604686216 0.06636958938 
0.064157885879 0.06208066535 0.060300878301 0.059088166519 0.058885051129 0.059838243269 0.061464721287 0.063452530754 0.065427081616 
0.066990871359 0.06779068299 0.067566682424 0.066178442648 0.063607735669 0.059941839087 0.055344843784 0.050025215638 0.044206207757 
0.038103564205 0.031913293551 0.025810704926 0.0199593967 0.014525242144 0.0096873629899 0.0056384212533 0.0025710071169 0.00065305380157 
1.6063079455e-17 
