# vtk DataFile Version 5.1
vtk output
ASCII
DATASET POLYDATA
POINTS 100 float
0.148505 0.0381265 0.702849 0.148572 0.0382883 0.702714 0.148866 0.0386451 0.702126 
0.14934 0.0391914 0.701079 0.149922 0.0399178 0.699563 0.150527 0.0408096 0.697557 
0.151059 0.0418466 0.695028 0.151429 0.0430015 0.691928 0.151556 0.0442403 0.688194 
0.15138 0.0455227 0.683746 0.150858 0.0468036 0.6785 0.149965 0.048035 0.672369 
0.148692 0.0491688 0.665277 0.147036 0.0501604 0.65717 0.144992 0.0509708 0.648024 
0.142548 0.0515698 0.637859 0.139677 0.0519375 0.626733 0.136335 0.0520649 0.614753 
0.132464 0.0519544 0.60206 0.127997 0.051618 0.588822 0.122862 0.0510755 0.575218 
0.116998 0.0503527 0.561424 0.110365 0.0494792 0.54759 0.102951 0.0484862 0.53383 
0.0947817 0.0474057 0.520208 0.0859237 0.0462704 0.506737 0.0764806 0.0451138 0.493373 
0.0665866 0.0439716 0.480029 0.0563943 0.0428827 0.466584 0.0460597 0.0418904 0.452903 
0.0357262 0.0410428 0.438851 0.0255087 0.0403916 0.424314 0.0154825 0.0399905 0.40921 
0.00567597 0.0398913 0.393502 -0.0039299 0.0401397 0.377194 -0.0133949 0.0407698 0.360328 
-0.0228068 0.0417991 0.342977 -0.0322638 0.0432244 0.325225 -0.0418538 0.0450187 0.30715 
-0.0516333 0.0471313 0.288808 -0.0616097 0.0494896 0.27022 -0.071728 0.0520049 0.25136 
-0.0818652 0.0545792 0.232159 -0.0918332 0.0571153 0.212505 -0.10139 0.0595267 0.192264 
-0.110259 0.0617475 0.17129 -0.118153 0.0637404 0.149457 -0.124804 0.065502 0.126672 
-0.129989 0.0670641 0.102899 -0.133553 0.0684906 0.07817 -0.13543 0.0698706 0.0525922 
-0.135649 0.0713071 0.0263405 -0.134333 0.0729036 -0.000353298 -0.131692 0.0747497 -0.0272217 
-0.127997 0.0769063 -0.0539874 -0.123557 0.0793948 -0.0803909 -0.11869 0.0821888 -0.106217 
-0.113687 0.0852119 -0.131313 -0.108791 0.0883408 -0.155609 -0.10417 0.091414 -0.179112 
-0.0999075 0.0942453 -0.201906 -0.0959956 0.0966412 -0.224134 -0.0923438 0.0984191 -0.245976 
-0.0887927 0.0994251 -0.267617 -0.0851355 0.0995498 -0.289223 -0.0811446 0.0987383 -0.310916 
-0.0765974 0.0969953 -0.33275 -0.0713022 0.0943834 -0.354706 -0.0651177 0.0910152 -0.37669 
-0.0579671 0.0870398 -0.398543 -0.0498441 0.0826257 -0.420059 -0.0408111 0.0779421 -0.441012 
-0.0309903 0.0731408 -0.46118 -0.02055 0.0683413 -0.480373 -0.00968688 0.0636201 -0.498454 
0.00139212 0.0590063 -0.515353 0.0124872 0.0544842 -0.53107 0.0234198 0.0500011 -0.545673 
0.0340419 0.0454808 -0.559279 0.0442412 0.04084 -0.572033 0.0539412 0.036006 -0.584086 
0.0630966 0.0309319 -0.59557 0.0716873 0.0256097 -0.606571 0.0797091 0.0200769 -0.617121 
0.0871669 0.0144171 -0.627187 0.0940667 0.00875422 -0.63668 0.100412 0.00324064 -0.645464 
0.106203 -0.00195878 -0.653379 0.111433 -0.00668512 -0.660268 0.116098 -0.0108037 -0.666001 
0.120195 -0.0142197 -0.670502 0.123727 -0.0168894 -0.673762 0.126709 -0.0188249 -0.675852 
0.129164 -0.0200924 -0.67692 0.131129 -0.0208032 -0.677176 0.132646 -0.0210997 -0.676873 
0.133763 -0.0211367 -0.676277 0.134524 -0.0210619 -0.675639 0.134967 -0.0209967 -0.675162 
0.135116 -0.0210207 -0.674981 
LINES 2 100
OFFSETS vtktypeint64
0 100 
CONNECTIVITY vtktypeint64
0 1 2 3 4 5 6 7 8 
9 10 11 12 13 14 15 16 17 
18 19 20 21 22 23 24 25 26 
27 28 29 30 31 32 33 34 35 
36 37 38 39 40 41 42 43 44 
45 46 47 48 49 50 51 52 53 
54 55 56 57 58 59 60 61 62 
63 64 65 66 67 68 69 70 71 
72 73 74 75 76 77 78 79 80 
81 82 83 84 85 86 87 88 89 
90 91 92 93 94 95 96 97 98 
99 
POINT_DATA 100
FIELD FieldData 3
_theta 1 100 double
0 0.031733259127 0.063466518254 0.095199777382 0.12693303651 0.15866629564 0.19039955476 0.22213281389 0.25386607302 
0.28559933214 0.31733259127 0.3490658504 0.38079910953 0.41253236865 0.44426562778 0.47599888691 0.50773214603 0.53946540516 
0.57119866429 0.60293192342 0.63466518254 0.66639844167 0.6981317008 0.72986495992 0.76159821905 0.79333147818 0.82506473731 
0.85679799643 0.88853125556 0.92026451469 0.95199777382 0.98373103294 1.0154642921 1.0471975512 1.0789308103 1.1106640695 
1.1423973286 1.1741305877 1.2058638468 1.237597106 1.2693303651 1.3010636242 1.3327968833 1.3645301425 1.3962634016 
1.4279966607 1.4597299198 1.491463179 1.5231964381 1.5549296972 1.5866629564 1.6183962155 1.6501294746 1.6818627337 
1.7135959929 1.745329252 1.7770625111 1.8087957702 1.8405290294 1.8722622885 1.9039955476 1.9357288068 1.9674620659 
1.999195325 2.0309285841 2.0626618433 2.0943951024 2.1261283615 2.1578616206 2.1895948798 2.2213281389 2.253061398 
2.2847946572 2.3165279163 2.3482611754 2.3799944345 2.4117276937 2.4434609528 2.4751942119 2.506927471 2.5386607302 
2.5703939893 2.6021272484 2.6338605076 2.6655937667 2.6973270258 2.7290602849 2.7607935441 2.7925268032 2.8242600623 
2.8559933214 2.8877265806 2.9194598397 2.9511930988 2.982926358 3.0146596171 3.0463928762 3.0781261353 3.1098593945 
3.1415926536 
_radius 1 100 double
1.0408340856e-16 0.014758457879 0.029470572439 0.044081211492 0.058522241943 0.07270914953 0.086540492934 0.099900210308 0.11266248269 
0.12469877289 0.13588676948 0.14612110025 0.15532548851 0.16346518274 0.1705571832 0.17667484123 0.18194363699 0.18652677698 
0.19060289579 0.19434223902 0.19788837893 0.20134842638 0.20479023829 0.20824376813 0.21170449576 0.21513798788 0.21848539955 
0.22167003069 0.22460495768 0.22720141119 0.22937711353 0.23106335524 0.2322094001 0.2327831274 0.2327677533 0.23215578919 
0.23094259394 0.22912241991 0.22668940165 0.22364449287 0.22000726713 0.21582934477 0.21120466402 0.20627155398 0.20120331249 
0.19618818068 0.19140504649 0.18700421136 0.18310003686 0.17977617872 0.17709887933 0.17513077583 0.17393625328 0.17357070865 
0.1740523351 0.17532584552 0.17723705507 0.17953558728 0.1819081648 0.18402951696 0.18561367056 0.18645355112 0.18644379746 
0.18558653365 0.18398254939 0.18181181346 0.17930784531 0.17673019746 0.17433827985 0.17236836263 0.17101432847 0.17041212256 
0.170628093 0.17165210761 0.17339666712 0.17570279319 0.17835252259 0.18108684524 0.18362710406 0.18569732862 0.18704482682 
0.18745665494 0.18677022762 0.18487717223 0.18172047327 0.17728590485 0.17158960509 0.16466426258 0.1565466187 0.14726872827 
0.13685463668 0.12532292587 0.11269422279 0.09900162526 0.084301421007 0.068681603273 0.052266412213 0.035216148289 0.017722463772 
9.5118424166e-16 
_area 1 100 double
0 0.00054014624695 0.002145271471 0.0047684296181 0.0083294019389 0.012715762655 0.017789768266 0.023401521094 0.029404671539 
0.035667108236 0.042069265821 0.048491450833 0.054804582172 0.060878560818 0.066607202904 0.071937914059 0.076894243476 0.081582034549 
0.086170112809 0.090833641304 0.09566795592 0.10066647213 0.10579218698 0.11101343751 0.11628691348 0.12154067731 0.12667630539 
0.13158463477 0.13616374936 0.14033114792 0.14402853679 0.14721970535 0.14986063588 0.15183841746 0.15299828683 0.15321111999 
0.15238799595 0.15047928302 0.1474777735 0.14342805448 0.1384406923 0.13270414177 0.12648260738 0.1200919556 0.11385720816 
0.1080624063 0.10290229896 0.098443721454 0.094620976141 0.091292170519 0.08832136946 0.085646821899 0.083311200278 0.081421179928 
0.080072595211 0.079200031037 0.078692507084 0.078446187856 0.078334663952 0.078221737441 0.077973124452 0.077442864607 0.076502229438 
0.075117614216 0.073365259604 0.071382882132 0.069331121332 0.067372508207 0.065668439426 0.064359711139 0.063541375067 0.063267378978 
0.063578330548 0.064559096985 0.066512548144 0.069164173679 0.072030550311 0.074803115439 0.077226871907 0.079093200602 0.08024308669 
0.080566475646 0.079997861695 0.078508593219 0.076095258852 0.072765630902 0.06853071371 0.063414042783 0.057476841406 0.050842549306 
0.043705815574 0.036323001219 0.028989252173 0.022009191684 0.015667728386 0.010206394101 0.0058092751807 0.002600550176 0.00065258723349 
6.9944116817e-17 
