# vtk DataFile Version 5.1
vtk output
ASCII
DATASET POLYDATA
POINTS 100 float
0.114597 0.0564506 0.710132 0.114745 0.0567647 0.709767 0.115283 0.0575426 0.708512 
0.116152 0.0587221 0.706417 0.117259 0.0602065 0.70356 0.118488 0.061876 0.700033 
0.119705 0.0636005 0.695938 0.120772 0.0652538 0.691367 0.121557 0.0667271 0.686397 
0.121945 0.0679392 0.681074 0.121845 0.0688446 0.675416 0.121195 0.0694354 0.669406 
0.119966 0.0697396 0.662996 0.118158 0.0698141 0.656116 0.115801 0.0697353 0.64868 
0.112944 0.0695862 0.640601 0.109651 0.069444 0.631801 0.105995 0.069368 0.622219 
0.102044 0.0693905 0.611823 0.0978601 0.0695118 0.60061 0.0934934 0.0696986 0.588609 
0.0889763 0.0698886 0.57588 0.0843241 0.0699978 0.562506 0.0795348 0.0699323 0.548586 
0.074591 0.0696007 0.534228 0.0694637 0.0689272 0.519541 0.0641152 0.0678635 0.504624 
0.0585041 0.066397 0.489568 0.0525883 0.0645554 0.474445 0.0463291 0.062406 0.459315 
0.0396942 0.0600504 0.444219 0.0326593 0.0576153 0.429188 0.0252109 0.0552396 0.414242 
0.0173471 0.05306 0.399391 0.00907941 0.0511969 0.384638 0.000433458 0.0497416 0.369976 
-0.00854964 0.048747 0.355388 -0.0178125 0.0482229 0.340844 -0.027281 0.0481355 0.326295 
-0.0368641 0.0484134 0.311671 -0.0464543 0.0489562 0.296883 -0.0559303 0.0496476 0.281818 
-0.0651587 0.0503705 0.266346 -0.0739995 0.051021 0.250323 -0.0823101 0.0515217 0.233606 
-0.0899526 0.0518316 0.216056 -0.0967997 0.0519515 0.197555 -0.102742 0.0519243 0.178019 
-0.107692 0.0518304 0.157402 -0.111594 0.0517788 0.135707 -0.11442 0.051894 0.112987 
-0.116177 0.0523012 0.0893456 -0.116903 0.0531119 0.0649272 -0.116663 0.0544094 0.0399093 
-0.115547 0.0562383 0.014488 -0.11366 0.0585976 -0.0111365 -0.111116 0.0614391 -0.036775 
-0.10803 0.0646698 -0.0622618 -0.104511 0.0681597 -0.0874652 -0.100656 0.0717532 -0.112293 
-0.096545 0.0752824 -0.136694 -0.0922381 0.0785814 -0.160654 -0.087776 0.0815002 -0.184188 
-0.0831804 0.0839162 -0.207333 -0.0784574 0.0857418 -0.230133 -0.0736008 0.0869292 -0.25263 
-0.0685972 0.0874696 -0.274854 -0.0634298 0.0873891 -0.296817 -0.058083 0.0867412 -0.318508 
-0.0525456 0.085597 -0.339898 -0.0468124 0.0840346 -0.360939 -0.0408862 0.0821284 -0.381574 
-0.034777 0.0799414 -0.401744 -0.028502 0.0775183 -0.421394 -0.0220839 0.0748837 -0.440482 
-0.0155496 0.0720425 -0.458979 -0.00892917 0.0689845 -0.476872 -0.00225434 0.0656902 -0.494159 
0.00444159 0.0621397 -0.510847 0.0111241 0.0583209 -0.526939 0.0177573 0.0542372 -0.542429 
0.0243034 0.0499138 -0.557294 0.0307221 0.0453998 -0.571489 0.0369713 0.0407691 -0.584945 
0.0430066 0.0361163 -0.59757 0.0487828 0.0315505 -0.609258 0.054255 0.0271867 -0.619898 
0.0593807 0.0231356 -0.629385 0.0641219 0.0194938 -0.637637 0.0684469 0.0163351 -0.644605 
0.0723323 0.0137034 -0.650283 0.0757642 0.0116093 -0.654716 0.078738 0.0100297 -0.658001 
0.0812586 0.00891174 -0.660277 0.083338 0.00817879 -0.66172 0.0849938 0.00774014 -0.662525 
0.086246 0.00750148 -0.662888 0.087114 0.00737597 -0.66299 0.0876142 0.00729432 -0.662971 
0.0877572 0.00721284 -0.662927 
LINES 2 100
OFFSETS vtktypeint64
0 100 
CONNECTIVITY vtktypeint64
0 1 2 3 4 5 6 7 8 
9 10 11 12 13 14 15 16 17 
18 19 20 21 22 23 24 25 26 
27 28 29 30 31 32 33 34 35 
36 37 38 39 40 41 42 43 44 
45 46 47 48 49 50 51 52 53 
54 55 56 57 58 59 60 61 62 
63 64 65 66 67 68 69 70 71 
72 73 74 75 76 77 78 79 80 
81 82 83 84 85 86 87 88 89 
90 91 92 93 94 95 96 97 98 
99 
POINT_DATA 100
FIELD FieldData 3
_theta 1 100 double
0 0.031733259127 0.063466518254 0.095199777382 0.12693303651 0.15866629564 0.19039955476 0.22213281389 0.25386607302 
0.28559933214 0.31733259127 0.3490658504 0.38079910953 0.41253236865 0.44426562778 0.47599888691 0.50773214603 0.53946540516 
0.57119866429 0.60293192342 0.63466518254 0.66639844167 0.6981317008 0.72986495992 0.76159821905 0.79333147818 0.82506473731 
0.85679799643 0.88853125556 0.92026451469 0.95199777382 0.98373103294 1.0154642921 1.0471975512 1.0789308103 1.1106640695 
1.1423973286 1.1741305877 1.2058638468 1.237597106 1.2693303651 1.3010636242 1.3327968833 1.3645301425 1.3962634016 
1.4279966607 1.4597299198 1.491463179 1.5231964381 1.5549296972 1.5866629564 1.6183962155 1.6501294746 1.6818627337 
1.7135959929 1.745329252 1.7770625111 1.8087957702 1.8405290294 1.8722622885 1.9039955476 1.9357288068 1.9674620659 
1.999195325 2.0309285841 2.0626618433 2.0943951024 2.1261283615 2.1578616206 2.1895948798 2.2213281389 2.253061398 
2.2847946572 2.3165279163 2.3482611754 2.3799944345 2.4117276937 2.4434609528 2.4751942119 2.506927471 2.5386607302 
2.5703939893 2.6021272484 2.6338605076 2.6655937667 2.6973270258 2.7290602849 2.7607935441 2.7925268032 2.8242600623 
2.8559933214 2.8877265806 2.9194598397 2.9511930988 2.982926358 3.0146596171 3.0463928762 3.0781261353 3.1098593945 
3.1415926536 
_radius 1 100 double
4.6366143903e-16 0.014124836127 0.028093510804 0.041757893004 0.054996482702 0.06772158389 0.07988046094 0.091450936631 0.10243322748 
0.11284046279 0.12269001449 0.1319967255 0.14076803928 0.14900053603 0.15667763259 0.16376884059 0.17023142761 0.17601523777 
0.18107083432 0.18536029882 0.18886922549 0.19161785692 0.19366902394 0.19513068035 0.19615147522 0.19690903633 0.1975922973 
0.19838082718 0.19942503704 0.20083077006 0.20265007735 0.20487770855 0.20745133833 0.21025373334 0.21311661666 0.21582763738 
0.21814243787 0.21980300753 0.22056179834 0.22020925185 0.21860110184 0.21568134849 0.21149708831 0.20620221864 0.200048239 
0.19336191395 0.18651155642 0.17986620225 0.17375456365 0.16843210259 0.16406322301 0.16072104776 0.15840138584 0.15704314099 
0.1565463489 0.15678192726 0.1575937465 0.15880003148 0.16020135352 0.16159668708 0.16280416688 0.1636823124 0.16414761267 
0.16418392358 0.16384006663 0.16321538858 0.16243687907 0.16163356513 0.16091396024 0.16035102466 0.15997690627 0.15978678178 
0.15974814724 0.15981087908 0.15991521097 0.15999754508 0.15999532759 0.15985156594 0.15951811611 0.1589560824 0.15813223766 
0.15701193232 0.15555054197 0.15368621542 0.15133621676 0.14839784347 0.14475342295 0.1402778787 0.13484715929 0.12834636782 
0.12067729031 0.11176565613 0.10156854106 0.090081888898 0.077347489971 0.06345824534 0.048560361303 0.032851315685 0.016572974026 
1.5778442846e-15 
_area 1 100 double
0 0.00048614962959 0.001928247691 0.0042792206612 0.0074664693377 0.011398535285 0.015971568173 0.021074918633 0.026596265459 
0.032426869451 0.038466170384 0.044622602966 0.050807625125 0.056926395329 0.062875203825 0.068550661258 0.073864438263 0.078753892048 
0.08318325048 0.087136726404 0.090610641943 0.093612924524 0.096173387293 0.098359902775 0.10028962577 0.10212475835 0.10404922015 
0.10623278287 0.10879669974 0.1117944134 0.11521249233 0.11898611851 0.12301854742 0.12719750808 0.13140457257 0.13545155802 
0.13900421026 0.14167204191 0.1430736165 0.14288451642 0.14088918375 0.13703061932 0.13144046615 0.12443573166 0.11648183403 
0.10812876132 0.099923386078 0.092305860715 0.085537948253 0.079722249021 0.074880489311 0.071010119571 0.068081217596 0.06601539535 
0.064665119865 0.063827655974 0.063389565675 0.063238123021 0.063150894723 0.062946166834 0.062476932578 0.061632483213 0.060356565032 
0.05866784822 0.056653778257 0.05440540517 0.05205810377 0.049819143829 0.047909386887 0.046507652481 0.045660263928 0.045293887903 
0.045303607046 0.045577797501 0.046017145963 0.046549070375 0.047092575558 0.047568500659 0.0481204569 0.048844461213 0.049507238389 
0.050042558463 0.050406517442 0.050527792521 0.050296403072 0.049575946778 0.04822986026 0.04615064727 0.043283269797 0.039638372114 
0.035295252838 0.030397169583 0.025142150053 0.019771340089 0.014555210005 0.0097769515572 0.0057127003856 0.0026094872396 0.0006632442632 
3.4697010463e-17 
