# vtk DataFile Version 5.1
vtk output
ASCII
DATASET POLYDATA
POINTS 100 float
0.114105 0.0318903 0.676652 0.114171 0.0320823 0.676409 0.114451 0.0325898 0.675556 
0.114879 0.0334038 0.674095 0.115352 0.0345075 0.67203 0.115748 0.035875 0.669366 
0.115935 0.0374697 0.666112 0.115789 0.0392439 0.662276 0.115206 0.0411386 0.657868 
0.114117 0.0430853 0.652897 0.112491 0.0450095 0.64737 0.110341 0.0468353 0.64129 
0.107716 0.0484908 0.634658 0.104698 0.0499146 0.627465 0.101384 0.0510616 0.6197 
0.0978812 0.0519071 0.611347 0.0942846 0.0524502 0.602385 0.0906701 0.0527143 0.592796 
0.0870831 0.0527443 0.582564 0.0835333 0.0526028 0.57168 0.0799941 0.0523629 0.560148 
0.0764059 0.0521003 0.547986 0.0726834 0.0518853 0.535229 0.0687253 0.0517748 0.52193 
0.064426 0.0518065 0.508157 0.0596859 0.0519956 0.493989 0.0544222 0.052334 0.479514 
0.0485749 0.0527932 0.464816 0.0421121 0.0533295 0.449975 0.0350304 0.053891 0.435051 
0.0273533 0.0544269 0.420082 0.0191278 0.0548952 0.40508 0.0104186 0.0552706 0.390023 
0.00130347 0.0555487 0.374861 -0.0081316 0.0557489 0.359514 -0.0177955 0.0559125 0.343883 
-0.0275938 0.056099 0.327857 -0.0374284 0.0563781 0.311321 -0.047197 0.0568221 0.294168 
-0.0567912 0.0574955 0.276311 -0.0660955 0.0584473 0.257686 -0.0749878 0.0597033 0.238265 
-0.0833411 0.0612627 0.218049 -0.0910278 0.0630973 0.197077 -0.0979262 0.0651538 0.175415 
-0.103928 0.0673599 0.153151 -0.108948 0.0696323 0.130392 -0.112929 0.0718862 0.107245 
-0.115854 0.0740443 0.0838182 -0.117746 0.0760448 0.0602081 -0.118667 0.0778477 0.0364967 
-0.11872 0.0794367 0.0127486 -0.118033 0.080819 -0.010988 -0.116758 0.0820213 -0.034679 
-0.115047 0.0830833 -0.058299 -0.113046 0.0840493 -0.0818257 -0.110876 0.0849597 -0.105234 
-0.108626 0.0858432 -0.128492 -0.106344 0.0867103 -0.151555 -0.104033 0.0875506 -0.174368 
-0.101657 0.0883319 -0.196867 -0.0991465 0.0890039 -0.218978 -0.0964084 0.0895035 -0.240631 
-0.0933431 0.0897626 -0.261758 -0.0898573 0.0897168 -0.282304 -0.0858784 0.0893129 -0.302233 
-0.0813659 0.0885161 -0.321529 -0.0763187 0.0873138 -0.340196 -0.070777 0.0857165 -0.358261 
-0.0648205 0.0837564 -0.375765 -0.0585612 0.0814818 -0.392758 -0.0521324 0.0789512 -0.409288 
-0.0456766 0.0762247 -0.425399 -0.0393322 0.0733568 -0.441116 -0.0332223 0.07039 -0.456441 
-0.0274453 0.0673505 -0.471353 -0.0220705 0.0642473 -0.485804 -0.0171367 0.0610741 -0.499723 
-0.0126558 0.0578135 -0.513024 -0.0086194 0.0544443 -0.52561 -0.00500723 0.0509489 -0.537388 
-0.00179674 0.0473211 -0.548274 0.00102874 0.0435725 -0.558205 0.0034739 0.0397361 -0.567144 
0.00552876 0.0358672 -0.575085 0.00716978 0.0320409 -0.582051 0.00836462 0.0283461 -0.588096 
0.00907987 0.024877 -0.593294 0.00929058 0.021724 -0.597738 0.00899004 0.0189629 -0.601524 
0.00819821 0.0166468 -0.60475 0.00696739 0.0147995 -0.607502 0.00538397 0.0134131 -0.609851 
0.00356564 0.0124481 -0.611853 0.00165426 0.0118393 -0.61354 -0.000195192 0.0115031 -0.614932 
-0.00182818 0.0113486 -0.616031 -0.00310517 0.0112886 -0.616834 -0.00391534 0.0112512 -0.617332 
-0.00418787 0.0111888 -0.617517 
LINES 2 100
OFFSETS vtktypeint64
0 100 
CONNECTIVITY vtktypeint64
0 1 2 3 4 5 6 7 8 
9 10 11 12 13 14 15 16 17 
18 19 20 21 22 23 24 25 26 
27 28 29 30 31 32 33 34 35 
36 37 38 39 40 41 42 43 44 
45 46 47 48 49 50 51 52 53 
54 55 56 57 58 59 60 61 62 
63 64 65 66 67 68 69 70 71 
72 73 74 75 76 77 78 79 80 
81 82 83 84 85 86 87 88 89 
90 91 92 93 94 95 96 97 98 
99 
POINT_DATA 100
FIELD FieldData 3
_theta 1 100 double
0 0.031733259127 0.063466518254 0.095199777382 0.12693303651 0.15866629564 0.19039955476 0.22213281389 0.25386607302 
0.28559933214 0.31733259127 0.3490658504 0.38079910953 0.41253236865 0.44426562778 0.47599888691 0.50773214603 0.53946540516 
0.57119866429 0.60293192342 0.63466518254 0.66639844167 0.6981317008 0.72986495992 0.76159821905 0.79333147818 0.82506473731 
0.85679799643 0.88853125556 0.92026451469 0.95199777382 0.98373103294 1.0154642921 1.0471975512 1.0789308103 1.1106640695 
1.1423973286 1.1741305877 1.2058638468 1.237597106 1.2693303651 1.3010636242 1.3327968833 1.3645301425 1.3962634016 
1.4279966607 1.4597299198 1.491463179 1.5231964381 1.5549296972 1.5866629564 1.6183962155 1.6501294746 1.6818627337 
1.7135959929 1.745329252 1.7770625111 1.8087957702 1.8405290294 1.8722622885 1.9039955476 1.9357288068 1.9674620659 
1.999195325 2.0309285841 2.0626618433 2.0943951024 2.1261283615 2.1578616206 2.1895948798 2.2213281389 2.253061398 
2.2847946572 2.3165279163 2.3482611754 2.3799944345 2.4117276937 2.4434609528 2.4751942119 2.506927471 2.5386607302 
2.5703939893 2.6021272484 2.6338605076 2.6655937667 2.6973270258 2.7290602849 2.7607935441 2.7925268032 2.8242600623 
2.8559933214 2.8877265806 2.9194598397 2.9511930988 2.982926358 3.0146596171 3.0463928762 3.0781261353 3.1098593945 
3.1415926536 
_radius 1 100 double
1.0075742265e-15 0.011334506421 0.022598488139 0.03373150077 0.044682061041 0.055409022991 0.065880551113 0.076071151506 0.08595767916 
0.095515222237 0.10471336836 0.11351315325 0.12186546865 0.12971215916 0.13699008687 0.14363671575 0.14959547576 0.1548204644 
0.15928116013 0.16296778461 0.16589709838 0.16811746678 0.16971145864 0.17079418457 0.17150603296 0.17199943374 0.17242079337 
0.17289059034 0.17348607521 0.17423102243 0.17509503936 0.17600191792 0.1768440927 0.17749946241 0.17784741017 0.17778202669 
0.17722170912 0.17611523755 0.17444504226 0.17222860378 0.16951870223 0.16640254881 0.16299891562 0.15945178151 0.1559193777 
0.15255905657 0.14951050283 0.146881224 0.14473798756 0.14310596626 0.14197489929 0.14130977528 0.14106288382 0.14118438345 
0.14162945823 0.14236139703 0.14335113348 0.14457442971 0.14600776908 0.14762357188 0.14938527933 0.15124334796 0.15313366648 
0.15497965399 0.15669824107 0.15820864048 0.15944199288 0.16034996766 0.16091101679 0.16113365324 0.16105636415 0.16074369243 
0.16027821489 0.15974884178 0.1592366732 0.15880012006 0.1584610509 0.1581936128 0.15791739286 0.15749670427 0.15674755591 
0.15545286375 0.15338477747 0.15033124451 0.14612279461 0.14065531481 0.1339052003 0.12593441922 0.1168844492 0.10695956219 
0.096401480481 0.085458971761 0.074357375772 0.063273911683 0.052324006409 0.041561033451 0.030987371862 0.020571002496 0.010261282274 
1.0702870787e-15 
_area 1 100 double
0 0.00031667799617 0.0012623198823 0.0028225696625 0.0049708468255 0.0076676864161 0.010863540495 0.014504821878 0.018541129142 
0.022930112645 0.027632270624 0.032587333206 0.037694041732 0.042820973414 0.047829911702 0.052595949059 0.057023219082 0.061054843391 
0.064674672188 0.06789947161 0.070763960624 0.073306781092 0.07556668211 0.077589662917 0.07943757708 0.081187278673 0.082915888806 
0.084677559739 0.086484212323 0.088299531837 0.090045408955 0.091614672923 0.092886243085 0.093742356012 0.094087884358 0.093867870173 
0.093073969404 0.091732892067 0.089883546458 0.08756134264 0.084803001719 0.08166539563 0.07823962319 0.074653851058 0.071066197776 
0.06764021036 0.064508821976 0.061743808355 0.059340520007 0.057224653149 0.055283921859 0.053414065189 0.051561323664 0.049752058953 
0.04814934683 0.046948752516 0.046454464765 0.046568657773 0.047190211696 0.048278354648 0.049788345024 0.05161707837 0.05361582352 
0.055631905682 0.057505213568 0.059074328619 0.060188462817 0.060728891334 0.060638247014 0.059944693562 0.058768485266 0.057310691468 
0.055846622371 0.054666751314 0.054051666117 0.054090068134 0.054763347158 0.05595845087 0.05747423783 0.059046152092 0.060370097256 
0.061126298697 0.061012149162 0.059785402291 0.057309227896 0.053585630504 0.048765044894 0.043126426042 0.03703101703 0.030860808325 
0.024956953035 0.019573182202 0.014854905094 0.010846949345 0.0075242632183 0.0048346406793 0.0027383439827 0.0012256327382 0.00030793745931 
4.4527658521e-18 
