# vtk DataFile Version 5.1
vtk output
ASCII
DATASET POLYDATA
POINTS 100 float
0.0497467 0.0511124 0.741827 0.0499841 0.0514183 0.741638 0.0507707 0.0521339 0.740865 
0.0520142 0.0531967 0.739498 0.0535697 0.0545113 0.737518 0.0552548 0.0559587 0.7349 
0.0568673 0.0574087 0.73161 0.0582049 0.0587325 0.72761 0.0590839 0.0598149 0.722859 
0.0593549 0.0605646 0.717313 0.0589143 0.060921 0.710933 0.05771 0.0608578 0.703689 
0.0557411 0.0603819 0.695564 0.0530518 0.0595298 0.686559 0.0497205 0.0583594 0.676698 
0.045847 0.0569419 0.666027 0.0415365 0.0553515 0.654619 0.0368863 0.0536566 0.642563 
0.0319737 0.0519127 0.629969 0.0268489 0.0501579 0.616952 0.0215312 0.0484114 0.603628 
0.0160117 0.0466752 0.590103 0.0102589 0.0449384 0.576465 0.00422839 0.0431834 0.562779 
-0.00212586 0.0413928 0.549079 -0.00884064 0.0395564 0.535365 -0.0159337 0.0376765 0.521612 
-0.0233976 0.0357716 0.507766 -0.0311966 0.033877 0.493755 -0.0392692 0.0320433 0.4795 
-0.0475335 0.0303318 0.464917 -0.0558969 0.0288086 0.449932 -0.0642664 0.0275375 0.434484 
-0.0725601 0.0265733 0.418527 -0.0807174 0.0259557 0.402035 -0.0887051 0.0257053 0.384997 
-0.0965206 0.0258224 0.367413 -0.10419 0.0262874 0.349284 -0.111762 0.0270652 0.330613 
-0.119296 0.0281098 0.31139 -0.126851 0.0293717 0.291593 -0.134471 0.0308048 0.271185 
-0.142172 0.032372 0.250116 -0.14993 0.0340506 0.22833 -0.157681 0.0358344 0.205773 
-0.165311 0.0377333 0.182401 -0.172669 0.0397709 0.158193 -0.179575 0.0419794 0.133163 
-0.185833 0.0443933 0.107362 -0.191251 0.0470423 0.0808843 -0.195659 0.0499445 0.0538649 
-0.198924 0.0531009 0.0264733 -0.200967 0.0564919 -0.00109845 -0.201769 0.0600758 -0.028651 
-0.201374 0.0637906 -0.0559947 -0.199885 0.0675578 -0.0829671 -0.197453 0.0712877 -0.109448 
-0.194261 0.0748869 -0.135373 -0.190504 0.078265 -0.160734 -0.186369 0.0813418 -0.185587 
-0.182014 0.0840521 -0.210039 -0.177553 0.0863494 -0.234236 -0.17304 0.0882071 -0.258349 
-0.168468 0.0896171 -0.282548 -0.16377 0.0905869 -0.306985 -0.158823 0.0911352 -0.331773 
-0.15347 0.0912862 -0.356969 -0.147533 0.0910645 -0.382568 -0.140836 0.0904905 -0.408496 
-0.133229 0.0895775 -0.434615 -0.124602 0.0883294 -0.460735 -0.114905 0.0867417 -0.486628 
-0.10415 0.0848036 -0.512046 -0.0924201 0.0825009 -0.536744 -0.0798587 0.0798209 -0.560497 
-0.0666603 0.0767566 -0.583117 -0.0530537 0.073311 -0.604467 -0.0392817 0.0695004 -0.62446 
-0.0255808 0.0653556 -0.643067 -0.0121619 0.060923 -0.660307 0.000806473 0.0562622 -0.676238 
0.0132083 0.0514442 -0.690945 0.0249855 0.0465465 -0.704526 0.036136 0.0416496 -0.717079 
0.0467057 0.0368318 -0.728691 0.0567753 0.0321656 -0.73943 0.0664434 0.0277141 -0.749342 
0.0758075 0.0235292 -0.758455 0.0849462 0.0196501 -0.766775 0.0939031 0.0161038 -0.774298 
0.102675 0.0129062 -0.781017 0.111207 0.0100636 -0.786926 0.119392 0.00757515 -0.792027 
0.127076 0.00543506 -0.796334 0.134072 0.00363472 -0.799874 0.140175 0.00216456 -0.80268 
0.145182 0.00101541 -0.804795 0.14891 0.000179534 -0.80626 0.151215 -0.000348788 -0.807108 
0.152002 -0.000572889 -0.807365 
LINES 2 100
OFFSETS vtktypeint64
0 100 
CONNECTIVITY vtktypeint64
0 1 2 3 4 5 6 7 8 
9 10 11 12 13 14 15 16 17 
18 19 20 21 22 23 24 25 26 
27 28 29 30 31 32 33 34 35 
36 37 38 39 40 41 42 43 44 
45 46 47 48 49 50 51 52 53 
54 55 56 57 58 59 60 61 62 
63 64 65 66 67 68 69 70 71 
72 73 74 75 76 77 78 79 80 
81 82 83 84 85 86 87 88 89 
90 91 92 93 94 95 96 97 98 
99 
POINT_DATA 100
FIELD FieldData 3
_theta 1 100 double
0 0.031733259127 0.063466518254 0.095199777382 0.12693303651 0.15866629564 0.19039955476 0.22213281389 0.25386607302 
0.28559933214 0.31733259127 0.3490658504 0.38079910953 0.41253236865 0.44426562778 0.47599888691 0.50773214603 0.53946540516 
0.57119866429 0.60293192342 0.63466518254 0.66639844167 0.6981317008 0.72986495992 0.76159821905 0.79333147818 0.82506473731 
0.85679799643 0.88853125556 0.92026451469 0.95199777382 0.98373103294 1.0154642921 1.0471975512 1.0789308103 1.1106640695 
1.1423973286 1.1741305877 1.2058638468 1.237597106 1.2693303651 1.3010636242 1.3327968833 1.3645301425 1.3962634016 
1.4279966607 1.4597299198 1.491463179 1.5231964381 1.5549296972 1.5866629564 1.6183962155 1.6501294746 1.6818627337 
1.7135959929 1.745329252 1.7770625111 1.8087957702 1.8405290294 1.8722622885 1.9039955476 1.9357288068 1.9674620659 
1.999195325 2.0309285841 2.0626618433 2.0943951024 2.1261283615 2.1578616206 2.1895948798 2.2213281389 2.253061398 
2.2847946572 2.3165279163 2.3482611754 2.3799944345 2.4117276937 2.4434609528 2.4751942119 2.506927471 2.5386607302 
2.5703939893 2.6021272484 2.6338605076 2.6655937667 2.6973270258 2.7290602849 2.7607935441 2.7925268032 2.8242600623 
2.8559933214 2.8877265806 2.9194598397 2.9511930988 2.982926358 3.0146596171 3.0463928762 3.0781261353 3.1098593945 
3.1415926536 
_radius 1 100 double
2.4355418758e-16 0.014837691042 0.029544636526 0.043983861462 0.058027876633 0.071563489308 0.084496042042 0.096752849613 0.10828551081 
0.11907068068 0.12910893285 0.13842160529 0.14704593613 0.15502916212 0.16242238741 0.16927491251 0.17562948725 0.18151880884 
0.18696359918 0.19197264155 0.19654503196 0.20067451861 0.20435529559 0.20758819578 0.21038600597 0.21277660615 0.21480283848 
0.21651851108 0.21798075186 0.21923988431 0.22032878659 0.22125400018 0.22199053808 0.22248154254 0.22264298446 0.22237279728 
0.22156332739 0.22011570398 0.21795456656 0.21504147915 0.21138534103 0.20704824629 0.20214560703 0.19683996959 0.1913288267 
0.18582780496 0.18055168245 0.17569637094 0.17142480889 0.16785840233 0.16507352514 0.16310061439 0.16192278168 0.16147223843 
0.16162571768 0.16220313364 0.16297528099 0.16368464805 0.16407773492 0.16394069711 0.16312827302 0.16158002923 0.15932334232 
0.15646548339 0.15317788136 0.14967565171 0.14619541328 0.14297387316 0.14022840522 0.13813968668 0.13683640729 0.13638315739 
0.13677387619 0.13793345743 0.13972848466 0.14198504388 0.14450894502 0.14710331874 0.1495805189 0.15176794124 0.15350926463 
0.15466338191 0.15510317941 0.1547155746 0.15340306857 0.15108590868 0.14770321848 0.14321149027 0.13757984212 0.13078319916 
0.12279628839 0.11359199211 0.10314653786 0.091451499986 0.078529833245 0.064451495577 0.049344278167 0.033396908898 0.01685347728 
1.6098086676e-15 
_area 1 100 double
0 0.00057768485277 0.00229463305 0.0051015312673 0.0089141434395 0.013613819413 0.019052735446 0.025064196339 0.031476070757 
0.038124363683 0.044864071519 0.051575232341 0.058163206692 0.064553812702 0.070685776771 0.076504013924 0.081956566539 0.086996243733 
0.091586693651 0.095712009111 0.099387761937 0.10266912592 0.10565018087 0.1084506854 0.1111938422 0.11398532848 0.11690107935 
0.11998181018 0.12322873891 0.12659904592 0.13000346609 0.13330904933 0.13634989192 0.13895158051 0.14095233954 0.14212368119 
0.14220927582 0.14105130369 0.13861823595 0.13501511301 0.13051397184 0.1254522959 0.11976178776 0.11363054788 0.10731219291 
0.10105863095 0.095091125453 0.089582154086 0.084643528033 0.080322680861 0.076613779129 0.073485769196 0.070917378857 0.068903754479 
0.067428848593 0.066455719133 0.065881072386 0.065459179784 0.064906759771 0.064011242325 0.062653282415 0.060740478388 0.058278640322 
0.055397736266 0.052534957961 0.0500056055 0.047612644236 0.045509430458 0.043866383321 0.042834996056 0.042493350272 0.042798493887 
0.043613533564 0.044779960253 0.046146537103 0.047576238368 0.048954136658 0.050193113181 0.051234930426 0.052047009509 0.052615086404 
0.052932072816 0.0529845569 0.052735927374 0.052102413263 0.050941368271 0.049094115628 0.046458920233 0.043028110909 0.038881458754 
0.034160725507 0.029045260878 0.023737932954 0.01846040828 0.013449727386 0.0089480682841 0.0051841246202 0.0023519410023 0.00059512342387 
2.7908215191e-17 
