# vtk DataFile Version 5.1
vtk output
ASCII
DATASET POLYDATA
POINTS 100 float
0.106746 0.0889629 0.757299 0.106852 0.0890078 0.75718 0.107262 0.0889575 0.756619 
0.107922 0.0888161 0.755579 0.108749 0.0885906 0.754003 0.109641 0.0882905 0.751817 
0.110487 0.0879267 0.74894 0.111183 0.0875105 0.745292 0.11164 0.0870528 0.740797 
0.111792 0.0865627 0.735394 0.111603 0.0860469 0.729041 0.111068 0.0855083 0.721722 
0.110207 0.0849457 0.713444 0.109061 0.0843535 0.704244 0.107677 0.0837207 0.694181 
0.106105 0.0830322 0.683333 0.104381 0.0822682 0.671795 0.102523 0.0814056 0.659667 
0.100526 0.0804193 0.647049 0.0983577 0.0792832 0.634036 0.0959667 0.0779723 0.620705 
0.0932856 0.076465 0.60712 0.0902428 0.0747444 0.593319 0.0867725 0.0728012 0.579322 
0.0828254 0.0706353 0.565126 0.0783774 0.068257 0.550713 0.0734345 0.0656887 0.536054 
0.0680342 0.0629649 0.521111 0.0622413 0.0601322 0.50585 0.0561408 0.0572476 0.490242 
0.0498259 0.0543772 0.474268 0.0433855 0.051593 0.457921 0.0368913 0.0489698 0.44121 
0.0303859 0.0465813 0.424156 0.0238761 0.0444965 0.406787 0.0173295 0.0427758 0.389137 
0.0106777 0.0414677 0.371237 0.00382506 0.0406065 0.353108 -0.0033381 0.0402103 0.334759 
-0.0109182 0.0402811 0.316179 -0.0189997 0.0408046 0.297338 -0.0276274 0.0417523 0.278183 
-0.0367912 0.0430841 0.258644 -0.0464159 0.0447509 0.238641 -0.0563578 0.0466985 0.218086 
-0.0664083 0.0488707 0.196895 -0.0763046 0.0512124 0.174996 -0.0857472 0.0536723 0.152337 
-0.0944222 0.0562041 0.128894 -0.102026 0.0587676 0.104676 -0.108289 0.0613283 0.0797253 
-0.113002 0.0638566 0.0541179 -0.116026 0.0663267 0.0279599 -0.117313 0.0687145 0.00138038 
-0.1169 0.0709965 -0.0254769 -0.114909 0.0731483 -0.0524627 -0.111533 0.075144 -0.0794322 
-0.107016 0.0769561 -0.106254 -0.101633 0.0785563 -0.132816 -0.0956595 0.0799166 -0.15903 
-0.0893545 0.081011 -0.184838 -0.0829347 0.0818172 -0.210203 -0.0765606 0.0823178 -0.235113 
-0.0703279 0.0825016 -0.259571 -0.0642654 0.0823636 -0.283589 -0.0583408 0.0819044 -0.307181 
-0.0524725 0.0811289 -0.330355 -0.0465461 0.0800438 -0.353109 -0.0404336 0.0786549 -0.375425 
-0.0340136 0.0769648 -0.397268 -0.0271893 0.0749701 -0.418586 -0.0199034 0.0726598 -0.439316 
-0.0121483 0.070015 -0.459385 -0.00396954 0.0670095 -0.478717 0.00453507 0.0636127 -0.497244 
0.0132234 0.0597926 -0.514904 0.0219206 0.0555213 -0.531656 0.0304341 0.05078 -0.547475 
0.0385696 0.0455645 -0.56236 0.0461479 0.03989 -0.576332 0.053018 0.0337949 -0.58943 
0.0590688 0.0273417 -0.601709 0.0642355 0.0206175 -0.613235 0.0685019 0.0137303 -0.624076 
0.0718981 0.00680468 -0.6343 0.0744942 -2.57304e-05 -0.643966 0.0763913 -0.00662608 -0.65312 
0.0777099 -0.0128691 -0.661793 0.0785785 -0.0186434 -0.669997 0.0791218 -0.0238606 -0.677725 
0.0794518 -0.0284605 -0.684954 0.07966 -0.0324135 -0.691647 0.079814 -0.0357205 -0.697752 
0.079956 -0.03841 -0.703214 0.080105 -0.0405317 -0.70797 0.0802613 -0.0421497 -0.711961 
0.080412 -0.0433329 -0.715131 0.0805377 -0.0441465 -0.717435 0.0806194 -0.0446433 -0.718835 
0.0806429 -0.0448574 -0.71931 
LINES 2 100
OFFSETS vtktypeint64
0 100 
CONNECTIVITY vtktypeint64
0 1 2 3 4 5 6 7 8 
9 10 11 12 13 14 15 16 17 
18 19 20 21 22 23 24 25 26 
27 28 29 30 31 32 33 34 35 
36 37 38 39 40 41 42 43 44 
45 46 47 48 49 50 51 52 53 
54 55 56 57 58 59 60 61 62 
63 64 65 66 67 68 69 70 71 
72 73 74 75 76 77 78 79 80 
81 82 83 84 85 86 87 88 89 
90 91 92 93 94 95 96 97 98 
99 
POINT_DATA 100
FIELD FieldData 3
_theta 1 100 double
0 0.031733259127 0.063466518254 0.095199777382 0.12693303651 0.15866629564 0.19039955476 0.22213281389 0.25386607302 
0.28559933214 0.31733259127 0.3490658504 0.38079910953 0.41253236865 0.44426562778 0.47599888691 0.50773214603 0.53946540516 
0.57119866429 0.60293192342 0.63466518254 0.66639844167 0.6981317008 0.72986495992 0.76159821905 0.79333147818 0.82506473731 
0.85679799643 0.88853125556 0.92026451469 0.95199777382 0.98373103294 1.0154642921 1.0471975512 1.0789308103 1.1106640695 
1.1423973286 1.1741305877 1.2058638468 1.237597106 1.2693303651 1.3010636242 1.3327968833 1.3645301425 1.3962634016 
1.4279966607 1.4597299198 1.491463179 1.5231964381 1.5549296972 1.5866629564 1.6183962155 1.6501294746 1.6818627337 
1.7135959929 1.745329252 1.7770625111 1.8087957702 1.8405290294 1.8722622885 1.9039955476 1.9357288068 1.9674620659 
1.999195325 2.0309285841 2.0626618433 2.0943951024 2.1261283615 2.1578616206 2.1895948798 2.2213281389 2.253061398 
2.2847946572 2.3165279163 2.3482611754 2.3799944345 2.4117276937 2.4434609528 2.4751942119 2.506927471 2.5386607302 
2.5703939893 2.6021272484 2.6338605076 2.6655937667 2.6973270258 2.7290602849 2.7607935441 2.7925268032 2.8242600623 
2.8559933214 2.8877265806 2.9194598397 2.9511930988 2.982926358 3.0146596171 3.0463928762 3.0781261353 3.1098593945 
3.1415926536 
_radius 1 100 double
7.0024407448e-16 0.014978691874 0.029736754813 0.044065838429 0.057791714101 0.070785760832 0.082970622499 0.094319767007 0.10485165672 
0.11461997887 0.12370175728 0.13218514471 0.14015831035 0.14770019993 0.15487333994 0.16171863821 0.16825238736 0.17446605048 
0.18032941418 0.18579714709 0.19081792977 0.19534455057 0.19934303929 0.20279916687 0.20572136992 0.20814007989 0.21010419267 
0.21167573782 0.21292365309 0.2139171528 0.21471883475 0.21537766765 0.21592237544 0.21635625882 0.21665479167 0.21676710838 
0.21662175698 0.21613614071 0.2152283046 0.21382937322 0.21189498333 0.20941431126 0.20641562424 0.20296766211 0.19917663696 
0.19517922657 0.19113245435 0.18720151774 0.18354640493 0.18030795633 0.17759445408 0.17547085153 0.17395348252 0.17301237216 
0.17258090566 0.17256987407 0.17288156414 0.1734203109 0.17409810137 0.17483612625 0.17556463088 0.17622370286 0.17676689917 
0.17716789659 0.1774278896 0.17757965797 0.17768464786 0.17782179754 0.17806967952 0.17848607346 0.17909102256 0.17985903458 
0.18072205638 0.181580106 0.18231468635 0.18280099024 0.18291670108 0.18254715326 0.18158814264 0.17994817009 0.17755135444 
0.17434116107 0.17028398925 0.16537100855 0.15961683694 0.15305472874 0.14572931978 0.13768888557 0.12897911153 0.11963970309 
0.10970419749 0.099202449196 0.088164677739 0.076625795199 0.064628938225 0.052227564676 0.03948595269 0.026478319843 0.013286984 
1.1293634932e-15 
_area 1 100 double
0 0.00055957615882 0.0022015302051 0.0048236508794 0.0082799418683 0.012408780067 0.017058925586 0.022106371853 0.027459028701 
0.033050815076 0.038830267231 0.044750152237 0.050762935753 0.05682259039 0.062888945556 0.068929484931 0.074915219155 0.080810549382 
0.086561100163 0.092087251756 0.097291360838 0.10208022502 0.10639444873 0.11023132836 0.1136504443 0.11675772645 0.11967205257 
0.12248757934 0.12524926507 0.12795084554 0.13054893509 0.13297920226 0.13516592908 0.13702616242 0.1384735571 0.13942167043 
0.1397804407 0.13950700926 0.13859947357 0.13688526413 0.13431930656 0.13095305765 0.1269268082 0.12245208686 0.11778156192 
0.11317118289 0.10884365084 0.10496031254 0.10160389701 0.098772640968 0.096388023431 0.094319386162 0.092424721596 0.090595252593 
0.088777840289 0.086959999568 0.085132846221 0.083294066197 0.081403258164 0.079473756455 0.077475010129 0.075488466501 0.073553105731 
0.071839687259 0.070382312946 0.068944788656 0.067395175568 0.065747998616 0.064073162806 0.062428726189 0.060867933348 0.059335847231 
0.057772987813 0.056276462852 0.055094280766 0.054712380136 0.055202065058 0.056355131045 0.057834549602 0.05930433279 0.060452592741 
0.061000700262 0.060728764106 0.059503148566 0.05729002722 0.054149055796 0.050210713748 0.045646071962 0.040638819562 0.035366890814 
0.029995876 0.024680941543 0.019571138924 0.014810934491 0.010537156253 0.0068728064878 0.0039206788849 0.0017593124145 0.00044227302179 
6.2186655667e-17 
