# vtk DataFile Version 5.1
vtk output
ASCII
DATASET POLYDATA
POINTS 100 float
0.219111 0.0446613 0.650485 0.218911 0.0447519 0.650155 0.218429 0.0449297 0.649105 
0.217633 0.0452021 0.647379 0.216478 0.045579 0.645044 0.21491 0.0460696 0.642176 
0.212878 0.0466788 0.638851 0.210345 0.0474031 0.635131 0.207294 0.0482285 0.63105 
0.203733 0.0491289 0.626616 0.199699 0.0500669 0.6218 0.195252 0.0509971 0.616545 
0.190468 0.0518697 0.610772 0.185431 0.0526364 0.604391 0.180219 0.0532561 0.597317 
0.174892 0.0537004 0.58948 0.169483 0.0539575 0.580842 0.163994 0.054034 0.571401 
0.158389 0.0539548 0.561198 0.1526 0.05376 0.550312 0.146535 0.0535002 0.538854 
0.14009 0.0532295 0.526956 0.133162 0.0529986 0.514756 0.125667 0.0528477 0.502383 
0.11755 0.0528009 0.489945 0.108802 0.052863 0.477516 0.0994546 0.0530184 0.465134 
0.0895898 0.0532333 0.452796 0.0793262 0.0534606 0.440468 0.0688094 0.053646 0.428091 
0.0581944 0.0537369 0.415593 0.0476271 0.0536894 0.402904 0.0372262 0.0534756 0.389967 
0.0270677 0.0530887 0.376746 0.0171747 0.0525448 0.363228 0.00751366 0.051882 0.349429 
-0.00200116 0.0511568 0.335376 -0.0114963 0.0504378 0.321108 -0.0211207 0.0497975 0.306655 
-0.0310236 0.0493041 0.292024 -0.041329 0.0490138 0.277194 -0.0521127 0.0489644 0.262098 
-0.0633822 0.0491721 0.246629 -0.0750631 0.0496311 0.23064 -0.0869946 0.0503155 0.213956 
-0.098934 0.0511852 0.196391 -0.11057 0.0521923 0.177769 -0.121546 0.053289 0.157942 
-0.131486 0.054435 0.136816 -0.140029 0.0556028 0.114365 -0.146858 0.0567813 0.0906387 
-0.151729 0.0579758 0.0657684 -0.154492 0.0592051 0.039957 -0.155105 0.0604958 0.0134657 
-0.153636 0.0618748 -0.0134078 -0.150255 0.0633605 -0.0403549 -0.145217 0.0649554 -0.0670829 
-0.13884 0.0666393 -0.0933395 -0.13147 0.0683661 -0.118933 -0.123452 0.070064 -0.143745 
-0.1151 0.0716391 -0.167733 -0.106668 0.0729829 -0.190929 -0.0983363 0.0739823 -0.21342 
-0.0901948 0.0745309 -0.235336 -0.0822471 0.0745404 -0.256819 -0.0744173 0.0739514 -0.278004 
-0.0665667 0.0727396 -0.298996 -0.0585165 0.0709204 -0.319849 -0.050073 0.0685472 -0.340561 
-0.0410538 0.0657065 -0.361071 -0.031311 0.0625088 -0.381261 -0.0207496 0.0590769 -0.400976 
-0.00933921 0.0555326 -0.420036 0.00288218 0.0519841 -0.438261 0.0158121 0.0485154 -0.45549 
0.0292943 0.0451777 -0.471598 0.0431356 0.0419868 -0.486509 0.0571253 0.0389235 -0.500206 
0.0710559 0.0359388 -0.512722 0.0847428 0.0329628 -0.524142 0.0980396 0.029916 -0.534582 
0.110849 0.0267216 -0.544181 0.123126 0.0233164 -0.553074 0.134877 0.0196609 -0.561386 
0.146151 0.0157455 -0.569214 0.157024 0.0115929 -0.576621 0.167585 0.00725643 -0.583631 
0.177914 0.00281512 -0.590236 0.18807 -0.00163429 -0.596402 0.198072 -0.00598694 -0.60208 
0.207889 -0.0101396 -0.607214 0.217438 -0.0139994 -0.61176 0.226585 -0.0174905 -0.615687 
0.23515 -0.0205579 -0.618985 0.242922 -0.0231679 -0.621667 0.249678 -0.025306 -0.623766 
0.255196 -0.026972 -0.625325 0.259282 -0.0281743 -0.626391 0.26178 -0.0289233 -0.627007 
0.262594 -0.0292267 -0.627201 
LINES 2 100
OFFSETS vtktypeint64
0 100 
CONNECTIVITY vtktypeint64
0 1 2 3 4 5 6 7 8 
9 10 11 12 13 14 15 16 17 
18 19 20 21 22 23 24 25 26 
27 28 29 30 31 32 33 34 35 
36 37 38 39 40 41 42 43 44 
45 46 47 48 49 50 51 52 53 
54 55 56 57 58 59 60 61 62 
63 64 65 66 67 68 69 70 71 
72 73 74 75 76 77 78 79 80 
81 82 83 84 85 86 87 88 89 
90 91 92 93 94 95 96 97 98 
99 
POINT_DATA 100
FIELD FieldData 3
_theta 1 100 double
0 0.031733259127 0.063466518254 0.095199777382 0.12693303651 0.15866629564 0.19039955476 0.22213281389 0.25386607302 
0.28559933214 0.31733259127 0.3490658504 0.38079910953 0.41253236865 0.44426562778 0.47599888691 0.50773214603 0.53946540516 
0.57119866429 0.60293192342 0.63466518254 0.66639844167 0.6981317008 0.72986495992 0.76159821905 0.79333147818 0.82506473731 
0.85679799643 0.88853125556 0.92026451469 0.95199777382 0.98373103294 1.0154642921 1.0471975512 1.0789308103 1.1106640695 
1.1423973286 1.1741305877 1.2058638468 1.237597106 1.2693303651 1.3010636242 1.3327968833 1.3645301425 1.3962634016 
1.4279966607 1.4597299198 1.491463179 1.5231964381 1.5549296972 1.5866629564 1.6183962155 1.6501294746 1.6818627337 
1.7135959929 1.745329252 1.7770625111 1.8087957702 1.8405290294 1.8722622885 1.9039955476 1.9357288068 1.9674620659 
1.999195325 2.0309285841 2.0626618433 2.0943951024 2.1261283615 2.1578616206 2.1895948798 2.2213281389 2.253061398 
2.2847946572 2.3165279163 2.3482611754 2.3799944345 2.4117276937 2.4434609528 2.4751942119 2.506927471 2.5386607302 
2.5703939893 2.6021272484 2.6338605076 2.6655937667 2.6973270258 2.7290602849 2.7607935441 2.7925268032 2.8242600623 
2.8559933214 2.8877265806 2.9194598397 2.9511930988 2.982926358 3.0146596171 3.0463928762 3.0781261353 3.1098593945 
3.1415926536 
_radius 1 100 double
7.7963035501e-16 0.012150670892 0.024319708492 0.036510429913 0.048703948503 0.060853107616 0.07288136779 0.08468684147 0.096150728792 
0.10714861708 0.11756261388 0.12729217517 0.13626181271 0.144424612 0.1517615383 0.15827754168 0.16399608824 0.16895370758 
0.17319558825 0.17677256522 0.17973936152 0.1821537624 0.18407641777 0.18557104598 0.18670486426 0.187549081 0.18817925255 
0.18867521221 0.18912010615 0.18959787947 0.19018850147 0.19096049813 0.1919610662 0.19320503764 0.19466485209 0.19626402437 
0.19787617413 0.19933072894 0.20042533192 0.20094405781 0.20067981983 0.19945879576 0.19716432626 0.19375759476 0.18929251038 
0.18392252828 0.17789753656 0.17154929413 0.16526424595 0.15944338339 0.15445156829 0.15056490827 0.14793196832 0.14656380725 
0.14635393126 0.14711379553 0.14860689849 0.15057325139 0.15274557906 0.15486262532 0.15668348058 0.15800354865 0.15867071083 
0.15859968787 0.15778237366 0.15629162762 0.15427630544 0.15194662787 0.1495508952 0.14734635423 0.14556847648 0.1444040355 
0.14397343323 0.14432479469 0.14543708853 0.14722700702 0.14955659901 0.15224189293 0.15506376945 0.15778143614 0.1601475896 
0.16192363386 0.16289324453 0.16287294739 0.1617189925 0.15933027478 0.15564713945 0.15064597639 0.14433018106 0.13671934473 
0.12783965139 0.11771855053 0.10638558468 0.093879252675 0.080257841807 0.065610984507 0.050068556394 0.033804289752 0.017032777931 
1.0780570148e-15 
_area 1 100 double
0 0.00030911134185 0.0012491097331 0.0028528310333 0.005159316949 0.008194644565 0.011951696018 0.016373448863 0.021344905228 
0.026697987886 0.032230815249 0.037738353993 0.043047089624 0.048043862544 0.052689650685 0.057012687868 0.061080618564 0.064958497246 
0.068670149128 0.072186791002 0.07544999009 0.078408216046 0.081042259612 0.083369909101 0.085434578454 0.087289696108 0.088987517633 
0.090574210457 0.092090858744 0.093579317912 0.095089183609 0.096680177873 0.098415645858 0.10034704326 0.1024942116 0.10482935789 
0.10727090127 0.10968423017 0.11187422742 0.11356990837 0.11445079482 0.11422434221 0.11269162249 0.10977886682 0.10554776508 
0.10019526747 0.094046086299 0.087532695211 0.081152360209 0.075395885832 0.070663171172 0.067199356537 0.065070914897 0.064175651795 
0.064266669806 0.0650068395 0.066030406203 0.066979675535 0.06751329833 0.067337791675 0.066270929406 0.064305449376 0.061649319452 
0.058661914758 0.055544867179 0.052332969754 0.04913783943 0.046150266405 0.043501446226 0.041413026686 0.040009240955 0.039293665235 
0.039170521252 0.039595686569 0.040540654955 0.041943166374 0.043669930504 0.045483914704 0.047102597184 0.048279634724 0.048842070981 
0.048708308502 0.047895838356 0.046508301569 0.044695332259 0.04259712929 0.040305503098 0.037854207014 0.035218702629 0.032327902772 
0.029100591557 0.025490518309 0.021519338442 0.017292555707 0.012999364147 0.0088967252043 0.0052792351416 0.0024392521073 0.00062434581259 
1.2166019249e-16 
