# vtk DataFile Version 5.1
vtk output
ASCII
DATASET POLYDATA
POINTS 100 float
0.155338 0.0695179 0.704996 0.155031 0.0695526 0.704455 0.154157 0.0695265 0.702711 
0.15276 0.0694567 0.699827 0.150908 0.0693687 0.695901 0.148683 0.0692925 0.69106 
0.14617 0.0692583 0.685444 0.143449 0.0692916 0.6792 0.140583 0.0694092 0.672464 
0.137612 0.0696156 0.665355 0.134546 0.0699011 0.657967 0.131367 0.0702418 0.650366 
0.128029 0.0706005 0.64259 0.124467 0.0709303 0.634649 0.120605 0.0711783 0.626535 
0.116366 0.0712909 0.618227 0.111681 0.0712184 0.609697 0.1065 0.0709203 0.60092 
0.100796 0.0703685 0.591872 0.0945734 0.0695499 0.582542 0.0878601 0.0684676 0.572922 
0.0807111 0.0671396 0.563012 0.0731994 0.065597 0.552815 0.0654092 0.0638805 0.542329 
0.057427 0.0620365 0.531549 0.0493341 0.060113 0.520461 0.0411998 0.0581551 0.50904 
0.0330771 0.0562022 0.497255 0.025001 0.0542851 0.485071 0.0169892 0.0524254 0.472455 
0.00904513 0.0506351 0.459378 0.00116242 0.0489179 0.445828 -0.00667013 0.047271 0.431809 
-0.0144638 0.0456878 0.417345 -0.0222262 0.0441602 0.402483 -0.0299596 0.0426816 0.387284 
-0.0376608 0.0412488 0.37182 -0.0453229 0.0398638 0.356166 -0.0529386 0.0385343 0.340387 
-0.0605035 0.0372744 0.32453 -0.0680198 0.0361042 0.308614 -0.0754978 0.0350488 0.292626 
-0.0829561 0.0341374 0.276513 -0.0904186 0.0334023 0.260192 -0.0979092 0.0328774 0.243549 
-0.105444 0.0325975 0.226449 -0.113023 0.032597 0.208753 -0.120619 0.0329088 0.19033 
-0.128171 0.0335636 0.171066 -0.135577 0.0345886 0.150883 -0.142692 0.036006 0.129743 
-0.149331 0.0378314 0.107655 -0.155275 0.0400725 0.0846702 -0.160286 0.0427265 0.0608851 
-0.164118 0.0457791 0.0364262 -0.166545 0.0492025 0.0114413 -0.167372 0.0529547 -0.0139133 
-0.166461 0.0569791 -0.0394857 -0.163741 0.0612054 -0.0651388 -0.159227 0.0655505 -0.0907582 
-0.153019 0.0699215 -0.116256 -0.145302 0.0742189 -0.141572 -0.136337 0.07834 -0.166668 
-0.126444 0.0821832 -0.191524 -0.115981 0.0856524 -0.216125 -0.105319 0.0886602 -0.240462 
-0.0948124 0.0911314 -0.264512 -0.0847783 0.0930053 -0.288243 -0.0754685 0.0942373 -0.311606 
-0.0670542 0.0947991 -0.334537 -0.059614 0.094679 -0.35696 -0.0531299 0.0938809 -0.378794 
-0.0474908 0.0924238 -0.399959 -0.042503 0.0903398 -0.420385 -0.0379066 0.0876742 -0.440017 
-0.0333963 0.0844838 -0.458821 -0.0286445 0.0808372 -0.476781 -0.0233256 0.0768138 -0.493903 
-0.0171383 0.0725036 -0.510207 -0.00982578 0.0680069 -0.52572 -0.00119176 0.0634322 -0.540472 
0.00888849 0.0588947 -0.554481 0.0204619 0.0545127 -0.567752 0.0334962 0.0504034 -0.580273 
0.0478836 0.0466776 -0.59201 0.0634474 0.0434341 -0.602913 0.0799517 0.0407528 -0.612923 
0.0971134 0.0386896 -0.621976 0.114615 0.0372707 -0.630018 0.132115 0.0364899 -0.637012 
0.149266 0.0363069 -0.642947 0.165719 0.0366486 -0.647844 0.181137 0.0374131 -0.651759 
0.195206 0.0384756 -0.654778 0.207638 0.0396972 -0.657014 0.21818 0.0409348 -0.658596 
0.226619 0.0420518 -0.659652 0.232784 0.0429287 -0.660304 0.236552 0.0434725 -0.660648 
0.237846 0.0436244 -0.660747 
LINES 2 100
OFFSETS vtktypeint64
0 100 
CONNECTIVITY vtktypeint64
0 1 2 3 4 5 6 7 8 
9 10 11 12 13 14 15 16 17 
18 19 20 21 22 23 24 25 26 
27 28 29 30 31 32 33 34 35 
36 37 38 39 40 41 42 43 44 
45 46 47 48 49 50 51 52 53 
54 55 56 57 58 59 60 61 62 
63 64 65 66 67 68 69 70 71 
72 73 74 75 76 77 78 79 80 
81 82 83 84 85 86 87 88 89 
90 91 92 93 94 95 96 97 98 
99 
POINT_DATA 100
FIELD FieldData 3
_theta 1 100 double
0 0.031733259127 0.063466518254 0.095199777382 0.12693303651 0.15866629564 0.19039955476 0.22213281389 0.25386607302 
0.28559933214 0.31733259127 0.3490658504 0.38079910953 0.41253236865 0.44426562778 0.47599888691 0.50773214603 0.53946540516 
0.57119866429 0.60293192342 0.63466518254 0.66639844167 0.6981317008 0.72986495992 0.76159821905 0.79333147818 0.82506473731 
0.85679799643 0.88853125556 0.92026451469 0.95199777382 0.98373103294 1.0154642921 1.0471975512 1.0789308103 1.1106640695 
1.1423973286 1.1741305877 1.2058638468 1.237597106 1.2693303651 1.3010636242 1.3327968833 1.3645301425 1.3962634016 
1.4279966607 1.4597299198 1.491463179 1.5231964381 1.5549296972 1.5866629564 1.6183962155 1.6501294746 1.6818627337 
1.7135959929 1.745329252 1.7770625111 1.8087957702 1.8405290294 1.8722622885 1.9039955476 1.9357288068 1.9674620659 
1.999195325 2.0309285841 2.0626618433 2.0943951024 2.1261283615 2.1578616206 2.1895948798 2.2213281389 2.253061398 
2.2847946572 2.3165279163 2.3482611754 2.3799944345 2.4117276937 2.4434609528 2.4751942119 2.506927471 2.5386607302 
2.5703939893 2.6021272484 2.6338605076 2.6655937667 2.6973270258 2.7290602849 2.7607935441 2.7925268032 2.8242600623 
2.8559933214 2.8877265806 2.9194598397 2.9511930988 2.982926358 3.0146596171 3.0463928762 3.0781261353 3.1098593945 
3.1415926536 
_radius 1 100 double
6.6844277773e-16 0.013186775604 0.026356854818 0.039486418874 0.05255035569 0.065520574422 0.078363751717 0.091039607599 0.1035009072 
0.11569585738 0.12757263267 0.13908484175 0.15019623077 0.16088302137 0.1711329654 0.18094122876 0.19030421971 0.19921306926 
0.20764844348 0.21557780735 0.22295548815 0.22972525591 0.2358248432 0.24119184136 0.2457705565 0.24951946497 0.25241874639 
0.25447702148 0.25573605775 0.25627205126 0.25619232046 0.25562692413 0.25471577044 0.25359296302 0.25237099706 0.25112754145 
0.24989684169 0.2486666751 0.24738089587 0.24594719792 0.24424955018 0.24216439021 0.23957897037 0.23640956919 0.23261709189 
0.22821803637 0.22328956578 0.2179680112 0.2124403025 0.20692786581 0.20166315101 0.19686091742 0.19268981695 0.18925299337 
0.18658532168 0.18466707296 0.18344450381 0.18284573007 0.18278587212 0.18316256697 0.183847127 0.18467767057 0.18545980798 
0.18597838585 0.18601980838 0.18539986776 0.18399024346 0.18173862855 0.17867971901 0.17493472212 0.17069688689 0.16620289112 
0.16169651156 0.15739805224 0.15348832374 0.15010092663 0.14731208733 0.14512586616 0.14346184438 0.14215765278 0.14099623765 
0.13975414919 0.13825191534 0.13638592726 0.13413274229 0.13152862096 0.12863214338 0.12547695907 0.12201991264 0.11809500664 
0.11339961589 0.10754170762 0.10013583126 0.090895300264 0.079684514549 0.066532664774 0.051623704095 0.035273865172 0.017902617661 
3.0962783559e-16 
_area 1 100 double
0 0.0004841563014 0.0019333014036 0.0043362167005 0.0076702007402 0.011895793205 0.016951360112 0.022750046209 0.029181758399 
0.036121535329 0.04344318711 0.051034568073 0.05880938279 0.06671081678 0.074705066458 0.082767390151 0.090866717715 0.098954292526 
0.10695882882 0.11478886456 0.12234135455 0.12951213519 0.13620249445 0.14231954883 0.14777304518 0.15247376027 0.15633868794 
0.15930627255 0.16135982976 0.16254987848 0.16300296302 0.16291091815 0.16250675964 0.16203551127 0.16170311159 0.16164800828 
0.16181438142 0.16209405762 0.16240100431 0.16244146793 0.1618323177 0.16029396517 0.15771056777 0.15415838161 0.14972310123 
0.14466669195 0.13960435028 0.13449777613 0.12971356445 0.12522399542 0.12114401085 0.11746269302 0.11413188597 0.11105795008 
0.10820950873 0.10563297946 0.10318963207 0.10067690141 0.098117547643 0.09571076624 0.093582756185 0.09162971882 0.089674963825 
0.087701036043 0.086283080917 0.086682058713 0.088244241224 0.090408677277 0.092675965399 0.094505717523 0.095368316674 0.094782024701 
0.092467917765 0.088482686081 0.083177580825 0.077089549375 0.070822601284 0.064953297638 0.059981987689 0.056344871955 0.054383303764 
0.053900312253 0.054083702896 0.054193334978 0.053651019176 0.052140291845 0.049584665699 0.04606621279 0.04177980268 0.036987102541 
0.031950436421 0.026866860689 0.021844652884 0.016952903701 0.012313635905 0.0081372336526 0.0046657171934 0.0020925022713 0.00052473019032 
5.2041704279e-18 
