# vtk DataFile Version 5.1
vtk output
ASCII
DATASET POLYDATA
POINTS 100 float
0.191668 0.0652461 0.766773 0.191757 0.0654341 0.766523 0.192067 0.0658568 0.765602 
0.192525 0.0664966 0.764003 0.193021 0.067326 0.761711 0.193414 0.0683094 0.758713 
0.19355 0.0694053 0.754996 0.193277 0.0705684 0.750551 0.192456 0.0717519 0.745377 
0.190976 0.0729093 0.73948 0.188759 0.0739962 0.732878 0.185763 0.0749718 0.7256 
0.181979 0.075799 0.717688 0.177429 0.0764451 0.709194 0.172154 0.0768811 0.700178 
0.166206 0.0770817 0.690705 0.159639 0.0770244 0.68084 0.152503 0.0766893 0.670643 
0.144839 0.0760587 0.660166 0.136679 0.0751179 0.649447 0.128051 0.0738562 0.638506 
0.11898 0.0722681 0.627345 0.109497 0.0703558 0.615949 0.0996471 0.0681317 0.604288 
0.0894911 0.0656204 0.592317 0.0791086 0.0628608 0.579988 0.0685954 0.0599072 0.567253 
0.0580575 0.0568297 0.554073 0.0476012 0.0537123 0.540421 0.0373214 0.0506502 0.526288 
0.0272891 0.0477455 0.511688 0.0175403 0.045101 0.496651 0.00806811 0.0428137 0.481227 
-0.00117999 0.0409678 0.465474 -0.0102991 0.0396281 0.449453 -0.0194176 0.0388338 0.433216 
-0.0286827 0.0385951 0.416798 -0.0382411 0.0388916 0.40021 -0.0482186 0.039673 0.383428 
-0.0586996 0.0408634 0.366395 -0.0697105 0.0423674 0.349022 -0.0812078 0.0440789 0.331189 
-0.0930747 0.045891 0.312761 -0.105126 0.0477061 0.293592 -0.117118 0.0494455 0.273546 
-0.128773 0.0510571 0.252507 -0.139799 0.0525206 0.230394 -0.149921 0.0538491 0.207168 
-0.158902 0.0550873 0.182838 -0.166569 0.0563059 0.157465 -0.172825 0.0575929 0.131152 
-0.177659 0.0590429 0.104039 -0.181139 0.0607449 0.0762905 -0.183402 0.0627706 0.0480779 
-0.184634 0.0651636 0.0195669 -0.185045 0.0679325 -0.00909618 -0.184844 0.071046 -0.0377948 
-0.184206 0.0744335 -0.0664477 -0.18326 0.0779894 -0.0950093 -0.182066 0.0815807 -0.123465 
-0.180614 0.0850582 -0.151822 -0.178825 0.0882693 -0.180097 -0.176565 0.0910709 -0.208301 
-0.173662 0.0933413 -0.236428 -0.16993 0.0949896 -0.264443 -0.165199 0.0959619 -0.292276 
-0.159332 0.0962428 -0.319817 -0.152252 0.0958534 -0.346927 -0.143948 0.0948455 -0.37344 
-0.134485 0.093292 -0.399183 -0.124 0.0912767 -0.423988 -0.112685 0.0888832 -0.447712 
-0.100775 0.086185 -0.470252 -0.0885237 0.0832383 -0.491555 -0.0761802 0.080078 -0.511624 
-0.0639694 0.0767173 -0.53052 -0.0520742 0.0731521 -0.54835 -0.0406244 0.0693674 -0.565259 
-0.0296927 0.0653467 -0.581409 -0.0192972 0.0610826 -0.596959 -0.00941014 0.0565859 -0.612045 
2.86165e-05 0.0518932 -0.626764 0.00909618 0.0470712 -0.641158 0.0178704 0.0422169 -0.65521 
0.0264156 0.0374525 -0.668844 0.0347717 0.0329175 -0.681935 0.0429481 0.0287563 -0.694322 
0.0509218 0.0251047 -0.70583 0.058641 0.0220751 -0.716287 0.0660312 0.0197443 -0.725552 
0.0730042 0.0181432 -0.733527 0.079468 0.0172516 -0.740172 0.0853353 0.0169982 -0.745511 
0.0905303 0.0172663 -0.749629 0.0949931 0.0179039 -0.752662 0.0986809 0.018739 -0.754779 
0.101567 0.0195964 -0.756164 0.103635 0.0203164 -0.75699 0.104881 0.0207708 -0.757402 
0.1053 0.0208769 -0.757495 
LINES 2 100
OFFSETS vtktypeint64
0 100 
CONNECTIVITY vtktypeint64
0 1 2 3 4 5 6 7 8 
9 10 11 12 13 14 15 16 17 
18 19 20 21 22 23 24 25 26 
27 28 29 30 31 32 33 34 35 
36 37 38 39 40 41 42 43 44 
45 46 47 48 49 50 51 52 53 
54 55 56 57 58 59 60 61 62 
63 64 65 66 67 68 69 70 71 
72 73 74 75 76 77 78 79 80 
81 82 83 84 85 86 87 88 89 
90 91 92 93 94 95 96 97 98 
99 
POINT_DATA 100
FIELD FieldData 3
_theta 1 100 double
0 0.031733259127 0.063466518254 0.095199777382 0.12693303651 0.15866629564 0.19039955476 0.22213281389 0.25386607302 
0.28559933214 0.31733259127 0.3490658504 0.38079910953 0.41253236865 0.44426562778 0.47599888691 0.50773214603 0.53946540516 
0.57119866429 0.60293192342 0.63466518254 0.66639844167 0.6981317008 0.72986495992 0.76159821905 0.79333147818 0.82506473731 
0.85679799643 0.88853125556 0.92026451469 0.95199777382 0.98373103294 1.0154642921 1.0471975512 1.0789308103 1.1106640695 
1.1423973286 1.1741305877 1.2058638468 1.237597106 1.2693303651 1.3010636242 1.3327968833 1.3645301425 1.3962634016 
1.4279966607 1.4597299198 1.491463179 1.5231964381 1.5549296972 1.5866629564 1.6183962155 1.6501294746 1.6818627337 
1.7135959929 1.745329252 1.7770625111 1.8087957702 1.8405290294 1.8722622885 1.9039955476 1.9357288068 1.9674620659 
1.999195325 2.0309285841 2.0626618433 2.0943951024 2.1261283615 2.1578616206 2.1895948798 2.2213281389 2.253061398 
2.2847946572 2.3165279163 2.3482611754 2.3799944345 2.4117276937 2.4434609528 2.4751942119 2.506927471 2.5386607302 
2.5703939893 2.6021272484 2.6338605076 2.6655937667 2.6973270258 2.7290602849 2.7607935441 2.7925268032 2.8242600623 
2.8559933214 2.8877265806 2.9194598397 2.9511930988 2.982926358 3.0146596171 3.0463928762 3.0781261353 3.1098593945 
3.1415926536 
_radius 1 100 double
1.5561078751e-15 0.01571290921 0.031182918065 0.046186339612 0.060540588368 0.07411720233 0.086847229721 0.098718770251 0.10976785946 
0.12006489615 0.12969916502 0.13876369318 0.14734199103 0.15549756835 0.16326674531 0.17065517803 0.17763848552 0.18416718274 
0.19017568765 0.19559451781 0.20036408156 0.20444791823 0.20784304944 0.21058538671 0.21274888807 0.21443823159 0.21577594173 
0.21688589297 0.21787571814 0.21882079795 0.2197522692 0.22065095848 0.22144836499 0.22203480537 0.22227371187 0.22202008802 
0.22114053135 0.21953215898 0.21713815599 0.21395829606 0.21005339477 0.20554309418 0.20059676511 0.1954180397 0.19022480502 
0.1852279816 0.18061299982 0.1765267434 0.17307024958 0.17029520077 0.16820185495 0.16673797476 0.16580104386 0.16524697785 
0.16490631627 0.16460517228 0.16418601835 0.16352400693 0.16253695204 0.16118962922 0.15949456446 0.15751153331 0.15534660156 
0.15314923522 0.15110390829 0.14941223504 0.14826438181 0.14780475396 0.14810320751 0.14914217148 0.15082135872 0.15297437624 
0.15539078304 0.15783938908 0.16009026083 0.1619337721 0.1631957483 0.16374837516 0.16351681231 0.16248123508 0.16067360083 
0.15816837259 0.15506714902 0.15147850684 0.14749574591 0.14317604363 0.13852458928 0.13348670337 0.12794981257 0.12175545551 
0.11471956626 0.10665778123 0.09741192257 0.086874081423 0.075005497088 0.06184836824 0.047529643361 0.032256633322 0.016304964911 
2.0297105635e-15 
_area 1 100 double
0 0.00057107083264 0.0022517753928 0.004949614623 0.0085257098134 0.012813304667 0.017636796383 0.022827955291 0.02823793817 
0.033745300572 0.039260635343 0.044727974285 0.050122624061 0.055445210658 0.060712136128 0.065943067974 0.071146763128 0.076307845768 
0.081378471217 0.086278700692 0.090907271957 0.095161358384 0.098961437026 0.10227583816 0.10513865856 0.1076550171 0.10998889889 
0.11233054891 0.11484671078 0.11763077202 0.12067543483 0.12387529408 0.12704982548 0.12997168043 0.13238517561 0.13401494457 
0.13459355636 0.13391913732 0.13191116213 0.12864092511 0.12433406213 0.11934650065 0.11411342976 0.1090686738 0.10454046118 
0.10067378358 0.097443847802 0.094732015883 0.09239748648 0.0903192104 0.088404877965 0.086572824546 0.08472582291 0.082742196275 
0.080494270953 0.077887340381 0.074911036316 0.071702296204 0.068593531954 0.065903176141 0.063642401345 0.061763233632 0.060271885197 
0.059194011895 0.058551065034 0.058344149176 0.058553046043 0.059147972794 0.060091032658 0.061320687616 0.062737456844 0.064202801294 
0.065551821951 0.066616686583 0.067254670075 0.06737250823 0.066939113448 0.065982257575 0.064571534763 0.062797495661 0.060758552125 
0.058558002092 0.056303232593 0.054094189526 0.051978530598 0.049869259101 0.047566852201 0.044899041468 0.041766721039 0.038125260201 
0.033975685208 0.029371301551 0.024428115926 0.019328663606 0.014314105509 0.0096644204148 0.005669611268 0.0025970599954 0.00066116289254 
8.5001450323e-17 
