# vtk DataFile Version 5.1
vtk output
ASCII
DATASET POLYDATA
POINTS 100 float
0.178207 0.04293 0.623084 0.178198 0.0429571 0.62309 0.178232 0.0429753 0.622919 
0.178242 0.0430253 0.622543 0.17813 0.0431671 0.621911 0.177771 0.0434704 0.620962 
0.177036 0.0440028 0.619619 0.175802 0.0448179 0.617801 0.173972 0.0459442 0.615425 
0.17148 0.047377 0.612412 0.168302 0.0490741 0.608693 0.164456 0.0509557 0.604214 
0.159995 0.0529095 0.59894 0.155001 0.0547996 0.592857 0.149571 0.056479 0.585979 
0.143804 0.0578033 0.578339 0.137784 0.0586449 0.569997 0.131574 0.0589066 0.561029 
0.125205 0.0585311 0.551523 0.118673 0.0575071 0.541577 0.111945 0.0558711 0.531285 
0.10496 0.0537041 0.520737 0.0976471 0.0511241 0.510007 0.0899314 0.0482757 0.499151 
0.0817508 0.0453169 0.488201 0.0730655 0.0424061 0.477168 0.0638665 0.0396894 0.466037 
0.0541789 0.0372905 0.454774 0.0440614 0.035303 0.443328 0.0336002 0.0337873 0.431638 
0.0229008 0.0327704 0.419636 0.0120758 0.0322492 0.407255 0.00123441 0.0321969 0.394433 
-0.00952892 0.0325705 0.381117 -0.0201414 0.033319 0.367261 -0.0305558 0.0343912 0.352831 
-0.0407492 0.0357414 0.3378 -0.050718 0.0373342 0.322148 -0.0604688 0.0391457 0.305856 
-0.0700073 0.0411631 0.288903 -0.0793268 0.0433823 0.271268 -0.0883974 0.0458036 0.252922 
-0.0971586 0.0484279 0.233835 -0.105516 0.0512516 0.213975 -0.113343 0.0542639 0.193314 
-0.120486 0.0574439 0.171831 -0.126779 0.0607604 0.149519 -0.132053 0.0641726 0.126392 
-0.136154 0.067632 0.102489 -0.138959 0.0710861 0.0778787 -0.140387 0.0744808 0.0526568 
-0.140408 0.0777644 0.0269482 -0.13905 0.0808894 0.000901319 -0.136394 0.0838142 -0.0253191 
-0.132566 0.0865036 -0.05154 -0.12773 0.0889277 -0.0775901 -0.122074 0.0910607 -0.10331 
-0.115788 0.0928788 -0.12856 -0.109056 0.0943585 -0.153229 -0.102036 0.0954749 -0.177239 
-0.0948583 0.0962016 -0.200546 -0.0876125 0.0965103 -0.223142 -0.0803513 0.0963727 -0.245044 
-0.0730918 0.095763 -0.266298 -0.0658227 0.0946599 -0.286961 -0.0585129 0.0930502 -0.307099 
-0.0511212 0.090931 -0.326775 -0.0436046 0.0883114 -0.346042 -0.0359263 0.0852137 -0.364939 
-0.0280596 0.0816722 -0.383486 -0.0199904 0.077732 -0.401684 -0.0117161 0.0734462 -0.419516 
-0.0032435 0.0688725 -0.436949 0.00541514 0.0640698 -0.453941 0.0142458 0.0590952 -0.470448 
0.0232354 0.0540013 -0.486424 0.032373 0.0488353 -0.501832 0.0416492 0.0436385 -0.516643 
0.0510529 0.0384477 -0.53084 0.060567 0.0332967 -0.544418 0.0701634 0.0282189 -0.557383 
0.0797979 0.0232496 -0.569747 0.0894064 0.0184278 -0.581529 0.0989039 0.013797 -0.592745 
0.108185 0.00940497 -0.603412 0.11713 0.00530171 -0.613536 0.125612 0.00153653 -0.623118 
0.133502 -0.00184599 -0.632149 0.140689 -0.00481038 -0.640612 0.14708 -0.00733447 -0.648481 
0.152617 -0.00941277 -0.655725 0.157275 -0.0110584 -0.662312 0.161073 -0.012303 -0.668205 
0.164063 -0.0131952 -0.673373 0.166327 -0.0137964 -0.677786 0.16797 -0.0141751 -0.68142 
0.169101 -0.0144006 -0.684255 0.169824 -0.014536 -0.686276 0.170223 -0.0146313 -0.687475 
0.170354 -0.0147184 -0.687847 
LINES 2 100
OFFSETS vtktypeint64
0 100 
CONNECTIVITY vtktypeint64
0 1 2 3 4 5 6 7 8 
9 10 11 12 13 14 15 16 17 
18 19 20 21 22 23 24 25 26 
27 28 29 30 31 32 33 34 35 
36 37 38 39 40 41 42 43 44 
45 46 47 48 49 50 51 52 53 
54 55 56 57 58 59 60 61 62 
63 64 65 66 67 68 69 70 71 
72 73 74 75 76 77 78 79 80 
81 82 83 84 85 86 87 88 89 
90 91 92 93 94 95 96 97 98 
99 
POINT_DATA 100
FIELD FieldData 3
_theta 1 100 double
0 0.031733259127 0.063466518254 0.095199777382 0.12693303651 0.15866629564 0.19039955476 0.22213281389 0.25386607302 
0.28559933214 0.31733259127 0.3490658504 0.38079910953 0.41253236865 0.44426562778 0.47599888691 0.50773214603 0.53946540516 
0.57119866429 0.60293192342 0.63466518254 0.66639844167 0.6981317008 0.72986495992 0.76159821905 0.79333147818 0.82506473731 
0.85679799643 0.88853125556 0.92026451469 0.95199777382 0.98373103294 1.0154642921 1.0471975512 1.0789308103 1.1106640695 
1.1423973286 1.1741305877 1.2058638468 1.237597106 1.2693303651 1.3010636242 1.3327968833 1.3645301425 1.3962634016 
1.4279966607 1.4597299198 1.491463179 1.5231964381 1.5549296972 1.5866629564 1.6183962155 1.6501294746 1.6818627337 
1.7135959929 1.745329252 1.7770625111 1.8087957702 1.8405290294 1.8722622885 1.9039955476 1.9357288068 1.9674620659 
1.999195325 2.0309285841 2.0626618433 2.0943951024 2.1261283615 2.1578616206 2.1895948798 2.2213281389 2.253061398 
2.2847946572 2.3165279163 2.3482611754 2.3799944345 2.4117276937 2.4434609528 2.4751942119 2.506927471 2.5386607302 
2.5703939893 2.6021272484 2.6338605076 2.6655937667 2.6973270258 2.7290602849 2.7607935441 2.7925268032 2.8242600623 
2.8559933214 2.8877265806 2.9194598397 2.9511930988 2.982926358 3.0146596171 3.0463928762 3.0781261353 3.1098593945 
3.1415926536 
_radius 1 100 double
1.3510901338e-15 0.01293207393 0.025833053991 0.038668464085 0.05140474148 0.064007334027 0.076436912614 0.088644754442 0.10056902115 
0.11213356659 0.12325007064 0.1338231787 0.14375749633 0.15296503612 0.1613719792 0.16892415093 0.17559115449 0.18136945434 
0.1862847272 0.19039347847 0.1937833699 0.1965711694 0.19889702872 0.20091418344 0.20277423868 0.20460973237 0.2065170667 
0.20854341788 0.210680454 0.21286589978 0.21499203432 0.21691892214 0.21848988587 0.21954719904 0.21994669874 0.21957056771 
0.21833777298 0.21621167419 0.21320430347 0.2093768959 0.20483647644 0.19972870655 0.19422772492 0.18852425368 0.18281355707 
0.17728469544 0.17211183875 0.16744747072 0.16341675536 0.16011266848 0.15759241117 0.15587598565 0.15494696311 0.15475431402 
0.15521423825 0.156212542 0.15760976065 0.15925091534 0.16097925106 0.16265063241 0.16414464938 0.16537002591 0.16626430926 
0.16678985857 0.1669291791 0.16668222238 0.16606641635 0.16511800107 0.16389228542 0.16246111517 0.16090722315 0.15931621781 
0.1577674302 0.15632487038 0.15502948462 0.15389394963 0.15290118575 0.15200708026 0.15114639881 0.15023942991 0.14919687353 
0.1479220601 0.14631163198 0.14425677368 0.14164623773 0.1383708288 0.13432826927 0.12942771934 0.12359383406 0.11677049997 
0.10892428765 0.10004742396 0.090159936744 0.079310630555 0.067576682079 0.055061824588 0.041893263883 0.02821760686 0.014196166348 
1.644802061e-15 
_area 1 100 double
0 0.00042600911434 0.0017087126767 0.0038581428053 0.0068794827711 0.010760899285 0.015463685457 0.020917203907 0.027019033923 
0.03363929459 0.040627460176 0.04781997258 0.055047572775 0.062142353254 0.068945429796 0.07531610022 0.081142371267 0.086351572764 
0.090919178355 0.094873924176 0.098297450396 0.10131696003 0.10409039245 0.10678548147 0.10955534612 0.11251392154 0.11571715685 
0.11915632313 0.12276285592 0.1264186739 0.12996772761 0.13322736655 0.13599966608 0.13808532539 0.13930334324 0.13951502111 
0.13864527957 0.13669328908 0.13372733426 0.12986433393 0.12524265936 0.12000319409 0.11428926002 0.10826145909 0.10211216832 
0.096065670555 0.090359030205 0.085207931685 0.080773624852 0.077351607463 0.074690715319 0.072491677202 0.070596202452 0.068909247071 
0.067392353766 0.066044915068 0.064880743007 0.063908698137 0.063120769169 0.062489422127 0.061976287525 0.06157140542 0.061305421829 
0.061018675281 0.060623791126 0.060071807722 0.059324261838 0.058368650118 0.057218268594 0.055912656713 0.05455896348 0.053124018036 
0.051661951404 0.05029964667 0.049166819242 0.048350245273 0.04787593903 0.047714985475 0.047847914711 0.048208156053 0.048627501437 
0.04893653456 0.048994518357 0.048685174084 0.047909203912 0.04658777809 0.044667574579 0.042123785364 0.038963306061 0.035229458941 
0.031006661781 0.026422263766 0.021643629025 0.016870104194 0.012320646004 0.0082184823786 0.0047745487426 0.0021715794417 0.00055047136 
7.0808091869e-17 
