# vtk DataFile Version 5.1
vtk output
ASCII
DATASET POLYDATA
POINTS 100 float
0.11591 0.0677036 0.683637 0.116028 0.0678421 0.683621 0.116481 0.0680968 0.683361 
0.117207 0.0684538 0.682817 0.118106 0.0688926 0.681925 0.119055 0.0693882 0.680608 
0.119915 0.0699142 0.678779 0.120543 0.0704452 0.676354 0.120805 0.0709595 0.673256 
0.120588 0.0714398 0.669423 0.119806 0.0718737 0.664818 0.118407 0.0722524 0.659427 
0.11637 0.0725693 0.653259 0.113711 0.0728166 0.64635 0.110468 0.0729837 0.638753 
0.106704 0.0730542 0.630535 0.102488 0.0730045 0.621772 0.0978954 0.0728043 0.612535 
0.092995 0.0724172 0.602892 0.0878448 0.071804 0.592898 0.0824881 0.0709258 0.582593 
0.0769523 0.0697493 0.571999 0.0712507 0.0682507 0.561121 0.0653854 0.06642 0.549951 
0.0593518 0.0642643 0.538467 0.0531444 0.0618084 0.526645 0.0467604 0.0590951 0.514454 
0.040204 0.0561827 0.501869 0.0334873 0.0531412 0.488869 0.0266301 0.0500473 0.475441 
0.0196572 0.0469798 0.461583 0.0125948 0.0440138 0.447299 0.00546497 0.0412172 0.4326 
-0.0017193 0.0386479 0.417502 -0.00895806 0.0363527 0.402021 -0.0162669 0.0343682 0.386167 
-0.0236771 0.0327229 0.369945 -0.0312323 0.0314408 0.353353 -0.0389832 0.030544 0.336374 
-0.046979 0.0300565 0.318982 -0.0552578 0.0300054 0.301143 -0.0638355 0.0304214 0.282813 
-0.0726962 0.0313363 0.263944 -0.0817839 0.03278 0.244486 -0.0909972 0.0347746 0.224396 
-0.100189 0.0373282 0.203635 -0.109167 0.0404289 0.182178 -0.117707 0.0440396 0.160012 
-0.12556 0.0480948 0.137144 -0.132471 0.0525 0.113597 -0.138192 0.0571346 0.0894148 
-0.142506 0.0618577 0.0646589 -0.145239 0.0665167 0.0394075 -0.146276 0.0709582 0.0137535 
-0.145568 0.07504 -0.0121988 -0.143138 0.0786419 -0.0383375 -0.139081 0.0816758 -0.0645471 
-0.133554 0.0840923 -0.0907128 -0.126764 0.0858833 -0.116725 -0.118955 0.0870813 -0.142482 
-0.110384 0.0877531 -0.167896 -0.101309 0.0879905 -0.192894 -0.0919638 0.0878987 -0.217422 
-0.082545 0.0875824 -0.241441 -0.0732023 0.0871329 -0.264934 -0.0640299 0.0866165 -0.287899 
-0.0550661 0.0860666 -0.31035 -0.0462978 0.0854791 -0.332309 -0.0376688 0.0848131 -0.353806 
-0.029093 0.0839958 -0.374874 -0.0204683 0.0829317 -0.395538 -0.0116924 0.081514 -0.415819 
-0.0026769 0.0796383 -0.435723 0.0066407 0.0772154 -0.455241 0.0162884 0.0741827 -0.474347 
0.0262551 0.0705127 -0.493 0.0364903 0.0662176 -0.511141 0.0469082 0.0613491 -0.5287 
0.0573944 0.0559945 -0.5456 0.0678161 0.0502689 -0.561759 0.0780327 0.044305 -0.577099 
0.0879068 0.0382413 -0.591548 0.0973147 0.032211 -0.605048 0.106154 0.0263318 -0.617555 
0.114347 0.0206992 -0.629045 0.121849 0.0153815 -0.639512 0.12864 0.0104202 -0.648967 
0.134726 0.00583226 -0.657438 0.140135 0.00161518 -0.664966 0.144905 -0.00224565 -0.671602 
0.149084 -0.00576972 -0.677401 0.15272 -0.00897451 -0.682421 0.155858 -0.0118701 -0.686716 
0.158533 -0.0144562 -0.690338 0.160773 -0.0167212 -0.693329 0.162595 -0.0186439 -0.695727 
0.164009 -0.0201973 -0.697558 0.165018 -0.0213531 -0.698846 0.165622 -0.0220864 -0.699602 
0.165821 -0.0223805 -0.699837 
LINES 2 100
OFFSETS vtktypeint64
0 100 
CONNECTIVITY vtktypeint64
0 1 2 3 4 5 6 7 8 
9 10 11 12 13 14 15 16 17 
18 19 20 21 22 23 24 25 26 
27 28 29 30 31 32 33 34 35 
36 37 38 39 40 41 42 43 44 
45 46 47 48 49 50 51 52 53 
54 55 56 57 58 59 60 61 62 
63 64 65 66 67 68 69 70 71 
72 73 74 75 76 77 78 79 80 
81 82 83 84 85 86 87 88 89 
90 91 92 93 94 95 96 97 98 
99 
POINT_DATA 100
FIELD FieldData 3
_theta 1 100 double
0 0.031733259127 0.063466518254 0.095199777382 0.12693303651 0.15866629564 0.19039955476 0.22213281389 0.25386607302 
0.28559933214 0.31733259127 0.3490658504 0.38079910953 0.41253236865 0.44426562778 0.47599888691 0.50773214603 0.53946540516 
0.57119866429 0.60293192342 0.63466518254 0.66639844167 0.6981317008 0.72986495992 0.76159821905 0.79333147818 0.82506473731 
0.85679799643 0.88853125556 0.92026451469 0.95199777382 0.98373103294 1.0154642921 1.0471975512 1.0789308103 1.1106640695 
1.1423973286 1.1741305877 1.2058638468 1.237597106 1.2693303651 1.3010636242 1.3327968833 1.3645301425 1.3962634016 
1.4279966607 1.4597299198 1.491463179 1.5231964381 1.5549296972 1.5866629564 1.6183962155 1.6501294746 1.6818627337 
1.7135959929 1.745329252 1.7770625111 1.8087957702 1.8405290294 1.8722622885 1.9039955476 1.9357288068 1.9674620659 
1.999195325 2.0309285841 2.0626618433 2.0943951024 2.1261283615 2.1578616206 2.1895948798 2.2213281389 2.253061398 
2.2847946572 2.3165279163 2.3482611754 2.3799944345 2.4117276937 2.4434609528 2.4751942119 2.506927471 2.5386607302 
2.5703939893 2.6021272484 2.6338605076 2.6655937667 2.6973270258 2.7290602849 2.7607935441 2.7925268032 2.8242600623 
2.8559933214 2.8877265806 2.9194598397 2.9511930988 2.982926358 3.0146596171 3.0463928762 3.0781261353 3.1098593945 
3.1415926536 
_radius 1 100 double
4.1191555943e-16 0.014517455662 0.028838868377 0.042782715191 0.056205133996 0.069012018267 0.081164010487 0.092673864852 0.10359697704 
0.11401702143 0.12402923085 0.13372377066 0.14317112269 0.15241080369 0.16144434286 0.17023318522 0.17870185453 0.18674615817 
0.19424550779 0.2010777837 0.2071347976 0.21233637988 0.21664135891 0.22005408187 0.2226255626 0.22444883063 0.22564865537 
0.22636656806 0.22674293372 0.22689854503 0.22691858119 0.22684163443 0.22665581758 0.22630281341 0.22568931295 0.22470394321 
0.22323686063 0.22119890496 0.21853754356 0.21524757442 0.21137542885 0.20701672615 0.20230743334 0.19740970144 0.19249436624 
0.18772309248 0.18323347052 0.17912922008 0.17547545495 0.17229770171 0.16958437629 0.16729426697 0.1653704176 0.16375879982 
0.16242644736 0.16137200695 0.16062302981 0.16021878993 0.16018445752 0.16050883539 0.16113702826 0.16197953486 0.16292945936 
0.1638786078 0.16472849569 0.1653968224 0.16582137235 0.1659627972 0.1658067496 0.16536496941 0.16467433195 0.16379273732 
0.16279125255 0.16174313059 0.16071189098 0.15974174777 0.15885319302 0.15804404681 0.15729309488 0.15656195761 0.15579235514 
0.15489954174 0.15376603447 0.15224065016 0.15014578681 0.14729240292 0.14349939898 0.13861312812 0.13252330618 0.12517291136 
0.11656115188 0.10673989879 0.095804972435 0.083884271806 0.071124932527 0.057681523114 0.04370681709 0.029346030474 0.014734728243 
1.0666376454e-15 
_area 1 100 double
0 0.00054122279938 0.0021398290591 0.0047252731721 0.0081941206328 0.012427163689 0.017306860468 0.022731471812 0.028623580377 
0.034932088687 0.04162793014 0.048694457029 0.056113952504 0.063852417112 0.071845916563 0.079992484877 0.08815244223 0.096157055015 
0.10382277981 0.11096771737 0.11742816758 0.12307479156 0.12782843437 0.13167453287 0.13467272649 0.1369563955 0.13871721025 
0.14017321511 0.14152496884 0.14291100329 0.14437731082 0.14587107598 0.14725778403 0.14835163362 0.14894798574 0.14885165474 
0.14790045055 0.14598488186 0.14306252069 0.13916382076 0.13438815213 0.12889278862 0.12288010632 0.11658732633 0.11027902672 
0.10423654294 0.098732922218 0.093987880536 0.09012266919 0.087132782306 0.08486682405 0.083046671375 0.081358150062 0.079551439019 
0.077498892702 0.075208450929 0.072805608869 0.070501669089 0.068550104982 0.067128182065 0.066225052064 0.065736061307 0.06555633841 
0.065579697458 0.065662956522 0.065621609053 0.065278087193 0.064502083353 0.063226443634 0.061453192108 0.059255186964 0.056780302791 
0.054271321533 0.051905323134 0.049678115775 0.047682966933 0.046057297604 0.044963532101 0.044684334341 0.045130459139 0.045945282446 
0.04699628949 0.048107578722 0.049036899583 0.049499756979 0.049221213625 0.047989355099 0.045693361733 0.042341029012 0.038056349071 
0.033060252911 0.027639414165 0.022109287072 0.016777826662 0.011915502236 0.0077355809456 0.0043866629785 0.001957294267 0.00049006742239 
8.8057846147e-17 
