# vtk DataFile Version 5.1
vtk output
ASCII
DATASET POLYDATA
POINTS 100 float
0.125503 0.034321 0.640766 0.125519 0.0344501 0.640434 0.125625 0.0347288 0.639249 
0.125788 0.0351573 0.637245 0.125951 0.0357349 0.634476 0.126044 0.0364586 0.631007 
0.125987 0.0373209 0.626907 0.125697 0.0383088 0.622244 0.125097 0.0394022 0.617073 
0.124118 0.0405736 0.611434 0.122709 0.0417884 0.605349 0.120837 0.043006 0.598824 
0.118487 0.0441822 0.591852 0.115666 0.0452714 0.584416 0.112397 0.0462303 0.576501 
0.108712 0.0470205 0.568098 0.104655 0.0476114 0.559211 0.100269 0.0479824 0.549861 
0.0955928 0.0481246 0.540086 0.0906583 0.0480407 0.52994 0.0854866 0.0477449 0.519488 
0.080087 0.0472619 0.508796 0.0744583 0.0466247 0.497927 0.068591 0.0458725 0.486929 
0.0624718 0.0450489 0.475828 0.0560884 0.0441994 0.464626 0.0494343 0.0433699 0.453296 
0.0425133 0.042605 0.441788 0.0353426 0.0419475 0.430036 0.0279538 0.0414371 0.41796 
0.020392 0.0411104 0.405487 0.0127125 0.0409999 0.392551 0.00497618 0.0411335 0.379112 
-0.00275747 0.0415333 0.365156 -0.0104366 0.0422149 0.350701 -0.0180234 0.0431861 0.335797 
-0.0254993 0.0444454 0.320514 -0.0328672 0.0459813 0.304939 -0.0401511 0.0477724 0.28916 
-0.0473927 0.0497873 0.273254 -0.0546448 0.0519863 0.257272 -0.0619617 0.0543236 0.241233 
-0.0693886 0.0567502 0.225114 -0.0769498 0.0592177 0.208851 -0.0846384 0.0616819 0.192343 
-0.0924081 0.0641062 0.175462 -0.100168 0.0664643 0.158065 -0.107784 0.0687414 0.140013 
-0.115081 0.0709346 0.121186 -0.121852 0.073051 0.101498 -0.127876 0.0751043 0.0809119 
-0.132931 0.0771111 0.0594456 -0.136811 0.0790855 0.0371734 -0.139346 0.0810341 0.0142228 
-0.140417 0.0829521 -0.00923564 -0.139967 0.08482 -0.0330024 -0.138008 0.0866027 -0.0568661 
-0.134618 0.0882507 -0.0806212 -0.129937 0.0897034 -0.104085 -0.124156 0.0908948 -0.127109 
-0.117498 0.0917598 -0.149594 -0.110198 0.0922421 -0.171484 -0.102487 0.092301 -0.192775 
-0.094568 0.091917 -0.213499 -0.0866015 0.091096 -0.233719 -0.0786969 0.0898695 -0.253512 
-0.0709062 0.0882929 -0.272956 -0.0632262 0.0864395 -0.292118 -0.0556072 0.0843936 -0.31104 
-0.0479658 0.08224 -0.329735 -0.0402024 0.0800544 -0.348184 -0.0322195 0.0778935 -0.366339 
-0.0239394 0.0757875 -0.384125 -0.0153199 0.0737352 -0.401452 -0.00636454 0.0717028 -0.418226 
0.00287195 0.0696269 -0.434356 0.0122849 0.0674211 -0.449767 0.0217267 0.0649861 -0.464403 
0.0310191 0.0622217 -0.478235 0.0399687 0.0590399 -0.491259 0.0483848 0.0553767 -0.503493 
0.0560963 0.0512028 -0.514975 0.0629669 0.0465297 -0.525751 0.068906 0.041412 -0.535872 
0.0738749 0.0359455 -0.545388 0.0778875 0.0302599 -0.554335 0.0810054 0.0245087 -0.56274 
0.0833293 0.0188556 -0.570615 0.0849858 0.0134603 -0.577955 0.0861143 0.00846505 -0.584748 
0.0868527 0.00398276 -0.59097 0.0873258 8.92084e-05 -0.596597 0.0876363 -0.0031808 -0.601602 
0.0878595 -0.00583233 -0.605964 0.0880428 -0.00790472 -0.609666 0.0882082 -0.00946213 -0.612698 
0.0883584 -0.0105817 -0.615054 0.0884838 -0.0113403 -0.616735 0.0885707 -0.0118029 -0.617741 
0.0886077 -0.0120118 -0.618074 
LINES 2 100
OFFSETS vtktypeint64
0 100 
CONNECTIVITY vtktypeint64
0 1 2 3 4 5 6 7 8 
9 10 11 12 13 14 15 16 17 
18 19 20 21 22 23 24 25 26 
27 28 29 30 31 32 33 34 35 
36 37 38 39 40 41 42 43 44 
45 46 47 48 49 50 51 52 53 
54 55 56 57 58 59 60 61 62 
63 64 65 66 67 68 69 70 71 
72 73 74 75 76 77 78 79 80 
81 82 83 84 85 86 87 88 89 
90 91 92 93 94 95 96 97 98 
99 
POINT_DATA 100
FIELD FieldData 3
_theta 1 100 double
0 0.031733259127 0.063466518254 0.095199777382 0.12693303651 0.15866629564 0.19039955476 0.22213281389 0.25386607302 
0.28559933214 0.31733259127 0.3490658504 0.38079910953 0.41253236865 0.44426562778 0.47599888691 0.50773214603 0.53946540516 
0.57119866429 0.60293192342 0.63466518254 0.66639844167 0.6981317008 0.72986495992 0.76159821905 0.79333147818 0.82506473731 
0.85679799643 0.88853125556 0.92026451469 0.95199777382 0.98373103294 1.0154642921 1.0471975512 1.0789308103 1.1106640695 
1.1423973286 1.1741305877 1.2058638468 1.237597106 1.2693303651 1.3010636242 1.3327968833 1.3645301425 1.3962634016 
1.4279966607 1.4597299198 1.491463179 1.5231964381 1.5549296972 1.5866629564 1.6183962155 1.6501294746 1.6818627337 
1.7135959929 1.745329252 1.7770625111 1.8087957702 1.8405290294 1.8722622885 1.9039955476 1.9357288068 1.9674620659 
1.999195325 2.0309285841 2.0626618433 2.0943951024 2.1261283615 2.1578616206 2.1895948798 2.2213281389 2.253061398 
2.2847946572 2.3165279163 2.3482611754 2.3799944345 2.4117276937 2.4434609528 2.4751942119 2.506927471 2.5386607302 
2.5703939893 2.6021272484 2.6338605076 2.6655937667 2.6973270258 2.7290602849 2.7607935441 2.7925268032 2.8242600623 
2.8559933214 2.8877265806 2.9194598397 2.9511930988 2.982926358 3.0146596171 3.0463928762 3.0781261353 3.1098593945 
3.1415926536 
_radius 1 100 double
1.2590029756e-15 0.013275070607 0.026506893174 0.039640385974 0.052614086382 0.0653599714 0.077805281296 0.089875967322 0.10150109561 
0.11261746702 0.12317379505 0.13313395782 0.14247905761 0.15120822301 0.15933820485 0.16690182256 0.17394527304 0.18052433008 
0.18669958785 0.19253107514 0.19807267583 0.20336679701 0.20843971057 0.21329808164 0.21792739913 0.22229311685 0.22634495268 
0.23002389868 0.23327052437 0.23603275219 0.23827164928 0.23996455039 0.24110551371 0.2417034759 0.24177856978 0.24135708354 
0.24046563592 0.23912537277 0.23734728361 0.23512991407 0.23246061273 0.22932087988 0.22569543941 0.22158357917 0.21701045502 
0.21203575241 0.20675751855 0.20131007008 0.19585636499 0.19057660458 0.18565550577 0.18127024805 0.17757972028 0.17471431423 
0.17276539 0.17177491484 0.1717271619 0.17254438883 0.17408789512 0.17616601545 0.17855059835 0.18100150141 0.18329486403 
0.18524848648 0.18673876933 0.18770700506 0.18815583707 0.18813837028 0.18774298275 0.18707678015 0.1862500408 0.18536299093 
0.18449511851 0.18369659329 0.18298166141 0.18232475779 0.18166055092 0.18088861567 0.17988226452 0.17850003767 0.17659792084 
0.1740405013 0.17070980365 0.16651132999 0.16137764955 0.15527036592 0.14818116668 0.14013206133 0.13117431342 0.12138538992 
0.11086356336 0.099720406185 0.088072037704 0.076030409604 0.063696020857 0.05115318784 0.038468407989 0.025691616426 0.01285952367 
1.0848739014e-15 
_area 1 100 double
0 0.00048807573588 0.0019452397791 0.0043484751024 0.0076542527388 0.01179368778 0.01667036282 0.022162973945 0.028133212987 
0.034437494394 0.040940113989 0.047525478667 0.054107789391 0.060637221997 0.067101633749 0.073522365328 0.079942944139 0.08641140292 
0.092959994989 0.099588377526 0.10625627725 0.11288943092 0.11939908127 0.12571083785 0.13179373941 0.13767410067 0.14341166362 
0.14902988286 0.15445002217 0.15949539463 0.16395091284 0.16762224014 0.17037132267 0.17213005552 0.17289822682 0.17273065913 
0.17171662081 0.16995384148 0.1675215443 0.16446115188 0.16077458991 0.1564434891 0.15146198509 0.14586965552 0.13977172517 
0.13333841196 0.12678189958 0.12031651552 0.11411494417 0.10827915547 0.10284145786 0.097795222749 0.093138614838 0.088914622137 
0.085347894159 0.083318581705 0.082222554356 0.081948609636 0.082374620782 0.083313041124 0.084524102324 0.085747320784 0.086725418481 
0.087221079005 0.087036553118 0.086038505064 0.084191743046 0.08158436853 0.078420594064 0.074983055228 0.071581233058 0.068500212086 
0.065960861427 0.064104374009 0.063011447413 0.062804902557 0.063203688516 0.063810465912 0.064380209636 0.064722703371 0.064695932671 
0.064198015506 0.063150112385 0.061481275123 0.059127363368 0.056044985712 0.052230823352 0.047735556336 0.04266778978 0.037188187821 
0.031495511515 0.025807054584 0.020337181088 0.015278494652 0.010789524508 0.006990550214 0.0039663729679 0.0017729606665 0.00044468983675 
2.9708833489e-17 
