# vtk DataFile Version 5.1
vtk output
ASCII
DATASET POLYDATA
POINTS 100 float
0.0893401 0.0575514 0.698707 0.0894214 0.0577218 0.698715 0.0897283 0.0580853 0.698532 
0.0902243 0.0586183 0.698098 0.0908526 0.0592842 0.697323 0.091541 0.0600367 0.696091 
0.0922082 0.0608231 0.694272 0.0927705 0.0615884 0.691734 0.0931482 0.0622793 0.688354 
0.0932703 0.0628468 0.684029 0.0930785 0.0632487 0.678681 0.0925277 0.0634503 0.672269 
0.0915862 0.063425 0.664788 0.0902335 0.0631537 0.656266 0.0884568 0.0626236 0.646767 
0.0862476 0.0618278 0.636379 0.0835985 0.0607647 0.625208 0.0805003 0.059438 0.613373 
0.0769414 0.0578581 0.60099 0.0729082 0.0560433 0.58817 0.0683871 0.0540218 0.575011 
0.0633675 0.0518339 0.561591 0.0578462 0.0495331 0.547968 0.0518308 0.0471859 0.534177 
0.0453428 0.0448714 0.520232 0.0384195 0.0426774 0.506128 0.0311136 0.0406962 0.491845 
0.0234917 0.0390182 0.47735 0.0156295 0.0377248 0.462603 0.0076075 0.0368812 0.447557 
-0.000495827 0.0365301 0.432164 -0.00860961 0.0366861 0.416376 -0.0166757 0.0373342 0.400144 
-0.0246521 0.038429 0.383424 -0.0325138 0.0398989 0.366175 -0.0402514 0.0416523 0.348359 
-0.0478669 0.0435859 0.329945 -0.0553682 0.0455955 0.31091 -0.062761 0.0475859 0.291236 
-0.0700416 0.0494814 0.27092 -0.0771896 0.0512329 0.249969 -0.0841628 0.052823 0.228402 
-0.0908944 0.0542672 0.206256 -0.0972933 0.055611 0.183577 -0.103247 0.0569239 0.160427 
-0.108631 0.0582904 0.136878 -0.113311 0.0597985 0.113007 -0.117164 0.0615292 0.0888958 
-0.120077 0.0635451 0.0646233 -0.121965 0.0658823 0.0402629 -0.122776 0.0685445 0.0158787 
-0.122494 0.0715021 -0.00847844 -0.121144 0.0746936 -0.0327712 -0.118784 0.0780317 -0.0569767 
-0.115505 0.0814116 -0.0810844 -0.111419 0.0847211 -0.105093 -0.106648 0.0878511 -0.129008 
-0.101318 0.0907047 -0.152834 -0.0955452 0.093205 -0.176572 -0.0894274 0.0952992 -0.200213 
-0.083041 0.0969592 -0.223738 -0.0764365 0.0981796 -0.247111 -0.0696392 0.0989722 -0.27028 
-0.062653 0.099359 -0.293182 -0.0554657 0.0993636 -0.315741 -0.0480559 0.0990043 -0.337873 
-0.0404012 0.0982878 -0.359493 -0.0324847 0.0972056 -0.380521 -0.0243018 0.0957335 -0.400885 
-0.0158638 0.0938348 -0.420527 -0.0072006 0.0914651 -0.43941 0.00163955 0.0885801 -0.457513 
0.0105916 0.0851439 -0.474837 0.0195771 0.081137 -0.491404 0.0285075 0.0765629 -0.507248 
0.0372891 0.0714522 -0.522419 0.0458261 0.0658636 -0.53697 0.0540243 0.0598813 -0.550957 
0.0617932 0.0536096 -0.564431 0.0690476 0.0471649 -0.577436 0.0757085 0.0406661 -0.590003 
0.0817041 0.0342253 -0.602146 0.0869704 0.0279388 -0.613867 0.0914532 0.0218808 -0.625152 
0.0951097 0.0161001 -0.635973 0.097912 0.0106195 -0.646294 0.0998503 0.0054397 -0.656072 
0.100937 0.000544636 -0.665259 0.10121 -0.00409008 -0.673812 0.100735 -0.00848859 -0.681689 
0.0996074 -0.0126665 -0.688855 0.0979493 -0.0166244 -0.695285 0.0959077 -0.0203435 -0.70096 
0.0936473 -0.0237851 -0.705873 0.0913425 -0.0268928 -0.71002 0.089167 -0.0295979 -0.713407 
0.0872833 -0.0318266 -0.716039 0.0858313 -0.0335088 -0.717924 0.0849185 -0.0345863 -0.719069 
0.0846126 -0.0350202 -0.719478 
LINES 2 100
OFFSETS vtktypeint64
0 100 
CONNECTIVITY vtktypeint64
0 1 2 3 4 5 6 7 8 
9 10 11 12 13 14 15 16 17 
18 19 20 21 22 23 24 25 26 
27 28 29 30 31 32 33 34 35 
36 37 38 39 40 41 42 43 44 
45 46 47 48 49 50 51 52 53 
54 55 56 57 58 59 60 61 62 
63 64 65 66 67 68 69 70 71 
72 73 74 75 76 77 78 79 80 
81 82 83 84 85 86 87 88 89 
90 91 92 93 94 95 96 97 98 
99 
POINT_DATA 100
FIELD FieldData 3
_theta 1 100 double
0 0.031733259127 0.063466518254 0.095199777382 0.12693303651 0.15866629564 0.19039955476 0.22213281389 0.25386607302 
0.28559933214 0.31733259127 0.3490658504 0.38079910953 0.41253236865 0.44426562778 0.47599888691 0.50773214603 0.53946540516 
0.57119866429 0.60293192342 0.63466518254 0.66639844167 0.6981317008 0.72986495992 0.76159821905 0.79333147818 0.82506473731 
0.85679799643 0.88853125556 0.92026451469 0.95199777382 0.98373103294 1.0154642921 1.0471975512 1.0789308103 1.1106640695 
1.1423973286 1.1741305877 1.2058638468 1.237597106 1.2693303651 1.3010636242 1.3327968833 1.3645301425 1.3962634016 
1.4279966607 1.4597299198 1.491463179 1.5231964381 1.5549296972 1.5866629564 1.6183962155 1.6501294746 1.6818627337 
1.7135959929 1.745329252 1.7770625111 1.8087957702 1.8405290294 1.8722622885 1.9039955476 1.9357288068 1.9674620659 
1.999195325 2.0309285841 2.0626618433 2.0943951024 2.1261283615 2.1578616206 2.1895948798 2.2213281389 2.253061398 
2.2847946572 2.3165279163 2.3482611754 2.3799944345 2.4117276937 2.4434609528 2.4751942119 2.506927471 2.5386607302 
2.5703939893 2.6021272484 2.6338605076 2.6655937667 2.6973270258 2.7290602849 2.7607935441 2.7925268032 2.8242600623 
2.8559933214 2.8877265806 2.9194598397 2.9511930988 2.982926358 3.0146596171 3.0463928762 3.0781261353 3.1098593945 
3.1415926536 
_radius 1 100 double
1.0162104291e-15 0.015214213928 0.030340194423 0.045282488256 0.059947980313 0.074247315151 0.088096200658 0.10141662217 0.11413796635 
0.12619800993 0.13754373896 0.14813205946 0.15793059314 0.16691882162 0.17508976151 0.18245210192 0.18903238634 0.19487650578 
0.20004962841 0.20463381065 0.20872292845 0.21241518094 0.21580412973 0.21896982701 0.22197174425 0.22484471999 0.22759814901 
0.23021767635 0.23266825346 0.23489765394 0.236840126 0.23842038983 0.23955843204 0.24017546038 0.24020104554 0.23958103328 
0.23828539817 0.23631494554 0.23370573308 0.23053030281 0.22689523469 0.22293503426 0.21880281953 0.21465862016 0.21065638308 
0.20693108258 0.20358767485 0.2006938328 0.19827808409 0.19633388161 0.19482847622 0.19371399973 0.19293770515 0.19244909092 
0.19220320868 0.19216100414 0.19228832235 0.19255496106 0.19293427755 0.19340305858 0.19394110044 0.19453016779 0.19515239184 
0.19578845711 0.19641602291 0.19700877898 0.19753641738 0.19796563618 0.1982620683 0.19839277818 0.19832876414 0.19804679948 
0.19752995023 0.1967662703 0.19574558081 0.19445482098 0.19287296457 0.19096674977 0.18868843077 0.18597642333 0.18275910963 
0.17896130721 0.1745121934 0.16935303648 0.16344309221 0.15676252092 0.14931203496 0.1411099018 0.13218754343 0.12258503515 
0.11234737652 0.10152185361 0.090156516435 0.078299818443 0.066001525813 0.053314807173 0.040298949404 0.027021709401 0.013560247362 
4.4016581462e-16 
_area 1 100 double
0 0.00062439166063 0.0024746704573 0.0054841927331 0.0095484790368 0.014534367227 0.020291376291 0.026663695478 0.033500471743 
0.040661561844 0.048016766896 0.055439719933 0.062801498534 0.06996977748 0.076815685419 0.083226029728 0.089116738255 0.094444338964 
0.099214027973 0.10348339584 0.1073598276 0.11098918186 0.11453712598 0.11817010879 0.1220371402 0.12623513534 0.13075090517 
0.13543490308 0.14005699754 0.14438688959 0.14823253062 0.1514401435 0.15388337072 0.15545876387 0.15609136753 0.15574498865 
0.15442937878 0.15220022829 0.1491530313 0.14541468665 0.14113612591 0.13648607595 0.13164284687 0.12678119389 0.1220549008 
0.11757932419 0.11341989214 0.10959328132 0.10608926394 0.10293592921 0.10019174444 0.097650764468 0.09517274088 0.092738671747 
0.090394748719 0.088221915234 0.086305696824 0.084703407682 0.083388495536 0.082203853855 0.08098270557 0.079689260419 0.078440573682 
0.077469906395 0.076928352884 0.076743218714 0.076850159025 0.077069168221 0.077301504521 0.077444326305 0.077406382331 0.077141933737 
0.076660601401 0.076036648963 0.075422259836 0.074853923042 0.074340139468 0.073906931779 0.073547488656 0.073171553334 0.072584523708 
0.071564948611 0.06994321631 0.067622659584 0.06457416621 0.060824524733 0.05644282021 0.051526406996 0.046188710255 0.040551444017 
0.034742754921 0.028900270749 0.023175223047 0.017733019876 0.01274787212 0.0083923596223 0.0048248126589 0.0021777134365 0.00054944889536 
2.0843681706e-17 
