# vtk DataFile Version 5.1
vtk output
ASCII
DATASET POLYDATA
POINTS 100 float
0.148288 0.0655752 0.738542 0.148323 0.0657127 0.738363 0.148531 0.0659965 0.737628 
0.148885 0.066408 0.736324 0.149338 0.066918 0.734425 0.149831 0.0674901 0.731902 
0.150298 0.0680843 0.728716 0.150671 0.0686607 0.724825 0.150887 0.0691845 0.720182 
0.150887 0.0696288 0.714742 0.150624 0.0699785 0.708461 0.15006 0.0702315 0.701303 
0.149166 0.0703994 0.693239 0.147919 0.0705057 0.684258 0.146299 0.0705834 0.674362 
0.144286 0.0706702 0.663574 0.141855 0.0708035 0.651939 0.138977 0.0710141 0.639523 
0.135618 0.0713205 0.626413 0.131737 0.071724 0.612712 0.127293 0.0722052 0.598541 
0.122251 0.0727226 0.584026 0.116579 0.0732136 0.569297 0.110263 0.0735986 0.554478 
0.103303 0.0737865 0.539682 0.0957195 0.073684 0.525002 0.0875541 0.0732041 0.510505 
0.0788656 0.0722767 0.496227 0.0697274 0.0708578 0.482172 0.0602213 0.068937 0.468305 
0.0504306 0.0665422 0.45456 0.0404328 0.0637414 0.440839 0.0302939 0.0606402 0.427016 
0.020063 0.0573757 0.412948 0.009771 0.0541071 0.398479 -0.000569278 0.0510038 0.383454 
-0.0109589 0.0482322 0.367724 -0.0214066 0.045942 0.351158 -0.0319203 0.0442543 0.33365 
-0.0424979 0.0432521 0.315129 -0.0531184 0.0429739 0.295559 -0.0637341 0.0434128 0.27495 
-0.0742658 0.0445179 0.253349 -0.0846015 0.0462018 0.230845 -0.0945989 0.0483498 0.207561 
-0.104092 0.0508323 0.183649 -0.112901 0.0535168 0.159281 -0.120846 0.0562807 0.134637 
-0.12776 0.0590207 0.1099 -0.133502 0.0616601 0.0852399 -0.137973 0.0641516 0.0608075 
-0.141123 0.0664772 0.0367267 -0.142956 0.0686436 0.0130879 -0.143534 0.0706752 -0.0100545 
-0.14297 0.0726053 -0.0326823 -0.141419 0.0744671 -0.0548114 -0.139071 0.0762847 -0.0764864 
-0.136128 0.078067 -0.0977736 -0.132794 0.0798042 -0.118752 -0.129257 0.0814668 -0.139504 
-0.125676 0.0830091 -0.160105 -0.12217 0.084374 -0.180618 -0.118813 0.0855013 -0.201082 
-0.115629 0.0863347 -0.221512 -0.112599 0.0868302 -0.241893 -0.109666 0.0869616 -0.262184 
-0.106746 0.0867239 -0.282318 -0.103739 0.0861335 -0.302212 -0.100543 0.085225 -0.32177 
-0.097066 0.0840459 -0.34089 -0.0932394 0.0826488 -0.359479 -0.0890227 0.0810825 -0.377451 
-0.0844105 0.0793847 -0.394738 -0.0794332 0.0775749 -0.411293 -0.0741548 0.0756515 -0.427087 
-0.0686682 0.0735914 -0.442113 -0.0630873 0.0713536 -0.456377 -0.0575383 0.0688857 -0.469897 
-0.0521502 0.0661338 -0.482694 -0.0470457 0.0630523 -0.494789 -0.0423332 0.059615 -0.506194 
-0.038101 0.0558235 -0.516909 -0.0344121 0.0517131 -0.526923 -0.0313035 0.0473545 -0.536209 
-0.0287852 0.0428513 -0.544733 -0.0268426 0.0383327 -0.552455 -0.0254398 0.0339432 -0.559336 
-0.0245241 0.0298291 -0.565345 -0.0240304 0.026124 -0.570467 -0.0238863 0.0229358 -0.574708 
-0.0240166 0.0203354 -0.578099 -0.024347 0.0183495 -0.580699 -0.0248074 0.0169585 -0.582589 
-0.0253344 0.0160993 -0.583875 -0.0258723 0.0156738 -0.584675 -0.0263742 0.0155605 -0.585113 
-0.0268022 0.0156298 -0.585309 -0.0271275 0.0157599 -0.585369 -0.0273299 0.0158516 -0.585375 
-0.0273973 0.0158404 -0.58538 
LINES 2 100
OFFSETS vtktypeint64
0 100 
CONNECTIVITY vtktypeint64
0 1 2 3 4 5 6 7 8 
9 10 11 12 13 14 15 16 17 
18 19 20 21 22 23 24 25 26 
27 28 29 30 31 32 33 34 35 
36 37 38 39 40 41 42 43 44 
45 46 47 48 49 50 51 52 53 
54 55 56 57 58 59 60 61 62 
63 64 65 66 67 68 69 70 71 
72 73 74 75 76 77 78 79 80 
81 82 83 84 85 86 87 88 89 
90 91 92 93 94 95 96 97 98 
99 
POINT_DATA 100
FIELD FieldData 3
_theta 1 100 double
0 0.031733259127 0.063466518254 0.095199777382 0.12693303651 0.15866629564 0.19039955476 0.22213281389 0.25386607302 
0.28559933214 0.31733259127 0.3490658504 0.38079910953 0.41253236865 0.44426562778 0.47599888691 0.50773214603 0.53946540516 
0.57119866429 0.60293192342 0.63466518254 0.66639844167 0.6981317008 0.72986495992 0.76159821905 0.79333147818 0.82506473731 
0.85679799643 0.88853125556 0.92026451469 0.95199777382 0.98373103294 1.0154642921 1.0471975512 1.0789308103 1.1106640695 
1.1423973286 1.1741305877 1.2058638468 1.237597106 1.2693303651 1.3010636242 1.3327968833 1.3645301425 1.3962634016 
1.4279966607 1.4597299198 1.491463179 1.5231964381 1.5549296972 1.5866629564 1.6183962155 1.6501294746 1.6818627337 
1.7135959929 1.745329252 1.7770625111 1.8087957702 1.8405290294 1.8722622885 1.9039955476 1.9357288068 1.9674620659 
1.999195325 2.0309285841 2.0626618433 2.0943951024 2.1261283615 2.1578616206 2.1895948798 2.2213281389 2.253061398 
2.2847946572 2.3165279163 2.3482611754 2.3799944345 2.4117276937 2.4434609528 2.4751942119 2.506927471 2.5386607302 
2.5703939893 2.6021272484 2.6338605076 2.6655937667 2.6973270258 2.7290602849 2.7607935441 2.7925268032 2.8242600623 
2.8559933214 2.8877265806 2.9194598397 2.9511930988 2.982926358 3.0146596171 3.0463928762 3.0781261353 3.1098593945 
3.1415926536 
_radius 1 100 double
3.1676639674e-16 0.014068865796 0.027993333016 0.041627898568 0.054832480956 0.067475347994 0.079436596635 0.090612618597 0.10092143757 
0.11030796003 0.11874769196 0.12624767535 0.13284406621 0.13859656948 0.14358074683 0.14787998254 0.15157933642 0.15476306843 
0.15751604938 0.15992723036 0.16209198786 0.16411026083 0.16607905272 0.16808063093 0.17017038378 0.17236889621 0.1746605088 
0.17699715074 0.17930427948 0.18148611749 0.18342902011 0.18500378761 0.18606961837 0.18648323289 0.18611504007 0.18487037586 
0.18271067237 0.17966909669 0.17585702885 0.17145999641 0.16672353385 0.16193086866 0.15737546968 0.15333238746 0.1500329111 
0.14764694022 0.14627589785 0.14595588635 0.14666750518 0.14834723902 0.15089613643 0.15418366289 0.15804743773 0.16229311864 
0.16670122201 0.17104488054 0.17511452579 0.17874021691 0.18180482931 0.18424713692 0.18605746301 0.1872692403 0.18794904224 
0.18818660477 0.18808550556 0.18775460665 0.18730012059 0.1868182349 0.18638855012 0.18606894084 0.18589256522 0.18586746935 
0.18597861754 0.1861914538 0.18645558147 0.18670717745 0.18686946139 0.18685161013 0.18654736673 0.18583486849 0.18457893708 
0.1826364738 0.17986487715 0.17613267304 0.17133095344 0.165383916 0.15825687205 0.14996050221 0.1405507471 0.13012436401 
0.11881073384 0.10676090048 0.094135058459 0.081089806653 0.067766496723 0.05428193621 0.040722533805 0.027142655077 0.013567473987 
9.4481951201e-16 
_area 1 100 double
0 0.00038983536995 0.0015574970927 0.0035001030444 0.0062151441054 0.0096873966397 0.013860938845 0.018617420782 0.023777573815 
0.029122931437 0.03442649996 0.039482983158 0.044132635558 0.048275530971 0.051875358594 0.054954272966 0.057582146789 0.059863148876 
0.06192011137 0.063878114386 0.065855386873 0.067965340955 0.070315015757 0.07298613394 0.076006151725 0.079328667819 0.082837165548 
0.086371101268 0.0897620066 0.092865497234 0.095576608538 0.097819819603 0.099518498122 0.10056428666 0.10081060655 0.10010492504 
0.098346535646 0.095534777337 0.091787806668 0.087334067688 0.082484487155 0.077591714708 0.072998848747 0.06897940367 0.065692430864 
0.063182677447 0.061407888541 0.06027582521 0.059680522739 0.059525744349 0.059739848636 0.060295727548 0.061228659565 0.062532443979 
0.064170829716 0.066093964409 0.068195566917 0.070274919749 0.07209836375 0.073493398678 0.074376852103 0.07473075014 0.074571011304 
0.073931023331 0.072865047169 0.071460909038 0.069845777941 0.068179648596 0.066645551253 0.065453275732 0.064790261464 0.064617376824 
0.064721108452 0.06489333741 0.06499537301 0.064973496721 0.064815627775 0.064572999335 0.064359278277 0.064290559143 0.064331555827 
0.064261533232 0.063809847013 0.062733245812 0.060844090675 0.058032095442 0.054278519082 0.049658007117 0.044327628748 0.03850613006 
0.032447909272 0.026416074407 0.020658044611 0.015386275025 0.010765999562 0.0069110879965 0.003887932458 0.0017258176595 0.00043088460804 
1.4040418134e-17 
