# vtk DataFile Version 5.1
vtk output
ASCII
DATASET POLYDATA
POINTS 100 float
0.138834 0.0819422 0.720436 0.138745 0.0821355 0.720186 0.138566 0.0825529 0.719287 
0.138308 0.0831707 0.717736 0.137988 0.0839523 0.715536 0.137619 0.0848506 0.712685 
0.1372 0.0858114 0.709182 0.136715 0.0867757 0.705024 0.136123 0.0876841 0.700205 
0.135357 0.088479 0.69472 0.134329 0.089108 0.688562 0.132932 0.0895256 0.681724 
0.131051 0.0896953 0.674204 0.128576 0.0895897 0.666006 0.125415 0.0891913 0.657139 
0.121504 0.0884915 0.647622 0.116819 0.08749 0.637482 0.11138 0.0861937 0.626757 
0.105253 0.0846145 0.615493 0.0985468 0.082769 0.603741 0.0913992 0.0806763 0.591555 
0.0839684 0.0783576 0.578992 0.0764157 0.0758352 0.566101 0.0688897 0.0731324 0.552929 
0.0615122 0.0702738 0.539512 0.0543673 0.0672853 0.525873 0.0474954 0.064195 0.512026 
0.0408918 0.0610338 0.497974 0.0345115 0.0578362 0.483707 0.028278 0.054641 0.469208 
0.0220958 0.0514914 0.454454 0.0158644 0.0484349 0.43942 0.00949204 0.0455231 0.424076 
0.00290716 0.0428102 0.408394 -0.00393294 0.0403517 0.392346 -0.0110381 0.0382025 0.375903 
-0.0183859 0.0364141 0.35904 -0.0259255 0.0350323 0.341725 -0.0335856 0.0340948 0.323931 
-0.041283 0.033628 0.305622 -0.0489318 0.0336458 0.286764 -0.0564508 0.0341477 0.267322 
-0.0637683 0.0351183 0.24726 -0.0708241 0.0365275 0.226549 -0.0775678 0.0383323 0.205167 
-0.0839544 0.0404785 0.183105 -0.0899386 0.0429042 0.160372 -0.095469 0.0455437 0.136997 
-0.100483 0.0483311 0.113032 -0.104907 0.051205 0.0885504 -0.108653 0.0541114 0.0636488 
-0.111632 0.0570072 0.0384399 -0.113756 0.0598615 0.0130478 -0.114953 0.0626562 -0.0123987 
-0.115182 0.0653845 -0.0377744 -0.11444 0.0680488 -0.062966 -0.112772 0.0706566 -0.0878786 
-0.110275 0.0732159 -0.112442 -0.107096 0.0757305 -0.136614 -0.103421 0.0781948 -0.160381 
-0.0994613 0.0805895 -0.183756 -0.0954315 0.0828796 -0.206776 -0.091528 0.0850122 -0.229493 
-0.0879059 0.0869182 -0.251967 -0.0846591 0.0885149 -0.274259 -0.0818059 0.0897111 -0.296421 
-0.0792827 0.0904134 -0.318491 -0.0769466 0.0905338 -0.340483 -0.0745867 0.0899977 -0.362391 
-0.071945 0.0887511 -0.384183 -0.0687424 0.0867669 -0.405802 -0.0647087 0.0840488 -0.427175 
-0.0596126 0.0806334 -0.448212 -0.0532885 0.0765888 -0.468816 -0.0456565 0.0720113 -0.488887 
-0.0367336 0.0670184 -0.508328 -0.0266343 0.0617411 -0.52705 -0.0155618 0.0563141 -0.544972 
-0.00378855 0.0508664 -0.562027 0.00836922 0.0455118 -0.578161 0.020581 0.0403416 -0.593328 
0.0325323 0.0354197 -0.607494 0.0439512 0.0307796 -0.620635 0.0546295 0.0264261 -0.632732 
0.0644344 0.0223384 -0.643774 0.0733118 0.0184765 -0.653754 0.0812793 0.0147897 -0.662678 
0.0884115 0.0112256 -0.670557 0.0948197 0.00773875 -0.677415 0.100629 0.00429936 -0.683289 
0.105954 0.000898806 -0.68823 0.110882 -0.00244676 -0.692303 0.115458 -0.00569601 -0.695585 
0.119681 -0.0087851 -0.698165 0.123503 -0.011633 -0.700134 0.12684 -0.0141491 -0.701585 
0.129591 -0.016242 -0.702607 0.131647 -0.0178286 -0.703275 0.132917 -0.0188425 -0.703646 
0.133339 -0.0192407 -0.703757 
LINES 2 100
OFFSETS vtktypeint64
0 100 
CONNECTIVITY vtktypeint64
0 1 2 3 4 5 6 7 8 
9 10 11 12 13 14 15 16 17 
18 19 20 21 22 23 24 25 26 
27 28 29 30 31 32 33 34 35 
36 37 38 39 40 41 42 43 44 
45 46 47 48 49 50 51 52 53 
54 55 56 57 58 59 60 61 62 
63 64 65 66 67 68 69 70 71 
72 73 74 75 76 77 78 79 80 
81 82 83 84 85 86 87 88 89 
90 91 92 93 94 95 96 97 98 
99 
POINT_DATA 100
FIELD FieldData 3
_theta 1 100 double
0 0.031733259127 0.063466518254 0.095199777382 0.12693303651 0.15866629564 0.19039955476 0.22213281389 0.25386607302 
0.28559933214 0.31733259127 0.3490658504 0.38079910953 0.41253236865 0.44426562778 0.47599888691 0.50773214603 0.53946540516 
0.57119866429 0.60293192342 0.63466518254 0.66639844167 0.6981317008 0.72986495992 0.76159821905 0.79333147818 0.82506473731 
0.85679799643 0.88853125556 0.92026451469 0.95199777382 0.98373103294 1.0154642921 1.0471975512 1.0789308103 1.1106640695 
1.1423973286 1.1741305877 1.2058638468 1.237597106 1.2693303651 1.3010636242 1.3327968833 1.3645301425 1.3962634016 
1.4279966607 1.4597299198 1.491463179 1.5231964381 1.5549296972 1.5866629564 1.6183962155 1.6501294746 1.6818627337 
1.7135959929 1.745329252 1.7770625111 1.8087957702 1.8405290294 1.8722622885 1.9039955476 1.9357288068 1.9674620659 
1.999195325 2.0309285841 2.0626618433 2.0943951024 2.1261283615 2.1578616206 2.1895948798 2.2213281389 2.253061398 
2.2847946572 2.3165279163 2.3482611754 2.3799944345 2.4117276937 2.4434609528 2.4751942119 2.506927471 2.5386607302 
2.5703939893 2.6021272484 2.6338605076 2.6655937667 2.6973270258 2.7290602849 2.7607935441 2.7925268032 2.8242600623 
2.8559933214 2.8877265806 2.9194598397 2.9511930988 2.982926358 3.0146596171 3.0463928762 3.0781261353 3.1098593945 
3.1415926536 
_radius 1 100 double
6.2450045135e-16 0.014598674408 0.029112276333 0.043448216909 0.057510492402 0.071199632754 0.08441412239 0.097053357072 0.10902187752 
0.12023432144 0.13062033914 0.1401286978 0.14873001565 0.15641799698 0.16320947708 0.16914369214 0.17428081485 0.1786992787 
0.18249131163 0.18575658061 0.18859455948 0.19109672677 0.19333980722 0.19538107816 0.19725644389 0.19898164625 0.20055657157 
0.20197199538 0.20321731285 0.2042872109 0.20518531456 0.20592370067 0.20651843853 0.20698243309 0.20731750072 0.20750784531 
0.20751701189 0.2072898153 0.20675949628 0.20585880582 0.20453266192 0.2027499335 0.20051253083 0.19786075599 0.19487441384 
0.19166946169 0.18839018283 0.18519728189 0.18225308374 0.17970599837 0.17767699235 0.17625026798 0.17546861129 0.17533197108 
0.17579724798 0.17677842179 0.17814790348 0.17974091541 0.1813642916 0.18280982702 0.18387093641 0.18436054351 0.18412820989 
0.18307540226 0.18116855945 0.17844909136 0.17503776328 0.17113001731 0.16698020754 0.16287575045 0.1591050822 0.15592510784 
0.1535341228 0.15205466176 0.15152769745 0.15191639877 0.1531157303 0.15496405766 0.15725413441 0.15974254783 0.16215825058 
0.16421189705 0.1656080508 0.16606144947 0.16531637054 0.16316589843 0.15946708058 0.15414890508 0.14721188208 0.13871986562 
0.12878618997 0.11755706571 0.10519537817 0.091867498784 0.077734582469 0.062948452733 0.047651066532 0.031976064882 0.016051079268 
1.8524044808e-15 
_area 1 100 double
0 0.00057155542717 0.0022619677806 0.005001304391 0.0086818190055 0.013169177363 0.018314763586 0.023966692049 0.02997774951 
0.036209926834 0.042536698425 0.048844378878 0.055032719389 0.061014456799 0.066715328106 0.072077695093 0.07706761676 0.081678870786 
0.085927615566 0.089840211072 0.093443825363 0.096766672922 0.099846293461 0.10273838352 0.10551765641 0.10826526768 0.11104394185 
0.11386997737 0.11669664268 0.11942024997 0.12190642438 0.12402200862 0.12565989272 0.1267529247 0.12727820895 0.12725403172 
0.12673234293 0.12580113456 0.12460938626 0.12329981264 0.12177458537 0.11979431656 0.11724594923 0.11412732524 0.11052132304 
0.10657931159 0.10249996754 0.098505187212 0.094816979967 0.091635119871 0.089109801384 0.087291409506 0.086092898708 0.085349685557 
0.084892434648 0.084559516091 0.084193175627 0.083642420911 0.082777692454 0.081515305024 0.079841915121 0.077815788491 0.075524465445 
0.073022032958 0.07029642441 0.067301240637 0.064058607473 0.060696238224 0.057371266786 0.05427009157 0.051604963067 0.049559755099 
0.048260353629 0.047778218883 0.048129391365 0.049190898884 0.050690717962 0.052386425275 0.054135479322 0.055865350449 0.057526942635 
0.059047317934 0.060293785734 0.06106042933 0.061087308621 0.06011471369 0.057954203445 0.054545305684 0.049975758081 0.04446314006 
0.038310910801 0.031857010505 0.025430416452 0.019323855789 0.013782715045 0.0090045315655 0.0051425018361 0.0023093037138 0.00058078818972 
7.0456710133e-18 
