# vtk DataFile Version 5.1
vtk output
ASCII
DATASET POLYDATA
POINTS 100 float
0.155756 0.059069 0.779182 0.156001 0.059066 0.778719 0.156765 0.0588921 0.777188 
0.157945 0.0585807 0.774633 0.159377 0.0581838 0.771128 0.160862 0.057766 0.766762 
0.162188 0.0573955 0.761632 0.163155 0.057136 0.755834 0.163599 0.0570382 0.749453 
0.163405 0.0571338 0.742555 0.162519 0.0574315 0.735186 0.160952 0.0579163 0.727371 
0.158763 0.0585519 0.719116 0.156054 0.0592856 0.71042 0.152944 0.0600554 0.701276 
0.149551 0.0607987 0.691683 0.145967 0.0614604 0.681651 0.142248 0.062 0.671206 
0.138402 0.0623969 0.660389 0.134386 0.0626526 0.649255 0.130115 0.06279 0.637869 
0.125478 0.062849 0.626293 0.120351 0.0628805 0.614583 0.114623 0.0629374 0.602775 
0.108214 0.0630661 0.590886 0.10109 0.0632976 0.578901 0.0932748 0.0636408 0.566783 
0.0848481 0.0640781 0.554473 0.0759425 0.0645647 0.541899 0.0667272 0.0650316 0.528988 
0.0573893 0.065391 0.515676 0.048111 0.0655459 0.501922 0.0390479 0.0654004 0.487716 
0.0303104 0.0648714 0.47308 0.0219509 0.0638985 0.458071 0.0139588 0.0624534 0.442775 
0.00626442 0.0605447 0.427295 -0.00124987 0.0582198 0.411735 -0.00873164 0.0555631 0.396187 
-0.0163367 0.0526893 0.380709 -0.0242065 0.0497342 0.365319 -0.0324475 0.0468434 0.349978 
-0.0411157 0.0441597 0.334591 -0.0502075 0.0418111 0.319009 -0.0596586 0.0399004 0.30304 
-0.069351 0.038498 0.286465 -0.0791257 0.0376379 0.26906 -0.0888003 0.0373176 0.250616 
-0.0981887 0.0375026 0.230963 -0.107119 0.0381328 0.209986 -0.11545 0.0391326 0.187643 
-0.123079 0.0404212 0.163966 -0.129945 0.0419231 0.139066 -0.136029 0.0435768 0.113116 
-0.141342 0.045342 0.086345 -0.145914 0.0472022 0.0590127 -0.149782 0.0491646 0.0313901 
-0.152978 0.0512565 0.00373808 -0.155517 0.0535182 -0.0237106 -0.157398 0.0559943 -0.0507657 
-0.158603 0.0587237 -0.0772868 -0.159102 0.0617303 -0.103185 -0.15887 0.0650145 -0.128419 
-0.157892 0.0685475 -0.152986 -0.15618 0.0722693 -0.17691 -0.153782 0.0760894 -0.200229 
-0.150784 0.0798918 -0.222982 -0.147308 0.0835427 -0.245204 -0.143502 0.0869004 -0.266917 
-0.139526 0.089827 -0.288129 -0.13553 0.0921993 -0.308842 -0.131636 0.0939194 -0.329054 
-0.127914 0.0949225 -0.348765 -0.124372 0.0951821 -0.367989 -0.120944 0.0947112 -0.386756 
-0.117498 0.0935609 -0.405114 -0.113844 0.0918145 -0.423129 -0.109758 0.0895802 -0.440875 
-0.105009 0.0869811 -0.458424 -0.0993929 0.0841449 -0.475837 -0.0927645 0.0811941 -0.493145 
-0.0850628 0.0782371 -0.510345 -0.076331 0.0753618 -0.527381 -0.0667233 0.0726314 -0.544152 
-0.0564984 0.0700839 -0.560507 -0.0460009 0.0677335 -0.576259 -0.03563 0.0655746 -0.591197 
-0.0258016 0.0635877 -0.605106 -0.0169059 0.0617463 -0.617786 -0.00926685 0.0600227 -0.629076 
-0.00310843 0.058395 -0.638867 0.00146855 0.0568506 -0.647114 0.00449528 0.0553893 -0.653841 
0.00612852 0.0540235 -0.659139 0.00662932 0.0527765 -0.663148 0.00632921 0.0516797 -0.666048 
0.00558809 0.0507677 -0.668031 0.00474872 0.0500739 -0.669279 0.00409358 0.0496255 -0.669942 
0.00380939 0.0494399 -0.670117 
LINES 2 100
OFFSETS vtktypeint64
0 100 
CONNECTIVITY vtktypeint64
0 1 2 3 4 5 6 7 8 
9 10 11 12 13 14 15 16 17 
18 19 20 21 22 23 24 25 26 
27 28 29 30 31 32 33 34 35 
36 37 38 39 40 41 42 43 44 
45 46 47 48 49 50 51 52 53 
54 55 56 57 58 59 60 61 62 
63 64 65 66 67 68 69 70 71 
72 73 74 75 76 77 78 79 80 
81 82 83 84 85 86 87 88 89 
90 91 92 93 94 95 96 97 98 
99 
POINT_DATA 100
FIELD FieldData 3
_theta 1 100 double
0 0.031733259127 0.063466518254 0.095199777382 0.12693303651 0.15866629564 0.19039955476 0.22213281389 0.25386607302 
0.28559933214 0.31733259127 0.3490658504 0.38079910953 0.41253236865 0.44426562778 0.47599888691 0.50773214603 0.53946540516 
0.57119866429 0.60293192342 0.63466518254 0.66639844167 0.6981317008 0.72986495992 0.76159821905 0.79333147818 0.82506473731 
0.85679799643 0.88853125556 0.92026451469 0.95199777382 0.98373103294 1.0154642921 1.0471975512 1.0789308103 1.1106640695 
1.1423973286 1.1741305877 1.2058638468 1.237597106 1.2693303651 1.3010636242 1.3327968833 1.3645301425 1.3962634016 
1.4279966607 1.4597299198 1.491463179 1.5231964381 1.5549296972 1.5866629564 1.6183962155 1.6501294746 1.6818627337 
1.7135959929 1.745329252 1.7770625111 1.8087957702 1.8405290294 1.8722622885 1.9039955476 1.9357288068 1.9674620659 
1.999195325 2.0309285841 2.0626618433 2.0943951024 2.1261283615 2.1578616206 2.1895948798 2.2213281389 2.253061398 
2.2847946572 2.3165279163 2.3482611754 2.3799944345 2.4117276937 2.4434609528 2.4751942119 2.506927471 2.5386607302 
2.5703939893 2.6021272484 2.6338605076 2.6655937667 2.6973270258 2.7290602849 2.7607935441 2.7925268032 2.8242600623 
2.8559933214 2.8877265806 2.9194598397 2.9511930988 2.982926358 3.0146596171 3.0463928762 3.0781261353 3.1098593945 
3.1415926536 
_radius 1 100 double
2.7790248428e-16 0.014227522755 0.028287297862 0.042021253344 0.055300091839 0.068031173826 0.080160641635 0.09167070668 0.10257376914 
0.11290506013 0.12271502768 0.1320620836 0.14100590668 0.14960140598 0.15789358329 0.16591361946 0.17367633134 0.18117879975 
0.18839980446 0.19529997183 0.2018230958 0.20789947869 0.21345197704 0.2184047257 0.22269359328 0.22627670234 0.22914306599 
0.23131758088 0.23286120596 0.23386603541 0.2344459695 0.23472451912 0.2348216317 0.23484115037 0.23485982286 0.23491817454 
0.23501352604 0.2350960289 0.23506931004 0.23479736643 0.23411827979 0.23286349742 0.23087981333 0.22805056256 0.22431298701 
0.21966976592 0.21419376887 0.20802586428 0.20136608056 0.19445877462 0.18757303711 0.18098053943 0.17493398727 0.16964922253 
0.16529220835 0.16196981251 0.15972267787 0.15852032447 0.158261328 0.1587823858 0.15987786139 0.16132686171 0.16292095826 
0.16448509619 0.16588732245 0.16703752196 0.16787886711 0.16837696725 0.16851092413 0.16826852929 0.16764575096 0.16664928053 
0.16530039241 0.16363829383 0.16172123826 0.15962435921 0.15743490791 0.15524739536 0.15316077781 0.15127680986 0.14969571573 
0.14850454225 0.14775516305 0.14743371166 0.14743165761 0.14753431304 0.14743463355 0.14676421992 0.14512769967 0.14213264942 
0.13741490267 0.13066277118 0.12164261026 0.11022418391 0.096400922262 0.080300216683 0.062182057134 0.042427128504 0.021515852599 
1.297965469e-15 
_area 1 100 double
0 0.00047718395204 0.0019008304609 0.0042433369823 0.0074484994049 0.011424152335 0.016042710251 0.021152126885 0.026594872333 
0.032229269506 0.037947146176 0.043683598798 0.049417235875 0.055161594013 0.060950458724 0.066821532593 0.072803236739 0.078907200943 
0.085124915001 0.091424116037 0.097741788299 0.10397612274 0.10998510122 0.11559886293 0.12064591062 0.12498546434 0.12853583603 
0.13129162706 0.13332686645 0.13478390376 0.13584984458 0.13672588648 0.13759907223 0.1386297648 0.13998412649 0.14186599735 
0.14416051854 0.14653821757 0.14872914877 0.15049015681 0.15158741829 0.15179857473 0.15093086972 0.14885983499 0.14555304617 
0.1411078032 0.13560654052 0.12912221192 0.12188930727 0.114282084 0.10674519785 0.099714024977 0.093505435874 0.088239043929 
0.083891727524 0.080378302608 0.077603436799 0.075494378441 0.074004227196 0.073089575029 0.072679989967 0.072658879378 0.072864944978 
0.073110085744 0.073212330301 0.073041057657 0.072557969546 0.07185262741 0.071227791324 0.070790563385 0.070402110482 0.069955689323 
0.069310800666 0.068334825064 0.066937243285 0.065083862296 0.062800110943 0.060168970162 0.057318091453 0.054398978406 0.05156792375 
0.048975179216 0.046783473685 0.045271044542 0.044282107198 0.043478425888 0.042531027081 0.041163471655 0.039172264167 0.036431994097 
0.03290420206 0.028653100694 0.023854725798 0.018783576038 0.0137759743 0.0091806968071 0.0053095378595 0.0024006958258 0.00060559354324 
3.5223983271e-17 
