# vtk DataFile Version 5.1
vtk output
ASCII
DATASET POLYDATA
POINTS 100 float
0.175709 0.0358049 0.697357 0.175644 0.0359934 0.697327 0.175506 0.036426 0.697035 
0.17528 0.037075 0.69644 0.174944 0.0378967 0.695477 0.174469 0.0388364 0.694066 
0.17382 0.0398334 0.692118 0.172958 0.0408269 0.689545 0.171845 0.0417617 0.686268 
0.170441 0.0425933 0.682221 0.168709 0.0432915 0.677366 0.166612 0.0438423 0.671688 
0.164115 0.0442478 0.665203 0.161188 0.044525 0.657957 0.157798 0.0447018 0.65002 
0.153919 0.0448128 0.641481 0.149524 0.0448939 0.632445 0.144591 0.0449774 0.623018 
0.139104 0.0450871 0.613306 0.133054 0.0452348 0.6034 0.126443 0.0454186 0.593375 
0.119284 0.0456229 0.583281 0.111607 0.0458194 0.573144 0.103456 0.0459713 0.562965 
0.0948897 0.0460369 0.55272 0.0859804 0.0459756 0.542369 0.07681 0.0457529 0.53186 
0.067465 0.0453455 0.521138 0.0580299 0.0447452 0.510148 0.0485813 0.0439612 0.498848 
0.0391807 0.0430209 0.487209 0.0298689 0.0419689 0.475216 0.0206623 0.040864 0.462877 
0.0115505 0.0397749 0.450213 0.00249758 0.0387753 0.437257 -0.00655413 0.0379377 0.424047 
-0.015678 0.0373284 0.410622 -0.0249542 0.0370022 0.39701 -0.0344599 0.036999 0.383228 
-0.0442583 0.0373414 0.369271 -0.0543893 0.0380343 0.355113 -0.0648605 0.0390658 0.340706 
-0.0756423 0.0404098 0.32598 -0.0866648 0.0420294 0.310851 -0.0978199 0.0438814 0.295226 
-0.108966 0.0459204 0.279008 -0.119939 0.0481033 0.26211 -0.130558 0.0503925 0.244458 
-0.140644 0.0527583 0.226001 -0.150032 0.05518 0.206712 -0.158582 0.0576454 0.186594 
-0.166188 0.06015 0.165677 -0.172791 0.0626944 0.144018 -0.178374 0.0652812 0.121695 
-0.182971 0.0679122 0.0987996 -0.186652 0.070585 0.0754336 -0.189523 0.0732908 0.0517003 
-0.19171 0.0760129 0.0276988 -0.193349 0.0787258 0.00351992 -0.19457 0.0813957 -0.0207569 
-0.195488 0.083982 -0.0450645 -0.196192 0.0864393 -0.0693468 -0.196737 0.0887207 -0.0935573 
-0.197142 0.0907804 -0.117656 -0.19739 0.0925769 -0.141605 -0.197432 0.0940758 -0.165367 
-0.197194 0.0952516 -0.188902 -0.196586 0.0960889 -0.212167 -0.195516 0.0965832 -0.235116 
-0.193898 0.0967398 -0.257698 -0.19166 0.0965729 -0.279866 -0.18876 0.0961041 -0.301574 
-0.185183 0.0953596 -0.32278 -0.18095 0.0943687 -0.343452 -0.176117 0.0931611 -0.363565 
-0.170769 0.0917659 -0.383103 -0.165016 0.0902097 -0.402055 -0.158989 0.0885162 -0.420417 
-0.152826 0.0867064 -0.438181 -0.146666 0.0847983 -0.455339 -0.140642 0.0828082 -0.471872 
-0.134873 0.0807515 -0.487751 -0.129455 0.0786436 -0.502934 -0.124465 0.0765008 -0.517367 
-0.119951 0.0743412 -0.530987 -0.11594 0.0721844 -0.543723 -0.112435 0.0700524 -0.555505 
-0.109419 0.0679682 -0.566268 -0.106864 0.0659557 -0.575962 -0.104728 0.064039 -0.584553 
-0.102964 0.0622407 -0.592034 -0.101526 0.0605818 -0.598421 -0.100366 0.0590804 -0.603757 
-0.0994426 0.0577515 -0.608108 -0.0987181 0.0566066 -0.611557 -0.0981622 0.055654 -0.614195 
-0.0977508 0.0548987 -0.616117 -0.0974659 0.0543433 -0.617408 -0.0972951 0.0539884 -0.618136 
-0.0972311 0.053833 -0.618346 
LINES 2 100
OFFSETS vtktypeint64
0 100 
CONNECTIVITY vtktypeint64
0 1 2 3 4 5 6 7 8 
9 10 11 12 13 14 15 16 17 
18 19 20 21 22 23 24 25 26 
27 28 29 30 31 32 33 34 35 
36 37 38 39 40 41 42 43 44 
45 46 47 48 49 50 51 52 53 
54 55 56 57 58 59 60 61 62 
63 64 65 66 67 68 69 70 71 
72 73 74 75 76 77 78 79 80 
81 82 83 84 85 86 87 88 89 
90 91 92 93 94 95 96 97 98 
99 
POINT_DATA 100
FIELD FieldData 3
_theta 1 100 double
0 0.031733259127 0.063466518254 0.095199777382 0.12693303651 0.15866629564 0.19039955476 0.22213281389 0.25386607302 
0.28559933214 0.31733259127 0.3490658504 0.38079910953 0.41253236865 0.44426562778 0.47599888691 0.50773214603 0.53946540516 
0.57119866429 0.60293192342 0.63466518254 0.66639844167 0.6981317008 0.72986495992 0.76159821905 0.79333147818 0.82506473731 
0.85679799643 0.88853125556 0.92026451469 0.95199777382 0.98373103294 1.0154642921 1.0471975512 1.0789308103 1.1106640695 
1.1423973286 1.1741305877 1.2058638468 1.237597106 1.2693303651 1.3010636242 1.3327968833 1.3645301425 1.3962634016 
1.4279966607 1.4597299198 1.491463179 1.5231964381 1.5549296972 1.5866629564 1.6183962155 1.6501294746 1.6818627337 
1.7135959929 1.745329252 1.7770625111 1.8087957702 1.8405290294 1.8722622885 1.9039955476 1.9357288068 1.9674620659 
1.999195325 2.0309285841 2.0626618433 2.0943951024 2.1261283615 2.1578616206 2.1895948798 2.2213281389 2.253061398 
2.2847946572 2.3165279163 2.3482611754 2.3799944345 2.4117276937 2.4434609528 2.4751942119 2.506927471 2.5386607302 
2.5703939893 2.6021272484 2.6338605076 2.6655937667 2.6973270258 2.7290602849 2.7607935441 2.7925268032 2.8242600623 
2.8559933214 2.8877265806 2.9194598397 2.9511930988 2.982926358 3.0146596171 3.0463928762 3.0781261353 3.1098593945 
3.1415926536 
_radius 1 100 double
5.7559369236e-16 0.014536177258 0.028859884596 0.042772801318 0.056109503682 0.068748511891 0.080617802452 0.091694555039 0.10199979114 
0.11158921101 0.12054182843 0.12894792023 0.13689745454 0.14446975792 0.15172497246 0.15869795588 0.16539555474 0.17179826867 
0.17786685389 0.18355330328 0.18881423617 0.19362364549 0.19798171957 0.20191726345 0.20548288198 0.20874405508 0.2117649005 
0.2145941988 0.2172548783 0.21973884221 0.22200738746 0.22399617992 0.2256231833 0.22679804388 0.22743188433 0.22744688371 
0.22678519096 0.22541663013 0.22334446522 0.22060841019 0.21728422881 0.21347965234 0.20932679834 0.20497165753 0.20056154514 
0.1962318408 0.19209388626 0.18822625812 0.18467131234 0.18143775528 0.17850841898 0.17585108743 0.17342964029 0.17121303539 
0.16918049874 0.16732241545 0.16563755296 0.16412814415 0.16279478493 0.16163294217 0.16063209107 0.15977725453 0.15905161001 
0.1584386315 0.15792299133 0.15749043547 0.15712738963 0.1568209963 0.1565598526 0.15633527382 0.15614269601 0.15598281839 
0.15586203554 0.15579149467 0.15578393625 0.1558477168 0.15597825136 0.1561482863 0.15629933554 0.15633678131 0.15613046621 
0.15552140311 0.15433392839 0.15239154457 0.14953402649 0.14563317867 0.14060490826 0.13441591856 0.1270842092 0.11867356687 
0.10928321419 0.099034597354 0.08805775631 0.076479680793 0.064416458689 0.051969983826 0.039228791149 0.026271590415 0.013171598027 
7.2479513881e-16 
_area 1 100 double
0 0.00053852164249 0.00212808215 0.0046943304075 0.0081244182968 0.012280280711 0.017012522789 0.022173314298 0.027627885752 
0.033264291066 0.039000256388 0.04478537635 0.050597674637 0.056435405393 0.0623064107 0.068217245487 0.074163580189 0.080123677252 
0.086057395152 0.091911758438 0.097630789308 0.10316692971 0.10849432583 0.11362043435 0.1185843943 0.12343594499 0.1282047559 
0.13287788064 0.13739576188 0.14166421572 0.14557223297 0.14900612279 0.15185615478 0.15401772767 0.15539184094 0.15588852593 
0.15543398589 0.15397988992 0.15151260857 0.14806167702 0.14370872006 0.13859650245 0.13293278149 0.12698135628 0.12103661943 
0.11538484367 0.11026075788 0.10580902606 0.10205784509 0.098913395767 0.09618899748 0.093665571585 0.091151791795 0.088521905943 
0.085732864824 0.082825625868 0.07991092976 0.077139662119 0.074660968858 0.072576153153 0.070905194099 0.069590031019 0.06853717835 
0.067671251498 0.06695720285 0.066389853194 0.065976926762 0.065706027544 0.065518317651 0.065360201417 0.065194951866 0.065013837002 
0.064839144279 0.064718029086 0.064710452002 0.064874020075 0.065246592131 0.065824327704 0.066541326175 0.067262144536 0.067793051586 
0.067908510577 0.067384367364 0.066030042303 0.06371493472 0.060386481509 0.056078587227 0.050910007463 0.0450731038 0.038814330395 
0.03240884723 0.026132656419 0.020236344771 0.014924506354 0.010343964759 0.0065821567713 0.0036749948486 0.0016217611127 0.00040339872588 
5.9495775523e-17 
