# vtk DataFile Version 5.1
vtk output
ASCII
DATASET POLYDATA
POINTS 100 float
0.129029 0.0464085 0.683374 0.129143 0.0466609 0.682974 0.129533 0.0472903 0.681661 
0.130131 0.0482518 0.679469 0.130834 0.0494765 0.676451 0.131513 0.0508787 0.672676 
0.132031 0.0523647 0.668221 0.132255 0.0538427 0.663166 0.13207 0.0552311 0.657586 
0.131392 0.0564661 0.65155 0.130174 0.0575062 0.645112 0.128405 0.0583342 0.638308 
0.126111 0.0589558 0.631162 0.123344 0.0593956 0.623679 0.120174 0.0596906 0.615853 
0.116673 0.0598831 0.607669 0.112908 0.0600125 0.599109 0.108927 0.0601089 0.590154 
0.104755 0.0601874 0.580791 0.100391 0.0602457 0.571014 0.0958119 0.0602638 0.560831 
0.0909774 0.0602067 0.550257 0.0858395 0.0600298 0.539322 0.0803538 0.0596848 0.528064 
0.0744897 0.0591278 0.516526 0.068239 0.0583261 0.504754 0.0616209 0.057264 0.492796 
0.0546834 0.0559474 0.48069 0.0474995 0.0544046 0.468471 0.0401598 0.0526862 0.45616 
0.0327617 0.0508606 0.443767 0.0253974 0.0490092 0.431289 0.0181415 0.0472192 0.418708 
0.0110415 0.0455766 0.405997 0.00411078 0.044159 0.393115 -0.00267286 0.0430304 0.380013 
-0.00936408 0.0422369 0.366636 -0.0160417 0.0418053 0.352922 -0.0227965 0.0417436 0.338807 
-0.0297163 0.0420433 0.324227 -0.0368707 0.0426834 0.309117 -0.0442968 0.043635 0.293418 
-0.0519887 0.044866 0.277074 -0.0598909 0.0463454 0.260038 -0.0678982 0.0480461 0.242272 
-0.0758609 0.0499465 0.223749 -0.0835959 0.0520301 0.204456 -0.0909013 0.0542839 0.184395 
-0.0975739 0.0566959 0.163582 -0.103427 0.0592516 0.142052 -0.108308 0.0619309 0.119853 
-0.112107 0.0647053 0.097048 -0.114769 0.067537 0.0737126 -0.116294 0.0703787 0.0499314 
-0.116732 0.0731752 0.0257949 -0.116176 0.0758665 0.00139559 -0.114749 0.0783923 -0.0231751 
-0.112588 0.0806961 -0.0478307 -0.109826 0.0827296 -0.0724923 -0.106584 0.0844568 -0.0970904 
-0.102954 0.0858559 -0.121566 -0.0989934 0.08692 -0.145869 -0.0947261 0.0876562 -0.169961 
-0.0901411 0.088082 -0.193809 -0.0852009 0.0882216 -0.217384 -0.0798505 0.0881005 -0.24066 
-0.0740292 0.0877398 -0.263611 -0.0676811 0.0871521 -0.286205 -0.0607656 0.0863374 -0.308409 
-0.0532646 0.0852816 -0.33018 -0.0451869 0.0839569 -0.351472 -0.0365692 0.0823239 -0.372231 
-0.027474 0.0803368 -0.392403 -0.0179848 0.0779484 -0.411926 -0.00819994 0.0751176 -0.430744 
0.00177461 0.0718165 -0.448799 0.0118315 0.0680357 -0.466039 0.0218674 0.0637904 -0.48242 
0.0317867 0.059122 -0.497902 0.0415033 0.0540995 -0.512458 0.0509405 0.0488169 -0.526064 
0.0600298 0.0433887 -0.538711 0.0687089 0.0379436 -0.550394 0.0769201 0.0326164 -0.561118 
0.084609 0.0275391 -0.570894 0.0917247 0.0228328 -0.579741 0.098221 0.0185994 -0.587685 
0.104059 0.014915 -0.594757 0.109211 0.0118261 -0.600994 0.113662 0.00934712 -0.606437 
0.117418 0.00746056 -0.611135 0.1205 0.00612008 -0.615136 0.122954 0.00525502 -0.618495 
0.124838 0.00477689 -0.621265 0.126229 0.00458691 -0.623499 0.127207 0.00458415 -0.625247 
0.127856 0.00467349 -0.626553 0.128249 0.00477305 -0.627454 0.128446 0.00482043 -0.627979 
0.128487 0.0047774 -0.628145 
LINES 2 100
OFFSETS vtktypeint64
0 100 
CONNECTIVITY vtktypeint64
0 1 2 3 4 5 6 7 8 
9 10 11 12 13 14 15 16 17 
18 19 20 21 22 23 24 25 26 
27 28 29 30 31 32 33 34 35 
36 37 38 39 40 41 42 43 44 
45 46 47 48 49 50 51 52 53 
54 55 56 57 58 59 60 61 62 
63 64 65 66 67 68 69 70 71 
72 73 74 75 76 77 78 79 80 
81 82 83 84 85 86 87 88 89 
90 91 92 93 94 95 96 97 98 
99 
POINT_DATA 100
FIELD FieldData 3
_theta 1 100 double
0 0.031733259127 0.063466518254 0.095199777382 0.12693303651 0.15866629564 0.19039955476 0.22213281389 0.25386607302 
0.28559933214 0.31733259127 0.3490658504 0.38079910953 0.41253236865 0.44426562778 0.47599888691 0.50773214603 0.53946540516 
0.57119866429 0.60293192342 0.63466518254 0.66639844167 0.6981317008 0.72986495992 0.76159821905 0.79333147818 0.82506473731 
0.85679799643 0.88853125556 0.92026451469 0.95199777382 0.98373103294 1.0154642921 1.0471975512 1.0789308103 1.1106640695 
1.1423973286 1.1741305877 1.2058638468 1.237597106 1.2693303651 1.3010636242 1.3327968833 1.3645301425 1.3962634016 
1.4279966607 1.4597299198 1.491463179 1.5231964381 1.5549296972 1.5866629564 1.6183962155 1.6501294746 1.6818627337 
1.7135959929 1.745329252 1.7770625111 1.8087957702 1.8405290294 1.8722622885 1.9039955476 1.9357288068 1.9674620659 
1.999195325 2.0309285841 2.0626618433 2.0943951024 2.1261283615 2.1578616206 2.1895948798 2.2213281389 2.253061398 
2.2847946572 2.3165279163 2.3482611754 2.3799944345 2.4117276937 2.4434609528 2.4751942119 2.506927471 2.5386607302 
2.5703939893 2.6021272484 2.6338605076 2.6655937667 2.6973270258 2.7290602849 2.7607935441 2.7925268032 2.8242600623 
2.8559933214 2.8877265806 2.9194598397 2.9511930988 2.982926358 3.0146596171 3.0463928762 3.0781261353 3.1098593945 
3.1415926536 
_radius 1 100 double
8.0134461482e-16 0.014105699634 0.028146926883 0.042054153295 0.055752865852 0.069163418497 0.0822030367 0.094789855781 0.10684838563 
0.11831542903 0.12914532869 0.13931351951 0.1488176976 0.15767640113 0.16592530428 0.17361191129 0.18078950176 0.18751110304 
0.19382404254 0.19976541763 0.20535874011 0.21061207991 0.21551812614 0.22005652732 0.22419855136 0.22791355883 0.23117618686 
0.23397272879 0.23630514556 0.23819153034 0.23966260903 0.2407548249 0.2415014648 0.24192384764 0.24202459272 0.24178437965 
0.24116263192 0.24010162519 0.23853303344 0.23638599409 0.23359617478 0.23011566932 0.22592352602 0.22103624346 0.21551682989 
0.20948033799 0.2030935138 0.1965666109 0.19013664926 0.18404337203 0.17850154176 0.1736753651 0.16966174837 0.1664875996 
0.16412197277 0.16249789228 0.16153447147 0.16115020781 0.16126315981 0.1617807788 0.16258816821 0.1635450345 0.16449689275 
0.16529789051 0.1658366864 0.166056456 0.16596368679 0.16562462386 0.16515123078 0.16468019793 0.16434924145 0.16427493596 
0.16453565677 0.16516185359 0.16613403402 0.16738709219 0.16881864429 0.17029901557 0.17168112006 0.17280922487 0.17352621518 
0.17367937575 0.17312489006 0.17173129076 0.16938205086 0.16597745628 0.16143589771 0.15569476838 0.14871119756 0.14046282863 
0.13094875999 0.12019065164 0.10823389952 0.095148700226 0.081030761179 0.066001355745 0.050206395214 0.033814215179 0.017011879287 
1.4649401097e-15 
_area 1 100 double
0 0.00044201319133 0.0017641840023 0.0039531772807 0.006981777129 0.010803793939 0.015350595182 0.020530807857 0.026233510213 
0.032334290724 0.038703281603 0.04521447743 0.051755790603 0.058238968619 0.064607824622 0.070842770059 0.076959809771 0.083002875574 
0.089029414331 0.095090740048 0.10121107736 0.10737159088 0.11350594408 0.11951073282 0.12526857993 0.13067637194 0.13566813278 
0.14022246886 0.14434996743 0.14806749534 0.15137707962 0.15426373174 0.15677367998 0.1593255191 0.16147119146 0.16291856203 
0.16354907976 0.16327643305 0.16200190148 0.15965448652 0.15624140491 0.15200995922 0.14691461951 0.14081431369 0.1338742242 
0.126384451 0.11871123486 0.11123889236 0.1043004019 0.098114180095 0.092758369257 0.088199974456 0.084351070665 0.081110747131 
0.078377551276 0.076047420696 0.073984672717 0.07210443229 0.07042727431 0.068904556867 0.06757076871 0.066470901501 0.065585452831 
0.064796279773 0.063977915879 0.063002648362 0.061711414008 0.06016624975 0.058515119978 0.056944688162 0.055641798643 0.054762524219 
0.054394654059 0.054525071867 0.055035008938 0.055823779491 0.056820424661 0.05797027391 0.059229314464 0.060507425245 0.061671435905 
0.062562791514 0.063016849223 0.062880040095 0.062022868229 0.060349279257 0.057803745896 0.054376926931 0.050109915067 0.045096388585 
0.039481719832 0.033458358743 0.0272573642 0.021136461172 0.015365353447 0.010209349512 0.0059127041992 0.0026832085888 0.00067924633457 
5.6406256141e-17 
