# vtk DataFile Version 5.1
vtk output
ASCII
DATASET POLYDATA
POINTS 100 float
0.124067 0.0679256 0.734812 0.124073 0.0680993 0.734811 0.124175 0.0684777 0.734684 
0.12433 0.0690552 0.73436 0.124469 0.0698224 0.733729 0.124511 0.0707639 0.732651 
0.124366 0.0718561 0.73097 0.123952 0.0730653 0.728527 0.123201 0.0743465 0.725174 
0.122066 0.0756431 0.720789 0.120527 0.0768885 0.715285 0.118588 0.0780084 0.708618 
0.116273 0.0789255 0.700788 0.113621 0.079564 0.691841 0.110677 0.079856 0.681861 
0.107481 0.0797463 0.670963 0.10406 0.0791979 0.659285 0.100418 0.0781952 0.64697 
0.0965375 0.0767465 0.634158 0.0923761 0.0748832 0.620977 0.0878708 0.0726588 0.607528 
0.0829467 0.0701442 0.593885 0.077526 0.0674238 0.580093 0.07154 0.0645885 0.566162 
0.06494 0.0617305 0.55208 0.0577063 0.0589376 0.537811 0.0498546 0.0562879 0.523311 
0.0414379 0.0538473 0.508526 0.0325443 0.0516674 0.493409 0.0232901 0.0497849 0.477918 
0.0138099 0.048223 0.462024 0.00424443 0.0469936 0.445712 -0.00527293 0.0460994 0.428977 
-0.0146278 0.0455371 0.411821 -0.0237345 0.0452994 0.394249 -0.0325417 0.0453771 0.376263 
-0.0410332 0.0457601 0.357854 -0.0492248 0.0464376 0.339002 -0.0571555 0.0473976 0.319671 
-0.0648768 0.0486266 0.299807 -0.0724384 0.0501081 0.279346 -0.0798754 0.0518223 0.258219 
-0.0871958 0.0537459 0.236356 -0.0943716 0.0558521 0.213698 -0.101335 0.058112 0.190206 
-0.107977 0.0604958 0.165872 -0.114155 0.0629743 0.140718 -0.119706 0.065521 0.114808 
-0.124452 0.0681126 0.0882438 -0.128224 0.0707303 0.0611608 -0.130877 0.0733587 0.0337226 
-0.1323 0.0759848 0.00611 -0.13243 0.0785963 -0.021491 -0.131261 0.0811779 -0.0489022 
-0.128842 0.0837097 -0.0759655 -0.125272 0.0861638 -0.102553 -0.120697 0.0885032 -0.128577 
-0.11529 0.090681 -0.153989 -0.109241 0.0926417 -0.178784 -0.102738 0.0943234 -0.202997 
-0.095954 0.095662 -0.226689 -0.0890326 0.096596 -0.249944 -0.082079 0.0970718 -0.272852 
-0.0751561 0.0970485 -0.2955 -0.0682839 0.0965028 -0.317958 -0.0614444 0.095431 -0.340273 
-0.0545896 0.09385 -0.362462 -0.0476525 0.0917955 -0.38451 -0.0405592 0.0893188 -0.406372 
-0.0332413 0.0864811 -0.427975 -0.0256471 0.0833466 -0.449231 -0.0177498 0.079976 -0.470039 
-0.00955361 0.0764198 -0.4903 -0.00109579 0.0727129 -0.509923 0.00755455 0.0688717 -0.528829 
0.0163005 0.0648935 -0.546963 0.0250242 0.0607585 -0.564287 0.0335945 0.0564343 -0.580786 
0.0418763 0.0518827 -0.596458 0.049739 0.0470675 -0.611313 0.0570647 0.0419622 -0.625369 
0.0637542 0.0365577 -0.638637 0.0697317 0.0308676 -0.651125 0.0749478 0.0249313 -0.662832 
0.0793801 0.018814 -0.673745 0.0830325 0.0126043 -0.683841 0.0859327 0.00640797 -0.693093 
0.0881296 0.000340703 -0.701472 0.0896891 -0.00548084 -0.708954 0.0906901 -0.010948 -0.715529 
0.0912203 -0.0159679 -0.721201 0.0913721 -0.02047 -0.725994 0.091239 -0.0244088 -0.729952 
0.090912 -0.0277649 -0.733139 0.0904765 -0.0305421 -0.735631 0.0900095 -0.0327621 -0.737515 
0.0895775 -0.0344581 -0.738874 0.0892341 -0.0356665 -0.739786 0.0890188 -0.0364194 -0.740312 
0.0889555 -0.0367384 -0.74049 
LINES 2 100
OFFSETS vtktypeint64
0 100 
CONNECTIVITY vtktypeint64
0 1 2 3 4 5 6 7 8 
9 10 11 12 13 14 15 16 17 
18 19 20 21 22 23 24 25 26 
27 28 29 30 31 32 33 34 35 
36 37 38 39 40 41 42 43 44 
45 46 47 48 49 50 51 52 53 
54 55 56 57 58 59 60 61 62 
63 64 65 66 67 68 69 70 71 
72 73 74 75 76 77 78 79 80 
81 82 83 84 85 86 87 88 89 
90 91 92 93 94 95 96 97 98 
99 
POINT_DATA 100
FIELD FieldData 3
_theta 1 100 double
0 0.031733259127 0.063466518254 0.095199777382 0.12693303651 0.15866629564 0.19039955476 0.22213281389 0.25386607302 
0.28559933214 0.31733259127 0.3490658504 0.38079910953 0.41253236865 0.44426562778 0.47599888691 0.50773214603 0.53946540516 
0.57119866429 0.60293192342 0.63466518254 0.66639844167 0.6981317008 0.72986495992 0.76159821905 0.79333147818 0.82506473731 
0.85679799643 0.88853125556 0.92026451469 0.95199777382 0.98373103294 1.0154642921 1.0471975512 1.0789308103 1.1106640695 
1.1423973286 1.1741305877 1.2058638468 1.237597106 1.2693303651 1.3010636242 1.3327968833 1.3645301425 1.3962634016 
1.4279966607 1.4597299198 1.491463179 1.5231964381 1.5549296972 1.5866629564 1.6183962155 1.6501294746 1.6818627337 
1.7135959929 1.745329252 1.7770625111 1.8087957702 1.8405290294 1.8722622885 1.9039955476 1.9357288068 1.9674620659 
1.999195325 2.0309285841 2.0626618433 2.0943951024 2.1261283615 2.1578616206 2.1895948798 2.2213281389 2.253061398 
2.2847946572 2.3165279163 2.3482611754 2.3799944345 2.4117276937 2.4434609528 2.4751942119 2.506927471 2.5386607302 
2.5703939893 2.6021272484 2.6338605076 2.6655937667 2.6973270258 2.7290602849 2.7607935441 2.7925268032 2.8242600623 
2.8559933214 2.8877265806 2.9194598397 2.9511930988 2.982926358 3.0146596171 3.0463928762 3.0781261353 3.1098593945 
3.1415926536 
_radius 1 100 double
8.0071348089e-16 0.015570556263 0.031010541091 0.046191905408 0.060997484473 0.075324451862 0.089085710306 0.10220935124 0.11463675954 
0.12632027978 0.13722152779 0.14731130285 0.1565714964 0.16499846136 0.1726063915 0.17942887862 0.18551727752 0.19093578379 
0.19575469146 0.20004410777 0.20386978861 0.20729135008 0.21036208603 0.21312937844 0.21563490911 0.21791423301 0.2199956274 
0.22189842715 0.22363124791 0.22519056952 0.22656011675 0.22771133108 0.228604987 0.22919375475 0.22942537656 0.22924617453 
0.22860479562 0.22745629127 0.22576670091 0.22351819745 0.22071458606 0.21738660691 0.21359618027 0.20943853486 0.2050411606 
0.20055880649 0.19616435158 0.1920362424 0.18834407007 0.18523441362 0.18281908023 0.18116734482 0.18030287064 0.18020481412 
0.18081150157 0.18202472202 0.18371371783 0.18571988497 0.18786437211 0.18995999313 0.1918267821 0.19330876837 0.19428906244 
0.19470092915 0.19453343829 0.19383089331 0.19268566959 0.19122500095 0.1895936391 0.18793537213 0.18637654703 0.18501402739 
0.1839087105 0.18308417402 0.18252870748 0.18219843333 0.1820196965 0.18189019043 0.18167977668 0.18123291318 0.18037453647 
0.17892015316 0.17668932694 0.17352047647 0.16928445295 0.16389474302 0.15731297429 0.14954930054 0.14065800571 0.13072924697 
0.1198782733 0.10823370475 0.095926502651 0.083081052872 0.069809310432 0.056208287847 0.042360475635 0.028336273263 0.014197342577 
7.7089454612e-16 
_area 1 100 double
0 0.00053896581008 0.0021347844229 0.0047291022954 0.0082392079018 0.012574227645 0.017648103012 0.023383572504 0.029704803492 
0.036520360671 0.043701588674 0.051066939903 0.058387177209 0.065417238797 0.07194368304 0.077830858909 0.083053041706 0.087704500667 
0.091979421 0.096103691087 0.1002351648 0.10444123528 0.10874605018 0.11315448937 0.11765581663 0.12222209745 0.12680220084 
0.13131670707 0.13566130637 0.13971850272 0.14337122598 0.14651370583 0.14905857263 0.15093986652 0.15211106902 0.1525381833 
0.15219059981 0.15103512667 0.14903872555 0.14618208869 0.14248075692 0.13800622293 0.13289851463 0.12736379305 0.12165422889 
0.11603253034 0.11073004405 0.10591252142 0.10166614634 0.098008002577 0.094915446695 0.092361355681 0.090339661574 0.088872356856 
0.088004564017 0.087806638125 0.088339595794 0.089434188753 0.090728487018 0.09189136432 0.09264000957 0.09275188687 0.092093282675 
0.090635538148 0.088457189373 0.085738588965 0.082741131923 0.079745783954 0.076957125484 0.074480488674 0.072385679031 0.070730207125 
0.069388277805 0.068298667662 0.067456107838 0.066936365583 0.066863252994 0.067246657664 0.068080929959 0.069271653002 0.070591631969 
0.071708153877 0.072252104459 0.071890975974 0.070384454591 0.067616271382 0.063602258392 0.05847776215 0.05246997444 0.045862146593 
0.038956949982 0.032045497257 0.02538670728 0.019198759832 0.01366076568 0.0089197235636 0.0050970794163 0.0022913682828 0.00057681923984 
6.6800403045e-17 
