# vtk DataFile Version 5.1
vtk output
ASCII
DATASET POLYDATA
POINTS 100 float
0.135073 0.0823127 0.808025 0.135119 0.0824397 0.807886 0.135273 0.0826443 0.807281 
0.135515 0.0829108 0.806179 0.135813 0.0832155 0.804539 0.136125 0.0835306 0.802304 
0.136399 0.0838265 0.799411 0.136577 0.0840756 0.795797 0.136598 0.0842546 0.791402 
0.136398 0.0843461 0.786177 0.135918 0.0843389 0.780085 0.135103 0.0842271 0.77311 
0.133909 0.0840076 0.765254 0.132302 0.0836777 0.756542 0.130262 0.0832322 0.747017 
0.127781 0.0826608 0.736741 0.124865 0.0819466 0.72579 0.121529 0.0810664 0.714248 
0.117794 0.0799924 0.702203 0.113686 0.0786947 0.689742 0.10923 0.0771463 0.676944 
0.104448 0.0753274 0.663877 0.0993574 0.0732306 0.650593 0.0939687 0.0708641 0.637128 
0.0882882 0.0682545 0.623498 0.0823196 0.0654467 0.609704 0.0760682 0.0625018 0.595733 
0.0695442 0.0594927 0.58156 0.0627678 0.0564982 0.567154 0.0557713 0.0535958 0.552485 
0.048601 0.0508541 0.537523 0.0413161 0.0483271 0.52225 0.0339854 0.0460487 0.506657 
0.0266813 0.0440313 0.490746 0.0194723 0.0422658 0.474534 0.0124137 0.0407253 0.458047 
0.00553936 0.0393714 0.441315 -0.00114602 0.0381613 0.42437 -0.00767143 0.0370568 0.407239 
-0.0141006 0.0360319 0.389935 -0.0205283 0.0350794 0.372452 -0.0270727 0.0342145 0.354761 
-0.0338621 0.0334757 0.336806 -0.0410204 0.032922 0.318502 -0.0486488 0.0326269 0.299741 
-0.0568092 0.0326703 0.280394 -0.0655092 0.0331287 0.260323 -0.0746918 0.0340647 0.239387 
-0.0842304 0.035519 0.217457 -0.0939314 0.0375031 0.194429 -0.103544 0.0399961 0.170234 
-0.112778 0.0429452 0.144849 -0.121325 0.0462695 0.118303 -0.128882 0.0498671 0.0906783 
-0.135186 0.0536247 0.0621126 -0.140031 0.0574278 0.0327895 -0.14329 0.0611708 0.00292849 
-0.144934 0.0647655 -0.027229 -0.145028 0.0681468 -0.0574366 -0.143733 0.0712745 -0.0874602 
-0.141288 0.0741321 -0.117095 -0.13799 0.0767219 -0.146181 -0.134163 0.0790574 -0.17461 
-0.130128 0.0811541 -0.202337 -0.126172 0.083021 -0.229375 -0.122519 0.0846524 -0.255794 
-0.119308 0.0860229 -0.281704 -0.116581 0.0870859 -0.307245 -0.114282 0.0877751 -0.332567 
-0.112257 0.0880107 -0.357809 -0.110279 0.087708 -0.383083 -0.108067 0.0867875 -0.408456 
-0.105316 0.0851864 -0.433941 -0.101733 0.0828681 -0.459488 -0.0970598 0.07983 -0.484986 
-0.0911063 0.0761068 -0.510269 -0.0837662 0.0717707 -0.53513 -0.0750295 0.0669262 -0.559331 
-0.0649845 0.0617021 -0.582631 -0.053811 0.05624 -0.604796 -0.0417654 0.0506819 -0.625623 
-0.0291595 0.0451574 -0.644954 -0.0163368 0.0397736 -0.662687 -0.00364567 0.0346074 -0.678778 
0.00858468 0.0297019 -0.693246 0.0200655 0.0250676 -0.70616 0.0305644 0.0206875 -0.717632 
0.039916 0.0165259 -0.727804 0.0480253 0.0125394 -0.736826 0.0548656 0.00868811 -0.744846 
0.0604718 0.0049468 -0.751995 0.0649294 0.00131265 -0.758372 0.0683612 -0.00218982 -0.764046 
0.0709132 -0.00550841 -0.769047 0.0727408 -0.00856703 -0.773372 0.0739963 -0.0112733 -0.776994 
0.0748178 -0.0135287 -0.779869 0.0753208 -0.0152404 -0.781947 0.0755917 -0.016332 -0.783187 
0.0756834 -0.0167531 -0.78356 
LINES 2 100
OFFSETS vtktypeint64
0 100 
CONNECTIVITY vtktypeint64
0 1 2 3 4 5 6 7 8 
9 10 11 12 13 14 15 16 17 
18 19 20 21 22 23 24 25 26 
27 28 29 30 31 32 33 34 35 
36 37 38 39 40 41 42 43 44 
45 46 47 48 49 50 51 52 53 
54 55 56 57 58 59 60 61 62 
63 64 65 66 67 68 69 70 71 
72 73 74 75 76 77 78 79 80 
81 82 83 84 85 86 87 88 89 
90 91 92 93 94 95 96 97 98 
99 
POINT_DATA 100
FIELD FieldData 3
_theta 1 100 double
0 0.031733259127 0.063466518254 0.095199777382 0.12693303651 0.15866629564 0.19039955476 0.22213281389 0.25386607302 
0.28559933214 0.31733259127 0.3490658504 0.38079910953 0.41253236865 0.44426562778 0.47599888691 0.50773214603 0.53946540516 
0.57119866429 0.60293192342 0.63466518254 0.66639844167 0.6981317008 0.72986495992 0.76159821905 0.79333147818 0.82506473731 
0.85679799643 0.88853125556 0.92026451469 0.95199777382 0.98373103294 1.0154642921 1.0471975512 1.0789308103 1.1106640695 
1.1423973286 1.1741305877 1.2058638468 1.237597106 1.2693303651 1.3010636242 1.3327968833 1.3645301425 1.3962634016 
1.4279966607 1.4597299198 1.491463179 1.5231964381 1.5549296972 1.5866629564 1.6183962155 1.6501294746 1.6818627337 
1.7135959929 1.745329252 1.7770625111 1.8087957702 1.8405290294 1.8722622885 1.9039955476 1.9357288068 1.9674620659 
1.999195325 2.0309285841 2.0626618433 2.0943951024 2.1261283615 2.1578616206 2.1895948798 2.2213281389 2.253061398 
2.2847946572 2.3165279163 2.3482611754 2.3799944345 2.4117276937 2.4434609528 2.4751942119 2.506927471 2.5386607302 
2.5703939893 2.6021272484 2.6338605076 2.6655937667 2.6973270258 2.7290602849 2.7607935441 2.7925268032 2.8242600623 
2.8559933214 2.8877265806 2.9194598397 2.9511930988 2.982926358 3.0146596171 3.0463928762 3.0781261353 3.1098593945 
3.1415926536 
_radius 1 100 double
1.484404409e-15 0.014576997031 0.029037676085 0.043266642745 0.057156063869 0.070609680466 0.083546622836 0.095904540704 0.10764144975 
0.11873576742 0.12918429173 0.13899832654 0.14819866018 0.15681047803 0.16485932675 0.17236884907 0.17936031311 0.18585331631 
0.19186675884 0.19741930635 0.20252893817 0.20721162652 0.21147961357 0.21534006491 0.21879496262 0.22184283287 0.2244822852 
0.22671656928 0.22855776846 0.23002913686 0.23116453617 0.2320047754 0.23259158044 0.23296059031 0.23313500097 0.23312124858 
0.23290757254 0.2324655882 0.23175428327 0.23072528598 0.22932800293 0.22751347535 0.22523670665 0.22245858228 0.21914942346 
0.21529564125 0.21090908087 0.20603691053 0.20076929837 0.1952423959 0.18963470594 0.18415566007 0.17902657878 0.17445641331 
0.1706170699 0.16762401563 0.16552609931 0.16430494802 0.16388112054 0.16412305519 0.16485605868 0.16587133261 0.16693743623 
0.1678165298 0.16828513902 0.16815650501 0.16730089444 0.16566103877 0.16326070975 0.1602048761 0.15667049367 0.15288841007 
0.14911876031 0.14562338365 0.14263910927 0.14035580009 0.13890186315 0.13833700871 0.13864936659 0.13975398051 0.1414921995 
0.14363434336 0.14588888408 0.14791967569 0.14936986533 0.1498889478 0.14915892485 0.14691634079 0.14296819224 0.13720075986 
0.12958122333 0.12015265563 0.10902369133 0.09635471896 0.082342720349 0.067206805059 0.051176095567 0.034481018509 0.017348383939 
4.4807870783e-16 
_area 1 100 double
0 0.00059901224545 0.0023686545902 0.0052298624243 0.0090608930638 0.013711073907 0.019017395357 0.024821364129 0.030983292136 
0.037391641043 0.043966119717 0.050654584546 0.057425029495 0.06425485976 0.071120158932 0.077987698807 0.084811755253 0.091536164772 
0.098099840513 0.10444236369 0.11050665251 0.11623828247 0.12158406594 0.12649352909 0.13092522141 0.13485712775 0.13829861004 
0.14129999184 0.14395478451 0.14639075708 0.148750109 0.15115883294 0.15367925427 0.15625715843 0.1587106011 0.16077556572 
0.16216950522 0.16264317182 0.1620156249 0.16019470598 0.1571849399 0.15309046223 0.148136626 0.14257566942 0.13661959152 
0.13080913142 0.12535056043 0.12005082665 0.11460466438 0.10902435938 0.10342952061 0.097974726995 0.092818179002 0.088093710475 
0.083886239816 0.08022165386 0.077081715505 0.074437002868 0.072270333239 0.070569052667 0.069291677476 0.068336198614 0.067539738685 
0.066715941864 0.065709310002 0.064440283762 0.062925175546 0.061237338455 0.059405132355 0.057258114791 0.054819159465 0.052236232593 
0.049740516519 0.047505236384 0.04562008851 0.044163622977 0.043205599704 0.042799424122 0.042969928901 0.043698996525 0.04491312226 
0.046474646904 0.048181243746 0.049778505693 0.050986419959 0.051535392767 0.05120239718 0.049837009005 0.047373255634 0.043831121279 
0.039314411271 0.034008167509 0.028172963617 0.022130600107 0.016238474167 0.010855863695 0.0063098403719 0.0028686643062 0.00072674150306 
1.6283307194e-17 
