# vtk DataFile Version 5.1
vtk output
ASCII
DATASET POLYDATA
POINTS 100 float
0.184029 0.053319 0.775862 0.184015 0.0535598 0.775761 0.184076 0.0541233 0.775294 
0.18417 0.054997 0.774443 0.184228 0.0561593 0.773182 0.184166 0.0575784 0.771476 
0.183883 0.0592118 0.769274 0.183276 0.0610055 0.766515 0.182242 0.0628944 0.763131 
0.180692 0.0648036 0.759043 0.178549 0.0666515 0.754177 0.175758 0.0683532 0.748462 
0.172282 0.0698254 0.741844 0.168109 0.0709916 0.734289 0.163243 0.0717875 0.725793 
0.157707 0.0721656 0.716383 0.151535 0.072099 0.706119 0.144769 0.0715833 0.695093 
0.137457 0.0706371 0.683417 0.129648 0.0693005 0.671218 0.12139 0.0676317 0.658622 
0.112734 0.0657023 0.645744 0.103725 0.0635921 0.632674 0.0944124 0.0613827 0.619464 
0.084846 0.0591525 0.60613 0.0750782 0.0569717 0.592643 0.0651649 0.0548992 0.578934 
0.0551648 0.0529806 0.564909 0.0451383 0.051248 0.550451 0.0351452 0.0497211 0.535443 
0.0252416 0.0484091 0.51978 0.0154762 0.0473139 0.503383 0.00588712 0.0464327 0.486206 
-0.00350082 0.0457604 0.468245 -0.0126778 0.0452913 0.449535 -0.0216489 0.0450203 0.430143 
-0.0304322 0.0449428 0.41016 -0.0390547 0.0450535 0.389682 -0.0475475 0.045346 0.368798 
-0.0559386 0.0458108 0.347573 -0.064246 0.046435 0.326038 -0.0724709 0.0472016 0.304182 
-0.080592 0.0480909 0.281955 -0.0885612 0.0490819 0.259268 -0.0963026 0.0501551 0.236012 
-0.103714 0.0512957 0.212071 -0.11067 0.0524967 0.187339 -0.117034 0.0537616 0.161746 
-0.122658 0.0551062 0.135265 -0.127406 0.0565587 0.107931 -0.131154 0.0581576 0.0798375 
-0.133807 0.0599487 0.051141 -0.135307 0.0619793 0.0220445 -0.135637 0.0642921 -0.00721719 
-0.134827 0.0669181 -0.0363992 -0.132949 0.0698699 -0.0652694 -0.130119 0.0731359 -0.0936304 
-0.126481 0.0766765 -0.121337 -0.122203 0.0804229 -0.148306 -0.117459 0.0842788 -0.174524 
-0.112423 0.0881242 -0.200038 -0.107246 0.0918224 -0.224947 -0.102054 0.0952288 -0.249382 
-0.0969344 0.0982005 -0.273485 -0.0919332 0.100606 -0.297387 -0.0870516 0.102335 -0.321188 
-0.0822497 0.103303 -0.344941 -0.0774524 0.103459 -0.368648 -0.0725583 0.102786 -0.39225 
-0.0674512 0.101297 -0.415645 -0.0620123 0.0990356 -0.438694 -0.056133 0.0960671 -0.461241 
-0.0497263 0.0924714 -0.483135 -0.0427365 0.088336 -0.504244 -0.0351461 0.0837484 -0.524476 
-0.0269797 0.0787904 -0.543782 -0.0183042 0.0735345 -0.562161 -0.00922608 0.068042 -0.579656 
0.000114636 0.0623635 -0.596338 0.00955259 0.0565411 -0.612291 0.0189071 0.0506121 -0.627594 
0.0279932 0.0446132 -0.642304 0.0366322 0.0385842 -0.656436 0.0446621 0.0325708 -0.669959 
0.0519466 0.0266264 -0.682794 0.0583815 0.0208119 -0.694819 0.0638996 0.0151934 -0.705885 
0.0684727 0.00983936 -0.715834 0.0721112 0.00481551 -0.724522 0.0748619 0.000180745 -0.73184 
0.0768031 -0.00401741 -0.737736 0.0780386 -0.00774602 -0.742228 0.0786907 -0.0109884 -0.745404 
0.0788919 -0.0137437 -0.747424 0.0787775 -0.0160253 -0.748504 0.0784769 -0.0178566 -0.748893 
0.0781071 -0.0192662 -0.748851 0.077766 -0.020283 -0.748618 0.0775273 -0.0209306 -0.748387 
0.0774368 -0.0212231 -0.748285 
LINES 2 100
OFFSETS vtktypeint64
0 100 
CONNECTIVITY vtktypeint64
0 1 2 3 4 5 6 7 8 
9 10 11 12 13 14 15 16 17 
18 19 20 21 22 23 24 25 26 
27 28 29 30 31 32 33 34 35 
36 37 38 39 40 41 42 43 44 
45 46 47 48 49 50 51 52 53 
54 55 56 57 58 59 60 61 62 
63 64 65 66 67 68 69 70 71 
72 73 74 75 76 77 78 79 80 
81 82 83 84 85 86 87 88 89 
90 91 92 93 94 95 96 97 98 
99 
POINT_DATA 100
FIELD FieldData 3
_theta 1 100 double
0 0.031733259127 0.063466518254 0.095199777382 0.12693303651 0.15866629564 0.19039955476 0.22213281389 0.25386607302 
0.28559933214 0.31733259127 0.3490658504 0.38079910953 0.41253236865 0.44426562778 0.47599888691 0.50773214603 0.53946540516 
0.57119866429 0.60293192342 0.63466518254 0.66639844167 0.6981317008 0.72986495992 0.76159821905 0.79333147818 0.82506473731 
0.85679799643 0.88853125556 0.92026451469 0.95199777382 0.98373103294 1.0154642921 1.0471975512 1.0789308103 1.1106640695 
1.1423973286 1.1741305877 1.2058638468 1.237597106 1.2693303651 1.3010636242 1.3327968833 1.3645301425 1.3962634016 
1.4279966607 1.4597299198 1.491463179 1.5231964381 1.5549296972 1.5866629564 1.6183962155 1.6501294746 1.6818627337 
1.7135959929 1.745329252 1.7770625111 1.8087957702 1.8405290294 1.8722622885 1.9039955476 1.9357288068 1.9674620659 
1.999195325 2.0309285841 2.0626618433 2.0943951024 2.1261283615 2.1578616206 2.1895948798 2.2213281389 2.253061398 
2.2847946572 2.3165279163 2.3482611754 2.3799944345 2.4117276937 2.4434609528 2.4751942119 2.506927471 2.5386607302 
2.5703939893 2.6021272484 2.6338605076 2.6655937667 2.6973270258 2.7290602849 2.7607935441 2.7925268032 2.8242600623 
2.8559933214 2.8877265806 2.9194598397 2.9511930988 2.982926358 3.0146596171 3.0463928762 3.0781261353 3.1098593945 
3.1415926536 
_radius 1 100 double
8.0613703022e-16 0.017450281352 0.034714416592 0.051612230022 0.067983131874 0.083693690836 0.098642579158 0.11276253566 0.12601931459 
0.13840788711 0.14994643831 0.16066896946 0.1706175663 0.17983554725 0.18836256097 0.19623207002 0.20347067639 0.21009803392 
0.21612629647 0.22155912173 0.2263913459 0.23061068986 0.23420217143 0.23715485857 0.23946971223 0.2411667036 0.24228923533 
0.24290427179 0.24309751502 0.24296424313 0.2425976325 0.24207703037 0.24145842991 0.240768447 0.2400019685 0.23912299687 
0.23806832332 0.23675418539 0.23508633287 0.23297348235 0.2303430874 0.2271572159 0.22342563289 0.21921318102 0.21463923403 
0.20986831904 0.20509291747 0.20051171076 0.19630834728 0.19263597217 0.18961058221 0.18731239018 0.18579066062 0.18506605589 
0.18512664655 0.18591857848 0.18733700735 0.18922406021 0.1913775308 0.19356928633 0.19556905944 0.19716854815 0.19820187106 
0.19856018649 0.19819972543 0.19714327045 0.19547534962 0.1933313711 0.19088099471 0.18830693954 0.18578263074 0.18345401288 
0.18142937339 0.17977666145 0.17852506698 0.17766804448 0.17716628283 0.17694993422 0.17691999287 0.17694944353 0.17688548617 
0.17655426465 0.17576879624 0.17433952626 0.17208583249 0.16884643671 0.16448711665 0.15890503398 0.15202996711 0.14382340998 
0.13427670946 0.1234092254 0.11126710883 0.097922884732 0.083475666664 0.068051526433 0.051803321247 0.034909215196 0.017569287982 
9.8998372934e-16 
_area 1 100 double
0 0.00070323580733 0.0027875843845 0.0061766310899 0.010743484865 0.016315782885 0.022687908357 0.029640502367 0.036964220129 
0.044482401713 0.052066408254 0.059637571185 0.067151074195 0.074563582834 0.081803360541 0.08877077826 0.095370684852 0.10154932248 
0.10731515297 0.11273916702 0.11793220853 0.12299478164 0.12795335472 0.13273606008 0.13721468482 0.14126697957 0.14481871033 
0.1478578832 0.1504251219 0.15258926291 0.15441990829 0.15596701379 0.15725221927 0.1582702797 0.1589954991 0.1593886066 
0.159400881 0.15897343778 0.15803320838 0.15649193603 0.15425464558 0.15123792138 0.14739226945 0.14272281811 0.13730471264 
0.13128871487 0.12489469043 0.11839896033 0.11217921505 0.10705898514 0.10312770473 0.099831031269 0.097048599042 0.094778064138 
0.093098648479 0.092132428775 0.091947295324 0.092388901296 0.093059393038 0.093467426542 0.09332254841 0.092321770349 0.090332210301 
0.087365645095 0.083554247743 0.07915034205 0.074503733821 0.070006787647 0.066022456248 0.062810775553 0.060596722907 0.059327513498 
0.058648263103 0.058449544201 0.058658732493 0.059324279241 0.060522226017 0.062117894235 0.063947958204 0.065878950843 0.06776678749 
0.069433306471 0.070663217281 0.071220524042 0.07088050921 0.069467906443 0.066888806791 0.063145826518 0.058332749696 0.05261338894 
0.046195516366 0.039311088309 0.032208343245 0.025153156338 0.018431714187 0.012346864241 0.0072043188555 0.0032890766989 0.0008358698305 
2.2292997999e-17 
