# vtk DataFile Version 5.1
vtk output
ASCII
DATASET POLYDATA
POINTS 100 float
0.109793 0.0688709 0.743708 0.109967 0.0691574 0.74353 0.110582 0.0698538 0.742823 
0.111557 0.0709163 0.741563 0.112764 0.0722772 0.739708 0.114038 0.0738507 0.737206 
0.115204 0.0755394 0.733992 0.116083 0.0772416 0.729991 0.116518 0.0788589 0.725127 
0.116386 0.0803028 0.719325 0.115602 0.0814997 0.712519 0.114133 0.0823946 0.70466 
0.111988 0.0829526 0.695725 0.109215 0.0831589 0.685723 0.105891 0.0830166 0.674695 
0.102104 0.0825436 0.662725 0.0979445 0.0817689 0.649929 0.0934869 0.0807279 0.636452 
0.0887831 0.0794589 0.622462 0.0838552 0.0779996 0.608132 0.0786944 0.0763849 0.593629 
0.0732654 0.0746455 0.5791 0.0675143 0.0728079 0.564657 0.0613795 0.070895 0.550368 
0.0548049 0.0689272 0.536252 0.047751 0.0669239 0.522276 0.0402057 0.0649052 0.508362 
0.0321896 0.0628923 0.494399 0.0237579 0.0609085 0.480252 0.014997 0.0589788 0.465781 
0.00601666 0.0571289 0.450859 -0.00306154 0.0553844 0.435387 -0.0121173 0.053769 0.419302 
-0.0210452 0.0523032 0.402586 -0.0297663 0.0510031 0.385268 -0.0382366 0.0498802 0.367415 
-0.0464502 0.0489413 0.34912 -0.0544378 0.0481891 0.33049 -0.0622592 0.0476236 0.311626 
-0.0699914 0.047244 0.292606 -0.0777133 0.0470501 0.273473 -0.0854891 0.047044 0.254219 
-0.0933523 0.0472314 0.234792 -0.101292 0.0476215 0.215088 -0.109244 0.0482268 0.19497 
-0.117089 0.0490615 0.174282 -0.124656 0.0501397 0.152866 -0.131729 0.0514729 0.130587 
-0.138068 0.0530667 0.107352 -0.143425 0.0549188 0.0831237 -0.147565 0.0570168 0.0579365 
-0.15029 0.0593369 0.0318942 -0.151454 0.0618441 0.00516654 -0.150981 0.0644929 -0.0220231 
-0.148869 0.0672296 -0.0494175 -0.145189 0.069995 -0.0767482 -0.140084 0.0727284 -0.10376 
-0.133753 0.0753709 -0.130233 -0.12643 0.0778687 -0.156004 -0.118368 0.0801764 -0.180974 
-0.109813 0.0822584 -0.205119 -0.100987 0.0840896 -0.228479 -0.09207 0.085655 -0.251154 
-0.0831867 0.0869479 -0.273283 -0.0744052 0.087967 -0.295021 -0.0657367 0.0887139 -0.31652 
-0.0571442 0.0891891 -0.337906 -0.0485556 0.0893894 -0.359262 -0.0398809 0.0893052 -0.380616 
-0.0310302 0.0889198 -0.401938 -0.0219316 0.0882084 -0.423142 -0.0125465 0.0871401 -0.444094 
-0.00288011 0.0856795 -0.46463 0.00701314 0.0837902 -0.484574 0.0170299 0.0814386 -0.503752 
0.0270244 0.078598 -0.522016 0.0368199 0.0752521 -0.539255 0.0462234 0.0713986 -0.555402 
0.0550428 0.0670514 -0.570443 0.0631041 0.0622412 -0.584408 0.0702661 0.0570162 -0.597368 
0.0764329 0.0514401 -0.609422 0.0815612 0.0455898 -0.620682 0.0856622 0.0395523 -0.631261 
0.0887991 0.0334205 -0.641257 0.0910789 0.0272895 -0.650749 0.0926408 0.0212526 -0.659786 
0.0936425 0.0153974 -0.668385 0.094245 0.00980342 -0.676538 0.0945987 0.00453996 -0.684212 
0.0948317 -0.000335312 -0.691356 0.0950409 -0.00477645 -0.697913 0.0952878 -0.00874881 -0.703825 
0.0955986 -0.0122279 -0.709039 0.0959679 -0.0151978 -0.713509 0.0963658 -0.0176493 -0.717204 
0.0967481 -0.0195776 -0.720101 0.0970659 -0.020981 -0.722185 0.097276 -0.0218588 -0.723449 
0.097349 -0.0222104 -0.723888 
LINES 2 100
OFFSETS vtktypeint64
0 100 
CONNECTIVITY vtktypeint64
0 1 2 3 4 5 6 7 8 
9 10 11 12 13 14 15 16 17 
18 19 20 21 22 23 24 25 26 
27 28 29 30 31 32 33 34 35 
36 37 38 39 40 41 42 43 44 
45 46 47 48 49 50 51 52 53 
54 55 56 57 58 59 60 61 62 
63 64 65 66 67 68 69 70 71 
72 73 74 75 76 77 78 79 80 
81 82 83 84 85 86 87 88 89 
90 91 92 93 94 95 96 97 98 
99 
POINT_DATA 100
FIELD FieldData 3
_theta 1 100 double
0 0.031733259127 0.063466518254 0.095199777382 0.12693303651 0.15866629564 0.19039955476 0.22213281389 0.25386607302 
0.28559933214 0.31733259127 0.3490658504 0.38079910953 0.41253236865 0.44426562778 0.47599888691 0.50773214603 0.53946540516 
0.57119866429 0.60293192342 0.63466518254 0.66639844167 0.6981317008 0.72986495992 0.76159821905 0.79333147818 0.82506473731 
0.85679799643 0.88853125556 0.92026451469 0.95199777382 0.98373103294 1.0154642921 1.0471975512 1.0789308103 1.1106640695 
1.1423973286 1.1741305877 1.2058638468 1.237597106 1.2693303651 1.3010636242 1.3327968833 1.3645301425 1.3962634016 
1.4279966607 1.4597299198 1.491463179 1.5231964381 1.5549296972 1.5866629564 1.6183962155 1.6501294746 1.6818627337 
1.7135959929 1.745329252 1.7770625111 1.8087957702 1.8405290294 1.8722622885 1.9039955476 1.9357288068 1.9674620659 
1.999195325 2.0309285841 2.0626618433 2.0943951024 2.1261283615 2.1578616206 2.1895948798 2.2213281389 2.253061398 
2.2847946572 2.3165279163 2.3482611754 2.3799944345 2.4117276937 2.4434609528 2.4751942119 2.506927471 2.5386607302 
2.5703939893 2.6021272484 2.6338605076 2.6655937667 2.6973270258 2.7290602849 2.7607935441 2.7925268032 2.8242600623 
2.8559933214 2.8877265806 2.9194598397 2.9511930988 2.982926358 3.0146596171 3.0463928762 3.0781261353 3.1098593945 
3.1415926536 
_radius 1 100 double
9.0120178514e-16 0.016664881904 0.033055218902 0.048910421905 0.064006719288 0.078170755037 0.091287985449 0.10330559772 0.11423047157 
0.12412316896 0.13308895353 0.14126653738 0.14881494329 0.15589886616 0.1626733119 0.16926888408 0.17577951604 0.18225442197 
0.18869552477 0.19506077862 0.20127288522 0.20723211472 0.21283142045 0.21797181514 0.22257601878 0.22659863746 0.2300315609 
0.23290387335 0.23527633454 0.23723130822 0.23885971173 0.24024693352 0.24145962308 0.24253488849 0.24347296198 0.24423402411 
0.2447396697 0.24487934016 0.24452174535 0.24353073875 0.24178434703 0.23919488622 0.23572754382 0.23141461099 0.22636276969 
0.22075149904 0.21482180661 0.20885611726 0.20315203344 0.19799415307 0.19362837528 0.19024198688 0.18795110528 0.18679554502 
0.18673993278 0.18767907702 0.18944606406 0.19182343853 0.19455922316 0.19738844043 0.20005805448 0.20235144447 0.20410863373 
0.20523958407 0.20572899596 0.20563209228 0.20506193161 0.20416988316 0.20312185494 0.20207352813 0.20114808606 0.20041962791 
0.1999045225 0.19956144171 0.19929909591 0.19898933975 0.1984827258 0.19762381041 0.19626432823 0.19427337396 0.19154456895 
0.18800057757 0.18359525555 0.17831339863 0.17216784543 0.16519379713 0.15744066983 0.14896244985 0.13980813945 0.13001419594 
0.11960068111 0.10857213926 0.096923215207 0.084648012976 0.071751421477 0.058260205218 0.044231605427 0.029757537399 0.014963204484 
9.7755783087e-16 
_area 1 100 double
0 0.00061218860265 0.0024124716971 0.0052988737349 0.0091219264593 0.013707990888 0.018880304089 0.024472413245 0.03033313815 
0.036326657106 0.042333019777 0.04825252036 0.054013656099 0.059581399753 0.064961506835 0.070197416601 0.07535845848 0.080521025992 
0.085747551362 0.09107075184 0.096490985754 0.10198984903 0.10755289172 0.11318420038 0.1188962453 0.12467704281 0.1304594297 
0.13611563134 0.14147813245 0.14637423338 0.15066183292 0.154257309 0.15714901917 0.15939275825 0.16108834 0.16233724685 
0.16318116217 0.1635428361 0.16322825802 0.16199666546 0.15964017538 0.15604478906 0.15122807045 0.14534870271 0.13868599288 
0.13159510952 0.1244500439 0.11758752999 0.11126391397 0.10563456931 0.10076015999 0.096637351116 0.093250523245 0.090664841441 
0.089216575252 0.089008924495 0.089626756265 0.090794324583 0.092224107378 0.093627359755 0.094699280105 0.095178686075 0.094871519687 
0.09369832934 0.091703448161 0.089037004355 0.085918384463 0.082593935405 0.079297347366 0.076218572486 0.07348677326 0.071170485842 
0.069291244675 0.067841627008 0.066800704738 0.066145858445 0.065863789835 0.066108738374 0.066544022515 0.066818798346 0.066756478065 
0.066200768247 0.065018775098 0.063118431527 0.060465058478 0.057086961293 0.053067371063 0.048526170455 0.043598089899 0.038414632115 
0.033095100139 0.027748351247 0.022482594968 0.017417630598 0.012693759651 0.0084734574504 0.004933833198 0.0022498704807 0.0005714429579 
2.5614171265e-17 
