# vtk DataFile Version 5.1
vtk output
ASCII
DATASET POLYDATA
POINTS 100 float
0.128012 0.0624508 0.811613 0.128099 0.0624808 0.810978 0.128348 0.0623926 0.808891 
0.128692 0.0621958 0.805414 0.129024 0.0619072 0.800645 0.129218 0.0615492 0.79471 
0.129144 0.0611484 0.787751 0.128685 0.0607339 0.779915 0.12775 0.0603355 0.771341 
0.12629 0.059981 0.762151 0.124294 0.0596949 0.752446 0.121797 0.0594962 0.742298 
0.118864 0.0593969 0.731753 0.115581 0.0594007 0.720834 0.112035 0.059502 0.70955 
0.108305 0.0596859 0.697897 0.104438 0.0599284 0.685872 0.100447 0.0601971 0.673477 
0.0963037 0.0604525 0.660723 0.0919413 0.0606504 0.647635 0.0872649 0.0607441 0.634249 
0.0821657 0.0606874 0.620611 0.076539 0.0604378 0.606769 0.0703029 0.05996 0.592771 
0.0634142 0.0592284 0.578652 0.05588 0.0582306 0.564434 0.0477626 0.0569695 0.550121 
0.0391765 0.055464 0.535696 0.0302781 0.0537504 0.521121 0.0212482 0.0518807 0.506345 
0.0122708 0.0499213 0.491308 0.00351048 0.0479496 0.475944 -0.00490919 0.0460501 0.460197 
-0.0129222 0.0443098 0.44402 -0.0205293 0.0428125 0.427381 -0.0277993 0.0416345 0.410267 
-0.0348597 0.040839 0.392683 -0.0418805 0.0404728 0.374647 -0.0490502 0.0405631 0.356185 
-0.0565487 0.041116 0.337322 -0.06452 0.0421171 0.318078 -0.0730476 0.0435326 0.298457 
-0.082137 0.0453125 0.278446 -0.091706 0.0473947 0.258008 -0.101586 0.0497099 0.237088 
-0.111535 0.0521864 0.215613 -0.121253 0.0547555 0.193501 -0.130416 0.0573554 0.170672 
-0.1387 0.0599348 0.147055 -0.145813 0.0624547 0.122599 -0.151526 0.0648894 0.097286 
-0.155687 0.0672255 0.0711315 -0.158233 0.0694605 0.044192 -0.159194 0.0715995 0.0165632 
-0.15868 0.0736523 -0.0116245 -0.156866 0.0756298 -0.040213 -0.153968 0.0775405 -0.0690263 
-0.150214 0.079388 -0.097882 -0.145822 0.0811689 -0.126602 -0.140972 0.082872 -0.155023 
-0.135797 0.0844776 -0.183006 -0.130366 0.0859587 -0.210438 -0.124692 0.087282 -0.237241 
-0.118733 0.0884096 -0.263365 -0.112412 0.0893009 -0.288788 -0.105635 0.0899139 -0.31351 
-0.0983086 0.0902069 -0.337548 -0.0903621 0.0901395 -0.360926 -0.0817613 0.0896729 -0.383674 
-0.0725187 0.088771 -0.405818 -0.0626956 0.0874 -0.42738 -0.0523983 0.0855293 -0.448375 
-0.0417678 0.0831324 -0.468811 -0.0309656 0.0801877 -0.48869 -0.0201566 0.0766808 -0.508012 
-0.00949238 0.0726067 -0.526771 0.00090262 0.0679722 -0.544963 0.0109418 0.0627985 -0.562582 
0.020581 0.0571243 -0.579623 0.0298181 0.0510063 -0.596079 0.0386865 0.0445208 -0.611938 
0.0472454 0.0377625 -0.627184 0.0555668 0.0308421 -0.641793 0.0637219 0.0238822 -0.655734 
0.0717686 0.0170125 -0.668965 0.0797417 0.0103624 -0.681442 0.0876464 0.00405482 -0.693113 
0.0954565 -0.00180167 -0.703928 0.103116 -0.00711865 -0.713841 0.110545 -0.0118332 -0.722814 
0.117646 -0.0159107 -0.730822 0.124315 -0.0193461 -0.737857 0.130448 -0.0221619 -0.743924 
0.135948 -0.0244042 -0.749048 0.140731 -0.0261367 -0.753264 0.144731 -0.027433 -0.756616 
0.147894 -0.0283682 -0.759154 0.150184 -0.0290106 -0.760923 0.151577 -0.0294139 -0.76196 
0.152058 -0.0296117 -0.762291 
LINES 2 100
OFFSETS vtktypeint64
0 100 
CONNECTIVITY vtktypeint64
0 1 2 3 4 5 6 7 8 
9 10 11 12 13 14 15 16 17 
18 19 20 21 22 23 24 25 26 
27 28 29 30 31 32 33 34 35 
36 37 38 39 40 41 42 43 44 
45 46 47 48 49 50 51 52 53 
54 55 56 57 58 59 60 61 62 
63 64 65 66 67 68 69 70 71 
72 73 74 75 76 77 78 79 80 
81 82 83 84 85 86 87 88 89 
90 91 92 93 94 95 96 97 98 
99 
POINT_DATA 100
FIELD FieldData 3
_theta 1 100 double
0 0.031733259127 0.063466518254 0.095199777382 0.12693303651 0.15866629564 0.19039955476 0.22213281389 0.25386607302 
0.28559933214 0.31733259127 0.3490658504 0.38079910953 0.41253236865 0.44426562778 0.47599888691 0.50773214603 0.53946540516 
0.57119866429 0.60293192342 0.63466518254 0.66639844167 0.6981317008 0.72986495992 0.76159821905 0.79333147818 0.82506473731 
0.85679799643 0.88853125556 0.92026451469 0.95199777382 0.98373103294 1.0154642921 1.0471975512 1.0789308103 1.1106640695 
1.1423973286 1.1741305877 1.2058638468 1.237597106 1.2693303651 1.3010636242 1.3327968833 1.3645301425 1.3962634016 
1.4279966607 1.4597299198 1.491463179 1.5231964381 1.5549296972 1.5866629564 1.6183962155 1.6501294746 1.6818627337 
1.7135959929 1.745329252 1.7770625111 1.8087957702 1.8405290294 1.8722622885 1.9039955476 1.9357288068 1.9674620659 
1.999195325 2.0309285841 2.0626618433 2.0943951024 2.1261283615 2.1578616206 2.1895948798 2.2213281389 2.253061398 
2.2847946572 2.3165279163 2.3482611754 2.3799944345 2.4117276937 2.4434609528 2.4751942119 2.506927471 2.5386607302 
2.5703939893 2.6021272484 2.6338605076 2.6655937667 2.6973270258 2.7290602849 2.7607935441 2.7925268032 2.8242600623 
2.8559933214 2.8877265806 2.9194598397 2.9511930988 2.982926358 3.0146596171 3.0463928762 3.0781261353 3.1098593945 
3.1415926536 
_radius 1 100 double
4.7611128369e-16 0.013217348275 0.026337959016 0.03926427134 0.051911129625 0.064210447364 0.076114047781 0.087594550889 0.098644298485 
0.10927238564 0.11950001006 0.12935461684 0.1388636528 0.14804899401 0.15692307326 0.16548731192 0.1737327627 0.18164221205 
0.18919270413 0.19635765844 0.20310830062 0.20941468185 0.21524683647 0.22057651504 0.22537953421 0.22963833351 0.23334405051 
0.23649744982 0.23910834687 0.24119360509 0.24277415685 0.24387166825 0.24450542141 0.24468981081 0.24443265977 0.24373445631 
0.24258864272 0.24098324149 0.23890420218 0.23634066247 0.23329171424 0.22977345929 0.22582457773 0.22150865791 0.21691215752 
0.21213785442 0.20729480059 0.20248698611 0.19780388721 0.19331619987 0.18907871089 0.18513955063 0.18155213337 0.17838425945 
0.17571890249 0.17364353007 0.17222966321 0.1715105052 0.17146727547 0.17203016999 0.17309119957 0.17452148653 0.17618684598 
0.17795897145 0.17972232507 0.18137805297 0.18284615634 0.18406645878 0.18499829234 0.18561862754 0.18591863673 0.18589923687 
0.18556669157 0.18492948365 0.18399718705 0.18278114454 0.18129587901 0.17955976555 0.17759369982 0.17541718909 0.17304222643 
0.17046619017 0.16766551041 0.16459171259 0.16117069272 0.15730504486 0.15287847495 0.14776118453 0.14181559275 0.13490252862 
0.12688860222 0.11765553775 0.10711176875 0.095205732454 0.081939351804 0.067379464006 0.051664684473 0.035005517625 0.017676436792 
9.5659612344e-16 
_area 1 100 double
0 0.00053602611146 0.0021261011639 0.004716313349 0.0082178528147 0.012510627036 0.017451032127 0.022884265973 0.02865995397 
0.034648325568 0.040753198964 0.04691828022 0.053125207874 0.0593846013 0.065723496792 0.072173111284 0.078759930826 0.085500942092 
0.092400932832 0.099447141589 0.10659631885 0.11375633525 0.12077788566 0.12747243224 0.13365263973 0.13917779737 0.14398983439 
0.1481298344 0.15172445452 0.15493667254 0.15789881896 0.16066943145 0.16323365967 0.16551817856 0.16738990951 0.16867432228 
0.16937678861 0.16918216963 0.16802598425 0.16592045794 0.16309541185 0.1595168518 0.15512143374 0.14997678417 0.14421541889 
0.13802107062 0.13161560923 0.12523844361 0.11911430481 0.11340580065 0.10816035731 0.10330614079 0.098722154505 0.094316395901 
0.090066243966 0.086027722635 0.082321284506 0.079114246917 0.076573728394 0.074838283065 0.073969490355 0.073953325289 0.074659364342 
0.075777805483 0.076975995465 0.077986531561 0.078605110126 0.078690879169 0.078170544837 0.077034967347 0.075328049675 0.073140582947 
0.070642218467 0.067977500297 0.065425212156 0.063349168596 0.061503200206 0.059920243199 0.058717550905 0.057948449758 0.057495512636 
0.057234316715 0.05702644915 0.056682866498 0.056005694825 0.054824426905 0.053005069897 0.050454120474 0.047123959101 0.043020497965 
0.038211698414 0.032833543862 0.0270893666 0.021239751772 0.015583030495 0.010429288648 0.0060725529322 0.0027657661545 0.00070160193824 
3.243979427e-17 
