# vtk DataFile Version 5.1
vtk output
ASCII
DATASET POLYDATA
POINTS 100 float
0.129542 0.0564447 0.764946 0.129481 0.0565373 0.764377 0.129364 0.0566835 0.762564 
0.129164 0.0568861 0.759565 0.12884 0.0571492 0.755477 0.128343 0.0574788 0.750419 
0.127627 0.057882 0.74452 0.126651 0.0583668 0.737913 0.125392 0.058941 0.730714 
0.123842 0.0596108 0.72302 0.122014 0.0603787 0.714898 0.119936 0.0612416 0.706388 
0.117644 0.0621884 0.697501 0.115179 0.0631984 0.688226 0.112571 0.06424 0.678542 
0.109834 0.0652713 0.668424 0.106961 0.0662409 0.657852 0.103915 0.067091 0.646824 
0.100634 0.0677616 0.635356 0.0970341 0.0681954 0.623486 0.0930176 0.0683441 0.61127 
0.0884859 0.068173 0.59878 0.083352 0.067667 0.586091 0.0775534 0.066833 0.573277 
0.0710631 0.0657019 0.560395 0.0638974 0.0643272 0.547483 0.0561177 0.0627818 0.534551 
0.0478282 0.0611522 0.521581 0.0391676 0.0595307 0.508524 0.0302963 0.0580077 0.49531 
0.0213808 0.0566622 0.481853 0.0125769 0.055555 0.468062 0.00401406 0.0547223 0.453847 
-0.00421782 0.0541728 0.439132 -0.0120763 0.0538876 0.423858 -0.019569 0.0538231 0.40799 
-0.0267492 0.053917 0.391514 -0.0337069 0.0540964 0.374435 -0.0405533 0.0542878 0.35677 
-0.0474044 0.0544266 0.338543 -0.0543617 0.0544663 0.319772 -0.0614954 0.0543851 0.300467 
-0.068831 0.05419 0.280618 -0.0763401 0.0539177 0.260199 -0.0839386 0.0536309 0.239163 
-0.0914899 0.0534125 0.217449 -0.0988155 0.0533564 0.19499 -0.105709 0.0535569 0.171717 
-0.111952 0.054098 0.147578 -0.117336 0.0550431 0.122539 -0.121677 0.0564269 0.0965955 
-0.124827 0.0582506 0.0697783 -0.12669 0.06048 0.0421539 -0.127219 0.0630481 0.0138232 
-0.12642 0.0658601 -0.0150843 -0.124341 0.0688017 -0.0444178 -0.121067 0.0717497 -0.0740153 
-0.116702 0.0745815 -0.103713 -0.111363 0.0771857 -0.133356 -0.105161 0.07947 -0.162802 
-0.0981975 0.0813663 -0.191931 -0.0905572 0.0828334 -0.220642 -0.0823057 0.0838556 -0.248854 
-0.0734919 0.0844393 -0.276505 -0.0641532 0.0846062 -0.303542 -0.054322 0.0843861 -0.32992 
-0.0440332 0.0838084 -0.355595 -0.033331 0.0828954 -0.380518 -0.0222737 0.0816567 -0.404642 
-0.0109357 0.0800856 -0.427911 0.000592588 0.0781592 -0.450274 0.0122088 0.0758409 -0.471681 
0.0238037 0.0730852 -0.492096 0.0352686 0.0698443 -0.511495 0.046502 0.0660762 -0.529872 
0.057416 0.0617524 -0.547246 0.0679406 0.0568644 -0.56365 0.0780259 0.051429 -0.579136 
0.087641 0.0454908 -0.593767 0.0967712 0.0391222 -0.607607 0.105413 0.0324209 -0.620714 
0.113569 0.0255043 -0.633132 0.121239 0.0185035 -0.644886 0.128421 0.0115543 -0.655979 
0.135101 0.00478954 -0.666387 0.141259 -0.00166865 -0.676069 0.146867 -0.00771577 -0.684969 
0.151894 -0.0132696 -0.693026 0.156314 -0.018273 -0.700186 0.160107 -0.0226949 -0.706409 
0.163271 -0.0265287 -0.71168 0.165822 -0.0297896 -0.716016 0.167797 -0.0325099 -0.719463 
0.169256 -0.0347345 -0.722101 0.170274 -0.0365149 -0.724034 0.170935 -0.0379043 -0.725381 
0.17133 -0.0389522 -0.726264 0.171537 -0.0397009 -0.726795 0.171624 -0.0401817 -0.727066 
0.171634 -0.0404127 -0.727136 
LINES 2 100
OFFSETS vtktypeint64
0 100 
CONNECTIVITY vtktypeint64
0 1 2 3 4 5 6 7 8 
9 10 11 12 13 14 15 16 17 
18 19 20 21 22 23 24 25 26 
27 28 29 30 31 32 33 34 35 
36 37 38 39 40 41 42 43 44 
45 46 47 48 49 50 51 52 53 
54 55 56 57 58 59 60 61 62 
63 64 65 66 67 68 69 70 71 
72 73 74 75 76 77 78 79 80 
81 82 83 84 85 86 87 88 89 
90 91 92 93 94 95 96 97 98 
99 
POINT_DATA 100
FIELD FieldData 3
_theta 1 100 double
0 0.031733259127 0.063466518254 0.095199777382 0.12693303651 0.15866629564 0.19039955476 0.22213281389 0.25386607302 
0.28559933214 0.31733259127 0.3490658504 0.38079910953 0.41253236865 0.44426562778 0.47599888691 0.50773214603 0.53946540516 
0.57119866429 0.60293192342 0.63466518254 0.66639844167 0.6981317008 0.72986495992 0.76159821905 0.79333147818 0.82506473731 
0.85679799643 0.88853125556 0.92026451469 0.95199777382 0.98373103294 1.0154642921 1.0471975512 1.0789308103 1.1106640695 
1.1423973286 1.1741305877 1.2058638468 1.237597106 1.2693303651 1.3010636242 1.3327968833 1.3645301425 1.3962634016 
1.4279966607 1.4597299198 1.491463179 1.5231964381 1.5549296972 1.5866629564 1.6183962155 1.6501294746 1.6818627337 
1.7135959929 1.745329252 1.7770625111 1.8087957702 1.8405290294 1.8722622885 1.9039955476 1.9357288068 1.9674620659 
1.999195325 2.0309285841 2.0626618433 2.0943951024 2.1261283615 2.1578616206 2.1895948798 2.2213281389 2.253061398 
2.2847946572 2.3165279163 2.3482611754 2.3799944345 2.4117276937 2.4434609528 2.4751942119 2.506927471 2.5386607302 
2.5703939893 2.6021272484 2.6338605076 2.6655937667 2.6973270258 2.7290602849 2.7607935441 2.7925268032 2.8242600623 
2.8559933214 2.8877265806 2.9194598397 2.9511930988 2.982926358 3.0146596171 3.0463928762 3.0781261353 3.1098593945 
3.1415926536 
_radius 1 100 double
1.4547370797e-15 0.013929273551 0.027782218763 0.041485312628 0.05497496125 0.068198713527 0.081113512181 0.093682109963 0.10586943784 
0.11764062284 0.12896158089 0.13980200471 0.1501395804 0.1599637563 0.16927751265 0.17809627068 0.1864440684 0.19434804368 
0.20183276199 0.20891584142 0.21560574893 0.22190185636 0.22779619174 0.23327602778 0.23832653274 0.24293301516 0.24708261584 
0.25076549771 0.25397561416 0.2567110375 0.2589736877 0.2607682308 0.26210001033 0.26297215046 0.26338232368 0.26331993128 
0.26276446875 0.2616856514 0.26004559009 0.25780305285 0.25491964635 0.25136753903 0.24713806958 0.24225025013 0.23675787039 
0.23075376834 0.22436998416 0.21777303462 0.21115442175 0.20471756265 0.19866325 0.19317606616 0.18841355551 0.18449856606 
0.18151375605 0.17949685398 0.17843640278 0.17826969951 0.1788856692 0.18013425404 0.18184137802 0.18382660382 0.18592018111 
0.18797688084 0.1898851097 0.19157086577 0.19299688933 0.19415777941 0.19507198551 0.19577169721 0.19629192081 0.19666037131 
0.19688990017 0.19697474881 0.19689102066 0.19660077625 0.19605842673 0.19521774337 0.19403776299 0.19248610487 0.19053871752 
0.18817583693 0.18537488936 0.18210199767 0.17830430469 0.17390520624 0.16880380618 0.16287884928 0.15599652332 0.14802107979 
0.13882714399 0.12831266275 0.11641149488 0.10310462554 0.088428931781 0.072482441718 0.055425199056 0.03747519581 0.018899339558 
9.799525682e-16 
_area 1 100 double
0 0.00044617740449 0.0017885066163 0.0040360049334 0.0071960520844 0.011264112806 0.016212060047 0.021977765167 0.028458855158 
0.035513331425 0.042968806867 0.050640214207 0.058353277569 0.065968708031 0.073400997937 0.080626422739 0.08767729756 0.094623080258 
0.10154279957 0.10849658138 0.11550549788 0.12254732221 0.12957058797 0.1365219203 0.14337474982 0.1501426805 0.15685752629 
0.16350460825 0.16996535612 0.17603983986 0.18151886514 0.1862321995 0.19005901372 0.19291695068 0.19474505884 0.19549126084 
0.19510946911 0.19356683941 0.19086245239 0.18705550364 0.18227692612 0.17666618051 0.17024645073 0.16304978806 0.15522159744 
0.1469929794 0.13863784843 0.13043041021 0.12260670733 0.11533582976 0.10870403636 0.10271617043 0.097319223958 0.092447198275 
0.088081338688 0.084331484754 0.081525762933 0.079940646338 0.079403392009 0.079590949256 0.080185926726 0.080890735457 0.081460504371 
0.081734152761 0.081636359086 0.081148415632 0.080285370594 0.079104749098 0.077712072416 0.076239755112 0.074806091044 0.073468055143 
0.072217154155 0.071021979745 0.069857052149 0.068704032074 0.067555292371 0.066435919755 0.065440903072 0.064713728457 0.064336592554 
0.064181360893 0.064014701732 0.063659294715 0.062966994521 0.061791857682 0.059989056717 0.057428291939 0.054013760753 0.0497053723 
0.044536830669 0.038626819935 0.032180889983 0.025483377652 0.018879942911 0.012751944132 0.0074843966964 0.0034300860452 0.00087358310485 
5.664622446e-17 
