# vtk DataFile Version 5.1
vtk output
ASCII
DATASET POLYDATA
POINTS 100 float
0.109166 0.065716 0.686196 0.109209 0.0659281 0.68602 0.109375 0.0664323 0.685339 
0.109636 0.0671931 0.684177 0.109949 0.0681556 0.682571 0.110263 0.0692504 0.680558 
0.110516 0.0704005 0.678169 0.110649 0.0715279 0.675422 0.110606 0.0725605 0.672309 
0.110338 0.0734371 0.668798 0.109811 0.0741108 0.664829 0.109003 0.0745503 0.660318 
0.10791 0.0747395 0.655165 0.106536 0.0746744 0.649266 0.104901 0.0743601 0.642522 
0.103026 0.0738059 0.634856 0.100935 0.0730222 0.626223 0.0986475 0.0720174 0.616615 
0.0961733 0.0707959 0.606071 0.0935089 0.0693592 0.594673 0.0906357 0.0677069 0.58254 
0.0875197 0.0658405 0.569819 0.0841132 0.063767 0.55667 0.0803592 0.0615026 0.543257 
0.0761967 0.0590762 0.529722 0.0715676 0.0565311 0.516182 0.066424 0.0539246 0.502714 
0.0607344 0.0513267 0.489349 0.0544894 0.0488156 0.476074 0.047705 0.0464724 0.462833 
0.0404234 0.0443751 0.449537 0.0327109 0.0425919 0.436074 0.0246538 0.0411761 0.422324 
0.0163515 0.040162 0.408168 0.00790806 0.0395633 0.393501 -0.000576109 0.0393732 0.378241 
-0.00901258 0.0395676 0.36233 -0.0173314 0.0401099 0.345738 -0.0254849 0.0409565 0.328459 
-0.0334486 0.0420635 0.310503 -0.0412187 0.0433922 0.29189 -0.0488057 0.0449134 0.272643 
-0.0562261 0.0466101 0.252782 -0.063492 0.0484767 0.232315 -0.0706003 0.0505173 0.211242 
-0.0775228 0.0527405 0.189552 -0.084199 0.0551542 0.167231 -0.090532 0.0577589 0.144265 
-0.0963893 0.0605424 0.120651 -0.101608 0.0634753 0.0964004 -0.106005 0.0665096 0.071551 
-0.109391 0.0695792 0.0461664 -0.111584 0.0726037 0.0203386 -0.112431 0.0754945 -0.00581492 
-0.11182 0.0781622 -0.0321573 -0.109697 0.0805258 -0.0585407 -0.106071 0.0825204 -0.0848165 
-0.101019 0.0841035 -0.110846 -0.0946854 0.08526 -0.136511 -0.0872679 0.0860023 -0.161718 
-0.0790065 0.086368 -0.186408 -0.070163 0.0864148 -0.210553 -0.0610001 0.0862117 -0.234156 
-0.0517598 0.0858296 -0.257246 -0.0426441 0.085331 -0.279864 -0.0337999 0.0847612 -0.302064 
-0.0253093 0.0841413 -0.323895 -0.0171866 0.0834644 -0.345396 -0.0093826 0.0826956 -0.366591 
-0.00179555 0.0817759 -0.387483 0.00571299 0.0806293 -0.408058 0.013298 0.0791723 -0.428282 
0.0211094 0.0773255 -0.448111 0.0292714 0.0750239 -0.467494 0.0378641 0.0722277 -0.486377 
0.0469103 0.0689286 -0.504717 0.056368 0.0651538 -0.522476 0.06613 0.060966 -0.539632 
0.0760293 0.0564596 -0.556174 0.0858516 0.0517525 -0.572098 0.0953514 0.0469771 -0.587411 
0.104272 0.0422687 -0.602118 0.112365 0.0377544 -0.616219 0.119412 0.0335437 -0.629709 
0.125237 0.0297204 -0.642568 0.129725 0.0263384 -0.654767 0.132826 0.0234207 -0.666263 
0.134556 0.0209616 -0.67701 0.135 0.0189312 -0.686953 0.134298 0.0172822 -0.696045 
0.132641 0.0159579 -0.704244 0.130251 0.0148992 -0.711521 0.127373 0.0140509 -0.717863 
0.124255 0.0133668 -0.723271 0.121142 0.0128117 -0.727763 0.118257 0.0123623 -0.731366 
0.115796 0.0120051 -0.734117 0.113918 0.0117346 -0.736048 0.112741 0.0115496 -0.737191 
0.112337 0.0114505 -0.737565 
LINES 2 100
OFFSETS vtktypeint64
0 100 
CONNECTIVITY vtktypeint64
0 1 2 3 4 5 6 7 8 
9 10 11 12 13 14 15 16 17 
18 19 20 21 22 23 24 25 26 
27 28 29 30 31 32 33 34 35 
36 37 38 39 40 41 42 43 44 
45 46 47 48 49 50 51 52 53 
54 55 56 57 58 59 60 61 62 
63 64 65 66 67 68 69 70 71 
72 73 74 75 76 77 78 79 80 
81 82 83 84 85 86 87 88 89 
90 91 92 93 94 95 96 97 98 
99 
POINT_DATA 100
FIELD FieldData 3
_theta 1 100 double
0 0.031733259127 0.063466518254 0.095199777382 0.12693303651 0.15866629564 0.19039955476 0.22213281389 0.25386607302 
0.28559933214 0.31733259127 0.3490658504 0.38079910953 0.41253236865 0.44426562778 0.47599888691 0.50773214603 0.53946540516 
0.57119866429 0.60293192342 0.63466518254 0.66639844167 0.6981317008 0.72986495992 0.76159821905 0.79333147818 0.82506473731 
0.85679799643 0.88853125556 0.92026451469 0.95199777382 0.98373103294 1.0154642921 1.0471975512 1.0789308103 1.1106640695 
1.1423973286 1.1741305877 1.2058638468 1.237597106 1.2693303651 1.3010636242 1.3327968833 1.3645301425 1.3962634016 
1.4279966607 1.4597299198 1.491463179 1.5231964381 1.5549296972 1.5866629564 1.6183962155 1.6501294746 1.6818627337 
1.7135959929 1.745329252 1.7770625111 1.8087957702 1.8405290294 1.8722622885 1.9039955476 1.9357288068 1.9674620659 
1.999195325 2.0309285841 2.0626618433 2.0943951024 2.1261283615 2.1578616206 2.1895948798 2.2213281389 2.253061398 
2.2847946572 2.3165279163 2.3482611754 2.3799944345 2.4117276937 2.4434609528 2.4751942119 2.506927471 2.5386607302 
2.5703939893 2.6021272484 2.6338605076 2.6655937667 2.6973270258 2.7290602849 2.7607935441 2.7925268032 2.8242600623 
2.8559933214 2.8877265806 2.9194598397 2.9511930988 2.982926358 3.0146596171 3.0463928762 3.0781261353 3.1098593945 
3.1415926536 
_radius 1 100 double
5.9867817953e-16 0.013662320856 0.02734373988 0.041053539855 0.05479312543 0.068550213433 0.082292182441 0.095960264627 0.10946672545 
0.1226967843 0.13551584551 0.14778108771 0.1593552342 0.17011987469 0.17998611215 0.1889012592 0.19685131219 0.20385959665 
0.20998222563 0.21530103856 0.21991473481 0.22392906232 0.22744708117 0.23056057315 0.2333435526 0.23584856917 0.23810612728 
0.24012710509 0.24190754359 0.24343466272 0.2446926451 0.2456668417 0.24634564534 0.24672009904 0.24678197269 0.24652129027 
0.24592412155 0.24497109064 0.24363677719 0.24189015425 0.23969637376 0.23702036692 0.23383264736 0.23011729837 0.22588147577 
0.22116504968 0.21604842047 0.21065621586 0.20515465976 0.19974114 0.19462614664 0.19001020364 0.18606075215 0.18289464414 
0.18057015657 0.17908904708 0.17840581687 0.17843938315 0.17908259998 0.18020754351 0.18166792759 0.18330224007 0.18494076544 
0.18641726673 0.1875836089 0.18832424032 0.18856737001 0.18829055183 0.18751973275 0.18632220721 0.18479504865 0.18305125035 
0.18120585898 0.17936384719 0.17761057903 0.17600483791 0.17457386181 0.17330985656 0.17216794966 0.17106615538 0.16988824361 
0.16849022344 0.16671048202 0.16438262034 0.16134901695 0.1574726217 0.1526448358 0.14678850727 0.13985652344 0.13182759643 
0.12270128475 0.11249409267 0.10123785147 0.088980747481 0.075790511574 0.061758584029 0.047003658308 0.031672998054 0.015940343791 
1.3816953709e-15 
_area 1 100 double
0 0.00049285417819 0.0019742661409 0.0044515731208 0.0079328945525 0.012420857909 0.017904032691 0.024347080471 0.031681508062 
0.039799436456 0.048552385773 0.057755542076 0.067196093023 0.076643628208 0.08586222167 0.09462594685 0.10273918627 0.11005991796 
0.11652096659 0.12214313134 0.12703524652 0.13137881321 0.13539792512 0.13931803123 0.14331988592 0.1474991825 0.15184583694 
0.15625206445 0.16054505712 0.1645307062 0.16803512211 0.17093468472 0.17316894055 0.17473470775 0.17566484142 0.17599949778 
0.17575946902 0.17492996118 0.17345943623 0.1712729343 0.16829513066 0.16447674676 0.15981794706 0.15438317599 0.1483039508 
0.14176905766 0.13500371104 0.12824081838 0.12169075339 0.1155193226 0.10984091733 0.10472518535 0.10021195944 0.096331402118 
0.093121169552 0.090621295467 0.088834438071 0.087702307047 0.087126579065 0.086982506199 0.087119285621 0.087351565362 0.087476473396 
0.087345880795 0.086830300354 0.085889071519 0.084549336655 0.082827609376 0.080745037707 0.078350112831 0.075742951913 0.073054626291 
0.070410577923 0.067998328238 0.065961769276 0.064266355131 0.062913431584 0.061927298079 0.061297523372 0.060953870149 0.060759247322 
0.060519944093 0.060009314502 0.059001286228 0.057306687752 0.054802985192 0.051450586186 0.047294214249 0.04245260375 0.037101864305 
0.031457025377 0.025753803569 0.020230522382 0.015109724679 0.010580380692 0.0067836135663 0.0038060566005 0.0016841470036 0.00041942214779 
5.6163366497e-17 
