# vtk DataFile Version 5.1
vtk output
ASCII
DATASET POLYDATA
POINTS 100 float
0.114033 0.0746321 0.694146 0.114196 0.0746522 0.693961 0.114654 0.0745821 0.693252 
0.115333 0.0744368 0.691998 0.11612 0.0742395 0.690169 0.116878 0.0740186 0.687725 
0.117461 0.0738045 0.684627 0.117732 0.0736251 0.680835 0.11758 0.0735027 0.676318 
0.116927 0.0734497 0.671054 0.115741 0.0734668 0.665037 0.114033 0.073541 0.658281 
0.111854 0.073646 0.650814 0.109284 0.0737431 0.642684 0.10642 0.0737842 0.633951 
0.103359 0.0737152 0.624687 0.100183 0.0734807 0.61497 0.0969479 0.0730293 0.604879 
0.0936724 0.072318 0.594484 0.0903376 0.0713171 0.58385 0.0868881 0.0700133 0.573023 
0.0832407 0.0684117 0.562033 0.0792959 0.0665363 0.550894 0.0749538 0.0644287 0.539599 
0.0701286 0.0621454 0.528126 0.0647631 0.0597528 0.516442 0.0588383 0.0573225 0.504506 
0.0523791 0.054925 0.492273 0.0454533 0.0526238 0.479701 0.0381654 0.0504706 0.466756 
0.0306449 0.048501 0.453413 0.0230317 0.0467324 0.439657 0.015459 0.0451636 0.425487 
0.00803726 0.0437767 0.410912 0.000841416 0.0425406 0.39595 -0.00609824 0.0414166 0.38062 
-0.0127986 0.0403649 0.364944 -0.0193203 0.0393511 0.348936 -0.0257576 0.0383535 0.332602 
-0.0322242 0.0373679 0.315937 -0.0388349 0.0364117 0.29892 -0.0456863 0.0355251 0.281518 
-0.0528395 0.0347699 0.263686 -0.060305 0.0342257 0.245369 -0.068034 0.0339829 0.22651 
-0.0759153 0.034135 0.207054 -0.0837801 0.0347683 0.186954 -0.0914123 0.0359522 0.166176 
-0.098565 0.0377302 0.144705 -0.10498 0.0401121 0.122547 -0.110411 0.0430692 0.0997293 
-0.114642 0.046533 0.076304 -0.117504 0.0503967 0.0523416 -0.118894 0.0545213 0.0279288 
-0.118774 0.0587447 0.00316336 -0.117178 0.0628927 -0.0218523 -0.114202 0.0667928 -0.0470168 
-0.109995 0.0702875 -0.0722351 -0.104741 0.0732465 -0.0974231 -0.0986441 0.0755777 -0.122511 
-0.0919109 0.0772336 -0.147444 -0.0847317 0.0782151 -0.172182 -0.0772691 0.0785693 -0.196699 
-0.069649 0.0783839 -0.22098 -0.0619564 0.0777772 -0.245012 -0.0542364 0.0768852 -0.268789 
-0.0464988 0.0758464 -0.2923 -0.0387271 0.074787 -0.315526 -0.030888 0.0738066 -0.338443 
-0.0229429 0.0729668 -0.361013 -0.0148577 0.0722835 -0.38319 -0.00661169 0.0717245 -0.404918 
0.00179731 0.0712113 -0.42613 0.0103496 0.0706269 -0.446759 0.019004 0.0698275 -0.466732 
0.0277009 0.0686577 -0.485981 0.036367 0.0669672 -0.50444 0.0449212 0.0646286 -0.522052 
0.053282 0.0615524 -0.53877 0.0613728 0.0576999 -0.554555 0.0691275 0.0530908 -0.569381 
0.0764939 0.0478055 -0.583231 0.0834354 0.041982 -0.596101 0.0899311 0.0358066 -0.607994 
0.0959744 0.0295 -0.61892 0.10157 0.0232996 -0.628898 0.106732 0.0174402 -0.637951 
0.111478 0.0121344 -0.646107 0.115826 0.00755472 -0.6534 0.119794 0.00381979 -0.659864 
0.123395 0.000984905 -0.665538 0.126638 -0.000960954 -0.670463 0.129525 -0.00209207 -0.67468 
0.132054 -0.00253687 -0.678231 0.134217 -0.00246367 -0.681156 0.136004 -0.00206266 -0.683492 
0.137406 -0.00152599 -0.685273 0.13841 -0.00102774 -0.686526 0.139009 -0.000705951 -0.687271 
0.139196 -0.000648386 -0.687522 
LINES 2 100
OFFSETS vtktypeint64
0 100 
CONNECTIVITY vtktypeint64
0 1 2 3 4 5 6 7 8 
9 10 11 12 13 14 15 16 17 
18 19 20 21 22 23 24 25 26 
27 28 29 30 31 32 33 34 35 
36 37 38 39 40 41 42 43 44 
45 46 47 48 49 50 51 52 53 
54 55 56 57 58 59 60 61 62 
63 64 65 66 67 68 69 70 71 
72 73 74 75 76 77 78 79 80 
81 82 83 84 85 86 87 88 89 
90 91 92 93 94 95 96 97 98 
99 
POINT_DATA 100
FIELD FieldData 3
_theta 1 100 double
0 0.031733259127 0.063466518254 0.095199777382 0.12693303651 0.15866629564 0.19039955476 0.22213281389 0.25386607302 
0.28559933214 0.31733259127 0.3490658504 0.38079910953 0.41253236865 0.44426562778 0.47599888691 0.50773214603 0.53946540516 
0.57119866429 0.60293192342 0.63466518254 0.66639844167 0.6981317008 0.72986495992 0.76159821905 0.79333147818 0.82506473731 
0.85679799643 0.88853125556 0.92026451469 0.95199777382 0.98373103294 1.0154642921 1.0471975512 1.0789308103 1.1106640695 
1.1423973286 1.1741305877 1.2058638468 1.237597106 1.2693303651 1.3010636242 1.3327968833 1.3645301425 1.3962634016 
1.4279966607 1.4597299198 1.491463179 1.5231964381 1.5549296972 1.5866629564 1.6183962155 1.6501294746 1.6818627337 
1.7135959929 1.745329252 1.7770625111 1.8087957702 1.8405290294 1.8722622885 1.9039955476 1.9357288068 1.9674620659 
1.999195325 2.0309285841 2.0626618433 2.0943951024 2.1261283615 2.1578616206 2.1895948798 2.2213281389 2.253061398 
2.2847946572 2.3165279163 2.3482611754 2.3799944345 2.4117276937 2.4434609528 2.4751942119 2.506927471 2.5386607302 
2.5703939893 2.6021272484 2.6338605076 2.6655937667 2.6973270258 2.7290602849 2.7607935441 2.7925268032 2.8242600623 
2.8559933214 2.8877265806 2.9194598397 2.9511930988 2.982926358 3.0146596171 3.0463928762 3.0781261353 3.1098593945 
3.1415926536 
_radius 1 100 double
5.6780337503e-16 0.013559266949 0.027091353158 0.040557463979 0.05390993471 0.067090636536 0.080031724187 0.092658623917 0.10489470481 
0.11666677002 0.12791041861 0.13857446137 0.14862384852 0.15804087635 0.16682471262 0.17498949551 0.18256140551 0.18957514746 
0.19607018004 0.20208683433 0.20766230149 0.21282650351 0.21759817081 0.22198194192 0.22596769947 0.22953329303 0.23265100124 
0.23529665849 0.23745895368 0.23914583606 0.24038564141 0.24122219304 0.24170507176 0.24187782749 0.24176758753 0.24137898734 
0.24069374806 0.23967527123 0.23827626318 0.23644718296 0.23414406924 0.23133541169 0.22800851821 0.22417587853 0.21988131 
0.21520453541 0.2102619031 0.20520092811 0.20018770215 0.19538870405 0.19095076011 0.18698337561 0.18354664118 0.18064706257 
0.17824319098 0.17626103806 0.17461552526 0.17323136435 0.17205720398 0.1710697195 0.17026746703 0.16965731357 0.1692394362 
0.168998394 0.16890431651 0.16892125725 0.16901595866 0.16916243362 0.16934191886 0.16954010668 0.16974378253 0.16993817022 
0.17010523814 0.17022240244 0.17026083038 0.17018318374 0.16994197827 0.16948067152 0.16873868073 0.16765893694 0.16619450132 
0.16431091963 0.16198291817 0.15918636436 0.1558881609 0.15203742662 0.14756076696 0.14236298524 0.13633301802 0.12935385035 
0.12131478598 0.11212446074 0.10172316389 0.090093280428 0.077266952202 0.063330322495 0.048423929537 0.032738970625 0.01650937468 
6.8348233083e-16 
_area 1 100 double
0 0.00052062789648 0.0020756044019 0.0046424593284 0.0081787054405 0.012616773983 0.01786100273 0.023788971106 0.030258281013 
0.037118231927 0.044224243222 0.05145182474 0.058706706029 0.065928438344 0.073086255223 0.080168226605 0.087167588116 0.094072180837 
0.1008618858 0.10751420881 0.11401258376 0.12034949155 0.12651912507 0.13250092235 0.1382419282 0.1436484404 0.14859481179 
0.15295154056 0.1566272168 0.15961001582 0.16198723936 0.16392247355 0.16558725038 0.16707730243 0.16836323492 0.1693005172 
0.16968311699 0.16931032141 0.16804157954 0.16582499261 0.16269720667 0.15876192629 0.15415874266 0.14903440327 0.14352615032 
0.13776097706 0.13186655416 0.12598368538 0.12027059062 0.11489577571 0.11002381158 0.10579708866 0.10230303344 0.099522831713 
0.09730842308 0.095428398648 0.093651247538 0.091816926368 0.089863218499 0.087816329372 0.085766135084 0.083826902303 0.082083734911 
0.080551255374 0.079174355367 0.077858990548 0.076508490313 0.075054277671 0.073470399675 0.071767031855 0.069971033079 0.068109629274 
0.066209286488 0.064308603432 0.06247419986 0.060803904474 0.059399000075 0.058315110469 0.057541837526 0.057008503 0.056584128138 
0.056099294682 0.055403281144 0.054399685261 0.053036931464 0.051278910253 0.049079916558 0.04637785573 0.043109114702 0.039237545037 
0.034783964718 0.029844241121 0.024590394488 0.019255959625 0.014111266787 0.0094354047873 0.0054902596795 0.0024996276146 0.0006339866664 
8.338903708e-17 
