# vtk DataFile Version 5.1
vtk output
ASCII
DATASET POLYDATA
POINTS 100 float
0.0950258 0.0591624 0.748685 0.0952343 0.0592706 0.748419 0.0958566 0.0594734 0.747419 
0.0968366 0.0597632 0.745695 0.0980862 0.0601282 0.743265 0.0994933 0.0605538 0.740151 
0.100931 0.0610237 0.736377 0.10227 0.061521 0.731969 0.103386 0.0620294 0.72695 
0.104174 0.0625337 0.721341 0.10455 0.0630206 0.715158 0.104463 0.0634777 0.708416 
0.103891 0.0638937 0.701128 0.102842 0.064257 0.693308 0.101348 0.0645551 0.684972 
0.0994607 0.0647733 0.67614 0.0972421 0.0648946 0.66684 0.0947547 0.0648989 0.657104 
0.092054 0.064764 0.646972 0.0891815 0.0644665 0.636487 0.0861597 0.0639834 0.625696 
0.08299 0.0632941 0.614641 0.0796535 0.0623833 0.603361 0.0761141 0.0612428 0.591887 
0.0723243 0.0598739 0.580235 0.0682322 0.0582885 0.568411 0.0637894 0.0565103 0.556407 
0.0589578 0.0545738 0.5442 0.0537159 0.0525237 0.531761 0.0480624 0.050412 0.519051 
0.0420176 0.0482954 0.506032 0.0356216 0.0462317 0.492666 0.0289302 0.0442762 0.478924 
0.0220087 0.0424781 0.464786 0.0149242 0.0408783 0.45024 0.00773786 0.0395067 0.43529 
0.000497686 0.0383822 0.419943 -0.00676699 0.0375122 0.404217 -0.0140483 0.0368948 0.388126 
-0.0213595 0.0365208 0.371682 -0.0287319 0.0363766 0.354888 -0.0362079 0.0364475 0.337732 
-0.0438323 0.0367211 0.320189 -0.0516422 0.0371894 0.302215 -0.0596559 0.0378507 0.283754 
-0.0678639 0.03871 0.264737 -0.0762209 0.0397788 0.245092 -0.084642 0.0410728 0.224747 
-0.0930027 0.0426094 0.203641 -0.101142 0.0444043 0.18173 -0.108873 0.0464677 0.158991 
-0.11599 0.0488014 0.13543 -0.122288 0.051395 0.111081 -0.127574 0.054225 0.0860085 
-0.131683 0.0572535 0.0603032 -0.134491 0.0604296 0.034076 -0.135927 0.0636909 0.00745245 
-0.135976 0.0669674 -0.0194359 -0.134678 0.0701849 -0.0464594 -0.13213 0.0732705 -0.0734976 
-0.128475 0.0761561 -0.100446 -0.123888 0.0787832 -0.127219 -0.118563 0.0811055 -0.153752 
-0.112701 0.0830907 -0.180004 -0.106488 0.0847212 -0.20595 -0.100089 0.0859926 -0.231579 
-0.0936366 0.0869118 -0.256889 -0.0872212 0.0874936 -0.281882 -0.0808945 0.0877568 -0.306553 
-0.0746698 0.0877204 -0.330892 -0.068529 0.0874002 -0.354876 -0.0624318 0.0868062 -0.37847 
-0.0563262 0.0859414 -0.401622 -0.05016 0.0848015 -0.424274 -0.0438908 0.0833766 -0.446355 
-0.0374945 0.081654 -0.467792 -0.0309705 0.0796217 -0.488512 -0.0243442 0.0772723 -0.508448 
-0.0176659 0.0746079 -0.527541 -0.011007 0.071643 -0.545747 -0.00445381 0.0684076 -0.563032 
0.00190022 0.0649477 -0.579381 0.00796241 0.0613255 -0.594789 0.0136486 0.0576165 -0.609264 
0.0188895 0.0539057 -0.622825 0.023635 0.0502827 -0.635492 0.0278569 0.0468355 -0.647289 
0.0315485 0.0436442 -0.658239 0.0347228 0.0407755 -0.66836 0.0374092 0.0382774 -0.677661 
0.0396485 0.0361767 -0.686147 0.0414885 0.0344769 -0.693813 0.042979 0.0331596 -0.700647 
0.0441681 0.0321868 -0.70663 0.0450988 0.031506 -0.711741 0.0458079 0.0310559 -0.715955 
0.0463246 0.0307732 -0.719248 0.0466705 0.0305997 -0.721601 0.0468608 0.0304887 -0.722996 
0.0469043 0.0304095 -0.723425 
LINES 2 100
OFFSETS vtktypeint64
0 100 
CONNECTIVITY vtktypeint64
0 1 2 3 4 5 6 7 8 
9 10 11 12 13 14 15 16 17 
18 19 20 21 22 23 24 25 26 
27 28 29 30 31 32 33 34 35 
36 37 38 39 40 41 42 43 44 
45 46 47 48 49 50 51 52 53 
54 55 56 57 58 59 60 61 62 
63 64 65 66 67 68 69 70 71 
72 73 74 75 76 77 78 79 80 
81 82 83 84 85 86 87 88 89 
90 91 92 93 94 95 96 97 98 
99 
POINT_DATA 100
FIELD FieldData 3
_theta 1 100 double
0 0.031733259127 0.063466518254 0.095199777382 0.12693303651 0.15866629564 0.19039955476 0.22213281389 0.25386607302 
0.28559933214 0.31733259127 0.3490658504 0.38079910953 0.41253236865 0.44426562778 0.47599888691 0.50773214603 0.53946540516 
0.57119866429 0.60293192342 0.63466518254 0.66639844167 0.6981317008 0.72986495992 0.76159821905 0.79333147818 0.82506473731 
0.85679799643 0.88853125556 0.92026451469 0.95199777382 0.98373103294 1.0154642921 1.0471975512 1.0789308103 1.1106640695 
1.1423973286 1.1741305877 1.2058638468 1.237597106 1.2693303651 1.3010636242 1.3327968833 1.3645301425 1.3962634016 
1.4279966607 1.4597299198 1.491463179 1.5231964381 1.5549296972 1.5866629564 1.6183962155 1.6501294746 1.6818627337 
1.7135959929 1.745329252 1.7770625111 1.8087957702 1.8405290294 1.8722622885 1.9039955476 1.9357288068 1.9674620659 
1.999195325 2.0309285841 2.0626618433 2.0943951024 2.1261283615 2.1578616206 2.1895948798 2.2213281389 2.253061398 
2.2847946572 2.3165279163 2.3482611754 2.3799944345 2.4117276937 2.4434609528 2.4751942119 2.506927471 2.5386607302 
2.5703939893 2.6021272484 2.6338605076 2.6655937667 2.6973270258 2.7290602849 2.7607935441 2.7925268032 2.8242600623 
2.8559933214 2.8877265806 2.9194598397 2.9511930988 2.982926358 3.0146596171 3.0463928762 3.0781261353 3.1098593945 
3.1415926536 
_radius 1 100 double
6.7135367373e-16 0.014267027748 0.028475714788 0.042559458705 0.056448813938 0.070072241077 0.083358500128 0.096240484144 0.10865988487 
0.12057180048 0.13194830344 0.14278010692 0.15307578937 0.1628585197 0.17216078425 0.18101810388 0.18946295744 0.19751996375 
0.20520286022 0.21251320159 0.21944031651 0.22596208737 0.2320464728 0.23765408143 0.24274222276 0.24727056246 0.25120787727 
0.25453869864 0.25726817496 0.25942352573 0.26105110251 0.26220919424 0.26295797809 0.26334892741 0.26341610618 0.26317101904 
0.2626014537 0.26167369169 0.26033701055 0.25852955784 0.25618515039 0.25324100172 0.24964656233 0.24537345382 0.24042591722 
0.23485046242 0.22874279849 0.22224992323 0.21556557943 0.20891810004 0.20255086778 0.196697188 0.19155329099 0.18725499408 
0.18386406552 0.18136818822 0.17969373134 0.17872571696 0.17832746886 0.17835442317 0.17866081227 0.17910197953 0.17953715385 
0.1798365629 0.17989313032 0.17963512009 0.17903475896 0.17810953533 0.17691575324 0.17553623955 0.17406525253 0.1725937535 
0.17119755822 0.16992975565 0.16881749982 0.16786219846 0.16704152655 0.16631176264 0.16560963467 0.16485373784 0.16394610974 
0.1627745902 0.16121636852 0.15914277895 0.15642500392 0.15294002082 0.14857605042 0.14323699129 0.1368457388 0.12934667147 
0.12070775004 0.1109225542 0.10001227483 0.088027367762 0.07504841201 0.061185742967 0.046577594414 0.031386694089 0.015795449243 
4.3311358355e-16 
_area 1 100 double
0 0.00055358647987 0.0022053881552 0.004928107646 0.0086747607168 0.013376572804 0.018941129292 0.025252651017 0.03217620834 
0.03956640072 0.047279241414 0.055184723811 0.063177282905 0.071181935904 0.079154913571 0.087078835396 0.094953787584 0.10278673349 
0.11058200323 0.11833474969 0.12602743935 0.13362775237 0.14108601198 0.14833183767 0.15527207813 0.16179353622 0.16777352081 
0.17309909792 0.17769297539 0.18154051923 0.18470732852 0.18732918629 0.18955536408 0.19146182446 0.19300756485 0.19407164241 
0.19451409762 0.19420911378 0.19305190006 0.19095645262 0.18785464794 0.1837003297 0.17847862518 0.17221887427 0.16500799494 
0.15700016583 0.14841897699 0.13954909797 0.13071582569 0.1222536783 0.11446888376 0.10760282106 0.10180335181 0.097108462155 
0.093444853516 0.090651512717 0.088540341507 0.086973008462 0.085880100358 0.085167991703 0.084724832755 0.084488549077 0.084394911658 
0.084296424827 0.083966815281 0.083181030809 0.081791518967 0.079762409196 0.077165864797 0.074159851935 0.070958635841 0.067804547356 
0.064925195692 0.062450166104 0.060405483853 0.058795700977 0.057626671882 0.05690382649 0.05662778359 0.056773718381 0.057251120536 
0.057867744169 0.058346110134 0.058396477427 0.057782265299 0.056344676503 0.054002855587 0.050747395376 0.046633789836 0.041776788445 
0.036344668823 0.030551756244 0.024647264796 0.018898985752 0.013572175129 0.0089069041624 0.0050993813891 0.0022924102458 0.00057672611843 
3.8390918821e-17 
