# vtk DataFile Version 5.1
vtk output
ASCII
DATASET POLYDATA
POINTS 100 float
0.0967036 0.0444651 0.616621 0.0967994 0.0445629 0.616503 0.0971632 0.044701 0.616027 
0.0977407 0.0449172 0.615196 0.0984486 0.0452673 0.614011 0.0991849 0.0458143 0.612472 
0.0998408 0.0466164 0.610571 0.100314 0.0477144 0.608292 0.100519 0.0491213 0.605609 
0.100395 0.050816 0.602484 0.0999134 0.0527409 0.598869 0.099073 0.0548056 0.59471 
0.0978989 0.0568952 0.58995 0.0964336 0.0588823 0.584536 0.0947267 0.0606412 0.578423 
0.0928241 0.0620628 0.571581 0.0907583 0.0630666 0.563998 0.0885408 0.0636103 0.555683 
0.0861586 0.0636932 0.546663 0.0835745 0.0633552 0.536988 0.0807316 0.0626697 0.526718 
0.077561 0.0617323 0.515926 0.0739924 0.0606476 0.504684 0.069964 0.059514 0.493063 
0.0654326 0.0584112 0.481124 0.0603803 0.0573902 0.468915 0.0548183 0.0564684 0.45647 
0.0487853 0.0556304 0.443811 0.042343 0.0548336 0.430946 0.0355669 0.0540191 0.417876 
0.028536 0.0531246 0.404599 0.021321 0.0520991 0.391115 0.0139745 0.0509158 0.377429 
0.00652332 0.0495815 0.363549 -0.00103428 0.0481417 0.349495 -0.00872709 0.0466791 0.335285 
-0.0166043 0.0453072 0.320941 -0.0247248 0.0441583 0.306477 -0.0331435 0.0433678 0.291897 
-0.0418969 0.043058 0.277187 -0.0509894 0.0433219 0.262313 -0.0603827 0.0442109 0.247221 
-0.0699899 0.0457267 0.231833 -0.0796751 0.0478201 0.216059 -0.0892592 0.0503955 0.199799 
-0.098531 0.0533217 0.182954 -0.107263 0.0564467 0.165436 -0.115229 0.0596145 0.147179 
-0.122224 0.0626833 0.128145 -0.128082 0.0655392 0.108334 -0.132685 0.0681076 0.0877809 
-0.135976 0.0703574 0.0665601 -0.137959 0.0722998 0.0447768 -0.138694 0.0739806 0.0225596 
-0.138289 0.0754682 5.0766e-05 -0.136881 0.0768386 -0.0226058 -0.134628 0.07816 -0.0452751 
-0.131685 0.0794788 -0.0678405 -0.128192 0.0808102 -0.0902101 -0.124262 0.0821331 -0.112319 
-0.119976 0.0833922 -0.134131 -0.115379 0.0845049 -0.155631 -0.110487 0.0853735 -0.176819 
-0.105289 0.0859001 -0.197706 -0.0997601 0.086002 -0.218298 -0.0938735 0.0856251 -0.238597 
-0.0876081 0.0847538 -0.258587 -0.0809572 0.0834151 -0.278241 -0.0739328 0.081676 -0.297514 
-0.0665667 0.0796354 -0.316351 -0.0589068 0.0774105 -0.334694 -0.0510116 0.0751198 -0.352489 
-0.0429429 0.0728663 -0.369693 -0.0347577 0.0707215 -0.386284 -0.0265024 0.0687144 -0.402258 
-0.0182086 0.0668264 -0.41764 -0.00989281 0.0649933 -0.432471 -0.00155985 0.0631147 -0.446807 
0.00679099 0.061069 -0.46071 0.0151573 0.0587332 -0.474234 0.0235239 0.0560034 -0.487417 
0.0318549 0.0528141 -0.500268 0.0400866 0.0491536 -0.512766 0.0481261 0.0450719 -0.524853 
0.0558534 0.0406812 -0.536438 0.0631281 0.0361473 -0.547403 0.0698017 0.0316738 -0.557619 
0.0757312 0.0274796 -0.566952 0.0807958 0.0237746 -0.575286 0.0849114 0.0207336 -0.582533 
0.0880427 0.0184758 -0.588646 0.0902112 0.0170486 -0.593625 0.0914965 0.0164215 -0.597523 
0.0920309 0.016489 -0.600436 0.0919885 0.0170826 -0.6025 0.0915682 0.0179917 -0.603873 
0.0909734 0.0189891 -0.60472 0.0903911 0.0198595 -0.605192 0.0899718 0.0204265 -0.605414 
0.0898129 0.0205748 -0.605464 
LINES 2 100
OFFSETS vtktypeint64
0 100 
CONNECTIVITY vtktypeint64
0 1 2 3 4 5 6 7 8 
9 10 11 12 13 14 15 16 17 
18 19 20 21 22 23 24 25 26 
27 28 29 30 31 32 33 34 35 
36 37 38 39 40 41 42 43 44 
45 46 47 48 49 50 51 52 53 
54 55 56 57 58 59 60 61 62 
63 64 65 66 67 68 69 70 71 
72 73 74 75 76 77 78 79 80 
81 82 83 84 85 86 87 88 89 
90 91 92 93 94 95 96 97 98 
99 
POINT_DATA 100
FIELD FieldData 3
_theta 1 100 double
0 0.031733259127 0.063466518254 0.095199777382 0.12693303651 0.15866629564 0.19039955476 0.22213281389 0.25386607302 
0.28559933214 0.31733259127 0.3490658504 0.38079910953 0.41253236865 0.44426562778 0.47599888691 0.50773214603 0.53946540516 
0.57119866429 0.60293192342 0.63466518254 0.66639844167 0.6981317008 0.72986495992 0.76159821905 0.79333147818 0.82506473731 
0.85679799643 0.88853125556 0.92026451469 0.95199777382 0.98373103294 1.0154642921 1.0471975512 1.0789308103 1.1106640695 
1.1423973286 1.1741305877 1.2058638468 1.237597106 1.2693303651 1.3010636242 1.3327968833 1.3645301425 1.3962634016 
1.4279966607 1.4597299198 1.491463179 1.5231964381 1.5549296972 1.5866629564 1.6183962155 1.6501294746 1.6818627337 
1.7135959929 1.745329252 1.7770625111 1.8087957702 1.8405290294 1.8722622885 1.9039955476 1.9357288068 1.9674620659 
1.999195325 2.0309285841 2.0626618433 2.0943951024 2.1261283615 2.1578616206 2.1895948798 2.2213281389 2.253061398 
2.2847946572 2.3165279163 2.3482611754 2.3799944345 2.4117276937 2.4434609528 2.4751942119 2.506927471 2.5386607302 
2.5703939893 2.6021272484 2.6338605076 2.6655937667 2.6973270258 2.7290602849 2.7607935441 2.7925268032 2.8242600623 
2.8559933214 2.8877265806 2.9194598397 2.9511930988 2.982926358 3.0146596171 3.0463928762 3.0781261353 3.1098593945 
3.1415926536 
_radius 1 100 double
1.5838319837e-16 0.01210773677 0.024121193404 0.035951401398 0.047525828855 0.058792728225 0.069721563699 0.080299551005 0.090525206276 
0.10040049366 0.10992345217 0.11908292058 0.12785622227 0.136209723 0.14410144544 0.15148469673 0.15831193762 0.16453863964 
0.17012730167 0.17505188721 0.17930266789 0.18289098428 0.18585300418 0.18825135708 0.19017361729 0.19172697912 0.19302907213 
0.19419564554 0.19532669072 0.19649323687 0.19772724224 0.19901651895 0.20030556963 0.2015019728 0.20248699531 0.20312871367 
0.20329607232 0.20287274271 0.20177003885 0.19993825405 0.19737557581 0.19413337666 0.19031642115 0.18607661609 0.18159959576 
0.17708489997 0.172722684 0.16867184706 0.16504460201 0.16190033973 0.15924873855 0.1570601989 0.15528086336 0.15384891661 
0.15270857553 0.15181875198 0.15115490523 0.15070467731 0.15046001084 0.15040978906 0.15053640961 0.15081687749 0.15122605037 
0.15173906082 0.15233158727 0.15297853084 0.15365241515 0.15432252352 0.15495508355 0.15551423546 0.15596330207 0.15626600138 
0.1563875636 0.15629602536 0.15596404422 0.15537125419 0.1545065473 0.15336908417 0.15196674867 0.15031135547 0.14841099753 
0.14626105609 0.14383614711 0.1410853322 0.13793219126 0.13428005066 0.1300212531 0.12504837964 0.1192651214 0.11259502825 
0.10498731034 0.096419813256 0.086899899961 0.07646411883 0.065177288067 0.053131190877 0.040442692982 0.027250926065 0.013713256765 
1.0238152427e-15 
_area 1 100 double
0 0.00038914230521 0.0015405943831 0.0034104304737 0.0059374072885 0.0090565956208 0.012711325874 0.01685933281 0.021471024004 
0.02652062046 0.03197351521 0.037774587205 0.043841789248 0.050067172171 0.056324578162 0.062481023524 0.068408308739 0.073992552405 
0.079141182412 0.083788185043 0.087898288171 0.091469573006 0.09453326419 0.097150361407 0.0994064207 0.10140563748 0.10326304046 
0.10509240893 0.10699004098 0.10901803039 0.11119074255 0.11346619265 0.11574446212 0.11787633106 0.11968254916 0.1209787704 
0.12159794194 0.12140396168 0.1202977796 0.11822487706 0.11519112708 0.11128101198 0.10666377559 0.10157917752 0.09630646341 
0.09112932761 0.08631060542 0.082075437992 0.078581693649 0.075873720654 0.07386627195 0.07238305409 0.071213579535 0.070159261101 
0.069060852141 0.067810537439 0.066355183921 0.064695482886 0.062884751648 0.061030814249 0.059303946552 0.057955484146 0.057263912487 
0.057209460876 0.057508764821 0.057938091392 0.058343707472 0.058611087247 0.058660112234 0.058449349076 0.057978164163 0.057280754265 
0.056410656992 0.055421657248 0.054357021697 0.053251958982 0.052141510086 0.051065634024 0.05006977558 0.049200324095 0.048487631809 
0.047908874006 0.047360486102 0.046686707654 0.045727555692 0.044341591874 0.04241713187 0.039885281954 0.036732607626 0.033007907424 
0.028820139594 0.024327839539 0.019722733119 0.015211293502 0.010997698727 0.0072703613162 0.0041925627396 0.0018964421124 0.00047911364205 
2.6495033e-17 
