# vtk DataFile Version 5.1
vtk output
ASCII
DATASET POLYDATA
POINTS 100 float
0.126203 0.0655678 0.77217 0.126126 0.0658325 0.771902 0.125977 0.0664639 0.770938 
0.125765 0.0674154 0.769292 0.1255 0.0686145 0.766986 0.125197 0.0699706 0.764045 
0.12487 0.0713836 0.760488 0.124528 0.0727536 0.756332 0.124176 0.073991 0.751579 
0.123808 0.0750239 0.746218 0.12341 0.0758049 0.740226 0.122951 0.0763139 0.733571 
0.122389 0.0765579 0.726214 0.121668 0.0765687 0.718119 0.120721 0.0763963 0.70926 
0.119473 0.0761014 0.699624 0.117848 0.0757458 0.689221 0.115769 0.0753838 0.678084 
0.11317 0.0750535 0.66627 0.109997 0.0747703 0.653852 0.106216 0.0745238 0.640921 
0.101816 0.0742768 0.627571 0.0968105 0.0739688 0.613892 0.091238 0.0735216 0.599965 
0.0851595 0.072848 0.585848 0.0786537 0.0718621 0.571578 0.0718097 0.0704895 0.557165 
0.0647193 0.0686779 0.542598 0.0574677 0.0664052 0.527847 0.0501246 0.063685 0.512872 
0.0427368 0.060569 0.497634 0.0353226 0.0571456 0.482098 0.0278689 0.0535347 0.466246 
0.020332 0.0498794 0.450079 0.0126413 0.0463356 0.433615 0.00470722 0.0430594 0.416891 
-0.00356926 0.0401954 0.39995 -0.012284 0.0378655 0.38284 -0.021517 0.0361593 0.365593 
-0.0313197 0.0351289 0.348223 -0.0417047 0.0347856 0.33071 -0.0526373 0.0351018 0.312999 
-0.0640316 0.0360155 0.294997 -0.075751 0.0374379 0.276577 -0.0876129 0.0392634 0.257587 
-0.0993974 0.0413803 0.237863 -0.11086 0.043681 0.217243 -0.121748 0.046072 0.195591 
-0.131815 0.0484804 0.172805 -0.140836 0.0508584 0.148837 -0.148626 0.0531846 0.1237 
-0.155047 0.0554618 0.0974686 -0.160017 0.0577123 0.0702825 -0.163513 0.0599713 0.042332 
-0.165569 0.0622787 0.013846 -0.16627 0.0646714 -0.0149256 -0.165743 0.0671752 -0.0437319 
-0.164143 0.0697994 -0.0723394 -0.161638 0.0725328 -0.100549 -0.1584 0.0753427 -0.128206 
-0.154585 0.078176 -0.155212 -0.15033 0.0809623 -0.181519 -0.145738 0.0836198 -0.207131 
-0.14088 0.0860606 -0.232088 -0.135793 0.0881975 -0.256459 -0.130482 0.0899501 -0.280325 
-0.124927 0.0912493 -0.303766 -0.11909 0.0920407 -0.326845 -0.112928 0.0922865 -0.349605 
-0.106397 0.0919653 -0.372061 -0.0994621 0.0910706 -0.394198 -0.092107 0.0896088 -0.415979 
-0.0843343 0.0875964 -0.437348 -0.0761694 0.0850571 -0.458238 -0.0676599 0.0820206 -0.478582 
-0.0588726 0.0785208 -0.498316 -0.049889 0.074596 -0.517389 -0.0408001 0.0702901 -0.535761 
-0.0317001 0.0656543 -0.553407 -0.0226803 0.0607482 -0.570309 -0.0138247 0.0556425 -0.586454 
-0.00520568 0.0504187 -0.601826 0.00311799 0.0451693 -0.616402 0.0111021 0.039995 -0.63015 
0.018716 0.0350014 -0.643025 0.0259408 0.0302938 -0.654971 0.0327661 0.0259704 -0.665927 
0.0391867 0.0221156 -0.675834 0.0451991 0.0187938 -0.684642 0.0507982 0.0160439 -0.69232 
0.0559752 0.0138753 -0.698862 0.0607155 0.0122667 -0.704296 0.0649989 0.0111681 -0.708679 
0.0687994 0.010504 -0.7121 0.0720873 0.0101812 -0.714674 0.0748307 0.0100964 -0.716527 
0.0769989 0.0101465 -0.71779 0.0785641 0.0102386 -0.718583 0.0795047 0.0102986 -0.719001 
0.079807 0.010279 -0.719109 
LINES 2 100
OFFSETS vtktypeint64
0 100 
CONNECTIVITY vtktypeint64
0 1 2 3 4 5 6 7 8 
9 10 11 12 13 14 15 16 17 
18 19 20 21 22 23 24 25 26 
27 28 29 30 31 32 33 34 35 
36 37 38 39 40 41 42 43 44 
45 46 47 48 49 50 51 52 53 
54 55 56 57 58 59 60 61 62 
63 64 65 66 67 68 69 70 71 
72 73 74 75 76 77 78 79 80 
81 82 83 84 85 86 87 88 89 
90 91 92 93 94 95 96 97 98 
99 
POINT_DATA 100
FIELD FieldData 3
_theta 1 100 double
0 0.031733259127 0.063466518254 0.095199777382 0.12693303651 0.15866629564 0.19039955476 0.22213281389 0.25386607302 
0.28559933214 0.31733259127 0.3490658504 0.38079910953 0.41253236865 0.44426562778 0.47599888691 0.50773214603 0.53946540516 
0.57119866429 0.60293192342 0.63466518254 0.66639844167 0.6981317008 0.72986495992 0.76159821905 0.79333147818 0.82506473731 
0.85679799643 0.88853125556 0.92026451469 0.95199777382 0.98373103294 1.0154642921 1.0471975512 1.0789308103 1.1106640695 
1.1423973286 1.1741305877 1.2058638468 1.237597106 1.2693303651 1.3010636242 1.3327968833 1.3645301425 1.3962634016 
1.4279966607 1.4597299198 1.491463179 1.5231964381 1.5549296972 1.5866629564 1.6183962155 1.6501294746 1.6818627337 
1.7135959929 1.745329252 1.7770625111 1.8087957702 1.8405290294 1.8722622885 1.9039955476 1.9357288068 1.9674620659 
1.999195325 2.0309285841 2.0626618433 2.0943951024 2.1261283615 2.1578616206 2.1895948798 2.2213281389 2.253061398 
2.2847946572 2.3165279163 2.3482611754 2.3799944345 2.4117276937 2.4434609528 2.4751942119 2.506927471 2.5386607302 
2.5703939893 2.6021272484 2.6338605076 2.6655937667 2.6973270258 2.7290602849 2.7607935441 2.7925268032 2.8242600623 
2.8559933214 2.8877265806 2.9194598397 2.9511930988 2.982926358 3.0146596171 3.0463928762 3.0781261353 3.1098593945 
3.1415926536 
_radius 1 100 double
8.0155488237e-16 0.015511956467 0.030830529684 0.04577637935 0.060199462348 0.073988385219 0.08707428625 0.09942885158 0.11105704544 
0.12198612257 0.13225331697 0.1418949026 0.15093869391 0.15940059229 0.16728434662 0.17458317991 0.18128238392 0.18736271822 
0.19280483123 0.19759477496 0.20173022214 0.20522654262 0.20812166601 0.21047865959 0.2123850963 0.21394855232 0.21528803654 
0.21652188307 0.21775353633 0.21905742808 0.22046742921 0.22196998071 0.22350312858 0.2249616825 0.22620789119 0.22708644643 
0.22744221154 0.22713874372 0.22607545138 0.22420117965 0.22152226782 0.21810374765 0.21406331442 0.20955885401 0.20477144617 
0.19988665663 0.19507733732 0.19049086913 0.18624273027 0.18241661618 0.17906953849 0.17623904757 0.17394945948 0.17221471747 
0.17103689644 0.17040109867 0.17026937211 0.17057741937 0.17123693255 0.17214348529 0.1731872451 0.17426330185 0.17527977581 
0.17616335743 0.17686242777 0.17734750128 0.17760842121 0.17764877848 0.17748029098 0.17712049475 0.17659404047 0.17593466004 
0.17518525412 0.17439573344 0.1736192399 0.17290703501 0.17230181862 0.17182923964 0.17148800619 0.17124005851 0.17100322368 
0.17064901147 0.17000737056 0.16887848316 0.16704971872 0.16431451461 0.16048970098 0.15542859396 0.14902857955 0.14123333621 
0.13203088208 0.12144910453 0.10955037949 0.096426504822 0.082194670526 0.066994684965 0.050987183 0.034352086068 0.017286326388 
2.7967259692e-16 
_area 1 100 double
0 0.00056987748976 0.0022446532697 0.0049263909653 0.0084725000302 0.012721829878 0.017522370414 0.022753531452 0.028336416325 
0.034228293654 0.04040334257 0.046828714581 0.053447502717 0.060175048457 0.066906547026 0.073529067573 0.079931833352 0.086012455224 
0.091680598771 0.096862107809 0.10150557229 0.10559086475 0.10913658225 0.11220216007 0.11488231069 0.1172954986 0.11957049541 
0.121833614 0.12419672938 0.12674601276 0.12953314319 0.132573052 0.13587981585 0.13969098517 0.14380929916 0.14748527862 
0.15031156175 0.15196477262 0.15221220634 0.15094322835 0.14819537125 0.14416070591 0.13916270056 0.13360220498 0.12788328155 
0.12234381924 0.11721532049 0.11261157735 0.10853172542 0.10487831273 0.10150154078 0.098261128717 0.095077433666 0.091953349359 
0.08896831246 0.086253318559 0.083954094315 0.082187503842 0.080999287584 0.080342249601 0.080090551116 0.080073002368 0.080095456304 
0.079952519598 0.079464045119 0.078523986882 0.077121374961 0.075315055446 0.073191705545 0.070836633974 0.068350625179 0.065857226393 
0.063479996808 0.061343476204 0.059549570623 0.058166014561 0.057304220952 0.056822837866 0.056647370844 0.056780847467 0.057228598786 
0.057881094208 0.05847218664 0.058717692098 0.058364739081 0.057207190552 0.055106626171 0.052008557495 0.047948512558 0.043047366757 
0.037498085297 0.031546869057 0.025471115672 0.019556161909 0.014073304909 0.0092622597613 0.0053204855734 0.0023994004731 0.0006050287472 
2.2171724307e-17 
