# vtk DataFile Version 5.1
vtk output
ASCII
DATASET POLYDATA
POINTS 100 float
0.110435 0.0550854 0.690168 0.110503 0.055202 0.689786 0.110759 0.0554082 0.688505 
0.111162 0.0557164 0.686379 0.111645 0.0561442 0.683488 0.112124 0.0567098 0.67993 
0.112508 0.0574267 0.675803 0.112708 0.0582992 0.671195 0.112646 0.0593176 0.666166 
0.112258 0.0604558 0.660745 0.111506 0.061671 0.654923 0.110373 0.0629047 0.648656 
0.108865 0.0640869 0.641873 0.107006 0.0651416 0.634488 0.104832 0.0659936 0.626414 
0.102384 0.0665752 0.617579 0.0996988 0.0668327 0.607938 0.0968059 0.066732 0.597487 
0.0937194 0.0662614 0.586263 0.0904379 0.0654328 0.574347 0.0869439 0.0642808 0.561854 
0.0832079 0.0628587 0.548924 0.0791924 0.0612338 0.535705 0.0748593 0.0594814 0.522334 
0.0701758 0.0576788 0.508926 0.0651212 0.055899 0.495556 0.0596906 0.0542067 0.482256 
0.0538974 0.0526549 0.469009 0.0477723 0.0512831 0.455754 0.0413601 0.0501181 0.442397 
0.0347141 0.0491749 0.428826 0.0278889 0.0484592 0.414924 0.0209326 0.0479703 0.400587 
0.01388 0.0477028 0.38574 0.00674766 0.0476493 0.370343 -0.000469439 0.0478013 0.354399 
-0.00779654 0.0481488 0.337948 -0.0152753 0.0486806 0.321062 -0.0229566 0.0493828 0.303833 
-0.0308906 0.0502383 0.286352 -0.0391157 0.0512258 0.268702 -0.0476474 0.0523207 0.250933 
-0.0564684 0.0534959 0.233061 -0.065521 0.0547241 0.215057 -0.0747039 0.055981 0.196849 
-0.0838727 0.0572486 0.178332 -0.0928454 0.0585183 0.159378 -0.101412 0.0597935 0.139855 
-0.109348 0.0610905 0.119644 -0.116429 0.0624376 0.0986572 -0.122449 0.0638726 0.0768521 
-0.127231 0.0654381 0.0542405 -0.130648 0.067175 0.0308918 -0.132625 0.0691159 0.00692916 
-0.133148 0.0712778 -0.017481 -0.132261 0.0736563 -0.0421439 -0.130064 0.076221 -0.0668551 
-0.126701 0.0789149 -0.091419 -0.122346 0.081655 -0.115667 -0.117189 0.0843377 -0.13947 
-0.111421 0.086846 -0.162749 -0.105219 0.0890592 -0.185474 -0.0987328 0.0908636 -0.207663 
-0.0920761 0.0921628 -0.22937 -0.0853245 0.0928867 -0.250671 -0.078514 0.0929978 -0.271651 
-0.0716462 0.0924939 -0.292384 -0.0646961 0.0914073 -0.312924 -0.0576227 0.0897994 -0.333289 
-0.0503811 0.0877529 -0.353464 -0.0429339 0.085361 -0.373393 -0.0352613 0.0827157 -0.392993 
-0.0273694 0.0798971 -0.412156 -0.0192942 0.0769635 -0.430766 -0.011103 0.0739463 -0.44871 
-0.00289122 0.0708469 -0.465888 0.00522322 0.0676396 -0.482225 0.0131084 0.0642774 -0.497676 
0.0206283 0.0607015 -0.512222 0.0276531 0.0568531 -0.525873 0.0340691 0.0526851 -0.538659 
0.0397868 0.0481729 -0.55062 0.0447468 0.0433234 -0.5618 0.0489232 0.0381785 -0.572236 
0.0523232 0.0328164 -0.581951 0.0549851 0.027346 -0.590954 0.0569733 0.0218991 -0.59924 
0.0583716 0.016618 -0.606791 0.0592758 0.0116429 -0.613581 0.0597858 0.00709782 -0.619592 
0.0599992 0.00307963 -0.62481 0.0600048 -0.000350709 -0.629241 0.0598791 -0.00317208 -0.632911 
0.0596835 -0.0054025 -0.635865 0.0594646 -0.0070937 -0.638169 0.0592545 -0.00832163 -0.6399 
0.0590738 -0.00917423 -0.641141 0.0589343 -0.00973801 -0.641968 0.0588421 -0.0100852 -0.642446 
0.0588002 -0.0102632 -0.642614 
LINES 2 100
OFFSETS vtktypeint64
0 100 
CONNECTIVITY vtktypeint64
0 1 2 3 4 5 6 7 8 
9 10 11 12 13 14 15 16 17 
18 19 20 21 22 23 24 25 26 
27 28 29 30 31 32 33 34 35 
36 37 38 39 40 41 42 43 44 
45 46 47 48 49 50 51 52 53 
54 55 56 57 58 59 60 61 62 
63 64 65 66 67 68 69 70 71 
72 73 74 75 76 77 78 79 80 
81 82 83 84 85 86 87 88 89 
90 91 92 93 94 95 96 97 98 
99 
POINT_DATA 100
FIELD FieldData 3
_theta 1 100 double
0 0.031733259127 0.063466518254 0.095199777382 0.12693303651 0.15866629564 0.19039955476 0.22213281389 0.25386607302 
0.28559933214 0.31733259127 0.3490658504 0.38079910953 0.41253236865 0.44426562778 0.47599888691 0.50773214603 0.53946540516 
0.57119866429 0.60293192342 0.63466518254 0.66639844167 0.6981317008 0.72986495992 0.76159821905 0.79333147818 0.82506473731 
0.85679799643 0.88853125556 0.92026451469 0.95199777382 0.98373103294 1.0154642921 1.0471975512 1.0789308103 1.1106640695 
1.1423973286 1.1741305877 1.2058638468 1.237597106 1.2693303651 1.3010636242 1.3327968833 1.3645301425 1.3962634016 
1.4279966607 1.4597299198 1.491463179 1.5231964381 1.5549296972 1.5866629564 1.6183962155 1.6501294746 1.6818627337 
1.7135959929 1.745329252 1.7770625111 1.8087957702 1.8405290294 1.8722622885 1.9039955476 1.9357288068 1.9674620659 
1.999195325 2.0309285841 2.0626618433 2.0943951024 2.1261283615 2.1578616206 2.1895948798 2.2213281389 2.253061398 
2.2847946572 2.3165279163 2.3482611754 2.3799944345 2.4117276937 2.4434609528 2.4751942119 2.506927471 2.5386607302 
2.5703939893 2.6021272484 2.6338605076 2.6655937667 2.6973270258 2.7290602849 2.7607935441 2.7925268032 2.8242600623 
2.8559933214 2.8877265806 2.9194598397 2.9511930988 2.982926358 3.0146596171 3.0463928762 3.0781261353 3.1098593945 
3.1415926536 
_radius 1 100 double
1.7785239219e-15 0.012610262484 0.025234761451 0.037873922367 0.050511879272 0.063110361669 0.075605133696 0.087906081236 0.099901548397 
0.11146668955 0.12247473094 0.13280942123 0.14237674592 0.15111417435 0.15899618174 0.16603540274 0.17227942102 0.1778038176 
0.18270264544 0.18707789941 0.19102966968 0.19464834243 0.19800945043 0.20117092529 0.2041720851 0.20703392546 0.20976084104 
0.2123441697 0.21476756991 0.21701342824 0.21906880495 0.22092926566 0.22259934771 0.22408917239 0.22540761955 0.22655335808 
0.22750572469 0.22821780042 0.22861389627 0.22859296899 0.22803836116 0.22683296586 0.22487775949 0.22211085258 0.21852389312 
0.21417286033 0.20918099789 0.20373279339 0.19805939708 0.19241750067 0.18706517259 0.18223901786 0.17813672879 0.17490721632 
0.17264735229 0.17140126722 0.17115727053 0.17184044373 0.17330502257 0.17533548501 0.17766363532 0.18000100734 0.18207805651 
0.18367953764 0.18466869471 0.18499749368 0.18470346737 0.18389558329 0.18273255263 0.18139742505 0.18007209583 0.17891465381 
0.1780415825 0.17751581312 0.17734076686 0.17746008253 0.17776261505 0.17809221296 0.17826152361 0.17806854779 0.17731403986 
0.17581752618 0.17342997828 0.17004192822 0.16558671133 0.16003926577 0.15341139215 0.14574461262 0.137101854 0.12755915086 
0.11719840343 0.10610192758 0.094349170138 0.082015636809 0.069173819929 0.055895649965 0.042255681904 0.028333966538 0.014217557651 
1.5992130821e-15 
_area 1 100 double
0 0.00043662533447 0.0017473463112 0.0039320403135 0.0069823595447 0.01087180782 0.015545800921 0.020914526357 0.02685106657 
0.033196343261 0.039770993505 0.046392560062 0.05289487028 0.059145687245 0.065058903807 0.070598711429 0.07577507249 0.080631904522 
0.08523081391 0.089633442738 0.09388565536 0.098009688984 0.10201180372 0.10590189683 0.10970982993 0.11348765095 0.1172963932 
0.12118269162 0.12515635556 0.12918105197 0.1331820351 0.13706504822 0.14073675614 0.14411828534 0.14714742402 0.14977039527 
0.15192853284 0.15354639728 0.15452583128 0.1547475653 0.15408059709 0.15239984089 0.14961240679 0.14568965188 0.14069626784 
0.13480420415 0.12828243744 0.12146180767 0.11468220068 0.1082339806 0.1023088976 0.096982227767 0.092246829411 0.08808793577 
0.084547980455 0.08172521695 0.079717497977 0.078540394432 0.078107010902 0.078235627009 0.078698540963 0.079268013509 0.079734991849 
0.079905571527 0.079611505789 0.078736828418 0.077237642584 0.075151329539 0.072596050586 0.069755930271 0.066852648099 0.064113284152 
0.06174689272 0.05993593112 0.058842999384 0.058625234808 0.059414690372 0.061092761272 0.063242557911 0.065417452003 0.067243099343 
0.06841751901 0.068708518265 0.067959423217 0.066095369995 0.063124175065 0.059129235758 0.054255389293 0.048691189831 0.042651412266 
0.03636194615 0.030047410817 0.023921279918 0.018178857419 0.012993844075 0.0085183123844 0.004883888864 0.0022010107795 0.00055493103691 
1.3077926056e-18 
