# vtk DataFile Version 5.1
vtk output
ASCII
DATASET POLYDATA
POINTS 100 float
0.0864362 0.0322629 0.675945 0.0863546 0.032589 0.675607 0.0861983 0.0334076 0.674454 
0.0859803 0.0346724 0.672532 0.0857212 0.0363115 0.669912 0.0854465 0.0382342 0.666686 
0.0851834 0.0403391 0.66295 0.0849566 0.0425236 0.658796 0.0847847 0.0446918 0.654302 
0.0846767 0.0467629 0.649527 0.0846294 0.0486762 0.644499 0.0846263 0.0503944 0.639217 
0.0846368 0.0519039 0.633657 0.0846174 0.0532122 0.627769 0.0845141 0.0543432 0.621491 
0.084265 0.055331 0.614757 0.0838048 0.0562126 0.607506 0.0830679 0.0570206 0.599689 
0.0819933 0.0577773 0.591279 0.0805278 0.0584901 0.582271 0.0786288 0.0591497 0.572683 
0.0762667 0.0597299 0.562554 0.0734256 0.0601913 0.551939 0.0701032 0.060486 0.540899 
0.0663102 0.0605639 0.529495 0.0620677 0.0603804 0.517779 0.0574057 0.0599033 0.505788 
0.0523592 0.0591187 0.493542 0.0469658 0.0580352 0.481038 0.0412626 0.0566855 0.468259 
0.0352835 0.055126 0.455173 0.0290575 0.053433 0.441741 0.0226068 0.0516973 0.427925 
0.0159472 0.0500172 0.413695 0.00908781 0.0484905 0.399035 0.00203251 0.0472068 0.383948 
-0.00521769 0.0462413 0.368455 -0.0126619 0.045649 0.352593 -0.020296 0.0454627 0.336412 
-0.0281087 0.0456925 0.319966 -0.0360783 0.0463276 0.303306 -0.0441687 0.0473406 0.286468 
-0.0523271 0.0486926 0.269469 -0.0604824 0.050339 0.252299 -0.0685443 0.0522353 0.234919 
-0.076405 0.0543411 0.217261 -0.0839416 0.0566233 0.199232 -0.0910208 0.0590568 0.180727 
-0.0975042 0.0616231 0.161633 -0.103255 0.0643074 0.141843 -0.108148 0.0670945 0.121271 
-0.112071 0.0699637 0.099857 -0.11494 0.0728852 0.0775825 -0.116697 0.075816 0.0544699 
-0.117318 0.0786998 0.0305858 -0.116815 0.0814673 0.00603776 -0.115231 0.0840404 -0.0190329 
-0.112641 0.0863377 -0.044461 -0.109143 0.088282 -0.0700701 -0.10485 0.0898085 -0.095685 
-0.0998843 0.0908725 -0.121144 -0.0943643 0.0914557 -0.14631 -0.0883983 0.0915699 -0.171079 
-0.0820762 0.0912573 -0.195381 -0.0754648 0.0905874 -0.219185 -0.0686051 0.0896501 -0.242494 
-0.0615131 0.0885453 -0.265335 -0.0541831 0.0873712 -0.287756 -0.0465936 0.086211 -0.309812 
-0.0387155 0.0851207 -0.331555 -0.0305205 0.0841192 -0.353026 -0.0219904 0.0831823 -0.374243 
-0.0131247 0.0822409 -0.395201 -0.00394719 0.0811857 -0.415865 0.00549141 0.0798758 -0.436172 
0.0151123 0.0781534 -0.456035 0.0248116 0.0758608 -0.475349 0.0344656 0.0728599 -0.493996 
0.0439389 0.0690503 -0.511854 0.053093 0.064386 -0.528806 0.0617965 0.058887 -0.544748 
0.0699341 0.0526442 -0.559594 0.077414 0.0458187 -0.57328 0.0841737 0.038632 -0.585769 
0.0901821 0.0313512 -0.59705 0.0954399 0.0242673 -0.607137 0.0999759 0.017671 -0.616067 
0.103842 0.0118267 -0.623895 0.107107 0.00694884 -0.630692 0.109846 0.00318172 -0.636536 
0.112139 0.000586148 -0.641512 0.114055 -0.0008663 -0.645703 0.115657 -0.00129023 -0.649192 
0.116991 -0.000874804 -0.652053 0.118091 0.000135355 -0.654353 0.118975 0.001465 -0.65615 
0.119653 0.00283628 -0.65749 0.120125 0.00399707 -0.65841 0.12039 0.00474681 -0.658936 
0.120444 0.00495711 -0.659083 
LINES 2 100
OFFSETS vtktypeint64
0 100 
CONNECTIVITY vtktypeint64
0 1 2 3 4 5 6 7 8 
9 10 11 12 13 14 15 16 17 
18 19 20 21 22 23 24 25 26 
27 28 29 30 31 32 33 34 35 
36 37 38 39 40 41 42 43 44 
45 46 47 48 49 50 51 52 53 
54 55 56 57 58 59 60 61 62 
63 64 65 66 67 68 69 70 71 
72 73 74 75 76 77 78 79 80 
81 82 83 84 85 86 87 88 89 
90 91 92 93 94 95 96 97 98 
99 
POINT_DATA 100
FIELD FieldData 3
_theta 1 100 double
0 0.031733259127 0.063466518254 0.095199777382 0.12693303651 0.15866629564 0.19039955476 0.22213281389 0.25386607302 
0.28559933214 0.31733259127 0.3490658504 0.38079910953 0.41253236865 0.44426562778 0.47599888691 0.50773214603 0.53946540516 
0.57119866429 0.60293192342 0.63466518254 0.66639844167 0.6981317008 0.72986495992 0.76159821905 0.79333147818 0.82506473731 
0.85679799643 0.88853125556 0.92026451469 0.95199777382 0.98373103294 1.0154642921 1.0471975512 1.0789308103 1.1106640695 
1.1423973286 1.1741305877 1.2058638468 1.237597106 1.2693303651 1.3010636242 1.3327968833 1.3645301425 1.3962634016 
1.4279966607 1.4597299198 1.491463179 1.5231964381 1.5549296972 1.5866629564 1.6183962155 1.6501294746 1.6818627337 
1.7135959929 1.745329252 1.7770625111 1.8087957702 1.8405290294 1.8722622885 1.9039955476 1.9357288068 1.9674620659 
1.999195325 2.0309285841 2.0626618433 2.0943951024 2.1261283615 2.1578616206 2.1895948798 2.2213281389 2.253061398 
2.2847946572 2.3165279163 2.3482611754 2.3799944345 2.4117276937 2.4434609528 2.4751942119 2.506927471 2.5386607302 
2.5703939893 2.6021272484 2.6338605076 2.6655937667 2.6973270258 2.7290602849 2.7607935441 2.7925268032 2.8242600623 
2.8559933214 2.8877265806 2.9194598397 2.9511930988 2.982926358 3.0146596171 3.0463928762 3.0781261353 3.1098593945 
3.1415926536 
_radius 1 100 double
6.8057780718e-16 0.013115159871 0.026230179047 0.039341603426 0.052440742067 0.065510240012 0.078520407788 0.091426000482 0.10416430458 
0.11665539276 0.12880528345 0.14051238092 0.15167678885 0.16221097638 0.17204938096 0.18115448227 0.18951780922 0.1971558142 
0.20410194234 0.21039707861 0.21608069834 0.22118455973 0.22572991185 0.2297282375 0.23318474399 0.23610330942 0.23849147584 
0.24036435842 0.24174687444 0.24267421896 0.24319075679 0.24334741081 0.24319743189 0.24279047916 0.24216540063 0.24134283833 
0.24031940357 0.23906528144 0.2375265514 0.23563240402 0.23330620503 0.23047847241 0.22709955665 0.22315011309 0.21864808018 
0.21365154407 0.20825739694 0.2025960517 0.1968227484 0.19110629641 0.18561647549 0.18051164638 0.17592818881 0.1719730253 
0.16871961346 0.16620655205 0.16443715799 0.16337891811 0.16296310871 0.16308574069 0.16361105313 0.16437882797 0.16521678452 
0.16595783375 0.16645890994 0.16661637382 0.16637467919 0.1657281139 0.16471715606 0.16342094295 0.16194660939 0.1604157078 
0.1589480678 0.15764474143 0.15657396657 0.15576496794 0.15521096232 0.15487744645 0.15471028823 0.15464025687 0.15458295347 
0.1544347046 0.15406668146 0.15332132887 0.1520156054 0.14995285859 0.14694059906 0.14280882232 0.13742443355 0.13069980749 
0.12259553581 0.11311853509 0.10231719693 0.090275383146 0.077106841636 0.062951018841 0.047970351471 0.032348220497 0.016286268801 
7.358433573e-16 
_area 1 100 double
0 0.00043233155442 0.0017150130427 0.0038077643913 0.0066520551857 0.010182886847 0.014342435643 0.019091818668 0.024416196828 
0.030319232749 0.036806603704 0.043863607726 0.051435175572 0.059415434337 0.067650086557 0.075951178349 0.08412124095 0.091981924638 
0.09940101485 0.10631143154 0.11271646793 0.11867623153 0.12427118774 0.12955013642 0.13450037902 0.13907406105 0.14323974225 
0.14700807177 0.15041979749 0.1535139905 0.15630014663 0.15875000414 0.16081248931 0.16244238687 0.16362728402 0.16439704608 
0.1647977049 0.16482622078 0.16437684693 0.16326018426 0.16127269564 0.15826087051 0.15416195334 0.14902441616 0.14300923968 
0.13636783375 0.12939363007 0.12236118787 0.11548858664 0.10894043355 0.10284389579 0.097291497845 0.092334296467 0.087980127876 
0.084202044253 0.080950658915 0.07816543708 0.075786950219 0.073772293882 0.072107258603 0.070799679236 0.069847638926 0.069202304907 
0.068752317802 0.068336536069 0.067752786033 0.066787231475 0.065325501606 0.06339120492 0.0611132366 0.058689606366 0.056341871449 
0.054264538679 0.052583634675 0.051345166847 0.050541432758 0.050139732824 0.050065081364 0.050235504481 0.050624260139 0.051221925607 
0.051981220292 0.052779568678 0.05340961981 0.053606183562 0.053100592508 0.051678982737 0.049224188515 0.045733731988 0.041316047347 
0.036170679606 0.030558843955 0.024770753353 0.019095979063 0.013802200473 0.0091246703884 0.0052634135124 0.0023816908665 0.00060187038036 
4.3056798771e-17 
