# vtk DataFile Version 5.1
vtk output
ASCII
DATASET POLYDATA
POINTS 100 float
0.145752 0.0632234 0.687871 0.145843 0.0634006 0.687692 0.146117 0.0638285 0.686989 
0.146531 0.0644856 0.685768 0.147018 0.0653367 0.684042 0.147493 0.0663344 0.681821 
0.147861 0.0674199 0.67911 0.148022 0.0685257 0.675904 0.147882 0.0695783 0.672187 
0.14736 0.0705019 0.667926 0.146389 0.0712228 0.663078 0.144926 0.0716737 0.657586 
0.142947 0.0717983 0.65139 0.14045 0.0715551 0.644429 0.137451 0.0709206 0.636655 
0.133976 0.0698904 0.628034 0.13006 0.06848 0.618556 0.125738 0.0667222 0.608242 
0.121039 0.0646644 0.597139 0.115984 0.0623636 0.585329 0.110583 0.0598816 0.572916 
0.104832 0.0572795 0.560023 0.0987154 0.0546129 0.546781 0.0922112 0.0519285 0.533322 
0.0852931 0.0492621 0.519764 0.077937 0.0466389 0.506204 0.0701262 0.0440755 0.492709 
0.0618559 0.0415831 0.479313 0.0531371 0.0391721 0.466014 0.0439978 0.0368571 0.452775 
0.0344827 0.0346604 0.439533 0.0246505 0.0326152 0.426203 0.0145699 0.0307664 0.412688 
0.00431409 0.0291686 0.398888 -0.00604554 0.0278829 0.384712 -0.0164446 0.0269703 0.370081 
-0.0268303 0.0264854 0.354934 -0.037164 0.0264683 0.339233 -0.0474216 0.0269381 0.322963 
-0.0575912 0.0278883 0.306122 -0.0676685 0.029284 0.288727 -0.0776502 0.0310628 0.2708 
-0.0875265 0.0331396 0.252365 -0.0972736 0.0354136 0.233446 -0.106846 0.0377782 0.214057 
-0.116174 0.0401322 0.194205 -0.125159 0.0423907 0.173891 -0.133675 0.0444947 0.153109 
-0.141576 0.0464181 0.131851 -0.148703 0.0481705 0.110116 -0.154894 0.0497964 0.0879103 
-0.159996 0.0513692 0.0652553 -0.163882 0.0529819 0.0421893 -0.166457 0.0547351 0.0187694 
-0.167671 0.056723 -0.00492922 -0.167523 0.0590204 -0.0288167 -0.166062 0.061671 -0.0527935 
-0.163384 0.0646796 -0.0767566 -0.159625 0.0680081 -0.100607 -0.154944 0.0715773 -0.124256 
-0.149517 0.0752724 -0.14763 -0.143513 0.0789538 -0.17068 -0.137083 0.0824702 -0.193373 
-0.130346 0.0856729 -0.215704 -0.123384 0.0884301 -0.237682 -0.11623 0.0906386 -0.25933 
-0.108877 0.0922321 -0.28068 -0.10128 0.0931848 -0.301761 -0.0933675 0.0935104 -0.322595 
-0.0850573 0.0932555 -0.343189 -0.0762709 0.0924907 -0.363533 -0.0669501 0.091298 -0.383593 
-0.0570711 0.0897582 -0.403316 -0.0466545 0.0879394 -0.42263 -0.0357708 0.0858878 -0.441446 
-0.0245407 0.0836224 -0.459672 -0.0131289 0.0811352 -0.477209 -0.00173399 0.0783946 -0.49397 
0.00942651 0.0753536 -0.509878 0.020133 0.0719611 -0.524875 0.0301809 0.0681738 -0.538926 
0.0393969 0.0639682 -0.55202 0.0476519 0.0593497 -0.56417 0.0548687 0.0543591 -0.575407 
0.0610262 0.0490737 -0.585782 0.0661565 0.0436042 -0.595354 0.070338 0.0380863 -0.604186 
0.0736843 0.0326697 -0.612342 0.0763306 0.0275043 -0.619874 0.0784192 0.0227266 -0.626823 
0.0800853 0.018447 -0.633215 0.0814462 0.0147407 -0.639058 0.082593 0.0116429 -0.644342 
0.0835867 0.00914833 -0.649045 0.0844585 0.0072168 -0.653131 0.0852144 0.00578193 -0.656559 
0.0858413 0.00476357 -0.659284 0.0863165 0.00408129 -0.661267 0.0866158 0.00366736 -0.662474 
0.0867209 0.00347757 -0.662885 
LINES 2 100
OFFSETS vtktypeint64
0 100 
CONNECTIVITY vtktypeint64
0 1 2 3 4 5 6 7 8 
9 10 11 12 13 14 15 16 17 
18 19 20 21 22 23 24 25 26 
27 28 29 30 31 32 33 34 35 
36 37 38 39 40 41 42 43 44 
45 46 47 48 49 50 51 52 53 
54 55 56 57 58 59 60 61 62 
63 64 65 66 67 68 69 70 71 
72 73 74 75 76 77 78 79 80 
81 82 83 84 85 86 87 88 89 
90 91 92 93 94 95 96 97 98 
99 
POINT_DATA 100
FIELD FieldData 3
_theta 1 100 double
0 0.031733259127 0.063466518254 0.095199777382 0.12693303651 0.15866629564 0.19039955476 0.22213281389 0.25386607302 
0.28559933214 0.31733259127 0.3490658504 0.38079910953 0.41253236865 0.44426562778 0.47599888691 0.50773214603 0.53946540516 
0.57119866429 0.60293192342 0.63466518254 0.66639844167 0.6981317008 0.72986495992 0.76159821905 0.79333147818 0.82506473731 
0.85679799643 0.88853125556 0.92026451469 0.95199777382 0.98373103294 1.0154642921 1.0471975512 1.0789308103 1.1106640695 
1.1423973286 1.1741305877 1.2058638468 1.237597106 1.2693303651 1.3010636242 1.3327968833 1.3645301425 1.3962634016 
1.4279966607 1.4597299198 1.491463179 1.5231964381 1.5549296972 1.5866629564 1.6183962155 1.6501294746 1.6818627337 
1.7135959929 1.745329252 1.7770625111 1.8087957702 1.8405290294 1.8722622885 1.9039955476 1.9357288068 1.9674620659 
1.999195325 2.0309285841 2.0626618433 2.0943951024 2.1261283615 2.1578616206 2.1895948798 2.2213281389 2.253061398 
2.2847946572 2.3165279163 2.3482611754 2.3799944345 2.4117276937 2.4434609528 2.4751942119 2.506927471 2.5386607302 
2.5703939893 2.6021272484 2.6338605076 2.6655937667 2.6973270258 2.7290602849 2.7607935441 2.7925268032 2.8242600623 
2.8559933214 2.8877265806 2.9194598397 2.9511930988 2.982926358 3.0146596171 3.0463928762 3.0781261353 3.1098593945 
3.1415926536 
_radius 1 100 double
1.4486841824e-15 0.013862098195 0.027693502115 0.041453605832 0.055094266399 0.068557477669 0.081774253458 0.094665075953 0.10714212561 
0.11911326092 0.1304874015 0.14118066162 0.15112237671 0.16026014203 0.16856317308 0.17602364914 0.18265608265 0.18849502926 
0.19359158226 0.19800917933 0.20181936057 0.20509815572 0.20792356462 0.2103741052 0.21252785819 0.21446116286 0.2162463113 
0.21794816852 0.21962027116 0.22130125553 0.22301228832 0.22475569262 0.22651451544 0.22825262996 0.22991513785 0.23142920049 
0.23270581738 0.23364334142 0.23413351444 0.23407039072 0.23336172648 0.23194152363 0.22978178187 0.22690135163 0.22337009329 
0.21930720028 0.21487337352 0.21025745 0.20565909868 0.20127024869 0.19725860809 0.1937562705 0.19085470202 0.18860506357 
0.18702114519 0.18608211215 0.18573383605 0.18588985968 0.1864345094 0.18723029917 0.18812988072 0.18899071467 0.18968957352 
0.19013423462 0.1902707506 0.19008578739 0.18960429821 0.18888324797 0.18800234744 0.18705286321 0.18612553382 0.18529850904 
0.18462619404 0.1841300483 0.18379269682 0.18355679561 0.18332945187 0.18299155063 0.18240984071 0.18144906457 0.17998198316 
0.17789626479 0.17509822821 0.17151404132 0.16708914718 0.1617865544 0.15558439861 0.14847305441 0.14045213594 0.13152789062 
0.12171159421 0.11101947981 0.099474490019 0.087109797595 0.073973632452 0.060134513567 0.045685605551 0.030746776793 0.015463196099 
8.5318884788e-16 
_area 1 100 double
0 0.00052140068134 0.0020756880133 0.0046323547442 0.0081385424853 0.012517593949 0.017669292195 0.023472537973 0.029790334204 
0.036476364003 0.043382421824 0.050366222324 0.057299096589 0.064072484497 0.070601399534 0.076823313994 0.082693092313 0.088177699349 
0.093255197675 0.097919598734 0.10218969209 0.10611840722 0.10979787397 0.11335364098 0.11692244398 0.12061456092 0.12447398832 
0.12845990162 0.13246672409 0.1363755949 0.14010471694 0.14361312692 0.14684321906 0.14967716964 0.15196670576 0.15358394339 
0.15445025829 0.15454436976 0.15391953126 0.15273743596 0.15116414678 0.14919794894 0.1467261989 0.14373038673 0.14027268574 
0.13642640625 0.13224587556 0.12776420727 0.12300316742 0.11798589618 0.11275165539 0.10737640355 0.1019984029 0.096852129599 
0.092326483109 0.089059561293 0.087286976186 0.086438556897 0.086018576434 0.085656376205 0.085084701972 0.084153256704 0.082821200568 
0.081117366302 0.079083043136 0.076758656254 0.074219436324 0.071579608107 0.06896367987 0.066485845319 0.064241044283 0.06229170794 
0.06065797641 0.059382182436 0.058383333928 0.057594185551 0.056942857407 0.056374861481 0.055850109512 0.055334445779 0.054795124281 
0.054211822633 0.053663388952 0.052967115932 0.05186067525 0.050171708305 0.047800632343 0.044721379977 0.040978671106 0.036675827121 
0.031957053993 0.026990146596 0.021953956376 0.017031933363 0.012410066868 0.0082756237467 0.0048127575251 0.0021923926399 0.00055647836781 
7.4843699894e-18 
