# vtk DataFile Version 5.1
vtk output
ASCII
DATASET POLYDATA
POINTS 100 float
0.104541 0.0649754 0.70501 0.104796 0.0652265 0.704968 0.105619 0.0658268 0.704655 
0.106915 0.0667362 0.703999 0.108535 0.0678923 0.702891 0.110295 0.0692156 0.701192 
0.111995 0.0706154 0.69875 0.113442 0.0719976 0.695412 0.114469 0.0732708 0.691045 
0.114947 0.0743526 0.685546 0.114799 0.0751743 0.678853 0.113998 0.0756839 0.670953 
0.112562 0.0758468 0.661885 0.110545 0.0756461 0.651736 0.108018 0.0750801 0.640633 
0.105059 0.0741604 0.628733 0.10173 0.0729083 0.616211 0.0980721 0.0713524 0.603243 
0.0940936 0.0695263 0.589996 0.089772 0.0674672 0.576609 0.0850581 0.0652154 0.563191 
0.0798867 0.0628144 0.54981 0.0741902 0.0603115 0.536495 0.0679127 0.0577585 0.523237 
0.0610233 0.055212 0.509994 0.0535249 0.0527327 0.496705 0.0454592 0.0503842 0.483292 
0.0369035 0.04823 0.469677 0.0279639 0.0463302 0.455787 0.018762 0.0447374 0.441564 
0.00942019 0.0434923 0.426963 4.52646e-05 0.0426201 0.41196 -0.00928446 0.0421273 0.396544 
-0.0185282 0.0420011 0.380712 -0.0276854 0.0422096 0.364464 -0.0367909 0.0427047 0.347796 
-0.0459042 0.043427 0.330689 -0.0550922 0.0443112 0.313109 -0.0644097 0.045294 0.295003 
-0.0738791 0.0463201 0.276302 -0.0834726 0.0473492 0.256923 -0.0931003 0.0483602 0.236781 
-0.102606 0.0493541 0.215797 -0.111772 0.0503537 0.193912 -0.120333 0.0514009 0.171094 
-0.127997 0.0525519 0.147354 -0.134472 0.05387 0.122745 -0.139495 0.0554176 0.0973707 
-0.142862 0.057248 0.0713776 -0.144448 0.0593983 0.0449503 -0.144224 0.0618831 0.0182986 
-0.142261 0.0646915 -0.00835705 -0.138726 0.067786 -0.0348029 -0.133865 0.0711049 -0.0608481 
-0.127979 0.0745664 -0.0863394 -0.121393 0.0780754 -0.111173 -0.114428 0.0815309 -0.135299 
-0.107366 0.0848339 -0.158725 -0.100431 0.0878942 -0.181509 -0.0937679 0.0906367 -0.203749 
-0.0874386 0.0930042 -0.22557 -0.0814258 0.0949591 -0.247105 -0.0756455 0.0964819 -0.26848 
-0.0699685 0.097568 -0.289794 -0.0642442 0.0982229 -0.311112 -0.0583269 0.0984568 -0.332449 
-0.0520979 0.098279 -0.353773 -0.0454833 0.097693 -0.375006 -0.0384628 0.0966941 -0.396029 
-0.0310706 0.0952675 -0.416702 -0.0233883 0.0933895 -0.436873 -0.0155302 0.0910303 -0.456395 
-0.00762475 0.0881579 -0.475145 0.00020493 0.084744 -0.493031 0.00785941 0.0807688 -0.510004 
0.0152762 0.0762266 -0.526059 0.0224365 0.0711293 -0.541229 0.0293647 0.0655085 -0.555586 
0.0361196 0.0594163 -0.569217 0.0427808 0.0529233 -0.582223 0.0494302 0.0461158 -0.594692 
0.0561333 0.0390905 -0.606698 0.062922 0.03195 -0.618279 0.0697827 0.0247969 -0.62944 
0.0766512 0.0177292 -0.640148 0.0834149 0.0108359 -0.650338 0.0899235 0.00419479 -0.65992 
0.0960057 -0.00212929 -0.668793 0.10149 -0.00808412 -0.676857 0.106227 -0.013629 -0.684028 
0.110111 -0.0187328 -0.69025 0.113091 -0.0233714 -0.695502 0.115185 -0.0275257 -0.699802 
0.116474 -0.0311793 -0.703206 0.117097 -0.0343175 -0.705803 0.117231 -0.036926 -0.707702 
0.117069 -0.0389918 -0.709019 0.116797 -0.0405028 -0.709866 0.116569 -0.0414492 -0.710333 
0.116487 -0.041824 -0.710479 
LINES 2 100
OFFSETS vtktypeint64
0 100 
CONNECTIVITY vtktypeint64
0 1 2 3 4 5 6 7 8 
9 10 11 12 13 14 15 16 17 
18 19 20 21 22 23 24 25 26 
27 28 29 30 31 32 33 34 35 
36 37 38 39 40 41 42 43 44 
45 46 47 48 49 50 51 52 53 
54 55 56 57 58 59 60 61 62 
63 64 65 66 67 68 69 70 71 
72 73 74 75 76 77 78 79 80 
81 82 83 84 85 86 87 88 89 
90 91 92 93 94 95 96 97 98 
99 
POINT_DATA 100
FIELD FieldData 3
_theta 1 100 double
0 0.031733259127 0.063466518254 0.095199777382 0.12693303651 0.15866629564 0.19039955476 0.22213281389 0.25386607302 
0.28559933214 0.31733259127 0.3490658504 0.38079910953 0.41253236865 0.44426562778 0.47599888691 0.50773214603 0.53946540516 
0.57119866429 0.60293192342 0.63466518254 0.66639844167 0.6981317008 0.72986495992 0.76159821905 0.79333147818 0.82506473731 
0.85679799643 0.88853125556 0.92026451469 0.95199777382 0.98373103294 1.0154642921 1.0471975512 1.0789308103 1.1106640695 
1.1423973286 1.1741305877 1.2058638468 1.237597106 1.2693303651 1.3010636242 1.3327968833 1.3645301425 1.3962634016 
1.4279966607 1.4597299198 1.491463179 1.5231964381 1.5549296972 1.5866629564 1.6183962155 1.6501294746 1.6818627337 
1.7135959929 1.745329252 1.7770625111 1.8087957702 1.8405290294 1.8722622885 1.9039955476 1.9357288068 1.9674620659 
1.999195325 2.0309285841 2.0626618433 2.0943951024 2.1261283615 2.1578616206 2.1895948798 2.2213281389 2.253061398 
2.2847946572 2.3165279163 2.3482611754 2.3799944345 2.4117276937 2.4434609528 2.4751942119 2.506927471 2.5386607302 
2.5703939893 2.6021272484 2.6338605076 2.6655937667 2.6973270258 2.7290602849 2.7607935441 2.7925268032 2.8242600623 
2.8559933214 2.8877265806 2.9194598397 2.9511930988 2.982926358 3.0146596171 3.0463928762 3.0781261353 3.1098593945 
3.1415926536 
_radius 1 100 double
4.7752497884e-16 0.014132387731 0.028181644863 0.042057609098 0.055673984972 0.068948409275 0.081801133931 0.09415353113 0.10592783112 
0.11704905632 0.12744928172 0.13707351038 0.14588590724 0.15387501849 0.16105688455 0.16747547903 0.17320046812 0.17832270437 
0.18294804899 0.18719007778 0.19116209159 0.19496879488 0.19869814537 0.20241416517 0.20615166419 0.20991355987 0.21367083181 
0.21736458255 0.22090957511 0.22419891564 0.22710990569 0.22951125329 0.23127174056 0.23227014505 0.23240581086 0.23160890127 
0.22984916538 0.22714208088 0.22355149488 0.21918832654 0.21420544262 0.20878936857 0.20314991661 0.19750894783 0.192089229 
0.18710373597 0.18274507858 0.17917449573 0.17651053647 0.17481893776 0.17410630737 0.174319835 0.17535330586 0.17705757784 
0.17925301222 0.18174236273 0.18432407213 0.18680633321 0.18902133236 0.19083781927 0.1921697213 0.19297919878 0.19327375887 
0.19309821957 0.19252317038 0.19163202643 0.19050879446 0.18922829451 0.18784989957 0.18641500706 0.18494766727 0.18345730684 
0.1819424159 0.18039430079 0.17880027717 0.17714584492 0.17541558138 0.17359286208 0.17165888115 0.16959144587 0.16736360702 
0.16494169577 0.16228221767 0.15932755349 0.15600140748 0.15220587521 0.14782214849 0.14271591827 0.1367469936 0.12978146855 
0.12170446149 0.11243181113 0.10191964189 0.090171106699 0.077239874044 0.063230170604 0.048293488166 0.032622377079 0.016441976594 
1.0837512671e-15 
_area 1 100 double
0 0.00050137338263 0.0020001220303 0.0044785313485 0.0079026763387 0.012218318797 0.017348107371 0.023190298824 0.029618476711 
0.036482223637 0.043609850815 0.050814923464 0.057907628963 0.064710212264 0.071073782863 0.076892920272 0.082115226008 0.086744924126 
0.090841632431 0.094516194284 0.097924227257 0.1012548345 0.10470868705 0.10846330184 0.11263775093 0.11727358752 0.12232881596 
0.12767408704 0.13309729914 0.13832691849 0.14307001547 0.14705165307 0.15004478475 0.15188682791 0.15248473377 0.15181295584 
0.14990843922 0.14686466389 0.1428243735 0.13796942725 0.13250707697 0.12665428023 0.12062334223 0.11461151159 0.10879467611 
0.10332271449 0.098312142352 0.093833678831 0.089910224538 0.086575882464 0.084039817374 0.08260376377 0.082222596426 0.082711196206 
0.083851152603 0.085394263481 0.087074124585 0.088621059456 0.089782859836 0.090351150188 0.090185593128 0.089230981157 0.087521007844 
0.08516603794 0.082328647674 0.079195683502 0.075955949937 0.072786079038 0.069839798628 0.067236744337 0.065053440905 0.063310319623 
0.061953365171 0.06090300741 0.060116354668 0.059525460741 0.059089437379 0.058785271154 0.058601496423 0.058374536453 0.057914767942 
0.057177649884 0.056154978354 0.054853840095 0.053271468425 0.051370276395 0.049071490174 0.046278094814 0.042913102575 0.038950286669 
0.034429461248 0.02946015995 0.024216891412 0.018926300913 0.013847158061 0.0092462110171 0.0053740443663 0.0024445145083 0.00061964060731 
5.1708228088e-17 
