# vtk DataFile Version 5.1
vtk output
ASCII
DATASET POLYDATA
POINTS 100 float
0.17712 0.0571429 0.690514 0.177153 0.0573511 0.690412 0.177338 0.0578102 0.689978 
0.177622 0.0584912 0.689212 0.177918 0.0593493 0.688112 0.178121 0.0603276 0.686669 
0.178114 0.0613623 0.684865 0.177781 0.0623881 0.682672 0.17702 0.0633439 0.680041 
0.175747 0.0641781 0.676916 0.173906 0.0648524 0.673224 0.171469 0.065345 0.668889 
0.168435 0.0656513 0.663836 0.164823 0.0657836 0.658001 0.160665 0.0657685 0.651339 
0.156 0.0656432 0.643828 0.150864 0.0654503 0.635479 0.145288 0.0652327 0.626332 
0.139287 0.0650278 0.616457 0.132867 0.0648627 0.605947 0.126026 0.0647502 0.594908 
0.118757 0.0646868 0.583449 0.111058 0.0646519 0.571671 0.102936 0.0646096 0.559657 
0.0944171 0.0645119 0.547464 0.0855482 0.0643035 0.535122 0.0763974 0.0639276 0.52263 
0.0670523 0.0633325 0.509966 0.0576124 0.0624779 0.49709 0.0481796 0.0613399 0.483956 
0.0388475 0.0599156 0.470525 0.0296888 0.0582248 0.456772 0.0207462 0.0563103 0.442693 
0.0120248 0.0542353 0.42831 0.00349001 0.0520798 0.413667 -0.00492995 0.0499345 0.398821 
-0.0133358 0.0478935 0.383838 -0.0218443 0.0460474 0.368772 -0.0305723 0.0444757 0.353654 
-0.0396184 0.043241 0.338481 -0.0490457 0.0423843 0.323206 -0.0588671 0.0419225 0.307733 
-0.0690354 0.0418481 0.291918 -0.0794395 0.0421313 0.275586 -0.089908 0.042724 0.258537 
-0.10022 0.0435657 0.240572 -0.11012 0.0445899 0.221515 -0.119344 0.0457315 0.20123 
-0.127638 0.0469331 0.179645 -0.134785 0.0481506 0.156762 -0.140627 0.049357 0.132661 
-0.145077 0.0505442 0.107499 -0.148132 0.0517226 0.081498 -0.149872 0.0529185 0.0549243 
-0.15045 0.0541697 0.0280638 -0.150081 0.0555198 0.00119514 -0.149019 0.0570113 -0.0254369 
-0.147529 0.0586792 -0.0516445 -0.145866 0.060545 -0.0773129 -0.144244 0.0626116 -0.102408 
-0.14282 0.06486 -0.126976 -0.141677 0.0672486 -0.151128 -0.140816 0.0697133 -0.175025 
-0.14016 0.0721707 -0.198854 -0.139561 0.0745227 -0.222794 -0.138817 0.076662 -0.246996 
-0.13769 0.0784787 -0.271555 -0.135932 0.0798673 -0.296499 -0.133309 0.0807327 -0.321774 
-0.129618 0.0809958 -0.347252 -0.124712 0.0805979 -0.372738 -0.118505 0.0795036 -0.397986 
-0.110981 0.0777018 -0.422729 -0.102193 0.0752059 -0.446696 -0.0922544 0.0720517 -0.469641 
-0.0813305 0.0682954 -0.491366 -0.0696202 0.0640094 -0.511731 -0.0573416 0.0592787 -0.530666 
-0.0447147 0.0541968 -0.54817 -0.0319478 0.0488616 -0.564299 -0.0192251 0.0433714 -0.579159 
-0.0066999 0.037822 -0.592885 0.00550939 0.0323034 -0.60562 0.0173185 0.0268983 -0.617502 
0.0286736 0.0216798 -0.628644 0.0395443 0.0167105 -0.639128 0.0499161 0.0120416 -0.648996 
0.0597814 0.00771312 -0.658259 0.0691321 0.00375341 -0.666893 0.0779523 0.000180039 -0.674859 
0.0862144 -0.00299954 -0.682105 0.0938767 -0.0057868 -0.688585 0.100883 -0.00819066 -0.694262 
0.107167 -0.0102258 -0.699117 0.112654 -0.0119106 -0.70315 0.117266 -0.0132654 -0.706378 
0.12093 -0.01431 -0.708832 0.123584 -0.0150621 -0.710545 0.125179 -0.0155356 -0.711549 
0.125684 -0.0157389 -0.711866 
LINES 2 100
OFFSETS vtktypeint64
0 100 
CONNECTIVITY vtktypeint64
0 1 2 3 4 5 6 7 8 
9 10 11 12 13 14 15 16 17 
18 19 20 21 22 23 24 25 26 
27 28 29 30 31 32 33 34 35 
36 37 38 39 40 41 42 43 44 
45 46 47 48 49 50 51 52 53 
54 55 56 57 58 59 60 61 62 
63 64 65 66 67 68 69 70 71 
72 73 74 75 76 77 78 79 80 
81 82 83 84 85 86 87 88 89 
90 91 92 93 94 95 96 97 98 
99 
POINT_DATA 100
FIELD FieldData 3
_theta 1 100 double
0 0.031733259127 0.063466518254 0.095199777382 0.12693303651 0.15866629564 0.19039955476 0.22213281389 0.25386607302 
0.28559933214 0.31733259127 0.3490658504 0.38079910953 0.41253236865 0.44426562778 0.47599888691 0.50773214603 0.53946540516 
0.57119866429 0.60293192342 0.63466518254 0.66639844167 0.6981317008 0.72986495992 0.76159821905 0.79333147818 0.82506473731 
0.85679799643 0.88853125556 0.92026451469 0.95199777382 0.98373103294 1.0154642921 1.0471975512 1.0789308103 1.1106640695 
1.1423973286 1.1741305877 1.2058638468 1.237597106 1.2693303651 1.3010636242 1.3327968833 1.3645301425 1.3962634016 
1.4279966607 1.4597299198 1.491463179 1.5231964381 1.5549296972 1.5866629564 1.6183962155 1.6501294746 1.6818627337 
1.7135959929 1.745329252 1.7770625111 1.8087957702 1.8405290294 1.8722622885 1.9039955476 1.9357288068 1.9674620659 
1.999195325 2.0309285841 2.0626618433 2.0943951024 2.1261283615 2.1578616206 2.1895948798 2.2213281389 2.253061398 
2.2847946572 2.3165279163 2.3482611754 2.3799944345 2.4117276937 2.4434609528 2.4751942119 2.506927471 2.5386607302 
2.5703939893 2.6021272484 2.6338605076 2.6655937667 2.6973270258 2.7290602849 2.7607935441 2.7925268032 2.8242600623 
2.8559933214 2.8877265806 2.9194598397 2.9511930988 2.982926358 3.0146596171 3.0463928762 3.0781261353 3.1098593945 
3.1415926536 
_radius 1 100 double
4.0412728104e-16 0.014280609564 0.028429206428 0.042316942655 0.055824905653 0.068847650164 0.081295318908 0.093094329819 0.10418681599 
0.11452911589 0.12408963575 0.13284641418 0.14078479131 0.14789571649 0.15417529664 0.15962603531 0.1642598009 0.16810201267 
0.17119603436 0.17360647144 0.17542008932 0.17674348845 0.17769748631 0.17840917301 0.17900340467 0.179595581 0.18028669607 
0.1811602008 0.18227901669 0.18368090804 0.1853715704 0.18731667576 0.18943573088 0.1916010444 0.19364405472 0.19536922549 
0.19657361296 0.19706886637 0.19670215925 0.19537321088 0.1930457268 0.18975280184 0.18559670479 0.18074377018 0.17541482706 
0.16987092334 0.16439360001 0.15925943717 0.15471067417 0.15092695167 0.14800546809 0.14595544564 0.14470757936 0.14413348925 
0.144067968 0.14432852802 0.14472996278 0.14509417407 0.14525695896 0.14507426071 0.14443050657 0.14325014833 0.14151027745 
0.13924951537 0.13656880031 0.13362271535 0.13060308319 0.12771805137 0.12516983801 0.12313345828 0.12173791555 0.12105125385 
0.12107171499 0.1217279224 0.12288983564 0.1243891085 0.12604434252 0.12768518895 0.12916960145 0.13039062655 0.13127255961 
0.13175981447 0.13180366911 0.13135138604 0.13033996183 0.12869447775 0.12632965945 0.12315295849 0.11906796316 0.1139778339 
0.10778933605 0.10041855878 0.09179932212 0.081894529831 0.070709508662 0.058305088257 0.044807321763 0.030410729897 0.015372902092 
1.1510153026e-15 
_area 1 100 double
0 0.0004559475802 0.0018096388481 0.0040200873635 0.0070234468649 0.010738374869 0.015071391098 0.019921009456 0.025179918586 
0.030735124075 0.036466632519 0.042245988361 0.047936646186 0.053398180717 0.058495228259 0.063110291549 0.06715811595 0.070598657913 
0.073445411401 0.075765911541 0.077672223553 0.079301775615 0.080792347935 0.082258096323 0.083775095853 0.08538228713 0.087095828803 
0.088927612946 0.090897993428 0.093037397719 0.095376807052 0.097930880744 0.10068007581 0.1035565678 0.10643278565 0.1091136697 
0.11134574777 0.1128507398 0.11337125871 0.11271499706 0.11079226744 0.10764184797 0.10343762526 0.098470643902 0.093108274863 
0.087739675911 0.082714947535 0.078282761798 0.074549416849 0.071487943451 0.06898803135 0.06691184799 0.065144216691 0.063666152832 
0.062619560382 0.061943230323 0.061361524108 0.060707825814 0.05990360709 0.058910117668 0.057701072726 0.056259081061 0.054586880009 
0.052724451045 0.050722908907 0.048645226881 0.046592883856 0.044660536602 0.042929697444 0.041465188332 0.040309931954 0.039481969799 
0.038974245962 0.038756489382 0.038780024107 0.038985743147 0.039314106513 0.039714973096 0.040153265312 0.040606937875 0.041056470447 
0.041468285473 0.041777408255 0.041878032386 0.041631479366 0.040892881792 0.039544725004 0.037522255242 0.034824511445 0.031513075304 
0.027703012358 0.023549763595 0.019234815476 0.014952354081 0.010898278591 0.007261663189 0.0042174623398 0.0019186446559 0.00048652957494 
8.6736173799e-19 
