# vtk DataFile Version 5.1
vtk output
ASCII
DATASET POLYDATA
POINTS 100 float
0.118382 0.0497133 0.810212 0.118783 0.0497803 0.809977 0.120035 0.0498291 0.809081 
0.122034 0.0498679 0.807526 0.124615 0.0499102 0.805314 0.127575 0.0499733 0.802444 
0.130684 0.0500764 0.798901 0.13371 0.0502386 0.794661 0.136439 0.0504768 0.78968 
0.138688 0.0508033 0.7839 0.140319 0.0512248 0.777251 0.141242 0.0517409 0.769659 
0.141413 0.0523439 0.761057 0.140828 0.0530186 0.751393 0.139509 0.0537436 0.740645 
0.137495 0.0544918 0.728827 0.134827 0.0552323 0.715999 0.131534 0.0559327 0.702262 
0.12763 0.0565602 0.687759 0.123106 0.0570841 0.672666 0.11794 0.0574774 0.657172 
0.112097 0.0577184 0.641471 0.105545 0.0577919 0.625737 0.0982615 0.0576902 0.610112 
0.0902512 0.0574136 0.594687 0.0815506 0.056971 0.5795 0.0722345 0.0563796 0.564529 
0.0624148 0.0556647 0.549698 0.0522347 0.0548591 0.534888 0.0418565 0.0540022 0.519953 
0.031447 0.0531388 0.504736 0.0211599 0.0523175 0.489091 0.0111195 0.0515887 0.472899 
0.00140673 0.0510031 0.456081 -0.00794945 0.0506088 0.438609 -0.0169742 0.0504498 0.420498 
-0.0257419 0.0505633 0.401809 -0.0343634 0.0509778 0.382631 -0.0429689 0.0517116 0.363065 
-0.0516854 0.0527719 0.343204 -0.0606138 0.0541536 0.323117 -0.0698078 0.0558403 0.302833 
-0.0792562 0.0578045 0.282331 -0.0888735 0.0600093 0.261537 -0.0984977 0.0624103 0.240332 
-0.107897 0.0649581 0.218559 -0.116788 0.0676005 0.196048 -0.124854 0.0702854 0.17263 
-0.131779 0.0729629 0.148169 -0.137271 0.0755873 0.122574 -0.141094 0.0781184 0.0958207 
-0.14309 0.0805227 0.0679608 -0.143196 0.0827734 0.0391213 -0.141452 0.0848502 0.0094991 
-0.137994 0.0867391 -0.0206537 -0.13305 0.088431 -0.0510509 -0.12691 0.0899212 -0.0813956 
-0.119906 0.0912079 -0.111406 -0.112379 0.0922917 -0.140839 -0.10465 0.0931744 -0.169507 
-0.0969935 0.0938592 -0.197289 -0.0896115 0.0943492 -0.22414 -0.0826243 0.0946482 -0.250077 
-0.0760625 0.0947593 -0.275181 -0.0698709 0.094685 -0.299567 -0.0639202 0.0944265 -0.323376 
-0.0580251 0.0939829 -0.346747 -0.051967 0.09335 -0.369801 -0.0455183 0.0925197 -0.392626 
-0.0384668 0.0914786 -0.415271 -0.0306359 0.090208 -0.437736 -0.0219017 0.0886831 -0.459985 
-0.012203 0.0868734 -0.481946 -0.00154505 0.0847445 -0.503527 0.0100024 0.0822591 -0.524628 
0.0223131 0.0793804 -0.54516 0.035216 0.0760748 -0.565048 0.0485098 0.0723158 -0.584245 
0.0619781 0.0680876 -0.602734 0.0754046 0.0633882 -0.620526 0.0885859 0.0582325 -0.637654 
0.101342 0.0526536 -0.654166 0.113521 0.0467037 -0.670111 0.125008 0.0404528 -0.685532 
0.13572 0.0339866 -0.700457 0.145606 0.0274031 -0.714887 0.154643 0.0208083 -0.728799 
0.162831 0.0143107 -0.742142 0.170187 0.00801658 -0.754843 0.17674 0.00202508 -0.766811 
0.182526 -0.00357588 -0.777948 0.187583 -0.00871253 -0.788154 0.191948 -0.0133268 -0.797336 
0.195657 -0.0173764 -0.805414 0.198741 -0.0208338 -0.812321 0.201227 -0.0236835 -0.818011 
0.203135 -0.0259196 -0.822451 0.204482 -0.0275415 -0.82562 0.205281 -0.0285514 -0.827509 
0.205538 -0.028951 -0.828113 
LINES 2 100
OFFSETS vtktypeint64
0 100 
CONNECTIVITY vtktypeint64
0 1 2 3 4 5 6 7 8 
9 10 11 12 13 14 15 16 17 
18 19 20 21 22 23 24 25 26 
27 28 29 30 31 32 33 34 35 
36 37 38 39 40 41 42 43 44 
45 46 47 48 49 50 51 52 53 
54 55 56 57 58 59 60 61 62 
63 64 65 66 67 68 69 70 71 
72 73 74 75 76 77 78 79 80 
81 82 83 84 85 86 87 88 89 
90 91 92 93 94 95 96 97 98 
99 
POINT_DATA 100
FIELD FieldData 3
_theta 1 100 double
0 0.031733259127 0.063466518254 0.095199777382 0.12693303651 0.15866629564 0.19039955476 0.22213281389 0.25386607302 
0.28559933214 0.31733259127 0.3490658504 0.38079910953 0.41253236865 0.44426562778 0.47599888691 0.50773214603 0.53946540516 
0.57119866429 0.60293192342 0.63466518254 0.66639844167 0.6981317008 0.72986495992 0.76159821905 0.79333147818 0.82506473731 
0.85679799643 0.88853125556 0.92026451469 0.95199777382 0.98373103294 1.0154642921 1.0471975512 1.0789308103 1.1106640695 
1.1423973286 1.1741305877 1.2058638468 1.237597106 1.2693303651 1.3010636242 1.3327968833 1.3645301425 1.3962634016 
1.4279966607 1.4597299198 1.491463179 1.5231964381 1.5549296972 1.5866629564 1.6183962155 1.6501294746 1.6818627337 
1.7135959929 1.745329252 1.7770625111 1.8087957702 1.8405290294 1.8722622885 1.9039955476 1.9357288068 1.9674620659 
1.999195325 2.0309285841 2.0626618433 2.0943951024 2.1261283615 2.1578616206 2.1895948798 2.2213281389 2.253061398 
2.2847946572 2.3165279163 2.3482611754 2.3799944345 2.4117276937 2.4434609528 2.4751942119 2.506927471 2.5386607302 
2.5703939893 2.6021272484 2.6338605076 2.6655937667 2.6973270258 2.7290602849 2.7607935441 2.7925268032 2.8242600623 
2.8559933214 2.8877265806 2.9194598397 2.9511930988 2.982926358 3.0146596171 3.0463928762 3.0781261353 3.1098593945 
3.1415926536 
_radius 1 100 double
1.1469343051e-15 0.017293606578 0.034375785119 0.051040428137 0.067101020162 0.082398736848 0.09680855791 0.11024323653 0.12265511006 
0.13403578222 0.14441373025 0.15384995707 0.16243193818 0.17026626529 0.1774704805 0.18416456132 0.19046239064 0.19646349513 
0.20224552783 0.20785835268 0.21332082964 0.21862116583 0.22372100905 0.22856266529 0.23307827777 0.23719962023 0.24086721563 
0.24403762492 0.24668790166 0.24881646625 0.25044014589 0.25158784544 0.25229204564 0.25257977181 0.25246467262 0.25194149563 
0.25098380143 0.24954541581 0.24756585415 0.24497960789 0.24172865211 0.23777688011 0.23312457003 0.22782060017 0.22196999676 
0.21573445556 0.20932372713 0.20297659577 0.19693259176 0.19140023539 0.18653252357 0.18242006221 0.17910344969 0.17659505936 
0.17489598263 0.17399875548 0.17387538276 0.17445830486 0.17562657141 0.17720754279 0.17899560907 0.18078022273 0.18237308953 
0.18362792999 0.18445062315 0.1848001815 0.1846823714 0.18413869256 0.18323383563 0.18204428675 0.18064944782 0.17912503815 
0.17753744832 0.17593773778 0.17435509198 0.17279112486 0.17121751754 0.16957937111 0.16780502437 0.16582044111 0.16356387642 
0.16099566172 0.15809910971 0.1548714091 0.15130705667 0.14737942822 0.14302687439 0.13814765852 0.13260456962 0.12623736696 
0.11888023938 0.11038156531 0.10062357519 0.089539743628 0.077127990856 0.063458221906 0.048673398367 0.032984100164 0.016657227362 
2.4011125446e-16 
_area 1 100 double
0 0.00066315182954 0.0026403814587 0.0058904228695 0.0103320831 0.01583395313 0.022211656422 0.029236313936 0.036653674078 
0.04421007553 0.051679748643 0.058887782538 0.065724177949 0.072146697514 0.078173444258 0.083869187613 0.089330401667 0.094671436201 
0.10001040392 0.10545314463 0.11107783819 0.11692490317 0.12299240564 0.12923270696 0.13554889018 0.14179665991 0.14779983199 
0.1533809098 0.15839796797 0.16277363112 0.16650404674 0.16964293414 0.17226542318 0.17442577739 0.17612678573 0.17731251269 
0.17788398481 0.17772638618 0.17673073508 0.1747978802 0.17183368507 0.1677618484 0.16255961179 0.15629272171 0.14913424336 
0.14136650951 0.13336352902 0.12554456574 0.1182805992 0.11177148461 0.10605839953 0.10190685555 0.098785146333 0.095913345966 
0.093312373261 0.091110691396 0.089433218093 0.088349680048 0.087853855083 0.087864494987 0.088237165898 0.088783543625 0.089296683853 
0.089587367676 0.089522566996 0.089047491818 0.08818349497 0.08700238009 0.085580794639 0.083956234903 0.082121971111 0.080057623794 
0.077760854462 0.075266242572 0.072665135185 0.070100138275 0.067729933949 0.065677840995 0.063968026686 0.062515624978 0.06117794567 
0.059823488266 0.058365794307 0.056757593066 0.054963327395 0.052931482341 0.05058423021 0.047828241479 0.044576706905 0.040771548563 
0.036401884567 0.03151904063 0.026247249519 0.020786263302 0.015401562365 0.010401065388 0.0061020367087 0.0027950096063 0.00071151393743 
3.5561831258e-17 
