# vtk DataFile Version 5.1
vtk output
ASCII
DATASET POLYDATA
POINTS 100 float
0.200575 0.0312161 0.697251 0.20055 0.0312518 0.696938 0.200609 0.0312502 0.695856 
0.200748 0.0312509 0.69404 0.200957 0.0313137 0.691537 0.201219 0.0315098 0.688399 
0.201514 0.0319121 0.68467 0.201812 0.0325837 0.680378 0.20208 0.0335694 0.675522 
0.202275 0.0348883 0.670073 0.202344 0.0365301 0.663972 0.202226 0.0384554 0.657145 
0.201848 0.0405997 0.64951 0.201132 0.0428804 0.640998 0.199988 0.0452067 0.631567 
0.198325 0.0474894 0.621219 0.196052 0.0496513 0.610007 0.193083 0.0516349 0.598043 
0.189346 0.0534084 0.585491 0.184788 0.0549669 0.572553 0.179382 0.0563315 0.559453 
0.173132 0.0575437 0.546413 0.166074 0.0586583 0.533627 0.158281 0.0597347 0.521241 
0.149855 0.0608277 0.509336 0.140923 0.06198 0.497915 0.13163 0.0632164 0.486906 
0.122127 0.0645413 0.476172 0.112557 0.0659387 0.465525 0.103046 0.067376 0.454755 
0.0936913 0.0688091 0.443653 0.0845523 0.07019 0.432038 0.0756497 0.0714732 0.419782 
0.0669638 0.0726231 0.406818 0.0584401 0.0736174 0.393153 0.0499987 0.0744499 0.378854 
0.0415472 0.0751291 0.364041 0.0329953 0.0756755 0.348858 0.0242696 0.0761158 0.333453 
0.0153272 0.076477 0.317949 0.0061659 0.0767798 0.302421 -0.00317061 0.0770339 0.286883 
-0.0125928 0.0772349 0.271279 -0.0219717 0.0773637 0.255491 -0.0311503 0.0773894 0.239352 
-0.0399599 0.0772743 0.22267 -0.0482387 0.0769807 0.205254 -0.0558511 0.0764795 0.186941 
-0.0627055 0.0757569 0.167624 -0.0687669 0.074821 0.147262 -0.0740651 0.0737047 0.125894 
-0.0786944 0.0724659 0.103628 -0.0828064 0.0711833 0.0806286 -0.0865949 0.0699495 0.05709 
-0.0902747 0.0688607 0.0332066 -0.0940571 0.0680055 0.00914116 -0.0981224 0.0674529 -0.0150018 
-0.102595 0.0672426 -0.0391952 -0.107524 0.0673767 -0.0634969 -0.112863 0.0678169 -0.0880429 
-0.118474 0.0684851 -0.113028 -0.124123 0.069269 -0.138673 -0.129495 0.0700314 -0.165189 
-0.134223 0.0706236 -0.192735 -0.137909 0.0708992 -0.221378 -0.140162 0.0707287 -0.251067 
-0.140631 0.0700123 -0.281616 -0.139041 0.0686897 -0.312704 -0.135213 0.0667452 -0.343894 
-0.129089 0.0642092 -0.374667 -0.120734 0.0611538 -0.404467 -0.11034 0.0576849 -0.432757 
-0.098208 0.0539311 -0.459067 -0.084727 0.0500308 -0.483047 -0.0703423 0.0461189 -0.504504 
-0.0555209 0.0423154 -0.523414 -0.0407152 0.038716 -0.539928 -0.0263283 0.0353867 -0.55435 
-0.0126851 0.0323613 -0.567101 -1.10913e-05 0.0296442 -0.578667 0.0115794 0.0272148 -0.589546 
0.0220839 0.0250352 -0.600188 0.0316025 0.0230585 -0.610952 0.0403186 0.021237 -0.622063 
0.048473 0.0195296 -0.633597 0.0563327 0.0179067 -0.645483 0.0641581 0.0163525 -0.657518 
0.0721716 0.0148652 -0.669405 0.0805308 0.0134546 -0.680794 0.089308 0.0121382 -0.691338 
0.0984787 0.0109359 -0.70073 0.10792 0.00986606 -0.708749 0.117417 0.00894099 -0.715284 
0.126682 0.00816489 -0.720338 0.135374 0.0075332 -0.724021 0.143133 0.00703383 -0.726528 
0.149605 0.00664983 -0.728102 0.15448 0.00636301 -0.728992 0.15751 0.00615769 -0.729411 
0.15854 0.00602403 -0.729504 
LINES 2 100
OFFSETS vtktypeint64
0 100 
CONNECTIVITY vtktypeint64
0 1 2 3 4 5 6 7 8 
9 10 11 12 13 14 15 16 17 
18 19 20 21 22 23 24 25 26 
27 28 29 30 31 32 33 34 35 
36 37 38 39 40 41 42 43 44 
45 46 47 48 49 50 51 52 53 
54 55 56 57 58 59 60 61 62 
63 64 65 66 67 68 69 70 71 
72 73 74 75 76 77 78 79 80 
81 82 83 84 85 86 87 88 89 
90 91 92 93 94 95 96 97 98 
99 
POINT_DATA 100
FIELD FieldData 3
_theta 1 100 double
0 0.031733259127 0.063466518254 0.095199777382 0.12693303651 0.15866629564 0.19039955476 0.22213281389 0.25386607302 
0.28559933214 0.31733259127 0.3490658504 0.38079910953 0.41253236865 0.44426562778 0.47599888691 0.50773214603 0.53946540516 
0.57119866429 0.60293192342 0.63466518254 0.66639844167 0.6981317008 0.72986495992 0.76159821905 0.79333147818 0.82506473731 
0.85679799643 0.88853125556 0.92026451469 0.95199777382 0.98373103294 1.0154642921 1.0471975512 1.0789308103 1.1106640695 
1.1423973286 1.1741305877 1.2058638468 1.237597106 1.2693303651 1.3010636242 1.3327968833 1.3645301425 1.3962634016 
1.4279966607 1.4597299198 1.491463179 1.5231964381 1.5549296972 1.5866629564 1.6183962155 1.6501294746 1.6818627337 
1.7135959929 1.745329252 1.7770625111 1.8087957702 1.8405290294 1.8722622885 1.9039955476 1.9357288068 1.9674620659 
1.999195325 2.0309285841 2.0626618433 2.0943951024 2.1261283615 2.1578616206 2.1895948798 2.2213281389 2.253061398 
2.2847946572 2.3165279163 2.3482611754 2.3799944345 2.4117276937 2.4434609528 2.4751942119 2.506927471 2.5386607302 
2.5703939893 2.6021272484 2.6338605076 2.6655937667 2.6973270258 2.7290602849 2.7607935441 2.7925268032 2.8242600623 
2.8559933214 2.8877265806 2.9194598397 2.9511930988 2.982926358 3.0146596171 3.0463928762 3.0781261353 3.1098593945 
3.1415926536 
_radius 1 100 double
8.3302136589e-16 0.012629984663 0.025199076722 0.037633217615 0.049831669326 0.061662174062 0.07296394651 0.083558059271 0.093263591857 
0.10191717049 0.10939312342 0.11562138293 0.12060054087 0.12440415419 0.12717939132 0.12913808744 0.13054088421 0.13167541303 
0.13283002103 0.13426572398 0.13619023268 0.13873789379 0.141958153 0.14581366936 0.15018805042 0.15490222283 0.15973753157 
0.16446270359 0.16886097875 0.17275346531 0.17601539642 0.1785832395 0.18045216947 0.18166499245 0.18229497793 0.18242596684 
0.18213339454 0.18146954029 0.18045557231 0.17908187306 0.17731663628 0.17512091054 0.17246659147 0.16935298692 0.16581790004 
0.16194061363 0.15783621992 0.15364276584 0.14950416088 0.14555254804 0.14189380985 0.13859869331 0.13569947418 0.13318947021 
0.1310224566 0.129111653 0.12733118237 0.12552436011 0.12352207249 0.12117115395 0.1183682645 0.1150914654 0.11142118217 
0.10754422846 0.10373758997 0.1003323539 0.097663914588 0.096021875471 0.095613988647 0.0965463974 0.098810554069 0.1022721415 
0.10666924519 0.11162879575 0.11670286224 0.12141871904 0.12533329866 0.12808313554 0.12942296565 0.12924841177 0.12760040864 
0.12465130874 0.12067491492 0.11600481768 0.11098714252 0.10593465306 0.10108808095 0.096587026831 0.092449037901 0.088555957294 
0.084652909352 0.080371527021 0.075284799085 0.068984520165 0.061159011137 0.051651284541 0.040489157841 0.027887252382 0.014224236007 
7.1143328078e-16 
_area 1 100 double
0 0.00030722790873 0.0012426721935 0.002839487133 0.0051280366439 0.008106835111 0.01171723333 0.015830987591 0.020254876241 
0.024751636967 0.029072948428 0.032997632323 0.03636673345 0.039107323257 0.041239422438 0.042865237413 0.044145448627 0.045270680387 
0.046435383436 0.047817993393 0.049568979357 0.051806578655 0.054616772605 0.058052299506 0.062126017055 0.066790404061 0.071896666198 
0.077174814934 0.082286198546 0.086905365358 0.090782465825 0.093782160924 0.095900835487 0.097260560546 0.098076191108 0.098585625155 
0.098949621907 0.099196624088 0.099255613956 0.099006225124 0.098314849459 0.097069527669 0.095213203326 0.092763551173 0.089810553591 
0.086495582186 0.082980863849 0.079408986529 0.07585748194 0.072321362071 0.068745121778 0.065075716453 0.061303236469 0.057482980249 
0.053742769007 0.050399799611 0.0474321632 0.044814372456 0.042580828449 0.040687750733 0.038970604722 0.037234734081 0.035405154386 
0.033453562233 0.031429721048 0.029501694656 0.027869414371 0.026682809439 0.026042422437 0.026073434879 0.026946766074 0.028813107679 
0.031671210981 0.035270398296 0.039201425756 0.043009093532 0.046246595866 0.048537934108 0.049644191078 0.049506147021 0.0482260602 
0.046037510199 0.043272263938 0.040210201773 0.037083447406 0.034000872093 0.031018444225 0.028175404066 0.025502174211 0.023010599171 
0.020670854322 0.018389508903 0.016021670734 0.013433360669 0.010584141742 0.0075814256014 0.0046800806974 0.0022288109212 0.00058136763426 
4.5212077613e-17 
