# vtk DataFile Version 5.1
vtk output
ASCII
DATASET POLYDATA
POINTS 100 float
0.224111 0.0411806 0.642507 0.223846 0.0412428 0.642569 0.223121 0.0412925 0.642682 
0.221944 0.0413465 0.642794 0.220326 0.0414309 0.642829 0.218285 0.0415774 0.642684 
0.215842 0.04182 0.642248 0.213023 0.0421904 0.641401 0.209853 0.042714 0.640031 
0.206362 0.0434062 0.638038 0.202576 0.0442699 0.635344 0.198516 0.0452936 0.6319 
0.194201 0.0464517 0.627685 0.18964 0.047706 0.622707 0.184837 0.0490078 0.617003 
0.179787 0.0503022 0.610633 0.174477 0.0515321 0.603672 0.168892 0.0526432 0.596199 
0.163014 0.0535887 0.588297 0.156826 0.0543329 0.580034 0.150318 0.0548544 0.571465 
0.143486 0.0551475 0.56262 0.136336 0.0552225 0.553509 0.128886 0.0551047 0.544115 
0.121162 0.0548312 0.534404 0.113198 0.0544472 0.524325 0.10503 0.0540022 0.513822 
0.0966951 0.0535445 0.502841 0.0882231 0.0531173 0.491336 0.0796333 0.0527547 0.479283 
0.0709314 0.052479 0.466678 0.0621075 0.0522995 0.453546 0.0531366 0.0522125 0.439939 
0.0439813 0.0522028 0.425932 0.0345967 0.0522466 0.411619 0.0249373 0.0523151 0.397101 
0.0149636 0.0523789 0.382479 0.00465027 0.0524124 0.367841 -0.00600727 0.0523975 0.353251 
-0.0169883 0.0523263 0.338741 -0.0282441 0.0522038 0.324302 -0.0396983 0.0520471 0.309886 
-0.0512501 0.0518851 0.2954 -0.0627798 0.0517556 0.280714 -0.0741564 0.0517017 0.265671 
-0.0852457 0.0517671 0.250092 -0.0959185 0.0519919 0.233797 -0.106058 0.0524075 0.216611 
-0.115562 0.053033 0.198383 -0.124351 0.0538726 0.178997 -0.132362 0.0549139 0.158381 
-0.139547 0.0561284 0.136511 -0.145871 0.0574728 0.11342 -0.151301 0.0588927 0.0891887 
-0.155806 0.0603262 0.0639466 -0.159349 0.0617089 0.0378617 -0.161887 0.0629789 0.01113 
-0.163372 0.0640811 -0.0160352 -0.163751 0.0649717 -0.043416 -0.162979 0.0656205 -0.0708008 
-0.16102 0.0660123 -0.0979947 -0.157865 0.0661471 -0.124827 -0.153529 0.0660389 -0.151158 
-0.148068 0.0657125 -0.176881 -0.141573 0.0652008 -0.201922 -0.134172 0.0645406 -0.22624 
-0.126023 0.0637688 -0.249826 -0.117303 0.0629187 -0.272693 -0.108192 0.0620172 -0.294874 
-0.098857 0.061083 -0.316418 -0.0894391 0.0601256 -0.337381 -0.0800355 0.0591459 -0.357822 
-0.0706923 0.0581369 -0.377801 -0.0614003 0.0570866 -0.39737 -0.0520982 0.0559801 -0.416575 
-0.0426824 0.0548024 -0.435447 -0.0330238 0.0535412 -0.454004 -0.0229883 0.0521896 -0.472248 
-0.0124602 0.050747 -0.490165 -0.00136463 0.0492206 -0.507721 0.0103125 0.047625 -0.524866 
0.0225114 0.0459817 -0.541537 0.0350929 0.0443177 -0.557655 0.0478417 0.0426634 -0.573134 
0.0604797 0.0410504 -0.587881 0.0726873 0.0395091 -0.601806 0.0841306 0.038067 -0.614822 
0.0944925 0.0367467 -0.626853 0.103504 0.0355644 -0.637839 0.11097 0.0345296 -0.647737 
0.116792 0.033645 -0.656527 0.120977 0.0329065 -0.66421 0.123641 0.0323049 -0.670806 
0.124992 0.0318264 -0.676354 0.125314 0.0314548 -0.680904 0.124935 0.0311727 -0.684516 
0.12419 0.0309634 -0.687248 0.12339 0.0308123 -0.689154 0.122784 0.0307081 -0.690277 
0.122532 0.0306437 -0.690643 
LINES 2 100
OFFSETS vtktypeint64
0 100 
CONNECTIVITY vtktypeint64
0 1 2 3 4 5 6 7 8 
9 10 11 12 13 14 15 16 17 
18 19 20 21 22 23 24 25 26 
27 28 29 30 31 32 33 34 35 
36 37 38 39 40 41 42 43 44 
45 46 47 48 49 50 51 52 53 
54 55 56 57 58 59 60 61 62 
63 64 65 66 67 68 69 70 71 
72 73 74 75 76 77 78 79 80 
81 82 83 84 85 86 87 88 89 
90 91 92 93 94 95 96 97 98 
99 
POINT_DATA 100
FIELD FieldData 3
_theta 1 100 double
0 0.031733259127 0.063466518254 0.095199777382 0.12693303651 0.15866629564 0.19039955476 0.22213281389 0.25386607302 
0.28559933214 0.31733259127 0.3490658504 0.38079910953 0.41253236865 0.44426562778 0.47599888691 0.50773214603 0.53946540516 
0.57119866429 0.60293192342 0.63466518254 0.66639844167 0.6981317008 0.72986495992 0.76159821905 0.79333147818 0.82506473731 
0.85679799643 0.88853125556 0.92026451469 0.95199777382 0.98373103294 1.0154642921 1.0471975512 1.0789308103 1.1106640695 
1.1423973286 1.1741305877 1.2058638468 1.237597106 1.2693303651 1.3010636242 1.3327968833 1.3645301425 1.3962634016 
1.4279966607 1.4597299198 1.491463179 1.5231964381 1.5549296972 1.5866629564 1.6183962155 1.6501294746 1.6818627337 
1.7135959929 1.745329252 1.7770625111 1.8087957702 1.8405290294 1.8722622885 1.9039955476 1.9357288068 1.9674620659 
1.999195325 2.0309285841 2.0626618433 2.0943951024 2.1261283615 2.1578616206 2.1895948798 2.2213281389 2.253061398 
2.2847946572 2.3165279163 2.3482611754 2.3799944345 2.4117276937 2.4434609528 2.4751942119 2.506927471 2.5386607302 
2.5703939893 2.6021272484 2.6338605076 2.6655937667 2.6973270258 2.7290602849 2.7607935441 2.7925268032 2.8242600623 
2.8559933214 2.8877265806 2.9194598397 2.9511930988 2.982926358 3.0146596171 3.0463928762 3.0781261353 3.1098593945 
3.1415926536 
_radius 1 100 double
9.0920695135e-16 0.014139813922 0.028150463606 0.04191244647 0.055324777453 0.068310167638 0.080815948167 0.092810678914 0.10427750933 
0.1152063791 0.12558753661 0.13540824269 0.14465312037 0.15330714855 0.16135946677 0.16880611975 0.17565035646 0.18189983711 
0.18756109356 0.19263292628 0.19710163227 0.20094087042 0.20411712359 0.20659943551 0.2083709457 0.20943981175 0.20984762513 
0.20967389688 0.20903555227 0.20808077163 0.20697713104 0.20589494308 0.20498787928 0.20437401144 0.20412081132 0.20423698434 
0.2046723239 0.20532471259 0.20605193504 0.2066857462 0.20704649098 0.20695769944 0.20626068491 0.2048289627 0.20258156287 
0.19949355132 0.19560174855 0.19100399374 0.18585135695 0.18033417475 0.17466419119 0.16905598607 0.16371099481 0.15880652044 
0.15449006435 0.15087669069 0.14804581333 0.14603546735 0.14483595823 0.14438737464 0.14458448398 0.14528906119 0.14634642759 
0.14760186686 0.14891374784 0.15016213086 0.15125313063 0.15212024401 0.15272409044 0.15305115058 0.15311078097 0.15292956631 
0.15254341038 0.15198933852 0.15129910914 0.15049553079 0.1495914418 0.14859098685 0.14749232911 0.14629028591 0.14497724042 
0.14354125482 0.14196123112 0.14019987196 0.13819597699 0.13585820413 0.13306257488 0.12965541755 0.12546217029 0.12030101574 
0.11399933106 0.10641072322 0.097430812233 0.087010499118 0.075165853632 0.061983877761 0.047623393833 0.032310429388 0.016327891106 
9.5626660391e-16 
_area 1 100 double
0 0.00043612749836 0.0017284524326 0.0038317843069 0.0066801066025 0.010198196472 0.014313204274 0.018962262103 0.024093285018 
0.029658930392 0.035606676171 0.041869206697 0.048358483036 0.054965555474 0.061567297921 0.068039820392 0.074275136452 0.080193766791 
0.085745115514 0.090893891813 0.095602890509 0.099827279187 0.10352319115 0.10665806509 0.10921483409 0.11119829243 0.1126456674 
0.11362773692 0.11423652596 0.11457107316 0.11473250381 0.11482916003 0.114982603 0.1153216718 0.1159551274 0.11692683822 
0.11818021381 0.11956710565 0.12090443688 0.12203916133 0.12288243588 0.1233941959 0.1235217772 0.12313812938 0.12204245326 
0.12002282147 0.11692989877 0.11273061838 0.10752911794 0.10155117304 0.095104335214 0.088533733169 0.082182532073 0.076360485922 
0.071327607483 0.067299715506 0.064451761644 0.062738831191 0.061757068352 0.061081490917 0.060444580967 0.05973800139 0.058994145252 
0.058321765613 0.057793313741 0.057371553227 0.056925137471 0.056299542385 0.055389277285 0.054169410881 0.052693762598 0.051076702373 
0.049469173501 0.048032200767 0.046902294161 0.046145920572 0.045725220906 0.045515962302 0.045372655114 0.04518082305 0.044867694538 
0.04438850009 0.043708661197 0.04279037391 0.04158553953 0.040035383709 0.038076774611 0.03565481341 0.032740135483 0.029347036415 
0.025546445838 0.021468160602 0.017290016416 0.013216183113 0.0094503826032 0.0061711956264 0.0035155482057 0.0015736214736 0.00039473522641 
4.9873299934e-17 
