# vtk DataFile Version 5.1
vtk output
ASCII
DATASET POLYDATA
POINTS 100 float
0.183872 0.0275087 0.678473 0.183848 0.0277528 0.678118 0.183811 0.0283447 0.676924 
0.183696 0.0292794 0.674912 0.183409 0.0305478 0.672118 0.182837 0.0321326 0.668584 
0.181864 0.0340045 0.664361 0.180391 0.0361183 0.659502 0.178346 0.0384119 0.654058 
0.175699 0.0408063 0.648072 0.172468 0.0432093 0.641582 0.168713 0.0455217 0.634613 
0.164534 0.0476454 0.627178 0.160058 0.0494937 0.619281 0.15542 0.0510004 0.610915 
0.150746 0.0521285 0.602066 0.146137 0.052876 0.592718 0.141654 0.0532779 0.582854 
0.137306 0.0534037 0.572465 0.13305 0.053351 0.561548 0.128793 0.0532344 0.550112 
0.1244 0.0531728 0.538181 0.119715 0.0532746 0.525795 0.114571 0.0536236 0.513005 
0.108817 0.0542677 0.499879 0.102333 0.0552115 0.486491 0.0950425 0.0564139 0.472922 
0.086925 0.0577912 0.459254 0.0780163 0.0592262 0.445564 0.0684046 0.0605817 0.431919 
0.0582197 0.061717 0.41837 0.0476177 0.0625053 0.404948 0.036763 0.062851 0.391662 
0.0258099 0.0627026 0.378495 0.0148861 0.0620618 0.365402 0.00408108 0.060986 0.352314 
-0.00656016 0.0595846 0.339138 -0.0170367 0.058009 0.325763 -0.027384 0.0564372 0.312059 
-0.0376614 0.0550558 0.297893 -0.0479343 0.0540401 0.283125 -0.0582554 0.0535355 0.267625 
-0.0686459 0.0536424 0.251273 -0.0790801 0.0544059 0.233969 -0.0894747 0.0558114 0.215642 
-0.0996848 0.0577877 0.196248 -0.109508 0.0602152 0.175781 -0.118695 0.06294 0.154269 
-0.126967 0.0657908 0.131778 -0.134037 0.0685978 0.108409 -0.139633 0.0712096 0.0842933 
-0.143527 0.0735082 0.0595868 -0.145549 0.0754186 0.0344642 -0.145609 0.0769139 0.00910928 
-0.143704 0.0780131 -0.016293 -0.139923 0.0787748 -0.041566 -0.134436 0.0792857 -0.0665497 
-0.12749 0.0796465 -0.0911084 -0.11938 0.079957 -0.115136 -0.110433 0.0803014 -0.138561 
-0.100983 0.080737 -0.161347 -0.0913422 0.0812861 -0.183491 -0.081785 0.0819328 -0.205022 
-0.0725259 0.082624 -0.225997 -0.0637097 0.0832754 -0.246487 -0.0554053 0.0837802 -0.266577 
-0.0476065 0.0840206 -0.28635 -0.0402383 0.0838787 -0.305883 -0.0331685 0.0832481 -0.325237 
-0.0262229 0.0820427 -0.344449 -0.0192023 0.0802025 -0.36353 -0.0119008 0.077697 -0.382461 
-0.00412232 0.0745243 -0.401195 0.00430367 0.070709 -0.419658 0.01351 0.0662965 -0.437756 
0.0235827 0.0613471 -0.455382 0.0345558 0.0559302 -0.472421 0.0464097 0.0501186 -0.488763 
0.059073 0.0439845 -0.504308 0.0724271 0.0375973 -0.518973 0.0863133 0.0310225 -0.5327 
0.100542 0.0243228 -0.545455 0.114903 0.0175592 -0.557233 0.129176 0.0107934 -0.568055 
0.143142 0.00408865 -0.577964 0.156593 -0.00248894 -0.587019 0.169339 -0.00887114 -0.595288 
0.181222 -0.014989 -0.602844 0.192116 -0.0207755 -0.609753 0.201929 -0.0261686 -0.616074 
0.210612 -0.0311144 -0.621848 0.21815 -0.0355705 -0.627098 0.224561 -0.0395067 -0.631831 
0.229892 -0.0429068 -0.636034 0.234209 -0.0457665 -0.639681 0.237588 -0.0480918 -0.642737 
0.240108 -0.049895 -0.645162 0.241842 -0.0511912 -0.646918 0.242848 -0.051994 -0.647973 
0.243162 -0.0523124 -0.648309 
LINES 2 100
OFFSETS vtktypeint64
0 100 
CONNECTIVITY vtktypeint64
0 1 2 3 4 5 6 7 8 
9 10 11 12 13 14 15 16 17 
18 19 20 21 22 23 24 25 26 
27 28 29 30 31 32 33 34 35 
36 37 38 39 40 41 42 43 44 
45 46 47 48 49 50 51 52 53 
54 55 56 57 58 59 60 61 62 
63 64 65 66 67 68 69 70 71 
72 73 74 75 76 77 78 79 80 
81 82 83 84 85 86 87 88 89 
90 91 92 93 94 95 96 97 98 
99 
POINT_DATA 100
FIELD FieldData 3
_theta 1 100 double
0 0.031733259127 0.063466518254 0.095199777382 0.12693303651 0.15866629564 0.19039955476 0.22213281389 0.25386607302 
0.28559933214 0.31733259127 0.3490658504 0.38079910953 0.41253236865 0.44426562778 0.47599888691 0.50773214603 0.53946540516 
0.57119866429 0.60293192342 0.63466518254 0.66639844167 0.6981317008 0.72986495992 0.76159821905 0.79333147818 0.82506473731 
0.85679799643 0.88853125556 0.92026451469 0.95199777382 0.98373103294 1.0154642921 1.0471975512 1.0789308103 1.1106640695 
1.1423973286 1.1741305877 1.2058638468 1.237597106 1.2693303651 1.3010636242 1.3327968833 1.3645301425 1.3962634016 
1.4279966607 1.4597299198 1.491463179 1.5231964381 1.5549296972 1.5866629564 1.6183962155 1.6501294746 1.6818627337 
1.7135959929 1.745329252 1.7770625111 1.8087957702 1.8405290294 1.8722622885 1.9039955476 1.9357288068 1.9674620659 
1.999195325 2.0309285841 2.0626618433 2.0943951024 2.1261283615 2.1578616206 2.1895948798 2.2213281389 2.253061398 
2.2847946572 2.3165279163 2.3482611754 2.3799944345 2.4117276937 2.4434609528 2.4751942119 2.506927471 2.5386607302 
2.5703939893 2.6021272484 2.6338605076 2.6655937667 2.6973270258 2.7290602849 2.7607935441 2.7925268032 2.8242600623 
2.8559933214 2.8877265806 2.9194598397 2.9511930988 2.982926358 3.0146596171 3.0463928762 3.0781261353 3.1098593945 
3.1415926536 
_radius 1 100 double
3.0539017266e-16 0.01266310068 0.025238589117 0.037644344017 0.049816067624 0.061711969136 0.07331330358 0.084620866706 0.095648123102 
0.10641200516 0.11692271935 0.12717420912 0.13713709101 0.14675563218 0.15594958487 0.16462066998 0.17266258414 0.17997286004 
0.18646481666 0.19207810959 0.19678683604 0.20060454385 0.20358573524 0.20582361058 0.20744402633 0.20859604821 0.20944001344 
0.21013446726 0.21082346652 0.21162542473 0.21262401067 0.21386094761 0.21533039175 0.21697527731 0.21868731135 0.22031293018 
0.22166628722 0.2225477965 0.22276495213 0.22215220879 0.22058794314 0.21800774498 0.21441395884 0.20988151124 0.20455978099 
0.19866974948 0.19249507625 0.1863653662 0.18063020848 0.17562410245 0.17162530436 0.16881556214 0.16725204875 0.16686468717 
0.16748398942 0.16888641603 0.17083444774 0.17309812559 0.1754604064 0.17771626319 0.17967395328 0.18116122557 0.18203462127 
0.18218881402 0.18156390557 0.1801496032 0.17798557355 0.17515762463 0.17179047085 0.16803925335 0.1640817078 0.16011015126 
0.15632039396 0.15289603052 0.1499897809 0.14770577336 0.14608675334 0.14510853619 0.14468174057 0.14465924018 0.14484748501 
0.14502043973 0.14493541067 0.14434990718 0.14303811245 0.14080517123 0.13749775666 0.13301011618 0.12728558654 0.12031412839 
0.11212676688 0.10278805989 0.092387875723 0.081033753629 0.068844851946 0.055947975636 0.042475552604 0.028564897216 0.014357848948 
5.4832785012e-16 
_area 1 100 double
0 0.0004497487882 0.0017763280848 0.0039163799107 0.0067785487534 0.010260898127 0.014268616557 0.018727694318 0.023591427549 
0.02883847077 0.034463342025 0.040462366367 0.046819321506 0.053494726086 0.060420741208 0.06750119573 0.07461477424 0.081619544167 
0.088358390415 0.094666650123 0.10038392195 0.10537063284 0.10952722224 0.11281189084 0.11525302781 0.11695363376 0.11808538677 
0.11886945644 0.11954235453 0.12031423127 0.12133775266 0.1226997662 0.12442836458 0.12650061986 0.12884316793 0.13132580411 
0.13375509552 0.13587698312 0.13739396626 0.13799890525 0.13742296381 0.13548651355 0.13213647541 0.12745909994 0.12166883864 
0.11508516488 0.10811483097 0.10124233148 0.094980663179 0.08974722446 0.085803462542 0.083266643223 0.0820342973 0.081731230903 
0.081852457814 0.081988822617 0.081938271586 0.081694056198 0.081354832062 0.081021296125 0.080656866127 0.080175709577 0.079365758411 
0.078096686015 0.076239351802 0.073752328915 0.070728915186 0.067349234566 0.06383554071 0.060388951886 0.057139125947 0.054146072847 
0.05142947492 0.048994397696 0.046854572185 0.045024969169 0.043473524344 0.042191462528 0.041197430792 0.040416355899 0.039859035903 
0.039526020433 0.039391858038 0.039383670123 0.039303713251 0.038900119042 0.037990395568 0.036463168085 0.034268939916 0.031418008745 
0.027978668044 0.024073523607 0.019872687932 0.015582754538 0.011431516932 0.0076499713864 0.0044540952401 0.0020286932144 0.00051465272837 
5.2468812717e-17 
