# vtk DataFile Version 5.1
vtk output
ASCII
DATASET POLYDATA
POINTS 100 float
0.111642 0.0317276 0.630932 0.111624 0.0319853 0.630959 0.111656 0.0326208 0.630896 
0.111728 0.0335956 0.630704 0.111825 0.0348496 0.630318 0.111922 0.0363082 0.629659 
0.111994 0.0378894 0.628637 0.11201 0.0395115 0.627159 0.111933 0.0411009 0.625142 
0.111729 0.0425973 0.622512 0.111359 0.0439579 0.619216 0.110783 0.0451586 0.615221 
0.109963 0.0461925 0.610515 0.108856 0.0470665 0.605107 0.107424 0.0477966 0.599022 
0.105626 0.0484019 0.5923 0.103425 0.0488995 0.584985 0.100784 0.0492993 0.577129 
0.0976734 0.0496019 0.56878 0.0940674 0.0497973 0.559987 0.0899499 0.0498667 0.550791 
0.0853152 0.0497861 0.54123 0.0801703 0.0495307 0.531337 0.0745363 0.0490808 0.521142 
0.0684493 0.0484273 0.51067 0.0619599 0.047576 0.499948 0.0551324 0.0465503 0.488998 
0.0480413 0.0453918 0.477841 0.0407683 0.0441584 0.466494 0.0333973 0.0429206 0.454966 
0.0260094 0.0417552 0.443262 0.0186771 0.0407394 0.431374 0.0114594 0.0399436 0.419288 
0.00439787 0.0394253 0.406976 -0.00248651 0.039225 0.394405 -0.00919419 0.0393636 0.381535 
-0.0157461 0.0398425 0.368326 -0.0221805 0.040646 0.354738 -0.0285481 0.0417457 0.340739 
-0.034905 0.0431058 0.326304 -0.0413053 0.0446898 0.311423 -0.0477926 0.0464654 0.296092 
-0.0543926 0.0484093 0.280322 -0.0611061 0.0505096 0.264124 -0.0679044 0.0527659 0.247515 
-0.0747269 0.0551869 0.230505 -0.0814816 0.0577865 0.213096 -0.0880487 0.0605776 0.195275 
-0.0942861 0.0635664 0.177016 -0.100038 0.0667459 0.158276 -0.105147 0.0700914 0.139001 
-0.10946 0.0735579 0.11913 -0.112842 0.0770797 0.0986074 -0.115187 0.080573 0.0773854 
-0.116421 0.0839414 0.0554393 -0.116509 0.0870825 0.0327735 -0.115455 0.0898971 0.00942822 
-0.113302 0.0922971 -0.0145177 -0.110125 0.0942141 -0.038948 -0.106022 0.0956051 -0.0637138 
-0.101108 0.0964564 -0.088643 -0.0955034 0.0967842 -0.113552 -0.0893225 0.096632 -0.138259 
-0.0826655 0.0960655 -0.162598 -0.0756114 0.0951646 -0.186431 -0.0682138 0.0940148 -0.20966 
-0.0604993 0.0926976 -0.232228 -0.0524699 0.0912822 -0.254122 -0.0441069 0.0898179 -0.27537 
-0.0353784 0.08833 -0.296029 -0.0262472 0.0868181 -0.316176 -0.0166802 0.085257 -0.335893 
-0.00665607 0.0836012 -0.355251 0.00382678 0.0817908 -0.374299 0.0147457 0.0797597 -0.393051 
0.026051 0.0774437 -0.411486 0.0376663 0.0747883 -0.429541 0.0494915 0.0717563 -0.447123 
0.0614075 0.0683316 -0.464108 0.0732837 0.064523 -0.480363 0.0849854 0.0603634 -0.495754 
0.0963819 0.0559087 -0.510161 0.107354 0.0512327 -0.523493 0.117798 0.0464228 -0.535693 
0.127634 0.0415726 -0.546746 0.136803 0.0367768 -0.556677 0.145271 0.0321242 -0.565547 
0.153022 0.027694 -0.573445 0.160059 0.0235516 -0.580474 0.166398 0.0197471 -0.586742 
0.17206 0.0163144 -0.592346 0.177073 0.0132725 -0.597367 0.18146 0.0106268 -0.601856 
0.185241 0.0083723 -0.605837 0.188433 0.00649648 -0.609306 0.191043 0.00498224 -0.612236 
0.193077 0.00381113 -0.614585 0.194532 0.00296594 -0.616308 0.195409 0.00243287 -0.61736 
0.195703 0.00220318 -0.617712 
LINES 2 100
OFFSETS vtktypeint64
0 100 
CONNECTIVITY vtktypeint64
0 1 2 3 4 5 6 7 8 
9 10 11 12 13 14 15 16 17 
18 19 20 21 22 23 24 25 26 
27 28 29 30 31 32 33 34 35 
36 37 38 39 40 41 42 43 44 
45 46 47 48 49 50 51 52 53 
54 55 56 57 58 59 60 61 62 
63 64 65 66 67 68 69 70 71 
72 73 74 75 76 77 78 79 80 
81 82 83 84 85 86 87 88 89 
90 91 92 93 94 95 96 97 98 
99 
POINT_DATA 100
FIELD FieldData 3
_theta 1 100 double
0 0.031733259127 0.063466518254 0.095199777382 0.12693303651 0.15866629564 0.19039955476 0.22213281389 0.25386607302 
0.28559933214 0.31733259127 0.3490658504 0.38079910953 0.41253236865 0.44426562778 0.47599888691 0.50773214603 0.53946540516 
0.57119866429 0.60293192342 0.63466518254 0.66639844167 0.6981317008 0.72986495992 0.76159821905 0.79333147818 0.82506473731 
0.85679799643 0.88853125556 0.92026451469 0.95199777382 0.98373103294 1.0154642921 1.0471975512 1.0789308103 1.1106640695 
1.1423973286 1.1741305877 1.2058638468 1.237597106 1.2693303651 1.3010636242 1.3327968833 1.3645301425 1.3962634016 
1.4279966607 1.4597299198 1.491463179 1.5231964381 1.5549296972 1.5866629564 1.6183962155 1.6501294746 1.6818627337 
1.7135959929 1.745329252 1.7770625111 1.8087957702 1.8405290294 1.8722622885 1.9039955476 1.9357288068 1.9674620659 
1.999195325 2.0309285841 2.0626618433 2.0943951024 2.1261283615 2.1578616206 2.1895948798 2.2213281389 2.253061398 
2.2847946572 2.3165279163 2.3482611754 2.3799944345 2.4117276937 2.4434609528 2.4751942119 2.506927471 2.5386607302 
2.5703939893 2.6021272484 2.6338605076 2.6655937667 2.6973270258 2.7290602849 2.7607935441 2.7925268032 2.8242600623 
2.8559933214 2.8877265806 2.9194598397 2.9511930988 2.982926358 3.0146596171 3.0463928762 3.0781261353 3.1098593945 
3.1415926536 
_radius 1 100 double
1.6800293098e-15 0.014185452135 0.028352093538 0.042471971967 0.056506560385 0.070403149047 0.08409334075 0.097494345513 0.11051341889 
0.12305520884 0.13503110676 0.14636911964 0.15702245556 0.16697505217 0.17624272103 0.18486939177 0.19291897238 0.20046433019 
0.2075755082 0.21430928791 0.22070163249 0.22676373153 0.23248172365 0.23781985881 0.24272672113 0.24714389276 0.25101598393 
0.25430042683 0.25697513897 0.25904237127 0.26052783289 0.26147532168 0.26193819725 0.26196971709 0.26161430939 0.26090132592 
0.2598419459 0.25842902647 0.25663915407 0.25443613995 0.25177563481 0.24861106479 0.24490130094 0.24062013087 0.2357667669 
0.2303756175 0.22452279822 0.21832675461 0.21194116837 0.20554006914 0.19929751274 0.19336659032 0.18786373917 0.1828632287 
0.17840314438 0.17449954725 0.17116207613 0.16840391149 0.16624182255 0.16468636702 0.16372617089 0.16331244694 0.16335055072 
0.16370431639 0.16421475834 0.16472763632 0.16511962369 0.16531500932 0.16529087632 0.16507281172 0.16472408082 0.16433067348 
0.16398426105 0.16376526272 0.16372852381 0.16389391484 0.16424302595 0.16472125286 0.16524287727 0.16569628784 0.1659476065 
0.16584306715 0.16521234583 0.16387547842 0.16165457374 0.15838902748 0.15395090148 0.14825664092 0.1412723778 0.13301201257 
0.12352926176 0.11290629709 0.10124215839 0.088643761951 0.075221233101 0.061087788376 0.04636288413 0.031176290867 0.015670543901 
7.3857953645e-16 
_area 1 100 double
0 0.0004602254775 0.0018471456061 0.0041761837085 0.0074630864884 0.011712119699 0.016904245874 0.022987719205 0.029872890288 
0.037432558925 0.045508841917 0.053926843803 0.062514002289 0.071121781653 0.079644196839 0.088027071339 0.096264383212 0.10438306493 
0.11242217654 0.12041315084 0.12836469649 0.13625236202 0.14401214288 0.15154003387 0.15870197451 0.16535738027 0.17139289702 
0.17675343337 0.18145117381 0.18554041581 0.18907143264 0.19205740289 0.19447372866 0.19627841896 0.19743432064 0.19792294447 
0.19774643082 0.19691800408 0.1954442938 0.19330484022 0.1904380693 0.18674541498 0.18211834694 0.17648094657 0.16983351828 
0.16228310686 0.15405134565 0.14545517077 0.13685965987 0.12860820543 0.1209499308 0.11399858519 0.1077454139 0.10211431976 
0.097039074885 0.092554350576 0.088597667503 0.085063515932 0.081953376873 0.079340989443 0.077335218319 0.075967925365 0.075087559956 
0.074443503035 0.073812288636 0.073035257133 0.072013584098 0.070702851775 0.069116688758 0.067326795738 0.065452661445 0.063642179719 
0.06203891146 0.060742575973 0.059797852578 0.059213185203 0.05897592981 0.059055810696 0.059401705282 0.059936163845 0.060549360362 
0.061094224437 0.061387104842 0.06121958799 0.060383028989 0.058700412722 0.056056814719 0.052421293252 0.047856298644 0.042513614545 
0.036618253951 0.03044359214 0.024282172254 0.018417044206 0.013098175434 0.0085273009472 0.0048526392017 0.0021725819826 0.00054531430191 
5.6172686876e-17 
