# vtk DataFile Version 5.1
vtk output
ASCII
DATASET POLYDATA
POINTS 100 float
0.0876383 0.05233 0.700233 0.0877586 0.0527138 0.700207 0.0882249 0.0536965 0.699937 
0.0890184 0.0551964 0.699386 0.0901063 0.057088 0.698496 0.091441 0.0592148 0.697191 
0.0929597 0.0614052 0.695378 0.0945841 0.0634896 0.692961 0.096222 0.0653162 0.689837 
0.0977698 0.0667641 0.685912 0.0991159 0.0677514 0.681105 0.100147 0.0682392 0.675353 
0.100753 0.0682296 0.668622 0.100834 0.0677588 0.660908 0.100308 0.0668882 0.652241 
0.0991137 0.0656918 0.642684 0.0972178 0.0642448 0.632331 0.0946135 0.0626133 0.621297 
0.0913219 0.0608475 0.609712 0.0873885 0.0589777 0.59771 0.0828781 0.057016 0.585416 
0.0778681 0.0549604 0.572936 0.0724408 0.0528026 0.560346 0.0666763 0.0505369 0.547686 
0.0606449 0.048169 0.534958 0.0544025 0.0457234 0.522125 0.0479869 0.0432472 0.509118 
0.0414172 0.0408111 0.495843 0.0346953 0.0385054 0.482192 0.027809 0.0364327 0.468058 
0.0207375 0.0346984 0.453348 0.0134568 0.0333983 0.437987 0.00594556 0.0326086 0.421937 
-0.00180962 0.0323755 0.405189 -0.00981058 0.0327099 0.387771 -0.0180453 0.0335854 0.369739 
-0.0264874 0.0349406 0.35117 -0.0350973 0.0366867 0.332146 -0.0438242 0.0387177 0.31275 
-0.0526095 0.0409234 0.293047 -0.0613891 0.0432018 0.273075 -0.0700967 0.0454719 0.252846 
-0.0786648 0.0476818 0.232336 -0.0870255 0.0498138 0.211493 -0.09511 0.0518852 0.190245 
-0.102847 0.0539427 0.168509 -0.110161 0.0560547 0.146207 -0.116971 0.0582993 0.123275 
-0.12319 0.0607517 0.0996796 -0.128723 0.0634713 0.0754228 -0.133474 0.0664914 0.0505484 
-0.137346 0.0698122 0.0251404 -0.140245 0.0733977 -0.000682642 -0.142092 0.0771776 -0.0267778 
-0.142824 0.0810534 -0.0529907 -0.142404 0.0849074 -0.0791704 -0.140823 0.0886142 -0.105182 
-0.138104 0.0920525 -0.130921 -0.134302 0.0951155 -0.156315 -0.1295 0.0977194 -0.181334 
-0.123808 0.0998077 -0.205979 -0.117347 0.101352 -0.230281 -0.110248 0.102349 -0.254288 
-0.102637 0.102814 -0.278048 -0.0946303 0.102772 -0.301598 -0.0863243 0.10225 -0.324949 
-0.0777927 0.101269 -0.348081 -0.0690853 0.0998353 -0.370933 -0.0602299 0.0979404 -0.393407 
-0.0512373 0.0955607 -0.415375 -0.0421089 0.0926608 -0.43669 -0.0328451 0.089201 -0.457198 
-0.0234537 0.0851459 -0.476757 -0.0139578 0.0804732 -0.495251 -0.00440017 0.0751825 -0.512602 
0.00515392 0.0693011 -0.528782 0.0146186 0.062887 -0.543812 0.0238918 0.056028 -0.557765 
0.0328631 0.0488371 -0.57075 0.0414228 0.0414451 -0.582908 0.0494722 0.0339904 -0.594391 
0.0569326 0.0266081 -0.605348 0.0637535 0.0194199 -0.615908 0.0699162 0.0125254 -0.626168 
0.0754352 0.00599637 -0.636184 0.0803554 -0.000124947 -0.645968 0.0847451 -0.00582445 -0.655491 
0.0886874 -0.011111 -0.664688 0.0922693 -0.0160087 -0.673466 0.0955706 -0.0205482 -0.681724 
0.0986544 -0.0247575 -0.689358 0.10156 -0.0286543 -0.696276 0.104297 -0.0322405 -0.702407 
0.106849 -0.0354999 -0.707702 0.109172 -0.0383993 -0.712142 0.111207 -0.0408923 -0.715727 
0.112883 -0.0429257 -0.718476 0.114133 -0.0444472 -0.720413 0.114901 -0.0454126 -0.721565 
0.115148 -0.0457927 -0.72195 
LINES 2 100
OFFSETS vtktypeint64
0 100 
CONNECTIVITY vtktypeint64
0 1 2 3 4 5 6 7 8 
9 10 11 12 13 14 15 16 17 
18 19 20 21 22 23 24 25 26 
27 28 29 30 31 32 33 34 35 
36 37 38 39 40 41 42 43 44 
45 46 47 48 49 50 51 52 53 
54 55 56 57 58 59 60 61 62 
63 64 65 66 67 68 69 70 71 
72 73 74 75 76 77 78 79 80 
81 82 83 84 85 86 87 88 89 
90 91 92 93 94 95 96 97 98 
99 
POINT_DATA 100
FIELD FieldData 3
_theta 1 100 double
0 0.031733259127 0.063466518254 0.095199777382 0.12693303651 0.15866629564 0.19039955476 0.22213281389 0.25386607302 
0.28559933214 0.31733259127 0.3490658504 0.38079910953 0.41253236865 0.44426562778 0.47599888691 0.50773214603 0.53946540516 
0.57119866429 0.60293192342 0.63466518254 0.66639844167 0.6981317008 0.72986495992 0.76159821905 0.79333147818 0.82506473731 
0.85679799643 0.88853125556 0.92026451469 0.95199777382 0.98373103294 1.0154642921 1.0471975512 1.0789308103 1.1106640695 
1.1423973286 1.1741305877 1.2058638468 1.237597106 1.2693303651 1.3010636242 1.3327968833 1.3645301425 1.3962634016 
1.4279966607 1.4597299198 1.491463179 1.5231964381 1.5549296972 1.5866629564 1.6183962155 1.6501294746 1.6818627337 
1.7135959929 1.745329252 1.7770625111 1.8087957702 1.8405290294 1.8722622885 1.9039955476 1.9357288068 1.9674620659 
1.999195325 2.0309285841 2.0626618433 2.0943951024 2.1261283615 2.1578616206 2.1895948798 2.2213281389 2.253061398 
2.2847946572 2.3165279163 2.3482611754 2.3799944345 2.4117276937 2.4434609528 2.4751942119 2.506927471 2.5386607302 
2.5703939893 2.6021272484 2.6338605076 2.6655937667 2.6973270258 2.7290602849 2.7607935441 2.7925268032 2.8242600623 
2.8559933214 2.8877265806 2.9194598397 2.9511930988 2.982926358 3.0146596171 3.0463928762 3.0781261353 3.1098593945 
3.1415926536 
_radius 1 100 double
6.788777767e-16 0.015369814332 0.030642853169 0.04571638346 0.06048988995 0.074867085251 0.088758184182 0.10208219969 0.11476901384 
0.12676114673 0.13801539605 0.14850462539 0.15821972595 0.16717121263 0.17538942071 0.18292226714 0.1898301439 0.19617846227 
0.20202922745 0.20743340476 0.2124255947 0.21702182792 0.22122047812 0.22500569863 0.22835256527 0.23123319339 0.23362327651 
0.2355085292 0.23689031438 0.23778944054 0.23824702633 0.23832167343 0.23808295459 0.23760216728 0.2369420782 0.23614770198 
0.23523992579 0.23421313885 0.23303721277 0.23166343032 0.23003336982 0.22808932945 0.22578465986 0.22309247545 0.22001172265 
0.21657038791 0.21282633434 0.20886639649 0.20480383028 0.20077346647 0.19692364964 0.19340464295 0.19035442507 0.18788402804 
0.18606505212 0.18492144461 0.18442640991 0.18450426335 0.18503678997 0.18587403627 0.18684951748 0.18779884092 0.1885791441 
0.18908579929 0.18926332092 0.18910892166 0.18866871387 0.18802748162 0.18729341843 0.18657987039 0.185986974 0.18558635839 
0.18541125452 0.18545273392 0.18566117099 0.18595105915 0.1862073162 0.1862920899 0.18605230632 0.18532889965 0.18396809263 
0.18183356142 0.17881708545 0.17484530514 0.1698813179 0.16392126286 0.15698718109 0.14911806949 0.14036116471 0.13076516639 
0.12037646012 0.10923860263 0.097394584118 0.084890854397 0.071781891223 0.058134194047 0.044028895385 0.029562525215 0.01484573266 
1.6342837898e-15 
_area 1 100 double
0 0.0005394557178 0.0021429327266 0.0047686170624 0.0083554893342 0.012833473884 0.018132234351 0.024183957261 0.030916139503 
0.038234710199 0.046005814499 0.054049738411 0.06215521684 0.070110502075 0.077739707171 0.084932445394 0.091658075507 0.097960181693 
0.1039324017 0.10968357763 0.11530514443 0.12085132916 0.1263338596 0.13172546198 0.13696528724 0.14196267875 0.14660061617 
0.15074444449 0.15426075552 0.15704371442 0.15903872529 0.1602535518 0.16075313458 0.16064094364 0.16003393488 0.15903921257 
0.15773841046 0.15618182781 0.15439062429 0.15236361995 0.1500856642 0.14753594378 0.1446955552 0.14155351133 0.13810966213 
0.13437355425 0.13036118838 0.12609454281 0.121606981 0.11695139913 0.11220425121 0.107462638 0.10283963779 0.098464985799 
0.094487990231 0.09106722868 0.088337521004 0.086370644387 0.085149803332 0.084546750709 0.084316230999 0.084154378373 0.083794386084 
0.083076695434 0.08197171302 0.080561313414 0.078996976326 0.077456770837 0.076170322787 0.075173376016 0.074483957077 0.074092526595 
0.073982565309 0.074162978196 0.074643597635 0.075378530542 0.076267656133 0.077165614016 0.077890568772 0.078245637005 0.078044428354 
0.077135114963 0.075418704811 0.072856747014 0.069466547586 0.065307162001 0.060463234568 0.055033952155 0.049131040857 0.042884484748 
0.036450121305 0.030012011921 0.023775180632 0.017949254015 0.012728140607 0.0082731058767 0.0047050221724 0.0021064129158 0.00052879575474 
4.952069769e-17 
