# vtk DataFile Version 5.1
vtk output
ASCII
DATASET POLYDATA
POINTS 100 float
0.0942107 0.0652769 0.769981 0.0942641 0.0654998 0.769326 0.0944625 0.0660376 0.767159 
0.0947722 0.066835 0.763574 0.0951401 0.0678075 0.758718 0.0954988 0.0688508 0.752775 
0.0957736 0.0698528 0.74595 0.0958889 0.070706 0.738446 0.0957755 0.0713189 0.730447 
0.0953753 0.0716258 0.7221 0.0946456 0.0715919 0.713506 0.0935602 0.0712157 0.704714 
0.0921085 0.0705263 0.695727 0.0902931 0.0695775 0.686503 0.0881257 0.0684388 0.676974 
0.0856217 0.0671849 0.667057 0.0827959 0.0658856 0.656672 0.0796576 0.0645959 0.645756 
0.0762087 0.0633498 0.634274 0.0724422 0.062157 0.622223 0.0683435 0.0610035 0.609637 
0.0638934 0.0598557 0.59658 0.0590721 0.0586677 0.583138 0.0538644 0.0573909 0.569405 
0.0482646 0.0559836 0.555474 0.0422805 0.0544207 0.541419 0.0359362 0.0527002 0.527289 
0.0292722 0.0508481 0.513098 0.022344 0.0489185 0.498825 0.015218 0.0469902 0.484414 
0.00796579 0.0451599 0.469785 0.000657195 0.0435326 0.454843 -0.0066467 0.0422107 0.439485 
-0.0139001 0.0412827 0.423623 -0.0210775 0.040814 0.407182 -0.028176 0.0408389 0.39012 
-0.0352155 0.0413572 0.372421 -0.0422353 0.0423342 0.354102 -0.049288 0.0437049 0.335206 
-0.0564321 0.0453811 0.315792 -0.0637214 0.0472614 0.295927 -0.0711957 0.0492428 0.275673 
-0.0788711 0.0512314 0.255078 -0.0867326 0.0531526 0.234169 -0.0947285 0.0549581 0.212945 
-0.102769 0.0566303 0.191379 -0.110728 0.0581825 0.169419 -0.118447 0.0596552 0.146998 
-0.125744 0.0611102 0.12404 -0.132424 0.0626215 0.100473 -0.138289 0.0642653 0.0762409 
-0.143154 0.0661096 0.0513109 -0.146854 0.0682057 0.0256813 -0.149256 0.0705811 -0.000615098 
-0.150266 0.0732348 -0.02751 -0.149834 0.0761367 -0.0549035 -0.147952 0.079229 -0.0826697 
-0.144659 0.0824306 -0.110665 -0.140031 0.0856436 -0.138736 -0.134174 0.0887605 -0.166728 
-0.127221 0.0916722 -0.194496 -0.119319 0.0942746 -0.221904 -0.11062 0.0964749 -0.248835 
-0.101276 0.0981951 -0.27519 -0.0914285 0.0993749 -0.300888 -0.0812046 0.0999713 -0.325863 
-0.0707134 0.0999581 -0.350068 -0.0600436 0.0993233 -0.373465 -0.0492632 0.0980663 -0.396031 
-0.0384212 0.0961957 -0.417751 -0.0275499 0.0937263 -0.438625 -0.0166692 0.0906781 -0.45866 
-0.00579065 0.0870755 -0.477876 0.00507786 0.0829476 -0.496304 0.0159271 0.0783288 -0.513987 
0.026742 0.0732607 -0.53097 0.037498 0.0677927 -0.547307 0.0481579 0.061983 -0.563043 
0.0586699 0.0558988 -0.578217 0.0689674 0.0496156 -0.592851 0.0789697 0.0432152 -0.606945 
0.0885848 0.0367839 -0.620473 0.0977127 0.0304084 -0.63338 0.106251 0.0241734 -0.645587 
0.114102 0.0181572 -0.656995 0.121178 0.0124295 -0.667494 0.127406 0.00704823 -0.676971 
0.132741 0.00205861 -0.685331 0.137162 -0.00250784 -0.692499 0.14068 -0.00663277 -0.698441 
0.143341 -0.0103099 -0.703166 0.145219 -0.0135429 -0.706734 0.146416 -0.0163435 -0.709251 
0.147055 -0.0187286 -0.710868 0.147272 -0.020718 -0.711763 0.147206 -0.0223321 -0.712134 
0.146989 -0.0235898 -0.712176 0.146736 -0.0245068 -0.712063 0.146536 -0.0250949 -0.711934 
0.146447 -0.0253604 -0.711879 
LINES 2 100
OFFSETS vtktypeint64
0 100 
CONNECTIVITY vtktypeint64
0 1 2 3 4 5 6 7 8 
9 10 11 12 13 14 15 16 17 
18 19 20 21 22 23 24 25 26 
27 28 29 30 31 32 33 34 35 
36 37 38 39 40 41 42 43 44 
45 46 47 48 49 50 51 52 53 
54 55 56 57 58 59 60 61 62 
63 64 65 66 67 68 69 70 71 
72 73 74 75 76 77 78 79 80 
81 82 83 84 85 86 87 88 89 
90 91 92 93 94 95 96 97 98 
99 
POINT_DATA 100
FIELD FieldData 3
_theta 1 100 double
0 0.031733259127 0.063466518254 0.095199777382 0.12693303651 0.15866629564 0.19039955476 0.22213281389 0.25386607302 
0.28559933214 0.31733259127 0.3490658504 0.38079910953 0.41253236865 0.44426562778 0.47599888691 0.50773214603 0.53946540516 
0.57119866429 0.60293192342 0.63466518254 0.66639844167 0.6981317008 0.72986495992 0.76159821905 0.79333147818 0.82506473731 
0.85679799643 0.88853125556 0.92026451469 0.95199777382 0.98373103294 1.0154642921 1.0471975512 1.0789308103 1.1106640695 
1.1423973286 1.1741305877 1.2058638468 1.237597106 1.2693303651 1.3010636242 1.3327968833 1.3645301425 1.3962634016 
1.4279966607 1.4597299198 1.491463179 1.5231964381 1.5549296972 1.5866629564 1.6183962155 1.6501294746 1.6818627337 
1.7135959929 1.745329252 1.7770625111 1.8087957702 1.8405290294 1.8722622885 1.9039955476 1.9357288068 1.9674620659 
1.999195325 2.0309285841 2.0626618433 2.0943951024 2.1261283615 2.1578616206 2.1895948798 2.2213281389 2.253061398 
2.2847946572 2.3165279163 2.3482611754 2.3799944345 2.4117276937 2.4434609528 2.4751942119 2.506927471 2.5386607302 
2.5703939893 2.6021272484 2.6338605076 2.6655937667 2.6973270258 2.7290602849 2.7607935441 2.7925268032 2.8242600623 
2.8559933214 2.8877265806 2.9194598397 2.9511930988 2.982926358 3.0146596171 3.0463928762 3.0781261353 3.1098593945 
3.1415926536 
_radius 1 100 double
6.7831015304e-16 0.014043397911 0.028020750352 0.041857006583 0.055480881715 0.06882859831 0.081847969738 0.094501789819 0.10676937973 
0.1186454509 0.13013604653 0.14125207065 0.15200167387 0.16238336729 0.17238188031 0.18196816111 0.19110354984 0.19974657355 
0.2078598456 0.21541473713 0.22239269978 0.22878369967 0.23458340139 0.23979101531 0.24440905038 0.24844498607 0.25191370106 
0.25483892667 0.2572522992 0.25918963687 0.26068536248 0.26176688998 0.26245084465 0.26274220199 0.26263623876 0.26212217041 
0.26118692754 0.25981781266 0.25800358714 0.25573448991 0.25300236752 0.24980219092 0.24613567196 0.24201667371 0.23747704671 
0.23257087821 0.22737523842 0.22198641917 0.21651215371 0.21106185806 0.2057378833 0.20063063564 0.19581918064 0.19137697894 
0.18738027124 0.18391501392 0.1810778606 0.17896796187 0.17766929535 0.17722730157 0.1776275848 0.17878598166 0.18055567412 
0.18274890903 0.18516404104 0.18760827959 0.18991251704 0.19194141514 0.19360144199 0.19484420603 0.19566297999 0.19608447974 
0.1961588825 0.19594959119 0.19552300972 0.19493825442 0.19423699879 0.19343415461 0.19251053028 0.19140875346 0.19003348905 
0.18825637448 0.18592530637 0.18287696284 0.17895092726 0.17400361937 0.1679204377 0.16062493891 0.15208435595 0.14231118022 
0.13136088637 0.11932619056 0.10632852845 0.0925077213 0.078011042117 0.062983048231 0.047557543765 0.031852809086 0.015970757756 
6.6000479138e-16 
_area 1 100 double
0 0.000585492326 0.0023268599495 0.0051780244717 0.0090602476287 0.013861050203 0.019435860728 0.025614402737 0.032212942616 
0.039051983691 0.045977048634 0.052878086653 0.059701170244 0.066445841763 0.073145722789 0.079839786691 0.08654868129 0.093265308009 
0.099958844428 0.10658674358 0.11310748758 0.11948740032 0.1257000948 0.13172297484 0.13753601563 0.143123526 0.14847415749 
0.15357386096 0.15839283183 0.16287496769 0.16693843453 0.17048815833 0.17343339255 0.17570203189 0.17724780737 0.17805226236 
0.17812426723 0.17749529486 0.17620636419 0.17428749848 0.17173905238 0.16852866851 0.16461150451 0.15996668129 0.15463063596 
0.14870511054 0.14233153831 0.13566149099 0.12885959653 0.12210280544 0.11555416786 0.10939236091 0.10375537237 0.098737365902 
0.094264909515 0.089989274639 0.085745881 0.081672994394 0.07811095147 0.075362806712 0.07343804403 0.07214005847 0.071338470253 
0.070915723018 0.07086246394 0.071176755488 0.071822940841 0.072646459404 0.073409193067 0.07398966132 0.074297286246 0.074095370638 
0.073399405615 0.072317900179 0.071008151704 0.069669605348 0.068574440258 0.0681103549 0.068390351629 0.069136793954 0.070141496744 
0.071126836463 0.071773465014 0.071792743913 0.070949471868 0.069073123598 0.066069193234 0.061927498494 0.056724559008 0.050619439187 
0.043843344329 0.036683058423 0.029458535956 0.022496452197 0.016103545322 0.01054464336 0.0060293889513 0.0027090367672 0.00068144940825 
7.8602556307e-18 
