# vtk DataFile Version 5.1
vtk output
ASCII
DATASET POLYDATA
POINTS 100 float
0.168447 0.0560593 0.692142 0.168261 0.0562468 0.692038 0.167816 0.056649 0.691579 
0.167102 0.0572487 0.690731 0.166107 0.0580185 0.689441 0.164816 0.0589239 0.687642 
0.163214 0.0599252 0.685255 0.16129 0.0609804 0.682199 0.159037 0.0620475 0.678396 
0.156455 0.0630868 0.673775 0.15355 0.0640618 0.668281 0.150332 0.0649397 0.661879 
0.146813 0.0656915 0.654553 0.143006 0.0662908 0.646313 0.138918 0.0667137 0.637192 
0.134552 0.0669374 0.627244 0.129902 0.0669403 0.616542 0.124956 0.0667021 0.605169 
0.119692 0.0662051 0.593221 0.114087 0.0654361 0.580792 0.108118 0.0643886 0.567975 
0.101763 0.0630655 0.554855 0.0950121 0.0614812 0.541504 0.0878648 0.0596639 0.52798 
0.0803357 0.0576554 0.514326 0.0724535 0.055511 0.500566 0.0642596 0.053297 0.48671 
0.055804 0.0510868 0.472752 0.0471409 0.0489566 0.458676 0.0383219 0.0469794 0.444454 
0.0293906 0.0452199 0.430053 0.0203774 0.0437289 0.415429 0.011296 0.0425398 0.400538 
0.00214329 0.0416664 0.385328 -0.00709912 0.041103 0.369744 -0.0164598 0.0408262 0.35373 
-0.02597 0.040799 0.337222 -0.0356552 0.0409768 0.320159 -0.045525 0.0413131 0.302476 
-0.0555645 0.0417671 0.284112 -0.0657272 0.0423089 0.26501 -0.0759307 0.0429243 0.245123 
-0.0860562 0.0436172 0.224419 -0.0959523 0.0444098 0.202881 -0.105442 0.0453399 0.180517 
-0.114332 0.0464564 0.157357 -0.12243 0.047813 0.133458 -0.129552 0.0494606 0.108903 
-0.13554 0.0514403 0.083793 -0.140273 0.0537761 0.0582506 -0.143675 0.0564703 0.0324065 
-0.145715 0.0595001 0.00639543 -0.146414 0.0628177 -0.019653 -0.145836 0.066352 -0.0456214 
-0.144077 0.0700131 -0.0714113 -0.141262 0.0736988 -0.0969472 -0.137525 0.0773018 -0.122179 
-0.133 0.0807167 -0.14708 -0.127812 0.0838473 -0.171646 -0.122065 0.0866118 -0.195886 
-0.11584 0.0889466 -0.219817 -0.109194 0.0908071 -0.243455 -0.10216 0.0921676 -0.266808 
-0.0947559 0.0930181 -0.289867 -0.0869888 0.0933607 -0.312605 -0.078866 0.0932047 -0.334971 
-0.0704018 0.0925625 -0.356894 -0.0616244 0.0914453 -0.378287 -0.0525802 0.0898607 -0.399051 
-0.0433349 0.0878121 -0.419088 -0.0339726 0.0852993 -0.438309 -0.0245912 0.0823208 -0.456641 
-0.0152967 0.0788774 -0.474037 -0.00619565 0.0749766 -0.490481 0.00261162 0.0706359 -0.505989 
0.0110377 0.065887 -0.520607 0.0190127 0.0607772 -0.534407 0.0264868 0.0553704 -0.547479 
0.0334301 0.0497451 -0.559921 0.039831 0.0439921 -0.571825 0.0456922 0.0382095 -0.583272 
0.0510259 0.0324974 -0.594317 0.055849 0.0269522 -0.604989 0.0601786 0.0216612 -0.615282 
0.064029 0.0166976 -0.625161 0.0674105 0.0121176 -0.634564 0.0703298 0.00795827 -0.643413 
0.0727918 0.00423767 -0.651618 0.0748037 0.000956371 -0.659098 0.0763781 -0.00189992 -0.665782 
0.0775373 -0.00435665 -0.671623 0.0783154 -0.00644647 -0.676603 0.0787601 -0.00820527 -0.680737 
0.0789312 -0.00966873 -0.684068 0.078898 -0.0108696 -0.686665 0.078735 -0.0118358 -0.688613 
0.0785154 -0.0125895 -0.690003 0.0783051 -0.0131469 -0.690923 0.0781565 -0.0135182 -0.691442 
0.0781029 -0.0137085 -0.691606 
LINES 2 100
OFFSETS vtktypeint64
0 100 
CONNECTIVITY vtktypeint64
0 1 2 3 4 5 6 7 8 
9 10 11 12 13 14 15 16 17 
18 19 20 21 22 23 24 25 26 
27 28 29 30 31 32 33 34 35 
36 37 38 39 40 41 42 43 44 
45 46 47 48 49 50 51 52 53 
54 55 56 57 58 59 60 61 62 
63 64 65 66 67 68 69 70 71 
72 73 74 75 76 77 78 79 80 
81 82 83 84 85 86 87 88 89 
90 91 92 93 94 95 96 97 98 
99 
POINT_DATA 100
FIELD FieldData 3
_theta 1 100 double
0 0.031733259127 0.063466518254 0.095199777382 0.12693303651 0.15866629564 0.19039955476 0.22213281389 0.25386607302 
0.28559933214 0.31733259127 0.3490658504 0.38079910953 0.41253236865 0.44426562778 0.47599888691 0.50773214603 0.53946540516 
0.57119866429 0.60293192342 0.63466518254 0.66639844167 0.6981317008 0.72986495992 0.76159821905 0.79333147818 0.82506473731 
0.85679799643 0.88853125556 0.92026451469 0.95199777382 0.98373103294 1.0154642921 1.0471975512 1.0789308103 1.1106640695 
1.1423973286 1.1741305877 1.2058638468 1.237597106 1.2693303651 1.3010636242 1.3327968833 1.3645301425 1.3962634016 
1.4279966607 1.4597299198 1.491463179 1.5231964381 1.5549296972 1.5866629564 1.6183962155 1.6501294746 1.6818627337 
1.7135959929 1.745329252 1.7770625111 1.8087957702 1.8405290294 1.8722622885 1.9039955476 1.9357288068 1.9674620659 
1.999195325 2.0309285841 2.0626618433 2.0943951024 2.1261283615 2.1578616206 2.1895948798 2.2213281389 2.253061398 
2.2847946572 2.3165279163 2.3482611754 2.3799944345 2.4117276937 2.4434609528 2.4751942119 2.506927471 2.5386607302 
2.5703939893 2.6021272484 2.6338605076 2.6655937667 2.6973270258 2.7290602849 2.7607935441 2.7925268032 2.8242600623 
2.8559933214 2.8877265806 2.9194598397 2.9511930988 2.982926358 3.0146596171 3.0463928762 3.0781261353 3.1098593945 
3.1415926536 
_radius 1 100 double
2.6221307941e-16 0.014974741024 0.029775278816 0.044239043113 0.058226819541 0.071630283877 0.084375465129 0.09642206805 0.10775930644 
0.11839940298 0.12837007783 0.13770715694 0.14644799102 0.15462590924 0.16226570201 0.16938028202 0.17596908467 0.18201905472 
0.18750884774 0.1924160801 0.19672640323 0.20044233901 0.20358956588 0.20621878891 0.20840231901 0.21022574363 0.21177626122 
0.21313004334 0.21434114268 0.21543394653 0.21640020041 0.21720056862 0.21776991455 0.2180251678 0.21787477992 0.21722914831 
0.21601169733 0.21417029117 0.21168826169 0.20859375104 0.20496557987 0.2009336825 0.19667241828 0.19238587809 0.18828583631 
0.18456538807 0.18137411365 0.1788021725 0.17687876662 0.17558452954 0.17487078014 0.17467571407 0.17493054313 0.17555581988 
0.17645538185 0.17751726233 0.17862562781 0.17967981625 0.18061236664 0.18139915201 0.18205845053 0.18263943131 0.18320362786 
0.18380560955 0.18447995849 0.1852387786 0.18607833927 0.18698955195 0.18796690385 0.1890123485 0.19013272799 0.1913314202 
0.19259696447 0.19389263353 0.19515049914 0.19627161535 0.19713165922 0.19758996858 0.19749979469 0.19671825553 0.19511523366 
0.1925809022 0.18903164237 0.18441401265 0.17870636976 0.17191787129 0.16408492158 0.15526554656 0.14553254756 0.13496647712 
0.12364947181 0.1116607916 0.099074583008 0.085959935709 0.072382812529 0.058409030312 0.044107287702 0.029551336433 0.014820726879 
2.4246261705e-16 
_area 1 100 double
0 0.00054871540813 0.0021759327456 0.0048261588722 0.008411410865 0.012818266026 0.017917293657 0.023573235108 0.029653880714 
0.036036193362 0.042609538474 0.049277101524 0.055956806002 0.062581842393 0.069099064748 0.075463121052 0.08162685424 0.087532686865 
0.093111273938 0.09829057581 0.10301293509 0.107253346 0.11103097937 0.11440880525 0.11748177684 0.12035952298 0.12315295928 
0.12597334788 0.12889937959 0.13188647657 0.13475749813 0.13729526966 0.13930977396 0.14063459086 0.14113197688 0.14071272532 
0.13935775886 0.13721704643 0.1342705326 0.13046363143 0.12590570488 0.12077656446 0.11531275749 0.10979239821 0.10451045721 
0.099731702564 0.095627308188 0.092238850748 0.089505066824 0.087327161559 0.085625572458 0.084364536033 0.083538985296 0.083130527845 
0.083057171573 0.083162873624 0.083264221195 0.083210167676 0.082912333305 0.082359914087 0.08162280139 0.080822976341 0.080076557366 
0.079442653764 0.07890835998 0.078417595255 0.077923751882 0.077422076022 0.076960400276 0.076622238557 0.076469513721 0.07654069037 
0.076890726149 0.077589507116 0.078685751156 0.080151146149 0.081837990015 0.083453488652 0.084653736294 0.08518017212 0.084869486244 
0.083634464177 0.081451594613 0.078349521966 0.074395572745 0.069681888323 0.064314466173 0.058407637459 0.052084106501 0.045478280779 
0.038739581908 0.032033052035 0.025536175652 0.019432419476 0.013902872431 0.0091174371591 0.0052266188161 0.0023545217892 0.00059341001804 
1.6049579458e-17 
