# vtk DataFile Version 5.1
vtk output
ASCII
DATASET POLYDATA
POINTS 100 float
0.154305 0.0561708 0.715042 0.154426 0.056314 0.714887 0.154823 0.0566162 0.714254 
0.155442 0.0570739 0.713159 0.156201 0.0576813 0.711625 0.15699 0.058429 0.70968 
0.157692 0.0593026 0.707348 0.158182 0.0602817 0.704647 0.158343 0.0613388 0.701584 
0.158077 0.062439 0.698152 0.157304 0.0635412 0.694327 0.155973 0.0645986 0.690075 
0.154059 0.0655619 0.685349 0.151563 0.0663818 0.6801 0.148504 0.0670126 0.674281 
0.144918 0.0674152 0.667851 0.140846 0.0675603 0.660785 0.13633 0.0674307 0.653078 
0.131406 0.0670221 0.644741 0.126097 0.0663435 0.635807 0.120417 0.0654154 0.626325 
0.114366 0.0642678 0.616355 0.107933 0.0629366 0.605961 0.101105 0.0614603 0.595208 
0.0938668 0.0598758 0.584148 0.086213 0.0582158 0.572824 0.078149 0.0565057 0.561258 
0.0696971 0.0547632 0.549455 0.060898 0.0529979 0.537405 0.0518105 0.0512133 0.525084 
0.0425084 0.0494097 0.512459 0.0330757 0.047587 0.4995 0.0235993 0.0457496 0.486175 
0.0141621 0.0439094 0.472467 0.00483487 0.0420888 0.458368 -0.00432954 0.0403228 0.443883 
-0.0133007 0.0386584 0.429028 -0.022072 0.0371537 0.413828 -0.0306597 0.035874 0.398308 
-0.0390982 0.0348871 0.382486 -0.0474333 0.0342578 0.366374 -0.0557135 0.0340412 0.349963 
-0.0639802 0.0342773 0.333227 -0.0722584 0.0349858 0.316118 -0.0805486 0.0361626 0.298571 
-0.088821 0.0377788 0.28051 -0.0970135 0.0397815 0.26185 -0.105032 0.042097 0.242512 
-0.112756 0.0446361 0.222426 -0.120045 0.0473013 0.201547 -0.126751 0.0499944 0.179854 
-0.132729 0.0526246 0.15736 -0.137849 0.0551161 0.134109 -0.142005 0.0574141 0.110177 
-0.145129 0.0594889 0.0856656 -0.14719 0.0613375 0.0606955 -0.1482 0.0629826 0.0353959 
-0.14821 0.0644693 0.00989637 -0.147303 0.065859 -0.0156823 -0.145588 0.0672227 -0.041235 
-0.143185 0.0686321 -0.0666771 -0.140218 0.0701515 -0.0919469 -0.136798 0.0718303 -0.117004 
-0.133018 0.0736965 -0.141827 -0.128947 0.075753 -0.166406 -0.124621 0.0779752 -0.190741 
-0.120049 0.0803125 -0.214828 -0.115215 0.0826913 -0.238661 -0.110087 0.0850206 -0.262222 
-0.104622 0.0871988 -0.28548 -0.0987818 0.0891219 -0.308392 -0.0925373 0.0906915 -0.330903 
-0.0858815 0.0918225 -0.352948 -0.0788332 0.0924497 -0.374461 -0.0714401 0.0925323 -0.395374 
-0.0637782 0.0920567 -0.415624 -0.0559474 0.0910374 -0.435157 -0.0480645 0.0895148 -0.453928 
-0.0402542 0.0875528 -0.471901 -0.0326385 0.0852329 -0.489051 -0.0253276 0.0826493 -0.50536 
-0.0184105 0.0799018 -0.520811 -0.0119494 0.0770903 -0.535392 -0.00597649 0.0743085 -0.549087 
-0.000494142 0.0716396 -0.561879 0.0045216 0.0691524 -0.57375 0.0091147 0.0668992 -0.584678 
0.0133408 0.0649149 -0.594644 0.0172582 0.0632168 -0.603636 0.0209185 0.0618067 -0.611647 
0.024359 0.0606724 -0.618683 0.0275975 0.0597906 -0.624765 0.0306289 0.0591298 -0.629925 
0.0334261 0.0586536 -0.63421 0.0359433 0.0583236 -0.637679 0.0381217 0.0581018 -0.640393 
0.0398972 0.0579535 -0.642416 0.0412089 0.0578492 -0.643806 0.0420067 0.057766 -0.644609 
0.0422578 0.0576894 -0.644855 
LINES 2 100
OFFSETS vtktypeint64
0 100 
CONNECTIVITY vtktypeint64
0 1 2 3 4 5 6 7 8 
9 10 11 12 13 14 15 16 17 
18 19 20 21 22 23 24 25 26 
27 28 29 30 31 32 33 34 35 
36 37 38 39 40 41 42 43 44 
45 46 47 48 49 50 51 52 53 
54 55 56 57 58 59 60 61 62 
63 64 65 66 67 68 69 70 71 
72 73 74 75 76 77 78 79 80 
81 82 83 84 85 86 87 88 89 
90 91 92 93 94 95 96 97 98 
99 
POINT_DATA 100
FIELD FieldData 3
_theta 1 100 double
0 0.031733259127 0.063466518254 0.095199777382 0.12693303651 0.15866629564 0.19039955476 0.22213281389 0.25386607302 
0.28559933214 0.31733259127 0.3490658504 0.38079910953 0.41253236865 0.44426562778 0.47599888691 0.50773214603 0.53946540516 
0.57119866429 0.60293192342 0.63466518254 0.66639844167 0.6981317008 0.72986495992 0.76159821905 0.79333147818 0.82506473731 
0.85679799643 0.88853125556 0.92026451469 0.95199777382 0.98373103294 1.0154642921 1.0471975512 1.0789308103 1.1106640695 
1.1423973286 1.1741305877 1.2058638468 1.237597106 1.2693303651 1.3010636242 1.3327968833 1.3645301425 1.3962634016 
1.4279966607 1.4597299198 1.491463179 1.5231964381 1.5549296972 1.5866629564 1.6183962155 1.6501294746 1.6818627337 
1.7135959929 1.745329252 1.7770625111 1.8087957702 1.8405290294 1.8722622885 1.9039955476 1.9357288068 1.9674620659 
1.999195325 2.0309285841 2.0626618433 2.0943951024 2.1261283615 2.1578616206 2.1895948798 2.2213281389 2.253061398 
2.2847946572 2.3165279163 2.3482611754 2.3799944345 2.4117276937 2.4434609528 2.4751942119 2.506927471 2.5386607302 
2.5703939893 2.6021272484 2.6338605076 2.6655937667 2.6973270258 2.7290602849 2.7607935441 2.7925268032 2.8242600623 
2.8559933214 2.8877265806 2.9194598397 2.9511930988 2.982926358 3.0146596171 3.0463928762 3.0781261353 3.1098593945 
3.1415926536 
_radius 1 100 double
6.1537466256e-16 0.015863416627 0.031603097862 0.047096883345 0.062234203917 0.076920767988 0.091081978388 0.10466503061 0.11763965519 
0.12999734659 0.14174880776 0.15291938815 0.16354257637 0.17365208018 0.18327354206 0.19241732026 0.20107385122 0.20921280188 
0.21678653097 0.22373746599 0.23000814915 0.23555219071 0.24034430977 0.24438794334 0.24771934521 0.25040749237 0.2525494347 
0.25426109351 0.25566412163 0.256870316 0.2579659399 0.25899868522 0.25996962024 0.26083151494 0.26149382627 0.2618336248 
0.26171092701 0.26098632532 0.25953858126 0.25728002593 0.25416813872 0.25021238819 0.24547611428 0.24007373249 0.23416376716 
0.22793822411 0.22160877926 0.21539042066 0.2094836704 0.20405724818 0.1992337276 0.19508099847 0.19161185861 0.18879263281 
0.18655941674 0.18483790259 0.18356088926 0.18267775179 0.18215280178 0.18195396024 0.18203789255 0.18234014229 0.18277633956 
0.18325403482 0.18368901761 0.18401910043 0.18421135121 0.18426230722 0.18419285861 0.18404018616 0.18384893813 0.18366318537 
0.1835198805 0.18344379915 0.18344348846 0.18350772463 0.18360232176 0.18366758085 0.18361695519 0.18333755986 0.18269306207 
0.18152933756 0.17968302028 0.17699259814 0.17331102863 0.16851819298 0.16253121444 0.15531092289 0.14686347941 0.13723712024 
0.12651486948 0.11480471292 0.10222902539 0.088914974299 0.074987217127 0.060563563168 0.045753536845 0.030659156588 0.015376914118 
6.3902481137e-16 
_area 1 100 double
0 0.00064169116633 0.0025446321104 0.0056443279429 0.009839467177 0.015000654852 0.020981631504 0.027632001258 0.034810093943 
0.042394115589 0.050289482591 0.058430551322 0.066775973697 0.075298343056 0.083970119826 0.092748670462 0.10156358685 0.11030933815 
0.1188455923 0.12700609045 0.1346150878 0.14150884576 0.1475591678 0.15269653495 0.15693099574 0.16036807572 0.16321403668 
0.16576132331 0.16834442981 0.17126441383 0.17470213333 0.17866144846 0.18296942773 0.18732057071 0.19133596489 0.1946207769 
0.19681561533 0.19763789572 0.19690704392 0.19455285924 0.1906143625 0.1852317954 0.17862845809 0.1710847969 0.16291209408 
0.15443098703 0.14595569314 0.13778210259 0.13017757046 0.12337085524 0.11753886864 0.11278055736 0.10907536987 0.10626340226 
0.1040881823 0.10227731849 0.10060545504 0.098928248516 0.097183247047 0.095367767733 0.093518344498 0.091702429304 0.090006574088 
0.088503349622 0.087208671941 0.08607165753 0.085006341133 0.083930166447 0.082789556374 0.081572539966 0.080311155154 0.079076218608 
0.077967633522 0.077102095855 0.076595741952 0.076536527701 0.076950153188 0.077777944811 0.078878500127 0.080045257357 0.08102839684 
0.081556940656 0.081362077173 0.080203254793 0.077896062864 0.074337881102 0.069526141849 0.063565223282 0.056660281291 0.049098600686 
0.041220891783 0.03338640389 0.025936808413 0.019164338198 0.013289318145 0.0084507748291 0.0047114354757 0.0020756021629 0.00051559236941 
3.2119462942e-17 
