# vtk DataFile Version 5.1
vtk output
ASCII
DATASET POLYDATA
POINTS 100 float
0.15781 0.0588466 0.751934 0.157711 0.0592132 0.751769 0.157496 0.0601466 0.75111 
0.157154 0.0615842 0.749948 0.156669 0.0634283 0.74827 0.156024 0.0655558 0.746058 
0.155199 0.0678284 0.743286 0.154182 0.0701054 0.739925 0.152963 0.072255 0.735938 
0.151541 0.0741644 0.731288 0.149917 0.0757472 0.725936 0.148095 0.076948 0.719846 
0.146075 0.0777426 0.712994 0.14385 0.0781359 0.705364 0.141404 0.0781567 0.696959 
0.138701 0.07785 0.687797 0.135694 0.0772695 0.67792 0.132319 0.0764697 0.667385 
0.128502 0.0754989 0.656266 0.124164 0.0743947 0.644649 0.119234 0.0731816 0.632623 
0.113652 0.0718706 0.620275 0.107382 0.0704619 0.607682 0.100419 0.0689481 0.594906 
0.0927954 0.0673193 0.581989 0.0845773 0.0655679 0.568949 0.0758662 0.0636924 0.555778 
0.0667893 0.0617008 0.542452 0.0574898 0.0596116 0.528926 0.0481132 0.0574534 0.515147 
0.0387938 0.0552627 0.501057 0.0296408 0.0530811 0.486605 0.0207277 0.050951 0.471746 
0.0120854 0.0489124 0.456452 0.00369995 0.047 0.44071 -0.00448425 0.0452413 0.424524 
-0.0125559 0.0436566 0.407908 -0.020624 0.0422604 0.390887 -0.0288023 0.0410641 0.373487 
-0.0371925 0.0400794 0.355728 -0.0458678 0.0393219 0.337622 -0.0548598 0.0388141 0.319164 
-0.0641495 0.0385873 0.300333 -0.0736633 0.0386816 0.281093 -0.0832753 0.0391438 0.261395 
-0.0928153 0.0400239 0.241183 -0.102081 0.0413687 0.220401 -0.110855 0.0432159 0.199003 
-0.118919 0.0455869 0.17696 -0.126076 0.0484804 0.154267 -0.132162 0.0518677 0.130946 
-0.137055 0.0556907 0.10705 -0.140688 0.0598618 0.0826589 -0.143043 0.0642678 0.0578791 
-0.144152 0.0687762 0.0328324 -0.144089 0.0732436 0.00764946 -0.142957 0.0775262 -0.01754 
-0.140877 0.0814902 -0.0426163 -0.137978 0.0850218 -0.0674769 -0.134385 0.0880356 -0.0920427 
-0.130209 0.0904798 -0.11626 -0.125549 0.092339 -0.140099 -0.120482 0.0936324 -0.163555 
-0.115073 0.0944095 -0.186637 -0.109373 0.0947426 -0.209368 -0.103425 0.0947173 -0.23177 
-0.0972711 0.0944219 -0.253866 -0.0909542 0.0939368 -0.275668 -0.08452 0.0933261 -0.297176 
-0.0780175 0.0926304 -0.318376 -0.0714964 0.0918631 -0.339241 -0.0650033 0.0910099 -0.359735 
-0.0585773 0.0900317 -0.379811 -0.0522445 0.0888703 -0.399423 -0.0460153 0.0874564 -0.418522 
-0.0398826 0.0857186 -0.437064 -0.0338224 0.0835934 -0.455007 -0.0277976 0.0810336 -0.472317 
-0.021764 0.0780153 -0.488959 -0.0156781 0.0745432 -0.504901 -0.00950556 0.0706519 -0.520106 
-0.0032291 0.0664051 -0.534534 0.00314495 0.0618917 -0.548136 0.00958287 0.0572198 -0.560859 
0.0160232 0.0525086 -0.572641 0.0223799 0.0478801 -0.583422 0.0285489 0.0434502 -0.593146 
0.0344174 0.039321 -0.601767 0.0398742 0.0355744 -0.609259 0.0448212 0.0322674 -0.61562 
0.0491827 0.0294303 -0.620876 0.0529125 0.0270671 -0.625086 0.0559979 0.0251576 -0.628337 
0.0584589 0.0236619 -0.630744 0.0603437 0.0225265 -0.63244 0.0617214 0.0216906 -0.633565 
0.062671 0.0210933 -0.634257 0.06327 0.0206801 -0.634641 0.0635839 0.0204086 -0.634815 
0.0636563 0.0202531 -0.634841 
LINES 2 100
OFFSETS vtktypeint64
0 100 
CONNECTIVITY vtktypeint64
0 1 2 3 4 5 6 7 8 
9 10 11 12 13 14 15 16 17 
18 19 20 21 22 23 24 25 26 
27 28 29 30 31 32 33 34 35 
36 37 38 39 40 41 42 43 44 
45 46 47 48 49 50 51 52 53 
54 55 56 57 58 59 60 61 62 
63 64 65 66 67 68 69 70 71 
72 73 74 75 76 77 78 79 80 
81 82 83 84 85 86 87 88 89 
90 91 92 93 94 95 96 97 98 
99 
POINT_DATA 100
FIELD FieldData 3
_theta 1 100 double
0 0.031733259127 0.063466518254 0.095199777382 0.12693303651 0.15866629564 0.19039955476 0.22213281389 0.25386607302 
0.28559933214 0.31733259127 0.3490658504 0.38079910953 0.41253236865 0.44426562778 0.47599888691 0.50773214603 0.53946540516 
0.57119866429 0.60293192342 0.63466518254 0.66639844167 0.6981317008 0.72986495992 0.76159821905 0.79333147818 0.82506473731 
0.85679799643 0.88853125556 0.92026451469 0.95199777382 0.98373103294 1.0154642921 1.0471975512 1.0789308103 1.1106640695 
1.1423973286 1.1741305877 1.2058638468 1.237597106 1.2693303651 1.3010636242 1.3327968833 1.3645301425 1.3962634016 
1.4279966607 1.4597299198 1.491463179 1.5231964381 1.5549296972 1.5866629564 1.6183962155 1.6501294746 1.6818627337 
1.7135959929 1.745329252 1.7770625111 1.8087957702 1.8405290294 1.8722622885 1.9039955476 1.9357288068 1.9674620659 
1.999195325 2.0309285841 2.0626618433 2.0943951024 2.1261283615 2.1578616206 2.1895948798 2.2213281389 2.253061398 
2.2847946572 2.3165279163 2.3482611754 2.3799944345 2.4117276937 2.4434609528 2.4751942119 2.506927471 2.5386607302 
2.5703939893 2.6021272484 2.6338605076 2.6655937667 2.6973270258 2.7290602849 2.7607935441 2.7925268032 2.8242600623 
2.8559933214 2.8877265806 2.9194598397 2.9511930988 2.982926358 3.0146596171 3.0463928762 3.0781261353 3.1098593945 
3.1415926536 
_radius 1 100 double
3.0475887447e-16 0.0148201525 0.029579675059 0.044212212195 0.058648072212 0.072813713635 0.086632364385 0.10002597242 0.11291845362 
0.12523989921 0.13693111248 0.1479476645 0.15826266431 0.16786764903 0.17677136865 0.18499667591 0.19257611498 0.19954701129 
0.20594683825 0.21180942846 0.21716236774 0.22202578394 0.2264126953 0.23033098701 0.23378683514 0.23678900449 0.23935303162 
0.24150404633 0.24327705656 0.24471400325 0.24585771564 0.24674382664 0.2473924176 0.24780137876 0.24794312678 0.24776557555 
0.24719740231 0.24615695084 0.24456368905 0.24235096269 0.23947873883 0.23594498722 0.23179424592 0.2271218243 0.22207220046 
0.21683071519 0.21160877523 0.20662426339 0.20208021436 0.19814555373 0.19494152018 0.19253612521 0.19094674813 0.19014845971 
0.19008407003 0.19067193215 0.19180922399 0.19337142253 0.19521197932 0.19716756699 0.19907159447 0.20077326849 0.20215584391 
0.20314848376 0.20372950913 0.20392178685 0.20378248331 0.20338980092 0.20282915728 0.20218075144 0.20150963451 0.20085856029 
0.20024351271 0.1996519611 0.19904412875 0.19835744443 0.19751384408 0.19642892174 0.19502135442 0.19322075868 0.19097230148 
0.18823698579 0.18498744438 0.18120011132 0.17684557605 0.17187951908 0.16623665919 0.15982950506 0.1525525522 0.14429131604 
0.13493469927 0.12438885247 0.11259077731 0.099520188954 0.085208436443 0.069743555572 0.053270843109 0.035988724846 0.018140126763 
9.7091561955e-16 
_area 1 100 double
0 0.00056916071343 0.0022660558049 0.0050581730733 0.0088891747011 0.013676843294 0.01931231523 0.02566210757 0.032573987578 
0.0398867864 0.047443075952 0.055102560127 0.062753304765 0.070317632389 0.077750031351 0.085026858799 0.092132164038 0.09904704381 
0.10574710095 0.11220624459 0.11840188013 0.12431797708 0.12994542446 0.135281077 0.14032734281 0.14509311969 0.14959501891 
0.15385661465 0.15790418131 0.1617596195 0.16543313306 0.16891803333 0.17218789123 0.17519375344 0.1778578801 0.18006225679 
0.18163752934 0.18236631296 0.18201041844 0.18035635224 0.17726489193 0.17271107107 0.16680407049 0.159782725 0.15199039431 
0.1438358715 0.13574642894 0.12812105129 0.12129131801 0.1154955846 0.11088467282 0.10752046635 0.10524587228 0.10376100347 
0.10280198597 0.1021750713 0.10173839493 0.10137299538 0.1009644025 0.10040746966 0.09962400268 0.098553005736 0.097100694737 
0.095147751137 0.09264183398 0.089643672459 0.086303151554 0.082813530352 0.07936866119 0.076135241242 0.073244912939 0.070798626545 
0.068867028262 0.067481307053 0.066631458357 0.06628124226 0.066343899119 0.066680868663 0.067142706185 0.067503326546 0.067644657469 
0.067532744347 0.067133155909 0.066355441436 0.065085355641 0.063213280156 0.060647575503 0.05732584722 0.053225295081 0.048371124368 
0.042842562446 0.036776506432 0.030368498465 0.023869541239 0.017576359658 0.011813451084 0.0069075146818 0.0031572287167 0.00080279795004 
3.0577888569e-17 
