# vtk DataFile Version 5.1
vtk output
ASCII
DATASET POLYDATA
POINTS 100 float
0.204897 0.0549089 0.714593 0.204659 0.055081 0.714584 0.204019 0.0554729 0.714392 
0.202975 0.0560801 0.713939 0.201524 0.0568956 0.713103 0.199665 0.0579079 0.711736 
0.197396 0.0590999 0.709684 0.194722 0.0604471 0.706798 0.19165 0.0619161 0.702958 
0.188189 0.0634641 0.698084 0.184353 0.0650395 0.692143 0.180155 0.0665823 0.685155 
0.175609 0.0680267 0.677186 0.170722 0.0693039 0.668341 0.165499 0.0703451 0.658749 
0.159934 0.0710858 0.64855 0.154019 0.0714691 0.637876 0.147737 0.0714489 0.626838 
0.141068 0.0709926 0.615515 0.133993 0.0700829 0.603949 0.126499 0.0687188 0.592144 
0.118578 0.0669152 0.58007 0.110236 0.0647025 0.567671 0.101494 0.0621247 0.55488 
0.0923857 0.059238 0.541629 0.0829585 0.056108 0.527861 0.073269 0.0528084 0.513542 
0.0633775 0.0494182 0.498661 0.0533415 0.04602 0.483239 0.0432099 0.0426984 0.467315 
0.033016 0.0395377 0.450947 0.0227747 0.0366206 0.434195 0.0124804 0.0340256 0.417112 
0.00210908 0.0318254 0.399731 -0.00837667 0.030084 0.382055 -0.0190195 0.0288544 0.364055 
-0.0298572 0.0281762 0.345669 -0.0409107 0.0280729 0.326805 -0.0521736 0.0285508 0.307351 
-0.0636025 0.0295973 0.287195 -0.0751107 0.0311818 0.266229 -0.0865669 0.0332564 0.244377 
-0.0977982 0.0357589 0.2216 -0.108599 0.0386162 0.19791 -0.118743 0.0417488 0.173372 
-0.128003 0.0450762 0.148108 -0.136165 0.0485221 0.122283 -0.143051 0.0520184 0.0960954 
-0.148537 0.0555098 0.0697619 -0.152559 0.0589555 0.0434957 -0.155127 0.06233 0.0174888 
-0.156323 0.065622 -0.00810454 -0.156294 0.0688316 -0.0331807 -0.155239 0.0719659 -0.0576941 
-0.153391 0.075034 -0.0816579 -0.15099 0.0780415 -0.105138 -0.148268 0.0809852 -0.128244 
-0.145417 0.083849 -0.151111 -0.142575 0.0866009 -0.173882 -0.13981 0.0891926 -0.196692 
-0.137115 0.0915602 -0.219647 -0.134408 0.0936277 -0.242813 -0.131541 0.0953114 -0.266204 
-0.128319 0.0965263 -0.289782 -0.124521 0.0971923 -0.313458 -0.119921 0.0972408 -0.337097 
-0.114321 0.0966202 -0.360532 -0.107568 0.0953 -0.383581 -0.0995794 0.0932731 -0.406059 
-0.0903503 0.0905558 -0.427794 -0.0799635 0.0871866 -0.448643 -0.0685848 0.0832217 -0.468499 
-0.0564532 0.0787305 -0.487299 -0.0438633 0.0737898 -0.505023 -0.0311434 0.0684775 -0.521694 
-0.0186307 0.0628678 -0.537371 -0.00664579 0.0570259 -0.552136 0.00453086 0.0510059 -0.566089 
0.0146779 0.0448492 -0.579333 0.0236468 0.0385851 -0.591965 0.0313688 0.0322327 -0.604068 
0.0378548 0.0258042 -0.615705 0.043188 0.0193089 -0.626914 0.0475115 0.0127573 -0.63771 
0.0510114 0.00616512 -0.648085 0.0538967 -0.000443576 -0.658011 0.0563789 -0.00703424 -0.667449 
0.0586536 -0.0135609 -0.676349 0.0608831 -0.0199663 -0.684659 0.063185 -0.0261836 -0.692332 
0.0656243 -0.0321385 -0.699324 0.0682118 -0.0377523 -0.705602 0.0709075 -0.0429451 -0.711143 
0.073628 -0.0476391 -0.715933 0.0762585 -0.0517616 -0.719969 0.0786661 -0.0552472 -0.723253 
0.0807158 -0.0580406 -0.725793 0.0822841 -0.060097 -0.727598 0.0832728 -0.061384 -0.728676 
0.0836186 -0.0618818 -0.729034 
LINES 2 100
OFFSETS vtktypeint64
0 100 
CONNECTIVITY vtktypeint64
0 1 2 3 4 5 6 7 8 
9 10 11 12 13 14 15 16 17 
18 19 20 21 22 23 24 25 26 
27 28 29 30 31 32 33 34 35 
36 37 38 39 40 41 42 43 44 
45 46 47 48 49 50 51 52 53 
54 55 56 57 58 59 60 61 62 
63 64 65 66 67 68 69 70 71 
72 73 74 75 76 77 78 79 80 
81 82 83 84 85 86 87 88 89 
90 91 92 93 94 95 96 97 98 
99 
POINT_DATA 100
FIELD FieldData 3
_theta 1 100 double
0 0.031733259127 0.063466518254 0.095199777382 0.12693303651 0.15866629564 0.19039955476 0.22213281389 0.25386607302 
0.28559933214 0.31733259127 0.3490658504 0.38079910953 0.41253236865 0.44426562778 0.47599888691 0.50773214603 0.53946540516 
0.57119866429 0.60293192342 0.63466518254 0.66639844167 0.6981317008 0.72986495992 0.76159821905 0.79333147818 0.82506473731 
0.85679799643 0.88853125556 0.92026451469 0.95199777382 0.98373103294 1.0154642921 1.0471975512 1.0789308103 1.1106640695 
1.1423973286 1.1741305877 1.2058638468 1.237597106 1.2693303651 1.3010636242 1.3327968833 1.3645301425 1.3962634016 
1.4279966607 1.4597299198 1.491463179 1.5231964381 1.5549296972 1.5866629564 1.6183962155 1.6501294746 1.6818627337 
1.7135959929 1.745329252 1.7770625111 1.8087957702 1.8405290294 1.8722622885 1.9039955476 1.9357288068 1.9674620659 
1.999195325 2.0309285841 2.0626618433 2.0943951024 2.1261283615 2.1578616206 2.1895948798 2.2213281389 2.253061398 
2.2847946572 2.3165279163 2.3482611754 2.3799944345 2.4117276937 2.4434609528 2.4751942119 2.506927471 2.5386607302 
2.5703939893 2.6021272484 2.6338605076 2.6655937667 2.6973270258 2.7290602849 2.7607935441 2.7925268032 2.8242600623 
2.8559933214 2.8877265806 2.9194598397 2.9511930988 2.982926358 3.0146596171 3.0463928762 3.0781261353 3.1098593945 
3.1415926536 
_radius 1 100 double
3.0404709722e-16 0.016527399502 0.032780686102 0.048508525498 0.063500341165 0.077600574984 0.090716548036 0.10281910827 0.11393622025 
0.12414065293 0.13353375999 0.14222778386 0.1503290004 0.15792349147 0.16506679275 0.17177844208 0.17804238695 0.18381374517 
0.18903125837 0.19363336936 0.19757492531 0.20084139342 0.20345801108 0.2054921723 0.20704836948 0.20825607048 0.20925198121 
0.21015919025 0.2110666003 0.21201255958 0.21297633375 0.21387974517 0.21459913316 0.21498546761 0.2148888327 0.21418303094 
0.21278658114 0.21067743497 0.2078999342 0.20456370348 0.20083522801 0.19692364898 0.19306264772 0.1894901858 0.18642760806 
0.18405957489 0.18251657119 0.18186202574 0.18208590593 0.18310586423 0.18477585885 0.18690107185 0.18925720192 0.19161189631 
0.19374610907 0.19547341574 0.19665574957 0.1972145529 0.19713665446 0.19647400854 0.1953360301 0.1938737097 0.19225716616 
0.19065191218 0.1892000963 0.18800970996 0.18715115885 0.18665950278 0.18654045805 0.18677769621 0.18733868515 0.18817694082 
0.18923001864 0.19041436973 0.19161971887 0.19270636836 0.19350842633 0.19384431482 0.19353347508 0.19241590578 0.19036997122 
0.18732414681 0.18325978113 0.17820417217 0.17221600737 0.16536769591 0.15772966541 0.14935973316 0.14029808683 0.13056704992 
0.12017453928 0.10912017677 0.097403063755 0.085030211916 0.07202455255 0.05843140149 0.044322364093 0.029795985633 0.014974931151 
3.0553238523e-16 
_area 1 100 double
0 0.00063371697108 0.0024861935351 0.0054206220414 0.0092374846195 0.013710143001 0.018622358322 0.02379945827 0.02912691603 
0.034553677833 0.040081696284 0.045746378849 0.051593687559 0.057658414617 0.06394628653 0.070421380839 0.076999981439 0.083552374146 
0.089914436668 0.095908694337 0.10137031533 0.10617211411 0.11024454702 0.11358823173 0.11627685545 0.11844894388 0.12028818138 
0.12199384488 0.12374645844 0.12567738282 0.12784799576 0.1302161496 0.13255095855 0.1344609499 0.13556711535 0.13559888003 
0.13443229418 0.13210072119 0.12877738329 0.12473514283 0.12029650927 0.11578652152 0.11149459136 0.10764773535 0.10439839477 
0.10182752981 0.099956442404 0.09875758549 0.098159626161 0.098049007881 0.09827281157 0.09864647141 0.098970269559 0.09906126184 
0.098797559069 0.098125931629 0.096974707447 0.095335971661 0.093352688415 0.091281063332 0.089295948536 0.087467103983 0.085801239295 
0.084255269616 0.08277128006 0.081318855209 0.079935453525 0.07871026827 0.077740153669 0.077079225065 0.07674328057 0.076740292418 
0.07718940274 0.078232486161 0.079492880649 0.080728317605 0.081748369093 0.082366155104 0.082393868106 0.081664481725 0.080066026876 
0.07757403731 0.074270921788 0.070369614847 0.066256155159 0.062015183045 0.057378853145 0.052290855998 0.046811652249 0.041045563112 
0.035119722977 0.029176613647 0.023371237969 0.017868759334 0.012839686809 0.0084517350996 0.0048594613509 0.0021938135691 0.00055361479819 
6.9388939039e-18 
