# vtk DataFile Version 5.1
vtk output
ASCII
DATASET POLYDATA
POINTS 100 float
0.148934 0.0574559 0.656811 0.148966 0.0576941 0.656557 0.149073 0.0582939 0.65558 
0.149205 0.0591961 0.653926 0.149291 0.0603083 0.651662 0.149243 0.0615159 0.648869 
0.148965 0.0626946 0.645632 0.14837 0.0637246 0.642023 0.147383 0.0645031 0.638095 
0.145953 0.0649554 0.633873 0.14405 0.0650419 0.629349 0.141674 0.0647611 0.624483 
0.13884 0.064148 0.619211 0.135581 0.0632682 0.613451 0.131931 0.0622081 0.607117 
0.127922 0.061064 0.600128 0.123573 0.0599294 0.592424 0.118888 0.0588831 0.583974 
0.113852 0.0579803 0.57478 0.108436 0.0572463 0.564882 0.102602 0.056674 0.554352 
0.0963116 0.056226 0.543289 0.0895364 0.0558403 0.531808 0.0822687 0.0554387 0.520026 
0.0745291 0.0549375 0.508053 0.0663709 0.0542585 0.495978 0.0578811 0.0533392 0.483862 
0.0491748 0.052141 0.471735 0.0403869 0.0506548 0.45959 0.0316588 0.0489026 0.447394 
0.023124 0.0469363 0.43509 0.0148926 0.0448328 0.422605 0.00703835 0.0426868 0.409865 
-0.000410646 0.0406024 0.396799 -0.00747618 0.0386841 0.383349 -0.014228 0.0370281 0.369473 
-0.0207756 0.0357156 0.355149 -0.0272551 0.0348081 0.340372 -0.0338113 0.0343455 0.325146 
-0.0405789 0.0343458 0.309482 -0.0476632 0.034808 0.29339 -0.0551238 0.0357153 0.27687 
-0.0629637 0.0370404 0.259912 -0.0711237 0.0387493 0.24249 -0.0794845 0.0408057 0.224563 
-0.087875 0.0431733 0.206083 -0.0960873 0.0458173 0.186999 -0.103895 0.0487037 0.167264 
-0.111076 0.0517984 0.146846 -0.117428 0.0550645 0.125732 -0.122792 0.0584605 0.103937 
-0.127062 0.061938 0.0815046 -0.130192 0.0654412 0.0585062 -0.132197 0.0689072 0.0350364 
-0.133147 0.0722678 0.0112066 -0.133155 0.0754529 -0.0128643 -0.132361 0.0783948 -0.0370591 
-0.130919 0.0810327 -0.0612715 -0.128974 0.0833173 -0.085413 -0.126653 0.0852145 -0.109417 
-0.124053 0.0867076 -0.13324 -0.121237 0.0877977 -0.156859 -0.118232 0.0885022 -0.180266 
-0.115033 0.0888511 -0.203462 -0.111616 0.0888821 -0.226448 -0.107943 0.0886348 -0.249217 
-0.103978 0.0881438 -0.271749 -0.0996902 0.0874338 -0.294009 -0.0950688 0.0865143 -0.315943 
-0.0901219 0.0853778 -0.337487 -0.0848783 0.0839988 -0.358566 -0.0793837 0.0823368 -0.379106 
-0.0736946 0.0803398 -0.399043 -0.0678703 0.0779513 -0.418326 -0.0619648 0.075117 -0.436924 
-0.0560201 0.0717932 -0.454832 -0.0500613 0.0679535 -0.472063 -0.0440949 0.0635952 -0.488649 
-0.0381108 0.0587428 -0.504631 -0.0320869 0.0534504 -0.520049 -0.0259959 0.0477996 -0.534931 
-0.0198137 0.0418967 -0.549288 -0.0135277 0.0358663 -0.563101 -0.0071434 0.0298443 -0.576322 
-0.000688832 0.0239685 -0.588875 0.00578407 0.0183705 -0.600661 0.0122016 0.0131672 -0.611567 
0.0184733 0.00845375 -0.62148 0.0244995 0.00429826 -0.630302 0.0301802 0.000739103 -0.637959 
0.0354237 -0.00221593 -0.644419 0.0401543 -0.00458785 -0.649692 0.0443176 -0.00642262 -0.653839 
0.0478829 -0.00778564 -0.656963 0.0508424 -0.00875487 -0.659202 0.0532075 -0.00941339 -0.660717 
0.0550022 -0.00984181 -0.661672 0.0562565 -0.0101112 -0.66222 0.056998 -0.0102769 -0.662483 
0.0572462 -0.010374 -0.662543 
LINES 2 100
OFFSETS vtktypeint64
0 100 
CONNECTIVITY vtktypeint64
0 1 2 3 4 5 6 7 8 
9 10 11 12 13 14 15 16 17 
18 19 20 21 22 23 24 25 26 
27 28 29 30 31 32 33 34 35 
36 37 38 39 40 41 42 43 44 
45 46 47 48 49 50 51 52 53 
54 55 56 57 58 59 60 61 62 
63 64 65 66 67 68 69 70 71 
72 73 74 75 76 77 78 79 80 
81 82 83 84 85 86 87 88 89 
90 91 92 93 94 95 96 97 98 
99 
POINT_DATA 100
FIELD FieldData 3
_theta 1 100 double
0 0.031733259127 0.063466518254 0.095199777382 0.12693303651 0.15866629564 0.19039955476 0.22213281389 0.25386607302 
0.28559933214 0.31733259127 0.3490658504 0.38079910953 0.41253236865 0.44426562778 0.47599888691 0.50773214603 0.53946540516 
0.57119866429 0.60293192342 0.63466518254 0.66639844167 0.6981317008 0.72986495992 0.76159821905 0.79333147818 0.82506473731 
0.85679799643 0.88853125556 0.92026451469 0.95199777382 0.98373103294 1.0154642921 1.0471975512 1.0789308103 1.1106640695 
1.1423973286 1.1741305877 1.2058638468 1.237597106 1.2693303651 1.3010636242 1.3327968833 1.3645301425 1.3962634016 
1.4279966607 1.4597299198 1.491463179 1.5231964381 1.5549296972 1.5866629564 1.6183962155 1.6501294746 1.6818627337 
1.7135959929 1.745329252 1.7770625111 1.8087957702 1.8405290294 1.8722622885 1.9039955476 1.9357288068 1.9674620659 
1.999195325 2.0309285841 2.0626618433 2.0943951024 2.1261283615 2.1578616206 2.1895948798 2.2213281389 2.253061398 
2.2847946572 2.3165279163 2.3482611754 2.3799944345 2.4117276937 2.4434609528 2.4751942119 2.506927471 2.5386607302 
2.5703939893 2.6021272484 2.6338605076 2.6655937667 2.6973270258 2.7290602849 2.7607935441 2.7925268032 2.8242600623 
2.8559933214 2.8877265806 2.9194598397 2.9511930988 2.982926358 3.0146596171 3.0463928762 3.0781261353 3.1098593945 
3.1415926536 
_radius 1 100 double
1.1535271989e-15 0.013107025374 0.026135197708 0.039001421774 0.051629308142 0.063951367932 0.07590992938 0.087456913362 0.098552715036 
0.10916441865 0.11926356229 0.12882377461 0.13781879964 0.14622156857 0.15400491133 0.16114414989 0.1676212512 0.17342966584 
0.17857870884 0.1830964782 0.18703074045 0.19044766923 0.19342857525 0.19606478355 0.19845076333 0.20067572381 0.20281425994 
0.20491714574 0.20700375063 0.20905753822 0.21102563541 0.21282270985 0.21433865409 0.21544906915 0.21602732515 0.21595699508 
0.21514363515 0.21352516458 0.21108036982 0.20783515348 0.20386596542 0.19929951251 0.19430764072 0.18909648813 0.18388973075 
0.17890697799 0.17434000188 0.17033110547 0.16695872389 0.16423434947 0.16211179952 0.16050575155 0.15931343571 0.15843312397 
0.15777549149 0.15726724235 0.15684876337 0.15646847959 0.15607671386 0.15562201723 0.15505272862 0.15432437996 0.1534098282 
0.15230713488 0.15104204018 0.14966498109 0.14824430522 0.14685741669 0.14558106893 0.14448166141 0.14360649509 0.1429774358 
0.14258881879 0.14241074827 0.14239680559 0.1424929222 0.14264373207 0.14279435082 0.14288797439 0.14286156969 0.14264227919 
0.14214602128 0.14127831812 0.13993667933 0.13801392437 0.13540210869 0.13199687048 0.1277020057 0.12243404184 0.1161266219 
0.10873460942 0.10023787112 0.090644613887 0.079993987783 0.068357540122 0.05583912044 0.042573001589 0.028720218925 0.014463339177 
4.4174385641e-16 
_area 1 100 double
0 0.00051034483375 0.0020231243449 0.0044856832659 0.0078166443583 0.011913604054 0.016661331917 0.021939823786 0.027632455187 
0.033634338145 0.039859315566 0.046241976704 0.052731391464 0.059277599751 0.065817360804 0.072266847525 0.078524602635 0.084482418432 
0.090039317487 0.095115049747 0.09966198735 0.10367541796 0.10720101354 0.11033562245 0.11321640074 0.11599684751 0.11881510005 
0.12176303431 0.12486289071 0.1280571152 0.13121525366 0.13415513108 0.13666971371 0.13855384205 0.13966201636 0.13989524534 
0.13905323929 0.13740725881 0.13487029058 0.1313572048 0.12684984688 0.12151285127 0.11561629893 0.10949006425 0.10348157455 
0.097912862685 0.093040258757 0.089021952856 0.085899229352 0.083599816908 0.081968879242 0.080815897007 0.079952344595 0.079206443276 
0.078427260695 0.07749492162 0.076333294645 0.074908059309 0.073220485607 0.071304612081 0.069224986358 0.067064122302 0.064881066937 
0.062702755307 0.060565501517 0.058525043239 0.056638480005 0.054947850988 0.053476357051 0.052235973053 0.051233556245 0.050456837954 
0.049862887774 0.0494041711 0.04905266622 0.048803562529 0.048673561065 0.048700851764 0.048928948911 0.049340296738 0.049828141894 
0.050248852424 0.050447466091 0.050267090436 0.049562102814 0.048212971843 0.046139375606 0.043310453523 0.039751941564 0.035549547742 
0.030847221887 0.025838899166 0.020753218627 0.015832424365 0.011308607314 0.0073819602244 0.0042060430508 0.0018835506873 0.00047268384451 
3.0373701771e-17 
