# vtk DataFile Version 5.1
vtk output
ASCII
DATASET POLYDATA
POINTS 100 float
0.161515 0.0700808 0.766078 0.161544 0.0702706 0.765758 0.16167 0.0706773 0.764663 
0.161836 0.0712751 0.762802 0.161959 0.0720233 0.760186 0.161928 0.0728694 0.756831 
0.161622 0.073752 0.752757 0.160918 0.0746048 0.747979 0.159702 0.0753604 0.742513 
0.157881 0.0759547 0.736371 0.155387 0.0763315 0.729562 0.152186 0.0764455 0.722089 
0.148277 0.0762657 0.713957 0.143691 0.0757768 0.70517 0.138487 0.0749806 0.695734 
0.13274 0.0738944 0.68566 0.126541 0.0725498 0.674969 0.119977 0.0709892 0.663688 
0.113134 0.069262 0.651854 0.106077 0.06742 0.639513 0.0988582 0.0655133 0.626719 
0.0915047 0.063586 0.61353 0.084025 0.0616733 0.600005 0.0764105 0.0597997 0.586201 
0.0686413 0.0579786 0.572169 0.0606925 0.0562133 0.557953 0.052542 0.0544994 0.543584 
0.0441755 0.0528284 0.529079 0.035592 0.0511912 0.514444 0.0268055 0.0495825 0.499669 
0.017845 0.0480037 0.484733 0.00875132 0.0464654 0.469604 -0.000427578 0.044988 0.454242 
-0.00964328 0.0436013 0.438598 -0.0188537 0.042342 0.42262 -0.028029 0.0412504 0.406251 
-0.0371567 0.0403659 0.389431 -0.0462425 0.039723 0.372098 -0.0553098 0.0393466 0.35419 
-0.0643945 0.0392496 0.335643 -0.0735372 0.0394314 0.316395 -0.082773 0.0398781 0.296389 
-0.0921202 0.0405646 0.275572 -0.101569 0.0414588 0.253902 -0.111073 0.0425264 0.23135 
-0.12054 0.0437362 0.207906 -0.129832 0.0450654 0.183582 -0.13877 0.0465033 0.158414 
-0.147136 0.0480538 0.132467 -0.154693 0.0497351 0.105831 -0.161195 0.0515774 0.0786244 
-0.166412 0.0536181 0.050984 -0.170142 0.0558952 0.0230633 -0.172238 0.0584393 -0.00497689 
-0.172615 0.0612665 -0.0329775 -0.17126 0.0643708 -0.06079 -0.168238 0.0677189 -0.0882852 
-0.163686 0.0712483 -0.115361 -0.1578 0.0748673 -0.141947 -0.150823 0.0784593 -0.168007 
-0.143018 0.0818893 -0.19354 -0.134653 0.0850135 -0.218574 -0.12597 0.0876897 -0.243161 
-0.117171 0.0897885 -0.267369 -0.1084 0.0912035 -0.29127 -0.0997338 0.091859 -0.314932 
-0.0911796 0.0917153 -0.338408 -0.082681 0.0907703 -0.361726 -0.0741284 0.0890576 -0.384889 
-0.0653765 0.0866407 -0.407864 -0.0562635 0.0836054 -0.43059 -0.0466323 0.0800498 -0.452977 
-0.0363503 0.0760739 -0.474915 -0.0253244 0.0717703 -0.496279 -0.013513 0.0672165 -0.516944 
-0.000929819 0.0624696 -0.536791 0.0123575 0.0575647 -0.555716 0.0262351 0.0525163 -0.573641 
0.0405556 0.0473229 -0.590517 0.0551529 0.0419734 -0.606327 0.069859 0.036455 -0.621085 
0.0845188 0.0307615 -0.634833 0.0990019 0.0248999 -0.647638 0.11321 0.0188959 -0.659583 
0.12708 0.0127958 -0.670755 0.140577 0.00666645 -0.681243 0.153692 0.000591402 -0.691125 
0.166424 -0.00533451 -0.700463 0.17877 -0.0110126 -0.709297 0.19071 -0.0163485 -0.717642 
0.202198 -0.021259 -0.725487 0.213149 -0.0256786 -0.732799 0.223444 -0.0295629 -0.739521 
0.232928 -0.0328897 -0.745582 0.241419 -0.0356574 -0.750903 0.248723 -0.0378806 -0.755398 
0.254649 -0.0395846 -0.758988 0.259025 -0.0407981 -0.761605 0.261714 -0.0415471 -0.763194 
0.26263 -0.0418489 -0.763722 
LINES 2 100
OFFSETS vtktypeint64
0 100 
CONNECTIVITY vtktypeint64
0 1 2 3 4 5 6 7 8 
9 10 11 12 13 14 15 16 17 
18 19 20 21 22 23 24 25 26 
27 28 29 30 31 32 33 34 35 
36 37 38 39 40 41 42 43 44 
45 46 47 48 49 50 51 52 53 
54 55 56 57 58 59 60 61 62 
63 64 65 66 67 68 69 70 71 
72 73 74 75 76 77 78 79 80 
81 82 83 84 85 86 87 88 89 
90 91 92 93 94 95 96 97 98 
99 
POINT_DATA 100
FIELD FieldData 3
_theta 1 100 double
0 0.031733259127 0.063466518254 0.095199777382 0.12693303651 0.15866629564 0.19039955476 0.22213281389 0.25386607302 
0.28559933214 0.31733259127 0.3490658504 0.38079910953 0.41253236865 0.44426562778 0.47599888691 0.50773214603 0.53946540516 
0.57119866429 0.60293192342 0.63466518254 0.66639844167 0.6981317008 0.72986495992 0.76159821905 0.79333147818 0.82506473731 
0.85679799643 0.88853125556 0.92026451469 0.95199777382 0.98373103294 1.0154642921 1.0471975512 1.0789308103 1.1106640695 
1.1423973286 1.1741305877 1.2058638468 1.237597106 1.2693303651 1.3010636242 1.3327968833 1.3645301425 1.3962634016 
1.4279966607 1.4597299198 1.491463179 1.5231964381 1.5549296972 1.5866629564 1.6183962155 1.6501294746 1.6818627337 
1.7135959929 1.745329252 1.7770625111 1.8087957702 1.8405290294 1.8722622885 1.9039955476 1.9357288068 1.9674620659 
1.999195325 2.0309285841 2.0626618433 2.0943951024 2.1261283615 2.1578616206 2.1895948798 2.2213281389 2.253061398 
2.2847946572 2.3165279163 2.3482611754 2.3799944345 2.4117276937 2.4434609528 2.4751942119 2.506927471 2.5386607302 
2.5703939893 2.6021272484 2.6338605076 2.6655937667 2.6973270258 2.7290602849 2.7607935441 2.7925268032 2.8242600623 
2.8559933214 2.8877265806 2.9194598397 2.9511930988 2.982926358 3.0146596171 3.0463928762 3.0781261353 3.1098593945 
3.1415926536 
_radius 1 100 double
5.5943151141e-16 0.015591071834 0.031046515213 0.04623490616 0.061043093908 0.075381073264 0.089182914079 0.10240444228 0.11501893767 
0.12701210763 0.1383772277 0.14911093897 0.1592099676 0.16866897506 0.17747971593 0.18563155532 0.19311319187 0.19991525189 
0.20603334753 0.21147120323 0.21624346115 0.22037772883 0.22391538538 0.22691072842 0.22942827898 0.2315384043 0.23331172872 
0.23481297549 0.23609490563 0.23719295481 0.23812108996 0.23886936889 0.23940370219 0.23966832238 0.23959133873 0.23909338612 
0.23809876416 0.23654775108 0.23440821304 0.23168444165 0.22842142482 0.22470341857 0.22064663661 0.21638701631 0.21206517545 
0.20781155491 0.2037350491 0.19991790274 0.19641807177 0.19327767099 0.1905333804 0.18822332901 0.18638627377 0.18505252376 
0.18423021834 0.18389328146 0.18397730562 0.18438610942 0.18500604249 0.18572124248 0.18642392037 0.18701774701 0.18741606862 
0.1875387924 0.18731270623 0.18667868098 0.18560464227 0.18409860386 0.18221572863 0.18005664031 0.17775759701 0.17547509124 
0.17336826489 0.17158246966 0.17023614128 0.16941114545 0.16914503926 0.16942351419 0.17017291664 0.17125513462 0.17246852594 
0.17355772508 0.17423245198 0.17419246603 0.17315409684 0.17087381062 0.16716553203 0.16191009045 0.15505660561 0.14661674717 
0.13665372627 0.12526861008 0.1125868634 0.098747648508 0.083897336904 0.068187236836 0.051774261416 0.034822610926 0.017504665063 
5.9175069893e-16 
_area 1 100 double
0 0.00058755943872 0.0023341793532 0.0051906903414 0.0090732382867 0.013864248058 0.019418407747 0.025573759858 0.032165333747 
0.039037298902 0.046050304746 0.053083406432 0.060032998875 0.066811858513 0.073349081435 0.079589142519 0.085488616584 0.09101215209 
0.096131671639 0.10083144964 0.10511746132 0.10902579839 0.11262430836 0.11600345663 0.11925594866 0.12245060347 0.12561285039 
0.12872467411 0.13174940342 0.13469621559 0.13776858548 0.14121263875 0.14489680547 0.14864410015 0.15202363103 0.15459615205 
0.15605034896 0.15610898886 0.1545766861 0.15139846586 0.14671977866 0.14088681903 0.13432498335 0.12768102837 0.12174838215 
0.11750071278 0.11483487635 0.11302264928 0.11169618459 0.11050495983 0.10916854077 0.10752721435 0.1055623118 0.10348529508 
0.10152993548 0.099647498136 0.097832700568 0.096106159158 0.094686430924 0.093341571998 0.092022010294 0.090636144368 0.08914311337 
0.087538876343 0.085777552753 0.083784840851 0.081544858708 0.079143217782 0.076743010641 0.074557117228 0.072995032333 0.071554746728 
0.070205249755 0.069009442219 0.068120264613 0.067577095512 0.067321133306 0.067314937712 0.067489930957 0.067946908497 0.068679314777 
0.068909362403 0.068400620618 0.067028010191 0.064756655345 0.061625340352 0.057722339571 0.053164103238 0.048081752219 0.042610448222 
0.036879444196 0.03101286093 0.025147191554 0.019449586381 0.014119483698 0.0093739673278 0.0054256961058 0.0024609933434 0.00062277202375 
1.0245699963e-16 
