# vtk DataFile Version 5.1
vtk output
ASCII
DATASET POLYDATA
POINTS 100 float
0.125464 0.0453332 0.737197 0.12542 0.0455061 0.736936 0.125383 0.045881 0.735921 
0.125327 0.0464531 0.734146 0.125205 0.0472152 0.731605 0.124964 0.0481573 0.728291 
0.124545 0.0492645 0.724201 0.12389 0.0505164 0.719334 0.122952 0.0518855 0.713694 
0.121694 0.0533364 0.707292 0.120096 0.0548261 0.700149 0.118151 0.0563042 0.692294 
0.115867 0.0577144 0.683764 0.113258 0.0589967 0.674608 0.110345 0.0600899 0.664883 
0.107147 0.0609345 0.65465 0.103675 0.0614762 0.643975 0.099935 0.0616685 0.632923 
0.0959189 0.061476 0.621551 0.0916109 0.0608765 0.609909 0.0869874 0.0598627 0.598034 
0.0820222 0.0584437 0.585944 0.076691 0.0566457 0.573641 0.0709767 0.0545116 0.561109 
0.0648734 0.0521003 0.548315 0.0583894 0.0494857 0.535214 0.0515474 0.0467545 0.521757 
0.0443827 0.0440031 0.50789 0.0369398 0.0413349 0.493569 0.029267 0.0388557 0.478761 
0.0214098 0.0366692 0.463452 0.0134058 0.0348719 0.447647 0.00527926 0.0335478 0.431373 
-0.00296119 0.0327636 0.414677 -0.0113228 0.0325637 0.397621 -0.0198259 0.0329667 0.380274 
-0.0284986 0.0339639 0.362705 -0.0373692 0.0355183 0.344972 -0.0464573 0.0375671 0.327113 
-0.0557657 0.0400255 0.309143 -0.0652723 0.0427929 0.291041 -0.0749249 0.0457607 0.272759 
-0.0846392 0.048821 0.254212 -0.0943002 0.0518759 0.235296 -0.103767 0.0548456 0.215886 
-0.11288 0.0576752 0.195855 -0.121474 0.0603393 0.175082 -0.129386 0.0628431 0.153468 
-0.136469 0.0652205 0.130943 -0.1426 0.0675286 0.107479 -0.147689 0.0698395 0.0830922 
-0.15168 0.0722303 0.057844 -0.154552 0.0747712 0.0318394 -0.156314 0.0775148 0.00521873 
-0.157002 0.0804864 -0.0218519 -0.156665 0.083677 -0.0491933 -0.155359 0.0870403 -0.0766254 
-0.153138 0.0904938 -0.10398 -0.150046 0.0939235 -0.131109 -0.146114 0.097193 -0.157895 
-0.141356 0.100155 -0.184252 -0.135778 0.102666 -0.210127 -0.129375 0.104596 -0.235495 
-0.122145 0.105845 -0.260353 -0.114095 0.106348 -0.284714 -0.105245 0.10608 -0.308594 
-0.0956408 0.10506 -0.332006 -0.0853525 0.10334 -0.354952 -0.0744767 0.101004 -0.377418 
-0.0631337 0.0981481 -0.399372 -0.0514606 0.0948743 -0.420765 -0.0396041 0.091273 -0.441533 
-0.0277104 0.0874135 -0.461603 -0.0159157 0.0833353 -0.480898 -0.00433848 0.0790455 -0.499347 
0.00692639 0.0745196 -0.516887 0.0178107 0.0697086 -0.53347 0.0282721 0.0645493 -0.549065 
0.0382904 0.0589782 -0.563658 0.0478616 0.0529458 -0.577254 0.0569898 0.0464306 -0.58987 
0.0656796 0.0394503 -0.601531 0.0739288 0.0320683 -0.61227 0.0817233 0.0243952 -0.622119 
0.0890352 0.0165844 -0.63111 0.0958233 0.0088216 -0.639268 0.102037 0.0013102 -0.646618 
0.107624 -0.00574622 -0.653179 0.112537 -0.0121627 -0.658971 0.116742 -0.0177902 -0.664017 
0.120228 -0.0225295 -0.668344 0.123007 -0.0263401 -0.671989 0.125123 -0.0292425 -0.674994 
0.126645 -0.0313141 -0.677414 0.127665 -0.0326787 -0.679308 0.128287 -0.0334901 -0.680739 
0.12862 -0.0339137 -0.681769 0.128764 -0.0341055 -0.682453 0.128799 -0.0341931 -0.682836 
0.128781 -0.0342603 -0.682947 
LINES 2 100
OFFSETS vtktypeint64
0 100 
CONNECTIVITY vtktypeint64
0 1 2 3 4 5 6 7 8 
9 10 11 12 13 14 15 16 17 
18 19 20 21 22 23 24 25 26 
27 28 29 30 31 32 33 34 35 
36 37 38 39 40 41 42 43 44 
45 46 47 48 49 50 51 52 53 
54 55 56 57 58 59 60 61 62 
63 64 65 66 67 68 69 70 71 
72 73 74 75 76 77 78 79 80 
81 82 83 84 85 86 87 88 89 
90 91 92 93 94 95 96 97 98 
99 
POINT_DATA 100
FIELD FieldData 3
_theta 1 100 double
0 0.031733259127 0.063466518254 0.095199777382 0.12693303651 0.15866629564 0.19039955476 0.22213281389 0.25386607302 
0.28559933214 0.31733259127 0.3490658504 0.38079910953 0.41253236865 0.44426562778 0.47599888691 0.50773214603 0.53946540516 
0.57119866429 0.60293192342 0.63466518254 0.66639844167 0.6981317008 0.72986495992 0.76159821905 0.79333147818 0.82506473731 
0.85679799643 0.88853125556 0.92026451469 0.95199777382 0.98373103294 1.0154642921 1.0471975512 1.0789308103 1.1106640695 
1.1423973286 1.1741305877 1.2058638468 1.237597106 1.2693303651 1.3010636242 1.3327968833 1.3645301425 1.3962634016 
1.4279966607 1.4597299198 1.491463179 1.5231964381 1.5549296972 1.5866629564 1.6183962155 1.6501294746 1.6818627337 
1.7135959929 1.745329252 1.7770625111 1.8087957702 1.8405290294 1.8722622885 1.9039955476 1.9357288068 1.9674620659 
1.999195325 2.0309285841 2.0626618433 2.0943951024 2.1261283615 2.1578616206 2.1895948798 2.2213281389 2.253061398 
2.2847946572 2.3165279163 2.3482611754 2.3799944345 2.4117276937 2.4434609528 2.4751942119 2.506927471 2.5386607302 
2.5703939893 2.6021272484 2.6338605076 2.6655937667 2.6973270258 2.7290602849 2.7607935441 2.7925268032 2.8242600623 
2.8559933214 2.8877265806 2.9194598397 2.9511930988 2.982926358 3.0146596171 3.0463928762 3.0781261353 3.1098593945 
3.1415926536 
_radius 1 100 double
2.4912465245e-16 0.016224773242 0.032173097907 0.047590273645 0.062273361667 0.076088006172 0.088975812252 0.10095172556 0.11209236629 
0.12251748799 0.13236753294 0.14178060568 0.15087206725 0.15971935458 0.1683536039 0.17675839647 0.18487480735 0.19261131259 
0.19985709035 0.20649747834 0.21243035151 0.21758184001 0.22191939223 0.22546004882 0.22827211238 0.23046919812 0.232196879 
0.23361364944 0.23486936284 0.23608505669 0.23733767742 0.23865178038 0.23999856425 0.24130136112 0.24244614926 0.243295543 
0.24370476182 0.2435381535 0.2426849014 0.24107256667 0.23867711966 0.23552817979 0.23170842099 0.22734660771 0.2226045469 
0.21765934324 0.21268358759 0.20782714725 0.20320448582 0.19889043409 0.1949251819 0.19132673864 0.18810699386 0.18528615657 
0.18289997823 0.18099530558 0.17961313088 0.1787650894 0.17841654086 0.17848834193 0.17887646111 0.17947683033 0.18020398534 
0.18099968294 0.1818325437 0.18269104467 0.18357251788 0.18447163322 0.1853725364 0.18624750176 0.18706139828 0.18777834804 
0.18836707189 0.18880349694 0.18907095832 0.18915886182 0.18906035941 0.18876904037 0.18827424148 0.1875546082 0.18657021207 
0.18525473483 0.18351031686 0.18120776052 0.17819349188 0.17430254635 0.16937495008 0.16327206398 0.15588985788 0.14716724849 
0.13708900223 0.12568387005 0.11301937801 0.099194988392 0.08433520857 0.068583763541 0.052099302048 0.035052443389 0.017623488666 
5.2689611748e-16 
_area 1 100 double
0 0.00068299001432 0.0026860482637 0.0058785951672 0.010065563714 0.015017018873 0.020502075447 0.026321376942 0.032332687898 
0.038465076574 0.044718554825 0.051148181889 0.057835242104 0.06485292816 0.072236859336 0.079967929627 0.087968043675 0.096104601492 
0.10420012958 0.11204632129 0.11942314423 0.12612307336 0.13197926407 0.13689453298 0.14086498213 0.14398996916 0.14646141597 
0.14853047908 0.1504574169 0.15245913767 0.15467243722 0.15714229416 0.15982873859 0.16261848328 0.16533353509 0.1677386558 
0.1695550042 0.17048744173 0.17026753933 0.16870497218 0.16573305777 0.16143403144 0.15603560658 0.14988019234 0.14337581302 
0.13693630379 0.1309133529 0.12552747347 0.1208177556 0.11663519564 0.11269460575 0.10867831955 0.10435017769 0.099630424898 
0.094627510882 0.089666049403 0.085173974787 0.081581318334 0.079206875997 0.077821490761 0.077264314699 0.077720201566 0.078365901757 
0.078776292265 0.078833977279 0.078522698034 0.077862165253 0.076892722746 0.075680298964 0.074330363342 0.07295670946 0.071552037205 
0.070085001129 0.068607229439 0.067234466169 0.066054715499 0.065042529559 0.064147968656 0.063410377654 0.0629364248 0.06291600116 
0.063715295191 0.064814952567 0.065611771269 0.065665168038 0.064661933558 0.06240713107 0.058831720452 0.053999916092 0.048103922257 
0.041441699973 0.034379819768 0.02730806158 0.020594610115 0.014550336523 0.0094082403851 0.0053203496346 0.0023699423278 0.00059290446642 
6.4607408051e-17 
