# vtk DataFile Version 5.1
vtk output
ASCII
DATASET POLYDATA
POINTS 100 float
0.0903496 0.066545 0.714835 0.0903003 0.0666697 0.714729 0.09018 0.0669308 0.714176 
0.0900046 0.067301 0.713127 0.0897997 0.0677383 0.711505 0.0895978 0.0681912 0.709216 
0.0894349 0.0686053 0.706159 0.0893466 0.0689307 0.702238 0.0893631 0.0691283 0.697368 
0.0895049 0.069176 0.691492 0.0897775 0.0690717 0.68458 0.0901683 0.0688354 0.676639 
0.0906426 0.0685069 0.66771 0.0911433 0.0681423 0.657867 0.0915906 0.0678079 0.647208 
0.0918851 0.0675717 0.635852 0.0919123 0.0674956 0.623926 0.0915494 0.0676262 0.611557 
0.0906731 0.0679884 0.598864 0.089169 0.0685794 0.585952 0.0869406 0.0693668 0.572905 
0.0839175 0.0702891 0.559786 0.0800618 0.0712592 0.546636 0.0753727 0.0721715 0.533479 
0.0698876 0.0729106 0.520321 0.0636794 0.0733618 0.507159 0.0568522 0.0734221 0.493982 
0.0495324 0.07301 0.480778 0.0418591 0.0720743 0.467534 0.0339728 0.0705995 0.454241 
0.0260046 0.068609 0.440889 0.0180668 0.0661637 0.427469 0.0102452 0.063358 0.413966 
0.00259541 0.0603129 0.400363 -0.00485737 0.0571661 0.386632 -0.0121153 0.0540616 0.372733 
-0.0192009 0.0511387 0.358615 -0.0261482 0.0485225 0.344215 -0.0329916 0.0463151 0.329462 
-0.0397558 0.0445906 0.314276 -0.0464455 0.0433921 0.298579 -0.0530393 0.0427325 0.282295 
-0.0594851 0.0425972 0.265356 -0.0657013 0.0429499 0.247708 -0.0715808 0.0437389 0.229314 
-0.076999 0.0449052 0.210156 -0.0818254 0.0463885 0.190235 -0.0859351 0.0481336 0.169571 
-0.0892226 0.0500937 0.1482 -0.0916125 0.0522326 0.126172 -0.0930688 0.0545238 0.103545 
-0.0935997 0.0569485 0.0803862 -0.0932584 0.0594915 0.0567643 -0.0921391 0.0621368 0.0327503 
-0.0903691 0.0648633 0.00841588 -0.0880966 0.0676414 -0.0161665 -0.0854775 0.0704306 -0.040923 
-0.0826607 0.0731794 -0.0657768 -0.0797739 0.0758271 -0.0906468 -0.0769123 0.0783072 -0.115447 
-0.0741305 0.0805522 -0.140085 -0.0714386 0.0824995 -0.164467 -0.0688029 0.0840963 -0.188495 
-0.0661515 0.0853044 -0.212073 -0.0633834 0.0861036 -0.235113 -0.0603806 0.0864922 -0.257539 
-0.0570225 0.0864863 -0.279289 -0.0531995 0.0861163 -0.300323 -0.0488261 0.0854218 -0.320626 
-0.0438518 0.084446 -0.340206 -0.0382681 0.083229 -0.359097 -0.0321122 0.0818026 -0.377349 
-0.0254663 0.0801863 -0.39503 -0.0184533 0.0783853 -0.412212 -0.0112289 0.0763914 -0.428967 
-0.00397171 0.0741863 -0.445354 0.00312795 0.0717473 -0.461415 0.00988034 0.0690544 -0.477161 
0.0161072 0.0660981 -0.492574 0.0216518 0.0628868 -0.507603 0.0263865 0.059453 -0.522162 
0.0302182 0.0558559 -0.536137 0.0330912 0.0521825 -0.549395 0.0349882 0.0485431 -0.56179 
0.0359279 0.0450654 -0.573178 0.0359625 0.0418838 -0.583427 0.0351731 0.0391279 -0.592431 
0.0336643 0.0369101 -0.600117 0.0315587 0.0353132 -0.606459 0.0289915 0.0343807 -0.611475 
0.0261049 0.0341101 -0.615235 0.0230433 0.0344509 -0.617855 0.0199483 0.0353065 -0.61949 
0.0169551 0.0365412 -0.620326 0.0141883 0.0379922 -0.620566 0.0117591 0.039483 -0.620416 
0.0097621 0.0408402 -0.620069 0.00827332 0.0419093 -0.619695 0.00734814 0.0425695 -0.619422 
0.00702011 0.0427452 -0.619334 
LINES 2 100
OFFSETS vtktypeint64
0 100 
CONNECTIVITY vtktypeint64
0 1 2 3 4 5 6 7 8 
9 10 11 12 13 14 15 16 17 
18 19 20 21 22 23 24 25 26 
27 28 29 30 31 32 33 34 35 
36 37 38 39 40 41 42 43 44 
45 46 47 48 49 50 51 52 53 
54 55 56 57 58 59 60 61 62 
63 64 65 66 67 68 69 70 71 
72 73 74 75 76 77 78 79 80 
81 82 83 84 85 86 87 88 89 
90 91 92 93 94 95 96 97 98 
99 
POINT_DATA 100
FIELD FieldData 3
_theta 1 100 double
0 0.031733259127 0.063466518254 0.095199777382 0.12693303651 0.15866629564 0.19039955476 0.22213281389 0.25386607302 
0.28559933214 0.31733259127 0.3490658504 0.38079910953 0.41253236865 0.44426562778 0.47599888691 0.50773214603 0.53946540516 
0.57119866429 0.60293192342 0.63466518254 0.66639844167 0.6981317008 0.72986495992 0.76159821905 0.79333147818 0.82506473731 
0.85679799643 0.88853125556 0.92026451469 0.95199777382 0.98373103294 1.0154642921 1.0471975512 1.0789308103 1.1106640695 
1.1423973286 1.1741305877 1.2058638468 1.237597106 1.2693303651 1.3010636242 1.3327968833 1.3645301425 1.3962634016 
1.4279966607 1.4597299198 1.491463179 1.5231964381 1.5549296972 1.5866629564 1.6183962155 1.6501294746 1.6818627337 
1.7135959929 1.745329252 1.7770625111 1.8087957702 1.8405290294 1.8722622885 1.9039955476 1.9357288068 1.9674620659 
1.999195325 2.0309285841 2.0626618433 2.0943951024 2.1261283615 2.1578616206 2.1895948798 2.2213281389 2.253061398 
2.2847946572 2.3165279163 2.3482611754 2.3799944345 2.4117276937 2.4434609528 2.4751942119 2.506927471 2.5386607302 
2.5703939893 2.6021272484 2.6338605076 2.6655937667 2.6973270258 2.7290602849 2.7607935441 2.7925268032 2.8242600623 
2.8559933214 2.8877265806 2.9194598397 2.9511930988 2.982926358 3.0146596171 3.0463928762 3.0781261353 3.1098593945 
3.1415926536 
_radius 1 100 double
1.890488878e-15 0.01372521087 0.027426597958 0.041064687746 0.054589024247 0.067935572259 0.081026618396 0.093773448977 0.10608171369 
0.11785893159 0.12902311303 0.13951109582 0.14928508441 0.15833613064 0.16668387688 0.17437266215 0.1814648592 0.18803283165 
0.19415099604 0.19988911607 0.20530732913 0.21045283987 0.21535800081 0.22003965977 0.22449990058 0.22872824671 0.23270492943 
0.23640431526 0.23979758409 0.24285436023 0.24554371632 0.24783516263 0.24969978214 0.25111104813 0.25204464921 0.25247704394 
0.25238322476 0.25173485087 0.2505001428 0.24864656418 0.24614648343 0.24298506379 0.23916894608 0.23473404345 0.22975093281 
0.22432676007 0.21860311684 0.21274986881 0.20695540496 0.20141430991 0.19631399821 0.1918220612 0.18807567005 0.18517361216 
0.18317109553 0.18207763485 0.18185854732 0.18243999528 0.1837163226 0.18555800127 0.18781944679 0.19034708457 0.19298804795 
0.19559899336 0.19805382334 0.20024919455 0.20210733768 0.20357642669 0.20462916107 0.20526026786 0.20548334089 0.20532694465 
0.20482947859 0.20403239785 0.2029723628 0.20167408694 0.20014559085 0.19837615753 0.19633633948 0.19397982541 0.19124770585 
0.1880752585 0.18439978646 0.18016683165 0.17533260958 0.16986221701 0.16372449139 0.15688477249 0.14929687684 0.14089621063 
0.13159724277 0.12129910629 0.10990078176 0.097322931813 0.083530825549 0.068553377036 0.052495039536 0.035538560938 0.017937654995 
6.9576498988e-16 
_area 1 100 double
0 0.00056983655711 0.0022723046391 0.0050842476149 0.0089609248999 0.013828748393 0.019578397 0.026060708782 0.033087997261 
0.040443463764 0.047900127906 0.055247532127 0.062320572558 0.069022413089 0.075333930164 0.081305433105 0.087031762427 0.092618385803 
0.098151290935 0.10368203785 0.1092294056 0.11478918467 0.12034322057 0.12586528816 0.13132699265 0.13670954502 0.14202649114 
0.14735143312 0.15281514615 0.15851544109 0.16437379599 0.17010982223 0.17536002802 0.17979487147 0.18317436584 0.18536099246 
0.18631059382 0.18605202596 0.18466050038 0.18222829518 0.17883861283 0.174550856 0.1694056532 0.16345035851 0.15677101199 
0.14950959537 0.14185822823 0.13404158215 0.12630115961 0.118881027 0.11200734173 0.10586358507 0.10057659587 0.096224172174 
0.092854543239 0.090499409574 0.089171408823 0.088848230618 0.08945484727 0.090853143297 0.092835691617 0.095124937794 0.097394295012 
0.099316007702 0.10061454166 0.10110148764 0.10068465382 0.099357948041 0.097183037862 0.094272538691 0.090779895601 0.086894296396 
0.082834970412 0.078842291522 0.075167943103 0.072062444346 0.069745540242 0.068345562304 0.067827760054 0.067969934297 0.068388651513 
0.068659000842 0.068471242059 0.067608794881 0.065944817872 0.063395497016 0.059930379969 0.055585256535 0.050466417129 0.044740037323 
0.038609667186 0.032293323942 0.02601025711 0.019977606818 0.014409815767 0.0095145582134 0.0054834169939 0.0024795350999 0.00062631074196 
2.2116579577e-17 
