# vtk DataFile Version 5.1
vtk output
ASCII
DATASET POLYDATA
POINTS 100 float
0.1311 0.0647869 0.75566 0.131051 0.0649754 0.755404 0.130936 0.0654142 0.754479 
0.130721 0.0660898 0.752883 0.130353 0.0669793 0.75061 0.129767 0.0680512 0.747658 
0.1289 0.0692653 0.744024 0.127697 0.0705749 0.739708 0.126116 0.0719282 0.734716 
0.12414 0.0732703 0.729055 0.121773 0.074547 0.722741 0.119044 0.0757069 0.715793 
0.115995 0.0767049 0.708235 0.112682 0.0775051 0.700096 0.10916 0.0780819 0.691405 
0.105474 0.0784218 0.682195 0.101656 0.0785224 0.672495 0.0977142 0.0783912 0.662335 
0.0936342 0.0780428 0.651738 0.0893796 0.0774959 0.640727 0.0848973 0.0767689 0.629315 
0.0801259 0.075877 0.617514 0.0750051 0.0748293 0.605327 0.0694859 0.0736271 0.592755 
0.0635391 0.0722641 0.579796 0.0571619 0.0707284 0.566444 0.0503799 0.0690058 0.552691 
0.0432459 0.0670848 0.538527 0.0358343 0.0649617 0.523941 0.0282321 0.0626463 0.508923 
0.0205285 0.0601665 0.493456 0.0128028 0.0575708 0.477525 0.00511486 0.0549297 0.461108 
-0.00250282 0.052333 0.444182 -0.0100485 0.0498856 0.426718 -0.01755 0.0477005 0.408683 
-0.0250587 0.0458895 0.390041 -0.0326396 0.044554 0.370757 -0.0403577 0.0437747 0.350793 
-0.0482637 0.0436036 0.330119 -0.05638 0.044058 0.308711 -0.0646889 0.0451172 0.286555 
-0.0731252 0.046723 0.263652 -0.081574 0.0487846 0.24002 -0.0898743 0.0511854 0.215696 
-0.0978279 0.0537938 0.190732 -0.105214 0.056475 0.1652 -0.111805 0.0591025 0.139188 
-0.117388 0.0615699 0.112793 -0.121779 0.0637991 0.0861195 -0.124839 0.0657465 0.0592736 
-0.126489 0.0674047 0.0323569 -0.126708 0.0688007 0.00546222 -0.125539 0.0699901 -0.021331 
-0.123078 0.0710488 -0.0479594 -0.119467 0.0720628 -0.0743768 -0.114876 0.073117 -0.100554 
-0.109488 0.0742846 -0.126476 -0.103485 0.0756187 -0.152141 -0.0970354 0.0771462 -0.17755 
-0.0902785 0.0788647 -0.202709 -0.083324 0.0807427 -0.227621 -0.0762483 0.0827236 -0.252277 
-0.0690977 0.0847309 -0.276663 -0.061894 0.0866762 -0.300749 -0.0546434 0.0884667 -0.324493 
-0.0473444 0.0900135 -0.347846 -0.0399965 0.0912372 -0.37075 -0.032606 0.0920734 -0.393145 
-0.0251901 0.0924742 -0.414975 -0.0177772 0.0924096 -0.436192 -0.0104054 0.0918655 -0.45676 
-0.0031185 0.0908413 -0.476659 0.00403932 0.0893474 -0.495885 0.0110284 0.0874019 -0.514451 
0.017818 0.085029 -0.53238 0.0243889 0.0822579 -0.549708 0.0307332 0.0791238 -0.566471 
0.0368528 0.0756688 -0.582703 0.042755 0.0719447 -0.59843 0.0484474 0.0680148 -0.613662 
0.0539319 0.0639552 -0.628392 0.0592002 0.0598557 -0.642592 0.0642302 0.0558172 -0.656218 
0.0689851 0.0519482 -0.669206 0.0734154 0.048359 -0.681483 0.0774637 0.0451541 -0.692971 
0.0810708 0.0424238 -0.703593 0.0841841 0.0402357 -0.713283 0.0867659 0.0386277 -0.721992 
0.0888 0.0376026 -0.729688 0.0902971 0.0371263 -0.736368 0.0912964 0.0371283 -0.74205 
0.0918641 0.0375075 -0.746774 0.092088 0.0381401 -0.750597 0.0920694 0.0388901 -0.753587 
0.0919129 0.0396228 -0.755816 0.091715 0.0402166 -0.757348 0.0915538 0.0405756 -0.758238 
0.0914801 0.0406385 -0.758519 
LINES 2 100
OFFSETS vtktypeint64
0 100 
CONNECTIVITY vtktypeint64
0 1 2 3 4 5 6 7 8 
9 10 11 12 13 14 15 16 17 
18 19 20 21 22 23 24 25 26 
27 28 29 30 31 32 33 34 35 
36 37 38 39 40 41 42 43 44 
45 46 47 48 49 50 51 52 53 
54 55 56 57 58 59 60 61 62 
63 64 65 66 67 68 69 70 71 
72 73 74 75 76 77 78 79 80 
81 82 83 84 85 86 87 88 89 
90 91 92 93 94 95 96 97 98 
99 
POINT_DATA 100
FIELD FieldData 3
_theta 1 100 double
0 0.031733259127 0.063466518254 0.095199777382 0.12693303651 0.15866629564 0.19039955476 0.22213281389 0.25386607302 
0.28559933214 0.31733259127 0.3490658504 0.38079910953 0.41253236865 0.44426562778 0.47599888691 0.50773214603 0.53946540516 
0.57119866429 0.60293192342 0.63466518254 0.66639844167 0.6981317008 0.72986495992 0.76159821905 0.79333147818 0.82506473731 
0.85679799643 0.88853125556 0.92026451469 0.95199777382 0.98373103294 1.0154642921 1.0471975512 1.0789308103 1.1106640695 
1.1423973286 1.1741305877 1.2058638468 1.237597106 1.2693303651 1.3010636242 1.3327968833 1.3645301425 1.3962634016 
1.4279966607 1.4597299198 1.491463179 1.5231964381 1.5549296972 1.5866629564 1.6183962155 1.6501294746 1.6818627337 
1.7135959929 1.745329252 1.7770625111 1.8087957702 1.8405290294 1.8722622885 1.9039955476 1.9357288068 1.9674620659 
1.999195325 2.0309285841 2.0626618433 2.0943951024 2.1261283615 2.1578616206 2.1895948798 2.2213281389 2.253061398 
2.2847946572 2.3165279163 2.3482611754 2.3799944345 2.4117276937 2.4434609528 2.4751942119 2.506927471 2.5386607302 
2.5703939893 2.6021272484 2.6338605076 2.6655937667 2.6973270258 2.7290602849 2.7607935441 2.7925268032 2.8242600623 
2.8559933214 2.8877265806 2.9194598397 2.9511930988 2.982926358 3.0146596171 3.0463928762 3.0781261353 3.1098593945 
3.1415926536 
_radius 1 100 double
3.9448084809e-16 0.01513280464 0.030157415773 0.044971329298 0.059486722083 0.073634772829 0.087367056304 0.10065408586 0.11348158095 
0.12584533776 0.13774565334 0.14918213589 0.16014949941 0.17063466423 0.18061523111 0.19005922218 0.19892592909 0.20716777187 
0.2147331826 0.22157057093 0.22763330771 0.23288536685 0.23730689528 0.24089870703 0.2436846796 0.24571133172 0.24704441547 
0.2477629949 0.24795200458 0.2476945255 0.24706492367 0.24612363343 0.2449138974 0.24346039585 0.24176954525 0.23983132942 
0.2376227184 0.23511283352 0.2322698774 0.22906945537 0.22550341591 0.22158795322 0.21736960339 0.21292794391 0.20837416838 
0.20384514493 0.19949308778 0.19547172186 0.19192089073 0.18895263861 0.18664207982 0.18502509624 0.1841022762 0.18384590058 
0.18420582701 0.18511157272 0.18647108666 0.18816969212 0.19007338403 0.19203862183 0.19392739296 0.19562348584 0.19704517167 
0.19815127654 0.19894032877 0.19944423193 0.19971842203 0.19983030901 0.19984743796 0.19982643368 0.19980358624 0.1997880344 
0.19975874564 0.19966627208 0.19943911377 0.19899294566 0.19824011827 0.19709723336 0.19548969677 0.19335322373 0.19063299421 
0.18728152387 0.18325637428 0.17851859597 0.17303234919 0.16676564615 0.15969180547 0.15179111753 0.14305235648 0.13347400472 
0.12306524783 0.11184688681 0.099852302136 0.087128515169 0.073737255245 0.05975578802 0.045277142907 0.030409353369 0.015273428877 
8.611303393e-16 
_area 1 100 double
0 0.00056718894067 0.0022503121699 0.0049966359023 0.0087261528674 0.013341021264 0.018734996257 0.024800837563 0.031434626266 
0.038536996179 0.046012204404 0.053766621957 0.061708491688 0.069750398766 0.077814587947 0.085839286533 0.093782502461 0.10161963235 
0.10933336583 0.11689819044 0.1242652505 0.13135412186 0.13805548017 0.14424410704 0.14979773893 0.15461577162 0.15863296212 
0.16182583929 0.16421210282 0.16584489823 0.1668040543 0.16718521538 0.1670861446 0.16658903433 0.16574038615 0.16453539933 
0.16291584577 0.16078444045 0.15803121293 0.15456527635 0.15034564132 0.14540414881 0.13985390933 0.13387972093 0.12771218883 
0.12159243961 0.11573720705 0.11031313048 0.10542414704 0.10111069813 0.097360949871 0.094147098135 0.091561595437 0.089515760593 
0.08775390583 0.086283754519 0.085088488536 0.084187426211 0.083606332332 0.083389584333 0.08353741281 0.083936201368 0.084438705166 
0.084688865653 0.084537970162 0.083945412639 0.082962614817 0.081707912865 0.080335802078 0.079001745536 0.077832550398 0.076919508751 
0.0763221483 0.076060896205 0.076106621992 0.07639035861 0.076832878729 0.077367297137 0.077926182248 0.078385817061 0.078552586102 
0.078220638842 0.077209568552 0.075379888719 0.072645331658 0.068980493369 0.064421999019 0.059063858859 0.053048622488 0.046556092898 
0.039791102853 0.03297154456 0.026317627193 0.02004302134 0.014347993503 0.009414028225 0.0053991329644 0.0024332082926 0.00061341135281 
4.6071599659e-17 
