# vtk DataFile Version 5.1
vtk output
ASCII
DATASET POLYDATA
POINTS 100 float
0.141278 0.0469863 0.773617 0.141533 0.0471958 0.773392 0.142319 0.0477083 0.772552 
0.143534 0.0484972 0.771117 0.145024 0.0495199 0.769118 0.146603 0.0507219 0.766587 
0.14807 0.0520414 0.763556 0.149238 0.0534149 0.760042 0.149952 0.0547821 0.756048 
0.150108 0.0560908 0.751552 0.14966 0.0573007 0.74651 0.148621 0.0583849 0.740859 
0.147061 0.0593308 0.734516 0.145088 0.0601387 0.727394 0.142829 0.0608198 0.719406 
0.14041 0.0613917 0.710482 0.137933 0.0618751 0.700573 0.135459 0.0622893 0.689667 
0.132992 0.0626483 0.677788 0.130479 0.0629584 0.665003 0.127808 0.0632164 0.651417 
0.124825 0.0634096 0.637168 0.121351 0.0635175 0.622413 0.1172 0.063514 0.607322 
0.112211 0.0633711 0.592056 0.106266 0.0630632 0.576761 0.0993069 0.0625709 0.56155 
0.0913514 0.0618849 0.546493 0.0824901 0.0610085 0.531617 0.0728831 0.0599588 0.516903 
0.0627434 0.0587671 0.502287 0.0523159 0.0574775 0.487673 0.0418517 0.0561436 0.472938 
0.0315813 0.0548255 0.457953 0.0216907 0.0535845 0.442589 0.0123024 0.0524794 0.426733 
0.00346489 0.0515616 0.410299 -0.00484957 0.0508716 0.393231 -0.0127371 0.0504364 0.375509 
-0.0203458 0.0502682 0.357145 -0.027853 0.050364 0.338178 -0.035438 0.0507074 0.318667 
-0.0432543 0.05127 0.298678 -0.0514049 0.0520152 0.278275 -0.059922 0.0529012 0.257508 
-0.0687561 0.053885 0.236409 -0.0777736 0.0549252 0.21498 -0.0867642 0.0559852 0.1932 
-0.095458 0.0570353 0.17102 -0.103549 0.0580534 0.148377 -0.110722 0.0590259 0.125195 
-0.116684 0.0599469 0.1014 -0.121192 0.060817 0.0769313 -0.124074 0.0616423 0.05175 
-0.125245 0.0624317 0.0258478 -0.124714 0.0631961 -0.000747626 -0.122582 0.0639458 -0.0279711 
-0.119028 0.0646896 -0.0557222 -0.114295 0.0654336 -0.0838707 -0.108657 0.0661801 -0.112266 
-0.102402 0.0669274 -0.140745 -0.095799 0.0676698 -0.169149 -0.089077 0.0683969 -0.197328 
-0.0824082 0.0690941 -0.225155 -0.0758969 0.0697429 -0.252531 -0.0695762 0.0703203 -0.279388 
-0.0634139 0.0708 -0.305691 -0.057324 0.0711519 -0.331433 -0.0511835 0.0713428 -0.35663 
-0.0448525 0.0713376 -0.381312 -0.0381945 0.0710995 -0.405514 -0.0310956 0.070592 -0.429267 
-0.0234796 0.0697806 -0.452584 -0.0153182 0.0686343 -0.475463 -0.00663584 0.0671283 -0.497872 
0.00249262 0.065246 -0.519755 0.0119484 0.0629812 -0.54103 0.0215804 0.0603396 -0.561593 
0.0312197 0.0573401 -0.58133 0.0406947 0.0540155 -0.600116 0.0498457 0.0504114 -0.617834 
0.0585378 0.0465859 -0.634375 0.0666698 0.0426067 -0.649652 0.0741792 0.0385485 -0.663604 
0.0810423 0.0344893 -0.676196 0.0872712 0.030507 -0.687427 0.0929062 0.0266749 -0.697326 
0.0980063 0.0230586 -0.705947 0.102639 0.0197127 -0.713367 0.106869 0.0166785 -0.71968 
0.11075 0.0139829 -0.724988 0.114317 0.0116381 -0.729398 0.117586 0.00964248 -0.733016 
0.120546 0.00798282 -0.735939 0.123169 0.00663696 -0.738257 0.125413 0.00557731 -0.740044 
0.127228 0.00477453 -0.741361 0.128561 0.00420124 -0.742258 0.129372 0.00383532 -0.742766 
0.12963 0.0036625 -0.742906 
LINES 2 100
OFFSETS vtktypeint64
0 100 
CONNECTIVITY vtktypeint64
0 1 2 3 4 5 6 7 8 
9 10 11 12 13 14 15 16 17 
18 19 20 21 22 23 24 25 26 
27 28 29 30 31 32 33 34 35 
36 37 38 39 40 41 42 43 44 
45 46 47 48 49 50 51 52 53 
54 55 56 57 58 59 60 61 62 
63 64 65 66 67 68 69 70 71 
72 73 74 75 76 77 78 79 80 
81 82 83 84 85 86 87 88 89 
90 91 92 93 94 95 96 97 98 
99 
POINT_DATA 100
FIELD FieldData 3
_theta 1 100 double
0 0.031733259127 0.063466518254 0.095199777382 0.12693303651 0.15866629564 0.19039955476 0.22213281389 0.25386607302 
0.28559933214 0.31733259127 0.3490658504 0.38079910953 0.41253236865 0.44426562778 0.47599888691 0.50773214603 0.53946540516 
0.57119866429 0.60293192342 0.63466518254 0.66639844167 0.6981317008 0.72986495992 0.76159821905 0.79333147818 0.82506473731 
0.85679799643 0.88853125556 0.92026451469 0.95199777382 0.98373103294 1.0154642921 1.0471975512 1.0789308103 1.1106640695 
1.1423973286 1.1741305877 1.2058638468 1.237597106 1.2693303651 1.3010636242 1.3327968833 1.3645301425 1.3962634016 
1.4279966607 1.4597299198 1.491463179 1.5231964381 1.5549296972 1.5866629564 1.6183962155 1.6501294746 1.6818627337 
1.7135959929 1.745329252 1.7770625111 1.8087957702 1.8405290294 1.8722622885 1.9039955476 1.9357288068 1.9674620659 
1.999195325 2.0309285841 2.0626618433 2.0943951024 2.1261283615 2.1578616206 2.1895948798 2.2213281389 2.253061398 
2.2847946572 2.3165279163 2.3482611754 2.3799944345 2.4117276937 2.4434609528 2.4751942119 2.506927471 2.5386607302 
2.5703939893 2.6021272484 2.6338605076 2.6655937667 2.6973270258 2.7290602849 2.7607935441 2.7925268032 2.8242600623 
2.8559933214 2.8877265806 2.9194598397 2.9511930988 2.982926358 3.0146596171 3.0463928762 3.0781261353 3.1098593945 
3.1415926536 
_radius 1 100 double
1.1301666864e-15 0.013299717611 0.026703036926 0.040291137388 0.054109167471 0.068151334203 0.08235078133 0.096576720678 0.11064045365 
0.12431034629 0.13733405056 0.14946484492 0.16048824132 0.17024505931 0.17864787983 0.1856889156 0.19143860529 0.19603546701 
0.1996688441 0.2025570895 0.20492432789 0.20697897107 0.20889649375 0.21080780819 0.2127934468 0.21488317066 0.2170606196 
0.2192727266 0.22144319856 0.22348827537 0.22533188933 0.22691717688 0.22821231709 0.2292103114 0.2299237489 0.2303763066 
0.23059269295 0.23058832873 0.23035981054 0.22987746693 0.2290819176 0.22788681935 0.22618926427 0.2238875086 0.22090351042 
0.21720608266 0.21282989738 0.20788603798 0.20256084424 0.19710107366 0.19178500777 0.18688185858 0.18260700634 0.17908759101 
0.17635448336 0.17436391818 0.17303333327 0.17227108119 0.17199027884 0.17210858163 0.17254043369 0.17318845475 0.17393938436 
0.17466810909 0.17525016131 0.17557936787 0.17558512427 0.17524428533 0.17458501404 0.17368235525 0.17264681638 0.17160794257 
0.17069524719 0.17001913171 0.16965446508 0.16962902322 0.1699179645 0.17044430024 0.17108441393 0.17167722926 0.1720354409 
0.17195736921 0.17123864823 0.16968370491 0.16711716121 0.16339477663 0.15841283783 0.15211452642 0.14449199165 0.135583567 
0.12546656725 0.11424706993 0.10204871129 0.089002604679 0.075239983911 0.06088825312 0.046070108097 0.030904636841 0.015509053583 
4.8925142608e-16 
_area 1 100 double
0 0.00045633055418 0.0018358213896 0.0041669816124 0.0074874325382 0.011829497562 0.017201591631 0.023568353763 0.030834269846 
0.03883627942 0.0473493686 0.056105336788 0.064820309194 0.073223737826 0.081082618469 0.08821885567 0.094521461653 0.099954984288 
0.10456194947 0.10845480793 0.11179531575 0.11476519703 0.11753692916 0.12025364832 0.12302173582 0.12591216594 0.12896295696 
0.13217769975 0.13552140668 0.13892036722 0.14227394255 0.14547889353 0.14845281903 0.15114090725 0.1535060634 0.15551593605 
0.15713804167 0.15834294872 0.15910710834 0.15940687096 0.15920170333 0.15841339131 0.15691511104 0.15454463553 0.15114596713 
0.14662853627 0.14102439547 0.13452678617 0.12750321837 0.1204819791 0.11408697831 0.10882651254 0.10476539916 0.10151071838 
0.098579987752 0.095683506941 0.092776812988 0.08999717335 0.087553064747 0.085602633626 0.084185247959 0.083227665888 0.082588964785 
0.08210309095 0.081603552117 0.080935661095 0.079971064529 0.078623844614 0.076864032242 0.074725283097 0.07230377466 0.069748913803 
0.067249432051 0.065018013872 0.063273108973 0.062208489899 0.061942402644 0.062471147954 0.063672500172 0.065341407848 0.067210736491 
0.06896390523 0.070262682506 0.070784773431 0.070258176015 0.068489809206 0.065388673147 0.060980539231 0.05540946766 0.048923340214 
0.041844788885 0.034533094405 0.027344913728 0.020601336871 0.014566283073 0.009437867289 0.005351304961 0.002389814492 0.00059896082109 
2.8677253341e-17 
