# vtk DataFile Version 5.1
vtk output
ASCII
DATASET POLYDATA
POINTS 100 float
0.160911 0.0578581 0.694182 0.160982 0.0582087 0.694059 0.161309 0.059101 0.693543 
0.161823 0.0604801 0.692635 0.162416 0.06226 0.691337 0.162955 0.0643311 0.689645 
0.163299 0.0665693 0.687545 0.163308 0.0688462 0.685014 0.162862 0.0710384 0.682011 
0.161873 0.0730361 0.678482 0.160285 0.0747494 0.674363 0.158084 0.0761116 0.669582 
0.155285 0.07708 0.66407 0.151931 0.0776344 0.657765 0.148081 0.0777731 0.650624 
0.143794 0.0775075 0.642627 0.139123 0.0768571 0.633783 0.134104 0.075844 0.624131 
0.128751 0.0744891 0.613737 0.123056 0.0728103 0.60269 0.116995 0.0708223 0.59109 
0.110529 0.0685382 0.579041 0.10362 0.0659732 0.566639 0.0962406 0.0631486 0.553959 
0.0883782 0.0600958 0.541054 0.080046 0.0568602 0.527943 0.0712834 0.0535031 0.514618 
0.0621544 0.0501009 0.501043 0.0527401 0.0467436 0.487166 0.0431297 0.0435294 0.472924 
0.0334081 0.0405587 0.458259 0.0236433 0.0379259 0.443128 0.013877 0.0357123 0.427506 
0.00411718 0.0339781 0.411396 -0.00566342 0.0327574 0.394827 -0.0155231 0.0320551 0.377847 
-0.0255421 0.0318461 0.36052 -0.0358081 0.0320789 0.342908 -0.0463999 0.0326808 0.325063 
-0.0573689 0.0335655 0.307011 -0.0687238 0.0346432 0.288747 -0.0804176 0.0358293 0.270223 
-0.0923413 0.0370542 0.251357 -0.104324 0.0382699 0.232028 -0.116141 0.0394547 0.212095 
-0.127526 0.040615 0.191409 -0.138193 0.0417832 0.16983 -0.147856 0.0430133 0.147248 
-0.156253 0.0443731 0.123595 -0.163165 0.0459356 0.0988592 -0.168436 0.047769 0.0730922 
-0.171978 0.049928 0.0464074 -0.173778 0.0524455 0.0189739 -0.17389 0.055327 -0.0089963 
-0.172431 0.0585483 -0.0372656 -0.169556 0.0620553 -0.0655897 -0.16545 0.0657672 -0.0937377 
-0.160303 0.0695823 -0.121508 -0.154294 0.0733851 -0.148743 -0.147584 0.0770549 -0.175334 
-0.140303 0.0804741 -0.201222 -0.132548 0.0835357 -0.226395 -0.124391 0.0861496 -0.250875 
-0.115883 0.0882463 -0.274705 -0.107062 0.0897794 -0.297935 -0.0979684 0.0907247 -0.320609 
-0.0886482 0.0910783 -0.342752 -0.079162 0.0908533 -0.364368 -0.0695859 0.090075 -0.385434 
-0.0600083 0.0887769 -0.40591 -0.0505238 0.0869963 -0.425742 -0.0412236 0.0847715 -0.444879 
-0.0321844 0.0821395 -0.463278 -0.0234594 0.0791359 -0.480921 -0.0150701 0.0757953 -0.497816 
-0.00700327 0.072153 -0.514004 0.000787505 0.0682472 -0.529551 0.00837511 0.0641211 -0.544543 
0.0158478 0.0598253 -0.559069 0.0232947 0.0554184 -0.573208 0.0307906 0.0509674 -0.587015 
0.0383812 0.0465468 -0.600499 0.0460716 0.0422354 -0.613625 0.0538204 0.0381138 -0.6263 
0.0615384 0.0342596 -0.638389 0.0690957 0.0307429 -0.649714 0.0763335 0.027622 -0.660084 
0.0830807 0.0249392 -0.669307 0.0891734 0.0227176 -0.677222 0.0944741 0.02096 -0.683715 
0.0988885 0.019648 -0.688743 0.102377 0.0187433 -0.692338 0.104961 0.0181907 -0.694617 
0.106721 0.0179224 -0.695769 0.107783 0.0178623 -0.696041 0.108311 0.0179325 -0.695716 
0.108479 0.0180588 -0.695082 0.108454 0.0181767 -0.694404 0.108372 0.0182358 -0.693895 
0.108323 0.0182043 -0.693693 
LINES 2 100
OFFSETS vtktypeint64
0 100 
CONNECTIVITY vtktypeint64
0 1 2 3 4 5 6 7 8 
9 10 11 12 13 14 15 16 17 
18 19 20 21 22 23 24 25 26 
27 28 29 30 31 32 33 34 35 
36 37 38 39 40 41 42 43 44 
45 46 47 48 49 50 51 52 53 
54 55 56 57 58 59 60 61 62 
63 64 65 66 67 68 69 70 71 
72 73 74 75 76 77 78 79 80 
81 82 83 84 85 86 87 88 89 
90 91 92 93 94 95 96 97 98 
99 
POINT_DATA 100
FIELD FieldData 3
_theta 1 100 double
0 0.031733259127 0.063466518254 0.095199777382 0.12693303651 0.15866629564 0.19039955476 0.22213281389 0.25386607302 
0.28559933214 0.31733259127 0.3490658504 0.38079910953 0.41253236865 0.44426562778 0.47599888691 0.50773214603 0.53946540516 
0.57119866429 0.60293192342 0.63466518254 0.66639844167 0.6981317008 0.72986495992 0.76159821905 0.79333147818 0.82506473731 
0.85679799643 0.88853125556 0.92026451469 0.95199777382 0.98373103294 1.0154642921 1.0471975512 1.0789308103 1.1106640695 
1.1423973286 1.1741305877 1.2058638468 1.237597106 1.2693303651 1.3010636242 1.3327968833 1.3645301425 1.3962634016 
1.4279966607 1.4597299198 1.491463179 1.5231964381 1.5549296972 1.5866629564 1.6183962155 1.6501294746 1.6818627337 
1.7135959929 1.745329252 1.7770625111 1.8087957702 1.8405290294 1.8722622885 1.9039955476 1.9357288068 1.9674620659 
1.999195325 2.0309285841 2.0626618433 2.0943951024 2.1261283615 2.1578616206 2.1895948798 2.2213281389 2.253061398 
2.2847946572 2.3165279163 2.3482611754 2.3799944345 2.4117276937 2.4434609528 2.4751942119 2.506927471 2.5386607302 
2.5703939893 2.6021272484 2.6338605076 2.6655937667 2.6973270258 2.7290602849 2.7607935441 2.7925268032 2.8242600623 
2.8559933214 2.8877265806 2.9194598397 2.9511930988 2.982926358 3.0146596171 3.0463928762 3.0781261353 3.1098593945 
3.1415926536 
_radius 1 100 double
1.3555551482e-15 0.01536782492 0.030568528629 0.045443667719 0.059857018282 0.073702090334 0.086905843002 0.099428272159 0.11125811291 
0.12240539404 0.13289196184 0.14274135843 0.15196958808 0.16057826346 0.16855128552 0.17585557857 0.18244567446 0.1882713843 
0.19328752458 0.1974645876 0.20079920119 0.20332310559 0.20510919621 0.20627306607 0.20696864908 0.20737722657 0.20769026191 
0.20808802091 0.20871721166 0.2096714555 0.21097810785 0.21259390136 0.21441029595 0.21626757162 0.21797506286 0.21933402875 
0.22015971109 0.22029994397 0.21964878466 0.21815463361 0.21582301149 0.21271455795 0.20893898929 0.20464578253 0.2000123199 
0.19523019958 0.19049044738 0.1859684724 0.18180987409 0.17811885082 0.17495205361 0.17232128314 0.17020635458 0.16857436916 
0.16739730827 0.16666055481 0.16636013011 0.1664920905 0.16704037869 0.16796864319 0.16921848836 0.17071348211 0.17236637528 
0.17408652647 0.1757851245 0.1773771757 0.17878135237 0.17992102927 0.18072961351 0.18115936048 0.18118956233 0.18083078584 
0.18012414897 0.17913583677 0.17794750313 0.17664371094 0.17529820601 0.17396122572 0.17264977961 0.1713418426 0.16997438048 
0.1684448784 0.16661632781 0.16432570711 0.16139566585 0.15764860398 0.15292182413 0.14708206818 0.14003765833 0.13174670501 
0.12222035963 0.1115207501 0.099753919478 0.087058723036 0.073593194002 0.059520327957 0.044995482808 0.03015751973 0.015125284623 
3.432042858e-16 
_area 1 100 double
0 0.00054676330915 0.0021670871874 0.0048034002121 0.0083672085105 0.012749223286 0.017831346311 0.023498292228 0.029646264977 
0.036186290159 0.043040803924 0.050134095616 0.057379903557 0.064671557036 0.071879698098 0.078859340824 0.085463732727 0.091559859855 
0.097040906294 0.10183407755 0.10590558841 0.10926504312 0.11196853809 0.11411782136 0.11585430287 0.11734846407 0.11878476907 
0.12034230363 0.12217419053 0.12439081558 0.1270493436 0.13014620998 0.13359563255 0.13717091307 0.14048985729 0.14314297459 
0.14481365214 0.1453261697 0.14465465057 0.14289952198 0.14023685428 0.13685963548 0.13293641966 0.12860114213 0.12396600504 
0.11913713583 0.11421925673 0.10931068447 0.10449780316 0.099857362524 0.095473907975 0.091469413727 0.087983790143 0.08502156461 
0.082462282694 0.080337493866 0.078940186201 0.078381666416 0.078318703012 0.07841426174 0.078458062977 0.078351630755 0.07812402262 
0.078110134261 0.078425291197 0.078462251342 0.078123889798 0.077394938254 0.076285119878 0.074822586484 0.07305816858 0.071070462419 
0.068967828614 0.066886930077 0.064985402262 0.063422931859 0.062325960956 0.061745526675 0.061637262757 0.061877528865 0.062298399395 
0.06271864478 0.062956712276 0.062826506755 0.062131121256 0.060672580467 0.058281893686 0.054857017509 0.050393455279 0.044998773953 
0.038888108445 0.032361435693 0.025766711694 0.01945593641 0.013743026976 0.0088723769851 0.0050048200465 0.0022233575446 0.00055507282202 
5.5747370438e-17 
