# vtk DataFile Version 5.1
vtk output
ASCII
DATASET POLYDATA
POINTS 100 float
0.130479 0.0501452 0.639354 0.130477 0.0503396 0.63914 0.130562 0.050768 0.638385 
0.130707 0.0514028 0.637108 0.130868 0.0522026 0.635338 0.130984 0.053118 0.63311 
0.130986 0.054097 0.630452 0.130793 0.0550911 0.627382 0.130323 0.0560605 0.623904 
0.129493 0.0569775 0.62 0.128225 0.0578281 0.615635 0.126451 0.0586112 0.610754 
0.124115 0.0593356 0.605296 0.12118 0.0600158 0.599196 0.117625 0.0606663 0.592398 
0.113447 0.0612964 0.584862 0.108664 0.061905 0.576573 0.103309 0.0624781 0.567547 
0.0974288 0.0629873 0.557829 0.0910796 0.0633917 0.547489 0.0843243 0.0636413 0.536621 
0.077227 0.0636824 0.525328 0.0698492 0.0634649 0.513712 0.0622469 0.0629486 0.501863 
0.0544672 0.06211 0.489849 0.0465477 0.0609469 0.477704 0.0385158 0.0594809 0.465434 
0.0303891 0.0577574 0.453005 0.0221773 0.0558431 0.44036 0.0138838 0.0538207 0.427418 
0.00550865 0.0517827 0.414091 -0.00294961 0.0498232 0.400292 -0.0114914 0.0480308 0.38595 
-0.0201146 0.0464819 0.371017 -0.0288128 0.0452355 0.355473 -0.0375749 0.0443306 0.339329 
-0.046384 0.0437859 0.322625 -0.0552171 0.043601 0.30542 -0.0640446 0.0437603 0.287786 
-0.0728293 0.0442377 0.269793 -0.081526 0.0450009 0.251501 -0.0900797 0.0460168 0.23295 
-0.0984245 0.0472542 0.214153 -0.106483 0.0486862 0.195094 -0.114164 0.0502903 0.175731 
-0.121366 0.0520473 0.156002 -0.127976 0.0539392 0.135838 -0.133874 0.0559464 0.115169 
-0.138936 0.0580449 0.0939409 -0.143042 0.0602049 0.0721252 -0.146084 0.0623901 0.0497269 
-0.147969 0.064559 0.0267894 -0.148635 0.0666676 0.00339341 -0.14805 0.0686731 -0.0203476 
-0.146223 0.070539 -0.0442961 -0.143203 0.0722389 -0.068302 -0.139081 0.0737607 -0.0922155 
-0.133988 0.0751081 -0.115899 -0.128085 0.0763006 -0.139239 -0.121555 0.0773711 -0.16215 
-0.114592 0.0783603 -0.18458 -0.107387 0.0793107 -0.206509 -0.100114 0.0802583 -0.227945 
-0.0929203 0.081225 -0.248911 -0.0859163 0.0822121 -0.269443 -0.0791684 0.0831956 -0.289574 
-0.0726976 0.084125 -0.309328 -0.0664818 0.0849247 -0.328716 -0.0604616 0.0855001 -0.34773 
-0.0545497 0.0857456 -0.366347 -0.0486434 0.0855555 -0.38453 -0.0426376 0.0848358 -0.402238 
-0.0364379 0.0835153 -0.419431 -0.0299721 0.0815553 -0.436081 -0.0231997 0.078956 -0.452172 
-0.0161165 0.0757596 -0.467709 -0.00875667 0.0720478 -0.482713 -0.00119025 0.0679364 -0.497221 
0.00648334 0.0635655 -0.511275 0.014144 0.0590871 -0.524916 0.0216615 0.0546519 -0.538174 
0.028907 0.0503962 -0.551054 0.0357633 0.0464308 -0.563537 0.0421334 0.0428328 -0.575569 
0.0479468 0.039642 -0.587067 0.0531627 0.0368609 -0.597925 0.0577694 0.0344597 -0.608019 
0.0617817 0.0323838 -0.617228 0.0652358 0.0305647 -0.62544 0.068182 0.0289313 -0.632572 
0.0706781 0.0274199 -0.638581 0.0727825 0.0259837 -0.643469 0.0745483 0.0245981 -0.647287 
0.07602 0.0232627 -0.650134 0.0772308 0.022 -0.652143 0.0782033 0.02085 -0.653473 
0.0789506 0.0198626 -0.654288 0.0794788 0.0190892 -0.654741 0.0797901 0.018574 -0.654955 
0.0798853 0.0183463 -0.655011 
LINES 2 100
OFFSETS vtktypeint64
0 100 
CONNECTIVITY vtktypeint64
0 1 2 3 4 5 6 7 8 
9 10 11 12 13 14 15 16 17 
18 19 20 21 22 23 24 25 26 
27 28 29 30 31 32 33 34 35 
36 37 38 39 40 41 42 43 44 
45 46 47 48 49 50 51 52 53 
54 55 56 57 58 59 60 61 62 
63 64 65 66 67 68 69 70 71 
72 73 74 75 76 77 78 79 80 
81 82 83 84 85 86 87 88 89 
90 91 92 93 94 95 96 97 98 
99 
POINT_DATA 100
FIELD FieldData 3
_theta 1 100 double
0 0.031733259127 0.063466518254 0.095199777382 0.12693303651 0.15866629564 0.19039955476 0.22213281389 0.25386607302 
0.28559933214 0.31733259127 0.3490658504 0.38079910953 0.41253236865 0.44426562778 0.47599888691 0.50773214603 0.53946540516 
0.57119866429 0.60293192342 0.63466518254 0.66639844167 0.6981317008 0.72986495992 0.76159821905 0.79333147818 0.82506473731 
0.85679799643 0.88853125556 0.92026451469 0.95199777382 0.98373103294 1.0154642921 1.0471975512 1.0789308103 1.1106640695 
1.1423973286 1.1741305877 1.2058638468 1.237597106 1.2693303651 1.3010636242 1.3327968833 1.3645301425 1.3962634016 
1.4279966607 1.4597299198 1.491463179 1.5231964381 1.5549296972 1.5866629564 1.6183962155 1.6501294746 1.6818627337 
1.7135959929 1.745329252 1.7770625111 1.8087957702 1.8405290294 1.8722622885 1.9039955476 1.9357288068 1.9674620659 
1.999195325 2.0309285841 2.0626618433 2.0943951024 2.1261283615 2.1578616206 2.1895948798 2.2213281389 2.253061398 
2.2847946572 2.3165279163 2.3482611754 2.3799944345 2.4117276937 2.4434609528 2.4751942119 2.506927471 2.5386607302 
2.5703939893 2.6021272484 2.6338605076 2.6655937667 2.6973270258 2.7290602849 2.7607935441 2.7925268032 2.8242600623 
2.8559933214 2.8877265806 2.9194598397 2.9511930988 2.982926358 3.0146596171 3.0463928762 3.0781261353 3.1098593945 
3.1415926536 
_radius 1 100 double
9.0631623691e-16 0.015094353032 0.030012666754 0.044589972117 0.058682270931 0.072174760791 0.084987564466 0.097078262649 0.1084407402 
0.11910019908 0.12910464857 0.13851371108 0.14738611772 0.15576772329 0.16368210169 0.17112561418 0.1780681549 0.18445964244 
0.19024104885 0.19535776522 0.19977270306 0.20347676368 0.20649497927 0.20888747775 0.21074523996 0.21218129036 0.21331845843 
0.21427518646 0.21515108072 0.21601403294 0.21689074094 0.21776222476 0.21856535044 0.21920045989 0.21954418839 0.21946574165 
0.21884447972 0.21758659062 0.21563882065 0.21299758982 0.20971234398 0.20588267203 0.20164950963 0.19718158469 0.19265902214 
0.18825656072 0.18412897219 0.18040089148 0.1771623497 0.1744699709 0.17235233384 0.17081687931 0.16985549946 0.16944687816 
0.16955547206 0.17012881448 0.171095574 0.172366206 0.17383673235 0.17539505693 0.17692865668 0.17833235766 0.17951503891 
0.18040446477 0.18094996517 0.18112320305 0.18091764198 0.18034742783 0.17944610862 0.17826501322 0.17687056674 0.17533974864 
0.17375339397 0.17218780679 0.17070576663 0.16934818229 0.16812737895 0.16702249681 0.16597702915 0.16489839345 0.1636596915 
0.16210427918 0.16005403345 0.15732188619 0.15372819204 0.14911913971 0.14338432121 0.13647026203 0.12838730657 0.11920849033 
0.10906051514 0.098108329289 0.086535853747 0.074525931375 0.062242528631 0.049817612829 0.037344117546 0.024875264982 0.012429538794 
1.7818311795e-15 
_area 1 100 double
0 0.00051627264693 0.002046041091 0.0045322692021 0.0078809396869 0.011964548546 0.01662955412 0.021708225622 0.027034083134 
0.032459104583 0.037870121029 0.043201154546 0.048437955689 0.053611330007 0.058778031073 0.063992357416 0.069276457098 0.074599549458 
0.079873805787 0.084968578902 0.089738261624 0.094055172888 0.097838472866 0.10107241441 0.10381085543 0.10616860486 0.10830273995 
0.11038757989 0.11258552385 0.11501482933 0.11771835929 0.12064279131 0.12363717867 0.12647127161 0.12886700797 0.13053640441 
0.13122179884 0.13073513626 0.12899144035 0.12603035737 0.12202051624 0.11724412204 0.11206215872 0.10686264002 0.10199647621 
0.097711573567 0.094106805354 0.091129405856 0.08861726515 0.086363118058 0.084177002564 0.081935465511 0.079612542843 0.077284339233 
0.075098456687 0.073243111756 0.072111024475 0.072568493713 0.073705511369 0.074997740647 0.076244056276 0.077300686661 0.078054280514 
0.078432291806 0.078411395775 0.07798712519 0.07711428242 0.07577382584 0.074029812505 0.072009677305 0.069867659422 0.067750418711 
0.065771553462 0.064003508491 0.062489744301 0.06126663602 0.060375223543 0.059850388562 0.059694326917 0.059850808564 0.060192105283 
0.060521687154 0.060591832418 0.060134735609 0.05890286077 0.056710811194 0.053469912892 0.049208002558 0.044069811537 0.038297395837 
0.032194632172 0.026083686967 0.02026317853 0.014976694743 0.010396771983 0.0066248185035 0.0037035222066 0.0016361844383 0.00040731061207 
2.3862700897e-17 
