# vtk DataFile Version 5.1
vtk output
ASCII
DATASET POLYDATA
POINTS 100 float
0.132958 0.0830967 0.696522 0.132937 0.0830541 0.696341 0.132922 0.0827931 0.695613 
0.132879 0.08235 0.694353 0.132755 0.0817786 0.692583 0.13249 0.0811424 0.690329 
0.132022 0.080505 0.687607 0.131297 0.0799201 0.684422 0.130279 0.079423 0.680763 
0.128951 0.0790249 0.676596 0.127319 0.0787103 0.671867 0.125411 0.078438 0.666507 
0.123269 0.0781458 0.66044 0.120942 0.0777592 0.653588 0.118473 0.0771999 0.645888 
0.115895 0.0763975 0.637297 0.113215 0.0752978 0.627806 0.110413 0.0738711 0.61744 
0.10744 0.0721161 0.60626 0.104216 0.0700606 0.594364 0.100642 0.0677586 0.581874 
0.0966071 0.0652837 0.568926 0.0920025 0.0627214 0.555658 0.0867347 0.0601587 0.542196 
0.0807382 0.0576756 0.52864 0.0739858 0.0553371 0.515055 0.066494 0.0531887 0.501463 
0.0583247 0.0512541 0.487845 0.0495803 0.0495373 0.474146 0.0403955 0.0480269 0.460281 
0.030924 0.046703 0.446146 0.0213236 0.0455452 0.431638 0.0117409 0.0445397 0.416661 
0.00229728 0.0436854 0.401145 -0.00692168 0.0429976 0.385049 -0.0158719 0.0425079 0.368368 
-0.0245514 0.0422618 0.351131 -0.032995 0.0423121 0.333397 -0.0412645 0.0427115 0.315239 
-0.0494346 0.0435033 0.29674 -0.0575772 0.0447131 0.277971 -0.0657457 0.0463419 0.258984 
-0.0739608 0.0483627 0.239802 -0.082201 0.0507194 0.220409 -0.090397 0.0533312 0.200755 
-0.0984326 0.0560989 0.180758 -0.106151 0.0589152 0.160313 -0.113367 0.0616753 0.139307 
-0.119881 0.0642884 0.117633 -0.125495 0.0666874 0.0952025 -0.130035 0.0688356 0.0719631 
-0.13336 0.0707301 0.047905 -0.135377 0.0724006 0.0230671 -0.136048 0.0739043 -0.00246388 
-0.135391 0.0753171 -0.0285588 -0.133476 0.0767228 -0.0550565 -0.130417 0.0782009 -0.0817768 
-0.12636 0.0798153 -0.108536 -0.121469 0.0816046 -0.135162 -0.115909 0.0835762 -0.161505 
-0.109837 0.0857034 -0.187448 -0.103387 0.0879275 -0.212915 -0.0966642 0.090163 -0.237862 
-0.0897438 0.0923059 -0.262282 -0.0826696 0.0942434 -0.28619 -0.0754601 0.0958647 -0.309616 
-0.068115 0.0970699 -0.332589 -0.0606247 0.0977775 -0.355132 -0.0529788 0.097928 -0.377246 
-0.0451746 0.0974854 -0.39891 -0.0372229 0.0964349 -0.420077 -0.0291517 0.0947784 -0.440676 
-0.021007 0.0925289 -0.460619 -0.0128506 0.0897043 -0.479811 -0.00475594 0.0863228 -0.498158 
0.0031978 0.0823992 -0.515577 0.0109323 0.0779452 -0.532008 0.0183762 0.0729709 -0.547421 
0.0254708 0.0674903 -0.561815 0.0321731 0.061527 -0.575221 0.0384585 0.055121 -0.587701 
0.0443197 0.0483353 -0.599337 0.0497653 0.0412589 -0.610224 0.0548164 0.0340083 -0.620462 
0.0595019 0.0267247 -0.630144 0.0638541 0.0195669 -0.639351 0.0679046 0.0127017 -0.64814 
0.0716803 0.00629117 -0.656545 0.0752014 0.000479953 -0.664574 0.0784791 -0.00461787 -0.67221 
0.0815161 -0.00892873 -0.679412 0.0843067 -0.0124262 -0.686125 0.0868389 -0.0151324 -0.692281 
0.0890953 -0.0171148 -0.697807 0.0910563 -0.0184773 -0.702629 0.0927012 -0.0193477 -0.706679 
0.0940106 -0.0198619 -0.709896 0.0949673 -0.0201478 -0.712232 0.0955582 -0.0203091 -0.71365 
0.0957744 -0.0204137 -0.714129 
LINES 2 100
OFFSETS vtktypeint64
0 100 
CONNECTIVITY vtktypeint64
0 1 2 3 4 5 6 7 8 
9 10 11 12 13 14 15 16 17 
18 19 20 21 22 23 24 25 26 
27 28 29 30 31 32 33 34 35 
36 37 38 39 40 41 42 43 44 
45 46 47 48 49 50 51 52 53 
54 55 56 57 58 59 60 61 62 
63 64 65 66 67 68 69 70 71 
72 73 74 75 76 77 78 79 80 
81 82 83 84 85 86 87 88 89 
90 91 92 93 94 95 96 97 98 
99 
POINT_DATA 100
FIELD FieldData 3
_theta 1 100 double
0 0.031733259127 0.063466518254 0.095199777382 0.12693303651 0.15866629564 0.19039955476 0.22213281389 0.25386607302 
0.28559933214 0.31733259127 0.3490658504 0.38079910953 0.41253236865 0.44426562778 0.47599888691 0.50773214603 0.53946540516 
0.57119866429 0.60293192342 0.63466518254 0.66639844167 0.6981317008 0.72986495992 0.76159821905 0.79333147818 0.82506473731 
0.85679799643 0.88853125556 0.92026451469 0.95199777382 0.98373103294 1.0154642921 1.0471975512 1.0789308103 1.1106640695 
1.1423973286 1.1741305877 1.2058638468 1.237597106 1.2693303651 1.3010636242 1.3327968833 1.3645301425 1.3962634016 
1.4279966607 1.4597299198 1.491463179 1.5231964381 1.5549296972 1.5866629564 1.6183962155 1.6501294746 1.6818627337 
1.7135959929 1.745329252 1.7770625111 1.8087957702 1.8405290294 1.8722622885 1.9039955476 1.9357288068 1.9674620659 
1.999195325 2.0309285841 2.0626618433 2.0943951024 2.1261283615 2.1578616206 2.1895948798 2.2213281389 2.253061398 
2.2847946572 2.3165279163 2.3482611754 2.3799944345 2.4117276937 2.4434609528 2.4751942119 2.506927471 2.5386607302 
2.5703939893 2.6021272484 2.6338605076 2.6655937667 2.6973270258 2.7290602849 2.7607935441 2.7925268032 2.8242600623 
2.8559933214 2.8877265806 2.9194598397 2.9511930988 2.982926358 3.0146596171 3.0463928762 3.0781261353 3.1098593945 
3.1415926536 
_radius 1 100 double
1.8253379971e-16 0.012650729617 0.025316035788 0.038000699963 0.05069927479 0.0633903773 0.076031059312 0.088552461155 0.1008581019 
0.11282586413 0.12431413626 0.13517185446 0.14525147931 0.15442336058 0.16258958093 0.16969528908 0.17573576812 0.18075804067 
0.1848566601 0.18816435503 0.19083911903 0.19304981488 0.19496216509 0.19672626974 0.19846602041 0.20027046715 0.2021874731 
0.20422052826 0.20632984773 0.2084384815 0.21044316273 0.2122284307 0.21368167184 0.21470645201 0.21523194247 0.21521723241 
0.21465057734 0.21354478135 0.21193061092 0.20985019996 0.20735186536 0.20448684912 0.20130760921 0.19786678457 0.19421610182 
0.19040519608 0.18648118126 0.18249026727 0.17848232305 0.1745179269 0.17067564702 0.16705606673 0.16377924232 0.16097389202 
0.15875910465 0.15722218532 0.15639878262 0.15626217847 0.15672588903 0.15765828521 0.15890356551 0.16030291369 0.16171202706 
0.16301369642 0.16412530355 0.16500113956 0.16562927151 0.16602339821 0.16621212825 0.16622969616 0.16611067942 0.16588765372 
0.1655889979 0.16523541328 0.16483565624 0.16438264345 0.1638506946 0.1631941534 0.16234749834 0.16122722337 0.15973582139 
0.15776785754 0.15521747163 0.15198610211 0.1479891546 0.14316079845 0.13745677569 0.13085565084 0.12335908426 0.11499150283 
0.10579917122 0.09584835973 0.08522221553 0.074016127424 0.062331786409 0.050270650676 0.037927936199 0.025388389269 0.012724849348 
5.5968340277e-16 
_area 1 100 double
0 0.00042696548762 0.001714345421 0.0038769851067 0.0069260095694 0.010853653233 0.015620084143 0.021145970655 0.027312079699 
0.033964789797 0.040924963064 0.047997663394 0.054981725729 0.061680333845 0.067914777871 0.073541799284 0.078471034131 0.082676409513 
0.086196900412 0.089126951532 0.09160108148 0.093777551506 0.095823074495 0.09789752264 0.10013699896 0.10263578696 0.10543113914 
0.10849694622 0.11175013628 0.11506750564 0.1183060311 0.12132075897 0.12397797324 0.1261628914 0.12778180946 0.12876066651 
0.12904287243 0.1285884805 0.12737676156 0.1254133277 0.12274020218 0.11944481992 0.11566283129 0.11156930642 0.10735520657 
0.1031925637 0.099198790175 0.095413611321 0.091802509286 0.088293296258 0.084815900406 0.081300653077 0.077729728561 0.074201609606 
0.070910927874 0.068092359885 0.065963698082 0.064657508968 0.064180463991 0.064425359244 0.065198568179 0.066258793398 0.067355961554 
0.068268424049 0.068834019746 0.06896939061 0.068673761693 0.068013612423 0.067090060985 0.066004537113 0.064843347371 0.063682250447 
0.062594261772 0.061649761374 0.060909143564 0.060411287797 0.060161062287 0.060122048528 0.060219708712 0.060348361914 0.060375130276 
0.060145596298 0.059496482764 0.058274479482 0.056356825092 0.053669093659 0.050197114216 0.045991688013 0.041166047897 0.035886761637 
0.030359258376 0.024809545813 0.019464054258 0.014529921948 0.010178397842 0.0065341842586 0.0036730612147 0.0016286036557 0.00040622514408 
3.0798116309e-17 
