# vtk DataFile Version 5.1
vtk output
ASCII
DATASET POLYDATA
POINTS 100 float
0.136932 0.052601 0.743691 0.136958 0.0528511 0.743339 0.137103 0.0534817 0.74212 
0.137324 0.0544488 0.740044 0.137553 0.0556849 0.737126 0.137705 0.0571064 0.733389 
0.137685 0.0586218 0.728858 0.137399 0.0601406 0.72356 0.13676 0.0615819 0.717525 
0.135696 0.0628803 0.710779 0.134157 0.0639901 0.70335 0.132115 0.0648865 0.695265 
0.129563 0.0655631 0.68655 0.126516 0.0660289 0.677233 0.123004 0.0663015 0.667345 
0.119064 0.0664018 0.65692 0.114739 0.0663477 0.645997 0.110068 0.06615 0.634616 
0.105083 0.06581 0.622821 0.09981 0.0653199 0.610658 0.0942606 0.0646651 0.598169 
0.0884394 0.0638292 0.585393 0.0823435 0.0627991 0.572362 0.0759658 0.0615713 0.5591 
0.0692987 0.060157 0.54562 0.0623366 0.0585855 0.531922 0.055078 0.0569051 0.518 
0.0475262 0.0551812 0.503836 0.039689 0.0534923 0.489407 0.0315773 0.0519232 0.474685 
0.0232029 0.0505572 0.459642 0.014577 0.049468 0.444251 0.00570877 0.0487121 0.428487 
-0.00339485 0.0483237 0.412329 -0.0127274 0.0483118 0.395759 -0.0222801 0.0486604 0.378759 
-0.0320368 0.0493319 0.361314 -0.0419692 0.0502731 0.343405 -0.0520304 0.0514226 0.32501 
-0.0621505 0.0527195 0.306102 -0.0722327 0.0541112 0.286651 -0.0821525 0.0555595 0.266625 
-0.0917595 0.0570444 0.245992 -0.100882 0.0585647 0.22473 -0.109338 0.0601353 0.202827 
-0.116941 0.061782 0.180287 -0.123516 0.0635343 0.157141 -0.128912 0.065417 0.133444 
-0.133012 0.0674428 0.109279 -0.135747 0.069606 0.0847574 -0.137095 0.071879 0.0600127 
-0.13709 0.0742126 0.035196 -0.135819 0.0765388 0.0104657 -0.13341 0.0787778 -0.0140219 
-0.130031 0.0808467 -0.0381234 -0.125868 0.0826696 -0.0617185 -0.121119 0.0841872 -0.0847178 
-0.115972 0.0853654 -0.107069 -0.110598 0.0862004 -0.128756 -0.105136 0.0867203 -0.149804 
-0.0996909 0.0869829 -0.170263 -0.0943252 0.0870689 -0.190212 -0.0890631 0.0870724 -0.209737 
-0.0838935 0.087089 -0.228929 -0.078778 0.0872036 -0.247864 -0.0736588 0.0874788 -0.266599 
-0.0684691 0.087946 -0.285164 -0.063142 0.0886001 -0.303556 -0.0576187 0.0893986 -0.32174 
-0.0518542 0.0902657 -0.339654 -0.0458215 0.0910995 -0.357214 -0.0395134 0.0917835 -0.374323 
-0.0329419 0.0921994 -0.390883 -0.026137 0.0922405 -0.406803 -0.019144 0.0918229 -0.422008 
-0.012021 0.0908953 -0.436447 -0.00483683 0.0894434 -0.450094 0.00233131 0.0874912 -0.462949 
0.00939873 0.0850971 -0.475037 0.0162742 0.0823468 -0.486399 0.0228607 0.079343 -0.497087 
0.0290568 0.0761942 -0.507155 0.0347589 0.0730038 -0.516651 0.0398643 0.06986 -0.525614 
0.0442763 0.0668295 -0.534065 0.0479102 0.0639537 -0.542009 0.0507003 0.0612498 -0.549438 
0.0526073 0.058714 -0.556327 0.053625 0.0563285 -0.56265 0.0537854 0.0540688 -0.568376 
0.0531615 0.0519129 -0.573481 0.051867 0.0498478 -0.577951 0.0500526 0.0478747 -0.581786 
0.0478981 0.0460119 -0.585 0.0456021 0.0442932 -0.58762 0.0433681 0.0427651 -0.589684 
0.0413907 0.0414804 -0.591232 0.0398402 0.0404912 -0.592305 0.0388493 0.0398418 -0.592937 
0.038503 0.0395622 -0.59315 
LINES 2 100
OFFSETS vtktypeint64
0 100 
CONNECTIVITY vtktypeint64
0 1 2 3 4 5 6 7 8 
9 10 11 12 13 14 15 16 17 
18 19 20 21 22 23 24 25 26 
27 28 29 30 31 32 33 34 35 
36 37 38 39 40 41 42 43 44 
45 46 47 48 49 50 51 52 53 
54 55 56 57 58 59 60 61 62 
63 64 65 66 67 68 69 70 71 
72 73 74 75 76 77 78 79 80 
81 82 83 84 85 86 87 88 89 
90 91 92 93 94 95 96 97 98 
99 
POINT_DATA 100
FIELD FieldData 3
_theta 1 100 double
0 0.031733259127 0.063466518254 0.095199777382 0.12693303651 0.15866629564 0.19039955476 0.22213281389 0.25386607302 
0.28559933214 0.31733259127 0.3490658504 0.38079910953 0.41253236865 0.44426562778 0.47599888691 0.50773214603 0.53946540516 
0.57119866429 0.60293192342 0.63466518254 0.66639844167 0.6981317008 0.72986495992 0.76159821905 0.79333147818 0.82506473731 
0.85679799643 0.88853125556 0.92026451469 0.95199777382 0.98373103294 1.0154642921 1.0471975512 1.0789308103 1.1106640695 
1.1423973286 1.1741305877 1.2058638468 1.237597106 1.2693303651 1.3010636242 1.3327968833 1.3645301425 1.3962634016 
1.4279966607 1.4597299198 1.491463179 1.5231964381 1.5549296972 1.5866629564 1.6183962155 1.6501294746 1.6818627337 
1.7135959929 1.745329252 1.7770625111 1.8087957702 1.8405290294 1.8722622885 1.9039955476 1.9357288068 1.9674620659 
1.999195325 2.0309285841 2.0626618433 2.0943951024 2.1261283615 2.1578616206 2.1895948798 2.2213281389 2.253061398 
2.2847946572 2.3165279163 2.3482611754 2.3799944345 2.4117276937 2.4434609528 2.4751942119 2.506927471 2.5386607302 
2.5703939893 2.6021272484 2.6338605076 2.6655937667 2.6973270258 2.7290602849 2.7607935441 2.7925268032 2.8242600623 
2.8559933214 2.8877265806 2.9194598397 2.9511930988 2.982926358 3.0146596171 3.0463928762 3.0781261353 3.1098593945 
3.1415926536 
_radius 1 100 double
8.5910680531e-16 0.013633786173 0.027151814046 0.040440597463 0.05339706635 0.06593221359 0.077973092256 0.089463157453 0.10036129465 
0.11064011038 0.12028408392 0.12928797841 0.13765558062 0.14539853643 0.15253491308 0.15908720503 0.16507976938 0.17053602858 
0.17547607846 0.1799154559 0.18386566181 0.18733661522 0.1903406531 0.19289715586 0.19503651234 0.19680201083 0.19824838382 
0.19943621613 0.20042244837 0.20124890982 0.20193262828 0.20246195264 0.20280011501 0.20289426268 0.20268615907 0.20212155716 
0.20115715388 0.19976548363 0.19793866156 0.19569175797 0.19306607924 0.19013196943 0.18699010121 0.18376978087 0.18062277219 
0.17771181854 0.1751945978 0.17320600424 0.17184332951 0.17115864783 0.17116003554 0.17181956059 0.17308349419 0.17488019463 
0.1771233035 0.17971107698 0.18252535891 0.18543442491 0.18830202743 0.19100156774 0.19343168243 0.19552897892 0.19727477003 
0.19869442417 0.19984970742 0.20082592685 0.20171654003 0.20260797977 0.20356677607 0.20462999839 0.20579913253 0.20703712758 
0.20826849437 0.20938271407 0.21024141574 0.21068943405 0.21056889687 0.20973438279 0.20806660862 0.20548233989 0.20193903724 
0.19743379539 0.19199715 0.18568318412 0.178557955 0.17068846423 0.162134089 0.15294158171 0.14314367626 0.13276045632 
0.12180232196 0.11027368959 0.098177183527 0.085518581599 0.072312803011 0.058590686434 0.044405440551 0.029836951372 0.014992092788 
1.5171727181e-15 
_area 1 100 double
0 0.0004637543943 0.0018303020671 0.0040291651705 0.0069545607711 0.01048095118 0.014480726168 0.018839774939 0.023466071256 
0.02828806805 0.033244840484 0.038275253345 0.04331308875 0.048289646088 0.053140805738 0.057814251509 0.062273391556 0.06649673942 
0.070473933503 0.074200740656 0.077675650791 0.080900868722 0.083889589483 0.08667788685 0.089334182017 0.09195651904 0.094653168201 
0.097511826762 0.1005663861 0.10377187948 0.10700163261 0.11007146178 0.11277853288 0.11493759282 0.11640433507 0.11708420045 
0.11693057883 0.11593855968 0.11413955053 0.11159947194 0.10842017196 0.10474097684 0.10073586287 0.096602836086 0.092545297266 
0.088747955023 0.085351065109 0.082427573056 0.079970839036 0.077909039065 0.076151119962 0.074622286274 0.07328195406 0.072145044025 
0.071267040365 0.070702329309 0.070461678285 0.070483692396 0.070636668236 0.070763335628 0.070751572008 0.070528940979 0.069969171088 
0.069005504907 0.067716488533 0.066280613744 0.064921844676 0.063842358483 0.063164559554 0.062961902699 0.063192302949 0.063770276843 
0.064626020555 0.065686552791 0.066859753738 0.068027169992 0.069075201072 0.069875586719 0.07036071225 0.070446577985 0.069989894272 
0.068898183573 0.067159318323 0.064813579296 0.06191290566 0.058487478526 0.054539216375 0.050066339145 0.045099524988 0.039724928187 
0.034083999515 0.028355491878 0.022731446508 0.017397825308 0.012525260396 0.0082688913087 0.0047712760177 0.0021614542232 0.00054681983986 
2.2484153446e-17 
