# vtk DataFile Version 5.1
vtk output
ASCII
DATASET POLYDATA
POINTS 100 float
0.153171 0.055248 0.73527 0.153118 0.055471 0.735202 0.153052 0.055979 0.734819 
0.152953 0.0567368 0.734091 0.152783 0.0576903 0.732972 0.152499 0.0587714 0.7314 
0.152049 0.059906 0.729301 0.151382 0.0610215 0.726595 0.150451 0.0620533 0.723197 
0.149215 0.0629506 0.719024 0.147643 0.0636797 0.714005 0.145714 0.0642244 0.708077 
0.143415 0.0645843 0.701203 0.140739 0.0647714 0.693367 0.137686 0.0648044 0.684579 
0.134253 0.0647036 0.674879 0.130436 0.0644853 0.664334 0.126227 0.0641582 0.653032 
0.121611 0.0637214 0.641082 0.116568 0.0631645 0.6286 0.111077 0.0624699 0.615707 
0.105116 0.0616174 0.602515 0.0986675 0.0605893 0.589122 0.0917242 0.0593761 0.575604 
0.0842916 0.0579813 0.56201 0.076392 0.0564249 0.548359 0.0680656 0.0547444 0.534641 
0.0593701 0.0529943 0.52082 0.0503787 0.0512414 0.506838 0.0411752 0.04956 0.492623 
0.0318489 0.0480244 0.478096 0.0224872 0.0467021 0.463177 0.0131698 0.0456466 0.447793 
0.00396247 0.0448926 0.43188 -0.00508735 0.0444535 0.41539 -0.0139525 0.0443212 0.398289 
-0.0226259 0.0444694 0.380553 -0.0311175 0.0448583 0.362169 -0.0394492 0.0454424 0.343131 
-0.0476473 0.0461779 0.32343 -0.0557352 0.04703 0.303058 -0.0637242 0.047979 0.282002 
-0.0716067 0.049024 0.260244 -0.0793507 0.0501833 0.237763 -0.086896 0.0514918 0.214538 
-0.0941544 0.0529962 0.190553 -0.101013 0.0547469 0.165803 -0.107338 0.0567896 0.140299 
-0.112986 0.0591564 0.11407 -0.117812 0.0618582 0.0871718 -0.121678 0.0648792 0.0596796 
-0.124468 0.0681745 0.0316919 -0.126092 0.0716711 0.00332406 -0.126495 0.0752723 -0.0252973 
-0.125661 0.0788643 -0.0540412 -0.123612 0.0823259 -0.0827803 -0.120409 0.0855378 -0.111397 
-0.116143 0.0883924 -0.139788 -0.110931 0.0908014 -0.16787 -0.104905 0.0927017 -0.195576 
-0.098205 0.0940568 -0.222859 -0.0909679 0.0948569 -0.249683 -0.0833208 0.095114 -0.276021 
-0.0753751 0.0948562 -0.301847 -0.0672222 0.0941199 -0.327134 -0.0589321 0.092942 -0.351847 
-0.0505543 0.0913534 -0.375941 -0.0421201 0.089374 -0.399364 -0.0336468 0.0870106 -0.422059 
-0.0251428 0.0842576 -0.443966 -0.0166128 0.0811006 -0.465034 -0.00806225 0.0775221 -0.485223 
0.000498078 0.073509 -0.50451 0.00904969 0.0690592 -0.522895 0.0175648 0.0641889 -0.540403 
0.0260063 0.0589368 -0.557078 0.034329 0.0533661 -0.572984 0.042482 0.0475635 -0.588193 
0.0504114 0.0416349 -0.602777 0.0580637 0.035699 -0.616797 0.0653885 0.0298784 -0.630294 
0.072342 0.0242907 -0.643283 0.0788882 0.0190391 -0.655745 0.0850007 0.0142057 -0.667629 
0.0906631 0.00984541 -0.678855 0.0958683 0.0059846 -0.689321 0.100618 0.00262142 -0.698917 
0.104921 -0.000270332 -0.707537 0.108791 -0.00273532 -0.715091 0.112246 -0.00482937 -0.721521 
0.115305 -0.00661178 -0.726811 0.117987 -0.00813822 -0.730989 0.12031 -0.00945523 -0.734132 
0.122291 -0.0105967 -0.736359 0.123944 -0.0115825 -0.737821 0.12528 -0.0124201 -0.738688 
0.126307 -0.0131067 -0.739133 0.127034 -0.0136341 -0.739312 0.127464 -0.0139922 -0.73935 
0.1276 -0.0141734 -0.73933 
LINES 2 100
OFFSETS vtktypeint64
0 100 
CONNECTIVITY vtktypeint64
0 1 2 3 4 5 6 7 8 
9 10 11 12 13 14 15 16 17 
18 19 20 21 22 23 24 25 26 
27 28 29 30 31 32 33 34 35 
36 37 38 39 40 41 42 43 44 
45 46 47 48 49 50 51 52 53 
54 55 56 57 58 59 60 61 62 
63 64 65 66 67 68 69 70 71 
72 73 74 75 76 77 78 79 80 
81 82 83 84 85 86 87 88 89 
90 91 92 93 94 95 96 97 98 
99 
POINT_DATA 100
FIELD FieldData 3
_theta 1 100 double
0 0.031733259127 0.063466518254 0.095199777382 0.12693303651 0.15866629564 0.19039955476 0.22213281389 0.25386607302 
0.28559933214 0.31733259127 0.3490658504 0.38079910953 0.41253236865 0.44426562778 0.47599888691 0.50773214603 0.53946540516 
0.57119866429 0.60293192342 0.63466518254 0.66639844167 0.6981317008 0.72986495992 0.76159821905 0.79333147818 0.82506473731 
0.85679799643 0.88853125556 0.92026451469 0.95199777382 0.98373103294 1.0154642921 1.0471975512 1.0789308103 1.1106640695 
1.1423973286 1.1741305877 1.2058638468 1.237597106 1.2693303651 1.3010636242 1.3327968833 1.3645301425 1.3962634016 
1.4279966607 1.4597299198 1.491463179 1.5231964381 1.5549296972 1.5866629564 1.6183962155 1.6501294746 1.6818627337 
1.7135959929 1.745329252 1.7770625111 1.8087957702 1.8405290294 1.8722622885 1.9039955476 1.9357288068 1.9674620659 
1.999195325 2.0309285841 2.0626618433 2.0943951024 2.1261283615 2.1578616206 2.1895948798 2.2213281389 2.253061398 
2.2847946572 2.3165279163 2.3482611754 2.3799944345 2.4117276937 2.4434609528 2.4751942119 2.506927471 2.5386607302 
2.5703939893 2.6021272484 2.6338605076 2.6655937667 2.6973270258 2.7290602849 2.7607935441 2.7925268032 2.8242600623 
2.8559933214 2.8877265806 2.9194598397 2.9511930988 2.982926358 3.0146596171 3.0463928762 3.0781261353 3.1098593945 
3.1415926536 
_radius 1 100 double
8.0071348089e-16 0.015399841275 0.030670458625 0.045684656724 0.06032872832 0.074506400363 0.088140049104 0.10116950795 0.11354934532 
0.12524571879 0.13623376918 0.14649609709 0.15602235341 0.16480956228 0.17286260312 0.18019433563 0.18682511251 0.19278179226 
0.1980967047 0.20280718433 0.20695614727 0.21059370988 0.2137791381 0.21658173568 0.21907898676 0.22135069459 0.22346908458 
0.22548650813 0.2274237328 0.22926208281 0.23094171764 0.2323666333 0.23341535002 0.23395525021 0.23385824817 0.23301571207 
0.23135105236 0.22882893312 0.22546055082 0.22130483043 0.21646569849 0.2110857904 0.2053370459 0.19940874656 0.19349382791 
0.18777486034 0.18241179766 0.1775339757 0.17323824408 0.16959317016 0.16664660174 0.16443213016 0.16297047033 0.16226428483 
0.16228823316 0.16297879951 0.16422982179 0.16589844527 0.16782178013 0.16983897971 0.17181106324 0.17363314464 0.17523802026 
0.17659314694 0.17769407316 0.17855705101 0.17921266951 0.17970135455 0.18007058524 0.18037277548 0.18066227541 0.18099017388 
0.1813966042 0.18190189426 0.18249937003 0.18315236005 0.18379550536 0.18433812895 0.18466745786 0.18465129576 0.18414134022 
0.18297872227 0.18100262936 0.17806163266 0.17402620962 0.16880036828 0.16233035562 0.15460901879 0.14567523216 0.13560866939 
0.12452092106 0.11254443433 0.099820934596 0.086490882386 0.07268516747 0.058519733965 0.044093281905 0.029487723139 0.01477077619 
2.5495098831e-16 
_area 1 100 double
0 0.00056084498889 0.0022296094898 0.0049655656852 0.0087025688481 0.013351153793 0.018801039578 0.024924328687 0.031579774808 
0.038617953126 0.04588641542 0.053234013985 0.060515116537 0.067595911465 0.074363902414 0.080738345344 0.086677197297 0.092177219302 
0.097267048379 0.10199601624 0.10642304449 0.1106099744 0.11462171274 0.11853106486 0.1224210257 0.12637625343 0.13046137692 
0.13469350852 0.13902209186 0.14332597809 0.14742863066 0.15112421507 0.15420049229 0.15644386982 0.15764413764 0.15762748969 
0.15629199536 0.15362346186 0.14969556464 0.14465840021 0.13871935646 0.13212361664 0.12514028692 0.11805202371 0.1111391194 
0.10465113944 0.098769700261 0.093576649618 0.089045589755 0.085075223935 0.081578808946 0.078690142982 0.076718571723 0.075526067283 
0.075051840873 0.075251652457 0.075952235377 0.07687476406 0.077739961771 0.078345971154 0.078590333264 0.078459668783 0.07800570945 
0.077317336087 0.076494363134 0.075626029053 0.074775133291 0.073972280114 0.073223911223 0.072530329831 0.071906093006 0.071391942718 
0.071053902233 0.070973080702 0.071231659965 0.071895560068 0.072991630883 0.074488962059 0.076295766746 0.078250951537 0.080089298008 
0.081453967593 0.081986420131 0.081391658748 0.079467490169 0.076123819968 0.071392288672 0.065422138875 0.058461960668 0.050830360067 
0.042880682632 0.034965678706 0.027407472615 0.020476639331 0.014382048821 0.0092709466185 0.0052369721289 0.0023327872481 0.0005838010858 
2.168404345e-18 
