# vtk DataFile Version 5.1
vtk output
ASCII
DATASET POLYDATA
POINTS 100 float
0.190616 0.0542616 0.703939 0.190606 0.0543947 0.703838 0.190603 0.0546888 0.703422 
0.190539 0.0551288 0.702668 0.190311 0.0556911 0.701544 0.189796 0.0563456 0.700007 
0.188866 0.0570563 0.698008 0.187404 0.0577845 0.695494 0.185323 0.0584904 0.692412 
0.182573 0.0591361 0.688713 0.179148 0.0596884 0.684352 0.175086 0.0601212 0.679293 
0.170461 0.0604177 0.673511 0.16537 0.0605721 0.666991 0.15992 0.0605902 0.659728 
0.154213 0.0604895 0.651729 0.148326 0.0602974 0.643009 0.142303 0.0600491 0.633591 
0.136151 0.0597844 0.623502 0.129834 0.0595436 0.612776 0.123283 0.0593633 0.601444 
0.116404 0.0592726 0.58954 0.109095 0.0592892 0.577097 0.101263 0.0594172 0.564146 
0.0928381 0.0596459 0.550715 0.083785 0.05995 0.536834 0.0741134 0.0602922 0.52253 
0.063878 0.0606256 0.50783 0.0531747 0.0608992 0.492762 0.0421299 0.0610627 0.477352 
0.030886 0.0610718 0.461629 0.0195847 0.0608935 0.445616 0.00835064 0.0605102 0.429334 
-0.00272286 0.0599222 0.412801 -0.0135826 0.0591486 0.396023 -0.0242185 0.0582268 0.378997 
-0.0346601 0.0572096 0.361711 -0.0449658 0.0561614 0.344137 -0.0552082 0.0551532 0.326235 
-0.0654546 0.0542567 0.307956 -0.0757488 0.0535389 0.28924 -0.086093 0.0530573 0.270025 
-0.0964359 0.0528557 0.250249 -0.106666 0.052962 0.229854 -0.116612 0.0533868 0.208795 
-0.126055 0.0541242 0.187047 -0.134739 0.0551533 0.164601 -0.142396 0.0564413 0.141477 
-0.14877 0.0579467 0.117719 -0.153638 0.0596226 0.0933958 -0.156831 0.0614205 0.0685976 
-0.158255 0.0632927 0.043433 -0.157893 0.0651946 0.0180214 -0.155811 0.0670858 -0.00751357 
-0.152148 0.0689306 -0.0330515 -0.147106 0.0706982 -0.058482 -0.140926 0.0723618 -0.083711 
-0.13387 0.0738981 -0.108665 -0.126196 0.0752871 -0.133293 -0.11814 0.0765113 -0.157569 
-0.109897 0.0775557 -0.181486 -0.101613 0.078408 -0.205057 -0.0933816 0.0790591 -0.228307 
-0.0852433 0.0795026 -0.25127 -0.077195 0.0797355 -0.273978 -0.0692012 0.0797571 -0.296459 
-0.0612071 0.0795686 -0.318733 -0.0531529 0.0791712 -0.340805 -0.0449853 0.0785643 -0.362665 
-0.0366671 0.0777438 -0.384289 -0.0281824 0.0767 -0.405639 -0.0195381 0.0754167 -0.426664 
-0.0107621 0.0738707 -0.44731 -0.00189878 0.0720325 -0.467517 0.00699727 0.0698689 -0.487226 
0.015867 0.067346 -0.506383 0.0246524 0.064434 -0.524941 0.0332995 0.0611125 -0.54286 
0.0417595 0.0573754 -0.560109 0.049988 0.0532358 -0.576666 0.0579419 0.0487298 -0.592513 
0.0655761 0.0439178 -0.607637 0.0728403 0.038884 -0.622027 0.0796768 0.0337337 -0.635672 
0.0860206 0.0285874 -0.648561 0.0918021 0.0235737 -0.660677 0.0969516 0.0188202 -0.672006 
0.101407 0.0144441 -0.682528 0.105121 0.010543 -0.692227 0.108071 0.00718756 -0.701084 
0.110263 0.00441544 -0.709087 0.111738 0.00222923 -0.716226 0.112572 0.000597091 -0.722496 
0.112872 -0.000543124 -0.7279 0.112769 -0.00127666 -0.732442 0.112409 -0.00170238 -0.736133 
0.111936 -0.00192186 -0.738984 0.111483 -0.00202829 -0.741006 0.111155 -0.00209621 -0.742209 
0.111019 -0.00217332 -0.742601 
LINES 2 100
OFFSETS vtktypeint64
0 100 
CONNECTIVITY vtktypeint64
0 1 2 3 4 5 6 7 8 
9 10 11 12 13 14 15 16 17 
18 19 20 21 22 23 24 25 26 
27 28 29 30 31 32 33 34 35 
36 37 38 39 40 41 42 43 44 
45 46 47 48 49 50 51 52 53 
54 55 56 57 58 59 60 61 62 
63 64 65 66 67 68 69 70 71 
72 73 74 75 76 77 78 79 80 
81 82 83 84 85 86 87 88 89 
90 91 92 93 94 95 96 97 98 
99 
POINT_DATA 100
FIELD FieldData 3
_theta 1 100 double
0 0.031733259127 0.063466518254 0.095199777382 0.12693303651 0.15866629564 0.19039955476 0.22213281389 0.25386607302 
0.28559933214 0.31733259127 0.3490658504 0.38079910953 0.41253236865 0.44426562778 0.47599888691 0.50773214603 0.53946540516 
0.57119866429 0.60293192342 0.63466518254 0.66639844167 0.6981317008 0.72986495992 0.76159821905 0.79333147818 0.82506473731 
0.85679799643 0.88853125556 0.92026451469 0.95199777382 0.98373103294 1.0154642921 1.0471975512 1.0789308103 1.1106640695 
1.1423973286 1.1741305877 1.2058638468 1.237597106 1.2693303651 1.3010636242 1.3327968833 1.3645301425 1.3962634016 
1.4279966607 1.4597299198 1.491463179 1.5231964381 1.5549296972 1.5866629564 1.6183962155 1.6501294746 1.6818627337 
1.7135959929 1.745329252 1.7770625111 1.8087957702 1.8405290294 1.8722622885 1.9039955476 1.9357288068 1.9674620659 
1.999195325 2.0309285841 2.0626618433 2.0943951024 2.1261283615 2.1578616206 2.1895948798 2.2213281389 2.253061398 
2.2847946572 2.3165279163 2.3482611754 2.3799944345 2.4117276937 2.4434609528 2.4751942119 2.506927471 2.5386607302 
2.5703939893 2.6021272484 2.6338605076 2.6655937667 2.6973270258 2.7290602849 2.7607935441 2.7925268032 2.8242600623 
2.8559933214 2.8877265806 2.9194598397 2.9511930988 2.982926358 3.0146596171 3.0463928762 3.0781261353 3.1098593945 
3.1415926536 
_radius 1 100 double
5.6882003363e-16 0.016312581377 0.032475271604 0.0483505867 0.063817030783 0.078772758942 0.093135702141 0.10684077687 0.11983554479 
0.13207601321 0.14352408385 0.15414745846 0.16392173829 0.17283337064 0.18088151311 0.18807720735 0.19443946685 0.1999894656 
0.20474517506 0.20871892604 0.21191941148 0.21435807425 0.21605831663 0.2170650199 0.21745163968 0.21732257625 0.21680947663 
0.21606149911 0.21523118658 0.21445901902 0.2138602184 0.2135163595 0.21347205147 0.21373470428 0.21427467971 0.21502441439 
0.21587745668 0.21669017132 0.21728897636 0.21748441082 0.21709113192 0.21595124221 0.21395757108 0.2110734331 0.20734560924 
0.20290779037 0.19797268488 0.19281262827 0.18773079409 0.18302746144 0.17896724352 0.17575279722 0.17350833224 0.17227338205 
0.17200521539 0.17258760355 0.17384410012 0.17555478616 0.17747592612 0.17936181196 0.18098731049 0.18216878407 0.18278073237 
0.18276588736 0.18213733777 0.18097229765 0.17939827073 0.17757352306 0.17566476133 0.17382544679 0.17217801059 0.17080229598 
0.16973104186 0.16895164854 0.16841241635 0.16803121161 0.1677049116 0.1673185629 0.16675361888 0.16589484278 0.1646355864 
0.16288128813 0.16055119808 0.15757848541 0.15390897794 0.1494988451 0.14431161576 0.13831505632 0.13147859658 0.12377209404 
0.11516667018 0.10563806869 0.095172488208 0.083774229461 0.07147392272 0.05833573292 0.044461902602 0.029993327411 0.015105503678 
3.2183208173e-16 
_area 1 100 double
0 0.00050916845863 0.0020225817829 0.0044983276254 0.0078681955061 0.012041282396 0.0169099101 0.022356354993 0.028257611468 
0.034486230709 0.040908296391 0.0473827895 0.053767288854 0.059932020472 0.065778964746 0.071257946773 0.076370323175 0.081154557696 
0.085656128775 0.089893834777 0.093839384245 0.097421307844 0.10055098434 0.10315865154 0.10522531356 0.10679943204 0.10799333424 
0.10896274734 0.10987968861 0.11090860711 0.11218782766 0.11380891112 0.11578788873 0.11805343534 0.12048572716 0.12296761492 
0.12540243248 0.12770290353 0.12976453416 0.13143346715 0.13248706794 0.13265238425 0.13166858154 0.12936609192 0.12572601919 
0.12089964584 0.11518577889 0.10897625557 0.1026932395 0.096752262437 0.091507782755 0.087089188871 0.083478265209 0.080664747599 
0.078631570212 0.077316802202 0.076590999878 0.076265381286 0.07612593778 0.075960515314 0.075576006399 0.074830834568 0.073663841408 
0.072095766984 0.070208698656 0.068115950036 0.065937527428 0.063790318038 0.061783435518 0.060005937943 0.058511125977 0.057309588023 
0.056392106348 0.055745084948 0.055342674274 0.055147614027 0.055117782754 0.055221943367 0.055464130258 0.055850031191 0.056393414795 
0.05679302396 0.056755512887 0.056109802791 0.054761788651 0.052673317889 0.049854248821 0.046356280982 0.042265811249 0.037696041328 
0.032779617446 0.027663130079 0.022504191988 0.017470827751 0.012741707205 0.0085045448405 0.0049495033123 0.0022557782453 0.00057271431203 
2.8243519533e-17 
