# vtk DataFile Version 5.1
vtk output
ASCII
DATASET POLYDATA
POINTS 100 float
0.164104 0.0431771 0.685823 0.164241 0.0434543 0.685784 0.164733 0.0441534 0.685536 
0.165482 0.0452301 0.685036 0.166335 0.0466167 0.684216 0.167103 0.0482287 0.68299 
0.167585 0.0499737 0.681258 0.167591 0.0517599 0.678918 0.16696 0.0535038 0.67587 
0.165577 0.0551357 0.672026 0.163386 0.0566038 0.667318 0.160385 0.0578739 0.6617 
0.156624 0.0589279 0.655152 0.152191 0.0597588 0.647685 0.147194 0.0603662 0.639333 
0.141743 0.0607499 0.630154 0.135934 0.0609058 0.620227 0.129831 0.0608231 0.609638 
0.123464 0.0604839 0.598479 0.116824 0.0598651 0.586841 0.10987 0.0589435 0.574801 
0.102541 0.0577014 0.562426 0.0947715 0.0561333 0.549761 0.0865091 0.0542523 0.536832 
0.0777279 0.0520945 0.523647 0.0684417 0.0497202 0.510194 0.0587083 0.0472132 0.49645 
0.0486293 0.0446755 0.482383 0.0383407 0.0422197 0.467955 0.028 0.0399594 0.453133 
0.0177675 0.0379983 0.437886 0.00778819 0.0364202 0.422192 -0.00182618 0.0352812 0.406037 
-0.0110098 0.0346039 0.389415 -0.0197496 0.0343771 0.372326 -0.0280844 0.0345584 0.35477 
-0.0360968 0.0350818 0.33675 -0.0438982 0.035867 0.318261 -0.051609 0.0368319 0.299291 
-0.0593378 0.0379042 0.279822 -0.0671607 0.0390321 0.259826 -0.0751045 0.0401915 0.23927 
-0.0831369 0.04139 0.21812 -0.0911631 0.0426652 0.196346 -0.0990313 0.0440795 0.173927 
-0.106545 0.0457104 0.150861 -0.113481 0.0476384 0.127164 -0.119612 0.0499336 0.102878 
-0.124724 0.0526442 0.0780736 -0.128639 0.0557857 0.0528418 -0.131231 0.0593354 0.0272966 
-0.132425 0.0632311 0.00156538 -0.132209 0.0673744 -0.0242184 -0.130618 0.0716387 -0.0499246 
-0.127732 0.0758811 -0.0754355 -0.123656 0.079955 -0.100654 -0.118506 0.0837242 -0.125508 
-0.112403 0.087074 -0.149956 -0.105457 0.08992 -0.173986 -0.0977671 0.0922124 -0.197612 
-0.0894247 0.0939354 -0.220869 -0.0805178 0.0951025 -0.243802 -0.0711409 0.0957476 -0.266462 
-0.0614044 0.0959145 -0.288889 -0.0514421 0.0956453 -0.311111 -0.0414129 0.0949707 -0.333132 
-0.0314983 0.0939025 -0.35493 -0.0218906 0.0924306 -0.376456 -0.0127767 0.0905241 -0.397639 
-0.00431599 0.0881375 -0.418386 0.00338323 0.0852195 -0.438595 0.0102856 0.0817254 -0.458163 
0.0164452 0.0776287 -0.476993 0.0220134 0.0729318 -0.495002 0.0272351 0.0676741 -0.512129 
0.0324334 0.0619345 -0.528337 0.0379811 0.0558296 -0.543615 0.0442635 0.0495059 -0.557971 
0.0516351 0.0431285 -0.571434 0.0603747 0.0368655 -0.58404 0.0706457 0.0308721 -0.595831 
0.0824653 0.0252754 -0.606843 0.0956882 0.0201619 -0.617103 0.110008 0.0155702 -0.626625 
0.124978 0.0114892 -0.635407 0.140042 0.0078621 -0.643436 0.154593 0.0045972 -0.650692 
0.168024 0.00158197 -0.65715 0.179795 -0.00129965 -0.662794 0.189482 -0.00414965 -0.667616 
0.196829 -0.00704047 -0.671632 0.201768 -0.0100033 -0.674874 0.20443 -0.0130224 -0.677403 
0.205128 -0.0160349 -0.679297 0.204317 -0.0189385 -0.680651 0.202549 -0.0216029 -0.68157 
0.200402 -0.0238866 -0.682159 0.198415 -0.0256544 -0.682509 0.197028 -0.0267949 -0.682697 
0.196527 -0.0272348 -0.682769 
LINES 2 100
OFFSETS vtktypeint64
0 100 
CONNECTIVITY vtktypeint64
0 1 2 3 4 5 6 7 8 
9 10 11 12 13 14 15 16 17 
18 19 20 21 22 23 24 25 26 
27 28 29 30 31 32 33 34 35 
36 37 38 39 40 41 42 43 44 
45 46 47 48 49 50 51 52 53 
54 55 56 57 58 59 60 61 62 
63 64 65 66 67 68 69 70 71 
72 73 74 75 76 77 78 79 80 
81 82 83 84 85 86 87 88 89 
90 91 92 93 94 95 96 97 98 
99 
POINT_DATA 100
FIELD FieldData 3
_theta 1 100 double
0 0.031733259127 0.063466518254 0.095199777382 0.12693303651 0.15866629564 0.19039955476 0.22213281389 0.25386607302 
0.28559933214 0.31733259127 0.3490658504 0.38079910953 0.41253236865 0.44426562778 0.47599888691 0.50773214603 0.53946540516 
0.57119866429 0.60293192342 0.63466518254 0.66639844167 0.6981317008 0.72986495992 0.76159821905 0.79333147818 0.82506473731 
0.85679799643 0.88853125556 0.92026451469 0.95199777382 0.98373103294 1.0154642921 1.0471975512 1.0789308103 1.1106640695 
1.1423973286 1.1741305877 1.2058638468 1.237597106 1.2693303651 1.3010636242 1.3327968833 1.3645301425 1.3962634016 
1.4279966607 1.4597299198 1.491463179 1.5231964381 1.5549296972 1.5866629564 1.6183962155 1.6501294746 1.6818627337 
1.7135959929 1.745329252 1.7770625111 1.8087957702 1.8405290294 1.8722622885 1.9039955476 1.9357288068 1.9674620659 
1.999195325 2.0309285841 2.0626618433 2.0943951024 2.1261283615 2.1578616206 2.1895948798 2.2213281389 2.253061398 
2.2847946572 2.3165279163 2.3482611754 2.3799944345 2.4117276937 2.4434609528 2.4751942119 2.506927471 2.5386607302 
2.5703939893 2.6021272484 2.6338605076 2.6655937667 2.6973270258 2.7290602849 2.7607935441 2.7925268032 2.8242600623 
2.8559933214 2.8877265806 2.9194598397 2.9511930988 2.982926358 3.0146596171 3.0463928762 3.0781261353 3.1098593945 
3.1415926536 
_radius 1 100 double
1.3609433594e-15 0.01822718009 0.036182525441 0.053613896709 0.070311217482 0.08612074314 0.10095221238 0.11477844631 0.12762809502 
0.13957307996 0.15071270551 0.16115645997 0.17100736753 0.18034754621 0.18922740924 0.19765966321 0.20561885464 0.21304668252 
0.21986263355 0.22597874102 0.23131652899 0.23582366434 0.23948766712 0.24234429064 0.24447883606 0.24601962611 0.2471240416 
0.24795881644 0.24867748607 0.24939866161 0.25018884287 0.25105271184 0.25193246403 0.25271608398 0.25325294187 0.25337407045 
0.25291418844 0.25173286032 0.24973278032 0.24687373352 0.24318121244 0.23874901415 0.23373548667 0.22835343961 0.22285404912 
0.21750543763 0.21256725943 0.20826390337 0.20476071686 0.2021488423 0.20044311475 0.19959346613 0.19950541975 0.2000625961 
0.20114494739 0.20263948643 0.20444356545 0.20646292092 0.20860726726 0.21078554182 0.21290189272 0.21485297535 0.21652715655 
0.21780633636 0.2185709065 0.21870786799 0.21812151553 0.21674557472 0.21455534409 0.21157811677 0.20789981219 0.20366552506 
0.1990720949 0.19435236301 0.18975348089 0.18551404355 0.18184477966 0.17891466331 0.17684103515 0.17568119447 0.17542392846 
0.17598073303 0.17717724211 0.17874686948 0.18033142456 0.18149472169 0.18175192239 0.18061115951 0.17761960258 0.17240573666 
0.1647117768 0.1544127053 0.14152058405 0.12617469129 0.10861987447 0.089177219797 0.068212453346 0.046108212729 0.023245932587 
1.2728691952e-15 
_area 1 100 double
0 0.00064045445203 0.0025274082689 0.0055639869401 0.0096080860684 0.014495690402 0.020064081624 0.026169168429 0.03269330062 
0.039543237196 0.046641228442 0.053913907037 0.061283332005 0.068663103969 0.075961013826 0.083087996201 0.089970653681 0.096561847442 
0.10284278833 0.10881301855 0.11447209668 0.1198046587 0.12478094491 0.12937428409 0.13358396567 0.13744900321 0.1410460976 
0.1444735163 0.14782657027 0.15117231256 0.15453017947 0.15786040623 0.16105907134 0.16396076352 0.16635106192 0.16798784131 
0.16862867443 0.16806321523 0.16614783997 0.16283588038 0.15819592158 0.15241245632 0.14576753667 0.13860839028 0.13130933369 
0.12423366388 0.11769688903 0.11193326629 0.10708056824 0.10332860405 0.10090406199 0.099222198814 0.097993316635 0.097120142139 
0.096613135609 0.096489585458 0.096675574437 0.096967667632 0.097083021022 0.096735713484 0.095703320487 0.093926949164 0.091426077344 
0.088218789592 0.084513210623 0.080616527371 0.076924679603 0.073883578607 0.072235401046 0.071411335341 0.071010507321 0.070824979284 
0.070717875803 0.070552435605 0.070235019166 0.069764961027 0.069241940145 0.068825722511 0.068667573484 0.068843667013 0.069311060663 
0.069886634333 0.070272619644 0.07016219628 0.06933577431 0.067677428904 0.065143242494 0.061717631811 0.057386722517 0.05215252957 
0.046081498651 0.039346982331 0.032230983869 0.02508644681 0.018285482523 0.012177856857 0.0070694847408 0.003215573219 0.00081544296073 
9.4987873993e-17 
