# vtk DataFile Version 5.1
vtk output
ASCII
DATASET POLYDATA
POINTS 100 float
0.101548 0.0416475 0.689266 0.101771 0.0418975 0.689024 0.102452 0.0424906 0.688152 
0.103494 0.0433798 0.686685 0.104748 0.0444945 0.684675 0.106032 0.0457484 0.682181 
0.107159 0.0470498 0.679259 0.107956 0.0483127 0.675953 0.108292 0.0494659 0.672283 
0.108089 0.0504604 0.66824 0.107331 0.0512742 0.663784 0.106065 0.0519123 0.658852 
0.104393 0.0524038 0.653356 0.102451 0.052795 0.647202 0.10039 0.053141 0.640301 
0.09835 0.0534953 0.63258 0.0964378 0.0538998 0.623996 0.0947089 0.0543767 0.614542 
0.0931554 0.054923 0.604252 0.0917034 0.0555082 0.593203 0.0902203 0.0560766 0.581503 
0.0885293 0.0565529 0.569282 0.0864311 0.0568509 0.556682 0.0837295 0.0568848 0.543838 
0.0802569 0.0565806 0.530863 0.0758965 0.0558868 0.517842 0.0705988 0.0547838 0.504819 
0.0643894 0.0532885 0.491795 0.0573674 0.0514567 0.478732 0.0496942 0.0493793 0.465562 
0.0415747 0.0471765 0.452192 0.0332327 0.0449869 0.438524 0.0248842 0.0429556 0.424462 
0.0167118 0.0412214 0.409927 0.00884361 0.0399046 0.394865 0.00134026 0.0390967 0.379251 
-0.00580976 0.038854 0.363087 -0.0126842 0.0391944 0.346397 -0.0194121 0.0400987 0.329221 
-0.0261519 0.0415155 0.311599 -0.0330641 0.0433692 0.293565 -0.0402839 0.0455701 0.275134 
-0.0478958 0.0480247 0.256294 -0.0559141 0.0506458 0.23701 -0.0642716 0.0533606 0.217219 
-0.0728184 0.0561155 0.196842 -0.081331 0.0588781 0.175793 -0.08953 0.0616358 0.153993 
-0.0971056 0.0643909 0.131388 -0.103747 0.0671544 0.107955 -0.10917 0.0699377 0.0837166 
-0.113149 0.072745 0.0587449 -0.115534 0.0755671 0.0331609 -0.116263 0.0783769 0.0071278 
-0.115369 0.0811284 -0.0191602 -0.112972 0.0837583 -0.045493 -0.109263 0.0861914 -0.0716624 
-0.10448 0.0883475 -0.0974792 -0.0988899 0.0901499 -0.122789 -0.0927519 0.0915347 -0.147483 
-0.0862991 0.0924583 -0.171504 -0.0797167 0.0929031 -0.194847 -0.0731281 0.0928799 -0.217555 
-0.0665909 0.0924271 -0.239705 -0.0600987 0.0916059 -0.261397 -0.0535916 0.0904925 -0.282736 
-0.0469716 0.0891677 -0.303817 -0.0401215 0.0877059 -0.324709 -0.0329252 0.0861638 -0.345449 
-0.0252856 0.0845712 -0.366034 -0.0171399 0.0829245 -0.386418 -0.00846962 0.0811844 -0.406524 
0.000695512 0.079278 -0.426246 0.0102789 0.0771057 -0.44546 0.0201643 0.0745514 -0.464042 
0.0302061 0.0714969 -0.481875 0.0402435 0.0678366 -0.498859 0.0501136 0.0634933 -0.514919 
0.059665 0.0584317 -0.530006 0.0687685 0.0526683 -0.5441 0.0773245 0.0462774 -0.557202 
0.0852668 0.0393909 -0.569329 0.0925632 0.0321921 -0.580508 0.0992117 0.0249053 -0.59077 
0.105235 0.0177789 -0.600143 0.110675 0.0110669 -0.608648 0.115582 0.00500784 -0.616299 
0.12001 -0.000194881 -0.623109 0.12401 -0.00439081 -0.629086 0.127625 -0.00749565 -0.634245 
0.130887 -0.00949892 -0.638607 0.133817 -0.0104651 -0.642209 0.136425 -0.0105278 -0.645103 
0.138711 -0.00987801 -0.647355 0.140668 -0.00874671 -0.649046 0.142285 -0.00738363 -0.650262 
0.143549 -0.00603448 -0.65109 0.144447 -0.0049183 -0.65161 0.144971 -0.00420716 -0.651886 
0.145114 -0.00401032 -0.651957 
LINES 2 100
OFFSETS vtktypeint64
0 100 
CONNECTIVITY vtktypeint64
0 1 2 3 4 5 6 7 8 
9 10 11 12 13 14 15 16 17 
18 19 20 21 22 23 24 25 26 
27 28 29 30 31 32 33 34 35 
36 37 38 39 40 41 42 43 44 
45 46 47 48 49 50 51 52 53 
54 55 56 57 58 59 60 61 62 
63 64 65 66 67 68 69 70 71 
72 73 74 75 76 77 78 79 80 
81 82 83 84 85 86 87 88 89 
90 91 92 93 94 95 96 97 98 
99 
POINT_DATA 100
FIELD FieldData 3
_theta 1 100 double
0 0.031733259127 0.063466518254 0.095199777382 0.12693303651 0.15866629564 0.19039955476 0.22213281389 0.25386607302 
0.28559933214 0.31733259127 0.3490658504 0.38079910953 0.41253236865 0.44426562778 0.47599888691 0.50773214603 0.53946540516 
0.57119866429 0.60293192342 0.63466518254 0.66639844167 0.6981317008 0.72986495992 0.76159821905 0.79333147818 0.82506473731 
0.85679799643 0.88853125556 0.92026451469 0.95199777382 0.98373103294 1.0154642921 1.0471975512 1.0789308103 1.1106640695 
1.1423973286 1.1741305877 1.2058638468 1.237597106 1.2693303651 1.3010636242 1.3327968833 1.3645301425 1.3962634016 
1.4279966607 1.4597299198 1.491463179 1.5231964381 1.5549296972 1.5866629564 1.6183962155 1.6501294746 1.6818627337 
1.7135959929 1.745329252 1.7770625111 1.8087957702 1.8405290294 1.8722622885 1.9039955476 1.9357288068 1.9674620659 
1.999195325 2.0309285841 2.0626618433 2.0943951024 2.1261283615 2.1578616206 2.1895948798 2.2213281389 2.253061398 
2.2847946572 2.3165279163 2.3482611754 2.3799944345 2.4117276937 2.4434609528 2.4751942119 2.506927471 2.5386607302 
2.5703939893 2.6021272484 2.6338605076 2.6655937667 2.6973270258 2.7290602849 2.7607935441 2.7925268032 2.8242600623 
2.8559933214 2.8877265806 2.9194598397 2.9511930988 2.982926358 3.0146596171 3.0463928762 3.0781261353 3.1098593945 
3.1415926536 
_radius 1 100 double
3.9061720372e-16 0.014138557586 0.028239676811 0.042257691365 0.056138504347 0.069818792837 0.083227933232 0.096291936609 0.10893812943 
0.12109928329 0.13271640743 0.1437402447 0.15413222595 0.16386580951 0.17292861108 0.18132478165 0.18907625989 0.19622131461 
0.20280938925 0.20889247345 0.21451460561 0.21970213894 0.22445765559 0.22875969654 0.23256894096 0.23583960108 0.23853323577 
0.24063144513 0.24214419646 0.2431117172 0.24359958625 0.24368833489 0.24346002423 0.24298460219 0.24230841318 0.24144639014 
0.24037862396 0.23905145202 0.2373829724 0.23527282328 0.23261593175 0.22931953592 0.22532209606 0.2206119247 0.2152427678 
0.20934333508 0.20311790675 0.19683560511 0.19080695354 0.18534861256 0.18074129834 0.17719093251 0.17480524983 0.17359311807 
0.17348309664 0.17434923266 0.17603184282 0.17834741961 0.18108938094 0.18402647284 0.18690706885 0.1894748832 0.19149527696 
0.19278502233 0.19323656996 0.19283080724 0.19163659137 0.18979842798 0.18751530088 0.18501440829 0.18252374848 0.1802472193 
0.17834513675 0.1769217684 0.17601991648 0.17562163729 0.17565429581 0.17600118017 0.17651431429 0.17702519344 0.17735024425 
0.17729203206 0.17664100323 0.17518277118 0.17271257833 0.16905419613 0.16407800982 0.1577132558 0.14995142528 0.14084041754 
0.13047127246 0.11896089728 0.10643500755 0.093015391937 0.078814414275 0.063937423842 0.048491000993 0.032592783457 0.016378083482 
1.0185387478e-15 
_area 1 100 double
0 0.00053586472894 0.0021306815752 0.0047459058792 0.0083173660044 0.012757631835 0.017962380969 0.023821015911 0.030229388344 
0.037100334541 0.04436694281 0.051974675672 0.059862487584 0.067940923454 0.076082082528 0.084131231919 0.091934526063 0.099368228769 
0.10635780485 0.11288269911 0.11896822959 0.1246683697 0.13004342615 0.13513681043 0.1399563874 0.14446686794 0.14859762401 
0.15226431176 0.15539598824 0.15795704095 0.15995676789 0.16144568899 0.16250232672 0.16321474516 0.16365845642 0.16387077004 
0.1638260717 0.16342382895 0.16249818404 0.16084481504 0.15825541914 0.15455500274 0.14964008286 0.1435134318 0.13630775859 
0.12829069716 0.1198471824 0.11144065721 0.10355808223 0.096643804191 0.091029833488 0.086880954914 0.084172985961 0.082680817622 
0.082005840295 0.081738295965 0.081582481464 0.081377558231 0.081075659206 0.080703051365 0.080296048071 0.079831919101 0.079192749 
0.078192616514 0.076651268899 0.074461821955 0.071627116687 0.068265568207 0.064587285391 0.060849638746 0.057307262927 0.054169606249 
0.051576807831 0.049610270929 0.048360234797 0.047843959114 0.047857160843 0.048296292947 0.049079144615 0.050121673518 0.051343590451 
0.052691809256 0.053941905785 0.054815791953 0.055051695463 0.054428718398 0.052792448788 0.050075582824 0.046309010242 0.041621335913 
0.036226350574 0.030399802529 0.02444898681 0.01868052015 0.013372407705 0.0087554740377 0.0050062570201 0.002249534309 0.00056592918243 
8.3829575273e-17 
