# vtk DataFile Version 5.1
vtk output
ASCII
DATASET POLYDATA
POINTS 100 float
0.101391 0.0326451 0.650134 0.101595 0.0329688 0.649956 0.102286 0.0337983 0.649305 
0.10338 0.0350763 0.648176 0.104745 0.0367143 0.646562 0.106222 0.0386026 0.644457 
0.107639 0.040621 0.64185 0.108833 0.0426521 0.638732 0.10967 0.0445921 0.63509 
0.110057 0.0463614 0.630915 0.109953 0.0479102 0.626194 0.109366 0.0492221 0.620917 
0.108354 0.0503127 0.615071 0.107009 0.0512247 0.608647 0.105441 0.0520199 0.601634 
0.103764 0.0527697 0.594024 0.10207 0.0535445 0.585813 0.100419 0.0544044 0.576997 
0.0988286 0.0553905 0.567581 0.0972624 0.0565205 0.557574 0.0956387 0.0577862 0.546996 
0.0938359 0.0591551 0.535875 0.0917076 0.0605747 0.524248 0.0891008 0.0619793 0.512166 
0.0858751 0.0632974 0.499687 0.0819215 0.0644604 0.486879 0.0771773 0.0654098 0.473815 
0.0716361 0.0661028 0.46057 0.0653505 0.0665156 0.447218 0.0584287 0.0666444 0.433826 
0.051024 0.0665038 0.420451 0.0433189 0.066123 0.407133 0.0355067 0.0655411 0.393895 
0.0277717 0.0648017 0.380736 0.0202708 0.0639479 0.367633 0.0131188 0.0630183 0.35454 
0.00638003 0.0620449 0.341387 6.48837e-05 0.0610525 0.328085 -0.00586556 0.0600606 0.314529 
-0.0114897 0.0590851 0.300605 -0.0169109 0.0581429 0.286192 -0.0222397 0.0572544 0.271172 
-0.0275761 0.0564471 0.255434 -0.0329936 0.0557565 0.238883 -0.0385261 0.0552258 0.221441 
-0.044161 0.0549038 0.203056 -0.0498373 0.0548404 0.183704 -0.0554503 0.0550818 0.163391 
-0.0608611 0.0556637 0.142154 -0.0659106 0.0566063 0.120062 -0.0704348 0.0579092 0.0972118 
-0.0742815 0.0595485 0.073725 -0.0773242 0.0614768 0.0497437 -0.0794735 0.0636251 0.0254237 
-0.0806839 0.0659076 0.000927033 -0.0809548 0.0682291 -0.0235859 -0.0803279 0.0704926 -0.0479643 
-0.0788789 0.0726086 -0.0720748 -0.0767072 0.0745027 -0.095809 -0.0739228 0.0761221 -0.119088 
-0.0706345 0.0774399 -0.141868 -0.0669381 0.0784556 -0.164137 -0.0629084 0.0791928 -0.185921 
-0.0585945 0.0796944 -0.207271 -0.0540188 0.0800144 -0.228263 -0.0491801 0.0802089 -0.248986 
-0.0440594 0.0803266 -0.26953 -0.0386291 0.080399 -0.289979 -0.0328616 0.0804339 -0.310394 
-0.0267393 0.0804107 -0.33081 -0.0202624 0.0802784 -0.351223 -0.0134549 0.0799586 -0.371589 
-0.0063675 0.0793503 -0.391823 0.00092236 0.0783386 -0.411801 0.00831318 0.0768046 -0.43137 
0.0156848 0.074637 -0.450357 0.0229056 0.0717427 -0.468585 0.0298402 0.0680566 -0.485882 
0.0363581 0.0635493 -0.502101 0.0423408 0.0582311 -0.517132 0.0476882 0.0521537 -0.530909 
0.0523235 0.0454077 -0.543416 0.056196 0.0381178 -0.554691 0.059282 0.0304346 -0.564821 
0.0615845 0.0225255 -0.573931 0.0631311 0.0145644 -0.582175 0.0639718 0.0067216 -0.589716 
0.0641748 -0.000845314 -0.596717 0.0638237 -0.00799915 -0.603318 0.0630128 -0.0146283 -0.609624 
0.0618444 -0.0206499 -0.615697 0.0604243 -0.0260098 -0.621551 0.058859 -0.0306811 -0.627145 
0.0572522 -0.0346604 -0.632399 0.0557016 -0.0379621 -0.637193 0.0542963 -0.040613 -0.641389 
0.0531135 -0.0426452 -0.644842 0.0522163 -0.0440904 -0.647417 0.0516516 -0.0449748 -0.649005 
0.0514483 -0.0453146 -0.649537 
LINES 2 100
OFFSETS vtktypeint64
0 100 
CONNECTIVITY vtktypeint64
0 1 2 3 4 5 6 7 8 
9 10 11 12 13 14 15 16 17 
18 19 20 21 22 23 24 25 26 
27 28 29 30 31 32 33 34 35 
36 37 38 39 40 41 42 43 44 
45 46 47 48 49 50 51 52 53 
54 55 56 57 58 59 60 61 62 
63 64 65 66 67 68 69 70 71 
72 73 74 75 76 77 78 79 80 
81 82 83 84 85 86 87 88 89 
90 91 92 93 94 95 96 97 98 
99 
POINT_DATA 100
FIELD FieldData 3
_theta 1 100 double
0 0.031733259127 0.063466518254 0.095199777382 0.12693303651 0.15866629564 0.19039955476 0.22213281389 0.25386607302 
0.28559933214 0.31733259127 0.3490658504 0.38079910953 0.41253236865 0.44426562778 0.47599888691 0.50773214603 0.53946540516 
0.57119866429 0.60293192342 0.63466518254 0.66639844167 0.6981317008 0.72986495992 0.76159821905 0.79333147818 0.82506473731 
0.85679799643 0.88853125556 0.92026451469 0.95199777382 0.98373103294 1.0154642921 1.0471975512 1.0789308103 1.1106640695 
1.1423973286 1.1741305877 1.2058638468 1.237597106 1.2693303651 1.3010636242 1.3327968833 1.3645301425 1.3962634016 
1.4279966607 1.4597299198 1.491463179 1.5231964381 1.5549296972 1.5866629564 1.6183962155 1.6501294746 1.6818627337 
1.7135959929 1.745329252 1.7770625111 1.8087957702 1.8405290294 1.8722622885 1.9039955476 1.9357288068 1.9674620659 
1.999195325 2.0309285841 2.0626618433 2.0943951024 2.1261283615 2.1578616206 2.1895948798 2.2213281389 2.253061398 
2.2847946572 2.3165279163 2.3482611754 2.3799944345 2.4117276937 2.4434609528 2.4751942119 2.506927471 2.5386607302 
2.5703939893 2.6021272484 2.6338605076 2.6655937667 2.6973270258 2.7290602849 2.7607935441 2.7925268032 2.8242600623 
2.8559933214 2.8877265806 2.9194598397 2.9511930988 2.982926358 3.0146596171 3.0463928762 3.0781261353 3.1098593945 
3.1415926536 
_radius 1 100 double
1.6705306012e-15 0.014658251627 0.029134574197 0.043257140473 0.056883523236 0.069908611571 0.082266158941 0.093924967472 0.10488217095 
0.11515630279 0.12478167197 0.1338038211 0.14227467665 0.15024608358 0.15776157919 0.16484779424 0.17150796926 0.1777201769 
0.18344180659 0.18862000907 0.19320575398 0.19716764472 0.20050129627 0.20323135667 0.20540611525 0.20708803499 0.20834535558 
0.20924851923 0.20987139703 0.21029390652 0.2106016535 0.21087967104 0.21119998813 0.21160549657 0.21209456254 0.21261142107 
0.21304629114 0.21324660444 0.21303762451 0.21224823814 0.21073674398 0.20841217805 0.20524844855 0.20129034556 0.19665166453 
0.19150614541 0.18607208587 0.18059183218 0.17530808762 0.17043994725 0.16616239222 0.16259314042 0.15978965681 0.15775651198 
0.15645986821 0.15584339632 0.15583995188 0.15637597255 0.15736940598 0.15872518838 0.160333343 0.16207288886 0.16382093934 
0.16546338264 0.16690333033 0.16806545807 0.16889654753 0.16936374376 0.16945216773 0.16916305159 0.16851289252 0.16753327465 
0.16627007631 0.16478041289 0.16312649633 0.1613671924 0.15954915168 0.15769924863 0.15581918999 0.15388241471 0.15183313202 
0.14958744847 0.14703688713 0.14405499783 0.14050773338 0.13626723709 0.13122678136 0.12531322008 0.11849382659 0.11077639849 
0.10220356112 0.092843434483 0.082779238996 0.072100220287 0.060895577892 0.049252008778 0.037254304002 0.024987556656 0.012539262087 
8.3728484704e-16 
_area 1 100 double
0 0.00044983018201 0.0017817781814 0.0039466459803 0.0068718866172 0.010470349566 0.014645728535 0.019294032014 0.024303681646 
0.029558250879 0.034944399901 0.040364119668 0.045747088748 0.051057792032 0.056294147815 0.061478724772 0.06664661681 0.071833064773 
0.077060636065 0.08232451711 0.087578488731 0.092729955963 0.097650533122 0.10219840255 0.10624153117 0.10967551561 0.11244242714 
0.11455993129 0.11615087189 0.11744220721 0.11871424838 0.12023796618 0.12224478301 0.12487384199 0.12807187574 0.13156905062 
0.13496167867 0.13780707211 0.1396894578 0.14026513588 0.13929783226 0.13668800284 0.13249230324 0.12692530502 0.12033639417 
0.11316074323 0.10585225878 0.098814105306 0.092343801716 0.086605504837 0.081636043306 0.077380994045 0.073743819964 0.070627521174 
0.067957052352 0.065682725875 0.063772452681 0.062201248106 0.06094469226 0.059980867784 0.059303697011 0.058944884517 0.059019166038 
0.059222852401 0.059236287855 0.058975335381 0.058426959169 0.057611978106 0.056559840053 0.055294982252 0.053837939286 0.052215192138 
0.050460239806 0.048660510842 0.046816635333 0.044931476006 0.043067691261 0.041306280814 0.03976272349 0.038638550036 0.037982848535 
0.037609738013 0.037354768432 0.037047499732 0.036520752105 0.035615809074 0.034203412598 0.032208677231 0.029627453799 0.026528346378 
0.023040513717 0.019331494555 0.015581726897 0.011962966661 0.0086259374416 0.0056982638494 0.0032885596272 0.0014897476439 0.00037686734667 
2.4733348851e-17 
