# vtk DataFile Version 5.1
vtk output
ASCII
DATASET POLYDATA
POINTS 100 float
0.14734 0.0641897 0.712205 0.147174 0.06427 0.711936 0.14673 0.0643695 0.710953 
0.145998 0.0644946 0.709254 0.144968 0.0646558 0.706838 0.143629 0.0648654 0.703703 
0.141977 0.0651351 0.699849 0.140013 0.0654732 0.695275 0.137752 0.0658822 0.689981 
0.13522 0.0663564 0.683971 0.132454 0.0668809 0.677253 0.129495 0.0674311 0.669839 
0.126389 0.0679736 0.661751 0.123176 0.0684674 0.653016 0.119884 0.0688666 0.643674 
0.116525 0.0691237 0.633771 0.113089 0.0691924 0.623362 0.109543 0.0690312 0.612509 
0.105834 0.0686066 0.601275 0.101893 0.0678954 0.589723 0.09764 0.0668869 0.577912 
0.0929971 0.0655835 0.56589 0.0878964 0.064002 0.553694 0.0822895 0.0621725 0.541346 
0.0761558 0.0601378 0.528852 0.0695068 0.0579522 0.516203 0.0623868 0.055679 0.503375 
0.0548701 0.0533892 0.490336 0.0470533 0.0511582 0.477046 0.0390455 0.0490635 0.463466 
0.0309554 0.0471817 0.449559 0.0228793 0.0455853 0.435296 0.0148891 0.0443392 0.420658 
0.00702352 0.0434979 0.405636 -0.000715932 0.0431018 0.390233 -0.00836522 0.0431747 0.374459 
-0.0159921 0.0437214 0.358327 -0.0236863 0.0447265 0.341851 -0.031545 0.0461544 0.32504 
-0.0396579 0.0479499 0.307893 -0.0480899 0.0500412 0.290397 -0.056867 0.0523436 0.272528 
-0.065965 0.0547651 0.254244 -0.0753029 0.0572117 0.235498 -0.0847429 0.0595945 0.216232 
-0.0940957 0.0618357 0.196392 -0.103132 0.0638745 0.175925 -0.111599 0.065671 0.154792 
-0.119239 0.0672086 0.132969 -0.12581 0.068495 0.110453 -0.131102 0.0695597 0.0872612 
-0.134959 0.0704503 0.0634329 -0.137286 0.0712264 0.0390265 -0.138053 0.071953 0.0141157 
-0.137301 0.0726926 -0.0112154 -0.13513 0.0734976 -0.0368769 -0.13169 0.0744045 -0.0627778 
-0.127163 0.0754283 -0.08883 -0.121752 0.0765609 -0.11495 -0.115655 0.0777698 -0.141061 
-0.109057 0.0790013 -0.167088 -0.102112 0.0801843 -0.192963 -0.0949378 0.0812368 -0.218614 
-0.087612 0.0820727 -0.24397 -0.0801717 0.0826092 -0.268953 -0.0726207 0.0827738 -0.293483 
-0.0649374 0.0825098 -0.317476 -0.057086 0.08178 -0.340849 -0.0490273 0.0805689 -0.363524 
-0.0407297 0.0788822 -0.385433 -0.0321774 0.0767449 -0.406524 -0.023376 0.0741972 -0.426769 
-0.0143554 0.071291 -0.446165 -0.00516883 0.0680841 -0.464734 0.00411071 0.0646366 -0.482525 
0.0133962 0.0610071 -0.499605 0.0225939 0.0572502 -0.516056 0.0316103 0.0534158 -0.53196 
0.0403598 0.0495493 -0.547391 0.0487696 0.0456929 -0.562404 0.0567841 0.0418875 -0.577023 
0.0643665 0.0381745 -0.591238 0.0714983 0.0345972 -0.604999 0.0781774 0.0312016 -0.61822 
0.0844146 0.0280354 -0.630785 0.0902291 0.0251463 -0.642556 0.0956444 0.0225788 -0.653391 
0.100683 0.0203705 -0.663154 0.105365 0.0185481 -0.671738 0.109703 0.0171232 -0.67907 
0.1137 0.0160898 -0.685126 0.117354 0.0154226 -0.689936 0.120653 0.0150777 -0.693584 
0.123579 0.0149946 -0.6962 0.126111 0.0151008 -0.697951 0.128225 0.0153174 -0.699022 
0.129898 0.0155661 -0.699601 0.131108 0.0157762 -0.69986 0.131839 0.0158915 -0.699936 
0.132081 0.0158755 -0.699917 
LINES 2 100
OFFSETS vtktypeint64
0 100 
CONNECTIVITY vtktypeint64
0 1 2 3 4 5 6 7 8 
9 10 11 12 13 14 15 16 17 
18 19 20 21 22 23 24 25 26 
27 28 29 30 31 32 33 34 35 
36 37 38 39 40 41 42 43 44 
45 46 47 48 49 50 51 52 53 
54 55 56 57 58 59 60 61 62 
63 64 65 66 67 68 69 70 71 
72 73 74 75 76 77 78 79 80 
81 82 83 84 85 86 87 88 89 
90 91 92 93 94 95 96 97 98 
99 
POINT_DATA 100
FIELD FieldData 3
_theta 1 100 double
0 0.031733259127 0.063466518254 0.095199777382 0.12693303651 0.15866629564 0.19039955476 0.22213281389 0.25386607302 
0.28559933214 0.31733259127 0.3490658504 0.38079910953 0.41253236865 0.44426562778 0.47599888691 0.50773214603 0.53946540516 
0.57119866429 0.60293192342 0.63466518254 0.66639844167 0.6981317008 0.72986495992 0.76159821905 0.79333147818 0.82506473731 
0.85679799643 0.88853125556 0.92026451469 0.95199777382 0.98373103294 1.0154642921 1.0471975512 1.0789308103 1.1106640695 
1.1423973286 1.1741305877 1.2058638468 1.237597106 1.2693303651 1.3010636242 1.3327968833 1.3645301425 1.3962634016 
1.4279966607 1.4597299198 1.491463179 1.5231964381 1.5549296972 1.5866629564 1.6183962155 1.6501294746 1.6818627337 
1.7135959929 1.745329252 1.7770625111 1.8087957702 1.8405290294 1.8722622885 1.9039955476 1.9357288068 1.9674620659 
1.999195325 2.0309285841 2.0626618433 2.0943951024 2.1261283615 2.1578616206 2.1895948798 2.2213281389 2.253061398 
2.2847946572 2.3165279163 2.3482611754 2.3799944345 2.4117276937 2.4434609528 2.4751942119 2.506927471 2.5386607302 
2.5703939893 2.6021272484 2.6338605076 2.6655937667 2.6973270258 2.7290602849 2.7607935441 2.7925268032 2.8242600623 
2.8559933214 2.8877265806 2.9194598397 2.9511930988 2.982926358 3.0146596171 3.0463928762 3.0781261353 3.1098593945 
3.1415926536 
_radius 1 100 double
5.4176722264e-16 0.01311112604 0.026167500098 0.039105934882 0.051862507523 0.064374034767 0.07658072295 0.08842958495 0.099877728414 
0.11089442663 0.12146115376 0.13156941652 0.1412169481 0.15040332156 0.15912612241 0.16737854029 0.17514876267 0.18242105486 
0.18917803433 0.19540348647 0.20108512848 0.20621692278 0.21080077043 0.21484761044 0.21837806986 0.2214227916 0.22402238192 
0.22622664267 0.22809256374 0.22968060836 0.23104915863 0.23224749511 0.23330819347 0.23424016595 0.23502365866 0.23560833573 
0.2359152201 0.23584281431 0.23527723685 0.23410567107 0.23223182978 0.22959156419 0.22616634888 0.22199233265 0.21716306152 
0.21182482828 0.20616474466 0.20039287046 0.19472089465 0.18934083452 0.18440787109 0.18003135794 0.17627639738 0.17317470118 
0.1707390343 0.16897326204 0.16787191191 0.16740882212 0.16752159966 0.16810320973 0.16900936926 0.17008084427 0.17117115771 
0.17216931032 0.17301199041 0.17368477336 0.17421440918 0.17465505035 0.17507133225 0.17552114621 0.17604084777 0.17663540632 
0.17727532975 0.17790080608 0.1784315306 0.17877889803 0.17885669828 0.17858770032 0.17790579393 0.17675505287 0.1750873149 
0.1728592755 0.17002964361 0.16655684157 0.16239772556 0.15750758751 0.15184130185 0.14535513158 0.1380086327 0.12976636416 
0.12059958981 0.11048858517 0.099426261034 0.087423455858 0.074515521782 0.060769019324 0.046286784835 0.031209589066 0.015713123463 
8.2241792311e-16 
_area 1 100 double
0 0.00049062654472 0.0019487390224 0.0043340189738 0.0075824289824 0.011610558064 0.016320983216 0.021608084364 0.02736376662 
0.033482626551 0.039866236018 0.046426338097 0.053086769734 0.059783905015 0.066465515231 0.073088200144 0.079613875093 0.086006254241 
0.092228937857 0.09824718327 0.10403466234 0.10958362095 0.1149125106 0.12006209378 0.12507373601 0.12995650361 0.13466601937 
0.13911411589 0.14320219296 0.14685631955 0.15004936502 0.15280627014 0.15519321049 0.157292486 0.15916619232 0.16081526059 
0.16214797863 0.16297754204 0.16305657887 0.16213547108 0.1600234685 0.15663593935 0.15201773811 0.1463392093 0.13986757943 
0.13292142444 0.12581903489 0.11883269713 0.11215921786 0.10591612785 0.10043948543 0.095897762792 0.091679425614 0.087698521332 
0.083942083503 0.080407936813 0.077220162927 0.074529520464 0.072441031634 0.070996593913 0.070141584696 0.069711686649 0.06953058129 
0.069441004059 0.069341489909 0.06917513788 0.068911621201 0.068543950858 0.068089640715 0.067587768065 0.06709604703 0.066678518895 
0.066387403549 0.066249402185 0.066269828028 0.066450223703 0.066798384461 0.067319336882 0.067989104488 0.068727007328 0.06938796237 
0.06978112412 0.069700851194 0.068956402218 0.067396496778 0.064927147708 0.061520630496 0.057215273521 0.05210844213 0.046346380337 
0.040113933337 0.033625351699 0.027115584561 0.020830667404 0.015016259293 0.0099046287384 0.0057016191266 0.0025756335367 0.00065015520704 
2.9490299092e-17 
