# vtk DataFile Version 5.1
vtk output
ASCII
DATASET POLYDATA
POINTS 100 float
0.117438 0.040263 0.794853 0.117344 0.0406259 0.794361 0.117106 0.0415463 0.792739 
0.116743 0.0429427 0.790053 0.116287 0.04469 0.786407 0.115774 0.0466338 0.781922 
0.115239 0.0486077 0.776728 0.114713 0.0504518 0.77094 0.114213 0.0520299 0.764647 
0.11374 0.0532432 0.757901 0.113276 0.0540392 0.75071 0.112781 0.0544147 0.743039 
0.112196 0.0544131 0.734821 0.111447 0.0541152 0.725967 0.110447 0.053627 0.716385 
0.109104 0.0530637 0.705995 0.10733 0.0525342 0.694746 0.105041 0.0521263 0.682631 
0.102169 0.0518963 0.669689 0.098665 0.051862 0.656012 0.0945 0.0520018 0.641734 
0.0896693 0.0522595 0.627019 0.0841912 0.0525526 0.612047 0.0781059 0.0527847 0.596994 
0.0714726 0.0528593 0.582009 0.064366 0.0526936 0.567204 0.056872 0.0522299 0.552637 
0.0490833 0.0514442 0.538309 0.0410946 0.0503498 0.524164 0.0329979 0.0489972 0.510097 
0.0248781 0.047468 0.495966 0.0168091 0.0458673 0.481611 0.00884961 0.0443117 0.466868 
0.00104027 0.0429179 0.451589 -0.00659885 0.0417916 0.435658 -0.0140696 0.0410177 0.418994 
-0.0213955 0.0406548 0.40156 -0.0286205 0.0407322 0.383359 -0.0358051 0.0412512 0.364423 
-0.0430209 0.042189 0.344811 -0.0503435 0.0435053 0.324585 -0.0578433 0.0451498 0.303803 
-0.0655759 0.0470696 0.28251 -0.073572 0.0492158 0.260724 -0.081828 0.0515481 0.238441 
-0.0902984 0.0540363 0.215632 -0.0988915 0.0566602 0.192251 -0.107468 0.0594068 0.168249 
-0.115843 0.0622661 0.143579 -0.123795 0.0652266 0.118216 -0.131079 0.0682702 0.0921586 
-0.137436 0.0713695 0.0654415 -0.142616 0.0744863 0.0381343 -0.146394 0.077572 0.0103392 
-0.148587 0.0805702 -0.0178156 -0.149069 0.0834214 -0.046187 -0.147781 0.0860681 -0.0746288 
-0.14474 0.08846 -0.103004 -0.140032 0.0905584 -0.131196 -0.133811 0.0923397 -0.159114 
-0.126285 0.0937952 -0.186698 -0.117697 0.0949304 -0.213918 -0.108311 0.0957606 -0.240766 
-0.0983837 0.0963056 -0.267249 -0.0881514 0.0965834 -0.293378 -0.0778103 0.0966041 -0.319158 
-0.0675054 0.0963644 -0.344579 -0.0573241 0.0958446 -0.369609 -0.047296 0.095008 -0.394193 
-0.0373995 0.0938029 -0.418256 -0.0275725 0.0921674 -0.441707 -0.0177276 0.0900365 -0.464451 
-0.00776949 0.08735 -0.486397 0.0023882 0.0840612 -0.50747 0.0128071 0.0801444 -0.527621 
0.0235122 0.0756004 -0.546828 0.0344844 0.0704595 -0.565103 0.0456588 0.0647816 -0.582484 
0.0569274 0.0586525 -0.599029 0.0681473 0.0521785 -0.614804 0.0791526 0.0454778 -0.629873 
0.0897677 0.0386723 -0.644282 0.0998226 0.0318781 -0.658052 0.109165 0.0251985 -0.671174 
0.117674 0.0187182 -0.683602 0.125264 0.0125005 -0.695262 0.131893 0.00658735 -0.706058 
0.137557 0.00100216 -0.715886 0.142293 -0.00424565 -0.72465 0.146165 -0.00915445 -0.732273 
0.149263 -0.0137241 -0.738716 0.151686 -0.0179503 -0.743984 0.15354 -0.0218205 -0.748128 
0.154928 -0.0253115 -0.751248 0.15594 -0.0283904 -0.75348 0.156658 -0.0310164 -0.754985 
0.157145 -0.0331451 -0.755931 0.157451 -0.0347338 -0.756474 0.157609 -0.035747 -0.756741 
0.15764 -0.0361604 -0.756814 
LINES 2 100
OFFSETS vtktypeint64
0 100 
CONNECTIVITY vtktypeint64
0 1 2 3 4 5 6 7 8 
9 10 11 12 13 14 15 16 17 
18 19 20 21 22 23 24 25 26 
27 28 29 30 31 32 33 34 35 
36 37 38 39 40 41 42 43 44 
45 46 47 48 49 50 51 52 53 
54 55 56 57 58 59 60 61 62 
63 64 65 66 67 68 69 70 71 
72 73 74 75 76 77 78 79 80 
81 82 83 84 85 86 87 88 89 
90 91 92 93 94 95 96 97 98 
99 
POINT_DATA 100
FIELD FieldData 3
_theta 1 100 double
0 0.031733259127 0.063466518254 0.095199777382 0.12693303651 0.15866629564 0.19039955476 0.22213281389 0.25386607302 
0.28559933214 0.31733259127 0.3490658504 0.38079910953 0.41253236865 0.44426562778 0.47599888691 0.50773214603 0.53946540516 
0.57119866429 0.60293192342 0.63466518254 0.66639844167 0.6981317008 0.72986495992 0.76159821905 0.79333147818 0.82506473731 
0.85679799643 0.88853125556 0.92026451469 0.95199777382 0.98373103294 1.0154642921 1.0471975512 1.0789308103 1.1106640695 
1.1423973286 1.1741305877 1.2058638468 1.237597106 1.2693303651 1.3010636242 1.3327968833 1.3645301425 1.3962634016 
1.4279966607 1.4597299198 1.491463179 1.5231964381 1.5549296972 1.5866629564 1.6183962155 1.6501294746 1.6818627337 
1.7135959929 1.745329252 1.7770625111 1.8087957702 1.8405290294 1.8722622885 1.9039955476 1.9357288068 1.9674620659 
1.999195325 2.0309285841 2.0626618433 2.0943951024 2.1261283615 2.1578616206 2.1895948798 2.2213281389 2.253061398 
2.2847946572 2.3165279163 2.3482611754 2.3799944345 2.4117276937 2.4434609528 2.4751942119 2.506927471 2.5386607302 
2.5703939893 2.6021272484 2.6338605076 2.6655937667 2.6973270258 2.7290602849 2.7607935441 2.7925268032 2.8242600623 
2.8559933214 2.8877265806 2.9194598397 2.9511930988 2.982926358 3.0146596171 3.0463928762 3.0781261353 3.1098593945 
3.1415926536 
_radius 1 100 double
3.5524155107e-16 0.014370847282 0.028799752724 0.043318612463 0.057924307209 0.072569373468 0.08716016106 0.10156252603 0.11561393836 
0.12914007034 0.14197350762 0.15397213075 0.16503486459 0.17511282652 0.1842144128 0.19240357257 0.19979143456 0.20652247434 
0.21275729567 0.21865452806 0.224354137 0.22996376624 0.23554903748 0.24112839847 0.24667307365 0.25211249898 0.25734495665 
0.26225205818 0.26671473293 0.27062795292 0.27391174956 0.27651699006 0.27842553323 0.27964544969 0.28020276542 0.28013158583 
0.27946447428 0.27822464962 0.27642106705 0.27404694356 0.27108193715 0.26749798748 0.26326860626 0.25838097011 0.25284946789 
0.24672856586 0.24012227447 0.23318740417 0.22612833802 0.21918226717 0.21259570118 0.20659546413 0.20135996114 0.19699828389 
0.19354398964 0.19096567949 0.18918908537 0.18812004024 0.18765867388 0.18770148821 0.1881350342 0.18882912779 0.18963746021 
0.19040910572 0.19100800436 0.1913330138 0.19133113564 0.19100009297 0.19038085085 0.18954375684 0.18857286957 0.18755216186 
0.18655565238 0.18564179797 0.18485100653 0.18420441148 0.18370242237 0.18332265862 0.1830178465 0.18271458274 0.18231362885 
0.18169198514 0.18070667305 0.17919996174 0.17700566063 0.17395607433 0.16988929944 0.16465665651 0.15813007238 0.15020912647 
0.14082733859 0.12995722389 0.11761371862 0.10385574944 0.088785899818 0.072548259137 0.05532460463 0.037329084928 0.018801586374 
1.7394847827e-15 
_area 1 100 double
0 0.00058784053481 0.0023518763305 0.0052895927261 0.0093846932023 0.014593407472 0.020832639478 0.027974127383 0.035846867931 
0.044247632574 0.052957389398 0.061760429003 0.070463036805 0.078909335224 0.086992960439 0.094664053054 0.1019313194 0.10885883095 
0.11555732697 0.12217012463 0.12885341327 0.13574971616 0.14295553431 0.1504928199 0.15829863521 0.16623700646 0.17412488717 
0.18176267059 0.18896239688 0.19556873245 0.2014697065 0.20659639184 0.21091278443 0.21439911874 0.21703381549 0.21877992913 
0.21957996179 0.21935950137 0.21803803089 0.2155445635 0.21183530108 0.2069102036 0.20082526412 0.19369745168 0.18570041057 
0.17705170388 0.16799579768 0.15878876067 0.14968884678 0.1409523807 0.13282964621 0.12555288079 0.11930616441 0.11416893472 
0.11010630907 0.10710743747 0.10489912405 0.10303727383 0.1013412366 0.099743223269 0.098189341912 0.096604852233 0.094911422089 
0.093067092251 0.091088773407 0.089038277232 0.08698559929 0.084977421452 0.083025972464 0.081121329855 0.079265183931 0.077501419084 
0.075916886447 0.074607278914 0.07363698249 0.07303482191 0.072807377081 0.072939604124 0.073388188699 0.074084660144 0.074979935699 
0.076105655331 0.077368755458 0.077985650635 0.077684083208 0.076274221258 0.073630545867 0.069706478283 0.064543414211 0.058272178589 
0.051106905792 0.043332101113 0.03528405333 0.027328271186 0.019835252485 0.013157253747 0.0076083080386 0.0034485145507 0.00087231255362 
5.029383594e-17 
