# vtk DataFile Version 5.1
vtk output
ASCII
DATASET POLYDATA
POINTS 100 float
0.103551 0.0489122 0.651591 0.103484 0.0492702 0.651375 0.103375 0.0501704 0.650582 
0.103228 0.0515436 0.649259 0.10305 0.0532828 0.647473 0.102845 0.0552542 0.6453 
0.102615 0.0573104 0.642812 0.102359 0.0593049 0.640062 0.102066 0.0611058 0.637071 
0.10172 0.0626068 0.633825 0.101295 0.0637352 0.630267 0.100758 0.0644554 0.626309 
0.10007 0.064768 0.621835 0.099185 0.0647047 0.61672 0.098058 0.0643205 0.610843 
0.0966422 0.0636834 0.604109 0.0948945 0.0628637 0.596459 0.092776 0.0619244 0.587884 
0.0902543 0.0609137 0.578426 0.0873042 0.0598605 0.568179 0.083908 0.0587734 0.557278 
0.0800557 0.0576432 0.545885 0.0757451 0.0564485 0.534171 0.0709813 0.0551628 0.522294 
0.0657774 0.0537629 0.510386 0.0601542 0.0522366 0.498531 0.0541405 0.0505883 0.486763 
0.0477739 0.0488434 0.475058 0.0410998 0.0470475 0.463344 0.0341715 0.0452647 0.451508 
0.0270483 0.0435714 0.439414 0.0197931 0.0420493 0.426924 0.0124693 0.0407764 0.413914 
0.00513604 0.0398193 0.40029 -0.00215579 0.039226 0.386002 -0.00936821 0.0390217 0.37105 
-0.0164796 0.0392069 0.355478 -0.023487 0.0397591 0.339369 -0.030406 0.0406371 0.322831 
-0.0372684 0.0417876 0.30598 -0.0441175 0.043153 0.288919 -0.0510005 0.0446793 0.271725 
-0.0579594 0.0463232 0.254434 -0.0650214 0.0480568 0.237035 -0.0721886 0.0498703 0.21947 
-0.0794298 0.0517709 0.201641 -0.0866748 0.0537795 0.183422 -0.0938123 0.0559245 0.164676 
-0.100693 0.0582343 0.145276 -0.107134 0.0607298 0.125121 -0.112935 0.0634163 0.104153 
-0.117887 0.066279 0.0823687 -0.121794 0.0692793 0.05982 -0.124486 0.0723552 0.0366138 
-0.125839 0.0754247 0.0129016 -0.125781 0.0783917 -0.0111357 -0.124306 0.081154 -0.0353049 
-0.121471 0.0836126 -0.0594202 -0.117396 0.085681 -0.0833202 -0.112245 0.0872925 -0.106881 
-0.106218 0.0884066 -0.130026 -0.0995308 0.0890111 -0.152725 -0.092389 0.0891224 -0.174992 
-0.0849741 0.0887813 -0.196877 -0.0774245 0.0880472 -0.218447 -0.0698249 0.0869899 -0.239778 
-0.0622007 0.0856807 -0.260933 -0.0545204 0.0841837 -0.281956 -0.0467046 0.0825484 -0.302857 
-0.0386402 0.0808045 -0.323613 -0.0301993 0.0789597 -0.344167 -0.0212598 0.077 -0.364437 
-0.0117255 0.0748935 -0.384323 -0.00154288 0.0725957 -0.403721 0.00928684 0.0700574 -0.422534 
0.0207018 0.0672327 -0.440681 0.0325811 0.0640864 -0.458105 0.044753 0.0606012 -0.474776 
0.0570091 0.056782 -0.490688 0.0691225 0.0526584 -0.505855 0.0808678 0.0482838 -0.520301 
0.0920409 0.0437333 -0.53405 0.102476 0.0390979 -0.547121 0.112057 0.0344786 -0.559514 
0.120724 0.0299788 -0.571208 0.128475 0.0256968 -0.582164 0.135355 0.0217194 -0.592325 
0.141447 0.0181163 -0.601625 0.146857 0.0149363 -0.609999 0.151697 0.0122055 -0.617393 
0.156069 0.00992717 -0.623776 0.16005 0.00808384 -0.629146 0.163687 0.00664036 -0.633535 
0.166991 0.00554829 -0.637008 0.16994 0.00475103 -0.63966 0.172485 0.00418904 -0.6416 
0.174562 0.00380505 -0.642949 0.176101 0.0035488 -0.643816 0.177044 0.00338102 -0.644292 
0.17735 0.00327653 -0.644435 
LINES 2 100
OFFSETS vtktypeint64
0 100 
CONNECTIVITY vtktypeint64
0 1 2 3 4 5 6 7 8 
9 10 11 12 13 14 15 16 17 
18 19 20 21 22 23 24 25 26 
27 28 29 30 31 32 33 34 35 
36 37 38 39 40 41 42 43 44 
45 46 47 48 49 50 51 52 53 
54 55 56 57 58 59 60 61 62 
63 64 65 66 67 68 69 70 71 
72 73 74 75 76 77 78 79 80 
81 82 83 84 85 86 87 88 89 
90 91 92 93 94 95 96 97 98 
99 
POINT_DATA 100
FIELD FieldData 3
_theta 1 100 double
0 0.031733259127 0.063466518254 0.095199777382 0.12693303651 0.15866629564 0.19039955476 0.22213281389 0.25386607302 
0.28559933214 0.31733259127 0.3490658504 0.38079910953 0.41253236865 0.44426562778 0.47599888691 0.50773214603 0.53946540516 
0.57119866429 0.60293192342 0.63466518254 0.66639844167 0.6981317008 0.72986495992 0.76159821905 0.79333147818 0.82506473731 
0.85679799643 0.88853125556 0.92026451469 0.95199777382 0.98373103294 1.0154642921 1.0471975512 1.0789308103 1.1106640695 
1.1423973286 1.1741305877 1.2058638468 1.237597106 1.2693303651 1.3010636242 1.3327968833 1.3645301425 1.3962634016 
1.4279966607 1.4597299198 1.491463179 1.5231964381 1.5549296972 1.5866629564 1.6183962155 1.6501294746 1.6818627337 
1.7135959929 1.745329252 1.7770625111 1.8087957702 1.8405290294 1.8722622885 1.9039955476 1.9357288068 1.9674620659 
1.999195325 2.0309285841 2.0626618433 2.0943951024 2.1261283615 2.1578616206 2.1895948798 2.2213281389 2.253061398 
2.2847946572 2.3165279163 2.3482611754 2.3799944345 2.4117276937 2.4434609528 2.4751942119 2.506927471 2.5386607302 
2.5703939893 2.6021272484 2.6338605076 2.6655937667 2.6973270258 2.7290602849 2.7607935441 2.7925268032 2.8242600623 
2.8559933214 2.8877265806 2.9194598397 2.9511930988 2.982926358 3.0146596171 3.0463928762 3.0781261353 3.1098593945 
3.1415926536 
_radius 1 100 double
7.7731098783e-16 0.012076368509 0.024273814428 0.036679630025 0.04933685716 0.062233251245 0.075299556911 0.088416033349 0.10142498926 
0.11414679623 0.12639710571 0.1380034348 0.14881970342 0.15873766765 0.16769454708 0.17567648553 0.18271774877 0.18889572018 
0.1943219055 0.19912945947 0.20345826365 0.20743921023 0.21117986323 0.2147538291 0.2181957747 0.22150303206 0.22464331544 
0.22756666748 0.23021882809 0.23255308559 0.2345383124 0.23616201975 0.23742849318 0.23835306456 0.23895415496 0.23924486587 
0.23922569479 0.2388795605 0.23816990046 0.23704225125 0.23542944931 0.23326030423 0.23047118753 0.22701941165 0.22289665984 
0.2181402848 0.21284022392 0.20713965738 0.20122829787 0.19532822709 0.18967342386 0.18448557551 0.17995030912 0.17619897418 
0.1733003629 0.17126359752 0.17004907693 0.16958151353 0.16975935774 0.17045783501 0.17152727208 0.17279313893 0.17406588535 
0.17516316708 0.17593764224 0.17629958128 0.17622755368 0.17576633535 0.17501441138 0.17410429309 0.17317892896 0.17236760272 
0.17176493901 0.17141660459 0.17131435567 0.17140079686 0.17158121721 0.17173784542 0.17174206255 0.17146222778 0.17076744532 
0.16952940069 0.16762459772 0.16493823275 0.16136950492 0.15683721423 0.15128430679 0.14468039392 0.13702187897 0.12832991573 
0.11864684981 0.10803199896 0.096557619322 0.084305724094 0.071366124712 0.057835705582 0.043818577588 0.029426458311 0.014778506141 
1.6332293106e-15 
_area 1 100 double
0 0.00041094334211 0.0016579919694 0.0037771885111 0.0068093360161 0.010779232905 0.015678462942 0.021456470293 0.028020839508 
0.03524443528 0.042975633732 0.051048581042 0.059292257494 0.067538509556 0.075629276576 0.083422633076 0.090797544477 0.097658891596 
0.10394539539 0.10964123106 0.11478797987 0.11948929323 0.12389716587 0.1281717559 0.13242910465 0.13671506243 0.14101968151 
0.14530241794 0.1495011514 0.15352962067 0.15728089539 0.16064128099 0.16350713274 0.16579812481 0.16746383345 0.16848242207 
0.16885223036 0.16857859798 0.16765927259 0.16607262649 0.1637729642 0.16069601735 0.15677570042 0.15197005906 0.14628996505 
0.13982099244 0.13273018093 0.125254803 0.11767645308 0.11028728359 0.10335438376 0.097086068642 0.09160912826 0.086979360531 
0.083227889316 0.080345309618 0.07823187635 0.076765029707 0.075836478381 0.075341915395 0.075169629459 0.075207020685 0.075351632443 
0.075482979152 0.075414607042 0.074930790163 0.073885657545 0.07225914285 0.070147451641 0.067723974386 0.065199319242 0.062790790982 
0.060702202901 0.059109583558 0.058142944538 0.057860842042 0.058236932401 0.059170558865 0.06050312938 0.062029977526 0.063511447183 
0.064686410195 0.065290718989 0.065082914921 0.063874879639 0.061559116276 0.058124118491 0.053654627737 0.048318881078 0.042347399766 
0.036008128204 0.029581914338 0.023340927159 0.017531120217 0.012359028236 0.0079833858087 0.0045126819019 0.0020097092807 0.00050270300066 
6.9518953203e-17 
