# vtk DataFile Version 5.1
vtk output
ASCII
DATASET POLYDATA
POINTS 100 float
0.157877 0.0702016 0.778493 0.15792 0.0703189 0.778287 0.158097 0.0705202 0.777487 
0.158369 0.0707805 0.776067 0.158677 0.0710633 0.773989 0.158949 0.071326 0.771207 
0.159103 0.0715261 0.767668 0.159062 0.0716278 0.763325 0.158756 0.0716074 0.758135 
0.158128 0.0714567 0.752069 0.157134 0.0711849 0.745116 0.155747 0.0708172 0.737282 
0.153945 0.0703909 0.728598 0.151713 0.0699502 0.719115 0.149033 0.0695389 0.708905 
0.145876 0.0691938 0.698054 0.142207 0.0689379 0.686659 0.137975 0.0687763 0.674822 
0.133122 0.0686942 0.66264 0.12759 0.068657 0.650204 0.121325 0.0686149 0.637586 
0.114292 0.0685085 0.624843 0.106486 0.0682766 0.612004 0.0979355 0.0678653 0.599079 
0.0887134 0.0672356 0.586051 0.078933 0.0663706 0.572885 0.0687448 0.0652791 0.559532 
0.0583256 0.0639971 0.545931 0.047864 0.062585 0.532018 0.0375427 0.0611221 0.51773 
0.0275204 0.0596986 0.503011 0.0179151 0.0584056 0.487816 0.0087919 0.0573249 0.472113 
0.000155663 0.0565193 0.45588 -0.00804826 0.056026 0.439109 -0.0159264 0.0558516 0.421797 
-0.0236223 0.0559716 0.403946 -0.0312967 0.0563337 0.385556 -0.0391039 0.0568646 0.366624 
-0.0471686 0.0574789 0.347138 -0.055564 0.0580902 0.327076 -0.0642966 0.0586231 0.306405 
-0.0732974 0.0590226 0.285086 -0.0824214 0.0592628 0.263074 -0.0914576 0.0593512 0.240325 
-0.100145 0.0593293 0.216801 -0.108196 0.0592698 0.192475 -0.115323 0.0592691 0.16734 
-0.121267 0.0594369 0.141408 -0.12582 0.0598849 0.114716 -0.128847 0.0607136 0.0873259 
-0.130292 0.0620007 0.0593229 -0.130189 0.0637914 0.0308106 -0.12865 0.066092 0.00190751 
-0.12585 0.0688668 -0.0272597 -0.122009 0.0720393 -0.0565626 -0.117369 0.0754976 -0.0858765 
-0.112165 0.0791021 -0.115086 -0.106605 0.0826963 -0.144088 -0.100851 0.0861182 -0.172795 
-0.095008 0.0892116 -0.201133 -0.0891216 0.0918369 -0.229041 -0.0831795 0.0938782 -0.256471 
-0.0771228 0.0952496 -0.28338 -0.0708617 0.0958965 -0.309733 -0.0642922 0.0957953 -0.335496 
-0.0573146 0.0949496 -0.360633 -0.0498488 0.093385 -0.385112 -0.0418459 0.0911427 -0.4089 
-0.033295 0.0882727 -0.431966 -0.0242237 0.0848275 -0.454284 -0.0146946 0.080858 -0.475836 
-0.00479671 0.0764099 -0.496611 0.00536412 0.0715227 -0.51661 0.0156764 0.0662311 -0.535841 
0.0260325 0.0605664 -0.554323 0.0363349 0.0545609 -0.572077 0.0465001 0.0482509 -0.589126 
0.0564578 0.0416806 -0.605487 0.0661474 0.0349047 -0.621169 0.0755119 0.02799 -0.636165 
0.0844917 0.021015 -0.650452 0.0930186 0.0140685 -0.663992 0.101013 0.00724597 -0.676728 
0.108383 0.000645218 -0.688594 0.11503 -0.00563879 -0.699518 0.120856 -0.0115194 -0.709429 
0.125771 -0.0169234 -0.71827 0.129711 -0.0217951 -0.726001 0.132645 -0.0260993 -0.73261 
0.134589 -0.0298225 -0.738116 0.135607 -0.0329726 -0.74257 0.135814 -0.0355769 -0.746057 
0.135373 -0.037678 -0.748687 0.134479 -0.0393295 -0.750589 0.133347 -0.0405901 -0.751902 
0.132192 -0.041518 -0.752759 0.131208 -0.0421648 -0.753281 0.130549 -0.0425712 -0.753561 
0.130315 -0.0427625 -0.753659 
LINES 2 100
OFFSETS vtktypeint64
0 100 
CONNECTIVITY vtktypeint64
0 1 2 3 4 5 6 7 8 
9 10 11 12 13 14 15 16 17 
18 19 20 21 22 23 24 25 26 
27 28 29 30 31 32 33 34 35 
36 37 38 39 40 41 42 43 44 
45 46 47 48 49 50 51 52 53 
54 55 56 57 58 59 60 61 62 
63 64 65 66 67 68 69 70 71 
72 73 74 75 76 77 78 79 80 
81 82 83 84 85 86 87 88 89 
90 91 92 93 94 95 96 97 98 
99 
POINT_DATA 100
FIELD FieldData 3
_theta 1 100 double
0 0.031733259127 0.063466518254 0.095199777382 0.12693303651 0.15866629564 0.19039955476 0.22213281389 0.25386607302 
0.28559933214 0.31733259127 0.3490658504 0.38079910953 0.41253236865 0.44426562778 0.47599888691 0.50773214603 0.53946540516 
0.57119866429 0.60293192342 0.63466518254 0.66639844167 0.6981317008 0.72986495992 0.76159821905 0.79333147818 0.82506473731 
0.85679799643 0.88853125556 0.92026451469 0.95199777382 0.98373103294 1.0154642921 1.0471975512 1.0789308103 1.1106640695 
1.1423973286 1.1741305877 1.2058638468 1.237597106 1.2693303651 1.3010636242 1.3327968833 1.3645301425 1.3962634016 
1.4279966607 1.4597299198 1.491463179 1.5231964381 1.5549296972 1.5866629564 1.6183962155 1.6501294746 1.6818627337 
1.7135959929 1.745329252 1.7770625111 1.8087957702 1.8405290294 1.8722622885 1.9039955476 1.9357288068 1.9674620659 
1.999195325 2.0309285841 2.0626618433 2.0943951024 2.1261283615 2.1578616206 2.1895948798 2.2213281389 2.253061398 
2.2847946572 2.3165279163 2.3482611754 2.3799944345 2.4117276937 2.4434609528 2.4751942119 2.506927471 2.5386607302 
2.5703939893 2.6021272484 2.6338605076 2.6655937667 2.6973270258 2.7290602849 2.7607935441 2.7925268032 2.8242600623 
2.8559933214 2.8877265806 2.9194598397 2.9511930988 2.982926358 3.0146596171 3.0463928762 3.0781261353 3.1098593945 
3.1415926536 
_radius 1 100 double
1.9869968259e-16 0.015832452768 0.031462222533 0.046699478637 0.061385102165 0.0754016322 0.088679353467 0.10119691208 0.1129765293 
0.12407454404 0.13456858691 0.14454313371 0.15407547643 0.1632242025 0.17202191608 0.18047304291 0.18855632975 0.19623063092 
0.20344227011 0.21013269124 0.21624581646 0.2217350067 0.22656953882 0.2307401757 0.23426299026 0.23718037675 0.23955829294 
0.24147925387 0.24303139701 0.24429493841 0.24532829999 0.24615672956 0.24676597557 0.24710244212 0.24707967173 0.24658970794 
0.24551734581 0.24375539536 0.24121943545 0.23786078906 0.23367655599 0.22871563022 0.22307984926 0.21691980549 0.2104253441 
0.20381134157 0.1973000779 0.19110249077 0.18540163324 0.1803419183 0.17602616985 0.1725191736 0.16985327255 0.16803100078 
0.16702249948 0.16675985577 0.16713357605 0.16799592377 0.16917245519 0.17047969158 0.17174526082 0.17282657661 0.17362458944 
0.17409037039 0.17422422399 0.17406910636 0.1737010291 0.17321805938 0.17272795576 0.17233421931 0.1721213668 0.17214172665 
0.17240713004 0.17288825009 0.17352147569 0.17421988906 0.17488384506 0.17540818317 0.17568544505 0.17560621622 0.17505855539 
0.17392847776 0.17210271971 0.16947382222 0.16594645027 0.16144330811 0.15590918138 0.14931234723 0.14164348078 0.13291291712 
0.12314748659 0.11238805325 0.10068842525 0.088115671466 0.074751318263 0.060692603708 0.046052985296 0.030961357952 0.015559800577 
3.0572122545e-16 
_area 1 100 double
0 0.00061681401974 0.0024357801707 0.0053663425108 0.00926982147 0.013975632775 0.019300191345 0.025065695652 0.031116188469 
0.037328680233 0.043617630244 0.049932040847 0.056246297609 0.062548382499 0.06883050067 0.07508558747 0.081308937276 0.087500355967 
0.093661852894 0.099789380039 0.10586206728 0.11183533162 0.11764314996 0.12321055714 0.12847274649 0.13339410744 0.13797999518 
0.14227644485 0.14635677782 0.15029402893 0.15411874232 0.15777952627 0.16118448495 0.16428124246 0.16667326788 0.16808792728 
0.16831094306 0.16732118444 0.1649706347 0.16122137716 0.15615853562 0.14995489617 0.14287228915 0.1352335899 0.12738365938 
0.11964799435 0.11229413286 0.10550338183 0.099360853409 0.093867552891 0.088969499727 0.084592514639 0.080672848226 0.077177922338 
0.074116149193 0.071598014843 0.069750972257 0.068480775299 0.067727128873 0.067411665456 0.067416423449 0.067614058363 0.067866013981 
0.068023169773 0.067964078735 0.067630179562 0.067010277127 0.066091218961 0.064899241274 0.063554105181 0.062289975319 0.061515809692 
0.061231024172 0.061240676048 0.061507231717 0.062013116548 0.062737727826 0.063645509782 0.064684603056 0.065782897943 0.066825220826 
0.067633714412 0.067977814028 0.067613286531 0.066331871039 0.064002221535 0.060591137383 0.056163787569 0.050868275491 0.044912311512 
0.03853888532 0.032005233364 0.025566604537 0.019464407153 0.013917636522 0.0091167218259 0.0052194189158 0.0023485765175 0.00059145144068 
3.4910469475e-17 
