# vtk DataFile Version 5.1
vtk output
ASCII
DATASET POLYDATA
POINTS 100 float
0.123149 0.0803615 0.774855 0.123014 0.0805604 0.774575 0.122647 0.0810282 0.77356 
0.122034 0.0817333 0.771801 0.12115 0.0826267 0.76929 0.11997 0.0836472 0.766014 
0.118474 0.0847269 0.761961 0.11665 0.0857972 0.757121 0.114504 0.0867955 0.751485 
0.112056 0.0876689 0.745048 0.109343 0.0883781 0.737812 0.106416 0.0888981 0.729787 
0.10333 0.0892177 0.72099 0.10014 0.0893371 0.71145 0.0968899 0.0892638 0.701207 
0.0936035 0.0890086 0.690309 0.0902801 0.0885811 0.678816 0.0868898 0.0879858 0.666797 
0.0833742 0.0872202 0.654324 0.0796508 0.0862738 0.641477 0.0756205 0.0851294 0.628332 
0.0711791 0.0837658 0.614963 0.0662287 0.0821622 0.601434 0.0606913 0.0803029 0.5878 
0.0545187 0.0781821 0.574099 0.0477006 0.0758085 0.560353 0.0402687 0.0732077 0.546565 
0.0322954 0.0704236 0.532719 0.0238879 0.0675171 0.51878 0.0151789 0.064563 0.504699 
0.0063132 0.0616452 0.490412 -0.00256608 0.0588501 0.475846 -0.0113315 0.0562598 0.460922 
-0.019883 0.0539455 0.445563 -0.0281562 0.051962 0.42969 -0.0361257 0.050343 0.413234 
-0.0438036 0.0491 0.396134 -0.0512331 0.048222 0.37834 -0.0584783 0.0476791 0.359816 
-0.0656101 0.0474265 0.340537 -0.0726932 0.0474112 0.320491 -0.0797716 0.0475788 0.299675 
-0.0868581 0.0478801 0.2781 -0.0939276 0.048277 0.255782 -0.100914 0.0487465 0.232748 
-0.107715 0.049283 0.209028 -0.114197 0.0498983 0.184662 -0.120207 0.0506185 0.159697 
-0.12559 0.0514804 0.134184 -0.130198 0.0525254 0.108186 -0.133908 0.053793 0.0817706 
-0.136629 0.0553148 0.0550165 -0.138314 0.0571091 0.0280097 -0.138958 0.0591763 0.000843338 
-0.138597 0.0614977 -0.026384 -0.137305 0.0640347 -0.0535707 -0.135182 0.0667313 -0.0806158 
-0.132344 0.0695177 -0.107422 -0.12891 0.0723158 -0.1339 -0.124993 0.0750443 -0.159971 
-0.120691 0.0776254 -0.185572 -0.116079 0.0799891 -0.210657 -0.111212 0.0820781 -0.235197 
-0.106121 0.0838499 -0.25918 -0.100818 0.0852779 -0.282612 -0.0953042 0.0863503 -0.305514 
-0.0895759 0.0870686 -0.327913 -0.0836294 0.0874438 -0.349845 -0.0774685 0.087493 -0.371347 
-0.0711077 0.0872352 -0.392452 -0.0645735 0.0866889 -0.413185 -0.0579044 0.0858686 -0.433559 
-0.051148 0.0847843 -0.453578 -0.0443573 0.0834411 -0.473228 -0.0375868 0.0818406 -0.492484 
-0.0308881 0.0799827 -0.511309 -0.0243074 0.0778687 -0.529659 -0.0178836 0.0755041 -0.547482 
-0.0116485 0.0729016 -0.564728 -0.00562833 0.0700829 -0.581346 0.000153817 0.0670804 -0.597294 
0.00567469 0.0639371 -0.612535 0.0109082 0.0607054 -0.627041 0.0158235 0.0574455 -0.640797 
0.0203844 0.0542215 -0.653794 0.024551 0.0510982 -0.666029 0.0282824 0.048137 -0.677505 
0.0315409 0.0453919 -0.688225 0.0342979 0.0429063 -0.698193 0.0365386 0.0407101 -0.707407 
0.0382667 0.0388192 -0.715859 0.0395071 0.0372343 -0.723535 0.0403068 0.0359426 -0.730414 
0.0407326 0.0349198 -0.736468 0.0408666 0.0341334 -0.741664 0.0408 0.033546 -0.74597 
0.0406242 0.0331201 -0.749353 0.0404227 0.0328215 -0.751783 0.0402623 0.0326232 -0.753238 
0.0401867 0.0325079 -0.753704 
LINES 2 100
OFFSETS vtktypeint64
0 100 
CONNECTIVITY vtktypeint64
0 1 2 3 4 5 6 7 8 
9 10 11 12 13 14 15 16 17 
18 19 20 21 22 23 24 25 26 
27 28 29 30 31 32 33 34 35 
36 37 38 39 40 41 42 43 44 
45 46 47 48 49 50 51 52 53 
54 55 56 57 58 59 60 61 62 
63 64 65 66 67 68 69 70 71 
72 73 74 75 76 77 78 79 80 
81 82 83 84 85 86 87 88 89 
90 91 92 93 94 95 96 97 98 
99 
POINT_DATA 100
FIELD FieldData 3
_theta 1 100 double
0 0.031733259127 0.063466518254 0.095199777382 0.12693303651 0.15866629564 0.19039955476 0.22213281389 0.25386607302 
0.28559933214 0.31733259127 0.3490658504 0.38079910953 0.41253236865 0.44426562778 0.47599888691 0.50773214603 0.53946540516 
0.57119866429 0.60293192342 0.63466518254 0.66639844167 0.6981317008 0.72986495992 0.76159821905 0.79333147818 0.82506473731 
0.85679799643 0.88853125556 0.92026451469 0.95199777382 0.98373103294 1.0154642921 1.0471975512 1.0789308103 1.1106640695 
1.1423973286 1.1741305877 1.2058638468 1.237597106 1.2693303651 1.3010636242 1.3327968833 1.3645301425 1.3962634016 
1.4279966607 1.4597299198 1.491463179 1.5231964381 1.5549296972 1.5866629564 1.6183962155 1.6501294746 1.6818627337 
1.7135959929 1.745329252 1.7770625111 1.8087957702 1.8405290294 1.8722622885 1.9039955476 1.9357288068 1.9674620659 
1.999195325 2.0309285841 2.0626618433 2.0943951024 2.1261283615 2.1578616206 2.1895948798 2.2213281389 2.253061398 
2.2847946572 2.3165279163 2.3482611754 2.3799944345 2.4117276937 2.4434609528 2.4751942119 2.506927471 2.5386607302 
2.5703939893 2.6021272484 2.6338605076 2.6655937667 2.6973270258 2.7290602849 2.7607935441 2.7925268032 2.8242600623 
2.8559933214 2.8877265806 2.9194598397 2.9511930988 2.982926358 3.0146596171 3.0463928762 3.0781261353 3.1098593945 
3.1415926536 
_radius 1 100 double
4.8967160228e-16 0.014827604452 0.029524692301 0.043964842441 0.058037239387 0.071651880959 0.084741947012 0.097263219192 0.10919091349 
0.12051466107 0.13123262271 0.14134583112 0.15085378198 0.15975199501 0.16803178341 0.17568197324 0.18269200657 0.18905581576 
0.19477595508 0.19986753146 0.20436138397 0.20830577866 0.21176577505 0.21481957105 0.21755167885 0.22004370896 0.22236450039 
0.2245616861 0.22665614203 0.22863961748 0.23047512325 0.23209970068 0.23342954904 0.23436758952 0.23481322365 0.23467348222 
0.23387424401 0.23236995622 0.23015040867 0.22724357436 0.22371421932 0.21965874359 0.2151973472 0.21046493468 0.20560208653 
0.20074701741 0.19602895126 0.19156302952 0.18744681805 0.18375852799 0.18055694262 0.17788263407 0.17575957199 0.17419605265 
0.17318423949 0.17269839823 0.17269278331 0.17310070174 0.17383626501 0.17479956852 0.17588460385 0.17698782883 0.17801509224 
0.1788858265 0.17953506988 0.17991473051 0.17999516255 0.17976702895 0.1792424536 0.1784543418 0.17745337968 0.17630295832 
0.17507266895 0.17383105066 0.17263809045 0.17153780357 0.17055128256 0.16967087961 0.16885638386 0.16803390257 0.16709771287 
0.16591494793 0.16433282834 0.16218810588 0.15931816696 0.15557280347 0.15082525773 0.14498107784 0.13798366116 0.12981599312 
0.12049879933 0.11008592406 0.098658094162 0.086316271397 0.073175576625 0.059360388775 0.045000809559 0.030230353472 0.015184536134 
8.3320560181e-16 
_area 1 100 double
0 0.00059065946626 0.0023325393592 0.0051396870337 0.0088821692106 0.013402627168 0.018534320327 0.024118140436 0.030016756144 
0.036123925143 0.04236631076 0.048695498536 0.055071348392 0.061443325957 0.067738675726 0.073862249688 0.079706796211 0.08516945792 
0.090170284085 0.094669715886 0.098682430729 0.10228381029 0.10560406558 0.10880674722 0.11205432774 0.11547147812 0.11912102521 
0.12300186397 0.12706360869 0.13122248473 0.13536647296 0.13935002386 0.14298820229 0.14606089697 0.14833223712 0.14958331334 
0.14965057553 0.14845956472 0.14604407915 0.14254360257 0.13817704613 0.13319951176 0.12785733426 0.12235757791 0.11685932258 
0.11148201253 0.10631821326 0.10143357437 0.096882729191 0.092720497299 0.08898215618 0.08568337112 0.082771142834 0.080175531318 
0.077841943918 0.075799511793 0.0740809077 0.072697806025 0.071658482969 0.07093283917 0.070468975953 0.070236651322 0.070252308972 
0.070389293345 0.070561330897 0.070671898913 0.070647722528 0.070336448315 0.069650692 0.068677090955 0.067356306644 0.06577322763 
0.06402702237 0.062235436995 0.060565900452 0.059164743923 0.058143124047 0.057573936746 0.057461549693 0.057741685527 0.058346051192 
0.059159910235 0.059819107573 0.059951015437 0.059321748355 0.057776601937 0.055231802628 0.05168204964 0.047205162426 0.041958200933 
0.036163955547 0.030089469661 0.024020085588 0.018233317566 0.012976662463 0.0084524551252 0.0048113522715 0.0021542596643 0.00054070161775 
1.4311468677e-17 
