# vtk DataFile Version 5.1
vtk output
ASCII
DATASET POLYDATA
POINTS 100 float
0.0798262 0.0693209 0.728972 0.0800182 0.0696857 0.728686 0.0805843 0.07059 0.727647 
0.0814328 0.0719419 0.725869 0.0824241 0.073601 0.723369 0.0833886 0.0753941 0.720169 
0.0841493 0.0771354 0.716295 0.0845439 0.078647 0.711766 0.0844454 0.0797779 0.7066 
0.0837779 0.0804193 0.700809 0.0825247 0.0805142 0.694401 0.0807286 0.0800604 0.68738 
0.0784843 0.0791064 0.679751 0.0759232 0.0777414 0.671523 0.0731941 0.0760813 0.662713 
0.0704411 0.0742511 0.653348 0.0677827 0.0723684 0.643465 0.0652943 0.0705285 0.633112 
0.0629975 0.0687937 0.622343 0.0608559 0.0671879 0.611215 0.0587802 0.0656976 0.599782 
0.0566401 0.0642776 0.588086 0.0542816 0.062862 0.576156 0.0515489 0.0613775 0.563999 
0.048305 0.0597573 0.551602 0.0444511 0.057954 0.538933 0.0399406 0.0559489 0.52594 
0.0347851 0.0537573 0.512566 0.029054 0.0514277 0.498752 0.0228645 0.0490367 0.484448 
0.0163667 0.0466798 0.469621 0.00972275 0.0444584 0.454263 0.0030853 0.0424678 0.438396 
-0.00342326 0.0407845 0.422066 -0.00972723 0.0394572 0.405345 -0.0158078 0.0385027 0.388318 
-0.021705 0.0379054 0.371073 -0.027512 0.0376226 0.353688 -0.0333606 0.0375939 0.336215 
-0.0394023 0.0377532 0.318673 -0.0457842 0.0380415 0.301036 -0.0526257 0.0384189 0.283231 
-0.0599966 0.0388737 0.265143 -0.0679007 0.039427 0.246621 -0.076267 0.0401325 0.227492 
-0.084948 0.0410701 0.207579 -0.0937281 0.0423362 0.18672 -0.102339 0.0440291 0.164788 
-0.110478 0.0462345 0.141706 -0.117839 0.0490098 0.117456 -0.124129 0.0523729 0.0920898 
-0.129099 0.0562935 0.0657228 -0.132558 0.0606912 0.0385272 -0.134388 0.0654389 0.0107175 
-0.134546 0.0703722 -0.0174689 -0.133067 0.0753028 -0.0457922 -0.13005 0.0800354 -0.074031 
-0.125646 0.0843853 -0.102 -0.120045 0.0881943 -0.129563 -0.113449 0.0913438 -0.156639 
-0.106065 0.0937628 -0.183204 -0.0980825 0.0954306 -0.209279 -0.0896674 0.0963728 -0.234922 
-0.0809533 0.0966534 -0.26021 -0.072041 0.0963614 -0.285218 -0.0629996 0.0955964 -0.310006 
-0.0538715 0.0944535 -0.334599 -0.0446788 0.0930093 -0.358984 -0.0354299 0.0913127 -0.383099 
-0.0261255 0.0893791 -0.406844 -0.0167642 0.0871901 -0.430083 -0.0073449 0.0846985 -0.452663 
0.00213079 0.0818368 -0.474426 0.0116581 0.0785296 -0.495231 0.0212293 0.0747061 -0.514965 
0.0308331 0.0703127 -0.533553 0.0404544 0.0653237 -0.550972 0.0500726 0.0597474 -0.567242 
0.0596589 0.0536297 -0.582429 0.0691735 0.0470516 -0.596629 0.0785621 0.040124 -0.609954 
0.0877542 0.0329787 -0.622523 0.0966618 0.0257578 -0.634439 0.105181 0.0186028 -0.645783 
0.113196 0.0116438 -0.656601 0.120586 0.00499226 -0.666904 0.127234 -0.00126511 -0.67667 
0.13304 -0.00706786 -0.685849 0.137927 -0.012381 -0.694371 0.141853 -0.0171912 -0.702164 
0.14482 -0.0215018 -0.709162 0.146876 -0.0253262 -0.715316 0.148114 -0.0286823 -0.720603 
0.148667 -0.0315873 -0.725025 0.148699 -0.0340545 -0.728615 0.148388 -0.0360915 -0.731423 
0.147913 -0.0377002 -0.733513 0.147435 -0.0388783 -0.734949 0.147083 -0.0396212 -0.735787 
0.146941 -0.0399244 -0.736065 
LINES 2 100
OFFSETS vtktypeint64
0 100 
CONNECTIVITY vtktypeint64
0 1 2 3 4 5 6 7 8 
9 10 11 12 13 14 15 16 17 
18 19 20 21 22 23 24 25 26 
27 28 29 30 31 32 33 34 35 
36 37 38 39 40 41 42 43 44 
45 46 47 48 49 50 51 52 53 
54 55 56 57 58 59 60 61 62 
63 64 65 66 67 68 69 70 71 
72 73 74 75 76 77 78 79 80 
81 82 83 84 85 86 87 88 89 
90 91 92 93 94 95 96 97 98 
99 
POINT_DATA 100
FIELD FieldData 3
_theta 1 100 double
0 0.031733259127 0.063466518254 0.095199777382 0.12693303651 0.15866629564 0.19039955476 0.22213281389 0.25386607302 
0.28559933214 0.31733259127 0.3490658504 0.38079910953 0.41253236865 0.44426562778 0.47599888691 0.50773214603 0.53946540516 
0.57119866429 0.60293192342 0.63466518254 0.66639844167 0.6981317008 0.72986495992 0.76159821905 0.79333147818 0.82506473731 
0.85679799643 0.88853125556 0.92026451469 0.95199777382 0.98373103294 1.0154642921 1.0471975512 1.0789308103 1.1106640695 
1.1423973286 1.1741305877 1.2058638468 1.237597106 1.2693303651 1.3010636242 1.3327968833 1.3645301425 1.3962634016 
1.4279966607 1.4597299198 1.491463179 1.5231964381 1.5549296972 1.5866629564 1.6183962155 1.6501294746 1.6818627337 
1.7135959929 1.745329252 1.7770625111 1.8087957702 1.8405290294 1.8722622885 1.9039955476 1.9357288068 1.9674620659 
1.999195325 2.0309285841 2.0626618433 2.0943951024 2.1261283615 2.1578616206 2.1895948798 2.2213281389 2.253061398 
2.2847946572 2.3165279163 2.3482611754 2.3799944345 2.4117276937 2.4434609528 2.4751942119 2.506927471 2.5386607302 
2.5703939893 2.6021272484 2.6338605076 2.6655937667 2.6973270258 2.7290602849 2.7607935441 2.7925268032 2.8242600623 
2.8559933214 2.8877265806 2.9194598397 2.9511930988 2.982926358 3.0146596171 3.0463928762 3.0781261353 3.1098593945 
3.1415926536 
_radius 1 100 double
1.2304363166e-15 0.014275587701 0.028478681785 0.042531182558 0.056360067194 0.069898646198 0.083087120615 0.095873388693 0.1082147679 
0.12008052407 0.13145431922 0.14233530534 0.15273674057 0.16268160206 0.1721955264 0.18129828529 0.18999563806 0.19827354804 
0.20609629544 0.21340907657 0.22014457695 0.22623214117 0.23160781146 0.23622368603 0.24005553417 0.24310808455 0.24541765998 
0.24705183864 0.24810572749 0.24869447331 0.24894201279 0.24896682996 0.24886647425 0.24870341514 0.24849503367 0.24820992919 
0.24777138965 0.24706732699 0.2459648034 0.24432682681 0.24202934027 0.23897692395 0.23511624483 0.23044646751 0.2250256963 
0.2189723168 0.2124601815 0.20570715583 0.19895757262 0.1924603731 0.18644585789 0.18110485749 0.17657435037 0.17293203188 
0.17019858055 0.16834277726 0.16728496481 0.16689869074 0.16701483625 0.16743366415 0.16794698604 0.16836678568 0.16855250512 
0.16842956943 0.16799509234 0.16731037561 0.16648277357 0.16564174799 0.16491491392 0.16440874116 0.1641959181 0.16430896223 
0.16473850605 0.16543476563 0.16631154785 0.16725304641 0.16812385928 0.16878186696 0.16909229484 0.16894026109 0.16823898925 
0.16693175416 0.16498721887 0.1623895456 0.15912592116 0.15517459408 0.15049621534 0.14503037721 0.13869793521 0.13140836551 
0.12307056898 0.1136053722 0.10295822264 0.091110842587 0.078090737055 0.063977512392 0.048905092407 0.033059204714 0.016669968275 
1.9584192929e-15 
_area 1 100 double
0 0.00057941851534 0.0023065107078 0.0051454894636 0.0090303042938 0.013858948011 0.019491787409 0.025757186818 0.03246559864 
0.039430734971 0.046494213333 0.053548524744 0.060552198286 0.067530753072 0.074558878456 0.081725454222 0.089091820602 0.096657936024 
0.10434715202 0.11201251099 0.11946032737 0.12648288657 0.1328917704 0.13854444966 0.14335894585 0.14731640782 0.1504572824 
0.15287700301 0.15472091868 0.15617261021 0.15743059556 0.15867629742 0.16004735495 0.16163708449 0.16351982644 0.16565470869 
0.16767686101 0.16909706573 0.1695049158 0.16859800336 0.16619449757 0.16224847548 0.1568566853 0.15024968907 0.14276456792 
0.13479833004 0.12674821699 0.11895705493 0.11169048471 0.10518132723 0.099726161502 0.095347704643 0.091733881933 0.088670740043 
0.086039876491 0.083774825501 0.081836259948 0.080193256521 0.078819368287 0.07764641336 0.076442515785 0.074914186121 0.072895176229 
0.070374032734 0.067470075755 0.06440258021 0.061437137959 0.058803826189 0.056648608342 0.05504344755 0.054008749371 0.053536173116 
0.053471038996 0.053647499285 0.05432533117 0.055311565888 0.056419646947 0.05739788631 0.058079819395 0.058378869211 0.058268844755 
0.057772974041 0.056933728685 0.055779629463 0.054300980376 0.052441736602 0.050110453171 0.047208892133 0.043669351776 0.039486148119 
0.034730706693 0.029549028138 0.02414637639 0.018765391181 0.013662817065 0.0090884588183 0.0052683808904 0.0023926313398 0.00060601255156 
2.4846285851e-17 
