# vtk DataFile Version 5.1
vtk output
ASCII
DATASET POLYDATA
POINTS 100 float
0.173026 0.058854 0.77937 0.172935 0.0590274 0.779242 0.172749 0.0594026 0.778733 
0.172434 0.0599751 0.777797 0.171936 0.0607392 0.776359 0.171192 0.0616871 0.774326 
0.170137 0.0628091 0.771592 0.168714 0.0640923 0.768049 0.166884 0.0655201 0.763598 
0.164626 0.0670708 0.758156 0.161944 0.0687163 0.751667 0.15886 0.0704208 0.744107 
0.155414 0.0721405 0.735488 0.151649 0.0738225 0.725858 0.147606 0.0754064 0.7153 
0.143313 0.0768249 0.703928 0.138777 0.0780078 0.691876 0.133982 0.0788848 0.679287 
0.128886 0.0793908 0.666308 0.123423 0.0794708 0.653071 0.117517 0.0790854 0.639688 
0.111086 0.0782155 0.626241 0.104059 0.0768658 0.612776 0.0963875 0.0750673 0.5993 
0.0880526 0.0728769 0.585785 0.0790758 0.0703756 0.57217 0.0695196 0.0676646 0.558367 
0.0594846 0.0648584 0.544275 0.0491019 0.0620781 0.529786 0.0385216 0.0594425 0.514796 
0.0278981 0.05706 0.499217 0.017376 0.0550212 0.482977 0.00707563 0.0533929 0.46603 
-0.00291613 0.0522147 0.448351 -0.0125519 0.0514974 0.429938 -0.0218236 0.0512247 0.410804 
-0.0307563 0.0513573 0.39097 -0.039398 0.0518387 0.37046 -0.047805 0.0526022 0.349291 
-0.0560261 0.053579 0.327475 -0.0640875 0.0547052 0.305006 -0.0719801 0.0559278 0.281872 
-0.0796519 0.0572094 0.258051 -0.0870057 0.0585296 0.233517 -0.0939041 0.0598852 0.208253 
-0.10018 0.0612869 0.182254 -0.10565 0.0627553 0.155539 -0.110138 0.0643153 0.128151 
-0.113489 0.0659898 0.100164 -0.115588 0.0677943 0.0716844 -0.116378 0.0697323 0.0428394 
-0.115861 0.0717924 0.0137753 -0.114106 0.0739477 -0.0153548 -0.111238 0.0761567 -0.0444025 
-0.107429 0.0783662 -0.073235 -0.102881 0.0805159 -0.101745 -0.097803 0.0825428 -0.129858 
-0.0923934 0.0843872 -0.157534 -0.08682 0.0859962 -0.184766 -0.081206 0.0873273 -0.211574 
-0.0756205 0.0883499 -0.237995 -0.0700769 0.0890451 -0.264075 -0.0645368 0.0894039 -0.289849 
-0.0589204 0.089424 -0.315336 -0.0531214 0.0891058 -0.340527 -0.0470241 0.0884486 -0.365379 
-0.0405214 0.0874467 -0.389821 -0.0335301 0.0860873 -0.413749 -0.0260037 0.0843497 -0.437045 
-0.0179397 0.082206 -0.459586 -0.00938179 0.0796239 -0.481257 -0.000416575 0.0765711 -0.50197 
0.00883391 0.0730205 -0.521673 0.0182231 0.0689558 -0.540357 0.0275925 0.0643765 -0.558064 
0.0367836 0.0593031 -0.574877 0.0456492 0.0537786 -0.590916 0.0540614 0.0478704 -0.606319 
0.0619158 0.0416678 -0.621227 0.0691337 0.0352792 -0.635763 0.0756597 0.0288259 -0.650015 
0.0814585 0.022436 -0.664022 0.0865097 0.0162367 -0.677764 0.0908032 0.0103468 -0.69116 
0.0943361 0.00487 -0.704076 0.0971107 -0.000110549 -0.716336 0.0991352 -0.00453608 -0.727742 
0.100427 -0.00837411 -0.738096 0.101015 -0.0116183 -0.747223 0.100946 -0.0142867 -0.754993 
0.100289 -0.0164183 -0.761342 0.0991354 -0.0180684 -0.766276 0.0976013 -0.0193037 -0.769878 
0.0958225 -0.0201968 -0.772301 0.0939493 -0.0208214 -0.773751 0.092137 -0.0212471 -0.774469 
0.0905352 -0.0215358 -0.774703 0.0892763 -0.0217381 -0.77468 0.0884643 -0.0218916 -0.774586 
0.088166 -0.0220184 -0.774539 
LINES 2 100
OFFSETS vtktypeint64
0 100 
CONNECTIVITY vtktypeint64
0 1 2 3 4 5 6 7 8 
9 10 11 12 13 14 15 16 17 
18 19 20 21 22 23 24 25 26 
27 28 29 30 31 32 33 34 35 
36 37 38 39 40 41 42 43 44 
45 46 47 48 49 50 51 52 53 
54 55 56 57 58 59 60 61 62 
63 64 65 66 67 68 69 70 71 
72 73 74 75 76 77 78 79 80 
81 82 83 84 85 86 87 88 89 
90 91 92 93 94 95 96 97 98 
99 
POINT_DATA 100
FIELD FieldData 3
_theta 1 100 double
0 0.031733259127 0.063466518254 0.095199777382 0.12693303651 0.15866629564 0.19039955476 0.22213281389 0.25386607302 
0.28559933214 0.31733259127 0.3490658504 0.38079910953 0.41253236865 0.44426562778 0.47599888691 0.50773214603 0.53946540516 
0.57119866429 0.60293192342 0.63466518254 0.66639844167 0.6981317008 0.72986495992 0.76159821905 0.79333147818 0.82506473731 
0.85679799643 0.88853125556 0.92026451469 0.95199777382 0.98373103294 1.0154642921 1.0471975512 1.0789308103 1.1106640695 
1.1423973286 1.1741305877 1.2058638468 1.237597106 1.2693303651 1.3010636242 1.3327968833 1.3645301425 1.3962634016 
1.4279966607 1.4597299198 1.491463179 1.5231964381 1.5549296972 1.5866629564 1.6183962155 1.6501294746 1.6818627337 
1.7135959929 1.745329252 1.7770625111 1.8087957702 1.8405290294 1.8722622885 1.9039955476 1.9357288068 1.9674620659 
1.999195325 2.0309285841 2.0626618433 2.0943951024 2.1261283615 2.1578616206 2.1895948798 2.2213281389 2.253061398 
2.2847946572 2.3165279163 2.3482611754 2.3799944345 2.4117276937 2.4434609528 2.4751942119 2.506927471 2.5386607302 
2.5703939893 2.6021272484 2.6338605076 2.6655937667 2.6973270258 2.7290602849 2.7607935441 2.7925268032 2.8242600623 
2.8559933214 2.8877265806 2.9194598397 2.9511930988 2.982926358 3.0146596171 3.0463928762 3.0781261353 3.1098593945 
3.1415926536 
_radius 1 100 double
1.6667795129e-16 0.017711589624 0.035180548411 0.052176780524 0.068498762909 0.083984708307 0.098520174835 0.11204161175 0.12453577285 
0.13603531412 0.14661116075 0.15636235716 0.16540413257 0.17385491913 0.18182318117 0.18939523927 0.19662570544 0.20353233903 
0.21009667386 0.21627059984 0.22198769378 0.22717711615 0.23177758465 0.23574915226 0.23908100545 0.24179412252 0.24393837547 
0.24558452983 0.24681252204 0.24769817503 0.24830087425 0.24865446914 0.24876283068 0.24860039709 0.24811708594 0.247246418 
0.24591560855 0.24405656629 0.24161697397 0.2385707395 0.23492702616 0.23073683274 0.22609584602 0.22114226823 0.21604878247 
0.21100886623 0.20621910421 0.20186046231 0.19808202134 0.1949900222 0.19264334106 0.19105436816 0.19019278187 0.1899898362 
0.19034253483 0.19111918336 0.19216855672 0.19333362213 0.1944684351 0.19545508531 0.1962171719 0.19672696511 0.19700463714 
0.19710946241 0.19712459551 0.19713862781 0.19722798007 0.19744372851 0.19780474016 0.19829685137 0.19887630193 0.1994752782 
0.20000807593 0.20037744709 0.20048141338 0.20022076747 0.19950676463 0.19826772166 0.19645299114 0.19403327699 0.19099725979 
0.18734555325 0.18308368364 0.17821582588 0.17274044336 0.16664803254 0.15992032239 0.15252995303 0.14444003201 0.13560384083 
0.12596586805 0.11546575344 0.1040463138 0.091665628533 0.078311621242 0.064016296959 0.048866292151 0.033006849515 0.016637576396 
2.9887841443e-16 
_area 1 100 double
0 0.00065453629255 0.0025885190839 0.005715137364 0.0098967544421 0.014955804424 0.020689861102 0.026889409621 0.033355941083 
0.039917857782 0.046442414894 0.052843088655 0.059082663029 0.065172435834 0.071167173427 0.077154269304 0.083235060552 0.089498142414 
0.095990322655 0.10269715103 0.1095414641 0.11639598071 0.12310259586 0.12949771545 0.13544218595 0.14084644956 0.14568099055 
0.14996967476 0.15377044505 0.15715037342 0.16016156935 0.16282267309 0.16510851893 0.16694850267 0.16823281902 0.16882544219 
0.16858291758 0.16737752897 0.16512198407 0.16179154354 0.1574393869 0.15220154533 0.14628830735 0.13996044826 0.13349270266 
0.12713300129 0.12106991333 0.11541884278 0.1102309014 0.10552066661 0.10130268232 0.097625874091 0.094614325903 0.092497084516 
0.091216212726 0.090574688512 0.090397561915 0.090483855376 0.090613468661 0.09057365013 0.090193646685 0.089374705517 0.088098359393 
0.086416599296 0.084437484853 0.082307272412 0.080182173761 0.078222707659 0.076686987273 0.075832921973 0.07563527017 0.075920033638 
0.076613585201 0.077591473288 0.078715513364 0.079851493506 0.080878150694 0.081700860863 0.082262653718 0.082532429234 0.082457341166 
0.081923586794 0.080782826576 0.078903544103 0.076197715498 0.0726277341 0.068206171113 0.062992380336 0.057087063405 0.050626097314 
0.043774974706 0.036724426247 0.029686709426 0.022891295809 0.016578540523 0.010990303464 0.0063572279501 0.0028833482922 0.00072976754562 
1.4758688864e-17 
