# vtk DataFile Version 5.1
vtk output
ASCII
DATASET POLYDATA
POINTS 100 float
0.220361 0.0414458 0.748767 0.220075 0.0416708 0.748652 0.219269 0.0421704 0.748186 
0.217957 0.0429149 0.747332 0.216161 0.0438603 0.74603 0.213908 0.0449532 0.744208 
0.211231 0.046137 0.741785 0.208159 0.0473584 0.738679 0.204722 0.0485728 0.734814 
0.200942 0.0497482 0.730129 0.196831 0.0508675 0.724583 0.19239 0.0519279 0.718159 
0.18761 0.0529379 0.710863 0.182469 0.0539134 0.702728 0.176937 0.0548708 0.69381 
0.170978 0.0558213 0.684179 0.164554 0.0567646 0.673919 0.157632 0.0576846 0.663116 
0.150189 0.0585469 0.651852 0.142216 0.0592995 0.640199 0.133723 0.0598754 0.628214 
0.124744 0.0601992 0.615933 0.115333 0.060194 0.603372 0.105566 0.0597913 0.590527 
0.0955336 0.0589399 0.577379 0.0853387 0.057614 0.563895 0.075085 0.0558198 0.550039 
0.0648698 0.0535989 0.535772 0.054775 0.0510283 0.521065 0.0448596 0.0482171 0.505896 
0.0351538 0.0452995 0.490259 0.0256563 0.0424252 0.474158 0.0163351 0.0397481 0.457611 
0.00713153 0.0374143 0.440641 -0.00203249 0.0355504 0.423273 -0.011244 0.0342537 0.405525 
-0.0205873 0.0335849 0.387405 -0.0301312 0.0335645 0.368904 -0.0399175 0.034173 0.349991 
-0.0499512 0.0353539 0.330615 -0.0601943 0.037021 0.31071 -0.0705631 0.0390677 0.290192 
-0.0809306 0.0413774 0.268976 -0.0911331 0.0438349 0.246984 -0.10098 0.0463362 0.224149 
-0.110268 0.0487968 0.200436 -0.118796 0.0511579 0.17584 -0.126377 0.0533885 0.1504 
-0.132857 0.0554854 0.124194 -0.138122 0.0574693 0.0973409 -0.142105 0.0593793 0.0699942 
-0.144792 0.0612654 0.0423304 -0.146214 0.0631801 0.0145377 -0.146447 0.0651705 -0.0131979 
-0.1456 0.0672715 -0.0407057 -0.143801 0.0695001 -0.0678425 -0.141189 0.0718526 -0.0945013 
-0.137897 0.0743035 -0.120617 -0.134045 0.0768075 -0.146164 -0.129733 0.0793025 -0.171159 
-0.125033 0.0817148 -0.195644 -0.119993 0.083965 -0.219686 -0.11464 0.0859736 -0.243355 
-0.108982 0.0876668 -0.266721 -0.103018 0.0889814 -0.289836 -0.0967473 0.0898676 -0.312731 
-0.0901738 0.0902912 -0.335409 -0.0833152 0.0902339 -0.357845 -0.0762052 0.0896923 -0.379993 
-0.0688949 0.0886762 -0.401788 -0.0614516 0.0872061 -0.423159 -0.0539544 0.0853102 -0.444037 
-0.0464891 0.0830221 -0.464365 -0.039141 0.0803786 -0.484107 -0.0319891 0.0774183 -0.503248 
-0.0251004 0.0741805 -0.521799 -0.0185254 0.0707057 -0.539789 -0.0122968 0.0670352 -0.557263 
-0.0064298 0.0632124 -0.574264 -0.000923842 0.0592833 -0.590831 0.00423291 0.0552968 -0.606982 
0.00905904 0.0513045 -0.622709 0.0135748 0.0473608 -0.63797 0.0177978 0.0435207 -0.652687 
0.0217395 0.0398387 -0.666753 0.0254038 0.0363661 -0.680039 0.0287869 0.0331484 -0.692403 
0.031879 0.0302233 -0.703708 0.0346672 0.0276178 -0.713834 0.0371391 0.0253471 -0.722695 
0.0392863 0.0234138 -0.730247 0.0411078 0.0218076 -0.736496 0.0426116 0.0205071 -0.741499 
0.0438156 0.0194814 -0.74536 0.044746 0.0186932 -0.748219 0.0454353 0.0181023 -0.750238 
0.0459184 0.0176691 -0.751584 0.0462284 0.0173588 -0.752412 0.0463926 0.017144 -0.752845 
0.0464291 0.0170078 -0.752965 
LINES 2 100
OFFSETS vtktypeint64
0 100 
CONNECTIVITY vtktypeint64
0 1 2 3 4 5 6 7 8 
9 10 11 12 13 14 15 16 17 
18 19 20 21 22 23 24 25 26 
27 28 29 30 31 32 33 34 35 
36 37 38 39 40 41 42 43 44 
45 46 47 48 49 50 51 52 53 
54 55 56 57 58 59 60 61 62 
63 64 65 66 67 68 69 70 71 
72 73 74 75 76 77 78 79 80 
81 82 83 84 85 86 87 88 89 
90 91 92 93 94 95 96 97 98 
99 
POINT_DATA 100
FIELD FieldData 3
_theta 1 100 double
0 0.031733259127 0.063466518254 0.095199777382 0.12693303651 0.15866629564 0.19039955476 0.22213281389 0.25386607302 
0.28559933214 0.31733259127 0.3490658504 0.38079910953 0.41253236865 0.44426562778 0.47599888691 0.50773214603 0.53946540516 
0.57119866429 0.60293192342 0.63466518254 0.66639844167 0.6981317008 0.72986495992 0.76159821905 0.79333147818 0.82506473731 
0.85679799643 0.88853125556 0.92026451469 0.95199777382 0.98373103294 1.0154642921 1.0471975512 1.0789308103 1.1106640695 
1.1423973286 1.1741305877 1.2058638468 1.237597106 1.2693303651 1.3010636242 1.3327968833 1.3645301425 1.3962634016 
1.4279966607 1.4597299198 1.491463179 1.5231964381 1.5549296972 1.5866629564 1.6183962155 1.6501294746 1.6818627337 
1.7135959929 1.745329252 1.7770625111 1.8087957702 1.8405290294 1.8722622885 1.9039955476 1.9357288068 1.9674620659 
1.999195325 2.0309285841 2.0626618433 2.0943951024 2.1261283615 2.1578616206 2.1895948798 2.2213281389 2.253061398 
2.2847946572 2.3165279163 2.3482611754 2.3799944345 2.4117276937 2.4434609528 2.4751942119 2.506927471 2.5386607302 
2.5703939893 2.6021272484 2.6338605076 2.6655937667 2.6973270258 2.7290602849 2.7607935441 2.7925268032 2.8242600623 
2.8559933214 2.8877265806 2.9194598397 2.9511930988 2.982926358 3.0146596171 3.0463928762 3.0781261353 3.1098593945 
3.1415926536 
_radius 1 100 double
3.6088919697e-16 0.017062099877 0.033969703311 0.050575844598 0.066747318807 0.082370180007 0.097353636244 0.11163210377 0.12516537039 
0.13793694902 0.14995076583 0.16122637883 0.17179305583 0.18168329932 0.19092669478 0.19954506607 0.20754967835 0.21494068478 
0.2217084459 0.2278360592 0.23330253111 0.23808638743 0.24216992308 0.24554450471 0.24821717676 0.25021819299 0.25160809 
0.2524818746 0.25296737458 0.25321541071 0.25338150541 0.25360193298 0.25396967375 0.25451657835 0.25520614675 0.25593788873 
0.25656115802 0.25689484606 0.25674939176 0.25594851057 0.25434910017 0.25185845273 0.24844806476 0.24416312666 0.23912645043 
0.23353540903 0.22765062046 0.22177581865 0.21622980712 0.21131359219 0.20727814769 0.20429937046 0.20246514438 0.20177508432 
0.20214892948 0.20343797792 0.20543656928 0.20789504325 0.21053770404 0.21308721154 0.21529269112 0.21695622022 0.21795248026 
0.21823821059 0.21785030129 0.21689326915 0.21551838288 0.21389788214 0.2121984964 0.2105585197 0.20907173629 0.20777967412 
0.20667174994 0.20569165302 0.20474800159 0.2037275207 0.20250922466 0.20097807082 0.199036364 0.19661115159 0.19365629439 
0.19014892257 0.18608130526 0.18145026005 0.17624668395 0.17044749267 0.16401140837 0.15687898853 0.1489764004 0.14022196356 
0.13053445963 0.11984247493 0.10809430557 0.095267969917 0.081380586994 0.066495951266 0.050728843346 0.034244698373 0.017253792436 
4.4250169428e-16 
_area 1 100 double
0 0.00071899763895 0.0028417968636 0.0062684630834 0.010841778251 0.016362495528 0.022611518131 0.029377014536 0.036481984057 
0.043806130494 0.051296055461 0.05895998216 0.066846931014 0.0750146389 0.083494584365 0.092264624795 0.10123779454 0.11026938563 
0.11917694573 0.12776411038 0.13584090414 0.14323779863 0.14981480028 0.15546839291 0.16013874834 0.16381855468 0.16656367414 
0.16850411432 0.16985135558 0.17089583029 0.17198614817 0.17347931905 0.17565713517 0.17863007965 0.18227025722 0.18620847173 
0.18993080224 0.19291725769 0.19473035605 0.19505766199 0.19373140135 0.19072927666 0.18615629967 0.18021346294 0.17316552547 
0.16531928596 0.15701499985 0.14862404448 0.14054142888 0.133162558 0.12683784244 0.12180895071 0.11815398275 0.11578559434 
0.11451437163 0.11413486097 0.11447243916 0.11534670793 0.11648215381 0.1175054781 0.11802688239 0.1177883345 0.11662610954 
0.11453778382 0.11164092261 0.10812898516 0.1042556716 0.10026656866 0.09636328885 0.09268297429 0.089299941226 0.0862481046 
0.083551459694 0.081250793693 0.079416853241 0.078145743409 0.077539231765 0.077654587902 0.078380724042 0.079386160356 0.080291745093 
0.080785024882 0.080620705437 0.079611415524 0.077627850642 0.074601859851 0.070527924699 0.065461440647 0.059514314999 0.052849163859 
0.045672658956 0.038227390582 0.030781232023 0.023613945104 0.017002011688 0.011203501367 0.006444751577 0.0029100000028 0.00073437514271 
1.7574229683e-17 
