# vtk DataFile Version 5.1
vtk output
ASCII
DATASET POLYDATA
POINTS 100 float
0.103655 0.0681726 0.722202 0.103566 0.0683477 0.721822 0.103374 0.0687372 0.720525 
0.103104 0.0693328 0.71836 0.102794 0.0701195 0.715399 0.102487 0.0710742 0.711728 
0.102228 0.0721656 0.707431 0.102054 0.0733525 0.702582 0.101991 0.0745855 0.697226 
0.102043 0.0758072 0.691379 0.102191 0.0769559 0.685026 0.102392 0.0779688 0.678122 
0.10258 0.0787868 0.670605 0.102669 0.0793592 0.662406 0.102556 0.0796484 0.65347 
0.102134 0.0796336 0.643763 0.101298 0.0793129 0.633292 0.0999485 0.0787035 0.622104 
0.0980078 0.0778401 0.610294 0.0954197 0.076771 0.597996 0.0921561 0.0755527 0.585369 
0.0882189 0.074244 0.572584 0.0836392 0.0728983 0.559805 0.0784745 0.0715587 0.547164 
0.0728036 0.0702525 0.534754 0.0667205 0.0689892 0.522606 0.0603266 0.0677599 0.510696 
0.0537234 0.0665402 0.498937 0.0470048 0.065295 0.487197 0.0402507 0.0639846 0.47531 
0.0335223 0.062573 0.463099 0.0268586 0.0610349 0.450396 0.0202748 0.0593626 0.437062 
0.0137632 0.0575704 0.423001 0.00729565 0.0556964 0.408169 0.000827592 0.053802 0.39258 
-0.0056963 0.0519673 0.376293 -0.0123356 0.050285 0.359402 -0.0191471 0.0488514 0.342019 
-0.0261774 0.0477572 0.324252 -0.0334562 0.0470782 0.306185 -0.0409904 0.0468673 0.287864 
-0.048759 0.0471488 0.269285 -0.0567104 0.0479155 0.25039 -0.064761 0.0491293 0.231078 
-0.0727966 0.0507246 0.211209 -0.0806754 0.0526154 0.190632 -0.088234 0.0547027 0.1692 
-0.0952944 0.0568851 0.146795 -0.101674 0.0590672 0.123346 -0.107194 0.0611683 0.0988454 
-0.111693 0.0631284 0.0733548 -0.115034 0.0649114 0.0470026 -0.117112 0.066506 0.0199753 
-0.117866 0.0679229 -0.00749959 -0.117278 0.0691901 -0.0351743 -0.115376 0.0703464 -0.0628046 
-0.112232 0.0714338 -0.0901714 -0.107956 0.0724907 -0.117099 -0.102686 0.073545 -0.143468 
-0.0965815 0.0746098 -0.169218 -0.08981 0.0756809 -0.194345 -0.0825348 0.0767364 -0.218891 
-0.074905 0.0777384 -0.242927 -0.0670466 0.0786369 -0.266537 -0.0590558 0.0793739 -0.289796 
-0.0509965 0.0798891 -0.312755 -0.0429004 0.080124 -0.335433 -0.0347709 0.0800265 -0.357806 
-0.0265899 0.0795537 -0.379815 -0.0183261 0.0786734 -0.401372 -0.00994535 0.0773651 -0.42237 
-0.00142011 0.0756189 -0.442705 0.00726139 0.0734348 -0.462287 0.0160886 0.0708216 -0.481051 
0.0250243 0.0677961 -0.498972 0.0340039 0.0643824 -0.51606 0.0429378 0.0606129 -0.532356 
0.051716 0.0565286 -0.547927 0.0602161 0.0521805 -0.562841 0.0683121 0.047631 -0.577161 
0.0758837 0.0429541 -0.590919 0.0828253 0.0382351 -0.604109 0.0890538 0.0335684 -0.616677 
0.0945136 0.0290546 -0.628526 0.09918 0.024795 -0.639516 0.103059 0.0208855 -0.649487 
0.106186 0.0174102 -0.658277 0.10862 0.0144342 -0.665743 0.110439 0.0119978 -0.671789 
0.111732 0.0101127 -0.676381 0.112593 0.00875978 -0.679559 0.113116 0.00789005 -0.681446 
0.113387 0.00742876 -0.682237 0.113485 0.00728173 -0.682187 0.113474 0.00734409 -0.681585 
0.113407 0.00751036 -0.680726 0.113323 0.00768472 -0.679883 0.11325 0.00779069 -0.679273 
0.113204 0.00777883 -0.679039 
LINES 2 100
OFFSETS vtktypeint64
0 100 
CONNECTIVITY vtktypeint64
0 1 2 3 4 5 6 7 8 
9 10 11 12 13 14 15 16 17 
18 19 20 21 22 23 24 25 26 
27 28 29 30 31 32 33 34 35 
36 37 38 39 40 41 42 43 44 
45 46 47 48 49 50 51 52 53 
54 55 56 57 58 59 60 61 62 
63 64 65 66 67 68 69 70 71 
72 73 74 75 76 77 78 79 80 
81 82 83 84 85 86 87 88 89 
90 91 92 93 94 95 96 97 98 
99 
POINT_DATA 100
FIELD FieldData 3
_theta 1 100 double
0 0.031733259127 0.063466518254 0.095199777382 0.12693303651 0.15866629564 0.19039955476 0.22213281389 0.25386607302 
0.28559933214 0.31733259127 0.3490658504 0.38079910953 0.41253236865 0.44426562778 0.47599888691 0.50773214603 0.53946540516 
0.57119866429 0.60293192342 0.63466518254 0.66639844167 0.6981317008 0.72986495992 0.76159821905 0.79333147818 0.82506473731 
0.85679799643 0.88853125556 0.92026451469 0.95199777382 0.98373103294 1.0154642921 1.0471975512 1.0789308103 1.1106640695 
1.1423973286 1.1741305877 1.2058638468 1.237597106 1.2693303651 1.3010636242 1.3327968833 1.3645301425 1.3962634016 
1.4279966607 1.4597299198 1.491463179 1.5231964381 1.5549296972 1.5866629564 1.6183962155 1.6501294746 1.6818627337 
1.7135959929 1.745329252 1.7770625111 1.8087957702 1.8405290294 1.8722622885 1.9039955476 1.9357288068 1.9674620659 
1.999195325 2.0309285841 2.0626618433 2.0943951024 2.1261283615 2.1578616206 2.1895948798 2.2213281389 2.253061398 
2.2847946572 2.3165279163 2.3482611754 2.3799944345 2.4117276937 2.4434609528 2.4751942119 2.506927471 2.5386607302 
2.5703939893 2.6021272484 2.6338605076 2.6655937667 2.6973270258 2.7290602849 2.7607935441 2.7925268032 2.8242600623 
2.8559933214 2.8877265806 2.9194598397 2.9511930988 2.982926358 3.0146596171 3.0463928762 3.0781261353 3.1098593945 
3.1415926536 
_radius 1 100 double
1.1391626734e-15 0.014041717698 0.028005040855 0.041806736649 0.055362671735 0.068588359986 0.081400471125 0.093719460839 0.10547328122 
0.11660186158 0.1270617795 0.13683036341 0.14590846322 0.15432131661 0.16211725808 0.16936432146 0.17614495907 0.18254914625 
0.1886661873 0.19457569833 0.20033851236 0.20598853863 0.21152680458 0.21691892388 0.22209697182 0.22696613906 0.23141562529 
0.23533226474 0.23861469608 0.24118575301 0.2430011758 0.24405352699 0.24437106771 0.24401210655 0.24305589935 0.24159158278 
0.23970688715 0.23747842909 0.23496512163 0.23220562265 0.22921988785 0.22601403755 0.22258714242 0.21893836506 0.2150732007 
0.21100820773 0.20677433063 0.20241936922 0.19801009558 0.19363396597 0.18939963973 0.1854350182 0.18188142416 0.17888282463 
0.17656981087 0.1750397389 0.1743368406 0.17443795244 0.17524903094 0.17661441694 0.17833658581 0.18020127833 0.18200253449 
0.18356358189 0.18475143297 0.18548455665 0.18573398476 0.1855189212 0.18489844521 0.18396102391 0.18281305918 0.181566931 
0.18032872953 0.17918640043 0.1781997784 0.17739403869 0.17675708355 0.17623997623 0.17575894838 0.17519817847 0.17441371177 
0.17323954146 0.17149658846 0.16900442325 0.16559468408 0.16112464464 0.15548925028 0.14863002546 0.14053954524 0.13126072626 
0.12088099518 0.10952224851 0.097328197956 0.084451028009 0.071039226768 0.057228050061 0.043133500514 0.028850130379 0.014452526713 
6.0936920892e-16 
_area 1 100 double
0 0.00051893679704 0.0020578136795 0.0045653627791 0.0079634896242 0.012155093098 0.017030507117 0.022471448606 0.028353396604 
0.034548326998 0.040929140263 0.047375635381 0.053780705621 0.060055576179 0.06613444374 0.071980140835 0.077591310231 0.08300870572 
0.088316550533 0.093635514579 0.099105764166 0.10486089799 0.11099644207 0.117539629 0.12442894914 0.13151034131 0.13855153851 
0.14527037091 0.15137091378 0.15658246193 0.16069602062 0.16359111404 0.16524631406 0.16573110479 0.16518188162 0.16376868771 
0.16166080893 0.15899873963 0.15587862788 0.15235362763 0.14845140972 0.14419840306 0.13963767588 0.13483266393 0.12985756586 
0.12478199396 0.11966011876 0.11453202835 0.10943837981 0.10444315667 0.099668591107 0.095426512375 0.091847412976 0.088745180483 
0.086086092865 0.08392226099 0.082345680167 0.08139885119 0.080975332751 0.080860481229 0.080840616092 0.080751013094 0.080478136723 
0.079951324213 0.079140416608 0.078058630197 0.076756280173 0.075286813624 0.073645443981 0.071759545258 0.069569980715 0.067091940967 
0.064423859393 0.061732385992 0.059231585011 0.057166450587 0.055844545067 0.055744445964 0.056654485088 0.058267144001 0.060223968555 
0.062141541727 0.06366067786 0.064461160675 0.064270330795 0.062879184599 0.060168034639 0.056133210514 0.050901244286 0.044721618825 
0.037937869006 0.030943376944 0.024131258306 0.017848136282 0.012360097304 0.0078362976948 0.0043521483838 0.0019102244877 0.00047324484401 
5.5619994959e-17 
