# vtk DataFile Version 5.1
vtk output
ASCII
DATASET POLYDATA
POINTS 100 float
0.157014 0.0388726 0.68395 0.156813 0.0390004 0.68354 0.156267 0.0392192 0.682286 
0.155385 0.0395451 0.680233 0.154177 0.0400021 0.67745 0.152658 0.0406177 0.674018 
0.150842 0.0414165 0.670021 0.148737 0.0424139 0.665535 0.14635 0.0436113 0.660618 
0.143678 0.0449917 0.655303 0.140713 0.0465187 0.649594 0.13744 0.0481366 0.64347 
0.133841 0.0497747 0.63689 0.129896 0.0513515 0.629798 0.125585 0.0527822 0.62214 
0.120892 0.0539855 0.613871 0.115808 0.0548905 0.604965 0.110333 0.0554424 0.595426 
0.104475 0.0556069 0.585287 0.0982509 0.0553716 0.574611 0.0916872 0.0547458 0.563485 
0.0848166 0.0537584 0.552015 0.0776768 0.0524543 0.540307 0.0703089 0.0508895 0.528462 
0.0627556 0.0491267 0.516561 0.0550597 0.0472315 0.504656 0.0472635 0.0452684 0.492768 
0.0394078 0.0433 0.480882 0.0315319 0.0413854 0.468952 0.0236725 0.0395809 0.456912 
0.015863 0.037941 0.44468 0.00813206 0.0365189 0.432174 0.000501189 0.0353666 0.419322 
-0.00701753 0.0345344 0.40607 -0.0144241 0.0340689 0.392388 -0.0217328 0.0340095 0.378271 
-0.0289735 0.0343844 0.363739 -0.0361911 0.0352063 0.348823 -0.0434434 0.0364682 0.333563 
-0.0507958 0.038141 0.317991 -0.0583149 0.0401722 0.302121 -0.0660582 0.0424877 0.285943 
-0.0740651 0.0449963 0.269416 -0.0823448 0.0475958 0.252466 -0.0908682 0.0501824 0.234993 
-0.0995599 0.0526599 0.216881 -0.108295 0.0549494 0.198005 -0.116903 0.056998 0.178252 
-0.125168 0.0587841 0.157533 -0.132848 0.0603202 0.135796 -0.139688 0.0616515 0.113036 
-0.145437 0.0628502 0.0892997 -0.149873 0.0640065 0.0646834 -0.152822 0.0652175 0.0393281 
-0.15417 0.0665735 0.013407 -0.153882 0.0681458 -0.0128885 -0.152003 0.0699757 -0.0393659 
-0.148654 0.0720669 -0.0658464 -0.144024 0.0743822 -0.0921792 -0.138351 0.0768444 -0.118251 
-0.131901 0.079343 -0.143988 -0.124938 0.0817441 -0.16936 -0.117699 0.0839035 -0.194368 
-0.110373 0.0856809 -0.219038 -0.10308 0.0869539 -0.243408 -0.0958587 0.0876299 -0.267511 
-0.0886689 0.0876542 -0.291367 -0.0813962 0.0870133 -0.314971 -0.073869 0.0857341 -0.338288 
-0.065882 0.0838776 -0.361253 -0.057223 0.0815292 -0.383773 -0.047702 0.0787864 -0.405739 
-0.0371776 0.0757458 -0.427031 -0.0255778 0.0724913 -0.447536 -0.0129141 0.0690844 -0.467155 
0.00071467 0.0655593 -0.485812 0.0151281 0.0619215 -0.503464 0.0300786 0.0581519 -0.520098 
0.0452737 0.0542146 -0.535729 0.0604028 0.0500677 -0.550397 0.0751656 0.0456752 -0.564154 
0.0892984 0.0410186 -0.577056 0.102596 0.0361063 -0.589155 0.114924 0.0309796 -0.600484 
0.126228 0.0257134 -0.611061 0.136525 0.0204131 -0.620882 0.145894 0.0152059 -0.629923 
0.154455 0.0102294 -0.638152 0.162345 0.00561776 -0.645531 0.169698 0.0014878 -0.652028 
0.176618 -0.00207327 -0.657627 0.183165 -0.00501674 -0.662335 0.189344 -0.00733672 -0.666183 
0.195103 -0.00906919 -0.66923 0.200342 -0.0102859 -0.671558 0.204923 -0.0110837 -0.673263 
0.208693 -0.0115711 -0.674448 0.211503 -0.0118528 -0.675208 0.213229 -0.0120157 -0.675621 
0.213789 -0.0121169 -0.675737 
LINES 2 100
OFFSETS vtktypeint64
0 100 
CONNECTIVITY vtktypeint64
0 1 2 3 4 5 6 7 8 
9 10 11 12 13 14 15 16 17 
18 19 20 21 22 23 24 25 26 
27 28 29 30 31 32 33 34 35 
36 37 38 39 40 41 42 43 44 
45 46 47 48 49 50 51 52 53 
54 55 56 57 58 59 60 61 62 
63 64 65 66 67 68 69 70 71 
72 73 74 75 76 77 78 79 80 
81 82 83 84 85 86 87 88 89 
90 91 92 93 94 95 96 97 98 
99 
POINT_DATA 100
FIELD FieldData 3
_theta 1 100 double
0 0.031733259127 0.063466518254 0.095199777382 0.12693303651 0.15866629564 0.19039955476 0.22213281389 0.25386607302 
0.28559933214 0.31733259127 0.3490658504 0.38079910953 0.41253236865 0.44426562778 0.47599888691 0.50773214603 0.53946540516 
0.57119866429 0.60293192342 0.63466518254 0.66639844167 0.6981317008 0.72986495992 0.76159821905 0.79333147818 0.82506473731 
0.85679799643 0.88853125556 0.92026451469 0.95199777382 0.98373103294 1.0154642921 1.0471975512 1.0789308103 1.1106640695 
1.1423973286 1.1741305877 1.2058638468 1.237597106 1.2693303651 1.3010636242 1.3327968833 1.3645301425 1.3962634016 
1.4279966607 1.4597299198 1.491463179 1.5231964381 1.5549296972 1.5866629564 1.6183962155 1.6501294746 1.6818627337 
1.7135959929 1.745329252 1.7770625111 1.8087957702 1.8405290294 1.8722622885 1.9039955476 1.9357288068 1.9674620659 
1.999195325 2.0309285841 2.0626618433 2.0943951024 2.1261283615 2.1578616206 2.1895948798 2.2213281389 2.253061398 
2.2847946572 2.3165279163 2.3482611754 2.3799944345 2.4117276937 2.4434609528 2.4751942119 2.506927471 2.5386607302 
2.5703939893 2.6021272484 2.6338605076 2.6655937667 2.6973270258 2.7290602849 2.7607935441 2.7925268032 2.8242600623 
2.8559933214 2.8877265806 2.9194598397 2.9511930988 2.982926358 3.0146596171 3.0463928762 3.0781261353 3.1098593945 
3.1415926536 
_radius 1 100 double
9.6118083331e-16 0.014926599077 0.02973363632 0.044308189619 0.05854976605 0.07237388449 0.085713375932 0.098517627892 0.11075048158 
0.12238779831 0.13341575734 0.14383065267 0.1536402897 0.16286616947 0.17154485141 0.17972667776 0.18747068475 0.1948358382 
0.20187017971 0.20860046206 0.21502502326 0.22111197995 0.22680357991 0.2320261383 0.23670375933 0.24077326777 0.244197558 
0.24697490005 0.24914250844 0.25077370368 0.25196908181 0.25284306283 0.25350785115 0.25405710858 0.25455150762 0.2550079157 
0.2553934443 0.25562513157 0.25557563242 0.25508485801 0.25397692554 0.25208105915 0.24925437246 0.24540394592 0.2405054066 
0.23461535981 0.22787550059 0.22050702453 0.21279502369 0.20506383921 0.19764579234 0.19084727373 0.18491757252 0.18002623532 
0.17625302684 0.17359073613 0.17195725191 0.17121201328 0.17117337295 0.17163568093 0.17238626148 0.17322261512 0.17396963362 
0.17449571241 0.17472559722 0.17464725844 0.17431073183 0.17381841062 0.1733078214 0.17292915428 0.17282090062 0.17308767335 
0.17378413229 0.17490761285 0.17639979721 0.17815538859 0.1800343285 0.18187427743 0.1835015151 0.18473997913 0.18541890056 
0.18537936362 0.1844797308 0.18259971584 0.17964295539 0.17553800616 0.17023769345 0.16371677419 0.1559681164 0.14699807028 
0.13682224386 0.12546318592 0.1129512439 0.099329041254 0.08465883671 0.06903091454 0.052570535374 0.035441082087 0.017841829534 
7.4158338382e-16 
_area 1 100 double
0 0.00055221024467 0.0021899131957 0.0048602963384 0.0084866311521 0.012979648128 0.018245942842 0.024191636053 0.030722309741 
0.03774144465 0.045149207911 0.052842666488 0.060718168205 0.068676403346 0.076629650765 0.084508984471 0.092268173777 0.099881886409 
0.10733826248 0.11462848289 0.1217373002 0.12863811791 0.13529417949 0.14166456655 0.14771200867 0.15341078242 0.15875448121 
0.1637574072 0.16843575781 0.17277491652 0.1767174232 0.18018633391 0.1831058967 0.1854065531 0.18702631866 0.18790711822 
0.18798915601 0.18720895351 0.18557448641 0.18312980765 0.17968733244 0.17527206844 0.17046664172 0.16495579729 0.15824434132 
0.15044690437 0.1418569267 0.13286209743 0.123883216 0.11530899461 0.10743683928 0.10044273895 0.09439745015 0.089309778988 
0.085150319309 0.081824302452 0.079157005022 0.076946602985 0.074999059165 0.073141475011 0.071244533009 0.069260247557 0.067258892426 
0.065448417764 0.064100251703 0.063221667922 0.062602115794 0.062139554602 0.061811378128 0.061619912322 0.061571682244 0.061673029524 
0.061932209723 0.062361549293 0.062975699743 0.063784114036 0.064780377939 0.065927759172 0.067146069249 0.06831056521 0.069262291832 
0.069825989986 0.06983107758 0.069131294819 0.067618251531 0.065227264378 0.061938260372 0.057775582683 0.052808602753 0.047152765944 
0.04096943533 0.034462682336 0.027871693058 0.021458395006 0.015491022348 0.01022551884 0.0058877104941 0.0026594931645 0.0006712145584 
3.9956178548e-17 
