# vtk DataFile Version 5.1
vtk output
ASCII
DATASET POLYDATA
POINTS 100 float
0.134984 0.0725578 0.719159 0.135043 0.0726942 0.719073 0.135302 0.0729192 0.718608 
0.135699 0.0732117 0.717732 0.13614 0.0735391 0.716395 0.136513 0.0738607 0.714534 
0.136696 0.0741315 0.712082 0.136578 0.0743071 0.708971 0.136068 0.0743473 0.705145 
0.135106 0.0742206 0.700558 0.133672 0.0739065 0.695185 0.13178 0.0733974 0.68902 
0.129483 0.0726992 0.682079 0.126855 0.07183 0.674394 0.123985 0.0708183 0.666012 
0.120962 0.0696999 0.656989 0.117862 0.0685141 0.647381 0.114734 0.0673004 0.637247 
0.111597 0.066095 0.626634 0.108435 0.0649272 0.615583 0.1052 0.0638182 0.604121 
0.101814 0.0627795 0.592268 0.0981855 0.0618128 0.580034 0.0942158 0.0609111 0.567422 
0.0898153 0.0600605 0.554438 0.0849132 0.059242 0.541089 0.0794662 0.0584347 0.527387 
0.0734632 0.0576177 0.513353 0.0669256 0.0567728 0.499017 0.0599032 0.0558864 0.484414 
0.0524664 0.0549501 0.469582 0.0446963 0.0539622 0.454561 0.0366734 0.0529271 0.439382 
0.0284674 0.0518552 0.424067 0.0201295 0.0507619 0.40862 0.0116874 0.0496669 0.393027 
0.00314571 0.0485928 0.377254 -0.0055107 0.0475645 0.361246 -0.0143087 0.0466083 0.344933 
-0.0232766 0.0457509 0.32823 -0.0324327 0.0450194 0.311051 -0.0417738 0.0444407 0.293308 
-0.0512666 0.0440406 0.274926 -0.0608418 0.0438441 0.255846 -0.0703929 0.0438736 0.236032 
-0.0797798 0.0441489 0.215473 -0.0888367 0.0446851 0.194188 -0.097384 0.0454922 0.172223 
-0.105242 0.0465731 0.149648 -0.112246 0.0479225 0.126551 -0.11826 0.0495264 0.103034 
-0.123188 0.0513611 0.0792038 -0.126982 0.0533939 0.0551664 -0.129642 0.0555835 0.0310205 
-0.13122 0.057882 0.00685324 -0.131809 0.0602364 -0.0172634 -0.131534 0.0625919 -0.0412732 
-0.130541 0.0648944 -0.0651349 -0.128981 0.0670935 -0.0888201 -0.127002 0.0691452 -0.11231 
-0.124735 0.0710141 -0.13559 -0.122286 0.0726748 -0.158649 -0.119732 0.0741123 -0.181472 
-0.117122 0.075322 -0.204041 -0.114476 0.076308 -0.226334 -0.111793 0.0770811 -0.248322 
-0.109056 0.0776562 -0.269972 -0.106236 0.0780492 -0.291253 -0.103304 0.078274 -0.312134 
-0.100232 0.0783394 -0.332588 -0.0969988 0.0782475 -0.352597 -0.093592 0.0779918 -0.37215 
-0.0900068 0.0775573 -0.391246 -0.0862463 0.0769205 -0.409891 -0.0823199 0.0760516 -0.4281 
-0.0782411 0.0749164 -0.445886 -0.0740268 0.0734796 -0.463264 -0.0696968 0.0717083 -0.480242 
-0.0652745 0.069575 -0.496817 -0.0607879 0.0670611 -0.512973 -0.0562718 0.0641595 -0.52868 
-0.0517694 0.0608764 -0.543891 -0.0473335 0.0572322 -0.558546 -0.0430258 0.053262 -0.572572 
-0.0389159 0.0490141 -0.585888 -0.0350774 0.0445488 -0.598414 -0.0315829 0.0399358 -0.610072 
-0.0284983 0.0352517 -0.620794 -0.025876 0.0305765 -0.630528 -0.0237492 0.0259915 -0.63924 
-0.0221267 0.0215756 -0.646919 -0.0209907 0.0174038 -0.653575 -0.0202964 0.0135449 -0.659237 
-0.0199752 0.0100605 -0.663955 -0.0199401 0.00700394 -0.667788 -0.0200936 0.00442055 -0.670802 
-0.0203375 0.00234725 -0.673063 -0.0205823 0.00081303 -0.674631 -0.0207565 -0.000160734 -0.675551 
-0.0208143 -0.000559983 -0.675852 
LINES 2 100
OFFSETS vtktypeint64
0 100 
CONNECTIVITY vtktypeint64
0 1 2 3 4 5 6 7 8 
9 10 11 12 13 14 15 16 17 
18 19 20 21 22 23 24 25 26 
27 28 29 30 31 32 33 34 35 
36 37 38 39 40 41 42 43 44 
45 46 47 48 49 50 51 52 53 
54 55 56 57 58 59 60 61 62 
63 64 65 66 67 68 69 70 71 
72 73 74 75 76 77 78 79 80 
81 82 83 84 85 86 87 88 89 
90 91 92 93 94 95 96 97 98 
99 
POINT_DATA 100
FIELD FieldData 3
_theta 1 100 double
0 0.031733259127 0.063466518254 0.095199777382 0.12693303651 0.15866629564 0.19039955476 0.22213281389 0.25386607302 
0.28559933214 0.31733259127 0.3490658504 0.38079910953 0.41253236865 0.44426562778 0.47599888691 0.50773214603 0.53946540516 
0.57119866429 0.60293192342 0.63466518254 0.66639844167 0.6981317008 0.72986495992 0.76159821905 0.79333147818 0.82506473731 
0.85679799643 0.88853125556 0.92026451469 0.95199777382 0.98373103294 1.0154642921 1.0471975512 1.0789308103 1.1106640695 
1.1423973286 1.1741305877 1.2058638468 1.237597106 1.2693303651 1.3010636242 1.3327968833 1.3645301425 1.3962634016 
1.4279966607 1.4597299198 1.491463179 1.5231964381 1.5549296972 1.5866629564 1.6183962155 1.6501294746 1.6818627337 
1.7135959929 1.745329252 1.7770625111 1.8087957702 1.8405290294 1.8722622885 1.9039955476 1.9357288068 1.9674620659 
1.999195325 2.0309285841 2.0626618433 2.0943951024 2.1261283615 2.1578616206 2.1895948798 2.2213281389 2.253061398 
2.2847946572 2.3165279163 2.3482611754 2.3799944345 2.4117276937 2.4434609528 2.4751942119 2.506927471 2.5386607302 
2.5703939893 2.6021272484 2.6338605076 2.6655937667 2.6973270258 2.7290602849 2.7607935441 2.7925268032 2.8242600623 
2.8559933214 2.8877265806 2.9194598397 2.9511930988 2.982926358 3.0146596171 3.0463928762 3.0781261353 3.1098593945 
3.1415926536 
_radius 1 100 double
1.6653345369e-16 0.013191557537 0.02632979758 0.039353588473 0.052201220856 0.064810222605 0.077117349271 0.089059207949 0.100573849 
0.1116032507 0.12209614188 0.13201034194 0.14131389783 0.14998470341 0.15800880438 0.1653780189 0.17208771354 0.17813552743 
0.18352156376 0.18825013911 0.1923327033 0.19579114353 0.19866049425 0.20099016075 0.20284310585 0.20429292442 0.20541916712 
0.20630153051 0.20701355966 0.20761638654 0.20815291196 0.20864286987 0.2090794047 0.20942799731 0.20962856503 0.2096011965 
0.20925531393 0.20850130242 0.20726305338 0.20548960373 0.20316416748 0.20030930956 0.19698767199 0.19329833969 0.18936945318 
0.18534798212 0.18138774581 0.17763691145 0.17422631353 0.17125991119 0.1688084466 0.16690687784 0.16555549718 0.16472397598 
0.16435715588 0.16438144601 0.16471119056 0.16525503623 0.16592266048 0.16663191421 0.16731569574 0.16792726392 0.16844264668 
0.16885934241 0.16919137899 0.16946166254 0.1696931584 0.16990064665 0.17008454457 0.17022770628 0.17029544484 0.17023848857 
0.16999820287 0.16951308552 0.16872530668 0.16758611892 0.16605941721 0.16412334892 0.16177026151 0.15900526112 0.15584343565 
0.15230569246 0.1484133256 0.14418178248 0.13961445821 0.13469753481 0.12939681622 0.12365723226 0.11740533867 0.11055483771 
0.10301486597 0.094700459866 0.085544205381 0.075507709597 0.064591345192 0.052840819732 0.040349518246 0.027256162041 0.013737963592 
8.7302369947e-16 
_area 1 100 double
0 0.00043982865669 0.0017522710112 0.0039165815219 0.006899251502 0.010654864919 0.015126060726 0.020242224087 0.025917529482 
0.032049987002 0.038523481547 0.04521395228 0.05199899067 0.058768134205 0.06543013653 0.071914216003 0.078164656523 0.084131247838 
0.089760395839 0.094991919912 0.09976424178 0.10402694951 0.10775649208 0.11096937531 0.11372761149 0.11613244017 0.11830450544 
0.1203537155 0.1223503562 0.12431233468 0.12621281596 0.12799894672 0.1296117113 0.1310073596 0.13224572282 0.13342877989 
0.13412574117 0.13406925922 0.13307035332 0.13101494015 0.12788554798 0.12392984474 0.11927764143 0.11419305792 0.10899715007 
0.10394127962 0.099195697172 0.094843883381 0.09089982726 0.087342666419 0.084151323622 0.081328101299 0.078910363199 0.076999233587 
0.075751069528 0.075017759121 0.074634227476 0.074434933529 0.074239446626 0.073892346623 0.07329422459 0.072419403965 0.071323517418 
0.070123332921 0.068940634094 0.067833085131 0.066781191491 0.065749295751 0.06473292629 0.063761314201 0.062887297998 0.062171903867 
0.06164919235 0.061298538968 0.061066902524 0.060886367403 0.060664128675 0.060292982924 0.059687189286 0.058806238365 0.057652337694 
0.056249644942 0.054618441872 0.052757725984 0.050642339812 0.048230805675 0.045476515632 0.042338305501 0.038791114004 0.034838200018 
0.030522893955 0.025935190703 0.021210489596 0.016521528777 0.012066015924 0.008051751571 0.0046802202736 0.0021297563366 0.00054005732565 
1.7974039141e-18 
