# vtk DataFile Version 5.1
vtk output
ASCII
DATASET POLYDATA
POINTS 100 float
0.115013 0.0529379 0.703051 0.114993 0.0529738 0.702665 0.11494 0.0529635 0.701369 
0.114826 0.0529339 0.699231 0.114609 0.0529243 0.696354 0.11424 0.0529788 0.692865 
0.113667 0.0531374 0.688896 0.112845 0.0534269 0.684569 0.111746 0.0538536 0.679981 
0.110359 0.054399 0.675194 0.108695 0.0550191 0.670225 0.106786 0.0556474 0.665049 
0.104678 0.0562025 0.659604 0.102431 0.0565974 0.653799 0.100102 0.0567512 0.647532 
0.0977393 0.0566001 0.640704 0.0953736 0.0561068 0.633235 0.093009 0.055267 0.625071 
0.0906191 0.0541114 0.616202 0.0881457 0.0527028 0.606652 0.0855019 0.0511297 0.596489 
0.0825794 0.0494954 0.585804 0.0792586 0.0479049 0.574708 0.0754213 0.0464523 0.56331 
0.0709641 0.0452084 0.55171 0.0658108 0.0442116 0.539979 0.0599232 0.0434637 0.528152 
0.0533073 0.0429298 0.516228 0.0460158 0.0425439 0.504164 0.0381441 0.0422185 0.491888 
0.0298234 0.041858 0.479305 0.0212072 0.0413726 0.466313 0.012457 0.0406928 0.452814 
0.00372505 0.0397807 0.438729 -0.00486125 0.038638 0.424008 -0.0132128 0.0373087 0.408634 
-0.0212882 0.0358767 0.392619 -0.029097 0.0344581 0.376007 -0.0366981 0.0331892 0.358857 
-0.0441903 0.0322128 0.341235 -0.0516989 0.0316622 0.323197 -0.0593576 0.0316478 0.304781 
-0.0672879 0.0322455 0.285994 -0.0755793 0.0334896 0.26681 -0.084271 0.0353706 0.247167 
-0.0933383 0.0378378 0.226975 -0.102685 0.0408067 0.206124 -0.112144 0.0441689 0.184504 
-0.121483 0.0478044 0.162015 -0.130418 0.0515941 0.138584 -0.138634 0.0554301 0.114181 
-0.145811 0.0592237 0.0888275 -0.151645 0.0629095 0.0625977 -0.155875 0.0664461 0.0356199 
-0.158303 0.0698122 0.00806738 -0.15881 0.0730011 -0.0198542 -0.157367 0.0760129 -0.0479227 
-0.154031 0.0788468 -0.0759167 -0.148942 0.0814949 -0.103633 -0.142309 0.0839379 -0.1309 
-0.134387 0.0861438 -0.157589 -0.125458 0.08807 -0.183621 -0.115806 0.0896682 -0.208963 
-0.105694 0.0908906 -0.233626 -0.0953444 0.0916975 -0.257657 -0.0849273 0.0920641 -0.281123 
-0.0745524 0.0919852 -0.304102 -0.0642695 0.0914772 -0.32667 -0.0540747 0.0905771 -0.34889 
-0.0439227 0.0893381 -0.370804 -0.033743 0.0878217 -0.39243 -0.0234571 0.0860894 -0.413764 
-0.0129969 0.0841929 -0.434776 -0.00231957 0.0821664 -0.455423 0.00858121 0.0800208 -0.475647 
0.0196686 0.0777417 -0.495386 0.0308623 0.0752917 -0.514576 0.0420432 0.0726169 -0.533155 
0.0530631 0.0696566 -0.551063 0.0637575 0.066355 -0.56824 0.0739603 0.0626742 -0.584627 
0.0835187 0.0586051 -0.600162 0.0923058 0.0541757 -0.614776 0.100231 0.049455 -0.628398 
0.107245 0.0445516 -0.640951 0.113342 0.0396065 -0.65236 0.118556 0.0347821 -0.662556 
0.122954 0.0302462 -0.671486 0.126626 0.0261556 -0.679119 0.129675 0.0226395 -0.685457 
0.132204 0.0197851 -0.690537 0.134309 0.0176285 -0.694437 0.13607 0.0161507 -0.697275 
0.137547 0.0152804 -0.6992 0.138777 0.0149032 -0.700387 0.139781 0.0148754 -0.701021 
0.140564 0.0150427 -0.701283 0.14112 0.0152587 -0.701336 0.141442 0.0154039 -0.701307 
0.141522 0.0154005 -0.701278 
LINES 2 100
OFFSETS vtktypeint64
0 100 
CONNECTIVITY vtktypeint64
0 1 2 3 4 5 6 7 8 
9 10 11 12 13 14 15 16 17 
18 19 20 21 22 23 24 25 26 
27 28 29 30 31 32 33 34 35 
36 37 38 39 40 41 42 43 44 
45 46 47 48 49 50 51 52 53 
54 55 56 57 58 59 60 61 62 
63 64 65 66 67 68 69 70 71 
72 73 74 75 76 77 78 79 80 
81 82 83 84 85 86 87 88 89 
90 91 92 93 94 95 96 97 98 
99 
POINT_DATA 100
FIELD FieldData 3
_theta 1 100 double
0 0.031733259127 0.063466518254 0.095199777382 0.12693303651 0.15866629564 0.19039955476 0.22213281389 0.25386607302 
0.28559933214 0.31733259127 0.3490658504 0.38079910953 0.41253236865 0.44426562778 0.47599888691 0.50773214603 0.53946540516 
0.57119866429 0.60293192342 0.63466518254 0.66639844167 0.6981317008 0.72986495992 0.76159821905 0.79333147818 0.82506473731 
0.85679799643 0.88853125556 0.92026451469 0.95199777382 0.98373103294 1.0154642921 1.0471975512 1.0789308103 1.1106640695 
1.1423973286 1.1741305877 1.2058638468 1.237597106 1.2693303651 1.3010636242 1.3327968833 1.3645301425 1.3962634016 
1.4279966607 1.4597299198 1.491463179 1.5231964381 1.5549296972 1.5866629564 1.6183962155 1.6501294746 1.6818627337 
1.7135959929 1.745329252 1.7770625111 1.8087957702 1.8405290294 1.8722622885 1.9039955476 1.9357288068 1.9674620659 
1.999195325 2.0309285841 2.0626618433 2.0943951024 2.1261283615 2.1578616206 2.1895948798 2.2213281389 2.253061398 
2.2847946572 2.3165279163 2.3482611754 2.3799944345 2.4117276937 2.4434609528 2.4751942119 2.506927471 2.5386607302 
2.5703939893 2.6021272484 2.6338605076 2.6655937667 2.6973270258 2.7290602849 2.7607935441 2.7925268032 2.8242600623 
2.8559933214 2.8877265806 2.9194598397 2.9511930988 2.982926358 3.0146596171 3.0463928762 3.0781261353 3.1098593945 
3.1415926536 
_radius 1 100 double
5.0515910131e-17 0.015203372205 0.030504958364 0.045977374074 0.061659479392 0.077545272636 0.093578766563 0.10965583092 0.1256330071 
0.14134220092 0.15660914308 0.17127278754 0.18520258096 0.19831087776 0.21055865169 0.22195388336 0.23254330113 0.24239921971 
0.25160383203 0.26023339825 0.26834445218 0.27596363131 0.28308222792 0.28965611764 0.29561125902 0.30085434025 0.30528735025 
0.30882402215 0.31140551467 0.31301261056 0.31367221407 0.31345691763 0.31247764103 0.31087054204 0.30878031014 0.30634242178 
0.30366690736 0.30082572808 0.29784517035 0.29470396909 0.29133734955 0.28764685088 0.2835155051 0.27882747078 0.27349047001 
0.26745848817 0.26075146807 0.25346845281 0.24579096419 0.2379743784 0.23032667023 0.22317616572 0.21683284234 0.21155072161 
0.20750036395 0.20475805226 0.20331158003 0.20307549932 0.20390640988 0.20561254605 0.20795831682 0.21066962715 0.21344702347 
0.21598991386 0.21802844939 0.21935491182 0.21984655218 0.21947529589 0.21830353121 0.21646781988 0.21415392605 0.21156753147 
0.20890549156 0.20633217037 0.2039639787 0.20186297182 0.20003808509 0.19845116318 0.19702468058 0.19564877921 0.19418671223 
0.19247958447 0.19035237888 0.18762255925 0.18411062515 0.17965081214 0.17410044424 0.16734731802 0.15931501113 0.14996608872 
0.13930313172 0.12736753802 0.11423618427 0.10001624393 0.084838689235 0.068851216362 0.052211471523 0.035081453182 0.017623766585 
7.7307362434e-16 
_area 1 100 double
0 0.00061701770995 0.0024729914698 0.0055799237572 0.009948876632 0.015577628895 0.022436065245 0.030452686703 0.039506336193 
0.049426497553 0.060003596031 0.071008566554 0.082218959222 0.093446444908 0.10455749364 0.11547787342 0.12617824933 0.13665169169 
0.14689836322 0.15691994316 0.16671512243 0.17627089305 0.1855522194 0.19449505686 0.20300565035 0.21096641176 0.21824668476 
0.22471571785 0.23025601077 0.23477673971 0.23822610896 0.24059889612 0.24193541273 0.24231118462 0.24181985826 0.24055354301 
0.23858525154 0.23595763044 0.23268088643 0.22874032437 0.22410846493 0.21874823227 0.21259627149 0.20555770479 0.19756065649 
0.18862902024 0.17891393103 0.16868527417 0.1582998297 0.14815627297 0.13864464196 0.13009600884 0.12273338584 0.11663539852 
0.11192166055 0.10963150978 0.10837732988 0.10762325009 0.10726422787 0.10734197549 0.10795394775 0.10914776685 0.11083851028 
0.11271867958 0.11422862415 0.11474533878 0.11380497983 0.11119563988 0.1069695823 0.10141466419 0.095000705296 0.088309586183 
0.081927874128 0.076302371651 0.071709716635 0.068293836214 0.066088310457 0.065065819311 0.065219848572 0.066706907625 0.068381343951 
0.069778841867 0.070667989175 0.070865426092 0.070218299999 0.068601583284 0.065923061977 0.062135742174 0.057256569808 0.051385565397 
0.044716282496 0.037530335811 0.030174159729 0.023021987291 0.016433311223 0.010714946213 0.0060968369958 0.0027268686222 0.0006837157979 
2.9063392833e-17 
