# vtk DataFile Version 5.1
vtk output
ASCII
DATASET POLYDATA
POINTS 100 float
0.158089 0.0406871 0.699936 0.158032 0.0410382 0.699632 0.157987 0.0419399 0.698643 
0.157893 0.0433276 0.696989 0.157662 0.0451002 0.694702 0.157189 0.0471313 0.691816 
0.156372 0.0492822 0.688368 0.155125 0.0514164 0.684382 0.153397 0.0534126 0.679873 
0.151178 0.0551769 0.674837 0.148501 0.0566498 0.669254 0.145439 0.0578107 0.663091 
0.142091 0.0586764 0.656305 0.138569 0.0592959 0.648854 0.134976 0.0597416 0.640701 
0.131388 0.0600978 0.631826 0.127839 0.0604486 0.622232 0.124312 0.060866 0.611947 
0.120735 0.0614004 0.601027 0.116988 0.0620737 0.589556 0.112917 0.062877 0.577633 
0.108355 0.0637715 0.565371 0.103144 0.0646943 0.552882 0.0971598 0.0655662 0.54027 
0.0903334 0.0663023 0.527617 0.0826648 0.0668228 0.514978 0.0742303 0.0670635 0.502379 
0.0651782 0.0669839 0.489812 0.0557167 0.0665727 0.47724 0.0460922 0.0658497 0.464602 
0.0365624 0.0648637 0.451824 0.0273675 0.0636876 0.438823 0.0187021 0.0624106 0.425525 
0.0106928 0.0611283 0.41186 0.0033839 0.0599325 0.397781 -0.00326667 0.0589024 0.383254 
-0.00938036 0.0580964 0.368266 -0.0151408 0.0575475 0.352816 -0.0207684 0.0572608 0.33691 
-0.0264895 0.0572153 0.320557 -0.0325048 0.0573677 0.30376 -0.0389604 0.0576586 0.286511 
-0.045925 0.0580212 0.268789 -0.0533769 0.0583889 0.250563 -0.0612014 0.0587038 0.23179 
-0.0692008 0.0589232 0.212424 -0.0771126 0.0590242 0.192421 -0.0846374 0.0590058 0.171751 
-0.0914697 0.0588885 0.150401 -0.0973298 0.058712 0.128382 -0.101993 0.0585302 0.105731 
-0.105309 0.058405 0.0825103 -0.107217 0.0584002 0.0588061 -0.107746 0.0585744 0.0347176 
-0.107007 0.0589753 0.0103509 -0.105176 0.0596347 -0.0141907 -0.102469 0.0605656 -0.0388158 
-0.0991179 0.0617599 -0.063451 -0.0953409 0.0631891 -0.0880444 -0.0913221 0.0648053 -0.112566 
-0.0871942 0.0665439 -0.137003 -0.0830296 0.0683276 -0.161354 -0.0788409 0.0700695 -0.18562 
-0.0745884 0.0716786 -0.209793 -0.0701947 0.0730632 -0.233849 -0.0655629 0.0741358 -0.257741 
-0.060596 0.0748166 -0.281396 -0.0552147 0.0750372 -0.304715 -0.0493712 0.0747433 -0.327581 
-0.0430578 0.0738979 -0.349865 -0.0363082 0.0724826 -0.371442 -0.0291938 0.0704992 -0.392201 
-0.0218138 0.0679699 -0.412058 -0.0142828 0.0649371 -0.430967 -0.00671719 0.0614616 -0.448923 
0.00077785 0.0576205 -0.465964 0.00811774 0.0535035 -0.482165 0.0152438 0.0492085 -0.497629 
0.0221238 0.0448373 -0.512468 0.0287473 0.0404899 -0.526792 0.0351181 0.0362597 -0.540688 
0.0412441 0.0322289 -0.554207 0.047127 0.0284647 -0.567354 0.0527543 0.0250168 -0.580083 
0.0580936 0.021916 -0.592298 0.0630926 0.019175 -0.603865 0.0676822 0.0167892 -0.614625 
0.0717853 0.0147401 -0.624413 0.0753271 0.0129987 -0.633079 0.0782476 0.0115295 -0.64051 
0.0805133 0.0102945 -0.646641 0.0821254 0.00925703 -0.651473 0.0831252 0.00838433 -0.655073 
0.0835924 0.00764965 -0.657569 0.08364 0.00703303 -0.659138 0.0834027 0.00652118 -0.659992 
0.0830227 0.00610656 -0.66035 0.0826335 0.00578597 -0.660415 0.0823439 0.00555894 -0.660354 
0.0822255 0.00542631 -0.660277 
LINES 2 100
OFFSETS vtktypeint64
0 100 
CONNECTIVITY vtktypeint64
0 1 2 3 4 5 6 7 8 
9 10 11 12 13 14 15 16 17 
18 19 20 21 22 23 24 25 26 
27 28 29 30 31 32 33 34 35 
36 37 38 39 40 41 42 43 44 
45 46 47 48 49 50 51 52 53 
54 55 56 57 58 59 60 61 62 
63 64 65 66 67 68 69 70 71 
72 73 74 75 76 77 78 79 80 
81 82 83 84 85 86 87 88 89 
90 91 92 93 94 95 96 97 98 
99 
POINT_DATA 100
FIELD FieldData 3
_theta 1 100 double
0 0.031733259127 0.063466518254 0.095199777382 0.12693303651 0.15866629564 0.19039955476 0.22213281389 0.25386607302 
0.28559933214 0.31733259127 0.3490658504 0.38079910953 0.41253236865 0.44426562778 0.47599888691 0.50773214603 0.53946540516 
0.57119866429 0.60293192342 0.63466518254 0.66639844167 0.6981317008 0.72986495992 0.76159821905 0.79333147818 0.82506473731 
0.85679799643 0.88853125556 0.92026451469 0.95199777382 0.98373103294 1.0154642921 1.0471975512 1.0789308103 1.1106640695 
1.1423973286 1.1741305877 1.2058638468 1.237597106 1.2693303651 1.3010636242 1.3327968833 1.3645301425 1.3962634016 
1.4279966607 1.4597299198 1.491463179 1.5231964381 1.5549296972 1.5866629564 1.6183962155 1.6501294746 1.6818627337 
1.7135959929 1.745329252 1.7770625111 1.8087957702 1.8405290294 1.8722622885 1.9039955476 1.9357288068 1.9674620659 
1.999195325 2.0309285841 2.0626618433 2.0943951024 2.1261283615 2.1578616206 2.1895948798 2.2213281389 2.253061398 
2.2847946572 2.3165279163 2.3482611754 2.3799944345 2.4117276937 2.4434609528 2.4751942119 2.506927471 2.5386607302 
2.5703939893 2.6021272484 2.6338605076 2.6655937667 2.6973270258 2.7290602849 2.7607935441 2.7925268032 2.8242600623 
2.8559933214 2.8877265806 2.9194598397 2.9511930988 2.982926358 3.0146596171 3.0463928762 3.0781261353 3.1098593945 
3.1415926536 
_radius 1 100 double
1.8873918971e-15 0.015318601779 0.030455458181 0.045237010325 0.059509836799 0.073146877238 0.086050137215 0.098150319944 0.10940461085 
0.11979412487 0.12932212313 0.13801318048 0.14591253694 0.15308442189 0.15960839899 0.16557352415 0.17107091423 0.17618585814 
0.18099076304 0.18554009986 0.18986816296 0.193989835 0.19790368249 0.20159601264 0.20504454342 0.2082211475 0.21109416154 
0.21363123541 0.21580325915 0.21758888602 0.21897835042 0.21997523928 0.22059556779 0.22086442044 0.22081104459 0.22046345198 
0.21984341595 0.21896246812 0.21781927197 0.21639865028 0.21467255371 0.21260330499 0.21014941492 0.20727395166 0.20395470921 
0.20019441349 0.19602842824 0.19152751269 0.18679451249 0.18195609013 0.17715248875 0.17252856866 0.16822792458 0.16438994719 
0.1611480498 0.15862576191 0.15692603093 0.15610997704 0.15616909535 0.15700846145 0.15845913786 0.16031470656 0.16236905521 
0.16444056888 0.16638238005 0.16808390095 0.16946820852 0.17048802589 0.17112165438 0.17136928732 0.17124961498 0.17079649792 
0.1700555886 0.16908082817 0.16793056379 0.16666277307 0.1653289293 0.16396659636 0.1625916318 0.16119140245 0.15972047138 
0.15809995474 0.15622122685 0.15395375177 0.1511557178 0.14768541647 0.14341138664 0.13822015303 0.1320214293 0.12475139504 
0.11637483358 0.10688662031 0.096312590207 0.084709502604 0.072163803134 0.058789093275 0.044722484709 0.030120189267 0.015152721074 
7.6314697848e-16 
_area 1 100 double
0 0.00042739269975 0.0017061092874 0.0038244668413 0.0067584092768 0.010464477314 0.014871421763 0.019873692101 0.025330413444 
0.031072071889 0.036914657686 0.042678714356 0.048209665772 0.053396105194 0.058183638882 0.062582419178 0.066666301731 0.070561063797 
0.074419782502 0.078387877183 0.08256910195 0.087008810787 0.091701367033 0.096610949466 0.10168698555 0.10686213579 0.11203681841 
0.11707003612 0.12179334178 0.12604404135 0.12969990777 0.13269988598 0.13504463137 0.13677993527 0.13797231174 0.13868739726 
0.1389790519 0.13892068907 0.13863257975 0.13788845025 0.13653075486 0.13444199933 0.1315635542 0.12790886956 0.12355172969 
0.1188063793 0.11384153927 0.10875683654 0.10361762271 0.098480992349 0.093361343151 0.088249362613 0.083140918576 0.078080681291 
0.073130683436 0.068424525748 0.064278244559 0.061195172819 0.059382829879 0.058692664513 0.058880283496 0.059553401267 0.060337580199 
0.060969938494 0.061323956665 0.061364635302 0.061092377427 0.060525164181 0.059697813415 0.058656939112 0.057461235255 0.056188752491 
0.054912117516 0.053635175861 0.052318830272 0.0511227031 0.050162877309 0.04953859003 0.049378705557 0.049712432402 0.050433846986 
0.051330892681 0.052135525415 0.052575182552 0.052418149749 0.051506407762 0.049766339427 0.047196325544 0.043843206573 0.039784858891 
0.035128815688 0.030021262823 0.024653080087 0.019255433011 0.014085634719 0.0094074772956 0.0054702628636 0.0024895580443 0.0006313068722 
1.5287250632e-17 
