# vtk DataFile Version 5.1
vtk output
ASCII
DATASET POLYDATA
POINTS 100 float
0.172539 0.0276638 0.688921 0.172691 0.0279157 0.688928 0.173253 0.0285384 0.688783 
0.174137 0.0295144 0.68844 0.175206 0.0308147 0.687827 0.17629 0.0323986 0.68685 
0.177201 0.034215 0.685402 0.177753 0.0362026 0.68337 0.177778 0.0382924 0.680641 
0.177145 0.0404104 0.677116 0.175763 0.0424817 0.672713 0.173594 0.0444345 0.667376 
0.170644 0.0462054 0.661078 0.166964 0.0477438 0.653823 0.162632 0.0490164 0.645647 
0.157744 0.0500092 0.636616 0.152401 0.050729 0.626814 0.146688 0.0512021 0.616346 
0.140672 0.0514716 0.60532 0.13439 0.0515921 0.593844 0.12785 0.0516238 0.582015 
0.121029 0.0516255 0.569915 0.113885 0.0516479 0.557603 0.106363 0.0517279 0.545112 
0.0984075 0.0518845 0.532452 0.0899739 0.052117 0.519613 0.0810365 0.052406 0.506566 
0.0715961 0.0527169 0.493273 0.0616824 0.053005 0.479693 0.0513523 0.0532233 0.465788 
0.040686 0.0533298 0.45153 0.0297784 0.0532948 0.436903 0.0187306 0.0531073 0.421905 
0.00764014 0.0527786 0.406547 -0.0034065 0.0523433 0.390848 -0.0143397 0.0518577 0.374828 
-0.0251085 0.0513949 0.358503 -0.0356791 0.0510381 0.341879 -0.0460296 0.0508716 0.324942 
-0.0561424 0.0509725 0.30766 -0.0659947 0.0514019 0.289977 -0.075549 0.0521986 0.271817 
-0.0847456 0.0533746 0.253091 -0.0934969 0.0549146 0.233702 -0.101686 0.0567772 0.213558 
-0.10917 0.0588999 0.192582 -0.115788 0.0612063 0.170721 -0.121369 0.0636141 0.147957 
-0.12575 0.0660436 0.12431 -0.128786 0.0684251 0.099841 -0.130366 0.0707052 0.0746511 
-0.130427 0.0728498 0.0488732 -0.128959 0.0748443 0.022664 -0.126008 0.0766919 -0.00380842 
-0.121679 0.0784087 -0.0303766 -0.116122 0.0800174 -0.0568862 -0.109528 0.08154 -0.0832062 
-0.102112 0.0829918 -0.109236 -0.0940947 0.0843755 -0.134907 -0.0856892 0.0856781 -0.160186 
-0.0770861 0.0868699 -0.185066 -0.0684419 0.0879062 -0.209559 -0.0598717 0.0887319 -0.233688 
-0.0514469 0.0892866 -0.257479 -0.0431969 0.089512 -0.280944 -0.0351158 0.0893585 -0.304081 
-0.0271719 0.088791 -0.326867 -0.0193185 0.0877929 -0.34926 -0.0115068 0.0863682 -0.371197 
-0.00369616 0.0845406 -0.392608 0.00413616 0.0823505 -0.413418 0.0119892 0.0798503 -0.433561 
0.0198354 0.0770984 -0.452986 0.027622 0.0741528 -0.471662 0.0352746 0.0710655 -0.489586 
0.0427039 0.0678783 -0.506776 0.0498145 0.0646205 -0.523272 0.0565135 0.0613088 -0.539124 
0.0627187 0.0579497 -0.554382 0.0683664 0.054543 -0.569085 0.0734159 0.051087 -0.58325 
0.0778525 0.047584 -0.596863 0.0816874 0.0440444 -0.609875 0.0849554 0.0404906 -0.622203 
0.0877105 0.0369583 -0.633734 0.0900202 0.033495 -0.644336 0.091959 0.0301581 -0.653871 
0.0936018 0.027009 -0.662217 0.0950183 0.0241076 -0.669277 0.0962676 0.0215061 -0.675 
0.0973957 0.0192429 -0.679392 0.0984329 0.0173386 -0.682517 0.0993945 0.0157937 -0.684504 
0.100282 0.0145891 -0.685533 0.101084 0.0136884 -0.685823 0.101784 0.0130436 -0.685615 
0.102359 0.0126011 -0.685149 0.102787 0.0123092 -0.684641 0.103048 0.012125 -0.68426 
0.10313 0.0120205 -0.684119 
LINES 2 100
OFFSETS vtktypeint64
0 100 
CONNECTIVITY vtktypeint64
0 1 2 3 4 5 6 7 8 
9 10 11 12 13 14 15 16 17 
18 19 20 21 22 23 24 25 26 
27 28 29 30 31 32 33 34 35 
36 37 38 39 40 41 42 43 44 
45 46 47 48 49 50 51 52 53 
54 55 56 57 58 59 60 61 62 
63 64 65 66 67 68 69 70 71 
72 73 74 75 76 77 78 79 80 
81 82 83 84 85 86 87 88 89 
90 91 92 93 94 95 96 97 98 
99 
POINT_DATA 100
FIELD FieldData 3
_theta 1 100 double
0 0.031733259127 0.063466518254 0.095199777382 0.12693303651 0.15866629564 0.19039955476 0.22213281389 0.25386607302 
0.28559933214 0.31733259127 0.3490658504 0.38079910953 0.41253236865 0.44426562778 0.47599888691 0.50773214603 0.53946540516 
0.57119866429 0.60293192342 0.63466518254 0.66639844167 0.6981317008 0.72986495992 0.76159821905 0.79333147818 0.82506473731 
0.85679799643 0.88853125556 0.92026451469 0.95199777382 0.98373103294 1.0154642921 1.0471975512 1.0789308103 1.1106640695 
1.1423973286 1.1741305877 1.2058638468 1.237597106 1.2693303651 1.3010636242 1.3327968833 1.3645301425 1.3962634016 
1.4279966607 1.4597299198 1.491463179 1.5231964381 1.5549296972 1.5866629564 1.6183962155 1.6501294746 1.6818627337 
1.7135959929 1.745329252 1.7770625111 1.8087957702 1.8405290294 1.8722622885 1.9039955476 1.9357288068 1.9674620659 
1.999195325 2.0309285841 2.0626618433 2.0943951024 2.1261283615 2.1578616206 2.1895948798 2.2213281389 2.253061398 
2.2847946572 2.3165279163 2.3482611754 2.3799944345 2.4117276937 2.4434609528 2.4751942119 2.506927471 2.5386607302 
2.5703939893 2.6021272484 2.6338605076 2.6655937667 2.6973270258 2.7290602849 2.7607935441 2.7925268032 2.8242600623 
2.8559933214 2.8877265806 2.9194598397 2.9511930988 2.982926358 3.0146596171 3.0463928762 3.0781261353 3.1098593945 
3.1415926536 
_radius 1 100 double
9.9388604401e-16 0.016795379551 0.033396466941 0.049616262902 0.065290081205 0.080284111186 0.094500776425 0.10788035765 0.12039890475 
0.13206308009 0.1429030471 0.15296464006 0.16230177545 0.17096956418 0.17901816347 0.18648732014 0.19340185563 0.1997688222 
0.20557735135 0.21080201549 0.215409822 0.21937004479 0.22266533301 0.22530212272 0.22731832349 0.22878648994 0.22981119918 
0.2305201833 0.23104992463 0.2315277488 0.23205355848 0.23268473538 0.23342710718 0.23423342588 0.23500914406 0.23562402402 
0.23592753741 0.23576600509 0.23499970942 0.23351853958 0.23125498238 0.22819344916 0.22437510808 0.21989765567 0.21490985575 
0.20960114546 0.20418701736 0.19889115533 0.19392564888 0.18947147308 0.18566272739 0.18257862689 0.18024534886 0.17864581139 
0.17773200675 0.17743432215 0.17766539348 0.17832011196 0.17927590026 0.18039714928 0.18154522088 0.18259228407 0.18343531313 
0.18400666522 0.18427912919 0.18426502886 0.18401018859 0.18358423776 0.18306900146 0.18254675141 0.18208991686 0.18175341589 
0.18156999447 0.18154798092 0.18167014001 0.18189244713 0.18214271151 0.1823202303 0.18229797232 0.1819280082 0.1810497786 
0.1795000634 0.17712336588 0.17378165003 0.16936272453 0.16378691261 0.15701191115 0.14903586451 0.1398986265 0.12968098784 
0.11850141515 0.10650974267 0.093877422694 0.080784441942 0.067403802468 0.053885398459 0.04034195131 0.026840081842 0.013399255798 
4.6932784852e-16 
_area 1 100 double
0 0.00058160031309 0.0023077336645 0.0051226280644 0.0089351413813 0.013624199628 0.019048984802 0.025062149717 0.031522127366 
0.038300675346 0.045284236858 0.052371102929 0.059468715885 0.066495140279 0.073385537924 0.080100119187 0.086627219381 0.092975898656 
0.099157053111 0.10515878314 0.11092727187 0.11636462649 0.12134863961 0.12576988244 0.12957429037 0.13279664581 0.13557127317 
0.13811047466 0.14065124954 0.14338775028 0.14641920545 0.14973317055 0.15321958142 0.15669819815 0.15994539712 0.16271425578 
0.16474966649 0.16580668297 0.16567913595 0.16423400968 0.16143704986 0.15735766003 0.15215211291 0.14603480022 0.13925190309 
0.13206716749 0.12475843612 0.11761478605 0.1109226509 0.10493396482 0.099818392182 0.095614231307 0.092217036479 0.089451507255 
0.087175187353 0.085328004871 0.083920658191 0.082980398252 0.082485536684 0.082323361447 0.082283292742 0.082098171694 0.081518026106 
0.080370669217 0.078589184645 0.076214036975 0.073379719765 0.070291762688 0.067196508592 0.064342158291 0.061933912582 0.06010763726 
0.058955677403 0.058574387797 0.058957620795 0.059956136117 0.061421777256 0.063187196149 0.065066485552 0.066896910383 0.068446395045 
0.069452555835 0.069697498772 0.069015086476 0.067289705104 0.064458363107 0.060516231666 0.055525971498 0.049628177631 0.043046317594 
0.036078302157 0.0290705094 0.02237715466 0.016314280686 0.011120175966 0.0069322905349 0.0037862925488 0.0016377240353 0.00040162278617 
8.5507863752e-17 
