# vtk DataFile Version 5.1
vtk output
ASCII
DATASET POLYDATA
POINTS 100 float
0.148423 0.049915 0.710868 0.148559 0.0500952 0.710582 0.14903 0.0504982 0.709574 
0.149754 0.0511018 0.70786 0.150608 0.0518721 0.705464 0.151437 0.0527656 0.702415 
0.152076 0.0537332 0.698743 0.152369 0.0547235 0.694473 0.152182 0.0556867 0.689621 
0.15142 0.0565793 0.684192 0.150034 0.0573664 0.678178 0.148022 0.0580246 0.671558 
0.145424 0.0585437 0.664306 0.142311 0.0589266 0.656386 0.138772 0.0591887 0.647768 
0.134901 0.0593555 0.638426 0.130777 0.0594595 0.628347 0.126455 0.0595362 0.617537 
0.121955 0.0596202 0.60602 0.117263 0.0597404 0.593841 0.112334 0.0599168 0.581063 
0.107095 0.0601572 0.567767 0.101465 0.0604558 0.554041 0.0953632 0.0607931 0.53998 
0.0887231 0.0611369 0.525673 0.0815066 0.0614456 0.511204 0.0737093 0.0616721 0.496641 
0.065363 0.0617687 0.482034 0.0565329 0.0616928 0.467416 0.0473093 0.0614119 0.452801 
0.0377957 0.0609084 0.438184 0.0280952 0.0601828 0.423549 0.0182972 0.0592557 0.408867 
0.00846561 0.0581673 0.394104 -0.00136759 0.0569761 0.379222 -0.0112046 0.0557543 0.364182 
-0.0210778 0.0545833 0.348945 -0.0310403 0.0535469 0.333473 -0.0411524 0.0527253 0.317728 
-0.0514659 0.0521881 0.30167 -0.0620076 0.0519894 0.285256 -0.072765 0.0521633 0.26844 
-0.083677 0.0527219 0.251174 -0.0946287 0.0536545 0.233403 -0.105454 0.0549299 0.215075 
-0.115943 0.0564994 0.196141 -0.125858 0.0583016 0.176557 -0.134951 0.0602682 0.156294 
-0.142983 0.0623298 0.135337 -0.149744 0.0644212 0.113693 -0.155069 0.0664862 0.0913884 
-0.158855 0.0684808 0.068475 -0.161061 0.0703745 0.0450238 -0.161715 0.0721506 0.0211236 
-0.160903 0.073804 -0.00312467 -0.158762 0.0753386 -0.027614 -0.155463 0.0767635 -0.0522382 
-0.151198 0.0780884 -0.0768979 -0.146161 0.0793198 -0.101506 -0.140538 0.0804577 -0.125992 
-0.134495 0.0814931 -0.150303 -0.12817 0.0824072 -0.174404 -0.121678 0.0831712 -0.198274 
-0.115103 0.0837485 -0.221905 -0.108511 0.0840972 -0.245296 -0.101949 0.0841737 -0.268445 
-0.0954539 0.0839362 -0.291349 -0.0890557 0.0833488 -0.313996 -0.0827785 0.082385 -0.336365 
-0.0766407 0.0810296 -0.358424 -0.0706524 0.079281 -0.380132 -0.0648114 0.0771514 -0.40144 
-0.0590993 0.0746663 -0.422296 -0.0534791 0.071863 -0.44265 -0.047894 0.0687888 -0.462456 
-0.0422707 0.0654981 -0.481673 -0.0365257 0.0620502 -0.500275 -0.0305746 0.0585061 -0.518242 
-0.0243446 0.0549264 -0.535566 -0.017787 0.0513696 -0.552246 -0.01089 0.04789 -0.568286 
-0.00368781 0.0445369 -0.583687 0.00373413 0.041354 -0.598451 0.0112398 0.0383782 -0.612571 
0.0186498 0.0356399 -0.626031 0.0257543 0.0331623 -0.638807 0.0323314 0.0309612 -0.650867 
0.0381683 0.0290446 -0.66217 0.0430841 0.0274128 -0.672673 0.0469498 0.0260584 -0.682335 
0.0497045 0.0249661 -0.691116 0.0513646 0.0241138 -0.698984 0.0520251 0.0234735 -0.705916 
0.0518524 0.0230125 -0.711899 0.0510681 0.0226957 -0.716931 0.0499273 0.0224874 -0.721016 
0.0486918 0.0223541 -0.724164 0.0476023 0.0222662 -0.72639 0.0468525 0.022201 -0.727705 
0.0465678 0.0221437 -0.728117 
LINES 2 100
OFFSETS vtktypeint64
0 100 
CONNECTIVITY vtktypeint64
0 1 2 3 4 5 6 7 8 
9 10 11 12 13 14 15 16 17 
18 19 20 21 22 23 24 25 26 
27 28 29 30 31 32 33 34 35 
36 37 38 39 40 41 42 43 44 
45 46 47 48 49 50 51 52 53 
54 55 56 57 58 59 60 61 62 
63 64 65 66 67 68 69 70 71 
72 73 74 75 76 77 78 79 80 
81 82 83 84 85 86 87 88 89 
90 91 92 93 94 95 96 97 98 
99 
POINT_DATA 100
FIELD FieldData 3
_theta 1 100 double
0 0.031733259127 0.063466518254 0.095199777382 0.12693303651 0.15866629564 0.19039955476 0.22213281389 0.25386607302 
0.28559933214 0.31733259127 0.3490658504 0.38079910953 0.41253236865 0.44426562778 0.47599888691 0.50773214603 0.53946540516 
0.57119866429 0.60293192342 0.63466518254 0.66639844167 0.6981317008 0.72986495992 0.76159821905 0.79333147818 0.82506473731 
0.85679799643 0.88853125556 0.92026451469 0.95199777382 0.98373103294 1.0154642921 1.0471975512 1.0789308103 1.1106640695 
1.1423973286 1.1741305877 1.2058638468 1.237597106 1.2693303651 1.3010636242 1.3327968833 1.3645301425 1.3962634016 
1.4279966607 1.4597299198 1.491463179 1.5231964381 1.5549296972 1.5866629564 1.6183962155 1.6501294746 1.6818627337 
1.7135959929 1.745329252 1.7770625111 1.8087957702 1.8405290294 1.8722622885 1.9039955476 1.9357288068 1.9674620659 
1.999195325 2.0309285841 2.0626618433 2.0943951024 2.1261283615 2.1578616206 2.1895948798 2.2213281389 2.253061398 
2.2847946572 2.3165279163 2.3482611754 2.3799944345 2.4117276937 2.4434609528 2.4751942119 2.506927471 2.5386607302 
2.5703939893 2.6021272484 2.6338605076 2.6655937667 2.6973270258 2.7290602849 2.7607935441 2.7925268032 2.8242600623 
2.8559933214 2.8877265806 2.9194598397 2.9511930988 2.982926358 3.0146596171 3.0463928762 3.0781261353 3.1098593945 
3.1415926536 
_radius 1 100 double
8.3523647795e-16 0.014220926585 0.028256128739 0.041933514435 0.055113814812 0.06769701985 0.07962012317 0.09084839205 0.10136438011 
0.11115881827 0.12022553981 0.12856019553 0.13616117785 0.14303123144 0.14917896454 0.15462006149 0.15937821713 0.16348593833 
0.16698557737 0.16993109862 0.1723907737 0.17445007912 0.17621282335 0.17779777453 0.17932883432 0.18091958323 0.18265667897 
0.18458834779 0.18672191246 0.18902929521 0.19145571984 0.19392685398 0.19635232227 0.19862642788 0.20062856544 0.20222600753 
0.20328086614 0.20366153321 0.2032573349 0.20199404435 0.19984758808 0.19685363668 0.19311142394 0.18878078278 0.18407195718 
0.17922838802 0.17450356523 0.1701343201 0.16631453799 0.16317459438 0.16077153835 0.15909219323 0.15806700641 0.15758939587 
0.15753511418 0.15777786957 0.15819926102 0.15869237659 0.15916033702 0.15951450005 0.15967881395 0.15960185893 0.15926966235 
0.15871022673 0.15798622173 0.15717908429 0.15637179894 0.15563676588 0.15502983067 0.15458768627 0.15432649473 0.15424121943 
0.15430559049 0.15447268184 0.15467653135 0.15483577448 0.15486009575 0.15465910013 0.1541516153 0.15327257915 0.15197515939 
0.15022733051 0.14800404621 0.14527763319 0.14200956342 0.13814617984 0.13361956411 0.12835315891 0.12227055675 0.11530531507 
0.10740976041 0.098561365151 0.088766182189 0.078059688601 0.066505898672 0.054195597536 0.041244124951 0.027788625051 0.013984391355 
1.7891554829e-15 
_area 1 100 double
0 0.00045544838792 0.0018028130132 0.0039888932992 0.0069355548719 0.010550056182 0.014732188492 0.019376633522 0.024372008982 
0.02959966687 0.03493482412 0.040250986481 0.045427167033 0.050356408721 0.054953383637 0.059158856595 0.062940311792 0.066290295158 
0.069224856662 0.071783437825 0.074030805253 0.076061037215 0.077999786005 0.079995578313 0.082192141173 0.084686830525 0.087497069857 
0.090558231295 0.093755559103 0.096970519954 0.10011780168 0.10315871216 0.10609002609 0.1089179941 0.11162925524 0.11416426222 
0.11639662697 0.11812966037 0.119121648 0.11913498518 0.11799160289 0.11561833013 0.11207191164 0.10753909347 0.10231349573 
0.09675659375 0.091249071548 0.08613807612 0.081691203851 0.078059030625 0.075254911368 0.073165183542 0.071595188682 0.070330070086 
0.069191961794 0.068072854068 0.066930401678 0.065750586902 0.064504812989 0.063147448967 0.061669884033 0.060141767852 0.058633427714 
0.057160854316 0.055794003438 0.054653885155 0.053816920882 0.053274420744 0.052962951382 0.052810379802 0.052765189742 0.052808608229 
0.052955864743 0.053243150391 0.053693693782 0.054276111124 0.054883564082 0.055351409387 0.055505894524 0.055218423353 0.054438324348 
0.053190417168 0.051542248003 0.049559514574 0.047271506116 0.04466141133 0.041683402215 0.038295992283 0.034495636104 0.030337156379 
0.025935014 0.021447600501 0.017052291974 0.012920497702 0.009200022373 0.0060081028895 0.0034337385382 0.0015440730297 0.00038882622646 
3.9439966439e-17 
