# vtk DataFile Version 5.1
vtk output
ASCII
DATASET POLYDATA
POINTS 100 float
0.173008 0.0349043 0.666354 0.173031 0.0351713 0.666149 0.173151 0.0358918 0.665384 
0.173329 0.0370431 0.66408 0.173502 0.0385866 0.662274 0.17359 0.0404674 0.660002 
0.173505 0.0426145 0.657301 0.17315 0.0449422 0.654201 0.172437 0.0473528 0.650712 
0.171285 0.0497399 0.646831 0.169632 0.051994 0.64253 0.167433 0.0540083 0.637765 
0.164669 0.0556857 0.632478 0.161341 0.0569455 0.626603 0.157471 0.0577294 0.620072 
0.153095 0.0580059 0.612828 0.14826 0.0577727 0.60483 0.143017 0.0570571 0.596058 
0.137414 0.0559125 0.586518 0.13149 0.0544145 0.576244 0.125275 0.0526539 0.565293 
0.118779 0.0507287 0.553742 0.112001 0.0487367 0.541683 0.104927 0.0467685 0.529214 
0.0975332 0.044902 0.51643 0.0897924 0.0431994 0.503422 0.0816819 0.0417063 0.490265 
0.0731881 0.0404537 0.477021 0.0643127 0.039461 0.463737 0.0550762 0.0387413 0.450444 
0.0455196 0.038306 0.437161 0.0357033 0.038169 0.423897 0.0257034 0.0383493 0.410654 
0.0156061 0.0388716 0.397431 0.0055004 0.0397642 0.384218 -0.00452998 0.0410546 0.370999 
-0.0144138 0.0427637 0.357748 -0.0240981 0.0448987 0.344424 -0.0335517 0.0474468 0.330966 
-0.0427651 0.05037 0.317291 -0.0517475 0.0536023 0.30329 -0.0605205 0.0570504 0.288831 
-0.0691084 0.060598 0.273762 -0.0775283 0.0641133 0.257917 -0.0857789 0.0674593 0.241129 
-0.0938308 0.0705061 0.223244 -0.10162 0.0731429 0.204129 -0.109043 0.0752896 0.183693 
-0.115961 0.0769047 0.161895 -0.122205 0.07799 0.138751 -0.127586 0.0785908 0.114343 
-0.131911 0.0787905 0.0888107 -0.134998 0.0787017 0.062351 -0.136698 0.0784537 0.0352022 
-0.136907 0.0781784 0.00762934 -0.13558 0.0779954 -0.020094 -0.132741 0.0779994 -0.0477047 
-0.12848 0.078251 -0.0749682 -0.122953 0.0787708 -0.101693 -0.116369 0.0795401 -0.12774 
-0.108972 0.0805045 -0.153029 -0.101026 0.0815836 -0.177538 -0.0927842 0.0826822 -0.201294 
-0.0844763 0.0837032 -0.224367 -0.0762855 0.0845601 -0.246853 -0.0683362 0.0851867 -0.268858 
-0.0606869 0.0855432 -0.290486 -0.0533301 0.085618 -0.311826 -0.0461993 0.0854245 -0.332938 
-0.0391825 0.0849933 -0.353852 -0.0321399 0.0843626 -0.37456 -0.0249245 0.0835655 -0.395027 
-0.0174029 0.0826191 -0.41519 -0.0094742 0.0815155 -0.434965 -0.00108427 0.0802166 -0.454262 
0.00776523 0.0786542 -0.47299 0.0170147 0.0767353 -0.491063 0.0265508 0.0743524 -0.508408 
0.036217 0.0713976 -0.524964 0.0458288 0.0677791 -0.540688 0.0551905 0.0634366 -0.555547 
0.0641146 0.0583558 -0.569518 0.0724376 0.0525773 -0.582585 0.080034 0.0462001 -0.594732 
0.0868242 0.0393784 -0.605944 0.0927782 0.0323117 -0.616207 0.0979128 0.0252289 -0.625505 
0.102284 0.0183687 -0.633828 0.105977 0.0119578 -0.641171 0.109092 0.00619031 -0.647541 
0.111732 0.00121007 -0.652963 0.113989 -0.00290106 -0.657478 0.11594 -0.00612818 -0.661145 
0.117633 -0.00852045 -0.664041 0.119096 -0.0101808 -0.666256 0.120332 -0.0112495 -0.667886 
0.121329 -0.0118835 -0.669025 0.122065 -0.012234 -0.669758 0.122517 -0.012426 -0.670153 
0.122668 -0.0125404 -0.670254 
LINES 2 100
OFFSETS vtktypeint64
0 100 
CONNECTIVITY vtktypeint64
0 1 2 3 4 5 6 7 8 
9 10 11 12 13 14 15 16 17 
18 19 20 21 22 23 24 25 26 
27 28 29 30 31 32 33 34 35 
36 37 38 39 40 41 42 43 44 
45 46 47 48 49 50 51 52 53 
54 55 56 57 58 59 60 61 62 
63 64 65 66 67 68 69 70 71 
72 73 74 75 76 77 78 79 80 
81 82 83 84 85 86 87 88 89 
90 91 92 93 94 95 96 97 98 
99 
POINT_DATA 100
FIELD FieldData 3
_theta 1 100 double
0 0.031733259127 0.063466518254 0.095199777382 0.12693303651 0.15866629564 0.19039955476 0.22213281389 0.25386607302 
0.28559933214 0.31733259127 0.3490658504 0.38079910953 0.41253236865 0.44426562778 0.47599888691 0.50773214603 0.53946540516 
0.57119866429 0.60293192342 0.63466518254 0.66639844167 0.6981317008 0.72986495992 0.76159821905 0.79333147818 0.82506473731 
0.85679799643 0.88853125556 0.92026451469 0.95199777382 0.98373103294 1.0154642921 1.0471975512 1.0789308103 1.1106640695 
1.1423973286 1.1741305877 1.2058638468 1.237597106 1.2693303651 1.3010636242 1.3327968833 1.3645301425 1.3962634016 
1.4279966607 1.4597299198 1.491463179 1.5231964381 1.5549296972 1.5866629564 1.6183962155 1.6501294746 1.6818627337 
1.7135959929 1.745329252 1.7770625111 1.8087957702 1.8405290294 1.8722622885 1.9039955476 1.9357288068 1.9674620659 
1.999195325 2.0309285841 2.0626618433 2.0943951024 2.1261283615 2.1578616206 2.1895948798 2.2213281389 2.253061398 
2.2847946572 2.3165279163 2.3482611754 2.3799944345 2.4117276937 2.4434609528 2.4751942119 2.506927471 2.5386607302 
2.5703939893 2.6021272484 2.6338605076 2.6655937667 2.6973270258 2.7290602849 2.7607935441 2.7925268032 2.8242600623 
2.8559933214 2.8877265806 2.9194598397 2.9511930988 2.982926358 3.0146596171 3.0463928762 3.0781261353 3.1098593945 
3.1415926536 
_radius 1 100 double
6.713178137e-16 0.012878335404 0.025810338455 0.038833038841 0.051956569156 0.065155757023 0.078366596772 0.091487832418 0.10438718414 
0.11691126397 0.12889795736 0.14018993895 0.15064799126 0.16016287833 0.1686646826 0.17612872635 0.18257745226 0.18807792591 
0.19273496895 0.19668037955 0.20005928111 0.20301530331 0.20567679981 0.20814624612 0.21049412549 0.21275736022 0.21494143416 
0.21702518214 0.21896746828 0.22071505532 0.22221068238 0.22340000398 0.22423602623 0.2246802216 0.22470048934 0.22426716217 
0.22334889642 0.22191028502 0.21991249303 0.21731741761 0.21409506489 0.21023314024 0.20574734722 0.20069065333 0.19515981284 
0.18929765535 0.18328996755 0.17735627254 0.17173468177 0.16666245191 0.16235556272 0.15899128994 0.15669606581 0.15553757323 
0.15551810316 0.15656796002 0.15854163524 0.16122206011 0.16433719607 0.16758870245 0.17068705486 0.17338482507 0.17550123869 
0.17693473552 0.17766351952 0.1777360317 0.17725423589 0.17635303574 0.17517912869 0.17387204527 0.17254909697 0.17129487471 
0.1701552882 0.16913605615 0.16820571097 0.167303019 0.16634795564 0.16525441831 0.16394249274 0.16234846072 0.1604311532 
0.15817328471 0.15557655822 0.15265037922 0.14939603042 0.14579019422 0.14177241558 0.13723990486 0.13205084489 0.12603546076 
0.11901308882 0.11081300825 0.10129649536 0.090377411929 0.078038789507 0.064343362171 0.049436737122 0.033542737029 0.016951289211 
1.8297686134e-15 
_area 1 100 double
0 0.00040446709787 0.0016313245149 0.0037169235757 0.0067090737202 0.010650198242 0.015558569892 0.021411974137 0.028137710356 
0.035611051934 0.043661828018 0.052086714576 0.060664022474 0.069168529693 0.077385709781 0.085126436381 0.092243684494 0.098651187973 
0.10434056864 0.10938926913 0.11394932031 0.11821076343 0.12234575912 0.12645310341 0.13052488423 0.13444693154 0.13803400586 
0.14109206514 0.14349629059 0.14531602969 0.14712321769 0.14898276371 0.15059412085 0.15182286016 0.15255154271 0.15264781776 
0.15196027368 0.15034100627 0.14767944724 0.14393302186 0.13914244137 0.13342736471 0.12696856935 0.11998065632 0.11267948371 
0.1052675093 0.097939937335 0.090911439737 0.084430861449 0.078748789021 0.074041160803 0.070356208426 0.067648496311 0.065854138583 
0.06493634124 0.064889427424 0.065693043526 0.067225876703 0.069223222369 0.071345051627 0.073268229139 0.074734976291 0.075569191058 
0.075679892077 0.075057550386 0.073764133172 0.071917657787 0.0696741129 0.067212712697 0.064734576838 0.062443182231 0.060408827263 
0.058606147191 0.057018825272 0.055635829755 0.054451862305 0.053465536323 0.05265992979 0.051977998938 0.051335458266 0.050663396485 
0.04992949886 0.049126167454 0.048243172675 0.047243517544 0.046053730383 0.044569964224 0.042674927224 0.040259834721 0.037246994086 
0.033609882068 0.029388400859 0.024697495033 0.019727556504 0.01473534447 0.010024874309 0.0059190668214 0.0027247890095 0.00069586011705 
8.3718132975e-17 
