# vtk DataFile Version 5.1
vtk output
ASCII
DATASET POLYDATA
POINTS 100 float
0.138933 0.0551163 0.704094 0.138884 0.0552622 0.703919 0.138823 0.0555837 0.703249 
0.138726 0.05607 0.702076 0.138554 0.0567043 0.700386 0.138262 0.0574655 0.698159 
0.137797 0.058328 0.695363 0.137112 0.0592638 0.691961 0.136164 0.0602426 0.687905 
0.134919 0.0612326 0.683142 0.133357 0.0622007 0.677616 0.131466 0.0631126 0.671278 
0.129246 0.063933 0.664086 0.1267 0.0646255 0.656022 0.123833 0.0651534 0.647088 
0.120646 0.0654804 0.637317 0.117131 0.0655721 0.626774 0.113272 0.0653982 0.615552 
0.109042 0.0649351 0.60377 0.104402 0.0641686 0.59156 0.0993093 0.0630968 0.579061 
0.093721 0.0617327 0.566404 0.0875987 0.0601054 0.5537 0.0809168 0.058261 0.541029 
0.0736674 0.0562611 0.528431 0.0658647 0.0541808 0.515906 0.0575475 0.0521045 0.503405 
0.0487781 0.0501205 0.490847 0.0396395 0.0483155 0.478115 0.0302299 0.0467678 0.465079 
0.0206552 0.0455418 0.451602 0.0110213 0.0446831 0.437555 0.00142587 0.0442149 0.422831 
-0.00804881 0.0441372 0.40735 -0.0173405 0.0444275 0.391068 -0.0264098 0.0450436 0.373972 
-0.0352391 0.0459291 0.356083 -0.0438298 0.0470192 0.337444 -0.0521962 0.0482476 0.318111 
-0.0603577 0.0495537 0.298146 -0.068331 0.0508885 0.277605 -0.0761214 0.0522187 0.256534 
-0.0837161 0.0535296 0.234961 -0.0910793 0.0548248 0.2129 -0.0981501 0.0561242 0.190353 
-0.104843 0.0574601 0.167316 -0.111052 0.0588713 0.143789 -0.116657 0.0603972 0.119781 
-0.121531 0.062071 0.0953227 -0.125548 0.0639151 0.0704674 -0.128596 0.0659366 0.0452939 
-0.130581 0.0681258 0.0199042 -0.131433 0.0704562 -0.00558341 -0.131115 0.0728871 -0.0310433 
-0.129619 0.0753675 -0.0563541 -0.126969 0.0778415 -0.0814098 -0.123217 0.0802539 -0.10613 
-0.118439 0.0825556 -0.130466 -0.112729 0.0847078 -0.154405 -0.106192 0.0866847 -0.177967 
-0.098942 0.0884734 -0.201197 -0.0910915 0.090073 -0.224155 -0.0827518 0.0914904 -0.246903 
-0.0740276 0.0927351 -0.269492 -0.0650154 0.0938139 -0.291946 -0.0558021 0.0947242 -0.314256 
-0.0464646 0.0954494 -0.336373 -0.0370693 0.0959556 -0.35821 -0.0276726 0.0961898 -0.379649 
-0.018321 0.0960821 -0.400551 -0.00905139 0.0955487 -0.420775 0.000108197 0.0944989 -0.440191 
0.00913761 0.0928427 -0.458697 0.0180231 0.0904999 -0.476235 0.0267552 0.0874093 -0.492797 
0.0353258 0.0835365 -0.508428 0.043725 0.0788807 -0.523219 0.0519372 0.0734785 -0.537301 
0.0599377 0.0674051 -0.55082 0.0676895 0.0607719 -0.563925 0.0751414 0.0537218 -0.576743 
0.082228 0.0464214 -0.589362 0.0888704 0.0390514 -0.601818 0.094981 0.0317959 -0.614086 
0.100468 0.0248316 -0.626081 0.105245 0.0183174 -0.637666 0.109235 0.0123854 -0.648669 
0.112386 0.00713462 -0.658899 0.114672 0.00262634 -0.668176 0.116104 -0.00111701 -0.676345 
0.116731 -0.0041107 -0.683302 0.116645 -0.00640379 -0.689005 0.115969 -0.00807319 -0.69348 
0.114861 -0.00921606 -0.696818 0.113494 -0.00994119 -0.699167 0.11205 -0.01036 -0.700711 
0.110706 -0.0105777 -0.701645 0.109614 -0.0106853 -0.702158 0.108896 -0.0107529 -0.702402 
0.108628 -0.0108242 -0.702478 
LINES 2 100
OFFSETS vtktypeint64
0 100 
CONNECTIVITY vtktypeint64
0 1 2 3 4 5 6 7 8 
9 10 11 12 13 14 15 16 17 
18 19 20 21 22 23 24 25 26 
27 28 29 30 31 32 33 34 35 
36 37 38 39 40 41 42 43 44 
45 46 47 48 49 50 51 52 53 
54 55 56 57 58 59 60 61 62 
63 64 65 66 67 68 69 70 71 
72 73 74 75 76 77 78 79 80 
81 82 83 84 85 86 87 88 89 
90 91 92 93 94 95 96 97 98 
99 
POINT_DATA 100
FIELD FieldData 3
_theta 1 100 double
0 0.031733259127 0.063466518254 0.095199777382 0.12693303651 0.15866629564 0.19039955476 0.22213281389 0.25386607302 
0.28559933214 0.31733259127 0.3490658504 0.38079910953 0.41253236865 0.44426562778 0.47599888691 0.50773214603 0.53946540516 
0.57119866429 0.60293192342 0.63466518254 0.66639844167 0.6981317008 0.72986495992 0.76159821905 0.79333147818 0.82506473731 
0.85679799643 0.88853125556 0.92026451469 0.95199777382 0.98373103294 1.0154642921 1.0471975512 1.0789308103 1.1106640695 
1.1423973286 1.1741305877 1.2058638468 1.237597106 1.2693303651 1.3010636242 1.3327968833 1.3645301425 1.3962634016 
1.4279966607 1.4597299198 1.491463179 1.5231964381 1.5549296972 1.5866629564 1.6183962155 1.6501294746 1.6818627337 
1.7135959929 1.745329252 1.7770625111 1.8087957702 1.8405290294 1.8722622885 1.9039955476 1.9357288068 1.9674620659 
1.999195325 2.0309285841 2.0626618433 2.0943951024 2.1261283615 2.1578616206 2.1895948798 2.2213281389 2.253061398 
2.2847946572 2.3165279163 2.3482611754 2.3799944345 2.4117276937 2.4434609528 2.4751942119 2.506927471 2.5386607302 
2.5703939893 2.6021272484 2.6338605076 2.6655937667 2.6973270258 2.7290602849 2.7607935441 2.7925268032 2.8242600623 
2.8559933214 2.8877265806 2.9194598397 2.9511930988 2.982926358 3.0146596171 3.0463928762 3.0781261353 3.1098593945 
3.1415926536 
_radius 1 100 double
4.6712724466e-16 0.014825382006 0.029499066853 0.043878281428 0.057841882134 0.071297128476 0.084182439641 0.09646623202 0.10814262489 
0.11922516211 0.1297396918 0.13971729168 0.14918780538 0.15817429605 0.16668859412 0.17472814511 0.18227452538 0.18929414666 
0.1957416191 0.20156589358 0.20671875341 0.21116467491 0.21489067753 0.21791455038 0.22028971692 0.22210500322 0.22347791218 
0.22454100573 0.22542282466 0.22622699975 0.22701465669 0.22779469911 0.22852408991 0.22911726225 0.22946177543 0.22943671481 
0.22893069599 0.2278571369 0.22616539101 0.22384722015 0.22093879407 0.21751882067 0.21370348738 0.20963868267 0.20548964383 
0.20142801388 0.19761659461 0.19419304926 0.19125523676 0.1888518885 0.18698176831 0.18560196441 0.18464285716 0.18402539288 
0.18367621724 0.18353747467 0.1835699646 0.18375033962 0.18406462599 0.18450103701 0.18504458663 0.18567463589 0.18636492576 
0.18708466313 0.18779924904 0.18847008002 0.1890539038 0.18950281595 0.18976582806 0.18979221137 0.18953603702 0.18896090745 
0.18804386609 0.18677771233 0.18517126516 0.18324742018 0.18103909331 0.17858333127 0.1759140347 0.17305396247 0.17000700857 
0.1667520844 0.16324007184 0.15939498113 0.15511957916 0.15030459683 0.14483966486 0.13862380788 0.13157377078 0.12362940149 
0.11475630135 0.10494657167 0.094218578132 0.082616336426 0.070208659117 0.057087851001 0.043367639254 0.029180160508 0.014672067355 
7.6258271267e-16 
_area 1 100 double
0 0.00050649421812 0.0020015447956 0.0044161589287 0.0076486580313 0.01158133715 0.016098101233 0.021099002918 0.026507892156 
0.032270296123 0.038341127841 0.044666787214 0.051170807515 0.057750574581 0.064285657065 0.070653185771 0.076744903093 0.082481565013 
0.087822005191 0.09276612288 0.097352168442 0.10164719261 0.10572613657 0.10963951247 0.11339237336 0.11696465104 0.12035623087 
0.12360776352 0.12677925944 0.12990840855 0.13298053429 0.13592414727 0.13862398633 0.14093815226 0.14271213785 0.143789223 
0.14402154083 0.14328680485 0.14151049469 0.13868732884 0.13489516603 0.13029790274 0.12513647683 0.11970722828 0.11432714322 
0.10928848746 0.10481093532 0.10100479195 0.0978602279 0.095269685683 0.09307344482 0.091106676504 0.08924660199 0.087501989896 
0.085830968307 0.084310463997 0.082765305878 0.08104039486 0.079111654227 0.077024953609 0.074883338439 0.072842072218 0.071097579356 
0.069840266306 0.069130855148 0.068869806215 0.068954835327 0.06914965384 0.069334915251 0.0694093597 0.069292432837 0.068932475578 
0.068310521096 0.067438708148 0.066354314303 0.06512025811 0.063826854551 0.062485238965 0.061057708696 0.05958653437 0.05820815803 
0.057039476543 0.056029590475 0.054961875558 0.053593049052 0.0517264847 0.049224838422 0.046014824252 0.042093366706 0.037531469473 
0.032471773414 0.027117273277 0.021711065396 0.01650975985 0.011755373585 0.007651500541 0.0043489831289 0.001943962621 0.00048728368155 
4.5403886986e-17 
