# vtk DataFile Version 5.1
vtk output
ASCII
DATASET POLYDATA
POINTS 100 float
0.130246 0.0462722 0.701642 0.130176 0.0464978 0.701316 0.130062 0.047011 0.700223 
0.129887 0.0477944 0.698379 0.129622 0.0488193 0.695813 0.129232 0.0500486 0.692557 
0.128679 0.0514381 0.688648 0.127929 0.0529392 0.684121 0.126952 0.0545013 0.679009 
0.125728 0.0560741 0.673336 0.124245 0.0576094 0.667124 0.1225 0.0590628 0.660386 
0.120497 0.0603942 0.653136 0.11824 0.0615687 0.645386 0.115735 0.0625562 0.637155 
0.112978 0.0633319 0.628464 0.10996 0.0638752 0.619347 0.106661 0.0641702 0.609842 
0.103055 0.0642058 0.599993 0.0991063 0.0639758 0.589849 0.0947818 0.0634802 0.579453 
0.0900515 0.0627261 0.568841 0.0848968 0.0617288 0.558034 0.0793156 0.0605134 0.547035 
0.0733266 0.0591154 0.535826 0.0669706 0.0575809 0.524368 0.06031 0.0559664 0.512603 
0.0534245 0.0543368 0.50046 0.0464044 0.0527634 0.48786 0.0393423 0.0513198 0.474726 
0.0323231 0.0500783 0.460989 0.0254149 0.0491046 0.446599 0.0186612 0.0484533 0.431525 
0.0120754 0.0481635 0.41576 0.00563936 0.0482549 0.399321 -0.00069448 0.0487263 0.382245 
-0.00699662 0.0495542 0.36458 -0.0133509 0.0506945 0.346379 -0.0198423 0.0520854 0.327692 
-0.0265435 0.053652 0.308557 -0.0335022 0.0553125 0.288993 -0.04073 0.0569845 0.269 
-0.0481952 0.0585926 0.248557 -0.0558194 0.0600743 0.227626 -0.0634794 0.0613857 0.20616 
-0.0710143 0.0625053 0.184113 -0.0782365 0.0634353 0.161449 -0.0849456 0.0642012 0.13815 
-0.0909454 0.0648484 0.114227 -0.0960589 0.065438 0.0897243 -0.100144 0.0660392 0.0647155 
-0.103102 0.0667227 0.0393048 -0.104889 0.0675523 0.0136175 -0.105513 0.0685775 -0.0122111 
-0.105031 0.069828 -0.0380467 -0.103544 0.0713088 -0.0637692 -0.101183 0.0729988 -0.0892826 
-0.0980919 0.0748505 -0.114523 -0.094419 0.0767932 -0.139459 -0.0902981 0.0787376 -0.164097 
-0.0858392 0.080582 -0.188464 -0.0811207 0.0822201 -0.212609 -0.0761854 0.0835481 -0.236581 
-0.0710425 0.0844717 -0.26042 -0.065672 0.0849124 -0.284143 -0.0600337 0.0848115 -0.307738 
-0.0540782 0.0841325 -0.331152 -0.0477582 0.0828617 -0.354296 -0.04104 0.0810065 -0.377051 
-0.0339125 0.0785927 -0.399275 -0.0263943 0.07566 -0.420818 -0.0185364 0.072258 -0.441538 
-0.0104222 0.0684416 -0.461319 -0.00216343 0.0642668 -0.480077 0.00610634 0.0597883 -0.497775 
0.0142407 0.0550576 -0.514425 0.02209 0.0501228 -0.530083 0.0295113 0.045029 -0.544842 
0.036377 0.0398205 -0.558818 0.0425825 0.0345422 -0.572133 0.0480507 0.0292423 -0.584901 
0.0527353 0.0239728 -0.597205 0.0566203 0.0187912 -0.609091 0.0597185 0.0137591 -0.620558 
0.0620682 0.00894096 -0.631557 0.063728 0.00440091 -0.641998 0.0647719 0.000199353 -0.651761 
0.0652841 -0.00361139 -0.660713 0.0653541 -0.00699105 -0.668727 0.0650724 -0.00991492 -0.675696 
0.0645269 -0.0123762 -0.681557 0.0638012 -0.0143867 -0.686296 0.0629719 -0.0159765 -0.689955 
0.062108 -0.0171908 -0.69263 0.0612701 -0.018086 -0.694459 0.0605099 -0.0187244 -0.695612 
0.0598702 -0.0191683 -0.696267 0.0593844 -0.0194734 -0.696591 0.0590769 -0.0196835 -0.696721 
0.0589623 -0.0198261 -0.696746 
LINES 2 100
OFFSETS vtktypeint64
0 100 
CONNECTIVITY vtktypeint64
0 1 2 3 4 5 6 7 8 
9 10 11 12 13 14 15 16 17 
18 19 20 21 22 23 24 25 26 
27 28 29 30 31 32 33 34 35 
36 37 38 39 40 41 42 43 44 
45 46 47 48 49 50 51 52 53 
54 55 56 57 58 59 60 61 62 
63 64 65 66 67 68 69 70 71 
72 73 74 75 76 77 78 79 80 
81 82 83 84 85 86 87 88 89 
90 91 92 93 94 95 96 97 98 
99 
POINT_DATA 100
FIELD FieldData 3
_theta 1 100 double
0 0.031733259127 0.063466518254 0.095199777382 0.12693303651 0.15866629564 0.19039955476 0.22213281389 0.25386607302 
0.28559933214 0.31733259127 0.3490658504 0.38079910953 0.41253236865 0.44426562778 0.47599888691 0.50773214603 0.53946540516 
0.57119866429 0.60293192342 0.63466518254 0.66639844167 0.6981317008 0.72986495992 0.76159821905 0.79333147818 0.82506473731 
0.85679799643 0.88853125556 0.92026451469 0.95199777382 0.98373103294 1.0154642921 1.0471975512 1.0789308103 1.1106640695 
1.1423973286 1.1741305877 1.2058638468 1.237597106 1.2693303651 1.3010636242 1.3327968833 1.3645301425 1.3962634016 
1.4279966607 1.4597299198 1.491463179 1.5231964381 1.5549296972 1.5866629564 1.6183962155 1.6501294746 1.6818627337 
1.7135959929 1.745329252 1.7770625111 1.8087957702 1.8405290294 1.8722622885 1.9039955476 1.9357288068 1.9674620659 
1.999195325 2.0309285841 2.0626618433 2.0943951024 2.1261283615 2.1578616206 2.1895948798 2.2213281389 2.253061398 
2.2847946572 2.3165279163 2.3482611754 2.3799944345 2.4117276937 2.4434609528 2.4751942119 2.506927471 2.5386607302 
2.5703939893 2.6021272484 2.6338605076 2.6655937667 2.6973270258 2.7290602849 2.7607935441 2.7925268032 2.8242600623 
2.8559933214 2.8877265806 2.9194598397 2.9511930988 2.982926358 3.0146596171 3.0463928762 3.0781261353 3.1098593945 
3.1415926536 
_radius 1 100 double
1.2242576653e-15 0.015171402953 0.030204115997 0.044966475652 0.059348021663 0.073266901748 0.086673761399 0.099551782519 0.11191311698 
0.12379246898 0.13523888094 0.14630680604 0.15704735456 0.16750032161 0.17768738988 0.187606849 0.1972302917 0.2065019412 
0.21534134316 0.22364991473 0.23132120822 0.23825386395 0.24436540536 0.2496045645 0.25395987679 0.25746285627 0.26018504587 
0.26222941272 0.26371760954 0.26477523468 0.26551724351 0.26603521665 0.26638758322 0.2665934083 0.26663008185 0.26643512223 
0.26591220007 0.26494128875 0.26339250611 0.2611427393 0.25809361787 0.25418894329 0.24942942651 0.24388261848 0.237686263 
0.23104392809 0.22421261858 0.2174830759 0.21115456725 0.20550706524 0.20077460582 0.19712386706 0.19464114534 0.19332885879 
0.19311032811 0.19384028629 0.19531909191 0.19731012848 0.19956060699 0.20182504214 0.20388891126 0.20558897243 0.20682700989 
0.20757491375 0.2078703819 0.20780393492 0.20749934112 0.20709083267 0.20670126625 0.20642509173 0.20631835854 0.2063955545 
0.20663114389 0.20696332662 0.20729870096 0.20751808137 0.20748446927 0.20705360533 0.20608620897 0.20445995828 0.20207905345 
0.19887972334 0.19483088029 0.18992999788 0.18419502941 0.17765375766 0.17033236629 0.16224524298 0.15338800287 0.14373535785 
0.13324468493 0.12186504546 0.10955023509 0.096273555868 0.082041657129 0.066905043737 0.050963543742 0.034365921181 0.017303699388 
2.5672546617e-16 
_area 1 100 double
0 0.00053397360044 0.0021200009972 0.0047137380729 0.0082512573333 0.012660331394 0.017869916937 0.023814206689 0.030430366373 
0.037652813859 0.045408854255 0.053619069628 0.062202548918 0.071084305531 0.080201111691 0.089502349126 0.098944166637 0.10847810305 
0.11803849009 0.12753443928 0.1368502791 0.14585374639 0.15440788385 0.16238335977 0.16967048759 0.17619032101 0.18190246342 
0.1868074198 0.19094376772 0.19438199028 0.19721553475 0.19954713508 0.20146806962 0.20303142573 0.20422575518 0.20495893672 
0.20506077128 0.20430703061 0.20246044479 0.19931897457 0.19476024578 0.18877263807 0.18146690158 0.17306657414 0.16388065216 
0.15426684206 0.14459543551 0.13522035617 0.12645828041 0.11857441687 0.1117738983 0.1061957755 0.10190401066 0.09887482833 
0.096991510756 0.096069137102 0.095896433259 0.096139967385 0.096562246787 0.096916338215 0.096982886491 0.096599499694 0.095669196346 
0.094166886195 0.092136280237 0.089677257309 0.086931957555 0.08407025292 0.081265317757 0.078662487972 0.076374076128 0.074516835436 
0.073257305029 0.07300936278 0.074137588285 0.075954935282 0.078133019835 0.080343811408 0.082296570751 0.083756560293 0.084542280866 
0.084520359836 0.083602463529 0.081744239998 0.078943789411 0.075236939958 0.070688914786 0.065384865709 0.059423189789 0.052914786767 
0.04598882136 0.038802298022 0.031548483461 0.024459150505 0.017797739462 0.011843650727 0.0068704876939 0.0031222336826 0.00079111807698 
8.0198098607e-18 
