# vtk DataFile Version 5.1
vtk output
ASCII
DATASET POLYDATA
POINTS 100 float
0.104191 0.0493491 0.692208 0.104189 0.0496428 0.691763 0.104221 0.0503426 0.690376 
0.104265 0.0513924 0.688122 0.10429 0.0527052 0.685111 0.104257 0.0541718 0.681478 
0.104125 0.055672 0.677363 0.103852 0.0570868 0.672899 0.103401 0.0583101 0.668188 
0.102744 0.0592587 0.663295 0.10186 0.0598797 0.658241 0.100737 0.0601542 0.652998 
0.09937 0.0600973 0.647499 0.0977581 0.059755 0.641648 0.0959025 0.0591966 0.635333 
0.0938021 0.0585068 0.628444 0.0914517 0.0577746 0.620888 0.0888402 0.0570837 0.612602 
0.0859506 0.0565038 0.603562 0.0827615 0.0560829 0.593786 0.0792499 0.055844 0.583332 
0.0753948 0.0557833 0.572288 0.0711817 0.0558723 0.560763 0.0666067 0.0560622 0.548869 
0.0616794 0.0562896 0.536711 0.0564244 0.0564847 0.524371 0.050881 0.056578 0.511903 
0.0451008 0.0565075 0.499323 0.0391426 0.0562246 0.486616 0.0330668 0.0556973 0.473739 
0.0269278 0.0549129 0.460629 0.0207671 0.0538776 0.44722 0.0146069 0.0526153 0.433451 
0.00844554 0.0511646 0.419278 0.00225589 0.0495758 0.404682 -0.00401369 0.047907 0.38967 
-0.0104348 0.0462209 0.374275 -0.0170918 0.044582 0.358548 -0.0240713 0.0430538 0.342546 
-0.0314513 0.0416977 0.326321 -0.0392891 0.0405713 0.309908 -0.0476098 0.0397275 0.293307 
-0.0563973 0.0392137 0.276486 -0.0655885 0.0390704 0.25937 -0.0750699 0.0393298 0.241847 
-0.0846807 0.0400141 0.223779 -0.0942177 0.041134 0.205015 -0.103446 0.0426868 0.185405 
-0.112112 0.044655 0.164823 -0.119957 0.0470062 0.143178 -0.126738 0.0496935 0.120435 
-0.132236 0.0526568 0.0966151 -0.136278 0.0558258 0.0718027 -0.138742 0.0591235 0.0461393 
-0.139569 0.0624711 0.0198124 -0.138765 0.0657915 -0.00696043 -0.136399 0.0690149 -0.0339499 
-0.132602 0.0720812 -0.0609351 -0.127555 0.0749433 -0.0877208 -0.12148 0.0775674 -0.114153 
-0.11462 0.0799327 -0.140125 -0.107232 0.082029 -0.165586 -0.0995651 0.0838541 -0.190529 
-0.091845 0.0854094 -0.214993 -0.0842635 0.0866963 -0.239037 -0.0769644 0.0877124 -0.262737 
-0.0700363 0.0884496 -0.286161 -0.0635077 0.0888927 -0.309359 -0.0573457 0.0890199 -0.332355 
-0.0514606 0.088805 -0.355135 -0.0457124 0.0882207 -0.377651 -0.0399226 0.0872424 -0.399823 
-0.0338889 0.0858527 -0.421551 -0.0274014 0.0840448 -0.44272 -0.0202614 0.0818256 -0.463216 
-0.0122994 0.0792162 -0.482934 -0.00339177 0.076252 -0.501791 0.0065242 0.0729798 -0.519728 
0.0174403 0.069454 -0.536714 0.0292718 0.065732 -0.552743 0.0418573 0.061869 -0.567827 
0.0549655 0.0579129 -0.581993 0.0683071 0.053901 -0.595272 0.0815524 0.0498581 -0.607691 
0.0943527 0.0457962 -0.619269 0.106365 0.0417172 -0.630013 0.117276 0.0376164 -0.639918 
0.126826 0.0334885 -0.648968 0.134829 0.0293337 -0.657145 0.141184 0.0251633 -0.664433 
0.145888 0.021005 -0.670821 0.149031 0.0169055 -0.676318 0.150786 0.012932 -0.680947 
0.151402 0.00916949 -0.684752 0.151171 0.00571651 -0.687791 0.150411 0.00267858 -0.690136 
0.149431 0.000159886 -0.691861 0.148507 -0.00174549 -0.693037 0.147856 -0.00296187 -0.693721 
0.147616 -0.00343894 -0.693951 
LINES 2 100
OFFSETS vtktypeint64
0 100 
CONNECTIVITY vtktypeint64
0 1 2 3 4 5 6 7 8 
9 10 11 12 13 14 15 16 17 
18 19 20 21 22 23 24 25 26 
27 28 29 30 31 32 33 34 35 
36 37 38 39 40 41 42 43 44 
45 46 47 48 49 50 51 52 53 
54 55 56 57 58 59 60 61 62 
63 64 65 66 67 68 69 70 71 
72 73 74 75 76 77 78 79 80 
81 82 83 84 85 86 87 88 89 
90 91 92 93 94 95 96 97 98 
99 
POINT_DATA 100
FIELD FieldData 3
_theta 1 100 double
0 0.031733259127 0.063466518254 0.095199777382 0.12693303651 0.15866629564 0.19039955476 0.22213281389 0.25386607302 
0.28559933214 0.31733259127 0.3490658504 0.38079910953 0.41253236865 0.44426562778 0.47599888691 0.50773214603 0.53946540516 
0.57119866429 0.60293192342 0.63466518254 0.66639844167 0.6981317008 0.72986495992 0.76159821905 0.79333147818 0.82506473731 
0.85679799643 0.88853125556 0.92026451469 0.95199777382 0.98373103294 1.0154642921 1.0471975512 1.0789308103 1.1106640695 
1.1423973286 1.1741305877 1.2058638468 1.237597106 1.2693303651 1.3010636242 1.3327968833 1.3645301425 1.3962634016 
1.4279966607 1.4597299198 1.491463179 1.5231964381 1.5549296972 1.5866629564 1.6183962155 1.6501294746 1.6818627337 
1.7135959929 1.745329252 1.7770625111 1.8087957702 1.8405290294 1.8722622885 1.9039955476 1.9357288068 1.9674620659 
1.999195325 2.0309285841 2.0626618433 2.0943951024 2.1261283615 2.1578616206 2.1895948798 2.2213281389 2.253061398 
2.2847946572 2.3165279163 2.3482611754 2.3799944345 2.4117276937 2.4434609528 2.4751942119 2.506927471 2.5386607302 
2.5703939893 2.6021272484 2.6338605076 2.6655937667 2.6973270258 2.7290602849 2.7607935441 2.7925268032 2.8242600623 
2.8559933214 2.8877265806 2.9194598397 2.9511930988 2.982926358 3.0146596171 3.0463928762 3.0781261353 3.1098593945 
3.1415926536 
_radius 1 100 double
3.6028832655e-16 0.013819074398 0.027667973889 0.041561992064 0.055496456836 0.069441008531 0.083337881862 0.097104258694 0.1106381986 
0.12382727856 0.13655885606 0.14873074905 0.16026105697 0.17109584799 0.18121357493 0.19062541078 0.19937119531 0.20751127992 
0.21511516757 0.22224841877 0.22895977994 0.23527076827 0.24116983363 0.24661257435 0.25152836867 0.25583247488 0.25944152804 
0.26228970679 0.26434277634 0.26560768114 0.26613620109 0.26602216416 0.26539257499 0.2643935974 0.26317263439 0.26185803484 
0.26053859183 0.25924611789 0.2579453925 0.25653539381 0.25486324514 0.25274884594 0.25001566926 0.24652246616 0.24219102717 
0.23702595656 0.23112337424 0.22466672006 0.2179096364 0.21114832007 0.20468830878 0.19881218898 0.19375391342 0.18968240358 
0.18669357989 0.18480774705 0.18396929159 0.18404775519 0.18484220698 0.18609246973 0.18749972962 0.18875562034 0.18957515411 
0.18972733732 0.18905853289 0.1875061887 0.18510279975 0.18197110144 0.17831129146 0.17438014975 0.17046279142 0.16684187178 
0.16376979914 0.16144387404 0.15998407031 0.15941906683 0.15968644427 0.16064703833 0.16210788169 0.16384623083 0.16562853766 
0.16722149303 0.16839569982 0.16892464181 0.16858243645 0.1671451472 0.16440163647 0.16017438764 0.1543405028 0.14684254038 
0.13768696307 0.12693394272 0.11468382427 0.10106481894 0.086224720456 0.070327278216 0.053551988258 0.036095017062 0.018168961349 
4.8245677901e-16 
_area 1 100 double
0 0.00048774709491 0.0019523091451 0.004395998304 0.0078179227719 0.01220902406 0.017548082718 0.02379951733 0.030912590603 
0.03882053459 0.047437600392 0.056653188546 0.066325541477 0.076280792124 0.086322892768 0.09625560251 0.10591222429 0.11518475257 
0.12404235901 0.13253008262 0.14074301634 0.14877976866 0.15668961615 0.16443431223 0.17188100195 0.1788281784 0.18505241688 
0.19035793843 0.19461365883 0.19776989352 0.19985555621 0.20096264419 0.2012266213 0.20080956472 0.19988762803 0.19863649942 
0.1972053563 0.19568167652 0.19403595511 0.19208612225 0.18971603304 0.18668370467 0.18264246453 0.17739834115 0.17095671928 
0.16350222849 0.15535544199 0.14691076323 0.13856167491 0.13063055584 0.1233285636 0.11676535143 0.11099916033 0.10608702792 
0.10209813971 0.099082295826 0.097014183784 0.095753798275 0.095060962567 0.094657013083 0.094274383126 0.093654151156 0.092526316946 
0.09064576076 0.087875845157 0.084228206623 0.079840694487 0.0749547052 0.069890202116 0.064978894699 0.060503956291 0.056693638914 
0.053733854574 0.051827045613 0.051083327765 0.051426663425 0.052595407861 0.054268028184 0.056060386784 0.057524372597 0.058317055608 
0.05829609579 0.057495185526 0.056081298756 0.054273475237 0.052211271627 0.049884046614 0.047263730131 0.044182334536 0.040516209326 
0.036268657816 0.031524283584 0.026415352044 0.021110625927 0.015823729254 0.010823867442 0.0064293460227 0.0029754690084 0.00076262895981 
4.3171791724e-17 
