# vtk DataFile Version 5.1
vtk output
ASCII
DATASET POLYDATA
POINTS 100 float
0.143533 0.0602455 0.709232 0.143413 0.0603922 0.708994 0.143093 0.0606732 0.708127 
0.142571 0.0610751 0.706627 0.141843 0.0615775 0.704486 0.140905 0.0621549 0.701694 
0.139755 0.062779 0.698247 0.138394 0.0634207 0.69414 0.136827 0.0640526 0.689378 
0.135062 0.0646504 0.683971 0.133115 0.0651943 0.677937 0.131 0.0656696 0.671302 
0.128736 0.0660665 0.6641 0.12634 0.0663795 0.65637 0.123824 0.0666059 0.648154 
0.121191 0.0667449 0.639496 0.118435 0.0667956 0.630437 0.115537 0.0667564 0.621014 
0.112466 0.0666234 0.61126 0.109175 0.066391 0.601198 0.10561 0.0660512 0.590845 
0.101706 0.0655948 0.580211 0.097398 0.0650126 0.569299 0.0926255 0.0642966 0.558108 
0.0873366 0.0634418 0.546634 0.0814967 0.0624472 0.534871 0.0750924 0.0613171 0.522814 
0.0681363 0.0600622 0.51046 0.0606681 0.0586993 0.497808 0.052754 0.0572515 0.484858 
0.0444837 0.0557476 0.471616 0.0359648 0.0542209 0.458085 0.0273149 0.0527085 0.44427 
0.0186527 0.0512497 0.430173 0.0100882 0.0498846 0.415796 0.00171418 0.0486532 0.401133 
-0.0064024 0.0475942 0.386177 -0.0142253 0.0467435 0.370912 -0.0217518 0.0461334 0.355321 
-0.0290117 0.0457917 0.339379 -0.0360626 0.04574 0.323058 -0.0429827 0.0459929 0.306326 
-0.0498598 0.0465567 0.28915 -0.0567791 0.0474282 0.271494 -0.063811 0.0485941 0.253324 
-0.0709977 0.05003 0.234606 -0.0783439 0.0517011 0.215309 -0.085809 0.0535622 0.195403 
-0.0933034 0.0555599 0.174865 -0.10069 0.0576349 0.153678 -0.10779 0.0597249 0.13183 
-0.11439 0.0617687 0.109321 -0.120259 0.06371 0.0861607 -0.125161 0.0655018 0.0623727 
-0.128874 0.0671095 0.0379937 -0.131202 0.0685138 0.0130758 -0.131994 0.0697122 -0.0123139 
-0.131151 0.0707186 -0.0380935 -0.128635 0.0715619 -0.0641685 -0.124472 0.0722822 -0.0904344 
-0.118747 0.0729267 -0.11678 -0.111597 0.0735435 -0.143092 -0.103204 0.0741754 -0.169258 
-0.093774 0.0748542 -0.195176 -0.083529 0.0755951 -0.220752 -0.0726867 0.0763929 -0.245909 
-0.0614488 0.0772195 -0.270588 -0.0499888 0.0780244 -0.294746 -0.0384439 0.0787366 -0.318362 
-0.0269107 0.0792688 -0.341428 -0.0154453 0.0795235 -0.36395 -0.00406681 0.0794007 -0.385943 
0.00723553 0.0788052 -0.407427 0.0184934 0.0776548 -0.428417 0.0297485 0.0758872 -0.448924 
0.0410422 0.0734654 -0.468949 0.0524055 0.0703814 -0.488478 0.0638511 0.0666573 -0.507484 
0.0753679 0.062345 -0.525925 0.0869187 0.0575224 -0.543744 0.0984397 0.0522889 -0.560876 
0.109844 0.0467592 -0.577251 0.121029 0.0410563 -0.592795 0.131878 0.0353044 -0.607439 
0.142274 0.0296223 -0.621123 0.152104 0.0241178 -0.633795 0.161268 0.0188833 -0.645423 
0.169685 0.0139929 -0.655988 0.177293 0.00950123 -0.665488 0.18406 0.00544374 -0.673939 
0.189976 0.00183798 -0.68137 0.195056 -0.00131383 -0.687821 0.199334 -0.00402168 -0.693342 
0.20286 -0.00630437 -0.697986 0.205695 -0.00818606 -0.701808 0.207901 -0.00969302 -0.704858 
0.209542 -0.0108507 -0.707184 0.210669 -0.0116814 -0.708821 0.211327 -0.0122021 -0.709798 
0.21154 -0.0124237 -0.710131 
LINES 2 100
OFFSETS vtktypeint64
0 100 
CONNECTIVITY vtktypeint64
0 1 2 3 4 5 6 7 8 
9 10 11 12 13 14 15 16 17 
18 19 20 21 22 23 24 25 26 
27 28 29 30 31 32 33 34 35 
36 37 38 39 40 41 42 43 44 
45 46 47 48 49 50 51 52 53 
54 55 56 57 58 59 60 61 62 
63 64 65 66 67 68 69 70 71 
72 73 74 75 76 77 78 79 80 
81 82 83 84 85 86 87 88 89 
90 91 92 93 94 95 96 97 98 
99 
POINT_DATA 100
FIELD FieldData 3
_theta 1 100 double
0 0.031733259127 0.063466518254 0.095199777382 0.12693303651 0.15866629564 0.19039955476 0.22213281389 0.25386607302 
0.28559933214 0.31733259127 0.3490658504 0.38079910953 0.41253236865 0.44426562778 0.47599888691 0.50773214603 0.53946540516 
0.57119866429 0.60293192342 0.63466518254 0.66639844167 0.6981317008 0.72986495992 0.76159821905 0.79333147818 0.82506473731 
0.85679799643 0.88853125556 0.92026451469 0.95199777382 0.98373103294 1.0154642921 1.0471975512 1.0789308103 1.1106640695 
1.1423973286 1.1741305877 1.2058638468 1.237597106 1.2693303651 1.3010636242 1.3327968833 1.3645301425 1.3962634016 
1.4279966607 1.4597299198 1.491463179 1.5231964381 1.5549296972 1.5866629564 1.6183962155 1.6501294746 1.6818627337 
1.7135959929 1.745329252 1.7770625111 1.8087957702 1.8405290294 1.8722622885 1.9039955476 1.9357288068 1.9674620659 
1.999195325 2.0309285841 2.0626618433 2.0943951024 2.1261283615 2.1578616206 2.1895948798 2.2213281389 2.253061398 
2.2847946572 2.3165279163 2.3482611754 2.3799944345 2.4117276937 2.4434609528 2.4751942119 2.506927471 2.5386607302 
2.5703939893 2.6021272484 2.6338605076 2.6655937667 2.6973270258 2.7290602849 2.7607935441 2.7925268032 2.8242600623 
2.8559933214 2.8877265806 2.9194598397 2.9511930988 2.982926358 3.0146596171 3.0463928762 3.0781261353 3.1098593945 
3.1415926536 
_radius 1 100 double
4.3316708651e-16 0.01422660465 0.028358986265 0.04229960835 0.055958064536 0.069255052309 0.08212631581 0.094526259294 0.10643065522 
0.11783761881 0.12876597342 0.13925045243 0.14933389907 0.1590575419 0.16845117306 0.17752530093 0.18626698283 0.19464022525 
0.20259083581 0.21005466217 0.21696746366 0.2232744249 0.22893763797 0.23394063599 0.23828992745 0.24201409058 0.24516113788 
0.2477946132 0.24998848939 0.25182069422 0.25336520431 0.25468312386 0.25581382681 0.2567677888 0.25752287948 0.25802546431 
0.25819671161 0.25794325905 0.25717028455 0.25579448692 0.25375472103 0.25101888279 0.24758666789 0.2434886208 0.23878227955 
0.23354631871 0.22787362604 0.22186435814 0.21562014032 0.20924050265 0.20282220759 0.19646135382 0.19025725888 0.1843164154 
0.17875449768 0.17369462787 0.16926101088 0.1655684411 0.1627094075 0.16074092768 0.15967290073 0.15945931583 0.15999389941 
0.16111300226 0.162608796 0.16425247429 0.1658219533 0.16712681434 0.16802589814 0.16843634029 0.16833461707 0.16775085689 
0.16675819024 0.16545937634 0.16397299833 0.16242090624 0.16091742866 0.15955966198 0.15841751802 0.15752260238 0.15685641085 
0.15634032961 0.15583156309 0.15512896111 0.1539898767 0.15215496515 0.14937512405 0.14543501422 0.14016974036 0.13347363639 
0.12530185611 0.11566648694 0.10462927661 0.092292937435 0.078792561063 0.064288124007 0.048958499026 0.032996866657 0.016607029104 
5.755400219e-16 
_area 1 100 double
0 0.00055682821497 0.0022080903986 0.0048972381011 0.0085340241137 0.013001179904 0.01816435304 0.023884629835 0.030031946386 
0.036497018848 0.043199344478 0.050089380525 0.057144277457 0.064358439255 0.071731866261 0.079259388036 0.086922299409 0.094682207117 
0.10247685587 0.11021911231 0.11780107028 0.12510391307 0.13201175901 0.1384264568 0.14428085699 0.14954927588 0.15425442819 
0.15846968422 0.16231427417 0.1659375136 0.16948851757 0.17307475879 0.17672510206 0.1803754844 0.1838803562 0.18703923277 
0.18962779734 0.19142754273 0.19225033632 0.19195579344 0.19046091987 0.1877428634 0.18383633792 0.1788269727 0.17284097928 
0.16603160008 0.15856429917 0.15060389726 0.14230662198 0.13381961072 0.12529012193 0.11688368753 0.10880320795 0.10129580138 
0.094652752485 0.089077637937 0.084570949503 0.081040248745 0.078341546699 0.076293589897 0.07470443495 0.0734163601 0.072364779145 
0.071603890464 0.071312482322 0.071342119951 0.071617213443 0.071977161793 0.072170569256 0.071928978483 0.071069924282 0.069553375974 
0.067485041512 0.065078303029 0.062581083507 0.06020281235 0.058098385872 0.056387895215 0.055160172771 0.054456025465 0.054240401026 
0.054382246443 0.054668186394 0.054838758194 0.054621765133 0.053763250318 0.052060615291 0.049392889354 0.045740558418 0.041190404168 
0.035925224506 0.03020153141 0.024319430086 0.018589239185 0.013300114776 0.0086959793806 0.0049623982455 0.002225227593 0.00055894064614 
2.8626325279e-17 
