# vtk DataFile Version 5.1
vtk output
ASCII
DATASET POLYDATA
POINTS 100 float
0.143655 0.0456224 0.699737 0.143946 0.0459915 0.699554 0.1449 0.0469554 0.698892 
0.146395 0.0484307 0.697764 0.148243 0.0502889 0.696191 0.150216 0.0523719 0.694193 
0.152068 0.0545103 0.691785 0.15357 0.0565421 0.688972 0.154528 0.0583309 0.685743 
0.154811 0.0597797 0.682067 0.154359 0.0608394 0.677896 0.153186 0.0615111 0.673166 
0.151373 0.0618415 0.667804 0.14905 0.0619134 0.661735 0.146374 0.0618306 0.654891 
0.143506 0.0617019 0.647219 0.140581 0.0616237 0.638691 0.13769 0.0616665 0.629304 
0.134864 0.0618641 0.61909 0.132069 0.0622089 0.608108 0.129208 0.0626533 0.596441 
0.126135 0.0631166 0.584189 0.122675 0.0634969 0.571459 0.118643 0.0636854 0.558353 
0.113877 0.0635827 0.544962 0.108256 0.0631128 0.53135 0.101715 0.0622355 0.517556 
0.0942611 0.0609527 0.503588 0.0859701 0.0593101 0.489424 0.0769788 0.0573937 0.47502 
0.0674686 0.0553203 0.460318 0.0576447 0.0532249 0.445251 0.0477106 0.0512467 0.429761 
0.0378448 0.0495138 0.413801 0.0281807 0.0481308 0.397347 0.0187931 0.0471693 0.380398 
0.00969345 0.046663 0.362982 0.000833251 0.0466072 0.345145 -0.00788309 0.0469641 0.326951 
-0.0165793 0.0476704 0.30847 -0.0253838 0.048648 0.289768 -0.0344048 0.0498161 0.270896 
-0.0437079 0.0511012 0.251883 -0.0532985 0.0524455 0.23273 -0.0631109 0.0538123 0.213408 
-0.0730071 0.0551869 0.193857 -0.0827836 0.0565743 0.173995 -0.0921867 0.0579931 0.153726 
-0.100934 0.0594681 0.132948 -0.108738 0.0610219 0.11157 -0.115335 0.0626668 0.0895177 
-0.120505 0.0643989 0.066748 -0.124096 0.0661957 0.0432536 -0.12603 0.0680159 0.0190671 
-0.126313 0.069803 -0.00573976 -0.125029 0.0714917 -0.0310602 -0.122332 0.0730156 -0.0567596 
-0.118431 0.0743154 -0.0826856 -0.113566 0.0753463 -0.108678 -0.107994 0.076083 -0.134582 
-0.101967 0.0765221 -0.160254 -0.0957127 0.0766812 -0.185571 -0.0894254 0.0765938 -0.210438 
-0.0832557 0.0763027 -0.234785 -0.0773072 0.0758515 -0.258569 -0.071637 0.0752749 -0.281771 
-0.0662598 0.074591 -0.30439 -0.0611534 0.0737953 -0.326436 -0.0562657 0.0728584 -0.347925 
-0.0515224 0.0717267 -0.368874 -0.0468328 0.0703274 -0.389294 -0.0420962 0.0685763 -0.409191 
-0.0372072 0.0663881 -0.428561 -0.0320604 0.0636874 -0.447394 -0.0265554 0.0604191 -0.46567 
-0.0206025 0.0565568 -0.483366 -0.0141286 0.0521089 -0.500458 -0.00708429 0.0471196 -0.516916 
0.000549065 0.0416675 -0.532717 0.00875299 0.0358593 -0.547835 0.0174667 0.0298211 -0.562247 
0.0265847 0.023688 -0.575934 0.0359577 0.017593 -0.588873 0.0453979 0.0116569 -0.601045 
0.0546884 0.00598045 -0.612431 0.063597 0.000639053 -0.623012 0.0718925 -0.00431906 -0.63277 
0.0793636 -0.00887132 -0.641692 0.0858365 -0.0130166 -0.649768 0.0911914 -0.0167689 -0.656996 
0.0953737 -0.0201505 -0.663384 0.0984002 -0.0231846 -0.668948 0.100358 -0.02589 -0.673714 
0.101398 -0.028277 -0.677717 0.101716 -0.0303459 -0.680999 0.10154 -0.0320879 -0.683604 
0.101099 -0.0334872 -0.685578 0.100604 -0.0345257 -0.686958 0.100225 -0.0351864 -0.687776 
0.100072 -0.0354576 -0.688052 
LINES 2 100
OFFSETS vtktypeint64
0 100 
CONNECTIVITY vtktypeint64
0 1 2 3 4 5 6 7 8 
9 10 11 12 13 14 15 16 17 
18 19 20 21 22 23 24 25 26 
27 28 29 30 31 32 33 34 35 
36 37 38 39 40 41 42 43 44 
45 46 47 48 49 50 51 52 53 
54 55 56 57 58 59 60 61 62 
63 64 65 66 67 68 69 70 71 
72 73 74 75 76 77 78 79 80 
81 82 83 84 85 86 87 88 89 
90 91 92 93 94 95 96 97 98 
99 
POINT_DATA 100
FIELD FieldData 3
_theta 1 100 double
0 0.031733259127 0.063466518254 0.095199777382 0.12693303651 0.15866629564 0.19039955476 0.22213281389 0.25386607302 
0.28559933214 0.31733259127 0.3490658504 0.38079910953 0.41253236865 0.44426562778 0.47599888691 0.50773214603 0.53946540516 
0.57119866429 0.60293192342 0.63466518254 0.66639844167 0.6981317008 0.72986495992 0.76159821905 0.79333147818 0.82506473731 
0.85679799643 0.88853125556 0.92026451469 0.95199777382 0.98373103294 1.0154642921 1.0471975512 1.0789308103 1.1106640695 
1.1423973286 1.1741305877 1.2058638468 1.237597106 1.2693303651 1.3010636242 1.3327968833 1.3645301425 1.3962634016 
1.4279966607 1.4597299198 1.491463179 1.5231964381 1.5549296972 1.5866629564 1.6183962155 1.6501294746 1.6818627337 
1.7135959929 1.745329252 1.7770625111 1.8087957702 1.8405290294 1.8722622885 1.9039955476 1.9357288068 1.9674620659 
1.999195325 2.0309285841 2.0626618433 2.0943951024 2.1261283615 2.1578616206 2.1895948798 2.2213281389 2.253061398 
2.2847946572 2.3165279163 2.3482611754 2.3799944345 2.4117276937 2.4434609528 2.4751942119 2.506927471 2.5386607302 
2.5703939893 2.6021272484 2.6338605076 2.6655937667 2.6973270258 2.7290602849 2.7607935441 2.7925268032 2.8242600623 
2.8559933214 2.8877265806 2.9194598397 2.9511930988 2.982926358 3.0146596171 3.0463928762 3.0781261353 3.1098593945 
3.1415926536 
_radius 1 100 double
4.4457683312e-16 0.016207043255 0.032274643788 0.04806704582 0.063461794737 0.078354003644 0.092658336837 0.10630886826 0.11925721446 
0.13146931139 0.14292108866 0.15359334777 0.16346646452 0.17251594622 0.180710086 0.18801075615 0.19437776068 0.19977629312 
0.20418617721 0.20761097926 0.21008499874 0.21167665648 0.21248776022 0.21264917675 0.21231419233 0.21165101569 0.21083530669 
0.21004247905 0.20943857335 0.20916860702 0.20934267923 0.21002199665 0.21120826273 0.212839799 0.2147963513 0.2169123824 
0.21899655554 0.22085371985 0.22230537831 0.22320536868 0.22344900646 0.22297571556 0.22176668223 0.21983990919 0.21724500617 
0.21405914613 0.21038411516 0.20634286636 0.20207334644 0.19771850438 0.19341420921 0.18927920851 0.18541064189 0.18188530442 
0.17876405791 0.17609644806 0.17392367337 0.17227895059 0.17118468096 0.17064626524 0.17064350127 0.17112193736 0.17198730055 
0.17310550914 0.17430936171 0.17541170401 0.17622388849 0.1765772676 0.17634436362 0.17545597242 0.17391118238 0.17177862653 
0.16918863288 0.16631722452 0.16336429743 0.16052947743 0.15798927716 0.15587781802 0.15427163916 0.15317860767 0.15253172953 
0.15218934846 0.15194287978 0.15153209775 0.15066668888 0.14905167229 0.14641356299 0.14252397309 0.1372177683 0.13040380388 
0.12206742037 0.11226506004 0.1011124117 0.088768287293 0.075416879288 0.061251070561 0.046459082926 0.03121604437 0.015681138974 
1.0838597825e-15 
_area 1 100 double
0 0.0004701001634 0.0018718331623 0.0041811201563 0.0073621645375 0.011370864427 0.016155334355 0.021652526438 0.02778206664 
0.034440007128 0.041495359071 0.048791159733 0.056150460848 0.063386595434 0.070316245943 0.076773258932 0.082621267675 0.087763968007 
0.092152487623 0.095788942234 0.098724931513 0.10105585901 0.10291693613 0.10449293308 0.10604764889 0.10774324757 0.10950904787 
0.1113523408 0.11333254156 0.11551666092 0.11795906789 0.12068659008 0.123688662 0.12691424238 0.13027505233 0.13365215619 
0.13690231404 0.13986332273 0.1423624916 0.14423234865 0.14532955318 0.14554837049 0.14482522424 0.14313796039 0.14050647541 
0.13699889389 0.13274070234 0.12791828276 0.12276633946 0.11752833297 0.11239104061 0.10743938632 0.10268162556 0.098110875435 
0.093748751789 0.089659584997 0.085941034296 0.082697704375 0.080003602966 0.077864096956 0.076210148579 0.074936545883 0.073939246294 
0.073128945392 0.072430424698 0.071771768905 0.071076245237 0.070267771945 0.069289377871 0.068122462632 0.06678757905 0.065322294577 
0.063773112019 0.062216588254 0.060759631519 0.059508142699 0.058543283252 0.057916053674 0.057641944363 0.057686981899 0.057954182664 
0.058282350595 0.058461530227 0.05826065351 0.057458986424 0.055874627032 0.053387273077 0.049955020545 0.045624603539 0.040532719025 
0.034895435297 0.028984578018 0.023094104981 0.017504005457 0.012451577449 0.0081179367734 0.0046311520046 0.0020793592575 0.0005231079755 
3.2099158916e-17 
