# vtk DataFile Version 5.1
vtk output
ASCII
DATASET POLYDATA
POINTS 100 float
0.121731 0.059949 0.710713 0.121723 0.0601749 0.710131 0.121743 0.0606914 0.708238 
0.121753 0.0614509 0.705107 0.121697 0.0623807 0.700856 0.121506 0.0633921 0.695631 
0.121101 0.0643908 0.689592 0.12041 0.0652872 0.682904 0.11937 0.0660068 0.675712 
0.117933 0.0664968 0.668138 0.116075 0.0667305 0.660268 0.113791 0.0667067 0.652153 
0.1111 0.0664469 0.643804 0.108039 0.0659885 0.635209 0.104654 0.065377 0.626331 
0.100999 0.0646568 0.61713 0.0971253 0.0638638 0.607568 0.093074 0.0630198 0.597619 
0.0888736 0.0621298 0.587279 0.084536 0.0611825 0.576569 0.0800561 0.0601552 0.56553 
0.0754142 0.0590195 0.554221 0.0705804 0.0577499 0.54271 0.0655203 0.0563317 0.531064 
0.0602018 0.0547682 0.519342 0.0546015 0.0530845 0.507582 0.0487097 0.0513286 0.495797 
0.0425336 0.0495685 0.483975 0.0360983 0.047886 0.472077 0.0294449 0.0463667 0.460042 
0.0226258 0.0450901 0.447799 0.015699 0.0441184 0.435273 0.00872036 0.043488 0.422395 
0.00173627 0.0432028 0.40911 -0.00522282 0.0432332 0.395385 -0.0121469 0.0435188 0.381209 
-0.0190483 0.0439757 0.366592 -0.0259599 0.0445075 0.351558 -0.0329307 0.0450191 0.336142 
-0.040018 0.0454304 0.320371 -0.0472774 0.0456888 0.304263 -0.0547515 0.0457788 0.287812 
-0.0624595 0.0457265 0.270987 -0.070387 0.0455994 0.253725 -0.0784793 0.0454996 0.235937 
-0.0866381 0.0455528 0.217514 -0.0947224 0.0458931 0.198337 -0.102554 0.0466459 0.178288 
-0.109926 0.0479118 0.15727 -0.116617 0.0497513 0.135213 -0.122406 0.0521756 0.112088 
-0.127087 0.0551414 0.0879127 -0.130484 0.0585531 0.0627549 -0.132464 0.0622704 0.0367284 
-0.132948 0.0661216 0.00998625 -0.131913 0.0699202 -0.0172907 -0.129394 0.0734832 -0.0449069 
-0.125476 0.0766487 -0.0726658 -0.120291 0.0792908 -0.100383 -0.113997 0.0813296 -0.127898 
-0.106771 0.082736 -0.155077 -0.0987916 0.0835293 -0.181822 -0.0902233 0.0837706 -0.208064 
-0.0812075 0.0835499 -0.233759 -0.0718537 0.0829715 -0.258883 -0.0622357 0.0821377 -0.283421 
-0.0523921 0.0811345 -0.307359 -0.0423314 0.0800194 -0.330676 -0.0320388 0.0788151 -0.353342 
-0.0214875 0.0775072 -0.375313 -0.010649 0.0760488 -0.396534 0.000496206 0.0743684 -0.416946 
0.0119494 0.0723824 -0.436487 0.0236876 0.0700089 -0.455106 0.0356605 0.0671815 -0.472765 
0.0477912 0.0638606 -0.489447 0.0599806 0.0600424 -0.505156 0.0721139 0.0557616 -0.519922 
0.0840699 0.0510906 -0.533792 0.0957306 0.0461336 -0.546828 0.106991 0.0410168 -0.559096 
0.117764 0.0358762 -0.570662 0.127993 0.0308453 -0.581579 0.137644 0.0260427 -0.591884 
0.146713 0.0215632 -0.601594 0.155219 0.0174714 -0.610704 0.163196 0.0137997 -0.61919 
0.170686 0.0105506 -0.627015 0.17773 0.00770167 -0.634136 0.18436 0.0052135 -0.640515 
0.19059 0.0030384 -0.646123 0.196414 0.00112912 -0.650947 0.201801 -0.000554048 -0.654999 
0.2067 -0.0020384 -0.65831 0.211041 -0.00333681 -0.660933 0.214745 -0.00444852 -0.662933 
0.217728 -0.00536227 -0.664382 0.219915 -0.006061 -0.66535 0.221246 -0.00652706 -0.665894 
0.221679 -0.0067469 -0.666053 
LINES 2 100
OFFSETS vtktypeint64
0 100 
CONNECTIVITY vtktypeint64
0 1 2 3 4 5 6 7 8 
9 10 11 12 13 14 15 16 17 
18 19 20 21 22 23 24 25 26 
27 28 29 30 31 32 33 34 35 
36 37 38 39 40 41 42 43 44 
45 46 47 48 49 50 51 52 53 
54 55 56 57 58 59 60 61 62 
63 64 65 66 67 68 69 70 71 
72 73 74 75 76 77 78 79 80 
81 82 83 84 85 86 87 88 89 
90 91 92 93 94 95 96 97 98 
99 
POINT_DATA 100
FIELD FieldData 3
_theta 1 100 double
0 0.031733259127 0.063466518254 0.095199777382 0.12693303651 0.15866629564 0.19039955476 0.22213281389 0.25386607302 
0.28559933214 0.31733259127 0.3490658504 0.38079910953 0.41253236865 0.44426562778 0.47599888691 0.50773214603 0.53946540516 
0.57119866429 0.60293192342 0.63466518254 0.66639844167 0.6981317008 0.72986495992 0.76159821905 0.79333147818 0.82506473731 
0.85679799643 0.88853125556 0.92026451469 0.95199777382 0.98373103294 1.0154642921 1.0471975512 1.0789308103 1.1106640695 
1.1423973286 1.1741305877 1.2058638468 1.237597106 1.2693303651 1.3010636242 1.3327968833 1.3645301425 1.3962634016 
1.4279966607 1.4597299198 1.491463179 1.5231964381 1.5549296972 1.5866629564 1.6183962155 1.6501294746 1.6818627337 
1.7135959929 1.745329252 1.7770625111 1.8087957702 1.8405290294 1.8722622885 1.9039955476 1.9357288068 1.9674620659 
1.999195325 2.0309285841 2.0626618433 2.0943951024 2.1261283615 2.1578616206 2.1895948798 2.2213281389 2.253061398 
2.2847946572 2.3165279163 2.3482611754 2.3799944345 2.4117276937 2.4434609528 2.4751942119 2.506927471 2.5386607302 
2.5703939893 2.6021272484 2.6338605076 2.6655937667 2.6973270258 2.7290602849 2.7607935441 2.7925268032 2.8242600623 
2.8559933214 2.8877265806 2.9194598397 2.9511930988 2.982926358 3.0146596171 3.0463928762 3.0781261353 3.1098593945 
3.1415926536 
_radius 1 100 double
2.1733253757e-16 0.013602906058 0.027133735507 0.040515616315 0.0536755973 0.066547957875 0.079077997067 0.091225691069 0.1029682917 
0.11430085561 0.12523397516 0.13578867731 0.14598942944 0.15585703428 0.16540337548 0.17462921157 0.18352483216 0.19207218819 
0.20024678791 0.20801831403 0.21535007446 0.22219836573 0.22851313863 0.23424093282 0.23933015092 0.24373778479 0.24743606713 
0.25041741602 0.25269646932 0.25430878195 0.25530659537 0.25575271112 0.25571373002 0.2552537214 0.25442888121 0.25328316552 
0.25184453624 0.25012162021 0.24810145 0.24575016002 0.24301873065 0.23985406642 0.23621299288 0.23207527563 0.22745212865 
0.22238830357 0.21695811372 0.21125788543 0.20539827537 0.19949899846 0.19368631291 0.18809152748 0.18284802269 0.1780851419 
0.17391928995 0.17044435616 0.16772356946 0.16578300822 0.16460582284 0.16412855266 0.16424461712 0.16481876111 0.16570921325 
0.16678954467 0.16796390489 0.16917330677 0.17039334556 0.17162540503 0.17288462071 0.17418818341 0.17554655795 0.17695833294 
0.17840780303 0.17986384113 0.18127912539 0.18258970795 0.18371558755 0.18456303535 0.18502893611 0.18500663079 0.18439209785 
0.18308914464 0.18101268325 0.17808990794 0.17425987837 0.16947234494 0.16368658094 0.15687068464 0.14900151775 0.14006530024 
0.13005888733 0.11899180465 0.10688908621 0.093794779357 0.079775682806 0.06492457956 0.049362055637 0.033236057661 0.016718658277 
1.3710690168e-15 
_area 1 100 double
0 0.00051801547206 0.002059163204 0.0045830297642 0.0080181322527 0.012260280041 0.01717650941 0.022616260759 0.028428859693 
0.034484208599 0.040692242158 0.047015936507 0.053472370871 0.060117492726 0.067015172367 0.074200315306 0.081652528914 0.089292179236 
0.096997592955 0.10463265253 0.11207296281 0.11922265391 0.12601905996 0.132427292 0.1384298935 0.14401725795 0.14918231063 
0.15391990014 0.1582297916 0.16212254936 0.16562533024 0.16876953367 0.17153824133 0.17382287467 0.1754593803 0.17630154303 
0.17626834212 0.17533627113 0.17349549416 0.1707709998 0.16729200621 0.1630679426 0.15810313112 0.1524850429 0.14637143771 
0.13991651684 0.13334301228 0.12683937376 0.12049734309 0.11436732684 0.10851205564 0.10301183311 0.097927010694 0.09325444273 
0.088929993992 0.084919433349 0.081268100479 0.078013211229 0.075172954062 0.072764090786 0.070755017207 0.069059102707 0.067572047996 
0.066215878031 0.064967146567 0.063862360778 0.062975938829 0.062410340982 0.062333915804 0.062520366305 0.06274225973 0.062886784411 
0.062899231144 0.062773169371 0.06254207611 0.062269004293 0.062036390086 0.061931780441 0.062020675066 0.062294370846 0.062722794655 
0.063269088421 0.063720611428 0.06369910058 0.062973250446 0.061398001719 0.058893461306 0.055443581712 0.051097400984 0.045966656928 
0.040218307476 0.03406319001 0.02774305785 0.021517863988 0.015653978566 0.010412759491 0.0060382778554 0.0027434398612 0.0006950682432 
1.9544605707e-16 
