# vtk DataFile Version 5.1
vtk output
ASCII
DATASET POLYDATA
POINTS 100 float
0.153992 0.0390488 0.785084 0.154051 0.039392 0.784954 0.154309 0.0402835 0.784393 
0.154713 0.0416757 0.783375 0.15518 0.0434952 0.781865 0.155608 0.0456487 0.779814 
0.155886 0.0480313 0.777166 0.155902 0.0505343 0.77386 0.155553 0.0530533 0.769835 
0.154758 0.0554949 0.765034 0.153456 0.0577817 0.759408 0.151612 0.0598547 0.752922 
0.149214 0.0616738 0.745558 0.146266 0.0632161 0.737319 0.142783 0.0644725 0.72823 
0.138788 0.065444 0.718336 0.134296 0.0661368 0.707703 0.129317 0.066559 0.696413 
0.123853 0.0667174 0.684557 0.117892 0.0666167 0.672229 0.11142 0.0662591 0.65952 
0.10442 0.0656461 0.646509 0.0968819 0.0647807 0.633259 0.0888083 0.0636705 0.619809 
0.0802215 0.06233 0.606176 0.0711659 0.0607826 0.592352 0.0617086 0.0590616 0.578306 
0.0519366 0.0572097 0.563991 0.0419503 0.0552767 0.549348 0.0318545 0.0533171 0.534313 
0.0217482 0.0513865 0.518823 0.0117143 0.0495375 0.502821 0.00181067 0.0478172 0.486261 
-0.00793564 0.0462648 0.469108 -0.0175301 0.0449103 0.451337 -0.0270077 0.0437758 0.432932 
-0.0364262 0.0428772 0.41388 -0.0458535 0.042227 0.394167 -0.0553548 0.0418376 0.373774 
-0.0649765 0.0417248 0.352669 -0.0747322 0.0419098 0.330813 -0.0845909 0.0424201 0.308156 
-0.0944696 0.0432889 0.284642 -0.104232 0.0445522 0.260215 -0.113691 0.0462446 0.23483 
-0.122621 0.0483941 0.20846 -0.130773 0.0510158 0.181105 -0.13789 0.054107 0.1528 
-0.14373 0.0576429 0.123622 -0.148085 0.0615743 0.0936863 -0.150801 0.0658279 0.0631492 
-0.151784 0.0703095 0.0321976 -0.151016 0.0749092 0.00103947 -0.148548 0.0795089 -0.0301093 
-0.144501 0.0839905 -0.0610391 -0.139052 0.0882451 -0.0915612 -0.132421 0.0921803 -0.12152 
-0.124853 0.0957261 -0.1508 -0.116599 0.0988379 -0.179335 -0.1079 0.101497 -0.207104 
-0.0989723 0.103707 -0.234128 -0.0899964 0.105488 -0.260462 -0.0811117 0.106869 -0.286182 
-0.0724135 0.107881 -0.311372 -0.0639555 0.108546 -0.336111 -0.0557549 0.108872 -0.360463 
-0.0477995 0.108849 -0.384466 -0.0400562 0.108445 -0.40813 -0.0324788 0.107614 -0.431434 
-0.0250155 0.106295 -0.454335 -0.0176147 0.104427 -0.476771 -0.0102288 0.101954 -0.498671 
-0.0028177 0.0988346 -0.519966 0.00465034 0.0950551 -0.5406 0.012197 0.090633 -0.560535 
0.0198333 0.0856216 -0.579752 0.0275581 0.0801098 -0.598257 0.0353562 0.0742173 -0.616071 
0.0431969 0.0680877 -0.633227 0.0510314 0.0618772 -0.649759 0.0587916 0.0557436 -0.665689 
0.0663899 0.0498336 -0.681024 0.0737206 0.0442725 -0.695745 0.0806637 0.0391556 -0.709803 
0.0870915 0.0345433 -0.723125 0.0928766 0.0304601 -0.735615 0.0979024 0.026897 -0.747165 
0.102074 0.0238174 -0.757668 0.105328 0.0211658 -0.767029 0.107644 0.0188767 -0.775183 
0.109045 0.0168845 -0.782098 0.109608 0.0151317 -0.78779 0.109452 0.0135749 -0.792317 
0.108737 0.012188 -0.795781 0.107651 0.0109626 -0.798319 0.106395 0.00990553 -0.800086 
0.105166 0.00903391 -0.801243 0.104139 0.00836954 -0.801937 0.103453 0.00793288 -0.802288 
0.103197 0.00773792 -0.802374 
LINES 2 100
OFFSETS vtktypeint64
0 100 
CONNECTIVITY vtktypeint64
0 1 2 3 4 5 6 7 8 
9 10 11 12 13 14 15 16 17 
18 19 20 21 22 23 24 25 26 
27 28 29 30 31 32 33 34 35 
36 37 38 39 40 41 42 43 44 
45 46 47 48 49 50 51 52 53 
54 55 56 57 58 59 60 61 62 
63 64 65 66 67 68 69 70 71 
72 73 74 75 76 77 78 79 80 
81 82 83 84 85 86 87 88 89 
90 91 92 93 94 95 96 97 98 
99 
POINT_DATA 100
FIELD FieldData 3
_theta 1 100 double
0 0.031733259127 0.063466518254 0.095199777382 0.12693303651 0.15866629564 0.19039955476 0.22213281389 0.25386607302 
0.28559933214 0.31733259127 0.3490658504 0.38079910953 0.41253236865 0.44426562778 0.47599888691 0.50773214603 0.53946540516 
0.57119866429 0.60293192342 0.63466518254 0.66639844167 0.6981317008 0.72986495992 0.76159821905 0.79333147818 0.82506473731 
0.85679799643 0.88853125556 0.92026451469 0.95199777382 0.98373103294 1.0154642921 1.0471975512 1.0789308103 1.1106640695 
1.1423973286 1.1741305877 1.2058638468 1.237597106 1.2693303651 1.3010636242 1.3327968833 1.3645301425 1.3962634016 
1.4279966607 1.4597299198 1.491463179 1.5231964381 1.5549296972 1.5866629564 1.6183962155 1.6501294746 1.6818627337 
1.7135959929 1.745329252 1.7770625111 1.8087957702 1.8405290294 1.8722622885 1.9039955476 1.9357288068 1.9674620659 
1.999195325 2.0309285841 2.0626618433 2.0943951024 2.1261283615 2.1578616206 2.1895948798 2.2213281389 2.253061398 
2.2847946572 2.3165279163 2.3482611754 2.3799944345 2.4117276937 2.4434609528 2.4751942119 2.506927471 2.5386607302 
2.5703939893 2.6021272484 2.6338605076 2.6655937667 2.6973270258 2.7290602849 2.7607935441 2.7925268032 2.8242600623 
2.8559933214 2.8877265806 2.9194598397 2.9511930988 2.982926358 3.0146596171 3.0463928762 3.0781261353 3.1098593945 
3.1415926536 
_radius 1 100 double
4.5443133506e-16 0.017652240646 0.035068503648 0.052027835987 0.068343180543 0.083873178654 0.098528400094 0.1122714551 0.12511132278 
0.13709305799 0.14828470012 0.15876357711 0.16860413528 0.17786884941 0.1866028178 0.19483172178 0.20256234929 0.20978498023 
0.21647736638 0.22261037155 0.2281552257 0.2330917807 0.23741646121 0.24114816129 0.24433033917 0.24702801253 0.24931921881 
0.25128174745 0.252977408 0.25443730011 0.25565181975 0.25656808877 0.25709549912 0.25711804829 0.25651089385 0.25515826098 
0.25297020931 0.24989641081 0.24593574367 0.24114107155 0.23561905481 0.22952524777 0.22305506268 0.21643138478 0.20988967893 
0.20366142697 0.19795691594 0.19294899187 0.18876023847 0.18545640208 0.18304796845 0.18149959839 0.18074458834 0.18069980957 
0.18127644 0.18238350327 0.18392451911 0.18579120161 0.18785980527 0.18999369993 0.19205137637 0.19389609858 0.19540394256 
0.19646947443 0.19701018614 0.19697097785 0.19632905495 0.19509860012 0.19333400347 0.19113028687 0.1886195193 0.18596245291 
0.1833353374 0.18091287273 0.17884929604 0.177260188 0.17620738709 0.17568859731 0.17563233394 0.17589816774 0.17628207531 
0.17652710098 0.17633991816 0.17541330775 0.17345279629 0.17020378633 0.16547485054 0.15915372048 0.15121410463 0.14171303972 
0.13077973108 0.11859778175 0.10538338393 0.091362424801 0.076749487015 0.061731357951 0.046456906235 0.031034128906 0.015534024968 
4.3476081518e-16 
_area 1 100 double
0 0.00069417496954 0.0027343218377 0.0060007966503 0.010317345736 0.015480039492 0.021287872614 0.027568345515 0.03419276923 
0.041078627554 0.048179700519 0.055468158555 0.062915421855 0.070479039962 0.078100071327 0.085709795447 0.093239845787 0.1006295216 
0.10782691833 0.11478423347 0.12145155786 0.12777588129 0.13370966484 0.13922684423 0.14433855826 0.14909884583 0.1535918413 
0.15789840617 0.16205234215 0.16600688355 0.16962959279 0.17272754872 0.17508839668 0.17651819972 0.1768634527 0.17601615128 
0.17391185088 0.1705323786 0.16591402581 0.16015307318 0.15340569605 0.14588961737 0.13788868195 0.1297439056 0.12181903068 
0.11445053952 0.10790285797 0.10234354169 0.097838733678 0.094355937933 0.091762714875 0.089840776811 0.08834711164 0.087092391322 
0.0859793389 0.084992299976 0.084191561498 0.083533416308 0.083002282708 0.082559764419 0.082283203268 0.082208792264 0.082285360355 
0.082427018398 0.082494242916 0.082334684711 0.081825864631 0.080899505357 0.079548803948 0.077833119192 0.075878364337 0.073859953896 
0.07197037193 0.070384053061 0.069230158111 0.068581205175 0.068515872978 0.0690018113 0.069829720574 0.070873817853 0.07199929913 
0.073084219125 0.073975407061 0.074380494886 0.073854889042 0.07202872194 0.068713395201 0.063902777334 0.057761792795 0.050599552364 
0.042823758739 0.034883002448 0.02720805495 0.020163474899 0.014017942535 0.0089369117764 0.0049956924042 0.0022063231011 0.00054906955436 
5.5727991666e-17 
