# vtk DataFile Version 5.1
vtk output
ASCII
DATASET POLYDATA
POINTS 100 float
0.0917861 0.0505804 0.677819 0.0919487 0.0508167 0.677555 0.0924585 0.0513591 0.676603 
0.0932744 0.0521602 0.674978 0.0943307 0.0531488 0.672709 0.0955426 0.0542382 0.669831 
0.0968113 0.0553363 0.666381 0.0980312 0.0563562 0.662395 0.0990967 0.0572259 0.657902 
0.099909 0.057896 0.652925 0.100382 0.0583436 0.647477 0.100449 0.0585735 0.641561 
0.100061 0.0586152 0.635174 0.0991931 0.0585173 0.628307 0.0978415 0.058339 0.620951 
0.0960203 0.0581407 0.6131 0.0937574 0.0579753 0.604753 0.0910898 0.0578799 0.595919 
0.0880568 0.0578706 0.586616 0.0846946 0.0579401 0.576872 0.0810311 0.0580593 0.566724 
0.077083 0.0581807 0.556213 0.0728532 0.0582457 0.545382 0.0683322 0.0581928 0.534271 
0.0635007 0.0579658 0.522917 0.0583333 0.0575221 0.511345 0.0528053 0.0568383 0.499574 
0.0468984 0.0559137 0.487612 0.0406072 0.0547701 0.475458 0.0339438 0.0534492 0.463108 
0.0269414 0.0520075 0.450553 0.0196545 0.0505085 0.437784 0.0121574 0.0490156 0.424796 
0.0045393 0.0475842 0.411587 -0.00310262 0.0462564 0.39816 -0.0106714 0.045057 0.384521 
-0.0180791 0.0439932 0.370675 -0.0252555 0.0430571 0.356624 -0.0321543 0.04223 0.342362 
-0.0387577 0.0414898 0.32787 -0.0450766 0.0408178 0.313115 -0.051148 0.0402067 0.298044 
-0.0570286 0.0396658 0.282591 -0.0627855 0.0392245 0.26667 -0.0684848 0.0389328 0.250191 
-0.0741797 0.038858 0.233055 -0.0798991 0.0390789 0.215171 -0.0856383 0.0396775 0.196459 
-0.0913534 0.0407287 0.176857 -0.0969591 0.0422905 0.156332 -0.102332 0.0443949 0.134879 
-0.107318 0.0470409 0.112526 -0.111742 0.0501912 0.0893313 -0.115424 0.0537716 0.0653795 
-0.118194 0.057675 0.0407769 -0.119906 0.0617686 0.0156432 -0.120449 0.0659039 -0.00989693 
-0.119763 0.069928 -0.0357208 -0.117835 0.0736951 -0.0617152 -0.114708 0.0770778 -0.0877806 
-0.110468 0.0799755 -0.113834 -0.105241 0.0823198 -0.13981 -0.0991767 0.0840769 -0.165657 
-0.0924341 0.0852459 -0.191334 -0.0851682 0.0858537 -0.216808 -0.0775158 0.0859479 -0.242045 
-0.0695853 0.0855874 -0.267008 -0.06145 0.0848332 -0.291654 -0.0531471 0.0837397 -0.315928 
-0.0446796 0.0823473 -0.339767 -0.0360242 0.0806788 -0.363101 -0.0271404 0.0787371 -0.385854 
-0.0179827 0.0765075 -0.407951 -0.00851224 0.0739617 -0.429317 0.00129244 0.0710642 -0.44989 
0.0114276 0.0677804 -0.469614 0.0218598 0.0640838 -0.488447 0.0325251 0.059964 -0.506359 
0.0433325 0.0554316 -0.523332 0.0541706 0.0505223 -0.539354 0.0649159 0.0452971 -0.554421 
0.0754436 0.0398405 -0.568527 0.0856366 0.0342563 -0.581669 0.0953943 0.0286613 -0.593837 
0.104638 0.0231773 -0.605022 0.113315 0.0179232 -0.61521 0.121396 0.0130071 -0.62439 
0.128875 0.00851914 -0.632555 0.135761 0.00452649 -0.639708 0.142071 0.00106988 -0.645866 
0.147826 -0.00183743 -0.651063 0.153042 -0.00420851 -0.655349 0.157722 -0.00607962 -0.658796 
0.161863 -0.00750531 -0.661489 0.165443 -0.0085524 -0.663526 0.168435 -0.00929321 -0.665007 
0.170805 -0.00979865 -0.666031 0.172516 -0.0101317 -0.666683 0.17354 -0.0103419 -0.667032 
0.173855 -0.0104608 -0.667121 
LINES 2 100
OFFSETS vtktypeint64
0 100 
CONNECTIVITY vtktypeint64
0 1 2 3 4 5 6 7 8 
9 10 11 12 13 14 15 16 17 
18 19 20 21 22 23 24 25 26 
27 28 29 30 31 32 33 34 35 
36 37 38 39 40 41 42 43 44 
45 46 47 48 49 50 51 52 53 
54 55 56 57 58 59 60 61 62 
63 64 65 66 67 68 69 70 71 
72 73 74 75 76 77 78 79 80 
81 82 83 84 85 86 87 88 89 
90 91 92 93 94 95 96 97 98 
99 
POINT_DATA 100
FIELD FieldData 3
_theta 1 100 double
0 0.031733259127 0.063466518254 0.095199777382 0.12693303651 0.15866629564 0.19039955476 0.22213281389 0.25386607302 
0.28559933214 0.31733259127 0.3490658504 0.38079910953 0.41253236865 0.44426562778 0.47599888691 0.50773214603 0.53946540516 
0.57119866429 0.60293192342 0.63466518254 0.66639844167 0.6981317008 0.72986495992 0.76159821905 0.79333147818 0.82506473731 
0.85679799643 0.88853125556 0.92026451469 0.95199777382 0.98373103294 1.0154642921 1.0471975512 1.0789308103 1.1106640695 
1.1423973286 1.1741305877 1.2058638468 1.237597106 1.2693303651 1.3010636242 1.3327968833 1.3645301425 1.3962634016 
1.4279966607 1.4597299198 1.491463179 1.5231964381 1.5549296972 1.5866629564 1.6183962155 1.6501294746 1.6818627337 
1.7135959929 1.745329252 1.7770625111 1.8087957702 1.8405290294 1.8722622885 1.9039955476 1.9357288068 1.9674620659 
1.999195325 2.0309285841 2.0626618433 2.0943951024 2.1261283615 2.1578616206 2.1895948798 2.2213281389 2.253061398 
2.2847946572 2.3165279163 2.3482611754 2.3799944345 2.4117276937 2.4434609528 2.4751942119 2.506927471 2.5386607302 
2.5703939893 2.6021272484 2.6338605076 2.6655937667 2.6973270258 2.7290602849 2.7607935441 2.7925268032 2.8242600623 
2.8559933214 2.8877265806 2.9194598397 2.9511930988 2.982926358 3.0146596171 3.0463928762 3.0781261353 3.1098593945 
3.1415926536 
_radius 1 100 double
3.4471709788e-16 0.013561459047 0.027056678123 0.040416007444 0.053573359084 0.066468142455 0.0790470407 0.091265520822 0.10308891195 
0.11449281968 0.12546261531 0.13599180169 0.14607925207 0.15572562946 0.1649296319 0.17368491769 0.18197849689 0.18979099465 
0.19709863301 0.20387629787 0.21010087959 0.21575425619 0.22082569012 0.22531379735 0.229228409 0.23259247999 0.23544376565 
0.23783548108 0.23983485475 0.24151861881 0.24296512921 0.24424383314 0.24540385139 0.24646407172 0.24740702822 0.2481779605 
0.24868916543 0.24882862189 0.2484713004 0.24749162753 0.24577599732 0.24323463904 0.23981232494 0.23549732185 0.23032779983 
0.22439477096 0.21784063495 0.2108525982 0.20365064456 0.1964704224 0.18954242325 0.18307014156 0.17721129267 0.17206689563 
0.1676818251 0.16405652273 0.16116442811 0.15896683238 0.15741860363 0.15646358133 0.15602423687 0.15599335576 0.15623450216 
0.15659363051 0.15691888725 0.15708226336 0.15699683696 0.15662595678 0.15598368629 0.1551278066 0.15414760534 0.15314894614 
0.1522389941 0.15151263147 0.1510421152 0.15087074918 0.15101010267 0.15143909827 0.15210315299 0.1529127643 0.15374251192 
0.15443227302 0.15479221801 0.15461221333 0.15367508806 0.15177220746 0.14871921258 0.14436975107 0.13862547818 0.13144134833 
0.12282601473 0.11283782962 0.10157740732 0.089177977156 0.075794859122 0.061595379758 0.046750408354 0.031428405304 0.015792428453 
8.5737090676e-16 
_area 1 100 double
0 0.00051797307325 0.0020501388585 0.0045342916222 0.0078762769058 0.011962157167 0.016671637321 0.021890400449 0.027519592514 
0.033481423354 0.039720371175 0.046199854297 0.052894853276 0.059781971159 0.066829438811 0.073990103265 0.081200105484 0.088384319494 
0.095466516598 0.10237890555 0.10906530858 0.11547723893 0.12156915198 0.12729961493 0.13263795431 0.1375706375 0.14210340491 
0.14625978199 0.15007884374 0.15361338509 0.15692612419 0.16008006893 0.16312173488 0.16606124839 0.16885738354 0.17141371252 
0.17358553665 0.17519324141 0.17603885767 0.17592485916 0.17467466136 0.17215353293 0.1682879057 0.16308077343 0.15662102828 
0.14908507021 0.14072950481 0.13187411292 0.12287514005 0.11409105356 0.1058456444 0.098394279934 0.091896081546 0.086390765415 
0.081788062901 0.077903774817 0.074555961092 0.071653955618 0.069206924427 0.067250938014 0.06575851236 0.064608739413 0.063626869914 
0.06264212654 0.061526732286 0.060208421376 0.058669188949 0.056941493669 0.055103251121 0.053269630816 0.051577382887 0.050156916423 
0.049092803676 0.048397401151 0.048028966366 0.047939883709 0.048116604157 0.048589369515 0.049406098078 0.050583787771 0.052066817247 
0.053709499602 0.05528404707 0.056508739979 0.057088659888 0.056759367705 0.055325508155 0.052689417053 0.04886696614 0.043989174608 
0.038289477973 0.032078277808 0.025708264025 0.019535627224 0.013883297719 0.0090124445413 0.0051074043026 0.0022767941439 0.00056961915192 
2.9954062163e-17 
