# vtk DataFile Version 5.1
vtk output
ASCII
DATASET POLYDATA
POINTS 100 float
0.195047 0.0341441 0.761484 0.195058 0.0342457 0.761465 0.195155 0.0344326 0.761276 
0.19528 0.0347313 0.760871 0.195348 0.0351818 0.760178 0.195254 0.0358305 0.759106 
0.194888 0.0367212 0.757549 0.19415 0.037886 0.755399 0.192959 0.0393377 0.752548 
0.191265 0.0410637 0.748903 0.18905 0.0430241 0.744389 0.186327 0.045153 0.738954 
0.183137 0.0473635 0.732578 0.179534 0.0495559 0.725267 0.175579 0.0516277 0.717057 
0.171323 0.0534846 0.708005 0.166799 0.0550505 0.698191 0.162011 0.0562762 0.6877 
0.156937 0.0571441 0.676623 0.151526 0.0576695 0.665045 0.145707 0.0578983 0.653038 
0.139398 0.0579003 0.640657 0.132523 0.0577603 0.627936 0.125018 0.0575668 0.614887 
0.11685 0.0574015 0.601505 0.108017 0.0573287 0.58777 0.0985589 0.0573879 0.573654 
0.0885481 0.05759 0.559129 0.0780854 0.0579167 0.544175 0.0672872 0.0583241 0.528784 
0.0562714 0.0587498 0.512967 0.0451429 0.0591227 0.496755 0.0339808 0.0593729 0.480195 
0.0228299 0.0594431 0.463349 0.0116978 0.0592972 0.446285 0.000557721 0.0589263 0.429066 
-0.010642 0.0583523 0.411743 -0.0219641 0.0576267 0.394342 -0.0334645 0.0568263 0.376859 
-0.0451743 0.0560455 0.359247 -0.0570832 0.0553874 0.341426 -0.0691275 0.054953 0.323273 
-0.0811839 0.0548312 0.304638 -0.0930711 0.0550907 0.285351 -0.10456 0.0557735 0.265237 
-0.115387 0.0568922 0.244132 -0.125281 0.0584299 0.221899 -0.133982 0.0603434 0.198441 
-0.14127 0.062569 0.173717 -0.146982 0.0650287 0.147745 -0.151031 0.067639 0.120607 
-0.153414 0.0703177 0.0924441 -0.154208 0.07299 0.0634481 -0.153562 0.0755936 0.0338501 
-0.151685 0.0780809 0.00390331 -0.148816 0.0804192 -0.0261346 -0.145204 0.0825897 -0.0560185 
-0.141085 0.0845848 -0.0855317 -0.136655 0.0864041 -0.114498 -0.13206 0.0880512 -0.14279 
-0.127384 0.0895301 -0.17033 -0.122651 0.0908427 -0.197092 -0.117833 0.0919871 -0.223091 
-0.11286 0.0929569 -0.248374 -0.107641 0.0937411 -0.273012 -0.102085 0.0943247 -0.297082 
-0.096116 0.0946895 -0.320656 -0.0896894 0.0948145 -0.343794 -0.0828022 0.0946765 -0.366535 
-0.0754958 0.0942498 -0.388891 -0.0678522 0.0935063 -0.410852 -0.0599849 0.0924152 -0.432384 
-0.0520254 0.0909436 -0.453435 -0.0441077 0.0890572 -0.473943 -0.0363527 0.0867225 -0.49384 
-0.0288555 0.0839098 -0.513061 -0.0216766 0.080598 -0.531545 -0.0148388 0.076779 -0.549243 
-0.0083291 0.0724631 -0.566111 -0.00210656 0.0676842 -0.582115 0.00388659 0.0625027 -0.59723 
0.00971167 0.0570074 -0.611429 0.0154202 0.0513144 -0.62469 0.021043 0.0455629 -0.636989 
0.0265821 0.0399083 -0.648298 0.0320087 0.0345125 -0.658594 0.0372655 0.0295327 -0.667852 
0.0422733 0.0251086 -0.676057 0.0469422 0.0213512 -0.683207 0.0511838 0.0183323 -0.689315 
0.0549235 0.0160779 -0.694414 0.0581111 0.0145648 -0.698562 0.0607274 0.0137226 -0.701835 
0.0627867 0.0134397 -0.704333 0.0643339 0.013574 -0.706165 0.065437 0.0139663 -0.707448 
0.0661769 0.0144563 -0.708295 0.0666343 0.014899 -0.708807 0.0668778 0.0151786 -0.709065 
0.0669527 0.0152216 -0.70912 
LINES 2 100
OFFSETS vtktypeint64
0 100 
CONNECTIVITY vtktypeint64
0 1 2 3 4 5 6 7 8 
9 10 11 12 13 14 15 16 17 
18 19 20 21 22 23 24 25 26 
27 28 29 30 31 32 33 34 35 
36 37 38 39 40 41 42 43 44 
45 46 47 48 49 50 51 52 53 
54 55 56 57 58 59 60 61 62 
63 64 65 66 67 68 69 70 71 
72 73 74 75 76 77 78 79 80 
81 82 83 84 85 86 87 88 89 
90 91 92 93 94 95 96 97 98 
99 
POINT_DATA 100
FIELD FieldData 3
_theta 1 100 double
0 0.031733259127 0.063466518254 0.095199777382 0.12693303651 0.15866629564 0.19039955476 0.22213281389 0.25386607302 
0.28559933214 0.31733259127 0.3490658504 0.38079910953 0.41253236865 0.44426562778 0.47599888691 0.50773214603 0.53946540516 
0.57119866429 0.60293192342 0.63466518254 0.66639844167 0.6981317008 0.72986495992 0.76159821905 0.79333147818 0.82506473731 
0.85679799643 0.88853125556 0.92026451469 0.95199777382 0.98373103294 1.0154642921 1.0471975512 1.0789308103 1.1106640695 
1.1423973286 1.1741305877 1.2058638468 1.237597106 1.2693303651 1.3010636242 1.3327968833 1.3645301425 1.3962634016 
1.4279966607 1.4597299198 1.491463179 1.5231964381 1.5549296972 1.5866629564 1.6183962155 1.6501294746 1.6818627337 
1.7135959929 1.745329252 1.7770625111 1.8087957702 1.8405290294 1.8722622885 1.9039955476 1.9357288068 1.9674620659 
1.999195325 2.0309285841 2.0626618433 2.0943951024 2.1261283615 2.1578616206 2.1895948798 2.2213281389 2.253061398 
2.2847946572 2.3165279163 2.3482611754 2.3799944345 2.4117276937 2.4434609528 2.4751942119 2.506927471 2.5386607302 
2.5703939893 2.6021272484 2.6338605076 2.6655937667 2.6973270258 2.7290602849 2.7607935441 2.7925268032 2.8242600623 
2.8559933214 2.8877265806 2.9194598397 2.9511930988 2.982926358 3.0146596171 3.0463928762 3.0781261353 3.1098593945 
3.1415926536 
_radius 1 100 double
1.0013427372e-15 0.017214381549 0.034204508231 0.05076143558 0.066702727626 0.081881203091 0.096189071929 0.10955725459 0.12195063707 
0.13336082439 0.1437983003 0.15328561097 0.16185239551 0.169532168 0.17636013276 0.1823712326 0.18759808993 0.19206924659 
0.19580871321 0.19883790128 0.20118039885 0.20286900737 0.20395345304 0.20450664613 0.20462746965 0.20443877249 0.2040803142 
0.20369757327 0.20342825211 0.20338870033 0.20366223555 0.20429061608 0.20526903404 0.20654432868 0.20801598337 0.20953992346 
0.21093584191 0.21199915333 0.21251822445 0.21229621594 0.21117521302 0.20905909933 0.20593132512 0.20186425816 0.19701781753 
0.19162638635 0.18597474291 0.18036615805 0.1750884818 0.17038555456 0.16643999332 0.16336930557 0.16123245479 0.16004079983 
0.15976678613 0.16034597599 0.1616727905 0.16359613017 0.16592355628 0.1684381579 0.17092381794 0.17319038402 0.1750926209 
0.17654104805 0.17750485767 0.17800717066 0.17811307049 0.17791282776 0.17750509193 0.17698383824 0.17642931092 0.17590193589 
0.17543923729 0.17505600504 0.174746867 0.17448951135 0.17424699236 0.17396859505 0.17358983677 0.17303269448 0.17220691632 
0.17101262766 0.16934387416 0.16709253655 0.16415211383 0.1604209969 0.15580499679 0.15021911772 0.14358887986 0.13585179085 
0.12695968372 0.11688246164 0.10561331443 0.093174843185 0.079624984646 0.06506137983 0.049622961314 0.033487973018 0.01686822853 
5.5808942816e-16 
_area 1 100 double
0 0.00059998686675 0.0023635541804 0.0051875361866 0.0089182897084 0.013373730088 0.018365700777 0.023718723958 0.029283668246 
0.034946141556 0.040628540169 0.046283454868 0.051878300113 0.057377705131 0.062733949733 0.0678890707 0.072782796812 0.077359047547 
0.081568685108 0.085371011342 0.088738052797 0.091663718872 0.094174374815 0.096326943673 0.098180226181 0.099790279188 0.10124547713 
0.10265871866 0.1041351455 0.10574822689 0.10752821877 0.10946439141 0.11152315885 0.11367048212 0.11587727971 0.11810092363 
0.12026298318 0.1222550613 0.12389164641 0.12471041845 0.1242930598 0.12244657794 0.11917294783 0.1146546399 0.10921824446 
0.10327673442 0.097260361776 0.091546298469 0.086399228731 0.081945595473 0.078198851188 0.075112585527 0.072622487871 0.07066647831 
0.069192235296 0.06816030009 0.067545281104 0.067333470412 0.067505177426 0.067971257574 0.068500951478 0.068806031847 0.068679353357 
0.068027430293 0.066846570877 0.065195612344 0.063184282554 0.060970530022 0.058763118538 0.05683018313 0.055335639972 0.054189597522 
0.053232751884 0.052350801995 0.051467214516 0.050580858006 0.049771574917 0.049197855774 0.049094972115 0.049705239674 0.050925123003 
0.052466627843 0.054017110689 0.055217160101 0.055737104316 0.055337126321 0.053886752259 0.051359748342 0.047818197035 0.043392557833 
0.038262323567 0.032640694928 0.026764658691 0.020889116447 0.015281494987 0.010212979383 0.0059444326894 0.0027079496797 0.00068715596592 
1.7577575191e-17 
