# vtk DataFile Version 5.1
vtk output
ASCII
DATASET POLYDATA
POINTS 100 float
0.144093 0.0429178 0.638499 0.143997 0.0430158 0.638411 0.143786 0.0431946 0.63796 
0.143448 0.0434626 0.637121 0.142963 0.0438323 0.635855 0.142307 0.0443179 0.634112 
0.141457 0.0449322 0.631834 0.140387 0.0456836 0.628955 0.139079 0.046573 0.625411 
0.137518 0.0475919 0.621139 0.135692 0.0487206 0.616085 0.133597 0.0499281 0.610208 
0.131225 0.0511734 0.603482 0.12857 0.0524071 0.595903 0.12562 0.0535749 0.587489 
0.122354 0.0546209 0.578279 0.118746 0.0554918 0.568337 0.114757 0.0561405 0.557746 
0.110344 0.0565299 0.546601 0.105459 0.056635 0.535012 0.100057 0.056445 0.523087 
0.094099 0.0559641 0.510933 0.0875621 0.0552105 0.498643 0.0804418 0.0542159 0.486295 
0.0727575 0.0530225 0.473945 0.0645543 0.0516813 0.461622 0.0559023 0.0502486 0.449331 
0.0468935 0.048783 0.437052 0.0376352 0.0473431 0.424745 0.0282428 0.0459846 0.412354 
0.01883 0.0447584 0.399812 0.00950027 0.0437089 0.38705 0.000337999 0.0428733 0.374002 
-0.00859728 0.0422804 0.360609 -0.0172744 0.0419508 0.346825 -0.0256904 0.0418968 0.332617 
-0.0338669 0.0421231 0.317969 -0.0418437 0.0426271 0.302874 -0.0496689 0.0434004 0.287336 
-0.0573889 0.0444297 0.271365 -0.0650368 0.0456977 0.254969 -0.0726236 0.047185 0.238155 
-0.0801297 0.0488712 0.220924 -0.087502 0.0507359 0.203266 -0.094653 0.0527598 0.185167 
-0.101465 0.0549252 0.166602 -0.107797 0.0572162 0.147545 -0.113498 0.0596178 0.12797 
-0.118416 0.0621155 0.107856 -0.122412 0.0646936 0.0871934 -0.125373 0.0673336 0.0659868 
-0.127223 0.0700121 0.0442584 -0.127924 0.0726995 0.0220497 -0.127484 0.0753589 -0.000578945 
-0.125952 0.0779451 -0.0235505 -0.123413 0.0804058 -0.0467751 -0.119979 0.0826823 -0.0701545 
-0.115774 0.0847127 -0.0935881 -0.110929 0.0864349 -0.116978 -0.105562 0.0877906 -0.140234 
-0.099774 0.0887297 -0.163278 -0.0936382 0.0892141 -0.186045 -0.0871989 0.0892211 -0.208486 
-0.080471 0.0887451 -0.230562 -0.073445 0.0877987 -0.252249 -0.0660944 0.086411 -0.27353 
-0.0583854 0.084625 -0.29439 -0.0502884 0.0824934 -0.314815 -0.0417884 0.0800727 -0.334787 
-0.032894 0.0774178 -0.354283 -0.0236445 0.0745756 -0.373271 -0.0141125 0.0715805 -0.391712 
-0.00440389 0.0684509 -0.409562 0.00534675 0.0651872 -0.426771 0.0149835 0.0617729 -0.443291 
0.0243391 0.0581778 -0.459075 0.0332466 0.0543626 -0.474085 0.0415512 0.0502857 -0.488291 
0.049121 0.0459107 -0.501674 0.0558564 0.0412134 -0.51423 0.0616961 0.0361887 -0.525964 
0.0666203 0.0308553 -0.536898 0.0706505 0.0252578 -0.547058 0.0738456 0.0194664 -0.55648 
0.0762954 0.0135741 -0.565204 0.0781118 0.00769059 -0.573268 0.0794195 0.00193476 -0.580711 
0.080345 -0.00357438 -0.587565 0.0810076 -0.00872672 -0.593858 0.0815113 -0.0134295 -0.59961 
0.0819389 -0.0176138 -0.604832 0.0823483 -0.021239 -0.609532 0.082772 -0.0242934 -0.613708 
0.0832188 -0.026793 -0.617358 0.0836775 -0.0287761 -0.620472 0.0841226 -0.0302967 -0.623041 
0.0845207 -0.0314155 -0.625056 0.0848373 -0.0321913 -0.626507 0.0850423 -0.0326724 -0.627387 
0.0851155 -0.0328898 -0.627691 
LINES 2 100
OFFSETS vtktypeint64
0 100 
CONNECTIVITY vtktypeint64
0 1 2 3 4 5 6 7 8 
9 10 11 12 13 14 15 16 17 
18 19 20 21 22 23 24 25 26 
27 28 29 30 31 32 33 34 35 
36 37 38 39 40 41 42 43 44 
45 46 47 48 49 50 51 52 53 
54 55 56 57 58 59 60 61 62 
63 64 65 66 67 68 69 70 71 
72 73 74 75 76 77 78 79 80 
81 82 83 84 85 86 87 88 89 
90 91 92 93 94 95 96 97 98 
99 
POINT_DATA 100
FIELD FieldData 3
_theta 1 100 double
0 0.031733259127 0.063466518254 0.095199777382 0.12693303651 0.15866629564 0.19039955476 0.22213281389 0.25386607302 
0.28559933214 0.31733259127 0.3490658504 0.38079910953 0.41253236865 0.44426562778 0.47599888691 0.50773214603 0.53946540516 
0.57119866429 0.60293192342 0.63466518254 0.66639844167 0.6981317008 0.72986495992 0.76159821905 0.79333147818 0.82506473731 
0.85679799643 0.88853125556 0.92026451469 0.95199777382 0.98373103294 1.0154642921 1.0471975512 1.0789308103 1.1106640695 
1.1423973286 1.1741305877 1.2058638468 1.237597106 1.2693303651 1.3010636242 1.3327968833 1.3645301425 1.3962634016 
1.4279966607 1.4597299198 1.491463179 1.5231964381 1.5549296972 1.5866629564 1.6183962155 1.6501294746 1.6818627337 
1.7135959929 1.745329252 1.7770625111 1.8087957702 1.8405290294 1.8722622885 1.9039955476 1.9357288068 1.9674620659 
1.999195325 2.0309285841 2.0626618433 2.0943951024 2.1261283615 2.1578616206 2.1895948798 2.2213281389 2.253061398 
2.2847946572 2.3165279163 2.3482611754 2.3799944345 2.4117276937 2.4434609528 2.4751942119 2.506927471 2.5386607302 
2.5703939893 2.6021272484 2.6338605076 2.6655937667 2.6973270258 2.7290602849 2.7607935441 2.7925268032 2.8242600623 
2.8559933214 2.8877265806 2.9194598397 2.9511930988 2.982926358 3.0146596171 3.0463928762 3.0781261353 3.1098593945 
3.1415926536 
_radius 1 100 double
7.9628153686e-16 0.013855287208 0.027649908544 0.04131686324 0.054788538936 0.067996819199 0.080873427779 0.093350707437 0.10536292458 
0.11684801333 0.12774954741 0.13801874218 0.14761641549 0.15651493405 0.16470009999 0.17217270168 0.17894926126 0.18506158064 
0.19055503325 0.19548592002 0.19991829695 0.20392043487 0.20756077784 0.21090332073 0.21400284797 0.21690110604 0.21962508475 
0.22218783881 0.22459112934 0.2268284612 0.22888726821 0.23074973742 0.23239243614 0.23378516691 0.23488943462 0.23565690308 
0.23602843945 0.23593467413 0.23529912808 0.23404464186 0.23210308866 0.22942739981 0.22600407775 0.22186385182 0.21708807138 
0.21180888219 0.20620222033 0.20047413392 0.19484264053 0.18951862777 0.1846894532 0.18050760451 0.17708460863 0.17448839244 
0.17274144036 0.17181792309 0.17164042057 0.172079738 0.17296238656 0.17408800543 0.1752544876 0.17628504563 0.17705096196 
0.17748562996 0.17758792983 0.17741499989 0.17706606692 0.1766604767 0.17631433488 0.17612055958 0.17613593245 0.17637612932 
0.17681705327 0.17739943643 0.17803402571 0.17860625918 0.17898122827 0.17901074453 0.17854371006 0.17743912925 0.17557933591 
0.17288039461 0.16929724808 0.16482253998 0.15947963078 0.15331171252 0.1463697285 0.13870179312 0.13034609689 0.12132823363 
0.11166284977 0.10135869301 0.090425623576 0.078881983821 0.066760885583 0.054114391051 0.041015103577 0.027555203892 0.013843345045 
1.1893048295e-15 
_area 1 100 double
0 0.00052443610363 0.002078024233 0.0046039665026 0.0080149657952 0.012202690449 0.017048393878 0.022432887594 0.028244128665 
0.034380929696 0.040752111715 0.047271999344 0.053854903096 0.060411977387 0.066852879345 0.073092321393 0.079059044971 0.084703445613 
0.090001289219 0.094954441608 0.099592410143 0.10397625867 0.10819849346 0.11236821417 0.11658173059 0.12089473907 0.12530997219 
0.12978273905 0.13424128862 0.13861067533 0.14282538478 0.14682695331 0.1505536789 0.15393058867 0.15686357138 0.1592378925 
0.1609203758 0.16176554162 0.16162691041 0.1603740484 0.15791386403 0.15421231099 0.14931121367 0.14333542038 0.13648835347 
0.12903841825 0.12130333662 0.11364738763 0.10652506295 0.10038371358 0.095211552494 0.090855678811 0.087228467563 0.084246435979 
0.081830874448 0.079912315835 0.078427811098 0.077315049349 0.076490467352 0.075846392124 0.075233386159 0.074497926625 0.073512114272 
0.072195773886 0.070475003689 0.06837771294 0.065990324191 0.063482529773 0.061056875426 0.058878700566 0.057063571927 0.055713997148 
0.055003858055 0.05515250257 0.055872481766 0.057089395307 0.058767331682 0.060778870095 0.062845530563 0.064623169936 0.06581072829 
0.066176259346 0.065575062778 0.063954466142 0.06134716817 0.05785430912 0.053621822032 0.04881562365 0.043601596453 0.038134474021 
0.032556374566 0.027002304352 0.02160781693 0.016514080834 0.011867756449 0.0078157855563 0.0044968279123 0.0020314395155 0.00051288254543 
3.6541712322e-17 
