# vtk DataFile Version 5.1
vtk output
ASCII
DATASET POLYDATA
POINTS 100 float
0.119159 0.0504915 0.689053 0.119173 0.050735 0.688695 0.119225 0.051326 0.687458 
0.119291 0.05222 0.685374 0.119333 0.0533485 0.682495 0.119306 0.0546249 0.678888 
0.11916 0.055953 0.674623 0.118842 0.0572354 0.669767 0.118308 0.0583819 0.66438 
0.117517 0.0593163 0.658507 0.11644 0.0599817 0.652173 0.115055 0.0603431 0.645388 
0.113349 0.0603875 0.638144 0.111314 0.0601217 0.630423 0.108945 0.0595684 0.622202 
0.106235 0.0587602 0.61346 0.103172 0.0577346 0.604183 0.0997369 0.0565281 0.594373 
0.0959062 0.0551723 0.584045 0.0916488 0.0536908 0.573235 0.0869308 0.0520994 0.561991 
0.0817192 0.0504069 0.550373 0.0759866 0.0486179 0.538447 0.0697158 0.0467379 0.526277 
0.0629044 0.0447768 0.513918 0.0555678 0.0427539 0.501411 0.0477402 0.0407008 0.48878 
0.0394744 0.0386628 0.476028 0.0308384 0.0366988 0.463141 0.0219113 0.0348786 0.450086 
0.0127767 0.0332782 0.436822 0.00351688 0.0319742 0.423298 -0.00579427 0.031037 0.409465 
-0.0150963 0.030524 0.395279 -0.0243461 0.0304741 0.380702 -0.0335192 0.0309033 0.365704 
-0.0426089 0.0318029 0.350265 -0.0516231 0.0331394 0.334368 -0.0605783 0.0348583 0.318 
-0.0694932 0.0368882 0.30114 -0.0783807 0.0391482 0.283761 -0.0872409 0.0415551 0.265824 
-0.0960544 0.044031 0.247275 -0.104778 0.0465102 0.228049 -0.113344 0.0489442 0.208076 
-0.121657 0.0513045 0.18728 -0.129603 0.0535835 0.165595 -0.137048 0.055792 0.142972 
-0.143852 0.0579557 0.119387 -0.149872 0.0601085 0.0948486 -0.154972 0.0622867 0.0694063 
-0.159034 0.0645213 0.0431496 -0.161959 0.0668326 0.0162079 -0.163675 0.069225 -0.0112561 
-0.164141 0.0716843 -0.0390541 -0.163342 0.0741777 -0.0669851 -0.161294 0.0766548 -0.0948472 
-0.158038 0.0790517 -0.122451 -0.153635 0.0812965 -0.149631 -0.148161 0.0833149 -0.176256 
-0.141706 0.0850367 -0.202233 -0.134364 0.0864014 -0.22751 -0.126233 0.0873625 -0.252072 
-0.11741 0.0878904 -0.275938 -0.107988 0.0879729 -0.29915 -0.0980559 0.0876144 -0.321764 
-0.0876939 0.086833 -0.343836 -0.0769762 0.0856561 -0.365415 -0.0659678 0.0841164 -0.386534 
-0.0547243 0.0822467 -0.407201 -0.0432915 0.0800757 -0.427404 -0.0317047 0.0776254 -0.447102 
-0.0199889 0.0749093 -0.466238 -0.00815928 0.0719326 -0.484739 0.00377755 0.0686942 -0.502528 
0.0158214 0.0651895 -0.519527 0.0279754 0.0614151 -0.535667 0.0402429 0.0573728 -0.550898 
0.0526224 0.0530741 -0.565184 0.0651044 0.0485437 -0.578512 0.0776666 0.043822 -0.590889 
0.0902712 0.0389651 -0.602338 0.102863 0.0340442 -0.612899 0.115369 0.0291421 -0.622616 
0.1277 0.024349 -0.631539 0.139754 0.0197566 -0.639719 0.151418 0.0154523 -0.6472 
0.162578 0.0115125 -0.654022 0.173121 0.00799749 -0.660215 0.182944 0.00494718 -0.665804 
0.191957 0.00237861 -0.670809 0.200087 0.00028536 -0.675243 0.207282 -0.00136084 -0.679118 
0.213508 -0.00260665 -0.682444 0.218752 -0.00351199 -0.685233 0.223011 -0.00414375 -0.687495 
0.226297 -0.00456891 -0.689241 0.228624 -0.00484778 -0.690479 0.230008 -0.00502788 -0.691219 
0.23046 -0.00513923 -0.691464 
LINES 2 100
OFFSETS vtktypeint64
0 100 
CONNECTIVITY vtktypeint64
0 1 2 3 4 5 6 7 8 
9 10 11 12 13 14 15 16 17 
18 19 20 21 22 23 24 25 26 
27 28 29 30 31 32 33 34 35 
36 37 38 39 40 41 42 43 44 
45 46 47 48 49 50 51 52 53 
54 55 56 57 58 59 60 61 62 
63 64 65 66 67 68 69 70 71 
72 73 74 75 76 77 78 79 80 
81 82 83 84 85 86 87 88 89 
90 91 92 93 94 95 96 97 98 
99 
POINT_DATA 100
FIELD FieldData 3
_theta 1 100 double
0 0.031733259127 0.063466518254 0.095199777382 0.12693303651 0.15866629564 0.19039955476 0.22213281389 0.25386607302 
0.28559933214 0.31733259127 0.3490658504 0.38079910953 0.41253236865 0.44426562778 0.47599888691 0.50773214603 0.53946540516 
0.57119866429 0.60293192342 0.63466518254 0.66639844167 0.6981317008 0.72986495992 0.76159821905 0.79333147818 0.82506473731 
0.85679799643 0.88853125556 0.92026451469 0.95199777382 0.98373103294 1.0154642921 1.0471975512 1.0789308103 1.1106640695 
1.1423973286 1.1741305877 1.2058638468 1.237597106 1.2693303651 1.3010636242 1.3327968833 1.3645301425 1.3962634016 
1.4279966607 1.4597299198 1.491463179 1.5231964381 1.5549296972 1.5866629564 1.6183962155 1.6501294746 1.6818627337 
1.7135959929 1.745329252 1.7770625111 1.8087957702 1.8405290294 1.8722622885 1.9039955476 1.9357288068 1.9674620659 
1.999195325 2.0309285841 2.0626618433 2.0943951024 2.1261283615 2.1578616206 2.1895948798 2.2213281389 2.253061398 
2.2847946572 2.3165279163 2.3482611754 2.3799944345 2.4117276937 2.4434609528 2.4751942119 2.506927471 2.5386607302 
2.5703939893 2.6021272484 2.6338605076 2.6655937667 2.6973270258 2.7290602849 2.7607935441 2.7925268032 2.8242600623 
2.8559933214 2.8877265806 2.9194598397 2.9511930988 2.982926358 3.0146596171 3.0463928762 3.0781261353 3.1098593945 
3.1415926536 
_radius 1 100 double
1.2241003411e-15 0.013824094567 0.027574558326 0.041171579181 0.054537000971 0.067596536067 0.080282551725 0.092536849872 0.10431261856 
0.11557476898 0.12629823081 0.13646439545 0.14605659736 0.15505607193 0.16343999034 0.1711827484 0.17826060999 0.18465835679 
0.19037554911 0.19543013479 0.19985841811 0.20371190386 0.20705238709 0.20994669115 0.21246200289 0.21466216548 0.21660476041 
0.21833847882 0.21990026986 0.22131210012 0.22257771923 0.22368029796 0.22458188525 0.2252252426 0.22553798467 0.225438445 
0.22484253773 0.22367108597 0.22185741884 0.21935523093 0.21614656024 0.2122492544 0.20772263428 0.20266953486 0.19723283915 
0.19158527094 0.18591267565 0.18039318153 0.17517694224 0.17037238451 0.16604357285 0.16221932632 0.15891005969 0.15612539837 
0.15388536173 0.15222002462 0.15115662018 0.15069843881 0.15080484482 0.15138297739 0.15229678351 0.15339030133 0.15451584156 
0.15555751841 0.15644446218 0.15715242244 0.15769587146 0.15811508665 0.15846338873 0.15879797416 0.15917466565 0.15964470746 
0.1602515285 0.1610265 0.1619839383 0.16311623241 0.16438994378 0.16574337115 0.16708579471 0.1682985801 0.16923841012 
0.16974287988 0.16963841761 0.16875006406 0.16691222098 0.16397917305 0.15983405154 0.1543950042 0.14761773411 0.13949427562 
0.13004874782 0.11933158513 0.10741407188 0.094384717933 0.08034817114 0.065426282798 0.049760044414 0.03351073033 0.016858819581 
3.5905676089e-16 
_area 1 100 double
0 0.00051284445313 0.0020342020096 0.0045126222151 0.0078634182688 0.011972586067 0.016705372493 0.021919725364 0.027482548453 
0.033284694944 0.039250017915 0.045335005445 0.051518037538 0.057780021579 0.064081329473 0.070345547049 0.076463574668 0.082319432793 
0.087820722211 0.092915810944 0.097593806391 0.10187587739 0.10580894466 0.10946450193 0.11293472853 0.11631692048 0.11968831245 
0.1230865423 0.12651185184 0.12994802126 0.13336264055 0.13666018165 0.13967667061 0.14223678472 0.14420193113 0.14548192148 
0.14592623776 0.14539033096 0.14374699725 0.14091427272 0.13718755109 0.13242419802 0.12692024446 0.12083719805 0.11443782523 
0.10805921067 0.10200871399 0.096498313182 0.091619119497 0.087354094588 0.083619528612 0.080317075646 0.077377399018 0.07475972744 
0.07240279122 0.070251075103 0.068299094375 0.066565906177 0.065054137821 0.063735965625 0.062566869437 0.061503763269 0.06051317732 
0.059572619671 0.058666025507 0.057775634087 0.056885926921 0.056000699398 0.055164658931 0.054482690763 0.054074167015 0.053826026365 
0.053718468639 0.053780874703 0.054041205716 0.054520175702 0.055240128235 0.056213699148 0.057399348752 0.058712122248 0.060037071055 
0.061209899399 0.062019092477 0.062233127957 0.061638340165 0.060075214644 0.05746422372 0.053816791266 0.049231776184 0.043880956081 
0.037988176766 0.031806877898 0.025599898462 0.019623816241 0.014118034722 0.0092973053281 0.0053460286575 0.0024133535326 0.00060898119278 
2.3731606762e-18 
