# vtk DataFile Version 5.1
vtk output
ASCII
DATASET POLYDATA
POINTS 100 float
0.145853 0.0363242 0.648638 0.145906 0.0365424 0.648438 0.146123 0.0370491 0.647735 
0.146432 0.0378325 0.646541 0.146727 0.0388752 0.644868 0.146875 0.0401546 0.642731 
0.146739 0.0416434 0.640137 0.14619 0.0433105 0.637087 0.145123 0.0451214 0.633571 
0.143474 0.0470393 0.629566 0.141221 0.0490261 0.625038 0.13839 0.0510429 0.619945 
0.135048 0.0530513 0.614241 0.131292 0.0550143 0.607883 0.127241 0.0568965 0.600836 
0.12301 0.0586652 0.593081 0.118707 0.0602904 0.584613 0.114407 0.0617454 0.575449 
0.110151 0.0630065 0.565626 0.10594 0.0640532 0.555196 0.101731 0.0648683 0.54422 
0.0974484 0.065438 0.532768 0.0929946 0.0657519 0.520904 0.0882608 0.0658042 0.508686 
0.0831428 0.0655936 0.49616 0.077555 0.0651247 0.483358 0.0714402 0.0644085 0.470295 
0.0647766 0.0634633 0.456978 0.0575793 0.0623151 0.443403 0.0498967 0.0609978 0.429565 
0.0418037 0.0595524 0.415461 0.0333902 0.058026 0.401094 0.0247494 0.0564702 0.386476 
0.0159661 0.0549383 0.371625 0.00710734 0.0534829 0.356566 -0.00178377 0.0521531 0.341318 
-0.0106893 0.0509916 0.325893 -0.0196134 0.0500326 0.310286 -0.0285748 0.0493003 0.294469 
-0.0375957 0.0488085 0.278385 -0.0466902 0.0485611 0.261947 -0.0558514 0.0485532 0.245046 
-0.0650412 0.0487741 0.227553 -0.0741839 0.0492101 0.209334 -0.083164 0.0498472 0.190266 
-0.0918295 0.0506745 0.170248 -0.0999999 0.051686 0.149219 -0.107479 0.0528821 0.127169 
-0.114071 0.054269 0.104145 -0.119597 0.0558578 0.0802557 -0.123909 0.057661 0.055661 
-0.126906 0.0596894 0.0305651 -0.128541 0.0619473 0.0051973 -0.12883 0.0644286 -0.0202073 
-0.127841 0.0671126 -0.045429 -0.125697 0.0699618 -0.0702829 -0.122557 0.0729206 -0.0946348 
-0.118608 0.0759166 -0.11841 -0.11404 0.0788627 -0.141596 -0.109038 0.0816625 -0.164236 
-0.103762 0.0842154 -0.186417 -0.0983379 0.0864237 -0.208251 -0.0928493 0.0881991 -0.229852 
-0.0873345 0.0894684 -0.251318 -0.0817885 0.0901786 -0.272708 -0.0761685 0.0902988 -0.294026 
-0.070402 0.0898211 -0.315222 -0.0643978 0.0887587 -0.336182 -0.0580573 0.087142 -0.356749 
-0.0512849 0.0850128 -0.376731 -0.0439982 0.0824192 -0.395925 -0.0361357 0.0794083 -0.414145 
-0.0276628 0.0760219 -0.431237 -0.0185747 0.0722923 -0.447106 -0.00889873 0.0682409 -0.461722 
0.0013064 0.0638792 -0.475126 0.0119519 0.0592112 -0.487422 0.0229213 0.0542389 -0.498767 
0.0340741 0.048968 -0.509345 0.0452495 0.0434144 -0.519346 0.0562713 0.0376099 -0.528937 
0.0669539 0.0316064 -0.538239 0.0771082 0.0254778 -0.547313 0.0865501 0.019319 -0.556146 
0.0951087 0.0132423 -0.564658 0.102635 0.00737043 -0.572706 0.109014 0.00182839 -0.580109 
0.114167 -0.00326661 -0.586671 0.118066 -0.00781501 -0.592212 0.120736 -0.0117437 -0.596594 
0.122253 -0.0150125 -0.599744 0.122748 -0.0176181 -0.601673 0.122396 -0.0195935 -0.602478 
0.121407 -0.0210047 -0.60234 0.120015 -0.021943 -0.601505 0.118457 -0.022515 -0.600262 
0.116962 -0.0228311 -0.598909 0.115726 -0.0229931 -0.597724 0.114904 -0.023083 -0.596929 
0.114595 -0.0231534 -0.596669 
LINES 2 100
OFFSETS vtktypeint64
0 100 
CONNECTIVITY vtktypeint64
0 1 2 3 4 5 6 7 8 
9 10 11 12 13 14 15 16 17 
18 19 20 21 22 23 24 25 26 
27 28 29 30 31 32 33 34 35 
36 37 38 39 40 41 42 43 44 
45 46 47 48 49 50 51 52 53 
54 55 56 57 58 59 60 61 62 
63 64 65 66 67 68 69 70 71 
72 73 74 75 76 77 78 79 80 
81 82 83 84 85 86 87 88 89 
90 91 92 93 94 95 96 97 98 
99 
POINT_DATA 100
FIELD FieldData 3
_theta 1 100 double
0 0.031733259127 0.063466518254 0.095199777382 0.12693303651 0.15866629564 0.19039955476 0.22213281389 0.25386607302 
0.28559933214 0.31733259127 0.3490658504 0.38079910953 0.41253236865 0.44426562778 0.47599888691 0.50773214603 0.53946540516 
0.57119866429 0.60293192342 0.63466518254 0.66639844167 0.6981317008 0.72986495992 0.76159821905 0.79333147818 0.82506473731 
0.85679799643 0.88853125556 0.92026451469 0.95199777382 0.98373103294 1.0154642921 1.0471975512 1.0789308103 1.1106640695 
1.1423973286 1.1741305877 1.2058638468 1.237597106 1.2693303651 1.3010636242 1.3327968833 1.3645301425 1.3962634016 
1.4279966607 1.4597299198 1.491463179 1.5231964381 1.5549296972 1.5866629564 1.6183962155 1.6501294746 1.6818627337 
1.7135959929 1.745329252 1.7770625111 1.8087957702 1.8405290294 1.8722622885 1.9039955476 1.9357288068 1.9674620659 
1.999195325 2.0309285841 2.0626618433 2.0943951024 2.1261283615 2.1578616206 2.1895948798 2.2213281389 2.253061398 
2.2847946572 2.3165279163 2.3482611754 2.3799944345 2.4117276937 2.4434609528 2.4751942119 2.506927471 2.5386607302 
2.5703939893 2.6021272484 2.6338605076 2.6655937667 2.6973270258 2.7290602849 2.7607935441 2.7925268032 2.8242600623 
2.8559933214 2.8877265806 2.9194598397 2.9511930988 2.982926358 3.0146596171 3.0463928762 3.0781261353 3.1098593945 
3.1415926536 
_radius 1 100 double
1.2547124311e-15 0.015037127818 0.029884852672 0.04436818567 0.058339209226 0.071685627753 0.084334446928 0.096250995117 0.10743433647 
0.11791045888 0.12772439095 0.13693184276 0.14559051677 0.15375130418 0.16145021688 0.16870262773 0.17550145173 0.18181998728 
0.18761878091 0.1928549144 0.19749185288 0.20150821532 0.20490429971 0.20770582303 0.20996498167 0.21175931222 0.21318867207 
0.21437000665 0.21542887492 0.21648662989 0.21764318945 0.21895739972 0.22042919055 0.22198868196 0.22349630243 0.22475529661 
0.22553502044 0.22560120952 0.22474836762 0.22282947751 0.21977908946 0.21562713378 0.21050220098 0.20462427766 0.19828785455 
0.19183690896 0.18563369878 0.18002396794 0.17530235715 0.17168322427 0.16928245013 0.16811368349 0.16809805829 0.16908228567 
0.17085892282 0.17318476653 0.175796785 0.17842763867 0.18082325401 0.18276297874 0.1840800138 0.18467811671 0.18454089473 
0.18373170908 0.18238418756 0.18068494112 0.17885113164 0.17710603768 0.17565571524 0.17466930476 0.17426467414 0.17450017739 
0.17537251068 0.17681994592 0.17872963242 0.1809473873 0.18328863934 0.18554978658 0.18751969495 0.18899105105 0.18977089805 
0.18968934794 0.18860552338 0.18641028365 0.18302599215 0.17840413592 0.17252178847 0.16537774016 0.15698881255 0.14738663149 
0.13661504629 0.12472841075 0.1117909786 0.097877605646 0.083075731804 0.06748824308 0.051236364215 0.034461373872 0.017323897333 
5.9149627427e-16 
_area 1 100 double
0 0.00052680207685 0.0020791637621 0.0045776729001 0.0079039879922 0.011916842795 0.016467343006 0.021411163847 0.026617596248 
0.031976595715 0.037404494786 0.0428474259 0.048279993493 0.053696689638 0.059096051094 0.064462571029 0.069755802647 0.074914250235 
0.079872981633 0.084585301806 0.089033524166 0.093215248164 0.097114732078 0.10069140825 0.1038940941 0.10668626992 0.10907329478 
0.11112652961 0.11299574716 0.11489742937 0.11707120669 0.11971624828 0.1229816615 0.12682288325 0.13096340701 0.13511997006 
0.13856495963 0.1407350789 0.14124704073 0.13988955189 0.13664744132 0.13170557641 0.12542628659 0.11830632362 0.11092090389 
0.10385071714 0.097577226499 0.092370158828 0.088261883306 0.085136077831 0.082830787404 0.08119607673 0.080133184356 0.079660662483 
0.079832396956 0.080408199638 0.081093453981 0.081677909952 0.082019157927 0.08200612171 0.081490877528 0.080290910976 0.078319792317 
0.075670934273 0.072593529627 0.069422914805 0.066504684936 0.064130735 0.062494135379 0.061658829616 0.061549942649 0.061993833374 
0.062792328836 0.063776684583 0.06482667204 0.065876032232 0.066905943752 0.067926022882 0.06887371096 0.06964504424 0.070139017851 
0.070241833835 0.069830240772 0.068787455178 0.067009401965 0.064409310717 0.060930496279 0.056566463633 0.051379067731 0.045505128951 
0.039148337696 0.032559908441 0.026013928572 0.019782565125 0.014114736105 0.0092207388735 0.0052644678165 0.0023634212145 0.00059430359425 
6.277959681e-17 
