# vtk DataFile Version 5.1
vtk output
ASCII
DATASET POLYDATA
POINTS 100 float
0.150678 0.0576658 0.774308 0.150761 0.0577737 0.77414 0.151101 0.0579723 0.773429 
0.151644 0.0582671 0.772162 0.152299 0.0586654 0.770319 0.152953 0.0591749 0.767871 
0.153477 0.0598002 0.764789 0.153734 0.0605405 0.761035 0.153598 0.0613865 0.756572 
0.152952 0.0623185 0.751363 0.151703 0.0633054 0.745375 0.149784 0.0643051 0.738581 
0.147153 0.0652659 0.730965 0.143795 0.0661293 0.722522 0.139718 0.0668339 0.713264 
0.134947 0.0673202 0.703216 0.12952 0.0675353 0.692422 0.123483 0.067438 0.680938 
0.116884 0.067003 0.668829 0.109775 0.0662233 0.656171 0.102204 0.0651127 0.643037 
0.0942224 0.063705 0.629498 0.0858811 0.0620523 0.615612 0.077236 0.0602219 0.601423 
0.0683481 0.058291 0.586958 0.0592847 0.0563414 0.572219 0.0501187 0.0544533 0.55719 
0.0409266 0.0526997 0.541833 0.0317845 0.0511411 0.526095 0.0227627 0.0498223 0.509912 
0.0139201 0.0487698 0.493215 0.00529862 0.0479921 0.475935 -0.00308216 0.0474808 0.45801 
-0.0112271 0.0472145 0.439392 -0.0191661 0.0471628 0.420044 -0.0269506 0.0472919 0.399949 
-0.0346482 0.04757 0.379104 -0.0423336 0.0479722 0.357524 -0.050078 0.0484844 0.335232 
-0.0579374 0.0491057 0.312261 -0.0659414 0.0498492 0.288646 -0.0740838 0.0507404 0.264423 
-0.0823156 0.0518141 0.239625 -0.0905424 0.0531099 0.214282 -0.0986253 0.0546665 0.188416 
-0.106388 0.0565157 0.16205 -0.113624 0.0586765 0.135204 -0.120114 0.0611507 0.107902 
-0.125638 0.0639191 0.0801772 -0.129992 0.0669402 0.0520698 -0.133003 0.0701511 0.023635 
-0.134541 0.0734695 -0.00505797 -0.13453 0.0767992 -0.0339258 -0.132951 0.0800351 -0.0628727 
-0.129843 0.0830708 -0.0917941 -0.125298 0.0858054 -0.120581 -0.119455 0.0881497 -0.149124 
-0.112486 0.0900324 -0.177321 -0.104583 0.0914033 -0.205081 -0.0959467 0.0922356 -0.232325 
-0.0867713 0.0925254 -0.258995 -0.0772341 0.0922904 -0.285047 -0.0674869 0.0915651 -0.310458 
-0.0576502 0.0903968 -0.335217 -0.0478117 0.0888391 -0.359326 -0.0380267 0.086947 -0.382796 
-0.0283218 0.0847711 -0.405639 -0.0187008 0.0823534 -0.427869 -0.0091507 0.0797251 -0.449496 
0.000350448 0.0769049 -0.470524 0.00982718 0.0738996 -0.490951 0.0193004 0.0707062 -0.510771 
0.0287825 0.0673147 -0.529969 0.038274 0.063712 -0.54853 0.0477613 0.0598864 -0.566437 
0.057216 0.0558308 -0.583674 0.0665949 0.0515468 -0.60023 0.0758416 0.0470468 -0.616095 
0.0848877 0.0423548 -0.631264 0.0936557 0.0375069 -0.645738 0.102062 0.0325501 -0.659518 
0.110018 0.0275396 -0.672607 0.117439 0.0225364 -0.685009 0.124242 0.0176037 -0.696724 
0.130353 0.0128037 -0.707751 0.135713 0.00819411 -0.718086 0.140279 0.00382601 -0.72772 
0.144032 -0.000258429 -0.736643 0.146974 -0.00402691 -0.744846 0.149137 -0.00745734 -0.752318 
0.150577 -0.0105374 -0.759053 0.151379 -0.0132635 -0.765045 0.151647 -0.0156393 -0.770296 
0.151502 -0.0176736 -0.774812 0.151075 -0.0193789 -0.778602 0.150498 -0.020769 -0.781677 
0.149894 -0.0218578 -0.784052 0.149371 -0.0226571 -0.785739 0.149012 -0.023176 -0.786747 
0.148872 -0.0234198 -0.787084 
LINES 2 100
OFFSETS vtktypeint64
0 100 
CONNECTIVITY vtktypeint64
0 1 2 3 4 5 6 7 8 
9 10 11 12 13 14 15 16 17 
18 19 20 21 22 23 24 25 26 
27 28 29 30 31 32 33 34 35 
36 37 38 39 40 41 42 43 44 
45 46 47 48 49 50 51 52 53 
54 55 56 57 58 59 60 61 62 
63 64 65 66 67 68 69 70 71 
72 73 74 75 76 77 78 79 80 
81 82 83 84 85 86 87 88 89 
90 91 92 93 94 95 96 97 98 
99 
POINT_DATA 100
FIELD FieldData 3
_theta 1 100 double
0 0.031733259127 0.063466518254 0.095199777382 0.12693303651 0.15866629564 0.19039955476 0.22213281389 0.25386607302 
0.28559933214 0.31733259127 0.3490658504 0.38079910953 0.41253236865 0.44426562778 0.47599888691 0.50773214603 0.53946540516 
0.57119866429 0.60293192342 0.63466518254 0.66639844167 0.6981317008 0.72986495992 0.76159821905 0.79333147818 0.82506473731 
0.85679799643 0.88853125556 0.92026451469 0.95199777382 0.98373103294 1.0154642921 1.0471975512 1.0789308103 1.1106640695 
1.1423973286 1.1741305877 1.2058638468 1.237597106 1.2693303651 1.3010636242 1.3327968833 1.3645301425 1.3962634016 
1.4279966607 1.4597299198 1.491463179 1.5231964381 1.5549296972 1.5866629564 1.6183962155 1.6501294746 1.6818627337 
1.7135959929 1.745329252 1.7770625111 1.8087957702 1.8405290294 1.8722622885 1.9039955476 1.9357288068 1.9674620659 
1.999195325 2.0309285841 2.0626618433 2.0943951024 2.1261283615 2.1578616206 2.1895948798 2.2213281389 2.253061398 
2.2847946572 2.3165279163 2.3482611754 2.3799944345 2.4117276937 2.4434609528 2.4751942119 2.506927471 2.5386607302 
2.5703939893 2.6021272484 2.6338605076 2.6655937667 2.6973270258 2.7290602849 2.7607935441 2.7925268032 2.8242600623 
2.8559933214 2.8877265806 2.9194598397 2.9511930988 2.982926358 3.0146596171 3.0463928762 3.0781261353 3.1098593945 
3.1415926536 
_radius 1 100 double
1.1485074745e-15 0.016143867253 0.032147946139 0.047872351035 0.063187813541 0.07797947478 0.09214906718 0.10561576158 0.11831622617 
0.13020449577 0.14125210816 0.15144865452 0.16080244375 0.16934053299 0.17710719879 0.18416021951 0.19056504309 0.19638770199 
0.20168786022 0.20651345442 0.21089804922 0.21486139267 0.21841286232 0.22155669134 0.22429729351 0.22664296628 0.22860693285 
0.23020588461 0.2314572234 0.23237639935 0.23297513434 0.23326059126 0.23323519494 0.23289677971 0.23223879171 0.23125034139 
0.22991607947 0.22821622443 0.22612749531 0.2236259412 0.22069245054 0.2173209879 0.21352850655 0.2093643883 0.20491660702 
0.20031196736 0.19570889614 0.19128321342 0.18720956618 0.18364292887 0.18070488142 0.17847781573 0.17700715613 0.17630829527 
0.17637289234 0.17716982474 0.17863957244 0.18068552129 0.18316876194 0.18591221033 0.188715617 0.1913781851 0.19372304534 
0.19561818432 0.19699006067 0.19782793733 0.19817879861 0.19813448448 0.19781388757 0.19734344482 0.1968388423 0.19639011827 
0.19605142805 0.19583581833 0.19571464544 0.1956209006 0.19545563769 0.19509670018 0.19440878142 0.19325359993 0.1914989719 
0.18902599774 0.185734217 0.18154503194 0.17640375375 0.17028038286 0.16316894774 0.15508512694 0.14606208096 0.13614489004 
0.1253845682 0.11383305143 0.10154058875 0.088556464333 0.07493302613 0.060731896988 0.046030409568 0.03092607192 0.015537340894 
2.6794462775e-16 
_area 1 100 double
0 0.00064248235114 0.0025351818642 0.0055805072031 0.0096366810388 0.014544222494 0.020152556061 0.026336046519 0.032990368259 
0.04001067147 0.047266849498 0.054593998742 0.061805390717 0.068722333224 0.075208363916 0.081194798699 0.086688204287 0.091755771519 
0.096492271387 0.10098320614 0.10528472178 0.10942901578 0.11344432722 0.11737192657 0.1212678915 0.12518615263 0.12914941364 
0.13312321109 0.13700896056 0.14066132025 0.14392060484 0.14664393685 0.14872294615 0.15008524249 0.15068501563 0.15049180545 
0.14948521254 0.14765869794 0.14503036033 0.1416549117 0.13763017425 0.13309354142 0.12820833417 0.12314497572 0.11806413588 
0.11310597471 0.10838397032 0.10398002226 0.099940923653 0.096279872125 0.092989163343 0.090064633153 0.087603676952 0.085946624603 
0.084736571202 0.083811871803 0.083141241202 0.082722052197 0.082561543217 0.082646453112 0.082892763944 0.083141128921 0.083226891714 
0.083035197096 0.082509988068 0.081649428386 0.080500242886 0.079143997775 0.077679164158 0.076211579442 0.074850193435 0.073698542828 
0.072843031356 0.072345010174 0.072239259968 0.072534100906 0.073208317567 0.074205860753 0.075429263473 0.07673165999 0.077912151582 
0.078721895001 0.078885800177 0.078140121689 0.076278280289 0.073189748471 0.068878912729 0.063460726672 0.057138483422 0.050172503738 
0.042848327089 0.03545075761 0.028246851349 0.021477629022 0.015356010753 0.010067694187 0.0057720695623 0.0026011561762 0.00065579652177 
4.249415273e-17 
