# vtk DataFile Version 5.1
vtk output
ASCII
DATASET POLYDATA
POINTS 100 float
0.144153 0.0498489 0.685396 0.144264 0.050072 0.685338 0.144668 0.0505093 0.685048 
0.14531 0.0511289 0.684483 0.146107 0.051883 0.683572 0.146952 0.0527131 0.682223 
0.147726 0.0535559 0.68033 0.148307 0.0543493 0.677777 0.148578 0.0550386 0.674452 
0.148438 0.0555807 0.670252 0.147807 0.0559474 0.665091 0.146624 0.0561265 0.658909 
0.144853 0.0561207 0.651676 0.142474 0.0559453 0.643398 0.139481 0.0556241 0.634111 
0.135877 0.0551849 0.623888 0.131669 0.0546549 0.612827 0.12686 0.0540568 0.601048 
0.121453 0.053406 0.588682 0.115447 0.0527095 0.575865 0.108843 0.0519666 0.562727 
0.101647 0.0511711 0.549382 0.0938742 0.0503144 0.535924 0.0855558 0.0493899 0.522421 
0.0767429 0.0483973 0.508911 0.067508 0.0473456 0.495408 0.0579439 0.0462559 0.481899 
0.0481599 0.0451615 0.468353 0.0382749 0.0441069 0.454727 0.0284076 0.0431446 0.44097 
0.0186671 0.0423303 0.427034 0.00914206 0.0417175 0.412873 -0.000107404 0.0413515 0.398451 
-0.00905557 0.0412641 0.38374 -0.0177127 0.0414696 0.36872 -0.0261227 0.0419623 0.353375 
-0.0343555 0.0427167 0.337689 -0.0424969 0.04369 0.321641 -0.0506348 0.0448263 0.305199 
-0.0588445 0.0460634 0.288323 -0.067175 0.0473395 0.270956 -0.0756369 0.048601 0.253034 
-0.0841945 0.049809 0.234485 -0.0927631 0.0509445 0.215235 -0.10121 0.0520112 0.195223 
-0.109365 0.0530354 0.174398 -0.117028 0.054064 0.152739 -0.123987 0.0551584 0.130252 
-0.130036 0.0563878 0.106979 -0.134988 0.0578205 0.0829944 -0.138694 0.059515 0.0584056 
-0.141048 0.0615115 0.0333436 -0.142 0.0638253 0.00795483 -0.141551 0.0664429 -0.0176097 
-0.139752 0.0693195 -0.043206 -0.136695 0.0723817 -0.0687072 -0.132503 0.0755312 -0.0940118 
-0.127313 0.0786519 -0.119049 -0.121265 0.0816189 -0.143777 -0.11449 0.0843078 -0.168186 
-0.107103 0.0866043 -0.192285 -0.099194 0.0884124 -0.216098 -0.0908277 0.0896612 -0.239649 
-0.0820476 0.0903088 -0.262955 -0.0728801 0.0903432 -0.286016 -0.0633421 0.0897813 -0.308807 
-0.0534494 0.0886642 -0.331276 -0.0432248 0.0870513 -0.35335 -0.032704 0.085013 -0.374931 
-0.0219401 0.0826228 -0.395914 -0.0110042 0.07995 -0.416191 1.61207e-05 0.0770533 -0.435665 
0.0110208 0.0739768 -0.454262 0.0219033 0.0707476 -0.471934 0.0325571 0.0673755 -0.488666 
0.0428822 0.063856 -0.504477 0.0527907 0.0601735 -0.519411 0.0622106 0.0563068 -0.533533 
0.071087 0.052235 -0.546914 0.0793825 0.047943 -0.55962 0.0870744 0.0434265 -0.571697 
0.0941517 0.0386956 -0.583166 0.100611 0.0337766 -0.594014 0.106454 0.0287127 -0.604189 
0.111683 0.0235619 -0.613612 0.116302 0.0183939 -0.62218 0.120314 0.0132861 -0.629783 
0.123725 0.00831817 -0.636317 0.126547 0.00356755 -0.641704 0.128802 -0.000895616 -0.645905 
0.13052 -0.00501203 -0.648933 0.131747 -0.00873575 -0.650857 0.132543 -0.0120352 -0.651804 
0.132982 -0.0148929 -0.651953 0.133144 -0.0173035 -0.65152 0.133118 -0.019271 -0.650739 
0.132987 -0.0208056 -0.649844 0.132826 -0.0219195 -0.649046 0.132695 -0.0226238 -0.64851 
0.132632 -0.0229258 -0.648343 
LINES 2 100
OFFSETS vtktypeint64
0 100 
CONNECTIVITY vtktypeint64
0 1 2 3 4 5 6 7 8 
9 10 11 12 13 14 15 16 17 
18 19 20 21 22 23 24 25 26 
27 28 29 30 31 32 33 34 35 
36 37 38 39 40 41 42 43 44 
45 46 47 48 49 50 51 52 53 
54 55 56 57 58 59 60 61 62 
63 64 65 66 67 68 69 70 71 
72 73 74 75 76 77 78 79 80 
81 82 83 84 85 86 87 88 89 
90 91 92 93 94 95 96 97 98 
99 
POINT_DATA 100
FIELD FieldData 3
_theta 1 100 double
0 0.031733259127 0.063466518254 0.095199777382 0.12693303651 0.15866629564 0.19039955476 0.22213281389 0.25386607302 
0.28559933214 0.31733259127 0.3490658504 0.38079910953 0.41253236865 0.44426562778 0.47599888691 0.50773214603 0.53946540516 
0.57119866429 0.60293192342 0.63466518254 0.66639844167 0.6981317008 0.72986495992 0.76159821905 0.79333147818 0.82506473731 
0.85679799643 0.88853125556 0.92026451469 0.95199777382 0.98373103294 1.0154642921 1.0471975512 1.0789308103 1.1106640695 
1.1423973286 1.1741305877 1.2058638468 1.237597106 1.2693303651 1.3010636242 1.3327968833 1.3645301425 1.3962634016 
1.4279966607 1.4597299198 1.491463179 1.5231964381 1.5549296972 1.5866629564 1.6183962155 1.6501294746 1.6818627337 
1.7135959929 1.745329252 1.7770625111 1.8087957702 1.8405290294 1.8722622885 1.9039955476 1.9357288068 1.9674620659 
1.999195325 2.0309285841 2.0626618433 2.0943951024 2.1261283615 2.1578616206 2.1895948798 2.2213281389 2.253061398 
2.2847946572 2.3165279163 2.3482611754 2.3799944345 2.4117276937 2.4434609528 2.4751942119 2.506927471 2.5386607302 
2.5703939893 2.6021272484 2.6338605076 2.6655937667 2.6973270258 2.7290602849 2.7607935441 2.7925268032 2.8242600623 
2.8559933214 2.8877265806 2.9194598397 2.9511930988 2.982926358 3.0146596171 3.0463928762 3.0781261353 3.1098593945 
3.1415926536 
_radius 1 100 double
1.0333129057e-15 0.017514351092 0.034737220119 0.051394017036 0.067252667126 0.082138803489 0.09594446166 0.10862963242 0.12021705504 
0.1307815531 0.14043580676 0.14931455982 0.15755890357 0.16530171406 0.17265490764 0.17969914742 0.18647690057 0.19298996822 
0.19920242432 0.20504918965 0.2104494217 0.21532286965 0.21960663507 0.22326956753 0.22632185078 0.22881812131 0.23085352844 
0.23255326703 0.23405707899 0.2355008804 0.23699796366 0.23862217197 0.24039514448 0.24227929444 0.24417764555 0.24594095532 
0.24738167715 0.24829340316 0.24847373018 0.24774813036 0.24599233234 0.24315081815 0.23924927031 0.23439918848 0.22879345887 
0.22269240285 0.21640077702 0.2102374614 0.20450130441 0.19943864017 0.19521939369 0.19192775632 0.18956917245 0.18808933076 
0.18739654054 0.1873789861 0.18791264998 0.18886167096 0.19007741454 0.19140299331 0.19268597679 0.19379645085 0.19464442381 
0.19519123639 0.19545234692 0.19549135793 0.19540671295 0.19531355818 0.19532401246 0.19552916088 0.19598528344 0.19670550474 
0.19765681457 0.19876165443 0.19990302244 0.20093218426 0.20167838387 0.20196013472 0.20159755993 0.20042493868 0.19830233771 
0.19512510854 0.1908301399 0.18539805443 0.1788510084 0.17124636187 0.16266716281 0.15321099785 0.14297910802 0.13206756504 
0.12056171134 0.10853417448 0.096045923927 0.083149346452 0.069892254627 0.056321953592 0.042488736195 0.028448318233 0.014262809938 
1.201917655e-15 
_area 1 100 double
0 0.00076071773836 0.0029891935583 0.0065341771052 0.011173451219 0.016649991462 0.022708299193 0.0291225193 0.035711592011 
0.04234146906 0.048918462108 0.055379636449 0.061685274947 0.067815385529 0.07376867248 0.079560368573 0.085215951988 0.090760519068 
0.096206670381 0.10154533097 0.1067432684 0.11174897264 0.11650618785 0.12097233343 0.12513783752 0.12904237991 0.13278278834 
0.13650043658 0.14033646371 0.14437963793 0.14864861296 0.15310041823 0.15763526165 0.16209223229 0.1662486194 0.16983079704 
0.17253642464 0.17406815404 0.17417014913 0.17267795178 0.16959147772 0.16510773278 0.15953889491 0.15339424866 0.14631001141 
0.13856439475 0.13057801804 0.12278056126 0.1155639034 0.10925923808 0.10415653554 0.10044324692 0.097781466023 0.095739294754 
0.094094855829 0.092725235223 0.091539402819 0.090425001274 0.089234062677 0.087812969624 0.086061077067 0.083974095265 0.081651876241 
0.07933458635 0.077456033287 0.076048813191 0.074850030552 0.073838412821 0.073072926005 0.072629547898 0.072578908388 0.072973419305 
0.073842305183 0.075191940726 0.077004137058 0.079225193439 0.081740999412 0.084348226481 0.086753501288 0.088614934849 0.089600852104 
0.089440154165 0.087958050176 0.085096297397 0.080915384608 0.075577312437 0.069312423147 0.062379396434 0.055030861426 0.047494994349 
0.039975050028 0.032658837136 0.02572679798 0.019352343518 0.013695310589 0.0088933754173 0.0050560727997 0.0022634069137 0.00056820936776 
7.0276624607e-17 
