# vtk DataFile Version 5.1
vtk output
ASCII
DATASET POLYDATA
POINTS 100 float
0.14644 0.0387816 0.672152 0.146054 0.038955 0.672202 0.144999 0.0393747 0.672205 
0.14333 0.0400294 0.672066 0.141133 0.040901 0.671639 0.138512 0.0419642 0.670746 
0.135578 0.043186 0.669192 0.132438 0.0445261 0.666789 0.129181 0.0459371 0.663379 
0.125866 0.0473653 0.658845 0.122522 0.0487521 0.653127 0.119138 0.0500355 0.646229 
0.115671 0.0511532 0.63821 0.112046 0.0520445 0.629185 0.10817 0.0526539 0.619307 
0.103937 0.0529339 0.608752 0.0992471 0.0528478 0.597701 0.0940085 0.0523721 0.586323 
0.088153 0.0514985 0.574759 0.0816401 0.0502348 0.563114 0.07446 0.0486054 0.55145 
0.0666338 0.0466506 0.539789 0.0582097 0.0444246 0.528114 0.0492578 0.0419941 0.516381 
0.0398624 0.0394346 0.504529 0.030114 0.0368275 0.492493 0.0201018 0.0342564 0.480212 
0.00990711 0.0318033 0.46764 -0.0004015 0.0295449 0.454748 -0.0107711 0.0275501 0.441524 
-0.0211651 0.0258767 0.427972 -0.0315623 0.0245698 0.414104 -0.041954 0.0236604 0.39993 
-0.0523409 0.0231651 0.38545 -0.0627282 0.0230863 0.370649 -0.0731216 0.0234134 0.355485 
-0.0835228 0.0241247 0.339895 -0.0939256 0.0251897 0.32379 -0.104312 0.0265717 0.307065 
-0.114649 0.0282316 0.289609 -0.124888 0.03013 0.271311 -0.134959 0.0322308 0.252082 
-0.144772 0.0345036 0.231856 -0.15422 0.0369252 0.21061 -0.163175 0.0394811 0.188363 
-0.171495 0.0421655 0.165182 -0.17903 0.0449801 0.141178 -0.185626 0.0479331 0.1165 
-0.191139 0.0510358 0.0913271 -0.195444 0.0542997 0.0658513 -0.198446 0.0577329 0.0402666 
-0.200093 0.0613361 0.0147548 -0.200382 0.0650997 -0.0105269 -0.199368 0.0690005 -0.0354545 
-0.197167 0.0730005 -0.0599432 -0.193947 0.0770463 -0.0839492 -0.189924 0.0810699 -0.107467 
-0.185345 0.0849912 -0.130526 -0.180468 0.0887216 -0.153178 -0.175539 0.0921687 -0.175495 
-0.170769 0.0952418 -0.197552 -0.166314 0.097857 -0.219422 -0.162252 0.0999431 -0.241166 
-0.158576 0.101446 -0.262827 -0.155188 0.102332 -0.284428 -0.151905 0.10259 -0.305965 
-0.148477 0.102231 -0.327412 -0.144607 0.101287 -0.348718 -0.139984 0.0998081 -0.369814 
-0.134317 0.0978586 -0.390614 -0.127363 0.0955101 -0.41102 -0.118965 0.0928369 -0.430926 
-0.109067 0.0899105 -0.450222 -0.0977292 0.0867942 -0.468803 -0.0851302 0.0835399 -0.486567 
-0.0715524 0.0801851 -0.503425 -0.0573604 0.0767527 -0.519302 -0.0429689 0.0732515 -0.534145 
-0.0288038 0.0696784 -0.547924 -0.0152634 0.0660221 -0.560635 -0.00268135 0.0622668 -0.572302 
0.0087038 0.0583969 -0.58298 0.0187676 0.0544012 -0.592745 0.027507 0.0502765 -0.601698 
0.0350334 0.04603 -0.609952 0.0415532 0.0416816 -0.617627 0.0473381 0.0372635 -0.624841 
0.0526874 0.0328198 -0.631698 0.0578887 0.0284047 -0.638279 0.0631799 0.0240796 -0.644634 
0.0687179 0.0199104 -0.65078 0.0745578 0.0159643 -0.656693 0.0806448 0.0123067 -0.662315 
0.0868192 0.00899906 -0.667554 0.0928354 0.00609622 -0.672295 0.0983911 0.00364556 -0.676411 
0.103163 0.0016859 -0.679774 0.106848 0.000247154 -0.682268 0.109197 -0.00064966 -0.6838 
0.110045 -0.000992315 -0.684311 
LINES 2 100
OFFSETS vtktypeint64
0 100 
CONNECTIVITY vtktypeint64
0 1 2 3 4 5 6 7 8 
9 10 11 12 13 14 15 16 17 
18 19 20 21 22 23 24 25 26 
27 28 29 30 31 32 33 34 35 
36 37 38 39 40 41 42 43 44 
45 46 47 48 49 50 51 52 53 
54 55 56 57 58 59 60 61 62 
63 64 65 66 67 68 69 70 71 
72 73 74 75 76 77 78 79 80 
81 82 83 84 85 86 87 88 89 
90 91 92 93 94 95 96 97 98 
99 
POINT_DATA 100
FIELD FieldData 3
_theta 1 100 double
0 0.031733259127 0.063466518254 0.095199777382 0.12693303651 0.15866629564 0.19039955476 0.22213281389 0.25386607302 
0.28559933214 0.31733259127 0.3490658504 0.38079910953 0.41253236865 0.44426562778 0.47599888691 0.50773214603 0.53946540516 
0.57119866429 0.60293192342 0.63466518254 0.66639844167 0.6981317008 0.72986495992 0.76159821905 0.79333147818 0.82506473731 
0.85679799643 0.88853125556 0.92026451469 0.95199777382 0.98373103294 1.0154642921 1.0471975512 1.0789308103 1.1106640695 
1.1423973286 1.1741305877 1.2058638468 1.237597106 1.2693303651 1.3010636242 1.3327968833 1.3645301425 1.3962634016 
1.4279966607 1.4597299198 1.491463179 1.5231964381 1.5549296972 1.5866629564 1.6183962155 1.6501294746 1.6818627337 
1.7135959929 1.745329252 1.7770625111 1.8087957702 1.8405290294 1.8722622885 1.9039955476 1.9357288068 1.9674620659 
1.999195325 2.0309285841 2.0626618433 2.0943951024 2.1261283615 2.1578616206 2.1895948798 2.2213281389 2.253061398 
2.2847946572 2.3165279163 2.3482611754 2.3799944345 2.4117276937 2.4434609528 2.4751942119 2.506927471 2.5386607302 
2.5703939893 2.6021272484 2.6338605076 2.6655937667 2.6973270258 2.7290602849 2.7607935441 2.7925268032 2.8242600623 
2.8559933214 2.8877265806 2.9194598397 2.9511930988 2.982926358 3.0146596171 3.0463928762 3.0781261353 3.1098593945 
3.1415926536 
_radius 1 100 double
1.4900375968e-15 0.015452562257 0.030664095432 0.04541288808 0.059512650661 0.07282304441 0.085253230873 0.096758641672 0.1073326859 
0.11699620842 0.12578777807 0.13375711977 0.1409624191 0.14747043526 0.15335705876 0.15870563785 0.16360145967 0.16812336787 
0.17233622354 0.17628772269 0.18000967862 0.18352119177 0.18683145822 0.18994167864 0.19284646694 0.19553490625 0.19799095708 
0.20019308689 0.2021135073 0.20371770211 0.20496485991 0.20580956486 0.20620481915 0.20610625593 0.20547727289 0.20429474498 
0.20255487556 0.20027854587 0.19751523681 0.19434437127 0.19087298752 0.1872291798 0.18355171635 0.17997738915 0.17662849875 
0.17360300808 0.17096921402 0.16876555663 0.16700480793 0.16568067301 0.16477412029 0.16425693988 0.16409132961 0.16422634443 
0.1645937696 0.16510633485 0.16566010493 0.16614142471 0.16643788031 0.16645184844 0.16611336316 0.16538758231 0.16427468782 
0.16280621829 0.1610434927 0.15907752348 0.157025704 0.15502367369 0.15321429922 0.15173611755 0.15071304568 0.1502467791 
0.15041192684 0.15125144511 0.15276869711 0.15491451404 0.15757217594 0.16054742987 0.16357121382 0.16631811543 0.16843666645 
0.16958364472 0.16945541106 0.1678124451 0.16449595067 0.15943675762 0.15265702846 0.1442651779 0.13444450638 0.12343645101 
0.11151979938 0.09898742914 0.086122186067 0.073173710672 0.060338527579 0.047746167197 0.035453764028 0.023450060448 0.011667564346 
5.5863215067e-16 
_area 1 100 double
0 0.00049931049863 0.0019694515595 0.0043318146682 0.0074700536881 0.011247816338 0.015525490714 0.020170520506 0.025058892048 
0.030069804998 0.035079265595 0.03995963849 0.044589623058 0.048873889611 0.052767056373 0.056293395315 0.05954973777 0.062678454009 
0.065814915125 0.069048229936 0.072429483932 0.076002501169 0.079813016315 0.083885342846 0.088182973919 0.092589093509 0.096935846372 
0.10106007584 0.10484004573 0.10819626587 0.11106743141 0.11338514413 0.11506765527 0.11603289543 0.11621853624 0.11560057173 
0.1142074652 0.11212817366 0.10951186722 0.10655732404 0.10349099843 0.10053144179 0.097834845812 0.09544517753 0.093309238933 
0.091342597728 0.089480054561 0.087692980579 0.08598390042 0.084369805289 0.082863047541 0.081457731592 0.080123776909 0.078806164299 
0.077432816122 0.075937264842 0.074284781117 0.072455685041 0.070421004623 0.068176531292 0.065786996166 0.063448196311 0.061400633778 
0.0596555332 0.058189331839 0.057022137167 0.05621657962 0.05586461916 0.0559571951 0.056216070896 0.05657870445 0.057073780072 
0.057714065346 0.058482653959 0.059355087313 0.060311337779 0.061323502874 0.062348197086 0.063331442571 0.064201016479 0.064840435783 
0.065071140452 0.064669630973 0.063419189274 0.061165750618 0.057844895577 0.053478968441 0.048174141969 0.042130134635 0.035637666352 
0.029046681961 0.022714615177 0.016952864475 0.011986510964 0.0079354497997 0.0048180630818 0.0025732664808 0.0010940548415 0.00026538426501 
5.5551848517e-17 
