# vtk DataFile Version 5.1
vtk output
ASCII
DATASET POLYDATA
POINTS 100 float
0.184145 0.0351192 0.698037 0.183975 0.0354832 0.697977 0.183585 0.0364291 0.697657 
0.182979 0.0379018 0.697045 0.182159 0.0398153 0.696092 0.181123 0.0420597 0.694731 
0.179863 0.0445112 0.692885 0.178362 0.0470414 0.690471 0.176588 0.0495282 0.687404 
0.174499 0.0518644 0.683606 0.172038 0.0539649 0.679011 0.16914 0.0557715 0.67357 
0.165734 0.0572537 0.667258 0.161748 0.0584082 0.660076 0.157119 0.0592542 0.652052 
0.151794 0.0598279 0.643242 0.145743 0.0601747 0.633722 0.138954 0.0603423 0.623586 
0.131444 0.060373 0.612938 0.123255 0.0602987 0.601879 0.114452 0.0601372 0.590504 
0.105119 0.0598912 0.578888 0.095353 0.0595497 0.567083 0.0852579 0.0590918 0.555113 
0.0749367 0.0584919 0.54297 0.0644848 0.0577262 0.530623 0.0539854 0.0567793 0.518015 
0.0435051 0.0556496 0.505076 0.0330924 0.0543539 0.491732 0.0227784 0.052929 0.477912 
0.0125784 0.051432 0.463558 0.00249586 0.0499366 0.448633 -0.00747358 0.0485282 0.433122 
-0.0173371 0.0472973 0.417034 -0.0271003 0.0463313 0.400397 -0.0367635 0.0457069 0.383256 
-0.0463193 0.0454827 0.365661 -0.0557503 0.0456944 0.347656 -0.0650295 0.0463513 0.329276 
-0.0741201 0.0474364 0.310537 -0.0829772 0.0489085 0.29143 -0.0915489 0.050707 0.271924 
-0.0997784 0.0527592 0.25197 -0.107605 0.0549874 0.231506 -0.114967 0.0573179 0.210467 
-0.1218 0.0596876 0.188801 -0.128042 0.0620504 0.166476 -0.133631 0.0643798 0.143492 
-0.138509 0.0666707 0.119886 -0.142627 0.0689366 0.0957386 -0.14594 0.071205 0.0711639 
-0.148421 0.0735114 0.0463074 -0.150054 0.075891 0.0213314 -0.150846 0.0783708 -0.00359916 
-0.150825 0.0809625 -0.0283329 -0.150045 0.0836566 -0.0527469 -0.148581 0.0864192 -0.076759 
-0.146531 0.0891914 -0.100335 -0.144009 0.0918918 -0.12349 -0.141141 0.0944214 -0.146287 
-0.138051 0.096671 -0.168822 -0.134856 0.0985294 -0.191215 -0.131654 0.0998927 -0.213588 
-0.128516 0.100673 -0.236053 -0.125477 0.100804 -0.258686 -0.12253 0.100247 -0.281526 
-0.119628 0.0989924 -0.304557 -0.116685 0.0970599 -0.327713 -0.113582 0.0944928 -0.350883 
-0.110175 0.0913538 -0.373916 -0.10631 0.087718 -0.396646 -0.101835 0.0836642 -0.4189 
-0.0966152 0.0792688 -0.440522 -0.0905424 0.0745988 -0.461384 -0.083549 0.0697077 -0.4814 
-0.0756125 0.0646341 -0.50053 -0.0667594 0.0594019 -0.518776 -0.0570634 0.054023 -0.536179 
-0.0466404 0.0485021 -0.552803 -0.0356401 0.0428424 -0.568719 -0.0242349 0.037051 -0.583991 
-0.0126085 0.0311449 -0.598659 -0.00094382 0.0251545 -0.612725 0.0105874 0.0191256 -0.62615 
0.0218323 0.0131195 -0.638856 0.0326627 0.00721026 -0.650727 0.042977 0.00148044 -0.661629 
0.0526993 -0.00398469 -0.671423 0.0617763 -0.00910369 -0.679986 0.0701725 -0.0138053 -0.687231 
0.0778641 -0.018034 -0.693121 0.0848334 -0.0217534 -0.697679 0.0910643 -0.0249483 -0.700994 
0.0965385 -0.0276236 -0.703213 0.101234 -0.0298018 -0.70453 0.105127 -0.0315174 -0.70517 
0.10819 -0.0328117 -0.705361 0.110398 -0.0337252 -0.705314 0.11173 -0.0342919 -0.705199 
0.112173 -0.034534 -0.705128 
LINES 2 100
OFFSETS vtktypeint64
0 100 
CONNECTIVITY vtktypeint64
0 1 2 3 4 5 6 7 8 
9 10 11 12 13 14 15 16 17 
18 19 20 21 22 23 24 25 26 
27 28 29 30 31 32 33 34 35 
36 37 38 39 40 41 42 43 44 
45 46 47 48 49 50 51 52 53 
54 55 56 57 58 59 60 61 62 
63 64 65 66 67 68 69 70 71 
72 73 74 75 76 77 78 79 80 
81 82 83 84 85 86 87 88 89 
90 91 92 93 94 95 96 97 98 
99 
POINT_DATA 100
FIELD FieldData 3
_theta 1 100 double
0 0.031733259127 0.063466518254 0.095199777382 0.12693303651 0.15866629564 0.19039955476 0.22213281389 0.25386607302 
0.28559933214 0.31733259127 0.3490658504 0.38079910953 0.41253236865 0.44426562778 0.47599888691 0.50773214603 0.53946540516 
0.57119866429 0.60293192342 0.63466518254 0.66639844167 0.6981317008 0.72986495992 0.76159821905 0.79333147818 0.82506473731 
0.85679799643 0.88853125556 0.92026451469 0.95199777382 0.98373103294 1.0154642921 1.0471975512 1.0789308103 1.1106640695 
1.1423973286 1.1741305877 1.2058638468 1.237597106 1.2693303651 1.3010636242 1.3327968833 1.3645301425 1.3962634016 
1.4279966607 1.4597299198 1.491463179 1.5231964381 1.5549296972 1.5866629564 1.6183962155 1.6501294746 1.6818627337 
1.7135959929 1.745329252 1.7770625111 1.8087957702 1.8405290294 1.8722622885 1.9039955476 1.9357288068 1.9674620659 
1.999195325 2.0309285841 2.0626618433 2.0943951024 2.1261283615 2.1578616206 2.1895948798 2.2213281389 2.253061398 
2.2847946572 2.3165279163 2.3482611754 2.3799944345 2.4117276937 2.4434609528 2.4751942119 2.506927471 2.5386607302 
2.5703939893 2.6021272484 2.6338605076 2.6655937667 2.6973270258 2.7290602849 2.7607935441 2.7925268032 2.8242600623 
2.8559933214 2.8877265806 2.9194598397 2.9511930988 2.982926358 3.0146596171 3.0463928762 3.0781261353 3.1098593945 
3.1415926536 
_radius 1 100 double
1.2385488286e-15 0.015747448576 0.031335867742 0.046612023192 0.061438381948 0.075698568769 0.08930040409 0.10217647621 0.11428263158 
0.12559506006 0.13610672241 0.14582371278 0.15476187017 0.16294370593 0.17039562084 0.17714546231 0.18322064242 0.18864718647 
0.19345009195 0.19765517467 0.20129218166 0.20439848497 0.20702230398 0.20922425878 0.2110761944 0.21265665309 0.21404309829 
0.21530192026 0.21647814737 0.21758727404 0.21861134589 0.21950037157 0.22017868335 0.22055472466 0.22053236458 0.22002217579 
0.21895172597 0.21727438548 0.21497627852 0.21208091715 0.20865096684 0.20478664146 0.20062044946 0.19630839699 0.19201827422 
0.18791623041 0.18415331354 0.18085380388 0.17810688069 0.17596247218 0.17443125797 0.17348800954 0.17307700397 0.17311821436 
0.17351333475 0.17415135776 0.17491409692 0.17568214907 0.17634104469 0.17678645725 0.17692744649 0.17668794738 0.17600812377 
0.17484764622 0.1731918542 0.1710595164 0.16850894468 0.1656390563 0.16258375473 0.15950037764 0.15655458226 0.15390472377 
0.15168887299 0.15001669516 0.1489660297 0.14858131949 0.14887020175 0.14979646572 0.15127081253 0.15314321516 0.15520106127 
0.1571760305 0.15876061184 0.15963278253 0.15948509163 0.15805297567 0.15513722001 0.15061700074 0.14445220122 0.13667591848 
0.12737977524 0.11669564045 0.10477757033 0.09178719465 0.077884482149 0.063224136524 0.047956323375 0.032229533787 0.016193395832 
3.1375765995e-16 
_area 1 100 double
0 0.00056694076059 0.0022422151814 0.0049523700249 0.0085849083524 0.013000921938 0.018048985167 0.02357790543 0.029446633269 
0.035530644291 0.041725015668 0.047944905476 0.054124114212 0.06021208766 0.066169519668 0.071962950318 0.077559518172 0.082924021107 
0.088020618322 0.092819938511 0.097309649264 0.10150401136 0.1054468456 0.10920418438 0.11284786629 0.11643658597 0.12000158387 
0.12353971896 0.12701330219 0.13035515371 0.13347493645 0.13626339854 0.13859752187 0.14035150315 0.14141201367 0.14169132385 
0.14113386588 0.13971620836 0.1374438576 0.13434966982 0.13049621047 0.12597979736 0.12093301944 0.1155251802 0.10995994721 
0.10446697001 0.099285050699 0.094636325741 0.090687133882 0.087496322579 0.084999875796 0.083068035048 0.081543575413 0.080257840826 
0.079069791206 0.077871280872 0.076569762162 0.075084424001 0.073360212637 0.071386481796 0.069207357568 0.066922547506 0.064708884436 
0.062840975046 0.061280164422 0.059836437968 0.058377833347 0.056842065797 0.055256888835 0.053718928732 0.052349817416 0.051268333176 
0.050588797246 0.050447226765 0.050964804439 0.052145667547 0.053873664628 0.055979666012 0.058273329325 0.060552429591 0.062610720435 
0.06424554102 0.065263566249 0.065486903284 0.064763737189 0.062985157861 0.060104667946 0.056153285284 0.051243644857 0.045560730062 
0.039342256118 0.032855074589 0.026373561819 0.02016296979 0.014467809711 0.009503909795 0.0054527103895 0.0024571489033 0.0006193169558 
2.8216256479e-17 
