# vtk DataFile Version 5.1
vtk output
ASCII
DATASET POLYDATA
POINTS 100 float
0.184783 0.0749206 0.77171 0.184834 0.0750072 0.771546 0.185059 0.0751157 0.770886 
0.185391 0.0752517 0.769706 0.18572 0.0754236 0.767971 0.185917 0.0756392 0.76563 
0.185839 0.0759028 0.76262 0.185351 0.076212 0.758869 0.184339 0.0765547 0.754298 
0.18272 0.0769076 0.748825 0.180451 0.0772355 0.742378 0.177524 0.0774927 0.734896 
0.173968 0.0776256 0.726343 0.169834 0.0775764 0.716709 0.165187 0.0772883 0.706023 
0.160088 0.0767107 0.694349 0.154586 0.0758046 0.68179 0.148708 0.0745468 0.668482 
0.142452 0.0729334 0.654586 0.135787 0.0709814 0.640278 0.128665 0.0687286 0.625735 
0.121022 0.0662315 0.611121 0.112799 0.0635621 0.596569 0.103953 0.0608023 0.582176 
0.0944723 0.0580391 0.567993 0.084383 0.0553579 0.554016 0.0737581 0.0528375 0.540195 
0.0627141 0.0505447 0.526436 0.0514046 0.048531 0.512614 0.040007 0.0468303 0.498586 
0.0287055 0.045458 0.484204 0.0176719 0.0444122 0.469335 0.00704663 0.0436756 0.45387 
-0.00307682 0.0432188 0.437733 -0.0126629 0.0430036 0.420887 -0.0217377 0.0429878 0.403333 
-0.0303854 0.0431285 0.385105 -0.0387367 0.043386 0.366255 -0.0469515 0.0437268 0.34685 
-0.0551969 0.0441257 0.32695 -0.0636228 0.0445673 0.306601 -0.0723393 0.0450462 0.285825 
-0.0813971 0.0455672 0.264614 -0.0907743 0.046144 0.242931 -0.100371 0.0467978 0.220712 
-0.110012 0.0475553 0.19788 -0.11946 0.048446 0.174353 -0.12843 0.0494998 0.150061 
-0.136616 0.0507439 0.12496 -0.143719 0.0522001 0.0990408 -0.149467 0.0538818 0.0723392 
-0.153642 0.0557919 0.0449382 -0.156098 0.0579204 0.0169653 -0.156767 0.0602435 -0.0114156 
-0.155665 0.0627229 -0.040016 -0.152886 0.0653068 -0.0686379 -0.148588 0.0679306 -0.09709 
-0.142978 0.0705205 -0.125202 -0.13629 0.072996 -0.152839 -0.128765 0.0752746 -0.179905 
-0.120632 0.077276 -0.20635 -0.112091 0.0789262 -0.232167 -0.103304 0.0801616 -0.257381 
-0.094388 0.0809321 -0.282043 -0.0854168 0.0812025 -0.306215 -0.0764251 0.0809535 -0.329953 
-0.0674174 0.0801806 -0.353303 -0.0583787 0.0788919 -0.376285 -0.0492857 0.0771055 -0.39889 
-0.0401167 0.0748451 -0.421084 -0.0308597 0.0721374 -0.442807 -0.021517 0.0690082 -0.463984 
-0.0121074 0.0654806 -0.484534 -0.00266462 0.0615744 -0.504382 0.00676597 0.0573065 -0.523467 
0.0161322 0.0526931 -0.541754 0.0253805 0.0477538 -0.559233 0.0344608 0.042515 -0.575922 
0.0433296 0.037015 -0.591863 0.0519527 0.0313075 -0.607114 0.0603045 0.0254643 -0.621738 
0.068367 0.0195759 -0.635795 0.0761267 0.0137503 -0.649327 0.083572 0.00810828 -0.662358 
0.0906898 0.00277772 -0.674881 0.0974633 -0.00211508 -0.686863 0.103871 -0.00645462 -0.698244 
0.109887 -0.0101459 -0.708949 0.115483 -0.0131234 -0.718893 0.120629 -0.0153576 -0.727991 
0.125297 -0.0168598 -0.736174 0.129467 -0.0176827 -0.743392 0.133123 -0.0179176 -0.749618 
0.136259 -0.0176877 -0.754858 0.138878 -0.0171385 -0.75914 0.14099 -0.0164255 -0.762512 
0.142609 -0.0157009 -0.765034 0.143751 -0.0150999 -0.766768 0.14443 -0.0147286 -0.767764 
0.144657 -0.0146546 -0.768061 
LINES 2 100
OFFSETS vtktypeint64
0 100 
CONNECTIVITY vtktypeint64
0 1 2 3 4 5 6 7 8 
9 10 11 12 13 14 15 16 17 
18 19 20 21 22 23 24 25 26 
27 28 29 30 31 32 33 34 35 
36 37 38 39 40 41 42 43 44 
45 46 47 48 49 50 51 52 53 
54 55 56 57 58 59 60 61 62 
63 64 65 66 67 68 69 70 71 
72 73 74 75 76 77 78 79 80 
81 82 83 84 85 86 87 88 89 
90 91 92 93 94 95 96 97 98 
99 
POINT_DATA 100
FIELD FieldData 3
_theta 1 100 double
0 0.031733259127 0.063466518254 0.095199777382 0.12693303651 0.15866629564 0.19039955476 0.22213281389 0.25386607302 
0.28559933214 0.31733259127 0.3490658504 0.38079910953 0.41253236865 0.44426562778 0.47599888691 0.50773214603 0.53946540516 
0.57119866429 0.60293192342 0.63466518254 0.66639844167 0.6981317008 0.72986495992 0.76159821905 0.79333147818 0.82506473731 
0.85679799643 0.88853125556 0.92026451469 0.95199777382 0.98373103294 1.0154642921 1.0471975512 1.0789308103 1.1106640695 
1.1423973286 1.1741305877 1.2058638468 1.237597106 1.2693303651 1.3010636242 1.3327968833 1.3645301425 1.3962634016 
1.4279966607 1.4597299198 1.491463179 1.5231964381 1.5549296972 1.5866629564 1.6183962155 1.6501294746 1.6818627337 
1.7135959929 1.745329252 1.7770625111 1.8087957702 1.8405290294 1.8722622885 1.9039955476 1.9357288068 1.9674620659 
1.999195325 2.0309285841 2.0626618433 2.0943951024 2.1261283615 2.1578616206 2.1895948798 2.2213281389 2.253061398 
2.2847946572 2.3165279163 2.3482611754 2.3799944345 2.4117276937 2.4434609528 2.4751942119 2.506927471 2.5386607302 
2.5703939893 2.6021272484 2.6338605076 2.6655937667 2.6973270258 2.7290602849 2.7607935441 2.7925268032 2.8242600623 
2.8559933214 2.8877265806 2.9194598397 2.9511930988 2.982926358 3.0146596171 3.0463928762 3.0781261353 3.1098593945 
3.1415926536 
_radius 1 100 double
3.4915808093e-16 0.015022389998 0.029985944951 0.044818839719 0.059441715832 0.073765955048 0.087693763195 0.1011205084 0.11393941869 
0.12604826296 0.13735717147 0.14779645494 0.15732323049 0.16592583656 0.17362534399 0.18047387561 0.18654987996 0.1919509157 
0.1967848276 0.20116037266 0.20517836846 0.20892433185 0.2124634095 0.21583816435 0.21906939986 0.22215964628 0.22509832526 
0.22786720394 0.23044476547 0.23280858896 0.23493556168 0.23680044633 0.23837374588 0.23961985659 0.24049625821 0.24095414512 
0.24094062088 0.24040241968 0.23929102273 0.23756891331 0.23521652059 0.23223916677 0.228673109 0.22458960968 0.2200959367 
0.21533237378 0.21046478358 0.20567303287 0.20113657558 0.19701946079 0.19345754055 0.19055015913 0.18835698275 0.18689861955 
0.18615853196 0.18608422855 0.18658761008 0.18754655235 0.1888108381 0.19021435248 0.19159255023 0.19280153406 0.19373424952 
0.19433030512 0.19457782917 0.19450779506 0.194182929 0.19368418181 0.19309741076 0.1925017196 0.19195983229 0.19151052163 
0.19116325701 0.19089546785 0.19065293778 0.19035372236 0.18989551548 0.18916564824 0.18805217536 0.18645411657 0.18428904268 
0.18149678267 0.1780388845 0.1738943439 0.1690528048 0.16350679221 0.15724453937 0.15024470558 0.14247389986 0.13388753545 
0.12443416188 0.11406301121 0.10273402715 0.090429158946 0.077163303689 0.062993103098 0.048021939268 0.032399942992 0.016318552488 
8.0255273133e-16 
_area 1 100 double
0 0.00061563056141 0.0024501180528 0.0054663098034 0.0096023396923 0.014771332464 0.020860537123 0.027729962979 0.035211232765 
0.043108304983 0.051202410459 0.059263118914 0.067065640281 0.074412080992 0.081152601835 0.087202001355 0.092548269327 0.097251669962 
0.1014350998 0.10526790768 0.10894536328 0.11266439997 0.11659482062 0.12084791172 0.12545170948 0.13034429979 0.13538802193 
0.14039819135 0.14517707723 0.14954506026 0.15336380364 0.15654955328 0.15907699399 0.1609744887 0.16230734481 0.16312412812 
0.16336456896 0.16287842414 0.16153084036 0.15925614128 0.15607056484 0.15206885133 0.14740928081 0.14229023041 0.13692289615 
0.13150554748 0.12620505928 0.12114902125 0.11642576113 0.11208628436 0.10814433806 0.10457987761 0.10136577843 0.098479520455 
0.096014287759 0.09445906433 0.093675194692 0.093290417413 0.093170968763 0.093159119993 0.093093718677 0.092851911596 0.092347754796 
0.091515232148 0.090310975858 0.088728974596 0.086801948059 0.084592145484 0.082181832724 0.079666812983 0.077153098641 0.074763256087 
0.072637195369 0.07097076472 0.069983300637 0.069384219047 0.069061585227 0.068986276537 0.069086309338 0.069235121605 0.069250744349 
0.068925114438 0.068085046914 0.066614174928 0.064447865046 0.061565456425 0.057983557413 0.053750137253 0.048939564145 0.043649001729 
0.037996462554 0.032120572429 0.026181764597 0.020363925217 0.014874291 0.009938386768 0.0057874312571 0.0026383607888 0.00066989840303 
3.4163329488e-17 
