# vtk DataFile Version 5.1
vtk output
ASCII
DATASET POLYDATA
POINTS 100 float
0.104247 0.0616031 0.659431 0.104167 0.0617111 0.65923 0.104057 0.0618982 0.65854 
0.103929 0.0621765 0.657381 0.103804 0.062565 0.655783 0.103702 0.0630849 0.653776 
0.103638 0.0637557 0.651393 0.103618 0.0645902 0.648654 0.103632 0.0655904 0.645566 
0.103653 0.0667436 0.642119 0.103636 0.0680213 0.638281 0.103521 0.0693784 0.634005 
0.103236 0.0707554 0.629232 0.102702 0.0720818 0.623893 0.101841 0.0732803 0.617923 
0.100583 0.0742731 0.611264 0.0988707 0.0749872 0.603878 0.0966649 0.0753601 0.595747 
0.0939456 0.0753443 0.586879 0.0907129 0.0749108 0.57731 0.0869843 0.0740506 0.567097 
0.0827918 0.0727746 0.556314 0.0781766 0.0711129 0.545048 0.0731845 0.0691114 0.533384 
0.0678625 0.0668285 0.521399 0.0622551 0.0643313 0.509157 0.0564033 0.0616914 0.496698 
0.0503453 0.0589815 0.484041 0.0441172 0.0562722 0.47118 0.0377559 0.0536298 0.458087 
0.0313005 0.0511152 0.444721 0.0247945 0.0487826 0.431034 0.0182849 0.0466795 0.416978 
0.0118206 0.0448468 0.40251 0.00544886 0.0433183 0.387605 -0.000790325 0.0421208 0.372253 
-0.00686988 0.0412738 0.356462 -0.0127814 0.0407883 0.340256 -0.0185396 0.0406667 0.32367 
-0.0241837 0.0409013 0.306746 -0.0297764 0.0414747 0.28952 -0.0353984 0.0423591 0.272021 
-0.0411393 0.0435177 0.254261 -0.0470857 0.0449062 0.236233 -0.0533078 0.0464749 0.217913 
-0.0598446 0.0481726 0.199255 -0.0666922 0.0499495 0.180206 -0.0737943 0.0517612 0.160705 
-0.0810385 0.0535721 0.140699 -0.0882581 0.0553579 0.120147 -0.0952411 0.0571073 0.0990305 
-0.101744 0.0588224 0.0773606 -0.10751 0.0605171 0.0551795 -0.112295 0.0622152 0.0325611 
-0.115884 0.0639465 0.00960704 -0.118116 0.0657421 -0.0135609 -0.118899 0.06763 -0.03681 
-0.118218 0.0696304 -0.0600079 -0.116137 0.0717515 -0.0830338 -0.112792 0.0739867 -0.105788 
-0.108377 0.0763129 -0.128201 -0.103126 0.078691 -0.150235 -0.097284 0.0810664 -0.171887 
-0.0910877 0.0833724 -0.193185 -0.0847399 0.0855339 -0.214181 -0.0783931 0.0874713 -0.234938 
-0.0721387 0.0891055 -0.255525 -0.0660048 0.0903618 -0.276001 -0.0599621 0.0911733 -0.296406 
-0.0539375 0.0914843 -0.316751 -0.0478336 0.0912515 -0.337016 -0.0415504 0.090445 -0.357146 
-0.035008 0.0890482 -0.377053 -0.0281655 0.0870573 -0.396627 -0.0210342 0.0844801 -0.415739 
-0.0136839 0.0813349 -0.434256 -0.00623974 0.0776496 -0.45205 0.00112829 0.0734607 -0.469012 
0.00822331 0.0688127 -0.485061 0.0148437 0.0637583 -0.500149 0.0208072 0.0583574 -0.514265 
0.0259728 0.0526777 -0.527436 0.030259 0.0467932 -0.539721 0.0336541 0.0407839 -0.551206 
0.0362182 0.0347341 -0.561991 0.0380768 0.0287297 -0.572183 0.0394052 0.0228561 -0.581881 
0.0404073 0.0171953 -0.591165 0.0412906 0.0118222 -0.600091 0.042241 0.00680266 -0.608681 
0.0434 0.00219079 -0.616919 0.0448482 -0.0019722 -0.624754 0.0465969 -0.00565839 -0.632104 
0.0485882 -0.00885235 -0.638857 0.0507047 -0.0115494 -0.644888 0.0527865 -0.0137529 -0.650062 
0.0546542 -0.0154714 -0.65425 0.0561335 -0.0167149 -0.657337 0.0570797 -0.0174924 -0.659235 
0.0573974 -0.0178089 -0.659885 
LINES 2 100
OFFSETS vtktypeint64
0 100 
CONNECTIVITY vtktypeint64
0 1 2 3 4 5 6 7 8 
9 10 11 12 13 14 15 16 17 
18 19 20 21 22 23 24 25 26 
27 28 29 30 31 32 33 34 35 
36 37 38 39 40 41 42 43 44 
45 46 47 48 49 50 51 52 53 
54 55 56 57 58 59 60 61 62 
63 64 65 66 67 68 69 70 71 
72 73 74 75 76 77 78 79 80 
81 82 83 84 85 86 87 88 89 
90 91 92 93 94 95 96 97 98 
99 
POINT_DATA 100
FIELD FieldData 3
_theta 1 100 double
0 0.031733259127 0.063466518254 0.095199777382 0.12693303651 0.15866629564 0.19039955476 0.22213281389 0.25386607302 
0.28559933214 0.31733259127 0.3490658504 0.38079910953 0.41253236865 0.44426562778 0.47599888691 0.50773214603 0.53946540516 
0.57119866429 0.60293192342 0.63466518254 0.66639844167 0.6981317008 0.72986495992 0.76159821905 0.79333147818 0.82506473731 
0.85679799643 0.88853125556 0.92026451469 0.95199777382 0.98373103294 1.0154642921 1.0471975512 1.0789308103 1.1106640695 
1.1423973286 1.1741305877 1.2058638468 1.237597106 1.2693303651 1.3010636242 1.3327968833 1.3645301425 1.3962634016 
1.4279966607 1.4597299198 1.491463179 1.5231964381 1.5549296972 1.5866629564 1.6183962155 1.6501294746 1.6818627337 
1.7135959929 1.745329252 1.7770625111 1.8087957702 1.8405290294 1.8722622885 1.9039955476 1.9357288068 1.9674620659 
1.999195325 2.0309285841 2.0626618433 2.0943951024 2.1261283615 2.1578616206 2.1895948798 2.2213281389 2.253061398 
2.2847946572 2.3165279163 2.3482611754 2.3799944345 2.4117276937 2.4434609528 2.4751942119 2.506927471 2.5386607302 
2.5703939893 2.6021272484 2.6338605076 2.6655937667 2.6973270258 2.7290602849 2.7607935441 2.7925268032 2.8242600623 
2.8559933214 2.8877265806 2.9194598397 2.9511930988 2.982926358 3.0146596171 3.0463928762 3.0781261353 3.1098593945 
3.1415926536 
_radius 1 100 double
1.1210126176e-15 0.014450168128 0.028832764192 0.043077096511 0.057112940932 0.070870672869 0.084281414095 0.097277503035 0.10979361016 
0.12176867222 0.13314855112 0.14388902607 0.15395850678 0.16333979105 0.17203031246 0.18004060358 0.18739105873 0.19410743613 
0.20021583663 0.2057381003 0.2106886009 0.21507320358 0.21889070081 0.22213653288 0.22480820508 0.22691156667 0.22846695729 
0.22951412934 0.23011485749 0.23035231763 0.23032670396 0.23014714883 0.22992072878 0.22974002116 0.22967112739 0.22974415361 
0.22994779073 0.23022893401 0.23049740797 0.23063506471 0.23050802209 0.22998066927 0.22893016967 0.22726033951 0.2249138437 
0.22188164433 0.21820866291 0.21399477317 0.20939055393 0.20458767413 0.19980433292 0.19526684704 0.19118924197 0.18775337945 
0.18509239295 0.18327974398 0.18232516374 0.18217748727 0.1827332314 0.18384891544 0.18535485911 0.18706875509 0.1888084175 
0.19040390757 0.19170908389 0.19261175553 0.19304084658 0.19296886835 0.19240860663 0.19140416248 0.19001813129 0.1883180454 
0.18636514283 0.18420701934 0.18187427414 0.17938078011 0.17672693021 0.17390441567 0.17090027687 0.16769809575 0.16427564338 
0.16060042062 0.15662593471 0.15229111136 0.14752334345 0.1422440312 0.13637519582 0.12984629174 0.12260062503 0.11460066401 
0.10583152869 0.096302268872 0.086044997784 0.07511235215 0.063573999504 0.051512946074 0.039022216028 0.026202164296 0.013158385045 
5.9189975385e-16 
_area 1 100 double
0 0.00044269534002 0.0017628398871 0.003939396407 0.0069449447798 0.010752384904 0.015337628895 0.020676260454 0.026734931268 
0.033460732707 0.040773105406 0.0485620244 0.056693256768 0.06501845424 0.073386615946 0.081654015301 0.089690987626 0.09738534528 
0.10464344675 0.11139066473 0.11757232914 0.12315424127 0.12812065472 0.13246968967 0.13621060972 0.13936805966 0.14199120258 
0.14415839238 0.14596982705 0.14752953567 0.14892604651 0.15022147909 0.15145159008 0.15263177463 0.15376221082 0.154828605 
0.15579957729 0.15662455553 0.15723459071 0.15753913255 0.15740180468 0.15662661907 0.15501402488 0.15242431996 0.14880533615 
0.1442030158 0.13876102318 0.13270676197 0.12632363346 0.11991348888 0.11375587141 0.10807177216 0.10299969821 0.098589892827 
0.094817456152 0.091609580156 0.088881704255 0.086582535914 0.084750003652 0.083562980756 0.083304974379 0.084086103177 0.085587368483 
0.087193161237 0.088429537802 0.088935033584 0.088469981664 0.086930052328 0.084359364003 0.080919174241 0.076847685736 0.072410368046 
0.067854525197 0.063391287483 0.05921027071 0.055503473761 0.052480186259 0.050340918476 0.048990227494 0.048110217593 0.047505967828 
0.047016537885 0.046482716345 0.045751379231 0.044683645734 0.04316325418 0.04110750636 0.038479402627 0.035295137028 0.031622563682 
0.027571926077 0.023283670552 0.018917408649 0.014643397415 0.010635720263 0.0070655299235 0.0040930777573 0.0018582687393 0.00047058795917 
2.2785172245e-17 
