# vtk DataFile Version 5.1
vtk output
ASCII
DATASET POLYDATA
POINTS 100 float
0.121252 0.0512953 0.745955 0.121344 0.0514409 0.745616 0.121693 0.0517654 0.744494 
0.122236 0.0522684 0.742626 0.12288 0.0529487 0.740064 0.123504 0.0538024 0.736874 
0.12398 0.0548222 0.73312 0.124181 0.0559949 0.728854 0.123996 0.0573005 0.724113 
0.123342 0.058711 0.718908 0.12217 0.0601902 0.713223 0.120469 0.0616937 0.707022 
0.118263 0.063171 0.700246 0.11561 0.0645669 0.692833 0.11259 0.0658245 0.684718 
0.109292 0.0668886 0.675852 0.105806 0.0677094 0.666204 0.102209 0.0682455 0.655772 
0.0985528 0.0684676 0.644583 0.094861 0.0683602 0.632693 0.0911234 0.0679238 0.620176 
0.0872981 0.0671743 0.607121 0.0833164 0.0661431 0.593616 0.0790912 0.0648743 0.579741 
0.0745278 0.0634221 0.565555 0.0695353 0.061847 0.551091 0.0640379 0.0602113 0.536351 
0.0579847 0.0585757 0.521313 0.0513555 0.0569945 0.50593 0.0441648 0.0555131 0.490141 
0.0364606 0.0541657 0.473885 0.0283203 0.0529744 0.457108 0.0198433 0.0519493 0.439773 
0.0111422 0.0510902 0.421869 0.00233215 0.0503889 0.403412 -0.00647827 0.0498326 0.384442 
-0.0151956 0.0494072 0.365019 -0.023747 0.0491012 0.345211 -0.0320826 0.0489082 0.325085 
-0.0401748 0.0488298 0.304691 -0.0480147 0.0488762 0.284059 -0.0556054 0.0490665 0.263184 
-0.0629543 0.0494278 0.242032 -0.0700643 0.049992 0.220538 -0.0769262 0.0507935 0.198616 
-0.0835122 0.0518649 0.176174 -0.0897723 0.0532337 0.153124 -0.095633 0.0549179 0.129403 
-0.100999 0.0569238 0.104983 -0.105761 0.0592437 0.0798813 -0.109798 0.0618549 0.0541653 
-0.11299 0.06472 0.0279513 -0.115228 0.0677887 0.00139554 -0.116422 0.0709996 -0.0253191 
-0.116505 0.074284 -0.052001 -0.115444 0.0775688 -0.0784683 -0.11324 0.0807802 -0.104568 
-0.109929 0.0838467 -0.13019 -0.105577 0.0867016 -0.155279 -0.100274 0.0892846 -0.179833 
-0.0941326 0.0915427 -0.203905 -0.0872717 0.09343 -0.227585 -0.0798144 0.0949068 -0.250991 
-0.0718775 0.0959388 -0.274242 -0.0635663 0.0964953 -0.297443 -0.0549703 0.0965481 -0.320664 
-0.046161 0.0960709 -0.343926 -0.0371921 0.095039 -0.367193 -0.0281022 0.0934298 -0.390374 
-0.0189178 0.0912241 -0.41333 -0.00965894 0.0884083 -0.435884 -0.000343885 0.0849769 -0.457845 
0.00900551 0.0809346 -0.479026 0.0183597 0.0762997 -0.499264 0.0276783 0.071105 -0.518438 
0.0369089 0.0654 -0.536481 0.0459865 0.0592503 -0.553386 0.054836 0.0527372 -0.569201 
0.0633746 0.0459552 -0.58402 0.0715163 0.0390093 -0.597969 0.0791761 0.0320103 -0.611185 
0.0862752 0.025071 -0.6238 0.0927455 0.0183007 -0.635916 0.0985336 0.011801 -0.6476 
0.103604 0.00566108 -0.658869 0.10794 -4.49797e-05 -0.669694 0.111547 -0.00526123 -0.680002 
0.11445 -0.00995084 -0.689689 0.116692 -0.0140963 -0.69864 0.118333 -0.0176982 -0.706742 
0.119446 -0.0207736 -0.713901 0.120113 -0.0233528 -0.720059 0.120422 -0.0254764 -0.725201 
0.120463 -0.0271913 -0.729357 0.120322 -0.0285472 -0.732596 0.12008 -0.029593 -0.735019 
0.119809 -0.0303735 -0.736741 0.119566 -0.0309263 -0.737877 0.119395 -0.0312799 -0.73852 
0.119324 -0.031452 -0.738735 
LINES 2 100
OFFSETS vtktypeint64
0 100 
CONNECTIVITY vtktypeint64
0 1 2 3 4 5 6 7 8 
9 10 11 12 13 14 15 16 17 
18 19 20 21 22 23 24 25 26 
27 28 29 30 31 32 33 34 35 
36 37 38 39 40 41 42 43 44 
45 46 47 48 49 50 51 52 53 
54 55 56 57 58 59 60 61 62 
63 64 65 66 67 68 69 70 71 
72 73 74 75 76 77 78 79 80 
81 82 83 84 85 86 87 88 89 
90 91 92 93 94 95 96 97 98 
99 
POINT_DATA 100
FIELD FieldData 3
_theta 1 100 double
0 0.031733259127 0.063466518254 0.095199777382 0.12693303651 0.15866629564 0.19039955476 0.22213281389 0.25386607302 
0.28559933214 0.31733259127 0.3490658504 0.38079910953 0.41253236865 0.44426562778 0.47599888691 0.50773214603 0.53946540516 
0.57119866429 0.60293192342 0.63466518254 0.66639844167 0.6981317008 0.72986495992 0.76159821905 0.79333147818 0.82506473731 
0.85679799643 0.88853125556 0.92026451469 0.95199777382 0.98373103294 1.0154642921 1.0471975512 1.0789308103 1.1106640695 
1.1423973286 1.1741305877 1.2058638468 1.237597106 1.2693303651 1.3010636242 1.3327968833 1.3645301425 1.3962634016 
1.4279966607 1.4597299198 1.491463179 1.5231964381 1.5549296972 1.5866629564 1.6183962155 1.6501294746 1.6818627337 
1.7135959929 1.745329252 1.7770625111 1.8087957702 1.8405290294 1.8722622885 1.9039955476 1.9357288068 1.9674620659 
1.999195325 2.0309285841 2.0626618433 2.0943951024 2.1261283615 2.1578616206 2.1895948798 2.2213281389 2.253061398 
2.2847946572 2.3165279163 2.3482611754 2.3799944345 2.4117276937 2.4434609528 2.4751942119 2.506927471 2.5386607302 
2.5703939893 2.6021272484 2.6338605076 2.6655937667 2.6973270258 2.7290602849 2.7607935441 2.7925268032 2.8242600623 
2.8559933214 2.8877265806 2.9194598397 2.9511930988 2.982926358 3.0146596171 3.0463928762 3.0781261353 3.1098593945 
3.1415926536 
_radius 1 100 double
6.8466878742e-16 0.015999438378 0.031782028606 0.047150865906 0.061945677412 0.076054361926 0.089417659576 0.10202661052 0.11391371682 
0.12513975265 0.1357787007 0.14590318323 0.15557209937 0.16482131027 0.17365755904 0.18205564498 0.18995911782 0.19728502517 
0.20393310854 0.20979915151 0.21479116997 0.21884622034 0.22194513616 0.22412260868 0.22547061268 0.22613407051 0.22629870246 
0.22617216128 0.22596072318 0.2258448163 0.2259571743 0.22636708979 0.22707306847 0.22800451574 0.22903152064 0.22998081307 
0.23065566404 0.23085763017 0.23040826422 0.22916903369 0.2270577512 0.22405998167 0.22023425488 0.21571045198 0.21068133759 
0.2053877704 0.20009862666 0.19508699494 0.19060486445 0.18685933031 0.18399396679 0.1820788191 0.18111080705 0.1810233981 
0.18170159426 0.18299737088 0.18474232597 0.18675732892 0.18886140138 0.19088236276 0.19266985462 0.19410875636 0.19512958187 
0.19571284551 0.19588595351 0.19571308238 0.1952803062 0.19467946695 0.1939942606 0.19329071286 0.1926126435 0.19198158018 
0.19139970176 0.19085371268 0.19031754972 0.18975277358 0.18910698396 0.18831179518 0.18728221552 0.18591867184 0.1841118632 
0.18174965574 0.17872469114 0.17494134846 0.17032103897 0.16480531001 0.15835670744 0.15095771255 0.14260832486 0.13332302539 
0.12312792279 0.11205881361 0.10016063856 0.0874883999 0.074109129929 0.060104130632 0.045570577036 0.030621722115 0.015385282822 
8.0429955009e-16 
_area 1 100 double
0 0.00052060867536 0.0020641778478 0.0045775817531 0.0079777349566 0.012159567607 0.017006339508 0.022400860206 0.028235700042 
0.034420483483 0.040884880742 0.047576815819 0.05445644891 0.061487393341 0.068627204321 0.075819397731 0.082989094451 0.090043654818 
0.096878189952 0.10338381962 0.10945510017 0.11499464343 0.11991873703 0.1241709582 0.12774320518 0.13069322384 0.13314635435 
0.13527510411 0.1372602904 0.13925066659 0.14134020257 0.14356490284 0.14590600673 0.1482902475 0.15058899548 0.1526228853 
0.15417566906 0.15501643214 0.15492717161 0.15373230661 0.15132612236 0.14769386101 0.14292311044 0.13720356725 0.1308141241 
0.12409684407 0.11741881529 0.1111262132 0.10550009731 0.1007274215 0.096898898118 0.094038321877 0.09216017249 0.091288465277 
0.091248854343 0.091698833661 0.092365292024 0.093026217738 0.093479717877 0.093556826325 0.093152336155 0.092246090539 0.090897509435 
0.089217138025 0.087336985555 0.085392056789 0.083506376071 0.081777136487 0.080259964933 0.07896492334 0.077870462249 0.076947773606 
0.076181425684 0.075580270691 0.07517742432 0.075016400535 0.075121225724 0.075458746642 0.075915448972 0.076305991303 0.076406336122 
0.07599224968 0.074871036876 0.072903447473 0.070016141562 0.06620557017 0.06153435053 0.056121748212 0.05013040234 0.043751628437 
0.037191369526 0.030658215605 0.02435413779 0.018467951402 0.013171088501 0.0086149251521 0.0049287063593 0.0022172733233 0.00055837722028 
2.8196031095e-17 
