# vtk DataFile Version 5.1
vtk output
ASCII
DATASET POLYDATA
POINTS 100 float
0.142132 0.0526845 0.713212 0.142171 0.0528979 0.713255 0.142423 0.0533919 0.713206 
0.142831 0.0541489 0.713026 0.14331 0.055141 0.712654 0.14375 0.0563306 0.712008 
0.144036 0.0576722 0.710991 0.144055 0.0591145 0.709492 0.143713 0.0606019 0.707395 
0.142936 0.0620759 0.704582 0.141685 0.0634766 0.700945 0.139948 0.064744 0.696391 
0.137742 0.0658192 0.690848 0.135104 0.0666451 0.684273 0.132085 0.0671685 0.676655 
0.128734 0.0673416 0.668016 0.125094 0.0671241 0.658412 0.121192 0.066486 0.647928 
0.117035 0.0654106 0.636671 0.112608 0.0638971 0.624763 0.107883 0.0619633 0.61233 
0.102818 0.0596471 0.599495 0.0973709 0.0570073 0.586361 0.091507 0.0541224 0.573011 
0.0852077 0.051088 0.559499 0.0784766 0.0480129 0.545845 0.0713426 0.0450126 0.532041 
0.0638587 0.042203 0.518051 0.0560968 0.039693 0.503818 0.0481397 0.0375771 0.489272 
0.04007 0.0359292 0.474342 0.0319593 0.0347984 0.458959 0.0238579 0.0342059 0.443067 
0.0157874 0.0341455 0.426625 0.00773754 0.0345862 0.409613 -0.000332662 0.0354764 0.392026 
-0.00848839 0.0367511 0.373879 -0.0168084 0.0383391 0.355192 -0.0253714 0.040171 0.335995 
-0.0342405 0.0421855 0.316313 -0.0434488 0.0443353 0.296169 -0.0529869 0.0465899 0.275578 
-0.0627953 0.0489359 0.254545 -0.0727614 0.0513752 0.233068 -0.0827235 0.05392 0.211143 
-0.0924796 0.056587 0.188766 -0.101802 0.0593903 0.165937 -0.110454 0.0623344 0.14267 
-0.11821 0.0654085 0.118989 -0.124873 0.0685823 0.0949334 -0.130289 0.0718051 0.0705544 
-0.134359 0.0750067 0.0459119 -0.137042 0.078102 0.021069 -0.138354 0.0809968 -0.00391509 
-0.138364 0.083596 -0.0289909 -0.137178 0.0858117 -0.0541241 -0.134927 0.0875711 -0.0792978 
-0.131749 0.0888228 -0.104513 -0.127775 0.0895404 -0.129784 -0.123117 0.0897242 -0.155132 
-0.117858 0.0893988 -0.180576 -0.112051 0.0886087 -0.206125 -0.105716 0.0874115 -0.231763 
-0.0988529 0.0858698 -0.257446 -0.0914437 0.0840427 -0.283095 -0.0834689 0.0819784 -0.308597 
-0.0749165 0.079709 -0.33381 -0.0657922 0.0772463 -0.358573 -0.0561267 0.0745829 -0.382717 
-0.0459784 0.0716941 -0.406086 -0.0354325 0.0685436 -0.42855 -0.0245961 0.065091 -0.450019 
-0.0135901 0.0612998 -0.470459 -0.00253938 0.0571458 -0.48989 0.00843743 0.0526241 -0.508389 
0.0192372 0.0477539 -0.526081 0.0297793 0.0425807 -0.543118 0.0400092 0.0371757 -0.559666 
0.0498989 0.0316315 -0.575873 0.0594435 0.0260567 -0.591853 0.0686552 0.0205669 -0.60766 
0.0775551 0.0152767 -0.623277 0.0861653 0.0102907 -0.638607 0.0945003 0.00569582 -0.653479 
0.102561 0.00155637 -0.667658 0.110333 -0.00208955 -0.680869 0.117783 -0.00523026 -0.692824 
0.124863 -0.00787844 -0.703255 0.131516 -0.010067 -0.711946 0.137681 -0.0118437 -0.718761 
0.1433 -0.0132647 -0.723663 0.148325 -0.0143886 -0.726732 0.152722 -0.0152716 -0.728155 
0.156476 -0.0159632 -0.72822 0.159586 -0.0165043 -0.727288 0.162067 -0.0169263 -0.725762 
0.163944 -0.0172517 -0.724045 0.165244 -0.0174958 -0.722507 0.165994 -0.0176685 -0.721441 
0.166213 -0.0177757 -0.721037 
LINES 2 100
OFFSETS vtktypeint64
0 100 
CONNECTIVITY vtktypeint64
0 1 2 3 4 5 6 7 8 
9 10 11 12 13 14 15 16 17 
18 19 20 21 22 23 24 25 26 
27 28 29 30 31 32 33 34 35 
36 37 38 39 40 41 42 43 44 
45 46 47 48 49 50 51 52 53 
54 55 56 57 58 59 60 61 62 
63 64 65 66 67 68 69 70 71 
72 73 74 75 76 77 78 79 80 
81 82 83 84 85 86 87 88 89 
90 91 92 93 94 95 96 97 98 
99 
POINT_DATA 100
FIELD FieldData 3
_theta 1 100 double
0 0.031733259127 0.063466518254 0.095199777382 0.12693303651 0.15866629564 0.19039955476 0.22213281389 0.25386607302 
0.28559933214 0.31733259127 0.3490658504 0.38079910953 0.41253236865 0.44426562778 0.47599888691 0.50773214603 0.53946540516 
0.57119866429 0.60293192342 0.63466518254 0.66639844167 0.6981317008 0.72986495992 0.76159821905 0.79333147818 0.82506473731 
0.85679799643 0.88853125556 0.92026451469 0.95199777382 0.98373103294 1.0154642921 1.0471975512 1.0789308103 1.1106640695 
1.1423973286 1.1741305877 1.2058638468 1.237597106 1.2693303651 1.3010636242 1.3327968833 1.3645301425 1.3962634016 
1.4279966607 1.4597299198 1.491463179 1.5231964381 1.5549296972 1.5866629564 1.6183962155 1.6501294746 1.6818627337 
1.7135959929 1.745329252 1.7770625111 1.8087957702 1.8405290294 1.8722622885 1.9039955476 1.9357288068 1.9674620659 
1.999195325 2.0309285841 2.0626618433 2.0943951024 2.1261283615 2.1578616206 2.1895948798 2.2213281389 2.253061398 
2.2847946572 2.3165279163 2.3482611754 2.3799944345 2.4117276937 2.4434609528 2.4751942119 2.506927471 2.5386607302 
2.5703939893 2.6021272484 2.6338605076 2.6655937667 2.6973270258 2.7290602849 2.7607935441 2.7925268032 2.8242600623 
2.8559933214 2.8877265806 2.9194598397 2.9511930988 2.982926358 3.0146596171 3.0463928762 3.0781261353 3.1098593945 
3.1415926536 
_radius 1 100 double
2.8449465006e-16 0.016218739784 0.032212281181 0.047773765409 0.062735836465 0.076983162811 0.090457345334 0.10315350937 0.11510923454 
0.12638781686 0.1370588869 0.14717982766 0.15678109283 0.16585753562 0.17436658276 0.18223294568 0.18935880462 0.19563803774 
0.20097293424 0.20529173652 0.20856518282 0.21081996113 0.21214674887 0.21270050255 0.21269114244 0.21236400943 0.21197157018 
0.21174049238 0.21184043291 0.21236134576 0.21330413583 0.2145858354 0.2160569221 0.21752628989 0.21878896564 0.21965242589 
0.21995864587 0.21960027961 0.21853030697 0.21676501748 0.21438045378 0.21150261872 0.20829206955 0.20492416028 0.20156721997 
0.19836202925 0.19540619838 0.19274586332 0.19037530696 0.18824407038 0.18627082779 0.18436255307 0.18243591638 0.18043636821 
0.17835009288 0.17620539308 0.17406308281 0.17199957264 0.17008960404 0.16839515949 0.16696253372 0.16582466109 0.16500412691 
0.16451344949 0.16435129241 0.16449568939 0.16489781875 0.16548073216 0.16614544115 0.16678327962 0.16729109057 0.16758544554 
0.16761310426 0.16735637103 0.1668332252 0.16609264944 0.16520545723 0.16425066126 0.16329778983 0.16238695471 0.16151037582 
0.16060013013 0.15952603176 0.15810496748 0.15611998382 0.15334520439 0.14957176272 0.1446302381 0.13840622302 0.13084727466 
0.12196128372 0.1118079067 0.10048584919 0.088119231271 0.074845928341 0.060809757553 0.046156947704 0.031035909193 0.015598384943 
1.3086414301e-15 
_area 1 100 double
0 0.00060726145733 0.0024033581333 0.0053159984081 0.0092392620552 0.014051157572 0.019630894415 0.025871191837 0.032682530661 
0.039988695728 0.047715446372 0.055775993875 0.064057800959 0.072414961719 0.080669090289 0.088619394463 0.096059953498 0.10280014453 
0.10868371466 0.11360344047 0.11751067587 0.12042090382 0.12241713051 0.12365259685 0.12435124996 0.1247978134 0.12530554581 
0.12616073734 0.12756629897 0.12961183933 0.13227307563 0.13542104186 0.13881917351 0.14213578862 0.1450133454 0.14713250735 
0.1482433928 0.14818564521 0.14690641809 0.14447341203 0.14107498563 0.13699934636 0.13259094894 0.1281923159 0.12408675719 
0.12045640504 0.11736225068 0.11474502067 0.11244273844 0.11022329279 0.10783491403 0.10507416782 0.10185666321 0.098262117718 
0.094514347446 0.090864663634 0.087452353455 0.084283346084 0.081334001965 0.078567470026 0.076031937153 0.073783336086 0.071884367963 
0.070397807726 0.06943514162 0.069097703131 0.069308630615 0.069901607909 0.070665983304 0.071357055842 0.071740707732 0.071643870517 
0.070989823003 0.069812203771 0.06824976984 0.066523703929 0.064899138286 0.063637603786 0.062944379531 0.062913223422 0.0634803648 
0.064417789451 0.065384175542 0.06599968798 0.065904491871 0.064797904525 0.062469357218 0.058825173875 0.053907204041 0.047896298252 
0.041095440979 0.033892546245 0.026708969242 0.019944217883 0.013928685023 0.0088942598585 0.004968189176 0.0021897967164 0.0005438965607 
4.7614211037e-17 
