# vtk DataFile Version 5.1
vtk output
ASCII
DATASET POLYDATA
POINTS 100 float
0.119743 0.049873 0.684753 0.119963 0.0501151 0.684598 0.120677 0.0507152 0.683941 
0.121775 0.0516228 0.682772 0.123091 0.0527599 0.681069 0.124418 0.0540293 0.678811 
0.125537 0.0553245 0.675972 0.126238 0.0565403 0.672526 0.126348 0.057583 0.668446 
0.125747 0.0583788 0.663713 0.12438 0.0588804 0.658306 0.12226 0.0590689 0.652214 
0.119461 0.0589543 0.645426 0.116105 0.0585719 0.637937 0.112344 0.0579756 0.629748 
0.108337 0.0572312 0.62086 0.104224 0.0564072 0.611279 0.100109 0.055567 0.601018 
0.0960456 0.0547623 0.590093 0.0920297 0.0540283 0.578527 0.0879985 0.0533814 0.566352 
0.0838403 0.0528198 0.553609 0.0794092 0.0523262 0.54035 0.0745448 0.0518723 0.526635 
0.0690926 0.0514255 0.512531 0.0629247 0.0509543 0.498111 0.0559557 0.0504351 0.483445 
0.0481538 0.0498566 0.468598 0.0395444 0.0492235 0.45362 0.0302068 0.0485575 0.438546 
0.0202649 0.0478969 0.423383 0.0098728 0.047294 0.40811 -0.000802274 0.0468113 0.392678 
-0.0115966 0.0465167 0.37701 -0.0223647 0.0464778 0.361002 -0.0329891 0.0467571 0.344535 
-0.0433853 0.0474068 0.32748 -0.0534997 0.0484649 0.309714 -0.0633023 0.0499526 0.291125 
-0.0727751 0.0518718 0.271628 -0.0818986 0.0542051 0.251174 -0.0906373 0.0569158 0.229754 
-0.0989289 0.0599493 0.207404 -0.106677 0.0632351 0.184205 -0.113751 0.0666902 0.160277 
-0.119992 0.0702226 0.135772 -0.125221 0.0737358 0.110864 -0.129261 0.0771335 0.0857317 
-0.131955 0.0803255 0.0605521 -0.133183 0.083233 0.0354832 -0.132882 0.0857942 0.0106562 
-0.131061 0.0879686 -0.0138321 -0.127801 0.0897415 -0.0379223 -0.12326 0.0911252 -0.0615917 
-0.117657 0.092159 -0.0848492 -0.11126 0.0929072 -0.107728 -0.104358 0.0934528 -0.130275 
-0.0972406 0.0938908 -0.15254 -0.0901675 0.0943176 -0.174565 -0.0833479 0.094821 -0.196373 
-0.0769228 0.0954684 -0.217964 -0.0709545 0.0962968 -0.239311 -0.0654257 0.0973054 -0.260356 
-0.0602474 0.0984504 -0.28102 -0.0552738 0.0996451 -0.301206 -0.0503248 0.100764 -0.320807 
-0.0452108 0.101651 -0.339721 -0.0397589 0.102135 -0.357856 -0.0338371 0.102043 -0.375144 
-0.0273729 0.10122 -0.391543 -0.0203653 0.0995423 -0.407048 -0.0128889 0.0969393 -0.421686 
-0.00508876 0.093399 -0.435517 0.00283192 0.088976 -0.448629 0.010631 0.0837908 -0.461129 
0.0180504 0.0780226 -0.473132 0.0248413 0.0718964 -0.484757 0.0307875 0.0656649 -0.496111 
0.0357263 0.0595874 -0.507282 0.039563 0.0539073 -0.518335 0.0422787 0.0488316 -0.529306 
0.0439314 0.0445139 -0.540201 0.0446485 0.0410418 -0.550996 0.0446141 0.0384325 -0.561642 
0.0440508 0.0366347 -0.572068 0.0431988 0.0355377 -0.582191 0.042294 0.0349864 -0.591919 
0.0415481 0.0348003 -0.601162 0.0411307 0.034795 -0.609833 0.0411568 0.034802 -0.617857 
0.0416801 0.034687 -0.625172 0.042691 0.034362 -0.631734 0.0441222 0.0337921 -0.637513 
0.0458576 0.0329952 -0.642495 0.0477464 0.0320351 -0.646677 0.0496193 0.0310088 -0.650067 
0.0513063 0.0300306 -0.652677 0.0526533 0.0292138 -0.654522 0.0535373 0.0286541 -0.655615 
0.0538782 0.0284152 -0.655967 
LINES 2 100
OFFSETS vtktypeint64
0 100 
CONNECTIVITY vtktypeint64
0 1 2 3 4 5 6 7 8 
9 10 11 12 13 14 15 16 17 
18 19 20 21 22 23 24 25 26 
27 28 29 30 31 32 33 34 35 
36 37 38 39 40 41 42 43 44 
45 46 47 48 49 50 51 52 53 
54 55 56 57 58 59 60 61 62 
63 64 65 66 67 68 69 70 71 
72 73 74 75 76 77 78 79 80 
81 82 83 84 85 86 87 88 89 
90 91 92 93 94 95 96 97 98 
99 
POINT_DATA 100
FIELD FieldData 3
_theta 1 100 double
0 0.031733259127 0.063466518254 0.095199777382 0.12693303651 0.15866629564 0.19039955476 0.22213281389 0.25386607302 
0.28559933214 0.31733259127 0.3490658504 0.38079910953 0.41253236865 0.44426562778 0.47599888691 0.50773214603 0.53946540516 
0.57119866429 0.60293192342 0.63466518254 0.66639844167 0.6981317008 0.72986495992 0.76159821905 0.79333147818 0.82506473731 
0.85679799643 0.88853125556 0.92026451469 0.95199777382 0.98373103294 1.0154642921 1.0471975512 1.0789308103 1.1106640695 
1.1423973286 1.1741305877 1.2058638468 1.237597106 1.2693303651 1.3010636242 1.3327968833 1.3645301425 1.3962634016 
1.4279966607 1.4597299198 1.491463179 1.5231964381 1.5549296972 1.5866629564 1.6183962155 1.6501294746 1.6818627337 
1.7135959929 1.745329252 1.7770625111 1.8087957702 1.8405290294 1.8722622885 1.9039955476 1.9357288068 1.9674620659 
1.999195325 2.0309285841 2.0626618433 2.0943951024 2.1261283615 2.1578616206 2.1895948798 2.2213281389 2.253061398 
2.2847946572 2.3165279163 2.3482611754 2.3799944345 2.4117276937 2.4434609528 2.4751942119 2.506927471 2.5386607302 
2.5703939893 2.6021272484 2.6338605076 2.6655937667 2.6973270258 2.7290602849 2.7607935441 2.7925268032 2.8242600623 
2.8559933214 2.8877265806 2.9194598397 2.9511930988 2.982926358 3.0146596171 3.0463928762 3.0781261353 3.1098593945 
3.1415926536 
_radius 1 100 double
8.1870126963e-16 0.015954570779 0.031769036342 0.047306908235 0.062449910304 0.077103769103 0.091200245633 0.10469502076 0.11756180725 
0.12978384848 0.14134457341 0.15221943204 0.16237075617 0.17174691768 0.18028622845 0.18792511877 0.19460929406 0.20030591424 
0.2050144621 0.20877397463 0.21166480775 0.21380412524 0.21533573558 0.21641639134 0.21720159371 0.21783368533 0.21843351704 
0.21909508165 0.2198814104 0.22082028831 0.22189955709 0.22306311753 0.2242096655 0.2251965666 0.22585100166 0.2259892538 
0.22544264836 0.22408605224 0.22186341446 0.21880522375 0.21503437924 0.2107588893 0.2062516234 0.20181919833 0.19776424159 
0.19434752025 0.19175765045 0.19009480502 0.18937072457 0.18952232857 0.19043299533 0.19195527196 0.19393063205 0.19620446243 
0.1986365509 0.20110834735 0.20352814389 0.20583451137 0.20799752587 0.21001700781 0.21191721357 0.21373792545 0.21552248151 
0.21730394879 0.21909140679 0.22085902635 0.2225408389 0.22403329419 0.22520589729 0.22591805865 0.22603865141 0.22546412996 
0.22413142813 0.22202309689 0.21916410743 0.21561195313 0.21144324539 0.20674023005 0.20157975976 0.19602607852 0.19012777049 
0.18391819311 0.177417574 0.17063428975 0.16356346413 0.15618306565 0.1484501934 0.14030146596 0.13166005966 0.12244861495 
0.11260435308 0.10209214673 0.090912577507 0.079103721948 0.066736738683 0.053906373248 0.040718484756 0.027277578127 0.013677761776 
1.1788502959e-15 
_area 1 100 double
0 0.00065536332088 0.0025908496119 0.0057180693955 0.0099011857639 0.014973732756 0.020759714088 0.027094577885 0.033840541798 
0.040891833581 0.048168742462 0.055603576359 0.063124406444 0.070642535284 0.078047882617 0.085214436351 0.092015628807 0.09834649503 
0.10414628942 0.10941291632 0.11419944929 0.1185854201 0.12262956955 0.12633370422 0.12964594167 0.13249785757 0.13484931893 
0.13672272982 0.13822141047 0.13952979347 0.14088277585 0.14248027676 0.14436439896 0.14636083151 0.14813390712 0.1492815528 
0.14941423671 0.1482174834 0.14550448768 0.14125605359 0.13564000465 0.12900325132 0.1218349608 0.11470764641 0.10822478923 
0.10308140136 0.099793395294 0.097887539297 0.096917926347 0.096553094833 0.096500746168 0.096522161814 0.096455934347 0.096233772324 
0.095881676733 0.095501792288 0.095231810025 0.095185033336 0.095392739875 0.095784990947 0.096219908023 0.096543321506 0.09666063862 
0.09658183932 0.09641452486 0.096320787777 0.096457730102 0.096910088063 0.097635181931 0.098557798563 0.1000534713 0.10118849853 
0.10152867526 0.10095849211 0.09954521293 0.097468746048 0.094942856652 0.092136608737 0.089122812698 0.085878524397 0.082330004011 
0.078406958546 0.074078341699 0.06936212045 0.064313698252 0.059002690683 0.053489654166 0.047814319168 0.042003150639 0.036094194375 
0.030165097282 0.024347281913 0.018818674155 0.013778515186 0.0094127480289 0.0058591587961 0.0031817380886 0.0013642885618 0.0003318504037 
3.5361917446e-17 
