# vtk DataFile Version 5.1
vtk output
ASCII
DATASET POLYDATA
POINTS 100 float
0.0600853 0.0578758 0.645665 0.0601196 0.0580342 0.645631 0.0602661 0.0584077 0.645326 
0.0605082 0.058954 0.644724 0.06082 0.059609 0.643784 0.0611674 0.0602957 0.642452 
0.061511 0.060935 0.640664 0.0618074 0.061457 0.638349 0.0620127 0.0618094 0.635435 
0.062084 0.0619644 0.631854 0.0619816 0.0619209 0.627545 0.0616702 0.061702 0.622464 
0.0611199 0.0613494 0.616582 0.0603063 0.0609144 0.609895 0.0592104 0.0604466 0.602421 
0.0578177 0.0599839 0.594205 0.0561174 0.0595436 0.58531 0.0541011 0.0591164 0.575821 
0.0517623 0.058666 0.565834 0.0490949 0.0581319 0.555452 0.0460939 0.0574377 0.544773 
0.0427543 0.0565021 0.533888 0.0390729 0.0552524 0.522867 0.0350482 0.053637 0.511759 
0.0306822 0.0516371 0.500585 0.0259811 0.0492737 0.489336 0.0209572 0.0466106 0.47798 
0.0156288 0.043751 0.466458 0.0100212 0.0408296 0.454698 0.004166 0.0379998 0.442617 
-0.00189968 0.0354185 0.430134 -0.00813488 0.0332295 0.417173 -0.0144968 0.0315488 0.403675 
-0.0209433 0.0304532 0.389602 -0.0274349 0.0299729 0.374934 -0.0339372 0.0300916 0.359678 
-0.040422 0.0307506 0.343859 -0.0468682 0.0318597 0.327516 -0.0532613 0.0333108 0.310698 
-0.059592 0.0349941 0.293454 -0.0658535 0.0368135 0.275828 -0.0720385 0.0386998 0.257853 
-0.0781356 0.0406188 0.239547 -0.0841245 0.0425746 0.220911 -0.0899734 0.0446064 0.201928 
-0.0956356 0.0467796 0.182572 -0.101048 0.0491726 0.162807 -0.106131 0.0518612 0.142593 
-0.11079 0.0549025 0.1219 -0.11492 0.0583203 0.100706 -0.118407 0.0620958 0.0790044 
-0.121139 0.0661625 0.0568104 -0.123008 0.0704085 0.0341578 -0.123922 0.0746846 0.0110995 
-0.123807 0.0788178 -0.012296 -0.122614 0.0826286 -0.0359494 -0.120324 0.0859495 -0.0597767 
-0.11695 0.0886427 -0.0836945 -0.112532 0.0906141 -0.107625 -0.107142 0.0918229 -0.131502 
-0.100871 0.0922839 -0.155267 -0.0938299 0.0920638 -0.178878 -0.0861363 0.0912711 -0.202301 
-0.0779102 0.0900408 -0.225508 -0.0692651 0.088517 -0.248476 -0.0603017 0.0868342 -0.271178 
-0.0511036 0.0851012 -0.293582 -0.0417339 0.0833884 -0.315648 -0.0322351 0.0817207 -0.337324 
-0.0226307 0.0800771 -0.358546 -0.0129288 0.0783962 -0.379244 -0.00312799 0.0765866 -0.39934 
0.00677701 0.0745418 -0.418756 0.0167881 0.0721563 -0.437417 0.0268978 0.0693414 -0.455258 
0.0370836 0.066038 -0.472223 0.0473047 0.0622253 -0.488276 0.0574996 0.0579248 -0.503394 
0.0675873 0.0531974 -0.517571 0.0774691 0.0481368 -0.530817 0.0870334 0.0428584 -0.543153 
0.0961617 0.0374856 -0.554606 0.104736 0.0321368 -0.56521 0.112644 0.0269135 -0.574997 
0.119791 0.0218919 -0.583999 0.126101 0.0171181 -0.592241 0.131525 0.0126092 -0.599748 
0.136044 0.00835796 -0.606537 0.139671 0.00434088 -0.612626 0.142447 0.000528718 -0.618033 
0.144443 -0.00310298 -0.622778 0.145754 -0.00656461 -0.626884 0.146493 -0.00984615 -0.63038 
0.146782 -0.0129145 -0.6333 0.14675 -0.0157149 -0.635682 0.14652 -0.0181765 -0.637565 
0.146207 -0.0202208 -0.638987 0.145905 -0.0217716 -0.639981 0.145688 -0.0227649 -0.640574 
0.145602 -0.0231581 -0.64078 
LINES 2 100
OFFSETS vtktypeint64
0 100 
CONNECTIVITY vtktypeint64
0 1 2 3 4 5 6 7 8 
9 10 11 12 13 14 15 16 17 
18 19 20 21 22 23 24 25 26 
27 28 29 30 31 32 33 34 35 
36 37 38 39 40 41 42 43 44 
45 46 47 48 49 50 51 52 53 
54 55 56 57 58 59 60 61 62 
63 64 65 66 67 68 69 70 71 
72 73 74 75 76 77 78 79 80 
81 82 83 84 85 86 87 88 89 
90 91 92 93 94 95 96 97 98 
99 
POINT_DATA 100
FIELD FieldData 3
_theta 1 100 double
0 0.031733259127 0.063466518254 0.095199777382 0.12693303651 0.15866629564 0.19039955476 0.22213281389 0.25386607302 
0.28559933214 0.31733259127 0.3490658504 0.38079910953 0.41253236865 0.44426562778 0.47599888691 0.50773214603 0.53946540516 
0.57119866429 0.60293192342 0.63466518254 0.66639844167 0.6981317008 0.72986495992 0.76159821905 0.79333147818 0.82506473731 
0.85679799643 0.88853125556 0.92026451469 0.95199777382 0.98373103294 1.0154642921 1.0471975512 1.0789308103 1.1106640695 
1.1423973286 1.1741305877 1.2058638468 1.237597106 1.2693303651 1.3010636242 1.3327968833 1.3645301425 1.3962634016 
1.4279966607 1.4597299198 1.491463179 1.5231964381 1.5549296972 1.5866629564 1.6183962155 1.6501294746 1.6818627337 
1.7135959929 1.745329252 1.7770625111 1.8087957702 1.8405290294 1.8722622885 1.9039955476 1.9357288068 1.9674620659 
1.999195325 2.0309285841 2.0626618433 2.0943951024 2.1261283615 2.1578616206 2.1895948798 2.2213281389 2.253061398 
2.2847946572 2.3165279163 2.3482611754 2.3799944345 2.4117276937 2.4434609528 2.4751942119 2.506927471 2.5386607302 
2.5703939893 2.6021272484 2.6338605076 2.6655937667 2.6973270258 2.7290602849 2.7607935441 2.7925268032 2.8242600623 
2.8559933214 2.8877265806 2.9194598397 2.9511930988 2.982926358 3.0146596171 3.0463928762 3.0781261353 3.1098593945 
3.1415926536 
_radius 1 100 double
8.9231585622e-16 0.014048619776 0.028100706967 0.042143848041 0.05615057622 0.070074440715 0.083849289924 0.097391907601 0.11060762322 
0.12339808659 0.13567010761 0.14734434473 0.15836267888 0.16869330479 0.17833286227 0.18730527343 0.19565732042 0.20345138158 
0.21075612861 0.21763633603 0.22414319816 0.23030660738 0.23613066056 0.24159322316 0.24664974608 0.25124080474 0.25530214191 
0.2587754863 0.26161822204 0.26381018825 0.26535646849 0.26628582927 0.26664526298 0.26649170455 0.26588234992 0.2648651305 
0.26347085355 0.2617083395 0.25956356179 0.25700329129 0.2539830726 0.25045860249 0.24639889488 0.24179915569 0.23669115048 
0.23114905589 0.22528934352 0.21926415064 0.21324880473 0.20742548916 0.20196603588 0.19701699052 0.19268920126 0.18905263791 
0.18613574948 0.18392799744 0.18238422924 0.18142987546 0.18096630416 0.18087617473 0.1810294438 0.18129138537 0.18153371363 
0.18164827948 0.18156079663 0.1812411147 0.18070722454 0.18002179898 0.17928174506 0.17860250983 0.17809963791 0.17787032013 
0.17797743575 0.17843805486 0.17921780683 0.18023193377 0.18135277464 0.18242176594 0.18326286392 0.18369471956 0.18354056493 
0.18263619275 0.18083678347 0.17802283972 0.17410481561 0.1690257359 0.16276133123 0.15531776873 0.14672762371 0.13704506177 
0.12634116122 0.11469994349 0.10221519234 0.0889877914 0.075123263502 0.060729416986 0.045914285263 0.03078467078 0.015445503336 
1.0756693412e-15 
_area 1 100 double
0 0.00054673114126 0.0021800091463 0.0048782262207 0.0086029638297 0.013296713894 0.018881495683 0.025258877175 0.032311399651 
0.03990531934 0.04789477249 0.056127524511 0.064452256568 0.072727138306 0.080829385164 0.088665199861 0.096178413543 0.10335473693 
0.11021844441 0.11682064277 0.12322191068 0.1294745675 0.13560981748 0.14163306419 0.14752780599 0.15326546623 0.15881596691 
0.16415216984 0.1692415265 0.17402449825 0.17839358464 0.18219500503 0.18525968394 0.18744653969 0.1886758494 0.18894060085 
0.18829409247 0.18681834479 0.1845832498 0.18161280914 0.17787690433 0.17331559756 0.16788325978 0.16159084909 0.15453144854 
0.14688515968 0.13890651148 0.13090078379 0.12319702593 0.11612029326 0.10993047553 0.10470451869 0.10034707376 0.096730720105 
0.09374214602 0.091258149356 0.089133669619 0.087223410764 0.085412973895 0.083632914712 0.081853889918 0.080073480877 0.078302382828 
0.076552197268 0.074823999988 0.07310021935 0.071349347279 0.0695457036 0.067690173308 0.065818345765 0.063998685693 0.062332279226 
0.061003525499 0.060206293254 0.059937188261 0.060243806568 0.060988713333 0.062044311161 0.063262728258 0.064468785648 0.06546921447 
0.066063023919 0.066055477585 0.065277502324 0.063607295175 0.060987465873 0.057432150654 0.05302284859 0.047895871641 0.042226540973 
0.036214931842 0.030075258414 0.024027775116 0.018290714921 0.013070775363 0.0085526147885 0.0048893835709 0.0021968382597 0.00055263056974 
2.1790820559e-17 
