# vtk DataFile Version 5.1
vtk output
ASCII
DATASET POLYDATA
POINTS 100 float
0.137111 0.036495 0.717357 0.137218 0.0369181 0.717047 0.137622 0.0380412 0.71596 
0.138254 0.0397732 0.714145 0.139006 0.041973 0.711682 0.139746 0.0444647 0.708666 
0.140331 0.0470561 0.705193 0.140625 0.0495589 0.701351 0.140509 0.0518075 0.697205 
0.1399 0.0536751 0.692786 0.138753 0.0550847 0.688088 0.137064 0.0560139 0.68307 
0.134867 0.0564934 0.677654 0.132227 0.056599 0.671739 0.129225 0.0564393 0.665213 
0.12595 0.0561388 0.657966 0.122477 0.0558212 0.649904 0.118862 0.055592 0.640962 
0.11513 0.0555253 0.631112 0.111269 0.0556546 0.620372 0.107236 0.0559687 0.608798 
0.102956 0.0564148 0.596489 0.0983339 0.0569058 0.583569 0.0932702 0.057333 0.570183 
0.0876698 0.0575814 0.556474 0.081457 0.0575457 0.542581 0.0745858 0.0571455 0.528614 
0.0670462 0.0563374 0.514657 0.0588674 0.0551226 0.500752 0.050115 0.0535496 0.486903 
0.0408844 0.0517102 0.473077 0.0312913 0.049732 0.459208 0.0214592 0.0477651 0.445206 
0.0115079 0.0459674 0.430966 0.00154224 0.0444885 0.416376 -0.00835584 0.0434552 0.401328 
-0.0181319 0.0429593 0.385721 -0.0277588 0.0430498 0.369466 -0.0372332 0.0437301 0.35249 
-0.0465673 0.0449597 0.334734 -0.0557793 0.0466612 0.316154 -0.0648822 0.0487304 0.296715 
-0.0738732 0.0510491 0.276394 -0.0827253 0.0534985 0.255175 -0.0913821 0.055971 0.233051 
-0.0997563 0.0583806 0.210027 -0.107732 0.060669 0.186119 -0.115174 0.0628081 0.161359 
-0.121932 0.0647984 0.135799 -0.12786 0.0666631 0.109514 -0.132823 0.0684401 0.0825998 
-0.13671 0.0701726 0.0551767 -0.139445 0.0718986 0.0273838 -0.140991 0.0736431 -0.00062552 
-0.141354 0.0754113 -0.0286907 -0.14058 0.0771856 -0.0566523 -0.138751 0.0789264 -0.0843607 
-0.135978 0.0805757 -0.111684 -0.132386 0.0820636 -0.138515 -0.128111 0.0833169 -0.164776 
-0.123283 0.0842682 -0.190418 -0.118021 0.0848644 -0.215423 -0.112426 0.0850729 -0.239798 
-0.106575 0.0848858 -0.263566 -0.100523 0.0843206 -0.286768 -0.0943022 0.0834169 -0.309444 
-0.0879272 0.0822307 -0.331633 -0.0813982 0.080826 -0.353367 -0.0747074 0.0792654 -0.374666 
-0.0678444 0.0776001 -0.395536 -0.0608007 0.0758622 -0.415973 -0.0535733 0.0740581 -0.435961 
-0.0461676 0.0721664 -0.455482 -0.0385982 0.0701388 -0.474516 -0.0308896 0.0679053 -0.493047 
-0.0230752 0.0653821 -0.511062 -0.015197 0.0624823 -0.528557 -0.0073042 0.0591284 -0.545532 
0.000547747 0.0552635 -0.561989 0.00829794 0.0508621 -0.577929 0.015881 0.0459376 -0.593347 
0.023228 0.0405457 -0.608226 0.0302678 0.0347846 -0.622534 0.036929 0.0287894 -0.636225 
0.0431421 0.0227232 -0.649237 0.0488433 0.0167647 -0.661497 0.0539772 0.0110943 -0.672926 
0.0585016 0.00587858 -0.683446 0.0623907 0.00125687 -0.692989 0.0656383 -0.00267054 -0.701502 
0.0682597 -0.00585015 -0.708959 0.070292 -0.00827863 -0.715357 0.0717924 -0.0100014 -0.720725 
0.072835 -0.0111061 -0.725118 0.0735056 -0.0117127 -0.728611 0.0738946 -0.0119593 -0.731291 
0.0740901 -0.0119876 -0.733252 0.0741698 -0.0119269 -0.734577 0.0741946 -0.0118805 -0.735335 
0.0742028 -0.0119146 -0.73557 
LINES 2 100
OFFSETS vtktypeint64
0 100 
CONNECTIVITY vtktypeint64
0 1 2 3 4 5 6 7 8 
9 10 11 12 13 14 15 16 17 
18 19 20 21 22 23 24 25 26 
27 28 29 30 31 32 33 34 35 
36 37 38 39 40 41 42 43 44 
45 46 47 48 49 50 51 52 53 
54 55 56 57 58 59 60 61 62 
63 64 65 66 67 68 69 70 71 
72 73 74 75 76 77 78 79 80 
81 82 83 84 85 86 87 88 89 
90 91 92 93 94 95 96 97 98 
99 
POINT_DATA 100
FIELD FieldData 3
_theta 1 100 double
0 0.031733259127 0.063466518254 0.095199777382 0.12693303651 0.15866629564 0.19039955476 0.22213281389 0.25386607302 
0.28559933214 0.31733259127 0.3490658504 0.38079910953 0.41253236865 0.44426562778 0.47599888691 0.50773214603 0.53946540516 
0.57119866429 0.60293192342 0.63466518254 0.66639844167 0.6981317008 0.72986495992 0.76159821905 0.79333147818 0.82506473731 
0.85679799643 0.88853125556 0.92026451469 0.95199777382 0.98373103294 1.0154642921 1.0471975512 1.0789308103 1.1106640695 
1.1423973286 1.1741305877 1.2058638468 1.237597106 1.2693303651 1.3010636242 1.3327968833 1.3645301425 1.3962634016 
1.4279966607 1.4597299198 1.491463179 1.5231964381 1.5549296972 1.5866629564 1.6183962155 1.6501294746 1.6818627337 
1.7135959929 1.745329252 1.7770625111 1.8087957702 1.8405290294 1.8722622885 1.9039955476 1.9357288068 1.9674620659 
1.999195325 2.0309285841 2.0626618433 2.0943951024 2.1261283615 2.1578616206 2.1895948798 2.2213281389 2.253061398 
2.2847946572 2.3165279163 2.3482611754 2.3799944345 2.4117276937 2.4434609528 2.4751942119 2.506927471 2.5386607302 
2.5703939893 2.6021272484 2.6338605076 2.6655937667 2.6973270258 2.7290602849 2.7607935441 2.7925268032 2.8242600623 
2.8559933214 2.8877265806 2.9194598397 2.9511930988 2.982926358 3.0146596171 3.0463928762 3.0781261353 3.1098593945 
3.1415926536 
_radius 1 100 double
1.2761529536e-15 0.014168016427 0.028227465451 0.042076263194 0.055629960632 0.068826246506 0.081625263493 0.094005844609 0.10595863324 
0.11747764434 0.12855202363 0.13915956735 0.14926308002 0.15881002854 0.16773538261 0.17596714875 0.18343391059 0.19007357572 
0.19584241612 0.20072337871 0.20473259737 0.20792310094 0.2103848812 0.21224073759 0.21363766314 0.21473404488 0.21568366934 
0.21661833655 0.21763147577 0.21876520709 0.22000280714 0.22126781139 0.22243023041 0.22331953887 0.22374319756 0.22350867903 
0.22244649246 0.22043159181 0.21740074402 0.21336388177 0.20840812867 0.20269397565 0.19644386152 0.18992405254 0.18342124592 
0.1772159283 0.17155541335 0.16663054649 0.16256057044 0.15938955395 0.15709484408 0.15560454705 0.15481902415 0.15463148051 
0.15494403066 0.15567711959 0.15677166614 0.15818493157 0.15988259617 0.16183008368 0.16398536837 0.16629391373 0.16868530348 
0.17107128056 0.17334581894 0.17538848729 0.17707215227 0.17827507944 0.17889608838 0.17887004299 0.17818003221 0.17686252874 
0.1750031595 0.17272393693 0.1701664692 0.16747613707 0.16478879298 0.16221851748 0.1598449334 0.15770017826 0.15575747288 
0.15392469325 0.15204659262 0.14991764907 0.14730442582 0.14397337308 0.13971857363 0.13438435357 0.12787933265 0.1201805716 
0.11132844147 0.1014143957 0.090564774038 0.078923972286 0.066639790012 0.053852742802 0.040689957702 0.027263295359 0.013670749983 
1.0692051079e-15 
_area 1 100 double
0 0.00047578842937 0.0018877926497 0.0041934004829 0.0073319177645 0.011236268142 0.015843305643 0.02109902864 0.026955829497 
0.0333613205 0.04024307606 0.047497271939 0.054986844723 0.062548963508 0.070008222832 0.07719197843 0.083945347757 0.090144054169 
0.095703390805 0.10058185204 0.10477943655 0.10833350265 0.11131713569 0.11384194123 0.1160585748 0.11814328739 0.12026766146 
0.12256452725 0.12510523536 0.12789106221 0.13085299875 0.13385519256 0.13670117128 0.13914467765 0.14090801522 0.14170972291 
0.14129970442 0.13949550277 0.13621177665 0.13147746068 0.12543929191 0.11835329713 0.11056619129 0.10248728037 0.094550160234 
0.087162629279 0.080643167005 0.07515846924 0.070710458686 0.067195817891 0.064541359841 0.062345222028 0.060408774806 0.058606447433 
0.056931856959 0.055670860583 0.055034055536 0.054956455117 0.055400563518 0.05632083485 0.057597423394 0.059053487738 0.060498370964 
0.061752526643 0.062669822707 0.063156279675 0.063175612541 0.062744230363 0.061926949855 0.060825936407 0.059570954401 0.058313383475 
0.057179231175 0.056200023465 0.055331221885 0.05454347435 0.053861582753 0.053355458915 0.053116343636 0.053213134165 0.053630491824 
0.054233889521 0.05479202942 0.055027395705 0.054665197981 0.053475550383 0.051308376672 0.048117169776 0.043967160607 0.039026009545 
0.033539097226 0.027795142619 0.022089807663 0.016694575732 0.011835899222 0.0076863491615 0.004366321307 0.0019526551822 0.00048981909887 
2.6669032822e-17 
