# vtk DataFile Version 5.1
vtk output
ASCII
DATASET POLYDATA
POINTS 100 float
0.0432743 0.0571069 0.714669 0.0433327 0.0572763 0.714213 0.0435302 0.0576428 0.712715 
0.0438365 0.0581653 0.710225 0.0442054 0.0587814 0.706818 0.0445793 0.0594151 0.702586 
0.0448953 0.0599857 0.697632 0.0450925 0.0604176 0.69205 0.0451178 0.060649 0.685922 
0.0449316 0.0606396 0.679305 0.0445118 0.0603751 0.67223 0.043855 0.0598687 0.664697 
0.0429762 0.0591594 0.65668 0.0419056 0.058307 0.648133 0.0406829 0.0573849 0.639001 
0.0393514 0.0564707 0.629228 0.0379493 0.0556375 0.618772 0.036503 0.0549442 0.607609 
0.03502 0.0544293 0.595746 0.0334844 0.0541054 0.583223 0.0318551 0.0539579 0.57011 
0.0300666 0.0539467 0.556505 0.0280333 0.0540101 0.542527 0.025657 0.0540723 0.528305 
0.022836 0.054051 0.513965 0.0194765 0.053867 0.49962 0.0155035 0.0534523 0.48536 
0.0108709 0.0527574 0.471243 0.0055695 0.0517565 0.45729 -0.000369208 0.05045 0.443488 
-0.00687232 0.0488644 0.429789 -0.01383 0.0470497 0.416118 -0.0211038 0.0450747 0.402382 
-0.0285387 0.0430209 0.388476 -0.0359772 0.0409754 0.374299 -0.0432741 0.0390244 0.359757 
-0.0503109 0.0372472 0.344771 -0.0570067 0.0357112 0.329284 -0.0633256 0.0344696 0.313256 
-0.0692785 0.0335593 0.29667 -0.0749196 0.0330022 0.279524 -0.0803369 0.0328069 0.261824 
-0.0856381 0.0329713 0.243584 -0.0909335 0.033486 0.224817 -0.0963174 0.0343382 0.205533 
-0.10185 0.0355137 0.185733 -0.107541 0.0369997 0.165416 -0.113344 0.0387856 0.144576 
-0.119149 0.0408636 0.123205 -0.124787 0.0432277 0.101302 -0.130041 0.0458723 0.0788761 
-0.134665 0.0487908 0.0559491 -0.138404 0.0519733 0.0325622 -0.14102 0.0554048 0.00877596 
-0.142314 0.0590636 -0.0153304 -0.142151 0.0629198 -0.0396619 -0.140473 0.0669348 -0.0641125 
-0.137311 0.0710607 -0.0885716 -0.132781 0.0752404 -0.112932 -0.127082 0.0794078 -0.137095 
-0.120472 0.0834887 -0.16098 -0.113249 0.087402 -0.184526 -0.105725 0.0910607 -0.207696 
-0.0981932 0.0943741 -0.230478 -0.0909018 0.0972499 -0.252881 -0.0840323 0.0995972 -0.274931 
-0.0776821 0.101329 -0.296665 -0.0718573 0.102368 -0.318127 -0.066474 0.102648 -0.339356 
-0.0613691 0.102117 -0.360382 -0.0563189 0.100747 -0.38122 -0.0510632 0.0985296 -0.401864 
-0.0453329 0.0954808 -0.422287 -0.0388782 0.0916426 -0.44244 -0.0314937 0.0870805 -0.462251 
-0.0230396 0.0818816 -0.481632 -0.0134548 0.0761497 -0.50048 -0.00276315 0.0700004 -0.518685 
0.00892885 0.0635544 -0.536132 0.021442 0.0569311 -0.552712 0.0345403 0.0502419 -0.568321 
0.0479504 0.0435852 -0.582869 0.0613841 0.0370421 -0.59628 0.0745594 0.0306745 -0.6085 
0.0872193 0.0245249 -0.619495 0.099147 0.0186183 -0.629252 0.110175 0.0129659 -0.637783 
0.120191 0.00757009 -0.64512 0.129135 0.0024298 -0.651318 0.136994 -0.00245373 -0.656451 
0.143795 -0.00707231 -0.660608 0.149594 -0.0114073 -0.663894 0.154465 -0.0154281 -0.66642 
0.158488 -0.019092 -0.668302 0.161747 -0.0223471 -0.669658 0.164313 -0.0251356 -0.670597 
0.166249 -0.0273992 -0.671216 0.167605 -0.0290842 -0.671598 0.168415 -0.0301473 -0.671805 
0.168698 -0.0305597 -0.671873 
LINES 2 100
OFFSETS vtktypeint64
0 100 
CONNECTIVITY vtktypeint64
0 1 2 3 4 5 6 7 8 
9 10 11 12 13 14 15 16 17 
18 19 20 21 22 23 24 25 26 
27 28 29 30 31 32 33 34 35 
36 37 38 39 40 41 42 43 44 
45 46 47 48 49 50 51 52 53 
54 55 56 57 58 59 60 61 62 
63 64 65 66 67 68 69 70 71 
72 73 74 75 76 77 78 79 80 
81 82 83 84 85 86 87 88 89 
90 91 92 93 94 95 96 97 98 
99 
POINT_DATA 100
FIELD FieldData 3
_theta 1 100 double
0 0.031733259127 0.063466518254 0.095199777382 0.12693303651 0.15866629564 0.19039955476 0.22213281389 0.25386607302 
0.28559933214 0.31733259127 0.3490658504 0.38079910953 0.41253236865 0.44426562778 0.47599888691 0.50773214603 0.53946540516 
0.57119866429 0.60293192342 0.63466518254 0.66639844167 0.6981317008 0.72986495992 0.76159821905 0.79333147818 0.82506473731 
0.85679799643 0.88853125556 0.92026451469 0.95199777382 0.98373103294 1.0154642921 1.0471975512 1.0789308103 1.1106640695 
1.1423973286 1.1741305877 1.2058638468 1.237597106 1.2693303651 1.3010636242 1.3327968833 1.3645301425 1.3962634016 
1.4279966607 1.4597299198 1.491463179 1.5231964381 1.5549296972 1.5866629564 1.6183962155 1.6501294746 1.6818627337 
1.7135959929 1.745329252 1.7770625111 1.8087957702 1.8405290294 1.8722622885 1.9039955476 1.9357288068 1.9674620659 
1.999195325 2.0309285841 2.0626618433 2.0943951024 2.1261283615 2.1578616206 2.1895948798 2.2213281389 2.253061398 
2.2847946572 2.3165279163 2.3482611754 2.3799944345 2.4117276937 2.4434609528 2.4751942119 2.506927471 2.5386607302 
2.5703939893 2.6021272484 2.6338605076 2.6655937667 2.6973270258 2.7290602849 2.7607935441 2.7925268032 2.8242600623 
2.8559933214 2.8877265806 2.9194598397 2.9511930988 2.982926358 3.0146596171 3.0463928762 3.0781261353 3.1098593945 
3.1415926536 
_radius 1 100 double
7.7839421921e-16 0.01233764202 0.024680731429 0.037018555334 0.049321867827 0.061538398838 0.073592587988 0.085389483196 0.096821985084 
0.10778012262 0.11816089114 0.12787732843 0.13686583136 0.1450911007 0.15254846023 0.15926358212 0.16528982953 0.17070347719 
0.1755970366 0.18007093891 0.18422406828 0.18814409448 0.19189901355 0.19553145101 0.19905690836 0.20246629724 0.20573210612 
0.20881672107 0.21168097665 0.21429099123 0.21662175288 0.2186567644 0.22038420214 0.22179114251 0.22285799263 0.22355502585 
0.22384198464 0.2236705995 0.22298917712 0.22174836967 0.21990759059 0.21744182326 0.21434848348 0.21065360067 0.20641618698 
0.20172960999 0.19671922691 0.19153627635 0.18634858581 0.18132874005 0.17664030292 0.17242322301 0.1687809074 0.16577277862 
0.16341568694 0.16169378917 0.16057103129 0.15999855107 0.15991369013 0.16023366381 0.16085010568 0.16162957013 0.1624215247 
0.16307181106 0.1634377376 0.16340150385 0.16288080281 0.16183713704 0.16028164837 0.1582761593 0.15592700255 0.15337168525 
0.1507612374 0.14824268578 0.14594602688 0.14397819663 0.14242342655 0.14134648742 0.14079406411 0.14079039951 0.14132599796 
0.14234164627 0.14371303841 0.14524249339 0.14666264391 0.14765296446 0.14786568221 0.14695521363 0.14460550992 0.14055171548 
0.13459496439 0.126610952 0.11655376394 0.10445646097 0.090429441905 0.074656963098 0.057391628373 0.038946352319 0.019683339587 
1.1688254561e-15 
_area 1 100 double
0 0.00041436611696 0.0016499651507 0.003683949093 0.0064772416118 0.0099735933688 0.014099116375 0.018762625267 0.023856759415 
0.029259778267 0.034838449198 0.040453284328 0.045967511995 0.051259739078 0.056237679569 0.060848260629 0.065079717996 0.06895462841 
0.072517537797 0.075823443521 0.078931943441 0.081908253256 0.084829226199 0.087790276123 0.090906651161 0.094298485294 0.098046726483 
0.10213455428 0.10643790679 0.11078279566 0.11500845636 0.11899497029 0.12265748271 0.12593307427 0.12877813012 0.13116387908 
0.13305843498 0.13440446449 0.13510761104 0.13504239882 0.13407388341 0.1320907504 0.12904360541 0.12497754815 0.12004627104 
0.1144972628 0.10862291803 0.10268879291 0.096882346304 0.091328738305 0.086147098216 0.081488944346 0.077567433702 0.07458118223 
0.072356718403 0.070619454806 0.069183631321 0.067892957114 0.066607053498 0.06520996368 0.063621629852 0.061812347454 0.059820802587 
0.057767212775 0.055846408611 0.054298133652 0.053440171633 0.053417142922 0.053560513066 0.05363713512 0.053525973087 0.053175576771 
0.052590345074 0.051815673483 0.050919265033 0.049970081229 0.0490170482 0.048085564132 0.047201006751 0.046409428645 0.04577611041 
0.045370703621 0.045243247483 0.045382796147 0.045668267607 0.045861572478 0.045661810527 0.044777893604 0.042989098742 0.040186827242 
0.036393718439 0.031758309706 0.026529218126 0.021018344354 0.015564659359 0.010506864126 0.0061652424798 0.00282577687 0.00071982657595 
6.4184768611e-17 
