# vtk DataFile Version 5.1
vtk output
ASCII
DATASET POLYDATA
POINTS 100 float
0.107895 0.0612939 0.749077 0.107894 0.0615187 0.748745 0.107909 0.0620382 0.747581 
0.107935 0.0628096 0.745596 0.107965 0.0637667 0.742802 0.107985 0.064827 0.739214 
0.107976 0.0658998 0.734845 0.107907 0.0668943 0.729704 0.10774 0.0677285 0.723793 
0.107423 0.0683349 0.717108 0.106896 0.068666 0.709641 0.106091 0.0686957 0.701385 
0.104935 0.0684192 0.692341 0.103356 0.0678497 0.682517 0.101284 0.0670147 0.671942 
0.0986629 0.0659497 0.660663 0.0954487 0.0646934 0.648752 0.0916163 0.0632826 0.636299 
0.087161 0.0617492 0.623411 0.0820995 0.0601179 0.610205 0.0764682 0.0584074 0.596795 
0.070321 0.0566316 0.583284 0.0637245 0.054803 0.569755 0.0567535 0.0529363 0.556258 
0.0494848 0.0510519 0.54281 0.041992 0.0491785 0.529389 0.0343405 0.0473539 0.515941 
0.0265837 0.0456249 0.502382 0.0187604 0.0440445 0.488612 0.0108942 0.0426685 0.474523 
0.00299384 0.0415504 0.460018 -0.00494447 0.0407362 0.445014 -0.0129338 0.0402604 0.429457 
-0.0209924 0.0401421 0.413324 -0.0291388 0.0403835 0.396621 -0.0373876 0.0409707 0.379381 
-0.0457443 0.0418755 0.361653 -0.0542019 0.0430602 0.343491 -0.0627376 0.0444827 0.32494 
-0.0713106 0.0461024 0.306025 -0.0798611 0.0478856 0.286742 -0.0883106 0.0498091 0.267052 
-0.0965629 0.0518629 0.246882 -0.104507 0.0540501 0.226131 -0.11202 0.056384 0.20468 
-0.118973 0.0588844 0.182409 -0.125236 0.061571 0.159215 -0.130683 0.0644577 0.135024 
-0.135203 0.067546 0.10981 -0.1387 0.0708205 0.0836008 -0.141106 0.0742461 0.0564871 
-0.14238 0.0777677 0.0286142 -0.142517 0.0813124 0.00017513 -0.141548 0.084795 -0.0286053 
-0.139537 0.0881245 -0.0574897 -0.136583 0.0912117 -0.0862488 -0.132811 0.0939775 -0.114681 
-0.128363 0.0963595 -0.142629 -0.123394 0.0983171 -0.169991 -0.118057 0.0998333 -0.196722 
-0.112494 0.100914 -0.222833 -0.106828 0.101585 -0.248383 -0.101154 0.101886 -0.273455 
-0.0955354 0.101859 -0.298145 -0.0900013 0.101545 -0.322538 -0.0845501 0.100976 -0.346692 
-0.0791548 0.100163 -0.370622 -0.0737716 0.0990987 -0.394294 -0.0683505 0.0977519 -0.417623 
-0.0628471 0.0960735 -0.440479 -0.0572335 0.0940001 -0.462705 -0.0515077 0.091462 -0.484127 
-0.0456994 0.0883928 -0.504579 -0.0398722 0.0847381 -0.52392 -0.0341218 0.0804643 -0.54205 
-0.0285691 0.075565 -0.558924 -0.0233495 0.0700643 -0.574552 -0.0186002 0.0640171 -0.589 
-0.0144456 0.0575069 -0.60238 -0.0109827 0.0506393 -0.614834 -0.00826967 0.0435348 -0.626518 
-0.00631671 0.0363195 -0.637581 -0.00508251 0.0291166 -0.648147 -0.00447577 0.022038 -0.658304 
-0.0043622 0.0151787 -0.668093 -0.00457645 0.00861267 -0.677507 -0.00493771 0.00239265 -0.686496 
-0.00526739 -0.00344865 -0.69498 -0.00540691 -0.00889455 -0.702859 -0.00523371 -0.0139393 -0.710031 
-0.00467352 -0.0185823 -0.71641 -0.00370752 -0.0228229 -0.721936 -0.00237355 -0.0266562 -0.726587 
-0.000761055 -0.0300706 -0.730378 0.000999632 -0.033047 -0.733359 0.00275257 -0.0355604 -0.73561 
0.00433432 -0.0375824 -0.737224 0.00559284 -0.0390852 -0.738293 0.00640503 -0.0400449 -0.738896 
0.00669096 -0.0404457 -0.739086 
LINES 2 100
OFFSETS vtktypeint64
0 100 
CONNECTIVITY vtktypeint64
0 1 2 3 4 5 6 7 8 
9 10 11 12 13 14 15 16 17 
18 19 20 21 22 23 24 25 26 
27 28 29 30 31 32 33 34 35 
36 37 38 39 40 41 42 43 44 
45 46 47 48 49 50 51 52 53 
54 55 56 57 58 59 60 61 62 
63 64 65 66 67 68 69 70 71 
72 73 74 75 76 77 78 79 80 
81 82 83 84 85 86 87 88 89 
90 91 92 93 94 95 96 97 98 
99 
POINT_DATA 100
FIELD FieldData 3
_theta 1 100 double
0 0.031733259127 0.063466518254 0.095199777382 0.12693303651 0.15866629564 0.19039955476 0.22213281389 0.25386607302 
0.28559933214 0.31733259127 0.3490658504 0.38079910953 0.41253236865 0.44426562778 0.47599888691 0.50773214603 0.53946540516 
0.57119866429 0.60293192342 0.63466518254 0.66639844167 0.6981317008 0.72986495992 0.76159821905 0.79333147818 0.82506473731 
0.85679799643 0.88853125556 0.92026451469 0.95199777382 0.98373103294 1.0154642921 1.0471975512 1.0789308103 1.1106640695 
1.1423973286 1.1741305877 1.2058638468 1.237597106 1.2693303651 1.3010636242 1.3327968833 1.3645301425 1.3962634016 
1.4279966607 1.4597299198 1.491463179 1.5231964381 1.5549296972 1.5866629564 1.6183962155 1.6501294746 1.6818627337 
1.7135959929 1.745329252 1.7770625111 1.8087957702 1.8405290294 1.8722622885 1.9039955476 1.9357288068 1.9674620659 
1.999195325 2.0309285841 2.0626618433 2.0943951024 2.1261283615 2.1578616206 2.1895948798 2.2213281389 2.253061398 
2.2847946572 2.3165279163 2.3482611754 2.3799944345 2.4117276937 2.4434609528 2.4751942119 2.506927471 2.5386607302 
2.5703939893 2.6021272484 2.6338605076 2.6655937667 2.6973270258 2.7290602849 2.7607935441 2.7925268032 2.8242600623 
2.8559933214 2.8877265806 2.9194598397 2.9511930988 2.982926358 3.0146596171 3.0463928762 3.0781261353 3.1098593945 
3.1415926536 
_radius 1 100 double
9.3353269886e-17 0.013745227273 0.027423026468 0.040957266822 0.054269590896 0.067278909739 0.079901565779 0.092052718268 0.10364925866 
0.11461411923 0.12488143039 0.13440176142 0.14314664894 0.15111170699 0.15831776541 0.16480968872 0.17065279452 0.17592712233 
0.18072016669 0.1851189911 0.18920276441 0.19303665265 0.19666773014 0.20012326167 0.20341137482 0.20652375362 0.20943960731 
0.21213000661 0.21456184091 0.21670095949 0.21851424093 0.21997037503 0.2210392966 0.22169061409 0.22189184391 0.22160749897 
0.22079995912 0.21943264069 0.21747544454 0.21491193869 0.21174730476 0.20801577294 0.20378609572 0.19916360278 0.19428762429 
0.1893236994 0.18445108777 0.17984750098 0.17567400877 0.17206287484 0.16910947919 0.16686758246 0.16534641234 0.16450884951 
0.16427159329 0.16450927362 0.16506409295 0.16576091907 0.16642593927 0.16690597107 0.16708542146 0.16689835671 0.16633391348 
0.16543426369 0.16428554643 0.16300352807 0.16171690057 0.16055147532 0.15961770934 0.15900244713 0.15876435281 0.15893153129 
0.15949890309 0.16042252569 0.16161100093 0.16292099115 0.16416604465 0.16513882012 0.16563746736 0.16548745154 0.16455527859 
0.16275402171 0.16004183234 0.15641507926 0.15189804208 0.14653125792 0.14036056413 0.1334284941 0.12576898721 0.11740557247 
0.10835257559 0.098618665713 0.08821211153 0.077147194586 0.06545112229 0.053170504817 0.040376202973 0.02716534452 0.013659663823 
7.6314635902e-16 
_area 1 100 double
0 0.00051936380935 0.0020700783996 0.0046265095906 0.0081359525778 0.012508976004 0.017614425254 0.023283305317 0.029322509847 
0.035535458822 0.04174390916 0.047804828935 0.053618467564 0.059127502635 0.064310498711 0.069174281713 0.073748957324 0.0780872182 
0.082267180148 0.086394987746 0.09059997978 0.095013736899 0.09972944061 0.10475334519 0.1099761905 0.11518586744 0.1201151554 
0.124501036 0.12813552713 0.13089806604 0.1327665884 0.13380819291 0.13415282727 0.13395553338 0.13335078043 0.13239838409 
0.13104636268 0.12916817202 0.12664691569 0.12343090874 0.11955289004 0.11512780934 0.1103373008 0.10540654142 0.10057693781 
0.096071183541 0.092041140335 0.088517712313 0.085426666877 0.08266258478 0.080144561328 0.077836740503 0.075750524426 0.073939174452 
0.072507993908 0.07173010853 0.07187465768 0.072331693108 0.072866774319 0.073296863164 0.073423971191 0.073081954105 0.072173921888 
0.070691897774 0.068719968561 0.066420661061 0.064005188774 0.061695979915 0.059700531901 0.058228280656 0.057882555616 0.058749423944 
0.060131628594 0.061952047007 0.06414708107 0.066570958936 0.069026173423 0.071291651775 0.073133672486 0.074322824117 0.07465827751 
0.073993228299 0.07225459205 0.069451943185 0.065673686519 0.061071288151 0.055835125832 0.050167812338 0.044261440944 0.038283540263 
0.032373373533 0.026646961814 0.02120706103 0.016153765496 0.011592119624 0.0076344389239 0.0043965332095 0.0019885459064 0.00050254338441 
7.9150993498e-18 
