# vtk DataFile Version 5.1
vtk output
ASCII
DATASET POLYDATA
POINTS 100 float
0.187066 0.0579365 0.722915 0.18701 0.0580628 0.722862 0.186909 0.0583657 0.722545 
0.186725 0.0588398 0.721938 0.186398 0.0594748 0.721002 0.185853 0.0602548 0.71968 
0.185008 0.0611585 0.717905 0.183784 0.062159 0.715596 0.182113 0.0632239 0.712663 
0.179943 0.0643157 0.709012 0.177247 0.065393 0.704553 0.174022 0.0664114 0.699206 
0.170288 0.0673249 0.692905 0.166088 0.0680874 0.685612 0.161478 0.0686548 0.677318 
0.156521 0.0689864 0.668049 0.15128 0.0690468 0.657864 0.145804 0.0688077 0.646857 
0.140129 0.0682494 0.635144 0.134266 0.0673618 0.622858 0.128205 0.0661457 0.610139 
0.121913 0.0646136 0.597115 0.11534 0.0627895 0.583897 0.108427 0.0607097 0.570565 
0.101116 0.0584217 0.557162 0.0933572 0.0559833 0.543691 0.0851224 0.0534616 0.530116 
0.0764101 0.0509305 0.516372 0.0672512 0.0484682 0.50237 0.05771 0.0461543 0.488013 
0.0478806 0.0440664 0.473209 0.0378803 0.0422758 0.457882 0.0278388 0.0408444 0.441986 
0.0178855 0.0398205 0.425509 0.00813635 0.0392359 0.408473 -0.00131881 0.0391038 0.390936 
-0.010426 0.0394171 0.372978 -0.0191728 0.0401485 0.354693 -0.0275895 0.0412522 0.336174 
-0.0357438 0.0426663 0.317498 -0.043731 0.0443172 0.298714 -0.0516596 0.0461247 0.279831 
-0.0596334 0.0480078 0.260817 -0.0677329 0.0498906 0.2416 -0.0759978 0.0517085 0.22207 
-0.084413 0.0534124 0.202097 -0.0928989 0.0549727 0.181541 -0.10131 0.0563809 0.160272 
-0.109438 0.0576496 0.138187 -0.117027 0.0588104 0.115222 -0.12379 0.0599098 0.091366 
-0.129432 0.0610043 0.0666639 -0.133678 0.0621532 0.0412158 -0.136295 0.0634126 0.0151703 
-0.13712 0.0648287 -0.0112879 -0.136069 0.0664319 -0.0379537 -0.133153 0.0682331 -0.0646189 
-0.128476 0.0702207 -0.0910898 -0.122227 0.0723615 -0.117202 -0.114665 0.0746012 -0.142831 
-0.106095 0.076869 -0.1679 -0.0968387 0.0790822 -0.192375 -0.0872131 0.0811524 -0.216267 
-0.077498 0.0829916 -0.239617 -0.0679173 0.0845183 -0.262489 -0.0586235 0.0856624 -0.28495 
-0.0496913 0.086369 -0.307064 -0.0411197 0.0866008 -0.328879 -0.0328435 0.0863386 -0.350417 
-0.0247499 0.0855803 -0.371678 -0.0167016 0.0843392 -0.392633 -0.00856005 0.0826407 -0.413234 
-0.000209003 0.0805198 -0.433421 0.00842682 0.0780176 -0.453129 0.0173686 0.0751789 -0.472295 
0.0265779 0.0720509 -0.49087 0.0359592 0.0686822 -0.508815 0.0453701 0.065123 -0.526111 
0.0546373 0.0614257 -0.542747 0.0635765 0.0576459 -0.558726 0.072014 0.0538432 -0.574047 
0.0798062 0.0500818 -0.588707 0.0868553 0.0464296 -0.602691 0.0931195 0.0429571 -0.615966 
0.0986153 0.039734 -0.628483 0.103413 0.0368264 -0.64018 0.107624 0.0342915 -0.650981 
0.111386 0.0321738 -0.660814 0.114844 0.0305006 -0.669611 0.118126 0.0292784 -0.677326 
0.121333 0.0284913 -0.683938 0.124518 0.0281005 -0.689458 0.127685 0.0280465 -0.693936 
0.130784 0.0282525 -0.697451 0.133726 0.0286307 -0.700112 0.136386 0.0290883 -0.702043 
0.138628 0.0295358 -0.703372 0.14032 0.0298947 -0.704218 0.141353 0.0301036 -0.704678 
0.141658 0.0301243 -0.704813 
LINES 2 100
OFFSETS vtktypeint64
0 100 
CONNECTIVITY vtktypeint64
0 1 2 3 4 5 6 7 8 
9 10 11 12 13 14 15 16 17 
18 19 20 21 22 23 24 25 26 
27 28 29 30 31 32 33 34 35 
36 37 38 39 40 41 42 43 44 
45 46 47 48 49 50 51 52 53 
54 55 56 57 58 59 60 61 62 
63 64 65 66 67 68 69 70 71 
72 73 74 75 76 77 78 79 80 
81 82 83 84 85 86 87 88 89 
90 91 92 93 94 95 96 97 98 
99 
POINT_DATA 100
FIELD FieldData 3
_theta 1 100 double
0 0.031733259127 0.063466518254 0.095199777382 0.12693303651 0.15866629564 0.19039955476 0.22213281389 0.25386607302 
0.28559933214 0.31733259127 0.3490658504 0.38079910953 0.41253236865 0.44426562778 0.47599888691 0.50773214603 0.53946540516 
0.57119866429 0.60293192342 0.63466518254 0.66639844167 0.6981317008 0.72986495992 0.76159821905 0.79333147818 0.82506473731 
0.85679799643 0.88853125556 0.92026451469 0.95199777382 0.98373103294 1.0154642921 1.0471975512 1.0789308103 1.1106640695 
1.1423973286 1.1741305877 1.2058638468 1.237597106 1.2693303651 1.3010636242 1.3327968833 1.3645301425 1.3962634016 
1.4279966607 1.4597299198 1.491463179 1.5231964381 1.5549296972 1.5866629564 1.6183962155 1.6501294746 1.6818627337 
1.7135959929 1.745329252 1.7770625111 1.8087957702 1.8405290294 1.8722622885 1.9039955476 1.9357288068 1.9674620659 
1.999195325 2.0309285841 2.0626618433 2.0943951024 2.1261283615 2.1578616206 2.1895948798 2.2213281389 2.253061398 
2.2847946572 2.3165279163 2.3482611754 2.3799944345 2.4117276937 2.4434609528 2.4751942119 2.506927471 2.5386607302 
2.5703939893 2.6021272484 2.6338605076 2.6655937667 2.6973270258 2.7290602849 2.7607935441 2.7925268032 2.8242600623 
2.8559933214 2.8877265806 2.9194598397 2.9511930988 2.982926358 3.0146596171 3.0463928762 3.0781261353 3.1098593945 
3.1415926536 
_radius 1 100 double
1.0250792056e-15 0.016090317948 0.032053690794 0.047768814738 0.063125656872 0.078027806978 0.092392172317 0.10614681959 0.11922844001 
0.13158100221 0.14315657119 0.15391823694 0.16384406355 0.17293038264 0.18119283675 0.18866427643 0.19538965976 0.20141912688 
0.20680106508 0.21157701511 0.21577969307 0.21943445193 0.2225635407 0.22519184906 0.22735259918 0.22909165185 0.23046960911 
0.23156151063 0.23245437275 0.23324292142 0.23402368752 0.23488746034 0.23591020326 0.23714295647 0.23860180357 0.24025943858 
0.24204006958 0.24381924769 0.24542970137 0.24667345701 0.24733957367 0.2472259004 0.24616256437 0.24403454264 0.24080067308 
0.23650674446 0.23129076083 0.22537901598 0.21907220956 0.21272155908 0.20669594262 0.20134287674 0.19694864124 0.19370519155 
0.19169165672 0.19087463429 0.19112522151 0.19224544984 0.19399576472 0.19611842574 0.19835629783 0.20046926484 0.20225020361 
0.20354026699 0.20424122864 0.20432210605 0.20381811234 0.20282146615 0.20146514997 0.19990206154 0.19828287575 0.19673607382 
0.19535300122 0.19417973659 0.1932162141 0.19242153454 0.19172304901 0.19102631034 0.19022371701 0.18920103706 0.1878420972 
0.18603235441 0.18366192507 0.18062818746 0.17683763028 0.17220651282 0.16666025673 0.1601321221 0.15256224643 0.14389820191 
0.13409778718 0.12313404766 0.11100184411 0.097724857717 0.083361750543 0.068010247736 0.051808160608 0.034930826279 0.017585027004 
5.5385499327e-16 
_area 1 100 double
0 0.0005843811928 0.002321912007 0.0051676440027 0.0090521559359 0.01388729262 0.019570307679 0.025984798655 0.032998687711 
0.040461537333 0.04820461217 0.056046567947 0.063805555036 0.07131578037 0.078444406232 0.085103974128 0.09125651403 0.09690770558 
0.10209224073 0.10685425228 0.11122869674 0.11523037687 0.11885609602 0.12210090154 0.12498182873 0.1275569642 0.12992953521 
0.13223385166 0.13460496062 0.13713930564 0.13986775378 0.14276359739 0.14577583839 0.14885711982 0.15197138151 0.15508526683 
0.15815263173 0.16109957826 0.16381133312 0.16611899697 0.16777953396 0.16846673397 0.1678740492 0.16579193804 0.16214020243 
0.15698313709 0.15052715906 0.14310049379 0.13511741309 0.1270315858 0.11928520477 0.11226291847 0.10626052229 0.10147381249 
0.097994735655 0.095784204949 0.094663087176 0.094387644547 0.094703318508 0.09533676697 0.095989185742 0.0963632774 0.096208147698 
0.095365384475 0.093792597072 0.091554843104 0.088788867906 0.085662057086 0.08234688119 0.079010607939 0.075808245864 0.072873234711 
0.070307159833 0.068172223432 0.066490949603 0.065253782531 0.064425559837 0.063944439023 0.063722403856 0.063725514805 0.06379829278 
0.063859628229 0.063791059342 0.063502333892 0.062700056988 0.061115926515 0.058620097541 0.055166430052 0.050778518448 0.045551049898 
0.039650238967 0.033308758589 0.026812582917 0.02047844526 0.014623006669 0.0095284501189 0.0054129283836 0.0024158489811 0.0006046365685 
5.0320107581e-17 
