# vtk DataFile Version 5.1
vtk output
ASCII
DATASET POLYDATA
POINTS 100 float
0.117864 0.0585685 0.674619 0.117939 0.0588455 0.674338 0.118187 0.0595291 0.673297 
0.118559 0.0605563 0.671514 0.118977 0.0618295 0.669013 0.119347 0.0632277 0.665828 
0.119562 0.0646196 0.662 0.119518 0.0658777 0.657572 0.119123 0.0668917 0.65259 
0.118304 0.0675796 0.647096 0.117015 0.067895 0.641132 0.115238 0.0678304 0.634731 
0.112983 0.0674158 0.627924 0.110284 0.0667124 0.620732 0.107195 0.065804 0.613173 
0.103778 0.0647848 0.60526 0.100095 0.0637473 0.597001 0.0962022 0.0627708 0.588403 
0.0921407 0.0619118 0.57947 0.0879332 0.0611982 0.570206 0.0835818 0.0606266 0.560616 
0.0790701 0.0601643 0.550703 0.0743673 0.0597548 0.540473 0.0694346 0.0593263 0.52993 
0.0642328 0.0588013 0.519078 0.0587308 0.0581078 0.507922 0.052912 0.0571883 0.496465 
0.0467801 0.0560078 0.484708 0.0403613 0.0545579 0.472651 0.0337044 0.0528591 0.460294 
0.0268771 0.0509577 0.447638 0.0199603 0.0489215 0.43468 0.0130396 0.0468328 0.421422 
0.00619683 0.0447799 0.407863 -0.000499363 0.042849 0.394005 -0.007001 0.0411171 0.37985 
-0.0132864 0.0396463 0.365401 -0.0193626 0.038481 0.350659 -0.025265 0.0376474 0.335625 
-0.0310525 0.0371552 0.320299 -0.036801 0.037001 0.304676 -0.0425935 0.0371734 0.288747 
-0.0485093 0.0376577 0.272502 -0.0546133 0.0384402 0.255922 -0.0609456 0.0395111 0.238988 
-0.0675142 0.0408658 0.221674 -0.0742894 0.0425043 0.203954 -0.0812031 0.0444281 0.185799 
-0.0881503 0.0466369 0.167178 -0.0949951 0.0491238 0.148063 -0.101579 0.0518711 0.128428 
-0.107731 0.0548467 0.10825 -0.11328 0.0580024 0.0875112 -0.118066 0.0612741 0.0662006 
-0.121948 0.0645843 0.044314 -0.124815 0.0678463 0.0218563 -0.126589 0.0709709 -0.00115816 
-0.12723 0.0738729 -0.0247036 -0.126731 0.076478 -0.0487425 -0.125118 0.0787295 -0.0732242 
-0.122443 0.080592 -0.0980846 -0.118776 0.0820542 -0.123246 -0.1142 0.0831279 -0.148617 
-0.108801 0.083845 -0.174094 -0.10266 0.0842521 -0.199564 -0.0958543 0.084403 -0.224904 
-0.088448 0.0843507 -0.249989 -0.0804956 0.0841394 -0.274691 -0.0720413 0.0837974 -0.298886 
-0.0631217 0.083332 -0.32246 -0.0537702 0.0827269 -0.345308 -0.0440201 0.0819426 -0.367343 
-0.0339089 0.0809194 -0.388495 -0.0234816 0.0795828 -0.408711 -0.0127922 0.0778518 -0.427961 
-0.00190461 0.0756472 -0.446231 0.00910814 0.0729006 -0.463523 0.0201661 0.069563 -0.47985 
0.0311856 0.0656111 -0.495236 0.0420824 0.061052 -0.509706 0.0527762 0.055925 -0.523287 
0.0631932 0.0503005 -0.536002 0.0732695 0.0442762 -0.547869 0.0829524 0.0379719 -0.5589 
0.0922006 0.0315209 -0.5691 0.100984 0.025063 -0.57847 0.109282 0.0187348 -0.58701 
0.117079 0.0126628 -0.59472 0.124365 0.00695627 -0.601604 0.13113 0.00170289 -0.607673 
0.137361 -0.0030341 -0.612949 0.143043 -0.00721643 -0.617464 0.148155 -0.0108292 -0.621258 
0.152671 -0.0138779 -0.624383 0.156561 -0.0163832 -0.626894 0.159796 -0.0183761 -0.62885 
0.162343 -0.0198919 -0.630306 0.164177 -0.0209646 -0.631311 0.165276 -0.0216218 -0.631903 
0.165626 -0.0218816 -0.632104 
LINES 2 100
OFFSETS vtktypeint64
0 100 
CONNECTIVITY vtktypeint64
0 1 2 3 4 5 6 7 8 
9 10 11 12 13 14 15 16 17 
18 19 20 21 22 23 24 25 26 
27 28 29 30 31 32 33 34 35 
36 37 38 39 40 41 42 43 44 
45 46 47 48 49 50 51 52 53 
54 55 56 57 58 59 60 61 62 
63 64 65 66 67 68 69 70 71 
72 73 74 75 76 77 78 79 80 
81 82 83 84 85 86 87 88 89 
90 91 92 93 94 95 96 97 98 
99 
POINT_DATA 100
FIELD FieldData 3
_theta 1 100 double
0 0.031733259127 0.063466518254 0.095199777382 0.12693303651 0.15866629564 0.19039955476 0.22213281389 0.25386607302 
0.28559933214 0.31733259127 0.3490658504 0.38079910953 0.41253236865 0.44426562778 0.47599888691 0.50773214603 0.53946540516 
0.57119866429 0.60293192342 0.63466518254 0.66639844167 0.6981317008 0.72986495992 0.76159821905 0.79333147818 0.82506473731 
0.85679799643 0.88853125556 0.92026451469 0.95199777382 0.98373103294 1.0154642921 1.0471975512 1.0789308103 1.1106640695 
1.1423973286 1.1741305877 1.2058638468 1.237597106 1.2693303651 1.3010636242 1.3327968833 1.3645301425 1.3962634016 
1.4279966607 1.4597299198 1.491463179 1.5231964381 1.5549296972 1.5866629564 1.6183962155 1.6501294746 1.6818627337 
1.7135959929 1.745329252 1.7770625111 1.8087957702 1.8405290294 1.8722622885 1.9039955476 1.9357288068 1.9674620659 
1.999195325 2.0309285841 2.0626618433 2.0943951024 2.1261283615 2.1578616206 2.1895948798 2.2213281389 2.253061398 
2.2847946572 2.3165279163 2.3482611754 2.3799944345 2.4117276937 2.4434609528 2.4751942119 2.506927471 2.5386607302 
2.5703939893 2.6021272484 2.6338605076 2.6655937667 2.6973270258 2.7290602849 2.7607935441 2.7925268032 2.8242600623 
2.8559933214 2.8877265806 2.9194598397 2.9511930988 2.982926358 3.0146596171 3.0463928762 3.0781261353 3.1098593945 
3.1415926536 
_radius 1 100 double
1.4489001993e-15 0.013212844692 0.026357588561 0.03936116456 0.052155783344 0.064681103913 0.076885685084 0.088727854939 0.10017617429 
0.11120956483 0.12181701905 0.13199671566 0.1417543824 0.15110086925 0.16004908334 0.16861063699 0.17679268058 0.18459534262 
0.19200998334 0.1990182274 0.20559166012 0.21169222397 0.21727362056 0.22228418817 0.22667161722 0.23038946662 0.23340487416 
0.23570630643 0.23730985798 0.23826261371 0.23864196389 0.23855044067 0.23810648803 0.23743240543 0.23664131946 0.23582524741 
0.23504601333 0.23433002821 0.23366703777 0.23301228214 0.23229137392 0.23140748801 0.23025073076 0.22870940527 0.22668232458 
0.22409075542 0.22088841712 0.2170683043 0.21266572602 0.20775752141 0.20245769512 0.19690972349 0.19127575004 0.18572312793 
0.18040947433 0.17546843795 0.17099914318 0.16706188541 0.16368069287 0.16085061579 0.15854579395 0.15672486216 0.15533291512 
0.15430233987 0.15355612451 0.15301571579 0.15261226693 0.1522975965 0.15205090382 0.15187889845 0.15180918679 0.15187867082 
0.15212015586 0.1525509297 0.15316610038 0.15393731814 0.15481550318 0.15573513514 0.1566176164 0.15737221524 0.15789477844 
0.15806593804 0.1577511325 0.15680417788 0.15507473644 0.15241854515 0.14870830619 0.1438429889 0.13775387803 0.13040673207 
0.12180050361 0.11196388329 0.10095125239 0.088839429408 0.07572598577 0.061729095111 0.046988119967 0.031663670198 0.01593586141 
1.4369770844e-15 
_area 1 100 double
0 0.00048469973661 0.0019229857019 0.0042690337457 0.0074516168764 0.011380965149 0.015956720258 0.021075752771 0.026638921227 
0.032556253966 0.038750383356 0.045158699288 0.051735293303 0.058452507905 0.065298787032 0.072269017305 0.07934878304 0.086500504217 
0.093659606641 0.10074167127 0.10765406165 0.11430413455 0.12060058264 0.12645039602 0.13175695406 0.13642352228 0.14036305833 
0.14351227938 0.14584633948 0.14739032175 0.14822528101 0.14849111882 0.14840711647 0.14836319694 0.14871314518 0.14944332346 
0.1504014952 0.15147965185 0.1523899874 0.15292660137 0.15293516861 0.15229042204 0.15087985808 0.14864620845 0.14568966794 
0.14189159946 0.13755049427 0.13269145533 0.12777209728 0.12264426599 0.11723929698 0.11161332818 0.10590155766 0.10027815529 
0.094918773486 0.089934701038 0.085324346121 0.081008166818 0.07690820314 0.073007013763 0.069438514444 0.066658968805 0.064390070628 
0.062606683529 0.061302822952 0.060473490213 0.060079260772 0.059996891359 0.060047048449 0.06008099957 0.060022128845 0.059835751666 
0.059518832385 0.059071745701 0.058511208937 0.057837150311 0.057027828988 0.056067317076 0.054989671782 0.053871260908 0.052800261179 
0.051845287487 0.051028549805 0.050289767596 0.049419309769 0.048114850121 0.046140698928 0.04338236653 0.039836907044 0.035596926058 
0.030832197026 0.025766293843 0.020649198128 0.01572954611 0.011231212803 0.0073381565626 0.0041890555415 0.0018801886107 0.00047269664328 
4.5651265832e-17 
