# vtk DataFile Version 5.1
vtk output
ASCII
DATASET POLYDATA
POINTS 100 float
0.0925631 0.053344 0.671763 0.0925863 0.0536949 0.671396 0.0927414 0.0545512 0.670171 
0.0929986 0.0558424 0.668149 0.093313 0.0574599 0.665418 0.0936294 0.05927 0.662087 
0.0938887 0.0611286 0.658265 0.0940338 0.0628971 0.65405 0.094015 0.0644572 0.649512 
0.0937942 0.0657222 0.644684 0.0933457 0.0666449 0.63956 0.0926567 0.0672189 0.634093 
0.0917243 0.0674758 0.628203 0.0905512 0.0674767 0.621789 0.0891416 0.0673001 0.614747 
0.087496 0.0670287 0.606979 0.0856081 0.0667349 0.598415 0.0834625 0.0664687 0.589019 
0.0810355 0.0662492 0.578799 0.0782978 0.0660608 0.567805 0.0752188 0.0658538 0.556129 
0.0717731 0.0655514 0.543887 0.0679464 0.0650599 0.531213 0.0637416 0.0642826 0.518239 
0.0591823 0.0631342 0.505081 0.0543144 0.0615548 0.491826 0.0492039 0.0595212 0.478526 
0.0439317 0.0570539 0.465194 0.0385852 0.0542189 0.451806 0.0332481 0.0511241 0.438309 
0.0279893 0.0479107 0.424633 0.0228519 0.0447399 0.410708 0.0178452 0.0417774 0.396472 
0.0129395 0.0391773 0.381889 0.00806543 0.0370667 0.36695 0.00311893 0.0355341 0.35168 
-0.00202945 0.0346214 0.336135 -0.00752075 0.0343221 0.320392 -0.0134909 0.0345846 0.304535 
-0.020053 0.035321 0.288644 -0.0272798 0.036419 0.272778 -0.0351901 0.0377579 0.256962 
-0.0437386 0.0392232 0.241179 -0.0528122 0.0407214 0.225367 -0.0622332 0.0421911 0.20942 
-0.0717687 0.0436093 0.193201 -0.0811462 0.0449933 0.17655 -0.0900735 0.0463969 0.159306 
-0.0982612 0.0479013 0.141325 -0.105446 0.0496035 0.122495 -0.111409 0.0516011 0.102749 
-0.115998 0.0539777 0.0820792 -0.119131 0.0567895 0.0605323 -0.120806 0.0600547 0.0382099 
-0.121094 0.0637473 0.015256 -0.12013 0.0677955 -0.00815694 -0.1181 0.0720861 -0.0318461 
-0.115217 0.076472 -0.0556359 -0.111702 0.0807845 -0.0793742 -0.107764 0.084847 -0.102945 
-0.103581 0.0884899 -0.126273 -0.0992848 0.0915632 -0.149328 -0.0949555 0.0939482 -0.172119 
-0.0906158 0.0955642 -0.194681 -0.086237 0.0963722 -0.217067 -0.0817468 0.0963728 -0.239331 
-0.077043 0.0956019 -0.261514 -0.0720089 0.0941219 -0.283632 -0.0665288 0.0920117 -0.305674 
-0.0605041 0.0893563 -0.327594 -0.053865 0.0862367 -0.349315 -0.0465795 0.0827221 -0.370739 
-0.0386582 0.0788648 -0.391756 -0.030154 0.0746991 -0.412254 -0.0211578 0.0702423 -0.432133 
-0.0117912 0.0654999 -0.451312 -0.00219646 0.0604726 -0.469736 0.00747459 0.0551641 -0.48738 
0.0170716 0.0495894 -0.50424 0.0264556 0.0437819 -0.520334 0.0355068 0.0377978 -0.535688 
0.0441297 0.0317183 -0.550327 0.0522563 0.0256479 -0.564266 0.0598451 0.0197097 -0.577502 
0.0668792 0.0140379 -0.590011 0.0733619 0.00876773 -0.601745 0.0793109 0.00402499 -0.612642 
0.0847533 -8.51139e-05 -0.622628 0.0897192 -0.00348742 -0.631631 0.0942375 -0.00614415 -0.639594 
0.0983317 -0.00805911 -0.64648 0.102018 -0.00927815 -0.652285 0.105304 -0.00988588 -0.657043 
0.108188 -0.00999872 -0.660818 0.110663 -0.009755 -0.663708 0.112716 -0.00930285 -0.665828 
0.114332 -0.00878709 -0.667304 0.115496 -0.00833636 -0.668251 0.116194 -0.00805154 -0.668764 
0.116418 -0.00799671 -0.668909 
LINES 2 100
OFFSETS vtktypeint64
0 100 
CONNECTIVITY vtktypeint64
0 1 2 3 4 5 6 7 8 
9 10 11 12 13 14 15 16 17 
18 19 20 21 22 23 24 25 26 
27 28 29 30 31 32 33 34 35 
36 37 38 39 40 41 42 43 44 
45 46 47 48 49 50 51 52 53 
54 55 56 57 58 59 60 61 62 
63 64 65 66 67 68 69 70 71 
72 73 74 75 76 77 78 79 80 
81 82 83 84 85 86 87 88 89 
90 91 92 93 94 95 96 97 98 
99 
POINT_DATA 100
FIELD FieldData 3
_theta 1 100 double
0 0.031733259127 0.063466518254 0.095199777382 0.12693303651 0.15866629564 0.19039955476 0.22213281389 0.25386607302 
0.28559933214 0.31733259127 0.3490658504 0.38079910953 0.41253236865 0.44426562778 0.47599888691 0.50773214603 0.53946540516 
0.57119866429 0.60293192342 0.63466518254 0.66639844167 0.6981317008 0.72986495992 0.76159821905 0.79333147818 0.82506473731 
0.85679799643 0.88853125556 0.92026451469 0.95199777382 0.98373103294 1.0154642921 1.0471975512 1.0789308103 1.1106640695 
1.1423973286 1.1741305877 1.2058638468 1.237597106 1.2693303651 1.3010636242 1.3327968833 1.3645301425 1.3962634016 
1.4279966607 1.4597299198 1.491463179 1.5231964381 1.5549296972 1.5866629564 1.6183962155 1.6501294746 1.6818627337 
1.7135959929 1.745329252 1.7770625111 1.8087957702 1.8405290294 1.8722622885 1.9039955476 1.9357288068 1.9674620659 
1.999195325 2.0309285841 2.0626618433 2.0943951024 2.1261283615 2.1578616206 2.1895948798 2.2213281389 2.253061398 
2.2847946572 2.3165279163 2.3482611754 2.3799944345 2.4117276937 2.4434609528 2.4751942119 2.506927471 2.5386607302 
2.5703939893 2.6021272484 2.6338605076 2.6655937667 2.6973270258 2.7290602849 2.7607935441 2.7925268032 2.8242600623 
2.8559933214 2.8877265806 2.9194598397 2.9511930988 2.982926358 3.0146596171 3.0463928762 3.0781261353 3.1098593945 
3.1415926536 
_radius 1 100 double
3.0436364817e-16 0.012971480945 0.025928907842 0.038846082786 0.051684367451 0.064389998215 0.076894476538 0.089117744984 0.10097327999 
0.11237399221 0.12323800801 0.13349389925 0.14308539049 0.15197561132 0.16015051246 0.1676205408 0.17441958736 0.18060070314 
0.18622884302 0.19137163203 0.19608972226 0.200428676 0.20441433109 0.20805306348 0.21133721747 0.21425453772 0.21679925053 
0.21898192659 0.2208355155 0.22241582092 0.22379591766 0.22505529264 0.22626554396 0.22747511886 0.22869574821 0.22989294926 
0.23098231175 0.23183248404 0.23227509308 0.23212131159 0.23118419792 0.22930504371 0.2263808313 0.22238887765 0.21740418598 
0.21160510046 0.20526360267 0.19871827541 0.19233129982 0.18643621405 0.18128869625 0.17703431265 0.17370275572 0.17122929765 
0.16949435268 0.16836534585 0.16772505142 0.16747647127 0.16752348913 0.16773928816 0.16794767476 0.16793919159 0.16751695897 
0.1665452742 0.16497960352 0.16287360812 0.1603683922 0.1576703868 0.15502231129 0.1526697953 0.15082658745 0.14964398509 
0.14919108993 0.14944872349 0.15031590701 0.15162704483 0.15317717842 0.15475040511 0.15614502613 0.15718996899 0.15775014543 
0.15772209612 0.15702402668 0.15558527976 0.15333928168 0.15022164525 0.14617249177 0.14114029564 0.13508432417 0.12797403123 
0.11978590934 0.11050028067 0.10010133421 0.088582894433 0.075960180777 0.062285111683 0.047660696744 0.032249601032 0.016273213805 
6.0921172895e-16 
_area 1 100 double
0 0.00045553481794 0.0018100107344 0.0040288799106 0.0070604389193 0.010843704266 0.015317351211 0.02042726061 0.02612942523 
0.032385057394 0.039146822603 0.046339662108 0.053844793765 0.061496869643 0.069099143574 0.076452871636 0.083391027133 0.089805457104 
0.09565946048 0.10098243474 0.10584881246 0.11034897622 0.11456273584 0.11854392012 0.1223186228 0.12589359941 0.12926846851 
0.13244628628 0.1354401568 0.13827623663 0.14099420568 0.14364579882 0.14629198937 0.14899971542 0.1518325506 0.15479959619 
0.15777308191 0.16048937662 0.16259682781 0.16370191477 0.16342381258 0.1614586918 0.15764551059 0.15201916181 0.14483580615 
0.1365615141 0.12782465337 0.11933709803 0.11178018465 0.10564189978 0.10106962928 0.097886142579 0.095742737589 0.094259913029 
0.093101458485 0.09200675644 0.090804867989 0.089417512401 0.087849233861 0.086157779731 0.084404372729 0.082600277651 0.080668590598 
0.078446719996 0.075775259158 0.072606030826 0.069030225928 0.065248239785 0.061523588697 0.058125455119 0.055260732648 0.053045105182 
0.051531601937 0.05073594715 0.050635177765 0.051152610801 0.052151069321 0.053450783971 0.054858881244 0.056192159959 0.057288248086 
0.058006870598 0.05822531051 0.05783353523 0.056734475235 0.054852448339 0.052148008668 0.048633184108 0.044379986848 0.039518035394 
0.034222204611 0.028695218449 0.023150971468 0.017802289967 0.012853520512 0.0084957324285 0.0049016628046 0.0022187790918 0.00056086837168 
5.5511998251e-17 
