# vtk DataFile Version 5.1
vtk output
ASCII
DATASET POLYDATA
POINTS 100 float
0.189156 0.057573 0.681649 0.189136 0.0577905 0.681336 0.189122 0.0583421 0.680303 
0.189042 0.0591887 0.67856 0.188791 0.0602708 0.676123 0.188238 0.0615139 0.673014 
0.187244 0.0628368 0.669266 0.185682 0.0641586 0.664916 0.183448 0.065407 0.660006 
0.180478 0.0665236 0.654586 0.176752 0.0674687 0.648703 0.172298 0.0682224 0.642404 
0.167186 0.0687838 0.635731 0.161518 0.0691679 0.628713 0.155419 0.0694009 0.621368 
0.149015 0.0695139 0.613699 0.142421 0.0695374 0.605691 0.135729 0.0694954 0.597315 
0.128993 0.0694022 0.588528 0.122231 0.0692596 0.579282 0.115419 0.0690574 0.569522 
0.108501 0.0687754 0.559201 0.101398 0.0683873 0.548282 0.0940223 0.0678652 0.536745 
0.0862874 0.0671851 0.524591 0.0781256 0.0663316 0.511846 0.0694966 0.0653018 0.498559 
0.0603944 0.0641076 0.484799 0.0508493 0.062776 0.47065 0.0409251 0.0613473 0.456201 
0.0307127 0.0598726 0.44154 0.0203195 0.0584092 0.42674 0.00985848 0.0570155 0.411852 
-0.000563538 0.0557467 0.396899 -0.0108553 0.0546505 0.381866 -0.0209478 0.0537642 0.366703 
-0.0307971 0.0531135 0.351327 -0.0403827 0.0527125 0.335622 -0.0497027 0.0525653 0.319455 
-0.0587652 0.0526688 0.302681 -0.0675795 0.053015 0.28516 -0.0761454 0.0535948 0.266767 
-0.0844451 0.0543997 0.247404 -0.0924374 0.0554231 0.22701 -0.100055 0.0566603 0.205568 
-0.107208 0.0581074 0.183104 -0.113784 0.0597584 0.159693 -0.119663 0.0616023 0.135446 
-0.124724 0.0636201 0.11051 -0.128855 0.065782 0.0850528 -0.131967 0.0680457 0.0592524 
-0.133997 0.0703566 0.0332876 -0.134918 0.0726492 0.00732584 -0.134738 0.0748508 -0.0184847 
-0.1335 0.0768862 -0.0440216 -0.131276 0.0786838 -0.0691913 -0.128162 0.0801817 -0.0939294 
-0.124269 0.0813335 -0.118198 -0.119712 0.0821125 -0.141983 -0.114609 0.0825148 -0.165286 
-0.109068 0.0825593 -0.188117 -0.103188 0.082286 -0.210492 -0.0970558 0.0817512 -0.232423 
-0.0907474 0.0810215 -0.253918 -0.0843271 0.0801662 -0.274974 -0.0778514 0.0792495 -0.295578 
-0.0713699 0.0783228 -0.315711 -0.0649267 0.0774193 -0.335344 -0.0585597 0.0765492 -0.354446 
-0.0522995 0.075699 -0.372987 -0.0461668 0.0748319 -0.390939 -0.0401698 0.0738925 -0.40828 
-0.0343018 0.072812 -0.424997 -0.0285403 0.071516 -0.441088 -0.0228477 0.0699323 -0.456557 
-0.0171749 0.0679993 -0.47142 -0.0114669 0.0656722 -0.485696 -0.00567104 0.0629287 -0.49941 
0.000253996 0.0597716 -0.512588 0.00632842 0.0562295 -0.525255 0.0125429 0.052355 -0.537431 
0.0188528 0.0482207 -0.549132 0.0251753 0.0439135 -0.560368 0.0313922 0.0395289 -0.571138 
0.0373564 0.0351634 -0.581438 0.0429032 0.0309091 -0.591255 0.0478654 0.0268476 -0.600572 
0.05209 0.0230467 -0.609363 0.055455 0.0195575 -0.617604 0.057885 0.0164137 -0.625263 
0.0593622 0.0136325 -0.632313 0.0599322 0.0112161 -0.63872 0.0597037 0.00915482 -0.644457 
0.058841 0.0074301 -0.649493 0.0575503 0.00601808 -0.653804 0.0560612 0.00489289 -0.657365 
0.0546045 0.00402959 -0.660156 0.0533901 0.00340664 -0.662162 0.0525855 0.00300784 -0.663369 
0.0522991 0.00282359 -0.66377 
LINES 2 100
OFFSETS vtktypeint64
0 100 
CONNECTIVITY vtktypeint64
0 1 2 3 4 5 6 7 8 
9 10 11 12 13 14 15 16 17 
18 19 20 21 22 23 24 25 26 
27 28 29 30 31 32 33 34 35 
36 37 38 39 40 41 42 43 44 
45 46 47 48 49 50 51 52 53 
54 55 56 57 58 59 60 61 62 
63 64 65 66 67 68 69 70 71 
72 73 74 75 76 77 78 79 80 
81 82 83 84 85 86 87 88 89 
90 91 92 93 94 95 96 97 98 
99 
POINT_DATA 100
FIELD FieldData 3
_theta 1 100 double
0 0.031733259127 0.063466518254 0.095199777382 0.12693303651 0.15866629564 0.19039955476 0.22213281389 0.25386607302 
0.28559933214 0.31733259127 0.3490658504 0.38079910953 0.41253236865 0.44426562778 0.47599888691 0.50773214603 0.53946540516 
0.57119866429 0.60293192342 0.63466518254 0.66639844167 0.6981317008 0.72986495992 0.76159821905 0.79333147818 0.82506473731 
0.85679799643 0.88853125556 0.92026451469 0.95199777382 0.98373103294 1.0154642921 1.0471975512 1.0789308103 1.1106640695 
1.1423973286 1.1741305877 1.2058638468 1.237597106 1.2693303651 1.3010636242 1.3327968833 1.3645301425 1.3962634016 
1.4279966607 1.4597299198 1.491463179 1.5231964381 1.5549296972 1.5866629564 1.6183962155 1.6501294746 1.6818627337 
1.7135959929 1.745329252 1.7770625111 1.8087957702 1.8405290294 1.8722622885 1.9039955476 1.9357288068 1.9674620659 
1.999195325 2.0309285841 2.0626618433 2.0943951024 2.1261283615 2.1578616206 2.1895948798 2.2213281389 2.253061398 
2.2847946572 2.3165279163 2.3482611754 2.3799944345 2.4117276937 2.4434609528 2.4751942119 2.506927471 2.5386607302 
2.5703939893 2.6021272484 2.6338605076 2.6655937667 2.6973270258 2.7290602849 2.7607935441 2.7925268032 2.8242600623 
2.8559933214 2.8877265806 2.9194598397 2.9511930988 2.982926358 3.0146596171 3.0463928762 3.0781261353 3.1098593945 
3.1415926536 
_radius 1 100 double
4.9183005298e-16 0.01344591574 0.026697208829 0.03957677407 0.051941838532 0.063694829916 0.074787624264 0.085218705433 0.095023956757 
0.10426283947 0.11300231107 0.12130086837 0.12919474362 0.13668791761 0.14374742591 0.15030515239 0.15626648915 0.16152488146 
0.16597994793 0.1695561927 0.17221942623 0.17398854305 0.17494092548 0.17521038832 0.17497736238 0.17445198761 0.1738518869 
0.1733774559 0.17318821853 0.17338375928 0.17399181872 0.17496475101 0.1761843685 0.17747455679 0.17862067466 0.17939420116 
0.17958021037 0.17900438463 0.17755595487 0.17520345163 0.17200129705 0.16808664381 0.1636670617 0.15900046375 0.15436911856 
0.15005006943 0.14628520046 0.14325551561 0.14106493461 0.13973755471 0.13922847803 0.1394437383 0.140262271 0.14155362763 
0.14318870036 0.14504525494 0.14701263991 0.14899834792 0.15093488386 0.15278323073 0.15453066389 0.15618331784 0.15775555186 
0.15925867086 0.16069151311 0.16203496898 0.16325157505 0.16429008139 0.16509367337 0.16560969373 0.16579847521 0.16563929563 
0.16513235562 0.16429678162 0.16316566385 0.16177973044 0.16018117479 0.15840838578 0.15649127276 0.15444618208 0.15226959712 
0.14993098062 0.14736675291 0.14447852371 0.14113834169 0.13720167294 0.13252595094 0.12699034588 0.12051196735 0.11305506546 
0.10463207687 0.095297551344 0.085137453996 0.074256881315 0.062768938126 0.050786619653 0.038418347318 0.025766700516 0.012929210709 
5.207597069e-16 
_area 1 100 double
0 0.00036229907088 0.0014306638299 0.003152374969 0.0054484934971 0.0082249722386 0.011384185091 0.014834609431 0.018497881942 
0.022313490545 0.026241120975 0.030259818386 0.034362457076 0.038543951408 0.042784237634 0.047034159438 0.05121517335 0.055233329068 
0.058998094347 0.062437887748 0.065508821118 0.068195703431 0.070506818752 0.072468616093 0.074126840321 0.07555109016 0.076833787865 
0.07808016546 0.079392382434 0.080852435586 0.08250746694 0.084358657748 0.086352754552 0.088377108891 0.090262748014 0.091799770222 
0.092765138795 0.092957887459 0.092234426733 0.090538072215 0.087917678356 0.084529414777 0.080618075567 0.076480270498 0.072417119623 
0.068686785599 0.065468291113 0.062845990181 0.060816196433 0.059308900121 0.058214491848 0.057408800078 0.056775294849 0.056225451582 
0.055734360391 0.055516592347 0.055822343903 0.056542606084 0.057280782423 0.057719307649 0.057766542961 0.05741750826 0.056726767983 
0.055784048681 0.054693254184 0.05355814036 0.052478811675 0.051548676407 0.050780856656 0.050084585635 0.049382201134 0.048642386873 
0.04787178885 0.047101657621 0.04637126553 0.0457112815 0.045134386851 0.044672409238 0.04423685723 0.043820817356 0.043503213745 
0.043288032608 0.043097292519 0.042804673662 0.042243789 0.041235597043 0.039627293528 0.037328071509 0.034330761522 0.030714918666 
0.026633019083 0.022285386492 0.017891215161 0.013662702798 0.0097871717731 0.0064188133402 0.0036783237412 0.0016564498877 0.00041738694142 
4.6078592331e-19 
