# vtk DataFile Version 5.1
vtk output
ASCII
DATASET POLYDATA
POINTS 100 float
0.192152 0.0425494 0.715982 0.192249 0.0428461 0.715739 0.192544 0.0436078 0.714936 
0.192954 0.0447963 0.713595 0.193351 0.0463516 0.711745 0.193578 0.0481964 0.709417 
0.193466 0.0502415 0.706636 0.192855 0.0523922 0.70341 0.191609 0.0545545 0.699729 
0.189635 0.0566418 0.695558 0.186885 0.0585794 0.690839 0.183363 0.0603088 0.685501 
0.179123 0.0617902 0.679459 0.174254 0.0630025 0.672636 0.168871 0.0639426 0.664969 
0.163095 0.0646228 0.656421 0.157041 0.0650666 0.646992 0.150799 0.0653043 0.636723 
0.144425 0.0653686 0.625693 0.137937 0.0652895 0.614019 0.131315 0.0650912 0.60184 
0.124506 0.0647893 0.589306 0.117433 0.0643903 0.57656 0.110015 0.0638915 0.563726 
0.102175 0.0632836 0.550892 0.0938583 0.0625539 0.538099 0.0850403 0.0616896 0.525342 
0.0757366 0.0606831 0.512567 0.0660021 0.0595348 0.499678 0.0559279 0.0582575 0.486554 
0.0456322 0.0568771 0.473059 0.035248 0.0554337 0.45906 0.0249092 0.0539802 0.444443 
0.0147359 0.0525789 0.429127 0.00482231 0.0512975 0.413066 -0.00477136 0.0502037 0.396257 
-0.0140231 0.0493595 0.378733 -0.0229473 0.0488158 0.360558 -0.0315884 0.0486079 0.341808 
-0.0400101 0.0487521 0.322564 -0.0482818 0.0492441 0.302895 -0.0564646 0.05006 0.282848 
-0.0645975 0.0511577 0.262442 -0.0726872 0.0524818 0.241661 -0.0807011 0.0539683 0.220467 
-0.0885659 0.0555506 0.1988 -0.0961712 0.0571657 0.176596 -0.103377 0.0587594 0.153796 
-0.110028 0.0602904 0.130365 -0.115962 0.0617331 0.106302 -0.121031 0.0630784 0.0816422 
-0.12511 0.0643321 0.0564655 -0.12811 0.0655131 0.0308877 -0.12998 0.0666486 0.00505239 
-0.130715 0.0677694 -0.0208832 -0.130351 0.0689055 -0.0467639 -0.128957 0.0700807 -0.0724531 
-0.126631 0.07131 -0.0978465 -0.123482 0.0725963 -0.122881 -0.119626 0.0739303 -0.147541 
-0.115171 0.0752907 -0.171851 -0.110214 0.0766465 -0.195871 -0.104833 0.0779602 -0.219684 
-0.099086 0.0791906 -0.243374 -0.0930143 0.0802967 -0.267011 -0.0866454 0.0812411 -0.290637 
-0.0799989 0.0819913 -0.314252 -0.0730935 0.0825219 -0.337805 -0.0659523 0.0828138 -0.361199 
-0.0586083 0.0828539 -0.384296 -0.0511072 0.0826331 -0.406929 -0.0435077 0.0821447 -0.428919 
-0.0358812 0.0813822 -0.450096 -0.028308 0.0803383 -0.470314 -0.0208732 0.0790044 -0.489471 
-0.0136626 0.0773714 -0.507514 -0.00675722 0.0754313 -0.524443 -0.000230425 0.0731796 -0.540311 
0.00585514 0.0706192 -0.555208 0.0114487 0.067763 -0.569252 0.0165111 0.0646371 -0.582563 
0.0210144 0.0612826 -0.595253 0.02494 0.0577561 -0.607403 0.0282771 0.0541284 -0.619053 
0.0310225 0.0504816 -0.630199 0.0331792 0.0469043 -0.64079 0.0347581 0.0434862 -0.650739 
0.035779 0.0403112 -0.659936 0.0362726 0.0374508 -0.668266 0.0362823 0.034959 -0.675624 
0.0358662 0.0328673 -0.681938 0.0350972 0.0311833 -0.687177 0.0340621 0.0298898 -0.691362 
0.032859 0.0289483 -0.694561 0.0315928 0.0283031 -0.696889 0.0303695 0.0278883 -0.698489 
0.0292894 0.027635 -0.699518 0.0284402 0.0274798 -0.700126 0.0278903 0.0273715 -0.700436 
0.0276835 0.0272774 -0.700529 
LINES 2 100
OFFSETS vtktypeint64
0 100 
CONNECTIVITY vtktypeint64
0 1 2 3 4 5 6 7 8 
9 10 11 12 13 14 15 16 17 
18 19 20 21 22 23 24 25 26 
27 28 29 30 31 32 33 34 35 
36 37 38 39 40 41 42 43 44 
45 46 47 48 49 50 51 52 53 
54 55 56 57 58 59 60 61 62 
63 64 65 66 67 68 69 70 71 
72 73 74 75 76 77 78 79 80 
81 82 83 84 85 86 87 88 89 
90 91 92 93 94 95 96 97 98 
99 
POINT_DATA 100
FIELD FieldData 3
_theta 1 100 double
0 0.031733259127 0.063466518254 0.095199777382 0.12693303651 0.15866629564 0.19039955476 0.22213281389 0.25386607302 
0.28559933214 0.31733259127 0.3490658504 0.38079910953 0.41253236865 0.44426562778 0.47599888691 0.50773214603 0.53946540516 
0.57119866429 0.60293192342 0.63466518254 0.66639844167 0.6981317008 0.72986495992 0.76159821905 0.79333147818 0.82506473731 
0.85679799643 0.88853125556 0.92026451469 0.95199777382 0.98373103294 1.0154642921 1.0471975512 1.0789308103 1.1106640695 
1.1423973286 1.1741305877 1.2058638468 1.237597106 1.2693303651 1.3010636242 1.3327968833 1.3645301425 1.3962634016 
1.4279966607 1.4597299198 1.491463179 1.5231964381 1.5549296972 1.5866629564 1.6183962155 1.6501294746 1.6818627337 
1.7135959929 1.745329252 1.7770625111 1.8087957702 1.8405290294 1.8722622885 1.9039955476 1.9357288068 1.9674620659 
1.999195325 2.0309285841 2.0626618433 2.0943951024 2.1261283615 2.1578616206 2.1895948798 2.2213281389 2.253061398 
2.2847946572 2.3165279163 2.3482611754 2.3799944345 2.4117276937 2.4434609528 2.4751942119 2.506927471 2.5386607302 
2.5703939893 2.6021272484 2.6338605076 2.6655937667 2.6973270258 2.7290602849 2.7607935441 2.7925268032 2.8242600623 
2.8559933214 2.8877265806 2.9194598397 2.9511930988 2.982926358 3.0146596171 3.0463928762 3.0781261353 3.1098593945 
3.1415926536 
_radius 1 100 double
1.3626404733e-15 0.015240326795 0.030365070697 0.045265350243 0.059841802572 0.07400674751 0.087684214395 0.1008084263 0.11332193416 
0.12517473479 0.13632523276 0.14674293978 0.1564117449 0.16533193899 0.1735193002 0.18100050628 0.18780566554 0.19396028618 
0.19947976714 0.20436886291 0.2086266521 0.21225533258 0.21526983562 0.21770523636 0.21961990966 0.2210937378 0.22222192175 
0.2231057908 0.22384234376 0.22451413806 0.22518072975 0.22587238044 0.22658638265 0.22728619755 0.22790357691 0.22834378677 
0.22849382275 0.22823310679 0.22744572664 0.22603301636 0.22392528398 0.2210917245 0.21754784498 0.21335989101 0.20864571806 
0.20357136443 0.19834246272 0.19318986393 0.18834972956 0.18403995789 0.18043674768 0.17765631803 0.17574610573 0.17468690392 
0.17440374912 0.17478103187 0.17567748193 0.17693878904 0.17840803101 0.17993532945 0.18138778679 0.18265940835 0.18367946058 
0.18441728754 0.18488209694 0.18511736353 0.18519089883 0.18518278425 0.18517360123 0.1852345236 0.18541969358 0.18576074305 
0.18626316783 0.18690412892 0.18763135449 0.18836342038 0.18899241376 0.18938996547 0.1894165046 0.18893211252 0.18780667793 
0.18592754206 0.18320392885 0.17956843157 0.17497628629 0.16940315407 0.16284193045 0.15529895262 0.14678998884 0.13733654804 
0.12696322881 0.11569687678 0.1035680989 0.090615156642 0.076889554445 0.062462005191 0.047427145749 0.031905523292 0.016041934442 
5.5879522114e-16 
_area 1 100 double
0 0.00045611316531 0.0018235110864 0.0040974391312 0.0072641170277 0.011293638291 0.016132410678 0.021696374634 0.027866364394 
0.034487390666 0.041373970469 0.048323321691 0.055136711282 0.061646487911 0.067743093078 0.073393821287 0.078644575402 0.083598793334 
0.088375800455 0.093063315023 0.097686645799 0.10220899318 0.10655877305 0.11066724261 0.11449889258 0.11806420591 0.12141347158 
0.12461728803 0.12774284416 0.13083460162 0.13390400468 0.13692790287 0.13985250748 0.14259945758 0.14507156832 0.14715616356 
0.14872129771 0.14961100184 0.14966715377 0.14876534878 0.14683514279 0.1438668803 0.13991465634 0.13509853814 0.12960401641 
0.12367322 0.1175823442 0.1116051385 0.10597128637 0.10083538115 0.096271093306 0.092292825276 0.088900937776 0.08624967727 
0.08429438475 0.082716711775 0.081371285746 0.080156418985 0.078997121219 0.077811393053 0.076481534301 0.074898673486 0.073010647006 
0.070822837056 0.068411042732 0.065928992915 0.063570269201 0.061507949913 0.059862116669 0.058701803321 0.058058189243 0.057931107496 
0.058285151347 0.059051360845 0.060145731316 0.061469596353 0.062928108133 0.06444480205 0.065924699186 0.067330557641 0.068533992244 
0.069301594234 0.069411619811 0.068711016641 0.067101887314 0.064535381008 0.061012965859 0.056588709059 0.051369381267 0.045510930833 
0.039211081477 0.03269859467 0.026220092587 0.020025492773 0.014353312893 0.0094173910647 0.0053966937558 0.0024294758689 0.00061193320546 
2.6675163507e-17 
