# vtk DataFile Version 5.1
vtk output
ASCII
DATASET POLYDATA
POINTS 100 float
0.0942655 0.0503789 0.643773 0.0942001 0.0505778 0.643622 0.0940784 0.0510393 0.643024 
0.0938961 0.0517346 0.641979 0.0936451 0.0526197 0.64049 0.0933137 0.0536398 0.638558 
0.0928862 0.0547339 0.636183 0.0923433 0.0558406 0.633362 0.0916615 0.0569031 0.630087 
0.0908144 0.0578728 0.626344 0.0897723 0.0587123 0.622115 0.0885037 0.0593964 0.617376 
0.0869756 0.0599114 0.612103 0.0851551 0.0602534 0.606268 0.0830103 0.0604254 0.599848 
0.0805117 0.0604343 0.592824 0.077633 0.0602878 0.585185 0.0743523 0.059992 0.57693 
0.0706531 0.0595504 0.568069 0.0665247 0.0589634 0.558625 0.061963 0.0582302 0.548629 
0.0569705 0.0573501 0.538125 0.0515568 0.0563263 0.52716 0.0457382 0.0551678 0.515786 
0.0395377 0.0538924 0.504053 0.0329845 0.052528 0.492007 0.0261133 0.0511126 0.479686 
0.0189635 0.0496929 0.467117 0.011578 0.0483216 0.454314 0.00400156 0.0470534 0.441277 
-0.00372019 0.0459403 0.427994 -0.0115431 0.045027 0.414438 -0.0194257 0.0443467 0.400572 
-0.0273312 0.0439182 0.386349 -0.0352284 0.0437445 0.371718 -0.0430922 0.0438134 0.356623 
-0.0509036 0.0440998 0.341009 -0.0586489 0.0445698 0.324822 -0.0663175 0.0451858 0.308014 
-0.0738996 0.0459122 0.290545 -0.0813822 0.0467205 0.272379 -0.088746 0.0475939 0.253496 
-0.095961 0.0485297 0.233882 -0.102983 0.0495402 0.213538 -0.109753 0.0506514 0.192474 
-0.116193 0.0518988 0.170716 -0.122208 0.053323 0.148299 -0.127689 0.0549629 0.125272 
-0.132516 0.0568498 0.101692 -0.136564 0.0590011 0.0776263 -0.139713 0.0614162 0.0531507 
-0.141852 0.0640739 0.0283449 -0.142889 0.0669317 0.00329172 -0.142758 0.0699284 -0.0219256 
-0.141426 0.0729883 -0.0472257 -0.138896 0.0760264 -0.0725315 -0.135207 0.0789559 -0.0977715 
-0.130435 0.0816945 -0.122881 -0.124685 0.0841711 -0.147802 -0.118088 0.0863301 -0.172485 
-0.110789 0.0881349 -0.196883 -0.102938 0.0895681 -0.220957 -0.0946811 0.0906303 -0.244668 
-0.0861494 0.0913369 -0.26798 -0.0774533 0.0917133 -0.290857 -0.0686768 0.0917896 -0.313262 
-0.0598755 0.091595 -0.335155 -0.0510779 0.0911537 -0.3565 -0.0422897 0.0904812 -0.377259 
-0.0335 0.0895827 -0.397395 -0.0246896 0.0884537 -0.41688 -0.0158402 0.0870815 -0.43569 
-0.00694263 0.0854487 -0.453809 0.00199576 0.0835376 -0.471232 0.0109457 0.0813341 -0.487963 
0.0198536 0.0788324 -0.504016 0.0286421 0.0760375 -0.519411 0.0372138 0.0729677 -0.534175 
0.0454566 0.0696542 -0.548333 0.0532523 0.0661404 -0.561913 0.0604852 0.0624791 -0.574934 
0.0670512 0.058729 -0.58741 0.0728658 0.0549506 -0.599341 0.077871 0.0512026 -0.610721 
0.082039 0.047538 -0.621529 0.0853741 0.044002 -0.63174 0.0879115 0.0406305 -0.641317 
0.0897137 0.0374497 -0.650226 0.0908652 0.0344774 -0.658431 0.0914658 0.0317243 -0.6659 
0.0916238 0.0291966 -0.672612 0.0914482 0.0268979 -0.678553 0.0910438 0.0248315 -0.683722 
0.0905056 0.0230021 -0.688128 0.0899161 0.0214159 -0.69179 0.0893434 0.0200813 -0.694732 
0.0888414 0.0190079 -0.696982 0.08845 0.0182055 -0.698566 0.0881965 0.0176826 -0.699506 
0.088097 0.0174459 -0.699818 
LINES 2 100
OFFSETS vtktypeint64
0 100 
CONNECTIVITY vtktypeint64
0 1 2 3 4 5 6 7 8 
9 10 11 12 13 14 15 16 17 
18 19 20 21 22 23 24 25 26 
27 28 29 30 31 32 33 34 35 
36 37 38 39 40 41 42 43 44 
45 46 47 48 49 50 51 52 53 
54 55 56 57 58 59 60 61 62 
63 64 65 66 67 68 69 70 71 
72 73 74 75 76 77 78 79 80 
81 82 83 84 85 86 87 88 89 
90 91 92 93 94 95 96 97 98 
99 
POINT_DATA 100
FIELD FieldData 3
_theta 1 100 double
0 0.031733259127 0.063466518254 0.095199777382 0.12693303651 0.15866629564 0.19039955476 0.22213281389 0.25386607302 
0.28559933214 0.31733259127 0.3490658504 0.38079910953 0.41253236865 0.44426562778 0.47599888691 0.50773214603 0.53946540516 
0.57119866429 0.60293192342 0.63466518254 0.66639844167 0.6981317008 0.72986495992 0.76159821905 0.79333147818 0.82506473731 
0.85679799643 0.88853125556 0.92026451469 0.95199777382 0.98373103294 1.0154642921 1.0471975512 1.0789308103 1.1106640695 
1.1423973286 1.1741305877 1.2058638468 1.237597106 1.2693303651 1.3010636242 1.3327968833 1.3645301425 1.3962634016 
1.4279966607 1.4597299198 1.491463179 1.5231964381 1.5549296972 1.5866629564 1.6183962155 1.6501294746 1.6818627337 
1.7135959929 1.745329252 1.7770625111 1.8087957702 1.8405290294 1.8722622885 1.9039955476 1.9357288068 1.9674620659 
1.999195325 2.0309285841 2.0626618433 2.0943951024 2.1261283615 2.1578616206 2.1895948798 2.2213281389 2.253061398 
2.2847946572 2.3165279163 2.3482611754 2.3799944345 2.4117276937 2.4434609528 2.4751942119 2.506927471 2.5386607302 
2.5703939893 2.6021272484 2.6338605076 2.6655937667 2.6973270258 2.7290602849 2.7607935441 2.7925268032 2.8242600623 
2.8559933214 2.8877265806 2.9194598397 2.9511930988 2.982926358 3.0146596171 3.0463928762 3.0781261353 3.1098593945 
3.1415926536 
_radius 1 100 double
5.5532831041e-16 0.014880488824 0.029709110719 0.044431558024 0.05899467458 0.073346479254 0.087435614082 0.10121037145 0.1146176108 
0.12760195694 0.14010566656 0.15206945776 0.16343442696 0.17414494659 0.18415218792 0.19341772115 0.20191658893 0.20963935633 
0.2165928537 0.2227995518 0.22829566984 0.23312820763 0.23735115177 0.24102117212 0.24419319866 0.24691631042 0.24923033019 
0.25116339875 0.25273064995 0.2539339951 0.25476297955 0.25519665793 0.25520638883 0.25475937687 0.25382274172 0.25236789055 
0.25037496596 0.24783708493 0.24476398647 0.24118463487 0.237148349 0.23272416531 0.22799835995 0.22307030206 0.21804704445 
0.2130372578 0.20814524755 0.20346580956 0.19908053648 0.19505589739 0.19144306563 0.18827916346 0.18558936696 0.18338913868 
0.18168571995 0.18047803991 0.17975460537 0.17948982816 0.17964033782 0.18014344835 0.18091950714 0.18187839425 0.18292871942 
0.18398721206 0.18498587578 0.18587546496 0.18662514251 0.1872192493 0.18765266753 0.18792623487 0.18804317422 0.18800678572 
0.18781901822 0.1874792569 0.18698280542 0.18631894782 0.18546887122 0.18440388345 0.18308421785 0.18145843568 0.17946328332 
0.17702401518 0.17405555999 0.17046514576 0.16615681987 0.16103774172 0.15502551312 0.14805545848 0.14008675928 0.13110659084 
0.12113177132 0.11020782066 0.098405690061 0.085816725948 0.072546648029 0.058709424857 0.04442190436 0.029799895264 0.014956109236 
5.9297972792e-16 
_area 1 100 double
0 0.00053508167189 0.0021214190048 0.0047048499623 0.0082033764429 0.012518443107 0.017547898186 0.023197200568 0.029385192469 
0.036042512683 0.043104007117 0.050499350937 0.058146920026 0.06595446653 0.073826721765 0.081675602431 0.089425764024 0.097010365668 
0.10435960537 0.11139183748 0.11801650084 0.1241504226 0.12974126742 0.13478789595 0.13934694708 0.14351812187 0.14740951927 
0.15109805265 0.15460622074 0.15790381613 0.16092466412 0.16358374088 0.16578699535 0.16743402328 0.16841831875 0.16863098747 
0.16797125671 0.16636235241 0.16376810692 0.16020587288 0.15575319493 0.1505470709 0.14477520019 0.13865918811 0.13243102432 
0.12630637824 0.1204604692 0.11501304033 0.11002743323 0.10552510614 0.10150857034 0.097961467312 0.094811325482 0.091948473024 
0.08928671243 0.086782880707 0.084429629455 0.082253568663 0.080308158182 0.078661843221 0.077377184529 0.07646961946 0.075878893143 
0.075486308201 0.07515234979 0.074748440635 0.074177193803 0.073383965461 0.072372202002 0.071235057284 0.07000557528 0.068671482599 
0.067273075213 0.065884160021 0.064584281621 0.063440373105 0.062516421485 0.061913743575 0.061518022485 0.061276842585 0.061137479602 
0.061002009429 0.060711491977 0.060067175631 0.058872789564 0.056968701366 0.054253252524 0.050695140803 0.046338009431 0.041297220631 
0.035749467579 0.029916747575 0.024046811053 0.01839258543 0.01319322443 0.0086591546548 0.0049626369056 0.0022340464371 0.00056269050849 
9.364638675e-18 
