# vtk DataFile Version 5.1
vtk output
ASCII
DATASET POLYDATA
POINTS 100 float
0.161328 0.0477787 0.660575 0.16126 0.0478995 0.660529 0.161107 0.0481201 0.660216 
0.160869 0.0484543 0.659577 0.160541 0.0489233 0.658521 0.160116 0.0495506 0.656939 
0.159578 0.0503563 0.654713 0.158905 0.0513512 0.651731 0.158063 0.0525314 0.647902 
0.157007 0.0538747 0.643163 0.155681 0.0553383 0.63749 0.154019 0.0568596 0.630901 
0.151952 0.058359 0.623451 0.149403 0.0597456 0.615231 0.146303 0.0609238 0.606356 
0.142589 0.0618017 0.596955 0.138212 0.0622992 0.587156 0.133145 0.0623555 0.577078 
0.127381 0.0619353 0.566815 0.120941 0.0610322 0.556434 0.11387 0.0596703 0.545968 
0.10624 0.0579023 0.535416 0.0981388 0.0558058 0.52475 0.0896688 0.0534768 0.513918 
0.0809369 0.0510225 0.502857 0.0720463 0.0485527 0.4915 0.0630877 0.046172 0.479786 
0.0541314 0.0439727 0.467668 0.0452221 0.042029 0.45512 0.0363751 0.0403935 0.442133 
0.0275767 0.0390959 0.428721 0.0187869 0.0381441 0.414909 0.00994649 0.037526 0.400733 
0.000985373 0.0372146 0.386225 -0.00816604 0.0371722 0.371409 -0.0175654 0.0373565 0.356293 
-0.0272471 0.0377251 0.340861 -0.0372129 0.0382406 0.325074 -0.047425 0.0388736 0.308867 
-0.0578029 0.0396048 0.292158 -0.0682245 0.0404265 0.274849 -0.078531 0.0413416 0.256842 
-0.0885366 0.0423628 0.238044 -0.0980396 0.0435101 0.218378 -0.106837 0.0448083 0.197795 
-0.11474 0.0462838 0.176277 -0.121586 0.047962 0.153846 -0.127249 0.049864 0.130559 
-0.131653 0.0520045 0.106508 -0.13477 0.054389 0.0818121 -0.136621 0.0570124 0.0566129 
-0.137274 0.0598576 0.0310607 -0.136831 0.0628948 0.00530582 -0.135419 0.0660813 -0.0205106 
-0.133175 0.0693623 -0.046265 -0.130235 0.0726719 -0.0718568 -0.12672 0.0759353 -0.0972108 
-0.12273 0.0790718 -0.122277 -0.118333 0.0819979 -0.14703 -0.113567 0.0846315 -0.171459 
-0.108441 0.086896 -0.195568 -0.102939 0.0887244 -0.219363 -0.0970281 0.0900628 -0.24285 
-0.0906672 0.0908736 -0.266027 -0.0838175 0.0911373 -0.28888 -0.0764502 0.0908529 -0.311385 
-0.0685528 0.0900368 -0.333501 -0.0601337 0.0887207 -0.355181 -0.051223 0.0869481 -0.376367 
-0.0418709 0.0847698 -0.397 -0.0321434 0.082239 -0.417024 -0.0221175 0.079407 -0.436386 
-0.0118742 0.076319 -0.455047 -0.00149346 0.0730116 -0.472975 0.00895081 0.0695112 -0.490152 
0.0193931 0.0658349 -0.50657 0.0297767 0.0619923 -0.522229 0.0400524 0.0579886 -0.537134 
0.0501744 0.0538298 -0.551291 0.0600963 0.0495268 -0.564703 0.0697666 0.0450996 -0.577366 
0.0791242 0.0405812 -0.589273 0.0880969 0.0360189 -0.600404 0.0966014 0.0314746 -0.610735 
0.104546 0.0270218 -0.62024 0.111836 0.0227423 -0.628891 0.118381 0.0187195 -0.636663 
0.124103 0.0150325 -0.643543 0.128949 0.0117486 -0.649529 0.132892 0.00891711 -0.654639 
0.135944 0.00656455 -0.658905 0.138153 0.00469192 -0.662382 0.139606 0.0032744 -0.665139 
0.14042 0.0022638 -0.667259 0.140739 0.00159362 -0.668835 0.140714 0.00118599 -0.669959 
0.140499 0.000960074 -0.670722 0.140229 0.0008408 -0.671199 0.140015 0.000767134 -0.671452 
0.139924 0.000698819 -0.671519 
LINES 2 100
OFFSETS vtktypeint64
0 100 
CONNECTIVITY vtktypeint64
0 1 2 3 4 5 6 7 8 
9 10 11 12 13 14 15 16 17 
18 19 20 21 22 23 24 25 26 
27 28 29 30 31 32 33 34 35 
36 37 38 39 40 41 42 43 44 
45 46 47 48 49 50 51 52 53 
54 55 56 57 58 59 60 61 62 
63 64 65 66 67 68 69 70 71 
72 73 74 75 76 77 78 79 80 
81 82 83 84 85 86 87 88 89 
90 91 92 93 94 95 96 97 98 
99 
POINT_DATA 100
FIELD FieldData 3
_theta 1 100 double
0 0.031733259127 0.063466518254 0.095199777382 0.12693303651 0.15866629564 0.19039955476 0.22213281389 0.25386607302 
0.28559933214 0.31733259127 0.3490658504 0.38079910953 0.41253236865 0.44426562778 0.47599888691 0.50773214603 0.53946540516 
0.57119866429 0.60293192342 0.63466518254 0.66639844167 0.6981317008 0.72986495992 0.76159821905 0.79333147818 0.82506473731 
0.85679799643 0.88853125556 0.92026451469 0.95199777382 0.98373103294 1.0154642921 1.0471975512 1.0789308103 1.1106640695 
1.1423973286 1.1741305877 1.2058638468 1.237597106 1.2693303651 1.3010636242 1.3327968833 1.3645301425 1.3962634016 
1.4279966607 1.4597299198 1.491463179 1.5231964381 1.5549296972 1.5866629564 1.6183962155 1.6501294746 1.6818627337 
1.7135959929 1.745329252 1.7770625111 1.8087957702 1.8405290294 1.8722622885 1.9039955476 1.9357288068 1.9674620659 
1.999195325 2.0309285841 2.0626618433 2.0943951024 2.1261283615 2.1578616206 2.1895948798 2.2213281389 2.253061398 
2.2847946572 2.3165279163 2.3482611754 2.3799944345 2.4117276937 2.4434609528 2.4751942119 2.506927471 2.5386607302 
2.5703939893 2.6021272484 2.6338605076 2.6655937667 2.6973270258 2.7290602849 2.7607935441 2.7925268032 2.8242600623 
2.8559933214 2.8877265806 2.9194598397 2.9511930988 2.982926358 3.0146596171 3.0463928762 3.0781261353 3.1098593945 
3.1415926536 
_radius 1 100 double
4.5612342874e-16 0.015469808042 0.030727992035 0.045581263783 0.059874431276 0.073502651022 0.086416646243 0.098620394953 0.11016193676 
0.12111890578 0.13158100988 0.14163189721 0.15133275783 0.16070973479 0.16974685342 0.17838568608 0.18653224497 0.19407058883 
0.20088146213 0.20686323622 0.21195178529 0.21613587938 0.21946521615 0.22204923036 0.22404616226 0.22564339216 0.22703160457 
0.2283766989 0.22979415107 0.23133035651 0.23295422597 0.23456032386 0.23598281033 0.23701789698 0.2374515934 0.23708909983 
0.2357821636 0.23345101108 0.23009808571 0.22581176155 0.2207594124 0.21517060136 0.20931256468 0.20346139973 0.19787318713 
0.19275940617 0.18827023433 0.18448771403 0.18142876631 0.1790562586 0.17729518505 0.17605051797 0.17522338554 0.17472299743 
0.1744731554 0.17441386077 0.17449979982 0.17469783715 0.17498502013 0.17534737681 0.17577869909 0.17627824475 0.1768469326 
0.17748255827 0.17817523921 0.17890449931 0.17963916942 0.18034067968 0.18096943825 0.18149303517 0.18189430798 0.18217711766 
0.18236804066 0.18251291466 0.18266806377 0.18288691084 0.18320349257 0.18361518417 0.18406771535 0.18444593569 0.18457319977 
0.18422064915 0.18312569536 0.181017344 0.17764493795 0.17280642094 0.16637226471 0.15830174905 0.14864929182 0.1375598625 
0.12525397333 0.11200411701 0.098105636242 0.083845736499 0.069474605983 0.055182350751 0.041084709829 0.027219369927 0.013553294494 
7.864348653e-16 
_area 1 100 double
0 0.00059181002182 0.0023339447122 0.0051313433084 0.0088409371136 0.013292149431 0.018310548224 0.023740171484 0.029460166855 
0.035392712724 0.041501395466 0.047781468919 0.054244730613 0.060901742865 0.067743501833 0.074724663281 0.081751754628 0.088681552098 
0.095334556235 0.10152445018 0.10709786119 0.11197310931 0.11616451029 0.11978165814 0.12300237679 0.12603100926 0.12905913473 
0.13223698677 0.13565266899 0.13931516351 0.14314235207 0.146958317 0.15050335017 0.15345848414 0.15548492119 0.1562751682 
0.1556073744 0.15339093715 0.14969148039 0.14472637397 0.13882871006 0.13238880102 0.12579276777 0.11937689745 0.11340302664 
0.1080479632 0.10339897092 0.099456626013 0.096158164643 0.093505851378 0.091568178113 0.089985041298 0.088343678233 0.086565561769 
0.084699585973 0.082881157649 0.081282184278 0.080042985204 0.079209783264 0.078724250042 0.078457649639 0.078244488544 0.077918908835 
0.077356981626 0.076501563348 0.075363465782 0.074007941599 0.072531231578 0.071029507101 0.069570713172 0.068189173561 0.06690784071 
0.065765185681 0.064829305609 0.064200306188 0.064000278687 0.064344151543 0.06529556285 0.0668274922 0.068803235791 0.070976602958 
0.073007078808 0.074492884567 0.075022706533 0.074238460439 0.071896318023 0.067912002251 0.062380068739 0.05556394453 0.047859677605 
0.039740512426 0.031692357096 0.024151854879 0.017458250671 0.011827160038 0.0073493726157 0.0040123994007 0.0017380822825 0.00042703695046 
2.8002857889e-17 
