# vtk DataFile Version 5.1
vtk output
ASCII
DATASET POLYDATA
POINTS 100 float
0.148769 0.0517992 0.68988 0.149038 0.0519425 0.689675 0.149934 0.0522183 0.688938 
0.151334 0.0526419 0.687687 0.153051 0.0532358 0.685951 0.15485 0.0540244 0.683759 
0.156479 0.0550268 0.681135 0.157694 0.0562506 0.678089 0.158287 0.0576861 0.674614 
0.158105 0.0593031 0.670679 0.157066 0.0610503 0.666233 0.155162 0.0628573 0.66121 
0.152456 0.0646405 0.655532 0.149068 0.06631 0.649123 0.145158 0.0677793 0.641919 
0.140902 0.0689737 0.633874 0.136466 0.0698392 0.624977 0.131988 0.070348 0.61525 
0.12756 0.0705018 0.60475 0.123217 0.0703315 0.593569 0.118941 0.069893 0.581824 
0.11466 0.0692609 0.569648 0.110268 0.0685188 0.557176 0.105638 0.0677494 0.544531 
0.100645 0.0670248 0.531817 0.0951821 0.0663981 0.519106 0.08918 0.0658977 0.506433 
0.0826138 0.0655247 0.4938 0.0755081 0.0652546 0.481175 0.0679328 0.065042 0.468503 
0.0599931 0.0648281 0.455712 0.0518142 0.0645501 0.44273 0.0435239 0.0641519 0.429489 
0.0352347 0.0635929 0.415935 0.0270289 0.0628556 0.402034 0.0189475 0.0619506 0.387769 
0.010987 0.0609172 0.373139 0.00310092 0.0598214 0.35815 -0.00479008 0.0587495 0.342806 
-0.0127839 0.0578004 0.327099 -0.0209789 0.057075 0.311002 -0.0294545 0.056666 0.29446 
-0.0382535 0.0566489 0.27739 -0.0473686 0.057074 0.259686 -0.0567341 0.0579615 0.241223 
-0.0662247 0.0593007 0.221873 -0.0756616 0.0610506 0.201518 -0.084825 0.0631454 0.180066 
-0.0934714 0.0655005 0.157467 -0.101354 0.0680211 0.133724 -0.108244 0.07061 0.1089 
-0.11395 0.0731759 0.0831177 -0.118332 0.0756393 0.0565554 -0.121313 0.0779372 0.0294348 
-0.122883 0.0800248 0.00200386 -0.123092 0.0818755 -0.0254827 -0.122047 0.0834793 -0.052784 
-0.119892 0.084839 -0.0796918 -0.1168 0.0859665 -0.106046 -0.112951 0.0868785 -0.131746 
-0.108516 0.0875928 -0.156749 -0.103649 0.0881251 -0.181072 -0.0984737 0.0884872 -0.20478 
-0.0930825 0.0886855 -0.227969 -0.0875341 0.0887209 -0.250752 -0.081858 0.0885885 -0.273236 
-0.0760616 0.0882783 -0.295509 -0.0701371 0.0877748 -0.317625 -0.0640704 0.0870571 -0.339595 
-0.0578482 0.086099 -0.361386 -0.0514634 0.0848682 -0.382921 -0.0449189 0.0833266 -0.404092 
-0.0382284 0.0814313 -0.424769 -0.0314164 0.0791356 -0.444814 -0.0245158 0.0763926 -0.464098 
-0.0175658 0.0731592 -0.482508 -0.0106092 0.0694017 -0.499959 -0.00369124 0.0651017 -0.516399 
0.0031414 0.060263 -0.531806 0.00984023 0.0549164 -0.546185 0.0163539 0.0491247 -0.559562 
0.0226269 0.0429836 -0.57197 0.0285988 0.0366205 -0.583447 0.0342043 0.0301899 -0.59402 
0.0393746 0.0238651 -0.603707 0.0440409 0.0178272 -0.61251 0.0481392 0.0122521 -0.62042 
0.0516161 0.00729642 -0.627421 0.0544354 0.00308458 -0.633501 0.0565845 -0.000302728 -0.638653 
0.0580785 -0.00283613 -0.642894 0.058963 -0.00454093 -0.646262 0.059314 -0.00549529 -0.648823 
0.0592335 -0.0058232 -0.650671 0.0588431 -0.00568288 -0.651919 0.0582745 -0.00525145 -0.652695 
0.0576585 -0.00470741 -0.653128 0.0571128 -0.00421286 -0.653333 0.0567312 -0.00389706 -0.653407 
0.0565749 -0.00384322 -0.653408 
LINES 2 100
OFFSETS vtktypeint64
0 100 
CONNECTIVITY vtktypeint64
0 1 2 3 4 5 6 7 8 
9 10 11 12 13 14 15 16 17 
18 19 20 21 22 23 24 25 26 
27 28 29 30 31 32 33 34 35 
36 37 38 39 40 41 42 43 44 
45 46 47 48 49 50 51 52 53 
54 55 56 57 58 59 60 61 62 
63 64 65 66 67 68 69 70 71 
72 73 74 75 76 77 78 79 80 
81 82 83 84 85 86 87 88 89 
90 91 92 93 94 95 96 97 98 
99 
POINT_DATA 100
FIELD FieldData 3
_theta 1 100 double
0 0.031733259127 0.063466518254 0.095199777382 0.12693303651 0.15866629564 0.19039955476 0.22213281389 0.25386607302 
0.28559933214 0.31733259127 0.3490658504 0.38079910953 0.41253236865 0.44426562778 0.47599888691 0.50773214603 0.53946540516 
0.57119866429 0.60293192342 0.63466518254 0.66639844167 0.6981317008 0.72986495992 0.76159821905 0.79333147818 0.82506473731 
0.85679799643 0.88853125556 0.92026451469 0.95199777382 0.98373103294 1.0154642921 1.0471975512 1.0789308103 1.1106640695 
1.1423973286 1.1741305877 1.2058638468 1.237597106 1.2693303651 1.3010636242 1.3327968833 1.3645301425 1.3962634016 
1.4279966607 1.4597299198 1.491463179 1.5231964381 1.5549296972 1.5866629564 1.6183962155 1.6501294746 1.6818627337 
1.7135959929 1.745329252 1.7770625111 1.8087957702 1.8405290294 1.8722622885 1.9039955476 1.9357288068 1.9674620659 
1.999195325 2.0309285841 2.0626618433 2.0943951024 2.1261283615 2.1578616206 2.1895948798 2.2213281389 2.253061398 
2.2847946572 2.3165279163 2.3482611754 2.3799944345 2.4117276937 2.4434609528 2.4751942119 2.506927471 2.5386607302 
2.5703939893 2.6021272484 2.6338605076 2.6655937667 2.6973270258 2.7290602849 2.7607935441 2.7925268032 2.8242600623 
2.8559933214 2.8877265806 2.9194598397 2.9511930988 2.982926358 3.0146596171 3.0463928762 3.0781261353 3.1098593945 
3.1415926536 
_radius 1 100 double
2.4355418758e-16 0.014212030702 0.028212267068 0.041805098858 0.054830484838 0.067174027846 0.078769400922 0.089593396102 0.099655632391 
0.10898610308 0.11762377515 0.12560841404 0.13297629221 0.13975916419 0.14598520668 0.15168046251 0.15686954799 0.16157498372 
0.16581544855 0.16960419597 0.1729492838 0.17585679841 0.17833697058 0.18041149753 0.18211930755 0.18351808525 0.18468016164 
0.18568326624 0.18659832446 0.18747734077 0.18834420493 0.18919017778 0.18997434634 0.19062805897 0.19106170399 0.19117237206 
0.19085181593 0.1899951682 0.18851130999 0.18633512588 0.18344049976 0.17985170539 0.17565042007 0.17097591934 0.1660168496 
0.16099424033 0.15613719848 0.15165501611 0.14771173382 0.14441026814 0.14179130143 0.13984674442 0.13854118313 0.13783132802 
0.13767510559 0.13802735811 0.13882532308 0.13997216648 0.14132925742 0.14272481463 0.14397755336 0.14492551733 0.14544951335 
0.14548595578 0.14502925897 0.14412632803 0.14286597505 0.1413656029 0.13975700638 0.13817292182 0.13673586876 0.13555025354 
0.13469730693 0.13423117789 0.13417480303 0.13451584012 0.13520429366 0.13615319514 0.13724224485 0.13832319841 0.139225964 
0.13976544461 0.13974997711 0.13899205777 0.1373210402 0.13459632968 0.13071891265 0.12563910242 0.1193590445 0.11192953588 
0.10344178745 0.094015663375 0.083786492331 0.072892655733 0.061465792411 0.04962470741 0.037473141363 0.025100723884 0.012585949653 
1.0711341164e-15 
_area 1 100 double
0 0.00046110430801 0.0018211097355 0.0040142153974 0.0069432300867 0.010494435563 0.014552134527 0.019008996309 0.023769428073 
0.02874535235 0.033846763787 0.038972132479 0.044004586927 0.048818186008 0.053295003206 0.05734926246 0.060950720503 0.064137372751 
0.06700870393 0.069697169026 0.072328109938 0.074987371868 0.07770904233 0.080481580069 0.083264178658 0.086005336614 0.088657174347 
0.091181256362 0.093545911647 0.095720902082 0.097677281004 0.099395653232 0.10088039779 0.10217066191 0.1033088635 0.10424839674 
0.10486204588 0.10500278639 0.1045233956 0.10329369027 0.10122661021 0.098304134197 0.094593146482 0.090246224925 0.085487666886 
0.080587342625 0.075824423028 0.071445058538 0.067624076319 0.064441338404 0.061879309434 0.059844015231 0.058204106342 0.056838996865 
0.05568680523 0.054767677943 0.054133480499 0.053798563994 0.053651722092 0.053615585825 0.053583113782 0.053365458111 0.05279981152 
0.051794089442 0.050378922913 0.048662307024 0.046798694212 0.04495719373 0.043287168502 0.041894955544 0.040836853433 0.040126474286 
0.039749223602 0.0396917069 0.039965037072 0.040593283195 0.041586853784 0.042928365111 0.044580711528 0.046490854751 0.048532624949 
0.050438765558 0.051901616251 0.05266004813 0.052509811595 0.051313667699 0.04901699961 0.045658652046 0.041370931943 0.036367095638 
0.030917854944 0.025320649189 0.01986682607 0.014812381022 0.010357308564 0.006636862379 0.0037253714214 0.001650265612 0.00041143710485 
7.0202090668e-18 
