# vtk DataFile Version 5.1
vtk output
ASCII
DATASET POLYDATA
POINTS 100 float
0.133043 0.0606727 0.719111 0.132998 0.0608494 0.719023 0.132969 0.0612612 0.718578 
0.132954 0.0618819 0.717792 0.132952 0.0626703 0.716688 0.132955 0.0635742 0.715288 
0.132948 0.0645353 0.713607 0.132907 0.0654949 0.711642 0.132796 0.0663979 0.709366 
0.132563 0.0671979 0.706727 0.132148 0.0678593 0.703649 0.131478 0.0683587 0.700034 
0.130476 0.0686844 0.695776 0.12906 0.0688343 0.690767 0.127155 0.068813 0.684912 
0.124693 0.0686281 0.678141 0.12162 0.0682868 0.670423 0.117901 0.0677924 0.661764 
0.11352 0.0671428 0.652219 0.108482 0.0663296 0.64188 0.102811 0.0653394 0.630875 
0.0965491 0.064156 0.619348 0.0897517 0.0627641 0.60745 0.0824843 0.0611535 0.595321 
0.0748182 0.0593233 0.583074 0.0668265 0.0572858 0.570784 0.0585808 0.0550688 0.558483 
0.0501493 0.0527167 0.546156 0.0415948 0.050289 0.533746 0.0329738 0.0478581 0.521164 
0.0243361 0.0455038 0.508302 0.0157243 0.0433082 0.495049 0.00717315 0.0413486 0.481306 
-0.00129125 0.0396912 0.467001 -0.00965277 0.0383857 0.452099 -0.0179065 0.0374609 0.436604 
-0.0260601 0.0369228 0.420562 -0.0341339 0.0367548 0.404048 -0.0421612 0.0369204 0.38716 
-0.0501854 0.0373675 0.370001 -0.0582571 0.0380351 0.352661 -0.0664277 0.0388603 0.335203 
-0.0747429 0.0397858 0.31765 -0.0832343 0.0407664 0.299977 -0.0919105 0.0417745 0.282108 
-0.10075 0.042803 0.263925 -0.109694 0.0438666 0.245274 -0.118644 0.0449997 0.225982 
-0.127462 0.0462528 0.205879 -0.135974 0.0476862 0.184815 -0.143979 0.0493632 0.162677 
-0.151259 0.0513421 0.139409 -0.157596 0.0536688 0.115018 -0.162788 0.0563702 0.0895755 
-0.166661 0.0594497 0.0632183 -0.169087 0.0628843 0.0361347 -0.169994 0.0666244 0.0085502 
-0.169371 0.0705963 -0.0192912 -0.167269 0.0747055 -0.0471473 -0.163797 0.0788435 -0.0747968 
-0.159113 0.0828939 -0.102056 -0.153405 0.0867401 -0.128789 -0.146881 0.0902721 -0.154915 
-0.139746 0.0933923 -0.18041 -0.132187 0.0960207 -0.205297 -0.124359 0.0980971 -0.229637 
-0.116377 0.0995831 -0.253517 -0.108306 0.100461 -0.277034 -0.100171 0.100733 -0.300278 
-0.0919556 0.100415 -0.32332 -0.0836181 0.0995386 -0.346203 -0.0751029 0.0981417 -0.368936 
-0.0663562 0.0962681 -0.39149 -0.0573405 0.0939634 -0.413804 -0.0480455 0.0912733 -0.435787 
-0.0384964 0.0882422 -0.457332 -0.0287564 0.0849127 -0.478319 -0.0189241 0.0813263 -0.49863 
-0.00912699 0.0775238 -0.518156 0.000489725 0.073547 -0.536804 0.00977612 0.0694391 -0.554499 
0.0185912 0.0652458 -0.571189 0.0268156 0.0610156 -0.586845 0.0343612 0.0567988 -0.601457 
0.0411775 0.0526475 -0.615028 0.0472531 0.0486131 -0.627574 0.0526128 0.044745 -0.63912 
0.0573108 0.0410881 -0.649692 0.0614211 0.0376813 -0.659316 0.0650264 0.0345556 -0.668018 
0.0682067 0.0317331 -0.675821 0.0710298 0.0292265 -0.682745 0.0735443 0.0270397 -0.688806 
0.0757764 0.0251688 -0.69402 0.0777294 0.0236038 -0.698401 0.0793877 0.022331 -0.70196 
0.0807233 0.0213352 -0.704707 0.0817026 0.0206024 -0.706652 0.0822951 0.0201219 -0.7078 
0.0824796 0.0198879 -0.708157 
LINES 2 100
OFFSETS vtktypeint64
0 100 
CONNECTIVITY vtktypeint64
0 1 2 3 4 5 6 7 8 
9 10 11 12 13 14 15 16 17 
18 19 20 21 22 23 24 25 26 
27 28 29 30 31 32 33 34 35 
36 37 38 39 40 41 42 43 44 
45 46 47 48 49 50 51 52 53 
54 55 56 57 58 59 60 61 62 
63 64 65 66 67 68 69 70 71 
72 73 74 75 76 77 78 79 80 
81 82 83 84 85 86 87 88 89 
90 91 92 93 94 95 96 97 98 
99 
POINT_DATA 100
FIELD FieldData 3
_theta 1 100 double
0 0.031733259127 0.063466518254 0.095199777382 0.12693303651 0.15866629564 0.19039955476 0.22213281389 0.25386607302 
0.28559933214 0.31733259127 0.3490658504 0.38079910953 0.41253236865 0.44426562778 0.47599888691 0.50773214603 0.53946540516 
0.57119866429 0.60293192342 0.63466518254 0.66639844167 0.6981317008 0.72986495992 0.76159821905 0.79333147818 0.82506473731 
0.85679799643 0.88853125556 0.92026451469 0.95199777382 0.98373103294 1.0154642921 1.0471975512 1.0789308103 1.1106640695 
1.1423973286 1.1741305877 1.2058638468 1.237597106 1.2693303651 1.3010636242 1.3327968833 1.3645301425 1.3962634016 
1.4279966607 1.4597299198 1.491463179 1.5231964381 1.5549296972 1.5866629564 1.6183962155 1.6501294746 1.6818627337 
1.7135959929 1.745329252 1.7770625111 1.8087957702 1.8405290294 1.8722622885 1.9039955476 1.9357288068 1.9674620659 
1.999195325 2.0309285841 2.0626618433 2.0943951024 2.1261283615 2.1578616206 2.1895948798 2.2213281389 2.253061398 
2.2847946572 2.3165279163 2.3482611754 2.3799944345 2.4117276937 2.4434609528 2.4751942119 2.506927471 2.5386607302 
2.5703939893 2.6021272484 2.6338605076 2.6655937667 2.6973270258 2.7290602849 2.7607935441 2.7925268032 2.8242600623 
2.8559933214 2.8877265806 2.9194598397 2.9511930988 2.982926358 3.0146596171 3.0463928762 3.0781261353 3.1098593945 
3.1415926536 
_radius 1 100 double
2.6513476379e-16 0.014957508183 0.029913961657 0.044858161963 0.059762884714 0.074579618473 0.089236341568 0.1036387378 0.1176747708 
0.13122207498 0.14415727758 0.15636619234 0.16775378962 0.17825284627 0.18783013738 0.19648903644 0.20426767087 0.21123248406 
0.21746804706 0.22306488248 0.22810756585 0.23266530832 0.23678665951 0.2404990795 0.24381312478 0.24673007234 0.24925113399 
0.25138611458 0.25315951368 0.25461263972 0.2558011623 0.25678845412 0.25763585605 0.25839151201 0.25907962344 0.2596918674 
0.26018234686 0.26046690237 0.26042706905 0.25991853473 0.25878365163 0.25686728426 0.25403493802 0.25019168184 0.24529992319 
0.23939374231 0.232587375 0.22507565348 0.21712485362 0.20905353591 0.20120468257 0.19391262608 0.18747030999 0.18210303426 
0.17795296201 0.17507497717 0.17344127225 0.17295095148 0.17344161333 0.1747013335 0.17648133891 0.17851129685 0.18051904685 
0.18225425074 0.18351251011 0.18415517641 0.18412090928 0.18342705524 0.18216099721 0.18046323754 0.17850507753 0.17646440608 
0.17450325429 0.17275023279 0.17128964252 0.17015722098 0.16934089959 0.16878437636 0.16839193831 0.16803423223 0.16755559191 
0.16678338455 0.16553890006 0.16364850628 0.16095368841 0.15731900774 0.15263754438 0.14683381727 0.13986448407 0.13171733319 
0.12240916968 0.11198314563 0.10050592275 0.088064862286 0.074765293166 0.060727841643 0.046085795506 0.030982486682 0.015568685147 
3.5995315076e-16 
_area 1 100 double
0 0.00056207296789 0.0022440164526 0.0050322606676 0.0089017365401 0.013812418512 0.019705230666 0.026498479678 0.03408624313 
0.042339549266 0.051109721592 0.060232129546 0.069529833688 0.078820194818 0.087928415623 0.096706448166 0.10504933714 0.11290097476 
0.12024667118 0.12709642788 0.13346699968 0.13937061395 0.14481363319 0.14980293921 0.15435526459 0.15850548896 0.16231146697 
0.16585317826 0.16922381642 0.17251295948 0.17578730185 0.17907658307 0.18236732407 0.18560106335 0.18867426895 0.19144133322 
0.19372335031 0.19532224425 0.19603623319 0.19567281122 0.19405923267 0.19105408231 0.18656385441 0.1805653969 0.17313036808 
0.16444371781 0.15480670319 0.14461746691 0.13432852216 0.12438933104 0.11518984483 0.10701785233 0.10003146446 0.094251041309 
0.08959154431 0.085948764882 0.083333051608 0.081988453014 0.081878949695 0.08252011886 0.083540788033 0.084594929693 0.085319063436 
0.08538509307 0.084566245488 0.082787946464 0.08012378539 0.076741684666 0.072873335233 0.068751129443 0.064600508684 0.060646088863 
0.057100648777 0.054132966058 0.051836083713 0.050253229753 0.049418760604 0.049325388925 0.049899286011 0.051010625425 0.052477955645 
0.054071726518 0.055530307378 0.056586847341 0.056998023919 0.056567778935 0.055163251886 0.052722943875 0.049258678413 0.044853467008 
0.039656857388 0.033877993367 0.027775378144 0.021642212742 0.015787378441 0.010513857473 0.0060975229516 0.002769137632 0.00070123249873 
3.0151034177e-17 
