# vtk DataFile Version 5.1
vtk output
ASCII
DATASET POLYDATA
POINTS 100 float
0.13457 0.0760205 0.685937 0.134643 0.0760487 0.685762 0.1349 0.075998 0.68507 
0.135298 0.0758697 0.683845 0.135771 0.0756664 0.682064 0.136238 0.0753927 0.679697 
0.136609 0.0750549 0.676706 0.136794 0.0746617 0.673052 0.136715 0.0742241 0.668695 
0.136304 0.0737555 0.663597 0.135513 0.073272 0.657727 0.134312 0.072792 0.651064 
0.132684 0.0723353 0.643602 0.130625 0.0719226 0.635349 0.128132 0.0715736 0.626336 
0.125206 0.0713056 0.616608 0.12184 0.0711313 0.606229 0.118018 0.0710563 0.59528 
0.113721 0.0710778 0.583847 0.108922 0.0711824 0.572023 0.103597 0.0713457 0.559898 
0.0977312 0.0715322 0.547553 0.0913267 0.0716968 0.535054 0.0844082 0.0717873 0.522452 
0.077029 0.0717483 0.509777 0.0692717 0.0715257 0.497042 0.0612457 0.071072 0.484243 
0.0530799 0.0703511 0.471367 0.0449129 0.0693438 0.458395 0.0368791 0.0680503 0.44531 
0.0290948 0.0664928 0.432102 0.0216447 0.0647151 0.418773 0.0145702 0.06278 0.405337 
0.00786285 0.0607658 0.39182 0.00146255 0.058759 0.378256 -0.00473836 0.0568481 0.364678 
-0.010885 0.0551152 0.351115 -0.0171448 0.0536291 0.337576 -0.0236892 0.052439 0.324046 
-0.0306733 0.0515709 0.310476 -0.0382166 0.0510258 0.296781 -0.0463863 0.0507813 0.282841 
-0.055185 0.0507955 0.268503 -0.0645452 0.0510138 0.253591 -0.0743302 0.0513762 0.237919 
-0.0843412 0.0518268 0.221307 -0.094331 0.0523211 0.203596 -0.104022 0.0528335 0.184666 
-0.113126 0.0533611 0.164448 -0.121365 0.0539253 0.142935 -0.128492 0.0545695 0.120184 
-0.134303 0.0553542 0.0963175 -0.138652 0.0563481 0.0715134 -0.141453 0.0576194 0.0459934 
-0.142684 0.0592241 0.0200056 -0.142378 0.0611964 -0.00619439 -0.140617 0.0635405 -0.0323633 
-0.137522 0.066225 -0.0582881 -0.133241 0.0691811 -0.0838003 -0.127935 0.0723049 -0.108785 
-0.121772 0.0754637 -0.133186 -0.114919 0.0785051 -0.156998 -0.107536 0.0812692 -0.180266 
-0.0997705 0.0836016 -0.203065 -0.0917611 0.085366 -0.225488 -0.0836328 0.0864556 -0.247628 
-0.075497 0.0868013 -0.269563 -0.0674499 0.0863766 -0.29134 -0.0595692 0.0851977 -0.312969 
-0.0519103 0.0833208 -0.334417 -0.0445017 0.0808339 -0.355611 -0.0373402 0.0778477 -0.376442 
-0.0303876 0.0744839 -0.396777 -0.0235697 0.0708634 -0.416474 -0.0167775 0.0670956 -0.435393 
-0.00987319 0.0632701 -0.453412 -0.00269908 0.0594514 -0.470437 0.00490957 0.0556761 -0.486412 
0.0131095 0.0519551 -0.501322 0.0220333 0.0482776 -0.515193 0.0317736 0.0446177 -0.528087 
0.0423703 0.0409424 -0.540094 0.053801 0.0372201 -0.551322 0.0659778 0.0334274 -0.561884 
0.0787489 0.0295549 -0.571889 0.0919073 0.0256108 -0.581431 0.105204 0.0216213 -0.590578 
0.118368 0.0176291 -0.59937 0.131122 0.0136901 -0.607819 0.143204 0.00986792 -0.615904 
0.154388 0.00622841 -0.62358 0.164492 0.00283452 -0.630779 0.173391 -0.000258253 -0.63742 
0.181014 -0.00300478 -0.643414 0.187342 -0.00537161 -0.648671 0.192399 -0.00733647 -0.653105 
0.196234 -0.00888659 -0.65664 0.198909 -0.010016 -0.659214 0.200484 -0.0107225 -0.660782 
0.201 -0.0110054 -0.661314 
LINES 2 100
OFFSETS vtktypeint64
0 100 
CONNECTIVITY vtktypeint64
0 1 2 3 4 5 6 7 8 
9 10 11 12 13 14 15 16 17 
18 19 20 21 22 23 24 25 26 
27 28 29 30 31 32 33 34 35 
36 37 38 39 40 41 42 43 44 
45 46 47 48 49 50 51 52 53 
54 55 56 57 58 59 60 61 62 
63 64 65 66 67 68 69 70 71 
72 73 74 75 76 77 78 79 80 
81 82 83 84 85 86 87 88 89 
90 91 92 93 94 95 96 97 98 
99 
POINT_DATA 100
FIELD FieldData 3
_theta 1 100 double
0 0.031733259127 0.063466518254 0.095199777382 0.12693303651 0.15866629564 0.19039955476 0.22213281389 0.25386607302 
0.28559933214 0.31733259127 0.3490658504 0.38079910953 0.41253236865 0.44426562778 0.47599888691 0.50773214603 0.53946540516 
0.57119866429 0.60293192342 0.63466518254 0.66639844167 0.6981317008 0.72986495992 0.76159821905 0.79333147818 0.82506473731 
0.85679799643 0.88853125556 0.92026451469 0.95199777382 0.98373103294 1.0154642921 1.0471975512 1.0789308103 1.1106640695 
1.1423973286 1.1741305877 1.2058638468 1.237597106 1.2693303651 1.3010636242 1.3327968833 1.3645301425 1.3962634016 
1.4279966607 1.4597299198 1.491463179 1.5231964381 1.5549296972 1.5866629564 1.6183962155 1.6501294746 1.6818627337 
1.7135959929 1.745329252 1.7770625111 1.8087957702 1.8405290294 1.8722622885 1.9039955476 1.9357288068 1.9674620659 
1.999195325 2.0309285841 2.0626618433 2.0943951024 2.1261283615 2.1578616206 2.1895948798 2.2213281389 2.253061398 
2.2847946572 2.3165279163 2.3482611754 2.3799944345 2.4117276937 2.4434609528 2.4751942119 2.506927471 2.5386607302 
2.5703939893 2.6021272484 2.6338605076 2.6655937667 2.6973270258 2.7290602849 2.7607935441 2.7925268032 2.8242600623 
2.8559933214 2.8877265806 2.9194598397 2.9511930988 2.982926358 3.0146596171 3.0463928762 3.0781261353 3.1098593945 
3.1415926536 
_radius 1 100 double
1.1464934309e-15 0.012222753862 0.024310498593 0.036131844639 0.047572183281 0.058539929555 0.068970021106 0.078824196689 0.088088084617 
0.096765602805 0.10487148424 0.11242297011 0.11943200162 0.12589955393 0.13181380439 0.13715323058 0.14189435794 0.14602221167 
0.14954056153 0.15247940375 0.15489839879 0.15688622637 0.15855642312 0.16004028298 0.16147723543 0.16300316972 0.16473761289 
0.16677130878 0.16915606089 0.17189820638 0.17495593703 0.17823975174 0.18161538471 0.18490944113 0.18791872711 0.19042406007 
0.19220824508 0.19307663082 0.19287783097 0.19152193692 0.18899370665 0.18535865165 0.18076059715 0.17541015811 0.16956468699 
0.16350165323 0.15748909462 0.15175847667 0.14648615633 0.14178819431 0.13772861569 0.13433516649 0.13161352009 0.12955370293 
0.12812861336 0.12728849195 0.12695605574 0.12702651298 0.1273746008 0.12786758267 0.12838091776 0.12881300342 0.12909636215 
0.1292040896 0.12915126641 0.12898910921 0.12878476637 0.12858751907 0.12841117438 0.12824719893 0.12807933036 0.12788920239 
0.12766165972 0.12738970799 0.12707602168 0.12673136146 0.12637104316 0.12600970208 0.1256544923 0.12529753781 0.12490914202 
0.12443339163 0.12378706193 0.12286162988 0.12152809218 0.11964541325 0.11707317006 0.1136857665 0.10938327736 0.10409591078 
0.097782834865 0.090428291563 0.082038083234 0.072638627409 0.062279393804 0.051037918688 0.039025193957 0.026388639268 0.013310387497 
4.3227830117e-16 
_area 1 100 double
0 0.00039929970923 0.0015788670946 0.0034854255585 0.0060356451546 0.0091234935349 0.01262913922 0.01642864524 0.020403880669 
0.02445177531 0.028491222522 0.032465389306 0.036337846241 0.040083172092 0.043676012238 0.0470848561 0.050274982382 0.053219041901 
0.055908452717 0.0583588077 0.060607251361 0.062704961797 0.064709714117 0.066681509706 0.068680984014 0.070768627179 0.073003518517 
0.075441974675 0.078137344017 0.081140769086 0.084499306124 0.088244912768 0.092368730224 0.096780897863 0.10127157994 0.10550945991 
0.10909124993 0.11161049897 0.11272295163 0.11220080811 0.10996797365 0.10610987406 0.10085825607 0.094559141253 0.08763317933 
0.080533213166 0.073701376933 0.067527503477 0.062311540471 0.058235619697 0.055313327418 0.053320954765 0.051960453569 0.051009980099 
0.05030263151 0.049705599981 0.049109288462 0.04840435404 0.047470252592 0.046202394898 0.044586233003 0.042696914033 0.040775309195 
0.038958611715 0.037409056552 0.036170957047 0.035244395379 0.034626160964 0.034206303702 0.033939500364 0.033855053804 0.034017994883 
0.034648833449 0.035762514791 0.036742363278 0.037475016047 0.037952997241 0.038206561642 0.038271908772 0.038172301446 0.037911951417 
0.037484779736 0.036917057643 0.036365643348 0.035619381196 0.034461444906 0.032809212489 0.030642153749 0.027994363104 0.02495113572 
0.021640942983 0.018219537035 0.014842240048 0.011619927625 0.0086023663219 0.0058452849198 0.0034607604346 0.0015993164765 0.00040969386544 
1.4061497972e-16 
