# vtk DataFile Version 5.1
vtk output
ASCII
DATASET POLYDATA
POINTS 100 float
0.131533 0.0693274 0.670472 0.13165 0.0693122 0.670241 0.132045 0.0691549 0.66938 
0.13267 0.0688752 0.667904 0.133447 0.068502 0.665837 0.134275 0.0680685 0.663204 
0.135042 0.0676071 0.660031 0.135626 0.0671442 0.656332 0.135911 0.0666964 0.652107 
0.135796 0.0662688 0.647342 0.135197 0.0658546 0.642003 0.134058 0.0654381 0.636043 
0.132355 0.0649987 0.629404 0.13009 0.0645161 0.622029 0.127298 0.0639763 0.613866 
0.124034 0.0633757 0.604883 0.12037 0.0627246 0.595071 0.116382 0.0620476 0.584453 
0.112145 0.0613813 0.57309 0.107723 0.0607698 0.561075 0.103157 0.0602578 0.548531 
0.0984675 0.0598831 0.535606 0.0936453 0.059669 0.522456 0.0886577 0.0596184 0.509235 
0.0834517 0.0597098 0.496083 0.0779627 0.0598975 0.483112 0.0721235 0.0601148 0.470395 
0.0658758 0.060281 0.457964 0.0591801 0.0603109 0.445805 0.0520241 0.0601259 0.433863 
0.044428 0.0596652 0.42205 0.0364454 0.0588952 0.410255 0.0281606 0.0578162 0.398358 
0.0196812 0.0564643 0.386245 0.0111269 0.0549101 0.37382 0.0026171 0.0532505 0.361014 
-0.00574384 0.051599 0.347794 -0.0138786 0.0500717 0.334163 -0.0217472 0.0487735 0.320154 
-0.029352 0.0477847 0.305827 -0.0367381 0.0471509 0.291249 -0.0439873 0.0468774 0.276489 
-0.0512061 0.0469286 0.261596 -0.0585103 0.0472332 0.246587 -0.0660051 0.0476946 0.231443 
-0.0737658 0.0482048 0.216097 -0.0818192 0.0486605 0.200439 -0.0901292 0.0489784 0.184322 
-0.0985883 0.0491095 0.167574 -0.107016 0.0490474 0.150017 -0.115168 0.0488323 0.131484 
-0.122747 0.0485478 0.11184 -0.129426 0.0483121 0.0910008 -0.134876 0.0482637 0.0689449 
-0.138788 0.0485443 0.0457245 -0.140907 0.0492799 0.021465 -0.141051 0.0505637 -0.00364052 
-0.13913 0.0524423 -0.0293446 -0.135153 0.0549073 -0.0553645 -0.129231 0.0578938 -0.0814048 
-0.121566 0.0612849 -0.107182 -0.112435 0.0649232 -0.132449 -0.102166 0.0686263 -0.157015 
-0.091109 0.0722055 -0.180756 -0.0796087 0.075484 -0.203629 -0.0679782 0.0783134 -0.225663 
-0.0564759 0.0805858 -0.246958 -0.0452901 0.0822394 -0.26766 -0.0345311 0.0832591 -0.287946 
-0.0242315 0.083669 -0.308 -0.0143538 0.0835219 -0.327981 -0.0048048 0.0828842 -0.34801 
0.00454636 0.0818205 -0.368148 0.0138484 0.0803804 -0.388386 0.0232482 0.0785879 -0.408643 
0.0328745 0.0764376 -0.428774 0.0428252 0.0738962 -0.448579 0.0531604 0.0709107 -0.467826 
0.0639007 0.0674211 -0.486273 0.075031 0.0633768 -0.50369 0.0865066 0.0587531 -0.519883 
0.0982632 0.0535666 -0.534715 0.110226 0.0478853 -0.548113 0.122319 0.0418325 -0.560077 
0.134468 0.0355835 -0.570674 0.146608 0.0293547 -0.580031 0.158677 0.0233852 -0.588317 
0.170614 0.0179151 -0.595721 0.182353 0.0131602 -0.602431 0.193817 0.00928939 -0.608617 
0.204908 0.00640483 -0.614404 0.215505 0.00452973 -0.619871 0.225463 0.00360453 -0.625035 
0.234615 0.00349268 -0.62986 0.24278 0.0039954 -0.634261 0.249772 0.00487413 -0.638122 
0.255413 0.00587788 -0.641308 0.259547 0.00677242 -0.643691 0.262053 0.00736774 -0.645163 
0.262854 0.00754048 -0.645653 
LINES 2 100
OFFSETS vtktypeint64
0 100 
CONNECTIVITY vtktypeint64
0 1 2 3 4 5 6 7 8 
9 10 11 12 13 14 15 16 17 
18 19 20 21 22 23 24 25 26 
27 28 29 30 31 32 33 34 35 
36 37 38 39 40 41 42 43 44 
45 46 47 48 49 50 51 52 53 
54 55 56 57 58 59 60 61 62 
63 64 65 66 67 68 69 70 71 
72 73 74 75 76 77 78 79 80 
81 82 83 84 85 86 87 88 89 
90 91 92 93 94 95 96 97 98 
99 
POINT_DATA 100
FIELD FieldData 3
_theta 1 100 double
0 0.031733259127 0.063466518254 0.095199777382 0.12693303651 0.15866629564 0.19039955476 0.22213281389 0.25386607302 
0.28559933214 0.31733259127 0.3490658504 0.38079910953 0.41253236865 0.44426562778 0.47599888691 0.50773214603 0.53946540516 
0.57119866429 0.60293192342 0.63466518254 0.66639844167 0.6981317008 0.72986495992 0.76159821905 0.79333147818 0.82506473731 
0.85679799643 0.88853125556 0.92026451469 0.95199777382 0.98373103294 1.0154642921 1.0471975512 1.0789308103 1.1106640695 
1.1423973286 1.1741305877 1.2058638468 1.237597106 1.2693303651 1.3010636242 1.3327968833 1.3645301425 1.3962634016 
1.4279966607 1.4597299198 1.491463179 1.5231964381 1.5549296972 1.5866629564 1.6183962155 1.6501294746 1.6818627337 
1.7135959929 1.745329252 1.7770625111 1.8087957702 1.8405290294 1.8722622885 1.9039955476 1.9357288068 1.9674620659 
1.999195325 2.0309285841 2.0626618433 2.0943951024 2.1261283615 2.1578616206 2.1895948798 2.2213281389 2.253061398 
2.2847946572 2.3165279163 2.3482611754 2.3799944345 2.4117276937 2.4434609528 2.4751942119 2.506927471 2.5386607302 
2.5703939893 2.6021272484 2.6338605076 2.6655937667 2.6973270258 2.7290602849 2.7607935441 2.7925268032 2.8242600623 
2.8559933214 2.8877265806 2.9194598397 2.9511930988 2.982926358 3.0146596171 3.0463928762 3.0781261353 3.1098593945 
3.1415926536 
_radius 1 100 double
8.4734094866e-16 0.013738485807 0.027435545488 0.041041993745 0.054500149339 0.067740028232 0.080676781942 0.093210731014 0.10523115271 
0.11662423489 0.12728455552 0.13712843006 0.14610678465 0.15421504595 0.16149793501 0.16804791262 0.17399713071 0.17950383211 
0.18473499474 0.18984753411 0.19497056394 0.20019109947 0.20554517316 0.21101561415 0.21653678429 0.22200553981 0.22729682906 
0.23228179088 0.23684595046 0.24090501369 0.24441588758 0.24738109855 0.24984578917 0.2518877051 0.2536016939 0.25508101416 
0.2563981545 0.25758791801 0.25863526509 0.25946984933 0.25996837835 0.2599649624 0.25926856484 0.25768564877 0.25504530116 
0.25122372155 0.2461651213 0.23989674259 0.23253663154 0.22429363829 0.21545953023 0.20639293721 0.19749434761 0.18917146772 
0.18179645836 0.17566156563 0.17094466439 0.16769529053 0.16584305884 0.16522105149 0.16559429437 0.16668686092 0.16820522261 
0.16985765511 0.171370296 0.17250082384 0.17305100966 0.17287912297 0.17191169032 0.17015197093 0.16768164309 0.16465327132 
0.16127310123 0.15777590922 0.15439555479 0.15133628384 0.1487508139 0.14673058486 0.14530922909 0.14447382602 0.14417515184 
0.14433054366 0.14481887727 0.14547262436 0.14607401993 0.14636014732 0.14603704236 0.14479901916 0.14234850413 0.13841338815 
0.13276138741 0.12521248289 0.11565062494 0.10403495906 0.090409654819 0.074910603524 0.057767013851 0.039296264954 0.01989117905 
8.2943974162e-16 
_area 1 100 double
0 0.00051413436064 0.0020460691542 0.0045641869336 0.0080150660647 0.012322380611 0.017385569459 0.023079030786 0.029253189566 
0.035738912319 0.042356227338 0.048927374139 0.055293086167 0.061329840296 0.066964839622 0.072185191948 0.077038530812 0.081624204918 
0.086076531234 0.090543514246 0.095165133546 0.10005468024 0.10528528623 0.11088262486 0.11682406401 0.12304389232 0.12944342693 
0.13590431014 0.14230335651 0.14852753743 0.15448731293 0.16012513603 0.16541698985 0.17036892771 0.17500473627 0.17933041106 
0.18330825912 0.18685664856 0.18984847965 0.19211312231 0.19351201206 0.19393444018 0.19301708306 0.19064600153 0.18667067872 
0.18094075709 0.17349969762 0.1645606943 0.15447556293 0.14369649156 0.13273192274 0.12209540141 0.11224611489 0.10352914963 
0.096139599025 0.090137247652 0.085502737358 0.082155261243 0.07987124564 0.078330924307 0.077272833339 0.076502495919 0.07583745622 
0.075071478282 0.073990203836 0.072432022463 0.070355847084 0.067838517125 0.064891616213 0.061405715964 0.057464789502 0.053337275062 
0.049382096691 0.045999151135 0.043512430775 0.041999080355 0.041348642567 0.041354107768 0.04175729425 0.042347597152 0.042995274905 
0.043621949696 0.044165109469 0.044550370213 0.044670479519 0.044378420223 0.043504221326 0.041894418509 0.039457421365 0.036193558757 
0.032199670896 0.027651993249 0.022778370913 0.017831448251 0.013069767993 0.0087457990946 0.0050949852443 0.0023225782417 0.00058965039522 
8.6428582438e-17 
