# vtk DataFile Version 5.1
vtk output
ASCII
DATASET POLYDATA
POINTS 100 float
0.143219 0.0551249 0.638898 0.143227 0.0552634 0.638897 0.143351 0.0555539 0.638747 
0.143546 0.0559881 0.638407 0.143745 0.0565517 0.637809 0.143863 0.0572248 0.636867 
0.143809 0.0579819 0.63548 0.143494 0.0587926 0.633539 0.142838 0.0596228 0.630937 
0.141782 0.0604359 0.627574 0.140288 0.0611949 0.623363 0.138343 0.0618649 0.618237 
0.135955 0.0624151 0.612153 0.133149 0.062821 0.605094 0.129962 0.0630663 0.597068 
0.126434 0.0631435 0.588111 0.122603 0.0630545 0.578278 0.118495 0.0628093 0.567644 
0.114125 0.0624248 0.556296 0.109494 0.0619218 0.544329 0.10459 0.0613229 0.531838 
0.0993906 0.0606494 0.518917 0.0938714 0.0599191 0.505648 0.0880088 0.059145 0.492104 
0.0817875 0.0583352 0.478345 0.0752039 0.057493 0.464413 0.068269 0.0566197 0.450338 
0.0610085 0.0557172 0.436138 0.0534609 0.0547915 0.421817 0.0456734 0.0538558 0.407371 
0.0376968 0.0529336 0.39279 0.0295805 0.0520601 0.378058 0.0213676 0.0512822 0.363158 
0.0130918 0.0506566 0.348068 0.004777 0.0502462 0.332768 -0.00356147 0.0501148 0.317234 
-0.0119126 0.0503205 0.301442 -0.0202638 0.0509093 0.285366 -0.0285946 0.0519084 0.268978 
-0.0368695 0.0533214 0.252247 -0.0450332 0.0551251 0.235143 -0.0530073 0.0572689 0.217637 
-0.0606909 0.0596773 0.199702 -0.0679639 0.0622544 0.181316 -0.0746937 0.064892 0.162466 
-0.0807453 0.0674782 0.14315 -0.0859918 0.0699069 0.123378 -0.0903263 0.0720879 0.103177 
-0.0936718 0.0739544 0.0825869 -0.0959891 0.0754687 0.0616626 -0.0972811 0.0766254 0.0404716 
-0.0975925 0.0774501 0.0190906 -0.0970054 0.0779958 -0.00239843 -0.0956313 0.0783356 -0.023913 
-0.0935993 0.0785544 -0.0453748 -0.0910437 0.0787378 -0.0667142 -0.0880906 0.0789627 -0.0878738 
-0.0848471 0.0792877 -0.108811 -0.0813921 0.0797468 -0.129498 -0.0777726 0.0803452 -0.149924 
-0.0740029 0.0810587 -0.17009 -0.0700694 0.0818367 -0.190007 -0.065938 0.0826072 -0.209691 
-0.0615645 0.0832855 -0.229158 -0.056906 0.0837825 -0.248421 -0.0519319 0.0840145 -0.267484 
-0.0466321 0.0839114 -0.286338 -0.0410229 0.0834231 -0.304963 -0.0351483 0.0825239 -0.323322 
-0.0290778 0.0812136 -0.341367 -0.0229001 0.0795158 -0.359039 -0.016714 0.0774746 -0.376272 
-0.0106186 0.0751481 -0.392999 -0.00470319 0.0726021 -0.409155 0.000961664 0.0699033 -0.42468 
0.00632949 0.067113 -0.439527 0.0113801 0.0642829 -0.45366 0.016118 0.061452 -0.46706 
0.0205668 0.0586461 -0.479721 0.0247615 0.055879 -0.491649 0.0287387 0.0531556 -0.502863 
0.0325274 0.0504754 -0.513389 0.0361408 0.0478365 -0.523257 0.0395712 0.0452398 -0.532501 
0.0427886 0.0426914 -0.541149 0.0457426 0.0402042 -0.549228 0.0483696 0.0377979 -0.556758 
0.050601 0.0354975 -0.563752 0.0523752 0.0333311 -0.570215 0.0536477 0.0313262 -0.57615 
0.0544016 0.029507 -0.581551 0.0546535 0.0278911 -0.586412 0.0544568 0.0264882 -0.590724 
0.053899 0.0252991 -0.594476 0.0530953 0.0243162 -0.597661 0.0521782 0.023526 -0.600271 
0.0512838 0.0229117 -0.602301 0.0505377 0.0224563 -0.603747 0.050041 0.0221463 -0.604606 
0.0498595 0.0219739 -0.604879 
LINES 2 100
OFFSETS vtktypeint64
0 100 
CONNECTIVITY vtktypeint64
0 1 2 3 4 5 6 7 8 
9 10 11 12 13 14 15 16 17 
18 19 20 21 22 23 24 25 26 
27 28 29 30 31 32 33 34 35 
36 37 38 39 40 41 42 43 44 
45 46 47 48 49 50 51 52 53 
54 55 56 57 58 59 60 61 62 
63 64 65 66 67 68 69 70 71 
72 73 74 75 76 77 78 79 80 
81 82 83 84 85 86 87 88 89 
90 91 92 93 94 95 96 97 98 
99 
POINT_DATA 100
FIELD FieldData 3
_theta 1 100 double
0 0.031733259127 0.063466518254 0.095199777382 0.12693303651 0.15866629564 0.19039955476 0.22213281389 0.25386607302 
0.28559933214 0.31733259127 0.3490658504 0.38079910953 0.41253236865 0.44426562778 0.47599888691 0.50773214603 0.53946540516 
0.57119866429 0.60293192342 0.63466518254 0.66639844167 0.6981317008 0.72986495992 0.76159821905 0.79333147818 0.82506473731 
0.85679799643 0.88853125556 0.92026451469 0.95199777382 0.98373103294 1.0154642921 1.0471975512 1.0789308103 1.1106640695 
1.1423973286 1.1741305877 1.2058638468 1.237597106 1.2693303651 1.3010636242 1.3327968833 1.3645301425 1.3962634016 
1.4279966607 1.4597299198 1.491463179 1.5231964381 1.5549296972 1.5866629564 1.6183962155 1.6501294746 1.6818627337 
1.7135959929 1.745329252 1.7770625111 1.8087957702 1.8405290294 1.8722622885 1.9039955476 1.9357288068 1.9674620659 
1.999195325 2.0309285841 2.0626618433 2.0943951024 2.1261283615 2.1578616206 2.1895948798 2.2213281389 2.253061398 
2.2847946572 2.3165279163 2.3482611754 2.3799944345 2.4117276937 2.4434609528 2.4751942119 2.506927471 2.5386607302 
2.5703939893 2.6021272484 2.6338605076 2.6655937667 2.6973270258 2.7290602849 2.7607935441 2.7925268032 2.8242600623 
2.8559933214 2.8877265806 2.9194598397 2.9511930988 2.982926358 3.0146596171 3.0463928762 3.0781261353 3.1098593945 
3.1415926536 
_radius 1 100 double
1.3348852133e-15 0.013468875294 0.026846778422 0.040042290541 0.052967883271 0.065540863333 0.077683444464 0.089322314781 0.10038834581 
0.11081713101 0.120550783 0.129540916 0.13775218357 0.1451653849 0.15177919772 0.15761006264 0.16269044218 0.16706627149 
0.17079460544 0.17394214263 0.17658462719 0.17880641427 0.18069906139 0.18235787173 0.18387589534 0.18533583345 0.18680127434 
0.18830930431 0.18986644199 0.19144897749 0.19300748675 0.1944741213 0.1957707578 0.19681638745 0.19753297668 0.19784996956 
0.19770821826 0.1970642372 0.19589532574 0.19420546022 0.19203110931 0.18944544611 0.18655899929 0.1835148413 0.18047725307 
0.17761463314 0.17507993132 0.17299389058 0.17143617536 0.17044630874 0.17003169565 0.17017672035 0.17084689621 0.17198520724 
0.17350299756 0.1752732502 0.17713563055 0.17891618084 0.18045460634 0.18162861113 0.1823688949 0.18266369287 0.18255448319 
0.18212532776 0.18148848753 0.18076886523 0.18008942208 0.17955895739 0.17926270366 0.17925541342 0.17955634187 0.18014588883 
0.18096437699 0.18191391935 0.18286411094 0.18366144875 0.18414142303 0.18414159098 0.18351382665 0.18213428159 0.17991018764 
0.17678323517 0.17272967859 0.16775752393 0.16190124233 0.15521455024 0.14776194917 0.13960991153 0.13081879191 0.12143664822 
0.1114960543 0.10101460413 0.089999190493 0.078453430217 0.066386970148 0.05382497147 0.040815905719 0.027435943075 0.013788705477 
1.5335561953e-15 
_area 1 100 double
0 0.00043098318576 0.0017209303332 0.0038588708733 0.0068207697844 0.010563299459 0.015018730564 0.020092587566 0.025664808673 
0.031594422747 0.037727319251 0.043906323507 0.049982255736 0.05582404643 0.061325841932 0.066409928472 0.071026106837 0.075149822616 
0.078781728241 0.081950151118 0.084715739746 0.087174860998 0.089455656809 0.091700682126 0.094037457116 0.096549970353 0.099264793783 
0.10215283461 0.10513973639 0.1081201029 0.11097410557 0.11358513812 0.11585549269 0.11771568888 0.11912249466 0.12004117364 
0.1204188352 0.12017951313 0.11925358832 0.11761296313 0.1152929249 0.11239984069 0.1091047911 0.10562208443 0.10217313043 
0.098938965423 0.09601308658 0.093384608145 0.090981692879 0.088754160975 0.086732785871 0.085029201854 0.083783743447 0.083094402632 
0.08296086705 0.083261489784 0.083777517865 0.084245336985 0.084399377757 0.08400775987 0.08291924837 0.081101087268 0.078641596964 
0.075727430886 0.072618161251 0.069612635841 0.066971950066 0.064850897393 0.063325847361 0.062473061127 0.062285171663 0.062612131395 
0.063278315259 0.06410136754 0.064890651304 0.065460396744 0.065658407158 0.065386574175 0.064618102263 0.063442826401 0.061991606496 
0.060193357842 0.058022646368 0.055469804302 0.05254618002 0.049308379577 0.045830339062 0.042167762811 0.038339213741 0.03433075838 
0.030120999828 0.025714825859 0.021170931724 0.016612464913 0.012218980571 0.0082051393861 0.0047938212312 0.0021896886082 0.00055653988293 
1.8395926325e-17 
