# vtk DataFile Version 5.1
vtk output
ASCII
DATASET POLYDATA
POINTS 100 float
0.0361705 0.0798239 0.817977 0.0360608 0.0799459 0.817802 0.0358359 0.0801667 0.816996 
0.0355347 0.0804736 0.81554 0.0352174 0.0808457 0.813399 0.0349578 0.0812551 0.810532 
0.034835 0.0816679 0.806886 0.034923 0.0820456 0.802404 0.0352805 0.0823468 0.797027 
0.0359416 0.0825288 0.790698 0.0369087 0.0825493 0.783368 0.038147 0.0823681 0.775002 
0.0395837 0.0819488 0.765582 0.0411091 0.0812599 0.755113 0.0425826 0.0802763 0.743625 
0.0438409 0.0789805 0.731176 0.044709 0.0773625 0.717849 0.0450131 0.0754212 0.70375 
0.0445932 0.0731641 0.689002 0.0433154 0.070607 0.673738 0.0410819 0.0677746 0.658093 
0.0378384 0.0646989 0.642195 0.0335773 0.0614194 0.626155 0.0283373 0.0579817 0.610059 
0.0221982 0.0544368 0.593967 0.0152727 0.0508397 0.577906 0.00769512 0.0472485 0.561872 
-0.000391927 0.0437232 0.54583 -0.00885047 0.0403241 0.529723 -0.0175595 0.037111 0.513477 
-0.0264247 0.034142 0.49701 -0.0353847 0.0314719 0.480237 -0.044413 0.0291518 0.463083 
-0.0535157 0.0272277 0.44548 -0.0627245 0.0257398 0.427379 -0.072087 0.0247212 0.408745 
-0.0816538 0.0241978 0.389559 -0.0914653 0.0241869 0.369813 -0.101539 0.024697 0.349505 
-0.111859 0.0257269 0.328641 -0.122367 0.0272659 0.307221 -0.132965 0.0292934 0.285247 
-0.14351 0.031779 0.262714 -0.153825 0.0346831 0.239615 -0.163713 0.0379578 0.215944 
-0.172962 0.0415481 0.191701 -0.18137 0.0453936 0.166895 -0.188753 0.0494302 0.141552 
-0.194965 0.0535924 0.115716 -0.199903 0.0578157 0.0894549 -0.203517 0.0620382 0.0628577 
-0.205809 0.0662035 0.0360326 -0.206832 0.0702616 0.00910203 -0.206683 0.0741703 -0.0178054 
-0.20549 0.0778957 -0.0445634 -0.203398 0.0814121 -0.0710571 -0.200559 0.0847013 -0.0971914 
-0.197116 0.087751 -0.122898 -0.193193 0.0905533 -0.148137 -0.188888 0.0931025 -0.1729 
-0.18427 0.0953932 -0.197207 -0.179378 0.0974184 -0.221099 -0.174222 0.0991683 -0.24463 
-0.168796 0.100629 -0.267858 -0.163082 0.101785 -0.290835 -0.157057 0.102615 -0.313599 
-0.150708 0.103099 -0.336164 -0.14403 0.103216 -0.358519 -0.137038 0.102949 -0.380628 
-0.129763 0.102286 -0.40243 -0.122253 0.101225 -0.423846 -0.114569 0.0997698 -0.444788 
-0.106782 0.0979363 -0.465164 -0.0989622 0.0957499 -0.484893 -0.0911792 0.0932452 -0.503906 
-0.0834928 0.0904635 -0.522155 -0.0759523 0.0874503 -0.539613 -0.0685946 0.0842522 -0.556276 
-0.0614457 0.0809134 -0.572157 -0.054523 0.0774732 -0.587281 -0.0478397 0.0739631 -0.601678 
-0.0414083 0.0704056 -0.615375 -0.0352453 0.0668142 -0.628391 -0.0293734 0.063194 -0.640729 
-0.023823 0.0595442 -0.652377 -0.0186315 0.0558611 -0.663308 -0.0138406 0.0521419 -0.673481 
-0.0094919 0.0483885 -0.682849 -0.00562234 0.0446117 -0.691365 -0.00225857 0.0408338 -0.698992 
0.000587569 0.0370906 -0.705705 0.00292223 0.0334321 -0.7115 0.00477076 0.0299214 -0.716395 
0.00617661 0.0266319 -0.720431 0.00719782 0.0236437 -0.723666 0.00790158 0.0210383 -0.726169 
0.0083574 0.0188932 -0.728015 0.00862963 0.0172764 -0.729275 0.00877038 0.0162412 -0.730005 
0.00881368 0.0158223 -0.730241 
LINES 2 100
OFFSETS vtktypeint64
0 100 
CONNECTIVITY vtktypeint64
0 1 2 3 4 5 6 7 8 
9 10 11 12 13 14 15 16 17 
18 19 20 21 22 23 24 25 26 
27 28 29 30 31 32 33 34 35 
36 37 38 39 40 41 42 43 44 
45 46 47 48 49 50 51 52 53 
54 55 56 57 58 59 60 61 62 
63 64 65 66 67 68 69 70 71 
72 73 74 75 76 77 78 79 80 
81 82 83 84 85 86 87 88 89 
90 91 92 93 94 95 96 97 98 
99 
POINT_DATA 100
FIELD FieldData 3
_theta 1 100 double
0 0.031733259127 0.063466518254 0.095199777382 0.12693303651 0.15866629564 0.19039955476 0.22213281389 0.25386607302 
0.28559933214 0.31733259127 0.3490658504 0.38079910953 0.41253236865 0.44426562778 0.47599888691 0.50773214603 0.53946540516 
0.57119866429 0.60293192342 0.63466518254 0.66639844167 0.6981317008 0.72986495992 0.76159821905 0.79333147818 0.82506473731 
0.85679799643 0.88853125556 0.92026451469 0.95199777382 0.98373103294 1.0154642921 1.0471975512 1.0789308103 1.1106640695 
1.1423973286 1.1741305877 1.2058638468 1.237597106 1.2693303651 1.3010636242 1.3327968833 1.3645301425 1.3962634016 
1.4279966607 1.4597299198 1.491463179 1.5231964381 1.5549296972 1.5866629564 1.6183962155 1.6501294746 1.6818627337 
1.7135959929 1.745329252 1.7770625111 1.8087957702 1.8405290294 1.8722622885 1.9039955476 1.9357288068 1.9674620659 
1.999195325 2.0309285841 2.0626618433 2.0943951024 2.1261283615 2.1578616206 2.1895948798 2.2213281389 2.253061398 
2.2847946572 2.3165279163 2.3482611754 2.3799944345 2.4117276937 2.4434609528 2.4751942119 2.506927471 2.5386607302 
2.5703939893 2.6021272484 2.6338605076 2.6655937667 2.6973270258 2.7290602849 2.7607935441 2.7925268032 2.8242600623 
2.8559933214 2.8877265806 2.9194598397 2.9511930988 2.982926358 3.0146596171 3.0463928762 3.0781261353 3.1098593945 
3.1415926536 
_radius 1 100 double
1.3332069403e-15 0.015677916327 0.031251932947 0.046610393247 0.061645999972 0.07625759557 0.090351200641 0.10384035857 0.11664609857 
0.12869705976 0.13993039751 0.15029393379 0.15974962007 0.16827786486 0.17588180356 0.18259031741 0.18845866124 0.19356599899 
0.19800991536 0.20189881249 0.20534359568 0.20844992712 0.21131170952 0.21400578632 0.2165875059 0.21908693631 0.22150598818 
0.22381716805 0.22596482294 0.2278694427 0.22943499643 0.23055863504 0.23114160111 0.23109997291 0.23037396745 0.22893489471 
0.22678935396 0.22398070314 0.22058804905 0.2167229699 0.21252402717 0.20814906066 0.20376542827 0.19953872298 0.19562095049 
0.19213958619 0.18918926855 0.18682786129 0.18507780899 0.18393209879 0.1833625439 0.18332759862 0.18377769656 0.18465737729 
0.18590455085 0.18744820941 0.18920675525 0.19108915716 0.1929998086 0.19484597832 0.19654555796 0.19803302099 0.19926254787 
0.20020831784 0.20086263879 0.20123289014 0.20133824906 0.20120685752 0.20087355065 0.20037775534 0.19976094168 0.19906314164 
0.19831843199 0.19754973566 0.19676366051 0.19594622656 0.1950601769 0.19404420386 0.19281405811 0.19126534088 0.18927784501 
0.18672145514 0.18346362432 0.17937821055 0.17435505257 0.1683092675 0.16118903229 0.15298065466 0.1437100526 0.13344028119 
0.12226536598 0.11030130102 0.097675528727 0.084516445369 0.070944410089 0.057065381132 0.042967740629 0.028722257381 0.014384653308 
2.7656659179e-16 
_area 1 100 double
0 0.00062857601358 0.002492693838 0.0055293496539 0.0096392918974 0.014694597928 0.020547509451 0.027039348726 0.034008521911 
0.041296863548 0.048753742312 0.056237460805 0.063614148407 0.07075634762 0.077545530473 0.083881109886 0.08969278768 0.094949064268 
0.099656944951 0.1038541174 0.10759883415 0.1109613256 0.11401799137 0.11685007327 0.11954831387 0.1222180247 0.12496819607 
0.12787094576 0.13091106061 0.13397361423 0.13687920333 0.13942953841 0.14143825382 0.14274664151 0.14322951183 0.14279603858 
0.14139254088 0.13901058155 0.13569585573 0.13155398385 0.12675317074 0.12152266959 0.1161455902 0.11094722573 0.10627313426 
0.10241680494 0.099501140202 0.097460343205 0.096082396217 0.095073253549 0.094169758586 0.093215877183 0.092174964933 0.091103373316 
0.090102702127 0.089268253809 0.088656415746 0.088278893836 0.088111100362 0.088099334264 0.088165206283 0.088213677994 0.088142159889 
0.087850968305 0.08726238159 0.086336675559 0.085073123659 0.083499346432 0.081658734256 0.079604550243 0.077393267576 0.075077664472 
0.072731113189 0.070476637359 0.068482302295 0.066961605243 0.066303622527 0.066639888005 0.067880157619 0.069343704359 0.070687689841 
0.071615574011 0.071860978358 0.07120714311 0.069504710501 0.066683605466 0.062758659651 0.057827994916 0.052063254013 0.04569226414 
0.038976504347 0.03218705884 0.02558326614 0.019397686626 0.01382910868 0.0090425377647 0.0051727185187 0.0023271436322 0.00058610368063 
5.2588039497e-18 
