# vtk DataFile Version 5.1
vtk output
ASCII
DATASET POLYDATA
POINTS 100 float
0.114284 0.0614568 0.73824 0.114416 0.0617033 0.738076 0.114888 0.0622899 0.737437 
0.115638 0.0631881 0.736335 0.116569 0.0643528 0.734787 0.117563 0.0657244 0.732808 
0.118492 0.0672329 0.730401 0.119229 0.0688022 0.727556 0.119664 0.0703542 0.724242 
0.11971 0.0718128 0.720406 0.119312 0.0731078 0.715974 0.118444 0.0741777 0.710857 
0.117112 0.0749715 0.704958 0.11534 0.0754499 0.698185 0.113167 0.0755863 0.690461 
0.110631 0.0753658 0.681735 0.107763 0.0747853 0.671994 0.104576 0.0738522 0.661263 
0.10106 0.0725837 0.649612 0.0971847 0.0710054 0.637151 0.0928978 0.0691508 0.624017 
0.0881358 0.0670598 0.610371 0.0828325 0.0647777 0.596375 0.0769305 0.0623539 0.582183 
0.0703925 0.0598406 0.567924 0.0632103 0.0572905 0.553691 0.0554112 0.0547555 0.539536 
0.0470591 0.0522841 0.525461 0.0382523 0.0499198 0.511431 0.0291152 0.0476995 0.497371 
0.019788 0.045652 0.483182 0.0104128 0.043798 0.468754 0.00112022 0.0421504 0.453979 
-0.00798385 0.0407155 0.438759 -0.0168275 0.0394953 0.42302 -0.0253787 0.0384896 0.406717 
-0.0336452 0.0376996 0.389831 -0.0416702 0.03713 0.372367 -0.0495222 0.0367911 0.354349 
-0.057282 0.0367003 0.335806 -0.0650271 0.0368819 0.316768 -0.0728162 0.0373654 0.29725 
-0.0806754 0.0381829 0.27725 -0.0885877 0.0393651 0.256744 -0.0964876 0.040937 0.235685 
-0.104261 0.0429128 0.214013 -0.111751 0.0452916 0.19166 -0.118769 0.0480545 0.168563 
-0.125109 0.0511625 0.144674 -0.130564 0.054557 0.119978 -0.134948 0.0581619 0.0944927 
-0.138105 0.0618881 0.0682826 -0.139928 0.0656389 0.041454 -0.140365 0.0693172 0.0141525 
-0.139421 0.0728325 -0.0134469 -0.137159 0.0761072 -0.0411529 -0.133692 0.0790818 -0.0687726 
-0.129167 0.0817186 -0.0961281 -0.12376 0.084002 -0.12307 -0.117651 0.0859372 -0.14949 
-0.111018 0.0875463 -0.175326 -0.104017 0.0888622 -0.200564 -0.0967793 0.0899217 -0.225235 
-0.0894009 0.0907582 -0.249406 -0.0819425 0.0913948 -0.273167 -0.0744322 0.0918393 -0.296619 
-0.0668701 0.0920808 -0.319852 -0.0592365 0.0920889 -0.34294 -0.0515009 0.0918165 -0.365923 
-0.0436308 0.0912037 -0.388803 -0.0356004 0.0901843 -0.411542 -0.0273966 0.0886937 -0.434063 
-0.0190241 0.0866765 -0.456257 -0.010507 0.0840934 -0.477994 -0.00188922 0.0809271 -0.499134 
0.00676788 0.0771849 -0.519539 0.0153887 0.0728997 -0.539085 0.0238879 0.0681277 -0.55767 
0.0321748 0.0629441 -0.575223 0.0401583 0.0574367 -0.591703 0.0477506 0.0516988 -0.607099 
0.0548713 0.0458222 -0.621429 0.0614498 0.0398906 -0.634731 0.0674277 0.033975 -0.647054 
0.0727608 0.0281311 -0.658458 0.0774201 0.0223993 -0.668998 0.081393 0.0168068 -0.678724 
0.0846838 0.0113714 -0.687679 0.0873142 0.00610734 -0.69589 0.089323 0.00103033 -0.703379 
0.0907651 -0.00383687 -0.710154 0.0917097 -0.00846068 -0.716217 0.0922378 -0.0127947 -0.72157 
0.0924386 -0.01678 -0.726208 0.0924047 -0.0203474 -0.73013 0.0922273 -0.0234223 -0.733335 
0.0919906 -0.0259303 -0.735823 0.0917666 -0.0278039 -0.737596 0.0916105 -0.0289887 -0.738656 
0.0915567 -0.0294488 -0.739003 
LINES 2 100
OFFSETS vtktypeint64
0 100 
CONNECTIVITY vtktypeint64
0 1 2 3 4 5 6 7 8 
9 10 11 12 13 14 15 16 17 
18 19 20 21 22 23 24 25 26 
27 28 29 30 31 32 33 34 35 
36 37 38 39 40 41 42 43 44 
45 46 47 48 49 50 51 52 53 
54 55 56 57 58 59 60 61 62 
63 64 65 66 67 68 69 70 71 
72 73 74 75 76 77 78 79 80 
81 82 83 84 85 86 87 88 89 
90 91 92 93 94 95 96 97 98 
99 
POINT_DATA 100
FIELD FieldData 3
_theta 1 100 double
0 0.031733259127 0.063466518254 0.095199777382 0.12693303651 0.15866629564 0.19039955476 0.22213281389 0.25386607302 
0.28559933214 0.31733259127 0.3490658504 0.38079910953 0.41253236865 0.44426562778 0.47599888691 0.50773214603 0.53946540516 
0.57119866429 0.60293192342 0.63466518254 0.66639844167 0.6981317008 0.72986495992 0.76159821905 0.79333147818 0.82506473731 
0.85679799643 0.88853125556 0.92026451469 0.95199777382 0.98373103294 1.0154642921 1.0471975512 1.0789308103 1.1106640695 
1.1423973286 1.1741305877 1.2058638468 1.237597106 1.2693303651 1.3010636242 1.3327968833 1.3645301425 1.3962634016 
1.4279966607 1.4597299198 1.491463179 1.5231964381 1.5549296972 1.5866629564 1.6183962155 1.6501294746 1.6818627337 
1.7135959929 1.745329252 1.7770625111 1.8087957702 1.8405290294 1.8722622885 1.9039955476 1.9357288068 1.9674620659 
1.999195325 2.0309285841 2.0626618433 2.0943951024 2.1261283615 2.1578616206 2.1895948798 2.2213281389 2.253061398 
2.2847946572 2.3165279163 2.3482611754 2.3799944345 2.4117276937 2.4434609528 2.4751942119 2.506927471 2.5386607302 
2.5703939893 2.6021272484 2.6338605076 2.6655937667 2.6973270258 2.7290602849 2.7607935441 2.7925268032 2.8242600623 
2.8559933214 2.8877265806 2.9194598397 2.9511930988 2.982926358 3.0146596171 3.0463928762 3.0781261353 3.1098593945 
3.1415926536 
_radius 1 100 double
6.7221374071e-16 0.014542841316 0.029117909582 0.043738846332 0.05839587606 0.073046997103 0.087612821299 0.10197645731 0.11598922725 
0.1294819648 0.14228049996 0.15422306159 0.16517695903 0.1750520847 0.18380940083 0.19146344564 0.19807881143 0.20376135838 
0.20864555102 0.21287971127 0.21661114501 0.21997297428 0.22307408676 0.22599300367 0.22877586958 0.23143833877 0.23397083503 
0.23634632527 0.2385293019 0.24048430263 0.2421822963 0.24360374108 0.24473792571 0.24557906271 0.24612028463 0.24634707802 
0.24623175888 0.24573039222 0.24478316083 0.24331866917 0.24126209644 0.23854653842 0.23512633932 0.23099075259 0.22617594692 
0.22077326278 0.21493178055 0.20885370907 0.2027818794 0.19697981972 0.19170652489 0.18718984536 0.18360362099 0.18105316226 
0.17957085683 0.17911972607 0.17960047263 0.18085888334 0.18269412826 0.18487102732 0.18713836731 0.18925183226 0.19099720435 
0.19220922417 0.19278334166 0.19267986162 0.19192150331 0.1905858832 0.1887942438 0.1866974359 0.18446009626 0.18224416577 
0.18019311524 0.17841823837 0.17698812288 0.17592210128 0.17518817264 0.17470540755 0.17435014188 0.17396471182 0.17336756261 
0.17236419554 0.17075895514 0.16836757433 0.16502976713 0.16062046788 0.15505800988 0.14830779712 0.1403807816 0.13132709225 
0.12122618137 0.11017558211 0.098280590148 0.085646802794 0.072376544634 0.058569036778 0.044323097294 0.029740553592 0.014928600484 
6.7200045784e-16 
_area 1 100 double
0 0.00050477315956 0.0020275876992 0.0045909747204 0.0082228600637 0.012942990144 0.01874603527 0.025584194767 0.033353179497 
0.041885590746 0.050954614202 0.060288862834 0.069596745808 0.078596592093 0.087047416184 0.094774824347 0.10168708449 0.10777792018 
0.11311531676 0.11781938962 0.12203614841 0.12591561176 0.12959996565 0.13322070254 0.13689677266 0.14072402798 0.14475363153 
0.14897033132 0.15328713304 0.15756308813 0.16163606233 0.16535571688 0.16860509455 0.17130638564 0.1734125778 0.17489022958 
0.17570000459 0.17578145553 0.17504729759 0.17339040706 0.17070383245 0.16690970788 0.16198863221 0.15600068526 0.14909341015 
0.14149646852 0.13350407356 0.12544639673 0.11765374075 0.11042064398 0.10397434479 0.098449466367 0.093883193542 0.090257094508 
0.087579313123 0.085908240583 0.085237456055 0.085442655815 0.086297503686 0.087487429648 0.088653342424 0.089456067654 0.089630746957 
0.089014087174 0.087545855351 0.085254899159 0.08223807111 0.078640315078 0.074641845588 0.070451366187 0.066300599306 0.062434316594 
0.059088394032 0.056460225605 0.054696483604 0.053889319887 0.054100505242 0.055251919592 0.056988034654 0.05898366788 0.060953129012 
0.062605789458 0.063652405138 0.063833798512 0.06295492118 0.060912266082 0.057707278062 0.053443076822 0.048306211476 0.042538620556 
0.036406707039 0.030174164455 0.024083231393 0.01834612209 0.013145274355 0.0086385234305 0.0049641310641 0.0022414521288 0.00056585312198 
5.3342746886e-17 
