# vtk DataFile Version 5.1
vtk output
ASCII
DATASET POLYDATA
POINTS 100 float
0.070147 0.0431918 0.744487 0.0700447 0.0433331 0.743587 0.0697628 0.0436396 0.740846 
0.069305 0.0441021 0.736428 0.0686781 0.0447048 0.730586 0.0678915 0.0454252 0.723634 
0.066957 0.0462356 0.715913 0.0658893 0.0471038 0.707754 0.0647051 0.0479952 0.699442 
0.0634231 0.0488752 0.691195 0.0620637 0.0497115 0.683138 0.0606485 0.050477 0.675303 
0.0591985 0.051152 0.667631 0.0577334 0.0517263 0.659992 0.0562691 0.0521998 0.652205 
0.0548151 0.0525829 0.644073 0.0533723 0.0528946 0.635408 0.0519301 0.0531601 0.626058 
0.0504643 0.0534071 0.615932 0.0489361 0.0536616 0.605001 0.0472925 0.0539433 0.593309 
0.045468 0.0542618 0.580955 0.0433885 0.0546135 0.568083 0.0409771 0.0549801 0.554856 
0.0381605 0.055329 0.541431 0.0348773 0.0556157 0.527941 0.031085 0.0557881 0.514475 
0.0267669 0.0557915 0.501068 0.0219362 0.0555761 0.4877 0.0166374 0.0551028 0.474302 
0.0109441 0.0543495 0.46077 0.00495348 0.0533154 0.446985 -0.001223 0.0520233 0.432829 
-0.00747148 0.0505196 0.418208 -0.0136886 0.0488713 0.403066 -0.0197941 0.0471613 0.387389 
-0.0257419 0.0454812 0.371211 -0.0315267 0.0439237 0.354602 -0.0371862 0.0425747 0.337658 
-0.0427972 0.0415063 0.32048 -0.0484657 0.0407714 0.303152 -0.0543121 0.0404007 0.285731 
-0.0604519 0.040403 0.268224 -0.0669752 0.040767 0.250586 -0.0739263 0.0414664 0.232719 
-0.0812876 0.0424662 0.21448 -0.0889684 0.0437292 0.195702 -0.0968021 0.0452232 0.176209 
-0.104552 0.0469256 0.155841 -0.111926 0.0488268 0.134478 -0.118599 0.0509302 0.112057 
-0.124243 0.0532501 0.0885817 -0.128558 0.0558069 0.0641269 -0.1313 0.05862 0.0388325 
-0.132313 0.0617003 0.0128887 -0.13154 0.0650427 -0.0134838 -0.12904 0.06862 -0.0400579 
-0.124978 0.0723789 -0.0666247 -0.119611 0.0762389 -0.0930146 -0.113261 0.080095 -0.119113 
-0.106283 0.0838227 -0.144868 -0.0990207 0.087287 -0.170289 -0.091773 0.0903511 -0.195439 
-0.0847555 0.0928879 -0.220414 -0.0780765 0.094789 -0.245324 -0.071723 0.0959725 -0.270268 
-0.0655613 0.0963882 -0.295314 -0.0593519 0.0960188 -0.320477 -0.052777 0.0948779 -0.345711 
-0.0454788 0.0930042 -0.370903 -0.0371026 0.090454 -0.395885 -0.0273417 0.0872918 -0.420439 
-0.0159768 0.0835807 -0.444322 -0.00290697 0.0793746 -0.467289 0.0118325 0.0747123 -0.489113 
0.0280678 0.0696149 -0.509609 0.0454987 0.064087 -0.528646 0.0637263 0.0581208 -0.546159 
0.0822902 0.0517039 -0.562151 0.100713 0.0448276 -0.576681 0.118547 0.037497 -0.589857 
0.135412 0.0297391 -0.601819 0.151032 0.0216096 -0.612716 0.165253 0.0131951 -0.622692 
0.178048 0.00461298 -0.63187 0.189505 -0.00399419 -0.640344 0.199805 -0.0124667 -0.64817 
0.209188 -0.020639 -0.655374 0.217911 -0.0283521 -0.661952 0.226209 -0.0354658 -0.667884 
0.234259 -0.0418691 -0.673146 0.242151 -0.0474876 -0.677718 0.249876 -0.052287 -0.681596 
0.257327 -0.0562717 -0.684794 0.264308 -0.0594796 -0.687348 0.270563 -0.061973 -0.689311 
0.27581 -0.0638269 -0.690745 0.279776 -0.065116 -0.691714 0.282238 -0.0659034 -0.692272 
0.283048 -0.06623 -0.692455 
LINES 2 100
OFFSETS vtktypeint64
0 100 
CONNECTIVITY vtktypeint64
0 1 2 3 4 5 6 7 8 
9 10 11 12 13 14 15 16 17 
18 19 20 21 22 23 24 25 26 
27 28 29 30 31 32 33 34 35 
36 37 38 39 40 41 42 43 44 
45 46 47 48 49 50 51 52 53 
54 55 56 57 58 59 60 61 62 
63 64 65 66 67 68 69 70 71 
72 73 74 75 76 77 78 79 80 
81 82 83 84 85 86 87 88 89 
90 91 92 93 94 95 96 97 98 
99 
POINT_DATA 100
FIELD FieldData 3
_theta 1 100 double
0 0.031733259127 0.063466518254 0.095199777382 0.12693303651 0.15866629564 0.19039955476 0.22213281389 0.25386607302 
0.28559933214 0.31733259127 0.3490658504 0.38079910953 0.41253236865 0.44426562778 0.47599888691 0.50773214603 0.53946540516 
0.57119866429 0.60293192342 0.63466518254 0.66639844167 0.6981317008 0.72986495992 0.76159821905 0.79333147818 0.82506473731 
0.85679799643 0.88853125556 0.92026451469 0.95199777382 0.98373103294 1.0154642921 1.0471975512 1.0789308103 1.1106640695 
1.1423973286 1.1741305877 1.2058638468 1.237597106 1.2693303651 1.3010636242 1.3327968833 1.3645301425 1.3962634016 
1.4279966607 1.4597299198 1.491463179 1.5231964381 1.5549296972 1.5866629564 1.6183962155 1.6501294746 1.6818627337 
1.7135959929 1.745329252 1.7770625111 1.8087957702 1.8405290294 1.8722622885 1.9039955476 1.9357288068 1.9674620659 
1.999195325 2.0309285841 2.0626618433 2.0943951024 2.1261283615 2.1578616206 2.1895948798 2.2213281389 2.253061398 
2.2847946572 2.3165279163 2.3482611754 2.3799944345 2.4117276937 2.4434609528 2.4751942119 2.506927471 2.5386607302 
2.5703939893 2.6021272484 2.6338605076 2.6655937667 2.6973270258 2.7290602849 2.7607935441 2.7925268032 2.8242600623 
2.8559933214 2.8877265806 2.9194598397 2.9511930988 2.982926358 3.0146596171 3.0463928762 3.0781261353 3.1098593945 
3.1415926536 
_radius 1 100 double
1.9991361574e-15 0.011731828793 0.023666057526 0.03597191933 0.048763866049 0.062082614369 0.075885320416 0.090046506295 0.10437004188 
0.11861093052 0.13250410532 0.14579622099 0.15827580993 0.16979732721 0.18029553219 0.18978817511 0.1983667997 0.20617732049 
0.21339358409 0.2201881347 0.22670472081 0.23303666201 0.23921413036 0.24520191088 0.25090758289 0.25619857093 0.26092531169 
0.2649469652 0.26815575142 0.27049620002 0.2719763794 0.27266941725 0.27270513024 0.27225308868 0.27149971262 0.27062283033 
0.2697673759 0.2690255106 0.268423572 0.26791724236 0.26739552882 0.26669356472 0.26561349601 0.26395149561 0.26152751384 
0.25821343089 0.25395534577 0.2487867579 0.24283089583 0.23629189348 0.22943560093 0.22256163111 0.21596925451 0.20992136651 
0.2046124585 0.20014669167 0.19652970121 0.1936739801 0.19141519931 0.1895364024 0.18779728859 0.18596557608 0.18384697187 
0.18131034392 0.1783054279 0.17487129328 0.17113446036 0.16729615246 0.16360908182 0.16034558916 0.15776073022 0.15605560817 
0.15534733285 0.15565175982 0.15688284712 0.15886805774 0.16137451559 0.16413821408 0.16688950755 0.16937110916 0.17134794458 
0.17261050844 0.17297477163 0.17228204466 0.17040110536 0.16723265168 0.16271406905 0.15682173048 0.14956876721 0.14099800602 
0.13117176376 0.12016156445 0.10804105963 0.094884435534 0.080770736951 0.065792463808 0.05006523241 0.033734806272 0.016978544872 
1.5489359491e-15 
_area 1 100 double
0 0.00035351540925 0.0014313644805 0.0032817137233 0.0059730483416 0.0095785321668 0.014157450514 0.019736224852 0.026291961688 
0.033741887738 0.041941752892 0.050694968025 0.059772035435 0.068937376979 0.07797876116 0.086733731643 0.095107921261 0.10308169561 
0.11070367973 0.11807174895 0.12530380088 0.13250264018 0.13972203061 0.14694277784 0.15406582058 0.16092428215 0.16731205846 
0.1730241058 0.1779012942 0.18186981653 0.18496358846 0.18732056897 0.18914910734 0.1906619264 0.19200088127 0.19320977298 
0.19427204498 0.19514639375 0.19577273267 0.1960779899 0.19596945247 0.19532540623 0.19396182627 0.1918563613 0.18924578799 
0.18592549726 0.18134507466 0.17525828451 0.16788773828 0.15964027565 0.1510263366 0.14257009466 0.13470714996 0.12770518568 
0.12166312493 0.11650535314 0.11192621641 0.10765081746 0.10348489544 0.09931084996 0.095075052002 0.090754388123 0.086351055879 
0.081915959428 0.077570507574 0.073526286039 0.070083185787 0.067082537383 0.064493054866 0.062420500131 0.06108249248 0.060382078508 
0.060196646157 0.060488860671 0.061202210794 0.06224252871 0.063480175193 0.06476495895 0.065947676257 0.066902020227 0.067538798811 
0.067802825137 0.067650798946 0.067024846348 0.065844398136 0.064016517278 0.061441376786 0.058035273679 0.053746921605 0.048594709632 
0.042693729539 0.03625118195 0.029541417344 0.022877661953 0.016585642143 0.010978106163 0.0063304380574 0.00286115915 0.00072219417571 
7.0243155914e-17 
