# vtk DataFile Version 5.1
vtk output
ASCII
DATASET POLYDATA
POINTS 100 float
0.114064 0.0585218 0.658241 0.114242 0.0586803 0.658187 0.114825 0.05896 0.657879 
0.11573 0.0593521 0.657293 0.116833 0.0598428 0.656386 0.117978 0.0604132 0.655103 
0.118996 0.0610395 0.653374 0.119723 0.0616934 0.651125 0.120015 0.062342 0.648276 
0.119764 0.0629495 0.644751 0.118902 0.0634781 0.640482 0.117407 0.0638896 0.635413 
0.1153 0.0641477 0.629506 0.112632 0.0642204 0.622743 0.109478 0.0640817 0.615133 
0.105918 0.0637138 0.606706 0.102026 0.063109 0.597517 0.0978566 0.0622698 0.58764 
0.0934394 0.0612101 0.577168 0.0887729 0.0599536 0.566201 0.0838288 0.0585329 0.554843 
0.0785587 0.0569873 0.543195 0.0729051 0.05536 0.531343 0.066814 0.0536951 0.519359 
0.0602486 0.0520354 0.507289 0.0532003 0.0504189 0.495154 0.0456963 0.0488778 0.482947 
0.0378028 0.0474368 0.470637 0.0296213 0.0461127 0.458168 0.0212813 0.0449156 0.445469 
0.0129271 0.0438499 0.432457 0.00470245 0.0429162 0.419047 -0.00326578 0.0421143 0.405158 
-0.0108825 0.0414452 0.390718 -0.0180957 0.0409134 0.375674 -0.0249034 0.0405286 0.35999 
-0.0313529 0.0403066 0.343651 -0.0375351 0.0402689 0.326664 -0.0435717 0.040442 0.30905 
-0.0495987 0.0408549 0.290846 -0.0557466 0.0415367 0.272095 -0.0621208 0.0425133 0.252842 
-0.0687835 0.043804 0.23313 -0.0757412 0.0454184 0.212992 -0.0829368 0.0473537 0.192454 
-0.0902494 0.0495934 0.171527 -0.0975022 0.0521066 0.150214 -0.104475 0.0548485 0.128509 
-0.110925 0.0577623 0.106404 -0.116606 0.0607824 0.0838905 -0.121291 0.0638378 0.0609672 
-0.124798 0.0668563 0.0376439 -0.126998 0.0697692 0.0139454 -0.127831 0.0725152 -0.0100864 
-0.127309 0.0750436 -0.0343921 -0.12551 0.0773172 -0.0588967 -0.122569 0.0793133 -0.0835127 
-0.118665 0.0810243 -0.108146 -0.113996 0.0824557 -0.132699 -0.108765 0.0836247 -0.157081 
-0.103159 0.0845561 -0.181211 -0.0973302 0.0852792 -0.205021 -0.0913906 0.0858233 -0.228462 
-0.0854027 0.086214 -0.251501 -0.0793821 0.0864694 -0.274122 -0.0733039 0.0865977 -0.296325 
-0.0671144 0.0865952 -0.318113 -0.0607453 0.0864462 -0.339494 -0.054129 0.0861229 -0.360473 
-0.0472139 0.0855875 -0.381041 -0.0399764 0.0847948 -0.401179 -0.0324298 0.0836951 -0.420848 
-0.0246276 0.0822385 -0.439992 -0.0166627 0.0803782 -0.458542 -0.008661 0.0780746 -0.476417 
-0.000771962 0.0752982 -0.493533 0.00684446 0.0720328 -0.509809 0.0140314 0.0682766 -0.525176 
0.0206486 0.0640435 -0.539584 0.0265841 0.059363 -0.553009 0.0317632 0.0542794 -0.565459 
0.0361533 0.04885 -0.576969 0.0397648 0.0431431 -0.587606 0.0426482 0.037235 -0.597461 
0.0448874 0.0312076 -0.60664 0.0465901 0.025145 -0.615259 0.0478774 0.0191313 -0.623426 
0.048872 0.0132476 -0.63124 0.0496878 0.00757033 -0.638771 0.0504206 0.00216962 -0.646058 
0.0511419 -0.00289178 -0.653103 0.051895 -0.00755906 -0.65987 0.0526947 -0.0117854 -0.666284 
0.0535295 -0.0155318 -0.672242 0.0543668 -0.0187664 -0.677617 0.0551592 -0.0214636 -0.682271 
0.0558528 -0.0236037 -0.686067 0.0563951 -0.0251717 -0.688885 0.0567419 -0.0261566 -0.690627 
0.0568638 -0.0265513 -0.69123 
LINES 2 100
OFFSETS vtktypeint64
0 100 
CONNECTIVITY vtktypeint64
0 1 2 3 4 5 6 7 8 
9 10 11 12 13 14 15 16 17 
18 19 20 21 22 23 24 25 26 
27 28 29 30 31 32 33 34 35 
36 37 38 39 40 41 42 43 44 
45 46 47 48 49 50 51 52 53 
54 55 56 57 58 59 60 61 62 
63 64 65 66 67 68 69 70 71 
72 73 74 75 76 77 78 79 80 
81 82 83 84 85 86 87 88 89 
90 91 92 93 94 95 96 97 98 
99 
POINT_DATA 100
FIELD FieldData 3
_theta 1 100 double
0 0.031733259127 0.063466518254 0.095199777382 0.12693303651 0.15866629564 0.19039955476 0.22213281389 0.25386607302 
0.28559933214 0.31733259127 0.3490658504 0.38079910953 0.41253236865 0.44426562778 0.47599888691 0.50773214603 0.53946540516 
0.57119866429 0.60293192342 0.63466518254 0.66639844167 0.6981317008 0.72986495992 0.76159821905 0.79333147818 0.82506473731 
0.85679799643 0.88853125556 0.92026451469 0.95199777382 0.98373103294 1.0154642921 1.0471975512 1.0789308103 1.1106640695 
1.1423973286 1.1741305877 1.2058638468 1.237597106 1.2693303651 1.3010636242 1.3327968833 1.3645301425 1.3962634016 
1.4279966607 1.4597299198 1.491463179 1.5231964381 1.5549296972 1.5866629564 1.6183962155 1.6501294746 1.6818627337 
1.7135959929 1.745329252 1.7770625111 1.8087957702 1.8405290294 1.8722622885 1.9039955476 1.9357288068 1.9674620659 
1.999195325 2.0309285841 2.0626618433 2.0943951024 2.1261283615 2.1578616206 2.1895948798 2.2213281389 2.253061398 
2.2847946572 2.3165279163 2.3482611754 2.3799944345 2.4117276937 2.4434609528 2.4751942119 2.506927471 2.5386607302 
2.5703939893 2.6021272484 2.6338605076 2.6655937667 2.6973270258 2.7290602849 2.7607935441 2.7925268032 2.8242600623 
2.8559933214 2.8877265806 2.9194598397 2.9511930988 2.982926358 3.0146596171 3.0463928762 3.0781261353 3.1098593945 
3.1415926536 
_radius 1 100 double
1.334722892e-15 0.014372607055 0.028709920394 0.042967975464 0.057103666521 0.071072444254 0.084824108575 0.098298340823 0.11142241254 
0.12411321973 0.13628432525 0.14785667983 0.15877011567 0.16899222816 0.17852194279 0.18738654113 0.19563269534 0.20331364659 
0.21047564453 0.21714689176 0.22333150179 0.22900963817 0.23414348301 0.23868742409 0.24260013739 0.24585613068 0.24845467626 
0.25042470303 0.25182497064 0.25273959213 0.25326961408 0.25352183384 0.25359629217 0.25357394142 0.2535059257 0.25340578876 
0.25324575212 0.25295790247 0.25244062972 0.25157001155 0.25021519455 0.24825629054 0.24560291906 0.24221126663 0.23809741873 
0.23334480677 0.22810397277 0.22258355876 0.21703254814 0.21171534492 0.20688308892 0.20274608407 0.19945249529 0.19707702815 
0.19562061209 0.19501934928 0.19515916686 0.1958921474 0.19705145348 0.19846370417 0.19995958792 0.20138423294 0.20260800073 
0.20353671387 0.20411916777 0.20434980817 0.20426546597 0.20393639914 0.20345306177 0.20291070179 0.2023939749 0.20196332084 
0.20164414363 0.20141936986 0.20122619065 0.20095826117 0.20047397139 0.19960962344 0.19819512924 0.19606986492 0.19309686985 
0.18917402232 0.18424116238 0.17828256731 0.17132476615 0.16343027831 0.15468830558 0.14520362461 0.13508498903 0.12443436789 
0.11333834848 0.10186292471 0.090052545507 0.077933646906 0.065522001724 0.052832293208 0.039887646313 0.026726716853 0.013406482794 
2.8740462494e-16 
_area 1 100 double
0 0.00059682502762 0.0023771211589 0.0053111790698 0.0093516448498 0.014434984989 0.020480998849 0.027389972997 0.035039055592 
0.043281021555 0.051948446747 0.060864259518 0.06985690882 0.078776430827 0.087507235452 0.095974424343 0.10414238552 0.11200653771 
0.11958067219 0.12688293859 0.1339232259 0.14069391821 0.14716511459 0.15328458094 0.15898222618 0.16417885592 0.16879857106 
0.17278263664 0.17610093709 0.17875726535 0.18078709796 0.18224962989 0.18321773939 0.18376912574 0.18397931544 0.1839140664 
0.18361701703 0.18309067738 0.18227716515 0.18105341697 0.17924901738 0.17667854137 0.17317673083 0.16863146485 0.16301244208 
0.1563918739 0.14895260427 0.14098223964 0.13285858631 0.12503743583 0.1180415487 0.11237206208 0.10824916077 0.10551488726 
0.10386054576 0.10296731706 0.10253007263 0.10226453885 0.10192071343 0.10130066228 0.10027697994 0.098806788397 0.096931619391 
0.094754699758 0.092397219578 0.089951763254 0.087461913963 0.084943614456 0.082428245809 0.079990575703 0.077747910406 0.075839715528 
0.074396434533 0.073498125373 0.07313125871 0.073198512431 0.073578735183 0.074123723119 0.07462509226 0.074846672234 0.074573811442 
0.073633535728 0.07190029638 0.069304636566 0.065843231233 0.061579957632 0.056635176205 0.051167207141 0.045351446033 0.039362131349 
0.033360463641 0.027490633527 0.021882772354 0.016659643327 0.011942889777 0.0078553348554 0.0045177980432 0.0020410966819 0.00051543489996 
1.1282472253e-17 
