# vtk DataFile Version 5.1
vtk output
ASCII
DATASET POLYDATA
POINTS 100 float
0.119203 0.0673174 0.74379 0.119414 0.0674874 0.743392 0.120064 0.0678522 0.74208 
0.121075 0.0683942 0.739894 0.122325 0.0690861 0.736895 0.123661 0.0698923 0.733155 
0.12492 0.0707716 0.728749 0.125941 0.0716799 0.723746 0.126584 0.0725723 0.718196 
0.126744 0.0734063 0.712131 0.126355 0.0741432 0.705557 0.125394 0.0747498 0.698456 
0.123878 0.0751992 0.690794 0.121855 0.0754708 0.682526 0.119392 0.0755501 0.673607 
0.116562 0.0754272 0.664002 0.113429 0.0750962 0.653693 0.110041 0.0745537 0.642688 
0.106419 0.0737978 0.631021 0.102556 0.0728271 0.618753 0.0984194 0.0716409 0.605968 
0.0939577 0.070239 0.592764 0.08911 0.0686226 0.579241 0.0838175 0.0667961 0.565496 
0.0780348 0.0647676 0.551611 0.071739 0.0625517 0.537645 0.0649353 0.0601701 0.523633 
0.0576592 0.0576532 0.50958 0.0499729 0.0550407 0.495473 0.0419586 0.0523813 0.481276 
0.0337087 0.0497316 0.466947 0.0253146 0.047155 0.452442 0.0168557 0.0447186 0.437722 
0.00839044 0.0424904 0.422758 -4.90856e-05 0.0405362 0.407537 -0.00845824 0.038916 0.392053 
-0.0168565 0.0376806 0.37631 -0.0252798 0.0368694 0.360308 -0.0337701 0.0365079 0.344041 
-0.0423634 0.0366064 0.327483 -0.0510774 0.0371603 0.310585 -0.0599022 0.0381503 0.29327 
-0.0687934 0.0395445 0.275434 -0.0776703 0.0412998 0.256953 -0.0864185 0.0433659 0.237691 
-0.0948976 0.0456872 0.217513 -0.102951 0.0482068 0.196299 -0.110419 0.0508689 0.173963 
-0.117151 0.0536215 0.150464 -0.123019 0.0564179 0.125812 -0.127922 0.0592186 0.100079 
-0.131795 0.0619909 0.0733926 -0.134603 0.0647094 0.0459318 -0.136343 0.0673551 0.0179115 
-0.137032 0.0699142 -0.0104321 -0.136698 0.0723764 -0.0388608 -0.13537 0.0747337 -0.0671523 
-0.133074 0.0769786 -0.0951164 -0.12982 0.0791025 -0.122607 -0.125607 0.0810952 -0.149526 
-0.120423 0.0829433 -0.175827 -0.114252 0.0846302 -0.201507 -0.107085 0.086136 -0.226595 
-0.0989277 0.0874376 -0.251139 -0.0898157 0.0885093 -0.275191 -0.0798183 0.0893235 -0.298793 
-0.0690445 0.0898517 -0.321964 -0.0576415 0.0900659 -0.344695 -0.0457887 0.0899394 -0.366948 
-0.0336861 0.0894481 -0.388656 -0.02154 0.0885723 -0.409737 -0.00954533 0.0872974 -0.430101 
0.00212974 0.0856157 -0.449665 0.0133582 0.0835272 -0.468366 0.0240631 0.0810406 -0.486168 
0.0342207 0.0781744 -0.50307 0.0438567 0.0749572 -0.519104 0.0530365 0.0714274 -0.53433 
0.0618495 0.0676336 -0.548828 0.0703909 0.0636327 -0.56268 0.0787419 0.0594893 -0.575961 
0.0869527 0.0552731 -0.588722 0.0950289 0.051057 -0.600979 0.102925 0.0469138 -0.612708 
0.110545 0.0429133 -0.623846 0.117751 0.0391197 -0.634293 0.124379 0.0355883 -0.643928 
0.130259 0.0323635 -0.652622 0.135237 0.0294767 -0.660259 0.139198 0.0269452 -0.666751 
0.142084 0.0247727 -0.672054 0.143907 0.0229493 -0.67618 0.144752 0.0214535 -0.6792 
0.144773 0.0202549 -0.681239 0.14418 0.019317 -0.682467 0.143214 0.0186007 -0.683083 
0.142129 0.0180681 -0.68329 0.141158 0.0176859 -0.683279 0.140488 0.0174283 -0.683203 
0.140242 0.0172794 -0.683161 
LINES 2 100
OFFSETS vtktypeint64
0 100 
CONNECTIVITY vtktypeint64
0 1 2 3 4 5 6 7 8 
9 10 11 12 13 14 15 16 17 
18 19 20 21 22 23 24 25 26 
27 28 29 30 31 32 33 34 35 
36 37 38 39 40 41 42 43 44 
45 46 47 48 49 50 51 52 53 
54 55 56 57 58 59 60 61 62 
63 64 65 66 67 68 69 70 71 
72 73 74 75 76 77 78 79 80 
81 82 83 84 85 86 87 88 89 
90 91 92 93 94 95 96 97 98 
99 
POINT_DATA 100
FIELD FieldData 3
_theta 1 100 double
0 0.031733259127 0.063466518254 0.095199777382 0.12693303651 0.15866629564 0.19039955476 0.22213281389 0.25386607302 
0.28559933214 0.31733259127 0.3490658504 0.38079910953 0.41253236865 0.44426562778 0.47599888691 0.50773214603 0.53946540516 
0.57119866429 0.60293192342 0.63466518254 0.66639844167 0.6981317008 0.72986495992 0.76159821905 0.79333147818 0.82506473731 
0.85679799643 0.88853125556 0.92026451469 0.95199777382 0.98373103294 1.0154642921 1.0471975512 1.0789308103 1.1106640695 
1.1423973286 1.1741305877 1.2058638468 1.237597106 1.2693303651 1.3010636242 1.3327968833 1.3645301425 1.3962634016 
1.4279966607 1.4597299198 1.491463179 1.5231964381 1.5549296972 1.5866629564 1.6183962155 1.6501294746 1.6818627337 
1.7135959929 1.745329252 1.7770625111 1.8087957702 1.8405290294 1.8722622885 1.9039955476 1.9357288068 1.9674620659 
1.999195325 2.0309285841 2.0626618433 2.0943951024 2.1261283615 2.1578616206 2.1895948798 2.2213281389 2.253061398 
2.2847946572 2.3165279163 2.3482611754 2.3799944345 2.4117276937 2.4434609528 2.4751942119 2.506927471 2.5386607302 
2.5703939893 2.6021272484 2.6338605076 2.6655937667 2.6973270258 2.7290602849 2.7607935441 2.7925268032 2.8242600623 
2.8559933214 2.8877265806 2.9194598397 2.9511930988 2.982926358 3.0146596171 3.0463928762 3.0781261353 3.1098593945 
3.1415926536 
_radius 1 100 double
3.8182836038e-16 0.014358021219 0.028533115335 0.042352112571 0.055670895191 0.068383955863 0.080428692973 0.091784248238 0.10246558837 
0.11251415579 0.12198663471 0.13094325818 0.13943683964 0.1475035705 0.15515660942 0.16238341794 0.16914745948 0.17539424691 
0.18106096493 0.18608823577 0.19043219077 0.19407491791 0.19703157956 0.19935300887 0.20112332018 0.20245286259 0.20346751851 
0.20429574618 0.20505485633 0.20583792064 0.20670261838 0.20766331879 0.20868765048 0.20969849783 0.21058168019 0.2111986513 
0.21140269985 0.21105658262 0.21004935192 0.20831030819 0.20581845808 0.20260653511 0.19875942725 0.19440753272 0.18971589445 
0.18486987172 0.18005788402 0.17545206357 0.1711890292 0.16735498092 0.16398010352 0.16104517679 0.15849895422 0.15628103318 
0.15434366404 0.15266693754 0.15126354397 0.15017117678 0.14943384674 0.14907917297 0.14910355723 0.14947293622 0.15013455291 
0.15102839222 0.15209151924 0.15325709521 0.15445467661 0.15561621089 0.15668562212 0.15762676654 0.15842663759 0.15909343953 
0.15965047949 0.16012756494 0.16055198438 0.16094075343 0.16129478782 0.16159477272 0.16179818885 0.16183716847 0.16161736737 
0.16101861367 0.15989843244 0.15809936148 0.15546019892 0.15183020532 0.14708426562 0.14113649312 0.13394989329 0.12554041754 
0.11597478841 0.10536259272 0.09384408291 0.081575742158 0.068715880384 0.055412345931 0.041793936265 0.027966393279 0.014013111722 
1.1711156412e-15 
_area 1 100 double
0 0.00049361621161 0.0019481950421 0.0042897648147 0.0074097520539 0.011182647903 0.015483633 0.020202202678 0.025249475046 
0.030558487828 0.036077796887 0.041759752962 0.047547114256 0.05336386798 0.059114854074 0.064694250313 0.06999927484 0.074944086946 
0.079468521137 0.083537402769 0.087131457865 0.090238922886 0.092858169533 0.095011769402 0.096762782568 0.09822304338 0.099548032649 
0.10091884583 0.10251165478 0.10446189859 0.1068400663 0.10963324339 0.11276787048 0.11611649744 0.11945388929 0.12244406111 
0.12474035579 0.1260458477 0.12613307207 0.12487526848 0.12242422011 0.11878232922 0.11418084291 0.10900298515 0.10349451421 
0.09796954098 0.092660419397 0.087741567723 0.083322050442 0.079448079775 0.076104826867 0.073222556374 0.070691899275 0.068390668266 
0.066214260708 0.064097147347 0.062020340721 0.060013441013 0.058189657535 0.056930560848 0.056845638973 0.057546801604 0.058388777862 
0.059082808393 0.059537585509 0.059752048699 0.059762607804 0.059641698487 0.059467983182 0.059191427266 0.058766746893 0.05824207076 
0.057713794313 0.057286693725 0.057050083029 0.057064243191 0.057353503636 0.057903107386 0.058656366838 0.059511081228 0.06032578709 
0.060938677089 0.061182407239 0.060888139715 0.059891619613 0.058052022057 0.055279320953 0.051557972389 0.046958312486 0.041633437938 
0.035803473132 0.029731393894 0.023695556386 0.017963787233 0.012772677801 0.0083142593223 0.0047308892611 0.0021178343812 0.00053152111672 
5.9414279052e-17 
