# vtk DataFile Version 5.1
vtk output
ASCII
DATASET POLYDATA
POINTS 100 float
0.139795 0.0620706 0.665479 0.139828 0.0623274 0.66559 0.140019 0.062937 0.66576 
0.140304 0.0638745 0.665901 0.140587 0.0650996 0.665879 0.140745 0.0665573 0.665527 
0.14065 0.0681789 0.664667 0.140174 0.0698844 0.663125 0.139211 0.0715848 0.660755 
0.137684 0.0731868 0.657447 0.135552 0.074597 0.653144 0.132813 0.0757285 0.647839 
0.1295 0.076506 0.641577 0.125678 0.076872 0.634441 0.121429 0.0767913 0.626545 
0.11684 0.0762542 0.618009 0.111997 0.0752775 0.608953 0.106968 0.0739035 0.599473 
0.101796 0.0721959 0.589638 0.0964985 0.0702347 0.579479 0.0910635 0.0681086 0.568992 
0.085455 0.0659064 0.558143 0.0796195 0.0637099 0.546874 0.0734954 0.061586 0.535124 
0.0670217 0.0595819 0.522834 0.0601478 0.0577225 0.509966 0.0528405 0.0560107 0.496508 
0.0450874 0.0544302 0.482481 0.0368994 0.052951 0.467939 0.0283077 0.0515372 0.452961 
0.0193602 0.0501545 0.437645 0.0101154 0.048778 0.422086 0.000636159 0.0473991 0.40637 
-0.00901541 0.0460293 0.390554 -0.0187818 0.0447014 0.374654 -0.0286113 0.0434677 0.35864 
-0.0384565 0.0423955 0.342435 -0.0482702 0.0415592 0.325916 -0.0580005 0.0410323 0.30893 
-0.0675843 0.0408778 0.291306 -0.0769417 0.0411401 0.272874 -0.0859729 0.0418389 0.253485 
-0.0945572 0.0429653 0.233029 -0.102556 0.0444821 0.21145 -0.109818 0.046327 0.188755 
-0.116191 0.0484189 0.165014 -0.121534 0.0506673 0.140364 -0.125726 0.0529816 0.11499 
-0.128685 0.0552817 0.0891133 -0.130373 0.0575065 0.0629744 -0.130803 0.0596205 0.0368104 
-0.130045 0.0616162 0.0108367 -0.128215 0.063514 -0.0147689 -0.125476 0.0653576 -0.0398782 
-0.122017 0.0672065 -0.0644182 -0.11804 0.0691259 -0.0883712 -0.113745 0.0711762 -0.111768 
-0.109309 0.0734023 -0.134679 -0.104875 0.0758247 -0.157197 -0.100543 0.078433 -0.179426 
-0.096359 0.0811833 -0.201463 -0.0923208 0.0839994 -0.223384 -0.0883813 0.0867775 -0.245239 
-0.084459 0.0893945 -0.267041 -0.0804513 0.091718 -0.28877 -0.0762492 0.0936181 -0.310372 
-0.0717523 0.0949782 -0.33177 -0.066881 0.0957053 -0.352872 -0.0615866 0.0957373 -0.373578 
-0.0558559 0.095047 -0.393796 -0.0497126 0.0936434 -0.413448 -0.0432139 0.0915692 -0.432475 
-0.0364433 0.0888956 -0.45084 -0.029502 0.085715 -0.468532 -0.0224987 0.082133 -0.485558 
-0.0155402 0.0782597 -0.501942 -0.0087233 0.0742025 -0.517715 -0.00212979 0.0700599 -0.532912 
0.00417642 0.0659177 -0.547561 0.0101488 0.0618471 -0.561681 0.0157555 0.0579048 -0.575277 
0.0209751 0.0541346 -0.588339 0.025792 0.0505702 -0.600842 0.0301921 0.0472375 -0.61275 
0.0341596 0.0441575 -0.624018 0.0376765 0.041348 -0.634597 0.0407235 0.0388243 -0.644441 
0.0432832 0.0365984 -0.653509 0.0453444 0.0346781 -0.661771 0.0469075 0.0330651 -0.669209 
0.0479891 0.0317529 -0.675816 0.0486249 0.0307256 -0.681601 0.0488713 0.0299572 -0.686583 
0.0488035 0.0294125 -0.690792 0.0485112 0.0290493 -0.694261 0.0480925 0.0288208 -0.697028 
0.0476448 0.0286808 -0.699129 0.0472564 0.0285872 -0.700595 0.0469973 0.0285066 -0.701452 
0.0469128 0.0284181 -0.701715 
LINES 2 100
OFFSETS vtktypeint64
0 100 
CONNECTIVITY vtktypeint64
0 1 2 3 4 5 6 7 8 
9 10 11 12 13 14 15 16 17 
18 19 20 21 22 23 24 25 26 
27 28 29 30 31 32 33 34 35 
36 37 38 39 40 41 42 43 44 
45 46 47 48 49 50 51 52 53 
54 55 56 57 58 59 60 61 62 
63 64 65 66 67 68 69 70 71 
72 73 74 75 76 77 78 79 80 
81 82 83 84 85 86 87 88 89 
90 91 92 93 94 95 96 97 98 
99 
POINT_DATA 100
FIELD FieldData 3
_theta 1 100 double
0 0.031733259127 0.063466518254 0.095199777382 0.12693303651 0.15866629564 0.19039955476 0.22213281389 0.25386607302 
0.28559933214 0.31733259127 0.3490658504 0.38079910953 0.41253236865 0.44426562778 0.47599888691 0.50773214603 0.53946540516 
0.57119866429 0.60293192342 0.63466518254 0.66639844167 0.6981317008 0.72986495992 0.76159821905 0.79333147818 0.82506473731 
0.85679799643 0.88853125556 0.92026451469 0.95199777382 0.98373103294 1.0154642921 1.0471975512 1.0789308103 1.1106640695 
1.1423973286 1.1741305877 1.2058638468 1.237597106 1.2693303651 1.3010636242 1.3327968833 1.3645301425 1.3962634016 
1.4279966607 1.4597299198 1.491463179 1.5231964381 1.5549296972 1.5866629564 1.6183962155 1.6501294746 1.6818627337 
1.7135959929 1.745329252 1.7770625111 1.8087957702 1.8405290294 1.8722622885 1.9039955476 1.9357288068 1.9674620659 
1.999195325 2.0309285841 2.0626618433 2.0943951024 2.1261283615 2.1578616206 2.1895948798 2.2213281389 2.253061398 
2.2847946572 2.3165279163 2.3482611754 2.3799944345 2.4117276937 2.4434609528 2.4751942119 2.506927471 2.5386607302 
2.5703939893 2.6021272484 2.6338605076 2.6655937667 2.6973270258 2.7290602849 2.7607935441 2.7925268032 2.8242600623 
2.8559933214 2.8877265806 2.9194598397 2.9511930988 2.982926358 3.0146596171 3.0463928762 3.0781261353 3.1098593945 
3.1415926536 
_radius 1 100 double
6.281902941e-16 0.015135878784 0.030095416507 0.044718368707 0.058880439181 0.072502156833 0.085549210956 0.098025025813 0.10995813886 
0.12138776706 0.13235057789 0.14287047032 0.15295181934 0.16257578391 0.17169917523 0.18025583589 0.1881610115 0.19531930871 
0.20163629779 0.2070328052 0.21145990711 0.21491200783 0.21743534803 0.21912978185 0.2201425772 0.22065425789 0.22085800668 
0.22093560585 0.22103385665 0.22124547671 0.22159752938 0.22204884681 0.22249629361 0.22278856935 0.2227456574 0.22218178573 
0.22092963831 0.21886347171 0.21591880606 0.21210654259 0.20751972307 0.20233166063 0.19678481309 0.19117057299 0.18580123376 
0.18097693468 0.17695237512 0.17390982135 0.17194479366 0.17106733352 0.17121573377 0.17227484432 0.17409119485 0.17648202619 
0.17924113091 0.1821471139 0.18497776173 0.18752957588 0.18963785904 0.19119221606 0.19214425831 0.1925067617 0.19234529203 
0.19176425356 0.19088983639 0.18985273241 0.1887735675 0.18775316024 0.18686784731 0.18616831522 0.18567992817 0.18540337536 
0.18531552367 0.18537085089 0.18550363881 0.18563064445 0.18565379958 0.18546279945 0.18493792059 0.18395363732 0.1823834279 
0.18010570908 0.1770103671 0.1730050784 0.16802061875 0.16201459446 0.15497335509 0.14691211588 0.13787344941 0.12792431342 
0.11715175549 0.10565746797 0.093551498801 0.080945620368 0.067947035437 0.054653170893 0.041148227207 0.027501920288 0.013770526592 
1.2970786396e-15 
_area 1 100 double
0 0.00056898963501 0.0022514068909 0.0049779495747 0.008646195835 0.013136001372 0.018324757932 0.024099603734 0.0303650382 
0.03704532728 0.044081562866 0.051423779194 0.059019487969 0.066801092722 0.074675256808 0.082517146915 0.09017181749 0.097464092904 
0.10421686931 0.11027543894 0.11553274794 0.11994882102 0.12355816492 0.12646214155 0.12880822299 0.13076256675 0.13248412573 
0.13410641755 0.13572776305 0.13740561983 0.13914989955 0.14091413989 0.14258854892 0.14400158494 0.14493459363 0.14514780032 
0.14441101618 0.14253511259 0.13940669104 0.13502458358 0.12952574281 0.12318724615 0.11639983835 0.1096150873 0.10327137388 
0.097712415983 0.093127527856 0.089540991936 0.086850101703 0.084884874825 0.08352509119 0.082729458514 0.082522911833 0.083033480739 
0.084014154408 0.085354664812 0.086880796262 0.088370572429 0.089577040432 0.090278583252 0.090331290864 0.089698304691 0.088447691326 
0.086726416438 0.084723624182 0.082631045757 0.080608544352 0.078769750114 0.077192872936 0.075940451845 0.075075482884 0.074681246412 
0.07479314701 0.075192409496 0.075712739372 0.076264354545 0.076788613459 0.077248605078 0.077604792022 0.077753650137 0.077545683628 
0.076832245676 0.075464549193 0.073305134396 0.070254773843 0.066278408286 0.061418573342 0.05579295087 0.04957936985 0.04299448266 
0.036271960333 0.029643965896 0.023327315483 0.017514089631 0.01236586287 0.0080109271429 0.0045443241494 0.0020306478306 0.0005091713429 
1.0848791384e-17 
