# vtk DataFile Version 5.1
vtk output
ASCII
DATASET POLYDATA
POINTS 100 float
0.15203 0.0542614 0.785891 0.15189 0.0547093 0.785711 0.151533 0.0558911 0.785018 
0.150959 0.0577077 0.783802 0.150166 0.0600077 0.782048 0.149153 0.0626026 0.779734 
0.147914 0.0652872 0.776831 0.146442 0.0678605 0.773304 0.144725 0.0701449 0.769112 
0.14275 0.0720026 0.764214 0.140499 0.0733461 0.758568 0.13795 0.0741425 0.752139 
0.135081 0.0744107 0.744906 0.131868 0.074213 0.736863 0.128285 0.0736422 0.728025 
0.124309 0.0728052 0.718433 0.119918 0.0718072 0.708149 0.115096 0.0707368 0.697259 
0.10983 0.069655 0.685862 0.104115 0.0685893 0.674067 0.0979547 0.0675331 0.661978 
0.0913602 0.0664509 0.649691 0.0843526 0.0652874 0.637278 0.0769621 0.0639799 0.624783 
0.0692276 0.0624721 0.612217 0.0611956 0.0607262 0.599554 0.0529186 0.0587325 0.586737 
0.0444524 0.0565155 0.573681 0.0358536 0.0541334 0.560285 0.0271758 0.0516743 0.546443 
0.0184667 0.0492468 0.532053 0.00976427 0.0469679 0.517032 0.00109396 0.0449491 0.50132 
-0.00753335 0.0432834 0.484887 -0.0161224 0.0420343 0.467735 -0.0246931 0.0412283 0.449893 
-0.0332781 0.0408528 0.431409 -0.0419196 0.0408586 0.412341 -0.0506633 0.0411676 0.392746 
-0.0595522 0.0416839 0.37267 -0.0686189 0.0423072 0.352138 -0.0778789 0.0429472 0.331145 
-0.0873231 0.0435358 0.309664 -0.096913 0.0440373 0.287639 -0.106578 0.0444532 0.265 
-0.116213 0.0448232 0.241673 -0.125686 0.0452205 0.217592 -0.134838 0.045743 0.192714 
-0.143496 0.0465016 0.167032 -0.151485 0.0476065 0.140582 -0.158636 0.0491534 0.113449 
-0.1648 0.0512119 0.0857657 -0.169865 0.0538167 0.0577048 -0.173755 0.0569624 0.0294675 
-0.176446 0.0606034 0.00126807 -0.17796 0.0646571 -0.0266839 -0.17837 0.0690116 -0.0542006 
-0.177783 0.0735352 -0.081131 -0.17634 0.0780869 -0.107372 -0.174194 0.0825273 -0.132875 
-0.1715 0.0867276 -0.157645 -0.168399 0.0905764 -0.181732 -0.165005 0.093984 -0.205226 
-0.161395 0.096883 -0.228235 -0.157603 0.0992275 -0.250874 -0.153625 0.100989 -0.273248 
-0.149415 0.102154 -0.295433 -0.144905 0.102716 -0.317476 -0.140009 0.102677 -0.339381 
-0.134647 0.10204 -0.361113 -0.128756 0.100814 -0.382606 -0.122304 0.0990102 -0.40377 
-0.115307 0.0966473 -0.424504 -0.10783 0.093753 -0.444706 -0.0999918 0.0903674 -0.464291 
-0.0919588 0.0865446 -0.483194 -0.083935 0.0823527 -0.501377 -0.0761475 0.0778726 -0.518831 
-0.0688283 0.0731945 -0.535568 -0.0621951 0.0684125 -0.551618 -0.056433 0.0636185 -0.567018 
-0.051679 0.0588963 -0.581798 -0.048011 0.0543152 -0.595976 -0.0454421 0.0499264 -0.609547 
-0.0439216 0.0457602 -0.622482 -0.0433415 0.0418269 -0.634727 -0.0435482 0.0381192 -0.646208 
-0.0443586 0.0346176 -0.656842 -0.0455772 0.0312966 -0.666542 -0.047014 0.0281318 -0.675236 
-0.0484999 0.0251071 -0.682872 -0.0498993 0.0222193 -0.689429 -0.0511167 0.0194819 -0.694919 
-0.0520995 0.0169256 -0.699391 -0.0528343 0.0145963 -0.70292 -0.0533395 0.0125505 -0.705603 
-0.0536545 0.0108495 -0.707547 -0.0538275 0.00955133 -0.708852 -0.0539033 0.00870475 -0.7096 
-0.0539133 0.00834253 -0.709847 
LINES 2 100
OFFSETS vtktypeint64
0 100 
CONNECTIVITY vtktypeint64
0 1 2 3 4 5 6 7 8 
9 10 11 12 13 14 15 16 17 
18 19 20 21 22 23 24 25 26 
27 28 29 30 31 32 33 34 35 
36 37 38 39 40 41 42 43 44 
45 46 47 48 49 50 51 52 53 
54 55 56 57 58 59 60 61 62 
63 64 65 66 67 68 69 70 71 
72 73 74 75 76 77 78 79 80 
81 82 83 84 85 86 87 88 89 
90 91 92 93 94 95 96 97 98 
99 
POINT_DATA 100
FIELD FieldData 3
_theta 1 100 double
0 0.031733259127 0.063466518254 0.095199777382 0.12693303651 0.15866629564 0.19039955476 0.22213281389 0.25386607302 
0.28559933214 0.31733259127 0.3490658504 0.38079910953 0.41253236865 0.44426562778 0.47599888691 0.50773214603 0.53946540516 
0.57119866429 0.60293192342 0.63466518254 0.66639844167 0.6981317008 0.72986495992 0.76159821905 0.79333147818 0.82506473731 
0.85679799643 0.88853125556 0.92026451469 0.95199777382 0.98373103294 1.0154642921 1.0471975512 1.0789308103 1.1106640695 
1.1423973286 1.1741305877 1.2058638468 1.237597106 1.2693303651 1.3010636242 1.3327968833 1.3645301425 1.3962634016 
1.4279966607 1.4597299198 1.491463179 1.5231964381 1.5549296972 1.5866629564 1.6183962155 1.6501294746 1.6818627337 
1.7135959929 1.745329252 1.7770625111 1.8087957702 1.8405290294 1.8722622885 1.9039955476 1.9357288068 1.9674620659 
1.999195325 2.0309285841 2.0626618433 2.0943951024 2.1261283615 2.1578616206 2.1895948798 2.2213281389 2.253061398 
2.2847946572 2.3165279163 2.3482611754 2.3799944345 2.4117276937 2.4434609528 2.4751942119 2.506927471 2.5386607302 
2.5703939893 2.6021272484 2.6338605076 2.6655937667 2.6973270258 2.7290602849 2.7607935441 2.7925268032 2.8242600623 
2.8559933214 2.8877265806 2.9194598397 2.9511930988 2.982926358 3.0146596171 3.0463928762 3.0781261353 3.1098593945 
3.1415926536 
_radius 1 100 double
1.1276289716e-15 0.01519486841 0.030261632546 0.045077403119 0.05953458983 0.073545950774 0.087046668269 0.099993263366 0.11235976271 
0.12413209229 0.13530205438 0.14586231418 0.15580349607 0.16511379837 0.17378070134 0.18179371777 0.18914699753 0.19584096294 
0.20188279239 0.20728616825 0.21207100515 0.21626376129 0.21989846409 0.22301796569 0.2256744714 0.22792829469 0.22984416928 
0.23148518862 0.2329052954 0.23414188302 0.23521020507 0.23610081278 0.2367803552 0.23719521757 0.23727703985 0.23694925105 
0.23613416873 0.23476060234 0.23277199954 0.23013492979 0.22684725975 0.22294498748 0.21850656106 0.21365367813 0.20854798394 
0.20338362805 0.19837615582 0.19374858273 0.18971565322 0.18646722293 0.18415158658 0.18285978549 0.18261276787 0.18335432645 
0.1849527725 0.18721251176 0.18989390445 0.19273776431 0.19549044044 0.19792621036 0.19986490713 0.20118380306 0.20182356313 
0.20178850147 0.20114150385 0.19999404193 0.19849194644 0.19679807243 0.19507346568 0.19345891796 0.19205902736 0.19093120604 
0.19008180956 0.18946977014 0.18901564955 0.18861297583 0.18813952027 0.18746744965 0.18647201335 0.18503855675 0.1830675432 
0.18047720055 0.17720351878 0.17319767596 0.16842155936 0.16284271904 0.15643049692 0.1491548674 0.14098864049 0.13191245371 
0.12192097951 0.11102843815 0.099271899921 0.086711714604 0.073429320602 0.059523335649 0.045105060922 0.030294364761 0.01521650547 
5.1618601663e-16 
_area 1 100 double
0 0.00054978076153 0.0021798449643 0.0048341803502 0.0084254585203 0.01284371824 0.017967196849 0.023673041412 0.029844875834 
0.036374859044 0.043160403629 0.050099080038 0.057086852413 0.06402278045 0.070818857749 0.077410060854 0.083759246987 0.089854232568 
0.095698593239 0.10130113438 0.10666964504 0.11181200161 0.11674301289 0.12149073966 0.12609445084 0.13059080136 0.1349938881 
0.13928035157 0.14338643785 0.14721579429 0.15065334025 0.15358136171 0.15589475415 0.15751211532 0.1583795477 0.15846572854 
0.15775029017 0.15621184133 0.15382436677 0.15056764775 0.14644865022 0.14152336312 0.13590882729 0.12978115859 0.12336138101 
0.11689395594 0.11062335581 0.104772964 0.099528941434 0.095030784762 0.09137179324 0.088618361618 0.086864675173 0.086284122928 
0.086929294461 0.088579408813 0.090936446681 0.093635707389 0.096272167476 0.098477825331 0.099967561611 0.10056269653 0.10019578047 
0.098896231198 0.096772375035 0.094002727802 0.090821035908 0.087479672021 0.084204979165 0.081177051324 0.078542886071 0.07641985337 
0.074834791411 0.073758403117 0.073198004378 0.073124460527 0.07334047672 0.073716964298 0.074095422845 0.074290657578 0.074118582264 
0.073427478717 0.07211591766 0.070132759007 0.067465008169 0.064122857951 0.060129867148 0.055522070943 0.050354877647 0.044712831378 
0.038716406699 0.032522348926 0.026317808966 0.020310915525 0.014720334993 0.0097647402423 0.0056516203625 0.0025645814119 0.00064930749932 
7.9148876141e-18 
