# vtk DataFile Version 5.1
vtk output
ASCII
DATASET POLYDATA
POINTS 100 float
0.0832438 0.0658803 0.716436 0.0834279 0.0661502 0.716062 0.0839859 0.0667988 0.714806 
0.0848543 0.0677753 0.712692 0.0859361 0.0690019 0.709755 0.0871122 0.070382 0.706042 
0.0882557 0.0718096 0.701603 0.0892465 0.07318 0.696488 0.0899843 0.0744 0.690742 
0.0903987 0.075396 0.684402 0.0904547 0.0761201 0.677492 0.090153 0.0765531 0.670026 
0.0895252 0.0767039 0.662008 0.0886248 0.0766063 0.653431 0.087515 0.076313 0.644286 
0.0862553 0.0758874 0.634561 0.084889 0.0753959 0.62425 0.0834332 0.0748988 0.613351 
0.0818727 0.0744442 0.60187 0.0801588 0.0740625 0.589825 0.0782141 0.073764 0.577241 
0.0759407 0.0735389 0.564152 0.0732331 0.0733601 0.5506 0.0699923 0.0731871 0.536629 
0.0661401 0.0729719 0.522286 0.0616308 0.072665 0.507619 0.0564594 0.0722213 0.492675 
0.050665 0.0716043 0.477497 0.0443276 0.07079 0.462131 0.0375603 0.0697677 0.446619 
0.0304966 0.0685401 0.431001 0.023275 0.0671218 0.415316 0.0160224 0.0655361 0.399599 
0.00883908 0.0638123 0.383877 0.00178716 0.0619824 0.368168 -0.00511642 0.0600789 0.352477 
-0.0119002 0.0581332 0.336789 -0.0186326 0.0561754 0.321067 -0.0254099 0.0542349 0.305252 
-0.0323405 0.0523418 0.289259 -0.0395258 0.0505288 0.272984 -0.0470412 0.0488327 0.256302 
-0.054919 0.0472952 0.239085 -0.0631357 0.0459635 0.221202 -0.0716052 0.0448879 0.202538 
-0.0801792 0.0441201 0.182999 -0.0886542 0.0437087 0.16253 -0.0967862 0.0436952 0.141116 
-0.104309 0.0441092 0.11879 -0.110958 0.0449639 0.095633 -0.11649 0.0462538 0.0717705 
-0.12071 0.0479526 0.0473626 -0.123481 0.050014 0.0225925 -0.124741 0.0523744 -0.00234774 
-0.124507 0.0549572 -0.0272731 -0.122867 0.0576785 -0.0520198 -0.119977 0.0604544 -0.0764581 
-0.11604 0.0632071 -0.1005 -0.111289 0.0658711 -0.124102 -0.105965 0.0683976 -0.147267 
-0.100299 0.0707566 -0.170033 -0.0944908 0.0729373 -0.192463 -0.0886951 0.0749449 -0.214635 
-0.0830165 0.0767961 -0.236625 -0.0775052 0.078513 -0.25849 -0.072161 0.0801156 -0.280263 
-0.0669422 0.0816147 -0.301939 -0.0617782 0.0830057 -0.323476 -0.0565833 0.0842644 -0.344796 
-0.0512723 0.0853451 -0.365794 -0.0457736 0.0861815 -0.386342 -0.0400402 0.0866902 -0.406313 
-0.0340567 0.0867775 -0.425584 -0.0278424 0.0863472 -0.444053 -0.0214499 0.0853103 -0.461651 
-0.0149604 0.0835946 -0.478341 -0.00847585 0.0811534 -0.494121 -0.00210911 0.0779724 -0.509022 
0.00402592 0.0740743 -0.523098 0.00982417 0.0695204 -0.536411 0.0151975 0.0644086 -0.549026 
0.0200805 0.0588685 -0.560993 0.0244342 0.053054 -0.572339 0.0282462 0.0471335 -0.583065 
0.0315289 0.0412792 -0.593139 0.0343158 0.035656 -0.602508 0.0366558 0.030411 -0.611098 
0.0386074 0.0256651 -0.618828 0.0402322 0.021506 -0.625628 0.0415901 0.0179845 -0.631446 
0.0427342 0.0151137 -0.63626 0.043708 0.0128707 -0.640089 0.0445436 0.0112016 -0.642993 
0.045262 0.0100283 -0.645074 0.0458737 0.00925674 -0.646461 0.0463809 0.00878641 -0.647305 
0.04678 0.00851974 -0.647761 0.0470649 0.00837096 -0.647971 0.0472289 0.00827368 -0.648048 
0.0472673 0.00818668 -0.648066 
LINES 2 100
OFFSETS vtktypeint64
0 100 
CONNECTIVITY vtktypeint64
0 1 2 3 4 5 6 7 8 
9 10 11 12 13 14 15 16 17 
18 19 20 21 22 23 24 25 26 
27 28 29 30 31 32 33 34 35 
36 37 38 39 40 41 42 43 44 
45 46 47 48 49 50 51 52 53 
54 55 56 57 58 59 60 61 62 
63 64 65 66 67 68 69 70 71 
72 73 74 75 76 77 78 79 80 
81 82 83 84 85 86 87 88 89 
90 91 92 93 94 95 96 97 98 
99 
POINT_DATA 100
FIELD FieldData 3
_theta 1 100 double
0 0.031733259127 0.063466518254 0.095199777382 0.12693303651 0.15866629564 0.19039955476 0.22213281389 0.25386607302 
0.28559933214 0.31733259127 0.3490658504 0.38079910953 0.41253236865 0.44426562778 0.47599888691 0.50773214603 0.53946540516 
0.57119866429 0.60293192342 0.63466518254 0.66639844167 0.6981317008 0.72986495992 0.76159821905 0.79333147818 0.82506473731 
0.85679799643 0.88853125556 0.92026451469 0.95199777382 0.98373103294 1.0154642921 1.0471975512 1.0789308103 1.1106640695 
1.1423973286 1.1741305877 1.2058638468 1.237597106 1.2693303651 1.3010636242 1.3327968833 1.3645301425 1.3962634016 
1.4279966607 1.4597299198 1.491463179 1.5231964381 1.5549296972 1.5866629564 1.6183962155 1.6501294746 1.6818627337 
1.7135959929 1.745329252 1.7770625111 1.8087957702 1.8405290294 1.8722622885 1.9039955476 1.9357288068 1.9674620659 
1.999195325 2.0309285841 2.0626618433 2.0943951024 2.1261283615 2.1578616206 2.1895948798 2.2213281389 2.253061398 
2.2847946572 2.3165279163 2.3482611754 2.3799944345 2.4117276937 2.4434609528 2.4751942119 2.506927471 2.5386607302 
2.5703939893 2.6021272484 2.6338605076 2.6655937667 2.6973270258 2.7290602849 2.7607935441 2.7925268032 2.8242600623 
2.8559933214 2.8877265806 2.9194598397 2.9511930988 2.982926358 3.0146596171 3.0463928762 3.0781261353 3.1098593945 
3.1415926536 
_radius 1 100 double
5.8632627015e-16 0.012814404537 0.025566602949 0.038197226325 0.050652979681 0.062884454321 0.074840720291 0.086463125613 0.097681197978 
0.10841269257 0.11856827538 0.12805989478 0.1368110472 0.14476687463 0.15190212128 0.15822531704 0.16377819858 0.16863033472 
0.17286998697 0.17659307297 0.17989244422 0.18284947759 0.18552932043 0.18798020575 0.19023628984 0.19232271989 0.1942613306 
0.19607551101 0.19779316435 0.1994470571 0.20107214727 0.20269983007 0.20434960362 0.20601943108 0.20767681103 0.20925290154 
0.21064172896 0.21170559982 0.21228663435 0.21222323401 0.2113695285 0.20961547669 0.20690524461 0.20325164929 0.19874476162 
0.19355316117 0.1879168156 0.18213113908 0.17652256659 0.17141717638 0.16710571671 0.16381062031 0.16166197706 0.16068809758 
0.16082171411 0.16191737023 0.16377261813 0.16614692333 0.16877690436 0.17139174678 0.17373367253 0.17558356608 0.17678626696 
0.17726888185 0.17704796978 0.17622444932 0.17496727838 0.17348843206 0.1720125888 0.17074526654 0.16984314921 0.16939049533 
0.1693859745 0.16974386649 0.17031050104 0.17089182152 0.17128469952 0.17130512517 0.1708089558 0.16970339039 0.16794908376 
0.16555379517 0.162558981 0.15902140759 0.15499281519 0.15050123294 0.14553717382 0.14004690719 0.1339338737 0.12706817388 
0.11930278362 0.11049393232 0.1005224414 0.089313042463 0.076849530177 0.06318452769 0.048443240779 0.032820794269 0.016572888394 
5.8588106645e-16 
_area 1 100 double
0 0.0004253528117 0.0016894087384 0.0037576083207 0.0065761406887 0.010074963606 0.014169247165 0.018759834866 0.023734446466 
0.028970972067 0.034343317935 0.03973012168 0.045026647674 0.050158485073 0.055092510396 0.059838694285 0.064438072357 0.068937709179 
0.073361027384 0.077687395215 0.081852010415 0.085764968068 0.089337997836 0.092508106619 0.095254450394 0.097609152029 0.099661914314 
0.10155557447 0.10347029206 0.10559711885 0.10810055076 0.11107094773 0.11448515169 0.11820296469 0.1220003264 0.12561347241 
0.12877393902 0.13123050888 0.1327626026 0.13319116514 0.13239057338 0.13030106211 0.12693969766 0.12240931664 0.11690269216 
0.11069504173 0.1041216574 0.097545284999 0.091319601262 0.085750722121 0.081059727246 0.077362240384 0.074680295815 0.072965930939 
0.072100266469 0.071903004366 0.072190652846 0.072794835044 0.073549256484 0.074255300316 0.074680661312 0.074598602384 0.073833817688 
0.072304409108 0.070049549212 0.067223089364 0.064052684127 0.06078361531 0.057643187936 0.054833637498 0.052523089446 0.050825849163 
0.049824524686 0.04956292488 0.049740427086 0.050164612348 0.050727364069 0.051248746153 0.05167418513 0.051980576982 0.052136280879 
0.052098189287 0.051825539073 0.051280137862 0.05041457171 0.049162958412 0.047440776008 0.045155454871 0.042227140566 0.038615671947 
0.034346375927 0.029526201635 0.024344038411 0.019053897065 0.013945200422 0.0093087363731 0.0054076516037 0.0024588088948 0.00062312898309 
8.7841535025e-18 
