# vtk DataFile Version 5.1
vtk output
ASCII
DATASET POLYDATA
POINTS 100 float
0.186072 0.0535472 0.696738 0.185845 0.0537545 0.696609 0.18524 0.0542778 0.696136 
0.184234 0.0551096 0.695307 0.182796 0.0562361 0.694104 0.180889 0.0576344 0.692497 
0.178479 0.0592695 0.690446 0.175543 0.0610926 0.687902 0.172071 0.0630392 0.684803 
0.168075 0.0650308 0.681081 0.163588 0.0669766 0.676667 0.158662 0.0687789 0.671496 
0.153367 0.0703389 0.665512 0.147783 0.071564 0.658683 0.14199 0.0723758 0.650998 
0.136062 0.0727161 0.642477 0.130056 0.0725527 0.633171 0.124011 0.0718819 0.623158 
0.117935 0.0707288 0.612536 0.111815 0.0691444 0.601419 0.105608 0.0672005 0.589921 
0.0992571 0.0649825 0.578147 0.092693 0.0625814 0.566178 0.0858463 0.0600853 0.554069 
0.0786576 0.0575732 0.541836 0.071086 0.0551088 0.529463 0.0631167 0.0527386 0.516899 
0.0547647 0.0504919 0.504073 0.0460747 0.0483832 0.4909 0.0371182 0.0464167 0.477298 
0.0279859 0.0445929 0.463198 0.0187784 0.0429136 0.44856 0.00959458 0.0413877 0.433375 
0.000521066 0.0400342 0.41767 -0.00837813 0.0388835 0.401505 -0.0170684 0.0379752 0.384962 
-0.0255481 0.0373543 0.368138 -0.0338472 0.0370652 0.351121 -0.0420223 0.0371444 0.333984 
-0.0501466 0.0376137 0.316761 -0.0582982 0.0384744 0.299446 -0.0665456 0.039704 0.281982 
-0.074934 0.0412553 0.264267 -0.0834728 0.0430597 0.246162 -0.092127 0.0450328 0.227505 
-0.100813 0.0470829 0.208133 -0.109397 0.049121 0.187898 -0.117707 0.0510711 0.166695 
-0.125537 0.0528792 0.144469 -0.132668 0.0545199 0.121232 -0.138884 0.0559995 0.0970663 
-0.143991 0.0573555 0.072117 -0.147832 0.0586513 0.0465811 -0.150306 0.0599676 0.0206889 
-0.151375 0.0613917 -0.00531897 -0.151068 0.0630042 -0.0312149 -0.149481 0.0648673 -0.0568066 
-0.146765 0.067014 -0.081954 -0.143118 0.069441 -0.106579 -0.138763 0.0721052 -0.13067 
-0.133931 0.0749254 -0.154271 -0.128838 0.077788 -0.177473 -0.123673 0.0805568 -0.200392 
-0.118578 0.0830853 -0.223147 -0.113641 0.0852302 -0.245837 -0.108891 0.0868644 -0.268526 
-0.104303 0.0878881 -0.291227 -0.0998027 0.0882366 -0.313897 -0.0952808 0.0878836 -0.33644 
-0.0906095 0.0868414 -0.35872 -0.0856591 0.0851553 -0.380575 -0.0803155 0.0828962 -0.40184 
-0.074495 0.0801507 -0.422367 -0.0681559 0.0770103 -0.442045 -0.0613052 0.0735619 -0.460815 
-0.0540002 0.0698804 -0.478675 -0.0463445 0.0660236 -0.495678 -0.0384804 0.0620322 -0.51192 
-0.0305764 0.0579308 -0.527528 -0.0228131 0.0537342 -0.542632 -0.0153688 0.0494535 -0.557344 
-0.00840529 0.0451036 -0.571736 -0.00205581 0.0407101 -0.585824 0.00358319 0.0363137 -0.599558 
0.00845683 0.0319718 -0.612821 0.0125523 0.0277574 -0.625442 0.0158957 0.0237539 -0.637213 
0.0185453 0.0200484 -0.647913 0.0205832 0.0167221 -0.657338 0.0221051 0.0138417 -0.665327 
0.0232111 0.0114507 -0.671789 0.0239967 0.00956385 -0.676713 0.0245463 0.00816436 -0.680183 
0.0249288 0.00720508 -0.682362 0.0251959 0.00661362 -0.683489 0.0253829 0.00630061 -0.683842 
0.025511 0.00617046 -0.683716 0.0255911 0.00613292 -0.683387 0.0256277 0.00611429 -0.683077 
0.0256223 0.00606664 -0.682934 
LINES 2 100
OFFSETS vtktypeint64
0 100 
CONNECTIVITY vtktypeint64
0 1 2 3 4 5 6 7 8 
9 10 11 12 13 14 15 16 17 
18 19 20 21 22 23 24 25 26 
27 28 29 30 31 32 33 34 35 
36 37 38 39 40 41 42 43 44 
45 46 47 48 49 50 51 52 53 
54 55 56 57 58 59 60 61 62 
63 64 65 66 67 68 69 70 71 
72 73 74 75 76 77 78 79 80 
81 82 83 84 85 86 87 88 89 
90 91 92 93 94 95 96 97 98 
99 
POINT_DATA 100
FIELD FieldData 3
_theta 1 100 double
0 0.031733259127 0.063466518254 0.095199777382 0.12693303651 0.15866629564 0.19039955476 0.22213281389 0.25386607302 
0.28559933214 0.31733259127 0.3490658504 0.38079910953 0.41253236865 0.44426562778 0.47599888691 0.50773214603 0.53946540516 
0.57119866429 0.60293192342 0.63466518254 0.66639844167 0.6981317008 0.72986495992 0.76159821905 0.79333147818 0.82506473731 
0.85679799643 0.88853125556 0.92026451469 0.95199777382 0.98373103294 1.0154642921 1.0471975512 1.0789308103 1.1106640695 
1.1423973286 1.1741305877 1.2058638468 1.237597106 1.2693303651 1.3010636242 1.3327968833 1.3645301425 1.3962634016 
1.4279966607 1.4597299198 1.491463179 1.5231964381 1.5549296972 1.5866629564 1.6183962155 1.6501294746 1.6818627337 
1.7135959929 1.745329252 1.7770625111 1.8087957702 1.8405290294 1.8722622885 1.9039955476 1.9357288068 1.9674620659 
1.999195325 2.0309285841 2.0626618433 2.0943951024 2.1261283615 2.1578616206 2.1895948798 2.2213281389 2.253061398 
2.2847946572 2.3165279163 2.3482611754 2.3799944345 2.4117276937 2.4434609528 2.4751942119 2.506927471 2.5386607302 
2.5703939893 2.6021272484 2.6338605076 2.6655937667 2.6973270258 2.7290602849 2.7607935441 2.7925268032 2.8242600623 
2.8559933214 2.8877265806 2.9194598397 2.9511930988 2.982926358 3.0146596171 3.0463928762 3.0781261353 3.1098593945 
3.1415926536 
_radius 1 100 double
1.9478403401e-16 0.015170741932 0.030179003045 0.044870185497 0.059108937394 0.072784585906 0.08581261184 0.098132625254 0.10970414414 
0.12050180815 0.13051133154 0.13972668216 0.14814810971 0.15578021782 0.16262951344 0.16870162093 0.17399917308 0.17852179629 
0.1822693085 0.18524829268 0.18748093976 0.18901396016 0.18992487807 0.19032337112 0.19034643587 0.19014773162 0.18988302221 
0.18969469145 0.18969842562 0.18997419957 0.19056205656 0.19146167002 0.19263409796 0.19400465265 0.19546688707 0.19688854359 
0.19812035718 0.19900782841 0.19940495191 0.19918804897 0.19826771791 0.1965974658 0.19417846871 0.19106069472 0.1873410119 
0.1831588095 0.17868920594 0.17413336776 0.16970517859 0.16561387307 0.16204357252 0.15913274118 0.1569583884 0.15552974241 
0.15479330209 0.15464702144 0.15495865771 0.15558350256 0.15637887814 0.15721501027 0.15798301741 0.15860061087 0.15901511444 
0.15920260276 0.1591628447 0.1589124862 0.15848027889 0.15790526139 0.15723512481 0.15652237422 0.1558187946 0.15517027097 
0.15461334605 0.15417332467 0.15386263999 0.15367815766 0.15359692812 0.15357114804 0.15352425139 0.15335052336 0.15291990445 
0.1520878147 0.15070782832 0.14864408362 0.14578085817 0.14202817444 0.13732370293 0.13163205088 0.12494268443 0.11726741949 
0.10863791218 0.099103159882 0.088726883646 0.077584843253 0.065762475556 0.053353407813 0.040459090604 0.027189110794 0.013661198024 
7.3840556096e-16 
_area 1 100 double
0 0.00043080090342 0.0017168611379 0.0038391695445 0.006765423919 0.010447682089 0.014818454965 0.019787283875 0.025240780353 
0.031048380683 0.037073936993 0.043190242477 0.04928941352 0.055278068112 0.061056106126 0.066504092494 0.071494759881 0.075912415896 
0.079669364194 0.082721275497 0.085083012493 0.086845564524 0.088189186072 0.089343462385 0.090406570009 0.091423304787 0.092483694012 
0.093671749769 0.095039825329 0.096611024311 0.098393731908 0.10039407357 0.10261597011 0.10503871903 0.10756865136 0.11002956877 
0.11221182589 0.1139082756 0.1149337847 0.11514416849 0.11445350561 0.11284732734 0.11038657275 0.1071961636 0.10344266278 
0.099310316174 0.09498449753 0.09064547752 0.086466333923 0.082606306602 0.079197450543 0.0763304027 0.074047938295 0.072349895527 
0.07119704928 0.07049152085 0.070064988936 0.069728484667 0.069328117313 0.068760111952 0.067961852571 0.066900525705 0.065577190819 
0.064042051672 0.062396704084 0.060745076357 0.059148358232 0.057618214967 0.056159914086 0.054803460231 0.053585923543 0.052515177964 
0.051563851876 0.050773620481 0.050113783249 0.04960038978 0.049305529868 0.049325289891 0.049849410268 0.050758246386 0.05167743754 
0.052345670942 0.052554008039 0.052140498343 0.050994875721 0.049061982123 0.046342745633 0.042892058731 0.038813405611 0.034250815926 
0.02937860211 0.024388941809 0.019477790828 0.014830929486 0.010613157529 0.006963357421 0.003995518177 0.0018020852338 0.00045463909291 
1.8430005579e-17 
