# vtk DataFile Version 5.1
vtk output
ASCII
DATASET POLYDATA
POINTS 100 float
0.0769444 0.0566216 0.712676 0.0771014 0.0570285 0.712379 0.0776581 0.0580425 0.71138 
0.0785485 0.0595787 0.709707 0.0796705 0.0615074 0.707399 0.0808974 0.0636682 0.704503 
0.0820934 0.0658876 0.701065 0.0831287 0.0679968 0.697118 0.0838941 0.0698496 0.692682 
0.0843119 0.0713355 0.687755 0.0843424 0.072389 0.682314 0.0839858 0.072993 0.676318 
0.0832774 0.073176 0.669711 0.0822786 0.0730041 0.662433 0.0810648 0.0725695 0.654429 
0.0797102 0.0719754 0.645656 0.078274 0.0713219 0.636095 0.0767875 0.070693 0.625756 
0.0752462 0.0701462 0.614678 0.073606 0.0697078 0.602933 0.0717854 0.0693722 0.590616 
0.0696727 0.0691063 0.577841 0.0671386 0.0688579 0.564725 0.0640509 0.0685663 0.551383 
0.0602912 0.0681747 0.537911 0.0557698 0.0676401 0.524381 0.0504394 0.0669425 0.510831 
0.0443027 0.0660888 0.497264 0.0374157 0.0651136 0.483649 0.0298847 0.0640749 0.469928 
0.0218579 0.0630463 0.456018 0.0135124 0.0621065 0.441829 0.00503818 0.0613282 0.42727 
-0.00337924 0.0607674 0.412256 -0.011575 0.0604547 0.396724 -0.0194183 0.0603908 0.380628 
-0.0268225 0.0605455 0.363949 -0.0337484 0.060862 0.346686 -0.0402033 0.0612642 0.328855 
-0.0462344 0.0616679 0.31048 -0.0519175 0.0619927 0.291586 -0.0573431 0.0621741 0.272188 
-0.0626014 0.0621732 0.252293 -0.067767 0.0619839 0.231886 -0.0728873 0.0616347 0.210938 
-0.0779727 0.0611865 0.189406 -0.0829928 0.0607258 0.167241 -0.0878763 0.0603541 0.144393 
-0.0925163 0.0601749 0.120825 -0.096779 0.0602807 0.0965187 -0.100516 0.06074 0.071486 
-0.103575 0.0615883 0.0457718 -0.105817 0.0628224 0.0194573 -0.107126 0.0643993 -0.00734153 
-0.107417 0.0662405 -0.0344789 -0.106645 0.0682404 -0.0617874 -0.104805 0.0702777 -0.0890882 
-0.101936 0.0722292 -0.116202 -0.0981104 0.0739834 -0.142961 -0.0934325 0.0754519 -0.169218 
-0.0880285 0.0765786 -0.194851 -0.082038 0.0773443 -0.219774 -0.0756045 0.0777665 -0.243931 
-0.0688679 0.0778944 -0.267299 -0.0619572 0.0778008 -0.289884 -0.0549858 0.0775698 -0.311711 
-0.0480476 0.0772845 -0.332822 -0.0412156 0.0770147 -0.353268 -0.034542 0.0768059 -0.373101 
-0.0280593 0.0766724 -0.392372 -0.0217829 0.0765939 -0.411129 -0.0157142 0.0765173 -0.429411 
-0.00984458 0.0763617 -0.447252 -0.00415972 0.0760283 -0.46468 0.00135612 0.0754115 -0.481715 
0.00671553 0.0744116 -0.498373 0.0119238 0.0729477 -0.51466 0.0169754 0.0709672 -0.530575 
0.0218507 0.0684537 -0.546107 0.0265146 0.0654308 -0.561229 0.0309161 0.0619613 -0.575899 
0.0349897 0.0581431 -0.590059 0.0386583 0.0541012 -0.603632 0.0418388 0.049978 -0.616527 
0.0444477 0.0459214 -0.628644 0.04641 0.0420731 -0.639876 0.0476663 0.038558 -0.650124 
0.0481819 0.0354753 -0.659302 0.0479531 0.0328922 -0.667348 0.0470127 0.0308409 -0.67423 
0.0454321 0.029318 -0.679953 0.0433215 0.028288 -0.684562 0.0408246 0.0276875 -0.688141 
0.0381124 0.0274333 -0.690805 0.0353719 0.0274295 -0.692695 0.0327945 0.027577 -0.693962 
0.0305619 0.0277814 -0.694759 0.0288329 0.027961 -0.69522 0.0277311 0.0280529 -0.695452 
0.0273356 0.0280181 -0.695524 
LINES 2 100
OFFSETS vtktypeint64
0 100 
CONNECTIVITY vtktypeint64
0 1 2 3 4 5 6 7 8 
9 10 11 12 13 14 15 16 17 
18 19 20 21 22 23 24 25 26 
27 28 29 30 31 32 33 34 35 
36 37 38 39 40 41 42 43 44 
45 46 47 48 49 50 51 52 53 
54 55 56 57 58 59 60 61 62 
63 64 65 66 67 68 69 70 71 
72 73 74 75 76 77 78 79 80 
81 82 83 84 85 86 87 88 89 
90 91 92 93 94 95 96 97 98 
99 
POINT_DATA 100
FIELD FieldData 3
_theta 1 100 double
0 0.031733259127 0.063466518254 0.095199777382 0.12693303651 0.15866629564 0.19039955476 0.22213281389 0.25386607302 
0.28559933214 0.31733259127 0.3490658504 0.38079910953 0.41253236865 0.44426562778 0.47599888691 0.50773214603 0.53946540516 
0.57119866429 0.60293192342 0.63466518254 0.66639844167 0.6981317008 0.72986495992 0.76159821905 0.79333147818 0.82506473731 
0.85679799643 0.88853125556 0.92026451469 0.95199777382 0.98373103294 1.0154642921 1.0471975512 1.0789308103 1.1106640695 
1.1423973286 1.1741305877 1.2058638468 1.237597106 1.2693303651 1.3010636242 1.3327968833 1.3645301425 1.3962634016 
1.4279966607 1.4597299198 1.491463179 1.5231964381 1.5549296972 1.5866629564 1.6183962155 1.6501294746 1.6818627337 
1.7135959929 1.745329252 1.7770625111 1.8087957702 1.8405290294 1.8722622885 1.9039955476 1.9357288068 1.9674620659 
1.999195325 2.0309285841 2.0626618433 2.0943951024 2.1261283615 2.1578616206 2.1895948798 2.2213281389 2.253061398 
2.2847946572 2.3165279163 2.3482611754 2.3799944345 2.4117276937 2.4434609528 2.4751942119 2.506927471 2.5386607302 
2.5703939893 2.6021272484 2.6338605076 2.6655937667 2.6973270258 2.7290602849 2.7607935441 2.7925268032 2.8242600623 
2.8559933214 2.8877265806 2.9194598397 2.9511930988 2.982926358 3.0146596171 3.0463928762 3.0781261353 3.1098593945 
3.1415926536 
_radius 1 100 double
1.6683386813e-15 0.014142476099 0.028125534648 0.041798838965 0.055039207115 0.067758146104 0.07990346777 0.091455358697 0.10241846512 
0.1128121582 0.12266102578 0.13198699747 0.1408037453 0.14911344269 0.15690572391 0.16415869101 0.17084190858 0.17692134735 
0.18236606197 0.18715597742 0.1912896146 0.19479015387 0.19770820455 0.20012018305 0.20212223418 0.20382083827 0.20532213461 
0.20672206258 0.20809853064 0.20950546955 0.21096776064 0.21247632602 0.21398394882 0.21540374992 0.21661270441 0.21746171782 
0.21779196214 0.21745524509 0.21633493483 0.21436371707 0.21153511195 0.20790690665 0.20359613476 0.19876668028 0.19361178494 
0.18833451115 0.18312942218 0.17816833286 0.17359204137 0.16950863967 0.16599746381 0.16311616923 0.16090728339 0.15940073827 
0.15861096863 0.15853050634 0.15912418906 0.16032714596 0.16204693724 0.16416858591 0.16656137149 0.16908670662 0.17160638626 
0.17399028696 0.17612255345 0.17790551258 0.17926120141 0.1801317387 0.18048080076 0.18029716935 0.17959862698 0.17843370116 
0.17687996166 0.17503862232 0.17302557796 0.17095928842 0.1689463877 0.16706646064 0.16535791503 0.16380713742 0.16234304282 
0.16083860221 0.1591198934 0.15698181018 0.15420821481 0.1505935346 0.1459627873 0.14018759131 0.13319654307 0.12497918857 
0.11558358871 0.10510816787 0.093689129415 0.081485185661 0.06866163359 0.055375870641 0.041766264762 0.027945864135 0.014001756931 
7.0795908576e-16 
_area 1 100 double
0 0.00049077816911 0.0019404807311 0.0042856580925 0.0074335780362 0.011276538286 0.015704482519 0.020613161471 0.02590722125 
0.031499063242 0.03730497747 0.043240387706 0.049216343274 0.055139213719 0.060914344622 0.066452732532 0.071678862796 0.076538216614 
0.081003855648 0.085081963309 0.088815809683 0.092286368429 0.095606202554 0.098902595698 0.10228930713 0.10583580749 0.10955099009 
0.11339183518 0.1172897437 0.12117684885 0.12499811742 0.12870475559 0.13223335176 0.13548109383 0.13828943093 0.14044594861 
0.14170763441 0.1418406867 0.14066590445 0.13809708278 0.13416305374 0.12900989175 0.12288541703 0.11611127849 0.10904758963 
0.10205244177 0.095437882141 0.089429377986 0.084141678037 0.079579501874 0.075666105484 0.07229496793 0.069377034417 0.066861478086 
0.06473712493 0.063029147873 0.061804343004 0.061251873841 0.061679217204 0.06271557375 0.064059980975 0.065503610833 0.066856847516 
0.067966601798 0.068729669985 0.06909799847 0.069070005049 0.068671596375 0.067948964549 0.066974709044 0.065840123796 0.064618600807 
0.063322825765 0.061920206951 0.060403437745 0.058824322581 0.057280745961 0.0558943402 0.054799459276 0.054175394992 0.054302860877 
0.055235214206 0.056140875168 0.056703568045 0.056645170458 0.055736121789 0.053815493813 0.05081131857 0.046754336815 0.041780220092 
0.036117897381 0.030064579547 0.023951051553 0.018103218303 0.012807156193 0.0082845841521 0.0046834990089 0.0020848403369 0.00052124550956 
3.2181054561e-17 
