# vtk DataFile Version 5.1
vtk output
ASCII
DATASET POLYDATA
POINTS 100 float
0.134868 0.0764537 0.76498 0.134808 0.0766596 0.764794 0.134692 0.0771352 0.764095 
0.134517 0.0778442 0.762882 0.134277 0.0787297 0.761157 0.133957 0.07972 0.758914 
0.133536 0.0807347 0.756146 0.132981 0.0816924 0.752836 0.132248 0.082517 0.748959 
0.131281 0.0831439 0.744485 0.130015 0.0835239 0.739375 0.128381 0.0836254 0.733588 
0.126308 0.0834341 0.727088 0.123728 0.0829515 0.719843 0.120588 0.0821909 0.711833 
0.116847 0.0811733 0.703055 0.112487 0.0799224 0.693524 0.107513 0.0784609 0.683271 
0.101953 0.0768068 0.672346 0.0958594 0.0749725 0.66081 0.0892994 0.0729646 0.648729 
0.0823549 0.070786 0.636173 0.0751135 0.068439 0.623204 0.067662 0.0659295 0.609872 
0.06008 0.0632711 0.59621 0.0524341 0.0604891 0.582239 0.0447744 0.0576225 0.567958 
0.0371327 0.0547254 0.553357 0.0295219 0.0518654 0.538418 0.0219385 0.0491207 0.523123 
0.0143649 0.0465749 0.507456 0.00677387 0.044311 0.491415 -0.000867844 0.0424045 0.475011 
-0.00859537 0.0409165 0.458268 -0.0164426 0.0398887 0.441223 -0.0244399 0.0393388 0.423918 
-0.0326122 0.0392595 0.406394 -0.0409785 0.0396183 0.388682 -0.0495505 0.0403616 0.370793 
-0.0583325 0.0414197 0.35271 -0.0673196 0.0427136 0.334386 -0.076496 0.0441631 0.315741 
-0.085832 0.045694 0.296667 -0.0952815 0.0472456 0.277035 -0.104778 0.0487754 0.256708 
-0.114232 0.0502626 0.235555 -0.123531 0.0517081 0.213463 -0.132537 0.0531334 0.190359 
-0.141091 0.0545754 0.166213 -0.149018 0.0560816 0.141054 -0.156136 0.0577022 0.114966 
-0.162267 0.0594837 0.0880874 -0.167246 0.061462 0.0606007 -0.170935 0.0636574 0.0327195 
-0.173238 0.0660707 0.00467064 -0.174105 0.0686822 -0.0233244 -0.173538 0.0714527 -0.0510672 
-0.171599 0.0743262 -0.0783974 -0.1684 0.0772342 -0.105203 -0.164097 0.0801016 -0.131425 
-0.158879 0.0828522 -0.157055 -0.152952 0.0854142 -0.182132 -0.146521 0.0877248 -0.206725 
-0.139776 0.0897335 -0.230918 -0.132876 0.0914034 -0.2548 -0.125938 0.0927115 -0.278442 
-0.119031 0.0936467 -0.301887 -0.112177 0.0942075 -0.325142 -0.105355 0.0943982 -0.348176 
-0.0985143 0.0942257 -0.37092 -0.0915831 0.0936962 -0.393274 -0.0844898 0.0928131 -0.415123 
-0.0771766 0.091576 -0.436345 -0.0696146 0.0899807 -0.456827 -0.0618141 0.088021 -0.476477 
-0.0538305 0.0856912 -0.495233 -0.0457639 0.0829896 -0.513068 -0.0377534 0.0799222 -0.529986 
-0.0299664 0.0765057 -0.546022 -0.0225839 0.0727707 -0.561231 -0.0157836 0.0687628 -0.575674 
-0.0097237 0.0645428 -0.58941 -0.00452779 0.060185 -0.602486 -0.000273824 0.0557746 -0.614922 
0.00301226 0.0514028 -0.626714 0.00535748 0.047162 -0.637831 0.00683739 0.04314 -0.64822 
0.00756697 0.0394145 -0.657812 0.00768824 0.0360481 -0.666536 0.007356 0.0330846 -0.67433 
0.0067237 0.0305468 -0.68115 0.00593091 0.0284361 -0.68698 0.00509392 0.0267338 -0.691836 
0.00430022 0.0254042 -0.695765 0.00360725 0.024399 -0.698843 0.00304513 0.0236632 -0.701165 
0.00262238 0.0231409 -0.702833 0.00233359 0.0227811 -0.703944 0.00216747 0.0225436 -0.704577 
0.00211388 0.0224029 -0.704786 
LINES 2 100
OFFSETS vtktypeint64
0 100 
CONNECTIVITY vtktypeint64
0 1 2 3 4 5 6 7 8 
9 10 11 12 13 14 15 16 17 
18 19 20 21 22 23 24 25 26 
27 28 29 30 31 32 33 34 35 
36 37 38 39 40 41 42 43 44 
45 46 47 48 49 50 51 52 53 
54 55 56 57 58 59 60 61 62 
63 64 65 66 67 68 69 70 71 
72 73 74 75 76 77 78 79 80 
81 82 83 84 85 86 87 88 89 
90 91 92 93 94 95 96 97 98 
99 
POINT_DATA 100
FIELD FieldData 3
_theta 1 100 double
0 0.031733259127 0.063466518254 0.095199777382 0.12693303651 0.15866629564 0.19039955476 0.22213281389 0.25386607302 
0.28559933214 0.31733259127 0.3490658504 0.38079910953 0.41253236865 0.44426562778 0.47599888691 0.50773214603 0.53946540516 
0.57119866429 0.60293192342 0.63466518254 0.66639844167 0.6981317008 0.72986495992 0.76159821905 0.79333147818 0.82506473731 
0.85679799643 0.88853125556 0.92026451469 0.95199777382 0.98373103294 1.0154642921 1.0471975512 1.0789308103 1.1106640695 
1.1423973286 1.1741305877 1.2058638468 1.237597106 1.2693303651 1.3010636242 1.3327968833 1.3645301425 1.3962634016 
1.4279966607 1.4597299198 1.491463179 1.5231964381 1.5549296972 1.5866629564 1.6183962155 1.6501294746 1.6818627337 
1.7135959929 1.745329252 1.7770625111 1.8087957702 1.8405290294 1.8722622885 1.9039955476 1.9357288068 1.9674620659 
1.999195325 2.0309285841 2.0626618433 2.0943951024 2.1261283615 2.1578616206 2.1895948798 2.2213281389 2.253061398 
2.2847946572 2.3165279163 2.3482611754 2.3799944345 2.4117276937 2.4434609528 2.4751942119 2.506927471 2.5386607302 
2.5703939893 2.6021272484 2.6338605076 2.6655937667 2.6973270258 2.7290602849 2.7607935441 2.7925268032 2.8242600623 
2.8559933214 2.8877265806 2.9194598397 2.9511930988 2.982926358 3.0146596171 3.0463928762 3.0781261353 3.1098593945 
3.1415926536 
_radius 1 100 double
1.7608938669e-16 0.014470647513 0.028955669793 0.043454611129 0.057949693392 0.072399601757 0.08673604228 0.10086391021 0.1146655084 
0.12800858978 0.14075721598 0.15278376903 0.16398016017 0.17426646702 0.18359584489 0.19195539053 0.19936341172 0.2058640494 
0.21152034137 0.21640670719 0.22060164997 0.22418134559 0.22721473455 0.22976066432 0.23186746129 0.23357500793 0.2349189711 
0.23593628395 0.23667039438 0.23717439027 0.23751024987 0.2377433489 0.23793280248 0.23811970923 0.23831627451 0.23849871156 
0.23860579814 0.23854349977 0.23819478802 0.2374330526 0.23613731071 0.23420752969 0.23157859594 0.22823169703 0.2242021033 
0.21958249672 0.21452107649 0.20921377308 0.20389029361 0.19879470635 0.19416286626 0.19020058335 0.18706682964 0.18486448 
0.18363765404 0.18337208794 0.18399546401 0.18537800415 0.18733688436 0.18964818906 0.19206710452 0.194353365 0.19629700328 
0.19773972703 0.19858890183 0.19882306532 0.19848924309 0.19769280135 0.1965807813 0.19532041247 0.19407561226 0.19298489176 
0.19214379669 0.19159402421 0.19132002562 0.19125251292 0.19127714958 0.19124617627 0.19099095312 0.19033413753 0.18910095549 
0.18712938577 0.18427903717 0.18043830728 0.17552932437 0.16951028814 0.16237508564 0.15415036043 0.14489048393 0.13467108767 
0.12358195438 0.11172012097 0.099183995769 0.08606912384 0.072465948774 0.058459541976 0.044130861894 0.02955877522 0.014821959083 
2.5910429409e-16 
_area 1 100 double
0 0.00052526715421 0.0021054821355 0.0047514636683 0.0084728604051 0.013265316508 0.019094144645 0.025878981447 0.03348554195 
0.04172948512 0.050393103979 0.059249536838 0.068084975376 0.076710717712 0.084964046558 0.092704420515 0.09981322948 0.10620087134 
0.1118184423 0.11666701541 0.12079713821 0.12429495329 0.1272582721 0.12977292843 0.13190084288 0.13368339917 0.13515386158 
0.13635006529 0.13732303473 0.13814084003 0.13888695977 0.13965281701 0.14052490205 0.14156197884 0.14275980067 0.14403394904 
0.14524379178 0.14622044046 0.14678300431 0.14675125501 0.14596150838 0.14428695662 0.14165753529 0.13807407907 0.13361431206 
0.12843114564 0.12274493719 0.11682800679 0.11097367857 0.10544613464 0.10043265051 0.096043556551 0.092283801302 0.088992823679 
0.086084518728 0.083652861948 0.082230906586 0.082519379996 0.083911606797 0.085769672384 0.087515367279 0.088660141518 0.089031352536 
0.088670632084 0.087675812687 0.086043128828 0.083764694945 0.08093340789 0.077748866871 0.074486512949 0.071466060375 0.068979683985 
0.067167215866 0.066124089696 0.065995249335 0.066851445234 0.068621039193 0.070739913336 0.072906088898 0.074897387349 0.076459652902 
0.077325788858 0.077251063672 0.076050053957 0.073624703894 0.069977495796 0.065208332614 0.059497507868 0.053079887708 0.046216779999 
0.039171447825 0.032191908383 0.025501542762 0.019295712641 0.013742095309 0.0089832341978 0.005139983806 0.0023134394355 0.00058287875481 
7.1557475733e-18 
