# vtk DataFile Version 5.1
vtk output
ASCII
DATASET POLYDATA
POINTS 100 float
0.0955578 0.0580891 0.69986 0.0956396 0.0581576 0.699779 0.0959301 0.0582289 0.699307 
0.0963638 0.0583079 0.6984 0.0968404 0.0584019 0.696989 0.097236 0.0585182 0.694992 
0.0974181 0.0586617 0.692323 0.0972609 0.0588335 0.688905 0.0966602 0.0590286 0.684678 
0.0955463 0.0592359 0.679608 0.0938921 0.0594388 0.67369 0.0917174 0.0596161 0.666947 
0.0890873 0.0597457 0.659427 0.086105 0.0598065 0.651194 0.0829008 0.0597824 0.642318 
0.079617 0.0596649 0.632868 0.0763913 0.0594543 0.622896 0.0733405 0.0591608 0.612437 
0.0705459 0.058803 0.601502 0.0680419 0.0584052 0.590078 0.0658103 0.0579935 0.578134 
0.0637797 0.0575914 0.565629 0.0618306 0.0572149 0.552524 0.0598061 0.0568684 0.538787 
0.0575263 0.0565421 0.524409 0.0548063 0.0562115 0.509407 0.0514742 0.0558385 0.493833 
0.0473878 0.0553761 0.477766 0.0424494 0.0547738 0.461311 0.0366151 0.0539861 0.444589 
0.029899 0.05298 0.427724 0.0223718 0.051744 0.410829 0.0141533 0.0502943 0.393995 
0.00540063 0.0486793 0.377275 -0.00370681 0.0469812 0.360683 -0.0129842 0.0453132 0.344188 
-0.0222574 0.0438137 0.327716 -0.0313768 0.0426371 0.311161 -0.0402273 0.0419414 0.294394 
-0.0487333 0.041875 0.277278 -0.0568583 0.0425625 0.259684 -0.0645992 0.0440922 0.241505 
-0.0719763 0.0465059 0.222665 -0.0790202 0.0497916 0.20313 -0.0857574 0.0538818 0.18291 
-0.0921968 0.0586546 0.162053 -0.0983186 0.0639415 0.140641 -0.104068 0.0695371 0.118779 
-0.109351 0.0752136 0.096582 -0.114044 0.0807358 0.0741628 -0.117995 0.0858774 0.0516206 
-0.121043 0.0904362 0.0290326 -0.123033 0.0942465 0.00644964 -0.123833 0.0971894 -0.0161045 
-0.123348 0.0991977 -0.0386289 -0.121537 0.100258 -0.0611391 -0.118418 0.100409 -0.0836579 
-0.11407 0.099733 -0.106205 -0.108631 0.0983486 -0.128791 -0.102287 0.0963999 -0.151405 
-0.0952564 0.0940437 -0.174017 -0.0877703 0.0914382 -0.196576 -0.0800555 0.0887324 -0.219011 
-0.0723135 0.0860566 -0.241239 -0.0647048 0.0835161 -0.263171 -0.0573381 0.0811861 -0.284725 
-0.0502648 0.0791103 -0.305828 -0.0434797 0.0773009 -0.326422 -0.036929 0.0757404 -0.346471 
-0.0305227 0.0743859 -0.365957 -0.0241504 0.0731735 -0.384876 -0.0176995 0.072024 -0.403233 
-0.0110725 0.0708486 -0.421036 -0.00420176 0.0695549 -0.438285 0.00294034 0.0680527 -0.454967 
0.0103359 0.0662592 -0.471054 0.0179227 0.064104 -0.486498 0.0256004 0.0615331 -0.501233 
0.0332419 0.058512 -0.515186 0.0407074 0.0550286 -0.528277 0.0478602 0.0510937 -0.540435 
0.0545815 0.0467413 -0.551606 0.0607824 0.0420274 -0.561758 0.0664125 0.0370269 -0.570891 
0.0714628 0.0318304 -0.579038 0.0759633 0.0265386 -0.586263 0.0799768 0.0212574 -0.592656 
0.083587 0.0160919 -0.598324 0.086886 0.0111403 -0.60338 0.0899606 0.00648962 -0.607931 
0.092879 0.00221119 -0.61207 0.0956821 -0.0016416 -0.615862 0.0983779 -0.0050342 -0.619343 
0.10094 -0.00795004 -0.622516 0.103314 -0.0103881 -0.625355 0.105423 -0.0123593 -0.627813 
0.107178 -0.0138817 -0.629829 0.108497 -0.0149759 -0.631337 0.109308 -0.0156604 -0.632283 
0.109565 -0.0159479 -0.632627 
LINES 2 100
OFFSETS vtktypeint64
0 100 
CONNECTIVITY vtktypeint64
0 1 2 3 4 5 6 7 8 
9 10 11 12 13 14 15 16 17 
18 19 20 21 22 23 24 25 26 
27 28 29 30 31 32 33 34 35 
36 37 38 39 40 41 42 43 44 
45 46 47 48 49 50 51 52 53 
54 55 56 57 58 59 60 61 62 
63 64 65 66 67 68 69 70 71 
72 73 74 75 76 77 78 79 80 
81 82 83 84 85 86 87 88 89 
90 91 92 93 94 95 96 97 98 
99 
POINT_DATA 100
FIELD FieldData 3
_theta 1 100 double
0 0.031733259127 0.063466518254 0.095199777382 0.12693303651 0.15866629564 0.19039955476 0.22213281389 0.25386607302 
0.28559933214 0.31733259127 0.3490658504 0.38079910953 0.41253236865 0.44426562778 0.47599888691 0.50773214603 0.53946540516 
0.57119866429 0.60293192342 0.63466518254 0.66639844167 0.6981317008 0.72986495992 0.76159821905 0.79333147818 0.82506473731 
0.85679799643 0.88853125556 0.92026451469 0.95199777382 0.98373103294 1.0154642921 1.0471975512 1.0789308103 1.1106640695 
1.1423973286 1.1741305877 1.2058638468 1.237597106 1.2693303651 1.3010636242 1.3327968833 1.3645301425 1.3962634016 
1.4279966607 1.4597299198 1.491463179 1.5231964381 1.5549296972 1.5866629564 1.6183962155 1.6501294746 1.6818627337 
1.7135959929 1.745329252 1.7770625111 1.8087957702 1.8405290294 1.8722622885 1.9039955476 1.9357288068 1.9674620659 
1.999195325 2.0309285841 2.0626618433 2.0943951024 2.1261283615 2.1578616206 2.1895948798 2.2213281389 2.253061398 
2.2847946572 2.3165279163 2.3482611754 2.3799944345 2.4117276937 2.4434609528 2.4751942119 2.506927471 2.5386607302 
2.5703939893 2.6021272484 2.6338605076 2.6655937667 2.6973270258 2.7290602849 2.7607935441 2.7925268032 2.8242600623 
2.8559933214 2.8877265806 2.9194598397 2.9511930988 2.982926358 3.0146596171 3.0463928762 3.0781261353 3.1098593945 
3.1415926536 
_radius 1 100 double
5.6478504499e-16 0.01350471129 0.027010149409 0.040513337723 0.054012273443 0.06749926783 0.080950497805 0.094316031788 0.10751493699 
0.12043808933 0.13295824744 0.14494438714 0.15627617538 0.16685492528 0.17660897737 0.18549349587 0.19348644953 0.20058353327 
0.20679473679 0.21214424927 0.21667376727 0.22044759673 0.22355679583 0.22611940047 0.22827459886 0.23017038978 0.23194645869 
0.23371625986 0.23555360781 0.23748804927 0.23950953677 0.24157855287 0.24363603259 0.24560927283 0.24741362663 0.24895256915 
0.25011945346 0.25080322859 0.25089853299 0.25031882275 0.24901011098 0.24696265106 0.24421834167 0.24087243214 0.23706892838 
0.2329897789 0.22883853896 0.22482000525 0.22111838812 0.21787760494 0.21518749549 0.21307868175 0.21152681394 0.21046498015 
0.20980158482 0.20943992281 0.2092950804 0.20930423277 0.20942831362 0.20964608268 0.20994452617 0.21031056562 0.21072748864 
0.21117655658 0.21164185256 0.21211553708 0.21260103285 0.21311268646 0.21367165118 0.21429872783 0.21500549957 0.21578533472 
0.21660583126 0.21740408382 0.2180857333 0.2185281257 0.21858721085 0.21810725599 0.21693214357 0.21491694474 0.2119385325 
0.20790418022 0.20275738323 0.19648051892 0.18909432687 0.18065442426 0.17124513444 0.16097091819 0.14994587201 0.13828222983 
0.12607947864 0.11341623578 0.10034699175 0.086904902496 0.073110147153 0.05898157695 0.044548292664 0.029857899183 0.01497935781 
9.6364810831e-16 
_area 1 100 double
0 0.00056603235221 0.0022605957744 0.0050735048743 0.0089880396957 0.013978459531 0.020003792058 0.026999532735 0.034870860913 
0.043490461346 0.05270176831 0.062326556829 0.072175174944 0.082057620112 0.091793699082 0.10122093949 0.11019951283 0.11861367749 
0.12636967906 0.13339182939 0.13962129551 0.14502338887 0.1496062836 0.15344709437 0.1567122043 0.15965022429 0.16253673564 
0.16558120669 0.16885517036 0.17229023426 0.17573247272 0.17901450923 0.18201627567 0.18469191056 0.18704453735 0.18906424599 
0.19068702315 0.19179773983 0.19224466802 0.19184778746 0.19041361787 0.18776882196 0.18380773596 0.17853712322 0.17210241556 
0.16478876526 0.15699882211 0.14921212437 0.14192827634 0.13559158376 0.13049824243 0.12671588121 0.12408484475 0.12231873996 
0.12111664884 0.12022533477 0.11946071291 0.11870633867 0.11789371925 0.11697413776 0.11590409615 0.11465233328 0.11321084655 
0.11160147574 0.1098833549 0.10814924145 0.10650722465 0.10506322927 0.10391397344 0.10314649247 0.10282195373 0.10293504334 
0.10340953573 0.10412744227 0.10493743621 0.10566440376 0.10611736907 0.10609923159 0.10543070392 0.10397383103 0.1016417981 
0.098402770367 0.094276542276 0.089319185313 0.08360934473 0.077242835862 0.070332655661 0.063011402035 0.055433460586 0.047772277493 
0.040209427919 0.032918818671 0.026054280608 0.019747191079 0.014114278945 0.0092690882255 0.0053282842693 0.00240754521 0.00060814107916 
3.3081246018e-17 
