# vtk DataFile Version 5.1
vtk output
ASCII
DATASET POLYDATA
POINTS 100 float
0.190703 0.0342622 0.688999 0.190762 0.0345258 0.689059 0.191073 0.035151 0.689114 
0.191563 0.036111 0.689116 0.192116 0.037364 0.68899 0.192587 0.0388545 0.688634 
0.192818 0.040517 0.687928 0.192655 0.0422792 0.686742 0.191965 0.0440664 0.684942 
0.190647 0.0458059 0.682402 0.188642 0.0474317 0.679011 0.185935 0.0488888 0.67468 
0.182553 0.0501365 0.669352 0.178559 0.0511511 0.663002 0.174039 0.0519271 0.655643 
0.169088 0.0524767 0.647326 0.163799 0.0528277 0.63813 0.158251 0.0530203 0.628166 
0.152495 0.0531017 0.61756 0.146554 0.053121 0.606449 0.140419 0.0531237 0.594967 
0.134059 0.0531459 0.583237 0.127419 0.0532107 0.571362 0.12044 0.0533256 0.559419 
0.113064 0.0534823 0.54745 0.105248 0.0536579 0.535469 0.0969694 0.0538192 0.523459 
0.0882311 0.0539276 0.511376 0.0790646 0.0539455 0.499161 0.0695251 0.0538425 0.486742 
0.0596853 0.0536014 0.474049 0.0496271 0.0532222 0.461017 0.0394313 0.052724 0.447596 
0.0291687 0.0521455 0.433753 0.0188925 0.0515411 0.41947 0.00863435 0.0509764 0.404751 
-0.00159615 0.0505212 0.389608 -0.0118085 0.0502414 0.374061 -0.0220242 0.0501921 0.358129 
-0.0322679 0.0504105 0.341822 -0.0425567 0.0509114 0.325136 -0.0528906 0.0516857 0.30805 
-0.0632434 0.052701 0.290522 -0.073558 0.0539058 0.272494 -0.0837442 0.0552361 0.253892 
-0.0936816 0.0566232 0.234638 -0.103225 0.0580026 0.214653 -0.112216 0.0593222 0.193872 
-0.12049 0.0605492 0.17225 -0.127895 0.0616739 0.149768 -0.134297 0.062711 0.126442 
-0.139594 0.0636973 0.102322 -0.143719 0.0646859 0.0774906 -0.146646 0.0657387 0.0520627 
-0.148389 0.0669166 0.0261741 -0.148997 0.0682698 -2.51347e-05 -0.148549 0.0698293 -0.026381 
-0.147146 0.0715998 -0.0527447 -0.144901 0.0735563 -0.0789815 -0.141931 0.0756442 -0.104977 
-0.138354 0.0777826 -0.130641 -0.134278 0.0798714 -0.155907 -0.129804 0.0818005 -0.180735 
-0.125019 0.0834607 -0.205103 -0.120002 0.0847544 -0.229005 -0.114819 0.085605 -0.252443 
-0.109532 0.0859641 -0.275423 -0.10419 0.0858153 -0.297948 -0.0988384 0.0851744 -0.320018 
-0.0935107 0.0840859 -0.341626 -0.0882314 0.082617 -0.362758 -0.0830118 0.0808482 -0.383392 
-0.0778493 0.0788646 -0.403509 -0.0727261 0.0767459 -0.423086 -0.0676106 0.0745591 -0.442103 
-0.0624602 0.0723529 -0.460546 -0.0572264 0.0701553 -0.478406 -0.051862 0.0679752 -0.495678 
-0.046329 0.0658057 -0.512359 -0.0406073 0.0636309 -0.528448 -0.0347021 0.061433 -0.543937 
-0.0286496 0.0592001 -0.558812 -0.0225194 0.0569325 -0.573051 -0.0164132 0.0546471 -0.586618 
-0.0104593 0.0523784 -0.59947 -0.00480343 0.0501776 -0.611554 0.000403647 0.0481071 -0.622813 
0.00502055 0.0462342 -0.633191 0.00892974 0.0446221 -0.642639 0.0120506 0.0433219 -0.65112 
0.0143497 0.0423645 -0.658613 0.0158459 0.0417556 -0.665117 0.0166108 0.0414731 -0.670652 
0.0167632 0.0414682 -0.675257 0.0164582 0.0416702 -0.678984 0.0158719 0.0419936 -0.681898 
0.0151836 0.0423481 -0.684064 0.0145574 0.0426489 -0.685544 0.0141246 0.0428265 -0.686387 
0.0139699 0.0428358 -0.686625 
LINES 2 100
OFFSETS vtktypeint64
0 100 
CONNECTIVITY vtktypeint64
0 1 2 3 4 5 6 7 8 
9 10 11 12 13 14 15 16 17 
18 19 20 21 22 23 24 25 26 
27 28 29 30 31 32 33 34 35 
36 37 38 39 40 41 42 43 44 
45 46 47 48 49 50 51 52 53 
54 55 56 57 58 59 60 61 62 
63 64 65 66 67 68 69 70 71 
72 73 74 75 76 77 78 79 80 
81 82 83 84 85 86 87 88 89 
90 91 92 93 94 95 96 97 98 
99 
POINT_DATA 100
FIELD FieldData 3
_theta 1 100 double
0 0.031733259127 0.063466518254 0.095199777382 0.12693303651 0.15866629564 0.19039955476 0.22213281389 0.25386607302 
0.28559933214 0.31733259127 0.3490658504 0.38079910953 0.41253236865 0.44426562778 0.47599888691 0.50773214603 0.53946540516 
0.57119866429 0.60293192342 0.63466518254 0.66639844167 0.6981317008 0.72986495992 0.76159821905 0.79333147818 0.82506473731 
0.85679799643 0.88853125556 0.92026451469 0.95199777382 0.98373103294 1.0154642921 1.0471975512 1.0789308103 1.1106640695 
1.1423973286 1.1741305877 1.2058638468 1.237597106 1.2693303651 1.3010636242 1.3327968833 1.3645301425 1.3962634016 
1.4279966607 1.4597299198 1.491463179 1.5231964381 1.5549296972 1.5866629564 1.6183962155 1.6501294746 1.6818627337 
1.7135959929 1.745329252 1.7770625111 1.8087957702 1.8405290294 1.8722622885 1.9039955476 1.9357288068 1.9674620659 
1.999195325 2.0309285841 2.0626618433 2.0943951024 2.1261283615 2.1578616206 2.1895948798 2.2213281389 2.253061398 
2.2847946572 2.3165279163 2.3482611754 2.3799944345 2.4117276937 2.4434609528 2.4751942119 2.506927471 2.5386607302 
2.5703939893 2.6021272484 2.6338605076 2.6655937667 2.6973270258 2.7290602849 2.7607935441 2.7925268032 2.8242600623 
2.8559933214 2.8877265806 2.9194598397 2.9511930988 2.982926358 3.0146596171 3.0463928762 3.0781261353 3.1098593945 
3.1415926536 
_radius 1 100 double
5.5943151141e-16 0.016038934908 0.03184930853 0.047214770841 0.061953069926 0.075925553538 0.089039642911 0.10124527761 0.11252777249 
0.12289995721 0.13239573142 0.1410656675 0.14897380282 0.15619398869 0.16280437676 0.16887962212 0.17448168391 0.17965119498 
0.18440186615 0.18872010319 0.19257096603 0.19591001914 0.19869891498 0.20092122786 0.20259459338 0.20377589954 0.20455806668 
0.20505935555 0.20540825706 0.20572784576 0.20612257526 0.20666850928 0.20740632384 0.2083361236 0.20941406809 0.21055199399 
0.21162164677 0.21246448703 0.21290674979 0.21277819591 0.21193222193 0.21026472241 0.20772920602 0.20434607813 0.20020467564 
0.19545750238 0.19030706718 0.18498669226 0.17973759127 0.17478534418 0.17031944973 0.1664795854 0.16335108418 0.16096969462 
0.15933253975 0.15840997283 0.15815332081 0.15849639273 0.15935250691 0.1606114628 0.16214092531 0.16379428802 0.16542387282 
0.16689616907 0.16810547001 0.16898320668 0.16950161464 0.16967156638 0.16953532791 0.16915569412 0.16860354446 0.16794639116 
0.16724050929 0.1665278388 0.16583620463 0.16517958122 0.16455584106 0.16394198914 0.16328918855 0.16252033295 0.16153158958 
0.16019762041 0.15837931306 0.15593290824 0.15271977999 0.14861629572 0.14352307134 0.13737274459 0.13013534481 0.12182052738 
0.11247631817 0.1021844745 0.091053024324 0.07920692636 0.06677805228 0.053895799928 0.040679591378 0.027234279891 0.01364907342 
8.0298414855e-16 
_area 1 100 double
0 0.00047712042599 0.0019044980359 0.0042691429247 0.007544679367 0.011682767881 0.016603219158 0.022187870281 0.028281901494 
0.034703193238 0.04125761924 0.047756834672 0.054035306665 0.059964508173 0.065463434257 0.070505036458 0.075117438919 0.079377513122 
0.083394155122 0.087281041308 0.091123908508 0.094953346195 0.098736350069 0.1023941123 0.10583992627 0.10901786294 0.1119214358 
0.11458478105 0.11705766147 0.11938517389 0.12160439845 0.12375156068 0.12586358385 0.12796482935 0.13004405064 0.13203444339 
0.13380621793 0.13517389423 0.13591718366 0.13581316486 0.13467473287 0.13238678435 0.12893068237 0.12439134568 0.11894774035 
0.11285169562 0.10640062566 0.099910656292 0.093699802572 0.088082408343 0.08328661442 0.079314117491 0.07605435594 0.073397964484 
0.071260029145 0.06959569186 0.068398242401 0.067666633686 0.067360024945 0.067379216634 0.067585613146 0.067831934621 0.067984245587 
0.067933064359 0.067599906986 0.066944428262 0.065969913354 0.064721408992 0.063276470424 0.061733539009 0.06019917949 0.058774396337 
0.057550576422 0.056617579225 0.056057464372 0.055926101159 0.056217047319 0.056880945626 0.057832796209 0.058935459819 0.060001876647 
0.060818564878 0.061176090024 0.060891027446 0.059817203531 0.057852479117 0.054946785637 0.051112615478 0.046433908214 0.041066965698 
0.035229833694 0.029181624559 0.023196498554 0.01753759997 0.012435367292 0.0080733323444 0.0045830353659 0.0020478485683 0.00051334636601 
1.8286173459e-17 
