# vtk DataFile Version 5.1
vtk output
ASCII
DATASET POLYDATA
POINTS 100 float
0.147657 0.0505831 0.663852 0.147554 0.0506003 0.663858 0.147343 0.0505371 0.663737 
0.147021 0.0504309 0.663448 0.146579 0.0503371 0.662929 0.146005 0.0503204 0.662095 
0.145283 0.0504449 0.66085 0.14439 0.0507632 0.659091 0.143298 0.0513074 0.656717 
0.141975 0.0520824 0.653636 0.140389 0.053062 0.649769 0.138506 0.0541904 0.645058 
0.136301 0.0553864 0.63947 0.133756 0.0565521 0.632992 0.130862 0.0575831 0.62564 
0.127625 0.0583812 0.61745 0.124064 0.0588653 0.608477 0.120209 0.0589816 0.598791 
0.116098 0.0587102 0.58847 0.111771 0.0580682 0.577594 0.107266 0.057108 0.566241 
0.102611 0.0559122 0.554485 0.0978212 0.0545842 0.542386 0.0928932 0.0532373 0.529993 
0.087805 0.0519825 0.517344 0.0825169 0.0509166 0.504463 0.0769751 0.0501126 0.491364 
0.0711183 0.049613 0.478054 0.0648849 0.0494267 0.464537 0.058222 0.0495304 0.450813 
0.0510932 0.0498734 0.436889 0.0434848 0.0503858 0.422774 0.0354099 0.0509881 0.408484 
0.0269093 0.0516022 0.394043 0.018049 0.0521614 0.379479 0.00891468 0.0526185 0.364823 
-0.000396047 0.0529512 0.350108 -0.00978271 0.0531641 0.335361 -0.0191511 0.0532869 0.3206 
-0.0284212 0.0533702 0.305832 -0.0375322 0.0534779 0.291045 -0.0464446 0.0536791 0.276209 
-0.0551385 0.0540386 0.26127 -0.0636084 0.0546091 0.246157 -0.0718545 0.0554249 0.230775 
-0.0798736 0.0564978 0.215019 -0.0876483 0.0578164 0.198769 -0.0951386 0.0593475 0.181903 
-0.102276 0.0610407 0.164305 -0.108962 0.0628343 0.145868 -0.115071 0.0646623 0.126505 
-0.120457 0.0664613 0.106154 -0.124965 0.0681766 0.0847843 -0.128448 0.0697669 0.0624008 
-0.130781 0.0712063 0.0390424 -0.131873 0.0724853 0.0147835 -0.131683 0.0736081 -0.0102698 
-0.130225 0.0745902 -0.0359846 -0.127569 0.0754526 -0.0622078 -0.123838 0.0762178 -0.0887737 
-0.119195 0.0769043 -0.115512 -0.113829 0.077523 -0.142256 -0.107935 0.0780744 -0.168848 
-0.101696 0.0785475 -0.195148 -0.0952615 0.0789197 -0.221034 -0.0887383 0.0791592 -0.246409 
-0.082177 0.0792269 -0.271195 -0.0755723 0.0790799 -0.295336 -0.0688676 0.0786749 -0.318794 
-0.0619669 0.0779707 -0.341545 -0.054752 0.0769312 -0.363573 -0.0471025 0.0755266 -0.384864 
-0.0389166 0.0737348 -0.405409 -0.0301305 0.0715412 -0.425193 -0.0207331 0.068939 -0.444196 
-0.0107739 0.0659285 -0.462395 -0.000365235 0.0625171 -0.479762 0.0103247 0.0587194 -0.496266 
0.0210845 0.0545569 -0.511878 0.0316773 0.0500591 -0.526575 0.0418624 0.0452637 -0.540338 
0.0514169 0.0402173 -0.553162 0.0601544 0.0349756 -0.565053 0.0679411 0.0296029 -0.576027 
0.0747044 0.024171 -0.586116 0.080435 0.018757 -0.595361 0.0851826 0.0134406 -0.603809 
0.089045 0.00830079 -0.611512 0.0921529 0.00341212 -0.618519 0.0946528 -0.00115889 -0.624876 
0.096689 -0.00535676 -0.63062 0.0983889 -0.00913911 -0.635778 0.0998513 -0.0124777 -0.640366 
0.10114 -0.0153581 -0.644387 0.102285 -0.017778 -0.647833 0.103283 -0.0197442 -0.650691 
0.104111 -0.0212697 -0.65294 0.104734 -0.0223691 -0.65456 0.105114 -0.0230558 -0.655533 
0.105228 -0.0233381 -0.655847 
LINES 2 100
OFFSETS vtktypeint64
0 100 
CONNECTIVITY vtktypeint64
0 1 2 3 4 5 6 7 8 
9 10 11 12 13 14 15 16 17 
18 19 20 21 22 23 24 25 26 
27 28 29 30 31 32 33 34 35 
36 37 38 39 40 41 42 43 44 
45 46 47 48 49 50 51 52 53 
54 55 56 57 58 59 60 61 62 
63 64 65 66 67 68 69 70 71 
72 73 74 75 76 77 78 79 80 
81 82 83 84 85 86 87 88 89 
90 91 92 93 94 95 96 97 98 
99 
POINT_DATA 100
FIELD FieldData 3
_theta 1 100 double
0 0.031733259127 0.063466518254 0.095199777382 0.12693303651 0.15866629564 0.19039955476 0.22213281389 0.25386607302 
0.28559933214 0.31733259127 0.3490658504 0.38079910953 0.41253236865 0.44426562778 0.47599888691 0.50773214603 0.53946540516 
0.57119866429 0.60293192342 0.63466518254 0.66639844167 0.6981317008 0.72986495992 0.76159821905 0.79333147818 0.82506473731 
0.85679799643 0.88853125556 0.92026451469 0.95199777382 0.98373103294 1.0154642921 1.0471975512 1.0789308103 1.1106640695 
1.1423973286 1.1741305877 1.2058638468 1.237597106 1.2693303651 1.3010636242 1.3327968833 1.3645301425 1.3962634016 
1.4279966607 1.4597299198 1.491463179 1.5231964381 1.5549296972 1.5866629564 1.6183962155 1.6501294746 1.6818627337 
1.7135959929 1.745329252 1.7770625111 1.8087957702 1.8405290294 1.8722622885 1.9039955476 1.9357288068 1.9674620659 
1.999195325 2.0309285841 2.0626618433 2.0943951024 2.1261283615 2.1578616206 2.1895948798 2.2213281389 2.253061398 
2.2847946572 2.3165279163 2.3482611754 2.3799944345 2.4117276937 2.4434609528 2.4751942119 2.506927471 2.5386607302 
2.5703939893 2.6021272484 2.6338605076 2.6655937667 2.6973270258 2.7290602849 2.7607935441 2.7925268032 2.8242600623 
2.8559933214 2.8877265806 2.9194598397 2.9511930988 2.982926358 3.0146596171 3.0463928762 3.0781261353 3.1098593945 
3.1415926536 
_radius 1 100 double
8.2523259045e-16 0.013044423007 0.026052650957 0.038982126343 0.051784915408 0.064405733591 0.07678077807 0.088837652528 0.10049670394 
0.11167406905 0.12228652509 0.13225778893 0.14152533678 0.15004642055 0.15780198088 0.16479759711 0.1710612608 0.17663838784 
0.18158496982 0.18596005969 0.18981887693 0.1932077311 0.19616175192 0.19870608283 0.20086064546 0.20264772084 0.20410056332 
0.20527053954 0.20623037467 0.20707208872 0.20789966595 0.20881773664 0.20991813834 0.21126623934 0.21288873248 0.21476448121 
0.21681982473 0.21892930992 0.22092211319 0.22259370055 0.22372181731 0.22408570332 0.22348725731 0.22177252419 0.21885141799 
0.21471328175 0.20943594636 0.20318642726 0.19621219054 0.18882291281 0.18136382371 0.17418310315 0.16759735999 0.16186053378 
0.15714184888 0.15351699421 0.15097353708 0.14942782469 0.148747994 0.14877729212 0.14935337362 0.1503214534 0.15154134048 
0.15289018066 0.15426373512 0.15557841308 0.15677413846 0.15781620006 0.15869416854 0.15941744825 0.16000861339 0.16049642451 
0.160909989 0.16127371623 0.16160125061 0.16188912 0.1621126731 0.16222361236 0.16214883926 0.16179210553 0.16103898175 
0.15976444715 0.15784200216 0.15515321604 0.15159671472 0.14709569413 0.14160314089 0.13510412967 0.1276148993 0.11917888614 
0.1098604406 0.099737440294 0.088894283429 0.077416659575 0.065388991955 0.052894619149 0.040017898327 0.026846821452 0.013474699858 
6.336762717e-16 
_area 1 100 double
0 0.00043905102194 0.0017533675644 0.0039334852919 0.0069605393407 0.010802067491 0.015407278375 0.020703102639 0.026592422817 
0.032955525313 0.039655101012 0.046544203784 0.05347580216 0.060312354783 0.066934265429 0.073246573172 0.079183206485 0.084707769363 
0.089810088159 0.094499212356 0.098795172252 0.10272156184 0.10629909271 0.10953945388 0.11244061339 0.1149872013 0.11715943079 
0.11894986537 0.12038248594 0.12152660558 0.1224980409 0.12344172996 0.1245020734 0.12580396496 0.12745595573 0.12955564011 
0.13213827737 0.13505404675 0.13807586492 0.14088227502 0.1430821709 0.14437711002 0.14457568163 0.1434312598 0.14070160439 
0.13635324882 0.13052846302 0.12352150328 0.11573855868 0.10764256345 0.099688996863 0.092282259597 0.085720136977 0.080148536272 
0.075649568969 0.072171214235 0.069575141968 0.067671604861 0.066252035735 0.065119543961 0.064110223231 0.063112147665 0.06208584181 
0.0610751443 0.060153877777 0.05933893839 0.05858815738 0.057838022523 0.057037695175 0.056166730257 0.055233838966 0.054272573494 
0.053344796856 0.052546637347 0.051987694371 0.051758292316 0.051933751537 0.052565112991 0.053599997344 0.054834932153 0.055983272457 
0.0567563767 0.05690681801 0.0562531722 0.054695003582 0.052217577045 0.04888570127 0.044827993614 0.040214899484 0.035235308303 
0.030076910474 0.024914082041 0.019904269297 0.015190685086 0.010907168258 0.0071811545761 0.004132431631 0.0018675705259 0.00047168342436 
3.2966520654e-17 
