# vtk DataFile Version 5.1
vtk output
ASCII
DATASET POLYDATA
POINTS 100 float
0.179497 0.0629454 0.693804 0.179362 0.0631227 0.693984 0.179036 0.0635305 0.694361 
0.178493 0.0641543 0.694818 0.177693 0.0649713 0.695179 0.176588 0.0659512 0.695226 
0.175128 0.0670579 0.694723 0.173268 0.0682508 0.693443 0.170972 0.0694873 0.691189 
0.168219 0.070724 0.687816 0.165002 0.0719191 0.683242 0.161329 0.0730341 0.677457 
0.15722 0.0740348 0.670517 0.152703 0.0748925 0.662537 0.147807 0.0755841 0.65367 
0.14256 0.0760921 0.644096 0.136981 0.0764039 0.633993 0.131085 0.0765108 0.623523 
0.124876 0.0764071 0.612815 0.118356 0.0760884 0.601953 0.111525 0.075551 0.590976 
0.104386 0.0747917 0.579879 0.0969545 0.0738072 0.568617 0.0892578 0.0725956 0.557122 
0.0813393 0.0711572 0.545314 0.0732566 0.069497 0.533116 0.0650784 0.0676261 0.520464 
0.0568772 0.0655646 0.507318 0.0487213 0.0633426 0.493665 0.0406649 0.0610019 0.479517 
0.0327398 0.0585951 0.464909 0.0249486 0.0561852 0.449889 0.0172615 0.0538422 0.434512 
0.00961752 0.0516399 0.418825 0.00193018 0.049651 0.402864 -0.00590185 0.0479422 0.386644 
-0.0139811 0.0465686 0.370162 -0.0223952 0.0455696 0.35339 -0.0312012 0.0449657 0.336289 
-0.0404116 0.0447561 0.318806 -0.0499841 0.0449197 0.300886 -0.0598181 0.0454166 0.282482 
-0.0697566 0.0461925 0.263552 -0.0795956 0.0471842 0.244073 -0.0890995 0.0483259 0.224033 
-0.0980213 0.0495563 0.203435 -0.106125 0.0508244 0.182291 -0.113208 0.0520946 0.160616 
-0.119122 0.0533498 0.138425 -0.123785 0.0545923 0.115726 -0.127193 0.0558421 0.0925213 
-0.129416 0.057133 0.0688058 -0.130589 0.058507 0.0445705 -0.130899 0.0600072 0.0198081 
-0.130561 0.0616705 -0.00547978 -0.129793 0.0635205 -0.0312751 -0.128792 0.0655622 -0.0575374 
-0.127712 0.0677777 -0.0841992 -0.126642 0.0701252 -0.111166 -0.125603 0.0725405 -0.138317 
-0.124542 0.0749403 -0.165514 -0.123338 0.0772282 -0.192612 -0.121819 0.0793021 -0.219464 
-0.119779 0.0810613 -0.245943 -0.117003 0.0824145 -0.271942 -0.113289 0.0832854 -0.297388 
-0.108468 0.0836178 -0.322242 -0.102424 0.0833771 -0.346498 -0.0950992 0.0825509 -0.370175 
-0.0864997 0.081146 -0.393306 -0.0766899 0.0791848 -0.415923 -0.0657823 0.0767004 -0.438045 
-0.0539219 0.0737308 -0.45966 -0.0412693 0.0703149 -0.480722 -0.0279837 0.066488 -0.501137 
-0.0142083 0.062281 -0.520774 -5.98743e-05 0.0577195 -0.53947 0.0143756 0.0528265 -0.557041 
0.0290428 0.0476251 -0.57331 0.0439105 0.0421433 -0.588118 0.0589616 0.036418 -0.601353 
0.0741811 0.0304988 -0.612964 0.0895432 0.0244504 -0.622971 0.105001 0.0183529 -0.631473 
0.120477 0.0122996 -0.638638 0.135863 0.00639345 -0.644696 0.151018 0.000740578 -0.64991 
0.165779 -0.00455671 -0.654558 0.179965 -0.00940765 -0.658899 0.193393 -0.0137401 -0.66315 
0.205891 -0.0175063 -0.667463 0.217306 -0.0206863 -0.671909 0.227512 -0.0232884 -0.676472 
0.236421 -0.0253474 -0.681054 0.243973 -0.0269192 -0.68549 0.250142 -0.0280734 -0.689568 
0.254925 -0.0288849 -0.693058 0.258331 -0.0294242 -0.695741 0.260377 -0.0297486 -0.697436 
0.261075 -0.0298957 -0.698025 
LINES 2 100
OFFSETS vtktypeint64
0 100 
CONNECTIVITY vtktypeint64
0 1 2 3 4 5 6 7 8 
9 10 11 12 13 14 15 16 17 
18 19 20 21 22 23 24 25 26 
27 28 29 30 31 32 33 34 35 
36 37 38 39 40 41 42 43 44 
45 46 47 48 49 50 51 52 53 
54 55 56 57 58 59 60 61 62 
63 64 65 66 67 68 69 70 71 
72 73 74 75 76 77 78 79 80 
81 82 83 84 85 86 87 88 89 
90 91 92 93 94 95 96 97 98 
99 
POINT_DATA 100
FIELD FieldData 3
_theta 1 100 double
0 0.031733259127 0.063466518254 0.095199777382 0.12693303651 0.15866629564 0.19039955476 0.22213281389 0.25386607302 
0.28559933214 0.31733259127 0.3490658504 0.38079910953 0.41253236865 0.44426562778 0.47599888691 0.50773214603 0.53946540516 
0.57119866429 0.60293192342 0.63466518254 0.66639844167 0.6981317008 0.72986495992 0.76159821905 0.79333147818 0.82506473731 
0.85679799643 0.88853125556 0.92026451469 0.95199777382 0.98373103294 1.0154642921 1.0471975512 1.0789308103 1.1106640695 
1.1423973286 1.1741305877 1.2058638468 1.237597106 1.2693303651 1.3010636242 1.3327968833 1.3645301425 1.3962634016 
1.4279966607 1.4597299198 1.491463179 1.5231964381 1.5549296972 1.5866629564 1.6183962155 1.6501294746 1.6818627337 
1.7135959929 1.745329252 1.7770625111 1.8087957702 1.8405290294 1.8722622885 1.9039955476 1.9357288068 1.9674620659 
1.999195325 2.0309285841 2.0626618433 2.0943951024 2.1261283615 2.1578616206 2.1895948798 2.2213281389 2.253061398 
2.2847946572 2.3165279163 2.3482611754 2.3799944345 2.4117276937 2.4434609528 2.4751942119 2.506927471 2.5386607302 
2.5703939893 2.6021272484 2.6338605076 2.6655937667 2.6973270258 2.7290602849 2.7607935441 2.7925268032 2.8242600623 
2.8559933214 2.8877265806 2.9194598397 2.9511930988 2.982926358 3.0146596171 3.0463928762 3.0781261353 3.1098593945 
3.1415926536 
_radius 1 100 double
1.3694078964e-15 0.018175249911 0.036001772094 0.053161965115 0.069392946779 0.084505521521 0.098394443947 0.1110389352 0.1224936949 
0.13287191761 0.1423228908 0.15100745472 0.15907480537 0.16664373493 0.1737904716 0.18054402225 0.18688868753 0.19277251812 
0.19812005186 0.2028476518 0.20687991088 0.21016555816 0.21269099694 0.2144894234 0.21564382831 0.21628294989 0.21657005611 
0.21668523764 0.21680293818 0.2170678286 0.21757334625 0.21834733967 0.21934780223 0.22046926101 0.22155816968 0.22243433233 
0.22291492905 0.22283780881 0.22208114343 0.22057723875 0.21831922936 0.21536041597 0.21180693723 0.20780512274 0.20352519736 
0.19914312203 0.19482249395 0.19069871692 0.1868678923 0.18338259079 0.18025549129 0.17747000494 0.17499507923 0.17280000696 
0.17086454738 0.16918025475 0.16774114263 0.16652628229 0.16548282162 0.16452122631 0.16353026664 0.1624084705 0.16109988801 
0.15962118766 0.15807213753 0.15662686654 0.15550519763 0.15492222739 0.15502034161 0.15581143666 0.15716987435 0.15888232688 
0.16072016483 0.16249950047 0.16411364173 0.16553742381 0.16680946182 0.16800036481 0.16917524279 0.17035869815 0.17150990981 
0.172513593 0.17318868348 0.17331097444 0.1726413086 0.1709505313 0.16803636914 0.16373232542 0.15791145873 0.15048810165 
0.14141937474 0.1307069144 0.11839817237 0.10458620042 0.089407037853 0.073034513491 0.055673111052 0.037550117326 0.018908312615 
8.0572087375e-16 
_area 1 100 double
0 0.00067596912704 0.0026522843428 0.0057836069507 0.0098569492866 0.014628323612 0.019861428882 0.025359655331 0.030984869142 
0.03666039964 0.042359959715 0.048087184293 0.053851434364 0.059645550574 0.065431317879 0.071137620574 0.076673161223 0.081950303661 
0.08691093103 0.091541424637 0.095862592635 0.099889906275 0.10360104505 0.1069528913 0.10991585394 0.11248918017 0.11470140651 
0.11661054734 0.11831221745 0.11995248511 0.12172605774 0.12381988788 0.12629404714 0.12901647833 0.13172627884 0.13412326267 
0.13592855593 0.13692234367 0.13695832815 0.13595914774 0.13390709938 0.13084573539 0.12688955292 0.12222264626 0.11707669922 
0.1116974904 0.10631633866 0.10113587108 0.096321674585 0.091980655992 0.088135179998 0.084738492858 0.081739604831 0.07914348095 
0.077030791811 0.075569571137 0.074916531824 0.074925643884 0.075152175122 0.075092383317 0.074336062908 0.07266587743 0.070132597379 
0.06707251764 0.064080331759 0.062115521356 0.06238090266 0.064687103321 0.067906502603 0.071199220318 0.074084642371 0.076373859451 
0.077981865899 0.0787335798 0.07854468927 0.077489597064 0.075749567926 0.073565837347 0.071196754511 0.068875832923 0.066773363036 
0.064968495809 0.063435505002 0.06204080782 0.060530488044 0.058523383071 0.055647209452 0.051761151543 0.046959514492 0.041486573832 
0.035635650365 0.029678063312 0.023833349663 0.018280112557 0.013182586732 0.0087072697673 0.00502022718 0.0022706694961 0.00057361276698 
4.4355774967e-17 
