# vtk DataFile Version 5.1
vtk output
ASCII
DATASET POLYDATA
POINTS 100 float
0.0816111 0.080671 0.697148 0.0816713 0.0808033 0.696902 0.0819009 0.0809984 0.695964 
0.082263 0.0812329 0.694358 0.0827009 0.0814701 0.692114 0.0831445 0.0816636 0.689269 
0.0835196 0.0817614 0.685853 0.0837559 0.0817106 0.681887 0.0837955 0.0814627 0.677372 
0.083599 0.0809777 0.672291 0.0831485 0.0802285 0.666605 0.082448 0.0792032 0.66026 
0.0815198 0.0779073 0.653194 0.0803991 0.0763628 0.645345 0.0791252 0.0746076 0.636663 
0.0777328 0.0726923 0.627119 0.0762432 0.0706767 0.616716 0.0746572 0.068625 0.605494 
0.0729505 0.0666009 0.59353 0.0710731 0.064663 0.580934 0.0689522 0.06286 0.567844 
0.0664986 0.0612276 0.554411 0.063617 0.0597859 0.540788 0.0602173 0.0585383 0.527114 
0.0562272 0.0574719 0.513502 0.0516035 0.0565594 0.500027 0.0463409 0.0557621 0.48672 
0.0404769 0.0550338 0.473564 0.0340921 0.054326 0.460503 0.0273057 0.053593 0.447445 
0.0202652 0.0527968 0.434275 0.0131336 0.0519123 0.42087 0.0060726 0.0509305 0.407114 
-0.000774062 0.0498616 0.392906 -0.0072966 0.0487358 0.378177 -0.0134319 0.0476031 0.362888 
-0.0191713 0.046531 0.347038 -0.0245629 0.0456007 0.330653 -0.0297069 0.0449021 0.313783 
-0.0347442 0.0445278 0.296489 -0.0398406 0.0445658 0.278834 -0.0451658 0.0450933 0.260864 
-0.0508714 0.0461696 0.242607 -0.0570689 0.0478309 0.224062 -0.0638108 0.0500856 0.205195 
-0.0710769 0.0529124 0.185948 -0.078767 0.0562598 0.166239 -0.0867017 0.0600475 0.145976 
-0.0946315 0.0641706 0.125068 -0.102253 0.068505 0.103435 -0.109231 0.0729146 0.0810234 
-0.115223 0.0772593 0.0578099 -0.119912 0.0814031 0.03381 -0.123025 0.0852217 0.00907771 
-0.124361 0.0886099 -0.0162971 -0.123804 0.0914861 -0.0421955 -0.121332 0.093796 -0.0684781 
-0.117017 0.0955131 -0.0949957 -0.111016 0.0966377 -0.121599 -0.103552 0.0971931 -0.148149 
-0.0948968 0.0972203 -0.17452 -0.0853442 0.0967719 -0.200608 -0.0751825 0.0959047 -0.22633 
-0.0646724 0.0946725 -0.251618 -0.0540272 0.0931206 -0.276422 -0.0433998 0.0912802 -0.300698 
-0.0328764 0.089166 -0.324409 -0.0224788 0.0867747 -0.347516 -0.0121731 0.0840865 -0.369977 
-0.00188382 0.0810682 -0.391746 0.00848689 0.0776776 -0.412774 0.0190398 0.0738695 -0.433014 
0.0298594 0.0696021 -0.452421 0.0409975 0.0648425 -0.470959 0.0524623 0.0595728 -0.488605 
0.0642124 0.0537934 -0.50535 0.0761582 0.0475259 -0.521196 0.0881686 0.0408136 -0.53616 
0.100083 0.0337201 -0.550266 0.111725 0.0263265 -0.56354 0.122921 0.0187275 -0.576003 
0.133517 0.0110258 -0.587668 0.143387 0.00332719 -0.598535 0.152447 -0.00426478 -0.608586 
0.160659 -0.0116537 -0.617791 0.168029 -0.0187537 -0.626109 0.1746 -0.0254923 -0.633493 
0.180446 -0.0318117 -0.639904 0.185657 -0.0376685 -0.645316 0.190324 -0.0430332 -0.649725 
0.194532 -0.0478882 -0.653158 0.198344 -0.0522255 -0.655676 0.201801 -0.0560443 -0.657375 
0.204912 -0.0593486 -0.658382 0.20766 -0.0621448 -0.658846 0.210009 -0.0644401 -0.658926 
0.21191 -0.0662409 -0.658783 0.21331 -0.0675525 -0.658557 0.214163 -0.0683777 -0.658361 
0.214438 -0.0687175 -0.658269 
LINES 2 100
OFFSETS vtktypeint64
0 100 
CONNECTIVITY vtktypeint64
0 1 2 3 4 5 6 7 8 
9 10 11 12 13 14 15 16 17 
18 19 20 21 22 23 24 25 26 
27 28 29 30 31 32 33 34 35 
36 37 38 39 40 41 42 43 44 
45 46 47 48 49 50 51 52 53 
54 55 56 57 58 59 60 61 62 
63 64 65 66 67 68 69 70 71 
72 73 74 75 76 77 78 79 80 
81 82 83 84 85 86 87 88 89 
90 91 92 93 94 95 96 97 98 
99 
POINT_DATA 100
FIELD FieldData 3
_theta 1 100 double
0 0.031733259127 0.063466518254 0.095199777382 0.12693303651 0.15866629564 0.19039955476 0.22213281389 0.25386607302 
0.28559933214 0.31733259127 0.3490658504 0.38079910953 0.41253236865 0.44426562778 0.47599888691 0.50773214603 0.53946540516 
0.57119866429 0.60293192342 0.63466518254 0.66639844167 0.6981317008 0.72986495992 0.76159821905 0.79333147818 0.82506473731 
0.85679799643 0.88853125556 0.92026451469 0.95199777382 0.98373103294 1.0154642921 1.0471975512 1.0789308103 1.1106640695 
1.1423973286 1.1741305877 1.2058638468 1.237597106 1.2693303651 1.3010636242 1.3327968833 1.3645301425 1.3962634016 
1.4279966607 1.4597299198 1.491463179 1.5231964381 1.5549296972 1.5866629564 1.6183962155 1.6501294746 1.6818627337 
1.7135959929 1.745329252 1.7770625111 1.8087957702 1.8405290294 1.8722622885 1.9039955476 1.9357288068 1.9674620659 
1.999195325 2.0309285841 2.0626618433 2.0943951024 2.1261283615 2.1578616206 2.1895948798 2.2213281389 2.253061398 
2.2847946572 2.3165279163 2.3482611754 2.3799944345 2.4117276937 2.4434609528 2.4751942119 2.506927471 2.5386607302 
2.5703939893 2.6021272484 2.6338605076 2.6655937667 2.6973270258 2.7290602849 2.7607935441 2.7925268032 2.8242600623 
2.8559933214 2.8877265806 2.9194598397 2.9511930988 2.982926358 3.0146596171 3.0463928762 3.0781261353 3.1098593945 
3.1415926536 
_radius 1 100 double
7.9491987946e-16 0.012768481324 0.025635515164 0.038663044823 0.051867523848 0.065209705758 0.078594657148 0.091880799375 0.10489555745 
0.11745474606 0.12938284834 0.14053164946 0.15079519077 0.16011964856 0.16850742746 0.17601538817 0.18274763205 0.18884363967 
0.19446286527 0.19976719349 0.20490298554 0.20998471008 0.21508223889 0.22021365197 0.22534476573 0.23039561547 0.23525297646 
0.2397869754 0.24386918536 0.24738944724 0.25026900149 0.25246821573 0.25398808368 0.25486557898 0.25516375563 0.25495814029 
0.25432145368 0.25330900681 0.25194717247 0.25022704807 0.24810477825 0.24550906695 0.2423553243 0.23856483364 0.23408644353 
0.22891769699 0.22312204024 0.21683876707 0.21028258255 0.20373011184 0.19749160865 0.19186848006 0.18710275214 0.18333302238 
0.18057548192 0.17873874603 0.17766281932 0.17716268395 0.17706130977 0.17720695066 0.17747729436 0.17777606334 0.17802739732 
0.1781719662 0.178167209 0.17799190198 0.17765249214 0.17718695571 0.17666272751 0.17616780126 0.17579666078 0.17563415981 
0.17574072538 0.17614162791 0.17682182462 0.17772636205 0.17876504205 0.17981951323 0.18075122078 0.18140933253 0.18163833971 
0.18128523036 0.18020601093 0.17827115422 0.17536950352 0.17141034056 0.16632367282 0.16005919034 0.15258464811 0.14388453072 
0.13395969838 0.12282834485 0.11052814699 0.097119098878 0.082686290577 0.067341838052 0.051225271299 0.034501906395 0.017359023243 
9.7553240756e-16 
_area 1 100 double
0 0.0004879887305 0.0019716393187 0.0045007326824 0.0081302773227 0.012887980192 0.018744457712 0.025595711701 0.033263488121 
0.041513484767 0.050085880405 0.058729317335 0.067229576455 0.075427532976 0.083225715664 0.090586385252 0.097524968539 0.10410136401 
0.11040973752 0.11656624242 0.12269380577 0.12890352104 0.1352736673 0.14183026263 0.14853543706 0.15528807269 0.1619352874 
0.16828965345 0.17414956272 0.17932416946 0.18366203496 0.18707321336 0.18953024836 0.1910521564 0.19169424496 0.19154343055 
0.19070304319 0.18926810011 0.18730120738 0.18505007405 0.18244113363 0.1793070502 0.17520811883 0.16996298623 0.16353439935 
0.15602882236 0.14768986233 0.13887949143 0.1300528476 0.12173105655 0.11445620912 0.10867507944 0.10451963389 0.10166894716 
0.099601139832 0.097944904468 0.096564277662 0.095297111349 0.093932976377 0.092491579905 0.091084857862 0.089751806527 0.088410421774 
0.086913293672 0.085122583142 0.083001725702 0.080615396051 0.078089106741 0.075564217382 0.073163808909 0.070983603345 0.069101498772 
0.067586697051 0.066495759343 0.065860416495 0.065682205964 0.065938824545 0.066589611869 0.06755955992 0.068700617558 0.069789607945 
0.070584834396 0.070869352534 0.070464972695 0.069238157731 0.067104002161 0.064027684412 0.060023600349 0.055153664726 0.049526120662 
0.043294894752 0.036658093078 0.029853579269 0.02315004036 0.016833233122 0.011188562685 0.006482121598 0.0029424791126 0.00074502148986 
5.4044139246e-17 
