# vtk DataFile Version 5.1
vtk output
ASCII
DATASET POLYDATA
POINTS 100 float
0.132829 0.046447 0.674352 0.132991 0.0466864 0.674158 0.133551 0.0472863 0.673416 
0.134422 0.0482296 0.672127 0.135474 0.0494875 0.670289 0.136542 0.0510189 0.667899 
0.13745 0.0527697 0.66495 0.138025 0.0546729 0.661431 0.13812 0.0566494 0.657325 
0.13762 0.0586106 0.652612 0.136457 0.0604619 0.647269 0.134612 0.0621072 0.641275 
0.132107 0.063455 0.634612 0.128999 0.0644246 0.627269 0.125368 0.0649521 0.619248 
0.121299 0.0649957 0.610564 0.116871 0.0645399 0.601246 0.112141 0.063597 0.591341 
0.107139 0.0622067 0.580906 0.101865 0.060434 0.570009 0.0962883 0.0583634 0.558721 
0.0903601 0.0560931 0.547113 0.0840207 0.0537269 0.535246 0.0772147 0.0513668 0.523169 
0.0699034 0.0491051 0.510911 0.0620759 0.0470189 0.498482 0.0537565 0.0451661 0.485869 
0.0450063 0.0435832 0.473043 0.0359197 0.0422864 0.459958 0.0266163 0.041274 0.446558 
0.0172277 0.0405306 0.432785 0.00788302 0.040033 0.418582 -0.00130615 0.0397553 0.403905 
-0.0102588 0.0396744 0.388718 -0.0189334 0.0397736 0.373002 -0.0273318 0.0400454 0.356755 
-0.0354962 0.0404915 0.339981 -0.0435015 0.0411218 0.322699 -0.0514407 0.0419515 0.304923 
-0.0594091 0.042997 0.286669 -0.0674848 0.0442721 0.26794 -0.0757124 0.0457836 0.248729 
-0.0840889 0.0475285 0.229015 -0.0925548 0.049492 0.208764 -0.100992 0.0516475 0.187931 
-0.109229 0.053958 0.166473 -0.117052 0.056379 0.144349 -0.12422 0.0588625 0.121533 
-0.130489 0.0613609 0.0980246 -0.135628 0.0638314 0.0738491 -0.139441 0.0662393 0.0490683 
-0.141787 0.0685598 0.023779 -0.142587 0.0707787 -0.00188896 -0.14183 0.0728914 -0.0277788 
-0.139574 0.0749007 -0.0537154 -0.135936 0.0768128 -0.0795172 -0.131079 0.0786339 -0.105008 
-0.125198 0.080366 -0.130031 -0.118501 0.0820035 -0.154457 -0.111193 0.0835315 -0.178194 
-0.10346 0.0849243 -0.201193 -0.0954579 0.0861467 -0.223448 -0.0873098 0.0871555 -0.244989 
-0.0791 0.0879029 -0.265883 -0.0708787 0.0883398 -0.286216 -0.0626676 0.0884201 -0.306085 
-0.0544679 0.0881033 -0.325587 -0.0462692 0.0873574 -0.344803 -0.0380574 0.0861604 -0.363794 
-0.0298216 0.0844996 -0.382588 -0.0215583 0.0823718 -0.401184 -0.0132735 0.0797804 -0.419544 
-0.00498242 0.0767343 -0.437606 0.00329255 0.0732451 -0.455281 0.0115245 0.0693259 -0.47247 
0.019685 0.0649912 -0.48907 0.027746 0.0602566 -0.504982 0.0356806 0.0551413 -0.520123 
0.0434629 0.04967 -0.534431 0.0510655 0.0438762 -0.547866 0.0584571 0.0378048 -0.560419 
0.0655996 0.0315145 -0.572104 0.0724457 0.0250788 -0.582956 0.078938 0.0185849 -0.593027 
0.0850106 0.0121319 -0.602379 0.0905918 0.00582594 -0.611076 0.0956102 -0.000225121 -0.619181 
0.100001 -0.00591871 -0.626743 0.103715 -0.0111643 -0.633802 0.106724 -0.0158897 -0.64038 
0.109029 -0.0200461 -0.646482 0.110663 -0.0236108 -0.652096 0.11169 -0.0265877 -0.657197 
0.112205 -0.0290051 -0.66175 0.112324 -0.0309106 -0.665711 0.112175 -0.0323647 -0.669035 
0.111887 -0.0334323 -0.671676 0.111578 -0.0341745 -0.673597 0.111342 -0.0346407 -0.674764 
0.111241 -0.0348622 -0.67516 
LINES 2 100
OFFSETS vtktypeint64
0 100 
CONNECTIVITY vtktypeint64
0 1 2 3 4 5 6 7 8 
9 10 11 12 13 14 15 16 17 
18 19 20 21 22 23 24 25 26 
27 28 29 30 31 32 33 34 35 
36 37 38 39 40 41 42 43 44 
45 46 47 48 49 50 51 52 53 
54 55 56 57 58 59 60 61 62 
63 64 65 66 67 68 69 70 71 
72 73 74 75 76 77 78 79 80 
81 82 83 84 85 86 87 88 89 
90 91 92 93 94 95 96 97 98 
99 
POINT_DATA 100
FIELD FieldData 3
_theta 1 100 double
0 0.031733259127 0.063466518254 0.095199777382 0.12693303651 0.15866629564 0.19039955476 0.22213281389 0.25386607302 
0.28559933214 0.31733259127 0.3490658504 0.38079910953 0.41253236865 0.44426562778 0.47599888691 0.50773214603 0.53946540516 
0.57119866429 0.60293192342 0.63466518254 0.66639844167 0.6981317008 0.72986495992 0.76159821905 0.79333147818 0.82506473731 
0.85679799643 0.88853125556 0.92026451469 0.95199777382 0.98373103294 1.0154642921 1.0471975512 1.0789308103 1.1106640695 
1.1423973286 1.1741305877 1.2058638468 1.237597106 1.2693303651 1.3010636242 1.3327968833 1.3645301425 1.3962634016 
1.4279966607 1.4597299198 1.491463179 1.5231964381 1.5549296972 1.5866629564 1.6183962155 1.6501294746 1.6818627337 
1.7135959929 1.745329252 1.7770625111 1.8087957702 1.8405290294 1.8722622885 1.9039955476 1.9357288068 1.9674620659 
1.999195325 2.0309285841 2.0626618433 2.0943951024 2.1261283615 2.1578616206 2.1895948798 2.2213281389 2.253061398 
2.2847946572 2.3165279163 2.3482611754 2.3799944345 2.4117276937 2.4434609528 2.4751942119 2.506927471 2.5386607302 
2.5703939893 2.6021272484 2.6338605076 2.6655937667 2.6973270258 2.7290602849 2.7607935441 2.7925268032 2.8242600623 
2.8559933214 2.8877265806 2.9194598397 2.9511930988 2.982926358 3.0146596171 3.0463928762 3.0781261353 3.1098593945 
3.1415926536 
_radius 1 100 double
1.8974037117e-15 0.013760488654 0.027515055218 0.041244571313 0.05492111857 0.068503528785 0.081933468959 0.095133415769 0.10800777633 
0.12044768744 0.13233901352 0.14357223614 0.1540525727 0.16370877559 0.17249946086 0.18041628754 0.18748373339 0.19375557548 
0.19930853108 0.20423386778 0.20862810774 0.2125841348 0.21618396659 0.21949410996 0.22256379509 0.22542563233 0.22809762474 
0.2305852692 0.2328827952 0.23497328253 0.23682814391 0.2384069216 0.23965834687 0.24052319058 0.24093881486 0.24084479821 
0.24018875564 0.23893156894 0.23705158445 0.23454773866 0.2314418486 0.2277803449 0.2236355344 0.219106145 0.21431655296 
0.20941385053 0.20456190001 0.19993186348 0.19568950758 0.19198085851 0.18891916987 0.18657677295 0.18498416818 0.18413566677 
0.18399773942 0.18451526132 0.18561281893 0.18719189549 0.18912785117 0.19127125551 0.19345591791 0.1955125062 0.1972842717 
0.19864121082 0.19949037973 0.19978170673 0.19950954775 0.19871038034 0.19745705251 0.19585021618 0.19400775993 0.19205304373 
0.19010267014 0.18825456675 0.18657729562 0.18510163822 0.18381548701 0.18266277353 0.18154658362 0.18033596841 0.17887552761 
0.17699672242 0.17452995283 0.17131651041 0.1672194961 0.16213274501 0.1559868695 0.1487518001 0.14043564635 0.13108023229 
0.1207541742 0.10954474646 0.097549916918 0.084871766059 0.071612062405 0.057870169482 0.043742883846 0.029325418342 0.01471265491 
4.3909610102e-16 
_area 1 100 double
0 0.00047225888582 0.0018860001989 0.0042321145661 0.0074951437312 0.011652018484 0.016668925429 0.022495799283 0.029058860949 
0.036252695974 0.04393413449 0.051920488882 0.059994690641 0.067919583771 0.075462384945 0.082427104385 0.088688069708 0.094214174831 
0.099073517858 0.10341301269 0.107417748 0.11126612901 0.11509913685 0.11901116483 0.12305568615 0.12725316716 0.13159249319 
0.13602540384 0.14046096031 0.14476914798 0.14879654345 0.15238800453 0.15540548304 0.15773873752 0.15930730028 0.16005570002 
0.15994547483 0.15894887159 0.15704899753 0.15424755923 0.15057616947 0.14610539562 0.14094808326 0.13525657613 0.12921503321 
0.12302841471 0.11690959077 0.11106551484 0.10568258006 0.10091107736 0.096850376684 0.093539990871 0.090966228874 0.089095815582 
0.087897686166 0.087260449564 0.087034720607 0.08710713921 0.087374316141 0.087730846069 0.088069894545 0.088281328244 0.088250180771 
0.087870765955 0.087071669764 0.085830322912 0.084171090054 0.082155920476 0.079873964744 0.077428613933 0.074920569881 0.072430809904 
0.070011973715 0.067693532588 0.065489856374 0.063415090193 0.061636138721 0.060153238286 0.059126079771 0.058364798923 0.057735830258 
0.057242138606 0.056748302129 0.056040340376 0.054926992842 0.05325597853 0.050920179961 0.047866871307 0.044103655896 0.039698097471 
0.034771573312 0.029489608558 0.024051002534 0.018676948289 0.013599993356 0.0090520301397 0.0052508743937 0.0023859549189 0.00060450291951 
2.6121056818e-17 
