# vtk DataFile Version 5.1
vtk output
ASCII
DATASET POLYDATA
POINTS 100 float
0.101797 0.0527664 0.759269 0.101975 0.0529818 0.759097 0.102598 0.0534759 0.758422 
0.103572 0.0542297 0.757225 0.104756 0.0552129 0.755478 0.105969 0.0563846 0.753145 
0.107016 0.0576949 0.750181 0.1077 0.0590869 0.746538 0.107845 0.0604989 0.742165 
0.107308 0.0618672 0.737018 0.105989 0.0631286 0.731055 0.103836 0.0642242 0.724249 
0.10084 0.0651017 0.716589 0.0970295 0.0657184 0.708082 0.092461 0.0660431 0.698754 
0.0872047 0.0660579 0.688655 0.0813334 0.0657585 0.677849 0.0749123 0.0651539 0.666416 
0.0679931 0.0642651 0.654443 0.0606123 0.0631234 0.642016 0.0527935 0.0617668 0.629211 
0.0445541 0.0602377 0.616092 0.0359139 0.0585798 0.602697 0.0269046 0.0568346 0.589042 
0.0175776 0.0550401 0.575114 0.00800868 0.0532286 0.560874 -0.0017008 0.0514273 0.546266 
-0.0114289 0.049658 0.531221 -0.021042 0.0479395 0.515665 -0.0304078 0.046289 0.499532 
-0.0394101 0.0447253 0.482768 -0.047964 0.0432707 0.465344 -0.0560282 0.0419534 0.447252 
-0.0636131 0.0408086 0.428511 -0.0707825 0.0398782 0.40916 -0.0776486 0.0392099 0.389256 
-0.0843597 0.0388548 0.36886 -0.0910826 0.0388636 0.348029 -0.09798 0.0392825 0.326808 
-0.105187 0.0401485 0.30522 -0.112791 0.0414849 0.283261 -0.12081 0.0432976 0.260903 
-0.129186 0.0455725 0.238092 -0.137778 0.0482742 0.214758 -0.146374 0.0513471 0.190825 
-0.154701 0.0547177 0.166224 -0.162451 0.0582985 0.140904 -0.169308 0.061994 0.114845 
-0.174976 0.0657063 0.0880676 -0.179209 0.0693416 0.0606326 -0.181833 0.0728164 0.0326437 
-0.182762 0.076062 0.00424034 -0.182004 0.0790282 -0.0244126 -0.179663 0.0816842 -0.0531386 
-0.175919 0.0840187 -0.0817649 -0.171014 0.0860368 -0.110137 -0.165225 0.087756 -0.138131 
-0.158835 0.0892013 -0.165663 -0.152105 0.090399 -0.192693 -0.145255 0.0913711 -0.219221 
-0.138442 0.0921307 -0.245281 -0.131753 0.0926782 -0.270931 -0.125205 0.093 -0.296235 
-0.118749 0.0930686 -0.321251 -0.112291 0.0928451 -0.34602 -0.105703 0.0922833 -0.370549 
-0.0988493 0.0913353 -0.394813 -0.0916043 0.0899577 -0.418752 -0.0838723 0.0881178 -0.442275 
-0.0755989 0.0857989 -0.465275 -0.0667784 0.0830051 -0.487644 -0.0574541 0.0797632 -0.509282 
-0.0477135 0.0761232 -0.530119 -0.0376779 0.0721559 -0.550121 -0.0274901 0.067949 -0.569301 
-0.0173001 0.0636011 -0.587713 -0.00725235 0.0592144 -0.605451 0.00252539 0.0548875 -0.622636 
0.0119289 0.0507077 -0.639395 0.020881 0.0467449 -0.655845 0.0293311 0.0430471 -0.672071 
0.0372515 0.0396377 -0.688115 0.0446315 0.0365155 -0.703956 0.051471 0.0336571 -0.719516 
0.0577741 0.0310209 -0.734653 0.0635446 0.0285537 -0.749181 0.068783 0.0261979 -0.762883 
0.0734868 0.0238986 -0.775537 0.0776518 0.021611 -0.786936 0.0812762 0.0193063 -0.796919 
0.0843643 0.0169759 -0.805381 0.0869303 0.0146331 -0.812296 0.0890014 0.0123129 -0.817712 
0.0906179 0.0100693 -0.821752 0.0918319 0.00797007 -0.8246 0.0927036 0.00609101 -0.826477 
0.0932955 0.00450821 -0.827617 0.0936663 0.00329091 -0.82824 0.093864 0.00249469 -0.828526 
0.0939206 0.00215609 -0.828592 
LINES 2 100
OFFSETS vtktypeint64
0 100 
CONNECTIVITY vtktypeint64
0 1 2 3 4 5 6 7 8 
9 10 11 12 13 14 15 16 17 
18 19 20 21 22 23 24 25 26 
27 28 29 30 31 32 33 34 35 
36 37 38 39 40 41 42 43 44 
45 46 47 48 49 50 51 52 53 
54 55 56 57 58 59 60 61 62 
63 64 65 66 67 68 69 70 71 
72 73 74 75 76 77 78 79 80 
81 82 83 84 85 86 87 88 89 
90 91 92 93 94 95 96 97 98 
99 
POINT_DATA 100
FIELD FieldData 3
_theta 1 100 double
0 0.031733259127 0.063466518254 0.095199777382 0.12693303651 0.15866629564 0.19039955476 0.22213281389 0.25386607302 
0.28559933214 0.31733259127 0.3490658504 0.38079910953 0.41253236865 0.44426562778 0.47599888691 0.50773214603 0.53946540516 
0.57119866429 0.60293192342 0.63466518254 0.66639844167 0.6981317008 0.72986495992 0.76159821905 0.79333147818 0.82506473731 
0.85679799643 0.88853125556 0.92026451469 0.95199777382 0.98373103294 1.0154642921 1.0471975512 1.0789308103 1.1106640695 
1.1423973286 1.1741305877 1.2058638468 1.237597106 1.2693303651 1.3010636242 1.3327968833 1.3645301425 1.3962634016 
1.4279966607 1.4597299198 1.491463179 1.5231964381 1.5549296972 1.5866629564 1.6183962155 1.6501294746 1.6818627337 
1.7135959929 1.745329252 1.7770625111 1.8087957702 1.8405290294 1.8722622885 1.9039955476 1.9357288068 1.9674620659 
1.999195325 2.0309285841 2.0626618433 2.0943951024 2.1261283615 2.1578616206 2.1895948798 2.2213281389 2.253061398 
2.2847946572 2.3165279163 2.3482611754 2.3799944345 2.4117276937 2.4434609528 2.4751942119 2.506927471 2.5386607302 
2.5703939893 2.6021272484 2.6338605076 2.6655937667 2.6973270258 2.7290602849 2.7607935441 2.7925268032 2.8242600623 
2.8559933214 2.8877265806 2.9194598397 2.9511930988 2.982926358 3.0146596171 3.0463928762 3.0781261353 3.1098593945 
3.1415926536 
_radius 1 100 double
2.3714374201e-16 0.015478736789 0.030808377846 0.045847682585 0.060479229044 0.074615787568 0.088201365997 0.10120735659 0.11362535618 
0.12545882294 0.13671556873 0.14740228939 0.15752131627 0.16706900558 0.17603495105 0.18440150312 0.19214365651 0.19922988307 
0.20562465442 0.21129310562 0.21620763693 0.22035548641 0.22374571643 0.22641385438 0.22842269792 0.22985849242 0.23082265983 
0.23142026459 0.23174717037 0.23187814909 0.23185797408 0.23169686847 0.23137082637 0.23082653489 0.22999006852 0.22877823139 
0.2271113111 0.22492597286 0.22218701682 0.21889677003 0.21510104397 0.21089087286 0.2063996102 0.20179533925 0.19726894163 
0.19301861794 0.1892321981 0.18606912496 0.18364436275 0.18201655276 0.18118248321 0.18107918862 0.18159348367 0.18257682087 
0.18386223845 0.18528063051 0.18667496395 0.18791209336 0.1888919539 0.1895535555 0.18987699639 0.18988097444 0.18961594423 
0.18915389557 0.18857641762 0.18796300879 0.18738136205 0.18688066697 0.18648808898 0.18620786301 0.18602212353 0.18589274703 
0.18576397174 0.18556607008 0.18522051218 0.18464670018 0.18376964514 0.18252728387 0.18087582406 0.17879169343 0.17626929875 
0.17331470455 0.16993629317 0.16613422171 0.16189083965 0.15716406655 0.15188510502 0.14596097553 0.13928147174 0.13172947415 
0.1231932323 0.11357919881 0.10282415038 0.090905533963 0.077849159088 0.063733520402 0.048690220324 0.032900218346 0.016585978719 
6.1733761387e-16 
_area 1 100 double
0 0.00059251114824 0.0023431313128 0.0051765557598 0.0089836950913 0.013640900376 0.019027869484 0.025039078965 0.031586370078 
0.038593776896 0.045988164926 0.053689961947 0.061607451226 0.069636337743 0.077664144736 0.085577170339 0.093267081194 0.10063515288 
0.10759416808 0.11406978133 0.12000347258 0.12535759959 0.13012044745 0.13430756622 0.13795671906 0.14111699306 0.14383570488 
0.14614763183 0.14806962332 0.14960099208 0.15072773603 0.15142751818 0.15167248321 0.15142824027 0.1506498257 0.14927866004 
0.14724632647 0.14448941771 0.14097487455 0.13672878816 0.13185673708 0.12654463251 0.12103621798 0.11559249976 0.11044514278 
0.10575824154 0.10161020311 0.098000294284 0.094876050847 0.092174837735 0.08988532589 0.088201134943 0.087676188516 0.088146899541 
0.089038409993 0.089981130038 0.090714265208 0.091058869921 0.090898578818 0.090218133349 0.089088360034 0.087592320212 0.085850179691 
0.083980021427 0.082061436405 0.080196638163 0.078506664795 0.07709792463 0.076053224467 0.07541253628 0.075163492537 0.075245377262 
0.075558880806 0.07597717318 0.076360144808 0.076572493905 0.076503341207 0.076082836214 0.075304524428 0.074329693102 0.07317519711 
0.071601912135 0.069576299036 0.067106669232 0.064210132785 0.060901484876 0.057188327318 0.053071243911 0.048549144123 0.043629494171 
0.038342075466 0.032753663654 0.026980168626 0.021192688765 0.015614674358 0.010508831824 0.0061543265503 0.0028169708302 0.0007169802141 
4.231273022e-17 
