# vtk DataFile Version 5.1
vtk output
ASCII
DATASET POLYDATA
POINTS 100 float
0.172372 0.048326 0.668686 0.172329 0.0485232 0.668553 0.172313 0.0489986 0.668025 
0.172272 0.0497299 0.667097 0.17212 0.0506827 0.665757 0.171755 0.0518139 0.663989 
0.171068 0.0530744 0.661766 0.169956 0.0544133 0.659052 0.168336 0.0557812 0.6558 
0.166153 0.0571326 0.651951 0.163387 0.0584279 0.647442 0.160055 0.059634 0.642208 
0.156205 0.0607239 0.636187 0.151911 0.0616757 0.629327 0.147261 0.0624703 0.621596 
0.142349 0.0630897 0.612981 0.137254 0.0635151 0.603502 0.132039 0.0637257 0.593202 
0.126738 0.0636988 0.582155 0.121354 0.0634107 0.570458 0.115858 0.0628388 0.558222 
0.110197 0.0619652 0.545568 0.1043 0.0607804 0.532615 0.0980889 0.0592872 0.51947 
0.0914931 0.0575048 0.506221 0.0844574 0.0554712 0.492928 0.0769526 0.0532447 0.479625 
0.0689806 0.0509028 0.466311 0.0605764 0.0485398 0.452961 0.0518048 0.0462623 0.439525 
0.0427546 0.044182 0.425937 0.0335287 0.0424086 0.412122 0.0242334 0.0410415 0.398005 
0.0149674 0.0401615 0.383514 0.00581163 0.0398242 0.36859 -0.00317697 0.0400551 0.353183 
-0.0119691 0.0408465 0.337257 -0.0205618 0.0421581 0.320786 -0.028974 0.0439202 0.303752 
-0.0372374 0.046039 0.286141 -0.0453864 0.0484049 0.267938 -0.053446 0.0509015 0.249129 
-0.0614214 0.0534161 0.229696 -0.069289 0.0558484 0.209623 -0.0769914 0.0581188 0.188893 
-0.0844359 0.0601746 0.167498 -0.0914982 0.0619925 0.145443 -0.09803 0.0635788 0.12275 
-0.10387 0.0649666 0.0994617 -0.108856 0.0662097 0.0756449 -0.112843 0.0673753 0.0513884 
-0.115709 0.0685346 0.0268008 -0.117372 0.069754 0.00200358 -0.117796 0.0710867 -0.0228763 
-0.116992 0.0725655 -0.0477157 -0.115018 0.074199 -0.0724041 -0.111972 0.0759691 -0.0968511 
-0.107984 0.0778325 -0.120992 -0.103203 0.0797242 -0.144791 -0.097786 0.0815631 -0.168238 
-0.0918826 0.0832594 -0.191344 -0.085627 0.0847222 -0.214137 -0.0791283 0.0858663 -0.236648 
-0.0724666 0.0866194 -0.258906 -0.0656921 0.0869251 -0.280923 -0.0588277 0.0867465 -0.302692 
-0.0518748 0.0860649 -0.324183 -0.0448213 0.0848784 -0.345339 -0.0376503 0.0831976 -0.366084 
-0.0303493 0.0810413 -0.38633 -0.0229172 0.0784311 -0.405984 -0.0153706 0.075387 -0.42496 
-0.0077465 0.0719246 -0.443193 -0.00010266 0.0680535 -0.46064 0.00748488 0.0637778 -0.477292 
0.0149265 0.0590992 -0.49317 0.0221256 0.0540211 -0.508325 0.0289856 0.0485539 -0.522826 
0.0354173 0.0427208 -0.536753 0.0413456 0.0365629 -0.550178 0.0467142 0.0301429 -0.563159 
0.0514894 0.0235466 -0.575725 0.0556609 0.0168821 -0.587867 0.0592411 0.0102754 -0.599538 
0.0622624 0.0038646 -0.610653 0.0647732 -0.00220911 -0.621098 0.066833 -0.00781142 -0.630742 
0.0685071 -0.0128252 -0.639453 0.0698615 -0.01716 -0.647116 0.0709583 -0.02076 -0.653644 
0.0718524 -0.0236089 -0.659 0.072589 -0.0257317 -0.663198 0.0732023 -0.0271923 -0.666306 
0.0737163 -0.0280877 -0.668448 0.0741448 -0.0285389 -0.669784 0.0744942 -0.0286791 -0.670502 
0.0747651 -0.0286414 -0.670796 0.074955 -0.0285451 -0.670844 0.0750604 -0.0284844 -0.670791 
0.0750785 -0.028519 -0.670731 
LINES 2 100
OFFSETS vtktypeint64
0 100 
CONNECTIVITY vtktypeint64
0 1 2 3 4 5 6 7 8 
9 10 11 12 13 14 15 16 17 
18 19 20 21 22 23 24 25 26 
27 28 29 30 31 32 33 34 35 
36 37 38 39 40 41 42 43 44 
45 46 47 48 49 50 51 52 53 
54 55 56 57 58 59 60 61 62 
63 64 65 66 67 68 69 70 71 
72 73 74 75 76 77 78 79 80 
81 82 83 84 85 86 87 88 89 
90 91 92 93 94 95 96 97 98 
99 
POINT_DATA 100
FIELD FieldData 3
_theta 1 100 double
0 0.031733259127 0.063466518254 0.095199777382 0.12693303651 0.15866629564 0.19039955476 0.22213281389 0.25386607302 
0.28559933214 0.31733259127 0.3490658504 0.38079910953 0.41253236865 0.44426562778 0.47599888691 0.50773214603 0.53946540516 
0.57119866429 0.60293192342 0.63466518254 0.66639844167 0.6981317008 0.72986495992 0.76159821905 0.79333147818 0.82506473731 
0.85679799643 0.88853125556 0.92026451469 0.95199777382 0.98373103294 1.0154642921 1.0471975512 1.0789308103 1.1106640695 
1.1423973286 1.1741305877 1.2058638468 1.237597106 1.2693303651 1.3010636242 1.3327968833 1.3645301425 1.3962634016 
1.4279966607 1.4597299198 1.491463179 1.5231964381 1.5549296972 1.5866629564 1.6183962155 1.6501294746 1.6818627337 
1.7135959929 1.745329252 1.7770625111 1.8087957702 1.8405290294 1.8722622885 1.9039955476 1.9357288068 1.9674620659 
1.999195325 2.0309285841 2.0626618433 2.0943951024 2.1261283615 2.1578616206 2.1895948798 2.2213281389 2.253061398 
2.2847946572 2.3165279163 2.3482611754 2.3799944345 2.4117276937 2.4434609528 2.4751942119 2.506927471 2.5386607302 
2.5703939893 2.6021272484 2.6338605076 2.6655937667 2.6973270258 2.7290602849 2.7607935441 2.7925268032 2.8242600623 
2.8559933214 2.8877265806 2.9194598397 2.9511930988 2.982926358 3.0146596171 3.0463928762 3.0781261353 3.1098593945 
3.1415926536 
_radius 1 100 double
5.6678489282e-16 0.014508080658 0.028865619468 0.042926396623 0.056562017014 0.069667807927 0.082165601922 0.094003529152 0.10515342894 
0.1156066753 0.12536912602 0.1344557097 0.14288503249 0.15067438964 0.15783565647 0.1643725952 0.17028006175 0.17554541458 
0.18015216111 0.18408557135 0.1873396547 0.18992453938 0.19187298252 0.19324461273 0.19412670092 0.194630788 0.19488524616 
0.19502460249 0.19517700077 0.19545138881 0.19592592333 0.19663885769 0.19758300845 0.19870477786 0.19990841008 0.20106545549 
0.2020283961 0.20264648703 0.20278155932 0.20232191063 0.20119317628 0.19936579272 0.19685908294 0.19374209275 0.1901312105 
0.18618445622 0.18209225981 0.17806467818 0.17431540751 0.17104363259 0.16841560446 0.16654856176 0.16549974613 0.16526242243 
0.16576920329 0.16690146229 0.16850293043 0.17039559205 0.1723961794 0.17433169315 0.17605258599 0.1774426071 0.17842469854 
0.17896265442 0.17905853834 0.17874623955 0.1780821676 0.17713495728 0.17597671799 0.17467761988 0.17330316203 0.17191170698 
0.17055071774 0.16925209831 0.16802813079 0.16686944695 0.16574572525 0.16460881547 0.16339721075 0.16204053934 0.16046304663 
0.15858562956 0.15632657925 0.1536015956 0.15032380149 0.14640443905 0.14175474182 0.13628919686 0.12993007731 0.12261279577 
0.11429140008 0.10494349397 0.094574031885 0.083217714173 0.07093994665 0.057836421472 0.044031340187 0.029674240933 0.014935412542 
7.756903195e-16 
_area 1 100 double
0 0.00045420568467 0.0018049591103 0.0040177265687 0.007038227242 0.010796493848 0.015210938031 0.020191286556 0.025639871664 
0.031451756615 0.037515011912 0.043712649822 0.049927150962 0.056047452519 0.061977169398 0.067642015838 0.07299400182 0.07801013228 
0.082684420542 0.087014468732 0.090987471986 0.094573536162 0.097733150885 0.10043849053 0.10269878206 0.10457481229 0.10617115058 
0.1076088435 0.10899683542 0.11041749443 0.11192320622 0.11353217229 0.11521900524 0.1169061654 0.11846542823 0.11973405732 
0.12054248583 0.12074305186 0.1202281124 0.11893389532 0.1168373399 0.1139559303 0.11035284629 0.10614191318 0.10148628252 
0.096588164729 0.091669998124 0.086949725113 0.082615219606 0.078804687238 0.075600111796 0.073037856139 0.071123276705 0.069837693941 
0.069128403781 0.068880185427 0.068926170645 0.069102018451 0.069268523274 0.069303263885 0.069092925102 0.068534641207 0.067541931469 
0.066061139936 0.064095108982 0.06171791919 0.059068691896 0.056326319315 0.053678578606 0.051308006348 0.049420600576 0.04824625277 
0.047719618256 0.04757038993 0.047657921496 0.047858275947 0.048074404602 0.048250748746 0.048371347782 0.04844342342 0.048479785483 
0.048484888497 0.048439516834 0.048283000471 0.047901145478 0.04713276448 0.045801676726 0.043763974635 0.040947774624 0.037369989726 
0.033131061971 0.028397038469 0.023378116092 0.018309567654 0.013437436626 0.0090080496077 0.0052579865256 0.0024009216741 0.00061021653643 
1.4365468666e-17 
