# vtk DataFile Version 5.1
vtk output
ASCII
DATASET POLYDATA
POINTS 100 float
0.156105 0.0785731 0.771384 0.156285 0.0787888 0.771193 0.156801 0.0792445 0.77048 
0.157555 0.0799038 0.769221 0.158396 0.0807104 0.76738 0.159143 0.0815942 0.76491 
0.159605 0.0824786 0.761765 0.159605 0.0832874 0.757901 0.159001 0.083953 0.753286 
0.1577 0.0844211 0.747902 0.155668 0.0846552 0.741749 0.152926 0.0846377 0.73485 
0.149544 0.0843692 0.727244 0.145625 0.0838654 0.718991 0.141283 0.0831527 0.710161 
0.136626 0.0822626 0.700833 0.131739 0.081227 0.691086 0.126664 0.080073 0.680992 
0.121404 0.07882 0.670613 0.115916 0.0774785 0.659994 0.110128 0.0760494 0.649163 
0.103949 0.0745267 0.638128 0.0972912 0.0728999 0.626879 0.0900888 0.0711574 0.615393 
0.0823164 0.06929 0.603638 0.0739994 0.067293 0.591578 0.0652186 0.065168 0.579179 
0.0561055 0.0629227 0.566417 0.0468292 0.0605694 0.553278 0.037577 0.0581234 0.539762 
0.028531 0.0555993 0.525885 0.0198437 0.0530092 0.511674 0.0116168 0.0503604 0.497166 
0.00388611 0.0476549 0.482401 -0.00338552 0.0448906 0.467416 -0.0103045 0.042064 0.452239 
-0.017034 0.0391743 0.436883 -0.0237723 0.0362286 0.421339 -0.0307263 0.033247 0.405578 
-0.038083 0.0302674 0.389544 -0.0459821 0.0273481 0.373162 -0.0544949 0.0245684 0.356337 
-0.0636117 0.0220271 0.338966 -0.0732393 0.0198373 0.320939 -0.0832096 0.018119 0.302154 
-0.0932975 0.0169902 0.282522 -0.103247 0.0165564 0.261976 -0.112799 0.0169013 0.240477 
-0.121722 0.0180778 0.218017 -0.129837 0.0201025 0.194624 -0.137033 0.0229526 0.170356 
-0.143275 0.0265672 0.1453 -0.1486 0.0308517 0.119567 -0.153105 0.0356855 0.0932827 
-0.156922 0.0409317 0.0665776 -0.160193 0.0464484 0.0395824 -0.163039 0.052099 0.0124182 
-0.165542 0.0577613 -0.0148095 -0.167718 0.0633342 -0.0420147 -0.169517 0.0687407 -0.0691323 
-0.170824 0.0739274 -0.0961176 -0.17147 0.0788612 -0.122944 -0.171261 0.0835226 -0.149595 
-0.169999 0.087898 -0.176065 -0.167522 0.0919717 -0.202343 -0.163724 0.0957188 -0.228415 
-0.158582 0.0991003 -0.254253 -0.152165 0.102062 -0.279812 -0.144631 0.104534 -0.305032 
-0.136218 0.10644 -0.329834 -0.127215 0.1077 -0.354122 -0.117934 0.108245 -0.377795 
-0.108669 0.108023 -0.400747 -0.0996635 0.10701 -0.422877 -0.0910804 0.105217 -0.444097 
-0.0829786 0.102694 -0.46434 -0.0753064 0.0995255 -0.483565 -0.0679067 0.0958316 -0.501764 
-0.060535 0.0917554 -0.51896 -0.0528895 0.0874534 -0.535208 -0.0446478 0.0830824 -0.550594 
-0.0355073 0.0787872 -0.565222 -0.0252229 0.0746889 -0.579214 -0.0136392 0.0708767 -0.592693 
-0.000711857 0.0674039 -0.605775 0.0134832 0.0642871 -0.618559 0.0287532 0.0615101 -0.631115 
0.0448047 0.059032 -0.643478 0.0612691 0.0567964 -0.655642 0.0777337 0.0547431 -0.667556 
0.0937758 0.0528184 -0.679127 0.108993 0.050984 -0.690222 0.12303 0.0492232 -0.700674 
0.135593 0.0475427 -0.710295 0.14646 0.0459719 -0.718885 0.155478 0.0445573 -0.726245 
0.162552 0.0433551 -0.732192 0.167633 0.0424228 -0.736565 0.1707 0.0418097 -0.739244 
0.171749 0.0415495 -0.740152 
LINES 2 100
OFFSETS vtktypeint64
0 100 
CONNECTIVITY vtktypeint64
0 1 2 3 4 5 6 7 8 
9 10 11 12 13 14 15 16 17 
18 19 20 21 22 23 24 25 26 
27 28 29 30 31 32 33 34 35 
36 37 38 39 40 41 42 43 44 
45 46 47 48 49 50 51 52 53 
54 55 56 57 58 59 60 61 62 
63 64 65 66 67 68 69 70 71 
72 73 74 75 76 77 78 79 80 
81 82 83 84 85 86 87 88 89 
90 91 92 93 94 95 96 97 98 
99 
POINT_DATA 100
FIELD FieldData 3
_theta 1 100 double
0 0.031733259127 0.063466518254 0.095199777382 0.12693303651 0.15866629564 0.19039955476 0.22213281389 0.25386607302 
0.28559933214 0.31733259127 0.3490658504 0.38079910953 0.41253236865 0.44426562778 0.47599888691 0.50773214603 0.53946540516 
0.57119866429 0.60293192342 0.63466518254 0.66639844167 0.6981317008 0.72986495992 0.76159821905 0.79333147818 0.82506473731 
0.85679799643 0.88853125556 0.92026451469 0.95199777382 0.98373103294 1.0154642921 1.0471975512 1.0789308103 1.1106640695 
1.1423973286 1.1741305877 1.2058638468 1.237597106 1.2693303651 1.3010636242 1.3327968833 1.3645301425 1.3962634016 
1.4279966607 1.4597299198 1.491463179 1.5231964381 1.5549296972 1.5866629564 1.6183962155 1.6501294746 1.6818627337 
1.7135959929 1.745329252 1.7770625111 1.8087957702 1.8405290294 1.8722622885 1.9039955476 1.9357288068 1.9674620659 
1.999195325 2.0309285841 2.0626618433 2.0943951024 2.1261283615 2.1578616206 2.1895948798 2.2213281389 2.253061398 
2.2847946572 2.3165279163 2.3482611754 2.3799944345 2.4117276937 2.4434609528 2.4751942119 2.506927471 2.5386607302 
2.5703939893 2.6021272484 2.6338605076 2.6655937667 2.6973270258 2.7290602849 2.7607935441 2.7925268032 2.8242600623 
2.8559933214 2.8877265806 2.9194598397 2.9511930988 2.982926358 3.0146596171 3.0463928762 3.0781261353 3.1098593945 
3.1415926536 
_radius 1 100 double
1.1631705747e-15 0.014158152399 0.028245765272 0.042184429208 0.055897611589 0.069313135514 0.082366437708 0.095004057236 0.1071864951 
0.11888954255 0.13010346151 0.14082994368 0.15107738754 0.16085548386 0.17017022912 0.17902029111 0.18739527031 0.19527600588 
0.20263674119 0.20944866859 0.21568410476 0.22132039408 0.22634274599 0.23074562493 0.23453286665 0.23771707915 0.24031886452 
0.24236600343 0.24389227274 0.24493533909 0.24553332003 0.24572005072 0.24551966831 0.24494165447 0.24397779154 0.24260242781 
0.24077691915 0.23845819196 0.23561031288 0.2322170809 0.22829322553 0.22389191604 0.21910695407 0.21406905227 0.2089365984 
0.20388192112 0.19907434701 0.19466165937 0.19075227563 0.18740141934 0.1846050938 0.18230484968 0.18040351994 0.17878779852 
0.17735032458 0.17600446874 0.17468865661 0.17336107136 0.17198930081 0.17054324763 0.16899907195 0.16735316644 0.16563680207 
0.16392308713 0.16232325915 0.16097342343 0.16001587041 0.15957931613 0.15975617557 0.16057068848 0.16194913416 0.16371435945 
0.16560061453 0.16728178393 0.16841995795 0.16872501613 0.16800214783 0.16617469648 0.16328307633 0.15946563537 0.15492795852 
0.14990684392 0.1446349711 0.13931180633 0.13408480047 0.12904170115 0.124209742 0.11955232213 0.11495436475 0.11020251376 
0.10498759546 0.09894750408 0.091731047161 0.083054323788 0.072740804146 0.060746913324 0.047173918831 0.032265087611 0.016387534967 
1.2896080507e-15 
_area 1 100 double
0 0.00056837650937 0.0022611399467 0.0050389384901 0.0088302896048 0.013527542809 0.018988276167 0.025044604634 0.031519785013 
0.038248530926 0.045095660978 0.05196750528 0.058811996226 0.065606941813 0.072341457592 0.078999707666 0.085554257429 0.091969590286 
0.098211103156 0.104254003 0.11008826122 0.11571802805 0.12115499205 0.12640469839 0.13144665999 0.13621868007 0.14062401665 
0.14456476913 0.14797762879 0.15084637034 0.15318947445 0.15505815486 0.15677139397 0.15876492353 0.16052057611 0.16192872113 
0.16254298463 0.16214175723 0.16064423744 0.15777934955 0.15352622875 0.14802752381 0.1415133728 0.13422211105 0.12654949509 
0.1189829786 0.11213740413 0.10639426397 0.10122516537 0.096714138733 0.093239566024 0.090986270415 0.089427985718 0.088337648223 
0.087519337523 0.086778848313 0.085946474423 0.084908109921 0.083604574336 0.08199350099 0.080027484592 0.077699228289 0.075090942399 
0.072351247148 0.069617464112 0.06698188163 0.064565245816 0.062619889843 0.061434699388 0.060966014554 0.060915204457 0.061136933674 
0.061733875134 0.062635853003 0.063784875221 0.065205325165 0.06665208862 0.067491644317 0.067347079305 0.066196063601 0.06419677263 
0.061557656576 0.058457235951 0.055013912832 0.051296712536 0.0473569757 0.043259688367 0.0390980818 0.034978992867 0.0309787597 
0.027100985039 0.023282237 0.019448415486 0.015577295234 0.011733399632 0.0080722516085 0.0048210931932 0.0022410006206 0.00057601176516 
1.1493729854e-16 
