# vtk DataFile Version 5.1
vtk output
ASCII
DATASET POLYDATA
POINTS 100 float
0.160104 0.0549713 0.735065 0.160102 0.0551994 0.735056 0.160187 0.0556983 0.734843 
0.160327 0.0564447 0.734389 0.160476 0.0574024 0.733634 0.16057 0.0585247 0.732498 
0.16054 0.0597572 0.730886 0.160313 0.0610407 0.728697 0.159818 0.0623144 0.72583 
0.158991 0.0635189 0.722189 0.157776 0.0645979 0.717689 0.15613 0.0655006 0.712269 
0.154022 0.0661829 0.705886 0.151428 0.0666076 0.698528 0.148334 0.0667456 0.690205 
0.144732 0.0665754 0.680958 0.140617 0.0660836 0.670848 0.135987 0.0652651 0.659954 
0.130842 0.0641235 0.648371 0.125182 0.0626714 0.636194 0.119016 0.0609311 0.623523 
0.112354 0.058935 0.610446 0.105216 0.0567254 0.59704 0.0976328 0.0543544 0.583365 
0.0896429 0.0518825 0.569464 0.0812947 0.049377 0.555359 0.0726431 0.0469093 0.541055 
0.0637455 0.0445519 0.526542 0.0546565 0.0423749 0.511801 0.0454231 0.0404427 0.496806 
0.0360788 0.0388107 0.481526 0.0266399 0.0375233 0.465935 0.0171033 0.0366121 0.450007 
0.00744681 0.0360958 0.43372 -0.00236748 0.035981 0.417058 -0.0123875 0.0362643 0.400004 
-0.022663 0.0369352 0.382539 -0.0332353 0.0379787 0.364643 -0.0441277 0.0393791 0.346285 
-0.0553354 0.0411219 0.327429 -0.0668179 0.0431956 0.308027 -0.0784949 0.0455919 0.288025 
-0.0902448 0.0483045 0.267362 -0.101908 0.0513268 0.245981 -0.113296 0.0546482 0.223828 
-0.124198 0.05825 0.200864 -0.134398 0.0621015 0.177071 -0.143689 0.0661566 0.152456 
-0.151885 0.0703515 0.127057 -0.158834 0.0746047 0.100946 -0.164429 0.0788191 0.0742241 
-0.168612 0.0828856 0.047023 -0.171377 0.0866893 0.0194946 -0.172765 0.0901175 -0.00819543 
-0.172858 0.0930674 -0.0358787 -0.171768 0.095455 -0.063394 -0.169627 0.0972217 -0.0905981 
-0.166574 0.0983402 -0.117374 -0.162742 0.0988172 -0.143636 -0.158252 0.0986926 -0.169336 
-0.153203 0.098037 -0.194461 -0.147671 0.0969444 -0.219032 -0.141708 0.0955237 -0.243097 
-0.135345 0.0938882 -0.266725 -0.128597 0.0921447 -0.289997 -0.121471 0.0903827 -0.312993 
-0.113966 0.088666 -0.335789 -0.106089 0.0870261 -0.358446 -0.0978488 0.0854598 -0.381006 
-0.0892651 0.0839294 -0.403489 -0.0803664 0.0823673 -0.425891 -0.0711894 0.0806837 -0.448188 
-0.0617762 0.0787761 -0.470337 -0.0521716 0.0765411 -0.492282 -0.04242 0.073886 -0.513955 
-0.0325641 0.0707398 -0.535287 -0.0226432 0.0670621 -0.556206 -0.0126948 0.0628494 -0.576642 
-0.00275618 0.0581377 -0.596528 0.00713242 0.0530023 -0.615803 0.0169243 0.0475528 -0.634408 
0.0265632 0.0419265 -0.652284 0.0359815 0.0362785 -0.669378 0.0451001 0.0307705 -0.685635 
0.0538296 0.0255597 -0.701 0.0620752 0.0207873 -0.715422 0.0697417 0.0165695 -0.728851 
0.0767416 0.0129901 -0.741243 0.0830019 0.0100954 -0.752563 0.0884717 0.00789328 -0.762786 
0.0931278 0.00635349 -0.7719 0.0969778 0.00541217 -0.779909 0.10006 0.00497777 -0.786829 
0.102441 0.00493896 -0.792689 0.104209 0.00517362 -0.79753 0.105464 0.00555821 -0.801397 
0.10631 0.00597697 -0.804337 0.106841 0.00633029 -0.806393 0.107134 0.00654176 -0.807599 
0.107236 0.00656354 -0.807979 
LINES 2 100
OFFSETS vtktypeint64
0 100 
CONNECTIVITY vtktypeint64
0 1 2 3 4 5 6 7 8 
9 10 11 12 13 14 15 16 17 
18 19 20 21 22 23 24 25 26 
27 28 29 30 31 32 33 34 35 
36 37 38 39 40 41 42 43 44 
45 46 47 48 49 50 51 52 53 
54 55 56 57 58 59 60 61 62 
63 64 65 66 67 68 69 70 71 
72 73 74 75 76 77 78 79 80 
81 82 83 84 85 86 87 88 89 
90 91 92 93 94 95 96 97 98 
99 
POINT_DATA 100
FIELD FieldData 3
_theta 1 100 double
0 0.031733259127 0.063466518254 0.095199777382 0.12693303651 0.15866629564 0.19039955476 0.22213281389 0.25386607302 
0.28559933214 0.31733259127 0.3490658504 0.38079910953 0.41253236865 0.44426562778 0.47599888691 0.50773214603 0.53946540516 
0.57119866429 0.60293192342 0.63466518254 0.66639844167 0.6981317008 0.72986495992 0.76159821905 0.79333147818 0.82506473731 
0.85679799643 0.88853125556 0.92026451469 0.95199777382 0.98373103294 1.0154642921 1.0471975512 1.0789308103 1.1106640695 
1.1423973286 1.1741305877 1.2058638468 1.237597106 1.2693303651 1.3010636242 1.3327968833 1.3645301425 1.3962634016 
1.4279966607 1.4597299198 1.491463179 1.5231964381 1.5549296972 1.5866629564 1.6183962155 1.6501294746 1.6818627337 
1.7135959929 1.745329252 1.7770625111 1.8087957702 1.8405290294 1.8722622885 1.9039955476 1.9357288068 1.9674620659 
1.999195325 2.0309285841 2.0626618433 2.0943951024 2.1261283615 2.1578616206 2.1895948798 2.2213281389 2.253061398 
2.2847946572 2.3165279163 2.3482611754 2.3799944345 2.4117276937 2.4434609528 2.4751942119 2.506927471 2.5386607302 
2.5703939893 2.6021272484 2.6338605076 2.6655937667 2.6973270258 2.7290602849 2.7607935441 2.7925268032 2.8242600623 
2.8559933214 2.8877265806 2.9194598397 2.9511930988 2.982926358 3.0146596171 3.0463928762 3.0781261353 3.1098593945 
3.1415926536 
_radius 1 100 double
4.8154123946e-16 0.015095035525 0.030065334194 0.044790819037 0.059169466681 0.073122614894 0.08659638024 0.099559049403 0.11199509268 
0.12389710408 0.13525734083 0.14606056335 0.15627960812 0.16587461273 0.17479606225 0.18299090792 0.19041020003 0.19701637673 
0.20278877075 0.20772683369 0.21185152836 0.21520580194 0.21785480788 0.21988576292 0.22140647114 0.22254112459 0.22342230663 
0.2241791561 0.22492305128 0.22573336218 0.22664620655 0.22764845325 0.22867776288 0.22962803867 0.23035901648 0.23070894657 
0.23050984704 0.22960497101 0.22786768248 0.22522011101 0.22164917385 0.21721717038 0.212064339 0.20640151524 0.200492232 
0.19462518284 0.1890799937 0.18409179701 0.17982261246 0.17634808513 0.17366431269 0.17171163209 0.17040505054 0.16965948341 
0.16940209284 0.16957003943 0.17009746237 0.17090024873 0.17186905131 0.17287619803 0.17379271809 0.17450638243 0.17493401252 
0.1750265342 0.17476850035 0.17417435211 0.17328285576 0.17215028521 0.17084279203 0.16942885115 0.16797272544 0.16652918667 
0.16513929103 0.16382756307 0.16260157341 0.16145443804 0.16036935665 0.15932400707 0.15829231527 0.15724207463 0.15612876224 
0.15488792245 0.15342962227 0.15163790722 0.14937604048 0.14649591111 0.14284884633 0.13829555213 0.13271423355 0.12600706087 
0.11810553309 0.1089750491 0.098618529605 0.087078603098 0.07443784345 0.060816794872 0.046369897046 0.031279758513 0.015750393918 
3.2167604016e-16 
_area 1 100 double
0 0.00061983123346 0.0024603477407 0.0054665541366 0.0095529103932 0.014611482287 0.02052160382 0.02715955264 0.034406175524 
0.042149890402 0.050282888274 0.058690633061 0.067238855364 0.075765879806 0.084087656145 0.092016981718 0.099390633378 0.10609385552 
0.11207330542 0.11733555918 0.12193499561 0.12595848063 0.12951265943 0.13271446176 0.13568120042 0.13851681739 0.14129515673 
0.14404634168 0.14675368308 0.14936365857 0.15180425581 0.15400323991 0.15589873198 0.15743811203 0.15856591964 0.15920339156 
0.15922093245 0.1584157578 0.15653426502 0.15335503286 0.14877922937 0.14287924074 0.13590097512 0.12823274589 0.12035568701 
0.11279018901 0.10604872247 0.10058680134 0.096679943165 0.094216342617 0.092761426495 0.091851773853 0.091148016968 0.090449855889 
0.089661963145 0.088751096583 0.08771244451 0.086558115743 0.085355478992 0.084297229047 0.083574054235 0.083211651846 0.083013007128 
0.082721412341 0.082124243366 0.08110404037 0.079594627985 0.077600158494 0.075207074581 0.072599290756 0.070025734179 0.067491763943 
0.065084621739 0.062918275452 0.061050106514 0.059483105732 0.058218235909 0.057291909907 0.05676844441 0.056679903262 0.056943468887 
0.057358112749 0.057665668673 0.057600764922 0.05692593833 0.055460530165 0.053100917037 0.049828659589 0.045706820839 0.040867912454 
0.035497720881 0.029818017411 0.024069661463 0.01849699434 0.013334316046 0.0087949677147 0.0050630568533 0.0022874485918 0.00057748453838 
7.0426051775e-17 
