# vtk DataFile Version 5.1
vtk output
ASCII
DATASET POLYDATA
POINTS 100 float
0.129455 0.0523195 0.678927 0.129447 0.0525778 0.678788 0.129505 0.0532033 0.678225 
0.129585 0.0541584 0.677227 0.129621 0.0553838 0.675777 0.129533 0.0568038 0.673849 
0.129237 0.0583323 0.671403 0.128656 0.0598794 0.668395 0.12773 0.0613582 0.664766 
0.126418 0.0626909 0.660453 0.124707 0.063814 0.655388 0.122605 0.0646814 0.649507 
0.120138 0.0652663 0.642753 0.117345 0.0655606 0.635089 0.114263 0.0655729 0.626495 
0.11092 0.0653253 0.616984 0.107328 0.0648481 0.606596 0.103477 0.0641759 0.595404 
0.0993335 0.0633421 0.583508 0.0948431 0.0623755 0.571029 0.0899373 0.0612976 0.558102 
0.0845433 0.0601215 0.544863 0.0785954 0.0588526 0.531439 0.0720464 0.0574912 0.517937 
0.0648771 0.0560354 0.504437 0.0571035 0.0544859 0.490982 0.0487782 0.0528501 0.477577 
0.039989 0.0511461 0.464192 0.0308516 0.0494058 0.450763 0.0214987 0.0476756 0.437203 
0.0120676 0.0460158 0.423412 0.00268674 0.0444981 0.409283 -0.00653689 0.0432005 0.394721 
-0.0155263 0.0422015 0.379645 -0.0242396 0.0415731 0.363996 -0.0326693 0.0413737 0.347744 
-0.0408373 0.041642 0.330882 -0.048785 0.0423926 0.313428 -0.0565603 0.0436129 0.295414 
-0.0642039 0.0452634 0.276884 -0.0717363 0.0472806 0.257882 -0.0791471 0.0495821 0.238445 
-0.0863891 0.0520737 0.2186 -0.0933777 0.0546577 0.198359 -0.0999954 0.057242 0.177721 
-0.106102 0.0597482 0.15667 -0.111549 0.0621176 0.135185 -0.116194 0.0643161 0.113244 
-0.119919 0.0663349 0.0908284 -0.12264 0.0681893 0.0679351 -0.12432 0.0699135 0.0445768 
-0.124975 0.0715545 0.0207866 -0.124665 0.0731628 -0.00338149 -0.123493 0.0747844 -0.0278547 
-0.12159 0.0764516 -0.0525456 -0.119098 0.0781771 -0.0773579 -0.116155 0.0799493 -0.102193 
-0.112876 0.0817312 -0.126955 -0.109341 0.0834625 -0.151557 -0.10559 0.0850644 -0.175923 
-0.101614 0.086447 -0.199991 -0.0973635 0.0875187 -0.22371 -0.0927575 0.0881948 -0.24704 
-0.0876945 0.0884071 -0.269946 -0.0820701 0.0881101 -0.292396 -0.0757928 0.0872858 -0.314357 
-0.0687988 0.0859449 -0.335793 -0.0610623 0.0841247 -0.356664 -0.0526019 0.0818841 -0.376931 
-0.0434808 0.0792961 -0.396554 -0.0338018 0.0764394 -0.4155 -0.0236977 0.0733895 -0.433746 
-0.0133189 0.07021 -0.451285 -0.00281959 0.0669475 -0.468127 0.0076553 0.0636278 -0.484299 
0.0179806 0.0602559 -0.499844 0.0280578 0.0568191 -0.514815 0.037817 0.0532932 -0.529271 
0.0472151 0.0496501 -0.54326 0.0562294 0.0458667 -0.556819 0.0648489 0.0419332 -0.569958 
0.0730649 0.0378602 -0.582659 0.0808618 0.0336828 -0.594869 0.0882105 0.0294614 -0.606504 
0.0950657 0.0252796 -0.617451 0.101367 0.0212378 -0.627584 0.107043 0.0174444 -0.636769 
0.112023 0.0140052 -0.644888 0.116245 0.0110125 -0.651843 0.119667 0.00853454 -0.657583 
0.12228 0.00660743 -0.662101 0.124111 0.00523059 -0.665448 0.125231 0.00436581 -0.667731 
0.125745 0.00394061 -0.669103 0.125792 0.00385568 -0.669755 0.125526 0.00399535 -0.669896 
0.125109 0.00424022 -0.669736 0.124685 0.0044803 -0.669465 0.124373 0.00462729 -0.669234 
0.12425 0.00462453 -0.66914 
LINES 2 100
OFFSETS vtktypeint64
0 100 
CONNECTIVITY vtktypeint64
0 1 2 3 4 5 6 7 8 
9 10 11 12 13 14 15 16 17 
18 19 20 21 22 23 24 25 26 
27 28 29 30 31 32 33 34 35 
36 37 38 39 40 41 42 43 44 
45 46 47 48 49 50 51 52 53 
54 55 56 57 58 59 60 61 62 
63 64 65 66 67 68 69 70 71 
72 73 74 75 76 77 78 79 80 
81 82 83 84 85 86 87 88 89 
90 91 92 93 94 95 96 97 98 
99 
POINT_DATA 100
FIELD FieldData 3
_theta 1 100 double
0 0.031733259127 0.063466518254 0.095199777382 0.12693303651 0.15866629564 0.19039955476 0.22213281389 0.25386607302 
0.28559933214 0.31733259127 0.3490658504 0.38079910953 0.41253236865 0.44426562778 0.47599888691 0.50773214603 0.53946540516 
0.57119866429 0.60293192342 0.63466518254 0.66639844167 0.6981317008 0.72986495992 0.76159821905 0.79333147818 0.82506473731 
0.85679799643 0.88853125556 0.92026451469 0.95199777382 0.98373103294 1.0154642921 1.0471975512 1.0789308103 1.1106640695 
1.1423973286 1.1741305877 1.2058638468 1.237597106 1.2693303651 1.3010636242 1.3327968833 1.3645301425 1.3962634016 
1.4279966607 1.4597299198 1.491463179 1.5231964381 1.5549296972 1.5866629564 1.6183962155 1.6501294746 1.6818627337 
1.7135959929 1.745329252 1.7770625111 1.8087957702 1.8405290294 1.8722622885 1.9039955476 1.9357288068 1.9674620659 
1.999195325 2.0309285841 2.0626618433 2.0943951024 2.1261283615 2.1578616206 2.1895948798 2.2213281389 2.253061398 
2.2847946572 2.3165279163 2.3482611754 2.3799944345 2.4117276937 2.4434609528 2.4751942119 2.506927471 2.5386607302 
2.5703939893 2.6021272484 2.6338605076 2.6655937667 2.6973270258 2.7290602849 2.7607935441 2.7925268032 2.8242600623 
2.8559933214 2.8877265806 2.9194598397 2.9511930988 2.982926358 3.0146596171 3.0463928762 3.0781261353 3.1098593945 
3.1415926536 
_radius 1 100 double
5.5943151141e-16 0.013996549036 0.027897926716 0.041607770288 0.055038366267 0.068113759039 0.080771195852 0.092960614825 0.10464221532 
0.1157825861 0.1263503194 0.1363123777 0.14563254489 0.15427289903 0.1621983035 0.16938269186 0.17581506836 0.18150323378 
0.18647427239 0.19077222502 0.19445439105 0.19758787391 0.20024731715 0.20251369495 0.20447308239 0.20621393913 0.20782172892 
0.20937059237 0.21091307915 0.21247025181 0.21402522136 0.21552276288 0.21687594378 0.21797837338 0.21871897131 0.21899589647 
0.21872736705 0.21785872156 0.21636635049 0.21425959921 0.21158143101 0.2084079045 0.20484578157 0.20102716859 0.19710024945 
0.19321606698 0.18951289721 0.18610151048 0.18305548215 0.18040969009 0.17816720564 0.17631138231 0.17481802874 0.17366309192 
0.17282377707 0.17227423043 0.17197953517 0.17189269825 0.17195776883 0.17211872435 0.17233052011 0.17256790037 0.17282914137 
0.17313412293 0.17351772052 0.17402028596 0.1746772464 0.17550984641 0.1765187833 0.17768176513 0.17895485206 0.18027635944 
0.18157182614 0.18275913035 0.18375351221 0.18447236471 0.18483927032 0.18478647085 0.18425517263 0.18319373739 0.1815545075 
0.1792904024 0.17635237455 0.17268843608 0.16824447794 0.16296668744 0.15680511688 0.14971786 0.14167529476 0.13266389165 
0.12268914758 0.11177730291 0.09997565935 0.087351536177 0.073990134086 0.059991739926 0.045468735146 0.030542760321 0.015342202565 
6.987674481e-16 
_area 1 100 double
0 0.00050829369942 0.0020147563896 0.0044664002382 0.0077819837133 0.011861163794 0.016594924192 0.02187547968 0.027603676813 
0.033692019038 0.040061873451 0.046634526277 0.053318971749 0.060004383598 0.06656617453 0.072886142665 0.078876063037 0.08449108629 
0.089725712366 0.094595371209 0.099114963868 0.10328733335 0.10710856146 0.11058750717 0.1137685975 0.11674124871 0.11962213106 
0.1225177923 0.12549605097 0.12857564391 0.13171705972 0.13481089466 0.13768197623 0.14012020706 0.14192440321 0.14293759442 
0.14306516908 0.14227931584 0.14061361751 0.13814732695 0.13498077289 0.13121286109 0.12693592356 0.12225038873 0.11728415471 
0.11219975385 0.10718408202 0.10242695403 0.098101821252 0.094356467751 0.09126278905 0.088672805138 0.086316608038 0.084043347446 
0.081828990495 0.079722037177 0.077808778768 0.076189821533 0.074941149069 0.074030022271 0.073327037769 0.072691107469 0.072023538757 
0.071307601638 0.070559540005 0.069849532709 0.069298021877 0.06903864975 0.068966549588 0.069001546426 0.069082875523 0.069171072457 
0.069233297948 0.069251481526 0.069229312705 0.069190413798 0.06917028947 0.069203381335 0.069303780908 0.069438672664 0.069503186795 
0.069320473894 0.068681566334 0.067398662947 0.065338168993 0.062431032849 0.058671755976 0.054113861998 0.048864429174 0.043077365291 
0.03694423548 0.030682035441 0.024518592026 0.018677545734 0.013365502907 0.0087633979627 0.0050223125146 0.0022620261336 0.00057003824743 
1.734723476e-18 
