# vtk DataFile Version 5.1
vtk output
ASCII
DATASET POLYDATA
POINTS 100 float
0.0878354 0.0776891 0.720334 0.0881859 0.0777727 0.720173 0.0892735 0.0779031 0.719525 
0.0909771 0.078089 0.718373 0.0931099 0.0783431 0.716685 0.0954392 0.0786778 0.714419 
0.0977111 0.0791012 0.71153 0.0996772 0.0796128 0.707966 0.101119 0.0801996 0.703675 
0.101866 0.0808338 0.698612 0.101813 0.0814716 0.692741 0.100923 0.0820544 0.68604 
0.0992228 0.0825118 0.678508 0.0967947 0.0827664 0.670162 0.0937599 0.0827398 0.661047 
0.0902588 0.0823599 0.651225 0.086431 0.0815669 0.640778 0.0823981 0.0803205 0.629803 
0.0782496 0.0786043 0.618399 0.0740362 0.0764287 0.606663 0.069769 0.0738321 0.594679 
0.0654249 0.0708791 0.582511 0.060957 0.0676573 0.570195 0.0563086 0.0642713 0.557735 
0.0514272 0.0608366 0.545102 0.0462771 0.0574718 0.532237 0.0408486 0.0542912 0.519057 
0.0351619 0.0513984 0.505465 0.0292653 0.0488804 0.491358 0.0232279 0.0468036 0.47664 
0.0171283 0.0452116 0.461232 0.0110409 0.0441245 0.44508 0.00502183 0.0435402 0.428162 
-0.000902427 0.0434368 0.410488 -0.00674279 0.0437763 0.392098 -0.012549 0.0445083 0.373057 
-0.018405 0.0455751 0.353444 -0.0244179 0.0469155 0.333345 -0.0307023 0.0484684 0.312836 
-0.0373617 0.0501767 0.29198 -0.0444686 0.0519893 0.270815 -0.0520478 0.0538632 0.249352 
-0.0600638 0.0557645 0.227575 -0.0684141 0.0576689 0.205448 -0.076931 0.0595614 0.182918 
-0.0853905 0.0614361 0.159931 -0.0935286 0.0632948 0.136442 -0.101062 0.0651457 0.112425 
-0.107715 0.0670017 0.0878805 -0.113237 0.068878 0.0628463 -0.117433 0.0707898 0.0373931 
-0.120172 0.0727499 0.0116243 -0.1214 0.0747659 -0.0143327 -0.121142 0.0768377 -0.0403366 
-0.119494 0.0789556 -0.0662448 -0.116608 0.0810984 -0.0919258 -0.112679 0.0832332 -0.117271 
-0.107919 0.0853149 -0.1422 -0.102536 0.0872877 -0.166669 -0.0967183 0.0890875 -0.190665 
-0.0906193 0.0906445 -0.214204 -0.0843463 0.0918876 -0.237318 -0.0779607 0.0927477 -0.260048 
-0.071481 0.0931629 -0.282429 -0.0648919 0.0930813 -0.304481 -0.0581565 0.092465 -0.326197 
-0.0512308 0.0912913 -0.347544 -0.0440761 0.0895542 -0.368461 -0.0366712 0.0872636 -0.388865 
-0.0290189 0.0844439 -0.40866 -0.0211499 0.0811315 -0.427752 -0.013121 0.0773712 -0.44606 
-0.00501067 0.0732135 -0.463527 0.00308903 0.0687106 -0.480133 0.011081 0.0639143 -0.495898 
0.0188717 0.0588736 -0.510879 0.0263784 0.0536339 -0.525166 0.0335333 0.048237 -0.53887 
0.0402854 0.0427224 -0.552105 0.0465987 0.0371281 -0.564972 0.0524488 0.0314932 -0.577542 
0.0578176 0.0258588 -0.589844 0.0626884 0.0202701 -0.601852 0.0670413 0.0147763 -0.613485 
0.0708513 0.00943026 -0.624616 0.074089 0.00428724 -0.635076 0.0767237 -0.000597559 -0.644679 
0.0787295 -0.00517187 -0.653241 0.080092 -0.00938961 -0.660605 0.0808164 -0.0132139 -0.666661 
0.080934 -0.0166194 -0.671361 0.0805062 -0.019594 -0.674737 0.079626 -0.022139 -0.676893 
0.0784148 -0.024268 -0.678005 0.0770153 -0.0260046 -0.678303 0.0755817 -0.027379 -0.67805 
0.0742665 -0.0284239 -0.677513 0.0732072 -0.0291701 -0.676938 0.0725134 -0.0296426 -0.676521 
0.0722562 -0.0298573 -0.676388 
LINES 2 100
OFFSETS vtktypeint64
0 100 
CONNECTIVITY vtktypeint64
0 1 2 3 4 5 6 7 8 
9 10 11 12 13 14 15 16 17 
18 19 20 21 22 23 24 25 26 
27 28 29 30 31 32 33 34 35 
36 37 38 39 40 41 42 43 44 
45 46 47 48 49 50 51 52 53 
54 55 56 57 58 59 60 61 62 
63 64 65 66 67 68 69 70 71 
72 73 74 75 76 77 78 79 80 
81 82 83 84 85 86 87 88 89 
90 91 92 93 94 95 96 97 98 
99 
POINT_DATA 100
FIELD FieldData 3
_theta 1 100 double
0 0.031733259127 0.063466518254 0.095199777382 0.12693303651 0.15866629564 0.19039955476 0.22213281389 0.25386607302 
0.28559933214 0.31733259127 0.3490658504 0.38079910953 0.41253236865 0.44426562778 0.47599888691 0.50773214603 0.53946540516 
0.57119866429 0.60293192342 0.63466518254 0.66639844167 0.6981317008 0.72986495992 0.76159821905 0.79333147818 0.82506473731 
0.85679799643 0.88853125556 0.92026451469 0.95199777382 0.98373103294 1.0154642921 1.0471975512 1.0789308103 1.1106640695 
1.1423973286 1.1741305877 1.2058638468 1.237597106 1.2693303651 1.3010636242 1.3327968833 1.3645301425 1.3962634016 
1.4279966607 1.4597299198 1.491463179 1.5231964381 1.5549296972 1.5866629564 1.6183962155 1.6501294746 1.6818627337 
1.7135959929 1.745329252 1.7770625111 1.8087957702 1.8405290294 1.8722622885 1.9039955476 1.9357288068 1.9674620659 
1.999195325 2.0309285841 2.0626618433 2.0943951024 2.1261283615 2.1578616206 2.1895948798 2.2213281389 2.253061398 
2.2847946572 2.3165279163 2.3482611754 2.3799944345 2.4117276937 2.4434609528 2.4751942119 2.506927471 2.5386607302 
2.5703939893 2.6021272484 2.6338605076 2.6655937667 2.6973270258 2.7290602849 2.7607935441 2.7925268032 2.8242600623 
2.8559933214 2.8877265806 2.9194598397 2.9511930988 2.982926358 3.0146596171 3.0463928762 3.0781261353 3.1098593945 
3.1415926536 
_radius 1 100 double
8.9906217675e-16 0.014638075394 0.02912630895 0.043323353892 0.057110199502 0.070395897176 0.083118051046 0.095238640345 0.10673707089 
0.11760305353 0.12783160158 0.13742124472 0.1463750727 0.15470311084 0.16242411565 0.16956515033 0.17615813155 0.18223373662 
0.18781424724 0.19290758919 0.19750467318 0.20158120178 0.20510378372 0.20803901287 0.21036349267 0.21207269665 0.21318690911 
0.21375309862 0.21384233896 0.21354325849 0.21295283243 0.2121663529 0.21126835928 0.21032570454 0.20938310352 0.20846088205 
0.20755446963 0.20663543076 0.20565427373 0.20454558656 0.20323596679 0.20165466413 0.19974600857 0.197481869 0.19487189854 
0.19196936379 0.18887094356 0.18570989179 0.18264318894 0.17983453559 0.17743605227 0.17557208307 0.17432818463 0.1737468524 
0.17382903557 0.17453837554 0.17580500123 0.17752783113 0.17957706943 0.18179995564 0.18403193921 0.18611291144 0.18790548324 
0.18931097126 0.19027921567 0.19081009435 0.19094674736 0.19076240597 0.19034395563 0.18977573083 0.18912645753 0.18844095223 
0.18773672797 0.18700463949 0.1862123496 0.18530951738 0.18423384458 0.1829172413 0.18129137125 0.17929184529 0.17686050986 
0.17394569681 0.17050087484 0.16648261753 0.16184888362 0.15655819292 0.1505696358 0.14384323356 0.13634025906 0.12802362641 
0.1188589902 0.10881740322 0.097880119587 0.08604547843 0.073336990021 0.059811055359 0.045562431449 0.030725741158 0.015471987862 
7.3880045916e-16 
_area 1 100 double
0 0.00050816047412 0.0020136964557 0.0044631289126 0.0077776956182 0.011866151936 0.016637535288 0.022009553387 0.02790852028 
0.03425948034 0.040971031384 0.047924168391 0.054972505334 0.061954700691 0.068715132203 0.075127228579 0.081113537891 0.086656463294 
0.091793699054 0.096595129788 0.1011282122 0.10543262614 0.10951942928 0.11338054118 0.11698187883 0.12024736331 0.12307100622 
0.12535501404 0.12704010035 0.12811832461 0.12863379767 0.12867282058 0.12834459704 0.12775719398 0.12699539639 0.12610638126 
0.12509643278 0.12393764126 0.12257986244 0.12096361721 0.11903287748 0.11674825456 0.11409957272 0.11111438939 0.10785842799 
0.10442638415 0.10092609119 0.097462351241 0.094125825643 0.090988055595 0.088100776017 0.085499031246 0.083208784164 0.081255560171 
0.079666131546 0.078456828031 0.077610328032 0.077059865715 0.076701811522 0.076427863112 0.076152521514 0.075823539172 0.075423644794 
0.07498411617 0.074674305913 0.074533754146 0.074283369009 0.073925197746 0.073505875601 0.073041537044 0.072563922268 0.072004567361 
0.071280914103 0.070367610111 0.069271319783 0.06803069031 0.066721703165 0.065467261713 0.06449619443 0.06399581499 0.063713942242 
0.063456814546 0.063025334503 0.062215816591 0.060844246161 0.058767658149 0.055897476209 0.052205576183 0.047726446348 0.042558166069 
0.036861270772 0.030851630213 0.024784547621 0.01893116387 0.013551852952 0.0088730339718 0.0050730512832 0.0022792220717 0.00057332512624 
3.2964061236e-17 
