# vtk DataFile Version 5.1
vtk output
ASCII
DATASET POLYDATA
POINTS 100 float
0.11323 0.0674147 0.740392 0.113492 0.0677131 0.740119 0.114333 0.0684206 0.73909 
0.11566 0.069475 0.737336 0.117328 0.0707804 0.734903 0.119164 0.072218 0.731846 
0.120979 0.073659 0.728225 0.122594 0.0749791 0.724096 0.123861 0.0760712 0.719501 
0.124673 0.0768564 0.714468 0.124979 0.0772914 0.709004 0.124777 0.0773704 0.703093 
0.124117 0.0771237 0.696699 0.123083 0.0766111 0.689772 0.121775 0.0759119 0.68225 
0.120292 0.0751133 0.674071 0.118715 0.0742972 0.665179 0.117087 0.0735293 0.655532 
0.115405 0.0728495 0.645112 0.11362 0.0722664 0.633926 0.111635 0.0717563 0.62201 
0.10932 0.0712664 0.609429 0.106525 0.0707216 0.596275 0.103103 0.0700352 0.582656 
0.0989243 0.0691204 0.568694 0.0938976 0.0679032 0.554514 0.0879808 0.0663332 0.540229 
0.0811877 0.0643925 0.525941 0.0735876 0.0620999 0.511724 0.0652971 0.0595129 0.497621 
0.0564674 0.056723 0.483644 0.0472656 0.0538496 0.469767 0.0378563 0.0510289 0.455933 
0.0283831 0.0484025 0.442057 0.018954 0.0461046 0.428028 0.0096322 0.0442509 0.413725 
0.000433577 0.0429293 0.399016 -0.00866835 0.0421937 0.383773 -0.0177314 0.0420613 0.367878 
-0.0268287 0.0425138 0.351228 -0.0360294 0.0435017 0.33374 -0.04538 0.0449512 0.315357 
-0.0548875 0.0467728 0.296048 -0.0645072 0.0488706 0.275809 -0.0741373 0.0511503 0.254657 
-0.0836203 0.053527 0.232634 -0.0927517 0.0559295 0.209798 -0.101296 0.0583032 0.186221 
-0.109004 0.0606101 0.161984 -0.115638 0.0628266 0.137175 -0.120989 0.0649401 0.11188 
-0.1249 0.0669448 0.0861859 -0.127276 0.0688368 0.0601743 -0.128093 0.0706111 0.0339207 
-0.127398 0.0722588 0.00749387 -0.125304 0.0737664 -0.0190447 -0.121974 0.0751167 -0.0456399 
-0.117609 0.076291 -0.072242 -0.112428 0.0772717 -0.0988055 -0.106647 0.0780462 -0.125287 
-0.100464 0.0786098 -0.151642 -0.094047 0.0789674 -0.177828 -0.0875216 0.0791346 -0.203796 
-0.0809709 0.079136 -0.229496 -0.0744353 0.0790029 -0.254871 -0.0679183 0.078769 -0.279861 
-0.061395 0.078465 -0.304404 -0.0548217 0.0781132 -0.328434 -0.0481463 0.0777228 -0.351885 
-0.0413174 0.0772855 -0.374697 -0.034291 0.0767743 -0.39681 -0.0270353 0.0761433 -0.418175 
-0.019533 0.0753307 -0.438751 -0.0117811 0.0742637 -0.45851 -0.00379001 0.0728658 -0.477436 
0.00441915 0.0710645 -0.495525 0.0128161 0.0688006 -0.512787 0.0213629 0.0660361 -0.529239 
0.0300147 0.0627608 -0.544909 0.0387191 0.0589971 -0.559831 0.0474149 0.0548018 -0.574039 
0.0560315 0.0502645 -0.587568 0.0644879 0.0455034 -0.600449 0.0726932 0.0406579 -0.612707 
0.0805492 0.0358792 -0.624358 0.0879538 0.0313192 -0.635409 0.0948073 0.0271194 -0.645859 
0.101019 0.0234001 -0.655696 0.106516 0.0202514 -0.664903 0.111247 0.0177265 -0.673453 
0.115193 0.0158381 -0.681318 0.118365 0.0145588 -0.688466 0.12081 0.0138238 -0.694864 
0.122601 0.013538 -0.700481 0.123837 0.013585 -0.705286 0.12463 0.0138383 -0.709254 
0.125092 0.0141729 -0.712362 0.125329 0.0144773 -0.714593 0.125425 0.0146635 -0.715933 
0.125433 0.0146756 -0.716374 
LINES 2 100
OFFSETS vtktypeint64
0 100 
CONNECTIVITY vtktypeint64
0 1 2 3 4 5 6 7 8 
9 10 11 12 13 14 15 16 17 
18 19 20 21 22 23 24 25 26 
27 28 29 30 31 32 33 34 35 
36 37 38 39 40 41 42 43 44 
45 46 47 48 49 50 51 52 53 
54 55 56 57 58 59 60 61 62 
63 64 65 66 67 68 69 70 71 
72 73 74 75 76 77 78 79 80 
81 82 83 84 85 86 87 88 89 
90 91 92 93 94 95 96 97 98 
99 
POINT_DATA 100
FIELD FieldData 3
_theta 1 100 double
0 0.031733259127 0.063466518254 0.095199777382 0.12693303651 0.15866629564 0.19039955476 0.22213281389 0.25386607302 
0.28559933214 0.31733259127 0.3490658504 0.38079910953 0.41253236865 0.44426562778 0.47599888691 0.50773214603 0.53946540516 
0.57119866429 0.60293192342 0.63466518254 0.66639844167 0.6981317008 0.72986495992 0.76159821905 0.79333147818 0.82506473731 
0.85679799643 0.88853125556 0.92026451469 0.95199777382 0.98373103294 1.0154642921 1.0471975512 1.0789308103 1.1106640695 
1.1423973286 1.1741305877 1.2058638468 1.237597106 1.2693303651 1.3010636242 1.3327968833 1.3645301425 1.3962634016 
1.4279966607 1.4597299198 1.491463179 1.5231964381 1.5549296972 1.5866629564 1.6183962155 1.6501294746 1.6818627337 
1.7135959929 1.745329252 1.7770625111 1.8087957702 1.8405290294 1.8722622885 1.9039955476 1.9357288068 1.9674620659 
1.999195325 2.0309285841 2.0626618433 2.0943951024 2.1261283615 2.1578616206 2.1895948798 2.2213281389 2.253061398 
2.2847946572 2.3165279163 2.3482611754 2.3799944345 2.4117276937 2.4434609528 2.4751942119 2.506927471 2.5386607302 
2.5703939893 2.6021272484 2.6338605076 2.6655937667 2.6973270258 2.7290602849 2.7607935441 2.7925268032 2.8242600623 
2.8559933214 2.8877265806 2.9194598397 2.9511930988 2.982926358 3.0146596171 3.0463928762 3.0781261353 3.1098593945 
3.1415926536 
_radius 1 100 double
1.0131735589e-15 0.014110431948 0.028153869811 0.042058539535 0.055759043026 0.069198514867 0.082329420492 0.095112910246 0.10751686592 
0.11951289532 0.13107257267 0.14216332363 0.1527446058 0.1627653409 0.17216366081 0.18086973202 0.18881173858 0.1959242788 
0.20215778616 0.20748733978 0.21191941239 0.21549558071 0.21829278747 0.2204202024 0.22201297133 0.22322318104 0.2242083422 
0.22511780581 0.22607792167 0.22717737275 0.22845472382 0.22989047202 0.23140555887 0.23286739884 0.23410321206 0.2349191497 
0.2351227069 0.23454545805 0.23306326227 0.23061164956 0.22719491469 0.22288832802 0.21783367035 0.21222888372 0.20631291869 
0.2003468947 0.19459270677 0.18929055304 0.18463769943 0.18077180787 0.177762415 0.17561271234 0.1742706883 0.17364545255 
0.17362323137 0.17407901336 0.17488308118 0.17590458732 0.17701549288 0.17809741351 0.1790516237 0.17980967935 0.18034071808 
0.18065259618 0.18078650301 0.1808066694 0.18078754542 0.18080074525 0.18090361971 0.18113069572 0.18148851458 0.18195382453 
0.18247484998 0.18297542857 0.18336186137 0.18353203242 0.18338570954 0.18283429267 0.18180806423 0.18025936087 0.17816089245 
0.17549954904 0.17226729126 0.1684516212 0.16402815018 0.15895693349 0.15318305908 0.14664096877 0.13926138464 0.13097951158 
0.12174329018 0.11152075635 0.10030590727 0.088122784485 0.075027699396 0.061109621894 0.046488757997 0.031313322002 0.015754534927 
1.0756087327e-15 
_area 1 100 double
0 0.00047495910654 0.001893956816 0.0042390961491 0.007479986837 0.011573771265 0.016466225213 0.022093812058 0.028385775491 
0.035264995728 0.042646667798 0.050434755425 0.058517307951 0.066762820428 0.075020496524 0.083126798494 0.090918428337 0.0982485872 
0.10500109282 0.11109755402 0.11649641533 0.12118739845 0.12518774306 0.12854556664 0.13135059309 0.13374510309 0.13592236861 
0.13810401763 0.14050206695 0.14327693411 0.14649511789 0.15009521749 0.1538828181 0.15756105134 0.16078027703 0.16318859803 
0.16447610541 0.16441254642 0.1628757846 0.15986290503 0.15547929467 0.14991317752 0.14341023975 0.13625781736 0.12877736781 
0.12131680639 0.11423188409 0.1078469837 0.10239798893 0.097987708092 0.094586524833 0.092066337553 0.09024320964 0.08892330382 
0.087944131082 0.087199717701 0.086641750379 0.08625434247 0.086013660409 0.08586194235 0.085714848953 0.085485243917 0.085101418081 
0.084514823681 0.083700404034 0.082655638743 0.081403379276 0.079996367733 0.078517773487 0.077063149388 0.075688081379 0.074418399541 
0.073270777894 0.072375802623 0.071601827719 0.070942036371 0.070362544142 0.069805775847 0.069221167152 0.068549855059 0.067719102185 
0.066646709547 0.065249183151 0.063447343874 0.061168780771 0.058350738656 0.054946707549 0.050936878073 0.046339712521 0.041221053877 
0.035698040645 0.029936212556 0.024139337205 0.018533198395 0.013346453221 0.0087924871773 0.0050554168338 0.0022815329597 0.00057556458032 
3.1658703437e-17 
