# vtk DataFile Version 5.1
vtk output
ASCII
DATASET POLYDATA
POINTS 100 float
0.143584 0.0470945 0.706192 0.14351 0.047331 0.705767 0.143335 0.0479156 0.704344 
0.143042 0.0488115 0.701969 0.142609 0.0499622 0.698714 0.142005 0.0512962 0.694666 
0.141202 0.0527341 0.689919 0.14017 0.0541952 0.684561 0.138886 0.0556042 0.678667 
0.13733 0.0568973 0.67229 0.135493 0.0580253 0.665456 0.13337 0.0589566 0.658168 
0.130958 0.0596763 0.650411 0.128258 0.0601853 0.642156 0.125267 0.0604957 0.633372 
0.121976 0.0606274 0.624036 0.118369 0.0606029 0.614141 0.114423 0.0604428 0.603703 
0.110107 0.0601627 0.592763 0.105384 0.0597711 0.581385 0.100222 0.0592686 0.569652 
0.0945898 0.0586495 0.557658 0.0884691 0.0579039 0.545494 0.0818572 0.0570214 0.533236 
0.0747709 0.055995 0.520942 0.0672485 0.0548249 0.508633 0.0593489 0.0535214 0.496298 
0.0511486 0.0521073 0.48389 0.0427365 0.0506186 0.471331 0.0342065 0.049103 0.45852 
0.0256497 0.0476182 0.445346 0.0171461 0.0462285 0.4317 0.00875776 0.0449999 0.417484 
0.000523978 0.0439965 0.402623 -0.0075409 0.0432756 0.387074 -0.0154464 0.0428841 0.370825 
-0.0232218 0.0428561 0.353891 -0.0309088 0.0432109 0.336316 -0.0385523 0.0439526 0.318153 
-0.0461904 0.0450707 0.299465 -0.053844 0.0465417 0.280304 -0.0615079 0.048331 0.26071 
-0.0691446 0.0503952 0.240701 -0.0766811 0.0526842 0.22027 -0.0840098 0.0551436 0.199393 
-0.0909928 0.0577162 0.178031 -0.09747 0.0603437 0.156138 -0.10327 0.0629678 0.133679 
-0.108223 0.0655313 0.110632 -0.112171 0.0679792 0.0870056 -0.114984 0.07026 0.0628409 
-0.116565 0.0723274 0.0382139 -0.116861 0.0741418 0.0132337 -0.115863 0.0756723 -0.0119654 
-0.113609 0.0768983 -0.0372347 -0.110176 0.0778111 -0.062424 -0.105677 0.0784145 -0.0873959 
-0.100247 0.0787248 -0.112038 -0.0940394 0.0787695 -0.136271 -0.0872089 0.0785849 -0.160058 
-0.0799063 0.0782128 -0.1834 -0.0722684 0.0776963 -0.20633 -0.0644133 0.0770747 -0.228912 
-0.056436 0.0763796 -0.251216 -0.048408 0.0756299 -0.273315 -0.0403779 0.0748294 -0.295265 
-0.0323744 0.0739649 -0.317093 -0.0244097 0.0730065 -0.338795 -0.0164844 0.0719096 -0.360325 
-0.00859147 0.0706189 -0.381606 -0.000721125 0.0690736 -0.40253 0.00713593 0.0672136 -0.422975 
0.0149851 0.0649859 -0.442813 0.0228254 0.0623512 -0.461928 0.0306476 0.0592883 -0.480228 
0.0384321 0.0557984 -0.497651 0.0461483 0.051906 -0.514175 0.0537536 0.0476585 -0.529815 
0.0611927 0.0431239 -0.54462 0.0683982 0.0383857 -0.558661 0.0752915 0.0335375 -0.572025 
0.0817849 0.0286766 -0.584796 0.0877853 0.0238973 -0.597046 0.0931984 0.0192851 -0.608822 
0.0979349 0.0149123 -0.620143 0.101917 0.0108345 -0.630996 0.105084 0.00708917 -0.641337 
0.107404 0.00369649 -0.6511 0.108872 0.000660695 -0.660205 0.109521 -0.00202676 -0.668569 
0.109421 -0.00438351 -0.67612 0.108677 -0.0064325 -0.6828 0.107425 -0.00819835 -0.68858 
0.105829 -0.00970446 -0.693456 0.104063 -0.0109709 -0.697449 0.102309 -0.0120132 -0.700602 
0.100737 -0.0128422 -0.702969 0.0994938 -0.0134643 -0.704607 0.098696 -0.0138822 -0.705564 
0.0984163 -0.014096 -0.705873 
LINES 2 100
OFFSETS vtktypeint64
0 100 
CONNECTIVITY vtktypeint64
0 1 2 3 4 5 6 7 8 
9 10 11 12 13 14 15 16 17 
18 19 20 21 22 23 24 25 26 
27 28 29 30 31 32 33 34 35 
36 37 38 39 40 41 42 43 44 
45 46 47 48 49 50 51 52 53 
54 55 56 57 58 59 60 61 62 
63 64 65 66 67 68 69 70 71 
72 73 74 75 76 77 78 79 80 
81 82 83 84 85 86 87 88 89 
90 91 92 93 94 95 96 97 98 
99 
POINT_DATA 100
FIELD FieldData 3
_theta 1 100 double
0 0.031733259127 0.063466518254 0.095199777382 0.12693303651 0.15866629564 0.19039955476 0.22213281389 0.25386607302 
0.28559933214 0.31733259127 0.3490658504 0.38079910953 0.41253236865 0.44426562778 0.47599888691 0.50773214603 0.53946540516 
0.57119866429 0.60293192342 0.63466518254 0.66639844167 0.6981317008 0.72986495992 0.76159821905 0.79333147818 0.82506473731 
0.85679799643 0.88853125556 0.92026451469 0.95199777382 0.98373103294 1.0154642921 1.0471975512 1.0789308103 1.1106640695 
1.1423973286 1.1741305877 1.2058638468 1.237597106 1.2693303651 1.3010636242 1.3327968833 1.3645301425 1.3962634016 
1.4279966607 1.4597299198 1.491463179 1.5231964381 1.5549296972 1.5866629564 1.6183962155 1.6501294746 1.6818627337 
1.7135959929 1.745329252 1.7770625111 1.8087957702 1.8405290294 1.8722622885 1.9039955476 1.9357288068 1.9674620659 
1.999195325 2.0309285841 2.0626618433 2.0943951024 2.1261283615 2.1578616206 2.1895948798 2.2213281389 2.253061398 
2.2847946572 2.3165279163 2.3482611754 2.3799944345 2.4117276937 2.4434609528 2.4751942119 2.506927471 2.5386607302 
2.5703939893 2.6021272484 2.6338605076 2.6655937667 2.6973270258 2.7290602849 2.7607935441 2.7925268032 2.8242600623 
2.8559933214 2.8877265806 2.9194598397 2.9511930988 2.982926358 3.0146596171 3.0463928762 3.0781261353 3.1098593945 
3.1415926536 
_radius 1 100 double
8.1075266883e-16 0.014151661829 0.028250451835 0.042243057598 0.056076542038 0.069698909373 0.083059891402 0.096111705462 0.10880944313 
0.12111082481 0.13297535121 0.14436333953 0.15523571448 0.16555537988 0.17529032164 0.1844175345 0.19292607653 0.20081760884 
0.20810371957 0.21480068913 0.22092347181 0.22648104947 0.23147483248 0.23590071285 0.23975416862 0.24303686031 0.24576266724 
0.24796116484 0.24967713619 0.25096574673 0.25188428061 0.2524824783 0.25279405028 0.25283150986 0.2525852123 0.25202612671 
0.25111115167 0.24978987993 0.24801219461 0.24573641996 0.24293772197 0.23961614946 0.23580335886 0.23156688151 0.22701085557 
0.22227241828 0.21751334511 0.21290700531 0.20862141733 0.20480034379 0.20154586212 0.19890682873 0.19687676831 0.19540152145 
0.19439317724 0.19374505041 0.19334370881 0.19307703648 0.1928400035 0.19254068243 0.19210773815 0.19149827155 0.19070340304 
0.18974935311 0.18869349691 0.18761661761 0.18661318178 0.18578057606 0.18520694195 0.18495736664 0.18506009564 0.185496177 
0.18619573594 0.18704217437 0.18788339536 0.18854771705 0.18886167776 0.18866713584 0.18783555064 0.18627786407 0.18394890565 
0.18084574339 0.17700000085 0.17246497973 0.16729944706 0.16155084891 0.15524103909 0.14835717372 0.14084944964 0.13263618178 
0.12361550405 0.11368187391 0.10274477812 0.090746775074 0.077678302472 0.063587371014 0.048583117914 0.032833014149 0.016554205858 
3.8150165076e-16 
_area 1 100 double
0 0.00053758878261 0.0021314227882 0.0047257087368 0.0082310192123 0.012530264582 0.017487883579 0.022962154956 0.028819367684 
0.034946921151 0.041260808623 0.047703006112 0.054228501932 0.060789583384 0.067329512049 0.073792391249 0.080145079614 0.08639912226 
0.092618581961 0.098903298303 0.10534874864 0.11200042143 0.11882780095 0.12573178411 0.13257891233 0.13923844818 0.14559485426 
0.15153725158 0.15696256529 0.16179559439 0.16599469573 0.16953999223 0.17242077517 0.17463096014 0.17616915453 0.17703534855 
0.17722160212 0.17670341966 0.17544156945 0.1733972341 0.17055348001 0.16693139908 0.16259345537 0.15763686247 0.15218682758 
0.14639601727 0.14044785021 0.13455616954 0.12895139492 0.12384274581 0.11937017045 0.11559160755 0.11247835973 0.10989058217 
0.10763281643 0.10551498878 0.10335975425 0.1010125844 0.098361937498 0.095361737883 0.09204844258 0.088537312526 0.084990140719 
0.081572156009 0.078428976718 0.075680522919 0.073410689252 0.071661205242 0.070443247127 0.069751681096 0.069556588658 0.069784531997 
0.070323732901 0.071050105048 0.071838986936 0.072558867914 0.073072897683 0.073248435402 0.072974647128 0.072184728386 0.070871285071 
0.069084066074 0.066907630679 0.064427151946 0.06169704685 0.058724631786 0.055472124443 0.051872796116 0.047854670006 0.043366115011 
0.038399247471 0.033007961997 0.027317829712 0.021525736085 0.015888407875 0.010700767902 0.0062668829727 0.0028676188827 0.00072963698888 
7.1343890875e-17 
