# vtk DataFile Version 5.1
vtk output
ASCII
DATASET POLYDATA
POINTS 100 float
0.137338 0.0410355 0.720672 0.1373 0.0413008 0.720368 0.137303 0.0419351 0.71937 
0.137337 0.0429129 0.717727 0.137386 0.0441938 0.715512 0.137428 0.045726 0.712809 
0.137439 0.0474504 0.709704 0.13739 0.0493043 0.706271 0.137253 0.0512266 0.702557 
0.137 0.053161 0.698577 0.136601 0.0550601 0.694306 0.136033 0.0568867 0.689686 
0.13527 0.0586153 0.684626 0.134292 0.0602318 0.679015 0.133079 0.0617311 0.672734 
0.131614 0.0631152 0.665673 0.129877 0.0643893 0.65774 0.127853 0.0655584 0.648876 
0.12552 0.0666235 0.639062 0.122861 0.0675788 0.628322 0.119852 0.0684103 0.61672 
0.116471 0.0690945 0.604354 0.112694 0.0696 0.591347 0.108499 0.06989 0.57783 
0.103866 0.0699254 0.563938 0.0987786 0.06967 0.549788 0.0932261 0.0690954 0.535477 
0.0872046 0.0681858 0.521072 0.0807182 0.0669417 0.50661 0.073779 0.0653835 0.492098 
0.0664071 0.0635522 0.477522 0.0586299 0.0615083 0.462847 0.0504803 0.0593296 0.448033 
0.0419949 0.0571061 0.433035 0.0332125 0.0549346 0.417815 0.0241717 0.052911 0.40234 
0.0149099 0.0511246 0.386586 0.00546219 0.0496506 0.370532 -0.00413834 0.0485458 0.354161 
-0.0138597 0.047845 0.337449 -0.0236692 0.0475599 0.320363 -0.0335308 0.0476803 0.302859 
-0.0434024 0.0481771 0.284877 -0.0532325 0.0490073 0.266346 -0.0629582 0.05012 0.247188 
-0.0725031 0.0514624 0.227327 -0.0817768 0.0529864 0.206696 -0.0906767 0.0546525 0.185249 
-0.09909 0.0564336 0.162973 -0.106899 0.0583156 0.139888 -0.113984 0.0602968 0.116056 
-0.120236 0.062384 0.0915801 -0.125556 0.0645888 0.0665932 -0.129868 0.0669215 0.0412547 
-0.13312 0.0693856 0.0157349 -0.135292 0.071973 -0.00979895 -0.136395 0.07466 -0.035196 
-0.136472 0.0774062 -0.0603344 -0.135594 0.0801545 -0.0851298 -0.133855 0.0828339 -0.109539 
-0.131368 0.0853643 -0.133561 -0.128251 0.087662 -0.157226 -0.124623 0.0896472 -0.180591 
-0.120593 0.0912494 -0.203725 -0.116257 0.092414 -0.226692 -0.111687 0.0931053 -0.249544 
-0.106933 0.0933088 -0.272304 -0.102022 0.0930303 -0.294963 -0.0969586 0.0922932 -0.317478 
-0.0917325 0.091134 -0.339776 -0.0863232 0.0895964 -0.361757 -0.0807083 0.0877252 -0.383311 
-0.0748708 0.0855607 -0.404326 -0.0688065 0.0831344 -0.424699 -0.0625286 0.0804664 -0.444351 
-0.0560718 0.0775658 -0.463232 -0.0494928 0.074432 -0.48132 -0.0428687 0.0710597 -0.498624 
-0.0362934 0.0674442 -0.515173 -0.0298715 0.0635872 -0.53101 -0.0237113 0.0595035 -0.546177 
-0.0179175 0.0552251 -0.560706 -0.0125837 0.050804 -0.574607 -0.00778643 0.0463122 -0.587863 
-0.00357985 0.0418393 -0.600429 6.58779e-06 0.0374867 -0.612231 0.00296906 0.0333602 -0.623179 
0.00532809 0.0295613 -0.633175 0.00712555 0.0261779 -0.642128 0.0084203 0.023276 -0.649965 
0.00928305 0.0208932 -0.656647 0.00979109 0.019035 -0.662175 0.0100231 0.0176744 -0.666596 
0.0100548 0.0167549 -0.669996 0.0099553 0.016197 -0.6725 0.0097849 0.0159068 -0.674251 
0.00959332 0.0157869 -0.675403 0.00941918 0.0157476 -0.676097 0.00928984 0.0157168 -0.676449 
0.0092216 0.0156483 -0.676535 
LINES 2 100
OFFSETS vtktypeint64
0 100 
CONNECTIVITY vtktypeint64
0 1 2 3 4 5 6 7 8 
9 10 11 12 13 14 15 16 17 
18 19 20 21 22 23 24 25 26 
27 28 29 30 31 32 33 34 35 
36 37 38 39 40 41 42 43 44 
45 46 47 48 49 50 51 52 53 
54 55 56 57 58 59 60 61 62 
63 64 65 66 67 68 69 70 71 
72 73 74 75 76 77 78 79 80 
81 82 83 84 85 86 87 88 89 
90 91 92 93 94 95 96 97 98 
99 
POINT_DATA 100
FIELD FieldData 3
_theta 1 100 double
0 0.031733259127 0.063466518254 0.095199777382 0.12693303651 0.15866629564 0.19039955476 0.22213281389 0.25386607302 
0.28559933214 0.31733259127 0.3490658504 0.38079910953 0.41253236865 0.44426562778 0.47599888691 0.50773214603 0.53946540516 
0.57119866429 0.60293192342 0.63466518254 0.66639844167 0.6981317008 0.72986495992 0.76159821905 0.79333147818 0.82506473731 
0.85679799643 0.88853125556 0.92026451469 0.95199777382 0.98373103294 1.0154642921 1.0471975512 1.0789308103 1.1106640695 
1.1423973286 1.1741305877 1.2058638468 1.237597106 1.2693303651 1.3010636242 1.3327968833 1.3645301425 1.3962634016 
1.4279966607 1.4597299198 1.491463179 1.5231964381 1.5549296972 1.5866629564 1.6183962155 1.6501294746 1.6818627337 
1.7135959929 1.745329252 1.7770625111 1.8087957702 1.8405290294 1.8722622885 1.9039955476 1.9357288068 1.9674620659 
1.999195325 2.0309285841 2.0626618433 2.0943951024 2.1261283615 2.1578616206 2.1895948798 2.2213281389 2.253061398 
2.2847946572 2.3165279163 2.3482611754 2.3799944345 2.4117276937 2.4434609528 2.4751942119 2.506927471 2.5386607302 
2.5703939893 2.6021272484 2.6338605076 2.6655937667 2.6973270258 2.7290602849 2.7607935441 2.7925268032 2.8242600623 
2.8559933214 2.8877265806 2.9194598397 2.9511930988 2.982926358 3.0146596171 3.0463928762 3.0781261353 3.1098593945 
3.1415926536 
_radius 1 100 double
1.4304896245e-16 0.012576709882 0.025167669533 0.037780461861 0.050410376968 0.06303457092 0.07560709335 0.088055681446 0.10028152794 
0.11216320441 0.12356530612 0.13435118436 0.14439772045 0.15360908708 0.16192637884 0.16933100688 0.17584148494 0.18150503125 
0.18638662217 0.19055837077 0.19409142494 0.1970514342 0.19949755357 0.20148422083 0.20306455472 0.20429407023 0.20523345866 
0.20594947267 0.20651346762 0.20699770145 0.20746984696 0.20798625907 0.2085845539 0.20927621745 0.21004029005 0.21081949365 
0.21152025371 0.21201772966 0.21216617834 0.21181393854 0.21082139238 0.2090796978 0.20652793886 0.20316648616 0.19906466997 
0.19436130654 0.18925722233 0.18399975724 0.17886033826 0.17410757661 0.1699797427 0.16666138201 0.1642684842 0.16284456177 
0.16236675738 0.16275801728 0.16389975959 0.16564028817 0.16779790074 0.17016286359 0.17250546328 0.17459488575 0.17622673048 
0.17725096071 0.17759156901 0.17725335001 0.17631582783 0.17491701876 0.17323039931 0.17143836477 0.16970580703 0.16815870685 
0.16687289383 0.16587426806 0.16514622306 0.16463881589 0.16427699392 0.16396763531 0.16360592627 0.16308127145 0.16228222928 
0.16109966564 0.15942785309 0.15716424043 0.15420929696 0.15046768861 0.14585120851 0.14028297408 0.13370195789 0.12606701498 
0.11735993098 0.10758735746 0.096781703682 0.085001125422 0.072328739269 0.058871137862 0.044756218363 0.030130288695 0.015154410997 
5.2643388561e-16 
_area 1 100 double
0 0.00036537136645 0.001461049916 0.0032868632104 0.0058450019334 0.0091400231005 0.013173964865 0.017935964136 0.023388728808 
0.029456454818 0.036019034217 0.042915485919 0.049956670338 0.056945059419 0.063697865005 0.070068413243 0.075959761933 0.081326260108 
0.086163917718 0.090496250388 0.094363417726 0.09781712483 0.10091756068 0.10372887149 0.10631523512 0.10874176661 0.11107834893 
0.11339670673 0.11575344786 0.11816680081 0.12060658681 0.12300706055 0.12529263779 0.12740082565 0.12929319821 0.13095190428 
0.13235987164 0.13346354693 0.13413516299 0.13417193213 0.13334375612 0.1314589935 0.12841769931 0.12424082581 0.11907381509 
0.11316794919 0.10684797391 0.10047576654 0.094411963943 0.088966127826 0.084333722093 0.080557772587 0.077560936737 0.075222119531 
0.07343606945 0.072132582055 0.071263322666 0.070775348669 0.070589700524 0.070593593381 0.0706508937 0.07063556206 0.070482773061 
0.070163002196 0.069352551457 0.06780936982 0.065577120666 0.062833021182 0.059804863692 0.056719246787 0.053768351661 0.051092747167 
0.048782918907 0.04690448543 0.045530903128 0.044698795732 0.044437853545 0.044683278363 0.045346124241 0.046343613938 0.047559920779 
0.048836803471 0.050011513195 0.050892174479 0.051243512924 0.050841600644 0.049524736254 0.047216936742 0.043934311001 0.039779632528 
0.034928156854 0.029608218358 0.024080131993 0.018615981952 0.013481670065 0.0089217947894 0.0051476931181 0.0023289500182 0.00058839883426 
1.7618285303e-18 
