# vtk DataFile Version 5.1
vtk output
ASCII
DATASET POLYDATA
POINTS 100 float
0.167825 0.0517955 0.734866 0.167787 0.0519141 0.734527 0.167766 0.0520993 0.733389 
0.167735 0.0523657 0.731471 0.167654 0.0527357 0.728797 0.167472 0.0532347 0.725394 
0.167132 0.0538858 0.721286 0.166574 0.0547044 0.716487 0.165744 0.0556934 0.710999 
0.164594 0.0568399 0.704809 0.163085 0.0581135 0.697895 0.161189 0.0594672 0.690231 
0.158888 0.0608405 0.681793 0.156169 0.0621638 0.672572 0.153024 0.0633646 0.662582 
0.149447 0.0643744 0.651865 0.145424 0.0651344 0.6405 0.140939 0.0656015 0.628596 
0.135967 0.0657511 0.61629 0.130477 0.0655793 0.603738 0.124436 0.0651013 0.591097 
0.117812 0.064349 0.57851 0.110581 0.0633659 0.566091 0.102734 0.0622019 0.55391 
0.0942834 0.0609068 0.541981 0.0852668 0.0595251 0.530262 0.0757529 0.0580917 0.518655 
0.0658393 0.0566293 0.507017 0.0556497 0.055148 0.495171 0.0453272 0.0536464 0.482931 
0.0350241 0.0521155 0.47012 0.0248896 0.0505426 0.456587 0.0150567 0.0489168 0.442227 
0.00562863 0.0472338 0.426992 -0.00333155 0.0455004 0.410889 -0.0118091 0.0437371 0.393981 
-0.0198405 0.0419795 0.376373 -0.0275107 0.0402774 0.358194 -0.0349454 0.0386922 0.33958 
-0.0422975 0.0372931 0.320648 -0.0497293 0.036152 0.301483 -0.0573924 0.0353382 0.282119 
-0.0654069 0.0349134 0.262539 -0.0738423 0.0349271 0.242672 -0.0827026 0.0354137 0.222404 
-0.0919167 0.0363903 0.201595 -0.101337 0.0378568 0.180102 -0.110744 0.0397965 0.157795 
-0.119862 0.042178 0.134587 -0.12838 0.0449576 0.110446 -0.135974 0.0480823 0.0854068 
-0.142339 0.0514919 0.0595716 -0.147216 0.0551211 0.0331059 -0.150412 0.0589015 0.0062221 
-0.151826 0.0627623 -0.0208406 -0.151452 0.066631 -0.0478408 -0.149385 0.0704339 -0.0745591 
-0.145809 0.0740968 -0.10082 -0.14098 0.0775458 -0.126507 -0.135202 0.080709 -0.151571 
-0.128792 0.0835183 -0.176032 -0.122058 0.0859117 -0.199964 -0.115259 0.0878364 -0.223486 
-0.108586 0.089251 -0.246732 -0.102147 0.0901278 -0.269836 -0.0959525 0.090454 -0.292904 
-0.0899276 0.0902322 -0.315997 -0.0839187 0.0894786 -0.339122 -0.0777187 0.0882213 -0.362227 
-0.0710937 0.0864967 -0.385204 -0.0638145 0.0843452 -0.407904 -0.0556869 0.0818072 -0.430156 
-0.0465776 0.0789192 -0.451783 -0.0364337 0.075711 -0.472626 -0.0252929 0.0722041 -0.49256 
-0.0132833 0.0684118 -0.511505 -0.000613031 0.0643416 -0.529434 0.0124487 0.0599983 -0.546362 
0.0255974 0.0553885 -0.562344 0.0385228 0.0505261 -0.577453 0.0509376 0.0454366 -0.591765 
0.062604 0.0401611 -0.605336 0.0733531 0.0347582 -0.618192 0.0830964 0.0293043 -0.630315 
0.0918275 0.0238903 -0.641642 0.0996139 0.0186175 -0.65207 0.106582 0.0135908 -0.661471 
0.112892 0.00891081 -0.669709 0.118717 0.00466549 -0.676662 0.124213 0.000923077 -0.68225 
0.129499 -0.00227402 -0.686446 0.134637 -0.00491257 -0.689296 0.13963 -0.00700908 -0.69092 
0.144415 -0.00860717 -0.691508 0.148876 -0.00977205 -0.691308 0.152858 -0.0105826 -0.690599 
0.156191 -0.0111221 -0.689669 0.158707 -0.011468 -0.688781 0.160269 -0.011683 -0.688147 
0.160788 -0.0118074 -0.687904 
LINES 2 100
OFFSETS vtktypeint64
0 100 
CONNECTIVITY vtktypeint64
0 1 2 3 4 5 6 7 8 
9 10 11 12 13 14 15 16 17 
18 19 20 21 22 23 24 25 26 
27 28 29 30 31 32 33 34 35 
36 37 38 39 40 41 42 43 44 
45 46 47 48 49 50 51 52 53 
54 55 56 57 58 59 60 61 62 
63 64 65 66 67 68 69 70 71 
72 73 74 75 76 77 78 79 80 
81 82 83 84 85 86 87 88 89 
90 91 92 93 94 95 96 97 98 
99 
POINT_DATA 100
FIELD FieldData 3
_theta 1 100 double
0 0.031733259127 0.063466518254 0.095199777382 0.12693303651 0.15866629564 0.19039955476 0.22213281389 0.25386607302 
0.28559933214 0.31733259127 0.3490658504 0.38079910953 0.41253236865 0.44426562778 0.47599888691 0.50773214603 0.53946540516 
0.57119866429 0.60293192342 0.63466518254 0.66639844167 0.6981317008 0.72986495992 0.76159821905 0.79333147818 0.82506473731 
0.85679799643 0.88853125556 0.92026451469 0.95199777382 0.98373103294 1.0154642921 1.0471975512 1.0789308103 1.1106640695 
1.1423973286 1.1741305877 1.2058638468 1.237597106 1.2693303651 1.3010636242 1.3327968833 1.3645301425 1.3962634016 
1.4279966607 1.4597299198 1.491463179 1.5231964381 1.5549296972 1.5866629564 1.6183962155 1.6501294746 1.6818627337 
1.7135959929 1.745329252 1.7770625111 1.8087957702 1.8405290294 1.8722622885 1.9039955476 1.9357288068 1.9674620659 
1.999195325 2.0309285841 2.0626618433 2.0943951024 2.1261283615 2.1578616206 2.1895948798 2.2213281389 2.253061398 
2.2847946572 2.3165279163 2.3482611754 2.3799944345 2.4117276937 2.4434609528 2.4751942119 2.506927471 2.5386607302 
2.5703939893 2.6021272484 2.6338605076 2.6655937667 2.6973270258 2.7290602849 2.7607935441 2.7925268032 2.8242600623 
2.8559933214 2.8877265806 2.9194598397 2.9511930988 2.982926358 3.0146596171 3.0463928762 3.0781261353 3.1098593945 
3.1415926536 
_radius 1 100 double
9.1047701581e-16 0.015223427464 0.03032377921 0.045176881395 0.059664238322 0.073676532249 0.087117459443 0.099907690798 0.11198860291 
0.12332534119 0.13390876638 0.14375589586 0.1529085538 0.16143004916 0.16939979401 0.17690589941 0.18403602439 0.1908671604 
0.19745555132 0.20382839247 0.20997907743 0.21586739016 0.22142516862 0.22656679196 0.23120270516 0.23525344485 0.23866149876 
0.24139886302 0.24346920352 0.24490477678 0.24575934168 0.24609886696 0.24599179546 0.24550014829 0.24467220657 0.24353719794 
0.24210239111 0.24035309685 0.23825606811 0.23576655058 0.23283873723 0.22943869471 0.22555810206 0.22122656696 0.21652003179 
0.21156292956 0.2065223529 0.20159375725 0.1969799293 0.19286776561 0.18940893484 0.18670852209 0.18482122732 0.18375175974 
0.18345678363 0.18384793015 0.18479653642 0.18614084839 0.18769621845 0.18926844593 0.19066978655 0.19173648565 0.192345947 
0.19243080642 0.19198685271 0.19107257902 0.18979992585 0.18831771427 0.18679073842 0.18537816268 0.18421463559 0.18339652183 
0.18297425632 0.18295053244 0.18328318952 0.18389134149 0.18466343216 0.18546640357 0.18615572023 0.18658604239 0.18662152884 
0.18614360829 0.18505380642 0.18327050156 0.18072066135 0.17732941274 0.173010911 0.16766343601 0.16117044387 0.15340789295 
0.14425683651 0.13361924374 0.12143444468 0.10769356286 0.092449758099 0.075822910976 0.057998334434 0.039219967678 0.019779109227 
4.9476648937e-16 
_area 1 100 double
0 0.0005676019512 0.0022540710193 0.0050111537832 0.0087608609958 0.013398895162 0.018799184918 0.024819517961 0.031308403112 
0.038113262088 0.045089688098 0.052110845022 0.059075430801 0.06591244044 0.072581579076 0.079069586977 0.085384313938 0.091548878486 
0.097596829474 0.10356687155 0.10949492294 0.11540362299 0.12129313286 0.12713796974 0.13289096377 0.13849072531 0.14386799603 
0.1489493232 0.1536594448 0.15792374771 0.16167082686 0.16483464821 0.16735582728 0.16918216318 0.17027338647 0.17061032131 
0.17014704441 0.16879210258 0.16645834434 0.16308815093 0.15868937358 0.15334691402 0.14722391783 0.14073333674 0.13414165484 
0.12778087361 0.12193099597 0.11667618862 0.1120435804 0.10802578268 0.10459388039 0.1017194837 0.099415797104 0.097799538574 
0.09684575145 0.096220589095 0.095702049048 0.095124741671 0.094317495158 0.093115933709 0.091413459238 0.089210055944 0.086631795891 
0.083899627287 0.081236152599 0.078774805202 0.076545914503 0.074526896107 0.072694605763 0.071050910595 0.069630255319 0.068497782493 
0.067739664531 0.067444938214 0.06766941069 0.068386334534 0.069487944883 0.07083132739 0.072253095032 0.073568254712 0.07458259096 
0.075117265029 0.075030540258 0.07422504857 0.072640790614 0.07024270724 0.067011744123 0.062943148106 0.058051796868 0.052383993375 
0.046034724418 0.039165235013 0.032011229851 0.024873853021 0.018093513289 0.012014029642 0.0069473395747 0.003147208259 0.00079561882805 
3.5385490815e-17 
