# vtk DataFile Version 5.1
vtk output
ASCII
DATASET POLYDATA
POINTS 100 float
0.106558 0.051856 0.713364 0.106473 0.052091 0.713122 0.106302 0.0526011 0.712197 
0.106057 0.0533387 0.710606 0.105757 0.0542314 0.708375 0.10542 0.0551904 0.705533 
0.105063 0.056121 0.702104 0.104696 0.056933 0.698103 0.104314 0.0575515 0.693532 
0.1039 0.0579249 0.688375 0.103422 0.0580302 0.6826 0.102833 0.0578749 0.676162 
0.102074 0.0574955 0.669009 0.101078 0.0569515 0.661093 0.0997782 0.0563181 0.652372 
0.0981086 0.0556755 0.642828 0.0960138 0.0550991 0.632467 0.0934516 0.0546497 0.621324 
0.0903961 0.0543654 0.609469 0.086839 0.0542573 0.596998 0.0827892 0.0543074 0.584031 
0.0782709 0.0544712 0.570697 0.0733198 0.0546829 0.557128 0.0679794 0.0548636 0.543446 
0.0622968 0.0549311 0.529748 0.0563185 0.0548102 0.516104 0.0500872 0.0544428 0.502545 
0.0436399 0.0537949 0.489068 0.0370063 0.0528628 0.475637 0.030209 0.0516742 0.462187 
0.0232635 0.0502872 0.44864 0.0161796 0.0487853 0.43491 0.0089622 0.0472704 0.420915 
0.00161223 0.0458531 0.40659 -0.00587253 0.0446435 0.391893 -0.0134971 0.0437411 0.376803 
-0.0212686 0.0432269 0.361327 -0.0291962 0.0431572 0.345491 -0.0372892 0.0435601 0.329336 
-0.0455555 0.0444353 0.312903 -0.0539984 0.0457559 0.296232 -0.0626125 0.0474731 0.279344 
-0.0713792 0.0495221 0.262243 -0.0802611 0.0518294 0.244906 -0.0891972 0.0543192 0.227286 
-0.0980994 0.0569204 0.209317 -0.106851 0.0595703 0.190919 -0.115305 0.0622185 0.172007 
-0.123292 0.0648274 0.152504 -0.130625 0.0673717 0.132348 -0.137108 0.0698359 0.111503 
-0.14255 0.0722112 0.0899623 -0.14678 0.0744919 0.0677527 -0.149657 0.0766716 0.0449309 
-0.151086 0.0787408 0.0215807 -0.151022 0.0806846 -0.00219547 -0.149479 0.0824825 -0.0262847 
-0.14653 0.0841089 -0.0505731 -0.142297 0.0855345 -0.0749536 -0.136942 0.0867292 -0.0993323 
-0.130658 0.0876644 -0.123632 -0.123641 0.0883158 -0.147793 -0.116083 0.0886649 -0.171771 
-0.108146 0.0887007 -0.195531 -0.0999544 0.0884195 -0.219042 -0.0915844 0.0878238 -0.242274 
-0.0830596 0.0869212 -0.265188 -0.0743556 0.0857216 -0.287735 -0.0654093 0.0842348 -0.309853 
-0.0561327 0.0824686 -0.331471 -0.0464305 0.0804267 -0.35251 -0.036219 0.0781087 -0.372888 
-0.0254434 0.0755099 -0.392532 -0.0140921 0.0726236 -0.411376 -0.00220563 0.0694435 -0.429373 
0.0101202 0.065967 -0.446495 0.0227382 0.0621993 -0.462736 0.0354603 0.0581566 -0.478108 
0.0480722 0.0538695 -0.492635 0.0603528 0.0493842 -0.506352 0.0720932 0.0447637 -0.51929 
0.0831154 0.0400857 -0.531477 0.0932871 0.0354402 -0.542923 0.102532 0.0309247 -0.553625 
0.11083 0.0266384 -0.563562 0.118221 0.0226761 -0.572697 0.124786 0.019121 -0.580986 
0.130639 0.0160392 -0.588381 0.135907 0.0134742 -0.594846 0.140716 0.0114434 -0.600361 
0.145166 0.00993668 -0.604928 0.149328 0.00891717 -0.608584 0.15323 0.00832388 -0.611393 
0.156858 0.00807672 -0.613451 0.160157 0.00808305 -0.614874 0.163047 0.0082453 -0.615793 
0.16543 0.00846914 -0.616337 0.167209 0.00867146 -0.616626 0.168302 0.00878735 -0.616754 
0.168655 0.00877577 -0.616781 
LINES 2 100
OFFSETS vtktypeint64
0 100 
CONNECTIVITY vtktypeint64
0 1 2 3 4 5 6 7 8 
9 10 11 12 13 14 15 16 17 
18 19 20 21 22 23 24 25 26 
27 28 29 30 31 32 33 34 35 
36 37 38 39 40 41 42 43 44 
45 46 47 48 49 50 51 52 53 
54 55 56 57 58 59 60 61 62 
63 64 65 66 67 68 69 70 71 
72 73 74 75 76 77 78 79 80 
81 82 83 84 85 86 87 88 89 
90 91 92 93 94 95 96 97 98 
99 
POINT_DATA 100
FIELD FieldData 3
_theta 1 100 double
0 0.031733259127 0.063466518254 0.095199777382 0.12693303651 0.15866629564 0.19039955476 0.22213281389 0.25386607302 
0.28559933214 0.31733259127 0.3490658504 0.38079910953 0.41253236865 0.44426562778 0.47599888691 0.50773214603 0.53946540516 
0.57119866429 0.60293192342 0.63466518254 0.66639844167 0.6981317008 0.72986495992 0.76159821905 0.79333147818 0.82506473731 
0.85679799643 0.88853125556 0.92026451469 0.95199777382 0.98373103294 1.0154642921 1.0471975512 1.0789308103 1.1106640695 
1.1423973286 1.1741305877 1.2058638468 1.237597106 1.2693303651 1.3010636242 1.3327968833 1.3645301425 1.3962634016 
1.4279966607 1.4597299198 1.491463179 1.5231964381 1.5549296972 1.5866629564 1.6183962155 1.6501294746 1.6818627337 
1.7135959929 1.745329252 1.7770625111 1.8087957702 1.8405290294 1.8722622885 1.9039955476 1.9357288068 1.9674620659 
1.999195325 2.0309285841 2.0626618433 2.0943951024 2.1261283615 2.1578616206 2.1895948798 2.2213281389 2.253061398 
2.2847946572 2.3165279163 2.3482611754 2.3799944345 2.4117276937 2.4434609528 2.4751942119 2.506927471 2.5386607302 
2.5703939893 2.6021272484 2.6338605076 2.6655937667 2.6973270258 2.7290602849 2.7607935441 2.7925268032 2.8242600623 
2.8559933214 2.8877265806 2.9194598397 2.9511930988 2.982926358 3.0146596171 3.0463928762 3.0781261353 3.1098593945 
3.1415926536 
_radius 1 100 double
1.1123893155e-16 0.013164925858 0.026402161784 0.039753977301 0.05322658567 0.066781349598 0.080333729939 0.093759527468 0.10690703808 
0.11961325387 0.13172198237 0.14310160347 0.15366016458 0.16335573618 0.17220049824 0.18025788783 0.18763317522 0.19445883746 
0.20087684436 0.20702030977 0.21299686433 0.21887570201 0.22467974677 0.23038390623 0.23591985895 0.24118708304 0.24606883071 
0.25045071495 0.25423888612 0.25737469633 0.25984327266 0.26167439817 0.26293539847 0.26371722128 0.26411629838 0.264215676 
0.26406894718 0.26368969682 0.2630478445 0.26207299508 0.26066406643 0.25870404288 0.25607839372 0.25269523671 0.24850476541 
0.24351510713 0.23780194099 0.23150994534 0.22484525735 0.21805930327 0.21142542706 0.20521081186 0.19964747051 0.19490741785 
0.19108758167 0.18820817066 0.18622371546 0.18504092408 0.18453550261 0.18456297459 0.18496420625 0.18557079514 0.18621585378 
0.18675189455 0.18707212976 0.18712823107 0.18693828139 0.18658210526 0.18618492817 0.1858928729 0.18584501646 0.18614705092 
0.18685123528 0.18794611098 0.18935725721 0.19095768209 0.19258431193 0.19405625294 0.19519108089 0.19581681705 0.19577886274 
0.1949425763 0.1931931394 0.19043467328 0.18659009154 0.1816020741 0.1754343906 0.1680722415 0.15952058187 0.14980031701 
0.13894334323 0.12698818004 0.11397806647 0.099962772883 0.08500418994 0.069184389547 0.052613755759 0.035436331746 0.01782995126 
9.795315049e-16 
_area 1 100 double
0 0.00049382055923 0.0019875102612 0.0045104302838 0.008089767357 0.012726207462 0.018373150441 0.024926308513 0.032226375362 
0.040072827409 0.048243951497 0.056518001986 0.064692324177 0.072599420576 0.080119770452 0.087190802476 0.093810805504 0.10003647921 
0.10597328504 0.111758474 0.11753761726 0.12343715617 0.12953812617 0.13585799781 0.1423461468 0.14889490624 0.15536484532 
0.16161831545 0.16754833783 0.17308749051 0.17819324838 0.18282670483 0.18694511028 0.19050881646 0.19348918584 0.19586813369 
0.19762826487 0.19873771191 0.19913689509 0.19873459325 0.19741720516 0.19507038893 0.19160797967 0.18699968441 0.18128836255 
0.17459124668 0.16708635678 0.15899225207 0.15055156373 0.14202375274 0.13368326433 0.12581215772 0.11867324316 0.11245323383 
0.10720519577 0.10286139218 0.099270831378 0.096268680791 0.093751352784 0.091660788413 0.089935969682 0.088466392342 0.087078632812 
0.085581635853 0.083838425867 0.081808979696 0.079549317792 0.077182451465 0.074861253507 0.072735808908 0.070929453931 0.069524160094 
0.068555089677 0.068013689809 0.067859078121 0.068036233431 0.068495723852 0.069205727421 0.070145826752 0.071274957496 0.072477735575 
0.073536711933 0.074172219732 0.074100562036 0.073073533368 0.070907652542 0.067508858477 0.062889132428 0.057170007624 0.050570899156 
0.043384392556 0.035943851176 0.028589819122 0.021640749536 0.015371535062 0.010001353811 0.0056909912994 0.0025484787347 0.00063984113203 
2.8870241051e-17 
