# vtk DataFile Version 5.1
vtk output
ASCII
DATASET POLYDATA
POINTS 100 float
0.152866 0.0726383 0.733869 0.15273 0.0727607 0.733456 0.152397 0.0729746 0.732047 
0.151877 0.0732746 0.729686 0.151191 0.0736522 0.726439 0.150361 0.074095 0.72239 
0.149409 0.0745868 0.717632 0.148354 0.0751066 0.712257 0.147209 0.0756293 0.706347 
0.145975 0.0761256 0.699966 0.144646 0.076563 0.69316 0.143199 0.0769068 0.685947 
0.141603 0.0771224 0.678325 0.139815 0.0771765 0.670272 0.137783 0.0770399 0.661754 
0.135453 0.0766889 0.652728 0.132765 0.0761074 0.643158 0.129665 0.075288 0.633014 
0.126099 0.0742326 0.622281 0.122025 0.0729527 0.610964 0.117408 0.071468 0.599088 
0.112226 0.0698058 0.586698 0.106469 0.0679991 0.57385 0.100142 0.0660842 0.560615 
0.0932622 0.0640989 0.547063 0.0858621 0.0620804 0.533261 0.0779862 0.0600637 0.519267 
0.0696905 0.0580803 0.505124 0.0610407 0.0561574 0.490856 0.0521091 0.0543179 0.476469 
0.0429719 0.0525806 0.46195 0.0337054 0.0509607 0.447269 0.0243816 0.0494708 0.432386 
0.0150645 0.0481219 0.417251 0.00580671 0.0469239 0.40181 -0.00335397 0.0458866 0.386012 
-0.0123956 0.0450199 0.369805 -0.0213119 0.0443342 0.353145 -0.0301107 0.0438395 0.33599 
-0.0388093 0.0435458 0.318304 -0.0474289 0.0434618 0.300054 -0.0559876 0.0435949 0.28121 
-0.0644925 0.0439501 0.261741 -0.0729319 0.0445296 0.241619 -0.0812697 0.0453328 0.220817 
-0.0894401 0.0463555 0.199311 -0.0973473 0.0475903 0.177085 -0.104867 0.0490263 0.15413 
-0.111853 0.0506492 0.130454 -0.118145 0.0524413 0.10608 -0.123582 0.0543812 0.0810519 
-0.128014 0.0564442 0.0554329 -0.131316 0.0586014 0.0293077 -0.133403 0.0608201 0.00277875 
-0.134235 0.0630637 -0.0240376 -0.133822 0.0652915 -0.0510166 -0.132228 0.0674598 -0.0780314 
-0.129565 0.0695219 -0.10496 -0.12598 0.0714303 -0.13169 -0.121643 0.0731372 -0.158128 
-0.11673 0.0745971 -0.184198 -0.111404 0.0757682 -0.209846 -0.1058 0.0766145 -0.235038 
-0.100011 0.0771075 -0.259761 -0.0940793 0.0772272 -0.284015 -0.0879958 0.076963 -0.307807 
-0.0817018 0.0763134 -0.331151 -0.0751006 0.0752859 -0.354055 -0.0680733 0.073895 -0.376522 
-0.060497 0.0721612 -0.398542 -0.0522657 0.0701084 -0.420092 -0.0433088 0.0677621 -0.441137 
-0.0336065 0.0651476 -0.461627 -0.0231995 0.0622883 -0.481504 -0.0121919 0.059205 -0.500704 
-0.000745939 0.0559157 -0.51916 0.0109293 0.0524364 -0.53681 0.0225966 0.048782 -0.553598 
0.0340116 0.0449681 -0.569478 0.0449471 0.041013 -0.584416 0.0552141 0.0369391 -0.598392 
0.0646802 0.0327746 -0.611398 0.0732812 0.0285542 -0.62344 0.0810246 0.0243193 -0.634532 
0.0879858 0.0201167 -0.644699 0.0942952 0.0159976 -0.653969 0.100119 0.0120144 -0.662377 
0.105637 0.008219 -0.669958 0.111017 0.00465885 -0.676751 0.11639 0.00137486 -0.682791 
0.121834 -0.00160101 -0.688116 0.127358 -0.00424715 -0.692762 0.132903 -0.0065527 -0.696761 
0.13834 -0.00851699 -0.700147 0.143486 -0.0101479 -0.702951 0.148125 -0.0114596 -0.705198 
0.152032 -0.0124695 -0.706914 0.154995 -0.0131952 -0.708118 0.156842 -0.0136517 -0.708823 
0.157464 -0.0138489 -0.709039 
LINES 2 100
OFFSETS vtktypeint64
0 100 
CONNECTIVITY vtktypeint64
0 1 2 3 4 5 6 7 8 
9 10 11 12 13 14 15 16 17 
18 19 20 21 22 23 24 25 26 
27 28 29 30 31 32 33 34 35 
36 37 38 39 40 41 42 43 44 
45 46 47 48 49 50 51 52 53 
54 55 56 57 58 59 60 61 62 
63 64 65 66 67 68 69 70 71 
72 73 74 75 76 77 78 79 80 
81 82 83 84 85 86 87 88 89 
90 91 92 93 94 95 96 97 98 
99 
POINT_DATA 100
FIELD FieldData 3
_theta 1 100 double
0 0.031733259127 0.063466518254 0.095199777382 0.12693303651 0.15866629564 0.19039955476 0.22213281389 0.25386607302 
0.28559933214 0.31733259127 0.3490658504 0.38079910953 0.41253236865 0.44426562778 0.47599888691 0.50773214603 0.53946540516 
0.57119866429 0.60293192342 0.63466518254 0.66639844167 0.6981317008 0.72986495992 0.76159821905 0.79333147818 0.82506473731 
0.85679799643 0.88853125556 0.92026451469 0.95199777382 0.98373103294 1.0154642921 1.0471975512 1.0789308103 1.1106640695 
1.1423973286 1.1741305877 1.2058638468 1.237597106 1.2693303651 1.3010636242 1.3327968833 1.3645301425 1.3962634016 
1.4279966607 1.4597299198 1.491463179 1.5231964381 1.5549296972 1.5866629564 1.6183962155 1.6501294746 1.6818627337 
1.7135959929 1.745329252 1.7770625111 1.8087957702 1.8405290294 1.8722622885 1.9039955476 1.9357288068 1.9674620659 
1.999195325 2.0309285841 2.0626618433 2.0943951024 2.1261283615 2.1578616206 2.1895948798 2.2213281389 2.253061398 
2.2847946572 2.3165279163 2.3482611754 2.3799944345 2.4117276937 2.4434609528 2.4751942119 2.506927471 2.5386607302 
2.5703939893 2.6021272484 2.6338605076 2.6655937667 2.6973270258 2.7290602849 2.7607935441 2.7925268032 2.8242600623 
2.8559933214 2.8877265806 2.9194598397 2.9511930988 2.982926358 3.0146596171 3.0463928762 3.0781261353 3.1098593945 
3.1415926536 
_radius 1 100 double
2.7476618027e-16 0.013770236517 0.02745074204 0.04094507769 0.054163865523 0.067028794416 0.079476132843 0.091459173459 0.10294897349 
0.11393289604 0.12441082269 0.13438944296 0.14387559297 0.15287001211 0.16136292027 0.16933243411 0.17674616323 0.18356557612 
0.18975210062 0.19527359997 0.20010996619 0.20425706121 0.20772886248 0.21055810447 0.21279574811 0.2145092979 0.21577958481 
0.21669547588 0.2173462761 0.21781232498 0.21815517099 0.21840930453 0.21857737729 0.21863005922 0.21851050997 0.21814243917 
0.21744033645 0.21632066643 0.21471324264 0.21257216373 0.20988544931 0.20668202773 0.20303436297 0.19905510925 0.19488696496 
0.19068639584 0.18660390987 0.18276552083 0.17926087903 0.17614211284 0.17343348195 0.171147052 0.16929648492 0.16790171528 
0.16698165611 0.1665380413 0.16653811049 0.1669047332 0.16751930093 0.16823713044 0.16891026809 0.16941068879 0.16964807923 
0.16957925084 0.16920909977 0.16858493865 0.16778675112 0.16691575673 0.16608306398 0.16539943961 0.16496644288 0.16486853995 
0.16516569755 0.16588651475 0.16702271375 0.16852601451 0.17030782641 0.17224132903 0.17416510591 0.17588786818 0.17719471429 
0.17785613688 0.17764087968 0.17633253673 0.17374801351 0.1697545937 0.16428206832 0.15732723555 0.14894966321 0.13925943071 
0.12839925865 0.11652469969 0.10378659815 0.090319515913 0.076238154125 0.061641333595 0.046620726454 0.031270269085 0.015692533624 
7.4583229182e-16 
_area 1 100 double
0 0.00050219488482 0.0019846084181 0.0043793318516 0.0075871209588 0.011493989924 0.015987599662 0.020969631609 0.026361748249 
0.032104515457 0.038150633393 0.044455639363 0.050969882266 0.057633772605 0.064374679735 0.071102252731 0.077702794873 0.08403919328 
0.089962839306 0.095336637076 0.10006090114 0.10409273455 0.10745377383 0.11022664257 0.11254307797 0.11456535525 0.11646014474 
0.11836578218 0.12036160005 0.12245228418 0.12457310709 0.1266118182 0.12843937605 0.12994092806 0.13103610546 0.13167659914 
0.13181905548 0.13139925005 0.1303386035 0.12857115612 0.12606574488 0.12283726569 0.11894942615 0.11451353384 0.10968647797 
0.10466523902 0.099674759733 0.09495972954 0.090918437487 0.087729507962 0.085006072683 0.082560880809 0.080337623246 0.078315467949 
0.07650407189 0.074924107885 0.07357532122 0.072408913419 0.07132713666 0.070213647219 0.068965225139 0.067510643587 0.065835538413 
0.064011564664 0.062187507576 0.060512660839 0.059054227275 0.057811215887 0.056768074517 0.055920249812 0.055297328242 0.054955661592 
0.054983090337 0.055477076567 0.056484330868 0.057977766517 0.059854851365 0.061959605724 0.064101767329 0.066073834848 0.067666507595 
0.068680706073 0.06893627691 0.068280062824 0.06659616417 0.063819888361 0.059954256451 0.055083849602 0.049378609576 0.043081928327 
0.036482706077 0.029878416831 0.023540931707 0.017695239004 0.012514253246 0.0081254042066 0.0046215566128 0.0020704673927 0.00052012667598 
7.2966385969e-17 
