# vtk DataFile Version 5.1
vtk output
ASCII
DATASET POLYDATA
POINTS 100 float
0.215087 0.0497592 0.810506 0.214631 0.0499026 0.810342 0.213304 0.0501749 0.809707 
0.21118 0.0505685 0.808584 0.208372 0.051074 0.806948 0.205017 0.0516807 0.804764 
0.201259 0.0523782 0.801991 0.19723 0.0531572 0.798581 0.193033 0.0540101 0.794484 
0.18873 0.054931 0.789648 0.184338 0.0559146 0.784028 0.179829 0.0569546 0.777584 
0.175133 0.058042 0.770293 0.170155 0.0591629 0.762146 0.164787 0.0602963 0.753157 
0.158927 0.0614128 0.743361 0.152493 0.0624738 0.732816 0.145438 0.0634327 0.7216 
0.137755 0.0642363 0.709806 0.129478 0.0648282 0.697537 0.120681 0.0651528 0.684896 
0.111467 0.0651604 0.671978 0.101955 0.0648117 0.658866 0.0922658 0.0640826 0.645619 
0.0825098 0.0629677 0.632269 0.0727756 0.0614822 0.618819 0.0631236 0.0596624 0.605246 
0.0535844 0.0575641 0.591499 0.0441623 0.0552588 0.577511 0.0348429 0.0528293 0.563204 
0.025603 0.0503636 0.548496 0.0164214 0.0479479 0.533317 0.00728874 0.0456613 0.517605 
-0.00178621 0.0435701 0.50132 -0.0107744 0.0417241 0.484443 -0.0196293 0.0401547 0.466974 
-0.0282935 0.0388754 0.448931 -0.0367095 0.0378836 0.430339 -0.0448316 0.0371648 0.411226 
-0.0526369 0.0366969 0.391614 -0.0601336 0.0364568 0.371507 -0.0673645 0.0364245 0.350892 
-0.0744047 0.0365882 0.329731 -0.0813528 0.0369473 0.307962 -0.0883161 0.0375128 0.285506 
-0.0953925 0.038307 0.26227 -0.102651 0.0393605 0.23816 -0.11011 0.0407072 0.213091 
-0.117729 0.0423795 0.186999 -0.125394 0.0444018 0.159851 -0.132923 0.0467853 0.131653 
-0.140072 0.0495232 0.102455 -0.14656 0.0525878 0.0723516 -0.152088 0.0559299 0.0414779 
-0.156374 0.0594798 0.0100036 -0.159182 0.0631507 -0.0218786 -0.16035 0.066844 -0.0539643 
-0.159809 0.0704558 -0.0860512 -0.157596 0.0738835 -0.117951 -0.153855 0.0770329 -0.1495 
-0.148822 0.0798242 -0.180566 -0.142802 0.082196 -0.211053 -0.136141 0.0841081 -0.240904 
-0.129186 0.0855423 -0.270094 -0.122253 0.0865 -0.298626 -0.115591 0.0869992 -0.326524 
-0.109361 0.0870699 -0.353822 -0.10362 0.086748 -0.380559 -0.0983195 0.0860699 -0.406767 
-0.0933207 0.0850675 -0.432467 -0.0884136 0.0837643 -0.457667 -0.0833495 0.0821727 -0.482354 
-0.0778757 0.0802939 -0.506505 -0.0717708 0.078119 -0.530078 -0.0648753 0.0756317 -0.553023 
-0.0571142 0.0728129 -0.575285 -0.0485088 0.0696455 -0.596804 -0.039176 0.0661195 -0.617523 
-0.0293167 0.0622366 -0.637387 -0.0191938 0.0580141 -0.656344 -0.00910338 0.053487 -0.674349 
0.000657186 0.0487084 -0.69136 0.00981969 0.0437485 -0.70734 0.0181711 0.0386914 -0.722255 
0.0255714 0.0336308 -0.736074 0.0319615 0.028664 -0.748773 0.0373613 0.0238867 -0.760333 
0.0418574 0.0193864 -0.770744 0.0455845 0.0152374 -0.780009 0.0487015 0.0114964 -0.788143 
0.0513675 0.00820022 -0.795178 0.05372 0.00536434 -0.801159 0.0558584 0.00298417 -0.80615 
0.0578354 0.00103753 -0.810225 0.059656 -0.000511248 -0.813468 0.0612847 -0.00170619 -0.815964 
0.0626581 -0.00259397 -0.817795 0.0637019 -0.00321818 -0.819036 0.0643479 -0.00361414 -0.819742 
0.064549 -0.00380472 -0.819951 
LINES 2 100
OFFSETS vtktypeint64
0 100 
CONNECTIVITY vtktypeint64
0 1 2 3 4 5 6 7 8 
9 10 11 12 13 14 15 16 17 
18 19 20 21 22 23 24 25 26 
27 28 29 30 31 32 33 34 35 
36 37 38 39 40 41 42 43 44 
45 46 47 48 49 50 51 52 53 
54 55 56 57 58 59 60 61 62 
63 64 65 66 67 68 69 70 71 
72 73 74 75 76 77 78 79 80 
81 82 83 84 85 86 87 88 89 
90 91 92 93 94 95 96 97 98 
99 
POINT_DATA 100
FIELD FieldData 3
_theta 1 100 double
0 0.031733259127 0.063466518254 0.095199777382 0.12693303651 0.15866629564 0.19039955476 0.22213281389 0.25386607302 
0.28559933214 0.31733259127 0.3490658504 0.38079910953 0.41253236865 0.44426562778 0.47599888691 0.50773214603 0.53946540516 
0.57119866429 0.60293192342 0.63466518254 0.66639844167 0.6981317008 0.72986495992 0.76159821905 0.79333147818 0.82506473731 
0.85679799643 0.88853125556 0.92026451469 0.95199777382 0.98373103294 1.0154642921 1.0471975512 1.0789308103 1.1106640695 
1.1423973286 1.1741305877 1.2058638468 1.237597106 1.2693303651 1.3010636242 1.3327968833 1.3645301425 1.3962634016 
1.4279966607 1.4597299198 1.491463179 1.5231964381 1.5549296972 1.5866629564 1.6183962155 1.6501294746 1.6818627337 
1.7135959929 1.745329252 1.7770625111 1.8087957702 1.8405290294 1.8722622885 1.9039955476 1.9357288068 1.9674620659 
1.999195325 2.0309285841 2.0626618433 2.0943951024 2.1261283615 2.1578616206 2.1895948798 2.2213281389 2.253061398 
2.2847946572 2.3165279163 2.3482611754 2.3799944345 2.4117276937 2.4434609528 2.4751942119 2.506927471 2.5386607302 
2.5703939893 2.6021272484 2.6338605076 2.6655937667 2.6973270258 2.7290602849 2.7607935441 2.7925268032 2.8242600623 
2.8559933214 2.8877265806 2.9194598397 2.9511930988 2.982926358 3.0146596171 3.0463928762 3.0781261353 3.1098593945 
3.1415926536 
_radius 1 100 double
1.2827761085e-15 0.018331628671 0.036443837409 0.054128412943 0.071203924068 0.087525876705 0.10299305365 0.11754944042 0.13118161597 
0.14391199979 0.15578888312 0.16687468368 0.17723424432 0.18692506654 0.19599093998 0.20445947183 0.21234286671 0.21964054583 
0.22634221851 0.23243068561 0.23788445588 0.24268076012 0.24679962146 0.25022934771 0.25297325149 0.25505667124 0.25653260438 
0.25748373012 0.25801864867 0.25826115161 0.25833334675 0.25833593836 0.25833063413 0.2583292933 0.25829209961 0.25813420333 
0.25773843541 0.25697124274 0.25569939577 0.2538056381 0.25120195539 0.2478395017 0.24371454217 0.23887016822 0.2333940564 
0.22741306912 0.22108580004 0.21459402466 0.20813344302 0.20190349135 0.19609592894 0.19088265077 0.18640434204 0.18276228728 
0.18001511495 0.17818047295 0.17723944468 0.17714030643 0.17779908432 0.17909707858 0.18087833177 0.1829510218 0.18509568885 
0.18708123727 0.18868755423 0.18973128499 0.19008940235 0.18971513499 0.18864296281 0.18698245681 0.18490318351 0.18261405715 
0.1803405252 0.17830218256 0.17669219698 0.17565869869 0.17528758781 0.17558668946 0.17647307956 0.17776772027 0.17920209885 
0.18043887564 0.18110390536 0.18082354756 0.17926071377 0.17614479912 0.17129280151 0.16462057448 0.15614420529 0.14597221442 
0.13428985833 0.12133737221 0.10738449118 0.092703963085 0.077546926944 0.062122911103 0.046586764673 0.031034076139 0.015505599079 
1.0140972966e-15 
_area 1 100 double
0 0.00080373673378 0.0031662013446 0.006948687788 0.011943368869 0.017902810909 0.024572203646 0.031718709705 0.039153751362 
0.046745613409 0.054420984779 0.062155285314 0.069953496805 0.077825871616 0.085765203426 0.093732361689 0.10165362607 0.10942868038 
0.11694487249 0.12409279991 0.1307793303 0.13693556128 0.14251909873 0.14751253738 0.15192219127 0.15578129749 0.15915810705 
0.16216214511 0.16493829822 0.16764423095 0.17041685707 0.17333826123 0.17640935791 0.17953620853 0.18253197629 0.18513592957 
0.18704798228 0.18797317338 0.18766720958 0.18597329201 0.18283867668 0.17829456357 0.1724270023 0.16539225951 0.15742942123 
0.14884405405 0.13998246102 0.13120442006 0.122853746 0.11522675564 0.10854128933 0.10291097887 0.098332132837 0.094693790473 
0.091820113296 0.089541408787 0.087761324957 0.086454538395 0.085581974021 0.085064501729 0.084820632547 0.084767929348 0.084803117026 
0.084790528522 0.084570453776 0.083991479683 0.082952912622 0.081440802818 0.079533335869 0.077376189427 0.0751435832 0.073001655556 
0.071089422768 0.069519515897 0.068389222902 0.067787306316 0.067784441372 0.068409133765 0.069624502901 0.071313239292 0.073269509013 
0.075202776419 0.076759367852 0.077560734993 0.077252348528 0.07555532146 0.07231183309 0.06751520063 0.061317589895 0.054013004713 
0.045998741484 0.037723142625 0.029630100218 0.02211085835 0.015471332322 0.0099191206471 0.0055697707401 0.0024678049071 0.00061531650887 
2.94974726e-17 
