# vtk DataFile Version 5.1
vtk output
ASCII
DATASET POLYDATA
POINTS 100 float
0.161554 0.0581569 0.703469 0.161705 0.0582453 0.703481 0.162202 0.0583528 0.703356 
0.162954 0.0584919 0.70305 0.163817 0.0586802 0.70249 0.164616 0.0589367 0.701586 
0.165162 0.0592762 0.700232 0.165272 0.0597052 0.698319 0.164788 0.0602172 0.695742 
0.163593 0.0607907 0.692411 0.161617 0.0613884 0.688253 0.158844 0.0619593 0.683223 
0.1553 0.0624421 0.677305 0.151049 0.0627709 0.670512 0.146173 0.0628814 0.662886 
0.140762 0.0627179 0.65449 0.134895 0.0622391 0.645406 0.128629 0.0614229 0.635723 
0.121991 0.0602688 0.62553 0.114982 0.0587987 0.614909 0.107576 0.0570552 0.603926 
0.0997328 0.0550975 0.592625 0.0914125 0.0529965 0.581026 0.0825883 0.0508287 0.569123 
0.0732607 0.0486708 0.556889 0.0634665 0.0465941 0.544275 0.0532836 0.0446611 0.531225 
0.0428284 0.0429232 0.517673 0.0322472 0.0414203 0.503562 0.021702 0.0401819 0.488842 
0.0113526 0.0392289 0.473481 0.00133743 0.0385768 0.45747 -0.0082438 0.0382377 0.440818 
-0.0173438 0.0382221 0.423555 -0.0259745 0.0385399 0.405727 -0.0342063 0.0391995 0.387387 
-0.0421591 0.0402063 0.36859 -0.049986 0.0415597 0.349381 -0.057851 0.0432504 0.329791 
-0.0659038 0.0452573 0.30983 -0.0742551 0.047546 0.28948 -0.0829544 0.0500684 0.2687 
-0.0919741 0.052764 0.247426 -0.101203 0.0555634 0.225576 -0.110447 0.0583931 0.203062 
-0.119442 0.0611821 0.179798 -0.127876 0.0638678 0.155712 -0.135411 0.0664025 0.13076 
-0.141718 0.0687576 0.104927 -0.146502 0.0709264 0.0782424 -0.149533 0.0729241 0.0507773 
-0.150664 0.0747844 0.0226447 -0.149842 0.0765543 -0.00600529 -0.14711 0.0782867 -0.0349941 
-0.142604 0.0800315 -0.064126 -0.13653 0.0818271 -0.0932008 -0.129148 0.0836926 -0.122027 
-0.120744 0.0856229 -0.150434 -0.111602 0.0875855 -0.17828 -0.101986 0.089522 -0.205464 
-0.0921156 0.0913519 -0.231921 -0.0821567 0.0929799 -0.257629 -0.072217 0.0943051 -0.2826 
-0.0623476 0.0952311 -0.306874 -0.0525521 0.0956758 -0.330508 -0.0428 0.0955797 -0.353569 
-0.0330416 0.0949112 -0.376119 -0.0232241 0.0936693 -0.398208 -0.0133039 0.0918816 -0.41987 
-0.00325737 0.0896001 -0.441111 0.00691455 0.086893 -0.461915 0.0171854 0.0838363 -0.482242 
0.0275068 0.0805033 -0.502035 0.0378144 0.0769569 -0.521222 0.0480364 0.0732422 -0.539727 
0.0581004 0.0693837 -0.557479 0.0679407 0.0653853 -0.574413 0.0775016 0.0612335 -0.590483 
0.0867383 0.0569046 -0.60566 0.0956154 0.0523731 -0.619936 0.104103 0.0476213 -0.633326 
0.112171 0.0426476 -0.64586 0.119783 0.0374744 -0.657581 0.126898 0.0321509 -0.668542 
0.133461 0.0267536 -0.678798 0.139411 0.0213827 -0.688401 0.144685 0.016154 -0.697397 
0.149223 0.0111895 -0.705818 0.15298 0.00660537 -0.713686 0.155932 0.00250064 -0.721007 
0.158089 -0.00105263 -0.727775 0.159494 -0.00401636 -0.733971 0.16023 -0.00638954 -0.739567 
0.160412 -0.00820681 -0.744528 0.160183 -0.00953289 -0.748816 0.159701 -0.0104532 -0.752392 
0.159125 -0.0110622 -0.755221 0.158598 -0.0114505 -0.757271 0.158235 -0.0116924 -0.758518 
0.158109 -0.0118365 -0.758947 
LINES 2 100
OFFSETS vtktypeint64
0 100 
CONNECTIVITY vtktypeint64
0 1 2 3 4 5 6 7 8 
9 10 11 12 13 14 15 16 17 
18 19 20 21 22 23 24 25 26 
27 28 29 30 31 32 33 34 35 
36 37 38 39 40 41 42 43 44 
45 46 47 48 49 50 51 52 53 
54 55 56 57 58 59 60 61 62 
63 64 65 66 67 68 69 70 71 
72 73 74 75 76 77 78 79 80 
81 82 83 84 85 86 87 88 89 
90 91 92 93 94 95 96 97 98 
99 
POINT_DATA 100
FIELD FieldData 3
_theta 1 100 double
0 0.031733259127 0.063466518254 0.095199777382 0.12693303651 0.15866629564 0.19039955476 0.22213281389 0.25386607302 
0.28559933214 0.31733259127 0.3490658504 0.38079910953 0.41253236865 0.44426562778 0.47599888691 0.50773214603 0.53946540516 
0.57119866429 0.60293192342 0.63466518254 0.66639844167 0.6981317008 0.72986495992 0.76159821905 0.79333147818 0.82506473731 
0.85679799643 0.88853125556 0.92026451469 0.95199777382 0.98373103294 1.0154642921 1.0471975512 1.0789308103 1.1106640695 
1.1423973286 1.1741305877 1.2058638468 1.237597106 1.2693303651 1.3010636242 1.3327968833 1.3645301425 1.3962634016 
1.4279966607 1.4597299198 1.491463179 1.5231964381 1.5549296972 1.5866629564 1.6183962155 1.6501294746 1.6818627337 
1.7135959929 1.745329252 1.7770625111 1.8087957702 1.8405290294 1.8722622885 1.9039955476 1.9357288068 1.9674620659 
1.999195325 2.0309285841 2.0626618433 2.0943951024 2.1261283615 2.1578616206 2.1895948798 2.2213281389 2.253061398 
2.2847946572 2.3165279163 2.3482611754 2.3799944345 2.4117276937 2.4434609528 2.4751942119 2.506927471 2.5386607302 
2.5703939893 2.6021272484 2.6338605076 2.6655937667 2.6973270258 2.7290602849 2.7607935441 2.7925268032 2.8242600623 
2.8559933214 2.8877265806 2.9194598397 2.9511930988 2.982926358 3.0146596171 3.0463928762 3.0781261353 3.1098593945 
3.1415926536 
_radius 1 100 double
1.4703252574e-16 0.015437455004 0.030835517235 0.046149100626 0.061336634333 0.076358677772 0.091174138592 0.10573548533 0.11998494458 
0.13385339541 0.1472626609 0.16013064067 0.17237777998 0.18393307353 0.19473818978 0.204749141 0.21393583743 0.22228048825 
0.22977595354 0.23642485316 0.24223971403 0.24724392416 0.25147290773 0.25497477911 0.25780975843 0.26004781683 0.26176435549 
0.26303417545 0.26392447193 0.26448793957 0.26475716824 0.264741301 0.26442550109 0.26377329898 0.26273151856 0.26123728149 
0.25922651684 0.25664335594 0.25344969262 0.24963404803 0.24521877999 0.2402646865 0.23487216941 0.2291783115 0.22334950306 
0.21756976098 0.21202574525 0.20689062592 0.20230997816 0.19839309394 0.195211823 0.19280618283 0.19119260445 0.19036902579 
0.19031288023 0.19097290164 0.19226067117 0.19404923006 0.19618233457 0.19849181286 0.200816752 0.20301890528 0.20499195831 
0.20666530396 0.20800424234 0.20900813166 0.20970692425 0.21015566607 0.21042629658 0.21059644056 0.21073593456 0.21089359471 
0.21108784451 0.21130324208 0.21149199248 0.21157847664 0.21146540303 0.21104051225 0.21018274125 0.20876709538 0.20666834499 
0.20376458874 0.19994203204 0.1951016813 0.18916739622 0.18209365177 0.17387103888 0.16452802112 0.15412839492 0.14276485441 
0.13054978935 0.11760487685 0.104051177 0.090001302422 0.075554768778 0.060796871088 0.045800538456 0.030629903569 0.015344082032 
8.6114323973e-16 
_area 1 100 double
0 0.00060429866702 0.0024163885344 0.0054313387772 0.0096330475702 0.014984348856 0.02141731028 0.028827429596 0.037074636248 
0.045991791736 0.055398669276 0.065117377722 0.074984806243 0.084859258523 0.094621366253 0.10417180076 0.11342854849 0.12232484101 
0.13080719907 0.13883295203 0.14636766334 0.15338370532 0.15986090337 0.16578883019 0.17116862809 0.17601139842 0.18033156078 
0.18413686683 0.18741960854 0.19015360883 0.19229857662 0.1938093131 0.19464451352 0.19476975688 0.19415171743 0.19274571788 
0.19048560605 0.18728763718 0.18307273132 0.17780048979 0.17150314097 0.16430809569 0.15644126243 0.14820880852 0.1399613722 
0.13204955899 0.12478045311 0.11838102576 0.11296633341 0.10849973304 0.10481482926 0.10173993953 0.099177592269 0.097113765333 
0.095587799494 0.094634994608 0.094233875188 0.094296472342 0.094699367272 0.095309891983 0.095977144078 0.096525269848 0.09678695862 
0.096639305215 0.096014768751 0.094901596025 0.093354619186 0.091512589488 0.089563136211 0.087656305978 0.085913824466 0.084455338568 
0.083365752593 0.082672768217 0.082351181124 0.082358746808 0.082667525086 0.083288790643 0.084252496865 0.085232183437 0.085976934187 
0.086263524351 0.08580608935 0.084338990763 0.081680498038 0.077760233218 0.072623546601 0.066419413024 0.059376649863 0.051774113752 
0.043910811861 0.036080674739 0.028554595957 0.021570242002 0.015328638182 0.0099955455759 0.0057049881672 0.0025622499309 0.00064463292818 
7.3725747729e-18 
