# vtk DataFile Version 5.1
vtk output
ASCII
DATASET POLYDATA
POINTS 100 float
0.15824 0.0508046 0.687474 0.158259 0.0509925 0.687433 0.158381 0.0514346 0.687126 
0.158575 0.0521112 0.686506 0.158786 0.0529911 0.685499 0.158942 0.0540321 0.684015 
0.15896 0.0551826 0.681951 0.158752 0.056384 0.679206 0.158224 0.0575725 0.675687 
0.15729 0.0586825 0.671321 0.155869 0.0596502 0.666059 0.153892 0.0604169 0.65988 
0.151305 0.0609332 0.652797 0.148066 0.0611619 0.644852 0.144152 0.0610809 0.636113 
0.139553 0.0606847 0.626669 0.134272 0.0599849 0.616619 0.12833 0.0590092 0.606069 
0.121754 0.0577988 0.595117 0.114589 0.0564057 0.58385 0.106884 0.0548877 0.572336 
0.0987018 0.0533041 0.560622 0.09011 0.0517113 0.548728 0.0811841 0.0501588 0.536653 
0.0720033 0.0486864 0.524372 0.0626486 0.0473229 0.511849 0.0531997 0.0460857 0.499031 
0.0437314 0.0449828 0.485866 0.0343104 0.0440151 0.472301 0.0249917 0.04318 0.45829 
0.0158162 0.0424748 0.443799 0.00680923 0.0419003 0.428803 -0.0020202 0.0414637 0.413294 
-0.0106775 0.0411796 0.397273 -0.0191799 0.0410704 0.380749 -0.0275518 0.0411649 0.363737 
-0.0358195 0.0414955 0.34625 -0.0440046 0.0420951 0.328299 -0.0521182 0.0429928 0.309885 
-0.0601554 0.0442099 0.291 -0.0680909 0.0457575 0.271624 -0.0758768 0.0476334 0.251724 
-0.0834426 0.0498222 0.231263 -0.0906974 0.0522955 0.210194 -0.0975341 0.0550138 0.188474 
-0.103836 0.0579303 0.166064 -0.109485 0.0609936 0.142937 -0.114366 0.0641518 0.119085 
-0.118381 0.0673555 0.0945185 -0.12145 0.0705601 0.0692758 -0.123517 0.0737266 0.0434201 
-0.124554 0.0768212 0.01704 -0.124562 0.079814 -0.00975295 -0.123566 0.0826766 -0.0368289 
-0.121614 0.0853795 -0.0640459 -0.118772 0.0878892 -0.0912566 -0.115115 0.0901668 -0.118316 
-0.110722 0.0921675 -0.145088 -0.105676 0.0938409 -0.171454 -0.100051 0.0951339 -0.197314 
-0.0939161 0.0959937 -0.222595 -0.0873332 0.0963726 -0.247249 -0.080356 0.0962321 -0.271252 
-0.0730339 0.0955472 -0.294606 -0.0654135 0.094309 -0.317327 -0.0575421 0.092526 -0.339445 
-0.04947 0.0902232 -0.360996 -0.0412522 0.0874389 -0.382013 -0.032949 0.0842197 -0.402521 
-0.0246253 0.0806147 -0.422534 -0.0163488 0.0766688 -0.442047 -0.00818712 0.0724164 -0.461038 
-0.000204805 0.0678767 -0.479469 0.00754002 0.0630515 -0.497283 0.0149982 0.0579251 -0.514417 
0.0221314 0.0524678 -0.530802 0.0289125 0.046642 -0.546371 0.0353249 0.0404105 -0.561068 
0.0413604 0.0337459 -0.574851 0.047017 0.0266406 -0.5877 0.0522949 0.0191149 -0.599619 
0.0571939 0.0112231 -0.610637 0.0617108 0.00305603 -0.620807 0.065838 -0.00526038 -0.6302 
0.0695632 -0.0135712 -0.638903 0.0728712 -0.021702 -0.647007 0.075746 -0.0294713 -0.654603 
0.0781748 -0.0367055 -0.661771 0.0801518 -0.0432526 -0.668572 0.0816823 -0.0489959 -0.675044 
0.0827855 -0.0538633 -0.681198 0.0834964 -0.0578332 -0.687015 0.0838656 -0.0609351 -0.692449 
0.0839576 -0.0632444 -0.697431 0.083847 -0.064873 -0.701873 0.0836131 -0.0659557 -0.705682 
0.0833334 -0.066634 -0.708763 0.0830774 -0.0670397 -0.71103 0.0829 -0.0672789 -0.712416 
0.0828368 -0.0674203 -0.712878 
LINES 2 100
OFFSETS vtktypeint64
0 100 
CONNECTIVITY vtktypeint64
0 1 2 3 4 5 6 7 8 
9 10 11 12 13 14 15 16 17 
18 19 20 21 22 23 24 25 26 
27 28 29 30 31 32 33 34 35 
36 37 38 39 40 41 42 43 44 
45 46 47 48 49 50 51 52 53 
54 55 56 57 58 59 60 61 62 
63 64 65 66 67 68 69 70 71 
72 73 74 75 76 77 78 79 80 
81 82 83 84 85 86 87 88 89 
90 91 92 93 94 95 96 97 98 
99 
POINT_DATA 100
FIELD FieldData 3
_theta 1 100 double
0 0.031733259127 0.063466518254 0.095199777382 0.12693303651 0.15866629564 0.19039955476 0.22213281389 0.25386607302 
0.28559933214 0.31733259127 0.3490658504 0.38079910953 0.41253236865 0.44426562778 0.47599888691 0.50773214603 0.53946540516 
0.57119866429 0.60293192342 0.63466518254 0.66639844167 0.6981317008 0.72986495992 0.76159821905 0.79333147818 0.82506473731 
0.85679799643 0.88853125556 0.92026451469 0.95199777382 0.98373103294 1.0154642921 1.0471975512 1.0789308103 1.1106640695 
1.1423973286 1.1741305877 1.2058638468 1.237597106 1.2693303651 1.3010636242 1.3327968833 1.3645301425 1.3962634016 
1.4279966607 1.4597299198 1.491463179 1.5231964381 1.5549296972 1.5866629564 1.6183962155 1.6501294746 1.6818627337 
1.7135959929 1.745329252 1.7770625111 1.8087957702 1.8405290294 1.8722622885 1.9039955476 1.9357288068 1.9674620659 
1.999195325 2.0309285841 2.0626618433 2.0943951024 2.1261283615 2.1578616206 2.1895948798 2.2213281389 2.253061398 
2.2847946572 2.3165279163 2.3482611754 2.3799944345 2.4117276937 2.4434609528 2.4751942119 2.506927471 2.5386607302 
2.5703939893 2.6021272484 2.6338605076 2.6655937667 2.6973270258 2.7290602849 2.7607935441 2.7925268032 2.8242600623 
2.8559933214 2.8877265806 2.9194598397 2.9511930988 2.982926358 3.0146596171 3.0463928762 3.0781261353 3.1098593945 
3.1415926536 
_radius 1 100 double
6.228406209e-16 0.015825853579 0.031465585191 0.04674649431 0.061524667648 0.075693976665 0.089189614682 0.10198602586 0.11409009384 
0.12553123083 0.13635033615 0.14658941938 0.15628314023 0.16545287227 0.17410340793 0.18222220896 0.18978111295 0.19674045845 
0.20305549909 0.20868464029 0.21359851222 0.21778840106 0.22127235388 0.22409750463 0.22633781038 0.22808725682 0.22944945203 
0.23052518264 0.23139984658 0.23213267977 0.23274938688 0.23323922765 0.2335568974 0.233628818 0.23336289397 0.2326604967 
0.23142939394 0.22959641545 0.22711872169 0.22399259463 0.22025876054 0.2160034573 0.21135481651 0.20647464188 0.20154628402 
0.1967599434 0.19229723 0.18831701474 0.18494441736 0.18226417664 0.18031873582 0.17911036748 0.17860589987 0.17874243113 
0.1794329063 0.18057126454 0.18203754731 0.18370360181 0.18543982325 0.18712287823 0.1886436912 0.18991442762 0.19087310986 
0.19148502786 0.19174106703 0.19165395879 0.19125376351 0.19058357043 0.18969583407 0.18864928977 0.18750603146 0.18632808561 
0.18517279756 0.18408665224 0.18309772165 0.18220760791 0.18138433528 0.1805579264 0.17962023027 0.1784299181 0.17682252693 
0.17462429311 0.17166770178 0.16780649229 0.16292825865 0.15696344391 0.14989013457 0.14173449406 0.13256698581 0.12249483016 
0.11165147647 0.10018422803 0.088241446103 0.075960871698 0.063460460838 0.050832714124 0.038142869858 0.025430676986 0.012714962209 
7.8598560251e-16 
_area 1 100 double
0 0.00060418606378 0.0023959428762 0.0053143325582 0.0092626722564 0.014115714985 0.019729044331 0.025949531244 0.032625394039 
0.039614618895 0.046791124304 0.05404870073 0.061303076141 0.068492396043 0.075576193641 0.082532816042 0.08935527649 0.09604538289 
0.1026056887 0.10902905384 0.11528758521 0.12132590642 0.12706445132 0.13241402308 0.1372961735 0.14166056621 0.14549216312 
0.14880568314 0.15162959725 0.15398534927 0.1558691278 0.15724323065 0.15804124266 0.1581857985 0.15761153195 0.15628229272 
0.15419414743 0.15136528582 0.14782430288 0.14360790778 0.1387695367 0.1333933471 0.12760629879 0.12158210898 0.11553353669 
0.10969253971 0.10428101764 0.099477742938 0.095389011038 0.092032531534 0.08934518944 0.087218114323 0.085548323838 0.084266969357 
0.083290342249 0.082557322669 0.082044750277 0.081764580361 0.081765592134 0.082107122865 0.082751117203 0.083486225721 0.084027977833 
0.084128792751 0.083637825861 0.082534027801 0.080927506827 0.079021020757 0.077032422957 0.075126638906 0.073408431811 0.071938736995 
0.070742261849 0.069828146113 0.069239153932 0.06908445393 0.069668018095 0.070881934206 0.072209672536 0.073391155566 0.074137710518 
0.074183181438 0.073324254373 0.071437988554 0.068486671322 0.064513564568 0.059631550763 0.05400737755 0.047844322001 0.041365461089 
0.034798832894 0.028364967874 0.022266776726 0.016681734537 0.011756609554 0.0076052519503 0.0043097551146 0.0019245821484 0.00048241306405 
4.4561547375e-17 
