# vtk DataFile Version 5.1
vtk output
ASCII
DATASET POLYDATA
POINTS 100 float
0.125279 0.0216355 0.65308 0.125353 0.0219964 0.652876 0.125649 0.0229715 0.652145 
0.126096 0.0244859 0.650907 0.126586 0.0264253 0.649194 0.126992 0.0286496 0.647038 
0.127184 0.0310092 0.644471 0.127045 0.0333625 0.641512 0.126489 0.0355911 0.638167 
0.125473 0.0376117 0.634422 0.123995 0.039383 0.630244 0.122098 0.0409066 0.625583 
0.119859 0.0422218 0.620373 0.117371 0.0433953 0.614545 0.114733 0.0445078 0.608032 
0.112025 0.0456378 0.600779 0.109298 0.0468477 0.592747 0.106558 0.0481709 0.583926 
0.103769 0.0496044 0.574332 0.100847 0.0511065 0.56401 0.0976763 0.0526011 0.553032 
0.094123 0.0539864 0.54149 0.0900515 0.0551488 0.529489 0.0853457 0.0559791 0.517139 
0.0799261 0.0563885 0.504546 0.073762 0.0563234 0.491802 0.0668772 0.0557761 0.478983 
0.0593489 0.0547892 0.466141 0.0512975 0.0534557 0.453306 0.0428714 0.0519108 0.440484 
0.0342267 0.0503197 0.427663 0.025506 0.0488614 0.414815 0.0168185 0.0477098 0.4019 
0.00822571 0.0470162 0.388874 -0.000266956 0.0468936 0.375685 -0.00870884 0.0474059 0.36228 
-0.0171946 0.0485627 0.348604 -0.0258463 0.05032 0.334597 -0.0347908 0.0525875 0.320193 
-0.0441325 0.0552402 0.305319 -0.053929 0.0581342 0.289891 -0.0641692 0.0611236 0.273819 
-0.0747596 0.0640761 0.257005 -0.0855202 0.0668873 0.239349 -0.0961903 0.069489 0.220758 
-0.106445 0.0718543 0.201154 -0.115922 0.0739948 0.18048 -0.12425 0.075955 0.158713 
-0.131083 0.077801 0.135869 -0.136136 0.0796075 0.112008 -0.139206 0.0814437 0.0872344 
-0.140197 0.0833613 0.0616953 -0.13912 0.0853839 0.0355723 -0.1361 0.0875021 0.00907081 
-0.131351 0.0896719 -0.0175931 -0.125161 0.0918186 -0.0442077 -0.117861 0.0938448 -0.0705802 
-0.109789 0.0956406 -0.0965495 -0.101263 0.0970965 -0.121996 -0.0925542 0.0981146 -0.146849 
-0.0838643 0.0986197 -0.171082 -0.0753186 0.098566 -0.194717 -0.0669638 0.0979408 -0.217807 
-0.058776 0.0967638 -0.240433 -0.0506772 0.0950824 -0.262682 -0.042555 0.0929639 -0.284641 
-0.0342853 0.0904853 -0.306376 -0.0257542 0.0877232 -0.327928 -0.0168748 0.0847437 -0.349304 
-0.00760052 0.0815943 -0.370473 0.00207034 0.0782991 -0.391371 0.0120952 0.0748574 -0.411905 
0.0223945 0.0712455 -0.431963 0.0328629 0.067422 -0.451423 0.0433826 0.0633357 -0.470165 
0.0538375 0.0589345 -0.488084 0.0641237 0.0541748 -0.505091 0.0741582 0.0490299 -0.521127 
0.0838821 0.0434966 -0.536158 0.0932596 0.0375991 -0.550179 0.102273 0.0313899 -0.563205 
0.110915 0.0249474 -0.575271 0.119182 0.0183717 -0.586421 0.127061 0.0117772 -0.596702 
0.134532 0.00528511 -0.60616 0.141556 -0.000985485 -0.614835 0.148086 -0.00692514 -0.622757 
0.154062 -0.0124409 -0.629949 0.159427 -0.0174611 -0.636427 0.164131 -0.0219381 -0.642205 
0.168141 -0.0258493 -0.647295 0.17145 -0.029195 -0.651713 0.174078 -0.0319958 -0.655482 
0.176077 -0.0342883 -0.658631 0.177522 -0.0361192 -0.661195 0.178507 -0.0375403 -0.663213 
0.179131 -0.0386026 -0.664727 0.179492 -0.0393514 -0.665773 0.179667 -0.0398223 -0.666382 
0.179709 -0.0400374 -0.666572 
LINES 2 100
OFFSETS vtktypeint64
0 100 
CONNECTIVITY vtktypeint64
0 1 2 3 4 5 6 7 8 
9 10 11 12 13 14 15 16 17 
18 19 20 21 22 23 24 25 26 
27 28 29 30 31 32 33 34 35 
36 37 38 39 40 41 42 43 44 
45 46 47 48 49 50 51 52 53 
54 55 56 57 58 59 60 61 62 
63 64 65 66 67 68 69 70 71 
72 73 74 75 76 77 78 79 80 
81 82 83 84 85 86 87 88 89 
90 91 92 93 94 95 96 97 98 
99 
POINT_DATA 100
FIELD FieldData 3
_theta 1 100 double
0 0.031733259127 0.063466518254 0.095199777382 0.12693303651 0.15866629564 0.19039955476 0.22213281389 0.25386607302 
0.28559933214 0.31733259127 0.3490658504 0.38079910953 0.41253236865 0.44426562778 0.47599888691 0.50773214603 0.53946540516 
0.57119866429 0.60293192342 0.63466518254 0.66639844167 0.6981317008 0.72986495992 0.76159821905 0.79333147818 0.82506473731 
0.85679799643 0.88853125556 0.92026451469 0.95199777382 0.98373103294 1.0154642921 1.0471975512 1.0789308103 1.1106640695 
1.1423973286 1.1741305877 1.2058638468 1.237597106 1.2693303651 1.3010636242 1.3327968833 1.3645301425 1.3962634016 
1.4279966607 1.4597299198 1.491463179 1.5231964381 1.5549296972 1.5866629564 1.6183962155 1.6501294746 1.6818627337 
1.7135959929 1.745329252 1.7770625111 1.8087957702 1.8405290294 1.8722622885 1.9039955476 1.9357288068 1.9674620659 
1.999195325 2.0309285841 2.0626618433 2.0943951024 2.1261283615 2.1578616206 2.1895948798 2.2213281389 2.253061398 
2.2847946572 2.3165279163 2.3482611754 2.3799944345 2.4117276937 2.4434609528 2.4751942119 2.506927471 2.5386607302 
2.5703939893 2.6021272484 2.6338605076 2.6655937667 2.6973270258 2.7290602849 2.7607935441 2.7925268032 2.8242600623 
2.8559933214 2.8877265806 2.9194598397 2.9511930988 2.982926358 3.0146596171 3.0463928762 3.0781261353 3.1098593945 
3.1415926536 
_radius 1 100 double
9.1561853672e-16 0.012505447612 0.02502056775 0.037549305327 0.050089128679 0.062625819068 0.075127541939 0.087540070936 0.099785237294 
0.11176390447 0.12336335326 0.13446753638 0.14496781903 0.15477186233 0.16380914354 0.17203285173 0.17941903598 0.18596448271 
0.1916846824 0.19661255686 0.20079776388 0.20430583509 0.20721639831 0.20962019246 0.21161514803 0.21330214084 0.21478100105 
0.21614697692 0.21748716351 0.2188756434 0.22036577598 0.22197888769 0.22369108068 0.22542325587 0.22704048607 0.22836305132 
0.22918600862 0.22930204959 0.22852359709 0.22670195985 0.22374269103 0.21961712466 0.21437046509 0.20812663843 0.20108928533 
0.19353695757 0.18580938733 0.17828178619 0.17132693177 0.16527057665 0.16035145062 0.15669755746 0.15432408621 0.15315007652 
0.15302626085 0.15376539116 0.15516674151 0.15702856205 0.15914812052 0.16131775425 0.16332958941 0.16499375917 0.16616204831 
0.16674551733 0.16672090954 0.1661268362 0.16505301271 0.16362576033 0.16199228614 0.16030546827 0.15871006753 0.15733057694 
0.15626058679 0.15555382625 0.15521785815 0.15521220795 0.1554526819 0.15582221526 0.15618610223 0.15640722953 0.1563565778 
0.15591633549 0.15497644687 0.153428448 0.15116132953 0.14806239645 0.14402314535 0.13894806717 0.13276370069 0.1254257355 
0.11692289126 0.10727732702 0.096542220581 0.084797693254 0.072146320857 0.058709116353 0.044622303248 0.030034687484 0.01510517313 
1.4189074917e-15 
_area 1 100 double
0 0.00030557416682 0.0012372148186 0.0028373038087 0.0051680687421 0.0082986719607 0.012288325821 0.017167324172 0.022918606441 
0.02946398583 0.036660034176 0.044307150764 0.052171433198 0.060014371074 0.067622578515 0.074830206043 0.081529797583 0.087671281942 
0.093251697756 0.098299445278 0.10285664461 0.1069625136 0.11064101666 0.11389793673 0.11673345796 0.11917159777 0.1212962446 
0.1232710419 0.12531716101 0.12764577994 0.13039016133 0.13359693262 0.13733971875 0.14157631955 0.14594328282 0.1498439546 
0.15280222857 0.15445398102 0.15455256256 0.15297283339 0.14970390442 0.14483428725 0.13853768742 0.13106623658 0.12274943324 
0.1139868624 0.10522109416 0.096888790701 0.089366472667 0.082934429638 0.077755496894 0.073835048692 0.07100824363 0.069028133651 
0.067656832022 0.066705715563 0.066050973322 0.065634978013 0.06545416434 0.065537375251 0.06591859699 0.06651056477 0.067011340645 
0.067134213281 0.0667454349 0.065843307699 0.064510798832 0.062865670327 0.06101484472 0.059030569007 0.056959614458 0.054849569941 
0.052771303326 0.050829751077 0.049153366371 0.047862998337 0.04705341779 0.046772429097 0.04699936407 0.04766480191 0.048618173386 
0.049786352499 0.050944635854 0.051751621743 0.051946535334 0.051338901543 0.04980650767 0.047303491388 0.043864635234 0.039601330352 
0.034689586177 0.029352737714 0.023842095936 0.018418280468 0.013334972136 0.0088257880838 0.0050941675195 0.0023057487252 0.00058273897741 
5.5964531309e-17 
