# vtk DataFile Version 5.1
vtk output
ASCII
DATASET POLYDATA
POINTS 100 float
0.123766 0.0605015 0.70299 0.123807 0.0605008 0.702822 0.124032 0.0603575 0.702125 
0.124421 0.0600983 0.700911 0.124942 0.0597644 0.699197 0.125549 0.0594082 0.696997 
0.126191 0.0590881 0.694319 0.126807 0.0588631 0.691156 0.127333 0.0587869 0.687485 
0.1277 0.0589028 0.683261 0.127841 0.0592387 0.678426 0.127689 0.0598038 0.67291 
0.127179 0.0605865 0.666644 0.126251 0.0615543 0.659566 0.124851 0.0626549 0.651636 
0.12293 0.06382 0.642844 0.120449 0.0649692 0.633216 0.117376 0.0660167 0.622815 
0.113693 0.0668767 0.611737 0.109391 0.0674709 0.600107 0.104478 0.0677339 0.58806 
0.0989756 0.0676187 0.575732 0.0929226 0.0671006 0.563243 0.0863727 0.0661785 0.55068 
0.0793941 0.0648757 0.538092 0.0720674 0.063237 0.525478 0.0644816 0.0613259 0.512796 
0.05673 0.0592184 0.499963 0.0489048 0.0569978 0.486871 0.0410914 0.0547471 0.4734 
0.0333634 0.0525439 0.459439 0.025777 0.0504538 0.444899 0.0183685 0.0485272 0.429731 
0.0111511 0.0467967 0.413929 0.00411611 0.0452767 0.397531 -0.00276564 0.0439649 0.380619 
-0.00953925 0.0428461 0.363302 -0.0162598 0.0418962 0.345701 -0.0229851 0.0410884 0.327927 
-0.0297675 0.0403982 0.310067 -0.0366461 0.039809 0.292165 -0.0436397 0.0393161 0.274212 
-0.0507416 0.0389294 0.256141 -0.0579159 0.038674 0.237837 -0.0650969 0.0385893 0.219144 
-0.0721916 0.0387256 0.199888 -0.0790839 0.0391398 0.179899 -0.0856418 0.0398896 0.159034 
-0.0917259 0.0410275 0.137199 -0.0971987 0.0425944 0.114368 -0.101934 0.044615 0.0905882 
-0.105826 0.0470932 0.0659839 -0.108794 0.0500102 0.0407447 -0.11079 0.0533242 0.0151092 
-0.111799 0.0569716 -0.0106588 -0.111836 0.0608708 -0.0362972 -0.110946 0.0649265 -0.0615726 
-0.109196 0.0690354 -0.086303 -0.10667 0.0730919 -0.110375 -0.103456 0.0769939 -0.133752 
-0.0996426 0.0806477 -0.156473 -0.0953122 0.0839715 -0.17864 -0.0905319 0.086898 -0.200404 
-0.0853531 0.0893755 -0.221934 -0.0798093 0.0913667 -0.2434 -0.0739179 0.0928478 -0.264941 
-0.0676835 0.093806 -0.286649 -0.0611032 0.0942364 -0.308555 -0.0541727 0.0941395 -0.330624 
-0.0468925 0.0935191 -0.352761 -0.0392742 0.0923807 -0.374821 -0.0313451 0.0907308 -0.396632 
-0.0231509 0.0885777 -0.418011 -0.0147575 0.0859321 -0.438791 -0.00624929 0.0828096 -0.458834 
0.00227405 0.0792328 -0.47805 0.0107022 0.0752331 -0.496397 0.0189204 0.0708528 -0.513881 
0.0268164 0.0661461 -0.530544 0.0342872 0.061179 -0.54645 0.0412448 0.0560284 -0.561663 
0.0476212 0.0507798 -0.576232 0.0533718 0.0455245 -0.590169 0.0584761 0.0403552 -0.603445 
0.0629376 0.0353619 -0.615982 0.0667812 0.0306276 -0.627661 0.0700492 0.0262239 -0.638336 
0.0727969 0.0222077 -0.647851 0.0750866 0.018619 -0.656065 0.0769833 0.0154791 -0.662875 
0.0785489 0.012791 -0.668235 0.0798393 0.0105407 -0.672173 0.0809016 0.00869943 -0.674792 
0.0817722 0.00722758 -0.676269 0.0824778 0.00607843 -0.67684 0.0830355 0.00520289 -0.676776 
0.0834555 0.00455398 -0.676359 0.0837423 0.00409107 -0.675848 0.0838979 0.00378334 -0.675452 
0.0839231 0.00361252 -0.675307 
LINES 2 100
OFFSETS vtktypeint64
0 100 
CONNECTIVITY vtktypeint64
0 1 2 3 4 5 6 7 8 
9 10 11 12 13 14 15 16 17 
18 19 20 21 22 23 24 25 26 
27 28 29 30 31 32 33 34 35 
36 37 38 39 40 41 42 43 44 
45 46 47 48 49 50 51 52 53 
54 55 56 57 58 59 60 61 62 
63 64 65 66 67 68 69 70 71 
72 73 74 75 76 77 78 79 80 
81 82 83 84 85 86 87 88 89 
90 91 92 93 94 95 96 97 98 
99 
POINT_DATA 100
FIELD FieldData 3
_theta 1 100 double
0 0.031733259127 0.063466518254 0.095199777382 0.12693303651 0.15866629564 0.19039955476 0.22213281389 0.25386607302 
0.28559933214 0.31733259127 0.3490658504 0.38079910953 0.41253236865 0.44426562778 0.47599888691 0.50773214603 0.53946540516 
0.57119866429 0.60293192342 0.63466518254 0.66639844167 0.6981317008 0.72986495992 0.76159821905 0.79333147818 0.82506473731 
0.85679799643 0.88853125556 0.92026451469 0.95199777382 0.98373103294 1.0154642921 1.0471975512 1.0789308103 1.1106640695 
1.1423973286 1.1741305877 1.2058638468 1.237597106 1.2693303651 1.3010636242 1.3327968833 1.3645301425 1.3962634016 
1.4279966607 1.4597299198 1.491463179 1.5231964381 1.5549296972 1.5866629564 1.6183962155 1.6501294746 1.6818627337 
1.7135959929 1.745329252 1.7770625111 1.8087957702 1.8405290294 1.8722622885 1.9039955476 1.9357288068 1.9674620659 
1.999195325 2.0309285841 2.0626618433 2.0943951024 2.1261283615 2.1578616206 2.1895948798 2.2213281389 2.253061398 
2.2847946572 2.3165279163 2.3482611754 2.3799944345 2.4117276937 2.4434609528 2.4751942119 2.506927471 2.5386607302 
2.5703939893 2.6021272484 2.6338605076 2.6655937667 2.6973270258 2.7290602849 2.7607935441 2.7925268032 2.8242600623 
2.8559933214 2.8877265806 2.9194598397 2.9511930988 2.982926358 3.0146596171 3.0463928762 3.0781261353 3.1098593945 
3.1415926536 
_radius 1 100 double
5.2207972129e-16 0.015422254175 0.03076954172 0.045959154596 0.060906813126 0.075527368202 0.089736580662 0.10345396308 0.11660639386 
0.12913195604 0.1409833174 0.15213002861 0.16255936081 0.1722756278 0.18129819847 0.18965850765 0.1973963291 0.20455548697 
0.21117917957 0.21730524438 0.22296196059 0.22816520833 0.23291778503 0.23721132789 0.24103069528 0.24436002859 0.24718923971 
0.24951946537 0.25136616719 0.25275904465 0.25373865946 0.2543504209 0.2546371138 0.25463134139 0.25434913839 0.2537857111 
0.25291391146 0.25168574746 0.25003703052 0.24789514078 0.24518973464 0.24186585916 0.23789830822 0.23330530021 0.22815898297 
0.22259017903 0.21678531394 0.2109746024 0.20541218152 0.20035077195 0.19601520065 0.19257999282 0.19015539677 0.18878345479 
0.18844216449 0.18905331475 0.19048964393 0.19257956174 0.1951115292 0.19784310553 0.20051908129 0.20289826141 0.20478267173 
0.20604105575 0.20662127028 0.20655035017 0.20592385391 0.20488720786 0.20361184454 0.2022687407 0.20100214668 0.19990724216 
0.19901648564 0.19829844647 0.19766888002 0.19700947977 0.19618847317 0.19507867086 0.19357051764 0.19157916202 0.18904567732 
0.1859334751 0.1822215621 0.17789648098 0.17294455463 0.16734558423 0.16106863691 0.15407016626 0.14629451887 0.13767686527 
0.1281486204 0.11764531794 0.10611657917 0.093537322705 0.07991885492 0.065318138542 0.049843475493 0.033655112722 0.0169598949 
2.6374647549e-16 
_area 1 100 double
0 0.0006031276222 0.0023943997887 0.0053206544534 0.0092968883468 0.01421093622 0.019929399416 0.026305139889 0.033186640499 
0.040428676684 0.047902553144 0.055503609753 0.063154419428 0.070803639284 0.078421614081 0.085993884072 0.093513250077 0.10097087101 
0.10834721395 0.11560421857 0.1226805719 0.12949246288 0.1359421847 0.1419356728 0.14740706486 0.15234405378 0.15680337106 
0.1609042575 0.16479483531 0.16860195696 0.17238537164 0.17611185748 0.17965385148 0.18280940532 0.18533675075 0.18699643883 
0.18759466434 0.18702111843 0.18527198048 0.18243835277 0.17863122213 0.17388964097 0.168203516 0.16159696771 0.15416290677 
0.14606701675 0.13754876715 0.12891931186 0.1205512953 0.11286038464 0.10626108459 0.10101650254 0.097093698955 0.094316778912 
0.092536374566 0.091677982179 0.09172805811 0.092619332573 0.094128619477 0.095976074845 0.097882158065 0.09953767614 0.10058938507 
0.10070378354 0.099677497356 0.097497449567 0.094334776455 0.090503973893 0.086406892664 0.082468343815 0.079065681854 0.076459748374 
0.074750857768 0.073886050501 0.073709440293 0.074018788063 0.074607996492 0.075291850589 0.075914637622 0.076346333108 0.076472719218 
0.0761851655 0.075374491464 0.073932708572 0.071763401547 0.068797037924 0.065005115702 0.060408187339 0.055076304225 0.049124006979 
0.042703652391 0.035999940697 0.029225906896 0.022618317333 0.016429946198 0.010917579924 0.0063264669285 0.0028730201808 0.00072770540377 
3.5155229025e-17 
