# vtk DataFile Version 5.1
vtk output
ASCII
DATASET POLYDATA
POINTS 100 float
0.0715442 0.0764297 0.770759 0.0718419 0.0766649 0.770308 0.0727655 0.0772176 0.768802 
0.0742086 0.0780361 0.766282 0.0760068 0.0790401 0.762815 0.0779566 0.0801275 0.758484 
0.0798387 0.0811823 0.753378 0.0814419 0.0820853 0.747586 0.0825851 0.0827229 0.741184 
0.0831343 0.0829968 0.734232 0.0830136 0.0828315 0.726768 0.082207 0.0821799 0.718806 
0.0807526 0.0810263 0.710342 0.0787306 0.0793867 0.701357 0.0762452 0.077307 0.691823 
0.073405 0.074858 0.681713 0.0703039 0.0721292 0.671009 0.0670055 0.0692214 0.659704 
0.0635326 0.0662389 0.647811 0.059865 0.0632816 0.635362 0.0559431 0.0604381 0.622404 
0.0516798 0.0577813 0.608998 0.0469758 0.0553639 0.595207 0.0417388 0.053218 0.581095 
0.0359018 0.0513552 0.566713 0.0294378 0.0497687 0.552094 0.0223704 0.0484377 0.537253 
0.0147764 0.0473317 0.522177 0.00678094 0.0464154 0.506835 -0.00145412 0.045654 0.491174 
-0.00974759 0.0450174 0.47513 -0.0179195 0.0444835 0.458634 -0.0258122 0.0440406 0.441621 
-0.0333083 0.0436882 0.424035 -0.0403444 0.0434365 0.405833 -0.0469163 0.0433051 0.386994 
-0.0530768 0.0433204 0.367513 -0.0589254 0.0435126 0.347399 -0.0645908 0.0439125 0.326677 
-0.0702086 0.0445486 0.305374 -0.0758975 0.0454439 0.283518 -0.081737 0.0466141 0.261133 
-0.0877489 0.048066 0.238232 -0.0938863 0.049797 0.21482 -0.100031 0.0517949 0.190891 
-0.106001 0.054039 0.166435 -0.111564 0.0565011 0.141446 -0.116461 0.0591472 0.115923 
-0.120433 0.0619395 0.0898834 -0.123248 0.0648376 0.0633654 -0.124723 0.0678002 0.0364339 
-0.124752 0.0707871 0.00918103 -0.12331 0.073759 -0.0182763 -0.120458 0.0766794 -0.0458017 
-0.116342 0.0795138 -0.0732482 -0.111169 0.0822307 -0.100469 -0.105195 0.0848011 -0.127328 
-0.0986901 0.0871981 -0.153713 -0.0919173 0.0893969 -0.179542 -0.0851056 0.0913743 -0.204769 
-0.0784306 0.0931083 -0.229391 -0.0720009 0.0945783 -0.253437 -0.0658543 0.0957642 -0.276972 
-0.0599609 0.0966469 -0.300078 -0.0542348 0.0972078 -0.322848 -0.0485507 0.0974291 -0.345373 
-0.0427655 0.0972933 -0.367722 -0.036739 0.0967838 -0.389943 -0.0303542 0.0958845 -0.412046 
-0.0235334 0.0945802 -0.434003 -0.016248 0.0928569 -0.45575 -0.00852286 0.0907019 -0.477191 
-0.000433673 0.0881045 -0.498205 0.00790144 0.0850563 -0.518659 0.0163343 0.0815524 -0.538419 
0.0247018 0.0775916 -0.557364 0.0328411 0.0731779 -0.575394 0.0406041 0.0683209 -0.592439 
0.0478687 0.0630367 -0.608465 0.0545458 0.0573492 -0.623471 0.0605831 0.0512898 -0.637493 
0.0659636 0.0448983 -0.650591 0.0707012 0.0382232 -0.662845 0.074834 0.0313206 -0.674346 
0.0784163 0.0242548 -0.685182 0.0815098 0.0170964 -0.695436 0.0841773 0.00992198 -0.70517 
0.0864766 0.00281258 -0.714427 0.0884575 -0.00414801 -0.723225 0.0901605 -0.0108747 -0.731556 
0.0916172 -0.0172826 -0.73939 0.0928522 -0.0232891 -0.746678 0.0938852 -0.0288151 -0.753356 
0.094733 -0.0337867 -0.759351 0.0954117 -0.0381364 -0.764589 0.095937 -0.0418045 -0.768995 
0.0963244 -0.0447403 -0.772504 0.0965881 -0.0469023 -0.77506 0.0967401 -0.0482599 -0.776621 
0.0967883 -0.0487932 -0.777161 
LINES 2 100
OFFSETS vtktypeint64
0 100 
CONNECTIVITY vtktypeint64
0 1 2 3 4 5 6 7 8 
9 10 11 12 13 14 15 16 17 
18 19 20 21 22 23 24 25 26 
27 28 29 30 31 32 33 34 35 
36 37 38 39 40 41 42 43 44 
45 46 47 48 49 50 51 52 53 
54 55 56 57 58 59 60 61 62 
63 64 65 66 67 68 69 70 71 
72 73 74 75 76 77 78 79 80 
81 82 83 84 85 86 87 88 89 
90 91 92 93 94 95 96 97 98 
99 
POINT_DATA 100
FIELD FieldData 3
_theta 1 100 double
0 0.031733259127 0.063466518254 0.095199777382 0.12693303651 0.15866629564 0.19039955476 0.22213281389 0.25386607302 
0.28559933214 0.31733259127 0.3490658504 0.38079910953 0.41253236865 0.44426562778 0.47599888691 0.50773214603 0.53946540516 
0.57119866429 0.60293192342 0.63466518254 0.66639844167 0.6981317008 0.72986495992 0.76159821905 0.79333147818 0.82506473731 
0.85679799643 0.88853125556 0.92026451469 0.95199777382 0.98373103294 1.0154642921 1.0471975512 1.0789308103 1.1106640695 
1.1423973286 1.1741305877 1.2058638468 1.237597106 1.2693303651 1.3010636242 1.3327968833 1.3645301425 1.3962634016 
1.4279966607 1.4597299198 1.491463179 1.5231964381 1.5549296972 1.5866629564 1.6183962155 1.6501294746 1.6818627337 
1.7135959929 1.745329252 1.7770625111 1.8087957702 1.8405290294 1.8722622885 1.9039955476 1.9357288068 1.9674620659 
1.999195325 2.0309285841 2.0626618433 2.0943951024 2.1261283615 2.1578616206 2.1895948798 2.2213281389 2.253061398 
2.2847946572 2.3165279163 2.3482611754 2.3799944345 2.4117276937 2.4434609528 2.4751942119 2.506927471 2.5386607302 
2.5703939893 2.6021272484 2.6338605076 2.6655937667 2.6973270258 2.7290602849 2.7607935441 2.7925268032 2.8242600623 
2.8559933214 2.8877265806 2.9194598397 2.9511930988 2.982926358 3.0146596171 3.0463928762 3.0781261353 3.1098593945 
3.1415926536 
_radius 1 100 double
1.7772239895e-16 0.014485892201 0.028945421235 0.043342764035 0.057638118436 0.071785635066 0.085731734311 0.099414759849 0.11276660317 
0.12571619321 0.13819402378 0.15013656712 0.16148958324 0.17220980581 0.18226498789 0.19163262939 0.20029785059 0.20825092256 
0.21548501568 0.22199476904 0.22777620246 0.23282819487 0.23715527288 0.24077096459 0.24370068586 0.24598317068 0.24766982281 
0.24882191157 0.24950607068 0.24978892788 0.2497318183 0.24938640995 0.2487917444 0.24797278632 0.24694026065 0.24569148799 
0.24421211349 0.24247889076 0.24046380483 0.23813966837 0.23548694236 0.23250106985 0.22919923563 0.22562528872 0.22185163646 
0.21797724085 0.21412141262 0.21041389003 0.20698264255 0.2039417111 0.20138169627 0.19936470927 0.19792374236 0.19706446658 
0.19676679849 0.1969847779 0.19764552828 0.19864969903 0.19987571771 0.20118865176 0.20245262398 0.20354448158 0.20436604392 
0.20485260737 0.20497626133 0.20474372058 0.20418952025 0.20336630571 0.20233434243 0.20115205912 0.19986856413 0.19851825444 
0.19711736008 0.19566239964 0.19413061738 0.19248231298 0.19066466832 0.18861641419 0.18627257458 0.18356859405 0.18044335996 
0.17684089823 0.17271075805 0.16800728856 0.16268823488 0.15671337529 0.15004409352 0.14264455117 0.1344844948 0.1255430678 
0.11581269033 0.10530219321 0.094038733813 0.082068356087 0.069455283703 0.056280170563 0.042637614907 0.028633286755 0.014381004364 
7.0830062104e-16 
_area 1 100 double
0 0.00054799124859 0.0021788753964 0.0048542464295 0.0085126169093 0.013072228875 0.018433789021 0.024483127449 0.031094457621 
0.038135011328 0.045471128789 0.052974954766 0.060530517008 0.068038440794 0.075419918647 0.082621420915 0.089618689249 0.096413658035 
0.10301885188 0.10943209177 0.1156136048 0.12148049845 0.12692620721 0.13185858118 0.13623819956 0.14009417137 0.14350402613 
0.14655076399 0.14928919693 0.15173823503 0.15389163249 0.15573466457 0.1572585208 0.15846732449 0.15938211042 0.1600171268 
0.16020520551 0.15975726945 0.15854876939 0.15651491786 0.15365291136 0.15003974603 0.14587091513 0.14152840359 0.13693546537 
0.13214298594 0.1273006495 0.12255439435 0.11801035931 0.11373291915 0.10978268837 0.1062528124 0.10318151495 0.10048234383 
0.098083158311 0.095986986853 0.094238494676 0.092865721897 0.091829286048 0.091009251117 0.090233926678 0.089327374339 0.08815397422 
0.086649705172 0.084834123187 0.082798726759 0.080674102867 0.078591561657 0.076656061448 0.074931272223 0.073434965643 0.072151404061 
0.071056802855 0.070093052326 0.069161323533 0.068247929383 0.067425167168 0.066863011785 0.066551541763 0.066320842887 0.066041976864 
0.065588041769 0.064829847661 0.063642750522 0.061910020055 0.059532082955 0.056442006338 0.052619829327 0.048100110124 0.042971989189 
0.037373786699 0.031484588955 0.025514433828 0.019693367736 0.014258934814 0.0094422059466 0.005453556095 0.0024698785406 0.000624468857 
2.4213680425e-17 
