# vtk DataFile Version 5.1
vtk output
ASCII
DATASET POLYDATA
POINTS 100 float
0.11328 0.0590385 0.775524 0.113221 0.059239 0.77512 0.113047 0.0596508 0.773726 
0.112736 0.0602369 0.771378 0.112258 0.0609418 0.768137 0.111573 0.061698 0.764073 
0.110647 0.0624341 0.759265 0.10945 0.0630828 0.753788 0.107961 0.0635886 0.747705 
0.106177 0.0639136 0.74106 0.104109 0.0640414 0.733881 0.101778 0.063978 0.726171 
0.0992176 0.0637497 0.717919 0.0964617 0.0633987 0.709102 0.0935416 0.0629764 0.699693 
0.0904781 0.0625359 0.689671 0.0872777 0.0621235 0.679024 0.0839289 0.0617719 0.66776 
0.0804032 0.061495 0.655906 0.0766573 0.0612839 0.643512 0.0726387 0.0611077 0.630641 
0.0682932 0.0609155 0.617371 0.0635722 0.060642 0.60378 0.0584411 0.0602148 0.589944 
0.0528843 0.0595632 0.575923 0.0469092 0.0586268 0.561757 0.040546 0.0573635 0.547462 
0.0338441 0.0557566 0.533031 0.0268664 0.0538183 0.518431 0.0196801 0.0515914 0.503613 
0.0123473 0.0491477 0.488519 0.00491589 0.0465832 0.473089 -0.00258825 0.0440124 0.457269 
-0.0101654 0.041559 0.441022 -0.0178425 0.039348 0.424326 -0.0256692 0.0374959 0.407182 
-0.0337105 0.0361037 0.389609 -0.0420346 0.0352498 0.371637 -0.0507006 0.0349866 0.353302 
-0.0597446 0.0353378 0.334639 -0.0691676 0.0362995 0.315666 -0.0789265 0.0378418 0.296385 
-0.0889297 0.0399136 0.27677 -0.0990372 0.0424466 0.25677 -0.109067 0.0453615 0.236311 
-0.118807 0.0485731 0.2153 -0.128027 0.0519948 0.193639 -0.136499 0.0555431 0.171235 
-0.144013 0.0591402 0.14801 -0.150393 0.062716 0.123921 -0.155511 0.0662091 0.0989618 
-0.159293 0.0695673 0.0731743 -0.161724 0.0727472 0.0466478 -0.162844 0.0757139 0.0195168 
-0.162741 0.0784406 -0.00804766 -0.161537 0.0809084 -0.0358498 -0.159378 0.0831057 -0.0636836 
-0.156417 0.0850285 -0.0913485 -0.152799 0.0866795 -0.118664 -0.148655 0.0880683 -0.145484 
-0.144087 0.0892099 -0.171703 -0.139171 0.0901234 -0.197264 -0.133958 0.0908304 -0.222155 
-0.128471 0.0913522 -0.246407 -0.12272 0.0917073 -0.27008 -0.116704 0.0919083 -0.293257 
-0.110422 0.0919598 -0.316025 -0.103878 0.0918563 -0.338466 -0.097085 0.0915809 -0.360641 
-0.0900676 0.0911059 -0.382587 -0.0828597 0.0903939 -0.404304 -0.0755028 0.0894005 -0.425762 
-0.0680409 0.0880785 -0.4469 -0.060516 0.0863825 -0.46763 -0.0529648 0.0842745 -0.487851 
-0.0454163 0.0817287 -0.507456 -0.0378922 0.078737 -0.52634 -0.0304092 0.075312 -0.544415 
-0.0229839 0.0714898 -0.561611 -0.0156384 0.0673304 -0.577881 -0.00840674 0.0629159 -0.593209 
-0.00133986 0.0583476 -0.607597 0.00549121 0.0537403 -0.621074 0.0119954 0.0492159 -0.63368 
0.0180651 0.0448962 -0.645464 0.0235832 0.0408946 -0.656478 0.0284336 0.0373094 -0.66677 
0.0325128 0.0342164 -0.676378 0.0357432 0.0316649 -0.685326 0.0380844 0.0296739 -0.693626 
0.0395416 0.0282318 -0.701274 0.0401713 0.0272974 -0.708254 0.0400796 0.026804 -0.714539 
0.0394172 0.0266649 -0.720095 0.0383675 0.0267803 -0.724882 0.0371316 0.0270459 -0.728862 
0.0359101 0.027361 -0.731997 0.0348842 0.0276368 -0.734258 0.0341982 0.0278038 -0.735618 
0.0339452 0.0278171 -0.736064 
LINES 2 100
OFFSETS vtktypeint64
0 100 
CONNECTIVITY vtktypeint64
0 1 2 3 4 5 6 7 8 
9 10 11 12 13 14 15 16 17 
18 19 20 21 22 23 24 25 26 
27 28 29 30 31 32 33 34 35 
36 37 38 39 40 41 42 43 44 
45 46 47 48 49 50 51 52 53 
54 55 56 57 58 59 60 61 62 
63 64 65 66 67 68 69 70 71 
72 73 74 75 76 77 78 79 80 
81 82 83 84 85 86 87 88 89 
90 91 92 93 94 95 96 97 98 
99 
POINT_DATA 100
FIELD FieldData 3
_theta 1 100 double
0 0.031733259127 0.063466518254 0.095199777382 0.12693303651 0.15866629564 0.19039955476 0.22213281389 0.25386607302 
0.28559933214 0.31733259127 0.3490658504 0.38079910953 0.41253236865 0.44426562778 0.47599888691 0.50773214603 0.53946540516 
0.57119866429 0.60293192342 0.63466518254 0.66639844167 0.6981317008 0.72986495992 0.76159821905 0.79333147818 0.82506473731 
0.85679799643 0.88853125556 0.92026451469 0.95199777382 0.98373103294 1.0154642921 1.0471975512 1.0789308103 1.1106640695 
1.1423973286 1.1741305877 1.2058638468 1.237597106 1.2693303651 1.3010636242 1.3327968833 1.3645301425 1.3962634016 
1.4279966607 1.4597299198 1.491463179 1.5231964381 1.5549296972 1.5866629564 1.6183962155 1.6501294746 1.6818627337 
1.7135959929 1.745329252 1.7770625111 1.8087957702 1.8405290294 1.8722622885 1.9039955476 1.9357288068 1.9674620659 
1.999195325 2.0309285841 2.0626618433 2.0943951024 2.1261283615 2.1578616206 2.1895948798 2.2213281389 2.253061398 
2.2847946572 2.3165279163 2.3482611754 2.3799944345 2.4117276937 2.4434609528 2.4751942119 2.506927471 2.5386607302 
2.5703939893 2.6021272484 2.6338605076 2.6655937667 2.6973270258 2.7290602849 2.7607935441 2.7925268032 2.8242600623 
2.8559933214 2.8877265806 2.9194598397 2.9511930988 2.982926358 3.0146596171 3.0463928762 3.0781261353 3.1098593945 
3.1415926536 
_radius 1 100 double
1.3165625507e-16 0.013335890833 0.026611043493 0.039756102652 0.052703371343 0.065388636982 0.077753028573 0.089744499097 0.10131856951 
0.11243815868 0.12307256056 0.13319582847 0.1427849601 0.15181837636 0.16027527522 0.16813644507 0.17538688373 0.18202000153 
0.18804244405 0.19347800585 0.19836905202 0.20277441524 0.20676371024 0.21040905059 0.21377588512 0.21691483738 0.21985600298 
0.2226063615 0.22515015818 0.22745161292 0.22945920318 0.23111091329 0.23234004661 0.23308132176 0.23327698881 0.232882653 
0.23187245401 0.23024326505 0.22801762359 0.22524511543 0.2220018505 0.21838751688 0.21451940653 0.21052299209 0.20651938588 
0.20261150832 0.19887264183 0.19534187319 0.19202918369 0.18892896017 0.186037086 0.18336574585 0.18095144178 0.17885404842 
0.17714711435 0.17590178091 0.17516841203 0.17496084146 0.17524753006 0.17595178214 0.17696023842 0.1781365501 0.17933654716 
0.18042224142 0.18127357238 0.18179786126 0.18193711107 0.18167282343 0.18102741845 0.18006117561 0.17886419708 0.17754419288 
0.17621236494 0.17497044598 0.17390130777 0.17306354436 0.1724880909 0.17217378446 0.17207986814 0.17211648256 0.17213735018 
0.17193987466 0.17127593814 0.16987311031 0.16746281214 0.16381030323 0.1587412127 0.15216029977 0.1440597598 0.1345162904 
0.12367797411 0.11174356348 0.098937762498 0.08548643537 0.071595282465 0.057434520538 0.043130796521 0.028766337853 0.014384456637 
3.3986906547e-16 
_area 1 100 double
0 0.00055609610681 0.0022048641067 0.0048880786389 0.0085104923519 0.012944522508 0.018039620681 0.023636858086 0.029587213189 
0.035769818953 0.0421049437 0.048556542745 0.055121272967 0.061805027948 0.068593741894 0.075429861807 0.082205390602 0.088775512951 
0.094987835036 0.10071673137 0.10589186542 0.11051297993 0.11464765477 0.11841392406 0.12195426621 0.12540925745 0.12889629411 
0.13249306306 0.13622267747 0.14004166068 0.1438381188 0.1474456054 0.15066900064 0.15331230764 0.15519916515 0.15618282887 
0.15614939216 0.15502128243 0.15276578726 0.14940887043 0.14505063649 0.13987546384 0.13414776203 0.12818574611 0.122312319 
0.11679355692 0.11178642638 0.1073187167 0.10330979685 0.09961913956 0.09609859145 0.092632003698 0.08915990954 0.085692124757 
0.082311463674 0.079166455755 0.07643922759 0.074291283359 0.072810927422 0.071977839406 0.071661294894 0.071666749463 0.071792906941 
0.071875115819 0.071869894844 0.071639740166 0.071042782217 0.069994249646 0.068505827973 0.066669095169 0.064646131664 0.062643218447 
0.060866683296 0.059475117407 0.058556815176 0.058150963776 0.058291076365 0.058999243032 0.060242881252 0.061923189791 0.063864171839 
0.065807644574 0.067420921158 0.068326686848 0.068157333842 0.066620907091 0.063559610243 0.05898544612 0.053084950555 0.046192903648 
0.038741795264 0.031198439294 0.024000713708 0.017506073453 0.011960125556 0.0074891585805 0.0041157560893 0.0017920701324 0.0004417648904 
1.2065660577e-17 
