# vtk DataFile Version 5.1
vtk output
ASCII
DATASET POLYDATA
POINTS 100 float
0.220439 0.0464729 0.755192 0.220478 0.0467563 0.755054 0.220684 0.0474615 0.7545 
0.220973 0.0485562 0.753538 0.221216 0.0499889 0.752178 0.221257 0.0516918 0.750424 
0.220932 0.0535841 0.748272 0.220088 0.0555764 0.745701 0.218606 0.0575751 0.742668 
0.216409 0.0594874 0.739111 0.213473 0.0612261 0.734947 0.209823 0.0627144 0.730079 
0.205528 0.0638891 0.724404 0.200685 0.0647039 0.717824 0.195401 0.065131 0.710259 
0.189777 0.0651616 0.701657 0.183883 0.0648045 0.692001 0.177755 0.0640846 0.681317 
0.171377 0.0630392 0.669677 0.164692 0.0617147 0.657188 0.157604 0.0601622 0.643992 
0.149995 0.058434 0.630249 0.141744 0.05658 0.61612 0.132748 0.0546459 0.601758 
0.122941 0.0526716 0.587287 0.112314 0.0506913 0.572793 0.100918 0.0487348 0.558317 
0.0888691 0.0468295 0.543845 0.076339 0.0450025 0.529321 0.0635411 0.0432835 0.514644 
0.0507077 0.0417063 0.499685 0.0380661 0.0403099 0.4843 0.0258138 0.0391385 0.468342 
0.0140974 0.0382395 0.45168 0.00299742 0.0376608 0.434206 -0.00747817 0.0374469 0.415846 
-0.0173909 0.0376341 0.396563 -0.0268595 0.0382464 0.376356 -0.0360396 0.0392908 0.355256 
-0.0450979 0.0407552 0.333321 -0.0541843 0.0426072 0.31062 -0.0634053 0.0447949 0.28723 
-0.0728022 0.0472501 0.263223 -0.0823374 0.0498934 0.238661 -0.09189 0.0526403 0.213591 
-0.101262 0.0554086 0.188047 -0.110196 0.0581254 0.162049 -0.118397 0.0607335 0.13561 
-0.125564 0.0631959 0.108742 -0.131421 0.0654979 0.0814624 -0.135746 0.0676472 0.0538014 
-0.138394 0.0696708 0.0258039 -0.139314 0.0716094 -0.00246693 -0.138554 0.0735104 -0.0309315 
-0.136253 0.0754196 -0.0594963 -0.132632 0.0773725 -0.0880596 -0.127961 0.0793875 -0.116518 
-0.122538 0.0814597 -0.144771 -0.116657 0.0835583 -0.172729 -0.110575 0.0856259 -0.200316 
-0.104493 0.0875821 -0.227471 -0.0985348 0.0893284 -0.254148 -0.0927448 0.0907563 -0.280314 
-0.0870864 0.0917565 -0.305944 -0.0814549 0.0922278 -0.331016 -0.0756963 0.0920858 -0.355509 
-0.0696308 0.09127 -0.379397 -0.063078 0.0897483 -0.402651 -0.055882 0.0875186 -0.425236 
-0.0479321 0.0846075 -0.447117 -0.0391773 0.0810672 -0.468262 -0.0296346 0.076969 -0.488646 
-0.0193889 0.072397 -0.50826 -0.00858566 0.0674399 -0.52711 0.00258174 0.0621849 -0.545224 
0.0138892 0.0567115 -0.562647 0.0251007 0.0510881 -0.579439 0.0359872 0.0453706 -0.595666 
0.0463431 0.0396026 -0.611394 0.0559991 0.0338179 -0.626678 0.0648301 0.0280443 -0.64155 
0.0727592 0.0223077 -0.656015 0.0797559 0.0166359 -0.670042 0.085831 0.011062 -0.683565 
0.0910294 0.00562606 -0.696487 0.0954203 0.000374988 -0.708685 0.0990878 -0.00463898 -0.720026 
0.102122 -0.0093615 -0.730378 0.104614 -0.0137402 -0.739626 0.106647 -0.0177293 -0.747683 
0.108294 -0.0212937 -0.754509 0.109622 -0.0244121 -0.760109 0.110681 -0.0270787 -0.76454 
0.111518 -0.0293031 -0.767906 0.112166 -0.0311083 -0.770347 0.112654 -0.0325267 -0.772025 
0.113005 -0.0335958 -0.773109 0.113236 -0.034352 -0.773753 0.11336 -0.034826 -0.774083 
0.113386 -0.0350379 -0.77418 
LINES 2 100
OFFSETS vtktypeint64
0 100 
CONNECTIVITY vtktypeint64
0 1 2 3 4 5 6 7 8 
9 10 11 12 13 14 15 16 17 
18 19 20 21 22 23 24 25 26 
27 28 29 30 31 32 33 34 35 
36 37 38 39 40 41 42 43 44 
45 46 47 48 49 50 51 52 53 
54 55 56 57 58 59 60 61 62 
63 64 65 66 67 68 69 70 71 
72 73 74 75 76 77 78 79 80 
81 82 83 84 85 86 87 88 89 
90 91 92 93 94 95 96 97 98 
99 
POINT_DATA 100
FIELD FieldData 3
_theta 1 100 double
0 0.031733259127 0.063466518254 0.095199777382 0.12693303651 0.15866629564 0.19039955476 0.22213281389 0.25386607302 
0.28559933214 0.31733259127 0.3490658504 0.38079910953 0.41253236865 0.44426562778 0.47599888691 0.50773214603 0.53946540516 
0.57119866429 0.60293192342 0.63466518254 0.66639844167 0.6981317008 0.72986495992 0.76159821905 0.79333147818 0.82506473731 
0.85679799643 0.88853125556 0.92026451469 0.95199777382 0.98373103294 1.0154642921 1.0471975512 1.0789308103 1.1106640695 
1.1423973286 1.1741305877 1.2058638468 1.237597106 1.2693303651 1.3010636242 1.3327968833 1.3645301425 1.3962634016 
1.4279966607 1.4597299198 1.491463179 1.5231964381 1.5549296972 1.5866629564 1.6183962155 1.6501294746 1.6818627337 
1.7135959929 1.745329252 1.7770625111 1.8087957702 1.8405290294 1.8722622885 1.9039955476 1.9357288068 1.9674620659 
1.999195325 2.0309285841 2.0626618433 2.0943951024 2.1261283615 2.1578616206 2.1895948798 2.2213281389 2.253061398 
2.2847946572 2.3165279163 2.3482611754 2.3799944345 2.4117276937 2.4434609528 2.4751942119 2.506927471 2.5386607302 
2.5703939893 2.6021272484 2.6338605076 2.6655937667 2.6973270258 2.7290602849 2.7607935441 2.7925268032 2.8242600623 
2.8559933214 2.8877265806 2.9194598397 2.9511930988 2.982926358 3.0146596171 3.0463928762 3.0781261353 3.1098593945 
3.1415926536 
_radius 1 100 double
4.4947753133e-16 0.016907196248 0.033740080602 0.050415980121 0.066847211902 0.082940153225 0.09859545929 0.11370941707 0.12817615788 
0.1418903016 0.15474969392 0.16665821453 0.17752900729 0.18728866 0.19588266946 0.20328199455 0.20948984141 0.21454731828 
0.21853645011 0.22157932249 0.22383274914 0.22547866091 0.22671122003 0.22772230266 0.22868724227 0.2297523909 0.23102524524 
0.23256713513 0.23438834976 0.23644612113 0.23864652753 0.24085146107 0.24289108584 0.24458098726 0.24574201338 0.24622006871 
0.24590300445 0.24473220004 0.24270730819 0.23988378034 0.23636402234 0.23228413662 0.22779892702 0.22306788737 0.21824410162 
0.21346660924 0.20885558607 0.20450939 0.20050310051 0.19688886319 0.19369842815 0.19094776239 0.18864298315 0.18678636511 
0.1853807879 0.18443083274 0.1839392189 0.18389871851 0.18428193309 0.18503347508 0.18606949112 0.18728658947 0.1885771083 
0.18984411711 0.19101041413 0.19202001439 0.19283486104 0.19343109189 0.19379788777 0.19393930759 0.19387738542 0.19365394766 
0.19332896859 0.19297425723 0.19266244075 0.19245241369 0.19237352034 0.19241150262 0.19249938958 0.19251577424 0.19229130999 
0.19162225893 0.19028840931 0.18807223661 0.18477668888 0.18023988116 0.17434581524 0.16703080524 0.15828560966 0.14815345704 
0.13672431705 0.12412597785 0.11051275189 0.096052908335 0.080916155623 0.065262602757 0.049234553445 0.032952198539 0.016513765514 
9.1041936666e-16 
_area 1 100 double
0 0.00062638536405 0.0024924707366 0.0055614736648 0.0097785086365 0.015075315661 0.021370068554 0.028560851539 0.036515389681 
0.04506280342 0.053993556498 0.063070764737 0.072050887221 0.080707116675 0.088847158349 0.096320125061 0.10301442032 0.10885516864 
0.11380919156 0.11789762774 0.1212092746 0.12390637257 0.12621649491 0.12840690193 0.13074226917 0.13343641588 0.13661868745 
0.14032868062 0.14453024482 0.14912523339 0.15395780938 0.15881399673 0.16342628424 0.16748923105 0.1706864723 0.1727275339 
0.17339010025 0.17255855425 0.17024859528 0.16661121645 0.16191369657 0.15649871066 0.15072598141 0.14490762621 0.13925897238 
0.13388612728 0.12880864552 0.12399581832 0.11939797766 0.11496449018 0.11064928647 0.10641464855 0.10224574192 0.098173325349 
0.094284775434 0.090707745402 0.087574161441 0.085002851821 0.083113411921 0.082029884242 0.081462357928 0.081104833233 0.080816210943 
0.080623326446 0.080811467257 0.08097397465 0.080992896506 0.080846079036 0.080551622749 0.080136221147 0.079674447917 0.079212581386 
0.078693153094 0.078166070208 0.077764931919 0.077651676819 0.077937742825 0.078618493174 0.079606825099 0.080746677205 0.081821550324 
0.082574692179 0.08273629452 0.082053192548 0.080316607728 0.077384511012 0.073197516339 0.067788774164 0.061287744054 0.053916203451 
0.045974426223 0.037816761385 0.029818319249 0.022337303752 0.015679774179 0.010074342733 0.0056628848519 0.0025096380205 0.00062565807147 
7.746412904e-17 
