# vtk DataFile Version 5.1
vtk output
ASCII
DATASET POLYDATA
POINTS 100 float
0.144093 0.0510487 0.780642 0.144116 0.0512813 0.780513 0.144269 0.0518057 0.779962 
0.144523 0.0526089 0.778961 0.144838 0.0536697 0.777468 0.145157 0.054959 0.77543 
0.145421 0.056439 0.772786 0.145561 0.0580641 0.769476 0.145513 0.0597814 0.765441 
0.145216 0.0615321 0.760636 0.144617 0.0632543 0.755028 0.143671 0.0648855 0.748603 
0.142346 0.0663665 0.741366 0.140616 0.0676453 0.73334 0.138468 0.0686802 0.724565 
0.135895 0.0694436 0.715095 0.132899 0.069923 0.704989 0.129487 0.0701227 0.694312 
0.125674 0.0700623 0.683121 0.121478 0.0697744 0.671463 0.116925 0.0693011 0.659373 
0.112046 0.0686892 0.646869 0.106878 0.0679845 0.633949 0.101462 0.067227 0.620599 
0.095841 0.0664462 0.606792 0.090059 0.0656577 0.592494 0.0841549 0.0648613 0.577674 
0.0781601 0.0640418 0.562307 0.072093 0.063171 0.546382 0.0659562 0.0622119 0.529908 
0.0597332 0.0611243 0.512915 0.0533879 0.0598713 0.495453 0.046866 0.0584256 0.477592 
0.0400987 0.0567757 0.459414 0.0330091 0.0549305 0.441002 0.02552 0.0529217 0.422435 
0.0175639 0.0508047 0.403777 0.00909238 0.0486561 0.385065 8.53327e-05 0.0465699 0.366305 
-0.00944173 0.0446509 0.347466 -0.0194332 0.0430072 0.328482 -0.0297922 0.041742 0.309251 
-0.0403837 0.0409458 0.28965 -0.0510403 0.0406887 0.269541 -0.0615728 0.0410157 0.248787 
-0.0717818 0.0419424 0.227264 -0.081471 0.043455 0.204877 -0.0904604 0.0455111 0.181575 
-0.0985978 0.0480438 0.157352 -0.105767 0.0509671 0.132258 -0.111896 0.0541826 0.106396 
-0.116951 0.0575872 0.0799148 -0.120944 0.0610796 0.0530001 -0.123915 0.0645675 0.0258602 
-0.125932 0.0679718 -0.00128994 -0.127075 0.0712306 -0.0282454 -0.127427 0.0743005 -0.0548261 
-0.127062 0.0771559 -0.0808898 -0.126041 0.0797876 -0.10634 -0.124407 0.082199 -0.13113 
-0.12218 0.084402 -0.155262 -0.119364 0.0864129 -0.178779 -0.11595 0.0882475 -0.201758 
-0.111924 0.0899174 -0.224294 -0.107275 0.0914271 -0.24649 -0.102001 0.0927719 -0.268439 
-0.0961171 0.0939373 -0.290217 -0.08966 0.0948988 -0.31187 -0.0826866 0.0956239 -0.333413 
-0.0752742 0.0960738 -0.354827 -0.0675154 0.0962061 -0.376062 -0.0595126 0.095978 -0.397044 
-0.0513702 0.0953489 -0.417683 -0.0431885 0.094284 -0.437885 -0.0350578 0.092756 -0.457556 
-0.0270543 0.0907481 -0.476615 -0.0192393 0.0882547 -0.494999 -0.0116604 0.0852833 -0.512663 
-0.0043546 0.0818544 -0.529584 0.00264639 0.0780014 -0.545754 0.00931078 0.07377 -0.561182 
0.0156016 0.0692169 -0.575881 0.0214732 0.0644082 -0.589866 0.02687 0.0594169 -0.603149 
0.0317281 0.0543212 -0.615733 0.0359794 0.0492009 -0.62761 0.0395591 0.0441357 -0.638761 
0.0424138 0.0392016 -0.64916 0.0445104 0.0344692 -0.658773 0.0458448 0.0300014 -0.667568 
0.046448 0.0258517 -0.675515 0.0463889 0.022064 -0.68259 0.045774 0.0186716 -0.688782 
0.0447418 0.0156983 -0.69409 0.0434541 0.0131593 -0.698523 0.0420838 0.0110627 -0.702099 
0.0408005 0.00941181 -0.704842 0.0397559 0.00820667 -0.706776 0.0390698 0.00744632 -0.707921 
0.0388193 0.00713018 -0.708291 
LINES 2 100
OFFSETS vtktypeint64
0 100 
CONNECTIVITY vtktypeint64
0 1 2 3 4 5 6 7 8 
9 10 11 12 13 14 15 16 17 
18 19 20 21 22 23 24 25 26 
27 28 29 30 31 32 33 34 35 
36 37 38 39 40 41 42 43 44 
45 46 47 48 49 50 51 52 53 
54 55 56 57 58 59 60 61 62 
63 64 65 66 67 68 69 70 71 
72 73 74 75 76 77 78 79 80 
81 82 83 84 85 86 87 88 89 
90 91 92 93 94 95 96 97 98 
99 
POINT_DATA 100
FIELD FieldData 3
_theta 1 100 double
0 0.031733259127 0.063466518254 0.095199777382 0.12693303651 0.15866629564 0.19039955476 0.22213281389 0.25386607302 
0.28559933214 0.31733259127 0.3490658504 0.38079910953 0.41253236865 0.44426562778 0.47599888691 0.50773214603 0.53946540516 
0.57119866429 0.60293192342 0.63466518254 0.66639844167 0.6981317008 0.72986495992 0.76159821905 0.79333147818 0.82506473731 
0.85679799643 0.88853125556 0.92026451469 0.95199777382 0.98373103294 1.0154642921 1.0471975512 1.0789308103 1.1106640695 
1.1423973286 1.1741305877 1.2058638468 1.237597106 1.2693303651 1.3010636242 1.3327968833 1.3645301425 1.3962634016 
1.4279966607 1.4597299198 1.491463179 1.5231964381 1.5549296972 1.5866629564 1.6183962155 1.6501294746 1.6818627337 
1.7135959929 1.745329252 1.7770625111 1.8087957702 1.8405290294 1.8722622885 1.9039955476 1.9357288068 1.9674620659 
1.999195325 2.0309285841 2.0626618433 2.0943951024 2.1261283615 2.1578616206 2.1895948798 2.2213281389 2.253061398 
2.2847946572 2.3165279163 2.3482611754 2.3799944345 2.4117276937 2.4434609528 2.4751942119 2.506927471 2.5386607302 
2.5703939893 2.6021272484 2.6338605076 2.6655937667 2.6973270258 2.7290602849 2.7607935441 2.7925268032 2.8242600623 
2.8559933214 2.8877265806 2.9194598397 2.9511930988 2.982926358 3.0146596171 3.0463928762 3.0781261353 3.1098593945 
3.1415926536 
_radius 1 100 double
5.5597819748e-16 0.014264824959 0.028424376317 0.042375935895 0.056023747042 0.069281056451 0.082070993497 0.094326562576 0.10599019904 
0.11701330762 0.12735602571 0.13698725254 0.14588485839 0.15403595438 0.16143710097 0.16809428467 0.174022396 0.17924390485 
0.18378659615 0.18768063822 0.19095576216 0.19363964855 0.19575849393 0.1973401288 0.1984192004 0.19904311774 0.19927689851 
0.1992048512 0.19892724028 0.19855083255 0.19817367697 0.19786666763 0.19765686763 0.19751877755 0.19737797584 0.1971268421 
0.19664717334 0.1958326038 0.19460537646 0.19292528605 0.19079149552 0.18823951132 0.18533587596 0.18217246822 0.17886116567 
0.17552847929 0.17230900745 0.16933654687 0.16673287917 0.16459663921 0.16299652011 0.16197144937 0.16153569563 0.1616840421 
0.1623938891 0.16362458611 0.16531586007 0.16738652701 0.16973383034 0.17223441402 0.17474913699 0.17713314756 0.17924968539 
0.18098385118 0.18225294182 0.18301179533 0.18325324137 0.18300464415 0.18232178068 0.18128113023 0.17997125927 0.17848359843 
0.17690274509 0.17529665057 0.1737077 0.17214653247 0.17059078988 0.16898991141 0.16727454412 0.16536671444 0.16318666021 
0.16065450761 0.15768815568 0.15420077854 0.15010128159 0.14529918504 0.13971300027 0.13327954354 0.12596143135 0.11775094949 
0.10866986334 0.098765903378 0.088107290894 0.076776727594 0.064865921832 0.052471220474 0.039690494329 0.026621197278 0.013359451938 
5.6179319205e-16 
_area 1 100 double
0 0.00052878540174 0.0020941798156 0.0046355018422 0.0080585683751 0.012244877869 0.017062331241 0.022375895413 0.028056576859 
0.033987338216 0.040065476165 0.046202234954 0.05232102088 0.058355050906 0.06424469753 0.069935190127 0.075375966137 0.080522314936 
0.085337725491 0.089793224612 0.093860738312 0.097502472842 0.10066436787 0.10328236661 0.10530355791 0.10671589055 0.10757570818 
0.10802192104 0.10826731305 0.10856102042 0.10912445683 0.11007966274 0.11140385996 0.11293182281 0.11439880118 0.11550463819 
0.11597989867 0.11563927751 0.11441531875 0.11236812331 0.10966394377 0.10651807144 0.10311706867 0.099562784277 0.095875728426 
0.092048485917 0.088105534114 0.084134094924 0.08027823347 0.076715440915 0.07362823439 0.071153379522 0.069362917925 0.068266107083 
0.067781288153 0.067738261011 0.067917186006 0.068101352902 0.068123088573 0.067887214068 0.067370851671 0.066608202717 0.065665212668 
0.064609316298 0.063496565736 0.062377843423 0.061267373096 0.060100480833 0.05880174161 0.057343042899 0.055739271399 0.054027751584 
0.052268089716 0.050570296964 0.049033458835 0.047754151037 0.046856243266 0.046427624108 0.046547910958 0.047156996878 0.048007508499 
0.04886033695 0.049502775834 0.049734337852 0.049371175408 0.048266855426 0.046334482987 0.043559560956 0.04000107364 0.035782749605 
0.031077988659 0.026092106793 0.021045008627 0.016156337448 0.011633807856 0.0076643216496 0.0044071897167 0.0019892339894 0.00050187472669 
1.4908203362e-17 
