# vtk DataFile Version 5.1
vtk output
ASCII
DATASET POLYDATA
POINTS 100 float
0.0831824 0.0553296 0.658222 0.0832187 0.0556075 0.657947 0.0833737 0.0563052 0.656953 
0.0836196 0.057379 0.655263 0.0839127 0.0587608 0.652908 0.084197 0.0603643 0.64993 
0.0844082 0.0620925 0.64637 0.0844791 0.0638453 0.64227 0.0843449 0.0655274 0.637666 
0.0839472 0.0670544 0.632584 0.0832388 0.0683566 0.62704 0.0821859 0.0693817 0.62104 
0.0807698 0.0700941 0.614582 0.0789868 0.0704736 0.607657 0.0768468 0.0705114 0.600255 
0.0743706 0.0702073 0.592371 0.0715864 0.0695659 0.584001 0.0685258 0.0685942 0.575152 
0.0652196 0.0673007 0.565843 0.0616941 0.0656957 0.556099 0.0579683 0.0637934 0.545955 
0.054052 0.0616144 0.535448 0.0499454 0.0591891 0.524618 0.0456397 0.0565601 0.513501 
0.0411188 0.0537837 0.502125 0.0363626 0.0509293 0.490509 0.0313493 0.0480774 0.478659 
0.0260595 0.0453146 0.466571 0.0204784 0.0427276 0.454233 0.0145981 0.0403962 0.441625 
0.00841845 0.0383856 0.428726 0.00194691 0.0367406 0.415516 -0.0048027 0.0354812 0.401982 
-0.0118125 0.0346007 0.388116 -0.019063 0.0340677 0.373922 -0.0265361 0.0338309 0.359411 
-0.0342171 0.0338265 0.344601 -0.042096 0.0339876 0.32951 -0.0501672 0.0342552 0.314155 
-0.058428 0.0345867 0.298544 -0.0668754 0.0349648 0.282675 -0.0755015 0.0354013 0.266527 
-0.0842879 0.0359382 0.250066 -0.0932007 0.0366445 0.233241 -0.102185 0.0376082 0.215989 
-0.11116 0.0389263 0.198242 -0.120021 0.0406915 0.179927 -0.128637 0.0429796 0.160984 
-0.136852 0.0458375 0.141364 -0.144499 0.0492736 0.121039 -0.151402 0.0532525 0.100009 
-0.157388 0.0576948 0.0782989 -0.1623 0.0624806 0.0559619 -0.166009 0.0674589 0.033075 
-0.168419 0.0724596 0.00973348 -0.169478 0.0773076 -0.0139557 -0.169184 0.0818382 -0.0378817 
-0.167579 0.0859097 -0.0619378 -0.164752 0.089415 -0.0860275 -0.160827 0.0922874 -0.110069 
-0.155956 0.094503 -0.133999 -0.150306 0.0960774 -0.15777 -0.144043 0.0970591 -0.181352 
-0.137327 0.0975189 -0.204724 -0.130293 0.0975379 -0.227872 -0.12305 0.0971958 -0.250779 
-0.115672 0.09656 -0.273425 -0.108201 0.0956778 -0.295777 -0.10065 0.094572 -0.317793 
-0.0930095 0.0932411 -0.339414 -0.085257 0.0916626 -0.360572 -0.077367 0.0897998 -0.381189 
-0.0693221 0.0876103 -0.401187 -0.0611218 0.0850556 -0.420487 -0.0527893 0.0821088 -0.439022 
-0.0443747 0.0787619 -0.456734 -0.0359552 0.0750281 -0.473582 -0.0276313 0.0709426 -0.489544 
-0.01952 0.0665591 -0.504613 -0.0117464 0.0619434 -0.518796 -0.00443271 0.0571663 -0.532115 
0.00231106 0.0522949 -0.544595 0.00839657 0.0473858 -0.556265 0.0137638 0.0424794 -0.567152 
0.018385 0.037598 -0.577279 0.0222656 0.0327463 -0.586663 0.0254417 0.0279164 -0.595311 
0.0279752 0.0230941 -0.60323 0.0299463 0.0182678 -0.610419 0.0314456 0.0134372 -0.61688 
0.0325658 0.00862176 -0.622618 0.0333942 0.00386566 -0.627641 0.0340066 -0.00075949 -0.631966 
0.034464 -0.00515635 -0.635617 0.0348113 -0.00920725 -0.638625 0.0350774 -0.0127829 -0.641023 
0.0352785 -0.0157537 -0.642848 0.0354213 -0.0180014 -0.644131 0.0355069 -0.0194311 -0.644897 
0.0355345 -0.0199808 -0.645163 
LINES 2 100
OFFSETS vtktypeint64
0 100 
CONNECTIVITY vtktypeint64
0 1 2 3 4 5 6 7 8 
9 10 11 12 13 14 15 16 17 
18 19 20 21 22 23 24 25 26 
27 28 29 30 31 32 33 34 35 
36 37 38 39 40 41 42 43 44 
45 46 47 48 49 50 51 52 53 
54 55 56 57 58 59 60 61 62 
63 64 65 66 67 68 69 70 71 
72 73 74 75 76 77 78 79 80 
81 82 83 84 85 86 87 88 89 
90 91 92 93 94 95 96 97 98 
99 
POINT_DATA 100
FIELD FieldData 3
_theta 1 100 double
0 0.031733259127 0.063466518254 0.095199777382 0.12693303651 0.15866629564 0.19039955476 0.22213281389 0.25386607302 
0.28559933214 0.31733259127 0.3490658504 0.38079910953 0.41253236865 0.44426562778 0.47599888691 0.50773214603 0.53946540516 
0.57119866429 0.60293192342 0.63466518254 0.66639844167 0.6981317008 0.72986495992 0.76159821905 0.79333147818 0.82506473731 
0.85679799643 0.88853125556 0.92026451469 0.95199777382 0.98373103294 1.0154642921 1.0471975512 1.0789308103 1.1106640695 
1.1423973286 1.1741305877 1.2058638468 1.237597106 1.2693303651 1.3010636242 1.3327968833 1.3645301425 1.3962634016 
1.4279966607 1.4597299198 1.491463179 1.5231964381 1.5549296972 1.5866629564 1.6183962155 1.6501294746 1.6818627337 
1.7135959929 1.745329252 1.7770625111 1.8087957702 1.8405290294 1.8722622885 1.9039955476 1.9357288068 1.9674620659 
1.999195325 2.0309285841 2.0626618433 2.0943951024 2.1261283615 2.1578616206 2.1895948798 2.2213281389 2.253061398 
2.2847946572 2.3165279163 2.3482611754 2.3799944345 2.4117276937 2.4434609528 2.4751942119 2.506927471 2.5386607302 
2.5703939893 2.6021272484 2.6338605076 2.6655937667 2.6973270258 2.7290602849 2.7607935441 2.7925268032 2.8242600623 
2.8559933214 2.8877265806 2.9194598397 2.9511930988 2.982926358 3.0146596171 3.0463928762 3.0781261353 3.1098593945 
3.1415926536 
_radius 1 100 double
1.1198308511e-15 0.012433978926 0.024854326352 0.037234135506 0.049538496859 0.061723656388 0.073738593359 0.085528410669 0.097038389688 
0.10821746322 0.11902024474 0.12940744144 0.13934515048 0.1488038996 0.15775822861 0.16618718279 0.17407549084 0.18141469362 
0.18820335846 0.1944458842 0.20015010865 0.20532458641 0.20997665924 0.21411218209 0.21773714154 0.22086067698 0.22349844766 
0.22567506574 0.22742451509 0.22878804413 0.22980977152 0.23053091759 0.23098395531 0.23118795812 0.23114604458 0.23084523427 
0.2302584558 0.22934810154 0.22807051568 0.22638107544 0.22423986455 0.22161808136 0.21850511326 0.2149156955 0.21089598014 
0.20652693286 0.20192343408 0.19722787717 0.19259795154 0.18818959896 0.18413760761 0.18053758546 0.17743371847 0.17481633302 
0.17263135899 0.17080024706 0.16924484109 0.16790923077 0.16677106386 0.16583788486 0.16512910411 0.16465079506 0.16437592264 
0.16424082122 0.16415866932 0.16404144221 0.16382071102 0.16346158124 0.16296769309 0.16237743549 0.16175315492 0.16116639553 
0.16068273536 0.16034926282 0.16018628036 0.16018307323 0.16029639052 0.16045020843 0.16053633417 0.16041676677 0.15992942571 
0.15889829501 0.15714755745 0.15451779506 0.15088149071 0.14615507982 0.14030552911 0.13335058341 0.12535309733 0.11641092088 
0.10664438087 0.09618343632 0.085156246292 0.07368040568 0.061857602669 0.049771910911 0.037491304379 0.025071357629 0.012559711562 
8.7401531314e-16 
_area 1 100 double
0 0.00044503654095 0.001777048132 0.003984280147 0.0070401695643 0.010896832758 0.015482421315 0.020705477184 0.026466294889 
0.032671351587 0.039244220803 0.046126999069 0.053270572257 0.060618193532 0.068091319942 0.075586170635 0.082983498318 0.090166210656 
0.097035480708 0.10351865121 0.10956834995 0.11515632692 0.12026616946 0.12488849013 0.12902104818 0.13267316262 0.13586977315 
0.13864982143 0.14105817993 0.14313592003 0.14491420333 0.14641222858 0.14763452669 0.14856185715 0.14913900599 0.14928160823 
0.14891610295 0.14802973194 0.14669846874 0.14503268966 0.14303969006 0.14065051124 0.13779667218 0.13442845984 0.13053045981 
0.12614507935 0.12139389838 0.11648339824 0.11168336062 0.10727569011 0.10348841991 0.10043645414 0.098081754229 0.096229249757 
0.094583235231 0.092847181013 0.090804811302 0.08835639262 0.085521238522 0.08241795268 0.079231102986 0.076174508523 0.073453993263 
0.071204154047 0.069396517836 0.067845046088 0.066332856113 0.064712254307 0.062935629416 0.061047674555 0.059160050367 0.057422619291 
0.055943291712 0.054750891199 0.053888611055 0.053436349716 0.053531451181 0.054118064069 0.055084500394 0.056241756631 0.057359907058 
0.058192252027 0.058496723984 0.058060678643 0.056727873285 0.054421327245 0.051154953763 0.047030034579 0.04221766194 0.036932637478 
0.031406136397 0.025863297067 0.020508812367 0.015520348988 0.011047653317 0.0072147736133 0.0041231394838 0.0018536506504 0.00046665440291 
1.4706967621e-17 
