# vtk DataFile Version 5.1
vtk output
ASCII
DATASET POLYDATA
POINTS 100 float
-0.118993 -0.061847 0.654038 -0.119221 -0.0616832 0.654187 -0.119884 -0.0610469 0.654549 
-0.1209 -0.059957 0.655022 -0.122136 -0.0584431 0.655451 -0.123426 -0.0565412 0.655641 
-0.124584 -0.0542896 0.655379 -0.12542 -0.0517246 0.654454 -0.125757 -0.0488756 0.652677 
-0.12544 -0.0457627 0.649898 -0.124353 -0.0423945 0.646017 -0.122412 -0.038768 0.640992 
-0.119575 -0.0348703 0.634837 -0.115833 -0.0306813 0.627614 -0.111201 -0.0261784 0.619423 
-0.105713 -0.0213414 0.610385 -0.0994077 -0.0161574 0.600626 -0.0923261 -0.0106258 0.590262 
-0.0845025 -0.00476187 0.579386 -0.0759642 0.00140125 0.568056 -0.0667327 0.00781146 0.556293 
-0.056829 0.014399 0.544084 -0.0462801 0.021079 0.531385 -0.0351263 0.0277555 0.518127 
-0.0234288 0.0343257 0.504234 -0.0112739 0.0406858 0.489629 0.00122487 0.0467354 0.474247 
0.0139289 0.0523821 0.458041 0.0266806 0.0575451 0.440988 0.039312 0.0621576 0.423087 
0.0516569 0.0661683 0.404363 0.0635616 0.0695411 0.384851 0.074897 0.0722554 0.3646 
0.0855665 0.0743037 0.343659 0.0955109 0.075691 0.322073 0.104708 0.0764325 0.299877 
0.113169 0.0765521 0.2771 0.120928 0.0760814 0.253759 0.128032 0.0750583 0.229873 
0.134524 0.0735265 0.205459 0.140434 0.0715348 0.180549 0.145763 0.0691367 0.155193 
0.150479 0.0663891 0.129465 0.154513 0.0633521 0.103466 0.157764 0.0600871 0.0773258 
0.160103 0.0566555 0.0511964 0.161391 0.0531168 0.025247 0.16149 0.0495267 -0.000347336 
0.160284 0.0459359 -0.0254171 0.157692 0.0423883 -0.0498101 0.153681 0.0389207 -0.0734022 
0.148276 0.0355623 -0.0961058 0.14156 0.032336 -0.117875 0.133673 0.029259 -0.138705 
0.124802 0.0263452 -0.158633 0.115164 0.0236067 -0.177725 0.104995 0.0210562 -0.196074 
0.0945273 0.0187083 -0.213783 0.0839752 0.0165809 -0.230957 0.073519 0.014695 -0.24769 
0.063296 0.0130747 -0.264062 0.0533946 0.0117453 -0.28013 0.0438553 0.0107313 -0.295927 
0.034675 0.0100542 -0.311465 0.0258166 0.00972937 -0.326738 0.0172197 0.00976385 -0.341729 
0.0088132 0.0101546 -0.356416 0.000526583 0.0108873 -0.37078 -0.00770063 0.0119363 -0.384808 
-0.0159126 0.0132661 -0.398496 -0.0241343 0.0148323 -0.411854 -0.0323718 0.0165854 -0.424897 
-0.0406158 0.0184731 -0.437647 -0.0488464 0.0204438 -0.450123 -0.057039 0.0224496 -0.46234 
-0.0651699 0.0244483 -0.474299 -0.0732193 0.0264052 -0.485984 -0.0811742 0.0282937 -0.497363 
-0.0890269 0.0300946 -0.508384 -0.0967728 0.0317954 -0.518979 -0.104406 0.0333883 -0.529071 
-0.111915 0.0348686 -0.538577 -0.119276 0.0362326 -0.547418 -0.126453 0.0374763 -0.555527 
-0.133395 0.0385946 -0.562851 -0.140037 0.0395812 -0.56936 -0.146303 0.040429 -0.575046 
-0.152116 0.0411317 -0.579929 -0.157402 0.0416851 -0.584047 -0.162101 0.0420892 -0.587459 
-0.166172 0.0423492 -0.590237 -0.169597 0.0424771 -0.59246 -0.172387 0.0424915 -0.594212 
-0.17458 0.0424174 -0.59557 -0.176235 0.0422843 -0.596607 -0.177428 0.0421244 -0.597386 
-0.178239 0.0419699 -0.597957 -0.178746 0.0418495 -0.598359 -0.179012 0.0417864 -0.598618 
-0.179079 0.0417954 -0.598749 
LINES 2 100
OFFSETS vtktypeint64
0 100 
CONNECTIVITY vtktypeint64
0 1 2 3 4 5 6 7 8 
9 10 11 12 13 14 15 16 17 
18 19 20 21 22 23 24 25 26 
27 28 29 30 31 32 33 34 35 
36 37 38 39 40 41 42 43 44 
45 46 47 48 49 50 51 52 53 
54 55 56 57 58 59 60 61 62 
63 64 65 66 67 68 69 70 71 
72 73 74 75 76 77 78 79 80 
81 82 83 84 85 86 87 88 89 
90 91 92 93 94 95 96 97 98 
99 
POINT_DATA 100
FIELD FieldData 3
_theta 1 100 double
0 0.031733259127 0.063466518254 0.095199777382 0.12693303651 0.15866629564 0.19039955476 0.22213281389 0.25386607302 
0.28559933214 0.31733259127 0.3490658504 0.38079910953 0.41253236865 0.44426562778 0.47599888691 0.50773214603 0.53946540516 
0.57119866429 0.60293192342 0.63466518254 0.66639844167 0.6981317008 0.72986495992 0.76159821905 0.79333147818 0.82506473731 
0.85679799643 0.88853125556 0.92026451469 0.95199777382 0.98373103294 1.0154642921 1.0471975512 1.0789308103 1.1106640695 
1.1423973286 1.1741305877 1.2058638468 1.237597106 1.2693303651 1.3010636242 1.3327968833 1.3645301425 1.3962634016 
1.4279966607 1.4597299198 1.491463179 1.5231964381 1.5549296972 1.5866629564 1.6183962155 1.6501294746 1.6818627337 
1.7135959929 1.745329252 1.7770625111 1.8087957702 1.8405290294 1.8722622885 1.9039955476 1.9357288068 1.9674620659 
1.999195325 2.0309285841 2.0626618433 2.0943951024 2.1261283615 2.1578616206 2.1895948798 2.2213281389 2.253061398 
2.2847946572 2.3165279163 2.3482611754 2.3799944345 2.4117276937 2.4434609528 2.4751942119 2.506927471 2.5386607302 
2.5703939893 2.6021272484 2.6338605076 2.6655937667 2.6973270258 2.7290602849 2.7607935441 2.7925268032 2.8242600623 
2.8559933214 2.8877265806 2.9194598397 2.9511930988 2.982926358 3.0146596171 3.0463928762 3.0781261353 3.1098593945 
3.1415926536 
_radius 1 100 double
1.0046071068e-15 0.015904992102 0.031647153573 0.047066204549 0.062015427066 0.076366567207 0.090012482289 0.10286727377 0.11486425617 
0.12595267006 0.13609431383 0.14526113294 0.15343432683 0.16060491142 0.16677516643 0.1719601984 0.17618900027 0.17950474897 
0.18196442363 0.18363796362 0.18460708008 0.18496360556 0.18480709847 0.18424145297 0.18337051793 0.18229309847 0.18109803684 
0.17986020537 0.17863812726 0.1774735943 0.17639316648 0.1754109655 0.17453189872 0.17375451699 0.17307313466 0.17247947916 
0.17196469005 0.17152251213 0.17115372255 0.17087054903 0.17069903929 0.17067778199 0.17085306151 0.17127272825 0.17198224509 
0.17302495056 0.17444513286 0.17628998443 0.17860694996 0.18143555992 0.18479551743 0.18867436912 0.1930184339 0.19773003264 
0.20267254095 0.20768259183 0.21258669796 0.21721867846 0.22143485607 0.22512534935 0.22822099019 0.23069601628 0.2325668369 
0.23388717469 0.23473998312 0.23522678748 0.23545541934 0.23552737593 0.23552612699 0.23550758152 0.23549366905 0.23546965212 
0.23538538397 0.2351602407 0.23469095761 0.23386125122 0.23255202774 0.23065110464 0.2280615534 0.22470792313 0.22053976055 
0.21553207581 0.20968275662 0.20300737076 0.19553223389 0.18728694558 0.17829772236 0.16858272859 0.15815023227 0.14699986244 
0.13512664114 0.12252695014 0.1092052921 0.095180674575 0.080491652502 0.065199405821 0.049388579885 0.033165895394 0.016656728192 
1.3903980895e-15 
_area 1 100 double
0 0.0005601536079 0.0022361453165 0.0050081690884 0.0088255816751 0.013590788422 0.019150708562 0.025300227338 0.031797528256 
0.038387491821 0.04482693822 0.050904916074 0.056453180794 0.06134636269 0.065496257006 0.068847035694 0.07137607061 0.073099895053 
0.074080079073 0.074422436735 0.074266606242 0.073769331073 0.073087069743 0.072362668796 0.07172305684 0.071293454433 0.071233428303 
0.071433703664 0.071801207913 0.072287302817 0.072872638591 0.073531555303 0.074216031504 0.074899690448 0.075571034774 0.076235593016 
0.076921418618 0.077667887507 0.078485829042 0.079339454725 0.080193081965 0.081068503862 0.082068891223 0.083369076182 0.085108673243 
0.087227749531 0.089563397953 0.092007492708 0.094529996714 0.097160798555 0.099971378042 0.10305724858 0.10651447332 0.11040582285 
0.11472519256 0.11938026002 0.1242027713 0.12897471293 0.13345564676 0.13741161753 0.14065043895 0.1430473086 0.14455092182 
0.14518701268 0.14507118508 0.14437951217 0.14326180989 0.14187457434 0.14036614273 0.13883144236 0.13732402726 0.1358529771 
0.13437510676 0.1328060799 0.13104236814 0.12898059908 0.12652731238 0.12359963321 0.12012107665 0.11601883062 0.11122993604 
0.1057190646 0.099499753667 0.092645593584 0.085284402409 0.077578373279 0.069698354132 0.061800598672 0.054012065842 0.046427211065 
0.03911577081 0.032137790145 0.025560109362 0.019468699479 0.013973387828 0.009204243199 0.0053009465199 0.0023975914379 0.00060589364319 
3.6429192996e-17 
