# vtk DataFile Version 5.1
vtk output
ASCII
DATASET POLYDATA
POINTS 100 float
-0.282601 -0.0532062 0.732142 -0.281133 -0.0532047 0.73184 -0.276687 -0.0530329 0.730927 
-0.26949 -0.0526583 0.729382 -0.259899 -0.0520304 0.727175 -0.24837 -0.0510857 0.724279 
-0.235419 -0.0497529 0.720672 -0.221578 -0.0479602 0.716354 -0.207347 -0.0456417 0.711348 
-0.193156 -0.0427433 0.705704 -0.179332 -0.0392281 0.699498 -0.166073 -0.0350805 0.692822 
-0.153444 -0.0303074 0.685775 -0.141373 -0.0249395 0.678447 -0.129679 -0.0190289 0.670903 
-0.118091 -0.0126471 0.66317 -0.106293 -0.00588041 0.655224 -0.0939632 0.00117419 0.646985 
-0.0808195 0.00841417 0.638316 -0.0666556 0.0157358 0.629034 -0.0513734 0.023038 0.618921 
-0.0350023 0.0302254 0.607745 -0.0177039 0.03721 0.595285 0.000235771 0.0439122 0.581352 
0.0184293 0.0502607 0.565811 0.0364213 0.0561917 0.548598 0.0537301 0.0616476 0.529731 
0.0698927 0.0665759 0.509309 0.0845089 0.0709285 0.487506 0.0972792 0.0746608 0.464554 
0.108032 0.0777328 0.440726 0.11674 0.0801093 0.416306 0.123518 0.0817625 0.391564 
0.128609 0.0826737 0.366734 0.132357 0.0828362 0.341991 0.135164 0.0822579 0.317444 
0.137452 0.080963 0.293126 0.139613 0.0789936 0.269004 0.141967 0.0764099 0.244985 
0.144729 0.0732894 0.220942 0.147986 0.0697247 0.196728 0.151692 0.06582 0.172205 
0.155673 0.0616873 0.147261 0.15965 0.0574404 0.121828 0.163268 0.0531906 0.095894 
0.16614 0.0490406 0.069504 0.167891 0.0450802 0.0427592 0.168193 0.0413822 0.0158063 
0.166806 0.0379998 -0.0111774 0.163599 0.0349656 -0.0380004 0.158563 0.0322916 -0.0644753 
0.15181 0.029971 -0.0904344 0.143556 0.0279817 -0.115743 0.134096 0.0262898 -0.140306 
0.123774 0.0248548 -0.164073 0.112944 0.0236346 -0.187035 0.101938 0.0225901 -0.209217 
0.091032 0.0216896 -0.230673 0.0804306 0.0209121 -0.251471 0.070252 0.0202493 -0.271688 
0.0605305 0.0197066 -0.291396 0.0512274 0.0193019 -0.310661 0.0422502 0.0190643 -0.329537 
0.0334773 0.0190303 -0.348068 0.0247844 0.0192404 -0.366284 0.0160691 0.0197343 -0.384211 
0.00726944 0.0205467 -0.40187 -0.00162428 0.0217027 -0.419277 -0.0105673 0.0232148 -0.436449 
-0.0194667 0.0250799 -0.453398 -0.0281959 0.0272782 -0.47013 -0.0366132 0.029773 -0.486639 
-0.0445845 0.0325123 -0.502906 -0.0520027 0.035431 -0.51889 -0.0588051 0.0384547 -0.534529 
-0.0649824 0.0415041 -0.54974 -0.070581 0.0444993 -0.564422 -0.0756963 0.0473649 -0.578463 
-0.0804583 0.050034 -0.59175 -0.0850126 0.0524523 -0.604181 -0.089498 0.0545804 -0.615673 
-0.0940251 0.0563955 -0.626178 -0.0986585 0.0578916 -0.635686 -0.103405 0.0590786 -0.644228 
-0.108212 0.0599804 -0.651881 -0.112968 0.0606316 -0.658753 -0.117524 0.0610742 -0.664978 
-0.121706 0.0613539 -0.670702 -0.125342 0.061516 -0.67606 -0.128289 0.0616024 -0.681169 
-0.130448 0.0616486 -0.686108 -0.131786 0.0616821 -0.690911 -0.132339 0.0617216 -0.695562 
-0.132213 0.0617767 -0.699998 -0.131573 0.0618494 -0.704113 -0.130621 0.0619358 -0.707774 
-0.129576 0.0620279 -0.710837 -0.128645 0.0621161 -0.713163 -0.127999 0.0621919 -0.714639 
-0.127746 0.062249 -0.715185 
LINES 2 100
OFFSETS vtktypeint64
0 100 
CONNECTIVITY vtktypeint64
0 1 2 3 4 5 6 7 8 
9 10 11 12 13 14 15 16 17 
18 19 20 21 22 23 24 25 26 
27 28 29 30 31 32 33 34 35 
36 37 38 39 40 41 42 43 44 
45 46 47 48 49 50 51 52 53 
54 55 56 57 58 59 60 61 62 
63 64 65 66 67 68 69 70 71 
72 73 74 75 76 77 78 79 80 
81 82 83 84 85 86 87 88 89 
90 91 92 93 94 95 96 97 98 
99 
POINT_DATA 100
FIELD FieldData 3
_theta 1 100 double
0 0.031733259127 0.063466518254 0.095199777382 0.12693303651 0.15866629564 0.19039955476 0.22213281389 0.25386607302 
0.28559933214 0.31733259127 0.3490658504 0.38079910953 0.41253236865 0.44426562778 0.47599888691 0.50773214603 0.53946540516 
0.57119866429 0.60293192342 0.63466518254 0.66639844167 0.6981317008 0.72986495992 0.76159821905 0.79333147818 0.82506473731 
0.85679799643 0.88853125556 0.92026451469 0.95199777382 0.98373103294 1.0154642921 1.0471975512 1.0789308103 1.1106640695 
1.1423973286 1.1741305877 1.2058638468 1.237597106 1.2693303651 1.3010636242 1.3327968833 1.3645301425 1.3962634016 
1.4279966607 1.4597299198 1.491463179 1.5231964381 1.5549296972 1.5866629564 1.6183962155 1.6501294746 1.6818627337 
1.7135959929 1.745329252 1.7770625111 1.8087957702 1.8405290294 1.8722622885 1.9039955476 1.9357288068 1.9674620659 
1.999195325 2.0309285841 2.0626618433 2.0943951024 2.1261283615 2.1578616206 2.1895948798 2.2213281389 2.253061398 
2.2847946572 2.3165279163 2.3482611754 2.3799944345 2.4117276937 2.4434609528 2.4751942119 2.506927471 2.5386607302 
2.5703939893 2.6021272484 2.6338605076 2.6655937667 2.6973270258 2.7290602849 2.7607935441 2.7925268032 2.8242600623 
2.8559933214 2.8877265806 2.9194598397 2.9511930988 2.982926358 3.0146596171 3.0463928762 3.0781261353 3.1098593945 
3.1415926536 
_radius 1 100 double
3.7263863057e-16 0.018708112709 0.037029587111 0.054608859738 0.071158389442 0.086480857393 0.10047877715 0.11315018053 0.12457099144 
0.13486664537 0.1441773468 0.1526228895 0.16027372098 0.16713425702 0.17314202009 0.17818249513 0.18211593322 0.18481002059 
0.18617201968 0.18617533334 0.18487727562 0.18242603383 0.17905539622 0.17506683218 0.17080114342 0.1666063044 0.16281067321 
0.15970599215 0.15753537345 0.15647892379 0.1566369207 0.15801820016 0.16054105949 0.164046754 0.16831760854 0.17308605535 
0.17803022975 0.18278376629 0.18698585134 0.1903481871 0.19270178532 0.19401179212 0.19436698281 0.19395491509 0.19303168041 
0.19189136263 0.19083688917 0.19015202906 0.19007423145 0.19076965172 0.19231420787 0.19468587714 0.19777153128 0.20138676302 
0.2053029535 0.20927528284 0.21306768857 0.2164732227 0.21932946356 0.22152887857 0.22302397168 0.22382705266 0.22400466191 
0.22366711511 0.22295426539 0.22201925781 0.22101248819 0.22006787438 0.21929277346 0.21876165535 0.2185125479 0.2185449477 
0.21881857033 0.21925348408 0.21973289149 0.22010952101 0.22021546812 0.21987403085 0.21891130283 0.21716549698 0.2144931803 
0.21077320581 0.20591017513 0.19983906346 0.19253132366 0.18400121712 0.1743100828 0.16356593635 0.15191608103 0.13953157068 
0.12658519079 0.11322900245 0.099579807874 0.085716903129 0.071689440289 0.057527667251 0.043253666541 0.028889366125 0.014460991591 
7.1204430985e-16 
_area 1 100 double
0 0.00062308260946 0.0024656888266 0.0054481654453 0.0094403536472 0.014269567541 0.019735038328 0.025625520881 0.031734535897 
0.037870046302 0.043859758949 0.049554952722 0.054834320271 0.059608712585 0.063827734044 0.067491506646 0.070494901643 0.072664616954 
0.074033225324 0.074856866405 0.075311433688 0.0754036745 0.075091942378 0.074331177966 0.073085864676 0.071264120225 0.069051173345 
0.066807875847 0.064980524442 0.063999372414 0.064180850668 0.065664941109 0.068254753969 0.071538859042 0.075127158406 0.078743520545 
0.082272374206 0.085748280279 0.089300477136 0.092843443629 0.096119758817 0.099023118671 0.10152139598 0.10356193541 0.10506775227 
0.10601245321 0.10648700805 0.10669592261 0.10691215381 0.10742821033 0.10851177361 0.11036211777 0.11306767718 0.11657610537 
0.12069280857 0.12511085922 0.12946133103 0.13337178 0.13652362174 0.13869831249 0.13980090906 0.139854506 0.13897092394 
0.13731408751 0.13507263472 0.13244827128 0.1296624126 0.12700862732 0.12485468067 0.123248128 0.122130437 0.12147012434 
0.12119419741 0.12117652649 0.12125690298 0.12126036184 0.12099995676 0.1202640883 0.11881519698 0.11642162899 0.112900784 
0.10814539165 0.10213303464 0.094930547798 0.086697991209 0.077687984473 0.068233001557 0.058715767383 0.049523199548 0.040990259285 
0.033345812114 0.026672548785 0.020889166286 0.015818525599 0.011348213131 0.0074871841008 0.0043203344121 0.0019569234099 0.00049494548117 
3.1225022568e-17 
