# vtk DataFile Version 5.1
vtk output
ASCII
DATASET POLYDATA
POINTS 100 float
-0.0820146 0.0237933 0.590671 -0.081623 0.0241326 0.590659 -0.0805929 0.0253078 0.590533 
-0.0789667 0.0272501 0.590214 -0.0768071 0.02985 0.589583 -0.0741894 0.0329669 0.588491 
-0.071191 0.0364408 0.586776 -0.0678826 0.0401049 0.584282 -0.0643183 0.0437993 0.580871 
-0.0605296 0.0473821 0.576441 -0.0565221 0.0507402 0.57093 -0.0522752 0.053795 0.564321 
-0.0477467 0.0565063 0.556639 -0.0428801 0.0588715 0.547949 -0.0376136 0.0609217 0.538338 
-0.0318912 0.0627149 0.527907 -0.0256731 0.0643267 0.516757 -0.0189441 0.0658404 0.504976 
-0.0117194 0.0673361 0.492631 -0.00404683 0.068882 0.479761 0.00399528 0.0705256 0.466375 
0.0123038 0.0722887 0.45246 0.0207601 0.0741647 0.437982 0.0292408 0.0761183 0.422897 
0.0376303 0.0780885 0.407163 0.0458313 0.0799934 0.390745 0.0537742 0.0817369 0.373627 
0.0614222 0.0832162 0.355815 0.0687727 0.0843302 0.337336 0.0758543 0.0849863 0.318238 
0.0827193 0.0851075 0.298584 0.0894328 0.0846371 0.278442 0.0960599 0.0835425 0.257879 
0.102652 0.0818162 0.236953 0.109236 0.0794761 0.215704 0.115799 0.0765632 0.194155 
0.122291 0.0731393 0.172307 0.128613 0.0692821 0.150146 0.134629 0.0650812 0.127648 
0.140171 0.0606332 0.104789 0.145048 0.056037 0.0815526 0.149068 0.0513896 0.0579413 
0.152047 0.0467822 0.0339834 0.153829 0.0422974 0.00973763 0.154298 0.0380067 -0.0147056 
0.153386 0.0339696 -0.0392269 0.151082 0.0302322 -0.0636839 0.14743 0.0268282 -0.0879211 
0.142526 0.0237788 -0.11178 0.136506 0.0210944 -0.135112 0.129539 0.018776 -0.157788 
0.121808 0.0168173 -0.179706 0.113499 0.0152062 -0.200801 0.104785 0.0139275 -0.221043 
0.0958159 0.0129637 -0.240437 0.0867111 0.0122971 -0.259019 0.0775546 0.0119103 -0.276848 
0.0683949 0.0117872 -0.293998 0.0592498 0.0119125 -0.310551 0.0501118 0.0122717 -0.326585 
0.0409576 0.0128504 -0.34217 0.0317569 0.013633 -0.357362 0.0224813 0.0146023 -0.372204 
0.0131119 0.0157381 -0.386724 0.00364453 0.0170172 -0.400935 -0.00590811 0.018413 -0.414842 
-0.0155167 0.019896 -0.428443 -0.0251383 0.0214343 -0.441734 -0.0347213 0.0229956 -0.454706 
-0.0442116 0.0245479 -0.467354 -0.0535587 0.0260618 -0.479668 -0.0627219 0.0275118 -0.491636 
-0.0716741 0.0288774 -0.503241 -0.0804038 0.0301443 -0.514461 -0.0889157 0.0313038 -0.525262 
-0.0972273 0.0323531 -0.535605 -0.105365 0.0332935 -0.545443 -0.113358 0.034129 -0.554727 
-0.121232 0.0348644 -0.56341 -0.129003 0.0355033 -0.571455 -0.136672 0.0360464 -0.578837 
-0.144219 0.0364904 -0.585551 -0.151608 0.0368276 -0.591616 -0.158782 0.0370462 -0.597074 
-0.16567 0.0371318 -0.601991 -0.17219 0.0370691 -0.60645 -0.17826 0.0368448 -0.610543 
-0.183803 0.0364505 -0.614364 -0.188754 0.0358852 -0.618 -0.19307 0.0351575 -0.621516 
-0.19673 0.0342876 -0.624955 -0.19974 0.0333069 -0.628325 -0.202133 0.032258 -0.631604 
-0.203963 0.0311918 -0.634736 -0.205302 0.0301652 -0.637642 -0.206233 0.0292365 -0.640226 
-0.206838 0.0284615 -0.642386 -0.207195 0.0278889 -0.644028 -0.207364 0.0275564 -0.645072 
-0.207384 0.0274873 -0.645469 
LINES 2 100
OFFSETS vtktypeint64
0 100 
CONNECTIVITY vtktypeint64
0 1 2 3 4 5 6 7 8 
9 10 11 12 13 14 15 16 17 
18 19 20 21 22 23 24 25 26 
27 28 29 30 31 32 33 34 35 
36 37 38 39 40 41 42 43 44 
45 46 47 48 49 50 51 52 53 
54 55 56 57 58 59 60 61 62 
63 64 65 66 67 68 69 70 71 
72 73 74 75 76 77 78 79 80 
81 82 83 84 85 86 87 88 89 
90 91 92 93 94 95 96 97 98 
99 
POINT_DATA 100
FIELD FieldData 3
_theta 1 100 double
0 0.031733259127 0.063466518254 0.095199777382 0.12693303651 0.15866629564 0.19039955476 0.22213281389 0.25386607302 
0.28559933214 0.31733259127 0.3490658504 0.38079910953 0.41253236865 0.44426562778 0.47599888691 0.50773214603 0.53946540516 
0.57119866429 0.60293192342 0.63466518254 0.66639844167 0.6981317008 0.72986495992 0.76159821905 0.79333147818 0.82506473731 
0.85679799643 0.88853125556 0.92026451469 0.95199777382 0.98373103294 1.0154642921 1.0471975512 1.0789308103 1.1106640695 
1.1423973286 1.1741305877 1.2058638468 1.237597106 1.2693303651 1.3010636242 1.3327968833 1.3645301425 1.3962634016 
1.4279966607 1.4597299198 1.491463179 1.5231964381 1.5549296972 1.5866629564 1.6183962155 1.6501294746 1.6818627337 
1.7135959929 1.745329252 1.7770625111 1.8087957702 1.8405290294 1.8722622885 1.9039955476 1.9357288068 1.9674620659 
1.999195325 2.0309285841 2.0626618433 2.0943951024 2.1261283615 2.1578616206 2.1895948798 2.2213281389 2.253061398 
2.2847946572 2.3165279163 2.3482611754 2.3799944345 2.4117276937 2.4434609528 2.4751942119 2.506927471 2.5386607302 
2.5703939893 2.6021272484 2.6338605076 2.6655937667 2.6973270258 2.7290602849 2.7607935441 2.7925268032 2.8242600623 
2.8559933214 2.8877265806 2.9194598397 2.9511930988 2.982926358 3.0146596171 3.0463928762 3.0781261353 3.1098593945 
3.1415926536 
_radius 1 100 double
9.0918709251e-16 0.014729061458 0.029372748441 0.043844829737 0.058066853669 0.071969175675 0.08548934392 0.098568632813 0.11114819405 
0.12316651772 0.134559478 0.1452632064 0.15521876183 0.16437664852 0.17269918189 0.18015966668 0.18673898334 0.19242172687 
0.19719469454 0.20104981831 0.2039917512 0.20604809118 0.2072787929 0.2077812622 0.20768869335 0.20716080946 0.20636790816 
0.2054708134 0.20460072115 0.20384348921 0.20323209723 0.20274881609 0.20233598568 0.20191235867 0.20139134353 0.20069806246 
0.19978332224 0.19863362873 0.19727677374 0.19578243155 0.19425730574 0.1928352403 0.19166415506 0.19089268971 0.19065906566 
0.19108291582 0.19225885859 0.19424984446 0.197079369 0.20072374869 0.20510720805 0.2101024004 0.21553741778 0.22120853341 
0.22689681521 0.23238645707 0.2374828036 0.24202826124 0.24591451374 0.24908976544 0.25156018324 0.25338528327 0.25466764845 
0.25553800432 0.2561372782 0.25659776045 0.25702575938 0.25748803699 0.25800372842 0.25854245618 0.25902823027 0.25934785003 
0.25936214974 0.25891855521 0.25786380125 0.25605600243 0.25337540616 0.24973312054 0.24507705342 0.23939437385 0.23271007593 
0.22508166679 0.21659054263 0.20733117443 0.19739970223 0.18688380823 0.17585563608 0.16436889721 0.15246020434 0.14015349054 
0.12746568157 0.11441190962 0.10100930459 0.087279278162 0.073248782923 0.058951114284 0.044426533218 0.029722584726 0.01489373554 
8.2214309397e-16 
_area 1 100 double
0 0.00060387457848 0.0023907210078 0.0052875794505 0.0091773103077 0.01390545522 0.019291152079 0.02514329667 0.031280438677 
0.037547856542 0.043821418348 0.04999396282 0.055960559938 0.061628773815 0.066957026304 0.07198952312 0.076807266088 0.081383933427 
0.085565127935 0.089157140215 0.09198051829 0.09390245648 0.09487192205 0.094949002601 0.09430869877 0.093212877264 0.091964098976 
0.090860503737 0.090159799513 0.09004754639 0.090606935924 0.091803868539 0.093506471414 0.095529063929 0.097668161152 0.09972052836 
0.10150092623 0.10287309982 0.10378488308 0.10429021554 0.10454870648 0.10480307132 0.10532987678 0.10633343225 0.10785865326 
0.1098896298 0.11246034846 0.11565390016 0.11956458759 0.1242623532 0.12976559999 0.13602385706 0.14291045516 0.15022357545 
0.15769504476 0.16500885166 0.17183116791 0.17784943729 0.18281302363 0.18656581409 0.18906325827 0.19037157755 0.19065321397 
0.19014523861 0.18913164803 0.18790371139 0.1867095669 0.18571058485 0.1849625745 0.18442023956 0.18395122701 0.18335178728 
0.18236477235 0.1807041719 0.17808853844 0.174279971 0.16911998973 0.16255335899 0.15463568059 0.14552588319 0.13546712155 
0.12475930986 0.1137256698 0.10267606758 0.091871999515 0.08150060222 0.071665328277 0.062396728976 0.053679233054 0.045483594946 
0.037793951224 0.030622904291 0.024014119474 0.018036171551 0.012772568085 0.0083116854266 0.0047382836087 0.0021266484286 0.00053485532746 
9.1967442667e-17 
