# vtk DataFile Version 5.1
vtk output
ASCII
DATASET POLYDATA
POINTS 100 float
-0.0815875 -0.0276384 0.684742 -0.081656 -0.0276902 0.684485 -0.081849 -0.027653 0.683622 
-0.0821438 -0.0274654 0.682127 -0.0825033 -0.0270349 0.679965 -0.082877 -0.0262506 0.677098 
-0.0832022 -0.0249969 0.673494 -0.0834065 -0.023169 0.669133 -0.0834091 -0.0206868 0.664015 
-0.0831227 -0.0175058 0.658162 -0.0824565 -0.0136243 0.651619 -0.0813174 -0.00908443 0.644447 
-0.0796138 -0.00396951 0.636721 -0.0772576 0.00160395 0.628515 -0.0741684 0.0074973 0.619896 
-0.0702765 0.0135626 0.610908 -0.0655278 0.0196557 0.601568 -0.0598872 0.0256473 0.591856 
-0.0533432 0.0314318 0.58172 -0.0459103 0.0369315 0.571074 -0.0376316 0.042097 0.559807 
-0.0285788 0.0469039 0.547798 -0.0188508 0.0513457 0.534927 -0.0085699 0.0554257 0.521091 
0.0021242 0.0591479 0.506215 0.0130819 0.0625092 0.490268 0.0241528 0.0654939 0.473262 
0.0351949 0.0680718 0.455257 0.0460838 0.0701993 0.436356 0.0567197 0.0718241 0.416694 
0.067033 0.0728931 0.396425 0.0769856 0.073361 0.375704 0.0865694 0.0731993 0.354673 
0.0958012 0.0724046 0.333448 0.104714 0.0710031 0.312104 0.113344 0.0690531 0.29067 
0.121724 0.0666422 0.269131 0.129863 0.0638819 0.247432 0.137744 0.0608983 0.225489 
0.145308 0.0578213 0.203202 0.15246 0.0547732 0.180475 0.159062 0.0518576 0.157228 
0.164947 0.0491518 0.133414 0.169922 0.046701 0.109032 0.173791 0.0445177 0.0841277 
0.176368 0.0425845 0.0587979 0.177493 0.0408599 0.0331831 0.177053 0.039288 0.0074579 
0.17499 0.037808 -0.0181831 0.17131 0.0363649 -0.0435409 0.166089 0.0349175 -0.0684279 
0.159462 0.0334444 -0.0926814 0.15162 0.0319473 -0.116175 0.142791 0.0304494 -0.138824 
0.133223 0.0289915 -0.160587 0.123162 0.0276254 -0.181464 0.112839 0.026406 -0.201487 
0.102444 0.0253831 -0.220713 0.0921217 0.0245938 -0.239211 0.0819623 0.0240585 -0.257054 
0.0719988 0.0237779 -0.274305 0.0622142 0.0237349 -0.291019 0.0525514 0.0238979 -0.307233 
0.0429275 0.0242269 -0.322969 0.03325 0.0246813 -0.33824 0.0234329 0.0252265 -0.353053 
0.0134117 0.0258401 -0.367418 0.00315364 0.026516 -0.381354 -0.00733493 0.027265 -0.394894 
-0.0180079 0.0281128 -0.408087 -0.0287828 0.029095 -0.421 -0.039549 0.0302503 -0.433712 
-0.0501789 0.031612 -0.446308 -0.060541 0.0332003 -0.458869 -0.0705125 0.035016 -0.471466 
-0.0799913 0.0370364 -0.484146 -0.088904 0.0392145 -0.496922 -0.0972107 0.0414819 -0.509771 
-0.104906 0.0437548 -0.52263 -0.112016 0.0459425 -0.535396 -0.11859 0.0479572 -0.547931 
-0.124696 0.0497243 -0.560072 -0.130406 0.0511909 -0.571641 -0.135788 0.0523318 -0.582459 
-0.140902 0.0531527 -0.59236 -0.145787 0.0536885 -0.601203 -0.150465 0.0539989 -0.608882 
-0.154938 0.0541601 -0.615337 -0.159188 0.0542548 -0.620555 -0.163187 0.0543616 -0.624575 
-0.166898 0.0545447 -0.627482 -0.170283 0.054846 -0.629402 -0.173307 0.0552807 -0.630492 
-0.175945 0.0558358 -0.63093 -0.178176 0.0564734 -0.630905 -0.179992 0.0571372 -0.630599 
-0.181391 0.0577611 -0.630181 -0.182377 0.0582793 -0.629793 -0.182955 0.0586367 -0.629544 
-0.18313 0.0587967 -0.629498 
LINES 2 100
OFFSETS vtktypeint64
0 100 
CONNECTIVITY vtktypeint64
0 1 2 3 4 5 6 7 8 
9 10 11 12 13 14 15 16 17 
18 19 20 21 22 23 24 25 26 
27 28 29 30 31 32 33 34 35 
36 37 38 39 40 41 42 43 44 
45 46 47 48 49 50 51 52 53 
54 55 56 57 58 59 60 61 62 
63 64 65 66 67 68 69 70 71 
72 73 74 75 76 77 78 79 80 
81 82 83 84 85 86 87 88 89 
90 91 92 93 94 95 96 97 98 
99 
POINT_DATA 100
FIELD FieldData 3
_theta 1 100 double
0 0.031733259127 0.063466518254 0.095199777382 0.12693303651 0.15866629564 0.19039955476 0.22213281389 0.25386607302 
0.28559933214 0.31733259127 0.3490658504 0.38079910953 0.41253236865 0.44426562778 0.47599888691 0.50773214603 0.53946540516 
0.57119866429 0.60293192342 0.63466518254 0.66639844167 0.6981317008 0.72986495992 0.76159821905 0.79333147818 0.82506473731 
0.85679799643 0.88853125556 0.92026451469 0.95199777382 0.98373103294 1.0154642921 1.0471975512 1.0789308103 1.1106640695 
1.1423973286 1.1741305877 1.2058638468 1.237597106 1.2693303651 1.3010636242 1.3327968833 1.3645301425 1.3962634016 
1.4279966607 1.4597299198 1.491463179 1.5231964381 1.5549296972 1.5866629564 1.6183962155 1.6501294746 1.6818627337 
1.7135959929 1.745329252 1.7770625111 1.8087957702 1.8405290294 1.8722622885 1.9039955476 1.9357288068 1.9674620659 
1.999195325 2.0309285841 2.0626618433 2.0943951024 2.1261283615 2.1578616206 2.1895948798 2.2213281389 2.253061398 
2.2847946572 2.3165279163 2.3482611754 2.3799944345 2.4117276937 2.4434609528 2.4751942119 2.506927471 2.5386607302 
2.5703939893 2.6021272484 2.6338605076 2.6655937667 2.6973270258 2.7290602849 2.7607935441 2.7925268032 2.8242600623 
2.8559933214 2.8877265806 2.9194598397 2.9511930988 2.982926358 3.0146596171 3.0463928762 3.0781261353 3.1098593945 
3.1415926536 
_radius 1 100 double
3.4141896533e-16 0.015468064342 0.030713234158 0.045535003028 0.059778465187 0.073346958415 0.086204565206 0.09836814708 0.10989061258 
0.12083883043 0.13127056648 0.14121483277 0.15065915048 0.15954571513 0.16777669056 0.17522723681 0.18176371869 0.18726403442 
0.1916371587 0.19483959376 0.19688709562 0.19786050413 0.1979047406 0.19722027085 0.19604686005 0.19464049312 0.1932458922 
0.1920687043 0.19125231015 0.19086359973 0.19089010918 0.19124852325 0.19180256255 0.19238701569 0.19283414317 0.19299881157 
0.19277927734 0.19213113469 0.19107256936 0.18968037069 0.1880785059 0.18642305966 0.18488680553 0.18364449868 0.18285939115 
0.18267240369 0.18319501332 0.18450476821 0.18664090429 0.18959865979 0.19332357509 0.19770895705 0.20259954109 0.20780262396 
0.21310557457 0.21829657884 0.22318449477 0.22761414032 0.23147488092 0.23470225356 0.23727386023 0.23920156288 0.24052212773 
0.24128808474 0.24155993236 0.24140016464 0.24086910301 0.24002225867 0.23890891335 0.23757168327 0.23604687616 0.23436533688 
0.23255320171 0.23063172139 0.22861532898 0.22650757076 0.22429529504 0.22194230635 0.21938420896 0.21652619379 0.21324508605 
0.20939622035 0.20482481766 0.19938064482 0.19293398206 0.18539046862 0.17670238782 0.16687444923 0.15596305616 0.14406922502 
0.13132649266 0.11788603092 0.10390155021 0.089516318846 0.074853865361 0.06001296024 0.045066616846 0.03006431012 0.015036421105 
8.0756892406e-16 
_area 1 100 double
0 0.00060999908364 0.0024040006348 0.0052795850594 0.0090827709797 0.013627701773 0.018716548645 0.024157132264 0.029778159313 
0.035442339266 0.041055356635 0.046565887433 0.051952524797 0.05719930067 0.062267852394 0.067075341901 0.071484550337 0.075310284467 
0.078343684662 0.080391571823 0.081322039495 0.081099618567 0.079816674119 0.077695643299 0.075025540344 0.072213197727 0.069728048642 
0.068087841292 0.067700521475 0.068673842218 0.070865969008 0.074001880465 0.077795020902 0.081777579877 0.085516722667 0.088599037017 
0.090691294418 0.091596199698 0.091272598898 0.089886196882 0.087820610237 0.085638513919 0.084025900427 0.083653469659 0.084960349958 
0.087998297403 0.091962475595 0.09624408433 0.10057094149 0.10484433418 0.10906808875 0.11332138534 0.11773631359 0.12246532161 
0.12762749915 0.13321540004 0.13901461232 0.14465458297 0.14973322716 0.15391556796 0.15698457705 0.1588476644 0.15951408817 
0.15906223792 0.15761281622 0.1553215372 0.15238799489 0.14898554152 0.14523417976 0.14129825575 0.13737061532 0.1336431785 
0.13022973803 0.1271243557 0.12425495158 0.12153911763 0.11889868734 0.11625508767 0.11351957022 0.1105845499 0.10732010375 
0.10357903173 0.099212598477 0.094095420289 0.088153639022 0.081388321198 0.073886815439 0.065818020492 0.057412162497 0.048930363458 
0.040632316806 0.032750404543 0.025475395346 0.01895396489 0.013294282448 0.0085746612859 0.004851528011 0.0021650794751 0.00054258630476 
6.7771096956e-17 
