# vtk DataFile Version 5.1
vtk output
ASCII
DATASET POLYDATA
POINTS 100 float
-0.140838 -0.066208 0.703773 -0.141006 -0.0662913 0.703702 -0.141513 -0.0663351 0.703472 
-0.142266 -0.0662871 0.703035 -0.143123 -0.0660663 0.702315 -0.143907 -0.0655716 0.701216 
-0.144422 -0.0646919 0.699634 -0.144479 -0.0633169 0.697465 -0.143909 -0.0613484 0.694617 
-0.142581 -0.0587094 0.691021 -0.140409 -0.0553511 0.686633 -0.137356 -0.0512575 0.681438 
-0.133434 -0.0464457 0.675452 -0.12869 -0.0409638 0.668718 -0.123196 -0.0348861 0.661297 
-0.117034 -0.0283053 0.653259 -0.110282 -0.0213252 0.644678 -0.102999 -0.0140521 0.635616 
-0.0952214 -0.00658776 0.626118 -0.0869549 0.000975529 0.616207 -0.0781815 0.00855833 0.605875 
-0.0688652 0.0160942 0.595088 -0.0589638 0.0235279 0.583784 -0.0484422 0.0308111 0.571881 
-0.0372861 0.0378975 0.559283 -0.0255128 0.0447374 0.545888 -0.0131788 0.051273 0.531599 
-0.000381844 0.0574351 0.51633 0.0127422 0.063142 0.500013 0.0260279 0.0683013 0.482603 
0.0392923 0.0728138 0.464084 0.0523499 0.0765806 0.444464 0.065027 0.0795104 0.423776 
0.0771756 0.0815294 0.402077 0.088682 0.0825891 0.379437 0.0994716 0.0826743 0.355943 
0.109508 0.0818074 0.331684 0.118786 0.0800512 0.306754 0.127321 0.0775069 0.281248 
0.135138 0.0743093 0.255254 0.142251 0.0706187 0.228859 0.148661 0.0666105 0.202145 
0.154334 0.0624632 0.175191 0.15921 0.0583461 0.148074 0.163193 0.0544082 0.12087 
0.166169 0.0507681 0.0936548 0.16801 0.0475085 0.0665047 0.168595 0.0446725 0.0394971 
0.167824 0.0422642 0.0127088 0.165638 0.0402534 -0.0137843 0.16203 0.0385821 -0.0399093 
0.157051 0.0371739 -0.0655973 0.150814 0.0359446 -0.0907853 0.143489 0.034812 -0.115417 
0.135291 0.0337053 -0.139442 0.126462 0.032572 -0.162821 0.117255 0.0313826 -0.185519 
0.107907 0.030132 -0.20751 0.0986263 0.0288378 -0.228774 0.0895746 0.0275369 -0.2493 
0.0808559 0.0262789 -0.269082 0.072514 0.0251195 -0.288122 0.0645358 0.0241134 -0.30643 
0.0568598 0.0233076 -0.324025 0.0493905 0.0227366 -0.340936 0.0420142 0.0224197 -0.357203 
0.0346172 0.0223598 -0.372876 0.0271008 0.0225456 -0.388016 0.0193945 0.022954 -0.40269 
0.0114636 0.0235557 -0.416975 0.00331196 0.0243195 -0.430945 -0.00502056 0.0252177 -0.444674 
-0.0134648 0.0262298 -0.458228 -0.0219325 0.0273447 -0.471659 -0.0303281 0.0285616 -0.484999 
-0.0385598 0.0298878 -0.498259 -0.0465496 0.0313362 -0.511423 -0.0542399 0.0329197 -0.52445 
-0.0615967 0.034647 -0.537271 -0.068609 0.0365163 -0.549794 -0.0752843 0.0385119 -0.561909 
-0.0816429 0.040601 -0.573495 -0.0877095 0.0427332 -0.584425 -0.0935062 0.0448425 -0.594577 
-0.0990456 0.0468512 -0.603841 -0.104327 0.0486763 -0.612129 -0.109336 0.0502367 -0.619376 
-0.114045 0.0514619 -0.625552 -0.118416 0.0522993 -0.63066 -0.122411 0.0527211 -0.634739 
-0.125992 0.0527288 -0.637859 -0.129133 0.0523548 -0.64012 -0.131817 0.0516614 -0.641644 
-0.134048 0.050736 -0.64257 -0.13584 0.049685 -0.643042 -0.137223 0.0486235 -0.643203 
-0.138232 0.0476658 -0.643183 -0.138905 0.0469147 -0.643094 -0.139275 0.0464515 -0.643022 
-0.139362 0.046329 -0.643021 
LINES 2 100
OFFSETS vtktypeint64
0 100 
CONNECTIVITY vtktypeint64
0 1 2 3 4 5 6 7 8 
9 10 11 12 13 14 15 16 17 
18 19 20 21 22 23 24 25 26 
27 28 29 30 31 32 33 34 35 
36 37 38 39 40 41 42 43 44 
45 46 47 48 49 50 51 52 53 
54 55 56 57 58 59 60 61 62 
63 64 65 66 67 68 69 70 71 
72 73 74 75 76 77 78 79 80 
81 82 83 84 85 86 87 88 89 
90 91 92 93 94 95 96 97 98 
99 
POINT_DATA 100
FIELD FieldData 3
_theta 1 100 double
0 0.031733259127 0.063466518254 0.095199777382 0.12693303651 0.15866629564 0.19039955476 0.22213281389 0.25386607302 
0.28559933214 0.31733259127 0.3490658504 0.38079910953 0.41253236865 0.44426562778 0.47599888691 0.50773214603 0.53946540516 
0.57119866429 0.60293192342 0.63466518254 0.66639844167 0.6981317008 0.72986495992 0.76159821905 0.79333147818 0.82506473731 
0.85679799643 0.88853125556 0.92026451469 0.95199777382 0.98373103294 1.0154642921 1.0471975512 1.0789308103 1.1106640695 
1.1423973286 1.1741305877 1.2058638468 1.237597106 1.2693303651 1.3010636242 1.3327968833 1.3645301425 1.3962634016 
1.4279966607 1.4597299198 1.491463179 1.5231964381 1.5549296972 1.5866629564 1.6183962155 1.6501294746 1.6818627337 
1.7135959929 1.745329252 1.7770625111 1.8087957702 1.8405290294 1.8722622885 1.9039955476 1.9357288068 1.9674620659 
1.999195325 2.0309285841 2.0626618433 2.0943951024 2.1261283615 2.1578616206 2.1895948798 2.2213281389 2.253061398 
2.2847946572 2.3165279163 2.3482611754 2.3799944345 2.4117276937 2.4434609528 2.4751942119 2.506927471 2.5386607302 
2.5703939893 2.6021272484 2.6338605076 2.6655937667 2.6973270258 2.7290602849 2.7607935441 2.7925268032 2.8242600623 
2.8559933214 2.8877265806 2.9194598397 2.9511930988 2.982926358 3.0146596171 3.0463928762 3.0781261353 3.1098593945 
3.1415926536 
_radius 1 100 double
3.7056552057e-16 0.015871275314 0.031642190697 0.047208977203 0.062477101882 0.07736223171 0.091788031733 0.10568197185 0.11897102243 
0.13157903213 0.14342678919 0.1544346807 0.16452697495 0.1736363912 0.18170784235 0.1887008558 0.1945908868 0.19937022612 
0.20304925928 0.20565842448 0.20725050378 0.20790218723 0.20771353315 0.20680426334 0.2053067833 0.20335708133 0.20108563851 
0.19861057849 0.19603433041 0.1934435586 0.1909108779 0.18849650717 0.18624852958 0.18420150722 0.18237448428 0.18077045188 
0.17937944193 0.1781860706 0.17718003275 0.17636608799 0.17576955861 0.17543445579 0.17541372687 0.17575434091 0.17648301541 
0.17759927152 0.17907939653 0.18088899168 0.18299725557 0.18538611225 0.18805099934 0.19099460657 0.19421761918 0.1977106821 
0.20144996459 0.2053963969 0.20949726033 0.21368870597 0.2178983827 0.22204795557 0.22605559658 0.22983859741 0.23331622848 
0.23641291868 0.23906173958 0.24120799896 0.2428124992 0.24385384028 0.24432921741 0.24425349709 0.2436567684 0.24258080863 
0.24107484954 0.23919076465 0.23697755169 0.23447500049 0.23170681127 0.22867403219 0.22535019856 0.22167963018 0.21757982994 
0.21294801418 0.20767090081 0.20163630632 0.19474491543 0.18692066718 0.17811844834 0.16832817734 0.1575748982 0.14591512231 
0.13343022785 0.12021812134 0.10638451277 0.092035065359 0.077269401536 0.062177524797 0.046838709053 0.031322420976 0.015690525914 
1.0103309895e-15 
_area 1 100 double
0 0.00063038339662 0.0025041090653 0.0055706623716 0.0097502212621 0.014936204605 0.020994269678 0.027758503576 0.035028531113 
0.042572071595 0.050135578515 0.057462089612 0.064312215342 0.070482961142 0.075820344098 0.080224656367 0.083650089723 0.086102015615 
0.087635360462 0.088357074883 0.088438645086 0.088177050523 0.087927546783 0.087657282648 0.087373366985 0.087070503815 0.086714190104 
0.086258476166 0.08566355203 0.084908983318 0.084013495308 0.083043682417 0.082073277876 0.081187440318 0.080444030294 0.079824862639 
0.079233047912 0.078546348277 0.07769696825 0.076746909404 0.075955074144 0.075824858821 0.076885027807 0.079090694125 0.082009939631 
0.08533569383 0.088757833857 0.091995339728 0.094926722941 0.097569959259 0.10005503347 0.10258429166 0.10537577805 0.10859767595 
0.11231857937 0.1165013253 0.12103510827 0.12577446051 0.13056547626 0.13525735922 0.13970427424 0.14376670435 0.14732697545 
0.15042207168 0.15304494665 0.15495149598 0.15600688595 0.15617063266 0.15548167408 0.15402974637 0.15189105113 0.14915898006 
0.14594812758 0.14237347633 0.13854095724 0.13454468179 0.1304654124 0.12636337209 0.12226146501 0.11812429607 0.1138457896 
0.10925724869 0.10415876327 0.098365894935 0.091757209808 0.084308937662 0.076108490551 0.067345115054 0.058281511044 0.049214429587 
0.040434843892 0.032197886447 0.024707494233 0.018112831757 0.012510315656 0.007948516181 0.0044368808088 0.0019588612405 0.00048751818392 
6.0715321659e-18 
