# vtk DataFile Version 5.1
vtk output
ASCII
DATASET POLYDATA
POINTS 100 float
-0.123503 -0.0613174 0.775756 -0.123627 -0.0609087 0.77579 -0.123844 -0.0595009 0.775765 
-0.124097 -0.0571408 0.775601 -0.124297 -0.0539041 0.775174 -0.124329 -0.0498888 0.774331 
-0.12406 -0.045208 0.772905 -0.12335 -0.0399817 0.770735 -0.122056 -0.0343285 0.767679 
-0.120043 -0.0283594 0.763626 -0.117189 -0.0221729 0.758512 -0.113387 -0.0158522 0.752315 
-0.108553 -0.00946523 0.745056 -0.102623 -0.00306635 0.736794 -0.095553 0.00330042 0.727608 
-0.0873229 0.00959722 0.717591 -0.0779315 0.0157882 0.706828 -0.0673986 0.0218362 0.695384 
-0.0557652 0.0277005 0.683299 -0.0430947 0.0333365 0.670574 -0.0294736 0.0386963 0.657171 
-0.0150129 0.0437319 0.643022 0.000151912 0.048398 0.62803 0.0158617 0.0526557 0.612081 
0.0319369 0.0564758 0.595061 0.0481823 0.0598409 0.576866 0.0643943 0.0627457 0.557412 
0.080369 0.065196 0.53665 0.095912 0.0672061 0.514565 0.110848 0.0687946 0.491182 
0.125027 0.0699798 0.46656 0.138335 0.0707754 0.440793 0.150693 0.0711871 0.413994 
0.162058 0.0712107 0.386294 0.17242 0.0708328 0.357831 0.181793 0.070033 0.328739 
0.190206 0.0687894 0.299152 0.197694 0.067084 0.269194 0.204281 0.0649109 0.238981 
0.209977 0.0622823 0.208625 0.214768 0.0592342 0.178237 0.218614 0.0558297 0.147926 
0.221449 0.0521591 0.117809 0.223191 0.0483366 0.088006 0.223749 0.0444934 0.0586396 
0.223036 0.0407688 0.0298343 0.220984 0.0372986 0.00170849 0.217556 0.0342034 -0.0256318 
0.212759 0.0315772 -0.0521009 0.206648 0.0294784 -0.0776402 0.199328 0.0279238 -0.102224 
0.190952 0.0268872 -0.125862 0.181712 0.0263012 -0.148599 0.171822 0.0260652 -0.170512 
0.161508 0.0260547 -0.1917 0.150984 0.026135 -0.212278 0.14044 0.026175 -0.232365 
0.130027 0.0260608 -0.25207 0.119846 0.025707 -0.271484 0.109948 0.0250654 -0.290672 
0.100334 0.024129 -0.309666 0.0909617 0.0229318 -0.328465 0.0817598 0.0215443 -0.34704 
0.0726407 0.0200649 -0.365338 0.0635175 0.0186091 -0.383292 0.0543182 0.017297 -0.400832 
0.0449972 0.0162409 -0.417893 0.0355432 0.0155346 -0.43443 0.0259813 0.0152452 -0.450421 
0.0163704 0.0154078 -0.465871 0.00679602 0.0160244 -0.480816 -0.00264067 0.0170662 -0.49531 
-0.0118347 0.0184787 -0.509429 -0.0206899 0.0201889 -0.523254 -0.029129 0.0221137 -0.536859 
-0.0371009 0.0241682 -0.550307 -0.0445833 0.0262731 -0.563632 -0.0515815 0.0283595 -0.57684 
-0.0581221 0.0303728 -0.589899 -0.0642447 0.0322731 -0.60274 -0.0699908 0.034034 -0.615265 
-0.0753935 0.0356399 -0.627352 -0.0804686 0.0370824 -0.638861 -0.085209 0.0383566 -0.649652 
-0.0895832 0.0394584 -0.659592 -0.0935383 0.0403823 -0.668568 -0.0970076 0.0411212 -0.676497 
-0.0999207 0.0416679 -0.68333 -0.102217 0.0420167 -0.689058 -0.103856 0.0421669 -0.693712 
-0.104831 0.0421259 -0.697359 -0.105175 0.041911 -0.700099 -0.104962 0.0415513 -0.702056 
-0.104304 0.0410872 -0.703367 -0.103348 0.040568 -0.704179 -0.102254 0.0400492 -0.70463 
-0.101189 0.0395866 -0.704848 -0.100304 0.039232 -0.704941 -0.0997214 0.0390272 -0.704989 
-0.0995186 0.0389999 -0.70504 
LINES 2 100
OFFSETS vtktypeint64
0 100 
CONNECTIVITY vtktypeint64
0 1 2 3 4 5 6 7 8 
9 10 11 12 13 14 15 16 17 
18 19 20 21 22 23 24 25 26 
27 28 29 30 31 32 33 34 35 
36 37 38 39 40 41 42 43 44 
45 46 47 48 49 50 51 52 53 
54 55 56 57 58 59 60 61 62 
63 64 65 66 67 68 69 70 71 
72 73 74 75 76 77 78 79 80 
81 82 83 84 85 86 87 88 89 
90 91 92 93 94 95 96 97 98 
99 
POINT_DATA 100
FIELD FieldData 3
_theta 1 100 double
0 0.031733259127 0.063466518254 0.095199777382 0.12693303651 0.15866629564 0.19039955476 0.22213281389 0.25386607302 
0.28559933214 0.31733259127 0.3490658504 0.38079910953 0.41253236865 0.44426562778 0.47599888691 0.50773214603 0.53946540516 
0.57119866429 0.60293192342 0.63466518254 0.66639844167 0.6981317008 0.72986495992 0.76159821905 0.79333147818 0.82506473731 
0.85679799643 0.88853125556 0.92026451469 0.95199777382 0.98373103294 1.0154642921 1.0471975512 1.0789308103 1.1106640695 
1.1423973286 1.1741305877 1.2058638468 1.237597106 1.2693303651 1.3010636242 1.3327968833 1.3645301425 1.3962634016 
1.4279966607 1.4597299198 1.491463179 1.5231964381 1.5549296972 1.5866629564 1.6183962155 1.6501294746 1.6818627337 
1.7135959929 1.745329252 1.7770625111 1.8087957702 1.8405290294 1.8722622885 1.9039955476 1.9357288068 1.9674620659 
1.999195325 2.0309285841 2.0626618433 2.0943951024 2.1261283615 2.1578616206 2.1895948798 2.2213281389 2.253061398 
2.2847946572 2.3165279163 2.3482611754 2.3799944345 2.4117276937 2.4434609528 2.4751942119 2.506927471 2.5386607302 
2.5703939893 2.6021272484 2.6338605076 2.6655937667 2.6973270258 2.7290602849 2.7607935441 2.7925268032 2.8242600623 
2.8559933214 2.8877265806 2.9194598397 2.9511930988 2.982926358 3.0146596171 3.0463928762 3.0781261353 3.1098593945 
3.1415926536 
_radius 1 100 double
2.0206364052e-16 0.016134466804 0.032125800333 0.047840095088 0.06316895831 0.078031245551 0.092365513226 0.10611557847 0.11921391617 
0.13156843382 0.14305720597 0.15353338131 0.16283950239 0.17082788049 0.17738226332 0.18243615924 0.18598458713 0.18808802657 
0.1888691238 0.18850352822 0.1872056503 0.18520868569 0.18273977024 0.17999961765 0.17715796557 0.17436201459 0.17174613782 
0.16943370449 0.16752881191 0.1661026227 0.16518219278 0.16474853582 0.16474684343 0.16510645873 0.16576214089 0.1666650475 
0.16777772356 0.1690625332 0.17048056145 0.172004046 0.17363158721 0.17539744724 0.17737151021 0.17964844011 0.18232655457 
0.18548180247 0.18914791253 0.19331206643 0.19792387125 0.20290658301 0.20816307072 0.21357750034 0.21901744885 0.22433959067 
0.22939911169 0.23406111414 0.23821180651 0.24176761786 0.24468097995 0.24694214537 0.24857701452 0.24964151312 0.25021352832 
0.25038366808 0.25024608245 0.24989030705 0.24939468132 0.24882149838 0.24821374549 0.24759313407 0.24695911557 0.24628873307 
0.24553742065 0.24464110952 0.24352003007 0.2420842412 0.24024025144 0.23789752318 0.23497360581 0.23139720128 0.22710929055 
0.22206306872 0.21622353904 0.20956721771 0.20208183306 0.1937655663 0.18462544203 0.17467481258 0.16393027537 0.15240867004 
0.14012496647 0.12709185904 0.11332172378 0.098831242412 0.083648385669 0.067820587015 0.051422093095 0.034558156133 0.017364281589 
7.7182302051e-16 
_area 1 100 double
0 0.00075752765118 0.0029891471768 0.0065774559585 0.011343779061 0.017069616845 0.023520016808 0.030464545276 0.037691950642 
0.045014802736 0.052261034153 0.059253844564 0.06579193002 0.071648399563 0.076601550905 0.0804693021 0.083135652013 0.084610399638 
0.084996783987 0.084582347128 0.083860771629 0.083182033251 0.082877308388 0.082370032467 0.081053388347 0.078807610683 0.075792977224 
0.072358677662 0.069093951933 0.066458109198 0.064637150206 0.063692509702 0.06348979931 0.063753268825 0.064353493456 0.065816953891 
0.069112179838 0.073559226199 0.078302524059 0.082857017 0.086884176535 0.090139512702 0.09249802587 0.094017844403 0.094978944448 
0.095880369201 0.097279067004 0.099506891376 0.10263560621 0.1066362288 0.11137760555 0.11661939329 0.12210852925 0.12765378623 
0.13319346105 0.13883768408 0.14447666636 0.14975225092 0.15442630446 0.15832426053 0.16132673491 0.16341202371 0.16463886349 
0.16511458126 0.16495102392 0.16423192513 0.16301335895 0.16133474796 0.15926609843 0.15684886606 0.15399862711 0.15077749832 
0.14729403971 0.14368347454 0.14007010014 0.13655148694 0.13320228657 0.12999093104 0.12673247104 0.12321082519 0.11926239567 
0.11475900425 0.10958870121 0.10366218448 0.096935501824 0.089431510314 0.081247905521 0.072549782464 0.063550945046 0.0544896694 
0.045604071219 0.03711140789 0.029194932192 0.02200093378 0.015646489058 0.010234301716 0.005866132221 0.0026456020225 0.00066758861345 
9.4873282625e-17 
