# vtk DataFile Version 5.1
vtk output
ASCII
DATASET POLYDATA
POINTS 100 float
-0.236062 -0.0451765 0.680454 -0.235752 -0.0452292 0.680234 -0.234911 -0.04521 0.679551 
-0.233544 -0.0450702 0.678421 -0.231657 -0.0447357 0.676868 -0.229252 -0.0441155 0.674917 
-0.226326 -0.0431123 0.672594 -0.222864 -0.041634 0.669918 -0.218844 -0.0396043 0.666895 
-0.21423 -0.0369717 0.663516 -0.208978 -0.0337159 0.659754 -0.203039 -0.0298499 0.655563 
-0.196364 -0.025419 0.65088 -0.188908 -0.0204965 0.64563 -0.180639 -0.0151758 0.639733 
-0.171543 -0.00956177 0.633105 -0.161627 -0.00376098 0.62567 -0.150923 0.00212743 0.617367 
-0.139484 0.00801887 0.608151 -0.127387 0.013848 0.598001 -0.114719 0.01957 0.586917 
-0.101576 0.0251594 0.574924 -0.0880542 0.0306053 0.562062 -0.0742382 0.0359049 0.548384 
-0.060198 0.0410563 0.533948 -0.0459838 0.0460507 0.518809 -0.0316248 0.0508665 0.503009 
-0.0171318 0.0554647 0.486576 -0.00250331 0.0597878 0.469512 0.0122661 0.0637613 0.451798 
0.027175 0.0672982 0.433393 0.0422038 0.0703061 0.414237 0.0573043 0.0726955 0.394261 
0.0723915 0.0743891 0.373391 0.0873387 0.0753304 0.351565 0.101977 0.0754903 0.328739 
0.1161 0.0748721 0.304897 0.129471 0.0735128 0.280061 0.141838 0.0714816 0.254291 
0.152948 0.0688746 0.227692 0.162565 0.0658086 0.200407 0.170487 0.0624112 0.172614 
0.17656 0.0588117 0.144515 0.18069 0.0551318 0.116327 0.18285 0.0514772 0.0882666 
0.183081 0.047932 0.0605402 0.18149 0.0445549 0.0333318 0.178239 0.0413784 0.00679333 
0.173533 0.0384111 -0.0189612 0.167603 0.0356416 -0.0438589 0.160692 0.0330443 -0.0678675 
0.153035 0.0305858 -0.0909914 0.144847 0.0282318 -0.113265 0.136308 0.0259528 -0.134746 
0.127561 0.0237288 -0.155503 0.118704 0.0215522 -0.175609 0.109794 0.019429 -0.195132 
0.100854 0.0173779 -0.214132 0.0918762 0.0154283 -0.232652 0.0828387 0.0136171 -0.25072 
0.0737111 0.011985 -0.268352 0.0644673 0.0105723 -0.285552 0.0550929 0.00941569 -0.302317 
0.0455916 0.0085455 -0.318647 0.0359881 0.00798365 -0.334544 0.0263279 0.00774276 -0.350021 
0.0166756 0.00782615 -0.365099 0.0071093 0.00822836 -0.379815 -0.00228495 0.00893622 -0.394213 
-0.0114198 0.00993007 -0.408346 -0.0202131 0.0111849 -0.422265 -0.0285931 0.0126714 -0.436017 
-0.0365027 0.0143565 -0.449638 -0.0439015 0.0162041 -0.463146 -0.0507661 0.0181754 -0.476536 
-0.0570892 0.0202286 -0.48978 -0.0628768 0.0223203 -0.502826 -0.0681452 0.0244055 -0.515597 
-0.0729169 0.0264387 -0.528003 -0.0772176 0.0283758 -0.539937 -0.0810729 0.0301753 -0.551292 
-0.0845061 0.0318006 -0.561964 -0.0875374 0.0332217 -0.57186 -0.0901836 0.0344167 -0.580904 
-0.0924588 0.0353735 -0.589045 -0.0943758 0.0360902 -0.596256 -0.095948 0.0365748 -0.602538 
-0.0971909 0.036845 -0.607918 -0.0981242 0.0369264 -0.612443 -0.0987726 0.0368507 -0.616181 
-0.0991667 0.0366538 -0.619211 -0.0993425 0.0363727 -0.621621 -0.0993411 0.0360444 -0.623502 
-0.0992067 0.0357031 -0.62494 -0.098985 0.0353794 -0.626016 -0.098721 0.035099 -0.626802 
-0.0984562 0.0348825 -0.627359 -0.0982264 0.034745 -0.627735 -0.0980595 0.0346965 -0.627964 
-0.0979741 0.0347425 -0.62807 
LINES 2 100
OFFSETS vtktypeint64
0 100 
CONNECTIVITY vtktypeint64
0 1 2 3 4 5 6 7 8 
9 10 11 12 13 14 15 16 17 
18 19 20 21 22 23 24 25 26 
27 28 29 30 31 32 33 34 35 
36 37 38 39 40 41 42 43 44 
45 46 47 48 49 50 51 52 53 
54 55 56 57 58 59 60 61 62 
63 64 65 66 67 68 69 70 71 
72 73 74 75 76 77 78 79 80 
81 82 83 84 85 86 87 88 89 
90 91 92 93 94 95 96 97 98 
99 
POINT_DATA 100
FIELD FieldData 3
_theta 1 100 double
0 0.031733259127 0.063466518254 0.095199777382 0.12693303651 0.15866629564 0.19039955476 0.22213281389 0.25386607302 
0.28559933214 0.31733259127 0.3490658504 0.38079910953 0.41253236865 0.44426562778 0.47599888691 0.50773214603 0.53946540516 
0.57119866429 0.60293192342 0.63466518254 0.66639844167 0.6981317008 0.72986495992 0.76159821905 0.79333147818 0.82506473731 
0.85679799643 0.88853125556 0.92026451469 0.95199777382 0.98373103294 1.0154642921 1.0471975512 1.0789308103 1.1106640695 
1.1423973286 1.1741305877 1.2058638468 1.237597106 1.2693303651 1.3010636242 1.3327968833 1.3645301425 1.3962634016 
1.4279966607 1.4597299198 1.491463179 1.5231964381 1.5549296972 1.5866629564 1.6183962155 1.6501294746 1.6818627337 
1.7135959929 1.745329252 1.7770625111 1.8087957702 1.8405290294 1.8722622885 1.9039955476 1.9357288068 1.9674620659 
1.999195325 2.0309285841 2.0626618433 2.0943951024 2.1261283615 2.1578616206 2.1895948798 2.2213281389 2.253061398 
2.2847946572 2.3165279163 2.3482611754 2.3799944345 2.4117276937 2.4434609528 2.4751942119 2.506927471 2.5386607302 
2.5703939893 2.6021272484 2.6338605076 2.6655937667 2.6973270258 2.7290602849 2.7607935441 2.7925268032 2.8242600623 
2.8559933214 2.8877265806 2.9194598397 2.9511930988 2.982926358 3.0146596171 3.0463928762 3.0781261353 3.1098593945 
3.1415926536 
_radius 1 100 double
8.5820962415e-16 0.018036433196 0.035937121407 0.053569595796 0.070812842305 0.087558466676 0.10370812778 0.11916828809 0.13384420835 
0.14763534431 0.16043386959 0.17212716238 0.18260408376 0.19176404635 0.19952740569 0.20584562899 0.21070989631 0.21415709148 
0.21627238921 0.21718780953 0.21707630126 0.21614131248 0.21460250224 0.21267912767 0.21057335598 0.20845587117 0.20645549376 
0.20465344142 0.20308198639 0.20172703339 0.2005344008 0.19941981628 0.19828243554 0.1970211301 0.19555231115 0.19382794884 
0.19185236414 0.18969545986 0.18749814689 0.18546477703 0.18384006784 0.18287419877 0.18278595561 0.1837352829 0.18581125615 
0.18903302487 0.19335643353 0.198680494 0.20485236187 0.21167269366 0.21890407816 0.22628447834 0.23354590963 0.24043638681 
0.24674141553 0.25230091842 0.25701865774 0.26086328571 0.26386215443 0.26609024352 0.26765678299 0.26869154664 0.26933180639 
0.2697100623 0.2699422855 0.27011669505 0.27028391898 0.2704503637 0.27057713217 0.27058624692 0.27037399851 0.26982865102 
0.26884797727 0.26735223647 0.26529000381 0.26263661104 0.25938686282 0.25554469559 0.25111254462 0.24608263919 0.24043160474 
0.23411893378 0.22708928723 0.21927822058 0.2106206618 0.20106114738 0.19056442075 0.17912465894 0.16677153773 0.15357171486 
0.1396250893 0.12505622177 0.11000231748 0.094599879476 0.078972311637 0.06322035689 0.047416525879 0.031603928394 0.01579935082 
8.8831051586e-16 
_area 1 100 double
0 0.00063831065644 0.0025423113131 0.0056801490868 0.010000146137 0.015428628968 0.021862860491 0.029161005596 0.037133369422 
0.045539074489 0.054090722693 0.062467469915 0.07033505281 0.077370259073 0.083287183823 0.087862567941 0.090957183451 0.092530842245 
0.092650939314 0.0914965804 0.089361270127 0.08666945773 0.084274205323 0.082661384184 0.081783002053 0.081457742867 0.081529451036 
0.081869054654 0.082363422062 0.082920250213 0.083473504117 0.083982501859 0.084431033914 0.084829556696 0.085214072178 0.085632941174 
0.086119539685 0.086655164533 0.087199526313 0.087694838418 0.088277455344 0.089090178158 0.090300096663 0.092025606918 0.094515036292 
0.098007337997 0.10263743264 0.10832109459 0.11476181965 0.12173163851 0.12899852135 0.13633369185 0.14352660898 0.15040285154 
0.15683591902 0.16274156083 0.1680560221 0.1727170184 0.17666297977 0.17984641201 0.18224992887 0.183899374 0.18487204526 
0.18529630724 0.18533446329 0.18514776441 0.18486351364 0.18456091574 0.18425970826 0.18389766497 0.18331881074 0.18230611205 
0.1806523935 0.17822390145 0.17498571937 0.17098682848 0.16631816293 0.16106610352 0.15528274051 0.14898022041 0.14214184776 
0.134738952 0.12674721614 0.11816080288 0.10900353482 0.099336056866 0.089259035904 0.07891343819 0.068477670039 0.058159639113 
0.048182490221 0.038765765126 0.03010659648 0.022366372557 0.015666516529 0.01009302373 0.0057053437684 0.0025443980129 0.00063738431333 
2.2564944506e-17 
