# vtk DataFile Version 5.1
vtk output
ASCII
DATASET POLYDATA
POINTS 100 float
-0.145825 -0.0636388 0.73996 -0.146053 -0.0636184 0.740187 -0.146779 -0.0633299 0.74083 
-0.147903 -0.0627718 0.741715 -0.149266 -0.0619408 0.742581 -0.150672 -0.0608284 0.743103 
-0.151903 -0.0594177 0.742933 -0.152744 -0.0576812 0.741742 -0.153001 -0.0555795 0.739252 
-0.152518 -0.0530623 0.735267 -0.151189 -0.0500721 0.729693 -0.148956 -0.0465501 0.722538 
-0.145815 -0.0424434 0.713912 -0.141798 -0.0377144 0.704 -0.136969 -0.0323482 0.693036 
-0.131404 -0.0263606 0.681272 -0.12518 -0.0198017 0.668942 -0.11836 -0.0127575 0.656235 
-0.11099 -0.005347 0.643271 -0.103094 0.00228442 0.630092 -0.0946765 0.00997476 0.61666 
-0.0857313 0.0175573 0.60287 -0.0762509 0.0248735 0.588573 -0.0662382 0.0317849 0.573595 
-0.0557166 0.038183 0.557771 -0.0447379 0.0439957 0.540967 -0.033385 0.0491893 0.523102 
-0.0217705 0.0537665 0.504159 -0.0100296 0.0577596 0.484185 0.00169078 0.0612211 0.463287 
0.0132454 0.0642119 0.441613 0.0245043 0.0667899 0.419331 0.0353649 0.0689992 0.396605 
0.0457603 0.070863 0.373574 0.0556621 0.0723797 0.350331 0.0650776 0.0735241 0.326916 
0.074041 0.0742522 0.30331 0.0826002 0.0745103 0.279447 0.0907999 0.0742459 0.255225 
0.0986659 0.0734194 0.230532 0.106189 0.0720148 0.205262 0.113317 0.0700479 0.179343 
0.119948 0.0675701 0.152756 0.125934 0.0646681 0.125541 0.131095 0.0614587 0.0978047 
0.135229 0.0580789 0.0697143 0.138139 0.0546739 0.0414813 0.139652 0.0513831 0.0133426 
0.139641 0.0483268 -0.0144633 0.138042 0.0455947 -0.0417204 0.134865 0.0432387 -0.0682551 
0.130195 0.0412701 -0.0939516 0.12419 0.0396615 -0.118759 0.11706 0.0383543 -0.142689 
0.109053 0.0372691 -0.165809 0.100428 0.0363186 -0.188221 0.0914322 0.0354213 -0.21005 
0.0822756 0.0345136 -0.231415 0.0731171 0.0335587 -0.252415 0.0640535 0.0325515 -0.273114 
0.0551187 0.0315185 -0.293533 0.0462909 0.0305132 -0.31365 0.0375075 0.0296072 -0.33341 
0.0286842 0.0288786 -0.35273 0.0197379 0.0284 -0.371524 0.0106066 0.0282265 -0.389719 
0.00126742 0.0283866 -0.407263 -0.00825295 0.0288773 -0.424146 -0.0178752 0.0296635 -0.440398 
-0.0274727 0.0306818 -0.456089 -0.0368839 0.0318492 -0.471319 -0.0459311 0.0330742 -0.486204 
-0.0544416 0.0342691 -0.500855 -0.0622691 0.0353619 -0.515361 -0.0693126 0.0363061 -0.529773 
-0.0755284 0.0370865 -0.54409 -0.0809363 0.0377198 -0.558255 -0.0856159 0.0382516 -0.572157 
-0.0896964 0.0387478 -0.585641 -0.093339 0.0392832 -0.598524 -0.0967159 0.0399288 -0.610618 
-0.0999878 0.0407386 -0.621749 -0.103284 0.0417394 -0.631782 -0.106685 0.042924 -0.640633 
-0.110217 0.0442491 -0.648281 -0.113848 0.0456392 -0.654768 -0.117496 0.0469948 -0.660197 
-0.121042 0.0482052 -0.664716 -0.124351 0.0491626 -0.668498 -0.127291 0.049778 -0.671723 
-0.129752 0.0499938 -0.674555 -0.131667 0.0497937 -0.677127 -0.133013 0.0492069 -0.679525 
-0.133826 0.0483072 -0.681784 -0.134184 0.0472051 -0.683893 -0.134203 0.0460361 -0.6858 
-0.134016 0.0449446 -0.687427 -0.133757 0.0440666 -0.688689 -0.133536 0.0435136 -0.689509 
-0.133429 0.0433584 -0.689836 
LINES 2 100
OFFSETS vtktypeint64
0 100 
CONNECTIVITY vtktypeint64
0 1 2 3 4 5 6 7 8 
9 10 11 12 13 14 15 16 17 
18 19 20 21 22 23 24 25 26 
27 28 29 30 31 32 33 34 35 
36 37 38 39 40 41 42 43 44 
45 46 47 48 49 50 51 52 53 
54 55 56 57 58 59 60 61 62 
63 64 65 66 67 68 69 70 71 
72 73 74 75 76 77 78 79 80 
81 82 83 84 85 86 87 88 89 
90 91 92 93 94 95 96 97 98 
99 
POINT_DATA 100
FIELD FieldData 3
_theta 1 100 double
0 0.031733259127 0.063466518254 0.095199777382 0.12693303651 0.15866629564 0.19039955476 0.22213281389 0.25386607302 
0.28559933214 0.31733259127 0.3490658504 0.38079910953 0.41253236865 0.44426562778 0.47599888691 0.50773214603 0.53946540516 
0.57119866429 0.60293192342 0.63466518254 0.66639844167 0.6981317008 0.72986495992 0.76159821905 0.79333147818 0.82506473731 
0.85679799643 0.88853125556 0.92026451469 0.95199777382 0.98373103294 1.0154642921 1.0471975512 1.0789308103 1.1106640695 
1.1423973286 1.1741305877 1.2058638468 1.237597106 1.2693303651 1.3010636242 1.3327968833 1.3645301425 1.3962634016 
1.4279966607 1.4597299198 1.491463179 1.5231964381 1.5549296972 1.5866629564 1.6183962155 1.6501294746 1.6818627337 
1.7135959929 1.745329252 1.7770625111 1.8087957702 1.8405290294 1.8722622885 1.9039955476 1.9357288068 1.9674620659 
1.999195325 2.0309285841 2.0626618433 2.0943951024 2.1261283615 2.1578616206 2.1895948798 2.2213281389 2.253061398 
2.2847946572 2.3165279163 2.3482611754 2.3799944345 2.4117276937 2.4434609528 2.4751942119 2.506927471 2.5386607302 
2.5703939893 2.6021272484 2.6338605076 2.6655937667 2.6973270258 2.7290602849 2.7607935441 2.7925268032 2.8242600623 
2.8559933214 2.8877265806 2.9194598397 2.9511930988 2.982926358 3.0146596171 3.0463928762 3.0781261353 3.1098593945 
3.1415926536 
_radius 1 100 double
1.5700924587e-15 0.016579010358 0.033008383845 0.049136161449 0.064815537922 0.079907943022 0.094286300162 0.10783820187 0.12046869419 
0.13210243422 0.14268511735 0.15218418023 0.16058882616 0.16790940619 0.17417617851 0.17943751403 0.18375772264 0.18721478922 
0.18989832728 0.19190788982 0.19335142566 0.19434329193 0.19500107988 0.19544075581 0.19577021955 0.19608209769 0.1964471095 
0.19690943803 0.19748511958 0.19816362877 0.198911885 0.19967928114 0.20040243758 0.20100926671 0.20142312229 0.20156850859 
0.20137944499 0.20081022307 0.19984671432 0.19851544919 0.19688780388 0.19507773886 0.19323334539 0.19152449207 0.19013023 
0.18922915366 0.1889932073 0.18958190108 0.19113225475 0.19374177174 0.19744654775 0.20220126711 0.20786916456 0.21422700181 
0.22098470665 0.22781480643 0.23438511994 0.24038913595 0.24557066484 0.24974137541 0.25279111698 0.25469148591 0.25549319937 
0.25531778181 0.25434407525 0.25279028803 0.2508927269 0.24888292199 0.24696535796 0.24529824401 0.24397954387 0.24303982585 
0.24244246248 0.24209048472 0.24183831707 0.24150612546 0.24089479833 0.23980039323 0.23802769721 0.23540291481 0.23178521893 
0.22707618296 0.22122550448 0.21423145612 0.20613529181 0.19701015629 0.18694647731 0.17603690277 0.16436413967 0.1519942838 
0.13897653881 0.12534824667 0.11114273425 0.096397152403 0.081158180653 0.065484689741 0.049447615913 0.033128009645 0.0166143609 
4.4701648658e-16 
_area 1 100 double
0 0.00070270280617 0.0027973382213 0.0062383635373 0.010935242612 0.016738230668 0.023430748085 0.030734175877 0.038326505079 
0.045871675445 0.053053418784 0.05960649557 0.065338995921 0.070141360051 0.073980704169 0.076882749095 0.078907548919 0.080127760395 
0.08061731289 0.08045359037 0.079730347516 0.078575180977 0.07716399344 0.075798028639 0.074523556891 0.073376281743 0.072493939089 
0.072046320448 0.07222421599 0.073155326205 0.074702858115 0.076744973084 0.079123347749 0.081647947123 0.084102203632 0.086270324947 
0.087984044947 0.089170902775 0.089887100994 0.090308959519 0.090657454806 0.091100847442 0.091719448755 0.092530894199 0.093526481968 
0.094702598784 0.096095318269 0.097816240038 0.10007237243 0.10314919396 0.10734421969 0.11286701996 0.1197593644 0.12787492013 
0.1369017392 0.14639806053 0.15583551954 0.16465700892 0.17234862695 0.17850798118 0.18288798757 0.1854087861 0.18614309082 
0.1852850998 0.18311274112 0.17995043767 0.17613613667 0.17199302978 0.16780465447 0.16379297042 0.16010165927 0.15678907847 
0.15383461764 0.15115761933 0.14864161073 0.14615255016 0.14354224556 0.14063877401 0.13723962403 0.13312660388 0.12810557101 
0.12205368463 0.1149529246 0.10689873246 0.09808349941 0.088761494504 0.079205605808 0.069667144708 0.060347927897 0.051390249762 
0.042885870697 0.034898929464 0.027491869121 0.020743358871 0.014753241313 0.0096362028009 0.0055091720686 0.0024775508629 0.00062381723402 
4.37425755e-17 
