# vtk DataFile Version 5.1
vtk output
ASCII
DATASET POLYDATA
POINTS 100 float
-0.109165 -0.0240881 0.706012 -0.109037 -0.0241628 0.706121 -0.108729 -0.0241524 0.706369 
-0.108258 -0.0239986 0.706666 -0.107646 -0.0236136 0.706872 -0.106915 -0.0228903 0.706813 
-0.106077 -0.0217152 0.706296 -0.105128 -0.0199819 0.705128 -0.104043 -0.0176039 0.703134 
-0.102768 -0.0145252 0.700165 -0.101225 -0.0107275 0.696119 -0.0993088 -0.00623295 0.690934 
-0.0968991 -0.00110327 0.684596 -0.0938678 0.00456546 0.67713 -0.090092 0.010651 0.66859 
-0.0854664 0.0170153 0.659049 -0.0799162 0.0235149 0.648586 -0.0734065 0.0300115 0.637271 
-0.0659499 0.0363798 0.62516 -0.0576081 0.0425132 0.612288 -0.0484894 0.0483265 0.598664 
-0.0387417 0.0537549 0.58428 -0.0285402 0.0587515 0.569108 -0.0180733 0.0632826 0.553115 
-0.00752613 0.0673216 0.536268 0.00293523 0.0708449 0.518544 0.0131777 0.0738276 0.499935 
0.0231114 0.0762418 0.480454 0.0326951 0.0780574 0.460133 0.0419357 0.0792443 0.439022 
0.0508828 0.0797769 0.417184 0.059617 0.0796395 0.394686 0.0682354 0.0788314 0.371594 
0.0768334 0.0773713 0.347962 0.0854871 0.0752994 0.323832 0.0942361 0.0726779 0.299226 
0.103071 0.0695881 0.274155 0.111923 0.0661253 0.248615 0.120665 0.0623923 0.222601 
0.129112 0.058491 0.196113 0.137034 0.0545146 0.169165 0.144171 0.0505411 0.141798 
0.15025 0.0466286 0.114082 0.155012 0.042813 0.0861185 0.158229 0.03911 0.058044 
0.159727 0.0355184 0.0300208 0.159397 0.0320275 0.00222877 0.157212 0.0286249 -0.0251468 
0.153224 0.0253049 -0.0519287 0.147564 0.0220765 -0.0779618 0.140433 0.0189683 -0.103125 
0.132085 0.0160319 -0.12734 0.12281 0.0133404 -0.150578 0.112911 0.0109843 -0.172855 
0.102684 0.00906373 -0.194235 0.0923971 0.00767861 -0.214814 0.0822752 0.00691781 -0.234711 
0.0724872 0.00684824 -0.254056 0.0631406 0.00750579 -0.272975 0.0542808 0.00888899 -0.291574 
0.0458961 0.0109563 -0.309938 0.0379272 0.0136278 -0.328115 0.0302806 0.0167901 -0.346122 
0.022843 0.0203058 -0.363944 0.0154969 0.0240248 -0.38154 0.00813435 0.0277964 -0.398852 
0.000669448 0.0314824 -0.415814 -0.00695381 0.0349674 -0.432363 -0.0147567 0.0381671 -0.448447 
-0.0227249 0.0410327 -0.464031 -0.0308118 0.043552 -0.479099 -0.0389441 0.0457458 -0.493658 
-0.0470303 0.0476619 -0.507729 -0.0549694 0.0493665 -0.521345 -0.0626605 0.050934 -0.534545 
-0.0700107 0.0524376 -0.54736 -0.0769424 0.0539402 -0.559816 -0.0833971 0.055488 -0.571917 
-0.0893381 0.0571067 -0.583653 -0.0947505 0.0588001 -0.594988 -0.0996387 0.0605519 -0.605872 
-0.104023 0.06233 -0.616237 -0.107936 0.0640919 -0.626012 -0.111417 0.0657905 -0.63512 
-0.114508 0.0673811 -0.643493 -0.117249 0.0688258 -0.651078 -0.119677 0.0700977 -0.657836 
-0.121825 0.0711824 -0.663754 -0.123717 0.0720787 -0.66884 -0.125376 0.0727966 -0.673127 
-0.126817 0.0733549 -0.676664 -0.128055 0.0737781 -0.679522 -0.129102 0.0740931 -0.681778 
-0.12997 0.0743258 -0.683517 -0.130672 0.0744995 -0.684825 -0.131219 0.0746333 -0.685782 
-0.131623 0.0747416 -0.686462 -0.131897 0.0748343 -0.686923 -0.132047 0.0749179 -0.68721 
-0.13208 0.0749958 -0.687351 
LINES 2 100
OFFSETS vtktypeint64
0 100 
CONNECTIVITY vtktypeint64
0 1 2 3 4 5 6 7 8 
9 10 11 12 13 14 15 16 17 
18 19 20 21 22 23 24 25 26 
27 28 29 30 31 32 33 34 35 
36 37 38 39 40 41 42 43 44 
45 46 47 48 49 50 51 52 53 
54 55 56 57 58 59 60 61 62 
63 64 65 66 67 68 69 70 71 
72 73 74 75 76 77 78 79 80 
81 82 83 84 85 86 87 88 89 
90 91 92 93 94 95 96 97 98 
99 
POINT_DATA 100
FIELD FieldData 3
_theta 1 100 double
0 0.031733259127 0.063466518254 0.095199777382 0.12693303651 0.15866629564 0.19039955476 0.22213281389 0.25386607302 
0.28559933214 0.31733259127 0.3490658504 0.38079910953 0.41253236865 0.44426562778 0.47599888691 0.50773214603 0.53946540516 
0.57119866429 0.60293192342 0.63466518254 0.66639844167 0.6981317008 0.72986495992 0.76159821905 0.79333147818 0.82506473731 
0.85679799643 0.88853125556 0.92026451469 0.95199777382 0.98373103294 1.0154642921 1.0471975512 1.0789308103 1.1106640695 
1.1423973286 1.1741305877 1.2058638468 1.237597106 1.2693303651 1.3010636242 1.3327968833 1.3645301425 1.3962634016 
1.4279966607 1.4597299198 1.491463179 1.5231964381 1.5549296972 1.5866629564 1.6183962155 1.6501294746 1.6818627337 
1.7135959929 1.745329252 1.7770625111 1.8087957702 1.8405290294 1.8722622885 1.9039955476 1.9357288068 1.9674620659 
1.999195325 2.0309285841 2.0626618433 2.0943951024 2.1261283615 2.1578616206 2.1895948798 2.2213281389 2.253061398 
2.2847946572 2.3165279163 2.3482611754 2.3799944345 2.4117276937 2.4434609528 2.4751942119 2.506927471 2.5386607302 
2.5703939893 2.6021272484 2.6338605076 2.6655937667 2.6973270258 2.7290602849 2.7607935441 2.7925268032 2.8242600623 
2.8559933214 2.8877265806 2.9194598397 2.9511930988 2.982926358 3.0146596171 3.0463928762 3.0781261353 3.1098593945 
3.1415926536 
_radius 1 100 double
6.8734463875e-16 0.017338147977 0.034543951154 0.051477070279 0.067995468242 0.083956197958 0.099217940477 0.11364547567 0.12711570785 
0.13952426357 0.15079132344 0.16086545426 0.16972473979 0.17737522476 0.18384730251 0.18919103506 0.19347152174 0.19676540081 
0.19915929053 0.2007502641 0.20164740385 0.20197262637 0.2018588675 0.20144446859 0.20086386835 0.20023598722 0.19965258348 
0.19916911151 0.19880014863 0.19852039224 0.19827092389 0.19796948069 0.19752329818 0.1968435147 0.19586049286 0.19453916781 
0.19289264384 0.19099106233 0.18896164654 0.18697559467 0.18522028458 0.1838632583 0.18302375854 0.18276670542 0.183119559 
0.18409830165 0.18572651371 0.18803849868 0.19106659542 0.19481997102 0.19926487006 0.20431395598 0.20982745803 0.21562460546 
0.22150163239 0.22725218449 0.23268664381 0.23764806191 0.24202344741 0.24574980379 0.2488146599 0.25125115167 0.25312819302 
0.25453693326 0.25557539076 0.25633363494 0.25688189164 0.25726330658 0.25749191667 0.25755505609 0.25741848664 0.25703231142 
0.25633618017 0.25526312892 0.25374224342 0.25170087794 0.24906721825 0.24577356371 0.24176004484 0.2369779451 0.23139167657 
0.2249788655 0.21772875145 0.2096398255 0.20071797337 0.19097617525 0.18043611645 0.16913116128 0.15710941013 0.14443531201 
0.13118865428 0.11746055572 0.10334703767 0.088941501205 0.074327753555 0.059575022407 0.044735772829 0.02984634755 0.014929798356 
1.0298471821e-15 
_area 1 100 double
0 0.00078461932457 0.0031061687362 0.006865223198 0.011891466933 0.017946374328 0.024737262113 0.031941377119 0.03923512369 
0.046323781905 0.052966662955 0.058991027543 0.064291074487 0.068816589581 0.072559954752 0.075544934378 0.077814917728 0.079420812464 
0.080415263565 0.080860392884 0.080848930965 0.080532698125 0.080156632926 0.080079024126 0.08058377158 0.081624765426 0.083014165386 
0.084569972519 0.086138545683 0.087597488032 0.088853167106 0.08983306377 0.090477770873 0.090742598442 0.090615600467 0.090145618359 
0.089464078253 0.088788423068 0.088396181053 0.088545624569 0.089349842679 0.090720859377 0.092446255425 0.094294339706 0.09608829485 
0.0977647483 0.099424278946 0.10137689947 0.10423589011 0.10851669273 0.11396045181 0.12039413072 0.12763941377 0.13541933138 
0.14337881346 0.15113048041 0.15830434205 0.16459264107 0.16978267156 0.17377054637 0.17655443864 0.17822526409 0.17908619914 
0.18007292959 0.18046738461 0.18025584843 0.17952117322 0.17838696156 0.17698647826 0.1754304387 0.17377682634 0.17201380186 
0.1700641462 0.16780666808 0.16510233753 0.16181674876 0.15783653364 0.15308023495 0.14750624203 0.14112075056 0.1339833466 
0.12620188 0.11791180363 0.10924581535 0.10030736242 0.091161410371 0.081848071993 0.072412458739 0.062934771677 0.05354544044 
0.044419861954 0.035757639579 0.027756140046 0.02058757377 0.014385261919 0.00924055367 0.0052083489195 0.0023171661616 0.00057954791848 
5.7149201881e-17 
