# vtk DataFile Version 5.1
vtk output
ASCII
DATASET POLYDATA
POINTS 100 float
-0.0600703 -0.0567909 0.737269 -0.0603385 -0.0565 0.73729 -0.0611141 -0.0554319 0.737201 
-0.0623416 -0.0536246 0.736917 -0.0639338 -0.0511384 0.736304 -0.0657778 -0.0480489 0.735203 
-0.0677434 -0.0444393 0.733442 -0.0696915 -0.0403909 0.730861 -0.0714828 -0.0359762 0.727325 
-0.0729854 -0.031252 0.722741 -0.0740813 -0.0262563 0.717068 -0.0746706 -0.0210083 0.710314 
-0.0746741 -0.0155103 0.702534 -0.0740334 -0.00975404 0.693819 -0.0727101 -0.00372731 0.684278 
-0.0706831 0.00257705 0.674024 -0.0679462 0.00915327 0.663154 -0.064505 0.0159757 0.651736 
-0.0603747 0.0229941 0.639798 -0.055578 0.0301322 0.627325 -0.050145 0.037289 0.61426 
-0.0441124 0.0443437 0.600517 -0.0375244 0.0511632 0.585991 -0.0304328 0.0576107 0.570574 
-0.0228974 0.0635561 0.554179 -0.0149853 0.0688852 0.536748 -0.00676939 0.0735078 0.518271 
0.0016741 0.0773629 0.498785 0.0102691 0.0804218 0.478384 0.0189437 0.0826875 0.457201 
0.027634 0.0841907 0.435404 0.0362878 0.0849848 0.413173 0.0448669 0.0851374 0.390685 
0.0533478 0.0847228 0.36809 0.0617207 0.0838142 0.3455 0.0699858 0.0824768 0.322973 
0.0781488 0.0807635 0.300506 0.0862143 0.0787132 0.278044 0.0941784 0.0763509 0.255479 
0.102022 0.0736905 0.23267 0.109707 0.0707393 0.20946 0.117167 0.067504 0.185695 
0.124315 0.0639956 0.161246 0.131035 0.0602352 0.136024 0.137198 0.0562573 0.109997 
0.142658 0.052112 0.0831933 0.147274 0.0478644 0.0557025 0.150909 0.0435928 0.0276713 
0.153452 0.0393844 -0.000708806 0.154819 0.0353302 -0.029217 0.154964 0.0315191 -0.0576202 
0.153886 0.0280318 -0.0856909 0.151626 0.0249363 -0.113223 0.148264 0.0222831 -0.140042 
0.143918 0.0201038 -0.166019 0.138727 0.0184098 -0.191067 0.132848 0.0171931 -0.215143 
0.12644 0.0164292 -0.238243 0.119653 0.0160798 -0.260393 0.112621 0.0160969 -0.281641 
0.105454 0.0164266 -0.302044 0.0982329 0.0170128 -0.321662 0.0910101 0.0178006 -0.340553 
0.0838128 0.0187385 -0.358768 0.0766471 0.0197803 -0.376345 0.0695056 0.0208862 -0.39332 
0.0623752 0.0220235 -0.40972 0.0552448 0.0231666 -0.425572 0.048112 0.0242971 -0.440904 
0.0409879 0.0254038 -0.45575 0.0339002 0.0264822 -0.470145 0.0268925 0.0275342 -0.484132 
0.0200226 0.0285672 -0.497751 0.0133586 0.0295932 -0.511042 0.0069727 0.0306271 -0.524036 
0.000935782 0.0316847 -0.536752 -0.00468868 0.0327801 -0.549191 -0.0098496 0.0339231 -0.561339 
-0.0145119 0.0351161 -0.573159 -0.0186586 0.0363516 -0.5846 -0.0222907 0.0376105 -0.595596 
-0.0254259 0.0388615 -0.606074 -0.028096 0.0400611 -0.615958 -0.0303427 0.0411566 -0.625179 
-0.0322141 0.0420891 -0.633677 -0.0337604 0.042799 -0.641409 -0.0350307 0.0432315 -0.648353 
-0.0360701 0.043343 -0.654505 -0.0369182 0.0431071 -0.659882 -0.0376081 0.0425193 -0.664521 
-0.038167 0.0416003 -0.668469 -0.0386161 0.0403966 -0.671786 -0.0389724 0.0389795 -0.674535 
-0.0392491 0.0374402 -0.676779 -0.0394572 0.0358844 -0.678577 -0.0396057 0.0344234 -0.679984 
-0.0397026 0.0331653 -0.681043 -0.0397543 0.0322059 -0.681789 -0.0397662 0.0316201 -0.682245 
-0.039742 0.0314555 -0.682426 
LINES 2 100
OFFSETS vtktypeint64
0 100 
CONNECTIVITY vtktypeint64
0 1 2 3 4 5 6 7 8 
9 10 11 12 13 14 15 16 17 
18 19 20 21 22 23 24 25 26 
27 28 29 30 31 32 33 34 35 
36 37 38 39 40 41 42 43 44 
45 46 47 48 49 50 51 52 53 
54 55 56 57 58 59 60 61 62 
63 64 65 66 67 68 69 70 71 
72 73 74 75 76 77 78 79 80 
81 82 83 84 85 86 87 88 89 
90 91 92 93 94 95 96 97 98 
99 
POINT_DATA 100
FIELD FieldData 3
_theta 1 100 double
0 0.031733259127 0.063466518254 0.095199777382 0.12693303651 0.15866629564 0.19039955476 0.22213281389 0.25386607302 
0.28559933214 0.31733259127 0.3490658504 0.38079910953 0.41253236865 0.44426562778 0.47599888691 0.50773214603 0.53946540516 
0.57119866429 0.60293192342 0.63466518254 0.66639844167 0.6981317008 0.72986495992 0.76159821905 0.79333147818 0.82506473731 
0.85679799643 0.88853125556 0.92026451469 0.95199777382 0.98373103294 1.0154642921 1.0471975512 1.0789308103 1.1106640695 
1.1423973286 1.1741305877 1.2058638468 1.237597106 1.2693303651 1.3010636242 1.3327968833 1.3645301425 1.3962634016 
1.4279966607 1.4597299198 1.491463179 1.5231964381 1.5549296972 1.5866629564 1.6183962155 1.6501294746 1.6818627337 
1.7135959929 1.745329252 1.7770625111 1.8087957702 1.8405290294 1.8722622885 1.9039955476 1.9357288068 1.9674620659 
1.999195325 2.0309285841 2.0626618433 2.0943951024 2.1261283615 2.1578616206 2.1895948798 2.2213281389 2.253061398 
2.2847946572 2.3165279163 2.3482611754 2.3799944345 2.4117276937 2.4434609528 2.4751942119 2.506927471 2.5386607302 
2.5703939893 2.6021272484 2.6338605076 2.6655937667 2.6973270258 2.7290602849 2.7607935441 2.7925268032 2.8242600623 
2.8559933214 2.8877265806 2.9194598397 2.9511930988 2.982926358 3.0146596171 3.0463928762 3.0781261353 3.1098593945 
3.1415926536 
_radius 1 100 double
2.3714374201e-16 0.014847945763 0.029481429852 0.043698806507 0.057330163921 0.070246185324 0.082360381034 0.093625163002 0.10402348257 
0.11355837435 0.1222427048 0.13009091689 0.137113846 0.1433169482 0.1487016718 0.15326930595 0.15702643985 0.15999106966 
0.16219836081 0.16370515955 0.16459255783 0.16496606849 0.16495318443 0.16469827274 0.16435492942 0.16407612567 0.16400272076 
0.16425117302 0.16490150305 0.1659867332 0.16748530624 0.16931883723 0.17135868128 0.17344331591 0.17540277283 0.17708202477 
0.17835743257 0.17914540346 0.17940536586 0.17913937748 0.17838970547 0.1772348898 0.17578451151 0.17417296167 0.17255273076 
0.17108783498 0.16994752854 0.16929930598 0.16929917554 0.17007757219 0.17172162708 0.17425792236 0.17764212373 0.18176068558 
0.18644519195 0.19149500208 0.19670190746 0.20187168879 0.20683989472 0.21148123265 0.2157131496 0.21949464171 0.22282137138 
0.22571805233 0.22822895686 0.23040739035 0.23230505563 0.23396231899 0.23540039284 0.23661630787 0.2375812566 0.23824248885 
0.23852847927 0.23835662824 0.23764237631 0.23630839004 0.23429247144 0.23155306069 0.22807159737 0.22385150517 0.21891409641 
0.21329218251 0.20702253813 0.20013850141 0.19266384114 0.18460862671 0.17596734992 0.16671916775 0.15682999561 0.14625626577 
0.13495031134 0.12286733462 0.10997367248 0.096255660753 0.081728013987 0.066440434998 0.050481227293 0.033977002316 0.017088101797 
1.0173233933e-15 
_area 1 100 double
0 0.00063068851109 0.0024902231918 0.0054822770963 0.0094513926509 0.014192804201 0.019467952645 0.025023790519 0.030612638038 
0.036009862328 0.041027729128 0.045524471333 0.049408045579 0.052634363841 0.055200245782 0.057132599706 0.058477291053 0.059291766973 
0.059642636825 0.059603908047 0.059247232347 0.058620887452 0.057738805847 0.056609115386 0.055284975855 0.053913305524 0.052842167523 
0.052286923989 0.052235725766 0.05258184557 0.053270744046 0.054307754527 0.05569573561 0.057407737109 0.059362827348 0.061435205939 
0.063505765778 0.065495043287 0.067356665434 0.069061764024 0.07059092385 0.071931175643 0.073071508927 0.073992407403 0.074668500373 
0.07509963711 0.075341876738 0.075512243462 0.075786313346 0.076818271382 0.078850893588 0.081548658423 0.084896840555 0.088889668964 
0.093467371885 0.098500595482 0.10380032901 0.10914172327 0.11429531382 0.11905784814 0.12327323717 0.12683865713 0.12969873458 
0.13183545108 0.13325957084 0.13400461448 0.13412180091 0.13367453065 0.13273213262 0.13136382631 0.12963436256 0.12760151402 
0.12531316848 0.12280142332 0.12007462208 0.11711269845 0.11387124263 0.11029451015 0.10633208818 0.10195236393 0.097148256842 
0.091934976619 0.086343466894 0.080414308812 0.074194861676 0.06773953247 0.061111468454 0.054383781974 0.047638850217 0.04096537904 
0.034455089629 0.028202162177 0.022306030006 0.016873951688 0.012019610771 0.0078573593216 0.0044941587124 0.0020215291027 0.00050904817803 
1.9001167176e-17 
