# vtk DataFile Version 5.1
vtk output
ASCII
DATASET POLYDATA
POINTS 100 float
-0.198112 -0.0364292 0.696751 -0.197872 -0.0364113 0.696715 -0.197171 -0.036204 0.696594 
-0.196003 -0.0358034 0.696299 -0.194355 -0.0352022 0.695696 -0.192213 -0.0343885 0.694623 
-0.189556 -0.0333436 0.692912 -0.186367 -0.0320401 0.690411 -0.182625 -0.0304413 0.687001 
-0.178312 -0.0285014 0.682612 -0.173415 -0.0261669 0.677231 -0.167924 -0.0233806 0.670898 
-0.161837 -0.0200857 0.663698 -0.155158 -0.0162325 0.655746 -0.1479 -0.0117843 0.647166 
-0.140082 -0.00672461 0.638074 -0.131731 -0.00106273 0.628555 -0.122877 0.00516195 0.618655 
-0.113552 0.0118775 0.608368 -0.103791 0.0189795 0.597641 -0.0936202 0.026334 0.586382 
-0.0830647 0.0337829 0.574472 -0.072139 0.0411513 0.561787 -0.0608489 0.048257 0.548212 
-0.0491906 0.0549205 0.533664 -0.0371527 0.0609754 0.518103 -0.024719 0.0662775 0.501534 
-0.0118732 0.0707127 0.484012 0.00139418 0.0742026 0.465627 0.0150795 0.0767075 0.44649 
0.0291574 0.0782264 0.426715 0.0435741 0.0787948 0.406395 0.0582403 0.0784795 0.38559 
0.0730274 0.077373 0.364308 0.0877654 0.0755855 0.342503 0.102244 0.0732374 0.320082 
0.11622 0.070452 0.296913 0.129422 0.0673495 0.272848 0.141566 0.0640417 0.24775 
0.15237 0.0606296 0.221517 0.16157 0.0572007 0.194107 0.168937 0.05383 0.165561 
0.174291 0.0505802 0.136009 0.177521 0.0475038 0.105671 0.178588 0.0446445 0.074848 
0.177534 0.0420391 0.0438974 0.174479 0.0397183 0.013207 0.169617 0.0377069 -0.01684 
0.163202 0.0360236 -0.0458985 0.155535 0.0346792 -0.073691 0.146938 0.0336751 -0.100031 
0.137739 0.0330018 -0.124833 0.128245 0.0326373 -0.148118 0.118726 0.0325464 -0.169999 
0.109397 0.0326811 -0.19066 0.100412 0.0329825 -0.210333 0.091852 0.0333831 -0.22926 
0.0837348 0.0338112 -0.247671 0.0760184 0.034196 -0.265749 0.0686154 0.0344719 -0.283618 
0.0614102 0.0345849 -0.301334 0.0542774 0.0344962 -0.318882 0.0470998 0.0341863 -0.336194 
0.0397857 0.0336567 -0.353161 0.0322805 0.0329305 -0.369664 0.0245745 0.0320504 -0.385592 
0.016705 0.0310757 -0.400868 0.00875171 0.0300777 -0.41546 0.000828 0.0291337 -0.429395 
-0.00693208 0.0283205 -0.442751 -0.0143891 0.0277086 -0.455648 -0.021414 0.0273564 -0.468234 
-0.0279022 0.0273055 -0.480659 -0.0337844 0.0275779 -0.49305 -0.0390337 0.0281744 -0.505496 
-0.043667 0.0290756 -0.518028 -0.0477411 0.0302436 -0.530612 -0.0513447 0.0316255 -0.543152 
-0.0545863 0.0331585 -0.555498 -0.0575803 0.0347743 -0.567465 -0.060433 0.0364051 -0.578857 
-0.0632298 0.0379876 -0.58949 -0.0660254 0.0394677 -0.599215 -0.0688384 0.0408031 -0.607936 
-0.0716508 0.0419649 -0.615623 -0.0744118 0.0429381 -0.622313 -0.0770467 0.0437209 -0.628101 
-0.0794679 0.0443228 -0.633128 -0.0815882 0.0447622 -0.63756 -0.0833339 0.0450632 -0.641564 
-0.0846556 0.0452534 -0.645283 -0.0855365 0.0453606 -0.648822 -0.0859956 0.0454109 -0.652233 
-0.0860872 0.0454272 -0.655508 -0.0858944 0.0454279 -0.658588 -0.0855202 0.0454273 -0.661372 
-0.0850748 0.0454355 -0.663734 -0.0846628 0.0454588 -0.665547 -0.0843694 0.045501 -0.666702 
-0.0842512 0.0455636 -0.667124 
LINES 2 100
OFFSETS vtktypeint64
0 100 
CONNECTIVITY vtktypeint64
0 1 2 3 4 5 6 7 8 
9 10 11 12 13 14 15 16 17 
18 19 20 21 22 23 24 25 26 
27 28 29 30 31 32 33 34 35 
36 37 38 39 40 41 42 43 44 
45 46 47 48 49 50 51 52 53 
54 55 56 57 58 59 60 61 62 
63 64 65 66 67 68 69 70 71 
72 73 74 75 76 77 78 79 80 
81 82 83 84 85 86 87 88 89 
90 91 92 93 94 95 96 97 98 
99 
POINT_DATA 100
FIELD FieldData 3
_theta 1 100 double
0 0.031733259127 0.063466518254 0.095199777382 0.12693303651 0.15866629564 0.19039955476 0.22213281389 0.25386607302 
0.28559933214 0.31733259127 0.3490658504 0.38079910953 0.41253236865 0.44426562778 0.47599888691 0.50773214603 0.53946540516 
0.57119866429 0.60293192342 0.63466518254 0.66639844167 0.6981317008 0.72986495992 0.76159821905 0.79333147818 0.82506473731 
0.85679799643 0.88853125556 0.92026451469 0.95199777382 0.98373103294 1.0154642921 1.0471975512 1.0789308103 1.1106640695 
1.1423973286 1.1741305877 1.2058638468 1.237597106 1.2693303651 1.3010636242 1.3327968833 1.3645301425 1.3962634016 
1.4279966607 1.4597299198 1.491463179 1.5231964381 1.5549296972 1.5866629564 1.6183962155 1.6501294746 1.6818627337 
1.7135959929 1.745329252 1.7770625111 1.8087957702 1.8405290294 1.8722622885 1.9039955476 1.9357288068 1.9674620659 
1.999195325 2.0309285841 2.0626618433 2.0943951024 2.1261283615 2.1578616206 2.1895948798 2.2213281389 2.253061398 
2.2847946572 2.3165279163 2.3482611754 2.3799944345 2.4117276937 2.4434609528 2.4751942119 2.506927471 2.5386607302 
2.5703939893 2.6021272484 2.6338605076 2.6655937667 2.6973270258 2.7290602849 2.7607935441 2.7925268032 2.8242600623 
2.8559933214 2.8877265806 2.9194598397 2.9511930988 2.982926358 3.0146596171 3.0463928762 3.0781261353 3.1098593945 
3.1415926536 
_radius 1 100 double
6.3898133636e-16 0.016124169072 0.032109562487 0.047816515005 0.06310553598 0.077837204389 0.09187237376 0.10507329829 0.11730635461 
0.12844680804 0.13838559577 0.14703753416 0.15434989379 0.16031003194 0.16495072893 0.16835201163 0.17063860331 0.17197280499 
0.17254355245 0.17255326327 0.17220436375 0.17168680475 0.17116683856 0.17077670767 0.17060530209 0.17069103619 0.17101918332 
0.1715256979 0.17210805359 0.17264174858 0.17299986183 0.17307255019 0.17278322532 0.17209817462 0.17102727728 0.16961713472 
0.16794433725 0.16611610756 0.16427376103 0.16258901305 0.16125067262 0.16044681379 0.16034861183 0.16109796589 0.16279617716 
0.16549101744 0.16916528484 0.1737339801 0.17905310492 0.18493576262 0.19116948013 0.19753216459 0.20380703053 0.20979685593 
0.21533676487 0.22030425739 0.2246255728 0.22827794668 0.23128751404 0.23372271556 0.23568342336 0.23728668698 0.23865073688 
0.23987933006 0.24104855815 0.24219796789 0.24332733513 0.24439958471 0.24534915076 0.24609388038 0.24654791298 0.2466330337 
0.24628660277 0.24546498974 0.24414231947 0.24230521473 0.23994500836 0.23704940587 0.23359562132 0.22954654601 0.22485069365 
0.21944575972 0.2132648896 0.2062443438 0.19833123446 0.18949030968 0.17970919958 0.16900189774 0.15741040082 0.14500437716 
0.13187862108 0.118148041 0.10394013283 0.08938531655 0.074606089297 0.059706523276 0.044763993676 0.029824947619 0.014905923088 
9.6070555795e-16 
_area 1 100 double
0 0.00054183330895 0.0021568037556 0.00480945934 0.0084305349932 0.012908740416 0.018087666828 0.023769172315 0.029722694256 
0.035699707403 0.041452757865 0.046758222879 0.051441100364 0.055398610536 0.058616242877 0.061164847492 0.063168119611 0.064750053966 
0.065997072917 0.066962578566 0.067710652373 0.068477845159 0.069414434381 0.07043954708 0.07153910458 0.072722432864 0.074000957735 
0.07534459615 0.076652396068 0.077802566836 0.078702806494 0.079312988307 0.079586758752 0.079477576075 0.07896578685 0.078086505681 
0.076924698079 0.075633375785 0.074462251377 0.073756388515 0.073790832978 0.074371203932 0.075258764182 0.076565841677 0.078501637229 
0.081081606956 0.084210695456 0.08782792192 0.091904304837 0.096408009998 0.10127587257 0.10640389265 0.11168522271 0.11720637004 
0.12291512789 0.12840774285 0.1333353607 0.13750680612 0.14082070882 0.14325091102 0.14485306693 0.14575672646 0.14617539225 
0.14639255419 0.1465975034 0.14686074804 0.14722666356 0.14765618165 0.14801327818 0.14810713355 0.14775402403 0.14681707956 
0.14522115287 0.14298184003 0.14020941789 0.13705441832 0.13364546422 0.13003809118 0.1261788174 0.12193658645 0.11716604657 
0.11175140021 0.10562760957 0.098787526097 0.091280073451 0.083203214159 0.074694784474 0.065922882821 0.057075947068 0.04835198738 
0.039946986642 0.032043597881 0.024801861627 0.018353177 0.012797712457 0.0082047962589 0.0046159135853 0.0020502195437 0.00051218999541 
1.8675356003e-17 
