# vtk DataFile Version 5.1
vtk output
ASCII
DATASET POLYDATA
POINTS 100 float
-0.129455 -0.0616489 0.749234 -0.129278 -0.061442 0.749236 -0.12874 -0.0606285 0.74923 
-0.127842 -0.059209 0.749124 -0.126592 -0.0571868 0.748774 -0.124993 -0.0545707 0.748001 
-0.123047 -0.051376 0.746611 -0.120753 -0.0476266 0.744418 -0.118101 -0.0433561 0.741259 
-0.115077 -0.0386084 0.73701 -0.111659 -0.0334369 0.731598 -0.10782 -0.027903 0.725003 
-0.103529 -0.0220737 0.717252 -0.0987574 -0.0160183 0.708414 -0.0934796 -0.00980537 0.69858 
-0.0876788 -0.00349909 0.687854 -0.0813497 0.00284303 0.67633 -0.0745016 0.00917194 0.664083 
-0.0671595 0.0154475 0.651155 -0.059364 0.0216376 0.637555 -0.0511699 0.0277162 0.623255 
-0.042642 0.0336603 0.6082 -0.0338514 0.0394465 0.592319 -0.0248693 0.0450473 0.575535 
-0.015762 0.0504283 0.557781 -0.00658567 0.0555462 0.539012 0.00261804 0.0603478 0.519213 
0.0118237 0.0647711 0.498405 0.0210226 0.0687479 0.476642 0.0302207 0.0722074 0.454004 
0.0394338 0.0750814 0.430594 0.0486821 0.0773096 0.406518 0.057982 0.0788447 0.381879 
0.0673383 0.0796574 0.356762 0.0767362 0.0797392 0.331228 0.0861349 0.0791045 0.305311 
0.0954629 0.0777902 0.279019 0.104616 0.0758537 0.252341 0.113459 0.0733688 0.225257 
0.121828 0.0704213 0.197749 0.129543 0.0671026 0.169818 0.136411 0.0635041 0.141492 
0.142243 0.0597121 0.112837 0.146865 0.0558033 0.0839583 0.150129 0.0518419 0.0549992 
0.151926 0.0478786 0.0261347 0.152191 0.0439513 -0.00244148 0.150912 0.0400864 -0.0305324 
0.14813 0.0363028 -0.057954 0.143934 0.032615 -0.0845515 0.138458 0.0290373 -0.110212 
0.131873 0.0255869 -0.134874 0.12437 0.0222867 -0.158529 0.116155 0.0191669 -0.181219 
0.10743 0.0162643 -0.203029 0.0983844 0.0136219 -0.224073 0.0891827 0.0112861 -0.24448 
0.0799599 0.00930352 -0.264375 0.0708157 0.00771791 -0.283868 0.0618138 0.00656623 -0.303038 
0.0529842 0.00587589 -0.321931 0.0443283 0.00566248 -0.340555 0.0358251 0.00592854 -0.358881 
0.0274399 0.00666338 -0.376858 0.0191317 0.00784396 -0.394417 0.0108614 0.00943654 -0.411487 
0.00259786 0.011399 -0.428006 -0.00567763 0.0136833 -0.443928 -0.0139687 0.0162381 -0.459234 
-0.0222637 0.0190111 -0.47393 -0.0305367 0.0219507 -0.488046 -0.0387508 0.0250074 -0.501628 
-0.0468614 0.0281346 -0.51473 -0.0548206 0.0312885 -0.527401 -0.0625808 0.0344289 -0.539677 
-0.070098 0.0375182 -0.551571 -0.0773335 0.0405218 -0.563071 -0.0842557 0.0434079 -0.574133 
-0.0908391 0.0461482 -0.58469 -0.0970642 0.0487178 -0.594656 -0.102915 0.0510966 -0.603939 
-0.10838 0.0532697 -0.612448 -0.113445 0.0552282 -0.62011 -0.118099 0.0569698 -0.626876 
-0.122331 0.0584986 -0.632729 -0.126129 0.0598251 -0.637689 -0.129483 0.060965 -0.641809 
-0.13239 0.0619379 -0.645169 -0.13485 0.062766 -0.647874 -0.136875 0.0634719 -0.650036 
-0.138484 0.064077 -0.651767 -0.13971 0.0646001 -0.653169 -0.140593 0.0650562 -0.654328 
-0.141186 0.0654559 -0.655305 -0.141545 0.0658057 -0.656138 -0.141729 0.0661082 -0.656845 
-0.141795 0.0663631 -0.657427 -0.141794 0.0665683 -0.657872 -0.141765 0.0667214 -0.65817 
-0.141734 0.0668206 -0.65831 
LINES 2 100
OFFSETS vtktypeint64
0 100 
CONNECTIVITY vtktypeint64
0 1 2 3 4 5 6 7 8 
9 10 11 12 13 14 15 16 17 
18 19 20 21 22 23 24 25 26 
27 28 29 30 31 32 33 34 35 
36 37 38 39 40 41 42 43 44 
45 46 47 48 49 50 51 52 53 
54 55 56 57 58 59 60 61 62 
63 64 65 66 67 68 69 70 71 
72 73 74 75 76 77 78 79 80 
81 82 83 84 85 86 87 88 89 
90 91 92 93 94 95 96 97 98 
99 
POINT_DATA 100
FIELD FieldData 3
_theta 1 100 double
0 0.031733259127 0.063466518254 0.095199777382 0.12693303651 0.15866629564 0.19039955476 0.22213281389 0.25386607302 
0.28559933214 0.31733259127 0.3490658504 0.38079910953 0.41253236865 0.44426562778 0.47599888691 0.50773214603 0.53946540516 
0.57119866429 0.60293192342 0.63466518254 0.66639844167 0.6981317008 0.72986495992 0.76159821905 0.79333147818 0.82506473731 
0.85679799643 0.88853125556 0.92026451469 0.95199777382 0.98373103294 1.0154642921 1.0471975512 1.0789308103 1.1106640695 
1.1423973286 1.1741305877 1.2058638468 1.237597106 1.2693303651 1.3010636242 1.3327968833 1.3645301425 1.3962634016 
1.4279966607 1.4597299198 1.491463179 1.5231964381 1.5549296972 1.5866629564 1.6183962155 1.6501294746 1.6818627337 
1.7135959929 1.745329252 1.7770625111 1.8087957702 1.8405290294 1.8722622885 1.9039955476 1.9357288068 1.9674620659 
1.999195325 2.0309285841 2.0626618433 2.0943951024 2.1261283615 2.1578616206 2.1895948798 2.2213281389 2.253061398 
2.2847946572 2.3165279163 2.3482611754 2.3799944345 2.4117276937 2.4434609528 2.4751942119 2.506927471 2.5386607302 
2.5703939893 2.6021272484 2.6338605076 2.6655937667 2.6973270258 2.7290602849 2.7607935441 2.7925268032 2.8242600623 
2.8559933214 2.8877265806 2.9194598397 2.9511930988 2.982926358 3.0146596171 3.0463928762 3.0781261353 3.1098593945 
3.1415926536 
_radius 1 100 double
1.0213146713e-15 0.016130408286 0.032117888755 0.047813830319 0.06307116331 0.077747178342 0.091707795088 0.10483281681 0.11702131479 
0.12819613089 0.1383066077 0.14732901596 0.15526464508 0.16213602323 0.1679821149 0.17285351002 0.17680851327 0.17991067185 
0.18222775458 0.18383171447 0.18479894242 0.18521025164 0.18515042914 0.18470758737 0.18397264634 0.18303895282 0.18200147254 
0.18095454678 0.17998722022 0.17917576359 0.17857416692 0.17820483978 0.17805307216 0.17806886455 0.17817724212 0.17829438621 
0.17834515148 0.17827834031 0.17807746733 0.17776560312 0.17740352735 0.17708141912 0.17690593894 0.17698634132 0.17742379182 
0.17830617318 0.17970722519 0.18168639535 0.18428588242 0.18752359798 0.19138376745 0.19580911246 0.20069861538 0.20591265643 
0.21128453314 0.21663581239 0.22179285638 0.22660238606 0.23094445632 0.23474159685 0.23796323562 0.24062496585 0.2427827618 
0.24452283918 0.2459483998 0.24716490256 0.24826569577 0.24931977504 0.25036305472 0.25139388475 0.25237276524 0.25322556967 
0.25384930057 0.25411949286 0.25389866814 0.25304546979 0.25142410892 0.24891354332 0.24541556707 0.24086090845 0.23521262302 
0.22846648941 0.22064863135 0.21181103665 0.20202589675 0.19137969191 0.17996771852 0.16788939619 0.15524434927 0.14212906837 
0.12863397763 0.11484090516 0.10082113765 0.086634303272 0.072328225915 0.057939691852 0.043495891237 0.02901623754 0.01451433677 
6.0426961588e-16 
_area 1 100 double
0 0.00065450068026 0.0025946452365 0.0057483148233 0.0099904301241 0.015141115258 0.02097052107 0.027212011458 0.033582085501 
0.039802986018 0.045623433568 0.050834435094 0.055279615793 0.058861217237 0.061542774268 0.063348536813 0.064359761964 0.064709029283 
0.064574979062 0.064183496343 0.063801658052 0.06356198248 0.063375271704 0.063166030275 0.062928311124 0.062712549426 0.062619678745 
0.062774347801 0.063263528045 0.064114809185 0.065322525563 0.066864672052 0.068705091179 0.070775921009 0.072962392275 0.075126659763 
0.077148852436 0.078961727632 0.08057419572 0.082042562324 0.083368028059 0.084494068106 0.085394734072 0.086090304702 0.086635979325 
0.087152079033 0.088203982008 0.090616596415 0.093415431185 0.096831183497 0.10113190831 0.10649526809 0.11293256372 0.12027754876 
0.12822304121 0.13637465531 0.14430866791 0.15163103829 0.15803239617 0.16332968672 0.16748438314 0.17059114337 0.17283944902 
0.17446066375 0.1756775228 0.176669433 0.17755751442 0.17840351336 0.17921396116 0.17994552408 0.18051201592 0.18079383492 
0.18064846522 0.17991985848 0.17844645358 0.17607022916 0.17264943227 0.16807523182 0.16228990881 0.15530218236 0.14719350262 
0.138110098 0.12824122964 0.11779110353 0.10695532556 0.095910485144 0.084818122485 0.073836162451 0.063127901654 0.052862539787 
0.043207588385 0.03431735632 0.026322059114 0.019320527431 0.01337769436 0.0085267836805 0.0047754005334 0.002114290256 0.00052719856326 
8.706660941e-17 
