# vtk DataFile Version 5.1
vtk output
ASCII
DATASET POLYDATA
POINTS 100 float
-0.115489 -0.0410895 0.730641 -0.115241 -0.0410113 0.730811 -0.114557 -0.040643 0.731333 
-0.113465 -0.0399973 0.73208 -0.112007 -0.0390932 0.732854 -0.110229 -0.0379513 0.733408 
-0.108172 -0.0365909 0.733468 -0.105868 -0.0350248 0.732768 -0.103326 -0.0332566 0.731069 
-0.100533 -0.0312776 0.728182 -0.0974481 -0.0290662 0.723987 -0.0940067 -0.026589 0.718433 
-0.0901252 -0.023803 0.71154 -0.08571 -0.02066 0.703384 -0.0806688 -0.0171123 0.694088 
-0.0749219 -0.0131184 0.683795 -0.0684141 -0.00864906 0.672648 -0.061123 -0.00369304 0.660773 
-0.0530655 0.00173883 0.648261 -0.0442993 0.00761078 0.635163 -0.0349197 0.0138611 0.621482 
-0.0250535 0.0204032 0.607184 -0.0148472 0.0271279 0.592202 -0.00445486 0.033908 0.576455 
0.00597614 0.0406031 0.559862 0.0163183 0.0470658 0.542358 0.0264748 0.0531481 0.523904 
0.0363865 0.0587075 0.504496 0.0460349 0.063613 0.484169 0.0554395 0.0677507 0.462988 
0.0646504 0.0710279 0.441042 0.0737375 0.0733779 0.418435 0.0827766 0.0747622 0.395264 
0.0918334 0.075173 0.371617 0.10095 0.0746341 0.347554 0.11013 0.0732006 0.323105 
0.119334 0.0709578 0.298271 0.128471 0.0680178 0.273026 0.137403 0.0645155 0.24733 
0.145948 0.0606028 0.221139 0.153898 0.0564409 0.194423 0.161026 0.0521924 0.167176 
0.16711 0.0480126 0.13943 0.171946 0.0440404 0.111261 0.175366 0.0403903 0.0827881 
0.177254 0.0371464 0.0541712 0.177551 0.0343573 0.0255975 0.176262 0.0320354 -0.00273104 
0.173455 0.0301575 -0.030615 0.169254 0.0286703 -0.0578742 0.16383 0.0274971 -0.0843625 
0.157385 0.0265479 -0.109978 0.150139 0.02573 -0.134669 0.14231 0.0249588 -0.158433 
0.134104 0.0241681 -0.181307 0.125697 0.0233173 -0.203363 0.117229 0.0223966 -0.224686 
0.108797 0.0214278 -0.245363 0.100453 0.0204608 -0.265469 0.0922096 0.019568 -0.285051 
0.0840417 0.0188341 -0.304128 0.075899 0.0183454 -0.322684 0.0677147 0.0181777 -0.340677 
0.0594168 0.018386 -0.358047 0.0509385 0.0189962 -0.374727 0.0422275 0.0199998 -0.390662 
0.033253 0.0213537 -0.405819 0.02401 0.0229834 -0.420199 0.0145212 0.0247907 -0.433846 
0.00483598 0.0266642 -0.446846 -0.00497287 0.0284921 -0.459325 -0.0148145 0.0301748 -0.471434 
-0.0245866 0.0316362 -0.483339 -0.0341823 0.0328327 -0.495201 -0.0434976 0.0337575 -0.507158 
-0.0524381 0.0344412 -0.519309 -0.0609245 0.0349465 -0.5317 -0.0688967 0.03536 -0.544319 
-0.0763162 0.0357798 -0.557089 -0.0831672 0.0363021 -0.569877 -0.0894554 0.0370077 -0.582503 
-0.0952056 0.0379498 -0.594756 -0.100458 0.0391466 -0.60641 -0.105264 0.0405765 -0.617244 
-0.109681 0.0421798 -0.627064 -0.113767 0.0438651 -0.635712 -0.117575 0.0455195 -0.643085 
-0.121152 0.0470227 -0.649135 -0.124531 0.0482616 -0.653875 -0.127732 0.049145 -0.657375 
-0.130761 0.0496153 -0.659753 -0.133607 0.0496573 -0.661166 -0.13625 0.0493006 -0.661798 
-0.138656 0.0486177 -0.661842 -0.140786 0.0477159 -0.661496 -0.142598 0.0467252 -0.660943 
-0.144049 0.0457835 -0.660345 -0.145103 0.0450203 -0.659838 -0.145731 0.044541 -0.659518 
-0.145916 0.0444149 -0.659448 
LINES 2 100
OFFSETS vtktypeint64
0 100 
CONNECTIVITY vtktypeint64
0 1 2 3 4 5 6 7 8 
9 10 11 12 13 14 15 16 17 
18 19 20 21 22 23 24 25 26 
27 28 29 30 31 32 33 34 35 
36 37 38 39 40 41 42 43 44 
45 46 47 48 49 50 51 52 53 
54 55 56 57 58 59 60 61 62 
63 64 65 66 67 68 69 70 71 
72 73 74 75 76 77 78 79 80 
81 82 83 84 85 86 87 88 89 
90 91 92 93 94 95 96 97 98 
99 
POINT_DATA 100
FIELD FieldData 3
_theta 1 100 double
0 0.031733259127 0.063466518254 0.095199777382 0.12693303651 0.15866629564 0.19039955476 0.22213281389 0.25386607302 
0.28559933214 0.31733259127 0.3490658504 0.38079910953 0.41253236865 0.44426562778 0.47599888691 0.50773214603 0.53946540516 
0.57119866429 0.60293192342 0.63466518254 0.66639844167 0.6981317008 0.72986495992 0.76159821905 0.79333147818 0.82506473731 
0.85679799643 0.88853125556 0.92026451469 0.95199777382 0.98373103294 1.0154642921 1.0471975512 1.0789308103 1.1106640695 
1.1423973286 1.1741305877 1.2058638468 1.237597106 1.2693303651 1.3010636242 1.3327968833 1.3645301425 1.3962634016 
1.4279966607 1.4597299198 1.491463179 1.5231964381 1.5549296972 1.5866629564 1.6183962155 1.6501294746 1.6818627337 
1.7135959929 1.745329252 1.7770625111 1.8087957702 1.8405290294 1.8722622885 1.9039955476 1.9357288068 1.9674620659 
1.999195325 2.0309285841 2.0626618433 2.0943951024 2.1261283615 2.1578616206 2.1895948798 2.2213281389 2.253061398 
2.2847946572 2.3165279163 2.3482611754 2.3799944345 2.4117276937 2.4434609528 2.4751942119 2.506927471 2.5386607302 
2.5703939893 2.6021272484 2.6338605076 2.6655937667 2.6973270258 2.7290602849 2.7607935441 2.7925268032 2.8242600623 
2.8559933214 2.8877265806 2.9194598397 2.9511930988 2.982926358 3.0146596171 3.0463928762 3.0781261353 3.1098593945 
3.1415926536 
_radius 1 100 double
6.9086437777e-16 0.015612260875 0.031166063612 0.046595881597 0.061830295295 0.076787414259 0.091369762188 0.1054601389 0.11892023994 
0.13159342664 0.1433121413 0.15390936731 0.16323259677 0.17115824736 0.17760445003 0.18254053589 0.18599220962 0.1880421141 
0.18882609313 0.1885258278 0.18735861424 0.18556493151 0.18339429778 0.18108996441 0.17887338625 0.17692998647 0.17539806505 
0.1743623242 0.1738523911 0.17384554018 0.17427240395 0.17502510706 0.17596828098 0.17695359089 0.17783711631 0.17849705439 
0.17884857792 0.17885416064 0.1785296862 0.17794644657 0.17722700408 0.17653227785 0.17603973202 0.17591681735 0.17629758597 
0.17727065104 0.17888134275 0.18114306009 0.18404890324 0.18757715095 0.19168966712 0.19632666389 0.2014026389 0.20680706745 
0.21241081443 0.21807665285 0.2236707833 0.22907220325 0.23417789682 0.23890347978 0.24318047813 0.24695233296 0.25017127358 
0.25279746634 0.25480068333 0.2561636193 0.25688532333 0.25698319401 0.25649253524 0.25546350573 0.25395607965 0.25203409795 
0.24975950801 0.24718750621 0.24436271649 0.24131604579 0.23806171302 0.23459423955 0.2308857715 0.22688465531 0.22251637173 
0.21768758479 0.21229328731 0.20622614502 0.19938651279 0.19169143546 0.1830812574 0.17352309264 0.16301112835 0.15156433747 
0.13922253035 0.12604175973 0.1120899791 0.097443623224 0.08218546941 0.066403765596 0.050192237251 0.033650334667 0.016883066827 
2.3727526782e-16 
_area 1 100 double
0 0.00050927421432 0.0020486723352 0.0046498382661 0.0083538011012 0.01319056266 0.019150506901 0.026154455097 0.034031495407 
0.042512134324 0.051240859612 0.059808010985 0.067795997117 0.074830176376 0.080622251074 0.08499617238 0.087893458399 0.089362549137 
0.089540398456 0.088634071794 0.0869104477 0.084703070452 0.082410122745 0.080364459855 0.078704394427 0.077461905708 0.076634499209 
0.076194612089 0.076091435268 0.076260767316 0.076639218854 0.077176383136 0.077839047096 0.078606618744 0.079462026195 0.08039397184 
0.081367359231 0.082316025327 0.083169254535 0.083921776929 0.084741819824 0.085956838076 0.087518386868 0.089131685992 0.090733275257 
0.092427576262 0.094328706436 0.0965209361 0.099087430785 0.10211316043 0.10567789711 0.10984809928 0.1146625662 0.12011728206 
0.12616057321 0.13269507686 0.13957472623 0.14660025652 0.15352675813 0.16008584741 0.16601409445 0.17107928646 0.17509984809 
0.1779568715 0.17960181537 0.18006673365 0.17952647809 0.1782953975 0.17624402818 0.17339033598 0.16979845164 0.16557305811 
0.16084333367 0.15575664397 0.15047253733 0.14514767249 0.13991018808 0.13483062322 0.12990313614 0.12504761679 0.12012947195 
0.11498551243 0.10945016413 0.10338216088 0.09668942325 0.089346215042 0.081398062599 0.072954679529 0.064175214399 0.055251377984 
0.04639243104 0.037813102058 0.029723407198 0.022319332978 0.01577467759 0.010235263948 0.0058163837849 0.0026032642249 0.00065348732417 
5.473742174e-17 
