# vtk DataFile Version 5.1
vtk output
ASCII
DATASET POLYDATA
POINTS 100 float
-0.0842357 -0.0653766 0.745926 -0.084254 -0.0652101 0.74584 -0.0843133 -0.0645228 0.74552 
-0.084441 -0.0633364 0.744922 -0.0846769 -0.0616844 0.74397 -0.0850644 -0.0596068 0.742569 
-0.0856403 -0.0571436 0.740608 -0.0864239 -0.0543288 0.737967 -0.0874072 -0.0511844 0.734532 
-0.0885482 -0.0477175 0.730193 -0.0897667 -0.0439187 0.724859 -0.0909456 -0.0397638 0.718463 
-0.0919356 -0.0352183 0.710961 -0.0925648 -0.0302438 0.702341 -0.0926512 -0.0248062 0.692617 
-0.092017 -0.0188838 0.681834 -0.0905034 -0.0124754 0.670058 -0.087984 -0.00560653 0.657375 
-0.0843759 0.00166738 0.643884 -0.079646 0.00926013 0.629689 -0.0738131 0.0170577 0.614895 
-0.066945 0.0249238 0.599598 -0.0591506 0.0327086 0.58388 -0.0505685 0.0402576 0.567803 
-0.0413535 0.0474228 0.551407 -0.0316614 0.0540715 0.534708 -0.0216358 0.0600943 0.517694 
-0.0113967 0.0654109 0.500327 -0.00103311 0.069972 0.482551 0.0093994 0.0737594 0.464288 
0.0198766 0.0767823 0.445451 0.0303986 0.0790718 0.425947 0.0409792 0.0806748 0.405686 
0.0516328 0.0816462 0.384591 0.062361 0.0820428 0.362599 0.0731392 0.0819179 0.339677 
0.0839075 0.0813179 0.315819 0.0945648 0.0802814 0.291053 0.104968 0.0788398 0.265442 
0.114936 0.0770196 0.239081 0.124262 0.0748467 0.212095 0.132726 0.0723493 0.18463 
0.14011 0.0695623 0.156849 0.14622 0.066529 0.128922 0.150899 0.0633022 0.101013 
0.154045 0.0599432 0.0732772 0.155617 0.0565187 0.0458489 0.155639 0.0530971 0.0188379 
0.154205 0.0497434 -0.00767445 0.15146 0.046514 -0.0336358 0.147597 0.0434524 -0.059021 
0.142834 0.0405858 -0.0838275 0.137398 0.0379241 -0.10807 0.131504 0.0354599 -0.131771 
0.125339 0.0331714 -0.154957 0.119048 0.0310263 -0.177648 0.112726 0.0289876 -0.199855 
0.106413 0.0270191 -0.221574 0.100099 0.0250906 -0.242787 0.0937333 0.0231831 -0.263462 
0.0872329 0.021291 -0.283558 0.0805025 0.0194239 -0.30303 0.0734484 0.0176047 -0.321835 
0.0659946 0.0158673 -0.339937 0.0580949 0.0142524 -0.357317 0.0497427 0.0128022 -0.373975 
0.0409738 0.011555 -0.389932 0.0318658 0.0105411 -0.405228 0.0225315 0.00977878 -0.419927 
0.0131091 0.00927247 -0.434101 0.00374899 0.00901273 -0.447832 -0.00539981 0.00897764 -0.461201 
-0.0142034 0.00913586 -0.474282 -0.0225542 0.00945053 -0.487131 -0.0303791 0.00988367 -0.499787 
-0.0376432 0.0104004 -0.512263 -0.0443496 0.0109721 -0.52455 -0.0505345 0.011579 -0.536617 
-0.0562594 0.012211 -0.548415 -0.0616004 0.0128665 -0.559885 -0.066637 0.0135515 -0.570961 
-0.0714412 0.0142759 -0.581581 -0.0760687 0.0150509 -0.591692 -0.0805521 0.0158856 -0.601253 
-0.0848983 0.0167845 -0.61024 -0.0890896 0.0177453 -0.618645 -0.0930876 0.0187587 -0.626473 
-0.09684 0.0198084 -0.633741 -0.100289 0.0208727 -0.640471 -0.103382 0.0219267 -0.646687 
-0.106076 0.0229446 -0.652406 -0.108348 0.0239021 -0.657635 -0.110194 0.0247788 -0.662371 
-0.111636 0.0255591 -0.666596 -0.112711 0.0262328 -0.670284 -0.113473 0.026795 -0.673396 
-0.113981 0.0272449 -0.675891 -0.114292 0.0275838 -0.677729 -0.114456 0.0278144 -0.678877 
-0.114504 0.0279384 -0.679308 
LINES 2 100
OFFSETS vtktypeint64
0 100 
CONNECTIVITY vtktypeint64
0 1 2 3 4 5 6 7 8 
9 10 11 12 13 14 15 16 17 
18 19 20 21 22 23 24 25 26 
27 28 29 30 31 32 33 34 35 
36 37 38 39 40 41 42 43 44 
45 46 47 48 49 50 51 52 53 
54 55 56 57 58 59 60 61 62 
63 64 65 66 67 68 69 70 71 
72 73 74 75 76 77 78 79 80 
81 82 83 84 85 86 87 88 89 
90 91 92 93 94 95 96 97 98 
99 
POINT_DATA 100
FIELD FieldData 3
_theta 1 100 double
0 0.031733259127 0.063466518254 0.095199777382 0.12693303651 0.15866629564 0.19039955476 0.22213281389 0.25386607302 
0.28559933214 0.31733259127 0.3490658504 0.38079910953 0.41253236865 0.44426562778 0.47599888691 0.50773214603 0.53946540516 
0.57119866429 0.60293192342 0.63466518254 0.66639844167 0.6981317008 0.72986495992 0.76159821905 0.79333147818 0.82506473731 
0.85679799643 0.88853125556 0.92026451469 0.95199777382 0.98373103294 1.0154642921 1.0471975512 1.0789308103 1.1106640695 
1.1423973286 1.1741305877 1.2058638468 1.237597106 1.2693303651 1.3010636242 1.3327968833 1.3645301425 1.3962634016 
1.4279966607 1.4597299198 1.491463179 1.5231964381 1.5549296972 1.5866629564 1.6183962155 1.6501294746 1.6818627337 
1.7135959929 1.745329252 1.7770625111 1.8087957702 1.8405290294 1.8722622885 1.9039955476 1.9357288068 1.9674620659 
1.999195325 2.0309285841 2.0626618433 2.0943951024 2.1261283615 2.1578616206 2.1895948798 2.2213281389 2.253061398 
2.2847946572 2.3165279163 2.3482611754 2.3799944345 2.4117276937 2.4434609528 2.4751942119 2.506927471 2.5386607302 
2.5703939893 2.6021272484 2.6338605076 2.6655937667 2.6973270258 2.7290602849 2.7607935441 2.7925268032 2.8242600623 
2.8559933214 2.8877265806 2.9194598397 2.9511930988 2.982926358 3.0146596171 3.0463928762 3.0781261353 3.1098593945 
3.1415926536 
_radius 1 100 double
1.9478403401e-16 0.014501439033 0.029046931949 0.043652777385 0.058298347434 0.072916012802 0.087388688136 0.10155499425 0.11522088967 
0.12817588587 0.1402116529 0.15114086741 0.16081442435 0.16913549381 0.17606925376 0.18164742719 0.1859670412 0.18918321599 
0.19149638758 0.1931351579 0.19433674061 0.19532738678 0.19630497989 0.19742526913 0.19879238488 0.20045375953 0.2023994072 
0.20456548926 0.20684207171 0.20908491872 0.2111309437 0.21281638149 0.21399593774 0.21456053546 0.21445128828 0.21366811227 
0.21227249717 0.21038466987 0.20817546894 0.20585326165 0.20364674472 0.2017854186 0.20048040285 0.19990837519 0.2002002309 
0.20143407425 0.20363112971 0.20675420847 0.21071018964 0.21535826473 0.22052386264 0.22601581206 0.23164323599 0.23722932215 
0.24262065176 0.24769222852 0.25234923383 0.25652677687 0.26018865099 0.26332556814 0.26595276519 0.26810648184 0.26983875505 
0.27121030148 0.27228188373 0.273105277 0.27371547639 0.27412577457 0.27432659896 0.27428775856 0.27396269876 0.27329312144 
0.27221290999 0.27065118564 0.26853496485 0.26579204576 0.2623544898 0.25816261107 0.25316899189 0.24734186997 0.24066731979 
0.23314989167 0.22481165425 0.21568981404 0.20583322214 0.19529813019 0.18414356399 0.17242669453 0.16019864829 0.14750131666 
0.13436581646 0.12081316731 0.10685737367 0.092510501166 0.077788767785 0.062718377715 0.04733988736 0.031710227741 0.015901979574 
1.0236409859e-15 
_area 1 100 double
0 0.00057746011834 0.0023130629248 0.0052116557955 0.0092662735874 0.014439179993 0.020642218159 0.027721755409 0.03545250417 
0.043542800554 0.051652056259 0.059419113059 0.066498256642 0.072598020159 0.077516806441 0.081168610731 0.083591640744 0.084933831854 
0.085415739309 0.085283155027 0.08476864901 0.084074711831 0.083378769843 0.082847570207 0.082643345537 0.082898136653 0.083623363351 
0.084849677856 0.086572149417 0.088975056176 0.092122631887 0.095271196019 0.098028944526 0.10018664851 0.10161481908 0.10226614956 
0.10217683557 0.10146754831 0.100347168 0.099126391757 0.098282304 0.098497386265 0.099719667622 0.10143475123 0.10352709644 
0.10608111386 0.10930153064 0.11341734819 0.11851101061 0.12444326103 0.13101330096 0.13804472889 0.14537468294 0.1528370734 
0.16025341733 0.16743052055 0.17416746647 0.18027221434 0.18558319014 0.18998919356 0.19344249951 0.19596260046 0.19762946854 
0.19856568562 0.19890865987 0.19877939307 0.19826019758 0.1973923033 0.19619194059 0.19467079985 0.19284422979 0.19071500883 
0.18823483731 0.18527622125 0.18164966208 0.17715146683 0.17160776352 0.16490752147 0.15702796096 0.14804901306 0.13815137516 
0.12759633852 0.11669091224 0.10574552218 0.095032782051 0.084755247724 0.075028427549 0.065882609089 0.057283073122 0.049163211562 
0.041460575222 0.034145562584 0.027237358276 0.020807355887 0.014972719398 0.0098827096147 0.0057001511839 0.0025806558445 0.0006525061884 
2.9056618223e-17 
