# vtk DataFile Version 5.1
vtk output
ASCII
DATASET POLYDATA
POINTS 100 float
-0.110894 -0.0595413 0.76531 -0.111002 -0.0594646 0.765205 -0.111323 -0.0590556 0.764872 
-0.111789 -0.0582865 0.764245 -0.112297 -0.057116 0.763227 -0.112715 -0.055495 0.7617 
-0.112894 -0.0533735 0.759537 -0.112683 -0.0507081 0.75662 -0.111937 -0.0474686 0.75285 
-0.110534 -0.0436437 0.748161 -0.108378 -0.039244 0.742523 -0.105403 -0.0343039 0.73594 
-0.101575 -0.0288792 0.728449 -0.0968872 -0.0230444 0.720111 -0.0913576 -0.016887 0.710996 
-0.0850202 -0.010501 0.701168 -0.0779196 -0.00398091 0.69068 -0.070105 0.00258455 0.679553 
-0.0616268 0.00911682 0.66778 -0.0525347 0.0155503 0.655316 -0.0428788 0.0218333 0.642089 
-0.0327118 0.0279264 0.628003 -0.0220926 0.0338001 0.612953 -0.0110899 0.0394305 0.596835 
0.000215138 0.0447951 0.579564 0.0117282 0.0498683 0.561083 0.023343 0.0546187 0.541372 
0.0349453 0.0590067 0.520449 0.0464188 0.0629847 0.498374 0.0576528 0.0664989 0.475236 
0.0685491 0.0694918 0.451149 0.0790295 0.0719076 0.426237 0.0890397 0.0736961 0.40062 
0.0985513 0.0748184 0.374405 0.107559 0.0752508 0.347675 0.116076 0.0749879 0.320486 
0.124122 0.0740448 0.292867 0.131717 0.0724565 0.264822 0.138865 0.0702769 0.236345 
0.145544 0.0675756 0.207425 0.151702 0.0644344 0.178066 0.157248 0.0609429 0.14829 
0.162058 0.0571945 0.118156 0.165978 0.0532823 0.0877569 0.16884 0.0492963 0.0572252 
0.170473 0.0453209 0.0267259 0.170724 0.0414337 -0.00355197 0.169476 0.0377045 -0.0334092 
0.166664 0.0341954 -0.0626507 0.162286 0.0309608 -0.0911009 0.156407 0.0280467 -0.118617 
0.149165 0.0254911 -0.1451 0.140753 0.0233231 -0.170498 0.131417 0.0215615 -0.194808 
0.121425 0.0202146 -0.218074 0.111053 0.0192783 -0.240372 0.100562 0.0187365 -0.261802 
0.0901748 0.018561 -0.282475 0.0800615 0.0187126 -0.302497 0.0703309 0.0191438 -0.321962 
0.0610263 0.0198016 -0.340939 0.0521299 0.0206316 -0.359471 0.0435735 0.0215824 -0.377576 
0.0352538 0.0226095 -0.395249 0.0270505 0.023679 -0.412471 0.0188448 0.0247697 -0.429217 
0.0105365 0.0258743 -0.445468 0.00205664 0.026998 -0.461214 -0.00662417 0.0281565 -0.476465 
-0.0154939 0.0293716 -0.491247 -0.0245027 0.0306669 -0.505607 -0.0335711 0.0320622 -0.519604 
-0.0426019 0.0335691 -0.533301 -0.0514931 0.0351869 -0.546756 -0.0601508 0.0369011 -0.560014 
-0.0684988 0.0386831 -0.573096 -0.0764858 0.040492 -0.585994 -0.0840873 0.0422791 -0.598667 
-0.0913032 0.0439929 -0.611046 -0.0981515 0.0455854 -0.623031 -0.104659 0.0470184 -0.634505 
-0.110853 0.0482688 -0.645345 -0.116749 0.0493318 -0.655427 -0.122346 0.0502228 -0.664643 
-0.127622 0.0509761 -0.67291 -0.132534 0.0516409 -0.680175 -0.137022 0.052276 -0.686418 
-0.141022 0.052942 -0.69166 -0.144468 0.053694 -0.695949 -0.147312 0.0545731 -0.699367 
-0.149528 0.0556011 -0.702013 -0.151122 0.0567759 -0.703999 -0.152137 0.0580705 -0.705442 
-0.152649 0.0594347 -0.706457 -0.152765 0.0607996 -0.707147 -0.152607 0.0620849 -0.707603 
-0.152306 0.0632073 -0.7079 -0.151983 0.0640896 -0.708096 -0.151737 0.0646697 -0.70823 
-0.151631 0.064907 -0.708325 
LINES 2 100
OFFSETS vtktypeint64
0 100 
CONNECTIVITY vtktypeint64
0 1 2 3 4 5 6 7 8 
9 10 11 12 13 14 15 16 17 
18 19 20 21 22 23 24 25 26 
27 28 29 30 31 32 33 34 35 
36 37 38 39 40 41 42 43 44 
45 46 47 48 49 50 51 52 53 
54 55 56 57 58 59 60 61 62 
63 64 65 66 67 68 69 70 71 
72 73 74 75 76 77 78 79 80 
81 82 83 84 85 86 87 88 89 
90 91 92 93 94 95 96 97 98 
99 
POINT_DATA 100
FIELD FieldData 3
_theta 1 100 double
0 0.031733259127 0.063466518254 0.095199777382 0.12693303651 0.15866629564 0.19039955476 0.22213281389 0.25386607302 
0.28559933214 0.31733259127 0.3490658504 0.38079910953 0.41253236865 0.44426562778 0.47599888691 0.50773214603 0.53946540516 
0.57119866429 0.60293192342 0.63466518254 0.66639844167 0.6981317008 0.72986495992 0.76159821905 0.79333147818 0.82506473731 
0.85679799643 0.88853125556 0.92026451469 0.95199777382 0.98373103294 1.0154642921 1.0471975512 1.0789308103 1.1106640695 
1.1423973286 1.1741305877 1.2058638468 1.237597106 1.2693303651 1.3010636242 1.3327968833 1.3645301425 1.3962634016 
1.4279966607 1.4597299198 1.491463179 1.5231964381 1.5549296972 1.5866629564 1.6183962155 1.6501294746 1.6818627337 
1.7135959929 1.745329252 1.7770625111 1.8087957702 1.8405290294 1.8722622885 1.9039955476 1.9357288068 1.9674620659 
1.999195325 2.0309285841 2.0626618433 2.0943951024 2.1261283615 2.1578616206 2.1895948798 2.2213281389 2.253061398 
2.2847946572 2.3165279163 2.3482611754 2.3799944345 2.4117276937 2.4434609528 2.4751942119 2.506927471 2.5386607302 
2.5703939893 2.6021272484 2.6338605076 2.6655937667 2.6973270258 2.7290602849 2.7607935441 2.7925268032 2.8242600623 
2.8559933214 2.8877265806 2.9194598397 2.9511930988 2.982926358 3.0146596171 3.0463928762 3.0781261353 3.1098593945 
3.1415926536 
_radius 1 100 double
8.9895506265e-16 0.016159427393 0.032155009789 0.047832895784 0.063062129206 0.077740747374 0.091796353465 0.10518105974 0.11786196321 
0.12980943114 0.14098612296 0.15133962286 0.16080072155 0.16928791444 0.17671700816 0.18301345934 0.18812467314 0.19202999535 
0.19474713835 0.19633476033 0.1968915237 0.19655215082 0.19548095 0.19386321998 0.19189498202 0.18977161615 0.18767608851 
0.18576748008 0.18417052188 0.18296695164 0.18218977606 0.18182175549 0.18179932357 0.18202258964 0.18237115354 0.18272428156 
0.18298264051 0.18308768695 0.18303456006 0.18287522933 0.18271069823 0.18267399019 0.1829084876 0.18354754125 0.18470039571 
0.18644663533 0.18883744064 0.19189896625 0.19563321957 0.20001473139 0.20498476229 0.21044671435 0.21626622339 0.22227768103 
0.22829674167 0.234136627 0.23962519906 0.24461983746 0.24901790918 0.25276175996 0.25583834851 0.25827456067 0.26012966262 
0.26148626682 0.2624407718 0.26309375275 0.26354043821 0.26386134145 0.26411336424 0.264322164 0.26447702041 0.2645295143 
0.26439681569 0.2639693618 0.26312160487 0.26172381965 0.25965294654 0.25680102287 0.25308060439 0.24842735985 0.24280051512 
0.23618196551 0.22857472709 0.22000108826 0.21050049933 0.20012702225 0.1889461284 0.17703078421 0.16445704366 0.15129965886 
0.13762839082 0.12350565006 0.10898582591 0.094116293296 0.078939764209 0.063497433529 0.04783223121 0.031991431862 0.016027956918 
6.6287398626e-16 
_area 1 100 double
0 0.00059474199965 0.0023621774654 0.0052512145893 0.0091753880529 0.014014288941 0.019620442217 0.025832067722 0.03248786147 
0.039436348971 0.04653271011 0.053622489973 0.0605216946 0.067007892246 0.072831569789 0.07774612386 0.081546866093 0.084107357919 
0.085403959785 0.085524805678 0.08466697654 0.08313742446 0.08133447567 0.079526810172 0.077835435096 0.07632584102 0.075077967662 
0.074148963369 0.073583407876 0.073413439911 0.073653819667 0.074297828606 0.07531602433 0.076656034469 0.078243790526 0.079991389847 
0.081815540866 0.083626036189 0.085393445433 0.087101827651 0.088813492991 0.090679641768 0.092818776671 0.095303071512 0.098116202428 
0.10122562881 0.1046247311 0.10835504581 0.11250395738 0.1171790711 0.12246849239 0.12839982559 0.13491026955 0.14183677871 
0.14892959818 0.15588662163 0.16240103186 0.16821113603 0.17314023959 0.17711659268 0.18016954402 0.18240768301 0.18398646951 
0.18504354748 0.18561284351 0.18566970545 0.18521472462 0.18427589626 0.1829134247 0.18121494345 0.1792779585 0.17718363458 
0.17496710861 0.17259502064 0.16996242766 0.16691516014 0.16329034693 0.15895644147 0.15383548714 0.147902281 0.14116728459 
0.13365648916 0.12540068259 0.11643984286 0.10683941716 0.096708885693 0.086212047501 0.075562454622 0.06500383303 0.054781294495 
0.045112614859 0.036168783064 0.028069350423 0.020892085323 0.014690691877 0.0095118371999 0.005404702504 0.0024210578017 0.00060830038445 
7.5137099297e-17 
