# vtk DataFile Version 5.1
vtk output
ASCII
DATASET POLYDATA
POINTS 100 float
-0.157992 -0.0866703 0.762351 -0.157962 -0.0866242 0.762374 -0.157908 -0.0863088 0.762389 
-0.157775 -0.0857085 0.762323 -0.157474 -0.0847985 0.762061 -0.156889 -0.0835439 0.761459 
-0.155883 -0.0819004 0.760357 -0.154312 -0.0798141 0.7586 -0.152035 -0.077224 0.756044 
-0.148923 -0.0740647 0.752572 -0.144869 -0.070271 0.7481 -0.139798 -0.0657831 0.742582 
-0.13367 -0.0605538 0.736003 -0.126489 -0.0545551 0.72838 -0.118299 -0.047785 0.719744 
-0.109186 -0.0402726 0.710138 -0.099271 -0.0320823 0.6996 -0.0887062 -0.0233144 0.688157 
-0.0776645 -0.0141041 0.675821 -0.0663306 -0.00461608 0.662585 -0.054891 0.00496225 0.648426 
-0.0435234 0.0144308 0.633313 -0.0323874 0.023588 0.617214 -0.0216162 0.0322421 0.600108 
-0.0113104 0.040223 0.581993 -0.00153423 0.0473911 0.562895 0.00768631 0.0536452 0.542874 
0.016362 0.058926 0.522021 0.0245369 0.0632171 0.500453 0.0322819 0.0665426 0.478309 
0.0396872 0.068961 0.455732 0.0468528 0.0705577 0.432857 0.0538784 0.0714357 0.409797 
0.0608537 0.0717061 0.38663 0.0678486 0.0714787 0.36339 0.0749061 0.0708548 0.340061 
0.0820356 0.0699215 0.316582 0.0892105 0.0687487 0.292854 0.0963672 0.0673889 0.268749 
0.103408 0.0658784 0.24413 0.110205 0.0642414 0.218865 0.116611 0.0624937 0.19285 
0.122464 0.060648 0.166021 0.127602 0.0587179 0.138369 0.131872 0.056721 0.109941 
0.135142 0.0546805 0.080848 0.137305 0.0526253 0.051252 0.138292 0.0505879 0.0213593 
0.138073 0.0486021 -0.00859661 0.136657 0.0466992 -0.0383727 0.134094 0.044904 -0.0677342 
0.130467 0.0432322 -0.0964719 0.125885 0.0416882 -0.124415 0.120476 0.0402646 -0.151439 
0.114379 0.0389435 -0.177473 0.107731 0.0376993 -0.202493 0.10066 0.0365028 -0.22652 
0.0932769 0.0353264 -0.249608 0.085673 0.034149 -0.271834 0.0779151 0.0329608 -0.293283 
0.0700461 0.0317667 -0.314038 0.0620875 0.0305885 -0.334174 0.0540435 0.0294644 -0.353746 
0.0459064 0.028447 -0.372791 0.0376635 0.0275994 -0.391329 0.0293028 0.0269892 -0.409362 
0.0208186 0.0266824 -0.426888 0.0122158 0.0267363 -0.443901 0.00351233 0.0271936 -0.460398 
-0.00526022 0.0280769 -0.476386 -0.0140579 0.0293854 -0.491884 -0.0228274 0.0310941 -0.506922 
-0.0315098 0.033154 -0.52154 -0.0400459 0.0354954 -0.535781 -0.0483806 0.038033 -0.549688 
-0.0564675 0.0406717 -0.563295 -0.0642725 0.0433136 -0.57662 -0.0717756 0.0458648 -0.589666 
-0.0789718 0.0482416 -0.602408 -0.0858698 0.0503761 -0.614803 -0.0924901 0.0522189 -0.626784 
-0.0988612 0.0537418 -0.638271 -0.105015 0.0549373 -0.649174 -0.110985 0.0558172 -0.6594 
-0.116796 0.0564094 -0.668863 -0.122468 0.0567538 -0.677491 -0.128007 0.0568981 -0.685232 
-0.133408 0.0568927 -0.692058 -0.138651 0.0567869 -0.697967 -0.143705 0.056625 -0.702982 
-0.148525 0.056444 -0.707153 -0.153059 0.0562717 -0.710548 -0.157251 0.0561269 -0.71325 
-0.161037 0.0560192 -0.71535 -0.16436 0.055951 -0.716943 -0.167162 0.055919 -0.718119 
-0.169394 0.0559166 -0.718958 -0.171014 0.0559363 -0.719527 -0.171992 0.0559714 -0.719876 
-0.172309 0.0560174 -0.720035 
LINES 2 100
OFFSETS vtktypeint64
0 100 
CONNECTIVITY vtktypeint64
0 1 2 3 4 5 6 7 8 
9 10 11 12 13 14 15 16 17 
18 19 20 21 22 23 24 25 26 
27 28 29 30 31 32 33 34 35 
36 37 38 39 40 41 42 43 44 
45 46 47 48 49 50 51 52 53 
54 55 56 57 58 59 60 61 62 
63 64 65 66 67 68 69 70 71 
72 73 74 75 76 77 78 79 80 
81 82 83 84 85 86 87 88 89 
90 91 92 93 94 95 96 97 98 
99 
POINT_DATA 100
FIELD FieldData 3
_theta 1 100 double
0 0.031733259127 0.063466518254 0.095199777382 0.12693303651 0.15866629564 0.19039955476 0.22213281389 0.25386607302 
0.28559933214 0.31733259127 0.3490658504 0.38079910953 0.41253236865 0.44426562778 0.47599888691 0.50773214603 0.53946540516 
0.57119866429 0.60293192342 0.63466518254 0.66639844167 0.6981317008 0.72986495992 0.76159821905 0.79333147818 0.82506473731 
0.85679799643 0.88853125556 0.92026451469 0.95199777382 0.98373103294 1.0154642921 1.0471975512 1.0789308103 1.1106640695 
1.1423973286 1.1741305877 1.2058638468 1.237597106 1.2693303651 1.3010636242 1.3327968833 1.3645301425 1.3962634016 
1.4279966607 1.4597299198 1.491463179 1.5231964381 1.5549296972 1.5866629564 1.6183962155 1.6501294746 1.6818627337 
1.7135959929 1.745329252 1.7770625111 1.8087957702 1.8405290294 1.8722622885 1.9039955476 1.9357288068 1.9674620659 
1.999195325 2.0309285841 2.0626618433 2.0943951024 2.1261283615 2.1578616206 2.1895948798 2.2213281389 2.253061398 
2.2847946572 2.3165279163 2.3482611754 2.3799944345 2.4117276937 2.4434609528 2.4751942119 2.506927471 2.5386607302 
2.5703939893 2.6021272484 2.6338605076 2.6655937667 2.6973270258 2.7290602849 2.7607935441 2.7925268032 2.8242600623 
2.8559933214 2.8877265806 2.9194598397 2.9511930988 2.982926358 3.0146596171 3.0463928762 3.0781261353 3.1098593945 
3.1415926536 
_radius 1 100 double
8.0873098686e-16 0.017853058058 0.035576328941 0.053031020489 0.070068025843 0.08652531629 0.10222787583 0.11699069084 0.13062502363 
0.14294782659 0.15379371665 0.16302848178 0.17056270805 0.17636388045 0.18046528719 0.18297027894 0.18405088712 0.18394043555 
0.1829204987 0.18130326729 0.17941097475 0.17755441064 0.17601258479 0.17501523788 0.17472922732 0.17524919384 0.17659268601 
0.17870009552 0.18143996977 0.18462016682 0.18800484481 0.19133654338 0.19436165945 0.19685643634 0.1986494037 0.19963599096 
0.19978344753 0.19912865695 0.19777271863 0.19587248946 0.19362706575 0.19125937809 0.18899589559 0.18704825707 0.18559961112 
0.18479647387 0.18474499626 0.185509536 0.18711170426 0.18952932673 0.1926963589 0.19650590396 0.20081831791 0.20547471899 
0.21031386543 0.21518875324 0.21997929626 0.22459884497 0.22899417618 0.23314012565 0.23703086535 0.24066997378 0.24406114277 
0.24720087032 0.25007398175 0.25265234992 0.25489672082 0.25676106976 0.25819847042 0.25916717614 0.2596355992 0.25958515412 
0.25901042277 0.25791665992 0.25631515094 0.25421726871 0.25162822627 0.24854150726 0.24493483055 0.24076832169 0.23598534701 
0.23051619465 0.22428441986 0.2172152058 0.2092446076 0.20032819443 0.19044752941 0.17961321681 0.16786388743 0.15526137798 
0.14188328712 0.1278147772 0.11314163404 0.097946035782 0.082305397618 0.06629356386 0.04998303377 0.033446988794 0.016760393068 
3.5384951695e-16 
_area 1 100 double
0 0.00067668583477 0.0026915179236 0.0059960089515 0.010501310979 0.01607014515 0.02251142501 0.029580273516 0.036984840244 
0.044400356694 0.051490185988 0.057932779026 0.063452095139 0.067847282752 0.071015830834 0.07296392669 0.073799503279 0.073708211727 
0.072919205787 0.071671834855 0.070191676051 0.068676768243 0.067289962259 0.066154976997 0.065357670467 0.0649521866 0.064966857076 
0.065406761094 0.066253948104 0.067466474961 0.068978153181 0.070702715349 0.072542663756 0.074394586091 0.076151633877 0.077727480044 
0.079092021125 0.080310850971 0.081691955783 0.08370134846 0.08570470348 0.087462741286 0.08902906439 0.090514783339 0.092031478666 
0.093670565538 0.095503884857 0.097707775925 0.10026692792 0.10342307627 0.10699632579 0.11087280326 0.11498889313 0.1192882062 
0.12371592098 0.12821380459 0.13271383343 0.13713523315 0.1413878403 0.14537995786 0.14902636471 0.152253375 0.15500080695 
0.15722238733 0.15888553878 0.15997034515 0.16046766436 0.16037772345 0.15971110558 0.15849223601 0.15676196579 0.15457326642 
0.1519778302 0.14901696285 0.14573376467 0.14217858376 0.13838677254 0.13435300721 0.13002234071 0.12530154019 0.12008314803 
0.11427246137 0.10781057281 0.10069017574 0.092962789894 0.084736751839 0.076166002139 0.067431223201 0.058717212659 0.050192490226 
0.041997380077 0.03424402957 0.027026751442 0.020436549659 0.01457254945 0.0095455587108 0.0054729598618 0.002467285761 0.00062225758976 
5.2363258476e-17 
