# vtk DataFile Version 5.1
vtk output
ASCII
DATASET POLYDATA
POINTS 100 float
-0.221729 -0.0137015 0.715963 -0.220964 -0.0135658 0.715212 -0.218753 -0.0130431 0.713137 
-0.215174 -0.0121902 0.709805 -0.21035 -0.0110916 0.705317 -0.204432 -0.00984618 0.699799 
-0.197582 -0.00855149 0.693389 -0.189958 -0.00728718 0.686225 -0.181697 -0.00610071 0.678433 
-0.172908 -0.00499693 0.670112 -0.163665 -0.00393334 0.661334 -0.154009 -0.00282179 0.652137 
-0.143961 -0.00153686 0.642524 -0.133528 7.01103e-05 0.632472 -0.122721 0.00215274 0.621936 
-0.111565 0.00484926 0.610865 -0.100115 0.00826258 0.599204 -0.0884579 0.0124433 0.586912 
-0.076711 0.0173776 0.573965 -0.0650159 0.022982 0.560364 -0.0535234 0.0291057 0.546132 
-0.0423758 0.0355397 0.531317 -0.0316873 0.0420335 0.515978 -0.0215253 0.0483156 0.500183 
-0.0118975 0.0541172 0.483991 -0.00274527 0.0591957 0.467448 0.0060542 0.0633556 0.450572 
0.0146757 0.0664646 0.433351 0.0233258 0.0684628 0.415735 0.0322159 0.0693655 0.397644 
0.0415323 0.0692572 0.378969 0.0514058 0.0682798 0.359585 0.0618866 0.0666151 0.339366 
0.0729263 0.0644647 0.318199 0.0843711 0.0620286 0.296 0.0959667 0.0594861 0.272728 
0.107375 0.0569794 0.248397 0.118203 0.0546042 0.223078 0.128036 0.0524047 0.196905 
0.13648 0.0503765 0.170066 0.143195 0.0484746 0.142795 0.147932 0.046626 0.115354 
0.150558 0.0447447 0.0880171 0.151064 0.0427486 0.0610491 0.149568 0.0405736 0.0346887 
0.146299 0.0381855 0.00913125 0.141573 0.0355878 -0.0154837 0.135759 0.0328232 -0.039079 
0.129243 0.0299711 -0.0616411 0.12239 0.0271396 -0.0832154 0.115513 0.0244539 -0.103896 
0.108845 0.0220435 -0.123813 0.102531 0.0200274 -0.143114 0.0966204 0.0185018 -0.16195 
0.0910796 0.0175303 -0.180457 0.0858065 0.0171372 -0.198744 0.0806562 0.0173058 -0.216885 
0.0754677 0.0179815 -0.234915 0.0700894 0.0190775 -0.252827 0.0644008 0.0204852 -0.270582 
0.0583275 0.0220853 -0.288115 0.0518475 0.0237598 -0.305349 0.0449898 0.0254031 -0.322202 
0.0378249 0.0269311 -0.338605 0.0304509 0.028287 -0.354507 0.0229762 0.0294439 -0.36988 
0.0155024 0.030404 -0.384726 0.0081109 0.0311943 -0.399068 0.000853728 0.03186 -0.412953 
-0.00624925 0.0324564 -0.426436 -0.0132067 0.03304 -0.439575 -0.0200472 0.0336604 -0.452419 
-0.0268064 0.0343538 -0.464998 -0.0335137 0.035138 -0.477319 -0.04018 0.0360102 -0.489361 
-0.0467884 0.036948 -0.501076 -0.0532913 0.0379118 -0.512392 -0.0596126 0.0388498 -0.523223 
-0.0656566 0.0397037 -0.533477 -0.0713206 0.0404154 -0.543064 -0.0765113 0.0409333 -0.551915 
-0.0811608 0.0412173 -0.55998 -0.0852399 0.0412427 -0.567244 -0.0887675 0.0410025 -0.573723 
-0.0918121 0.0405073 -0.579469 -0.094487 0.0397838 -0.584558 -0.0969383 0.0388723 -0.589088 
-0.0993266 0.037822 -0.593163 -0.101806 0.0366869 -0.596888 -0.104502 0.0355212 -0.600352 
-0.107493 0.0343755 -0.603621 -0.110794 0.0332932 -0.606734 -0.114355 0.0323089 -0.609695 
-0.118057 0.0314475 -0.612479 -0.121727 0.0307242 -0.615032 -0.125157 0.0301462 -0.617285 
-0.128123 0.0297149 -0.619157 -0.130418 0.0294276 -0.620573 -0.13187 0.0292805 -0.621467 
-0.132368 0.0292704 -0.621798 
LINES 2 100
OFFSETS vtktypeint64
0 100 
CONNECTIVITY vtktypeint64
0 1 2 3 4 5 6 7 8 
9 10 11 12 13 14 15 16 17 
18 19 20 21 22 23 24 25 26 
27 28 29 30 31 32 33 34 35 
36 37 38 39 40 41 42 43 44 
45 46 47 48 49 50 51 52 53 
54 55 56 57 58 59 60 61 62 
63 64 65 66 67 68 69 70 71 
72 73 74 75 76 77 78 79 80 
81 82 83 84 85 86 87 88 89 
90 91 92 93 94 95 96 97 98 
99 
POINT_DATA 100
FIELD FieldData 3
_theta 1 100 double
0 0.031733259127 0.063466518254 0.095199777382 0.12693303651 0.15866629564 0.19039955476 0.22213281389 0.25386607302 
0.28559933214 0.31733259127 0.3490658504 0.38079910953 0.41253236865 0.44426562778 0.47599888691 0.50773214603 0.53946540516 
0.57119866429 0.60293192342 0.63466518254 0.66639844167 0.6981317008 0.72986495992 0.76159821905 0.79333147818 0.82506473731 
0.85679799643 0.88853125556 0.92026451469 0.95199777382 0.98373103294 1.0154642921 1.0471975512 1.0789308103 1.1106640695 
1.1423973286 1.1741305877 1.2058638468 1.237597106 1.2693303651 1.3010636242 1.3327968833 1.3645301425 1.3962634016 
1.4279966607 1.4597299198 1.491463179 1.5231964381 1.5549296972 1.5866629564 1.6183962155 1.6501294746 1.6818627337 
1.7135959929 1.745329252 1.7770625111 1.8087957702 1.8405290294 1.8722622885 1.9039955476 1.9357288068 1.9674620659 
1.999195325 2.0309285841 2.0626618433 2.0943951024 2.1261283615 2.1578616206 2.1895948798 2.2213281389 2.253061398 
2.2847946572 2.3165279163 2.3482611754 2.3799944345 2.4117276937 2.4434609528 2.4751942119 2.506927471 2.5386607302 
2.5703939893 2.6021272484 2.6338605076 2.6655937667 2.6973270258 2.7290602849 2.7607935441 2.7925268032 2.8242600623 
2.8559933214 2.8877265806 2.9194598397 2.9511930988 2.982926358 3.0146596171 3.0463928762 3.0781261353 3.1098593945 
3.1415926536 
_radius 1 100 double
2.7764247878e-16 0.015100912923 0.030053060018 0.044721818864 0.058990735879 0.072761200922 0.085945470205 0.098456155128 0.11019713686 
0.12106070322 0.13093349442 0.13971059503 0.14731427807 0.153712524 0.15893267353 0.16306694789 0.16626840631 0.16873767692 
0.17070222197 0.17239092787 0.1740074736 0.17570621267 0.17757410401 0.1796214501 0.18178290882 0.1839287143 0.1858846254 
0.1874580381 0.18846696477 0.18876814747 0.18828049134 0.1870005008 0.18500768487 0.18245984498 0.17958008036 0.17663828274 
0.17392950369 0.1717505987 0.17037600952 0.17003378369 0.17088364262 0.17299974636 0.17636153032 0.18085596012 0.18629273718 
0.19243037382 0.19900729789 0.20577056086 0.21249661514 0.21900275995 0.22515131047 0.23084956591 0.23604772113 0.24073540428 
0.24493654144 0.24870203601 0.25210016146 0.25520532688 0.25808667802 0.26079849105 0.26337418001 0.26582487676 0.26814224229 
0.27030400698 0.27228024372 0.27403870003 0.27554836694 0.27678133397 0.27771344571 0.27832420838 0.27859597868 0.27851207057 
0.27805337455 0.27719352689 0.27589343337 0.27409665758 0.27172741019 0.26869241127 0.26488687864 0.26020374503 0.25454439489 
0.24782900446 0.24000491814 0.23105213023 0.22098556144 0.2098542511 0.19773782322 0.18474071226 0.17098473223 0.15660066415 
0.14171961385 0.12646493898 0.11094554296 0.095251242646 0.079450685576 0.06359190194 0.047705087181 0.031806772021 0.015904337627 
7.716383259e-16 
_area 1 100 double
0 0.0005446621914 0.0021547312007 0.0047630828554 0.0082719977431 0.012569142162 0.017537922447 0.023052695449 0.028960714282 
0.0350683011 0.041146506656 0.046954938664 0.05227303695 0.056929283391 0.060823145848 0.063937768847 0.066342170114 0.068179140506 
0.069634091716 0.070894245789 0.072121591884 0.073443468103 0.074946967004 0.076672440782 0.078607237741 0.08068141253 0.08276723341 
0.084686641933 0.086233124921 0.087211612378 0.087490739947 0.087051738042 0.086015402645 0.084635200659 0.083256728257 0.082254680063 
0.081956518259 0.082557287987 0.08407025737 0.086376885579 0.089321899824 0.092771738203 0.096636763388 0.10087869983 0.10554042837 
0.11086757744 0.11719903768 0.12419914199 0.1315335624 0.13898187377 0.14631633578 0.15336521806 0.16015804384 0.16637893006 
0.17194607531 0.17649789802 0.18012905697 0.18299534766 0.18506001726 0.18647709152 0.18744680448 0.18813399146 0.18856849985 
0.18865927976 0.18831789018 0.187506501 0.18623539202 0.18456469703 0.18278351614 0.18094906987 0.17911172195 0.17735073955 
0.1756515899 0.17393250855 0.17204644403 0.1697881886 0.1669155003 0.16318356944 0.15838203329 0.15236401712 0.14506441877 
0.13650951397 0.12681940125 0.11620201022 0.10493614232 0.093342991947 0.081749896374 0.070454196498 0.059696463155 0.049649513185 
0.040423562987 0.032082025003 0.02466017682 0.018180473749 0.012661553517 0.0081211231526 0.0045749992475 0.0020351817039 0.00050902873064 
8.4120943722e-17 
