# vtk DataFile Version 5.1
vtk output
ASCII
DATASET POLYDATA
POINTS 100 float
-0.0844134 -0.0362666 0.696994 -0.0846338 -0.0360871 0.69709 -0.0853082 -0.0353586 0.697328 
-0.0863606 -0.0341211 0.697595 -0.0876728 -0.0324366 0.697712 -0.0890971 -0.0303822 0.697462 
-0.0904718 -0.0280406 0.69661 -0.0916366 -0.0254905 0.69493 -0.0924471 -0.0227979 0.692228 
-0.0927867 -0.0200086 0.688362 -0.0925724 -0.0171443 0.683254 -0.0917577 -0.0142006 0.676895 
-0.0903286 -0.0111501 0.669341 -0.0882969 -0.00794705 0.660698 -0.0856904 -0.00453564 0.651111 
-0.0825418 -0.000859425 0.640735 -0.0788796 0.00312886 0.629722 -0.0747204 0.00745812 0.618195 
-0.070066 0.0121317 0.60624 -0.0649037 0.0171229 0.593894 -0.0592113 0.0223735 0.581148 
-0.0529654 0.0277965 0.567951 -0.0461501 0.0332811 0.554225 -0.0387675 0.0387007 0.539877 
-0.0308448 0.0439227 0.52482 -0.0224388 0.0488187 0.508985 -0.0136357 0.0532742 0.492338 
-0.00454641 0.0571965 0.474881 0.00470251 0.0605207 0.456659 0.0139811 0.0632126 0.437749 
0.0231696 0.065268 0.418253 0.0321714 0.0667104 0.398283 0.040923 0.0675849 0.377945 
0.0494001 0.0679517 0.357323 0.0576172 0.0678782 0.336469 0.0656218 0.0674321 0.315394 
0.0734824 0.0666745 0.294069 0.0812729 0.0656565 0.272429 0.089054 0.0644159 0.250382 
0.0968559 0.0629782 0.227829 0.104663 0.0613581 0.204673 0.112404 0.0595634 0.180844 
0.119949 0.0575997 0.156305 0.127115 0.0554751 0.13107 0.133677 0.0532045 0.105203 
0.13939 0.0508131 0.0788192 0.144006 0.0483372 0.0520762 0.147307 0.0458242 0.0251632 
0.149119 0.0433303 -0.00171537 0.149337 0.040917 -0.0283561 0.147936 0.0386454 -0.0545725 
0.144971 0.036572 -0.0802081 0.140576 0.0347426 -0.105145 0.134945 0.0331891 -0.12931 
0.128316 0.0319255 -0.152669 0.120943 0.030948 -0.175227 0.113072 0.0302347 -0.197015 
0.104917 0.0297492 -0.218082 0.0966428 0.0294437 -0.238485 0.0883495 0.0292649 -0.258277 
0.0800748 0.0291592 -0.277501 0.0717971 0.0290784 -0.296191 0.0634494 0.0289843 -0.314367 
0.0549385 0.0288522 -0.332039 0.0461665 0.0286733 -0.349216 0.0370521 0.0284548 -0.365907 
0.0275493 0.0282184 -0.382128 0.0176595 0.0279982 -0.397907 0.00743676 0.0278361 -0.413282 
-0.00301462 0.0277776 -0.428301 -0.0135506 0.0278667 -0.443014 -0.024003 0.0281415 -0.457468 
-0.0341993 0.0286301 -0.471699 -0.0439829 0.0293477 -0.48572 -0.0532307 0.0302946 -0.499521 
-0.0618669 0.0314555 -0.513062 -0.0698694 0.0328008 -0.526273 -0.0772695 0.0342876 -0.539062 
-0.0841441 0.0358628 -0.551321 -0.0906013 0.0374664 -0.562939 -0.0967628 0.0390352 -0.573813 
-0.102745 0.0405063 -0.583862 -0.108639 0.0418214 -0.593037 -0.114499 0.0429293 -0.601326 
-0.120334 0.0437896 -0.608759 -0.126103 0.0443739 -0.615401 -0.131724 0.0446681 -0.621351 
-0.137086 0.0446725 -0.626723 -0.142064 0.0444018 -0.631635 -0.146535 0.0438846 -0.636197 
-0.150402 0.0431614 -0.640491 -0.153601 0.042283 -0.64457 -0.156115 0.0413073 -0.648442 
-0.157972 0.0402967 -0.652078 -0.159246 0.0393145 -0.655412 -0.160042 0.0384219 -0.658353 
-0.16048 0.0376741 -0.660798 -0.16068 0.0371178 -0.662645 -0.160743 0.0367886 -0.663809 
-0.160737 0.0367085 -0.664234 
LINES 2 100
OFFSETS vtktypeint64
0 100 
CONNECTIVITY vtktypeint64
0 1 2 3 4 5 6 7 8 
9 10 11 12 13 14 15 16 17 
18 19 20 21 22 23 24 25 26 
27 28 29 30 31 32 33 34 35 
36 37 38 39 40 41 42 43 44 
45 46 47 48 49 50 51 52 53 
54 55 56 57 58 59 60 61 62 
63 64 65 66 67 68 69 70 71 
72 73 74 75 76 77 78 79 80 
81 82 83 84 85 86 87 88 89 
90 91 92 93 94 95 96 97 98 
99 
POINT_DATA 100
FIELD FieldData 3
_theta 1 100 double
0 0.031733259127 0.063466518254 0.095199777382 0.12693303651 0.15866629564 0.19039955476 0.22213281389 0.25386607302 
0.28559933214 0.31733259127 0.3490658504 0.38079910953 0.41253236865 0.44426562778 0.47599888691 0.50773214603 0.53946540516 
0.57119866429 0.60293192342 0.63466518254 0.66639844167 0.6981317008 0.72986495992 0.76159821905 0.79333147818 0.82506473731 
0.85679799643 0.88853125556 0.92026451469 0.95199777382 0.98373103294 1.0154642921 1.0471975512 1.0789308103 1.1106640695 
1.1423973286 1.1741305877 1.2058638468 1.237597106 1.2693303651 1.3010636242 1.3327968833 1.3645301425 1.3962634016 
1.4279966607 1.4597299198 1.491463179 1.5231964381 1.5549296972 1.5866629564 1.6183962155 1.6501294746 1.6818627337 
1.7135959929 1.745329252 1.7770625111 1.8087957702 1.8405290294 1.8722622885 1.9039955476 1.9357288068 1.9674620659 
1.999195325 2.0309285841 2.0626618433 2.0943951024 2.1261283615 2.1578616206 2.1895948798 2.2213281389 2.253061398 
2.2847946572 2.3165279163 2.3482611754 2.3799944345 2.4117276937 2.4434609528 2.4751942119 2.506927471 2.5386607302 
2.5703939893 2.6021272484 2.6338605076 2.6655937667 2.6973270258 2.7290602849 2.7607935441 2.7925268032 2.8242600623 
2.8559933214 2.8877265806 2.9194598397 2.9511930988 2.982926358 3.0146596171 3.0463928762 3.0781261353 3.1098593945 
3.1415926536 
_radius 1 100 double
5.930623543e-16 0.014127062392 0.028151882403 0.041977567675 0.055529461656 0.068758375174 0.081636627672 0.094148175158 0.10627591401 
0.11799001046 0.12924049663 0.13995572479 0.15004638872 0.15941348135 0.16795810011 0.17559130027 0.18224285785 0.18786847113 
0.19245535453 0.19602624957 0.1986416291 0.20039949182 0.20143193303 0.20189789266 0.20197216092 0.20183161378 0.20164035505 
0.20153565197 0.20161624587 0.20193406078 0.20248989394 0.20323355559 0.20406897181 0.20486460067 0.20546895055 0.2057301478 
0.20551758212 0.20474283848 0.20337665906 0.20145885199 0.19909898801 0.19646729364 0.19377714894 0.19126265487 0.18915604672 
0.18766920901 0.18698087649 0.18722775286 0.18849620268 0.19081261459 0.19413389076 0.19834233797 0.20324951223 0.20861100314 
0.21415029526 0.21958693072 0.22466351106 0.2291673886 0.23294507799 0.23590933405 0.23803989813 0.23937911755 0.24002335884 
0.24011080435 0.23980615206 0.2392830368 0.23870557173 0.23821104391 0.23789615485 0.23780892766 0.23794733036 0.2382640213 
0.2386750844 0.23906994206 0.23932013088 0.23928596758 0.23882156891 0.23777951341 0.23601634628 0.23339934519 0.22981400663 
0.22517107474 0.21941183512 0.21251075784 0.20447516251 0.19534216532 0.1851736072 0.17404990102 0.16206377266 0.149314708 
0.13590455674 0.12193426024 0.10750127834 0.092697226066 0.077605532863 0.062299375142 0.046840401659 0.031278725518 0.01565436836 
1.5215776389e-15 
_area 1 100 double
0 0.0005396034408 0.0021441170821 0.0047736980863 0.0083702293365 0.012864519859 0.018179359193 0.024226467338 0.0308976914 
0.038052813914 0.045508562408 0.053035010898 0.060364455457 0.06721368216 0.073315605454 0.078452873309 0.082484892971 0.085360729139 
0.087114078824 0.087844016774 0.087693408808 0.086836462698 0.085475079953 0.083836082232 0.082175177129 0.080817824036 0.080082277722 
0.079946954023 0.080282404707 0.081043589031 0.082234729841 0.083863840212 0.085897988753 0.088229392985 0.090668724039 0.092967838769 
0.094889343428 0.096261525855 0.096863899579 0.096665055637 0.095788118395 0.094527693257 0.093093443934 0.09181912645 0.090829229414 
0.090401093283 0.091008778371 0.092652094083 0.095267339593 0.098816467176 0.103249206 0.10849363696 0.11443405024 0.12089133629 
0.12762368024 0.13434517594 0.14075041606 0.14653991039 0.15144665631 0.15526193574 0.15785679865 0.15919645424 0.15934493225 
0.1584575315 0.1567602644 0.15451859151 0.15200081244 0.14944305881 0.14702249551 0.14484324623 0.1429358289 0.14126735198 
0.13975835963 0.13830143471 0.13677622191 0.1350575305 0.13301662248 0.13051903496 0.12742474672 0.12359639535 0.11891677233 
0.11331042056 0.10676157209 0.099323308437 0.091116827216 0.082321923437 0.073160384835 0.063874496183 0.054704034663 0.045866344548 
0.037543729379 0.029879642121 0.02298147087 0.016925971188 0.011764583204 0.0075281308748 0.0042315666529 0.0018791298994 0.00046948547379 
4.0352020026e-17 
