# vtk DataFile Version 5.1
vtk output
ASCII
DATASET POLYDATA
POINTS 100 float
-0.0302124 -0.0381009 0.754205 -0.0304389 -0.0378479 0.754084 -0.0311069 -0.0369197 0.753632 
-0.0322157 -0.0353825 0.752754 -0.0337606 -0.0333392 0.751308 -0.0357269 -0.0309159 0.749116 
-0.0380835 -0.0282466 0.745994 -0.0407756 -0.0254562 0.741768 -0.0437193 -0.0226458 0.736299 
-0.0467974 -0.0198802 0.729501 -0.0498589 -0.0171807 0.721352 -0.0527216 -0.0145231 0.711895 
-0.0551782 -0.0118422 0.701238 -0.0570067 -0.00904072 0.689542 -0.0579831 -0.00600339 0.677004 
-0.057896 -0.00261278 0.663834 -0.0565622 0.00123402 0.650237 -0.0538412 0.00561034 0.636389 
-0.0496476 0.0105482 0.622423 -0.0439604 0.0160311 0.608415 -0.0368269 0.0219929 0.594383 
-0.0283622 0.028321 0.580289 -0.0187434 0.0348664 0.566044 -0.00819787 0.0414555 0.551528 
0.00301114 0.0479062 0.536605 0.0146032 0.0540425 0.521139 0.0262998 0.0597096 0.505013 
0.0378436 0.0647845 0.488142 0.0490155 0.0691835 0.470481 0.0596475 0.0728648 0.452028 
0.0696321 0.0758267 0.43282 0.0789244 0.078101 0.412927 0.0875395 0.0797443 0.392438 
0.0955444 0.0808271 0.37145 0.103044 0.0814232 0.350055 0.110166 0.0815995 0.328324 
0.117042 0.0814094 0.306306 0.123788 0.0808881 0.284018 0.130491 0.0800525 0.261449 
0.137194 0.0789033 0.238567 0.143887 0.0774308 0.215323 0.150508 0.0756211 0.191668 
0.156941 0.0734642 0.16756 0.163027 0.0709606 0.142976 0.168577 0.0681262 0.117923 
0.173385 0.0649958 0.0924368 0.17725 0.0616228 0.0665877 0.179987 0.0580774 0.0404743 
0.181448 0.0544409 0.0142165 0.181531 0.0508005 -0.0120538 0.180191 0.0472417 -0.0382037 
0.17744 0.0438417 -0.0641098 0.173346 0.040664 -0.089667 0.168026 0.0377541 -0.114795 
0.161638 0.0351385 -0.139441 0.154363 0.0328248 -0.16358 0.146392 0.0308043 -0.187206 
0.137914 0.0290564 -0.210332 0.129098 0.0275533 -0.232978 0.120087 0.0262652 -0.255162 
0.110989 0.0251649 -0.276895 0.101872 0.0242314 -0.298175 0.0927701 0.0234518 -0.318981 
0.0836831 0.0228217 -0.33928 0.0745868 0.0223446 -0.359023 0.0654411 0.0220293 -0.378158 
0.0562007 0.0218879 -0.396631 0.046824 0.021932 -0.4144 0.0372823 0.022171 -0.431437 
0.0275651 0.0226094 -0.447737 0.0176841 0.0232464 -0.463318 0.00767353 0.0240753 -0.478226 
-0.00241169 0.0250845 -0.492524 -0.0125006 0.0262581 -0.506293 -0.0225119 0.0275777 -0.519618 
-0.0323612 0.029023 -0.532584 -0.0419676 0.0305727 -0.54526 -0.0512602 0.032204 -0.557696 
-0.0601829 0.0338923 -0.569915 -0.0686973 0.0356099 -0.581909 -0.0767845 0.0373251 -0.593635 
-0.0844433 0.0390004 -0.605026 -0.0916884 0.0405933 -0.615988 -0.0985458 0.042056 -0.626414 
-0.105048 0.043338 -0.636191 -0.111229 0.0443888 -0.645212 -0.117119 0.0451625 -0.653384 
-0.122739 0.0456221 -0.660638 -0.1281 0.045745 -0.666932 -0.133199 0.0455269 -0.672261 
-0.138019 0.0449849 -0.676651 -0.142527 0.0441591 -0.68016 -0.146684 0.0431115 -0.682874 
-0.150437 0.0419229 -0.684898 -0.153732 0.0406872 -0.68635 -0.156514 0.0395048 -0.687347 
-0.15873 0.038474 -0.688003 -0.160336 0.0376826 -0.688414 -0.161296 0.0371997 -0.688654 
-0.16159 0.0370703 -0.688769 
LINES 2 100
OFFSETS vtktypeint64
0 100 
CONNECTIVITY vtktypeint64
0 1 2 3 4 5 6 7 8 
9 10 11 12 13 14 15 16 17 
18 19 20 21 22 23 24 25 26 
27 28 29 30 31 32 33 34 35 
36 37 38 39 40 41 42 43 44 
45 46 47 48 49 50 51 52 53 
54 55 56 57 58 59 60 61 62 
63 64 65 66 67 68 69 70 71 
72 73 74 75 76 77 78 79 80 
81 82 83 84 85 86 87 88 89 
90 91 92 93 94 95 96 97 98 
99 
POINT_DATA 100
FIELD FieldData 3
_theta 1 100 double
0 0.031733259127 0.063466518254 0.095199777382 0.12693303651 0.15866629564 0.19039955476 0.22213281389 0.25386607302 
0.28559933214 0.31733259127 0.3490658504 0.38079910953 0.41253236865 0.44426562778 0.47599888691 0.50773214603 0.53946540516 
0.57119866429 0.60293192342 0.63466518254 0.66639844167 0.6981317008 0.72986495992 0.76159821905 0.79333147818 0.82506473731 
0.85679799643 0.88853125556 0.92026451469 0.95199777382 0.98373103294 1.0154642921 1.0471975512 1.0789308103 1.1106640695 
1.1423973286 1.1741305877 1.2058638468 1.237597106 1.2693303651 1.3010636242 1.3327968833 1.3645301425 1.3962634016 
1.4279966607 1.4597299198 1.491463179 1.5231964381 1.5549296972 1.5866629564 1.6183962155 1.6501294746 1.6818627337 
1.7135959929 1.745329252 1.7770625111 1.8087957702 1.8405290294 1.8722622885 1.9039955476 1.9357288068 1.9674620659 
1.999195325 2.0309285841 2.0626618433 2.0943951024 2.1261283615 2.1578616206 2.1895948798 2.2213281389 2.253061398 
2.2847946572 2.3165279163 2.3482611754 2.3799944345 2.4117276937 2.4434609528 2.4751942119 2.506927471 2.5386607302 
2.5703939893 2.6021272484 2.6338605076 2.6655937667 2.6973270258 2.7290602849 2.7607935441 2.7925268032 2.8242600623 
2.8559933214 2.8877265806 2.9194598397 2.9511930988 2.982926358 3.0146596171 3.0463928762 3.0781261353 3.1098593945 
3.1415926536 
_radius 1 100 double
1.212322271e-16 0.013954700481 0.027836704792 0.041567616599 0.055068017399 0.068255533596 0.081042758193 0.093336693154 0.10504102885 
0.1160614312 0.12631271506 0.13572596704 0.14425365511 0.15187151943 0.15857732766 0.16438790201 0.1693365025 0.17347217213 
0.1768611749 0.1795890462 0.18176093751 0.18349822728 0.18493056395 0.18618410188 0.18736812947 0.18856309526 0.1898129449 
0.19112370966 0.19246870345 0.19379891864 0.19505580229 0.19618309485 0.19713507549 0.19788007507 0.19839976368 0.19868575134 
0.19873519145 0.19854676007 0.19811812232 0.19744577457 0.19652771662 0.19536876251 0.19398760483 0.19242413172 0.19074507139 
0.18904598198 0.18744815994 0.18609029833 0.18511628408 0.18466153548 0.18484017259 0.1857343615 0.18738615296 0.18979165713 
0.19289766203 0.19660149654 0.20075529736 0.20517536911 0.20965632023 0.21398868789 0.21797804341 0.22146308932 0.22433013585 
0.22652175199 0.22803831916 0.22893244605 0.22929738324 0.22925138968 0.22892029692 0.22842037419 0.22784327656 0.22724458624 
0.22663719149 0.22599023168 0.2252334737 0.22426609752 0.22296836505 0.22121455433 0.21888559419 0.2158798894 0.21212098764 
0.20756115837 0.20218063476 0.19598305832 0.18898832876 0.18122440908 0.17271959787 0.16349643938 0.15356798445 0.14293672636 
0.1315962907 0.11953578014 0.10674642069 0.093229757226 0.079006200491 0.064122434578 0.048656215653 0.032717455471 0.016445096064 
6.1099307377e-16 
_area 1 100 double
0 0.00054440886735 0.002167152528 0.0048348245565 0.0084845995296 0.013013338806 0.018266413635 0.024033833063 0.030060332834 
0.03607116701 0.041809425232 0.047076083421 0.05176162605 0.05585805718 0.059442868184 0.062634466956 0.065534026626 0.068183150083 
0.070559511346 0.072604178598 0.074256675211 0.075480246606 0.076273906444 0.076677041086 0.076772429149 0.076685966128 0.076576022521 
0.076608833609 0.076924551006 0.077605392713 0.078659599778 0.080044735887 0.081880525626 0.083892721039 0.08571478096 0.087219628736 
0.088339709225 0.089058721748 0.089397978154 0.089414811112 0.089213225195 0.088980143353 0.089018021117 0.089513927217 0.090447638297 
0.091535319959 0.092600317612 0.093583020941 0.094529924222 0.095551196471 0.096780034679 0.098359230524 0.1004352869 0.10313898271 
0.10654731823 0.11064702467 0.11532293785 0.12037229991 0.1255326271 0.13051526606 0.13504209967 0.1388816865 0.14187746854 
0.14395987894 0.14513886456 0.14548233351 0.14509323431 0.14409544428 0.14262696518 0.14082997768 0.1388302134 0.13671036678 
0.13449302566 0.1321450784 0.12959983203 0.12678326276 0.12363340846 0.12010838608 0.116183519 0.11184281176 0.10707224586 
0.10185832353 0.096190512299 0.090066311786 0.083498948521 0.076526642567 0.069220143207 0.061684277047 0.054051017377 0.046465511609 
0.039070291602 0.031994144469 0.025349924961 0.019240994346 0.013771488077 0.0090537940449 0.0052083013217 0.0023543138491 0.0005948139698 
4.5115937153e-17 
