# vtk DataFile Version 5.1
vtk output
ASCII
DATASET POLYDATA
POINTS 100 float
-0.149102 -0.0125363 0.737172 -0.14881 -0.0125368 0.736986 -0.147954 -0.0124307 0.736521 
-0.146556 -0.0122135 0.7357 -0.144648 -0.0118758 0.734402 -0.142271 -0.0114036 0.732481 
-0.139465 -0.010778 0.729783 -0.136271 -0.00997491 0.726167 -0.132722 -0.00896621 0.72152 
-0.128838 -0.00771975 0.715777 -0.124627 -0.00620054 0.70892 -0.120079 -0.00437212 0.700986 
-0.115173 -0.00219839 0.692055 -0.109873 0.000354027 0.682244 -0.104136 0.00331291 0.671682 
-0.0979149 0.00669719 0.660501 -0.0911683 0.0105134 0.648813 -0.0838631 0.0147523 0.636694 
-0.0759815 0.0193856 0.624184 -0.067525 0.0243637 0.611273 -0.0585169 0.0296144 0.597913 
-0.0490026 0.0350434 0.584024 -0.0390469 0.0405364 0.569511 -0.0287307 0.0459629 0.554277 
-0.0181443 0.0511825 0.53824 -0.00738095 0.0560524 0.521348 0.00347068 0.0604356 0.503589 
0.0143329 0.0642106 0.484991 0.0251439 0.0672793 0.46562 0.035861 0.0695752 0.445573 
0.0464602 0.0710681 0.424962 0.0569337 0.0717668 0.403899 0.0672845 0.0717189 0.382479 
0.0775184 0.0710066 0.360763 0.0876353 0.0697403 0.338776 0.0976199 0.0680485 0.316495 
0.107434 0.0660675 0.293854 0.117008 0.0639296 0.270757 0.126242 0.0617518 0.247088 
0.135003 0.0596273 0.222733 0.143131 0.0576187 0.197596 0.150446 0.0557548 0.17162 
0.156761 0.0540322 0.1448 0.161898 0.0524191 0.117193 0.165696 0.0508636 0.0889187 
0.168032 0.0493031 0.0601547 0.168826 0.0476761 0.0311255 0.168055 0.0459324 0.00208525 
0.165749 0.0440428 -0.0267021 0.161997 0.0420053 -0.0549832 0.156934 0.0398487 -0.0825338 
0.150733 0.0376314 -0.109174 0.143592 0.0354367 -0.134779 0.135714 0.033365 -0.159281 
0.127296 0.0315229 -0.182667 0.118512 0.030012 -0.204972 0.109503 0.0289172 -0.226268 
0.100369 0.0282968 -0.246651 0.0911697 0.0281755 -0.266224 0.0819241 0.0285409 -0.285089 
0.0726196 0.0293442 -0.303337 0.063222 0.0305047 -0.321042 0.0536863 0.0319181 -0.338264 
0.0439698 0.0334669 -0.355044 0.0340417 0.0350327 -0.371416 0.0238912 0.0365077 -0.387407 
0.0135311 0.0378057 -0.403046 0.00299759 0.0388696 -0.418363 -0.00765375 0.039676 -0.433396 
-0.0183556 0.0402357 -0.448181 -0.0290379 0.0405905 -0.462753 -0.039638 0.0408064 -0.477135 
-0.050109 0.0409645 -0.491335 -0.0604261 0.0411506 -0.505336 -0.0705891 0.0414444 -0.519093 
-0.0806207 0.0419098 -0.532533 -0.0905608 0.0425878 -0.545558 -0.100457 0.0434922 -0.558052 
-0.110353 0.0446076 -0.569894 -0.120277 0.0458926 -0.580971 -0.130228 0.0472839 -0.59119 
-0.14017 0.0487038 -0.600494 -0.150026 0.0500685 -0.608868 -0.159679 0.0512968 -0.616347 
-0.168979 0.0523177 -0.623012 -0.177753 0.053077 -0.628985 -0.185821 0.0535415 -0.634413 
-0.193015 0.0537008 -0.639456 -0.199195 0.0535667 -0.644264 -0.204268 0.053171 -0.648961 
-0.208197 0.0525612 -0.653626 -0.21101 0.0517956 -0.658288 -0.212798 0.0509383 -0.662914 
-0.213711 0.0500538 -0.667417 -0.213941 0.0492033 -0.671663 -0.213707 0.048441 -0.675487 
-0.21323 0.0478126 -0.678712 -0.212712 0.0473533 -0.681173 -0.212315 0.0470883 -0.682732 
-0.212143 0.0470319 -0.683299 
LINES 2 100
OFFSETS vtktypeint64
0 100 
CONNECTIVITY vtktypeint64
0 1 2 3 4 5 6 7 8 
9 10 11 12 13 14 15 16 17 
18 19 20 21 22 23 24 25 26 
27 28 29 30 31 32 33 34 35 
36 37 38 39 40 41 42 43 44 
45 46 47 48 49 50 51 52 53 
54 55 56 57 58 59 60 61 62 
63 64 65 66 67 68 69 70 71 
72 73 74 75 76 77 78 79 80 
81 82 83 84 85 86 87 88 89 
90 91 92 93 94 95 96 97 98 
99 
POINT_DATA 100
FIELD FieldData 3
_theta 1 100 double
0 0.031733259127 0.063466518254 0.095199777382 0.12693303651 0.15866629564 0.19039955476 0.22213281389 0.25386607302 
0.28559933214 0.31733259127 0.3490658504 0.38079910953 0.41253236865 0.44426562778 0.47599888691 0.50773214603 0.53946540516 
0.57119866429 0.60293192342 0.63466518254 0.66639844167 0.6981317008 0.72986495992 0.76159821905 0.79333147818 0.82506473731 
0.85679799643 0.88853125556 0.92026451469 0.95199777382 0.98373103294 1.0154642921 1.0471975512 1.0789308103 1.1106640695 
1.1423973286 1.1741305877 1.2058638468 1.237597106 1.2693303651 1.3010636242 1.3327968833 1.3645301425 1.3962634016 
1.4279966607 1.4597299198 1.491463179 1.5231964381 1.5549296972 1.5866629564 1.6183962155 1.6501294746 1.6818627337 
1.7135959929 1.745329252 1.7770625111 1.8087957702 1.8405290294 1.8722622885 1.9039955476 1.9357288068 1.9674620659 
1.999195325 2.0309285841 2.0626618433 2.0943951024 2.1261283615 2.1578616206 2.1895948798 2.2213281389 2.253061398 
2.2847946572 2.3165279163 2.3482611754 2.3799944345 2.4117276937 2.4434609528 2.4751942119 2.506927471 2.5386607302 
2.5703939893 2.6021272484 2.6338605076 2.6655937667 2.6973270258 2.7290602849 2.7607935441 2.7925268032 2.8242600623 
2.8559933214 2.8877265806 2.9194598397 2.9511930988 2.982926358 3.0146596171 3.0463928762 3.0781261353 3.1098593945 
3.1415926536 
_radius 1 100 double
1.1211468304e-16 0.015015821749 0.029905932276 0.044551122026 0.05884871648 0.072714208798 0.08607721816 0.098873369891 0.11103514491 
0.12248514027 0.13313441267 0.14288698489 0.15164977094 0.1593457001 0.16592705896 0.17138610403 0.17576067674 0.17913363954 
0.18162621219 0.18338649556 0.18457537106 0.1853522891 0.18586308199 0.18623103774 0.18655149477 0.18688956618 0.18728038466 
0.18773131117 0.18822564556 0.18872740755 0.18918677932 0.18954593817 0.18974524525 0.18972982317 0.18945610924 0.1888971531 
0.18804528021 0.18691228974 0.18552923576 0.18394726384 0.18223878206 0.18049744045 0.17883598633 0.17738184515 0.17627114151 
0.17564247596 0.17563108623 0.17636219908 0.17794149124 0.18044222112 0.18389156573 0.18826022009 0.19345812365 0.1993366825 
0.20569626502 0.21229774842 0.21887755696 0.22516587849 0.23090726874 0.23588199096 0.23992569677 0.24294477676 0.24492500003 
0.24593184208 0.24610198937 0.24562670225 0.24472883547 0.2436362315 0.24255481865 0.24164493453 0.24100396915 0.24065728433 
0.24055776622 0.24059293446 0.24059782604 0.24037188113 0.23969826487 0.23836400874 0.23617904948 0.23299202928 0.22870094152 
0.22325743851 0.21666467354 0.20896961224 0.20025154396 0.19060890622 0.18014650209 0.16896482919 0.15715266256 0.14478333786 
0.13191448286 0.1185904155 0.10484622205 0.090712630554 0.076220997964 0.061407840527 0.04631833673 0.03100825015 0.015543882867 
8.4723074797e-16 
_area 1 100 double
0 0.0005170155123 0.0020537246054 0.0045693997776 0.0080023823793 0.01227533579 0.017296874628 0.022958023911 0.029124685707 
0.035629699779 0.042269367666 0.048808751668 0.054997410078 0.060593522487 0.065391544231 0.069248522978 0.072111562542 0.074100808365 
0.075626435276 0.076817186982 0.077637112018 0.078119047284 0.078320218373 0.0783216969 0.078210277771 0.078071012097 0.077986197022 
0.078024043711 0.078226813345 0.078604622595 0.079137493668 0.079786766269 0.080513657399 0.081298752689 0.082151198512 0.083090915786 
0.084109586349 0.085154024898 0.086147663084 0.087036267367 0.087848426776 0.08874330587 0.08982755309 0.090894534834 0.091800155508 
0.092628687373 0.093591617184 0.094910237255 0.096727734413 0.099137751671 0.10225498453 0.10621783176 0.11114387098 0.11707329357 
0.12392357064 0.13147278823 0.13937397015 0.14719039041 0.15444177768 0.16065608742 0.16542326821 0.16844595229 0.16958049584 
0.16886353363 0.16653208459 0.16315901554 0.15935320106 0.15520174941 0.15099335977 0.1470406693 0.14358723983 0.14076596772 
0.13858831486 0.13695530296 0.1356779803 0.13450002237 0.13312246047 0.13123348961 0.12854387868 0.12482363512 0.11993242102 
0.11383713354 0.10661389125 0.098435502528 0.089547647549 0.080237772291 0.070801043726 0.06150806797 0.05257916977 0.044169738785 
0.036370685651 0.029225538833 0.022757790928 0.016994822636 0.011978763772 0.0077647169328 0.0044121589673 0.0019753058023 0.00049598724295 
1.68348588e-16 
