# vtk DataFile Version 5.1
vtk output
ASCII
DATASET POLYDATA
POINTS 100 float
-0.118047 -0.0489968 0.706896 -0.118077 -0.0487605 0.70688 -0.118138 -0.0478948 0.706808 
-0.118203 -0.0464361 0.706623 -0.118232 -0.0444406 0.706232 -0.118166 -0.0419788 0.70552 
-0.117937 -0.0391282 0.704354 -0.117469 -0.0359657 0.702601 -0.116679 -0.0325607 0.700128 
-0.115482 -0.0289688 0.696824 -0.113793 -0.0252279 0.692597 -0.111528 -0.0213566 0.687386 
-0.108609 -0.0173542 0.681157 -0.104966 -0.0132045 0.673909 -0.100538 -0.00887967 0.66566 
-0.0952758 -0.00434708 0.656452 -0.0891468 0.000424346 0.646334 -0.0821359 0.00545756 0.635359 
-0.0742486 0.0107617 0.623574 -0.0655132 0.016328 0.611015 -0.0559821 0.0221273 0.597703 
-0.0457311 0.0281096 0.583642 -0.0348581 0.0342059 0.56882 -0.0234792 0.0403309 0.553212 
-0.0117235 0.0463873 0.536787 0.000273473 0.0522711 0.519513 0.012378 0.0578765 0.501365 
0.0244657 0.0631007 0.48233 0.0364289 0.0678485 0.462416 0.0481825 0.072035 0.441649 
0.0596672 0.0755889 0.42008 0.0708499 0.0784534 0.397777 0.0817203 0.0805872 0.374827 
0.0922856 0.0819653 0.351325 0.10256 0.0825788 0.327371 0.112557 0.082435 0.303062 
0.122273 0.0815573 0.278484 0.131681 0.0799855 0.253708 0.140723 0.077775 0.22879 
0.149299 0.0749967 0.203769 0.157277 0.0717354 0.178666 0.164486 0.068088 0.153496 
0.170737 0.0641603 0.128267 0.175829 0.0600632 0.10299 0.179568 0.0559077 0.077686 
0.181787 0.0517996 0.0523883 0.182362 0.047834 0.0271489 0.181224 0.0440898 0.00203775 
0.178374 0.0406254 -0.0228587 0.173884 0.0374759 -0.0474422 0.167896 0.0346515 -0.0716092 
0.160611 0.0321388 -0.0952594 0.152279 0.0299039 -0.118304 0.143176 0.027897 -0.140673 
0.133585 0.0260591 -0.162323 0.123772 0.0243296 -0.183239 0.11397 0.0226536 -0.203437 
0.10436 0.0209893 -0.222961 0.0950619 0.0193135 -0.241875 0.0861331 0.017625 -0.260259 
0.0775693 0.0159466 -0.278198 0.0693156 0.014323 -0.295772 0.0612801 0.0128174 -0.313048 
0.0533518 0.0115056 -0.330073 0.0454185 0.0104684 -0.346869 0.0373834 0.00978336 -0.363434 
0.0291796 0.0095171 -0.379745 0.0207779 0.00971776 -0.395763 0.0121912 0.0104098 -0.411441 
0.00347176 0.0115906 -0.426734 -0.00529571 0.0132302 -0.441609 -0.0140051 0.0152726 -0.456048 
-0.022542 0.0176406 -0.470058 -0.0307965 0.0202415 -0.48367 -0.0386751 0.0229746 -0.496937 
-0.0461094 0.0257392 -0.509925 -0.05306 0.0284416 -0.522705 -0.0595165 0.0310024 -0.535342 
-0.0654934 0.0333607 -0.547878 -0.0710222 0.0354777 -0.560327 -0.0761414 0.0373373 -0.572661 
-0.0808868 0.0389448 -0.584806 -0.0852823 0.0403245 -0.596645 -0.0893339 0.0415144 -0.608021 
-0.0930269 0.0425617 -0.618749 -0.0963277 0.0435167 -0.628633 -0.0991891 0.0444276 -0.637482 
-0.101559 0.0453355 -0.645132 -0.103392 0.0462709 -0.651462 -0.104659 0.0472511 -0.65641 
-0.105357 0.0482795 -0.659986 -0.105516 0.0493457 -0.662271 -0.105202 0.050427 -0.663417 
-0.104513 0.0514913 -0.663635 -0.103577 0.0525001 -0.663178 -0.102534 0.0534123 -0.662319 
-0.101528 0.0541878 -0.661329 -0.100693 0.054791 -0.660449 -0.100133 0.055194 -0.65987 
-0.0999187 0.0553787 -0.659713 
LINES 2 100
OFFSETS vtktypeint64
0 100 
CONNECTIVITY vtktypeint64
0 1 2 3 4 5 6 7 8 
9 10 11 12 13 14 15 16 17 
18 19 20 21 22 23 24 25 26 
27 28 29 30 31 32 33 34 35 
36 37 38 39 40 41 42 43 44 
45 46 47 48 49 50 51 52 53 
54 55 56 57 58 59 60 61 62 
63 64 65 66 67 68 69 70 71 
72 73 74 75 76 77 78 79 80 
81 82 83 84 85 86 87 88 89 
90 91 92 93 94 95 96 97 98 
99 
POINT_DATA 100
FIELD FieldData 3
_theta 1 100 double
0 0.031733259127 0.063466518254 0.095199777382 0.12693303651 0.15866629564 0.19039955476 0.22213281389 0.25386607302 
0.28559933214 0.31733259127 0.3490658504 0.38079910953 0.41253236865 0.44426562778 0.47599888691 0.50773214603 0.53946540516 
0.57119866429 0.60293192342 0.63466518254 0.66639844167 0.6981317008 0.72986495992 0.76159821905 0.79333147818 0.82506473731 
0.85679799643 0.88853125556 0.92026451469 0.95199777382 0.98373103294 1.0154642921 1.0471975512 1.0789308103 1.1106640695 
1.1423973286 1.1741305877 1.2058638468 1.237597106 1.2693303651 1.3010636242 1.3327968833 1.3645301425 1.3962634016 
1.4279966607 1.4597299198 1.491463179 1.5231964381 1.5549296972 1.5866629564 1.6183962155 1.6501294746 1.6818627337 
1.7135959929 1.745329252 1.7770625111 1.8087957702 1.8405290294 1.8722622885 1.9039955476 1.9357288068 1.9674620659 
1.999195325 2.0309285841 2.0626618433 2.0943951024 2.1261283615 2.1578616206 2.1895948798 2.2213281389 2.253061398 
2.2847946572 2.3165279163 2.3482611754 2.3799944345 2.4117276937 2.4434609528 2.4751942119 2.506927471 2.5386607302 
2.5703939893 2.6021272484 2.6338605076 2.6655937667 2.6973270258 2.7290602849 2.7607935441 2.7925268032 2.8242600623 
2.8559933214 2.8877265806 2.9194598397 2.9511930988 2.982926358 3.0146596171 3.0463928762 3.0781261353 3.1098593945 
3.1415926536 
_radius 1 100 double
9.0250979038e-16 0.015582788714 0.031093106072 0.046449482236 0.061563537846 0.076336594314 0.0906568283 0.10439787657 0.11741991108 
0.12957399368 0.14071000384 0.15068771465 0.15938983977 0.16673526903 0.17269041018 0.17727663715 0.18057230734 0.18270857319 
0.18385915679 0.18422523774 0.18401747131 0.18343773717 0.18266334449 0.18183595371 0.18105642955 0.18038547894 0.17984872622 
0.17944428118 0.17915098703 0.17893616399 0.17876240139 0.17859347967 0.1783996647 0.17816242338 0.17787822198 0.17756072932 
0.17724072359 0.17696353514 0.1767847632 0.17676526647 0.17696558444 0.1774397665 0.17823010538 0.17936531162 0.18086347515 
0.18273861164 0.18500738317 0.18769195938 0.19081646495 0.19439745771 0.19843178498 0.2028862875 0.20769270194 0.21274886197 
0.21792537816 0.22307595341 0.22804918601 0.23269993715 0.23689897437 0.24054037493 0.24354674002 0.24587245424 0.24750508336 
0.24846474197 0.24880110546 0.24858782989 0.24791449673 0.24687670725 0.24556543231 0.24405699503 0.24240502762 0.24063542574 
0.23874484076 0.23670271203 0.23445629546 0.23193765019 0.22907128142 0.2257812817 0.22199728181 0.21765898649 0.21271927369 
0.20714580111 0.20092098342 0.19404024856 0.18650870611 0.17833670267 0.16953506759 0.16011102191 0.15006564344 0.13939346794 
0.1280843792 0.11612754815 0.10351689805 0.090257383322 0.076371227019 0.061903163617 0.0469237372 0.031529875997 0.015842323004 
1.4068083398e-15 
_area 1 100 double
0 0.00057164377374 0.0022846815409 0.0051301865722 0.0090831765938 0.014089939321 0.020054852599 0.026829997713 0.034210277947 
0.041935943809 0.049703521671 0.05718491421 0.06405299777 0.070010994217 0.074822419985 0.078337706179 0.080512424033 0.081412099155 
0.081201252769 0.080118396791 0.078441644585 0.076450322616 0.074388722498 0.072440612605 0.070722718054 0.069300495284 0.068221381285 
0.067652688038 0.067443666561 0.067639681085 0.068130012543 0.068766108811 0.069443917426 0.070124443036 0.070819956593 0.071587057843 
0.072516514058 0.073700575408 0.075152720675 0.076863069085 0.07878584438 0.080892546805 0.083136565981 0.08544627809 0.087720305138 
0.089878843341 0.09195194745 0.094206105696 0.097071080732 0.10046509739 0.10428522604 0.10854113864 0.11324990534 0.11839500378 
0.12390554052 0.12964927141 0.13544102016 0.14106323875 0.14629161529 0.15091936192 0.15477620507 0.15774007355 0.15974154011 
0.16076325408 0.16083766488 0.1600457872 0.15851782249 0.1564267697 0.15394907596 0.15123066846 0.14840158432 0.1455713389 
0.14280678215 0.14011645598 0.13744823777 0.13470106797 0.13174616834 0.12844956451 0.12468992434 0.1203709698 0.11543024981 
0.10984501839 0.1036343261 0.096856163801 0.089599577297 0.081973308505 0.074093833301 0.066075959549 0.05802817508 0.050053107448 
0.042251706405 0.03472891707 0.02759876869 0.02098739231 0.015032964769 0.0098818954747 0.0056809793564 0.0025659502173 0.00064788786775 
8.8434000774e-17 
