# vtk DataFile Version 5.1
vtk output
ASCII
DATASET POLYDATA
POINTS 100 float
-0.0600523 -0.0507429 0.783909 -0.0596794 -0.0509286 0.783814 -0.0585804 -0.0512828 0.78351 
-0.0567877 -0.0517211 0.782881 -0.0543516 -0.0521133 0.781752 -0.0513365 -0.0522981 0.77991 
-0.0478152 -0.0521004 0.777133 -0.0438626 -0.0513497 0.773214 -0.0395494 -0.0498978 0.767988 
-0.0349363 -0.0476339 0.761356 -0.0300696 -0.0444943 0.75329 -0.0249779 -0.0404677 0.74384 
-0.0196711 -0.0355938 0.733126 -0.0141414 -0.0299577 0.721319 -0.00836673 -0.0236788 0.70862 
-0.00231522 -0.0168981 0.695236 0.00404808 -0.00976425 0.68135 0.0107542 -0.00242071 0.6671 
0.0178232 0.00500476 0.652563 0.0252577 0.0124065 0.637747 0.0330383 0.0197034 0.622592 
0.0411208 0.0268367 0.606979 0.0494362 0.0337647 0.590752 0.0578932 0.0404551 0.573733 
0.0663838 0.0468758 0.555754 0.0747904 0.0529872 0.536675 0.0829946 0.0587365 0.516408 
0.0908866 0.0640543 0.494923 0.0983744 0.0688564 0.472261 0.10539 0.0730483 0.448522 
0.111897 0.0765333 0.423859 0.117886 0.079223 0.398459 0.123382 0.0810477 0.372522 
0.128431 0.0819668 0.34624 0.133096 0.0819764 0.319782 0.137444 0.0811135 0.293272 
0.141539 0.0794556 0.26679 0.145425 0.0771164 0.240366 0.149118 0.0742368 0.213988 
0.152602 0.0709734 0.187613 0.15582 0.067485 0.161184 0.15868 0.0639189 0.134648 
0.161055 0.0603994 0.107967 0.162798 0.057018 0.0811364 0.16375 0.0538292 0.0541908 
0.163753 0.0508497 0.0272044 0.162672 0.0480627 0.000287474 0.1604 0.0454258 -0.0264232 
0.156877 0.0428819 -0.0527777 0.152094 0.0403716 -0.0786286 0.146095 0.0378449 -0.103845 
0.13898 0.0352718 -0.128327 0.130893 0.032649 -0.152011 0.122015 0.0300039 -0.174873 
0.112551 0.0273935 -0.196933 0.102711 0.0248993 -0.218237 0.0927007 0.0226196 -0.238859 
0.0827024 0.0206585 -0.258878 0.0728672 0.0191152 -0.278372 0.0633071 0.0180725 -0.297406 
0.0540922 0.0175882 -0.316026 0.0452524 0.0176886 -0.334251 0.0367822 0.0183657 -0.352082 
0.0286493 0.0195779 -0.369498 0.0208045 0.0212542 -0.386476 0.0131926 0.0233008 -0.402988 
0.00576221 0.0256098 -0.419023 -0.00152607 0.0280681 -0.434586 -0.00869404 0.0305668 -0.449705 
-0.0157433 0.0330083 -0.464433 -0.0226557 0.0353123 -0.478842 -0.0293964 0.0374188 -0.493018 
-0.0359189 0.0392893 -0.507047 -0.0421712 0.0409057 -0.521001 -0.0481021 0.0422675 -0.534934 
-0.0536668 0.0433884 -0.548862 -0.0588311 0.0442921 -0.562765 -0.0635735 0.0450092 -0.576576 
-0.0678855 0.0455737 -0.590195 -0.07177 0.0460214 -0.603486 -0.0752384 0.0463886 -0.616294 
-0.0783067 0.0467114 -0.628457 -0.080992 0.0470261 -0.639822 -0.0833093 0.0473686 -0.650257 
-0.0852697 0.0477738 -0.659662 -0.08688 0.0482746 -0.667979 -0.0881439 0.0488998 -0.675192 
-0.0890649 0.0496719 -0.68133 -0.0896496 0.0506037 -0.686455 -0.0899114 0.0516962 -0.69066 
-0.0898742 0.052936 -0.694057 -0.0895745 0.0542945 -0.696766 -0.0890621 0.0557281 -0.698902 
-0.088399 0.0571803 -0.700572 -0.0876566 0.0585855 -0.701869 -0.0869102 0.0598734 -0.702864 
-0.086234 0.0609755 -0.703611 -0.085694 0.0618305 -0.704149 -0.0853423 0.0623905 -0.7045 
-0.0852123 0.0626253 -0.704676 
LINES 2 100
OFFSETS vtktypeint64
0 100 
CONNECTIVITY vtktypeint64
0 1 2 3 4 5 6 7 8 
9 10 11 12 13 14 15 16 17 
18 19 20 21 22 23 24 25 26 
27 28 29 30 31 32 33 34 35 
36 37 38 39 40 41 42 43 44 
45 46 47 48 49 50 51 52 53 
54 55 56 57 58 59 60 61 62 
63 64 65 66 67 68 69 70 71 
72 73 74 75 76 77 78 79 80 
81 82 83 84 85 86 87 88 89 
90 91 92 93 94 95 96 97 98 
99 
POINT_DATA 100
FIELD FieldData 3
_theta 1 100 double
0 0.031733259127 0.063466518254 0.095199777382 0.12693303651 0.15866629564 0.19039955476 0.22213281389 0.25386607302 
0.28559933214 0.31733259127 0.3490658504 0.38079910953 0.41253236865 0.44426562778 0.47599888691 0.50773214603 0.53946540516 
0.57119866429 0.60293192342 0.63466518254 0.66639844167 0.6981317008 0.72986495992 0.76159821905 0.79333147818 0.82506473731 
0.85679799643 0.88853125556 0.92026451469 0.95199777382 0.98373103294 1.0154642921 1.0471975512 1.0789308103 1.1106640695 
1.1423973286 1.1741305877 1.2058638468 1.237597106 1.2693303651 1.3010636242 1.3327968833 1.3645301425 1.3962634016 
1.4279966607 1.4597299198 1.491463179 1.5231964381 1.5549296972 1.5866629564 1.6183962155 1.6501294746 1.6818627337 
1.7135959929 1.745329252 1.7770625111 1.8087957702 1.8405290294 1.8722622885 1.9039955476 1.9357288068 1.9674620659 
1.999195325 2.0309285841 2.0626618433 2.0943951024 2.1261283615 2.1578616206 2.1895948798 2.2213281389 2.253061398 
2.2847946572 2.3165279163 2.3482611754 2.3799944345 2.4117276937 2.4434609528 2.4751942119 2.506927471 2.5386607302 
2.5703939893 2.6021272484 2.6338605076 2.6655937667 2.6973270258 2.7290602849 2.7607935441 2.7925268032 2.8242600623 
2.8559933214 2.8877265806 2.9194598397 2.9511930988 2.982926358 3.0146596171 3.0463928762 3.0781261353 3.1098593945 
3.1415926536 
_radius 1 100 double
1.2349086923e-15 0.016965993393 0.033598763583 0.049592426386 0.064689056693 0.078694826859 0.091488420492 0.10302117122 0.11330958818 
0.12242196328 0.13046142896 0.13754803717 0.14380216796 0.14933098982 0.15421900565 0.15852312783 0.16227231226 0.16547149293 
0.1681092742 0.17016847396 0.17163818173 0.17252561704 0.17286589999 0.17272798693 0.17221548925 0.17146179421 0.17061971131 
0.16984666669 0.16928720904 0.16905523825 0.16921881784 0.16979045048 0.17072505952 0.17192665879 0.17326314283 0.17458719343 
0.17576021069 0.17667546319 0.17727625525 0.1775649296 0.17759955955 0.17747831908 0.17731691768 0.17722896633 0.17731749018 
0.1776778476 0.17840498669 0.17959674774 0.18134853745 0.18373945859 0.18681383737 0.19056427517 0.19492226813 0.19975997062 
0.20490290457 0.21015020434 0.21529761305 0.22015884077 0.22458221074 0.22846100132 0.23173717359 0.23439914265 0.23647487031 
0.23802183381 0.239115413 0.23983705008 0.24026329616 0.24045665135 0.24045892792 0.24028764838 0.23993565797 0.23937367738 
0.23855503602 0.23742146204 0.23590870884 0.23395103976 0.23148411893 0.22844648961 0.22478032536 0.22043232254 0.21535540704 
0.20951145524 0.20287468018 0.19543491715 0.18719989049 0.17819568133 0.16846498108 0.15806319892 0.14705297751 0.13549806566 
0.12345772806 0.11098287924 0.098114851361 0.084887121189 0.07132952371 0.057473731624 0.043358406358 0.029032597816 0.014556573394 
8.0974882649e-16 
_area 1 100 double
0 0.00064588486308 0.002550537317 0.0056176481089 0.0096951288769 0.01458642776 0.020064943008 0.025890910624 0.031829279044 
0.037666081745 0.0432207533 0.048352795268 0.052962479147 0.056986310935 0.060388799864 0.063152926819 0.065272459023 0.06674921537 
0.067596844652 0.067849681588 0.067571952416 0.066861228281 0.065842933246 0.064658591897 0.063452777444 0.06236272344 0.061515111471 
0.061026287257 0.060996602658 0.061500330763 0.062577781114 0.0642293168 0.06640757028 0.069009554528 0.07187994424 0.074832866274 
0.077690073586 0.080324341897 0.082691299639 0.084826446795 0.086800635953 0.088672951434 0.090475396078 0.092215641181 0.093885771981 
0.095490994804 0.097111408593 0.098929081296 0.10107639197 0.10364029256 0.1067932836 0.11072169961 0.11552580408 0.12116682222 
0.12746273276 0.1341138392 0.14075003408 0.14699191905 0.15250844106 0.15705672342 0.16050088449 0.16281362545 0.16406599365 
0.16440993923 0.16405576987 0.16324125372 0.16218598495 0.16104216505 0.1598767933 0.15869060583 0.1574420971 0.15606206509 
0.15446416254 0.15255628449 0.15025187035 0.14747745787 0.14417398683 0.14029293318 0.13579152793 0.13063161019 0.12478396141 
0.11823660963 0.11100401311 0.10313449235 0.094714341427 0.085867616 0.07675083347 0.06754244996 0.058428250162 0.049585299542 
0.041168242559 0.03330187136 0.026082433306 0.019586965466 0.013886236475 0.0090549896146 0.0051746712256 0.0023277345926 0.00058634110169 
2.9490299092e-17 
