# vtk DataFile Version 5.1
vtk output
ASCII
DATASET POLYDATA
POINTS 100 float
-0.0874652 -0.0631469 0.754735 -0.0876649 -0.0630388 0.754865 -0.0882221 -0.0625284 0.755235 
-0.0890665 -0.0616104 0.755732 -0.0900894 -0.0602775 0.756177 -0.0911556 -0.0585217 0.756353 
-0.0921178 -0.0563351 0.756025 -0.0928309 -0.0537123 0.754964 -0.0931658 -0.0506511 0.752975 
-0.09302 -0.0471539 0.749912 -0.0923238 -0.0432281 0.745692 -0.091042 -0.0388867 0.740291 
-0.0891707 -0.0341476 0.733749 -0.0867302 -0.0290333 0.726145 -0.0837551 -0.02357 0.717586 
-0.0802833 -0.0177871 0.708184 -0.0763456 -0.0117167 0.698034 -0.0719574 -0.00539333 0.687199 
-0.0671142 0.0011453 0.675697 -0.0617908 0.00785743 0.663498 -0.0559451 0.0146958 0.650527 
-0.0495252 0.0216062 0.636677 -0.042479 0.0285252 0.621826 -0.0347651 0.0353798 0.605853 
-0.0263624 0.0420861 0.58866 -0.0172783 0.04855 0.570192 -0.00755305 0.0546691 0.550441 
0.00274005 0.0603353 0.529459 0.0134979 0.0654398 0.507347 0.0245948 0.069878 0.484254 
0.0358921 0.0735564 0.46035 0.0472484 0.0763984 0.435815 0.0585295 0.0783511 0.410814 
0.0696156 0.0793899 0.385481 0.0804058 0.0795223 0.359902 0.0908184 0.0787893 0.334112 
0.100787 0.0772641 0.308093 0.110256 0.0750494 0.281785 0.119166 0.0722706 0.255098 
0.127452 0.0690686 0.227934 0.135031 0.0655905 0.20021 0.141798 0.0619798 0.171875 
0.147629 0.0583671 0.142929 0.15238 0.0548619 0.113434 0.155901 0.0515462 0.0835114 
0.158047 0.048471 0.0533443 0.158694 0.0456558 0.0231581 0.157757 0.0430907 -0.00679655 
0.155204 0.0407418 -0.0362661 0.151067 0.0385586 -0.065018 0.145443 0.0364823 -0.092861 
0.138502 0.0344559 -0.119662 0.130468 0.0324326 -0.145353 0.12161 0.0303826 -0.169936 
0.112218 0.0282992 -0.193475 0.102585 0.0261997 -0.216079 0.0929764 0.0241253 -0.237891 
0.0836123 0.0221366 -0.259062 0.0746504 0.0203077 -0.279734 0.0661754 0.0187171 -0.30002 
0.0581964 0.0174395 -0.319997 0.0506529 0.0165365 -0.339696 0.0434276 0.0160492 -0.359102 
0.0363653 0.0159927 -0.378167 0.0292949 0.0163543 -0.396818 0.0220528 0.0170934 -0.414973 
0.0145033 0.0181461 -0.432558 0.0065564 0.0194315 -0.449519 -0.00182227 0.0208603 -0.465835 
-0.0106071 0.0223447 -0.48152 -0.0197163 0.0238073 -0.496625 -0.0290215 0.0251897 -0.511228 
-0.0383626 0.0264584 -0.525426 -0.0475653 0.0276073 -0.539321 -0.0564588 0.0286576 -0.553003 
-0.0648922 0.0296537 -0.566536 -0.0727469 0.0306565 -0.57995 -0.0799445 0.0317341 -0.593232 
-0.0864482 0.032952 -0.606325 -0.0922604 0.0343629 -0.619135 -0.0974144 0.0359981 -0.631538 
-0.101965 0.0378609 -0.643393 -0.105975 0.0399239 -0.654558 -0.109507 0.0421295 -0.664903 
-0.112613 0.0443943 -0.674322 -0.115329 0.0466167 -0.682745 -0.117674 0.0486874 -0.690139 
-0.119654 0.0505006 -0.696515 -0.121264 0.0519661 -0.701917 -0.1225 0.0530191 -0.70642 
-0.123363 0.0536285 -0.710119 -0.123868 0.0538007 -0.713119 -0.124048 0.0535806 -0.715526 
-0.123955 0.0530468 -0.71744 -0.12366 0.0523048 -0.718944 -0.123245 0.0514754 -0.720109 
-0.122796 0.0506828 -0.720987 -0.122393 0.050041 -0.721616 -0.122103 0.0496418 -0.72202 
-0.12197 0.049545 -0.722211 
LINES 2 100
OFFSETS vtktypeint64
0 100 
CONNECTIVITY vtktypeint64
0 1 2 3 4 5 6 7 8 
9 10 11 12 13 14 15 16 17 
18 19 20 21 22 23 24 25 26 
27 28 29 30 31 32 33 34 35 
36 37 38 39 40 41 42 43 44 
45 46 47 48 49 50 51 52 53 
54 55 56 57 58 59 60 61 62 
63 64 65 66 67 68 69 70 71 
72 73 74 75 76 77 78 79 80 
81 82 83 84 85 86 87 88 89 
90 91 92 93 94 95 96 97 98 
99 
POINT_DATA 100
FIELD FieldData 3
_theta 1 100 double
0 0.031733259127 0.063466518254 0.095199777382 0.12693303651 0.15866629564 0.19039955476 0.22213281389 0.25386607302 
0.28559933214 0.31733259127 0.3490658504 0.38079910953 0.41253236865 0.44426562778 0.47599888691 0.50773214603 0.53946540516 
0.57119866429 0.60293192342 0.63466518254 0.66639844167 0.6981317008 0.72986495992 0.76159821905 0.79333147818 0.82506473731 
0.85679799643 0.88853125556 0.92026451469 0.95199777382 0.98373103294 1.0154642921 1.0471975512 1.0789308103 1.1106640695 
1.1423973286 1.1741305877 1.2058638468 1.237597106 1.2693303651 1.3010636242 1.3327968833 1.3645301425 1.3962634016 
1.4279966607 1.4597299198 1.491463179 1.5231964381 1.5549296972 1.5866629564 1.6183962155 1.6501294746 1.6818627337 
1.7135959929 1.745329252 1.7770625111 1.8087957702 1.8405290294 1.8722622885 1.9039955476 1.9357288068 1.9674620659 
1.999195325 2.0309285841 2.0626618433 2.0943951024 2.1261283615 2.1578616206 2.1895948798 2.2213281389 2.253061398 
2.2847946572 2.3165279163 2.3482611754 2.3799944345 2.4117276937 2.4434609528 2.4751942119 2.506927471 2.5386607302 
2.5703939893 2.6021272484 2.6338605076 2.6655937667 2.6973270258 2.7290602849 2.7607935441 2.7925268032 2.8242600623 
2.8559933214 2.8877265806 2.9194598397 2.9511930988 2.982926358 3.0146596171 3.0463928762 3.0781261353 3.1098593945 
3.1415926536 
_radius 1 100 double
6.6973807122e-16 0.015581290686 0.031098048327 0.046479803173 0.061654465308 0.076546335528 0.091073128171 0.10514260108 0.11864982406 
0.13147623587 0.14349136134 0.15455748896 0.1645369766 0.17330138713 0.18074147292 0.18677709657 0.19136636671 0.19451343297 
0.19627441709 0.19676083367 0.19613962692 0.19462874865 0.19248721191 0.18999899791 0.18745124496 0.18510874838 0.18318843352 
0.18183824474 0.18112424414 0.18102808219 0.18145537167 0.18225399578 0.18323939504 0.18422175365 0.18502926477 0.18552367742 
0.18560925518 0.18524052733 0.18443183571 0.18326466338 0.18188592726 0.18049338635 0.17930908207 0.1785468863 0.17838405904 
0.1789451541 0.18029962216 0.18246798522 0.18542984982 0.1891294395 0.19347811009 0.19835631866 0.20361833203 0.20910144271 
0.21463894317 0.22007430366 0.22527365853 0.23013445185 0.23458915582 0.23860387455 0.24217234263 0.24530651045 0.24802563643 
0.25034629992 0.25227554492 0.25380833726 0.25492914759 0.2556164607 0.25584864626 0.25560971278 0.25489371688 0.25370691824 
0.25206719604 0.25000077941 0.24753688113 0.24470120046 0.24150936948 0.23796127562 0.23403692849 0.22969431395 0.22486958191 
0.21947989856 0.21342920464 0.2066168125 0.19894823336 0.19034700161 0.18076578631 0.17019494022 0.15866689851 0.14625545193 
0.13306975279 0.1192438095 0.10492302221 0.090249862883 0.075350981715 0.060327745679 0.045251484746 0.030163699233 0.015080502543 
1.7788089921e-15 
_area 1 100 double
0 0.00060591852258 0.0024233797795 0.005447810834 0.0096602641198 0.01501335016 0.021416227959 0.028721873968 0.036720019054 
0.045138695614 0.053655685457 0.061918928983 0.069573290197 0.076290355209 0.081797677326 0.085903541779 0.088513197196 0.089633649358 
0.089367233919 0.087898370234 0.085481018436 0.082437605756 0.079206985346 0.076397889706 0.074261301909 0.072809109317 0.072052965339 
0.071975030355 0.072524056719 0.073614087763 0.07512111457 0.076887725557 0.078745745089 0.080555830263 0.082244577597 0.083803855115 
0.085227874092 0.086456897732 0.087402284626 0.088038182173 0.088457139536 0.088883701745 0.089599927555 0.090825132412 0.09264756934 
0.095059355748 0.098006952138 0.10143328623 0.10531870309 0.10968847835 0.11458513713 0.12003805026 0.12604484022 0.13255522437 
0.13945111019 0.14653481491 0.15354297172 0.16018674037 0.16620226002 0.17139467759 0.17566354725 0.17900203131 0.18147208073 
0.18316930599 0.1841989097 0.18469779377 0.18485921538 0.18453947989 0.18354389411 0.18180038927 0.17930289967 0.17610031993 
0.17228261868 0.16796155036 0.16325008054 0.15824620416 0.15302319657 0.14762428181 0.14205929533 0.13630345962 0.13030013615 
0.12396857203 0.11721584971 0.10995173745 0.10210599282 0.09364783778 0.084605310641 0.075079333149 0.065246561318 0.055347705328 
0.045662543187 0.036476978998 0.028049755126 0.020586357024 0.014225390933 0.0090390182143 0.005045228279 0.0022271888886 0.00055424911378 
8.5064237981e-17 
