# vtk DataFile Version 5.1
vtk output
ASCII
DATASET POLYDATA
POINTS 100 float
-0.177506 -0.0471333 0.688828 -0.177425 -0.0472318 0.688731 -0.177236 -0.0473455 0.688482 
-0.176866 -0.0474153 0.68803 -0.176207 -0.0473496 0.687293 -0.175121 -0.0470338 0.686171 
-0.173454 -0.0463413 0.684551 -0.171056 -0.0451467 0.682325 -0.167793 -0.0433377 0.67939 
-0.163559 -0.0408266 0.675667 -0.158289 -0.037559 0.671097 -0.151962 -0.0335192 0.665648 
-0.144606 -0.0287324 0.65931 -0.136293 -0.0232628 0.652093 -0.127131 -0.0172085 0.644018 
-0.117259 -0.0106937 0.635108 -0.106831 -0.00385921 0.625385 -0.0960034 0.00314778 0.614862 
-0.0849289 0.0101836 0.603538 -0.0737407 0.0171167 0.591398 -0.0625479 0.0238341 0.57842 
-0.0514304 0.0302447 0.564571 -0.0404376 0.0362811 0.549821 -0.0295899 0.0418971 0.534145 
-0.0188824 0.0470642 0.517532 -0.00829088 0.0517665 0.499986 0.00222131 0.0559941 0.481532 
0.0126961 0.0597379 0.46221 0.0231733 0.0629841 0.442076 0.0336839 0.0657119 0.421192 
0.0442446 0.0678916 0.399622 0.0548527 0.0694864 0.377422 0.0654832 0.0704551 0.354635 
0.0760859 0.0707575 0.331288 0.0865847 0.0703602 0.307387 0.096878 0.0692428 0.282928 
0.10684 0.0674043 0.257893 0.116322 0.0648675 0.232267 0.125163 0.0616821 0.206046 
0.133186 0.0579259 0.179245 0.140215 0.0537027 0.151914 0.146078 0.0491387 0.124136 
0.150623 0.0443765 0.0960365 0.15372 0.0395677 0.0677791 0.155277 0.0348647 0.0395577 
0.155249 0.0304117 0.0115867 0.15364 0.0263374 -0.0159137 0.150509 0.0227476 -0.0427335 
0.145968 0.0197207 -0.068688 0.140179 0.0173044 -0.0936321 0.133346 0.015515 -0.11747 
0.125697 0.0143391 -0.140161 0.117476 0.0137367 -0.161719 0.108925 0.0136463 -0.182206 
0.100266 0.013991 -0.201727 0.0916877 0.0146849 -0.22041 0.0833337 0.01564 -0.238395 
0.0752966 0.0167716 -0.25582 0.0676148 0.0180043 -0.272805 0.0602762 0.0192751 -0.289445 
0.0532255 0.0205363 -0.305803 0.0463765 0.0217563 -0.321911 0.0396268 0.0229195 -0.33777 
0.0328727 0.0240246 -0.353363 0.0260243 0.025082 -0.36866 0.0190173 0.0261111 -0.383628 
0.0118218 0.0271363 -0.398244 0.00444611 0.0281842 -0.412499 -0.00306477 0.0292801 -0.426403 
-0.0106345 0.0304454 -0.439985 -0.0181652 0.0316955 -0.453286 -0.025549 0.033039 -0.46636 
-0.032681 0.0344763 -0.479255 -0.0394706 0.0360006 -0.492012 -0.0458516 0.0375985 -0.50465 
-0.0517871 0.0392509 -0.517165 -0.0572719 0.0409354 -0.529521 -0.062329 0.0426274 -0.541656 
-0.0670034 0.0443024 -0.553483 -0.0713528 0.0459372 -0.564897 -0.0754364 0.047512 -0.575788 
-0.0793047 0.0490104 -0.586051 -0.0829905 0.0504209 -0.595596 -0.0865029 0.0517365 -0.604355 
-0.0898255 0.0529546 -0.612295 -0.0929187 0.0540762 -0.61941 -0.0957255 0.0551054 -0.62573 
-0.098181 0.0560479 -0.631307 -0.100223 0.0569101 -0.636213 -0.101803 0.0576984 -0.640529 
-0.102897 0.058418 -0.644334 -0.103512 0.0590725 -0.647696 -0.103687 0.0596636 -0.650669 
-0.103496 0.0601911 -0.653285 -0.103036 0.0606534 -0.655556 -0.102425 0.0610476 -0.657476 
-0.101782 0.0613704 -0.659027 -0.101221 0.0616188 -0.660182 -0.100833 0.0617903 -0.660917 
-0.100675 0.0618839 -0.661212 
LINES 2 100
OFFSETS vtktypeint64
0 100 
CONNECTIVITY vtktypeint64
0 1 2 3 4 5 6 7 8 
9 10 11 12 13 14 15 16 17 
18 19 20 21 22 23 24 25 26 
27 28 29 30 31 32 33 34 35 
36 37 38 39 40 41 42 43 44 
45 46 47 48 49 50 51 52 53 
54 55 56 57 58 59 60 61 62 
63 64 65 66 67 68 69 70 71 
72 73 74 75 76 77 78 79 80 
81 82 83 84 85 86 87 88 89 
90 91 92 93 94 95 96 97 98 
99 
POINT_DATA 100
FIELD FieldData 3
_theta 1 100 double
0 0.031733259127 0.063466518254 0.095199777382 0.12693303651 0.15866629564 0.19039955476 0.22213281389 0.25386607302 
0.28559933214 0.31733259127 0.3490658504 0.38079910953 0.41253236865 0.44426562778 0.47599888691 0.50773214603 0.53946540516 
0.57119866429 0.60293192342 0.63466518254 0.66639844167 0.6981317008 0.72986495992 0.76159821905 0.79333147818 0.82506473731 
0.85679799643 0.88853125556 0.92026451469 0.95199777382 0.98373103294 1.0154642921 1.0471975512 1.0789308103 1.1106640695 
1.1423973286 1.1741305877 1.2058638468 1.237597106 1.2693303651 1.3010636242 1.3327968833 1.3645301425 1.3962634016 
1.4279966607 1.4597299198 1.491463179 1.5231964381 1.5549296972 1.5866629564 1.6183962155 1.6501294746 1.6818627337 
1.7135959929 1.745329252 1.7770625111 1.8087957702 1.8405290294 1.8722622885 1.9039955476 1.9357288068 1.9674620659 
1.999195325 2.0309285841 2.0626618433 2.0943951024 2.1261283615 2.1578616206 2.1895948798 2.2213281389 2.253061398 
2.2847946572 2.3165279163 2.3482611754 2.3799944345 2.4117276937 2.4434609528 2.4751942119 2.506927471 2.5386607302 
2.5703939893 2.6021272484 2.6338605076 2.6655937667 2.6973270258 2.7290602849 2.7607935441 2.7925268032 2.8242600623 
2.8559933214 2.8877265806 2.9194598397 2.9511930988 2.982926358 3.0146596171 3.0463928762 3.0781261353 3.1098593945 
3.1415926536 
_radius 1 100 double
2.7971575571e-16 0.015929171208 0.03166954701 0.047033036717 0.061845699636 0.075952844173 0.089222415597 0.1015470918 0.11284562368 
0.1230637124 0.1321742994 0.14017680545 0.14709476759 0.15297155765 0.15786441451 0.16183777157 0.1649575231 0.16728802391 
0.16889294062 0.16983966944 0.170205484 0.1700826314 0.16957973757 0.16881808725 0.1679231121 0.16701301475 0.16618720818 
0.16551692804 0.16503934938 0.16475549341 0.16463159845 0.16460343712 0.16458315707 0.16446892621 0.1641591732 0.16357352269 
0.16267874984 0.16151231414 0.16019365311 0.1589157824 0.15791555728 0.15742971371 0.15765236457 0.15871015811 0.16066060304 
0.16350626515 0.1672128857 0.17172236456 0.17695665759 0.18281368893 0.18916042704 0.19582950462 0.2026236111 0.20932827869 
0.21573081307 0.22164160725 0.22691362598 0.23145625096 0.23524084027 0.23829705476 0.24070088102 0.24255694392 0.24397876426 
0.24507074409 0.24591476187 0.24656269527 0.24703464158 0.24732161662 0.24739118781 0.2471946318 0.24667453376 0.24577206611 
0.2444333782 0.2426145716 0.24028471497 0.23742642716 0.23403385424 0.23010837947 0.22565297517 0.22066650491 0.21513934539 
0.20905140068 0.20237303674 0.19506882835 0.18710340549 0.17844820111 0.16908763479 0.15902333477 0.14827547105 0.13688106818 
0.12489003609 0.11236025442 0.099353105383 0.085930381778 0.07215279342 0.058079727107 0.043769675343 0.029280810557 0.014671402093 
9.021329583e-16 
_area 1 100 double
0 0.00056946977305 0.002265880168 0.0050520634014 0.0088602892953 0.013580645525 0.019047822134 0.025037010528 0.031276286302 
0.03747380596 0.04335218898 0.048681419271 0.053302945312 0.057139666518 0.060189275583 0.062502759861 0.064155180428 0.065219378985 
0.065752431487 0.065800031684 0.065417777655 0.064702141134 0.063841668673 0.063393327242 0.063215081094 0.063237854728 0.063467080557 
0.063912248478 0.064552596123 0.065325139226 0.066152417673 0.066966374827 0.067706919609 0.068318768635 0.068747350782 0.068942279264 
0.068889950048 0.068673714608 0.068513298175 0.068657114223 0.069224630037 0.070267228928 0.071777980978 0.073685304722 0.075868901682 
0.07832581653 0.081186400682 0.084702156964 0.089086594581 0.094424698923 0.10066952275 0.10766553141 0.11517882443 0.12291818981 
0.13055275273 0.13774297907 0.14419479316 0.14974268709 0.15439893956 0.15803771018 0.16080042963 0.16268771489 0.16385928853 
0.16448837601 0.16468147103 0.1645487257 0.16399734889 0.16297131801 0.16146826479 0.15951301134 0.1571517864 0.15443815002 
0.15141606038 0.14810635658 0.14450668576 0.14059839464 0.13634995403 0.13171932127 0.12665888473 0.12112293708 0.11507691588 
0.10850653399 0.10142419071 0.093871628153 0.085919885744 0.077667983809 0.069240413904 0.060781905804 0.052447827059 0.044390786671 
0.03674721105 0.029628991631 0.023123248367 0.017299160623 0.012217533199 0.00793820997 0.0045223742721 0.0020294688598 0.00051044894437 
8.6621052723e-17 
