# vtk DataFile Version 5.1
vtk output
ASCII
DATASET POLYDATA
POINTS 100 float
-0.120851 -0.0757678 0.711975 -0.120834 -0.0754745 0.711718 -0.120717 -0.0744091 0.710922 
-0.120473 -0.0725998 0.709566 -0.120061 -0.0700918 0.707617 -0.119433 -0.0669421 0.705038 
-0.118538 -0.0632145 0.701798 -0.117332 -0.0589733 0.697872 -0.11578 -0.0542784 0.693255 
-0.113856 -0.0491811 0.68796 -0.111546 -0.0437223 0.682022 -0.108839 -0.0379319 0.675494 
-0.105724 -0.031831 0.66844 -0.102179 -0.0254348 0.660931 -0.0981657 -0.0187576 0.653031 
-0.0936225 -0.0118167 0.644793 -0.0884623 -0.00463722 0.636243 -0.0825751 0.00274513 0.62738 
-0.0758353 0.0102823 0.618172 -0.0681126 0.0179142 0.608553 -0.0592877 0.0255703 0.598432 
-0.049269 0.0331734 0.587698 -0.0380091 0.0406432 0.57623 -0.0255189 0.0479007 0.563911 
-0.0118769 0.0548723 0.550634 0.00276781 0.061492 0.536319 0.0181998 0.0677029 0.520912 
0.0341483 0.0734572 0.504395 0.0503053 0.0787141 0.486783 0.0663468 0.0834377 0.468121 
0.0819572 0.0875935 0.448478 0.0968519 0.0911462 0.427942 0.110797 0.0940584 0.406604 
0.123623 0.0962898 0.384556 0.135229 0.0978002 0.361883 0.145585 0.0985524 0.338656 
0.154716 0.098518 0.314934 0.162691 0.0976835 0.290764 0.169597 0.0960563 0.266186 
0.175523 0.0936698 0.241236 0.180537 0.0905869 0.215956 0.184671 0.0869001 0.190398 
0.187911 0.0827288 0.164627 0.1902 0.0782138 0.138726 0.191441 0.073508 0.112793 
0.191513 0.0687658 0.0869374 0.190292 0.0641315 0.0612761 0.187669 0.0597276 0.0359244 
0.183577 0.0556453 0.0109881 0.178002 0.051938 -0.0134442 0.170998 0.0486185 -0.0373067 
0.162691 0.0456604 -0.0605612 0.153272 0.0430042 -0.0831968 0.142982 0.0405667 -0.105229 
0.132098 0.0382533 -0.126693 0.120903 0.0359716 -0.147639 0.109661 0.033644 -0.168121 
0.0986006 0.0312194 -0.188194 0.0878885 0.0286809 -0.2079 0.0776244 0.0260492 -0.227268 
0.0678362 0.0233821 -0.246309 0.0584866 0.0207682 -0.265018 0.0494864 0.0183178 -0.283375 
0.0407136 0.0161506 -0.301351 0.0320347 0.014382 -0.318915 0.023327 0.0131101 -0.336039 
0.0144961 0.0124045 -0.352705 0.00548895 0.0122986 -0.368909 -0.00370033 0.0127856 -0.384663 
-0.0130324 0.0138191 -0.399991 -0.0224316 0.0153188 -0.414931 -0.0318002 0.0171782 -0.429526 
-0.0410354 0.0192763 -0.443817 -0.0500471 0.0214894 -0.457839 -0.0587731 0.0237023 -0.471613 
-0.0671886 0.0258184 -0.48514 -0.0753108 0.0277662 -0.498402 -0.0831947 0.0295027 -0.511362 
-0.0909238 0.0310127 -0.523966 -0.0985941 0.0323053 -0.53615 -0.106297 0.0334071 -0.547845 
-0.1141 0.0343548 -0.558989 -0.122032 0.0351868 -0.569527 -0.130072 0.035936 -0.579423 
-0.138145 0.0366247 -0.588661 -0.146128 0.0372613 -0.597244 -0.153858 0.0378408 -0.605193 
-0.161153 0.0383474 -0.61254 -0.16783 0.0387588 -0.619327 -0.173729 0.0390523 -0.625593 
-0.178731 0.0392105 -0.631368 -0.182773 0.0392269 -0.63667 -0.185859 0.0391084 -0.641499 
-0.188054 0.0388772 -0.645837 -0.18948 0.0385691 -0.649647 -0.190296 0.0382296 -0.652884 
-0.19068 0.0379087 -0.655492 -0.190803 0.0376545 -0.657418 -0.190806 0.0375068 -0.658617 
-0.190785 0.0374915 -0.659058 
LINES 2 100
OFFSETS vtktypeint64
0 100 
CONNECTIVITY vtktypeint64
0 1 2 3 4 5 6 7 8 
9 10 11 12 13 14 15 16 17 
18 19 20 21 22 23 24 25 26 
27 28 29 30 31 32 33 34 35 
36 37 38 39 40 41 42 43 44 
45 46 47 48 49 50 51 52 53 
54 55 56 57 58 59 60 61 62 
63 64 65 66 67 68 69 70 71 
72 73 74 75 76 77 78 79 80 
81 82 83 84 85 86 87 88 89 
90 91 92 93 94 95 96 97 98 
99 
POINT_DATA 100
FIELD FieldData 3
_theta 1 100 double
0 0.031733259127 0.063466518254 0.095199777382 0.12693303651 0.15866629564 0.19039955476 0.22213281389 0.25386607302 
0.28559933214 0.31733259127 0.3490658504 0.38079910953 0.41253236865 0.44426562778 0.47599888691 0.50773214603 0.53946540516 
0.57119866429 0.60293192342 0.63466518254 0.66639844167 0.6981317008 0.72986495992 0.76159821905 0.79333147818 0.82506473731 
0.85679799643 0.88853125556 0.92026451469 0.95199777382 0.98373103294 1.0154642921 1.0471975512 1.0789308103 1.1106640695 
1.1423973286 1.1741305877 1.2058638468 1.237597106 1.2693303651 1.3010636242 1.3327968833 1.3645301425 1.3962634016 
1.4279966607 1.4597299198 1.491463179 1.5231964381 1.5549296972 1.5866629564 1.6183962155 1.6501294746 1.6818627337 
1.7135959929 1.745329252 1.7770625111 1.8087957702 1.8405290294 1.8722622885 1.9039955476 1.9357288068 1.9674620659 
1.999195325 2.0309285841 2.0626618433 2.0943951024 2.1261283615 2.1578616206 2.1895948798 2.2213281389 2.253061398 
2.2847946572 2.3165279163 2.3482611754 2.3799944345 2.4117276937 2.4434609528 2.4751942119 2.506927471 2.5386607302 
2.5703939893 2.6021272484 2.6338605076 2.6655937667 2.6973270258 2.7290602849 2.7607935441 2.7925268032 2.8242600623 
2.8559933214 2.8877265806 2.9194598397 2.9511930988 2.982926358 3.0146596171 3.0463928762 3.0781261353 3.1098593945 
3.1415926536 
_radius 1 100 double
7.901813007e-16 0.014766955205 0.029368673764 0.04365599179 0.057519903751 0.070902509233 0.083798149037 0.096244100569 0.10830252929 
0.1200376362 0.1314931672 0.14267501892 0.15354179681 0.16400381914 0.17392925322 0.18315532667 0.19150276476 0.19879227145 
0.20486233385 0.20958733711 0.21289406192 0.21477400853 0.21528933982 0.21457134472 0.21281159728 0.21024703941 0.20714088041 
0.2037614641 0.20036127279 0.19715829613 0.19432208086 0.19196630273 0.19014820692 0.18887345187 0.18810404022 0.18776756672 
0.1877675406 0.18799620078 0.18835091984 0.1887515838 0.18915340379 0.18955145472 0.18997680298 0.19048607329 0.19114726664 
0.19202557926 0.19317321488 0.19462552206 0.1964026264 0.19851321642 0.20095691268 0.203723389 0.20678874303 0.21011132047 
0.21362961104 0.21726390128 0.22092172168 0.22450573778 0.22792222209 0.2310885303 0.23393863051 0.23642631442 0.2385261196 
0.24023225025 0.24155595487 0.24252188176 0.24316383034 0.24352007247 0.24362819775 0.24351945848 0.24321295126 0.24271052143 
0.24199364016 0.24102328006 0.23974294485 0.23808397385 0.23597168875 0.23333104884 0.23009091684 0.22618653852 0.22156038921 
0.21616213194 0.20994885128 0.20288665628 0.19495404378 0.18614631646 0.17647940944 0.16599123793 0.15473934865 0.14279499373 
0.13023517399 0.11713504499 0.1035628788 0.089578610479 0.075235575789 0.060584151908 0.045675850832 0.03056665431 0.015318717808 
3.7354247849e-16 
_area 1 100 double
0 0.00057493429173 0.0022682463525 0.0049923685682 0.008621814386 0.013015968738 0.018038725654 0.023569509447 0.029504509074 
0.035750329616 0.042213166818 0.048786335307 0.055339396393 0.061712958995 0.067722787263 0.073174417331 0.077885960161 0.081714126587 
0.084578946625 0.086484782377 0.08753188205 0.087905210616 0.0878388492 0.087661323049 0.087693919193 0.087580944783 0.087187262986 
0.08643533586 0.085317810532 0.084003128495 0.082719103061 0.081642435458 0.080842380944 0.080297398065 0.079948625971 0.079747464293 
0.079679931774 0.079771506016 0.080102051275 0.080787023135 0.081852374838 0.08328376797 0.08558284092 0.08883507938 0.092076595022 
0.094992771562 0.097554538281 0.099860617691 0.10207160964 0.10437034919 0.10693504188 0.10991636433 0.1134134242 0.11745354176 
0.12198455111 0.12688165808 0.1319647402 0.13702128415 0.14183095199 0.14618817012 0.14992068454 0.15290320713 0.15506536934 
0.15639326857 0.1569251167 0.15674384028 0.15598043647 0.15477203108 0.15314995578 0.15114387612 0.14876817548 0.14605023036 
0.1430336702 0.13976228018 0.1362734826 0.1325971425 0.12873223104 0.124612774 0.12014084258 0.11524414824 0.10988048029 
0.1040224526 0.097650355801 0.090758369896 0.083370728175 0.075559304955 0.067452508832 0.059228321379 0.051090816894 0.043236979255 
0.035826012687 0.028963750944 0.022708591607 0.017094532292 0.012157927657 0.0079542117667 0.004558747784 0.0020551043263 0.00051834451043 
9.08805099e-17 
