# vtk DataFile Version 5.1
vtk output
ASCII
DATASET POLYDATA
POINTS 100 float
-0.129749 -0.0636459 0.81002 -0.12972 -0.0635149 0.809849 -0.129657 -0.0629124 0.809338 
-0.129526 -0.0618344 0.808433 -0.12927 -0.0602762 0.807049 -0.128815 -0.0582322 0.805084 
-0.128074 -0.0556966 0.802424 -0.126952 -0.0526634 0.798964 -0.125351 -0.0491275 0.794611 
-0.123173 -0.0450863 0.789296 -0.120329 -0.0405418 0.782981 -0.11674 -0.0355026 0.775656 
-0.112338 -0.0299871 0.767339 -0.107074 -0.0240257 0.758066 -0.100914 -0.0176632 0.747886 
-0.0938447 -0.0109605 0.736849 -0.0858727 -0.00399458 0.724994 -0.0770251 0.00314229 0.712348 
-0.0673505 0.0103448 0.698916 -0.0569188 0.0174988 0.684684 -0.0458197 0.0244857 0.669618 
-0.0341613 0.031189 0.653673 -0.0220666 0.0375003 0.636802 -0.00966899 0.0433251 0.618962 
0.0028933 0.0485886 0.600122 0.0154838 0.0532389 0.580274 0.027975 0.0572497 0.559431 
0.0402546 0.0606203 0.53763 0.0522317 0.0633733 0.51493 0.0638401 0.0655514 0.491401 
0.07504 0.0672113 0.467122 0.0858164 0.0684178 0.442168 0.0961739 0.0692373 0.416603 
0.106129 0.0697306 0.390475 0.115702 0.0699487 0.363817 0.124904 0.0699283 0.336642 
0.133726 0.0696903 0.308952 0.142131 0.0692399 0.280747 0.150048 0.0685693 0.252033 
0.157367 0.0676614 0.222833 0.163944 0.0664949 0.193198 0.169608 0.0650504 0.16321 
0.174172 0.0633158 0.132986 0.177451 0.0612909 0.102678 0.179277 0.0589913 0.0724596 
0.179518 0.0564498 0.0425221 0.178097 0.0537159 0.0130548 0.175 0.0508538 -0.015768 
0.170285 0.0479382 -0.0438027 0.164084 0.0450489 -0.0709483 0.156594 0.0422654 -0.097154 
0.148065 0.0396603 -0.122422 0.138782 0.0372945 -0.146806 0.129042 0.0352131 -0.170397 
0.119133 0.0334423 -0.193316 0.10931 0.0319897 -0.215698 0.099779 0.030845 -0.237667 
0.0906817 0.0299829 -0.259331 0.0820919 0.0293678 -0.280763 0.0740164 0.0289582 -0.301993 
0.0664031 0.0287127 -0.32301 0.0591561 0.0285942 -0.343763 0.0521536 0.0285743 -0.36417 
0.0452683 0.0286357 -0.384133 0.038386 0.0287736 -0.403553 0.0314222 0.0289947 -0.422342 
0.0243324 0.0293154 -0.440441 0.0171169 0.0297588 -0.457825 0.0098193 0.0303501 -0.474513 
0.00251779 0.031113 -0.49056 -0.00468692 0.0320649 -0.506057 -0.0116872 0.0332143 -0.521114 
-0.0183843 0.0345577 -0.535851 -0.0247024 0.0360795 -0.55038 -0.0305988 0.0377515 -0.56479 
-0.0360683 0.0395356 -0.579138 -0.0411425 0.0413859 -0.593437 -0.0458825 0.0432529 -0.607661 
-0.0503668 0.0450871 -0.621739 -0.0546768 0.0468434 -0.63557 -0.0588807 0.0484841 -0.649032 
-0.0630194 0.0499818 -0.661993 -0.0670959 0.0513206 -0.67433 -0.0710702 0.0524967 -0.685936 
-0.0748611 0.0535173 -0.696734 -0.0783534 0.0543991 -0.706677 -0.0814127 0.0551647 -0.715756 
-0.083902 0.0558405 -0.723987 -0.0857027 0.0564525 -0.731415 -0.0867325 0.0570238 -0.738094 
-0.0869614 0.0575723 -0.744084 -0.0864216 0.0581083 -0.749439 -0.0852104 0.0586346 -0.754199 
-0.0834847 0.0591464 -0.758387 -0.0814485 0.0596329 -0.762004 -0.0793341 0.0600784 -0.765039 
-0.0773786 0.0604655 -0.767464 -0.0757997 0.0607774 -0.769248 -0.0747723 0.0609997 -0.770362 
-0.0744095 0.0611232 -0.770784 
LINES 2 100
OFFSETS vtktypeint64
0 100 
CONNECTIVITY vtktypeint64
0 1 2 3 4 5 6 7 8 
9 10 11 12 13 14 15 16 17 
18 19 20 21 22 23 24 25 26 
27 28 29 30 31 32 33 34 35 
36 37 38 39 40 41 42 43 44 
45 46 47 48 49 50 51 52 53 
54 55 56 57 58 59 60 61 62 
63 64 65 66 67 68 69 70 71 
72 73 74 75 76 77 78 79 80 
81 82 83 84 85 86 87 88 89 
90 91 92 93 94 95 96 97 98 
99 
POINT_DATA 100
FIELD FieldData 3
_theta 1 100 double
0 0.031733259127 0.063466518254 0.095199777382 0.12693303651 0.15866629564 0.19039955476 0.22213281389 0.25386607302 
0.28559933214 0.31733259127 0.3490658504 0.38079910953 0.41253236865 0.44426562778 0.47599888691 0.50773214603 0.53946540516 
0.57119866429 0.60293192342 0.63466518254 0.66639844167 0.6981317008 0.72986495992 0.76159821905 0.79333147818 0.82506473731 
0.85679799643 0.88853125556 0.92026451469 0.95199777382 0.98373103294 1.0154642921 1.0471975512 1.0789308103 1.1106640695 
1.1423973286 1.1741305877 1.2058638468 1.237597106 1.2693303651 1.3010636242 1.3327968833 1.3645301425 1.3962634016 
1.4279966607 1.4597299198 1.491463179 1.5231964381 1.5549296972 1.5866629564 1.6183962155 1.6501294746 1.6818627337 
1.7135959929 1.745329252 1.7770625111 1.8087957702 1.8405290294 1.8722622885 1.9039955476 1.9357288068 1.9674620659 
1.999195325 2.0309285841 2.0626618433 2.0943951024 2.1261283615 2.1578616206 2.1895948798 2.2213281389 2.253061398 
2.2847946572 2.3165279163 2.3482611754 2.3799944345 2.4117276937 2.4434609528 2.4751942119 2.506927471 2.5386607302 
2.5703939893 2.6021272484 2.6338605076 2.6655937667 2.6973270258 2.7290602849 2.7607935441 2.7925268032 2.8242600623 
2.8559933214 2.8877265806 2.9194598397 2.9511930988 2.982926358 3.0146596171 3.0463928762 3.0781261353 3.1098593945 
3.1415926536 
_radius 1 100 double
1.2341091524e-15 0.01635011465 0.032533349015 0.048386644825 0.063764241766 0.078542236443 0.092619286293 0.10591389682 0.11835954023 
0.12989925558 0.14048127672 0.1500567103 0.1585795786 0.16600893996 0.17231250554 0.17747120853 0.18148439365 0.18437543954 
0.18619751628 0.1870387851 0.1870258077 0.18632350511 0.18512996506 0.18366495903 0.18215227306 0.18079773487 0.17976666892 
0.17916565071 0.17903301017 0.17934021762 0.18000282846 0.18089683998 0.18187588328 0.18278693865 0.18348535018 0.1838510151 
0.18380588019 0.18333020692 0.18247361906 0.18135722979 0.1801646036 0.17912144996 0.17846664104 0.17842007148 0.17915475145 
0.18077941483 0.18333344914 0.18679086294 0.19106795251 0.19603114356 0.20150488638 0.20728172684 0.21313656655 0.2188452382 
0.22420529961 0.22905560048 0.23329109144 0.23687025422 0.2398139412 0.24219591099 0.24412666622 0.24573317473 0.24713757777 
0.2484380023 0.24969411582 0.25091919372 0.25207938364 0.25309974748 0.25387571549 0.25428792848 0.25421814105 0.25356391053 
0.25225014209 0.25023610898 0.24751723758 0.24412167683 0.24010239695 0.23552619323 0.23046139996 0.22496625625 0.21907967454 
0.21281567688 0.20616207331 0.19908319085 0.19152577302 0.18342670949 0.17472112741 0.1653495967 0.15526367631 0.14442958865 
0.1328302748 0.12046633523 0.10735637915 0.093537148913 0.079063548073 0.064008467053 0.048462133319 0.032530658688 0.016333532787 
2.3717062648e-16 
_area 1 100 double
0 0.00069515476525 0.0027411382876 0.0060244561726 0.010371555822 0.015569195295 0.021387205056 0.027599009655 0.033996146307 
0.040395435363 0.046640197519 0.052597985253 0.058155978296 0.063213508098 0.067672160257 0.071427562612 0.074369409558 0.076394263712 
0.077430135828 0.077466075177 0.076576842414 0.074933693964 0.072796028373 0.070533301449 0.06837751389 0.066479644957 0.065077922569 
0.064418641305 0.064561208187 0.065443358684 0.066966067297 0.069005466683 0.071435708623 0.074124239438 0.076906065922 0.079573052207 
0.08190103316 0.08370522277 0.084896670906 0.085516263907 0.085736007471 0.085828618608 0.086118703327 0.086932821053 0.088488963196 
0.090817899243 0.093924520995 0.097836687731 0.10258327516 0.10816549244 0.11452436379 0.12151641442 0.12890915699 0.13640004532 
0.14365466094 0.15035496898 0.15624603724 0.16117002455 0.165079807 0.16803019905 0.17015066754 0.17160839067 0.17257366982 
0.17320356552 0.1737265218 0.17453370795 0.17528218724 0.17566613721 0.17546835332 0.17450922643 0.17265910378 0.16985180809 
0.16609460559 0.16146648788 0.15610501704 0.1501839462 0.14388284988 0.13735388851 0.13069850402 0.12396650336 0.11717295211 
0.11031554811 0.10338313507 0.09635779499 0.089216129247 0.081933402625 0.074491442917 0.066888942101 0.059151532991 0.051338929174 
0.043547351287 0.035906861572 0.028574460172 0.021724453045 0.015537596728 0.010190095763 0.0058430869256 0.0026330689122 0.0006637746543 
3.9303376958e-17 
