# vtk DataFile Version 5.1
vtk output
ASCII
DATASET POLYDATA
POINTS 100 float
-0.0705647 -0.0877171 0.731927 -0.0707739 -0.0874488 0.731783 -0.0713789 -0.0864415 0.731321 
-0.0723054 -0.0847012 0.730488 -0.0734403 -0.0822406 0.729203 -0.074646 -0.0790811 0.727369 
-0.0757786 -0.0752548 0.724886 -0.0767047 -0.0708064 0.721663 -0.0773159 -0.0657939 0.717628 
-0.0775377 -0.0602885 0.712742 -0.0773322 -0.0543725 0.706999 -0.0766934 -0.0481356 0.700425 
-0.0756366 -0.0416705 0.693078 -0.0741835 -0.0350666 0.685033 -0.0723458 -0.0284047 0.676378 
-0.0701098 -0.0217509 0.66719 -0.0674261 -0.0151523 0.657536 -0.0642051 -0.00863464 0.647451 
-0.0603208 -0.00220201 0.636939 -0.0556231 0.0041609 0.62597 -0.0499564 0.0104839 0.614481 
-0.0431826 0.0168048 0.602383 -0.0352061 0.0231605 0.589576 -0.0259957 0.0295793 0.575955 
-0.0156004 0.0360716 0.561427 -0.0041572 0.0426239 0.545924 0.00811229 0.0491941 0.529406 
0.0209161 0.0557101 0.511868 0.0339158 0.0620718 0.493342 0.0467567 0.0681562 0.47389 
0.0591029 0.0738253 0.453596 0.0706692 0.0789364 0.432556 0.0812494 0.0833536 0.410867 
0.0907337 0.0869587 0.388613 0.0991153 0.0896615 0.365863 0.106483 0.0914076 0.342658 
0.113004 0.0921834 0.319016 0.118889 0.0920173 0.294934 0.124364 0.0909771 0.27039 
0.129625 0.0891644 0.245363 0.134811 0.0867063 0.219834 0.139974 0.0837443 0.193802 
0.145066 0.0804236 0.167295 0.149936 0.0768823 0.14037 0.154348 0.0732417 0.113123 
0.158005 0.0695999 0.0856787 0.160583 0.0660273 0.05819 0.161771 0.0625662 0.030825 
0.161314 0.0592328 0.00375607 0.159041 0.0560226 -0.0228536 0.154892 0.0529169 -0.0488616 
0.148927 0.0498907 -0.0741564 0.141321 0.0469208 -0.0986636 0.132346 0.0439927 -0.122348 
0.12234 0.0411053 -0.145214 0.111671 0.038274 -0.167295 0.100697 0.0355311 -0.188653 
0.0897279 0.0329232 -0.209359 0.0789951 0.0305069 -0.229492 0.0686357 0.0283431 -0.249125 
0.0586857 0.02649 -0.268316 0.0490892 0.0249971 -0.287109 0.039719 0.0238992 -0.30553 
0.0304059 0.0232126 -0.32359 0.0209725 0.0229334 -0.341289 0.0112663 0.0230378 -0.358621 
0.00118749 0.0234843 -0.375585 -0.00929285 0.0242188 -0.392184 -0.0201259 0.0251794 -0.408435 
-0.0311911 0.0263035 -0.424367 -0.0423133 0.0275327 -0.44002 -0.0532888 0.0288188 -0.455443 
-0.0639158 0.0301266 -0.470682 -0.0740251 0.031436 -0.48578 -0.0835057 0.032741 -0.500764 
-0.0923223 0.0340476 -0.515638 -0.10052 0.0353699 -0.530381 -0.10822 0.0367245 -0.54494 
-0.115598 0.0381255 -0.559233 -0.122859 0.0395794 -0.573155 -0.130205 0.041081 -0.586581 
-0.137799 0.0426106 -0.599375 -0.145743 0.0441342 -0.611403 -0.15405 0.0456046 -0.622541 
-0.162641 0.0469651 -0.632687 -0.171349 0.048155 -0.641764 -0.179937 0.0491155 -0.649732 
-0.188124 0.0497965 -0.656582 -0.195624 0.0501627 -0.662345 -0.202177 0.0501991 -0.667079 
-0.20759 0.0499137 -0.670872 -0.211755 0.049339 -0.67383 -0.21467 0.0485309 -0.67607 
-0.216435 0.0475645 -0.677715 -0.217239 0.0465288 -0.678885 -0.217336 0.045519 -0.679688 
-0.217008 0.0446287 -0.680222 -0.21653 0.0439414 -0.680564 -0.216129 0.0435231 -0.680772 
-0.215955 0.0434163 -0.68088 
LINES 2 100
OFFSETS vtktypeint64
0 100 
CONNECTIVITY vtktypeint64
0 1 2 3 4 5 6 7 8 
9 10 11 12 13 14 15 16 17 
18 19 20 21 22 23 24 25 26 
27 28 29 30 31 32 33 34 35 
36 37 38 39 40 41 42 43 44 
45 46 47 48 49 50 51 52 53 
54 55 56 57 58 59 60 61 62 
63 64 65 66 67 68 69 70 71 
72 73 74 75 76 77 78 79 80 
81 82 83 84 85 86 87 88 89 
90 91 92 93 94 95 96 97 98 
99 
POINT_DATA 100
FIELD FieldData 3
_theta 1 100 double
0 0.031733259127 0.063466518254 0.095199777382 0.12693303651 0.15866629564 0.19039955476 0.22213281389 0.25386607302 
0.28559933214 0.31733259127 0.3490658504 0.38079910953 0.41253236865 0.44426562778 0.47599888691 0.50773214603 0.53946540516 
0.57119866429 0.60293192342 0.63466518254 0.66639844167 0.6981317008 0.72986495992 0.76159821905 0.79333147818 0.82506473731 
0.85679799643 0.88853125556 0.92026451469 0.95199777382 0.98373103294 1.0154642921 1.0471975512 1.0789308103 1.1106640695 
1.1423973286 1.1741305877 1.2058638468 1.237597106 1.2693303651 1.3010636242 1.3327968833 1.3645301425 1.3962634016 
1.4279966607 1.4597299198 1.491463179 1.5231964381 1.5549296972 1.5866629564 1.6183962155 1.6501294746 1.6818627337 
1.7135959929 1.745329252 1.7770625111 1.8087957702 1.8405290294 1.8722622885 1.9039955476 1.9357288068 1.9674620659 
1.999195325 2.0309285841 2.0626618433 2.0943951024 2.1261283615 2.1578616206 2.1895948798 2.2213281389 2.253061398 
2.2847946572 2.3165279163 2.3482611754 2.3799944345 2.4117276937 2.4434609528 2.4751942119 2.506927471 2.5386607302 
2.5703939893 2.6021272484 2.6338605076 2.6655937667 2.6973270258 2.7290602849 2.7607935441 2.7925268032 2.8242600623 
2.8559933214 2.8877265806 2.9194598397 2.9511930988 2.982926358 3.0146596171 3.0463928762 3.0781261353 3.1098593945 
3.1415926536 
_radius 1 100 double
5.7838916945e-16 0.015257669503 0.030372315627 0.045210408792 0.059665559063 0.073665169156 0.087170123198 0.10016769091 0.11265943142 
0.12464709435 0.13611988715 0.14704583189 0.15736854987 0.1670093068 0.17587311871 0.18385740395 0.19086191731 0.19679914964 
0.2016046743 0.205246897 0.20773535384 0.20912630769 0.20952419939 0.20907775898 0.20797036103 0.20640538154 0.20458853356 
0.20270997999 0.20092908802 0.19936392663 0.19808629691 0.19712175089 0.19645324241 0.19602708155 0.19576060765 0.19555187437 
0.19529206579 0.19488111487 0.19424571593 0.19335636324 0.19223798887 0.19096989685 0.18967472972 0.18850051276 0.187602104 
0.18712737223 0.18720953281 0.18796277818 0.18947663074 0.19180639406 0.19496089802 0.19889141241 0.20348573955 0.20857003283 
0.21391916003 0.21927475966 0.22436850917 0.22894697135 0.23279423266 0.23574940186 0.23771741589 0.23867292775 0.23865797258 
0.23777453868 0.23617322402 0.23403901254 0.23157500435 0.22898479165 0.22645426062 0.2241341711 0.2221258735 0.22047311748 
0.2191619412 0.21812825093 0.21727055257 0.21646455152 0.21557674847 0.21447511589 0.21303616487 0.21114887407 0.20871649808 
0.20565695976 0.20190185029 0.19739382118 0.19208265068 0.18592104571 0.1788616265 0.17085624704 0.16185804458 0.15182582433 
0.14072990106 0.12855839758 0.11532308777 0.1010639966 0.085852093466 0.069789618713 0.05300794059 0.035663298559 0.017931160522 
3.2315396138e-16 
_area 1 100 double
0 0.00062766344399 0.0024852213674 0.0054988001148 0.0095529850605 0.014501192139 0.020178057043 0.026412025279 0.033036017177 
0.039894044876 0.046842404945 0.05374574512 0.060470319537 0.066877773965 0.072822186816 0.078152062792 0.082718642132 0.086390801873 
0.089073689594 0.090725424301 0.091366784685 0.091082336095 0.090015504926 0.08836501653 0.086430161259 0.084456786097 0.0825214943 
0.080742496633 0.079238335202 0.078125999748 0.077525772976 0.077533383928 0.078371893413 0.07974986004 0.081460303559 0.083304996231 
0.085114974748 0.08675133707 0.088104750253 0.089125177622 0.089876247866 0.090579112807 0.091522707422 0.092695172668 0.093951832176 
0.095290151619 0.096889399991 0.099579902765 0.10352142948 0.10807578129 0.11311591466 0.11859479661 0.12446048116 0.13061760589 
0.13690694885 0.14310169022 0.14892335641 0.1540765957 0.15829373964 0.16137534998 0.16321601328 0.16381277938 0.16326463692 
0.16179156827 0.15977998468 0.15748964791 0.15494601138 0.15218467998 0.1492863674 0.14633443879 0.14338825537 0.14047946617 
0.13762199054 0.13482589405 0.13210109247 0.12944236022 0.12680388652 0.12408673474 0.12115247874 0.11785225094 0.11405522811 
0.10966874658 0.10464713577 0.098989180511 0.092727395647 0.085914629535 0.078613919768 0.07089595051 0.062845129534 0.054571113874 
0.04621947009 0.037974905096 0.030053470983 0.022684873426 0.016090166692 0.01046171089 0.0059507005176 0.0026640242317 0.0006687036071 
7.4001308411e-17 
