# vtk DataFile Version 5.1
vtk output
ASCII
DATASET POLYDATA
POINTS 100 float
-0.222293 -0.0136051 0.686959 -0.221317 -0.0135773 0.686469 -0.218543 -0.0133363 0.685091 
-0.214103 -0.0128628 0.68286 -0.208206 -0.0121294 0.67983 -0.201107 -0.0111041 0.676068 
-0.193088 -0.00975583 0.671645 -0.184425 -0.00805921 0.666632 -0.175364 -0.00599887 0.661089 
-0.166099 -0.00357252 0.655061 -0.156755 -0.000792168 0.648575 -0.147385 0.00231646 0.641634 
-0.137974 0.00571632 0.634219 -0.128445 0.00936285 0.626292 -0.118688 0.0132085 0.617797 
-0.108571 0.0172072 0.608671 -0.0979733 0.0213183 0.598843 -0.0868008 0.0255091 0.588249 
-0.0750058 0.0297553 0.576829 -0.0625961 0.0340397 0.564537 -0.0496373 0.0383487 0.551345 
-0.0362477 0.0426683 0.537235 -0.022585 0.0469777 0.522207 -0.00883008 0.0512446 0.506269 
0.00483331 0.0554207 0.489438 0.0182374 0.0594393 0.471728 0.0312466 0.063215 0.453155 
0.0437683 0.0666466 0.433723 0.0557567 0.0696223 0.413431 0.0672104 0.0720278 0.392268 
0.0781621 0.073755 0.370217 0.088664 0.0747122 0.347263 0.0987699 0.0748333 0.323393 
0.108516 0.0740856 0.29861 0.117906 0.0724749 0.272938 0.126897 0.0700471 0.24643 
0.135395 0.066887 0.219168 0.143256 0.0631131 0.191276 0.150297 0.0588695 0.162907 
0.156306 0.0543155 0.134247 0.161067 0.0496149 0.105506 0.164379 0.0449246 0.0769035 
0.166079 0.040385 0.0486614 0.16606 0.0361124 0.0209878 0.164288 0.0321944 -0.00593439 
0.160806 0.0286883 -0.0319588 0.155735 0.0256234 -0.0569837 0.149268 0.0230047 -0.0809558 
0.141655 0.0208195 -0.103871 0.133184 0.0190449 -0.125771 0.124159 0.0176545 -0.146735 
0.114877 0.0166244 -0.166867 0.10561 0.0159379 -0.186287 0.0965838 0.0155872 -0.205118 
0.0879682 0.0155728 -0.22347 0.0798703 0.0159009 -0.241435 0.0723344 0.016579 -0.259078 
0.0653466 0.0176108 -0.276433 0.0588455 0.0189903 -0.293509 0.0527343 0.0206979 -0.310288 
0.0468955 0.0226971 -0.32674 0.0412056 0.024934 -0.342826 0.0355475 0.0273386 -0.35851 
0.0298219 0.0298288 -0.373771 0.0239545 0.0323163 -0.388604 0.017901 0.0347133 -0.403028 
0.0116483 0.03694 -0.417084 0.00521351 0.0389315 -0.430834 -0.00135891 0.0406432 -0.444347 
-0.00800196 0.0420544 -0.4577 -0.0146312 0.0431692 -0.470959 -0.0211507 0.0440155 -0.48417 
-0.0274582 0.0446405 -0.497354 -0.0334513 0.0451054 -0.510496 -0.0390327 0.0454782 -0.523545 
-0.0441148 0.0458258 -0.536414 -0.0486255 0.0462072 -0.548987 -0.0525121 0.0466674 -0.561129 
-0.0557455 0.047233 -0.572695 -0.0583237 0.04791 -0.583546 -0.060273 0.0486841 -0.593563 
-0.061649 0.0495228 -0.602655 -0.062534 0.0503798 -0.610769 -0.0630335 0.0512001 -0.617898 
-0.0632696 0.0519266 -0.624074 -0.0633726 0.0525057 -0.629372 -0.0634715 0.0528931 -0.633892 
-0.0636835 0.0530583 -0.637758 -0.0641038 0.0529875 -0.641097 -0.0647971 0.0526846 -0.644032 
-0.0657917 0.0521716 -0.646664 -0.0670761 0.051486 -0.649071 -0.0686001 0.0506784 -0.651299 
-0.0702792 0.0498079 -0.653359 -0.0720031 0.0489381 -0.655235 -0.0736467 0.0481324 -0.656888 
-0.0750826 0.0474493 -0.658265 -0.0761945 0.0469388 -0.65931 -0.0768892 0.0466389 -0.659973 
-0.0771063 0.0465731 -0.660222 
LINES 2 100
OFFSETS vtktypeint64
0 100 
CONNECTIVITY vtktypeint64
0 1 2 3 4 5 6 7 8 
9 10 11 12 13 14 15 16 17 
18 19 20 21 22 23 24 25 26 
27 28 29 30 31 32 33 34 35 
36 37 38 39 40 41 42 43 44 
45 46 47 48 49 50 51 52 53 
54 55 56 57 58 59 60 61 62 
63 64 65 66 67 68 69 70 71 
72 73 74 75 76 77 78 79 80 
81 82 83 84 85 86 87 88 89 
90 91 92 93 94 95 96 97 98 
99 
POINT_DATA 100
FIELD FieldData 3
_theta 1 100 double
0 0.031733259127 0.063466518254 0.095199777382 0.12693303651 0.15866629564 0.19039955476 0.22213281389 0.25386607302 
0.28559933214 0.31733259127 0.3490658504 0.38079910953 0.41253236865 0.44426562778 0.47599888691 0.50773214603 0.53946540516 
0.57119866429 0.60293192342 0.63466518254 0.66639844167 0.6981317008 0.72986495992 0.76159821905 0.79333147818 0.82506473731 
0.85679799643 0.88853125556 0.92026451469 0.95199777382 0.98373103294 1.0154642921 1.0471975512 1.0789308103 1.1106640695 
1.1423973286 1.1741305877 1.2058638468 1.237597106 1.2693303651 1.3010636242 1.3327968833 1.3645301425 1.3962634016 
1.4279966607 1.4597299198 1.491463179 1.5231964381 1.5549296972 1.5866629564 1.6183962155 1.6501294746 1.6818627337 
1.7135959929 1.745329252 1.7770625111 1.8087957702 1.8405290294 1.8722622885 1.9039955476 1.9357288068 1.9674620659 
1.999195325 2.0309285841 2.0626618433 2.0943951024 2.1261283615 2.1578616206 2.1895948798 2.2213281389 2.253061398 
2.2847946572 2.3165279163 2.3482611754 2.3799944345 2.4117276937 2.4434609528 2.4751942119 2.506927471 2.5386607302 
2.5703939893 2.6021272484 2.6338605076 2.6655937667 2.6973270258 2.7290602849 2.7607935441 2.7925268032 2.8242600623 
2.8559933214 2.8877265806 2.9194598397 2.9511930988 2.982926358 3.0146596171 3.0463928762 3.0781261353 3.1098593945 
3.1415926536 
_radius 1 100 double
1.229204295e-15 0.016716545433 0.033190182015 0.049197329024 0.064552461431 0.079116068122 0.092792848409 0.10552160148 0.11726054093 
0.12797279748 0.13761634284 0.14614084263 0.15349180236 0.1596205028 0.16449696298 0.16812257648 0.17053915608 0.17183193151 
0.17212551683 0.17157370596 0.17034562668 0.16861163769 0.1665320336 0.16425040982 0.16189208249 0.15956660816 0.15737211572 
0.15539782164 0.15372034527 0.15239097456 0.15141712236 0.15074986428 0.15029037337 0.14991642793 0.14951885175 0.14903660973 
0.14848277135 0.14795564275 0.14763035982 0.14772867144 0.14847057746 0.15002059912 0.15244851727 0.1557213728 0.15972876514 
0.16432664278 0.16937799085 0.17477460891 0.18043571154 0.18628952339 0.19225023747 0.19820318198 0.20400575323 0.20950366233 
0.21455588151 0.219059567 0.2229673941 0.22629262556 0.22910083964 0.2314909596 0.23357130808 0.23543767783 0.2371588746 
0.23877145867 0.24028178739 0.24167186769 0.24290601195 0.24393674315 0.24470979398 0.24516882346 0.24526044466 0.24493947829 
0.24417347477 0.24294501005 0.24125038274 0.23909410827 0.23647974085 0.23339869842 0.22981962999 0.22568125101 0.22089131634 
0.21533336616 0.20888110318 0.20141817388 0.19285952031 0.18316999705 0.17237664142 0.16057232592 0.14790995803 0.13458770128 
0.12082699857 0.106846708 0.092838224982 0.078946969248 0.065263817438 0.051826584877 0.038628821432 0.025632147308 0.012778547727 
7.249202779e-16 
_area 1 100 double
0 0.00058441954298 0.0022989333802 0.0050344032047 0.0086298593146 0.012895642524 0.017633644123 0.022650515067 0.027764129453 
0.032805607727 0.037618777941 0.042058564488 0.045991211621 0.049302893013 0.051931818133 0.053941827522 0.055468583606 0.056582090016 
0.057372996893 0.057936753137 0.058340640225 0.058610433161 0.058730221216 0.05865740489 0.05834753404 0.057782034203 0.056991328276 
0.056066912478 0.05515775931 0.054446801042 0.054106403082 0.054250052514 0.054903897202 0.055988699721 0.05733225115 0.058712302754 
0.059920479792 0.060844479892 0.061521040485 0.062138295556 0.063010136549 0.064602841145 0.067140451594 0.070223321938 0.07353621973 
0.076943367827 0.080364177765 0.083798083255 0.087431908962 0.091550137777 0.096387499079 0.10200350612 0.10823324969 0.1147037837 
0.12094283722 0.12651839601 0.13113570133 0.13467682288 0.13719481865 0.13912767771 0.14134745168 0.14330607426 0.14481378369 
0.14581389446 0.14629490196 0.14629173962 0.14587682608 0.14514651719 0.14420345044 0.14313542858 0.14199168458 0.140760719 
0.13936723683 0.13770733976 0.13570124139 0.13331860983 0.13055934897 0.12741118983 0.1238211291 0.11969180907 0.11489216646 
0.10927966643 0.10273584204 0.095209061382 0.086750791839 0.077531536534 0.067829621465 0.057995471539 0.048401229048 0.039388139462 
0.031222500691 0.024067811317 0.017978795366 0.012921017857 0.008811311262 0.0055599457796 0.0030947172852 0.0013654220922 0.00033988430245 
3.2137160169e-17 
