# vtk DataFile Version 5.1
vtk output
ASCII
DATASET POLYDATA
POINTS 100 float
-0.182285 -0.0571404 0.750268 -0.182168 -0.057 0.750081 -0.181782 -0.0563406 0.749536 
-0.181043 -0.0551582 0.748623 -0.179825 -0.0534501 0.74732 -0.177979 -0.051215 0.745599 
-0.175353 -0.0484535 0.743416 -0.171817 -0.0451686 0.740718 -0.167282 -0.0413659 0.737434 
-0.161716 -0.0370545 0.733483 -0.155152 -0.0322476 0.728773 -0.147686 -0.0269629 0.723208 
-0.139474 -0.0212242 0.71669 -0.130709 -0.0150626 0.70913 -0.121608 -0.00851707 0.700453 
-0.112378 -0.00163668 0.690604 -0.103201 0.00551888 0.679557 -0.0942087 0.0128782 0.667317 
-0.0854707 0.0203576 0.653923 -0.0769852 0.0278617 0.639442 -0.0686825 0.035284 0.623975 
-0.0604344 0.0425089 0.607638 -0.0520721 0.0494144 0.590561 -0.0434083 0.0558754 0.572876 
-0.0342614 0.0617686 0.554702 -0.0244799 0.0669762 0.536137 -0.0139625 0.0713922 0.517249 
-0.00267256 0.0749264 0.498067 0.00935434 0.0775093 0.478581 0.0220114 0.0790959 0.458736 
0.0351287 0.0796685 0.438442 0.0484877 0.0792381 0.417579 0.06184 0.0778445 0.396008 
0.0749279 0.0755547 0.373582 0.0875038 0.0724602 0.350165 0.0993472 0.0686731 0.325639 
0.110277 0.0643208 0.299922 0.120156 0.0595402 0.272979 0.128894 0.0544723 0.244823 
0.136441 0.0492563 0.215526 0.142777 0.0440239 0.185214 0.147903 0.0388957 0.154063 
0.151829 0.0339773 0.122293 0.154562 0.0293573 0.0901546 0.156106 0.0251062 0.0579159 
0.156451 0.0212767 0.0258497 0.155584 0.0179045 -0.00578178 0.153487 0.0150104 -0.0367396 
0.150155 0.0126021 -0.0668195 0.145598 0.0106769 -0.0958601 0.139857 0.00922429 -0.123748 
0.133009 0.00822747 -0.150421 0.12517 0.00766565 -0.175865 0.116496 0.00751515 -0.200108 
0.107176 0.00775034 -0.223218 0.0974224 0.0083442 -0.24529 0.0874551 0.00926856 -0.266435 
0.0774872 0.0104943 -0.286776 0.0677079 0.0119914 -0.306432 0.0582689 0.0137294 -0.325511 
0.0492733 0.0156776 -0.344107 0.0407698 0.0178057 -0.362293 0.0327531 0.0200848 -0.380116 
0.0251688 0.0224882 -0.397605 0.0179241 0.0249921 -0.414765 0.0109023 0.0275769 -0.431586 
0.00397821 0.0302272 -0.448044 -0.00296457 0.0329323 -0.464113 -0.0100195 0.0356862 -0.479763 
-0.0172457 0.0384866 -0.494968 -0.0246608 0.0413341 -0.50971 -0.0322392 0.0442309 -0.523979 
-0.0399155 0.0471792 -0.537777 -0.0475918 0.0501794 -0.551111 -0.0551488 0.0532291 -0.563994 
-0.0624586 0.0563212 -0.576441 -0.0693981 0.0594438 -0.588464 -0.0758604 0.0625792 -0.600065 
-0.0817652 0.0657042 -0.611236 -0.0870643 0.0687912 -0.621955 -0.0917443 0.0718088 -0.632183 
-0.0958257 0.0747238 -0.641867 -0.0993572 0.0775028 -0.650941 -0.10241 0.0801142 -0.659335 
-0.105067 0.0825297 -0.666972 -0.107417 0.0847265 -0.673786 -0.109543 0.0866882 -0.679722 
-0.111517 0.0884056 -0.684744 -0.113393 0.0898774 -0.688844 -0.115207 0.0911101 -0.692043 
-0.116974 0.092117 -0.694395 -0.118689 0.0929176 -0.695981 -0.120332 0.0935363 -0.696913 
-0.121872 0.0940005 -0.697321 -0.123268 0.094339 -0.697347 -0.124478 0.0945802 -0.697138 
-0.125462 0.0947504 -0.696828 -0.126183 0.094872 -0.696536 -0.126614 0.0949623 -0.696354 
-0.126738 0.0950325 -0.696339 
LINES 2 100
OFFSETS vtktypeint64
0 100 
CONNECTIVITY vtktypeint64
0 1 2 3 4 5 6 7 8 
9 10 11 12 13 14 15 16 17 
18 19 20 21 22 23 24 25 26 
27 28 29 30 31 32 33 34 35 
36 37 38 39 40 41 42 43 44 
45 46 47 48 49 50 51 52 53 
54 55 56 57 58 59 60 61 62 
63 64 65 66 67 68 69 70 71 
72 73 74 75 76 77 78 79 80 
81 82 83 84 85 86 87 88 89 
90 91 92 93 94 95 96 97 98 
99 
POINT_DATA 100
FIELD FieldData 3
_theta 1 100 double
0 0.031733259127 0.063466518254 0.095199777382 0.12693303651 0.15866629564 0.19039955476 0.22213281389 0.25386607302 
0.28559933214 0.31733259127 0.3490658504 0.38079910953 0.41253236865 0.44426562778 0.47599888691 0.50773214603 0.53946540516 
0.57119866429 0.60293192342 0.63466518254 0.66639844167 0.6981317008 0.72986495992 0.76159821905 0.79333147818 0.82506473731 
0.85679799643 0.88853125556 0.92026451469 0.95199777382 0.98373103294 1.0154642921 1.0471975512 1.0789308103 1.1106640695 
1.1423973286 1.1741305877 1.2058638468 1.237597106 1.2693303651 1.3010636242 1.3327968833 1.3645301425 1.3962634016 
1.4279966607 1.4597299198 1.491463179 1.5231964381 1.5549296972 1.5866629564 1.6183962155 1.6501294746 1.6818627337 
1.7135959929 1.745329252 1.7770625111 1.8087957702 1.8405290294 1.8722622885 1.9039955476 1.9357288068 1.9674620659 
1.999195325 2.0309285841 2.0626618433 2.0943951024 2.1261283615 2.1578616206 2.1895948798 2.2213281389 2.253061398 
2.2847946572 2.3165279163 2.3482611754 2.3799944345 2.4117276937 2.4434609528 2.4751942119 2.506927471 2.5386607302 
2.5703939893 2.6021272484 2.6338605076 2.6655937667 2.6973270258 2.7290602849 2.7607935441 2.7925268032 2.8242600623 
2.8559933214 2.8877265806 2.9194598397 2.9511930988 2.982926358 3.0146596171 3.0463928762 3.0781261353 3.1098593945 
3.1415926536 
_radius 1 100 double
3.4282630421e-16 0.015963664399 0.031810695179 0.047415869417 0.062651978843 0.077387672672 0.091485065169 0.10479864621 0.11717710669 
0.12846917574 0.1385337299 0.147253509 0.1545508412 0.1604028719 0.16485312333 0.16801621947 0.17007360431 0.17125983433 
0.1718408711 0.17208715748 0.17224497521 0.17250973298 0.1730045235 0.17376690928 0.17474688089 0.17581826312 0.17680301591 
0.17750438971 0.1777433482 0.17739288822 0.17640546931 0.17482903019 0.17280606927 0.17054603448 0.16826134818 0.16609730881 
0.16412646306 0.1623934176 0.16094442833 0.15983488668 0.15912958071 0.15889984256 0.15921621372 0.1601366815 0.16169392189 
0.16388712411 0.16668337878 0.17002975703 0.17387138155 0.17816687196 0.18289368517 0.18804099273 0.19359326327 0.19951107885 
0.20571626655 0.21208660683 0.21846208452 0.2246610894 0.2305023831 0.23582769981 0.24052040587 0.24451711295 0.24781092258 
0.25044662462 0.25250938427 0.25410909829 0.25536273359 0.25637676521 0.25723150417 0.25796876921 0.25858403681 0.25902387529 
0.25918908628 0.25894348943 0.2581276582 0.25657618984 0.25413642227 0.25068611411 0.24614764485 0.24049679 0.23376495605 
0.22603472624 0.21742947555 0.2080985065 0.198199541 0.18788047583 0.17726217961 0.16642396776 0.15539339843 0.1441421564 
0.13258971892 0.12061577079 0.10808075526 0.09485191921 0.080830574849 0.065975732701 0.050319869477 0.033974042061 0.017121398033 
8.2662423897e-16 
_area 1 100 double
0 0.00072787731603 0.0028761361993 0.0063385266443 0.010938473026 0.016432920288 0.022522897004 0.028873334357 0.035141918008 
0.041013222068 0.046231961977 0.050629117686 0.054136143994 0.056782531494 0.058671637382 0.059946515612 0.060778653607 0.061375748191 
0.061975251421 0.062870368317 0.064386517811 0.066539763658 0.069195619251 0.072227749703 0.075469367015 0.078718049515 0.081751526823 
0.084346217747 0.086289098568 0.087383916406 0.087470948226 0.086486618501 0.084547499597 0.081951235495 0.079011950062 0.075970739229 
0.073174582363 0.071190215237 0.070323634857 0.070296757877 0.07075854074 0.071529170753 0.072558472508 0.073862580176 0.075481815105 
0.077523327895 0.080132061767 0.08319750731 0.086538425819 0.090125839504 0.094046412242 0.098449773339 0.1035236271 0.10944671346 
0.11626462099 0.12374943206 0.13147540718 0.13899486516 0.14591119045 0.1519031288 0.15673777812 0.16027970584 0.162529442 
0.16364572931 0.16395776892 0.16393174162 0.16364277566 0.16313535462 0.16242129542 0.16151430999 0.16044148902 0.15922488656 
0.15785492122 0.15627145588 0.15436280567 0.15198106912 0.14896465942 0.14516162379 0.14045200888 0.13476762718 0.12810616911 
0.12053724661 0.1121993376 0.1032873234 0.094031330128 0.084669520997 0.075419395654 0.06645303253 0.057881563165 0.04975328377 
0.042067554458 0.034802129925 0.027946321845 0.021530032637 0.015640545229 0.010422953893 0.006064231052 0.0027645231653 0.00070210455789 
8.51094503e-17 
