# vtk DataFile Version 5.1
vtk output
ASCII
DATASET POLYDATA
POINTS 100 float
-0.124416 -0.0565245 0.686662 -0.124395 -0.0564518 0.686727 -0.12429 -0.0560566 0.686857 
-0.124068 -0.0553308 0.686954 -0.123679 -0.0542611 0.686867 -0.123056 -0.0528277 0.686412 
-0.122119 -0.0510027 0.685394 -0.120782 -0.0487504 0.683631 -0.118956 -0.0460271 0.680974 
-0.116554 -0.0427836 0.67732 -0.113497 -0.0389688 0.672622 -0.109717 -0.0345344 0.666889 
-0.105164 -0.0294417 0.660176 -0.0998071 -0.023668 0.652572 -0.0936391 -0.0172129 0.644178 
-0.0866778 -0.0101042 0.635091 -0.0789683 -0.00240143 0.625385 -0.0705831 0.00580322 0.615096 
-0.0616209 0.014386 0.604219 -0.0522047 0.0231961 0.592707 -0.0424769 0.0320622 0.580479 
-0.0325935 0.0408014 0.56744 -0.0227162 0.0492289 0.553493 -0.0130025 0.0571676 0.538564 
-0.0035956 0.0644572 0.522617 0.00538642 0.0709618 0.50567 0.0138608 0.0765748 0.487793 
0.0217879 0.0812212 0.469114 0.0291768 0.0848579 0.449799 0.0360862 0.087471 0.430038 
0.0426215 0.0890721 0.410019 0.048926 0.0896935 0.389904 0.0551686 0.0893832 0.369807 
0.0615263 0.0882009 0.349773 0.0681656 0.0862148 0.329771 0.0752214 0.0835 0.309694 
0.0827783 0.0801387 0.289368 0.0908549 0.0762207 0.268577 0.0993929 0.0718451 0.247081 
0.108253 0.0671217 0.224657 0.117221 0.0621713 0.201121 0.126015 0.0571246 0.176364 
0.134308 0.052119 0.150365 0.141754 0.0472943 0.123202 0.148009 0.0427853 0.0950544 
0.152767 0.0387147 0.0661872 0.155785 0.0351843 0.0369298 0.156899 0.0322685 0.0076468 
0.156047 0.0300075 -0.0212949 0.153268 0.0284052 -0.0495582 0.1487 0.0274285 -0.0768642 
0.142568 0.027011 -0.103013 0.13516 0.0270593 -0.127894 0.126805 0.0274624 -0.151489 
0.117838 0.0281022 -0.173861 0.108573 0.0288649 -0.195136 0.0992792 0.0296511 -0.215483 
0.0901584 0.0303844 -0.235086 0.0813357 0.0310167 -0.25412 0.0728562 0.0315299 -0.272732 
0.0646916 0.0319342 -0.291023 0.0567541 0.0322625 -0.309048 0.048917 0.0325634 -0.326813 
0.0410375 0.0328911 -0.344284 0.0329796 0.033297 -0.361403 0.0246351 0.0338205 -0.378101 
0.0159385 0.0344839 -0.394316 0.0068758 0.0352888 -0.410003 -0.00251468 0.0362166 -0.425147 
-0.0121487 0.037232 -0.439759 -0.0219086 0.0382893 -0.453879 -0.0316594 0.0393396 -0.467561 
-0.0412673 0.0403394 -0.480863 -0.0506164 0.0412573 -0.493837 -0.0596223 0.0420792 -0.50651 
-0.0682402 0.0428106 -0.51888 -0.0764669 0.0434754 -0.530911 -0.0843355 0.0441113 -0.542535 
-0.0919056 0.0447627 -0.553659 -0.0992482 0.0454724 -0.56418 -0.106429 0.0462721 -0.573999 
-0.113495 0.0471745 -0.583035 -0.120456 0.0481676 -0.591245 -0.127284 0.0492125 -0.598627 
-0.133907 0.050245 -0.605229 -0.140216 0.0511814 -0.611142 -0.146077 0.0519275 -0.616493 
-0.151347 0.0523904 -0.621429 -0.155891 0.0524912 -0.626096 -0.159606 0.0521766 -0.630622 
-0.162432 0.0514289 -0.635096 -0.164365 0.050272 -0.639558 -0.165462 0.0487725 -0.643989 
-0.165841 0.0470359 -0.64831 -0.165662 0.0451985 -0.652397 -0.16512 0.0434142 -0.656088 
-0.164417 0.0418394 -0.659208 -0.163743 0.0406172 -0.66159 -0.163252 0.0398621 -0.663096 
-0.163043 0.0396478 -0.663637 
LINES 2 100
OFFSETS vtktypeint64
0 100 
CONNECTIVITY vtktypeint64
0 1 2 3 4 5 6 7 8 
9 10 11 12 13 14 15 16 17 
18 19 20 21 22 23 24 25 26 
27 28 29 30 31 32 33 34 35 
36 37 38 39 40 41 42 43 44 
45 46 47 48 49 50 51 52 53 
54 55 56 57 58 59 60 61 62 
63 64 65 66 67 68 69 70 71 
72 73 74 75 76 77 78 79 80 
81 82 83 84 85 86 87 88 89 
90 91 92 93 94 95 96 97 98 
99 
POINT_DATA 100
FIELD FieldData 3
_theta 1 100 double
0 0.031733259127 0.063466518254 0.095199777382 0.12693303651 0.15866629564 0.19039955476 0.22213281389 0.25386607302 
0.28559933214 0.31733259127 0.3490658504 0.38079910953 0.41253236865 0.44426562778 0.47599888691 0.50773214603 0.53946540516 
0.57119866429 0.60293192342 0.63466518254 0.66639844167 0.6981317008 0.72986495992 0.76159821905 0.79333147818 0.82506473731 
0.85679799643 0.88853125556 0.92026451469 0.95199777382 0.98373103294 1.0154642921 1.0471975512 1.0789308103 1.1106640695 
1.1423973286 1.1741305877 1.2058638468 1.237597106 1.2693303651 1.3010636242 1.3327968833 1.3645301425 1.3962634016 
1.4279966607 1.4597299198 1.491463179 1.5231964381 1.5549296972 1.5866629564 1.6183962155 1.6501294746 1.6818627337 
1.7135959929 1.745329252 1.7770625111 1.8087957702 1.8405290294 1.8722622885 1.9039955476 1.9357288068 1.9674620659 
1.999195325 2.0309285841 2.0626618433 2.0943951024 2.1261283615 2.1578616206 2.1895948798 2.2213281389 2.253061398 
2.2847946572 2.3165279163 2.3482611754 2.3799944345 2.4117276937 2.4434609528 2.4751942119 2.506927471 2.5386607302 
2.5703939893 2.6021272484 2.6338605076 2.6655937667 2.6973270258 2.7290602849 2.7607935441 2.7925268032 2.8242600623 
2.8559933214 2.8877265806 2.9194598397 2.9511930988 2.982926358 3.0146596171 3.0463928762 3.0781261353 3.1098593945 
3.1415926536 
_radius 1 100 double
1.0050623144e-15 0.017666210102 0.035153171278 0.052281722662 0.068875533744 0.084761883963 0.099772318008 0.11374387686 0.12652177371 
0.137964223 0.14794964049 0.15638573827 0.16321935276 0.16844539045 0.17211322072 0.17432923598 0.1752550216 0.17510136054 
0.17411881469 0.17258572195 0.17079426215 0.16903506951 0.16758085995 0.16666966292 0.1664885048 0.16715895811 0.16872673775 
0.17115758944 0.17434030004 0.17809573299 0.18219010561 0.18635150439 0.19028979967 0.19372045692 0.19639140596 0.19810954009 
0.19876160678 0.1983252263 0.19686928655 0.19454623615 0.19157936796 0.18824680312 0.18486288005 0.1817576366 0.17925518199 
0.17765145903 0.17719153668 0.178046994 0.18029576203 0.18390922192 0.1887519848 0.19459669531 0.20115090204 0.20808940971 
0.21508561808 0.22183785294 0.22808929924 0.23364168748 0.23836338438 0.24219243065 0.24513475526 0.24725756867 0.24867799224 
0.24954740658 0.25003274138 0.25029673949 0.25047973341 0.25068534496 0.2509717128 0.25134866586 0.25178014401 0.252190459 
0.25247282047 0.25249886734 0.25212850769 0.25121981654 0.24963879058 0.24726842331 0.24401613711 0.2398184481 0.23464204201 
0.22848115521 0.22135204264 0.21328605058 0.20432311208 0.1945072079 0.18388455342 0.17250425266 0.16042028296 0.14769327559 
0.13439078867 0.12058551708 0.10635182445 0.091761711129 0.076881542905 0.061770492588 0.046480895835 0.031059975675 0.015551995817 
7.9888649614e-16 
_area 1 100 double
0 0.00068965302761 0.0027319412042 0.0060484591342 0.010512932279 0.015955332612 0.022165045372 0.028894092258 0.035863367579 
0.042774957639 0.049331553436 0.055260747671 0.06033927818 0.064411502589 0.06739813202 0.069294737514 0.070163008785 0.070119847466 
0.069330736616 0.068016819815 0.066468613831 0.064990713286 0.063918158432 0.063575210586 0.06384914033 0.06468148347 0.066040387683 
0.067871178131 0.070063107633 0.072461695054 0.074896037231 0.077213098033 0.079324607532 0.081383607383 0.08318618754 0.084586324193 
0.085515334194 0.08595945872 0.085946330643 0.085486603228 0.084595597208 0.083388593317 0.082126749451 0.081206226352 0.081100077221 
0.081964041264 0.083657112399 0.08609069711 0.089272486017 0.093272861215 0.098178485356 0.10404561843 0.11085739331 0.11848976423 
0.12669372101 0.13510264318 0.1432698127 0.15073027972 0.15707108227 0.1619919623 0.16534386324 0.16713930573 0.16753470262 
0.16679087529 0.16522687143 0.16319544304 0.16109297578 0.15915245505 0.15728447526 0.15541368403 0.15354212685 0.1516982513 
0.14988908045 0.14806592257 0.14611080042 0.14384556092 0.14106072522 0.13755678706 0.13318491437 0.12787402788 0.12163858035 
0.11456775637 0.10680094072 0.098498319197 0.089817445155 0.080903051614 0.071889385596 0.062908045095 0.054093931853 0.045585680379 
0.037520865425 0.030028471103 0.023221490714 0.01719181127 0.012008502563 0.0077196649088 0.0043569905528 0.0019411817944 0.00048602952794 
3.4281294855e-17 
