# vtk DataFile Version 5.1
vtk output
ASCII
DATASET POLYDATA
POINTS 100 float
-0.152569 -0.0234577 0.672184 -0.152404 -0.0234591 0.672019 -0.151907 -0.0232834 0.671461 
-0.151085 -0.0228999 0.670469 -0.14994 -0.0222621 0.668985 -0.148471 -0.0213119 0.666939 
-0.146664 -0.0199861 0.664262 -0.144492 -0.0182224 0.660898 -0.141905 -0.0159657 0.656808 
-0.138838 -0.0131744 0.651981 -0.135207 -0.00982495 0.646433 -0.130915 -0.005915 0.640203 
-0.125865 -0.00146526 0.633349 -0.119962 0.00348095 0.625935 -0.113132 0.00885962 0.618019 
-0.105324 0.0145894 0.609646 -0.096522 0.0205763 0.600834 -0.0867499 0.0267181 0.591571 
-0.0760687 0.0329103 0.581812 -0.0645746 0.0390501 0.571484 -0.0523903 0.0450405 0.560494 
-0.0396545 0.0507936 0.548739 -0.0265083 0.0562314 0.536121 -0.0130829 0.0612871 0.522558 
0.000512178 0.0659041 0.507997 0.0141975 0.0700352 0.492419 0.0279272 0.0736407 0.475845 
0.041688 0.0766868 0.458326 0.0554927 0.0791449 0.439943 0.0693695 0.0809907 0.420792 
0.0833471 0.0822047 0.400967 0.0974395 0.0827731 0.380551 0.11163 0.08269 0.359606 
0.125858 0.0819598 0.338158 0.140012 0.0805994 0.316205 0.153921 0.0786407 0.293711 
0.167365 0.0761319 0.270626 0.180078 0.0731384 0.246891 0.191768 0.0697415 0.222461 
0.202132 0.0660361 0.19732 0.210881 0.0621272 0.171493 0.217762 0.0581249 0.145061 
0.222576 0.054138 0.118162 0.225197 0.0502687 0.090984 0.225581 0.0466058 0.0637619 
0.223769 0.04322 0.0367541 0.219886 0.0401596 0.0102236 0.214133 0.0374485 -0.015585 
0.206767 0.0350862 -0.0404679 0.198089 0.0330491 -0.0642799 0.188416 0.0312949 -0.0869461 
0.178068 0.029767 -0.108467 0.167343 0.028402 -0.128911 0.156503 0.0271354 -0.148408 
0.145764 0.025909 -0.167124 0.135287 0.024676 -0.185246 0.12518 0.0234059 -0.202952 
0.115497 0.0220866 -0.220392 0.106246 0.0207255 -0.237674 0.0973981 0.0193474 -0.254848 
0.0888963 0.0179919 -0.27191 0.0806668 0.0167089 -0.288803 0.072627 0.0155526 -0.305429 
0.0646942 0.0145766 -0.321671 0.0567908 0.0138282 -0.337412 0.0488489 0.013344 -0.352552 
0.0408125 0.0131469 -0.367027 0.0326389 0.0132448 -0.380818 0.0242988 0.0136302 -0.393959 
0.0157767 0.014282 -0.406531 0.00707041 0.0151685 -0.418648 -0.00180877 0.0162506 -0.430447 
-0.0108362 0.0174857 -0.442065 -0.0199738 0.0188317 -0.45362 -0.029171 0.0202499 -0.465193 
-0.0383649 0.0217071 -0.476816 -0.0474832 0.0231769 -0.488464 -0.0564463 0.0246398 -0.500059 
-0.0651712 0.0260817 -0.511476 -0.073576 0.0274926 -0.522558 -0.0815849 0.0288643 -0.533138 
-0.0891325 0.0301883 -0.543053 -0.0961677 0.0314542 -0.55217 -0.102657 0.0326485 -0.560395 
-0.108586 0.0337544 -0.567688 -0.113958 0.0347532 -0.574064 -0.118793 0.0356249 -0.579587 
-0.123123 0.0363515 -0.584362 -0.126989 0.0369188 -0.588517 -0.130436 0.0373193 -0.592187 
-0.133504 0.0375541 -0.595495 -0.136229 0.037634 -0.598537 -0.138637 0.0375796 -0.601372 
-0.140743 0.0374207 -0.604018 -0.142551 0.0371938 -0.606452 -0.144057 0.0369392 -0.608616 
-0.145249 0.0366973 -0.610436 -0.146115 0.0365049 -0.61183 -0.146641 0.0363917 -0.612724 
-0.146818 0.0363769 -0.613069 
LINES 2 100
OFFSETS vtktypeint64
0 100 
CONNECTIVITY vtktypeint64
0 1 2 3 4 5 6 7 8 
9 10 11 12 13 14 15 16 17 
18 19 20 21 22 23 24 25 26 
27 28 29 30 31 32 33 34 35 
36 37 38 39 40 41 42 43 44 
45 46 47 48 49 50 51 52 53 
54 55 56 57 58 59 60 61 62 
63 64 65 66 67 68 69 70 71 
72 73 74 75 76 77 78 79 80 
81 82 83 84 85 86 87 88 89 
90 91 92 93 94 95 96 97 98 
99 
POINT_DATA 100
FIELD FieldData 3
_theta 1 100 double
0 0.031733259127 0.063466518254 0.095199777382 0.12693303651 0.15866629564 0.19039955476 0.22213281389 0.25386607302 
0.28559933214 0.31733259127 0.3490658504 0.38079910953 0.41253236865 0.44426562778 0.47599888691 0.50773214603 0.53946540516 
0.57119866429 0.60293192342 0.63466518254 0.66639844167 0.6981317008 0.72986495992 0.76159821905 0.79333147818 0.82506473731 
0.85679799643 0.88853125556 0.92026451469 0.95199777382 0.98373103294 1.0154642921 1.0471975512 1.0789308103 1.1106640695 
1.1423973286 1.1741305877 1.2058638468 1.237597106 1.2693303651 1.3010636242 1.3327968833 1.3645301425 1.3962634016 
1.4279966607 1.4597299198 1.491463179 1.5231964381 1.5549296972 1.5866629564 1.6183962155 1.6501294746 1.6818627337 
1.7135959929 1.745329252 1.7770625111 1.8087957702 1.8405290294 1.8722622885 1.9039955476 1.9357288068 1.9674620659 
1.999195325 2.0309285841 2.0626618433 2.0943951024 2.1261283615 2.1578616206 2.1895948798 2.2213281389 2.253061398 
2.2847946572 2.3165279163 2.3482611754 2.3799944345 2.4117276937 2.4434609528 2.4751942119 2.506927471 2.5386607302 
2.5703939893 2.6021272484 2.6338605076 2.6655937667 2.6973270258 2.7290602849 2.7607935441 2.7925268032 2.8242600623 
2.8559933214 2.8877265806 2.9194598397 2.9511930988 2.982926358 3.0146596171 3.0463928762 3.0781261353 3.1098593945 
3.1415926536 
_radius 1 100 double
1.1158466333e-15 0.015425358998 0.030763736271 0.045924545226 0.060817519163 0.075352529787 0.089439048778 0.10298546767 0.11589862054 
0.12808388327 0.13944615102 0.14989186343 0.1593321155 0.16768680853 0.17488975089 0.18089455279 0.18568098851 0.18926118718 
0.19168462779 0.193040625 0.19345700791 0.19309413994 0.19213428044 0.19076734103 0.18917500852 0.18751563834 0.1859120933 
0.18444395452 0.18314467348 0.18200365257 0.18097300786 0.17997858556 0.17893425373 0.17775753878 0.17638434291 0.17478236207 
0.17296528235 0.17100724978 0.16905073402 0.16729962544 0.16599438123 0.16537251353 0.16562454886 0.16686138765 0.16910699966 
0.17231661384 0.17640521059 0.18126860606 0.18678943049 0.1928316685 0.19923279344 0.20580164899 0.21232596715 0.21858874495 
0.22438953513 0.22956557508 0.23400818943 0.23767136691 0.24057124552 0.24277703122 0.24439535029 0.2455510121 0.24636753159 
0.24695050605 0.24737613851 0.24768605103 0.2478883199 0.24796365195 0.24787494955 0.24757819184 0.24703254296 0.24620784836 
0.24508819229 0.24367094679 0.24196165081 0.2399659176 0.23768014537 0.23508295982 0.23212907498 0.22874675977 0.22483950414 
0.22029189568 0.21497918495 0.20877952187 0.2015873898 0.19332640819 0.18395953887 0.17349493667 0.16198629064 0.14952745962 
0.13624233484 0.12227184785 0.10776052508 0.092844762117 0.077644189593 0.06225656628 0.046755979909 0.031193882738 0.015602479037 
3.0401380694e-16 
_area 1 100 double
0 0.00057725260366 0.0022864039202 0.0050611459705 0.0087959285382 0.013353074689 0.018571901305 0.024278754432 0.030296557444 
0.036452522355 0.042583179771 0.04853666268 0.054172881204 0.059362622058 0.063986800277 0.06793729483 0.071120901827 0.073467536449 
0.074942739731 0.075563164489 0.075413653142 0.074670872886 0.073624997125 0.072549897147 0.071578556746 0.070823175303 0.070366256725 
0.070245560734 0.070444173655 0.070891236366 0.071480063042 0.072096102202 0.072644414735 0.073061511223 0.073303473447 0.073329423624 
0.073113101497 0.072678819727 0.072127336535 0.071637828075 0.071456345301 0.071867253391 0.073087395427 0.075118849157 0.077832142286 
0.081139724829 0.085036988303 0.089569511288 0.094781555974 0.1006706785 0.10716183316 0.11410225786 0.12127169573 0.12840252032 
0.13520653683 0.14140612271 0.14676634877 0.15112253179 0.15439687082 0.15660275284 0.15783952158 0.15826635657 0.15806417043 
0.15747764101 0.15658732518 0.15535730707 0.15376528456 0.15170405026 0.14910372134 0.14596182352 0.14233638367 0.13833626506 
0.13410469671 0.12979682745 0.12555356294 0.12147301419 0.11758233564 0.1138244939 0.11007759642 0.10619232215 0.10201927405 
0.09742311665 0.092293698999 0.086559936267 0.080205316519 0.073279491679 0.065899738388 0.05823900206 0.050502031663 0.042895678868 
0.03560220988 0.028764184751 0.022485073886 0.016842267963 0.011903082625 0.0077346619079 0.0044046292736 0.0019753305155 0.00049654370051 
2.0083175719e-17 
