# vtk DataFile Version 5.1
vtk output
ASCII
DATASET POLYDATA
POINTS 100 float
-0.202541 -0.0567374 0.781083 -0.201962 -0.0568268 0.781184 -0.20032 -0.0568932 0.781505 
-0.197707 -0.0568709 0.781913 -0.194268 -0.0566607 0.782202 -0.190176 -0.056143 0.782118 
-0.185612 -0.0551932 0.781383 -0.180746 -0.0536985 0.779728 -0.175712 -0.0515716 0.776921 
-0.17059 -0.0487622 0.772788 -0.165404 -0.045263 0.767224 -0.160109 -0.0411099 0.760207 
-0.154606 -0.0363766 0.751784 -0.148752 -0.0311655 0.742062 -0.14238 -0.0255937 0.731188 
-0.13532 -0.0197797 0.719327 -0.127424 -0.0138295 0.706636 -0.118586 -0.00782672 0.693247 
-0.108757 -0.00182594 0.679248 -0.0979564 0.00414788 0.664679 -0.0862684 0.0100953 0.649532 
-0.0738392 0.0160335 0.633756 -0.0608612 0.0219846 0.617274 -0.0475531 0.0279623 0.599995 
-0.0341387 0.0339602 0.581837 -0.0208239 0.0399416 0.562738 -0.00777755 0.0458356 0.542668 
0.00488307 0.0515367 0.521636 0.0170997 0.0569118 0.499687 0.0288728 0.061811 0.476897 
0.0402537 0.0660824 0.453357 0.0513298 0.069589 0.429163 0.0622054 0.0722251 0.404402 
0.0729797 0.073929 0.379137 0.0837256 0.074693 0.353405 0.0944714 0.0745655 0.327209 
0.105187 0.0736481 0.300531 0.11578 0.0720856 0.273338 0.126092 0.0700515 0.245595 
0.135916 0.0677302 0.217287 0.145003 0.0652975 0.188428 0.15309 0.0629037 0.159079 
0.15992 0.0606584 0.129348 0.165264 0.0586229 0.0993965 0.168945 0.0568064 0.0694242 
0.170851 0.0551709 0.0396593 0.170949 0.0536405 0.0103377 0.16928 0.0521157 -0.0183194 
0.165965 0.0504906 -0.0461258 0.161183 0.0486694 -0.0729486 0.155163 0.046582 -0.0987196 
0.14816 0.044195 -0.123439 0.140435 0.0415176 -0.147173 0.132235 0.0386018 -0.170039 
0.123776 0.0355368 -0.192187 0.11523 0.0324382 -0.213779 0.106717 0.0294349 -0.234968 
0.0983054 0.0266535 -0.255873 0.0900104 0.0242046 -0.276564 0.081807 0.0221707 -0.297059 
0.0736385 0.0205991 -0.31732 0.0654302 0.019499 -0.337266 0.0571032 0.0188442 -0.356784 
0.0485867 0.0185798 -0.375754 0.0398287 0.0186329 -0.39407 0.030803 0.0189247 -0.411659 
0.0215142 0.0193819 -0.428499 0.0119976 0.0199476 -0.444624 0.0023173 0.020588 -0.460126 
-0.00743894 0.0212953 -0.475148 -0.0171662 0.0220865 -0.489859 -0.02675 0.0229975 -0.504442 
-0.0360745 0.0240754 -0.519061 -0.0450295 0.0253677 -0.533839 -0.053517 0.0269123 -0.548841 
-0.061456 0.0287288 -0.564057 -0.068786 0.0308122 -0.579405 -0.0754685 0.0331305 -0.594732 
-0.081488 0.0356267 -0.60983 -0.0868499 0.0382232 -0.624464 -0.0915795 0.040831 -0.638392 
-0.0957183 0.0433584 -0.651396 -0.0993206 0.0457222 -0.663308 -0.10245 0.0478558 -0.674025 
-0.105174 0.0497162 -0.683521 -0.107562 0.0512869 -0.691845 -0.109679 0.052578 -0.699114 
-0.111584 0.0536219 -0.705492 -0.113328 0.0544669 -0.711167 -0.114946 0.055169 -0.716325 
-0.116464 0.0557827 -0.721127 -0.117893 0.0563538 -0.725683 -0.119231 0.0569128 -0.730046 
-0.120464 0.0574723 -0.734202 -0.121572 0.0580268 -0.738079 -0.122528 0.0585557 -0.741559 
-0.123303 0.059029 -0.744499 -0.12387 0.0594132 -0.746753 -0.124207 0.0596791 -0.748197 
-0.124299 0.059807 -0.748746 
LINES 2 100
OFFSETS vtktypeint64
0 100 
CONNECTIVITY vtktypeint64
0 1 2 3 4 5 6 7 8 
9 10 11 12 13 14 15 16 17 
18 19 20 21 22 23 24 25 26 
27 28 29 30 31 32 33 34 35 
36 37 38 39 40 41 42 43 44 
45 46 47 48 49 50 51 52 53 
54 55 56 57 58 59 60 61 62 
63 64 65 66 67 68 69 70 71 
72 73 74 75 76 77 78 79 80 
81 82 83 84 85 86 87 88 89 
90 91 92 93 94 95 96 97 98 
99 
POINT_DATA 100
FIELD FieldData 3
_theta 1 100 double
0 0.031733259127 0.063466518254 0.095199777382 0.12693303651 0.15866629564 0.19039955476 0.22213281389 0.25386607302 
0.28559933214 0.31733259127 0.3490658504 0.38079910953 0.41253236865 0.44426562778 0.47599888691 0.50773214603 0.53946540516 
0.57119866429 0.60293192342 0.63466518254 0.66639844167 0.6981317008 0.72986495992 0.76159821905 0.79333147818 0.82506473731 
0.85679799643 0.88853125556 0.92026451469 0.95199777382 0.98373103294 1.0154642921 1.0471975512 1.0789308103 1.1106640695 
1.1423973286 1.1741305877 1.2058638468 1.237597106 1.2693303651 1.3010636242 1.3327968833 1.3645301425 1.3962634016 
1.4279966607 1.4597299198 1.491463179 1.5231964381 1.5549296972 1.5866629564 1.6183962155 1.6501294746 1.6818627337 
1.7135959929 1.745329252 1.7770625111 1.8087957702 1.8405290294 1.8722622885 1.9039955476 1.9357288068 1.9674620659 
1.999195325 2.0309285841 2.0626618433 2.0943951024 2.1261283615 2.1578616206 2.1895948798 2.2213281389 2.253061398 
2.2847946572 2.3165279163 2.3482611754 2.3799944345 2.4117276937 2.4434609528 2.4751942119 2.506927471 2.5386607302 
2.5703939893 2.6021272484 2.6338605076 2.6655937667 2.6973270258 2.7290602849 2.7607935441 2.7925268032 2.8242600623 
2.8559933214 2.8877265806 2.9194598397 2.9511930988 2.982926358 3.0146596171 3.0463928762 3.0781261353 3.1098593945 
3.1415926536 
_radius 1 100 double
5.7236411797e-16 0.017511787437 0.034818918972 0.051722047276 0.068036972652 0.083601623657 0.098281660127 0.11197360721 0.12460464991 
0.13612891822 0.14652100933 0.15576826019 0.16386363371 0.17080095076 0.1765736944 0.18117790677 0.18461892673 0.18692094332 
0.1881376204 0.18836149548 0.18772966369 0.18642361287 0.18466202171 0.18268668531 0.18074311263 0.17905834667 0.17781896643 
0.17715209722 0.1771118407 0.17767308931 0.17873424208 0.18012965628 0.1816514542 0.18307851295 0.18420851369 0.18488773575 
0.18503400646 0.18465083964 0.1838324964 0.18275805142 0.1816710526 0.1808453018 0.18054521325 0.18099332918 0.18235221755 
0.18471795637 0.18811770808 0.19250701564 0.19776821025 0.20371450824 0.2101034022 0.21665938158 0.22310254339 0.22917793668 
0.23468057523 0.23947226236 0.24348810847 0.24673250677 0.24926606272 0.25118631024 0.25260584119 0.25363163393 0.25434885568 
0.25481130308 0.2550391689 0.25502335285 0.25473446819 0.25413428041 0.25318751243 0.25187244698 0.25018914635 0.24816420848 
0.24585097971 0.24332439317 0.24067024331 0.23796963485 0.23528038865 0.23261819813 0.22994108894 0.22714089517 0.22404471034 
0.2204275615 0.21603526597 0.2106142258 0.2039434424 0.19586363488 0.18629895868 0.17526813493 0.16288348127 0.1493381439 
0.13488357212 0.11980071399 0.1043692564 0.088839267278 0.073408821851 0.058209877084 0.043303201213 0.028681910095 0.014282277532 
1.1120608729e-15 
_area 1 100 double
0 0.00071879441017 0.0028562450165 0.0063498913692 0.011081016638 0.016865346692 0.023457059248 0.030568177519 0.03789700118 
0.045156170472 0.052093440692 0.05850283481 0.064227281279 0.069155070386 0.073212469683 0.076355102609 0.078561603535 0.079833395472 
0.080202423176 0.079744533139 0.078592623427 0.076941309308 0.075031820773 0.073114313854 0.071411727136 0.070103500413 0.069317163205 
0.069119156265 0.069509305684 0.070423577904 0.071743447035 0.073307414707 0.074924787957 0.076397873453 0.077557806619 0.078310613142 
0.078690457321 0.078964098833 0.079700348342 0.081189134975 0.083231688643 0.085579467575 0.088127940082 0.090972594561 0.094693080899 
0.099178517169 0.10407317649 0.10939746742 0.11521424203 0.1215621121 0.12841484727 0.13563251006 0.14294582823 0.15000904847 
0.15649393392 0.16216879931 0.16693425212 0.17081762409 0.17393944999 0.17644578198 0.17841302706 0.17979930631 0.18051970239 
0.18052435196 0.17979377206 0.17842130043 0.17664106638 0.17477061492 0.17257539778 0.16997994154 0.16699638358 0.16363547496 
0.15991649272 0.15588398746 0.1516192115 0.14723584866 0.14285456643 0.13856027273 0.13435788385 0.1301484352 0.12573844299 
0.12087767465 0.11531090886 0.10883167259 0.10132958402 0.09282241888 0.083463924339 0.073523151487 0.063339858285 0.053269397193 
0.04363419424 0.034693767835 0.026634893993 0.019576539494 0.013583218725 0.0086817178934 0.0048771593458 0.0021654784083 0.00054104572154 
4.1687363412e-17 
