# vtk DataFile Version 5.1
vtk output
ASCII
DATASET POLYDATA
POINTS 100 float
-0.113944 -0.039985 0.716141 -0.114204 -0.0400715 0.71654 -0.114991 -0.0401444 0.717654 
-0.11621 -0.0401879 0.719304 -0.117716 -0.0401753 0.721207 -0.119325 -0.0400678 0.723016 
-0.120831 -0.0398145 0.724358 -0.122025 -0.039352 0.724871 -0.122713 -0.0386063 0.724247 
-0.122731 -0.0374955 0.72226 -0.121959 -0.0359339 0.718789 -0.120321 -0.0338385 0.713822 
-0.117792 -0.0311356 0.707451 -0.114389 -0.0277681 0.699852 -0.110165 -0.0237029 0.691254 
-0.105199 -0.0189364 0.681909 -0.0995832 -0.0134988 0.672053 -0.0934106 -0.00745577 0.661876 
-0.0867682 -0.000906691 0.651498 -0.07973 0.00601936 0.640956 -0.0723543 0.0131707 0.630204 
-0.0646839 0.0203819 0.619122 -0.0567492 0.0274844 0.607539 -0.0485726 0.0343167 0.595257 
-0.0401738 0.0407341 0.582086 -0.0315733 0.0466169 0.567868 -0.022796 0.0518761 0.552504 
-0.0138707 0.0564554 0.535964 -0.00482936 0.0603316 0.518296 0.00429676 0.063511 0.499613 
0.0134812 0.0660241 0.480081 0.0227066 0.0679188 0.459888 0.0319673 0.0692529 0.439223 
0.0412704 0.0700873 0.418242 0.0506328 0.0704796 0.397043 0.0600765 0.0704804 0.375656 
0.06962 0.0701305 0.354031 0.0792679 0.0694616 0.332044 0.0890007 0.0684972 0.309513 
0.0987648 0.0672556 0.286225 0.108465 0.065754 0.26196 0.117963 0.0640114 0.236531 
0.127075 0.0620516 0.209807 0.135586 0.0599051 0.181743 0.143255 0.0576089 0.152389 
0.149837 0.0552058 0.121901 0.155099 0.0527419 0.0905273 0.15884 0.0502637 0.0585954 
0.160912 0.0478147 0.0264825 0.161227 0.0454328 -0.00541453 0.159775 0.0431481 -0.0367125 
0.156617 0.0409825 -0.0670728 0.151885 0.0389498 -0.0962261 0.145767 0.0370581 -0.123989 
0.138492 0.0353122 -0.150273 0.130309 0.0337165 -0.175076 0.121466 0.0322786 -0.198477 
0.112188 0.0310109 -0.220613 0.102663 0.0299319 -0.241656 0.0930284 0.0290654 -0.26179 
0.0833705 0.0284385 -0.281188 0.0737232 0.0280779 -0.299996 0.0640776 0.0280054 -0.318321 
0.0543955 0.0282332 -0.336224 0.0446245 0.0287598 -0.353732 0.0347146 0.0295667 -0.370836 
0.0246329 0.030617 -0.387513 0.0143751 0.0318566 -0.403736 0.00397106 0.0332173 -0.419488 
-0.00651414 0.0346218 -0.434775 -0.0169851 0.035991 -0.44963 -0.0273256 0.0372506 -0.464115 
-0.0374109 0.0383396 -0.478314 -0.0471213 0.0392154 -0.492325 -0.0563553 0.0398589 -0.506248 
-0.0650394 0.0402757 -0.520165 -0.0731345 0.0404951 -0.534134 -0.0806372 0.040566 -0.54817 
-0.0875766 0.0405507 -0.56224 -0.0940062 0.0405171 -0.576265 -0.0999936 0.0405295 -0.590117 
-0.105608 0.0406412 -0.603632 -0.110911 0.0408874 -0.616621 -0.115941 0.0412813 -0.628885 
-0.120716 0.0418125 -0.640236 -0.125224 0.0424487 -0.650506 -0.129433 0.0431408 -0.659567 
-0.13329 0.043829 -0.667338 -0.13674 0.0444519 -0.673791 -0.139728 0.044954 -0.678955 
-0.142216 0.0452941 -0.682906 -0.144188 0.0454506 -0.685767 -0.145658 0.0454244 -0.687694 
-0.14667 0.045239 -0.688866 -0.147291 0.0449377 -0.689467 -0.14761 0.0445773 -0.68968 
-0.147723 0.0442208 -0.68967 -0.14772 0.043929 -0.689577 -0.147678 0.043752 -0.689506 
-0.147646 0.0437228 -0.689521 
LINES 2 100
OFFSETS vtktypeint64
0 100 
CONNECTIVITY vtktypeint64
0 1 2 3 4 5 6 7 8 
9 10 11 12 13 14 15 16 17 
18 19 20 21 22 23 24 25 26 
27 28 29 30 31 32 33 34 35 
36 37 38 39 40 41 42 43 44 
45 46 47 48 49 50 51 52 53 
54 55 56 57 58 59 60 61 62 
63 64 65 66 67 68 69 70 71 
72 73 74 75 76 77 78 79 80 
81 82 83 84 85 86 87 88 89 
90 91 92 93 94 95 96 97 98 
99 
POINT_DATA 100
FIELD FieldData 3
_theta 1 100 double
0 0.031733259127 0.063466518254 0.095199777382 0.12693303651 0.15866629564 0.19039955476 0.22213281389 0.25386607302 
0.28559933214 0.31733259127 0.3490658504 0.38079910953 0.41253236865 0.44426562778 0.47599888691 0.50773214603 0.53946540516 
0.57119866429 0.60293192342 0.63466518254 0.66639844167 0.6981317008 0.72986495992 0.76159821905 0.79333147818 0.82506473731 
0.85679799643 0.88853125556 0.92026451469 0.95199777382 0.98373103294 1.0154642921 1.0471975512 1.0789308103 1.1106640695 
1.1423973286 1.1741305877 1.2058638468 1.237597106 1.2693303651 1.3010636242 1.3327968833 1.3645301425 1.3962634016 
1.4279966607 1.4597299198 1.491463179 1.5231964381 1.5549296972 1.5866629564 1.6183962155 1.6501294746 1.6818627337 
1.7135959929 1.745329252 1.7770625111 1.8087957702 1.8405290294 1.8722622885 1.9039955476 1.9357288068 1.9674620659 
1.999195325 2.0309285841 2.0626618433 2.0943951024 2.1261283615 2.1578616206 2.1895948798 2.2213281389 2.253061398 
2.2847946572 2.3165279163 2.3482611754 2.3799944345 2.4117276937 2.4434609528 2.4751942119 2.506927471 2.5386607302 
2.5703939893 2.6021272484 2.6338605076 2.6655937667 2.6973270258 2.7290602849 2.7607935441 2.7925268032 2.8242600623 
2.8559933214 2.8877265806 2.9194598397 2.9511930988 2.982926358 3.0146596171 3.0463928762 3.0781261353 3.1098593945 
3.1415926536 
_radius 1 100 double
6.6804649267e-16 0.015032952545 0.029950941922 0.044631390987 0.058949516077 0.072780537035 0.086003900646 0.098508549014 0.11019804042 
0.12099458204 0.13084151058 0.139704174 0.14756937123 0.15444353152 0.160349816 0.16532444704 0.169412831 0.17266629489 
0.17514027478 0.17689440404 0.17799421084 0.17851337857 0.17853517824 0.17815198393 0.17746257997 0.17656781086 0.17556555746 
0.17454590056 0.17358687277 0.17275067143 0.17207954578 0.17158961694 0.17126110612 0.17102894401 0.17078538416 0.17039981202 
0.16974571028 0.16872380926 0.16727796994 0.16540369823 0.16314951276 0.16061171648 0.15792408937 0.1552453137 0.15274739573 
0.15060673616 0.14899685743 0.14808076961 0.14800193539 0.14887369514 0.15076715138 0.15369844843 0.15761859231 0.16241017498 
0.16789347968 0.1738406502 0.17999411533 0.18608572898 0.19185484841 0.19706494768 0.20151861171 0.20507026609 0.20763548768 
0.20919567135 0.20979725139 0.20954537473 0.20859261632 0.20712380946 0.20533825797 0.20343058162 0.20157143967 0.19988964948 
0.19845788649 0.19728490263 0.19631706536 0.19544991306 0.19454683287 0.19345950284 0.19204526418 0.1901789855 0.18775913984 
0.18470894673 0.18097383537 0.17651658889 0.17131153123 0.16533904053 0.15858145585 0.15102104671 0.14264018056 0.13342330248 
0.1233600241 0.11244862915 0.10069959975 0.08813913982 0.074812824546 0.060789241503 0.046162909052 0.031055265975 0.015612547411 
6.7762778886e-16 
_area 1 100 double
0 0.00052297817372 0.0020955489761 0.0047222787169 0.0083917898139 0.013055468616 0.018609721145 0.024888177219 0.031666384841 
0.038677778393 0.045637489538 0.052269792759 0.058334862864 0.063650630902 0.068106041512 0.071663298517 0.074348655395 0.076233349233 
0.077408153325 0.077957920648 0.077946171671 0.077417517236 0.076414581455 0.074998830981 0.073268645925 0.071382244603 0.0696411486 
0.068272716261 0.067247759835 0.06656584924 0.0662286778 0.066216135093 0.066476390599 0.066922080475 0.067401844817 0.067729444837 
0.067737184548 0.067315353928 0.066433030796 0.06513897205 0.063548994608 0.061831757232 0.060229037222 0.059002325898 0.05833388975 
0.05821480175 0.058532541274 0.05920730489 0.060232651661 0.061683034051 0.06370374089 0.066470714842 0.070112911693 0.074630143 
0.079870330641 0.08557342091 0.091430773893 0.097133691119 0.10241402345 0.10706801025 0.11087540202 0.11357295124 0.11499971432 
0.11512134886 0.11399949713 0.11176679724 0.10860891311 0.10475383284 0.10046947063 0.096064952847 0.091854537794 0.088019913566 
0.084588957879 0.081571665104 0.078978783775 0.076802349608 0.075022096094 0.07361262898 0.072523937814 0.071649937555 0.070823873459 
0.069844748052 0.06851095812 0.066648579804 0.064131220772 0.06088936786 0.056910595908 0.052236181592 0.04695873036 0.041219977992 
0.0352042271 0.029124141431 0.023199940964 0.017637725015 0.012615109133 0.0082793029608 0.0047541168304 0.0021459374484 0.00054169622364 
3.3988042163e-17 
