# vtk DataFile Version 5.1
vtk output
ASCII
DATASET POLYDATA
POINTS 100 float
-0.0443547 -0.0445756 0.774864 -0.0447648 -0.0444764 0.774769 -0.0459375 -0.0440077 0.774373 
-0.0477001 -0.0431514 0.773627 -0.0497866 -0.0418802 0.772455 -0.051868 -0.0401606 0.77076 
-0.0535891 -0.0379561 0.768429 -0.0546079 -0.0352319 0.765345 -0.0546322 -0.0319592 0.761393 
-0.0534492 -0.0281197 0.756473 -0.050945 -0.0237088 0.750503 -0.0471116 -0.0187386 0.743427 
-0.042041 -0.0132395 0.735224 -0.0359079 -0.00726043 0.725902 -0.0289435 -0.000868073 0.715499 
-0.0214035 0.00585552 0.704082 -0.0135359 0.012816 0.691732 -0.00555121 0.0199107 0.678544 
0.00239933 0.0270329 0.664608 0.0102371 0.0340764 0.650005 0.0179579 0.0409394 0.634795 
0.0256232 0.0475285 0.61901 0.0333426 0.0537606 0.60265 0.0412499 0.0595654 0.585683 
0.0494766 0.0648853 0.568049 0.0581264 0.0696758 0.549665 0.0672546 0.0739038 0.530439 
0.0768543 0.0775459 0.510278 0.086852 0.0805866 0.489102 0.0971126 0.0830161 0.466859 
0.107452 0.0848283 0.443528 0.117657 0.0860196 0.419131 0.127506 0.0865887 0.393735 
0.136796 0.0865361 0.367443 0.145357 0.0858652 0.340395 0.153068 0.0845841 0.312754 
0.159866 0.0827073 0.284692 0.165738 0.0802577 0.256379 0.170717 0.0772687 0.227968 
0.174867 0.073786 0.199585 0.178261 0.0698678 0.171321 0.180966 0.0655853 0.143229 
0.183026 0.0610215 0.11533 0.184449 0.056269 0.087612 0.185206 0.051427 0.0600463 
0.185231 0.0465976 0.0325963 0.184434 0.0418814 0.00523124 0.18271 0.0373734 -0.0220632 
0.179966 0.0331583 -0.0492753 0.176133 0.0293077 -0.0763632 0.171185 0.0258764 -0.103254 
0.165151 0.0229017 -0.129849 0.158118 0.0204022 -0.156032 0.15023 0.0183795 -0.18168 
0.141676 0.0168193 -0.206676 0.132677 0.0156952 -0.230925 0.123464 0.014972 -0.254359 
0.114255 0.0146097 -0.276947 0.105238 0.0145673 -0.298699 0.0965549 0.0148069 -0.31966 
0.0882904 0.0152959 -0.339906 0.0804698 0.016009 -0.359531 0.0730638 0.0169291 -0.378637 
0.066 0.0180466 -0.397316 0.0591786 0.019358 -0.415643 0.0524913 0.0208636 -0.433663 
0.0458389 0.0225644 -0.45139 0.0391482 0.0244593 -0.468804 0.0323824 0.0265415 -0.485858 
0.0255465 0.0287967 -0.502486 0.0186867 0.0312009 -0.518618 0.0118826 0.0337201 -0.534189 
0.00523643 0.0363105 -0.549154 -0.0011418 0.0389205 -0.563498 -0.00714881 0.0414932 -0.577238 
-0.0127011 0.0439702 -0.590427 -0.0177442 0.0462951 -0.603141 -0.0222577 0.0484182 -0.615479 
-0.0262542 0.0502998 -0.627538 -0.0297735 0.0519135 -0.639404 -0.0328738 0.0532484 -0.651133 
-0.0356195 0.0543097 -0.662738 -0.0380697 0.0551181 -0.674185 -0.040268 0.0557082 -0.685386 
-0.042236 0.056125 -0.696206 -0.0439709 0.0564204 -0.706477 -0.0454481 0.0566479 -0.71601 
-0.0466281 0.0568586 -0.724619 -0.0474668 0.0570963 -0.732143 -0.047927 0.0573941 -0.738463 
-0.04799 0.0577715 -0.743524 -0.0476643 0.0582334 -0.747336 -0.0469914 0.0587702 -0.749984 
-0.0460461 0.0593595 -0.751619 -0.0449313 0.0599688 -0.752439 -0.0437695 0.0605592 -0.752679 
-0.0426895 0.0610905 -0.752575 -0.0418122 0.0615248 -0.752346 -0.0412362 0.0618313 -0.752168 
-0.041026 0.0619895 -0.752152 
LINES 2 100
OFFSETS vtktypeint64
0 100 
CONNECTIVITY vtktypeint64
0 1 2 3 4 5 6 7 8 
9 10 11 12 13 14 15 16 17 
18 19 20 21 22 23 24 25 26 
27 28 29 30 31 32 33 34 35 
36 37 38 39 40 41 42 43 44 
45 46 47 48 49 50 51 52 53 
54 55 56 57 58 59 60 61 62 
63 64 65 66 67 68 69 70 71 
72 73 74 75 76 77 78 79 80 
81 82 83 84 85 86 87 88 89 
90 91 92 93 94 95 96 97 98 
99 
POINT_DATA 100
FIELD FieldData 3
_theta 1 100 double
0 0.031733259127 0.063466518254 0.095199777382 0.12693303651 0.15866629564 0.19039955476 0.22213281389 0.25386607302 
0.28559933214 0.31733259127 0.3490658504 0.38079910953 0.41253236865 0.44426562778 0.47599888691 0.50773214603 0.53946540516 
0.57119866429 0.60293192342 0.63466518254 0.66639844167 0.6981317008 0.72986495992 0.76159821905 0.79333147818 0.82506473731 
0.85679799643 0.88853125556 0.92026451469 0.95199777382 0.98373103294 1.0154642921 1.0471975512 1.0789308103 1.1106640695 
1.1423973286 1.1741305877 1.2058638468 1.237597106 1.2693303651 1.3010636242 1.3327968833 1.3645301425 1.3962634016 
1.4279966607 1.4597299198 1.491463179 1.5231964381 1.5549296972 1.5866629564 1.6183962155 1.6501294746 1.6818627337 
1.7135959929 1.745329252 1.7770625111 1.8087957702 1.8405290294 1.8722622885 1.9039955476 1.9357288068 1.9674620659 
1.999195325 2.0309285841 2.0626618433 2.0943951024 2.1261283615 2.1578616206 2.1895948798 2.2213281389 2.253061398 
2.2847946572 2.3165279163 2.3482611754 2.3799944345 2.4117276937 2.4434609528 2.4751942119 2.506927471 2.5386607302 
2.5703939893 2.6021272484 2.6338605076 2.6655937667 2.6973270258 2.7290602849 2.7607935441 2.7925268032 2.8242600623 
2.8559933214 2.8877265806 2.9194598397 2.9511930988 2.982926358 3.0146596171 3.0463928762 3.0781261353 3.1098593945 
3.1415926536 
_radius 1 100 double
8.9112797303e-16 0.015630889839 0.031174500139 0.046527560683 0.061570268356 0.076163797058 0.090152903977 0.10337351196 0.1156642624 
0.12688034528 0.13690750754 0.14567409745 0.15315932463 0.15939650223 0.16447074113 0.16851126051 0.1716790706 0.174151203 
0.17610290503 0.17768939811 0.17902912031 0.18019086916 0.18118760415 0.18197928147 0.18248562105 0.18260742472 0.18225280548 
0.18136332238 0.17993494772 0.17802984509 0.17577658887 0.17335826432 0.17098990908 0.16888959082 0.16725074811 0.16622390265 
0.16591019811 0.16636164766 0.16758146607 0.16952247313 0.17208574842 0.17512216425 0.17843892146 0.18181507701 0.18503064692 
0.18790700904 0.19034667239 0.19235860818 0.19406156952 0.19566503574 0.19743210706 0.19963166651 0.2024893293 0.20614735268 
0.21064137966 0.21589674849 0.22174160191 0.22793109051 0.23417720863 0.24018045499 0.24566066342 0.2503845294 0.25418719778 
0.25698546955 0.25878096571 0.25965280201 0.25974070642 0.25922081286 0.25827741055 0.2570745682 0.25573165828 0.25430630859 
0.25278722635 0.25109781924 0.24910983146 0.24666464257 0.24359873522 0.2397693109 0.23507615849 0.22947657871 0.22299128186 
0.2157005209 0.20773110942 0.19923623193 0.19037094394 0.1812668766 0.17200984021 0.16262372767 0.15306335948 0.14321774409 
0.13292377587 0.12198885028 0.11021948021 0.097451998875 0.083581021414 0.068581589061 0.052521780838 0.035563891976 0.01795383525 
9.4876937761e-16 
_area 1 100 double
0 0.00061800084488 0.0024497713759 0.0054337927868 0.0094816685277 0.014488871049 0.020333590499 0.026861659945 0.033867765694 
0.041086854369 0.048204081288 0.054884455162 0.060817099559 0.065763460356 0.069595704557 0.072313492574 0.07403428676 0.07496132563 
0.07534015736 0.075417094767 0.075417197033 0.075782766348 0.077322534177 0.079306953954 0.081312707377 0.083007759466 0.084132438842 
0.084520468057 0.084112617755 0.082957808304 0.081201960985 0.079063687179 0.076790602469 0.074604468819 0.072679083067 0.071188253926 
0.070418879542 0.070714647513 0.072159860581 0.074954215885 0.079344490959 0.085014871457 0.091377063633 0.097910796469 0.1040705889 
0.10928661924 0.11321055813 0.11573269713 0.11700370026 0.11742940673 0.1176162455 0.11826160056 0.12002364827 0.12337403985 
0.12847354687 0.13515162414 0.14299066968 0.15144415313 0.15993093 0.16789727934 0.17486078031 0.18044571922 0.1844102105 
0.18666071812 0.18725011989 0.18635776979 0.18425295603 0.18124876265 0.17765880514 0.17376415614 0.16978713282 0.16586923015 
0.16205752973 0.15830528523 0.15448857428 0.15043637738 0.14596804271 0.14093040595 0.13522724697 0.12883602363 0.12181000569 
0.11426702531 0.10636828537 0.098291639018 0.090203813556 0.082236030515 0.074467571157 0.066921130672 0.059571415373 0.052364995122 
0.045246838933 0.038188397295 0.031212739343 0.024412693504 0.017957951433 0.012087606788 0.0070865795316 0.0032479552225 0.00082751270747 
3.2863073218e-17 
