# vtk DataFile Version 5.1
vtk output
ASCII
DATASET POLYDATA
POINTS 100 float
-0.0625896 0.0212163 0.702086 -0.0621947 0.021155 0.701497 -0.0610487 0.0210942 0.699861 
-0.059218 0.0210613 0.697192 -0.0568035 0.0210979 0.693513 -0.0539262 0.021256 0.688851 
-0.0507096 0.0215922 0.68324 -0.0472631 0.0221619 0.676711 -0.0436668 0.0230138 0.669297 
-0.039961 0.0241844 0.661026 -0.036142 0.0256942 0.65192 -0.032165 0.0275461 0.641992 
-0.0279525 0.0297241 0.631246 -0.0234094 0.0321951 0.619679 -0.0184398 0.0349119 0.607278 
-0.0129653 0.0378161 0.594024 -0.0069412 0.0408437 0.579896 -0.000367646 0.0439288 0.564873 
0.00670496 0.0470081 0.548943 0.014178 0.0500238 0.532099 0.0219141 0.0529255 0.514352 
0.0297517 0.0556706 0.495728 0.0375249 0.0582236 0.476272 0.0450836 0.0605543 0.456049 
0.0523122 0.062635 0.435137 0.0591443 0.0644379 0.413629 0.0655706 0.0659327 0.391624 
0.0716389 0.0670848 0.369223 0.0774452 0.0678554 0.346518 0.0831185 0.0682019 0.323593 
0.0887992 0.0680811 0.300509 0.0946147 0.0674526 0.277308 0.100655 0.0662836 0.254011 
0.106955 0.0645543 0.230614 0.113475 0.062263 0.207098 0.120102 0.0594299 0.183433 
0.126646 0.0561002 0.159583 0.13286 0.0523447 0.13552 0.138459 0.048259 0.111228 
0.143145 0.043959 0.0867113 0.146636 0.0395763 0.0620025 0.148701 0.03525 0.0371623 
0.149176 0.0311191 0.0122807 0.147985 0.027313 -0.0125272 0.145149 0.0239442 -0.0371267 
0.140783 0.0211007 -0.061373 0.135084 0.0188414 -0.0851204 0.128312 0.0171931 -0.108233 
0.120763 0.0161506 -0.130595 0.112743 0.0156792 -0.152118 0.104541 0.0157197 -0.172746 
0.0964013 0.0161946 -0.192459 0.0885094 0.0170158 -0.211272 0.0809802 0.018093 -0.229232 
0.0738579 0.0193406 -0.246409 0.0671218 0.0206844 -0.262893 0.060701 0.0220657 -0.278781 
0.0544919 0.023444 -0.294171 0.0483788 0.0247972 -0.309151 0.0422539 0.0261193 -0.323798 
0.0360338 0.0274175 -0.338171 0.0296713 0.0287068 -0.352311 0.023161 0.0300052 -0.366241 
0.0165393 0.0313286 -0.379968 0.00987784 0.0326866 -0.393491 0.00327284 0.0340797 -0.406798 
-0.00316785 0.0354981 -0.419878 -0.00933866 0.0369219 -0.432718 -0.0151488 0.0383235 -0.44531 
-0.0205318 0.0396708 -0.457647 -0.025451 0.0409312 -0.469726 -0.0299011 0.0420757 -0.481544 
-0.0339045 0.0430831 -0.493098 -0.0375059 0.0439426 -0.50438 -0.0407629 0.0446552 -0.515377 
-0.0437377 0.0452337 -0.526068 -0.0464881 0.0457014 -0.536428 -0.0490613 0.0460885 -0.546425 
-0.0514903 0.0464287 -0.556027 -0.0537926 0.0467542 -0.565201 -0.0559728 0.0470919 -0.573922 
-0.0580264 0.0474593 -0.582173 -0.0599452 0.0478623 -0.589948 -0.0617228 0.0482943 -0.597255 
-0.0633592 0.0487368 -0.604113 -0.064863 0.049162 -0.610552 -0.0662527 0.0495363 -0.616609 
-0.0675538 0.0498253 -0.622319 -0.0687961 0.0499981 -0.627716 -0.0700076 0.0500327 -0.632823 
-0.0712099 0.0499191 -0.637647 -0.072413 0.049662 -0.642181 -0.0736124 0.0492815 -0.646396 
-0.0747877 0.0488114 -0.650247 -0.0759043 0.0482969 -0.653678 -0.0769173 0.0477897 -0.656622 
-0.0777764 0.0473427 -0.65901 -0.0784331 0.047005 -0.660781 -0.0788469 0.0468157 -0.661883 
-0.078991 0.0468005 -0.662283 
LINES 2 100
OFFSETS vtktypeint64
0 100 
CONNECTIVITY vtktypeint64
0 1 2 3 4 5 6 7 8 
9 10 11 12 13 14 15 16 17 
18 19 20 21 22 23 24 25 26 
27 28 29 30 31 32 33 34 35 
36 37 38 39 40 41 42 43 44 
45 46 47 48 49 50 51 52 53 
54 55 56 57 58 59 60 61 62 
63 64 65 66 67 68 69 70 71 
72 73 74 75 76 77 78 79 80 
81 82 83 84 85 86 87 88 89 
90 91 92 93 94 95 96 97 98 
99 
POINT_DATA 100
FIELD FieldData 3
_theta 1 100 double
0 0.031733259127 0.063466518254 0.095199777382 0.12693303651 0.15866629564 0.19039955476 0.22213281389 0.25386607302 
0.28559933214 0.31733259127 0.3490658504 0.38079910953 0.41253236865 0.44426562778 0.47599888691 0.50773214603 0.53946540516 
0.57119866429 0.60293192342 0.63466518254 0.66639844167 0.6981317008 0.72986495992 0.76159821905 0.79333147818 0.82506473731 
0.85679799643 0.88853125556 0.92026451469 0.95199777382 0.98373103294 1.0154642921 1.0471975512 1.0789308103 1.1106640695 
1.1423973286 1.1741305877 1.2058638468 1.237597106 1.2693303651 1.3010636242 1.3327968833 1.3645301425 1.3962634016 
1.4279966607 1.4597299198 1.491463179 1.5231964381 1.5549296972 1.5866629564 1.6183962155 1.6501294746 1.6818627337 
1.7135959929 1.745329252 1.7770625111 1.8087957702 1.8405290294 1.8722622885 1.9039955476 1.9357288068 1.9674620659 
1.999195325 2.0309285841 2.0626618433 2.0943951024 2.1261283615 2.1578616206 2.1895948798 2.2213281389 2.253061398 
2.2847946572 2.3165279163 2.3482611754 2.3799944345 2.4117276937 2.4434609528 2.4751942119 2.506927471 2.5386607302 
2.5703939893 2.6021272484 2.6338605076 2.6655937667 2.6973270258 2.7290602849 2.7607935441 2.7925268032 2.8242600623 
2.8559933214 2.8877265806 2.9194598397 2.9511930988 2.982926358 3.0146596171 3.0463928762 3.0781261353 3.1098593945 
3.1415926536 
_radius 1 100 double
3.4066011832e-16 0.012202051666 0.024310442278 0.036239455357 0.047912868869 0.059263920697 0.070231324698 0.080752293285 0.090754788967 
0.10015200334 0.10884193442 0.11671371336 0.12366030725 0.12959514543 0.13446888817 0.13828237794 0.14109269694 0.14301084268 
0.14419141811 0.14481648177 0.14507684581 0.14515424326 0.14520685559 0.14535917902 0.14569592572 0.14625920482 0.14704859685 
0.14802444024 0.14911511259 0.15022887388 0.15126981706 0.1521560173 0.15283677769 0.15330544636 0.15360472408 0.15382260265 
0.15407903634 0.15450602952 0.15522637884 0.15633736964 0.15790374203 0.15995956653 0.1625144508 0.1655589112 0.16906660709 
0.17299450477 0.1772834011 0.18186043412 0.18664372393 0.19154832119 0.19649226539 0.20140147321 0.20621241966 0.21087224704 
0.21533684155 0.21956816043 0.22353234962 0.2271998048 0.23054738176 0.23356181865 0.23624262862 0.23860267616 0.24066541233 
0.2424589555 0.24400833471 0.24532783091 0.24641527224 0.24724944846 0.24779081727 0.2479847941 0.24776647299 0.24706570091 
0.24581184737 0.24393808601 0.24138529617 0.23810571084 0.23406624215 0.22925114665 0.22366350371 0.21732498121 0.21027359371 
0.20255957433 0.19423996509 0.18537291542 0.17601281077 0.16620715262 0.15599562334 0.14541116071 0.13448235526 0.1232362379 
0.11170059467 0.099905256452 0.087882217546 0.075664795215 0.063286261133 0.050778435018 0.038170655698 0.025489380794 0.012758465854 
2.4000834562e-16 
_area 1 100 double
0 0.00040006594762 0.001587451144 0.0035235871409 0.0061443394199 0.0093617922729 0.013068349195 0.017142013531 0.021449993439 
0.025848401044 0.030179552952 0.034272752664 0.037955044662 0.041073576448 0.043524200353 0.045276354421 0.046383586456 0.046971911452 
0.0472068558 0.047255376269 0.047264544754 0.047361168621 0.047657153813 0.04824539188 0.049186705315 0.05049859158 0.052146785179 
0.054038676229 0.056028520557 0.057943393037 0.059624620765 0.060973425331 0.061992703855 0.062777789202 0.063525144441 0.064428672934 
0.065630199721 0.067217966615 0.06922460464 0.071620185861 0.074316112878 0.077193646151 0.080151602611 0.083147708822 0.086215357994 
0.089452718327 0.092985012674 0.096907812506 0.10123645718 0.10588808644 0.11070217918 0.11548977354 0.12009839795 0.12449152554 
0.1288022366 0.13315667666 0.13749369806 0.14173263086 0.14572112698 0.14932736574 0.15243152294 0.15496498623 0.1569222531 
0.15834638857 0.15929993945 0.15983241805 0.1599599785 0.15966628587 0.15892053531 0.15769947858 0.15600088538 0.15384282295 
0.15125028463 0.14823488049 0.14477530263 0.14080799022 0.13623673901 0.13096225786 0.12492053008 0.11811295376 0.11061660959 
0.10257353707 0.094165907902 0.085586865275 0.077015428836 0.068600180899 0.06045261158 0.052648562616 0.045235375849 0.038242346758 
0.031692199256 0.02561135646 0.02003693045 0.015018999991 0.010618196958 0.0069001986741 0.0039292317856 0.0017620409381 0.00044292054124 
3.5999827319e-17 
