# vtk DataFile Version 5.1
vtk output
ASCII
DATASET POLYDATA
POINTS 100 float
-0.147642 -0.0640569 0.781746 -0.147647 -0.0641461 0.781666 -0.147691 -0.0642072 0.78144 
-0.147701 -0.0641864 0.780979 -0.147564 -0.0640019 0.780148 -0.14714 -0.0635517 0.778779 
-0.146273 -0.0627239 0.776694 -0.144808 -0.0614075 0.773723 -0.142607 -0.0595036 0.769724 
-0.139559 -0.0569343 0.764601 -0.135592 -0.0536504 0.758311 -0.130676 -0.0496357 0.750868 
-0.124826 -0.0449083 0.742338 -0.118095 -0.0395189 0.732831 -0.110568 -0.0335462 0.722482 
-0.102357 -0.0270905 0.711436 -0.093583 -0.0202656 0.699825 -0.08437 -0.0131908 0.687757 
-0.0748359 -0.00598353 0.675296 -0.0650843 0.0012474 0.66246 -0.0552008 0.00840587 0.649216 
-0.0452511 0.015411 0.635488 -0.0352814 0.0221972 0.621166 -0.0253209 0.0287131 0.606119 
-0.0153851 0.0349183 0.590213 -0.00547882 0.0407801 0.573327 0.00440047 0.0462697 0.555366 
0.0142606 0.0513597 0.536271 0.0241134 0.0560214 0.516024 0.0339742 0.0602251 0.494648 
0.0438613 0.0639399 0.472206 0.0537954 0.0671361 0.448785 0.0637982 0.0697882 0.424493 
0.0738892 0.0718772 0.39944 0.0840813 0.0733944 0.373736 0.0943748 0.0743435 0.347473 
0.104751 0.0747414 0.320728 0.115163 0.0746187 0.29356 0.125534 0.0740178 0.266009 
0.135748 0.0729905 0.238107 0.145651 0.0715941 0.209884 0.155054 0.0698876 0.181374 
0.16374 0.0679272 0.152625 0.171474 0.0657636 0.123701 0.178015 0.0634388 0.0946868 
0.183141 0.0609857 0.0656862 0.186654 0.0584282 0.0368156 0.188406 0.0557829 0.00819914 
0.18831 0.0530622 -0.020041 0.186343 0.0502779 -0.0477928 0.182556 0.0474448 -0.0749621 
0.177068 0.044584 -0.101479 0.170056 0.0417255 -0.127298 0.161742 0.0389092 -0.152403 
0.152376 0.0361845 -0.176798 0.142216 0.0336083 -0.200503 0.131506 0.0312416 -0.22355 
0.120463 0.029145 -0.245971 0.109266 0.0273736 -0.267796 0.0980436 0.0259724 -0.289043 
0.0868763 0.0249713 -0.309722 0.075801 0.024383 -0.32983 0.0648202 0.0242003 -0.34936 
0.0539145 0.0243971 -0.368303 0.0430569 0.0249301 -0.386655 0.0322268 0.0257425 -0.404424 
0.0214208 0.0267687 -0.421634 0.0106604 0.0279403 -0.438326 -5.76379e-06 0.0291913 -0.454559 
-0.0105039 0.0304635 -0.470405 -0.0207421 0.0317106 -0.485942 -0.0306208 0.032901 -0.501246 
-0.0400441 0.0340187 -0.516377 -0.048932 0.0350624 -0.531374 -0.0572301 0.036043 -0.546245 
-0.0649165 0.0369802 -0.56096 -0.0720034 0.0378976 -0.575457 -0.0785352 0.0388179 -0.589636 
-0.0845812 0.0397585 -0.603375 -0.0902252 0.0407275 -0.616534 -0.0955535 0.0417215 -0.628973 
-0.100642 0.0427242 -0.640562 -0.105546 0.0437078 -0.651195 -0.11029 0.0446344 -0.660798 
-0.114869 0.0454604 -0.669338 -0.119244 0.0461406 -0.676822 -0.123353 0.0466333 -0.683296 
-0.127119 0.0469054 -0.68884 -0.13046 0.0469364 -0.693556 -0.133308 0.046722 -0.697556 
-0.135614 0.0462755 -0.700954 -0.137361 0.0456282 -0.703853 -0.138569 0.0448278 -0.706337 
-0.139294 0.0439352 -0.708468 -0.139621 0.0430198 -0.710284 -0.139656 0.0421545 -0.7118 
-0.139517 0.0414093 -0.713015 -0.139311 0.0408462 -0.713917 -0.13913 0.0405135 -0.71449 
-0.139031 0.0404419 -0.714724 
LINES 2 100
OFFSETS vtktypeint64
0 100 
CONNECTIVITY vtktypeint64
0 1 2 3 4 5 6 7 8 
9 10 11 12 13 14 15 16 17 
18 19 20 21 22 23 24 25 26 
27 28 29 30 31 32 33 34 35 
36 37 38 39 40 41 42 43 44 
45 46 47 48 49 50 51 52 53 
54 55 56 57 58 59 60 61 62 
63 64 65 66 67 68 69 70 71 
72 73 74 75 76 77 78 79 80 
81 82 83 84 85 86 87 88 89 
90 91 92 93 94 95 96 97 98 
99 
POINT_DATA 100
FIELD FieldData 3
_theta 1 100 double
0 0.031733259127 0.063466518254 0.095199777382 0.12693303651 0.15866629564 0.19039955476 0.22213281389 0.25386607302 
0.28559933214 0.31733259127 0.3490658504 0.38079910953 0.41253236865 0.44426562778 0.47599888691 0.50773214603 0.53946540516 
0.57119866429 0.60293192342 0.63466518254 0.66639844167 0.6981317008 0.72986495992 0.76159821905 0.79333147818 0.82506473731 
0.85679799643 0.88853125556 0.92026451469 0.95199777382 0.98373103294 1.0154642921 1.0471975512 1.0789308103 1.1106640695 
1.1423973286 1.1741305877 1.2058638468 1.237597106 1.2693303651 1.3010636242 1.3327968833 1.3645301425 1.3962634016 
1.4279966607 1.4597299198 1.491463179 1.5231964381 1.5549296972 1.5866629564 1.6183962155 1.6501294746 1.6818627337 
1.7135959929 1.745329252 1.7770625111 1.8087957702 1.8405290294 1.8722622885 1.9039955476 1.9357288068 1.9674620659 
1.999195325 2.0309285841 2.0626618433 2.0943951024 2.1261283615 2.1578616206 2.1895948798 2.2213281389 2.253061398 
2.2847946572 2.3165279163 2.3482611754 2.3799944345 2.4117276937 2.4434609528 2.4751942119 2.506927471 2.5386607302 
2.5703939893 2.6021272484 2.6338605076 2.6655937667 2.6973270258 2.7290602849 2.7607935441 2.7925268032 2.8242600623 
2.8559933214 2.8877265806 2.9194598397 2.9511930988 2.982926358 3.0146596171 3.0463928762 3.0781261353 3.1098593945 
3.1415926536 
_radius 1 100 double
2.2591401799e-16 0.016216551981 0.032211433738 0.047769988746 0.06270238766 0.076853008424 0.090106506048 0.10239046467 0.11367497533 
0.12396967685 0.13331868749 0.14179352434 0.14948378709 0.15648539114 0.16288672197 0.1687542244 0.17412021941 0.17897641827 
0.18327597574 0.18694484923 0.18990044091 0.1920732622 0.19342664092 0.19397036459 0.19376595973 0.19292324717 0.19158937254 
0.18993252639 0.18812310086 0.18631521246 0.18463141997 0.1831530026 0.18191720624 0.18092149009 0.18013344392 0.17950424324 
0.17898335641 0.17853210925 0.17813325508 0.17779374834 0.17753970125 0.17740580306 0.17742456245 0.17762157714 0.17802027412 
0.17865389569 0.1795776159 0.18087310003 0.1826412786 0.1849837839 0.18797728777 0.1916473393 0.19594922817 0.20076238248 
0.205901126 0.2111390926 0.21624015712 0.22098793275 0.22520837755 0.22878350607 0.23165668869 0.23383105342 0.23536253409 
0.23634879814 0.23691512722 0.23719849078 0.23733141053 0.23742744334 0.23756993679 0.23780509559 0.23813954853 0.23854184075 
0.23894682466 0.23926183206 0.23937367527 0.23915581202 0.23847532425 0.23719963328 0.23520301654 0.23237294248 0.22861601629 
0.22386302416 0.21807232612 0.21123083495 0.20335212788 0.19447184138 0.18464123411 0.17392039861 0.16237275987 0.15006202717 
0.13705177999 0.1234068279 0.10919493115 0.094487634518 0.079359649207 0.063886996633 0.04814465652 0.032204598515 0.016134868995 
4.4855056558e-16 
_area 1 100 double
0 0.00063258867362 0.0025052022332 0.0055433944631 0.0096259053129 0.014588145688 0.020227381006 0.026310649651 0.032585769456 
0.038795246554 0.044692906546 0.050062918447 0.054739880778 0.058626945746 0.061707566517 0.06404646123 0.065777128181 0.067075813771 
0.068122346428 0.069043527054 0.069851640578 0.070498055454 0.070914826147 0.070950598792 0.070576100067 0.06981695892 0.068741265853 
0.067467542582 0.06618395396 0.065092700869 0.064324608287 0.063973672206 0.064033748898 0.064539766345 0.065534663029 0.066941544037 
0.068588075368 0.07036700737 0.072218404355 0.074057409971 0.075833011305 0.077505959369 0.079080239711 0.080621649864 0.082221202825 
0.083955208424 0.085861336781 0.087970212434 0.090378923627 0.093201635594 0.096505396814 0.10040203351 0.10501449661 0.1103734882 
0.1163703846 0.12276769555 0.12923312585 0.13538498996 0.14084558767 0.14529646617 0.1485259903 0.15045941215 0.15116545495 
0.15083816329 0.14975807126 0.14824250629 0.14659631795 0.14507053613 0.14383444755 0.14296192931 0.14242542201 0.14212056278 
0.14188664098 0.1415720277 0.1410522355 0.14017658835 0.13876922043 0.13665592356 0.13368962173 0.12976716098 0.12483707724 
0.11890286493 0.11202437861 0.10431598729 0.095938541568 0.087083837669 0.077953803209 0.068740280468 0.059612535653 0.050716242043 
0.042181108007 0.034130022689 0.02668392462 0.019961017327 0.014072335082 0.0091165727462 0.0051762508356 0.0023158302127 0.00058124730409 
6.2063142111e-17 
