# vtk DataFile Version 5.1
vtk output
ASCII
DATASET POLYDATA
POINTS 100 float
-0.20091 0.0190235 0.735477 -0.200009 0.0188772 0.735289 -0.197381 0.0185852 0.734796 
-0.193187 0.0181716 0.733902 -0.18767 0.0176753 0.732462 -0.181127 0.0171475 0.730303 
-0.173873 0.0166486 0.727249 -0.166197 0.0162449 0.723146 -0.158334 0.0160054 0.717888 
-0.150432 0.015998 0.711432 -0.142542 0.0162872 0.703802 -0.134612 0.0169314 0.695089 
-0.1265 0.0179809 0.685435 -0.118001 0.0194761 0.675015 -0.108878 0.0214464 0.664009 
-0.0988992 0.0239084 0.652574 -0.0878773 0.0268647 0.640822 -0.0757012 0.0303017 0.628799 
-0.0623586 0.0341889 0.61648 -0.0479462 0.0384764 0.603764 -0.0326666 0.0430946 0.590491 
-0.0168107 0.0479539 0.576459 -0.000730056 0.0529451 0.561454 0.0151996 0.0579425 0.545276 
0.0306169 0.0628074 0.527765 0.0452124 0.067394 0.508829 0.0587591 0.071556 0.488453 
0.0711332 0.0751552 0.466701 0.0823215 0.0780693 0.443711 0.0924159 0.0802002 0.41968 
0.101595 0.0814807 0.394833 0.110095 0.0818797 0.3694 0.118174 0.0814044 0.343587 
0.126076 0.0801 0.317548 0.133995 0.0780463 0.291377 0.142047 0.0753515 0.265094 
0.15025 0.0721441 0.238654 0.158521 0.0685629 0.21196 0.166681 0.0647473 0.184888 
0.174468 0.0608269 0.157313 0.181573 0.0569146 0.129138 0.187664 0.0530999 0.100321 
0.192422 0.0494466 0.070891 0.195576 0.0459929 0.0409611 0.196925 0.0427541 0.010723 
0.196357 0.0397283 -0.0195644 0.19386 0.0369023 -0.0495979 0.189511 0.0342596 -0.0790587 
0.183475 0.0317864 -0.107645 0.175978 0.0294772 -0.1351 0.167286 0.0273377 -0.161242 
0.157683 0.0253855 -0.185974 0.147446 0.023648 -0.209295 0.136822 0.0221588 -0.231293 
0.12602 0.0209514 -0.25213 0.1152 0.0200537 -0.272017 0.104473 0.0194815 -0.291186 
0.0939039 0.0192342 -0.309864 0.0835216 0.0192921 -0.328241 0.0733278 0.0196163 -0.346454 
0.0633082 0.0201514 -0.364577 0.053441 0.0208304 -0.382613 0.0437041 0.0215815 -0.400509 
0.0340781 0.022336 -0.418166 0.0245473 0.0230361 -0.435463 0.0150973 0.023641 -0.452279 
0.00571259 0.0241322 -0.468511 -0.0036276 0.0245148 -0.484095 -0.0129511 0.0248167 -0.499011 
-0.0222934 0.0250842 -0.513286 -0.0316963 0.0253755 -0.526987 -0.0412033 0.0257527 -0.540204 
-0.0508541 0.0262725 -0.553034 -0.060678 0.026978 -0.565564 -0.070687 0.027892 -0.577845 
-0.080871 0.0290123 -0.589889 -0.0911949 0.0303106 -0.601653 -0.101599 0.0317346 -0.613051 
-0.112002 0.0332124 -0.623955 -0.122309 0.0346605 -0.634217 -0.132417 0.0359919 -0.643686 
-0.142227 0.0371258 -0.652236 -0.151652 0.0379959 -0.65978 -0.160625 0.038557 -0.666286 
-0.169101 0.0387895 -0.671787 -0.177064 0.0387002 -0.676379 -0.184519 0.0383207 -0.680209 
-0.191487 0.0377028 -0.683459 -0.198002 0.0369123 -0.686327 -0.204095 0.0360212 -0.688996 
-0.20979 0.0351 -0.691617 -0.215092 0.0342112 -0.694287 -0.219987 0.0334043 -0.69704 
-0.224439 0.0327126 -0.699844 -0.228388 0.0321537 -0.702607 -0.231762 0.0317306 -0.705195 
-0.234484 0.031436 -0.707449 -0.236478 0.0312569 -0.709211 -0.237682 0.0311797 -0.710348 
-0.238056 0.0311943 -0.71077 
LINES 2 100
OFFSETS vtktypeint64
0 100 
CONNECTIVITY vtktypeint64
0 1 2 3 4 5 6 7 8 
9 10 11 12 13 14 15 16 17 
18 19 20 21 22 23 24 25 26 
27 28 29 30 31 32 33 34 35 
36 37 38 39 40 41 42 43 44 
45 46 47 48 49 50 51 52 53 
54 55 56 57 58 59 60 61 62 
63 64 65 66 67 68 69 70 71 
72 73 74 75 76 77 78 79 80 
81 82 83 84 85 86 87 88 89 
90 91 92 93 94 95 96 97 98 
99 
POINT_DATA 100
FIELD FieldData 3
_theta 1 100 double
0 0.031733259127 0.063466518254 0.095199777382 0.12693303651 0.15866629564 0.19039955476 0.22213281389 0.25386607302 
0.28559933214 0.31733259127 0.3490658504 0.38079910953 0.41253236865 0.44426562778 0.47599888691 0.50773214603 0.53946540516 
0.57119866429 0.60293192342 0.63466518254 0.66639844167 0.6981317008 0.72986495992 0.76159821905 0.79333147818 0.82506473731 
0.85679799643 0.88853125556 0.92026451469 0.95199777382 0.98373103294 1.0154642921 1.0471975512 1.0789308103 1.1106640695 
1.1423973286 1.1741305877 1.2058638468 1.237597106 1.2693303651 1.3010636242 1.3327968833 1.3645301425 1.3962634016 
1.4279966607 1.4597299198 1.491463179 1.5231964381 1.5549296972 1.5866629564 1.6183962155 1.6501294746 1.6818627337 
1.7135959929 1.745329252 1.7770625111 1.8087957702 1.8405290294 1.8722622885 1.9039955476 1.9357288068 1.9674620659 
1.999195325 2.0309285841 2.0626618433 2.0943951024 2.1261283615 2.1578616206 2.1895948798 2.2213281389 2.253061398 
2.2847946572 2.3165279163 2.3482611754 2.3799944345 2.4117276937 2.4434609528 2.4751942119 2.506927471 2.5386607302 
2.5703939893 2.6021272484 2.6338605076 2.6655937667 2.6973270258 2.7290602849 2.7607935441 2.7925268032 2.8242600623 
2.8559933214 2.8877265806 2.9194598397 2.9511930988 2.982926358 3.0146596171 3.0463928762 3.0781261353 3.1098593945 
3.1415926536 
_radius 1 100 double
6.7175696724e-16 0.018197546647 0.036113511241 0.053497438671 0.070155700304 0.08596458259 0.10086824973 0.11486200677 0.12796530465 
0.14019214565 0.15152748685 0.16191619816 0.17126683409 0.1794677763 0.18641008626 0.19201058281 0.19622995239 0.19908315118 
0.20064192509 0.20103113656 0.2004212966 0.19901926119 0.19705789927 0.19478433072 0.19244569763 0.19027180449 0.18845540982 
0.18713293309 0.18636970237 0.1861535612 0.18639877375 0.18695996145 0.18765433629 0.1882896962 0.18869488186 0.18874844468 
0.18840061485 0.18768403612 0.18671036429 0.18565231333 0.18471452837 0.18410190015 0.18399630781 0.18454741407 0.18587383942 
0.18806621842 0.19118533155 0.19525314285 0.20023927595 0.206048908 0.21251888407 0.21942625262 0.22650874728 0.23349277924 
0.24012300523 0.24618824122 0.25154021051 0.25610340308 0.25987577919 0.26292110995 0.26535449281 0.26732311846 0.26898474944 
0.2704865488 0.27194675633 0.27344120935 0.27499596215 0.27658646237 0.27814299248 0.27956136079 0.28071713076 0.28148113418 
0.28173381057 0.28137617004 0.28033585651 0.2785677377 0.27604945838 0.272773278 0.26873613312 0.26393013052 0.25833553933 
0.2519178169 0.24462935665 0.23641565248 0.22722465268 0.2170174286 0.20577803999 0.19352066607 0.18029262967 0.16617275252 
0.15126538989 0.1356913223 0.11957723871 0.10304567214 0.086206917073 0.06915382245 0.051959677834 0.03467890396 0.017349985537 
1.3143946973e-15 
_area 1 100 double
0 0.00068418912376 0.0027093804497 0.0059944594734 0.0104089778 0.015783558947 0.021926802846 0.028644505798 0.035753460085 
0.043083585047 0.050468675222 0.057732764411 0.064680899224 0.071099972668 0.076771005191 0.08149123601 0.085102237493 0.087518609528 
0.088750907059 0.088915207523 0.088221768663 0.08694647588 0.085398714987 0.083886124536 0.082672478792 0.081940927438 0.081780084017 
0.082196538673 0.083137765739 0.084499611772 0.086113925762 0.087762944891 0.089213850993 0.090256800152 0.090763979072 0.090777536411 
0.090562616083 0.090443397073 0.090574752544 0.091013645159 0.09178724925 0.092976248456 0.094698516678 0.096990503368 0.099788301678 
0.1029992295 0.10662208689 0.1107734657 0.11563588001 0.12137759295 0.12807279377 0.13565789261 0.14393284376 0.15258897567 
0.16124872238 0.16951229347 0.1770068497 0.18343126191 0.18858964978 0.1924093479 0.19494254303 0.19635487255 0.1969083085 
0.19695157925 0.1969333048 0.19723777693 0.19780511205 0.19835870022 0.19876261321 0.19890357217 0.1986633387 0.19791978816 
0.1965586191 0.19448714918 0.19164423025 0.18799869288 0.1835342248 0.17823444804 0.17207804196 0.165040857 0.15710118371 
0.14824874053 0.13849847044 0.12790676133 0.11658513861 0.10470665716 0.092502161681 0.080245990938 0.068232910917 0.056749990093 
0.046048773382 0.036323982881 0.027704035638 0.020255213467 0.013996418922 0.0089180272597 0.0049985672992 0.002215953023 0.00055315641138 
1.6653345369e-16 
