# vtk DataFile Version 5.1
vtk output
ASCII
DATASET POLYDATA
POINTS 100 float
-0.144775 -0.0643433 0.742449 -0.144483 -0.0642756 0.741999 -0.14366 -0.0638586 0.740618 
-0.142369 -0.0630738 0.738323 -0.140709 -0.0618945 0.735142 -0.138795 -0.060289 0.731117 
-0.136743 -0.0582244 0.726298 -0.13465 -0.0556705 0.720744 -0.132578 -0.052604 0.714521 
-0.130545 -0.0490123 0.707695 -0.128512 -0.0448964 0.700332 -0.126391 -0.0402734 0.692489 
-0.124046 -0.035177 0.684214 -0.121313 -0.0296571 0.675533 -0.11801 -0.0237786 0.666454 
-0.113965 -0.0176177 0.656961 -0.109029 -0.0112591 0.647013 -0.103099 -0.00479088 0.636548 
-0.0961269 0.00169985 0.625484 -0.088125 0.00813098 0.61373 -0.079168 0.0144292 0.601188 
-0.0693828 0.0205326 0.587768 -0.0589363 0.0263917 0.573389 -0.0480176 0.0319695 0.557991 
-0.0368194 0.0372403 0.541539 -0.0255192 0.0421865 0.524028 -0.0142643 0.0467957 0.505479 
-0.0031616 0.0510572 0.485937 0.00772712 0.054958 0.46547 0.0183831 0.0584805 0.444156 
0.0288224 0.0616009 0.422081 0.0390835 0.0642887 0.399328 0.0492113 0.0665087 0.37597 
0.059241 0.0682236 0.35207 0.0691825 0.0693985 0.327675 0.0790095 0.070006 0.30282 
0.088652 0.0700312 0.27753 0.0979963 0.069477 0.251825 0.106889 0.0683675 0.225732 
0.11515 0.0667498 0.199285 0.122582 0.0646944 0.172537 0.128992 0.0622922 0.145561 
0.134207 0.0596504 0.118449 0.138088 0.0568856 0.0913177 0.140543 0.0541159 0.0642949 
0.141533 0.0514529 0.037518 0.141079 0.0489933 0.0111221 0.139251 0.046812 -0.014769 
0.136169 0.0449573 -0.0400525 0.131984 0.0434479 -0.0646539 0.126869 0.0422731 -0.0885317 
0.121004 0.0413961 -0.111679 0.114563 0.0407588 -0.13412 0.107703 0.0402892 -0.155908 
0.100558 0.0399098 -0.177112 0.0932294 0.0395456 -0.19781 0.0857927 0.0391324 -0.218078 
0.0782943 0.0386221 -0.237981 0.0707581 0.0379876 -0.257566 0.0631909 0.0372236 -0.276854 
0.0555881 0.0363457 -0.295844 0.0479402 0.0353871 -0.314514 0.0402365 0.0343932 -0.332827 
0.032469 0.0334157 -0.350736 0.0246339 0.0325059 -0.368197 0.0167326 0.0317089 -0.385178 
0.00877101 0.0310591 -0.401662 0.000759947 0.0305776 -0.417657 -0.00728559 0.030271 -0.433192 
-0.015346 0.0301335 -0.448321 -0.023396 0.0301493 -0.463111 -0.0314038 0.0302972 -0.477638 
-0.0393289 0.0305551 -0.491976 -0.0471209 0.0309047 -0.506186 -0.054719 0.0313349 -0.520305 
-0.0620521 0.0318439 -0.53434 -0.0690409 0.0324394 -0.548265 -0.0756015 0.0331372 -0.562018 
-0.08165 0.033958 -0.575503 -0.0871086 0.0349228 -0.588601 -0.0919124 0.0360488 -0.601176 
-0.0960148 0.0373439 -0.613089 -0.0993928 0.0388037 -0.624205 -0.102051 0.0404091 -0.634412 
-0.10402 0.042126 -0.643621 -0.105358 0.0439071 -0.651779 -0.106146 0.0456954 -0.658871 
-0.106479 0.0474296 -0.664915 -0.106461 0.0490497 -0.669966 -0.106197 0.0505033 -0.674102 
-0.105784 0.0517505 -0.677423 -0.105305 0.0527682 -0.680039 -0.104826 0.0535517 -0.682062 
-0.10439 0.0541148 -0.683601 -0.104024 0.0544869 -0.684753 -0.103736 0.0547085 -0.685603 
-0.103523 0.054826 -0.686219 -0.103372 0.0548848 -0.686651 -0.103272 0.0549231 -0.686933 
-0.103215 0.0549668 -0.687084 
LINES 2 100
OFFSETS vtktypeint64
0 100 
CONNECTIVITY vtktypeint64
0 1 2 3 4 5 6 7 8 
9 10 11 12 13 14 15 16 17 
18 19 20 21 22 23 24 25 26 
27 28 29 30 31 32 33 34 35 
36 37 38 39 40 41 42 43 44 
45 46 47 48 49 50 51 52 53 
54 55 56 57 58 59 60 61 62 
63 64 65 66 67 68 69 70 71 
72 73 74 75 76 77 78 79 80 
81 82 83 84 85 86 87 88 89 
90 91 92 93 94 95 96 97 98 
99 
POINT_DATA 100
FIELD FieldData 3
_theta 1 100 double
0 0.031733259127 0.063466518254 0.095199777382 0.12693303651 0.15866629564 0.19039955476 0.22213281389 0.25386607302 
0.28559933214 0.31733259127 0.3490658504 0.38079910953 0.41253236865 0.44426562778 0.47599888691 0.50773214603 0.53946540516 
0.57119866429 0.60293192342 0.63466518254 0.66639844167 0.6981317008 0.72986495992 0.76159821905 0.79333147818 0.82506473731 
0.85679799643 0.88853125556 0.92026451469 0.95199777382 0.98373103294 1.0154642921 1.0471975512 1.0789308103 1.1106640695 
1.1423973286 1.1741305877 1.2058638468 1.237597106 1.2693303651 1.3010636242 1.3327968833 1.3645301425 1.3962634016 
1.4279966607 1.4597299198 1.491463179 1.5231964381 1.5549296972 1.5866629564 1.6183962155 1.6501294746 1.6818627337 
1.7135959929 1.745329252 1.7770625111 1.8087957702 1.8405290294 1.8722622885 1.9039955476 1.9357288068 1.9674620659 
1.999195325 2.0309285841 2.0626618433 2.0943951024 2.1261283615 2.1578616206 2.1895948798 2.2213281389 2.253061398 
2.2847946572 2.3165279163 2.3482611754 2.3799944345 2.4117276937 2.4434609528 2.4751942119 2.506927471 2.5386607302 
2.5703939893 2.6021272484 2.6338605076 2.6655937667 2.6973270258 2.7290602849 2.7607935441 2.7925268032 2.8242600623 
2.8559933214 2.8877265806 2.9194598397 2.9511930988 2.982926358 3.0146596171 3.0463928762 3.0781261353 3.1098593945 
3.1415926536 
_radius 1 100 double
4.7833092874e-16 0.015514230249 0.030900436076 0.046033812361 0.060805595464 0.075128149804 0.088936749238 0.10218766847 0.11485280124 
0.12691166655 0.13834223136 0.14911234519 0.15917364474 0.16845946361 0.1768875699 0.18436760358 0.19081219633 0.19615017873 
0.20034002135 0.20338156368 0.20532410299 0.20626917666 0.20636699866 0.20580644228 0.20479947512 0.20356181207 0.20229212851 
0.20115247782 0.20025263925 0.19964093394 0.19930341831 0.19917217907 0.19914184844 0.19909183132 0.19891059201 0.19851807657 
0.19788290311 0.19703167651 0.19604835094 0.19506304527 0.19423302258 0.1937220196 0.19368446053 0.19425715424 0.19555584204 
0.19767157017 0.20066343325 0.2045478008 0.20928721766 0.21478341559 0.2208781599 0.22736353151 0.23400052575 0.2405425161 
0.24675906129 0.25245596342 0.2574888959 0.26176956877 0.26526479754 0.26798980801 0.26999761201 0.27136636269 0.27218635731 
0.27254799407 0.27253169958 0.2722006784 0.27159717209 0.27074256076 0.26964101464 0.26828564125 0.26666546404 0.26477137884 
0.26259955507 0.26015146512 0.25743061045 0.25443682327 0.25115954883 0.24757163336 0.24362488695 0.23924826087 0.23434911752 
0.22881787308 0.22253613046 0.21538805295 0.20727402662 0.19812475771 0.18791322007 0.17666170786 0.16444186417 0.15136689661 
0.13757702185 0.12322112034 0.10843899815 0.093348668718 0.078041152315 0.062582227485 0.047018254761 0.0313828654 0.015702475922 
3.7348107319e-16 
_area 1 100 double
0 0.00065736343513 0.0025947382723 0.0057126698056 0.0098602608326 0.014854824175 0.020504405138 0.026628856043 0.033075011434 
0.03972246744 0.046478639574 0.053264617521 0.059995851611 0.066563135209 0.072819436408 0.078576932327 0.083616499086 0.087709612348 
0.090650579721 0.092295113408 0.092599164039 0.091649840775 0.089678914835 0.08705112975 0.084231845974 0.081829709633 0.079996314099 
0.078805343099 0.078234510544 0.078184800898 0.078520669095 0.079109194318 0.079873503871 0.080670595015 0.08139814493 0.082018209121 
0.082575319136 0.083287532934 0.084557679831 0.086448375241 0.088580551611 0.090779420036 0.093102421759 0.095661954025 0.098568103797 
0.10192680911 0.10586368023 0.11051268695 0.11609267663 0.12283379119 0.13072078017 0.13936969786 0.14842397185 0.15751153553 
0.16625475657 0.17430248097 0.18135851703 0.18720144578 0.19169515476 0.19479067018 0.19651980399 0.19698184515 0.19632631413 
0.1947354517 0.19240808428 0.18954341267 0.18632243392 0.18288991425 0.17934562069 0.17574710198 0.17211963804 0.16846691632 
0.16477839013 0.16103254139 0.15719762754 0.15323243739 0.1490886146 0.1447140841 0.14005521457 0.13505556429 0.12965150745 
0.12376790364 0.11731856909 0.11021603226 0.10239237207 0.093827976421 0.084579971989 0.074799578728 0.064729182647 0.054675545546 
0.044963879944 0.035885969534 0.027660914946 0.020424063482 0.014244265823 0.0091529181758 0.0051675627663 0.002303757603 0.00057712416522 
8.5799217871e-17 
