# vtk DataFile Version 5.1
vtk output
ASCII
DATASET POLYDATA
POINTS 100 float
-0.188957 -0.0492075 0.71835 -0.18865 -0.0492795 0.718437 -0.187747 -0.0493341 0.718672 
-0.186211 -0.0493364 0.718931 -0.183986 -0.0492309 0.719024 -0.181009 -0.0489459 0.718717 
-0.177223 -0.0483987 0.71776 -0.172591 -0.0475012 0.715914 -0.167104 -0.0461661 0.712979 
-0.160791 -0.0443124 0.708815 -0.153719 -0.0418713 0.703351 -0.145994 -0.0387899 0.696591 
-0.137749 -0.0350348 0.688606 -0.129137 -0.0305943 0.67952 -0.120312 -0.02548 0.669492 
-0.111419 -0.0197266 0.658686 -0.102577 -0.0133921 0.647256 -0.0938699 -0.00655635 0.635318 
-0.0853429 0.000680567 0.622944 -0.076998 0.00820051 0.610153 -0.0688007 0.0158703 0.596915 
-0.0606876 0.0235452 0.583158 -0.0525778 0.0310737 0.568791 -0.0443852 0.0383025 0.553715 
-0.0360301 0.0450822 0.537849 -0.0274489 0.0512744 0.521143 -0.0185999 0.0567579 0.503589 
-0.00946494 0.0614352 0.485226 -4.79985e-05 0.0652381 0.466134 0.0096306 0.068132 0.446425 
0.0195409 0.0701178 0.426224 0.0296508 0.0712323 0.405652 0.0399314 0.0715453 0.384803 
0.0503607 0.0711543 0.36373 0.060922 0.070177 0.342434 0.0715992 0.0687424 0.320858 
0.0823686 0.0669805 0.298896 0.0931877 0.0650123 0.276406 0.103984 0.0629412 0.253228 
0.114645 0.0608454 0.229209 0.125012 0.0587746 0.204228 0.134879 0.0567486 0.178221 
0.144 0.0547599 0.151195 0.152098 0.0527796 0.123239 0.158885 0.0507648 0.0945228 
0.164087 0.0486691 0.0652893 0.167466 0.0464514 0.0358345 0.168844 0.0440859 0.00648359 
0.168126 0.0415687 -0.0224367 0.165311 0.0389219 -0.0506264 0.160499 0.0361946 -0.0778372 
0.153889 0.0334597 -0.10389 0.145757 0.030808 -0.128688 0.136444 0.0283395 -0.152213 
0.12632 0.026153 -0.174521 0.115755 0.0243359 -0.195728 0.10509 0.0229548 -0.215984 
0.0946048 0.0220483 -0.235455 0.0845013 0.021623 -0.254296 0.0748914 0.0216532 -0.272638 
0.065796 0.0220844 -0.290568 0.0571547 0.0228395 -0.308128 0.0488434 0.0238284 -0.325316 
0.0406992 0.0249579 -0.342093 0.0325481 0.0261424 -0.358399 0.0242319 0.0273126 -0.374167 
0.0156325 0.0284227 -0.389342 0.0066885 0.029453 -0.403893 -0.00259594 0.0304104 -0.417824 
-0.0121515 0.0313245 -0.431179 -0.0218528 0.0322406 -0.444032 -0.0315352 0.0332116 -0.456489 
-0.0410153 0.0342881 -0.468665 -0.0501139 0.0355095 -0.480673 -0.0586774 0.0368966 -0.492604 
-0.0665945 0.0384472 -0.504515 -0.0738066 0.0401343 -0.516419 -0.080311 0.0419084 -0.528279 
-0.0861561 0.0437028 -0.540011 -0.0914297 0.0454408 -0.551489 -0.0962429 0.0470454 -0.562564 
-0.100711 0.0484478 -0.573073 -0.104938 0.049596 -0.58286 -0.108996 0.0504608 -0.591794 
-0.112922 0.0510385 -0.599777 -0.11671 0.0513514 -0.606756 -0.120317 0.0514439 -0.612728 
-0.123672 0.0513764 -0.61773 -0.126687 0.0512178 -0.621842 -0.12928 0.0510361 -0.625167 
-0.131382 0.0508908 -0.627825 -0.132959 0.0508257 -0.629936 -0.134015 0.0508646 -0.631612 
-0.134594 0.0510102 -0.632946 -0.13478 0.0512452 -0.634011 -0.134684 0.0515373 -0.634855 
-0.134428 0.051845 -0.635508 -0.134134 0.0521252 -0.635984 -0.133902 0.0523407 -0.636288 
-0.133797 0.0524661 -0.636419 
LINES 2 100
OFFSETS vtktypeint64
0 100 
CONNECTIVITY vtktypeint64
0 1 2 3 4 5 6 7 8 
9 10 11 12 13 14 15 16 17 
18 19 20 21 22 23 24 25 26 
27 28 29 30 31 32 33 34 35 
36 37 38 39 40 41 42 43 44 
45 46 47 48 49 50 51 52 53 
54 55 56 57 58 59 60 61 62 
63 64 65 66 67 68 69 70 71 
72 73 74 75 76 77 78 79 80 
81 82 83 84 85 86 87 88 89 
90 91 92 93 94 95 96 97 98 
99 
POINT_DATA 100
FIELD FieldData 3
_theta 1 100 double
0 0.031733259127 0.063466518254 0.095199777382 0.12693303651 0.15866629564 0.19039955476 0.22213281389 0.25386607302 
0.28559933214 0.31733259127 0.3490658504 0.38079910953 0.41253236865 0.44426562778 0.47599888691 0.50773214603 0.53946540516 
0.57119866429 0.60293192342 0.63466518254 0.66639844167 0.6981317008 0.72986495992 0.76159821905 0.79333147818 0.82506473731 
0.85679799643 0.88853125556 0.92026451469 0.95199777382 0.98373103294 1.0154642921 1.0471975512 1.0789308103 1.1106640695 
1.1423973286 1.1741305877 1.2058638468 1.237597106 1.2693303651 1.3010636242 1.3327968833 1.3645301425 1.3962634016 
1.4279966607 1.4597299198 1.491463179 1.5231964381 1.5549296972 1.5866629564 1.6183962155 1.6501294746 1.6818627337 
1.7135959929 1.745329252 1.7770625111 1.8087957702 1.8405290294 1.8722622885 1.9039955476 1.9357288068 1.9674620659 
1.999195325 2.0309285841 2.0626618433 2.0943951024 2.1261283615 2.1578616206 2.1895948798 2.2213281389 2.253061398 
2.2847946572 2.3165279163 2.3482611754 2.3799944345 2.4117276937 2.4434609528 2.4751942119 2.506927471 2.5386607302 
2.5703939893 2.6021272484 2.6338605076 2.6655937667 2.6973270258 2.7290602849 2.7607935441 2.7925268032 2.8242600623 
2.8559933214 2.8877265806 2.9194598397 2.9511930988 2.982926358 3.0146596171 3.0463928762 3.0781261353 3.1098593945 
3.1415926536 
_radius 1 100 double
3.6248664866e-16 0.015929861369 0.03158329409 0.04669869525 0.061047581263 0.074446416469 0.086763415394 0.097919806911 0.10788587978 
0.11667293647 0.12432289497 0.13089752201 0.13646907251 0.14111354187 0.14490706231 0.14792542751 0.15024634105 0.15195358167 
0.15314175781 0.15391986326 0.15441180261 0.15475263568 0.15508037332 0.1555243687 0.15619228212 0.15715799197 0.15845265699 
0.16006048629 0.16191970325 0.16392807626 0.16595199974 0.16783846629 0.16942944275 0.17057762379 0.17116156566 0.17109761874 
0.17034755471 0.16892440038 0.16689919696 0.1644053052 0.16163308095 0.15881169048 0.15618167006 0.15396690595 0.15235571727 
0.15149620206 0.15150296301 0.15246608003 0.1544526232 0.15749603769 0.16157671909 0.16660385304 0.17240948457 0.17875962523 
0.1853788831 0.19198077485 0.19829665159 0.2040990298 0.20921752516 0.21354700767 0.21704840059 0.2197430829 0.22170226191 
0.22303295381 0.22386228854 0.2243217234 0.22453249299 0.22459337836 0.22457173026 0.22449858148 0.22436845336 0.22414388753 
0.22376378745 0.22315368217 0.22223560639 0.22093572877 0.21918887533 0.21694010375 0.21414408434 0.21076320199 0.20676519524 
0.20212097226 0.19680306241 0.19078496886 0.18404147584 0.17654976979 0.16829111919 0.15925284988 0.1494304123 0.13882938304 
0.12746721951 0.11537451837 0.10259550936 0.089187624945 0.075220200156 0.060772566398 0.045931903821 0.030791179538 0.015447368491 
8.679202914e-16 
_area 1 100 double
0 0.00053773741634 0.0021348471525 0.004740930508 0.0082666254025 0.012580244111 0.017509680285 0.022851546301 0.028386558376 
0.033897688849 0.039186565704 0.044084389001 0.048455932415 0.052198074623 0.055236446777 0.057524020422 0.059043600408 0.059813604881 
0.059895679269 0.059407146311 0.058613027993 0.057776273757 0.057066820109 0.056633468158 0.056585225565 0.056956165837 0.057715701675 
0.058785004915 0.060051811388 0.061381293496 0.062628455596 0.063659207368 0.064381625053 0.064781349356 0.064938835812 0.064990576659 
0.065038844728 0.065116511964 0.065225416872 0.065371458761 0.06557773063 0.06587150225 0.066264565285 0.06675817022 0.067362873319 
0.068114617382 0.069086212418 0.070392548834 0.072184321636 0.074629238418 0.077887723336 0.082080413519 0.087238108569 0.093256823443 
0.099895258427 0.10681398778 0.1136296462 0.11996704662 0.12550275886 0.12999664715 0.13331010026 0.1354119995 0.13637474283 
0.13636340247 0.13562143734 0.13445366323 0.13319278594 0.13211587333 0.1313431981 0.13083257212 0.13044493151 0.130001128 
0.12931947929 0.12824186625 0.12664935201 0.12446909742 0.12167424987 0.11827751256 0.11431892146 0.10985006225 0.1049196656 
0.09956519158 0.093811452216 0.087675158405 0.081174090337 0.07433860199 0.067221618907 0.059903279639 0.052488614359 0.045099958954 
0.037867996743 0.030924816967 0.024399937936 0.018418371796 0.01309957891 0.0085564240517 0.0048931556081 0.0022014725009 0.00055452327748 
6.35875641e-17 
