# vtk DataFile Version 5.1
vtk output
ASCII
DATASET POLYDATA
POINTS 100 float
-0.185263 -0.0575353 0.688133 -0.185016 -0.0573956 0.68825 -0.184216 -0.0568332 0.688508 
-0.182852 -0.0558398 0.688788 -0.180907 -0.0544052 0.688911 -0.178354 -0.0525212 0.688653 
-0.175153 -0.0501864 0.687771 -0.171248 -0.04741 0.686034 -0.166573 -0.0442145 0.683239 
-0.161049 -0.0406372 0.679238 -0.154591 -0.0367283 0.673946 -0.14712 -0.0325477 0.667348 
-0.138568 -0.0281592 0.659492 -0.128895 -0.0236242 0.650483 -0.118094 -0.0189946 0.640461 
-0.106205 -0.0143071 0.629581 -0.0933197 -0.00957963 0.617996 -0.0795824 -0.00480984 0.605833 
-0.0651855 2.22782e-05 0.593182 -0.0503611 0.004949 0.580089 -0.0353663 0.0100066 0.566551 
-0.0204653 0.015225 0.552527 -0.0059088 0.0206175 0.537946 0.00808596 0.0261706 0.522721 
0.0213533 0.0318367 0.506768 0.0337929 0.0375306 0.490018 0.0453774 0.0431303 0.472429 
0.0561528 0.0484821 0.453995 0.0662314 0.0534115 0.434742 0.0757775 0.0577367 0.414729 
0.0849869 0.061285 0.394034 0.0940632 0.0639096 0.372746 0.103192 0.0655051 0.350948 
0.112515 0.0660198 0.328709 0.122113 0.0654635 0.306072 0.131988 0.0639096 0.283053 
0.142058 0.0614908 0.25964 0.152156 0.0583896 0.2358 0.162045 0.0548232 0.211495 
0.171433 0.0510261 0.186687 0.179995 0.0472301 0.161359 0.187404 0.043646 0.135528 
0.193355 0.0404472 0.109249 0.197594 0.0377575 0.0826248 0.199935 0.0356444 0.0558036 
0.20028 0.0341188 0.0289688 0.198619 0.0331389 0.00232809 0.195037 0.0326207 -0.0239028 
0.189695 0.0324507 -0.0495186 0.182824 0.0325017 -0.0743415 0.174697 0.0326474 -0.0982356 
0.165606 0.0327768 -0.121116 0.155843 0.0328047 -0.142955 0.145674 0.0326788 -0.163777 
0.135324 0.0323818 -0.18365 0.124964 0.0319295 -0.202679 0.114702 0.0313659 -0.220982 
0.104591 0.030754 -0.238683 0.0946281 0.0301671 -0.255891 0.0847687 0.0296782 -0.272694 
0.0749392 0.0293521 -0.289149 0.0650527 0.0292381 -0.305285 0.0550234 0.0293662 -0.321102 
0.0447796 0.029746 -0.336584 0.0342736 0.0303679 -0.351707 0.0234874 0.0312066 -0.366451 
0.012435 0.0322258 -0.380808 0.0011606 0.0333836 -0.394793 -0.0102665 0.034637 -0.408443 
-0.0217584 0.0359459 -0.421818 -0.0332175 0.0372758 -0.434994 -0.0445437 0.0385981 -0.448053 
-0.0556424 0.0398905 -0.461072 -0.0664294 0.0411349 -0.47411 -0.0768346 0.0423157 -0.4872 
-0.086803 0.0434182 -0.50034 -0.0962934 0.0444272 -0.513493 -0.105277 0.0453271 -0.526585 
-0.113732 0.0461023 -0.539517 -0.121641 0.0467394 -0.552176 -0.12899 0.0472298 -0.564445 
-0.135761 0.0475716 -0.576219 -0.141934 0.0477729 -0.587418 -0.147488 0.0478521 -0.597993 
-0.152402 0.0478388 -0.607933 -0.156658 0.0477715 -0.617264 -0.160244 0.0476948 -0.626036 
-0.163162 0.0476548 -0.63432 -0.165426 0.0476943 -0.642188 -0.167068 0.0478474 -0.649701 
-0.16814 0.0481347 -0.656896 -0.168711 0.0485606 -0.66377 -0.168866 0.0491115 -0.670283 
-0.168703 0.0497567 -0.676351 -0.168326 0.0504514 -0.681856 -0.167839 0.0511416 -0.686659 
-0.167339 0.0517699 -0.690608 -0.16691 0.0522824 -0.693563 -0.166617 0.0526351 -0.695409 
-0.1665 0.0527992 -0.69607 
LINES 2 100
OFFSETS vtktypeint64
0 100 
CONNECTIVITY vtktypeint64
0 1 2 3 4 5 6 7 8 
9 10 11 12 13 14 15 16 17 
18 19 20 21 22 23 24 25 26 
27 28 29 30 31 32 33 34 35 
36 37 38 39 40 41 42 43 44 
45 46 47 48 49 50 51 52 53 
54 55 56 57 58 59 60 61 62 
63 64 65 66 67 68 69 70 71 
72 73 74 75 76 77 78 79 80 
81 82 83 84 85 86 87 88 89 
90 91 92 93 94 95 96 97 98 
99 
POINT_DATA 100
FIELD FieldData 3
_theta 1 100 double
0 0.031733259127 0.063466518254 0.095199777382 0.12693303651 0.15866629564 0.19039955476 0.22213281389 0.25386607302 
0.28559933214 0.31733259127 0.3490658504 0.38079910953 0.41253236865 0.44426562778 0.47599888691 0.50773214603 0.53946540516 
0.57119866429 0.60293192342 0.63466518254 0.66639844167 0.6981317008 0.72986495992 0.76159821905 0.79333147818 0.82506473731 
0.85679799643 0.88853125556 0.92026451469 0.95199777382 0.98373103294 1.0154642921 1.0471975512 1.0789308103 1.1106640695 
1.1423973286 1.1741305877 1.2058638468 1.237597106 1.2693303651 1.3010636242 1.3327968833 1.3645301425 1.3962634016 
1.4279966607 1.4597299198 1.491463179 1.5231964381 1.5549296972 1.5866629564 1.6183962155 1.6501294746 1.6818627337 
1.7135959929 1.745329252 1.7770625111 1.8087957702 1.8405290294 1.8722622885 1.9039955476 1.9357288068 1.9674620659 
1.999195325 2.0309285841 2.0626618433 2.0943951024 2.1261283615 2.1578616206 2.1895948798 2.2213281389 2.253061398 
2.2847946572 2.3165279163 2.3482611754 2.3799944345 2.4117276937 2.4434609528 2.4751942119 2.506927471 2.5386607302 
2.5703939893 2.6021272484 2.6338605076 2.6655937667 2.6973270258 2.7290602849 2.7607935441 2.7925268032 2.8242600623 
2.8559933214 2.8877265806 2.9194598397 2.9511930988 2.982926358 3.0146596171 3.0463928762 3.0781261353 3.1098593945 
3.1415926536 
_radius 1 100 double
7.4113104114e-16 0.018593667454 0.036972453338 0.054925711009 0.072255177174 0.088780093999 0.10434136835 0.11880464653 0.13206225193 
0.14403399897 0.15466697701 0.16393449429 0.17183448224 0.17838781027 0.18363717242 0.1876473609 0.19050752912 0.19233524058 
0.1932808197 0.19352909466 0.19329474776 0.19280884567 0.19229868015 0.19196719179 0.19197693714 0.19243890774 0.19340438451 
0.19485929948 0.19672274094 0.19885235906 0.20105878082 0.20312910115 0.20485704173 0.20607506632 0.20668149264 0.20665329379 
0.20603576253 0.20491181388 0.20337388342 0.20152057189 0.19947304586 0.19739150452 0.19547945468 0.19397398607 0.19312504281 
0.19316736632 0.19428863809 0.19659855011 0.20010596757 0.20471200056 0.21022227412 0.2163738608 0.22286785013 0.22940018922 
0.23568751633 0.24148723228 0.24661156409 0.25093523748 0.25439656027 0.256992352 0.25876794872 0.25980414273 0.26020317571 
0.26007570768 0.25953007778 0.25866433324 0.25756070709 0.25628175773 0.25486741909 0.25333272886 0.25166676643 0.24983390408 
0.24777835741 0.24543202536 0.24272420921 0.23959087951 0.23598125261 0.23186036461 0.22720755719 0.22201188189 0.21626614914 
0.20996157417 0.2030846644 0.19561722721 0.18753935887 0.17883430022 0.1694934146 0.15951948604 0.14892713021 0.1377402043 
0.12598729625 0.11369717458 0.10089614613 0.087608592421 0.073860819938 0.059687175591 0.04513651733 0.030276851111 0.015196354232 
1.3440040052e-15 
_area 1 100 double
0 0.0006424621797 0.002554617674 0.0056858021501 0.0099378158819 0.015152885211 0.021110197496 0.02753726165 0.034137453652 
0.040629133721 0.046786136247 0.052465972888 0.057613791232 0.062240066726 0.066384445724 0.070086667455 0.073368994079 0.076204215084 
0.078546493124 0.080376515059 0.081686591663 0.082483346083 0.082823825038 0.082878202933 0.082959492279 0.083425173739 0.084449020908 
0.086100571285 0.088268850136 0.090665404554 0.092892807617 0.09454951111 0.095336377028 0.095127453807 0.093991157882 0.092263154135 
0.091137739907 0.091098890599 0.092767658068 0.09561646899 0.098745320939 0.10178907489 0.10454754448 0.10685529569 0.10862924445 
0.11001460207 0.11132437187 0.11290710914 0.11506294259 0.11800482967 0.12184353957 0.1265836462 0.13212062978 0.13822297868 
0.14452414188 0.15060227934 0.15610145566 0.16080234898 0.16474542033 0.1689078642 0.17266965903 0.17563149561 0.17752299443 
0.17821760977 0.17763052865 0.17580184208 0.17282196355 0.16883623459 0.16404900244 0.15872576156 0.15342940979 0.14845668696 
0.1442642933 0.14029795947 0.1362730293 0.13208826961 0.12765140789 0.12288084895 0.11772032661 0.11214637232 0.10616687914 
0.099813442457 0.093130745922 0.08616695766 0.078969720663 0.071589902316 0.064090091773 0.056551767395 0.049076519858 0.04178009306 
0.034781285344 0.028190674124 0.022104644621 0.016606544116 0.011771966205 0.007673750679 0.0043839593067 0.0019716893424 0.00049662381049 
3.8067243645e-17 
