# vtk DataFile Version 5.1
vtk output
ASCII
DATASET POLYDATA
POINTS 100 float
-0.151648 -0.0768049 0.670453 -0.151589 -0.0766911 0.670609 -0.151422 -0.0761207 0.670979 
-0.151149 -0.0750687 0.671477 -0.150769 -0.0735 0.67197 -0.150277 -0.0713762 0.672291 
-0.149656 -0.0686635 0.672257 -0.148876 -0.065341 0.671686 -0.147889 -0.0614076 0.670413 
-0.146626 -0.0568867 0.668302 -0.145001 -0.0518279 0.665255 -0.142911 -0.0463056 0.661219 
-0.140243 -0.0404137 0.656181 -0.136879 -0.0342584 0.650159 -0.132711 -0.0279489 0.6432 
-0.127642 -0.0215879 0.63536 -0.121606 -0.0152626 0.626695 -0.114566 -0.00903802 0.617251 
-0.106526 -0.00295352 0.607055 -0.097532 0.00297765 0.596111 -0.0876678 0.00876476 0.584403 
-0.0770535 0.014433 0.571895 -0.0658351 0.0200144 0.558544 -0.0541738 0.0255379 0.544309 
-0.0422341 0.0310196 0.529157 -0.0301703 0.0364542 0.513077 -0.0181155 0.04181 0.496081 
-0.00617259 0.0470267 0.478212 0.00559137 0.0520181 0.459535 0.0171459 0.0566774 0.440135 
0.0284935 0.0608868 0.420107 0.0396621 0.0645287 0.399546 0.0506932 0.0674973 0.37853 
0.0616285 0.0697101 0.357119 0.0724949 0.0711171 0.335337 0.0832911 0.0717065 0.313181 
0.0939765 0.0715071 0.290615 0.104464 0.0705862 0.26758 0.114619 0.0690433 0.244004 
0.124261 0.0670017 0.21982 0.133176 0.0645967 0.194975 0.141126 0.0619645 0.169449 
0.147874 0.0592303 0.143265 0.153197 0.0564997 0.116498 0.156908 0.0538517 0.0892716 
0.158875 0.0513358 0.0617598 0.159032 0.0489728 0.0341738 0.157389 0.0467579 0.00674832 
0.154034 0.0446678 -0.0202758 0.149124 0.0426681 -0.0466706 0.142876 0.0407216 -0.0722384 
0.135552 0.0387965 -0.0968269 0.127434 0.0368721 -0.12034 0.118804 0.0349433 -0.14274 
0.109924 0.0330215 -0.164051 0.101014 0.0311338 -0.184346 0.0922402 0.0293194 -0.203741 
0.0837061 0.0276248 -0.222375 0.0754501 0.026098 -0.240395 0.067451 0.0247831 -0.257943 
0.0596387 0.023715 -0.275138 0.0519093 0.0229162 -0.292066 0.0441425 0.0223952 -0.308781 
0.0362204 0.0221462 -0.325296 0.0280441 0.022151 -0.341593 0.0195476 0.0223816 -0.35763 
0.0107065 0.0228041 -0.373351 0.00154179 0.023382 -0.388696 -0.0078825 0.0240791 -0.403615 
-0.0174662 0.0248624 -0.418075 -0.027084 0.0257025 -0.432064 -0.0365994 0.0265748 -0.445597 
-0.0458787 0.0274578 -0.45871 -0.054804 0.0283325 -0.471454 -0.0632843 0.0291812 -0.483891 
-0.0712619 0.029986 -0.496077 -0.0787149 0.0307292 -0.508059 -0.0856551 0.0313932 -0.519864 
-0.0921217 0.0319621 -0.531487 -0.0981723 0.0324237 -0.542896 -0.103872 0.0327721 -0.554025 
-0.109284 0.0330093 -0.564783 -0.114456 0.0331472 -0.575056 -0.119418 0.0332083 -0.584722 
-0.124175 0.0332244 -0.593655 -0.12871 0.0332346 -0.601742 -0.132984 0.0332819 -0.608891 
-0.136948 0.0334083 -0.615041 -0.140545 0.0336502 -0.620166 -0.143726 0.0340331 -0.624278 
-0.146453 0.034568 -0.627431 -0.148708 0.0352486 -0.629712 -0.150498 0.0360509 -0.631239 
-0.151853 0.0369342 -0.632148 -0.152824 0.0378448 -0.632589 -0.153477 0.0387212 -0.632712 
-0.153882 0.0395003 -0.632656 -0.15411 0.0401243 -0.63254 -0.154216 0.0405466 -0.632454 
-0.154239 0.0407374 -0.632456 
LINES 2 100
OFFSETS vtktypeint64
0 100 
CONNECTIVITY vtktypeint64
0 1 2 3 4 5 6 7 8 
9 10 11 12 13 14 15 16 17 
18 19 20 21 22 23 24 25 26 
27 28 29 30 31 32 33 34 35 
36 37 38 39 40 41 42 43 44 
45 46 47 48 49 50 51 52 53 
54 55 56 57 58 59 60 61 62 
63 64 65 66 67 68 69 70 71 
72 73 74 75 76 77 78 79 80 
81 82 83 84 85 86 87 88 89 
90 91 92 93 94 95 96 97 98 
99 
POINT_DATA 100
FIELD FieldData 3
_theta 1 100 double
0 0.031733259127 0.063466518254 0.095199777382 0.12693303651 0.15866629564 0.19039955476 0.22213281389 0.25386607302 
0.28559933214 0.31733259127 0.3490658504 0.38079910953 0.41253236865 0.44426562778 0.47599888691 0.50773214603 0.53946540516 
0.57119866429 0.60293192342 0.63466518254 0.66639844167 0.6981317008 0.72986495992 0.76159821905 0.79333147818 0.82506473731 
0.85679799643 0.88853125556 0.92026451469 0.95199777382 0.98373103294 1.0154642921 1.0471975512 1.0789308103 1.1106640695 
1.1423973286 1.1741305877 1.2058638468 1.237597106 1.2693303651 1.3010636242 1.3327968833 1.3645301425 1.3962634016 
1.4279966607 1.4597299198 1.491463179 1.5231964381 1.5549296972 1.5866629564 1.6183962155 1.6501294746 1.6818627337 
1.7135959929 1.745329252 1.7770625111 1.8087957702 1.8405290294 1.8722622885 1.9039955476 1.9357288068 1.9674620659 
1.999195325 2.0309285841 2.0626618433 2.0943951024 2.1261283615 2.1578616206 2.1895948798 2.2213281389 2.253061398 
2.2847946572 2.3165279163 2.3482611754 2.3799944345 2.4117276937 2.4434609528 2.4751942119 2.506927471 2.5386607302 
2.5703939893 2.6021272484 2.6338605076 2.6655937667 2.6973270258 2.7290602849 2.7607935441 2.7925268032 2.8242600623 
2.8559933214 2.8877265806 2.9194598397 2.9511930988 2.982926358 3.0146596171 3.0463928762 3.0781261353 3.1098593945 
3.1415926536 
_radius 1 100 double
5.4760139914e-16 0.015526395262 0.030938705289 0.046126329386 0.060998708576 0.075489844098 0.089557030246 0.10317376674 0.11631822015 
0.12895979004 0.14104695776 0.15249946618 0.1632069926 0.17303504255 0.18183722734 0.18947187012 0.19582029456 0.20080416508 
0.20439964808 0.20664672063 0.20765252549 0.20758820882 0.20667917554 0.20518918694 0.20339926349 0.20158300672 0.19998072065 
0.19877546318 0.1980746109 0.19790033395 0.19819129621 0.19881596602 0.19959563453 0.20033334157 0.20084386939 0.20097979416 
0.20064955567 0.19982629098 0.19854925917 0.19691937278 0.19508822393 0.19324143929 0.19158094224 0.19031129624 0.18963131983 
0.18972713917 0.19076115413 0.19285425654 0.19606400011 0.20036593633 0.20564596454 0.21170759758 0.21829228553 0.22510714937 
0.23185402073 0.2382553519 0.24407463583 0.24913054441 0.25330489202 0.25654492647 0.25886055711 0.26031713395 0.2610244242 
0.26112257746 0.26076615219 0.26010764172 0.25928225584 0.2583957836 0.2575170084 0.25667533382 0.2558632053 0.25504194694 
0.25414913875 0.25310580547 0.25182235417 0.25020303943 0.24814937594 0.24556315547 0.24234958348 0.23842070301 0.23369891415 
0.22812017294 0.22163643626 0.21421709877 0.20584945088 0.19653842874 0.18630600529 0.17519044449 0.16324538179 0.15053845065 
0.137149093 0.12316533041 0.10867957892 0.093783932805 0.078565582655 0.063103085169 0.04746406182 0.031704632389 0.015870582041 
7.1698505264e-16 
_area 1 100 double
0 0.00066810605878 0.0026510128575 0.0058861296943 0.01027424187 0.015685902388 0.021968302309 0.028952037754 0.036458114652 
0.044304665746 0.052310849704 0.060295282949 0.068069253599 0.075428838232 0.082152058806 0.088006118448 0.09276632808 0.096244316477 
0.098319975918 0.098970131189 0.098287269764 0.096483310281 0.093875130513 0.090849160588 0.087803887455 0.085081899394 0.082924548278 
0.081469315723 0.080767916669 0.08079969974 0.081476810139 0.082648767623 0.084118658852 0.085679094176 0.08715983276 0.088473612538 
0.089664352683 0.090917065852 0.092298051787 0.093599378729 0.094618545628 0.095303962972 0.095752745562 0.096166363218 0.09684613801 
0.098205384615 0.1003599785 0.10328174504 0.10709147275 0.11193311318 0.11787584108 0.12485995763 0.13268477807 0.1410367693 
0.14955253951 0.15792257182 0.16603735087 0.17346604891 0.1800037899 0.18508449333 0.18869363513 0.19080255593 0.19133701015 
0.19045752231 0.18843074597 0.18553972108 0.18204338938 0.17821456463 0.17428289705 0.17038771219 0.16658592745 0.16289379108 
0.15931404899 0.15583790208 0.15245251517 0.1491211705 0.14575480457 0.14221029522 0.13831190801 0.13388226302 0.12877297749 
0.12288807014 0.11619537489 0.10872524721 0.10055978863 0.091818040616 0.082642788286 0.073192651872 0.063639594973 0.054168524057 
0.044974404775 0.036254189105 0.028194490471 0.020958788921 0.014678362245 0.0094493782003 0.0053360054332 0.0023773342401 0.00059512273402 
9.8507075876e-17 
