# vtk DataFile Version 5.1
vtk output
ASCII
DATASET POLYDATA
POINTS 100 float
-0.0419753 0.0153942 0.679177 -0.0417938 0.0153879 0.679184 -0.0413076 0.0155641 0.679151 
-0.0405709 0.0159202 0.678992 -0.039664 0.0164519 0.678574 -0.0386812 0.0171549 0.67773 
-0.0377156 0.0180262 0.676275 -0.0368437 0.0190657 0.674022 -0.0361116 0.0202771 0.670803 
-0.0355243 0.0216687 0.666478 -0.0350403 0.0232532 0.660953 -0.0345719 0.0250469 0.654178 
-0.0339916 0.0270674 0.646158 -0.0331431 0.0293314 0.636941 -0.0318576 0.0318514 0.626611 
-0.0299708 0.0346315 0.61528 -0.0273411 0.0376646 0.60307 -0.0238648 0.0409288 0.590103 
-0.0194885 0.044385 0.576484 -0.0142151 0.0479764 0.562293 -0.00810452 0.0516281 0.547579 
-0.00126807 0.0552495 0.53236 0.00614229 0.0587381 0.516621 0.0139488 0.0619842 0.500322 
0.0219648 0.0648773 0.483408 0.0300119 0.0673132 0.46582 0.0379353 0.0692008 0.447502 
0.0456156 0.070469 0.428417 0.0529759 0.0710718 0.408547 0.0599836 0.0709926 0.387905 
0.0666466 0.0702454 0.366531 0.0730057 0.0688749 0.344489 0.0791222 0.0669531 0.321865 
0.0850654 0.0645747 0.298759 0.0908981 0.0618498 0.275271 0.0966651 0.0588966 0.251499 
0.102384 0.0558321 0.227527 0.108038 0.0527644 0.203421 0.113579 0.0497854 0.179229 
0.118925 0.046965 0.154975 0.123972 0.0443476 0.130672 0.128598 0.0419516 0.106317 
0.132679 0.0397701 0.0819066 0.136094 0.037775 0.0574419 0.138739 0.0359224 0.0329346 
0.14053 0.0341597 0.00841392 0.141412 0.0324322 -0.0160708 0.141355 0.0306907 -0.0404496 
0.140359 0.0288977 -0.0646345 0.138445 0.0270315 -0.0885252 0.135655 0.0250893 -0.112016 
0.13204 0.0230874 -0.135004 0.127662 0.02106 -0.157399 0.122584 0.0190555 -0.179128 
0.116866 0.017132 -0.200147 0.11057 0.0153517 -0.220436 0.103752 0.0137751 -0.240005 
0.0964665 0.0124558 -0.258888 0.0887674 0.0114364 -0.277141 0.08071 0.0107458 -0.29483 
0.0723522 0.0103974 -0.312024 0.0637552 0.0103902 -0.328788 0.0549834 0.01071 -0.345176 
0.0461036 0.0113323 -0.361221 0.0371828 0.0122264 -0.376939 0.0282867 0.013358 -0.39232 
0.0194768 0.0146934 -0.407341 0.0108086 0.0162012 -0.421964 0.00233106 0.0178546 -0.436145 
-0.00591448 0.019631 -0.449841 -0.0138932 0.0215118 -0.46302 -0.0215754 0.0234807 -0.475661 
-0.028935 0.0255214 -0.487764 -0.0359472 0.0276155 -0.499347 -0.0425871 0.0297407 -0.510444 
-0.048829 0.0318686 -0.521101 -0.0546463 0.0339651 -0.531369 -0.0600133 0.0359901 -0.541294 
-0.0649073 0.0378997 -0.550911 -0.0693115 0.0396479 -0.560234 -0.0732187 0.0411901 -0.569248 
-0.0766341 0.0424865 -0.577912 -0.0795772 0.043505 -0.586157 -0.0820828 0.044224 -0.593889 
-0.0842002 0.0446346 -0.600998 -0.0859903 0.0447415 -0.607369 -0.0875214 0.0445629 -0.612895 
-0.0888637 0.0441291 -0.61749 -0.0900833 0.0434808 -0.621099 -0.0912361 0.0426662 -0.62371 
-0.092363 0.0417379 -0.625356 -0.0934861 0.0407502 -0.626123 -0.0946073 0.0397556 -0.62614 
-0.0957093 0.0388029 -0.625575 -0.0967584 0.0379356 -0.624623 -0.0977097 0.0371903 -0.623487 
-0.0985132 0.0365966 -0.622368 -0.099121 0.0361771 -0.621441 -0.0994932 0.0359472 -0.620845 
-0.0996041 0.0359161 -0.620669 
LINES 2 100
OFFSETS vtktypeint64
0 100 
CONNECTIVITY vtktypeint64
0 1 2 3 4 5 6 7 8 
9 10 11 12 13 14 15 16 17 
18 19 20 21 22 23 24 25 26 
27 28 29 30 31 32 33 34 35 
36 37 38 39 40 41 42 43 44 
45 46 47 48 49 50 51 52 53 
54 55 56 57 58 59 60 61 62 
63 64 65 66 67 68 69 70 71 
72 73 74 75 76 77 78 79 80 
81 82 83 84 85 86 87 88 89 
90 91 92 93 94 95 96 97 98 
99 
POINT_DATA 100
FIELD FieldData 3
_theta 1 100 double
0 0.031733259127 0.063466518254 0.095199777382 0.12693303651 0.15866629564 0.19039955476 0.22213281389 0.25386607302 
0.28559933214 0.31733259127 0.3490658504 0.38079910953 0.41253236865 0.44426562778 0.47599888691 0.50773214603 0.53946540516 
0.57119866429 0.60293192342 0.63466518254 0.66639844167 0.6981317008 0.72986495992 0.76159821905 0.79333147818 0.82506473731 
0.85679799643 0.88853125556 0.92026451469 0.95199777382 0.98373103294 1.0154642921 1.0471975512 1.0789308103 1.1106640695 
1.1423973286 1.1741305877 1.2058638468 1.237597106 1.2693303651 1.3010636242 1.3327968833 1.3645301425 1.3962634016 
1.4279966607 1.4597299198 1.491463179 1.5231964381 1.5549296972 1.5866629564 1.6183962155 1.6501294746 1.6818627337 
1.7135959929 1.745329252 1.7770625111 1.8087957702 1.8405290294 1.8722622885 1.9039955476 1.9357288068 1.9674620659 
1.999195325 2.0309285841 2.0626618433 2.0943951024 2.1261283615 2.1578616206 2.1895948798 2.2213281389 2.253061398 
2.2847946572 2.3165279163 2.3482611754 2.3799944345 2.4117276937 2.4434609528 2.4751942119 2.506927471 2.5386607302 
2.5703939893 2.6021272484 2.6338605076 2.6655937667 2.6973270258 2.7290602849 2.7607935441 2.7925268032 2.8242600623 
2.8559933214 2.8877265806 2.9194598397 2.9511930988 2.982926358 3.0146596171 3.0463928762 3.0781261353 3.1098593945 
3.1415926536 
_radius 1 100 double
1.1328952961e-16 0.014325044422 0.028591601031 0.04273501619 0.056684901136 0.070362744354 0.083680323901 0.096539526595 0.10883413178 
0.12045382484 0.1312902363 0.14124431429 0.15023400354 0.15820112232 0.16511648274 0.17098259173 0.17583359792 0.17973246815 
0.18276568576 0.18503606795 0.18665457305 0.18773215301 0.18837273442 0.18866823104 0.18869609585 0.18851938313 0.18818877681 
0.18774575393 0.18722609762 0.18666322929 0.1860909995 0.18554548646 0.18506519995 0.18468928418 0.18445396039 0.18438817067 
0.18450971578 0.184822998 0.18531899572 0.18597759177 0.18677200115 0.18767477526 0.18866461214 0.18973295682 0.19088922171 
0.19216350809 0.19360600596 0.19528274209 0.19726794763 0.19963392009 0.20243974614 0.20572053142 0.20947880208 0.21367950927 
0.21824959762 0.22308241688 0.22804646202 0.23299721065 0.23779036805 0.24229468273 0.2464026265 0.25003759767 0.25315686304 
0.25575011821 0.25783418441 0.2594448476 0.26062711825 0.26142525448 0.26187378833 0.26199055813 0.26177240804 0.26119382252 
0.2602084073 0.25875287912 0.25675308185 0.25413143955 0.2508151233 0.24674404404 0.24187764416 0.23619943818 0.22971844099 
0.22246706726 0.21449573429 0.20586509335 0.19663733547 0.18686818439 0.17660091817 0.16586313484 0.15466625912 0.14300730107 
0.13087229761 0.11824108666 0.10509329101 0.091415367902 0.077208246938 0.062494581602 0.04732424565 0.031776666002 0.015959004742 
7.7561095961e-16 
_area 1 100 double
0 0.0005597422614 0.0022272816197 0.0049675704646 0.0087224131426 0.013411196176 0.01893221924 0.0251642104 0.031967178598 
0.039181742754 0.046626836552 0.054097389357 0.061365494363 0.068188981784 0.074329245457 0.079576752512 0.083779832323 0.086871027318 
0.088885293507 0.089964785703 0.090344440788 0.090311332592 0.090137635698 0.090012703191 0.090015820018 0.090137382275 0.090318103252 
0.090482432741 0.090563554612 0.090522981265 0.090362144049 0.090121852485 0.089871365356 0.089693227746 0.089669017908 0.089868805181 
0.090345550856 0.091132005211 0.092235192949 0.093629833855 0.095258831368 0.097045190823 0.098909850688 0.10079426636 0.1026770864 
0.10457971444 0.10656662598 0.10873811833 0.11121700639 0.11413630853 0.11762775854 0.12179659686 0.12667817985 0.13221095636 
0.13825304506 0.14461159364 0.15106589927 0.15738852607 0.16336710609 0.16882358605 0.17362551717 0.17768632906 0.18095718361 
0.1834176805 0.18507145495 0.18594625919 0.18609282757 0.18557685681 0.18446302079 0.18279657149 0.1805925286 0.17783913568 
0.17451228598 0.17059083821 0.16606445419 0.16093176974 0.15519327148 0.14884818589 0.14190339456 0.13439212144 0.12638919433 
0.11800992202 0.10939020199 0.1006561602 0.0918976013 0.083160298775 0.074462454927 0.065823161622 0.057284768163 0.048921253944 
0.040835085492 0.033148066053 0.025990607134 0.019492016927 0.0137729748 0.0089404511481 0.0050847278569 0.0022777731153 0.00057215134069 
2.2530147411e-17 
