# vtk DataFile Version 5.1
vtk output
ASCII
DATASET POLYDATA
POINTS 100 float
-0.122494 -0.0609897 0.757679 -0.122895 -0.0610066 0.757792 -0.124158 -0.0607612 0.758042 
-0.126162 -0.0602216 0.758318 -0.128719 -0.0593402 0.758448 -0.131581 -0.0580578 0.758215 
-0.134469 -0.0563082 0.757382 -0.137085 -0.0540239 0.755711 -0.139143 -0.0511416 0.752991 
-0.14038 -0.0476081 0.749051 -0.140581 -0.0433857 0.74378 -0.139584 -0.038456 0.737128 
-0.137291 -0.0328232 0.729112 -0.133669 -0.0265162 0.719802 -0.128743 -0.0195888 0.709316 
-0.12259 -0.0121188 0.697796 -0.115326 -0.00420514 0.685392 -0.107092 0.00403488 0.672248 
-0.0980455 0.0124706 0.658477 -0.0883397 0.020963 0.644159 -0.0781198 0.0293699 0.629331 
-0.067512 0.0375516 0.613986 -0.0566197 0.0453758 0.598081 -0.0455215 0.052722 0.581547 
-0.0342722 0.0594854 0.564297 -0.0229061 0.0655793 0.546245 -0.0114418 0.0709368 0.527318 
0.000112418 0.0755112 0.507463 0.0117525 0.0792759 0.486656 0.0234731 0.0822224 0.464907 
0.0352622 0.084359 0.442253 0.0470964 0.0857073 0.418759 0.0589376 0.0863005 0.394503 
0.0707297 0.0861799 0.369572 0.0823969 0.0853925 0.344051 0.0938425 0.0839893 0.318016 
0.104949 0.0820231 0.291529 0.11558 0.0795483 0.264638 0.125581 0.07662 0.237376 
0.134789 0.0732944 0.209769 0.143034 0.0696296 0.181843 0.150148 0.0656858 0.153629 
0.155976 0.0615266 0.125177 0.160387 0.0572189 0.0965532 0.16328 0.0528336 0.0678508 
0.164598 0.0484443 0.039185 0.164333 0.0441266 0.0106905 0.16253 0.0399562 -0.0174863 
0.159292 0.0360061 -0.045197 0.154771 0.0323443 -0.0723021 0.149165 0.0290306 -0.0986826 
0.142706 0.0261139 -0.124249 0.135643 0.0236297 -0.148948 0.128229 0.0215989 -0.172765 
0.120704 0.0200271 -0.195725 0.113277 0.0189044 -0.217885 0.106116 0.0182078 -0.239327 
0.0993372 0.0179027 -0.260149 0.0930027 0.017947 -0.280447 0.0871208 0.0182942 -0.300312 
0.0816532 0.0188976 -0.319815 0.0765261 0.0197134 -0.339002 0.0716441 0.0207044 -0.357889 
0.0669062 0.0218411 -0.376467 0.0622209 0.0231031 -0.394704 0.0575197 0.024479 -0.412551 
0.0527667 0.0259641 -0.429956 0.0479638 0.0275587 -0.44687 0.0431511 0.029265 -0.46326 
0.0384017 0.0310835 -0.479112 0.0338128 0.0330103 -0.49444 0.0294938 0.0350349 -0.509283 
0.0255528 0.0371386 -0.523705 0.0220837 0.0392945 -0.537784 0.0191554 0.0414687 -0.551608 
0.0168037 0.0436228 -0.565259 0.0150282 0.0457175 -0.578806 0.0137934 0.0477161 -0.592292 
0.0130339 0.0495894 -0.605725 0.0126634 0.0513188 -0.619077 0.0125853 0.0528994 -0.632278 
0.0127046 0.0543412 -0.645224 0.0129383 0.0556692 -0.657779 0.0132234 0.0569214 -0.66979 
0.0135224 0.0581449 -0.681095 0.0138235 0.0593911 -0.691538 0.0141385 0.0607102 -0.700983 
0.0144956 0.0621447 -0.709324 0.0149315 0.0637238 -0.716494 0.0154815 0.0654586 -0.722474 
0.0161701 0.0673394 -0.727291 0.0170041 0.0693342 -0.731018 0.0179677 0.07139 -0.733769 
0.0190219 0.0734363 -0.735687 0.020107 0.07539 -0.736934 0.0211491 0.0771625 -0.73768 
0.0220682 0.0786671 -0.738084 0.0227884 0.0798265 -0.738288 0.023247 0.08058 -0.7384 
0.0234032 0.0808887 -0.738488 
LINES 2 100
OFFSETS vtktypeint64
0 100 
CONNECTIVITY vtktypeint64
0 1 2 3 4 5 6 7 8 
9 10 11 12 13 14 15 16 17 
18 19 20 21 22 23 24 25 26 
27 28 29 30 31 32 33 34 35 
36 37 38 39 40 41 42 43 44 
45 46 47 48 49 50 51 52 53 
54 55 56 57 58 59 60 61 62 
63 64 65 66 67 68 69 70 71 
72 73 74 75 76 77 78 79 80 
81 82 83 84 85 86 87 88 89 
90 91 92 93 94 95 96 97 98 
99 
POINT_DATA 100
FIELD FieldData 3
_theta 1 100 double
0 0.031733259127 0.063466518254 0.095199777382 0.12693303651 0.15866629564 0.19039955476 0.22213281389 0.25386607302 
0.28559933214 0.31733259127 0.3490658504 0.38079910953 0.41253236865 0.44426562778 0.47599888691 0.50773214603 0.53946540516 
0.57119866429 0.60293192342 0.63466518254 0.66639844167 0.6981317008 0.72986495992 0.76159821905 0.79333147818 0.82506473731 
0.85679799643 0.88853125556 0.92026451469 0.95199777382 0.98373103294 1.0154642921 1.0471975512 1.0789308103 1.1106640695 
1.1423973286 1.1741305877 1.2058638468 1.237597106 1.2693303651 1.3010636242 1.3327968833 1.3645301425 1.3962634016 
1.4279966607 1.4597299198 1.491463179 1.5231964381 1.5549296972 1.5866629564 1.6183962155 1.6501294746 1.6818627337 
1.7135959929 1.745329252 1.7770625111 1.8087957702 1.8405290294 1.8722622885 1.9039955476 1.9357288068 1.9674620659 
1.999195325 2.0309285841 2.0626618433 2.0943951024 2.1261283615 2.1578616206 2.1895948798 2.2213281389 2.253061398 
2.2847946572 2.3165279163 2.3482611754 2.3799944345 2.4117276937 2.4434609528 2.4751942119 2.506927471 2.5386607302 
2.5703939893 2.6021272484 2.6338605076 2.6655937667 2.6973270258 2.7290602849 2.7607935441 2.7925268032 2.8242600623 
2.8559933214 2.8877265806 2.9194598397 2.9511930988 2.982926358 3.0146596171 3.0463928762 3.0781261353 3.1098593945 
3.1415926536 
_radius 1 100 double
1.6807742831e-15 0.017738558414 0.03522509241 0.052215024118 0.068490634593 0.08387175762 0.09822277079 0.11145501715 0.12352451278 
0.13442564758 0.1441822208 0.15283739641 0.16044409535 0.16705712852 0.17272807337 0.17750345575 0.18142618844 0.1845395487 
0.18689245969 0.18854465135 0.18957044018 0.19006026315 0.19011955112 0.18986490643 0.18941782469 0.18889643148 0.1884059964 
0.18802940375 0.18781921306 0.18779317984 0.18793482707 0.18819974179 0.18852694815 0.188853478 0.18912950527 0.18933114007 
0.18946811726 0.18958444198 0.18975198912 0.19005982203 0.19060403503 0.19148220905 0.1927929357 0.19463691276 0.19711465283 
0.20031733219 0.20431049102 0.20911388968 0.21468370776 0.22090408458 0.22759272938 0.23452060063 0.24144084347 0.24811968357 
0.25436247865 0.2600305653 0.26504739055 0.26939472866 0.27310126991 0.27622657281 0.27884342894 0.28102129257 0.28281280907 
0.28424482346 0.28531461732 0.28599145329 0.28622278328 0.28594380726 0.2850886287 0.28360114399 0.28144400599 0.27860442245 
0.27509608858 0.2709571323 0.26624450443 0.26102571745 0.255369167 0.24933441299 0.2429637315 0.23627600603 0.22926368373 
0.22189315861 0.21410859733 0.20583887532 0.1970069178 0.18754036258 0.17738216432 0.1664996515 0.15489069763 0.14258607293 
0.1296476207 0.11616253472 0.1022345819 0.087973536854 0.073484332827 0.058857479337 0.044162150635 0.029443007832 0.014721286113 
1.8244299047e-15 
_area 1 100 double
0 0.00075254673793 0.0030009820193 0.0067070330447 0.011776441333 0.018029950437 0.025189518282 0.032890869316 0.040721588811 
0.048274096841 0.055199261261 0.061247951287 0.066291642355 0.070317690113 0.073400484457 0.07565753631 0.077207470185 0.07814693172 
0.078551829617 0.078495256685 0.078070652216 0.077413015672 0.076720462158 0.076333977093 0.076269390617 0.076174571849 0.075982970845 
0.07575597541 0.075611436115 0.075670540231 0.076013130494 0.076656161355 0.077569448145 0.078735313069 0.08025037716 0.082282788971 
0.08477115703 0.087565895128 0.090567156188 0.093699544215 0.096885155943 0.10003799046 0.10308916791 0.10603456268 0.10897861063 
0.11214710195 0.11585781996 0.12045781377 0.12623819862 0.13331789111 0.14157704888 0.15070761029 0.16027798419 0.16979844289 
0.17879773941 0.18688957688 0.1938144618 0.19945390017 0.20382145224 0.20704366164 0.20935513181 0.21113073514 0.21277518631 
0.21433375052 0.21559915202 0.21636583605 0.21646114177 0.21574730649 0.21412033224 0.21151183175 0.20789419218 0.20328671451 
0.19776000759 0.19143417779 0.18446768364 0.17703836591 0.16932199315 0.16147295504 0.15360852506 0.14579670433 0.13804850639 
0.13031696206 0.1225061123 0.11449212564 0.10615394987 0.09740550394 0.088220586204 0.078645639964 0.068799965047 0.058865349519 
0.049067927976 0.03965540051 0.030872957866 0.022941327218 0.016040135346 0.010299087031 0.005798127028 0.0025758672376 0.00064351711292 
4.592861031e-17 
