# vtk DataFile Version 5.1
vtk output
ASCII
DATASET POLYDATA
POINTS 100 float
-0.121412 -0.0515986 0.715514 -0.121418 -0.0514956 0.715414 -0.12148 -0.0509755 0.715077 
-0.121581 -0.0500307 0.714431 -0.121691 -0.0486503 0.71337 -0.12177 -0.0468213 0.711762 
-0.121759 -0.0445282 0.709467 -0.121589 -0.0417549 0.706356 -0.121174 -0.0384859 0.702323 
-0.120417 -0.0347086 0.697297 -0.119213 -0.0304164 0.691251 -0.117453 -0.0256118 0.6842 
-0.115032 -0.0203103 0.676201 -0.111852 -0.0145429 0.667334 -0.107835 -0.00835913 0.657699 
-0.102924 -0.00182778 0.647393 -0.0970905 0.0049632 0.6365 -0.0903393 0.0119089 0.625075 
-0.0827072 0.0188914 0.613139 -0.0742622 0.0257851 0.600675 -0.0650991 0.0324634 0.587628 
-0.0553325 0.0388057 0.573917 -0.0450885 0.0447042 0.559445 -0.034495 0.0500703 0.544111 
-0.0236724 0.0548383 0.527825 -0.0127255 0.0589687 0.510522 -0.00173719 0.0624474 0.492169 
0.00923494 0.0652839 0.472773 0.0201586 0.0675067 0.452374 0.0310237 0.069158 0.431049 
0.0418356 0.070287 0.408896 0.0526064 0.0709431 0.386023 0.0633445 0.0711713 0.362539 
0.0740438 0.0710071 0.338541 0.0846738 0.0704758 0.314104 0.0951722 0.0695916 0.28928 
0.10544 0.0683609 0.264095 0.115342 0.066786 0.238557 0.12471 0.0648701 0.212663 
0.133349 0.0626229 0.186409 0.141054 0.0600649 0.159807 0.14762 0.0572315 0.13289 
0.152856 0.0541735 0.105723 0.156606 0.0509569 0.0784076 0.158759 0.0476599 0.0510794 
0.159259 0.0443672 0.0239018 0.158113 0.0411646 -0.00294416 0.155392 0.0381317 -0.0292745 
0.151226 0.0353355 -0.0549175 0.145796 0.0328254 -0.0797288 0.139322 0.0306298 -0.103604 
0.132044 0.0287553 -0.126488 0.124211 0.0271884 -0.148378 0.116056 0.025899 -0.169321 
0.107788 0.024847 -0.189409 0.099573 0.0239881 -0.208763 0.0915327 0.0232813 -0.227522 
0.0837363 0.0226947 -0.245827 0.0762043 0.0222103 -0.263806 0.0689142 0.021826 -0.281559 
0.0618101 0.0215554 -0.299154 0.0548152 0.0214254 -0.316624 0.0478446 0.0214715 -0.333964 
0.0408188 0.0217319 -0.351143 0.0336743 0.0222405 -0.368108 0.0263722 0.0230214 -0.384799 
0.018903 0.0240839 -0.401161 0.0112878 0.0254194 -0.417149 0.00357529 0.0270013 -0.43274 
-0.00416363 0.0287865 -0.447934 -0.011844 0.0307203 -0.462751 -0.019376 0.0327415 -0.47723 
-0.0266736 0.0347894 -0.491417 -0.0336633 0.0368103 -0.505358 -0.0402892 0.0387626 -0.519089 
-0.0465171 0.040621 -0.532626 -0.0523342 0.042378 -0.545957 -0.0577477 0.0440423 -0.559043 
-0.0627795 0.0456364 -0.571819 -0.0674605 0.0471906 -0.584194 -0.071824 0.0487376 -0.596063 
-0.0758993 0.0503056 -0.607319 -0.0797066 0.0519128 -0.617856 -0.0832539 0.0535634 -0.627589 
-0.086536 0.0552456 -0.636454 -0.0895361 0.056932 -0.644416 -0.0922289 0.0585825 -0.651474 
-0.0945866 0.060149 -0.657655 -0.0965839 0.0615821 -0.663009 -0.0982047 0.0628369 -0.667608 
-0.0994465 0.0638798 -0.671531 -0.100324 0.0646925 -0.674859 -0.100871 0.0652756 -0.677669 
-0.101137 0.0656479 -0.680025 -0.101187 0.0658445 -0.681977 -0.10109 0.0659122 -0.683562 
-0.100921 0.0659033 -0.684801 -0.100746 0.0658685 -0.685706 -0.100616 0.0658502 -0.68628 
-0.100567 0.0658768 -0.686524 
LINES 2 100
OFFSETS vtktypeint64
0 100 
CONNECTIVITY vtktypeint64
0 1 2 3 4 5 6 7 8 
9 10 11 12 13 14 15 16 17 
18 19 20 21 22 23 24 25 26 
27 28 29 30 31 32 33 34 35 
36 37 38 39 40 41 42 43 44 
45 46 47 48 49 50 51 52 53 
54 55 56 57 58 59 60 61 62 
63 64 65 66 67 68 69 70 71 
72 73 74 75 76 77 78 79 80 
81 82 83 84 85 86 87 88 89 
90 91 92 93 94 95 96 97 98 
99 
POINT_DATA 100
FIELD FieldData 3
_theta 1 100 double
0 0.031733259127 0.063466518254 0.095199777382 0.12693303651 0.15866629564 0.19039955476 0.22213281389 0.25386607302 
0.28559933214 0.31733259127 0.3490658504 0.38079910953 0.41253236865 0.44426562778 0.47599888691 0.50773214603 0.53946540516 
0.57119866429 0.60293192342 0.63466518254 0.66639844167 0.6981317008 0.72986495992 0.76159821905 0.79333147818 0.82506473731 
0.85679799643 0.88853125556 0.92026451469 0.95199777382 0.98373103294 1.0154642921 1.0471975512 1.0789308103 1.1106640695 
1.1423973286 1.1741305877 1.2058638468 1.237597106 1.2693303651 1.3010636242 1.3327968833 1.3645301425 1.3962634016 
1.4279966607 1.4597299198 1.491463179 1.5231964381 1.5549296972 1.5866629564 1.6183962155 1.6501294746 1.6818627337 
1.7135959929 1.745329252 1.7770625111 1.8087957702 1.8405290294 1.8722622885 1.9039955476 1.9357288068 1.9674620659 
1.999195325 2.0309285841 2.0626618433 2.0943951024 2.1261283615 2.1578616206 2.1895948798 2.2213281389 2.253061398 
2.2847946572 2.3165279163 2.3482611754 2.3799944345 2.4117276937 2.4434609528 2.4751942119 2.506927471 2.5386607302 
2.5703939893 2.6021272484 2.6338605076 2.6655937667 2.6973270258 2.7290602849 2.7607935441 2.7925268032 2.8242600623 
2.8559933214 2.8877265806 2.9194598397 2.9511930988 2.982926358 3.0146596171 3.0463928762 3.0781261353 3.1098593945 
3.1415926536 
_radius 1 100 double
1.887634231e-15 0.015941188996 0.03175327248 0.047304375434 0.062468809815 0.077131587133 0.091193216658 0.10457358808 0.11721349963 
0.12907277153 0.14012484322 0.15034898858 0.15972232635 0.16821419936 0.17578501823 0.18239043129 0.18799011893 0.1925591612 
0.19609921856 0.19864685221 0.20027706535 0.20110127603 0.20126010427 0.20091228192 0.20022147121 0.19934274217 0.19841005309 
0.19752564414 0.1967521562 0.19610859743 0.19557159007 0.19508295886 0.19456336334 0.19392995714 0.19311515732 0.19208385643 
0.1908467962 0.18946763645 0.18806124636 0.18678209904 0.18580495147 0.18530413714 0.18543879388 0.18634608656 0.18813707001 
0.1908878943 0.19462405774 0.19930252653 0.20480057859 0.21091870565 0.21739905142 0.22395483563 0.23030348555 0.23619692615 
0.24144472933 0.24592798245 0.24960332362 0.25249775384 0.25469576299 0.2563210272 0.25751538537 0.25841792371 0.25914678539 
0.25978579478 0.26037717876 0.26092068541 0.26137845122 0.26168427091 0.26175556184 0.2615062015 0.26085842999 0.25975212922 
0.25815010108 0.25603854841 0.25342279361 0.25031919789 0.24674503391 0.24270848699 0.23820088433 0.23319270245 0.22763404359 
0.2214593408 0.21459527484 0.20697041666 0.19852500158 0.18921944496 0.17904060578 0.16800524958 0.15616054194 0.14358166752 
0.13036683507 0.11663006664 0.10249235201 0.088072003729 0.073475314036 0.058788770452 0.044074011625 0.029366360263 0.014677219835 
7.2196087646e-16 
_area 1 100 double
0 0.00066454339098 0.0026328345124 0.0058273556137 0.010115190834 0.01530710551 0.021164527729 0.027418260621 0.033797817848 
0.040064942896 0.04604161457 0.051622582702 0.056765927091 0.06146350017 0.065704767056 0.069453775142 0.072651539919 0.075240895061 
0.077200817586 0.07857632595 0.079491923107 0.080130677851 0.080660990006 0.081160077206 0.08162395585 0.082030998286 0.082383702599 
0.082719000069 0.083099700679 0.083600215621 0.084276350713 0.085132032106 0.086104224546 0.08705475606 0.08780578893 0.088207078226 
0.088216735093 0.08795639936 0.087666140526 0.087606857179 0.088016196079 0.089007444112 0.090437458548 0.092111918368 0.094083092076 
0.096635153053 0.10008263473 0.10458418609 0.11012874239 0.11658402496 0.12371675921 0.13119934063 0.13863059742 0.1455812944 
0.15165593129 0.15655401732 0.16011509513 0.1623371683 0.16336619228 0.16346390787 0.16297066179 0.16228402637 0.16182436351 
0.16184369164 0.16230580968 0.16304554986 0.16386184462 0.16453952702 0.16486573852 0.16464934476 0.16374086015 0.16204968991 
0.15955492674 0.15630507978 0.15240344775 0.1479805537 0.14316150869 0.13803943018 0.13266211539 0.12703198111 0.12111554615 
0.11485847312 0.10820257486 0.10110186568 0.093536242927 0.085522648361 0.077122585818 0.068442983829 0.059628940463 0.050851567594 
0.042295826853 0.034149757155 0.026593530234 0.019788194176 0.013866479254 0.0089281749868 0.0050408761762 0.0022451156943 0.0005618554045 
7.2767489502e-17 
