# vtk DataFile Version 5.1
vtk output
ASCII
DATASET POLYDATA
POINTS 100 float
-0.115053 -0.0468004 0.71585 -0.114917 -0.0466926 0.715828 -0.114533 -0.0461801 0.715715 
-0.113906 -0.0452643 0.715423 -0.113041 -0.0439485 0.714817 -0.111949 -0.0422373 0.713731 
-0.110637 -0.0401354 0.71199 -0.109113 -0.0376469 0.70943 -0.107382 -0.0347745 0.705916 
-0.105444 -0.0315197 0.701358 -0.103286 -0.027883 0.695722 -0.100888 -0.0238651 0.68903 
-0.0982138 -0.0194684 0.681352 -0.09521 -0.0146996 0.672802 -0.0918086 -0.00957156 0.663511 
-0.0879272 -0.00410628 0.653618 -0.083473 0.00166347 0.643243 -0.0783485 0.00769239 0.632474 
-0.0724596 0.013922 0.621354 -0.0657233 0.0202809 0.609875 -0.0580774 0.0266861 0.597976 
-0.0494882 0.0330452 0.585556 -0.0399569 0.0392597 0.572482 -0.0295238 0.0452286 0.558607 
-0.0182688 0.0508522 0.54379 -0.00630857 0.0560368 0.527913 0.00620944 0.0606977 0.510891 
0.0191164 0.0647629 0.49269 0.032233 0.0681749 0.473321 0.0453811 0.0708926 0.452846 
0.0583952 0.0728916 0.431362 0.0711315 0.0741639 0.408995 0.0834743 0.0747171 0.385879 
0.095338 0.0745727 0.362145 0.106666 0.0737642 0.337904 0.117425 0.072336 0.313242 
0.127594 0.0703411 0.288207 0.137159 0.0678397 0.262819 0.146095 0.0648985 0.23707 
0.154361 0.0615891 0.210938 0.161893 0.0579877 0.184397 0.168595 0.0541741 0.157435 
0.17435 0.050231 0.130067 0.179016 0.0462425 0.10234 0.182445 0.0422925 0.0743461 
0.184493 0.0384633 0.046216 0.185035 0.0348325 0.018116 0.183984 0.0314714 -0.0097635 
0.181301 0.0284413 -0.0372222 0.177005 0.0257923 -0.0640669 0.171179 0.0235602 -0.0901271 
0.163966 0.0217661 -0.11527 0.155563 0.0204153 -0.139409 0.146205 0.0194979 -0.162511 
0.136151 0.0189906 -0.184593 0.125662 0.0188583 -0.205718 0.11498 0.019058 -0.225982 
0.104313 0.0195414 -0.245503 0.0938173 0.0202589 -0.2644 0.0835925 0.0211631 -0.282784 
0.0736766 0.0222111 -0.300741 0.0640504 0.0233667 -0.318326 0.0546477 0.0246018 -0.33556 
0.045369 0.0258956 -0.352428 0.0360986 0.0272342 -0.368891 0.0267227 0.0286085 -0.384892 
0.0171454 0.0300117 -0.400371 0.00730221 0.031437 -0.415278 -0.00283088 0.0328749 -0.429583 
-0.0132338 0.0343112 -0.443288 -0.0238439 0.0357261 -0.456427 -0.0345627 0.0370938 -0.469073 
-0.0452655 0.0383837 -0.481323 -0.0558142 0.039562 -0.493297 -0.0660702 0.040595 -0.505118 
-0.075906 0.041452 -0.516902 -0.0852153 0.0421094 -0.528741 -0.0939188 0.0425535 -0.540687 
-0.101967 0.0427839 -0.552747 -0.109339 0.0428147 -0.564875 -0.116037 0.0426751 -0.576972 
-0.122082 0.0424085 -0.588892 -0.127506 0.04207 -0.600453 -0.132344 0.0417224 -0.61145 
-0.136628 0.0414317 -0.621671 -0.140385 0.0412617 -0.63092 -0.143635 0.0412683 -0.639027 
-0.146394 0.0414944 -0.64587 -0.148673 0.0419657 -0.651382 -0.150488 0.0426877 -0.655558 
-0.151861 0.0436444 -0.65846 -0.152824 0.0447986 -0.660208 -0.153424 0.0460945 -0.660975 
-0.153719 0.0474616 -0.660972 -0.15378 0.0488198 -0.660434 -0.153684 0.050086 -0.659601 
-0.153507 0.0511805 -0.658697 -0.153319 0.0520333 -0.657921 -0.153176 0.0525903 -0.657421 
-0.153115 0.0528172 -0.657294 
LINES 2 100
OFFSETS vtktypeint64
0 100 
CONNECTIVITY vtktypeint64
0 1 2 3 4 5 6 7 8 
9 10 11 12 13 14 15 16 17 
18 19 20 21 22 23 24 25 26 
27 28 29 30 31 32 33 34 35 
36 37 38 39 40 41 42 43 44 
45 46 47 48 49 50 51 52 53 
54 55 56 57 58 59 60 61 62 
63 64 65 66 67 68 69 70 71 
72 73 74 75 76 77 78 79 80 
81 82 83 84 85 86 87 88 89 
90 91 92 93 94 95 96 97 98 
99 
POINT_DATA 100
FIELD FieldData 3
_theta 1 100 double
0 0.031733259127 0.063466518254 0.095199777382 0.12693303651 0.15866629564 0.19039955476 0.22213281389 0.25386607302 
0.28559933214 0.31733259127 0.3490658504 0.38079910953 0.41253236865 0.44426562778 0.47599888691 0.50773214603 0.53946540516 
0.57119866429 0.60293192342 0.63466518254 0.66639844167 0.6981317008 0.72986495992 0.76159821905 0.79333147818 0.82506473731 
0.85679799643 0.88853125556 0.92026451469 0.95199777382 0.98373103294 1.0154642921 1.0471975512 1.0789308103 1.1106640695 
1.1423973286 1.1741305877 1.2058638468 1.237597106 1.2693303651 1.3010636242 1.3327968833 1.3645301425 1.3962634016 
1.4279966607 1.4597299198 1.491463179 1.5231964381 1.5549296972 1.5866629564 1.6183962155 1.6501294746 1.6818627337 
1.7135959929 1.745329252 1.7770625111 1.8087957702 1.8405290294 1.8722622885 1.9039955476 1.9357288068 1.9674620659 
1.999195325 2.0309285841 2.0626618433 2.0943951024 2.1261283615 2.1578616206 2.1895948798 2.2213281389 2.253061398 
2.2847946572 2.3165279163 2.3482611754 2.3799944345 2.4117276937 2.4434609528 2.4751942119 2.506927471 2.5386607302 
2.5703939893 2.6021272484 2.6338605076 2.6655937667 2.6973270258 2.7290602849 2.7607935441 2.7925268032 2.8242600623 
2.8559933214 2.8877265806 2.9194598397 2.9511930988 2.982926358 3.0146596171 3.0463928762 3.0781261353 3.1098593945 
3.1415926536 
_radius 1 100 double
4.621532547e-16 0.017392847604 0.034548808365 0.051243624234 0.067286995886 0.082535183988 0.096898452454 0.11034216922 0.12288094428 
0.13456599261 0.14546695905 0.15565062278 0.16515994075 0.17399739169 0.18211617695 0.18942143628 0.19578159482 0.20104793151 
0.20507905085 0.20776640363 0.20905720976 0.20897177818 0.20761300631 0.20516661135 0.20189136445 0.19809935827 0.19412735631 
0.19030180201 0.18690210586 0.18412871571 0.18208287371 0.18076279344 0.1800766367 0.17986807042 0.17994748394 0.18012203677 
0.18022009919 0.1801091301 0.17970886046 0.17900190109 0.17804138176 0.17695241659 0.17592356651 0.17518644288 0.17498535438 
0.1755427811 0.17702807476 0.17953545353 0.18307474916 0.18757520718 0.19289908375 0.19885997623 0.20524199768 0.21181808098 
0.2183668408 0.22468745894 0.23061174596 0.23601237256 0.24080641172 0.24495377582 0.24845080774 0.2513201042 0.25359845163 
0.25532526244 0.25653379855 0.25724664511 0.25747562345 0.25722514479 0.25649733678 0.25529721868 0.25363659005 0.25153588901 
0.2490238654 0.24613537583 0.24290787388 0.23937718959 0.23557297339 0.23151390534 0.22720276743 0.22262189313 0.2177300694 
0.21246219704 0.20673264171 0.20044234843 0.19348881137 0.18577725596 0.17723111084 0.1678000468 0.15746442809 0.14623578498 
0.13415368963 0.12128004537 0.10769217236 0.093476134081 0.07872149102 0.063518141364 0.047955237667 0.032121556855 0.016106375833 
9.1381333685e-16 
_area 1 100 double
0 0.0007124216885 0.0028097678387 0.0061763256682 0.010631961133 0.015949180454 0.021874357125 0.028151647195 0.034547111507 
0.040869104071 0.046980559058 0.052800101334 0.058291362588 0.063442639896 0.068241805706 0.072653912705 0.076609471295 0.080008251743 
0.082739264957 0.084721849359 0.085991781007 0.086507652066 0.086223849641 0.085240523808 0.083727007979 0.081874579606 0.079915997393 
0.078099473233 0.076651973328 0.075747717199 0.075529212025 0.075939576604 0.076795025639 0.077906948397 0.079091146705 0.080186285657 
0.081057846278 0.081600406374 0.08175227875 0.081544107173 0.081243318915 0.081315431114 0.081650473049 0.082268739193 0.083553759636 
0.085669406877 0.088414823733 0.091758025986 0.095809148444 0.10064792699 0.10622568272 0.11244375358 0.11917695221 0.12624426451 
0.13340195224 0.14036631444 0.14685290714 0.1526182414 0.15749463888 0.16141700485 0.1644872627 0.16722793458 0.16984470731 
0.171929078 0.17326897349 0.17382394159 0.17337016465 0.17183942447 0.16925725242 0.16572815073 0.16142862581 0.15658742737 
0.15145658191 0.14627159459 0.14120116054 0.13631653778 0.13161435659 0.12705717713 0.12258654595 0.1181173874 0.11353405338 
0.10869649561 0.10345770912 0.09768899648 0.09130621885 0.084289448412 0.076690608156 0.068627657394 0.060268108747 0.051807690475 
0.043450592249 0.035395492458 0.027827709904 0.020915136392 0.014805787365 0.0096264614453 0.0054826293448 0.0024588205023 0.00061809408924 
5.1956358605e-17 
