# vtk DataFile Version 5.1
vtk output
ASCII
DATASET POLYDATA
POINTS 100 float
-0.0433253 -0.00184287 0.625695 -0.0431125 -0.00186309 0.625385 -0.0424356 -0.00178554 0.624471 
-0.0413032 -0.00162668 0.622933 -0.0397283 -0.00140755 0.620742 -0.0377248 -0.001146 0.61786 
-0.0353046 -0.000848022 0.614247 -0.0324736 -0.000499615 0.609858 -0.0292295 -6.08977e-05 0.604654 
-0.0255597 0.000536224 0.598601 -0.0214421 0.00138599 0.591673 -0.016847 0.00260207 0.583855 
-0.0117409 0.00430669 0.575139 -0.00609179 0.00661674 0.565531 0.000124676 0.00962845 0.555041 
0.00691903 0.0134026 0.543691 0.0142825 0.0179525 0.531506 0.022183 0.0232359 0.518516 
0.0305632 0.0291526 0.504754 0.039341 0.0355486 0.490255 0.0484132 0.0422259 0.475058 
0.0576606 0.048957 0.459201 0.0669565 0.055504 0.442725 0.0761745 0.061638 0.425672 
0.0851988 0.0671581 0.408084 0.0939315 0.0719075 0.390003 0.1023 0.0757845 0.371467 
0.110259 0.0787477 0.352512 0.117796 0.0808147 0.333168 0.124924 0.0820543 0.313455 
0.131676 0.0825742 0.293385 0.138102 0.0825052 0.272964 0.144254 0.0819836 0.252186 
0.150175 0.0811354 0.231042 0.155894 0.0800627 0.209521 0.16141 0.0788345 0.187614 
0.166692 0.0774833 0.165321 0.171674 0.0760066 0.142655 0.176256 0.0743739 0.119647 
0.18031 0.0725363 0.0963512 0.183689 0.07044 0.0728431 0.186238 0.0680381 0.0492221 
0.187804 0.0653022 0.0256067 0.188256 0.0622305 0.00212982 0.187491 0.0588515 -0.0210689 
0.185448 0.0552235 -0.0438515 0.182111 0.0514302 -0.0660908 0.177519 0.0475719 -0.0876792 
0.171756 0.0437557 -0.108536 0.164955 0.0400843 -0.128611 0.15728 0.036646 -0.147891 
0.148922 0.0335073 -0.166393 0.140082 0.0307081 -0.184168 0.130954 0.0282616 -0.201287 
0.121721 0.0261568 -0.217839 0.112535 0.0243649 -0.233918 0.103512 0.0228465 -0.249615 
0.0947286 0.0215608 -0.265012 0.0862205 0.0204726 -0.280168 0.077984 0.0195586 -0.295126 
0.0699828 0.0188099 -0.309901 0.0621569 0.0182319 -0.324487 0.0544316 0.0178416 -0.338861 
0.0467288 0.0176614 -0.352985 0.0389768 0.0177126 -0.366815 0.0311185 0.0180084 -0.38031 
0.0231181 0.0185476 -0.393432 0.014965 0.0193113 -0.406157 0.00667461 0.0202616 -0.418472 
-0.00171326 0.0213441 -0.430379 -0.0101384 0.0224932 -0.441891 -0.018526 0.0236394 -0.453029 
-0.0267933 0.0247177 -0.463819 -0.0348568 0.0256764 -0.474283 -0.0426393 0.0264838 -0.484437 
-0.050075 0.0271324 -0.494289 -0.0571142 0.0276399 -0.503831 -0.0637256 0.0280471 -0.513044 
-0.069897 0.0284109 -0.521899 -0.075634 0.0287966 -0.530356 -0.0809572 0.0292674 -0.538375 
-0.0858991 0.0298745 -0.545915 -0.0904992 0.0306485 -0.552944 -0.0947996 0.0315937 -0.559438 
-0.0988408 0.0326861 -0.565388 -0.102658 0.0338747 -0.570799 -0.106279 0.0350879 -0.575688 
-0.109721 0.0362424 -0.580086 -0.112992 0.0372538 -0.584029 -0.116088 0.0380484 -0.587557 
-0.118998 0.0385733 -0.590708 -0.121704 0.0388044 -0.593515 -0.12418 0.0387502 -0.596004 
-0.126399 0.0384513 -0.598188 -0.128333 0.0379765 -0.600073 -0.129955 0.0374134 -0.601655 
-0.131239 0.0368581 -0.602923 -0.132167 0.036402 -0.603864 -0.132721 0.0361207 -0.604466 
-0.132893 0.0360635 -0.604719 
LINES 2 100
OFFSETS vtktypeint64
0 100 
CONNECTIVITY vtktypeint64
0 1 2 3 4 5 6 7 8 
9 10 11 12 13 14 15 16 17 
18 19 20 21 22 23 24 25 26 
27 28 29 30 31 32 33 34 35 
36 37 38 39 40 41 42 43 44 
45 46 47 48 49 50 51 52 53 
54 55 56 57 58 59 60 61 62 
63 64 65 66 67 68 69 70 71 
72 73 74 75 76 77 78 79 80 
81 82 83 84 85 86 87 88 89 
90 91 92 93 94 95 96 97 98 
99 
POINT_DATA 100
FIELD FieldData 3
_theta 1 100 double
0 0.031733259127 0.063466518254 0.095199777382 0.12693303651 0.15866629564 0.19039955476 0.22213281389 0.25386607302 
0.28559933214 0.31733259127 0.3490658504 0.38079910953 0.41253236865 0.44426562778 0.47599888691 0.50773214603 0.53946540516 
0.57119866429 0.60293192342 0.63466518254 0.66639844167 0.6981317008 0.72986495992 0.76159821905 0.79333147818 0.82506473731 
0.85679799643 0.88853125556 0.92026451469 0.95199777382 0.98373103294 1.0154642921 1.0471975512 1.0789308103 1.1106640695 
1.1423973286 1.1741305877 1.2058638468 1.237597106 1.2693303651 1.3010636242 1.3327968833 1.3645301425 1.3962634016 
1.4279966607 1.4597299198 1.491463179 1.5231964381 1.5549296972 1.5866629564 1.6183962155 1.6501294746 1.6818627337 
1.7135959929 1.745329252 1.7770625111 1.8087957702 1.8405290294 1.8722622885 1.9039955476 1.9357288068 1.9674620659 
1.999195325 2.0309285841 2.0626618433 2.0943951024 2.1261283615 2.1578616206 2.1895948798 2.2213281389 2.253061398 
2.2847946572 2.3165279163 2.3482611754 2.3799944345 2.4117276937 2.4434609528 2.4751942119 2.506927471 2.5386607302 
2.5703939893 2.6021272484 2.6338605076 2.6655937667 2.6973270258 2.7290602849 2.7607935441 2.7925268032 2.8242600623 
2.8559933214 2.8877265806 2.9194598397 2.9511930988 2.982926358 3.0146596171 3.0463928762 3.0781261353 3.1098593945 
3.1415926536 
_radius 1 100 double
6.6844562658e-16 0.014425164189 0.028667480677 0.042557766258 0.055947666317 0.068716244036 0.080772683168 0.092054807254 0.10252411667 
0.11215890772 0.12094740681 0.1288826197 0.13595991865 0.1421775606 0.14753960132 0.15206018001 0.15576793147 0.15870933399 
0.16095009959 0.16257419368 0.1636805897 0.16437822588 0.16477974106 0.16499454431 0.16512180288 0.16524398073 0.165421504 
0.16568910698 0.16605459046 0.16650081821 0.16699129336 0.16747862235 0.16791426381 0.16825783594 0.16848489788 0.16859286633 
0.16860498612 0.16857199646 0.16857062567 0.16869772726 0.16905944273 0.16975693234 0.17087314912 0.17246576853 0.17456775432 
0.17719215527 0.18033617319 0.18398172032 0.18809282414 0.19261216213 0.19745909524 0.2025303054 0.20770283171 0.2128391781 
0.21779506063 0.22243061606 0.2266243586 0.23028694009 0.233370936 0.23587405823 0.23783528782 0.23932519523 0.24043269339 
0.24125070162 0.24186288454 0.24233299616 0.24269765856 0.24296284287 0.24310394681 0.24306909475 0.24278503294 0.24216474972 
0.24111577748 0.23954810378 0.23738077867 0.2345466465 0.2309950751 0.22669297916 0.2216247086 0.21579140315 0.20921018196 
0.20191311992 0.19394554286 0.18536299278 0.17622647529 0.16659633663 0.15652607131 0.14605799281 0.13522245456 0.12404106977 
0.11253272882 0.10072007989 0.088634086971 0.076315174443 0.063810758155 0.051170128141 0.03843840328 0.025651522296 0.012833950953 
1.1612133364e-15 
_area 1 100 double
0 0.00044096589413 0.0017710251422 0.004003912411 0.0071405283856 0.011147149806 0.015940708087 0.021386094282 0.027304673934 
0.033489451257 0.039721791355 0.045786449702 0.051484136883 0.05664242205 0.061125800896 0.064844612443 0.067761206591 0.069891324732 
0.071299438355 0.072088417476 0.072385548604 0.072327780511 0.072048582187 0.071667073726 0.071279464721 0.070956116874 0.070748017637 
0.070698098743 0.070851132285 0.071257796936 0.071963283984 0.072978572746 0.074254932743 0.075690587623 0.077172110993 0.078625409663 
0.080054409537 0.081552265477 0.083253783157 0.085222941784 0.087405463977 0.089708089889 0.092069617265 0.094475207627 0.096951824198 
0.099567331307 0.10243379997 0.10570315291 0.10953698972 0.114050459 0.11927138532 0.12514554879 0.13155851457 0.1383394691 
0.14525301243 0.15200398566 0.15826832039 0.16374280477 0.16819660644 0.17150898977 0.17368510696 0.17484970602 0.17522390335 
0.17509005425 0.17473959698 0.17439237523 0.17413027243 0.17391377647 0.17363585978 0.17315620228 0.17232031083 0.17097434948 
0.16897757568 0.16621189691 0.16258850681 0.15805194572 0.15258197065 0.14619371922 0.13893697061 0.13089553455 0.12218731726 
0.11296412374 0.10340840022 0.093723316537 0.084114149465 0.074763089014 0.065804805143 0.05731306345 0.049305987324 0.04176916984 
0.034686743698 0.028067168113 0.021954676886 0.016425091894 0.011571006389 0.0074838981174 0.0042398572702 0.0018926495749 0.00047424607912 
2.9730931946e-17 
