# vtk DataFile Version 5.1
vtk output
ASCII
DATASET POLYDATA
POINTS 100 float
-0.0949634 -0.0882746 0.785927 -0.0949725 -0.0881294 0.785478 -0.0949813 -0.0874386 0.784096 
-0.0949753 -0.0861968 0.78183 -0.0949333 -0.0843979 0.778749 -0.0948304 -0.0820357 0.774942 
-0.0946414 -0.0791041 0.770503 -0.0943444 -0.0755981 0.765521 -0.0939226 -0.0715147 0.760068 
-0.0933649 -0.0668541 0.754194 -0.0926637 -0.0616213 0.747919 -0.0918124 -0.0558279 0.741233 
-0.0908 -0.0494934 0.7341 -0.0896064 -0.042648 0.726459 -0.0881972 -0.035333 0.718237 
-0.0865207 -0.0276031 0.709356 -0.0845071 -0.0195265 0.699744 -0.0820698 -0.011185 0.68934 
-0.0791109 -0.00267305 0.678102 -0.0755288 0.00590423 0.666014 -0.0712277 0.0144339 0.653076 
-0.0661284 0.0227987 0.639314 -0.0601779 0.0308818 0.624763 -0.0533577 0.038571 0.609468 
-0.0456887 0.0457638 0.593474 -0.0372315 0.0523715 0.57682 -0.0280832 0.0583234 0.559533 
-0.018369 0.0635689 0.541628 -0.0082318 0.0680797 0.523106 0.00218167 0.071849 0.503956 
0.0127338 0.074891 0.484159 0.023308 0.0772374 0.463695 0.0338174 0.0789343 0.442546 
0.0442089 0.0800375 0.420703 0.0544617 0.0806071 0.398166 0.0645812 0.0807034 0.374952 
0.074588 0.0803826 0.351087 0.0845037 0.0796928 0.32661 0.0943355 0.0786728 0.301566 
0.104062 0.077351 0.276005 0.113624 0.0757459 0.249974 0.122912 0.0738684 0.223518 
0.131775 0.0717249 0.196676 0.140019 0.0693205 0.169483 0.147424 0.0666631 0.141971 
0.15376 0.0637668 0.114173 0.158808 0.060655 0.0861304 0.16238 0.0573618 0.0578948 
0.164338 0.0539322 0.0295335 0.164612 0.0504219 0.00113164 0.163203 0.0468941 -0.0272078 
0.16019 0.0434164 -0.0553665 0.155717 0.0400568 -0.0832163 0.149986 0.0368787 -0.110626 
0.143235 0.0339369 -0.13747 0.135715 0.0312739 -0.163639 0.12767 0.0289171 -0.189044 
0.119315 0.0268776 -0.213626 0.110821 0.0251509 -0.237358 0.102303 0.023718 -0.260242 
0.0938194 0.0225491 -0.282311 0.0853751 0.0216078 -0.303617 0.0769324 0.0208553 -0.324225 
0.0684255 0.0202557 -0.344205 0.059778 0.0197801 -0.363619 0.0509202 0.01941 -0.382516 
0.0418037 0.0191396 -0.400925 0.0324119 0.0189761 -0.418857 0.0227651 0.0189392 -0.436302 
0.01292 0.0190581 -0.453237 0.00296268 0.0193683 -0.469631 -0.00700116 0.0199068 -0.485456 
-0.0168594 0.0207071 -0.50069 -0.0265065 0.0217948 -0.515329 -0.0358549 0.0231836 -0.529386 
-0.0448429 0.0248715 -0.542893 -0.0534377 0.02684 -0.555897 -0.0616336 0.0290533 -0.568452 
-0.0694451 0.0314601 -0.580611 -0.0768969 0.0339958 -0.592413 -0.0840118 0.036587 -0.603874 
-0.0907989 0.0391558 -0.614978 -0.0972441 0.0416248 -0.625672 -0.103305 0.0439221 -0.635871 
-0.10891 0.0459856 -0.645454 -0.113964 0.0477668 -0.654284 -0.118361 0.049233 -0.662216 
-0.121993 0.0503689 -0.669116 -0.124774 0.0511766 -0.674881 -0.12665 0.0516745 -0.679448 
-0.127616 0.0518954 -0.682815 -0.127722 0.0518837 -0.68504 -0.127078 0.0516918 -0.686242 
-0.125848 0.0513772 -0.686599 -0.124237 0.0509981 -0.686329 -0.122475 0.0506106 -0.685672 
-0.120793 0.0502653 -0.68487 -0.119404 0.0500046 -0.68414 -0.118478 0.0498607 -0.683655 
-0.118125 0.0498539 -0.683527 
LINES 2 100
OFFSETS vtktypeint64
0 100 
CONNECTIVITY vtktypeint64
0 1 2 3 4 5 6 7 8 
9 10 11 12 13 14 15 16 17 
18 19 20 21 22 23 24 25 26 
27 28 29 30 31 32 33 34 35 
36 37 38 39 40 41 42 43 44 
45 46 47 48 49 50 51 52 53 
54 55 56 57 58 59 60 61 62 
63 64 65 66 67 68 69 70 71 
72 73 74 75 76 77 78 79 80 
81 82 83 84 85 86 87 88 89 
90 91 92 93 94 95 96 97 98 
99 
POINT_DATA 100
FIELD FieldData 3
_theta 1 100 double
0 0.031733259127 0.063466518254 0.095199777382 0.12693303651 0.15866629564 0.19039955476 0.22213281389 0.25386607302 
0.28559933214 0.31733259127 0.3490658504 0.38079910953 0.41253236865 0.44426562778 0.47599888691 0.50773214603 0.53946540516 
0.57119866429 0.60293192342 0.63466518254 0.66639844167 0.6981317008 0.72986495992 0.76159821905 0.79333147818 0.82506473731 
0.85679799643 0.88853125556 0.92026451469 0.95199777382 0.98373103294 1.0154642921 1.0471975512 1.0789308103 1.1106640695 
1.1423973286 1.1741305877 1.2058638468 1.237597106 1.2693303651 1.3010636242 1.3327968833 1.3645301425 1.3962634016 
1.4279966607 1.4597299198 1.491463179 1.5231964381 1.5549296972 1.5866629564 1.6183962155 1.6501294746 1.6818627337 
1.7135959929 1.745329252 1.7770625111 1.8087957702 1.8405290294 1.8722622885 1.9039955476 1.9357288068 1.9674620659 
1.999195325 2.0309285841 2.0626618433 2.0943951024 2.1261283615 2.1578616206 2.1895948798 2.2213281389 2.253061398 
2.2847946572 2.3165279163 2.3482611754 2.3799944345 2.4117276937 2.4434609528 2.4751942119 2.506927471 2.5386607302 
2.5703939893 2.6021272484 2.6338605076 2.6655937667 2.6973270258 2.7290602849 2.7607935441 2.7925268032 2.8242600623 
2.8559933214 2.8877265806 2.9194598397 2.9511930988 2.982926358 3.0146596171 3.0463928762 3.0781261353 3.1098593945 
3.1415926536 
_radius 1 100 double
7.8467815263e-16 0.015285539041 0.030414605971 0.045230473328 0.059597680325 0.07340797058 0.086581459165 0.099063507312 0.11081868734 
0.12182366682 0.13206079539 0.14151373319 0.15016578797 0.1580009286 0.16500688928 0.17117945819 0.17652695003 0.18107393158 
0.18486344944 0.18795727221 0.19043398817 0.19238515842 0.19391004708 0.19510964104 0.19608064194 0.19690986478 0.19766916729 
0.19841090311 0.19916407371 0.19993172756 0.20069039862 0.20139223876 0.20197007155 0.20234519683 0.20243749225 0.2021769166 
0.20151482419 0.20043301013 0.19894863375 0.19711406777 0.19501184314 0.19274588888 0.19043115653 0.18818430614 0.18611784659 
0.18433862051 0.18294944342 0.18205124793 0.18174286704 0.18211646828 0.18324828912 0.18518633973 0.18793840872 0.191464125 
0.19567363062 0.20043325182 0.20557661471 0.21091870865 0.21627042702 0.22145170259 0.22630215337 0.23068892152 0.23451192358 
0.23770691317 0.24024661686 0.2421399135 0.24342880142 0.24418287387 0.24449122072 0.24445202959 0.24416058787 0.24369682691 
0.24311396713 0.24243014577 0.24162489449 0.24064156164 0.23939508528 0.23778264642 0.23569396962 0.23301894743 0.2296520855 
0.225494793 0.22045711965 0.21446021444 0.20743997648 0.19935154219 0.19017369804 0.17991212251 0.16860050949 0.15629902462 
0.14309009229 0.12907208957 0.11435199971 0.099038317739 0.083235411698 0.067040124289 0.050540770834 0.033818072173 0.016947186293 
5.4511034952e-16 
_area 1 100 double
0 0.00070824227154 0.0027965951677 0.0061609853754 0.010642779482 0.016045273867 0.022149094716 0.028724846719 0.035543805628 
0.042387370212 0.049054333577 0.055364489249 0.061158746113 0.066298369472 0.070667030884 0.074178080599 0.076786461127 0.078501331089 
0.07939315116 0.079588614402 0.079248846899 0.078534375932 0.077579541633 0.076502064387 0.075450760989 0.074950976358 0.075020372378 
0.075291773242 0.075676444312 0.076124009213 0.076612065226 0.077140637675 0.07772519907 0.078385242875 0.079116072595 0.079812043305 
0.080374351678 0.080766352291 0.081045582813 0.081363867251 0.081940483431 0.082916093981 0.084198993094 0.085588357283 0.086898851316 
0.088004107338 0.088863260855 0.089533819599 0.090167545392 0.090995815102 0.092318495748 0.094478510454 0.097696700663 0.10192293181 
0.10698637812 0.11268484269 0.11878978676 0.12505956181 0.13125949721 0.1371792678 0.14264105738 0.14749660092 0.15161771892 
0.15488986148 0.15721723967 0.15854044726 0.15885855652 0.15824439148 0.15684485383 0.15486407207 0.15253234489 0.15006638824 
0.14762668321 0.14528026301 0.14298484033 0.14061020293 0.13799171371 0.13498812331 0.13151624702 0.12755098656 0.12309587865 
0.11814275705 0.11264610683 0.10652928528 0.099717004376 0.092173475828 0.083929980136 0.075096160483 0.065855216023 0.056445460415 
0.047132813542 0.038181111203 0.029827816109 0.02227031572 0.015663269024 0.010123269687 0.005735927296 0.002562115426 0.00064241110777 
6.6671732749e-17 
