# vtk DataFile Version 5.1
vtk output
ASCII
DATASET POLYDATA
POINTS 100 float
-0.0535478 -0.00578307 0.7196 -0.0536327 -0.00567857 0.719344 -0.0538932 -0.00515159 0.718541 
-0.0543247 -0.00421046 0.717158 -0.0549176 -0.00286977 0.71515 -0.055656 -0.00114984 0.712463 
-0.0565154 0.000924193 0.709043 -0.0574606 0.00332327 0.704842 -0.058443 0.0060155 0.699829 
-0.0593995 0.00896722 0.693994 -0.0602516 0.012144 0.687347 -0.0609057 0.0155115 0.67992 
-0.0612549 0.0190363 0.671761 -0.0611832 0.0226861 0.66293 -0.0605704 0.0264306 0.653486 
-0.0592987 0.0302408 0.643482 -0.0572611 0.0340898 0.632954 -0.0543694 0.0379514 0.621919 
-0.0505623 0.0418006 0.610366 -0.0458125 0.0456123 0.598261 -0.0401311 0.0493608 0.58555 
-0.0335707 0.0530194 0.572165 -0.0262233 0.0565592 0.558033 -0.018216 0.0599489 0.543085 
-0.00970272 0.0631546 0.527271 -0.00085334 0.0661396 0.510561 0.00815954 0.0688646 0.492957 
0.0171742 0.0712885 0.474492 0.0260527 0.0733694 0.455228 0.0346921 0.0750665 0.435252 
0.0430312 0.0763415 0.414666 0.0510536 0.077161 0.39358 0.0587854 0.0774987 0.372098 
0.0662874 0.0773382 0.350306 0.0736434 0.0766747 0.328272 0.0809445 0.0755171 0.306031 
0.0882723 0.0738892 0.283589 0.0956817 0.0718302 0.260927 0.103186 0.0693942 0.238004 
0.110748 0.0666491 0.214766 0.118272 0.0636741 0.191159 0.125607 0.0605566 0.167139 
0.132554 0.0573883 0.142679 0.13888 0.0542606 0.117782 0.144337 0.0512604 0.0924817 
0.148682 0.0484653 0.0668437 0.1517 0.0459397 0.0409646 0.153224 0.0437319 0.0149649 
0.15315 0.0418716 -0.0110192 0.151448 0.0403695 -0.0368453 0.148164 0.0392168 -0.0623751 
0.143418 0.0383881 -0.0874829 0.137388 0.037843 -0.112063 0.130299 0.0375306 -0.136036 
0.122398 0.0373935 -0.159346 0.113936 0.037372 -0.181965 0.105143 0.0374093 -0.203886 
0.0962137 0.0374544 -0.225119 0.0872938 0.0374661 -0.245686 0.0784748 0.0374149 -0.265616 
0.0697945 0.0372841 -0.284935 0.0612439 0.03707 -0.303672 0.0527795 0.036781 -0.321847 
0.0443385 0.0364359 -0.339481 0.0358549 0.0360616 -0.356589 0.027275 0.0356905 -0.373189 
0.0185696 0.0353576 -0.3893 0.00974129 0.0350981 -0.404949 0.000827101 0.0349448 -0.420166 
-0.00810504 0.0349266 -0.434992 -0.0169641 0.0350665 -0.449467 -0.0256475 0.0353814 -0.463638 
-0.0340539 0.0358808 -0.477544 -0.0420962 0.0365671 -0.491219 -0.049712 0.0374358 -0.504683 
-0.0568705 0.0384749 -0.517939 -0.0635747 0.0396662 -0.53097 -0.0698589 0.0409853 -0.54374 
-0.0757808 0.0424021 -0.556193 -0.0814116 0.0438815 -0.568258 -0.0868228 0.0453844 -0.579854 
-0.0920739 0.0468691 -0.590896 -0.0972016 0.0482924 -0.601301 -0.102213 0.0496115 -0.610998 
-0.107081 0.0507863 -0.619928 -0.11175 0.0517817 -0.628054 -0.116139 0.0525698 -0.635357 
-0.120156 0.0531319 -0.641844 -0.123709 0.0534606 -0.647536 -0.12672 0.0535608 -0.652475 
-0.129138 0.0534503 -0.656712 -0.130948 0.0531588 -0.660308 -0.132174 0.0527271 -0.663322 
-0.13288 0.0522041 -0.665816 -0.133163 0.051644 -0.667843 -0.133143 0.0511023 -0.66945 
-0.132948 0.0506318 -0.670676 -0.1327 0.0502786 -0.671548 -0.132496 0.0500783 -0.672086 
-0.132403 0.0500537 -0.672302 
LINES 2 100
OFFSETS vtktypeint64
0 100 
CONNECTIVITY vtktypeint64
0 1 2 3 4 5 6 7 8 
9 10 11 12 13 14 15 16 17 
18 19 20 21 22 23 24 25 26 
27 28 29 30 31 32 33 34 35 
36 37 38 39 40 41 42 43 44 
45 46 47 48 49 50 51 52 53 
54 55 56 57 58 59 60 61 62 
63 64 65 66 67 68 69 70 71 
72 73 74 75 76 77 78 79 80 
81 82 83 84 85 86 87 88 89 
90 91 92 93 94 95 96 97 98 
99 
POINT_DATA 100
FIELD FieldData 3
_theta 1 100 double
0 0.031733259127 0.063466518254 0.095199777382 0.12693303651 0.15866629564 0.19039955476 0.22213281389 0.25386607302 
0.28559933214 0.31733259127 0.3490658504 0.38079910953 0.41253236865 0.44426562778 0.47599888691 0.50773214603 0.53946540516 
0.57119866429 0.60293192342 0.63466518254 0.66639844167 0.6981317008 0.72986495992 0.76159821905 0.79333147818 0.82506473731 
0.85679799643 0.88853125556 0.92026451469 0.95199777382 0.98373103294 1.0154642921 1.0471975512 1.0789308103 1.1106640695 
1.1423973286 1.1741305877 1.2058638468 1.237597106 1.2693303651 1.3010636242 1.3327968833 1.3645301425 1.3962634016 
1.4279966607 1.4597299198 1.491463179 1.5231964381 1.5549296972 1.5866629564 1.6183962155 1.6501294746 1.6818627337 
1.7135959929 1.745329252 1.7770625111 1.8087957702 1.8405290294 1.8722622885 1.9039955476 1.9357288068 1.9674620659 
1.999195325 2.0309285841 2.0626618433 2.0943951024 2.1261283615 2.1578616206 2.1895948798 2.2213281389 2.253061398 
2.2847946572 2.3165279163 2.3482611754 2.3799944345 2.4117276937 2.4434609528 2.4751942119 2.506927471 2.5386607302 
2.5703939893 2.6021272484 2.6338605076 2.6655937667 2.6973270258 2.7290602849 2.7607935441 2.7925268032 2.8242600623 
2.8559933214 2.8877265806 2.9194598397 2.9511930988 2.982926358 3.0146596171 3.0463928762 3.0781261353 3.1098593945 
3.1415926536 
_radius 1 100 double
1.3322676296e-15 0.014585437209 0.029047315452 0.04327247967 0.057176918754 0.070711922583 0.083862010025 0.096635149746 0.10904771692 
0.12110784975 0.13280097418 0.14408034228 0.15486401215 0.16503838395 0.17446751003 0.18300688722 0.19052012382 0.19689660449 
0.20206804057 0.20602168515 0.2088081359 0.21054211683 0.21139542738 0.21158232602 0.21133889971 0.210899273 0.21047236895 
0.21022269825 0.21025716263 0.2106180247 0.21128129735 0.21216016671 0.21311387155 0.21396269888 0.21450901466 0.21456288774 
0.21396953134 0.21263486795 0.21054513702 0.20777672119 0.20449343489 0.20093053459 0.19736763255 0.19409588572 0.19138669951 
0.18946803974 0.18851050591 0.18862122918 0.1898420808 0.19214998339 0.19545962577 0.19963043619 0.20447912873 0.20979708425 
0.21536987922 0.22099559207 0.22649909465 0.23174074292 0.23661917277 0.2410689927 0.24505488576 0.24856390458 0.25159760216 
0.25416522962 0.25627871921 0.25794968282 0.25918825939 0.26000335968 0.26040367904 0.26039876909 0.25999948196 0.25921725935 
0.25806207499 0.25653933652 0.25464654389 0.25237067808 0.24968695479 0.24655892209 0.24293941427 0.23877190843 0.23399221658 
0.22853080985 0.22231616839 0.21527936345 0.20735972091 0.19851102723 0.18870743285 0.17794806397 0.16625942293 0.15369495019 
0.14033159853 0.12626383523 0.11159601182 0.09643438882 0.08088016207 0.065024563654 0.048946562575 0.032713048669 0.016380881435 
4.4194878946e-16 
_area 1 100 double
0 0.00060470113259 0.002383818969 0.0052414565167 0.009044720392 0.013653666878 0.018945682186 0.024824421655 0.031210265532 
0.038018233232 0.045134382868 0.052400026472 0.059607899456 0.066510264631 0.072837164125 0.078322365646 0.082733564939 0.085902033061 
0.087746105632 0.088283584493 0.087630322608 0.085985388649 0.083606643631 0.080785009757 0.077843017007 0.075219263895 0.07333526218 
0.072291567957 0.072034653007 0.072618134816 0.074043008255 0.076251566013 0.079109276091 0.08237944864 0.085719123887 0.088726891829 
0.091026796673 0.092353799375 0.092616541854 0.091923089283 0.090559494687 0.088919311395 0.087402379266 0.086317172962 0.085836491968 
0.086062688105 0.087156686332 0.089206768281 0.092455437756 0.096498137442 0.10107630053 0.10612619853 0.11158275412 0.11734662809 
0.12327890768 0.12921135954 0.13496344571 0.14036632823 0.1452883599 0.14964301567 0.1533748452 0.15643869358 0.15878723706 
0.1603709509 0.16114679187 0.16109117244 0.16021462805 0.15857499693 0.15628188959 0.15348253384 0.15033129874 0.14696413257 
0.14348760744 0.13997291694 0.13645323851 0.13292494368 0.12934885397 0.12565694684 0.12176257626 0.11757244494 0.11299785995 
0.10796314681 0.10241046895 0.096302676941 0.089627777768 0.082407191479 0.074705081438 0.066632302511 0.058340477306 0.050007920102 
0.041823544584 0.033973800012 0.026633653775 0.01996053378 0.014090613781 0.0091373633259 0.0051918873832 0.0023240596282 0.00058350196545 
7.2975016354e-17 
