# vtk DataFile Version 5.1
vtk output
ASCII
DATASET POLYDATA
POINTS 100 float
-0.102292 -0.0405961 0.707705 -0.10243 -0.0405236 0.707567 -0.102859 -0.0400997 0.707066 
-0.103528 -0.0393251 0.706171 -0.104357 -0.0382023 0.704833 -0.105243 -0.0367343 0.702992 
-0.106069 -0.0349237 0.700579 -0.106713 -0.0327729 0.697524 -0.107054 -0.0302831 0.693759 
-0.106982 -0.0274554 0.689227 -0.106404 -0.0242912 0.683879 -0.105246 -0.0207944 0.677682 
-0.10345 -0.0169728 0.670613 -0.100983 -0.0128407 0.662666 -0.0978237 -0.00842081 0.653841 
-0.0939654 -0.00374557 0.64415 -0.0894103 0.00114189 0.633609 -0.0841667 0.00618814 0.622241 
-0.0782468 0.0113308 0.610071 -0.0716661 0.0165009 0.597128 -0.0644435 0.0216261 0.583446 
-0.0566037 0.0266349 0.569062 -0.0481789 0.0314597 0.554019 -0.0392111 0.0360411 0.538364 
-0.0297545 0.0403302 0.522148 -0.0198756 0.0442906 0.505423 -0.00965257 0.0478984 0.488237 
0.000826336 0.0511419 0.470636 0.0114667 0.0540188 0.45265 0.0221721 0.0565337 0.434294 
0.0328484 0.0586949 0.415563 0.043408 0.0605106 0.39643 0.0537727 0.0619866 0.376846 
0.0638749 0.0631244 0.356742 0.0736571 0.0639206 0.336035 0.0830689 0.0643677 0.314639 
0.0920637 0.0644562 0.292469 0.100593 0.0641776 0.269459 0.108602 0.0635279 0.245567 
0.116024 0.0625112 0.220787 0.122781 0.0611426 0.195156 0.128782 0.0594503 0.168752 
0.133925 0.0574766 0.1417 0.138107 0.0552767 0.114164 0.141227 0.0529166 0.0863336 
0.143199 0.0504693 0.0584191 0.143962 0.0480106 0.0306331 0.143488 0.0456141 0.00317833 
0.14179 0.0433464 -0.0237655 0.138923 0.0412633 -0.0500519 0.134986 0.039407 -0.0755745 
0.130113 0.0378046 -0.100269 0.124467 0.0364685 -0.124114 0.118223 0.0353977 -0.147119 
0.111558 0.0345805 -0.169326 0.10463 0.0339977 -0.19079 0.0975694 0.0336263 -0.211573 
0.0904641 0.0334422 -0.231733 0.0833546 0.0334228 -0.251318 0.0762331 0.0335478 -0.270361 
0.0690477 0.0337999 -0.288878 0.0617122 0.0341637 -0.306872 0.0541205 0.0346238 -0.324339 
0.0461627 0.0351632 -0.341272 0.0377431 0.0357615 -0.357671 0.0287962 0.0363936 -0.373551 
0.0192998 0.0370294 -0.388944 0.00928332 0.0376352 -0.403902 -0.00116916 0.0381757 -0.418496 
-0.0119224 0.038617 -0.432811 -0.0227989 0.0389307 -0.446939 -0.0335922 0.0390976 -0.460965 
-0.0440841 0.0391109 -0.474962 -0.0540621 0.0389785 -0.488979 -0.063337 0.0387235 -0.50303 
-0.0717574 0.038383 -0.517095 -0.0792209 0.0380045 -0.531114 -0.0856789 0.0376415 -0.54499 
-0.0911378 0.0373472 -0.558602 -0.0956537 0.0371682 -0.571808 -0.0993233 0.0371383 -0.584463 
-0.102272 0.0372733 -0.596426 -0.10464 0.0375686 -0.607578 -0.106569 0.0379977 -0.617826 
-0.10819 0.0385147 -0.627116 -0.109614 0.0390589 -0.635428 -0.110924 0.0395609 -0.642779 
-0.11218 0.0399511 -0.649221 -0.113408 0.0401679 -0.654824 -0.114618 0.0401653 -0.659675 
-0.115797 0.03992 -0.663865 -0.116923 0.0394345 -0.667479 -0.117971 0.0387388 -0.670589 
-0.118915 0.0378876 -0.67325 -0.119732 0.0369556 -0.675499 -0.120408 0.0360296 -0.677355 
-0.120933 0.0351995 -0.678822 -0.121304 0.0345483 -0.679896 -0.121518 0.0341434 -0.680567 
-0.121578 0.0340285 -0.680827 
LINES 2 100
OFFSETS vtktypeint64
0 100 
CONNECTIVITY vtktypeint64
0 1 2 3 4 5 6 7 8 
9 10 11 12 13 14 15 16 17 
18 19 20 21 22 23 24 25 26 
27 28 29 30 31 32 33 34 35 
36 37 38 39 40 41 42 43 44 
45 46 47 48 49 50 51 52 53 
54 55 56 57 58 59 60 61 62 
63 64 65 66 67 68 69 70 71 
72 73 74 75 76 77 78 79 80 
81 82 83 84 85 86 87 88 89 
90 91 92 93 94 95 96 97 98 
99 
POINT_DATA 100
FIELD FieldData 3
_theta 1 100 double
0 0.031733259127 0.063466518254 0.095199777382 0.12693303651 0.15866629564 0.19039955476 0.22213281389 0.25386607302 
0.28559933214 0.31733259127 0.3490658504 0.38079910953 0.41253236865 0.44426562778 0.47599888691 0.50773214603 0.53946540516 
0.57119866429 0.60293192342 0.63466518254 0.66639844167 0.6981317008 0.72986495992 0.76159821905 0.79333147818 0.82506473731 
0.85679799643 0.88853125556 0.92026451469 0.95199777382 0.98373103294 1.0154642921 1.0471975512 1.0789308103 1.1106640695 
1.1423973286 1.1741305877 1.2058638468 1.237597106 1.2693303651 1.3010636242 1.3327968833 1.3645301425 1.3962634016 
1.4279966607 1.4597299198 1.491463179 1.5231964381 1.5549296972 1.5866629564 1.6183962155 1.6501294746 1.6818627337 
1.7135959929 1.745329252 1.7770625111 1.8087957702 1.8405290294 1.8722622885 1.9039955476 1.9357288068 1.9674620659 
1.999195325 2.0309285841 2.0626618433 2.0943951024 2.1261283615 2.1578616206 2.1895948798 2.2213281389 2.253061398 
2.2847946572 2.3165279163 2.3482611754 2.3799944345 2.4117276937 2.4434609528 2.4751942119 2.506927471 2.5386607302 
2.5703939893 2.6021272484 2.6338605076 2.6655937667 2.6973270258 2.7290602849 2.7607935441 2.7925268032 2.8242600623 
2.8559933214 2.8877265806 2.9194598397 2.9511930988 2.982926358 3.0146596171 3.0463928762 3.0781261353 3.1098593945 
3.1415926536 
_radius 1 100 double
5.6371840561e-16 0.014063942647 0.02813548758 0.042204019813 0.056240341144 0.070190409244 0.083972031045 0.097474994682 0.11056465025 
0.12308850109 0.13488506546 0.14579415345 0.15566774349 0.16438076009 0.1718411587 0.17799874267 0.18285204789 0.18645248377 
0.18890482249 0.1903632096 0.19102221599 0.1911030734 0.19083604539 0.19044070825 0.19010652822 0.18997631211 0.19013477065 
0.19060362495 0.19134363846 0.19226298494 0.19323072851 0.19409396191 0.19469714323 0.1949020925 0.19460684663 0.19376137128 
0.19237831758 0.19053751336 0.18838323733 0.18611349605 0.18396128059 0.18216976017 0.18096588254 0.18053801621 0.18102159414 
0.18249292566 0.1849682407 0.18840480019 0.19270305487 0.1977111658 0.20323399171 0.20904764023 0.21491872213 0.22062566111 
0.2259785464 0.23083423326 0.23510443225 0.23875595874 0.24180375785 0.24429850495 0.24631133646 0.24791848686 0.2491882695 
0.25017202757 0.25089963346 0.25137915221 0.25159968484 0.25153625402 0.25115577376 0.25042343219 0.24930900083 0.24779254735 
0.24586879865 0.24354915537 0.24086034942 0.23783914355 0.23452329615 0.2309400598 0.22709443213 0.22295988964 0.21847414666 
0.21354152524 0.20804202014 0.20184556079 0.19482881793 0.18689147729 0.17796920777 0.16804137027 0.15713256916 0.14530822456 
0.13266531263 0.11932020711 0.10539602762 0.091011816401 0.07627506861 0.061277925802 0.04609639171 0.030791646216 0.01541271454 
3.5264571638e-16 
_area 1 100 double
0 0.00055467140596 0.0022168480048 0.0049784038044 0.00881706043 0.013683968671 0.019489538076 0.026092678073 0.033298773997 
0.040868646266 0.048536271718 0.056029890709 0.063090817464 0.069486875229 0.075021435827 0.079541727341 0.082949157311 0.085210797974 
0.086368078745 0.086538184199 0.085905463978 0.084703208988 0.083189543512 0.081625074217 0.080265666686 0.079373846994 0.079145701211 
0.079476900638 0.080214045553 0.08127675277 0.082587512453 0.084058591954 0.085584393729 0.087040420588 0.088291510006 0.089216453369 
0.089742291987 0.089854062121 0.089586869915 0.089046708967 0.088440305177 0.088048471044 0.088175498598 0.08906896922 0.090876763962 
0.09361074688 0.097238664724 0.101764557 0.10719428496 0.11347507907 0.12045653673 0.12788594143 0.13543575344 0.14275103554 
0.14950150301 0.15542502512 0.16035361802 0.16421875376 0.16703896997 0.16889642616 0.16990680715 0.17018085214 0.1697870319 
0.16875092149 0.1670906052 0.16484244708 0.16206197012 0.15881239641 0.15515357766 0.15113769574 0.14681202124 0.14222575081 
0.13743813322 0.13252606868 0.12758729453 0.12273141181 0.11805536251 0.11361353045 0.10939695878 0.10532637571 0.10125762055 
0.096999870556 0.092346728239 0.087115019933 0.081181892361 0.074511713806 0.067168212519 0.059310543833 0.051174035554 0.043038454395 
0.035189213309 0.027879309703 0.021300839549 0.015573363847 0.010750977772 0.0068420574971 0.0038314216794 0.0016977056497 0.00042372860523 
1.2249841441e-17 
