# vtk DataFile Version 5.1
vtk output
ASCII
DATASET POLYDATA
POINTS 100 float
-0.188547 -0.0519035 0.751293 -0.188396 -0.051758 0.751168 -0.188001 -0.0511675 0.75075 
-0.187329 -0.0501748 0.750019 -0.186321 -0.0488428 0.748943 -0.184902 -0.0472408 0.747478 
-0.182984 -0.0454308 0.745571 -0.18047 -0.0434529 0.74316 -0.177262 -0.0413142 0.740179 
-0.17327 -0.0389822 0.736557 -0.168417 -0.0363851 0.732226 -0.162646 -0.0334182 0.727116 
-0.155928 -0.0299574 0.721168 -0.148264 -0.0258763 0.714329 -0.13969 -0.0210674 0.706557 
-0.130274 -0.0154613 0.697824 -0.120112 -0.00904475 0.688115 -0.109326 -0.0018711 0.677428 
-0.0980503 0.00593508 0.665775 -0.0864258 0.0141827 0.653177 -0.0745865 0.0226267 0.639664 
-0.0626492 0.0309882 0.625269 -0.0507046 0.0389786 0.610023 -0.0388095 0.0463261 0.593954 
-0.0269842 0.0528013 0.577081 -0.0152123 0.0582377 0.559409 -0.0034457 0.0625458 0.540932 
0.00838634 0.0657186 0.521626 0.0203655 0.0678275 0.501458 0.0325697 0.06901 0.48038 
0.0450582 0.0694502 0.458344 0.0578564 0.0693543 0.435298 0.0709445 0.0689257 0.411202 
0.0842482 0.0683409 0.386026 0.0976355 0.0677304 0.359769 0.110918 0.0671668 0.332452 
0.12386 0.066661 0.304133 0.136188 0.0661669 0.274904 0.147611 0.0655937 0.244894 
0.157837 0.0648241 0.214263 0.166595 0.0637357 0.183198 0.173654 0.062222 0.151908 
0.178841 0.0602113 0.12061 0.182052 0.0576802 0.089522 0.183261 0.0546604 0.0588512 
0.18252 0.0512367 0.028784 0.179955 0.0475395 -0.000522481 0.175754 0.0437293 -0.0289472 
0.170156 0.0399788 -0.0564086 0.163429 0.0364523 -0.0828658 0.155855 0.0332873 -0.108316 
0.147705 0.0305793 -0.132792 0.139231 0.0283733 -0.15635 0.130643 0.0266605 -0.179069 
0.122107 0.025384 -0.201034 0.113737 0.0244489 -0.222335 0.105595 0.0237382 -0.24305 
0.0976948 0.0231304 -0.263247 0.0900138 0.0225177 -0.282977 0.0824989 0.0218209 -0.302271 
0.0750798 0.0210005 -0.321143 0.0676805 0.0200619 -0.33959 0.0602294 0.0190538 -0.3576 
0.0526679 0.0180612 -0.375155 0.0449563 0.0171936 -0.392238 0.037077 0.016569 -0.408838 
0.0290353 0.0162988 -0.424955 0.0208579 0.0164721 -0.4406 0.0125892 0.0171444 -0.455799 
0.00428697 0.0183301 -0.470589 -0.00398271 0.020001 -0.485017 -0.0121502 0.0220901 -0.499134 
-0.0201469 0.0244992 -0.51299 -0.0279084 0.0271114 -0.526625 -0.035377 0.029804 -0.540067 
-0.0425032 0.0324619 -0.553326 -0.049246 0.0349888 -0.56639 -0.0555729 0.0373155 -0.579221 
-0.0614591 0.0394036 -0.591762 -0.0668871 0.0412457 -0.603932 -0.0718457 0.0428606 -0.615636 
-0.0763296 0.0442861 -0.62677 -0.0803393 0.0455704 -0.637228 -0.0838806 0.0467626 -0.646906 
-0.0869651 0.0479044 -0.655717 -0.0896101 0.0490241 -0.663589 -0.0918386 0.0501337 -0.670478 
-0.093679 0.051229 -0.676367 -0.0951646 0.0522919 -0.681267 -0.0963328 0.053296 -0.685221 
-0.0972239 0.0542122 -0.688299 -0.0978799 0.0550149 -0.690593 -0.0983427 0.0556868 -0.692214 
-0.0986529 0.0562222 -0.693284 -0.0988483 0.0566277 -0.693928 -0.0989622 0.0569205 -0.694268 
-0.0990231 0.0571249 -0.694416 -0.0990532 0.0572676 -0.694465 -0.0990684 0.0573723 -0.694488 
-0.0990773 0.0574555 -0.694527 
LINES 2 100
OFFSETS vtktypeint64
0 100 
CONNECTIVITY vtktypeint64
0 1 2 3 4 5 6 7 8 
9 10 11 12 13 14 15 16 17 
18 19 20 21 22 23 24 25 26 
27 28 29 30 31 32 33 34 35 
36 37 38 39 40 41 42 43 44 
45 46 47 48 49 50 51 52 53 
54 55 56 57 58 59 60 61 62 
63 64 65 66 67 68 69 70 71 
72 73 74 75 76 77 78 79 80 
81 82 83 84 85 86 87 88 89 
90 91 92 93 94 95 96 97 98 
99 
POINT_DATA 100
FIELD FieldData 3
_theta 1 100 double
0 0.031733259127 0.063466518254 0.095199777382 0.12693303651 0.15866629564 0.19039955476 0.22213281389 0.25386607302 
0.28559933214 0.31733259127 0.3490658504 0.38079910953 0.41253236865 0.44426562778 0.47599888691 0.50773214603 0.53946540516 
0.57119866429 0.60293192342 0.63466518254 0.66639844167 0.6981317008 0.72986495992 0.76159821905 0.79333147818 0.82506473731 
0.85679799643 0.88853125556 0.92026451469 0.95199777382 0.98373103294 1.0154642921 1.0471975512 1.0789308103 1.1106640695 
1.1423973286 1.1741305877 1.2058638468 1.237597106 1.2693303651 1.3010636242 1.3327968833 1.3645301425 1.3962634016 
1.4279966607 1.4597299198 1.491463179 1.5231964381 1.5549296972 1.5866629564 1.6183962155 1.6501294746 1.6818627337 
1.7135959929 1.745329252 1.7770625111 1.8087957702 1.8405290294 1.8722622885 1.9039955476 1.9357288068 1.9674620659 
1.999195325 2.0309285841 2.0626618433 2.0943951024 2.1261283615 2.1578616206 2.1895948798 2.2213281389 2.253061398 
2.2847946572 2.3165279163 2.3482611754 2.3799944345 2.4117276937 2.4434609528 2.4751942119 2.506927471 2.5386607302 
2.5703939893 2.6021272484 2.6338605076 2.6655937667 2.6973270258 2.7290602849 2.7607935441 2.7925268032 2.8242600623 
2.8559933214 2.8877265806 2.9194598397 2.9511930988 2.982926358 3.0146596171 3.0463928762 3.0781261353 3.1098593945 
3.1415926536 
_radius 1 100 double
9.9980287526e-16 0.016940441795 0.033827637021 0.050589291526 0.067128867415 0.083319186291 0.09900172471 0.11399205765 0.12809089851 
0.14109928827 0.15283588072 0.16315403165 0.17195650661 0.17920600184 0.18493023594 0.18922102292 0.19222739088 0.19414339344 
0.19519174296 0.19560479518 0.19560475441 0.19538521447 0.19509619787 0.19483460154 0.19464136996 0.19450579044 0.19437606513 
0.19417408267 0.19381178102 0.19320697351 0.19229738684 0.19105208737 0.18947924671 0.18762906484 0.18559196874 0.183494649 
0.18149626716 0.17978255121 0.1785523507 0.17799453774 0.17826020758 0.1794401197 0.18155618238 0.18456930932 0.18839910101 
0.19294725383 0.19811664777 0.20382074058 0.20998207774 0.21652285942 0.22335304566 0.23036165686 0.23741497663 0.24436236276 
0.25104772959 0.25732345193 0.26306352715 0.26817375087 0.27259778151 0.27631890055 0.27935787156 0.28176756592 0.28362505678 
0.28502184469 0.28605292447 0.28680559642 0.28734916889 0.28772678848 0.28795040379 0.28799933919 0.28782233006 0.28734239083 
0.28646367358 0.28507948918 0.28308078692 0.28036451716 0.2768413811 0.27244248805 0.26712440914 0.26087208351 0.25369907203 
0.24564484028 0.23676911964 0.22714390032 0.21684412797 0.2059385357 0.19448210101 0.18251132543 0.17004297675 0.1570762867 
0.14359804168 0.12958964912 0.11503512169 0.099928944241 0.084282902875 0.068131109507 0.051532635124 0.034571386 0.017353140232 
4.6038008729e-16 
_area 1 100 double
0 0.00062348712659 0.002501275496 0.0056490403589 0.010072937241 0.01574345774 0.022566779874 0.030361421721 0.038848315151 
0.047660159826 0.056371413942 0.064544743018 0.071784723074 0.077786657201 0.082368925711 0.085482074145 0.087195832531 0.087672996808 
0.087142766318 0.085886032721 0.084249020442 0.082782296872 0.081887342985 0.08135751447 0.081103749206 0.081019081135 0.080971340719 
0.080828133452 0.080491162812 0.07990730564 0.07912330366 0.077980717886 0.076590626261 0.07509533788 0.073810895545 0.07332031147 
0.07373081485 0.074809240141 0.076480801228 0.078748036132 0.081686643485 0.085313256772 0.089512815033 0.094156079502 0.099161686158 
0.1045089266 0.11022147978 0.11633408654 0.12286290043 0.12980060961 0.1371491287 0.14500302702 0.15344401888 0.16221759554 
0.17091490277 0.1791460034 0.18657140445 0.19291426844 0.19799186547 0.20173589977 0.20420195253 0.20553126326 0.20583655515 
0.20524698053 0.20392993334 0.20204755064 0.19974044219 0.19724696008 0.19472042713 0.19215263275 0.18972143559 0.18748121898 
0.18536448148 0.1831873517 0.18071234445 0.17769834419 0.17392103526 0.16919642196 0.16340615088 0.15651410378 0.14856912756 
0.13969442568 0.1300673057 0.11989437349 0.10938720677 0.098742365968 0.088128178959 0.077679508373 0.067500367475 0.05767279171 
0.048269411609 0.039366876527 0.031057067465 0.023452886588 0.016686387381 0.010899576586 0.0062309453385 0.00280179586 0.00070539028013 
6.0600200583e-17 
