# vtk DataFile Version 5.1
vtk output
ASCII
DATASET POLYDATA
POINTS 100 float
-0.0698606 -0.0255256 0.635259 -0.0699722 -0.0254154 0.635481 -0.0703231 -0.0248589 0.636 
-0.0708763 -0.0238782 0.63667 -0.0715726 -0.0225087 0.637277 -0.0723336 -0.0207925 0.637556 
-0.0730655 -0.0187726 0.637231 -0.0736637 -0.0164854 0.636044 -0.0740174 -0.0139555 0.633786 
-0.0740146 -0.0111922 0.63032 -0.0735464 -0.00818832 0.625593 -0.0725114 -0.00492283 0.619638 
-0.0708197 -0.00136542 0.612557 -0.0683959 0.00251615 0.60451 -0.0651824 0.00674757 0.595678 
-0.0611422 0.0113393 0.586237 -0.0562607 0.0162792 0.576332 -0.0505475 0.0215268 0.566048 
-0.0440369 0.0270115 0.555401 -0.0367877 0.0326334 0.544333 -0.0288811 0.0382684 0.53272 
-0.020418 0.043776 0.520391 -0.0115135 0.0490096 0.507155 -0.00229107 0.0538277 0.492826 
0.00712562 0.0581054 0.477257 0.0166205 0.0617436 0.46036 0.0260936 0.0646765 0.442128 
0.0354679 0.0668754 0.422631 0.0446951 0.0683487 0.402022 0.0537576 0.0691383 0.380511 
0.0626677 0.0693131 0.358348 0.071463 0.0689603 0.335787 0.0801978 0.0681758 0.313063 
0.0889317 0.0670543 0.290359 0.0977158 0.0656812 0.267787 0.106578 0.0641265 0.245382 
0.115512 0.0624417 0.223098 0.124463 0.060659 0.200823 0.133323 0.0587942 0.178401 
0.14193 0.0568504 0.155656 0.150076 0.0548246 0.132428 0.15751 0.0527127 0.108597 
0.163966 0.0505158 0.0841093 0.169173 0.0482436 0.0589921 0.172887 0.0459165 0.033357 
0.174907 0.0435657 0.0073933 0.175097 0.0412308 -0.0186483 0.1734 0.0389564 -0.0444808 
0.169848 0.0367873 -0.0698099 0.164558 0.0347641 -0.0943633 0.157727 0.0329188 -0.117918 
0.149613 0.0312726 -0.140317 0.140515 0.0298341 -0.161485 0.130747 0.0286009 -0.181425 
0.120609 0.0275612 -0.200211 0.110365 0.0266979 -0.217971 0.100225 0.0259921 -0.234865 
0.0903249 0.0254275 -0.251061 0.0807288 0.0249933 -0.26671 0.071429 0.0246859 -0.281932 
0.062359 0.0245086 -0.296802 0.0534111 0.0244706 -0.311349 0.0444587 0.0245832 -0.325559 
0.0353797 0.0248564 -0.339385 0.0260779 0.0252943 -0.352771 0.0164998 0.0258921 -0.365661 
0.00664529 0.0266332 -0.378024 -0.00342991 0.0274888 -0.389859 -0.0136198 0.0284194 -0.401208 
-0.0237805 0.0293782 -0.412152 -0.0337485 0.0303156 -0.422802 -0.0433615 0.0311852 -0.433286 
-0.052479 0.0319495 -0.443731 -0.0610009 0.0325849 -0.454244 -0.06888 0.0330846 -0.46489 
-0.0761276 0.0334599 -0.475685 -0.0828116 0.0337384 -0.486586 -0.0890463 0.0339601 -0.497494 
-0.0949763 0.0341712 -0.508262 -0.100756 0.0344167 -0.518712 -0.106528 0.0347328 -0.528655 
-0.112401 0.0351404 -0.537914 -0.118437 0.0356399 -0.546347 -0.124635 0.036209 -0.553858 
-0.130938 0.036804 -0.560413 -0.137229 0.0373638 -0.56604 -0.143354 0.0378169 -0.570823 
-0.149134 0.0380906 -0.574892 -0.15439 0.038121 -0.578397 -0.158968 0.0378624 -0.581497 
-0.162755 0.0372955 -0.584331 -0.165696 0.0364323 -0.587006 -0.1678 0.0353178 -0.589579 
-0.169138 0.0340271 -0.592061 -0.169836 0.0326597 -0.59441 -0.170058 0.0313296 -0.59655 
-0.169982 0.0301537 -0.59838 -0.169778 0.0292398 -0.599795 -0.169589 0.0286744 -0.600706 
-0.169505 0.0285136 -0.60105 
LINES 2 100
OFFSETS vtktypeint64
0 100 
CONNECTIVITY vtktypeint64
0 1 2 3 4 5 6 7 8 
9 10 11 12 13 14 15 16 17 
18 19 20 21 22 23 24 25 26 
27 28 29 30 31 32 33 34 35 
36 37 38 39 40 41 42 43 44 
45 46 47 48 49 50 51 52 53 
54 55 56 57 58 59 60 61 62 
63 64 65 66 67 68 69 70 71 
72 73 74 75 76 77 78 79 80 
81 82 83 84 85 86 87 88 89 
90 91 92 93 94 95 96 97 98 
99 
POINT_DATA 100
FIELD FieldData 3
_theta 1 100 double
0 0.031733259127 0.063466518254 0.095199777382 0.12693303651 0.15866629564 0.19039955476 0.22213281389 0.25386607302 
0.28559933214 0.31733259127 0.3490658504 0.38079910953 0.41253236865 0.44426562778 0.47599888691 0.50773214603 0.53946540516 
0.57119866429 0.60293192342 0.63466518254 0.66639844167 0.6981317008 0.72986495992 0.76159821905 0.79333147818 0.82506473731 
0.85679799643 0.88853125556 0.92026451469 0.95199777382 0.98373103294 1.0154642921 1.0471975512 1.0789308103 1.1106640695 
1.1423973286 1.1741305877 1.2058638468 1.237597106 1.2693303651 1.3010636242 1.3327968833 1.3645301425 1.3962634016 
1.4279966607 1.4597299198 1.491463179 1.5231964381 1.5549296972 1.5866629564 1.6183962155 1.6501294746 1.6818627337 
1.7135959929 1.745329252 1.7770625111 1.8087957702 1.8405290294 1.8722622885 1.9039955476 1.9357288068 1.9674620659 
1.999195325 2.0309285841 2.0626618433 2.0943951024 2.1261283615 2.1578616206 2.1895948798 2.2213281389 2.253061398 
2.2847946572 2.3165279163 2.3482611754 2.3799944345 2.4117276937 2.4434609528 2.4751942119 2.506927471 2.5386607302 
2.5703939893 2.6021272484 2.6338605076 2.6655937667 2.6973270258 2.7290602849 2.7607935441 2.7925268032 2.8242600623 
2.8559933214 2.8877265806 2.9194598397 2.9511930988 2.982926358 3.0146596171 3.0463928762 3.0781261353 3.1098593945 
3.1415926536 
_radius 1 100 double
1.33243025e-15 0.013815071505 0.027421834075 0.040635028032 0.053317397833 0.065389564776 0.076826539617 0.087642070304 0.097865280734 
0.10751607239 0.11658580004 0.12502782289 0.13275943154 0.13967348408 0.14565590442 0.15060459367 0.15444619807 0.15714887998 
0.15873082603 0.15926498855 0.15888032966 0.15775902149 0.15612832439 0.15424581699 0.15237761773 0.15077121738 0.14962703029 
0.1490746015 0.14915913889 0.14984116982 0.15100802948 0.15249297268 0.15409730696 0.15561246763 0.15684083304 0.15761510434 
0.15781592162 0.1573864569 0.15634175559 0.1547703082 0.15282621065 0.15071243905 0.14865872231 0.14689977474 0.14565921247 
0.14514056299 0.145521547 0.1469451153 0.14950299126 0.15321386623 0.1580048617 0.16370634133 0.1700650062 0.1767723665 
0.18350067327 0.18993816762 0.19581814466 0.20093922786 0.20517621262 0.2084819251 0.21088116917 0.21245829455 0.21334030896 
0.21367775186 0.21362565961 0.21332679886 0.21289890604 0.21242700725 0.21196109526 0.21151857477 0.21109005834 0.21064654969 
0.21014608258 0.20953854135 0.20876833191 0.20777532902 0.20649485142 0.20485736277 0.20278836382 0.20020873899 0.19703577055 
0.19318510873 0.1885740354 0.18312622887 0.17677788461 0.16948456865 0.16122775222 0.15201975932 0.14190593879 0.13096325364 
0.11929509366 0.10702283542 0.09427533183 0.08117794252 0.067842800363 0.054361723487 0.040802613441 0.027209500027 0.01360580053 
3.2549134866e-16 
_area 1 100 double
0 0.00054766356696 0.0021527036723 0.0047092243366 0.0080650038108 0.012049983826 0.016500975636 0.021272757691 0.026234725975 
0.031261721045 0.036226758048 0.04099707938 0.04543300384 0.049390875204 0.052732061317 0.055337504883 0.057123816235 0.058055640238 
0.058151102592 0.057480935585 0.056165158627 0.054372111654 0.052320562411 0.050269620452 0.048463599711 0.04706400211 0.046159088559 
0.045807125993 0.046042310252 0.046851202155 0.048161378051 0.049860750444 0.051820571243 0.053902666394 0.055956565495 0.057817440033 
0.059316572541 0.060313891717 0.060744443205 0.060655058237 0.060207003984 0.059620696442 0.059067182711 0.058637499029 0.058403152907 
0.058459008552 0.058940576951 0.060030873242 0.061949137118 0.064908208905 0.069041073054 0.074331696303 0.080599130678 0.087536804399 
0.094764145958 0.1018697833 0.10845028697 0.11415012343 0.11870314037 0.12196951467 0.12395688436 0.1248107724 0.12477234911 
0.124129412 0.12330641351 0.12236762391 0.12130149545 0.12022292889 0.11908076921 0.11783043871 0.11644271247 0.11488936877 
0.11314766281 0.11120223997 0.1090443687 0.10666837008 0.10406397743 0.10120811373 0.098064891957 0.094595051176 0.090764222759 
0.086543440276 0.081905670163 0.076825296356 0.071284902876 0.065288928307 0.058879303799 0.052146386024 0.045229970768 0.038308673025 
0.031579854879 0.025235330275 0.01943938459 0.014314747056 0.0099392852652 0.0063524287083 0.0035672626161 0.0015832023154 0.00039544368747 
4.2500725161e-17 
