# vtk DataFile Version 5.1
vtk output
ASCII
DATASET POLYDATA
POINTS 100 float
-0.210373 -0.020173 0.731107 -0.209758 -0.0201715 0.730896 -0.207961 -0.0199747 0.730288 
-0.205062 -0.0195669 0.729193 -0.201182 -0.0189251 0.727474 -0.196473 -0.0180214 0.724965 
-0.191101 -0.0168261 0.721495 -0.185223 -0.0153115 0.716911 -0.178977 -0.0134547 0.711098 
-0.172462 -0.0112401 0.703996 -0.165734 -0.00866121 0.69561 -0.158799 -0.00572071 0.686011 
-0.151618 -0.00243061 0.675327 -0.144116 0.00118894 0.66373 -0.136196 0.00511087 0.651415 
-0.127754 0.00930254 0.638578 -0.118697 0.0137267 0.625391 -0.10896 0.0183418 0.611988 
-0.098521 0.0231022 0.598443 -0.0874045 0.027957 0.584772 -0.0756881 0.0328493 0.57093 
-0.0634967 0.0377154 0.556817 -0.050993 0.0424843 0.542299 -0.0383627 0.0470785 0.527226 
-0.0257968 0.0514155 0.511448 -0.0134733 0.0554112 0.49484 -0.00153992 0.0589839 0.477312 
0.00989997 0.0620601 0.458822 0.020796 0.0645799 0.43938 0.0311531 0.0665024 0.41904 
0.0410279 0.06781 0.397893 0.050518 0.0685108 0.376049 0.0597465 0.0686395 0.353627 
0.0688433 0.0682543 0.330731 0.0779247 0.0674325 0.307444 0.0870745 0.0662637 0.283813 
0.0963277 0.0648408 0.259851 0.10566 0.0632515 0.23554 0.114981 0.0615699 0.210837 
0.124141 0.0598496 0.185692 0.132935 0.0581194 0.160062 0.141121 0.056383 0.133927 
0.148439 0.0546208 0.107302 0.154629 0.0527963 0.0802524 0.159458 0.0508644 0.0528906 
0.162737 0.0487813 0.0253769 0.164335 0.0465152 -0.00209027 0.164192 0.0440555 -0.0292888 
0.162322 0.0414195 -0.0559905 0.15881 0.0386566 -0.0819801 0.153801 0.0358472 -0.107073 
0.14749 0.0330981 -0.13113 0.140105 0.0305336 -0.154068 0.131883 0.0282843 -0.175863 
0.123061 0.0264737 -0.196548 0.113851 0.0252048 -0.216206 0.104435 0.0245487 -0.234956 
0.0949556 0.0245356 -0.252942 0.0855124 0.0251509 -0.270312 0.0761658 0.0263351 -0.287208 
0.0669431 0.0279897 -0.303751 0.0578476 0.0299864 -0.320037 0.0488696 0.0321804 -0.336129 
0.039997 0.0344248 -0.352062 0.0312245 0.0365852 -0.367846 0.0225605 0.0385532 -0.383474 
0.0140307 0.0402551 -0.398929 0.00567841 0.0416582 -0.414192 -0.0024389 0.0427706 -0.42925 
-0.0102548 0.0436368 -0.444094 -0.0177015 0.0443292 -0.458726 -0.0247175 0.0449365 -0.473151 
-0.0312546 0.0455504 -0.487374 -0.0372838 0.0462529 -0.501395 -0.0427982 0.0471055 -0.5152 
-0.0478129 0.0481416 -0.528761 -0.0523629 0.0493626 -0.54203 -0.0564975 0.0507395 -0.554941 
-0.0602736 0.0522176 -0.567411 -0.0637478 0.0537251 -0.579353 -0.0669689 0.0551842 -0.590677 
-0.0699714 0.0565215 -0.601304 -0.0727718 0.0576791 -0.611173 -0.0753661 0.0586216 -0.620245 
-0.0777322 0.0593412 -0.628513 -0.0798338 0.0598574 -0.635996 -0.0816264 0.0602137 -0.642742 
-0.0830661 0.0604708 -0.648816 -0.0841172 0.060697 -0.654293 -0.0847605 0.0609579 -0.659252 
-0.0849987 0.0613068 -0.663761 -0.0848606 0.0617768 -0.66787 -0.0844012 0.0623755 -0.671608 
-0.0836986 0.0630847 -0.674979 -0.0828491 0.0638619 -0.677964 -0.0819579 0.0646474 -0.680525 
-0.0811303 0.0653724 -0.682614 -0.0804611 0.065969 -0.684179 -0.0800254 0.06638 -0.685177 
-0.0798711 0.0665672 -0.685576 
LINES 2 100
OFFSETS vtktypeint64
0 100 
CONNECTIVITY vtktypeint64
0 1 2 3 4 5 6 7 8 
9 10 11 12 13 14 15 16 17 
18 19 20 21 22 23 24 25 26 
27 28 29 30 31 32 33 34 35 
36 37 38 39 40 41 42 43 44 
45 46 47 48 49 50 51 52 53 
54 55 56 57 58 59 60 61 62 
63 64 65 66 67 68 69 70 71 
72 73 74 75 76 77 78 79 80 
81 82 83 84 85 86 87 88 89 
90 91 92 93 94 95 96 97 98 
99 
POINT_DATA 100
FIELD FieldData 3
_theta 1 100 double
0 0.031733259127 0.063466518254 0.095199777382 0.12693303651 0.15866629564 0.19039955476 0.22213281389 0.25386607302 
0.28559933214 0.31733259127 0.3490658504 0.38079910953 0.41253236865 0.44426562778 0.47599888691 0.50773214603 0.53946540516 
0.57119866429 0.60293192342 0.63466518254 0.66639844167 0.6981317008 0.72986495992 0.76159821905 0.79333147818 0.82506473731 
0.85679799643 0.88853125556 0.92026451469 0.95199777382 0.98373103294 1.0154642921 1.0471975512 1.0789308103 1.1106640695 
1.1423973286 1.1741305877 1.2058638468 1.237597106 1.2693303651 1.3010636242 1.3327968833 1.3645301425 1.3962634016 
1.4279966607 1.4597299198 1.491463179 1.5231964381 1.5549296972 1.5866629564 1.6183962155 1.6501294746 1.6818627337 
1.7135959929 1.745329252 1.7770625111 1.8087957702 1.8405290294 1.8722622885 1.9039955476 1.9357288068 1.9674620659 
1.999195325 2.0309285841 2.0626618433 2.0943951024 2.1261283615 2.1578616206 2.1895948798 2.2213281389 2.253061398 
2.2847946572 2.3165279163 2.3482611754 2.3799944345 2.4117276937 2.4434609528 2.4751942119 2.506927471 2.5386607302 
2.5703939893 2.6021272484 2.6338605076 2.6655937667 2.6973270258 2.7290602849 2.7607935441 2.7925268032 2.8242600623 
2.8559933214 2.8877265806 2.9194598397 2.9511930988 2.982926358 3.0146596171 3.0463928762 3.0781261353 3.1098593945 
3.1415926536 
_radius 1 100 double
1.5708435928e-15 0.016154360164 0.031879194535 0.046782797642 0.060548756745 0.072961881737 0.083921751212 0.093442313259 0.10163781113 
0.10869718179 0.11485078783 0.12033463519 0.12535773684 0.13007759705 0.13458683328 0.13891136043 0.1430184334 0.14683185684 
0.15025162139 0.15317547331 0.1555200402 0.15723906812 0.15833628748 0.15887073762 0.15895325282 0.15873415254 0.15838365722 
0.15806789351 0.1579243981 0.15804142829 0.15844464484 0.15909310412 0.15988510712 0.1606737786 0.16129152551 0.16158104804 
0.16142849541 0.16079214746 0.15971815927 0.15833521709 0.15682666422 0.1553923491 0.15422000822 0.15347546878 0.15330570681 
0.15384521374 0.15521930457 0.15753926643 0.16088477268 0.16527382506 0.17063035574 0.17676713832 0.18339717981 0.19017195684 
0.19673277336 0.20276000684 0.20801039345 0.21233836789 0.21570120316 0.21814974516 0.21980790665 0.22084514969 0.2214467697 
0.22178660164 0.22200573418 0.22219924548 0.22241138562 0.2226384325 0.22283770227 0.22294071021 0.22286810338 0.2225437877 
0.22190584026 0.22091241979 0.21954184917 0.21778713779 0.21564628777 0.21311067428 0.21015440397 0.20672752689 0.20275509213 
0.19814244927 0.19278549341 0.18658346794 0.17945189687 0.17133399825 0.16220981062 0.15210258198 0.14108168753 0.12926102005 
0.11679201224 0.10385130074 0.090624193889 0.077286128573 0.063984889527 0.050826385027 0.037866239614 0.025108496169 0.012511515708 
4.2362568136e-16 
_area 1 100 double
0 0.00066080335886 0.002584500244 0.0056033674328 0.0094649171053 0.013868698495 0.018509777017 0.023120890958 0.027504886716 
0.031550991805 0.035232245989 0.038585734718 0.041681231784 0.044586881029 0.047341567349 0.049941594597 0.05234459846 0.054487781672 
0.056312622425 0.057786517461 0.058912958285 0.059722894615 0.060248692188 0.060506791654 0.060513139311 0.060313440915 0.060001226216 
0.059718058345 0.059636147519 0.059910429047 0.060624398175 0.061774571806 0.063276855986 0.064978619748 0.066690191949 0.06822484306 
0.06942606972 0.070196493502 0.070520250325 0.070461927391 0.070164025943 0.069818003936 0.069634057507 0.069827001425 0.070585196682 
0.072021194542 0.074138461547 0.07686403275 0.080179848246 0.084233432066 0.089285594428 0.095481055498 0.10266481969 0.11041040028 
0.11814222394 0.1252597163 0.13124916878 0.13577272988 0.13871679331 0.14018607416 0.14044717446 0.13984655658 0.13873901618 
0.13745088432 0.13619408655 0.13496027333 0.13370501592 0.13243504209 0.13118673458 0.12999511115 0.12886299638 0.12774006469 
0.12652456544 0.12508790159 0.12330840064 0.1210981582 0.11841331133 0.11524707626 0.11161224617 0.10752280581 0.10298254401 
0.097984086287 0.092516818932 0.086578421755 0.080183989596 0.073369985088 0.06619545071 0.058745029726 0.051134480446 0.043513583471 
0.036060465326 0.028966165436 0.022413819947 0.016559219955 0.011518336805 0.0073642303556 0.0041324372416 0.0018317966773 0.0004570475648 
3.5723831224e-17 
