# vtk DataFile Version 5.1
vtk output
ASCII
DATASET POLYDATA
POINTS 100 float
-0.0389338 0.00296951 0.736232 -0.0391136 0.00291774 0.736482 -0.0396904 0.0029789 0.737209 
-0.0406291 0.00316397 0.738255 -0.0418711 0.00349001 0.739375 -0.0433368 0.00397874 0.740259 
-0.0449268 0.00465478 0.740565 -0.0465253 0.00554367 0.73995 -0.048004 0.00666992 0.738101 
-0.0492258 0.00805518 0.73476 -0.0500505 0.00971679 0.729748 -0.05034 0.0116666 0.722971 
-0.0499647 0.0139106 0.714427 -0.0488092 0.0164481 0.704192 -0.0467789 0.0192724 0.692411 
-0.0438051 0.0223703 0.679272 -0.0398496 0.0257229 0.664987 -0.0349081 0.029305 0.649764 
-0.0290112 0.0330859 0.633794 -0.0222243 0.0370282 0.61723 -0.0146445 0.0410884 0.600182 
-0.00639605 0.0452157 0.58271 0.00237712 0.0493525 0.564837 0.0115194 0.0534342 0.546546 
0.020873 0.05739 0.527802 0.0302877 0.0611445 0.50856 0.03963 0.06462 0.488778 
0.0487902 0.0677392 0.468424 0.0576879 0.0704291 0.447485 0.0662746 0.0726253 0.425967 
0.0745322 0.0742756 0.403889 0.0824698 0.0753444 0.381284 0.0901157 0.0758158 0.358187 
0.0975088 0.0756951 0.33463 0.104687 0.0750101 0.310635 0.111678 0.0738099 0.286214 
0.118488 0.0721621 0.261365 0.125092 0.0701488 0.23608 0.131436 0.0678612 0.210348 
0.137427 0.0653932 0.184166 0.142946 0.0628353 0.157544 0.14785 0.0602683 0.130519 
0.151985 0.0577579 0.103153 0.155197 0.0553517 0.0755401 0.15735 0.0530765 0.047802 
0.158339 0.0509391 0.0200824 0.158098 0.0489283 -0.00746267 0.156611 0.047019 -0.0346766 
0.153914 0.0451775 -0.0614142 0.150095 0.0433679 -0.0875532 0.145284 0.0415586 -0.113003 
0.139645 0.0397275 -0.137708 0.13336 0.0378673 -0.161653 0.126614 0.0359881 -0.184853 
0.119577 0.034118 -0.207351 0.11239 0.0323015 -0.229205 0.105158 0.0305964 -0.250477 
0.0979365 0.0290678 -0.271224 0.0907381 0.0277822 -0.291486 0.0835316 0.0268002 -0.311283 
0.0762535 0.0261695 -0.330614 0.0688204 0.0259196 -0.34946 0.061144 0.0260573 -0.367786 
0.0531462 0.0265648 -0.385556 0.0447734 0.0274005 -0.40274 0.0360062 0.028501 -0.419325 
0.0268665 0.0297867 -0.435319 0.0174179 0.0311681 -0.450757 0.0077619 0.0325531 -0.4657 
-0.00197118 0.0338553 -0.480228 -0.0116342 0.0350004 -0.494433 -0.0210776 0.035933 -0.508403 
-0.0301636 0.0366199 -0.522215 -0.038779 0.0370519 -0.535917 -0.0468451 0.0372436 -0.54952 
-0.0543223 0.0372297 -0.562995 -0.0612114 0.0370605 -0.576269 -0.0675489 0.0367954 -0.589231 
-0.0733986 0.0364961 -0.601744 -0.0788401 0.0362195 -0.613656 -0.0839565 0.0360116 -0.624819 
-0.0888219 0.035903 -0.635103 -0.0934907 0.0359064 -0.644411 -0.0979904 0.0360159 -0.652691 
-0.102319 0.0362087 -0.659939 -0.106446 0.0364489 -0.666201 -0.110319 0.0366926 -0.671564 
-0.11387 0.0368939 -0.67615 -0.117032 0.0370109 -0.680094 -0.119743 0.0370112 -0.683536 
-0.121963 0.0368767 -0.686599 -0.123678 0.0366055 -0.689381 -0.124904 0.0362133 -0.691944 
-0.125691 0.0357315 -0.694312 -0.126112 0.0352041 -0.696472 -0.126259 0.0346828 -0.698382 
-0.126232 0.0342212 -0.69998 -0.126124 0.0338689 -0.701201 -0.126013 0.0336659 -0.701986 
-0.12595 0.0336379 -0.702292 
LINES 2 100
OFFSETS vtktypeint64
0 100 
CONNECTIVITY vtktypeint64
0 1 2 3 4 5 6 7 8 
9 10 11 12 13 14 15 16 17 
18 19 20 21 22 23 24 25 26 
27 28 29 30 31 32 33 34 35 
36 37 38 39 40 41 42 43 44 
45 46 47 48 49 50 51 52 53 
54 55 56 57 58 59 60 61 62 
63 64 65 66 67 68 69 70 71 
72 73 74 75 76 77 78 79 80 
81 82 83 84 85 86 87 88 89 
90 91 92 93 94 95 96 97 98 
99 
POINT_DATA 100
FIELD FieldData 3
_theta 1 100 double
0 0.031733259127 0.063466518254 0.095199777382 0.12693303651 0.15866629564 0.19039955476 0.22213281389 0.25386607302 
0.28559933214 0.31733259127 0.3490658504 0.38079910953 0.41253236865 0.44426562778 0.47599888691 0.50773214603 0.53946540516 
0.57119866429 0.60293192342 0.63466518254 0.66639844167 0.6981317008 0.72986495992 0.76159821905 0.79333147818 0.82506473731 
0.85679799643 0.88853125556 0.92026451469 0.95199777382 0.98373103294 1.0154642921 1.0471975512 1.0789308103 1.1106640695 
1.1423973286 1.1741305877 1.2058638468 1.237597106 1.2693303651 1.3010636242 1.3327968833 1.3645301425 1.3962634016 
1.4279966607 1.4597299198 1.491463179 1.5231964381 1.5549296972 1.5866629564 1.6183962155 1.6501294746 1.6818627337 
1.7135959929 1.745329252 1.7770625111 1.8087957702 1.8405290294 1.8722622885 1.9039955476 1.9357288068 1.9674620659 
1.999195325 2.0309285841 2.0626618433 2.0943951024 2.1261283615 2.1578616206 2.1895948798 2.2213281389 2.253061398 
2.2847946572 2.3165279163 2.3482611754 2.3799944345 2.4117276937 2.4434609528 2.4751942119 2.506927471 2.5386607302 
2.5703939893 2.6021272484 2.6338605076 2.6655937667 2.6973270258 2.7290602849 2.7607935441 2.7925268032 2.8242600623 
2.8559933214 2.8877265806 2.9194598397 2.9511930988 2.982926358 3.0146596171 3.0463928762 3.0781261353 3.1098593945 
3.1415926536 
_radius 1 100 double
7.7715805331e-16 0.014244627456 0.02844328091 0.042537319583 0.05645306039 0.070099735828 0.083371621614 0.096153342853 0.10832672358 
0.11977759132 0.1304015203 0.14010824606 0.14882506736 0.15649978396 0.16310362116 0.16863429651 0.17311901358 0.17661678049 
0.17921910136 0.18104790535 0.18224974937 0.1829859886 0.18341969218 0.18370127613 0.1839556131 0.18427324637 0.18470713807 
0.18527463467 0.18596297628 0.18673635232 0.18754309713 0.18832251698 0.18901153597 0.18955174571 0.18989748683 0.19002479111 
0.18993932041 0.18968035594 0.18931887042 0.18895015676 0.18868362355 0.18863299215 0.18890913208 0.18961583535 0.19084696325 
0.19268258495 0.19518250219 0.19837752062 0.20226075954 0.20678198146 0.21184706165 0.21732302843 0.223047629 0.22884166759 
0.2345223216 0.23991593433 0.24486918971 0.24925799101 0.25299371148 0.25602670596 0.25834707644 0.25998272906 0.26099481746 
0.26147079529 0.26151552275 0.26124115533 0.2607567886 0.26015892201 0.25952366547 0.25890127276 0.25831315293 0.25775111194 
0.25717831245 0.25653137415 0.25572318868 0.2546463364 0.2531773202 0.25118199403 0.24852244662 0.24506522432 0.24069028367 
0.23529964664 0.22882454927 0.22122999702 0.21251603853 0.20271564718 0.19188972813 0.18012030538 0.16750322576 0.1541415996 
0.14014067163 0.12560410843 0.11063118137 0.095314269664 0.079736443425 0.063969326755 0.048071720425 0.032089482157 0.016056964585 
3.2903085108e-16 
_area 1 100 double
0 0.0005432747617 0.0021858154619 0.0049552372792 0.0088679526941 0.013899901729 0.019965245375 0.026908041162 0.034506336794 
0.042485370322 0.050536272589 0.058337644082 0.065578474276 0.071981324607 0.077324342218 0.081459850904 0.084326556374 0.085952534579 
0.086447948678 0.085989828939 0.084804004483 0.083148381249 0.081297987796 0.079529637747 0.078103203136 0.077233648623 0.077047320591 
0.077540045129 0.078586677067 0.080006454042 0.081626727785 0.083312749975 0.084968683985 0.086527934129 0.087957072178 0.08927291497 
0.090536163292 0.091787993192 0.093014694921 0.094198828382 0.095367010617 0.096590156659 0.097962369191 0.09958164429 0.10154615958 
0.10396230649 0.10695162994 0.11064461135 0.11515639624 0.12055065132 0.12680751398 0.13380917497 0.14134506529 0.14913213478 
0.15684564166 0.16415570718 0.17076343642 0.17642994139 0.18099340158 0.18437290644 0.18656173926 0.1876152434 0.18763833406 
0.18677523898 0.18520070408 0.18310971606 0.18070300196 0.17816792872 0.17565756202 0.17327278605 0.17105229982 0.16897304636 
0.16696032674 0.16490376973 0.1626735318 0.16013159619 0.15713631235 0.15354319376 0.14920836303 0.14400002013 0.13781832802 
0.13061865766 0.1224303954 0.11336430222 0.10360482989 0.093388366782 0.082972609927 0.072604939466 0.062498025648 0.05281856715 
0.043690407766 0.035207936564 0.027452259982 0.020503037355 0.014442539948 0.0093528171608 0.0053094051549 0.0023751313045 0.00059608487939 
0 
