# vtk DataFile Version 5.1
vtk output
ASCII
DATASET POLYDATA
POINTS 100 float
-0.196032 -0.0110903 0.691325 -0.195512 -0.0112625 0.691287 -0.194054 -0.0116172 0.691267 
-0.191747 -0.0121167 0.691201 -0.188725 -0.0127014 0.690985 -0.185152 -0.0132944 0.690489 
-0.181201 -0.013808 0.689565 -0.177029 -0.0141499 0.688059 -0.172764 -0.0142301 0.685828 
-0.168482 -0.0139668 0.682746 -0.164203 -0.0132915 0.678711 -0.159889 -0.0121524 0.673655 
-0.155446 -0.0105159 0.667536 -0.15074 -0.00836693 0.660344 -0.145612 -0.00570802 0.652091 
-0.139901 -0.00255667 0.642806 -0.133462 0.00105713 0.632529 -0.126186 0.00509372 0.621304 
-0.118011 0.00950609 0.609176 -0.108932 0.0142416 0.596187 -0.0989982 0.0192426 0.582375 
-0.0883071 0.0244466 0.56778 -0.0769911 0.0297852 0.552437 -0.0652004 0.035183 0.536387 
-0.0530842 0.0405568 0.519674 -0.0407733 0.0458151 0.502345 -0.0283651 0.0508587 0.484451 
-0.0159154 0.0555825 0.466041 -0.0034355 0.0598789 0.44716 0.00910244 0.063643 0.427839 
0.0217543 0.066778 0.408095 0.0345875 0.0692023 0.38792 0.0476611 0.0708555 0.367285 
0.0610061 0.0717049 0.34614 0.0746075 0.0717499 0.324417 0.0883906 0.0710237 0.302039 
0.102215 0.0695941 0.278933 0.115873 0.0675599 0.255042 0.129103 0.0650456 0.230336 
0.141598 0.0621934 0.204828 0.153033 0.0591534 0.178581 0.163088 0.0560732 0.151708 
0.171469 0.0530874 0.124376 0.177939 0.050308 0.0967971 0.182331 0.0478174 0.0692128 
0.184564 0.0456632 0.0418803 0.184648 0.0438572 0.0150512 0.182682 0.0423769 -0.011048 
0.178843 0.041171 -0.0362345 0.173372 0.0401668 -0.0603831 0.166551 0.0392797 -0.0834353 
0.158683 0.0384238 -0.105401 0.150069 0.0375219 -0.126353 0.140985 0.0365144 -0.146415 
0.131668 0.0353662 -0.165749 0.122303 0.0340697 -0.184527 0.113018 0.0326464 -0.202919 
0.103885 0.0311435 -0.221069 0.0949225 0.0296285 -0.239079 0.0861062 0.0281815 -0.257003 
0.0773809 0.0268863 -0.274841 0.0686729 0.0258207 -0.292544 0.0599026 0.0250482 -0.310022 
0.0509957 0.0246107 -0.327163 0.0418919 0.0245243 -0.343846 0.0325511 0.0247779 -0.359962 
0.0229561 0.0253341 -0.375428 0.0131131 0.026134 -0.390204 0.00305018 0.0271031 -0.404291 
-0.00718649 0.0281602 -0.417743 -0.0175363 0.029225 -0.43065 -0.0279289 0.0302269 -0.443135 
-0.0382878 0.0311116 -0.455336 -0.0485343 0.0318459 -0.467389 -0.0585896 0.0324196 -0.479408 
-0.0683772 0.0328455 -0.491477 -0.0778243 0.0331557 -0.503634 -0.0868625 0.0333965 -0.515866 
-0.0954295 0.0336217 -0.528113 -0.10347 0.0338849 -0.54027 -0.110935 0.0342324 -0.5522 
-0.117788 0.0346975 -0.563745 -0.124 0.0352956 -0.574746 -0.129558 0.036023 -0.585055 
-0.134458 0.036857 -0.594548 -0.138713 0.0377589 -0.603135 -0.142345 0.0386788 -0.610767 
-0.145392 0.039562 -0.617434 -0.1479 0.0403557 -0.623164 -0.149922 0.0410154 -0.628013 
-0.151517 0.0415102 -0.632064 -0.152745 0.0418266 -0.635406 -0.153666 0.0419697 -0.638135 
-0.154336 0.0419629 -0.640339 -0.154807 0.0418439 -0.642098 -0.155122 0.0416605 -0.643475 
-0.155318 0.0414643 -0.64452 -0.155426 0.041304 -0.645266 -0.155464 0.0412194 -0.645735 
-0.155447 0.0412361 -0.64594 
LINES 2 100
OFFSETS vtktypeint64
0 100 
CONNECTIVITY vtktypeint64
0 1 2 3 4 5 6 7 8 
9 10 11 12 13 14 15 16 17 
18 19 20 21 22 23 24 25 26 
27 28 29 30 31 32 33 34 35 
36 37 38 39 40 41 42 43 44 
45 46 47 48 49 50 51 52 53 
54 55 56 57 58 59 60 61 62 
63 64 65 66 67 68 69 70 71 
72 73 74 75 76 77 78 79 80 
81 82 83 84 85 86 87 88 89 
90 91 92 93 94 95 96 97 98 
99 
POINT_DATA 100
FIELD FieldData 3
_theta 1 100 double
0 0.031733259127 0.063466518254 0.095199777382 0.12693303651 0.15866629564 0.19039955476 0.22213281389 0.25386607302 
0.28559933214 0.31733259127 0.3490658504 0.38079910953 0.41253236865 0.44426562778 0.47599888691 0.50773214603 0.53946540516 
0.57119866429 0.60293192342 0.63466518254 0.66639844167 0.6981317008 0.72986495992 0.76159821905 0.79333147818 0.82506473731 
0.85679799643 0.88853125556 0.92026451469 0.95199777382 0.98373103294 1.0154642921 1.0471975512 1.0789308103 1.1106640695 
1.1423973286 1.1741305877 1.2058638468 1.237597106 1.2693303651 1.3010636242 1.3327968833 1.3645301425 1.3962634016 
1.4279966607 1.4597299198 1.491463179 1.5231964381 1.5549296972 1.5866629564 1.6183962155 1.6501294746 1.6818627337 
1.7135959929 1.745329252 1.7770625111 1.8087957702 1.8405290294 1.8722622885 1.9039955476 1.9357288068 1.9674620659 
1.999195325 2.0309285841 2.0626618433 2.0943951024 2.1261283615 2.1578616206 2.1895948798 2.2213281389 2.253061398 
2.2847946572 2.3165279163 2.3482611754 2.3799944345 2.4117276937 2.4434609528 2.4751942119 2.506927471 2.5386607302 
2.5703939893 2.6021272484 2.6338605076 2.6655937667 2.6973270258 2.7290602849 2.7607935441 2.7925268032 2.8242600623 
2.8559933214 2.8877265806 2.9194598397 2.9511930988 2.982926358 3.0146596171 3.0463928762 3.0781261353 3.1098593945 
3.1415926536 
_radius 1 100 double
3.3433391753e-16 0.014875960762 0.029649489774 0.044234262634 0.05857085368 0.072627420763 0.086389491582 0.099841507871 0.11294595952 
0.12562704702 0.13776420645 0.1491973756 0.15974233059 0.16921217568 0.17744048347 0.18430222659 0.18972986804 0.19372327381 
0.1963531626 0.1977584576 0.19813813773 0.19773812178 0.19683359512 0.19570728366 0.19462471498 0.19380850953 0.19341492524 
0.19351661027 0.19409513601 0.19504522261 0.19619029817 0.19730721187 0.19815709118 0.19851909203 0.1982233772 0.19717898456 
0.19539236007 0.19297426199 0.19013501293 0.18716775793 0.18441794284 0.18223981941 0.1809480901 0.18077842185 0.18186718747 
0.18425035073 0.18787428731 0.19261182203 0.19827956356 0.20465403845 0.21148558878 0.21851116366 0.22546821257 0.23211090416 
0.23822782358 0.24365853353 0.24830563879 0.25213940045 0.25519332263 0.25755108268 0.25932714266 0.26064478388 0.26161571107 
0.26232465641 0.26282086738 0.26311660785 0.26319147206 0.26300071467 0.26248581971 0.26158581358 0.260248055 0.25843727531 
0.25614157013 0.25337408874 0.25016958689 0.24657590966 0.24264168149 0.23840259876 0.23386929825 0.22901953751 0.22379641099 
0.21811288657 0.21186157438 0.20492774514 0.19720335404 0.18860009153 0.17906002238 0.168562934 0.15712993466 0.14482309473 
0.13174110453 0.11801117379 0.10377779081 0.089189433949 0.074384739921 0.059479881067 0.044558968459 0.029669172436 0.014821836818 
3.9430067496e-16 
_area 1 100 double
0 0.00055460508519 0.002206030865 0.0049210144666 0.0086544647095 0.013356917538 0.018973309591 0.025430042806 0.032613922397 
0.040352117088 0.048403513588 0.056467721106 0.064210738588 0.071299932584 0.077438577629 0.082392309731 0.086004577813 0.088202694393 
0.088998380257 0.088486837884 0.0868481125 0.084356147348 0.081407826836 0.078572688305 0.07646884245 0.075442127492 0.075621893457 
0.076997666104 0.079387139674 0.082456378361 0.085786151554 0.088944260391 0.091555416341 0.093356083579 0.094217951867 0.094140660066 
0.093235388068 0.091733237236 0.090186029331 0.089682525432 0.090061601478 0.090963541083 0.092334864152 0.0944081273 0.097489120878 
0.10121540568 0.10541883712 0.11013845837 0.11546878481 0.12148719867 0.12818619341 0.13544105052 0.14302398921 0.15064247444 
0.1579871237 0.16478086826 0.17081766509 0.1759804744 0.18023606221 0.18361277612 0.18617219723 0.18798491615 0.18911592928 
0.18961938912 0.18953853692 0.18890594187 0.18774149481 0.18604947327 0.18381849079 0.18102686855 0.17765282485 0.17368723481 
0.16914599237 0.16407791739 0.15856401264 0.15270623289 0.14660815887 0.14035365785 0.13399070444 0.12752571562 0.12092989121 
0.11415452955 0.10714912071 0.099876079949 0.092319057075 0.084485336509 0.076404871107 0.068129037422 0.059731697013 0.051313201876 
0.043004913531 0.034969576609 0.027393505423 0.020470068326 0.014378379114 0.0092639045473 0.0052274184409 0.0023255331984 0.00058138135995 
2.2764959406e-17 
