# vtk DataFile Version 5.1
vtk output
ASCII
DATASET POLYDATA
POINTS 100 float
-0.0484629 -0.0779725 0.776557 -0.0481353 -0.0778918 0.77592 -0.0471624 -0.0773828 0.774004 
-0.0456234 -0.07642 0.770837 -0.0436424 -0.0749671 0.76646 -0.041375 -0.072982 0.760934 
-0.0389929 -0.070424 0.754331 -0.0366661 -0.0672597 0.746735 -0.0345447 -0.0634698 0.73824 
-0.0327432 -0.0590531 0.728943 -0.0313269 -0.0540296 0.718946 -0.0303039 -0.0484408 0.708347 
-0.0296222 -0.0423477 0.697242 -0.0291721 -0.035827 0.685715 -0.028795 -0.0289654 0.673842 
-0.0282968 -0.0218538 0.661681 -0.0274645 -0.0145813 0.649277 -0.0260858 -0.00723006 0.636655 
-0.0239677 0.00012844 0.62382 -0.0209542 0.00743482 0.61076 -0.0169403 0.0146416 0.597445 
-0.0118815 0.0217108 0.58383 -0.00579662 0.0286107 0.569859 0.00123406 0.0353107 0.555467 
0.00907749 0.0417778 0.540588 0.0175609 0.0479724 0.525158 0.0264881 0.0538458 0.50912 
0.0356579 0.0593405 0.492429 0.0448814 0.0643914 0.475056 0.0539976 0.0689291 0.456986 
0.0628845 0.0728854 0.438225 0.0714657 0.076199 0.418795 0.0797104 0.0788217 0.398732 
0.0876279 0.0807237 0.378083 0.0952575 0.0818977 0.356899 0.102655 0.0823609 0.335235 
0.109874 0.0821547 0.31314 0.116954 0.081342 0.290656 0.123905 0.0800027 0.267811 
0.130694 0.0782273 0.244625 0.137246 0.07611 0.221103 0.143442 0.0737412 0.197242 
0.149126 0.0712019 0.173034 0.154118 0.0685582 0.14847 0.158228 0.0658587 0.123547 
0.161278 0.0631342 0.098273 0.163115 0.0603989 0.0726727 0.16363 0.057654 0.0467898 
0.162767 0.0548924 0.0206888 0.16053 0.0521041 -0.00554537 0.156983 0.0492817 -0.0318103 
0.152244 0.0464243 -0.0579911 0.146471 0.0435412 -0.0839663 0.139849 0.0406531 -0.109615 
0.132569 0.0377918 -0.134825 0.124813 0.034998 -0.159497 0.116735 0.0323184 -0.183552 
0.108451 0.029801 -0.206932 0.100032 0.0274912 -0.229604 0.091503 0.025428 -0.251555 
0.0828471 0.0236409 -0.272794 0.0740162 0.0221481 -0.293343 0.0649449 0.0209566 -0.313233 
0.0555655 0.020063 -0.332501 0.0458232 0.019456 -0.351181 0.0356893 0.0191192 -0.369307 
0.0251704 0.0190344 -0.386903 0.0143122 0.0191845 -0.403991 0.00319889 0.0195556 -0.420586 
-0.00805374 0.0201382 -0.4367 -0.0193085 0.0209275 -0.45235 -0.0304202 0.0219216 -0.46755 
-0.0412499 0.0231199 -0.482323 -0.0516782 0.0245204 -0.496696 -0.061616 0.0261167 -0.5107 
-0.0710106 0.0278956 -0.524364 -0.0798479 0.0298352 -0.537716 -0.088149 0.0319046 -0.550769 
-0.0959624 0.0340639 -0.563524 -0.103353 0.0362658 -0.575956 -0.110392 0.0384588 -0.588016 
-0.117137 0.0405901 -0.599626 -0.123633 0.0426094 -0.610684 -0.129893 0.0444722 -0.621069 
-0.135903 0.0461434 -0.630645 -0.141619 0.0475985 -0.63928 -0.146978 0.0488256 -0.646852 
-0.1519 0.0498246 -0.653264 -0.156308 0.0506064 -0.658458 -0.160134 0.051191 -0.662425 
-0.163333 0.0516048 -0.665208 -0.165891 0.0518781 -0.666903 -0.167828 0.0520422 -0.66766 
-0.169199 0.0521274 -0.667669 -0.170087 0.0521611 -0.667148 -0.170595 0.0521671 -0.666327 
-0.170835 0.0521646 -0.665429 -0.17091 0.0521681 -0.66465 -0.170906 0.0521882 -0.664145 
-0.17088 0.0522313 -0.66401 
LINES 2 100
OFFSETS vtktypeint64
0 100 
CONNECTIVITY vtktypeint64
0 1 2 3 4 5 6 7 8 
9 10 11 12 13 14 15 16 17 
18 19 20 21 22 23 24 25 26 
27 28 29 30 31 32 33 34 35 
36 37 38 39 40 41 42 43 44 
45 46 47 48 49 50 51 52 53 
54 55 56 57 58 59 60 61 62 
63 64 65 66 67 68 69 70 71 
72 73 74 75 76 77 78 79 80 
81 82 83 84 85 86 87 88 89 
90 91 92 93 94 95 96 97 98 
99 
POINT_DATA 100
FIELD FieldData 3
_theta 1 100 double
0 0.031733259127 0.063466518254 0.095199777382 0.12693303651 0.15866629564 0.19039955476 0.22213281389 0.25386607302 
0.28559933214 0.31733259127 0.3490658504 0.38079910953 0.41253236865 0.44426562778 0.47599888691 0.50773214603 0.53946540516 
0.57119866429 0.60293192342 0.63466518254 0.66639844167 0.6981317008 0.72986495992 0.76159821905 0.79333147818 0.82506473731 
0.85679799643 0.88853125556 0.92026451469 0.95199777382 0.98373103294 1.0154642921 1.0471975512 1.0789308103 1.1106640695 
1.1423973286 1.1741305877 1.2058638468 1.237597106 1.2693303651 1.3010636242 1.3327968833 1.3645301425 1.3962634016 
1.4279966607 1.4597299198 1.491463179 1.5231964381 1.5549296972 1.5866629564 1.6183962155 1.6501294746 1.6818627337 
1.7135959929 1.745329252 1.7770625111 1.8087957702 1.8405290294 1.8722622885 1.9039955476 1.9357288068 1.9674620659 
1.999195325 2.0309285841 2.0626618433 2.0943951024 2.1261283615 2.1578616206 2.1895948798 2.2213281389 2.253061398 
2.2847946572 2.3165279163 2.3482611754 2.3799944345 2.4117276937 2.4434609528 2.4751942119 2.506927471 2.5386607302 
2.5703939893 2.6021272484 2.6338605076 2.6655937667 2.6973270258 2.7290602849 2.7607935441 2.7925268032 2.8242600623 
2.8559933214 2.8877265806 2.9194598397 2.9511930988 2.982926358 3.0146596171 3.0463928762 3.0781261353 3.1098593945 
3.1415926536 
_radius 1 100 double
6.7546487979e-16 0.014093783963 0.027983228429 0.041477967041 0.054422248737 0.066707487545 0.078279532882 0.089139775985 0.099339897918 
0.10897082159 0.11814715987 0.12698905928 0.13560374854 0.14406925336 0.15242256863 0.16065403449 0.16870875692 0.17649478255 
0.18389662692 0.19079192873 0.19706861661 0.20264003936 0.2074559415 0.21150786973 0.21482848934 0.21748526154 0.21956982118 
0.22118500761 0.22243170117 0.22339737465 0.22414768627 0.22472173471 0.22513101872 0.2253618412 0.22538079974 0.22514288414 
0.22460139807 0.22371851989 0.22247508526 0.22087829649 0.21896644492 0.21681014504 0.21450998691 0.21219102988 0.20999509197 
0.20807198568 0.2065704956 0.20562917149 0.2053664247 0.2058695234 0.20718312488 0.20929949854 0.21215350324 0.21562479976 
0.21954784065 0.22372798371 0.22796072639 0.2320508812 0.23582911716 0.23916415454 0.24196973651 0.2442062484 0.24587751242 
0.24702381427 0.24771254096 0.2480278396 0.24806042352 0.24789815743 0.24761756534 0.24727615934 0.24690563168 0.24650649256 
0.2460454422 0.24545705812 0.24465057428 0.24352064632 0.24195921156 0.23986522928 0.23715040235 0.23374090545 0.22957652153 
0.22460891289 0.2188002284 0.2121224381 0.20455720295 0.19609591107 0.1867396236 0.17649885547 0.16539323184 0.15345108737 
0.14070906129 0.12721174058 0.11301143109 0.098168152185 0.082749891228 0.066833007292 0.050502510825 0.033851874535 0.016982106471 
1.1295627383e-15 
_area 1 100 double
0 0.00058001449935 0.0022898449112 0.0050418860655 0.0087000814466 0.013094150768 0.01803774857 0.023348310916 0.028865634335 
0.034466007836 0.040069123794 0.04563600788 0.051157815851 0.056637526163 0.062068893629 0.067418451918 0.072615804103 0.077554886897 
0.082105402096 0.086130669265 0.089507129862 0.092142164754 0.093989438048 0.095061889298 0.095440842941 0.095278164123 0.094789721881 
0.094241669785 0.09392971986 0.09413092602 0.09499638956 0.096474366029 0.098370450973 0.10044423533 0.10246887302 0.10426811334 
0.10573798364 0.10683781396 0.10755356157 0.10788224386 0.10785973654 0.1075979227 0.10731640039 0.10732403656 0.10779172019 
0.10865650848 0.10979608888 0.11118336727 0.11287130675 0.11496722647 0.11760624671 0.12091727456 0.12498263199 0.12980131136 
0.13526771146 0.14117249724 0.14722526749 0.15309401947 0.15845355333 0.16303304575 0.16665300342 0.16924445464 0.17084744924 
0.17159006221 0.17165270907 0.17122635352 0.17047654103 0.16952401156 0.16844342151 0.16727046008 0.16600579351 0.1646129893 
0.16301692508 0.16111083876 0.15877432024 0.15589718661 0.15240069451 0.14824904346 0.14344816549 0.13803252315 0.13204387476 
0.12551001999 0.11843437302 0.11080367856 0.10261111145 0.093883135375 0.084697595323 0.075186653192 0.065525981229 0.055916573401 
0.046566117862 0.037674364968 0.029423742957 0.021974363978 0.015461888432 0.0099969855117 0.0056657586503 0.0025310485419 0.00063463957734 
6.9602493258e-17 
