# vtk DataFile Version 5.1
vtk output
ASCII
DATASET POLYDATA
POINTS 100 float
-0.0831462 -0.0217691 0.751841 -0.0831276 -0.0215502 0.751772 -0.0831081 -0.0207092 0.751556 
-0.0830808 -0.0193075 0.751123 -0.0830327 -0.0174411 0.750363 -0.0829422 -0.0152299 0.749136 
-0.0827759 -0.0128038 0.747287 -0.0824862 -0.010288 0.744657 -0.0820098 -0.00778891 0.741103 
-0.0812684 -0.00538249 0.736505 -0.0801708 -0.00310585 0.730776 -0.0786178 -0.000953876 0.723867 
-0.0765088 0.00111931 0.715771 -0.0737497 0.00319412 0.706511 -0.0702611 0.00537513 0.696142 
-0.0659867 0.00777776 0.684736 -0.0608995 0.0105136 0.672374 -0.0550059 0.0136758 0.659135 
-0.0483467 0.0173264 0.645086 -0.0409951 0.0214864 0.63028 -0.0330505 0.0261305 0.614748 
-0.0246308 0.0311857 0.598499 -0.0158616 0.0365348 0.581527 -0.00686535 0.0420244 0.563812 
0.00224922 0.0474752 0.545326 0.011396 0.0526955 0.526042 0.0205175 0.0574947 0.505939 
0.029587 0.0616966 0.485004 0.0386067 0.0651509 0.463238 0.0476025 0.0677425 0.440656 
0.0566143 0.0693975 0.417285 0.0656855 0.0700855 0.393161 0.0748494 0.0698197 0.368326 
0.0841184 0.0686528 0.342829 0.0934725 0.066672 0.316715 0.102853 0.0639914 0.290032 
0.11216 0.0607443 0.262828 0.121251 0.0570752 0.235153 0.129951 0.0531317 0.20706 
0.138061 0.0490581 0.178613 0.145368 0.0449888 0.149888 0.151667 0.0410441 0.120976 
0.15677 0.0373257 0.0919854 0.160525 0.0339149 0.0630382 0.162823 0.0308702 0.0342704 
0.163611 0.0282268 0.0058248 0.162893 0.0259969 -0.022156 0.160731 0.0241707 -0.0495375 
0.157236 0.0227189 -0.0762012 0.152563 0.0215958 -0.102053 0.146894 0.0207433 -0.127027 
0.140432 0.0200964 -0.151089 0.133376 0.0195887 -0.17424 0.125918 0.0191578 -0.196508 
0.118225 0.018752 -0.217944 0.110435 0.0183341 -0.238616 0.102649 0.017886 -0.2586 
0.0949314 0.0174099 -0.277971 0.0873106 0.0169289 -0.296793 0.0797844 0.0164848 -0.315116 
0.0723262 0.0161336 -0.332972 0.0648925 0.0159404 -0.350375 0.0574318 0.0159721 -0.367324 
0.0498915 0.0162907 -0.383806 0.0422253 0.0169459 -0.399805 0.034398 0.0179699 -0.415305 
0.0263892 0.0193734 -0.430302 0.018195 0.0211439 -0.444805 0.00982833 0.0232466 -0.458841 
0.00131775 0.0256273 -0.472453 -0.00729463 0.0282178 -0.485699 -0.0159558 0.0309421 -0.498644 
-0.0246049 0.0337234 -0.511358 -0.0331762 0.0364909 -0.523901 -0.0416016 0.0391854 -0.536319 
-0.0498134 0.041763 -0.548638 -0.0577464 0.0441972 -0.560852 -0.0653393 0.0464782 -0.572931 
-0.0725368 0.0486104 -0.584811 -0.0792902 0.0506082 -0.596407 -0.0855591 0.0524906 -0.607611 
-0.0913118 0.0542759 -0.618308 -0.0965267 0.0559771 -0.628381 -0.101192 0.0575978 -0.637719 
-0.105307 0.0591312 -0.646232 -0.108881 0.0605597 -0.653852 -0.111933 0.0618578 -0.66054 
-0.114493 0.0629957 -0.666288 -0.116597 0.0639444 -0.671121 -0.118288 0.0646807 -0.67509 
-0.119614 0.0651927 -0.678267 -0.120625 0.0654826 -0.680743 -0.121372 0.0655687 -0.68262 
-0.121903 0.0654853 -0.684002 -0.122265 0.0652796 -0.684989 -0.122499 0.0650075 -0.685674 
-0.12264 0.0647278 -0.686138 -0.122715 0.0644956 -0.686446 -0.122746 0.0643561 -0.686644 
-0.122744 0.0643393 -0.68676 
LINES 2 100
OFFSETS vtktypeint64
0 100 
CONNECTIVITY vtktypeint64
0 1 2 3 4 5 6 7 8 
9 10 11 12 13 14 15 16 17 
18 19 20 21 22 23 24 25 26 
27 28 29 30 31 32 33 34 35 
36 37 38 39 40 41 42 43 44 
45 46 47 48 49 50 51 52 53 
54 55 56 57 58 59 60 61 62 
63 64 65 66 67 68 69 70 71 
72 73 74 75 76 77 78 79 80 
81 82 83 84 85 86 87 88 89 
90 91 92 93 94 95 96 97 98 
99 
POINT_DATA 100
FIELD FieldData 3
_theta 1 100 double
0 0.031733259127 0.063466518254 0.095199777382 0.12693303651 0.15866629564 0.19039955476 0.22213281389 0.25386607302 
0.28559933214 0.31733259127 0.3490658504 0.38079910953 0.41253236865 0.44426562778 0.47599888691 0.50773214603 0.53946540516 
0.57119866429 0.60293192342 0.63466518254 0.66639844167 0.6981317008 0.72986495992 0.76159821905 0.79333147818 0.82506473731 
0.85679799643 0.88853125556 0.92026451469 0.95199777382 0.98373103294 1.0154642921 1.0471975512 1.0789308103 1.1106640695 
1.1423973286 1.1741305877 1.2058638468 1.237597106 1.2693303651 1.3010636242 1.3327968833 1.3645301425 1.3962634016 
1.4279966607 1.4597299198 1.491463179 1.5231964381 1.5549296972 1.5866629564 1.6183962155 1.6501294746 1.6818627337 
1.7135959929 1.745329252 1.7770625111 1.8087957702 1.8405290294 1.8722622885 1.9039955476 1.9357288068 1.9674620659 
1.999195325 2.0309285841 2.0626618433 2.0943951024 2.1261283615 2.1578616206 2.1895948798 2.2213281389 2.253061398 
2.2847946572 2.3165279163 2.3482611754 2.3799944345 2.4117276937 2.4434609528 2.4751942119 2.506927471 2.5386607302 
2.5703939893 2.6021272484 2.6338605076 2.6655937667 2.6973270258 2.7290602849 2.7607935441 2.7925268032 2.8242600623 
2.8559933214 2.8877265806 2.9194598397 2.9511930988 2.982926358 3.0146596171 3.0463928762 3.0781261353 3.1098593945 
3.1415926536 
_radius 1 100 double
1.9031426646e-16 0.015047924588 0.029982348172 0.044685472446 0.059046112336 0.072962320013 0.086342851581 0.099107178814 0.11118397205 
0.12250835489 0.13301868656 0.14265398239 0.15135312111 0.15905661757 0.1657111016 0.17127599873 0.17573143301 0.1790860896 
0.18138365183 0.18270646606 0.18317531934 0.18294466027 0.18219322887 0.1811108058 0.17988251577 0.17867270318 0.17761078623 
0.1767816571 0.17622293729 0.17593026887 0.17586943576 0.17599079125 0.17623903652 0.17655389932 0.17686732748 0.17711009391 
0.17723094342 0.17721730793 0.17710658244 0.17698438684 0.17697159056 0.17720542572 0.17782216346 0.17894656853 0.1806867754 
0.1831287939 0.1863270237 0.19029247213 0.19498337618 0.20030234007 0.20610179214 0.21219727999 0.21838638986 0.22446995234 
0.23027186113 0.23565438788 0.24052705605 0.24484846662 0.24862159598 0.25188388329 0.25469391028 0.25711672021 0.2592098809 
0.26101228513 0.26253735744 0.26377171967 0.26467943235 0.26521080852 0.26531378989 0.26494531365 0.26408016543 0.26271547958 
0.26087011056 0.25857927273 0.2558858105 0.25282994493 0.24943927465 0.24572039898 0.24165311557 0.23718789622 0.23224717362 
0.22673069123 0.22052468684 0.21351405601 0.20559602758 0.19669344938 0.18676565596 0.17581513354 0.16388880005 0.15107359584 
0.13748708617 0.12326470433 0.10854588573 0.093461464387 0.078124254611 0.062623849801 0.047025640273 0.031373230474 0.015693047338 
7.7053209136e-16 
_area 1 100 double
0 0.00061405998194 0.002431127531 0.0053800511531 0.0093541102591 0.014223232198 0.019844232112 0.026067444478 0.032739042269 
0.039698577054 0.046772586028 0.053767533618 0.060467103494 0.066638210365 0.072047130945 0.076483607821 0.079788194087 0.081876803453 
0.08275662228 0.082530113721 0.081389783903 0.079618563774 0.077704966425 0.075977729177 0.074570794459 0.073592780011 0.07311132721 
0.073135064286 0.073638005639 0.074585847539 0.075924540627 0.077579198715 0.079480030689 0.081550508408 0.083650923057 0.085560574009 
0.087053714189 0.088010753354 0.088498809255 0.088800105774 0.089326214159 0.090343630802 0.091826343829 0.093870919299 0.096607431961 
0.099619134635 0.10274800905 0.10605773006 0.109693281 0.11381151289 0.11853652721 0.12392071184 0.12992123273 0.13639756086 
0.14313099595 0.14986105079 0.15632539438 0.16229169883 0.16757883215 0.1720697665 0.17571687885 0.17853917881 0.18062064702 
0.18213838502 0.18324072692 0.18375818752 0.18359048498 0.18271017319 0.18113307445 0.17891274194 0.17613344005 0.17290156522 
0.16933149619 0.16552138031 0.16152523494 0.15734124913 0.15292704502 0.14822529373 0.14317902416 0.13773339238 0.13183106013 
0.12540896599 0.11840202089 0.11075599532 0.10244764779 0.093506150199 0.084028040302 0.074179402029 0.064183152275 0.054294340883 
0.04477020902 0.035843011187 0.027701944171 0.020486784101 0.014291753251 0.009175469025 0.0051723466614 0.0023021072816 0.00057600197706 
2.6447960577e-17 
