# vtk DataFile Version 5.1
vtk output
ASCII
DATASET POLYDATA
POINTS 100 float
-0.136416 -0.0270314 0.707406 -0.136471 -0.0271904 0.707315 -0.13668 -0.0274794 0.707062 
-0.137018 -0.0278511 0.70656 -0.137439 -0.0282304 0.705675 -0.137879 -0.0285208 0.704242 
-0.138253 -0.0286114 0.702081 -0.138456 -0.0283856 0.699017 -0.138366 -0.0277301 0.694896 
-0.137845 -0.0265432 0.689604 -0.13675 -0.0247431 0.683074 -0.134936 -0.0222734 0.675291 
-0.132268 -0.0191079 0.666292 -0.128631 -0.0152526 0.656158 -0.123941 -0.0107455 0.645004 
-0.118149 -0.00565387 0.632965 -0.111254 -7.04355e-05 0.620179 -0.103299 0.00589256 0.606772 
-0.094374 0.01211 0.592852 -0.0846114 0.018451 0.578495 -0.074175 0.0247856 0.563742 
-0.0632496 0.0309912 0.548604 -0.0520271 0.0369573 0.533064 -0.0406927 0.0425895 0.517083 
-0.0294112 0.0478116 0.500613 -0.0183163 0.0525663 0.483605 -0.00750271 0.0568144 0.466015 
0.00297647 0.0605337 0.447813 0.0131088 0.0637159 0.428985 0.0229161 0.0663644 0.409531 
0.0324454 0.0684911 0.389465 0.0417555 0.0701139 0.368808 0.0509042 0.0712546 0.347586 
0.0599342 0.0719377 0.325822 0.068862 0.0721888 0.303531 0.077669 0.0720351 0.280725 
0.0862972 0.071505 0.257406 0.0946498 0.0706285 0.233576 0.102596 0.0694375 0.209239 
0.10998 0.0679662 0.18441 0.116632 0.0662506 0.159118 0.122385 0.0643286 0.133416 
0.127084 0.0622386 0.107382 0.130606 0.0600187 0.0811164 0.132864 0.0577054 0.0547453 
0.133816 0.0553322 0.0284085 0.133471 0.052929 0.00225367 0.131883 0.0505208 -0.023575 
0.129148 0.048128 -0.0489468 0.125396 0.0457665 -0.0737543 0.120776 0.0434488 -0.0979201 
0.11545 0.0411852 -0.121401 0.109573 0.0389855 -0.144186 0.10329 0.0368606 -0.166297 
0.0967243 0.0348237 -0.187777 0.0899696 0.032892 -0.208682 0.083091 0.0310866 -0.229072 
0.0761239 0.0294323 -0.248999 0.0690771 0.0279569 -0.268499 0.0619385 0.0266893 -0.287587 
0.0546816 0.0256574 -0.306257 0.0472721 0.0248853 -0.324477 0.0396747 0.0243913 -0.342203 
0.031859 0.0241853 -0.359379 0.0238034 0.0242673 -0.375953 0.0154979 0.0246265 -0.391881 
0.00694553 0.0252408 -0.407139 -0.00183874 0.0260787 -0.421723 -0.0108289 0.0271 -0.435659 
-0.0199904 0.0282589 -0.448995 -0.0292823 0.0295067 -0.461798 -0.0386599 0.030795 -0.474148 
-0.0480764 0.0320782 -0.486123 -0.0574845 0.0333163 -0.497796 -0.0668372 0.0344761 -0.509221 
-0.0760881 0.0355326 -0.520427 -0.0851911 0.0364687 -0.531415 -0.0941008 0.0372744 -0.542157 
-0.102771 0.0379456 -0.552602 -0.111158 0.0384822 -0.562678 -0.119215 0.0388862 -0.572309 
-0.126901 0.0391602 -0.581417 -0.134173 0.0393059 -0.589935 -0.140996 0.0393236 -0.597817 
-0.147339 0.0392126 -0.60504 -0.153178 0.0389713 -0.611607 -0.158496 0.0385992 -0.617544 
-0.163287 0.0380984 -0.6229 -0.167553 0.0374752 -0.627732 -0.171303 0.0367418 -0.632103 
-0.174558 0.0359175 -0.63607 -0.177342 0.0350292 -0.639675 -0.179685 0.0341104 -0.642945 
-0.18162 0.0332007 -0.645884 -0.183181 0.032343 -0.648478 -0.1844 0.0315808 -0.650697 
-0.185307 0.0309556 -0.6525 -0.185926 0.030503 -0.653844 -0.186276 0.0302504 -0.654692 
-0.186369 0.0302146 -0.655017 
LINES 2 100
OFFSETS vtktypeint64
0 100 
CONNECTIVITY vtktypeint64
0 1 2 3 4 5 6 7 8 
9 10 11 12 13 14 15 16 17 
18 19 20 21 22 23 24 25 26 
27 28 29 30 31 32 33 34 35 
36 37 38 39 40 41 42 43 44 
45 46 47 48 49 50 51 52 53 
54 55 56 57 58 59 60 61 62 
63 64 65 66 67 68 69 70 71 
72 73 74 75 76 77 78 79 80 
81 82 83 84 85 86 87 88 89 
90 91 92 93 94 95 96 97 98 
99 
POINT_DATA 100
FIELD FieldData 3
_theta 1 100 double
0 0.031733259127 0.063466518254 0.095199777382 0.12693303651 0.15866629564 0.19039955476 0.22213281389 0.25386607302 
0.28559933214 0.31733259127 0.3490658504 0.38079910953 0.41253236865 0.44426562778 0.47599888691 0.50773214603 0.53946540516 
0.57119866429 0.60293192342 0.63466518254 0.66639844167 0.6981317008 0.72986495992 0.76159821905 0.79333147818 0.82506473731 
0.85679799643 0.88853125556 0.92026451469 0.95199777382 0.98373103294 1.0154642921 1.0471975512 1.0789308103 1.1106640695 
1.1423973286 1.1741305877 1.2058638468 1.237597106 1.2693303651 1.3010636242 1.3327968833 1.3645301425 1.3962634016 
1.4279966607 1.4597299198 1.491463179 1.5231964381 1.5549296972 1.5866629564 1.6183962155 1.6501294746 1.6818627337 
1.7135959929 1.745329252 1.7770625111 1.8087957702 1.8405290294 1.8722622885 1.9039955476 1.9357288068 1.9674620659 
1.999195325 2.0309285841 2.0626618433 2.0943951024 2.1261283615 2.1578616206 2.1895948798 2.2213281389 2.253061398 
2.2847946572 2.3165279163 2.3482611754 2.3799944345 2.4117276937 2.4434609528 2.4751942119 2.506927471 2.5386607302 
2.5703939893 2.6021272484 2.6338605076 2.6655937667 2.6973270258 2.7290602849 2.7607935441 2.7925268032 2.8242600623 
2.8559933214 2.8877265806 2.9194598397 2.9511930988 2.982926358 3.0146596171 3.0463928762 3.0781261353 3.1098593945 
3.1415926536 
_radius 1 100 double
2.5018537766e-16 0.015919445953 0.031724003712 0.04729746666 0.062520501427 0.077270430302 0.091422504871 0.10485289506 0.11744342141 
0.12908780542 0.13969889829 0.14921601429 0.15761123444 0.16489347095 0.17110927826 0.17633987621 0.18069453347 0.1843011819 
0.18729568097 0.18981132985 0.19196993644 0.19387510983 0.19560777712 0.19722359391 0.19875200146 0.20019689687 0.20153885415 
0.20273851204 0.20374054355 0.20447805859 0.20487825318 0.204870594 0.20439794093 0.2034293226 0.20197194692 0.20007995893 
0.19785799399 0.19545825895 0.19307065941 0.19090652029 0.18917777818 0.18807494943 0.18774810257 0.18829465494 0.18975572088 
0.19211985635 0.1953310659 0.19929783116 0.20390120117 0.20900151742 0.21444437177 0.22006675418 0.22570415764 0.2311988395 
0.23640871373 0.24121575851 0.24553262222 0.24930637359 0.25251893377 0.25518439407 0.25734392048 0.25905913787 0.26040478122 
0.26146113262 0.26230651782 0.26301005311 0.26362492597 0.26418266438 0.26468896898 0.26512166561 0.26543116707 0.26554353027 
0.26536580651 0.26479299456 0.26371565777 0.26202726018 0.25963049917 0.25644223684 0.25239692177 0.24744857562 0.24157149777 
0.23475985003 0.22702626144 0.21839957185 0.20892183433 0.1986447346 0.18762566365 0.17592379137 0.16359660561 0.15069743056 
0.13727432443 0.12337045963 0.10902573782 0.094279164826 0.079171463291 0.063747455658 0.048057825677 0.032159957461 0.016117688818 
7.2111688623e-16 
_area 1 100 double
0 0.00059537498542 0.0023780353693 0.0053320709515 0.009414776089 0.014538932591 0.020558094781 0.027260187923 0.034372664377 
0.041579995454 0.048551725962 0.054977028654 0.060600082979 0.065249985909 0.068859387629 0.071467583606 0.073206399624 0.074271100279 
0.074883556452 0.075258665081 0.075582960454 0.076005898068 0.076637727213 0.077549530557 0.078774269382 0.080307995206 0.082112809939 
0.084121650056 0.086239452014 0.088342122914 0.090283006137 0.091911395134 0.093098557639 0.093762270438 0.0938837605 0.093516390768 
0.092787128036 0.091890648558 0.091074448443 0.090610018657 0.090742346922 0.091633360514 0.093350462154 0.095898226865 0.099242126585 
0.10331981104 0.10805378733 0.1133626768 0.11916536694 0.12537840343 0.13190958535 0.13865079229 0.14547289929 0.15222546497 
0.1587433135 0.16486050696 0.1704291529 0.17533721855 0.17951863464 0.18295199324 0.18564967999 0.18764389935 0.1889767139 
0.18969759865 0.18986683943 0.18955978132 0.18886697282 0.1878877929 0.18671766537 0.18542939373 0.18404957138 0.18253611958 
0.18076986765 0.178570103 0.17573021693 0.17205955497 0.16741831096 0.16173756279 0.15502189265 0.14733782217 0.13879636474 
0.12953864394 0.11972841458 0.1095484977 0.099195059056 0.088865707431 0.078741992193 0.068970942708 0.059652218855 0.050836871964 
0.042540442743 0.034767332595 0.027537484501 0.020904882241 0.014962072728 0.0098318433153 0.0056511082882 0.0025520826021 0.0006443167827 
1.5932842612e-17 
