# vtk DataFile Version 5.1
vtk output
ASCII
DATASET POLYDATA
POINTS 100 float
-0.213991 -0.0446211 0.631925 -0.213643 -0.0448818 0.632231 -0.212609 -0.0454427 0.633113 
-0.210857 -0.0461851 0.634393 -0.208339 -0.0469297 0.635793 -0.205 -0.0474584 0.636979 
-0.200793 -0.0475408 0.637595 -0.195684 -0.0469622 0.637312 -0.189659 -0.0455498 0.635865 
-0.182733 -0.0431931 0.633084 -0.174941 -0.0398566 0.628911 -0.166337 -0.0355836 0.623399 
-0.156984 -0.0304903 0.616697 -0.146943 -0.0247516 0.609025 -0.13626 -0.0185805 0.600633 
-0.124963 -0.0122034 0.591763 -0.113053 -0.0058357 0.582609 -0.100512 0.000340499 0.573282 
-0.0873069 0.00619288 0.563797 -0.0734088 0.0116481 0.55406 -0.0588074 0.0166926 0.543882 
-0.0435308 0.0213652 0.533004 -0.027663 0.0257435 0.521129 -0.0113545 0.0299243 0.507964 
0.00517393 0.0340038 0.493262 0.0216373 0.0380573 0.476853 0.0377028 0.0421236 0.458677 
0.0530151 0.0461948 0.438791 0.067228 0.0502132 0.417367 0.0800398 0.0540758 0.394674 
0.0912263 0.0576459 0.371049 0.100669 0.0607686 0.346859 0.10837 0.0632905 0.322459 
0.114461 0.065079 0.298154 0.119188 0.0660387 0.27417 0.122891 0.0661244 0.250631 
0.125961 0.0653472 0.227557 0.128804 0.063774 0.204871 0.131784 0.0615209 0.182422 
0.135184 0.05874 0.160015 0.139164 0.0556046 0.137447 0.143744 0.0522907 0.114544 
0.148791 0.0489608 0.0911909 0.154033 0.0457504 0.0673533 0.159086 0.0427588 0.0430877 
0.163497 0.0400452 0.0185383 0.166796 0.0376309 -0.00607941 0.168545 0.0355055 -0.0305033 
0.168397 0.0336374 -0.0544567 0.166129 0.0319856 -0.0776812 0.161672 0.0305114 -0.099967 
0.15512 0.0291879 -0.121176 0.146716 0.0280064 -0.141255 0.136827 0.0269785 -0.160236 
0.125903 0.0261334 -0.17823 0.11442 0.0255118 -0.195402 0.102837 0.0251571 -0.211951 
0.0915411 0.0251048 -0.228078 0.0808123 0.0253732 -0.24396 0.0708004 0.0259561 -0.259728 
0.0615191 0.0268184 -0.275456 0.0528579 0.027897 -0.291154 0.0446094 0.0291047 -0.306777 
0.0365072 0.0303396 -0.322238 0.0282712 0.0314956 -0.337427 0.0196507 0.032475 -0.352238 
0.0104629 0.0332005 -0.366586 0.000619658 0.0336246 -0.380427 -0.00985985 0.0337361 -0.393766 
-0.0208524 0.0335612 -0.406655 -0.0321482 0.0331609 -0.41919 -0.0434804 0.0326231 -0.431492 
-0.054562 0.0320522 -0.443686 -0.0651239 0.0315561 -0.455877 -0.0749499 0.0312332 -0.468136 
-0.0839028 0.0311606 -0.480476 -0.0919387 0.0313854 -0.492848 -0.0991068 0.0319198 -0.505144 
-0.105537 0.0327406 -0.517203 -0.111412 0.0337932 -0.528834 -0.116942 0.034999 -0.539835 
-0.12232 0.0362655 -0.550022 -0.127699 0.037498 -0.559251 -0.133161 0.0386098 -0.567439 
-0.138707 0.039532 -0.57457 -0.144252 0.0402194 -0.580702 -0.149644 0.0406534 -0.585955 
-0.154678 0.0408417 -0.590494 -0.159139 0.0408138 -0.59451 -0.162825 0.0406156 -0.598187 
-0.165588 0.0403012 -0.601684 -0.167357 0.0399258 -0.60511 -0.168148 0.0395391 -0.60851 
-0.168077 0.0391804 -0.611864 -0.167336 0.0388762 -0.61509 -0.166179 0.0386406 -0.618058 
-0.164885 0.0384769 -0.620611 -0.163723 0.0383816 -0.622594 -0.162915 0.0383482 -0.62387 
-0.162608 0.0383709 -0.624348 
LINES 2 100
OFFSETS vtktypeint64
0 100 
CONNECTIVITY vtktypeint64
0 1 2 3 4 5 6 7 8 
9 10 11 12 13 14 15 16 17 
18 19 20 21 22 23 24 25 26 
27 28 29 30 31 32 33 34 35 
36 37 38 39 40 41 42 43 44 
45 46 47 48 49 50 51 52 53 
54 55 56 57 58 59 60 61 62 
63 64 65 66 67 68 69 70 71 
72 73 74 75 76 77 78 79 80 
81 82 83 84 85 86 87 88 89 
90 91 92 93 94 95 96 97 98 
99 
POINT_DATA 100
FIELD FieldData 3
_theta 1 100 double
0 0.031733259127 0.063466518254 0.095199777382 0.12693303651 0.15866629564 0.19039955476 0.22213281389 0.25386607302 
0.28559933214 0.31733259127 0.3490658504 0.38079910953 0.41253236865 0.44426562778 0.47599888691 0.50773214603 0.53946540516 
0.57119866429 0.60293192342 0.63466518254 0.66639844167 0.6981317008 0.72986495992 0.76159821905 0.79333147818 0.82506473731 
0.85679799643 0.88853125556 0.92026451469 0.95199777382 0.98373103294 1.0154642921 1.0471975512 1.0789308103 1.1106640695 
1.1423973286 1.1741305877 1.2058638468 1.237597106 1.2693303651 1.3010636242 1.3327968833 1.3645301425 1.3962634016 
1.4279966607 1.4597299198 1.491463179 1.5231964381 1.5549296972 1.5866629564 1.6183962155 1.6501294746 1.6818627337 
1.7135959929 1.745329252 1.7770625111 1.8087957702 1.8405290294 1.8722622885 1.9039955476 1.9357288068 1.9674620659 
1.999195325 2.0309285841 2.0626618433 2.0943951024 2.1261283615 2.1578616206 2.1895948798 2.2213281389 2.253061398 
2.2847946572 2.3165279163 2.3482611754 2.3799944345 2.4117276937 2.4434609528 2.4751942119 2.506927471 2.5386607302 
2.5703939893 2.6021272484 2.6338605076 2.6655937667 2.6973270258 2.7290602849 2.7607935441 2.7925268032 2.8242600623 
2.8559933214 2.8877265806 2.9194598397 2.9511930988 2.982926358 3.0146596171 3.0463928762 3.0781261353 3.1098593945 
3.1415926536 
_radius 1 100 double
2.3724523731e-16 0.020833713133 0.040992514689 0.059862342367 0.07695374585 0.091944210945 0.10469940044 0.11527111523 0.12387307153 
0.13083866734 0.13656719611 0.14146595931 0.14589525984 0.15012179682 0.15428476522 0.15837919205 0.16226172031 0.16568136486 
0.16833065591 0.16990667307 0.17017090685 0.16899922246 0.1664154745 0.16260428258 0.15790071882 0.15275742919 0.14769300608 
0.14322900669 0.13982605244 0.13783035467 0.1374393402 0.1386892911 0.14146186126 0.14550293009 0.15044783893 0.15585206504 
0.16123330528 0.16612935612 0.17016254679 0.17309338792 0.17485218487 0.17554557621 0.17543812806 0.17491081204 0.17440237067 
0.17434531942 0.17511066932 0.17697024546 0.18007584872 0.18444910739 0.18997871664 0.19642805631 0.20345825053 0.21066702999 
0.21763703347 0.22398432276 0.22939942906 0.23367611301 0.23672530817 0.23857356449 0.23934719547 0.23924521614 0.23850567019 
0.23737075102 0.2360560321 0.23472805584 0.23349258284 0.23239341831 0.23141968327 0.23051840045 0.22960946989 0.2286009467 
0.22740315245 0.22594015981 0.22415698975 0.22202117019 0.21951837393 0.21664325187 0.21338766113 0.2097289652 0.20562110014 
0.20099086193 0.19574123065 0.1897621413 0.18294699111 0.17521115896 0.16650790036 0.1568375462 0.1462477673 0.13482549343 
0.12268415687 0.10995114225 0.09675798985 0.0832323906 0.069490251661 0.05562794785 0.041716467037 0.027799195432 0.013894107009 
9.0058096657e-16 
_area 1 100 double
0 0.00083623382193 0.0032438151053 0.0069399105933 0.011516067539 0.016514894995 0.021507413982 0.026153177175 0.030233962666 
0.033662256322 0.036471617944 0.038797117135 0.040853968751 0.042921186388 0.045331335802 0.048440832927 0.052426178864 0.056966379527 
0.06144580317 0.065251241167 0.067889340111 0.069056124229 0.068677057946 0.066906096095 0.06408281139 0.06065799859 0.05710561907 
0.053842298502 0.051174509342 0.049288206421 0.048292584154 0.048487555468 0.050119873045 0.052653166918 0.055747545977 0.059126381731 
0.062563778508 0.065960001807 0.069123138486 0.071848509758 0.074085259488 0.075908952989 0.077544368472 0.079367228874 0.081739254009 
0.084694680671 0.088075144709 0.091844852301 0.096044045752 0.10079665136 0.10628331501 0.1126597097 0.11994089257 0.12791183876 
0.13612072305 0.14396123141 0.15080631956 0.15614670645 0.15969588709 0.16143369594 0.16157446454 0.16046959277 0.1584854748 
0.15591366499 0.15294426336 0.14968750832 0.14621147907 0.14257523865 0.13884865757 0.13511584119 0.13146369858 0.12796154929 
0.12464031728 0.12148113896 0.11842101518 0.11537411042 0.11225768849 0.10900868179 0.10558099364 0.10192602432 0.09797165791 
0.093615830648 0.088740873675 0.083244396285 0.077076546529 0.070271103265 0.062958725436 0.055355062633 0.047723333263 0.040319421428 
0.033337251237 0.026881762359 0.020993395422 0.015704395107 0.011071007968 0.0071669292306 0.0040633607663 0.0018147654649 0.0004548463041 
3.243979427e-17 
