# vtk DataFile Version 5.1
vtk output
ASCII
DATASET POLYDATA
POINTS 100 float
-0.100294 -0.0654036 0.747482 -0.100209 -0.0652907 0.747296 -0.100004 -0.0647534 0.746703 
-0.0996834 -0.0637717 0.745669 -0.0992534 -0.0623164 0.744145 -0.0987166 -0.0603525 0.742067 
-0.0980683 -0.0578439 0.73937 -0.0972929 -0.0547578 0.735992 -0.0963598 -0.0510692 0.731879 
-0.0952225 -0.0467653 0.726993 -0.0938181 -0.0418479 0.721311 -0.0920698 -0.0363353 0.714826 
-0.0898911 -0.0302626 0.707543 -0.0871924 -0.0236811 0.699472 -0.0838877 -0.0166561 0.690625 
-0.0799032 -0.00926447 0.681007 -0.0751842 -0.00159179 0.67061 -0.0697019 0.00627048 0.659408 
-0.063457 0.0142275 0.647359 -0.0564816 0.022183 0.634404 -0.0488373 0.0300406 0.620474 
-0.0406111 0.0377046 0.605493 -0.0319082 0.0450804 0.589389 -0.0228435 0.0520745 0.572106 
-0.0135315 0.0585951 0.553604 -0.00407684 0.0645531 0.533877 0.00543327 0.0698633 0.512944 
0.0149354 0.0744468 0.490863 0.0243921 0.0782342 0.467716 0.033791 0.0811686 0.443614 
0.0431402 0.0832101 0.418682 0.0524604 0.0843385 0.393053 0.0617746 0.0845571 0.366857 
0.0710965 0.083894 0.340218 0.0804196 0.0824029 0.31324 0.0897071 0.0801621 0.286012 
0.0988853 0.0772714 0.258599 0.107841 0.0738481 0.231053 0.116422 0.0700211 0.203412 
0.124444 0.0659247 0.175709 0.131705 0.0616917 0.147978 0.137994 0.0574471 0.12026 
0.143111 0.0533021 0.0926059 0.146882 0.04935 0.0650826 0.149179 0.0456633 0.0377683 
0.149926 0.0422922 0.0107513 0.149115 0.0392657 -0.015876 0.146802 0.0365932 -0.0420237 
0.143107 0.0342678 -0.0676118 0.138207 0.0322702 -0.0925769 0.132318 0.0305725 -0.116877 
0.125679 0.0291426 -0.140494 0.118533 0.0279471 -0.163433 0.11111 0.0269543 -0.185724 
0.103604 0.0261356 -0.207407 0.0961621 0.0254664 -0.228536 0.0888786 0.0249265 -0.249165 
0.0817888 0.0244992 -0.269342 0.0748745 0.024171 -0.289103 0.0680727 0.023931 -0.308471 
0.0612898 0.0237703 -0.327451 0.0544174 0.023682 -0.346034 0.0473503 0.0236615 -0.364203 
0.0400026 0.023707 -0.381932 0.0323209 0.0238205 -0.3992 0.0242938 0.0240081 -0.415994 
0.0159551 0.0242806 -0.432313 0.00738222 0.0246531 -0.448172 -0.00131082 0.0251449 -0.463602 
-0.00998502 0.0257776 -0.478647 -0.0184903 0.0265732 -0.49336 -0.0266808 0.0275522 -0.507795 
-0.0344288 0.0287306 -0.521997 -0.0416369 0.0301181 -0.535998 -0.0482455 0.0317153 -0.549811 
-0.0542362 0.0335136 -0.56342 -0.0596295 0.0354938 -0.576786 -0.0644787 0.0376275 -0.589846 
-0.0688592 0.039878 -0.602517 -0.072857 0.0422033 -0.614706 -0.076555 0.0445587 -0.626317 
-0.0800216 0.0468999 -0.637262 -0.0833013 0.0491858 -0.647469 -0.0864097 0.0513816 -0.65689 
-0.0893326 0.0534598 -0.665502 -0.0920295 0.0554018 -0.673311 -0.0944415 0.0571974 -0.680349 
-0.0965019 0.058844 -0.686666 -0.0981478 0.0603449 -0.692327 -0.0993328 0.0617071 -0.6974 
-0.100036 0.0629395 -0.701949 -0.10027 0.0640503 -0.706025 -0.100082 0.0650458 -0.709666 
-0.0995537 0.065929 -0.712888 -0.0987925 0.0666998 -0.71569 -0.0979231 0.0673552 -0.718056 
-0.097074 0.0678899 -0.719958 -0.0963635 0.0682979 -0.721366 -0.095887 0.068574 -0.722252 
-0.0957065 0.0687146 -0.722596 
LINES 2 100
OFFSETS vtktypeint64
0 100 
CONNECTIVITY vtktypeint64
0 1 2 3 4 5 6 7 8 
9 10 11 12 13 14 15 16 17 
18 19 20 21 22 23 24 25 26 
27 28 29 30 31 32 33 34 35 
36 37 38 39 40 41 42 43 44 
45 46 47 48 49 50 51 52 53 
54 55 56 57 58 59 60 61 62 
63 64 65 66 67 68 69 70 71 
72 73 74 75 76 77 78 79 80 
81 82 83 84 85 86 87 88 89 
90 91 92 93 94 95 96 97 98 
99 
POINT_DATA 100
FIELD FieldData 3
_theta 1 100 double
0 0.031733259127 0.063466518254 0.095199777382 0.12693303651 0.15866629564 0.19039955476 0.22213281389 0.25386607302 
0.28559933214 0.31733259127 0.3490658504 0.38079910953 0.41253236865 0.44426562778 0.47599888691 0.50773214603 0.53946540516 
0.57119866429 0.60293192342 0.63466518254 0.66639844167 0.6981317008 0.72986495992 0.76159821905 0.79333147818 0.82506473731 
0.85679799643 0.88853125556 0.92026451469 0.95199777382 0.98373103294 1.0154642921 1.0471975512 1.0789308103 1.1106640695 
1.1423973286 1.1741305877 1.2058638468 1.237597106 1.2693303651 1.3010636242 1.3327968833 1.3645301425 1.3962634016 
1.4279966607 1.4597299198 1.491463179 1.5231964381 1.5549296972 1.5866629564 1.6183962155 1.6501294746 1.6818627337 
1.7135959929 1.745329252 1.7770625111 1.8087957702 1.8405290294 1.8722622885 1.9039955476 1.9357288068 1.9674620659 
1.999195325 2.0309285841 2.0626618433 2.0943951024 2.1261283615 2.1578616206 2.1895948798 2.2213281389 2.253061398 
2.2847946572 2.3165279163 2.3482611754 2.3799944345 2.4117276937 2.4434609528 2.4751942119 2.506927471 2.5386607302 
2.5703939893 2.6021272484 2.6338605076 2.6655937667 2.6973270258 2.7290602849 2.7607935441 2.7925268032 2.8242600623 
2.8559933214 2.8877265806 2.9194598397 2.9511930988 2.982926358 3.0146596171 3.0463928762 3.0781261353 3.1098593945 
3.1415926536 
_radius 1 100 double
3.7263863057e-16 0.015548112533 0.03095666795 0.046090022603 0.060828151336 0.075071702846 0.088743759131 0.10178768788 0.11416118291 
0.12582745438 0.13674534202 0.14686069209 0.15610151839 0.16437909935 0.17159609986 0.17766111685 0.1825071911 0.18611048306 
0.18850495886 0.18978959586 0.19012601959 0.189726331 0.18883293921 0.18769407003 0.18653956487 0.18556103658 0.18489865676 
0.18463483815 0.18479375397 0.18534526255 0.18621219256 0.18728061695 0.18841310772 0.1894648838 0.19030282666 0.19082742436 
0.19099580489 0.19084003322 0.19047281873 0.19007489345 0.18986384398 0.19005326582 0.19081932867 0.1922874093 0.19453495403 
0.19759750422 0.20147011855 0.20610466606 0.21140678533 0.21723601317 0.22341138325 0.22972338894 0.23595150328 0.24188480724 
0.2473422992 0.25218941749 0.25634810735 0.25979911362 0.26257668285 0.26475710739 0.26644330691 0.26774790355 0.26877711434 
0.26961739041 0.27032618656 0.2709276283 0.27141320047 0.27174693483 0.27187396695 0.27173084974 0.27125575948 0.27039679566 
0.26911697832 0.26739521275 0.26522327605 0.26259961414 0.25952129161 0.25597572964 0.25193387194 0.24734614976 0.24214214009 
0.23623422251 0.22952493615 0.22191719503 0.21332609074 0.20369073827 0.19298453509 0.18122232598 0.16846329512 0.1548089167 
0.14039593303 0.12538501749 0.10994642319 0.094244413634 0.078422527339 0.062591686885 0.046822818769 0.031145048952 0.015549764857 
6.1946020809e-16 
_area 1 100 double
0 0.00061469080676 0.0024455489928 0.005450792372 0.0095551666152 0.014646156988 0.020575353288 0.027166358351 0.034226778783 
0.041559243252 0.048966345274 0.056246801002 0.063184402218 0.069536643058 0.075033781634 0.079397582245 0.082380407232 0.083814220751 
0.083652935092 0.081994086325 0.079075660185 0.075258578007 0.071035610347 0.067309964719 0.064604349957 0.062956503945 0.062459097426 
0.062944649769 0.064206620381 0.065983766695 0.068033939208 0.070159553576 0.072211401268 0.074070940242 0.075629040437 0.076800122261 
0.077609421208 0.078358672208 0.079548002176 0.081272309493 0.083373071426 0.085789444207 0.088623345953 0.092001740797 0.095771927228 
0.099741092642 0.10389740419 0.10835712034 0.11327876333 0.11879287602 0.12494838611 0.13167353194 0.13876138835 0.14589798022 
0.15272928328 0.15894866839 0.16456549703 0.16992741249 0.17469806316 0.17868966763 0.18185424028 0.18432588682 0.18633615677 
0.18773745255 0.1885476679 0.18881141496 0.18854487472 0.18774647639 0.18641391626 0.18455531925 0.18219008376 0.1793413668 
0.17603127334 0.17228400793 0.16812686406 0.16358153994 0.15865406686 0.15333532269 0.14760959687 0.14146041859 0.13487077267 
0.12782183995 0.12029416683 0.11227285092 0.10375673071 0.094770316815 0.085375725086 0.075680761177 0.065839706053 0.056045439977 
0.046514203385 0.037466307468 0.029107006276 0.02161148035 0.015116500744 0.0097192678533 0.0054820228885 0.0024400242971 0.00061041937172 
6.6755508139e-17 
